<svg xmlns="http://www.w3.org/2000/svg" width="16" height="16" version="1.1"><defs><linearGradient id="linear0" x1="0%" x2="0%" y1="0%" y2="100%"><stop offset="0%" style="stop-color:#00b54e; stop-opacity:1"/><stop offset="50%" style="stop-color:#ffd000; stop-opacity:1"/><stop offset="100%" style="stop-color:#ff00bb; stop-opacity:1"/></linearGradient></defs>
  <path fill="url(#linear0)"  d="M 13.139 7.395 C 13.141 7.338 13.144 7.281 13.144 7.226 C 13.144 5.051 11.373 3.282 9.198 3.282 C 7.695 3.282 6.323 4.15 5.665 5.482 C 5.321 5.255 4.918 5.134 4.506 5.135 C 3.401 5.136 2.485 5.991 2.409 7.094 C 1.275 7.507 0.5 8.596 0.5 9.818 C 0.5 11.416 1.802 12.718 3.402 12.718 L 12.829 12.718 C 14.302 12.718 15.5 11.52 15.5 10.047 C 15.5 8.68 14.467 7.549 13.139 7.395 Z"/>
</svg>
