<svg xmlns="http://www.w3.org/2000/svg" width="16" height="16" version="1.1"><defs><linearGradient id="linear0" x1="0%" x2="0%" y1="0%" y2="100%"><stop offset="0%" style="stop-color:#00b54e; stop-opacity:1"/><stop offset="50%" style="stop-color:#ffd000; stop-opacity:1"/><stop offset="100%" style="stop-color:#ff00bb; stop-opacity:1"/></linearGradient></defs>
  <path fill="url(#linear0)"  d="M 8 0 C 3.582 0 0 3.582 0 8 C 0 12.418 3.582 16 8 16 C 12.418 16 16 12.418 16 8 C 16 3.582 12.418 0 8 0 Z M 12.153 10.829 C 12.153 10.966 12.042 11.077 11.905 11.077 L 10.86 11.077 C 10.723 11.077 10.612 10.966 10.612 10.829 L 10.612 7.61 C 10.612 7.584 10.581 7.571 10.559 7.588 L 8.345 9.802 C 8.155 9.992 7.841 9.992 7.65 9.802 L 5.437 7.588 C 5.419 7.571 5.384 7.584 5.384 7.61 L 5.384 10.829 C 5.384 10.966 5.273 11.077 5.136 11.077 L 4.091 11.077 C 3.954 11.077 3.843 10.966 3.843 10.829 L 3.843 5.171 C 3.843 5.034 3.954 4.923 4.091 4.923 L 4.808 4.923 C 4.936 4.923 5.065 4.976 5.158 5.069 L 7.911 7.823 C 7.96 7.872 8.035 7.872 8.084 7.823 L 10.838 5.069 C 10.931 4.976 11.055 4.923 11.188 4.923 L 11.905 4.923 C 12.042 4.923 12.153 5.034 12.153 5.171 L 12.153 10.829 L 12.153 10.829 Z"/>
</svg>
