<?xml version="1.0" encoding="UTF-8" standalone="no"?>
<svg
   height="16"
   width="16"
   version="1.1"
   id="svg4"
   sodipodi:docname="applications-other-symbolic.svg"
   inkscape:version="1.2.2 (b0a8486541, 2022-12-01)"
   xmlns:inkscape="http://www.inkscape.org/namespaces/inkscape"
   xmlns:sodipodi="http://sodipodi.sourceforge.net/DTD/sodipodi-0.dtd"
   xmlns="http://www.w3.org/2000/svg"
   xmlns:svg="http://www.w3.org/2000/svg">
  <defs
     id="defs8" />
  <style
     type="text/css"
     id="current-color-scheme">
     .ColorScheme-Text {
     color:#31363b;
     }
  </style>
  <sodipodi:namedview
     id="namedview6"
     pagecolor="#ffffff"
     bordercolor="#666666"
     borderopacity="1.0"
     inkscape:showpageshadow="2"
     inkscape:pageopacity="0.0"
     inkscape:pagecheckerboard="0"
     inkscape:deskcolor="#d1d1d1"
     showgrid="false"
     inkscape:zoom="19.953669"
     inkscape:cx="-1.9545277"
     inkscape:cy="12.303501"
     inkscape:window-width="1920"
     inkscape:window-height="1056"
     inkscape:window-x="0"
     inkscape:window-y="0"
     inkscape:window-maximized="1"
     inkscape:current-layer="svg4" />
  <path
     d="M2.5 1C1.678 1 1 1.678 1 2.5v11c0 .822.678 1.5 1.5 1.5h11c.822 0 1.5-.678 1.5-1.5v-11c0-.822-.678-1.5-1.5-1.5zm0 1h11c.286 0 .5.214.5.5v11c0 .286-.214.5-.5.5h-11a.488.488 0 0 1-.5-.5v-11c0-.286.214-.5.5-.5zm4.701 2.002v1.187l-.176.063c-.082.03-.175.075-.275.123l-.168.082-.834-.832c0-.003-.01-.004-.012-.006 0 .002-.011.004-.011.006l-1.1 1.1c.011-.011.011.03 0 .02l.832.835-.082.17c-.048.1-.092.192-.121.273l-.065.178H4v1.598h1.19l.064.178c.029.08.072.173.121.273l.082.17-.832.836c.011-.01.011.03 0 .02l1.1 1.099c-.011-.01.033-.01.023 0l.834-.832.168.082c.099.047.193.093.275.123l.176.062v1.188h1.6V10.81l.177-.062c.082-.03.174-.075.274-.123l.172-.082.832.832c-.011-.01.034-.01.023 0l1.1-1.1c-.012.011-.012-.03 0-.02l-.835-.835.082-.17c.048-.1.092-.192.122-.274l.064-.177H12V7.2h-1.188l-.064-.178a2.75 2.75 0 0 0-.12-.273l-.083-.17.834-.836c-.01.01-.01-.03 0-.02l-1.1-1.099c.012.01-.033.01-.021 0l-.834.832-.17-.082c-.1-.048-.193-.093-.276-.123l-.175-.063V4.001zm.801 2.666c.733 0 1.332.6 1.332 1.332 0 .733-.6 1.332-1.332 1.332-.733 0-1.334-.6-1.334-1.332 0-.733.601-1.332 1.334-1.332z"
     fill="currentColor"
     overflow="visible"
     style="marker:none"
     id="path2"
     class="ColorScheme-Text" />
</svg>
