<?xml version="1.0" encoding="UTF-8" standalone="no"?>
<svg
   width="16"
   height="16"
   version="1.1"
   id="svg5"
   sodipodi:docname="emoji-food-symbolic.svg"
   inkscape:version="1.2.2 (b0a8486541, 2022-12-01)"
   xmlns:inkscape="http://www.inkscape.org/namespaces/inkscape"
   xmlns:sodipodi="http://sodipodi.sourceforge.net/DTD/sodipodi-0.dtd"
   xmlns="http://www.w3.org/2000/svg"
   xmlns:svg="http://www.w3.org/2000/svg">
  <defs
     id="defs9" />
  <sodipodi:namedview
     id="namedview7"
     pagecolor="#ffffff"
     bordercolor="#666666"
     borderopacity="1.0"
     inkscape:showpageshadow="2"
     inkscape:pageopacity="0.0"
     inkscape:pagecheckerboard="0"
     inkscape:deskcolor="#d1d1d1"
     showgrid="false"
     inkscape:zoom="56.4375"
     inkscape:cx="4.7486157"
     inkscape:cy="8.0177187"
     inkscape:window-width="1920"
     inkscape:window-height="1056"
     inkscape:window-x="0"
     inkscape:window-y="0"
     inkscape:window-maximized="1"
     inkscape:current-layer="svg5" />
  <style
     type="text/css"
     id="current-color-scheme">
        .ColorScheme-Text {
        color:#31363b;
        }
        </style>
  <path
     d="M2 0v6l1 .75v7.75c0 .831.669 1.5 1.5 1.5S6 15.331 6 14.5V6.75L7 6V0H6v5.5L5 6V0H4v6l-1-.5V0H2zm2 7.11h1v7.39a.499.499 0 1 1-1 0V7.11zM13 0c-1.43 0-2.75.953-3.465 2.5-.714 1.547-.714 3.453 0 5 .134.284.29.551.465.797V14.5c0 .831.669 1.5 1.5 1.5s1.5-.669 1.5-1.5v-7zm-1 1.28V14.5a.499.499 0 1 1-1 0V7.89c-.285-.284-.521-.686-.688-1.167-.347-1.012-.434-2.251-.086-3.263s.95-1.998 1.774-2.18z"
     style="font-variation-settings:normal"
     fill="currentColor"
     id="path3"
     class="ColorScheme-Text" />
</svg>
