<?xml version="1.0" encoding="UTF-8" standalone="no"?>
<svg
   width="16"
   height="16"
   version="1.1"
   id="svg5"
   sodipodi:docname="emoji-travel-symbolic.svg"
   inkscape:version="1.2.2 (b0a8486541, 2022-12-01)"
   xmlns:inkscape="http://www.inkscape.org/namespaces/inkscape"
   xmlns:sodipodi="http://sodipodi.sourceforge.net/DTD/sodipodi-0.dtd"
   xmlns="http://www.w3.org/2000/svg"
   xmlns:svg="http://www.w3.org/2000/svg">
  <defs
     id="defs9" />
  <sodipodi:namedview
     id="namedview7"
     pagecolor="#ffffff"
     bordercolor="#666666"
     borderopacity="1.0"
     inkscape:showpageshadow="2"
     inkscape:pageopacity="0.0"
     inkscape:pagecheckerboard="0"
     inkscape:deskcolor="#d1d1d1"
     showgrid="false"
     inkscape:zoom="56.4375"
     inkscape:cx="4.7486157"
     inkscape:cy="8.0177187"
     inkscape:window-width="1920"
     inkscape:window-height="1056"
     inkscape:window-x="0"
     inkscape:window-y="0"
     inkscape:window-maximized="1"
     inkscape:current-layer="svg5" />
  <style
     type="text/css"
     id="current-color-scheme">
        .ColorScheme-Text {
        color:#31363b;
        }
        </style>
  <path
     d="M3 1c-.728 0-1.33 1.5-1.469 3.502A1 1 0 0 0 1.5 4.5a1 1 0 0 0-1 1 1 1 0 0 0 .254.662C.282 6.418 0 6.7 0 7v7.5c0 .277.223.5.5.5h1.568c.277 0 .5-.223.5-.5v-2.037C3.995 12.793 5.892 13 8 13c2.108 0 4.005-.206 5.432-.537V14.5c0 .277.223.5.5.5H15.5c.277 0 .5-.223.5-.5V7c0-.3-.28-.583-.752-.838A1 1 0 0 0 15.5 5.5a1 1 0 0 0-1-1 1 1 0 0 0-.031 0C14.329 2.498 13.727 1 13 1H3zm.336 1h9.328c.463 0 .836 1.561.836 3.5l-.002.05C12.065 5.212 10.139 5 8 5c-2.14 0-4.066.21-5.498.549L2.5 5.5c0-1.939.373-3.5.836-3.5zM8 6c3.878 0 7 .643 7 1.443v3.114c0 .8-3.122 1.443-7 1.443s-7-.643-7-1.443V7.443C1 6.643 4.122 6 8 6zM3 8a1 1 0 0 0-1 1 1 1 0 0 0 1 1 1 1 0 0 0 1-1 1 1 0 0 0-1-1zm10 0a1 1 0 0 0-1 1 1 1 0 0 0 1 1 1 1 0 0 0 1-1 1 1 0 0 0-1-1zm-7.5 2a.499.499 0 1 0 0 1h5a.499.499 0 1 0 0-1h-5z"
     fill="currentColor"
     id="path3"
     class="ColorScheme-Text" />
</svg>
