<?xml version="1.0" encoding="UTF-8" standalone="no"?>
<svg
   height="16.04"
   width="16"
   version="1.1"
   id="svg5"
   sodipodi:docname="event-birthday-symbolic.svg"
   inkscape:version="1.2.2 (b0a8486541, 2022-12-01)"
   xmlns:inkscape="http://www.inkscape.org/namespaces/inkscape"
   xmlns:sodipodi="http://sodipodi.sourceforge.net/DTD/sodipodi-0.dtd"
   xmlns="http://www.w3.org/2000/svg"
   xmlns:svg="http://www.w3.org/2000/svg">
  <defs
     id="defs9" />
  <sodipodi:namedview
     id="namedview7"
     pagecolor="#ffffff"
     bordercolor="#666666"
     borderopacity="1.0"
     inkscape:showpageshadow="2"
     inkscape:pageopacity="0.0"
     inkscape:pagecheckerboard="0"
     inkscape:deskcolor="#d1d1d1"
     showgrid="false"
     inkscape:zoom="56.296755"
     inkscape:cx="4.7427245"
     inkscape:cy="8.0377635"
     inkscape:window-width="1920"
     inkscape:window-height="1056"
     inkscape:window-x="0"
     inkscape:window-y="0"
     inkscape:window-maximized="1"
     inkscape:current-layer="svg5" />
  <style
     type="text/css"
     id="current-color-scheme">
        .ColorScheme-Text {
        color:#31363b;
        }
        </style>
  <path
     d="M6.06.072a1.546 1.546 0 0 0-.843.312c-.659.51-.85 1.523-.313 2.218.24.31.56.596.97.938.204.17.405.33.655.469l.063.03H1.498a.5.5 0 0 0-.5.5v3c0 .278.223.5.5.5h.5v7.5c0 .278.223.5.5.5h11c.277 0 .5-.222.5-.5v-7.5h.5c.277 0 .5-.222.5-.5v-3a.5.5 0 0 0-.5-.5H9.654c.133-.082.262-.159.375-.25.307-.243.514-.38.75-.687.509-.657.32-1.567-.28-2.03-.28-.216-.664-.292-1.032-.25-.368.04-.742.206-.969.5-.187.24-.275.449-.375.687-.018-.044-.045-.083-.062-.125a8.575 8.575 0 0 0-.313-.688C7.64.99 7.584.856 7.436.665A1.565 1.565 0 0 0 6.373.071c-.1-.011-.21-.007-.312 0zm.126.937a.65.65 0 0 1 .468.25c.205.264.952 1.764.688 1.968-.264.205-1.452-.954-1.656-1.218a.602.602 0 0 1 .125-.844.689.689 0 0 1 .218-.125c.056-.015.1-.034.157-.031zm3.406.78c.103-.012.19.024.281.095.183.14.235.41.094.593s-.974.954-1.156.813c-.183-.142.358-1.161.5-1.344a.425.425 0 0 1 .28-.156zm-7.594 3.25h5v2h-5zm7 0h5v2h-5zm-6 3h4v7h-4zm6 0h4v7h-4z"
     fill="currentColor"
     overflow="visible"
     style="marker:none"
     id="path3"
     class="ColorScheme-Text" />
</svg>
