/* XPM */
static char * close_active_xpm[] = {
"20 24 67 1",
" 	c #455D7C",
".	c #B2CCED",
"+	c #98B9E2",
"@	c #86ABD9",
"#	c #82A8D7",
"$	c #96B8E1",
"%	c #84A9D8",
"&	c #729BCD",
"*	c #48668A",
"=	c #7099CC",
"-	c #8BAFDC",
";	c #7EA4D4",
">	c #9CBCE4",
",	c #7FA5D5",
"'	c #9EBDE5",
")	c #9ABBE3",
"!	c #81A7D6",
"~	c #4E76A8",
"{	c #537AAB",
"]	c #7FA2CE",
"^	c #7393BB",
"/	c #BAD0EB",
"(	c #96B7E1",
"_	c #C3D3E8",
":	c #CEDBEB",
"<	c #5B80AE",
"[	c #7DA1CD",
"}	c #DCE7F4",
"|	c #84A9D7",
"1	c #94B6E0",
"2	c #557BAC",
"3	c #E1EAF5",
"4	c #85AAD8",
"5	c #92B4DF",
"6	c #7B9FCC",
"7	c #D0DCEC",
"8	c #D0DDEC",
"9	c #90B3DE",
"0	c #799ECB",
"a	c #5A80AE",
"b	c #88ACDA",
"c	c #7298C8",
"d	c #89AEDB",
"e	c #83A8D7",
"f	c #7197C7",
"g	c #8BAFDB",
"h	c #80A6D6",
"i	c #8CB0DC",
"j	c #7EA5D4",
"k	c #BFD1E7",
"l	c #6E95C5",
"m	c #DCE6F3",
"n	c #8EB1DD",
"o	c #7CA3D3",
"p	c #6C94C4",
"q	c #ABC4E3",
"r	c #8FB2DE",
"s	c #7AA1D2",
"t	c #91B3DF",
"u	c #789FD0",
"v	c #88ADDB",
"w	c #8DB1DD",
"x	c #648EC3",
"y	c #749DCF",
"z	c #7BA2D2",
"A	c #94B6E1",
"B	c #79A1D1",
"                    ",
"....................",
"++@##############@++",
"$%&**************&%$",
"%=*-............-*=%",
";*@>>>>>>>>>>>>>>=*;",
",*'))))))))))))))@*,",
"!*'+++~{]++]{^/++@*!",
"#*'((~_:<[[<:}^((@*#",
"|*'112:3:<<:3:211@*|",
"4*'556<:3783:<655@*4",
"@*'9990<7338a0999@*@",
"b*'444ca8337<c444@*b",
"d*'eef<:3873:<fee@*d",
"g*'hh2:3:a<:3:2hh@*g",
"i*'jj~k:<ll<:m^jj@*i",
"n*'ooo~{poop{^qoo@*n",
"r*'ssssssssssssss@*r",
"t*@uuuuuuuuuuuuuu=*t",
"vw*xyyyyyyyyyyyyx*wv",
"o@-**************-@o",
"zzwAAAAAAAAAAAAAAwzz",
"BBBBBBBBBBBBBBBBBBBB",
"~~~~~~~~~~~~~~~~~~~~"};
