<svg xmlns="http://www.w3.org/2000/svg" xmlns:xlink="http://www.w3.org/1999/xlink" width="64" height="64" viewBox="0 0 64 64" version="1.1"><defs><linearGradient id="linear0" x1="0%" x2="100%" y1="0%" y2="100%"><stop offset="0%" style="stop-color:#e5ff00; stop-opacity:1"/><stop offset="50%" style="stop-color:#0073ff; stop-opacity:1"/><stop offset="100%" style="stop-color:#ff0000; stop-opacity:1"/></linearGradient></defs><g id="surface1"><path style=" stroke:none;fill-rule:nonzero;fill:url(#linear0);fill-opacity:1;" d="M 32 4 C 16.515625 4 4 16.515625 4 32 C 4 47.4375 16.515625 60 32 60 C 47.484375 60 60 47.4375 60 32 C 60 16.515625 47.484375 4 32 4 Z M 26.640625 25.484375 C 26.640625 25.484375 28.359375 25.796875 28.640625 28 C 28.875 30.15625 27 32 27 32 L 24 32 C 24 34.203125 22.203125 36 20 36 C 17.796875 36 16 34.203125 16 32 L 11 32 C 10.234375 30.796875 10.046875 28.921875 11.359375 27.71875 Z M 37.125 25.484375 L 37.359375 25.484375 L 52.640625 27.71875 C 53.953125 28.921875 53.765625 30.796875 53 32 L 48 32 C 48 34.203125 46.203125 36 44 36 C 41.796875 36 40 34.203125 40 32 L 37 32 C 37 32 35.125 30.15625 35.359375 28 C 35.5625 26.359375 36.640625 25.6875 37.125 25.484375 Z M 26 48 L 38 48 C 39.125 48 40 48.84375 40 49.84375 L 40 50.125 C 40 51.15625 39.125 52 38 52 L 26 52 C 24.875 52 24 51.15625 24 50.125 L 24 49.84375 C 24 48.84375 24.875 48 26 48 Z M 26 48 "/></g></svg>
