<svg xmlns="http://www.w3.org/2000/svg" xmlns:xlink="http://www.w3.org/1999/xlink" width="64" height="64" viewBox="0 0 64 64" version="1.1"><defs><linearGradient id="linear0" x1="0%" x2="0%" y1="0%" y2="100%"><stop offset="0%" style="stop-color:#00b6c7; stop-opacity:1"/><stop offset="50%" style="stop-color:#ff0000; stop-opacity:1"/><stop offset="100%" style="stop-color:#6a00ff; stop-opacity:1"/></linearGradient></defs><g id="surface1"><path style=" stroke:none;fill-rule:nonzero;fill:url(#linear0);fill-opacity:1;" d="M 32 4 C 16.515625 4 4 16.515625 4 32 C 4 47.4375 16.515625 60 32 60 C 47.484375 60 60 47.4375 60 32 C 60 16.515625 47.484375 4 32 4 Z M 20 20 C 22.203125 20 24 21.796875 24 24 C 24 26.203125 22.203125 28 20 28 C 17.796875 28 16 26.203125 16 24 C 16 21.796875 17.796875 20 20 20 Z M 38 24 L 50 24 C 51.125 24 52 24.875 52 26 C 52 27.078125 51.125 28 50 28 L 38 28 C 36.875 28 36 27.078125 36 26 C 36 24.875 36.875 24 38 24 Z M 20.6875 39.3125 C 23.6875 42.3125 27.765625 44 32 44 C 36.234375 44 40.3125 42.3125 43.3125 39.3125 L 46.125 42.125 C 42.40625 45.875 37.3125 48 32 48 C 26.6875 48 21.59375 45.875 17.875 42.125 Z M 20.6875 39.3125 "/></g></svg>
