<svg xmlns="http://www.w3.org/2000/svg" xmlns:xlink="http://www.w3.org/1999/xlink" width="64" height="64" viewBox="0 0 64 64" version="1.1"><defs><linearGradient id="linear0" x1="0%" x2="0%" y1="0%" y2="100%"><stop offset="0%" style="stop-color:#00b6c7; stop-opacity:1"/><stop offset="50%" style="stop-color:#ff0000; stop-opacity:1"/><stop offset="100%" style="stop-color:#6a00ff; stop-opacity:1"/></linearGradient></defs><g id="surface1"><path style=" stroke:none;fill-rule:nonzero;fill:url(#linear0);fill-opacity:1;" d="M 32 4 C 16.515625 4 4 16.515625 4 32 C 4 47.4375 16.515625 60 32 60 C 47.484375 60 60 47.4375 60 32 C 60 16.515625 47.484375 4 32 4 Z M 20 20 C 22.203125 20 24 21.796875 24 24 C 24 26.203125 22.203125 28 20 28 C 17.796875 28 16 26.203125 16 24 C 16 21.796875 17.796875 20 20 20 Z M 44 20 C 46.203125 20 48 21.796875 48 24 C 48 26.203125 46.203125 28 44 28 C 41.796875 28 40 26.203125 40 24 C 40 21.796875 41.796875 20 44 20 Z M 20.6875 39.3125 C 23.6875 42.3125 27.765625 44 32 44 C 36.234375 44 40.3125 42.3125 43.3125 39.3125 L 46.125 42.125 C 44.359375 43.921875 42.28125 45.28125 40 46.28125 L 40 49 C 40 52.6875 37.3125 55.71875 34 55.71875 C 30.6875 55.71875 28 52.6875 28 49 L 28 47.59375 C 24.203125 46.796875 20.640625 44.921875 17.875 42.125 Z M 38.953125 46.6875 C 38.046875 47.046875 37.078125 47.359375 36.125 47.5625 C 37.078125 47.359375 38.046875 47.046875 38.953125 46.6875 Z M 28.28125 47.640625 C 29.515625 47.875 30.765625 48 32 48 C 30.765625 48 29.515625 47.875 28.28125 47.640625 Z M 32 48 C 33.203125 48 34.359375 47.875 35.515625 47.640625 C 34.359375 47.84375 33.203125 48 32 48 Z M 32 48 "/></g></svg>
