<svg xmlns="http://www.w3.org/2000/svg" xmlns:xlink="http://www.w3.org/1999/xlink" width="64" height="64" viewBox="0 0 64 64" version="1.1"><defs><linearGradient id="linear0" x1="0%" x2="0%" y1="0%" y2="100%"><stop offset="0%" style="stop-color:#00b54e; stop-opacity:1"/><stop offset="50%" style="stop-color:#ffd000; stop-opacity:1"/><stop offset="100%" style="stop-color:#ff00bb; stop-opacity:1"/></linearGradient></defs><g id="surface1"><path style=" stroke:none;fill-rule:nonzero;fill:url(#linear0);fill-opacity:1;" d="M 32 4 C 16.515625 4 4 16.515625 4 32 C 4 47.4375 16.515625 60 32 60 C 47.484375 60 60 47.4375 60 32 C 60 16.515625 47.484375 4 32 4 Z M 20 20 C 22.203125 20 24 21.796875 24 24 C 24 26.203125 22.203125 28 20 28 C 17.796875 28 16 26.203125 16 24 C 16 21.796875 17.796875 20 20 20 Z M 44 20 C 46.203125 20 48 21.796875 48 24 C 48 26.203125 46.203125 28 44 28 C 41.796875 28 40 26.203125 40 24 C 40 21.796875 41.796875 20 44 20 Z M 12 36 C 12 36 20 40 32 40 L 47.953125 40 C 44.203125 45.046875 38.28125 48 32 48 C 23 48 14 44 12 36 Z M 12 36 "/></g></svg>
