<svg xmlns="http://www.w3.org/2000/svg" xmlns:xlink="http://www.w3.org/1999/xlink" width="64" height="64" viewBox="0 0 64 64" version="1.1"><defs><linearGradient id="linear0" x1="0%" x2="0%" y1="0%" y2="100%"><stop offset="0%" style="stop-color:#00b6c7; stop-opacity:1"/><stop offset="50%" style="stop-color:#ff0000; stop-opacity:1"/><stop offset="100%" style="stop-color:#6a00ff; stop-opacity:1"/></linearGradient></defs><g id="surface1"><path style=" stroke:none;fill-rule:nonzero;fill:url(#linear0);fill-opacity:1;" d="M 16 4 L 13 16 L 51 16 L 48 4 L 32 6 Z M 12 20 L 0 28 L 64 28 L 52 20 Z M 12 20 "/><path style=" stroke:none;fill-rule:nonzero;fill:url(#linear0);fill-opacity:1;" d="M 8 32 C 8 45.234375 18.765625 56 32 56 C 45.234375 56 56 45.234375 56 32 Z M 22 40 L 42 40 C 43.125 40 44 40.875 44 42 C 44 43.078125 43.125 44 42 44 L 22 44 C 20.875 44 20 43.078125 20 42 C 20 40.875 20.875 40 22 40 Z M 22 40 "/></g></svg>
