/* XPM */
static char * close_inactive_xpm[] = {
"20 24 67 1",
" 	c #85827E",
".	c #F9F8F8",
"+	c #EAE9E8",
"@	c #DEDCDA",
"#	c #D9D7D5",
"$	c #E9E8E7",
"%	c #DBD9D8",
"&	c #D0CECB",
"*	c #918E8A",
"=	c #CECBC9",
"-	c #F2F1F0",
";	c #FFFFFF",
">	c #EDECEB",
",	c #E2E1DF",
"'	c #DCDAD8",
")	c #DDDBD9",
"!	c #FEFEFE",
"~	c #F9F9F9",
"{	c #D9D9D9",
"]	c #BABAB9",
"^	c #DDDBDA",
"/	c #939292",
"(	c #7E7D7D",
"_	c #F2F2F2",
":	c #707070",
"<	c #F7F7F7",
"[	c #6B6A6A",
"}	c #DEDDDB",
"|	c #FEFDFD",
"1	c #F2F1F1",
"2	c #7C7B7B",
"3	c #DFDDDC",
"4	c #FDFDFD",
"5	c #F1F1F1",
"6	c #7B7B7B",
"7	c #E0DEDD",
"8	c #F7F7F6",
"9	c #EBEBEA",
"0	c #7B7B7A",
"a	c #E0DFDD",
"b	c #F5F4F4",
"c	c #EAE9E9",
"d	c #7B7A7A",
"e	c #E1DFDE",
"f	c #F3F2F1",
"g	c #E8E7E6",
"h	c #E2E0DF",
"i	c #F0EFEF",
"j	c #8F8E8E",
"k	c #E5E4E4",
"l	c #706F6F",
"m	c #CFCECE",
"n	c #EEEDEC",
"o	c #CDCCCB",
"p	c #B1B0B0",
"q	c #E3E1E0",
"r	c #ECEBEA",
"s	c #E4E2E1",
"t	c #EAE8E7",
"u	c #DFDDDB",
"v	c #D4D2D0",
"w	c #E7E5E4",
"x	c #D6D4D2",
"y	c #D5D3D1",
"z	c #E4E3E2",
"A	c #D5D2D0",
"B	c #9D9A96",
"                    ",
"....................",
"++@##############@++",
"$%&**************&%$",
"%=*-;;;;;;;;;;;;-*=%",
"%*>;;;;;;;;;;;;;;,*%",
"'*;;;;;;;;;;;;;;;.*'",
")*;!!!!~!!!!~{]!!.*)",
"^*;!!!/(_!!_(:{!!.*^",
"@*;!!<([(__([(<!!.*@",
"}*;|||1([22[(1|||.*}",
"3*;444456[[654444.*3",
"7*;888890[[098888.*7",
"a*;bbbc2[0d[2cbbb.*a",
"e*;ff>2[2gg2[2>ff.*e",
"h*;iiij0kiik0lmii.*h",
",*;nnnn$nnnn$opnn.*,",
"q*;rrrrrrrrrrrrrr.*q",
"s*>tttttttttttttt,*s",
"u,*vwwwwwwwwwwwwv*,u",
"x@7**************7@x",
"yyezzzzzzzzzzzzzzeyy",
"AAAAAAAAAAAAAAAAAAAA",
"BBBBBBBBBBBBBBBBBBBB"};
