<?xml version="1.0" encoding="UTF-8" standalone="no"?>
<svg
   width="128"
   height="128"
   viewBox="0 0 33.866666 33.866668"
   version="1.1"
   id="svg1539"
   inkscape:version="1.2.2 (b0a8486541, 2022-12-01)"
   sodipodi:docname="hacknet.svg"
   xmlns:inkscape="http://www.inkscape.org/namespaces/inkscape"
   xmlns:sodipodi="http://sodipodi.sourceforge.net/DTD/sodipodi-0.dtd"
   xmlns:xlink="http://www.w3.org/1999/xlink"
   xmlns="http://www.w3.org/2000/svg"
   xmlns:svg="http://www.w3.org/2000/svg"
   xmlns:rdf="http://www.w3.org/1999/02/22-rdf-syntax-ns#"
   xmlns:cc="http://creativecommons.org/ns#"
   xmlns:dc="http://purl.org/dc/elements/1.1/">
  <defs
     id="defs1533">
    <linearGradient
       inkscape:collect="always"
       id="linearGradient1004">
      <stop
         style="stop-color:#ffffff;stop-opacity:1;"
         offset="0"
         id="stop1000" />
      <stop
         style="stop-color:#ffac27;stop-opacity:1;"
         offset="1"
         id="stop1002" />
    </linearGradient>
    <linearGradient
       inkscape:collect="always"
       xlink:href="#linearGradient2089"
       id="linearGradient2091"
       x1="14.6724"
       y1="31.189062"
       x2="14.6724"
       y2="3.9821808"
       gradientUnits="userSpaceOnUse"
       gradientTransform="translate(-0.01947034,0.01042891)" />
    <linearGradient
       inkscape:collect="always"
       id="linearGradient2089">
      <stop
         style="stop-color:#ffa31e;stop-opacity:1"
         offset="0"
         id="stop2085" />
      <stop
         style="stop-color:#ffdb5a;stop-opacity:1"
         offset="1"
         id="stop2087" />
    </linearGradient>
    <linearGradient
       inkscape:collect="always"
       xlink:href="#linearGradient1004"
       id="linearGradient1006"
       x1="5.8412043"
       y1="17.235125"
       x2="5.8412042"
       y2="52.950581"
       gradientUnits="userSpaceOnUse" />
  </defs>
  <sodipodi:namedview
     id="base"
     pagecolor="#ffffff"
     bordercolor="#666666"
     borderopacity="1.0"
     inkscape:pageopacity="0.0"
     inkscape:pageshadow="2"
     inkscape:zoom="1.4"
     inkscape:cx="16.785714"
     inkscape:cy="30"
     inkscape:document-units="mm"
     inkscape:current-layer="layer1"
     inkscape:document-rotation="0"
     showgrid="false"
     units="px"
     inkscape:window-width="1514"
     inkscape:window-height="941"
     inkscape:window-x="0"
     inkscape:window-y="0"
     inkscape:window-maximized="0"
     inkscape:showpageshadow="2"
     inkscape:pagecheckerboard="0"
     inkscape:deskcolor="#d1d1d1" />
  <metadata
     id="metadata1536">
    <rdf:RDF>
      <cc:Work
         rdf:about="">
        <dc:format>image/svg+xml</dc:format>
        <dc:type
           rdf:resource="http://purl.org/dc/dcmitype/StillImage" />
      </cc:Work>
    </rdf:RDF>
  </metadata>
  <g
     inkscape:label="Capa 1"
     inkscape:groupmode="layer"
     id="layer1">
    <g
       id="g1702"
       transform="matrix(0.97573206,0,0,0.97573206,-65.767856,-37.192664)"
       style="opacity:0.295">
      <rect
         style="fill:none;fill-opacity:1;stroke:#000000;stroke-width:0.1;stroke-linecap:round;stroke-linejoin:round;stroke-miterlimit:4;stroke-dasharray:none;stroke-opacity:0.02"
         id="rect1634"
         width="29.810888"
         height="29.810888"
         x="69.839508"
         y="40.709618"
         rx="6.6098609"
         ry="6.6098609" />
      <rect
         ry="6.6098609"
         rx="6.6098609"
         y="40.709618"
         x="69.839508"
         height="29.810888"
         width="29.810888"
         id="rect1638"
         style="fill:none;fill-opacity:1;stroke:#000000;stroke-width:0.2;stroke-linecap:round;stroke-linejoin:round;stroke-miterlimit:4;stroke-dasharray:none;stroke-opacity:0.02" />
      <rect
         style="fill:none;fill-opacity:1;stroke:#000000;stroke-width:0.3;stroke-linecap:round;stroke-linejoin:round;stroke-miterlimit:4;stroke-dasharray:none;stroke-opacity:0.02"
         id="rect1640"
         width="29.810888"
         height="29.810888"
         x="69.839508"
         y="40.709618"
         rx="6.6098609"
         ry="6.6098609" />
      <rect
         ry="6.6098609"
         rx="6.6098609"
         y="40.709618"
         x="69.839508"
         height="29.810888"
         width="29.810888"
         id="rect1642"
         style="fill:none;fill-opacity:1;stroke:#000000;stroke-width:0.4;stroke-linecap:round;stroke-linejoin:round;stroke-miterlimit:4;stroke-dasharray:none;stroke-opacity:0.02" />
      <rect
         style="fill:none;fill-opacity:1;stroke:#000000;stroke-width:0.5;stroke-linecap:round;stroke-linejoin:round;stroke-miterlimit:4;stroke-dasharray:none;stroke-opacity:0.02"
         id="rect1644"
         width="29.810888"
         height="29.810888"
         x="69.839508"
         y="40.709618"
         rx="6.6098609"
         ry="6.6098609" />
      <rect
         ry="6.6098609"
         rx="6.6098609"
         y="40.709618"
         x="69.839508"
         height="29.810888"
         width="29.810888"
         id="rect1646"
         style="fill:none;fill-opacity:1;stroke:#000000;stroke-width:0.6;stroke-linecap:round;stroke-linejoin:round;stroke-miterlimit:4;stroke-dasharray:none;stroke-opacity:0.02" />
      <rect
         style="fill:none;fill-opacity:1;stroke:#000000;stroke-width:0.7;stroke-linecap:round;stroke-linejoin:round;stroke-miterlimit:4;stroke-dasharray:none;stroke-opacity:0.02"
         id="rect1648"
         width="29.810888"
         height="29.810888"
         x="69.839508"
         y="40.709618"
         rx="6.6098609"
         ry="6.6098609" />
      <rect
         ry="6.6098609"
         rx="6.6098609"
         y="40.709618"
         x="69.839508"
         height="29.810888"
         width="29.810888"
         id="rect1650"
         style="fill:none;fill-opacity:1;stroke:#000000;stroke-width:0.8;stroke-linecap:round;stroke-linejoin:round;stroke-miterlimit:4;stroke-dasharray:none;stroke-opacity:0.02" />
      <rect
         style="fill:none;fill-opacity:1;stroke:#000000;stroke-width:1;stroke-linecap:round;stroke-linejoin:round;stroke-miterlimit:4;stroke-dasharray:none;stroke-opacity:0.02"
         id="rect1652"
         width="29.810888"
         height="29.810888"
         x="69.839508"
         y="40.709618"
         rx="6.6098609"
         ry="6.6098609" />
      <rect
         ry="6.6098609"
         rx="6.6098609"
         y="40.709618"
         x="69.839508"
         height="29.810888"
         width="29.810888"
         id="rect1654"
         style="fill:none;fill-opacity:1;stroke:#000000;stroke-width:1.2;stroke-linecap:round;stroke-linejoin:round;stroke-miterlimit:4;stroke-dasharray:none;stroke-opacity:0.02" />
      <rect
         style="fill:none;fill-opacity:1;stroke:#000000;stroke-width:1.4;stroke-linecap:round;stroke-linejoin:round;stroke-miterlimit:4;stroke-dasharray:none;stroke-opacity:0.02"
         id="rect1656"
         width="29.810888"
         height="29.810888"
         x="69.839508"
         y="40.709618"
         rx="6.6098609"
         ry="6.6098609" />
      <rect
         ry="6.6098609"
         rx="6.6098609"
         y="40.709618"
         x="69.839508"
         height="29.810888"
         width="29.810888"
         id="rect1658"
         style="fill:none;fill-opacity:1;stroke:#000000;stroke-width:1.6;stroke-linecap:round;stroke-linejoin:round;stroke-miterlimit:4;stroke-dasharray:none;stroke-opacity:0.02" />
      <rect
         style="fill:none;fill-opacity:1;stroke:#000000;stroke-width:1.8;stroke-linecap:round;stroke-linejoin:round;stroke-miterlimit:4;stroke-dasharray:none;stroke-opacity:0.02"
         id="rect1660"
         width="29.810888"
         height="29.810888"
         x="69.839508"
         y="40.709618"
         rx="6.6098609"
         ry="6.6098609" />
      <rect
         ry="6.6098609"
         rx="6.6098609"
         y="40.709618"
         x="69.839508"
         height="29.810888"
         width="29.810888"
         id="rect1662"
         style="fill:none;fill-opacity:1;stroke:#000000;stroke-width:2;stroke-linecap:round;stroke-linejoin:round;stroke-miterlimit:4;stroke-dasharray:none;stroke-opacity:0.02" />
      <rect
         style="fill:none;fill-opacity:1;stroke:#000000;stroke-width:2.2;stroke-linecap:round;stroke-linejoin:round;stroke-miterlimit:4;stroke-dasharray:none;stroke-opacity:0.02"
         id="rect1664"
         width="29.810888"
         height="29.810888"
         x="69.839508"
         y="40.709618"
         rx="6.6098609"
         ry="6.6098609" />
      <rect
         ry="6.6098609"
         rx="6.6098609"
         y="40.709618"
         x="69.839508"
         height="29.810888"
         width="29.810888"
         id="rect1666"
         style="fill:none;fill-opacity:1;stroke:#000000;stroke-width:2.6;stroke-linecap:round;stroke-linejoin:round;stroke-miterlimit:4;stroke-dasharray:none;stroke-opacity:0.02" />
      <rect
         style="fill:none;fill-opacity:1;stroke:#000000;stroke-width:3;stroke-linecap:round;stroke-linejoin:round;stroke-miterlimit:4;stroke-dasharray:none;stroke-opacity:0.02"
         id="rect1668"
         width="29.810888"
         height="29.810888"
         x="69.839508"
         y="40.709618"
         rx="6.6098609"
         ry="6.6098609" />
      <rect
         ry="6.6098609"
         rx="6.6098609"
         y="40.709618"
         x="69.839508"
         height="29.810888"
         width="29.810888"
         id="rect1670"
         style="fill:none;fill-opacity:1;stroke:#000000;stroke-width:3.4;stroke-linecap:round;stroke-linejoin:round;stroke-miterlimit:4;stroke-dasharray:none;stroke-opacity:0.02" />
      <rect
         style="fill:none;fill-opacity:1;stroke:#000000;stroke-width:3.8;stroke-linecap:round;stroke-linejoin:round;stroke-miterlimit:4;stroke-dasharray:none;stroke-opacity:0.02"
         id="rect1672"
         width="29.810888"
         height="29.810888"
         x="69.839508"
         y="40.709618"
         rx="6.6098609"
         ry="6.6098609" />
      <rect
         ry="6.6098609"
         rx="6.6098609"
         y="40.709618"
         x="69.839508"
         height="29.810888"
         width="29.810888"
         id="rect1674"
         style="fill:none;fill-opacity:1;stroke:#000000;stroke-width:4.2;stroke-linecap:round;stroke-linejoin:round;stroke-miterlimit:4;stroke-dasharray:none;stroke-opacity:0.02" />
      <rect
         style="fill:none;fill-opacity:1;stroke:#000000;stroke-width:4.6;stroke-linecap:round;stroke-linejoin:round;stroke-miterlimit:4;stroke-dasharray:none;stroke-opacity:0.02"
         id="rect1676"
         width="29.810888"
         height="29.810888"
         x="69.839508"
         y="40.709618"
         rx="6.6098609"
         ry="6.6098609" />
      <rect
         ry="6.6098609"
         rx="6.6098609"
         y="40.709618"
         x="69.839508"
         height="29.810888"
         width="29.810888"
         id="rect1678"
         style="fill:none;fill-opacity:1;stroke:#000000;stroke-width:5;stroke-linecap:round;stroke-linejoin:round;stroke-miterlimit:4;stroke-dasharray:none;stroke-opacity:0.02" />
    </g>
    <rect
       style="fill:url(#linearGradient2091);fill-opacity:1;stroke-width:2.68801;stroke-linecap:round;stroke-linejoin:round;stroke-miterlimit:4;stroke-dasharray:none"
       id="rect849"
       width="29.08744"
       height="29.08744"
       x="2.3767939"
       y="2.5290139"
       rx="6.4494534"
       ry="6.4494534" />
    <g
       id="g1572"
       style="opacity:0.2240405">
      <path
         id="path1560"
         style="fill:#180000;fill-opacity:0.0518879;stroke-width:0.364267"
         d="m 16.131765,7.4419913 c -1.488564,-0.022358 -2.759731,1.2182783 -2.773269,2.7071037 v 7.29e-4 l -0.0036,0.443951 c -1.868566,0.776502 -3.353269,2.260133 -4.1300218,4.128599 l -0.4517772,0.0036 h -0.00217 c -1.4887757,0.0135 -2.7294392,1.284669 -2.707078,2.77324 v 7.28e-4 7.28e-4 c 0.063604,4.181693 2.0391434,7.043576 4.062436,8.5304 1.997892,1.468162 4.070456,1.766579 4.085199,1.768689 0.721611,0.108461 1.590272,-0.11646 2.159281,-0.592645 0.274897,-0.230057 0.478087,-0.495546 0.631776,-0.775492 0.227867,0.413813 0.530092,0.800741 1.010984,1.070036 0.652945,0.365644 1.557841,0.417651 2.248924,0.172174 0.0988,-0.02865 2.082331,-0.610885 3.756506,-2.276671 1.689841,-1.681375 2.272064,-3.709117 2.293035,-3.782831 0.197592,-0.571996 0.120714,-1.143303 -0.0619,-1.681891 0.133532,-0.318852 0.212728,-0.66404 0.212728,-1.025248 0,-0.256705 -0.08195,-0.491111 -0.151542,-0.728533 0.06959,-0.237423 0.151542,-0.471829 0.151542,-0.728535 0,-0.233891 -0.07986,-0.44552 -0.138024,-0.663791 0.117438,-0.398288 0.164841,-0.814692 0.107429,-1.196676 -0.0021,-0.01475 -0.300527,-2.087307 -1.768688,-4.085201 C 23.176698,9.4811439 20.314816,7.50561 16.133123,7.4420009 Z m -0.03273,2.1856039 c 3.554591,0.053666 5.662393,1.6178858 6.803687,3.1709758 1.141296,1.553088 1.368849,3.115481 1.368849,3.115481 a 0.54645559,0.54645559 0 1 1 -1.081419,0.157944 c 0,0 -0.190322,-1.295977 -1.168216,-2.62671 -0.91569,-1.24608 -2.527441,-2.463307 -5.390017,-2.658724 l -0.01212,1.394461 a 5.4640095,5.4640095 0 0 1 5.107567,5.451205 5.4640095,5.4640095 0 0 1 -5.464009,5.46401 5.4640095,5.4640095 0 0 1 -5.446224,-5.108992 l -1.4094012,0.01212 c 0.195232,2.863094 1.4132362,4.474241 2.6594362,5.390019 1.330731,0.977893 2.626708,1.168216 2.626708,1.168216 a 0.54645559,0.54645559 0 1 1 -0.157944,1.081417 c 0,0 -1.562391,-0.227553 -3.115481,-1.368847 C 9.8673613,23.128877 8.3031476,21.021075 8.2494749,17.466484 a 0.54645559,0.54645559 0 0 1 0.5414213,-0.554939 l 2.0646558,-0.01707 a 5.4640095,5.4640095 0 0 1 4.670732,-4.670022 l 0.01779,-2.055406 a 0.54645559,0.54645559 0 0 1 0.554938,-0.5414217 z m 0.164346,4.3619588 a 3.642673,3.642673 0 0 0 -3.642674,3.642674 3.642673,3.642673 0 0 0 3.642674,3.642672 3.642673,3.642673 0 0 0 3.642673,-3.642672 3.642673,3.642673 0 0 0 -3.642673,-3.642674 z m 0,0.728535 a 2.9141383,2.9141383 0 0 1 2.914137,2.914139 2.9141383,2.9141383 0 0 1 -2.914137,2.914137 2.9141383,2.9141383 0 0 1 -2.914139,-2.914137 2.9141383,2.9141383 0 0 1 2.914139,-2.914139 z m 0,1.092801 a 1.8213364,1.8213364 0 0 0 -1.821337,1.821338 1.8213364,1.8213364 0 0 0 1.821337,1.821335 1.8213364,1.8213364 0 0 0 1.821336,-1.821335 1.8213364,1.8213364 0 0 0 -1.821336,-1.821338 z m 0,0.364268 a 1.4570692,1.4570692 0 0 1 1.457068,1.45707 1.4570692,1.4570692 0 0 1 -1.457068,1.457069 1.4570692,1.4570692 0 0 1 -1.45707,-1.457069 1.4570692,1.4570692 0 0 1 1.45707,-1.45707 z m 0,0.364268 a 1.0928019,1.0928019 0 0 0 -1.092802,1.092802 1.0928019,1.0928019 0 0 0 1.092802,1.092801 1.0928019,1.0928019 0 0 0 1.092802,-1.092801 1.0928019,1.0928019 0 0 0 -1.092802,-1.092802 z m 7.467479,0.364266 a 0.54640095,0.54640095 0 0 1 0.546401,0.546401 0.54640095,0.54640095 0 0 1 -0.546401,0.546402 0.54640095,0.54640095 0 0 1 -0.546401,-0.546402 0.54640095,0.54640095 0 0 1 0.546401,-0.546401 z m 0,1.457069 a 0.54640095,0.54640095 0 0 1 0.546401,0.546401 0.54640095,0.54640095 0 0 1 -0.546401,0.546401 0.54640095,0.54640095 0 0 1 -0.546401,-0.546401 0.54640095,0.54640095 0 0 1 0.546401,-0.546401 z m 0.0072,1.814223 a 0.54645559,0.54645559 0 0 1 0.510828,0.727111 c 0,0 -0.55583,1.735829 -1.771534,2.945443 -1.224966,1.218828 -2.94402,1.770111 -2.94402,1.770111 a 0.54645559,0.54645559 0 1 1 -0.3472,-1.035886 c 0,0 1.550226,-0.543388 2.51999,-1.508293 0.952087,-0.947317 1.506871,-2.518566 1.506871,-2.518566 a 0.54645559,0.54645559 0 0 1 0.525057,-0.37992 z" />
      <path
         id="path1562"
         style="fill:#180000;fill-opacity:0.0518879;stroke-width:0.364267"
         d="M 16.368831,7.7436525 C 14.880267,7.7212945 13.6091,8.9619308 13.595562,10.450756 v 7.29e-4 l -0.0036,0.443951 c -1.868566,0.776502 -3.353269,2.260133 -4.1300222,4.128599 l -0.4517772,0.0036 h -0.00217 c -1.4887757,0.0135 -2.7294392,1.284669 -2.707078,2.77324 v 7.28e-4 7.28e-4 c 0.063604,4.181693 2.0391434,7.043576 4.0624364,8.5304 1.997892,1.468162 4.070456,1.766579 4.085199,1.768689 0.721611,0.108461 1.590272,-0.11646 2.159281,-0.592645 0.274897,-0.230057 0.478087,-0.495546 0.631776,-0.775492 0.227867,0.413813 0.530092,0.800741 1.010984,1.070036 0.652945,0.365644 1.557841,0.417651 2.248924,0.172174 0.0988,-0.02865 2.082331,-0.610885 3.756506,-2.276671 1.689841,-1.681375 2.272064,-3.709117 2.293035,-3.782831 0.197592,-0.571996 0.120714,-1.143303 -0.0619,-1.681891 0.133532,-0.318852 0.212728,-0.66404 0.212728,-1.025248 0,-0.256705 -0.08195,-0.491111 -0.151542,-0.728533 0.06959,-0.237423 0.151542,-0.471829 0.151542,-0.728535 0,-0.233891 -0.07986,-0.44552 -0.138024,-0.663791 0.117438,-0.398288 0.164841,-0.814692 0.107429,-1.196676 -0.0021,-0.01475 -0.300527,-2.087307 -1.768688,-4.085201 C 23.413764,9.7828051 20.551882,7.8072712 16.370189,7.7436621 Z m -0.03273,2.1856039 c 3.554591,0.053666 5.662393,1.6178856 6.803687,3.1709756 1.141296,1.553088 1.368849,3.115481 1.368849,3.115481 a 0.54645559,0.54645559 0 1 1 -1.081419,0.157944 c 0,0 -0.190322,-1.295977 -1.168216,-2.62671 -0.91569,-1.24608 -2.527441,-2.463307 -5.390017,-2.658724 l -0.01212,1.394461 a 5.4640095,5.4640095 0 0 1 5.107567,5.451205 5.4640095,5.4640095 0 0 1 -5.464009,5.46401 5.4640095,5.4640095 0 0 1 -5.446224,-5.108992 l -1.4094016,0.01212 c 0.195232,2.863094 1.4132366,4.474241 2.6594366,5.390019 1.330731,0.977893 2.626708,1.168216 2.626708,1.168216 a 0.54645559,0.54645559 0 1 1 -0.157944,1.081417 c 0,0 -1.562391,-0.227553 -3.115481,-1.368847 -1.55309,-1.141294 -3.1173038,-3.249096 -3.1709765,-6.803687 a 0.54645559,0.54645559 0 0 1 0.5414213,-0.554939 l 2.0646562,-0.01707 a 5.4640095,5.4640095 0 0 1 4.670732,-4.670022 l 0.01779,-2.055406 a 0.54645559,0.54645559 0 0 1 0.554938,-0.5414215 z m 0.164346,4.3619586 a 3.642673,3.642673 0 0 0 -3.642674,3.642674 3.642673,3.642673 0 0 0 3.642674,3.642672 3.642673,3.642673 0 0 0 3.642673,-3.642672 3.642673,3.642673 0 0 0 -3.642673,-3.642674 z m 0,0.728535 a 2.9141383,2.9141383 0 0 1 2.914137,2.914139 2.9141383,2.9141383 0 0 1 -2.914137,2.914137 2.9141383,2.9141383 0 0 1 -2.914139,-2.914137 2.9141383,2.9141383 0 0 1 2.914139,-2.914139 z m 0,1.092801 a 1.8213364,1.8213364 0 0 0 -1.821337,1.821338 1.8213364,1.8213364 0 0 0 1.821337,1.821335 1.8213364,1.8213364 0 0 0 1.821336,-1.821335 1.8213364,1.8213364 0 0 0 -1.821336,-1.821338 z m 0,0.364268 a 1.4570692,1.4570692 0 0 1 1.457068,1.45707 1.4570692,1.4570692 0 0 1 -1.457068,1.457069 1.4570692,1.4570692 0 0 1 -1.45707,-1.457069 1.4570692,1.4570692 0 0 1 1.45707,-1.45707 z m 0,0.364268 a 1.0928019,1.0928019 0 0 0 -1.092802,1.092802 1.0928019,1.0928019 0 0 0 1.092802,1.092801 1.0928019,1.0928019 0 0 0 1.092802,-1.092801 1.0928019,1.0928019 0 0 0 -1.092802,-1.092802 z m 7.467479,0.364266 a 0.54640095,0.54640095 0 0 1 0.546401,0.546401 0.54640095,0.54640095 0 0 1 -0.546401,0.546402 0.54640095,0.54640095 0 0 1 -0.546401,-0.546402 0.54640095,0.54640095 0 0 1 0.546401,-0.546401 z m 0,1.457069 a 0.54640095,0.54640095 0 0 1 0.546401,0.546401 0.54640095,0.54640095 0 0 1 -0.546401,0.546401 0.54640095,0.54640095 0 0 1 -0.546401,-0.546401 0.54640095,0.54640095 0 0 1 0.546401,-0.546401 z m 0.0072,1.814223 a 0.54645559,0.54645559 0 0 1 0.510828,0.727111 c 0,0 -0.55583,1.735829 -1.771534,2.945443 -1.224966,1.218828 -2.94402,1.770111 -2.94402,1.770111 a 0.54645559,0.54645559 0 1 1 -0.3472,-1.035886 c 0,0 1.550226,-0.543388 2.51999,-1.508293 0.952087,-0.947317 1.506871,-2.518566 1.506871,-2.518566 a 0.54645559,0.54645559 0 0 1 0.525057,-0.37992 z" />
      <path
         id="path1564"
         style="fill:#180000;fill-opacity:0.0518879;stroke-width:0.364267"
         d="M 16.503144,7.9190294 C 15.01458,7.8966714 13.743413,9.1373077 13.729875,10.626133 v 7.29e-4 l -0.0036,0.443951 c -1.868566,0.776502 -3.353269,2.260133 -4.1300226,4.128599 l -0.4517772,0.0036 h -0.00217 c -1.4887757,0.0135 -2.7294392,1.284669 -2.707078,2.77324 v 7.28e-4 7.28e-4 c 0.063604,4.181693 2.0391434,7.043576 4.0624368,8.5304 1.997892,1.468162 4.070456,1.766579 4.085199,1.768689 0.721611,0.108461 1.590272,-0.11646 2.159281,-0.592645 0.274897,-0.230057 0.478087,-0.495546 0.631776,-0.775492 0.227867,0.413813 0.530092,0.800741 1.010984,1.070036 0.652945,0.365644 1.557841,0.417651 2.248924,0.172174 0.0988,-0.02865 2.082331,-0.610885 3.756506,-2.276671 1.689841,-1.681375 2.272064,-3.709117 2.293035,-3.782831 0.197592,-0.571996 0.120714,-1.143303 -0.0619,-1.681891 0.133532,-0.318852 0.212728,-0.66404 0.212728,-1.025248 0,-0.256705 -0.08195,-0.491111 -0.151542,-0.728533 0.06959,-0.237423 0.151542,-0.471829 0.151542,-0.728535 0,-0.233891 -0.07986,-0.44552 -0.138024,-0.663791 0.117438,-0.398288 0.164841,-0.814692 0.107429,-1.196676 -0.0021,-0.01475 -0.300527,-2.087307 -1.768688,-4.085201 C 23.548077,9.958182 20.686195,7.9826481 16.504502,7.919039 Z m -0.03273,2.1856036 c 3.554591,0.05367 5.662393,1.617886 6.803687,3.170976 1.141296,1.553088 1.368849,3.115481 1.368849,3.115481 a 0.54645559,0.54645559 0 1 1 -1.081419,0.157944 c 0,0 -0.190322,-1.295977 -1.168216,-2.62671 -0.91569,-1.24608 -2.527441,-2.463307 -5.390017,-2.658724 l -0.01212,1.394461 a 5.4640095,5.4640095 0 0 1 5.107567,5.451205 5.4640095,5.4640095 0 0 1 -5.464009,5.46401 5.4640095,5.4640095 0 0 1 -5.446224,-5.108992 l -1.409402,0.01212 c 0.195232,2.863094 1.413237,4.474241 2.659437,5.390019 1.330731,0.977893 2.626708,1.168216 2.626708,1.168216 a 0.54645559,0.54645559 0 1 1 -0.157944,1.081417 c 0,0 -1.562391,-0.227553 -3.115481,-1.368847 -1.55309,-1.141294 -3.1173042,-3.249096 -3.1709769,-6.803687 a 0.54645559,0.54645559 0 0 1 0.5414213,-0.554939 l 2.0646566,-0.01707 a 5.4640095,5.4640095 0 0 1 4.670732,-4.670022 l 0.01779,-2.055406 a 0.54645559,0.54645559 0 0 1 0.554938,-0.541422 z m 0.164346,4.361959 a 3.642673,3.642673 0 0 0 -3.642674,3.642674 3.642673,3.642673 0 0 0 3.642674,3.642672 3.642673,3.642673 0 0 0 3.642673,-3.642672 3.642673,3.642673 0 0 0 -3.642673,-3.642674 z m 0,0.728535 a 2.9141383,2.9141383 0 0 1 2.914137,2.914139 2.9141383,2.9141383 0 0 1 -2.914137,2.914137 2.9141383,2.9141383 0 0 1 -2.914139,-2.914137 2.9141383,2.9141383 0 0 1 2.914139,-2.914139 z m 0,1.092801 a 1.8213364,1.8213364 0 0 0 -1.821337,1.821338 1.8213364,1.8213364 0 0 0 1.821337,1.821335 1.8213364,1.8213364 0 0 0 1.821336,-1.821335 1.8213364,1.8213364 0 0 0 -1.821336,-1.821338 z m 0,0.364268 a 1.4570692,1.4570692 0 0 1 1.457068,1.45707 1.4570692,1.4570692 0 0 1 -1.457068,1.457069 1.4570692,1.4570692 0 0 1 -1.45707,-1.457069 1.4570692,1.4570692 0 0 1 1.45707,-1.45707 z m 0,0.364268 a 1.0928019,1.0928019 0 0 0 -1.092802,1.092802 1.0928019,1.0928019 0 0 0 1.092802,1.092801 1.0928019,1.0928019 0 0 0 1.092802,-1.092801 1.0928019,1.0928019 0 0 0 -1.092802,-1.092802 z m 7.467479,0.364266 a 0.54640095,0.54640095 0 0 1 0.546401,0.546401 0.54640095,0.54640095 0 0 1 -0.546401,0.546402 0.54640095,0.54640095 0 0 1 -0.546401,-0.546402 0.54640095,0.54640095 0 0 1 0.546401,-0.546401 z m 0,1.457069 A 0.54640095,0.54640095 0 0 1 24.64864,19.3842 0.54640095,0.54640095 0 0 1 24.102239,19.930601 0.54640095,0.54640095 0 0 1 23.555838,19.3842 0.54640095,0.54640095 0 0 1 24.102239,18.837799 Z m 0.0072,1.814223 a 0.54645559,0.54645559 0 0 1 0.510828,0.727111 c 0,0 -0.55583,1.735829 -1.771534,2.945443 -1.224966,1.218828 -2.94402,1.770111 -2.94402,1.770111 a 0.54645559,0.54645559 0 1 1 -0.3472,-1.035886 c 0,0 1.550226,-0.543388 2.51999,-1.508293 0.952087,-0.947317 1.506871,-2.518566 1.506871,-2.518566 a 0.54645559,0.54645559 0 0 1 0.525057,-0.37992 z" />
      <path
         id="path1566"
         style="fill:#180000;fill-opacity:0.0518879;stroke-width:0.364267"
         d="m 16.58984,8.0138003 c -1.488564,-0.022358 -2.759731,1.2182783 -2.773269,2.7071037 v 7.29e-4 l -0.0036,0.443951 c -1.868566,0.776502 -3.353269,2.260133 -4.1300222,4.128599 l -0.4517772,0.0036 h -0.00217 c -1.4887757,0.0135 -2.7294392,1.284669 -2.707078,2.77324 v 7.28e-4 7.28e-4 c 0.063604,4.181693 2.0391434,7.043576 4.0624364,8.5304 1.997892,1.468162 4.070456,1.766579 4.085199,1.768689 0.721611,0.108461 1.590272,-0.11646 2.159281,-0.592645 0.274897,-0.230057 0.478087,-0.495546 0.631776,-0.775492 0.227867,0.413813 0.530092,0.800741 1.010984,1.070036 0.652945,0.365644 1.557841,0.417651 2.248924,0.172174 0.0988,-0.02865 2.082331,-0.610885 3.756506,-2.276671 1.689841,-1.681375 2.272064,-3.709117 2.293035,-3.782831 0.197592,-0.571996 0.120714,-1.143303 -0.0619,-1.681891 0.133532,-0.318852 0.212728,-0.66404 0.212728,-1.025248 0,-0.256705 -0.08195,-0.491111 -0.151542,-0.728533 0.06959,-0.237423 0.151542,-0.471829 0.151542,-0.728535 0,-0.233891 -0.07986,-0.44552 -0.138024,-0.663791 0.117438,-0.398288 0.164841,-0.814692 0.107429,-1.196676 -0.0021,-0.01475 -0.300527,-2.087307 -1.768688,-4.085201 -1.486837,-2.023311 -4.348719,-3.998845 -8.530412,-4.0624541 z m -0.03273,2.1856037 c 3.554591,0.05367 5.662393,1.617886 6.803687,3.170976 1.141296,1.553088 1.368849,3.115481 1.368849,3.115481 a 0.54645559,0.54645559 0 1 1 -1.081419,0.157944 c 0,0 -0.190322,-1.295977 -1.168216,-2.62671 -0.91569,-1.24608 -2.527441,-2.463307 -5.390017,-2.658724 l -0.01212,1.394461 a 5.4640095,5.4640095 0 0 1 5.107567,5.451205 5.4640095,5.4640095 0 0 1 -5.464009,5.46401 5.4640095,5.4640095 0 0 1 -5.446224,-5.108992 l -1.4094016,0.01212 c 0.1952316,2.863094 1.4132366,4.474241 2.6594366,5.390019 1.330731,0.977893 2.626708,1.168216 2.626708,1.168216 a 0.54645559,0.54645559 0 1 1 -0.157944,1.081417 c 0,0 -1.562391,-0.227553 -3.115481,-1.368847 -1.55309,-1.141294 -3.1173038,-3.249096 -3.1709765,-6.803687 a 0.54645559,0.54645559 0 0 1 0.5414213,-0.554939 l 2.0646562,-0.01707 a 5.4640095,5.4640095 0 0 1 4.670732,-4.670022 l 0.01779,-2.055406 a 0.54645559,0.54645559 0 0 1 0.554938,-0.541422 z m 0.164346,4.361959 a 3.642673,3.642673 0 0 0 -3.642674,3.642674 3.642673,3.642673 0 0 0 3.642674,3.642672 3.642673,3.642673 0 0 0 3.642673,-3.642672 3.642673,3.642673 0 0 0 -3.642673,-3.642674 z m 0,0.728535 a 2.9141383,2.9141383 0 0 1 2.914137,2.914139 2.9141383,2.9141383 0 0 1 -2.914137,2.914137 2.9141383,2.9141383 0 0 1 -2.914139,-2.914137 2.9141383,2.9141383 0 0 1 2.914139,-2.914139 z m 0,1.092801 a 1.8213364,1.8213364 0 0 0 -1.821337,1.821338 1.8213364,1.8213364 0 0 0 1.821337,1.821335 1.8213364,1.8213364 0 0 0 1.821336,-1.821335 1.8213364,1.8213364 0 0 0 -1.821336,-1.821338 z m 0,0.364268 a 1.4570692,1.4570692 0 0 1 1.457068,1.45707 1.4570692,1.4570692 0 0 1 -1.457068,1.457069 1.4570692,1.4570692 0 0 1 -1.45707,-1.457069 1.4570692,1.4570692 0 0 1 1.45707,-1.45707 z m 0,0.364268 a 1.0928019,1.0928019 0 0 0 -1.092802,1.092802 1.0928019,1.0928019 0 0 0 1.092802,1.092801 1.0928019,1.0928019 0 0 0 1.092802,-1.092801 1.0928019,1.0928019 0 0 0 -1.092802,-1.092802 z m 7.467479,0.364266 a 0.54640095,0.54640095 0 0 1 0.546401,0.546401 0.54640095,0.54640095 0 0 1 -0.546401,0.546402 0.54640095,0.54640095 0 0 1 -0.546401,-0.546402 0.54640095,0.54640095 0 0 1 0.546401,-0.546401 z m 0,1.457069 a 0.54640095,0.54640095 0 0 1 0.546401,0.546401 0.54640095,0.54640095 0 0 1 -0.546401,0.546401 0.54640095,0.54640095 0 0 1 -0.546401,-0.546401 0.54640095,0.54640095 0 0 1 0.546401,-0.546401 z m 0.0072,1.814223 a 0.54645559,0.54645559 0 0 1 0.510828,0.727111 c 0,0 -0.55583,1.735829 -1.771534,2.945443 -1.224966,1.218828 -2.94402,1.770111 -2.94402,1.770111 a 0.54645559,0.54645559 0 1 1 -0.3472,-1.035886 c 0,0 1.550226,-0.543388 2.51999,-1.508293 0.952087,-0.947317 1.506871,-2.518566 1.506871,-2.518566 a 0.54645559,0.54645559 0 0 1 0.525057,-0.37992 z" />
    </g>
    <path
       id="path4"
       style="fill:url(#linearGradient1006);stroke-width:0.364267;fill-opacity:1"
       d="M 15.909418,7.0429754 C 14.420854,7.020617 13.149687,8.2612537 13.136149,9.7500791 v 7.29e-4 l -0.0036,0.4439509 c -1.868566,0.776502 -3.3532688,2.260133 -4.1300219,4.128599 l -0.4517772,0.0036 h -0.00217 c -1.4887757,0.0135 -2.7294392,1.284669 -2.707078,2.77324 v 7.28e-4 7.28e-4 c 0.063604,4.181693 2.0391434,7.043576 4.0624363,8.5304 1.9978918,1.468162 4.0704558,1.766579 4.0851988,1.768689 0.721611,0.108461 1.590272,-0.11646 2.159281,-0.592645 0.274897,-0.230057 0.478087,-0.495546 0.631776,-0.775492 0.227867,0.413813 0.530092,0.800741 1.010984,1.070036 0.652945,0.365644 1.557841,0.417651 2.248924,0.172174 0.0988,-0.02865 2.082331,-0.610885 3.756506,-2.276671 1.689841,-1.681375 2.272064,-3.709117 2.293035,-3.782831 0.197592,-0.571996 0.120714,-1.143303 -0.0619,-1.681891 0.133532,-0.318852 0.212728,-0.66404 0.212728,-1.025248 0,-0.256705 -0.08195,-0.491111 -0.151542,-0.728533 0.06959,-0.237423 0.151542,-0.471829 0.151542,-0.728535 0,-0.233891 -0.07986,-0.44552 -0.138024,-0.663791 0.117438,-0.398288 0.164841,-0.814692 0.107429,-1.196676 -0.0021,-0.01475 -0.300527,-2.087307 -1.768688,-4.085201 C 22.954351,9.082128 20.092469,7.1065941 15.910776,7.042985 Z m -0.03273,2.1856039 c 3.554591,0.053666 5.662393,1.6178857 6.803687,3.1709757 1.141296,1.553088 1.368849,3.115481 1.368849,3.115481 a 0.54645559,0.54645559 0 1 1 -1.081419,0.157944 c 0,0 -0.190322,-1.295977 -1.168216,-2.62671 -0.91569,-1.24608 -2.527441,-2.463307 -5.390017,-2.658724 l -0.01212,1.394461 a 5.4640095,5.4640095 0 0 1 5.107567,5.451205 5.4640095,5.4640095 0 0 1 -5.464009,5.46401 5.4640095,5.4640095 0 0 1 -5.446224,-5.108992 l -1.4094013,0.01212 c 0.195232,2.863094 1.4132363,4.474241 2.6594363,5.390019 1.330731,0.977893 2.626708,1.168216 2.626708,1.168216 a 0.54645559,0.54645559 0 1 1 -0.157944,1.081417 c 0,0 -1.562391,-0.227553 -3.115481,-1.368847 C 9.6450142,22.729861 8.0808005,20.622059 8.0271278,17.067468 a 0.54645559,0.54645559 0 0 1 0.5414213,-0.554939 l 2.0646559,-0.01707 a 5.4640095,5.4640095 0 0 1 4.670732,-4.670022 l 0.01779,-2.0554059 a 0.54645559,0.54645559 0 0 1 0.554938,-0.5414217 z m 0.164346,4.3619587 a 3.642673,3.642673 0 0 0 -3.642674,3.642674 3.642673,3.642673 0 0 0 3.642674,3.642672 3.642673,3.642673 0 0 0 3.642673,-3.642672 3.642673,3.642673 0 0 0 -3.642673,-3.642674 z m 0,0.728535 a 2.9141383,2.9141383 0 0 1 2.914137,2.914139 2.9141383,2.9141383 0 0 1 -2.914137,2.914137 2.9141383,2.9141383 0 0 1 -2.914139,-2.914137 2.9141383,2.9141383 0 0 1 2.914139,-2.914139 z m 0,1.092801 a 1.8213364,1.8213364 0 0 0 -1.821337,1.821338 1.8213364,1.8213364 0 0 0 1.821337,1.821335 1.8213364,1.8213364 0 0 0 1.821336,-1.821335 1.8213364,1.8213364 0 0 0 -1.821336,-1.821338 z m 0,0.364268 a 1.4570692,1.4570692 0 0 1 1.457068,1.45707 1.4570692,1.4570692 0 0 1 -1.457068,1.457069 1.4570692,1.4570692 0 0 1 -1.45707,-1.457069 1.4570692,1.4570692 0 0 1 1.45707,-1.45707 z m 0,0.364268 a 1.0928019,1.0928019 0 0 0 -1.092802,1.092802 1.0928019,1.0928019 0 0 0 1.092802,1.092801 1.0928019,1.0928019 0 0 0 1.092802,-1.092801 1.0928019,1.0928019 0 0 0 -1.092802,-1.092802 z m 7.467479,0.364266 a 0.54640095,0.54640095 0 0 1 0.546401,0.546401 0.54640095,0.54640095 0 0 1 -0.546401,0.546402 0.54640095,0.54640095 0 0 1 -0.546401,-0.546402 0.54640095,0.54640095 0 0 1 0.546401,-0.546401 z m 0,1.457069 a 0.54640095,0.54640095 0 0 1 0.546401,0.546401 0.54640095,0.54640095 0 0 1 -0.546401,0.546401 0.54640095,0.54640095 0 0 1 -0.546401,-0.546401 0.54640095,0.54640095 0 0 1 0.546401,-0.546401 z m 0.0072,1.814223 a 0.54645559,0.54645559 0 0 1 0.510828,0.727111 c 0,0 -0.55583,1.735829 -1.771534,2.945443 -1.224966,1.218828 -2.94402,1.770111 -2.94402,1.770111 a 0.54645559,0.54645559 0 1 1 -0.3472,-1.035886 c 0,0 1.550226,-0.543388 2.51999,-1.508293 0.952087,-0.947317 1.506871,-2.518566 1.506871,-2.518566 a 0.54645559,0.54645559 0 0 1 0.525057,-0.37992 z" />
  </g>
</svg>
