<svg xmlns="http://www.w3.org/2000/svg" width="16" height="16" version="1.1"><defs><linearGradient id="linear0" x1="0%" x2="0%" y1="0%" y2="100%"><stop offset="0%" style="stop-color:#00b54e; stop-opacity:1"/><stop offset="50%" style="stop-color:#0073ff; stop-opacity:1"/><stop offset="100%" style="stop-color:#ffd000; stop-opacity:1"/></linearGradient></defs>
 <path fill="url(#linear0)"  d="M 3 1 C 2.446 1 2 1.446 2 2 L 2 15 C 2 15.554 2.446 16 3 16 L 13 16 C 13.554 16 14 15.554 14 15 L 14 5 L 10 1 L 3 1 z M 7 6 L 9 6 L 9 8 L 11 8 L 11 10 L 9 10 L 9 12 L 7 12 L 7 10 L 5 10 L 5 8 L 7 8 L 7 6 z"/>
</svg>
