<svg xmlns="http://www.w3.org/2000/svg" width="16" height="16" version="1.1"><defs><linearGradient id="linear0" x1="0%" x2="100%" y1="0%" y2="100%"><stop offset="0%" style="stop-color:#e5ff00; stop-opacity:1"/><stop offset="50%" style="stop-color:#0073ff; stop-opacity:1"/><stop offset="100%" style="stop-color:#ff0000; stop-opacity:1"/></linearGradient></defs>
 <path fill="url(#linear0)"  d="M 6 1 L 6 7 L 3.5 7 L 8 13 L 8 9.1426 C 8 8.5094 8.5094 8 9.1426 8 L 11.75 8 L 12.5 7 L 10 7 L 10 1 L 6 1 z M 1 14 L 1 16 L 9.1426 16 C 8.5094 16 8 15.491 8 14.857 L 8 14 L 1 14 z"/>
 <path fill="url(#linear0)"  d="M 10,9 C 9.446,9 9,9.446 9,10 V 15 C 9,15.554 9.446,16 10,16 H 15 C 15.554,16 16,15.554 16,15 V 10 C 16,9.446 15.554,9 15,9 Z M 11,10 H 14 V 11 H 13 V 14 H 14 V 15 H 11 V 14 H 12 V 11 H 11 Z"/>
</svg>
