<svg xmlns="http://www.w3.org/2000/svg" width="16" height="16" version="1.1"><defs><linearGradient id="linear0" x1="0%" x2="0%" y1="0%" y2="100%"><stop offset="0%" style="stop-color:#ffd000; stop-opacity:1"/><stop offset="50%" style="stop-color:#24dbdb; stop-opacity:1"/><stop offset="100%" style="stop-color:#0073ff; stop-opacity:1"/></linearGradient></defs>
 <path fill="url(#linear0)"  d="M 8,1 A 7,7 0 0 0 1,8 7,7 0 0 0 8,15 7,7 0 0 0 15,8 7,7 0 0 0 8,1 Z M 8,3 A 5,5 0 0 1 13,8 5,5 0 0 1 8,13 5,5 0 0 1 3,8 5,5 0 0 1 8,3 Z"/>
 <path fill="url(#linear0)"  d="M 10.49,4.9961 A 0.50005,0.50005 0 0 0 10.146,5.1465 L 8,7.293 6.3535,5.6465 A 0.50005,0.50005 0 1 0 5.6465,6.3535 L 7.6465,8.3535 A 0.50005,0.50005 0 0 0 8.3535,8.3535 L 10.854,5.8535 A 0.50005,0.50005 0 0 0 10.49,4.9961 Z"/>
</svg>
