<svg xmlns="http://www.w3.org/2000/svg" width="16" height="16" version="1.1"><defs><linearGradient id="linear0" x1="0%" x2="100%" y1="0%" y2="100%"><stop offset="0%" style="stop-color:#e5ff00; stop-opacity:1"/><stop offset="50%" style="stop-color:#0073ff; stop-opacity:1"/><stop offset="100%" style="stop-color:#ff0000; stop-opacity:1"/></linearGradient></defs>
 <path fill="url(#linear0)"  d="M 6.5,1 C 9.53,1 12.03,3.47 12.03,6.5 12.03,7.65 11.64,8.71 11.03,9.59 L 14.84,13.4 13.43,14.84 9.62,11.03 C 8.74,11.64 7.65,12 6.5,12 3.47,12 1,9.53 1,6.5 1,3.47 3.47,1 6.5,1 Z M 6.5,3 C 4.55,3 3,4.56 3,6.5 3,8.44 4.55,10 6.5,10 8.45,10 10,8.44 10,6.5 10,4.56 8.45,3 6.5,3 Z"/>
</svg>
