<svg xmlns="http://www.w3.org/2000/svg" width="16" height="16" version="1.1"><defs><linearGradient id="linear0" x1="0%" x2="0%" y1="0%" y2="100%"><stop offset="0%" style="stop-color:#00b54e; stop-opacity:1"/><stop offset="50%" style="stop-color:#0073ff; stop-opacity:1"/><stop offset="100%" style="stop-color:#ffd000; stop-opacity:1"/></linearGradient></defs>
 <path fill="url(#linear0)"  d="M 3,1 C 3,1 2,1 2,2 V 11 C 2,11 2,12 3,12 H 4 V 3 H 12 V 2 C 12,1 11,1 11,1 Z M 6,4 C 6,4 5,4 5,5 V 15 C 5,16 6,16 6,16 H 14 C 14,16 15,16 15,15 V 5 C 15,4 14,4 14,4 Z M 7,6 H 13 V 14 H 7 Z"/>
</svg>
