<svg xmlns="http://www.w3.org/2000/svg" width="16" height="16" version="1.1"><defs><linearGradient id="linear0" x1="0%" x2="0%" y1="0%" y2="100%"><stop offset="0%" style="stop-color:#00b54e; stop-opacity:1"/><stop offset="50%" style="stop-color:#0073ff; stop-opacity:1"/><stop offset="100%" style="stop-color:#ffd000; stop-opacity:1"/></linearGradient></defs>
 <path fill="url(#linear0)"  d="M 5,3 C 2.23,3 0,5.23 0,8 0,10.77 2.23,13 5,13 H 7 V 11 H 5 C 3.34,11 2,9.67 2,8 2,6.34 3.34,5 5,5 H 7 V 3 Z M 9,3 V 5 H 11 C 12.66,5 14,6.34 14,8 14,9.67 12.66,11 11,11 H 9 V 13 H 11 C 13.77,13 16,10.77 16,8 16,5.23 13.77,3 11,3 Z M 5,7 V 9 H 11 V 7 Z"/>
</svg>
