<svg xmlns="http://www.w3.org/2000/svg" width="16" height="16" version="1.1"><defs><linearGradient id="linear0" x1="0%" x2="100%" y1="0%" y2="100%"><stop offset="0%" style="stop-color:#e5ff00; stop-opacity:1"/><stop offset="50%" style="stop-color:#0073ff; stop-opacity:1"/><stop offset="100%" style="stop-color:#ff0000; stop-opacity:1"/></linearGradient></defs>
 <path fill="url(#linear0)"  d="M 4,2 V 4 H 11 C 12.68,4 14,5.321 14,7 14,8.679 12.68,10 11,10 H 10 V 8 L 5,11 10,14 V 12 H 11 C 13.75,12.101 16,9.753 16,7 16,4.247 13.75,2 11,2 Z M 2,9 A 2,2 0 0 0 0,11 2,2 0 0 0 2,13 2,2 0 0 0 4,11 2,2 0 0 0 2,9 Z"/>
</svg>
