<svg xmlns="http://www.w3.org/2000/svg" width="16" height="16" version="1.1"><defs><linearGradient id="linear0" x1="0%" x2="100%" y1="0%" y2="100%"><stop offset="0%" style="stop-color:#e5ff00; stop-opacity:1"/><stop offset="50%" style="stop-color:#0073ff; stop-opacity:1"/><stop offset="100%" style="stop-color:#ff0000; stop-opacity:1"/></linearGradient></defs>
 <path fill="url(#linear0)"  d="M 10,2 A 2,2 0 0 0 8,0 2,2 0 0 0 6,2 2,2 0 0 0 8,4 2,2 0 0 0 10,2 Z M 10,8 A 2,2 0 0 0 8,6 2,2 0 0 0 6,8 2,2 0 0 0 8,10 2,2 0 0 0 10,8 Z M 10,14 A 2,2 0 0 0 8,12 2,2 0 0 0 6,14 2,2 0 0 0 8,16 2,2 0 0 0 10,14 Z"/>
</svg>
