<svg xmlns="http://www.w3.org/2000/svg" width="16" height="16" version="1.1"><defs><linearGradient id="linear0" x1="0%" x2="100%" y1="0%" y2="100%"><stop offset="0%" style="stop-color:#ff0000; stop-opacity:1"/><stop offset="50%" style="stop-color:#ffd000; stop-opacity:1"/><stop offset="100%" style="stop-color:#ff00bb; stop-opacity:1"/></linearGradient></defs>
 <path fill="url(#linear0)"  d="M 8,2 A 6,6 0 0 0 2,8 6,6 0 0 0 8,14 6,6 0 0 0 14,8 6,6 0 0 0 8,2 Z M 8,4 A 4,4 0 0 1 12,8 4,4 0 0 1 8,12 4,4 0 0 1 4,8 4,4 0 0 1 8,4 Z"/>
 <path fill="url(#linear0)"  d="M 10,8 A 2,2 0 0 1 8,10 2,2 0 0 1 6,8 2,2 0 0 1 8,6 2,2 0 0 1 10,8 Z"/>
</svg>
