<svg xmlns="http://www.w3.org/2000/svg" width="16" height="16" version="1.1"><defs><linearGradient id="linear0" x1="0%" x2="100%" y1="0%" y2="100%"><stop offset="0%" style="stop-color:#ff0000; stop-opacity:1"/><stop offset="50%" style="stop-color:#ffd000; stop-opacity:1"/><stop offset="100%" style="stop-color:#ff00bb; stop-opacity:1"/></linearGradient></defs>
 <path fill="url(#linear0)"  d="M 9,4.5 A 1.5,1.5 0 0 1 7.5,6 1.5,1.5 0 0 1 6,4.5 1.5,1.5 0 0 1 7.5,3 1.5,1.5 0 0 1 9,4.5 Z"/>
 <path fill="url(#linear0)"  d="M 9,8.5 A 1.5,1.5 0 0 1 7.5,10 1.5,1.5 0 0 1 6,8.5 1.5,1.5 0 0 1 7.5,7 1.5,1.5 0 0 1 9,8.5 Z"/>
 <path fill="url(#linear0)"  d="M 9,12.5 A 1.5,1.5 0 0 1 7.5,14 1.5,1.5 0 0 1 6,12.5 1.5,1.5 0 0 1 7.5,11 1.5,1.5 0 0 1 9,12.5 Z"/>
</svg>
