<svg xmlns="http://www.w3.org/2000/svg" width="16" height="16" version="1.1"><defs><linearGradient id="linear0" x1="0%" x2="100%" y1="0%" y2="100%"><stop offset="0%" style="stop-color:#e5ff00; stop-opacity:1"/><stop offset="50%" style="stop-color:#0073ff; stop-opacity:1"/><stop offset="100%" style="stop-color:#ff0000; stop-opacity:1"/></linearGradient></defs>
 <path fill="url(#linear0)"  d="M 8,13 V 9 H 5 L 10,2 15,9 H 12 V 13 Z"/>
 <path fill="url(#linear0)"  d="M 4,3.5 A 1.5,1.5 0 0 1 2.5,5 1.5,1.5 0 0 1 1,3.5 1.5,1.5 0 0 1 2.5,2 1.5,1.5 0 0 1 4,3.5 Z"/>
 <path fill="url(#linear0)"  d="M 4,7.5 A 1.5,1.5 0 0 1 2.5,9 1.5,1.5 0 0 1 1,7.5 1.5,1.5 0 0 1 2.5,6 1.5,1.5 0 0 1 4,7.5 Z"/>
 <path fill="url(#linear0)"  d="M 4,11.5 A 1.5,1.5 0 0 1 2.5,13 1.5,1.5 0 0 1 1,11.5 1.5,1.5 0 0 1 2.5,10 1.5,1.5 0 0 1 4,11.5 Z"/>
</svg>
