<svg xmlns="http://www.w3.org/2000/svg" width="16" height="16" version="1.1"><defs><linearGradient id="linear0" x1="0%" x2="0%" y1="0%" y2="100%"><stop offset="0%" style="stop-color:#00b54e; stop-opacity:1"/><stop offset="50%" style="stop-color:#ffd000; stop-opacity:1"/><stop offset="100%" style="stop-color:#ff00bb; stop-opacity:1"/></linearGradient></defs>
 <path fill="url(#linear0)"  d="M 1 1 L 1 3 L 1 13 L 1 15 L 3 15 L 13 15 L 15 15 L 15 13 L 15 3 L 15 1 L 13 1 L 3 1 L 1 1 z M 3 9 L 4.0039062 9 L 12.003906 9 L 13 9 L 13 9.9804688 C 13.000139 9.9873593 13.003906 9.993075 13.003906 10 L 13.003906 12 C 13.003906 12.006925 13.000139 12.012641 13 12.019531 L 13 13 L 12.003906 13 L 4.0039062 13 L 3 13 L 3 9 z"/>
</svg>
