<svg xmlns="http://www.w3.org/2000/svg" width="16" height="16" version="1.1"><defs><linearGradient id="linear0" x1="0%" x2="0%" y1="0%" y2="100%"><stop offset="0%" style="stop-color:#00b54e; stop-opacity:1"/><stop offset="50%" style="stop-color:#ffd000; stop-opacity:1"/><stop offset="100%" style="stop-color:#ff00bb; stop-opacity:1"/></linearGradient></defs>
 <path fill="url(#linear0)"  d="M 15,5 H 13 V 2.9316406 C 13,1.8619406 12.060931,1 10.894531,1 H 5.105469 C 3.939469,1 3,1.8619406 3,2.9316406 V 13.068359 C 3,14.138359 3.939469,15 5.105469,15 h 5.789062 C 12.060931,15 13,14.138359 13,13.068359 V 11 h -2 v 1.998047 C 10.991,12.996047 10.973731,13 10.894531,13 H 5.105469 C 5.026469,13 5.009,12.996047 5,12.998047 V 3.0039062 C 5.009,3.0049063 5.026469,3 5.105469,3 h 5.789062 c 0.0792,0 0.09657,0.00491 0.105469,0.00391 V 5 H 9 l 3,4 z"/>
</svg>
