/* XPM */
static char * close_pressed_xpm[] = {
"20 24 73 1",
" 	c #455D7C",
".	c #B2CCED",
"+	c #98B9E2",
"@	c #96B8E1",
"#	c #95B7E1",
"$	c #7099CC",
"%	c #B5CEEE",
"&	c #94B6E0",
"*	c #6690C4",
"=	c #7BA2D2",
"-	c #92B5DF",
";	c #7AA1D2",
">	c #B1CCEC",
",	c #91B3DF",
"'	c #79A0D1",
")	c #4E76A8",
"!	c #537AAB",
"~	c #6A92C3",
"{	c #7393BB",
"]	c #A9C2E2",
"^	c #AEC9EB",
"/	c #8FB2DE",
"(	c #78A0D1",
"_	c #BFD0E6",
":	c #CEDBEB",
"<	c #5A80AE",
"[	c #DCE6F3",
"}	c #ABC6E9",
"|	c #8EB1DD",
"1	c #789FD0",
"2	c #557BAC",
"3	c #E1EAF5",
"4	c #A7C4E7",
"5	c #8DB0DC",
"6	c #779ED0",
"7	c #6990C2",
"8	c #D0DCEC",
"9	c #D0DDEC",
"0	c #A4C1E6",
"a	c #8BAFDC",
"b	c #769ECF",
"c	c #6890C2",
"d	c #A0BFE4",
"e	c #85AAD9",
"f	c #759DCF",
"g	c #9DBCE3",
"h	c #84A9D8",
"i	c #749DCE",
"j	c #6790C1",
"k	c #99B9E1",
"l	c #83A8D7",
"m	c #749CCE",
"n	c #96B7E0",
"o	c #82A7D6",
"p	c #739BCD",
"q	c #BECFE6",
"r	c #668EC0",
"s	c #92B4DE",
"t	c #80A6D6",
"u	c #729BCD",
"v	c #A5C0E0",
"w	c #8FB1DD",
"x	c #7FA5D5",
"y	c #719ACC",
"z	c #8BAFDB",
"A	c #7EA4D4",
"B	c #7199CC",
"C	c #88ACDA",
"D	c #7DA4D4",
"E	c #87ACDA",
"F	c #7CA3D3",
"G	c #86ABD9",
"H	c #79A1D1",
"                    ",
"....................",
"++++++++++++++++++++",
"@@@              @@@",
"## $$$$$$$$$$$$$$ %#",
"& *=============== %",
"- *;;;;;;;;;;;;;;; >",
", *''')!~''~!{]''' ^",
"/ *(()_:<~~<:[{((( }",
"| *112:3:<<:3:2111 4",
"5 *667<:3893:<7666 0",
"a *bbbc<8339<cbbbb d",
"e *fffc<9338<cffff g",
"h *iij<:3983:<jiii k",
"l *mm2:3:<<:3:2mmm n",
"o *pp)q:<rr<:[{ppp s",
"t *uuu)!ruur!{vuuu w",
"x *yyyyyyyyyyyyyyy z",
"A *BBBBBBBBBBBBBBB C",
"DD $$$$$$$$$$$$$$ ED",
"FFG              GFF",
"===GGGGGGGGGGGGGG===",
"HHHHHHHHHHHHHHHHHHHH",
"))))))))))))))))))))"};
