<?xml version="1.0" encoding="UTF-8" standalone="no"?>
<svg
   width="48"
   height="48"
   version="1.1"
   id="svg1"
   sodipodi:docname="emblem-remove.svg"
   inkscape:version="1.4 (e7c3feb100, 2024-10-09)"
   xmlns:inkscape="http://www.inkscape.org/namespaces/inkscape"
   xmlns:sodipodi="http://sodipodi.sourceforge.net/DTD/sodipodi-0.dtd"
   xmlns:xlink="http://www.w3.org/1999/xlink"
   xmlns="http://www.w3.org/2000/svg"
   xmlns:svg="http://www.w3.org/2000/svg">
  <defs
     id="defs1">
    <linearGradient
       inkscape:collect="always"
       xlink:href="#linearGradient1134-3"
       id="linearGradient2"
       x1="35"
       y1="38"
       x2="13.5"
       y2="9.75"
       gradientUnits="userSpaceOnUse" />
    <linearGradient
       inkscape:collect="always"
       id="linearGradient1134-3">
      <stop
         style="stop-color:#2e3440;stop-opacity:1;"
         offset="0"
         id="stop1130-6" />
      <stop
         style="stop-color:#4c566a;stop-opacity:1;"
         offset="1"
         id="stop1132-7" />
    </linearGradient>
  </defs>
  <sodipodi:namedview
     id="namedview1"
     pagecolor="#ffffff"
     bordercolor="#000000"
     borderopacity="0.25"
     inkscape:showpageshadow="2"
     inkscape:pageopacity="0.0"
     inkscape:pagecheckerboard="0"
     inkscape:deskcolor="#d1d1d1"
     inkscape:zoom="4"
     inkscape:cx="24"
     inkscape:cy="24"
     inkscape:window-width="1272"
     inkscape:window-height="669"
     inkscape:window-x="192"
     inkscape:window-y="306"
     inkscape:window-maximized="0"
     inkscape:current-layer="svg1" />
  <circle
     style="fill:url(#linearGradient2);stroke:#ed8796;stroke-opacity:1;stroke-width:4;stroke-dasharray:none"
     cx="24"
     cy="24"
     r="20"
     id="circle1" />
  <path
     style="fill:#ffffff;stroke-width:0.9"
     d="m 23.999998,12.2 c -3.6,0 -6.3,1.800005 -6.3,6.299995 v 2.7 h -1.2 c -0.830999,0 -1.5,0.675262 -1.5,1.530005 v 9.527143 c 0,0.854742 0.669001,1.542857 1.5,1.542857 h 15.000001 c 0.830999,0 1.5,-0.688115 1.5,-1.542857 V 22.73 c 0,-0.854743 -0.669001,-1.530005 -1.5,-1.530005 h -1.2 v -2.7 c 0,-4.49999 -2.7,-6.299995 -6.300001,-6.299995 z m 0,2.7 c 1.800001,0 3.600001,0.899995 3.600001,3.599995 v 2.7 h -7.200001 v -2.7 c 0,-2.7 1.8,-3.599995 3.6,-3.599995 z"
     id="path1" />
</svg>
