<?xml version="1.0" encoding="UTF-8" standalone="no"?>
<svg
   width="48"
   height="48"
   version="1.1"
   id="svg1"
   sodipodi:docname="emblem-default.svg"
   inkscape:version="1.4 (e7c3feb100, 2024-10-09)"
   xmlns:inkscape="http://www.inkscape.org/namespaces/inkscape"
   xmlns:sodipodi="http://sodipodi.sourceforge.net/DTD/sodipodi-0.dtd"
   xmlns:xlink="http://www.w3.org/1999/xlink"
   xmlns="http://www.w3.org/2000/svg"
   xmlns:svg="http://www.w3.org/2000/svg">
  <defs
     id="defs1">
    <linearGradient
       inkscape:collect="always"
       xlink:href="#linearGradient1134-3"
       id="linearGradient2"
       x1="35"
       y1="38"
       x2="13.5"
       y2="9.75"
       gradientUnits="userSpaceOnUse" />
    <linearGradient
       inkscape:collect="always"
       id="linearGradient1134-3">
      <stop
         style="stop-color:#2e3440;stop-opacity:1;"
         offset="0"
         id="stop1130-6" />
      <stop
         style="stop-color:#4c566a;stop-opacity:1;"
         offset="1"
         id="stop1132-7" />
    </linearGradient>
  </defs>
  <sodipodi:namedview
     id="namedview1"
     pagecolor="#ffffff"
     bordercolor="#000000"
     borderopacity="0.25"
     inkscape:showpageshadow="2"
     inkscape:pageopacity="0.0"
     inkscape:pagecheckerboard="0"
     inkscape:deskcolor="#d1d1d1"
     inkscape:zoom="4"
     inkscape:cx="24"
     inkscape:cy="24"
     inkscape:window-width="1272"
     inkscape:window-height="669"
     inkscape:window-x="192"
     inkscape:window-y="425"
     inkscape:window-maximized="0"
     inkscape:current-layer="svg1" />
  <circle
     style="fill:url(#linearGradient2);stroke:#f5bde6;stroke-opacity:1;stroke-width:4;stroke-dasharray:none"
     cx="24"
     cy="24"
     r="20"
     id="circle1" />
  <path
     style="fill:#ffffff;stroke-width:0.9"
     d="m 19.5,15.000027 -1.8,1.8 h -1.8 c -2.197649,-0.02361 -2.7,0 -2.7,1.669923 v 12.730077 c 0,1.8 0.979897,1.8 3.084961,1.8 h 15.430078 c 2.41672,0.0053 3.084961,0 3.084961,-1.8 v -12.6 c 0,-1.8 -0.652303,-1.8 -2.7,-1.8 h -1.8 l -1.8,-1.8 z m 4.5,4.5 c 2.4852,0 4.5,2.014801 4.5,4.5 0,2.485201 -2.0148,4.5 -4.5,4.5 -2.485201,0 -4.5,-2.014799 -4.5,-4.5 0,-2.485199 2.014799,-4.5 4.5,-4.5 z"
     id="path1" />
</svg>
