<?xml version="1.0" encoding="UTF-8" standalone="no"?>
<svg
   width="48"
   height="48"
   version="1.1"
   id="svg1"
   sodipodi:docname="emblem-web.svg"
   inkscape:version="1.4 (e7c3feb100, 2024-10-09)"
   xmlns:inkscape="http://www.inkscape.org/namespaces/inkscape"
   xmlns:sodipodi="http://sodipodi.sourceforge.net/DTD/sodipodi-0.dtd"
   xmlns:xlink="http://www.w3.org/1999/xlink"
   xmlns="http://www.w3.org/2000/svg"
   xmlns:svg="http://www.w3.org/2000/svg">
  <defs
     id="defs1">
    <linearGradient
       inkscape:collect="always"
       xlink:href="#linearGradient1134-3"
       id="linearGradient2"
       x1="35"
       y1="38"
       x2="13.5"
       y2="9.75"
       gradientUnits="userSpaceOnUse" />
    <linearGradient
       inkscape:collect="always"
       id="linearGradient1134-3">
      <stop
         style="stop-color:#2e3440;stop-opacity:1;"
         offset="0"
         id="stop1130-6" />
      <stop
         style="stop-color:#4c566a;stop-opacity:1;"
         offset="1"
         id="stop1132-7" />
    </linearGradient>
  </defs>
  <sodipodi:namedview
     id="namedview1"
     pagecolor="#ffffff"
     bordercolor="#000000"
     borderopacity="0.25"
     inkscape:showpageshadow="2"
     inkscape:pageopacity="0.0"
     inkscape:pagecheckerboard="0"
     inkscape:deskcolor="#d1d1d1"
     inkscape:zoom="4"
     inkscape:cx="24"
     inkscape:cy="24"
     inkscape:window-width="1272"
     inkscape:window-height="669"
     inkscape:window-x="144"
     inkscape:window-y="306"
     inkscape:window-maximized="0"
     inkscape:current-layer="svg1" />
  <circle
     style="fill:url(#linearGradient2);stroke:#eed49f;stroke-opacity:1;stroke-width:4;stroke-dasharray:none"
     cx="24"
     cy="24"
     r="20"
     id="circle1" />
  <path
     style="fill:#ffffff;stroke-width:0.9"
     d="m 24.0234,12.30256 c 2.4615,0.0054 4.95747,0.772551 6.90714,2.29104 1.37061,1.57896 -1.24101,3.26997 -2.41722,1.73034 -3.54087,-2.14254 -8.53461,-1.38816 -11.1987,1.81503 -1.41741,1.58958 -2.21598,3.71079 -2.20662,5.84019 h 2.34 l -3.744,5.616 -3.744,-5.616 h 2.34 c -0.0747,-5.0841 3.582,-9.9207 8.4915,-11.2374 1.053,-0.2889 2.1384,-0.45054 3.2319,-0.4392 z m 10.2726,6.084 3.744,5.616 H 35.7 c 0.06633,5.14521 -3.6837,10.0359 -8.67897,11.2833 -3.37068,0.94131 -7.18209,0.25443 -9.9522,-1.89909 -1.41345,-1.60533 1.23444,-3.28005 2.42163,-1.72629 3.43071,2.08143 8.23491,1.42128 10.9431,-1.5516 1.5678,-1.6155 2.4696,-3.8547 2.4579,-6.1065 h -2.34 l 3.744,-5.616 z"
     id="path1" />
</svg>
