<?xml version="1.0" encoding="UTF-8" standalone="no"?>
<svg
   width="48"
   height="48"
   version="1.1"
   id="svg1"
   sodipodi:docname="emblem-default.svg"
   inkscape:version="1.4 (e7c3feb100, 2024-10-09)"
   xmlns:inkscape="http://www.inkscape.org/namespaces/inkscape"
   xmlns:sodipodi="http://sodipodi.sourceforge.net/DTD/sodipodi-0.dtd"
   xmlns:xlink="http://www.w3.org/1999/xlink"
   xmlns="http://www.w3.org/2000/svg"
   xmlns:svg="http://www.w3.org/2000/svg">
  <defs
     id="defs1">
    <linearGradient
       inkscape:collect="always"
       xlink:href="#linearGradient1134-3"
       id="linearGradient2"
       x1="35"
       y1="38"
       x2="13.5"
       y2="9.75"
       gradientUnits="userSpaceOnUse" />
    <linearGradient
       inkscape:collect="always"
       id="linearGradient1134-3">
      <stop
         style="stop-color:#2e3440;stop-opacity:1;"
         offset="0"
         id="stop1130-6" />
      <stop
         style="stop-color:#4c566a;stop-opacity:1;"
         offset="1"
         id="stop1132-7" />
    </linearGradient>
  </defs>
  <sodipodi:namedview
     id="namedview1"
     pagecolor="#ffffff"
     bordercolor="#000000"
     borderopacity="0.25"
     inkscape:showpageshadow="2"
     inkscape:pageopacity="0.0"
     inkscape:pagecheckerboard="0"
     inkscape:deskcolor="#d1d1d1"
     inkscape:zoom="4"
     inkscape:cx="24"
     inkscape:cy="24"
     inkscape:window-width="1272"
     inkscape:window-height="669"
     inkscape:window-x="213"
     inkscape:window-y="324"
     inkscape:window-maximized="0"
     inkscape:current-layer="svg1" />
  <circle
     style="fill:url(#linearGradient2);stroke:#ed8796;stroke-opacity:1;stroke-width:4;stroke-dasharray:none"
     cx="24"
     cy="24"
     r="20"
     id="circle1" />
  <path
     style="fill:#ffffff"
     d="M 29.076427,13 C 27.07099,13 25.265015,13.849486 24.000489,15.400018 22.735638,13.849486 20.929717,13 18.924226,13 c -3.824028,0 -6.924056,3.527699 -6.924056,7.879464 0,1.169239 0.181517,2.294438 0.499416,3.368916 0,0 0.288262,0.969489 0.543625,1.503181 C 15.961777,32.575228 24.000001,37 24.000001,37 c 0,0 8.038277,-4.42489 10.956789,-11.248439 0,0 0.376573,-0.909192 0.543625,-1.503181 0.303543,-1.079444 0.499415,-2.199677 0.499415,-3.368916 C 35.99983,16.527699 32.899802,13 29.075774,13 Z"
     id="path1" />
</svg>
