<?xml version="1.0" encoding="UTF-8" standalone="no"?>
<svg
   width="48"
   height="48"
   version="1.1"
   id="svg1"
   sodipodi:docname="emblem-default.svg"
   inkscape:version="1.4 (e7c3feb100, 2024-10-09)"
   xmlns:inkscape="http://www.inkscape.org/namespaces/inkscape"
   xmlns:sodipodi="http://sodipodi.sourceforge.net/DTD/sodipodi-0.dtd"
   xmlns:xlink="http://www.w3.org/1999/xlink"
   xmlns="http://www.w3.org/2000/svg"
   xmlns:svg="http://www.w3.org/2000/svg">
  <defs
     id="defs1">
    <linearGradient
       inkscape:collect="always"
       xlink:href="#linearGradient1134-3"
       id="linearGradient2"
       x1="35"
       y1="38"
       x2="13.5"
       y2="9.75"
       gradientUnits="userSpaceOnUse" />
    <linearGradient
       inkscape:collect="always"
       id="linearGradient1134-3">
      <stop
         style="stop-color:#2e3440;stop-opacity:1;"
         offset="0"
         id="stop1130-6" />
      <stop
         style="stop-color:#4c566a;stop-opacity:1;"
         offset="1"
         id="stop1132-7" />
    </linearGradient>
  </defs>
  <sodipodi:namedview
     id="namedview1"
     pagecolor="#ffffff"
     bordercolor="#000000"
     borderopacity="0.25"
     inkscape:showpageshadow="2"
     inkscape:pageopacity="0.0"
     inkscape:pagecheckerboard="0"
     inkscape:deskcolor="#d1d1d1"
     inkscape:zoom="4"
     inkscape:cx="24"
     inkscape:cy="24"
     inkscape:window-width="1272"
     inkscape:window-height="669"
     inkscape:window-x="192"
     inkscape:window-y="425"
     inkscape:window-maximized="0"
     inkscape:current-layer="svg1" />
  <circle
     style="fill:url(#linearGradient2);stroke:#8bd5ca;stroke-opacity:1;stroke-width:4;stroke-dasharray:none"
     cx="24"
     cy="24"
     r="20"
     id="circle1" />
  <path
     style="fill:#ffffff"
     d="m 24,12 c -6.627,0 -12,5.373 -12,12 0,6.627 5.373,12 12,12 h 7.5 c 0,0 1.4063,0 1.5,-1.5 C 33,33 31.5,33 31.5,33 H 24 c -4.9706,0 -9,-4.0294 -9,-9 0,-4.9706 4.0294,-9 9,-9 4.971,0 9,4.029 9,9 v 1.5 C 33,26.328 32.328,27 31.5,27 30.672,27 30,26.328 30,25.5 V 24 c 0,-3.314 -2.686,-6 -6,-6 -3.314,0 -6,2.686 -6,6 0,3.314 2.686,6 6,6 1.569,0 2.986,-0.616 4.055,-1.603 0.855,1.017 2.116,1.604 3.445,1.603 2.485,0 4.5,-2.015 4.5,-4.5 V 24 C 36,17.373 30.627,12 24,12 Z m 0,9 c 1.6568,0 3,1.3432 3,3 0,1.657 -1.343,3 -3,3 -1.657,0 -3,-1.343 -3,-3 0,-1.6568 1.3432,-3 3,-3 z"
     id="path1" />
</svg>
