<svg xmlns="http://www.w3.org/2000/svg" width="24" height="24" version="1.1"><defs><linearGradient id="linear0" x1="0%" x2="0%" y1="0%" y2="100%"><stop offset="0%" style="stop-color:#00b54e; stop-opacity:1"/><stop offset="50%" style="stop-color:#ffd000; stop-opacity:1"/><stop offset="100%" style="stop-color:#ff00bb; stop-opacity:1"/></linearGradient></defs>
 <path fill="url(#linear0)" d="m8.858 5.7448c-3.4547 1.7353-4.8485 5.9425-3.1133 9.3972 1.7353 3.4547 5.9425 4.8485 9.3972 3.1133l-0.898-1.787c-2.467 1.239-5.4726 0.244-6.712-2.224-1.2395-2.467-0.2439-5.4726 2.2237-6.712 1.1613-0.5835 0.2643-2.3708-0.8977-1.7872z"/>
 <path fill="url(#linear0)" d="m8.858 5.7448 0.8977 1.7872c2.4673-1.2395 5.4733-0.2439 6.7123 2.2237 1.239 2.4673 0.244 5.4733-2.224 6.7123l0.8977 1.7872c3.455-1.735 4.849-5.942 3.113-9.397-1.735-3.4546-5.942-4.8485-9.397-3.1132z"/>
</svg>
