<svg xmlns="http://www.w3.org/2000/svg" width="24" height="24" version="1.1"><defs><linearGradient id="linear0" x1="0%" x2="0%" y1="0%" y2="100%"><stop offset="0%" style="stop-color:#00b54e; stop-opacity:1"/><stop offset="50%" style="stop-color:#ffd000; stop-opacity:1"/><stop offset="100%" style="stop-color:#ff00bb; stop-opacity:1"/></linearGradient></defs>
 <path fill="url(#linear0)" d="m15.847 6.1516c-3.23-2.1244-7.5711-1.2281-9.6954 2.0019-2.1244 3.2295-1.2281 7.5705 2.0019 9.6945l1.099-1.671c-2.3071-1.517-2.9471-4.618-1.43-6.9245 1.5174-2.3071 4.6175-2.9474 6.9255-1.43 1.086 0.7144 2.185-0.9566 1.099-1.6709z"/>
 <path fill="url(#linear0)" d="m15.847 6.1516-1.099 1.671c2.3071 1.5174 2.9473 4.6179 1.4299 6.925s-4.6179 2.9473-6.925 1.4299l-1.099 1.671c3.23 2.1244 7.5706 1.2281 9.695-2.0019s1.2281-7.5706-2.0019-9.695z"/>
</svg>
