<svg xmlns="http://www.w3.org/2000/svg" width="24" height="24" version="1.1"><defs><linearGradient id="linear0" x1="0%" x2="0%" y1="0%" y2="100%"><stop offset="0%" style="stop-color:#00b54e; stop-opacity:1"/><stop offset="50%" style="stop-color:#ffd000; stop-opacity:1"/><stop offset="100%" style="stop-color:#ff00bb; stop-opacity:1"/></linearGradient></defs>
 <path fill="url(#linear0)" d="m5.0119 12.407c0.22497 3.8594 3.536 6.8058 7.3955 6.5808 3.8594-0.22497 6.8058-3.536 6.5808-7.3955l-1.9966 0.11638c0.16069 2.7567-1.9439 5.1218-4.7006 5.2825-2.7558 0.162-5.1208-1.942-5.2815-4.699-0.0757-1.298-2.0723-1.181-1.9966 0.116z"/>
 <path fill="url(#linear0)" d="m5.0119 12.407 1.9966-0.116c-0.1607-2.7568 1.9438-5.1218 4.7005-5.2825 2.7567-0.16069 5.1218 1.9439 5.2825 4.7006l1.9966-0.11638c-0.226-3.8598-3.537-6.8061-7.396-6.5811-3.8598 0.2249-6.8061 3.536-6.5811 7.3951z"/>
</svg>
