<svg xmlns="http://www.w3.org/2000/svg" width="24" height="24" version="1.1"><defs><linearGradient id="linear0" x1="0%" x2="0%" y1="0%" y2="100%"><stop offset="0%" style="stop-color:#00b54e; stop-opacity:1"/><stop offset="50%" style="stop-color:#ffd000; stop-opacity:1"/><stop offset="100%" style="stop-color:#ff00bb; stop-opacity:1"/></linearGradient></defs>
 <path fill="url(#linear0)" d="m17.092 16.804c2.653-2.813 2.524-7.2428-0.288-9.8957-2.813-2.653-7.2428-2.524-9.8957 0.2881l1.4548 1.3725c1.8949-2.0086 5.0599-2.1008 7.0679-0.2058 2.0086 1.8949 2.1008 5.0595 0.20582 7.0681-0.89209 0.94561 0.56269 2.3181 1.4548 1.3724z"/>
 <path fill="url(#linear0)" d="m17.092 16.804-1.4548-1.3724c-1.8949 2.0086-5.0595 2.1008-7.0681 0.20582-2.0086-1.896-2.1008-5.061-0.2058-7.0691l-1.4548-1.3725c-2.6529 2.8121-2.5239 7.2424 0.28815 9.8953 2.8121 2.6529 7.2424 2.5239 9.8953-0.28816z"/>
</svg>
