<svg xmlns="http://www.w3.org/2000/svg" width="24" height="24" version="1.1"><defs><linearGradient id="linear0" x1="0%" x2="0%" y1="0%" y2="100%"><stop offset="0%" style="stop-color:#00b54e; stop-opacity:1"/><stop offset="50%" style="stop-color:#ffd000; stop-opacity:1"/><stop offset="100%" style="stop-color:#ff00bb; stop-opacity:1"/></linearGradient></defs>
 <path fill="url(#linear0)" d="m5.9376 8.5003c-1.9328 3.3482-0.78548 7.6292 2.5627 9.562s7.6292 0.78548 9.562-2.5627l-1.733-1c-1.38 2.391-4.438 3.211-6.8298 1.83-2.3915-1.38-3.211-4.438-1.8305-6.8298 0.65-1.1258-1.0821-2.1257-1.7321-0.9999z"/>
 <path fill="url(#linear0)" d="m5.9376 8.5003 1.7321 0.99991c1.3806-2.3915 4.4385-3.2111 6.83-1.8305s3.2111 4.4385 1.8305 6.83l1.7321 0.99991c1.933-3.348 0.786-7.6295-2.562-9.5624-3.348-1.9328-7.6295-0.7854-9.5624 2.5627z"/>
</svg>
