<svg xmlns="http://www.w3.org/2000/svg" width="24" height="24" version="1.1"><defs><linearGradient id="linear0" x1="0%" x2="0%" y1="0%" y2="100%"><stop offset="0%" style="stop-color:#00b54e; stop-opacity:1"/><stop offset="50%" style="stop-color:#ffd000; stop-opacity:1"/><stop offset="100%" style="stop-color:#ff00bb; stop-opacity:1"/></linearGradient></defs>
 <path fill="url(#linear0)" d="m9.6061 18.578c3.6329 1.3221 7.6497-0.55112 8.9718-4.184s-0.55112-7.6497-4.184-8.9718l-0.68398 1.8794c2.5949 0.94436 3.933 3.8136 2.9886 6.4085-0.94436 2.5949-3.8136 3.933-6.4085 2.9886-1.2216-0.44458-1.9056 1.4348-0.68397 1.8794z"/>
 <path fill="url(#linear0)" d="m9.6061 18.578 0.6839-1.879c-2.5948-0.945-3.9329-3.814-2.9885-6.409 0.9443-2.5948 3.8135-3.9329 6.4085-2.9885l0.684-1.8794c-3.633-1.3222-7.6498 0.5511-8.9719 4.184s0.55112 7.6497 4.184 8.9718z"/>
</svg>
