<svg xmlns="http://www.w3.org/2000/svg" width="24" height="24" version="1.1"><defs><linearGradient id="linear0" x1="0%" x2="0%" y1="0%" y2="100%"><stop offset="0%" style="stop-color:#00b54e; stop-opacity:1"/><stop offset="50%" style="stop-color:#ffd000; stop-opacity:1"/><stop offset="100%" style="stop-color:#ff00bb; stop-opacity:1"/></linearGradient></defs>
 <path fill="url(#linear0)" d="m18.427 9.2274c-1.531-3.5498-5.65-5.1862-9.1996-3.6549-3.5498 1.5313-5.1862 5.6505-3.6549 9.2005l1.8364-0.79218c-1.0938-2.5355 0.075423-5.4779 2.6106-6.5715 2.5355-1.0938 5.4777 0.075056 6.5715 2.6106 0.51492 1.1937 2.3513 0.40149 1.8364-0.79218z"/>
 <path fill="url(#linear0)" d="m18.427 9.2274-1.8364 0.79218c1.0938 2.5355-0.07506 5.4777-2.6106 6.5715-2.5356 1.0938-5.4777-0.07506-6.5715-2.6106l-1.8364 0.79218c1.5313 3.5498 5.6503 5.1861 9.2001 3.6548s5.1861-5.6503 3.6548-9.2001z"/>
</svg>
