<svg xmlns="http://www.w3.org/2000/svg" width="24" height="24" version="1.1"><defs><linearGradient id="linear0" x1="0%" x2="0%" y1="0%" y2="100%"><stop offset="0%" style="stop-color:#00b54e; stop-opacity:1"/><stop offset="50%" style="stop-color:#ffd000; stop-opacity:1"/><stop offset="100%" style="stop-color:#ff00bb; stop-opacity:1"/></linearGradient></defs>
 <path style="fill:url(#linear0)" d="m12.145 5c-3.2558-0.0703-6.2217 2.1508-6.9712 5.449l1.9512 0.444c0.6118-2.6936 3.292-4.3797 5.984-3.768 2.321 0.5274 3.872 2.5925 3.87 4.877 0.007 0 0.014-0.002 0.021-0.002 0.75 0 1.424 0.294 1.947 0.758 0.385-3.4893-1.891-6.7878-5.396-7.5842-0.471-0.107-0.941-0.1638-1.406-0.1738z"/>
 <path style="fill:url(#linear0)" d="m5.1758 10.449c-0.8565 3.77 1.5037 7.521 5.2732 8.377 0.864 0.196 1.724 0.208 2.551 0.086v-2.037c-0.676 0.145-1.389 0.163-2.107 0-2.6936-0.612-4.3798-3.29-3.768-5.982l-1.9492-0.444z"/>
 <path fill="#ececec" d="m17 13c-1.108 0-2 0.91085-2 2.0312v0.96875h-1v4h6v-4h-1v-0.96875c0-1.12-0.892-2.031-2-2.031zm0 1c0.554 0 1 0.4424 1 1v1h-2v-1c0-0.5576 0.446-1 1-1z"/>
</svg>
