<?xml version="1.0" encoding="UTF-8" standalone="no"?>
<svg
   width="68"
   height="68"
   viewBox="0 0 17.991665 17.991665"
   version="1.1"
   id="svg1114"
   inkscape:version="1.3.2 (091e20ef0f, 2023-11-25)"
   sodipodi:docname="mendeleydesktop.svg"
   xmlns:inkscape="http://www.inkscape.org/namespaces/inkscape"
   xmlns:sodipodi="http://sodipodi.sourceforge.net/DTD/sodipodi-0.dtd"
   xmlns:xlink="http://www.w3.org/1999/xlink"
   xmlns="http://www.w3.org/2000/svg"
   xmlns:svg="http://www.w3.org/2000/svg"
   xmlns:rdf="http://www.w3.org/1999/02/22-rdf-syntax-ns#"
   xmlns:cc="http://creativecommons.org/ns#"
   xmlns:dc="http://purl.org/dc/elements/1.1/">
  <style
     type="text/css"
     id="current-color-scheme">.ColorScheme-Highlight { color:#5599ff; }
</style>
  <defs
     id="defs1108">
    <linearGradient
       id="linearGradient12"
       inkscape:collect="always">
      <stop
         style="stop-color:#ffffff;stop-opacity:0;"
         offset="0"
         id="stop10" />
      <stop
         id="stop11"
         offset="0.65909404"
         style="stop-color:#ffffff;stop-opacity:0" />
      <stop
         style="stop-color:#ffffff;stop-opacity:1;"
         offset="1"
         id="stop12" />
    </linearGradient>
    <linearGradient
       id="linearGradient9"
       inkscape:collect="always">
      <stop
         style="stop-color:#000000;stop-opacity:0;"
         offset="0"
         id="stop1" />
      <stop
         id="stop8"
         offset="0.66102529"
         style="stop-color:#000000;stop-opacity:0" />
      <stop
         style="stop-color:#000000;stop-opacity:1;"
         offset="1"
         id="stop9" />
    </linearGradient>
    <linearGradient
       id="linearGradient7"
       inkscape:collect="always">
      <stop
         style="stop-color:#000000;stop-opacity:0;"
         offset="0"
         id="stop5" />
      <stop
         id="stop6"
         offset="0.6586886"
         style="stop-color:#000000;stop-opacity:0" />
      <stop
         style="stop-color:#000000;stop-opacity:1;"
         offset="1"
         id="stop7" />
    </linearGradient>
    <linearGradient
       id="linearGradient4"
       inkscape:collect="always">
      <stop
         style="stop-color:#000000;stop-opacity:0;"
         offset="0"
         id="stop2" />
      <stop
         id="stop3"
         offset="0.67055255"
         style="stop-color:#000000;stop-opacity:0" />
      <stop
         style="stop-color:#000000;stop-opacity:1;"
         offset="1"
         id="stop4" />
    </linearGradient>
    <linearGradient
       inkscape:collect="always"
       id="linearGradient899">
      <stop
         style="stop-color:#ff5555;stop-opacity:1;"
         offset="0"
         id="stop895" />
      <stop
         style="stop-color:#c83771;stop-opacity:1;"
         offset="1"
         id="stop897" />
    </linearGradient>
    <linearGradient
       id="linearGradient1167"
       x1="40.751999"
       x2="40.751999"
       y1="28.507999"
       y2="17.205999"
       gradientUnits="userSpaceOnUse">
      <stop
         style="stop-color:#84fb6e;stop-opacity:1"
         stop-color="#0ab816"
         offset="0"
         id="stop1163" />
      <stop
         style="stop-color:#0dd41a;stop-opacity:1"
         stop-color="#0cf36c"
         offset="1"
         id="stop1165" />
    </linearGradient>
    <linearGradient
       id="cornerBevel"
       inkscape:collect="always">
      <stop
         style="stop-color:#000000;stop-opacity:0;"
         offset="0"
         id="stop2663" />
      <stop
         id="stop2671"
         offset="0.66666675"
         style="stop-color:#000000;stop-opacity:0" />
      <stop
         style="stop-color:#000000;stop-opacity:1;"
         offset="1"
         id="stop2661" />
    </linearGradient>
    <linearGradient
       id="bevel"
       inkscape:collect="always">
      <stop
         id="stop2685"
         offset="0"
         style="stop-color:#000000;stop-opacity:1;" />
      <stop
         id="stop2687"
         offset="1"
         style="stop-color:#000000;stop-opacity:0;" />
    </linearGradient>
    <linearGradient
       id="highlightCorner"
       inkscape:collect="always">
      <stop
         style="stop-color:#ffffff;stop-opacity:0;"
         offset="0"
         id="stop2613" />
      <stop
         id="stop2621"
         offset="0.66666669"
         style="stop-color:#ffffff;stop-opacity:0" />
      <stop
         style="stop-color:#ffffff;stop-opacity:1;"
         offset="1"
         id="stop2611" />
    </linearGradient>
    <linearGradient
       inkscape:collect="always"
       id="highlight">
      <stop
         style="stop-color:#ffffff;stop-opacity:1;"
         offset="0"
         id="stop2921" />
      <stop
         style="stop-color:#ffffff;stop-opacity:0;"
         offset="1"
         id="stop2923" />
    </linearGradient>
    <radialGradient
       inkscape:collect="always"
       xlink:href="#highlightCorner"
       id="radialGradient15"
       gradientUnits="userSpaceOnUse"
       gradientTransform="matrix(0.04294597,-12.079348,17.933991,0.06376112,15.000429,-49.447747)"
       cx="-4.5799766"
       cy="-0.50206107"
       fx="-4.5799766"
       fy="-0.50206107"
       r="0.39687499" />
    <linearGradient
       inkscape:collect="always"
       xlink:href="#highlight"
       id="linearGradient15"
       gradientUnits="userSpaceOnUse"
       x1="-3.8453064"
       y1="-1.1532172"
       x2="-3.8453064"
       y2="-0.8954913"
       gradientTransform="matrix(6.0923077,0,0,6.0923077,32.704778,8.0798044)" />
    <radialGradient
       inkscape:collect="always"
       xlink:href="#linearGradient12"
       id="radialGradient17"
       gradientUnits="userSpaceOnUse"
       gradientTransform="matrix(-0.02247554,-12.045403,-17.967828,0.03352619,2.1402712,-49.297268)"
       cx="-4.575222"
       cy="-0.55256462"
       fx="-4.575222"
       fy="-0.55256462"
       r="0.39687499" />
    <radialGradient
       inkscape:collect="always"
       xlink:href="#linearGradient7"
       id="radialGradient18"
       gradientUnits="userSpaceOnUse"
       gradientTransform="matrix(0.06461187,12.09952,17.933731,-0.09576873,15.085752,65.674273)"
       cx="-4.4284906"
       cy="-0.50121039"
       fx="-4.4284906"
       fy="-0.50121039"
       r="0.39687499" />
    <linearGradient
       inkscape:collect="always"
       xlink:href="#bevel"
       id="linearGradient18"
       gradientUnits="userSpaceOnUse"
       x1="-3.8415797"
       y1="-1.4506671"
       x2="-3.8406549"
       y2="-1.1968651"
       gradientTransform="matrix(6.0923076,0,0,6.0923076,32.704777,-8.079805)" />
    <radialGradient
       inkscape:collect="always"
       xlink:href="#linearGradient4"
       id="radialGradient20"
       gradientUnits="userSpaceOnUse"
       gradientTransform="matrix(-0.01031383,11.991438,-17.967296,-0.01545561,2.2116219,65.231784)"
       cx="-4.4236727"
       cy="-0.55004197"
       fx="-4.4236727"
       fy="-0.55004197"
       r="0.39687499" />
    <radialGradient
       inkscape:collect="always"
       xlink:href="#cornerBevel"
       id="radialGradient25"
       gradientUnits="userSpaceOnUse"
       gradientTransform="matrix(12.184614,0,0,12.184614,60.10747,11.303655)"
       cx="-4.4568658"
       cy="-0.44864327"
       fx="-4.4568658"
       fy="-0.44864327"
       r="0.39687496" />
    <linearGradient
       inkscape:collect="always"
       xlink:href="#bevel"
       id="linearGradient25"
       gradientUnits="userSpaceOnUse"
       x1="-3.8487544"
       y1="-1.146081"
       x2="-3.8455966"
       y2="-0.890971"
       gradientTransform="matrix(6.0923077,0,0,6.0923077,32.704778,8.079805)" />
    <radialGradient
       inkscape:collect="always"
       xlink:href="#cornerBevel"
       id="radialGradient29"
       gradientUnits="userSpaceOnUse"
       gradientTransform="matrix(0,-12.184614,12.184614,0,11.74978,-43.501726)"
       cx="-4.5705457"
       cy="-0.48653662"
       fx="-4.5705457"
       fy="-0.48653662"
       r="0.39687496" />
    <radialGradient
       inkscape:collect="always"
       xlink:href="#cornerBevel"
       id="radialGradient30"
       gradientUnits="userSpaceOnUse"
       gradientTransform="matrix(-12.184514,-0.04945749,0.04847411,-11.942243,-43.025905,4.7779476)"
       cx="-4.5342312"
       cy="-0.60337442"
       fx="-4.5342312"
       fy="-0.60337442"
       r="0.39687496" />
    <radialGradient
       inkscape:collect="always"
       xlink:href="#linearGradient9"
       id="radialGradient31"
       gradientUnits="userSpaceOnUse"
       gradientTransform="matrix(0,-12.151612,11.978956,0,18.951914,-47.844734)"
       cx="-4.4175329"
       cy="-0.56489283"
       fx="-4.4175329"
       fy="-0.56489283"
       r="0.39687496" />
    <linearGradient
       inkscape:collect="always"
       xlink:href="#bevel"
       id="linearGradient34"
       gradientUnits="userSpaceOnUse"
       x1="-3.99717"
       y1="-1.2218677"
       x2="-4.0003276"
       y2="-0.96675771"
       gradientTransform="matrix(6.0923077,0,0,6.0923077,16.099035,8.525933)" />
    <linearGradient
       inkscape:collect="always"
       xlink:href="#bevel"
       id="linearGradient35"
       gradientUnits="userSpaceOnUse"
       x1="-4.0919032"
       y1="-1.4492278"
       x2="-4.0950613"
       y2="-1.1972755"
       gradientTransform="matrix(6.0923077,0,0,6.0923077,15.652911,-8.079805)" />
    <linearGradient
       inkscape:collect="always"
       xlink:href="#bevel"
       id="linearGradient36"
       gradientUnits="userSpaceOnUse"
       x1="-3.8734362"
       y1="-1.3717227"
       x2="-3.8765941"
       y2="-1.116071"
       gradientTransform="matrix(6.0923077,0,0,6.0923077,32.258652,-8.525933)" />
    <linearGradient
       id="paint2_linear_77:3-7"
       x1="79.398094"
       y1="-197.84389"
       x2="82.901054"
       y2="-199.97827"
       gradientUnits="userSpaceOnUse"
       gradientTransform="matrix(1.9248511,0,0,1.7314595,-40.88733,399.61741)">
      <stop
         stop-color="#EBFAFF"
         stop-opacity="0.1"
         id="stop29-5-7"
         offset="0"
         style="stop-color:#c3c3c3;stop-opacity:1;" />
      <stop
         offset="1"
         stop-color="#70A9FF"
         stop-opacity="0.5"
         id="stop30-0-1"
         style="stop-color:#05c7ff;stop-opacity:0.80000001;" />
    </linearGradient>
    <linearGradient
       inkscape:collect="always"
       xlink:href="#linearGradient899"
       id="linearGradient926"
       x1="0.98894888"
       y1="-9.3406019"
       x2="16.919081"
       y2="-9.2251434"
       gradientUnits="userSpaceOnUse" />
    <linearGradient
       xlink:href="#linearGradient4220"
       id="linearGradient4503-5-6"
       y1="37"
       y2="4"
       x2="0"
       gradientUnits="userSpaceOnUse"
       gradientTransform="matrix(0.19182286,0,0,0.19182292,4.6957797,3.7409444)" />
    <linearGradient
       id="linearGradient4220">
      <stop
         offset="0"
         style="stop-color:#ffd5d3;stop-opacity:1"
         id="stop2-6" />
      <stop
         offset="1"
         style="stop-color:#ffffff;stop-opacity:1"
         id="stop4-7" />
    </linearGradient>
    <linearGradient
       inkscape:collect="always"
       xlink:href="#linearGradient4144"
       id="linearGradient863"
       gradientUnits="userSpaceOnUse"
       gradientTransform="matrix(0.27781254,0,0,0.27781254,0.7324985,0.7380553)"
       x1="14.023"
       y1="8.1289997"
       x2="27.879"
       y2="34.944" />
    <linearGradient
       id="linearGradient4144">
      <stop
         style="stop-color:#ffffff;stop-opacity:1;"
         offset="0"
         id="stop1141" />
      <stop
         style="stop-color:#eea9a9;stop-opacity:1"
         offset="1"
         id="stop1143" />
    </linearGradient>
  </defs>
  <sodipodi:namedview
     id="base"
     pagecolor="#e2e2e2"
     bordercolor="#666666"
     borderopacity="1.0"
     inkscape:pageopacity="0"
     inkscape:pageshadow="2"
     inkscape:zoom="9.7248729"
     inkscape:cx="32.596827"
     inkscape:cy="37.121308"
     inkscape:document-units="px"
     inkscape:current-layer="layer1"
     inkscape:document-rotation="0"
     showgrid="true"
     units="px"
     inkscape:window-width="1920"
     inkscape:window-height="990"
     inkscape:window-x="0"
     inkscape:window-y="0"
     inkscape:window-maximized="1"
     inkscape:object-paths="true"
     inkscape:snap-grids="true"
     inkscape:snap-intersection-paths="true"
     inkscape:snap-smooth-nodes="true"
     inkscape:snap-midpoints="true"
     inkscape:showpageshadow="2"
     inkscape:pagecheckerboard="0"
     inkscape:deskcolor="#d1d1d1">
    <inkscape:grid
       id="grid2"
       units="px"
       originx="0"
       originy="0"
       spacingx="0.26458333"
       spacingy="0.26458333"
       empcolor="#0099e5"
       empopacity="0.30196078"
       color="#0099e5"
       opacity="0.14902"
       empspacing="5"
       dotted="false"
       gridanglex="30"
       gridanglez="30"
       visible="true" />
  </sodipodi:namedview>
  <metadata
     id="metadata1111">
    <rdf:RDF>
      <cc:Work
         rdf:about="">
        <dc:format>image/svg+xml</dc:format>
        <dc:type
           rdf:resource="http://purl.org/dc/dcmitype/StillImage" />
      </cc:Work>
    </rdf:RDF>
  </metadata>
  <g
     inkscape:label="Layer 1"
     inkscape:groupmode="layer"
     id="layer1">
    <g
       id="g1">
      <rect
         ry="4.8357682"
         rx="4.8357682"
         style="fill:url(#linearGradient926);fill-opacity:1;stroke-width:6.09228"
         x="1.0583347"
         y="-16.933334"
         width="15.875001"
         height="15.875001"
         id="use1056"
         transform="rotate(90)"
         class="ColorScheme-Highlight" />
      <path
         d="m 5.8208334,1.058334 c -2.6384245,0 -4.7624996,2.1240748 -4.7624996,4.7624996 h 4.7624996 z"
         style="opacity:0.15;fill:url(#radialGradient25);fill-opacity:1;stroke-width:6.09228"
         id="path20" />
      <rect
         y="1.0583339"
         x="5.8208327"
         height="1.5875"
         width="6.3500004"
         id="rect20"
         style="opacity:0.15;fill:url(#linearGradient25);fill-opacity:1;stroke-width:4.83577;stroke-linecap:round;stroke-linejoin:round;paint-order:stroke fill markers" />
      <path
         d="m 1.0583338,12.170834 c 0,2.638424 2.1240751,4.762499 4.7624996,4.762499 v -4.762499 z"
         style="opacity:0.15;fill:url(#radialGradient29);fill-opacity:1;stroke-width:6.09228"
         id="use20" />
      <rect
         y="1.0583338"
         x="-12.170835"
         height="1.5875"
         width="6.3500004"
         id="use21"
         style="opacity:0.15;fill:url(#linearGradient34);fill-opacity:1;stroke-width:4.83577;stroke-linecap:round;stroke-linejoin:round;paint-order:stroke fill markers"
         transform="rotate(-90)" />
      <path
         d="m 12.170833,16.933333 c 2.638425,0 4.7625,-2.124074 4.7625,-4.762499 h -4.7625 z"
         style="opacity:0.15;fill:url(#radialGradient30);fill-opacity:1;stroke-width:6.09228"
         id="use22" />
      <rect
         y="-16.933334"
         x="-12.170835"
         height="1.5875"
         width="6.3500004"
         id="use23"
         style="opacity:0.15;fill:url(#linearGradient35);fill-opacity:1;stroke-width:4.83577;stroke-linecap:round;stroke-linejoin:round;paint-order:stroke fill markers"
         transform="scale(-1)" />
      <path
         d="m 16.933333,5.8208336 c 0,-2.6384245 -2.124074,-4.7624996 -4.7625,-4.7624996 v 4.7624996 z"
         style="opacity:0.15;fill:url(#radialGradient31);fill-opacity:1;stroke-width:6.09228"
         id="use24" />
      <rect
         y="-16.933331"
         x="5.8208332"
         height="1.5875"
         width="6.3500004"
         id="use25"
         style="opacity:0.15;fill:url(#linearGradient36);fill-opacity:1;stroke-width:4.83577;stroke-linecap:round;stroke-linejoin:round;paint-order:stroke fill markers"
         transform="rotate(90)" />
      <path
         d="m 5.8208336,1.0583334 c -2.638425,0 -4.7625004,2.1240747 -4.7625004,4.7624997 h 4.7625004 z"
         style="opacity:0.5;fill:url(#radialGradient15);fill-opacity:1;stroke-width:6.09228"
         id="path14" />
      <rect
         y="1.0583333"
         x="5.8208327"
         height="1.5875"
         width="6.3499999"
         id="rect14"
         style="opacity:0.5;fill:url(#linearGradient15);fill-opacity:1;stroke-width:4.83577;stroke-linecap:round;stroke-linejoin:round;paint-order:stroke fill markers" />
      <path
         d="m 12.170833,1.0583333 c 2.638425,0 4.7625,2.124075 4.7625,4.7624973 h -4.7625 z"
         style="opacity:0.5;fill:url(#radialGradient17);fill-opacity:1;stroke-width:6.09228"
         id="use14" />
      <path
         id="path17"
         style="opacity:0.5;fill:url(#radialGradient18);fill-opacity:1;stroke-width:6.09228"
         d="m 5.8208338,16.933332 c -2.638425,0 -4.7625,-2.124075 -4.7625,-4.7625 h 4.7625 z" />
      <rect
         style="opacity:0.5;fill:url(#linearGradient18);fill-opacity:1;stroke-width:4.83577;stroke-linecap:round;stroke-linejoin:round;paint-order:stroke fill markers"
         id="rect17"
         width="6.3499994"
         height="1.5874999"
         x="5.8208327"
         y="-16.933334"
         transform="scale(1,-1)" />
      <path
         id="use17"
         style="opacity:0.5;fill:url(#radialGradient20);fill-opacity:1;stroke-width:6.09228"
         d="m 12.170832,16.933333 c 2.638425,0 4.7625,-2.124075 4.7625,-4.7625 h -4.7625 z" />
    </g>
    <path
       style="fill:url(#linearGradient863);fill-opacity:1;stroke-width:0.27781"
       d="m 5.406119,4.3665821 c -0.5527464,0.017268 -1.0866543,0.2654084 -1.4956366,0.6415366 -0.415647,0.38227 -0.7135716,0.9074775 -0.7738986,1.4721518 -0.03019,0.2823487 -8.064e-4,0.5717483 0.091876,0.8397884 0.092698,0.2680856 0.249551,0.5143824 0.4577088,0.7051419 0.2455123,0.2249639 0.5523656,0.3668764 0.8343052,0.5428699 0.140987,0.087961 0.2772029,0.1856668 0.3939885,0.3044713 0.1167828,0.1188447 0.213876,0.25972 0.2673458,0.4182258 0.047573,0.1410144 0.059319,0.2933905 0.03808,0.4407882 -0.021239,0.1474413 -0.075278,0.289717 -0.1539554,0.41571 -0.1573479,0.252036 -0.4110549,0.43554 -0.6894833,0.533652 -0.3229329,0.113815 -0.678689,0.119369 -0.9899238,0.262644 -0.2463015,0.113278 -0.4534751,0.310927 -0.5827184,0.551204 -0.1292057,0.240295 -0.1803909,0.522161 -0.1489864,0.793787 0.036902,0.319181 0.1880193,0.622763 0.4146757,0.848172 0.2266592,0.225398 0.526587,0.37221 0.8409525,0.420735 0.4609265,0.07117 0.9536442,-0.07797 1.2887139,-0.405682 0.1675374,-0.163848 0.2953303,-0.368757 0.3666687,-0.593044 0.071341,-0.224319 0.086085,-0.467525 0.039722,-0.698439 C 5.5701486,11.683976 5.5004278,11.51688 5.4358767,11.349243 5.3713307,11.181535 5.3107269,11.00987 5.2951647,10.830656 5.2677037,10.514219 5.3876417,10.192276 5.5956189,9.9540723 5.8035988,9.715879 6.0941794,9.5591383 6.4009696,9.4898339 c 0.1979389,-0.04474 0.4043152,-0.05478 0.6042234,-0.0201 0.1999083,0.03482 0.393406,0.1142644 0.555372,0.2375571 0.1619824,0.1232947 0.2914452,0.2909847 0.3633609,0.48264 0.071919,0.191641 0.084661,0.407287 0.0273,0.603907 -0.058734,0.201371 -0.1849822,0.374076 -0.3128674,0.539499 -0.1278868,0.16544 -0.2617069,0.331596 -0.3377032,0.526971 -0.083797,0.215448 -0.09219,0.458385 -0.03477,0.682525 0.057419,0.224112 0.1787713,0.429687 0.3377018,0.596375 0.1758275,0.18445 0.3984858,0.322604 0.640633,0.398143 0.2421536,0.07557 0.4898368,0.08869 0.7432869,0.08869 0.2534393,0 0.5176521,-0.01262 0.7598436,-0.08869 0.242157,-0.07555 0.4648214,-0.213696 0.6406334,-0.398146 0.158929,-0.166724 0.28028,-0.372282 0.3377,-0.596374 0.05742,-0.224151 0.04905,-0.467062 -0.03475,-0.682525 -0.07599,-0.195373 -0.209812,-0.361525 -0.337703,-0.526963 -0.127886,-0.165432 -0.254139,-0.338139 -0.312866,-0.5395 -0.05734,-0.196624 -0.04461,-0.412269 0.02731,-0.603907 0.07192,-0.1916443 0.201377,-0.3592943 0.363358,-0.482637 0.16198,-0.1233577 0.355478,-0.2028584 0.555364,-0.2375561 0.199909,-0.0348 0.406287,-0.0246 0.604231,0.0201 0.30678,0.06933 0.597368,0.2260271 0.805347,0.4642324 0.207981,0.2382067 0.327929,0.5601717 0.300454,0.8765897 -0.01561,0.179227 -0.07611,0.350895 -0.140708,0.518581 -0.06457,0.16767 -0.134281,0.334759 -0.169681,0.511057 -0.04639,0.230911 -0.03162,0.474084 0.03979,0.698439 0.07138,0.224277 0.199129,0.429177 0.366666,0.593045 0.335076,0.327706 0.827791,0.476822 1.288711,0.405678 0.314338,-0.0485 0.614301,-0.195338 0.840955,-0.420736 0.226649,-0.225394 0.37778,-0.528985 0.414672,-0.848177 0.03149,-0.271642 -0.01976,-0.553476 -0.148983,-0.793787 -0.129228,-0.240275 -0.336424,-0.437871 -0.582747,-0.551187 -0.311248,-0.143186 -0.666988,-0.148839 -0.98991,-0.262639 -0.278415,-0.09808 -0.532125,-0.281616 -0.689476,-0.533645 -0.07868,-0.126 -0.132712,-0.2682697 -0.15396,-0.415718 -0.02123,-0.1473977 -0.0097,-0.2997798 0.03805,-0.4407842 C 12.863288,9.13228 12.960375,8.9913632 13.077157,8.8725627 13.193944,8.753719 13.330159,8.6561014 13.471141,8.5680953 13.753113,8.3921139 14.059958,8.2501979 14.305451,8.0252177 14.513612,7.8344707 14.67046,7.5881645 14.76316,7.3200773 14.85585,7.0520359 14.885224,6.762644 14.85501,6.4802917 14.794617,5.9156211 14.496758,5.3904306 14.081109,5.0081465 13.672119,4.6319942 13.138212,4.383731 12.58546,4.3666047 c -0.276369,-0.00792 -0.554735,0.040232 -0.809499,0.1488998 -0.254752,0.1085797 -0.485096,0.2773409 -0.661326,0.4926567 -0.20204,0.2468487 -0.329022,0.546827 -0.445303,0.8448016 -0.116276,0.2980278 -0.226186,0.6018483 -0.402261,0.8682488 -0.2903554,0.4392827 -0.7486255,0.856512 -1.2713579,0.856512 -0.5227322,0 -0.9809925,-0.4172625 -1.2713555,-0.856512 C 7.5483086,6.4547912 7.4383986,6.1509789 7.3221173,5.8529269 7.2058354,5.5549397 7.0788518,5.2549583 6.8768117,5.0081235 6.7005793,4.7927934 6.4702396,4.6240638 6.2154827,4.5154704 5.9607233,4.4068607 5.6823777,4.3580165 5.4059824,4.3665821 Z M 8.9958616,8.4342154 A 0.84755665,0.85654629 0 0 1 9.843423,9.2907198 0.84755665,0.85654629 0 0 1 8.9958616,10.147227 0.84755665,0.85654629 0 0 1 8.1483058,9.2907198 0.84755665,0.85654629 0 0 1 8.9958616,8.4342154 Z"
       id="path1167-9" />
  </g>
</svg>
