<?xml version="1.0" encoding="UTF-8" standalone="no"?>
<svg
   enable-background="new"
   viewBox="0 0 48 48"
   version="1.1"
   id="svg9"
   sodipodi:docname="weather-few-clouds-wind.svg"
   inkscape:version="1.4 (unknown)"
   xmlns:inkscape="http://www.inkscape.org/namespaces/inkscape"
   xmlns:sodipodi="http://sodipodi.sourceforge.net/DTD/sodipodi-0.dtd"
   xmlns:xlink="http://www.w3.org/1999/xlink"
   xmlns="http://www.w3.org/2000/svg"
   xmlns:svg="http://www.w3.org/2000/svg">
  <defs
     id="defs9">
    <linearGradient
       id="linearGradient1"
       inkscape:collect="always">
      <stop
         style="stop-color:#ffb17c;stop-opacity:1;"
         offset="0"
         id="stop1" />
      <stop
         style="stop-color:#ffd42a;stop-opacity:1"
         offset="1"
         id="stop2" />
    </linearGradient>
    <filter
       id="filter0_f_2_54"
       x="399"
       y="410"
       width="241.241"
       height="241.241"
       filterUnits="userSpaceOnUse"
       color-interpolation-filters="sRGB">
      <feFlood
         flood-opacity="0"
         result="BackgroundImageFix"
         id="feFlood6" />
      <feBlend
         mode="normal"
         in="SourceGraphic"
         in2="BackgroundImageFix"
         result="shape"
         id="feBlend6" />
      <feGaussianBlur
         stdDeviation="22"
         result="effect1_foregroundBlur_2_54"
         id="feGaussianBlur6" />
    </filter>
    <linearGradient
       id="paint0_linear_2_54"
       x1="519.62"
       y1="459.02399"
       x2="519.62"
       y2="607.24103"
       gradientUnits="userSpaceOnUse">
      <stop
         stop-color="#FFE600"
         id="stop10" />
      <stop
         offset="1"
         stop-color="#FF7A00"
         id="stop11" />
    </linearGradient>
    <linearGradient
       id="paint1_linear_2_54"
       x1="519.62"
       y1="459.02399"
       x2="519.62"
       y2="607.24103"
       gradientUnits="userSpaceOnUse">
      <stop
         stop-color="white"
         id="stop12" />
      <stop
         offset="1"
         stop-color="white"
         stop-opacity="0"
         id="stop13" />
    </linearGradient>
    <linearGradient
       id="paint2_linear_2_54"
       x1="519.62"
       y1="459.02399"
       x2="519.62"
       y2="607.24103"
       gradientUnits="userSpaceOnUse"
       gradientTransform="matrix(0.14024268,0,0,0.14024268,-54.455314,-55.199499)">
      <stop
         stop-color="#FFD600"
         id="stop14" />
      <stop
         offset="1"
         stop-color="#FF7A00"
         id="stop15" />
    </linearGradient>
    <filter
       id="filter1_f_2_54"
       x="319.72198"
       y="600.77698"
       width="326.94501"
       height="136.02299"
       filterUnits="userSpaceOnUse"
       color-interpolation-filters="sRGB">
      <feFlood
         flood-opacity="0"
         result="BackgroundImageFix"
         id="feFlood7" />
      <feBlend
         mode="normal"
         in="SourceGraphic"
         in2="BackgroundImageFix"
         result="shape"
         id="feBlend7" />
      <feGaussianBlur
         stdDeviation="7"
         result="effect1_foregroundBlur_2_54"
         id="feGaussianBlur7" />
    </filter>
    <filter
       id="filter2_d_2_54"
       x="397.121"
       y="491.85199"
       width="316.04501"
       height="246.14799"
       filterUnits="userSpaceOnUse"
       color-interpolation-filters="sRGB">
      <feFlood
         flood-opacity="0"
         result="BackgroundImageFix"
         id="feFlood8" />
      <feColorMatrix
         in="SourceAlpha"
         type="matrix"
         values="0 0 0 0 0 0 0 0 0 0 0 0 0 0 0 0 0 0 127 0"
         result="hardAlpha"
         id="feColorMatrix8" />
      <feOffset
         dx="-21"
         dy="15"
         id="feOffset8" />
      <feGaussianBlur
         stdDeviation="25"
         id="feGaussianBlur8" />
      <feComposite
         in2="hardAlpha"
         operator="out"
         id="feComposite8" />
      <feColorMatrix
         type="matrix"
         values="0 0 0 0 0.113438 0 0 0 0 0.148981 0 0 0 0 0.275 0 0 0 0.25 0"
         id="feColorMatrix9" />
      <feBlend
         mode="normal"
         in2="BackgroundImageFix"
         result="effect1_dropShadow_2_54"
         id="feBlend9" />
      <feBlend
         mode="normal"
         in="SourceGraphic"
         in2="effect1_dropShadow_2_54"
         result="shape"
         id="feBlend10" />
    </filter>
    <linearGradient
       id="paint3_linear_2_54"
       x1="586.19202"
       y1="531.24799"
       x2="586.19202"
       y2="689.51398"
       gradientUnits="userSpaceOnUse">
      <stop
         stop-color="white"
         id="stop16" />
      <stop
         offset="1"
         stop-color="white"
         stop-opacity="0"
         id="stop17" />
    </linearGradient>
    <linearGradient
       id="paint4_linear_2_54"
       x1="576.14398"
       y1="526.85199"
       x2="576.14398"
       y2="673"
       gradientUnits="userSpaceOnUse">
      <stop
         stop-color="white"
         id="stop18" />
      <stop
         offset="1"
         stop-color="white"
         stop-opacity="0"
         id="stop19" />
    </linearGradient>
    <mask
       id="path-5-inside-1_2_54"
       fill="#ffffff">
      <path
         fill-rule="evenodd"
         clip-rule="evenodd"
         d="m 644.678,672.997 c 0.151,0.002 0.303,0.003 0.455,0.003 21.557,0 39.033,-17.476 39.033,-39.033 0,-21.558 -17.476,-39.034 -39.033,-39.034 -0.152,0 -0.304,10e-4 -0.455,0.003 v -0.003 h -10.083 c 0.364,-2.671 0.552,-5.398 0.552,-8.17 0,-33.088 -26.823,-59.911 -59.911,-59.911 -33.089,0 -59.912,26.823 -59.912,59.911 0,3.123 0.239,6.189 0.699,9.182 -2.849,-0.662 -5.818,-1.012 -8.868,-1.012 -21.558,0 -39.034,17.476 -39.034,39.034 0,21.557 17.476,39.033 39.034,39.033 0.152,0 0.303,-10e-4 0.455,-0.003 L 507.608,673 h 137.07 z"
         id="path4" />
    </mask>
    <linearGradient
       inkscape:collect="always"
       xlink:href="#linearGradient1"
       id="linearGradient2"
       x1="540.66272"
       y1="463.11755"
       x2="518"
       y2="595.64099"
       gradientUnits="userSpaceOnUse"
       gradientTransform="matrix(0.14024268,0,0,0.14024268,-54.455314,-55.199499)" />
    <mask
       id="mask1"
       fill="#ffffff">
      <path
         fill-rule="evenodd"
         clip-rule="evenodd"
         d="m 644.678,672.997 c 0.151,0.002 0.303,0.003 0.455,0.003 21.557,0 39.033,-17.476 39.033,-39.033 0,-21.558 -17.476,-39.034 -39.033,-39.034 -0.152,0 -0.304,10e-4 -0.455,0.003 v -0.003 h -10.083 c 0.364,-2.671 0.552,-5.398 0.552,-8.17 0,-33.088 -26.823,-59.911 -59.911,-59.911 -33.089,0 -59.912,26.823 -59.912,59.911 0,3.123 0.239,6.189 0.699,9.182 -2.849,-0.662 -5.818,-1.012 -8.868,-1.012 -21.558,0 -39.034,17.476 -39.034,39.034 0,21.557 17.476,39.033 39.034,39.033 0.152,0 0.303,-10e-4 0.455,-0.003 L 507.608,673 h 137.07 z"
         id="path1" />
    </mask>
  </defs>
  <sodipodi:namedview
     id="namedview9"
     pagecolor="#ffffff"
     bordercolor="#000000"
     borderopacity="0.25"
     inkscape:showpageshadow="2"
     inkscape:pageopacity="0.0"
     inkscape:pagecheckerboard="0"
     inkscape:deskcolor="#d1d1d1"
     inkscape:zoom="8.0520833"
     inkscape:cx="15.461837"
     inkscape:cy="20.305304"
     inkscape:window-width="1920"
     inkscape:window-height="996"
     inkscape:window-x="0"
     inkscape:window-y="0"
     inkscape:window-maximized="1"
     inkscape:current-layer="svg9" />
  <circle
     cx="519.62"
     cy="530.62"
     r="76.6203"
     fill="#ffc701"
     fill-opacity="0.5"
     id="circle1"
     transform="matrix(0.14024268,0,0,0.14024268,-54.455314,-55.199499)"
     style="filter:url(#filter0_f_2_54)" />
  <circle
     cx="18.417587"
     cy="19.568365"
     r="10.252904"
     stroke-width="0.280485"
     id="circle2"
     style="fill:url(#linearGradient2)" />
  <path
     fill-rule="evenodd"
     clip-rule="evenodd"
     d="m 644.678,672.997 c 0.151,0.002 0.303,0.003 0.455,0.003 21.557,0 39.033,-17.476 39.033,-39.033 0,-21.558 -17.476,-39.034 -39.033,-39.034 -0.152,0 -0.304,10e-4 -0.455,0.003 v -0.003 h -10.083 c 0.364,-2.671 0.552,-5.398 0.552,-8.17 0,-33.088 -26.823,-59.911 -59.911,-59.911 -33.089,0 -59.912,26.823 -59.912,59.911 0,3.123 0.239,6.189 0.699,9.182 -2.849,-0.662 -5.818,-1.012 -8.868,-1.012 -21.558,0 -39.034,17.476 -39.034,39.034 0,21.557 17.476,39.033 39.034,39.033 0.152,0 0.303,-10e-4 0.455,-0.003 L 507.608,673 h 137.07 z"
     shape-rendering="crispEdges"
     id="path5"
     style="fill:url(#paint3_linear_2_54);filter:url(#filter2_d_2_54)"
     transform="matrix(0.14024268,0,0,0.14024268,-54.455314,-55.199499)" />
  <path
     d="m 644.678,672.997 0.022,-1.999 c -0.534,-0.007 -1.048,0.201 -1.428,0.577 -0.38,0.376 -0.594,0.888 -0.594,1.422 z m 0,-78.061 h -2 c 0,0.534 0.214,1.047 0.594,1.422 0.38,0.376 0.894,0.584 1.429,0.578 z m 0,-0.003 h 2 c 0,-1.104 -0.896,-2 -2,-2 z m -10.083,0 -1.982,-0.27 c -0.078,0.573 0.095,1.151 0.475,1.586 0.38,0.435 0.929,0.684 1.507,0.684 z m -118.572,1.012 -0.452,1.949 c 0.646,0.15 1.325,-0.031 1.812,-0.482 0.487,-0.451 0.718,-1.115 0.617,-1.771 z m -8.413,77.052 1.569,1.24 c 0.478,-0.605 0.566,-1.43 0.226,-2.122 -0.34,-0.691 -1.047,-1.126 -1.818,-1.117 z m -0.002,0.003 -1.57,-1.24 c -0.475,0.602 -0.564,1.422 -0.23,2.112 0.334,0.69 1.033,1.128 1.8,1.128 z m 137.07,0 v 2 c 1.104,0 2,-0.895 2,-2 z m -0.023,1.997 c 0.159,0.002 0.318,0.003 0.478,0.003 v -4 c -0.145,0 -0.289,-10e-4 -0.433,-0.002 z m 0.478,0.003 c 22.662,0 41.033,-18.371 41.033,-41.033 h -4 c 0,20.453 -16.58,37.033 -37.033,37.033 z m 41.033,-41.033 c 0,-22.662 -18.371,-41.034 -41.033,-41.034 v 4 c 20.453,0 37.033,16.581 37.033,37.034 z m -41.033,-41.034 c -0.16,0 -0.319,10e-4 -0.478,0.003 l 0.046,4 c 0.143,-0.002 0.287,-0.003 0.432,-0.003 z m -2.455,2 v 0.003 h 4 v -0.003 z m -8.083,2 h 10.083 v -4 h -10.083 z m 1.981,-1.729 c 0.377,-2.761 0.571,-5.579 0.571,-8.441 h -4 c 0,2.681 -0.182,5.318 -0.534,7.9 z m 0.571,-8.441 c 0,-34.192 -27.719,-61.911 -61.911,-61.911 v 4 c 31.983,0 57.911,25.928 57.911,57.911 z m -61.911,-61.911 c -34.193,0 -61.912,27.719 -61.912,61.911 h 4 c 0,-31.983 25.928,-57.911 57.912,-57.911 z m -61.912,61.911 c 0,3.225 0.247,6.393 0.723,9.486 L 518,595.641 c -0.445,-2.893 -0.676,-5.858 -0.676,-8.878 z m 3.152,7.234 c -2.997,-0.696 -6.117,-1.064 -9.321,-1.064 v 4 c 2.897,0 5.714,0.333 8.416,0.961 z m -9.321,-1.064 c -22.662,0 -41.034,18.372 -41.034,41.034 h 4 c 0,-20.453 16.581,-37.034 37.034,-37.034 z m -41.034,41.034 c 0,22.662 18.372,41.033 41.034,41.033 v -4 c -20.453,0 -37.034,-16.58 -37.034,-37.033 z M 507.155,675 c 0.159,0 0.318,-10e-4 0.478,-0.003 l -0.046,-3.999 c -0.144,10e-4 -0.288,0.002 -0.432,0.002 z m 2.022,-0.76 0.002,-0.003 -3.139,-2.479 -0.002,0.002 z M 644.678,671 h -137.07 v 4 h 137.07 z m -2,1.997 V 673 h 4 v -0.003 z"
     id="path6"
     style="fill:url(#paint4_linear_2_54);filter:url(#filter2_d_2_54)"
     transform="matrix(0.14024268,0,0,0.14024268,-54.455314,-55.199499)" />
  <path
     id="path1-9"
     d="m 25.889094,34.913357 h 12.896164 c 0.359381,0 0.644811,0.28887 0.644811,0.644811 0,0.355927 -0.28543,0.64481 -0.644811,0.64481 H 25.889094 c -0.355938,0 -0.644811,-0.288883 -0.644811,-0.64481 0,-0.355941 0.288873,-0.644811 0.644811,-0.644811 z"
     style="fill:#3daee9;fill-opacity:1;fill-rule:nonzero;stroke:none;stroke-width:0.859741" />
  <path
     id="path2-5"
     d="m 39.44985,31.047944 c -0.345622,-0.0032 -0.687804,0.06359 -1.006762,0.197738 -0.964638,0.399785 -1.592251,1.340342 -1.592251,2.381494 h 1.299937 c -0.0032,-0.51757 0.308642,-0.987844 0.789242,-1.185584 0.479738,-0.197748 1.030837,-0.08768 1.397086,0.278555 0.36883,0.366246 0.476301,0.920787 0.278562,1.397083 -0.198604,0.480599 -0.665445,0.792684 -1.185595,0.792684 v 1.296494 c 1.044595,0 1.985153,-0.628471 2.384074,-1.59224 0.399783,-0.96378 0.177969,-2.07199 -0.560553,-2.810512 -0.477159,-0.480599 -1.125401,-0.748838 -1.80374,-0.755712 z"
     style="fill:#3daee9;fill-opacity:1;fill-rule:nonzero;stroke:none;stroke-width:0.859741" />
  <path
     id="path3-3"
     d="m 36.850837,39.437326 c 0.0032,-0.34303 -0.0636,-0.685212 -0.195161,-1.004181 -0.398922,-0.963769 -1.339486,-1.592241 -2.384074,-1.592241 v 1.296495 c 0.520151,0 0.986991,0.312086 1.185585,0.792684 0.197749,0.477159 0.0868,1.030837 -0.278555,1.397082 -0.366246,0.366257 -0.917345,0.47716 -1.397083,0.278566 -0.480598,-0.19775 -0.792683,-0.668023 -0.792683,-1.185595 h -1.296494 c 0,1.041155 0.62761,1.981712 1.59224,2.381495 0.963778,0.399783 2.071989,0.181403 2.810511,-0.557975 0.4806,-0.479737 0.752272,-1.127988 0.755714,-1.80633 z"
     style="fill:#3daee9;fill-opacity:1;fill-rule:nonzero;stroke:none;stroke-width:0.859741" />
  <path
     id="path4-5"
     d="m 34.291373,29.110079 c -0.345613,-0.0032 -0.687794,0.06359 -1.006761,0.197739 -0.96463,0.396341 -1.59224,1.336905 -1.59224,2.381495 h 1.299927 c -0.0032,-0.517571 0.308652,-0.986993 0.78925,-1.185584 0.479738,-0.19775 1.030837,-0.0868 1.397083,0.278555 0.368835,0.366246 0.476304,0.920788 0.278555,1.397082 -0.198594,0.480599 -0.665434,0.792683 -1.185585,0.792683 v 1.296496 c 1.044588,0 1.985152,-0.627611 2.384074,-1.592242 0.399784,-0.963778 0.17797,-2.07199 -0.560553,-2.810512 -0.477159,-0.480598 -1.12541,-0.748838 -1.80375,-0.755712 z"
     style="fill:#3daee9;fill-opacity:1;fill-rule:nonzero;stroke:none;stroke-width:0.859741" />
  <path
     id="path5-6"
     d="m 38.785258,34.909914 h 0.644811 v 1.289622 h -0.644811 z"
     style="fill:#3daee9;fill-opacity:1;fill-rule:nonzero;stroke:none;stroke-width:0.859741" />
  <path
     id="path6-2"
     d="m 27.823518,32.97549 h 4.513665 c 0.35937,0 0.644801,0.288873 0.644801,0.644811 0,0.355931 -0.285431,0.644801 -0.644801,0.644801 h -4.513665 c -0.355932,0 -0.644812,-0.28887 -0.644812,-0.644801 0,-0.355938 0.28888,-0.644811 0.644812,-0.644811 z"
     style="fill:#3daee9;fill-opacity:1;fill-rule:nonzero;stroke:none;stroke-width:0.859741" />
  <path
     id="path7-9"
     d="m 32.337183,32.97549 h 1.934419 v 1.289612 h -1.934419 z"
     style="fill:#3daee9;fill-opacity:1;fill-rule:nonzero;stroke:none;stroke-width:0.859741" />
  <path
     id="path8-1"
     d="m 27.178706,36.844347 h 5.803278 c 0.35938,0 0.644807,0.28887 0.644807,0.644801 0,0.355938 -0.285427,0.644809 -0.644807,0.644809 h -5.803278 c -0.355931,0 -0.644801,-0.288871 -0.644801,-0.644809 0,-0.355931 0.28887,-0.644801 0.644801,-0.644801 z"
     style="fill:#3daee9;fill-opacity:1;fill-rule:nonzero;stroke:none;stroke-width:0.859741" />
  <path
     id="path9-2"
     d="m 32.981984,36.844347 h 1.289618 v 1.28961 h -1.289618 z"
     style="fill:#3daee9;fill-opacity:1;fill-rule:nonzero;stroke:none;stroke-width:0.859741" />
  <path
     id="path10-7"
     d="m 34.281919,29.758323 c -0.171947,0 -0.343032,0.03352 -0.50037,0.09712 -0.480598,0.198602 -0.792683,0.668882 -0.792683,1.185586 h -1.208804 c -0.0073,0.02669 -0.01374,0.0507 -0.02063,0.07736 -0.0105,0.0507 -0.02321,0.104061 -0.03352,0.154751 -0.0032,0.03352 -0.0073,0.06705 -0.0105,0.100573 -0.0056,0.0499 -0.0129,0.100574 -0.01638,0.151313 -0.0032,0.05328 -0.0073,0.107428 -0.0073,0.16077 h 1.296496 c 0,-0.04035 0.0032,-0.08085 0.0073,-0.121215 0.04297,-0.47286 0.345618,-0.88296 0.785808,-1.064366 0.476295,-0.197741 1.030834,-0.0868 1.397083,0.278559 0.160773,0.161632 0.27512,0.362813 0.331863,0.584628 0.114324,-0.440193 -0.0097,-0.907034 -0.331918,-1.229438 -0.239009,-0.238149 -0.561414,-0.372268 -0.896715,-0.375709 z m 2.545706,1.605148 c -0.02748,0.228687 -0.08768,0.453082 -0.174528,0.665442 -0.396343,0.963768 -1.336907,1.591388 -2.381495,1.591388 h -7.092896 c 0,0 0,0.0032 0,0.0032 0,0.349056 0.278565,0.631051 0.625039,0.641369 h 6.467857 c 1.044588,0 1.985152,-0.627613 2.381495,-1.591388 0.167653,-0.399783 0.227835,-0.833091 0.180549,-1.262964 0,0 0,-0.0032 0,-0.0032 -0.0024,-0.01374 -0.0024,-0.02669 -0.0056,-0.04384 z m 2.612761,0.332715 c -0.171948,0 -0.343033,0.03352 -0.50037,0.09712 -0.4806,0.198608 -0.792684,0.668027 -0.792684,1.185592 H 36.93853 c -0.0073,0.02669 -0.01374,0.0507 -0.02063,0.07736 -0.0105,0.0499 -0.02321,0.104061 -0.03352,0.154751 -0.0032,0.03352 -0.0073,0.06705 -0.0105,0.100573 -0.0056,0.0499 -0.0129,0.100573 -0.01638,0.150455 -0.0032,0.05415 -0.0073,0.108335 -0.0073,0.16163 h 1.296495 c 0,-0.04035 0.0032,-0.08085 0.0073,-0.121215 0.04294,-0.472862 0.345618,-0.882962 0.785805,-1.064363 0.4763,-0.197743 1.030835,-0.0868 1.397086,0.278555 0.160774,0.161632 0.275119,0.362813 0.331861,0.584628 0.114372,-0.44019 -0.0097,-0.907032 -0.331863,-1.229439 -0.239007,-0.238148 -0.561413,-0.372267 -0.896714,-0.37571 z m 2.545706,1.605147 c -0.02746,0.22869 -0.08768,0.453084 -0.174528,0.664581 -0.396342,0.964633 -1.3369,1.592254 -2.381495,1.592254 v -0.0032 H 25.244283 c 0,0.0032 0,0.0032 0,0.0073 0,0.345616 0.26824,0.618156 0.607841,0.637929 h 8.419478 v -0.0073 c 0.06705,0 0.134119,0 0.201183,0.0073 h 4.957284 v 0.0032 c 1.044595,0 1.985153,-0.627615 2.384074,-1.592247 0.165073,-0.398924 0.225256,-0.832234 0.177969,-1.262111 0,0 0,-0.0032 0,-0.0032 -0.0024,-0.01374 -0.0024,-0.02669 -0.0056,-0.04384 z m -15.452187,4.187815 c 0,0 0,0.0032 0,0.0032 0,0.349056 0.278555,0.631052 0.625028,0.641368 h 7.112669 c 0.517571,0 0.986991,0.312089 1.185585,0.789247 0.01973,0.05673 0.04039,0.114372 0.05328,0.171088 0.07053,-0.271679 0.05415,-0.557113 -0.05328,-0.815897 -0.198594,-0.477156 -0.668014,-0.789245 -1.185585,-0.789245 z m 10.29372,1.615463 c -0.07391,0.563996 -0.329286,1.08844 -0.732502,1.490795 -0.738522,0.735942 -1.846733,0.957758 -2.810511,0.557981 -0.746261,-0.309514 -1.299927,-0.950882 -1.50455,-1.729808 h -0.08768 c 0.0032,1.041152 0.631052,1.978269 1.592241,2.374609 0.963777,0.399787 2.071989,0.177971 2.81051,-0.557974 0.306065,-0.305207 0.530458,-0.685214 0.651687,-1.097891 0.02321,-0.08085 0.04384,-0.16077 0.06022,-0.245028 0,0 0,-0.0032 0,-0.0073 0.01374,-0.08085 0.02669,-0.164209 0.03352,-0.245027 0.0073,-0.06705 0.0105,-0.134119 0.0105,-0.20118 0,-0.08768 -0.0032,-0.175392 -0.01374,-0.258786 -0.0032,-0.02669 -0.0056,-0.05415 -0.0097,-0.08085 z"
     style="fill:#000000;fill-opacity:0.22745;fill-rule:nonzero;stroke:none;stroke-width:0.859741" />
</svg>
