<?xml version="1.0" encoding="UTF-8" standalone="no"?>
<svg
   width="64"
   height="64"
   version="1.1"
   id="svg73"
   sodipodi:docname="converseen.svg"
   inkscape:version="1.3.2 (091e20ef0f, 2023-11-25)"
   xmlns:inkscape="http://www.inkscape.org/namespaces/inkscape"
   xmlns:sodipodi="http://sodipodi.sourceforge.net/DTD/sodipodi-0.dtd"
   xmlns:xlink="http://www.w3.org/1999/xlink"
   xmlns="http://www.w3.org/2000/svg"
   xmlns:svg="http://www.w3.org/2000/svg"
   xmlns:rdf="http://www.w3.org/1999/02/22-rdf-syntax-ns#"
   xmlns:cc="http://creativecommons.org/ns#"
   xmlns:dc="http://purl.org/dc/elements/1.1/">
  <metadata
     id="metadata77">
    <rdf:RDF>
      <cc:Work
         rdf:about="">
        <dc:format>image/svg+xml</dc:format>
        <dc:type
           rdf:resource="http://purl.org/dc/dcmitype/StillImage" />
      </cc:Work>
    </rdf:RDF>
  </metadata>
  <sodipodi:namedview
     pagecolor="#f5f7fa"
     bordercolor="#666666"
     borderopacity="1"
     objecttolerance="10"
     gridtolerance="10"
     guidetolerance="10"
     inkscape:pageopacity="0"
     inkscape:pageshadow="2"
     inkscape:window-width="1377"
     inkscape:window-height="886"
     id="namedview75"
     showgrid="false"
     inkscape:zoom="6.2890624"
     inkscape:cx="34.345342"
     inkscape:cy="27.269566"
     inkscape:window-x="202"
     inkscape:window-y="90"
     inkscape:window-maximized="0"
     inkscape:current-layer="g877"
     inkscape:document-rotation="0"
     inkscape:pagecheckerboard="0"
     inkscape:showpageshadow="2"
     inkscape:deskcolor="#d1d1d1" />
  <defs
     id="defs29">
    <linearGradient
       id="linearGradient5"
       inkscape:collect="always">
      <stop
         style="stop-color:#984859;stop-opacity:1;"
         offset="0"
         id="stop5" />
      <stop
         style="stop-color:#bf7384;stop-opacity:1;"
         offset="1"
         id="stop6" />
    </linearGradient>
    <inkscape:path-effect
       effect="powerclip"
       id="path-effect1980"
       is_visible="true"
       lpeversion="1"
       inverse="true"
       flatten="false"
       hide_clip="false"
       message="Use fill-rule evenodd on &lt;b&gt;fill and stroke&lt;/b&gt; dialog if no flatten result after convert clip to paths." />
    <clipPath
       clipPathUnits="userSpaceOnUse"
       id="clipPath1976">
      <rect
         x="9.6784649"
         y="9.925169"
         width="43.343258"
         height="44.613056"
         rx="8.6689987"
         ry="8.9229689"
         fill="url(#linearGradient862)"
         stroke-width="2.96772"
         id="rect1978"
         style="display:none;fill:#333333;fill-opacity:1"
         d="m 18.347464,9.925169 h 26.00526 c 4.802625,0 8.668999,3.979644 8.668999,8.922969 v 26.767118 c 0,4.943325 -3.866374,8.922969 -8.668999,8.922969 h -26.00526 c -4.802626,0 -8.6689991,-3.979644 -8.6689991,-8.922969 V 18.848138 c 0,-4.943325 3.8663731,-8.922969 8.6689991,-8.922969 z" />
      <path
         id="lpe_path-effect1980"
         style="fill:#333333;fill-opacity:1"
         class="powerclip"
         d="M 2.0757722,2.2464043 H 60.623896 V 62.216811 H 2.0757722 Z M 18.347464,9.925169 c -4.802626,0 -8.6689991,3.979644 -8.6689991,8.922969 v 26.767118 c 0,4.943325 3.8663731,8.922969 8.6689991,8.922969 h 26.00526 c 4.802625,0 8.668999,-3.979644 8.668999,-8.922969 V 18.848138 c 0,-4.943325 -3.866374,-8.922969 -8.668999,-8.922969 z" />
    </clipPath>
    <linearGradient
       inkscape:collect="always"
       xlink:href="#linearGradient5"
       id="linearGradient6"
       x1="33.785751"
       y1="12.971354"
       x2="33.375801"
       y2="52.289253"
       gradientUnits="userSpaceOnUse"
       gradientTransform="matrix(1.1,0,0,1.1,-3.1845928,-3.2341119)" />
    <clipPath
       clipPathUnits="userSpaceOnUse"
       id="clipath_lpe_path-effect1303-2">
      <path
         style="color:#000000;display:block;opacity:0.85;fill:#f5f7fa;-inkscape-stroke:none"
         d="m 24.149464,39.847234 c 1.129182,1.129183 1.129024,2.947446 -3.54e-4,4.076824 L 11.920405,56.152763 c -1.129378,1.129378 -2.9476414,1.129536 -4.0768237,3.54e-4 -1.1291824,-1.129183 -1.1290247,-2.947446 3.535e-4,-4.076825 L 20.072639,39.847588 c 1.129379,-1.129378 2.947642,-1.129536 4.076825,-3.54e-4 z"
         id="path20" />
    </clipPath>
    <inkscape:path-effect
       effect="powerclip"
       id="path-effect1303-2"
       is_visible="true"
       lpeversion="1"
       inverse="true"
       flatten="false"
       hide_clip="false"
       message="Use fill-rule evenodd on &lt;b&gt;fill and stroke&lt;/b&gt; dialog if no flatten result after convert clip to paths." />
    <clipPath
       clipPathUnits="userSpaceOnUse"
       id="clipath_lpe_path-effect1303-2-2">
      <path
         style="color:#000000;display:none;opacity:0.85;fill:#f5f7fa;-inkscape-stroke:none"
         d="m 24.149464,39.847234 c 1.129182,1.129183 1.129024,2.947446 -3.54e-4,4.076824 L 11.920405,56.152763 c -1.129378,1.129378 -2.9476414,1.129536 -4.0768237,3.54e-4 -1.1291824,-1.129183 -1.1290247,-2.947446 3.535e-4,-4.076825 L 20.072639,39.847588 c 1.129379,-1.129378 2.947642,-1.129536 4.076825,-3.54e-4 z"
         id="path20-8" />
      <path
         id="lpe_path-effect1303-2-9"
         style="color:#000000;opacity:0.85;fill:#f5f7fa;-inkscape-stroke:none"
         class="powerclip"
         d="M -1.0000001,22.1348 H 41.714641 V 65 H -1.0000001 Z M 24.149464,39.847234 c -1.129183,-1.129182 -2.947446,-1.129024 -4.076825,3.54e-4 L 7.8439348,52.076292 c -1.1293782,1.129379 -1.1295359,2.947642 -3.535e-4,4.076825 1.1291823,1.129182 2.9474457,1.129024 4.0768237,-3.54e-4 L 24.14911,43.924058 c 1.129378,-1.129378 1.129536,-2.947641 3.54e-4,-4.076824 z" />
    </clipPath>
    <inkscape:path-effect
       effect="powerclip"
       id="path-effect1303-2-7"
       is_visible="true"
       lpeversion="1"
       inverse="true"
       flatten="false"
       hide_clip="false"
       message="Use fill-rule evenodd on &lt;b&gt;fill and stroke&lt;/b&gt; dialog if no flatten result after convert clip to paths." />
    <clipPath
       clipPathUnits="userSpaceOnUse"
       id="clipath_lpe_path-effect1303-2-7">
      <path
         style="color:#000000;display:block;opacity:0.85;fill:#f5f7fa;-inkscape-stroke:none"
         d="m 24.149464,39.847234 c 1.129182,1.129183 1.129024,2.947446 -3.54e-4,4.076824 L 11.920405,56.152763 c -1.129378,1.129378 -2.9476414,1.129536 -4.0768237,3.54e-4 -1.1291824,-1.129183 -1.1290247,-2.947446 3.535e-4,-4.076825 L 20.072639,39.847588 c 1.129379,-1.129378 2.947642,-1.129536 4.076825,-3.54e-4 z"
         id="path1" />
    </clipPath>
  </defs>
  <g
     id="g877"
     transform="matrix(1.1,0,0,1.1,-3.1845928,-3.2065454)">
    <path
       d="m 18.347203,7.2464043 c -6.244452,0 -11.2714308,5.1741617 -11.2714308,11.6016437 v 26.767119 c 0,6.427394 5.0268918,11.601644 11.2714308,11.601644 h 26.005262 c 6.244452,0 11.271431,-5.174161 11.271431,-11.601644 V 18.848048 c 0,-6.427393 -5.026893,-11.6016437 -11.271431,-11.6016437 z"
       fill="url(#linearGradient910)"
       stroke-width="3.32418"
       id="path33"
       style="fill:#4d4d4d;fill-opacity:1"
       clip-path="url(#clipPath1976)"
       inkscape:path-effect="#path-effect1980"
       inkscape:original-d="m 18.347203,7.2464043 c -6.244452,0 -11.2714308,5.1741617 -11.2714308,11.6016437 v 26.767119 c 0,6.427394 5.0268918,11.601644 11.2714308,11.601644 h 26.005262 c 6.244452,0 11.271431,-5.174161 11.271431,-11.601644 V 18.848048 c 0,-6.427393 -5.026893,-11.6016437 -11.271431,-11.6016437 z"
       transform="matrix(1.089,0,0,1.089,-2.2940414,-2.7591018)" />
    <rect
       x="8.245779"
       y="8.0493994"
       width="47.200809"
       height="48.583622"
       rx="9.511797"
       ry="9.6776171"
       fill="url(#linearGradient862)"
       stroke-width="3.23184"
       id="rect35-7"
       style="opacity:1;fill:#f9f9f9;fill-opacity:1" />
    <rect
       x="10.60582"
       y="10.47858"
       width="42.480732"
       height="43.725258"
       rx="9.0337515"
       ry="8.819849"
       fill="url(#linearGradient862)"
       stroke-width="2.90867"
       id="rect35-7-3"
       style="fill:url(#linearGradient6)" />
    <path
       style="fill:#000000;fill-opacity:1;stroke:none;stroke-width:1.089;stroke-dasharray:none;stroke-dashoffset:2.2;stroke-opacity:0.3;opacity:0.2"
       d="m 23.183185,49.494478 -1.532457,-1.938452 -1.469523,-4.71e-4 c -1.744314,-5.54e-4 -2.177684,-0.173924 -2.407002,-0.96294 -0.09792,-0.33687 -0.12719,-4.307819 -0.100639,-13.649612 l 0.03746,-13.174573 0.467224,-0.428153 0.467221,-0.428154 H 31.84973 c 14.49857,0 13.720608,-0.04112 14.127839,0.7464 0.166103,0.32123 0.189746,2.02609 0.189746,13.692445 v 13.325527 l -0.36495,0.408535 -0.364951,0.408487 -8.761524,0.03385 -8.761531,0.03385 -1.528038,1.936302 c -0.840419,1.064967 -1.560128,1.936157 -1.599354,1.935978 -0.0391,-1.78e-4 -0.760923,-0.87263 -1.603779,-1.938781 z m 1.102896,-6.570908 c 0.218147,-0.116753 0.241937,-0.27417 0.241937,-1.601056 0,-0.977781 -0.05037,-1.521939 -0.150111,-1.621672 -0.206993,-0.206998 -2.995118,-0.206998 -3.202109,0 -0.0989,0.09892 -0.150111,0.628985 -0.150111,1.554596 0,1.820126 -0.02141,1.797615 1.705772,1.797615 0.721961,0 1.421531,-0.05827 1.554601,-0.129466 z m 17.716157,-0.115616 c 0.92705,-0.565253 1.104956,-1.914129 0.359739,-2.727446 l -0.42811,-0.467221 -6.388691,-0.03458 c -5.614535,-0.03036 -6.434863,-0.01067 -6.769674,0.162426 -1.17134,0.605724 -1.158671,2.517133 0.02058,3.098052 0.376737,0.185585 1.094533,0.208452 6.61418,0.210554 5.923015,0.0023 6.208956,-0.0082 6.592031,-0.24179 z M 24.250024,34.853058 c 0.258936,-0.181356 0.277994,-0.290119 0.277994,-1.584954 0,-1.852202 0.0041,-1.847726 -1.729422,-1.847726 -1.780593,0 -1.772893,-0.008 -1.772893,1.825991 0,1.78087 0.02016,1.801403 1.751157,1.801403 0.879273,0 1.268641,-0.05147 1.473164,-0.194714 z m 17.596443,-0.0528 c 0.636445,-0.3081 0.964458,-0.843322 0.964458,-1.573731 0,-0.698136 -0.324111,-1.268139 -0.894472,-1.573115 -0.407896,-0.218095 -0.823157,-0.233036 -6.477042,-0.233036 -6.516295,0 -6.531251,0.0014 -7.145607,0.66775 -0.383364,0.415829 -0.498818,1.382931 -0.227656,1.907294 0.246384,0.476455 0.602308,0.79101 1.045222,0.923738 0.19658,0.05893 3.02736,0.111949 6.290622,0.117854 5.668342,0.01023 5.956023,-2.98e-4 6.444479,-0.236757 z M 24.377921,26.76731 c 0.206992,-0.206998 0.206992,-2.995117 0,-3.202111 -0.206994,-0.206998 -2.995119,-0.206998 -3.202111,0 -0.206994,0.206997 -0.206994,2.995114 0,3.202111 0.206992,0.206997 2.995117,0.206997 3.202111,0 z M 41.91085,26.73167 c 1.219663,-0.630714 1.219663,-2.500123 0,-3.130838 -0.549307,-0.284058 -12.591168,-0.276763 -13.14176,0.008 -1.11603,0.577121 -1.161294,2.40177 -0.07599,3.063512 0.382992,0.233519 0.672059,0.244185 6.629514,0.244634 5.264828,3.93e-4 6.28467,-0.02827 6.588241,-0.185271 z"
       id="path79-4" />
    <path
       style="fill:#f9f9f9;fill-opacity:1;stroke:none;stroke-width:1.089;stroke-dasharray:none;stroke-dashoffset:2.2;stroke-opacity:0.3"
       d="m 23.183185,47.676296 -1.532457,-1.938452 -1.469523,-4.71e-4 c -1.744314,-5.54e-4 -2.177684,-0.173924 -2.407002,-0.96294 -0.09792,-0.33687 -0.12719,-4.307819 -0.100639,-13.649612 l 0.03746,-13.174573 0.467224,-0.428153 0.467221,-0.428154 H 31.84973 c 14.49857,0 13.720608,-0.04112 14.127839,0.7464 0.166103,0.32123 0.189746,2.02609 0.189746,13.692445 v 13.325527 l -0.36495,0.408535 -0.364951,0.408487 -8.761524,0.03385 -8.761531,0.03385 -1.528038,1.936302 c -0.840419,1.064967 -1.560128,1.936157 -1.599354,1.935978 -0.0391,-1.78e-4 -0.760923,-0.87263 -1.603779,-1.938781 z m 1.102896,-6.570908 c 0.218147,-0.116753 0.241937,-0.27417 0.241937,-1.601056 0,-0.977781 -0.05037,-1.521939 -0.150111,-1.621672 -0.206993,-0.206998 -2.995118,-0.206998 -3.202109,0 -0.0989,0.09892 -0.150111,0.628985 -0.150111,1.554596 0,1.820126 -0.02141,1.797615 1.705772,1.797615 0.721961,0 1.421531,-0.05827 1.554601,-0.129466 z m 17.716157,-0.115616 c 0.92705,-0.565253 1.104956,-1.914129 0.359739,-2.727446 l -0.42811,-0.467221 -6.388691,-0.03458 c -5.614535,-0.03036 -6.434863,-0.01067 -6.769674,0.162426 -1.17134,0.605724 -1.158671,2.517133 0.02058,3.098052 0.376737,0.185585 1.094533,0.208452 6.61418,0.210554 5.923015,0.0023 6.208956,-0.0082 6.592031,-0.24179 z M 24.250024,33.034876 c 0.258936,-0.181356 0.277994,-0.290119 0.277994,-1.584954 0,-1.852202 0.0041,-1.847726 -1.729422,-1.847726 -1.780593,0 -1.772893,-0.008 -1.772893,1.825991 0,1.78087 0.02016,1.801403 1.751157,1.801403 0.879273,0 1.268641,-0.05147 1.473164,-0.194714 z m 17.596443,-0.0528 c 0.636445,-0.3081 0.964458,-0.843322 0.964458,-1.573731 0,-0.698136 -0.324111,-1.268139 -0.894472,-1.573115 -0.407896,-0.218095 -0.823157,-0.233036 -6.477042,-0.233036 -6.516295,0 -6.531251,0.0014 -7.145607,0.66775 -0.383364,0.415829 -0.498818,1.382931 -0.227656,1.907294 0.246384,0.476455 0.602308,0.79101 1.045222,0.923738 0.19658,0.05893 3.02736,0.111949 6.290622,0.117854 5.668342,0.01023 5.956023,-2.98e-4 6.444479,-0.236757 z M 24.377921,24.949128 c 0.206992,-0.206998 0.206992,-2.995117 0,-3.202111 -0.206994,-0.206998 -2.995119,-0.206998 -3.202111,0 -0.206994,0.206997 -0.206994,2.995114 0,3.202111 0.206992,0.206997 2.995117,0.206997 3.202111,0 z m 17.532929,-0.03564 c 1.219663,-0.630714 1.219663,-2.500123 0,-3.130838 -0.549307,-0.284058 -12.591168,-0.276763 -13.14176,0.008 -1.11603,0.577121 -1.161294,2.40177 -0.07599,3.063512 0.382992,0.233519 0.672059,0.244185 6.629514,0.244634 5.264828,3.93e-4 6.28467,-0.02827 6.588241,-0.185271 z"
       id="path79" />
    <g
       id="g13"
       transform="matrix(0.66272728,0,0,0.66272728,10.532357,10.799881)" />
    <path
       style="fill:#f5f7fa;stroke-width:0.204426;fill-opacity:1"
       d=""
       id="path3" />
  </g>
</svg>
