<?xml version="1.0" encoding="UTF-8" standalone="no"?>
<svg
   width="64"
   height="64"
   version="1.1"
   id="svg73"
   sodipodi:docname="preferences-plugin.svg"
   inkscape:version="1.3.2 (091e20ef0f, 2023-11-25)"
   xmlns:inkscape="http://www.inkscape.org/namespaces/inkscape"
   xmlns:sodipodi="http://sodipodi.sourceforge.net/DTD/sodipodi-0.dtd"
   xmlns:xlink="http://www.w3.org/1999/xlink"
   xmlns="http://www.w3.org/2000/svg"
   xmlns:svg="http://www.w3.org/2000/svg"
   xmlns:rdf="http://www.w3.org/1999/02/22-rdf-syntax-ns#"
   xmlns:cc="http://creativecommons.org/ns#"
   xmlns:dc="http://purl.org/dc/elements/1.1/">
  <metadata
     id="metadata77">
    <rdf:RDF>
      <cc:Work
         rdf:about="">
        <dc:format>image/svg+xml</dc:format>
        <dc:type
           rdf:resource="http://purl.org/dc/dcmitype/StillImage" />
      </cc:Work>
    </rdf:RDF>
  </metadata>
  <sodipodi:namedview
     pagecolor="#f5f7fa"
     bordercolor="#666666"
     borderopacity="1"
     objecttolerance="10"
     gridtolerance="10"
     guidetolerance="10"
     inkscape:pageopacity="0"
     inkscape:pageshadow="2"
     inkscape:window-width="1377"
     inkscape:window-height="886"
     id="namedview75"
     showgrid="false"
     inkscape:zoom="6.2890624"
     inkscape:cx="34.345342"
     inkscape:cy="27.269566"
     inkscape:window-x="391"
     inkscape:window-y="101"
     inkscape:window-maximized="0"
     inkscape:current-layer="g877"
     inkscape:document-rotation="0"
     inkscape:pagecheckerboard="0"
     inkscape:showpageshadow="2"
     inkscape:deskcolor="#d1d1d1" />
  <defs
     id="defs29">
    <linearGradient
       id="linearGradient5"
       inkscape:collect="always">
      <stop
         style="stop-color:#984859;stop-opacity:1;"
         offset="0"
         id="stop5" />
      <stop
         style="stop-color:#bf7384;stop-opacity:1;"
         offset="1"
         id="stop6" />
    </linearGradient>
    <inkscape:path-effect
       effect="powerclip"
       id="path-effect1980"
       is_visible="true"
       lpeversion="1"
       inverse="true"
       flatten="false"
       hide_clip="false"
       message="Use fill-rule evenodd on &lt;b&gt;fill and stroke&lt;/b&gt; dialog if no flatten result after convert clip to paths." />
    <clipPath
       clipPathUnits="userSpaceOnUse"
       id="clipPath1976">
      <rect
         x="9.6784649"
         y="9.925169"
         width="43.343258"
         height="44.613056"
         rx="8.6689987"
         ry="8.9229689"
         fill="url(#linearGradient862)"
         stroke-width="2.96772"
         id="rect1978"
         style="display:none;fill:#333333;fill-opacity:1"
         d="m 18.347464,9.925169 h 26.00526 c 4.802625,0 8.668999,3.979644 8.668999,8.922969 v 26.767118 c 0,4.943325 -3.866374,8.922969 -8.668999,8.922969 h -26.00526 c -4.802626,0 -8.6689991,-3.979644 -8.6689991,-8.922969 V 18.848138 c 0,-4.943325 3.8663731,-8.922969 8.6689991,-8.922969 z" />
      <path
         id="lpe_path-effect1980"
         style="fill:#333333;fill-opacity:1"
         class="powerclip"
         d="M 2.0757722,2.2464043 H 60.623896 V 62.216811 H 2.0757722 Z M 18.347464,9.925169 c -4.802626,0 -8.6689991,3.979644 -8.6689991,8.922969 v 26.767118 c 0,4.943325 3.8663731,8.922969 8.6689991,8.922969 h 26.00526 c 4.802625,0 8.668999,-3.979644 8.668999,-8.922969 V 18.848138 c 0,-4.943325 -3.866374,-8.922969 -8.668999,-8.922969 z" />
    </clipPath>
    <linearGradient
       inkscape:collect="always"
       xlink:href="#linearGradient5"
       id="linearGradient6"
       x1="33.785751"
       y1="12.971354"
       x2="33.375801"
       y2="52.289253"
       gradientUnits="userSpaceOnUse"
       gradientTransform="matrix(1.1,0,0,1.1,-3.1845928,-3.2341119)" />
    <clipPath
       clipPathUnits="userSpaceOnUse"
       id="clipath_lpe_path-effect1303-2">
      <path
         style="color:#000000;display:block;opacity:0.85;fill:#f5f7fa;-inkscape-stroke:none"
         d="m 24.149464,39.847234 c 1.129182,1.129183 1.129024,2.947446 -3.54e-4,4.076824 L 11.920405,56.152763 c -1.129378,1.129378 -2.9476414,1.129536 -4.0768237,3.54e-4 -1.1291824,-1.129183 -1.1290247,-2.947446 3.535e-4,-4.076825 L 20.072639,39.847588 c 1.129379,-1.129378 2.947642,-1.129536 4.076825,-3.54e-4 z"
         id="path20" />
    </clipPath>
    <inkscape:path-effect
       effect="powerclip"
       id="path-effect1303-2"
       is_visible="true"
       lpeversion="1"
       inverse="true"
       flatten="false"
       hide_clip="false"
       message="Use fill-rule evenodd on &lt;b&gt;fill and stroke&lt;/b&gt; dialog if no flatten result after convert clip to paths." />
    <clipPath
       clipPathUnits="userSpaceOnUse"
       id="clipath_lpe_path-effect1303-2-2">
      <path
         style="color:#000000;display:none;opacity:0.85;fill:#f5f7fa;-inkscape-stroke:none"
         d="m 24.149464,39.847234 c 1.129182,1.129183 1.129024,2.947446 -3.54e-4,4.076824 L 11.920405,56.152763 c -1.129378,1.129378 -2.9476414,1.129536 -4.0768237,3.54e-4 -1.1291824,-1.129183 -1.1290247,-2.947446 3.535e-4,-4.076825 L 20.072639,39.847588 c 1.129379,-1.129378 2.947642,-1.129536 4.076825,-3.54e-4 z"
         id="path20-8" />
      <path
         id="lpe_path-effect1303-2-9"
         style="color:#000000;opacity:0.85;fill:#f5f7fa;-inkscape-stroke:none"
         class="powerclip"
         d="M -1.0000001,22.1348 H 41.714641 V 65 H -1.0000001 Z M 24.149464,39.847234 c -1.129183,-1.129182 -2.947446,-1.129024 -4.076825,3.54e-4 L 7.8439348,52.076292 c -1.1293782,1.129379 -1.1295359,2.947642 -3.535e-4,4.076825 1.1291823,1.129182 2.9474457,1.129024 4.0768237,-3.54e-4 L 24.14911,43.924058 c 1.129378,-1.129378 1.129536,-2.947641 3.54e-4,-4.076824 z" />
    </clipPath>
    <inkscape:path-effect
       effect="powerclip"
       id="path-effect1303-2-7"
       is_visible="true"
       lpeversion="1"
       inverse="true"
       flatten="false"
       hide_clip="false"
       message="Use fill-rule evenodd on &lt;b&gt;fill and stroke&lt;/b&gt; dialog if no flatten result after convert clip to paths." />
    <clipPath
       clipPathUnits="userSpaceOnUse"
       id="clipath_lpe_path-effect1303-2-7">
      <path
         style="color:#000000;display:block;opacity:0.85;fill:#f5f7fa;-inkscape-stroke:none"
         d="m 24.149464,39.847234 c 1.129182,1.129183 1.129024,2.947446 -3.54e-4,4.076824 L 11.920405,56.152763 c -1.129378,1.129378 -2.9476414,1.129536 -4.0768237,3.54e-4 -1.1291824,-1.129183 -1.1290247,-2.947446 3.535e-4,-4.076825 L 20.072639,39.847588 c 1.129379,-1.129378 2.947642,-1.129536 4.076825,-3.54e-4 z"
         id="path1" />
    </clipPath>
    <clipPath
       clipPathUnits="userSpaceOnUse"
       id="clipath_lpe_path-effect15400-0">
      <path
         id="path2"
         style="display:block;opacity:1;fill:#f5f7fa;stroke-width:1.21"
         d="m 50.372929,27.606287 a 6.655,6.655 0 0 1 -6.655,6.655 6.655,6.655 0 0 1 -6.655,-6.655 6.655,6.655 0 0 1 6.655,-6.655 6.655,6.655 0 0 1 6.655,6.655 z m -14,8 a 6.655,6.655 0 0 1 -6.655,6.655 6.655,6.655 0 0 1 -6.655,-6.655 6.655,6.655 0 0 1 6.655,-6.655 6.655,6.655 0 0 1 6.655,6.655 z m -14,-11 a 6.655,6.655 0 0 1 -6.655,6.655 6.655,6.655 0 0 1 -6.655,-6.655 6.655,6.655 0 0 1 6.655,-6.655 6.655,6.655 0 0 1 6.655,6.655 z" />
    </clipPath>
    <inkscape:path-effect
       effect="powerclip"
       id="path-effect15400-0"
       is_visible="true"
       lpeversion="1"
       inverse="true"
       flatten="false"
       hide_clip="false"
       message="Use fill-rule evenodd on &lt;b&gt;fill and stroke&lt;/b&gt; dialog if no flatten result after convert clip to paths." />
    <clipPath
       clipPathUnits="userSpaceOnUse"
       id="clipath_lpe_path-effect15400-0-6">
      <path
         id="path2-5"
         style="display:none;opacity:1;fill:#f5f7fa;stroke-width:1.21"
         d="m 50.372929,27.606287 a 6.655,6.655 0 0 1 -6.655,6.655 6.655,6.655 0 0 1 -6.655,-6.655 6.655,6.655 0 0 1 6.655,-6.655 6.655,6.655 0 0 1 6.655,6.655 z m -14,8 a 6.655,6.655 0 0 1 -6.655,6.655 6.655,6.655 0 0 1 -6.655,-6.655 6.655,6.655 0 0 1 6.655,-6.655 6.655,6.655 0 0 1 6.655,6.655 z m -14,-11 a 6.655,6.655 0 0 1 -6.655,6.655 6.655,6.655 0 0 1 -6.655,-6.655 6.655,6.655 0 0 1 6.655,-6.655 6.655,6.655 0 0 1 6.655,6.655 z" />
      <path
         id="lpe_path-effect15400-0-6"
         style="opacity:1;fill:#f5f7fa;stroke-width:1.21"
         class="powerclip"
         d="m 8.217929,9.106287 h 43 v 43 h -43 z m 42.155,18.5 a 6.655,6.655 0 0 0 -6.655,-6.655 6.655,6.655 0 0 0 -6.655,6.655 6.655,6.655 0 0 0 6.655,6.655 6.655,6.655 0 0 0 6.655,-6.655 z m -14,8 a 6.655,6.655 0 0 0 -6.655,-6.655 6.655,6.655 0 0 0 -6.655,6.655 6.655,6.655 0 0 0 6.655,6.655 6.655,6.655 0 0 0 6.655,-6.655 z m -14,-11 a 6.655,6.655 0 0 0 -6.655,-6.655 6.655,6.655 0 0 0 -6.655,6.655 6.655,6.655 0 0 0 6.655,6.655 6.655,6.655 0 0 0 6.655,-6.655 z" />
    </clipPath>
    <inkscape:path-effect
       effect="powerclip"
       id="path-effect15400-0-9"
       is_visible="true"
       lpeversion="1"
       inverse="true"
       flatten="false"
       hide_clip="false"
       message="Use fill-rule evenodd on &lt;b&gt;fill and stroke&lt;/b&gt; dialog if no flatten result after convert clip to paths." />
    <clipPath
       clipPathUnits="userSpaceOnUse"
       id="clipath_lpe_path-effect15400-0-9">
      <path
         id="path12"
         style="display:block;opacity:1;fill:#f5f7fa;stroke-width:1.21"
         d="m 50.372929,27.606287 a 6.655,6.655 0 0 1 -6.655,6.655 6.655,6.655 0 0 1 -6.655,-6.655 6.655,6.655 0 0 1 6.655,-6.655 6.655,6.655 0 0 1 6.655,6.655 z m -14,8 a 6.655,6.655 0 0 1 -6.655,6.655 6.655,6.655 0 0 1 -6.655,-6.655 6.655,6.655 0 0 1 6.655,-6.655 6.655,6.655 0 0 1 6.655,6.655 z m -14,-11 a 6.655,6.655 0 0 1 -6.655,6.655 6.655,6.655 0 0 1 -6.655,-6.655 6.655,6.655 0 0 1 6.655,-6.655 6.655,6.655 0 0 1 6.655,6.655 z" />
    </clipPath>
  </defs>
  <g
     id="g877"
     transform="matrix(1.1,0,0,1.1,-3.1845928,-3.2065454)">
    <path
       d="m 18.347203,7.2464043 c -6.244452,0 -11.2714308,5.1741617 -11.2714308,11.6016437 v 26.767119 c 0,6.427394 5.0268918,11.601644 11.2714308,11.601644 h 26.005262 c 6.244452,0 11.271431,-5.174161 11.271431,-11.601644 V 18.848048 c 0,-6.427393 -5.026893,-11.6016437 -11.271431,-11.6016437 z"
       fill="url(#linearGradient910)"
       stroke-width="3.32418"
       id="path33"
       style="fill:#4d4d4d;fill-opacity:1"
       clip-path="url(#clipPath1976)"
       inkscape:path-effect="#path-effect1980"
       inkscape:original-d="m 18.347203,7.2464043 c -6.244452,0 -11.2714308,5.1741617 -11.2714308,11.6016437 v 26.767119 c 0,6.427394 5.0268918,11.601644 11.2714308,11.601644 h 26.005262 c 6.244452,0 11.271431,-5.174161 11.271431,-11.601644 V 18.848048 c 0,-6.427393 -5.026893,-11.6016437 -11.271431,-11.6016437 z"
       transform="matrix(1.089,0,0,1.089,-2.2940414,-2.7591018)" />
    <rect
       x="8.245779"
       y="8.0493994"
       width="47.200809"
       height="48.583622"
       rx="9.511797"
       ry="9.6776171"
       fill="url(#linearGradient862)"
       stroke-width="3.23184"
       id="rect35-7"
       style="opacity:1;fill:#f9f9f9;fill-opacity:1" />
    <rect
       x="10.60582"
       y="10.47858"
       width="42.480732"
       height="43.725258"
       rx="9.0337515"
       ry="8.819849"
       fill="url(#linearGradient862)"
       stroke-width="2.90867"
       id="rect35-7-3"
       style="fill:url(#linearGradient6)" />
    <path
       style="fill:#000000;stroke-width:0.178681;opacity:0.2"
       d="m 18.830949,47.951327 c -0.139279,-0.260221 -0.04794,-1.033865 0.361874,-3.065121 l 0.548166,-2.71705 -0.79392,-0.821172 C 16.589788,38.909795 15.527426,36.728325 15.311811,33.883294 14.866,28.000687 19.622888,22.616196 26.995714,20.657876 c 1.558555,-0.413972 2.093982,-0.465483 4.963269,-0.477494 2.76207,-0.01162 3.43929,0.04269 4.795759,0.38421 5.670246,1.427582 9.977144,4.865385 11.509026,9.186592 2.013695,5.680373 -1.388497,11.966161 -8.025412,14.827488 -2.756519,1.188401 -3.96745,1.435239 -7.509585,1.530748 -2.758148,0.07438 -3.401835,0.03576 -5.048796,-0.30134 l -1.887617,-0.386571 -3.037118,1.438962 c -1.670413,0.791428 -3.194818,1.438961 -3.387563,1.438961 -0.192745,0 -0.434274,-0.156615 -0.536728,-0.348071 z m 13.440723,-7.684318 c 0.968526,-1.083878 0.522906,-2.771777 -0.851528,-3.225381 -2.195884,-0.724706 -3.616955,2.353579 -1.654451,3.58383 0.828626,0.519449 1.852356,0.373015 2.505979,-0.358466 z m 5.495146,-6.530769 2.765943,-2.77027 -2.810322,-2.810322 -2.810322,-2.810322 -1.07454,1.063324 c -0.590993,0.584828 -1.074534,1.144656 -1.074534,1.244062 0,0.09942 0.701876,0.885882 1.559727,1.747725 l 1.559727,1.566987 -1.559727,1.566987 c -0.857851,0.861842 -1.559727,1.64347 -1.559727,1.736951 0,0.177274 1.970943,2.235148 2.14073,2.235148 0.05343,0 1.341772,-1.246621 2.863045,-2.77027 z m -10.29894,0.0771 c 0.379835,-0.298786 0.470794,-0.520653 0.470794,-1.148453 0,-0.627798 -0.09097,-0.849667 -0.470794,-1.148452 -1.490088,-1.172103 -3.333112,0.834212 -2.03532,2.215648 0.52821,0.562251 1.380568,0.59628 2.03532,0.08126 z m 2.221865,-6.633934 c 0.117951,-0.117926 0.214404,-0.463675 0.214404,-0.768326 0,-0.7014 -0.281341,-0.98274 -0.98274,-0.98274 -0.701401,0 -0.982743,0.281342 -0.982743,0.98274 0,0.701401 0.281342,0.982742 0.982743,0.982742 0.304666,0 0.650398,-0.09649 0.768327,-0.214418 z"
       id="path3-6-7" />
    <path
       style="fill:#f9f9f9;stroke-width:0.178681"
       d="m 18.830949,46.133145 c -0.139279,-0.260221 -0.04794,-1.033865 0.361874,-3.065121 l 0.548166,-2.71705 -0.79392,-0.821172 C 16.589788,37.091613 15.527426,34.910143 15.311811,32.065112 14.866,26.182505 19.622888,20.798014 26.995714,18.839694 c 1.558555,-0.413972 2.093982,-0.465483 4.963269,-0.477494 2.76207,-0.01162 3.43929,0.04269 4.795759,0.38421 5.670246,1.427582 9.977144,4.865385 11.509026,9.186592 2.013695,5.680373 -1.388497,11.966161 -8.025412,14.827488 -2.756519,1.188401 -3.96745,1.435239 -7.509585,1.530748 -2.758148,0.07438 -3.401835,0.03576 -5.048796,-0.30134 l -1.887617,-0.386571 -3.037118,1.438962 c -1.670413,0.791428 -3.194818,1.438961 -3.387563,1.438961 -0.192745,0 -0.434274,-0.156615 -0.536728,-0.348071 z m 13.440723,-7.684318 c 0.968526,-1.083878 0.522906,-2.771777 -0.851528,-3.225381 -2.195884,-0.724706 -3.616955,2.353579 -1.654451,3.58383 0.828626,0.519449 1.852356,0.373015 2.505979,-0.358466 z m 5.495146,-6.530769 2.765943,-2.77027 -2.810322,-2.810322 -2.810322,-2.810322 -1.07454,1.063324 c -0.590993,0.584828 -1.074534,1.144656 -1.074534,1.244062 0,0.09942 0.701876,0.885882 1.559727,1.747725 l 1.559727,1.566987 -1.559727,1.566987 c -0.857851,0.861842 -1.559727,1.64347 -1.559727,1.736951 0,0.177274 1.970943,2.235148 2.14073,2.235148 0.05343,0 1.341772,-1.246621 2.863045,-2.77027 z m -10.29894,0.0771 c 0.379835,-0.298786 0.470794,-0.520653 0.470794,-1.148453 0,-0.627798 -0.09097,-0.849667 -0.470794,-1.148452 -1.490088,-1.172103 -3.333112,0.834212 -2.03532,2.215648 0.52821,0.562251 1.380568,0.59628 2.03532,0.08126 z m 2.221865,-6.633934 c 0.117951,-0.117926 0.214404,-0.463675 0.214404,-0.768326 0,-0.7014 -0.281341,-0.98274 -0.98274,-0.98274 -0.701401,0 -0.982743,0.281342 -0.982743,0.98274 0,0.701401 0.281342,0.982742 0.982743,0.982742 0.304666,0 0.650398,-0.09649 0.768327,-0.214418 z"
       id="path3-6" />
    <g
       id="g13"
       transform="matrix(0.66272728,0,0,0.66272728,10.532357,10.799881)" />
    <path
       style="fill:#f5f7fa;stroke-width:0.204426;fill-opacity:1"
       d=""
       id="path3" />
  </g>
</svg>
