<?xml version="1.0" encoding="UTF-8" standalone="no"?>
<svg
   width="64"
   height="64"
   version="1.1"
   id="svg73"
   sodipodi:docname="preferences-desktop-peripherals.svg"
   inkscape:version="1.3.2 (091e20ef0f, 2023-11-25)"
   xmlns:inkscape="http://www.inkscape.org/namespaces/inkscape"
   xmlns:sodipodi="http://sodipodi.sourceforge.net/DTD/sodipodi-0.dtd"
   xmlns:xlink="http://www.w3.org/1999/xlink"
   xmlns="http://www.w3.org/2000/svg"
   xmlns:svg="http://www.w3.org/2000/svg"
   xmlns:rdf="http://www.w3.org/1999/02/22-rdf-syntax-ns#"
   xmlns:cc="http://creativecommons.org/ns#"
   xmlns:dc="http://purl.org/dc/elements/1.1/">
  <metadata
     id="metadata77">
    <rdf:RDF>
      <cc:Work
         rdf:about="">
        <dc:format>image/svg+xml</dc:format>
        <dc:type
           rdf:resource="http://purl.org/dc/dcmitype/StillImage" />
      </cc:Work>
    </rdf:RDF>
  </metadata>
  <sodipodi:namedview
     pagecolor="#f5f7fa"
     bordercolor="#666666"
     borderopacity="1"
     objecttolerance="10"
     gridtolerance="10"
     guidetolerance="10"
     inkscape:pageopacity="0"
     inkscape:pageshadow="2"
     inkscape:window-width="1377"
     inkscape:window-height="886"
     id="namedview75"
     showgrid="false"
     inkscape:zoom="6.2890624"
     inkscape:cx="34.345342"
     inkscape:cy="27.269566"
     inkscape:window-x="140"
     inkscape:window-y="88"
     inkscape:window-maximized="0"
     inkscape:current-layer="g877"
     inkscape:document-rotation="0"
     inkscape:pagecheckerboard="0"
     inkscape:showpageshadow="2"
     inkscape:deskcolor="#d1d1d1" />
  <defs
     id="defs29">
    <linearGradient
       id="linearGradient5"
       inkscape:collect="always">
      <stop
         style="stop-color:#984859;stop-opacity:1;"
         offset="0"
         id="stop5" />
      <stop
         style="stop-color:#bf7384;stop-opacity:1;"
         offset="1"
         id="stop6" />
    </linearGradient>
    <inkscape:path-effect
       effect="powerclip"
       id="path-effect1980"
       is_visible="true"
       lpeversion="1"
       inverse="true"
       flatten="false"
       hide_clip="false"
       message="Use fill-rule evenodd on &lt;b&gt;fill and stroke&lt;/b&gt; dialog if no flatten result after convert clip to paths." />
    <clipPath
       clipPathUnits="userSpaceOnUse"
       id="clipPath1976">
      <rect
         x="9.6784649"
         y="9.925169"
         width="43.343258"
         height="44.613056"
         rx="8.6689987"
         ry="8.9229689"
         fill="url(#linearGradient862)"
         stroke-width="2.96772"
         id="rect1978"
         style="display:none;fill:#333333;fill-opacity:1"
         d="m 18.347464,9.925169 h 26.00526 c 4.802625,0 8.668999,3.979644 8.668999,8.922969 v 26.767118 c 0,4.943325 -3.866374,8.922969 -8.668999,8.922969 h -26.00526 c -4.802626,0 -8.6689991,-3.979644 -8.6689991,-8.922969 V 18.848138 c 0,-4.943325 3.8663731,-8.922969 8.6689991,-8.922969 z" />
      <path
         id="lpe_path-effect1980"
         style="fill:#333333;fill-opacity:1"
         class="powerclip"
         d="M 2.0757722,2.2464043 H 60.623896 V 62.216811 H 2.0757722 Z M 18.347464,9.925169 c -4.802626,0 -8.6689991,3.979644 -8.6689991,8.922969 v 26.767118 c 0,4.943325 3.8663731,8.922969 8.6689991,8.922969 h 26.00526 c 4.802625,0 8.668999,-3.979644 8.668999,-8.922969 V 18.848138 c 0,-4.943325 -3.866374,-8.922969 -8.668999,-8.922969 z" />
    </clipPath>
    <linearGradient
       inkscape:collect="always"
       xlink:href="#linearGradient5"
       id="linearGradient6"
       x1="33.785751"
       y1="12.971354"
       x2="33.375801"
       y2="52.289253"
       gradientUnits="userSpaceOnUse"
       gradientTransform="matrix(1.1,0,0,1.1,-3.1845928,-3.2341119)" />
    <clipPath
       clipPathUnits="userSpaceOnUse"
       id="clipath_lpe_path-effect1303-2">
      <path
         style="color:#000000;display:block;opacity:0.85;fill:#f5f7fa;-inkscape-stroke:none"
         d="m 24.149464,39.847234 c 1.129182,1.129183 1.129024,2.947446 -3.54e-4,4.076824 L 11.920405,56.152763 c -1.129378,1.129378 -2.9476414,1.129536 -4.0768237,3.54e-4 -1.1291824,-1.129183 -1.1290247,-2.947446 3.535e-4,-4.076825 L 20.072639,39.847588 c 1.129379,-1.129378 2.947642,-1.129536 4.076825,-3.54e-4 z"
         id="path20" />
    </clipPath>
    <inkscape:path-effect
       effect="powerclip"
       id="path-effect1303-2"
       is_visible="true"
       lpeversion="1"
       inverse="true"
       flatten="false"
       hide_clip="false"
       message="Use fill-rule evenodd on &lt;b&gt;fill and stroke&lt;/b&gt; dialog if no flatten result after convert clip to paths." />
    <clipPath
       clipPathUnits="userSpaceOnUse"
       id="clipath_lpe_path-effect1303-2-2">
      <path
         style="color:#000000;display:none;opacity:0.85;fill:#f5f7fa;-inkscape-stroke:none"
         d="m 24.149464,39.847234 c 1.129182,1.129183 1.129024,2.947446 -3.54e-4,4.076824 L 11.920405,56.152763 c -1.129378,1.129378 -2.9476414,1.129536 -4.0768237,3.54e-4 -1.1291824,-1.129183 -1.1290247,-2.947446 3.535e-4,-4.076825 L 20.072639,39.847588 c 1.129379,-1.129378 2.947642,-1.129536 4.076825,-3.54e-4 z"
         id="path20-8" />
      <path
         id="lpe_path-effect1303-2-9"
         style="color:#000000;opacity:0.85;fill:#f5f7fa;-inkscape-stroke:none"
         class="powerclip"
         d="M -1.0000001,22.1348 H 41.714641 V 65 H -1.0000001 Z M 24.149464,39.847234 c -1.129183,-1.129182 -2.947446,-1.129024 -4.076825,3.54e-4 L 7.8439348,52.076292 c -1.1293782,1.129379 -1.1295359,2.947642 -3.535e-4,4.076825 1.1291823,1.129182 2.9474457,1.129024 4.0768237,-3.54e-4 L 24.14911,43.924058 c 1.129378,-1.129378 1.129536,-2.947641 3.54e-4,-4.076824 z" />
    </clipPath>
    <inkscape:path-effect
       effect="powerclip"
       id="path-effect1303-2-7"
       is_visible="true"
       lpeversion="1"
       inverse="true"
       flatten="false"
       hide_clip="false"
       message="Use fill-rule evenodd on &lt;b&gt;fill and stroke&lt;/b&gt; dialog if no flatten result after convert clip to paths." />
    <clipPath
       clipPathUnits="userSpaceOnUse"
       id="clipath_lpe_path-effect1303-2-7">
      <path
         style="color:#000000;display:block;opacity:0.85;fill:#f5f7fa;-inkscape-stroke:none"
         d="m 24.149464,39.847234 c 1.129182,1.129183 1.129024,2.947446 -3.54e-4,4.076824 L 11.920405,56.152763 c -1.129378,1.129378 -2.9476414,1.129536 -4.0768237,3.54e-4 -1.1291824,-1.129183 -1.1290247,-2.947446 3.535e-4,-4.076825 L 20.072639,39.847588 c 1.129379,-1.129378 2.947642,-1.129536 4.076825,-3.54e-4 z"
         id="path1" />
    </clipPath>
    <clipPath
       clipPathUnits="userSpaceOnUse"
       id="clipath_lpe_path-effect15400-0">
      <path
         id="path2"
         style="display:block;opacity:1;fill:#f5f7fa;stroke-width:1.21"
         d="m 50.372929,27.606287 a 6.655,6.655 0 0 1 -6.655,6.655 6.655,6.655 0 0 1 -6.655,-6.655 6.655,6.655 0 0 1 6.655,-6.655 6.655,6.655 0 0 1 6.655,6.655 z m -14,8 a 6.655,6.655 0 0 1 -6.655,6.655 6.655,6.655 0 0 1 -6.655,-6.655 6.655,6.655 0 0 1 6.655,-6.655 6.655,6.655 0 0 1 6.655,6.655 z m -14,-11 a 6.655,6.655 0 0 1 -6.655,6.655 6.655,6.655 0 0 1 -6.655,-6.655 6.655,6.655 0 0 1 6.655,-6.655 6.655,6.655 0 0 1 6.655,6.655 z" />
    </clipPath>
    <inkscape:path-effect
       effect="powerclip"
       id="path-effect15400-0"
       is_visible="true"
       lpeversion="1"
       inverse="true"
       flatten="false"
       hide_clip="false"
       message="Use fill-rule evenodd on &lt;b&gt;fill and stroke&lt;/b&gt; dialog if no flatten result after convert clip to paths." />
    <clipPath
       clipPathUnits="userSpaceOnUse"
       id="clipath_lpe_path-effect15400-0-6">
      <path
         id="path2-5"
         style="display:none;opacity:1;fill:#f5f7fa;stroke-width:1.21"
         d="m 50.372929,27.606287 a 6.655,6.655 0 0 1 -6.655,6.655 6.655,6.655 0 0 1 -6.655,-6.655 6.655,6.655 0 0 1 6.655,-6.655 6.655,6.655 0 0 1 6.655,6.655 z m -14,8 a 6.655,6.655 0 0 1 -6.655,6.655 6.655,6.655 0 0 1 -6.655,-6.655 6.655,6.655 0 0 1 6.655,-6.655 6.655,6.655 0 0 1 6.655,6.655 z m -14,-11 a 6.655,6.655 0 0 1 -6.655,6.655 6.655,6.655 0 0 1 -6.655,-6.655 6.655,6.655 0 0 1 6.655,-6.655 6.655,6.655 0 0 1 6.655,6.655 z" />
      <path
         id="lpe_path-effect15400-0-6"
         style="opacity:1;fill:#f5f7fa;stroke-width:1.21"
         class="powerclip"
         d="m 8.217929,9.106287 h 43 v 43 h -43 z m 42.155,18.5 a 6.655,6.655 0 0 0 -6.655,-6.655 6.655,6.655 0 0 0 -6.655,6.655 6.655,6.655 0 0 0 6.655,6.655 6.655,6.655 0 0 0 6.655,-6.655 z m -14,8 a 6.655,6.655 0 0 0 -6.655,-6.655 6.655,6.655 0 0 0 -6.655,6.655 6.655,6.655 0 0 0 6.655,6.655 6.655,6.655 0 0 0 6.655,-6.655 z m -14,-11 a 6.655,6.655 0 0 0 -6.655,-6.655 6.655,6.655 0 0 0 -6.655,6.655 6.655,6.655 0 0 0 6.655,6.655 6.655,6.655 0 0 0 6.655,-6.655 z" />
    </clipPath>
    <inkscape:path-effect
       effect="powerclip"
       id="path-effect15400-0-9"
       is_visible="true"
       lpeversion="1"
       inverse="true"
       flatten="false"
       hide_clip="false"
       message="Use fill-rule evenodd on &lt;b&gt;fill and stroke&lt;/b&gt; dialog if no flatten result after convert clip to paths." />
    <clipPath
       clipPathUnits="userSpaceOnUse"
       id="clipath_lpe_path-effect15400-0-9">
      <path
         id="path12"
         style="display:block;opacity:1;fill:#f5f7fa;stroke-width:1.21"
         d="m 50.372929,27.606287 a 6.655,6.655 0 0 1 -6.655,6.655 6.655,6.655 0 0 1 -6.655,-6.655 6.655,6.655 0 0 1 6.655,-6.655 6.655,6.655 0 0 1 6.655,6.655 z m -14,8 a 6.655,6.655 0 0 1 -6.655,6.655 6.655,6.655 0 0 1 -6.655,-6.655 6.655,6.655 0 0 1 6.655,-6.655 6.655,6.655 0 0 1 6.655,6.655 z m -14,-11 a 6.655,6.655 0 0 1 -6.655,6.655 6.655,6.655 0 0 1 -6.655,-6.655 6.655,6.655 0 0 1 6.655,-6.655 6.655,6.655 0 0 1 6.655,6.655 z" />
    </clipPath>
  </defs>
  <g
     id="g877"
     transform="matrix(1.1,0,0,1.1,-3.1845928,-3.2065454)">
    <path
       d="m 18.347203,7.2464043 c -6.244452,0 -11.2714308,5.1741617 -11.2714308,11.6016437 v 26.767119 c 0,6.427394 5.0268918,11.601644 11.2714308,11.601644 h 26.005262 c 6.244452,0 11.271431,-5.174161 11.271431,-11.601644 V 18.848048 c 0,-6.427393 -5.026893,-11.6016437 -11.271431,-11.6016437 z"
       fill="url(#linearGradient910)"
       stroke-width="3.32418"
       id="path33"
       style="fill:#4d4d4d;fill-opacity:1"
       clip-path="url(#clipPath1976)"
       inkscape:path-effect="#path-effect1980"
       inkscape:original-d="m 18.347203,7.2464043 c -6.244452,0 -11.2714308,5.1741617 -11.2714308,11.6016437 v 26.767119 c 0,6.427394 5.0268918,11.601644 11.2714308,11.601644 h 26.005262 c 6.244452,0 11.271431,-5.174161 11.271431,-11.601644 V 18.848048 c 0,-6.427393 -5.026893,-11.6016437 -11.271431,-11.6016437 z"
       transform="matrix(1.089,0,0,1.089,-2.2940414,-2.7591018)" />
    <rect
       x="8.245779"
       y="8.0493994"
       width="47.200809"
       height="48.583622"
       rx="9.511797"
       ry="9.6776171"
       fill="url(#linearGradient862)"
       stroke-width="3.23184"
       id="rect35-7"
       style="opacity:1;fill:#f9f9f9;fill-opacity:1" />
    <rect
       x="10.60582"
       y="10.47858"
       width="42.480732"
       height="43.725258"
       rx="9.0337515"
       ry="8.819849"
       fill="url(#linearGradient862)"
       stroke-width="2.90867"
       id="rect35-7-3"
       style="fill:url(#linearGradient6)" />
    <path
       style="fill:#000000;fill-opacity:1;stroke:none;stroke-width:1.0648;stroke-dasharray:none;stroke-opacity:0.3;opacity:0.2"
       d="m 20.544178,50.851319 c -1.76043,-0.205031 -3.236941,-1.491505 -3.744478,-3.262532 -0.107547,-0.375257 -0.120322,-1.0384 -0.141445,-7.339519 l -0.02324,-6.92699 h 15.407632 15.407628 l -0.02244,6.92699 c -0.02577,7.72579 0.0058,7.217138 -0.515592,8.267692 -0.35381,0.712838 -1.161428,1.520478 -1.874263,1.87427 -0.696225,0.345577 -1.17869,0.456372 -2.215,0.508823 l -0.875391,0.04436 -0.01871,-3.63728 -0.01871,-3.637293 -0.159027,-0.322835 c -0.203096,-0.412058 -0.618918,-0.827904 -1.030921,-1.030844 l -0.322834,-0.158985 -8.247472,-0.01829 c -9.47658,-0.02037 -8.653391,-0.07609 -9.359095,0.630811 -0.671423,0.672548 -0.647755,0.503556 -0.647755,4.624879 v 3.528602 l -0.567222,-0.0092 c -0.311979,-0.0055 -0.775765,-0.03367 -1.030655,-0.063 z M 39.27953,38.648757 c 0.333227,-0.226416 0.463666,-0.491086 0.463355,-0.939981 -4.7e-4,-0.675633 -0.415943,-1.085781 -1.099809,-1.085781 -0.683887,0 -1.099334,0.410145 -1.099807,1.085781 -4.64e-4,0.692276 0.415766,1.11384 1.099807,1.11384 0.293858,0 0.438931,-0.0397 0.636462,-0.17387 z m 4.366046,0.03671 c 0.335516,-0.20456 0.497328,-0.517887 0.497328,-0.962931 0,-0.690073 -0.409479,-1.099557 -1.099555,-1.099557 -0.690073,0 -1.099547,0.409487 -1.099547,1.099557 0,0.690067 0.40948,1.099551 1.099547,1.099551 0.256355,0 0.450335,-0.04409 0.60224,-0.136621 z m -20.403455,10.58779 v -1.650105 h 8.800541 8.800546 v 1.650105 1.650103 H 32.042662 23.242121 Z M 16.659978,30.245518 c 0.03982,-2.201214 0.07604,-2.435235 0.513868,-3.317394 0.353591,-0.71244 1.161283,-1.52028 1.874267,-1.874598 0.844698,-0.419783 1.228944,-0.489643 2.715793,-0.493778 1.208844,-0.0037 1.326853,0.0075 1.581345,0.143989 0.602529,0.323429 0.8814,0.749012 0.962019,1.468099 0.06252,0.557626 0.186304,0.863709 0.468116,1.157499 0.477656,0.497954 -0.432028,0.454342 10.292463,0.493407 l 9.659965,0.03518 0.407027,0.15422 c 0.577891,0.21895 0.935346,0.443219 1.309091,0.821354 0.664532,0.672323 0.909496,1.309948 0.975151,2.538283 l 0.04528,0.850419 H 32.044427 16.624269 Z m 9.58559,-3.624905 c -0.485981,-0.170283 -0.73456,-0.515327 -0.73456,-1.019612 0,-0.353697 0.203591,-0.701325 0.515893,-0.880923 0.113317,-0.06515 2.696649,-0.990579 5.740746,-2.056471 3.044092,-1.065898 7.297161,-2.555088 9.451255,-3.309315 4.280382,-1.498715 4.206065,-1.480987 4.648222,-1.108939 0.548008,0.461119 0.55076,1.274197 0.0054,1.662362 -0.108856,0.07747 -1.447414,0.578105 -2.974665,1.112499 -1.527294,0.534396 -3.952561,1.383023 -5.38953,1.88584 -8.84627,3.09545 -10.674583,3.731457 -10.828768,3.766939 -0.09455,0.02178 -0.289961,-0.0022 -0.434264,-0.05239 z"
       id="path1-3-3" />
    <path
       style="fill:#f9f9f9;fill-opacity:1;stroke:none;stroke-width:1.0648;stroke-dasharray:none;stroke-opacity:0.3"
       d="m 20.544178,49.033137 c -1.76043,-0.205031 -3.236941,-1.491505 -3.744478,-3.262532 -0.107547,-0.375257 -0.120322,-1.0384 -0.141445,-7.339519 l -0.02324,-6.92699 h 15.407632 15.407628 l -0.02244,6.92699 c -0.02577,7.72579 0.0058,7.217138 -0.515592,8.267692 -0.35381,0.712838 -1.161428,1.520478 -1.874263,1.87427 -0.696225,0.345577 -1.17869,0.456372 -2.215,0.508823 l -0.875391,0.04436 -0.01871,-3.63728 -0.01871,-3.637293 -0.159027,-0.322835 c -0.203096,-0.412058 -0.618918,-0.827904 -1.030921,-1.030844 l -0.322834,-0.158985 -8.247472,-0.01829 c -9.47658,-0.02037 -8.653391,-0.07609 -9.359095,0.630811 -0.671423,0.672548 -0.647755,0.503556 -0.647755,4.624879 v 3.528602 l -0.567222,-0.0092 c -0.311979,-0.0055 -0.775765,-0.03367 -1.030655,-0.063 z M 39.27953,36.830575 c 0.333227,-0.226416 0.463666,-0.491086 0.463355,-0.939981 -4.7e-4,-0.675633 -0.415943,-1.085781 -1.099809,-1.085781 -0.683887,0 -1.099334,0.410145 -1.099807,1.085781 -4.64e-4,0.692276 0.415766,1.11384 1.099807,1.11384 0.293858,0 0.438931,-0.0397 0.636462,-0.17387 z m 4.366046,0.03671 c 0.335516,-0.20456 0.497328,-0.517887 0.497328,-0.962931 0,-0.690073 -0.409479,-1.099557 -1.099555,-1.099557 -0.690073,0 -1.099547,0.409487 -1.099547,1.099557 0,0.690067 0.40948,1.099551 1.099547,1.099551 0.256355,0 0.450335,-0.04409 0.60224,-0.136621 z M 23.242121,47.455075 V 45.80497 h 8.800541 8.800546 v 1.650105 1.650103 H 32.042662 23.242121 Z M 16.659978,28.427336 c 0.03982,-2.201214 0.07604,-2.435235 0.513868,-3.317394 0.353591,-0.71244 1.161283,-1.52028 1.874267,-1.874598 0.844698,-0.419783 1.228944,-0.489643 2.715793,-0.493778 1.208844,-0.0037 1.326853,0.0075 1.581345,0.143989 0.602529,0.323429 0.8814,0.749012 0.962019,1.468099 0.06252,0.557626 0.186304,0.863709 0.468116,1.157499 0.477656,0.497954 -0.432028,0.454342 10.292463,0.493407 l 9.659965,0.03518 0.407027,0.15422 c 0.577891,0.21895 0.935346,0.443219 1.309091,0.821354 0.664532,0.672323 0.909496,1.309948 0.975151,2.538283 l 0.04528,0.850419 H 32.044427 16.624269 Z m 9.58559,-3.624905 c -0.485981,-0.170283 -0.73456,-0.515327 -0.73456,-1.019612 0,-0.353697 0.203591,-0.701325 0.515893,-0.880923 0.113317,-0.06515 2.696649,-0.990579 5.740746,-2.056471 3.044092,-1.065898 7.297161,-2.555088 9.451255,-3.309315 4.280382,-1.498715 4.206065,-1.480987 4.648222,-1.108939 0.548008,0.461119 0.55076,1.274197 0.0054,1.662362 -0.108856,0.07747 -1.447414,0.578105 -2.974665,1.112499 -1.527294,0.534396 -3.952561,1.383023 -5.38953,1.88584 -8.84627,3.09545 -10.674583,3.731457 -10.828768,3.766939 -0.09455,0.02178 -0.289961,-0.0022 -0.434264,-0.05239 z"
       id="path1-3" />
    <g
       id="g13"
       transform="matrix(0.66272728,0,0,0.66272728,10.532357,10.799881)" />
    <path
       style="fill:#f5f7fa;stroke-width:0.204426;fill-opacity:1"
       d=""
       id="path3" />
  </g>
</svg>
