<svg xmlns="http://www.w3.org/2000/svg" width="16" height="16" version="1.1"><defs><linearGradient id="linear0" x1="0%" x2="0%" y1="0%" y2="100%"><stop offset="0%" style="stop-color:#00b54e; stop-opacity:1"/><stop offset="50%" style="stop-color:#0073ff; stop-opacity:1"/><stop offset="100%" style="stop-color:#ffd000; stop-opacity:1"/></linearGradient></defs>
 <path style="fill:url(#linear0)"  d="M 8,1 A 7,7 0 0 0 1,8 7,7 0 0 0 8,15 7,7 0 0 0 15,8 7,7 0 0 0 14.381,5.1445 L 7.0898,13.5 3.3105,9.75 C 2.8548,9.2942 2.9405,8.6905 3.3105,8.3105 3.6905,7.9405 4.2882,7.8608 4.75,8.3105 L 7,10.561 13.258,3.3926 A 7,7 0 0 0 8,1 Z"/>
</svg>
