<svg xmlns="http://www.w3.org/2000/svg" width="16" height="16" version="1.1"><defs><linearGradient id="linear0" x1="0%" x2="0%" y1="0%" y2="100%"><stop offset="0%" style="stop-color:#00b6c7; stop-opacity:1"/><stop offset="50%" style="stop-color:#ff0000; stop-opacity:1"/><stop offset="100%" style="stop-color:#6a00ff; stop-opacity:1"/></linearGradient></defs>
 <path style="opacity:0.3;fill:url(#linear0)"  d="M 3.8339844,6.024672 C 3.3737473,6.024672 3,6.4164229 3,6.899672 2.9999003,6.932213 3.00251,6.964978 3.00586,6.997328 3.0576455,9.075757 4.7505832,10.874892 7,11.273438 V 12 H 5 c -0.554,0 -1,0.446 -1,1 0,0.554 0.446,1 1,1 H 10.564453 11 c 0.554,0 1,-0.446 1,-1 0,-0.554 -0.446,-1 -1,-1 H 9 v -0.726562 c 2.252569,-0.399125 3.948746,-2.203541 3.996094,-4.2858754 0.003,-0.028949 0.0037,-0.058771 0.0039,-0.087891 0,-0.4832491 -0.373747,-0.875 -0.833984,-0.875 -0.460237,6e-7 -0.832032,0.3917513 -0.832032,0.875 h -0.01367 C 11.250704,8.7089848 10.144502,9.625 8,9.625 5.8553352,9.625 4.7492888,8.7089848 4.6796875,6.899672 h -0.013672 c 0,-0.4832495 -0.3717939,-0.8750005 -0.8320311,-0.875 z"/>
 <rect style="opacity:0.3;fill:url(#linear0)"  width="8" height="6" x="-9" y="-11" rx="3.334" ry="3" transform="matrix(0,-1,-1,0,0,0)"/>
</svg>
