<svg xmlns="http://www.w3.org/2000/svg" width="16" height="16" version="1.1"><defs><linearGradient id="linear0" x1="0%" x2="0%" y1="0%" y2="100%"><stop offset="0%" style="stop-color:#00b6c7; stop-opacity:1"/><stop offset="50%" style="stop-color:#ff0000; stop-opacity:1"/><stop offset="100%" style="stop-color:#6a00ff; stop-opacity:1"/></linearGradient></defs>
 <path style="opacity:0.3;fill:url(#linear0)"  d="M 6,1 V 2 H 3 V 14 C 3,14.55 3.446,15 4,15 H 12 C 12.554,15 13,14.55 13,14 V 2 H 10 V 1 Z M 8,4 C 9.645,4 11,5.355 11,7 11,8.2567 10.107,9.1406 9,9.584 V 13 H 6 V 8 H 5 V 7 C 5,5.355 6.355,4 8,4 Z"/>
 <path style="fill:url(#linear0)"  d="M 8,5 A 2,2 0 0 0 6,7 H 7 A 1,1 0 0 1 8,6 1,1 0 0 1 9,7 1,1 0 0 1 8,8 H 7 V 10 H 8 V 9 A 2,2 0 0 0 10,7 2,2 0 0 0 8,5 Z M 7,11 V 12 H 8 V 11 Z"/>
</svg>
