<svg xmlns="http://www.w3.org/2000/svg" width="16" height="16" version="1.1"><defs><linearGradient id="linear0" x1="0%" x2="0%" y1="0%" y2="100%"><stop offset="0%" style="stop-color:#00b54e; stop-opacity:1"/><stop offset="50%" style="stop-color:#0073ff; stop-opacity:1"/><stop offset="100%" style="stop-color:#ffd000; stop-opacity:1"/></linearGradient></defs>
 <path style="fill:url(#linear0)"  d="M 4.4966766,1.0009942 C 1.9221518,0.91027681 -1.5026166,7.0439106 3.758139,12.265935 c 5.2452122,5.205919 11.411907,1.84308 11.238276,-0.774464 A 7.5026047,7.5099607 0 0 1 10.504622,12.997374 7.5026047,7.5099607 0 0 1 3.002017,5.4874135 7.5026047,7.5099607 0 0 1 4.4966766,1.0009942 Z"/>
 <path style="fill:url(#linear0);opacity:0.3"  d="M 5.0378801,1.1085588 C 4.0783402,2.3079161 3.5021907,3.8279285 3.5021907,5.4874135 c 0,3.8770579 3.1291708,7.0092965 7.0024313,7.0092965 1.653362,0 3.168117,-0.573592 4.364796,-1.529372 C 14.761335,10.718977 14.589664,10.484022 14.33603,10.273058 13.283943,9.3966147 11.343016,8.7680633 9.3128018,6.7527637 7.1706396,4.6261894 6.5604352,2.611563 5.6630971,1.5720643 5.4737131,1.3526998 5.2617741,1.2045863 5.0378801,1.1085588 Z"/>
</svg>
