<svg xmlns="http://www.w3.org/2000/svg" width="16" height="16" x="0" y="0" version="1.1" xml:space="preserve"><defs><linearGradient id="linear0" x1="0%" x2="0%" y1="0%" y2="100%"><stop offset="0%" style="stop-color:#00b6c7; stop-opacity:1"/><stop offset="50%" style="stop-color:#ff0000; stop-opacity:1"/><stop offset="100%" style="stop-color:#6a00ff; stop-opacity:1"/></linearGradient></defs>
 <path style="opacity:0.3;fill:url(#linear0)"  d="M 15.25,0 10.963,5.0292 12.631,6.0038 15.557,0.27539 Z M 3.3691,3 0,6.0038 3.5,5.4999 5,13.5 8,12 9.9766,12.494 V 9.9999 C 9.9766,9.4476 10.424,9 10.977,8.9999 H 14 L 13.475,7.6874 11.789,6.5097 7.3672,9.9999 4.6309,3.4785 Z M 9.2637,5 6.5371,6.0038 7.5781,8.5292 10.947,6.0038 Z"/>
 <path style="clip-rule:evenodd;fill:url(#linear0);fill-rule:evenodd"  d="m 10.976984,10 0,5 L 13,15 13,10 Z M 14,10 l 0,5 1.976984,0 0,-5 z"/>
</svg>
