<svg xmlns="http://www.w3.org/2000/svg" width="16" height="16" version="1.1"><defs><linearGradient id="linear0" x1="0%" x2="100%" y1="0%" y2="100%"><stop offset="0%" style="stop-color:#ff0000; stop-opacity:1"/><stop offset="50%" style="stop-color:#ffd000; stop-opacity:1"/><stop offset="100%" style="stop-color:#ff00bb; stop-opacity:1"/></linearGradient></defs>
 <g>
  <path style="fill:url(#linear0)" d="M 1,0 V 2 H 0 V 14 H 1 V 16 H 3 V 14 H 5 V 16 H 7 V 14 H 9 V 16 H 11 V 14 H 13 V 16 H 15 V 14 H 16 V 2 H 15 V 0 H 13 V 2 H 11 V 0 H 9 V 2 H 7 V 0 H 5 V 2 H 3 V 0 Z M 2,4 H 7 V 6 H 6 V 5 H 3 V 8 L 4,8 4,11 H 6 V 10 H 7 V 12 H 2 Z M 9,4 H 14 V 6 H 13 V 5 H 10 V 8 L 11,8 11,11 H 13 V 10 H 14 V 12 H 9 Z"/>
 </g>
</svg>
