<svg xmlns="http://www.w3.org/2000/svg" width="16" height="16" version="1.1"><defs><linearGradient id="linear0" x1="0%" x2="0%" y1="0%" y2="100%"><stop offset="0%" style="stop-color:#00b54e; stop-opacity:1"/><stop offset="50%" style="stop-color:#ffd000; stop-opacity:1"/><stop offset="100%" style="stop-color:#ff00bb; stop-opacity:1"/></linearGradient></defs>
 <path style="fill:url(#linear0);opacity:0.3"  d="M 8 1 A 7 7 0 0 0 1 8 A 7 7 0 0 0 8 15 A 7 7 0 0 0 15 8 L 13 8 A 5 5 0 0 1 8 13 A 5 5 0 0 1 3 8 A 5 5 0 0 1 8 3 L 8 1 z M 8 4 A 4 4 0 0 0 4 8 A 4 4 0 0 0 8 12 A 4 4 0 0 0 12 8 L 10 8 A 2 2 0 0 1 8 10 A 2 2 0 0 1 6 8 A 2 2 0 0 1 8 6 L 8 4 z"/>
 <circle style="fill:url(#linear0)"  cx="8" cy="8" r="1"/>
 <path style="fill:url(#linear0);opacity:1"  d="M 8 1 L 8 3 A 5 5 0 0 1 13 8 L 15 8 A 7 7 0 0 0 8 1 z M 8 4 L 8 6 A 2 2 0 0 1 10 8 L 12 8 A 4 4 0 0 0 8 4 z"/>
</svg>
