<svg xmlns="http://www.w3.org/2000/svg" width="16" height="16" version="1"><defs><linearGradient id="linear0" x1="0%" x2="0%" y1="0%" y2="100%"><stop offset="0%" style="stop-color:#00b54e; stop-opacity:1"/><stop offset="50%" style="stop-color:#ffd000; stop-opacity:1"/><stop offset="100%" style="stop-color:#ff00bb; stop-opacity:1"/></linearGradient></defs>
 <path style="fill:url(#linear0)"  d="M 1.7011719,1 C 1.3133719,1 1,1.3133719 1,1.7011719 L 1,14.298828 C 1,14.686453 1.3133719,15 1.7011719,15 l 6.9160156,0 2.9140625,0 2.767578,0 C 14.686453,15 15,14.686453 15,14.298828 L 15,1.7011719 C 15,1.3131969 14.686453,1 14.298828,1 Z M 3.0078125,3 13,3 12.98828,13 10.5,13 7.3599989,8 10.5,8 4,4 4,11 6.1139062,8.4082031 8,13 3,13 Z"/>
</svg>
