<svg xmlns="http://www.w3.org/2000/svg" width="16" height="16" version="1.1"><defs><linearGradient id="linear0" x1="0%" x2="0%" y1="0%" y2="100%"><stop offset="0%" style="stop-color:#00b6c7; stop-opacity:1"/><stop offset="50%" style="stop-color:#ff0000; stop-opacity:1"/><stop offset="100%" style="stop-color:#6a00ff; stop-opacity:1"/></linearGradient></defs>
 <path  d="M 15,9 C 15,8.446 14.554,8 14,8 H 1 C 0.446,8 0,8.446 0,9 v 5 c 0,0.554 0.446,1 1,1 h 13 c 0.554,0 1,-0.446 1,-1 z m -3,0 v 1 H 11 V 9 Z m 0,2 v 1 h -1 v -1 z m -1,2 v 1 H 4.0000002 V 13 Z M 10,9 v 1 H 9 V 9 Z m 0,2 v 1 H 9 V 11 Z M 8,9 v 1 H 7 V 9 Z m 0,2 v 1 H 7 V 11 Z M 6.0000002,9 v 1 h -1 V 9 Z m 0,2 v 1 h -1 v -1 z m -2,-2 v 1 h -1 V 9 Z m 0,2 v 1 h -1 v -1 z" style="opacity:0.3;fill:url(#linear0);fill-rule:evenodd"/>
 <path style="fill:url(#linear0)" class="ColorScheme-Highlight" d="M 7,1 V 5 H 9 V 1 Z M 7,6 V 7 H 9 V 6 Z"/>
</svg>
