<svg xmlns="http://www.w3.org/2000/svg" width="16" height="16" version="1.1"><defs><linearGradient id="linear0" x1="0%" x2="0%" y1="0%" y2="100%"><stop offset="0%" style="stop-color:#00b54e; stop-opacity:1"/><stop offset="50%" style="stop-color:#ffd000; stop-opacity:1"/><stop offset="100%" style="stop-color:#ff00bb; stop-opacity:1"/></linearGradient></defs>
 <path style="opacity:0.3;fill:url(#linear0)"  d="M 8.00015,0.72100005 5.81065,3.0003 H 3.0001499 V 5.8107999 L 0.72085,8.0002999 3.0001499,10.221 V 13 H 5.81065 l 2.1895,2.279 2.221,-2.279 h 2.779 v -2.779 l 2.279,-2.2207001 -2.279,-2 V 3.0003 h -2.779 z m 0,3.27929995 c 2.21,0 4,1.7899999 4,3.9999999 C 12.00015,10.21 10.21015,12 8.00015,12 5.7901499,12 4.0001499,10.21 4.0001499,8.0002999 c 0,-2.21 1.79,-3.9999999 4.0000001,-3.9999999 z m 0,0.9999999 c -1.6569,0 -3,1.3431 -3,3 0,1.6569 1.3431,2.9997001 3,2.9997001 z"/>
</svg>
