<svg height="16" width="16" xmlns="http://www.w3.org/2000/svg"><defs><linearGradient id="linear0" x1="0%" x2="0%" y1="0%" y2="100%"><stop offset="0%" style="stop-color:#00b54e; stop-opacity:1"/><stop offset="50%" style="stop-color:#ffd000; stop-opacity:1"/><stop offset="100%" style="stop-color:#ff00bb; stop-opacity:1"/></linearGradient></defs><path d="M8 .003a1 1 0 0 1 .994 1.1A4.987 4.987 0 0 1 13 6.003v4.5l2 2v.5H1v-.5l2-2v-4.5a4.988 4.988 0 0 1 4.006-4.9A1 1 0 0 1 8 .003zm1.728 14a2 2 0 0 1-1.728 1 2 2 0 0 1-1.73-1z" fill="url(#linear0)" stroke-width="3" stroke-linecap="round"/></svg>
