<svg xmlns="http://www.w3.org/2000/svg" width="16" height="16" version="1.1"><defs><linearGradient id="linear0" x1="0%" x2="0%" y1="0%" y2="100%"><stop offset="0%" style="stop-color:#00b54e; stop-opacity:1"/><stop offset="50%" style="stop-color:#ffd000; stop-opacity:1"/><stop offset="100%" style="stop-color:#ff00bb; stop-opacity:1"/></linearGradient></defs>
 <path style="fill:url(#linear0)"  d="M 8,1.0031 C 4.1339,1.0031 0.99986,4.1365 1,8.0017 1,11.866 4.134,15 8,15 8.2745,14.997 8.5485,14.979 8.8208,14.944 6.7299,13.369 5,10.832 5,8.0332 5,5.2006 6.7313,2.687 8.8234,1.0875 8.5509,1.0421 8.276,1.0129 8,1 Z"/>
 <path style="opacity:0.3;fill:url(#linear0)"  d="M 10.003,1.2655 C 7.7524,2.6652 6,5.1146 6,8.0017 6,10.841 7.7524,13.318 10.003,14.703 12.979,13.814 15.013,11.071 15,7.9667 14.999,4.8739 12.967,2.1488 10.003,1.2639 Z"/>
</svg>
