<svg xmlns="http://www.w3.org/2000/svg" width="16" height="16" version="1.1"><defs><linearGradient id="linear0" x1="0%" x2="0%" y1="0%" y2="100%"><stop offset="0%" style="stop-color:#00b6c7; stop-opacity:1"/><stop offset="50%" style="stop-color:#ff0000; stop-opacity:1"/><stop offset="100%" style="stop-color:#6a00ff; stop-opacity:1"/></linearGradient></defs>
 <path style="fill:url(#linear0)"  d="M 5.786,1.2033 C 2.8421,2.0548 0.76416,4.3456 1.0215,7.5315 1.3184,11.207 6.6452,14.923 8.7315,15 9.6407,14.785 9.1143,11.875 8.5792,9.6786 8.4288,9.0851 8.2784,8.4937 8.1055,7.8992 8.0499,7.707 7.9825,7.4684 7.9649,7.4103 7.6797,6.4542 7.335,5.3625 6.7707,3.6267 6.6641,3.313 6.8887,2.9845 7.2168,2.974 7.4366,2.9666 7.6348,3.1085 7.6993,3.3206 8.6778,6.3291 9.0655,7.6518 9.4639,9.2044 11.035,11.173 13.319,13.866 14.057,13.699 15.195,13.439 15.608,5.8633 13.531,3.527 11.455,1.1904 8.7061,0.64126 5.7856,1.2035 Z"/>
</svg>
