<svg xmlns="http://www.w3.org/2000/svg" width="16" height="16" version="1.1"><defs><linearGradient id="linear0" x1="0%" x2="0%" y1="0%" y2="100%"><stop offset="0%" style="stop-color:#00b54e; stop-opacity:1"/><stop offset="50%" style="stop-color:#0073ff; stop-opacity:1"/><stop offset="100%" style="stop-color:#ffd000; stop-opacity:1"/></linearGradient></defs>
 <path style="fill:url(#linear0)"  d="M 7.5,1 A 4.5,4.5 0 0 0 3,5.5 4.5,4.5 0 0 0 6,9.7363 V 14 L 7.5,16 9,14 10,13.5 9,12.801 V 12.051 L 10,11.051 9,10.051 V 9.7363 A 4.5,4.5 0 0 0 12,5.5 4.5,4.5 0 0 0 7.5,1 Z M 7.5,2 A 1.5,1.5 0 0 1 9,3.5 1.5,1.5 0 0 1 7.5,5 1.5,1.5 0 0 1 6,3.5 1.5,1.5 0 0 1 7.5,2 Z M 7,10 H 7.5 8 V 14 H 7 Z"/>
 <path style="fill:url(#linear0)"  d="m 13,8.9999995 c -1.108,0 -2,0.911 -2,2.0310005 l 0,0.969 -1,0 0,4 6,0 0,-4 -1,0 0,-0.969 C 15,9.9109995 14.108,8.9999995 13,8.9999995 Z m 0,1 c 0.554,0 1,0.4420005 1,1.0000005 l 0,1 -2,0 0,-1 c 0,-0.558 0.446,-1.0000005 1,-1.0000005 z"/>
</svg>
