<svg xmlns="http://www.w3.org/2000/svg" width="16" height="16" version="1.1"><defs><linearGradient id="linear0" x1="0%" x2="0%" y1="0%" y2="100%"><stop offset="0%" style="stop-color:#00b54e; stop-opacity:1"/><stop offset="50%" style="stop-color:#ffd000; stop-opacity:1"/><stop offset="100%" style="stop-color:#ff00bb; stop-opacity:1"/></linearGradient></defs>
 <path style="fill:url(#linear0)"  d="M 1.3497635,1 C 1.1559945,1 1,1.1543846 1,1.3461538 V 2.730769 9.653846 C 1,9.845615 1.1559945,10 1.3497635,10 H 2.649119 C 2.842887,10 3.000032,9.845615 3,9.653846 V 3 H 6.650236 C 6.844005,3 7,2.822692 7,2.630923 V 1.3461538 C 7,1.1543846 6.844005,1 6.650236,1 H 2.748818 Z"/>
 <path style="opacity:0.3;fill:url(#linear0)"  d="M 14.650237,15 C 14.844006,15 15,14.845615 15,14.653846 V 13.269231 6.346154 C 15,6.154385 14.844006,6 14.650237,6 H 13.350881 C 13.157113,6 12.999968,6.154385 13,6.346154 V 13 H 9.349764 C 9.155995,13 9,13.177308 9,13.369077 v 1.284769 C 9,14.845615 9.155995,15 9.349764,15 h 3.901418 z"/>
</svg>
