<svg xmlns="http://www.w3.org/2000/svg" width="16" height="16" version="1.1"><defs><linearGradient id="linear0" x1="0%" x2="100%" y1="0%" y2="100%"><stop offset="0%" style="stop-color:#e5ff00; stop-opacity:1"/><stop offset="50%" style="stop-color:#0073ff; stop-opacity:1"/><stop offset="100%" style="stop-color:#ff0000; stop-opacity:1"/></linearGradient></defs>
 <path style="fill:url(#linear0)"  d="M 1 3 L 8 10 L 15 3 L 1 3 z M 15 4.5195312 L 10.759766 8.7597656 L 11.732422 9.7324219 A 2.5 2.5 0 0 1 13.5 9 A 2.5 2.5 0 0 1 15 9.5039062 L 15 4.5195312 z M 1 4.5214844 L 1 13 L 5.2402344 8.7597656 L 1 4.5214844 z M 5.9472656 9.4667969 L 2.4140625 13 L 11.501953 13 A 2.5 2.5 0 0 1 11 11.5 A 2.5 2.5 0 0 1 11.173828 10.587891 L 10.052734 9.4667969 L 9.140625 10.378906 C 8.633925 10.885226 7.3680281 10.885226 6.8613281 10.378906 L 5.9472656 9.4667969 z"/>
 <circle style="fill:url(#linear0)" class="ColorScheme-Highlight" cx="13.5" cy="11.5" r="1.5"/>
</svg>
