<svg xmlns="http://www.w3.org/2000/svg" width="16" height="16" version="1.1"><defs><linearGradient id="linear0" x1="0%" x2="0%" y1="0%" y2="100%"><stop offset="0%" style="stop-color:#00b54e; stop-opacity:1"/><stop offset="50%" style="stop-color:#ffd000; stop-opacity:1"/><stop offset="100%" style="stop-color:#ff00bb; stop-opacity:1"/></linearGradient></defs>
 <path style="fill:url(#linear0)"  d="m 2.5,1.99965 c -0.277,0 -0.5,0.223 -0.5,0.5 l 0,0.5 -2,-0.002 0,-3e-4 L 0,13.5 C 0,13.777 0.223,14 0.5,14 l 6,0 C 6.777,14 7,13.777 7,13.5 l 0,-10.50165 -0.5,0.002 -1.5,0 0,-0.5 c 0,-0.277 -0.223,-0.5 -0.5,-0.5 z"/>
 <path style="fill:url(#linear0)"  d="M 12,2.0000009 C 10.237272,2.0000009 9,3.507 9,6 l 3,0 z m 1,0 L 13,6 16,6 C 16,3.507 14.762728,2.0000009 13,2.0000009 Z M 9,7 9,9.5000005 C 9,11.993 10.419091,14 12.181818,14 l 0.636364,0 C 14.580909,14 16,11.993 16,9.5000005 L 16,7 12.818182,7 Z"/>
</svg>
