<svg xmlns="http://www.w3.org/2000/svg" width="16" height="16" version="1.1"><defs><linearGradient id="linear0" x1="0%" x2="0%" y1="0%" y2="100%"><stop offset="0%" style="stop-color:#00b6c7; stop-opacity:1"/><stop offset="50%" style="stop-color:#ff0000; stop-opacity:1"/><stop offset="100%" style="stop-color:#6a00ff; stop-opacity:1"/></linearGradient></defs>
 <path style="fill:url(#linear0)"  d="M 3,1 C 3,1 1,1 1,3.06 V 13 C 1,15 3,15 3,15 H 13 C 15,15 15,13 15,13 V 3 C 15,3 15,1 13,1 Z M 6,3 H 10 C 12,3 12.05,5.35 12,5 V 6 H 10 V 5 H 6 V 11 H 10 V 10 H 8 V 8 H 12 V 11 C 12,11 12,13 10,13 H 6 C 6,13 4,13 4,11 V 5 C 4,3 6,3 6,3 Z"/>
</svg>
