<svg xmlns="http://www.w3.org/2000/svg" width="16" height="16" version="1.1"><defs><linearGradient id="linear0" x1="0%" x2="100%" y1="0%" y2="100%"><stop offset="0%" style="stop-color:#e5ff00; stop-opacity:1"/><stop offset="50%" style="stop-color:#0073ff; stop-opacity:1"/><stop offset="100%" style="stop-color:#ff0000; stop-opacity:1"/></linearGradient></defs>
 <path style="opacity:0.3;fill:url(#linear0)"  d="M 15,1.01 1,15.01 H 10 V 10.01 H 15 Z"/>
 <path style="fill:url(#linear0)"  d="M 11,11.01 V 12.01 C 11,12.29 11.1,12.55 11.28,12.73 L 12.06,13.51 11.28,14.29 C 11.1,14.47 11,14.73 11,15.01 V 16.01 H 12 C 12.28,16.01 12.54,15.91 12.72,15.73 L 13.5,14.95 14.28,15.73 C 14.46,15.91 14.72,16.01 15,16.01 H 16 V 15.01 C 16,14.73 15.9,14.47 15.72,14.29 L 14.94,13.51 15.72,12.73 C 15.9,12.55 16,12.29 16,12.01 V 11.01 H 15 C 14.72,11.01 14.46,11.11 14.28,11.29 L 13.5,12.07 12.72,11.29 C 12.54,11.11 12.28,11.01 12,11.01 Z"/>
</svg>
