<svg xmlns="http://www.w3.org/2000/svg" width="16" height="16" version="1.1"><defs><linearGradient id="linear0" x1="0%" x2="100%" y1="0%" y2="100%"><stop offset="0%" style="stop-color:#e5ff00; stop-opacity:1"/><stop offset="50%" style="stop-color:#0073ff; stop-opacity:1"/><stop offset="100%" style="stop-color:#ff0000; stop-opacity:1"/></linearGradient></defs>
 <path style="opacity:0.3;fill:url(#linear0)"  d="M 2,2 C 2,2 1,2 1,3 V 5 H 3 V 4 H 13 V 5 H 15 V 3 C 15,2 14,2 14,2 Z M 1,11 V 12 C 1,13 2,13 2,13 H 4 L 5,14 H 11 L 12,13 H 14 C 14,13 15,13.13 15,12 V 11 H 11 L 10,12 H 6 L 5,11 Z"/>
 <path style="fill:url(#linear0)"  d="M 3,6 C 1.892,6 1,6.89 1,8 1,9.11 1.892,10 3,10 4.108,10 5,9.11 5,8 5,6.89 4.108,6 3,6 Z M 8,6 C 6.892,6 6,6.89 6,8 6,9.11 6.892,10 8,10 9.108,10 10,9.11 10,8 10,6.89 9.108,6 8,6 Z M 13,6 C 11.892,6 11,6.89 11,8 11,9.11 11.892,10 13,10 14.108,10 15,9.11 15,8 15,6.89 14.108,6 13,6 Z"/>
</svg>
