<svg xmlns="http://www.w3.org/2000/svg" width="16" height="16" version="1.1"><defs><linearGradient id="linear0" x1="0%" x2="0%" y1="0%" y2="100%"><stop offset="0%" style="stop-color:#00b6c7; stop-opacity:1"/><stop offset="50%" style="stop-color:#ff0000; stop-opacity:1"/><stop offset="100%" style="stop-color:#6a00ff; stop-opacity:1"/></linearGradient></defs>
 <path style="fill:url(#linear0)"  d="M 4.5,4 C 2.015,4 0,6.01 0,8.5 0,10.99 2.015,13 4.5,13 6.405,13 8.101,11.8 8.736,10 H 12 V 12 H 15 V 9.99 L 16,10 V 7 H 8.736 C 8.101,5.2 6.405,4 4.5,4 Z M 4.5,7 C 5.328,7 6,7.67 6,8.5 6,9.33 5.328,10 4.5,10 3.672,10 3,9.33 3,8.5 3,7.67 3.672,7 4.5,7 Z"/>
</svg>
