<svg xmlns="http://www.w3.org/2000/svg" width="16" height="16" version="1.1"><defs><linearGradient id="linear0" x1="0%" x2="0%" y1="0%" y2="100%"><stop offset="0%" style="stop-color:#00b6c7; stop-opacity:1"/><stop offset="50%" style="stop-color:#ff0000; stop-opacity:1"/><stop offset="100%" style="stop-color:#6a00ff; stop-opacity:1"/></linearGradient></defs>
 <path style="fill:url(#linear0)" class="ColorScheme-Highlight" d="M 8 2 A 5 5 0 0 0 3.3964844 5.0488281 A 4 4 0 0 0 0 9 A 4 4 0 0 0 3.8085938 12.990234 L 3.8085938 13 L 4 13 L 13.523438 13 A 2.4761905 2.4761905 0 0 0 16 10.523438 A 2.4761905 2.4761905 0 0 0 14.822266 8.4179688 A 2.5 2.5 0 0 0 15 7.5 A 2.5 2.5 0 0 0 12.578125 5.0039062 A 5 5 0 0 0 8 2 z M 6 5 L 7 5 L 9 5 L 10 5 L 10 6 L 10 7 L 10 8 L 9 8 L 7 8 L 7 11 L 6 11 L 6 8 L 6 7 L 6 6 L 6 5 z M 7 6 L 7 7 L 9 7 L 9 6 L 7 6 z"/>
</svg>
