<svg height="16.001" width="16" xmlns="http://www.w3.org/2000/svg"><defs><linearGradient id="linear0" x1="0%" x2="0%" y1="0%" y2="100%"><stop offset="0%" style="stop-color:#00b54e; stop-opacity:1"/><stop offset="50%" style="stop-color:#ffd000; stop-opacity:1"/><stop offset="100%" style="stop-color:#ff00bb; stop-opacity:1"/></linearGradient></defs><path d="M9 .001c-1 0-1 1-1 1v14s0 1 1 1h6c1 0 1-1 1-1v-14s0-1-1-1zm1 2.004h4v11h-4z" fill="url(#linear0)"/><path d="M2.5.001a.5.5 0 0 0-.5.5v.5L0 1v14.502c0 .277.223.5.5.5l5-.002c.277 0 .5-.223.5-.5V.998L5.5 1H4V.5c0-.277-.223-.5-.5-.5z" color="#bebebe" opacity=".35" fill="url(#linear0)" stroke-width="0" stroke-linecap="round" stroke-linejoin="round"/><path d="M0 13.001v2.5c0 .277.223.5.5.5l5-.002a.505.505 0 0 0 .5-.5V13z" color="#bebebe" fill="url(#linear0)" stroke-width="0" stroke-linecap="round" stroke-linejoin="round"/></svg>
