<svg xmlns="http://www.w3.org/2000/svg" width="16" height="16" version="1.1"><defs><linearGradient id="linear0" x1="0%" x2="0%" y1="0%" y2="100%"><stop offset="0%" style="stop-color:#00b54e; stop-opacity:1"/><stop offset="50%" style="stop-color:#0073ff; stop-opacity:1"/><stop offset="100%" style="stop-color:#ffd000; stop-opacity:1"/></linearGradient></defs>
 <path style="fill:url(#linear0)"  d="M 8,1 A 7,7 0 0 0 1,8 7,7 0 0 0 8,15 7,7 0 0 0 15,8 7,7 0 0 0 8,1 Z M 5.5,4 H 10.5 C 11.331,4 12,4.669 12,5.5 V 10.5 C 12,11.331 11.331,12 10.5,12 H 5.5 C 4.669,12 4,11.331 4,10.5 V 5.5 C 4,4.669 4.669,4 5.5,4 Z M 5.5,5 C 5.223,5 5,5.223 5,5.5 V 10.5 C 5,10.777 5.223,11 5.5,11 H 6.5 C 6.777,11 7,10.777 7,10.5 V 5.5 C 7,5.223 6.777,5 6.5,5 Z M 9.5,5 C 9.223,5 9,5.223 9,5.5 V 10.5 C 9,10.777 9.223,11 9.5,11 H 10.5 C 10.777,11 11,10.777 11,10.5 V 5.5 C 11,5.223 10.777,5 10.5,5 Z"/>
</svg>
