<svg xmlns="http://www.w3.org/2000/svg" width="16" height="16" version="1.1"><defs><linearGradient id="linear0" x1="0%" x2="100%" y1="0%" y2="100%"><stop offset="0%" style="stop-color:#e5ff00; stop-opacity:1"/><stop offset="50%" style="stop-color:#0073ff; stop-opacity:1"/><stop offset="100%" style="stop-color:#ff0000; stop-opacity:1"/></linearGradient></defs>
 <path style="fill:url(#linear0)"  d="M 2.6289062 1 A 1.5912092 1.4213061 0 0 0 1 2.4199219 L 1 8 L 1 13.580078 A 1.5912092 1.4213061 0 0 0 3.3867188 14.808594 L 8.796875 12.019531 L 14.205078 9.2304688 A 1.5912092 1.4213061 0 0 0 14.205078 6.7695312 L 8.796875 3.9804688 L 3.3867188 1.1894531 A 1.5912092 1.4213061 0 0 0 2.6289062 1 z M 2.4707031 2.9667969 L 2.4785156 2.9707031 C 2.4753756 2.9691831 2.4739731 2.9704308 2.4707031 2.96875 L 2.4707031 2.9667969 z M 3 3.2402344 L 7.8789062 5.7578125 L 12.228516 8 L 7.8789062 10.242188 L 3 12.757812 L 3 8 L 3 3.2402344 z"/>
</svg>
