<svg xmlns="http://www.w3.org/2000/svg" width="16" height="16" version="1"><defs><linearGradient id="linear0" x1="0%" x2="0%" y1="0%" y2="100%"><stop offset="0%" style="stop-color:#00b54e; stop-opacity:1"/><stop offset="50%" style="stop-color:#0073ff; stop-opacity:1"/><stop offset="100%" style="stop-color:#ffd000; stop-opacity:1"/></linearGradient></defs>
 <path style="fill:url(#linear0);fill-rule:evenodd"  d="M 5,1 V 5 H 1 V 11 H 5 V 15 H 11 V 11 H 15 V 5 H 11 V 1 Z M 8,2 C 8.554,2 9,2.446 9,3 V 6.2695 C 9.3027,6.445 9.5541,6.6969 9.729,7 H 13 C 13.554,7 14,7.446 14,8 14,8.554 13.554,9 13,9 H 9.73 C 9.3731,9.6182 8.7138,9.9993 8,10 6.8954,10 6,9.1046 6,8 6.0013,7.2867 6.3823,6.6281 7,6.2715 V 3 C 7,2.446 7.446,2 8,2 Z"/>
</svg>
