<svg xmlns="http://www.w3.org/2000/svg" width="16" height="16" version="1"><defs><linearGradient id="linear0" x1="0%" x2="100%" y1="0%" y2="100%"><stop offset="0%" style="stop-color:#e5ff00; stop-opacity:1"/><stop offset="50%" style="stop-color:#0073ff; stop-opacity:1"/><stop offset="100%" style="stop-color:#ff0000; stop-opacity:1"/></linearGradient></defs>
 <path style="fill:url(#linear0);opacity:0.3"  d="M 8 1 C 4.122 1 1 4.122 1 8 C 1 11.878 4.122 15 8 15 C 11.8745 15 14.99475 11.882516 15 8.0097656 L 15 8 C 15 4.122 11.878 1 8 1 z M 8.0722656 3 A 5.0002324 5.0002324 0 0 1 8.0742188 3 A 5.0002324 5.0002324 0 0 1 11.535156 4.4648438 A 5.0002324 5.0002324 0 0 1 11.535156 11.535156 A 5.0002324 5.0002324 0 0 1 4.4648438 11.535156 A 5.0002324 5.0002324 0 0 1 4.4648438 4.4648438 A 5.0002324 5.0002324 0 0 1 8.0722656 3 z M 8 3.9941406 L 8 7.9941406 L 12 8 L 12 7.9941406 C 12 5.7755006 10.2184 3.9941406 8 3.9941406 z M 5 7 A 1 1 0 0 0 4 8 A 1 1 0 0 0 5 9 A 1 1 0 0 0 6 8 A 1 1 0 0 0 5 7 z M 8 10 A 1 1 0 0 0 7 11 A 1 1 0 0 0 8 12 A 1 1 0 0 0 9 11 A 1 1 0 0 0 8 10 z"/>
</svg>
