<svg xmlns="http://www.w3.org/2000/svg" width="16" height="16" version="1"><defs><linearGradient id="linear0" x1="0%" x2="100%" y1="0%" y2="100%"><stop offset="0%" style="stop-color:#e5ff00; stop-opacity:1"/><stop offset="50%" style="stop-color:#0073ff; stop-opacity:1"/><stop offset="100%" style="stop-color:#ff0000; stop-opacity:1"/></linearGradient></defs>
 <path style="fill:url(#linear0)"  d="M 4.5 1 A 3.5 3.5 0 0 0 1 4.5 A 3.5 3.5 0 0 0 2.0859375 7.0292969 A 6 6 0 0 0 2 8 A 6 6 0 0 0 8 14 A 6 6 0 0 0 8.9707031 13.917969 A 3.5 3.5 0 0 0 11.5 15 A 3.5 3.5 0 0 0 15 11.5 A 3.5 3.5 0 0 0 13.914062 8.9707031 A 6 6 0 0 0 14 8 A 6 6 0 0 0 8 2 A 6 6 0 0 0 7.0292969 2.0820312 A 3.5 3.5 0 0 0 4.5 1 z M 8 5 L 8 7 L 12 7 L 12 9 L 8 9 L 8 11 L 4 8 L 8 5 z"/>
 <path style="fill:url(#linear0)"  d="M -25.069,-9.0812"/>
</svg>
