<svg xmlns="http://www.w3.org/2000/svg" width="16" height="16" version="1"><defs><linearGradient id="linear0" x1="0%" x2="100%" y1="0%" y2="100%"><stop offset="0%" style="stop-color:#e5ff00; stop-opacity:1"/><stop offset="50%" style="stop-color:#0073ff; stop-opacity:1"/><stop offset="100%" style="stop-color:#ff0000; stop-opacity:1"/></linearGradient></defs>
 <path style="opacity:0.3;fill:url(#linear0)"  d="M 4.5 1 C 2.5670034 1 1 2.5670034 1 4.5 C 1.0013473 5.4560274 1.3937103 6.3698943 2.0859375 7.0292969 C 2.0310192 7.3499992 2.0022786 7.6746374 2 8 C 2 11.313708 4.6862915 14 8 14 C 8.3252563 13.999012 8.6498937 13.971579 8.9707031 13.917969 C 9.6307721 14.608756 10.544553 14.999672 11.5 15 C 13.432997 15 15 13.432997 15 11.5 C 14.998653 10.543972 14.60629 9.6301056 13.914062 8.9707031 C 13.968981 8.6500008 13.997721 8.3253626 14 8 C 14 4.6862915 11.313708 2 8 2 C 7.6747437 2.0009878 7.3501063 2.0284219 7.0292969 2.0820312 C 6.369228 1.3912431 5.4554471 1.0003283 4.5 1 z M 5.8789062 4.4648438 L 8 6.5859375 L 10.121094 4.4648438 L 11.535156 5.8789062 L 9.4140625 8 L 11.535156 10.121094 L 10.121094 11.535156 L 8 9.4140625 L 5.8789062 11.535156 L 4.4648438 10.121094 L 6.5859375 8 L 4.4648438 5.8789062 L 5.8789062 4.4648438 z"/>
 <path style="fill:url(#linear0)"  d="M -25.069,-9.0812"/>
 <circle style="fill:url(#linear0)" class="ColorScheme-Highlight" cx="14.5" cy="2.5" r="1.5"/>
</svg>
