<svg xmlns="http://www.w3.org/2000/svg" width="16" height="16" version="1.1"><defs><linearGradient id="linear0" x1="0%" x2="0%" y1="0%" y2="100%"><stop offset="0%" style="stop-color:#00b54e; stop-opacity:1"/><stop offset="50%" style="stop-color:#0073ff; stop-opacity:1"/><stop offset="100%" style="stop-color:#ffd000; stop-opacity:1"/></linearGradient></defs>
 <path style="fill:url(#linear0)"  d="M 5.5,0 A 1.5,1.5 0 0 0 4,1.5 1.5,1.5 0 0 0 5.5,3 H 7 V 1.5 A 1.5,1.5 0 0 0 5.5,0 Z M 9.5,0 A 1.5,1.5 0 0 0 8,1.5 V 5.5 A 1.5,1.5 0 0 0 9.5,7 1.5,1.5 0 0 0 11,5.5 V 1.5 A 1.5,1.5 0 0 0 9.5,0 Z M 1.5,4 A 1.5,1.5 0 0 0 0,5.5 1.5,1.5 0 0 0 1.5,7 H 5.5 A 1.5,1.5 0 0 0 7,5.5 1.5,1.5 0 0 0 5.5,4 Z M 13.5,4 A 1.5,1.5 0 0 0 12,5.5 V 7 H 13.5 A 1.5,1.5 0 0 0 15,5.5 1.5,1.5 0 0 0 13.5,4 Z M 1.5,8 A 1.5,1.5 0 0 0 0,9.5 1.5,1.5 0 0 0 1.5,11 1.5,1.5 0 0 0 3,9.5 V 8 Z M 5.5,8 A 1.5,1.5 0 0 0 4,9.5 V 13.5 A 1.5,1.5 0 0 0 5.5,15 1.5,1.5 0 0 0 7,13.5 V 9.5 A 1.5,1.5 0 0 0 5.5,8 Z M 9.5,8 A 1.5,1.5 0 0 0 8,9.5 1.5,1.5 0 0 0 9.5,11 H 13.5 A 1.5,1.5 0 0 0 15,9.5 1.5,1.5 0 0 0 13.5,8 Z M 8,12 V 13.5 A 1.5,1.5 0 0 0 9.5,15 1.5,1.5 0 0 0 11,13.5 1.5,1.5 0 0 0 9.5,12 Z"/>
</svg>
