<svg xmlns="http://www.w3.org/2000/svg" width="16" height="16" version="1.1"><defs><linearGradient id="linear0" x1="0%" x2="0%" y1="0%" y2="100%"><stop offset="0%" style="stop-color:#00b54e; stop-opacity:1"/><stop offset="50%" style="stop-color:#0073ff; stop-opacity:1"/><stop offset="100%" style="stop-color:#ffd000; stop-opacity:1"/></linearGradient></defs>
 <path style="fill:url(#linear0)" class="ColorScheme-Highlight" d="M 4,1 C 3,1 3,2 3,2 V 14 C 3,14 3,15 4,15 H 12 C 13,15 13,14 13,14 V 2 C 13,2 13,1 12,1 Z M 11,4 V 12 H 5 V 4.002 Z M 7.5,13 H 8.5 C 8.5,13 9,13 9,13.5 9,14 8.5,14 8.5,14 H 7.5 C 7.5,14 7,14 7,13.5 7,13 7.5,13 7.5,13 Z"/>
</svg>
