<svg xmlns="http://www.w3.org/2000/svg" width="16" height="16" version="1"><defs><linearGradient id="linear0" x1="0%" x2="0%" y1="0%" y2="100%"><stop offset="0%" style="stop-color:#00b54e; stop-opacity:1"/><stop offset="50%" style="stop-color:#ffd000; stop-opacity:1"/><stop offset="100%" style="stop-color:#ff00bb; stop-opacity:1"/></linearGradient></defs>
 <path style="fill:url(#linear0)"  d="M 8 1 C 4.122 1 1 4.122 1 8 C 1 11.878 4.122 15 8 15 C 11.878 15 15 11.878 15 8 C 15 4.122 11.878 1 8 1 z M 8 2 A 2 2 0 0 1 10 4 A 2 2 0 0 1 8 6 A 2 2 0 0 1 6 4 A 2 2 0 0 1 8 2 z M 4 6 A 2 2 0 0 1 6 8 A 2 2 0 0 1 4 10 A 2 2 0 0 1 2 8 A 2 2 0 0 1 4 6 z M 12 6 A 2 2 0 0 1 14 8 A 2 2 0 0 1 12 10 A 2 2 0 0 1 10 8 A 2 2 0 0 1 12 6 z M 7.4882812 6.6347656 A 0.5 0.5 0 0 1 7.9335938 6.8847656 A 0.5 0.5 0 0 1 7.7519531 7.5664062 A 0.5 0.5 0 0 1 7.0664062 7.3847656 A 0.5 0.5 0 0 1 7.2519531 6.7011719 A 0.5 0.5 0 0 1 7.4882812 6.6347656 z M 8.8535156 7 A 0.5 0.5 0 0 1 9.3007812 7.25 A 0.5 0.5 0 0 1 9.1152344 7.9335938 A 0.5 0.5 0 0 1 8.4335938 7.75 A 0.5 0.5 0 0 1 8.6152344 7.0664062 A 0.5 0.5 0 0 1 8.8535156 7 z M 7.1230469 8 A 0.5 0.5 0 0 1 7.5664062 8.25 A 0.5 0.5 0 0 1 7.3867188 8.9335938 A 0.5 0.5 0 0 1 6.7011719 8.75 A 0.5 0.5 0 0 1 6.8847656 8.0664062 A 0.5 0.5 0 0 1 7.1230469 8 z M 8.4882812 8.3652344 A 0.5 0.5 0 0 1 8.9335938 8.6152344 A 0.5 0.5 0 0 1 8.75 9.2988281 A 0.5 0.5 0 0 1 8.0664062 9.1152344 A 0.5 0.5 0 0 1 8.25 8.4335938 A 0.5 0.5 0 0 1 8.4882812 8.3652344 z M 8 10 A 2 2 0 0 1 10 12 A 2 2 0 0 1 8 14 A 2 2 0 0 1 6 12 A 2 2 0 0 1 8 10 z"/>
</svg>
