<svg xmlns="http://www.w3.org/2000/svg" width="16" height="16" version="1.1"><defs><linearGradient id="linear0" x1="0%" x2="0%" y1="0%" y2="100%"><stop offset="0%" style="stop-color:#00b6c7; stop-opacity:1"/><stop offset="50%" style="stop-color:#ff0000; stop-opacity:1"/><stop offset="100%" style="stop-color:#6a00ff; stop-opacity:1"/></linearGradient></defs>
 <path style="fill:url(#linear0)"  d="M 6.749068,5 A 0.73085587,0.79027464 0 0 0 6.001021,5.792969 v 4.416015 a 0.73085587,0.79027464 0 0 0 1.095703,0.685547 l 3.539063,-2.208984 a 0.73085587,0.79027464 0 0 0 0,-1.369141 L 7.096724,5.105469 A 0.73085587,0.79027464 0 0 0 6.749068,5 Z"/>
 <path style="opacity:0.3;fill:url(#linear0)"  d="M 8.001021,0 C 3.5945875,0 0.00102086,3.5935666 0.00102086,8 c 0,4.406433 3.59356664,8 8.00000014,8 4.406433,0 8,-3.593567 8,-8 0,-4.4064334 -3.593567,-8 -8,-8 z m 0,2 c 3.325553,0 6,2.6744469 6,6 0,3.325553 -2.674447,6 -6,6 -3.3255532,0 -6.0000001,-2.674447 -6.0000001,-6 0,-3.3255531 2.6744469,-6 6.0000001,-6 z"/>
 <path style="fill:url(#linear0)"  d="m 8.001021,0 v 2 a 6,6 0 0 1 6,6 6,6 0 0 1 -6,6 6,6 0 0 1 -6.0000001,-6 6,6 0 0 1 3.5625,-5.4746094 L 4.7471147,0.6914062 A 8,8 0 0 0 0.39164586,10.472656 8,8 0 0 0 9.665083,15.824219 8,8 0 0 0 15.958052,7.164062 8,8 0 0 0 8.001021,0 Z"/>
</svg>
