<svg xmlns="http://www.w3.org/2000/svg" width="16" height="16" version="1.1"><defs><linearGradient id="linear0" x1="0%" x2="0%" y1="0%" y2="100%"><stop offset="0%" style="stop-color:#00b6c7; stop-opacity:1"/><stop offset="50%" style="stop-color:#ff0000; stop-opacity:1"/><stop offset="100%" style="stop-color:#6a00ff; stop-opacity:1"/></linearGradient></defs>
 <path style="fill:url(#linear0)"  d="M 6.748047,4.9988678 A 0.73085587,0.79027464 0 0 0 6,5.7918368 v 4.4160142 a 0.73085587,0.79027464 0 0 0 1.095703,0.685547 l 3.539063,-2.2089836 a 0.73085587,0.79027464 0 0 0 0,-1.369141 L 7.095703,5.1043368 A 0.73085587,0.79027464 0 0 0 6.748047,4.9988678 Z"/>
 <path style="opacity:0.3;fill:url(#linear0)"  d="m 8,-0.00113219 c -4.4064334,0 -8,3.59356659 -8,7.99999959 0,4.4064326 3.5935666,7.9999996 8,7.9999996 4.406433,0 8,-3.593567 8,-7.9999996 0,-4.406433 -3.593567,-7.99999959 -8,-7.99999959 z M 8,1.9988678 c 3.325553,0 6,2.6744469 6,5.9999996 0,3.3255526 -2.674447,5.9999996 -6,5.9999996 -3.3255531,0 -6,-2.674447 -6,-5.9999996 C 2,4.6733147 4.6744469,1.9988678 8,1.9988678 Z"/>
 <path style="fill:url(#linear0)"  d="M 8,-0.00113219 V 1.9988678 A 6,6 0 0 1 14,7.9988674 6,6 0 0 1 8,13.998867 6,6 0 0 1 4.4765625,12.848476 L 3.296875,14.471523 a 8,8 0 0 0 9.40625,0 8,8 0 0 0 2.90625,-8.9453112 A 8,8 0 0 0 8,-0.00113219 Z"/>
</svg>
