<svg xmlns="http://www.w3.org/2000/svg" width="16" height="16" version="1.1"><defs><linearGradient id="linear0" x1="0%" x2="100%" y1="0%" y2="100%"><stop offset="0%" style="stop-color:#ff0000; stop-opacity:1"/><stop offset="50%" style="stop-color:#ffd000; stop-opacity:1"/><stop offset="100%" style="stop-color:#ff00bb; stop-opacity:1"/></linearGradient></defs>
 <path style="fill:url(#linear0)"  d="M 2.0234375 0 C 1.4566955 0 1 0.4566955 1 1.0234375 L 1 13.976562 C 1 14.543306 1.4566955 15 2.0234375 15 L 8.7617188 15 A 4.5 4.5 0 0 1 8 12.5 A 4.5 4.5 0 0 1 8.03125 12 L 7 12 L 7 6 L 4 6 L 4 3 L 13 3 L 13 6 L 10 6 L 10 8.7617188 A 4.5 4.5 0 0 1 12.5 8 A 4.5 4.5 0 0 1 16 9.6738281 L 16 1.0234375 C 16 0.4566955 15.543307 0 14.976562 0 L 2.0234375 0 z M 12.5 9 A 3.5 3.5 0 0 0 9 12.5 A 3.5 3.5 0 0 0 12.5 16 A 3.5 3.5 0 0 0 16 12.5 A 3.5 3.5 0 0 0 12.5 9 z M 10 12 L 15 12 L 15 13 L 10 13 L 10 12 z"/>
</svg>
