<svg xmlns="http://www.w3.org/2000/svg" width="16" height="16" version="1.1"><defs><linearGradient id="linear0" x1="0%" x2="0%" y1="0%" y2="100%"><stop offset="0%" style="stop-color:#00b6c7; stop-opacity:1"/><stop offset="50%" style="stop-color:#ff0000; stop-opacity:1"/><stop offset="100%" style="stop-color:#6a00ff; stop-opacity:1"/></linearGradient></defs>
 <path style="fill:url(#linear0)"  d="M 6,3 A 4,4 0 0 0 2,7 4,4 0 0 0 2.0058594,7.171875 3,3 0 0 0 0,10 3,3 0 0 0 3,13 l 10,0 A 3,3 0 0 0 16,10 3,3 0 0 0 13.990234,7.171875 3,3 0 0 0 14,7 3,3 0 0 0 11,4 3,3 0 0 0 9.1992188,4.6054688 4,4 0 0 0 6,3 Z"/>
</svg>
