<svg xmlns="http://www.w3.org/2000/svg" width="16" height="16" version="1.1"><defs><linearGradient id="linear0" x1="0%" x2="0%" y1="0%" y2="100%"><stop offset="0%" style="stop-color:#00b54e; stop-opacity:1"/><stop offset="50%" style="stop-color:#ffd000; stop-opacity:1"/><stop offset="100%" style="stop-color:#ff00bb; stop-opacity:1"/></linearGradient></defs>
 <path style="fill:url(#linear0)"  d="M 3,2 C 3,2 1,2 1,4 V 9.5 A 2.5,2.5 0 0 1 3.5,7 2.5,2.5 0 0 1 6,9.5 2.5,2.5 0 0 1 3.5,12 H 8 L 10,15 12,12 H 13 C 14.11,12 15,11.11 15,10 V 9 7 4 C 15,2 13.029,2 13.029,2 Z"/>
 <circle style="fill:url(#linear0)" class="ColorScheme-Highlight" cx="3.5" cy="9.5" r="1.5"/>
</svg>
