<svg xmlns="http://www.w3.org/2000/svg" width="16" height="16" version="1.1"><defs><linearGradient id="linear0" x1="0%" x2="0%" y1="0%" y2="100%"><stop offset="0%" style="stop-color:#00b6c7; stop-opacity:1"/><stop offset="50%" style="stop-color:#ff0000; stop-opacity:1"/><stop offset="100%" style="stop-color:#6a00ff; stop-opacity:1"/></linearGradient></defs>
 <path style="fill:url(#linear0);opacity:0.3"  d="M 1 1 L 4.6074219 13.976562 L 4.8378906 13.224609 L 6.1347656 8.0625 L 4.25 1 L 1 1 z M 7.7402344 13.970703 C 7.7373459 13.983236 7.7372776 13.987414 7.734375 14 L 7.75 14 L 7.7402344 13.970703 z"/>
 <path d="M 8.89575,8.004 6.14975,8 4.83725,13.224 4.59975,14 l 3.1354,-6e-6 c 1.3713,-5.946 1.1609,-5.9965 1.1609,-5.9965 z" style="fill:url(#linear0);opacity:0.15" />
 <path d="m 8.09975,1 -1.9495,7 1.6,6 h 7.25 l -1.5,-3 h -3.25 l -0.75,-3 1,-4 h 3 l 1.5,-3 z" style="fill:url(#linear0)" />
</svg>
