<svg xmlns="http://www.w3.org/2000/svg" width="16" height="16" version="1.1"><defs><linearGradient id="linear0" x1="0%" x2="0%" y1="0%" y2="100%"><stop offset="0%" style="stop-color:#00b6c7; stop-opacity:1"/><stop offset="50%" style="stop-color:#ff0000; stop-opacity:1"/><stop offset="100%" style="stop-color:#6a00ff; stop-opacity:1"/></linearGradient></defs>
 <path style="fill:url(#linear0)"  d="M 5.6152344 2 C 4.7475164 2 4.3800613 2.0133915 4.0976562 2.5 L 0.01171875 7.7753906 C 0.54362265 7.2989106 1.237417 7 2 7 L 8 7 L 14 7 C 14.762583 7 15.456377 7.2989106 15.988281 7.7753906 L 11.902344 2.5 C 11.619939 2.0133915 11.252484 2 10.384766 2 L 8 2 L 5.6152344 2 z M 2 8 C 0.892 8 0 8.892 0 10 L 0 12 C 0 13.108 0.892 14 2 14 L 14 14 C 15.108 14 16 13.108 16 12 L 16 10 C 16 8.892 15.108 8 14 8 L 2 8 z M 10 9 C 10.574405 9.000649 11.120803 9.2482345 11.5 9.6796875 C 11.879197 9.2482345 12.425595 9.000649 13 9 C 14.104569 9 15 9.895431 15 11 C 15 12.104569 14.104569 13 13 13 C 12.425595 12.999351 11.879197 12.751765 11.5 12.320312 C 11.120803 12.751766 10.574405 12.999351 10 13 C 8.895431 13 8 12.104569 8 11 C 8 9.895431 8.895431 9 10 9 z M 10 10 A 1 1 0 0 0 9 11 A 1 1 0 0 0 10 12 A 1 1 0 0 0 11 11 A 1 1 0 0 0 10 10 z M 13 10 A 1 1 0 0 0 12 11 A 1 1 0 0 0 13 12 A 1 1 0 0 0 14 11 A 1 1 0 0 0 13 10 z"/>
</svg>
