/* XPM */
static char * maximize_active_xpm[] = {
"20 24 45 1",
" 	c #455D7C",
".	c #B2CCED",
"+	c #98B9E2",
"@	c #86ABD9",
"#	c #82A8D7",
"$	c #96B8E1",
"%	c #84A9D8",
"&	c #729BCD",
"*	c #48668A",
"=	c #7099CC",
"-	c #8BAFDC",
";	c #7EA4D4",
">	c #9CBCE4",
",	c #7FA5D5",
"'	c #9EBDE5",
")	c #9ABBE3",
"!	c #81A7D6",
"~	c #4E76A8",
"{	c #96B7E1",
"]	c #E1EAF6",
"^	c #84A9D7",
"/	c #94B6E0",
"(	c #85AAD8",
"_	c #92B4DF",
":	c #90B3DE",
"<	c #88ACDA",
"[	c #89AEDB",
"}	c #83A8D7",
"|	c #8BAFDB",
"1	c #80A6D6",
"2	c #8CB0DC",
"3	c #7EA5D4",
"4	c #8EB1DD",
"5	c #7CA3D3",
"6	c #8FB2DE",
"7	c #7AA1D2",
"8	c #91B3DF",
"9	c #789FD0",
"0	c #88ADDB",
"a	c #8DB1DD",
"b	c #648EC3",
"c	c #749DCF",
"d	c #7BA2D2",
"e	c #94B6E1",
"f	c #79A1D1",
"                    ",
"....................",
"++@##############@++",
"$%&**************&%$",
"%=*-............-*=%",
";*@>>>>>>>>>>>>>>=*;",
",*'))))))))))))))@*,",
"!*'++~~~~~~~~~~++@*!",
"#*'{{~]]]]]]]]~{{@*#",
"^*'//~]]]]]]]]~//@*^",
"(*'__~]~~~~~~]~__@*(",
"@*'::~]~::::~]~::@*@",
"<*'((~]~((((~]~((@*<",
"[*'}}~]~}}}}~]~}}@*[",
"|*'11~]~~~~~~]~11@*|",
"2*'33~]]]]]]]]~33@*2",
"4*'55~~~~~~~~~~55@*4",
"6*'77777777777777@*6",
"8*@99999999999999=*8",
"0a*bccccccccccccb*a0",
"5@-**************-@5",
"ddaeeeeeeeeeeeeeeadd",
"ffffffffffffffffffff",
"~~~~~~~~~~~~~~~~~~~~"};
