<?xml version="1.0" encoding="UTF-8" standalone="no"?>
<svg
   width="64"
   height="64"
   version="1.1"
   viewBox="0 0 16.933 16.933"
   id="svg7"
   sodipodi:docname="printer.svg"
   inkscape:version="1.4 (e7c3feb100, 2024-10-09)"
   xmlns:inkscape="http://www.inkscape.org/namespaces/inkscape"
   xmlns:sodipodi="http://sodipodi.sourceforge.net/DTD/sodipodi-0.dtd"
   xmlns:xlink="http://www.w3.org/1999/xlink"
   xmlns="http://www.w3.org/2000/svg"
   xmlns:svg="http://www.w3.org/2000/svg"
   xmlns:rdf="http://www.w3.org/1999/02/22-rdf-syntax-ns#"
   xmlns:cc="http://creativecommons.org/ns#"
   xmlns:dc="http://purl.org/dc/elements/1.1/">
  <sodipodi:namedview
     id="namedview7"
     pagecolor="#9c4444"
     bordercolor="#000000"
     borderopacity="0.25"
     inkscape:showpageshadow="2"
     inkscape:pageopacity="0.0"
     inkscape:pagecheckerboard="0"
     inkscape:deskcolor="#d1d1d1"
     inkscape:zoom="4.3531261"
     inkscape:cx="57.889433"
     inkscape:cy="33.768836"
     inkscape:window-width="1280"
     inkscape:window-height="669"
     inkscape:window-x="180"
     inkscape:window-y="166"
     inkscape:window-maximized="0"
     inkscape:current-layer="svg7"
     showgrid="false" />
  <defs
     id="defs2">
    <linearGradient
       id="linearGradient1"
       inkscape:collect="always">
      <stop
         style="stop-color:#d8dee9;stop-opacity:1;"
         offset="0"
         id="stop1" />
      <stop
         style="stop-color:#eceff4;stop-opacity:1;"
         offset="1"
         id="stop2" />
    </linearGradient>
    <linearGradient
       inkscape:collect="always"
       id="linearGradient1134">
      <stop
         style="stop-color:#2e3440;stop-opacity:1;"
         offset="0"
         id="stop1130" />
      <stop
         style="stop-color:#4c566a;stop-opacity:1;"
         offset="1"
         id="stop1132" />
    </linearGradient>
    <filter
       style="color-interpolation-filters:sRGB;"
       inkscape:label="Blur"
       id="filter3"
       x="-0.10843471"
       y="-0.10870992"
       width="1.2168694"
       height="1.2174198">
      <feGaussianBlur
         stdDeviation="0.5 0.5"
         result="blur"
         id="feGaussianBlur3" />
    </filter>
    <linearGradient
       inkscape:collect="always"
       xlink:href="#linearGradient1134"
       id="linearGradient4"
       x1="14.388208"
       y1="14.440324"
       x2="2.2869277"
       y2="2.3637428"
       gradientUnits="userSpaceOnUse" />
    <linearGradient
       inkscape:collect="always"
       xlink:href="#linearGradient1"
       id="linearGradient7"
       x1="11.804893"
       y1="11.525164"
       x2="4.9831295"
       y2="5.2041602"
       gradientUnits="userSpaceOnUse" />
  </defs>
  <metadata
     id="metadata2">
    <rdf:RDF>
      <cc:Work
         rdf:about="">
        <dc:format>image/svg+xml</dc:format>
        <dc:type
           rdf:resource="http://purl.org/dc/dcmitype/StillImage" />
      </cc:Work>
    </rdf:RDF>
  </metadata>
  <ellipse
     style="opacity:1;fill:none;stroke:#000000;stroke-width:0.582072;stroke-dasharray:none;stroke-opacity:1;filter:url(#filter3)"
     id="path1-5"
     cx="8.4450111"
     cy="8.423522"
     rx="6.8752708"
     ry="6.8578653" />
  <ellipse
     style="opacity:1;fill:#2b323e;stroke-width:0.58207188;stroke-opacity:1;stroke:#f5bde6;stroke-dasharray:none;fill-opacity:1"
     id="path1"
     cx="8.4450111"
     cy="8.423522"
     rx="6.8752708"
     ry="6.8578653" />
  <ellipse
     style="fill:url(#linearGradient4);stroke:none;stroke-width:0.515624;stroke-dasharray:none;stroke-opacity:1"
     id="path1-2"
     cx="8.4450111"
     cy="8.423522"
     rx="6.0904069"
     ry="6.0749874" />
  <path
     style="color:#444444;fill:#000000;fill-opacity:1;stroke:none;stroke-width:0.221945;stroke-dasharray:none;stroke-opacity:0.3;opacity:0.3"
     class="ColorScheme-Text"
     d="m 7.5601185,5.8232431 c -0.1789346,0 -0.1786863,2.672e-4 -0.3486077,0.1808563 L 6.7266053,6.7179154 H 5.5916647 c -0.3936568,0 -0.7155641,0.2935263 -0.7155641,0.6762463 v 3.9963193 c 0,0.382722 0.3219073,0.69547 0.7155641,0.69547 h 5.7262533 c 0.393656,0 0.715562,-0.312748 0.715562,-0.69547 V 7.3941617 c 0,-0.38272 -0.321906,-0.6762463 -0.715562,-0.6762463 H 10.182976 L 9.6919548,5.9971101 C 9.5285975,5.8235443 9.5283979,5.8232431 9.3494631,5.8232431 Z m 3.7971155,1.3420086 a 0.22366809,0.2236681 0 0 1 0.0052,0 0.22366809,0.2236681 0 0 1 0.223684,0.2236682 0.22366809,0.2236681 0 0 1 -0.223677,0.2236678 0.22366809,0.2236681 0 0 1 -0.223669,-0.2236678 0.22366809,0.2236681 0 0 1 0.218426,-0.2236682 z m -2.9295284,0.447336 a 1.7893448,1.7893448 0 0 1 0.027086,0 A 1.7893448,1.7893448 0 0 1 10.244136,9.4019332 1.7893448,1.7893448 0 0 1 8.4547911,11.191278 1.7893448,1.7893448 0 0 1 6.6654469,9.4019332 1.7893448,1.7893448 0 0 1 8.4277056,7.6125877 Z m 0.00523,0.8946727 A 0.89467238,0.89467238 0 0 0 7.5601097,9.4019332 0.89467238,0.89467238 0 0 0 8.4547826,10.296605 0.89467238,0.89467238 0 0 0 9.3494551,9.4019332 0.89467238,0.89467238 0 0 0 8.4547826,8.5072604 a 0.89467238,0.89467238 0 0 0 -0.021845,0 z"
     id="path5-3-7" />
  <path
     style="color:#444444;fill:url(#linearGradient7);fill-opacity:1;stroke:none;stroke-width:0.221945;stroke-dasharray:none;stroke-opacity:0.3"
     class="ColorScheme-Text"
     d="m 7.5601185,5.2940869 c -0.1789346,0 -0.1786863,2.672e-4 -0.3486077,0.1808563 L 6.7266053,6.1887592 H 5.5916647 c -0.3936568,0 -0.7155641,0.2935263 -0.7155641,0.6762463 v 3.9963195 c 0,0.382722 0.3219073,0.69547 0.7155641,0.69547 h 5.7262533 c 0.393656,0 0.715562,-0.312748 0.715562,-0.69547 V 6.8650055 c 0,-0.38272 -0.321906,-0.6762463 -0.715562,-0.6762463 H 10.182976 L 9.6919548,5.4679539 C 9.5285975,5.2943881 9.5283979,5.2940869 9.3494631,5.2940869 Z m 3.7971155,1.3420086 a 0.22366809,0.2236681 0 0 1 0.0052,0 0.22366809,0.2236681 0 0 1 0.223684,0.2236682 0.22366809,0.2236681 0 0 1 -0.223677,0.2236678 0.22366809,0.2236681 0 0 1 -0.223669,-0.2236678 0.22366809,0.2236681 0 0 1 0.218426,-0.2236682 z m -2.9295284,0.447336 a 1.7893448,1.7893448 0 0 1 0.027086,0 A 1.7893448,1.7893448 0 0 1 10.244136,8.872777 1.7893448,1.7893448 0 0 1 8.4547911,10.662122 1.7893448,1.7893448 0 0 1 6.6654469,8.872777 1.7893448,1.7893448 0 0 1 8.4277056,7.0834315 Z m 0.00523,0.8946727 A 0.89467238,0.89467238 0 0 0 7.5601097,8.872777 0.89467238,0.89467238 0 0 0 8.4547826,9.7674488 0.89467238,0.89467238 0 0 0 9.3494551,8.872777 0.89467238,0.89467238 0 0 0 8.4547826,7.9781042 a 0.89467238,0.89467238 0 0 0 -0.021845,0 z"
     id="path5-3" />
</svg>
