<?xml version="1.0" encoding="UTF-8" standalone="no"?>
<svg
   width="64"
   height="64"
   version="1.1"
   viewBox="0 0 16.933 16.933"
   id="svg7"
   sodipodi:docname="internet.svg"
   inkscape:version="1.4 (e7c3feb100, 2024-10-09)"
   xmlns:inkscape="http://www.inkscape.org/namespaces/inkscape"
   xmlns:sodipodi="http://sodipodi.sourceforge.net/DTD/sodipodi-0.dtd"
   xmlns:xlink="http://www.w3.org/1999/xlink"
   xmlns="http://www.w3.org/2000/svg"
   xmlns:svg="http://www.w3.org/2000/svg"
   xmlns:rdf="http://www.w3.org/1999/02/22-rdf-syntax-ns#"
   xmlns:cc="http://creativecommons.org/ns#"
   xmlns:dc="http://purl.org/dc/elements/1.1/">
  <sodipodi:namedview
     id="namedview7"
     pagecolor="#9c4444"
     bordercolor="#000000"
     borderopacity="0.25"
     inkscape:showpageshadow="2"
     inkscape:pageopacity="0.0"
     inkscape:pagecheckerboard="0"
     inkscape:deskcolor="#d1d1d1"
     inkscape:zoom="4.3531261"
     inkscape:cx="36.755195"
     inkscape:cy="25.958357"
     inkscape:window-width="1280"
     inkscape:window-height="669"
     inkscape:window-x="56"
     inkscape:window-y="135"
     inkscape:window-maximized="0"
     inkscape:current-layer="svg7"
     showgrid="false" />
  <defs
     id="defs2">
    <linearGradient
       id="linearGradient1"
       inkscape:collect="always">
      <stop
         style="stop-color:#d8dee9;stop-opacity:1;"
         offset="0"
         id="stop1" />
      <stop
         style="stop-color:#eceff4;stop-opacity:1;"
         offset="1"
         id="stop2" />
    </linearGradient>
    <linearGradient
       inkscape:collect="always"
       id="linearGradient1134">
      <stop
         style="stop-color:#2e3440;stop-opacity:1;"
         offset="0"
         id="stop1130" />
      <stop
         style="stop-color:#4c566a;stop-opacity:1;"
         offset="1"
         id="stop1132" />
    </linearGradient>
    <filter
       style="color-interpolation-filters:sRGB;"
       inkscape:label="Blur"
       id="filter3"
       x="-0.10843471"
       y="-0.10870992"
       width="1.2168694"
       height="1.2174198">
      <feGaussianBlur
         stdDeviation="0.5 0.5"
         result="blur"
         id="feGaussianBlur3" />
    </filter>
    <linearGradient
       inkscape:collect="always"
       xlink:href="#linearGradient1134"
       id="linearGradient4"
       x1="14.388208"
       y1="14.440324"
       x2="2.2869277"
       y2="2.3637428"
       gradientUnits="userSpaceOnUse" />
    <filter
       style="color-interpolation-filters:sRGB"
       inkscape:label="Blur"
       id="filter3-8"
       x="-0.10843471"
       y="-0.10870992"
       width="1.2168694"
       height="1.2174198">
      <feGaussianBlur
         stdDeviation="0.5 0.5"
         result="blur"
         id="feGaussianBlur3-7" />
    </filter>
    <linearGradient
       inkscape:collect="always"
       xlink:href="#linearGradient1"
       id="linearGradient5"
       x1="11.850728"
       y1="11.91002"
       x2="4.9323807"
       y2="4.9204493"
       gradientUnits="userSpaceOnUse" />
  </defs>
  <metadata
     id="metadata2">
    <rdf:RDF>
      <cc:Work
         rdf:about="">
        <dc:format>image/svg+xml</dc:format>
        <dc:type
           rdf:resource="http://purl.org/dc/dcmitype/StillImage" />
      </cc:Work>
    </rdf:RDF>
  </metadata>
  <ellipse
     style="opacity:1;fill:none;stroke:#000000;stroke-width:0.582072;stroke-dasharray:none;stroke-opacity:1;filter:url(#filter3)"
     id="path1-5"
     cx="8.4450111"
     cy="8.423522"
     rx="6.8752708"
     ry="6.8578653" />
  <ellipse
     style="opacity:1;fill:#2b323e;stroke-width:0.58207188;stroke-opacity:1;stroke:#eed49f;stroke-dasharray:none;fill-opacity:1"
     id="path1"
     cx="8.4450111"
     cy="8.423522"
     rx="6.8752708"
     ry="6.8578653" />
  <ellipse
     style="fill:url(#linearGradient4);stroke:none;stroke-width:0.515624;stroke-dasharray:none;stroke-opacity:1"
     id="path1-2"
     cx="8.4450111"
     cy="8.423522"
     rx="6.0904069"
     ry="6.0749874" />
  <path
     id="path59-7"
     style="fill:#000000;fill-opacity:1;stroke:none;stroke-width:0.0964386;stroke-dasharray:none;stroke-dashoffset:2.2;stroke-opacity:0.6;opacity:0.3"
     d="m 8.4661422,5.5178515 c -3.5812691,0 -3.4396951,-0.00537 -3.5153545,0.1359969 -0.017501,0.0327 -0.028508,0.3496935 -0.028508,0.8314033 0,0.859884 0.00156,0.868903 0.175254,0.9445011 0.070661,0.030755 0.662045,0.037437 3.3522519,0.038322 2.9676734,0.00102 3.2751034,-0.0031 3.3611314,-0.04393 0.172364,-0.081795 0.178209,-0.1149377 0.169178,-0.9753453 l -0.0079,-0.7706489 -0.08973,-0.080382 -0.09019,-0.079916 z m 1.9525588,0.3009689 c 0.109439,0.00279 0.213688,0.048118 0.265453,0.1271177 0.101195,0.1544445 0.03665,0.3357787 -0.147214,0.4135986 -0.109112,0.046184 -0.162543,0.045972 -0.27246,-0.00186 -0.111374,-0.048474 -0.175255,-0.1422279 -0.175255,-0.2570407 0,-0.1207202 0.0388,-0.1885325 0.136932,-0.2392797 0.05945,-0.030743 0.126883,-0.044192 0.192544,-0.042529 z m -1.0033849,0.00141 c 0.3354183,0 0.4263578,0.4118222 0.1182387,0.535108 C 9.4162431,6.4022757 9.3978029,6.4030594 9.273244,6.3670198 9.0996284,6.3167759 9.02487,6.1289605 9.1115429,5.9613529 9.1606553,5.8663817 9.260544,5.8202154 9.4153161,5.8202154 Z m 1.8782509,0 c 0.349451,0 0.458602,0.4060282 0.143007,0.5323039 -0.06134,0.024548 -0.126754,0.043425 -0.145343,0.042061 -0.295196,-0.02166 -0.422054,-0.2878516 -0.228996,-0.4809075 0.08145,-0.081466 0.110971,-0.093468 0.231332,-0.093468 z M 8.2062998,5.9576128 c 0.067127,0 0.1789923,0.1262791 0.1789923,0.2018925 0,0.061148 -0.354456,0.5595349 -0.5453894,0.7669096 C 7.7146706,7.062431 7.505752,6.9998882 7.505752,6.8264035 c 0,-0.071713 0.056018,-0.1636539 0.2761999,-0.4519206 0.2705578,-0.3542222 0.3348352,-0.416873 0.4243479,-0.416873 z m -2.2993282,0.00467 c 0.036544,-0.00406 0.070006,0.012579 0.1102929,0.042525 C 6.1562123,6.1080803 6.1337654,6.1880189 5.8681818,6.5371171 5.7368895,6.7096961 5.5978492,6.8848452 5.559268,6.9264142 5.4749741,7.0172364 5.3586012,7.0257815 5.2797973,6.9469811 5.1754756,6.8426604 5.2065393,6.7648879 5.5139358,6.36327 5.7310697,6.0795828 5.8265725,5.971184 5.9069716,5.9622896 Z m 0.7767236,9.27e-4 c 0.012517,6.67e-5 0.025218,0.00231 0.03832,0.00563 0.089747,0.022507 0.1625825,0.1346554 0.1416047,0.2182329 C 6.8465312,6.2551632 6.3868154,6.870539 6.2911262,6.9535088 6.2169954,7.0177847 6.096663,7.0146091 6.0350224,6.9464958 5.9368718,6.838041 5.9689033,6.756893 6.2537397,6.3866204 6.5107641,6.0525035 6.596071,5.9627394 6.6836952,5.9632074 Z m 0.7295232,0.00563 c 0.077482,-0.00542 0.1649521,0.032624 0.1850675,0.085046 0.045329,0.1181215 0.011213,0.192009 -0.2467571,0.5313649 C 7.2060601,6.7766099 7.0672455,6.948638 7.0435498,6.9675341 6.9324129,7.0561541 6.7365055,6.9642041 6.7365055,6.823592 c 0,-0.095536 0.5545155,-0.827171 0.6439988,-0.8496297 0.010422,-0.00262 0.021645,-0.00436 0.032714,-0.00514 z M 8.4366996,8.0410116 C 6.7896801,8.0414935 5.1460438,8.0571168 5.087719,8.087278 4.923423,8.1722357 4.9222793,8.1775808 4.9222793,9.0299102 c 0,0.4794933 0.011166,0.7989979 0.028508,0.8314032 0.015493,0.028953 0.061626,0.071114 0.1028151,0.093468 0.064886,0.035215 0.5200273,0.040636 3.4069313,0.041593 l 3.3316903,9.271e-4 0.09019,-0.079916 0.08973,-0.080382 0.0079,-0.7706491 c 0.009,-0.8642534 0.0016,-0.9077203 -0.17385,-0.9809534 -0.07209,-0.03012 -1.722525,-0.044891 -3.3695462,-0.044397 z m 0.9702042,0.3098495 c 0.046492,9.9e-4 0.092577,0.015049 0.1504843,0.042529 0.183295,0.086979 0.2225728,0.3142764 0.078049,0.4500514 -0.048879,0.04591 -0.110482,0.067669 -0.2187126,0.076643 C 9.2737039,8.9319475 9.2608494,8.9273145 9.1690279,8.8354975 9.0106486,8.6771178 9.0493093,8.472213 9.2536179,8.386848 9.3132569,8.361929 9.3604081,8.349851 9.4069068,8.350864 Z m 1.8964772,0 c 0.04649,9.9e-4 0.09258,0.015049 0.150484,0.042529 0.183296,0.086979 0.222576,0.3142764 0.07804,0.4500514 -0.04887,0.045911 -0.110485,0.067668 -0.218716,0.076646 -0.143015,0.011862 -0.155868,0.00723 -0.247692,-0.084589 -0.158379,-0.1583799 -0.119718,-0.363285 0.08459,-0.4486496 0.05965,-0.02492 0.106787,-0.036997 0.153288,-0.035985 z m -0.871592,0.00608 c 0.01484,7.068e-4 0.0292,0.00258 0.04298,0.00563 0.108044,0.023734 0.236203,0.1324434 0.257971,0.2191843 0.0249,0.099193 -0.04842,0.2508515 -0.145345,0.3009692 -0.158323,0.081874 -0.402367,0.033643 -0.470142,-0.093001 -0.04573,-0.085454 -0.03227,-0.2356388 0.02758,-0.3117179 0.0598,-0.076004 0.182988,-0.1260013 0.286947,-0.1210415 z M 5.9121126,8.5135182 c 0.1022277,0 0.1920775,0.085961 0.1920775,0.183666 0,0.091592 -0.5303343,0.799614 -0.6262396,0.8360767 C 5.388976,9.5670935 5.379169,9.5655828 5.2970887,9.501019 5.1730939,9.4034843 5.1979561,9.3234193 5.4601911,8.9761923 5.7895742,8.5400557 5.8157688,8.5135228 5.9121126,8.5135221 Z m 0.7832666,0 c 0.070974,0 0.1785249,0.1158897 0.1785249,0.1925453 0,0.065978 -0.548739,0.7861778 -0.6267075,0.8225241 -0.072944,0.034003 -0.081486,0.033857 -0.1607654,0.00186 -0.075383,-0.030399 -0.095266,-0.063812 -0.098142,-0.1649557 -0.00178,-0.063002 0.061946,-0.1658951 0.2790042,-0.4509863 0.2852972,-0.3747178 0.3133142,-0.40098 0.4280862,-0.40098 z m 0.7388695,9.359e-4 c 0.052417,-0.00217 0.1039535,0.013664 0.1359968,0.049073 0.096948,0.1071308 0.061073,0.1975836 -0.2303999,0.5781077 -0.1518537,0.1982476 -0.2995303,0.3730849 -0.3280755,0.3883624 -0.028543,0.01528 -0.071919,0.02804 -0.096272,0.02804 -0.066465,0 -0.1789923,-0.126244 -0.1789923,-0.2004903 0,-0.057635 0.3815525,-0.5939774 0.5566051,-0.7823326 0.035531,-0.038228 0.088721,-0.058568 0.1411382,-0.060752 z m 0.7421407,0.00233 C 8.3018091,8.5033551 8.4086483,8.6098651 8.3764124,8.738305 8.3548484,8.824227 7.8505174,9.4800488 7.7730725,9.522968 7.6980875,9.5645191 7.6724336,9.564762 7.6020247,9.5248381 7.4352728,9.4302811 7.463555,9.3342001 7.7819515,8.9168261 7.9339286,8.7176055 8.0868602,8.5433732 8.1217104,8.5298661 c 0.018338,-0.00712 0.036763,-0.011167 0.054679,-0.013086 z m 0.2897528,2.0852808 c -3.5812619,0 -3.439696,-0.0054 -3.5153545,0.135997 -0.039048,0.07294 -0.038189,1.580824 9.27e-4,1.653929 0.016078,0.03006 0.068672,0.07859 0.1168357,0.107954 0.085414,0.05207 0.1681741,0.05317 3.3658051,0.05326 3.5961665,1.13e-4 3.4203755,0.0082 3.5092785,-0.163571 0.03824,-0.07394 0.04344,-0.190474 0.03647,-0.856171 l -0.0079,-0.771115 -0.08973,-0.07991 -0.09019,-0.08038 z m 0.8645847,0.303309 c 0.022737,-1.73e-4 0.050239,0.0021 0.085988,0.0052 0.108231,0.0089 0.1698463,0.03027 0.218717,0.07617 0.144525,0.135775 0.1052489,0.363072 -0.078047,0.450053 -0.1136836,0.05395 -0.1951179,0.05553 -0.3098482,0.0055 -0.1987655,-0.08647 -0.2347106,-0.291489 -0.078513,-0.447686 0.068865,-0.06887 0.093483,-0.08875 0.1617008,-0.08926 z m 1.0440451,0 c 0.151712,-0.01 0.301734,0.06872 0.345835,0.202361 0.03809,0.115392 0.0012,0.214611 -0.109826,0.296763 -0.210622,0.155748 -0.521556,0.02507 -0.521556,-0.219186 0,-0.120719 0.0388,-0.188534 0.136932,-0.239279 0.04705,-0.02434 0.09805,-0.03733 0.148615,-0.04066 z m 0.852434,0 c 0.02274,-1.73e-4 0.05023,0.0021 0.08599,0.0052 0.108229,0.0089 0.169845,0.03027 0.218719,0.07617 0.144524,0.135776 0.105244,0.363074 -0.07805,0.450054 -0.113686,0.05395 -0.195118,0.05553 -0.30985,0.0056 -0.198766,-0.08651 -0.23471,-0.291519 -0.07851,-0.447717 0.06886,-0.06886 0.09348,-0.08875 0.161702,-0.08926 z m -3.0316552,0.136464 c 0.075848,0 0.189741,0.121145 0.189741,0.201893 0,0.06113 -0.3544564,0.559537 -0.5453892,0.766911 -0.1303161,0.141537 -0.3341508,0.07666 -0.3341508,-0.106554 0,-0.06079 0.064427,-0.166819 0.2495613,-0.410329 0.2803349,-0.368728 0.3612138,-0.451921 0.4402377,-0.451921 z m -2.2652119,0.0069 c 0.029021,0.0028 0.057006,0.0181 0.089263,0.04205 0.135628,0.100785 0.1126334,0.182145 -0.1504847,0.529968 -0.1307694,0.17286 -0.2698317,0.348191 -0.3089137,0.389761 -0.085339,0.09074 -0.2016878,0.09925 -0.2804056,0.02053 -0.104074,-0.104075 -0.07287,-0.181817 0.2327364,-0.580443 0.235953,-0.307771 0.3307458,-0.410449 0.4178052,-0.401915 z m 0.7458789,0.0047 c 0.070302,0.0021 0.1451062,0.046 0.1752536,0.112162 0.043654,0.09581 0.00217,0.171952 -0.3135868,0.577169 -0.2332654,0.299349 -0.2660412,0.330442 -0.3537787,0.337889 -0.069903,0.0059 -0.1106029,-0.0075 -0.14768,-0.04861 -0.1004703,-0.111002 -0.069004,-0.188932 0.2308671,-0.575283 0.1551207,-0.199857 0.3090985,-0.375666 0.3420952,-0.390699 0.020649,-0.0094 0.043397,-0.01331 0.066829,-0.01264 z m 0.7351312,4.63e-4 c 0.066388,-0.0033 0.1503526,0.03212 0.1831979,0.08132 0.064295,0.09629 0.016545,0.199639 -0.256571,0.552401 -0.1520589,0.196403 -0.2908261,0.365934 -0.3084463,0.377145 -0.1109961,0.0706 -0.2930241,-0.02662 -0.2930241,-0.156562 0,-0.09649 0.5569139,-0.827766 0.6477376,-0.850563 0.00856,-0.0021 0.017623,-0.0033 0.027107,-0.0036 z" />
  <path
     id="path59"
     style="fill:url(#linearGradient5);stroke:none;stroke-width:0.0964386;stroke-dasharray:none;stroke-dashoffset:2.2;stroke-opacity:0.6;fill-opacity:1"
     d="m 8.4661422,4.9886953 c -3.5812691,0 -3.4396951,-0.00537 -3.5153545,0.1359969 -0.017501,0.0327 -0.028508,0.3496935 -0.028508,0.8314033 0,0.859884 0.00156,0.868903 0.175254,0.9445011 0.070661,0.030755 0.662045,0.037437 3.3522519,0.038322 2.9676734,0.00102 3.2751034,-0.0031 3.3611314,-0.04393 0.172364,-0.081795 0.178209,-0.1149377 0.169178,-0.9753453 l -0.0079,-0.7706489 -0.08973,-0.080382 -0.09019,-0.079916 z m 1.9525588,0.3009689 c 0.109439,0.00279 0.213688,0.048118 0.265453,0.1271177 0.101195,0.1544445 0.03665,0.3357787 -0.147214,0.4135986 -0.109112,0.046184 -0.162543,0.045972 -0.27246,-0.00186 -0.111374,-0.048474 -0.175255,-0.1422279 -0.175255,-0.2570407 0,-0.1207202 0.0388,-0.1885325 0.136932,-0.2392797 0.05945,-0.030743 0.126883,-0.044192 0.192544,-0.042529 z m -1.0033849,0.00141 c 0.3354183,0 0.4263578,0.4118222 0.1182387,0.535108 C 9.4162431,5.8731195 9.3978029,5.8739032 9.273244,5.8378636 9.0996284,5.7876197 9.02487,5.5998043 9.1115429,5.4321967 9.1606553,5.3372255 9.260544,5.2910592 9.4153161,5.2910592 Z m 1.8782509,0 c 0.349451,0 0.458602,0.4060282 0.143007,0.5323039 -0.06134,0.024548 -0.126754,0.043425 -0.145343,0.042061 -0.295196,-0.02166 -0.422054,-0.2878516 -0.228996,-0.4809075 0.08145,-0.081466 0.110971,-0.093468 0.231332,-0.093468 z M 8.2062998,5.4284566 c 0.067127,0 0.1789923,0.1262791 0.1789923,0.2018925 0,0.061148 -0.354456,0.5595349 -0.5453894,0.7669096 C 7.7146706,6.5332748 7.505752,6.470732 7.505752,6.2972473 c 0,-0.071713 0.056018,-0.1636539 0.2761999,-0.4519206 0.2705578,-0.3542222 0.3348352,-0.416873 0.4243479,-0.416873 z m -2.2993282,0.00467 c 0.036544,-0.00406 0.070006,0.012579 0.1102929,0.042525 C 6.1562123,5.5789241 6.1337654,5.6588627 5.8681818,6.0079609 5.7368895,6.1805399 5.5978492,6.355689 5.559268,6.397258 5.4749741,6.4880802 5.3586012,6.4966253 5.2797973,6.4178249 5.1754756,6.3135042 5.2065393,6.2357317 5.5139358,5.8341138 5.7310697,5.5504266 5.8265725,5.4420278 5.9069716,5.4331334 Z m 0.7767236,9.27e-4 c 0.012517,6.67e-5 0.025218,0.00231 0.03832,0.00563 0.089747,0.022507 0.1625825,0.1346554 0.1416047,0.2182329 C 6.8465312,5.726007 6.3868154,6.3413828 6.2911262,6.4243526 6.2169954,6.4886285 6.096663,6.4854529 6.0350224,6.4173396 5.9368718,6.3088848 5.9689033,6.2277368 6.2537397,5.8574642 6.5107641,5.5233473 6.596071,5.4335832 6.6836952,5.4340512 Z m 0.7295232,0.00563 c 0.077482,-0.00542 0.1649521,0.032624 0.1850675,0.085046 0.045329,0.1181215 0.011213,0.192009 -0.2467571,0.5313649 -0.1454687,0.1913592 -0.2842833,0.3633873 -0.307979,0.3822834 -0.1111369,0.08862 -0.3070443,-0.00333 -0.3070443,-0.1439421 0,-0.095536 0.5545155,-0.827171 0.6439988,-0.8496297 0.010422,-0.00262 0.021645,-0.00436 0.032714,-0.00514 z M 8.4366996,7.5118554 C 6.7896801,7.5123373 5.1460438,7.5279606 5.087719,7.5581218 4.923423,7.6430795 4.9222793,7.6484246 4.9222793,8.500754 c 0,0.4794933 0.011166,0.7989979 0.028508,0.8314032 0.015493,0.028953 0.061626,0.071114 0.1028151,0.093468 0.064886,0.035215 0.5200273,0.040636 3.4069313,0.041593 l 3.3316903,9.27e-4 0.09019,-0.079916 0.08973,-0.080382 0.0079,-0.7706492 c 0.009,-0.8642534 0.0016,-0.9077203 -0.17385,-0.9809534 -0.07209,-0.03012 -1.722525,-0.044891 -3.3695462,-0.044397 z m 0.9702042,0.3098495 c 0.046492,9.9e-4 0.092577,0.015049 0.1504843,0.042529 0.183295,0.086979 0.2225728,0.3142764 0.078049,0.4500514 -0.048879,0.04591 -0.110482,0.067669 -0.2187126,0.076643 -0.1430206,0.011863 -0.1558751,0.00723 -0.2476966,-0.084587 -0.1583793,-0.1583797 -0.1197186,-0.3632845 0.08459,-0.4486495 0.059639,-0.024919 0.1067902,-0.036997 0.1532889,-0.035984 z m 1.8964772,0 c 0.04649,9.9e-4 0.09258,0.015049 0.150484,0.042529 0.183296,0.086979 0.222576,0.3142764 0.07804,0.4500514 -0.04887,0.045911 -0.110485,0.067668 -0.218716,0.076646 -0.143015,0.011862 -0.155868,0.00723 -0.247692,-0.084589 -0.158379,-0.15838 -0.119718,-0.3632851 0.08459,-0.4486496 0.05965,-0.02492 0.106787,-0.036997 0.153288,-0.035985 z m -0.871592,0.00608 c 0.01484,7.068e-4 0.0292,0.00258 0.04298,0.00563 0.108044,0.023734 0.236203,0.1324434 0.257971,0.2191843 0.0249,0.099193 -0.04842,0.2508515 -0.145345,0.3009692 -0.158323,0.081874 -0.402367,0.033643 -0.470142,-0.093001 -0.04573,-0.085454 -0.03227,-0.2356389 0.02758,-0.311718 0.0598,-0.076004 0.182988,-0.1260013 0.286947,-0.1210415 z m -4.5196764,0.156577 c 0.1022277,0 0.1920775,0.085961 0.1920775,0.1836661 0,0.091592 -0.5303343,0.7996139 -0.6262396,0.8360767 C 5.388976,9.0379373 5.379169,9.0364266 5.2970887,8.9718628 5.1730939,8.8743281 5.1979561,8.7942631 5.4601911,8.4470361 5.7895742,8.0108995 5.8157688,7.9843666 5.9121126,7.9843659 Z m 0.7832666,0 c 0.070974,0 0.1785249,0.1158898 0.1785249,0.1925454 0,0.065978 -0.548739,0.7861778 -0.6267075,0.8225241 -0.072944,0.034003 -0.081486,0.033857 -0.1607654,0.00186 -0.075383,-0.030399 -0.095266,-0.063812 -0.098142,-0.1649558 -0.00178,-0.063002 0.061946,-0.1658951 0.2790042,-0.4509863 0.2852972,-0.3747178 0.3133142,-0.40098 0.4280862,-0.40098 z m 0.7388695,9.36e-4 c 0.052417,-0.00217 0.1039535,0.013664 0.1359968,0.049073 0.096948,0.1071308 0.061073,0.1975836 -0.2303999,0.5781077 -0.1518537,0.1982475 -0.2995303,0.3730849 -0.3280755,0.3883624 -0.028543,0.01528 -0.071919,0.02804 -0.096272,0.02804 -0.066465,0 -0.1789923,-0.126244 -0.1789923,-0.2004902 0,-0.057635 0.3815525,-0.5939775 0.5566051,-0.7823327 0.035531,-0.038228 0.088721,-0.058568 0.1411382,-0.060752 z m 0.7421407,0.00233 c 0.1254197,-0.013429 0.2322589,0.093081 0.200023,0.2215209 -0.021564,0.085922 -0.525895,0.7417438 -0.6033399,0.784663 -0.074985,0.041551 -0.1006389,0.041794 -0.1710478,0.00187 C 7.4352728,8.9011249 7.463555,8.8050439 7.7819515,8.3876699 7.9339286,8.1884493 8.0868602,8.014217 8.1217104,8.0007099 c 0.018338,-0.00712 0.036763,-0.011167 0.054679,-0.013086 z m 0.2897528,2.0852811 c -3.5812619,0 -3.439696,-0.0054 -3.5153545,0.135997 -0.039048,0.07294 -0.038189,1.580824 9.27e-4,1.653929 0.016078,0.03006 0.068672,0.07859 0.1168357,0.107954 0.085414,0.05207 0.1681741,0.05317 3.3658051,0.05326 3.5961665,1.13e-4 3.4203755,0.0082 3.5092785,-0.163571 0.03824,-0.07394 0.04344,-0.190474 0.03647,-0.856171 l -0.0079,-0.771115 -0.08973,-0.07991 -0.09019,-0.08038 z m 0.8645847,0.303309 c 0.022737,-1.73e-4 0.050239,0.0021 0.085988,0.0052 0.108231,0.0089 0.1698463,0.03027 0.218717,0.07617 0.144525,0.135775 0.1052489,0.363072 -0.078047,0.450053 -0.1136836,0.05395 -0.1951179,0.05553 -0.3098482,0.0055 -0.1987655,-0.08647 -0.2347106,-0.291489 -0.078513,-0.447686 0.068865,-0.06887 0.093483,-0.08875 0.1617008,-0.08926 z m 1.0440451,0 c 0.151712,-0.01 0.301734,0.06872 0.345835,0.202361 0.03809,0.115392 0.0012,0.214611 -0.109826,0.296763 -0.210622,0.155748 -0.521556,0.02507 -0.521556,-0.219186 0,-0.120719 0.0388,-0.188534 0.136932,-0.239279 0.04705,-0.02434 0.09805,-0.03733 0.148615,-0.04066 z m 0.852434,0 c 0.02274,-1.73e-4 0.05023,0.0021 0.08599,0.0052 0.108229,0.0089 0.169845,0.03027 0.218719,0.07617 0.144524,0.135776 0.105244,0.363074 -0.07805,0.450054 -0.113686,0.05395 -0.195118,0.05553 -0.30985,0.0056 -0.198766,-0.08651 -0.23471,-0.291519 -0.07851,-0.447717 0.06886,-0.06886 0.09348,-0.08875 0.161702,-0.08926 z m -3.0316552,0.136464 c 0.075848,0 0.189741,0.121145 0.189741,0.201893 0,0.06113 -0.3544564,0.559537 -0.5453892,0.766911 -0.1303161,0.141537 -0.3341508,0.07666 -0.3341508,-0.106554 0,-0.06079 0.064427,-0.166819 0.2495613,-0.410329 0.2803349,-0.368728 0.3612138,-0.451921 0.4402377,-0.451921 z m -2.2652119,0.0069 c 0.029021,0.0028 0.057006,0.0181 0.089263,0.04205 0.135628,0.100785 0.1126334,0.182145 -0.1504847,0.529968 -0.1307694,0.17286 -0.2698317,0.348191 -0.3089137,0.389761 -0.085339,0.09074 -0.2016878,0.09925 -0.2804056,0.02053 -0.104074,-0.104075 -0.07287,-0.181817 0.2327364,-0.580443 0.235953,-0.307771 0.3307458,-0.410449 0.4178052,-0.401915 z m 0.7458789,0.0047 c 0.070302,0.0021 0.1451062,0.046 0.1752536,0.112162 0.043654,0.09581 0.00217,0.171952 -0.3135868,0.577169 -0.2332654,0.299349 -0.2660412,0.330442 -0.3537787,0.337889 -0.069903,0.0059 -0.1106029,-0.0075 -0.14768,-0.04861 C 5.9359556,11.39189 5.967422,11.31396 6.267293,10.927609 6.4224137,10.727752 6.5763915,10.551943 6.6093882,10.53691 c 0.020649,-0.0094 0.043397,-0.01331 0.066829,-0.01264 z m 0.7351312,4.63e-4 c 0.066388,-0.0033 0.1503526,0.03212 0.1831979,0.08132 0.064295,0.09629 0.016545,0.199639 -0.256571,0.552401 -0.1520589,0.196403 -0.2908261,0.365934 -0.3084463,0.377145 -0.1109961,0.0706 -0.2930241,-0.02662 -0.2930241,-0.156562 0,-0.09649 0.5569139,-0.827766 0.6477376,-0.850563 0.00856,-0.0021 0.017623,-0.0033 0.027107,-0.0036 z" />
</svg>
