<?xml version="1.0" encoding="UTF-8" standalone="no"?>
<svg
   viewBox="0 0 22 22"
   version="1.1"
   id="svg1"
   sodipodi:docname="compass.svg"
   width="22"
   height="22"
   inkscape:version="1.3.2 (091e20ef0f, 2023-11-25)"
   xmlns:inkscape="http://www.inkscape.org/namespaces/inkscape"
   xmlns:sodipodi="http://sodipodi.sourceforge.net/DTD/sodipodi-0.dtd"
   xmlns:xlink="http://www.w3.org/1999/xlink"
   xmlns="http://www.w3.org/2000/svg"
   xmlns:svg="http://www.w3.org/2000/svg">
  <sodipodi:namedview
     id="namedview1"
     pagecolor="#ffffff"
     bordercolor="#999999"
     borderopacity="1"
     inkscape:showpageshadow="2"
     inkscape:pageopacity="0"
     inkscape:pagecheckerboard="0"
     inkscape:deskcolor="#d1d1d1"
     inkscape:zoom="10.482736"
     inkscape:cx="11.256603"
     inkscape:cy="26.042819"
     inkscape:window-width="1920"
     inkscape:window-height="996"
     inkscape:window-x="0"
     inkscape:window-y="0"
     inkscape:window-maximized="1"
     inkscape:current-layer="svg1" />
  <defs
     id="defs3051">
    <style
       type="text/css"
       id="current-color-scheme">
            .ColorScheme-Text {
                color:#d8d8d8;
            }
        </style>
    <linearGradient
       inkscape:collect="always"
       xlink:href="#linearGradient447"
       id="linearGradient1182"
       gradientUnits="userSpaceOnUse"
       gradientTransform="matrix(0.42042479,0,0,0.39500125,-18.827946,-223.36381)"
       x1="71.502342"
       y1="571.09741"
       x2="69.914032"
       y2="611.37042" />
    <linearGradient
       inkscape:collect="always"
       id="linearGradient447">
      <stop
         style="stop-color:#ff33ff;stop-opacity:1;"
         offset="0"
         id="stop443" />
      <stop
         style="stop-color:#ffccaa;stop-opacity:1"
         offset="1"
         id="stop445" />
    </linearGradient>
  </defs>
  <g
     id="22-22-compass">
    <path
       style="clip-rule:evenodd;fill:#ffffc1;fill-opacity:0;fill-rule:evenodd;stroke-width:0.688964;stroke-linejoin:round;stroke-miterlimit:1.41421"
       d="M 0,0 V 22 H 22 V 0 Z"
       id="rect817-5"
       inkscape:connector-curvature="0" />
    <path
       inkscape:connector-curvature="0"
       id="path9068-9-37-8-0-1-3"
       d="M 19.218138,2.2 2.566,2.2000056 V 18 h 16.817 z"
       style="display:inline;overflow:visible;visibility:visible;opacity:0.6;fill:url(#linearGradient1182);fill-opacity:1;fill-rule:nonzero;stroke:none;stroke-width:0.570523;marker:none"
       sodipodi:nodetypes="cccccc" />
    <path
       d="M 16.802946,1 H 5.196656 c -1.11265,0.0012 -2.17944,0.443811 -2.9661,1.230645 -0.78682,0.786678 -1.22936,1.853418 -1.23063,2.966079 v 11.606709 -1.58e-4 c 0.001,1.11263 0.44381,2.179402 1.23063,2.966079 0.78666,0.786834 1.85345,1.229354 2.9661,1.230646 h 11.60669 -1.6e-4 c 1.11265,-0.0012 2.17944,-0.443812 2.9661,-1.230646 0.78682,-0.786677 1.22936,-1.853449 1.23063,-2.966079 V 5.196944 c -0.002,-1.11263 -0.44381,-2.179402 -1.23063,-2.966078 -0.78666,-0.786835 -1.85345,-1.229354 -2.9661,-1.230646 z M 5.632926,3 h 10.734 c 0.73925,9.16e-4 1.5363,0.0032 2.059,0.526 0.52269,0.522677 0.57308,0.901432 0.574,1.640677 V 17 h -16 V 5.166677 C 3.000846,4.427432 3.051226,4.048709 3.573926,3.526 4.096596,3.003323 4.893686,3.000913 5.632926,3 Z"
       id="path1193-3-7-27-5"
       style="fill:#d3dae3;fill-opacity:1;stroke-width:0.0396825"
       sodipodi:nodetypes="ccccccccccccccccccccccccc" />
    <path
       d="M 14.860835,5.094558 8.609958,7.09382 C 8.334185,7.18471 8.150334,7.366454 8.058405,7.63908 l -2.022332,6.179544 c -0.09195,0.363505 0,0.727006 0.183839,0.908754 C 6.403769,14.909133 6.58761,15 6.863381,15 c 0.09195,0 0.183857,0 0.275786,-0.09086 l 6.250874,-1.999271 c 0.27578,-0.09087 0.459622,-0.272622 0.551551,-0.545258 l 2.022344,-6.179535 c 0.09193,-0.363504 0,-0.727012 -0.183851,-0.908763 C 15.504316,5.003682 15.136617,4.912806 14.860835,5.094558 Z M 11,11.364975 c -0.735404,0 -1.378873,-0.636122 -1.378873,-1.363128 0,-0.727006 0.643469,-1.363139 1.378873,-1.363139 0.735401,0 1.37887,0.636133 1.37887,1.363139 0,0.727006 -0.643469,1.363128 -1.37887,1.363128 z"
       id="path4-3-6"
       style="fill:#d3dae3;fill-opacity:1;stroke-width:0.0522277" />
  </g>
</svg>
