<?xml version="1.0" encoding="UTF-8" standalone="no"?>
<svg
   viewBox="0 0 32 32"
   version="1.1"
   id="svg1"
   sodipodi:docname="system-shutdown.svg"
   width="32"
   height="32"
   inkscape:version="1.3.2 (091e20ef0f, 2023-11-25)"
   xmlns:inkscape="http://www.inkscape.org/namespaces/inkscape"
   xmlns:sodipodi="http://sodipodi.sourceforge.net/DTD/sodipodi-0.dtd"
   xmlns:xlink="http://www.w3.org/1999/xlink"
   xmlns="http://www.w3.org/2000/svg"
   xmlns:svg="http://www.w3.org/2000/svg">
  <sodipodi:namedview
     id="namedview1"
     pagecolor="#ffffff"
     bordercolor="#999999"
     borderopacity="1"
     inkscape:showpageshadow="2"
     inkscape:pageopacity="0"
     inkscape:pagecheckerboard="0"
     inkscape:deskcolor="#d1d1d1"
     inkscape:zoom="8.4189901"
     inkscape:cx="27.200412"
     inkscape:cy="11.580961"
     inkscape:window-width="1920"
     inkscape:window-height="996"
     inkscape:window-x="0"
     inkscape:window-y="0"
     inkscape:window-maximized="1"
     inkscape:current-layer="svg1" />
  <defs
     id="defs3051">
    <style
       type="text/css"
       id="current-color-scheme">.ColorScheme-Text {color:#fcfcfc;}</style>
    <linearGradient
       inkscape:collect="always"
       xlink:href="#linearGradient2792"
       id="linearGradient3224"
       gradientUnits="userSpaceOnUse"
       gradientTransform="matrix(0.50999969,0,0,0.42750131,-11.969959,-248.94562)"
       x1="56.752419"
       y1="595.57635"
       x2="55.434933"
       y2="638.71967" />
    <linearGradient
       inkscape:collect="always"
       id="linearGradient2792">
      <stop
         style="stop-color:#ff2a7f;stop-opacity:1;"
         offset="0"
         id="stop2788" />
      <stop
         style="stop-color:#ff8080;stop-opacity:1"
         offset="1"
         id="stop2790" />
    </linearGradient>
  </defs>
  <g
     id="system-shutdown-7">
    <path
       style="color:#000000;overflow:visible;opacity:0;fill:none;fill-opacity:1;stroke-width:1.06667"
       id="path945"
       overflow="visible"
       d="M 16,0 C 7.17141,0 0,7.17141 0,16 0,24.828587 7.17141,32 16,32 24.82859,32 32,24.828587 32,16 32,7.17141 24.82859,0 16,0 Z"
       inkscape:connector-curvature="0" />
    <path
       inkscape:connector-curvature="0"
       id="path9068-9-37-8-0-1-6"
       d="m 26,6 -20.2,5e-6 V 23.1 h 20.4 z"
       style="display:inline;overflow:visible;visibility:visible;opacity:0.6;fill:url(#linearGradient3224);fill-opacity:1;fill-rule:nonzero;stroke:none;stroke-width:0.653705;marker:none"
       sodipodi:nodetypes="cccccc" />
    <rect
       x="-18"
       y="-21.000025"
       width="4"
       height="13"
       rx="2"
       ry="2.4581852"
       transform="scale(-1)"
       id="rect4-2-2"
       style="fill:#d3dae3;fill-opacity:1;stroke-width:0.579379" />
    <path
       d="M 22.96363,4 H 9.03607 C 7.70089,4.0015 6.42075,4.532573 5.476749,5.476774 4.532569,6.420787 4.001519,7.700875 4,9.036069 v 13.92805 -1.89e-4 c 0.001,1.335156 0.532569,2.615282 1.476749,3.559295 C 6.42075,27.467426 7.70089,27.99845 9.03607,28 h 13.92804 -2e-4 c 1.33518,-0.0015 2.61533,-0.532574 3.55932,-1.476775 0.94419,-0.944013 1.47523,-2.224139 1.47676,-3.559295 V 9.036333 C 27.99799,7.701177 27.46742,6.421051 26.52323,5.477039 25.57924,4.532837 24.29909,4.001814 22.96391,4.000264 Z M 9.2,6.000012 h 13.6 c 0.88709,0.0011 1.60376,0.04384 2.231,0.671244 0.62723,0.627213 0.9679,1.441663 0.969,2.328756 V 23.000025 H 6 V 9.000012 C 6.001,8.112919 6.34177,7.298507 6.969,6.671256 7.5962,6.044044 8.31292,6.001108 9.2,6.000012 Z"
       id="path1193-3-3-6-9"
       style="color:#d3dae3;fill:#d3dae3;fill-opacity:1;stroke-width:0.047619"
       sodipodi:nodetypes="ccccccccccccccccccccccccc"
       class="ColorScheme-Text" />
  </g>
</svg>
