<?xml version="1.0" encoding="UTF-8" standalone="no"?>
<svg
   version="1.1"
   viewBox="0 0 32 32"
   id="svg1"
   sodipodi:docname="system-lock-screen.svg"
   width="32"
   height="32"
   inkscape:version="1.3.2 (091e20ef0f, 2023-11-25)"
   xmlns:inkscape="http://www.inkscape.org/namespaces/inkscape"
   xmlns:sodipodi="http://sodipodi.sourceforge.net/DTD/sodipodi-0.dtd"
   xmlns:xlink="http://www.w3.org/1999/xlink"
   xmlns="http://www.w3.org/2000/svg"
   xmlns:svg="http://www.w3.org/2000/svg">
  <sodipodi:namedview
     id="namedview1"
     pagecolor="#ffffff"
     bordercolor="#999999"
     borderopacity="1"
     inkscape:showpageshadow="2"
     inkscape:pageopacity="0"
     inkscape:pagecheckerboard="0"
     inkscape:deskcolor="#d1d1d1"
     inkscape:zoom="2.9765625"
     inkscape:cx="71.895013"
     inkscape:cy="-9.4068242"
     inkscape:window-width="1920"
     inkscape:window-height="996"
     inkscape:window-x="0"
     inkscape:window-y="0"
     inkscape:window-maximized="1"
     inkscape:current-layer="svg1" />
  <defs
     id="defs1">
    <style
       type="text/css"
       id="current-color-scheme">.ColorScheme-Text {color:#fcfcfc;}</style>
    <linearGradient
       inkscape:collect="always"
       xlink:href="#linearGradient2101"
       id="linearGradient8713"
       gradientUnits="userSpaceOnUse"
       gradientTransform="matrix(0.50999969,0,0,0.43500136,130.03004,-253.51836)"
       x1="-225.84772"
       y1="593.50287"
       x2="-225.84772"
       y2="634.81744" />
    <linearGradient
       inkscape:collect="always"
       id="linearGradient2101">
      <stop
         style="stop-color:#ff80e5;stop-opacity:1"
         offset="0"
         id="stop2097" />
      <stop
         style="stop-color:#2affd5;stop-opacity:1"
         offset="1"
         id="stop2099" />
    </linearGradient>
  </defs>
  <g
     id="system-lock-screen-5">
    <path
       style="color:#000000;overflow:visible;opacity:0;fill:none;fill-opacity:1;stroke-width:1.06667"
       id="path953"
       overflow="visible"
       d="M 16,0 C 7.17237,0 0,7.17237 0,16 0,24.82763 7.17237,32 16,32 24.82763,32 32,24.82763 32,16 32,7.17237 24.82763,0 16,0 Z"
       inkscape:connector-curvature="0" />
    <path
       inkscape:connector-curvature="0"
       id="path9068-9-37-8-0-1-6-2-2-4"
       d="m 26,5.9 -20.2,5e-6 v 17.399993 h 20.4 z"
       style="display:inline;overflow:visible;visibility:visible;opacity:0.6;fill:url(#linearGradient8713);fill-opacity:1;fill-rule:nonzero;stroke:none;stroke-width:0.659415;marker:none"
       sodipodi:nodetypes="cccccc" />
    <path
       class="fil0"
       d="M 15.9958,17.235092 12.81875,20.41214 C 11.0357,22.21139 8.29631,19.471993 10.07935,17.672748 L 13.25641,14.4957 10.07935,11.318652 C 8.29631,9.535613 11.0357,6.796222 12.81875,8.57926 l 3.17705,3.177048 3.17705,-3.177048 c 1.79924,-1.783038 4.53863,0.956353 2.73938,2.739392 l -3.17704,3.177048 3.17704,3.177048 c 1.79925,1.799245 -0.94014,4.538642 -2.73938,2.739392 z"
       id="path6-7"
       style="fill:#d3dae3;fill-opacity:1;stroke-width:0.0162095;image-rendering:optimizeQuality;shape-rendering:geometricPrecision;text-rendering:geometricPrecision" />
    <path
       d="M 22.96363,4 H 9.03607 C 7.70089,4.0015 6.42075,4.532573 5.47675,5.476774 4.53257,6.420787 4.00153,7.700875 4,9.036069 v 13.92805 -1.89e-4 c 0.001,1.335156 0.53257,2.615282 1.47675,3.559295 C 6.42075,27.467426 7.70089,27.99845 9.03607,28 h 13.92804 -2e-4 c 1.33519,-0.0015 2.61533,-0.532574 3.55932,-1.476775 0.94419,-0.944013 1.47523,-2.224139 1.47676,-3.559295 V 9.036333 C 27.99799,7.701177 27.46742,6.421051 26.52323,5.477039 25.57924,4.532837 24.2991,4.001814 22.96391,4.000264 Z M 9.2,6.000012 h 13.6 c 0.8871,0.0011 1.60376,0.04384 2.231,0.671244 0.62723,0.627213 0.9679,1.441663 0.969,2.328756 V 23.000025 H 6 V 9.000012 C 6.001,8.112919 6.34177,7.298507 6.969,6.671256 7.5962,6.044044 8.31292,6.001108 9.2,6.000012 Z"
       id="path1193-3-3-7-8"
       style="color:#d3dae3;fill:#d3dae3;fill-opacity:1;stroke-width:0.047619"
       sodipodi:nodetypes="ccccccccccccccccccccccccc"
       class="ColorScheme-Text" />
  </g>
</svg>
