<?xml version="1.0" encoding="UTF-8" standalone="no"?>
<svg
   viewBox="0 0 22 22"
   version="1.1"
   id="svg1"
   sodipodi:docname="system-lock-screen.svg"
   width="22"
   height="22"
   inkscape:version="1.3.2 (091e20ef0f, 2023-11-25)"
   xmlns:inkscape="http://www.inkscape.org/namespaces/inkscape"
   xmlns:sodipodi="http://sodipodi.sourceforge.net/DTD/sodipodi-0.dtd"
   xmlns:xlink="http://www.w3.org/1999/xlink"
   xmlns="http://www.w3.org/2000/svg"
   xmlns:svg="http://www.w3.org/2000/svg">
  <sodipodi:namedview
     id="namedview1"
     pagecolor="#ffffff"
     bordercolor="#999999"
     borderopacity="1"
     inkscape:showpageshadow="2"
     inkscape:pageopacity="0"
     inkscape:pagecheckerboard="0"
     inkscape:deskcolor="#d1d1d1"
     inkscape:zoom="12.245804"
     inkscape:cx="9.8809357"
     inkscape:cy="2.735631"
     inkscape:window-width="1920"
     inkscape:window-height="996"
     inkscape:window-x="0"
     inkscape:window-y="0"
     inkscape:window-maximized="1"
     inkscape:current-layer="svg1" />
  <defs
     id="defs3051">
    <style
       type="text/css"
       id="current-color-scheme">.ColorScheme-Text {color:#fcfcfc;}</style>
    <linearGradient
       inkscape:collect="always"
       xlink:href="#linearGradient2101"
       id="linearGradient6472"
       gradientUnits="userSpaceOnUse"
       gradientTransform="matrix(0.43219982,0,0,0.36977632,89.510631,-185.8167)"
       x1="-287.7623"
       y1="511.56067"
       x2="-286.81046"
       y2="548.02716" />
    <linearGradient
       inkscape:collect="always"
       id="linearGradient2101">
      <stop
         style="stop-color:#ff80e5;stop-opacity:1"
         offset="0"
         id="stop2097" />
      <stop
         style="stop-color:#2affd5;stop-opacity:1"
         offset="1"
         id="stop2099" />
    </linearGradient>
  </defs>
  <g
     id="22-22-system-lock-screen"
     transform="translate(47)">
    <path
       style="fill:none"
       d="m -47,0 v 22 h 22 V 0 Z"
       id="path19" />
    <path
       inkscape:connector-curvature="0"
       id="path9068-9-37-8-0-1-0-1-3-7-4-6"
       d="M -27.481492,2.704 -44.6,2.7040048 V 17.495001 h 17.288 z"
       style="display:inline;overflow:visible;visibility:visible;opacity:0.6;fill:url(#linearGradient6472);fill-opacity:1;fill-rule:nonzero;stroke:none;stroke-width:0.55969;marker:none"
       sodipodi:nodetypes="cccccc" />
    <path
       class="fil0"
       d="m -36.00343,12.103918 -2.44389,2.443882 c -1.37158,1.384038 -3.47879,-0.72319 -2.10723,-2.107224 l 2.44388,-2.443883 -2.44388,-2.443884 c -1.37156,-1.371568 0.73565,-3.478792 2.10723,-2.107225 l 2.44389,2.443883 2.44388,-2.443883 c 1.38404,-1.371567 3.49125,0.735657 2.10722,2.107225 l -2.44388,2.443884 2.44388,2.443883 c 1.38403,1.384034 -0.72318,3.491262 -2.10722,2.107224 z"
       id="path6-1-4-1"
       style="fill:#d3dae3;fill-opacity:1;stroke-width:0.0124688;image-rendering:optimizeQuality;shape-rendering:geometricPrecision;text-rendering:geometricPrecision" />
    <path
       d="m -30.19698,1 h -11.6063 c -1.11265,0.0012 -2.17943,0.443811 -2.9661,1.230645 C -45.5562,3.017323 -45.99873,4.084063 -46,5.196724 v 11.606709 -1.58e-4 c 10e-4,1.11263 0.4438,2.179405 1.23062,2.966075 0.78667,0.78684 1.85345,1.22936 2.9661,1.23065 h 11.6067 -1.6e-4 c 1.11265,-0.001 2.17943,-0.44381 2.96609,-1.23065 0.78683,-0.78667 1.22936,-1.853445 1.23063,-2.966075 V 5.196944 c -0.001,-1.11263 -0.4438,-2.179402 -1.23063,-2.966078 -0.78666,-0.786835 -1.85344,-1.229354 -2.96609,-1.230646 z M -41.367,3 h 10.734 c 0.73924,9.16e-4 1.5363,0.0032 2.059,0.526 0.52269,0.522677 0.57308,0.901432 0.574,1.640677 V 17 H -44 V 5.166677 c 9.1e-4,-0.739245 0.0513,-1.117968 0.574,-1.640677 0.52266,-0.522677 1.31976,-0.525087 2.059,-0.526 z"
       id="path1193-3-7-9-5-0"
       style="color:#d3dae3;fill:#d3dae3;fill-opacity:1;stroke-width:0.0396825"
       sodipodi:nodetypes="ccccccccccccccccccccccccc"
       class="ColorScheme-Text" />
  </g>
</svg>
