<?xml version="1.0" encoding="UTF-8" standalone="no"?>
<svg
   viewBox="0 0 64 64"
   version="1.1"
   id="svg5"
   sodipodi:docname="folder-book.svg"
   inkscape:version="1.4.2 (unknown)"
   xmlns:inkscape="http://www.inkscape.org/namespaces/inkscape"
   xmlns:sodipodi="http://sodipodi.sourceforge.net/DTD/sodipodi-0.dtd"
   xmlns:xlink="http://www.w3.org/1999/xlink"
   xmlns="http://www.w3.org/2000/svg"
   xmlns:svg="http://www.w3.org/2000/svg">
  <sodipodi:namedview
     id="namedview5"
     pagecolor="#ffffff"
     bordercolor="#000000"
     borderopacity="0.25"
     inkscape:showpageshadow="2"
     inkscape:pageopacity="0.0"
     inkscape:pagecheckerboard="0"
     inkscape:deskcolor="#d1d1d1"
     inkscape:zoom="12.078125"
     inkscape:cx="31.958603"
     inkscape:cy="32"
     inkscape:window-width="1920"
     inkscape:window-height="998"
     inkscape:window-x="0"
     inkscape:window-y="0"
     inkscape:window-maximized="1"
     inkscape:current-layer="svg5" />
  <defs
     id="defs3051">
    <linearGradient
       id="linearGradient5"
       inkscape:collect="always">
      <stop
         style="stop-color:#3daee9;stop-opacity:1;"
         offset="0"
         id="stop5" />
      <stop
         style="stop-color:#8d5fd3;stop-opacity:1"
         offset="1"
         id="stop6" />
    </linearGradient>
    <style
       type="text/css"
       id="current-color-scheme">.ColorScheme-Accent { color: #3daee9; } .ColorScheme-Text { color: #fcfcfc; } </style>
    <linearGradient
       inkscape:collect="always"
       xlink:href="#linearGradient5"
       id="linearGradient6"
       x1="4.9870634"
       y1="55.182407"
       x2="56.860283"
       y2="16"
       gradientUnits="userSpaceOnUse" />
  </defs>
  <path
     style="fill:url(#linearGradient6)"
     d="M 4 6 L 4 11 L 4 20 L 3 20 L 3 21 L 3 21 C 3 21 3 21 3 21 L 3 57 L 3 58 L 4 58 L 60 58 L 61 58 L 61 57 L 61 21 L 61 21 L 61 16 L 60 16 L 60 11 C 60 11 60 11 60 11 L 60 11 L 60 10 L 32 10 L 28 6 L 4 6 z "
     class="ColorScheme-Accent"
     id="path1" />
  <path
     style="fill-opacity:0.33"
     d="M 4 6 L 4 11 L 4 20 L 22 20 L 26 16 L 60 16 L 60 11 C 60 11 60 11 60 11 L 60 11 L 60 10 L 32 10 L 28 6 L 4 6 z "
     id="path2" />
  <path
     style="fill:#ffffff;fill-opacity:0.2"
     d="M 28 6 L 31 11 L 33 11 L 60 11 L 60 10 L 33 10 L 32 10 L 28 6 z M 26 16 L 22 20 L 3 20 L 3 21 L 23 21 L 26 16 z "
     id="path3" />
  <path
     style="fill-opacity:0.2;fill-rule:evenodd"
     d="M 26 16 L 20 19 L 4 19 L 4 20 L 22 20 L 26 16 z M 3 57 L 3 58 L 4 58 L 60 58 L 61 58 L 61 57 L 60 57 L 4 57 L 3 57 z "
     class="ColorScheme-Text"
     id="path4" />
  <path
     style="fill:currentColor;fill-opacity:0.6;stroke:none"
     d="m 24,27 v 2 h -2 v 4 h 2 v 8 h -2 v 4 h 2 v 2 h 1 16 V 27 H 24 m 1,1 h 2 V 46 H 25 V 28 m 3,0 H 40 V 46 H 28 V 28"
     class="ColorScheme-Text"
     id="path5" />
</svg>
