<?xml version="1.0" encoding="UTF-8" standalone="no"?>
<svg
   viewBox="0 0 64 64"
   version="1.1"
   id="svg14"
   sodipodi:docname="folder-build.svg"
   inkscape:version="1.4.2 (unknown)"
   xmlns:inkscape="http://www.inkscape.org/namespaces/inkscape"
   xmlns:sodipodi="http://sodipodi.sourceforge.net/DTD/sodipodi-0.dtd"
   xmlns:xlink="http://www.w3.org/1999/xlink"
   xmlns="http://www.w3.org/2000/svg"
   xmlns:svg="http://www.w3.org/2000/svg"
   xmlns:rdf="http://www.w3.org/1999/02/22-rdf-syntax-ns#"
   xmlns:cc="http://creativecommons.org/ns#"
   xmlns:dc="http://purl.org/dc/elements/1.1/">
  <metadata
     id="metadata18">
    <rdf:RDF>
      <cc:Work
         rdf:about="">
        <dc:format>image/svg+xml</dc:format>
        <dc:type
           rdf:resource="http://purl.org/dc/dcmitype/StillImage" />
      </cc:Work>
    </rdf:RDF>
  </metadata>
  <sodipodi:namedview
     pagecolor="#ffffff"
     bordercolor="#666666"
     borderopacity="1"
     objecttolerance="10"
     gridtolerance="10"
     guidetolerance="10"
     inkscape:pageopacity="0"
     inkscape:pageshadow="2"
     inkscape:window-width="1920"
     inkscape:window-height="998"
     id="namedview16"
     showgrid="false"
     inkscape:zoom="3.6875"
     inkscape:cx="-16.677966"
     inkscape:cy="97.220339"
     inkscape:window-x="0"
     inkscape:window-y="0"
     inkscape:window-maximized="1"
     inkscape:current-layer="svg14"
     inkscape:showpageshadow="2"
     inkscape:pagecheckerboard="0"
     inkscape:deskcolor="#d1d1d1" />
  <defs
     id="defs3051">
    <linearGradient
       inkscape:collect="always"
       id="linearGradient840">
      <stop
         style="stop-color:#37c8ab;stop-opacity:1;"
         offset="0"
         id="stop836" />
      <stop
         style="stop-color:#37c8ab;stop-opacity:0;"
         offset="1"
         id="stop838" />
    </linearGradient>
    <linearGradient
       inkscape:collect="always"
       id="linearGradient832">
      <stop
         style="stop-color:#912fa9;stop-opacity:1"
         offset="0"
         id="stop828" />
      <stop
         style="stop-color:#ffa66b;stop-opacity:1"
         offset="1"
         id="stop830" />
    </linearGradient>
    <style
       type="text/css"
       id="current-color-scheme">
      .ColorScheme-Text {
        color:#31363b;
      }
      .ColorScheme-Background {
        color:#eff0f1;
      }
      .ColorScheme-Highlight {
        color:#3daee9;
      }
      .ColorScheme-ViewText {
        color:#31363b;
      }
      .ColorScheme-ViewBackground {
        color:#fcfcfc;
      }
      .ColorScheme-ViewHover {
        color:#93cee9;
      }
      .ColorScheme-ViewFocus{
        color:#3daee9;
      }
      .ColorScheme-ButtonText {
        color:#31363b;
      }
      .ColorScheme-ButtonBackground {
        color:#eff0f1;
      }
      .ColorScheme-ButtonHover {
        color:#93cee9;
      }
      .ColorScheme-ButtonFocus{
        color:#3daee9;
      }
      </style>
    <linearGradient
       inkscape:collect="always"
       xlink:href="#linearGradient832"
       id="linearGradient834"
       x1="3"
       y1="32"
       x2="61"
       y2="32"
       gradientUnits="userSpaceOnUse" />
    <linearGradient
       inkscape:collect="always"
       xlink:href="#linearGradient840"
       id="linearGradient842"
       x1="4"
       y1="13"
       x2="60"
       y2="13"
       gradientUnits="userSpaceOnUse" />
  </defs>
  <path
     style="fill:url(#linearGradient834);fill-opacity:1;stroke:none"
     d="M 4 6 L 4 11 L 4 20 L 3 20 L 3 21 L 3.0019531 21 C 3.0019031 21.004 3 21.008019 3 21.011719 L 3 57 L 3 58 L 4 58 L 60 58 L 61 58 L 61 57 L 61 21.011719 L 61 21 L 61 16 L 60 16 L 60 11.009766 C 60 11.006766 59.998047 11.004 59.998047 11 L 60 11 L 60 10 L 32 10 L 28 6 L 4 6 z "
     class="ColorScheme-Highlight"
     id="path4" />
  <path
     style="fill-opacity:1;fill-rule:evenodd;fill:url(#linearGradient842)"
     d="M 4 6 L 4 11 L 4 20 L 22 20 L 26 16 L 60 16 L 60 11.009766 C 60 11.006766 59.998047 11.004 59.998047 11 L 60 11 L 60 10 L 32 10 L 28 6 L 4 6 z "
     id="path6" />
  <path
     style="fill:#ffffff;fill-opacity:0.2;fill-rule:evenodd"
     d="M 28 6 L 31 11 L 33 11 L 60 11 L 60 10 L 33 10 L 32 10 L 28 6 z M 26 16 L 22 20 L 3 20 L 3 21 L 23 21 L 26 16 z "
     id="path8" />
  <path
     style="fill-opacity:0.2;fill-rule:evenodd"
     d="M 26 16 L 20 19 L 4 19 L 4 20 L 22 20 L 26 16 z M 3 57 L 3 58 L 4 58 L 60 58 L 61 58 L 61 57 L 60 57 L 4 57 L 3 57 z "
     class="ColorScheme-Text"
     id="path10" />
  <path
     style="color:#fcfcfc;fill:#270010;fill-opacity:0.6;stroke:none"
     d="m 39.743164,27.271187 -0.310547,1.06055 c -0.636,-0.053 -1.276719,0.0171 -1.886719,0.20507 l -0.529297,-0.96875 -1.755859,0.95899 0.529297,0.96875 c -0.488999,0.412 -0.89336,0.91256 -1.19336,1.47656 l -1.05664,-0.30859 -0.5625,1.91797 1.060546,0.31054 c -0.053,0.636 0.01513,1.27868 0.203125,1.88868 l -0.96875,0.52929 0.958985,1.75586 0.96875,-0.53125 c 0.412,0.489 0.914515,0.89531 1.478515,1.19531 l -0.310546,1.05664 1.919921,0.5625 0.310547,-1.06054 c 0.636001,0.053 1.276719,-0.0171 1.886719,-0.20508 l 0.53125,0.96875 1.753906,-0.95898 -0.529297,-0.96875 c 0.489,-0.412 0.893361,-0.91257 1.19336,-1.47657 l 1.05664,0.3086 0.5625,-1.91797 -1.060546,-0.31055 c 0.053,-0.636 -0.01512,-1.27867 -0.203125,-1.88867 l 0.96875,-0.5293 -0.958985,-1.75586 -0.96875,0.53125 c -0.411999,-0.489 -0.914515,-0.89531 -1.478515,-1.19531 l 0.310546,-1.05664 z m -0.988282,2.04883 c 0.198468,-0.0129 0.398731,-0.0109 0.597657,0.006 0.265233,0.0223 0.529812,0.0705 0.789062,0.14648 0.998,0.293 1.843469,0.96314 2.355469,1.86914 0.532001,0.94 0.661422,2.05675 0.357422,3.09375 -0.293,0.998 -0.963141,1.84347 -1.869141,2.35547 -0.939999,0.532 -2.05675,0.66142 -3.09375,0.35742 -0.997999,-0.293 -1.845422,-0.96314 -2.357422,-1.86914 -0.532,-0.94 -0.661422,-2.05675 -0.357422,-3.09375 0.293,-0.998 0.963141,-1.84347 1.869141,-2.35547 0.528751,-0.29925 1.11358,-0.47098 1.708984,-0.50976 z m -13.330078,2.92187 -1.990234,0.19532 0.107422,1.0996 c -0.61,0.18801 -1.177829,0.49058 -1.673829,0.89258 l -0.855468,-0.70117 -1.269532,1.54492 0.853516,0.70117 c -0.3,0.565 -0.486687,1.18236 -0.554687,1.81836 l -1.095703,0.10743 0.195312,1.99023 1.099609,-0.10742 c 0.188,0.61 0.490578,1.17783 0.89258,1.67383 l -0.701172,0.85547 1.544922,1.26953 0.70117,-0.85352 c 0.565001,0.3 1.18236,0.48669 1.81836,0.55469 l 0.107422,1.0957 1.990234,-0.19531 -0.107422,-1.09961 c 0.61,-0.188 1.177829,-0.49058 1.673828,-0.89258 l 0.855469,0.70117 1.269531,-1.54492 -0.853515,-0.70117 c 0.3,-0.565 0.486687,-1.18236 0.554687,-1.81836 l 1.095703,-0.10742 -0.195312,-1.99024 -1.09961,0.10743 c -0.187999,-0.61 -0.490577,-1.17783 -0.892578,-1.67383 l 0.701172,-0.85547 -1.544922,-1.26953 -0.701172,0.85351 c -0.565,-0.3 -1.182358,-0.48668 -1.818359,-0.55468 z m -0.02734,2.08594 c 0.766031,0.0737 1.500827,0.36872 2.111329,0.85547 0.845,0.674 1.381328,1.66033 1.486328,2.73633 0.102,1.036 -0.204516,2.07076 -0.853516,2.88476 -0.674,0.845 -1.662281,1.38133 -2.738281,1.48633 -1.036,0.102 -2.068813,-0.20451 -2.882813,-0.85351 -0.845,-0.674 -1.381328,-1.66229 -1.486328,-2.73829 -0.102,-1.036 0.204516,-2.06881 0.853516,-2.88281 0.674,-0.845 1.660328,-1.38133 2.736328,-1.48633 0.259,-0.0255 0.518094,-0.0265 0.773437,-0.002 z m 8.617183,3.98242 v 1.10547 c -0.625999,0.128 -1.220906,0.37456 -1.753906,0.72656 l -0.78125,-0.78125 -1.414063,1.41407 0.78125,0.78125 c -0.353,0.533 -0.601469,1.1279 -0.730469,1.7539 h -1.101562 v 2 h 1.105469 c 0.128,0.626 0.374562,1.22091 0.726562,1.75391 l -0.78125,0.78125 1.414063,1.41406 0.78125,-0.78125 c 0.533,0.353 1.127907,0.60147 1.753906,0.73047 v 1.10156 h 2 v -1.10547 c 0.626,-0.128 1.220906,-0.37456 1.753906,-0.72656 l 0.78125,0.78125 1.414063,-1.41406 -0.78125,-0.78125 c 0.352999,-0.533 0.601467,-1.12791 0.730468,-1.75391 h 1.101563 v -2 h -1.105469 c -0.128,-0.626 -0.374562,-1.2209 -0.726562,-1.7539 l 0.78125,-0.78125 -1.414063,-1.41407 -0.78125,0.78125 c -0.533,-0.353 -1.127907,-0.60147 -1.753906,-0.73047 v -1.10156 z m 1,2 c 1.041001,0 2.040109,0.40586 2.787109,1.13086 0.775,0.753 1.212891,1.78814 1.212891,2.86914 0,1.041 -0.405859,2.04011 -1.130859,2.78711 -0.753,0.775 -1.788142,1.21289 -2.869141,1.21289 -1.041,0 -2.040109,-0.40586 -2.787109,-1.13086 -0.775001,-0.753 -1.212891,-1.78814 -1.212891,-2.86914 0,-1.041 0.405859,-2.04011 1.130859,-2.78711 0.753,-0.775 1.788142,-1.21289 2.869141,-1.21289 z"
     class="ColorScheme-Text"
     id="path5" />
</svg>
