<?xml version="1.0" encoding="UTF-8" standalone="no"?>
<svg
   width="64"
   height="64"
   version="1.1"
   id="svg73"
   sodipodi:docname="application-x-ms-wim copy.svg"
   inkscape:version="1.4 (e7c3feb100, 2024-10-09)"
   xmlns:inkscape="http://www.inkscape.org/namespaces/inkscape"
   xmlns:sodipodi="http://sodipodi.sourceforge.net/DTD/sodipodi-0.dtd"
   xmlns:xlink="http://www.w3.org/1999/xlink"
   xmlns="http://www.w3.org/2000/svg"
   xmlns:svg="http://www.w3.org/2000/svg"
   xmlns:rdf="http://www.w3.org/1999/02/22-rdf-syntax-ns#"
   xmlns:cc="http://creativecommons.org/ns#"
   xmlns:dc="http://purl.org/dc/elements/1.1/">
  <metadata
     id="metadata77">
    <rdf:RDF>
      <cc:Work
         rdf:about="">
        <dc:format>image/svg+xml</dc:format>
        <dc:type
           rdf:resource="http://purl.org/dc/dcmitype/StillImage" />
      </cc:Work>
    </rdf:RDF>
  </metadata>
  <sodipodi:namedview
     pagecolor="#f5f7fa"
     bordercolor="#666666"
     borderopacity="1"
     objecttolerance="10"
     gridtolerance="10"
     guidetolerance="10"
     inkscape:pageopacity="0"
     inkscape:pageshadow="2"
     inkscape:window-width="1183"
     inkscape:window-height="943"
     id="namedview75"
     showgrid="false"
     inkscape:zoom="4.4470387"
     inkscape:cx="19.451146"
     inkscape:cy="8.3201435"
     inkscape:window-x="31"
     inkscape:window-y="32"
     inkscape:window-maximized="0"
     inkscape:current-layer="g877"
     inkscape:document-rotation="0"
     inkscape:pagecheckerboard="0"
     inkscape:showpageshadow="2"
     inkscape:deskcolor="#d1d1d1" />
  <defs
     id="defs29">
    <filter
       style="color-interpolation-filters:sRGB;"
       inkscape:label="Blur"
       id="filter6"
       x="-0.044145008"
       y="-0.044145008"
       width="1.08829"
       height="1.08829">
      <feGaussianBlur
         stdDeviation="1 1"
         result="blur"
         id="feGaussianBlur6" />
    </filter>
    <filter
       style="color-interpolation-filters:sRGB;"
       inkscape:label="Blur"
       id="filter7"
       x="-0.098100013"
       y="-0.098100021"
       width="1.1962"
       height="1.1962">
      <feGaussianBlur
         stdDeviation="2 2"
         result="blur"
         id="feGaussianBlur7" />
    </filter>
    <clipPath
       id="clip0_515_3621">
      <rect
         width="16"
         height="16"
         fill="#ffffff"
         transform="translate(0.00292969)"
         id="rect7969"
         x="0"
         y="0" />
    </clipPath>
    <filter
       style="color-interpolation-filters:sRGB;"
       inkscape:label="Blur"
       id="filter7349"
       x="-0.10485812"
       y="-0.10485813"
       width="1.2097162"
       height="1.2097163">
      <feGaussianBlur
         stdDeviation="2 2"
         result="blur"
         id="feGaussianBlur7347" />
    </filter>
    <filter
       style="color-interpolation-filters:sRGB"
       inkscape:label="Blur"
       id="filter1283"
       x="-0.082344266"
       y="-0.082344266"
       width="1.1646885"
       height="1.1646885">
      <feGaussianBlur
         stdDeviation="0.5 0.5"
         result="blur"
         id="feGaussianBlur1281" />
    </filter>
    <linearGradient
       inkscape:collect="always"
       xlink:href="#linearGradient1134-5"
       id="linearGradient1136"
       x1="14.971222"
       y1="14.703373"
       x2="2.0756054"
       y2="2.0069976"
       gradientUnits="userSpaceOnUse"
       gradientTransform="matrix(2.4106819,0,0,3.1438568,11.58952,5.3983817)" />
    <filter
       style="color-interpolation-filters:sRGB"
       inkscape:label="Blur"
       id="filter1694"
       x="-0.94955398"
       y="-0.2118907"
       width="2.899108"
       height="1.4237814">
      <feGaussianBlur
         stdDeviation="0.2 0.2"
         result="blur"
         id="feGaussianBlur1692" />
    </filter>
    <filter
       style="color-interpolation-filters:sRGB"
       inkscape:label="Blur"
       id="filter3"
       x="-0.10843471"
       y="-0.10870992"
       width="1.2168694"
       height="1.2174198">
      <feGaussianBlur
         stdDeviation="0.5 0.5"
         result="blur"
         id="feGaussianBlur3" />
    </filter>
    <linearGradient
       inkscape:collect="always"
       id="linearGradient1134-5">
      <stop
         style="stop-color:#2e3440;stop-opacity:1;"
         offset="0"
         id="stop1130-3" />
      <stop
         style="stop-color:#4c566a;stop-opacity:1;"
         offset="1"
         id="stop1132-5" />
    </linearGradient>
    <linearGradient
       id="linearGradient1"
       inkscape:collect="always">
      <stop
         style="stop-color:#d8dee9;stop-opacity:1;"
         offset="0"
         id="stop1" />
      <stop
         style="stop-color:#eceff4;stop-opacity:1;"
         offset="1"
         id="stop2" />
    </linearGradient>
    <linearGradient
       inkscape:collect="always"
       xlink:href="#linearGradient1"
       id="linearGradient9"
       x1="41.445328"
       y1="41.11161"
       x2="21.70923"
       y2="20.668997"
       gradientUnits="userSpaceOnUse" />
  </defs>
  <g
     id="g877"
     transform="matrix(1.1,0,0,1.1,-3.1845928,-3.2065454)">
    <path
       style="fill:#f5f7fa;stroke-width:0.204426;fill-opacity:1"
       d=""
       id="path3" />
    <rect
       style="fill:#000000;stroke:none;stroke-width:0.539739;stroke-dasharray:none;filter:url(#filter1283)"
       id="rect246-1"
       width="14.572964"
       height="14.572964"
       x="1.1932471"
       y="1.2138842"
       rx="2.1589575"
       ry="2.1589575"
       transform="matrix(2.4606127,0,0,3.1451146,11.16612,5.3876877)" />
    <rect
       style="fill:#2b323e;stroke:#8aadf4;stroke-width:1.63561;stroke-dasharray:none;fill-opacity:1;stroke-opacity:1"
       id="rect246"
       width="35.155312"
       height="44.93494"
       x="14.453793"
       y="9.6548424"
       rx="5.2081943"
       ry="5.181818" />
    <rect
       style="fill:url(#linearGradient1136);fill-opacity:1;stroke:none;stroke-width:1.31679;stroke-dasharray:none"
       id="rect246-5"
       width="31.13278"
       height="40.601383"
       x="16.465055"
       y="11.821622"
       rx="3.1818182"
       ry="3.1725934" />
    <path
       fill="#f5f7fa"
       d="m 32.088346,43.709155 c -5.783722,0 -10.472353,-4.559065 -10.472353,-10.182965 0,-5.623896 4.688631,-10.182966 10.472353,-10.182966 5.783714,0 10.472351,4.55907 10.472351,10.182966 0,5.6239 -4.688637,10.182965 -10.472351,10.182965 z m 0,-18.103054 c -4.49845,0 -8.145163,3.545948 -8.145163,7.920089 0,0.312436 0.26048,0.565721 0.581796,0.565721 0.321318,0 0.581799,-0.253268 0.581799,-0.565721 0,-3.749264 3.125753,-6.788646 6.981568,-6.788646 0.321318,0 0.581798,-0.253285 0.581798,-0.565717 0,-0.312442 -0.26047,-0.565726 -0.581798,-0.565726 z m 0,12.445856 c 2.570541,0 4.654381,-2.026256 4.654381,-4.525766 0,-2.499508 -2.08384,-4.525766 -4.654381,-4.525766 -2.570544,0 -4.654379,2.026258 -4.654379,4.525766 0,2.49951 2.083835,4.525766 4.654379,4.525766 z m 0,-1.131445 c -1.927908,0 -3.490784,-1.519689 -3.490784,-3.394321 0,-1.874632 1.562876,-3.394325 3.490784,-3.394325 1.927905,0 3.490788,1.519693 3.490788,3.394325 0,1.874632 -1.562883,3.394321 -3.490788,3.394321 z m 0,-1.131438 c 1.285269,0 2.327188,-1.013126 2.327188,-2.262883 0,-1.249757 -1.041919,-2.262884 -2.327188,-2.262884 -1.285273,0 -2.32719,1.013127 -2.32719,2.262884 0,1.249756 1.041917,2.262883 2.32719,2.262883 z"
       id="path42-9"
       style="fill:#000000;fill-opacity:1;stroke:none;stroke-width:1;stroke-dasharray:none;stroke-opacity:0.3;opacity:0.3" />
    <path
       fill="#f5f7fa"
       d="m 32.088346,41.890973 c -5.783722,0 -10.472353,-4.559065 -10.472353,-10.182965 0,-5.623896 4.688631,-10.182966 10.472353,-10.182966 5.783714,0 10.472351,4.55907 10.472351,10.182966 0,5.6239 -4.688637,10.182965 -10.472351,10.182965 z m 0,-18.103054 c -4.49845,0 -8.145163,3.545948 -8.145163,7.920089 0,0.312436 0.26048,0.565721 0.581796,0.565721 0.321318,0 0.581799,-0.253268 0.581799,-0.565721 0,-3.749264 3.125753,-6.788646 6.981568,-6.788646 0.321318,0 0.581798,-0.253285 0.581798,-0.565717 0,-0.312442 -0.26047,-0.565726 -0.581798,-0.565726 z m 0,12.445856 c 2.570541,0 4.654381,-2.026256 4.654381,-4.525766 0,-2.499508 -2.08384,-4.525766 -4.654381,-4.525766 -2.570544,0 -4.654379,2.026258 -4.654379,4.525766 0,2.49951 2.083835,4.525766 4.654379,4.525766 z m 0,-1.131445 c -1.927908,0 -3.490784,-1.519689 -3.490784,-3.394321 0,-1.874632 1.562876,-3.394325 3.490784,-3.394325 1.927905,0 3.490788,1.519693 3.490788,3.394325 0,1.874632 -1.562883,3.394321 -3.490788,3.394321 z m 0,-1.131438 c 1.285269,0 2.327188,-1.013126 2.327188,-2.262883 0,-1.249757 -1.041919,-2.262884 -2.327188,-2.262884 -1.285273,0 -2.32719,1.013127 -2.32719,2.262884 0,1.249756 1.041917,2.262883 2.32719,2.262883 z"
       id="path42"
       style="fill:url(#linearGradient9);fill-opacity:1;stroke:none;stroke-width:1;stroke-dasharray:none;stroke-opacity:0.3" />
  </g>
</svg>
