<?xml version="1.0" encoding="UTF-8" standalone="no"?>
<svg
   width="64"
   height="64"
   version="1.1"
   id="svg73"
   sodipodi:docname="accessories-ebook-reader.svg"
   inkscape:version="1.4 (e7c3feb100, 2024-10-09)"
   xmlns:inkscape="http://www.inkscape.org/namespaces/inkscape"
   xmlns:sodipodi="http://sodipodi.sourceforge.net/DTD/sodipodi-0.dtd"
   xmlns:xlink="http://www.w3.org/1999/xlink"
   xmlns="http://www.w3.org/2000/svg"
   xmlns:svg="http://www.w3.org/2000/svg"
   xmlns:rdf="http://www.w3.org/1999/02/22-rdf-syntax-ns#"
   xmlns:cc="http://creativecommons.org/ns#"
   xmlns:dc="http://purl.org/dc/elements/1.1/">
  <metadata
     id="metadata77">
    <rdf:RDF>
      <cc:Work
         rdf:about="">
        <dc:format>image/svg+xml</dc:format>
        <dc:type
           rdf:resource="http://purl.org/dc/dcmitype/StillImage" />
      </cc:Work>
    </rdf:RDF>
  </metadata>
  <sodipodi:namedview
     pagecolor="#f5f7fa"
     bordercolor="#666666"
     borderopacity="1"
     objecttolerance="10"
     gridtolerance="10"
     guidetolerance="10"
     inkscape:pageopacity="0"
     inkscape:pageshadow="2"
     inkscape:window-width="1183"
     inkscape:window-height="669"
     id="namedview75"
     showgrid="false"
     inkscape:zoom="4.4470387"
     inkscape:cx="19.451146"
     inkscape:cy="8.3201435"
     inkscape:window-x="38"
     inkscape:window-y="201"
     inkscape:window-maximized="0"
     inkscape:current-layer="g877"
     inkscape:document-rotation="0"
     inkscape:pagecheckerboard="0"
     inkscape:showpageshadow="2"
     inkscape:deskcolor="#d1d1d1" />
  <defs
     id="defs29">
    <filter
       style="color-interpolation-filters:sRGB;"
       inkscape:label="Blur"
       id="filter6"
       x="-0.044145008"
       y="-0.044145008"
       width="1.08829"
       height="1.08829">
      <feGaussianBlur
         stdDeviation="1 1"
         result="blur"
         id="feGaussianBlur6" />
    </filter>
    <filter
       style="color-interpolation-filters:sRGB;"
       inkscape:label="Blur"
       id="filter7"
       x="-0.098100013"
       y="-0.098100021"
       width="1.1962"
       height="1.1962">
      <feGaussianBlur
         stdDeviation="2 2"
         result="blur"
         id="feGaussianBlur7" />
    </filter>
    <clipPath
       id="clip0_515_3621">
      <rect
         width="16"
         height="16"
         fill="#ffffff"
         transform="translate(0.00292969)"
         id="rect7969"
         x="0"
         y="0" />
    </clipPath>
    <filter
       style="color-interpolation-filters:sRGB;"
       inkscape:label="Blur"
       id="filter7349"
       x="-0.10485812"
       y="-0.10485813"
       width="1.2097162"
       height="1.2097163">
      <feGaussianBlur
         stdDeviation="2 2"
         result="blur"
         id="feGaussianBlur7347" />
    </filter>
    <filter
       style="color-interpolation-filters:sRGB"
       inkscape:label="Blur"
       id="filter1283"
       x="-0.082344266"
       y="-0.082344266"
       width="1.1646885"
       height="1.1646885">
      <feGaussianBlur
         stdDeviation="0.5 0.5"
         result="blur"
         id="feGaussianBlur1281" />
    </filter>
    <linearGradient
       inkscape:collect="always"
       xlink:href="#linearGradient1134-5"
       id="linearGradient1136"
       x1="14.971222"
       y1="14.703373"
       x2="2.0756054"
       y2="2.0069976"
       gradientUnits="userSpaceOnUse"
       gradientTransform="matrix(2.4106819,0,0,3.1438568,11.58952,5.3983817)" />
    <filter
       style="color-interpolation-filters:sRGB"
       inkscape:label="Blur"
       id="filter1694"
       x="-0.94955398"
       y="-0.2118907"
       width="2.899108"
       height="1.4237814">
      <feGaussianBlur
         stdDeviation="0.2 0.2"
         result="blur"
         id="feGaussianBlur1692" />
    </filter>
    <filter
       style="color-interpolation-filters:sRGB"
       inkscape:label="Blur"
       id="filter3"
       x="-0.10843471"
       y="-0.10870992"
       width="1.2168694"
       height="1.2174198">
      <feGaussianBlur
         stdDeviation="0.5 0.5"
         result="blur"
         id="feGaussianBlur3" />
    </filter>
    <linearGradient
       inkscape:collect="always"
       id="linearGradient1134-5">
      <stop
         style="stop-color:#2e3440;stop-opacity:1;"
         offset="0"
         id="stop1130-3" />
      <stop
         style="stop-color:#4c566a;stop-opacity:1;"
         offset="1"
         id="stop1132-5" />
    </linearGradient>
    <linearGradient
       id="linearGradient1"
       inkscape:collect="always">
      <stop
         style="stop-color:#d8dee9;stop-opacity:1;"
         offset="0"
         id="stop1" />
      <stop
         style="stop-color:#eceff4;stop-opacity:1;"
         offset="1"
         id="stop2" />
    </linearGradient>
    <linearGradient
       inkscape:collect="always"
       xlink:href="#linearGradient1"
       id="linearGradient4"
       x1="41.112095"
       y1="43.748848"
       x2="23.950829"
       y2="21.466402"
       gradientUnits="userSpaceOnUse" />
  </defs>
  <g
     id="g877"
     transform="matrix(1.1,0,0,1.1,-3.1845928,-3.2065454)">
    <path
       style="fill:#f5f7fa;stroke-width:0.204426;fill-opacity:1"
       d=""
       id="path3" />
    <rect
       style="fill:#000000;stroke:none;stroke-width:0.539739;stroke-dasharray:none;filter:url(#filter1283)"
       id="rect246-1"
       width="14.572964"
       height="14.572964"
       x="1.1932471"
       y="1.2138842"
       rx="2.1589575"
       ry="2.1589575"
       transform="matrix(2.4606127,0,0,3.1451146,11.16612,5.3876877)" />
    <rect
       style="fill:#2b323e;stroke:#eed49f;stroke-width:1.63561;stroke-dasharray:none;fill-opacity:1;stroke-opacity:1"
       id="rect246"
       width="35.155312"
       height="44.93494"
       x="14.453793"
       y="9.6548424"
       rx="5.2081943"
       ry="5.181818" />
    <rect
       style="fill:url(#linearGradient1136);fill-opacity:1;stroke:none;stroke-width:1.31679;stroke-dasharray:none"
       id="rect246-5"
       width="31.13278"
       height="40.601383"
       x="16.465055"
       y="11.821622"
       rx="3.1818182"
       ry="3.1725934" />
    <path
       style="fill:#000000;stroke-width:0.818181;opacity:0.3"
       d="m 32.531449,23.277201 c -1.253857,0.0019 -2.396438,0.719922 -2.941939,1.848899 -0.36714,-0.139195 -0.756331,-0.211188 -1.14897,-0.212536 -1.807477,0 -3.272727,1.46525 -3.272727,3.272728 3.27e-4,0.392443 0.07123,0.781629 0.209338,1.14897 -1.127733,0.54641 -1.844445,1.688805 -1.845703,2.941937 0.0019,1.253858 0.719922,2.39644 1.8489,2.941942 -0.139196,0.367141 -0.211187,0.756332 -0.212534,1.148971 0,1.807479 1.46525,3.272728 3.272727,3.272728 0.27622,-0.0016 0.551133,-0.03807 0.818182,-0.108667 v 5.835938 c 2.86e-4,0.728704 0.881211,1.093573 1.396661,0.578482 l 1.876066,-1.876067 1.876066,1.876067 c 0.51545,0.515091 1.396375,0.150222 1.396661,-0.578482 v -5.83434 c 0.267118,0.07007 0.54203,0.106038 0.818182,0.107059 1.807481,0 3.272734,-1.465249 3.272734,-3.272728 -3.3e-4,-0.392444 -0.07126,-0.781629 -0.209322,-1.14897 1.127734,-0.546412 1.844443,-1.688808 1.845704,-2.941942 -0.0019,-1.253856 -0.719922,-2.396437 -1.848899,-2.941937 0.139192,-0.367141 0.211176,-0.756332 0.212551,-1.148971 0,-1.807477 -1.465252,-3.272727 -3.272733,-3.272727 -0.392479,3.36e-4 -0.781666,0.07124 -1.149006,0.209348 -0.546411,-1.127732 -1.688805,-1.844444 -2.941939,-1.845702 z m 0,3.272727 c 3.163085,0 5.727279,2.564187 5.727279,5.727271 0,3.16309 -2.564194,5.727276 -5.727279,5.727276 -3.163085,0 -5.727273,-2.564186 -5.727273,-5.727276 0,-3.163084 2.564188,-5.727271 5.727273,-5.727271 z m 0,0.818182 c -2.711216,0 -4.909091,2.197875 -4.909091,4.909089 0,2.711218 2.197875,4.909095 4.909091,4.909095 2.711215,0 4.909094,-2.197877 4.909094,-4.909095 0,-2.711214 -2.197879,-4.909089 -4.909094,-4.909089 z"
       id="path7-7" />
    <path
       style="fill:url(#linearGradient4);stroke-width:0.818181"
       d="m 32.531449,21.459019 c -1.253857,0.0019 -2.396438,0.719922 -2.941939,1.848899 -0.36714,-0.139195 -0.756331,-0.211188 -1.14897,-0.212536 -1.807477,0 -3.272727,1.46525 -3.272727,3.272728 3.27e-4,0.392443 0.07123,0.781629 0.209338,1.14897 -1.127733,0.54641 -1.844445,1.688805 -1.845703,2.941937 0.0019,1.253858 0.719922,2.39644 1.8489,2.941942 -0.139196,0.367141 -0.211187,0.756332 -0.212534,1.148971 0,1.807479 1.46525,3.272728 3.272727,3.272728 0.27622,-0.0016 0.551133,-0.03807 0.818182,-0.108667 v 5.835938 c 2.86e-4,0.728704 0.881211,1.093573 1.396661,0.578482 l 1.876066,-1.876067 1.876066,1.876067 c 0.51545,0.515091 1.396375,0.150222 1.396661,-0.578482 v -5.83434 c 0.267118,0.07007 0.54203,0.106038 0.818182,0.107059 1.807481,0 3.272734,-1.465249 3.272734,-3.272728 -3.3e-4,-0.392444 -0.07126,-0.781629 -0.209322,-1.14897 1.127734,-0.546412 1.844443,-1.688808 1.845704,-2.941942 -0.0019,-1.253856 -0.719922,-2.396437 -1.848899,-2.941937 0.139192,-0.367141 0.211176,-0.756332 0.212551,-1.148971 0,-1.807477 -1.465252,-3.272727 -3.272733,-3.272727 -0.392479,3.36e-4 -0.781666,0.07124 -1.149006,0.209348 -0.546411,-1.127732 -1.688805,-1.844444 -2.941939,-1.845702 z m 0,3.272727 c 3.163085,0 5.727279,2.564187 5.727279,5.727271 0,3.16309 -2.564194,5.727276 -5.727279,5.727276 -3.163085,0 -5.727273,-2.564186 -5.727273,-5.727276 0,-3.163084 2.564188,-5.727271 5.727273,-5.727271 z m 0,0.818182 c -2.711216,0 -4.909091,2.197875 -4.909091,4.909089 0,2.711218 2.197875,4.909095 4.909091,4.909095 2.711215,0 4.909094,-2.197877 4.909094,-4.909095 0,-2.711214 -2.197879,-4.909089 -4.909094,-4.909089 z"
       id="path7" />
  </g>
</svg>
