<?xml version="1.0" encoding="UTF-8" standalone="no"?>
<svg
   width="64"
   height="64"
   version="1.1"
   id="svg73"
   sodipodi:docname="application-x-partial-download.svg"
   inkscape:version="1.4 (e7c3feb100, 2024-10-09)"
   xmlns:inkscape="http://www.inkscape.org/namespaces/inkscape"
   xmlns:sodipodi="http://sodipodi.sourceforge.net/DTD/sodipodi-0.dtd"
   xmlns:xlink="http://www.w3.org/1999/xlink"
   xmlns="http://www.w3.org/2000/svg"
   xmlns:svg="http://www.w3.org/2000/svg"
   xmlns:rdf="http://www.w3.org/1999/02/22-rdf-syntax-ns#"
   xmlns:cc="http://creativecommons.org/ns#"
   xmlns:dc="http://purl.org/dc/elements/1.1/">
  <metadata
     id="metadata77">
    <rdf:RDF>
      <cc:Work
         rdf:about="">
        <dc:format>image/svg+xml</dc:format>
        <dc:type
           rdf:resource="http://purl.org/dc/dcmitype/StillImage" />
      </cc:Work>
    </rdf:RDF>
  </metadata>
  <sodipodi:namedview
     pagecolor="#f5f7fa"
     bordercolor="#666666"
     borderopacity="1"
     objecttolerance="10"
     gridtolerance="10"
     guidetolerance="10"
     inkscape:pageopacity="0"
     inkscape:pageshadow="2"
     inkscape:window-width="1183"
     inkscape:window-height="669"
     id="namedview75"
     showgrid="false"
     inkscape:zoom="4.4470387"
     inkscape:cx="19.451146"
     inkscape:cy="25.635037"
     inkscape:window-x="80"
     inkscape:window-y="161"
     inkscape:window-maximized="0"
     inkscape:current-layer="g877"
     inkscape:document-rotation="0"
     inkscape:pagecheckerboard="0"
     inkscape:showpageshadow="2"
     inkscape:deskcolor="#d1d1d1" />
  <defs
     id="defs29">
    <filter
       style="color-interpolation-filters:sRGB"
       inkscape:label="Blur"
       id="filter1283"
       x="-0.082344266"
       y="-0.082344266"
       width="1.1646885"
       height="1.1646885">
      <feGaussianBlur
         stdDeviation="0.5 0.5"
         result="blur"
         id="feGaussianBlur1281" />
    </filter>
    <linearGradient
       inkscape:collect="always"
       xlink:href="#linearGradient1134-5"
       id="linearGradient1136"
       x1="14.971222"
       y1="14.703373"
       x2="2.0756054"
       y2="2.0069976"
       gradientUnits="userSpaceOnUse"
       gradientTransform="matrix(2.4106819,0,0,3.1438568,11.58952,5.3983817)" />
    <linearGradient
       inkscape:collect="always"
       id="linearGradient1134-5">
      <stop
         style="stop-color:#2e3440;stop-opacity:1;"
         offset="0"
         id="stop1130-3" />
      <stop
         style="stop-color:#4c566a;stop-opacity:1;"
         offset="1"
         id="stop1132-5" />
    </linearGradient>
    <linearGradient
       id="linearGradient1"
       inkscape:collect="always">
      <stop
         style="stop-color:#d8dee9;stop-opacity:1;"
         offset="0"
         id="stop1" />
      <stop
         style="stop-color:#eceff4;stop-opacity:1;"
         offset="1"
         id="stop2" />
    </linearGradient>
    <linearGradient
       inkscape:collect="always"
       xlink:href="#linearGradient1"
       id="linearGradient10"
       x1="40.021664"
       y1="40.228207"
       x2="23.678078"
       y2="22.851988"
       gradientUnits="userSpaceOnUse" />
  </defs>
  <g
     id="g877"
     transform="matrix(1.1,0,0,1.1,-3.1845928,-3.2065454)">
    <path
       style="fill:#f5f7fa;stroke-width:0.204426;fill-opacity:1"
       d=""
       id="path3" />
    <rect
       style="fill:#000000;stroke:none;stroke-width:0.539739;stroke-dasharray:none;filter:url(#filter1283)"
       id="rect246-1"
       width="14.572964"
       height="14.572964"
       x="1.1932471"
       y="1.2138842"
       rx="2.1589575"
       ry="2.1589575"
       transform="matrix(2.4606127,0,0,3.1451146,11.16612,5.3876877)" />
    <rect
       style="fill:#2b323e;stroke:#ace3ff;stroke-width:1.63561;stroke-dasharray:none;fill-opacity:1;stroke-opacity:1"
       id="rect246"
       width="35.155312"
       height="44.93494"
       x="14.453793"
       y="9.6548424"
       rx="5.2081943"
       ry="5.181818" />
    <rect
       style="fill:url(#linearGradient1136);fill-opacity:1;stroke:none;stroke-width:1.31679;stroke-dasharray:none"
       id="rect246-5"
       width="31.13278"
       height="40.601383"
       x="16.465055"
       y="11.821622"
       rx="3.1818182"
       ry="3.1725934" />
    <path
       d="m 30.622358,24.460496 c -1.359818,0 -2.454546,1.094728 -2.454546,2.454546 v 1.636363 h 4.090909 v 0.818182 h -5.727272 c -1.813091,0 -3.272728,1.459637 -3.272728,3.272728 v 1.636363 c 0,1.813091 1.459637,3.272728 3.272728,3.272728 v -1.636364 c 0,-1.506273 1.012909,-2.756455 2.394,-3.140182 0.120272,-0.03354 0.243001,-0.0589 0.367363,-0.08182 0.167729,-0.02619 0.336273,-0.05072 0.511364,-0.05072 h 5.911365 c 0.390272,-0.434455 0.634091,-1.00391 0.634091,-1.636364 v -4.090909 c 0,-1.359819 -1.094728,-2.454546 -2.454547,-2.454546 z m -0.818182,1.636364 c 0.453273,0 0.818182,0.364909 0.818182,0.818182 0,0.453273 -0.364909,0.818182 -0.818182,0.818182 -0.453273,0 -0.818182,-0.364909 -0.818182,-0.818182 0,-0.453273 0.364909,-0.818182 0.818182,-0.818182 m 8.181821,3.272727 v 1.636365 c 0,1.506272 -1.01291,2.756453 -2.394002,3.140181 -0.120273,0.03354 -0.243001,0.05891 -0.367363,0.08182 -0.16773,0.02619 -0.336273,0.05072 -0.511364,0.05072 h -5.911365 c -0.390272,0.434454 -0.634091,1.003909 -0.634091,1.636363 v 4.09091 c 0,1.359818 1.094728,2.454547 2.454546,2.454547 h 3.272727 c 1.359819,0 2.454546,-1.094729 2.454546,-2.454547 v -1.636364 h -4.09091 V 37.5514 h 5.727276 c 1.813091,0 3.272726,-1.459636 3.272726,-3.272728 v -1.63636 c 0,-1.81309 -1.459635,-3.272726 -3.272726,-3.272726 m -3.272729,9.818181 c 0.453273,0 0.818181,0.364908 0.818181,0.818182 0,0.453273 -0.364908,0.818181 -0.818181,0.818181 -0.453274,0 -0.818183,-0.364908 -0.818183,-0.818181 0,-0.453274 0.364909,-0.818182 0.818183,-0.818182"
       fill="#fde3a7"
       id="path11-0"
       style="fill:#000000;fill-opacity:1;stroke-width:0.818182;opacity:0.3" />
    <path
       d="m 30.622358,22.642314 c -1.359818,0 -2.454546,1.094728 -2.454546,2.454546 v 1.636363 h 4.090909 v 0.818182 h -5.727272 c -1.813091,0 -3.272728,1.459637 -3.272728,3.272728 v 1.636363 c 0,1.813091 1.459637,3.272728 3.272728,3.272728 V 34.09686 c 0,-1.506273 1.012909,-2.756455 2.394,-3.140182 0.120272,-0.03354 0.243001,-0.0589 0.367363,-0.08182 0.167729,-0.02619 0.336273,-0.05072 0.511364,-0.05072 h 5.911365 c 0.390272,-0.434455 0.634091,-1.00391 0.634091,-1.636364 v -4.090909 c 0,-1.359819 -1.094728,-2.454546 -2.454547,-2.454546 z m -0.818182,1.636364 c 0.453273,0 0.818182,0.364909 0.818182,0.818182 0,0.453273 -0.364909,0.818182 -0.818182,0.818182 -0.453273,0 -0.818182,-0.364909 -0.818182,-0.818182 0,-0.453273 0.364909,-0.818182 0.818182,-0.818182 m 8.181821,3.272727 v 1.636365 c 0,1.506272 -1.01291,2.756453 -2.394002,3.140181 -0.120273,0.03354 -0.243001,0.05891 -0.367363,0.08182 -0.16773,0.02619 -0.336273,0.05072 -0.511364,0.05072 h -5.911365 c -0.390272,0.434454 -0.634091,1.003909 -0.634091,1.636363 v 4.09091 c 0,1.359818 1.094728,2.454547 2.454546,2.454547 h 3.272727 c 1.359819,0 2.454546,-1.094729 2.454546,-2.454547 V 36.5514 h -4.09091 v -0.818182 h 5.727276 c 1.813091,0 3.272726,-1.459636 3.272726,-3.272728 v -1.63636 c 0,-1.81309 -1.459635,-3.272726 -3.272726,-3.272726 m -3.272729,9.818181 c 0.453273,0 0.818181,0.364908 0.818181,0.818182 0,0.453273 -0.364908,0.818181 -0.818181,0.818181 -0.453274,0 -0.818183,-0.364908 -0.818183,-0.818181 0,-0.453274 0.364909,-0.818182 0.818183,-0.818182"
       fill="#fde3a7"
       id="path11"
       style="fill:url(#linearGradient10);fill-opacity:1;stroke-width:0.818182" />
  </g>
</svg>
