<?xml version="1.0" encoding="UTF-8" standalone="no"?>
<svg
   width="64"
   height="64"
   version="1.1"
   id="svg73"
   sodipodi:docname="application-x-bittorrent.svg"
   inkscape:version="1.4 (e7c3feb100, 2024-10-09)"
   xmlns:inkscape="http://www.inkscape.org/namespaces/inkscape"
   xmlns:sodipodi="http://sodipodi.sourceforge.net/DTD/sodipodi-0.dtd"
   xmlns:xlink="http://www.w3.org/1999/xlink"
   xmlns="http://www.w3.org/2000/svg"
   xmlns:svg="http://www.w3.org/2000/svg"
   xmlns:rdf="http://www.w3.org/1999/02/22-rdf-syntax-ns#"
   xmlns:cc="http://creativecommons.org/ns#"
   xmlns:dc="http://purl.org/dc/elements/1.1/">
  <metadata
     id="metadata77">
    <rdf:RDF>
      <cc:Work
         rdf:about="">
        <dc:format>image/svg+xml</dc:format>
        <dc:type
           rdf:resource="http://purl.org/dc/dcmitype/StillImage" />
      </cc:Work>
    </rdf:RDF>
  </metadata>
  <sodipodi:namedview
     pagecolor="#f5f7fa"
     bordercolor="#666666"
     borderopacity="1"
     objecttolerance="10"
     gridtolerance="10"
     guidetolerance="10"
     inkscape:pageopacity="0"
     inkscape:pageshadow="2"
     inkscape:window-width="1183"
     inkscape:window-height="669"
     id="namedview75"
     showgrid="false"
     inkscape:zoom="4.4470387"
     inkscape:cx="19.451146"
     inkscape:cy="25.859905"
     inkscape:window-x="80"
     inkscape:window-y="161"
     inkscape:window-maximized="0"
     inkscape:current-layer="g877"
     inkscape:document-rotation="0"
     inkscape:pagecheckerboard="0"
     inkscape:showpageshadow="2"
     inkscape:deskcolor="#d1d1d1" />
  <defs
     id="defs29">
    <filter
       style="color-interpolation-filters:sRGB;"
       inkscape:label="Blur"
       id="filter6"
       x="-0.044145008"
       y="-0.044145008"
       width="1.08829"
       height="1.08829">
      <feGaussianBlur
         stdDeviation="1 1"
         result="blur"
         id="feGaussianBlur6" />
    </filter>
    <filter
       style="color-interpolation-filters:sRGB;"
       inkscape:label="Blur"
       id="filter7"
       x="-0.098100013"
       y="-0.098100021"
       width="1.1962"
       height="1.1962">
      <feGaussianBlur
         stdDeviation="2 2"
         result="blur"
         id="feGaussianBlur7" />
    </filter>
    <clipPath
       id="clip0_515_3621">
      <rect
         width="16"
         height="16"
         fill="#ffffff"
         transform="translate(0.00292969)"
         id="rect7969"
         x="0"
         y="0" />
    </clipPath>
    <filter
       style="color-interpolation-filters:sRGB;"
       inkscape:label="Blur"
       id="filter7349"
       x="-0.10485812"
       y="-0.10485813"
       width="1.2097162"
       height="1.2097163">
      <feGaussianBlur
         stdDeviation="2 2"
         result="blur"
         id="feGaussianBlur7347" />
    </filter>
    <filter
       style="color-interpolation-filters:sRGB"
       inkscape:label="Blur"
       id="filter1283"
       x="-0.082344266"
       y="-0.082344266"
       width="1.1646885"
       height="1.1646885">
      <feGaussianBlur
         stdDeviation="0.5 0.5"
         result="blur"
         id="feGaussianBlur1281" />
    </filter>
    <linearGradient
       inkscape:collect="always"
       xlink:href="#linearGradient1134-5"
       id="linearGradient1136"
       x1="14.971222"
       y1="14.703373"
       x2="2.0756054"
       y2="2.0069976"
       gradientUnits="userSpaceOnUse"
       gradientTransform="matrix(2.4106819,0,0,3.1438568,11.58952,5.3983817)" />
    <filter
       style="color-interpolation-filters:sRGB"
       inkscape:label="Blur"
       id="filter1694"
       x="-0.94955398"
       y="-0.2118907"
       width="2.899108"
       height="1.4237814">
      <feGaussianBlur
         stdDeviation="0.2 0.2"
         result="blur"
         id="feGaussianBlur1692" />
    </filter>
    <filter
       style="color-interpolation-filters:sRGB"
       inkscape:label="Blur"
       id="filter3"
       x="-0.10843471"
       y="-0.10870992"
       width="1.2168694"
       height="1.2174198">
      <feGaussianBlur
         stdDeviation="0.5 0.5"
         result="blur"
         id="feGaussianBlur3" />
    </filter>
    <linearGradient
       inkscape:collect="always"
       id="linearGradient1134-5">
      <stop
         style="stop-color:#2e3440;stop-opacity:1;"
         offset="0"
         id="stop1130-3" />
      <stop
         style="stop-color:#4c566a;stop-opacity:1;"
         offset="1"
         id="stop1132-5" />
    </linearGradient>
    <linearGradient
       id="linearGradient1"
       inkscape:collect="always">
      <stop
         style="stop-color:#d8dee9;stop-opacity:1;"
         offset="0"
         id="stop1" />
      <stop
         style="stop-color:#eceff4;stop-opacity:1;"
         offset="1"
         id="stop2" />
    </linearGradient>
    <clipPath
       clipPathUnits="userSpaceOnUse"
       id="clipPath354">
      <rect
         style="display:block;opacity:0.2"
         width="36"
         height="36"
         x="15.620633"
         y="15.638589"
         rx="2.7690001"
         ry="2.7690001"
         id="rect356" />
    </clipPath>
    <inkscape:path-effect
       effect="powerclip"
       id="path-effect358"
       is_visible="true"
       lpeversion="1"
       inverse="true"
       flatten="false"
       hide_clip="false"
       message="" />
    <clipPath
       clipPathUnits="userSpaceOnUse"
       id="clipPath186">
      <rect
         style="display:block;opacity:0.2"
         width="36"
         height="36"
         x="5.391973"
         y="5.6022935"
         rx="2.7690001"
         ry="2.7690001"
         id="rect188" />
    </clipPath>
    <inkscape:path-effect
       effect="powerclip"
       id="path-effect190"
       is_visible="true"
       lpeversion="1"
       inverse="true"
       flatten="false"
       hide_clip="false"
       message="" />
    <linearGradient
       inkscape:collect="always"
       xlink:href="#linearGradient1"
       id="linearGradient22"
       x1="42.223801"
       y1="37.797462"
       x2="20.978172"
       y2="23.69206"
       gradientUnits="userSpaceOnUse" />
  </defs>
  <g
     id="g877"
     transform="matrix(1.1,0,0,1.1,-3.1845928,-3.2065454)">
    <path
       style="fill:#f5f7fa;stroke-width:0.204426;fill-opacity:1"
       d=""
       id="path3" />
    <rect
       style="fill:#000000;stroke:none;stroke-width:0.539739;stroke-dasharray:none;filter:url(#filter1283)"
       id="rect246-1"
       width="14.572964"
       height="14.572964"
       x="1.1932471"
       y="1.2138842"
       rx="2.1589575"
       ry="2.1589575"
       transform="matrix(2.4606127,0,0,3.1451146,11.16612,5.3876877)" />
    <rect
       style="fill:#2b323e;stroke:#8aadf4;stroke-width:1.63561;stroke-dasharray:none;fill-opacity:1;stroke-opacity:1"
       id="rect246"
       width="35.155312"
       height="44.93494"
       x="14.453793"
       y="9.6548424"
       rx="5.2081943"
       ry="5.181818" />
    <rect
       style="fill:url(#linearGradient1136);fill-opacity:1;stroke:none;stroke-width:1.31679;stroke-dasharray:none"
       id="rect246-5"
       width="31.13278"
       height="40.601383"
       x="16.465055"
       y="11.821622"
       rx="3.1818182"
       ry="3.1725934" />
    <path
       d="m 28.981094,25.551626 c -3.363524,0.06576 -7.873534,2.701668 -8.01227,7.456459 -0.08889,3.046547 0.889604,6.328321 6.117284,6.41111 1.577995,0.02499 3.487085,-1.325455 3.487085,-1.325455 l 0.994091,-5.301818 h -4.55625 l -0.745568,1.988182 h 1.988182 l -0.396083,1.946761 c 0,0 -1.085302,0.133745 -1.639991,0.111318 -1.819235,-0.07357 -2.633497,-1.865436 -2.619844,-3.386122 0.02507,-2.796871 2.701844,-5.286731 5.819573,-5.31994 1.432417,-0.01526 2.425687,0.724858 2.425687,0.724858 l 0.436208,-2.741517 c 0,0 -0.833999,-0.612016 -3.298104,-0.563836 z m 5.237099,-0.0497 -1.988183,13.254545 6.119874,0.04531 c 1.621421,0.0092 4.41327,-2.040676 4.501885,-4.588609 -0.01822,-1.221999 -1.67494,-2.415331 -1.67494,-2.415331 0,0 1.639905,-1.254964 1.638697,-2.983567 -0.0014,-1.958525 -2.82731,-3.267038 -3.396477,-3.267038 z m 2.650909,2.650909 1.30345,0.03754 c 0,0 1.399817,-0.03963 1.413473,1.018684 -0.07844,1.527907 -1.195281,1.637163 -1.841916,1.629635 -0.578534,-0.0066 -1.537734,-0.03495 -1.537734,-0.03495 z m -0.891834,5.253925 2.133153,0.0479 c 0,0 1.392125,-0.13342 1.432889,1.210254 0.03393,1.11826 -1.053947,1.432247 -1.614104,1.440655 h -2.385558 z"
       style="fill:#000000;fill-opacity:1;stroke-width:0.662728;opacity:0.3"
       id="path7-6-9" />
    <path
       d="m 28.981094,23.733444 c -3.363524,0.06576 -7.873534,2.701668 -8.01227,7.456459 -0.08889,3.046547 0.889604,6.328321 6.117284,6.41111 1.577995,0.02499 3.487085,-1.325455 3.487085,-1.325455 l 0.994091,-5.301818 h -4.55625 l -0.745568,1.988182 h 1.988182 l -0.396083,1.946761 c 0,0 -1.085302,0.133745 -1.639991,0.111318 -1.819235,-0.07357 -2.633497,-1.865436 -2.619844,-3.386122 0.02507,-2.796871 2.701844,-5.286731 5.819573,-5.31994 1.432417,-0.01526 2.425687,0.724858 2.425687,0.724858 l 0.436208,-2.741517 c 0,0 -0.833999,-0.612016 -3.298104,-0.563836 z m 5.237099,-0.0497 -1.988183,13.254545 6.119874,0.04531 c 1.621421,0.0092 4.41327,-2.040676 4.501885,-4.588609 -0.01822,-1.221999 -1.67494,-2.415331 -1.67494,-2.415331 0,0 1.639905,-1.254964 1.638697,-2.983567 -0.0014,-1.958525 -2.82731,-3.267038 -3.396477,-3.267038 z m 2.650909,2.650909 1.30345,0.03754 c 0,0 1.399817,-0.03963 1.413473,1.018684 -0.07844,1.527907 -1.195281,1.637163 -1.841916,1.629635 -0.578534,-0.0066 -1.537734,-0.03495 -1.537734,-0.03495 z m -0.891834,5.253925 2.133153,0.0479 c 0,0 1.392125,-0.13342 1.432889,1.210254 0.03393,1.11826 -1.053947,1.432247 -1.614104,1.440655 h -2.385558 z"
       style="fill:url(#linearGradient22);fill-opacity:1;stroke-width:0.662728"
       id="path7-6" />
  </g>
</svg>
