<?xml version="1.0" encoding="UTF-8" standalone="no"?>
<svg
   width="64"
   height="64"
   version="1.1"
   id="svg73"
   sodipodi:docname="application-vnd.sun.xml.draw.template.svg"
   inkscape:version="1.4 (e7c3feb100, 2024-10-09)"
   xmlns:inkscape="http://www.inkscape.org/namespaces/inkscape"
   xmlns:sodipodi="http://sodipodi.sourceforge.net/DTD/sodipodi-0.dtd"
   xmlns:xlink="http://www.w3.org/1999/xlink"
   xmlns="http://www.w3.org/2000/svg"
   xmlns:svg="http://www.w3.org/2000/svg"
   xmlns:rdf="http://www.w3.org/1999/02/22-rdf-syntax-ns#"
   xmlns:cc="http://creativecommons.org/ns#"
   xmlns:dc="http://purl.org/dc/elements/1.1/">
  <metadata
     id="metadata77">
    <rdf:RDF>
      <cc:Work
         rdf:about="">
        <dc:format>image/svg+xml</dc:format>
        <dc:type
           rdf:resource="http://purl.org/dc/dcmitype/StillImage" />
      </cc:Work>
    </rdf:RDF>
  </metadata>
  <sodipodi:namedview
     pagecolor="#f5f7fa"
     bordercolor="#666666"
     borderopacity="1"
     objecttolerance="10"
     gridtolerance="10"
     guidetolerance="10"
     inkscape:pageopacity="0"
     inkscape:pageshadow="2"
     inkscape:window-width="1183"
     inkscape:window-height="669"
     id="namedview75"
     showgrid="false"
     inkscape:zoom="4.4470387"
     inkscape:cx="19.451146"
     inkscape:cy="8.3201435"
     inkscape:window-x="107"
     inkscape:window-y="141"
     inkscape:window-maximized="0"
     inkscape:current-layer="g877"
     inkscape:document-rotation="0"
     inkscape:pagecheckerboard="0"
     inkscape:showpageshadow="2"
     inkscape:deskcolor="#d1d1d1" />
  <defs
     id="defs29">
    <filter
       style="color-interpolation-filters:sRGB;"
       inkscape:label="Blur"
       id="filter6"
       x="-0.044145008"
       y="-0.044145008"
       width="1.08829"
       height="1.08829">
      <feGaussianBlur
         stdDeviation="1 1"
         result="blur"
         id="feGaussianBlur6" />
    </filter>
    <filter
       style="color-interpolation-filters:sRGB;"
       inkscape:label="Blur"
       id="filter7"
       x="-0.098100013"
       y="-0.098100021"
       width="1.1962"
       height="1.1962">
      <feGaussianBlur
         stdDeviation="2 2"
         result="blur"
         id="feGaussianBlur7" />
    </filter>
    <clipPath
       id="clip0_515_3621">
      <rect
         width="16"
         height="16"
         fill="#ffffff"
         transform="translate(0.00292969)"
         id="rect7969"
         x="0"
         y="0" />
    </clipPath>
    <filter
       style="color-interpolation-filters:sRGB;"
       inkscape:label="Blur"
       id="filter7349"
       x="-0.10485812"
       y="-0.10485813"
       width="1.2097162"
       height="1.2097163">
      <feGaussianBlur
         stdDeviation="2 2"
         result="blur"
         id="feGaussianBlur7347" />
    </filter>
    <filter
       style="color-interpolation-filters:sRGB"
       inkscape:label="Blur"
       id="filter1283"
       x="-0.082344266"
       y="-0.082344266"
       width="1.1646885"
       height="1.1646885">
      <feGaussianBlur
         stdDeviation="0.5 0.5"
         result="blur"
         id="feGaussianBlur1281" />
    </filter>
    <linearGradient
       inkscape:collect="always"
       xlink:href="#linearGradient1134-5"
       id="linearGradient1136"
       x1="14.971222"
       y1="14.703373"
       x2="2.0756054"
       y2="2.0069976"
       gradientUnits="userSpaceOnUse"
       gradientTransform="matrix(2.4106819,0,0,3.1438568,11.58952,5.3983817)" />
    <filter
       style="color-interpolation-filters:sRGB"
       inkscape:label="Blur"
       id="filter1694"
       x="-0.94955398"
       y="-0.2118907"
       width="2.899108"
       height="1.4237814">
      <feGaussianBlur
         stdDeviation="0.2 0.2"
         result="blur"
         id="feGaussianBlur1692" />
    </filter>
    <filter
       style="color-interpolation-filters:sRGB"
       inkscape:label="Blur"
       id="filter3"
       x="-0.10843471"
       y="-0.10870992"
       width="1.2168694"
       height="1.2174198">
      <feGaussianBlur
         stdDeviation="0.5 0.5"
         result="blur"
         id="feGaussianBlur3" />
    </filter>
    <linearGradient
       inkscape:collect="always"
       id="linearGradient1134-5">
      <stop
         style="stop-color:#2e3440;stop-opacity:1;"
         offset="0"
         id="stop1130-3" />
      <stop
         style="stop-color:#4c566a;stop-opacity:1;"
         offset="1"
         id="stop1132-5" />
    </linearGradient>
    <linearGradient
       id="linearGradient1"
       inkscape:collect="always">
      <stop
         style="stop-color:#d8dee9;stop-opacity:1;"
         offset="0"
         id="stop1" />
      <stop
         style="stop-color:#eceff4;stop-opacity:1;"
         offset="1"
         id="stop2" />
    </linearGradient>
    <linearGradient
       inkscape:collect="always"
       xlink:href="#linearGradient1"
       id="linearGradient12"
       x1="41.769634"
       y1="41.57795"
       x2="21.861568"
       y2="21.339764"
       gradientUnits="userSpaceOnUse"
       gradientTransform="translate(-0.27272806)" />
  </defs>
  <g
     id="g877"
     transform="matrix(1.1,0,0,1.1,-3.1845928,-3.2065454)">
    <path
       style="fill:#f5f7fa;stroke-width:0.204426;fill-opacity:1"
       d=""
       id="path3" />
    <rect
       style="fill:#000000;stroke:none;stroke-width:0.539739;stroke-dasharray:none;filter:url(#filter1283)"
       id="rect246-1"
       width="14.572964"
       height="14.572964"
       x="1.1932471"
       y="1.2138842"
       rx="2.1589575"
       ry="2.1589575"
       transform="matrix(2.4606127,0,0,3.1451146,11.16612,5.3876877)" />
    <rect
       style="fill:#2b323e;stroke:#8bd5ca;stroke-width:1.63561;stroke-dasharray:none;fill-opacity:1;stroke-opacity:1"
       id="rect246"
       width="35.155312"
       height="44.93494"
       x="14.453793"
       y="9.6548424"
       rx="5.2081943"
       ry="5.181818" />
    <rect
       style="fill:url(#linearGradient1136);fill-opacity:1;stroke:none;stroke-width:1.31679;stroke-dasharray:none"
       id="rect246-5"
       width="31.13278"
       height="40.601383"
       x="16.465055"
       y="11.821622"
       rx="3.1818182"
       ry="3.1725934" />
    <path
       d="m 42.902382,36.084689 c -0.44,-0.433999 -1.415,-0.663 -2.898999,-0.682 -1.005003,-0.01599 -2.214002,0.076 -3.486004,0.255 -0.569001,-0.329 -1.156001,-0.686 -1.617,-1.117 -1.240002,-1.156999 -2.274001,-2.763999 -2.919001,-4.53 0.042,-0.165001 0.078,-0.31 0.111,-0.458001 0,0 0.698001,-3.966 0.514,-5.306 -0.02601,-0.184001 -0.041,-0.238001 -0.091,-0.381 l -0.06101,-0.154998 c -0.189001,-0.438002 -0.562001,-0.902001 -1.146001,-0.876001 l -0.341999,-0.01601 h -0.009 c -0.651,0 -1.182,0.333 -1.321,0.83 -0.423001,1.561 0.01299,3.896 0.804999,6.92 l -0.202999,0.491999 c -0.565998,1.382013 -1.276998,2.774013 -1.902998,4.001013 l -0.082,0.16 c -0.659,1.289999 -1.257,2.386 -1.798999,3.313 l -0.560001,0.296001 c -0.041,0.02199 -1.001,0.529 -1.225999,0.665999 -1.909001,1.14 -3.175,2.434 -3.384,3.461 -0.067,0.327004 -0.01701,0.747007 0.321998,0.941008 l 0.542,0.27299 c 0.235002,0.117992 0.482,0.176988 0.736,0.176988 1.36,0 2.939001,-1.694009 5.114,-5.49001 2.511001,-0.816999 5.37,-1.497 7.876001,-1.871999 1.909004,1.076 4.258006,1.822 5.740005,1.822 0.262991,0 0.489998,-0.02501 0.674999,-0.074 0.283986,-0.075 0.523001,-0.236998 0.67,-0.456999 0.287009,-0.433001 0.345002,-1.029001 0.267011,-1.639 -0.02302,-0.181002 -0.167986,-0.405001 -0.324015,-0.558001 z m -20.313004,7.236004 c 0.248,-0.678004 1.23,-2.019003 2.680999,-3.208004 0.092,-0.074 0.317,-0.284999 0.522001,-0.48 -1.517,2.421 -2.534001,3.386004 -3.203,3.688004 z m 8.596999,-19.797004 c 0.437001,0 0.686001,1.102 0.707,2.135 0.02,1.032999 -0.221,1.758 -0.521,2.295 -0.247999,-0.794999 -0.367999,-2.046001 -0.367999,-2.865 0,0 -0.018,-1.565 0.181999,-1.565 z m -2.563999,14.108 c 0.303999,-0.545 0.621,-1.120001 0.945,-1.729999 0.789,-1.492001 1.287001,-2.660001 1.659001,-3.620002 0.738,1.343002 1.656998,2.485 2.737999,3.400002 0.135,0.113999 0.278,0.228999 0.428,0.342998 -2.198,0.435001 -4.098,0.964001 -5.77,1.607001 z M 42.480383,37.50869 c -0.134004,0.083 -0.518002,0.132997 -0.764002,0.132997 -0.796998,0 -1.781,-0.363999 -3.161998,-0.956 0.529996,-0.04 1.016998,-0.06001 1.452999,-0.06001 0.797998,0 1.035,0 1.815999,0.196 0.781,0.199 0.790002,0.603 0.657002,0.687 z"
       style="clip-rule:evenodd;fill:#000000;fill-rule:nonzero;stroke-width:1;stroke-linejoin:round;stroke-miterlimit:2;opacity:0.3"
       id="path5-1" />
    <path
       d="m 42.902382,34.266507 c -0.44,-0.433999 -1.415,-0.663 -2.898999,-0.682 -1.005003,-0.01599 -2.214002,0.076 -3.486004,0.255 -0.569001,-0.329 -1.156001,-0.686 -1.617,-1.117 -1.240002,-1.156999 -2.274001,-2.763999 -2.919001,-4.53 0.042,-0.165001 0.078,-0.31 0.111,-0.458001 0,0 0.698001,-3.966 0.514,-5.306 -0.02601,-0.184001 -0.041,-0.238001 -0.091,-0.381 l -0.06101,-0.154998 c -0.189001,-0.438002 -0.562001,-0.902001 -1.146001,-0.876001 l -0.341999,-0.01601 h -0.009 c -0.651,0 -1.182,0.333 -1.321,0.83 -0.423001,1.561 0.01299,3.896 0.804999,6.92 l -0.202999,0.491999 c -0.565998,1.382013 -1.276998,2.774013 -1.902998,4.001013 l -0.082,0.16 c -0.659,1.289999 -1.257,2.386 -1.798999,3.313 L 25.89437,37.01251 c -0.041,0.02199 -1.001,0.529 -1.225999,0.665999 -1.909001,1.14 -3.175,2.434 -3.384,3.461 -0.067,0.327004 -0.01701,0.747007 0.321998,0.941008 l 0.542,0.27299 c 0.235002,0.117992 0.482,0.176988 0.736,0.176988 1.36,0 2.939001,-1.694009 5.114,-5.49001 2.511001,-0.816999 5.37,-1.497 7.876001,-1.871999 1.909004,1.076 4.258006,1.822 5.740005,1.822 0.262991,0 0.489998,-0.02501 0.674999,-0.074 0.283986,-0.075 0.523001,-0.236998 0.67,-0.456999 0.287009,-0.433001 0.345002,-1.029001 0.267011,-1.639 -0.02302,-0.181002 -0.167986,-0.405001 -0.324015,-0.558001 z m -20.313004,7.236004 c 0.248,-0.678004 1.23,-2.019003 2.680999,-3.208004 0.092,-0.074 0.317,-0.284999 0.522001,-0.48 -1.517,2.421 -2.534001,3.386004 -3.203,3.688004 z m 8.596999,-19.797004 c 0.437001,0 0.686001,1.102 0.707,2.135 0.02,1.032999 -0.221,1.758 -0.521,2.295 -0.247999,-0.794999 -0.367999,-2.046001 -0.367999,-2.865 0,0 -0.018,-1.565 0.181999,-1.565 z m -2.563999,14.108 c 0.303999,-0.545 0.621,-1.120001 0.945,-1.729999 0.789,-1.492001 1.287001,-2.660001 1.659001,-3.620002 0.738,1.343002 1.656998,2.485 2.737999,3.400002 0.135,0.113999 0.278,0.228999 0.428,0.342998 -2.198,0.435001 -4.098,0.964001 -5.77,1.607001 z m 13.858005,-0.122999 c -0.134004,0.083 -0.518002,0.132997 -0.764002,0.132997 -0.796998,0 -1.781,-0.363999 -3.161998,-0.956 0.529996,-0.04 1.016998,-0.06001 1.452999,-0.06001 0.797998,0 1.035,0 1.815999,0.196 0.781,0.199 0.790002,0.603 0.657002,0.687 z"
       style="clip-rule:evenodd;fill:url(#linearGradient12);fill-rule:nonzero;stroke-width:1;stroke-linejoin:round;stroke-miterlimit:2"
       id="path5" />
  </g>
</svg>
