<?xml version="1.0" encoding="UTF-8" standalone="no"?>
<svg
   width="64"
   height="64"
   version="1.1"
   id="svg73"
   sodipodi:docname="application-x-iso9660-appimage.svg"
   inkscape:version="1.4 (e7c3feb100, 2024-10-09)"
   xmlns:inkscape="http://www.inkscape.org/namespaces/inkscape"
   xmlns:sodipodi="http://sodipodi.sourceforge.net/DTD/sodipodi-0.dtd"
   xmlns:xlink="http://www.w3.org/1999/xlink"
   xmlns="http://www.w3.org/2000/svg"
   xmlns:svg="http://www.w3.org/2000/svg"
   xmlns:rdf="http://www.w3.org/1999/02/22-rdf-syntax-ns#"
   xmlns:cc="http://creativecommons.org/ns#"
   xmlns:dc="http://purl.org/dc/elements/1.1/">
  <metadata
     id="metadata77">
    <rdf:RDF>
      <cc:Work
         rdf:about="">
        <dc:format>image/svg+xml</dc:format>
        <dc:type
           rdf:resource="http://purl.org/dc/dcmitype/StillImage" />
      </cc:Work>
    </rdf:RDF>
  </metadata>
  <sodipodi:namedview
     pagecolor="#f5f7fa"
     bordercolor="#666666"
     borderopacity="1"
     objecttolerance="10"
     gridtolerance="10"
     guidetolerance="10"
     inkscape:pageopacity="0"
     inkscape:pageshadow="2"
     inkscape:window-width="1226"
     inkscape:window-height="669"
     id="namedview75"
     showgrid="false"
     inkscape:zoom="4.4470387"
     inkscape:cx="19.338712"
     inkscape:cy="24.735562"
     inkscape:window-x="273"
     inkscape:window-y="135"
     inkscape:window-maximized="0"
     inkscape:current-layer="g877"
     inkscape:document-rotation="0"
     inkscape:pagecheckerboard="0"
     inkscape:showpageshadow="2"
     inkscape:deskcolor="#d1d1d1" />
  <defs
     id="defs29">
    <filter
       style="color-interpolation-filters:sRGB;"
       inkscape:label="Blur"
       id="filter6"
       x="-0.044145008"
       y="-0.044145008"
       width="1.08829"
       height="1.08829">
      <feGaussianBlur
         stdDeviation="1 1"
         result="blur"
         id="feGaussianBlur6" />
    </filter>
    <filter
       style="color-interpolation-filters:sRGB;"
       inkscape:label="Blur"
       id="filter7"
       x="-0.098100013"
       y="-0.098100021"
       width="1.1962"
       height="1.1962">
      <feGaussianBlur
         stdDeviation="2 2"
         result="blur"
         id="feGaussianBlur7" />
    </filter>
    <clipPath
       id="clip0_515_3621">
      <rect
         width="16"
         height="16"
         fill="#ffffff"
         transform="translate(0.00292969)"
         id="rect7969"
         x="0"
         y="0" />
    </clipPath>
    <filter
       style="color-interpolation-filters:sRGB;"
       inkscape:label="Blur"
       id="filter7349"
       x="-0.10485812"
       y="-0.10485813"
       width="1.2097162"
       height="1.2097163">
      <feGaussianBlur
         stdDeviation="2 2"
         result="blur"
         id="feGaussianBlur7347" />
    </filter>
    <filter
       style="color-interpolation-filters:sRGB"
       inkscape:label="Blur"
       id="filter1283"
       x="-0.082344266"
       y="-0.082344266"
       width="1.1646885"
       height="1.1646885">
      <feGaussianBlur
         stdDeviation="0.5 0.5"
         result="blur"
         id="feGaussianBlur1281" />
    </filter>
    <linearGradient
       inkscape:collect="always"
       xlink:href="#linearGradient1134-3"
       id="linearGradient1136"
       x1="14.971222"
       y1="14.703373"
       x2="2.0756054"
       y2="2.0069976"
       gradientUnits="userSpaceOnUse"
       gradientTransform="matrix(3.0911647,0,0,3.0911647,5.8192098,5.8462823)" />
    <filter
       style="color-interpolation-filters:sRGB"
       inkscape:label="Blur"
       id="filter1694"
       x="-0.94955398"
       y="-0.2118907"
       width="2.899108"
       height="1.4237814">
      <feGaussianBlur
         stdDeviation="0.2 0.2"
         result="blur"
         id="feGaussianBlur1692" />
    </filter>
    <filter
       style="color-interpolation-filters:sRGB"
       inkscape:label="Blur"
       id="filter3"
       x="-0.10843471"
       y="-0.10870992"
       width="1.2168694"
       height="1.2174198">
      <feGaussianBlur
         stdDeviation="0.5 0.5"
         result="blur"
         id="feGaussianBlur3" />
    </filter>
    <linearGradient
       inkscape:collect="always"
       id="linearGradient1134-3">
      <stop
         style="stop-color:#2e3440;stop-opacity:1;"
         offset="0"
         id="stop1130-6" />
      <stop
         style="stop-color:#4c566a;stop-opacity:1;"
         offset="1"
         id="stop1132-7" />
    </linearGradient>
    <linearGradient
       id="linearGradient1"
       inkscape:collect="always">
      <stop
         style="stop-color:#d8dee9;stop-opacity:1;"
         offset="0"
         id="stop1" />
      <stop
         style="stop-color:#eceff4;stop-opacity:1;"
         offset="1"
         id="stop2" />
    </linearGradient>
    <linearGradient
       inkscape:collect="always"
       xlink:href="#linearGradient1"
       id="linearGradient5"
       x1="43.736179"
       y1="43.090294"
       x2="21.420063"
       y2="20.603418"
       gradientUnits="userSpaceOnUse" />
  </defs>
  <g
     id="g877"
     transform="matrix(1.1,0,0,1.1,-3.1845928,-3.2065454)">
    <path
       style="fill:#f5f7fa;stroke-width:0.204426;fill-opacity:1"
       d=""
       id="path3" />
    <rect
       style="fill:#000000;stroke:none;stroke-width:0.539739;stroke-dasharray:none;filter:url(#filter1283)"
       id="rect246-1"
       width="14.572964"
       height="14.572964"
       x="1.1932471"
       y="1.2138842"
       rx="2.1589575"
       ry="2.1589575"
       transform="matrix(3.0924016,0,0,3.0924016,5.8087206,5.8357678)" />
    <rect
       style="fill:#2b323e;stroke:#eed49f;stroke-width:1.81818182;stroke-dasharray:none;fill-opacity:1;stroke-opacity:1"
       id="rect246"
       width="44.18182"
       height="44.18182"
       x="9.9405384"
       y="10.031404"
       rx="6.5454545"
       ry="6.545455" />
    <rect
       style="fill:url(#linearGradient1136);fill-opacity:1;stroke:none;stroke-width:1.47855;stroke-dasharray:none"
       id="rect246-5"
       width="39.920887"
       height="39.920895"
       x="12.071002"
       y="12.161867"
       rx="4.9071274"
       ry="4.9071274" />
    <path
       style="fill:#000000;fill-opacity:1;stroke-width:0.801901;opacity:0.3"
       d="m 32.067054,22.43844 c -6.20029,0 -11.2266,5.02631 -11.2266,11.2266 0,6.200285 5.02631,11.226596 11.2266,11.226596 6.200295,0 11.226605,-5.026311 11.226605,-11.226596 0,-6.20029 -5.02631,-11.2266 -11.226605,-11.2266 z m -1.12454,2.14571 c 0.130888,-0.01364 0.297084,0.0079 0.429142,0 0.0157,0.06261 -0.09504,0.284817 -0.244331,0.610822 -0.95056,2.076591 -1.004371,4.510769 -0.122164,5.810643 0.159644,0.235676 0.303846,0.459499 0.303846,0.488657 0,0.02914 -0.171828,0.05951 -0.366495,0.05951 -0.456989,0 -0.889353,-0.277626 -1.77295,-0.977317 -0.392522,-0.310823 -0.901777,-0.571303 -1.099477,-0.610821 -0.310452,-0.06202 -0.394013,-0.03517 -0.795634,0.366494 -0.373675,0.373607 -0.488659,0.575772 -0.488659,0.9178 0,1.297019 1.538903,2.325247 4.401053,2.93195 3.886908,0.823804 4.845148,1.564668 4.952358,3.608541 0.134609,2.562967 -1.230674,4.496218 -4.219373,5.992325 -0.356719,0.178638 -0.583318,0.246121 -0.732985,0.303811 -0.06632,-0.0062 -0.115553,0.0062 -0.181679,0 -0.02546,-0.07927 -0.06264,-0.26251 -0.06264,-0.610821 0,-1.361269 -0.5353,-2.762341 -1.343808,-3.545907 -0.217034,-0.210304 -0.826566,-0.655149 -1.346946,-0.977279 -0.520361,-0.322111 -1.045133,-0.695508 -1.16213,-0.85515 -0.193884,-0.264928 -0.208478,-0.428391 -0.05951,-0.917798 0.271478,-0.893848 0.593465,-1.392989 1.221646,-1.957762 0.32933,-0.296086 0.660029,-0.542238 0.732985,-0.548174 0.07297,-0.0061 -0.418276,-0.155452 -1.158995,-0.306977 -0.740677,-0.151816 -1.826711,-0.470723 -2.386905,-0.67347 -1.024364,-0.370652 -2.40468,-1.147155 -2.931948,-1.710302 -0.0223,-0.02388 -0.04328,-0.04151 -0.06264,-0.06264 0.755449,-3.009237 2.874887,-5.47411 5.685345,-6.662662 0.588055,-0.248725 1.195681,-0.42042 1.8356,-0.551306 0.318747,-0.06515 0.648199,-0.08871 0.977315,-0.122163 z m 9.171734,4.585866 c 0.229765,0.142034 1.096143,2.019455 1.34381,2.935079 0.319754,1.182075 0.29663,3.226781 0,4.401049 -0.112873,0.446934 -0.255707,0.865757 -0.303846,0.9178 -0.0481,0.05205 -0.223821,-0.246977 -0.429143,-0.610822 -0.205339,-0.363785 -0.861402,-1.138331 -1.406451,-1.713433 -1.573274,-1.660117 -1.821147,-2.524828 -1.162128,-3.849745 0.332343,-0.668111 1.779917,-2.189692 1.957758,-2.079928 z"
       id="path14-9" />
    <path
       style="fill:url(#linearGradient5);fill-opacity:1;stroke-width:0.801901"
       d="m 32.067054,20.620258 c -6.20029,0 -11.2266,5.02631 -11.2266,11.2266 0,6.200285 5.02631,11.226596 11.2266,11.226596 6.200295,0 11.226605,-5.026311 11.226605,-11.226596 0,-6.20029 -5.02631,-11.2266 -11.226605,-11.2266 z m -1.12454,2.14571 c 0.130888,-0.01364 0.297084,0.0079 0.429142,0 0.0157,0.06261 -0.09504,0.284817 -0.244331,0.610822 -0.95056,2.076591 -1.004371,4.510769 -0.122164,5.810643 0.159644,0.235676 0.303846,0.459499 0.303846,0.488657 0,0.02914 -0.171828,0.05951 -0.366495,0.05951 -0.456989,0 -0.889353,-0.277626 -1.77295,-0.977317 -0.392522,-0.310823 -0.901777,-0.571303 -1.099477,-0.610821 -0.310452,-0.06202 -0.394013,-0.03517 -0.795634,0.366494 -0.373675,0.373607 -0.488659,0.575772 -0.488659,0.9178 0,1.297019 1.538903,2.325247 4.401053,2.93195 3.886908,0.823804 4.845148,1.564668 4.952358,3.608541 0.134609,2.562967 -1.230674,4.496218 -4.219373,5.992325 -0.356719,0.178638 -0.583318,0.246121 -0.732985,0.303811 -0.06632,-0.0062 -0.115553,0.0062 -0.181679,0 -0.02546,-0.07927 -0.06264,-0.26251 -0.06264,-0.610821 0,-1.361269 -0.5353,-2.762341 -1.343808,-3.545907 -0.217034,-0.210304 -0.826566,-0.655149 -1.346946,-0.977279 -0.520361,-0.322111 -1.045133,-0.695508 -1.16213,-0.85515 -0.193884,-0.264928 -0.208478,-0.428391 -0.05951,-0.917798 0.271478,-0.893848 0.593465,-1.392989 1.221646,-1.957762 0.32933,-0.296086 0.660029,-0.542238 0.732985,-0.548174 0.07297,-0.0061 -0.418276,-0.155452 -1.158995,-0.306977 -0.740677,-0.151816 -1.826711,-0.470723 -2.386905,-0.67347 -1.024364,-0.370652 -2.40468,-1.147155 -2.931948,-1.710302 -0.0223,-0.02388 -0.04328,-0.04151 -0.06264,-0.06264 0.755449,-3.009237 2.874887,-5.47411 5.685345,-6.662662 0.588055,-0.248725 1.195681,-0.42042 1.8356,-0.551306 0.318747,-0.06515 0.648199,-0.08871 0.977315,-0.122163 z m 9.171734,4.585866 c 0.229765,0.142034 1.096143,2.019455 1.34381,2.935079 0.319754,1.182075 0.29663,3.226781 0,4.401049 -0.112873,0.446934 -0.255707,0.865757 -0.303846,0.9178 -0.0481,0.05205 -0.223821,-0.246977 -0.429143,-0.610822 -0.205339,-0.363785 -0.861402,-1.138331 -1.406451,-1.713433 -1.573274,-1.660117 -1.821147,-2.524828 -1.162128,-3.849745 0.332343,-0.668111 1.779917,-2.189692 1.957758,-2.079928 z"
       id="path14" />
  </g>
</svg>
