<?xml version="1.0" encoding="UTF-8" standalone="no"?>
<svg
   width="64"
   height="64"
   version="1.1"
   id="svg73"
   sodipodi:docname="x-office-contact.svg"
   inkscape:version="1.4 (e7c3feb100, 2024-10-09)"
   xmlns:inkscape="http://www.inkscape.org/namespaces/inkscape"
   xmlns:sodipodi="http://sodipodi.sourceforge.net/DTD/sodipodi-0.dtd"
   xmlns:xlink="http://www.w3.org/1999/xlink"
   xmlns="http://www.w3.org/2000/svg"
   xmlns:svg="http://www.w3.org/2000/svg"
   xmlns:rdf="http://www.w3.org/1999/02/22-rdf-syntax-ns#"
   xmlns:cc="http://creativecommons.org/ns#"
   xmlns:dc="http://purl.org/dc/elements/1.1/">
  <metadata
     id="metadata77">
    <rdf:RDF>
      <cc:Work
         rdf:about="">
        <dc:format>image/svg+xml</dc:format>
        <dc:type
           rdf:resource="http://purl.org/dc/dcmitype/StillImage" />
      </cc:Work>
    </rdf:RDF>
  </metadata>
  <sodipodi:namedview
     pagecolor="#f5f7fa"
     bordercolor="#666666"
     borderopacity="1"
     objecttolerance="10"
     gridtolerance="10"
     guidetolerance="10"
     inkscape:pageopacity="0"
     inkscape:pageshadow="2"
     inkscape:window-width="1183"
     inkscape:window-height="669"
     id="namedview75"
     showgrid="false"
     inkscape:zoom="4.4470387"
     inkscape:cx="19.451146"
     inkscape:cy="8.3201435"
     inkscape:window-x="214"
     inkscape:window-y="126"
     inkscape:window-maximized="0"
     inkscape:current-layer="g877"
     inkscape:document-rotation="0"
     inkscape:pagecheckerboard="0"
     inkscape:showpageshadow="2"
     inkscape:deskcolor="#d1d1d1" />
  <defs
     id="defs29">
    <linearGradient
       id="linearGradient5"
       inkscape:collect="always">
      <stop
         style="stop-color:#d8dee9;stop-opacity:1;"
         offset="0"
         id="stop4" />
      <stop
         style="stop-color:#eceff4;stop-opacity:1;"
         offset="1"
         id="stop5" />
    </linearGradient>
    <filter
       style="color-interpolation-filters:sRGB;"
       inkscape:label="Blur"
       id="filter6"
       x="-0.044145008"
       y="-0.044145008"
       width="1.08829"
       height="1.08829">
      <feGaussianBlur
         stdDeviation="1 1"
         result="blur"
         id="feGaussianBlur6" />
    </filter>
    <filter
       style="color-interpolation-filters:sRGB;"
       inkscape:label="Blur"
       id="filter7"
       x="-0.098100013"
       y="-0.098100021"
       width="1.1962"
       height="1.1962">
      <feGaussianBlur
         stdDeviation="2 2"
         result="blur"
         id="feGaussianBlur7" />
    </filter>
    <clipPath
       id="clip0_515_3621">
      <rect
         width="16"
         height="16"
         fill="#ffffff"
         transform="translate(0.00292969)"
         id="rect7969"
         x="0"
         y="0" />
    </clipPath>
    <filter
       style="color-interpolation-filters:sRGB;"
       inkscape:label="Blur"
       id="filter7349"
       x="-0.10485812"
       y="-0.10485813"
       width="1.2097162"
       height="1.2097163">
      <feGaussianBlur
         stdDeviation="2 2"
         result="blur"
         id="feGaussianBlur7347" />
    </filter>
    <filter
       style="color-interpolation-filters:sRGB"
       inkscape:label="Blur"
       id="filter1283"
       x="-0.082344266"
       y="-0.082344266"
       width="1.1646885"
       height="1.1646885">
      <feGaussianBlur
         stdDeviation="0.5 0.5"
         result="blur"
         id="feGaussianBlur1281" />
    </filter>
    <linearGradient
       inkscape:collect="always"
       xlink:href="#linearGradient1134-5"
       id="linearGradient1136"
       x1="14.971222"
       y1="14.703373"
       x2="2.0756054"
       y2="2.0069976"
       gradientUnits="userSpaceOnUse"
       gradientTransform="matrix(2.4106819,0,0,3.1438568,11.58952,5.3983817)" />
    <filter
       style="color-interpolation-filters:sRGB"
       inkscape:label="Blur"
       id="filter1694"
       x="-0.94955398"
       y="-0.2118907"
       width="2.899108"
       height="1.4237814">
      <feGaussianBlur
         stdDeviation="0.2 0.2"
         result="blur"
         id="feGaussianBlur1692" />
    </filter>
    <filter
       style="color-interpolation-filters:sRGB"
       inkscape:label="Blur"
       id="filter3"
       x="-0.10843471"
       y="-0.10870992"
       width="1.2168694"
       height="1.2174198">
      <feGaussianBlur
         stdDeviation="0.5 0.5"
         result="blur"
         id="feGaussianBlur3" />
    </filter>
    <linearGradient
       inkscape:collect="always"
       id="linearGradient1134-5">
      <stop
         style="stop-color:#2e3440;stop-opacity:1;"
         offset="0"
         id="stop1130-3" />
      <stop
         style="stop-color:#4c566a;stop-opacity:1;"
         offset="1"
         id="stop1132-5" />
    </linearGradient>
    <linearGradient
       inkscape:collect="always"
       xlink:href="#linearGradient5"
       id="linearGradient7"
       x1="40.79937"
       y1="43.914215"
       x2="23.561672"
       y2="20.609636"
       gradientUnits="userSpaceOnUse" />
  </defs>
  <g
     id="g877"
     transform="matrix(1.1,0,0,1.1,-3.1845928,-3.2065454)">
    <path
       style="fill:#f5f7fa;stroke-width:0.204426;fill-opacity:1"
       d=""
       id="path3" />
    <rect
       style="fill:#000000;stroke:none;stroke-width:0.539739;stroke-dasharray:none;filter:url(#filter1283)"
       id="rect246-1"
       width="14.572964"
       height="14.572964"
       x="1.1932471"
       y="1.2138842"
       rx="2.1589575"
       ry="2.1589575"
       transform="matrix(2.4606127,0,0,3.1451146,11.16612,5.3876877)" />
    <rect
       style="fill:#2b323e;stroke:#f5a97f;stroke-width:1.63561;stroke-dasharray:none;fill-opacity:1;stroke-opacity:1"
       id="rect246"
       width="35.155312"
       height="44.93494"
       x="14.453793"
       y="9.6548424"
       rx="5.2081943"
       ry="5.181818" />
    <rect
       style="fill:url(#linearGradient1136);fill-opacity:1;stroke:none;stroke-width:1.31679;stroke-dasharray:none"
       id="rect246-5"
       width="31.13278"
       height="40.601383"
       x="16.465055"
       y="11.821622"
       rx="3.1818182"
       ry="3.1725934" />
    <path
       id="path6-5"
       style="fill:#000000;stroke:none;stroke-width:0.721712;stroke-dasharray:none;stroke-dashoffset:2.2;stroke-opacity:0.3;opacity:0.3"
       d="m 32.038534,22.364171 c -0.909474,5.97e-4 -1.594009,0.172656 -2.455506,0.599077 -1.510045,0.747432 -2.571585,1.982948 -3.13634,3.648019 -0.163911,0.48323 -0.173212,0.711465 -0.200168,5.477666 -0.03202,5.664317 -0.03288,5.645691 0.618811,7.001441 0.32349,0.672975 0.484966,0.892223 1.133309,1.536454 0.954427,0.948353 1.831544,1.425776 3.125063,1.698553 0.201748,0.0425 0.776982,0.06432 1.2785,0.04937 0.721176,-0.02165 1.050018,-0.07387 1.574514,-0.250931 1.628022,-0.549509 2.845477,-1.623532 3.57472,-3.154653 0.580186,-1.218157 0.570885,-1.11112 0.570885,-6.589835 0,-5.589036 0.0213,-5.375694 -0.676604,-6.795634 -0.316864,-0.645112 -0.506363,-0.904542 -1.057189,-1.450496 -1.163587,-1.153295 -2.352345,-1.683415 -3.945443,-1.759167 -0.140288,-0.0067 -0.274626,-0.01 -0.404552,-0.0099 z m 8.653471,13.579993 c -0.313776,0 -0.431281,0.239727 -0.490538,1.003628 -0.143522,1.85059 -0.827272,3.478132 -2.058,4.902558 -0.881183,1.019868 -2.523039,2.019312 -3.929936,2.392074 -0.815973,0.216193 -2.405292,0.295874 -3.261793,0.163519 -0.895163,-0.138344 -2.135176,-0.585832 -2.917852,-1.05298 -0.740076,-0.441732 -2.017034,-1.629961 -2.465374,-2.294814 -0.736272,-1.091845 -1.283593,-2.593802 -1.372941,-3.763609 -0.08107,-1.06123 -0.114183,-1.184073 -0.336891,-1.285547 -0.151471,-0.06902 -0.258132,-0.06735 -0.421467,0.0071 l -0.218492,0.100073 0.04792,0.928921 c 0.15292,3.026654 1.981402,5.856108 4.730584,7.318591 0.831388,0.442272 1.433984,0.661619 2.373753,0.865487 0.875762,0.190011 2.551328,0.212655 3.419667,0.04649 1.721955,-0.329443 3.185944,-1.077399 4.489543,-2.294812 1.671924,-1.561393 2.655991,-3.644787 2.837505,-6.006269 0.04656,-0.606223 0.03367,-0.722514 -0.0959,-0.865484 -0.08222,-0.09084 -0.230006,-0.164932 -0.329856,-0.164932 z" />
    <path
       id="path6"
       style="fill:url(#linearGradient7);stroke:none;stroke-width:0.721712;stroke-dasharray:none;stroke-dashoffset:2.2;stroke-opacity:0.3"
       d="m 32.038534,20.545989 c -0.909474,5.97e-4 -1.594009,0.172656 -2.455506,0.599077 -1.510045,0.747432 -2.571585,1.982948 -3.13634,3.648019 -0.163911,0.48323 -0.173212,0.711465 -0.200168,5.477666 -0.03202,5.664317 -0.03288,5.645691 0.618811,7.001441 0.32349,0.672975 0.484966,0.892223 1.133309,1.536454 0.954427,0.948353 1.831544,1.425776 3.125063,1.698553 0.201748,0.0425 0.776982,0.06432 1.2785,0.04937 0.721176,-0.02165 1.050018,-0.07387 1.574514,-0.250931 1.628022,-0.549509 2.845477,-1.623532 3.57472,-3.154653 0.580186,-1.218157 0.570885,-1.11112 0.570885,-6.589835 0,-5.589036 0.0213,-5.375694 -0.676604,-6.795634 -0.316864,-0.645112 -0.506363,-0.904542 -1.057189,-1.450496 -1.163587,-1.153295 -2.352345,-1.683415 -3.945443,-1.759167 -0.140288,-0.0067 -0.274626,-0.01 -0.404552,-0.0099 z m 8.653471,13.579993 c -0.313776,0 -0.431281,0.239727 -0.490538,1.003628 -0.143522,1.85059 -0.827272,3.478132 -2.058,4.902558 -0.881183,1.019868 -2.523039,2.019312 -3.929936,2.392074 -0.815973,0.216193 -2.405292,0.295874 -3.261793,0.163519 -0.895163,-0.138344 -2.135176,-0.585832 -2.917852,-1.05298 -0.740076,-0.441732 -2.017034,-1.629961 -2.465374,-2.294814 -0.736272,-1.091845 -1.283593,-2.593802 -1.372941,-3.763609 -0.08107,-1.06123 -0.114183,-1.184073 -0.336891,-1.285547 -0.151471,-0.06902 -0.258132,-0.06735 -0.421467,0.0071 l -0.218492,0.100073 0.04792,0.928921 c 0.15292,3.026654 1.981402,5.856108 4.730584,7.318591 0.831388,0.442272 1.433984,0.661619 2.373753,0.865487 0.875762,0.190011 2.551328,0.212655 3.419667,0.04649 1.721955,-0.329443 3.185944,-1.077399 4.489543,-2.294812 1.671924,-1.561393 2.655991,-3.644787 2.837505,-6.006269 0.04656,-0.606223 0.03367,-0.722514 -0.0959,-0.865484 -0.08222,-0.09084 -0.230006,-0.164932 -0.329856,-0.164932 z" />
  </g>
</svg>
