<?xml version="1.0" encoding="UTF-8" standalone="no"?>
<svg
   width="64"
   height="64"
   version="1.1"
   id="svg73"
   sodipodi:docname="application-x-partial-download.svg"
   inkscape:version="1.4 (e7c3feb100, 2024-10-09)"
   xmlns:inkscape="http://www.inkscape.org/namespaces/inkscape"
   xmlns:sodipodi="http://sodipodi.sourceforge.net/DTD/sodipodi-0.dtd"
   xmlns:xlink="http://www.w3.org/1999/xlink"
   xmlns="http://www.w3.org/2000/svg"
   xmlns:svg="http://www.w3.org/2000/svg"
   xmlns:rdf="http://www.w3.org/1999/02/22-rdf-syntax-ns#"
   xmlns:cc="http://creativecommons.org/ns#"
   xmlns:dc="http://purl.org/dc/elements/1.1/">
  <metadata
     id="metadata77">
    <rdf:RDF>
      <cc:Work
         rdf:about="">
        <dc:format>image/svg+xml</dc:format>
        <dc:type
           rdf:resource="http://purl.org/dc/dcmitype/StillImage" />
      </cc:Work>
    </rdf:RDF>
  </metadata>
  <sodipodi:namedview
     pagecolor="#f5f7fa"
     bordercolor="#666666"
     borderopacity="1"
     objecttolerance="10"
     gridtolerance="10"
     guidetolerance="10"
     inkscape:pageopacity="0"
     inkscape:pageshadow="2"
     inkscape:window-width="1183"
     inkscape:window-height="669"
     id="namedview75"
     showgrid="false"
     inkscape:zoom="4.4470387"
     inkscape:cx="19.451146"
     inkscape:cy="25.635037"
     inkscape:window-x="80"
     inkscape:window-y="161"
     inkscape:window-maximized="0"
     inkscape:current-layer="g877"
     inkscape:document-rotation="0"
     inkscape:pagecheckerboard="0"
     inkscape:showpageshadow="2"
     inkscape:deskcolor="#d1d1d1" />
  <defs
     id="defs29">
    <filter
       style="color-interpolation-filters:sRGB;"
       inkscape:label="Blur"
       id="filter6"
       x="-0.044145008"
       y="-0.044145008"
       width="1.08829"
       height="1.08829">
      <feGaussianBlur
         stdDeviation="1 1"
         result="blur"
         id="feGaussianBlur6" />
    </filter>
    <filter
       style="color-interpolation-filters:sRGB;"
       inkscape:label="Blur"
       id="filter7"
       x="-0.098100013"
       y="-0.098100021"
       width="1.1962"
       height="1.1962">
      <feGaussianBlur
         stdDeviation="2 2"
         result="blur"
         id="feGaussianBlur7" />
    </filter>
    <clipPath
       id="clip0_515_3621">
      <rect
         width="16"
         height="16"
         fill="#ffffff"
         transform="translate(0.00292969)"
         id="rect7969"
         x="0"
         y="0" />
    </clipPath>
    <filter
       style="color-interpolation-filters:sRGB;"
       inkscape:label="Blur"
       id="filter7349"
       x="-0.10485812"
       y="-0.10485813"
       width="1.2097162"
       height="1.2097163">
      <feGaussianBlur
         stdDeviation="2 2"
         result="blur"
         id="feGaussianBlur7347" />
    </filter>
    <filter
       style="color-interpolation-filters:sRGB"
       inkscape:label="Blur"
       id="filter1283"
       x="-0.082344266"
       y="-0.082344266"
       width="1.1646885"
       height="1.1646885">
      <feGaussianBlur
         stdDeviation="0.5 0.5"
         result="blur"
         id="feGaussianBlur1281" />
    </filter>
    <linearGradient
       inkscape:collect="always"
       xlink:href="#linearGradient1134-5"
       id="linearGradient1136"
       x1="14.971222"
       y1="14.703373"
       x2="2.0756054"
       y2="2.0069976"
       gradientUnits="userSpaceOnUse"
       gradientTransform="matrix(2.4106819,0,0,3.1438568,11.58952,5.3983817)" />
    <filter
       style="color-interpolation-filters:sRGB"
       inkscape:label="Blur"
       id="filter1694"
       x="-0.94955398"
       y="-0.2118907"
       width="2.899108"
       height="1.4237814">
      <feGaussianBlur
         stdDeviation="0.2 0.2"
         result="blur"
         id="feGaussianBlur1692" />
    </filter>
    <filter
       style="color-interpolation-filters:sRGB"
       inkscape:label="Blur"
       id="filter3"
       x="-0.10843471"
       y="-0.10870992"
       width="1.2168694"
       height="1.2174198">
      <feGaussianBlur
         stdDeviation="0.5 0.5"
         result="blur"
         id="feGaussianBlur3" />
    </filter>
    <linearGradient
       inkscape:collect="always"
       id="linearGradient1134-5">
      <stop
         style="stop-color:#2e3440;stop-opacity:1;"
         offset="0"
         id="stop1130-3" />
      <stop
         style="stop-color:#4c566a;stop-opacity:1;"
         offset="1"
         id="stop1132-5" />
    </linearGradient>
    <linearGradient
       id="linearGradient1"
       inkscape:collect="always">
      <stop
         style="stop-color:#d8dee9;stop-opacity:1;"
         offset="0"
         id="stop1" />
      <stop
         style="stop-color:#eceff4;stop-opacity:1;"
         offset="1"
         id="stop2" />
    </linearGradient>
    <clipPath
       clipPathUnits="userSpaceOnUse"
       id="clipPath354">
      <rect
         style="display:block;opacity:0.2"
         width="36"
         height="36"
         x="15.620633"
         y="15.638589"
         rx="2.7690001"
         ry="2.7690001"
         id="rect356" />
    </clipPath>
    <inkscape:path-effect
       effect="powerclip"
       id="path-effect358"
       is_visible="true"
       lpeversion="1"
       inverse="true"
       flatten="false"
       hide_clip="false"
       message="" />
    <clipPath
       clipPathUnits="userSpaceOnUse"
       id="clipPath186">
      <rect
         style="display:block;opacity:0.2"
         width="36"
         height="36"
         x="5.391973"
         y="5.6022935"
         rx="2.7690001"
         ry="2.7690001"
         id="rect188" />
    </clipPath>
    <inkscape:path-effect
       effect="powerclip"
       id="path-effect190"
       is_visible="true"
       lpeversion="1"
       inverse="true"
       flatten="false"
       hide_clip="false"
       message="" />
    <linearGradient
       inkscape:collect="always"
       xlink:href="#linearGradient1"
       id="linearGradient6"
       x1="41.749321"
       y1="41.876186"
       x2="23.464102"
       y2="20.820295"
       gradientUnits="userSpaceOnUse" />
  </defs>
  <g
     id="g877"
     transform="matrix(1.1,0,0,1.1,-3.1845928,-3.2065454)">
    <path
       style="fill:#f5f7fa;stroke-width:0.204426;fill-opacity:1"
       d=""
       id="path3" />
    <rect
       style="fill:#000000;stroke:none;stroke-width:0.539739;stroke-dasharray:none;filter:url(#filter1283)"
       id="rect246-1"
       width="14.572964"
       height="14.572964"
       x="1.1932471"
       y="1.2138842"
       rx="2.1589575"
       ry="2.1589575"
       transform="matrix(2.4606127,0,0,3.1451146,11.16612,5.3876877)" />
    <rect
       style="fill:#2b323e;stroke:#ace3ff;stroke-width:1.63561;stroke-dasharray:none;fill-opacity:1;stroke-opacity:1"
       id="rect246"
       width="35.155312"
       height="44.93494"
       x="14.453793"
       y="9.6548424"
       rx="5.2081943"
       ry="5.181818" />
    <rect
       style="fill:url(#linearGradient1136);fill-opacity:1;stroke:none;stroke-width:1.31679;stroke-dasharray:none"
       id="rect246-5"
       width="31.13278"
       height="40.601383"
       x="16.465055"
       y="11.821622"
       rx="3.1818182"
       ry="3.1725934" />
    <path
       d="m 35.217121,33.586588 a 31.61189,31.61189 0 0 1 0.389544,3.410769 3.3609429,3.3609429 0 0 1 -0.593372,1.997548 c -0.09512,0.339717 -0.380487,0 -0.584317,0 -0.502781,0 -0.688495,-0.543548 -0.960269,-0.87874 -0.27177,-0.335182 -0.077,-0.638678 0.104176,-0.905917 0.194777,-0.140429 0.271778,-0.452958 0.552611,-0.452958 0.280835,0 0.244599,-0.385018 0.203831,-0.58885 0.185716,-0.28536 0.07248,-0.706614 0.253656,-1.019149 0.326128,-0.144948 0.231009,-0.652254 0.344246,-0.937624 0.09059,-0.20383 0,-0.593373 0.258188,-0.679438 0,0 0.03171,0 0.02718,0.04531 M 34.900057,21.945587 c -0.425781,-0.04982 -0.74738,0.240066 -1.105218,0.403134 a 8.1532303,8.1532303 0 0 1 -0.905914,0.244595 c -0.221945,0.452958 -0.733791,0.720202 -1.010095,1.145983 a 4.5295726,4.5295726 0 0 1 -1.512879,2.137956 c -1.005564,0.520902 -1.512877,1.653292 -1.843534,2.717743 -0.113241,0.240068 -0.09512,0.593374 -0.217422,0.797205 -0.398601,0.11324 -0.185713,-0.407661 -0.231008,-0.656787 -0.05888,-0.371425 0.267246,-0.611492 0.289893,-0.973858 a 1.4902292,1.4902293 0 0 0 0.163066,-0.837972 c -0.0453,-0.647728 0.149475,-1.435873 -0.308012,-1.965834 -0.271774,-0.158535 -0.185712,-0.493723 -0.285363,-0.751909 a 3.2929992,3.2929995 0 0 0 -1.010095,-0.905915 c -0.326128,-0.03172 -0.625082,-0.452956 -0.96027,-0.258185 -0.208359,0.244595 -0.593373,0.240067 -0.715672,0.566197 -0.077,0.407661 -0.53449,0.298953 -0.833442,0.398602 -0.380484,0.149476 -0.869677,0 -1.182218,0.303481 -0.312542,0.303482 -0.824381,0.74738 -0.670376,1.259222 0.357835,0.702083 1.281869,0.348776 1.784651,0.774556 a 14.494631,14.494631 0 0 1 -0.548081,1.386049 8.1804073,8.180408 0 0 0 -0.03624,1.852596 c 0.09512,0.616022 -0.06341,1.408696 0.452957,1.843538 0.294421,0.108708 0.276303,0.452955 0.389542,0.706611 0.113244,0.253656 0.330661,-0.09059 0.421252,0.154009 0.262717,0.144934 0.02718,0.452957 0.172124,0.634134 a 1.2501623,1.2501623 0 0 1 0.638669,0.339717 5.353955,5.353955 0 0 1 0.774557,0.656789 c 0.181183,0.37143 0.412192,-0.362359 0.611492,-0.08606 a 0.45295726,0.45295726 0 0 0 0.63867,0.226477 2.3100819,2.3100819 0 0 0 1.014623,-0.439369 c 0.194774,0.693025 0.04531,1.444934 0.131359,2.160605 a 9.4622779,9.4622779 0 0 1 0.22648,1.589886 7.636859,7.636859 0 0 1 0.235538,1.61253 5.7525583,5.7525583 0 0 1 -0.552608,3.302061 0.79720482,0.79720482 0 0 1 -0.62961,0.634142 c -0.226477,0.104179 -0.697554,0.289895 -0.539018,0.616023 0.525428,0.452951 1.35887,0.403129 1.961304,0.17211 0.398603,-0.194787 0.05435,-0.679439 0.258185,-0.973863 0.267242,-1.032732 0.135887,-2.137939 0.452957,-3.170685 a 3.0438727,3.0438727 0 0 0 0.267246,-1.671417 c 0.0634,-0.348774 -0.08153,-0.770033 0.144944,-1.055392 a 1.4539931,1.453993 0 0 1 0.366895,-0.951213 11.976191,11.97619 0 0 0 0.113239,-1.607997 2.468617,2.4686171 0 0 1 0.987447,-0.09965 c 0,0.298952 -0.212888,0.643199 -0.149476,0.978384 a 1.5762913,1.5762913 0 0 1 -0.203831,1.091628 c -0.140415,0.588844 -0.235538,1.313577 0.131355,1.811835 0.606964,0.665849 1.399638,1.136926 1.974896,1.848065 a 0.41672067,0.41672067 0 0 1 0.02718,0.625084 1.2048663,1.2048663 0 0 1 -0.770026,0.819855 c -0.24007,0.09511 -0.625082,0.452948 -0.344246,0.702078 a 2.9940478,2.9940478 0 0 0 1.698588,-0.11325 c 0.371423,-0.135894 0.235538,-0.58431 0.38048,-0.865144 A 8.9413755,8.9413755 0 0 1 35.597603,41.921 c 0.231006,0.344249 0.629608,0.05889 0.905912,-0.04982 a 2.8536311,2.8536311 0 0 0 -0.294417,-1.458512 c -0.12683,-0.298967 -0.620552,-0.308003 -0.597906,-0.674906 0.244596,-0.905917 0.851561,-1.612531 1.331697,-2.378034 0.3986,-0.38048 0.09965,-0.946678 0.122297,-1.426809 a 5.4354868,5.4354862 0 0 1 0.847037,-3.514954 12.750746,12.750747 0 0 0 0.539019,1.698586 4.9825294,4.9825297 0 0 0 0.842501,1.793712 c 0.185716,0.643199 0.135894,1.35888 0.258181,2.024727 a 8.4521834,8.4521834 0 0 1 -0.190251,3.451539 c 0.03161,0.41219 -0.357832,0.715671 -0.32161,1.118803 0.108715,0.371425 0.543544,0.07247 0.770028,0.231003 A 0.8606187,0.86061877 0 0 0 40.84283,42.283374 5.0776513,5.0776506 0 0 1 40.652579,41.318572 6.0288613,6.028861 0 0 1 40.45329,38.365299 c 0.03622,-0.534491 0.357836,-1.186762 -0.05889,-1.644248 -0.11325,-0.489192 0.08154,-1.019156 -0.03625,-1.521935 a 10.418017,10.418017 0 0 1 -0.09511,-3.91808 c 0.07247,-0.181184 0,-0.516373 0.194753,-0.616022 a 1.4902292,1.4902293 0 0 1 0.244609,0.978389 2.9940478,2.9940478 0 0 1 0.06339,1.65329 c -0.330647,0.421253 -0.126823,0.991981 -0.08607,1.467583 0.05436,0.335189 0.403132,0.09512 0.452958,-0.11324 a 9.4803942,9.4803942 0 0 0 0.733793,-1.780121 c 0.208359,-0.280835 0,-0.611493 0,-0.905913 0.32161,-0.04078 0.199288,-0.403133 0.02714,-0.561668 -0.17211,-0.579788 -0.131324,-1.250165 -0.520881,-1.743887 a 8.3525314,8.3525314 0 0 1 -1.512788,-2.165135 c -0.412186,-1.299987 -1.589879,-2.165137 -1.988479,-3.478711 a 2.8219239,2.8219238 0 0 0 -1.263756,-1.843537 5.9971546,5.9971546 0 0 0 -0.905914,-0.330659 4.9281749,4.9281749 0 0 1 -0.801735,0.09965"
       fill="#004065"
       id="path1-7"
       style="fill:#000000;stroke-width:0.452961;opacity:0.3" />
    <path
       d="m 35.217121,31.768406 a 31.61189,31.61189 0 0 1 0.389544,3.410769 3.3609429,3.3609429 0 0 1 -0.593372,1.997548 c -0.09512,0.339717 -0.380487,0 -0.584317,0 -0.502781,0 -0.688495,-0.543548 -0.960269,-0.87874 -0.27177,-0.335182 -0.077,-0.638678 0.104176,-0.905917 0.194777,-0.140429 0.271778,-0.452958 0.552611,-0.452958 0.280835,0 0.244599,-0.385018 0.203831,-0.58885 0.185716,-0.28536 0.07248,-0.706614 0.253656,-1.019149 0.326128,-0.144948 0.231009,-0.652254 0.344246,-0.937624 0.09059,-0.20383 0,-0.593373 0.258188,-0.679438 0,0 0.03171,0 0.02718,0.04531 M 34.900057,20.127405 c -0.425781,-0.04982 -0.74738,0.240066 -1.105218,0.403134 a 8.1532303,8.1532303 0 0 1 -0.905914,0.244595 c -0.221945,0.452958 -0.733791,0.720202 -1.010095,1.145983 a 4.5295726,4.5295726 0 0 1 -1.512879,2.137956 c -1.005564,0.520902 -1.512877,1.653292 -1.843534,2.717743 -0.113241,0.240068 -0.09512,0.593374 -0.217422,0.797205 -0.398601,0.11324 -0.185713,-0.407661 -0.231008,-0.656787 -0.05888,-0.371425 0.267246,-0.611492 0.289893,-0.973858 a 1.4902292,1.4902293 0 0 0 0.163066,-0.837972 c -0.0453,-0.647728 0.149475,-1.435873 -0.308012,-1.965834 -0.271774,-0.158535 -0.185712,-0.493723 -0.285363,-0.751909 a 3.2929992,3.2929995 0 0 0 -1.010095,-0.905915 c -0.326128,-0.03172 -0.625082,-0.452956 -0.96027,-0.258185 -0.208359,0.244595 -0.593373,0.240067 -0.715672,0.566197 -0.077,0.407661 -0.53449,0.298953 -0.833442,0.398602 -0.380484,0.149476 -0.869677,0 -1.182218,0.303481 -0.312542,0.303482 -0.824381,0.74738 -0.670376,1.259222 0.357835,0.702083 1.281869,0.348776 1.784651,0.774556 a 14.494631,14.494631 0 0 1 -0.548081,1.386049 8.1804073,8.180408 0 0 0 -0.03624,1.852596 c 0.09512,0.616022 -0.06341,1.408696 0.452957,1.843538 0.294421,0.108708 0.276303,0.452955 0.389542,0.706611 0.113244,0.253656 0.330661,-0.09059 0.421252,0.154009 0.262717,0.144934 0.02718,0.452957 0.172124,0.634134 a 1.2501623,1.2501623 0 0 1 0.638669,0.339717 5.353955,5.353955 0 0 1 0.774557,0.656789 c 0.181183,0.37143 0.412192,-0.362359 0.611492,-0.08606 a 0.45295726,0.45295726 0 0 0 0.63867,0.226477 2.3100819,2.3100819 0 0 0 1.014623,-0.439369 c 0.194774,0.693025 0.04531,1.444934 0.131359,2.160605 a 9.4622779,9.4622779 0 0 1 0.22648,1.589886 7.636859,7.636859 0 0 1 0.235538,1.61253 5.7525583,5.7525583 0 0 1 -0.552608,3.302061 0.79720482,0.79720482 0 0 1 -0.62961,0.634142 c -0.226477,0.104179 -0.697554,0.289895 -0.539018,0.616023 0.525428,0.452951 1.35887,0.403129 1.961304,0.17211 0.398603,-0.194787 0.05435,-0.679439 0.258185,-0.973863 0.267242,-1.032732 0.135887,-2.137939 0.452957,-3.170685 a 3.0438727,3.0438727 0 0 0 0.267246,-1.671417 c 0.0634,-0.348774 -0.08153,-0.770033 0.144944,-1.055392 a 1.4539931,1.453993 0 0 1 0.366895,-0.951213 11.976191,11.97619 0 0 0 0.113239,-1.607997 2.468617,2.4686171 0 0 1 0.987447,-0.09965 c 0,0.298952 -0.212888,0.643199 -0.149476,0.978384 a 1.5762913,1.5762913 0 0 1 -0.203831,1.091628 c -0.140415,0.588844 -0.235538,1.313577 0.131355,1.811835 0.606964,0.665849 1.399638,1.136926 1.974896,1.848065 a 0.41672067,0.41672067 0 0 1 0.02718,0.625084 1.2048663,1.2048663 0 0 1 -0.770026,0.819855 c -0.24007,0.09511 -0.625082,0.452948 -0.344246,0.702078 a 2.9940478,2.9940478 0 0 0 1.698588,-0.11325 c 0.371423,-0.135894 0.235538,-0.58431 0.38048,-0.865144 a 8.9413755,8.9413755 0 0 1 0.552611,0.847033 c 0.231006,0.344249 0.629608,0.05889 0.905912,-0.04982 a 2.8536311,2.8536311 0 0 0 -0.294417,-1.458512 c -0.12683,-0.298967 -0.620552,-0.308003 -0.597906,-0.674906 0.244596,-0.905917 0.851561,-1.612531 1.331697,-2.378034 0.3986,-0.38048 0.09965,-0.946678 0.122297,-1.426809 a 5.4354868,5.4354862 0 0 1 0.847037,-3.514954 12.750746,12.750747 0 0 0 0.539019,1.698586 4.9825294,4.9825297 0 0 0 0.842501,1.793712 c 0.185716,0.643199 0.135894,1.35888 0.258181,2.024727 a 8.4521834,8.4521834 0 0 1 -0.190251,3.451539 c 0.03161,0.41219 -0.357832,0.715671 -0.32161,1.118803 0.108715,0.371425 0.543544,0.07247 0.770028,0.231003 A 0.8606187,0.86061877 0 0 0 40.84283,40.465192 5.0776513,5.0776506 0 0 1 40.652579,39.50039 6.0288613,6.028861 0 0 1 40.45329,36.547117 c 0.03622,-0.534491 0.357836,-1.186762 -0.05889,-1.644248 -0.11325,-0.489192 0.08154,-1.019156 -0.03625,-1.521935 a 10.418017,10.418017 0 0 1 -0.09511,-3.91808 c 0.07247,-0.181184 0,-0.516373 0.194753,-0.616022 a 1.4902292,1.4902293 0 0 1 0.244609,0.978389 2.9940478,2.9940478 0 0 1 0.06339,1.65329 c -0.330647,0.421253 -0.126823,0.991981 -0.08607,1.467583 0.05436,0.335189 0.403132,0.09512 0.452958,-0.11324 a 9.4803942,9.4803942 0 0 0 0.733793,-1.780121 c 0.208359,-0.280835 0,-0.611493 0,-0.905913 0.32161,-0.04078 0.199288,-0.403133 0.02714,-0.561668 -0.17211,-0.579788 -0.131324,-1.250165 -0.520881,-1.743887 A 8.3525314,8.3525314 0 0 1 39.859944,25.67613 c -0.412186,-1.299987 -1.589879,-2.165137 -1.988479,-3.478711 a 2.8219239,2.8219238 0 0 0 -1.263756,-1.843537 5.9971546,5.9971546 0 0 0 -0.905914,-0.330659 4.9281749,4.9281749 0 0 1 -0.801735,0.09965"
       fill="#004065"
       id="path1"
       style="fill:url(#linearGradient6);stroke-width:0.452961" />
  </g>
</svg>
