<?xml version="1.0" encoding="UTF-8" standalone="no"?>
<svg
   width="64"
   height="64"
   version="1.1"
   id="svg73"
   sodipodi:docname="application-bitwig-preset.svg"
   inkscape:version="1.4 (e7c3feb100, 2024-10-09)"
   xmlns:inkscape="http://www.inkscape.org/namespaces/inkscape"
   xmlns:sodipodi="http://sodipodi.sourceforge.net/DTD/sodipodi-0.dtd"
   xmlns:xlink="http://www.w3.org/1999/xlink"
   xmlns="http://www.w3.org/2000/svg"
   xmlns:svg="http://www.w3.org/2000/svg"
   xmlns:rdf="http://www.w3.org/1999/02/22-rdf-syntax-ns#"
   xmlns:cc="http://creativecommons.org/ns#"
   xmlns:dc="http://purl.org/dc/elements/1.1/">
  <metadata
     id="metadata77">
    <rdf:RDF>
      <cc:Work
         rdf:about="">
        <dc:format>image/svg+xml</dc:format>
        <dc:type
           rdf:resource="http://purl.org/dc/dcmitype/StillImage" />
      </cc:Work>
    </rdf:RDF>
  </metadata>
  <sodipodi:namedview
     pagecolor="#f5f7fa"
     bordercolor="#666666"
     borderopacity="1"
     objecttolerance="10"
     gridtolerance="10"
     guidetolerance="10"
     inkscape:pageopacity="0"
     inkscape:pageshadow="2"
     inkscape:window-width="1183"
     inkscape:window-height="669"
     id="namedview75"
     showgrid="false"
     inkscape:zoom="4.4470387"
     inkscape:cx="19.451146"
     inkscape:cy="8.3201435"
     inkscape:window-x="241"
     inkscape:window-y="144"
     inkscape:window-maximized="0"
     inkscape:current-layer="g877"
     inkscape:document-rotation="0"
     inkscape:pagecheckerboard="0"
     inkscape:showpageshadow="2"
     inkscape:deskcolor="#d1d1d1" />
  <defs
     id="defs29">
    <filter
       style="color-interpolation-filters:sRGB;"
       inkscape:label="Blur"
       id="filter6"
       x="-0.044145008"
       y="-0.044145008"
       width="1.08829"
       height="1.08829">
      <feGaussianBlur
         stdDeviation="1 1"
         result="blur"
         id="feGaussianBlur6" />
    </filter>
    <filter
       style="color-interpolation-filters:sRGB;"
       inkscape:label="Blur"
       id="filter7"
       x="-0.098100013"
       y="-0.098100021"
       width="1.1962"
       height="1.1962">
      <feGaussianBlur
         stdDeviation="2 2"
         result="blur"
         id="feGaussianBlur7" />
    </filter>
    <clipPath
       id="clip0_515_3621">
      <rect
         width="16"
         height="16"
         fill="#ffffff"
         transform="translate(0.00292969)"
         id="rect7969"
         x="0"
         y="0" />
    </clipPath>
    <filter
       style="color-interpolation-filters:sRGB;"
       inkscape:label="Blur"
       id="filter7349"
       x="-0.10485812"
       y="-0.10485813"
       width="1.2097162"
       height="1.2097163">
      <feGaussianBlur
         stdDeviation="2 2"
         result="blur"
         id="feGaussianBlur7347" />
    </filter>
    <filter
       style="color-interpolation-filters:sRGB"
       inkscape:label="Blur"
       id="filter1283"
       x="-0.082344266"
       y="-0.082344266"
       width="1.1646885"
       height="1.1646885">
      <feGaussianBlur
         stdDeviation="0.5 0.5"
         result="blur"
         id="feGaussianBlur1281" />
    </filter>
    <linearGradient
       inkscape:collect="always"
       xlink:href="#linearGradient1134-5"
       id="linearGradient1136"
       x1="14.971222"
       y1="14.703373"
       x2="2.0756054"
       y2="2.0069976"
       gradientUnits="userSpaceOnUse"
       gradientTransform="matrix(2.4106819,0,0,3.1438568,11.58952,5.3983817)" />
    <filter
       style="color-interpolation-filters:sRGB"
       inkscape:label="Blur"
       id="filter1694"
       x="-0.94955398"
       y="-0.2118907"
       width="2.899108"
       height="1.4237814">
      <feGaussianBlur
         stdDeviation="0.2 0.2"
         result="blur"
         id="feGaussianBlur1692" />
    </filter>
    <filter
       style="color-interpolation-filters:sRGB"
       inkscape:label="Blur"
       id="filter3"
       x="-0.10843471"
       y="-0.10870992"
       width="1.2168694"
       height="1.2174198">
      <feGaussianBlur
         stdDeviation="0.5 0.5"
         result="blur"
         id="feGaussianBlur3" />
    </filter>
    <linearGradient
       inkscape:collect="always"
       id="linearGradient1134-5">
      <stop
         style="stop-color:#2e3440;stop-opacity:1;"
         offset="0"
         id="stop1130-3" />
      <stop
         style="stop-color:#4c566a;stop-opacity:1;"
         offset="1"
         id="stop1132-5" />
    </linearGradient>
    <linearGradient
       id="linearGradient1"
       inkscape:collect="always">
      <stop
         style="stop-color:#d8dee9;stop-opacity:1;"
         offset="0"
         id="stop1" />
      <stop
         style="stop-color:#eceff4;stop-opacity:1;"
         offset="1"
         id="stop2" />
    </linearGradient>
    <linearGradient
       inkscape:collect="always"
       xlink:href="#linearGradient1"
       id="linearGradient31"
       x1="43.522724"
       y1="40.158962"
       x2="20.559107"
       y2="21.351759"
       gradientUnits="userSpaceOnUse" />
  </defs>
  <g
     id="g877"
     transform="matrix(1.1,0,0,1.1,-3.1845928,-3.2065454)">
    <path
       style="fill:#f5f7fa;stroke-width:0.204426;fill-opacity:1"
       d=""
       id="path3" />
    <rect
       style="fill:#000000;stroke:none;stroke-width:0.539739;stroke-dasharray:none;filter:url(#filter1283)"
       id="rect246-1"
       width="14.572964"
       height="14.572964"
       x="1.1932471"
       y="1.2138842"
       rx="2.1589575"
       ry="2.1589575"
       transform="matrix(2.4606127,0,0,3.1451146,11.16612,5.3876877)" />
    <rect
       style="fill:#2b323e;stroke:#eed49f;stroke-width:1.63561;stroke-dasharray:none;fill-opacity:1;stroke-opacity:1"
       id="rect246"
       width="35.155312"
       height="44.93494"
       x="14.453793"
       y="9.6548424"
       rx="5.2081943"
       ry="5.181818" />
    <rect
       style="fill:url(#linearGradient1136);fill-opacity:1;stroke:none;stroke-width:1.31679;stroke-dasharray:none"
       id="rect246-5"
       width="31.13278"
       height="40.601383"
       x="16.465055"
       y="11.821622"
       rx="3.1818182"
       ry="3.1725934" />
    <path
       id="path19-2"
       style="fill:#000000;fill-opacity:1;stroke:none;stroke-width:0.785941;stroke-dasharray:none;stroke-dashoffset:2.2;stroke-opacity:0.3;opacity:0.3"
       d="m 29.121398,23.30718 c -0.609346,0.0075 -1.226555,0.144366 -1.815957,0.426742 -2.799334,1.341122 -3.422383,4.940191 -1.228035,7.09804 0.662773,0.651748 1.354796,1.033407 2.207392,1.218825 0.699966,0.152225 0.975963,0.159211 1.642498,0.03838 1.622296,-0.294101 3.044938,-1.569894 3.507573,-3.146839 0.218183,-0.743681 0.187005,-1.902831 -0.07061,-2.632598 -0.664014,-1.881021 -2.414823,-3.02486 -4.242855,-3.00255 z m 7.464918,2.905837 c -0.334409,0.005 -0.671254,0.05471 -1.003921,0.153503 l -0.466651,0.138155 0.05527,0.790549 c 0.103506,1.458317 -0.440606,3.190761 -1.314003,4.182992 -0.202961,0.23058 -0.369945,0.455159 -0.369945,0.498888 0,0.104451 0.881385,0.949518 1.186589,1.137467 0.131059,0.08071 0.476554,0.230195 0.767522,0.333107 0.817123,0.289009 1.952804,0.225082 2.764615,-0.15504 0.810075,-0.379308 1.524777,-1.065416 1.895772,-1.819025 0.273094,-0.554692 0.291648,-0.653999 0.291648,-1.544255 0,-0.888089 -0.01924,-0.990773 -0.28859,-1.536576 -0.679603,-1.378172 -2.069194,-2.20182 -3.518303,-2.179765 z m -0.60174,9.04294 0.442095,0.291658 c 1.02103,0.676305 1.942167,1.720536 2.508262,2.839829 0.305563,0.604205 0.69077,1.934435 0.69077,2.38546 v 0.349989 h 2.221203 2.221204 l -0.03058,-1.065322 c -0.03078,-1.018923 -0.04819,-1.095672 -0.371586,-1.749948 -0.962208,-1.946608 -3.419547,-3.051666 -6.783366,-3.051666 z m -6.662088,0.0169 c -0.216908,2.08e-4 -0.438177,0.0041 -0.664673,0.01075 -1.894849,0.0556 -2.805363,0.207642 -4.101636,0.684603 -2.818448,1.037055 -4.335049,3.147129 -4.338033,6.035796 v 0.653924 h 8.937022 8.937023 v -0.9287 c 0,-1.738262 -0.492004,-2.927794 -1.705436,-4.129264 -1.618915,-1.602962 -3.810596,-2.330239 -7.064266,-2.327127 z" />
    <path
       id="path19"
       style="fill:url(#linearGradient31);fill-opacity:1;stroke:none;stroke-width:0.785941;stroke-dasharray:none;stroke-dashoffset:2.2;stroke-opacity:0.3"
       d="m 29.121398,21.488998 c -0.609346,0.0075 -1.226555,0.144366 -1.815957,0.426742 -2.799334,1.341122 -3.422383,4.940191 -1.228035,7.09804 0.662773,0.651748 1.354796,1.033407 2.207392,1.218825 0.699966,0.152225 0.975963,0.159211 1.642498,0.03838 1.622296,-0.294101 3.044938,-1.569894 3.507573,-3.146839 0.218183,-0.743681 0.187005,-1.902831 -0.07061,-2.632598 -0.664014,-1.881021 -2.414823,-3.02486 -4.242855,-3.00255 z m 7.464918,2.905837 c -0.334409,0.005 -0.671254,0.05471 -1.003921,0.153503 l -0.466651,0.138155 0.05527,0.790549 c 0.103506,1.458317 -0.440606,3.190761 -1.314003,4.182992 -0.202961,0.23058 -0.369945,0.455159 -0.369945,0.498888 0,0.104451 0.881385,0.949518 1.186589,1.137467 0.131059,0.08071 0.476554,0.230195 0.767522,0.333107 0.817123,0.289009 1.952804,0.225082 2.764615,-0.15504 0.810075,-0.379308 1.524777,-1.065416 1.895772,-1.819025 0.273094,-0.554692 0.291648,-0.653999 0.291648,-1.544255 0,-0.888089 -0.01924,-0.990773 -0.28859,-1.536576 -0.679603,-1.378172 -2.069194,-2.20182 -3.518303,-2.179765 z m -0.60174,9.04294 0.442095,0.291658 c 1.02103,0.676305 1.942167,1.720536 2.508262,2.839829 0.305563,0.604205 0.69077,1.934435 0.69077,2.38546 v 0.349989 h 2.221203 2.221204 l -0.03058,-1.065322 c -0.03078,-1.018923 -0.04819,-1.095672 -0.371586,-1.749948 -0.962208,-1.946608 -3.419547,-3.051666 -6.783366,-3.051666 z m -6.662088,0.0169 c -0.216908,2.08e-4 -0.438177,0.0041 -0.664673,0.01075 -1.894849,0.0556 -2.805363,0.207642 -4.101636,0.684603 -2.818448,1.037055 -4.335049,3.147129 -4.338033,6.035796 v 0.653924 h 8.937022 8.937023 v -0.9287 c 0,-1.738262 -0.492004,-2.927794 -1.705436,-4.129264 -1.618915,-1.602962 -3.810596,-2.330239 -7.064266,-2.327127 z" />
  </g>
</svg>
