<?xml version="1.0" encoding="UTF-8" standalone="no"?>
<svg
   width="64"
   height="64"
   version="1.1"
   id="svg73"
   sodipodi:docname="application-x-partial-download.svg"
   inkscape:version="1.4 (e7c3feb100, 2024-10-09)"
   xmlns:inkscape="http://www.inkscape.org/namespaces/inkscape"
   xmlns:sodipodi="http://sodipodi.sourceforge.net/DTD/sodipodi-0.dtd"
   xmlns:xlink="http://www.w3.org/1999/xlink"
   xmlns="http://www.w3.org/2000/svg"
   xmlns:svg="http://www.w3.org/2000/svg"
   xmlns:rdf="http://www.w3.org/1999/02/22-rdf-syntax-ns#"
   xmlns:cc="http://creativecommons.org/ns#"
   xmlns:dc="http://purl.org/dc/elements/1.1/">
  <metadata
     id="metadata77">
    <rdf:RDF>
      <cc:Work
         rdf:about="">
        <dc:format>image/svg+xml</dc:format>
        <dc:type
           rdf:resource="http://purl.org/dc/dcmitype/StillImage" />
      </cc:Work>
    </rdf:RDF>
  </metadata>
  <sodipodi:namedview
     pagecolor="#f5f7fa"
     bordercolor="#666666"
     borderopacity="1"
     objecttolerance="10"
     gridtolerance="10"
     guidetolerance="10"
     inkscape:pageopacity="0"
     inkscape:pageshadow="2"
     inkscape:window-width="1183"
     inkscape:window-height="669"
     id="namedview75"
     showgrid="false"
     inkscape:zoom="4.4470387"
     inkscape:cx="19.451146"
     inkscape:cy="25.635037"
     inkscape:window-x="80"
     inkscape:window-y="161"
     inkscape:window-maximized="0"
     inkscape:current-layer="g877"
     inkscape:document-rotation="0"
     inkscape:pagecheckerboard="0"
     inkscape:showpageshadow="2"
     inkscape:deskcolor="#d1d1d1" />
  <defs
     id="defs29">
    <filter
       style="color-interpolation-filters:sRGB"
       inkscape:label="Blur"
       id="filter1283"
       x="-0.082344266"
       y="-0.082344266"
       width="1.1646885"
       height="1.1646885">
      <feGaussianBlur
         stdDeviation="0.5 0.5"
         result="blur"
         id="feGaussianBlur1281" />
    </filter>
    <linearGradient
       inkscape:collect="always"
       xlink:href="#linearGradient1134-5"
       id="linearGradient1136"
       x1="14.971222"
       y1="14.703373"
       x2="2.0756054"
       y2="2.0069976"
       gradientUnits="userSpaceOnUse"
       gradientTransform="matrix(2.4106819,0,0,3.1438568,11.58952,5.3983817)" />
    <linearGradient
       inkscape:collect="always"
       id="linearGradient1134-5">
      <stop
         style="stop-color:#2e3440;stop-opacity:1;"
         offset="0"
         id="stop1130-3" />
      <stop
         style="stop-color:#4c566a;stop-opacity:1;"
         offset="1"
         id="stop1132-5" />
    </linearGradient>
    <linearGradient
       id="linearGradient1"
       inkscape:collect="always">
      <stop
         style="stop-color:#d8dee9;stop-opacity:1;"
         offset="0"
         id="stop1" />
      <stop
         style="stop-color:#eceff4;stop-opacity:1;"
         offset="1"
         id="stop2" />
    </linearGradient>
    <linearGradient
       inkscape:collect="always"
       xlink:href="#linearGradient1"
       id="linearGradient12"
       x1="42.985832"
       y1="53.244152"
       x2="20.014753"
       y2="30.507427"
       gradientUnits="userSpaceOnUse" />
  </defs>
  <g
     id="g877"
     transform="matrix(1.1,0,0,1.1,-3.1845928,-3.2065454)">
    <path
       style="fill:#f5f7fa;stroke-width:0.204426;fill-opacity:1"
       d=""
       id="path3" />
    <rect
       style="fill:#000000;stroke:none;stroke-width:0.539739;stroke-dasharray:none;filter:url(#filter1283)"
       id="rect246-1"
       width="14.572964"
       height="14.572964"
       x="1.1932471"
       y="1.2138842"
       rx="2.1589575"
       ry="2.1589575"
       transform="matrix(2.4606127,0,0,3.1451146,11.16612,5.3876877)" />
    <rect
       style="fill:#2b323e;stroke:#ace3ff;stroke-width:1.63561;stroke-dasharray:none;fill-opacity:1;stroke-opacity:1"
       id="rect246"
       width="35.155312"
       height="44.93494"
       x="14.453793"
       y="9.6548424"
       rx="5.2081943"
       ry="5.181818" />
    <rect
       style="fill:url(#linearGradient1136);fill-opacity:1;stroke:none;stroke-width:1.31679;stroke-dasharray:none"
       id="rect246-5"
       width="31.13278"
       height="40.601383"
       x="16.465055"
       y="11.821622"
       rx="3.1818182"
       ry="3.1725934" />
    <g
       fill="#1976d2"
       id="g7"
       transform="matrix(0.81818185,0,0,0.81818185,6.3493338,-0.90298548)"
       style="fill:#000000;fill-opacity:1;opacity:0.3">
      <path
         d="m 32,30 c -0.116,0 -0.23,0.05 -0.293,0.152 l -0.625,1.012 -0.293,0.028 -0.809,-0.867 c -0.163,-0.176 -0.498,-0.108 -0.582,0.118 l -0.414,1.105 -0.285,0.086 -0.96,-0.691 c -0.196,-0.14 -0.505,-0.02 -0.544,0.226 l -0.191,1.168 -0.262,0.14 -1.078,-0.492 c -0.219,-0.1 -0.501,0.088 -0.492,0.328 l 0.043,1.188 -0.227,0.188 -1.156,-0.274 c -0.234,-0.054 -0.473,0.184 -0.418,0.418 l 0.274,1.156 -0.188,0.227 -1.187,-0.042 c -0.24,-0.02 -0.428,0.273 -0.328,0.492 l 0.492,1.078 -0.14,0.262 -1.169,0.192 c -0.237,0.038 -0.366,0.348 -0.226,0.543 l 0.691,0.961 -0.086,0.285 -1.11,0.414 c -0.224,0.084 -0.288,0.418 -0.113,0.582 l 0.868,0.805 -0.032,0.297 -1.007,0.625 c -0.205,0.126 -0.205,0.464 0,0.59 l 1.007,0.62 0.032,0.298 -0.868,0.808 c -0.175,0.164 -0.111,0.494 0.114,0.578 l 1.109,0.414 0.086,0.285 -0.691,0.961 c -0.14,0.196 -0.01,0.509 0.226,0.547 l 1.168,0.188 0.14,0.262 -0.491,1.078 c -0.1,0.22 0.089,0.502 0.328,0.492 l 1.187,-0.042 0.188,0.227 -0.274,1.156 c -0.055,0.234 0.184,0.473 0.418,0.418 l 1.156,-0.273 0.227,0.188 -0.043,1.183 c -0.01,0.24 0.273,0.428 0.492,0.328 l 1.078,-0.488 0.262,0.136 0.191,1.168 c 0.039,0.238 0.348,0.367 0.543,0.227 l 0.961,-0.692 0.285,0.086 0.414,1.11 c 0.084,0.224 0.415,0.29 0.579,0.113 l 0.808,-0.867 0.297,0.032 0.625,1.008 c 0.126,0.203 0.464,0.204 0.59,0 l 0.621,-1.008 0.297,-0.032 0.808,0.867 c 0.164,0.176 0.495,0.11 0.579,-0.114 l 0.414,-1.109 0.285,-0.086 0.96,0.692 c 0.196,0.14 0.505,0.02 0.544,-0.227 l 0.191,-1.168 0.262,-0.136 1.078,0.488 c 0.219,0.1 0.5,-0.086 0.492,-0.328 l -0.043,-1.183 0.227,-0.188 1.156,0.273 c 0.234,0.054 0.473,-0.184 0.418,-0.418 l -0.274,-1.156 0.188,-0.227 1.187,0.042 c 0.24,0.02 0.429,-0.273 0.328,-0.492 l -0.492,-1.078 0.14,-0.262 1.169,-0.188 c 0.238,-0.038 0.367,-0.351 0.226,-0.547 l -0.691,-0.96 0.086,-0.286 1.11,-0.414 c 0.225,-0.084 0.289,-0.414 0.113,-0.578 L 42.808,43.218 42.84,42.921 43.847,42.3 c 0.205,-0.126 0.205,-0.464 0,-0.59 l -1.007,-0.625 -0.032,-0.297 0.868,-0.805 c 0.176,-0.164 0.112,-0.498 -0.114,-0.582 l -1.109,-0.414 -0.086,-0.285 0.691,-0.961 c 0.141,-0.194 0.012,-0.504 -0.226,-0.543 l -1.168,-0.192 -0.14,-0.262 0.491,-1.078 c 0.101,-0.22 -0.086,-0.501 -0.328,-0.492 l -1.187,0.042 -0.188,-0.227 0.274,-1.156 c 0.055,-0.234 -0.184,-0.473 -0.418,-0.418 l -1.152,0.274 -0.23,-0.188 0.042,-1.188 c 0.01,-0.24 -0.273,-0.428 -0.492,-0.328 l -1.078,0.492 -0.262,-0.14 -0.187,-1.168 C 36.77,30.932 36.457,30.802 36.262,30.943 l -0.961,0.691 -0.285,-0.086 -0.414,-1.105 c -0.084,-0.226 -0.415,-0.292 -0.578,-0.118 l -0.81,0.867 -0.292,-0.028 -0.625,-1.012 A 0.344,0.344 0 0 0 32,30 Z m 0,3.996 a 8,8 0 0 1 8,8 8,8 0 0 1 -8,8 8,8 0 0 1 -8,-8 8,8 0 0 1 8,-8 z"
         id="path5-0"
         style="fill:#000000;fill-opacity:1" />
      <path
         d="m 24,36 v 2 h 2 v 8 h -2 v 2 h 8 v -2 h -2 v -4 c 2,0 2,6 4,6 h 4 c 2,0 2,-6 2,-6 h -2 c 0,0 0,4 -2,4 -0.943,0 -2,-4 -2,-4 h 1 c 1.662,0 3,-1.338 3,-3 0,-1.662 -1.338,-3 -3,-3 h -3 z m 6,2 h 4 c 0.554,0 1,0.446 1,1 0,0.554 -0.446,1 -1,1 h -4 z"
         id="path6-6"
         style="fill:#000000;fill-opacity:1" />
    </g>
    <g
       fill="#1976d2"
       id="g6"
       transform="matrix(0.81818185,0,0,0.81818185,6.3493338,-2.7211673)"
       style="fill:url(#linearGradient12);fill-opacity:1">
      <path
         d="m 32,30 c -0.116,0 -0.23,0.05 -0.293,0.152 l -0.625,1.012 -0.293,0.028 -0.809,-0.867 c -0.163,-0.176 -0.498,-0.108 -0.582,0.118 l -0.414,1.105 -0.285,0.086 -0.96,-0.691 c -0.196,-0.14 -0.505,-0.02 -0.544,0.226 l -0.191,1.168 -0.262,0.14 -1.078,-0.492 c -0.219,-0.1 -0.501,0.088 -0.492,0.328 l 0.043,1.188 -0.227,0.188 -1.156,-0.274 c -0.234,-0.054 -0.473,0.184 -0.418,0.418 l 0.274,1.156 -0.188,0.227 -1.187,-0.042 c -0.24,-0.02 -0.428,0.273 -0.328,0.492 l 0.492,1.078 -0.14,0.262 -1.169,0.192 c -0.237,0.038 -0.366,0.348 -0.226,0.543 l 0.691,0.961 -0.086,0.285 -1.11,0.414 c -0.224,0.084 -0.288,0.418 -0.113,0.582 l 0.868,0.805 -0.032,0.297 -1.007,0.625 c -0.205,0.126 -0.205,0.464 0,0.59 l 1.007,0.62 0.032,0.298 -0.868,0.808 c -0.175,0.164 -0.111,0.494 0.114,0.578 l 1.109,0.414 0.086,0.285 -0.691,0.961 c -0.14,0.196 -0.01,0.509 0.226,0.547 l 1.168,0.188 0.14,0.262 -0.491,1.078 c -0.1,0.22 0.089,0.502 0.328,0.492 l 1.187,-0.042 0.188,0.227 -0.274,1.156 c -0.055,0.234 0.184,0.473 0.418,0.418 l 1.156,-0.273 0.227,0.188 -0.043,1.183 c -0.01,0.24 0.273,0.428 0.492,0.328 l 1.078,-0.488 0.262,0.136 0.191,1.168 c 0.039,0.238 0.348,0.367 0.543,0.227 l 0.961,-0.692 0.285,0.086 0.414,1.11 c 0.084,0.224 0.415,0.29 0.579,0.113 l 0.808,-0.867 0.297,0.032 0.625,1.008 c 0.126,0.203 0.464,0.204 0.59,0 l 0.621,-1.008 0.297,-0.032 0.808,0.867 c 0.164,0.176 0.495,0.11 0.579,-0.114 l 0.414,-1.109 0.285,-0.086 0.96,0.692 c 0.196,0.14 0.505,0.02 0.544,-0.227 l 0.191,-1.168 0.262,-0.136 1.078,0.488 c 0.219,0.1 0.5,-0.086 0.492,-0.328 l -0.043,-1.183 0.227,-0.188 1.156,0.273 c 0.234,0.054 0.473,-0.184 0.418,-0.418 l -0.274,-1.156 0.188,-0.227 1.187,0.042 c 0.24,0.02 0.429,-0.273 0.328,-0.492 l -0.492,-1.078 0.14,-0.262 1.169,-0.188 c 0.238,-0.038 0.367,-0.351 0.226,-0.547 l -0.691,-0.96 0.086,-0.286 1.11,-0.414 c 0.225,-0.084 0.289,-0.414 0.113,-0.578 L 42.808,43.218 42.84,42.921 43.847,42.3 c 0.205,-0.126 0.205,-0.464 0,-0.59 l -1.007,-0.625 -0.032,-0.297 0.868,-0.805 c 0.176,-0.164 0.112,-0.498 -0.114,-0.582 l -1.109,-0.414 -0.086,-0.285 0.691,-0.961 c 0.141,-0.194 0.012,-0.504 -0.226,-0.543 l -1.168,-0.192 -0.14,-0.262 0.491,-1.078 c 0.101,-0.22 -0.086,-0.501 -0.328,-0.492 l -1.187,0.042 -0.188,-0.227 0.274,-1.156 c 0.055,-0.234 -0.184,-0.473 -0.418,-0.418 l -1.152,0.274 -0.23,-0.188 0.042,-1.188 c 0.01,-0.24 -0.273,-0.428 -0.492,-0.328 l -1.078,0.492 -0.262,-0.14 -0.187,-1.168 C 36.77,30.932 36.457,30.802 36.262,30.943 l -0.961,0.691 -0.285,-0.086 -0.414,-1.105 c -0.084,-0.226 -0.415,-0.292 -0.578,-0.118 l -0.81,0.867 -0.292,-0.028 -0.625,-1.012 A 0.344,0.344 0 0 0 32,30 Z m 0,3.996 a 8,8 0 0 1 8,8 8,8 0 0 1 -8,8 8,8 0 0 1 -8,-8 8,8 0 0 1 8,-8 z"
         id="path5"
         style="fill:url(#linearGradient12);fill-opacity:1" />
      <path
         d="m 24,36 v 2 h 2 v 8 h -2 v 2 h 8 v -2 h -2 v -4 c 2,0 2,6 4,6 h 4 c 2,0 2,-6 2,-6 h -2 c 0,0 0,4 -2,4 -0.943,0 -2,-4 -2,-4 h 1 c 1.662,0 3,-1.338 3,-3 0,-1.662 -1.338,-3 -3,-3 h -3 z m 6,2 h 4 c 0.554,0 1,0.446 1,1 0,0.554 -0.446,1 -1,1 h -4 z"
         id="path6"
         style="fill:url(#linearGradient12);fill-opacity:1" />
    </g>
  </g>
</svg>
