<?xml version="1.0" encoding="UTF-8" standalone="no"?>
<svg
   width="64"
   height="64"
   version="1.1"
   id="svg73"
   sodipodi:docname="application-x-bittorrent.svg"
   inkscape:version="1.4 (e7c3feb100, 2024-10-09)"
   xmlns:inkscape="http://www.inkscape.org/namespaces/inkscape"
   xmlns:sodipodi="http://sodipodi.sourceforge.net/DTD/sodipodi-0.dtd"
   xmlns:xlink="http://www.w3.org/1999/xlink"
   xmlns="http://www.w3.org/2000/svg"
   xmlns:svg="http://www.w3.org/2000/svg"
   xmlns:rdf="http://www.w3.org/1999/02/22-rdf-syntax-ns#"
   xmlns:cc="http://creativecommons.org/ns#"
   xmlns:dc="http://purl.org/dc/elements/1.1/">
  <metadata
     id="metadata77">
    <rdf:RDF>
      <cc:Work
         rdf:about="">
        <dc:format>image/svg+xml</dc:format>
        <dc:type
           rdf:resource="http://purl.org/dc/dcmitype/StillImage" />
      </cc:Work>
    </rdf:RDF>
  </metadata>
  <sodipodi:namedview
     pagecolor="#f5f7fa"
     bordercolor="#666666"
     borderopacity="1"
     objecttolerance="10"
     gridtolerance="10"
     guidetolerance="10"
     inkscape:pageopacity="0"
     inkscape:pageshadow="2"
     inkscape:window-width="1183"
     inkscape:window-height="669"
     id="namedview75"
     showgrid="false"
     inkscape:zoom="4.4470387"
     inkscape:cx="19.451146"
     inkscape:cy="25.859905"
     inkscape:window-x="80"
     inkscape:window-y="161"
     inkscape:window-maximized="0"
     inkscape:current-layer="g877"
     inkscape:document-rotation="0"
     inkscape:pagecheckerboard="0"
     inkscape:showpageshadow="2"
     inkscape:deskcolor="#d1d1d1" />
  <defs
     id="defs29">
    <filter
       style="color-interpolation-filters:sRGB;"
       inkscape:label="Blur"
       id="filter6"
       x="-0.044145008"
       y="-0.044145008"
       width="1.08829"
       height="1.08829">
      <feGaussianBlur
         stdDeviation="1 1"
         result="blur"
         id="feGaussianBlur6" />
    </filter>
    <filter
       style="color-interpolation-filters:sRGB;"
       inkscape:label="Blur"
       id="filter7"
       x="-0.098100013"
       y="-0.098100021"
       width="1.1962"
       height="1.1962">
      <feGaussianBlur
         stdDeviation="2 2"
         result="blur"
         id="feGaussianBlur7" />
    </filter>
    <clipPath
       id="clip0_515_3621">
      <rect
         width="16"
         height="16"
         fill="#ffffff"
         transform="translate(0.00292969)"
         id="rect7969"
         x="0"
         y="0" />
    </clipPath>
    <filter
       style="color-interpolation-filters:sRGB;"
       inkscape:label="Blur"
       id="filter7349"
       x="-0.10485812"
       y="-0.10485813"
       width="1.2097162"
       height="1.2097163">
      <feGaussianBlur
         stdDeviation="2 2"
         result="blur"
         id="feGaussianBlur7347" />
    </filter>
    <filter
       style="color-interpolation-filters:sRGB"
       inkscape:label="Blur"
       id="filter1283"
       x="-0.082344266"
       y="-0.082344266"
       width="1.1646885"
       height="1.1646885">
      <feGaussianBlur
         stdDeviation="0.5 0.5"
         result="blur"
         id="feGaussianBlur1281" />
    </filter>
    <linearGradient
       inkscape:collect="always"
       xlink:href="#linearGradient1134-5"
       id="linearGradient1136"
       x1="14.971222"
       y1="14.703373"
       x2="2.0756054"
       y2="2.0069976"
       gradientUnits="userSpaceOnUse"
       gradientTransform="matrix(2.4106819,0,0,3.1438568,11.58952,5.3983817)" />
    <filter
       style="color-interpolation-filters:sRGB"
       inkscape:label="Blur"
       id="filter1694"
       x="-0.94955398"
       y="-0.2118907"
       width="2.899108"
       height="1.4237814">
      <feGaussianBlur
         stdDeviation="0.2 0.2"
         result="blur"
         id="feGaussianBlur1692" />
    </filter>
    <filter
       style="color-interpolation-filters:sRGB"
       inkscape:label="Blur"
       id="filter3"
       x="-0.10843471"
       y="-0.10870992"
       width="1.2168694"
       height="1.2174198">
      <feGaussianBlur
         stdDeviation="0.5 0.5"
         result="blur"
         id="feGaussianBlur3" />
    </filter>
    <linearGradient
       inkscape:collect="always"
       id="linearGradient1134-5">
      <stop
         style="stop-color:#2e3440;stop-opacity:1;"
         offset="0"
         id="stop1130-3" />
      <stop
         style="stop-color:#4c566a;stop-opacity:1;"
         offset="1"
         id="stop1132-5" />
    </linearGradient>
    <linearGradient
       id="linearGradient1"
       inkscape:collect="always">
      <stop
         style="stop-color:#d8dee9;stop-opacity:1;"
         offset="0"
         id="stop1" />
      <stop
         style="stop-color:#eceff4;stop-opacity:1;"
         offset="1"
         id="stop2" />
    </linearGradient>
    <clipPath
       clipPathUnits="userSpaceOnUse"
       id="clipPath354">
      <rect
         style="display:block;opacity:0.2"
         width="36"
         height="36"
         x="15.620633"
         y="15.638589"
         rx="2.7690001"
         ry="2.7690001"
         id="rect356" />
    </clipPath>
    <inkscape:path-effect
       effect="powerclip"
       id="path-effect358"
       is_visible="true"
       lpeversion="1"
       inverse="true"
       flatten="false"
       hide_clip="false"
       message="" />
    <clipPath
       clipPathUnits="userSpaceOnUse"
       id="clipPath186">
      <rect
         style="display:block;opacity:0.2"
         width="36"
         height="36"
         x="5.391973"
         y="5.6022935"
         rx="2.7690001"
         ry="2.7690001"
         id="rect188" />
    </clipPath>
    <inkscape:path-effect
       effect="powerclip"
       id="path-effect190"
       is_visible="true"
       lpeversion="1"
       inverse="true"
       flatten="false"
       hide_clip="false"
       message="" />
    <linearGradient
       inkscape:collect="always"
       xlink:href="#linearGradient1"
       id="linearGradient27"
       x1="11.83601"
       y1="11.475547"
       x2="5.2159462"
       y2="5.7829943"
       gradientUnits="userSpaceOnUse"
       gradientTransform="matrix(3.0924016,0,0,3.0924016,5.8152606,5.8397365)" />
  </defs>
  <g
     id="g877"
     transform="matrix(1.1,0,0,1.1,-3.1845928,-3.2065454)">
    <path
       style="fill:#f5f7fa;stroke-width:0.204426;fill-opacity:1"
       d=""
       id="path3" />
    <rect
       style="fill:#000000;stroke:none;stroke-width:0.539739;stroke-dasharray:none;filter:url(#filter1283)"
       id="rect246-1"
       width="14.572964"
       height="14.572964"
       x="1.1932471"
       y="1.2138842"
       rx="2.1589575"
       ry="2.1589575"
       transform="matrix(2.4606127,0,0,3.1451146,11.16612,5.3876877)" />
    <rect
       style="fill:#2b323e;stroke:#ed8796;stroke-width:1.63561;stroke-dasharray:none;fill-opacity:1;stroke-opacity:1"
       id="rect246"
       width="35.155312"
       height="44.93494"
       x="14.453793"
       y="9.6548424"
       rx="5.2081943"
       ry="5.181818" />
    <rect
       style="fill:url(#linearGradient1136);fill-opacity:1;stroke:none;stroke-width:1.31679;stroke-dasharray:none"
       id="rect246-5"
       width="31.13278"
       height="40.601383"
       x="16.465055"
       y="11.821622"
       rx="3.1818182"
       ry="3.1725934" />
    <path
       id="path7-0"
       style="fill:#000000;stroke:none;stroke-width:0.0543734;stroke-opacity:1;opacity:0.3"
       d="m 40.323683,25.175191 c -0.315351,0 -0.61105,0.149639 -0.785084,0.397262 -0.04422,0.0629 -0.321232,0.749619 -0.639768,1.585264 l -0.561447,1.473917 -0.986071,0.433118 c -0.541956,0.238198 -0.994599,0.433137 -1.005889,0.433117 -0.01129,-2.3e-5 -0.04272,-0.07642 -0.06983,-0.169851 -0.07158,-0.246831 -0.321337,-0.739168 -0.4869,-0.958707 -0.198974,-0.263839 -0.456026,-0.531334 -0.696385,-0.724693 -0.181112,-0.145696 -0.214044,-0.186543 -0.292519,-0.367063 -0.192815,-0.443545 -0.508301,-0.811884 -0.941723,-1.097418 -1.221607,-0.804787 -2.981534,-0.648534 -3.982976,0.352909 -0.221738,0.22174 -0.383319,0.459797 -0.509549,0.75017 -0.08236,0.189463 -0.109756,0.223099 -0.308561,0.382163 -0.540514,0.432463 -1.036226,1.152966 -1.17668,1.710763 -0.02391,0.09497 -0.04238,0.122916 -0.07548,0.113234 -0.103636,-0.03031 -1.922681,-0.842216 -1.951383,-0.870951 -0.01742,-0.01745 -0.277317,-0.679072 -0.578434,-1.471088 -0.301118,-0.792017 -0.572099,-1.480232 -0.602024,-1.528648 -0.08946,-0.144746 -0.315525,-0.328147 -0.481241,-0.390654 -0.207357,-0.07822 -0.525996,-0.06478 -0.725635,0.03021 -0.182263,0.08672 -0.381558,0.290708 -0.469918,0.481241 -0.05971,0.128734 -0.07249,0.194116 -0.07171,0.37367 9e-4,0.216876 0.0025,0.222124 0.592587,1.767382 0.32548,0.852297 0.623223,1.62867 0.661472,1.725861 0.08573,0.217854 0.217686,0.403863 0.353853,0.498225 0.07484,0.05187 1.606537,0.746345 2.118403,0.960596 0.01704,0.0071 0.123072,-0.125229 0.235901,-0.294409 0.44336,-0.664759 0.921227,-1.186244 1.230468,-1.340868 0.12946,-0.06473 0.2045,-0.08201 0.38688,-0.09059 0.361112,-0.01697 0.349848,-0.02468 2.071225,1.446554 1.475045,1.260695 1.510404,1.287995 1.563559,1.240848 0.255807,-0.226902 2.904274,-2.475477 3.012945,-2.558127 0.250596,-0.190585 0.532262,-0.25922 0.754889,-0.184004 0.164402,0.05556 0.330136,0.200202 0.668075,0.584096 0.376919,0.428171 0.539648,0.638171 0.756775,0.974748 0.117882,0.182734 0.162599,0.23151 0.198161,0.217975 0.273028,-0.103939 2.004204,-0.884154 2.089152,-0.941723 0.130902,-0.08871 0.236136,-0.208765 0.306673,-0.347249 0.02752,-0.05407 0.336176,-0.843949 0.685063,-1.756058 l 0.634107,-1.658868 V 26.11315 c 4.46e-4,-0.213147 -0.0086,-0.264385 -0.07456,-0.399148 -0.157558,-0.321865 -0.498375,-0.538814 -0.846409,-0.538813 z m -6.999697,1.961765 c 0.25144,0.01231 0.537806,0.157413 0.779422,0.416132 0.602344,0.644985 0.703976,1.656074 0.195325,1.941949 -0.119456,0.06714 -0.342286,0.09471 -0.480297,0.05945 -0.189657,-0.04845 -0.405417,-0.180838 -0.580319,-0.355739 -0.594371,-0.594372 -0.749938,-1.562915 -0.311391,-1.936287 0.108748,-0.09259 0.246396,-0.132893 0.39726,-0.125502 z m -2.4364,0.01225 c 0.282892,5.85e-4 0.437001,0.103633 0.56239,0.377444 0.05234,0.114317 0.06223,0.179004 0.0604,0.40764 -0.004,0.473344 -0.182801,0.887923 -0.540687,1.252169 -0.130647,0.13297 -0.247747,0.222081 -0.372726,0.283085 -0.195068,0.09521 -0.453707,0.131356 -0.601079,0.08398 -0.239521,-0.07699 -0.401009,-0.338482 -0.420849,-0.681276 -0.0375,-0.647912 0.396751,-1.386492 0.97286,-1.654147 0.115903,-0.05386 0.192187,-0.06917 0.3397,-0.06889 z m 4.798255,2.610025 c -0.02573,0.003 -0.0551,0.01778 -0.106629,0.0453 -0.06225,0.03323 -0.866293,0.702119 -1.786253,1.487129 -0.91996,0.785005 -1.688333,1.427682 -1.707934,1.427682 -0.0196,0 -0.785374,-0.639721 -1.701328,-1.421079 -1.18261,-1.008812 -1.695279,-1.428715 -1.767379,-1.450316 -0.1495,-0.04479 -0.352927,0.05604 -0.582208,0.288745 -0.215298,0.218497 -0.659992,0.805894 -0.864347,1.141767 -0.609508,1.001784 -0.974893,2.143192 -1.083263,3.384727 -0.03856,0.441716 -0.01729,1.293936 0.04341,1.736246 0.251143,1.830235 1.05591,3.51376 2.255227,4.718053 0.936851,0.940739 2.086322,1.52481 3.236582,1.644709 0.62856,0.06553 1.290849,-0.0096 1.930624,-0.218911 0.322282,-0.105513 0.944162,-0.412823 1.250284,-0.617119 1.997801,-1.333262 3.302633,-3.945694 3.302633,-6.610935 0,-1.690382 -0.522647,-3.31315 -1.472975,-4.57179 -0.263717,-0.349274 -0.769531,-0.911564 -0.864346,-0.960594 -0.0345,-0.01785 -0.05637,-0.02647 -0.08209,-0.0236 z m 2.482639,2.794971 c -0.003,0.0021 0.03569,0.133438 0.08588,0.291583 0.110275,0.347466 0.243464,0.970757 0.28685,1.341816 0.04568,0.390459 0.03844,0.37953 0.288738,0.419904 0.116769,0.01886 0.236662,0.044 0.267029,0.05567 0.0303,0.01175 0.502584,0.433044 1.048352,0.937004 0.545769,0.50396 1.0385,0.94839 1.095533,0.987018 0.05702,0.03863 0.166865,0.09308 0.244392,0.120789 0.426906,0.152548 0.947728,-0.0929 1.154035,-0.543517 0.133159,-0.290872 0.07994,-0.684514 -0.128334,-0.949272 -0.0303,-0.0385 -0.577952,-0.551948 -1.217257,-1.141768 -0.750918,-0.6928 -1.210591,-1.097462 -1.298406,-1.142713 -0.10307,-0.05313 -0.339465,-0.107895 -0.978525,-0.225529 -0.463527,-0.08532 -0.845308,-0.153043 -0.848302,-0.150972 z m -12.215974,0.02444 c -0.08228,0.0056 -0.410416,0.05724 -0.793575,0.125489 -0.637431,0.113553 -0.828112,0.158084 -0.958708,0.221756 -0.129559,0.06314 -0.409144,0.307386 -1.358797,1.187063 -1.395554,1.292729 -1.359967,1.248288 -1.359743,1.691894 1.17e-4,0.228899 0.0085,0.274481 0.07455,0.400089 0.142795,0.271358 0.346633,0.441591 0.616177,0.514266 0.06835,0.01856 0.175575,0.03389 0.237791,0.03491 0.154654,0.0025 0.424937,-0.08545 0.547293,-0.178338 0.08527,-0.06475 1.634246,-1.48158 1.977806,-1.808901 0.09994,-0.09522 0.133945,-0.108265 0.367065,-0.149084 0.141286,-0.02474 0.260513,-0.04852 0.265152,-0.05189 0.0046,-0.0034 0.02616,-0.144385 0.04812,-0.314223 0.06802,-0.526089 0.155182,-0.936965 0.301011,-1.417304 0.03974,-0.130932 0.06501,-0.245444 0.05567,-0.254783 -0.0012,-0.0012 -0.008,-0.0018 -0.01983,-9.9e-4 z m -0.314221,4.013292 -0.487846,0.41047 c -0.619377,0.520703 -0.724382,0.624243 -0.808674,0.796409 -0.246875,0.504229 -1.383321,3.030618 -1.40881,3.131842 -0.04086,0.162289 -0.01729,0.428947 0.05284,0.589758 0.101495,0.232827 0.339262,0.447504 0.584094,0.527477 0.06897,0.02257 0.199077,0.03325 0.331208,0.02845 0.185915,-0.0068 0.241872,-0.02072 0.388767,-0.09908 0.297232,-0.158424 0.314486,-0.188359 1.02476,-1.74662 0.556607,-1.221133 0.663367,-1.434651 0.753001,-1.516383 l 0.103797,-0.09531 -0.133047,-0.39443 C 25.88569,37.773152 25.780771,37.370968 25.696787,36.911802 Z m 12.891598,0.0056 c -0.0037,0.005 -0.02907,0.137767 -0.05569,0.294397 -0.06803,0.398651 -0.205367,0.928816 -0.351965,1.359743 l -0.124562,0.366121 0.108513,0.09531 c 0.09568,0.08439 0.179513,0.251938 0.719026,1.434289 0.335999,0.736338 0.631797,1.379007 0.656756,1.427682 0.102296,0.19949 0.272223,0.352997 0.49445,0.446326 0.214334,0.09002 0.521669,0.08059 0.743564,-0.02257 0.415072,-0.193089 0.651557,-0.710625 0.513323,-1.123837 -0.05875,-0.175618 -1.404661,-3.107711 -1.473918,-3.211106 -0.0573,-0.08554 -1.213363,-1.088136 -1.229524,-1.06628 z" />
    <path
       id="path7"
       style="fill:url(#linearGradient27);stroke:none;stroke-width:0.0543734;stroke-opacity:1"
       d="m 40.323683,23.357009 c -0.315351,0 -0.61105,0.149639 -0.785084,0.397262 -0.04422,0.0629 -0.321232,0.749619 -0.639768,1.585264 l -0.561447,1.473917 -0.986071,0.433118 c -0.541956,0.238198 -0.994599,0.433137 -1.005889,0.433117 -0.01129,-2.3e-5 -0.04272,-0.07642 -0.06983,-0.169851 -0.07158,-0.246831 -0.321337,-0.739168 -0.4869,-0.958707 -0.198974,-0.263839 -0.456026,-0.531334 -0.696385,-0.724693 -0.181112,-0.145696 -0.214044,-0.186543 -0.292519,-0.367063 -0.192815,-0.443545 -0.508301,-0.811884 -0.941723,-1.097418 -1.221607,-0.804787 -2.981534,-0.648534 -3.982976,0.352909 -0.221738,0.22174 -0.383319,0.459797 -0.509549,0.75017 -0.08236,0.189463 -0.109756,0.223099 -0.308561,0.382163 -0.540514,0.432463 -1.036226,1.152966 -1.17668,1.710763 -0.02391,0.09497 -0.04238,0.122916 -0.07548,0.113234 -0.103636,-0.03031 -1.922681,-0.842216 -1.951383,-0.870951 -0.01742,-0.01745 -0.277317,-0.679072 -0.578434,-1.471088 -0.301118,-0.792017 -0.572099,-1.480232 -0.602024,-1.528648 -0.08946,-0.144746 -0.315525,-0.328147 -0.481241,-0.390654 -0.207357,-0.07822 -0.525996,-0.06478 -0.725635,0.03021 -0.182263,0.08672 -0.381558,0.290708 -0.469918,0.481241 -0.05971,0.128734 -0.07249,0.194116 -0.07171,0.37367 9e-4,0.216876 0.0025,0.222124 0.592587,1.767382 0.32548,0.852297 0.623223,1.62867 0.661472,1.725861 0.08573,0.217854 0.217686,0.403863 0.353853,0.498225 0.07484,0.05187 1.606537,0.746345 2.118403,0.960596 0.01704,0.0071 0.123072,-0.125229 0.235901,-0.294409 0.44336,-0.664759 0.921227,-1.186244 1.230468,-1.340868 0.12946,-0.06473 0.2045,-0.08201 0.38688,-0.09059 0.361112,-0.01697 0.349848,-0.02468 2.071225,1.446554 1.475045,1.260695 1.510404,1.287995 1.563559,1.240848 0.255807,-0.226902 2.904274,-2.475477 3.012945,-2.558127 0.250596,-0.190585 0.532262,-0.25922 0.754889,-0.184004 0.164402,0.05556 0.330136,0.200202 0.668075,0.584096 0.376919,0.428171 0.539648,0.638171 0.756775,0.974748 0.117882,0.182734 0.162599,0.23151 0.198161,0.217975 0.273028,-0.103939 2.004204,-0.884154 2.089152,-0.941723 0.130902,-0.08871 0.236136,-0.208765 0.306673,-0.347249 0.02752,-0.05407 0.336176,-0.843949 0.685063,-1.756058 l 0.634107,-1.658868 v -0.244395 c 4.46e-4,-0.213147 -0.0086,-0.264385 -0.07456,-0.399148 -0.157558,-0.321865 -0.498375,-0.538814 -0.846409,-0.538813 z m -6.999697,1.961765 c 0.25144,0.01231 0.537806,0.157413 0.779422,0.416132 0.602344,0.644985 0.703976,1.656074 0.195325,1.941949 -0.119456,0.06714 -0.342286,0.09471 -0.480297,0.05945 -0.189657,-0.04845 -0.405417,-0.180838 -0.580319,-0.355739 -0.594371,-0.594372 -0.749938,-1.562915 -0.311391,-1.936287 0.108748,-0.09259 0.246396,-0.132893 0.39726,-0.125502 z m -2.4364,0.01225 c 0.282892,5.85e-4 0.437001,0.103633 0.56239,0.377444 0.05234,0.114317 0.06223,0.179004 0.0604,0.40764 -0.004,0.473344 -0.182801,0.887923 -0.540687,1.252169 -0.130647,0.13297 -0.247747,0.222081 -0.372726,0.283085 -0.195068,0.09521 -0.453707,0.131356 -0.601079,0.08398 -0.239521,-0.07699 -0.401009,-0.338482 -0.420849,-0.681276 -0.0375,-0.647912 0.396751,-1.386492 0.97286,-1.654147 0.115903,-0.05386 0.192187,-0.06917 0.3397,-0.06889 z m 4.798255,2.610025 c -0.02573,0.003 -0.0551,0.01778 -0.106629,0.0453 -0.06225,0.03323 -0.866293,0.702119 -1.786253,1.487129 -0.91996,0.785005 -1.688333,1.427682 -1.707934,1.427682 -0.0196,0 -0.785374,-0.639721 -1.701328,-1.421079 -1.18261,-1.008812 -1.695279,-1.428715 -1.767379,-1.450316 -0.1495,-0.04479 -0.352927,0.05604 -0.582208,0.288745 -0.215298,0.218497 -0.659992,0.805894 -0.864347,1.141767 -0.609508,1.001784 -0.974893,2.143192 -1.083263,3.384727 -0.03856,0.441716 -0.01729,1.293936 0.04341,1.736246 0.251143,1.830235 1.05591,3.51376 2.255227,4.718053 0.936851,0.940739 2.086322,1.52481 3.236582,1.644709 0.62856,0.06553 1.290849,-0.0096 1.930624,-0.218911 0.322282,-0.105513 0.944162,-0.412823 1.250284,-0.617119 1.997801,-1.333262 3.302633,-3.945694 3.302633,-6.610935 0,-1.690382 -0.522647,-3.31315 -1.472975,-4.57179 -0.263717,-0.349274 -0.769531,-0.911564 -0.864346,-0.960594 -0.0345,-0.01785 -0.05637,-0.02647 -0.08209,-0.0236 z m 2.482639,2.794971 c -0.003,0.0021 0.03569,0.133438 0.08588,0.291583 0.110275,0.347466 0.243464,0.970757 0.28685,1.341816 0.04568,0.390459 0.03844,0.37953 0.288738,0.419904 0.116769,0.01886 0.236662,0.044 0.267029,0.05567 0.0303,0.01175 0.502584,0.433044 1.048352,0.937004 0.545769,0.50396 1.0385,0.94839 1.095533,0.987018 0.05702,0.03863 0.166865,0.09308 0.244392,0.120789 0.426906,0.152548 0.947728,-0.0929 1.154035,-0.543517 0.133159,-0.290872 0.07994,-0.684514 -0.128334,-0.949272 -0.0303,-0.0385 -0.577952,-0.551948 -1.217257,-1.141768 -0.750918,-0.6928 -1.210591,-1.097462 -1.298406,-1.142713 -0.10307,-0.05313 -0.339465,-0.107895 -0.978525,-0.225529 -0.463527,-0.08532 -0.845308,-0.153043 -0.848302,-0.150972 z m -12.215974,0.02444 c -0.08228,0.0056 -0.410416,0.05724 -0.793575,0.125489 -0.637431,0.113553 -0.828112,0.158084 -0.958708,0.221756 -0.129559,0.06314 -0.409144,0.307386 -1.358797,1.187063 -1.395554,1.292729 -1.359967,1.248288 -1.359743,1.691894 1.17e-4,0.228899 0.0085,0.274481 0.07455,0.400089 0.142795,0.271358 0.346633,0.441591 0.616177,0.514266 0.06835,0.01856 0.175575,0.03389 0.237791,0.03491 0.154654,0.0025 0.424937,-0.08545 0.547293,-0.178338 0.08527,-0.06475 1.634246,-1.48158 1.977806,-1.808901 0.09994,-0.09522 0.133945,-0.108265 0.367065,-0.149084 0.141286,-0.02474 0.260513,-0.04852 0.265152,-0.05189 0.0046,-0.0034 0.02616,-0.144385 0.04812,-0.314223 0.06802,-0.526089 0.155182,-0.936965 0.301011,-1.417304 0.03974,-0.130932 0.06501,-0.245444 0.05567,-0.254783 -0.0012,-0.0012 -0.008,-0.0018 -0.01983,-9.9e-4 z m -0.314221,4.013292 -0.487846,0.41047 c -0.619377,0.520703 -0.724382,0.624243 -0.808674,0.796409 -0.246875,0.504229 -1.383321,3.030618 -1.40881,3.131842 -0.04086,0.162289 -0.01729,0.428947 0.05284,0.589758 0.101495,0.232827 0.339262,0.447504 0.584094,0.527477 0.06897,0.02257 0.199077,0.03325 0.331208,0.02845 0.185915,-0.0068 0.241872,-0.02072 0.388767,-0.09908 0.297232,-0.158424 0.314486,-0.188359 1.02476,-1.74662 0.556607,-1.221133 0.663367,-1.434651 0.753001,-1.516383 l 0.103797,-0.09531 -0.133047,-0.39443 C 25.88569,35.95497 25.780771,35.552786 25.696787,35.09362 Z m 12.891598,0.0056 c -0.0037,0.005 -0.02907,0.137767 -0.05569,0.294397 -0.06803,0.398651 -0.205367,0.928816 -0.351965,1.359743 l -0.124562,0.366121 0.108513,0.09531 c 0.09568,0.08439 0.179513,0.251938 0.719026,1.434289 0.335999,0.736338 0.631797,1.379007 0.656756,1.427682 0.102296,0.19949 0.272223,0.352997 0.49445,0.446326 0.214334,0.09002 0.521669,0.08059 0.743564,-0.02257 0.415072,-0.193089 0.651557,-0.710625 0.513323,-1.123837 -0.05875,-0.175618 -1.404661,-3.107711 -1.473918,-3.211106 -0.0573,-0.08554 -1.213363,-1.088136 -1.229524,-1.06628 z" />
  </g>
</svg>
