<?xml version="1.0" encoding="UTF-8" standalone="no"?>
<svg
   width="64"
   height="64"
   version="1.1"
   id="svg73"
   sodipodi:docname="accessories-ebook-reader.svg"
   inkscape:version="1.4 (e7c3feb100, 2024-10-09)"
   xmlns:inkscape="http://www.inkscape.org/namespaces/inkscape"
   xmlns:sodipodi="http://sodipodi.sourceforge.net/DTD/sodipodi-0.dtd"
   xmlns:xlink="http://www.w3.org/1999/xlink"
   xmlns="http://www.w3.org/2000/svg"
   xmlns:svg="http://www.w3.org/2000/svg"
   xmlns:rdf="http://www.w3.org/1999/02/22-rdf-syntax-ns#"
   xmlns:cc="http://creativecommons.org/ns#"
   xmlns:dc="http://purl.org/dc/elements/1.1/">
  <metadata
     id="metadata77">
    <rdf:RDF>
      <cc:Work
         rdf:about="">
        <dc:format>image/svg+xml</dc:format>
        <dc:type
           rdf:resource="http://purl.org/dc/dcmitype/StillImage" />
      </cc:Work>
    </rdf:RDF>
  </metadata>
  <sodipodi:namedview
     pagecolor="#f5f7fa"
     bordercolor="#666666"
     borderopacity="1"
     objecttolerance="10"
     gridtolerance="10"
     guidetolerance="10"
     inkscape:pageopacity="0"
     inkscape:pageshadow="2"
     inkscape:window-width="1183"
     inkscape:window-height="669"
     id="namedview75"
     showgrid="false"
     inkscape:zoom="4.4470387"
     inkscape:cx="19.451146"
     inkscape:cy="8.3201435"
     inkscape:window-x="126"
     inkscape:window-y="157"
     inkscape:window-maximized="0"
     inkscape:current-layer="g877"
     inkscape:document-rotation="0"
     inkscape:pagecheckerboard="0"
     inkscape:showpageshadow="2"
     inkscape:deskcolor="#d1d1d1" />
  <defs
     id="defs29">
    <filter
       style="color-interpolation-filters:sRGB;"
       inkscape:label="Blur"
       id="filter6"
       x="-0.044145008"
       y="-0.044145008"
       width="1.08829"
       height="1.08829">
      <feGaussianBlur
         stdDeviation="1 1"
         result="blur"
         id="feGaussianBlur6" />
    </filter>
    <filter
       style="color-interpolation-filters:sRGB;"
       inkscape:label="Blur"
       id="filter7"
       x="-0.098100013"
       y="-0.098100021"
       width="1.1962"
       height="1.1962">
      <feGaussianBlur
         stdDeviation="2 2"
         result="blur"
         id="feGaussianBlur7" />
    </filter>
    <clipPath
       id="clip0_515_3621">
      <rect
         width="16"
         height="16"
         fill="#ffffff"
         transform="translate(0.00292969)"
         id="rect7969"
         x="0"
         y="0" />
    </clipPath>
    <filter
       style="color-interpolation-filters:sRGB;"
       inkscape:label="Blur"
       id="filter7349"
       x="-0.10485812"
       y="-0.10485813"
       width="1.2097162"
       height="1.2097163">
      <feGaussianBlur
         stdDeviation="2 2"
         result="blur"
         id="feGaussianBlur7347" />
    </filter>
    <filter
       style="color-interpolation-filters:sRGB"
       inkscape:label="Blur"
       id="filter1283"
       x="-0.082344266"
       y="-0.082344266"
       width="1.1646885"
       height="1.1646885">
      <feGaussianBlur
         stdDeviation="0.5 0.5"
         result="blur"
         id="feGaussianBlur1281" />
    </filter>
    <linearGradient
       inkscape:collect="always"
       xlink:href="#linearGradient1134-5"
       id="linearGradient1136"
       x1="14.971222"
       y1="14.703373"
       x2="2.0756054"
       y2="2.0069976"
       gradientUnits="userSpaceOnUse"
       gradientTransform="matrix(2.4106819,0,0,3.1438568,11.58952,5.3983817)" />
    <filter
       style="color-interpolation-filters:sRGB"
       inkscape:label="Blur"
       id="filter1694"
       x="-0.94955398"
       y="-0.2118907"
       width="2.899108"
       height="1.4237814">
      <feGaussianBlur
         stdDeviation="0.2 0.2"
         result="blur"
         id="feGaussianBlur1692" />
    </filter>
    <filter
       style="color-interpolation-filters:sRGB"
       inkscape:label="Blur"
       id="filter3"
       x="-0.10843471"
       y="-0.10870992"
       width="1.2168694"
       height="1.2174198">
      <feGaussianBlur
         stdDeviation="0.5 0.5"
         result="blur"
         id="feGaussianBlur3" />
    </filter>
    <linearGradient
       inkscape:collect="always"
       id="linearGradient1134-5">
      <stop
         style="stop-color:#2e3440;stop-opacity:1;"
         offset="0"
         id="stop1130-3" />
      <stop
         style="stop-color:#4c566a;stop-opacity:1;"
         offset="1"
         id="stop1132-5" />
    </linearGradient>
    <linearGradient
       id="linearGradient1"
       inkscape:collect="always">
      <stop
         style="stop-color:#d8dee9;stop-opacity:1;"
         offset="0"
         id="stop1" />
      <stop
         style="stop-color:#eceff4;stop-opacity:1;"
         offset="1"
         id="stop2" />
    </linearGradient>
    <linearGradient
       inkscape:collect="always"
       xlink:href="#linearGradient1"
       id="linearGradient13"
       x1="42.756371"
       y1="40.77779"
       x2="20.534195"
       y2="21.698019"
       gradientUnits="userSpaceOnUse"
       gradientTransform="matrix(0.9,0,0,0.9,3.1985993,3.1465045)" />
  </defs>
  <g
     id="g877"
     transform="matrix(1.1,0,0,1.1,-3.1845928,-3.2065454)">
    <path
       style="fill:#f5f7fa;stroke-width:0.204426;fill-opacity:1"
       d=""
       id="path3" />
    <rect
       style="fill:#000000;stroke:none;stroke-width:0.539739;stroke-dasharray:none;filter:url(#filter1283)"
       id="rect246-1"
       width="14.572964"
       height="14.572964"
       x="1.1932471"
       y="1.2138842"
       rx="2.1589575"
       ry="2.1589575"
       transform="matrix(2.4606127,0,0,3.1451146,11.16612,5.3876877)" />
    <rect
       style="fill:#2b323e;stroke:#ace3ff;stroke-width:1.63561;stroke-dasharray:none;fill-opacity:1;stroke-opacity:1"
       id="rect246"
       width="35.155312"
       height="44.93494"
       x="14.453793"
       y="9.6548424"
       rx="5.2081943"
       ry="5.181818" />
    <rect
       style="fill:url(#linearGradient1136);fill-opacity:1;stroke:none;stroke-width:1.31679;stroke-dasharray:none"
       id="rect246-5"
       width="31.13278"
       height="40.601383"
       x="16.465055"
       y="11.821622"
       rx="3.1818182"
       ry="3.1725934" />
    <path
       d="m 26.385539,42.283231 h -0.432 c -1.008818,0 -1.808182,-0.294551 -2.398091,-0.88446 -0.576,-0.589091 -0.864,-1.375365 -0.864,-2.358 v -3.360275 c 0,-0.536728 -0.137454,-0.943364 -0.413182,-1.218273 -0.274909,-0.288 -0.621818,-0.432 -1.041545,-0.432 v -1.494 c 0.419727,0 0.766636,-0.137454 1.041545,-0.412363 0.275728,-0.288002 0.413182,-0.701182 0.413182,-1.23791 v -3.360272 c 0,-0.982636 0.288002,-1.76891 0.864,-2.358 0.589909,-0.58991 1.389273,-0.884455 2.398091,-0.884455 h 0.432 v 1.493182 h -0.432 c -0.459,0 -0.845182,0.164455 -1.159364,0.491727 -0.301908,0.327273 -0.452454,0.766636 -0.452454,1.316454 v 3.360274 c 0,1.19209 -0.451637,1.958727 -1.355728,2.29909 v 0.07854 c 0.904091,0.314182 1.355728,1.080818 1.355728,2.299092 v 3.360274 c 0,0.550636 0.150544,0.989182 0.452454,1.316454 0.314182,0.328091 0.700364,0.491726 1.159364,0.491726 h 0.432 z m 11.632907,0 h -0.431999 v -1.493188 h 0.431999 c 0.459002,0 0.838638,-0.163649 1.13973,-0.491725 0.314998,-0.327276 0.472089,-0.765821 0.472089,-1.316457 v -3.360275 c 0,-1.218272 0.451636,-1.984908 1.355727,-2.29909 v -0.07854 c -0.904091,-0.340362 -1.355727,-1.106999 -1.355727,-2.29909 v -3.360273 c 0,-0.549818 -0.157094,-0.989181 -0.472089,-1.316454 -0.301092,-0.327273 -0.680728,-0.491727 -1.13973,-0.491727 H 37.586447 V 24.28323 h 0.431999 c 1.008819,0 1.801637,0.294545 2.377637,0.884454 0.589909,0.589091 0.884455,1.375364 0.884455,2.358 v 3.360273 c 0,0.536727 0.137457,0.949909 0.413182,1.237909 0.274914,0.274909 0.62182,0.412364 1.041545,0.412364 v 1.494 c -0.419725,0 -0.766638,0.144001 -1.041545,0.432 -0.275719,0.274909 -0.413182,0.681545 -0.413182,1.218272 v 3.360276 c 0,0.982635 -0.294552,1.768909 -0.884455,2.358 -0.576,0.589911 -1.368818,0.884458 -2.377637,0.884456 z M 31.966357,32.243314 c 0.564546,0 1.022727,0.458182 1.022727,1.022728 0,0.564544 -0.458181,1.022726 -1.022727,1.022726 -0.564545,0 -1.022728,-0.458182 -1.022728,-1.022726 0,-0.564546 0.458183,-1.022728 1.022728,-1.022728 z m 4.909091,0 c 0.564546,0 1.022726,0.458182 1.022726,1.022728 0,0.564544 -0.45818,1.022726 -1.022726,1.022726 -0.564546,0 -1.022727,-0.458182 -1.022727,-1.022726 0,-0.564546 0.458181,-1.022728 1.022727,-1.022728 z m -9.818182,0 c 0.564545,0 1.022727,0.458182 1.022727,1.022728 0,0.564544 -0.458182,1.022726 -1.022727,1.022726 -0.564545,0 -1.022727,-0.458182 -1.022727,-1.022726 0,-0.564546 0.458182,-1.022728 1.022727,-1.022728 z"
       style="clip-rule:evenodd;fill:#000000;fill-rule:nonzero;stroke-width:0.818182;stroke-linejoin:round;stroke-miterlimit:2;opacity:0.3"
       id="path6-3-8" />
    <path
       d="m 26.385539,40.465049 h -0.432 c -1.008818,0 -1.808182,-0.294551 -2.398091,-0.88446 -0.576,-0.589091 -0.864,-1.375365 -0.864,-2.358 v -3.360275 c 0,-0.536728 -0.137454,-0.943364 -0.413182,-1.218273 -0.274909,-0.288 -0.621818,-0.432 -1.041545,-0.432 v -1.494 c 0.419727,0 0.766636,-0.137454 1.041545,-0.412363 0.275728,-0.288002 0.413182,-0.701182 0.413182,-1.23791 v -3.360272 c 0,-0.982636 0.288002,-1.76891 0.864,-2.358 0.589909,-0.58991 1.389273,-0.884455 2.398091,-0.884455 h 0.432 v 1.493182 h -0.432 c -0.459,0 -0.845182,0.164455 -1.159364,0.491727 -0.301908,0.327273 -0.452454,0.766636 -0.452454,1.316454 v 3.360274 c 0,1.19209 -0.451637,1.958727 -1.355728,2.29909 v 0.07854 c 0.904091,0.314182 1.355728,1.080818 1.355728,2.299092 v 3.360274 c 0,0.550636 0.150544,0.989182 0.452454,1.316454 0.314182,0.328091 0.700364,0.491726 1.159364,0.491726 h 0.432 z m 11.632907,0 h -0.431999 v -1.493188 h 0.431999 c 0.459002,0 0.838638,-0.163649 1.13973,-0.491725 0.314998,-0.327276 0.472089,-0.765821 0.472089,-1.316457 v -3.360275 c 0,-1.218272 0.451636,-1.984908 1.355727,-2.29909 v -0.07854 c -0.904091,-0.340362 -1.355727,-1.106999 -1.355727,-2.29909 v -3.360273 c 0,-0.549818 -0.157094,-0.989181 -0.472089,-1.316454 -0.301092,-0.327273 -0.680728,-0.491727 -1.13973,-0.491727 h -0.431999 v -1.493182 h 0.431999 c 1.008819,0 1.801637,0.294545 2.377637,0.884454 0.589909,0.589091 0.884455,1.375364 0.884455,2.358 v 3.360273 c 0,0.536727 0.137457,0.949909 0.413182,1.237909 0.274914,0.274909 0.62182,0.412364 1.041545,0.412364 v 1.494 c -0.419725,0 -0.766638,0.144001 -1.041545,0.432 -0.275719,0.274909 -0.413182,0.681545 -0.413182,1.218272 v 3.360276 c 0,0.982635 -0.294552,1.768909 -0.884455,2.358 -0.576,0.589911 -1.368818,0.884458 -2.377637,0.884456 z M 31.966357,30.425132 c 0.564546,0 1.022727,0.458182 1.022727,1.022728 0,0.564544 -0.458181,1.022726 -1.022727,1.022726 -0.564545,0 -1.022728,-0.458182 -1.022728,-1.022726 0,-0.564546 0.458183,-1.022728 1.022728,-1.022728 z m 4.909091,0 c 0.564546,0 1.022726,0.458182 1.022726,1.022728 0,0.564544 -0.45818,1.022726 -1.022726,1.022726 -0.564546,0 -1.022727,-0.458182 -1.022727,-1.022726 0,-0.564546 0.458181,-1.022728 1.022727,-1.022728 z m -9.818182,0 c 0.564545,0 1.022727,0.458182 1.022727,1.022728 0,0.564544 -0.458182,1.022726 -1.022727,1.022726 -0.564545,0 -1.022727,-0.458182 -1.022727,-1.022726 0,-0.564546 0.458182,-1.022728 1.022727,-1.022728 z"
       style="clip-rule:evenodd;fill:url(#linearGradient13);fill-rule:nonzero;stroke-width:0.818182;stroke-linejoin:round;stroke-miterlimit:2"
       id="path6-3" />
  </g>
</svg>
