<?xml version="1.0" encoding="UTF-8" standalone="no"?>
<svg
   width="64"
   height="64"
   version="1.1"
   id="svg73"
   sodipodi:docname="text-x-lua.svg"
   inkscape:version="1.4 (e7c3feb100, 2024-10-09)"
   xmlns:inkscape="http://www.inkscape.org/namespaces/inkscape"
   xmlns:sodipodi="http://sodipodi.sourceforge.net/DTD/sodipodi-0.dtd"
   xmlns:xlink="http://www.w3.org/1999/xlink"
   xmlns="http://www.w3.org/2000/svg"
   xmlns:svg="http://www.w3.org/2000/svg"
   xmlns:rdf="http://www.w3.org/1999/02/22-rdf-syntax-ns#"
   xmlns:cc="http://creativecommons.org/ns#"
   xmlns:dc="http://purl.org/dc/elements/1.1/">
  <metadata
     id="metadata77">
    <rdf:RDF>
      <cc:Work
         rdf:about="">
        <dc:format>image/svg+xml</dc:format>
        <dc:type
           rdf:resource="http://purl.org/dc/dcmitype/StillImage" />
      </cc:Work>
    </rdf:RDF>
  </metadata>
  <sodipodi:namedview
     pagecolor="#f5f7fa"
     bordercolor="#666666"
     borderopacity="1"
     objecttolerance="10"
     gridtolerance="10"
     guidetolerance="10"
     inkscape:pageopacity="0"
     inkscape:pageshadow="2"
     inkscape:window-width="1183"
     inkscape:window-height="669"
     id="namedview75"
     showgrid="false"
     inkscape:zoom="4.4470387"
     inkscape:cx="19.451146"
     inkscape:cy="25.635037"
     inkscape:window-x="98"
     inkscape:window-y="173"
     inkscape:window-maximized="0"
     inkscape:current-layer="g877"
     inkscape:document-rotation="0"
     inkscape:pagecheckerboard="0"
     inkscape:showpageshadow="2"
     inkscape:deskcolor="#d1d1d1" />
  <defs
     id="defs29">
    <filter
       style="color-interpolation-filters:sRGB"
       inkscape:label="Blur"
       id="filter1283"
       x="-0.082344266"
       y="-0.082344266"
       width="1.1646885"
       height="1.1646885">
      <feGaussianBlur
         stdDeviation="0.5 0.5"
         result="blur"
         id="feGaussianBlur1281" />
    </filter>
    <linearGradient
       inkscape:collect="always"
       xlink:href="#linearGradient1134-5"
       id="linearGradient1136"
       x1="14.971222"
       y1="14.703373"
       x2="2.0756054"
       y2="2.0069976"
       gradientUnits="userSpaceOnUse"
       gradientTransform="matrix(2.4106819,0,0,3.1438568,11.58952,5.3983817)" />
    <linearGradient
       inkscape:collect="always"
       id="linearGradient1134-5">
      <stop
         style="stop-color:#2e3440;stop-opacity:1;"
         offset="0"
         id="stop1130-3" />
      <stop
         style="stop-color:#4c566a;stop-opacity:1;"
         offset="1"
         id="stop1132-5" />
    </linearGradient>
    <linearGradient
       id="linearGradient1"
       inkscape:collect="always">
      <stop
         style="stop-color:#d8dee9;stop-opacity:1;"
         offset="0"
         id="stop1" />
      <stop
         style="stop-color:#eceff4;stop-opacity:1;"
         offset="1"
         id="stop2" />
    </linearGradient>
    <linearGradient
       inkscape:collect="always"
       xlink:href="#linearGradient1"
       id="linearGradient14"
       x1="43.18734"
       y1="42.090141"
       x2="22.511429"
       y2="20.625399"
       gradientUnits="userSpaceOnUse"
       gradientTransform="matrix(0.9,0,0,0.9,3.2440531,3.0642279)" />
  </defs>
  <g
     id="g877"
     transform="matrix(1.1,0,0,1.1,-3.1845928,-3.2065454)">
    <path
       style="fill:#f5f7fa;stroke-width:0.204426;fill-opacity:1"
       d=""
       id="path3" />
    <rect
       style="fill:#000000;stroke:none;stroke-width:0.539739;stroke-dasharray:none;filter:url(#filter1283)"
       id="rect246-1"
       width="14.572964"
       height="14.572964"
       x="1.1932471"
       y="1.2138842"
       rx="2.1589575"
       ry="2.1589575"
       transform="matrix(2.4606127,0,0,3.1451146,11.16612,5.3876877)" />
    <rect
       style="fill:#2b323e;stroke:#9267d7;stroke-width:1.63561;stroke-dasharray:none;fill-opacity:1;stroke-opacity:1"
       id="rect246"
       width="35.155312"
       height="44.93494"
       x="14.453793"
       y="9.6548424"
       rx="5.2081943"
       ry="5.181818" />
    <rect
       style="fill:url(#linearGradient1136);fill-opacity:1;stroke:none;stroke-width:1.31679;stroke-dasharray:none"
       id="rect246-5"
       width="31.13278"
       height="40.601383"
       x="16.465055"
       y="11.821622"
       rx="3.1818182"
       ry="3.1725934" />
    <path
       style="fill:#000000;stroke-width:0.662727;opacity:0.3"
       d="m 32.441116,23.182307 c -0.826639,2.025136 -1.325257,3.351567 -2.245207,5.316479 0.564603,0.597752 1.256445,1.290426 2.379991,2.076597 -1.208377,-0.497282 -2.03124,-0.992961 -2.64768,-1.511079 -1.177266,2.455973 -3.023763,5.950999 -6.765866,12.67431 2.940913,-1.697512 5.381178,-2.742791 7.505739,-3.142422 -0.09144,-0.392101 -0.142333,-0.818128 -0.138561,-1.261119 l 0.0027,-0.09143 c 0.04619,-1.884134 0.868154,-3.555766 2.029398,-3.457741 1.161252,0.09802 1.838718,1.929888 1.79159,3.814014 -0.0085,0.3544 -0.04805,0.694657 -0.117819,1.010406 2.100991,0.411889 4.583963,1.454339 7.483306,3.128283 -0.572138,-1.052811 -1.084898,-2.000064 -1.572211,-2.903958 -0.76819,-0.595683 -1.567492,-1.370449 -3.201907,-2.209314 1.122601,0.29219 1.92944,0.627734 2.556251,1.004752 -4.957994,-9.23102 -5.360476,-10.457453 -7.059928,-14.447217 z"
       id="path6-5-9" />
    <path
       style="fill:url(#linearGradient14);stroke-width:0.662727"
       d="m 32.441116,21.364125 c -0.826639,2.025136 -1.325257,3.351567 -2.245207,5.316479 0.564603,0.597752 1.256445,1.290426 2.379991,2.076597 -1.208377,-0.497282 -2.03124,-0.992961 -2.64768,-1.511079 -1.177266,2.455973 -3.023763,5.950999 -6.765866,12.67431 2.940913,-1.697512 5.381178,-2.742791 7.505739,-3.142422 -0.09144,-0.392101 -0.142333,-0.818128 -0.138561,-1.261119 l 0.0027,-0.09143 c 0.04619,-1.884134 0.868154,-3.555766 2.029398,-3.457741 1.161252,0.09802 1.838718,1.929888 1.79159,3.814014 -0.0085,0.3544 -0.04805,0.694657 -0.117819,1.010406 2.100991,0.411889 4.583963,1.454339 7.483306,3.128283 -0.572138,-1.052811 -1.084898,-2.000064 -1.572211,-2.903958 -0.76819,-0.595683 -1.567492,-1.370449 -3.201907,-2.209314 1.122601,0.29219 1.92944,0.627734 2.556251,1.004752 -4.957994,-9.23102 -5.360476,-10.457453 -7.059928,-14.447217 z"
       id="path6-5" />
  </g>
</svg>
