<?xml version="1.0" encoding="UTF-8" standalone="no"?>
<svg
   width="64"
   height="64"
   version="1.1"
   id="svg73"
   sodipodi:docname="application-x-partial-download.svg"
   inkscape:version="1.4 (e7c3feb100, 2024-10-09)"
   xmlns:inkscape="http://www.inkscape.org/namespaces/inkscape"
   xmlns:sodipodi="http://sodipodi.sourceforge.net/DTD/sodipodi-0.dtd"
   xmlns:xlink="http://www.w3.org/1999/xlink"
   xmlns="http://www.w3.org/2000/svg"
   xmlns:svg="http://www.w3.org/2000/svg"
   xmlns:rdf="http://www.w3.org/1999/02/22-rdf-syntax-ns#"
   xmlns:cc="http://creativecommons.org/ns#"
   xmlns:dc="http://purl.org/dc/elements/1.1/">
  <metadata
     id="metadata77">
    <rdf:RDF>
      <cc:Work
         rdf:about="">
        <dc:format>image/svg+xml</dc:format>
        <dc:type
           rdf:resource="http://purl.org/dc/dcmitype/StillImage" />
      </cc:Work>
    </rdf:RDF>
  </metadata>
  <sodipodi:namedview
     pagecolor="#f5f7fa"
     bordercolor="#666666"
     borderopacity="1"
     objecttolerance="10"
     gridtolerance="10"
     guidetolerance="10"
     inkscape:pageopacity="0"
     inkscape:pageshadow="2"
     inkscape:window-width="1183"
     inkscape:window-height="669"
     id="namedview75"
     showgrid="false"
     inkscape:zoom="4.4470387"
     inkscape:cx="19.451146"
     inkscape:cy="25.635037"
     inkscape:window-x="80"
     inkscape:window-y="161"
     inkscape:window-maximized="0"
     inkscape:current-layer="g877"
     inkscape:document-rotation="0"
     inkscape:pagecheckerboard="0"
     inkscape:showpageshadow="2"
     inkscape:deskcolor="#d1d1d1" />
  <defs
     id="defs29">
    <filter
       style="color-interpolation-filters:sRGB"
       inkscape:label="Blur"
       id="filter1283"
       x="-0.082344266"
       y="-0.082344266"
       width="1.1646885"
       height="1.1646885">
      <feGaussianBlur
         stdDeviation="0.5 0.5"
         result="blur"
         id="feGaussianBlur1281" />
    </filter>
    <linearGradient
       inkscape:collect="always"
       xlink:href="#linearGradient1134-5"
       id="linearGradient1136"
       x1="14.971222"
       y1="14.703373"
       x2="2.0756054"
       y2="2.0069976"
       gradientUnits="userSpaceOnUse"
       gradientTransform="matrix(2.4106819,0,0,3.1438568,11.58952,5.3983817)" />
    <linearGradient
       inkscape:collect="always"
       id="linearGradient1134-5">
      <stop
         style="stop-color:#2e3440;stop-opacity:1;"
         offset="0"
         id="stop1130-3" />
      <stop
         style="stop-color:#4c566a;stop-opacity:1;"
         offset="1"
         id="stop1132-5" />
    </linearGradient>
    <linearGradient
       id="linearGradient1"
       inkscape:collect="always">
      <stop
         style="stop-color:#d8dee9;stop-opacity:1;"
         offset="0"
         id="stop1" />
      <stop
         style="stop-color:#eceff4;stop-opacity:1;"
         offset="1"
         id="stop2" />
    </linearGradient>
    <linearGradient
       inkscape:collect="always"
       xlink:href="#linearGradient1"
       id="linearGradient8"
       x1="43.643295"
       y1="35.810284"
       x2="21.075773"
       y2="25.588978"
       gradientUnits="userSpaceOnUse" />
  </defs>
  <g
     id="g877"
     transform="matrix(1.1,0,0,1.1,-3.1845928,-3.2065454)">
    <path
       style="fill:#f5f7fa;stroke-width:0.204426;fill-opacity:1"
       d=""
       id="path3" />
    <rect
       style="fill:#000000;stroke:none;stroke-width:0.539739;stroke-dasharray:none;filter:url(#filter1283)"
       id="rect246-1"
       width="14.572964"
       height="14.572964"
       x="1.1932471"
       y="1.2138842"
       rx="2.1589575"
       ry="2.1589575"
       transform="matrix(2.4606127,0,0,3.1451146,11.16612,5.3876877)" />
    <rect
       style="fill:#2b323e;stroke:#ace3ff;stroke-width:1.63561;stroke-dasharray:none;fill-opacity:1;stroke-opacity:1"
       id="rect246"
       width="35.155312"
       height="44.93494"
       x="14.453793"
       y="9.6548424"
       rx="5.2081943"
       ry="5.181818" />
    <rect
       style="fill:url(#linearGradient1136);fill-opacity:1;stroke:none;stroke-width:1.31679;stroke-dasharray:none"
       id="rect246-5"
       width="31.13278"
       height="40.601383"
       x="16.465055"
       y="11.821622"
       rx="3.1818182"
       ry="3.1725934" />
    <path
       d="m 28.154839,36.844117 -7.40727,-3.268362 v -1.069091 l 7.40727,-3.695998 v 1.786908 l -5.101089,2.367272 5.101089,2.092363 z m 2.733825,-2.657453 q 0,-0.763636 0.320727,-1.282909 0.320727,-0.519273 1.099636,-1.084363 0.687273,-0.488727 0.977454,-0.84 0.305455,-0.366545 0.305455,-0.855272 0,-0.488728 -0.366545,-0.733091 -0.351273,-0.259638 -0.992727,-0.259638 -0.641454,0 -1.267636,0.198546 -0.626182,0.198546 -1.282909,0.534545 l -0.809455,-1.63418 q 0.748364,-0.412364 1.618909,-0.672 0.870545,-0.259634 1.90909,-0.259634 1.588363,0 2.458909,0.763636 0.885817,0.763636 0.885817,1.939635 0,0.626182 -0.198546,1.084363 -0.198545,0.458181 -0.595635,0.855271 -0.397091,0.381818 -0.992727,0.824727 -0.442909,0.320727 -0.687272,0.549818 -0.244364,0.229091 -0.336001,0.442909 -0.07636,0.213818 -0.07636,0.534546 v 0.442909 h -1.970181 z m -0.244365,3.100362 q 0,-0.702545 0.381818,-0.977454 0.381818,-0.290181 0.931636,-0.290181 0.534545,0 0.916363,0.290181 0.381819,0.274907 0.381819,0.977454 0,0.672 -0.381819,0.977454 -0.381818,0.290181 -0.916363,0.290181 -0.549818,0 -0.931636,-0.290181 -0.381817,-0.305454 -0.381818,-0.977454 z m 6.124352,-2.229817 5.101095,-2.092363 -5.101095,-2.367272 v -1.786908 l 7.407274,3.695998 v 1.069091 l -7.407274,3.268362 z"
       id="text68-5"
       style="font-weight:bold;font-size:4.93879px;font-family:'Noto Sans';-inkscape-font-specification:'Noto Sans Bold';fill:#000000;stroke-width:0.818181;opacity:0.3"
       aria-label="&lt;?&gt;" />
    <path
       d="m 28.154839,35.025935 -7.40727,-3.268362 v -1.069091 l 7.40727,-3.695998 v 1.786908 l -5.101089,2.367272 5.101089,2.092363 z m 2.733825,-2.657453 q 0,-0.763636 0.320727,-1.282909 0.320727,-0.519273 1.099636,-1.084363 0.687273,-0.488727 0.977454,-0.84 0.305455,-0.366545 0.305455,-0.855272 0,-0.488728 -0.366545,-0.733091 -0.351273,-0.259638 -0.992727,-0.259638 -0.641454,0 -1.267636,0.198546 -0.626182,0.198546 -1.282909,0.534545 l -0.809455,-1.63418 q 0.748364,-0.412364 1.618909,-0.672 0.870545,-0.259634 1.90909,-0.259634 1.588363,0 2.458909,0.763636 0.885817,0.763636 0.885817,1.939635 0,0.626182 -0.198546,1.084363 -0.198545,0.458181 -0.595635,0.855271 -0.397091,0.381818 -0.992727,0.824727 -0.442909,0.320727 -0.687272,0.549818 -0.244364,0.229091 -0.336001,0.442909 -0.07636,0.213818 -0.07636,0.534546 V 32.9183 h -1.970181 z m -0.244365,3.100362 q 0,-0.702545 0.381818,-0.977454 0.381818,-0.290181 0.931636,-0.290181 0.534545,0 0.916363,0.290181 0.381819,0.274907 0.381819,0.977454 0,0.672 -0.381819,0.977454 -0.381818,0.290181 -0.916363,0.290181 -0.549818,0 -0.931636,-0.290181 -0.381817,-0.305454 -0.381818,-0.977454 z m 6.124352,-2.229817 5.101095,-2.092363 -5.101095,-2.367272 v -1.786908 l 7.407274,3.695998 v 1.069091 l -7.407274,3.268362 z"
       id="text68"
       style="font-weight:bold;font-size:4.93879px;font-family:'Noto Sans';-inkscape-font-specification:'Noto Sans Bold';fill:url(#linearGradient8);stroke-width:0.818181"
       aria-label="&lt;?&gt;" />
  </g>
</svg>
