<?xml version="1.0" encoding="UTF-8" standalone="no"?>
<svg
   width="64"
   height="64"
   version="1.1"
   id="svg73"
   sodipodi:docname="accessories-ebook-reader.svg"
   inkscape:version="1.4 (e7c3feb100, 2024-10-09)"
   xmlns:inkscape="http://www.inkscape.org/namespaces/inkscape"
   xmlns:sodipodi="http://sodipodi.sourceforge.net/DTD/sodipodi-0.dtd"
   xmlns:xlink="http://www.w3.org/1999/xlink"
   xmlns="http://www.w3.org/2000/svg"
   xmlns:svg="http://www.w3.org/2000/svg"
   xmlns:rdf="http://www.w3.org/1999/02/22-rdf-syntax-ns#"
   xmlns:cc="http://creativecommons.org/ns#"
   xmlns:dc="http://purl.org/dc/elements/1.1/">
  <metadata
     id="metadata77">
    <rdf:RDF>
      <cc:Work
         rdf:about="">
        <dc:format>image/svg+xml</dc:format>
        <dc:type
           rdf:resource="http://purl.org/dc/dcmitype/StillImage" />
      </cc:Work>
    </rdf:RDF>
  </metadata>
  <sodipodi:namedview
     pagecolor="#f5f7fa"
     bordercolor="#666666"
     borderopacity="1"
     objecttolerance="10"
     gridtolerance="10"
     guidetolerance="10"
     inkscape:pageopacity="0"
     inkscape:pageshadow="2"
     inkscape:window-width="1183"
     inkscape:window-height="669"
     id="namedview75"
     showgrid="false"
     inkscape:zoom="4.4470387"
     inkscape:cx="19.451146"
     inkscape:cy="8.3201435"
     inkscape:window-x="126"
     inkscape:window-y="157"
     inkscape:window-maximized="0"
     inkscape:current-layer="g877"
     inkscape:document-rotation="0"
     inkscape:pagecheckerboard="0"
     inkscape:showpageshadow="2"
     inkscape:deskcolor="#d1d1d1" />
  <defs
     id="defs29">
    <filter
       style="color-interpolation-filters:sRGB;"
       inkscape:label="Blur"
       id="filter6"
       x="-0.044145008"
       y="-0.044145008"
       width="1.08829"
       height="1.08829">
      <feGaussianBlur
         stdDeviation="1 1"
         result="blur"
         id="feGaussianBlur6" />
    </filter>
    <filter
       style="color-interpolation-filters:sRGB;"
       inkscape:label="Blur"
       id="filter7"
       x="-0.098100013"
       y="-0.098100021"
       width="1.1962"
       height="1.1962">
      <feGaussianBlur
         stdDeviation="2 2"
         result="blur"
         id="feGaussianBlur7" />
    </filter>
    <clipPath
       id="clip0_515_3621">
      <rect
         width="16"
         height="16"
         fill="#ffffff"
         transform="translate(0.00292969)"
         id="rect7969"
         x="0"
         y="0" />
    </clipPath>
    <filter
       style="color-interpolation-filters:sRGB;"
       inkscape:label="Blur"
       id="filter7349"
       x="-0.10485812"
       y="-0.10485813"
       width="1.2097162"
       height="1.2097163">
      <feGaussianBlur
         stdDeviation="2 2"
         result="blur"
         id="feGaussianBlur7347" />
    </filter>
    <filter
       style="color-interpolation-filters:sRGB"
       inkscape:label="Blur"
       id="filter1283"
       x="-0.082344266"
       y="-0.082344266"
       width="1.1646885"
       height="1.1646885">
      <feGaussianBlur
         stdDeviation="0.5 0.5"
         result="blur"
         id="feGaussianBlur1281" />
    </filter>
    <linearGradient
       inkscape:collect="always"
       xlink:href="#linearGradient1134-5"
       id="linearGradient1136"
       x1="14.971222"
       y1="14.703373"
       x2="2.0756054"
       y2="2.0069976"
       gradientUnits="userSpaceOnUse"
       gradientTransform="matrix(2.4106819,0,0,3.1438568,11.58952,5.3983817)" />
    <filter
       style="color-interpolation-filters:sRGB"
       inkscape:label="Blur"
       id="filter1694"
       x="-0.94955398"
       y="-0.2118907"
       width="2.899108"
       height="1.4237814">
      <feGaussianBlur
         stdDeviation="0.2 0.2"
         result="blur"
         id="feGaussianBlur1692" />
    </filter>
    <filter
       style="color-interpolation-filters:sRGB"
       inkscape:label="Blur"
       id="filter3"
       x="-0.10843471"
       y="-0.10870992"
       width="1.2168694"
       height="1.2174198">
      <feGaussianBlur
         stdDeviation="0.5 0.5"
         result="blur"
         id="feGaussianBlur3" />
    </filter>
    <linearGradient
       inkscape:collect="always"
       id="linearGradient1134-5">
      <stop
         style="stop-color:#2e3440;stop-opacity:1;"
         offset="0"
         id="stop1130-3" />
      <stop
         style="stop-color:#4c566a;stop-opacity:1;"
         offset="1"
         id="stop1132-5" />
    </linearGradient>
    <linearGradient
       id="linearGradient1"
       inkscape:collect="always">
      <stop
         style="stop-color:#d8dee9;stop-opacity:1;"
         offset="0"
         id="stop1" />
      <stop
         style="stop-color:#eceff4;stop-opacity:1;"
         offset="1"
         id="stop2" />
    </linearGradient>
    <linearGradient
       inkscape:collect="always"
       xlink:href="#linearGradient1"
       id="linearGradient11"
       x1="39.96022"
       y1="42.811474"
       x2="23.172764"
       y2="23.595417"
       gradientUnits="userSpaceOnUse"
       gradientTransform="translate(0.36405063)" />
  </defs>
  <g
     id="g877"
     transform="matrix(1.1,0,0,1.1,-3.1845928,-3.2065454)">
    <path
       style="fill:#f5f7fa;stroke-width:0.204426;fill-opacity:1"
       d=""
       id="path3" />
    <rect
       style="fill:#000000;stroke:none;stroke-width:0.539739;stroke-dasharray:none;filter:url(#filter1283)"
       id="rect246-1"
       width="14.572964"
       height="14.572964"
       x="1.1932471"
       y="1.2138842"
       rx="2.1589575"
       ry="2.1589575"
       transform="matrix(2.4606127,0,0,3.1451146,11.16612,5.3876877)" />
    <rect
       style="fill:#2b323e;stroke:#ace3ff;stroke-width:1.63561;stroke-dasharray:none;fill-opacity:1;stroke-opacity:1"
       id="rect246"
       width="35.155312"
       height="44.93494"
       x="14.453793"
       y="9.6548424"
       rx="5.2081943"
       ry="5.181818" />
    <rect
       style="fill:url(#linearGradient1136);fill-opacity:1;stroke:none;stroke-width:1.31679;stroke-dasharray:none"
       id="rect246-5"
       width="31.13278"
       height="40.601383"
       x="16.465055"
       y="11.821622"
       rx="3.1818182"
       ry="3.1725934" />
    <path
       d="m 24.968664,44.754579 q -0.530322,0 -0.925463,-0.07277 -0.395141,-0.0624 -0.686298,-0.176776 v -1.663765 q 0.353548,0.09359 0.759087,0.145576 0.40554,0.06239 0.87347,0.06239 0.384743,0 0.769486,-0.103984 0.395141,-0.09359 0.707094,-0.353547 0.322352,-0.259961 0.519923,-0.717493 0.19757,-0.457532 0.19757,-1.164627 V 25.507044 h 1.944511 v 14.994568 q 0,1.091837 -0.311955,1.892518 -0.301553,0.800681 -0.852671,1.320603 -0.54072,0.530322 -1.310205,0.779884 -0.759087,0.259962 -1.684549,0.259962 z m 16.148795,-8.110793 q 0,1.00865 -0.363945,1.809331 -0.353548,0.790282 -1.01905,1.3414 -0.665502,0.551118 -1.622157,0.842275 -0.956658,0.280759 -2.15248,0.280759 -1.154228,0 -2.162878,-0.187173 -0.998251,-0.176776 -1.674151,-0.530321 v -1.850925 q 0.353548,0.166375 0.800681,0.332749 0.457532,0.155978 0.956658,0.28076 0.499125,0.124781 1.029446,0.207967 0.530321,0.07279 1.050244,0.07279 1.663754,0 2.454034,-0.623907 0.800681,-0.623907 0.800681,-1.788533 0,-0.561517 -0.155994,-0.977455 -0.145559,-0.415935 -0.530302,-0.759084 -0.374346,-0.353548 -1.008651,-0.675899 -0.634306,-0.332751 -1.601362,-0.717494 -0.925462,-0.363945 -1.61176,-0.790282 -0.675899,-0.436735 -1.123033,-0.977454 -0.436735,-0.54072 -0.655102,-1.227018 -0.207969,-0.686298 -0.207969,-1.559767 0,-0.915064 0.332749,-1.632558 0.332749,-0.717493 0.93586,-1.20622 0.603111,-0.499126 1.434987,-0.759087 0.842274,-0.259961 1.850924,-0.259961 1.237418,0 2.225269,0.239163 0.987854,0.228765 1.75734,0.592712 L 40.1608,27.742713 q -0.675899,-0.301555 -1.538968,-0.519922 -0.852675,-0.228766 -1.767738,-0.228766 -1.268611,0 -1.965308,0.592712 -0.696696,0.582313 -0.696696,1.580564 0,0.592712 0.155977,1.029447 0.155978,0.426336 0.519923,0.779884 0.363946,0.34315 0.956658,0.655102 0.60311,0.301554 1.47658,0.644704 0.946259,0.374345 1.653353,0.769486 0.717493,0.395141 1.195822,0.894267 0.478329,0.499125 0.717492,1.154228 0.249557,0.655102 0.249557,1.549369 z"
       id="text1-2"
       style="font-size:6.19791px;font-family:'Droid Sans';-inkscape-font-specification:'Droid Sans';text-align:end;letter-spacing:0px;text-anchor:end;fill:#000000;stroke-width:0.665502;opacity:0.3"
       aria-label="JS" />
    <path
       d="m 24.968664,42.936397 q -0.530322,0 -0.925463,-0.07277 -0.395141,-0.0624 -0.686298,-0.176776 v -1.663765 q 0.353548,0.09359 0.759087,0.145576 0.40554,0.06239 0.87347,0.06239 0.384743,0 0.769486,-0.103984 0.395141,-0.09359 0.707094,-0.353547 0.322352,-0.259961 0.519923,-0.717493 0.19757,-0.457532 0.19757,-1.164627 V 23.688862 h 1.944511 V 38.68343 q 0,1.091837 -0.311955,1.892518 -0.301553,0.800681 -0.852671,1.320603 -0.54072,0.530322 -1.310205,0.779884 -0.759087,0.259962 -1.684549,0.259962 z m 16.148795,-8.110793 q 0,1.00865 -0.363945,1.809331 -0.353548,0.790282 -1.01905,1.3414 -0.665502,0.551118 -1.622157,0.842275 -0.956658,0.280759 -2.15248,0.280759 -1.154228,0 -2.162878,-0.187173 -0.998251,-0.176776 -1.674151,-0.530321 V 36.53095 q 0.353548,0.166375 0.800681,0.332749 0.457532,0.155978 0.956658,0.28076 0.499125,0.124781 1.029446,0.207967 0.530321,0.07279 1.050244,0.07279 1.663754,0 2.454034,-0.623907 0.800681,-0.623907 0.800681,-1.788533 0,-0.561517 -0.155994,-0.977455 -0.145559,-0.415935 -0.530302,-0.759084 -0.374346,-0.353548 -1.008651,-0.675899 -0.634306,-0.332751 -1.601362,-0.717494 -0.925462,-0.363945 -1.61176,-0.790282 -0.675899,-0.436735 -1.123033,-0.977454 -0.436735,-0.54072 -0.655102,-1.227018 -0.207969,-0.686298 -0.207969,-1.559767 0,-0.915064 0.332749,-1.632558 0.332749,-0.717493 0.93586,-1.20622 0.603111,-0.499126 1.434987,-0.759087 0.842274,-0.259961 1.850924,-0.259961 1.237418,0 2.225269,0.239163 0.987854,0.228765 1.75734,0.592712 L 40.1608,25.924531 q -0.675899,-0.301555 -1.538968,-0.519922 -0.852675,-0.228766 -1.767738,-0.228766 -1.268611,0 -1.965308,0.592712 -0.696696,0.582313 -0.696696,1.580564 0,0.592712 0.155977,1.029447 0.155978,0.426336 0.519923,0.779884 0.363946,0.34315 0.956658,0.655102 0.60311,0.301554 1.47658,0.644704 0.946259,0.374345 1.653353,0.769486 0.717493,0.395141 1.195822,0.894267 0.478329,0.499125 0.717492,1.154228 0.249557,0.655102 0.249557,1.549369 z"
       id="text1"
       style="font-size:6.19791px;font-family:'Droid Sans';-inkscape-font-specification:'Droid Sans';text-align:end;letter-spacing:0px;text-anchor:end;fill:url(#linearGradient11);stroke-width:0.665502"
       aria-label="JS" />
  </g>
</svg>
