<?xml version="1.0" encoding="UTF-8" standalone="no"?>
<svg
   width="64"
   height="64"
   version="1.1"
   id="svg73"
   sodipodi:docname="application-x-partial-download.svg"
   inkscape:version="1.4 (e7c3feb100, 2024-10-09)"
   xmlns:inkscape="http://www.inkscape.org/namespaces/inkscape"
   xmlns:sodipodi="http://sodipodi.sourceforge.net/DTD/sodipodi-0.dtd"
   xmlns:xlink="http://www.w3.org/1999/xlink"
   xmlns="http://www.w3.org/2000/svg"
   xmlns:svg="http://www.w3.org/2000/svg"
   xmlns:rdf="http://www.w3.org/1999/02/22-rdf-syntax-ns#"
   xmlns:cc="http://creativecommons.org/ns#"
   xmlns:dc="http://purl.org/dc/elements/1.1/">
  <metadata
     id="metadata77">
    <rdf:RDF>
      <cc:Work
         rdf:about="">
        <dc:format>image/svg+xml</dc:format>
        <dc:type
           rdf:resource="http://purl.org/dc/dcmitype/StillImage" />
      </cc:Work>
    </rdf:RDF>
  </metadata>
  <sodipodi:namedview
     pagecolor="#f5f7fa"
     bordercolor="#666666"
     borderopacity="1"
     objecttolerance="10"
     gridtolerance="10"
     guidetolerance="10"
     inkscape:pageopacity="0"
     inkscape:pageshadow="2"
     inkscape:window-width="1183"
     inkscape:window-height="669"
     id="namedview75"
     showgrid="false"
     inkscape:zoom="4.4470387"
     inkscape:cx="19.451146"
     inkscape:cy="25.635037"
     inkscape:window-x="80"
     inkscape:window-y="161"
     inkscape:window-maximized="0"
     inkscape:current-layer="g877"
     inkscape:document-rotation="0"
     inkscape:pagecheckerboard="0"
     inkscape:showpageshadow="2"
     inkscape:deskcolor="#d1d1d1" />
  <defs
     id="defs29">
    <filter
       style="color-interpolation-filters:sRGB"
       inkscape:label="Blur"
       id="filter1283"
       x="-0.082344266"
       y="-0.082344266"
       width="1.1646885"
       height="1.1646885">
      <feGaussianBlur
         stdDeviation="0.5 0.5"
         result="blur"
         id="feGaussianBlur1281" />
    </filter>
    <linearGradient
       inkscape:collect="always"
       xlink:href="#linearGradient1134-5"
       id="linearGradient1136"
       x1="14.971222"
       y1="14.703373"
       x2="2.0756054"
       y2="2.0069976"
       gradientUnits="userSpaceOnUse"
       gradientTransform="matrix(2.4106819,0,0,3.1438568,11.58952,5.3983817)" />
    <linearGradient
       inkscape:collect="always"
       id="linearGradient1134-5">
      <stop
         style="stop-color:#2e3440;stop-opacity:1;"
         offset="0"
         id="stop1130-3" />
      <stop
         style="stop-color:#4c566a;stop-opacity:1;"
         offset="1"
         id="stop1132-5" />
    </linearGradient>
    <linearGradient
       id="linearGradient1"
       inkscape:collect="always">
      <stop
         style="stop-color:#d8dee9;stop-opacity:1;"
         offset="0"
         id="stop1" />
      <stop
         style="stop-color:#eceff4;stop-opacity:1;"
         offset="1"
         id="stop2" />
    </linearGradient>
    <linearGradient
       inkscape:collect="always"
       xlink:href="#linearGradient1"
       id="linearGradient42"
       x1="43.868488"
       y1="40.402885"
       x2="23.575247"
       y2="22.004536"
       gradientUnits="userSpaceOnUse"
       gradientTransform="matrix(0.9,0,0,0.9,3.280195,3.0794859)" />
  </defs>
  <g
     id="g877"
     transform="matrix(1.1,0,0,1.1,-3.1845928,-3.2065454)">
    <path
       style="fill:#f5f7fa;stroke-width:0.204426;fill-opacity:1"
       d=""
       id="path3" />
    <rect
       style="fill:#000000;stroke:none;stroke-width:0.539739;stroke-dasharray:none;filter:url(#filter1283)"
       id="rect246-1"
       width="14.572964"
       height="14.572964"
       x="1.1932471"
       y="1.2138842"
       rx="2.1589575"
       ry="2.1589575"
       transform="matrix(2.4606127,0,0,3.1451146,11.16612,5.3876877)" />
    <rect
       style="fill:#2b323e;stroke:#ace3ff;stroke-width:1.63561;stroke-dasharray:none;fill-opacity:1;stroke-opacity:1"
       id="rect246"
       width="35.155312"
       height="44.93494"
       x="14.453793"
       y="9.6548424"
       rx="5.2081943"
       ry="5.181818" />
    <rect
       style="fill:url(#linearGradient1136);fill-opacity:1;stroke:none;stroke-width:1.31679;stroke-dasharray:none"
       id="rect246-5"
       width="31.13278"
       height="40.601383"
       x="16.465055"
       y="11.821622"
       rx="3.1818182"
       ry="3.1725934" />
    <path
       d="m 36.006971,34.477516 c 0,0 0.847554,0.255519 1.340186,0.505146 0.170824,0.0869 0.466117,0.258463 0.679663,0.485263 0.209139,0.221644 0.310746,0.446973 0.310746,0.446973 l 3.086836,4.799614 h -7.202376 l -1.392464,-3.639105 c 0,0 -0.516928,-0.888791 -0.835036,-1.146519 -0.265093,-0.214281 -0.378492,-0.290865 -0.640637,-0.290865 h -1.283482 l 7.36e-4,5.073543 h -5.891645 l 0.0014,-16.199997 h 9.469636 c 1.104545,0 6.709012,0.5427 6.709012,4.699472 0,4.157509 -4.352648,5.264265 -4.352648,5.264265 z M 30.07188,27.45997 v 4.41671 h 2.334272 c 0,0 1.771691,0 1.906446,-2.161228 C 34.45398,27.45997 32.405416,27.46218 32.405416,27.46218 Z"
       fill="#3f51b5"
       fill-rule="evenodd"
       stroke-width="1.47272"
       id="path5-3-3"
       style="fill:#000000;opacity:0.3" />
    <path
       d="m 36.006971,32.659334 c 0,0 0.847554,0.255519 1.340186,0.505146 0.170824,0.0869 0.466117,0.258463 0.679663,0.485263 0.209139,0.221644 0.310746,0.446973 0.310746,0.446973 l 3.086836,4.799614 h -7.202376 l -1.392464,-3.639105 c 0,0 -0.516928,-0.888791 -0.835036,-1.146519 -0.265093,-0.214281 -0.378492,-0.290865 -0.640637,-0.290865 h -1.283482 l 7.36e-4,5.073543 h -5.891645 l 0.0014,-16.199997 h 9.469636 c 1.104545,0 6.709012,0.5427 6.709012,4.699472 0,4.157509 -4.352648,5.264265 -4.352648,5.264265 z M 30.07188,25.641788 v 4.41671 h 2.334272 c 0,0 1.771691,0 1.906446,-2.161228 0.141382,-2.255482 -1.907182,-2.253272 -1.907182,-2.253272 z"
       fill="#3f51b5"
       fill-rule="evenodd"
       stroke-width="1.47272"
       id="path5-3"
       style="fill:url(#linearGradient42)" />
  </g>
</svg>
