<?xml version="1.0" encoding="UTF-8" standalone="no"?>
<svg
   viewBox="0 0 22 22"
   version="1.1"
   id="svg1"
   sodipodi:docname="compass.svg"
   inkscape:version="1.4.2 (unknown)"
   xmlns:inkscape="http://www.inkscape.org/namespaces/inkscape"
   xmlns:sodipodi="http://sodipodi.sourceforge.net/DTD/sodipodi-0.dtd"
   xmlns:xlink="http://www.w3.org/1999/xlink"
   xmlns="http://www.w3.org/2000/svg"
   xmlns:svg="http://www.w3.org/2000/svg">
  <sodipodi:namedview
     id="namedview1"
     pagecolor="#ffffff"
     bordercolor="#000000"
     borderopacity="0.25"
     inkscape:showpageshadow="2"
     inkscape:pageopacity="0.0"
     inkscape:pagecheckerboard="0"
     inkscape:deskcolor="#d1d1d1"
     inkscape:zoom="35.136364"
     inkscape:cx="10.98577"
     inkscape:cy="11"
     inkscape:window-width="1920"
     inkscape:window-height="998"
     inkscape:window-x="0"
     inkscape:window-y="0"
     inkscape:window-maximized="1"
     inkscape:current-layer="svg1" />
  <defs
     id="defs3051">
    <linearGradient
       id="linearGradient1"
       inkscape:collect="always">
      <stop
         style="stop-color:#00d455;stop-opacity:1"
         offset="0"
         id="stop1" />
      <stop
         style="stop-color:#8d5fd3;stop-opacity:1"
         offset="1"
         id="stop2" />
    </linearGradient>
    <style
       type="text/css"
       id="current-color-scheme">.ColorScheme-Text { color: #fcfcfc; } </style>
    <linearGradient
       inkscape:collect="always"
       xlink:href="#linearGradient1"
       id="linearGradient2"
       x1="4.9072995"
       y1="17.624123"
       x2="13.539456"
       y2="8.2677879"
       gradientUnits="userSpaceOnUse" />
  </defs>
  <path
     style="fill:url(#linearGradient2);fill-opacity:1;stroke:none"
     d="M 11 11 m -9 0 a 8 8 0 1 0 18 0 a 8 8 0 1 0 -18 0 z M 11 11 m -8 0 a 7 7 0 1 1 16 0 a 7 7 0 1 1 -16 0 z M 16.4 5.6 L 9.4 9.4 L 5.6 16.4 L 12.6 12.6 z M 11 11 m -1 0 a 0.5 0.5 0 1 1 2 0 a 0.5 0.5 0 1 1 -2 0 z M 2.5 11 L 2.5 12 L 5 11 z M 11 2.5 L 10 2.5 L 11 5 z M 19.5 11 L 19.5 10 L 17 11 z M 11 19.5 L 12 19.5 L 11 17 z"
     class="ColorScheme-Text"
     id="path1" />
</svg>
