<?xml version="1.0" encoding="UTF-8" standalone="no"?>
<svg
   width="16"
   height="16"
   viewBox="0 0 16 16"
   version="1.1"
   id="svg7"
   sodipodi:docname="jwm-logo.svg"
   inkscape:version="1.2.2 (b0a8486541, 2022-12-01)"
   xmlns:inkscape="http://www.inkscape.org/namespaces/inkscape"
   xmlns:sodipodi="http://sodipodi.sourceforge.net/DTD/sodipodi-0.dtd"
   xmlns="http://www.w3.org/2000/svg"
   xmlns:svg="http://www.w3.org/2000/svg">
  <defs
     id="defs11" />
  <sodipodi:namedview
     id="namedview9"
     pagecolor="#ffffff"
     bordercolor="#000000"
     borderopacity="0.25"
     inkscape:showpageshadow="2"
     inkscape:pageopacity="0.0"
     inkscape:pagecheckerboard="0"
     inkscape:deskcolor="#d1d1d1"
     showgrid="false"
     inkscape:zoom="14.75"
     inkscape:cx="8"
     inkscape:cy="8.0338983"
     inkscape:window-width="1432"
     inkscape:window-height="844"
     inkscape:window-x="0"
     inkscape:window-y="0"
     inkscape:window-maximized="1"
     inkscape:current-layer="svg7" />
  <g
     id="surface1"
     style="fill:#cccccc">
    <path
       style="stroke:none;fill-rule:nonzero;fill:#cccccc;fill-opacity:1"
       d="M 2 10 C 2 10.921875 2.449219 11.667969 3 11.667969 C 3.550781 11.667969 4 10.921875 4 10 L 4 0 L 7 8 L 8 0 L 11 8 L 12 0 L 14 0 L 12 16 L 9 8 L 8 16 L 6 12 C 6.550781 13.472656 5.804688 15.113281 4.332031 15.667969 C 2.859375 16.21875 1.21875 15.472656 0.667969 14 "
       id="path2" />
    <path
       style="fill-rule:nonzero;fill:#cccccc;fill-opacity:1;stroke-width:1;stroke-linecap:butt;stroke-linejoin:miter;stroke:rgb(0%, 0%, 0%);stroke-opacity:1;stroke-miterlimit:4"
       d="M 24 0 L 36 0 L 48 48 L 36 48 Z M 48 0 L 60 0 L 72 48 L 60 48 Z M 72 0 L 84 0 L 96 48 L 84 48 Z M 72 0 "
       transform="matrix(0.166667,0,0,0.333333,0,0)"
       id="path4" />
  </g>
</svg>
