<?xml version="1.0" encoding="UTF-8" standalone="no"?>
<svg
   width="64"
   height="64"
   version="1.1"
   viewBox="0 0 16.933 16.933"
   id="svg56"
   sodipodi:docname="folder-videos.svg"
   inkscape:version="1.3.2 (091e20ef0f, 2023-11-25)"
   xmlns:inkscape="http://www.inkscape.org/namespaces/inkscape"
   xmlns:sodipodi="http://sodipodi.sourceforge.net/DTD/sodipodi-0.dtd"
   xmlns="http://www.w3.org/2000/svg"
   xmlns:svg="http://www.w3.org/2000/svg"
   xmlns:rdf="http://www.w3.org/1999/02/22-rdf-syntax-ns#"
   xmlns:cc="http://creativecommons.org/ns#"
   xmlns:dc="http://purl.org/dc/elements/1.1/">
  <sodipodi:namedview
     pagecolor="#ffffff"
     bordercolor="#666666"
     borderopacity="1"
     objecttolerance="10"
     gridtolerance="10"
     guidetolerance="10"
     inkscape:pageopacity="0"
     inkscape:pageshadow="2"
     inkscape:window-width="1502"
     inkscape:window-height="836"
     id="namedview58"
     showgrid="false"
     inkscape:zoom="6.4453125"
     inkscape:cx="35.29697"
     inkscape:cy="31.107879"
     inkscape:window-x="227"
     inkscape:window-y="150"
     inkscape:window-maximized="0"
     inkscape:current-layer="svg56"
     inkscape:document-rotation="0"
     inkscape:pagecheckerboard="0"
     inkscape:showpageshadow="0"
     inkscape:deskcolor="#d1d1d1" />
  <defs
     id="defs18">
    <inkscape:path-effect
       effect="powerclip"
       id="path-effect51"
       is_visible="true"
       lpeversion="1"
       inverse="true"
       flatten="false"
       hide_clip="false"
       message="Use fill-rule evenodd on &lt;b&gt;fill and stroke&lt;/b&gt; dialog if no flatten result after convert clip to paths." />
    <clipPath
       clipPathUnits="userSpaceOnUse"
       id="clipPath46">
      <rect
         x="0.97311002"
         y="4.6963"
         width="14.987"
         height="9.9216995"
         ry="0.29919001"
         fill="#fffffc"
         id="rect49"
         style="display:none;opacity:0.85;fill:#f2f2f2;stroke-width:0.999999" />
      <path
         id="lpe_path-effect51"
         style="opacity:0.85;fill:#f2f2f2;stroke-width:0.999999"
         class="powerclip"
         d="M -4.4709,-2.221974 H 21.40339 V 20.0813 H -4.4709 Z M 1.2723,4.6963 c -0.1657512,0 -0.29918998,0.1334388 -0.29918998,0.29919 v 9.32332 c 0,0.165751 0.13343878,0.29919 0.29918998,0.29919 h 14.38862 c 0.165752,0 0.29919,-0.133439 0.29919,-0.29919 V 4.99549 c 0,-0.1657512 -0.133438,-0.29919 -0.29919,-0.29919 z" />
    </clipPath>
  </defs>
  <metadata
     id="metadata20">
    <rdf:RDF>
      <cc:Work
         rdf:about="">
        <dc:format>image/svg+xml</dc:format>
        <dc:type
           rdf:resource="http://purl.org/dc/dcmitype/StillImage" />
        <dc:title />
      </cc:Work>
    </rdf:RDF>
  </metadata>
  <g
     fill="#5e4aa6"
     stroke-width="0.26458"
     id="g30"
     transform="translate(0,1.5874687)">
    <circle
       cx="-330.35001"
       cy="-328.38"
       r="0"
       id="circle22" />
    <circle
       cx="-312.10999"
       cy="-326.25"
       r="0"
       id="circle24" />
    <circle
       cx="-306.01999"
       cy="-333.07001"
       r="0"
       id="circle26" />
    <circle
       cx="-308.84"
       cy="-326.01001"
       r="0"
       id="circle28" />
  </g>
  <g
     transform="translate(2.95e-4,1.5871389)"
     fill="#5e4aa6"
     stroke-width="0.26458"
     id="g42">
    <circle
       cx="-330.35001"
       cy="-328.38"
       r="0"
       id="circle32" />
    <circle
       cx="-312.10999"
       cy="-326.25"
       r="0"
       id="circle34" />
    <circle
       cx="-306.01999"
       cy="-333.07001"
       r="0"
       id="circle36" />
    <circle
       cx="-308.84"
       cy="-326.01001"
       r="0"
       id="circle38" />
    <circle
       cx="-328.79999"
       cy="-330.45001"
       r="0"
       id="circle40" />
  </g>
  <g
     transform="translate(2.95e-4,-3.297e-4)"
     id="g52"
     style="fill:#4d4d4d;fill-opacity:1">
    <g
       id="g44"
       clip-path="url(#clipPath46)"
       inkscape:path-effect="#path-effect51"
       style="fill:#4d4d4d;fill-opacity:1">
      <g
         transform="matrix(1,0,0,1.1,16.669,63.956)"
         fill="url(#linearGradient939)"
         stroke-width="0.66145"
         id="g46"
         style="fill:#4d4d4d;fill-opacity:1">
        <path
           d="m -8.2026,-51.317 h -7.9373 v -3.6379 c 0,-0.36531 0.29614,-0.66144 0.66144,-0.66144 h 5.6223 l 1.6536,1.3229 z"
           fill="url(#linearGradient939)"
           id="path44"
           style="fill:#4d4d4d;fill-opacity:1"
           inkscape:original-d="m -8.2026,-51.317 h -7.9373 v -3.6379 c 0,-0.36531 0.29614,-0.66144 0.66144,-0.66144 h 5.6223 l 1.6536,1.3229 z" />
      </g>
      <path
         x="0.52938998"
         y="4.2333002"
         width="15.874"
         height="10.848"
         ry="0.79373002"
         fill="url(#linearGradient1006)"
         id="rect48"
         style="fill:#4d4d4d;fill-opacity:1"
         sodipodi:type="rect"
         d="m 1.32312,4.2333002 h 14.28654 c 0.439726,0 0.79373,0.3540036 0.79373,0.79373 V 14.28757 c 0,0.439726 -0.354004,0.79373 -0.79373,0.79373 H 1.32312 c -0.43972643,0 -0.79373002,-0.354004 -0.79373002,-0.79373 V 5.0270302 c 0,-0.4397264 0.35400359,-0.79373 0.79373002,-0.79373 z" />
    </g>
  </g>
  <path
     d="M 15.742,7.1884505 H 8.4661 L 6.8125,8.2471678 H 1.1902 c -0.36531,0 -0.66144,0.2369964 -0.66144,0.5293514 v 5.7747098 c 0,0.292355 0.29614,0.529351 0.66144,0.529351 h 14.552 c 0.36531,0 0.66145,-0.236996 0.66145,-0.529351 V 7.7177292 c 0,-0.292355 -0.29614,-0.5293514 -0.66145,-0.5293514 z"
     fill="url(#linearGradient1064)"
     stroke-width="0.591724"
     id="path54"
     style="fill:#77767b;fill-opacity:1" />
  <path
     style="opacity:1;fill:#f9f9f9;fill-opacity:1;stroke:none;stroke-width:0.155152;stroke-opacity:1"
     d="m 3.8012121,24.757928 v -6.349952 l 0.4104149,-0.322832 0.4104148,-0.322832 27.5305742,0.04006 27.530574,0.04006 0.296588,0.366279 c 0.276025,0.340887 0.296587,0.663572 0.296598,4.654546 l 1.2e-5,4.288266 -14.14339,-0.04042 -14.14339,-0.04042 -3.158136,2.018598 -3.158133,2.018598 H 14.737275 3.8012121 Z"
     id="path59"
     transform="scale(0.26457812)" />
</svg>
