<?xml version="1.0" encoding="UTF-8" standalone="no"?>
<svg
   width="16"
   height="16"
   version="1.1"
   id="svg1"
   sodipodi:docname="folder-gitlab.svg"
   inkscape:version="1.4.2 (unknown)"
   xmlns:inkscape="http://www.inkscape.org/namespaces/inkscape"
   xmlns:sodipodi="http://sodipodi.sourceforge.net/DTD/sodipodi-0.dtd"
   xmlns="http://www.w3.org/2000/svg"
   xmlns:svg="http://www.w3.org/2000/svg">
  <sodipodi:namedview
     id="namedview1"
     pagecolor="#ffffff"
     bordercolor="#000000"
     borderopacity="0.25"
     inkscape:showpageshadow="2"
     inkscape:pageopacity="0.0"
     inkscape:pagecheckerboard="0"
     inkscape:deskcolor="#d1d1d1"
     inkscape:zoom="35.227273"
     inkscape:cx="11"
     inkscape:cy="11"
     inkscape:window-width="1920"
     inkscape:window-height="998"
     inkscape:window-x="0"
     inkscape:window-y="0"
     inkscape:window-maximized="1"
     inkscape:current-layer="svg1" />
  <defs
     id="defs1">
    <style
       id="current-color-scheme"
       type="text/css">.ColorScheme-Text { color:#dedede; } .ColorScheme-Highlight { color:#5294e2; }</style>
  </defs>
  <path
     class="ColorScheme-Text"
     d="m 3.706157,2.0008228 c -0.1047338,0 -0.2103153,0.05637 -0.2494271,0.1707508 L 1.9367655,6.2862707 H 5.4756358 L 3.9539562,2.1715736 C 3.9148297,2.0571969 3.8109342,2.0008228 3.7062007,2.0008228 Z M 5.4755499,6.2862623 7.9999961,14 10.524448,6.2862623 Z m 5.0488021,0 h 3.53888 L 12.54326,2.171565 c -0.07826,-0.2287533 -0.418918,-0.2287533 -0.497187,0 z m 3.53888,0 L 7.9999961,14 14.640769,9.4166198 c 0.183249,-0.1264281 0.260812,-0.351161 0.190839,-0.55576 z M 7.9999961,14 1.9367655,6.2862623 1.1683912,8.8608506 c -0.069982,0.2045997 0.00762,0.4293331 0.1908334,0.5557605 z"
     fill="currentColor"
     id="path1"
     style="stroke-width:0.857136" />
</svg>
