<?xml version="1.0" encoding="UTF-8" standalone="no"?>
<svg
   width="16"
   height="16"
   version="1.1"
   id="svg1"
   sodipodi:docname="folder-applications.svg"
   inkscape:version="1.4.2 (unknown)"
   xmlns:inkscape="http://www.inkscape.org/namespaces/inkscape"
   xmlns:sodipodi="http://sodipodi.sourceforge.net/DTD/sodipodi-0.dtd"
   xmlns="http://www.w3.org/2000/svg"
   xmlns:svg="http://www.w3.org/2000/svg">
  <sodipodi:namedview
     id="namedview1"
     pagecolor="#ffffff"
     bordercolor="#000000"
     borderopacity="0.25"
     inkscape:showpageshadow="2"
     inkscape:pageopacity="0.0"
     inkscape:pagecheckerboard="0"
     inkscape:deskcolor="#d1d1d1"
     inkscape:zoom="48.4375"
     inkscape:cx="8"
     inkscape:cy="8"
     inkscape:window-width="1920"
     inkscape:window-height="998"
     inkscape:window-x="0"
     inkscape:window-y="0"
     inkscape:window-maximized="1"
     inkscape:current-layer="svg1" />
  <defs
     id="defs1">
    <style
       id="current-color-scheme"
       type="text/css">
   .ColorScheme-Text { color:#dfdfdf; } .ColorScheme-Highlight { color:#4285f4; } .ColorScheme-NeutralText { color:#ff9800; } .ColorScheme-PositiveText { color:#4caf50; } .ColorScheme-NegativeText { color:#f44336; }
  </style>
  </defs>
  <path
     style="fill:currentColor;stroke-width:0.75"
     class="ColorScheme-Text"
     d="m 3.4994301,2 c -0.831,0 -1.5,0.669 -1.5,1.5 v 2.25 c 0,0.831 0.669,1.5 1.5,1.5 h 2.25 c 0.831,0 1.5,-0.669 1.5,-1.5 V 3.5 c 0,-0.831 -0.669,-1.5 -1.5,-1.5 z M 10.24943,2 C 9.4184301,2 8.7494301,2.669 8.7494301,3.5 v 2.25 c 0,0.831 0.669,1.5 1.4999999,1.5 h 2.25 c 0.831,0 1.5,-0.669 1.5,-1.5 V 3.5 c 0,-0.831 -0.669,-1.5 -1.5,-1.5 z M 3.4994301,8.75 c -0.831,0 -1.5,0.669 -1.5,1.5 v 2.25 c 0,0.831 0.669,1.5 1.5,1.5 h 2.25 c 0.831,0 1.5,-0.669 1.5,-1.5 v -2.25 c 0,-0.831 -0.669,-1.5 -1.5,-1.5 z m 7.4999999,0 c -0.415499,0 -0.75,0.3345 -0.75,0.75 v 0.75 H 9.4994301 c -0.6358964,3.09e-4 -0.982951,0.742107 -0.5756836,1.230468 l 1.8749975,2.250001 c 0.299845,0.358997 0.851528,0.358997 1.151372,0 l 1.874996,-2.250001 C 14.232379,10.992107 13.885335,10.250309 13.24943,10.25 h -0.75 V 9.5 c 0,-0.4155 -0.334499,-0.75 -0.75,-0.75 z"
     id="path1" />
</svg>
