/* XPM */
static char * maximize_toggled_prelight_xpm[] = {
"20 24 51 1",
" 	c #455D7C",
".	c #98B9E2",
"+	c #97B8E1",
"@	c #86ABD9",
"#	c #82A8D7",
"$	c #95B7E1",
"%	c #84A9D8",
"&	c #729BCD",
"*	c #48668A",
"=	c #7099CC",
"-	c #8BAFDC",
";	c #B2CCED",
">	c #7EA4D4",
",	c #B0C9E9",
"'	c #8DADD6",
")	c #7FA5D5",
"!	c #9EBDE5",
"~	c #AEC9E9",
"{	c #9EBCE1",
"]	c #81A7D6",
"^	c #ADC7E8",
"/	c #ABC5E7",
"(	c #4E76A8",
"_	c #84A9D7",
":	c #A9C5E6",
"<	c #E1EAF6",
"[	c #85AAD8",
"}	c #A8C3E5",
"|	c #A6C2E5",
"1	c #88ACDA",
"2	c #9DBBE0",
"3	c #89AEDB",
"4	c #9CB9DF",
"5	c #8BAFDB",
"6	c #99B8DE",
"7	c #8CB0DC",
"8	c #98B7DD",
"9	c #8EB1DD",
"0	c #96B5DC",
"a	c #8FB2DE",
"b	c #95B4DB",
"c	c #91B3DF",
"d	c #93B2D9",
"e	c #88ADDB",
"f	c #8DB1DD",
"g	c #83A5CF",
"h	c #90B1D9",
"i	c #7CA3D3",
"j	c #7BA2D2",
"k	c #94B6E1",
"l	c #79A1D1",
"                    ",
"....................",
"++@##############@++",
"$%&**************&%$",
"%=*-;;;;;;;;;;;;-*=%",
">*@,,,,,,,,,,,,,,'*>",
")*!~~~~~~~~~~~~~~{*)",
"]*!^^^^^^^^^^^^^^{*]",
"#*!///((((((((///{*#",
"_*!:::(<<<<<<(:::{*_",
"[*!}}}(<<<<<<(}}}{*[",
"@*!|||(<((((<(|||{*@",
"1*!222(<(22(<(222{*1",
"3*!444(<((((<(444{*3",
"5*!666(<<<<<<(666{*5",
"7*!888((((((((888{*7",
"9*!00000000000000{*9",
"a*!bbbbbbbbbbbbbb{*a",
"c*@dddddddddddddd'*c",
"ef*ghhhhhhhhhhhhg*fe",
"i@-**************-@i",
"jjfkkkkkkkkkkkkkkfjj",
"llllllllllllllllllll",
"(((((((((((((((((((("};
