<?xml version="1.0" encoding="UTF-8" standalone="no"?>
<svg
   width="64"
   height="64"
   version="1.1"
   viewBox="0 0 16.933 16.933"
   id="svg7"
   sodipodi:docname="applications-development.svg"
   inkscape:version="1.4 (e7c3feb100, 2024-10-09)"
   xmlns:inkscape="http://www.inkscape.org/namespaces/inkscape"
   xmlns:sodipodi="http://sodipodi.sourceforge.net/DTD/sodipodi-0.dtd"
   xmlns="http://www.w3.org/2000/svg"
   xmlns:svg="http://www.w3.org/2000/svg"
   xmlns:rdf="http://www.w3.org/1999/02/22-rdf-syntax-ns#"
   xmlns:cc="http://creativecommons.org/ns#"
   xmlns:dc="http://purl.org/dc/elements/1.1/">
  <sodipodi:namedview
     id="namedview7"
     pagecolor="#9c4444"
     bordercolor="#000000"
     borderopacity="0.25"
     inkscape:showpageshadow="2"
     inkscape:pageopacity="0.0"
     inkscape:pagecheckerboard="0"
     inkscape:deskcolor="#d1d1d1"
     inkscape:zoom="6.15625"
     inkscape:cx="15.837563"
     inkscape:cy="29.725888"
     inkscape:window-width="1183"
     inkscape:window-height="941"
     inkscape:window-x="35"
     inkscape:window-y="32"
     inkscape:window-maximized="0"
     inkscape:current-layer="svg7"
     showgrid="false" />
  <defs
     id="defs2">
    <rect
       x="67.489848"
       y="35.60533"
       width="15.337563"
       height="22.51269"
       id="rect3808" />
    <filter
       style="color-interpolation-filters:sRGB;"
       inkscape:label="Blur"
       id="filter1283"
       x="-0.082344266"
       y="-0.082344266"
       width="1.1646885"
       height="1.1646885">
      <feGaussianBlur
         stdDeviation="0.5 0.5"
         result="blur"
         id="feGaussianBlur1281" />
    </filter>
    <filter
       style="color-interpolation-filters:sRGB;"
       inkscape:label="Blur"
       id="filter1694"
       x="-0.94955398"
       y="-0.2118907"
       width="2.899108"
       height="1.4237814">
      <feGaussianBlur
         stdDeviation="0.2 0.2"
         result="blur"
         id="feGaussianBlur1692" />
    </filter>
    <filter
       style="color-interpolation-filters:sRGB;"
       inkscape:label="Blur"
       id="filter3148"
       x="-0.94955398"
       y="-0.2118907"
       width="2.899108"
       height="1.4237814">
      <feGaussianBlur
         stdDeviation="0.2 0.2"
         result="blur"
         id="feGaussianBlur3146" />
    </filter>
    <clipPath
       clipPathUnits="userSpaceOnUse"
       id="clipPath44">
      <path
         id="path46"
         style="display:block;opacity:0.85;fill:#f2f2f2;stroke-width:4.39162"
         d="m 17.570312,8.4453125 a 6.5431988,7.4283052 9.9958727e-8 0 0 -6.535156,7.4394535 6.5431988,7.4283052 9.9958727e-8 0 0 6.552735,7.417968 6.5431988,7.4283052 9.9958727e-8 0 0 6.535156,-7.4375 6.5431988,7.4283052 9.9958727e-8 0 0 -6.552735,-7.4199215 z M 45.646484,41.177734 a 6.5431986,7.0703472 2.4665357e-6 0 0 -6.533203,7.080078 6.5431986,7.0703472 2.4665357e-6 0 0 6.550781,7.060547 6.5431986,7.0703472 2.4665357e-6 0 0 6.535157,-7.080078 6.5431986,7.0703472 2.4665357e-6 0 0 -6.552735,-7.060547 z" />
    </clipPath>
    <inkscape:path-effect
       effect="powerclip"
       id="path-effect48"
       is_visible="true"
       lpeversion="1"
       inverse="true"
       flatten="false"
       hide_clip="false"
       message="" />
  </defs>
  <metadata
     id="metadata2">
    <rdf:RDF>
      <cc:Work
         rdf:about="">
        <dc:format>image/svg+xml</dc:format>
        <dc:type
           rdf:resource="http://purl.org/dc/dcmitype/StillImage" />
      </cc:Work>
    </rdf:RDF>
  </metadata>
  <path
     style="color:#000000;clip-rule:nonzero;display:inline;overflow:visible;visibility:visible;isolation:auto;mix-blend-mode:normal;color-interpolation:sRGB;color-interpolation-filters:linearRGB;solid-color:#000000;solid-opacity:1;fill:#f9f9f9;fill-opacity:1;fill-rule:nonzero;stroke:none;stroke-width:0.487769;stroke-linecap:butt;stroke-linejoin:miter;stroke-miterlimit:4;stroke-dasharray:none;stroke-dashoffset:0;stroke-opacity:0.3;marker:none;color-rendering:auto;image-rendering:auto;shape-rendering:auto;text-rendering:auto;enable-background:accumulate"
     d="m 7.4625553,1.0515355 c -0.1868481,0 -0.3425524,0.7433998 -0.4339506,1.8058229 A 5.7102859,5.8822414 0 0 0 5.6486877,3.4547741 C 4.8515583,2.7665803 4.2288863,2.3511607 4.0964064,2.4876293 L 2.6272648,4.0010116 C 2.4947859,4.1374803 2.8980621,4.7789042 3.5661366,5.6000366 A 5.7102859,5.8822414 0 0 0 2.9912548,7.0215093 C 1.9570011,7.1155689 1.2331526,7.2757311 1.2331526,7.4685264 v 2.1389974 c 0,0.1924723 0.721668,0.3528671 1.7530335,0.4470172 a 5.7102859,5.8822414 0 0 0 0.577923,1.424603 c -0.6665564,0.819665 -1.0691638,1.45959 -0.9368443,1.595896 l 1.4691416,1.513381 c 0.1321946,0.136184 0.7526315,-0.277562 1.5472117,-0.962965 a 5.7102859,5.8822414 0 0 0 1.3849866,0.588013 c 0.09131,1.065401 0.2467911,1.811048 0.4339506,1.811048 h 2.0764669 c 0.1868481,0 0.342552,-0.743401 0.4339507,-1.805825 a 5.7102859,5.8822414 0 0 0 1.3799161,-0.597416 c 0.797128,0.688193 1.419804,1.103614 1.552282,0.967145 l 1.469143,-1.513381 c 0.132485,-0.136456 -0.270797,-0.777892 -0.938877,-1.599026 a 5.7102859,5.8822414 0 0 0 0.574887,-1.421473 c 1.034251,-0.09406 1.758101,-0.2542216 1.758101,-0.4470174 V 7.4685264 c 0,-0.1924722 -0.721668,-0.352867 -1.753033,-0.4470171 A 5.7102859,5.8822414 0 0 0 13.437465,5.5969038 C 14.104025,4.777242 14.506632,4.137316 14.374314,4.0010116 L 12.905171,2.4876293 C 12.772975,2.3514543 12.152539,2.7651934 11.357957,3.4505959 A 5.7102859,5.8822414 0 0 0 9.9729729,2.8625807 C 9.8816618,1.7971819 9.726182,1.0515355 9.5390222,1.0515355 Z M 8.5007886,5.8642782 A 2.5955844,2.6737463 0 0 1 11.096372,8.5380254 2.5955844,2.6737463 0 0 1 8.5007886,11.211771 2.5955844,2.6737463 0 0 1 5.9052043,8.5380254 2.5955844,2.6737463 0 0 1 8.5007886,5.8642782 Z"
     id="path4690"
     inkscape:connector-curvature="0" />
  <g
     fill="#474747"
     id="g9"
     transform="matrix(0.46959567,0,0,0.46959567,4.7471229,3.7470598)"
     style="fill:#999999;fill-opacity:1;stroke:none;stroke-width:0.58349;stroke-dasharray:none;stroke-opacity:0.3" />
  <text
     xml:space="preserve"
     transform="scale(0.26457812)"
     id="text3806"
     style="font-size:6.66667px;white-space:pre;shape-inside:url(#rect3808);display:inline;fill:#999999;stroke-width:2" />
</svg>
