<?xml version="1.0" encoding="UTF-8" standalone="no"?>
<svg
   width="64"
   height="64"
   version="1.1"
   viewBox="0 0 16.933 16.933"
   id="svg7"
   sodipodi:docname="preferences-system.svg"
   inkscape:version="1.4 (e7c3feb100, 2024-10-09)"
   xmlns:inkscape="http://www.inkscape.org/namespaces/inkscape"
   xmlns:sodipodi="http://sodipodi.sourceforge.net/DTD/sodipodi-0.dtd"
   xmlns="http://www.w3.org/2000/svg"
   xmlns:svg="http://www.w3.org/2000/svg"
   xmlns:rdf="http://www.w3.org/1999/02/22-rdf-syntax-ns#"
   xmlns:cc="http://creativecommons.org/ns#"
   xmlns:dc="http://purl.org/dc/elements/1.1/">
  <sodipodi:namedview
     id="namedview7"
     pagecolor="#9c4444"
     bordercolor="#000000"
     borderopacity="0.25"
     inkscape:showpageshadow="2"
     inkscape:pageopacity="0.0"
     inkscape:pagecheckerboard="0"
     inkscape:deskcolor="#d1d1d1"
     inkscape:zoom="6.15625"
     inkscape:cx="36.467005"
     inkscape:cy="29.725888"
     inkscape:window-width="1183"
     inkscape:window-height="941"
     inkscape:window-x="35"
     inkscape:window-y="32"
     inkscape:window-maximized="0"
     inkscape:current-layer="svg7"
     showgrid="false" />
  <defs
     id="defs2">
    <rect
       x="67.489848"
       y="35.60533"
       width="15.337563"
       height="22.51269"
       id="rect3808" />
    <filter
       style="color-interpolation-filters:sRGB;"
       inkscape:label="Blur"
       id="filter1283"
       x="-0.082344266"
       y="-0.082344266"
       width="1.1646885"
       height="1.1646885">
      <feGaussianBlur
         stdDeviation="0.5 0.5"
         result="blur"
         id="feGaussianBlur1281" />
    </filter>
    <filter
       style="color-interpolation-filters:sRGB;"
       inkscape:label="Blur"
       id="filter1694"
       x="-0.94955398"
       y="-0.2118907"
       width="2.899108"
       height="1.4237814">
      <feGaussianBlur
         stdDeviation="0.2 0.2"
         result="blur"
         id="feGaussianBlur1692" />
    </filter>
    <filter
       style="color-interpolation-filters:sRGB;"
       inkscape:label="Blur"
       id="filter3148"
       x="-0.94955398"
       y="-0.2118907"
       width="2.899108"
       height="1.4237814">
      <feGaussianBlur
         stdDeviation="0.2 0.2"
         result="blur"
         id="feGaussianBlur3146" />
    </filter>
    <clipPath
       clipPathUnits="userSpaceOnUse"
       id="clipPath44">
      <path
         id="path46"
         style="display:block;opacity:0.85;fill:#f2f2f2;stroke-width:4.39162"
         d="m 17.570312,8.4453125 a 6.5431988,7.4283052 9.9958727e-8 0 0 -6.535156,7.4394535 6.5431988,7.4283052 9.9958727e-8 0 0 6.552735,7.417968 6.5431988,7.4283052 9.9958727e-8 0 0 6.535156,-7.4375 6.5431988,7.4283052 9.9958727e-8 0 0 -6.552735,-7.4199215 z M 45.646484,41.177734 a 6.5431986,7.0703472 2.4665357e-6 0 0 -6.533203,7.080078 6.5431986,7.0703472 2.4665357e-6 0 0 6.550781,7.060547 6.5431986,7.0703472 2.4665357e-6 0 0 6.535157,-7.080078 6.5431986,7.0703472 2.4665357e-6 0 0 -6.552735,-7.060547 z" />
    </clipPath>
    <inkscape:path-effect
       effect="powerclip"
       id="path-effect48"
       is_visible="true"
       lpeversion="1"
       inverse="true"
       flatten="false"
       hide_clip="false"
       message="" />
  </defs>
  <metadata
     id="metadata2">
    <rdf:RDF>
      <cc:Work
         rdf:about="">
        <dc:format>image/svg+xml</dc:format>
        <dc:type
           rdf:resource="http://purl.org/dc/dcmitype/StillImage" />
      </cc:Work>
    </rdf:RDF>
  </metadata>
  <path
     id="path1"
     style="fill:#f9f9f9;stroke-width:0.014435;stroke-opacity:0.6"
     d="M 10.441076,2.9075901 C 8.9405594,2.9030808 6.8228272,2.9097517 5.7351513,2.9232995 3.794673,2.9474732 3.7537789,2.9496021 3.555482,3.0136277 2.8808562,3.23145 2.3413628,3.7006656 2.0562231,4.3184841 1.8916045,4.6751717 1.8549478,4.8566161 1.8549478,5.3101351 c 0,0.4838166 0.038376,0.6522598 0.2434945,1.0682342 0.3518758,0.7135915 1.042958,1.208388 1.8321,1.3107469 0.1174314,0.0152 2.0708264,0.02053 4.6627245,0.012768 4.8964582,-0.014668 4.6974092,-0.00711 5.1359682,-0.1894946 0.572246,-0.237983 1.064656,-0.7299555 1.290127,-1.2881649 0.135926,-0.336535 0.168853,-0.517065 0.168872,-0.9288136 1.9e-5,-0.4324554 -0.03585,-0.6071798 -0.201275,-0.9720148 -0.304948,-0.6725335 -0.855317,-1.1359545 -1.59842,-1.346096 -0.216205,-0.06114 -0.256781,-0.061617 -2.947463,-0.06971 z m 1.974467,0.822776 c 0.50171,0.00187 0.90418,0.1670252 1.244964,0.5105531 0.31277,0.3152889 0.446733,0.6358552 0.446733,1.0692159 0,0.4254915 -0.147155,0.77161 -0.46048,1.0829618 -0.221863,0.2204648 -0.459971,0.3549915 -0.768774,0.4339699 -0.264172,0.067566 -0.664137,0.072016 -0.917033,0.010792 C 11.4316,6.7097316 10.97624,6.3173312 10.786681,5.8255971 10.707268,5.6195893 10.680072,5.2324029 10.728753,4.9979121 10.822348,4.5470676 11.164616,4.122946 11.601602,3.9149505 11.906204,3.7699672 12.085823,3.729159 12.415543,3.7303661 Z M 8.5746116,9.7136557 C 3.5939129,9.7134366 3.7871009,9.707467 3.3542066,9.870749 3.0766255,9.9754491 2.7667783,10.174644 2.5510669,10.387193 c -1.057502,1.041999 -0.894129,2.797709 0.335787,3.609217 0.377822,0.249289 0.6718921,0.354659 1.087871,0.389788 0.196146,0.01653 5.5333108,0.01387 8.2415041,-0.004 l 1.097689,-0.0068 0.273933,-0.09525 c 0.352775,-0.122474 0.61802,-0.280905 0.871868,-0.52037 0.502364,-0.473907 0.744228,-1.02983 0.744228,-1.708389 0,-0.644994 -0.218872,-1.18147 -0.670592,-1.641625 C 14.210889,10.081288 13.850503,9.8768824 13.407193,9.7706019 13.175995,9.715174 13.048051,9.7138529 8.5746116,9.7136557 Z M 4.6345167,10.468685 c 0.044234,6.16e-4 0.088576,0.0028 0.1325478,0.0069 1.2622496,0.116903 1.9941533,1.221368 1.4845317,2.239561 -0.210136,0.419839 -0.6933829,0.775772 -1.194891,0.880705 -0.11115,0.02326 -0.3127489,0.04127 -0.4477158,0.04026 C 4.0694434,13.6321 3.6020052,13.440352 3.2619141,13.082323 2.7883934,12.58383 2.6910412,11.957208 2.9987827,11.379826 3.2907544,10.832032 3.9709869,10.45944 4.6345167,10.468685 Z" />
  <text
     xml:space="preserve"
     transform="scale(0.26457812)"
     id="text3806"
     style="fill:#999999;stroke-width:2;font-size:6.66666667px;white-space:pre;shape-inside:url(#rect3808)" />
</svg>
