/* XPM */
static char * maximize_inactive_xpm[] = {
"20 24 44 1",
" 	c #85827E",
".	c #F9F8F8",
"+	c #EAE9E8",
"@	c #DEDCDA",
"#	c #D9D7D5",
"$	c #E9E8E7",
"%	c #DBD9D8",
"&	c #D0CECB",
"*	c #918E8A",
"=	c #CECBC9",
"-	c #F2F1F0",
";	c #FFFFFF",
">	c #EDECEB",
",	c #E2E1DF",
"'	c #DCDAD8",
")	c #DDDBD9",
"!	c #FEFEFE",
"~	c #DDDBDA",
"{	c #6B6A6A",
"]	c #DEDDDB",
"^	c #FEFDFD",
"/	c #DFDDDC",
"(	c #FDFDFD",
"_	c #E0DEDD",
":	c #F7F7F6",
"<	c #E0DFDD",
"[	c #F5F4F4",
"}	c #E1DFDE",
"|	c #F3F2F1",
"1	c #E2E0DF",
"2	c #F0EFEF",
"3	c #EEEDEC",
"4	c #E3E1E0",
"5	c #ECEBEA",
"6	c #E4E2E1",
"7	c #EAE8E7",
"8	c #DFDDDB",
"9	c #D4D2D0",
"0	c #E7E5E4",
"a	c #D6D4D2",
"b	c #D5D3D1",
"c	c #E4E3E2",
"d	c #D5D2D0",
"e	c #9D9A96",
"                    ",
"....................",
"++@##############@++",
"$%&**************&%$",
"%=*-;;;;;;;;;;;;-*=%",
"%*>;;;;;;;;;;;;;;,*%",
"'*;;;;;;;;;;;;;;;.*'",
")*;!!!!!!!!!!!!!!.*)",
"~*;!!!{{{{{{{{!!!.*~",
"@*;!!!{{{{{{{{!!!.*@",
"]*;^^^{^^^^^^{^^^.*]",
"/*;((({(((((({(((.*/",
"_*;:::{::::::{:::.*_",
"<*;[[[{[[[[[[{[[[.*<",
"}*;|||{||||||{|||.*}",
"1*;222{{{{{{{{222.*1",
",*;33333333333333.*,",
"4*;55555555555555.*4",
"6*>77777777777777,*6",
"8,*90000000000009*,8",
"a@_**************_@a",
"bb}cccccccccccccc}bb",
"dddddddddddddddddddd",
"eeeeeeeeeeeeeeeeeeee"};
