<svg xmlns="http://www.w3.org/2000/svg" xmlns:xlink="http://www.w3.org/1999/xlink" width="64" height="64" viewBox="0 0 64 64" version="1.1"><defs><linearGradient id="linear0" x1="0%" x2="100%" y1="0%" y2="100%"><stop offset="0%" style="stop-color:#ff0000; stop-opacity:1"/><stop offset="50%" style="stop-color:#ffd000; stop-opacity:1"/><stop offset="100%" style="stop-color:#ff00bb; stop-opacity:1"/></linearGradient></defs><g id="surface1"><path style="fill-rule:nonzero;fill:url(#linear0);fill-opacity:1;stroke-width:82;stroke-linecap:round;stroke-linejoin:round;stroke:url(#linear0);stroke-opacity:1;stroke-miterlimit:4;" d="M -93.480304 -423.334359 C -82.48136 -423.334359 -73.544718 -414.428963 -73.544718 -403.430019 L -73.544718 -104.58371 C -73.544718 -93.584766 -82.48136 -84.648124 -93.480304 -84.648124 C -104.479248 -84.648124 -113.384643 -93.584766 -113.384643 -104.58371 L -113.384643 -403.430019 C -113.384643 -414.428963 -104.479248 -423.334359 -93.480304 -423.334359 Z M -93.480304 -423.334359 " transform="matrix(0,0.125012,-0.125012,0,0,26.877566)"/><path style=" stroke:none;fill-rule:nonzero;fill:url(#linear0);fill-opacity:1;" d="M 52.921875 15.203125 C 52.921875 16.582031 51.800781 17.699219 50.421875 17.699219 L 13.082031 17.699219 C 11.703125 17.699219 10.582031 16.582031 10.582031 15.203125 C 10.582031 13.824219 11.703125 12.703125 13.082031 12.703125 L 50.421875 12.703125 C 51.800781 12.703125 52.921875 13.824219 52.921875 15.203125 Z M 52.921875 15.203125 "/><path style="fill-rule:nonzero;fill:url(#linear0);fill-opacity:1;stroke-width:82;stroke-linecap:round;stroke-linejoin:round;stroke:url(#linear0);stroke-opacity:1;stroke-miterlimit:4;" d="M 41.756713 -423.334359 C 52.755657 -423.334359 61.692299 -414.428963 61.692299 -403.430019 L 61.692299 -104.58371 C 61.692299 -93.584766 52.755657 -84.648124 41.756713 -84.648124 C 30.757769 -84.648124 21.852374 -93.584766 21.852374 -104.58371 L 21.852374 -403.430019 C 21.852374 -414.428963 30.757769 -423.334359 41.756713 -423.334359 Z M 41.756713 -423.334359 " transform="matrix(0,0.125012,-0.125012,0,0,26.877566)"/><path style=" stroke:none;fill-rule:nonzero;fill:url(#linear0);fill-opacity:1;" d="M 52.921875 32.105469 C 52.921875 33.484375 51.800781 34.605469 50.421875 34.605469 L 13.082031 34.605469 C 11.703125 34.605469 10.582031 33.484375 10.582031 32.105469 C 10.582031 30.722656 11.703125 29.609375 13.082031 29.609375 L 50.421875 29.609375 C 51.800781 29.609375 52.921875 30.722656 52.921875 32.105469 Z M 52.921875 32.105469 "/><path style="fill-rule:nonzero;fill:url(#linear0);fill-opacity:1;stroke-width:82;stroke-linecap:round;stroke-linejoin:round;stroke:url(#linear0);stroke-opacity:1;stroke-miterlimit:4;" d="M 179.337255 -423.334359 C 190.336199 -423.334359 199.241594 -414.428963 199.241594 -403.430019 L 199.241594 -104.58371 C 199.241594 -93.584766 190.336199 -84.648124 179.337255 -84.648124 C 168.338311 -84.648124 159.432916 -93.584766 159.432916 -104.58371 L 159.432916 -403.430019 C 159.432916 -414.428963 168.338311 -423.334359 179.337255 -423.334359 Z M 179.337255 -423.334359 " transform="matrix(0,0.125012,-0.125012,0,0,26.877566)"/><path style=" stroke:none;fill-rule:nonzero;fill:url(#linear0);fill-opacity:1;" d="M 52.921875 49.308594 C 52.921875 50.6875 51.800781 51.808594 50.421875 51.808594 L 13.082031 51.808594 C 11.703125 51.808594 10.582031 50.6875 10.582031 49.308594 C 10.582031 47.925781 11.703125 46.808594 13.082031 46.808594 L 50.421875 46.808594 C 51.800781 46.808594 52.921875 47.925781 52.921875 49.308594 Z M 52.921875 49.308594 "/></g></svg>
