<svg xmlns="http://www.w3.org/2000/svg" xmlns:xlink="http://www.w3.org/1999/xlink" width="64" height="64" viewBox="0 0 64 64" version="1.1"><defs><linearGradient id="linear0" x1="0%" x2="0%" y1="0%" y2="100%"><stop offset="0%" style="stop-color:#00b54e; stop-opacity:1"/><stop offset="50%" style="stop-color:#ffd000; stop-opacity:1"/><stop offset="100%" style="stop-color:#ff00bb; stop-opacity:1"/></linearGradient></defs><g id="surface1"><path style="fill:none;stroke-width:309.921265;stroke-linecap:butt;stroke-linejoin:round;stroke:url(#linear0);stroke-opacity:1;stroke-miterlimit:4;" d="M 359.965001 255.093308 C 271.272837 255.093308 199.94119 326.424955 199.94119 415.117119 L 199.94119 1535.165697 C 199.94119 1623.739762 271.272837 1695.071409 359.965001 1695.071409 L 1559.966435 1695.071409 C 1648.658599 1695.071409 1719.990246 1623.739762 1719.990246 1535.165697 L 1719.990246 415.117119 C 1719.990246 326.424955 1648.658599 255.093308 1559.966435 255.093308 Z M 439.917857 415.117119 L 1480.013579 415.117119 C 1524.300612 415.117119 1559.966435 450.782942 1559.966435 495.069975 L 1559.966435 895.188552 L 1360.025245 895.188552 L 1360.025245 855.153074 C 1360.025245 810.747943 1324.241323 775.082119 1280.072389 775.082119 C 1235.667258 775.082119 1200.001434 810.747943 1200.001434 855.153074 L 1200.001434 895.188552 L 719.930001 895.188552 L 719.930001 855.153074 C 719.930001 810.747943 684.382277 775.082119 639.977145 775.082119 C 595.690113 775.082119 559.90619 810.747943 559.90619 855.153074 L 559.90619 895.188552 L 359.965001 895.188552 L 359.965001 495.069975 C 359.965001 450.782942 395.748923 415.117119 439.917857 415.117119 Z M 359.965001 1055.212363 L 559.90619 1055.212363 L 559.90619 1095.129741 C 559.90619 1139.416774 595.690113 1175.200696 639.977145 1175.200696 C 684.382277 1175.200696 719.930001 1139.416774 719.930001 1095.129741 L 719.930001 1055.212363 L 1200.001434 1055.212363 L 1200.001434 1095.129741 C 1200.001434 1139.416774 1235.667258 1175.200696 1280.072389 1175.200696 C 1324.241323 1175.200696 1360.025245 1139.416774 1360.025245 1095.129741 L 1360.025245 1055.212363 L 1559.966435 1055.212363 L 1559.966435 1455.094742 C 1559.966435 1499.381775 1524.300612 1535.165697 1480.013579 1535.165697 L 439.917857 1535.165697 C 395.748923 1535.165697 359.965001 1499.381775 359.965001 1455.094742 Z M 359.965001 1055.212363 " transform="matrix(0.0330761,0,0,0.0330761,0,0)"/><path style=" stroke:none;fill-rule:nonzero;fill:url(#linear0);fill-opacity:1;" d="M 11.90625 8.4375 C 8.972656 8.4375 6.613281 10.796875 6.613281 13.730469 L 6.613281 50.777344 C 6.613281 53.707031 8.972656 56.066406 11.90625 56.066406 L 51.597656 56.066406 C 54.53125 56.066406 56.890625 53.707031 56.890625 50.777344 L 56.890625 13.730469 C 56.890625 10.796875 54.53125 8.4375 51.597656 8.4375 Z M 14.550781 13.730469 L 48.953125 13.730469 C 50.417969 13.730469 51.597656 14.910156 51.597656 16.375 L 51.597656 29.609375 L 44.984375 29.609375 L 44.984375 28.285156 C 44.984375 26.816406 43.800781 25.636719 42.339844 25.636719 C 40.871094 25.636719 39.691406 26.816406 39.691406 28.285156 L 39.691406 29.609375 L 23.8125 29.609375 L 23.8125 28.285156 C 23.8125 26.816406 22.636719 25.636719 21.167969 25.636719 C 19.703125 25.636719 18.519531 26.816406 18.519531 28.285156 L 18.519531 29.609375 L 11.90625 29.609375 L 11.90625 16.375 C 11.90625 14.910156 13.089844 13.730469 14.550781 13.730469 Z M 11.90625 34.902344 L 18.519531 34.902344 L 18.519531 36.222656 C 18.519531 37.6875 19.703125 38.871094 21.167969 38.871094 C 22.636719 38.871094 23.8125 37.6875 23.8125 36.222656 L 23.8125 34.902344 L 39.691406 34.902344 L 39.691406 36.222656 C 39.691406 37.6875 40.871094 38.871094 42.339844 38.871094 C 43.800781 38.871094 44.984375 37.6875 44.984375 36.222656 L 44.984375 34.902344 L 51.597656 34.902344 L 51.597656 48.128906 C 51.597656 49.59375 50.417969 50.777344 48.953125 50.777344 L 14.550781 50.777344 C 13.089844 50.777344 11.90625 49.59375 11.90625 48.128906 Z M 11.90625 34.902344 "/></g></svg>
