<svg xmlns="http://www.w3.org/2000/svg" xmlns:xlink="http://www.w3.org/1999/xlink" width="64" height="64" viewBox="0 0 64 64" version="1.1"><defs><linearGradient id="linear0" x1="0%" x2="0%" y1="0%" y2="100%"><stop offset="0%" style="stop-color:#00b6c7; stop-opacity:1"/><stop offset="50%" style="stop-color:#ff0000; stop-opacity:1"/><stop offset="100%" style="stop-color:#6a00ff; stop-opacity:1"/></linearGradient></defs><g id="surface1"><path style=" stroke:none;fill-rule:nonzero;fill:url(#linear0);fill-opacity:1;" d="M 31.753906 2.652344 C 20.4375 2.652344 10.75 11.265625 10.75 22.328125 L 10.75 26.230469 C 7.707031 27.285156 5.457031 30.222656 5.457031 33.578125 L 5.457031 54.082031 C 5.457031 58.300781 9.015625 61.855469 13.230469 61.855469 L 50.277344 61.855469 C 54.496094 61.855469 58.046875 58.300781 58.046875 54.082031 L 58.046875 33.578125 C 58.046875 30.222656 55.796875 27.285156 52.753906 26.230469 L 52.753906 22.328125 C 52.753906 11.265625 43.066406 2.652344 31.753906 2.652344 Z M 31.753906 2.652344 "/><path style=" stroke:none;fill-rule:nonzero;fill:url(#linear0);fill-opacity:1;" d="M 31.753906 7.777344 C 22.957031 7.777344 15.875 14.265625 15.875 22.328125 L 15.875 30.933594 L 13.230469 30.933594 C 11.765625 30.933594 10.582031 32.109375 10.582031 33.578125 L 10.582031 54.082031 C 10.582031 55.546875 11.765625 56.730469 13.230469 56.730469 L 50.277344 56.730469 C 51.738281 56.730469 52.921875 55.546875 52.921875 54.082031 L 52.921875 33.578125 C 52.921875 32.109375 51.738281 30.933594 50.277344 30.933594 L 47.628906 30.933594 L 47.628906 22.328125 C 47.628906 14.265625 40.546875 7.777344 31.753906 7.777344 Z M 31.753906 13.066406 C 37.613281 13.066406 42.339844 17.199219 42.339844 22.328125 L 42.339844 30.933594 L 21.167969 30.933594 L 21.167969 22.328125 C 21.167969 17.199219 25.890625 13.066406 31.753906 13.066406 Z M 31.753906 13.066406 "/></g></svg>
