<svg xmlns="http://www.w3.org/2000/svg" xmlns:xlink="http://www.w3.org/1999/xlink" width="64" height="64" viewBox="0 0 64 64" version="1.1"><defs><linearGradient id="linear0" x1="0%" x2="0%" y1="0%" y2="100%"><stop offset="0%" style="stop-color:#00b6c7; stop-opacity:1"/><stop offset="50%" style="stop-color:#ff0000; stop-opacity:1"/><stop offset="100%" style="stop-color:#6a00ff; stop-opacity:1"/></linearGradient></defs><g id="surface1"><path style="fill-rule:nonzero;fill:url(#linear0);fill-opacity:1;stroke-width:82;stroke-linecap:round;stroke-linejoin:round;stroke:url(#linear0);stroke-opacity:1;stroke-miterlimit:4;" d="M 252.631997 0.644063 L 255.381733 0.644063 C 266.318183 0.644063 275.192331 10.143151 275.192331 21.829529 L 275.192331 212.342489 C 275.192331 223.99762 266.318183 233.496708 255.381733 233.496708 L 252.631997 233.496708 C 241.695546 233.496708 232.852645 223.99762 232.852645 212.342489 L 232.852645 21.829529 C 232.852645 10.143151 241.695546 0.644063 252.631997 0.644063 Z M 252.631997 0.644063 " transform="matrix(0.125012,0,0,-0.125012,0,38.951609)"/><path style=" stroke:none;fill-rule:nonzero;fill:url(#linear0);fill-opacity:1;" d="M 31.753906 38.871094 C 33.214844 38.871094 34.402344 37.683594 34.402344 36.222656 L 34.402344 12.40625 C 34.402344 10.949219 33.214844 9.761719 31.753906 9.761719 C 30.292969 9.761719 29.109375 10.949219 29.109375 12.40625 L 29.109375 36.222656 C 29.109375 37.683594 30.292969 38.871094 31.753906 38.871094 Z M 31.753906 38.871094 "/><path style="fill-rule:nonzero;fill:url(#linear0);fill-opacity:1;stroke-width:82;stroke-linecap:round;stroke-linejoin:round;stroke:url(#linear0);stroke-opacity:1;stroke-miterlimit:4;" d="M 254.006865 -136.905232 C 265.693243 -136.905232 275.192331 -127.468638 275.192331 -115.751013 C 275.192331 -104.033388 265.693243 -94.596794 254.006865 -94.596794 C 242.320486 -94.596794 232.852645 -104.033388 232.852645 -115.751013 C 232.852645 -127.468638 242.320486 -136.905232 254.006865 -136.905232 Z M 254.006865 -136.905232 " transform="matrix(0.125012,0,0,-0.125012,0,38.951609)"/><path style=" stroke:none;fill-rule:nonzero;fill:url(#linear0);fill-opacity:1;" d="M 31.660156 56.066406 L 31.84375 56.066406 C 33.253906 56.066406 34.402344 54.921875 34.402344 53.503906 L 34.402344 53.339844 C 34.402344 51.921875 33.253906 50.777344 31.84375 50.777344 L 31.660156 50.777344 C 30.25 50.777344 29.109375 51.921875 29.109375 53.339844 L 29.109375 53.503906 C 29.109375 54.921875 30.25 56.066406 31.660156 56.066406 Z M 31.660156 56.066406 "/></g></svg>
