<svg xmlns="http://www.w3.org/2000/svg" xmlns:xlink="http://www.w3.org/1999/xlink" width="64" height="64" viewBox="0 0 64 64" version="1.1"><defs><linearGradient id="linear0" x1="0%" x2="0%" y1="0%" y2="100%"><stop offset="0%" style="stop-color:#00b54e; stop-opacity:1"/><stop offset="50%" style="stop-color:#0073ff; stop-opacity:1"/><stop offset="100%" style="stop-color:#ffd000; stop-opacity:1"/></linearGradient></defs><g id="surface1"><path style="fill-rule:nonzero;fill:url(#linear0);fill-opacity:1;stroke-width:309.921265;stroke-linecap:round;stroke-linejoin:round;stroke:url(#linear0);stroke-opacity:1;stroke-miterlimit:4;" d="M 1239.210221 250.251259 C 1238.501628 250.251259 1237.556838 250.251259 1236.730147 250.251259 C 1193.860299 251.786542 1160.084056 286.861872 1160.084056 329.73172 L 1160.084056 415.117119 C 1159.847858 415.117119 1159.729759 415.117119 1159.611661 415.235217 L 1159.611661 417.479094 C 906.644131 429.761364 716.032743 500.26632 583.407842 608.444778 C 437.319684 727.60642 366.106136 891.409392 360.437396 1052.377993 C 348.981817 1373.8428 593.446236 1694.835212 960.024767 1694.835212 C 988.722764 1695.071409 1015.531181 1679.954769 1029.939229 1655.272129 C 1044.465376 1630.353292 1044.465376 1599.883814 1029.939229 1574.964977 C 1015.531181 1550.282337 988.722764 1535.165697 960.024767 1535.401894 C 686.389955 1535.401894 511.131405 1296.251919 519.634515 1058.046733 C 523.886071 938.766992 572.897053 822.557818 684.02798 731.739877 C 783.821427 650.487934 937.231708 588.722286 1160.084056 576.794312 L 1160.084056 649.897441 C 1160.084056 709.064916 1222.204 747.447011 1275.112242 720.99289 L 1595.277962 561.087178 C 1653.854944 531.56249 1653.854944 447.948572 1595.277962 418.541982 L 1275.112242 258.518171 C 1264.010959 253.085629 1251.728688 250.015061 1239.210221 250.251259 Z M 1239.210221 250.251259 " transform="matrix(0.0330761,0,0,0.0330761,0,0)"/><path style=" stroke:none;fill-rule:nonzero;fill:url(#linear0);fill-opacity:1;" d="M 40.988281 8.277344 C 40.964844 8.277344 40.933594 8.277344 40.90625 8.277344 C 39.488281 8.328125 38.371094 9.488281 38.371094 10.90625 L 38.371094 13.730469 C 38.363281 13.730469 38.359375 13.730469 38.355469 13.734375 L 38.355469 13.808594 C 29.988281 14.214844 23.683594 16.546875 19.296875 20.125 C 14.464844 24.066406 12.109375 29.484375 11.921875 34.808594 C 11.542969 45.441406 19.628906 56.058594 31.753906 56.058594 C 32.703125 56.066406 33.589844 55.566406 34.066406 54.75 C 34.546875 53.925781 34.546875 52.917969 34.066406 52.09375 C 33.589844 51.277344 32.703125 50.777344 31.753906 50.785156 C 22.703125 50.785156 16.90625 42.875 17.1875 34.996094 C 17.328125 31.050781 18.949219 27.207031 22.625 24.203125 C 25.925781 21.515625 31 19.472656 38.371094 19.078125 L 38.371094 21.496094 C 38.371094 23.453125 40.425781 24.722656 42.175781 23.847656 L 52.765625 18.558594 C 54.703125 17.582031 54.703125 14.816406 52.765625 13.84375 L 42.175781 8.550781 C 41.808594 8.371094 41.402344 8.269531 40.988281 8.277344 Z M 40.988281 8.277344 "/></g></svg>
