<?xml version="1.0" encoding="UTF-8" standalone="no"?>
<svg
   width="64"
   height="64"
   version="1.1"
   id="svg73"
   sodipodi:docname="kdeconnect.svg"
   inkscape:version="1.3.2 (091e20ef0f, 2023-11-25)"
   xmlns:inkscape="http://www.inkscape.org/namespaces/inkscape"
   xmlns:sodipodi="http://sodipodi.sourceforge.net/DTD/sodipodi-0.dtd"
   xmlns:xlink="http://www.w3.org/1999/xlink"
   xmlns="http://www.w3.org/2000/svg"
   xmlns:svg="http://www.w3.org/2000/svg"
   xmlns:rdf="http://www.w3.org/1999/02/22-rdf-syntax-ns#"
   xmlns:cc="http://creativecommons.org/ns#"
   xmlns:dc="http://purl.org/dc/elements/1.1/">
  <metadata
     id="metadata77">
    <rdf:RDF>
      <cc:Work
         rdf:about="">
        <dc:format>image/svg+xml</dc:format>
        <dc:type
           rdf:resource="http://purl.org/dc/dcmitype/StillImage" />
      </cc:Work>
    </rdf:RDF>
  </metadata>
  <sodipodi:namedview
     pagecolor="#f5f7fa"
     bordercolor="#666666"
     borderopacity="1"
     objecttolerance="10"
     gridtolerance="10"
     guidetolerance="10"
     inkscape:pageopacity="0"
     inkscape:pageshadow="2"
     inkscape:window-width="1377"
     inkscape:window-height="886"
     id="namedview75"
     showgrid="false"
     inkscape:zoom="4.4470387"
     inkscape:cx="30.35728"
     inkscape:cy="28.221027"
     inkscape:window-x="230"
     inkscape:window-y="88"
     inkscape:window-maximized="0"
     inkscape:current-layer="g877"
     inkscape:document-rotation="0"
     inkscape:pagecheckerboard="0"
     inkscape:showpageshadow="2"
     inkscape:deskcolor="#d1d1d1" />
  <defs
     id="defs29">
    <linearGradient
       id="linearGradient5"
       inkscape:collect="always">
      <stop
         style="stop-color:#984859;stop-opacity:1;"
         offset="0"
         id="stop5" />
      <stop
         style="stop-color:#bf7384;stop-opacity:1;"
         offset="1"
         id="stop6" />
    </linearGradient>
    <inkscape:path-effect
       effect="powerclip"
       id="path-effect1980"
       is_visible="true"
       lpeversion="1"
       inverse="true"
       flatten="false"
       hide_clip="false"
       message="Use fill-rule evenodd on &lt;b&gt;fill and stroke&lt;/b&gt; dialog if no flatten result after convert clip to paths." />
    <clipPath
       clipPathUnits="userSpaceOnUse"
       id="clipPath1976">
      <rect
         x="9.6784649"
         y="9.925169"
         width="43.343258"
         height="44.613056"
         rx="8.6689987"
         ry="8.9229689"
         fill="url(#linearGradient862)"
         stroke-width="2.96772"
         id="rect1978"
         style="display:none;fill:#333333;fill-opacity:1"
         d="m 18.347464,9.925169 h 26.00526 c 4.802625,0 8.668999,3.979644 8.668999,8.922969 v 26.767118 c 0,4.943325 -3.866374,8.922969 -8.668999,8.922969 h -26.00526 c -4.802626,0 -8.6689991,-3.979644 -8.6689991,-8.922969 V 18.848138 c 0,-4.943325 3.8663731,-8.922969 8.6689991,-8.922969 z" />
      <path
         id="lpe_path-effect1980"
         style="fill:#333333;fill-opacity:1"
         class="powerclip"
         d="M 2.0757722,2.2464043 H 60.623896 V 62.216811 H 2.0757722 Z M 18.347464,9.925169 c -4.802626,0 -8.6689991,3.979644 -8.6689991,8.922969 v 26.767118 c 0,4.943325 3.8663731,8.922969 8.6689991,8.922969 h 26.00526 c 4.802625,0 8.668999,-3.979644 8.668999,-8.922969 V 18.848138 c 0,-4.943325 -3.866374,-8.922969 -8.668999,-8.922969 z" />
    </clipPath>
    <linearGradient
       inkscape:collect="always"
       xlink:href="#linearGradient5"
       id="linearGradient6"
       x1="33.785751"
       y1="12.971354"
       x2="33.375801"
       y2="52.289253"
       gradientUnits="userSpaceOnUse"
       gradientTransform="matrix(1.1,0,0,1.1,-3.1845928,-3.2341119)" />
    <clipPath
       clipPathUnits="userSpaceOnUse"
       id="clipath_lpe_path-effect137-7">
      <path
         style="display:block;fill:#676767;stroke-width:1.08686"
         d="m 32.488464,17.537929 c -1.948585,-2.94e-4 -3.897273,0.360273 -5.339266,1.078703 L 5.2713661,29.514817 c -2.8839879,1.436862 -2.8813095,3.883396 0.00261,5.320257 L 27.14912,45.733256 c 2.883988,1.43686 7.794548,1.43686 10.678532,0 L 59.702804,34.835074 c 2.883982,-1.436857 2.881265,-3.883402 -0.0026,-5.320257 L 37.827728,18.616632 c -1.441993,-0.71843 -3.390677,-1.078408 -5.339264,-1.078703 z"
         id="path3845"
         clip-path="url(#clipPath62)" />
    </clipPath>
    <inkscape:path-effect
       effect="powerclip"
       id="path-effect137-7"
       is_visible="true"
       lpeversion="1"
       inverse="true"
       flatten="false"
       hide_clip="false"
       message="Use fill-rule evenodd on &lt;b&gt;fill and stroke&lt;/b&gt; dialog if no flatten result after convert clip to paths." />
    <clipPath
       clipPathUnits="userSpaceOnUse"
       id="clipath_lpe_path-effect125-5">
      <path
         style="display:block;fill:#29292a;stroke-width:1.08686"
         d="M 32.488464,2.9014445 C 30.539879,2.9011484 28.591191,3.2617158 27.149198,3.9801462 L 5.2713661,14.878331 c -2.8839879,1.436858 -2.8813095,3.883396 0.00261,5.320256 L 27.14912,31.096772 c 2.883988,1.436859 7.794548,1.436855 10.678532,0 L 59.702804,20.198587 c 2.883982,-1.436855 2.881265,-3.8834 -0.0026,-5.320256 L 37.827728,3.9801462 C 36.385735,3.2617158 34.437051,2.9017372 32.488464,2.9014445 Z"
         id="path127-3" />
      <path
         id="lpe_path-effect125"
         style="fill:#29292a;stroke-width:1.08686"
         class="powerclip"
         d="M -1.8902946,12.537929 H 66.864447 V 51.810901 H -1.8902946 Z M 32.488464,2.9014445 C 30.539879,2.9011484 28.591191,3.2617158 27.149198,3.9801462 L 5.2713661,14.878331 c -2.8839879,1.436858 -2.8813095,3.883396 0.00261,5.320256 L 27.14912,31.096772 c 2.883988,1.436859 7.794548,1.436855 10.678532,0 L 59.702804,20.198587 c 2.883982,-1.436855 2.881265,-3.8834 -0.0026,-5.320256 L 37.827728,3.9801462 C 36.385735,3.2617158 34.437051,2.9017372 32.488464,2.9014445 Z" />
    </clipPath>
    <inkscape:path-effect
       effect="powerclip"
       id="path-effect125-5"
       is_visible="true"
       lpeversion="1"
       inverse="true"
       flatten="false"
       hide_clip="false"
       message="Use fill-rule evenodd on &lt;b&gt;fill and stroke&lt;/b&gt; dialog if no flatten result after convert clip to paths." />
    <clipPath
       clipPathUnits="userSpaceOnUse"
       id="clipPath2">
      <path
         style="display:none;fill:#29292a;stroke-width:1.08686"
         d="M 32.488464,2.9014445 C 30.539879,2.9011484 28.591191,3.2617158 27.149198,3.9801462 L 5.2713661,14.878331 c -2.8839879,1.436858 -2.8813095,3.883396 0.00261,5.320256 L 27.14912,31.096772 c 2.883988,1.436859 7.794548,1.436855 10.678532,0 L 59.702804,20.198587 c 2.883982,-1.436855 2.881265,-3.8834 -0.0026,-5.320256 L 37.827728,3.9801462 C 36.385735,3.2617158 34.437051,2.9017372 32.488464,2.9014445 Z"
         id="path1" />
    </clipPath>
    <clipPath
       clipPathUnits="userSpaceOnUse"
       id="clipPath1976-2">
      <rect
         x="9.6784649"
         y="9.925169"
         width="43.343258"
         height="44.613056"
         rx="8.6689987"
         ry="8.9229689"
         fill="url(#linearGradient862)"
         stroke-width="2.96772"
         id="rect1978-6"
         style="display:none;fill:#333333;fill-opacity:1"
         d="m 18.347464,9.925169 h 26.00526 c 4.802625,0 8.668999,3.979644 8.668999,8.922969 v 26.767118 c 0,4.943325 -3.866374,8.922969 -8.668999,8.922969 h -26.00526 c -4.802626,0 -8.6689991,-3.979644 -8.6689991,-8.922969 V 18.848138 c 0,-4.943325 3.8663731,-8.922969 8.6689991,-8.922969 z" />
      <path
         id="lpe_path-effect1980-1"
         style="fill:#333333;fill-opacity:1"
         class="powerclip"
         d="M 2.0757722,2.2464043 H 60.623896 V 62.216811 H 2.0757722 Z M 18.347464,9.925169 c -4.802626,0 -8.6689991,3.979644 -8.6689991,8.922969 v 26.767118 c 0,4.943325 3.8663731,8.922969 8.6689991,8.922969 h 26.00526 c 4.802625,0 8.668999,-3.979644 8.668999,-8.922969 V 18.848138 c 0,-4.943325 -3.866374,-8.922969 -8.668999,-8.922969 z" />
    </clipPath>
    <inkscape:path-effect
       effect="powerclip"
       id="path-effect1980-8"
       is_visible="true"
       lpeversion="1"
       inverse="true"
       flatten="false"
       hide_clip="false"
       message="Use fill-rule evenodd on &lt;b&gt;fill and stroke&lt;/b&gt; dialog if no flatten result after convert clip to paths." />
    <clipPath
       clipPathUnits="userSpaceOnUse"
       id="clipath_lpe_path-effect1980-8">
      <rect
         x="9.6784649"
         y="9.925169"
         width="43.343258"
         height="44.613056"
         rx="8.6689987"
         ry="8.9229689"
         fill="url(#linearGradient862)"
         stroke-width="2.96772"
         id="rect6"
         style="display:block;fill:#333333;fill-opacity:1" />
    </clipPath>
    <linearGradient
       inkscape:collect="always"
       xlink:href="#linearGradient5"
       id="linearGradient20"
       x1="13.335895"
       y1="15.266852"
       x2="13.360575"
       y2="11.429547"
       gradientUnits="userSpaceOnUse"
       gradientTransform="matrix(4.1575622,0,0,4.1575622,-7.5548789,-7.8043381)" />
  </defs>
  <g
     id="g877"
     transform="matrix(1.1,0,0,1.1,-3.1845928,-3.2065454)">
    <path
       d="m 18.347203,7.2464043 c -6.244452,0 -11.2714308,5.1741617 -11.2714308,11.6016437 v 26.767119 c 0,6.427394 5.0268918,11.601644 11.2714308,11.601644 h 26.005262 c 6.244452,0 11.271431,-5.174161 11.271431,-11.601644 V 18.848048 c 0,-6.427393 -5.026893,-11.6016437 -11.271431,-11.6016437 z"
       fill="url(#linearGradient910)"
       stroke-width="3.32418"
       id="path33"
       style="fill:#4d4d4d;fill-opacity:1"
       clip-path="url(#clipPath1976)"
       inkscape:path-effect="#path-effect1980"
       inkscape:original-d="m 18.347203,7.2464043 c -6.244452,0 -11.2714308,5.1741617 -11.2714308,11.6016437 v 26.767119 c 0,6.427394 5.0268918,11.601644 11.2714308,11.601644 h 26.005262 c 6.244452,0 11.271431,-5.174161 11.271431,-11.601644 V 18.848048 c 0,-6.427393 -5.026893,-11.6016437 -11.271431,-11.6016437 z"
       transform="matrix(1.089,0,0,1.089,-2.2940414,-2.7591018)" />
    <rect
       x="8.245779"
       y="8.0493994"
       width="47.200809"
       height="48.583622"
       rx="9.511797"
       ry="9.6776171"
       fill="url(#linearGradient862)"
       stroke-width="3.23184"
       id="rect35-7"
       style="opacity:1;fill:#f9f9f9;fill-opacity:1" />
    <rect
       x="10.60582"
       y="10.47858"
       width="42.480732"
       height="43.725258"
       rx="9.0337515"
       ry="8.819849"
       fill="url(#linearGradient862)"
       stroke-width="2.90867"
       id="rect35-7-3"
       style="fill:url(#linearGradient6)" />
    <path
       id="path15571-5"
       style="fill:#000000;stroke:none;stroke-width:1;stroke-dasharray:none;stroke-opacity:0.3;opacity:0.2"
       d="m 42.269814,18.959686 c -2.136782,0.03795 -4.197581,1.365853 -5.210937,3.474608 -1.186661,2.469397 -0.995811,5.057453 0.427734,5.81836 0.403457,0.215657 0.606415,0.258007 1.007811,0.205077 1.968153,-0.25951 4.763966,-2.818456 6.046873,-5.535157 0.380802,-0.806304 0.415971,-0.966042 0.41797,-1.873046 l 0.0037,-0.992187 -0.45899,-0.427734 c -0.327658,-0.305942 -0.628239,-0.464927 -1.04675,-0.554687 -0.394824,-0.08468 -0.7918,-0.122263 -1.187502,-0.115234 z M 32.16044,20.481169 c -1.512957,0.03568 -2.424237,1.150538 -2.521484,3.083986 -0.02658,0.528638 0.0093,1.238955 0.08008,1.580077 0.179644,0.865337 0.697828,1.908445 1.126954,2.269531 0.736033,0.61933 1.45682,0.240096 2.1875,-1.150391 0.844525,-1.607134 1.120113,-3.825018 0.601562,-4.839843 -0.362104,-0.708658 -0.756095,-0.960309 -1.474609,-0.94336 z m -6.845703,1.474611 c -0.203569,-0.004 -0.422706,0.03024 -0.65625,0.09962 -1.276099,0.378961 -1.94352,1.524951 -1.705078,2.927734 0.227325,1.337391 1.284529,2.952426 2.199218,3.361328 0.197927,0.08848 0.511749,0.135949 0.697267,0.105468 1.300806,-0.213713 1.850026,-3.577364 0.892577,-5.4668 -0.340748,-0.672431 -0.817031,-1.015264 -1.427734,-1.027344 z m -4.867188,5.205078 c -0.64247,-0.0024 -1.329462,0.326501 -1.716797,0.896483 -0.222225,0.327027 -0.258234,0.498598 -0.220702,1.035156 0.03648,0.521561 0.127051,0.763318 0.482422,1.279297 0.485698,0.705215 1.357345,1.421077 2.03125,1.66797 0.242151,0.08871 0.531289,0.16552 0.642578,0.169923 0.369577,0.01448 0.839921,-0.317687 0.966796,-0.681641 0.438579,-1.258103 -0.300897,-3.497101 -1.36914,-4.148439 -0.241275,-0.147112 -0.524373,-0.217661 -0.816407,-0.218749 z m 13.298828,2.941405 c -2.186321,0.03425 -4.639419,0.571879 -6.726562,1.603517 -3.794231,1.875417 -5.804568,4.808388 -5.578125,8.136717 0.09585,1.408833 0.438935,2.588155 1.197266,4.123051 1.869125,3.783212 5.347352,6.659278 8.896483,7.355469 0.776301,0.15228 2.124834,0.134931 2.763673,-0.03514 2.891201,-0.769795 5.565787,-3.605427 6.224609,-6.599608 0.12072,-0.548689 0.113766,-0.680136 -0.05469,-1.035158 -0.552733,-1.164805 -3.419864,-1.307735 -5.384765,-0.269561 -0.866595,0.45788 -1.02163,0.713517 -1.037109,1.705077 -0.02143,1.37336 -0.526244,1.996685 -1.609376,1.988282 -1.104746,-0.0086 -2.293844,-0.674304 -2.699218,-1.511697 -0.48515,-1.002181 -0.204822,-1.91608 0.898437,-2.937503 0.367871,-0.340584 1.926469,-1.451178 3.462891,-2.468751 3.403864,-2.254383 4.607396,-3.318459 5.269529,-4.658204 0.382258,-0.773443 0.42172,-0.936406 0.419922,-1.757812 -0.0022,-1.042974 -0.205392,-1.53607 -0.916017,-2.220703 -1.020247,-0.982943 -2.940626,-1.45223 -5.12695,-1.41797 z" />
    <path
       id="path15571"
       style="fill:#f9f9f9;stroke:none;stroke-width:1;stroke-dasharray:none;stroke-opacity:0.3"
       d="m 42.269814,17.141504 c -2.136782,0.03795 -4.197581,1.365853 -5.210937,3.474608 -1.186661,2.469397 -0.995811,5.057453 0.427734,5.81836 0.403457,0.215657 0.606415,0.258007 1.007811,0.205077 1.968153,-0.25951 4.763966,-2.818456 6.046873,-5.535157 0.380802,-0.806304 0.415971,-0.966042 0.41797,-1.873046 l 0.0037,-0.992187 -0.45899,-0.427734 c -0.327658,-0.305942 -0.628239,-0.464927 -1.04675,-0.554687 -0.394824,-0.08468 -0.7918,-0.122263 -1.187502,-0.115234 z M 32.16044,18.662987 c -1.512957,0.03568 -2.424237,1.150538 -2.521484,3.083986 -0.02658,0.528638 0.0093,1.238955 0.08008,1.580077 0.179644,0.865337 0.697828,1.908445 1.126954,2.269531 0.736033,0.61933 1.45682,0.240096 2.1875,-1.150391 0.844525,-1.607134 1.120113,-3.825018 0.601562,-4.839843 -0.362104,-0.708658 -0.756095,-0.960309 -1.474609,-0.94336 z m -6.845703,1.474611 c -0.203569,-0.004 -0.422706,0.03024 -0.65625,0.09962 -1.276099,0.378961 -1.94352,1.524951 -1.705078,2.927734 0.227325,1.337391 1.284529,2.952426 2.199218,3.361328 0.197927,0.08848 0.511749,0.135949 0.697267,0.105468 1.300806,-0.213713 1.850026,-3.577364 0.892577,-5.4668 -0.340748,-0.672431 -0.817031,-1.015264 -1.427734,-1.027344 z m -4.867188,5.205078 c -0.64247,-0.0024 -1.329462,0.326501 -1.716797,0.896483 -0.222225,0.327027 -0.258234,0.498598 -0.220702,1.035156 0.03648,0.521561 0.127051,0.763318 0.482422,1.279297 0.485698,0.705215 1.357345,1.421077 2.03125,1.66797 0.242151,0.08871 0.531289,0.16552 0.642578,0.169923 0.369577,0.01448 0.839921,-0.317687 0.966796,-0.681641 0.438579,-1.258103 -0.300897,-3.497101 -1.36914,-4.148439 -0.241275,-0.147112 -0.524373,-0.217661 -0.816407,-0.218749 z m 13.298828,2.941405 c -2.186321,0.03425 -4.639419,0.571879 -6.726562,1.603517 -3.794231,1.875417 -5.804568,4.808388 -5.578125,8.136717 0.09585,1.408833 0.438935,2.588155 1.197266,4.123051 1.869125,3.783212 5.347352,6.659278 8.896483,7.355469 0.776301,0.15228 2.124834,0.134931 2.763673,-0.03514 2.891201,-0.769795 5.565787,-3.605427 6.224609,-6.599608 0.12072,-0.548689 0.113766,-0.680136 -0.05469,-1.035158 -0.552733,-1.164805 -3.419864,-1.307735 -5.384765,-0.269561 -0.866595,0.45788 -1.02163,0.713517 -1.037109,1.705077 -0.02143,1.37336 -0.526244,1.996685 -1.609376,1.988282 -1.104746,-0.0086 -2.293844,-0.674304 -2.699218,-1.511697 -0.48515,-1.002181 -0.204822,-1.91608 0.898437,-2.937503 0.367871,-0.340584 1.926469,-1.451178 3.462891,-2.468751 3.403864,-2.254383 4.607396,-3.318459 5.269529,-4.658204 0.382258,-0.773443 0.42172,-0.936406 0.419922,-1.757812 -0.0022,-1.042974 -0.205392,-1.53607 -0.916017,-2.220703 -1.020247,-0.982943 -2.940626,-1.45223 -5.12695,-1.41797 z" />
    <rect
       x="34.621975"
       y="33.81134"
       width="26.338667"
       height="27.110296"
       rx="5.3077068"
       ry="5.4002366"
       fill="url(#linearGradient862)"
       stroke-width="1.80341"
       id="rect35-7-0"
       style="fill:#4d4d4d;fill-opacity:1" />
    <rect
       x="36.503307"
       y="35.747791"
       width="22.576004"
       height="23.237396"
       rx="4.8009062"
       ry="4.6872292"
       fill="url(#linearGradient862)"
       stroke-width="1.54579"
       id="rect35-7-3-2"
       style="fill:#f9f9f9" />
    <path
       style="fill:#000000;fill-opacity:1;stroke:none;stroke-width:0.890999;stroke-dasharray:none;stroke-opacity:0.3;opacity:0.2"
       d="m 45.965343,57.077363 c -5.58e-4,-0.240929 -0.03326,-0.707389 -0.07263,-1.036591 -0.06511,-0.54403 -0.109637,-0.616776 -0.489324,-0.798576 -0.229747,-0.110013 -0.612926,-0.355265 -0.851532,-0.54507 L 44.118023,54.35209 43.30026,54.765643 c -0.449773,0.227459 -0.858336,0.413512 -0.907911,0.413429 -0.04957,-6.8e-5 -0.320341,-0.433722 -0.60167,-0.963694 -0.281343,-0.529966 -0.68806,-1.28591 -0.903842,-1.679873 l -0.392307,-0.716301 0.780947,-0.584218 0.780948,-0.584215 0.0067,-1.143501 0.0066,-1.143504 -0.780815,-0.586769 -0.780823,-0.586773 0.709754,-1.349625 c 0.390354,-0.742298 0.807208,-1.513597 0.926315,-1.714 l 0.216567,-0.364368 0.86628,0.455839 0.866283,0.455843 0.508549,-0.389812 c 0.279721,-0.214407 0.668132,-0.456194 0.863177,-0.537324 0.313521,-0.130423 0.363038,-0.217649 0.427064,-0.752951 0.03992,-0.332979 0.07293,-0.828844 0.07346,-1.101892 l 0.0011,-0.496445 h 1.861158 1.861153 v 0.391683 c 0,0.215403 0.03326,0.71138 0.07392,1.102095 0.06665,0.640332 0.106634,0.724002 0.405612,0.848359 0.182393,0.07588 0.575963,0.312357 0.874523,0.525537 l 0.542835,0.387568 0.883823,-0.446244 0.883819,-0.446244 0.895061,1.717397 0.895052,1.717402 -0.77894,0.585326 -0.778949,0.585328 0.01125,1.146863 0.01125,1.146868 0.771211,0.576928 0.771207,0.576933 -0.782803,1.479526 c -0.430535,0.813743 -0.844378,1.58466 -0.919648,1.713153 -0.133499,0.227876 -0.158444,0.222928 -1.017392,-0.203554 l -0.880614,-0.43716 -0.502362,0.385074 c -0.276312,0.211786 -0.665272,0.452832 -0.864386,0.535659 -0.356677,0.148343 -0.363205,0.165972 -0.443071,1.190993 l -0.08107,1.040405 h -1.846018 -1.846152 l -0.0011,-0.438037 z m 3.201414,-4.871597 c 0.964189,-0.567421 1.453126,-1.482854 1.45135,-2.717371 -0.0032,-2.279213 -2.068852,-3.712573 -3.961242,-2.748814 -1.129834,0.575407 -1.687562,1.627715 -1.599418,3.017747 0.140276,2.212171 2.312013,3.506155 4.10931,2.448438 z"
       id="path792-9" />
    <path
       style="fill:url(#linearGradient20);fill-opacity:1;stroke:none;stroke-width:0.890999;stroke-dasharray:none;stroke-opacity:0.3"
       d="m 45.965343,55.259181 c -5.58e-4,-0.240929 -0.03326,-0.707389 -0.07263,-1.036591 -0.06511,-0.54403 -0.109637,-0.616776 -0.489324,-0.798576 -0.229747,-0.110013 -0.612926,-0.355265 -0.851532,-0.54507 l -0.433834,-0.345036 -0.817763,0.413553 c -0.449773,0.227459 -0.858336,0.413512 -0.907911,0.413429 -0.04957,-6.8e-5 -0.320341,-0.433722 -0.60167,-0.963694 -0.281343,-0.529966 -0.68806,-1.28591 -0.903842,-1.679873 l -0.392307,-0.716301 0.780947,-0.584218 0.780948,-0.584215 0.0067,-1.143501 0.0066,-1.143504 -0.780815,-0.586769 -0.780823,-0.586773 0.709754,-1.349625 c 0.390354,-0.742298 0.807208,-1.513597 0.926315,-1.714 l 0.216567,-0.364368 0.86628,0.455839 0.866283,0.455843 0.508549,-0.389812 c 0.279721,-0.214407 0.668132,-0.456194 0.863177,-0.537324 0.313521,-0.130423 0.363038,-0.217649 0.427064,-0.752951 0.03992,-0.332979 0.07293,-0.828844 0.07346,-1.101892 l 0.0011,-0.496445 h 1.861158 1.861153 v 0.391683 c 0,0.215403 0.03326,0.71138 0.07392,1.102095 0.06665,0.640332 0.106634,0.724002 0.405612,0.848359 0.182393,0.07588 0.575963,0.312357 0.874523,0.525537 l 0.542835,0.387568 0.883823,-0.446244 0.883819,-0.446244 0.895061,1.717397 0.895052,1.717402 -0.77894,0.585326 -0.778949,0.585328 0.01125,1.146863 0.01125,1.146868 0.771211,0.576928 0.771207,0.576933 -0.782803,1.479526 c -0.430535,0.813743 -0.844378,1.58466 -0.919648,1.713153 -0.133499,0.227876 -0.158444,0.222928 -1.017392,-0.203554 l -0.880614,-0.43716 -0.502362,0.385074 c -0.276312,0.211786 -0.665272,0.452832 -0.864386,0.535659 -0.356677,0.148343 -0.363205,0.165972 -0.443071,1.190993 l -0.08107,1.040405 h -1.846018 -1.846152 l -0.0011,-0.438037 z m 3.201414,-4.871597 c 0.964189,-0.567421 1.453126,-1.482854 1.45135,-2.717371 -0.0032,-2.279213 -2.068852,-3.712573 -3.961242,-2.748814 -1.129834,0.575407 -1.687562,1.627715 -1.599418,3.017747 0.140276,2.212171 2.312013,3.506155 4.10931,2.448438 z"
       id="path792" />
    <path
       style="fill:#f5f7fa;stroke-width:0.204426;fill-opacity:1"
       d=""
       id="path3" />
  </g>
</svg>
