/* XPM */
static char * close_active_xpm[] = {
"45 21 715 2",
"  	c None",
". 	c #C22828",
"+ 	c #A42020",
"@ 	c #A62222",
"# 	c #A82424",
"$ 	c #AA2626",
"% 	c #AC2829",
"& 	c #AF2B2B",
"* 	c #B12D2D",
"= 	c #B32F2F",
"- 	c #B53131",
"; 	c #B73333",
"> 	c #B93535",
", 	c #BB3737",
"' 	c #BD3939",
") 	c #BE3A3A",
"! 	c #C03C3C",
"~ 	c #C13D3D",
"{ 	c #C33F3F",
"] 	c #C44040",
"^ 	c #C54040",
"/ 	c #C54141",
"( 	c #C23E3E",
"_ 	c #BF3B3B",
": 	c #BA3536",
"< 	c #B83434",
"[ 	c #B63231",
"} 	c #B43030",
"| 	c #AD2929",
"1 	c #AB2727",
"2 	c #A92525",
"3 	c #CC0101",
"4 	c #CC0202",
"5 	c #CC0102",
"6 	c #CC0203",
"7 	c #CF0504",
"8 	c #D10707",
"9 	c #D3090A",
"0 	c #D60B0C",
"a 	c #D80D0D",
"b 	c #DA1010",
"c 	c #DC1212",
"d 	c #DE1515",
"e 	c #E01716",
"f 	c #E21918",
"g 	c #E41B1A",
"h 	c #E61D1D",
"i 	c #E81F1F",
"j 	c #EA201F",
"k 	c #EB2222",
"l 	c #ED2223",
"m 	c #EE2424",
"n 	c #EE2425",
"o 	c #EF2525",
"p 	c #EE2525",
"q 	c #ED2324",
"r 	c #EC2222",
"s 	c #EA2121",
"t 	c #E91F1F",
"u 	c #E71D1D",
"v 	c #E51B1B",
"w 	c #E31919",
"x 	c #E11717",
"y 	c #DF1514",
"z 	c #DD1312",
"A 	c #DB1110",
"B 	c #D80E0F",
"C 	c #D60C0C",
"D 	c #D40A0A",
"E 	c #D10808",
"F 	c #CF0605",
"G 	c #CD0303",
"H 	c #CC0404",
"I 	c #CD0606",
"J 	c #CF0707",
"K 	c #D20A0B",
"L 	c #D40C0D",
"M 	c #D60E0F",
"N 	c #D91111",
"O 	c #DB1414",
"P 	c #DD1515",
"Q 	c #DF1718",
"R 	c #E21A1A",
"S 	c #E41C1D",
"T 	c #E61E1E",
"U 	c #E82021",
"V 	c #EA2323",
"W 	c #EC2424",
"X 	c #ED2625",
"Y 	c #EF2827",
"Z 	c #F02828",
"` 	c #F12A29",
" .	c #F1292A",
"..	c #F12A2A",
"+.	c #F02829",
"@.	c #EF2728",
"#.	c #EE2626",
"$.	c #EC2525",
"%.	c #EA2223",
"&.	c #E82121",
"*.	c #E41C1C",
"=.	c #E21B1B",
"-.	c #E01918",
";.	c #DE1617",
">.	c #D91212",
",.	c #D71010",
"'.	c #D50D0D",
").	c #D20B0B",
"!.	c #D00909",
"~.	c #CE0606",
"{.	c #CC0607",
"].	c #CC0707",
"^.	c #CE0808",
"/.	c #D00A0B",
"(.	c #D20E0D",
"_.	c #D51010",
":.	c #D71112",
"<.	c #D91514",
"[.	c #DC1717",
"}.	c #DE1918",
"|.	c #E01C1B",
"1.	c #E31E1D",
"2.	c #E51F20",
"3.	c #E72122",
"4.	c #E92424",
"5.	c #EB2626",
"6.	c #ED2828",
"7.	c #EF2A2A",
"8.	c #F12B2C",
"9.	c #F22D2D",
"0.	c #F32F2E",
"a.	c #F42E2E",
"b.	c #F42F2F",
"c.	c #F32D2D",
"d.	c #F12C2C",
"e.	c #EF2B2A",
"f.	c #EE2928",
"g.	c #EC2626",
"h.	c #EA2525",
"i.	c #E82322",
"j.	c #E52121",
"k.	c #E31E1E",
"l.	c #E11B1C",
"m.	c #DF1A1A",
"n.	c #DA1515",
"o.	c #D81213",
"p.	c #D30E0E",
"q.	c #D10C0C",
"r.	c #CE0909",
"s.	c #CC0909",
"t.	c #CC0808",
"u.	c #CE0B0B",
"v.	c #D00E0E",
"w.	c #D31010",
"x.	c #D51312",
"y.	c #D81515",
"z.	c #DA1718",
"A.	c #DC1919",
"B.	c #DF1C1C",
"C.	c #E11E1E",
"D.	c #E42120",
"E.	c #E62323",
"F.	c #E82625",
"G.	c #EA2827",
"H.	c #EC292A",
"I.	c #EF2B2C",
"J.	c #F12D2E",
"K.	c #F32F2F",
"L.	c #F43132",
"M.	c #F53233",
"N.	c #F63334",
"O.	c #F63434",
"P.	c #F63233",
"Q.	c #F53232",
"R.	c #F33130",
"S.	c #F12F2E",
"T.	c #EF2C2D",
"U.	c #ED2B2A",
"V.	c #EB2828",
"W.	c #E92626",
"X.	c #E62423",
"Y.	c #E42221",
"Z.	c #E21F1E",
"`.	c #DF1C1D",
" +	c #DD1A1B",
".+	c #DB1817",
"++	c #D81516",
"@+	c #D61313",
"#+	c #D31110",
"$+	c #D10E0E",
"%+	c #CF0C0C",
"&+	c #CD0D0C",
"*+	c #CC0B0C",
"=+	c #CC0C0B",
"-+	c #CE0E0E",
";+	c #D11111",
">+	c #D31312",
",+	c #D61515",
"'+	c #D81718",
")+	c #DB1A1A",
"!+	c #DD1C1D",
"~+	c #DF1F1F",
"{+	c #E22121",
"]+	c #E42324",
"^+	c #E62626",
"/+	c #E92929",
"(+	c #EB2A2A",
"_+	c #ED2D2D",
":+	c #F02F30",
"<+	c #F23131",
"[+	c #F43434",
"}+	c #F63535",
"|+	c #F83838",
"1+	c #F93838",
"2+	c #F93939",
"3+	c #F83738",
"4+	c #F63636",
"5+	c #F33333",
"6+	c #EE2D2D",
"7+	c #EC2C2C",
"8+	c #E72626",
"9+	c #E52424",
"0+	c #E22122",
"a+	c #E01F1F",
"b+	c #DE1D1D",
"c+	c #DB1B1A",
"d+	c #D91918",
"e+	c #D61616",
"f+	c #D41314",
"g+	c #CF0E0E",
"h+	c #CD0F0F",
"i+	c #CC0D0D",
"j+	c #CC0F0E",
"k+	c #CF1110",
"l+	c #D11413",
"m+	c #D41515",
"n+	c #D61818",
"o+	c #D81A1A",
"p+	c #DB1D1C",
"q+	c #DD1F1F",
"r+	c #E02121",
"s+	c #E22524",
"t+	c #E52726",
"u+	c #E72929",
"v+	c #E92B2B",
"w+	c #EC2D2D",
"x+	c #EE3130",
"y+	c #F13233",
"z+	c #F33435",
"A+	c #F53737",
"B+	c #F73A39",
"C+	c #F93B3B",
"D+	c #FB3D3D",
"E+	c #FA3C3C",
"F+	c #F83A3A",
"G+	c #F63737",
"H+	c #F33535",
"I+	c #F13333",
"J+	c #EF3030",
"K+	c #EC2E2E",
"L+	c #EA2C2C",
"M+	c #E82A2A",
"N+	c #E52727",
"O+	c #E32524",
"P+	c #E02222",
"Q+	c #DE1F1F",
"R+	c #DB1E1D",
"S+	c #D91B1B",
"T+	c #D61819",
"U+	c #D41616",
"V+	c #D21314",
"W+	c #CF1111",
"X+	c #CD1111",
"Y+	c #CC1010",
"Z+	c #CF1313",
"`+	c #D11515",
" @	c #D41918",
".@	c #D61A1B",
"+@	c #D91D1D",
"@@	c #DB1F1F",
"#@	c #DD2121",
"$@	c #E02424",
"%@	c #E22626",
"&@	c #E52929",
"*@	c #E72C2B",
"=@	c #EA2E2E",
"-@	c #EC3031",
";@	c #EE3232",
">@	c #F13535",
",@	c #F33837",
"'@	c #F6F6F6",
")@	c #F8F8F8",
"!@	c #FB3F3E",
"~@	c #FD4141",
"{@	c #FB403F",
"]@	c #F9F9F9",
"^@	c #F43838",
"/@	c #F23635",
"(@	c #EF3333",
"_@	c #ED3131",
":@	c #E82C2D",
"<@	c #E32727",
"[@	c #E12424",
"}@	c #DE2222",
"|@	c #DC2020",
"1@	c #D71B1B",
"2@	c #D21616",
"3@	c #CF1314",
"4@	c #CD1313",
"5@	c #CC1312",
"6@	c #CC1313",
"7@	c #CF1515",
"8@	c #D11818",
"9@	c #D41A1B",
"0@	c #D61D1C",
"a@	c #D91F1F",
"b@	c #DB2121",
"c@	c #DD2424",
"d@	c #E02726",
"e@	c #E22929",
"f@	c #E52B2B",
"g@	c #E72E2D",
"h@	c #EA3030",
"i@	c #EC3232",
"j@	c #EE3535",
"k@	c #F13737",
"l@	c #F33A3A",
"m@	c #F63C3C",
"n@	c #FAFAFA",
"o@	c #FC4343",
"p@	c #FD4343",
"q@	c #FBFBFB",
"r@	c #F63D3D",
"s@	c #F43A3A",
"t@	c #F13938",
"u@	c #EF3535",
"v@	c #ED3333",
"w@	c #EA3130",
"x@	c #E82E2E",
"y@	c #E52C2C",
"z@	c #E32929",
"A@	c #E02727",
"B@	c #DE2424",
"C@	c #DC2222",
"D@	c #D9201F",
"E@	c #D71D1D",
"F@	c #D41B1B",
"G@	c #D21818",
"H@	c #CF1617",
"I@	c #CD1616",
"J@	c #CC1414",
"K@	c #CC1515",
"L@	c #CF1717",
"M@	c #D11A1A",
"N@	c #D31C1C",
"O@	c #D61F1F",
"P@	c #D82121",
"Q@	c #DB2323",
"R@	c #DD2626",
"S@	c #E02828",
"T@	c #E22B2B",
"U@	c #E52D2D",
"V@	c #E73030",
"W@	c #E93232",
"X@	c #EC3434",
"Y@	c #EE3737",
"Z@	c #F03939",
"`@	c #F33B3C",
" #	c #F53E3E",
".#	c #F74040",
"+#	c #F84040",
"@#	c #F33C3C",
"##	c #F13A3A",
"$#	c #EF3737",
"%#	c #EC3535",
"&#	c #EA3333",
"*#	c #E52E2E",
"=#	c #E32B2B",
"-#	c #E02929",
";#	c #DE2727",
">#	c #DB2424",
",#	c #D92222",
"'#	c #D41D1D",
")#	c #D21B1A",
"!#	c #CF1818",
"~#	c #CD1817",
"{#	c #CC1717",
"]#	c #CE1A1A",
"^#	c #D11C1C",
"/#	c #D31E1E",
"(#	c #D62121",
"_#	c #D82323",
":#	c #DA2626",
"<#	c #DD2828",
"[#	c #DF2A2A",
"}#	c #E22D2D",
"|#	c #E42F2F",
"1#	c #E63231",
"2#	c #E93434",
"3#	c #EB3636",
"4#	c #ED3938",
"5#	c #EF3B3A",
"6#	c #F23D3D",
"7#	c #F43F3E",
"8#	c #F54141",
"9#	c #F74242",
"0#	c #F74343",
"a#	c #F64141",
"b#	c #F43F3F",
"c#	c #F03B3B",
"d#	c #EE3939",
"e#	c #EC3637",
"f#	c #E73232",
"g#	c #E43030",
"h#	c #E02B2B",
"i#	c #DD2929",
"j#	c #DB2626",
"k#	c #D92424",
"l#	c #D41E1F",
"m#	c #D11D1D",
"n#	c #CF1A1A",
"o#	c #CC1A1A",
"p#	c #CC1918",
"q#	c #CC1919",
"r#	c #CE1C1B",
"s#	c #D01D1E",
"t#	c #D32020",
"u#	c #D52323",
"v#	c #D82525",
"w#	c #DA2727",
"x#	c #DC292A",
"y#	c #DF2C2C",
"z#	c #E12E2F",
"A#	c #E33031",
"B#	c #E63333",
"C#	c #E83535",
"D#	c #EA3838",
"E#	c #EC3A3A",
"F#	c #EE3C3C",
"G#	c #F03E3E",
"H#	c #F2403F",
"I#	c #F44141",
"J#	c #F5F5F5",
"K#	c #F44242",
"L#	c #F24040",
"M#	c #F13E3E",
"N#	c #EF3C3C",
"O#	c #ED3A3A",
"P#	c #EB3838",
"Q#	c #E83636",
"R#	c #E63434",
"S#	c #E43131",
"T#	c #E12F2F",
"U#	c #DF2D2C",
"V#	c #DD2A2A",
"W#	c #DB2727",
"X#	c #D82626",
"Y#	c #D62323",
"Z#	c #D32121",
"`#	c #D11E1F",
" $	c #CF1C1B",
".$	c #CC1C1B",
"+$	c #CC1B1B",
"@$	c #CE1D1D",
"#$	c #D0201F",
"$$	c #D22222",
"%$	c #D52524",
"&$	c #D72626",
"*$	c #D92928",
"=$	c #DC2B2C",
"-$	c #DE2E2E",
";$	c #E02F30",
">$	c #E23232",
",$	c #E53434",
"'$	c #E73737",
")$	c #E93938",
"!$	c #EB3B3A",
"~$	c #ED3D3C",
"{$	c #EF3E3F",
"]$	c #F04040",
"^$	c #F2F2F2",
"/$	c #F3F3F3",
"($	c #F34343",
"_$	c #F14141",
":$	c #EF3F3F",
"<$	c #EB3B3B",
"[$	c #E93939",
"}$	c #E33333",
"|$	c #E13131",
"1$	c #DC2C2B",
"2$	c #DA2A2A",
"3$	c #D72827",
"4$	c #D52425",
"5$	c #D32323",
"6$	c #D02021",
"7$	c #CE1E1E",
"8$	c #CC1E1E",
"9$	c #CC1D1E",
"0$	c #CD1E1F",
"a$	c #CF2121",
"b$	c #D12424",
"c$	c #D42626",
"d$	c #D62929",
"e$	c #D82A2A",
"f$	c #DB2C2D",
"g$	c #DD2F2F",
"h$	c #DF3131",
"i$	c #E13334",
"j$	c #E33635",
"k$	c #E63737",
"l$	c #E8393A",
"m$	c #E93C3B",
"n$	c #EB3D3E",
"o$	c #ED3F3F",
"p$	c #EEEEEE",
"q$	c #EFF0EF",
"r$	c #F04243",
"s$	c #F14342",
"t$	c #F14343",
"u$	c #F0F0F0",
"v$	c #EFEFEF",
"w$	c #ED3F40",
"x$	c #EC3E3E",
"y$	c #EA3C3C",
"z$	c #E83A3A",
"A$	c #E63838",
"B$	c #E43636",
"C$	c #E23434",
"D$	c #E03132",
"E$	c #DD3030",
"F$	c #DB2D2E",
"G$	c #D92B2B",
"H$	c #D72828",
"I$	c #D42726",
"J$	c #D22425",
"K$	c #D02122",
"L$	c #CD201F",
"M$	c #CC2020",
"N$	c #CC2021",
"O$	c #CE2322",
"P$	c #D12626",
"Q$	c #D32728",
"R$	c #D5292A",
"S$	c #D82B2C",
"T$	c #DA2E2E",
"U$	c #DC3131",
"V$	c #DE3233",
"W$	c #E03535",
"X$	c #E23636",
"Y$	c #E43838",
"Z$	c #E63B3B",
"`$	c #E83D3C",
" %	c #EA3E3E",
".%	c #EB3F3F",
"+%	c #EC4140",
"@%	c #ED4241",
"#%	c #EE4343",
"$%	c #EE4342",
"%%	c #EE4243",
"&%	c #EE4142",
"*%	c #ED4040",
"=%	c #EB3F40",
"-%	c #EA3F3F",
";%	c #E83D3D",
">%	c #E63B3A",
",%	c #E53939",
"'%	c #E33737",
")%	c #E13535",
"!%	c #DF3233",
"~%	c #DA2E2F",
"{%	c #D82D2C",
"]%	c #D62B2B",
"^%	c #D42828",
"/%	c #D12625",
"(%	c #CF2323",
"_%	c #CD2122",
":%	c #CC2222",
"<%	c #CC2223",
"[%	c #CC2322",
"}%	c #CE2525",
"|%	c #D02727",
"1%	c #D22928",
"2%	c #D42B2B",
"3%	c #D72D2E",
"4%	c #D92F2F",
"5%	c #DB3132",
"6%	c #DD3434",
"7%	c #DF3535",
"8%	c #E13837",
"9%	c #E33A3A",
"0%	c #E43B3B",
"a%	c #E63D3D",
"b%	c #E73E3F",
"c%	c #E93F3F",
"d%	c #EA4041",
"e%	c #EB4241",
"f%	c #EC4243",
"g%	c #EC4242",
"h%	c #EC4342",
"i%	c #EB4242",
"j%	c #EA4141",
"k%	c #E94040",
"l%	c #E83E3E",
"m%	c #E63D3E",
"n%	c #E53C3C",
"o%	c #DF3636",
"p%	c #DB3232",
"q%	c #D9302F",
"r%	c #D52C2C",
"s%	c #D32A2A",
"t%	c #D02828",
"u%	c #CC2524",
"v%	c #CC2424",
"w%	c #CD2625",
"x%	c #CF2828",
"y%	c #D12A2A",
"z%	c #D32C2C",
"A%	c #D52F2E",
"B%	c #D73031",
"C%	c #D93233",
"D%	c #DB3434",
"E%	c #DD3636",
"F%	c #DF3938",
"G%	c #E13A3A",
"H%	c #E33C3B",
"I%	c #E43E3D",
"J%	c #E53E3E",
"K%	c #E74040",
"L%	c #E84141",
"M%	c #E94141",
"N%	c #E94242",
"O%	c #EA4242",
"P%	c #EA4243",
"Q%	c #E84241",
"R%	c #E63F3F",
"S%	c #E53E3D",
"T%	c #E33C3D",
"U%	c #E03938",
"V%	c #DE3737",
"W%	c #DC3535",
"X%	c #DA3333",
"Y%	c #D83131",
"Z%	c #D62F2F",
"`%	c #D42C2D",
" &	c #CF2829",
".&	c #CD2627",
"+&	c #CC2827",
"@&	c #CC2828",
"#&	c #CC2727",
"$&	c #CE292A",
"%&	c #D02B2B",
"&&	c #D22E2E",
"*&	c #D42F2F",
"=&	c #D63231",
"-&	c #D83333",
";&	c #DA3535",
">&	c #DC3838",
",&	c #DE3939",
"'&	c #DF3A3A",
")&	c #E13C3C",
"!&	c #E23D3D",
"~&	c #E33F3F",
"{&	c #E54140",
"]&	c #E64141",
"^&	c #E64142",
"/&	c #E74342",
"(&	c #E74242",
"_&	c #E64242",
":&	c #E54040",
"<&	c #E43F3F",
"[&	c #E23E3E",
"}&	c #E03B3B",
"|&	c #DC3738",
"1&	c #D83434",
"2&	c #D63232",
"3&	c #D53030",
"4&	c #D02C2C",
"5&	c #CE2929",
"6&	c #CC2929",
"7&	c #CC2A29",
"8&	c #CC2B2B",
"9&	c #CE2C2C",
"0&	c #D12F2F",
"a&	c #D33030",
"b&	c #D43233",
"c&	c #D63434",
"d&	c #D83636",
"e&	c #DA3838",
"f&	c #DC3939",
"g&	c #DD3B3B",
"h&	c #DF3C3C",
"i&	c #E03F3E",
"j&	c #E13F3F",
"k&	c #E24040",
"l&	c #E34241",
"m&	c #E44242",
"n&	c #E54342",
"o&	c #E54242",
"p&	c #E34141",
"q&	c #E34040",
"r&	c #E23F3F",
"s&	c #E03E3E",
"t&	c #DF3D3D",
"u&	c #DE3B3B",
"v&	c #DC3A3B",
"w&	c #DA3939",
"x&	c #D93636",
"y&	c #D73435",
"z&	c #D53333",
"A&	c #D33131",
"B&	c #CF2D2D",
"C&	c #CD2B2B",
"D&	c #CD4243",
"E&	c #CD4242",
"F&	c #CD4342",
". . . . . . . . . . . . . . . . . . . . . . . . . . . . . . . . . . . . . . . . . . . . . ",
"+ + + + @ # $ % & * = - ; > , ' ) ! ~ { ] ] ^ / ] ] { ( ! _ ' , : < [ } * & | 1 2 @ + + + ",
"3 4 5 6 7 8 9 0 a b c d e f g h i j k l m n o o o p q r s t u v w x y z A B C D E F G 3 3 ",
"H H H I J K L M N O P Q R S T U V W X Y Z `  ...` +.@.#.$.%.&.T *.=.-.;.O >.,.'.).!.~.H H ",
"{.].{.^./.(._.:.<.[.}.|.1.2.3.4.5.6.7.8.9.0.a.b.0.c.d.e.f.g.h.i.j.k.l.m.[.n.o._.p.q.r.{.{.",
"s.s.t.u.v.w.x.y.z.A.B.C.D.E.F.G.H.I.J.K.L.M.N.O.P.Q.R.S.T.U.V.W.X.Y.Z.`. +.+++@+#+$+%+s.s.",
"&+*+=+-+;+>+,+'+)+!+~+{+]+^+/+(+_+:+<+[+}+|+1+2+3+4+[+5+:+6+7+/+8+9+0+a+b+c+d+e+f+;+g+&+&+",
"h+i+j+k+l+m+n+o+p+q+r+s+t+u+v+w+x+y+z+A+B+C+D+D+E+F+G+H+I+J+K+L+M+N+O+P+Q+R+S+T+U+V+W+h+h+",
"X+Y+Y+Z+`+ @.@+@@@#@$@%@&@*@=@-@;@>@,@'@)@!@~@~@{@]@'@^@/@(@_@=@:@&@<@[@}@|@+@1@ @2@3@X+X+",
"4@5@6@7@8@9@0@a@b@c@d@e@f@g@h@i@j@k@l@m@)@n@o@p@q@]@r@s@t@u@v@w@x@y@z@A@B@C@D@E@F@G@H@4@4@",
"I@J@K@L@M@N@O@P@Q@R@S@T@U@V@W@X@Y@Z@`@ #.#]@n@q@]@+# #@###$#%#&#V@*#=#-#;#>#,#O@'#)#!#I@I@",
"~#{#{#]#^#/#(#_#:#<#[#}#|#1#2#3#4#5#6#7#8#9#)@)@0#a#b#6#c#d#e#2#f#g#}#h#i#j#k#(#l#m#n#~#~#",
"o#p#q#r#s#t#u#v#w#x#y#z#A#B#C#D#E#F#G#H#I#J#'@'@J#K#L#M#N#O#P#Q#R#S#T#U#V#W#X#Y#Z#`# $o#o#",
".$.$+$@$#$$$%$&$*$=$-$;$>$,$'$)$!$~${$]$^$/$($($/$^$_$:$~$<$[$'$,$}$|$-$1$2$3$4$5$6$7$.$.$",
"8$9$8$0$a$b$c$d$e$f$g$h$i$j$k$l$m$n$o$p$q$r$s$t$r$u$v$w$x$y$z$A$B$C$D$E$F$G$H$I$J$K$L$8$8$",
"M$M$M$N$O$P$Q$R$S$T$U$V$W$X$Y$Z$`$ %.%+%@%#%$%#%%%&%*%=%-%;%>%,%'%)%!%U$~%{%]%^%/%(%_%M$M$",
":%<%<%[%}%|%1%2%3%4%5%6%7%8%9%0%a%b%c%d%e%f%g%g%h%i%j%k%l%m%n%9%8%o%6%p%q%3%r%s%t%}%:%:%:%",
"u%v%u%v%w%x%y%z%A%B%C%D%E%F%G%H%I%J%K%L%M%N%O%P%N%N%Q%K%R%S%T%G%U%V%W%X%Y%Z%`%y% &.&v%u%u%",
"+&@&#&#&#&$&%&&&*&=&-&;&>&,&'&)&!&~&{&]&^&/&(&(&(&_&^&:&<&[&)&}&,&|&;&1&2&3&&&4&5&+&#&+&+&",
"6&6&7&6&6&8&9&0&a&b&c&d&e&f&g&h&i&j&k&l&m&m&n&o&o&m&p&q&r&s&t&u&v&w&x&y&z&A&0&B&C&6&6&6&6&",
"D&D&E&F&D&E&F&E&E&E&D&E&F&E&E&E&E&E&E&F&D&E&F&E&E&E&D&F&E&D&E&E&E&E&E&D&E&E&E&E&E&E&E&D&D&"};
