/* XPM */
static char * close_prelight_xpm[] = {
"45 21 648 2",
"  	c None",
". 	c #D33939",
"+ 	c #B53131",
"@ 	c #B73333",
"# 	c #B93535",
"$ 	c #BB3737",
"% 	c #BD393A",
"& 	c #C03C3C",
"* 	c #C23E3E",
"= 	c #C44040",
"- 	c #C64242",
"; 	c #C84444",
"> 	c #CA4646",
", 	c #CC4848",
"' 	c #CE4A4A",
") 	c #CF4B4B",
"! 	c #D14D4D",
"~ 	c #D24E4E",
"{ 	c #D45050",
"] 	c #D55151",
"^ 	c #D65151",
"/ 	c #D65252",
"( 	c #D34F4F",
"_ 	c #D04C4C",
": 	c #CB4647",
"< 	c #C94545",
"[ 	c #C74342",
"} 	c #C54141",
"| 	c #BE3A3A",
"1 	c #BC3838",
"2 	c #BA3636",
"3 	c #DD1212",
"4 	c #DD1313",
"5 	c #DD1213",
"6 	c #DD1314",
"7 	c #E01615",
"8 	c #E21818",
"9 	c #E41A1B",
"0 	c #E71C1D",
"a 	c #E91E1E",
"b 	c #EB2121",
"c 	c #ED2323",
"d 	c #EF2626",
"e 	c #F12827",
"f 	c #F32A29",
"g 	c #F52C2B",
"h 	c #F72E2E",
"i 	c #F93030",
"j 	c #FB3130",
"k 	c #FC3333",
"l 	c #FE3334",
"m 	c #FF3535",
"n 	c #FF3536",
"o 	c #FF3636",
"p 	c #FE3435",
"q 	c #FD3333",
"r 	c #FB3232",
"s 	c #FA3030",
"t 	c #F82E2E",
"u 	c #F62C2C",
"v 	c #F42A2A",
"w 	c #F22828",
"x 	c #F02625",
"y 	c #EE2423",
"z 	c #EC2221",
"A 	c #E91F20",
"B 	c #E71D1D",
"C 	c #E51B1B",
"D 	c #E21919",
"E 	c #E01716",
"F 	c #DE1414",
"G 	c #DD1515",
"H 	c #DE1717",
"I 	c #E01818",
"J 	c #E31B1C",
"K 	c #E51D1E",
"L 	c #E71F20",
"M 	c #EA2222",
"N 	c #EC2525",
"O 	c #EE2626",
"P 	c #F02829",
"Q 	c #F32B2B",
"R 	c #F52D2E",
"S 	c #F72F2F",
"T 	c #F93132",
"U 	c #FB3434",
"V 	c #FD3535",
"W 	c #FE3736",
"X 	c #FF3938",
"Y 	c #FF3939",
"Z 	c #FF3B3A",
"` 	c #FF3A3B",
" .	c #FF3B3B",
"..	c #FF393A",
"+.	c #FF3839",
"@.	c #FF3737",
"#.	c #FD3636",
"$.	c #FB3334",
"%.	c #F93232",
"&.	c #F52D2D",
"*.	c #F32C2C",
"=.	c #F12A29",
"-.	c #EF2728",
";.	c #EA2323",
">.	c #E82121",
",.	c #E61E1E",
"'.	c #E31C1C",
").	c #E11A1A",
"!.	c #DF1717",
"~.	c #DD1718",
"{.	c #DD1818",
"].	c #DF1919",
"^.	c #E11B1C",
"/.	c #E31F1E",
"(.	c #E62121",
"_.	c #E82223",
":.	c #EA2625",
"<.	c #ED2828",
"[.	c #EF2A29",
"}.	c #F12D2C",
"|.	c #F42F2E",
"1.	c #F63031",
"2.	c #F83233",
"3.	c #FA3535",
"4.	c #FC3737",
"5.	c #FE3939",
"6.	c #FF3C3D",
"7.	c #FF3E3E",
"8.	c #FF403F",
"9.	c #FF3F3F",
"0.	c #FF4040",
"a.	c #FF3D3D",
"b.	c #FF3C3B",
"c.	c #FF3A39",
"d.	c #FD3737",
"e.	c #FB3636",
"f.	c #F93433",
"g.	c #F63232",
"h.	c #F42F2F",
"i.	c #F22C2D",
"j.	c #F02B2B",
"k.	c #EB2626",
"l.	c #E92324",
"m.	c #E41F1F",
"n.	c #E21D1D",
"o.	c #DF1A1A",
"p.	c #DD1A1A",
"q.	c #DD1919",
"r.	c #DF1C1C",
"s.	c #E11F1F",
"t.	c #E42121",
"u.	c #E62423",
"v.	c #E92626",
"w.	c #EB2829",
"x.	c #ED2A2A",
"y.	c #F02D2D",
"z.	c #F22F2F",
"A.	c #F53231",
"B.	c #F73434",
"C.	c #F93736",
"D.	c #FB3938",
"E.	c #FD3A3B",
"F.	c #FF3E3F",
"G.	c #FF4243",
"H.	c #FF4344",
"I.	c #FF4445",
"J.	c #FF4545",
"K.	c #FF4343",
"L.	c #FF4241",
"M.	c #FF3D3E",
"N.	c #FE3C3B",
"O.	c #FC3939",
"P.	c #FA3737",
"Q.	c #F73534",
"R.	c #F53332",
"S.	c #F3302F",
"T.	c #F02D2E",
"U.	c #EE2B2C",
"V.	c #EC2928",
"W.	c #E92627",
"X.	c #E72424",
"Y.	c #E42221",
"Z.	c #E21F1F",
"`.	c #E01D1D",
" +	c #DE1E1D",
".+	c #DD1C1D",
"++	c #DD1D1C",
"@+	c #DF1F1F",
"#+	c #E22222",
"$+	c #E42423",
"%+	c #E72626",
"&+	c #E92829",
"*+	c #EC2B2B",
"=+	c #EE2D2E",
"-+	c #F03030",
";+	c #F33232",
">+	c #F53435",
",+	c #F73737",
"'+	c #FA3A3A",
")+	c #FC3B3B",
"!+	c #FE3E3E",
"~+	c #FF4041",
"{+	c #FF4242",
"]+	c #FF4646",
"^+	c #FF4949",
"/+	c #FF4A4A",
"(+	c #FF4849",
"_+	c #FF4747",
":+	c #FF4444",
"<+	c #FD3D3D",
"[+	c #F83737",
"}+	c #F63535",
"|+	c #F33233",
"1+	c #F13030",
"2+	c #EF2E2E",
"3+	c #EC2C2B",
"4+	c #EA2A29",
"5+	c #E72727",
"6+	c #E52425",
"7+	c #E01F1F",
"8+	c #DE2020",
"9+	c #DD1E1E",
"0+	c #DD201F",
"a+	c #E02221",
"b+	c #E22524",
"c+	c #E52626",
"d+	c #E72929",
"e+	c #E92B2B",
"f+	c #EC2E2D",
"g+	c #EE3030",
"h+	c #F13232",
"i+	c #F33635",
"j+	c #F63837",
"k+	c #F83A3A",
"l+	c #FA3C3C",
"m+	c #FD3E3E",
"n+	c #FF4546",
"o+	c #FF4848",
"p+	c #FF4B4A",
"q+	c #FF4C4C",
"r+	c #FF4E4E",
"s+	c #FF4D4D",
"t+	c #FF4B4B",
"u+	c #FF4141",
"v+	c #FD3F3F",
"w+	c #FB3D3D",
"x+	c #F93B3B",
"y+	c #F63838",
"z+	c #F43635",
"A+	c #F13333",
"B+	c #EF3030",
"C+	c #EC2F2E",
"D+	c #EA2C2C",
"E+	c #E7292A",
"F+	c #E52727",
"G+	c #E32425",
"H+	c #E02222",
"I+	c #DE2222",
"J+	c #DD2121",
"K+	c #E02424",
"L+	c #E22626",
"M+	c #E52A29",
"N+	c #E72B2C",
"O+	c #EA2E2E",
"P+	c #EC3030",
"Q+	c #EE3232",
"R+	c #F13535",
"S+	c #F33737",
"T+	c #F63A3A",
"U+	c #F83D3C",
"V+	c #FB3F3F",
"W+	c #FD4142",
"X+	c #FF4948",
"Y+	c #FFFFFF",
"Z+	c #FF504F",
"`+	c #FF5252",
" @	c #FF5150",
".@	c #FF4746",
"+@	c #FE4242",
"@@	c #F93D3E",
"#@	c #F43838",
"$@	c #F23535",
"%@	c #EF3333",
"&@	c #ED3131",
"*@	c #E82C2C",
"=@	c #E32727",
"-@	c #E02425",
";@	c #DE2424",
">@	c #DD2423",
",@	c #DD2424",
"'@	c #E02626",
")@	c #E22929",
"!@	c #E52B2C",
"~@	c #E72E2D",
"{@	c #EA3030",
"]@	c #EC3232",
"^@	c #EE3535",
"/@	c #F13837",
"(@	c #F33A3A",
"_@	c #F63C3C",
":@	c #F83F3E",
"<@	c #FB4141",
"[@	c #FD4343",
"}@	c #FF5454",
"|@	c #FF4A49",
"1@	c #FE4444",
"2@	c #FB4241",
"3@	c #F93F3F",
"4@	c #F63D3D",
"5@	c #F43A3A",
"6@	c #F13838",
"7@	c #EF3535",
"8@	c #ED3333",
"9@	c #EA3130",
"0@	c #E82E2E",
"a@	c #E52C2C",
"b@	c #E32929",
"c@	c #E02728",
"d@	c #DE2727",
"e@	c #DD2525",
"f@	c #DD2626",
"g@	c #E02828",
"h@	c #E22B2B",
"i@	c #E42D2D",
"j@	c #E73030",
"k@	c #E93232",
"l@	c #EC3434",
"m@	c #EE3737",
"n@	c #F13939",
"o@	c #F33C3C",
"p@	c #F63E3E",
"q@	c #F84141",
"r@	c #FA4343",
"s@	c #FD4545",
"t@	c #FF4C4D",
"u@	c #FF4F4F",
"v@	c #FF5151",
"w@	c #FD4646",
"x@	c #FB4444",
"y@	c #F63F3F",
"z@	c #F43C3C",
"A@	c #F13A3A",
"B@	c #EF3838",
"C@	c #EC3535",
"D@	c #EA3333",
"E@	c #E52E2E",
"F@	c #E32C2B",
"G@	c #E02929",
"H@	c #DE2928",
"I@	c #DD2828",
"J@	c #DF2B2B",
"K@	c #E22D2D",
"L@	c #E42F2F",
"M@	c #E73232",
"N@	c #E93434",
"O@	c #EB3737",
"P@	c #EE3939",
"Q@	c #F03B3B",
"R@	c #F33E3E",
"S@	c #F54040",
"T@	c #F74342",
"U@	c #FA4545",
"V@	c #FC4747",
"W@	c #FE4A49",
"X@	c #FF4C4B",
"Y@	c #FF5353",
"Z@	c #FF5050",
"`@	c #FD4748",
" #	c #F84343",
".#	c #F54141",
"+#	c #F13C3C",
"@#	c #EE3A3A",
"##	c #EC3737",
"$#	c #EA3535",
"%#	c #E52F30",
"&#	c #E22E2E",
"*#	c #E02B2B",
"=#	c #DD2B2B",
"-#	c #DD2A29",
";#	c #DD2A2A",
">#	c #DF2D2C",
",#	c #E12E2F",
"'#	c #E43131",
")#	c #E63434",
"!#	c #E93636",
"~#	c #EB3838",
"{#	c #ED3A3B",
"]#	c #F03D3D",
"^#	c #F23F40",
"/#	c #F44142",
"(#	c #F74444",
"_#	c #F94646",
":#	c #FB4949",
"<#	c #FD4B4B",
"[#	c #FE4B4B",
"}#	c #FC4949",
"|#	c #F94747",
"1#	c #F74545",
"2#	c #F54242",
"3#	c #F24040",
"4#	c #F03E3D",
"5#	c #EE3B3B",
"6#	c #EC3838",
"7#	c #E93737",
"8#	c #E73434",
"9#	c #E43232",
"0#	c #E22F30",
"a#	c #E02D2C",
"b#	c #DD2D2C",
"c#	c #DD2C2C",
"d#	c #DF2E2E",
"e#	c #E13130",
"f#	c #E33333",
"g#	c #E63635",
"h#	c #E83737",
"i#	c #EA3A39",
"j#	c #ED3C3D",
"k#	c #EF3F3F",
"l#	c #F14041",
"m#	c #F34343",
"n#	c #F64545",
"o#	c #F84848",
"p#	c #FA4A49",
"q#	c #FC4C4B",
"r#	c #FE4E4D",
"s#	c #FF4F50",
"t#	c #FC4C4C",
"u#	c #FA4A4A",
"v#	c #F44444",
"w#	c #F24242",
"x#	c #ED3D3C",
"y#	c #EB3B3B",
"z#	c #E83938",
"A#	c #E63536",
"B#	c #E43434",
"C#	c #E13132",
"D#	c #DF2F2F",
"E#	c #DD2F2F",
"F#	c #DD2E2F",
"G#	c #DE2F30",
"H#	c #E03232",
"I#	c #E23535",
"J#	c #E53737",
"K#	c #E73A3A",
"L#	c #E93B3B",
"M#	c #EC3D3E",
"N#	c #EE4040",
"O#	c #F04242",
"P#	c #F24445",
"Q#	c #F44746",
"R#	c #F74848",
"S#	c #F94A4B",
"T#	c #FA4D4C",
"U#	c #FC4E4F",
"V#	c #FE5050",
"W#	c #FF5354",
"X#	c #FF5453",
"Y#	c #FE5051",
"Z#	c #FD4F4F",
"`#	c #FB4D4D",
" $	c #F94B4B",
".$	c #F74949",
"+$	c #F54747",
"@$	c #F34545",
"#$	c #F14243",
"$$	c #EE4141",
"%$	c #EC3E3F",
"&$	c #EA3C3C",
"*$	c #E83939",
"=$	c #E53837",
"-$	c #E33536",
";$	c #E13233",
">$	c #DE3130",
",$	c #DD3131",
"'$	c #DD3132",
")$	c #DF3433",
"!$	c #E23737",
"~$	c #E43839",
"{$	c #E63A3B",
"]$	c #E93C3D",
"^$	c #EB3F3F",
"/$	c #ED4242",
"($	c #EF4344",
"_$	c #F14646",
":$	c #F34747",
"<$	c #F54949",
"[$	c #F74C4C",
"}$	c #F94E4D",
"|$	c #FB4F4F",
"1$	c #FC5050",
"2$	c #FD5251",
"3$	c #FE5352",
"4$	c #FF5253",
"5$	c #FE5151",
"6$	c #FC5051",
"7$	c #FB5050",
"8$	c #F94E4E",
"9$	c #F74C4B",
"0$	c #F64A4A",
"a$	c #F44848",
"b$	c #F24646",
"c$	c #F04344",
"d$	c #EB3F40",
"e$	c #E93E3D",
"f$	c #E73C3C",
"g$	c #E53939",
"h$	c #E23736",
"i$	c #E03434",
"j$	c #DE3233",
"k$	c #DD3333",
"l$	c #DD3334",
"m$	c #DD3433",
"n$	c #DF3636",
"o$	c #E13838",
"p$	c #E33A39",
"q$	c #E53C3C",
"r$	c #E83E3F",
"s$	c #EA4040",
"t$	c #EC4243",
"u$	c #EE4545",
"v$	c #F04646",
"w$	c #F24948",
"x$	c #F44B4B",
"y$	c #F54C4C",
"z$	c #F74E4E",
"A$	c #F84F50",
"B$	c #FA5050",
"C$	c #FB5152",
"D$	c #FC5352",
"E$	c #FD5354",
"F$	c #FD5353",
"G$	c #FD5453",
"H$	c #FC5353",
"I$	c #FB5252",
"J$	c #FA5151",
"K$	c #F94F4F",
"L$	c #F74E4F",
"M$	c #F64D4D",
"N$	c #F04747",
"O$	c #EC4343",
"P$	c #EA4140",
"Q$	c #E63D3D",
"R$	c #E43B3B",
"S$	c #E13939",
"T$	c #DD3635",
"U$	c #DD3535",
"V$	c #DE3736",
"W$	c #E03939",
"X$	c #E23B3B",
"Y$	c #E43D3D",
"Z$	c #E6403F",
"`$	c #E84142",
" %	c #EA4344",
".%	c #EC4545",
"+%	c #EE4747",
"@%	c #F04A49",
"#%	c #F24B4B",
"$%	c #F44D4C",
"%%	c #F54F4E",
"&%	c #F64F4F",
"*%	c #F85151",
"=%	c #F95252",
"-%	c #FA5252",
";%	c #FA5353",
">%	c #FB5353",
",%	c #FB5354",
"'%	c #F95352",
")%	c #F75050",
"!%	c #F64F4E",
"~%	c #F44D4E",
"{%	c #F14A49",
"]%	c #EF4848",
"^%	c #ED4646",
"/%	c #EB4444",
"(%	c #E94242",
"_%	c #E74040",
":%	c #E53D3E",
"<%	c #E0393A",
"[%	c #DE3738",
"}%	c #DD3938",
"|%	c #DD3939",
"1%	c #DD3838",
"2%	c #DF3A3B",
"3%	c #E13C3C",
"4%	c #E33F3F",
"5%	c #E54040",
"6%	c #E74342",
"7%	c #E94444",
"8%	c #EB4646",
"9%	c #ED4949",
"0%	c #EF4A4A",
"a%	c #F04B4B",
"b%	c #F24D4D",
"c%	c #F34E4E",
"d%	c #F45050",
"e%	c #F65251",
"f%	c #F75252",
"g%	c #F75253",
"h%	c #F85453",
"i%	c #F85353",
"j%	c #F75353",
"k%	c #F65151",
"l%	c #F55050",
"m%	c #F34F4F",
"n%	c #F14C4C",
"o%	c #ED4849",
"p%	c #E94545",
"q%	c #E74343",
"r%	c #E64141",
"s%	c #E13D3D",
"t%	c #DF3A3A",
"u%	c #DD3A3A",
"v%	c #DD3B3A",
"w%	c #DD3C3C",
"x%	c #DF3D3D",
"y%	c #E24040",
"z%	c #E44141",
"A%	c #E54344",
"B%	c #E74545",
"C%	c #E94747",
"D%	c #EB4949",
"E%	c #ED4A4A",
"F%	c #EE4C4C",
"G%	c #F04D4D",
"H%	c #F1504F",
"I%	c #F25050",
"J%	c #F35151",
"K%	c #F45352",
"L%	c #F55353",
"M%	c #F65453",
"N%	c #F65353",
"O%	c #F45252",
"P%	c #F45151",
"Q%	c #F35050",
"R%	c #F14F4F",
"S%	c #F04E4E",
"T%	c #EF4C4C",
"U%	c #ED4B4C",
"V%	c #EB4A4A",
"W%	c #EA4747",
"X%	c #E84546",
"Y%	c #E64444",
"Z%	c #E44242",
"`%	c #E03E3E",
" &	c #DE3C3C",
".&	c #DE5354",
"+&	c #DE5353",
"@&	c #DE5453",
". . . . . . . . . . . . . . . . . . . . . . . . . . . . . . . . . . . . . . . . . . . . . ",
"+ + + + @ # $ % & * = - ; > , ' ) ! ~ { ] ] ^ / ] ] { ( ! _ ' , : < [ } * & | 1 2 @ + + + ",
"3 4 5 6 7 8 9 0 a b c d e f g h i j k l m n o o o o p q r s t u v w x y z A B C D E F 3 3 ",
"G G G H I J K L M N O P Q R S T U V W X Y Z `  .Z ..+.@.#.$.%.S &.*.=.-.N ;.>.,.'.).!.G G ",
"~.{.~.].^./.(._.:.<.[.}.|.1.2.3.4.5. .6.7.8.9.0.8.7.a.b.c.d.e.f.g.h.i.j.<.k.l.(.m.n.o.~.~.",
"p.p.q.r.s.t.u.v.w.x.y.z.A.B.C.D.E.6.F.0.G.H.I.J.H.K.L.8.M.N.O.P.Q.R.S.T.U.V.W.X.Y.Z.`.p.p.",
" +.+++@+#+$+%+&+*+=+-+;+>+,+'+)+!+~+{+J.]+^+^+/+(+_+J.:+~+7.<+'+[+}+|+1+2+3+4+5+6+#+7+ + +",
"8+9+0+a+b+c+d+e+f+g+h+i+j+k+l+m+L.H.n+o+p+q+r+r+s+t+o+]+:+u+v+w+x+y+z+A+B+C+D+E+F+G+H+8+8+",
"I+J+J+K+L+M+N+O+P+Q+R+S+T+U+V+W+K.]+X+Y+Y+Z+`+`+ @Y+Y+^+.@:++@V+@@T+#@$@%@&@O+*@M+=@-@I+I+",
";@>@,@'@)@!@~@{@]@^@/@(@_@:@<@[@]+o+t+s+Y+Y+}@}@Y+Y+r+t+|@]+1@2@3@4@5@6@7@8@9@0@a@b@c@;@;@",
"d@e@f@g@h@i@j@k@l@m@n@o@p@q@r@s@o+/+t@u@v@Y+Y+Y+Y+v@u@s+t+o+w@x@q@y@z@A@B@C@D@j@E@F@G@d@d@",
"H@I@I@J@K@L@M@N@O@P@Q@R@S@T@U@V@W@X@r+Z+`+Y@Y+Y+}@`+Z@r+q+/+`@U@ #.#R@+#@###$#M@%#&#*#H@H@",
"=#-#;#>#,#'#)#!#~#{#]#^#/#(#_#:#<#s+u@ @`+Y+Y+Y+Y+Y@v@u@s+[#}#|#1#2#3#4#5#6#7#8#9#0#a#=#=#",
"b#b#c#d#e#f#g#h#i#j#k#l#m#n#o#p#q#r#s#v@Y+Y+}@}@Y+Y+`+Z@r#t#u#o#n#v#w#k#x#y#z#A#B#C#D#b#b#",
"E#F#E#G#H#I#J#K#L#M#N#O#P#Q#R#S#T#U#V#Y+Y+W#X#}@W#Y+Y+Y#Z#`# $.$+$@$#$$$%$&$*$=$-$;$>$E#E#",
",$,$,$'$)$!$~${$]$^$/$($_$:$<$[$}$|$1$2$3$}@X#}@W#4$5$6$7$8$9$0$a$b$c$/$d$e$f$g$h$i$j$,$,$",
"k$l$l$m$n$o$p$q$r$s$t$u$v$w$x$y$z$A$B$C$D$E$F$F$G$H$I$J$K$L$M$x$w$N$u$O$P$r$Q$R$S$n$k$k$k$",
"T$U$T$U$V$W$X$Y$Z$`$ %.%+%@%#%$%%%&%*%=%-%;%>%,%;%;%'%*%)%!%~%#%{%]%^%/%(%_%:%X$<%[%U$T$T$",
"}%|%1%1%1%2%3%4%5%6%7%8%9%0%a%b%c%d%e%f%g%h%i%i%i%j%g%k%l%m%b%n%0%o%8%p%q%r%4%s%t%}%1%}%}%",
"u%u%v%u%u%w%x%y%z%A%B%C%D%E%F%G%H%I%J%K%L%L%M%N%N%L%O%P%Q%R%S%T%U%V%W%X%Y%Z%y%`% &u%u%u%u%",
".&.&+&@&.&+&@&+&+&+&.&+&@&+&+&+&+&+&+&@&.&+&@&+&+&+&.&@&+&.&+&+&+&+&+&.&+&+&+&+&+&+&+&.&.&"};
