/* XPM */
static char * close_pressed_xpm[] = {
"45 21 571 2",
"  	c None",
". 	c #860E0E",
"+ 	c #6E0808",
"@ 	c #700A0A",
"# 	c #710B0B",
"$ 	c #730D0D",
"% 	c #750E0F",
"& 	c #771111",
"* 	c #781212",
"= 	c #7A1414",
"- 	c #7C1515",
"; 	c #7D1717",
"> 	c #7F1818",
", 	c #801A1A",
"' 	c #821B1B",
") 	c #831C1C",
"! 	c #841E1E",
"~ 	c #851E1E",
"{ 	c #862020",
"] 	c #872121",
"^ 	c #882121",
"/ 	c #882222",
"( 	c #861F1F",
"_ 	c #831D1D",
": 	c #7F1819",
"< 	c #7E1717",
"[ 	c #7C1615",
"} 	c #7B1414",
"| 	c #750F0F",
"1 	c #740D0D",
"2 	c #720C0C",
"3 	c #8D0000",
"4 	c #900000",
"5 	c #910000",
"6 	c #930000",
"7 	c #950000",
"8 	c #970000",
"9 	c #980000",
"0 	c #9A0000",
"a 	c #9B0000",
"b 	c #9D0100",
"c 	c #9E0302",
"d 	c #A00403",
"e 	c #A20606",
"f 	c #A30707",
"g 	c #A50807",
"h 	c #A50A0A",
"i 	c #A70A0A",
"j 	c #A80B0B",
"k 	c #A80B0C",
"l 	c #A90C0C",
"m 	c #A80C0C",
"n 	c #A70A0B",
"o 	c #A60A0A",
"p 	c #A50909",
"q 	c #A40707",
"r 	c #A10404",
"s 	c #9F0303",
"t 	c #9E0101",
"u 	c #9C0000",
"v 	c #990000",
"w 	c #940000",
"x 	c #8E0000",
"y 	c #920000",
"z 	c #9C0102",
"A 	c #9E0303",
"B 	c #A00506",
"C 	c #A30809",
"D 	c #A60B0B",
"E 	c #A70D0C",
"F 	c #A90E0D",
"G 	c #A90E0E",
"H 	c #AA100F",
"I 	c #AA0F10",
"J 	c #AA1010",
"K 	c #A90E0F",
"L 	c #A90D0E",
"M 	c #A80D0D",
"N 	c #A60C0C",
"O 	c #A30909",
"P 	c #A00505",
"Q 	c #9E0404",
"R 	c #9D0302",
"S 	c #9B0001",
"T 	c #960000",
"U 	c #8F0000",
"V 	c #9A0101",
"W 	c #9B0302",
"X 	c #9D0504",
"Y 	c #9F0606",
"Z 	c #A10708",
"` 	c #A2090A",
" .	c #A40B0B",
"..	c #A50D0D",
"+.	c #A70E0E",
"@.	c #A91010",
"#.	c #AA1111",
"$.	c #AB1212",
"%.	c #AC1413",
"&.	c #AC1313",
"*.	c #AC1414",
"=.	c #AC1212",
"-.	c #A91110",
";.	c #A80F0E",
">.	c #A60D0D",
",.	c #A50C0C",
"'.	c #A30A0A",
").	c #A10909",
"!.	c #9E0405",
"~.	c #9C0303",
"{.	c #980102",
"].	c #9A0303",
"^.	c #9C0505",
"/.	c #9E0606",
"(.	c #A00908",
"_.	c #A20A0A",
":.	c #A30D0C",
"<.	c #A50E0D",
"[.	c #A60F10",
"}.	c #A91111",
"|.	c #AA1213",
"1.	c #AC1516",
"2.	c #AD1617",
"3.	c #AE1717",
"4.	c #AE1617",
"5.	c #AD1616",
"6.	c #AC1514",
"7.	c #AA1413",
"8.	c #A91112",
"9.	c #A71110",
"0.	c #A50E0E",
"a.	c #A40D0D",
"b.	c #A20B0A",
"c.	c #A00A09",
"d.	c #9E0706",
"e.	c #9C0506",
"f.	c #9B0304",
"g.	c #990201",
"h.	c #970102",
"i.	c #990303",
"j.	c #9B0506",
"k.	c #9C0707",
"l.	c #9E0909",
"m.	c #A00A0B",
"n.	c #A20D0D",
"o.	c #A40F0F",
"p.	c #A51010",
"q.	c #A71212",
"r.	c #A91414",
"s.	c #AB1515",
"t.	c #AC1717",
"u.	c #AE1818",
"v.	c #AF1B1B",
"w.	c #B01B1B",
"x.	c #AF1A1B",
"y.	c #AE1919",
"z.	c #A81212",
"A.	c #A61111",
"B.	c #A10B0B",
"C.	c #9E090A",
"D.	c #9D0707",
"E.	c #9B0606",
"F.	c #990403",
"G.	c #970302",
"H.	c #950202",
"I.	c #970303",
"J.	c #990605",
"K.	c #9B0707",
"L.	c #9D0909",
"M.	c #9E0C0B",
"N.	c #A10D0D",
"O.	c #A20F0F",
"P.	c #A41111",
"Q.	c #A61212",
"R.	c #A81514",
"S.	c #AA1617",
"T.	c #AC1718",
"U.	c #AD1A1A",
"V.	c #AF1C1B",
"W.	c #B01D1D",
"X.	c #B21E1E",
"Y.	c #B11E1E",
"Z.	c #AF1C1C",
"`.	c #AE1A1A",
" +	c #AC1818",
".+	c #AA1717",
"++	c #A61313",
"@+	c #A51111",
"#+	c #A31010",
"$+	c #9F0C0B",
"%+	c #9D0A0A",
"&+	c #990606",
"*+	c #970404",
"=+	c #950203",
"-+	c #940302",
";+	c #950304",
">+	c #970606",
",+	c #990707",
"'+	c #9B0909",
")+	c #9D0B0B",
"!+	c #9E0D0D",
"~+	c #A10F0F",
"{+	c #A21111",
"]+	c #A51313",
"^+	c #A61415",
"/+	c #A81616",
"(+	c #AA1818",
"_+	c #AC1B1A",
":+	c #AEAEAE",
"<+	c #AFAFAF",
"[+	c #B2201F",
"}+	c #B32222",
"|+	c #B22120",
"1+	c #B0B0B0",
"2+	c #AC1B1B",
"3+	c #AB1918",
"4+	c #A91717",
"5+	c #A71515",
"6+	c #A31112",
"7+	c #9F0D0D",
"8+	c #9E0B0B",
"9+	c #9B0A0A",
"0+	c #9A0808",
"a+	c #960404",
"b+	c #910202",
"c+	c #940304",
"d+	c #950605",
"e+	c #970707",
"f+	c #990909",
"g+	c #9B0B0B",
"h+	c #9D0D0D",
"i+	c #9E0F0F",
"j+	c #A11111",
"k+	c #A21312",
"l+	c #A51414",
"m+	c #A61616",
"n+	c #A81818",
"o+	c #AA1A1A",
"p+	c #AC1C1C",
"q+	c #AE1E1E",
"r+	c #B1B1B1",
"s+	c #B32323",
"t+	c #B2B2B2",
"u+	c #AA1B1B",
"v+	c #A91818",
"w+	c #A71717",
"x+	c #A51514",
"y+	c #A31313",
"z+	c #9F0F0F",
"A+	c #9A0A0A",
"B+	c #970807",
"C+	c #960606",
"D+	c #940404",
"E+	c #920202",
"F+	c #900001",
"G+	c #900101",
"H+	c #910303",
"I+	c #930505",
"J+	c #950707",
"K+	c #970909",
"L+	c #990A0A",
"M+	c #9B0D0D",
"N+	c #9D0E0E",
"O+	c #9E1111",
"P+	c #A11212",
"Q+	c #A21414",
"R+	c #A41616",
"S+	c #A61717",
"T+	c #A81A1A",
"U+	c #A91B1B",
"V+	c #AC1D1E",
"W+	c #AD1F1F",
"X+	c #AF2121",
"Y+	c #AC1E1E",
"Z+	c #AA1C1C",
"`+	c #A91A1A",
" @	c #A61818",
".@	c #A51717",
"+@	c #A11313",
"@@	c #9F1111",
"#@	c #9D0F0F",
"$@	c #990B0B",
"%@	c #970A0A",
"&@	c #940606",
"*@	c #920403",
"=@	c #900202",
"-@	c #8E0201",
";@	c #8D0101",
">@	c #8F0303",
",@	c #910505",
"'@	c #930606",
")@	c #950909",
"!@	c #980D0D",
"~@	c #9B0E0E",
"{@	c #9C1010",
"]@	c #9E1212",
"^@	c #A01414",
"/@	c #A21615",
"(@	c #A41717",
"_@	c #A51919",
":@	c #A71B1B",
"<@	c #A91D1C",
"[@	c #AB1E1E",
"}@	c #AC201F",
"|@	c #AD2222",
"1@	c #AF2222",
"2@	c #AF2323",
"3@	c #AE2222",
"4@	c #AC2020",
"5@	c #A91D1D",
"6@	c #A81B1B",
"7@	c #A6191A",
"8@	c #A21616",
"9@	c #9D1111",
"0@	c #9B0F0F",
"a@	c #990D0D",
"b@	c #970B0B",
"c@	c #940607",
"d@	c #910606",
"e@	c #900303",
"f@	c #8D0303",
"g@	c #8D0302",
"h@	c #8F0504",
"i@	c #900606",
"j@	c #930808",
"k@	c #940A0A",
"l@	c #970C0C",
"m@	c #9A0F10",
"n@	c #9C1111",
"o@	c #9E1314",
"p@	c #9F1415",
"q@	c #A21717",
"r@	c #A31818",
"s@	c #A51B1B",
"t@	c #A61C1C",
"u@	c #A81E1E",
"v@	c #A91F1F",
"w@	c #AB2120",
"x@	c #AC2222",
"y@	c #ADADAD",
"z@	c #AB2121",
"A@	c #AA1F1F",
"B@	c #A91E1E",
"C@	c #A71C1C",
"D@	c #A31919",
"E@	c #A01515",
"F@	c #9E1414",
"G@	c #9C1211",
"H@	c #9B1010",
"I@	c #970D0D",
"J@	c #950A0A",
"K@	c #930909",
"L@	c #910607",
"M@	c #900504",
"N@	c #8D0504",
"O@	c #8D0404",
"P@	c #8F0606",
"Q@	c #900807",
"R@	c #920A0A",
"S@	c #940C0B",
"T@	c #960D0D",
"U@	c #970F0E",
"V@	c #9A1111",
"W@	c #9B1313",
"X@	c #9D1414",
"Y@	c #9E1616",
"Z@	c #A11717",
"`@	c #A21A1A",
" #	c #A41B1B",
".#	c #A51D1C",
"+#	c #A71E1E",
"@#	c #A91F20",
"##	c #A92121",
"$#	c #ABABAB",
"%#	c #ACACAC",
"&#	c #AC2323",
"*#	c #AA2222",
"=#	c #A92020",
"-#	c #A51D1D",
";#	c #9F1717",
">#	c #9E1515",
",#	c #981010",
"'#	c #960E0D",
")#	c #940B0C",
"!#	c #930A0A",
"~#	c #900809",
"{#	c #8D0606",
"]#	c #8E0607",
"^#	c #900909",
"/#	c #910B0B",
"(#	c #940D0D",
"_#	c #950F0F",
":#	c #971010",
"<#	c #991112",
"[#	c #9B1414",
"}#	c #9C1515",
"|#	c #9E1717",
"1#	c #9F1918",
"2#	c #A31B1C",
"3#	c #A41E1D",
"4#	c #A51E1F",
"5#	c #A72020",
"6#	c #A8A8A8",
"7#	c #A9A9A9",
"8#	c #A92223",
"9#	c #AA2322",
"0#	c #AA2323",
"a#	c #A72021",
"b#	c #A61F1F",
"c#	c #A51E1E",
"d#	c #A31C1C",
"e#	c #A21B1B",
"f#	c #A01919",
"g#	c #9D1516",
"h#	c #991213",
"i#	c #971111",
"j#	c #960E0E",
"k#	c #920B0C",
"l#	c #90090A",
"m#	c #8E0807",
"n#	c #8D0808",
"o#	c #8D0809",
"p#	c #8F0A0A",
"q#	c #910D0D",
"r#	c #930D0E",
"s#	c #940F10",
"t#	c #981313",
"u#	c #9A1515",
"v#	c #9B1617",
"w#	c #9D1818",
"x#	c #9E1919",
"y#	c #A01B1B",
"z#	c #A21D1D",
"A#	c #A31E1E",
"B#	c #A51F1F",
"C#	c #A52020",
"D#	c #A62221",
"E#	c #A72222",
"F#	c #A82323",
"G#	c #A82322",
"H#	c #A82223",
"I#	c #A82222",
"J#	c #A72121",
"K#	c #A52021",
"L#	c #A21D1C",
"M#	c #A11B1B",
"N#	c #9F1A1A",
"O#	c #9E1818",
"P#	c #9C1617",
"Q#	c #981314",
"R#	c #971211",
"S#	c #951111",
"T#	c #940E0E",
"U#	c #910D0C",
"V#	c #900A0A",
"W#	c #8E090A",
"X#	c #8D0A0A",
"Y#	c #8F0C0C",
"Z#	c #900D0D",
"`#	c #920F0E",
" $	c #941111",
".$	c #961213",
"+$	c #971414",
"@$	c #991516",
"#$	c #9B1717",
"$$	c #9C1818",
"%$	c #9E1B1A",
"&$	c #9F1C1C",
"*$	c #A01D1D",
"=$	c #A21E1E",
"-$	c #A21F20",
";$	c #A42020",
">$	c #A52122",
",$	c #A52222",
"'$	c #A62223",
")$	c #A62222",
"!$	c #A62322",
"~$	c #A42121",
"{$	c #A31F1F",
"]$	c #A21E1F",
"^$	c #A11E1E",
"/$	c #9C1919",
"($	c #991616",
"_$	c #931010",
":$	c #900E0E",
"<$	c #8D0C0B",
"[$	c #8D0B0B",
"}$	c #8E0D0C",
"|$	c #911010",
"1$	c #931111",
"2$	c #941413",
"3$	c #961415",
"4$	c #971617",
"5$	c #991717",
"6$	c #9B1919",
"7$	c #9C1B1B",
"8$	c #9E1C1C",
"9$	c #9F1E1D",
"0$	c #A01F1E",
"a$	c #A11F1F",
"b$	c #A22121",
"c$	c #A32222",
"d$	c #A42222",
"e$	c #A52223",
"f$	c #A22020",
"g$	c #A11F1E",
"h$	c #9F1E1E",
"i$	c #9D1B1B",
"j$	c #9B1A1A",
"k$	c #9A1818",
"l$	c #981717",
"m$	c #971515",
"n$	c #951414",
"o$	c #941112",
"p$	c #900E0F",
"q$	c #8E0D0D",
"r$	c #8D0E0D",
"s$	c #8D0E0E",
"t$	c #8D0D0D",
"u$	c #8F0F10",
"v$	c #901111",
"w$	c #921313",
"x$	c #941414",
"y$	c #951615",
"z$	c #971717",
"A$	c #981818",
"B$	c #9A1B1B",
"C$	c #9B1B1B",
"D$	c #9C1C1C",
"E$	c #9E1E1E",
"F$	c #9F2020",
"G$	c #A12221",
"H$	c #A22222",
"I$	c #A22322",
"J$	c #A12121",
"K$	c #A02020",
"L$	c #9E1F1F",
"M$	c #9D1D1D",
"N$	c #9A1A1B",
"O$	c #951616",
"P$	c #8F0F0F",
"Q$	c #8D0F0F",
"R$	c #8D100F",
"S$	c #8D1111",
"T$	c #8F1111",
"U$	c #911414",
"V$	c #931414",
"W$	c #941617",
"X$	c #951717",
"Y$	c #971919",
"Z$	c #981B1B",
"`$	c #9B1D1D",
" %	c #9C1E1E",
".%	c #9D201F",
"+%	c #9E2020",
"@%	c #9E2121",
"#%	c #9F2222",
"$%	c #A02222",
"%%	c #A12322",
"&%	c #A12222",
"*%	c #9F2121",
"=%	c #9D1F1F",
"-%	c #9A1C1D",
";%	c #961718",
">%	c #941717",
",%	c #931515",
"'%	c #901212",
")%	c #8E1111",
"!%	c #8E2223",
"~%	c #8E2222",
"{%	c #8E2322",
". . . . . . . . . . . . . . . . . . . . . . . . . . . . . . . . . . . . . . . . . . . . . ",
"+ + + + @ # $ % & * = - ; > , ' ) ! ~ { ] ] ^ / ] ] { ( ! _ ' , : < [ } * & | 1 2 @ + + + ",
"3 3 3 3 4 5 6 7 8 9 0 a b c d e f g h i j k l l l m n o p q e r s t u a v 8 7 w 5 4 x 3 3 ",
"3 3 3 x 4 y w 7 8 v a z A B e C h D E F G H I J H K L M N h O e P Q R S v 8 T w y 4 U 3 3 ",
"3 3 3 U 4 y w T 8 V W X Y Z `  ...+.@.#.$.%.&.*.%.=.#.-.;.>.,.'.).Y !.~.V 9 8 w 6 5 U 3 3 ",
"3 3 3 U 4 6 w 8 {.].^./.(._.:.<.[.}.|.*.1.2.3.3.4.5.6.7.8.9.0.a.b.c.d.e.f.g.8 7 6 5 4 3 3 ",
"x 3 3 U 5 6 7 h.i.j.k.l.m.n.o.p.q.r.s.t.u.v.w.w.x.y.t.t.r.z.A.o.n.B.C.D.E.F.G.7 w 5 4 x x ",
"x 3 3 4 5 w H.I.J.K.L.M.N.O.P.Q.R.S.T.U.V.W.X.X.Y.Z.`. +.+r.++@+#+N.$+%+K.&+*+=+w y 4 x x ",
"x 3 3 4 5 -+;+>+,+'+)+!+~+{+]+^+/+(+_+:+<+[+}+}+|+1+:+2+3+4+5+]+6+~+7+8+9+0+>+a+-+y 4 x x ",
"x 3 3 4 b+c+d+e+f+g+h+i+j+k+l+m+n+o+p+q+<+r+s+s+t+1+q+p+u+v+w+x+y+j+z+h+g+A+B+C+D+E+F+x x ",
"x 3 3 G+H+I+J+K+L+M+N+O+P+Q+R+S+T+U+V+W+X+1+r+t+1+X+W+Y+Z+`+ @.@Q++@@@#@M+$@%@J+&@*@=@x x ",
"-@;@;@>@,@'@)@%@!@~@{@]@^@/@(@_@:@<@[@}@|@1@<+<+2@3@4@[@5@6@7@(@8@^@]@9@0@a@b@)@c@d@e@-@-@",
"f@g@f@h@i@j@k@l@!@m@n@o@p@q@r@s@t@u@v@w@x@y@:+:+y@x@z@A@B@C@s@D@q@E@F@G@H@a@I@J@K@L@M@f@f@",
"N@N@O@P@Q@R@S@T@U@V@W@X@Y@Z@`@ #.#+#@###$#%#&#&#%#$#*#=#+#-# #`@Z@;#>#W@V@,#'#)#!#~#P@N@N@",
"{#{#{#]#^#/#(#_#:#<#[#}#|#1#`@2#3#4#5#6#7#8#9#0#8#7#7#a#b#c#d#e#f#|#g#[#h#i#j#(#k#l#m#{#{#",
"n#n#n#o#p#q#r#s#i#t#u#v#w#x#y#z#A#B#C#D#E#F#G#F#H#I#J#K#C#A#L#M#N#O#P#u#Q#R#S#T#U#V#W#n#n#",
"X#X#X#X#Y#Z#`# $.$+$@$#$$$%$&$*$=$-$;$>$,$'$)$)$!$,$,$~${$]$^$&$%$/$#$($+$.$ $_$:$Y#X#X#X#",
"<$[$<$[$}$:$|$1$2$3$4$5$6$7$8$9$0$a$b$c$d$d$,$e$d$d$c$b$f$g$h$8$i$j$k$l$m$n$o$|$p$q$[$<$<$",
"r$s$t$t$t$u$v$w$x$y$z$A$B$C$D$E$E$F$G$H$H$I$H$H$H$H$H$J$K$L$E$M$C$N$A$z$O$x$w$v$P$r$t$r$r$",
"Q$Q$R$Q$Q$S$T$U$V$W$X$Y$Z$B$`$ %.%+%@%#%$%$%%%&%&%$%#%*%+%=% %`$-%Z$Y$;%>%,%U$'%)%Q$Q$Q$Q$",
"!%!%~%{%!%~%{%~%~%~%!%~%{%~%~%~%~%~%~%{%!%~%{%~%~%~%!%{%~%!%~%~%~%~%~%!%~%~%~%~%~%~%~%!%!%"};
