/* XPM */
static char * hide_prelight_xpm[] = {
"21 21 148 2",
"  	c None",
". 	c #EF7502",
"+ 	c #EF7503",
"@ 	c #EF7604",
"# 	c #EF7605",
"$ 	c #F07606",
"% 	c #EF7607",
"& 	c #EF7606",
"* 	c #F07707",
"= 	c #F07709",
"- 	c #F0780B",
"; 	c #F0780C",
"> 	c #F0790C",
", 	c #F0780A",
"' 	c #F07708",
") 	c #EF7504",
"! 	c #F1790F",
"~ 	c #F17A11",
"{ 	c #F17B13",
"] 	c #F27B13",
"^ 	c #F27A10",
"/ 	c #F1790D",
"( 	c #EF7707",
"_ 	c #F0790D",
": 	c #F27C15",
"< 	c #F27E17",
"[ 	c #F47F1B",
"} 	c #F37F1B",
"| 	c #F37D18",
"1 	c #F1780C",
"2 	c #EF7708",
"3 	c #F17B12",
"4 	c #F27D17",
"5 	c #F3811C",
"6 	c #F58320",
"7 	c #F58522",
"8 	c #F68523",
"9 	c #F58220",
"0 	c #F4801D",
"a 	c #F17A12",
"b 	c #F1790C",
"c 	c #F3811E",
"d 	c #F68623",
"e 	c #F88827",
"f 	c #F98A29",
"g 	c #F98B2A",
"h 	c #F78827",
"i 	c #F5821F",
"j 	c #F37E18",
"k 	c #F1770A",
"l 	c #F17910",
"m 	c #F4811E",
"n 	c #F68625",
"o 	c #F78A28",
"p 	c #FA8D2C",
"q 	c #FB8F2E",
"r 	c #FB902F",
"s 	c #FA8F2D",
"t 	c #F88B2A",
"u 	c #F68724",
"v 	c #F27D16",
"w 	c #F1790E",
"x 	c #F17C14",
"y 	c #F3801C",
"z 	c #F88A2A",
"A 	c #FA8F2E",
"B 	c #FB9130",
"C 	c #FD9231",
"D 	c #FD9332",
"E 	c #FC9332",
"F 	c #FC9331",
"G 	c #F88B29",
"H 	c #F68522",
"I 	c #F47F1A",
"J 	c #F07A0F",
"K 	c #F27E19",
"L 	c #F58521",
"M 	c #F88A29",
"N 	c #FB8E2D",
"O 	c #FC9231",
"P 	c #FD9433",
"Q 	c #FD9534",
"R 	c #FD9535",
"S 	c #FE9534",
"T 	c #FB8F2D",
"U 	c #F88927",
"V 	c #F4821F",
"W 	c #F1780B",
"X 	c #EF7706",
"Y 	c #F27C13",
"Z 	c #F78725",
"` 	c #FE9635",
" .	c #FE9736",
"..	c #FE9636",
"+.	c #FC9130",
"@.	c #F98C2B",
"#.	c #F58421",
"$.	c #F17D16",
"%.	c #FC902F",
"&.	c #FF9736",
"*.	c #FA8E2D",
"=.	c #F3801B",
"-.	c #F27A11",
";.	c #EF7808",
">.	c #F27D18",
",.	c #F68422",
"'.	c #F88A28",
").	c #F07A0E",
"!.	c #F37F1A",
"~.	c #F68624",
"{.	c #FD9333",
"].	c #FFFFFF",
"^.	c #F58422",
"/.	c #F0780E",
"(.	c #EF7608",
"_.	c #F17A0F",
":.	c #F68725",
"<.	c #FB9332",
"[.	c #F98D2C",
"}.	c #F68524",
"|.	c #F17A10",
"1.	c #F78624",
"2.	c #F4801B",
"3.	c #FF9836",
"4.	c #FF9837",
"5.	c #FC9232",
"6.	c #F4811C",
"7.	c #F27C14",
"8.	c #FB9131",
"9.	c #F98D2B",
"0.	c #F07809",
"a.	c #F4801C",
"b.	c #F78825",
"c.	c #F68421",
"d.	c #F37F19",
"e.	c #F0790E",
"f.	c #F88928",
"g.	c #F98F2E",
"h.	c #FB9231",
"i.	c #F98E2D",
"j.	c #F27D15",
"k.	c #F37F18",
"l.	c #F58321",
"m.	c #F78927",
"n.	c #FB902E",
"o.	c #F58420",
"p.	c #F37E17",
"q.	c #F78826",
". . . . + + @ # $ $ $ % & @ + . . . . . . ",
". . . + @ # * = - ; ; > , ' & ) . . . . . ",
". . + @ $ ' - ! ~ { { ] ^ / , ( ) . . . . ",
". + @ $ = _ ~ : < [ [ } | : ~ 1 2 ) . . . ",
". + # ' _ 3 4 5 6 7 8 7 9 0 4 a b ( ) . . ",
"+ @ * ; a 4 c d e f g f h 8 i j ~ k # + . ",
"+ # = l 4 m n o p q r q s t u m v w 2 ) . ",
"@ * ; x y d z A B C D E F q G H I ~ = # . ",
"@ ' J K L M N O P Q R S S E T U V : W X + ",
"& - Y 5 Z p O Q ` `  . ...S +.@.#.j ! ( + ",
"( / $.9 M %.P `  . .&. . .` D *.n =.-.;.) ",
"( w >.,.p F S  . .&.&.&. ...P r '.i x - @ ",
"( ).!.~.*.{.].].].].].].].].].B t ^.< /.* ",
"(._.!.:.q P ].].].].].].].].].<.[.}.} |.= ",
"& ! !.:.A P ].].].].].].].].].E [.1.2.] - ",
"X / < }.[.E `  .&.3.4.&.&.` S 5.*.Z 6.7.> ",
"# 1 : 6 t 8.Q ` &.&.&.&. .` P +.9.~.6.7.; ",
") 0.3 a.b.*.E Q ` ` ` ` S P O *.'.c.d.3 - ",
"+ & e.4 9 f.g.h.P Q Q P E B i.f.H 6.j.! ' ",
". @ = |.k.l.m.@.*.A n.*.[.M b.o.2.v |., $ ",
". + # , ~ p.m H :.q.q.Z d o.0 j 7._., $ @ "};
