/* XPM */
static char * hide_pressed_xpm[] = {
"21 21 95 2",
"  	c None",
". 	c #AD5301",
"+ 	c #AD5302",
"@ 	c #AD5303",
"# 	c #AD5403",
"$ 	c #AD5404",
"% 	c #AD5505",
"& 	c #AD5506",
"* 	c #AD5606",
"= 	c #AE5608",
"- 	c #AE5609",
"; 	c #AE570A",
"> 	c #AF570A",
", 	c #AF5608",
"' 	c #AE5606",
") 	c #AF580C",
"! 	c #AF590D",
"~ 	c #B05A10",
"{ 	c #B0590E",
"] 	c #AE5506",
"^ 	c #B05B11",
"/ 	c #B15D14",
"( 	c #B15E15",
"_ 	c #B25E16",
": 	c #B15C14",
"< 	c #B05B12",
"[ 	c #AE560A",
"} 	c #B25F16",
"| 	c #B36119",
"1 	c #B4621B",
"2 	c #B4631B",
"3 	c #B15C13",
"4 	c #AE5405",
"5 	c #B25F18",
"6 	c #B3621A",
"7 	c #B5641D",
"8 	c #B6661E",
"9 	c #B6671F",
"0 	c #B5661E",
"a 	c #B3631B",
"b 	c #B26017",
"c 	c #AE5607",
"d 	c #AE580B",
"e 	c #B3621B",
"f 	c #B66720",
"g 	c #B76820",
"h 	c #B76921",
"i 	c #B66921",
"j 	c #B66920",
"k 	c #B25E15",
"l 	c #AD5608",
"m 	c #AF590F",
"n 	c #B6651E",
"o 	c #B66820",
"p 	c #B76A22",
"q 	c #B76A23",
"r 	c #B86A23",
"s 	c #B05C13",
"t 	c #AE5505",
"u 	c #AF580A",
"v 	c #B36018",
"w 	c #B86B23",
"x 	c #B86C24",
"y 	c #B86B24",
"z 	c #B4641C",
"A 	c #AE590D",
"B 	c #B5651E",
"C 	c #B05B10",
"D 	c #AF5609",
"E 	c #AD5504",
"F 	c #AF590E",
"G 	c #AD5607",
"H 	c #B25F17",
"I 	c #B76922",
"J 	c #FFFFFF",
"K 	c #AD5507",
"L 	c #AD5304",
"M 	c #B26018",
"N 	c #B4641D",
"O 	c #B25E17",
"P 	c #B35F17",
"Q 	c #B86C25",
"R 	c #B66821",
"S 	c #AF580B",
"T 	c #B36118",
"U 	c #B05A0F",
"V 	c #B3611A",
"W 	c #B4661E",
"X 	c #B4651E",
"Y 	c #AF590C",
"Z 	c #B05A0E",
"` 	c #B15D15",
" .	c #B6671E",
"..	c #B15E14",
"+.	c #B0590D",
". . . . . . + + @ @ @ @ @ + . . . . . . . ",
". . . . + + # $ % & & * % $ @ + . . . . . ",
". . . + @ $ % = - ; ; > , ' % # + . . . . ",
". . + @ $ * - ) ! ~ ~ ~ { ) - ] $ + . . . ",
". . + $ * ; ! ^ / ( _ ( : < ! [ ' # + . . ",
". + # & [ ! < } | 1 2 1 | _ 3 { - 4 + . . ",
". + $ = ! < 5 6 7 8 9 8 0 a b < ! c $ + . ",
"+ # & d ^ } e 0 f g h i j 8 a k ~ - $ + . ",
"+ $ l m ( e n o p q q r r i 8 | s ) t # . ",
"@ % u ^ v 7 o q w w x x y r f z ( { = # . ",
"# ' A : e 9 p w x x x x x w h B 5 C D E + ",
"# c F k 7 j r x x x x x x y p 9 6 3 d % + ",
"# G ~ H B I J J J J J J J J J f a ( ! K # ",
"L = ~ M 8 p J J J J J J J J J i N O ~ = $ ",
"@ = ~ M 0 p J J J J J J J J J i N P C > % ",
"# ' ! O N i w x x x Q x x w r R B v ^ S * ",
"+ ] ) / a f q w x x x x x w p f z H ^ S & ",
"+ E ; ^ T B i q w w w w r p o B 6 k U ; % ",
". @ G ! : V W o p q q p i f X V k ^ Y = $ ",
". + $ = Z ` | z B 0  .B N e T ..C ! = % @ ",
". . + % - +.< k M T T v } ..< { S = % @ + "};
