/* XPM */
static char * maximize_pressed_xpm[] = {
"21 21 75 1",
" 	c None",
".	c #23981D",
"+	c #23981E",
"@	c #259A20",
"#	c #269B22",
"$	c #289C23",
"%	c #279B22",
"&	c #269A20",
"*	c #249920",
"=	c #299E25",
"-	c #2DA128",
";	c #2FA329",
">	c #2FA32A",
",	c #2CA128",
"'	c #2A9E25",
")	c #279B23",
"!	c #289B23",
"~	c #2CA027",
"{	c #30A42C",
"]	c #35A92F",
"^	c #37AC32",
"/	c #38AD32",
"(	c #35AA2F",
"_	c #31A52C",
":	c #24991F",
"<	c #2CA127",
"[	c #FFFFFF",
"}	c #249820",
"|	c #269B20",
"1	c #2B9F26",
"2	c #32A62D",
"3	c #32A72D",
"4	c #37AB32",
"5	c #3AB035",
"6	c #43BA3E",
"7	c #44BB3E",
"8	c #44BC3F",
"9	c #44BB3F",
"0	c #42B93E",
"a	c #35A930",
"b	c #3DB238",
"c	c #43BB3E",
"d	c #3BB137",
"e	c #34A82F",
"f	c #2C9F26",
"g	c #35AA30",
"h	c #3DB338",
"i	c #3CB338",
"j	c #2CA026",
"k	c #259920",
"l	c #32A72E",
"m	c #3BB035",
"n	c #42BA3E",
"o	c #3AAF35",
"p	c #299E24",
"q	c #24981F",
"r	c #289D23",
"s	c #36AB31",
"t	c #2EA229",
"u	c #23981F",
"v	c #39AD35",
"w	c #3EB439",
"x	c #41B73B",
"y	c #41B93D",
"z	c #42B93D",
"A	c #38AD33",
"B	c #2B9E26",
"C	c #33A72F",
"D	c #3CB138",
"E	c #3EB338",
"F	c #3EB539",
"G	c #38AC33",
"H	c #2FA42A",
"I	c #269B21",
"J	c #279C23",
".....................",
".....................",
"........++++++.......",
"......+@#$$$%&++.....",
".....*#=-;>>,')@+....",
"....*!~{]^/^(_,$@+...",
"...:)<[[[[[[[[[-$}...",
"...|12[[[[[[[[[31|+..",
"..:$>^[[[[[[[[[4>$+..",
"..*'35[6788890[53=@..",
"..&~ab[c88888c[def&..",
"..&,gh[7888887[ig~&..",
"..@jai[c88888c[de1k..",
"..k'lm[678887n[o2p:..",
"..qr>^[[[[[[[[[st$u..",
"..+|f2vwxyzyxhA_B&+..",
"...q%,CADEFEdG2~#q...",
"...+:$<_a4G4e{~%*+...",
"....+:%'<>Ht<'I:+....",
".....+q@I)$JI@q+.....",
".......++qqq++......."};
