/* XPM */
static char * maximize_toggled_prelight_xpm[] = {
"21 21 99 2",
"  	c None",
". 	c #33CF2C",
"+ 	c #34D02D",
"@ 	c #36D22F",
"# 	c #38D332",
"$ 	c #3AD533",
"% 	c #39D332",
"& 	c #37D230",
"* 	c #34CF2D",
"= 	c #35D12F",
"- 	c #38D432",
"; 	c #3CD736",
"> 	c #41DB3A",
", 	c #43DE3C",
"' 	c #44DE3D",
") 	c #43DE3D",
"! 	c #40DB3A",
"~ 	c #3DD836",
"{ 	c #39D433",
"] 	c #3AD433",
"^ 	c #40DA39",
"/ 	c #45E03F",
"( 	c #4BE644",
"_ 	c #4EEA47",
": 	c #4FEB48",
"< 	c #4EEA48",
"[ 	c #4BE744",
"} 	c #46E13F",
"| 	c #35D12E",
"1 	c #40DB39",
"2 	c #48E342",
"3 	c #4FEB49",
"4 	c #FFFFFF",
"5 	c #41DC3A",
"6 	c #35D02F",
"7 	c #37D330",
"8 	c #3ED938",
"9 	c #47E241",
"0 	c #50EC4A",
"a 	c #57F451",
"b 	c #5BF954",
"c 	c #5CFB56",
"d 	c #5DFC57",
"e 	c #5DFB56",
"f 	c #47E341",
"g 	c #5CFA55",
"h 	c #4EE948",
"i 	c #48E341",
"j 	c #52EF4C",
"k 	c #3FDA39",
"l 	c #4BE645",
"m 	c #56F24F",
"n 	c #5EFE58",
"o 	c #5FFF59",
"p 	c #54F14E",
"q 	c #4AE544",
"r 	c #3FD938",
"s 	c #4CE845",
"t 	c #56F350",
"u 	c #5FFE58",
"v 	c #55F34F",
"w 	c #4BE745",
"x 	c #36D230",
"y 	c #3FDA38",
"z 	c #3ED937",
"A 	c #36D130",
"B 	c #36D12F",
"C 	c #53EF4C",
"D 	c #5EFD57",
"E 	c #5DFD57",
"F 	c #59F753",
"G 	c #52EE4B",
"H 	c #3CD735",
"I 	c #35D02E",
"J 	c #3AD634",
"K 	c #5BF955",
"L 	c #56F34F",
"M 	c #4DE946",
"N 	c #42DD3C",
"O 	c #34D02E",
"P 	c #51EC4B",
"Q 	c #57F551",
"R 	c #5DFC56",
"S 	c #56F450",
"T 	c #50EC49",
"U 	c #46E140",
"V 	c #3ED837",
"W 	c #39D432",
"X 	c #49E443",
"Y 	c #50EB49",
"Z 	c #55F14F",
"` 	c #57F450",
" .	c #58F651",
"..	c #4FEA49",
"+.	c #33CF2D",
"@.	c #43DF3D",
"#.	c #3DD736",
"$.	c #38D331",
"%.	c #39D533",
". . . . . . . . . . . . . . . . . . . . . ",
". . . . . . . . . . . . . . . . . . . . . ",
". . . . . . . . + + + + + + . . . . . . . ",
". . . . . . + @ # $ $ $ % & + * . . . . . ",
". . . . . = - ; > , ' ) ! ~ { @ + . . . . ",
". . . . = ] ^ / ( _ : < [ } ! $ @ * . . . ",
". . . | { 1 2 3 4 4 4 4 4 4 4 5 $ 6 . . . ",
". . . 7 8 9 0 a b c d e b a 4 f 8 7 + . . ",
". . | $ ) < 4 4 4 4 4 4 4 g 4 h ) $ + . . ",
". . = ~ i j 4 4 4 4 4 4 4 d 4 j i ; @ . . ",
". . & k l m 4 n o o o o 4 n 4 p q r & . . ",
". . & ! s t 4 u o o o o 4 u 4 v w k & . . ",
". . x y l v 4 n o o o o 4 n 4 p q z A . . ",
". . B ~ 2 C 4 D u o o o 4 E F G 9 H | . . ",
". . I J ' < 4 4 4 4 4 4 4 K L M N $ O . . ",
". . + 7 r 9 P Q b c R c b S T U V & + . . ",
". . . I W ! X Y Z `  .` p ..9 k - I . . . ",
". . . +.| $ 1 U l h ..h q / k W = * . . . ",
". . . . + | W ~ 1 ) @.N 1 #.$.| + . . . . ",
". . . . . * I @ $.{ $ %.$.@ I +.. . . . . ",
". . . . . . . + + I I I + + . . . . . . . "};
