/* XPM */
static char * maximize_toggled_pressed_xpm[] = {
"21 21 79 1",
" 	c None",
".	c #23981D",
"+	c #23981E",
"@	c #259A20",
"#	c #269B22",
"$	c #289C23",
"%	c #279B22",
"&	c #269A20",
"*	c #249920",
"=	c #299E25",
"-	c #2DA128",
";	c #2FA329",
">	c #2FA32A",
",	c #2CA128",
"'	c #2A9E25",
")	c #279B23",
"!	c #289B23",
"~	c #2CA027",
"{	c #30A42C",
"]	c #35A92F",
"^	c #37AC32",
"/	c #38AD32",
"(	c #35AA2F",
"_	c #31A52C",
":	c #24991F",
"<	c #2CA127",
"[	c #32A72E",
"}	c #38AD33",
"|	c #FFFFFF",
"1	c #249820",
"2	c #269B20",
"3	c #2B9F26",
"4	c #32A62D",
"5	c #38AD34",
"6	c #3EB339",
"7	c #41B73B",
"8	c #41B93D",
"9	c #42B93E",
"0	c #42B93D",
"a	c #32A72D",
"b	c #41B83C",
"c	c #37AB32",
"d	c #3AB035",
"e	c #35A930",
"f	c #3DB238",
"g	c #43BB3E",
"h	c #44BC3F",
"i	c #3BB137",
"j	c #34A82F",
"k	c #2C9F26",
"l	c #35AA30",
"m	c #3DB338",
"n	c #44BB3E",
"o	c #3CB338",
"p	c #2CA026",
"q	c #259920",
"r	c #3BB035",
"s	c #43BA3E",
"t	c #42BA3E",
"u	c #3FB63B",
"v	c #3AAF35",
"w	c #299E24",
"x	c #24981F",
"y	c #289D23",
"z	c #41B73C",
"A	c #36AB31",
"B	c #2EA229",
"C	c #23981F",
"D	c #39AD35",
"E	c #3EB439",
"F	c #2B9E26",
"G	c #33A72F",
"H	c #3CB138",
"I	c #3EB338",
"J	c #3EB539",
"K	c #38AC33",
"L	c #2FA42A",
"M	c #269B21",
"N	c #279C23",
".....................",
".....................",
"........++++++.......",
"......+@#$$$%&++.....",
".....*#=-;>>,')@+....",
"....*!~{]^/^(_,$@+...",
"...:)<[}|||||||-$1...",
"...23456789076|a32+..",
"..:$>^|||||||b|c>$+..",
"..*'ad|||||||9|da=@..",
"..&~ef|ghhhh|g|ijk&..",
"..&,lm|nhhhh|n|ol~&..",
"..@peo|ghhhh|g|ij3q..",
"..q'[r|snhhh|tuv4w:..",
"..xy>^|||||||zmAB$C..",
"..+2k4DE78087m}_F&+..",
"...x%,G}HIJIiK4~#x...",
"...+:$<_ecKcj{~%*+...",
"....+:%'<>LB<'M:+....",
".....+x@M)$NM@x+.....",
".......++xxx++......."};
