/* XPM */
static char * maximize_prelight_xpm[] = {
"21 21 92 2",
"  	c None",
". 	c #33CF2C",
"+ 	c #34D02D",
"@ 	c #36D22F",
"# 	c #38D332",
"$ 	c #3AD533",
"% 	c #39D332",
"& 	c #37D230",
"* 	c #34CF2D",
"= 	c #35D12F",
"- 	c #38D432",
"; 	c #3CD736",
"> 	c #41DB3A",
", 	c #43DE3C",
"' 	c #44DE3D",
") 	c #43DE3D",
"! 	c #40DB3A",
"~ 	c #3DD836",
"{ 	c #39D433",
"] 	c #3AD433",
"^ 	c #40DA39",
"/ 	c #45E03F",
"( 	c #4BE644",
"_ 	c #4EEA47",
": 	c #4FEB48",
"< 	c #4EEA48",
"[ 	c #4BE744",
"} 	c #46E13F",
"| 	c #35D12E",
"1 	c #40DB39",
"2 	c #FFFFFF",
"3 	c #41DC3A",
"4 	c #35D02F",
"5 	c #37D330",
"6 	c #3ED938",
"7 	c #47E241",
"8 	c #47E341",
"9 	c #4EE948",
"0 	c #48E341",
"a 	c #52EF4C",
"b 	c #5EFD57",
"c 	c #5FFE58",
"d 	c #5FFF59",
"e 	c #5FFE59",
"f 	c #5DFC57",
"g 	c #3FDA39",
"h 	c #4BE645",
"i 	c #56F24F",
"j 	c #5EFE58",
"k 	c #54F14E",
"l 	c #4AE544",
"m 	c #3FD938",
"n 	c #4CE845",
"o 	c #56F350",
"p 	c #55F34F",
"q 	c #4BE745",
"r 	c #36D230",
"s 	c #3FDA38",
"t 	c #3ED937",
"u 	c #36D130",
"v 	c #36D12F",
"w 	c #48E342",
"x 	c #53EF4C",
"y 	c #5DFD57",
"z 	c #52EE4B",
"A 	c #3CD735",
"B 	c #35D02E",
"C 	c #3AD634",
"D 	c #4DE946",
"E 	c #42DD3C",
"F 	c #34D02E",
"G 	c #51EC4B",
"H 	c #57F551",
"I 	c #5BF954",
"J 	c #5CFB56",
"K 	c #5DFC56",
"L 	c #56F450",
"M 	c #50EC49",
"N 	c #46E140",
"O 	c #3ED837",
"P 	c #39D432",
"Q 	c #49E443",
"R 	c #50EB49",
"S 	c #55F14F",
"T 	c #57F450",
"U 	c #58F651",
"V 	c #4FEA49",
"W 	c #33CF2D",
"X 	c #43DF3D",
"Y 	c #3DD736",
"Z 	c #38D331",
"` 	c #39D533",
". . . . . . . . . . . . . . . . . . . . . ",
". . . . . . . . . . . . . . . . . . . . . ",
". . . . . . . . + + + + + + . . . . . . . ",
". . . . . . + @ # $ $ $ % & + * . . . . . ",
". . . . . = - ; > , ' ) ! ~ { @ + . . . . ",
". . . . = ] ^ / ( _ : < [ } ! $ @ * . . . ",
". . . | { 1 2 2 2 2 2 2 2 2 2 3 $ 4 . . . ",
". . . 5 6 7 2 2 2 2 2 2 2 2 2 8 6 5 + . . ",
". . | $ ) < 2 2 2 2 2 2 2 2 2 9 ) $ + . . ",
". . = ~ 0 a 2 b c d d d e f 2 a 0 ; @ . . ",
". . & g h i 2 j d d d d d j 2 k l m & . . ",
". . & ! n o 2 c d d d d d c 2 p q g & . . ",
". . r s h p 2 j d d d d d j 2 k l t u . . ",
". . v ~ w x 2 b c d d d c y 2 z 7 A | . . ",
". . B C ' < 2 2 2 2 2 2 2 2 2 D E $ F . . ",
". . + 5 m 7 G H I J K J I L M N O & + . . ",
". . . B P ! Q R S T U T k V 7 g - B . . . ",
". . . W | $ 1 N h 9 V 9 l / g P = * . . . ",
". . . . + | P ~ 1 ) X E 1 Y Z | + . . . . ",
". . . . . * B @ Z { $ ` Z @ B W . . . . . ",
". . . . . . . + + B B B + + . . . . . . . "};
