/* XPM */

static char* maximize_toggled_active_xpm[] = {

"21 21 2 1",

". c #123456 s active_color_1",
"+ c #FFFFFF s active_text_color",

".....................",
".....................",
".....................",
".....................",
".....................",
".....................",
"........+++++++......",
"..............+......",
"......+++++++.+......",
"......+++++++.+......",
"......+.....+.+......",
"......+.....+.+......",
"......+.....+.+......",
"......+.....+........",
"......+++++++........",
".....................",
".....................",
".....................",
".....................",
".....................",
"....................."

};
