/* XPM */

static char* shade_toggled_inactive_xpm[] = {

"21 21 2 1",

". c #CCCCCC s inactive_mid_2",
"+ c #555555 s inactive_text_color",

".....................",
".....................",
".....................",
".....................",
".....................",
".....................",
".....................",
".....................",
".....................",
"......++.....++......",
"......+++...+++......",
".......+++++++.......",
"........+++++........",
".........+++.........",
".....................",
".....................",
".....................",
".....................",
".....................",
".....................",
"....................."

};
