<?xml version="1.0" encoding="UTF-8" standalone="no"?>
<svg
   width="64"
   height="64"
   viewBox="0 0 64 64"
   fill="none"
   version="1.1"
   id="svg23"
   sodipodi:docname="org.kde.dolphin.svg"
   inkscape:version="1.4.2 (unknown)"
   xmlns:inkscape="http://www.inkscape.org/namespaces/inkscape"
   xmlns:sodipodi="http://sodipodi.sourceforge.net/DTD/sodipodi-0.dtd"
   xmlns:xlink="http://www.w3.org/1999/xlink"
   xmlns="http://www.w3.org/2000/svg"
   xmlns:svg="http://www.w3.org/2000/svg">
  <sodipodi:namedview
     id="namedview23"
     pagecolor="#ffffff"
     bordercolor="#000000"
     borderopacity="0.25"
     inkscape:showpageshadow="2"
     inkscape:pageopacity="0.0"
     inkscape:pagecheckerboard="0"
     inkscape:deskcolor="#d1d1d1"
     inkscape:zoom="11.313709"
     inkscape:cx="35.48792"
     inkscape:cy="32.394328"
     inkscape:window-width="1920"
     inkscape:window-height="1000"
     inkscape:window-x="0"
     inkscape:window-y="0"
     inkscape:window-maximized="1"
     inkscape:current-layer="svg23"
     showgrid="false">
    <inkscape:grid
       id="grid1"
       units="px"
       originx="0"
       originy="0"
       spacingx="1"
       spacingy="1"
       empcolor="#0099e5"
       empopacity="0.30196078"
       color="#0099e5"
       opacity="0.14901961"
       empspacing="5"
       enabled="true"
       visible="false" />
  </sodipodi:namedview>
  <defs
     id="defs23">
    <linearGradient
       id="linearGradient27"
       x1="40.6957"
       y1="46"
       x2="40.6957"
       y2="42"
       gradientUnits="userSpaceOnUse">
      <stop
         offset="0.34068099"
         stop-color="#2E2E41"
         id="stop26"
         style="stop-color:#3a85de;stop-opacity:1;" />
      <stop
         offset="1"
         stop-color="#566C80"
         id="stop27"
         style="stop-color:#253d5a;stop-opacity:1;" />
    </linearGradient>
    <linearGradient
       id="linearGradient25"
       x1="56"
       y1="34"
       x2="48.4736"
       y2="8.1952"
       gradientUnits="userSpaceOnUse">
      <stop
         stop-color="#2E2E41"
         id="stop24"
         offset="0"
         style="stop-color:#4a7ab5;stop-opacity:1;" />
      <stop
         offset="1"
         stop-color="#566C80"
         id="stop25"
         style="stop-color:#4a7ab5;stop-opacity:1;" />
    </linearGradient>
    <linearGradient
       id="linearGradient7"
       x1="56"
       y1="60"
       x2="31.6269"
       y2="18.2176"
       gradientUnits="userSpaceOnUse">
      <stop
         offset="0.12675899"
         stop-color="#2E2E41"
         id="stop6"
         style="stop-color:#5294e2;stop-opacity:1;" />
      <stop
         offset="0.87736899"
         stop-color="#566C80"
         id="stop7"
         style="stop-color:#5294e2;stop-opacity:1;" />
    </linearGradient>
    <linearGradient
       id="paint0_linear_328_683"
       x1="56"
       y1="34"
       x2="48.4736"
       y2="8.1952"
       gradientUnits="userSpaceOnUse">
      <stop
         stop-color="#2E2E41"
         id="stop8" />
      <stop
         offset="1"
         stop-color="#566C80"
         id="stop9" />
    </linearGradient>
    <linearGradient
       id="paint1_linear_328_683"
       x1="50"
       y1="54"
       x2="1.21951"
       y2="14.9756"
       gradientUnits="userSpaceOnUse"
       gradientTransform="translate(-59.39697,1.979899)">
      <stop
         stop-color="#5200FF"
         id="stop10" />
      <stop
         offset="0.906064"
         stop-color="#0085FF"
         id="stop11" />
    </linearGradient>
    <linearGradient
       id="paint2_linear_328_683"
       x1="54"
       y1="54"
       x2="10.8713"
       y2="18.7129"
       gradientUnits="userSpaceOnUse"
       gradientTransform="translate(49.921739,-2.8284271)">
      <stop
         offset="0.377885"
         stop-color="#FF7E07"
         id="stop12" />
      <stop
         offset="1"
         stop-color="#FFE607"
         id="stop13" />
    </linearGradient>
    <linearGradient
       id="paint3_linear_328_683"
       x1="52"
       y1="54"
       x2="14.0499"
       y2="14.0526"
       gradientUnits="userSpaceOnUse"
       gradientTransform="matrix(1,0,0,0.71052632,0,12.631579)">
      <stop
         offset="0.295664"
         stop-color="#71706E"
         id="stop14" />
      <stop
         offset="1"
         stop-color="#B9AA99"
         id="stop15" />
    </linearGradient>
    <linearGradient
       id="paint4_linear_328_683"
       x1="21.75"
       y1="22"
       x2="21.75"
       y2="24"
       gradientUnits="userSpaceOnUse">
      <stop
         stop-color="white"
         id="stop16" />
      <stop
         offset="0.705"
         stop-color="#E6E6E6"
         id="stop17" />
    </linearGradient>
    <linearGradient
       id="paint5_linear_328_683"
       x1="20.5"
       y1="26"
       x2="20.5"
       y2="28"
       gradientUnits="userSpaceOnUse">
      <stop
         stop-color="white"
         id="stop18" />
      <stop
         offset="0.705"
         stop-color="#E6E6E6"
         id="stop19" />
    </linearGradient>
    <linearGradient
       id="paint6_linear_328_683"
       x1="56"
       y1="60"
       x2="31.6269"
       y2="18.2176"
       gradientUnits="userSpaceOnUse">
      <stop
         offset="0.126759"
         stop-color="#2E2E41"
         id="stop20" />
      <stop
         offset="0.877369"
         stop-color="#566C80"
         id="stop21" />
    </linearGradient>
    <linearGradient
       id="paint7_linear_328_683"
       x1="40.6957"
       y1="46"
       x2="40.6957"
       y2="42"
       gradientUnits="userSpaceOnUse">
      <stop
         offset="0.340681"
         stop-color="#2E2E41"
         id="stop22" />
      <stop
         offset="1"
         stop-color="#566C80"
         id="stop23" />
    </linearGradient>
    <linearGradient
       inkscape:collect="always"
       xlink:href="#linearGradient7"
       id="linearGradient2-8-1-3"
       gradientUnits="userSpaceOnUse"
       x1="56"
       y1="60"
       x2="10"
       y2="22" />
    <linearGradient
       inkscape:collect="always"
       xlink:href="#linearGradient27"
       id="linearGradient3-2-3-6"
       gradientUnits="userSpaceOnUse"
       x1="41"
       y1="45.909904"
       x2="41"
       y2="41.909904"
       gradientTransform="translate(0,-15.909903)" />
  </defs>
  <g
     id="g2"
     transform="matrix(0.90625001,0,0,0.90625001,2.9999994,1.1267219)">
    <g
       id="g1"
       transform="matrix(1.1428571,0,0,1.1458333,-4.5714269,-3.2871002)">
      <g
         id="g27"
         transform="matrix(1.1666667,0,0,1.1707317,-5.3333344,-11.235773)">
        <g
           id="g6-7-4"
           transform="translate(0,-2)">
          <rect
             style="opacity:0.2;fill:#4d4d4d;fill-opacity:1;stroke-width:0.835088"
             width="48"
             height="41"
             x="8"
             y="18.943056"
             rx="6"
             ry="7.4027348"
             id="rect1-8-7" />
          <g
             id="g1-9-7-4-6"
             transform="translate(0,-1)">
            <path
               d="m 8,26 c 0,-3.3137 2.6863,-6 6,-6 h 36 c 3.3137,0 6,2.6863 6,6 v 8 H 8 Z"
               fill="url(#paint0_linear_328_683)"
               id="path1-3-5-5-5"
               style="fill:#4877b1;fill-opacity:1" />
            <path
               d="M 12,27.105173 C 12,25.535549 12.7909,24 15,24 h 34 c 2.2091,0 3,1.535549 3,3.105173 V 48.157895 C 52,49.727518 50.2091,51 48,51 H 16 c -2.2091,0 -4,-1.272482 -4,-2.842105 z"
               fill="url(#paint3_linear_328_683)"
               id="path4-6-9-0-6"
               style="fill:#e5e5e5;fill-opacity:1;stroke-width:0.842927"
               sodipodi:nodetypes="sssssssss" />
            <path
               d="m 8,34 c 0,-1.1046 0.89543,-2 2,-2 h 44 c 1.1046,0 2,0.8954 2,2 v 19 c 0,4 -3,7 -7,7 H 15 C 10.978049,60 8,57 8,53 Z"
               fill="url(#paint6_linear_328_683)"
               id="path7-0-2-3-9"
               sodipodi:nodetypes="sssssssss"
               style="fill:url(#linearGradient2-8-1-3)" />
            <path
               d="m 22,28.090097 c 0,-1.1046 0.8954,-2 2,-2 h 16 c 1.1046,0 2,0.8954 2,2 0,1.1046 -0.8954,2 -2,2 H 24 c -1.1046,0 -2,-0.8954 -2,-2 z"
               fill="url(#paint7_linear_328_683)"
               id="path8-6-2-6-3"
               style="fill:url(#linearGradient3-2-3-6)" />
          </g>
        </g>
        <g
           id="g25"
           transform="matrix(0.8181819,0,0,0.8181819,7.4545429,-12.45455)" />
      </g>
      <path
         style="color:#000000;clip-rule:nonzero;display:inline;overflow:visible;visibility:visible;opacity:0.2;isolation:auto;mix-blend-mode:normal;color-interpolation:sRGB;color-interpolation-filters:linearRGB;solid-color:#000000;solid-opacity:1;fill:#cccccc;fill-opacity:1;fill-rule:nonzero;stroke:none;stroke-width:1.05282;stroke-linecap:butt;stroke-linejoin:miter;stroke-miterlimit:4;stroke-dasharray:none;stroke-dashoffset:0;stroke-opacity:1;marker:none;color-rendering:auto;image-rendering:auto;shape-rendering:auto;text-rendering:auto;enable-background:accumulate"
         d="m 10.814062,8.7001162 c -0.9436204,0 -1.7257394,0.2158374 -2.5413996,0.5196773 C 7.4570011,9.5236354 6.7765438,10.071449 6.1608059,10.61554 5.5450679,11.159631 5.08588,11.819443 4.7420288,12.540197 4.3981788,13.260945 4.1720475,13.885292 4.0943899,14.715462 L 4,15.724507 C 4,14.890684 4.1898994,14.096705 4.5337494,13.375955 4.8776006,12.655204 5.3748873,12.006413 5.9906253,11.462322 6.6063632,10.918231 7.3405892,10.478808 8.1562505,10.174967 8.9719107,9.8711271 9.8704416,9.7033245 10.814062,9.7033245 h 42.37188 c 0.943611,0 1.842143,0.1678026 2.657805,0.4716425 0.815662,0.303841 1.54989,0.743264 2.165632,1.287355 0.615732,0.544091 1.113023,1.192882 1.456874,1.913633 C 59.810104,14.096705 60,14.890684 60,15.724507 L 59.90561,14.715462 C 59.82795,13.885292 59.589518,13.236505 59.245667,12.515757 58.901816,11.795004 58.455621,11.160299 57.839889,10.616207 57.224147,10.072116 56.584526,9.5414409 55.768864,9.2375991 54.953202,8.9337602 54.129553,8.7001162 53.185942,8.7001162 Z"
         id="path824-2-6"
         inkscape:connector-curvature="0"
         sodipodi:nodetypes="ssssscsssssssscssssss" />
    </g>
    <path
       d="m 45.493224,36.53833 c 0.0527,-1.241455 -1.109102,-2.522262 -1.581698,-2.98446 -2.61197,-7.536318 -11.990216,-4.902219 -13.821391,-4.303576 -4.771257,-3.45721 -8.446381,0.226361 -8.479268,0.26277 -0.176967,0.177236 -0.255701,0.457203 -0.203379,0.724354 0.05257,0.259907 0.22993,0.47109 0.459485,0.546332 1.470212,0.479121 2.579284,2.103569 3.045081,2.888518 -3.42574,4.571884 -3.550417,11.086937 -3.517651,12.763075 -4.272506,4.032515 -2.920474,8.185407 -2.85499,8.365864 0.09185,0.259999 0.302,0.450396 0.551437,0.470309 0.01796,0 0.03967,0 0.05877,0 0.223298,0 0.439876,-0.135485 0.557975,-0.357406 0.781012,-1.435885 1.758972,-2.302355 2.900782,-2.580783 2.040952,-0.491855 4.022989,1.01247 4.042659,1.025918 0.150785,0.119073 0.341238,0.163596 0.524917,0.09937 0.177403,-0.04002 0.334631,-0.187071 0.419973,-0.37574 1.0303,-2.16179 -0.564456,-4.916194 -1.155194,-5.819772 0.754602,-3.653988 2.605466,-5.771423 4.05572,-6.915784 l -0.295128,0.561773 c -0.09186,0.187009 -0.118053,0.401353 -0.05938,0.606584 0.05248,0.209891 0.183894,0.373845 0.354579,0.463139 0.642999,0.3191 1.542143,0.351322 2.684264,0.07328 0.951762,-0.235897 1.870469,-0.794016 2.658048,-1.624279 1.030264,-1.077583 2.17893,-1.159902 2.17893,-1.159902 h 6.523669 c 0.150957,0 0.288764,-0.0498 0.40688,-0.15601 0.557962,-0.501206 0.715288,-1.046488 0.754555,-1.420685 0.05295,-0.496316 -0.08457,-0.914747 -0.209259,-1.183213 z m -4.613647,-0.808605 h -0.361046 c -0.36103,0 -0.656445,-0.334201 -0.656445,-0.748626 0,-0.413713 0.295338,-0.747646 0.656445,-0.747646 h 0.361046 c 0.367508,0 0.656389,0.333149 0.656389,0.747646 0,0.412696 -0.288726,0.748626 -0.656389,0.748626 z"
       id="path49-5-3-5-5-2-6-3-3-3-2"
       style="fill:#2e2e41;fill-opacity:1;stroke-width:0.0688244"
       class=" " />
  </g>
</svg>
