<?xml version="1.0" encoding="UTF-8" standalone="no"?>
<svg
   viewBox="0 0 16 16"
   version="1.1"
   id="svg1"
   sodipodi:docname="compass.svg"
   inkscape:version="1.3.2 (091e20ef0f, 2023-11-25)"
   width="16"
   height="16"
   xmlns:inkscape="http://www.inkscape.org/namespaces/inkscape"
   xmlns:sodipodi="http://sodipodi.sourceforge.net/DTD/sodipodi-0.dtd"
   xmlns:xlink="http://www.w3.org/1999/xlink"
   xmlns="http://www.w3.org/2000/svg"
   xmlns:svg="http://www.w3.org/2000/svg">
  <sodipodi:namedview
     id="namedview1"
     pagecolor="#ffffff"
     bordercolor="#999999"
     borderopacity="1"
     inkscape:showpageshadow="2"
     inkscape:pageopacity="0"
     inkscape:pagecheckerboard="0"
     inkscape:deskcolor="#d1d1d1"
     inkscape:zoom="11.90625"
     inkscape:cx="11.338583"
     inkscape:cy="10.918635"
     inkscape:window-width="1920"
     inkscape:window-height="996"
     inkscape:window-x="0"
     inkscape:window-y="0"
     inkscape:window-maximized="1"
     inkscape:current-layer="svg1" />
  <defs
     id="defs3051">
    <style
       type="text/css"
       id="current-color-scheme">
            .ColorScheme-Text {
                color:#fcfcfc;
            }
        </style>
    <linearGradient
       inkscape:collect="always"
       xlink:href="#linearGradient447"
       id="linearGradient1182"
       gradientUnits="userSpaceOnUse"
       gradientTransform="matrix(0.42042479,0,0,0.39500127,-18.82795,-223.36382)"
       x1="64.354485"
       y1="568.83179"
       x2="63.755165"
       y2="598.32104" />
    <linearGradient
       inkscape:collect="always"
       id="linearGradient447">
      <stop
         style="stop-color:#ff33ff;stop-opacity:1;"
         offset="0"
         id="stop443" />
      <stop
         style="stop-color:#ffb17d;stop-opacity:1;"
         offset="1"
         id="stop445" />
    </linearGradient>
  </defs>
  <path
     style="clip-rule:evenodd;fill:#ffffc1;fill-opacity:0;fill-rule:evenodd;stroke-width:0.688964;stroke-linejoin:round;stroke-miterlimit:1.41421"
     d="m 0.693342,-13.330714 v 22 h 22 v -22 z"
     id="rect817-5"
     inkscape:connector-curvature="0" />
  <path
     style="clip-rule:evenodd;fill:#ffffc1;fill-opacity:0;fill-rule:evenodd;stroke-width:0.688964;stroke-linejoin:round;stroke-miterlimit:1.41421"
     d="M 0,0 V 16 H 16 V 0 Z"
     id="rect817-5-7"
     inkscape:connector-curvature="0" />
  <path
     inkscape:connector-curvature="0"
     id="path9068-9-37-8-0-1-3"
     d="m 13.752749,1.84 -11.6564973,4.1e-6 V 12.9 H 13.868152 Z"
     style="display:inline;overflow:visible;visibility:visible;opacity:0.6;fill:url(#linearGradient1182);fill-opacity:1;fill-rule:nonzero;stroke:none;stroke-width:0.570526;marker:none"
     sodipodi:nodetypes="cccccc" />
  <path
     d="M 12.062114,1 H 3.9377109 C 3.1588561,1.00084 2.4121029,1.3106676 1.861441,1.8614516 1.310667,2.4121262 1.000889,3.1588441 1,3.9377069 v 8.1246971 -1.11e-4 c 7e-4,0.778838 0.310667,1.525581 0.861441,2.076254 C 2.4121029,14.689331 3.1588561,14.999094 3.9377109,15 h 8.1246831 -1.11e-4 c 0.778852,-8.4e-4 1.525606,-0.310669 2.076269,-0.861453 0.550773,-0.550673 0.860551,-1.297416 0.861441,-2.076254 V 3.9378609 C 14.998593,3.1590197 14.689325,2.4122795 14.138552,1.8616063 13.587889,1.3108216 12.841135,1.0010584 12.062283,1.000154 Z M 4.2431001,2.4000001 H 11.7569 c 0.517476,6.411e-4 1.075409,0.00222 1.4413,0.3681999 0.365883,0.3658739 0.401157,0.6310023 0.4018,1.1484739 V 12.2 H 2.4000001 V 3.9166739 C 2.4006441,3.3992023 2.43591,3.1340963 2.8018,2.7682 3.1676689,2.4023262 3.7256321,2.400639 4.2431001,2.4000001 Z"
     id="path1193-3-7-27-5"
     style="fill:#d3dae3;fill-opacity:1;stroke-width:0.0396825"
     sodipodi:nodetypes="ccccccccccccccccccccccccc" />
  <path
     d="M 10.702635,3.8661906 6.3270223,5.2656739 C 6.1339812,5.329297 6.0052857,5.4565177 5.9409352,5.647356 l -1.4156323,4.32568 c -0.064364,0.254453 0,0.508905 0.1286873,0.636127 C 4.7826901,10.736391 4.9113788,10.8 5.1044183,10.8 c 0.064364,0 0.1286999,0 0.1930504,-0.06362 L 9.6730803,9.3369082 C 9.8661262,9.2732993 9.994815,9.1460728 10.059167,8.9552274 l 1.41564,-4.3256743 c 0.06435,-0.2544528 0,-0.5089083 -0.128697,-0.6361341 C 11.153073,3.8025776 10.895684,3.7389642 10.702635,3.8661906 Z M 8.0000516,8.2554823 c -0.5147827,0 -0.9652109,-0.4452854 -0.9652109,-0.9541894 0,-0.5089043 0.4504282,-0.9541972 0.9652109,-0.9541972 0.5147807,0 0.9652092,0.4452929 0.9652092,0.9541972 0,0.508904 -0.4504285,0.9541894 -0.9652092,0.9541894 z"
     id="path4-3-6"
     style="fill:#d3dae3;fill-opacity:1;stroke-width:0.0522277" />
</svg>
