<?xml version="1.0" encoding="UTF-8" standalone="no"?>
<svg
   viewBox="0 0 16 16"
   version="1.1"
   id="svg2"
   sodipodi:docname="virt-manager-symbolic.svg"
   inkscape:version="1.4.2 (unknown)"
   xmlns:inkscape="http://www.inkscape.org/namespaces/inkscape"
   xmlns:sodipodi="http://sodipodi.sourceforge.net/DTD/sodipodi-0.dtd"
   xmlns:xlink="http://www.w3.org/1999/xlink"
   xmlns="http://www.w3.org/2000/svg"
   xmlns:svg="http://www.w3.org/2000/svg">
  <sodipodi:namedview
     id="namedview2"
     pagecolor="#ffffff"
     bordercolor="#000000"
     borderopacity="0.25"
     inkscape:showpageshadow="2"
     inkscape:pageopacity="0.0"
     inkscape:pagecheckerboard="0"
     inkscape:deskcolor="#d1d1d1"
     inkscape:zoom="48.4375"
     inkscape:cx="8"
     inkscape:cy="8"
     inkscape:window-width="1920"
     inkscape:window-height="998"
     inkscape:window-x="0"
     inkscape:window-y="0"
     inkscape:window-maximized="1"
     inkscape:current-layer="svg2" />
  <defs
     id="defs3051">
    <linearGradient
       id="linearGradient2"
       inkscape:collect="always">
      <stop
         style="stop-color:#ff8080;stop-opacity:1"
         offset="0"
         id="stop2" />
      <stop
         style="stop-color:#6f7c91;stop-opacity:1"
         offset="1"
         id="stop3" />
    </linearGradient>
    <style
       type="text/css"
       id="current-color-scheme">.ColorScheme-Text { color: #fcfcfc; } </style>
    <linearGradient
       inkscape:collect="always"
       xlink:href="#linearGradient2"
       id="linearGradient3"
       x1="0"
       y1="8"
       x2="5.5"
       y2="8"
       gradientUnits="userSpaceOnUse" />
    <linearGradient
       inkscape:collect="always"
       xlink:href="#linearGradient2"
       id="linearGradient5"
       x1="5.5"
       y1="8"
       x2="11.53534"
       y2="7.9051075"
       gradientUnits="userSpaceOnUse" />
  </defs>
  <path
     style="fill:url(#linearGradient5);fill-opacity:1;stroke:none"
     d="M 7 4 L 4 12 L 5 12 L 7 12 L 7.375 11 L 8 9.3339844 L 9 12 L 10 12 L 11 12 L 12.5 8 L 14 12 L 16 12 L 13 4 L 11 4 L 11.005859 4.015625 L 11 4.015625 L 10.625 5.015625 L 9.5039062 8.0078125 L 8 4 L 7 4 z M 11.503906 5.3417969 L 12 6.6660156 L 10.5 10.666016 L 10.003906 9.3417969 L 11.503906 5.3417969 z M 7 6.6660156 L 7.5 8 L 6.375 11 L 5.375 11 L 7 6.6660156 z "
     class="ColorScheme-Text"
     id="path1" />
  <path
     style="fill:url(#linearGradient3);fill-opacity:1;stroke:none"
     d="M 0 4 L 3 12 L 4 12 L 4.5 10.666016 L 7 4 L 6 4 L 5 4 L 3.5 8 L 2 4 L 1 4 L 0 4 z "
     class="ColorScheme-Text"
     id="path2" />
</svg>
