<?xml version="1.0" encoding="UTF-8" standalone="no"?>
<svg
   fill="none"
   viewBox="0 0 22 22"
   version="1.1"
   id="svg1"
   sodipodi:docname="wine-symbolic.svg"
   inkscape:version="1.4.2 (unknown)"
   xmlns:inkscape="http://www.inkscape.org/namespaces/inkscape"
   xmlns:sodipodi="http://sodipodi.sourceforge.net/DTD/sodipodi-0.dtd"
   xmlns:xlink="http://www.w3.org/1999/xlink"
   xmlns="http://www.w3.org/2000/svg"
   xmlns:svg="http://www.w3.org/2000/svg">
  <sodipodi:namedview
     id="namedview1"
     pagecolor="#ffffff"
     bordercolor="#000000"
     borderopacity="0.25"
     inkscape:showpageshadow="2"
     inkscape:pageopacity="0.0"
     inkscape:pagecheckerboard="0"
     inkscape:deskcolor="#d1d1d1"
     inkscape:zoom="35.227273"
     inkscape:cx="11"
     inkscape:cy="11"
     inkscape:window-width="1920"
     inkscape:window-height="998"
     inkscape:window-x="0"
     inkscape:window-y="0"
     inkscape:window-maximized="1"
     inkscape:current-layer="svg1" />
  <defs
     id="defs1">
    <linearGradient
       id="linearGradient1"
       inkscape:collect="always">
      <stop
         style="stop-color:#ff8080;stop-opacity:1"
         offset="0"
         id="stop1" />
      <stop
         style="stop-color:#2ad4ff;stop-opacity:1"
         offset="1"
         id="stop2" />
    </linearGradient>
    <style
       type="text/css"
       id="current-color-scheme">.ColorScheme-Text { color: #fcfcfc; } </style>
    <linearGradient
       inkscape:collect="always"
       xlink:href="#linearGradient1"
       id="linearGradient2"
       x1="6.6935627"
       y1="10.999999"
       x2="15.306437"
       y2="10.999999"
       gradientUnits="userSpaceOnUse" />
  </defs>
  <path
     fill-rule="evenodd"
     d="M8.835 4h4.33l.851 4.679.092.506-.022.022a1 1 0 0 1-.707.293h-.55a1.5 1.5 0 0 1-1.061-.44l-.828-.828A2.5 2.5 0 0 0 9.172 7.5h-.974zm-.818 4.5-.033.179-.25 1.374A2.5 2.5 0 0 0 10.194 13h1.612a2.5 2.5 0 0 0 2.49-2.723 2 2 0 0 1-.917.223h-.55a2.5 2.5 0 0 1-1.768-.732l-.829-.829a1.5 1.5 0 0 0-1.06-.439zM10.5 14h-.306A3.5 3.5 0 0 1 6.75 9.874L7 8.5l.85-4.679A1 1 0 0 1 8.836 3h4.33a1 1 0 0 1 .984.821L15 8.5l.25 1.374A3.5 3.5 0 0 1 11.806 14H11.5v3.008c1.973.061 3.5.482 3.5.992 0 .552-1.79 1-4 1s-4-.448-4-1c0-.51 1.527-.93 3.5-.992z"
     clip-rule="evenodd"
     style="fill:url(#linearGradient2)"
     class="ColorScheme-Text"
     id="path1" />
</svg>
