<svg xmlns="http://www.w3.org/2000/svg" xmlns:xlink="http://www.w3.org/1999/xlink" width="64" height="64" viewBox="0 0 64 64"><defs><linearGradient id="linear-pattern-0" gradientUnits="userSpaceOnUse" x1="0" y1="0" x2="0" y2="1" gradientTransform="matrix(60, 0, 0, 56, 0, 4)"><stop offset="0" stop-color="#2895ff" stop-opacity="1"/><stop offset="1" stop-color="#003c76" stop-opacity="1"/></linearGradient></defs><path fill-rule="nonzero" fill="url(#linear-pattern-0)" fill-opacity="1" d="M 36.21875 2.050781 L 62.027344 27.605469 C 64.402344 29.957031 64.417969 33.785156 62.058594 36.15625 L 36.460938 61.917969 C 34.105469 64.289062 30.269531 64.304688 27.894531 61.949219 L 2.085938 36.394531 C -0.289062 34.042969 -0.304688 30.214844 2.050781 27.84375 L 27.652344 2.082031 C 30.007812 -0.289062 33.84375 -0.304688 36.21875 2.050781 Z M 36.21875 2.050781 "/><path fill-rule="nonzero" fill="#003c76" fill-opacity="1" d="M 49.773438 18.964844 C 49.773438 19.570312 49.261719 20.097656 48.675781 20.097656 L 15.726562 20.097656 C 15.140625 20.097656 14.628906 19.570312 14.628906 18.964844 L 14.628906 16.703125 C 14.628906 16.101562 15.140625 15.574219 15.726562 15.574219 L 48.675781 15.574219 C 49.261719 15.574219 49.773438 16.101562 49.773438 16.703125 Z M 49.773438 18.964844 "/><g transform="matrix(1.0075098,0,0,1.0032698,-2.3374392,-0.00696152)"><path fill-rule="nonzero" fill="rgb(86.666667%, 86.666667%, 86.666667%)" fill-opacity="1" d="M 28.824219 32.261719 C 25.878906 31.71875 23.550781 32.292969 22.617188 33.894531 C 21.921875 35.085938 22.117188 36.6875 23.097656 38.378906 C 23.171875 38.53125 23.371094 38.578125 23.507812 38.488281 C 23.65625 38.410156 23.703125 38.214844 23.613281 38.078125 C 22.734375 36.554688 22.570312 35.179688 23.128906 34.199219 C 23.898438 32.867188 25.984375 32.355469 28.703125 32.851562 C 28.871094 32.882812 29.019531 32.777344 29.050781 32.609375 C 29.082031 32.445312 28.988281 32.292969 28.824219 32.261719 Z M 24.640625 40.449219 C 25.832031 41.765625 27.375 42.988281 29.140625 44 C 33.414062 46.460938 37.960938 47.128906 40.214844 45.601562 C 40.347656 45.511719 40.378906 45.3125 40.289062 45.179688 C 40.199219 45.042969 40 45.011719 39.867188 45.101562 C 37.859375 46.476562 33.535156 45.84375 29.445312 43.488281 C 27.734375 42.503906 26.226562 41.3125 25.078125 40.042969 C 24.972656 39.921875 24.773438 39.90625 24.65625 40.027344 C 24.535156 40.132812 24.519531 40.328125 24.640625 40.449219 Z M 24.640625 40.449219 "/><path fill-rule="nonzero" fill="rgb(86.666667%, 86.666667%, 86.666667%)" fill-opacity="1" d="M 39.488281 40.089844 C 41.421875 37.808594 42.085938 35.511719 41.164062 33.910156 C 40.484375 32.730469 39.035156 32.113281 37.132812 32.082031 C 36.964844 32.082031 36.828125 32.21875 36.828125 32.382812 C 36.828125 32.550781 36.964844 32.6875 37.132812 32.6875 C 38.855469 32.699219 40.09375 33.246094 40.652344 34.210938 C 41.421875 35.542969 40.816406 37.59375 39.035156 39.695312 C 38.929688 39.816406 38.945312 40.011719 39.066406 40.117188 C 39.1875 40.222656 39.382812 40.207031 39.488281 40.089844 Z M 34.535156 32.355469 C 32.796875 32.730469 30.9375 33.457031 29.15625 34.484375 C 24.730469 37.035156 21.859375 40.796875 22.253906 43.515625 C 22.285156 43.683594 22.433594 43.789062 22.601562 43.773438 C 22.765625 43.746094 22.871094 43.59375 22.859375 43.425781 C 22.496094 41.011719 25.230469 37.460938 29.457031 35.011719 C 31.195312 34.015625 32.992188 33.304688 34.667969 32.945312 C 34.835938 32.914062 34.941406 32.746094 34.894531 32.582031 C 34.851562 32.429688 34.699219 32.324219 34.535156 32.355469 Z M 34.535156 32.355469 "/><path fill-rule="nonzero" fill="rgb(86.666667%, 86.666667%, 86.666667%)" fill-opacity="1" d="M 27.390625 45.40625 C 28.402344 48.214844 30.046875 49.953125 31.90625 49.953125 C 33.265625 49.953125 34.503906 49.03125 35.484375 47.398438 C 35.574219 47.261719 35.53125 47.066406 35.378906 46.992188 C 35.242188 46.902344 35.046875 46.945312 34.972656 47.097656 C 34.09375 48.5625 33.023438 49.347656 31.90625 49.347656 C 30.363281 49.347656 28.898438 47.808594 27.964844 45.191406 C 27.902344 45.042969 27.734375 44.953125 27.570312 45.011719 C 27.40625 45.074219 27.328125 45.253906 27.390625 45.40625 Z M 36.605469 44.863281 C 37.132812 43.199219 37.402344 41.265625 37.402344 39.257812 C 37.402344 34.257812 35.652344 29.9375 33.160156 28.835938 C 33.007812 28.773438 32.828125 28.835938 32.765625 28.984375 C 32.707031 29.136719 32.765625 29.316406 32.917969 29.378906 C 35.136719 30.359375 36.800781 34.453125 36.800781 39.257812 C 36.800781 41.207031 36.527344 43.0625 36.03125 44.679688 C 35.984375 44.847656 36.074219 45.011719 36.226562 45.058594 C 36.375 45.101562 36.542969 45.011719 36.605469 44.863281 Z M 42.285156 44.558594 C 42.285156 43.757812 41.632812 43.109375 40.832031 43.109375 C 40.03125 43.109375 39.382812 43.757812 39.382812 44.558594 C 39.382812 45.359375 40.03125 46.007812 40.832031 46.007812 C 41.648438 46.007812 42.285156 45.359375 42.285156 44.558594 Z M 41.679688 44.558594 C 41.679688 45.027344 41.300781 45.40625 40.832031 45.40625 C 40.363281 45.40625 39.988281 45.027344 39.988281 44.558594 C 39.988281 44.089844 40.363281 43.710938 40.832031 43.710938 C 41.300781 43.710938 41.679688 44.089844 41.679688 44.558594 Z M 22.933594 46.007812 C 23.734375 46.007812 24.382812 45.359375 24.382812 44.558594 C 24.382812 43.757812 23.734375 43.109375 22.933594 43.109375 C 22.132812 43.109375 21.480469 43.757812 21.480469 44.558594 C 21.480469 45.359375 22.132812 46.007812 22.933594 46.007812 Z M 22.933594 45.40625 C 22.464844 45.40625 22.085938 45.027344 22.085938 44.558594 C 22.085938 44.089844 22.464844 43.710938 22.933594 43.710938 C 23.402344 43.710938 23.777344 44.089844 23.777344 44.558594 C 23.777344 45.027344 23.402344 45.40625 22.933594 45.40625 Z M 22.933594 45.40625 "/><path fill-rule="nonzero" fill="rgb(86.666667%, 86.666667%, 86.666667%)" fill-opacity="1" d="M 31.90625 30.300781 C 32.707031 30.300781 33.355469 29.652344 33.355469 28.847656 C 33.355469 28.050781 32.707031 27.398438 31.90625 27.398438 C 31.105469 27.398438 30.453125 28.050781 30.453125 28.847656 C 30.453125 29.652344 31.105469 30.300781 31.90625 30.300781 Z M 31.90625 29.695312 C 31.4375 29.695312 31.058594 29.316406 31.058594 28.847656 C 31.058594 28.382812 31.4375 28.003906 31.90625 28.003906 C 32.375 28.003906 32.75 28.382812 32.75 28.847656 C 32.75 29.316406 32.359375 29.695312 31.90625 29.695312 Z M 32.117188 40.285156 C 31.558594 40.40625 31 40.042969 30.878906 39.484375 C 30.757812 38.925781 31.121094 38.367188 31.679688 38.246094 C 32.238281 38.125 32.796875 38.488281 32.917969 39.046875 C 33.039062 39.605469 32.691406 40.164062 32.117188 40.285156 Z M 32.117188 40.285156 "/></g></svg>
