<svg xmlns="http://www.w3.org/2000/svg" xmlns:xlink="http://www.w3.org/1999/xlink" width="64" height="64" viewBox="0 0 64 64"><defs><linearGradient id="linear-pattern-0" gradientUnits="userSpaceOnUse" x1="0" y1="0" x2="0" y2="1" gradientTransform="matrix(60, 0, 0, 56, 0, 4)"><stop offset="0" stop-color="#2895ff" stop-opacity="1"/><stop offset="1" stop-color="#003c76" stop-opacity="1"/></linearGradient></defs><path fill-rule="nonzero" fill="url(#linear-pattern-0)" fill-opacity="1" d="M 36.21875 2.050781 L 62.027344 27.605469 C 64.402344 29.957031 64.417969 33.785156 62.058594 36.15625 L 36.460938 61.917969 C 34.105469 64.289062 30.269531 64.304688 27.894531 61.949219 L 2.085938 36.394531 C -0.289062 34.042969 -0.304688 30.214844 2.050781 27.84375 L 27.652344 2.082031 C 30.007812 -0.289062 33.84375 -0.304688 36.21875 2.050781 Z M 36.21875 2.050781 "/><path fill-rule="nonzero" fill="#003c76" fill-opacity="1" d="M 49.773438 18.964844 C 49.773438 19.570312 49.261719 20.097656 48.675781 20.097656 L 15.726562 20.097656 C 15.140625 20.097656 14.628906 19.570312 14.628906 18.964844 L 14.628906 16.703125 C 14.628906 16.101562 15.140625 15.574219 15.726562 15.574219 L 48.675781 15.574219 C 49.261719 15.574219 49.773438 16.101562 49.773438 16.703125 Z M 49.773438 18.964844 "/><g transform="matrix(1.0075098,0,0,1.0032698,-2.3374392,-0.00696152)"><path fill-rule="nonzero" fill="rgb(86.666667%, 86.666667%, 86.666667%)" fill-opacity="1" d="M 25.882812 27.386719 C 23.839844 27.410156 22.34375 27.339844 21.121094 28.015625 C 20.511719 28.351562 20.023438 28.921875 19.757812 29.632812 C 19.488281 30.347656 19.394531 31.195312 19.394531 32.261719 L 19.394531 45.261719 C 19.394531 46.328125 19.488281 47.175781 19.757812 47.890625 C 20.023438 48.601562 20.511719 49.171875 21.121094 49.511719 C 22.34375 50.1875 23.839844 50.113281 25.886719 50.136719 L 38.917969 50.136719 C 40.960938 50.113281 42.457031 50.1875 43.679688 49.511719 C 44.292969 49.171875 44.777344 48.601562 45.046875 47.890625 C 45.300781 47.175781 45.394531 46.328125 45.394531 45.261719 L 45.394531 35.511719 C 45.394531 34.445312 45.300781 33.597656 45.03125 32.882812 C 45 32.792969 44.953125 32.714844 44.910156 32.632812 C 44.894531 32.601562 44.882812 32.570312 44.867188 32.542969 C 44.589844 31.992188 44.175781 31.542969 43.667969 31.261719 C 42.445312 30.585938 40.949219 30.660156 38.90625 30.636719 L 33.960938 30.636719 L 30.675781 27.386719 Z M 25.882812 29.011719 L 30.007812 29.011719 L 33.292969 32.261719 L 38.894531 32.261719 C 40.976562 32.285156 42.195312 32.304688 42.882812 32.683594 C 43.074219 32.789062 43.269531 32.984375 43.421875 33.28125 C 43.394531 33.230469 43.421875 33.296875 43.472656 33.386719 C 43.488281 33.414062 43.472656 33.386719 43.488281 33.402344 L 43.488281 33.40625 C 43.503906 33.445312 43.527344 33.492188 43.515625 33.457031 C 43.679688 33.886719 43.773438 34.539062 43.773438 35.511719 L 43.773438 40.386719 L 21.019531 40.386719 L 21.019531 32.261719 C 21.019531 31.289062 21.113281 30.640625 21.277344 30.207031 C 21.417969 29.832031 21.652344 29.578125 21.90625 29.4375 C 22.59375 29.058594 23.8125 29.035156 25.886719 29.011719 Z M 25.882812 29.011719 "/></g></svg>
