<svg xmlns="http://www.w3.org/2000/svg" xmlns:xlink="http://www.w3.org/1999/xlink" width="64" height="64" viewBox="0 0 64 64"><defs><linearGradient id="linear-pattern-0" gradientUnits="userSpaceOnUse" x1="0" y1="0" x2="0" y2="1" gradientTransform="matrix(60, 0, 0, 56, 0, 4)"><stop offset="0" stop-color="#2895ff" stop-opacity="1"/><stop offset="1" stop-color="#003c76" stop-opacity="1"/></linearGradient></defs><path fill-rule="nonzero" fill="url(#linear-pattern-0)" fill-opacity="1" d="M 36.21875 2.050781 L 62.027344 27.605469 C 64.402344 29.957031 64.417969 33.785156 62.058594 36.15625 L 36.460938 61.917969 C 34.105469 64.289062 30.269531 64.304688 27.894531 61.949219 L 2.085938 36.394531 C -0.289062 34.042969 -0.304688 30.214844 2.050781 27.84375 L 27.652344 2.082031 C 30.007812 -0.289062 33.84375 -0.304688 36.21875 2.050781 Z M 36.21875 2.050781 "/><path fill-rule="nonzero" fill="#003c76" fill-opacity="1" d="M 49.773438 18.964844 C 49.773438 19.570312 49.261719 20.097656 48.675781 20.097656 L 15.726562 20.097656 C 15.140625 20.097656 14.628906 19.570312 14.628906 18.964844 L 14.628906 16.703125 C 14.628906 16.101562 15.140625 15.574219 15.726562 15.574219 L 48.675781 15.574219 C 49.261719 15.574219 49.773438 16.101562 49.773438 16.703125 Z M 49.773438 18.964844 "/><g transform="matrix(1.0075098,0,0,1.0032698,-2.3374392,-0.00696152)"><path fill-rule="nonzero" fill="rgb(86.666667%, 86.666667%, 86.666667%)" fill-opacity="1" d="M 34.40625 43.71875 C 32.457031 44.625 30.644531 44.613281 29.425781 44.527344 C 27.972656 44.421875 26.800781 44.027344 26.289062 43.675781 C 25.972656 43.460938 25.542969 43.542969 25.324219 43.859375 C 25.109375 44.175781 25.195312 44.609375 25.511719 44.820312 C 26.335938 45.382812 27.796875 45.796875 29.324219 45.90625 C 29.582031 45.929688 29.867188 45.9375 30.171875 45.9375 C 31.5 45.9375 33.1875 45.8125 34.988281 44.972656 C 35.335938 44.8125 35.488281 44.398438 35.324219 44.050781 C 35.164062 43.707031 34.753906 43.554688 34.40625 43.71875 Z M 42.101562 42.691406 C 42.167969 36.675781 42.785156 25.308594 31.269531 26.226562 C 19.902344 27.144531 22.917969 39.152344 22.746094 43.175781 C 22.597656 45.304688 21.894531 47.902344 20.894531 50.550781 L 23.964844 50.550781 C 24.285156 49.429688 24.515625 48.320312 24.617188 47.261719 C 24.800781 47.390625 25 47.515625 25.210938 47.636719 C 25.554688 47.839844 25.851562 48.109375 26.164062 48.394531 C 26.894531 49.0625 27.726562 49.816406 29.347656 49.910156 C 29.453125 49.917969 29.566406 49.921875 29.671875 49.921875 C 31.3125 49.921875 32.433594 49.203125 33.335938 48.628906 C 33.765625 48.351562 34.140625 48.113281 34.492188 47.996094 C 35.488281 47.683594 36.359375 47.179688 37.011719 46.539062 C 37.113281 46.4375 37.207031 46.335938 37.296875 46.230469 C 37.660156 47.5625 38.15625 49.058594 38.707031 50.550781 L 45.269531 50.550781 C 43.691406 48.117188 42.070312 45.734375 42.101562 42.691406 Z M 23.847656 39.421875 C 23.847656 39.421875 23.847656 39.417969 23.847656 39.417969 C 23.734375 37.457031 24.675781 35.804688 25.949219 35.730469 C 27.214844 35.65625 28.339844 37.1875 28.453125 39.152344 C 28.460938 39.257812 28.460938 39.363281 28.460938 39.464844 C 28.058594 39.566406 27.695312 39.714844 27.371094 39.886719 C 27.371094 39.871094 27.367188 39.855469 27.367188 39.84375 L 27.367188 39.839844 C 27.257812 38.726562 26.664062 37.886719 26.035156 37.960938 C 25.414062 38.039062 24.992188 39.003906 25.101562 40.117188 C 25.148438 40.605469 25.289062 41.039062 25.484375 41.367188 C 25.433594 41.402344 25.296875 41.503906 25.140625 41.621094 C 25.023438 41.707031 24.878906 41.8125 24.703125 41.941406 C 24.230469 41.316406 23.90625 40.425781 23.847656 39.421875 Z M 36.730469 44.269531 C 36.683594 45.308594 35.324219 46.285156 34.074219 46.675781 L 34.066406 46.679688 C 33.546875 46.847656 33.082031 47.144531 32.589844 47.457031 C 31.761719 47.988281 30.90625 48.535156 29.671875 48.535156 C 29.589844 48.535156 29.507812 48.53125 29.425781 48.527344 C 28.292969 48.460938 27.765625 47.980469 27.097656 47.371094 C 26.742188 47.046875 26.378906 46.714844 25.90625 46.4375 L 25.894531 46.433594 C 24.878906 45.859375 24.25 45.144531 24.207031 44.523438 C 24.1875 44.214844 24.328125 43.945312 24.617188 43.730469 C 25.25 43.253906 25.675781 42.941406 25.957031 42.738281 C 26.269531 42.507812 26.363281 42.441406 26.433594 42.375 C 26.484375 42.328125 26.539062 42.273438 26.597656 42.21875 C 27.175781 41.652344 28.152344 40.707031 29.644531 40.707031 C 30.558594 40.707031 31.574219 41.058594 32.652344 41.75 C 33.15625 42.078125 33.597656 42.230469 34.15625 42.425781 C 34.542969 42.558594 34.976562 42.707031 35.5625 42.957031 L 35.570312 42.964844 C 36.117188 43.1875 36.757812 43.59375 36.730469 44.269531 Z M 36.429688 41.832031 C 36.324219 41.78125 36.214844 41.730469 36.101562 41.683594 C 35.574219 41.460938 35.15625 41.304688 34.804688 41.183594 C 34.996094 40.804688 35.117188 40.335938 35.128906 39.820312 C 35.15625 38.574219 34.527344 37.5625 33.722656 37.558594 C 32.921875 37.558594 32.25 38.566406 32.222656 39.8125 C 32.222656 39.855469 32.222656 39.894531 32.222656 39.9375 C 31.726562 39.707031 31.242188 39.542969 30.765625 39.441406 C 30.765625 39.394531 30.761719 39.347656 30.761719 39.300781 C 30.714844 37.027344 32.109375 35.148438 33.875 35.101562 C 35.636719 35.054688 37.105469 36.855469 37.152344 39.125 C 37.171875 40.15625 36.898438 41.097656 36.429688 41.832031 Z M 36.429688 41.832031 "/></g></svg>
