<svg xmlns="http://www.w3.org/2000/svg" xmlns:xlink="http://www.w3.org/1999/xlink" width="64" height="64" viewBox="0 0 64 64"><defs><linearGradient id="linear-pattern-0" gradientUnits="userSpaceOnUse" x1="0" y1="0" x2="0" y2="1" gradientTransform="matrix(60, 0, 0, 56, 0, 4)"><stop offset="0" stop-color="#2895ff" stop-opacity="1"/><stop offset="1" stop-color="#003c76" stop-opacity="1"/></linearGradient></defs><path fill-rule="nonzero" fill="url(#linear-pattern-0)" fill-opacity="1" d="M 36.21875 2.050781 L 62.027344 27.605469 C 64.402344 29.957031 64.417969 33.785156 62.058594 36.15625 L 36.460938 61.917969 C 34.105469 64.289062 30.269531 64.304688 27.894531 61.949219 L 2.085938 36.394531 C -0.289062 34.042969 -0.304688 30.214844 2.050781 27.84375 L 27.652344 2.082031 C 30.007812 -0.289062 33.84375 -0.304688 36.21875 2.050781 Z M 36.21875 2.050781 "/><path fill-rule="nonzero" fill="#003c76" fill-opacity="1" d="M 49.773438 18.964844 C 49.773438 19.570312 49.261719 20.097656 48.675781 20.097656 L 15.726562 20.097656 C 15.140625 20.097656 14.628906 19.570312 14.628906 18.964844 L 14.628906 16.703125 C 14.628906 16.101562 15.140625 15.574219 15.726562 15.574219 L 48.675781 15.574219 C 49.261719 15.574219 49.773438 16.101562 49.773438 16.703125 Z M 49.773438 18.964844 "/><g transform="matrix(1.0075098,0,0,1.0032698,-2.3374392,-0.00696152)"><path fill-rule="nonzero" fill="rgb(86.666667%, 86.666667%, 86.666667%)" fill-opacity="1" d="M 24.835938 27.128906 L 24.835938 28.796875 L 26.453125 28.796875 C 24.40625 28.820312 22.910156 28.742188 21.6875 29.4375 C 21.074219 29.78125 20.59375 30.367188 20.324219 31.097656 C 20.058594 31.828125 19.960938 32.695312 19.960938 33.792969 L 19.960938 43.792969 C 19.960938 44.890625 20.058594 45.757812 20.324219 46.488281 C 20.59375 47.21875 21.074219 47.804688 21.6875 48.152344 C 22.910156 48.84375 24.40625 48.769531 26.453125 48.792969 L 39.46875 48.792969 C 41.515625 48.769531 43.011719 48.84375 44.234375 48.152344 C 44.847656 47.804688 45.328125 47.21875 45.597656 46.488281 C 45.863281 45.757812 45.960938 44.890625 45.960938 43.792969 L 45.960938 33.792969 C 45.960938 32.695312 45.863281 31.828125 45.597656 31.097656 C 45.328125 30.367188 44.847656 29.78125 44.234375 29.4375 C 43.011719 28.742188 41.515625 28.820312 39.46875 28.796875 L 28.085938 28.796875 L 28.085938 27.128906 Z M 26.460938 30.460938 L 39.460938 30.460938 C 41.507812 30.488281 42.851562 30.5625 43.445312 30.898438 C 43.746094 31.066406 43.917969 31.25 44.074219 31.683594 C 44.234375 32.117188 44.335938 32.804688 44.335938 33.792969 L 44.335938 43.792969 C 44.335938 44.78125 44.234375 45.46875 44.074219 45.902344 C 43.917969 46.335938 43.746094 46.523438 43.445312 46.691406 C 42.851562 47.027344 41.507812 47.101562 39.460938 47.125 L 26.460938 47.125 C 24.414062 47.101562 23.066406 47.027344 22.472656 46.691406 C 22.175781 46.523438 22.003906 46.335938 21.847656 45.902344 C 21.6875 45.46875 21.585938 44.78125 21.585938 43.792969 L 21.585938 33.792969 C 21.585938 32.804688 21.6875 32.117188 21.847656 31.683594 C 22.003906 31.25 22.175781 31.066406 22.472656 30.898438 C 23.066406 30.5625 24.414062 30.488281 26.460938 30.460938 Z M 32.960938 32.128906 C 29.371094 32.128906 26.460938 35.113281 26.460938 38.792969 C 26.460938 42.476562 29.371094 45.460938 32.960938 45.460938 C 36.550781 45.460938 39.460938 42.476562 39.460938 38.792969 C 39.460938 35.113281 36.550781 32.128906 32.960938 32.128906 Z M 41.898438 32.128906 C 41.449219 32.128906 41.085938 32.5 41.085938 32.960938 C 41.085938 33.421875 41.449219 33.792969 41.898438 33.792969 C 42.347656 33.792969 42.710938 33.421875 42.710938 32.960938 C 42.710938 32.5 42.347656 32.128906 41.898438 32.128906 Z M 32.960938 33.792969 C 35.652344 33.792969 37.835938 36.03125 37.835938 38.792969 C 37.835938 41.554688 35.652344 43.792969 32.960938 43.792969 C 30.269531 43.792969 28.085938 41.554688 28.085938 38.792969 C 28.085938 36.03125 30.269531 33.792969 32.960938 33.792969 Z M 32.824219 35.46875 C 31.085938 35.542969 29.710938 37.007812 29.710938 38.792969 C 29.710938 40.636719 31.164062 42.128906 32.960938 42.128906 C 34.757812 42.128906 36.210938 40.636719 36.210938 38.792969 C 36.207031 37.019531 34.851562 35.558594 33.121094 35.472656 C 33.953125 35.554688 34.585938 36.273438 34.585938 37.128906 C 34.585938 38.046875 33.859375 38.792969 32.960938 38.792969 C 32.0625 38.792969 31.335938 38.046875 31.335938 37.128906 C 31.335938 36.261719 31.984375 35.539062 32.824219 35.46875 Z M 32.824219 35.46875 "/></g></svg>
