<svg xmlns="http://www.w3.org/2000/svg" xmlns:xlink="http://www.w3.org/1999/xlink" width="64" height="64" viewBox="0 0 64 64"><defs><linearGradient id="linear-pattern-0" gradientUnits="userSpaceOnUse" x1="0" y1="0" x2="0" y2="1" gradientTransform="matrix(60, 0, 0, 56, 0, 4)"><stop offset="0" stop-color="#2895ff" stop-opacity="1"/><stop offset="1" stop-color="#003c76" stop-opacity="1"/></linearGradient></defs><path fill-rule="nonzero" fill="url(#linear-pattern-0)" fill-opacity="1" d="M 36.21875 2.050781 L 62.027344 27.605469 C 64.402344 29.957031 64.417969 33.785156 62.058594 36.15625 L 36.460938 61.917969 C 34.105469 64.289062 30.269531 64.304688 27.894531 61.949219 L 2.085938 36.394531 C -0.289062 34.042969 -0.304688 30.214844 2.050781 27.84375 L 27.652344 2.082031 C 30.007812 -0.289062 33.84375 -0.304688 36.21875 2.050781 Z M 36.21875 2.050781 "/><path fill-rule="nonzero" fill="#003c76" fill-opacity="1" d="M 49.773438 18.964844 C 49.773438 19.570312 49.261719 20.097656 48.675781 20.097656 L 15.726562 20.097656 C 15.140625 20.097656 14.628906 19.570312 14.628906 18.964844 L 14.628906 16.703125 C 14.628906 16.101562 15.140625 15.574219 15.726562 15.574219 L 48.675781 15.574219 C 49.261719 15.574219 49.773438 16.101562 49.773438 16.703125 Z M 49.773438 18.964844 "/><g transform="matrix(1.0075098,0,0,1.0032698,-2.3374392,-0.00696152)"><path fill-rule="nonzero" fill="rgb(86.666667%, 86.666667%, 86.666667%)" fill-opacity="0.7" d="M 33.003906 26.851562 L 29.671875 26.851562 L 29.671875 30.882812 L 32.898438 30.882812 Z M 33.972656 26.851562 L 33.972656 30.882812 L 37.199219 30.882812 L 37.199219 26.851562 Z M 43.113281 30.210938 C 42.039062 31.285156 41.5 33.035156 41.824219 34.644531 C 42.253906 36.257812 43.328125 37.46875 44.726562 37.605469 C 45.15625 39.21875 46.339844 40.292969 47.738281 40.292969 C 49.136719 40.292969 50.320312 39.21875 50.75 37.605469 C 50.320312 35.992188 49.136719 34.914062 47.738281 34.914062 C 47.09375 34.914062 46.449219 35.183594 45.910156 35.585938 C 46.160156 34.914062 46.125 33.972656 46.015625 33.167969 C 45.695312 31.554688 44.511719 30.34375 43.113281 30.210938 Z M 44.726562 37.605469 L 18.917969 37.605469 C 18.917969 46.476562 24.722656 51.046875 31.820312 51.046875 C 38.917969 51.046875 44.726562 46.476562 44.726562 37.605469 Z M 27.519531 32.226562 L 24.292969 32.226562 L 24.292969 36.257812 L 27.519531 36.257812 Z M 31.820312 32.226562 L 28.597656 32.226562 L 28.597656 36.257812 L 31.820312 36.257812 Z M 36.125 32.226562 L 32.898438 32.226562 L 32.898438 36.257812 L 36.125 36.257812 Z M 40.425781 32.226562 L 37.199219 32.226562 L 37.199219 36.257812 L 40.425781 36.257812 Z M 24.292969 40.292969 C 24.832031 40.292969 25.371094 40.832031 25.371094 41.636719 C 25.371094 42.308594 24.832031 42.980469 24.292969 42.980469 C 23.648438 42.980469 23.21875 42.308594 23.21875 41.636719 C 23.21875 40.832031 23.648438 40.292969 24.292969 40.292969 Z M 24.292969 40.292969 "/></g></svg>
