<svg xmlns="http://www.w3.org/2000/svg" xmlns:xlink="http://www.w3.org/1999/xlink" width="64" height="64" viewBox="0 0 64 64"><defs><linearGradient id="linear-pattern-0" gradientUnits="userSpaceOnUse" x1="0" y1="0" x2="0" y2="1" gradientTransform="matrix(60, 0, 0, 56, 0, 4)"><stop offset="0" stop-color="#2895ff" stop-opacity="1"/><stop offset="1" stop-color="#003c76" stop-opacity="1"/></linearGradient></defs><path fill-rule="nonzero" fill="url(#linear-pattern-0)" fill-opacity="1" d="M 36.21875 2.050781 L 62.027344 27.605469 C 64.402344 29.957031 64.417969 33.785156 62.058594 36.15625 L 36.460938 61.917969 C 34.105469 64.289062 30.269531 64.304688 27.894531 61.949219 L 2.085938 36.394531 C -0.289062 34.042969 -0.304688 30.214844 2.050781 27.84375 L 27.652344 2.082031 C 30.007812 -0.289062 33.84375 -0.304688 36.21875 2.050781 Z M 36.21875 2.050781 "/><path fill-rule="nonzero" fill="#003c76" fill-opacity="1" d="M 49.773438 18.964844 C 49.773438 19.570312 49.261719 20.097656 48.675781 20.097656 L 15.726562 20.097656 C 15.140625 20.097656 14.628906 19.570312 14.628906 18.964844 L 14.628906 16.703125 C 14.628906 16.101562 15.140625 15.574219 15.726562 15.574219 L 48.675781 15.574219 C 49.261719 15.574219 49.773438 16.101562 49.773438 16.703125 Z M 49.773438 18.964844 "/><g transform="matrix(1.0075098,0,0,1.0032698,-2.3374392,-0.00696152)"><path fill-rule="nonzero" fill="rgb(86.666667%, 86.666667%, 86.666667%)" fill-opacity="1" d="M 20.871094 27.375 L 20.871094 48.5 L 22.496094 48.5 L 22.496094 46.875 L 24.121094 46.875 L 24.121094 48.5 L 41.996094 48.5 L 41.996094 46.875 L 43.621094 46.875 L 43.621094 48.5 L 45.246094 48.5 L 45.246094 27.375 L 43.621094 27.375 L 43.621094 29 L 41.996094 29 L 41.996094 27.375 L 24.121094 27.375 L 24.121094 29 L 22.496094 29 L 22.496094 27.375 Z M 25.746094 29 L 40.371094 29 L 40.371094 37.125 L 25.746094 37.125 Z M 22.496094 30.625 L 24.121094 30.625 L 24.121094 32.25 L 22.496094 32.25 Z M 41.996094 30.625 L 43.621094 30.625 L 43.621094 32.25 L 41.996094 32.25 Z M 22.496094 33.875 L 24.121094 33.875 L 24.121094 35.5 L 22.496094 35.5 Z M 41.996094 33.875 L 43.621094 33.875 L 43.621094 35.5 L 41.996094 35.5 Z M 22.496094 37.125 L 24.121094 37.125 L 24.121094 38.75 L 22.496094 38.75 Z M 41.996094 37.125 L 43.621094 37.125 L 43.621094 38.75 L 41.996094 38.75 Z M 25.746094 38.75 L 40.371094 38.75 L 40.371094 46.875 L 25.746094 46.875 Z M 22.496094 40.375 L 24.121094 40.375 L 24.121094 42 L 22.496094 42 Z M 41.996094 40.375 L 43.621094 40.375 L 43.621094 42 L 41.996094 42 Z M 22.496094 43.625 L 24.121094 43.625 L 24.121094 45.25 L 22.496094 45.25 Z M 41.996094 43.625 L 43.621094 43.625 L 43.621094 45.25 L 41.996094 45.25 Z M 41.996094 43.625 "/></g></svg>
