<svg xmlns="http://www.w3.org/2000/svg" xmlns:xlink="http://www.w3.org/1999/xlink" width="64" height="64" viewBox="0 0 64 64"><defs><linearGradient id="linear-pattern-0" gradientUnits="userSpaceOnUse" x1="0" y1="0" x2="0" y2="1" gradientTransform="matrix(60, 0, 0, 56, 0, 4)"><stop offset="0" stop-color="#2895ff" stop-opacity="1"/><stop offset="1" stop-color="#003c76" stop-opacity="1"/></linearGradient></defs><path fill-rule="nonzero" fill="url(#linear-pattern-0)" fill-opacity="1" d="M 36.21875 2.050781 L 62.027344 27.605469 C 64.402344 29.957031 64.417969 33.785156 62.058594 36.15625 L 36.460938 61.917969 C 34.105469 64.289062 30.269531 64.304688 27.894531 61.949219 L 2.085938 36.394531 C -0.289062 34.042969 -0.304688 30.214844 2.050781 27.84375 L 27.652344 2.082031 C 30.007812 -0.289062 33.84375 -0.304688 36.21875 2.050781 Z M 36.21875 2.050781 "/><path fill-rule="nonzero" fill="#003c76" fill-opacity="1" d="M 49.773438 18.964844 C 49.773438 19.570312 49.261719 20.097656 48.675781 20.097656 L 15.726562 20.097656 C 15.140625 20.097656 14.628906 19.570312 14.628906 18.964844 L 14.628906 16.703125 C 14.628906 16.101562 15.140625 15.574219 15.726562 15.574219 L 48.675781 15.574219 C 49.261719 15.574219 49.773438 16.101562 49.773438 16.703125 Z M 49.773438 18.964844 "/><g transform="matrix(1.0075098,0,0,1.0032698,-2.3374392,-0.00696152)"><path fill-rule="evenodd" fill="rgb(86.666667%, 86.666667%, 86.666667%)" fill-opacity="1" d="M 19.222656 25.160156 L 45.222656 25.160156 L 45.222656 51.160156 L 19.222656 51.160156 Z M 43.515625 44.425781 L 38.367188 44.425781 L 38.367188 37.507812 C 38.367188 35.382812 37.65625 34.5625 36.269531 34.5625 C 34.578125 34.5625 33.898438 35.761719 33.898438 37.480469 L 33.898438 41.757812 L 35.53125 41.757812 L 35.53125 44.425781 L 30.382812 44.425781 L 30.382812 37.507812 C 30.382812 35.382812 29.675781 34.5625 28.285156 34.5625 C 26.59375 34.5625 25.914062 35.761719 25.914062 37.480469 L 25.914062 41.757812 L 28.257812 41.757812 L 28.257812 44.425781 L 20.765625 44.425781 L 20.765625 41.757812 L 22.398438 41.757812 L 22.398438 34.808594 L 20.765625 34.808594 L 20.765625 32.140625 L 25.914062 32.140625 L 25.914062 33.992188 C 26.652344 32.683594 27.933594 31.894531 29.648438 31.894531 C 31.417969 31.894531 33.050781 32.738281 33.652344 34.535156 C 34.332031 32.902344 35.722656 31.894531 37.65625 31.894531 C 39.863281 31.894531 41.878906 33.226562 41.878906 36.144531 L 41.878906 41.757812 L 43.515625 41.757812 Z M 43.515625 44.425781 "/></g></svg>
