<svg xmlns="http://www.w3.org/2000/svg" xmlns:xlink="http://www.w3.org/1999/xlink" width="64" height="64" viewBox="0 0 64 64"><defs><linearGradient id="linear-pattern-0" gradientUnits="userSpaceOnUse" x1="0" y1="0" x2="0" y2="1" gradientTransform="matrix(60, 0, 0, 56, 0, 4)"><stop offset="0" stop-color="#2895ff" stop-opacity="1"/><stop offset="1" stop-color="#003c76" stop-opacity="1"/></linearGradient></defs><path fill-rule="nonzero" fill="url(#linear-pattern-0)" fill-opacity="1" d="M 36.21875 2.050781 L 62.027344 27.605469 C 64.402344 29.957031 64.417969 33.785156 62.058594 36.15625 L 36.460938 61.917969 C 34.105469 64.289062 30.269531 64.304688 27.894531 61.949219 L 2.085938 36.394531 C -0.289062 34.042969 -0.304688 30.214844 2.050781 27.84375 L 27.652344 2.082031 C 30.007812 -0.289062 33.84375 -0.304688 36.21875 2.050781 Z M 36.21875 2.050781 "/><path fill-rule="nonzero" fill="#003c76" fill-opacity="1" d="M 49.773438 18.964844 C 49.773438 19.570312 49.261719 20.097656 48.675781 20.097656 L 15.726562 20.097656 C 15.140625 20.097656 14.628906 19.570312 14.628906 18.964844 L 14.628906 16.703125 C 14.628906 16.101562 15.140625 15.574219 15.726562 15.574219 L 48.675781 15.574219 C 49.261719 15.574219 49.773438 16.101562 49.773438 16.703125 Z M 49.773438 18.964844 "/><g transform="matrix(1.0075098,0,0,1.0032698,-2.3374392,-0.00696152)"><path fill-rule="nonzero" fill="rgb(86.666667%, 86.666667%, 86.666667%)" fill-opacity="1" d="M 30.683594 32.867188 L 32.535156 28.804688 L 34.457031 28.804688 L 39.625 40.15625 C 38.640625 40.699219 37.457031 41.050781 36.21875 41.25 L 33.496094 35.410156 L 30.535156 41.757812 C 31.460938 41.921875 32.457031 42.011719 33.496094 42.011719 C 38.363281 42.011719 42.316406 40.039062 42.316406 37.609375 C 42.316406 36.273438 41.121094 35.074219 39.230469 34.265625 C 39.054688 34.460938 38.777344 34.589844 38.46875 34.589844 C 37.933594 34.589844 37.503906 34.21875 37.503906 33.761719 C 37.503906 33.304688 37.933594 32.933594 38.46875 32.933594 C 38.964844 32.933594 39.375 33.253906 39.425781 33.667969 C 42.046875 34.667969 43.761719 36.308594 43.761719 38.160156 C 43.761719 39.734375 42.523438 41.15625 40.539062 42.160156 C 39.515625 42.691406 38.367188 43.0625 37.175781 43.296875 C 36.03125 43.53125 34.792969 43.660156 33.496094 43.660156 C 32.199219 43.660156 30.957031 43.53125 29.816406 43.296875 L 28.363281 46.414062 L 24.515625 46.414062 L 26.449219 42.160156 C 24.46875 41.15625 23.230469 39.734375 23.230469 38.160156 C 23.230469 35.644531 26.382812 33.523438 30.683594 32.867188 Z M 42.476562 46.414062 L 38.628906 46.414062 L 37.417969 43.820312 C 38.597656 43.574219 39.734375 43.199219 40.777344 42.679688 Z M 30.402344 33.488281 C 27.058594 34.113281 24.675781 35.722656 24.675781 37.609375 C 24.675781 38.792969 25.613281 39.867188 27.136719 40.660156 Z M 30.402344 33.488281 "/></g></svg>
