<svg xmlns="http://www.w3.org/2000/svg" xmlns:xlink="http://www.w3.org/1999/xlink" width="64" height="64" viewBox="0 0 64 64"><defs><linearGradient id="linear-pattern-0" gradientUnits="userSpaceOnUse" x1="0" y1="0" x2="0" y2="1" gradientTransform="matrix(60, 0, 0, 56, 0, 4)"><stop offset="0" stop-color="#2895ff" stop-opacity="1"/><stop offset="1" stop-color="#003c76" stop-opacity="1"/></linearGradient></defs><path fill-rule="nonzero" fill="url(#linear-pattern-0)" fill-opacity="1" d="M 36.21875 2.050781 L 62.027344 27.605469 C 64.402344 29.957031 64.417969 33.785156 62.058594 36.15625 L 36.460938 61.917969 C 34.105469 64.289062 30.269531 64.304688 27.894531 61.949219 L 2.085938 36.394531 C -0.289062 34.042969 -0.304688 30.214844 2.050781 27.84375 L 27.652344 2.082031 C 30.007812 -0.289062 33.84375 -0.304688 36.21875 2.050781 Z M 36.21875 2.050781 "/><path fill-rule="nonzero" fill="#003c76" fill-opacity="1" d="M 49.773438 18.964844 C 49.773438 19.570312 49.261719 20.097656 48.675781 20.097656 L 15.726562 20.097656 C 15.140625 20.097656 14.628906 19.570312 14.628906 18.964844 L 14.628906 16.703125 C 14.628906 16.101562 15.140625 15.574219 15.726562 15.574219 L 48.675781 15.574219 C 49.261719 15.574219 49.773438 16.101562 49.773438 16.703125 Z M 49.773438 18.964844 "/><g transform="matrix(1.0075098,0,0,1.0032698,-2.3374392,-0.00696152)"><path fill-rule="evenodd" fill="rgb(86.666667%, 86.666667%, 86.666667%)" fill-opacity="0.7" d="M 33.503906 25.871094 C 32.804688 25.871094 32.125 26.132812 31.589844 26.675781 L 22.054688 36.355469 C 21.527344 36.890625 21.246094 37.542969 21.234375 38.238281 L 21.234375 38.289062 C 21.417969 38.992188 26.128906 39.84375 26.65625 40.375 C 27.449219 41.179688 22.199219 42.273438 22.996094 43.078125 C 23.789062 43.882812 29.207031 44.15625 30 44.960938 C 30.796875 45.765625 27.5 46.671875 28.292969 47.476562 C 29.085938 48.277344 32.609375 47.257812 32.128906 49.355469 C 33.199219 50.441406 36.332031 49.914062 37.828125 48.828125 C 38.621094 48.023438 35.449219 48.125 36.242188 47.320312 C 37.035156 46.515625 40.585938 46.714844 42.273438 44.789062 C 41.59375 43.71875 37.800781 43.0625 38.59375 42.257812 C 39.386719 41.453125 40.964844 41.804688 44.292969 40.273438 C 45.921875 39.527344 45.78125 38.980469 45.777344 38.289062 L 45.777344 38.238281 C 45.757812 37.542969 45.480469 36.890625 44.957031 36.355469 L 35.421875 26.675781 C 34.886719 26.132812 34.203125 25.871094 33.503906 25.871094 Z M 33.503906 27.652344 C 33.765625 27.652344 34.015625 27.699219 34.21875 27.90625 L 38.75 32.542969 L 38.75 34.476562 L 35.25 34.476562 L 33.503906 32.75 L 30 36.1875 L 28.03125 32.75 L 32.789062 27.90625 C 32.988281 27.710938 33.246094 27.652344 33.503906 27.652344 Z M 44.660156 43.386719 C 44.042969 43.386719 43.542969 43.632812 43.542969 43.933594 C 43.542969 44.238281 44.042969 44.480469 44.660156 44.480469 C 45.277344 44.480469 45.777344 44.238281 45.777344 43.933594 C 45.777344 43.632812 45.277344 43.386719 44.660156 43.386719 Z M 42.988281 47.21875 C 42.371094 47.21875 41.871094 47.464844 41.871094 47.765625 C 41.871094 48.066406 42.371094 48.3125 42.988281 48.3125 C 43.601562 48.3125 44.101562 48.066406 44.101562 47.765625 C 44.101562 47.464844 43.601562 47.21875 42.988281 47.21875 Z M 42.988281 47.21875 "/></g></svg>
