<svg xmlns="http://www.w3.org/2000/svg" xmlns:xlink="http://www.w3.org/1999/xlink" width="64" height="64" viewBox="0 0 64 64"><defs><linearGradient id="linear-pattern-0" gradientUnits="userSpaceOnUse" x1="0" y1="0" x2="0" y2="1" gradientTransform="matrix(60, 0, 0, 56, 0, 4)"><stop offset="0" stop-color="#2895ff" stop-opacity="1"/><stop offset="1" stop-color="#003c76" stop-opacity="1"/></linearGradient></defs><path fill-rule="nonzero" fill="url(#linear-pattern-0)" fill-opacity="1" d="M 36.21875 2.050781 L 62.027344 27.605469 C 64.402344 29.957031 64.417969 33.785156 62.058594 36.15625 L 36.460938 61.917969 C 34.105469 64.289062 30.269531 64.304688 27.894531 61.949219 L 2.085938 36.394531 C -0.289062 34.042969 -0.304688 30.214844 2.050781 27.84375 L 27.652344 2.082031 C 30.007812 -0.289062 33.84375 -0.304688 36.21875 2.050781 Z M 36.21875 2.050781 "/><path fill-rule="nonzero" fill="#003c76" fill-opacity="1" d="M 49.773438 18.964844 C 49.773438 19.570312 49.261719 20.097656 48.675781 20.097656 L 15.726562 20.097656 C 15.140625 20.097656 14.628906 19.570312 14.628906 18.964844 L 14.628906 16.703125 C 14.628906 16.101562 15.140625 15.574219 15.726562 15.574219 L 48.675781 15.574219 C 49.261719 15.574219 49.773438 16.101562 49.773438 16.703125 Z M 49.773438 18.964844 "/><g transform="matrix(1.0075098,0,0,1.0032698,-2.3374392,-0.00696152)"><path fill-rule="evenodd" fill="rgb(86.666667%, 86.666667%, 86.666667%)" fill-opacity="1" d="M 28.820312 36.890625 C 28.894531 36.769531 28.972656 36.648438 29.050781 36.527344 C 29.09375 36.464844 29.136719 36.402344 29.179688 36.335938 C 29.015625 36.347656 28.855469 36.359375 28.691406 36.375 C 28.734375 36.546875 28.777344 36.71875 28.820312 36.890625 Z M 27.625 38.941406 C 27.519531 39.136719 27.417969 39.332031 27.316406 39.53125 C 26.855469 40.429688 26.449219 41.359375 26.101562 42.308594 C 25.796875 43.125 25.5625 43.964844 25.382812 44.8125 C 25.222656 45.53125 25.144531 46.257812 25.136719 46.988281 C 25.136719 46.992188 25.136719 46.996094 25.136719 47.003906 L 25.136719 47.113281 C 25.132812 47.75 25.257812 48.378906 25.511719 48.960938 C 25.738281 49.488281 26.113281 49.941406 26.582031 50.269531 C 26.769531 50.414062 26.976562 50.523438 27.203125 50.59375 C 27.460938 50.675781 27.734375 50.714844 28.011719 50.707031 C 28.519531 50.703125 29.023438 50.585938 29.488281 50.382812 C 30.105469 50.113281 30.675781 49.753906 31.1875 49.320312 C 31.363281 49.171875 31.472656 48.957031 31.492188 48.734375 C 31.507812 48.5 31.4375 48.273438 31.289062 48.097656 C 31.136719 47.921875 30.925781 47.8125 30.699219 47.796875 C 30.46875 47.777344 30.242188 47.851562 30.0625 48.003906 C 29.683594 48.328125 29.253906 48.59375 28.792969 48.796875 C 28.535156 48.910156 28.261719 48.96875 27.976562 48.980469 C 27.886719 48.980469 27.796875 48.960938 27.714844 48.941406 C 27.6875 48.925781 27.664062 48.910156 27.644531 48.886719 C 27.40625 48.742188 27.210938 48.53125 27.101562 48.273438 C 26.949219 47.910156 26.867188 47.519531 26.871094 47.117188 C 26.871094 47.113281 26.871094 47.113281 26.871094 47.109375 L 26.871094 46.996094 C 26.878906 46.386719 26.949219 45.773438 27.074219 45.179688 C 27.234375 44.40625 27.457031 43.652344 27.726562 42.910156 C 27.945312 42.308594 28.191406 41.71875 28.460938 41.140625 C 28.558594 41.359375 28.660156 41.578125 28.761719 41.796875 C 29.378906 43.101562 30.105469 44.363281 30.925781 45.566406 C 31.636719 46.617188 32.433594 47.605469 33.316406 48.519531 C 33.703125 48.910156 34.113281 49.285156 34.542969 49.640625 C 34.921875 49.953125 35.328125 50.234375 35.757812 50.488281 C 36.132812 50.722656 36.539062 50.90625 36.953125 51.050781 C 37.347656 51.1875 37.75 51.257812 38.167969 51.261719 C 38.625 51.269531 39.074219 51.160156 39.480469 50.945312 C 39.746094 50.753906 39.96875 50.507812 40.136719 50.222656 C 40.292969 49.964844 40.414062 49.6875 40.496094 49.398438 C 40.675781 48.75 40.761719 48.078125 40.742188 47.410156 C 40.738281 46.730469 40.6875 46.0625 40.582031 45.390625 C 40.472656 44.617188 40.316406 43.847656 40.125 43.089844 C 39.675781 41.316406 39.085938 39.585938 38.359375 37.910156 C 38.265625 37.695312 38.097656 37.535156 37.882812 37.449219 C 37.671875 37.367188 37.425781 37.367188 37.21875 37.460938 C 37.003906 37.550781 36.84375 37.726562 36.757812 37.941406 C 36.675781 38.152344 36.675781 38.390625 36.765625 38.597656 C 37.457031 40.1875 38.023438 41.835938 38.445312 43.511719 C 38.625 44.21875 38.761719 44.929688 38.871094 45.644531 C 38.957031 46.242188 39.003906 46.835938 39.011719 47.4375 C 39.023438 47.941406 38.964844 48.445312 38.832031 48.921875 C 38.785156 49.066406 38.726562 49.207031 38.652344 49.332031 C 38.625 49.382812 38.589844 49.425781 38.546875 49.464844 C 38.433594 49.511719 38.3125 49.527344 38.1875 49.527344 C 37.964844 49.527344 37.738281 49.488281 37.519531 49.414062 C 37.21875 49.304688 36.925781 49.171875 36.648438 49.003906 C 36.292969 48.789062 35.957031 48.558594 35.640625 48.292969 C 35.257812 47.988281 34.902344 47.65625 34.558594 47.3125 C 33.75 46.472656 33.011719 45.558594 32.355469 44.59375 C 31.589844 43.464844 30.914062 42.28125 30.328125 41.050781 C 30.03125 40.414062 29.757812 39.765625 29.519531 39.109375 C 29.828125 38.550781 30.160156 38.011719 30.507812 37.476562 C 30.78125 37.054688 31.066406 36.640625 31.367188 36.238281 C 31.503906 36.234375 31.644531 36.234375 31.785156 36.234375 L 31.832031 36.234375 C 32.414062 36.234375 33.003906 36.246094 33.589844 36.28125 C 35.121094 36.355469 36.648438 36.523438 38.160156 36.789062 C 39.410156 36.996094 40.632812 37.308594 41.832031 37.738281 C 42.292969 37.898438 42.75 38.101562 43.191406 38.328125 C 43.53125 38.507812 43.847656 38.714844 44.148438 38.964844 C 44.347656 39.117188 44.519531 39.316406 44.644531 39.535156 C 44.726562 39.664062 44.769531 39.808594 44.773438 39.957031 L 44.769531 40.003906 C 44.757812 40.152344 44.714844 40.296875 44.640625 40.429688 C 44.53125 40.640625 44.390625 40.824219 44.222656 40.988281 C 44 41.207031 43.757812 41.402344 43.484375 41.5625 C 43.160156 41.765625 42.8125 41.933594 42.457031 42.070312 C 42.242188 42.152344 42.070312 42.316406 41.976562 42.523438 C 41.882812 42.738281 41.871094 42.976562 41.957031 43.1875 C 42.039062 43.402344 42.199219 43.578125 42.410156 43.671875 C 42.625 43.765625 42.859375 43.773438 43.074219 43.691406 C 43.53125 43.519531 43.976562 43.296875 44.390625 43.042969 C 44.769531 42.8125 45.121094 42.535156 45.4375 42.230469 C 45.734375 41.941406 45.984375 41.609375 46.171875 41.246094 C 46.363281 40.894531 46.472656 40.507812 46.5 40.101562 C 46.5 40.089844 46.5 40.078125 46.5 40.066406 L 46.507812 39.988281 C 46.507812 39.972656 46.507812 39.964844 46.507812 39.953125 C 46.496094 39.488281 46.375 39.042969 46.136719 38.644531 C 45.902344 38.253906 45.601562 37.90625 45.242188 37.617188 C 44.855469 37.296875 44.433594 37.019531 43.988281 36.789062 C 43.476562 36.523438 42.953125 36.292969 42.414062 36.101562 C 41.125 35.644531 39.796875 35.304688 38.449219 35.078125 C 36.871094 34.800781 35.277344 34.628906 33.679688 34.546875 C 33.355469 34.53125 33.03125 34.519531 32.707031 34.507812 C 32.753906 34.449219 32.804688 34.390625 32.855469 34.332031 C 33.589844 33.464844 34.390625 32.660156 35.253906 31.917969 C 35.917969 31.328125 36.652344 30.820312 37.4375 30.390625 C 37.726562 30.234375 38.035156 30.105469 38.351562 30.011719 C 38.578125 29.933594 38.820312 29.886719 39.058594 29.875 L 39.167969 29.871094 C 39.171875 29.871094 39.183594 29.871094 39.191406 29.871094 C 39.371094 29.867188 39.546875 29.910156 39.703125 29.996094 C 39.84375 30.089844 39.957031 30.222656 40.03125 30.375 C 40.132812 30.578125 40.183594 30.800781 40.175781 31.03125 C 40.175781 31.273438 40.144531 31.515625 40.074219 31.75 C 39.984375 32.054688 39.855469 32.351562 39.699219 32.628906 C 39.589844 32.824219 39.558594 33.0625 39.617188 33.285156 C 39.679688 33.507812 39.824219 33.695312 40.027344 33.808594 C 40.226562 33.921875 40.460938 33.953125 40.6875 33.886719 C 40.90625 33.828125 41.097656 33.679688 41.207031 33.484375 C 41.433594 33.089844 41.605469 32.675781 41.734375 32.242188 C 41.847656 31.855469 41.90625 31.453125 41.914062 31.050781 C 41.917969 30.554688 41.808594 30.054688 41.589844 29.605469 C 41.375 29.164062 41.039062 28.789062 40.625 28.53125 C 40.171875 28.25 39.652344 28.117188 39.128906 28.136719 L 39.011719 28.140625 C 39 28.140625 38.992188 28.140625 38.980469 28.140625 C 38.589844 28.160156 38.195312 28.234375 37.816406 28.355469 C 37.402344 28.488281 37 28.664062 36.617188 28.863281 C 35.722656 29.351562 34.878906 29.933594 34.109375 30.609375 C 33.191406 31.40625 32.328125 32.273438 31.535156 33.207031 C 31.171875 33.632812 30.816406 34.070312 30.480469 34.523438 C 29.761719 34.546875 29.046875 34.597656 28.335938 34.664062 C 28.285156 34.378906 28.242188 34.097656 28.203125 33.8125 C 28.101562 33.113281 28.046875 32.414062 28.027344 31.707031 L 28.027344 31.523438 C 28.023438 31.222656 28.046875 30.921875 28.082031 30.621094 C 28.109375 30.398438 28.160156 30.164062 28.234375 29.945312 C 28.28125 29.808594 28.351562 29.667969 28.4375 29.546875 C 28.488281 29.484375 28.554688 29.425781 28.628906 29.382812 C 28.726562 29.339844 28.835938 29.308594 28.945312 29.300781 L 29.003906 29.300781 C 29.121094 29.304688 29.234375 29.328125 29.34375 29.375 C 29.542969 29.453125 29.722656 29.554688 29.894531 29.667969 C 30.351562 29.992188 30.773438 30.355469 31.15625 30.761719 C 31.3125 30.929688 31.53125 31.019531 31.757812 31.03125 C 31.988281 31.039062 32.210938 30.949219 32.382812 30.796875 C 32.546875 30.640625 32.640625 30.417969 32.652344 30.1875 C 32.660156 29.957031 32.570312 29.738281 32.414062 29.570312 C 31.953125 29.078125 31.4375 28.632812 30.882812 28.246094 C 30.613281 28.054688 30.316406 27.898438 30.011719 27.773438 C 29.699219 27.640625 29.363281 27.570312 29.015625 27.566406 C 29.003906 27.566406 28.988281 27.566406 28.972656 27.566406 L 28.867188 27.570312 C 28.859375 27.570312 28.855469 27.570312 28.84375 27.570312 C 28.496094 27.59375 28.15625 27.683594 27.84375 27.84375 C 27.53125 28.003906 27.257812 28.230469 27.050781 28.511719 C 26.847656 28.777344 26.691406 29.078125 26.589844 29.394531 C 26.480469 29.726562 26.402344 30.066406 26.355469 30.410156 C 26.3125 30.785156 26.289062 31.160156 26.292969 31.535156 L 26.292969 31.730469 C 26.292969 31.738281 26.292969 31.738281 26.292969 31.742188 C 26.3125 32.515625 26.375 33.285156 26.484375 34.054688 C 26.523438 34.332031 26.5625 34.605469 26.613281 34.882812 C 25.789062 35.019531 24.976562 35.207031 24.179688 35.449219 C 23.710938 35.59375 23.25 35.777344 22.808594 35.984375 C 22.410156 36.175781 22.039062 36.410156 21.691406 36.679688 C 21.371094 36.941406 21.09375 37.253906 20.878906 37.605469 C 20.664062 37.964844 20.535156 38.367188 20.515625 38.785156 C 20.515625 38.789062 20.515625 38.800781 20.515625 38.8125 L 20.507812 38.871094 C 20.507812 38.886719 20.507812 38.90625 20.515625 38.921875 C 20.523438 39.355469 20.652344 39.777344 20.878906 40.140625 C 21.097656 40.507812 21.363281 40.835938 21.675781 41.117188 C 22.339844 41.738281 23.113281 42.21875 23.964844 42.535156 C 24.179688 42.617188 24.414062 42.609375 24.621094 42.511719 C 24.835938 42.417969 25 42.246094 25.078125 42.03125 C 25.160156 41.816406 25.15625 41.574219 25.058594 41.367188 C 24.964844 41.160156 24.789062 40.996094 24.578125 40.910156 C 23.9375 40.675781 23.351562 40.3125 22.847656 39.839844 C 22.65625 39.667969 22.488281 39.464844 22.359375 39.242188 C 22.292969 39.136719 22.253906 39.015625 22.246094 38.886719 L 22.246094 38.875 C 22.253906 38.742188 22.292969 38.609375 22.363281 38.5 C 22.46875 38.320312 22.605469 38.171875 22.765625 38.042969 C 23.011719 37.847656 23.277344 37.6875 23.554688 37.550781 C 23.917969 37.378906 24.300781 37.230469 24.6875 37.109375 C 25.429688 36.882812 26.191406 36.707031 26.957031 36.578125 C 26.960938 36.585938 26.960938 36.59375 26.964844 36.605469 C 27.144531 37.394531 27.363281 38.175781 27.625 38.941406 Z M 27.625 38.941406 "/><path fill-rule="nonzero" fill="rgb(86.666667%, 86.666667%, 86.666667%)" fill-opacity="1" d="M 35.25 39.414062 C 35.25 40.03125 34.921875 40.605469 34.382812 40.914062 C 33.847656 41.226562 33.1875 41.222656 32.648438 40.914062 C 32.113281 40.605469 31.78125 40.03125 31.78125 39.410156 C 31.78125 38.453125 32.558594 37.675781 33.515625 37.675781 C 34.476562 37.679688 35.25 38.453125 35.25 39.414062 Z M 35.25 39.414062 "/></g></svg>
