<svg xmlns="http://www.w3.org/2000/svg" xmlns:xlink="http://www.w3.org/1999/xlink" width="64" height="64" viewBox="0 0 64 64"><defs><linearGradient id="linear-pattern-0" gradientUnits="userSpaceOnUse" x1="0" y1="0" x2="0" y2="1" gradientTransform="matrix(60, 0, 0, 56, 0, 4)"><stop offset="0" stop-color="#2895ff" stop-opacity="1"/><stop offset="1" stop-color="#003c76" stop-opacity="1"/></linearGradient></defs><path fill-rule="nonzero" fill="url(#linear-pattern-0)" fill-opacity="1" d="M 36.21875 2.050781 L 62.027344 27.605469 C 64.402344 29.957031 64.417969 33.785156 62.058594 36.15625 L 36.460938 61.917969 C 34.105469 64.289062 30.269531 64.304688 27.894531 61.949219 L 2.085938 36.394531 C -0.289062 34.042969 -0.304688 30.214844 2.050781 27.84375 L 27.652344 2.082031 C 30.007812 -0.289062 33.84375 -0.304688 36.21875 2.050781 Z M 36.21875 2.050781 "/><path fill-rule="nonzero" fill="#003c76" fill-opacity="1" d="M 49.773438 18.964844 C 49.773438 19.570312 49.261719 20.097656 48.675781 20.097656 L 15.726562 20.097656 C 15.140625 20.097656 14.628906 19.570312 14.628906 18.964844 L 14.628906 16.703125 C 14.628906 16.101562 15.140625 15.574219 15.726562 15.574219 L 48.675781 15.574219 C 49.261719 15.574219 49.773438 16.101562 49.773438 16.703125 Z M 49.773438 18.964844 "/><g transform="matrix(1.0075098,0,0,1.0032698,-2.3374392,-0.00696152)"><path fill-rule="nonzero" fill="rgb(86.666667%, 86.666667%, 86.666667%)" fill-opacity="1" d="M 19.421875 28.277344 L 19.421875 50.566406 L 45.421875 50.566406 L 45.421875 28.277344 Z M 22.59375 30.136719 L 42.25 30.136719 L 32.421875 39.964844 Z M 21.277344 31.449219 L 28.582031 38.753906 L 21.277344 47.277344 Z M 43.566406 31.449219 L 43.566406 47.28125 L 36.261719 38.753906 Z M 29.902344 40.074219 L 32.421875 42.59375 L 34.941406 40.074219 L 42.34375 48.707031 L 22.496094 48.707031 Z M 29.902344 40.074219 "/></g></svg>
