<svg xmlns="http://www.w3.org/2000/svg" xmlns:xlink="http://www.w3.org/1999/xlink" width="64" height="64" viewBox="0 0 64 64"><defs><linearGradient id="linear-pattern-0" gradientUnits="userSpaceOnUse" x1="0" y1="0" x2="0" y2="1" gradientTransform="matrix(60, 0, 0, 56, 0, 4)"><stop offset="0" stop-color="#2895ff" stop-opacity="1"/><stop offset="1" stop-color="#003c76" stop-opacity="1"/></linearGradient></defs><path fill-rule="nonzero" fill="url(#linear-pattern-0)" fill-opacity="1" d="M 36.21875 2.050781 L 62.027344 27.605469 C 64.402344 29.957031 64.417969 33.785156 62.058594 36.15625 L 36.460938 61.917969 C 34.105469 64.289062 30.269531 64.304688 27.894531 61.949219 L 2.085938 36.394531 C -0.289062 34.042969 -0.304688 30.214844 2.050781 27.84375 L 27.652344 2.082031 C 30.007812 -0.289062 33.84375 -0.304688 36.21875 2.050781 Z M 36.21875 2.050781 "/><path fill-rule="nonzero" fill="#003c76" fill-opacity="1" d="M 49.773438 18.964844 C 49.773438 19.570312 49.261719 20.097656 48.675781 20.097656 L 15.726562 20.097656 C 15.140625 20.097656 14.628906 19.570312 14.628906 18.964844 L 14.628906 16.703125 C 14.628906 16.101562 15.140625 15.574219 15.726562 15.574219 L 48.675781 15.574219 C 49.261719 15.574219 49.773438 16.101562 49.773438 16.703125 Z M 49.773438 18.964844 "/><g transform="matrix(1.0075098,0,0,1.0032698,-2.3374392,-0.00696152)"><path fill-rule="nonzero" fill="rgb(86.666667%, 86.666667%, 86.666667%)" fill-opacity="0.7" d="M 42.730469 37.675781 L 42.730469 37.683594 L 41.445312 38.785156 L 40.222656 38.632812 L 39.089844 37.234375 L 37.25 37.765625 L 37.171875 39.515625 L 36.261719 40.285156 L 34.53125 40.054688 L 34.523438 40.050781 L 33.671875 41.765625 L 33.679688 41.769531 L 34.847656 43.136719 L 34.769531 44.367188 L 33.457031 45.4375 L 34.09375 47.332031 L 35.828125 47.515625 L 36.644531 48.488281 L 36.519531 50.230469 L 36.515625 50.238281 L 38.261719 51.203125 L 38.265625 51.195312 L 39.550781 50.09375 L 40.769531 50.242188 L 41.90625 51.640625 L 43.742188 51.109375 L 43.824219 49.359375 L 44.734375 48.59375 L 46.464844 48.824219 L 46.472656 48.828125 L 47.320312 47.113281 L 47.316406 47.109375 L 46.148438 45.738281 L 46.222656 44.511719 L 47.539062 43.441406 L 46.902344 41.546875 L 45.167969 41.359375 L 44.351562 40.390625 L 44.476562 38.648438 L 44.480469 38.640625 Z M 41.488281 42.441406 C 42.609375 43.0625 43.078125 44.457031 42.535156 45.5625 C 41.988281 46.664062 40.632812 47.058594 39.507812 46.4375 C 38.382812 45.816406 37.914062 44.417969 38.460938 43.316406 C 38.519531 43.203125 38.589844 43.101562 38.660156 43.003906 C 38.691406 42.964844 38.722656 42.921875 38.753906 42.886719 C 38.8125 42.816406 38.875 42.75 38.945312 42.691406 C 38.980469 42.65625 39.019531 42.621094 39.058594 42.59375 C 39.128906 42.535156 39.207031 42.488281 39.285156 42.441406 C 39.324219 42.417969 39.367188 42.394531 39.410156 42.371094 C 39.492188 42.332031 39.574219 42.300781 39.65625 42.273438 C 39.707031 42.257812 39.75 42.238281 39.800781 42.222656 C 39.886719 42.199219 39.976562 42.1875 40.066406 42.175781 C 40.113281 42.167969 40.164062 42.160156 40.210938 42.15625 C 40.304688 42.148438 40.398438 42.152344 40.488281 42.160156 C 40.539062 42.160156 40.589844 42.160156 40.640625 42.167969 C 40.746094 42.179688 40.851562 42.207031 40.957031 42.234375 C 40.992188 42.246094 41.03125 42.25 41.066406 42.261719 C 41.207031 42.304688 41.347656 42.367188 41.488281 42.441406 Z M 41.488281 42.441406 "/><path fill-rule="nonzero" fill="rgb(86.666667%, 86.666667%, 86.666667%)" fill-opacity="0.7" d="M 25.890625 36.425781 L 25.890625 36.433594 L 25.234375 38.039062 L 24.085938 38.503906 L 22.464844 37.816406 L 21.070312 39.1875 L 21.769531 40.777344 L 21.296875 41.902344 L 19.660156 42.546875 L 19.652344 42.546875 L 19.652344 44.480469 L 19.660156 44.480469 L 21.296875 45.125 L 21.769531 46.25 L 21.070312 47.839844 L 22.464844 49.210938 L 24.085938 48.523438 L 25.234375 48.988281 L 25.890625 50.59375 L 25.890625 50.601562 L 27.859375 50.601562 L 27.859375 50.59375 L 28.515625 48.988281 L 29.664062 48.523438 L 31.285156 49.210938 L 32.679688 47.839844 L 31.980469 46.25 L 32.453125 45.125 L 34.089844 44.480469 L 34.097656 44.480469 L 34.097656 42.546875 L 34.089844 42.546875 L 32.453125 41.902344 L 31.980469 40.777344 L 32.679688 39.1875 L 31.285156 37.816406 L 29.664062 38.503906 L 28.515625 38.039062 L 27.859375 36.433594 L 27.859375 36.425781 Z M 26.875 41.257812 C 28.144531 41.257812 29.171875 42.269531 29.171875 43.515625 C 29.171875 44.757812 28.144531 45.769531 26.875 45.769531 C 25.605469 45.769531 24.578125 44.757812 24.578125 43.515625 C 24.578125 43.386719 24.597656 43.261719 24.617188 43.140625 C 24.625 43.089844 24.636719 43.039062 24.648438 42.992188 C 24.671875 42.898438 24.699219 42.8125 24.730469 42.722656 C 24.75 42.675781 24.769531 42.628906 24.789062 42.582031 C 24.828125 42.496094 24.875 42.417969 24.921875 42.339844 C 24.949219 42.296875 24.976562 42.253906 25.003906 42.210938 C 25.058594 42.140625 25.117188 42.070312 25.179688 42.003906 C 25.214844 41.96875 25.246094 41.925781 25.285156 41.890625 C 25.351562 41.828125 25.425781 41.773438 25.5 41.71875 C 25.539062 41.6875 25.578125 41.65625 25.621094 41.628906 C 25.699219 41.578125 25.78125 41.539062 25.867188 41.496094 C 25.914062 41.476562 25.957031 41.449219 26.003906 41.429688 C 26.105469 41.390625 26.210938 41.363281 26.316406 41.335938 C 26.351562 41.328125 26.386719 41.3125 26.421875 41.304688 C 26.570312 41.277344 26.71875 41.257812 26.875 41.257812 Z M 26.875 41.257812 "/><path fill-rule="nonzero" fill="rgb(86.666667%, 86.666667%, 86.666667%)" fill-opacity="0.7" d="M 33.132812 24.636719 L 33.132812 24.644531 L 32.558594 26.28125 L 31.433594 26.804688 L 29.78125 26.210938 L 28.453125 27.652344 L 29.226562 29.203125 L 28.808594 30.351562 L 27.207031 31.078125 L 27.199219 31.082031 L 27.289062 33.011719 L 27.296875 33.011719 L 28.960938 33.566406 L 29.488281 34.667969 L 28.867188 36.292969 L 30.324219 37.585938 L 31.910156 36.816406 L 33.078125 37.21875 L 33.808594 38.785156 L 33.808594 38.792969 L 35.78125 38.6875 L 35.777344 38.679688 L 36.355469 37.042969 L 37.480469 36.519531 L 39.128906 37.117188 L 40.457031 35.675781 L 39.6875 34.125 L 40.105469 32.972656 L 41.707031 32.246094 L 41.714844 32.246094 L 41.621094 30.3125 L 41.613281 30.3125 L 39.949219 29.757812 L 39.425781 28.660156 L 40.046875 27.035156 L 38.585938 25.742188 L 37.003906 26.507812 L 35.832031 26.109375 L 35.105469 24.539062 L 35.101562 24.53125 Z M 34.347656 29.410156 C 35.617188 29.34375 36.691406 30.296875 36.75 31.539062 C 36.808594 32.785156 35.832031 33.847656 34.5625 33.914062 C 33.296875 33.980469 32.222656 33.027344 32.164062 31.785156 C 32.15625 31.65625 32.167969 31.53125 32.183594 31.410156 C 32.191406 31.359375 32.199219 31.308594 32.207031 31.257812 C 32.226562 31.167969 32.25 31.078125 32.277344 30.988281 C 32.292969 30.9375 32.308594 30.890625 32.328125 30.84375 C 32.363281 30.757812 32.40625 30.671875 32.453125 30.59375 C 32.476562 30.550781 32.5 30.503906 32.527344 30.464844 C 32.578125 30.386719 32.632812 30.316406 32.691406 30.246094 C 32.726562 30.207031 32.753906 30.164062 32.789062 30.128906 C 32.855469 30.0625 32.925781 30.003906 32.996094 29.941406 C 33.035156 29.910156 33.074219 29.875 33.113281 29.847656 C 33.1875 29.792969 33.273438 29.746094 33.355469 29.703125 C 33.398438 29.675781 33.441406 29.648438 33.488281 29.628906 C 33.585938 29.582031 33.6875 29.550781 33.792969 29.519531 C 33.828125 29.507812 33.863281 29.492188 33.898438 29.480469 C 34.042969 29.445312 34.195312 29.421875 34.347656 29.410156 Z M 34.347656 29.410156 "/></g></svg>
