<svg xmlns="http://www.w3.org/2000/svg" xmlns:xlink="http://www.w3.org/1999/xlink" width="64" height="64" viewBox="0 0 64 64"><defs><linearGradient id="linear-pattern-0" gradientUnits="userSpaceOnUse" x1="0" y1="0" x2="0" y2="1" gradientTransform="matrix(60, 0, 0, 56, 0, 4)"><stop offset="0" stop-color="#2895ff" stop-opacity="1"/><stop offset="1" stop-color="#003c76" stop-opacity="1"/></linearGradient></defs><path fill-rule="nonzero" fill="url(#linear-pattern-0)" fill-opacity="1" d="M 36.21875 2.050781 L 62.027344 27.605469 C 64.402344 29.957031 64.417969 33.785156 62.058594 36.15625 L 36.460938 61.917969 C 34.105469 64.289062 30.269531 64.304688 27.894531 61.949219 L 2.085938 36.394531 C -0.289062 34.042969 -0.304688 30.214844 2.050781 27.84375 L 27.652344 2.082031 C 30.007812 -0.289062 33.84375 -0.304688 36.21875 2.050781 Z M 36.21875 2.050781 "/><path fill-rule="nonzero" fill="#003c76" fill-opacity="1" d="M 49.773438 18.964844 C 49.773438 19.570312 49.261719 20.097656 48.675781 20.097656 L 15.726562 20.097656 C 15.140625 20.097656 14.628906 19.570312 14.628906 18.964844 L 14.628906 16.703125 C 14.628906 16.101562 15.140625 15.574219 15.726562 15.574219 L 48.675781 15.574219 C 49.261719 15.574219 49.773438 16.101562 49.773438 16.703125 Z M 49.773438 18.964844 "/><g transform="matrix(1.0075098,0,0,1.0032698,-2.3374392,-0.00696152)"><path fill-rule="nonzero" fill="rgb(86.666667%, 86.666667%, 86.666667%)" fill-opacity="1" d="M 26.535156 29.65625 C 26.105469 29.667969 25.683594 29.785156 25.308594 29.992188 C 23.726562 30.824219 22.273438 33.558594 21.484375 37.101562 C 20.808594 40.109375 20.5625 44.222656 20.964844 45.878906 C 21.3125 47.300781 21.917969 47.929688 22.992188 47.929688 C 24.585938 47.902344 26.589844 46.125 27.859375 43.730469 C 28.777344 42.40625 30.90625 41.804688 32.957031 41.871094 C 35.007812 41.796875 37.136719 42.40625 38.054688 43.730469 C 39.324219 46.125 41.328125 47.902344 42.917969 47.929688 C 43.996094 47.929688 44.601562 47.300781 44.949219 45.878906 C 45.351562 44.222656 45.105469 40.109375 44.433594 37.101562 C 43.640625 33.558594 42.1875 30.824219 40.609375 29.992188 C 39.738281 29.527344 39.023438 29.539062 38.386719 29.992188 C 37.585938 30.566406 35.910156 31.183594 32.957031 31.183594 C 30.003906 31.1875 28.328125 30.566406 27.527344 29.992188 C 27.242188 29.773438 26.894531 29.65625 26.535156 29.65625 Z M 26.914062 34.238281 L 28.425781 34.238281 L 28.425781 35.765625 L 29.933594 35.765625 L 29.933594 37.289062 L 28.425781 37.289062 L 28.425781 38.816406 L 26.914062 38.816406 L 26.914062 37.289062 L 25.402344 37.289062 L 25.402344 35.765625 L 26.914062 35.765625 Z M 38.246094 34.238281 C 38.664062 34.238281 39 34.582031 39 35 C 39 35.421875 38.664062 35.765625 38.246094 35.765625 C 38.042969 35.761719 37.851562 35.683594 37.710938 35.539062 C 37.570312 35.394531 37.488281 35.203125 37.492188 35 C 37.492188 34.582031 37.828125 34.238281 38.246094 34.238281 Z M 36.734375 35.765625 C 37.152344 35.765625 37.492188 36.105469 37.492188 36.527344 C 37.492188 36.949219 37.152344 37.289062 36.734375 37.289062 C 36.535156 37.289062 36.339844 37.210938 36.199219 37.066406 C 36.058594 36.921875 35.980469 36.730469 35.980469 36.527344 C 35.980469 36.105469 36.316406 35.765625 36.734375 35.765625 Z M 39.757812 35.765625 C 40.175781 35.765625 40.515625 36.105469 40.515625 36.527344 C 40.515625 36.949219 40.175781 37.289062 39.757812 37.289062 C 39.554688 37.289062 39.363281 37.210938 39.222656 37.066406 C 39.078125 36.921875 39 36.730469 39 36.527344 C 39 36.105469 39.339844 35.765625 39.757812 35.765625 Z M 38.246094 37.289062 C 38.664062 37.289062 39 37.632812 39 38.054688 C 39 38.476562 38.664062 38.816406 38.246094 38.816406 C 38.042969 38.816406 37.851562 38.734375 37.710938 38.59375 C 37.570312 38.449219 37.488281 38.257812 37.492188 38.054688 C 37.492188 37.632812 37.828125 37.289062 38.246094 37.289062 Z M 38.246094 37.289062 "/></g></svg>
