<svg xmlns="http://www.w3.org/2000/svg" xmlns:xlink="http://www.w3.org/1999/xlink" width="64" height="64" viewBox="0 0 64 64"><defs><linearGradient id="linear-pattern-0" gradientUnits="userSpaceOnUse" x1="0" y1="0" x2="0" y2="1" gradientTransform="matrix(60, 0, 0, 56, 0, 4)"><stop offset="0" stop-color="#2895ff" stop-opacity="1"/><stop offset="1" stop-color="#003c76" stop-opacity="1"/></linearGradient></defs><path fill-rule="nonzero" fill="url(#linear-pattern-0)" fill-opacity="1" d="M 36.21875 2.050781 L 62.027344 27.605469 C 64.402344 29.957031 64.417969 33.785156 62.058594 36.15625 L 36.460938 61.917969 C 34.105469 64.289062 30.269531 64.304688 27.894531 61.949219 L 2.085938 36.394531 C -0.289062 34.042969 -0.304688 30.214844 2.050781 27.84375 L 27.652344 2.082031 C 30.007812 -0.289062 33.84375 -0.304688 36.21875 2.050781 Z M 36.21875 2.050781 "/><path fill-rule="nonzero" fill="#003c76" fill-opacity="1" d="M 49.773438 18.964844 C 49.773438 19.570312 49.261719 20.097656 48.675781 20.097656 L 15.726562 20.097656 C 15.140625 20.097656 14.628906 19.570312 14.628906 18.964844 L 14.628906 16.703125 C 14.628906 16.101562 15.140625 15.574219 15.726562 15.574219 L 48.675781 15.574219 C 49.261719 15.574219 49.773438 16.101562 49.773438 16.703125 Z M 49.773438 18.964844 "/><g transform="matrix(1.0075098,0,0,1.0032698,-2.3374392,-0.00696152)"><path fill-rule="nonzero" fill="rgb(86.666667%, 86.666667%, 86.666667%)" fill-opacity="1" d="M 26.539062 25.675781 C 24.492188 25.699219 22.996094 25.625 21.773438 26.300781 C 21.140625 26.664062 20.65625 27.238281 20.410156 27.921875 C 20.144531 28.636719 20.046875 29.484375 20.046875 30.550781 L 20.046875 43.550781 C 20.046875 44.621094 20.144531 45.464844 20.410156 46.179688 C 20.679688 46.890625 21.160156 47.460938 21.773438 47.800781 C 22.996094 48.476562 24.492188 48.402344 26.539062 48.425781 L 39.554688 48.425781 C 41.601562 48.402344 43.097656 48.476562 44.320312 47.800781 C 44.953125 47.4375 45.4375 46.863281 45.683594 46.179688 C 45.949219 45.464844 46.046875 44.617188 46.046875 43.550781 L 46.046875 30.550781 C 46.046875 29.480469 45.949219 28.636719 45.683594 27.921875 C 45.4375 27.238281 44.953125 26.664062 44.320312 26.300781 C 43.097656 25.625 41.601562 25.699219 39.554688 25.675781 Z M 26.546875 27.300781 L 39.546875 27.300781 C 41.59375 27.324219 42.9375 27.398438 43.53125 27.726562 C 43.832031 27.890625 44.003906 28.070312 44.160156 28.496094 C 44.320312 28.917969 44.421875 29.589844 44.421875 30.550781 L 44.421875 43.550781 C 44.421875 44.511719 44.320312 45.183594 44.160156 45.605469 C 44.003906 46.03125 43.832031 46.210938 43.53125 46.375 C 42.9375 46.703125 41.59375 46.777344 39.546875 46.800781 L 26.546875 46.800781 C 24.5 46.777344 23.152344 46.703125 22.558594 46.375 C 22.261719 46.210938 22.089844 46.03125 21.933594 45.605469 C 21.773438 45.183594 21.671875 44.511719 21.671875 43.550781 L 21.671875 30.550781 C 21.671875 29.589844 21.773438 28.917969 21.933594 28.496094 C 22.089844 28.070312 22.261719 27.890625 22.558594 27.726562 C 23.152344 27.398438 24.5 27.324219 26.546875 27.300781 Z M 26.546875 27.300781 "/><path fill-rule="nonzero" fill="rgb(86.666667%, 86.666667%, 86.666667%)" fill-opacity="1" d="M 31.421875 43.550781 C 31.421875 44.445312 30.695312 45.167969 29.796875 45.167969 C 28.898438 45.167969 28.171875 44.445312 28.171875 43.550781 C 28.171875 42.65625 28.898438 41.933594 29.796875 41.933594 C 30.695312 41.933594 31.421875 42.65625 31.421875 43.550781 Z M 31.421875 43.550781 "/><path fill-rule="nonzero" fill="rgb(86.666667%, 86.666667%, 86.666667%)" fill-opacity="1" d="M 29.796875 35.425781 C 29.796875 36.320312 29.070312 37.042969 28.171875 37.042969 C 27.273438 37.042969 26.546875 36.320312 26.546875 35.425781 C 26.546875 34.53125 27.273438 33.808594 28.171875 33.808594 C 29.070312 33.808594 29.796875 34.53125 29.796875 35.425781 Z M 29.796875 35.425781 "/><path fill-rule="nonzero" fill="rgb(86.666667%, 86.666667%, 86.666667%)" fill-opacity="1" d="M 40.359375 32.988281 C 40.359375 33.882812 39.632812 34.605469 38.734375 34.605469 C 37.835938 34.605469 37.109375 33.882812 37.109375 32.988281 C 37.109375 32.09375 37.835938 31.371094 38.734375 31.371094 C 39.632812 31.371094 40.359375 32.09375 40.359375 32.988281 Z M 40.359375 32.988281 "/><path fill-rule="nonzero" fill="rgb(86.666667%, 86.666667%, 86.666667%)" fill-opacity="1" d="M 37.921875 39.480469 C 37.921875 40.375 37.195312 41.101562 36.296875 41.101562 C 35.398438 41.101562 34.671875 40.375 34.671875 39.480469 C 34.671875 38.589844 35.398438 37.863281 36.296875 37.863281 C 37.195312 37.863281 37.921875 38.589844 37.921875 39.480469 Z M 37.921875 39.480469 "/></g></svg>
