<svg width="64" height="64" viewBox="0 0 64 64" version="1.1"><defs><linearGradient id="linear-pattern-0" gradientUnits="userSpaceOnUse" x1="0" y1="0" x2="0" y2="1" gradientTransform="matrix(60, 0, 0, 56, 0, 4)"><stop offset="0" stop-color="#7795ab" stop-opacity="1"/><stop offset="1" stop-color="#3b4f5f" stop-opacity="1"/></linearGradient></defs><path fill="url(#linear-pattern-0)" fill-opacity="1" d="M 36.21875 2.050781 L 62.027344 27.605469 C 64.402344 29.957031 64.417969 33.785156 62.058594 36.15625 L 36.460938 61.917969 C 34.105469 64.289062 30.269531 64.304688 27.894531 61.949219 L 2.085938 36.394531 C -0.289062 34.042969 -0.304688 30.214844 2.050781 27.84375 L 27.652344 2.082031 C 30.007812 -0.289062 33.84375 -0.304688 36.21875 2.050781 Z M 36.21875 2.050781 " /><g transform="matrix(1.0075098,0,0,1.0032698,16.221436,16.077397)"><path fill-rule="nonzero" fill="rgb(100%, 100%, 100%)" fill-opacity="1" d="M 16 2.667969 L 9 10 L 3.742188 10 C 3.742188 10 2 11.789062 2 16.003906 C 2 20.21875 3.742188 22 3.742188 22 L 9 22 L 16 29.332031 Z M 14 7.65625 L 14 24.34375 L 9.855469 20 L 4.828125 20 C 4.765625 19.882812 4.789062 19.96875 4.695312 19.765625 C 4.371094 19.039062 4 17.835938 4 16.003906 C 4 14.171875 4.367188 12.960938 4.695312 12.234375 C 4.785156 12.03125 4.765625 12.117188 4.828125 12 L 9.855469 12 Z M 14 7.65625 "/><path fill-rule="nonzero" fill="rgb(100%, 100%, 100%)" fill-opacity="1" d="M 21.046875 9.851562 L 19.632812 11.265625 L 20.34375 11.972656 C 21.46875 13.097656 22.101562 14.625 22.101562 16.214844 C 22.101562 17.804688 21.46875 19.332031 20.34375 20.457031 L 19.632812 21.164062 L 21.046875 22.578125 L 21.757812 21.871094 C 23.257812 20.371094 24.101562 18.335938 24.101562 16.214844 C 24.101562 14.09375 23.257812 12.058594 21.757812 10.558594 Z M 21.046875 9.851562 "/><path fill-rule="nonzero" fill="rgb(100%, 100%, 100%)" fill-opacity="1" d="M 25.289062 5.609375 L 23.875 7.023438 L 24.585938 7.730469 C 26.835938 9.984375 28.101562 13.03125 28.101562 16.214844 C 28.101562 19.398438 26.835938 22.449219 24.585938 24.699219 L 23.875 25.40625 L 25.289062 26.820312 L 26 26.113281 C 28.625 23.488281 30.101562 19.929688 30.101562 16.214844 C 30.101562 12.5 28.625 8.941406 26 6.316406 Z M 25.289062 5.609375 "/></g></svg>
