<svg width="64" height="64" viewBox="0 0 64 64" version="1.1"><defs><linearGradient id="linear-pattern-0" gradientUnits="userSpaceOnUse" x1="0" y1="0" x2="0" y2="1" gradientTransform="matrix(60, 0, 0, 56, 0, 4)"><stop offset="0" stop-color="#00983a" stop-opacity="1"/><stop offset="1" stop-color="#004a1c" stop-opacity="1"/></linearGradient></defs><path fill="url(#linear-pattern-0)" fill-opacity="1" d="M 36.21875 2.050781 L 62.027344 27.605469 C 64.402344 29.957031 64.417969 33.785156 62.058594 36.15625 L 36.460938 61.917969 C 34.105469 64.289062 30.269531 64.304688 27.894531 61.949219 L 2.085938 36.394531 C -0.289062 34.042969 -0.304688 30.214844 2.050781 27.84375 L 27.652344 2.082031 C 30.007812 -0.289062 33.84375 -0.304688 36.21875 2.050781 Z M 36.21875 2.050781 " /><g transform="matrix(1.0075098,0,0,1.0032698,16.221436,16.077397)"><path fill-rule="nonzero" fill="rgb(100%, 100%, 100%)" fill-opacity="1" d="M 16 0 C 13.125 0 10.808594 0.535156 8.925781 1.398438 C 8.539062 1.570312 8.164062 1.75 7.804688 1.957031 C 7.707031 2.015625 7.617188 2.078125 7.523438 2.136719 C 7.285156 2.28125 7.046875 2.425781 6.820312 2.585938 C 6.632812 2.71875 6.46875 2.867188 6.292969 3.007812 C 5.070312 4.003906 4.171875 5.210938 3.503906 6.527344 C 3.46875 6.59375 3.425781 6.65625 3.394531 6.722656 C 3.359375 6.789062 3.339844 6.859375 3.308594 6.929688 C 2.898438 7.816406 2.5625 8.734375 2.363281 9.6875 C 2.328125 9.867188 2.320312 10.050781 2.289062 10.230469 C 2.199219 10.71875 2.128906 11.203125 2.085938 11.683594 C 2.082031 11.726562 2.078125 11.769531 2.074219 11.8125 C 2.023438 12.386719 2.039062 12.910156 2.046875 13.449219 C 2.050781 13.648438 2.046875 13.847656 2.054688 14.046875 C 2.078125 14.625 2.125 15.136719 2.195312 15.636719 C 2.238281 15.984375 2.292969 16.328125 2.351562 16.675781 C 2.359375 16.722656 2.367188 16.789062 2.375 16.832031 L 2.375 16.835938 L 2.417969 17.03125 C 2.480469 17.371094 2.523438 17.71875 2.601562 18.050781 L 2.820312 19.027344 L 2.835938 19.023438 L 4.945312 29.039062 L 7.292969 28.625 C 8.613281 28.390625 9.554688 28.1875 9.992188 27.835938 C 10.210938 27.660156 10.335938 27.46875 10.402344 27.132812 C 10.46875 26.796875 10.453125 26.304688 10.308594 25.628906 L 8.726562 18.148438 C 8.585938 17.476562 8.398438 17.011719 8.199219 16.714844 C 8 16.417969 7.796875 16.277344 7.511719 16.1875 C 6.945312 16.007812 5.992188 16.140625 4.664062 16.375 L 4.339844 16.433594 C 3.976562 14.296875 3.90625 12.089844 4.320312 10.09375 C 4.8125 7.726562 5.925781 5.679688 7.980469 4.214844 C 10 2.769531 13.007812 2.039062 16 2.046875 C 18.988281 2.039062 21.996094 2.769531 24.019531 4.214844 C 26.070312 5.679688 27.1875 7.726562 27.679688 10.09375 C 28.09375 12.089844 28.023438 14.296875 27.660156 16.433594 L 27.335938 16.375 C 26.007812 16.140625 25.054688 16.007812 24.488281 16.1875 C 24.203125 16.277344 24 16.417969 23.800781 16.714844 C 23.597656 17.011719 23.414062 17.476562 23.273438 18.148438 L 21.691406 25.628906 C 21.546875 26.304688 21.53125 26.796875 21.59375 27.132812 C 21.664062 27.46875 21.789062 27.660156 22.007812 27.835938 C 22.445312 28.1875 23.382812 28.390625 24.703125 28.625 L 27.054688 29.039062 L 29.164062 19.023438 L 29.179688 19.027344 L 29.398438 18.050781 C 29.472656 17.71875 29.519531 17.371094 29.582031 17.03125 L 29.625 16.835938 L 29.625 16.832031 C 29.632812 16.789062 29.640625 16.722656 29.648438 16.675781 C 29.703125 16.328125 29.761719 15.984375 29.804688 15.636719 C 29.875 15.136719 29.917969 14.625 29.945312 14.046875 C 29.953125 13.847656 29.949219 13.648438 29.953125 13.449219 C 29.960938 12.910156 29.972656 12.386719 29.925781 11.8125 C 29.921875 11.769531 29.917969 11.726562 29.914062 11.683594 C 29.867188 11.203125 29.800781 10.71875 29.710938 10.230469 C 29.679688 10.050781 29.671875 9.867188 29.636719 9.6875 C 29.4375 8.734375 29.101562 7.816406 28.691406 6.929688 C 28.660156 6.859375 28.636719 6.789062 28.605469 6.722656 C 28.570312 6.65625 28.53125 6.59375 28.496094 6.527344 C 27.828125 5.210938 26.929688 4.003906 25.707031 3.007812 C 25.53125 2.867188 25.367188 2.71875 25.179688 2.585938 C 24.953125 2.425781 24.714844 2.28125 24.476562 2.136719 C 24.382812 2.078125 24.292969 2.015625 24.195312 1.957031 C 23.835938 1.75 23.460938 1.570312 23.074219 1.398438 C 21.191406 0.535156 18.875 0 16 0 Z M 16 0 "/></g></svg>
