<svg width="64" height="64" viewBox="0 0 64 64" version="1.1"><defs><linearGradient id="linear-pattern-0" gradientUnits="userSpaceOnUse" x1="0" y1="0" x2="0" y2="1" gradientTransform="matrix(60, 0, 0, 56, 0, 4)"><stop offset="0" stop-color="#3067ff" stop-opacity="1"/><stop offset="1" stop-color="#002ca6" stop-opacity="1"/></linearGradient></defs><path fill="url(#linear-pattern-0)" fill-opacity="1" d="M 36.21875 2.050781 L 62.027344 27.605469 C 64.402344 29.957031 64.417969 33.785156 62.058594 36.15625 L 36.460938 61.917969 C 34.105469 64.289062 30.269531 64.304688 27.894531 61.949219 L 2.085938 36.394531 C -0.289062 34.042969 -0.304688 30.214844 2.050781 27.84375 L 27.652344 2.082031 C 30.007812 -0.289062 33.84375 -0.304688 36.21875 2.050781 Z M 36.21875 2.050781 " /><g transform="matrix(1.0075098,0,0,1.0032698,16.221436,16.077397)"><path fill-rule="nonzero" fill="rgb(100%, 100%, 100%)" fill-opacity="1" d="M 13.988281 4 C 11.472656 4.03125 9.632812 3.9375 8.125 4.769531 C 7.375 5.1875 6.78125 5.890625 6.449219 6.765625 C 6.117188 7.640625 6 8.6875 6 10 L 6 26 C 6 27.3125 6.117188 28.359375 6.449219 29.234375 C 6.78125 30.109375 7.375 30.8125 8.125 31.230469 C 9.632812 32.0625 11.472656 31.96875 13.988281 32 L 24.011719 32 C 26.53125 31.96875 28.367188 32.0625 29.875 31.230469 C 30.628906 30.8125 31.222656 30.109375 31.550781 29.234375 C 31.882812 28.359375 32 27.3125 32 26 L 32 10 C 32 8.6875 31.882812 7.640625 31.550781 6.765625 C 31.21875 5.890625 30.625 5.1875 29.875 4.769531 C 28.367188 3.9375 26.527344 4.03125 24.011719 4 Z M 14 6 L 24 6 C 26.515625 6.03125 28.171875 6.117188 28.90625 6.523438 C 29.273438 6.726562 29.484375 6.949219 29.679688 7.46875 C 29.875 7.988281 30 8.8125 30 10 L 30 26 C 30 27.1875 29.875 28.011719 29.679688 28.53125 C 29.484375 29.050781 29.273438 29.273438 28.90625 29.476562 C 28.171875 29.882812 26.515625 29.96875 24 30 L 14 30 C 11.484375 29.96875 9.820312 29.882812 9.089844 29.476562 C 8.722656 29.273438 8.515625 29.050781 8.320312 28.53125 C 8.125 28.011719 8 27.1875 8 26 L 8 10 C 8 8.8125 8.125 7.988281 8.320312 7.46875 C 8.515625 6.949219 8.722656 6.726562 9.089844 6.523438 C 9.820312 6.117188 11.484375 6.03125 14 6 Z M 14 6 "/><path fill-rule="nonzero" fill="rgb(100%, 100%, 100%)" fill-opacity="1" d="M 19.589844 10.023438 C 17.476562 9.882812 15.3125 10.484375 13.523438 11.859375 C 9.945312 14.605469 8.949219 19.59375 11.203125 23.5 C 13.457031 27.40625 18.28125 29.042969 22.445312 27.316406 C 26.609375 25.59375 28.867188 21.023438 27.699219 16.667969 L 27.4375 15.703125 L 25.503906 16.222656 L 25.765625 17.1875 C 26.679688 20.585938 24.933594 24.117188 21.679688 25.464844 C 18.425781 26.8125 14.695312 25.546875 12.9375 22.5 C 11.179688 19.453125 11.945312 15.589844 14.738281 13.445312 C 17.257812 11.507812 20.703125 11.550781 23.179688 13.40625 L 21.890625 14.695312 L 23.304688 16.109375 L 24.65625 14.757812 L 24.660156 14.757812 L 25.367188 14.046875 L 26.074219 13.34375 L 25.367188 12.636719 C 23.773438 11.042969 21.703125 10.164062 19.589844 10.023438 Z M 19.589844 10.023438 "/><path fill-rule="nonzero" fill="rgb(100%, 100%, 100%)" fill-opacity="1" d="M 19 16 C 17.34375 16 16 17.34375 16 19 C 16 20.65625 17.34375 22 19 22 C 20.65625 22 22 20.65625 22 19 C 22 17.34375 20.65625 16 19 16 Z M 19 18 C 19.554688 18 20 18.445312 20 19 C 20 19.554688 19.554688 20 19 20 C 18.445312 20 18 19.554688 18 19 C 18 18.445312 18.445312 18 19 18 Z M 19 18 "/><path fill-rule="nonzero" fill="rgb(100%, 100%, 100%)" fill-opacity="1" d="M 9.988281 0 C 7.472656 0.03125 5.632812 -0.0625 4.125 0.769531 C 3.375 1.1875 2.78125 1.890625 2.449219 2.765625 C 2.117188 3.640625 2 4.6875 2 6 L 2 24 L 4 24 L 4 6 C 4 4.8125 4.125 3.988281 4.320312 3.46875 C 4.515625 2.949219 4.722656 2.726562 5.089844 2.523438 C 5.820312 2.117188 7.484375 2.03125 10 2 L 24 2 L 24 0 Z M 9.988281 0 "/></g></svg>
