<svg width="64" height="64" viewBox="0 0 64 64" version="1.1"><defs><linearGradient id="linear-pattern-0" gradientUnits="userSpaceOnUse" x1="0" y1="0" x2="0" y2="1" gradientTransform="matrix(60, 0, 0, 56, 0, 4)"><stop offset="0" stop-color="#c10000" stop-opacity="1"/><stop offset="1" stop-color="#5f0000" stop-opacity="1"/></linearGradient></defs><path fill="url(#linear-pattern-0)" fill-opacity="1" d="M 36.21875 2.050781 L 62.027344 27.605469 C 64.402344 29.957031 64.417969 33.785156 62.058594 36.15625 L 36.460938 61.917969 C 34.105469 64.289062 30.269531 64.304688 27.894531 61.949219 L 2.085938 36.394531 C -0.289062 34.042969 -0.304688 30.214844 2.050781 27.84375 L 27.652344 2.082031 C 30.007812 -0.289062 33.84375 -0.304688 36.21875 2.050781 Z M 36.21875 2.050781 " /><g transform="matrix(1.0075098,0,0,1.0032698,16.221436,16.077397)"><path fill-rule="nonzero" fill="rgb(100%, 100%, 100%)" fill-opacity="1" d="M 7.382812 0 C 5.34375 0 3.691406 1.65625 3.691406 3.691406 L 0 23.421875 C 1.03125 22.644531 2.304688 22.15625 3.691406 22.15625 L 28.308594 22.15625 C 29.695312 22.15625 30.96875 22.644531 32 23.421875 L 28.308594 3.691406 C 28.308594 1.65625 26.65625 0 24.617188 0 Z M 16 3.882812 C 21.316406 3.882812 25.617188 7.121094 25.617188 11.117188 C 25.617188 15.109375 21.316406 18.34375 16 18.34375 C 10.683594 18.34375 6.382812 15.109375 6.382812 11.117188 C 6.382812 7.117188 10.683594 3.882812 16 3.882812 Z M 16 8.734375 C 14.703125 8.734375 13.65625 9.53125 13.65625 10.5 C 13.65625 11.46875 14.703125 12.269531 16 12.269531 C 17.296875 12.269531 18.34375 11.46875 18.34375 10.5 C 18.34375 9.53125 17.296875 8.734375 16 8.734375 Z M 10.191406 9.34375 C 9.867188 9.867188 9.695312 10.464844 9.691406 11.078125 C 9.691406 13.546875 12.53125 15.117188 16 15.117188 C 14.453125 14.941406 9.8125 12.953125 10.191406 9.34375 Z M 3.691406 23.382812 C 1.65625 23.382812 0 25.039062 0 27.078125 L 0 28.308594 C 0 30.34375 1.65625 32 3.691406 32 L 28.308594 32 C 30.34375 32 32 30.34375 32 28.308594 L 32 27.078125 C 32 25.039062 30.34375 23.382812 28.308594 23.382812 Z M 26.460938 25.84375 C 27.484375 25.84375 28.308594 26.671875 28.308594 27.691406 C 28.308594 28.710938 27.484375 29.539062 26.460938 29.539062 C 25.441406 29.539062 24.617188 28.710938 24.617188 27.691406 C 24.617188 26.671875 25.441406 25.84375 26.460938 25.84375 Z M 26.460938 25.84375 "/></g></svg>
