<svg width="64" height="64" viewBox="0 0 64 64" version="1.1"><defs><linearGradient id="linear-pattern-0" gradientUnits="userSpaceOnUse" x1="0" y1="0" x2="0" y2="1" gradientTransform="matrix(60, 0, 0, 56, 0, 4)"><stop offset="0" stop-color="#00983a" stop-opacity="1"/><stop offset="1" stop-color="#004a1c" stop-opacity="1"/></linearGradient></defs><path fill="url(#linear-pattern-0)" fill-opacity="1" d="M 36.21875 2.050781 L 62.027344 27.605469 C 64.402344 29.957031 64.417969 33.785156 62.058594 36.15625 L 36.460938 61.917969 C 34.105469 64.289062 30.269531 64.304688 27.894531 61.949219 L 2.085938 36.394531 C -0.289062 34.042969 -0.304688 30.214844 2.050781 27.84375 L 27.652344 2.082031 C 30.007812 -0.289062 33.84375 -0.304688 36.21875 2.050781 Z M 36.21875 2.050781 " /><g transform="matrix(1.0075098,0,0,1.0032698,16.221436,16.077397)"><path fill-rule="nonzero" fill="rgb(100%, 100%, 100%)" fill-opacity="1" d="M 4.492188 22.019531 C 3.953125 22.023438 3.546875 21.960938 2.976562 22.1875 C 2.691406 22.300781 2.363281 22.5625 2.195312 22.878906 C 2.027344 23.195312 2 23.5 2 23.785156 L 2 28.234375 C 2 28.515625 2.027344 28.820312 2.195312 29.140625 C 2.363281 29.460938 2.691406 29.71875 2.976562 29.832031 C 3.546875 30.058594 3.953125 29.996094 4.492188 30 L 7.507812 30 C 8.046875 29.996094 8.453125 30.054688 9.023438 29.832031 C 9.308594 29.71875 9.636719 29.460938 9.804688 29.140625 C 9.972656 28.820312 10 28.515625 10 28.234375 L 10 23.785156 C 10 23.5 9.972656 23.195312 9.804688 22.878906 C 9.640625 22.5625 9.308594 22.300781 9.023438 22.1875 C 8.453125 21.960938 8.046875 22.023438 7.507812 22.019531 Z M 4.5 24.019531 L 7.5 24.019531 C 7.839844 24.023438 7.878906 24.023438 8 24.035156 L 8 27.984375 C 7.878906 27.992188 7.839844 27.996094 7.5 28 L 4.5 28 C 4.164062 27.996094 4.121094 27.992188 4 27.984375 L 4 24.035156 C 4.121094 24.027344 4.160156 24.023438 4.5 24.019531 Z M 4.5 24.019531 "/><path fill-rule="nonzero" fill="rgb(100%, 100%, 100%)" fill-opacity="1" d="M 4.492188 12.019531 C 3.953125 12.023438 3.546875 11.960938 2.976562 12.1875 C 2.691406 12.300781 2.363281 12.5625 2.195312 12.878906 C 2.027344 13.195312 2 13.5 2 13.785156 L 2 18.234375 C 2 18.515625 2.027344 18.820312 2.195312 19.140625 C 2.363281 19.460938 2.691406 19.71875 2.976562 19.832031 C 3.546875 20.058594 3.953125 19.996094 4.492188 20 L 7.507812 20 C 8.046875 19.996094 8.453125 20.054688 9.023438 19.832031 C 9.308594 19.71875 9.636719 19.460938 9.804688 19.140625 C 9.972656 18.820312 10 18.515625 10 18.234375 L 10 13.785156 C 10 13.5 9.972656 13.195312 9.804688 12.878906 C 9.640625 12.5625 9.308594 12.300781 9.023438 12.1875 C 8.453125 11.960938 8.046875 12.023438 7.507812 12.019531 Z M 4.5 14.019531 L 7.5 14.019531 C 7.839844 14.023438 7.878906 14.023438 8 14.035156 L 8 17.984375 C 7.878906 17.992188 7.839844 17.996094 7.5 18 L 4.5 18 C 4.164062 17.996094 4.121094 17.992188 4 17.984375 L 4 14.035156 C 4.121094 14.027344 4.160156 14.023438 4.5 14.019531 Z M 4.5 14.019531 "/><path fill-rule="nonzero" fill="rgb(100%, 100%, 100%)" fill-opacity="1" d="M 4.492188 2.019531 C 3.953125 2.023438 3.546875 1.960938 2.976562 2.1875 C 2.691406 2.300781 2.363281 2.5625 2.195312 2.878906 C 2.027344 3.195312 2 3.5 2 3.785156 L 2 8.234375 C 2 8.515625 2.027344 8.820312 2.195312 9.140625 C 2.363281 9.460938 2.691406 9.71875 2.976562 9.832031 C 3.546875 10.058594 3.953125 9.996094 4.492188 10 L 7.507812 10 C 8.046875 9.996094 8.453125 10.054688 9.023438 9.832031 C 9.308594 9.71875 9.636719 9.460938 9.804688 9.140625 C 9.972656 8.820312 10 8.515625 10 8.234375 L 10 3.785156 C 10 3.5 9.972656 3.195312 9.804688 2.878906 C 9.640625 2.5625 9.308594 2.300781 9.023438 2.1875 C 8.453125 1.960938 8.046875 2.023438 7.507812 2.019531 Z M 4.5 4.019531 L 7.5 4.019531 C 7.839844 4.023438 7.878906 4.023438 8 4.035156 L 8 7.984375 C 7.878906 7.992188 7.839844 7.996094 7.5 8 L 4.5 8 C 4.164062 7.996094 4.121094 7.992188 4 7.984375 L 4 4.035156 C 4.121094 4.027344 4.160156 4.023438 4.5 4.019531 Z M 4.5 4.019531 "/><path fill-rule="nonzero" fill="rgb(100%, 100%, 100%)" fill-opacity="1" d="M 14.492188 22.019531 C 13.953125 22.023438 13.546875 21.960938 12.976562 22.1875 C 12.691406 22.300781 12.363281 22.5625 12.195312 22.878906 C 12.027344 23.195312 12 23.5 12 23.785156 L 12 28.234375 C 12 28.515625 12.027344 28.820312 12.195312 29.140625 C 12.363281 29.460938 12.691406 29.71875 12.976562 29.832031 C 13.546875 30.058594 13.953125 29.996094 14.492188 30 L 17.507812 30 C 18.046875 29.996094 18.453125 30.054688 19.023438 29.832031 C 19.308594 29.71875 19.636719 29.460938 19.804688 29.140625 C 19.972656 28.820312 20 28.515625 20 28.234375 L 20 23.785156 C 20 23.5 19.972656 23.195312 19.804688 22.878906 C 19.640625 22.5625 19.308594 22.300781 19.023438 22.1875 C 18.453125 21.960938 18.046875 22.023438 17.507812 22.019531 Z M 14.5 24.019531 L 17.5 24.019531 C 17.839844 24.023438 17.878906 24.023438 18 24.035156 L 18 27.984375 C 17.878906 27.992188 17.839844 27.996094 17.5 28 L 14.5 28 C 14.164062 27.996094 14.121094 27.992188 14 27.984375 L 14 24.035156 C 14.121094 24.027344 14.160156 24.023438 14.5 24.019531 Z M 14.5 24.019531 "/><path fill-rule="nonzero" fill="rgb(100%, 100%, 100%)" fill-opacity="1" d="M 14.492188 12.019531 C 13.953125 12.023438 13.546875 11.960938 12.976562 12.1875 C 12.691406 12.300781 12.363281 12.5625 12.195312 12.878906 C 12.027344 13.195312 12 13.5 12 13.785156 L 12 18.234375 C 12 18.515625 12.027344 18.820312 12.195312 19.140625 C 12.363281 19.460938 12.691406 19.71875 12.976562 19.832031 C 13.546875 20.058594 13.953125 19.996094 14.492188 20 L 17.507812 20 C 18.046875 19.996094 18.453125 20.054688 19.023438 19.832031 C 19.308594 19.71875 19.636719 19.460938 19.804688 19.140625 C 19.972656 18.820312 20 18.515625 20 18.234375 L 20 13.785156 C 20 13.5 19.972656 13.195312 19.804688 12.878906 C 19.640625 12.5625 19.308594 12.300781 19.023438 12.1875 C 18.453125 11.960938 18.046875 12.023438 17.507812 12.019531 Z M 14.5 14.019531 L 17.5 14.019531 C 17.839844 14.023438 17.878906 14.023438 18 14.035156 L 18 17.984375 C 17.878906 17.992188 17.839844 17.996094 17.5 18 L 14.5 18 C 14.164062 17.996094 14.121094 17.992188 14 17.984375 L 14 14.035156 C 14.121094 14.027344 14.160156 14.023438 14.5 14.019531 Z M 14.5 14.019531 "/><path fill-rule="nonzero" fill="rgb(100%, 100%, 100%)" fill-opacity="1" d="M 14.492188 2.019531 C 13.953125 2.023438 13.546875 1.960938 12.976562 2.1875 C 12.691406 2.300781 12.363281 2.5625 12.195312 2.878906 C 12.027344 3.195312 12 3.5 12 3.785156 L 12 8.234375 C 12 8.515625 12.027344 8.820312 12.195312 9.140625 C 12.363281 9.460938 12.691406 9.71875 12.976562 9.832031 C 13.546875 10.058594 13.953125 9.996094 14.492188 10 L 17.507812 10 C 18.046875 9.996094 18.453125 10.054688 19.023438 9.832031 C 19.308594 9.71875 19.636719 9.460938 19.804688 9.140625 C 19.972656 8.820312 20 8.515625 20 8.234375 L 20 3.785156 C 20 3.5 19.972656 3.195312 19.804688 2.878906 C 19.640625 2.5625 19.308594 2.300781 19.023438 2.1875 C 18.453125 1.960938 18.046875 2.023438 17.507812 2.019531 Z M 14.5 4.019531 L 17.5 4.019531 C 17.839844 4.023438 17.878906 4.023438 18 4.035156 L 18 7.984375 C 17.878906 7.992188 17.839844 7.996094 17.5 8 L 14.5 8 C 14.164062 7.996094 14.121094 7.992188 14 7.984375 L 14 4.035156 C 14.121094 4.027344 14.160156 4.023438 14.5 4.019531 Z M 14.5 4.019531 "/><path fill-rule="nonzero" fill="rgb(100%, 100%, 100%)" fill-opacity="1" d="M 24.492188 22.019531 C 23.953125 22.023438 23.546875 21.960938 22.976562 22.1875 C 22.691406 22.300781 22.363281 22.5625 22.195312 22.878906 C 22.027344 23.195312 22 23.5 22 23.785156 L 22 28.234375 C 22 28.515625 22.027344 28.820312 22.195312 29.140625 C 22.363281 29.460938 22.691406 29.71875 22.976562 29.832031 C 23.546875 30.058594 23.953125 29.996094 24.492188 30 L 27.507812 30 C 28.046875 29.996094 28.453125 30.054688 29.023438 29.832031 C 29.308594 29.71875 29.636719 29.460938 29.804688 29.140625 C 29.972656 28.820312 30 28.515625 30 28.234375 L 30 23.785156 C 30 23.5 29.972656 23.195312 29.804688 22.878906 C 29.640625 22.5625 29.308594 22.300781 29.023438 22.1875 C 28.453125 21.960938 28.046875 22.023438 27.507812 22.019531 Z M 24.5 24.019531 L 27.5 24.019531 C 27.839844 24.023438 27.878906 24.023438 28 24.035156 L 28 27.984375 C 27.878906 27.992188 27.839844 27.996094 27.5 28 L 24.5 28 C 24.164062 27.996094 24.121094 27.992188 24 27.984375 L 24 24.035156 C 24.121094 24.027344 24.160156 24.023438 24.5 24.019531 Z M 24.5 24.019531 "/><path fill-rule="nonzero" fill="rgb(100%, 100%, 100%)" fill-opacity="1" d="M 24.492188 12.019531 C 23.953125 12.023438 23.546875 11.960938 22.976562 12.1875 C 22.691406 12.300781 22.363281 12.5625 22.195312 12.878906 C 22.027344 13.195312 22 13.5 22 13.785156 L 22 18.234375 C 22 18.515625 22.027344 18.820312 22.195312 19.140625 C 22.363281 19.460938 22.691406 19.71875 22.976562 19.832031 C 23.546875 20.058594 23.953125 19.996094 24.492188 20 L 27.507812 20 C 28.046875 19.996094 28.453125 20.054688 29.023438 19.832031 C 29.308594 19.71875 29.636719 19.460938 29.804688 19.140625 C 29.972656 18.820312 30 18.515625 30 18.234375 L 30 13.785156 C 30 13.5 29.972656 13.195312 29.804688 12.878906 C 29.640625 12.5625 29.308594 12.300781 29.023438 12.1875 C 28.453125 11.960938 28.046875 12.023438 27.507812 12.019531 Z M 24.5 14.019531 L 27.5 14.019531 C 27.839844 14.023438 27.878906 14.023438 28 14.035156 L 28 17.984375 C 27.878906 17.992188 27.839844 17.996094 27.5 18 L 24.5 18 C 24.164062 17.996094 24.121094 17.992188 24 17.984375 L 24 14.035156 C 24.121094 14.027344 24.160156 14.023438 24.5 14.019531 Z M 24.5 14.019531 "/><path fill-rule="nonzero" fill="rgb(100%, 100%, 100%)" fill-opacity="1" d="M 24.492188 2.019531 C 23.953125 2.023438 23.546875 1.960938 22.976562 2.1875 C 22.691406 2.300781 22.363281 2.5625 22.195312 2.878906 C 22.027344 3.195312 22 3.5 22 3.785156 L 22 8.234375 C 22 8.515625 22.027344 8.820312 22.195312 9.140625 C 22.363281 9.460938 22.691406 9.71875 22.976562 9.832031 C 23.546875 10.058594 23.953125 9.996094 24.492188 10 L 27.507812 10 C 28.046875 9.996094 28.453125 10.054688 29.023438 9.832031 C 29.308594 9.71875 29.636719 9.460938 29.804688 9.140625 C 29.972656 8.820312 30 8.515625 30 8.234375 L 30 3.785156 C 30 3.5 29.972656 3.195312 29.804688 2.878906 C 29.640625 2.5625 29.308594 2.300781 29.023438 2.1875 C 28.453125 1.960938 28.046875 2.023438 27.507812 2.019531 Z M 24.5 4.019531 L 27.5 4.019531 C 27.839844 4.023438 27.878906 4.023438 28 4.035156 L 28 7.984375 C 27.878906 7.992188 27.839844 7.996094 27.5 8 L 24.5 8 C 24.164062 7.996094 24.121094 7.992188 24 7.984375 L 24 4.035156 C 24.121094 4.027344 24.160156 4.023438 24.5 4.019531 Z M 24.5 4.019531 "/></g></svg>
