<svg width="64" height="64" viewBox="0 0 64 64" version="1.1"><defs><linearGradient id="linear-pattern-0" gradientUnits="userSpaceOnUse" x1="0" y1="0" x2="0" y2="1" gradientTransform="matrix(60, 0, 0, 56, 0, 4)"><stop offset="0" stop-color="#3067ff" stop-opacity="1"/><stop offset="1" stop-color="#002ca6" stop-opacity="1"/></linearGradient></defs><path fill="url(#linear-pattern-0)" fill-opacity="1" d="M 36.21875 2.050781 L 62.027344 27.605469 C 64.402344 29.957031 64.417969 33.785156 62.058594 36.15625 L 36.460938 61.917969 C 34.105469 64.289062 30.269531 64.304688 27.894531 61.949219 L 2.085938 36.394531 C -0.289062 34.042969 -0.304688 30.214844 2.050781 27.84375 L 27.652344 2.082031 C 30.007812 -0.289062 33.84375 -0.304688 36.21875 2.050781 Z M 36.21875 2.050781 " /><g transform="matrix(1.0075098,0,0,1.0032698,16.221436,16.077397)"><path fill-rule="nonzero" fill="rgb(100%, 100%, 100%)" fill-opacity="1" d="M 9 2 C 7.914062 2 7.03125 2.125 6.28125 2.460938 C 5.53125 2.796875 4.945312 3.375 4.605469 4.054688 C 3.925781 5.414062 4 7 4 9 L 4 25 C 4 27 3.925781 28.585938 4.605469 29.945312 C 4.945312 30.625 5.53125 31.203125 6.28125 31.539062 C 7.03125 31.875 7.914062 32 9 32 L 19 32 C 20.085938 32 20.96875 31.875 21.71875 31.539062 C 22.46875 31.203125 23.054688 30.625 23.394531 29.945312 C 24.074219 28.585938 24 27 24 25 L 24 9 C 24 7 24.074219 5.414062 23.394531 4.054688 C 23.054688 3.375 22.46875 2.796875 21.71875 2.460938 C 20.96875 2.125 20.085938 2 19 2 Z M 9 4 L 19 4 C 19.914062 4 20.53125 4.125 20.90625 4.289062 C 21.28125 4.453125 21.445312 4.625 21.605469 4.945312 C 21.925781 5.585938 22 7 22 9 L 22 25 C 22 27 21.925781 28.414062 21.605469 29.054688 C 21.445312 29.375 21.28125 29.546875 20.90625 29.710938 C 20.53125 29.875 19.914062 30 19 30 L 9 30 C 8.085938 30 7.46875 29.875 7.09375 29.710938 C 6.71875 29.546875 6.554688 29.375 6.394531 29.054688 C 6.074219 28.414062 6 27 6 25 L 6 9 C 6 7 6.074219 5.585938 6.394531 4.945312 C 6.554688 4.625 6.71875 4.453125 7.09375 4.289062 C 7.46875 4.125 8.085938 4 9 4 Z M 9 4 "/><path fill-rule="evenodd" fill="rgb(100%, 100%, 100%)" fill-opacity="1" d="M 8 6 L 8 14 L 20 14 L 20 6 Z M 8 6 "/><path fill-rule="nonzero" fill="rgb(100%, 100%, 100%)" fill-opacity="1" d="M 14 16 C 10.695312 16 8 18.699219 8 22 C 8 25.304688 10.695312 28 14 28 C 17.304688 28 20 25.304688 20 22 C 20 18.699219 17.304688 16 14 16 Z M 14 18 C 16.21875 18 18 19.78125 18 22 C 18 24.21875 16.21875 26 14 26 C 11.78125 26 10 24.21875 10 22 C 10 19.78125 11.78125 18 14 18 Z M 14 18 "/></g></svg>
