<svg width="64" height="64" viewBox="0 0 64 64" version="1.1"><defs><linearGradient id="linear-pattern-0" gradientUnits="userSpaceOnUse" x1="0" y1="0" x2="0" y2="1" gradientTransform="matrix(60, 0, 0, 56, 0, 4)"><stop offset="0" stop-color="#7795ab" stop-opacity="1"/><stop offset="1" stop-color="#3b4f5f" stop-opacity="1"/></linearGradient></defs><path fill="url(#linear-pattern-0)" fill-opacity="1" d="M 36.21875 2.050781 L 62.027344 27.605469 C 64.402344 29.957031 64.417969 33.785156 62.058594 36.15625 L 36.460938 61.917969 C 34.105469 64.289062 30.269531 64.304688 27.894531 61.949219 L 2.085938 36.394531 C -0.289062 34.042969 -0.304688 30.214844 2.050781 27.84375 L 27.652344 2.082031 C 30.007812 -0.289062 33.84375 -0.304688 36.21875 2.050781 Z M 36.21875 2.050781 " /><g transform="matrix(1.0075098,0,0,1.0032698,16.221436,16.077397)"><path fill-rule="nonzero" fill="rgb(100%, 100%, 100%)" fill-opacity="1" d="M 13.144531 2.285156 C 12.667969 2.285156 12.261719 2.453125 11.929688 2.785156 C 11.59375 3.117188 11.429688 3.523438 11.429688 4 L 11.429688 9.71875 C 11.429688 10.191406 11.59375 10.59375 11.929688 10.929688 C 12.261719 11.261719 12.667969 11.429688 13.144531 11.429688 L 14.859375 11.429688 L 14.859375 14.859375 L 5.714844 14.859375 C 5.09375 14.859375 4.5625 15.082031 4.109375 15.53125 C 3.65625 15.984375 3.429688 16.523438 3.429688 17.140625 L 3.429688 20.570312 L 1.714844 20.570312 C 1.238281 20.570312 0.835938 20.742188 0.5 21.070312 C 0.167969 21.40625 0 21.808594 0 22.28125 L 0 28 C 0 28.476562 0.167969 28.882812 0.5 29.214844 C 0.835938 29.546875 1.238281 29.714844 1.714844 29.714844 L 7.429688 29.714844 C 7.90625 29.714844 8.3125 29.546875 8.644531 29.214844 C 8.976562 28.882812 9.144531 28.476562 9.144531 28 L 9.144531 22.28125 C 9.144531 21.808594 8.976562 21.40625 8.644531 21.070312 C 8.3125 20.738281 7.90625 20.570312 7.429688 20.570312 L 5.714844 20.570312 L 5.714844 17.140625 L 14.859375 17.140625 L 14.859375 20.570312 L 13.144531 20.570312 C 12.667969 20.570312 12.261719 20.742188 11.929688 21.070312 C 11.59375 21.40625 11.429688 21.808594 11.429688 22.28125 L 11.429688 28 C 11.429688 28.476562 11.59375 28.882812 11.929688 29.214844 C 12.261719 29.546875 12.667969 29.714844 13.144531 29.714844 L 18.855469 29.714844 C 19.332031 29.714844 19.738281 29.546875 20.070312 29.214844 C 20.40625 28.882812 20.570312 28.476562 20.570312 28 L 20.570312 22.28125 C 20.570312 21.808594 20.40625 21.40625 20.070312 21.070312 C 19.738281 20.738281 19.332031 20.570312 18.855469 20.570312 L 17.140625 20.570312 L 17.140625 17.140625 L 26.285156 17.140625 L 26.285156 20.570312 L 24.570312 20.570312 C 24.09375 20.570312 23.6875 20.742188 23.355469 21.070312 C 23.023438 21.40625 22.855469 21.808594 22.855469 22.28125 L 22.855469 28 C 22.855469 28.476562 23.023438 28.882812 23.355469 29.214844 C 23.6875 29.546875 24.09375 29.714844 24.570312 29.714844 L 30.285156 29.714844 C 30.761719 29.714844 31.164062 29.546875 31.5 29.214844 C 31.832031 28.882812 32 28.476562 32 28 L 32 22.28125 C 32 21.808594 31.835938 21.40625 31.5 21.070312 C 31.167969 20.738281 30.761719 20.570312 30.285156 20.570312 L 28.570312 20.570312 L 28.570312 17.140625 C 28.570312 16.523438 28.34375 15.984375 27.890625 15.53125 C 27.4375 15.082031 26.90625 14.859375 26.285156 14.859375 L 17.140625 14.859375 L 17.140625 11.429688 L 18.855469 11.429688 C 19.332031 11.429688 19.738281 11.261719 20.070312 10.929688 C 20.40625 10.59375 20.570312 10.191406 20.570312 9.71875 L 20.570312 4 C 20.570312 3.523438 20.40625 3.117188 20.070312 2.785156 C 19.738281 2.453125 19.332031 2.285156 18.855469 2.285156 Z M 13.144531 2.285156 "/></g></svg>
