<svg width="64" height="64" viewBox="0 0 64 64" version="1.1"><defs><linearGradient id="linear-pattern-0" gradientUnits="userSpaceOnUse" x1="0" y1="0" x2="0" y2="1" gradientTransform="matrix(60, 0, 0, 56, 0, 4)"><stop offset="0" stop-color="#3067ff" stop-opacity="1"/><stop offset="1" stop-color="#002ca6" stop-opacity="1"/></linearGradient></defs><path fill="url(#linear-pattern-0)" fill-opacity="1" d="M 36.21875 2.050781 L 62.027344 27.605469 C 64.402344 29.957031 64.417969 33.785156 62.058594 36.15625 L 36.460938 61.917969 C 34.105469 64.289062 30.269531 64.304688 27.894531 61.949219 L 2.085938 36.394531 C -0.289062 34.042969 -0.304688 30.214844 2.050781 27.84375 L 27.652344 2.082031 C 30.007812 -0.289062 33.84375 -0.304688 36.21875 2.050781 Z M 36.21875 2.050781 " /><g transform="matrix(1.0075098,0,0,1.0032698,16.221436,16.077397)"><path fill-rule="nonzero" fill="rgb(100%, 100%, 100%)" fill-opacity="1" d="M 10 1.5 L 8 2 L 8 25 C 8 27 7.925781 28.585938 8.605469 29.945312 C 8.945312 30.625 9.53125 31.203125 10.28125 31.539062 C 11.03125 31.875 11.914062 32 13 32 L 21 32 C 22.085938 32 22.96875 31.875 23.71875 31.539062 C 24.46875 31.203125 25.054688 30.625 25.394531 29.945312 C 26.074219 28.585938 26 27 26 25 L 26 13 C 26 11 26.074219 9.414062 25.394531 8.054688 C 25.054688 7.375 24.46875 6.796875 23.71875 6.460938 C 22.96875 6.125 22.085938 6 21 6 L 10 6 Z M 10 8 L 21 8 C 21.914062 8 22.53125 8.125 22.90625 8.289062 C 23.28125 8.453125 23.445312 8.625 23.605469 8.945312 C 23.925781 9.585938 24 11 24 13 L 24 25 C 24 27 23.925781 28.414062 23.605469 29.054688 C 23.445312 29.375 23.28125 29.546875 22.90625 29.710938 C 22.53125 29.875 21.914062 30 21 30 L 13 30 C 12.085938 30 11.46875 29.875 11.09375 29.710938 C 10.71875 29.546875 10.554688 29.375 10.394531 29.054688 C 10.074219 28.414062 10 27 10 25 Z M 12 10 L 12 16 L 22 16 L 22 10 Z M 12 18 L 12 20 L 14 20 L 14 18 Z M 16 18 L 16 20 L 18 20 L 18 18 Z M 20 18 L 20 20 L 22 20 L 22 18 Z M 12 22 L 12 24 L 14 24 L 14 22 Z M 16 22 L 16 24 L 18 24 L 18 22 Z M 20 22 L 20 24 L 22 24 L 22 22 Z M 12 26 L 12 28 L 14 28 L 14 26 Z M 16 26 L 16 28 L 18 28 L 18 26 Z M 20 26 L 20 28 L 22 28 L 22 26 Z M 20 26 "/></g></svg>
