<svg width="64" height="64" viewBox="0 0 64 64" version="1.1"><defs><linearGradient id="linear-pattern-0" gradientUnits="userSpaceOnUse" x1="0" y1="0" x2="0" y2="1" gradientTransform="matrix(60, 0, 0, 56, 0, 4)"><stop offset="0" stop-color="#0288cf" stop-opacity="1"/><stop offset="1" stop-color="#01486e" stop-opacity="1"/></linearGradient></defs><path fill="url(#linear-pattern-0)" fill-opacity="1" d="M 36.21875 2.050781 L 62.027344 27.605469 C 64.402344 29.957031 64.417969 33.785156 62.058594 36.15625 L 36.460938 61.917969 C 34.105469 64.289062 30.269531 64.304688 27.894531 61.949219 L 2.085938 36.394531 C -0.289062 34.042969 -0.304688 30.214844 2.050781 27.84375 L 27.652344 2.082031 C 30.007812 -0.289062 33.84375 -0.304688 36.21875 2.050781 Z M 36.21875 2.050781 " /><g transform="matrix(1.0075098,0,0,1.0032698,16.221436,16.077397)"><path fill-rule="nonzero" fill="rgb(100%, 100%, 100%)" fill-opacity="1" d="M 6 0 L 6 8.050781 C 4.5 8.085938 3.179688 8.1875 2.125 8.769531 C 1.375 9.1875 0.78125 9.890625 0.449219 10.765625 C 0.117188 11.640625 0 12.6875 0 14 L 0 20 C 0 21.3125 0.117188 22.359375 0.449219 23.234375 C 0.78125 24.109375 1.375 24.8125 2.125 25.230469 C 3.632812 26.0625 5.472656 25.96875 7.988281 26 L 14 26 L 14 28 L 4 28 L 4 30 L 28 30 L 28 28 L 18 28 L 18 26 L 24.011719 26 C 26.53125 25.96875 28.367188 26.0625 29.875 25.230469 C 30.628906 24.8125 31.222656 24.109375 31.550781 23.234375 C 31.878906 22.359375 32 21.3125 32 20 L 32 14 C 32 12.6875 31.882812 11.640625 31.550781 10.765625 C 31.21875 9.890625 30.625 9.1875 29.875 8.769531 C 28.820312 8.1875 27.5 8.085938 26 8.050781 L 26 0 Z M 8 2 L 24 2 L 24 8 L 8 8 Z M 8 10 L 24 10 C 26.515625 10.03125 28.171875 10.117188 28.90625 10.523438 C 29.273438 10.726562 29.484375 10.949219 29.679688 11.46875 C 29.875 11.988281 30 12.8125 30 14 L 30 20 C 30 21.1875 29.875 22.011719 29.679688 22.53125 C 29.484375 23.050781 29.273438 23.273438 28.90625 23.476562 C 28.171875 23.882812 26.515625 23.96875 24 24 L 8 24 C 5.484375 23.96875 3.820312 23.882812 3.089844 23.476562 C 2.722656 23.273438 2.515625 23.050781 2.320312 22.53125 C 2.125 22.011719 2 21.1875 2 20 L 2 14 C 2 12.8125 2.125 11.988281 2.320312 11.46875 C 2.515625 10.949219 2.722656 10.726562 3.089844 10.523438 C 3.820312 10.117188 5.484375 10.03125 8 10 Z M 27 12 C 26.445312 12 26 12.445312 26 13 C 26 13.554688 26.445312 14 27 14 C 27.554688 14 28 13.554688 28 13 C 28 12.445312 27.554688 12 27 12 Z M 6 20 L 6 22 L 26 22 L 26 20 Z M 6 20 "/></g></svg>
