<svg width="64" height="64" viewBox="0 0 64 64" version="1.1"><defs><linearGradient id="linear-pattern-0" gradientUnits="userSpaceOnUse" x1="0" y1="0" x2="0" y2="1" gradientTransform="matrix(60, 0, 0, 56, 0, 4)"><stop offset="0" stop-color="#3067ff" stop-opacity="1"/><stop offset="1" stop-color="#002ca6" stop-opacity="1"/></linearGradient></defs><path fill="url(#linear-pattern-0)" fill-opacity="1" d="M 36.21875 2.050781 L 62.027344 27.605469 C 64.402344 29.957031 64.417969 33.785156 62.058594 36.15625 L 36.460938 61.917969 C 34.105469 64.289062 30.269531 64.304688 27.894531 61.949219 L 2.085938 36.394531 C -0.289062 34.042969 -0.304688 30.214844 2.050781 27.84375 L 27.652344 2.082031 C 30.007812 -0.289062 33.84375 -0.304688 36.21875 2.050781 Z M 36.21875 2.050781 " /><g transform="matrix(1.0075098,0,0,1.0032698,16.221436,16.077397)"><path fill-rule="nonzero" fill="rgb(100%, 100%, 100%)" fill-opacity="1" d="M 7.988281 2 C 5.472656 2.03125 3.632812 1.9375 2.125 2.769531 C 1.375 3.1875 0.78125 3.890625 0.449219 4.765625 C 0.117188 5.640625 0 6.6875 0 8 L 0 20 C 0 21.3125 0.117188 22.359375 0.449219 23.234375 C 0.78125 24.109375 1.375 24.8125 2.125 25.230469 C 3.632812 26.0625 5.472656 25.96875 7.988281 26 L 24.011719 26 C 26.53125 25.96875 28.367188 26.0625 29.875 25.230469 C 30.628906 24.8125 31.222656 24.109375 31.550781 23.234375 C 31.882812 22.359375 32 21.3125 32 20 L 32 8 C 32 6.6875 31.882812 5.640625 31.550781 4.765625 C 31.21875 3.890625 30.625 3.1875 29.875 2.769531 C 28.367188 1.9375 26.527344 2.03125 24.011719 2 Z M 8 4 L 24 4 C 26.515625 4.03125 28.171875 4.117188 28.90625 4.523438 C 29.273438 4.726562 29.484375 4.949219 29.679688 5.46875 C 29.875 5.988281 30 6.8125 30 8 L 30 20 C 30 21.1875 29.875 22.011719 29.679688 22.53125 C 29.484375 23.050781 29.273438 23.273438 28.90625 23.476562 C 28.171875 23.882812 26.515625 23.96875 24 24 L 8 24 C 5.484375 23.96875 3.820312 23.882812 3.089844 23.476562 C 2.722656 23.273438 2.515625 23.050781 2.320312 22.53125 C 2.125 22.011719 2 21.1875 2 20 L 2 8 C 2 6.8125 2.125 5.988281 2.320312 5.46875 C 2.515625 4.949219 2.722656 4.726562 3.089844 4.523438 C 3.820312 4.117188 5.484375 4.03125 8 4 Z M 8 4 "/><path fill-rule="nonzero" fill="rgb(100%, 100%, 100%)" fill-opacity="1" d="M 12 24 L 20 24 L 20 27 C 20 30 21 30 23 30 L 24 30 L 24 32 L 8 32 L 8 30 L 9 30 C 11 30 12 30 12 27 Z M 12 24 "/></g></svg>
