<svg width="64" height="64" viewBox="0 0 64 64" version="1.1"><defs><linearGradient id="linear-pattern-0" gradientUnits="userSpaceOnUse" x1="0" y1="0" x2="0" y2="1" gradientTransform="matrix(60, 0, 0, 56, 0, 4)"><stop offset="0" stop-color="#7795ab" stop-opacity="1"/><stop offset="1" stop-color="#3b4f5f" stop-opacity="1"/></linearGradient></defs><path fill="url(#linear-pattern-0)" fill-opacity="1" d="M 36.21875 2.050781 L 62.027344 27.605469 C 64.402344 29.957031 64.417969 33.785156 62.058594 36.15625 L 36.460938 61.917969 C 34.105469 64.289062 30.269531 64.304688 27.894531 61.949219 L 2.085938 36.394531 C -0.289062 34.042969 -0.304688 30.214844 2.050781 27.84375 L 27.652344 2.082031 C 30.007812 -0.289062 33.84375 -0.304688 36.21875 2.050781 Z M 36.21875 2.050781 " /><g transform="matrix(1.0075098,0,0,1.0032698,16.221436,16.077397)"><path fill-rule="nonzero" fill="rgb(100%, 100%, 100%)" fill-opacity="1" d="M 23.648438 0 C 23.296875 0.0117188 23.023438 0.308594 23.03125 0.660156 C 23.039062 1.007812 23.320312 1.28125 23.671875 1.277344 L 23.6875 1.277344 C 23.773438 1.265625 26.015625 1.265625 28.320312 3.632812 C 30.640625 6.011719 30.695312 8.28125 30.695312 8.304688 C 30.695312 8.65625 30.984375 8.945312 31.335938 8.945312 C 31.6875 8.945312 31.976562 8.65625 31.976562 8.304688 C 31.976562 8.191406 31.945312 5.53125 29.238281 2.757812 C 26.515625 -0.03125 23.773438 -0.0078125 23.648438 0 Z M 23.671875 3.835938 C 23.320312 3.835938 23.035156 4.125 23.03125 4.472656 C 23.023438 4.820312 23.320312 5.101562 23.671875 5.109375 C 23.710938 5.109375 24.710938 5.15625 25.765625 6.210938 C 26.820312 7.265625 26.863281 8.269531 26.863281 8.304688 C 26.863281 8.65625 27.148438 8.945312 27.5 8.945312 C 27.851562 8.945312 28.140625 8.65625 28.140625 8.304688 C 28.140625 8.242188 28.132812 6.738281 26.683594 5.289062 C 25.234375 3.84375 23.734375 3.835938 23.671875 3.835938 Z M 18.382812 3.851562 C 17.664062 3.847656 16.972656 4.109375 16.441406 4.59375 L 0.792969 20.304688 C -0.226562 21.320312 -0.234375 22.984375 0.792969 24.09375 L 7.960938 31.242188 C 8.453125 31.734375 9.117188 32.007812 9.816406 32 C 10.527344 32 11.210938 31.726562 11.734375 31.242188 L 27.402344 15.550781 C 28.378906 14.410156 28.378906 12.753906 27.382812 11.757812 L 20.21875 4.59375 C 19.726562 4.101562 19.066406 3.855469 18.382812 3.851562 Z M 17.921875 9.582031 C 20.390625 9.582031 22.390625 11.585938 22.390625 14.054688 C 22.390625 16.523438 20.390625 18.523438 17.921875 18.523438 C 15.449219 18.523438 13.445312 16.523438 13.445312 14.054688 C 13.445312 11.585938 15.449219 9.582031 17.921875 9.582031 Z M 17.921875 12.773438 C 17.214844 12.773438 16.640625 13.347656 16.640625 14.054688 C 16.640625 14.757812 17.214844 15.332031 17.921875 15.332031 C 18.625 15.332031 19.195312 14.757812 19.195312 14.054688 C 19.195312 13.347656 18.625 12.773438 17.921875 12.773438 Z M 9.617188 17.25 C 10.320312 17.25 10.894531 17.820312 10.894531 18.523438 C 10.894531 19.234375 10.320312 19.804688 9.617188 19.804688 C 8.910156 19.804688 8.335938 19.234375 8.335938 18.523438 C 8.335938 17.820312 8.910156 17.25 9.617188 17.25 Z M 6.421875 20.441406 C 7.128906 20.441406 7.699219 21.015625 7.699219 21.71875 C 7.699219 22.425781 7.128906 23 6.421875 23 C 5.71875 23 5.144531 22.425781 5.144531 21.71875 C 5.144531 21.015625 5.71875 20.441406 6.421875 20.441406 Z M 13.445312 21.082031 C 14.15625 21.082031 14.726562 21.65625 14.726562 22.359375 C 14.726562 23.0625 14.15625 23.636719 13.445312 23.636719 C 12.742188 23.636719 12.171875 23.0625 12.171875 22.359375 C 12.171875 21.65625 12.742188 21.082031 13.445312 21.082031 Z M 10.253906 24.273438 C 10.960938 24.273438 11.53125 24.84375 11.53125 25.554688 C 11.53125 26.257812 10.960938 26.828125 10.253906 26.828125 C 9.546875 26.828125 8.976562 26.257812 8.976562 25.554688 C 8.976562 24.84375 9.546875 24.273438 10.253906 24.273438 Z M 10.253906 24.273438 "/></g></svg>
