<?xml version="1.0" encoding="UTF-8" standalone="no"?>
<svg
   width="64"
   height="64"
   viewBox="0 0 64 64"
   fill="none"
   version="1.1"
   id="svg23"
   sodipodi:docname="folder-deb.svg"
   inkscape:version="1.4.2 (unknown)"
   xmlns:inkscape="http://www.inkscape.org/namespaces/inkscape"
   xmlns:sodipodi="http://sodipodi.sourceforge.net/DTD/sodipodi-0.dtd"
   xmlns:xlink="http://www.w3.org/1999/xlink"
   xmlns="http://www.w3.org/2000/svg"
   xmlns:svg="http://www.w3.org/2000/svg">
  <sodipodi:namedview
     id="namedview23"
     pagecolor="#ffffff"
     bordercolor="#000000"
     borderopacity="0.25"
     inkscape:showpageshadow="2"
     inkscape:pageopacity="0.0"
     inkscape:pagecheckerboard="0"
     inkscape:deskcolor="#d1d1d1"
     inkscape:zoom="11.313709"
     inkscape:cx="35.576308"
     inkscape:cy="39.377007"
     inkscape:window-width="1920"
     inkscape:window-height="1000"
     inkscape:window-x="0"
     inkscape:window-y="0"
     inkscape:window-maximized="1"
     inkscape:current-layer="svg23"
     showgrid="false">
    <inkscape:grid
       id="grid1"
       units="px"
       originx="0"
       originy="0"
       spacingx="1"
       spacingy="1"
       empcolor="#0099e5"
       empopacity="0.30196078"
       color="#0099e5"
       opacity="0.14901961"
       empspacing="5"
       enabled="true"
       visible="false" />
  </sodipodi:namedview>
  <defs
     id="defs23">
    <linearGradient
       id="linearGradient27"
       x1="40.6957"
       y1="46"
       x2="40.6957"
       y2="42"
       gradientUnits="userSpaceOnUse">
      <stop
         offset="0.34068099"
         stop-color="#2E2E41"
         id="stop26"
         style="stop-color:#ff9999;stop-opacity:1;" />
      <stop
         offset="1"
         stop-color="#566C80"
         id="stop27"
         style="stop-color:#2b0000;stop-opacity:1" />
    </linearGradient>
    <linearGradient
       id="linearGradient25"
       x1="56"
       y1="34"
       x2="48.4736"
       y2="8.1952"
       gradientUnits="userSpaceOnUse">
      <stop
         stop-color="#2E2E41"
         id="stop24"
         offset="0"
         style="stop-color:#4a7ab5;stop-opacity:1;" />
      <stop
         offset="1"
         stop-color="#566C80"
         id="stop25"
         style="stop-color:#4a7ab5;stop-opacity:1;" />
    </linearGradient>
    <linearGradient
       id="linearGradient7"
       x1="56"
       y1="60"
       x2="31.6269"
       y2="18.2176"
       gradientUnits="userSpaceOnUse">
      <stop
         offset="0.12675899"
         stop-color="#2E2E41"
         id="stop6"
         style="stop-color:#5294e2;stop-opacity:1;" />
      <stop
         offset="0.87736899"
         stop-color="#566C80"
         id="stop7"
         style="stop-color:#5294e2;stop-opacity:1;" />
    </linearGradient>
    <linearGradient
       id="paint0_linear_328_683"
       x1="56"
       y1="34"
       x2="48.4736"
       y2="8.1952"
       gradientUnits="userSpaceOnUse">
      <stop
         stop-color="#2E2E41"
         id="stop8" />
      <stop
         offset="1"
         stop-color="#566C80"
         id="stop9" />
    </linearGradient>
    <linearGradient
       id="paint1_linear_328_683"
       x1="50"
       y1="54"
       x2="1.21951"
       y2="14.9756"
       gradientUnits="userSpaceOnUse"
       gradientTransform="translate(-59.39697,1.979899)">
      <stop
         stop-color="#5200FF"
         id="stop10" />
      <stop
         offset="0.906064"
         stop-color="#0085FF"
         id="stop11" />
    </linearGradient>
    <linearGradient
       id="paint2_linear_328_683"
       x1="54"
       y1="54"
       x2="10.8713"
       y2="18.7129"
       gradientUnits="userSpaceOnUse"
       gradientTransform="translate(49.921739,-2.8284271)">
      <stop
         offset="0.377885"
         stop-color="#FF7E07"
         id="stop12" />
      <stop
         offset="1"
         stop-color="#FFE607"
         id="stop13" />
    </linearGradient>
    <linearGradient
       id="paint3_linear_328_683"
       x1="52"
       y1="54"
       x2="14.0499"
       y2="14.0526"
       gradientUnits="userSpaceOnUse"
       gradientTransform="matrix(1,0,0,0.71052632,0,12.631579)">
      <stop
         offset="0.295664"
         stop-color="#71706E"
         id="stop14" />
      <stop
         offset="1"
         stop-color="#B9AA99"
         id="stop15" />
    </linearGradient>
    <linearGradient
       id="paint4_linear_328_683"
       x1="21.75"
       y1="22"
       x2="21.75"
       y2="24"
       gradientUnits="userSpaceOnUse">
      <stop
         stop-color="white"
         id="stop16" />
      <stop
         offset="0.705"
         stop-color="#E6E6E6"
         id="stop17" />
    </linearGradient>
    <linearGradient
       id="paint5_linear_328_683"
       x1="20.5"
       y1="26"
       x2="20.5"
       y2="28"
       gradientUnits="userSpaceOnUse">
      <stop
         stop-color="white"
         id="stop18" />
      <stop
         offset="0.705"
         stop-color="#E6E6E6"
         id="stop19" />
    </linearGradient>
    <linearGradient
       id="paint6_linear_328_683"
       x1="56"
       y1="60"
       x2="31.6269"
       y2="18.2176"
       gradientUnits="userSpaceOnUse">
      <stop
         offset="0.126759"
         stop-color="#2E2E41"
         id="stop20" />
      <stop
         offset="0.877369"
         stop-color="#566C80"
         id="stop21" />
    </linearGradient>
    <linearGradient
       id="paint7_linear_328_683"
       x1="40.6957"
       y1="46"
       x2="40.6957"
       y2="42"
       gradientUnits="userSpaceOnUse">
      <stop
         offset="0.340681"
         stop-color="#2E2E41"
         id="stop22" />
      <stop
         offset="1"
         stop-color="#566C80"
         id="stop23" />
    </linearGradient>
    <linearGradient
       inkscape:collect="always"
       xlink:href="#linearGradient27"
       id="linearGradient3-2-3-6"
       gradientUnits="userSpaceOnUse"
       x1="41"
       y1="45.909904"
       x2="41"
       y2="41.909904"
       gradientTransform="translate(0,-15.909903)" />
  </defs>
  <rect
     style="opacity:0.2;fill:#4d4d4d;fill-opacity:1;stroke-width:0.48202"
     width="56"
     height="4.4542842"
     x="3.3000009"
     y="-38.372002"
     rx="7.0117254"
     ry="1.0271422"
     id="rect1-9-5" />
  <g
     id="g1">
    <g
       id="g27"
       transform="matrix(1.1666667,0,0,1.1707317,-5.3333344,-11.235773)">
      <g
         id="g6-7-4"
         transform="translate(0,-2)">
        <rect
           style="opacity:0.2;fill:#4d4d4d;fill-opacity:1;stroke-width:0.835088"
           width="48"
           height="41"
           x="8"
           y="18.943056"
           rx="6"
           ry="7.4027348"
           id="rect1-8-7" />
        <g
           id="g1-9-7-4-6"
           transform="translate(0,-1)">
          <path
             d="m 8,26 c 0,-3.3137 2.6863,-6 6,-6 h 36 c 3.3137,0 6,2.6863 6,6 v 8 H 8 Z"
             fill="url(#paint0_linear_328_683)"
             id="path1-3-5-5-5"
             style="fill:#ff5555;fill-opacity:1" />
          <path
             d="M 12,27.105173 C 12,25.535549 12.7909,24 15,24 h 34 c 2.2091,0 3,1.535549 3,3.105173 V 48.157895 C 52,49.727518 50.2091,51 48,51 H 16 c -2.2091,0 -4,-1.272482 -4,-2.842105 z"
             fill="url(#paint3_linear_328_683)"
             id="path4-6-9-0-6"
             style="fill:#e5e5e5;fill-opacity:1;stroke-width:0.842927"
             sodipodi:nodetypes="sssssssss" />
          <path
             d="m 8,34 c 0,-1.1046 0.89543,-2 2,-2 h 44 c 1.1046,0 2,0.8954 2,2 v 19 c 0,4 -3,7 -7,7 H 15 C 10.978049,60 8,57 8,53 Z"
             fill="url(#paint6_linear_328_683)"
             id="path7-0-2-3-9"
             sodipodi:nodetypes="sssssssss"
             style="fill:#ff8080;fill-opacity:1" />
          <path
             d="m 22,28.090097 c 0,-1.1046 0.8954,-2 2,-2 h 16 c 1.1046,0 2,0.8954 2,2 0,1.1046 -0.8954,2 -2,2 H 24 c -1.1046,0 -2,-0.8954 -2,-2 z"
             fill="url(#paint7_linear_328_683)"
             id="path8-6-2-6-3"
             style="fill:url(#linearGradient3-2-3-6)" />
        </g>
      </g>
      <g
         id="g25"
         transform="matrix(0.8181819,0,0,0.8181819,7.4545429,-12.45455)" />
    </g>
    <path
       style="color:#000000;clip-rule:nonzero;display:inline;overflow:visible;visibility:visible;opacity:0.2;isolation:auto;mix-blend-mode:normal;color-interpolation:sRGB;color-interpolation-filters:linearRGB;solid-color:#000000;solid-opacity:1;fill:#cccccc;fill-opacity:1;fill-rule:nonzero;stroke:none;stroke-width:1.05282;stroke-linecap:butt;stroke-linejoin:miter;stroke-miterlimit:4;stroke-dasharray:none;stroke-dashoffset:0;stroke-opacity:1;marker:none;color-rendering:auto;image-rendering:auto;shape-rendering:auto;text-rendering:auto;enable-background:accumulate"
       d="m 10.814062,8.7001162 c -0.9436204,0 -1.7257394,0.2158374 -2.5413996,0.5196773 C 7.4570011,9.5236354 6.7765438,10.071449 6.1608059,10.61554 5.5450679,11.159631 5.08588,11.819443 4.7420288,12.540197 4.3981788,13.260945 4.1720475,13.885292 4.0943899,14.715462 L 4,15.724507 C 4,14.890684 4.1898994,14.096705 4.5337494,13.375955 4.8776006,12.655204 5.3748873,12.006413 5.9906253,11.462322 6.6063632,10.918231 7.3405892,10.478808 8.1562505,10.174967 8.9719107,9.8711271 9.8704416,9.7033245 10.814062,9.7033245 h 42.37188 c 0.943611,0 1.842143,0.1678026 2.657805,0.4716425 0.815662,0.303841 1.54989,0.743264 2.165632,1.287355 0.615732,0.544091 1.113023,1.192882 1.456874,1.913633 C 59.810104,14.096705 60,14.890684 60,15.724507 L 59.90561,14.715462 C 59.82795,13.885292 59.589518,13.236505 59.245667,12.515757 58.901816,11.795004 58.455621,11.160299 57.839889,10.616207 57.224147,10.072116 56.584526,9.5414409 55.768864,9.2375991 54.953202,8.9337602 54.129553,8.7001162 53.185942,8.7001162 Z"
       id="path824-2-6"
       inkscape:connector-curvature="0"
       sodipodi:nodetypes="ssssscsssssssscssssss" />
  </g>
  <path
     d="m 32.924221,49.889542 c -1.134289,-0.190777 -2.741211,-0.858526 -3.686384,-1.478541 -2.174076,-1.430923 -3.596963,-3.022505 -4.476452,-5.008938 -0.28355,-0.667715 -0.45183,-1.144696 -0.945175,-2.861682 -0.09437,-0.429253 -0.254987,-0.910295 -0.314094,-1.060145 -0.09924,-0.252822 -0.104221,-0.338116 -0.06029,-1.181475 0.04125,-0.763143 0.189025,-1.907757 0.28348,-1.999358 0.01332,-0.02234 0.04764,-0.028 0.07282,-0.01167 0.08959,0.05257 0.171064,-0.192944 0.251781,-0.754167 0.04484,-0.307645 0.114013,-0.63004 0.154451,-0.716712 0.0406,-0.0872 0.109971,-0.277981 0.153309,-0.425044 0.09977,-0.338478 0.23707,-0.598657 0.659831,-1.255297 0.185921,-0.288758 0.37918,-0.603397 0.429498,-0.698951 0.05839,-0.112954 0.123842,-0.167674 0.183198,-0.156365 0.05658,0.01162 0.15153,-0.06179 0.250455,-0.193626 0.429762,-0.572518 2.45435,-2.26173 2.641705,-2.204084 0.05178,0.01494 0.264848,-0.05432 0.474788,-0.157662 0.379842,-0.185267 0.547147,-0.228002 0.547147,-0.140029 0,0.02634 -0.05414,0.08279 -0.121899,0.128067 -0.117887,0.07837 -0.115516,0.0796 0.06834,0.03653 0.104429,-0.02528 0.280134,-0.05851 0.390558,-0.0768 0.136621,-0.02271 0.192006,-0.05456 0.173169,-0.102705 -0.01576,-0.0416 0.02316,-0.08279 0.09689,-0.10202 0.186736,-0.04899 0.477516,-0.04011 0.477516,0.01222 0,0.06443 -0.166304,0.128987 -0.2983,0.116338 -0.0907,-0.0105 -0.09372,-6.93e-4 -0.02774,0.04393 0.06811,0.04522 0.06856,0.05394 0.0066,0.05394 -0.04238,3.45e-4 -0.06296,0.01356 -0.04676,0.03171 0.01611,0.01563 0.130163,-0.01865 0.251302,-0.0785 0.121101,-0.05924 0.343155,-0.134343 0.493229,-0.165458 0.184768,-0.03753 0.272824,-0.08269 0.272824,-0.137935 0,-0.07158 0.08634,-0.07589 0.664156,-0.04725 0.365359,0.01865 0.916635,0.07379 1.225067,0.123134 0.56071,0.08937 0.560752,0.08937 0.769759,-0.02853 0.250602,-0.139709 0.653836,-0.157843 0.759784,-0.03334 0.03813,0.04592 0.145418,0.119766 0.237069,0.165625 0.149485,0.07417 0.159346,0.0744 0.0954,0.0012 -0.120047,-0.14012 -0.0012,-0.136616 0.462529,0.01296 1.494038,0.484563 2.711955,1.347596 3.615692,2.562038 0.214309,0.288058 0.227377,0.417534 0.02506,0.242293 l -0.11616,-0.09964 0.08923,0.168045 c 0.04954,0.09353 0.08948,0.196399 0.08948,0.230796 0,0.0337 0.143688,0.289729 0.319321,0.567101 0.395788,0.625208 0.506441,0.835721 0.479851,0.912963 -0.01159,0.03221 -0.186642,-0.187074 -0.389561,-0.48928 -0.202878,-0.30215 -0.503191,-0.709403 -0.667236,-0.904807 -0.244983,-0.291863 -0.309142,-0.341785 -0.359141,-0.27933 -0.03283,0.04172 -0.115276,0.08332 -0.181699,0.09293 l -0.120859,0.01603 0.11957,0.226931 c 0.06644,0.124859 0.128229,0.201607 0.138917,0.170637 0.0567,-0.165732 0.322731,0.05233 0.443555,0.363897 0.0386,0.100499 0.143302,0.309215 0.231401,0.462529 0.08879,0.153342 0.149159,0.289559 0.135549,0.302649 -0.01276,0.01222 -0.09371,-0.02985 -0.178543,-0.09361 l -0.153889,-0.11721 0.105077,0.174486 c 0.05716,0.095 0.154344,0.213323 0.214755,0.26087 0.07449,0.05851 0.111583,0.15298 0.11482,0.298577 0.009,0.268857 0.165307,0.586492 0.25171,0.502781 0.134791,-0.130525 0.162437,-0.04961 0.128576,0.378382 -0.02584,0.314812 -0.01162,0.52225 0.04798,0.742496 0.09069,0.334505 0.0713,0.41701 -0.06066,0.260702 -0.08376,-0.09919 -0.08478,-0.09884 -0.04763,0.0048 0.07972,0.221182 0.140328,0.551888 0.123627,0.681747 -0.03079,0.242316 -0.125085,0.141601 -0.15733,-0.168713 l -0.03108,-0.30298 -0.01163,0.322325 c -0.0066,0.177333 -0.04866,0.520004 -0.09497,0.761435 -0.04866,0.243939 -0.07292,0.539341 -0.05402,0.66483 0.032,0.236116 0.01163,0.245289 -0.194124,0.07517 -0.08278,-0.06936 -0.09678,-0.05419 -0.154159,0.149978 -0.04854,0.172367 -0.04808,0.270412 0.0022,0.414774 0.03489,0.103976 0.05548,0.245102 0.04662,0.313427 -0.02436,0.157862 -0.1543,0.207077 -0.1543,0.05738 0,-0.187167 -0.07321,-0.120527 -0.298126,0.270209 -0.606768,1.055134 -1.566814,1.871739 -2.653275,2.256891 -0.640638,0.227113 -1.070243,0.311312 -1.792653,0.351354 l -0.650572,0.03543 0.321414,0.09535 c 0.25927,0.0768 0.411394,0.08938 0.786111,0.05899 0.490972,-0.03764 1.067408,-0.141563 1.328781,-0.237831 0.104437,-0.03764 0.174777,-0.03973 0.21087,-0.0075 0.08534,0.08195 -0.67007,0.405948 -1.118346,0.479274 -0.762716,0.124832 -1.783566,-0.01165 -2.68475,-0.354634 -0.611423,-0.233807 -1.518776,-0.842716 -1.379731,-0.925866 0.02674,-0.01516 0.198937,0.06404 0.383611,0.176861 0.235919,0.144562 0.335661,0.182588 0.335661,0.128156 0,-0.102589 0.03422,-0.09744 0.222449,0.03134 0.169301,0.116708 0.69015,0.333624 1.065294,0.44351 0.408853,0.11976 0.250261,-0.02615 -0.298242,-0.273105 -1.734483,-0.783132 -2.45452,-1.566396 -2.813356,-3.060407 -0.131596,-0.547874 0.0116,-1.748949 0.24939,-2.125077 0.06054,-0.09477 0.110888,-0.21252 0.110888,-0.260497 0,-0.208079 0.358314,-0.757901 0.725924,-1.11395 0.647877,-0.627391 1.321392,-0.887874 2.195739,-0.849094 0.422678,0.01828 0.603186,0.05394 0.954946,0.190387 0.398902,0.153871 0.901378,0.47602 0.747512,0.479324 -0.03556,6.93e-4 -0.194842,-0.05135 -0.352458,-0.114473 -0.239687,-0.09594 -0.39332,-0.116103 -0.937206,-0.118128 -0.763818,-0.0037 -1.137212,0.101627 -1.680862,0.472497 -0.770608,0.525175 -1.199206,1.130055 -1.350984,1.906891 -0.101586,0.521214 -0.104973,0.665694 -0.02648,1.182719 0.04662,0.297968 0.07774,0.3854 0.135581,0.364158 0.04876,-0.01716 0.07438,0.0105 0.07438,0.07283 0,0.184683 0.41486,0.933743 0.702657,1.268577 0.692465,0.805984 1.812773,1.320367 2.875678,1.320367 0.551715,0 0.997669,-0.102244 1.408117,-0.323809 0.164885,-0.08948 0.372945,-0.197476 0.462404,-0.241417 0.315656,-0.15497 0.511466,-0.331928 0.740406,-0.669215 0.127246,-0.187471 0.265695,-0.340867 0.307516,-0.340867 0.06174,0 0.05844,0.02765 -0.01363,0.144463 -0.241979,0.38677 0.32601,-0.316553 0.620067,-0.76791 l 0.32943,-0.505478 -0.03535,-0.332064 c -0.03378,-0.319091 -0.02987,-0.338559 0.128184,-0.498781 0.151835,-0.15437 0.165414,-0.200054 0.182954,-0.612626 0.01522,-0.369224 0.0066,-0.445883 -0.06242,-0.446301 -0.0626,-3.44e-4 -0.09004,-0.09698 -0.116368,-0.420589 -0.03508,-0.427399 -0.394991,-1.865689 -0.478652,-1.91574 -0.02584,-0.01459 -0.09475,-0.153435 -0.1557,-0.307334 -0.203803,-0.519449 -0.561308,-1.018915 -1.1186,-1.563058 -0.801953,-0.782923 -1.812128,-1.387478 -2.766394,-1.655589 -0.81167,-0.228007 -2.189978,-0.145252 -3.171707,0.190505 -0.479179,0.163844 -0.951264,0.380781 -1.030927,0.47373 -0.03546,0.04221 -0.08915,0.06306 -0.116465,0.04714 -0.02988,-0.0168 -0.02138,-0.06505 0.0189,-0.112262 0.18085,-0.211065 -0.41933,0.17522 -0.805682,0.518532 -0.233573,0.207558 -0.433212,0.383708 -0.443625,0.39142 -0.01164,0.0099 0.03444,3.48e-4 0.100588,-0.01565 0.110095,-0.02844 0.114365,-0.02023 0.0541,0.08813 -0.03736,0.06961 -0.236894,0.19323 -0.480553,0.300281 -0.409289,0.179805 -0.674093,0.377462 -0.88447,0.660204 -0.08404,0.113193 -0.08938,0.137261 -0.0227,0.112846 0.04754,-0.01655 0.08511,-0.0086 0.08511,0.02481 0,0.150016 -0.140583,0.317408 -0.349006,0.415434 -0.461683,0.217282 -1.272856,1.377663 -1.707389,2.442662 -0.193623,0.474563 -0.190449,0.458074 -0.08579,0.458074 0.111245,0 0.103192,0.122071 -0.04999,0.777647 -0.221984,0.954981 -0.222265,0.924387 0.01924,2.267886 0.294592,1.636932 0.466752,2.183748 0.793925,2.522574 0.07606,0.07869 0.151421,0.248517 0.184687,0.418407 0.03926,0.202812 0.106617,0.336659 0.231193,0.464072 0.113774,0.116107 0.151696,0.187328 0.108237,0.202785 -0.08624,0.03097 0.182684,0.417894 0.427568,0.61748 0.123212,0.09993 0.214552,0.134152 0.313478,0.115754 0.216742,-0.03974 0.437445,0.08009 0.776613,0.425485 0.352472,0.358239 0.387775,0.454509 0.154546,0.421384 -0.150444,-0.02147 -0.153888,-0.01664 -0.0792,0.09304 0.04284,0.06295 0.199656,0.214249 0.349163,0.336218 0.209901,0.171418 0.263948,0.245554 0.237495,0.325868 -0.03714,0.115631 0.07112,0.223511 0.314591,0.314025 0.151568,0.05541 0.200475,0.177106 0.08699,0.21398 -0.03367,0.01163 0.178971,0.223883 0.47442,0.472871 0.332875,0.280457 0.556694,0.434266 0.588685,0.404163 0.08456,-0.07861 0.19222,-0.05419 0.194186,0.04369 0.0022,0.107713 0.09743,0.220493 0.442109,0.521797 0.217516,0.190376 0.271779,0.2144 0.405093,0.178847 0.122213,-0.03253 0.19903,-0.01165 0.370936,0.100385 0.343046,0.224622 0.551075,0.314232 0.729311,0.314232 0.175201,0 0.200168,0.04938 0.109404,0.213532 -0.04888,0.08789 -0.03712,0.101058 0.07292,0.101058 0.07168,0 0.270785,0.04789 0.444169,0.105032 0.394023,0.131351 0.558439,0.14026 0.45977,0.0258 -0.145928,-0.170253 0.01062,-0.123738 0.530174,0.159413 0.728527,0.395725 1.097062,0.440861 2.547804,0.312505 0.214726,-0.0185 0.284612,-0.0099 0.284612,0.04592 0,0.0464 -0.186387,0.11424 -0.528623,0.194144 -0.449953,0.105502 -0.69009,0.125857 -1.613002,0.136999 -0.727233,0.0105 -1.224061,-0.01163 -1.508393,-0.05761 z m -0.741629,-7.871645 c 0,-0.01165 -0.06778,-0.05913 -0.149135,-0.108298 l -0.149073,-0.08875 0.12796,0.108288 c 0.124906,0.105616 0.170248,0.12894 0.170248,0.08848 z m 7.464891,-5.503059 c -0.01644,-0.04184 -0.03042,-0.03 -0.03188,0.03134 -0.0034,0.05443 0.01161,0.08689 0.0293,0.0696 0.01744,-0.01664 0.0198,-0.0627 0.0044,-0.100154 z M 27.343666,31.007777 c 0.068,-0.08309 0.06622,-0.08542 -0.02036,-0.01963 -0.05206,0.03912 -0.09436,0.08035 -0.09436,0.0928 0,0.04345 0.0452,0.01494 0.115283,-0.07231 z m 0.616544,-0.485772 c 0.05392,-0.05727 0.08646,-0.105036 0.07213,-0.105036 -0.01442,0 -0.07213,0.04802 -0.125298,0.105036 -0.05312,0.05727 -0.08646,0.105026 -0.07158,0.105026 0.01443,0 0.07214,-0.04789 0.125232,-0.105026 z m 0.682517,-0.369066 c 0.178787,-0.05778 0.280358,-0.06962 0.317991,-0.03252 0.03701,0.03604 0.177462,0.01432 0.437797,-0.0684 0.210342,-0.06763 0.372797,-0.130803 0.361082,-0.142236 -0.01175,-0.01164 -0.185051,0.03186 -0.384916,0.09594 -0.274519,0.08939 -0.373338,0.101627 -0.403885,0.05344 -0.05179,-0.08046 -0.54506,0.07812 -0.75718,0.245253 l -0.144961,0.114008 0.155778,-0.09119 c 0.08615,-0.05071 0.273933,-0.129321 0.418294,-0.176662 z m 1.56303,-0.133392 c 0.157538,-0.04603 0.276897,-0.09233 0.265562,-0.102257 -0.02629,-0.02528 -0.586254,0.131119 -0.586254,0.162687 0,0.03171 0.0066,0.03062 0.320692,-0.05937 z m 0.899113,-0.286173 0.216935,-0.03753 -0.189798,-0.0062 c -0.104439,-0.0037 -0.250697,0.03124 -0.325233,0.07504 -0.08846,0.05222 -0.0969,0.06814 -0.02774,0.04321 0.05894,-0.02049 0.206017,-0.05381 0.325303,-0.07479 z m 0.430635,-0.09873 c 0.01595,-0.02666 -0.01798,-0.03454 -0.07749,-0.01994 -0.126655,0.03196 -0.142718,0.06839 -0.03081,0.06839 0.0434,0 0.09216,-0.02159 0.108691,-0.0485 z m 1.75056,0.01531 c -0.01744,-0.01665 -0.0652,-0.0189 -0.103914,-0.0048 -0.04366,0.01584 -0.03042,0.02975 0.03254,0.0316 0.05658,0.0025 0.08969,-0.01166 0.0713,-0.02827 z m -0.324136,-0.0564 c -0.05224,-0.01222 -0.13761,-0.01222 -0.189808,0 -0.05225,0.01234 -0.01159,0.02471 0.09463,0.02471 0.104436,0 0.147035,-0.01162 0.09414,-0.02471 z m -0.540717,-0.05343 c -0.111356,-0.01163 -0.306252,-0.01163 -0.433845,-3.43e-4 -0.127427,0.01161 -0.03601,0.02014 0.201904,0.02035 0.238627,1.71e-4 0.342922,-0.0105 0.231941,-0.01994 z m -0.707438,-0.04701 c -0.01744,-0.01665 -0.0652,-0.01901 -0.103911,-0.0048 -0.04363,0.01583 -0.03082,0.03022 0.0321,0.03134 0.05658,0.0025 0.08991,-0.01166 0.0718,-0.02826 z M 31.34674,42.114103 c -0.552221,-0.383239 -0.756818,-0.581467 -0.756818,-0.733256 0,-0.07974 0.01834,-0.146421 0.04172,-0.146421 0.07728,0 1.001464,0.933407 0.9812,0.992052 -0.01159,0.03294 -0.123111,-0.01212 -0.266129,-0.112605 z m -0.284155,-0.973004 c -0.28681,-0.280702 -0.378722,-0.431717 -0.262789,-0.431717 0.07046,0 0.603336,0.591808 0.603336,0.669093 0,0.03567 -0.009,0.06677 -0.01466,0.06677 -0.01062,0 -0.154704,-0.136536 -0.325239,-0.303367 z M 34.236059,39.992 c -0.151413,-0.05826 -0.05639,-0.168867 0.189777,-0.220015 0.141637,-0.03055 0.366666,-0.100387 0.500141,-0.158875 0.133509,-0.05727 0.252371,-0.09535 0.264084,-0.08466 0.01187,0.01161 -0.04944,0.128109 -0.134197,0.25929 -0.154707,0.237127 -0.157457,0.238619 -0.45382,0.234609 -0.164043,-0.0025 -0.328725,-0.01479 -0.365985,-0.03087 z m 1.626502,-1.17462 c -0.146317,-0.05641 -0.152437,-0.15386 -0.03042,-0.483979 0.10496,-0.283609 0.213803,-0.339571 0.153218,-0.07836 -0.02213,0.09394 -0.051,0.229843 -0.06508,0.301968 l -0.02594,0.131352 0.108584,-0.1195 c 0.06454,-0.07159 0.123416,-0.23673 0.145354,-0.406448 0.0202,-0.157769 0.05782,-0.27381 0.08555,-0.258114 0.06778,0.03974 0.05938,0.455379 -0.01187,0.734516 -0.06365,0.243799 -0.120467,0.272267 -0.359589,0.179078 z M 23.03222,38.158324 C 23.01479,38.111794 23,37.933446 23,37.76021 c 0,-0.228724 0.01803,-0.309192 0.06852,-0.293478 0.07986,0.02666 0.127875,0.774708 0.04974,0.774708 -0.0288,0 -0.06632,-0.03669 -0.08385,-0.08287 z m 13.043366,-1.228136 c -0.08443,-0.110625 -0.110422,-0.197486 -0.087,-0.289661 0.04999,-0.189397 0.17743,-0.162515 0.272181,0.05641 0.147267,0.341347 0.01923,0.50144 -0.18588,0.232503 z M 23.02113,36.096753 c -0.0048,-0.29777 -3.5e-5,-0.307002 0.136001,-0.301954 0.115401,0.0048 0.143287,0.03308 0.156518,0.165528 0.01442,0.148608 -0.151909,0.443508 -0.250977,0.443508 -0.02036,0 -0.03871,-0.138323 -0.04153,-0.307082 z M 37.075064,29.64157 c 0.01012,-0.469915 0.08991,-0.629095 0.153014,-0.300148 0.04507,0.229266 -0.01159,0.634066 -0.09775,0.70338 -0.04742,0.03672 -0.06038,-0.06529 -0.05411,-0.403232 z M 29.950938,29.360094 C 29.973038,29.296684 30.720625,29 30.858573,29 c 0.162131,0 -0.128631,0.19225 -0.464033,0.307047 -0.374014,0.127752 -0.473531,0.139571 -0.443602,0.05308 z"
     id="path7225-4-2-3"
     style="fill:#2e2e41;fill-opacity:1;stroke-width:1.0562" />
</svg>
