<?xml version="1.0" encoding="UTF-8" standalone="no"?>
<svg
   width="64"
   height="64"
   viewBox="0 0 64 64"
   fill="none"
   version="1.1"
   id="svg23"
   sodipodi:docname="folder-github.svg"
   inkscape:version="1.4.2 (unknown)"
   xmlns:inkscape="http://www.inkscape.org/namespaces/inkscape"
   xmlns:sodipodi="http://sodipodi.sourceforge.net/DTD/sodipodi-0.dtd"
   xmlns:xlink="http://www.w3.org/1999/xlink"
   xmlns="http://www.w3.org/2000/svg"
   xmlns:svg="http://www.w3.org/2000/svg">
  <sodipodi:namedview
     id="namedview23"
     pagecolor="#ffffff"
     bordercolor="#000000"
     borderopacity="0.25"
     inkscape:showpageshadow="2"
     inkscape:pageopacity="0.0"
     inkscape:pagecheckerboard="0"
     inkscape:deskcolor="#d1d1d1"
     inkscape:zoom="11.313709"
     inkscape:cx="35.48792"
     inkscape:cy="39.377007"
     inkscape:window-width="1920"
     inkscape:window-height="1000"
     inkscape:window-x="0"
     inkscape:window-y="0"
     inkscape:window-maximized="1"
     inkscape:current-layer="svg23"
     showgrid="false">
    <inkscape:grid
       id="grid1"
       units="px"
       originx="0"
       originy="0"
       spacingx="1"
       spacingy="1"
       empcolor="#0099e5"
       empopacity="0.30196078"
       color="#0099e5"
       opacity="0.14901961"
       empspacing="5"
       enabled="true"
       visible="false" />
  </sodipodi:namedview>
  <defs
     id="defs23">
    <linearGradient
       id="linearGradient27"
       x1="40.6957"
       y1="46"
       x2="40.6957"
       y2="42"
       gradientUnits="userSpaceOnUse">
      <stop
         offset="0.34068099"
         stop-color="#2E2E41"
         id="stop26"
         style="stop-color:#88c0d0;stop-opacity:1;" />
      <stop
         offset="1"
         stop-color="#566C80"
         id="stop27"
         style="stop-color:#0f2126;stop-opacity:1;" />
    </linearGradient>
    <linearGradient
       id="linearGradient25"
       x1="56"
       y1="34"
       x2="48.4736"
       y2="8.1952"
       gradientUnits="userSpaceOnUse">
      <stop
         stop-color="#2E2E41"
         id="stop24"
         offset="0"
         style="stop-color:#4a7ab5;stop-opacity:1;" />
      <stop
         offset="1"
         stop-color="#566C80"
         id="stop25"
         style="stop-color:#4a7ab5;stop-opacity:1;" />
    </linearGradient>
    <linearGradient
       id="linearGradient7"
       x1="56"
       y1="60"
       x2="31.6269"
       y2="18.2176"
       gradientUnits="userSpaceOnUse">
      <stop
         offset="0.12675899"
         stop-color="#2E2E41"
         id="stop6"
         style="stop-color:#5294e2;stop-opacity:1;" />
      <stop
         offset="0.87736899"
         stop-color="#566C80"
         id="stop7"
         style="stop-color:#5294e2;stop-opacity:1;" />
    </linearGradient>
    <linearGradient
       id="paint0_linear_328_683"
       x1="56"
       y1="34"
       x2="48.4736"
       y2="8.1952"
       gradientUnits="userSpaceOnUse">
      <stop
         stop-color="#2E2E41"
         id="stop8" />
      <stop
         offset="1"
         stop-color="#566C80"
         id="stop9" />
    </linearGradient>
    <linearGradient
       id="paint1_linear_328_683"
       x1="50"
       y1="54"
       x2="1.21951"
       y2="14.9756"
       gradientUnits="userSpaceOnUse"
       gradientTransform="translate(-59.39697,1.979899)">
      <stop
         stop-color="#5200FF"
         id="stop10" />
      <stop
         offset="0.906064"
         stop-color="#0085FF"
         id="stop11" />
    </linearGradient>
    <linearGradient
       id="paint2_linear_328_683"
       x1="54"
       y1="54"
       x2="10.8713"
       y2="18.7129"
       gradientUnits="userSpaceOnUse"
       gradientTransform="translate(49.921739,-2.8284271)">
      <stop
         offset="0.377885"
         stop-color="#FF7E07"
         id="stop12" />
      <stop
         offset="1"
         stop-color="#FFE607"
         id="stop13" />
    </linearGradient>
    <linearGradient
       id="paint3_linear_328_683"
       x1="52"
       y1="54"
       x2="14.0499"
       y2="14.0526"
       gradientUnits="userSpaceOnUse"
       gradientTransform="matrix(1,0,0,0.71052632,0,12.631579)">
      <stop
         offset="0.295664"
         stop-color="#71706E"
         id="stop14" />
      <stop
         offset="1"
         stop-color="#B9AA99"
         id="stop15" />
    </linearGradient>
    <linearGradient
       id="paint4_linear_328_683"
       x1="21.75"
       y1="22"
       x2="21.75"
       y2="24"
       gradientUnits="userSpaceOnUse">
      <stop
         stop-color="white"
         id="stop16" />
      <stop
         offset="0.705"
         stop-color="#E6E6E6"
         id="stop17" />
    </linearGradient>
    <linearGradient
       id="paint5_linear_328_683"
       x1="20.5"
       y1="26"
       x2="20.5"
       y2="28"
       gradientUnits="userSpaceOnUse">
      <stop
         stop-color="white"
         id="stop18" />
      <stop
         offset="0.705"
         stop-color="#E6E6E6"
         id="stop19" />
    </linearGradient>
    <linearGradient
       id="paint6_linear_328_683"
       x1="56"
       y1="60"
       x2="31.6269"
       y2="18.2176"
       gradientUnits="userSpaceOnUse">
      <stop
         offset="0.126759"
         stop-color="#2E2E41"
         id="stop20" />
      <stop
         offset="0.877369"
         stop-color="#566C80"
         id="stop21" />
    </linearGradient>
    <linearGradient
       id="paint7_linear_328_683"
       x1="40.6957"
       y1="46"
       x2="40.6957"
       y2="42"
       gradientUnits="userSpaceOnUse">
      <stop
         offset="0.340681"
         stop-color="#2E2E41"
         id="stop22" />
      <stop
         offset="1"
         stop-color="#566C80"
         id="stop23" />
    </linearGradient>
    <linearGradient
       inkscape:collect="always"
       xlink:href="#linearGradient27"
       id="linearGradient3-2-3-6"
       gradientUnits="userSpaceOnUse"
       x1="41"
       y1="45.909904"
       x2="41"
       y2="41.909904"
       gradientTransform="translate(0,-15.909903)" />
  </defs>
  <rect
     style="opacity:0.2;fill:#4d4d4d;fill-opacity:1;stroke-width:0.48202"
     width="56"
     height="4.4542842"
     x="3.3000009"
     y="-38.372002"
     rx="7.0117254"
     ry="1.0271422"
     id="rect1-9-5" />
  <g
     id="g1">
    <g
       id="g27"
       transform="matrix(1.1666667,0,0,1.1707317,-5.3333344,-11.235773)">
      <g
         id="g6-7-4"
         transform="translate(0,-2)">
        <rect
           style="opacity:0.2;fill:#4d4d4d;fill-opacity:1;stroke-width:0.835088"
           width="48"
           height="41"
           x="8"
           y="18.943056"
           rx="6"
           ry="7.4027348"
           id="rect1-8-7" />
        <g
           id="g1-9-7-4-6"
           transform="translate(0,-1)">
          <path
             d="m 8,26 c 0,-3.3137 2.6863,-6 6,-6 h 36 c 3.3137,0 6,2.6863 6,6 v 8 H 8 Z"
             fill="url(#paint0_linear_328_683)"
             id="path1-3-5-5-5"
             style="fill:#418fa5;fill-opacity:1" />
          <path
             d="M 12,27.105173 C 12,25.535549 12.7909,24 15,24 h 34 c 2.2091,0 3,1.535549 3,3.105173 V 48.157895 C 52,49.727518 50.2091,51 48,51 H 16 c -2.2091,0 -4,-1.272482 -4,-2.842105 z"
             fill="url(#paint3_linear_328_683)"
             id="path4-6-9-0-6"
             style="fill:#e5e5e5;fill-opacity:1;stroke-width:0.842927"
             sodipodi:nodetypes="sssssssss" />
          <path
             d="m 8,34 c 0,-1.1046 0.89543,-2 2,-2 h 44 c 1.1046,0 2,0.8954 2,2 v 19 c 0,4 -3,7 -7,7 H 15 C 10.978049,60 8,57 8,53 Z"
             fill="url(#paint6_linear_328_683)"
             id="path7-0-2-3-9"
             sodipodi:nodetypes="sssssssss"
             style="fill:#5aa8be;fill-opacity:1" />
          <path
             d="m 22,28.090097 c 0,-1.1046 0.8954,-2 2,-2 h 16 c 1.1046,0 2,0.8954 2,2 0,1.1046 -0.8954,2 -2,2 H 24 c -1.1046,0 -2,-0.8954 -2,-2 z"
             fill="url(#paint7_linear_328_683)"
             id="path8-6-2-6-3"
             style="fill:url(#linearGradient3-2-3-6)" />
        </g>
      </g>
      <g
         id="g25"
         transform="matrix(0.8181819,0,0,0.8181819,7.4545429,-12.45455)" />
    </g>
    <path
       style="color:#000000;clip-rule:nonzero;display:inline;overflow:visible;visibility:visible;opacity:0.2;isolation:auto;mix-blend-mode:normal;color-interpolation:sRGB;color-interpolation-filters:linearRGB;solid-color:#000000;solid-opacity:1;fill:#cccccc;fill-opacity:1;fill-rule:nonzero;stroke:none;stroke-width:1.05282;stroke-linecap:butt;stroke-linejoin:miter;stroke-miterlimit:4;stroke-dasharray:none;stroke-dashoffset:0;stroke-opacity:1;marker:none;color-rendering:auto;image-rendering:auto;shape-rendering:auto;text-rendering:auto;enable-background:accumulate"
       d="m 10.814062,8.7001162 c -0.9436204,0 -1.7257394,0.2158374 -2.5413996,0.5196773 C 7.4570011,9.5236354 6.7765438,10.071449 6.1608059,10.61554 5.5450679,11.159631 5.08588,11.819443 4.7420288,12.540197 4.3981788,13.260945 4.1720475,13.885292 4.0943899,14.715462 L 4,15.724507 C 4,14.890684 4.1898994,14.096705 4.5337494,13.375955 4.8776006,12.655204 5.3748873,12.006413 5.9906253,11.462322 6.6063632,10.918231 7.3405892,10.478808 8.1562505,10.174967 8.9719107,9.8711271 9.8704416,9.7033245 10.814062,9.7033245 h 42.37188 c 0.943611,0 1.842143,0.1678026 2.657805,0.4716425 0.815662,0.303841 1.54989,0.743264 2.165632,1.287355 0.615732,0.544091 1.113023,1.192882 1.456874,1.913633 C 59.810104,14.096705 60,14.890684 60,15.724507 L 59.90561,14.715462 C 59.82795,13.885292 59.589518,13.236505 59.245667,12.515757 58.901816,11.795004 58.455621,11.160299 57.839889,10.616207 57.224147,10.072116 56.584526,9.5414409 55.768864,9.2375991 54.953202,8.9337602 54.129553,8.7001162 53.185942,8.7001162 Z"
       id="path824-2-6"
       inkscape:connector-curvature="0"
       sodipodi:nodetypes="ssssscsssssssscssssss" />
  </g>
  <path
     d="m 28.302105,49.990544 a 0.87732044,0.89136051 0 0 0 0.534725,-0.260299 0.86451244,0.87834762 0 0 0 0.240133,-0.452133 c 0.01919,-0.09761 0.02254,-0.205001 0.01919,-1.171185 v -0.953089 l -0.633969,-8.53e-4 a 35.230518,35.794312 0 0 1 -0.774858,-0.0169 5.7826316,5.8751752 0 0 1 -0.627576,-0.08146 c -0.723647,-0.14064 -1.290381,-0.41391 -1.697029,-0.817291 a 2.2573394,2.293464 0 0 1 -0.550742,-0.914539 3.9255288,3.9883487 0 0 0 -0.973384,-1.541942 6.8552644,6.9649707 0 0 0 -0.672381,-0.595318 c -0.332973,-0.273764 -0.416217,-0.368133 -0.416217,-0.452683 0,-0.05548 0.0385,-0.09757 0.150483,-0.149628 a 0.99899296,1.0149797 0 0 1 0.493097,-0.100817 1.6009507,1.6265702 0 0 1 0.691617,0.198423 c 0.294569,0.152909 0.59875,0.387138 0.918948,0.705947 0.195308,0.195185 0.336187,0.354542 0.55712,0.63432 0.6724,0.845836 1.098258,1.164698 1.709809,1.268707 0.179317,0.03313 0.256158,0.03973 0.569942,0.03973 a 3.5220899,3.5784539 0 0 0 0.553932,-0.02884 2.3117715,2.3487665 0 0 0 0.64679,-0.162577 l 0.05437,-0.02571 0.0023,-0.110584 a 2.2541373,2.2902106 0 0 1 0.986244,-1.851125 c 0,0 -0.0126,-8.54e-4 -0.03215,-8.54e-4 a 14.549432,14.782275 0 0 1 -0.496296,-0.09154 8.5042474,8.6403351 0 0 1 -2.971345,-1.15481 5.3631796,5.4490094 0 0 1 -1.25835,-1.132116 5.1486576,5.2310547 0 0 1 -1.09185,-2.719636 8.1744496,8.3052697 0 0 1 -0.01277,-1.724126 c 0.121672,-1.311043 0.534711,-2.439836 1.242337,-3.415827 0.01274,-0.01654 0.01274,-0.01654 -0.01919,-0.139865 a 6.7944291,6.9031607 0 0 1 0.06396,-3.715351 l 0.01276,-0.04886 h 0.115282 c 0.480273,0.0023 1.104652,0.149651 1.703401,0.393637 a 6.9705328,7.0820811 0 0 1 1.738632,1.034493 11.491621,11.675521 0 0 1 2.491097,-0.481447 c 0.377807,-0.03245 0.653187,-0.04222 1.10143,-0.04222 a 12.007121,12.199278 0 0 1 3.490059,0.487948 l 0.105681,0.03253 0.09601,-0.07151 c 0.131294,-0.107331 0.224154,-0.175639 0.39066,-0.286272 0.947753,-0.644115 2.042794,-1.040996 2.945722,-1.070272 L 39.821889,29 l 0.01,0.03573 0.03517,0.139882 a 6.9225055,7.0332914 0 0 1 0.01585,3.646741 6.2212935,6.3208497 0 0 1 1.079,2.16983 c 0.17289,0.608368 0.262591,1.219897 0.285076,1.945459 0.0202,0.728611 -0.06123,1.4183 -0.236961,2.036409 a 4.9021063,4.9805582 0 0 1 -1.472896,2.371572 c -0.800474,0.715631 -1.821859,1.229629 -3.115426,1.567983 a 12.756367,12.960508 0 0 1 -1.152646,0.240606 c -8.43e-4,4.11e-4 0.02259,0.02559 0.05757,0.05559 a 2.3694053,2.4073228 0 0 1 0.608314,0.683122 c 0.128054,0.227681 0.230535,0.504202 0.272147,0.77096 0.03517,0.208196 0.03182,0.0216 0.03859,2.381332 0,2.016934 0,2.163258 0.01263,2.212122 a 0.9093396,0.92389181 0 0 0 0.140872,0.351388 0.91254135,0.92714471 0 0 0 0.656365,0.390435 C 37.081214,49.999561 35.108706,50 32.668887,50 c -3.634181,0 -4.418639,0 -4.367413,-0.01005 z"
     id="path6-6-3"
     style="fill:#2e2e41;fill-opacity:1;stroke-width:1.03888" />
</svg>
