
<svg xmlns="http://www.w3.org/2000/svg" xmlns:xlink="http://www.w3.org/1999/xlink" width="16px" height="16px" viewBox="0 0 16 16" version="1.1">
<g id="surface1">
<path style=" stroke:none;fill-rule:nonzero;fill:#aaaaaa;fill-opacity:1;" d="M 8 1 C 4.128906 1 1 4.128906 1 8 C 1 11.859375 4.128906 15 8 15 C 11.871094 15 15 11.859375 15 8 C 15 4.128906 11.871094 1 8 1 Z M 5 5 C 5.550781 5 6 5.449219 6 6 C 6 6.550781 5.550781 7 5 7 C 4.449219 7 4 6.550781 4 6 C 4 5.449219 4.449219 5 5 5 Z M 11 5 C 11.550781 5 12 5.449219 12 6 C 12 6.550781 11.550781 7 11 7 C 10.449219 7 10 6.550781 10 6 C 10 5.449219 10.449219 5 11 5 Z M 5.171875 9.828125 C 5.921875 10.578125 6.941406 11 8 11 C 9.058594 11 10.078125 10.578125 10.828125 9.828125 L 11.53125 10.53125 C 11.089844 10.980469 10.570312 11.320312 10 11.570312 L 10 12.25 C 10 13.171875 9.328125 13.929688 8.5 13.929688 C 7.671875 13.929688 7 13.171875 7 12.25 L 7 11.898438 C 6.050781 11.699219 5.160156 11.230469 4.46875 10.53125 Z M 9.738281 11.671875 C 9.511719 11.761719 9.269531 11.839844 9.03125 11.890625 C 9.269531 11.839844 9.511719 11.761719 9.738281 11.671875 Z M 7.070312 11.910156 C 7.378906 11.96875 7.691406 12 8 12 C 7.691406 12 7.378906 11.96875 7.070312 11.910156 Z M 8 12 C 8.300781 12 8.589844 11.96875 8.878906 11.910156 C 8.589844 11.960938 8.300781 12 8 12 Z M 8 12 "/>
</g>
</svg>
