
<svg xmlns="http://www.w3.org/2000/svg" xmlns:xlink="http://www.w3.org/1999/xlink" width="16px" height="16px" viewBox="0 0 16 16" version="1.1">
<g id="surface1">
<path style=" stroke:none;fill-rule:nonzero;fill:#aaaaaa;fill-opacity:1;" d="M 7.839844 0.0585938 C 6.609375 0.789062 6.78125 1.691406 6.929688 2.089844 C 5.128906 2.359375 3.390625 3.398438 2.808594 5.28125 C 2.53125 5.070312 2.21875 4.929688 1.871094 4.929688 C 0.839844 4.929688 0 6.019531 0 7.308594 C 0 8.601562 0.839844 9.648438 1.871094 9.648438 C 2.339844 9.648438 2.761719 9.441406 3.089844 9.089844 C 5.808594 7.820312 10.179688 7.621094 12.96875 9.121094 C 13.28125 9.441406 13.679688 9.648438 14.121094 9.648438 C 15.160156 9.648438 16 8.601562 16 7.308594 C 16 6.019531 15.160156 4.929688 14.121094 4.929688 C 13.691406 4.929688 13.308594 5.128906 13 5.429688 C 12.488281 3.730469 11.160156 2.519531 9.179688 2.148438 C 9.011719 1.511719 8.898438 0.238281 10.808594 0.371094 C 8.640625 -0.421875 8.089844 2 8.089844 2 C 7.820312 1.878906 7.121094 1.359375 7.839844 0.0585938 Z M 6 5 C 6.550781 5 7 5.449219 7 6 C 7 6.550781 6.550781 7 6 7 C 5.449219 7 5 6.550781 5 6 C 5 5.449219 5.449219 5 6 5 Z M 10 5 C 10.550781 5 11 5.449219 11 6 C 11 6.550781 10.550781 7 10 7 C 9.449219 7 9 6.550781 9 6 C 9 5.449219 9.449219 5 10 5 Z M 2 6 C 2.25 6 2.46875 6.148438 2.648438 6.339844 C 2.621094 6.871094 2.628906 7.460938 2.78125 8.089844 C 2.589844 8.378906 2.328125 8.589844 2 8.589844 C 1.421875 8.589844 0.96875 8.019531 0.96875 7.308594 C 0.96875 6.589844 1.421875 6 2 6 Z M 14.03125 6 C 14.601562 6 15.089844 6.589844 15.089844 7.308594 C 15.089844 8.019531 14.601562 8.589844 14.03125 8.589844 C 13.660156 8.589844 13.371094 8.328125 13.179688 7.960938 C 13.238281 7.480469 13.21875 7.03125 13.179688 6.589844 C 13.371094 6.238281 13.671875 6 14.03125 6 Z M 14.03125 6 "/>
<path style=" stroke:none;fill-rule:nonzero;fill:#aaaaaa;fill-opacity:1;" d="M 8 9 C 4.691406 9 2 10.351562 2 12 C 2 13.648438 4.691406 15 8 15 C 11.308594 15 14 13.648438 14 12 C 14 10.351562 11.308594 9 8 9 Z M 5.171875 10.820312 C 5.921875 11.570312 6.941406 12 8 12 C 9.058594 12 10.078125 11.570312 10.828125 10.820312 L 11.53125 11.53125 C 10.601562 12.46875 9.328125 13 8 13 C 6.671875 13 5.398438 12.46875 4.46875 11.53125 Z M 5.171875 10.820312 "/>
</g>
</svg>
