
<svg xmlns="http://www.w3.org/2000/svg" xmlns:xlink="http://www.w3.org/1999/xlink" width="16px" height="16px" viewBox="0 0 16 16" version="1.1">
<g id="surface1">
<path style=" stroke:none;fill-rule:nonzero;fill:#aaaaaa;fill-opacity:1;" d="M 8 1 C 4.128906 1 1 4.128906 1 8 C 1 11.859375 4.128906 15 8 15 C 11.871094 15 15 11.859375 15 8 C 15 4.128906 11.871094 1 8 1 Z M 12.089844 4.371094 C 12.101562 4.351562 12.53125 4.449219 12.589844 5 C 12.660156 5.539062 12.191406 6 12.191406 6 C 12.191406 6 9.011719 6.011719 9 6 C 8.808594 5.699219 8.730469 5.230469 9.058594 4.929688 C 9.078125 4.929688 12.089844 4.390625 12.089844 4.371094 Z M 3.691406 4.398438 C 3.730469 4.390625 3.75 4.398438 3.75 4.398438 C 3.761719 4.421875 6.730469 4.960938 6.75 4.960938 C 7.089844 5.261719 7.039062 5.738281 6.839844 6.03125 C 6.828125 6.039062 3.660156 6.03125 3.660156 6.03125 C 3.660156 6.03125 3.179688 5.570312 3.25 5.03125 C 3.300781 4.621094 3.558594 4.449219 3.691406 4.398438 Z M 9.378906 8.300781 C 9.898438 8.390625 10.230469 8.871094 10.648438 9.148438 C 11.078125 9.46875 11.550781 9.710938 11.980469 10.03125 C 11.78125 10.238281 11.339844 10.359375 11.078125 10.589844 C 10.671875 10.921875 10.390625 11.390625 10.019531 11.769531 C 9.609375 12.210938 9.089844 12.601562 8.480469 12.691406 C 8.160156 12.71875 7.828125 12.710938 7.5 12.671875 C 7.320312 12.71875 7.011719 12.539062 6.800781 12.441406 C 5.878906 11.960938 5.46875 10.898438 4.578125 10.378906 C 4.421875 10.25 4.121094 10.179688 4.019531 10.03125 C 4.738281 9.621094 5.421875 9.140625 6.039062 8.578125 C 6.289062 8.390625 6.640625 8.238281 6.941406 8.398438 C 7.429688 8.640625 7.988281 8.820312 8.53125 8.628906 C 8.820312 8.558594 9.078125 8.359375 9.378906 8.300781 Z M 7.46875 10.019531 C 7.199219 10.128906 6.910156 10.28125 6.660156 10.390625 C 6.808594 10.519531 7.121094 10.601562 7.320312 10.730469 C 7.640625 10.941406 8.050781 10.960938 8.410156 10.851562 C 8.730469 10.710938 9.039062 10.53125 9.371094 10.410156 C 9.171875 10.28125 8.828125 10.171875 8.589844 10.039062 C 8.210938 10.050781 7.851562 10.128906 7.46875 10.019531 Z M 7.46875 10.019531 "/>
</g>
</svg>
