
<svg xmlns="http://www.w3.org/2000/svg" xmlns:xlink="http://www.w3.org/1999/xlink" width="16px" height="16px" viewBox="0 0 16 16" version="1.1">
<g id="surface1">
<path style=" stroke:none;fill-rule:nonzero;fill:#aaaaaa;fill-opacity:1;" d="M 8 1 C 4.128906 1 1 4.128906 1 8 C 1 11.859375 4.128906 15 8 15 C 11.871094 15 15 11.859375 15 8 C 15 4.128906 11.871094 1 8 1 Z M 6.660156 6.371094 C 6.660156 6.371094 7.089844 6.449219 7.160156 7 C 7.21875 7.539062 6.75 8 6.75 8 L 6 8 C 6 8.550781 5.550781 9 5 9 C 4.449219 9 4 8.550781 4 8 L 2.75 8 C 2.558594 7.699219 2.511719 7.230469 2.839844 6.929688 Z M 9.28125 6.371094 L 9.339844 6.371094 L 13.160156 6.929688 C 13.488281 7.230469 13.441406 7.699219 13.25 8 L 12 8 C 12 8.550781 11.550781 9 11 9 C 10.449219 9 10 8.550781 10 8 L 9.25 8 C 9.25 8 8.78125 7.539062 8.839844 7 C 8.890625 6.589844 9.160156 6.421875 9.28125 6.371094 Z M 6.5 12 L 9.5 12 C 9.78125 12 10 12.210938 10 12.460938 L 10 12.53125 C 10 12.789062 9.78125 13 9.5 13 L 6.5 13 C 6.21875 13 6 12.789062 6 12.53125 L 6 12.460938 C 6 12.210938 6.21875 12 6.5 12 Z M 6.5 12 "/>
</g>
</svg>
