
<svg xmlns="http://www.w3.org/2000/svg" xmlns:xlink="http://www.w3.org/1999/xlink" width="16px" height="16px" viewBox="0 0 16 16" version="1.1">
<g id="surface1">
<path style=" stroke:none;fill-rule:nonzero;fill:#aaaaaa;fill-opacity:1;" d="M 8 1 C 4.128906 1 1 4.128906 1 8 C 1 11.859375 4.128906 15 8 15 C 11.871094 15 15 11.859375 15 8 C 15 4.128906 11.871094 1 8 1 Z M 5 5 C 5.550781 5 6 5.449219 6 6 C 6 6.550781 5.550781 7 5 7 C 4.449219 7 4 6.550781 4 6 C 4 5.449219 4.449219 5 5 5 Z M 11 5 C 11.550781 5 12 5.449219 12 6 C 12 6.550781 11.550781 7 11 7 C 10.449219 7 10 6.550781 10 6 C 10 5.449219 10.449219 5 11 5 Z M 4 9 L 8 10 L 12 9 C 12.019531 9.140625 12.019531 9.269531 12 9.398438 C 11.941406 9.789062 11.730469 10.070312 11.339844 10.148438 L 10 10.5 L 11.308594 10.808594 C 11.851562 10.949219 11.96875 11.308594 12 11.648438 C 12.011719 11.769531 12 11.890625 12 12 L 8 11 L 4 12 C 3.929688 11.359375 4.050781 11.019531 4.53125 10.871094 L 6 10.5 L 4.5 10.148438 C 4.03125 10.019531 3.921875 9.480469 4 9 Z M 4 9 "/>
</g>
</svg>
