
<svg xmlns="http://www.w3.org/2000/svg" xmlns:xlink="http://www.w3.org/1999/xlink" width="16px" height="16px" viewBox="0 0 16 16" version="1.1">
<g id="surface1">
<path style=" stroke:none;fill-rule:nonzero;fill:#aaaaaa;fill-opacity:1;" d="M 8 1 C 4.128906 1 1 4.128906 1 8 C 1 11.859375 4.128906 15 8 15 C 11.871094 15 15 11.859375 15 8 C 15 4.128906 11.871094 1 8 1 Z M 5 5 C 5.550781 5 6 5.449219 6 6 C 6 6.550781 5.550781 7 5 7 C 4.449219 7 4 6.550781 4 6 C 4 5.449219 4.449219 5 5 5 Z M 11 5 C 11.550781 5 12 5.449219 12 6 C 12 6.550781 11.550781 7 11 7 C 10.449219 7 10 6.550781 10 6 C 10 5.449219 10.449219 5 11 5 Z M 3 9 C 3 9 5 10 8 10 L 11.988281 10 C 11.050781 11.261719 9.570312 12 8 12 C 5.75 12 3.5 11 3 9 Z M 3 9 "/>
</g>
</svg>
