
<svg xmlns="http://www.w3.org/2000/svg" xmlns:xlink="http://www.w3.org/1999/xlink" width="16px" height="16px" viewBox="0 0 16 16" version="1.1">
<g id="surface1">
<path style=" stroke:none;fill-rule:nonzero;fill:#aaaaaa;fill-opacity:1;" d="M 8 1 C 5.621094 1 3.519531 2.191406 2.25 4 L 13.75 4 C 12.480469 2.191406 10.378906 1 8 1 Z M 13.96875 4.339844 L 14 5.75 C 14 7.261719 13.289062 8 11.941406 8 L 11.089844 8 C 9.738281 8 9 7.261719 9 5.75 L 9 5 L 7 5 L 7 5.75 C 6.980469 7.261719 6.199219 8 4.839844 8 L 4 8 C 2.640625 8 2.011719 7.261719 2 5.75 L 1.96875 4.429688 C 1.351562 5.480469 1 6.699219 1 8 C 1 11.859375 4.128906 15 8 15 C 11.871094 15 15 11.859375 15 8 C 15 6.648438 14.621094 5.398438 13.96875 4.339844 Z M 5.171875 9.828125 C 5.921875 10.578125 6.941406 11 8 11 C 9.058594 11 10.078125 10.578125 10.828125 9.828125 L 11.53125 10.53125 C 10.601562 11.46875 9.328125 12 8 12 C 6.671875 12 5.398438 11.46875 4.46875 10.53125 Z M 5.171875 9.828125 "/>
</g>
</svg>
