
<svg xmlns="http://www.w3.org/2000/svg" xmlns:xlink="http://www.w3.org/1999/xlink" width="16px" height="16px" viewBox="0 0 16 16" version="1.1">
<g id="surface1">
<path style=" stroke:none;fill-rule:nonzero;fill:#aaaaaa;fill-opacity:1;" d="M 8 1 C 4.128906 1 1 4.128906 1 8 C 1 11.859375 4.128906 15 8 15 C 11.871094 15 15 11.859375 15 8 C 15 4.128906 11.871094 1 8 1 Z M 5 5 C 5.550781 5 6 5.449219 6 6 C 6 6.550781 5.550781 7 5 7 C 4.449219 7 4 6.550781 4 6 C 4 5.449219 4.449219 5 5 5 Z M 9.5 6 L 12.5 6 C 12.78125 6 13 6.21875 13 6.5 C 13 6.769531 12.78125 7 12.5 7 L 9.5 7 C 9.21875 7 9 6.769531 9 6.5 C 9 6.21875 9.21875 6 9.5 6 Z M 5.171875 9.828125 C 5.921875 10.578125 6.941406 11 8 11 C 9.058594 11 10.078125 10.578125 10.828125 9.828125 L 11.53125 10.53125 C 10.601562 11.46875 9.328125 12 8 12 C 6.671875 12 5.398438 11.46875 4.46875 10.53125 Z M 5.171875 9.828125 "/>
</g>
</svg>
