<?xml version="1.0" encoding="UTF-8" standalone="no"?>
<svg
   width="62"
   height="62"
   version="1"
   id="svg5"
   sodipodi:docname="dota2.svg"
   inkscape:version="1.4.2 (unknown)"
   xmlns:inkscape="http://www.inkscape.org/namespaces/inkscape"
   xmlns:sodipodi="http://sodipodi.sourceforge.net/DTD/sodipodi-0.dtd"
   xmlns="http://www.w3.org/2000/svg"
   xmlns:svg="http://www.w3.org/2000/svg">
  <defs
     id="defs5" />
  <sodipodi:namedview
     id="namedview5"
     pagecolor="#ffffff"
     bordercolor="#000000"
     borderopacity="0.25"
     inkscape:showpageshadow="2"
     inkscape:pageopacity="0.0"
     inkscape:pagecheckerboard="0"
     inkscape:deskcolor="#d1d1d1"
     inkscape:zoom="12.109375"
     inkscape:cx="32"
     inkscape:cy="32"
     inkscape:window-width="1920"
     inkscape:window-height="998"
     inkscape:window-x="0"
     inkscape:window-y="0"
     inkscape:window-maximized="1"
     inkscape:current-layer="svg5" />
  <g
     id="g5"
     transform="translate(-0.5018,-0.9962385)">
    <path
       style="fill:#c83771;stroke-width:0.982285"
       d="M 35.835027,4.0014076 26.393449,4.16258 24.479007,5.6054292 24.636311,5.7666017 18.399942,5.9279117 18.87943,5.2870138 4.6429098,4.9645909 4.4815396,5.9278332 4.3204639,7.3705844 5.283381,9.1359553 4.8038872,12.827715 l -0.8018223,3.208024 0.4794844,3.05064 0.1612718,2.405406 0.9591558,3.208419 -0.3186059,1.605239 0.1573434,1.764386 1.1202606,1.284982 0.3184085,2.084548 -2.0754179,0.801621 0.3184088,6.420763 1.281532,0.962723 -0.8018215,5.613328 -0.6407469,0.322219 -0.4796807,10.753342 0.5639409,-0.0766 1.3583378,0.280959 c 0,0 1.6441482,0.569576 1.9834871,0.683063 0.3393487,0.113503 0.8440351,-0.510389 0.8440351,-0.510389 h 1.3581398 l 1.131753,-0.226391 0.625344,0.283963 0.563963,-0.0576 1.415696,-0.111283 0.671392,-0.287795 0.287725,0.683061 0.226084,-0.170934 0.625225,-0.286853 1.296857,-0.111994 0.280106,0.398847 c 0,0 1.582859,0.168854 2.148487,0.168854 0.565573,0 0.456546,-0.456653 0.456546,-0.456653 0,0 0.16608,-0.05349 0.448877,0.230247 0.282776,0.283668 0.682899,-0.115115 0.682899,-0.115115 l 0.563963,-0.283963 0.398986,0.399078 0.395153,0.283963 1.074198,-0.226395 h 1.749437 l 0.402838,-0.115115 1.638251,2.326222 0.107429,-1.185755 h 2.658633 c 0.226243,0 0.118936,0.790498 0.118936,0.790498 l 1.749442,-0.567927 0.905418,0.905636 1.868375,-1.189589 1.016642,-0.172687 1.979562,-0.107456 h 2.827559 l 3.222588,0.222566 0.851699,-0.3377 0.617667,-0.567925 1.699539,0.959342 1.243033,-0.510368 c 0,0 1.358239,0.518898 1.584432,0.57561 0.226223,0.0567 2.320959,-0.234078 2.320959,-0.234078 l 1.296756,-0.341532 -0.844035,-0.621661 0.563968,-0.226394 2.374785,0.111288 3.165035,0.798179 -0.05369,-20.706025 v -1.30856 l -0.790315,0.118969 -1.020468,0.168855 v -0.625494 l 0.563956,-0.514214 0.456542,-0.67538 0.107428,-2.440574 -0.16881,-1.761346 -0.736612,-2.156662 -0.671386,-0.90563 -0.115091,-0.8519 0.168815,-0.564093 0.05367,-0.168853 0.736606,-0.287793 0.115086,-0.287799 -0.563963,-0.959337 0.510239,-0.291648 0.797994,-0.483506 0.318427,-2.885798 0.161139,-1.926386 V 11.062931 L 58.390124,9.1307486 58.71031,7.0468837 58.871389,6.2411201 57.431527,5.6003012 51.99229,4.6371573 51.188877,5.7613165 50.870651,4.4758475 40.474411,4.3147341 40.152256,6.0837398 37.594697,6.4022338 37.274506,5.2818071 35.035164,4.9593842 35.836616,3.99624 Z"
       id="path1" />
    <path
       style="opacity:0.2;stroke-width:0.982285"
       d="m 43.285747,12.842509 -7.857144,3.929496 11.786009,7.858997 V 16.772005 L 43.28604,12.842509 Z M 15.78506,14.807308 9.8926439,16.772104 43.285352,50.172691 h 5.893007 L 53.106044,40.3487 15.784664,14.807308 Z m -3.927689,21.611794 -1.9647271,9.823991 3.9290611,3.929598 h 3.927689 l 5.893004,-1.964795 z"
       id="path2" />
    <path
       style="fill:#f2f2f2;stroke-width:0.982285;fill-opacity:1"
       d="m 43.285747,11.860107 -7.857144,3.929497 11.786009,7.859003 V 15.789604 L 43.28604,11.860107 Z M 15.786043,13.82481 9.8932328,15.78951 43.285942,49.190097 h 5.892807 L 53.107321,39.366401 15.785943,13.825006 Z m -3.928572,21.6118 -1.9642382,9.823691 3.9285712,3.929498 h 3.92857 L 23.643183,47.225103 11.857175,35.436312 Z"
       id="path3" />
    <path
       style="opacity:0.2;fill:#ffffff;stroke-width:0.982285"
       d="M 35.832078,4.0018987 26.394431,4.1630122 24.480187,5.6059598 24.637334,5.7670733 18.400571,5.9282849 18.87987,5.2873677 4.6423698,4.9650428 4.4814903,5.9282849 4.3204149,7.3711344 l 0.090163,0.167008 0.070912,-0.6274586 0.1611738,-0.963242 14.2374973,0.322325 -0.479299,0.640917 6.236768,-0.1612115 -0.15715,-0.1611135 1.914245,-1.4429477 8.86799,-0.151584 -0.227862,-0.032616 0.797519,-0.9593125 z m 4.640739,0.3146623 -0.320185,1.7690063 -2.55953,0.3185916 -0.320185,-1.1206224 -1.50959,-0.2168157 -0.72877,0.8768899 2.23836,0.3223249 0.320185,1.1206228 2.55953,-0.318592 0.320185,-1.7690063 10.397224,0.1611134 0.318226,1.2855679 0.803413,-1.1243562 5.438258,0.9632425 1.265034,0.562129 0.0147,-0.097845 0.1611,-0.8058637 -1.44084,-0.6408196 -5.438258,-0.9632422 -0.803413,1.1243557 -0.318226,-1.2855675 z m 18.010989,5.1902112 -0.09428,0.6085958 0.481265,1.929433 v -0.9824 z M 5.1796152,9.9306778 4.8036415,12.82777 4.0018,16.036289 4.0957918,16.6385 4.80364,13.810171 5.2831344,10.119297 Z m 52.3347878,14.1907542 -0.431172,0.247566 0.211167,0.359555 0.237686,-0.0943 0.11491,-0.287843 z m -52.0293337,1.169057 -0.2014425,1.014814 0.061382,0.677859 0.2571322,-1.301681 z m 51.1797607,1.041342 -0.09232,0.305523 0.115896,0.85174 0.670816,0.905775 0.736632,2.156362 0.140449,1.452974 0.02849,-0.67393 -0.16893,-1.761439 -0.736632,-2.156369 -0.670816,-0.90577 z m -49.9274971,5.161524 -1.9335933,0.746625 0.047926,0.963732 2.0275866,-0.78101 z m 52.2100561,3.804833 -0.789666,0.118868 -0.54314,0.0904 -0.477328,0.436184 v 0.624806 l 1.020468,-0.168973 0.789666,-0.118869 z m 0,1.308553 v 0.982402 l 0.05209,19.725586 h 0.002 z m -52.670693,3.905038 -0.67524,4.726324 -0.6407658,0.322221 -0.4795927,10.752364 0.044198,-0.006 0.4353949,-9.764053 0.6407658,-0.322221 0.8018416,-5.612448 z"
       id="path4" />
    <path
       style="opacity:0.2;stroke-width:0.982285"
       d="m 35.832078,4.9842976 -0.569738,0.00957 0.500679,0.072914 z m 22.862894,2.1623591 -0.305457,1.9859195 0.09397,0.3741562 0.226361,-1.4755629 0.161134,-0.8058722 z M 4.4105782,7.5380834 4.3204182,8.3535535 5.1798149,9.9307954 5.2834043,9.136437 Z M 4.0959902,16.638534 4.0019974,17.018726 4.48159,20.069078 4.6426655,22.473987 5.4848737,25.290528 5.6018493,24.699123 4.6426645,21.491589 4.481589,19.086677 Z m 54.7754728,1.16277 -0.161133,1.924519 -0.318437,2.887765 -0.798014,0.481601 -0.510263,0.291654 0.431616,0.734885 0.07866,-0.04412 0.798014,-0.483526 0.318437,-2.885798 0.161133,-1.926386 z m -1.576865,6.926699 -0.498757,0.193798 -0.05368,0.168854 -0.168815,0.564116 0.0921,0.677316 0.07671,-0.25903 0.05368,-0.168854 0.736626,-0.287814 0.115096,-0.287812 z m -51.9517467,2.254609 -0.059422,0.304543 0.1572455,1.763406 1.1202596,1.285568 0.1764858,1.156967 0.1419531,-0.05369 -0.3184392,-2.08564 -1.1202596,-1.283604 z m 52.8936457,5.021333 -0.07866,1.767144 -0.456554,0.6754 -0.563973,0.514224 v 0.625513 l 0.477655,-0.07868 0.08633,-0.07868 0.456554,-0.6754 0.107429,-2.440669 z m -53.3847296,1.199509 -0.047926,0.0187 0.3184185,6.421943 1.1548323,0.867459 0.1266017,-0.886122 -1.281434,-0.963738 z m 0.1937818,23.032349 -0.5198609,0.0707 -0.044098,0.988293 0.5639606,-0.0766 1.3581413,0.281944 c 0,0 1.6441479,0.569595 1.9834866,0.683075 0.3393489,0.113507 0.8440552,-0.510386 0.8440552,-0.510386 h 1.358141 l 1.13175,-0.226417 0.625364,0.283973 0.563983,-0.05759 1.415694,-0.111284 0.671401,-0.287815 0.287745,0.683072 0.226883,-0.17094 0.624655,-0.287842 1.297447,-0.111013 0.279917,0.398855 c 0,0 1.582863,0.168856 2.148486,0.168856 0.565573,0 0.456556,-0.456658 0.456556,-0.456658 0,0 0.16608,-0.05349 0.448877,0.230255 0.282776,0.283665 0.682912,-0.115128 0.682912,-0.115128 l 0.56398,-0.283972 0.399005,0.3991 0.395165,0.283973 1.074297,-0.226416 h 1.747568 l 0.40269,-0.114943 1.638256,2.325342 0.107057,-1.185759 h 2.658728 c 0.226242,0 0.118925,0.790532 0.118925,0.790532 l 1.749443,-0.567945 0.905434,0.905655 1.868378,-1.189589 1.016741,-0.172689 1.979657,-0.107453 h 2.827561 l 3.222692,0.222575 0.851719,-0.3377 0.617698,-0.567946 1.699639,0.959373 1.243032,-0.51039 c 0,0 1.358239,0.518908 1.584533,0.575627 0.226222,0.0567 2.321154,-0.234086 2.321154,-0.234086 l 1.296756,-0.341541 -0.844057,-0.621673 0.563983,-0.226409 2.374879,0.111287 3.165235,0.798198 -0.002,-0.982397 -3.163267,-0.798203 -2.374879,-0.111285 -0.563983,0.226414 0.844057,0.621673 -1.296756,0.341541 c 0,0 -2.094862,0.290766 -2.321154,0.234085 -0.226254,-0.05674 -1.584533,-0.575626 -1.584533,-0.575626 l -1.242443,0.509864 -1.699149,-0.959803 -0.617697,0.567945 -0.851719,0.3377 -3.222689,-0.222576 h -2.827564 l -1.979656,0.107454 -1.016739,0.172689 -1.868378,1.189589 -0.905438,-0.905656 -1.749442,0.567946 c 0,0 0.107317,-0.790532 -0.118926,-0.790532 H 27.77913 l -0.107054,1.186744 -1.638257,-2.325337 -0.403669,0.114938 h -1.747562 l -1.074297,0.226421 -0.395162,-0.283974 -0.399004,-0.399097 -0.563983,0.28397 c 0,0 -0.400132,0.398796 -0.682908,0.115127 -0.282796,-0.283764 -0.448884,-0.230256 -0.448884,-0.230256 0,0 0.109024,0.456663 -0.456549,0.456663 -0.565671,0 -2.148495,-0.16886 -2.148495,-0.16886 l -0.278929,-0.398851 -1.297446,0.111008 -0.624655,0.287843 -0.226364,0.17077 -0.287744,-0.68307 -0.671402,0.287814 -1.415696,0.111288 -0.56398,0.05759 -0.625365,-0.28397 -1.131751,0.226411 H 9.2318511 c 0,0 -0.5046965,0.623889 -0.8440551,0.510387 C 8.0484573,57.08673 6.4043092,56.516938 6.4043092,56.516938 Z"
       id="path5" />
  </g>
</svg>
