<?xml version="1.0" encoding="UTF-8" standalone="no"?>
<svg
   viewBox="0 0 64 64"
   version="1.1"
   id="svg14"
   sodipodi:docname="folder-godot.svg"
   inkscape:version="1.4.2 (unknown)"
   xmlns:inkscape="http://www.inkscape.org/namespaces/inkscape"
   xmlns:sodipodi="http://sodipodi.sourceforge.net/DTD/sodipodi-0.dtd"
   xmlns:xlink="http://www.w3.org/1999/xlink"
   xmlns="http://www.w3.org/2000/svg"
   xmlns:svg="http://www.w3.org/2000/svg"
   xmlns:rdf="http://www.w3.org/1999/02/22-rdf-syntax-ns#"
   xmlns:cc="http://creativecommons.org/ns#"
   xmlns:dc="http://purl.org/dc/elements/1.1/">
  <metadata
     id="metadata18">
    <rdf:RDF>
      <cc:Work
         rdf:about="">
        <dc:format>image/svg+xml</dc:format>
        <dc:type
           rdf:resource="http://purl.org/dc/dcmitype/StillImage" />
      </cc:Work>
    </rdf:RDF>
  </metadata>
  <sodipodi:namedview
     pagecolor="#ffffff"
     bordercolor="#666666"
     borderopacity="1"
     objecttolerance="10"
     gridtolerance="10"
     guidetolerance="10"
     inkscape:pageopacity="0"
     inkscape:pageshadow="2"
     inkscape:window-width="1920"
     inkscape:window-height="998"
     id="namedview16"
     showgrid="false"
     inkscape:zoom="3.6875"
     inkscape:cx="31.864407"
     inkscape:cy="97.220339"
     inkscape:window-x="0"
     inkscape:window-y="0"
     inkscape:window-maximized="1"
     inkscape:current-layer="svg14"
     inkscape:showpageshadow="2"
     inkscape:pagecheckerboard="0"
     inkscape:deskcolor="#d1d1d1" />
  <defs
     id="defs3051">
    <linearGradient
       inkscape:collect="always"
       id="linearGradient840">
      <stop
         style="stop-color:#ff9955;stop-opacity:1"
         offset="0"
         id="stop836" />
      <stop
         style="stop-color:#00ffcc;stop-opacity:1"
         offset="1"
         id="stop838" />
    </linearGradient>
    <linearGradient
       inkscape:collect="always"
       id="linearGradient832">
      <stop
         style="stop-color:#00d455;stop-opacity:1"
         offset="0"
         id="stop828" />
      <stop
         style="stop-color:#00ccff;stop-opacity:1"
         offset="1"
         id="stop830" />
    </linearGradient>
    <style
       type="text/css"
       id="current-color-scheme">
      .ColorScheme-Text {
        color:#31363b;
      }
      .ColorScheme-Background {
        color:#eff0f1;
      }
      .ColorScheme-Highlight {
        color:#3daee9;
      }
      .ColorScheme-ViewText {
        color:#31363b;
      }
      .ColorScheme-ViewBackground {
        color:#fcfcfc;
      }
      .ColorScheme-ViewHover {
        color:#93cee9;
      }
      .ColorScheme-ViewFocus{
        color:#3daee9;
      }
      .ColorScheme-ButtonText {
        color:#31363b;
      }
      .ColorScheme-ButtonBackground {
        color:#eff0f1;
      }
      .ColorScheme-ButtonHover {
        color:#93cee9;
      }
      .ColorScheme-ButtonFocus{
        color:#3daee9;
      }
      </style>
    <linearGradient
       inkscape:collect="always"
       xlink:href="#linearGradient832"
       id="linearGradient834"
       x1="3"
       y1="32"
       x2="61"
       y2="32"
       gradientUnits="userSpaceOnUse" />
    <linearGradient
       inkscape:collect="always"
       xlink:href="#linearGradient840"
       id="linearGradient842"
       x1="4"
       y1="13"
       x2="60"
       y2="13"
       gradientUnits="userSpaceOnUse" />
  </defs>
  <path
     style="fill:url(#linearGradient834);fill-opacity:1;stroke:none"
     d="M 4 6 L 4 11 L 4 20 L 3 20 L 3 21 L 3.0019531 21 C 3.0019031 21.004 3 21.008019 3 21.011719 L 3 57 L 3 58 L 4 58 L 60 58 L 61 58 L 61 57 L 61 21.011719 L 61 21 L 61 16 L 60 16 L 60 11.009766 C 60 11.006766 59.998047 11.004 59.998047 11 L 60 11 L 60 10 L 32 10 L 28 6 L 4 6 z "
     class="ColorScheme-Highlight"
     id="path4" />
  <path
     style="fill-opacity:1;fill-rule:evenodd;fill:url(#linearGradient842)"
     d="M 4 6 L 4 11 L 4 20 L 22 20 L 26 16 L 60 16 L 60 11.009766 C 60 11.006766 59.998047 11.004 59.998047 11 L 60 11 L 60 10 L 32 10 L 28 6 L 4 6 z "
     id="path6" />
  <path
     style="fill:#ffffff;fill-opacity:0.2;fill-rule:evenodd"
     d="M 28 6 L 31 11 L 33 11 L 60 11 L 60 10 L 33 10 L 32 10 L 28 6 z M 26 16 L 22 20 L 3 20 L 3 21 L 23 21 L 26 16 z "
     id="path8" />
  <path
     style="fill-opacity:0.2;fill-rule:evenodd"
     d="M 26 16 L 20 19 L 4 19 L 4 20 L 22 20 L 26 16 z M 3 57 L 3 58 L 4 58 L 60 58 L 61 58 L 61 57 L 60 57 L 4 57 L 3 57 z "
     class="ColorScheme-Text"
     id="path10" />
  <path
     style="color:#fcfcfc;fill:#fcfcfc;fill-opacity:0.89999998;stroke:none;stroke-width:1.1"
     d="m 29.8,27.610169 -3.3,1.1 v 2.75 l -1.65,1.65 -1.87,-1.43 -1.98,2.53 1.1,2.2 v 6.6 h 4.4 v 2.2 h 3.3 v -2.2 h 4.4 v 2.2 h 3.3 v -2.2 h 4.4 v -6.6 l 1.1,-2.2 -1.98,-2.53 -1.87,1.43 -1.65,-1.65 v -2.75 c 0,0 -2.31,-0.88 -3.3,-1.1 -0.44,0.66 -0.77,1.43 -1.1,2.2 h -2.2 c -0.33,-0.77 -1.1,-2.2 -1.1,-2.2 z m -2.75,8.8 a 2.75,2.75 0 0 1 2.75,2.75 2.75,2.75 0 0 1 -2.75,2.75 2.75,2.75 0 0 1 -2.75,-2.75 2.75,2.75 0 0 1 2.75,-2.75 z m 9.9,0 a 2.75,2.75 0 0 1 2.75,2.75 2.75,2.75 0 0 1 -2.75,2.75 2.75,2.75 0 0 1 -2.75,-2.75 2.75,2.75 0 0 1 2.75,-2.75 z m -9.9,1.1 a 1.65,1.65 0 0 0 -1.65,1.65 1.65,1.65 0 0 0 1.65,1.65 1.65,1.65 0 0 0 1.65,-1.65 1.65,1.65 0 0 0 -1.65,-1.65 z m 4.95,0 c 0.55,0 1.1,0.55 1.1,1.1 v 2.2 c 0,0.55 -0.55,1.1 -1.1,1.1 -0.55,0 -1.1,-0.55 -1.1,-1.1 v -2.2 c 0,-0.55 0.4906,-1.1 1.1,-1.1 z m 4.95,0 a 1.65,1.65 0 0 0 -1.65,1.65 1.65,1.65 0 0 0 1.65,1.65 1.65,1.65 0 0 0 1.65,-1.65 1.65,1.65 0 0 0 -1.65,-1.65 z m -14.85,6.6 v 0.55 c 0,3.63 4.51,4.95 9.9,4.95 v 0 0 c 5.39,0 9.9,-1.65 9.9,-5.28 0,-0.11 0,0.11 0,-0.22 h -3.3 v 2.2 h -5.5 v -2.2 h -2.2 v 2.2 h -5.5 v -2.2 z"
     class="ColorScheme-Text"
     id="path5" />
</svg>
