<?xml version="1.0" encoding="UTF-8" standalone="no"?>
<svg
   viewBox="0 0 64 64"
   version="1.1"
   id="svg5"
   sodipodi:docname="folder-openSUSE.svg"
   inkscape:version="1.4.2 (unknown)"
   xmlns:inkscape="http://www.inkscape.org/namespaces/inkscape"
   xmlns:sodipodi="http://sodipodi.sourceforge.net/DTD/sodipodi-0.dtd"
   xmlns:xlink="http://www.w3.org/1999/xlink"
   xmlns="http://www.w3.org/2000/svg"
   xmlns:svg="http://www.w3.org/2000/svg">
  <sodipodi:namedview
     id="namedview5"
     pagecolor="#ffffff"
     bordercolor="#000000"
     borderopacity="0.25"
     inkscape:showpageshadow="2"
     inkscape:pageopacity="0.0"
     inkscape:pagecheckerboard="0"
     inkscape:deskcolor="#d1d1d1"
     inkscape:zoom="12.078125"
     inkscape:cx="31.958603"
     inkscape:cy="32"
     inkscape:window-width="1920"
     inkscape:window-height="998"
     inkscape:window-x="0"
     inkscape:window-y="0"
     inkscape:window-maximized="1"
     inkscape:current-layer="svg5" />
  <defs
     id="defs3051">
    <linearGradient
       id="linearGradient5"
       inkscape:collect="always">
      <stop
         style="stop-color:#3bad7e;stop-opacity:1;"
         offset="0"
         id="stop5" />
      <stop
         style="stop-color:#00acac;stop-opacity:1;"
         offset="1"
         id="stop6" />
    </linearGradient>
    <style
       type="text/css"
       id="current-color-scheme">.ColorScheme-Accent { color: #3daee9; } .ColorScheme-Text { color: #fcfcfc; } </style>
    <linearGradient
       inkscape:collect="always"
       xlink:href="#linearGradient5"
       id="linearGradient6"
       x1="16.826649"
       y1="13.785253"
       x2="54.62484"
       y2="54.188873"
       gradientUnits="userSpaceOnUse" />
  </defs>
  <path
     style="fill:url(#linearGradient6)"
     d="M 4 6 L 4 11 L 4 20 L 3 20 L 3 21 L 3 21 C 3 21 3 21 3 21 L 3 57 L 3 58 L 4 58 L 60 58 L 61 58 L 61 57 L 61 21 L 61 21 L 61 16 L 60 16 L 60 11 C 60 11 60 11 60 11 L 60 11 L 60 10 L 32 10 L 28 6 L 4 6 z "
     id="path1" />
  <path
     style="fill-opacity:0.33"
     d="M 4 6 L 4 11 L 4 20 L 22 20 L 26 16 L 60 16 L 60 11 C 60 11 60 11 60 11 L 60 11 L 60 10 L 32 10 L 28 6 L 4 6 z "
     id="path2" />
  <path
     style="fill:#ffffff;fill-opacity:0.2"
     d="M 28 6 L 31 11 L 33 11 L 60 11 L 60 10 L 33 10 L 32 10 L 28 6 z M 26 16 L 22 20 L 3 20 L 3 21 L 23 21 L 26 16 z "
     id="path3" />
  <path
     style="fill-opacity:0.2;fill-rule:evenodd"
     d="M 26 16 L 20 19 L 4 19 L 4 20 L 22 20 L 26 16 z M 3 57 L 3 58 L 4 58 L 60 58 L 61 58 L 61 57 L 60 57 L 4 57 L 3 57 z "
     class="ColorScheme-Text"
     id="path4" />
  <path
     d="m 32,26 c -6.07466,0 -11,4.92476 -11,11 0,6.07524 4.92534,11 11,11 6.07466,0 11,-4.92476 11,-11 0,-6.07524 -4.92534,-11 -11,-11 z m 0.0527,1.52337 c 5.2341,0 9.48065,4.24309 9.48065,9.47663 0,5.23408 -4.24713,9.47663 -9.48065,9.47663 -2.82621,0 -5.36223,-1.23868 -7.09835,-3.20074 0.71385,-0.55405 1.90816,-0.41887 3.379,-0.25121 0.70487,0.08 1.50841,0.1719 2.33777,0.1904 2.31704,0.0134 4.8101,-0.40942 6.34881,-1.08176 0.99475,-0.43626 1.63169,-0.72357 2.02981,-1.0858 0.14357,-0.11781 0.21894,-0.3145 0.29579,-0.51859 l 0.0527,-0.13778 c 0.0644,-0.16485 0.15704,-0.51962 0.19853,-0.71307 0.0184,-0.08465 0.0278,-0.17574 -0.0325,-0.22284 l -0.21473,0.0404 c -0.67516,0.404861 -2.36196,1.175961 -3.94218,1.20736 -1.95816,0.0411 -5.90479,-1.97125 -6.31639,-2.18378 l -0.0404,-0.0486 c -0.0987,-0.23553 -0.68931,-1.63764 -0.814361,-1.93261 2.840781,1.870691 5.196041,2.90612 7.001121,3.06704 2.00692,0.17833 3.57243,-0.9174 4.241979,-1.38563 0.130652,-0.08923 0.230505,-0.15907 0.271452,-0.17422 l 0.0445,-0.0729 C 39.68422,37.266862 38.63125,33.853272 37.83834,33.033432 c -0.21982,-0.22486 -0.39459,-0.443693 -0.74954,-0.6523 -2.86994,-1.67273 -9.68424,-2.68015 -10.00332,-2.72671 l -0.0527,0.0161 -0.0202,0.0445 c 0,0 -0.0257,1.414995 -0.0284,1.572007 -0.23384,-0.0773 -0.95891,-0.314775 -1.997448,-0.59963 1.355068,-1.676665 3.431668,-3.164282 7.065938,-3.164282 z m 2.50387,5.01587 c 0.0484,-7.5e-4 0.0971,-10e-4 0.14586,0 1.60767,0.0577 2.87079,1.41183 2.81583,3.01841 -0.0286,0.77721 -0.35627,1.49531 -0.92376,2.02578 -0.56916,0.53328 -1.30893,0.81122 -2.09062,0.78601 -1.60488,-0.0599 -2.86797,-1.4141 -2.81582,-3.01841 0.02748,-0.77834 0.35696,-1.50105 0.92779,-2.02985 0.53307,-0.49994 1.21535,-0.77108 1.94072,-0.78194 z m -0.077,0.85892 c -0.46824,0.0285 -0.91008,0.2186 -1.25598,0.54292 -0.39422,0.37009 -0.62681,0.87118 -0.64419,1.41398 -0.0371,1.12152 0.84054,2.06533 1.96094,2.1068 0.54449,0.0169 1.061,-0.17391 1.45857,-0.54288 0.39645,-0.37178 0.62738,-0.8775 0.64419,-1.41806 0.0375,-1.12318 -0.84407,-2.06352 -1.96501,-2.10276 -0.0679,-0.002 -0.13163,-0.003 -0.19852,0 z m 0.53481,1.01692 c 0.49794,0 0.89944,0.2706 0.89943,0.60369 0,0.33143 -0.40149,0.60368 -0.89943,0.60368 -0.49963,0 -0.9035,-0.27283 -0.9035,-0.60368 0,-0.33309 0.40387,-0.60369 0.9035,-0.60369 z"
     id="path2445-8"
     inkscape:connector-curvature="0"
     style="color:#4d4d4d;font-size:20.4884px;font-family:TrebuchetMS-Bold;fill:#1a1a1a;fill-opacity:0.84210527;fill-rule:evenodd;stroke:none;stroke-width:0.157499;stroke-miterlimit:4" />
</svg>
