<?xml version="1.0" encoding="UTF-8" standalone="no"?>
<svg
   fill="none"
   viewBox="0 0 22 22"
   version="1.1"
   id="svg1"
   sodipodi:docname="applications-utilities-symbolic.svg"
   inkscape:version="1.4.2 (unknown)"
   xmlns:inkscape="http://www.inkscape.org/namespaces/inkscape"
   xmlns:sodipodi="http://sodipodi.sourceforge.net/DTD/sodipodi-0.dtd"
   xmlns:xlink="http://www.w3.org/1999/xlink"
   xmlns="http://www.w3.org/2000/svg"
   xmlns:svg="http://www.w3.org/2000/svg">
  <sodipodi:namedview
     id="namedview1"
     pagecolor="#ffffff"
     bordercolor="#000000"
     borderopacity="0.25"
     inkscape:showpageshadow="2"
     inkscape:pageopacity="0.0"
     inkscape:pagecheckerboard="0"
     inkscape:deskcolor="#d1d1d1"
     inkscape:zoom="35.136364"
     inkscape:cx="11"
     inkscape:cy="11"
     inkscape:window-width="1920"
     inkscape:window-height="998"
     inkscape:window-x="0"
     inkscape:window-y="0"
     inkscape:window-maximized="1"
     inkscape:current-layer="svg1" />
  <defs
     id="defs1">
    <linearGradient
       id="linearGradient1"
       inkscape:collect="always">
      <stop
         style="stop-color:#d35f8d;stop-opacity:1"
         offset="0"
         id="stop1" />
      <stop
         style="stop-color:#8d5fd3;stop-opacity:1"
         offset="1"
         id="stop2" />
    </linearGradient>
    <style
       type="text/css"
       id="current-color-scheme">.ColorScheme-Text { color: #fcfcfc; } </style>
    <linearGradient
       inkscape:collect="always"
       xlink:href="#linearGradient1"
       id="linearGradient2"
       x1="11"
       y1="18"
       x2="11"
       y2="3"
       gradientUnits="userSpaceOnUse" />
  </defs>
  <path
     d="M8.5 3C7.669 3 7 3.669 7 4.5V6H4.86L2 7.72V18h18V7.72L17.14 6H15V4.5c0-.831-.669-1.5-1.5-1.5zm0 1h5c.277 0 .5.223.5.5V6H8V4.5c0-.277.223-.5.5-.5M5.14 7h11.72L19 8.28V9h-2V8h-4v1H9V8H5v1H3v-.72zM6 9h2v2H6zm8 0h2v2h-2zM3 10h2v2h4v-2h4v2h4v-2h2v7H3z"
     style="fill:url(#linearGradient2)"
     class="ColorScheme-Text"
     id="path1" />
</svg>
