<?xml version="1.0" encoding="UTF-8" standalone="no"?>
<svg
   fill="none"
   viewBox="0 0 22 22"
   version="1.1"
   id="svg1"
   sodipodi:docname="applications-engineering-symbolic.svg"
   inkscape:version="1.4.2 (unknown)"
   xmlns:inkscape="http://www.inkscape.org/namespaces/inkscape"
   xmlns:sodipodi="http://sodipodi.sourceforge.net/DTD/sodipodi-0.dtd"
   xmlns:xlink="http://www.w3.org/1999/xlink"
   xmlns="http://www.w3.org/2000/svg"
   xmlns:svg="http://www.w3.org/2000/svg">
  <defs
     id="defs1">
    <linearGradient
       id="linearGradient1"
       inkscape:collect="always">
      <stop
         style="stop-color:#00ffff;stop-opacity:1"
         offset="0"
         id="stop1" />
      <stop
         style="stop-color:#ff9955;stop-opacity:1"
         offset="1"
         id="stop2" />
    </linearGradient>
    <linearGradient
       inkscape:collect="always"
       xlink:href="#linearGradient1"
       id="linearGradient2"
       x1="10.297542"
       y1="19.284452"
       x2="15.373868"
       y2="5.0826411"
       gradientUnits="userSpaceOnUse" />
  </defs>
  <sodipodi:namedview
     id="namedview1"
     pagecolor="#ffffff"
     bordercolor="#000000"
     borderopacity="0.25"
     inkscape:showpageshadow="2"
     inkscape:pageopacity="0.0"
     inkscape:pagecheckerboard="0"
     inkscape:deskcolor="#d1d1d1"
     inkscape:zoom="35.136364"
     inkscape:cx="10.98577"
     inkscape:cy="11"
     inkscape:window-width="1920"
     inkscape:window-height="998"
     inkscape:window-x="0"
     inkscape:window-y="0"
     inkscape:window-maximized="1"
     inkscape:current-layer="svg1" />
  <style
     type="text/css"
     id="current-color-scheme">.ColorScheme-Text { color: #fcfcfc; } </style>
  <path
     class="ColorScheme-Text"
     fill="currentColor"
     fill-rule="evenodd"
     d="M10.4 3.6a.6.6 0 0 1 1.2 0v1.23a2.251 2.251 0 0 1 .654 4.039L13.864 13H15.5a.5.5 0 0 1 0 1h-1.247l1.356 3.48-.24 2.151L13.18 14H8.82l-2.19 5.631-.24-2.15L7.748 14H6.5a.5.5 0 0 1 0-1h1.636l1.61-4.131A2.251 2.251 0 0 1 10.4 4.83zM9.209 13l1.467-3.773a2.269 2.269 0 0 0 .648 0L12.791 13zM11 8.25a1.25 1.25 0 1 0 0-2.5 1.25 1.25 0 0 0 0 2.5"
     clip-rule="evenodd"
     id="path1"
     style="fill:url(#linearGradient2)" />
</svg>
