<?xml version="1.0" encoding="UTF-8" standalone="no"?>
<svg
   fill="none"
   viewBox="0 0 22 22"
   version="1.1"
   id="svg1"
   sodipodi:docname="applications-development-symbolic.svg"
   inkscape:version="1.4.2 (unknown)"
   xmlns:inkscape="http://www.inkscape.org/namespaces/inkscape"
   xmlns:sodipodi="http://sodipodi.sourceforge.net/DTD/sodipodi-0.dtd"
   xmlns:xlink="http://www.w3.org/1999/xlink"
   xmlns="http://www.w3.org/2000/svg"
   xmlns:svg="http://www.w3.org/2000/svg">
  <sodipodi:namedview
     id="namedview1"
     pagecolor="#ffffff"
     bordercolor="#000000"
     borderopacity="0.25"
     inkscape:showpageshadow="2"
     inkscape:pageopacity="0.0"
     inkscape:pagecheckerboard="0"
     inkscape:deskcolor="#d1d1d1"
     inkscape:zoom="35.136364"
     inkscape:cx="10.98577"
     inkscape:cy="11"
     inkscape:window-width="1920"
     inkscape:window-height="998"
     inkscape:window-x="0"
     inkscape:window-y="0"
     inkscape:window-maximized="1"
     inkscape:current-layer="svg1" />
  <defs
     id="defs1">
    <linearGradient
       id="linearGradient1"
       inkscape:collect="always">
      <stop
         style="stop-color:#ffcc00;stop-opacity:1"
         offset="0"
         id="stop1" />
      <stop
         style="stop-color:#ff76ff;stop-opacity:1;"
         offset="1"
         id="stop2" />
    </linearGradient>
    <style
       type="text/css"
       id="current-color-scheme">.ColorScheme-Text { color: #fcfcfc; } </style>
    <linearGradient
       inkscape:collect="always"
       xlink:href="#linearGradient1"
       id="linearGradient2"
       x1="1.7561449"
       y1="19.5"
       x2="20.5"
       y2="2.75"
       gradientUnits="userSpaceOnUse" />
  </defs>
  <path
     d="M12.35 2.75C10.8 2.75 9 4 8.2 6.2l1.8-.8 1.8 1.8L8 11H6.5l-5 5L5 19.5l5-5V13l3.8-3.8.2.2v1l2 2.1L20.5 8l-2.1-2h-1l-1.55-1.55c-1.45-1.45-2.15-1.7-3.5-1.7m0 .9C13.5 3.65 14 4 15 5l2 2h1l1 1-3 3-1-1V9l-1.244-1.256L9 12.5V14l-3.85 4-.429-.596a5 5 0 0 0-1.124-1.128l-.588-.426L7 12h1.5l4.756-4.756-2.807-2.805c.55-.44 1.2-.789 1.9-.789"
     style="fill:url(#linearGradient2)"
     class="ColorScheme-Text"
     id="path1" />
</svg>
