<?xml version="1.0" encoding="UTF-8" standalone="no"?>
<svg
   width="64"
   version="1.1"
   height="64"
   id="svg17"
   sodipodi:docname="thunar-filemanager.svg"
   inkscape:version="1.4 (unknown)"
   xmlns:inkscape="http://www.inkscape.org/namespaces/inkscape"
   xmlns:sodipodi="http://sodipodi.sourceforge.net/DTD/sodipodi-0.dtd"
   xmlns:xlink="http://www.w3.org/1999/xlink"
   xmlns="http://www.w3.org/2000/svg"
   xmlns:svg="http://www.w3.org/2000/svg"
   xmlns:rdf="http://www.w3.org/1999/02/22-rdf-syntax-ns#"
   xmlns:cc="http://creativecommons.org/ns#"
   xmlns:dc="http://purl.org/dc/elements/1.1/">
  <sodipodi:namedview
     pagecolor="#ffffff"
     bordercolor="#666666"
     borderopacity="1"
     objecttolerance="10"
     gridtolerance="10"
     guidetolerance="10"
     inkscape:pageopacity="0"
     inkscape:pageshadow="2"
     inkscape:window-width="1920"
     inkscape:window-height="996"
     id="namedview19"
     showgrid="false"
     inkscape:zoom="6.9384852"
     inkscape:cx="9.9445337"
     inkscape:cy="38.697207"
     inkscape:window-x="0"
     inkscape:window-y="0"
     inkscape:window-maximized="1"
     inkscape:current-layer="layer1"
     inkscape:document-rotation="0"
     inkscape:showpageshadow="2"
     inkscape:pagecheckerboard="0"
     inkscape:deskcolor="#d1d1d1">
    <inkscape:grid
       type="xygrid"
       id="grid931"
       originx="0"
       originy="0"
       spacingy="1"
       spacingx="1"
       units="px"
       visible="false" />
  </sodipodi:namedview>
  <defs
     id="defs5455">
    <linearGradient
       inkscape:collect="always"
       id="linearGradient4">
      <stop
         style="stop-color:#3384ff;stop-opacity:1;"
         offset="0"
         id="stop3" />
      <stop
         style="stop-color:#1a75ff;stop-opacity:1;"
         offset="1"
         id="stop4" />
    </linearGradient>
    <linearGradient
       inkscape:collect="always"
       id="linearGradient2">
      <stop
         style="stop-color:#2a7fff;stop-opacity:1"
         offset="0"
         id="stop1" />
      <stop
         style="stop-color:#00ccff;stop-opacity:1"
         offset="1"
         id="stop2" />
    </linearGradient>
    <clipPath
       clipPathUnits="userSpaceOnUse"
       id="clipPath79425-9-5-3">
      <rect
         style="opacity:0.5;fill:#000000;fill-opacity:1;stroke:none;stroke-width:0.855869;stroke-dasharray:none;stroke-opacity:1;paint-order:stroke fill markers"
         id="rect79427-1-9-6"
         width="26.417742"
         height="29.037542"
         x="-16.227774"
         y="-6.4845476" />
    </clipPath>
    <clipPath
       clipPathUnits="userSpaceOnUse"
       id="clipPath79425-9-5-5">
      <rect
         style="opacity:0.5;fill:#000000;fill-opacity:1;stroke:none;stroke-width:0.855869;stroke-dasharray:none;stroke-opacity:1;paint-order:stroke fill markers"
         id="rect79427-1-9-62"
         width="26.417742"
         height="29.037542"
         x="-16.227774"
         y="-6.4845476" />
    </clipPath>
    <linearGradient
       inkscape:collect="always"
       xlink:href="#linearGradient4"
       id="linearGradient1419-3"
       x1="0.52915627"
       y1="5.0269842"
       x2="16.403845"
       y2="5.0269842"
       gradientUnits="userSpaceOnUse"
       gradientTransform="matrix(3.779602,0,0,3.8662743,384.57143,480.49982)" />
    <clipPath
       clipPathUnits="userSpaceOnUse"
       id="clipPath79425-9-5-5-6">
      <rect
         style="opacity:0.5;fill:#000000;fill-opacity:1;stroke:none;stroke-width:0.855869;stroke-dasharray:none;stroke-opacity:1;paint-order:stroke fill markers"
         id="rect79427-1-9-62-7"
         width="26.417742"
         height="29.037542"
         x="-16.227774"
         y="-6.4845476" />
    </clipPath>
    <linearGradient
       inkscape:collect="always"
       xlink:href="#linearGradient2"
       id="linearGradient1662-5"
       gradientUnits="userSpaceOnUse"
       gradientTransform="matrix(3.7757185,0,0,3.9032699,384.57656,479.89307)"
       x1="9.3259869"
       y1="14.831515"
       x2="9.3259869"
       y2="4.269978" />
  </defs>
  <metadata
     id="metadata5458">
    <rdf:RDF>
      <cc:Work
         rdf:about="">
        <dc:format>image/svg+xml</dc:format>
        <dc:type
           rdf:resource="http://purl.org/dc/dcmitype/StillImage" />
      </cc:Work>
    </rdf:RDF>
  </metadata>
  <g
     inkscape:label="Capa 1"
     inkscape:groupmode="layer"
     id="layer1"
     transform="translate(-384.57143,-483.798)">
    <g
       id="g1"
       transform="matrix(1,0,0,1.1363636,-1.6201835e-6,-70.336072)">
      <path
         id="path32082-9-2"
         style="fill:url(#linearGradient1419-3);fill-opacity:1;stroke:none;stroke-width:5.11693;stroke-linecap:round;stroke-linejoin:round;stroke-opacity:0.03"
         d="m 394.07143,493.798 c -4,0 -7.5,3.14014 -7.5,7.32703 v 5.2336 c 0,0 2,-5.2336 5,-5.2336 h 8 12 6 24 c 3,0 5,2.09345 5,5.2336 v 0 0 -5.2336 c 0,-4.18689 -3.5,-7.32703 -7.5,-7.32703 h -23.57114 -5.92886 -9 z"
         sodipodi:nodetypes="sccsccccccccccccs" />
      <rect
         x="410.57166"
         y="494.84457"
         width="12"
         height="2.0934412"
         ry="1.0248641"
         stroke-width="3.41941"
         style="fill:#222638;fill-opacity:1;paint-order:stroke markers fill"
         id="rect12-5-9-3-9-9"
         rx="1.0248643" />
      <path
         d="m 418.30476,497.98488 h -3.46666 -4.33334 -16.93333 c -2,0 -3,1.04672 -3,3.14015 v 0 0 h 52 v 0 0 c 0,-2.09343 -1,-3.14015 -3,-3.14015 z"
         style="fill:#222638;fill-opacity:1;stroke-width:2.33915;paint-order:markers stroke fill"
         id="path8-7-2-9-6-1-7-5-1"
         sodipodi:nodetypes="cccccccccccc"
         opacity="0.6" />
      <path
         style="display:inline;fill:#4f4f4f;fill-opacity:1;stroke:none;stroke-width:2.74813;stroke-linecap:round;stroke-linejoin:round;stroke-opacity:0.03"
         d="m -14.026297,2.5011118 6.1666725,4.13e-5 H -3.014907 0.06809547 L 7.9884881,2.5011118 C 9.3097749,2.5157128 10.189967,3.444358 10.189967,4.874457 l -2.06e-4,11.759984 c 0.0082,1.415373 -0.872618,2.358956 -2.6343739,2.358956 H -14.02563 c -1.321306,0 -2.202145,-0.943583 -2.202145,-2.358956 V 4.874457 c 0,-1.4240071 0.880591,-2.3733452 2.201478,-2.3733452 z"
         id="path1611-1-8-0-7-2-3"
         clip-path="url(#clipPath79425-9-5-5-6)"
         transform="matrix(2.271201,0,0,2.2025816,423.42797,495.2891)"
         sodipodi:nodetypes="cccccccssccc" />
      <path
         d="m 418.57143,500.798 h -4 -5 -18.00001 c -3,0 -4.99999,2.05557 -4.99999,5.13889 v 26.72227 c 0,3.08331 1.99999,5.13884 4.99999,5.13884 h 50.00001 c 3,0 5,-2.05553 5,-5.13884 v -26.72227 c 0,-3.08332 -2,-5.13889 -5,-5.13889 z"
         style="fill:url(#linearGradient1662-5);fill-opacity:1;stroke-width:3.83804;paint-order:markers stroke fill"
         id="path8-7-2-9-6-1-9-2"
         sodipodi:nodetypes="ccccsssssscc"
         opacity="0.6" />
      <path
         d="m 386.57143,519.28096 17.1,18.06042 h -10e-6 0.65001 l -17.75,-18.67826 v 0 0 z"
         id="path2653-4-7"
         style="fill:#bac8df;fill-opacity:1;stroke-width:0.48092"
         sodipodi:nodetypes="cccccccc" />
      <path
         d="m 386.57143,525.03173 11.48548,12.3465 -1e-5,0.0102 0.64953,-0.006 v 0.006 l -12.12986,-12.97496 v 0 0 z"
         id="path2653-4-3-0"
         style="fill:#bac8df;fill-opacity:1;stroke-width:0.330034"
         sodipodi:nodetypes="ccccccccc" />
    </g>
    <path
       d="m 394.81788,508.77527 c -0.0837,0.16441 -0.16661,0.32548 -0.24645,0.49007 1.26567,0.70478 4.91318,2.54091 6.6445,3.63012 2.18835,1.34288 5.14616,4.0844 5.37896,4.54528 -2.276,3.97286 -1.24319,7.48992 -1.51212,7.86416 -0.1934,0.3122 -1.98221,2.2823 -1.40626,2.57266 0.57156,0.28657 1.48059,-0.1637 1.61789,-0.2511 0.28576,-0.17607 0.58048,-0.43194 0.45673,0.0805 -0.24191,1.03487 -1.33994,3.52434 0.17552,2.99546 0.18448,-0.10726 2.6235,-2.80094 2.91841,-2.89351 4.85222,1.26789 10.27962,0.68677 11.28425,0.216 0.52321,0.0415 2.00375,0.96894 2.84744,1.41477 0.84404,0.44117 3.14258,1.5455 2.46166,-0.4623 -0.21136,-0.63517 -1.72232,-2.25639 -1.47697,-2.36226 0.54004,-0.21617 1.87643,0.55973 2.39065,0.70448 1.53804,0.43204 1.74488,-0.16585 0.774,-1.48338 -0.95856,-1.31815 -1.10247,-1.11507 -1.40625,-1.72231 -0.23748,-0.49033 0,-1.03082 0.17529,-1.16255 0.31185,-0.23802 4.90438,-2.79394 5.98096,-3.77219 1.5953,-1.45405 0,-3.26788 -0.39137,-3.52462 -3.30889,-2.38686 -6.70654,-1.87607 -6.75047,-2.25495 -0.0226,-0.43192 -0.0143,-1.67911 -0.0707,-2.11018 -0.32942,-2.92576 -1.67851,-2.19023 -1.86293,-2.19023 -1.34909,0.21286 -0.85296,2.28277 -0.28152,4.22949 0.0442,0.49785 -0.47001,0.27786 -0.77401,-0.2472 -1.03716,-2.78851 -1.47251,-2.73929 -1.75823,-2.82312 -0.27688,-0.065 -1.2523,0.53284 -1.23543,1.66054 0.005,0.32221 0.38713,1.85622 0.38713,2.32646 -0.6368,0.56012 -0.66831,1.8286 -1.33669,2.29099 -1.94631,0.40587 -6.62317,-0.96432 -7.207,-1.02533 -2.02166,-0.37973 -2.90494,1.14047 -3.23006,0.7757 -2.62354,-3.0136 -6.63223,-5.25207 -8.36815,-5.6395 -0.67282,-0.14451 -2.94423,-1.15104 -3.76224,-1.65779 -0.13151,-0.0829 -0.28117,-0.13461 -0.42636,-0.21126 z m 29.25037,7.01403 c 0.0224,-0.0295 0.0481,0 0.0734,0.0407 0.19355,0.64304 0.4085,1.25477 1.68317,1.40927 0.14963,0.0289 -0.70753,0.5212 -1.29606,0.21315 -0.53673,-0.32688 -0.58494,-1.51226 -0.46122,-1.65719 z m 3.30528,3.23796 c 0.11804,-0.0289 0.20262,-0.0289 0.28575,0 0.31181,0.0847 -2.26124,1.42314 -2.46145,1.23826 -0.12258,-0.1181 1.37131,-1.08825 2.18025,-1.23826 z m 0.67285,0.85002 c 0.26772,0.0253 -1.48957,1.84649 -1.68766,1.65739 -0.14509,-0.13112 1.13858,-1.7015 1.68766,-1.65739 z"
       id="path3"
       style="fill:#f2f2f2;fill-opacity:0.6;stroke-width:0.915459" />
  </g>
</svg>
