<svg xmlns="http://www.w3.org/2000/svg" width="16" height="16" version="1.1"><defs><linearGradient id="linear0" x1="0%" x2="0%" y1="0%" y2="100%"><stop offset="0%" style="stop-color:#ffd000; stop-opacity:1"/><stop offset="50%" style="stop-color:#24dbdb; stop-opacity:1"/><stop offset="100%" style="stop-color:#0073ff; stop-opacity:1"/></linearGradient></defs>
 <path fill="url(#linear0)"  d="M 2 0 L 0 10.667 L 16 10.667 L 14 0 L 2 0 Z M 0 11.333 L 0 16 L 16 16 L 16 11.333 L 0 11.333 Z M 1.333 12.667 L 2 12.667 L 2 14 L 3.333 14 L 3.333 12.667 L 4 12.667 L 4 14 L 5.333 14 L 5.333 12.667 L 6 12.667 L 6 14 L 7.333 14 L 7.333 12.667 L 8 12.667 L 8 14 L 9.333 14 L 9.333 12.667 L 10 12.667 L 10 14.667 L 1.333 14.667 L 1.333 12.667 Z M 12 13.333 L 14.667 13.333 L 14.667 14.667 L 12 14.667 L 12 13.333 Z"/>
</svg>
