<svg xmlns="http://www.w3.org/2000/svg" width="16" height="16" version="1.1"><defs><linearGradient id="linear0" x1="0%" x2="100%" y1="0%" y2="100%"><stop offset="0%" style="stop-color:#e5ff00; stop-opacity:1"/><stop offset="50%" style="stop-color:#0073ff; stop-opacity:1"/><stop offset="100%" style="stop-color:#ff0000; stop-opacity:1"/></linearGradient></defs>
 <path fill="url(#linear0)"  d="M 8.1425781 0.0078125 C 6.4398881 -0.0286469 4.0292969 0.0083501 4.0292969 1.3554688 C 4.0292969 3.1177788 4.0208488 5.50141 4.0117188 7.8125 C 4.0031387 9.98744 3.9941406 12.098959 3.9941406 13.568359 C 3.9941406 15.972559 4.8519125 15.977841 7.5703125 15.994141 C 7.6978225 15.994941 7.8290438 15.994994 7.9648438 15.996094 C 11.208574 16.021494 12.005859 15.996759 12.005859 13.568359 L 12.005859 1.3554688 C 12.005859 0.08080045 9.9761269 0.043047775 8.4042969 0.013671875 C 8.3151669 0.012005775 8.2283181 0.00964843 8.1425781 0.0078125 z M 7.4375 1.3691406 L 8.546875 1.3691406 C 10.024315 1.3494816 11.828125 1.4030625 11.828125 2.5859375 C 11.828125 3.9986775 11.812222 5.0177575 11.794922 6.7734375 C 11.776822 8.6082375 11.757812 9.8837938 11.757812 11.496094 C 11.757812 13.250894 11.509286 13.464844 8.0351562 13.464844 C 4.6681862 13.464844 4.2070312 13.109094 4.2070312 11.496094 C 4.2070312 10.215994 4.2105737 9.1176687 4.2148438 7.3554688 C 4.2194237 5.4575787 4.2246094 4.1851775 4.2246094 2.5859375 C 4.2246094 1.4059255 5.88636 1.3495166 7.4375 1.3691406 z M 7.9863281 14.005859 A 0.75 0.75 0 0 1 8 14.005859 A 0.75 0.75 0 0 1 8.75 14.755859 A 0.75 0.75 0 0 1 8 15.505859 A 0.75 0.75 0 0 1 7.25 14.755859 A 0.75 0.75 0 0 1 7.9863281 14.005859 z"/>
</svg>
