<?xml version="1.0" encoding="UTF-8" standalone="no"?>
<svg
   width="64"
   height="64"
   version="1.1"
   id="svg17"
   sodipodi:docname="brave.svg"
   inkscape:version="1.4 (1:1.4+202410161351+e7c3feb100)"
   xmlns:inkscape="http://www.inkscape.org/namespaces/inkscape"
   xmlns:sodipodi="http://sodipodi.sourceforge.net/DTD/sodipodi-0.dtd"
   xmlns="http://www.w3.org/2000/svg"
   xmlns:svg="http://www.w3.org/2000/svg"
   xmlns:rdf="http://www.w3.org/1999/02/22-rdf-syntax-ns#"
   xmlns:cc="http://creativecommons.org/ns#"
   xmlns:dc="http://purl.org/dc/elements/1.1/">
  <sodipodi:namedview
     id="namedview19"
     pagecolor="#ffffff"
     bordercolor="#666666"
     borderopacity="1.0"
     inkscape:pageshadow="2"
     inkscape:pageopacity="0.0"
     inkscape:pagecheckerboard="0"
     showgrid="false"
     inkscape:zoom="5.1015624"
     inkscape:cx="-9.5068914"
     inkscape:cy="8.9188362"
     inkscape:window-width="1920"
     inkscape:window-height="1024"
     inkscape:window-x="0"
     inkscape:window-y="0"
     inkscape:window-maximized="1"
     inkscape:current-layer="svg17"
     inkscape:showpageshadow="2"
     inkscape:deskcolor="#d1d1d1" />
  <metadata
     id="metadata2">
    <rdf:RDF>
      <cc:Work
         rdf:about="">
        <dc:format>image/svg+xml</dc:format>
        <dc:type
           rdf:resource="http://purl.org/dc/dcmitype/StillImage" />
      </cc:Work>
    </rdf:RDF>
  </metadata>
  <defs
     id="defs9">
    <style
       type="text/css"
       id="current-color-scheme">
      .ColorScheme-Text {
      color:#31363b;
      }
      .ColorScheme-Background {
      color:#eff0f1;
      }
      .ColorScheme-Highlight {
      color:#3daee9;
      }
      .ColorScheme-ViewText {
      color:#31363b;
      }
      .ColorScheme-ViewBackground {
      color:#fcfcfc;
      }
      .ColorScheme-ViewHover {
      color:#93cee9;
      }
      .ColorScheme-ViewFocus{
      color:#3daee9;
      }
      .ColorScheme-ButtonText {
      color:#31363b;
      }
      .ColorScheme-NeutralText {
      color:#e04007;
      }
      .ColorScheme-ButtonBackground {
      color:#eff0f1;
      }
      .ColorScheme-ButtonHover {
      color:#93cee9;
      }
      .ColorScheme-ButtonFocus{
      color:#3daee9;
      }
    </style>
    <linearGradient
       id="linearGradient844"
       x1="15"
       x2="35"
       y1="8"
       y2="38"
       gradientTransform="matrix(1.3636,0,0,1.3636,-0.72727,-0.7274)"
       gradientUnits="userSpaceOnUse">
      <stop
         stop-color="#18d862"
         offset="0"
         id="stop4"
         style="stop-color:#00c38d;stop-opacity:1" />
      <stop
         stop-color="#1cd664"
         offset="1"
         id="stop6"
         style="stop-color:#00b294;stop-opacity:1" />
    </linearGradient>
  </defs>
  <circle
     style="opacity:1;fill-opacity:1;stroke:none;stroke-width:0.616919;stroke-linecap:round;stroke-linejoin:round;stroke-opacity:1;paint-order:stroke markers fill"
     id="circle1246"
     cx="32"
     cy="32"
     r="30.008783"
     class="ColorScheme-NeutralText"
     fill="currentColor" />
  <g
     id="g3"
     style="opacity:0.51002935">
    <path
       inkscape:connector-curvature="0"
       id="path1"
       d="m 32.610413,13.827803 -6.246765,0.03951 -3.667474,3.989016 -0.657683,-0.234323 c -1.423137,-0.510657 -2.999123,-0.145965 -4.05678,0.933187 l -2.44492,2.458234 c -0.164845,0.163843 -0.206909,0.397309 -0.125312,0.602892 l 0.913347,2.056793 -1.269471,3.434138 0.81215,3.110605 3.687754,14.159678 c 0.420132,1.631145 1.402344,3.058483 2.783073,4.048493 0,0 4.511853,3.204957 8.955577,6.107371 0.396517,0.260959 0.805632,0.440082 1.243952,0.441244 0.438324,0.0011 0.849908,-0.175669 1.247852,-0.434485 5.022231,-3.273661 8.98893,-6.07163 8.98893,-6.07163 1.372451,-0.982457 2.362734,-2.404292 2.791821,-4.033128 l 3.736987,-14.139332 0.817304,-3.121067 -1.265519,-3.441128 0.882671,-1.969566 c 0.110291,-0.259603 0.05626,-0.54781 -0.134977,-0.753999 L 47.211612,18.578947 C 46.159808,17.52139 44.600447,17.14783 43.188269,17.637066 l -0.672363,0.230678 -3.660523,-3.982326 -6.204803,-0.05651 z m 0.148634,6.102571 c 0.424629,-0.0096 0.94547,0.11242 0.94547,0.11242 0.164401,0.03926 0.451618,0.125321 0.629536,0.180745 l 2.559548,0.82764 c 0.177899,0.05705 0.465128,0.07013 0.643306,0.04133 l 0.05531,-0.01015 c 0.178117,-0.02775 0.46555,-0.08108 0.643769,-0.121798 l 3.056451,-0.59483 c 0.178176,-0.02775 0.329318,-0.05541 0.329318,-0.05541 l 0.02719,-0.0011 c 0.01393,-0.01115 0.122416,0.109135 0.231681,0.24595 l 1.99341,2.512223 c 0.122852,0.151102 0.300751,0.384534 0.39621,0.535495 l 1.541242,2.290478 c 0.109176,0.150824 0.245819,0.412647 0.327584,0.577322 l 0.135952,0.396521 c 0.0265,0.178675 0.03874,0.48031 0.03825,0.658445 0,0 -5.8e-4,0.06773 -0.05602,0.245463 -0.08304,0.328767 -0.329998,0.629757 -0.302674,0.670943 -0.123649,0.13653 -0.315577,0.355189 -0.439266,0.491976 l -4.546999,4.812358 c -0.123669,0.136788 -0.166352,0.383291 -0.09823,0.547722 l 0.939658,2.235206 c 0.06802,0.16438 0.08067,0.452212 0.01214,0.616673 l -0.262572,0.697784 c -0.207091,0.588431 -0.577839,1.108486 -1.072042,1.504405 l -0.919531,0.749607 c -0.137307,0.109256 -0.38414,0.14949 -0.548322,0.06675 l -2.91408,-1.390219 c -0.164221,-0.06867 -0.410452,-0.235314 -0.54715,-0.358692 l -2.077049,-1.882414 c -0.30059,-0.274575 -0.325805,-0.752876 -0.03721,-1.039721 l 4.378047,-2.947464 c 0.150942,-0.109016 0.205217,-0.314924 0.12345,-0.479359 l -1.920395,-3.621568 c -0.09548,-0.150863 -0.0956,-0.424078 -0.02658,-0.588371 l 0.235324,-0.534352 c 0.06896,-0.178057 0.274501,-0.355327 0.439079,-0.423164 l 5.635843,-2.120419 c 0.178237,-0.06773 0.163505,-0.137844 -0.01433,-0.15164 L 38.66565,24.274512 c -0.177898,-0.01175 -0.465325,-9.58e-4 -0.643575,0.05483 l -3.234507,0.895233 c -0.178138,0.0391 -0.288675,0.232258 -0.261769,0.410114 l 1.092771,6.152841 c 0.04071,0.178217 0.02644,0.438561 -0.01513,0.561475 -0.04167,0.122872 -0.220296,0.260883 -0.398505,0.301374 l -2.09693,0.473896 c -0.178138,0.0391 -0.465435,0.03815 -0.64345,-0.0016 l -2.24622,-0.485937 c -0.178136,-0.03872 -0.354679,-0.166333 -0.395338,-0.303463 -0.04083,-0.137425 -0.03958,-0.383314 -0.01214,-0.561551 l 1.139878,-6.146712 c 0.02815,-0.178496 -0.08156,-0.356336 -0.259518,-0.411578 L 27.46164,24.300487 c -0.178177,-0.03872 -0.466615,-0.07039 -0.64478,-0.05831 l -3.630636,0.332571 c -0.178038,0.01 -0.177997,0.0829 -0.01413,0.151798 l 5.624208,2.124457 c 0.164221,0.06867 0.368693,0.260923 0.436751,0.425585 l 0.230872,0.535616 c 0.06802,0.164381 0.05415,0.423936 -0.0286,0.588208 l -1.926792,3.611029 c -0.0826,0.164043 -0.02982,0.383629 0.120822,0.479985 l 4.361876,2.956569 c 0.27314,0.302154 0.257541,0.767821 -0.04457,1.041012 l -2.085866,1.870961 c -0.137325,0.122494 -0.384526,0.286165 -0.54914,0.367563 l -2.908138,1.375667 c -0.164639,0.082 -0.411197,0.03824 -0.547955,-0.06961 L 24.940099,39.290792 C 24.448086,38.892158 24.08045,38.371649 23.862905,37.78206 l -0.258728,-0.699273 c -0.06797,-0.178694 -0.05405,-0.452179 0.01552,-0.616515 l 0.951899,-2.230116 c 0.06891,-0.164022 0.02758,-0.41135 -0.09532,-0.548266 l -4.520582,-4.833589 c -0.122893,-0.123271 -0.327345,-0.357007 -0.436504,-0.494417 0,0 -0.232457,-0.301997 -0.327442,-0.630904 -0.05421,-0.191954 -0.05463,-0.247394 -0.05463,-0.247394 -0.01314,-0.177958 0.01552,-0.478512 0.04356,-0.656707 L 19.3188,26.427411 c 0.08258,-0.164042 0.234447,-0.423715 0.33075,-0.574034 l 1.553779,-2.283549 c 0.109953,-0.150286 0.289169,-0.397041 0.399139,-0.533305 l 2.00566,-2.501181 c 0.109931,-0.136791 0.220817,-0.245101 0.234536,-0.245059 l 0.02719,-0.0011 c 0,0 0.151163,0.01015 0.329067,0.05694 l 3.08,0.583488 c 0.178018,0.02863 0.465109,0.09717 0.643122,0.125062 l 0.05526,0.01055 c 0.177978,0.02867 0.465309,0.01195 0.643546,-0.03779 l 2.564043,-0.813591 c 0.16454,-0.05608 0.452319,-0.13637 0.630508,-0.17732 0,0 0.52,-0.108479 0.944579,-0.107106 z m -0.217629,19.086397 0.218975,5.25e-4 0.218974,5.26e-4 c 0.05469,4.6e-4 0.233002,0.05811 0.39733,0.124645 l 1.777827,0.745098 c 0.164222,0.06867 0.438352,0.191337 0.602456,0.274306 l 2.681664,1.377641 c 0.164141,0.08299 0.176823,0.233576 0.02608,0.342622 l -2.374275,1.678054 c -0.150943,0.109017 -0.385094,0.286778 -0.522445,0.409432 l -1.05703,0.914578 c -0.137325,0.123032 -0.356888,0.313323 -0.494186,0.436552 l -1.043578,0.90123 c -0.137326,0.122494 -0.356363,0.121956 -0.492998,-0.0012 l -1.01032,-0.906914 C 31.333243,45.190615 31.114718,44.99859 30.978107,44.874581 l -1.052029,-0.90694 c -0.13667,-0.123855 -0.369805,-0.302483 -0.520194,-0.412849 l -2.36509,-1.677611 c -0.150365,-0.110012 -0.136788,-0.260266 0.02797,-0.342474 l 2.68924,-1.389718 c 0.16464,-0.08201 0.439436,-0.203147 0.603965,-0.270922 l 1.781878,-0.735361 c 0.164581,-0.06771 0.343234,-0.122654 0.398025,-0.122455 z"
       style="fill:#00020c;fill-opacity:0.0849487;stroke-width:0.136974" />
    <path
       inkscape:connector-curvature="0"
       id="path2"
       d="m 33.296477,14.807895 -6.246765,0.03951 -3.667474,3.989016 -0.657683,-0.234323 c -1.423137,-0.510657 -2.999123,-0.145965 -4.05678,0.933187 l -2.44492,2.458234 c -0.164845,0.163843 -0.206909,0.397309 -0.125312,0.602892 l 0.913347,2.056793 -1.269471,3.434138 0.81215,3.110605 3.687754,14.159678 c 0.420132,1.631145 1.402344,3.058483 2.783073,4.048493 0,0 4.511853,3.204957 8.955577,6.107371 0.396517,0.260959 0.805632,0.440082 1.243952,0.441244 0.438324,0.0011 0.849908,-0.175669 1.247852,-0.434485 5.022231,-3.273661 8.98893,-6.07163 8.98893,-6.07163 1.372451,-0.982457 2.362734,-2.404292 2.791821,-4.033128 l 3.736987,-14.139332 0.817304,-3.121067 -1.265519,-3.441128 0.882671,-1.969566 c 0.110291,-0.259603 0.05626,-0.54781 -0.134977,-0.753999 L 47.897676,19.559039 C 46.845872,18.501482 45.286511,18.127922 43.874333,18.617158 L 43.20197,18.847836 39.541447,14.86551 33.336644,14.809 Z m 0.148634,6.102571 c 0.424629,-0.0096 0.94547,0.11242 0.94547,0.11242 0.164401,0.03926 0.451618,0.125321 0.629536,0.180745 l 2.559548,0.82764 c 0.177899,0.05705 0.465128,0.07013 0.643306,0.04133 l 0.05531,-0.01015 c 0.178117,-0.02775 0.46555,-0.08108 0.643769,-0.121798 l 3.056451,-0.59483 c 0.178176,-0.02775 0.329318,-0.05541 0.329318,-0.05541 l 0.02719,-0.0011 c 0.01393,-0.01115 0.122416,0.109135 0.231681,0.24595 l 1.99341,2.512223 c 0.122852,0.151102 0.300751,0.384534 0.39621,0.535495 l 1.541242,2.290478 c 0.109176,0.150824 0.245819,0.412647 0.327584,0.577322 l 0.135952,0.396521 c 0.0265,0.178675 0.03874,0.48031 0.03825,0.658445 0,0 -5.8e-4,0.06773 -0.05602,0.245463 -0.08304,0.328767 -0.329998,0.629757 -0.302674,0.670943 -0.123649,0.13653 -0.315577,0.355189 -0.439266,0.491976 l -4.546999,4.812358 c -0.123669,0.136788 -0.166352,0.383291 -0.09823,0.547722 l 0.939658,2.235206 c 0.06802,0.16438 0.08067,0.452212 0.01214,0.616673 l -0.262572,0.697784 c -0.207091,0.588431 -0.577839,1.108486 -1.072042,1.504405 l -0.919531,0.749607 c -0.137307,0.109256 -0.38414,0.14949 -0.548322,0.06675 L 36.7914,39.754415 c -0.164221,-0.06867 -0.410452,-0.235314 -0.54715,-0.358692 l -2.077049,-1.882414 c -0.30059,-0.274575 -0.325805,-0.752876 -0.03721,-1.039721 l 4.378047,-2.947464 c 0.150942,-0.109016 0.205217,-0.314924 0.12345,-0.479359 l -1.920395,-3.621568 c -0.09548,-0.150863 -0.0956,-0.424078 -0.02658,-0.588371 l 0.235324,-0.534352 c 0.06896,-0.178057 0.274501,-0.355327 0.439079,-0.423164 l 5.635843,-2.120419 c 0.178237,-0.06773 0.163505,-0.137844 -0.01433,-0.15164 l -3.628715,-0.352647 c -0.177898,-0.01175 -0.465325,-9.58e-4 -0.643575,0.05483 l -3.234507,0.895233 c -0.178138,0.0391 -0.288675,0.232258 -0.261769,0.410114 l 1.092771,6.152841 c 0.04071,0.178217 0.02644,0.438561 -0.01513,0.561475 -0.04167,0.122872 -0.220296,0.260883 -0.398505,0.301374 l -2.09693,0.473896 c -0.178138,0.0391 -0.465435,0.03815 -0.64345,-0.0016 l -2.24622,-0.485937 c -0.178136,-0.03872 -0.354679,-0.166333 -0.395338,-0.303463 -0.04083,-0.137425 -0.03958,-0.383314 -0.01214,-0.561551 l 1.139878,-6.146712 c 0.02815,-0.178496 -0.08156,-0.356336 -0.259518,-0.411578 l -3.229577,-0.912947 c -0.178177,-0.03872 -0.466615,-0.07039 -0.64478,-0.05831 l -3.630636,0.332571 c -0.178038,0.01 -0.177997,0.0829 -0.01413,0.151798 l 5.624208,2.124457 c 0.164221,0.06867 0.368693,0.260923 0.436751,0.425585 l 0.230872,0.535616 c 0.06802,0.164381 0.05415,0.423936 -0.0286,0.588208 l -1.926792,3.611029 c -0.0826,0.164043 -0.02982,0.383629 0.120822,0.479985 l 4.361876,2.956569 c 0.27314,0.302154 0.257541,0.767821 -0.04457,1.041012 l -2.085866,1.870961 c -0.137325,0.122494 -0.384526,0.286165 -0.54914,0.367563 l -2.908138,1.375667 c -0.164639,0.082 -0.411197,0.03824 -0.547955,-0.06961 L 25.626163,40.270884 C 25.13415,39.87225 24.766514,39.351741 24.548969,38.762152 l -0.258728,-0.699273 c -0.06797,-0.178694 -0.05405,-0.452179 0.01552,-0.616515 l 0.951899,-2.230116 c 0.06891,-0.164022 0.02758,-0.41135 -0.09532,-0.548266 l -4.520582,-4.833589 c -0.122893,-0.123271 -0.327345,-0.357007 -0.436504,-0.494417 0,0 -0.232457,-0.301997 -0.327442,-0.630904 -0.05421,-0.191954 -0.05463,-0.247394 -0.05463,-0.247394 -0.01314,-0.177958 0.01552,-0.478512 0.04356,-0.656707 l 0.138122,-0.397468 c 0.08258,-0.164042 0.234447,-0.423715 0.33075,-0.574034 l 1.553779,-2.283549 c 0.109953,-0.150286 0.289169,-0.397041 0.399139,-0.533305 l 2.00566,-2.501181 c 0.109931,-0.136791 0.220817,-0.245101 0.234536,-0.245059 l 0.02719,-0.0011 c 0,0 0.151163,0.01015 0.329067,0.05694 l 3.08,0.583488 c 0.178018,0.02863 0.465109,0.09717 0.643122,0.125062 l 0.05526,0.01055 c 0.177978,0.02867 0.465309,0.01195 0.643546,-0.03779 l 2.564043,-0.813591 c 0.16454,-0.05608 0.452319,-0.13637 0.630508,-0.17732 0,0 0.52,-0.108479 0.944579,-0.107106 z m -0.217629,19.086397 0.218975,5.25e-4 0.218974,5.26e-4 c 0.05469,4.6e-4 0.233002,0.05811 0.39733,0.124645 l 1.777827,0.745098 c 0.164222,0.06867 0.438352,0.191337 0.602456,0.274306 l 2.681664,1.377641 c 0.164141,0.08299 0.176823,0.233576 0.02608,0.342622 l -2.374275,1.678054 c -0.150943,0.109017 -0.385094,0.286778 -0.522445,0.409432 l -1.05703,0.914578 c -0.137325,0.123032 -0.356888,0.313323 -0.494186,0.436552 l -1.043578,0.90123 c -0.137326,0.122494 -0.356363,0.121956 -0.492998,-0.0012 l -1.01032,-0.906914 c -0.136649,-0.123251 -0.355174,-0.315276 -0.491785,-0.439285 l -1.052029,-0.90694 c -0.13667,-0.123855 -0.369805,-0.302483 -0.520194,-0.412849 l -2.36509,-1.677611 c -0.150365,-0.110012 -0.136788,-0.260266 0.02797,-0.342474 l 2.68924,-1.389718 c 0.16464,-0.08201 0.439436,-0.203147 0.603965,-0.270922 l 1.781878,-0.735361 c 0.164581,-0.06771 0.343234,-0.122654 0.398025,-0.122455 z"
       style="fill:#00020c;fill-opacity:0.0849487;stroke-width:0.136974" />
    <path
       inkscape:connector-curvature="0"
       id="path3"
       d="m 34.423583,15.935001 -6.246765,0.03951 -3.667474,3.989016 -0.657683,-0.234323 c -1.423137,-0.510657 -2.999123,-0.145965 -4.05678,0.933187 l -2.44492,2.458234 c -0.164845,0.163843 -0.206909,0.397309 -0.125312,0.602892 l 0.913347,2.056793 -1.269471,3.434138 0.81215,3.110605 3.687754,14.159678 c 0.420132,1.631145 1.402344,3.058483 2.783073,4.048493 0,0 4.511853,3.204957 8.955577,6.107371 0.396517,0.260959 0.805632,0.440082 1.243952,0.441244 0.438324,0.0011 0.849908,-0.175669 1.247852,-0.434485 5.022231,-3.273661 8.98893,-6.07163 8.98893,-6.07163 1.372451,-0.982457 2.362734,-2.404292 2.791821,-4.033128 l 3.736987,-14.139332 0.817304,-3.121067 -1.265519,-3.441128 0.882671,-1.969566 c 0.110291,-0.259603 0.05626,-0.54781 -0.134977,-0.753999 l -2.391318,-2.431359 c -1.051804,-1.057557 -2.611165,-1.431117 -4.023343,-0.941881 l -0.672363,0.230678 -3.660523,-3.982326 -6.204803,-0.05651 z m 0.148634,6.102571 c 0.424629,-0.0096 0.94547,0.11242 0.94547,0.11242 0.164401,0.03926 0.451618,0.125321 0.629536,0.180745 l 2.559548,0.82764 c 0.177899,0.05705 0.465128,0.07013 0.643306,0.04133 l 0.05531,-0.01015 c 0.178117,-0.02775 0.46555,-0.08108 0.643769,-0.121798 l 3.056451,-0.59483 c 0.178176,-0.02775 0.329318,-0.05541 0.329318,-0.05541 l 0.02719,-0.0011 c 0.01393,-0.01115 0.122416,0.109135 0.231681,0.24595 l 1.99341,2.512223 c 0.122852,0.151102 0.300751,0.384534 0.39621,0.535495 l 1.541242,2.290478 c 0.109176,0.150824 0.245819,0.412647 0.327584,0.577322 l 0.135952,0.396521 c 0.0265,0.178675 0.03874,0.48031 0.03825,0.658445 0,0 -5.8e-4,0.06773 -0.05602,0.245463 -0.08304,0.328767 -0.329998,0.629757 -0.302674,0.670943 -0.123649,0.13653 -0.315577,0.355189 -0.439266,0.491976 l -4.546999,4.812358 c -0.123669,0.136788 -0.166352,0.383291 -0.09823,0.547722 l 0.939658,2.235206 c 0.06802,0.16438 0.08067,0.452212 0.01214,0.616673 l -0.262572,0.697784 c -0.207091,0.588431 -0.577839,1.108486 -1.072042,1.504405 l -0.919531,0.749607 c -0.137307,0.109256 -0.38414,0.14949 -0.548322,0.06675 l -2.91408,-1.390219 c -0.164221,-0.06867 -0.410452,-0.235314 -0.54715,-0.358692 l -2.077049,-1.882414 c -0.30059,-0.274575 -0.325805,-0.752876 -0.03721,-1.039721 l 4.378047,-2.947464 c 0.150942,-0.109016 0.205217,-0.314924 0.12345,-0.479359 l -1.920395,-3.621568 c -0.09548,-0.150863 -0.0956,-0.424078 -0.02658,-0.588371 l 0.235324,-0.534352 c 0.06896,-0.178057 0.274501,-0.355327 0.439079,-0.423164 l 5.635843,-2.120419 c 0.178237,-0.06773 0.163505,-0.137844 -0.01433,-0.15164 L 40.47882,26.38171 c -0.177898,-0.01175 -0.465325,-9.58e-4 -0.643575,0.05483 l -3.234507,0.895233 c -0.178138,0.0391 -0.288675,0.232258 -0.261769,0.410114 l 1.092771,6.152841 c 0.04071,0.178217 0.02644,0.438561 -0.01513,0.561475 -0.04167,0.122872 -0.220296,0.260883 -0.398505,0.301374 l -2.09693,0.473896 c -0.178138,0.0391 -0.465435,0.03815 -0.64345,-0.0016 l -2.24622,-0.485937 c -0.178136,-0.03872 -0.354679,-0.166333 -0.395338,-0.303463 -0.04083,-0.137425 -0.03958,-0.383314 -0.01214,-0.561551 l 1.139878,-6.146712 c 0.02815,-0.178496 -0.08156,-0.356336 -0.259518,-0.411578 L 29.27481,26.407685 c -0.178177,-0.03872 -0.466615,-0.07039 -0.64478,-0.05831 l -3.630636,0.332571 c -0.178038,0.01 -0.177997,0.0829 -0.01413,0.151798 l 5.624208,2.124457 c 0.164221,0.06867 0.368693,0.260923 0.436751,0.425585 l 0.230872,0.535616 c 0.06802,0.164381 0.05415,0.423936 -0.0286,0.588208 l -1.926792,3.611029 c -0.0826,0.164043 -0.02982,0.383629 0.120822,0.479985 l 4.361876,2.956569 c 0.27314,0.302154 0.257541,0.767821 -0.04457,1.041012 l -2.085866,1.870961 c -0.137325,0.122494 -0.384526,0.286165 -0.54914,0.367563 l -2.908138,1.375667 c -0.164639,0.082 -0.411197,0.03824 -0.547955,-0.06961 L 26.753269,41.39799 C 26.261256,40.999356 25.89362,40.478847 25.676075,39.889258 l -0.258728,-0.699273 c -0.06797,-0.178694 -0.05405,-0.452179 0.01552,-0.616515 l 0.951899,-2.230116 c 0.06891,-0.164022 0.02758,-0.41135 -0.09532,-0.548266 l -4.520582,-4.833589 c -0.122893,-0.123271 -0.327345,-0.357007 -0.436504,-0.494417 0,0 -0.232457,-0.301997 -0.327442,-0.630904 -0.05421,-0.191954 -0.05463,-0.247394 -0.05463,-0.247394 -0.01314,-0.177958 0.01552,-0.478512 0.04356,-0.656707 l 0.138122,-0.397468 c 0.08258,-0.164042 0.234447,-0.423715 0.33075,-0.574034 l 1.553779,-2.283549 c 0.109953,-0.150286 0.289169,-0.397041 0.399139,-0.533305 l 2.00566,-2.501181 c 0.109931,-0.136791 0.220817,-0.245101 0.234536,-0.245059 l 0.02719,-0.0011 c 0,0 0.151163,0.01015 0.329067,0.05694 l 3.08,0.583488 c 0.178018,0.02863 0.465109,0.09717 0.643122,0.125062 l 0.05526,0.01055 c 0.177978,0.02867 0.465309,0.01195 0.643546,-0.03779 l 2.564043,-0.813591 c 0.16454,-0.05608 0.452319,-0.13637 0.630508,-0.17732 0,0 0.52,-0.108479 0.944579,-0.107106 z m -0.217629,19.086397 0.218975,5.25e-4 0.218974,5.26e-4 c 0.05469,4.6e-4 0.233002,0.05811 0.39733,0.124645 l 1.777827,0.745098 c 0.164222,0.06867 0.438352,0.191337 0.602456,0.274306 l 2.681664,1.377641 c 0.164141,0.08299 0.176823,0.233576 0.02608,0.342622 l -2.374275,1.678054 c -0.150943,0.109017 -0.385094,0.286778 -0.522445,0.409432 l -1.05703,0.914578 c -0.137325,0.123032 -0.356888,0.313323 -0.494186,0.436552 l -1.043578,0.90123 c -0.137326,0.122494 -0.356363,0.121956 -0.492998,-0.0012 l -1.01032,-0.906914 c -0.136649,-0.123251 -0.355174,-0.315276 -0.491785,-0.439285 l -1.052029,-0.90694 c -0.13667,-0.123855 -0.369805,-0.302483 -0.520194,-0.412849 l -2.36509,-1.677611 c -0.150365,-0.110012 -0.136788,-0.260266 0.02797,-0.342474 l 2.68924,-1.389718 c 0.16464,-0.08201 0.439436,-0.203147 0.603965,-0.270922 l 1.781878,-0.735361 c 0.164581,-0.06771 0.343234,-0.122654 0.398025,-0.122455 z"
       style="fill:#00020c;fill-opacity:0.0849487;stroke-width:0.136974" />
  </g>
  <path
     inkscape:connector-curvature="0"
     id="path4531-3-2"
     d="m 32.022358,12.798707 -6.246765,0.03951 -3.667474,3.989016 -0.657683,-0.234323 c -1.423137,-0.510657 -2.999123,-0.145965 -4.05678,0.933187 l -2.44492,2.458234 c -0.164845,0.163843 -0.206909,0.397309 -0.125312,0.602892 l 0.913347,2.056793 -1.269471,3.434138 0.81215,3.110605 3.687754,14.159678 c 0.420132,1.631145 1.402344,3.058483 2.783073,4.048493 0,0 4.511853,3.204957 8.955577,6.107371 0.396517,0.260959 0.805632,0.440082 1.243952,0.441244 0.438324,0.0011 0.849908,-0.175669 1.247852,-0.434485 5.022231,-3.273661 8.98893,-6.07163 8.98893,-6.07163 1.372451,-0.982457 2.362734,-2.404292 2.791821,-4.033128 L 48.715396,29.26697 49.5327,26.145903 48.267181,22.704775 49.149852,20.735209 c 0.110291,-0.259603 0.05626,-0.54781 -0.134977,-0.753999 L 46.623557,17.549851 C 45.571753,16.492294 44.012392,16.118734 42.600214,16.60797 l -0.672363,0.230678 -3.660523,-3.982326 -6.204803,-0.05651 z m 0.148634,6.102571 c 0.424629,-0.0096 0.94547,0.11242 0.94547,0.11242 0.164401,0.03926 0.451618,0.125321 0.629536,0.180745 l 2.559548,0.82764 c 0.177899,0.05705 0.465128,0.07013 0.643306,0.04133 l 0.05531,-0.01015 c 0.178117,-0.02775 0.46555,-0.08108 0.643769,-0.121798 l 3.056451,-0.59483 c 0.178176,-0.02775 0.329318,-0.05541 0.329318,-0.05541 l 0.02719,-0.0011 c 0.01393,-0.01115 0.122416,0.109135 0.231681,0.24595 l 1.99341,2.512223 c 0.122852,0.151102 0.300751,0.384534 0.39621,0.535495 l 1.541242,2.290478 c 0.109176,0.150824 0.245819,0.412647 0.327584,0.577322 l 0.135952,0.396521 c 0.0265,0.178675 0.03874,0.48031 0.03825,0.658445 0,0 -5.8e-4,0.06773 -0.05602,0.245463 -0.08304,0.328767 -0.329998,0.629757 -0.302674,0.670943 -0.123649,0.13653 -0.315577,0.355189 -0.439266,0.491976 l -4.546999,4.812358 c -0.123669,0.136788 -0.166352,0.383291 -0.09823,0.547722 l 0.939658,2.235206 c 0.06802,0.16438 0.08067,0.452212 0.01214,0.616673 l -0.262572,0.697784 c -0.207091,0.588431 -0.577839,1.108486 -1.072042,1.504405 l -0.919531,0.749607 c -0.137307,0.109256 -0.38414,0.14949 -0.548322,0.06675 l -2.91408,-1.390219 c -0.164221,-0.06867 -0.410452,-0.235314 -0.54715,-0.358692 l -2.077049,-1.882414 c -0.30059,-0.274575 -0.325805,-0.752876 -0.03721,-1.039721 l 4.378047,-2.947464 c 0.150942,-0.109016 0.205217,-0.314924 0.12345,-0.479359 l -1.920395,-3.621568 c -0.09548,-0.150863 -0.0956,-0.424078 -0.02658,-0.588371 l 0.235324,-0.534352 c 0.06896,-0.178057 0.274501,-0.355327 0.439079,-0.423164 l 5.635843,-2.120419 c 0.178237,-0.06773 0.163505,-0.137844 -0.01433,-0.15164 l -3.628715,-0.352647 c -0.177898,-0.01175 -0.465325,-9.58e-4 -0.643575,0.05483 l -3.234507,0.895233 c -0.178138,0.0391 -0.288675,0.232258 -0.261769,0.410114 l 1.092771,6.152841 c 0.04071,0.178217 0.02644,0.438561 -0.01513,0.561475 -0.04167,0.122872 -0.220296,0.260883 -0.398505,0.301374 l -2.09693,0.473896 c -0.178138,0.0391 -0.465435,0.03815 -0.64345,-0.0016 l -2.24622,-0.485937 c -0.178136,-0.03872 -0.354679,-0.166333 -0.395338,-0.303463 -0.04083,-0.137425 -0.03958,-0.383314 -0.01214,-0.561551 L 30.36268,24.595916 C 30.39083,24.41742 30.28112,24.23958 30.103162,24.184338 l -3.229577,-0.912947 c -0.178177,-0.03872 -0.466615,-0.07039 -0.64478,-0.05831 l -3.630636,0.332571 c -0.178038,0.01 -0.177997,0.0829 -0.01413,0.151798 l 5.624208,2.124457 c 0.164221,0.06867 0.368693,0.260923 0.436751,0.425585 l 0.230872,0.535616 c 0.06802,0.164381 0.05415,0.423936 -0.0286,0.588208 l -1.926792,3.611029 c -0.0826,0.164043 -0.02982,0.383629 0.120822,0.479985 l 4.361876,2.956569 c 0.27314,0.302154 0.257541,0.767821 -0.04457,1.041012 l -2.085866,1.870961 c -0.137325,0.122494 -0.384526,0.286165 -0.54914,0.367563 l -2.908138,1.375667 c -0.164639,0.082 -0.411197,0.03824 -0.547955,-0.06961 L 24.352044,38.261696 C 23.860031,37.863062 23.492395,37.342553 23.27485,36.752964 l -0.258728,-0.699273 c -0.06797,-0.178694 -0.05405,-0.452179 0.01552,-0.616515 l 0.951899,-2.230116 c 0.06891,-0.164022 0.02758,-0.41135 -0.09532,-0.548266 l -4.520582,-4.833589 c -0.122893,-0.123271 -0.327345,-0.357007 -0.436504,-0.494417 0,0 -0.232457,-0.301997 -0.327442,-0.630904 -0.05421,-0.191954 -0.05463,-0.247394 -0.05463,-0.247394 -0.01314,-0.177958 0.01552,-0.478512 0.04356,-0.656707 l 0.138122,-0.397468 c 0.08258,-0.164042 0.234447,-0.423715 0.33075,-0.574034 l 1.553779,-2.283549 c 0.109953,-0.150286 0.289169,-0.397041 0.399139,-0.533305 l 2.00566,-2.501181 c 0.109931,-0.136791 0.220817,-0.245101 0.234536,-0.245059 l 0.02719,-0.0011 c 0,0 0.151163,0.01015 0.329067,0.05694 l 3.08,0.583488 c 0.178018,0.02863 0.465109,0.09717 0.643122,0.125062 l 0.05526,0.01055 c 0.177978,0.02867 0.465309,0.01195 0.643546,-0.03779 l 2.564043,-0.813591 c 0.16454,-0.05608 0.452319,-0.13637 0.630508,-0.17732 0,0 0.52,-0.108479 0.944579,-0.107106 z m -0.217629,19.086397 0.218975,5.25e-4 0.218974,5.26e-4 c 0.05469,4.6e-4 0.233002,0.05811 0.39733,0.124645 l 1.777827,0.745098 c 0.164222,0.06867 0.438352,0.191337 0.602456,0.274306 l 2.681664,1.377641 c 0.164141,0.08299 0.176823,0.233576 0.02608,0.342622 l -2.374275,1.678054 c -0.150943,0.109017 -0.385094,0.286778 -0.522445,0.409432 l -1.05703,0.914578 c -0.137325,0.123032 -0.356888,0.313323 -0.494186,0.436552 l -1.043578,0.90123 c -0.137326,0.122494 -0.356363,0.121956 -0.492998,-0.0012 l -1.01032,-0.906914 c -0.136649,-0.123251 -0.355174,-0.315276 -0.491785,-0.439285 l -1.052029,-0.90694 c -0.13667,-0.123855 -0.369805,-0.302483 -0.520194,-0.412849 l -2.36509,-1.677611 c -0.150365,-0.110012 -0.136788,-0.260266 0.02797,-0.342474 l 2.68924,-1.389718 c 0.16464,-0.08201 0.439436,-0.203147 0.603965,-0.270922 l 1.781878,-0.735361 c 0.164581,-0.06771 0.343234,-0.122654 0.398025,-0.122455 z"
     style="fill:#ffffff;fill-opacity:1;stroke-width:0.136974" />
  <path
     inkscape:connector-curvature="0"
     id="path4"
     d="m 32.022358,12.798707 -6.246765,0.03951 -3.667474,3.989016 -0.657683,-0.234323 c -1.423137,-0.510657 -2.999123,-0.145965 -4.05678,0.933187 l -2.44492,2.458234 c -0.164845,0.163843 -0.206909,0.397309 -0.125312,0.602892 l 0.913347,2.056793 -1.269471,3.434138 0.81215,3.110605 3.687754,14.159678 c 0.420132,1.631145 1.402344,3.058483 2.783073,4.048493 0,0 4.511853,3.204957 8.955577,6.107371 0.396517,0.260959 0.805632,0.440082 1.243952,0.441244 0.438324,0.0011 0.849908,-0.175669 1.247852,-0.434485 5.022231,-3.273661 8.98893,-6.07163 8.98893,-6.07163 1.372451,-0.982457 2.362734,-2.404292 2.791821,-4.033128 L 48.715396,29.26697 49.5327,26.145903 48.267181,22.704775 49.149852,20.735209 c 0.110291,-0.259603 0.05626,-0.54781 -0.134977,-0.753999 L 46.623557,17.549851 C 45.571753,16.492294 44.012392,16.118734 42.600214,16.60797 l -0.672363,0.230678 -3.660523,-3.982326 -6.204803,-0.05651 z m 0.148634,6.102571 c 0.424629,-0.0096 0.94547,0.11242 0.94547,0.11242 0.164401,0.03926 0.451618,0.125321 0.629536,0.180745 l 2.559548,0.82764 c 0.177899,0.05705 0.465128,0.07013 0.643306,0.04133 l 0.05531,-0.01015 c 0.178117,-0.02775 0.46555,-0.08108 0.643769,-0.121798 l 3.056451,-0.59483 c 0.178176,-0.02775 0.329318,-0.05541 0.329318,-0.05541 l 0.02719,-0.0011 c 0.01393,-0.01115 0.122416,0.109135 0.231681,0.24595 l 1.99341,2.512223 c 0.122852,0.151102 0.300751,0.384534 0.39621,0.535495 l 1.541242,2.290478 c 0.109176,0.150824 0.245819,0.412647 0.327584,0.577322 l 0.135952,0.396521 c 0.0265,0.178675 0.03874,0.48031 0.03825,0.658445 0,0 -5.8e-4,0.06773 -0.05602,0.245463 -0.08304,0.328767 -0.329998,0.629757 -0.302674,0.670943 -0.123649,0.13653 -0.315577,0.355189 -0.439266,0.491976 l -4.546999,4.812358 c -0.123669,0.136788 -0.166352,0.383291 -0.09823,0.547722 l 0.939658,2.235206 c 0.06802,0.16438 0.08067,0.452212 0.01214,0.616673 l -0.262572,0.697784 c -0.207091,0.588431 -0.577839,1.108486 -1.072042,1.504405 l -0.919531,0.749607 c -0.137307,0.109256 -0.38414,0.14949 -0.548322,0.06675 l -2.91408,-1.390219 c -0.164221,-0.06867 -0.410452,-0.235314 -0.54715,-0.358692 l -2.077049,-1.882414 c -0.30059,-0.274575 -0.325805,-0.752876 -0.03721,-1.039721 l 4.378047,-2.947464 c 0.150942,-0.109016 0.205217,-0.314924 0.12345,-0.479359 l -1.920395,-3.621568 c -0.09548,-0.150863 -0.0956,-0.424078 -0.02658,-0.588371 l 0.235324,-0.534352 c 0.06896,-0.178057 0.274501,-0.355327 0.439079,-0.423164 l 5.635843,-2.120419 c 0.178237,-0.06773 0.163505,-0.137844 -0.01433,-0.15164 l -3.628715,-0.352647 c -0.177898,-0.01175 -0.465325,-9.58e-4 -0.643575,0.05483 l -3.234507,0.895233 c -0.178138,0.0391 -0.288675,0.232258 -0.261769,0.410114 l 1.092771,6.152841 c 0.04071,0.178217 0.02644,0.438561 -0.01513,0.561475 -0.04167,0.122872 -0.220296,0.260883 -0.398505,0.301374 l -2.09693,0.473896 c -0.178138,0.0391 -0.465435,0.03815 -0.64345,-0.0016 l -2.24622,-0.485937 c -0.178136,-0.03872 -0.354679,-0.166333 -0.395338,-0.303463 -0.04083,-0.137425 -0.03958,-0.383314 -0.01214,-0.561551 L 30.36268,24.595916 C 30.39083,24.41742 30.28112,24.23958 30.103162,24.184338 l -3.229577,-0.912947 c -0.178177,-0.03872 -0.466615,-0.07039 -0.64478,-0.05831 l -3.630636,0.332571 c -0.178038,0.01 -0.177997,0.0829 -0.01413,0.151798 l 5.624208,2.124457 c 0.164221,0.06867 0.368693,0.260923 0.436751,0.425585 l 0.230872,0.535616 c 0.06802,0.164381 0.05415,0.423936 -0.0286,0.588208 l -1.926792,3.611029 c -0.0826,0.164043 -0.02982,0.383629 0.120822,0.479985 l 4.361876,2.956569 c 0.27314,0.302154 0.257541,0.767821 -0.04457,1.041012 l -2.085866,1.870961 c -0.137325,0.122494 -0.384526,0.286165 -0.54914,0.367563 l -2.908138,1.375667 c -0.164639,0.082 -0.411197,0.03824 -0.547955,-0.06961 L 24.352044,38.261696 C 23.860031,37.863062 23.492395,37.342553 23.27485,36.752964 l -0.258728,-0.699273 c -0.06797,-0.178694 -0.05405,-0.452179 0.01552,-0.616515 l 0.951899,-2.230116 c 0.06891,-0.164022 0.02758,-0.41135 -0.09532,-0.548266 l -4.520582,-4.833589 c -0.122893,-0.123271 -0.327345,-0.357007 -0.436504,-0.494417 0,0 -0.232457,-0.301997 -0.327442,-0.630904 -0.05421,-0.191954 -0.05463,-0.247394 -0.05463,-0.247394 -0.01314,-0.177958 0.01552,-0.478512 0.04356,-0.656707 l 0.138122,-0.397468 c 0.08258,-0.164042 0.234447,-0.423715 0.33075,-0.574034 l 1.553779,-2.283549 c 0.109953,-0.150286 0.289169,-0.397041 0.399139,-0.533305 l 2.00566,-2.501181 c 0.109931,-0.136791 0.220817,-0.245101 0.234536,-0.245059 l 0.02719,-0.0011 c 0,0 0.151163,0.01015 0.329067,0.05694 l 3.08,0.583488 c 0.178018,0.02863 0.465109,0.09717 0.643122,0.125062 l 0.05526,0.01055 c 0.177978,0.02867 0.465309,0.01195 0.643546,-0.03779 l 2.564043,-0.813591 c 0.16454,-0.05608 0.452319,-0.13637 0.630508,-0.17732 0,0 0.52,-0.108479 0.944579,-0.107106 z m -0.217629,19.086397 0.218975,5.25e-4 0.218974,5.26e-4 c 0.05469,4.6e-4 0.233002,0.05811 0.39733,0.124645 l 1.777827,0.745098 c 0.164222,0.06867 0.438352,0.191337 0.602456,0.274306 l 2.681664,1.377641 c 0.164141,0.08299 0.176823,0.233576 0.02608,0.342622 l -2.374275,1.678054 c -0.150943,0.109017 -0.385094,0.286778 -0.522445,0.409432 l -1.05703,0.914578 c -0.137325,0.123032 -0.356888,0.313323 -0.494186,0.436552 l -1.043578,0.90123 c -0.137326,0.122494 -0.356363,0.121956 -0.492998,-0.0012 l -1.01032,-0.906914 c -0.136649,-0.123251 -0.355174,-0.315276 -0.491785,-0.439285 l -1.052029,-0.90694 c -0.13667,-0.123855 -0.369805,-0.302483 -0.520194,-0.412849 l -2.36509,-1.677611 c -0.150365,-0.110012 -0.136788,-0.260266 0.02797,-0.342474 l 2.68924,-1.389718 c 0.16464,-0.08201 0.439436,-0.203147 0.603965,-0.270922 l 1.781878,-0.735361 c 0.164581,-0.06771 0.343234,-0.122654 0.398025,-0.122455 z"
     style="fill:currentColor;fill-opacity:1;stroke-width:0.136974;opacity:0.1"
     class="ColorScheme-Complement" />
</svg>
