<?xml version="1.0" encoding="UTF-8" standalone="no"?>
<svg
   width="64"
   height="64"
   version="1.1"
   id="svg17"
   sodipodi:docname="gitkraken.svg"
   inkscape:version="1.4 (1:1.4+202410161351+e7c3feb100)"
   xmlns:inkscape="http://www.inkscape.org/namespaces/inkscape"
   xmlns:sodipodi="http://sodipodi.sourceforge.net/DTD/sodipodi-0.dtd"
   xmlns="http://www.w3.org/2000/svg"
   xmlns:svg="http://www.w3.org/2000/svg"
   xmlns:rdf="http://www.w3.org/1999/02/22-rdf-syntax-ns#"
   xmlns:cc="http://creativecommons.org/ns#"
   xmlns:dc="http://purl.org/dc/elements/1.1/">
  <sodipodi:namedview
     id="namedview19"
     pagecolor="#ffffff"
     bordercolor="#666666"
     borderopacity="1.0"
     inkscape:pageshadow="2"
     inkscape:pageopacity="0.0"
     inkscape:pagecheckerboard="0"
     showgrid="false"
     inkscape:zoom="5.1015625"
     inkscape:cx="-1.0781011"
     inkscape:cy="52.826953"
     inkscape:window-width="1920"
     inkscape:window-height="1024"
     inkscape:window-x="0"
     inkscape:window-y="0"
     inkscape:window-maximized="1"
     inkscape:current-layer="svg17"
     inkscape:showpageshadow="2"
     inkscape:deskcolor="#d1d1d1" />
  <metadata
     id="metadata2">
    <rdf:RDF>
      <cc:Work
         rdf:about="">
        <dc:format>image/svg+xml</dc:format>
        <dc:type
           rdf:resource="http://purl.org/dc/dcmitype/StillImage" />
      </cc:Work>
    </rdf:RDF>
  </metadata>
  <defs
     id="defs9">
    <style
       type="text/css"
       id="current-color-scheme">
      .ColorScheme-Text {
      color:#31363b;
      }
      .ColorScheme-Background {
      color:#eff0f1;
      }
      .ColorScheme-Highlight {
      color:#3daee9;
      }
      .ColorScheme-ViewText {
      color:#31363b;
      }
      .ColorScheme-ViewBackground {
      color:#fcfcfc;
      }
      .ColorScheme-ViewHover {
      color:#93cee9;
      }
      .ColorScheme-ViewFocus{
      color:#3daee9;
      }
      .ColorScheme-ButtonText {
      color:#31363b;
      }
      .ColorScheme-ButtonBackground {
      color:#eff0f1;
      }
      .ColorScheme-ButtonHover {
      color:#93cee9;
      }
      .ColorScheme-ButtonFocus{
      color:#3daee9;
      }
      .ColorScheme-NegativeText{
      color:#ed3f59;
      }
      .ColorScheme-PositiveText{
      color:#59be88;
      }
      .ColorScheme-Contrast{
      color:#fff;
      }
    </style>
    <linearGradient
       id="linearGradient844"
       x1="15"
       x2="35"
       y1="8"
       y2="38"
       gradientTransform="matrix(1.3636,0,0,1.3636,-0.72727,-0.7274)"
       gradientUnits="userSpaceOnUse">
      <stop
         stop-color="#18d862"
         offset="0"
         id="stop4"
         style="stop-color:#00c38d;stop-opacity:1" />
      <stop
         stop-color="#1cd664"
         offset="1"
         id="stop6"
         style="stop-color:#00b294;stop-opacity:1" />
    </linearGradient>
  </defs>
  <circle
     style="opacity:1;fill-opacity:1;stroke:none;stroke-width:0.616919;stroke-linecap:round;stroke-linejoin:round;paint-order:stroke markers fill;stroke-opacity:1"
     id="circle1246"
     cx="31.946342"
     cy="32.02087"
     r="30.008783"
     class="ColorScheme-Complement"
     fill="currentColor" />
  <circle
     style="opacity:0.3;fill-opacity:1;stroke:none;stroke-width:0.616919;stroke-linecap:round;stroke-linejoin:round;paint-order:stroke markers fill;stroke-opacity:1"
     id="circle2"
     cx="31.946342"
     cy="32.02087"
     r="30.008783"
     class="ColorScheme-PositiveText"
     fill="currentColor" />
  <circle
     style="opacity:0.106;fill-opacity:1;stroke:none;stroke-width:0.616919;stroke-linecap:round;stroke-linejoin:round;paint-order:stroke markers fill;stroke-opacity:1;fill:#ffffff"
     id="circle5"
     cx="31.946342"
     cy="32.02087"
     r="30.008783"
     class="ColorScheme-PositiveText"
     fill="currentColor" />
  <path
     style="fill:#000310;fill-opacity:0.09046631;stroke:none;stroke-width:0.635884px;stroke-linecap:butt;stroke-linejoin:miter;stroke-opacity:1"
     d="m 43.332904,17.996939 c -0.02123,0.141259 0.01373,0.239038 -0.03229,0.389976 -0.31013,1.017181 -1.263824,2.18215 -3.481217,2.906189 -4.318959,1.410257 -8.640056,1.5233 -12.840636,3.864983 -1.881312,1.048768 -3.501544,2.356877 -4.826261,4.005324 a 5.1301834,5.1301834 0 0 1 1.901443,-0.370104 5.1301834,5.1301834 0 0 1 5.130541,5.130541 5.1301834,5.1301834 0 0 1 -5.130541,5.1293 5.1301834,5.1301834 0 0 1 -4.947972,-3.794191 c -0.160011,0.567345 -0.304957,1.153095 -0.427235,1.768552 -0.555664,2.796801 0.66564,6.52243 2.076558,9.513422 0.904481,1.917397 1.825968,3.453031 2.401953,4.364251 0.317914,-0.244205 0.630797,-0.552561 0.938923,-0.924019 2.043738,1.978052 3.742366,0.848168 5.47208,0 1.864075,0.401199 3.900336,2.534524 5.470838,0 1.439656,0.640498 2.213736,2.390649 5.472081,0 0.154879,0.100103 0.307066,0.184764 0.459526,0.273231 -0.528044,-0.74988 -1.792637,-2.60315 -3.031627,-4.879665 -1.613548,-2.964725 -3.200041,-6.584245 -2.887559,-9.466227 0.211509,-1.950732 1.360824,-3.702084 2.77454,-5.321804 a 3.1470873,3.1470873 0 0 1 -0.321668,0.01739 3.1470873,3.1470873 0 0 1 -3.147129,-3.14713 3.1470873,3.1470873 0 0 1 3.147129,-3.147129 3.1470873,3.1470873 0 0 1 3.14713,3.147129 3.1470873,3.1470873 0 0 1 -0.0075,0.21486 c 0.886957,-0.870866 1.745112,-1.714261 2.419341,-2.503794 0.844427,-0.988838 1.399773,-1.907867 1.500289,-2.682636 0.303475,-2.339178 -0.532256,-3.663367 -1.230784,-4.488447 z m 11.803598,13.986966 c 0,0 -1.762573,3.28112 -3.965581,4.483479 -2.203009,1.202359 -8.450367,1.552241 -11.89923,3.621559 -0.631199,0.378719 -1.302444,1.00315 -1.978444,1.748681 0.442719,1.056868 0.953011,2.107682 1.482902,3.081306 1.576557,2.896759 3.22054,5.132628 3.225373,5.139234 l 0.738967,0.902906 c 0.203025,0.03845 0.406631,0.06941 0.611045,0.07203 1.789901,-6.513488 10.385473,-3.485468 12.302866,-10.77277 0.859535,-2.567029 -0.517898,-8.276429 -0.517898,-8.276429 z m -43.703368,0.584964 c 0,0 -1.376194,5.710641 -0.516656,8.27767 1.37697,5.233352 6.193897,5.152636 9.466228,7.099049 -0.163489,-0.322501 -0.327175,-0.653537 -0.489333,-0.997294 -0.750208,-1.590358 -1.460579,-3.386191 -1.891506,-5.192639 a 2.6728685,2.6728685 0 0 1 -2.613087,2.126237 2.6728685,2.6728685 0 0 1 -2.6727,-2.6727 2.6728685,2.6728685 0 0 1 2.6727,-2.6727 2.6728685,2.6728685 0 0 1 2.272789,1.27301 c -0.07225,-0.682771 -0.09919,-1.358236 -0.04596,-2.013219 -0.894505,-0.224165 -1.691055,-0.457617 -2.215658,-0.743935 -2.203008,-1.202359 -3.966824,-4.483479 -3.966824,-4.483479 z m 38.5306,6.140255 a 2.4142039,2.4142039 0 0 1 2.414373,2.414373 2.4142039,2.4142039 0 0 1 -2.414373,2.414372 2.4142039,2.4142039 0 0 1 -2.414372,-2.414372 2.4142039,2.4142039 0 0 1 2.414372,-2.414373 z m -7.372281,1.983412 a 1.6813206,1.6813206 0 0 1 1.681616,1.680374 1.6813206,1.6813206 0 0 1 -1.681616,1.681615 1.6813206,1.6813206 0 0 1 -1.681615,-1.681615 1.6813206,1.6813206 0 0 1 1.681615,-1.680374 z M 28.32132,41.640152 a 3.8799707,3.8799707 0 0 1 3.881129,3.879887 3.8799707,3.8799707 0 0 1 -3.881129,3.879886 3.8799707,3.8799707 0 0 1 -3.879886,-3.879886 3.8799707,3.8799707 0 0 1 3.879886,-3.879887 z"
     id="path3"
     inkscape:connector-curvature="0"
     class="ColorScheme-PositiveText" />
  <path
     style="fill:#000310;fill-opacity:0.0455648;stroke:none;stroke-width:0.635884px;stroke-linecap:butt;stroke-linejoin:miter;stroke-opacity:1"
     d="m 42.695844,17.065852 c -0.02123,0.141259 0.01373,0.239038 -0.03229,0.389976 -0.31013,1.017181 -1.263824,2.18215 -3.481217,2.906189 -4.318959,1.410257 -8.640056,1.5233 -12.840636,3.864983 -1.881312,1.048768 -3.501544,2.356877 -4.826261,4.005324 a 5.1301834,5.1301834 0 0 1 1.901443,-0.370104 5.1301834,5.1301834 0 0 1 5.130541,5.130541 5.1301834,5.1301834 0 0 1 -5.130541,5.1293 5.1301834,5.1301834 0 0 1 -4.947972,-3.794191 c -0.160011,0.567345 -0.304957,1.153095 -0.427235,1.768552 -0.555664,2.796801 0.66564,6.52243 2.076558,9.513422 0.904481,1.917397 1.825968,3.453031 2.401953,4.364251 0.317914,-0.244205 0.630797,-0.552561 0.938923,-0.924019 2.043738,1.978052 3.742366,0.848168 5.47208,0 1.864075,0.401199 3.900336,2.534524 5.470838,0 1.439656,0.640498 2.213736,2.390649 5.472081,0 0.154879,0.100103 0.307066,0.184764 0.459526,0.273231 -0.528044,-0.74988 -1.792637,-2.60315 -3.031627,-4.879665 -1.613548,-2.964725 -3.200041,-6.584245 -2.887559,-9.466227 0.211509,-1.950732 1.360824,-3.702084 2.77454,-5.321804 a 3.1470873,3.1470873 0 0 1 -0.321668,0.01739 3.1470873,3.1470873 0 0 1 -3.147129,-3.14713 3.1470873,3.1470873 0 0 1 3.147129,-3.147129 3.1470873,3.1470873 0 0 1 3.14713,3.147129 3.1470873,3.1470873 0 0 1 -0.0075,0.21486 c 0.886957,-0.870866 1.745112,-1.714261 2.419341,-2.503794 0.844427,-0.988838 1.399773,-1.907867 1.500289,-2.682636 0.303475,-2.339178 -0.532256,-3.663367 -1.230784,-4.488447 z m 11.803598,13.986966 c 0,0 -1.762573,3.28112 -3.965581,4.483479 -2.203009,1.202359 -8.450367,1.552241 -11.89923,3.621559 -0.631199,0.378719 -1.302444,1.00315 -1.978444,1.748681 0.442719,1.056868 0.953011,2.107682 1.482902,3.081306 1.576557,2.896759 3.22054,5.132628 3.225373,5.139234 l 0.738967,0.902906 c 0.203025,0.03845 0.406631,0.06941 0.611045,0.07203 1.789901,-6.513488 10.385473,-3.485468 12.302866,-10.77277 0.859535,-2.567029 -0.517898,-8.276429 -0.517898,-8.276429 z m -43.703368,0.584964 c 0,0 -1.3761934,5.710641 -0.516656,8.27767 1.37697,5.233352 6.193897,5.152636 9.466228,7.099049 C 19.582157,46.692 19.418471,46.360964 19.256313,46.017207 18.506105,44.426849 17.795734,42.631016 17.364807,40.824568 a 2.6728685,2.6728685 0 0 1 -2.613087,2.126237 2.6728685,2.6728685 0 0 1 -2.6727,-2.6727 2.6728685,2.6728685 0 0 1 2.6727,-2.6727 2.6728685,2.6728685 0 0 1 2.272789,1.27301 c -0.07225,-0.682771 -0.09919,-1.358236 -0.04596,-2.013219 -0.894505,-0.224165 -1.691055,-0.457617 -2.215658,-0.743935 -2.203008,-1.202359 -3.966824,-4.483479 -3.966824,-4.483479 z m 38.5306,6.140255 a 2.4142039,2.4142039 0 0 1 2.414373,2.414373 2.4142039,2.4142039 0 0 1 -2.414373,2.414372 2.4142039,2.4142039 0 0 1 -2.414372,-2.414372 2.4142039,2.4142039 0 0 1 2.414372,-2.414373 z m -7.372281,1.983412 a 1.6813206,1.6813206 0 0 1 1.681616,1.680374 1.6813206,1.6813206 0 0 1 -1.681616,1.681615 1.6813206,1.6813206 0 0 1 -1.681615,-1.681615 1.6813206,1.6813206 0 0 1 1.681615,-1.680374 z M 27.68426,40.709065 a 3.8799707,3.8799707 0 0 1 3.881129,3.879887 3.8799707,3.8799707 0 0 1 -3.881129,3.879886 3.8799707,3.8799707 0 0 1 -3.879886,-3.879886 3.8799707,3.8799707 0 0 1 3.879886,-3.879887 z"
     id="path2"
     inkscape:connector-curvature="0"
     class="ColorScheme-PositiveText" />
  <path
     style="fill:currentColor;fill-opacity:1;stroke:none;stroke-width:0.635884px;stroke-linecap:butt;stroke-linejoin:miter;stroke-opacity:1"
     d="m 42.107789,16.036756 c -0.02123,0.141259 0.01373,0.239038 -0.03229,0.389976 -0.31013,1.017181 -1.263824,2.18215 -3.481217,2.906189 -4.318959,1.410257 -8.640056,1.5233 -12.840636,3.864983 -1.881312,1.048768 -3.501544,2.356877 -4.826261,4.005324 a 5.1301834,5.1301834 0 0 1 1.901443,-0.370104 5.1301834,5.1301834 0 0 1 5.130541,5.130541 5.1301834,5.1301834 0 0 1 -5.130541,5.1293 5.1301834,5.1301834 0 0 1 -4.947972,-3.794191 c -0.160011,0.567345 -0.304957,1.153095 -0.427235,1.768552 -0.555664,2.796801 0.66564,6.52243 2.076558,9.513422 0.904481,1.917397 1.825968,3.453031 2.401953,4.364251 0.317914,-0.244205 0.630797,-0.552561 0.938923,-0.924019 2.043738,1.978052 3.742366,0.848168 5.47208,0 1.864075,0.401199 3.900336,2.534524 5.470838,0 1.439656,0.640498 2.213736,2.390649 5.472081,0 0.154879,0.100103 0.307066,0.184764 0.459526,0.273231 -0.528044,-0.74988 -1.792637,-2.60315 -3.031627,-4.879665 -1.613548,-2.964725 -3.200041,-6.584245 -2.887559,-9.466227 0.211509,-1.950732 1.360824,-3.702084 2.77454,-5.321804 a 3.1470873,3.1470873 0 0 1 -0.321668,0.01739 3.1470873,3.1470873 0 0 1 -3.147129,-3.14713 3.1470873,3.1470873 0 0 1 3.147129,-3.147129 3.1470873,3.1470873 0 0 1 3.14713,3.147129 3.1470873,3.1470873 0 0 1 -0.0075,0.21486 c 0.886957,-0.870866 1.745112,-1.714261 2.419341,-2.503794 0.844427,-0.988838 1.399773,-1.907867 1.500289,-2.682636 0.303475,-2.339178 -0.532256,-3.663367 -1.230784,-4.488447 z m 11.803598,13.986966 c 0,0 -1.762573,3.28112 -3.965581,4.483479 -2.203009,1.202359 -8.450367,1.552241 -11.89923,3.621559 -0.631199,0.378719 -1.302444,1.00315 -1.978444,1.748681 0.442719,1.056868 0.953011,2.107682 1.482902,3.081306 1.576557,2.896759 3.22054,5.132628 3.225373,5.139234 l 0.738967,0.902906 c 0.203025,0.03845 0.406631,0.06941 0.611045,0.07203 1.789901,-6.513488 10.385473,-3.485468 12.302866,-10.77277 0.859535,-2.567029 -0.517898,-8.276429 -0.517898,-8.276429 z m -43.703368,0.584964 c 0,0 -1.3761935,5.710641 -0.5166563,8.27767 1.3769703,5.233352 6.1938973,5.152636 9.4662283,7.099049 -0.163489,-0.322501 -0.327175,-0.653537 -0.489333,-0.997294 -0.750208,-1.590358 -1.460579,-3.386191 -1.891506,-5.192639 a 2.6728685,2.6728685 0 0 1 -2.613087,2.126237 2.6728685,2.6728685 0 0 1 -2.6727,-2.6727 2.6728685,2.6728685 0 0 1 2.6727,-2.6727 2.6728685,2.6728685 0 0 1 2.272789,1.27301 c -0.07225,-0.682771 -0.09919,-1.358236 -0.04596,-2.013219 -0.894505,-0.224165 -1.691055,-0.457617 -2.215658,-0.743935 -2.203008,-1.202359 -3.966824,-4.483479 -3.966824,-4.483479 z m 38.5306,6.140255 a 2.4142039,2.4142039 0 0 1 2.414373,2.414373 2.4142039,2.4142039 0 0 1 -2.414373,2.414372 2.4142039,2.4142039 0 0 1 -2.414372,-2.414372 2.4142039,2.4142039 0 0 1 2.414372,-2.414373 z m -7.372281,1.983412 a 1.6813206,1.6813206 0 0 1 1.681616,1.680374 1.6813206,1.6813206 0 0 1 -1.681616,1.681615 1.6813206,1.6813206 0 0 1 -1.681615,-1.681615 1.6813206,1.6813206 0 0 1 1.681615,-1.680374 z m -14.270133,0.947616 a 3.8799707,3.8799707 0 0 1 3.881129,3.879887 3.8799707,3.8799707 0 0 1 -3.881129,3.879886 3.8799707,3.8799707 0 0 1 -3.879886,-3.879886 3.8799707,3.8799707 0 0 1 3.879886,-3.879887 z"
     id="path866"
     inkscape:connector-curvature="0"
     class="ColorScheme-Contrast" />
  <path
     style="fill:currentColor;fill-opacity:1;stroke:none;stroke-width:0.635884px;stroke-linecap:butt;stroke-linejoin:miter;stroke-opacity:1;opacity:0.25"
     d="m 42.107789,16.036756 c -0.02123,0.141259 0.01373,0.239038 -0.03229,0.389976 -0.31013,1.017181 -1.263824,2.18215 -3.481217,2.906189 -4.318959,1.410257 -8.640056,1.5233 -12.840636,3.864983 -1.881312,1.048768 -3.501544,2.356877 -4.826261,4.005324 a 5.1301834,5.1301834 0 0 1 1.901443,-0.370104 5.1301834,5.1301834 0 0 1 5.130541,5.130541 5.1301834,5.1301834 0 0 1 -5.130541,5.1293 5.1301834,5.1301834 0 0 1 -4.947972,-3.794191 c -0.160011,0.567345 -0.304957,1.153095 -0.427235,1.768552 -0.555664,2.796801 0.66564,6.52243 2.076558,9.513422 0.904481,1.917397 1.825968,3.453031 2.401953,4.364251 0.317914,-0.244205 0.630797,-0.552561 0.938923,-0.924019 2.043738,1.978052 3.742366,0.848168 5.47208,0 1.864075,0.401199 3.900336,2.534524 5.470838,0 1.439656,0.640498 2.213736,2.390649 5.472081,0 0.154879,0.100103 0.307066,0.184764 0.459526,0.273231 -0.528044,-0.74988 -1.792637,-2.60315 -3.031627,-4.879665 -1.613548,-2.964725 -3.200041,-6.584245 -2.887559,-9.466227 0.211509,-1.950732 1.360824,-3.702084 2.77454,-5.321804 a 3.1470873,3.1470873 0 0 1 -0.321668,0.01739 3.1470873,3.1470873 0 0 1 -3.147129,-3.14713 3.1470873,3.1470873 0 0 1 3.147129,-3.147129 3.1470873,3.1470873 0 0 1 3.14713,3.147129 3.1470873,3.1470873 0 0 1 -0.0075,0.21486 c 0.886957,-0.870866 1.745112,-1.714261 2.419341,-2.503794 0.844427,-0.988838 1.399773,-1.907867 1.500289,-2.682636 0.303475,-2.339178 -0.532256,-3.663367 -1.230784,-4.488447 z m 11.803598,13.986966 c 0,0 -1.762573,3.28112 -3.965581,4.483479 -2.203009,1.202359 -8.450367,1.552241 -11.89923,3.621559 -0.631199,0.378719 -1.302444,1.00315 -1.978444,1.748681 0.442719,1.056868 0.953011,2.107682 1.482902,3.081306 1.576557,2.896759 3.22054,5.132628 3.225373,5.139234 l 0.738967,0.902906 c 0.203025,0.03845 0.406631,0.06941 0.611045,0.07203 1.789901,-6.513488 10.385473,-3.485468 12.302866,-10.77277 0.859535,-2.567029 -0.517898,-8.276429 -0.517898,-8.276429 z m -43.703368,0.584964 c 0,0 -1.3761935,5.710641 -0.5166563,8.27767 1.3769703,5.233352 6.1938973,5.152636 9.4662283,7.099049 -0.163489,-0.322501 -0.327175,-0.653537 -0.489333,-0.997294 -0.750208,-1.590358 -1.460579,-3.386191 -1.891506,-5.192639 a 2.6728685,2.6728685 0 0 1 -2.613087,2.126237 2.6728685,2.6728685 0 0 1 -2.6727,-2.6727 2.6728685,2.6728685 0 0 1 2.6727,-2.6727 2.6728685,2.6728685 0 0 1 2.272789,1.27301 c -0.07225,-0.682771 -0.09919,-1.358236 -0.04596,-2.013219 -0.894505,-0.224165 -1.691055,-0.457617 -2.215658,-0.743935 -2.203008,-1.202359 -3.966824,-4.483479 -3.966824,-4.483479 z m 38.5306,6.140255 a 2.4142039,2.4142039 0 0 1 2.414373,2.414373 2.4142039,2.4142039 0 0 1 -2.414373,2.414372 2.4142039,2.4142039 0 0 1 -2.414372,-2.414372 2.4142039,2.4142039 0 0 1 2.414372,-2.414373 z m -7.372281,1.983412 a 1.6813206,1.6813206 0 0 1 1.681616,1.680374 1.6813206,1.6813206 0 0 1 -1.681616,1.681615 1.6813206,1.6813206 0 0 1 -1.681615,-1.681615 1.6813206,1.6813206 0 0 1 1.681615,-1.680374 z m -14.270133,0.947616 a 3.8799707,3.8799707 0 0 1 3.881129,3.879887 3.8799707,3.8799707 0 0 1 -3.881129,3.879886 3.8799707,3.8799707 0 0 1 -3.879886,-3.879886 3.8799707,3.8799707 0 0 1 3.879886,-3.879887 z"
     id="path4"
     inkscape:connector-curvature="0"
     class="ColorScheme-Accent" />
  <path
     style="fill:currentColor;fill-opacity:1;stroke:none;stroke-width:0.635884px;stroke-linecap:butt;stroke-linejoin:miter;stroke-opacity:1;opacity:0.08"
     d="m 42.107789,16.036756 c -0.02123,0.141259 0.01373,0.239038 -0.03229,0.389976 -0.31013,1.017181 -1.263824,2.18215 -3.481217,2.906189 -4.318959,1.410257 -8.640056,1.5233 -12.840636,3.864983 -1.881312,1.048768 -3.501544,2.356877 -4.826261,4.005324 a 5.1301834,5.1301834 0 0 1 1.901443,-0.370104 5.1301834,5.1301834 0 0 1 5.130541,5.130541 5.1301834,5.1301834 0 0 1 -5.130541,5.1293 5.1301834,5.1301834 0 0 1 -4.947972,-3.794191 c -0.160011,0.567345 -0.304957,1.153095 -0.427235,1.768552 -0.555664,2.796801 0.66564,6.52243 2.076558,9.513422 0.904481,1.917397 1.825968,3.453031 2.401953,4.364251 0.317914,-0.244205 0.630797,-0.552561 0.938923,-0.924019 2.043738,1.978052 3.742366,0.848168 5.47208,0 1.864075,0.401199 3.900336,2.534524 5.470838,0 1.439656,0.640498 2.213736,2.390649 5.472081,0 0.154879,0.100103 0.307066,0.184764 0.459526,0.273231 -0.528044,-0.74988 -1.792637,-2.60315 -3.031627,-4.879665 -1.613548,-2.964725 -3.200041,-6.584245 -2.887559,-9.466227 0.211509,-1.950732 1.360824,-3.702084 2.77454,-5.321804 a 3.1470873,3.1470873 0 0 1 -0.321668,0.01739 3.1470873,3.1470873 0 0 1 -3.147129,-3.14713 3.1470873,3.1470873 0 0 1 3.147129,-3.147129 3.1470873,3.1470873 0 0 1 3.14713,3.147129 3.1470873,3.1470873 0 0 1 -0.0075,0.21486 c 0.886957,-0.870866 1.745112,-1.714261 2.419341,-2.503794 0.844427,-0.988838 1.399773,-1.907867 1.500289,-2.682636 0.303475,-2.339178 -0.532256,-3.663367 -1.230784,-4.488447 z m 11.803598,13.986966 c 0,0 -1.762573,3.28112 -3.965581,4.483479 -2.203009,1.202359 -8.450367,1.552241 -11.89923,3.621559 -0.631199,0.378719 -1.302444,1.00315 -1.978444,1.748681 0.442719,1.056868 0.953011,2.107682 1.482902,3.081306 1.576557,2.896759 3.22054,5.132628 3.225373,5.139234 l 0.738967,0.902906 c 0.203025,0.03845 0.406631,0.06941 0.611045,0.07203 1.789901,-6.513488 10.385473,-3.485468 12.302866,-10.77277 0.859535,-2.567029 -0.517898,-8.276429 -0.517898,-8.276429 z m -43.703368,0.584964 c 0,0 -1.3761935,5.710641 -0.5166563,8.27767 1.3769703,5.233352 6.1938973,5.152636 9.4662283,7.099049 -0.163489,-0.322501 -0.327175,-0.653537 -0.489333,-0.997294 -0.750208,-1.590358 -1.460579,-3.386191 -1.891506,-5.192639 a 2.6728685,2.6728685 0 0 1 -2.613087,2.126237 2.6728685,2.6728685 0 0 1 -2.6727,-2.6727 2.6728685,2.6728685 0 0 1 2.6727,-2.6727 2.6728685,2.6728685 0 0 1 2.272789,1.27301 c -0.07225,-0.682771 -0.09919,-1.358236 -0.04596,-2.013219 -0.894505,-0.224165 -1.691055,-0.457617 -2.215658,-0.743935 -2.203008,-1.202359 -3.966824,-4.483479 -3.966824,-4.483479 z m 38.5306,6.140255 a 2.4142039,2.4142039 0 0 1 2.414373,2.414373 2.4142039,2.4142039 0 0 1 -2.414373,2.414372 2.4142039,2.4142039 0 0 1 -2.414372,-2.414372 2.4142039,2.4142039 0 0 1 2.414372,-2.414373 z m -7.372281,1.983412 a 1.6813206,1.6813206 0 0 1 1.681616,1.680374 1.6813206,1.6813206 0 0 1 -1.681616,1.681615 1.6813206,1.6813206 0 0 1 -1.681615,-1.681615 1.6813206,1.6813206 0 0 1 1.681615,-1.680374 z m -14.270133,0.947616 a 3.8799707,3.8799707 0 0 1 3.881129,3.879887 3.8799707,3.8799707 0 0 1 -3.881129,3.879886 3.8799707,3.8799707 0 0 1 -3.879886,-3.879886 3.8799707,3.8799707 0 0 1 3.879886,-3.879887 z"
     id="path5"
     inkscape:connector-curvature="0"
     class="ColorScheme-Complement" />
</svg>
