<?xml version="1.0" encoding="UTF-8" standalone="no"?>
<svg
   width="64"
   height="64"
   version="1.1"
   id="svg11"
   sodipodi:docname="microsoft-edge.svg"
   inkscape:version="1.4 (1:1.4+202410161351+e7c3feb100)"
   xmlns:inkscape="http://www.inkscape.org/namespaces/inkscape"
   xmlns:sodipodi="http://sodipodi.sourceforge.net/DTD/sodipodi-0.dtd"
   xmlns:xlink="http://www.w3.org/1999/xlink"
   xmlns="http://www.w3.org/2000/svg"
   xmlns:svg="http://www.w3.org/2000/svg">
  <sodipodi:namedview
     id="namedview11"
     pagecolor="#ffffff"
     bordercolor="#666666"
     borderopacity="1.0"
     inkscape:showpageshadow="2"
     inkscape:pageopacity="0.0"
     inkscape:pagecheckerboard="0"
     inkscape:deskcolor="#d1d1d1"
     inkscape:zoom="2.5117188"
     inkscape:cx="57.530325"
     inkscape:cy="128.79627"
     inkscape:window-width="1920"
     inkscape:window-height="1056"
     inkscape:window-x="0"
     inkscape:window-y="0"
     inkscape:window-maximized="1"
     inkscape:current-layer="g11" />
  <defs
     id="defs7">
    <linearGradient
       id="linearGradient4"
       inkscape:collect="always">
      <stop
         style="stop-color:#00011b;stop-opacity:1;"
         offset="0"
         id="stop5" />
      <stop
         style="stop-color:#00011b;stop-opacity:0;"
         offset="1"
         id="stop6" />
    </linearGradient>
    <linearGradient
       id="linearGradient3"
       inkscape:collect="always">
      <stop
         style="stop-color:#020026;stop-opacity:0;"
         offset="0"
         id="stop3" />
      <stop
         style="stop-color:#020026;stop-opacity:0;"
         offset="0.66778564"
         id="stop11" />
      <stop
         style="stop-color:#020026;stop-opacity:0.15686275;"
         offset="0.79931241"
         id="stop14" />
      <stop
         style="stop-color:#020026;stop-opacity:0.54011858;"
         offset="1"
         id="stop4" />
    </linearGradient>
    <linearGradient
       id="linearGradient2"
       inkscape:collect="always"
       gradientTransform="scale(1.1876224,0.84201844)"
       x1="-51.230122"
       y1="-19.501833"
       x2="38.753178"
       y2="32.757332"
       gradientUnits="userSpaceOnUse">
      <stop
         class="ColorScheme-ActiveText;"
         offset="0"
         id="stop9"
         style="stop-color:#0060ff;stop-opacity:1;" />
      <stop
         style="stop-color:#0032ff;stop-opacity:0;"
         offset="1"
         id="stop10" />
    </linearGradient>
    <style
       type="text/css"
       id="current-color-scheme">
      .ColorScheme-Text {
      color:#31363b;
      }
      .ColorScheme-Background {
      color:#eff0f1;
      }
      .ColorScheme-Highlight {
      color:#3daee9;
      }
      .ColorScheme-ViewText {
      color:#31363b;
      }
      .ColorScheme-ViewBackground {
      color:#fcfcfc;
      }
      .ColorScheme-ViewHover {
      color:#93cee9;
      }
      .ColorScheme-ViewFocus{
      color:#3daee9;
      }
      .ColorScheme-ButtonText {
      color:#31363b;
      }
      .ColorScheme-ButtonBackground {
      color:#eff0f1;
      }
      .ColorScheme-ButtonHover {
      color:#93cee9;
      }
      .ColorScheme-ButtonFocus{
      color:#3daee9;
      }
      .ColorScheme-ActiveText{
      color:#4f9cf6;
      }
      .ColorScheme-PositiveText{
      color:#4fce52;
      }
    </style>
    <linearGradient
       id="linearGradient932"
       x1="11.788"
       x2="52.749"
       y1="25.106"
       y2="25.106"
       gradientTransform="matrix(1.0202 0 0 1.0202 -.92146 -.66355)"
       gradientUnits="userSpaceOnUse">
      <stop
         stop-color="currentColor"
         offset="0"
         id="stop1"
         style="stop-color:#050f15;stop-opacity:1;" />
      <stop
         stop-color="currentColor"
         offset="1"
         id="stop2" />
    </linearGradient>
    <filter
       id="filter969"
       x="-0.079421204"
       y="-0.16870291"
       width="1.1588424"
       height="1.3374058"
       color-interpolation-filters="sRGB">
      <feGaussianBlur
         stdDeviation="0.86053247"
         id="feGaussianBlur6" />
    </filter>
    <filter
       id="filter980"
       x="-0.16642806"
       y="-0.08456365"
       width="1.3328561"
       height="1.1691273"
       color-interpolation-filters="sRGB">
      <feGaussianBlur
         stdDeviation="1.1515148"
         id="feGaussianBlur7" />
    </filter>
    <linearGradient
       inkscape:collect="always"
       xlink:href="#linearGradient1"
       id="linearGradient8"
       x1="-18.593142"
       y1="3.3956583"
       x2="39.884159"
       y2="28.832712"
       gradientUnits="userSpaceOnUse" />
    <radialGradient
       inkscape:collect="always"
       xlink:href="#linearGradient3"
       id="radialGradient4"
       cx="36.189697"
       cy="49.336929"
       fx="36.189697"
       fy="49.336929"
       r="16.724361"
       gradientTransform="matrix(1.4020952,-0.5969061,0.75725385,1.7787421,-59.090844,-17.246067)"
       gradientUnits="userSpaceOnUse" />
    <linearGradient
       inkscape:collect="always"
       xlink:href="#linearGradient4"
       id="linearGradient6"
       x1="35.823364"
       y1="2.8599081"
       x2="36.233158"
       y2="44.962616"
       gradientUnits="userSpaceOnUse" />
  </defs>
  <g
     transform="matrix(1.3617 0 0 1.3617 -10.169 -11.641)"
     stroke-width=".74628"
     id="g11">
    <path
       id="path7"
       class="ColorScheme-ActiveText"
       d="m 24.1821,19.357972 c -6.550094,0.039 -12.486612,5.720682 -13.042435,12.202606 -0.373098,7.728157 3.943153,15.452251 10.770854,19.116001 4.439106,2.40033 9.823287,3.390648 14.748231,2.013615 3.358074,-0.938629 6.325151,-3.384176 7.719105,-6.59082 0.711915,-1.6037 -0.706008,-3.27908 -2.417922,-3.267019 -10.996087,0.447417 -13.590041,-6.030113 -13.435083,-9.732136 0.154958,-3.702023 1.788315,-5.784472 4.882777,-5.539386 3.094462,0.245087 5.272091,3.942707 6.463655,7.419838 1.148342,-1.218213 0.140036,-4.003011 -0.102266,-5.522092 -0.985333,-4.485654 -4.71683,-8.022025 -9.085924,-9.223806 -2.102828,-0.637011 -4.309284,-0.875842 -6.500992,-0.876801 z"
       sodipodi:nodetypes="cccccczzcccc"
       fill="currentColor" />
    <path
       d="m24.164 20.602c-6.4811 0-12 4.6761-12.914 10.062-0.0846 0.71629-0.13417 1.4428-0.14453 2.1797 0.07836-5.9637 6.0069-11.496 13.059-11.496 0.57132 0 3.8291 0.05453 6.8555 1.6426 2.6672 1.4004 4.0659 3.8082 5.0371 5.4844 0.62724 1.1834 0.97062 2.3199 1.041 3.4004 0.08145-1.2965-0.26961-2.6874-1.043-4.1465-0.97124-1.6762-2.3679-4.084-5.0352-5.4844-3.0264-1.5881-6.2842-1.6426-6.8555-1.6426z"
       filter="url(#filter969)"
       opacity=".35"
       id="path9" />
    <path
       id="path3"
       class="ColorScheme-ActiveText"
       d="m 24.1821,19.357972 c -6.550094,0.039 -12.486612,5.720682 -13.042435,12.202606 -0.373098,7.728157 3.943153,15.452251 10.770854,19.116001 4.439106,2.40033 9.823287,3.390648 14.748231,2.013615 3.358074,-0.938629 6.325151,-3.384176 7.719105,-6.59082 0.711915,-1.6037 -0.706008,-3.27908 -2.417922,-3.267019 -10.996087,0.447417 -13.590041,-6.030113 -13.435083,-9.732136 0.154958,-3.702023 1.788315,-5.784472 4.882777,-5.539386 3.094462,0.245087 5.272091,3.942707 6.463655,7.419838 1.148342,-1.218213 0.140036,-4.003011 -0.102266,-5.522092 -0.985333,-4.485654 -4.71683,-8.022025 -9.085924,-9.223806 -2.102828,-0.637011 -4.309284,-0.875842 -6.500992,-0.876801 z"
       sodipodi:nodetypes="cccccczzcccc"
       fill="currentColor"
       style="fill:url(#radialGradient4);opacity:0.5099302" />
    <path
       id="path15"
       style="fill:currentColor;stroke:none;stroke-width:0.734376px;stroke-linecap:butt;stroke-linejoin:miter;stroke-opacity:1;fill-opacity:1;opacity:0.15"
       d="M 28.439187 22.940924 C 20.160587 22.84019 17.956525 33.421235 23.343018 39.742647 C 30.356825 47.973823 42.362131 43.237765 42.924469 43.010047 C 42.623577 42.894457 42.298523 42.82981 41.960601 42.83219 C 30.964514 43.279607 28.370288 36.802295 28.525246 33.100272 C 28.680204 29.398249 30.313238 27.31581 33.4077 27.560896 C 36.502162 27.805983 38.67922 31.503546 39.870784 34.980677 C 40.238332 34.590765 40.38428 34.039578 40.405789 33.421562 L 38.686029 27.156415 C 34.632946 24.195952 31.19872 22.974502 28.439187 22.940924 z "
       class="ColorScheme-Highlight" />
    <path
       id="path16"
       style="fill:currentColor;stroke:none;stroke-width:0.734376px;stroke-linecap:butt;stroke-linejoin:miter;stroke-opacity:1;fill-opacity:1;opacity:0.12"
       d="M 28.439187 22.940924 C 20.160587 22.84019 17.956525 33.421235 23.343018 39.742647 C 30.356825 47.973823 42.362131 43.237765 42.924469 43.010047 C 42.623577 42.894457 42.298523 42.82981 41.960601 42.83219 C 30.964514 43.279607 28.370288 36.802295 28.525246 33.100272 C 28.680204 29.398249 30.313238 27.31581 33.4077 27.560896 C 36.502162 27.805983 38.67922 31.503546 39.870784 34.980677 C 40.238332 34.590765 40.38428 34.039578 40.405789 33.421562 L 38.686029 27.156415 C 34.632946 24.195952 31.19872 22.974502 28.439187 22.940924 z "
       class="ColorScheme-Background" />
    <path
       id="path4"
       class="ColorScheme-ActiveText"
       d="m 24.1821,19.357972 c -6.550094,0.039 -12.486612,5.720682 -13.042435,12.202606 -0.373098,7.728157 3.943153,15.452251 10.770854,19.116001 4.439106,2.40033 9.823287,3.390648 14.748231,2.013615 3.358074,-0.938629 6.325151,-3.384176 7.719105,-6.59082 0.711915,-1.6037 -0.706008,-3.27908 -2.417922,-3.267019 -10.996087,0.447417 -13.590041,-6.030113 -13.435083,-9.732136 0.154958,-3.702023 1.788315,-5.784472 4.882777,-5.539386 3.094462,0.245087 5.272091,3.942707 6.463655,7.419838 1.148342,-1.218213 0.140036,-4.003011 -0.102266,-5.522092 -0.985333,-4.485654 -4.71683,-8.022025 -9.085924,-9.223806 -2.102828,-0.637011 -4.309284,-0.875842 -6.500992,-0.876801 z"
       sodipodi:nodetypes="cccccczzcccc"
       fill="currentColor"
       style="fill:url(#linearGradient6);opacity:0.08625079;fill-opacity:1" />
    <path
       class="ColorScheme-PositiveText"
       d="m 51.72457,30.4935 c 0.04244,-3.6576 -1.3059,-6.0894 -1.8511,-7.1666 -3.4589,-6.7651 -9.75548,-11.82552 -17.87448,-11.82552 -4.49148,-4.32e-4 -8.655528,1.417122 -12.065312,3.831756 -3.325054,2.354631 -5.932865,5.657403 -7.427637,9.518012 -0.871858,2.251781 -2.7605746,7.27764 0.09784,15.465299 -1.420533,-5.9637 2.383887,-15.531362 12.593826,-17.234141 13.133738,-1.702779 13.684091,13.859513 16.922379,15.27711 4.03404,1.765947 9.59313,-2.339058 9.604482,-7.865916 z"
       fill="url(#linearGradient932)"
       id="path11"
       sodipodi:nodetypes="cccssccscc"
       style="fill:currentColor;fill-opacity:1" />
    <path
       class="ColorScheme-ActiveText"
       d="m 51.72457,30.4935 c 0.04244,-3.6576 -1.3059,-6.0894 -1.8511,-7.1666 -3.4589,-6.7651 -9.75548,-11.82552 -17.87448,-11.82552 -4.49148,-4.32e-4 -8.655528,1.417122 -12.065312,3.831756 -3.325054,2.354631 -5.932865,5.657403 -7.427637,9.518012 -0.871858,2.251781 -2.7605746,7.27764 0.09784,15.465299 -1.420533,-5.9637 2.383887,-15.531362 12.593826,-17.234141 13.133738,-1.702779 13.684091,13.859513 16.922379,15.27711 4.03404,1.765947 9.59313,-2.339058 9.604482,-7.865916 z"
       fill="url(#linearGradient932)"
       id="path1"
       sodipodi:nodetypes="cccssccscc"
       style="fill:url(#linearGradient8);fill-opacity:1;opacity:0" />
    <path
       d="m 51.72457,30.4935 c 0.04244,-3.6576 -1.3059,-6.0894 -1.8511,-7.1666 -3.4589,-6.7651 -9.75548,-11.82552 -17.87448,-11.82552 -4.49148,-4.32e-4 -8.655528,1.417122 -12.065312,3.831756 -3.325054,2.354631 -5.932865,5.657403 -7.427637,9.518012 -0.871858,2.251781 -2.7605746,7.27764 0.09784,15.465299 -1.420533,-5.9637 2.383887,-15.531362 12.593826,-17.234141 13.133738,-1.702779 13.684091,13.859513 16.922379,15.27711 4.03404,1.765947 9.59313,-2.339058 9.604482,-7.865916 z"
       id="path2"
       sodipodi:nodetypes="cccssccscc"
       style="fill:url(#linearGradient2);fill-opacity:1"
       class="ColorScheme-ActiveText" />
  </g>
</svg>
