<?xml version="1.0" encoding="UTF-8" standalone="no"?>
<svg
   width="64"
   height="64"
   version="1.1"
   id="svg73"
   sodipodi:docname="Red.svg"
   inkscape:version="1.3.2 (091e20ef0f, 2023-11-25)"
   xmlns:inkscape="http://www.inkscape.org/namespaces/inkscape"
   xmlns:sodipodi="http://sodipodi.sourceforge.net/DTD/sodipodi-0.dtd"
   xmlns:xlink="http://www.w3.org/1999/xlink"
   xmlns="http://www.w3.org/2000/svg"
   xmlns:svg="http://www.w3.org/2000/svg"
   xmlns:rdf="http://www.w3.org/1999/02/22-rdf-syntax-ns#"
   xmlns:cc="http://creativecommons.org/ns#"
   xmlns:dc="http://purl.org/dc/elements/1.1/">
  <metadata
     id="metadata77">
    <rdf:RDF>
      <cc:Work
         rdf:about="">
        <dc:format>image/svg+xml</dc:format>
        <dc:type
           rdf:resource="http://purl.org/dc/dcmitype/StillImage" />
      </cc:Work>
    </rdf:RDF>
  </metadata>
  <sodipodi:namedview
     pagecolor="#f5f7fa"
     bordercolor="#666666"
     borderopacity="1"
     objecttolerance="10"
     gridtolerance="10"
     guidetolerance="10"
     inkscape:pageopacity="0"
     inkscape:pageshadow="2"
     inkscape:window-width="1377"
     inkscape:window-height="886"
     id="namedview75"
     showgrid="false"
     inkscape:zoom="4.4470387"
     inkscape:cx="30.35728"
     inkscape:cy="48.459214"
     inkscape:window-x="55"
     inkscape:window-y="80"
     inkscape:window-maximized="0"
     inkscape:current-layer="g877"
     inkscape:document-rotation="0"
     inkscape:pagecheckerboard="0"
     inkscape:showpageshadow="2"
     inkscape:deskcolor="#d1d1d1" />
  <defs
     id="defs29">
    <linearGradient
       id="linearGradient5"
       inkscape:collect="always">
      <stop
         style="stop-color:#984859;stop-opacity:1;"
         offset="0"
         id="stop5" />
      <stop
         style="stop-color:#bf7384;stop-opacity:1;"
         offset="1"
         id="stop6" />
    </linearGradient>
    <inkscape:path-effect
       effect="powerclip"
       id="path-effect1980"
       is_visible="true"
       lpeversion="1"
       inverse="true"
       flatten="false"
       hide_clip="false"
       message="Use fill-rule evenodd on &lt;b&gt;fill and stroke&lt;/b&gt; dialog if no flatten result after convert clip to paths." />
    <clipPath
       clipPathUnits="userSpaceOnUse"
       id="clipPath1976">
      <rect
         x="9.6784649"
         y="9.925169"
         width="43.343258"
         height="44.613056"
         rx="8.6689987"
         ry="8.9229689"
         fill="url(#linearGradient862)"
         stroke-width="2.96772"
         id="rect1978"
         style="display:none;fill:#333333;fill-opacity:1"
         d="m 18.347464,9.925169 h 26.00526 c 4.802625,0 8.668999,3.979644 8.668999,8.922969 v 26.767118 c 0,4.943325 -3.866374,8.922969 -8.668999,8.922969 h -26.00526 c -4.802626,0 -8.6689991,-3.979644 -8.6689991,-8.922969 V 18.848138 c 0,-4.943325 3.8663731,-8.922969 8.6689991,-8.922969 z" />
      <path
         id="lpe_path-effect1980"
         style="fill:#333333;fill-opacity:1"
         class="powerclip"
         d="M 2.0757722,2.2464043 H 60.623896 V 62.216811 H 2.0757722 Z M 18.347464,9.925169 c -4.802626,0 -8.6689991,3.979644 -8.6689991,8.922969 v 26.767118 c 0,4.943325 3.8663731,8.922969 8.6689991,8.922969 h 26.00526 c 4.802625,0 8.668999,-3.979644 8.668999,-8.922969 V 18.848138 c 0,-4.943325 -3.866374,-8.922969 -8.668999,-8.922969 z" />
    </clipPath>
    <linearGradient
       inkscape:collect="always"
       xlink:href="#linearGradient5"
       id="linearGradient6"
       x1="33.785751"
       y1="12.971354"
       x2="33.375801"
       y2="52.289253"
       gradientUnits="userSpaceOnUse"
       gradientTransform="matrix(1.1,0,0,1.1,-3.1845928,-3.2341119)" />
    <linearGradient
       id="d"
       y1="1050.34"
       y2="1038.36"
       gradientUnits="userSpaceOnUse"
       x2="0"
       gradientTransform="matrix(-2.5774727,0,0,2.5806818,51.999856,-2661.7402)">
      <stop
         stop-color="#c61423"
         id="stop7" />
      <stop
         offset="1"
         stop-color="#dc2b41"
         id="stop8" />
    </linearGradient>
  </defs>
  <g
     id="g877"
     transform="matrix(1.1,0,0,1.1,-3.1845928,-3.2065454)">
    <path
       d="m 18.347203,7.2464043 c -6.244452,0 -11.2714308,5.1741617 -11.2714308,11.6016437 v 26.767119 c 0,6.427394 5.0268918,11.601644 11.2714308,11.601644 h 26.005262 c 6.244452,0 11.271431,-5.174161 11.271431,-11.601644 V 18.848048 c 0,-6.427393 -5.026893,-11.6016437 -11.271431,-11.6016437 z"
       fill="url(#linearGradient910)"
       stroke-width="3.32418"
       id="path33"
       style="fill:#4d4d4d;fill-opacity:1"
       clip-path="url(#clipPath1976)"
       inkscape:path-effect="#path-effect1980"
       inkscape:original-d="m 18.347203,7.2464043 c -6.244452,0 -11.2714308,5.1741617 -11.2714308,11.6016437 v 26.767119 c 0,6.427394 5.0268918,11.601644 11.2714308,11.601644 h 26.005262 c 6.244452,0 11.271431,-5.174161 11.271431,-11.601644 V 18.848048 c 0,-6.427393 -5.026893,-11.6016437 -11.271431,-11.6016437 z"
       transform="matrix(1.089,0,0,1.089,-2.2940414,-2.7591018)" />
    <rect
       x="8.245779"
       y="8.0493994"
       width="47.200809"
       height="48.583622"
       rx="9.511797"
       ry="9.6776171"
       fill="url(#linearGradient862)"
       stroke-width="3.23184"
       id="rect35-7"
       style="opacity:1;fill:#f9f9f9;fill-opacity:1" />
    <rect
       x="10.60582"
       y="10.47858"
       width="42.480732"
       height="43.725258"
       rx="9.0337515"
       ry="8.819849"
       fill="url(#linearGradient862)"
       stroke-width="2.90867"
       id="rect35-7-3"
       style="fill:url(#linearGradient6)" />
    <path
       id="path10946-3"
       style="fill:#000000;fill-opacity:1;stroke:none;stroke-width:0.909091;stroke-dasharray:none;stroke-opacity:0.3;opacity:0.2"
       d="m 24.374132,25.683151 c -2.024914,-0.02793 -4.200204,0.806774 -5.628551,2.237216 -1.375755,1.377775 -2.50618,3.996149 -2.51598,5.830966 l -0.0018,0.470526 h 1.6424 1.642401 l 0.07813,-0.759944 c 0.134923,-1.286563 0.645698,-2.399958 1.480825,-3.235085 0.869578,-0.869578 1.760862,-1.209161 3.17649,-1.209161 1.24599,0 2.101499,0.463607 3.42152,1.851917 0.915961,0.963345 2.579901,3.162873 2.579901,3.410867 0,0.200026 -1.838813,2.643437 -2.606534,3.464133 -0.463905,0.495915 -1.189318,1.092084 -1.612216,1.326349 -0.679506,0.376417 -0.90277,0.42573 -1.924716,0.415484 -1.270462,-0.01274 -2.102593,-0.293805 -2.920809,-0.985441 -0.652095,-0.551212 -1.453759,-2.218842 -1.573154,-3.274148 l -0.068,-1.130217 -1.632956,-0.03482 -1.598393,0.06183 -0.08484,0.725014 c -0.08359,0.714224 0.527703,2.652131 0.994318,3.638139 1.079999,2.282171 3.230371,3.863804 5.791903,4.261363 3.112661,0.483102 5.886501,-1.000829 8.503196,-4.55078 0.351613,-0.477019 0.655146,-0.886854 0.676492,-0.909091 0.02134,-0.02223 0.468896,0.539864 0.994318,1.248225 3.023511,4.076243 6.205495,5.235835 9.760293,3.558238 2.332809,-1.100905 3.986501,-3.710041 4.302208,-6.791548 l 0.08655,-1.245838 -1.57505,-0.01711 -1.700769,0.111581 -0.08137,0.684398 c -0.0045,1.199405 -0.827317,3.131632 -1.617545,3.797941 -0.62302,0.525318 -1.218362,0.765106 -2.171516,0.87713 -1.138705,0.133832 -2.031154,-0.29206 -3.197799,-1.528764 -1.018284,-1.079427 -2.697102,-3.402198 -2.697102,-3.73225 0,-0.321648 1.953929,-2.98731 2.835581,-3.868963 1.010209,-1.010207 1.709844,-1.363636 2.698863,-1.363636 1.201261,0 2.025441,0.35118 2.768115,1.1772 0.734298,0.816726 1.205807,1.936531 1.335227,3.174717 l 0.08882,0.852273 h 1.642409 1.640618 v -0.513139 c 0,-0.896676 -0.444563,-2.555028 -1.0174,-3.789063 -1.833093,-3.948926 -6.536241,-5.438528 -9.927204,-3.144531 -0.966634,0.653929 -2.293208,2.018014 -3.258167,3.352273 -0.417076,0.576693 -0.796561,1.050093 -0.84517,1.052912 -0.04861,0.0028 -0.462187,-0.480932 -0.91797,-1.075995 -1.740748,-2.2727 -3.811715,-3.848869 -5.600141,-4.261364 -0.440295,-0.101552 -0.898123,-0.153356 -1.365412,-0.159801 z m 15.053265,5.358665 c -0.51115,0 -0.793678,0.54228 -0.793678,1.518111 v 0.939275 h -0.820311 c -0.91498,0 -1.349433,0.260569 -1.349433,0.80966 0,0.489017 0.526073,0.779474 1.40625,0.779474 h 0.763494 v 0.930397 c 0,0.652045 0.0679,0.996507 0.227257,1.155896 0.294603,0.294589 0.764156,0.289064 1.097301,-0.01244 0.203171,-0.183877 0.264572,-0.450926 0.264572,-1.155894 v -0.91797 h 0.795455 c 1.167186,0 1.734621,-0.661543 1.134585,-1.324573 -0.179772,-0.198656 -0.449917,-0.264559 -1.08487,-0.264559 h -0.845167 v -0.939265 c 0,-0.975831 -0.284294,-1.518111 -0.795455,-1.518112 z m -15.296518,2.457386 c -2.085941,0 -2.499545,0.03683 -2.723722,0.239703 -0.344433,0.31171 -0.33524,0.701691 0.02484,1.06179 0.26542,0.265418 0.481854,0.287642 2.642045,0.287642 1.89563,0 2.41518,-0.04244 2.674005,-0.223722 0.380438,-0.266459 0.414819,-0.73275 0.08169,-1.100853 -0.213907,-0.236364 -0.499508,-0.26456 -2.698863,-0.26456 z"
       sodipodi:nodetypes="sscccccssssssssccccssssscscccccsssssscccccsssssssssscssscscsscssscsscscssscc" />
    <path
       id="path10946"
       style="fill:#f9f9f9;fill-opacity:1;stroke:none;stroke-width:0.909091;stroke-dasharray:none;stroke-opacity:0.3"
       d="m 24.374132,23.864969 c -2.024914,-0.02793 -4.200204,0.806774 -5.628551,2.237216 -1.375755,1.377775 -2.50618,3.996149 -2.51598,5.830966 l -0.0018,0.470526 h 1.6424 1.642401 l 0.07813,-0.759944 c 0.134923,-1.286563 0.645698,-2.399958 1.480825,-3.235085 0.869578,-0.869578 1.760862,-1.209161 3.17649,-1.209161 1.24599,0 2.101499,0.463607 3.42152,1.851917 0.915961,0.963345 2.579901,3.162873 2.579901,3.410867 0,0.200026 -1.838813,2.643437 -2.606534,3.464133 -0.463905,0.495915 -1.189318,1.092084 -1.612216,1.326349 -0.679506,0.376417 -0.90277,0.42573 -1.924716,0.415484 -1.270462,-0.01274 -2.102593,-0.293805 -2.920809,-0.985441 -0.652095,-0.551212 -1.453759,-2.218842 -1.573154,-3.274148 l -0.068,-1.130217 -1.632956,-0.03482 -1.598393,0.06183 -0.08484,0.725014 c -0.08359,0.714224 0.527703,2.652131 0.994318,3.638139 1.079999,2.282171 3.230371,3.863804 5.791903,4.261363 3.112661,0.483102 5.886501,-1.000829 8.503196,-4.55078 0.351613,-0.477019 0.655146,-0.886854 0.676492,-0.909091 0.02134,-0.02223 0.468896,0.539864 0.994318,1.248225 3.023511,4.076243 6.205495,5.235835 9.760293,3.558238 2.332809,-1.100905 3.986501,-3.710041 4.302208,-6.791548 l 0.08655,-1.245838 -1.57505,-0.01711 -1.700769,0.111581 -0.08137,0.684398 c -0.0045,1.199405 -0.827317,3.131632 -1.617545,3.797941 -0.62302,0.525318 -1.218362,0.765106 -2.171516,0.87713 -1.138705,0.133832 -2.031154,-0.29206 -3.197799,-1.528764 -1.018284,-1.079427 -2.697102,-3.402198 -2.697102,-3.73225 0,-0.321648 1.953929,-2.98731 2.835581,-3.868963 1.010209,-1.010207 1.709844,-1.363636 2.698863,-1.363636 1.201261,0 2.025441,0.35118 2.768115,1.1772 0.734298,0.816726 1.205807,1.936531 1.335227,3.174717 l 0.08882,0.852273 h 1.642409 1.640618 v -0.513139 c 0,-0.896676 -0.444563,-2.555028 -1.0174,-3.789063 -1.833093,-3.948926 -6.536241,-5.438528 -9.927204,-3.144531 -0.966634,0.653929 -2.293208,2.018014 -3.258167,3.352273 -0.417076,0.576693 -0.796561,1.050093 -0.84517,1.052912 -0.04861,0.0028 -0.462187,-0.480932 -0.91797,-1.075995 -1.740748,-2.2727 -3.811715,-3.848869 -5.600141,-4.261364 -0.440295,-0.101552 -0.898123,-0.153356 -1.365412,-0.159801 z m 15.053265,5.358665 c -0.51115,0 -0.793678,0.54228 -0.793678,1.518111 v 0.939275 h -0.820311 c -0.91498,0 -1.349433,0.260569 -1.349433,0.80966 0,0.489017 0.526073,0.779474 1.40625,0.779474 h 0.763494 v 0.930397 c 0,0.652045 0.0679,0.996507 0.227257,1.155896 0.294603,0.294589 0.764156,0.289064 1.097301,-0.01244 0.203171,-0.183877 0.264572,-0.450926 0.264572,-1.155894 v -0.91797 h 0.795455 c 1.167186,0 1.734621,-0.661543 1.134585,-1.324573 -0.179772,-0.198656 -0.449917,-0.264559 -1.08487,-0.264559 h -0.845167 v -0.939265 c 0,-0.975831 -0.284294,-1.518111 -0.795455,-1.518112 z M 24.130879,31.68102 c -2.085941,0 -2.499545,0.03683 -2.723722,0.239703 -0.344433,0.31171 -0.33524,0.701691 0.02484,1.06179 0.26542,0.265418 0.481854,0.287642 2.642045,0.287642 1.89563,0 2.41518,-0.04244 2.674005,-0.223722 0.380438,-0.266459 0.414819,-0.73275 0.08169,-1.100853 -0.213907,-0.236364 -0.499508,-0.26456 -2.698863,-0.26456 z"
       sodipodi:nodetypes="sscccccssssssssccccssssscscccccsssssscccccsssssssssscssscscsscssscsscscssscc" />
    <path
       style="fill:#f5f7fa;stroke-width:0.204426;fill-opacity:1"
       d=""
       id="path3" />
  </g>
</svg>
