<?xml version="1.0" encoding="UTF-8" standalone="no"?>
<svg
   width="64"
   height="64"
   version="1.1"
   id="svg73"
   sodipodi:docname="blinken.svg"
   inkscape:version="1.3.2 (091e20ef0f, 2023-11-25)"
   xmlns:inkscape="http://www.inkscape.org/namespaces/inkscape"
   xmlns:sodipodi="http://sodipodi.sourceforge.net/DTD/sodipodi-0.dtd"
   xmlns:xlink="http://www.w3.org/1999/xlink"
   xmlns="http://www.w3.org/2000/svg"
   xmlns:svg="http://www.w3.org/2000/svg"
   xmlns:rdf="http://www.w3.org/1999/02/22-rdf-syntax-ns#"
   xmlns:cc="http://creativecommons.org/ns#"
   xmlns:dc="http://purl.org/dc/elements/1.1/">
  <metadata
     id="metadata77">
    <rdf:RDF>
      <cc:Work
         rdf:about="">
        <dc:format>image/svg+xml</dc:format>
        <dc:type
           rdf:resource="http://purl.org/dc/dcmitype/StillImage" />
      </cc:Work>
    </rdf:RDF>
  </metadata>
  <sodipodi:namedview
     pagecolor="#f5f7fa"
     bordercolor="#666666"
     borderopacity="1"
     objecttolerance="10"
     gridtolerance="10"
     guidetolerance="10"
     inkscape:pageopacity="0"
     inkscape:pageshadow="2"
     inkscape:window-width="1377"
     inkscape:window-height="886"
     id="namedview75"
     showgrid="false"
     inkscape:zoom="6.2890624"
     inkscape:cx="34.02733"
     inkscape:cy="27.269566"
     inkscape:window-x="392"
     inkscape:window-y="82"
     inkscape:window-maximized="0"
     inkscape:current-layer="g877"
     inkscape:document-rotation="0"
     inkscape:pagecheckerboard="0"
     inkscape:showpageshadow="2"
     inkscape:deskcolor="#d1d1d1" />
  <defs
     id="defs29">
    <linearGradient
       id="linearGradient5"
       inkscape:collect="always">
      <stop
         style="stop-color:#984859;stop-opacity:1;"
         offset="0"
         id="stop5" />
      <stop
         style="stop-color:#bf7384;stop-opacity:1;"
         offset="1"
         id="stop6" />
    </linearGradient>
    <inkscape:path-effect
       effect="powerclip"
       id="path-effect1980"
       is_visible="true"
       lpeversion="1"
       inverse="true"
       flatten="false"
       hide_clip="false"
       message="Use fill-rule evenodd on &lt;b&gt;fill and stroke&lt;/b&gt; dialog if no flatten result after convert clip to paths." />
    <clipPath
       clipPathUnits="userSpaceOnUse"
       id="clipPath1976">
      <rect
         x="9.6784649"
         y="9.925169"
         width="43.343258"
         height="44.613056"
         rx="8.6689987"
         ry="8.9229689"
         fill="url(#linearGradient862)"
         stroke-width="2.96772"
         id="rect1978"
         style="display:none;fill:#333333;fill-opacity:1"
         d="m 18.347464,9.925169 h 26.00526 c 4.802625,0 8.668999,3.979644 8.668999,8.922969 v 26.767118 c 0,4.943325 -3.866374,8.922969 -8.668999,8.922969 h -26.00526 c -4.802626,0 -8.6689991,-3.979644 -8.6689991,-8.922969 V 18.848138 c 0,-4.943325 3.8663731,-8.922969 8.6689991,-8.922969 z" />
      <path
         id="lpe_path-effect1980"
         style="fill:#333333;fill-opacity:1"
         class="powerclip"
         d="M 2.0757722,2.2464043 H 60.623896 V 62.216811 H 2.0757722 Z M 18.347464,9.925169 c -4.802626,0 -8.6689991,3.979644 -8.6689991,8.922969 v 26.767118 c 0,4.943325 3.8663731,8.922969 8.6689991,8.922969 h 26.00526 c 4.802625,0 8.668999,-3.979644 8.668999,-8.922969 V 18.848138 c 0,-4.943325 -3.866374,-8.922969 -8.668999,-8.922969 z" />
    </clipPath>
    <linearGradient
       inkscape:collect="always"
       xlink:href="#linearGradient5"
       id="linearGradient6"
       x1="33.785751"
       y1="12.971354"
       x2="33.375801"
       y2="52.289253"
       gradientUnits="userSpaceOnUse"
       gradientTransform="matrix(1.1,0,0,1.1,-3.1845928,-3.2341119)" />
  </defs>
  <g
     id="g877"
     transform="matrix(1.1,0,0,1.1,-3.1845928,-3.2065454)">
    <path
       d="m 18.347203,7.2464043 c -6.244452,0 -11.2714308,5.1741617 -11.2714308,11.6016437 v 26.767119 c 0,6.427394 5.0268918,11.601644 11.2714308,11.601644 h 26.005262 c 6.244452,0 11.271431,-5.174161 11.271431,-11.601644 V 18.848048 c 0,-6.427393 -5.026893,-11.6016437 -11.271431,-11.6016437 z"
       fill="url(#linearGradient910)"
       stroke-width="3.32418"
       id="path33"
       style="fill:#4d4d4d;fill-opacity:1"
       clip-path="url(#clipPath1976)"
       inkscape:path-effect="#path-effect1980"
       inkscape:original-d="m 18.347203,7.2464043 c -6.244452,0 -11.2714308,5.1741617 -11.2714308,11.6016437 v 26.767119 c 0,6.427394 5.0268918,11.601644 11.2714308,11.601644 h 26.005262 c 6.244452,0 11.271431,-5.174161 11.271431,-11.601644 V 18.848048 c 0,-6.427393 -5.026893,-11.6016437 -11.271431,-11.6016437 z"
       transform="matrix(1.089,0,0,1.089,-2.2940414,-2.7591018)" />
    <rect
       x="8.245779"
       y="8.0493994"
       width="47.200809"
       height="48.583622"
       rx="9.511797"
       ry="9.6776171"
       fill="url(#linearGradient862)"
       stroke-width="3.23184"
       id="rect35-7"
       style="opacity:1;fill:#f9f9f9;fill-opacity:1" />
    <rect
       x="10.60582"
       y="10.47858"
       width="42.480732"
       height="43.725258"
       rx="9.0337515"
       ry="8.819849"
       fill="url(#linearGradient862)"
       stroke-width="2.90867"
       id="rect35-7-3"
       style="fill:url(#linearGradient6)" />
    <path
       id="path8-3"
       style="fill:#000000;stroke:none;stroke-width:0.0805531;stroke-dasharray:none;stroke-opacity:1;opacity:0.2"
       d="m 21.569367,23.458224 c -0.101339,0.0061 -0.153711,0.0744 -0.176139,0.193963 -0.05752,0.306593 0.110803,0.905436 0.736015,2.624283 0.788463,2.167664 0.865931,2.566165 0.531566,2.723887 -0.07614,0.03592 -0.39758,0.16241 -0.715045,0.280985 -0.41599,0.155375 -0.557462,0.224243 -0.504307,0.24534 0.04056,0.01609 0.453037,0.103409 0.916349,0.193964 3.254501,0.636085 5.674848,1.42014 6.931338,2.24684 0.422574,0.278027 0.825793,0.699981 0.989741,1.034825 0.125781,0.256893 0.137348,0.311965 0.137348,0.6448 0,0.33267 -0.01138,0.388974 -0.136298,0.642703 -0.166107,0.33741 -0.580428,0.768006 -1.000227,1.041116 -1.200978,0.781325 -3.460709,1.538792 -6.334767,2.123122 -0.343355,0.0698 -0.657484,0.139716 -0.69827,0.15517 -0.07753,0.02938 0.485309,0.104588 4.301811,0.573506 1.261881,0.155043 2.299763,0.287777 2.306601,0.294616 0.09318,0.09318 -0.625527,0.626122 -2.304504,1.707933 -1.697116,1.093499 -4.820454,3.010979 -7.814138,4.797731 -0.863927,0.515628 -1.578131,0.944319 -1.587361,0.953047 -0.03739,0.03533 0.312953,0.0123 0.716096,-0.04718 2.868674,-0.423315 8.524648,-1.914106 13.279734,-3.500792 4.814226,-1.606418 8.868856,-3.346983 11.575995,-4.968629 2.220119,-1.329909 3.652044,-2.675787 4.120428,-3.872994 0.538105,-1.375413 -0.07711,-2.625577 -1.865201,-3.795408 C 44.454189,29.409572 42.7689,28.5617 42.036262,28.272727 39.43135,27.24527 36.302506,26.70117 32.994384,26.700042 c -1.832618,-6.5e-4 -3.436887,0.159681 -5.287359,0.527373 -0.529693,0.105249 -0.63662,0.115507 -0.765372,0.07444 -0.403738,-0.128772 -1.027907,-0.582894 -2.626381,-1.910284 -1.696776,-1.409024 -2.441885,-1.951704 -2.745905,-1.933352 z m 16.910536,5.044116 c 0.118518,-0.01863 0.537369,0.09334 1.361943,0.360669 1.601744,0.519301 3.460638,1.416387 4.450693,2.148285 0.435864,0.322213 0.885071,0.755127 1.110313,1.069424 0.179944,0.251089 0.393458,0.673364 0.441401,0.872316 0.02366,0.09819 0.01607,0.109185 -0.06815,0.102748 -0.05224,-0.004 -0.184903,-0.01258 -0.295664,-0.01993 -1.762922,-0.116775 -3.613287,-0.546971 -4.761036,-1.106121 -1.262795,-0.615196 -1.998024,-1.384371 -2.245792,-2.34854 -0.06598,-0.256769 -0.08364,-0.971472 -0.02621,-1.062085 0.0049,-0.0078 0.01557,-0.01411 0.03252,-0.01678 z m -20.93136,0.85554 v 4.289231 4.290278 h 1.047405 1.046358 v -0.48124 c 0,-0.278244 0.0175,-0.491953 0.04089,-0.506403 0.02223,-0.01373 0.398191,-0.08692 0.83562,-0.16356 3.191055,-0.559032 5.620683,-1.190235 7.09909,-1.843186 1.077444,-0.47586 1.691158,-0.944321 1.691158,-1.291696 0,-0.462572 -1.040995,-1.116181 -2.698723,-1.693254 -1.432338,-0.498614 -3.504053,-0.994222 -5.992967,-1.433238 -0.49418,-0.08716 -0.915416,-0.168495 -0.936271,-0.181383 -0.02085,-0.01289 -0.0388,-0.239792 -0.0388,-0.504307 V 29.35788 h -1.046357 z" />
    <path
       id="path8"
       style="fill:#f9f9f9;stroke:none;stroke-width:0.0805531;stroke-dasharray:none;stroke-opacity:1"
       d="m 21.569367,21.640042 c -0.101339,0.0061 -0.153711,0.0744 -0.176139,0.193963 -0.05752,0.306593 0.110803,0.905436 0.736015,2.624283 0.788463,2.167664 0.865931,2.566165 0.531566,2.723887 -0.07614,0.03592 -0.39758,0.16241 -0.715045,0.280985 -0.41599,0.155375 -0.557462,0.224243 -0.504307,0.24534 0.04056,0.01609 0.453037,0.103409 0.916349,0.193964 3.254501,0.636085 5.674848,1.42014 6.931338,2.24684 0.422574,0.278027 0.825793,0.699981 0.989741,1.034825 0.125781,0.256893 0.137348,0.311965 0.137348,0.6448 0,0.33267 -0.01138,0.388974 -0.136298,0.642703 -0.166107,0.33741 -0.580428,0.768006 -1.000227,1.041116 -1.200978,0.781325 -3.460709,1.538792 -6.334767,2.123122 -0.343355,0.0698 -0.657484,0.139716 -0.69827,0.15517 -0.07753,0.02938 0.485309,0.104588 4.301811,0.573506 1.261881,0.155043 2.299763,0.287777 2.306601,0.294616 0.09318,0.09318 -0.625527,0.626122 -2.304504,1.707933 -1.697116,1.093499 -4.820454,3.010979 -7.814138,4.797731 -0.863927,0.515628 -1.578131,0.944319 -1.587361,0.953047 -0.03739,0.03533 0.312953,0.0123 0.716096,-0.04718 2.868674,-0.423315 8.524648,-1.914106 13.279734,-3.500792 4.814226,-1.606418 8.868856,-3.346983 11.575995,-4.968629 2.220119,-1.329909 3.652044,-2.675787 4.120428,-3.872994 0.538105,-1.375413 -0.07711,-2.625577 -1.865201,-3.795408 -0.521943,-0.34148 -2.207232,-1.189352 -2.93987,-1.478325 -2.604912,-1.027457 -5.733756,-1.571557 -9.041878,-1.572685 -1.832618,-6.5e-4 -3.436887,0.159681 -5.287359,0.527373 -0.529693,0.105249 -0.63662,0.115507 -0.765372,0.07444 -0.403738,-0.128772 -1.027907,-0.582894 -2.626381,-1.910284 -1.696776,-1.409024 -2.441885,-1.951704 -2.745905,-1.933352 z m 16.910536,5.044116 c 0.118518,-0.01863 0.537369,0.09334 1.361943,0.360669 1.601744,0.519301 3.460638,1.416387 4.450693,2.148285 0.435864,0.322213 0.885071,0.755127 1.110313,1.069424 0.179944,0.251089 0.393458,0.673364 0.441401,0.872316 0.02366,0.09819 0.01607,0.109185 -0.06815,0.102748 -0.05224,-0.004 -0.184903,-0.01258 -0.295664,-0.01993 -1.762922,-0.116775 -3.613287,-0.546971 -4.761036,-1.106121 -1.262795,-0.615196 -1.998024,-1.384371 -2.245792,-2.34854 -0.06598,-0.256769 -0.08364,-0.971472 -0.02621,-1.062085 0.0049,-0.0078 0.01557,-0.01411 0.03252,-0.01678 z m -20.93136,0.85554 v 4.289231 4.290278 h 1.047405 1.046358 v -0.48124 c 0,-0.278244 0.0175,-0.491953 0.04089,-0.506403 0.02223,-0.01373 0.398191,-0.08692 0.83562,-0.16356 3.191055,-0.559032 5.620683,-1.190235 7.09909,-1.843186 1.077444,-0.47586 1.691158,-0.944321 1.691158,-1.291696 0,-0.462572 -1.040995,-1.116181 -2.698723,-1.693254 -1.432338,-0.498614 -3.504053,-0.994222 -5.992967,-1.433238 -0.49418,-0.08716 -0.915416,-0.168495 -0.936271,-0.181383 -0.02085,-0.01289 -0.0388,-0.239792 -0.0388,-0.504307 v -0.481242 h -1.046357 z" />
    <path
       style="fill:#f5f7fa;stroke-width:0.204426;fill-opacity:1"
       d=""
       id="path3" />
  </g>
</svg>
