<?xml version="1.0" encoding="UTF-8" standalone="no"?>
<svg
   width="64"
   height="64"
   version="1.1"
   id="svg73"
   sodipodi:docname="Blue.svg"
   inkscape:version="1.3.2 (091e20ef0f, 2023-11-25)"
   xmlns:inkscape="http://www.inkscape.org/namespaces/inkscape"
   xmlns:sodipodi="http://sodipodi.sourceforge.net/DTD/sodipodi-0.dtd"
   xmlns:xlink="http://www.w3.org/1999/xlink"
   xmlns="http://www.w3.org/2000/svg"
   xmlns:svg="http://www.w3.org/2000/svg"
   xmlns:rdf="http://www.w3.org/1999/02/22-rdf-syntax-ns#"
   xmlns:cc="http://creativecommons.org/ns#"
   xmlns:dc="http://purl.org/dc/elements/1.1/">
  <metadata
     id="metadata77">
    <rdf:RDF>
      <cc:Work
         rdf:about="">
        <dc:format>image/svg+xml</dc:format>
        <dc:type
           rdf:resource="http://purl.org/dc/dcmitype/StillImage" />
      </cc:Work>
    </rdf:RDF>
  </metadata>
  <sodipodi:namedview
     pagecolor="#f5f7fa"
     bordercolor="#666666"
     borderopacity="1"
     objecttolerance="10"
     gridtolerance="10"
     guidetolerance="10"
     inkscape:pageopacity="0"
     inkscape:pageshadow="2"
     inkscape:window-width="1377"
     inkscape:window-height="886"
     id="namedview75"
     showgrid="false"
     inkscape:zoom="6.2890624"
     inkscape:cx="47.701864"
     inkscape:cy="46.191305"
     inkscape:window-x="165"
     inkscape:window-y="124"
     inkscape:window-maximized="0"
     inkscape:current-layer="g877"
     inkscape:document-rotation="0"
     inkscape:pagecheckerboard="0"
     inkscape:showpageshadow="2"
     inkscape:deskcolor="#d1d1d1" />
  <defs
     id="defs29">
    <linearGradient
       id="linearGradient5"
       inkscape:collect="always">
      <stop
         style="stop-color:#984859;stop-opacity:1;"
         offset="0"
         id="stop5" />
      <stop
         style="stop-color:#bf7384;stop-opacity:1;"
         offset="1"
         id="stop6" />
    </linearGradient>
    <inkscape:path-effect
       effect="powerclip"
       id="path-effect1980"
       is_visible="true"
       lpeversion="1"
       inverse="true"
       flatten="false"
       hide_clip="false"
       message="Use fill-rule evenodd on &lt;b&gt;fill and stroke&lt;/b&gt; dialog if no flatten result after convert clip to paths." />
    <clipPath
       clipPathUnits="userSpaceOnUse"
       id="clipPath1976">
      <rect
         x="9.6784649"
         y="9.925169"
         width="43.343258"
         height="44.613056"
         rx="8.6689987"
         ry="8.9229689"
         fill="url(#linearGradient862)"
         stroke-width="2.96772"
         id="rect1978"
         style="display:none;fill:#333333;fill-opacity:1"
         d="m 18.347464,9.925169 h 26.00526 c 4.802625,0 8.668999,3.979644 8.668999,8.922969 v 26.767118 c 0,4.943325 -3.866374,8.922969 -8.668999,8.922969 h -26.00526 c -4.802626,0 -8.6689991,-3.979644 -8.6689991,-8.922969 V 18.848138 c 0,-4.943325 3.8663731,-8.922969 8.6689991,-8.922969 z" />
      <path
         id="lpe_path-effect1980"
         style="fill:#333333;fill-opacity:1"
         class="powerclip"
         d="M 2.0757722,2.2464043 H 60.623896 V 62.216811 H 2.0757722 Z M 18.347464,9.925169 c -4.802626,0 -8.6689991,3.979644 -8.6689991,8.922969 v 26.767118 c 0,4.943325 3.8663731,8.922969 8.6689991,8.922969 h 26.00526 c 4.802625,0 8.668999,-3.979644 8.668999,-8.922969 V 18.848138 c 0,-4.943325 -3.866374,-8.922969 -8.668999,-8.922969 z" />
    </clipPath>
    <linearGradient
       inkscape:collect="always"
       xlink:href="#linearGradient5"
       id="linearGradient6"
       x1="33.785751"
       y1="12.971354"
       x2="33.375801"
       y2="52.289253"
       gradientUnits="userSpaceOnUse"
       gradientTransform="matrix(1.1,0,0,1.1,-3.1845928,-3.2341119)" />
    <linearGradient
       id="d"
       y1="1050.34"
       y2="1038.36"
       gradientUnits="userSpaceOnUse"
       x2="0"
       gradientTransform="matrix(-2.5774727,0,0,2.5806818,51.999856,-2661.7402)">
      <stop
         stop-color="#c61423"
         id="stop7" />
      <stop
         offset="1"
         stop-color="#dc2b41"
         id="stop8" />
    </linearGradient>
  </defs>
  <g
     id="g877"
     transform="matrix(1.1,0,0,1.1,-3.1845928,-3.2065454)">
    <path
       d="m 18.347203,7.2464043 c -6.244452,0 -11.2714308,5.1741617 -11.2714308,11.6016437 v 26.767119 c 0,6.427394 5.0268918,11.601644 11.2714308,11.601644 h 26.005262 c 6.244452,0 11.271431,-5.174161 11.271431,-11.601644 V 18.848048 c 0,-6.427393 -5.026893,-11.6016437 -11.271431,-11.6016437 z"
       fill="url(#linearGradient910)"
       stroke-width="3.32418"
       id="path33"
       style="fill:#4d4d4d;fill-opacity:1"
       clip-path="url(#clipPath1976)"
       inkscape:path-effect="#path-effect1980"
       inkscape:original-d="m 18.347203,7.2464043 c -6.244452,0 -11.2714308,5.1741617 -11.2714308,11.6016437 v 26.767119 c 0,6.427394 5.0268918,11.601644 11.2714308,11.601644 h 26.005262 c 6.244452,0 11.271431,-5.174161 11.271431,-11.601644 V 18.848048 c 0,-6.427393 -5.026893,-11.6016437 -11.271431,-11.6016437 z"
       transform="matrix(1.089,0,0,1.089,-2.2940414,-2.7591018)" />
    <rect
       x="8.245779"
       y="8.0493994"
       width="47.200809"
       height="48.583622"
       rx="9.511797"
       ry="9.6776171"
       fill="url(#linearGradient862)"
       stroke-width="3.23184"
       id="rect35-7"
       style="opacity:1;fill:#f9f9f9;fill-opacity:1" />
    <rect
       x="10.60582"
       y="10.47858"
       width="42.480732"
       height="43.725258"
       rx="9.0337515"
       ry="8.819849"
       fill="url(#linearGradient862)"
       stroke-width="2.90867"
       id="rect35-7-3"
       style="fill:url(#linearGradient6)" />
    <path
       style="fill:#000000;fill-opacity:1;stroke-width:0.0280938;opacity:0.2"
       d="m 30.044323,50.247877 c -0.189305,-0.06686 -0.44339,-0.303948 -0.536538,-0.500649 -0.03494,-0.0738 -0.114912,-0.326646 -0.177682,-0.561872 -0.469814,-1.760538 -0.595601,-2.263407 -0.571477,-2.284707 0.01519,-0.01341 0.137205,-0.08055 0.271122,-0.149161 0.637089,-0.32644 1.49349,-0.868178 2.035507,-1.287619 0.161535,-0.125009 0.325887,-0.25041 0.365225,-0.278672 0.07015,-0.05042 0.07151,-0.01026 0.07151,2.105626 0,2.061849 -0.0031,2.165818 -0.07456,2.3563 -0.08825,0.235857 -0.32006,0.478026 -0.562241,0.587343 -0.205355,0.0927 -0.579108,0.0988 -0.820878,0.01341 z m 2.898073,0.01462 c -0.296935,-0.114406 -0.512302,-0.319421 -0.646322,-0.615228 -0.05727,-0.1264 -0.0644,-0.360949 -0.07117,-2.344201 -0.0058,-1.710258 0.0023,-2.196053 0.03747,-2.169396 0.02475,0.01891 0.162988,0.126617 0.307201,0.239366 0.59194,0.462827 1.424184,0.995545 2.127557,1.361855 0.309065,0.160959 0.322447,0.18401 0.250279,0.431018 -0.02102,0.07197 -0.174282,0.644977 -0.340572,1.273338 -0.166283,0.628362 -0.326892,1.201473 -0.35691,1.273583 -0.07788,0.187097 -0.301328,0.406532 -0.519139,0.5098 -0.209466,0.09931 -0.584823,0.11829 -0.788377,0.03987 z M 24.27253,46.302358 c -2.236185,-0.145517 -4.250504,-0.982168 -5.669454,-2.354803 -0.92844,-0.898138 -1.488927,-1.879287 -1.735145,-3.037434 -0.09452,-0.444597 -0.09582,-1.539655 -0.0023,-1.972525 0.285585,-1.322422 1.021934,-2.485236 2.187098,-3.453799 l 0.192893,-0.16035 0.02439,-0.343801 c 0.227011,-3.200949 1.159566,-6.159458 2.682628,-8.510567 0.122247,-0.188716 0.222271,-0.351552 0.222271,-0.361866 0,-0.01031 -0.07165,-0.03997 -0.159199,-0.06591 -0.08755,-0.02596 -0.274829,-0.104932 -0.416156,-0.175521 -0.965224,-0.482137 -1.480261,-1.259799 -1.339676,-2.022784 0.0572,-0.310464 0.246838,-0.742394 0.309056,-0.703943 0.02808,0.01739 0.03434,0.01131 0.01712,-0.01658 -0.06599,-0.106765 0.614813,-0.826264 1.182248,-1.249454 1.217585,-0.908063 2.266155,-0.99719 2.968795,-0.252362 0.246288,0.26108 0.521167,0.741139 0.568334,0.99258 0.01337,0.07127 0.03084,0.129591 0.03874,0.129591 0.0079,0 0.131856,-0.08379 0.27538,-0.186202 1.357645,-0.968748 2.99846,-1.648121 4.615131,-1.910885 0.471216,-0.07658 1.542502,-0.150083 1.885424,-0.129345 0.103012,0.0062 0.357117,0.02123 0.56467,0.03332 1.603265,0.09355 3.483777,0.736218 4.955367,1.693515 0.17232,0.112101 0.316666,0.198724 0.320757,0.192506 0.004,-0.0061 0.06273,-0.183041 0.130281,-0.392915 0.261079,-0.811071 0.714467,-1.285522 1.35731,-1.420376 0.304875,-0.06395 0.528467,-0.0497 0.903414,0.05763 0.888955,0.254462 2.108636,1.229045 2.531618,2.022884 0.281957,0.529175 0.31997,1.011385 0.117055,1.484767 -0.210977,0.492179 -0.832431,1.016414 -1.515179,1.278131 -0.144595,0.05544 -0.269559,0.10558 -0.27767,0.111443 -0.0081,0.0058 0.137313,0.234388 0.323197,0.50783 1.582772,2.328315 2.579588,5.167813 2.876841,8.194864 0.02937,0.298722 0.05368,0.646823 0.05411,0.773548 l 0.0015,0.23041 0.234111,0.197717 c 1.195541,1.009652 1.903877,2.127008 2.190865,3.455918 0.09348,0.432872 0.09219,1.527934 -0.0019,1.972533 -0.246225,1.158185 -0.8085,2.142435 -1.734054,3.03544 -0.876691,0.845858 -1.895518,1.450925 -3.142108,1.866048 -3.210039,1.068978 -6.891982,0.432466 -9.262333,-1.601208 l -0.197419,-0.169373 0.440897,-0.08101 c 1.852915,-0.34047 3.211087,-1.502305 3.477723,-2.974975 0.09319,-0.514723 0.0508,-0.756684 -0.160063,-0.913472 -0.132607,-0.0986 -0.382919,-0.120694 -0.52647,-0.04646 -0.194193,0.100422 -0.261633,0.235657 -0.303207,0.607997 -0.04711,0.421967 -0.173343,0.742761 -0.423389,1.075968 -0.447481,0.596286 -1.174563,1.022523 -2.091942,1.226344 -0.175122,0.03892 -0.339466,0.07111 -0.365221,0.07156 -0.03653,0.0015 -0.04682,-0.269257 -0.04682,-1.226798 v -1.227611 l 0.215389,-0.0488 c 0.855774,-0.193881 1.75942,-1.048677 2.164183,-2.047183 0.0847,-0.20894 0.109658,-0.337947 0.122881,-0.635045 0.01619,-0.363409 0.01341,-0.379138 -0.108784,-0.621756 -0.09801,-0.194608 -0.174622,-0.286045 -0.351149,-0.419057 -0.378863,-0.285479 -0.707481,-0.414529 -1.378121,-0.541218 -0.497221,-0.09393 -2.103751,-0.0943 -2.612233,-0.0015 -0.932777,0.171875 -1.506381,0.498082 -1.750726,0.995628 -0.08885,0.180928 -0.103282,0.255646 -0.102159,0.52908 0.0027,0.6608 0.405416,1.415213 1.108549,2.076671 0.329322,0.3098 0.80485,0.575982 1.18447,0.663023 l 0.196661,0.04509 v 1.214258 1.214257 l -0.159198,-0.02628 c -0.293119,-0.04839 -0.755462,-0.211288 -1.09503,-0.38585 -0.516008,-0.265263 -0.863904,-0.567017 -1.145671,-0.993722 -0.197152,-0.298561 -0.292975,-0.572378 -0.330761,-0.945163 -0.03499,-0.345236 -0.09318,-0.466682 -0.277409,-0.57901 -0.152666,-0.09309 -0.348941,-0.09309 -0.501611,0 -0.19669,0.119926 -0.25574,0.245097 -0.248663,0.52707 0.02548,1.015452 0.622825,1.993468 1.61793,2.649044 0.538751,0.354924 1.346581,0.66798 1.919978,0.744043 0.100641,0.01332 0.182979,0.03487 0.182979,0.04783 0,0.01294 -0.130634,0.13357 -0.290301,0.268048 -1.411048,1.188428 -3.2583,1.885351 -5.357767,2.021362 -0.603337,0.03908 -0.652067,0.039 -1.281726,-0.0019 z m 1.409742,-11.841611 c 0.527925,-0.263651 0.931152,-0.895763 1.174875,-1.84173 0.158177,-0.613946 0.200533,-1.050395 0.17625,-1.81605 -0.02968,-0.935834 -0.160877,-1.515109 -0.499552,-2.205693 -0.338908,-0.691066 -0.84038,-1.085509 -1.338631,-1.052933 -0.312094,0.02042 -0.542083,0.143978 -0.823802,0.442618 -0.369318,0.391492 -0.648102,0.998368 -0.817373,1.779302 -0.108947,0.502616 -0.13612,1.69794 -0.05111,2.248205 0.207882,1.345662 0.751998,2.281403 1.462585,2.515269 0.201219,0.06622 0.504465,0.03704 0.716759,-0.06899 z m -0.641844,-1.325831 c -0.187802,-0.09748 -0.317207,-0.246852 -0.452062,-0.52182 -0.232746,-0.474583 -0.289597,-0.772458 -0.293079,-1.535793 -0.0023,-0.577857 0.0086,-0.720648 0.07926,-0.998828 0.270958,-1.067913 0.80893,-1.447453 1.309885,-0.92411 0.155192,0.162129 0.325541,0.530778 0.429873,0.930294 0.07088,0.271396 0.08301,0.415151 0.08213,0.973917 -0.0015,0.583729 -0.01155,0.694857 -0.09723,1.014704 -0.229942,0.858424 -0.646183,1.275783 -1.058782,1.061636 z M 25.54846,31.09478 c 0.03977,-0.02131 0.109218,-0.109791 0.154306,-0.196654 0.119007,-0.229311 0.121859,-0.793845 0.0052,-1.046188 -0.171208,-0.370575 -0.448447,-0.238476 -0.534311,0.254594 -0.06945,0.398865 0.02213,0.848675 0.197899,0.971774 0.09381,0.06572 0.08616,0.06499 0.176831,0.01646 z m 13.611263,3.356646 c 0.23055,-0.112794 0.537705,-0.426484 0.724225,-0.73962 0.776259,-1.303225 0.837855,-3.664933 0.132211,-5.069297 -0.481444,-0.958155 -1.115767,-1.314487 -1.763669,-0.990724 -0.797793,0.398656 -1.356488,1.79676 -1.356488,3.394522 0,1.641138 0.579441,3.052787 1.415437,3.44832 0.237695,0.112448 0.564115,0.09583 0.848284,-0.0432 z m -0.6833,-1.320507 c -0.130903,-0.06451 -0.334259,-0.292209 -0.429015,-0.480359 -0.129002,-0.256163 -0.255287,-0.757775 -0.29779,-1.182884 -0.09681,-0.968321 0.140114,-1.956094 0.569845,-2.375705 0.118852,-0.116059 0.178803,-0.144849 0.332294,-0.159597 0.314943,-0.03026 0.544729,0.172192 0.767713,0.676408 0.178422,0.40344 0.22984,0.733918 0.228454,1.468521 -0.0015,0.756276 -0.06136,1.082309 -0.280488,1.525464 -0.245819,0.497139 -0.567289,0.687684 -0.891013,0.528152 z m 0.557048,-2.036139 c 0.03978,-0.02131 0.109356,-0.109791 0.154615,-0.196654 0.122864,-0.235881 0.122243,-0.797127 -0.0015,-1.047729 -0.147587,-0.299677 -0.382088,-0.261862 -0.499597,0.08056 -0.11983,0.349209 -0.02255,1.012937 0.16797,1.146403 0.0953,0.06675 0.08742,0.06599 0.178176,0.01739 z"
       id="path1-2" />
    <path
       style="fill:#f9f9f9;fill-opacity:1;stroke-width:0.0280938"
       d="m 30.044323,48.429695 c -0.189305,-0.06686 -0.44339,-0.303948 -0.536538,-0.500649 -0.03494,-0.0738 -0.114912,-0.326646 -0.177682,-0.561872 -0.469814,-1.760538 -0.595601,-2.263407 -0.571477,-2.284707 0.01519,-0.01341 0.137205,-0.08055 0.271122,-0.149161 0.637089,-0.32644 1.49349,-0.868178 2.035507,-1.287619 0.161535,-0.125009 0.325887,-0.25041 0.365225,-0.278672 0.07015,-0.05042 0.07151,-0.01026 0.07151,2.105626 0,2.061849 -0.0031,2.165818 -0.07456,2.3563 -0.08825,0.235857 -0.32006,0.478026 -0.562241,0.587343 -0.205355,0.0927 -0.579108,0.0988 -0.820878,0.01341 z m 2.898073,0.01462 c -0.296935,-0.114406 -0.512302,-0.319421 -0.646322,-0.615228 -0.05727,-0.1264 -0.0644,-0.360949 -0.07117,-2.344201 -0.0058,-1.710258 0.0023,-2.196053 0.03747,-2.169396 0.02475,0.01891 0.162988,0.126617 0.307201,0.239366 0.59194,0.462827 1.424184,0.995545 2.127557,1.361855 0.309065,0.160959 0.322447,0.18401 0.250279,0.431018 -0.02102,0.07197 -0.174282,0.644977 -0.340572,1.273338 -0.166283,0.628362 -0.326892,1.201473 -0.35691,1.273583 -0.07788,0.187097 -0.301328,0.406532 -0.519139,0.5098 -0.209466,0.09931 -0.584823,0.11829 -0.788377,0.03987 z M 24.27253,44.484176 c -2.236185,-0.145517 -4.250504,-0.982168 -5.669454,-2.354803 -0.92844,-0.898138 -1.488927,-1.879287 -1.735145,-3.037434 -0.09452,-0.444597 -0.09582,-1.539655 -0.0023,-1.972525 0.285585,-1.322422 1.021934,-2.485236 2.187098,-3.453799 l 0.192893,-0.16035 0.02439,-0.343801 c 0.227011,-3.200949 1.159566,-6.159458 2.682628,-8.510567 0.122247,-0.188716 0.222271,-0.351552 0.222271,-0.361866 0,-0.01031 -0.07165,-0.03997 -0.159199,-0.06591 -0.08755,-0.02596 -0.274829,-0.104932 -0.416156,-0.175521 -0.965224,-0.482137 -1.480261,-1.259799 -1.339676,-2.022784 0.0572,-0.310464 0.246838,-0.742394 0.309056,-0.703943 0.02808,0.01739 0.03434,0.01131 0.01712,-0.01658 -0.06599,-0.106765 0.614813,-0.826264 1.182248,-1.249454 1.217585,-0.908063 2.266155,-0.99719 2.968795,-0.252362 0.246288,0.26108 0.521167,0.741139 0.568334,0.99258 0.01337,0.07127 0.03084,0.129591 0.03874,0.129591 0.0079,0 0.131856,-0.08379 0.27538,-0.186202 1.357645,-0.968748 2.99846,-1.648121 4.615131,-1.910885 0.471216,-0.07658 1.542502,-0.150083 1.885424,-0.129345 0.103012,0.0062 0.357117,0.02123 0.56467,0.03332 1.603265,0.09355 3.483777,0.736218 4.955367,1.693515 0.17232,0.112101 0.316666,0.198724 0.320757,0.192506 0.004,-0.0061 0.06273,-0.183041 0.130281,-0.392915 0.261079,-0.811071 0.714467,-1.285522 1.35731,-1.420376 0.304875,-0.06395 0.528467,-0.0497 0.903414,0.05763 0.888955,0.254462 2.108636,1.229045 2.531618,2.022884 0.281957,0.529175 0.31997,1.011385 0.117055,1.484767 -0.210977,0.492179 -0.832431,1.016414 -1.515179,1.278131 -0.144595,0.05544 -0.269559,0.10558 -0.27767,0.111443 -0.0081,0.0058 0.137313,0.234388 0.323197,0.50783 1.582772,2.328315 2.579588,5.167813 2.876841,8.194864 0.02937,0.298722 0.05368,0.646823 0.05411,0.773548 l 0.0015,0.23041 0.234111,0.197717 c 1.195541,1.009652 1.903877,2.127008 2.190865,3.455918 0.09348,0.432872 0.09219,1.527934 -0.0019,1.972533 -0.246225,1.158185 -0.8085,2.142435 -1.734054,3.03544 -0.876691,0.845858 -1.895518,1.450925 -3.142108,1.866048 -3.210039,1.068978 -6.891982,0.432466 -9.262333,-1.601208 l -0.197419,-0.169373 0.440897,-0.08101 c 1.852915,-0.34047 3.211087,-1.502305 3.477723,-2.974975 0.09319,-0.514723 0.0508,-0.756684 -0.160063,-0.913472 -0.132607,-0.0986 -0.382919,-0.120694 -0.52647,-0.04646 -0.194193,0.100422 -0.261633,0.235657 -0.303207,0.607997 -0.04711,0.421967 -0.173343,0.742761 -0.423389,1.075968 -0.447481,0.596286 -1.174563,1.022523 -2.091942,1.226344 -0.175122,0.03892 -0.339466,0.07111 -0.365221,0.07156 -0.03653,0.0015 -0.04682,-0.269257 -0.04682,-1.226798 v -1.227611 l 0.215389,-0.0488 c 0.855774,-0.193881 1.75942,-1.048677 2.164183,-2.047183 0.0847,-0.20894 0.109658,-0.337947 0.122881,-0.635045 0.01619,-0.363409 0.01341,-0.379138 -0.108784,-0.621756 -0.09801,-0.194608 -0.174622,-0.286045 -0.351149,-0.419057 -0.378863,-0.285479 -0.707481,-0.414529 -1.378121,-0.541218 -0.497221,-0.09393 -2.103751,-0.0943 -2.612233,-0.0015 -0.932777,0.171875 -1.506381,0.498082 -1.750726,0.995628 -0.08885,0.180928 -0.103282,0.255646 -0.102159,0.52908 0.0027,0.6608 0.405416,1.415213 1.108549,2.076671 0.329322,0.3098 0.80485,0.575982 1.18447,0.663023 l 0.196661,0.04509 v 1.214258 1.214257 l -0.159198,-0.02628 c -0.293119,-0.04839 -0.755462,-0.211288 -1.09503,-0.38585 -0.516008,-0.265263 -0.863904,-0.567017 -1.145671,-0.993722 -0.197152,-0.298561 -0.292975,-0.572378 -0.330761,-0.945163 -0.03499,-0.345236 -0.09318,-0.466682 -0.277409,-0.57901 -0.152666,-0.09309 -0.348941,-0.09309 -0.501611,0 -0.19669,0.119926 -0.25574,0.245097 -0.248663,0.52707 0.02548,1.015452 0.622825,1.993468 1.61793,2.649044 0.538751,0.354924 1.346581,0.66798 1.919978,0.744043 0.100641,0.01332 0.182979,0.03487 0.182979,0.04783 0,0.01294 -0.130634,0.13357 -0.290301,0.268048 -1.411048,1.188428 -3.2583,1.885351 -5.357767,2.021362 -0.603337,0.03908 -0.652067,0.039 -1.281726,-0.0019 z m 1.409742,-11.841611 c 0.527925,-0.263651 0.931152,-0.895763 1.174875,-1.84173 0.158177,-0.613946 0.200533,-1.050395 0.17625,-1.81605 -0.02968,-0.935834 -0.160877,-1.515109 -0.499552,-2.205693 -0.338908,-0.691066 -0.84038,-1.085509 -1.338631,-1.052933 -0.312094,0.02042 -0.542083,0.143978 -0.823802,0.442618 -0.369318,0.391492 -0.648102,0.998368 -0.817373,1.779302 -0.108947,0.502616 -0.13612,1.69794 -0.05111,2.248205 0.207882,1.345662 0.751998,2.281403 1.462585,2.515269 0.201219,0.06622 0.504465,0.03704 0.716759,-0.06899 z m -0.641844,-1.325831 c -0.187802,-0.09748 -0.317207,-0.246852 -0.452062,-0.52182 -0.232746,-0.474583 -0.289597,-0.772458 -0.293079,-1.535793 -0.0023,-0.577857 0.0086,-0.720648 0.07926,-0.998828 0.270958,-1.067913 0.80893,-1.447453 1.309885,-0.92411 0.155192,0.162129 0.325541,0.530778 0.429873,0.930294 0.07088,0.271396 0.08301,0.415151 0.08213,0.973917 -0.0015,0.583729 -0.01155,0.694857 -0.09723,1.014704 -0.229942,0.858424 -0.646183,1.275783 -1.058782,1.061636 z m 0.508032,-2.040136 c 0.03977,-0.02131 0.109218,-0.109791 0.154306,-0.196654 0.119007,-0.229311 0.121859,-0.793845 0.0052,-1.046188 -0.171208,-0.370575 -0.448447,-0.238476 -0.534311,0.254594 -0.06945,0.398865 0.02213,0.848675 0.197899,0.971774 0.09381,0.06572 0.08616,0.06499 0.176831,0.01646 z m 13.611263,3.356646 c 0.23055,-0.112794 0.537705,-0.426484 0.724225,-0.73962 0.776259,-1.303225 0.837855,-3.664933 0.132211,-5.069297 -0.481444,-0.958155 -1.115767,-1.314487 -1.763669,-0.990724 -0.797793,0.398656 -1.356488,1.79676 -1.356488,3.394522 0,1.641138 0.579441,3.052787 1.415437,3.44832 0.237695,0.112448 0.564115,0.09583 0.848284,-0.0432 z m -0.6833,-1.320507 c -0.130903,-0.06451 -0.334259,-0.292209 -0.429015,-0.480359 -0.129002,-0.256163 -0.255287,-0.757775 -0.29779,-1.182884 -0.09681,-0.968321 0.140114,-1.956094 0.569845,-2.375705 0.118852,-0.116059 0.178803,-0.144849 0.332294,-0.159597 0.314943,-0.03026 0.544729,0.172192 0.767713,0.676408 0.178422,0.40344 0.22984,0.733918 0.228454,1.468521 -0.0015,0.756276 -0.06136,1.082309 -0.280488,1.525464 -0.245819,0.497139 -0.567289,0.687684 -0.891013,0.528152 z m 0.557048,-2.036139 c 0.03978,-0.02131 0.109356,-0.109791 0.154615,-0.196654 0.122864,-0.235881 0.122243,-0.797127 -0.0015,-1.047729 -0.147587,-0.299677 -0.382088,-0.261862 -0.499597,0.08056 -0.11983,0.349209 -0.02255,1.012937 0.16797,1.146403 0.0953,0.06675 0.08742,0.06599 0.178176,0.01739 z"
       id="path1" />
    <path
       style="fill:#f5f7fa;stroke-width:0.204426;fill-opacity:1"
       d=""
       id="path3" />
  </g>
</svg>
