<?xml version="1.0" encoding="UTF-8" standalone="no"?>
<svg
   width="64"
   height="64"
   version="1.1"
   id="svg73"
   sodipodi:docname="converseen.svg"
   inkscape:version="1.3.2 (091e20ef0f, 2023-11-25)"
   xmlns:inkscape="http://www.inkscape.org/namespaces/inkscape"
   xmlns:sodipodi="http://sodipodi.sourceforge.net/DTD/sodipodi-0.dtd"
   xmlns:xlink="http://www.w3.org/1999/xlink"
   xmlns="http://www.w3.org/2000/svg"
   xmlns:svg="http://www.w3.org/2000/svg"
   xmlns:rdf="http://www.w3.org/1999/02/22-rdf-syntax-ns#"
   xmlns:cc="http://creativecommons.org/ns#"
   xmlns:dc="http://purl.org/dc/elements/1.1/">
  <metadata
     id="metadata77">
    <rdf:RDF>
      <cc:Work
         rdf:about="">
        <dc:format>image/svg+xml</dc:format>
        <dc:type
           rdf:resource="http://purl.org/dc/dcmitype/StillImage" />
      </cc:Work>
    </rdf:RDF>
  </metadata>
  <sodipodi:namedview
     pagecolor="#f5f7fa"
     bordercolor="#666666"
     borderopacity="1"
     objecttolerance="10"
     gridtolerance="10"
     guidetolerance="10"
     inkscape:pageopacity="0"
     inkscape:pageshadow="2"
     inkscape:window-width="1377"
     inkscape:window-height="886"
     id="namedview75"
     showgrid="false"
     inkscape:zoom="6.2890624"
     inkscape:cx="34.345342"
     inkscape:cy="27.269566"
     inkscape:window-x="202"
     inkscape:window-y="90"
     inkscape:window-maximized="0"
     inkscape:current-layer="g877"
     inkscape:document-rotation="0"
     inkscape:pagecheckerboard="0"
     inkscape:showpageshadow="2"
     inkscape:deskcolor="#d1d1d1" />
  <defs
     id="defs29">
    <linearGradient
       id="linearGradient5"
       inkscape:collect="always">
      <stop
         style="stop-color:#984859;stop-opacity:1;"
         offset="0"
         id="stop5" />
      <stop
         style="stop-color:#bf7384;stop-opacity:1;"
         offset="1"
         id="stop6" />
    </linearGradient>
    <inkscape:path-effect
       effect="powerclip"
       id="path-effect1980"
       is_visible="true"
       lpeversion="1"
       inverse="true"
       flatten="false"
       hide_clip="false"
       message="Use fill-rule evenodd on &lt;b&gt;fill and stroke&lt;/b&gt; dialog if no flatten result after convert clip to paths." />
    <clipPath
       clipPathUnits="userSpaceOnUse"
       id="clipPath1976">
      <rect
         x="9.6784649"
         y="9.925169"
         width="43.343258"
         height="44.613056"
         rx="8.6689987"
         ry="8.9229689"
         fill="url(#linearGradient862)"
         stroke-width="2.96772"
         id="rect1978"
         style="display:none;fill:#333333;fill-opacity:1"
         d="m 18.347464,9.925169 h 26.00526 c 4.802625,0 8.668999,3.979644 8.668999,8.922969 v 26.767118 c 0,4.943325 -3.866374,8.922969 -8.668999,8.922969 h -26.00526 c -4.802626,0 -8.6689991,-3.979644 -8.6689991,-8.922969 V 18.848138 c 0,-4.943325 3.8663731,-8.922969 8.6689991,-8.922969 z" />
      <path
         id="lpe_path-effect1980"
         style="fill:#333333;fill-opacity:1"
         class="powerclip"
         d="M 2.0757722,2.2464043 H 60.623896 V 62.216811 H 2.0757722 Z M 18.347464,9.925169 c -4.802626,0 -8.6689991,3.979644 -8.6689991,8.922969 v 26.767118 c 0,4.943325 3.8663731,8.922969 8.6689991,8.922969 h 26.00526 c 4.802625,0 8.668999,-3.979644 8.668999,-8.922969 V 18.848138 c 0,-4.943325 -3.866374,-8.922969 -8.668999,-8.922969 z" />
    </clipPath>
    <linearGradient
       inkscape:collect="always"
       xlink:href="#linearGradient5"
       id="linearGradient6"
       x1="33.785751"
       y1="12.971354"
       x2="33.375801"
       y2="52.289253"
       gradientUnits="userSpaceOnUse"
       gradientTransform="matrix(1.1,0,0,1.1,-3.1845928,-3.2341119)" />
  </defs>
  <g
     id="g877"
     transform="matrix(1.1,0,0,1.1,-3.1845928,-3.2065454)">
    <path
       d="m 18.347203,7.2464043 c -6.244452,0 -11.2714308,5.1741617 -11.2714308,11.6016437 v 26.767119 c 0,6.427394 5.0268918,11.601644 11.2714308,11.601644 h 26.005262 c 6.244452,0 11.271431,-5.174161 11.271431,-11.601644 V 18.848048 c 0,-6.427393 -5.026893,-11.6016437 -11.271431,-11.6016437 z"
       fill="url(#linearGradient910)"
       stroke-width="3.32418"
       id="path33"
       style="fill:#4d4d4d;fill-opacity:1"
       clip-path="url(#clipPath1976)"
       inkscape:path-effect="#path-effect1980"
       inkscape:original-d="m 18.347203,7.2464043 c -6.244452,0 -11.2714308,5.1741617 -11.2714308,11.6016437 v 26.767119 c 0,6.427394 5.0268918,11.601644 11.2714308,11.601644 h 26.005262 c 6.244452,0 11.271431,-5.174161 11.271431,-11.601644 V 18.848048 c 0,-6.427393 -5.026893,-11.6016437 -11.271431,-11.6016437 z"
       transform="matrix(1.089,0,0,1.089,-2.2940414,-2.7591018)" />
    <rect
       x="8.245779"
       y="8.0493994"
       width="47.200809"
       height="48.583622"
       rx="9.511797"
       ry="9.6776171"
       fill="url(#linearGradient862)"
       stroke-width="3.23184"
       id="rect35-7"
       style="opacity:1;fill:#f9f9f9;fill-opacity:1" />
    <rect
       x="10.60582"
       y="10.47858"
       width="42.480732"
       height="43.725258"
       rx="9.0337515"
       ry="8.819849"
       fill="url(#linearGradient862)"
       stroke-width="2.90867"
       id="rect35-7-3"
       style="fill:url(#linearGradient6)" />
    <path
       style="fill:#000000;fill-opacity:1;stroke:none;stroke-width:0.970298;stroke-dasharray:none;stroke-opacity:0.3;opacity:0.2"
       d="m 22.700937,49.486425 c 0,0 1.676718,0.929192 3.908645,1.257074 0.903865,0.132807 4.342903,0.596876 6.979714,0.584733 0,0 3.21139,0.0033 4.984054,-0.292332 1.854859,-0.31039 2.905581,-0.706527 3.49048,-1.497046 0.0156,-0.188448 0.282269,-0.802891 -0.438724,-1.395391 -1.8433,-1.514845 -4.226177,-1.929447 -8.854732,-3.224484 -5.118289,-1.515934 -6.726328,-2.967655 -7.490616,-4.01805 -0.724474,-1.052896 0.21452,-3.239544 4.33876,-4.312214 2.088164,-0.59863 9.433225,-0.909134 9.433225,-0.909134 -2.231303,-2.0868 -5.988059,-5.622501 -6.844234,-6.417014 -0.750946,-0.696856 -1.96112,-1.766249 -2.09113,-2.721896 -0.175472,-0.930261 1.067504,-1.37818 1.725625,-1.429852 2.120358,-0.172267 5.01594,0.488456 7.589613,1.091393 1.293711,0.303082 1.520842,0.258419 1.520842,0.258419 1.842516,0.103367 3.641832,-1.401485 3.568692,-3.796095 -0.01464,-2.429015 -2.44233,-4.376832 -4.72395,-4.461878 -2.308146,-0.01174 -7.777561,-0.01174 -7.777561,-0.01174 6.171197,1.498775 7.514252,2.254694 7.836156,3.12984 0.190612,0.517098 -0.317232,1.030881 -2.017373,0.930556 -1.851736,-0.109373 -5.645837,-0.637519 -5.645837,-0.637519 -3.611273,-0.654607 -5.814586,-1.274797 -6.911565,0.413455 -0.716536,1.102956 0.102377,2.446323 0.424089,3.238628 1.4331,2.945932 3.598755,4.967012 5.171245,6.391284 0.591695,0.53593 2.39819,1.722717 2.39819,1.722717 -5.615364,-1.808853 -10.402547,-0.792457 -13.239531,0.964717 -3.261085,2.274017 -2.703218,6.111291 2.471325,9.698942 3.056378,2.119016 4.890473,3.136828 9.894533,3.860653 2.924959,0.549422 3.517208,0.774228 3.495019,1.06104 -0.03138,0.40381 -3.618468,0.556822 -4.561368,0.633435 -2.398973,0.194936 -8.603302,-0.112288 -8.634243,-0.112288 z"
       id="path10-3" />
    <path
       style="fill:#f5f7fa;fill-opacity:1;stroke:none;stroke-width:0.970298;stroke-dasharray:none;stroke-opacity:0.3"
       d="m 22.700937,47.668243 c 0,0 1.676718,0.929192 3.908645,1.257074 0.903865,0.132807 4.342903,0.596876 6.979714,0.584733 0,0 3.21139,0.0033 4.984054,-0.292332 1.854859,-0.31039 2.905581,-0.706527 3.49048,-1.497046 0.0156,-0.188448 0.282269,-0.802891 -0.438724,-1.395391 -1.8433,-1.514845 -4.226177,-1.929447 -8.854732,-3.224484 -5.118289,-1.515934 -6.726328,-2.967655 -7.490616,-4.01805 -0.724474,-1.052896 0.21452,-3.239544 4.33876,-4.312214 2.088164,-0.59863 9.433225,-0.909134 9.433225,-0.909134 -2.231303,-2.0868 -5.988059,-5.622501 -6.844234,-6.417014 -0.750946,-0.696856 -1.96112,-1.766249 -2.09113,-2.721896 -0.175472,-0.930261 1.067504,-1.37818 1.725625,-1.429852 2.120358,-0.172267 5.01594,0.488456 7.589613,1.091393 1.293711,0.303082 1.520842,0.258419 1.520842,0.258419 1.842516,0.103367 3.641832,-1.401485 3.568692,-3.796095 -0.01464,-2.429015 -2.44233,-4.376832 -4.72395,-4.461878 -2.308146,-0.01174 -7.777561,-0.01174 -7.777561,-0.01174 6.171197,1.498775 7.514252,2.254694 7.836156,3.12984 0.190612,0.517098 -0.317232,1.030881 -2.017373,0.930556 -1.851736,-0.109373 -5.645837,-0.637519 -5.645837,-0.637519 -3.611273,-0.654607 -5.814586,-1.274797 -6.911565,0.413455 -0.716536,1.102956 0.102377,2.446323 0.424089,3.238628 1.4331,2.945932 3.598755,4.967012 5.171245,6.391284 0.591695,0.53593 2.39819,1.722717 2.39819,1.722717 -5.615364,-1.808853 -10.402547,-0.792457 -13.239531,0.964717 -3.261085,2.274017 -2.703218,6.111291 2.471325,9.698942 3.056378,2.119016 4.890473,3.136828 9.894533,3.860653 2.924959,0.549422 3.517208,0.774228 3.495019,1.06104 -0.03138,0.40381 -3.618468,0.556822 -4.561368,0.633435 -2.398973,0.194936 -8.603302,-0.112288 -8.634243,-0.112288 z"
       id="path10" />
    <path
       style="fill:#f5f7fa;stroke-width:0.204426;fill-opacity:1"
       d=""
       id="path3" />
  </g>
</svg>
