<?xml version="1.0" encoding="UTF-8" standalone="no"?>
<svg
   width="64"
   height="64"
   version="1.1"
   id="svg73"
   sodipodi:docname="systemsettings.svg"
   inkscape:version="1.3.2 (091e20ef0f, 2023-11-25)"
   xmlns:inkscape="http://www.inkscape.org/namespaces/inkscape"
   xmlns:sodipodi="http://sodipodi.sourceforge.net/DTD/sodipodi-0.dtd"
   xmlns:xlink="http://www.w3.org/1999/xlink"
   xmlns="http://www.w3.org/2000/svg"
   xmlns:svg="http://www.w3.org/2000/svg"
   xmlns:rdf="http://www.w3.org/1999/02/22-rdf-syntax-ns#"
   xmlns:cc="http://creativecommons.org/ns#"
   xmlns:dc="http://purl.org/dc/elements/1.1/">
  <metadata
     id="metadata77">
    <rdf:RDF>
      <cc:Work
         rdf:about="">
        <dc:format>image/svg+xml</dc:format>
        <dc:type
           rdf:resource="http://purl.org/dc/dcmitype/StillImage" />
      </cc:Work>
    </rdf:RDF>
  </metadata>
  <sodipodi:namedview
     pagecolor="#f5f7fa"
     bordercolor="#666666"
     borderopacity="1"
     objecttolerance="10"
     gridtolerance="10"
     guidetolerance="10"
     inkscape:pageopacity="0"
     inkscape:pageshadow="2"
     inkscape:window-width="1377"
     inkscape:window-height="886"
     id="namedview75"
     showgrid="false"
     inkscape:zoom="8.8940774"
     inkscape:cx="30.132412"
     inkscape:cy="28.16481"
     inkscape:window-x="55"
     inkscape:window-y="98"
     inkscape:window-maximized="0"
     inkscape:current-layer="g877"
     inkscape:document-rotation="0"
     inkscape:pagecheckerboard="0"
     inkscape:showpageshadow="2"
     inkscape:deskcolor="#d1d1d1" />
  <defs
     id="defs29">
    <linearGradient
       id="linearGradient5"
       inkscape:collect="always">
      <stop
         style="stop-color:#984859;stop-opacity:1;"
         offset="0"
         id="stop5" />
      <stop
         style="stop-color:#bf7384;stop-opacity:1;"
         offset="1"
         id="stop6" />
    </linearGradient>
    <inkscape:path-effect
       effect="powerclip"
       id="path-effect1980"
       is_visible="true"
       lpeversion="1"
       inverse="true"
       flatten="false"
       hide_clip="false"
       message="Use fill-rule evenodd on &lt;b&gt;fill and stroke&lt;/b&gt; dialog if no flatten result after convert clip to paths." />
    <clipPath
       clipPathUnits="userSpaceOnUse"
       id="clipPath1976">
      <rect
         x="9.6784649"
         y="9.925169"
         width="43.343258"
         height="44.613056"
         rx="8.6689987"
         ry="8.9229689"
         fill="url(#linearGradient862)"
         stroke-width="2.96772"
         id="rect1978"
         style="display:none;fill:#333333;fill-opacity:1"
         d="m 18.347464,9.925169 h 26.00526 c 4.802625,0 8.668999,3.979644 8.668999,8.922969 v 26.767118 c 0,4.943325 -3.866374,8.922969 -8.668999,8.922969 h -26.00526 c -4.802626,0 -8.6689991,-3.979644 -8.6689991,-8.922969 V 18.848138 c 0,-4.943325 3.8663731,-8.922969 8.6689991,-8.922969 z" />
      <path
         id="lpe_path-effect1980"
         style="fill:#333333;fill-opacity:1"
         class="powerclip"
         d="M 2.0757722,2.2464043 H 60.623896 V 62.216811 H 2.0757722 Z M 18.347464,9.925169 c -4.802626,0 -8.6689991,3.979644 -8.6689991,8.922969 v 26.767118 c 0,4.943325 3.8663731,8.922969 8.6689991,8.922969 h 26.00526 c 4.802625,0 8.668999,-3.979644 8.668999,-8.922969 V 18.848138 c 0,-4.943325 -3.866374,-8.922969 -8.668999,-8.922969 z" />
    </clipPath>
    <linearGradient
       inkscape:collect="always"
       xlink:href="#linearGradient5"
       id="linearGradient6"
       x1="33.785751"
       y1="12.971354"
       x2="33.375801"
       y2="52.289253"
       gradientUnits="userSpaceOnUse"
       gradientTransform="matrix(1.1,0,0,1.1,-3.1845928,-3.2341119)" />
  </defs>
  <g
     id="g877"
     transform="matrix(1.1,0,0,1.1,-3.1845928,-3.2065454)">
    <path
       d="m 18.347203,7.2464043 c -6.244452,0 -11.2714308,5.1741617 -11.2714308,11.6016437 v 26.767119 c 0,6.427394 5.0268918,11.601644 11.2714308,11.601644 h 26.005262 c 6.244452,0 11.271431,-5.174161 11.271431,-11.601644 V 18.848048 c 0,-6.427393 -5.026893,-11.6016437 -11.271431,-11.6016437 z"
       fill="url(#linearGradient910)"
       stroke-width="3.32418"
       id="path33"
       style="fill:#4d4d4d;fill-opacity:1"
       clip-path="url(#clipPath1976)"
       inkscape:path-effect="#path-effect1980"
       inkscape:original-d="m 18.347203,7.2464043 c -6.244452,0 -11.2714308,5.1741617 -11.2714308,11.6016437 v 26.767119 c 0,6.427394 5.0268918,11.601644 11.2714308,11.601644 h 26.005262 c 6.244452,0 11.271431,-5.174161 11.271431,-11.601644 V 18.848048 c 0,-6.427393 -5.026893,-11.6016437 -11.271431,-11.6016437 z"
       transform="matrix(1.089,0,0,1.089,-2.2940414,-2.7591018)" />
    <rect
       x="8.245779"
       y="8.0493994"
       width="47.200809"
       height="48.583622"
       rx="9.511797"
       ry="9.6776171"
       fill="url(#linearGradient862)"
       stroke-width="3.23184"
       id="rect35-7"
       style="opacity:1;fill:#f9f9f9;fill-opacity:1" />
    <rect
       x="10.60582"
       y="10.47858"
       width="42.480732"
       height="43.725258"
       rx="9.0337515"
       ry="8.819849"
       fill="url(#linearGradient862)"
       stroke-width="2.90867"
       id="rect35-7-3"
       style="fill:url(#linearGradient6)" />
    <path
       d="m 31.788795,19.460522 c -0.858506,-0.0019 -1.71205,0.338301 -2.328126,1.025528 L 19.212396,31.915333 c -3.463239,4.673745 2.357033,4.131165 4.852099,5.477476 0.89501,0.99698 -3.429835,1.729004 -2.534826,2.726829 0.895011,0.996977 5.4078,1.919546 6.304205,2.916525 0.895008,0.996984 -1.830554,2.055953 -0.935623,3.052849 0.89501,0.996981 2.96319,0.05182 3.350784,2.353343 0.276198,1.644713 3.733955,0.706778 5.423066,-0.640219 0.895009,-0.997739 -1.710964,-0.89993 -0.815955,-1.896911 2.225586,-2.480371 4.297332,-0.905422 5.058876,-3.390775 0.376157,-1.228065 -3.279089,-1.889903 -2.382529,-2.886883 2.575127,-1.638886 11.474376,-2.706727 7.251061,-7.3091 L 34.160166,20.486303 c -0.649697,-0.679744 -1.513099,-1.023669 -2.371682,-1.025527 z m 0.08703,1.08482 c 0.612974,0.0036 1.22463,0.255395 1.664461,0.740977 l 4.057924,4.487422 c 0.384551,0.428219 0.37836,1.255178 0.163165,1.493783 l -2.012581,-1.754682 -0.397081,2.602333 -1.680816,-0.966237 -2.698048,1.84953 -0.892063,-3.906497 -1.44691,2.726829 h -2.208459 c -0.901907,0 -1.009872,-1.2469 -0.19039,-2.139907 1.431411,-1.683734 3.072779,-3.398129 3.965463,-4.392574 0.448636,-0.499722 1.062416,-0.744534 1.675391,-0.740977 z M 27.00745,38.008531 c 0.273916,0.185416 4.416145,1.1034 5.428493,1.286341 0.350973,0.08065 0.102971,0.474911 -0.380766,0.74098 -1.091094,0.315968 -6.383256,-2.027321 -5.048028,-2.027321 z m 16.112179,3.141788 c -0.833546,0.0313 -1.655469,0.493258 -1.88209,1.363451 0,0.567084 3.829443,0.942255 3.829443,-0.130435 -0.273151,-0.861401 -1.113803,-1.26428 -1.947353,-1.232944 z m -17.580868,2.4541 c -1.201611,-0.0121 -2.608531,0.948242 -1.572002,1.926562 0.907953,0.855592 2.310222,-0.216836 2.730678,-1.410842 -0.24742,-0.358269 -0.68844,-0.510972 -1.158676,-0.515727 z m 15.213919,0.07707 c -1.170384,1.144109 0.130095,2.304185 1.283689,1.564979 0.257126,-0.284378 -0.0053,-1.280597 -1.283689,-1.564979 z"
       fill="url(#b)"
       stroke-width="0.837773"
       id="path42-7"
       style="fill:#000000;fill-opacity:1;stroke:none;stroke-width:0.899999;stroke-dasharray:none;stroke-opacity:0.3;opacity:0.2" />
    <path
       d="m 31.788795,17.64234 c -0.858506,-0.0019 -1.71205,0.338301 -2.328126,1.025528 L 19.212396,30.097151 c -3.463239,4.673745 2.357033,4.131165 4.852099,5.477476 0.89501,0.99698 -3.429835,1.729004 -2.534826,2.726829 0.895011,0.996977 5.4078,1.919546 6.304205,2.916525 0.895008,0.996984 -1.830554,2.055953 -0.935623,3.052849 0.89501,0.996981 2.96319,0.05182 3.350784,2.353343 0.276198,1.644713 3.733955,0.706778 5.423066,-0.640219 0.895009,-0.997739 -1.710964,-0.89993 -0.815955,-1.896911 2.225586,-2.480371 4.297332,-0.905422 5.058876,-3.390775 0.376157,-1.228065 -3.279089,-1.889903 -2.382529,-2.886883 2.575127,-1.638886 11.474376,-2.706727 7.251061,-7.3091 L 34.160166,18.668121 c -0.649697,-0.679744 -1.513099,-1.023669 -2.371682,-1.025527 z m 0.08703,1.08482 c 0.612974,0.0036 1.22463,0.255395 1.664461,0.740977 l 4.057924,4.487422 c 0.384551,0.428219 0.37836,1.255178 0.163165,1.493783 l -2.012581,-1.754682 -0.397081,2.602333 -1.680816,-0.966237 -2.698048,1.84953 -0.892063,-3.906497 -1.44691,2.726829 h -2.208459 c -0.901907,0 -1.009872,-1.2469 -0.19039,-2.139907 1.431411,-1.683734 3.072779,-3.398129 3.965463,-4.392574 0.448636,-0.499722 1.062416,-0.744534 1.675391,-0.740977 z M 27.00745,36.190349 c 0.273916,0.185416 4.416145,1.1034 5.428493,1.286341 0.350973,0.08065 0.102971,0.474911 -0.380766,0.74098 -1.091094,0.315968 -6.383256,-2.027321 -5.048028,-2.027321 z m 16.112179,3.141788 c -0.833546,0.0313 -1.655469,0.493258 -1.88209,1.363451 0,0.567084 3.829443,0.942255 3.829443,-0.130435 -0.273151,-0.861401 -1.113803,-1.26428 -1.947353,-1.232944 z m -17.580868,2.4541 c -1.201611,-0.0121 -2.608531,0.948242 -1.572002,1.926562 0.907953,0.855592 2.310222,-0.216836 2.730678,-1.410842 -0.24742,-0.358269 -0.68844,-0.510972 -1.158676,-0.515727 z m 15.213919,0.07707 c -1.170384,1.144109 0.130095,2.304185 1.283689,1.564979 0.257126,-0.284378 -0.0053,-1.280597 -1.283689,-1.564979 z"
       fill="url(#b)"
       stroke-width="0.837773"
       id="path42"
       style="fill:#f9f9f9;fill-opacity:1;stroke:none;stroke-width:0.899999;stroke-dasharray:none;stroke-opacity:0.3" />
    <path
       style="fill:#f5f7fa;stroke-width:0.204426;fill-opacity:1"
       d=""
       id="path3" />
  </g>
</svg>
