<?xml version="1.0" encoding="UTF-8" standalone="no"?>
<svg
   width="64"
   height="64"
   version="1.1"
   id="svg73"
   sodipodi:docname="kalgebra.svg"
   inkscape:version="1.3.2 (091e20ef0f, 2023-11-25)"
   xmlns:inkscape="http://www.inkscape.org/namespaces/inkscape"
   xmlns:sodipodi="http://sodipodi.sourceforge.net/DTD/sodipodi-0.dtd"
   xmlns:xlink="http://www.w3.org/1999/xlink"
   xmlns="http://www.w3.org/2000/svg"
   xmlns:svg="http://www.w3.org/2000/svg"
   xmlns:rdf="http://www.w3.org/1999/02/22-rdf-syntax-ns#"
   xmlns:cc="http://creativecommons.org/ns#"
   xmlns:dc="http://purl.org/dc/elements/1.1/">
  <metadata
     id="metadata77">
    <rdf:RDF>
      <cc:Work
         rdf:about="">
        <dc:format>image/svg+xml</dc:format>
        <dc:type
           rdf:resource="http://purl.org/dc/dcmitype/StillImage" />
      </cc:Work>
    </rdf:RDF>
  </metadata>
  <sodipodi:namedview
     pagecolor="#f5f7fa"
     bordercolor="#666666"
     borderopacity="1"
     objecttolerance="10"
     gridtolerance="10"
     guidetolerance="10"
     inkscape:pageopacity="0"
     inkscape:pageshadow="2"
     inkscape:window-width="1377"
     inkscape:window-height="886"
     id="namedview75"
     showgrid="false"
     inkscape:zoom="3.1445312"
     inkscape:cx="30.529193"
     inkscape:cy="48.496895"
     inkscape:window-x="55"
     inkscape:window-y="98"
     inkscape:window-maximized="0"
     inkscape:current-layer="g2"
     inkscape:document-rotation="0"
     inkscape:pagecheckerboard="0"
     inkscape:showpageshadow="2"
     inkscape:deskcolor="#d1d1d1" />
  <defs
     id="defs29">
    <linearGradient
       id="linearGradient5"
       inkscape:collect="always">
      <stop
         style="stop-color:#984859;stop-opacity:1;"
         offset="0"
         id="stop5" />
      <stop
         style="stop-color:#bf7384;stop-opacity:1;"
         offset="1"
         id="stop6" />
    </linearGradient>
    <inkscape:path-effect
       effect="powerclip"
       id="path-effect1980"
       is_visible="true"
       lpeversion="1"
       inverse="true"
       flatten="false"
       hide_clip="false"
       message="Use fill-rule evenodd on &lt;b&gt;fill and stroke&lt;/b&gt; dialog if no flatten result after convert clip to paths." />
    <clipPath
       clipPathUnits="userSpaceOnUse"
       id="clipPath1976">
      <rect
         x="9.6784649"
         y="9.925169"
         width="43.343258"
         height="44.613056"
         rx="8.6689987"
         ry="8.9229689"
         fill="url(#linearGradient862)"
         stroke-width="2.96772"
         id="rect1978"
         style="display:none;fill:#333333;fill-opacity:1"
         d="m 18.347464,9.925169 h 26.00526 c 4.802625,0 8.668999,3.979644 8.668999,8.922969 v 26.767118 c 0,4.943325 -3.866374,8.922969 -8.668999,8.922969 h -26.00526 c -4.802626,0 -8.6689991,-3.979644 -8.6689991,-8.922969 V 18.848138 c 0,-4.943325 3.8663731,-8.922969 8.6689991,-8.922969 z" />
      <path
         id="lpe_path-effect1980"
         style="fill:#333333;fill-opacity:1"
         class="powerclip"
         d="M 2.0757722,2.2464043 H 60.623896 V 62.216811 H 2.0757722 Z M 18.347464,9.925169 c -4.802626,0 -8.6689991,3.979644 -8.6689991,8.922969 v 26.767118 c 0,4.943325 3.8663731,8.922969 8.6689991,8.922969 h 26.00526 c 4.802625,0 8.668999,-3.979644 8.668999,-8.922969 V 18.848138 c 0,-4.943325 -3.866374,-8.922969 -8.668999,-8.922969 z" />
    </clipPath>
    <linearGradient
       inkscape:collect="always"
       xlink:href="#linearGradient5"
       id="linearGradient6"
       x1="33.785751"
       y1="12.971354"
       x2="33.375801"
       y2="52.289253"
       gradientUnits="userSpaceOnUse"
       gradientTransform="matrix(1.1,0,0,1.1,-3.1845928,-3.2341119)" />
    <linearGradient
       id="d"
       y1="1050.34"
       y2="1038.36"
       gradientUnits="userSpaceOnUse"
       x2="0"
       gradientTransform="matrix(-2.5774727,0,0,2.5806818,51.999856,-2661.7402)">
      <stop
         stop-color="#c61423"
         id="stop7" />
      <stop
         offset="1"
         stop-color="#dc2b41"
         id="stop8" />
    </linearGradient>
  </defs>
  <g
     id="g877"
     transform="matrix(1.1,0,0,1.1,-3.1845928,-3.2065454)">
    <path
       d="m 18.347203,7.2464043 c -6.244452,0 -11.2714308,5.1741617 -11.2714308,11.6016437 v 26.767119 c 0,6.427394 5.0268918,11.601644 11.2714308,11.601644 h 26.005262 c 6.244452,0 11.271431,-5.174161 11.271431,-11.601644 V 18.848048 c 0,-6.427393 -5.026893,-11.6016437 -11.271431,-11.6016437 z"
       fill="url(#linearGradient910)"
       stroke-width="3.32418"
       id="path33"
       style="fill:#4d4d4d;fill-opacity:1"
       clip-path="url(#clipPath1976)"
       inkscape:path-effect="#path-effect1980"
       inkscape:original-d="m 18.347203,7.2464043 c -6.244452,0 -11.2714308,5.1741617 -11.2714308,11.6016437 v 26.767119 c 0,6.427394 5.0268918,11.601644 11.2714308,11.601644 h 26.005262 c 6.244452,0 11.271431,-5.174161 11.271431,-11.601644 V 18.848048 c 0,-6.427393 -5.026893,-11.6016437 -11.271431,-11.6016437 z"
       transform="matrix(1.089,0,0,1.089,-2.2940414,-2.7591018)" />
    <rect
       x="8.245779"
       y="8.0493994"
       width="47.200809"
       height="48.583622"
       rx="9.511797"
       ry="9.6776171"
       fill="url(#linearGradient862)"
       stroke-width="3.23184"
       id="rect35-7"
       style="opacity:1;fill:#f9f9f9;fill-opacity:1" />
    <rect
       x="10.60582"
       y="10.47858"
       width="42.480732"
       height="43.725258"
       rx="9.0337515"
       ry="8.819849"
       fill="url(#linearGradient862)"
       stroke-width="2.90867"
       id="rect35-7-3"
       style="fill:url(#linearGradient6)" />
    <g
       id="g13"
       transform="matrix(0.59645455,0,0,0.59645455,13.921578,17.032047)" />
    <path
       style="fill:#f5f7fa;stroke-width:0.204426;fill-opacity:1"
       d=""
       id="path3" />
    <g
       id="g2"
       transform="translate(0,1.8181818)"
       style="stroke:#000000;opacity:0.2">
      <rect
         style="opacity:1;fill:none;stroke:#000000;stroke-width:1.63636;stroke-dasharray:none"
         id="rect1-0"
         width="28.885412"
         height="26.493626"
         x="17.583101"
         y="19.71887"
         rx="4.9090695"
         ry="4.909091" />
      <path
         d="m 37.500288,29.151804 q 0,2.05539 -1.219682,3.365419 -1.219682,1.287442 -3.681632,1.852109 v 2.800751 h -1.355202 v -3.613872 q 1.942456,-0.474321 2.936271,-1.581069 0.993814,-1.174509 0.993814,-2.845924 0,-1.513309 -0.813121,-2.394191 -0.813121,-0.858294 -2.19091,-0.858294 -1.242268,0 -2.077976,0.722774 -0.767948,0.700188 -1.016402,2.077977 h -1.061575 v -2.868511 q 1.287442,-0.542081 2.213497,-0.767948 1.129335,-0.248454 1.98763,-0.248454 2.46195,0 3.862325,1.174508 1.422963,1.174509 1.422963,3.184725 z m -4.539927,10.209189 q 0.429147,0.429147 0.429147,1.038988 0,0.609841 -0.429147,1.038988 -0.429148,0.429148 -1.038988,0.429148 -0.632428,0 -1.061575,-0.429148 -0.406561,-0.451734 -0.406561,-1.038988 0,-0.609841 0.406561,-1.038988 0.429147,-0.429147 1.061575,-0.429147 0.60984,0 1.038988,0.429147 z"
         id="text1-2"
         style="font-size:22.5867px;font-family:'DejaVu Math TeX Gyre';-inkscape-font-specification:'DejaVu Math TeX Gyre';fill:#000000;stroke:#000000;stroke-width:1.21"
         aria-label="?" />
    </g>
    <g
       id="g1">
      <rect
         style="opacity:1;fill:none;stroke:#f9f9f9;stroke-width:1.63636;stroke-dasharray:none"
         id="rect1"
         width="28.885412"
         height="26.493626"
         x="17.583101"
         y="19.71887"
         rx="4.9090695"
         ry="4.909091" />
      <path
         d="m 37.500288,29.151804 q 0,2.05539 -1.219682,3.365419 -1.219682,1.287442 -3.681632,1.852109 v 2.800751 h -1.355202 v -3.613872 q 1.942456,-0.474321 2.936271,-1.581069 0.993814,-1.174509 0.993814,-2.845924 0,-1.513309 -0.813121,-2.394191 -0.813121,-0.858294 -2.19091,-0.858294 -1.242268,0 -2.077976,0.722774 -0.767948,0.700188 -1.016402,2.077977 h -1.061575 v -2.868511 q 1.287442,-0.542081 2.213497,-0.767948 1.129335,-0.248454 1.98763,-0.248454 2.46195,0 3.862325,1.174508 1.422963,1.174509 1.422963,3.184725 z m -4.539927,10.209189 q 0.429147,0.429147 0.429147,1.038988 0,0.609841 -0.429147,1.038988 -0.429148,0.429148 -1.038988,0.429148 -0.632428,0 -1.061575,-0.429148 -0.406561,-0.451734 -0.406561,-1.038988 0,-0.609841 0.406561,-1.038988 0.429147,-0.429147 1.061575,-0.429147 0.60984,0 1.038988,0.429147 z"
         id="text1"
         style="font-size:22.5867px;font-family:'DejaVu Math TeX Gyre';-inkscape-font-specification:'DejaVu Math TeX Gyre';fill:#f9f9f9;stroke:#f9f9f9;stroke-width:1.21"
         aria-label="?" />
    </g>
  </g>
</svg>
