<?xml version="1.0" encoding="UTF-8" standalone="no"?>
<svg
   width="64"
   height="64"
   version="1.1"
   id="svg73"
   sodipodi:docname="kalgebra.svg"
   inkscape:version="1.3.2 (091e20ef0f, 2023-11-25)"
   xmlns:inkscape="http://www.inkscape.org/namespaces/inkscape"
   xmlns:sodipodi="http://sodipodi.sourceforge.net/DTD/sodipodi-0.dtd"
   xmlns:xlink="http://www.w3.org/1999/xlink"
   xmlns="http://www.w3.org/2000/svg"
   xmlns:svg="http://www.w3.org/2000/svg"
   xmlns:rdf="http://www.w3.org/1999/02/22-rdf-syntax-ns#"
   xmlns:cc="http://creativecommons.org/ns#"
   xmlns:dc="http://purl.org/dc/elements/1.1/">
  <metadata
     id="metadata77">
    <rdf:RDF>
      <cc:Work
         rdf:about="">
        <dc:format>image/svg+xml</dc:format>
        <dc:type
           rdf:resource="http://purl.org/dc/dcmitype/StillImage" />
      </cc:Work>
    </rdf:RDF>
  </metadata>
  <sodipodi:namedview
     pagecolor="#f5f7fa"
     bordercolor="#666666"
     borderopacity="1"
     objecttolerance="10"
     gridtolerance="10"
     guidetolerance="10"
     inkscape:pageopacity="0"
     inkscape:pageshadow="2"
     inkscape:window-width="1377"
     inkscape:window-height="886"
     id="namedview75"
     showgrid="false"
     inkscape:zoom="6.2890624"
     inkscape:cx="30.370187"
     inkscape:cy="42.057143"
     inkscape:window-x="55"
     inkscape:window-y="98"
     inkscape:window-maximized="0"
     inkscape:current-layer="g877"
     inkscape:document-rotation="0"
     inkscape:pagecheckerboard="0"
     inkscape:showpageshadow="2"
     inkscape:deskcolor="#d1d1d1" />
  <defs
     id="defs29">
    <linearGradient
       id="linearGradient5"
       inkscape:collect="always">
      <stop
         style="stop-color:#984859;stop-opacity:1;"
         offset="0"
         id="stop5" />
      <stop
         style="stop-color:#bf7384;stop-opacity:1;"
         offset="1"
         id="stop6" />
    </linearGradient>
    <inkscape:path-effect
       effect="powerclip"
       id="path-effect1980"
       is_visible="true"
       lpeversion="1"
       inverse="true"
       flatten="false"
       hide_clip="false"
       message="Use fill-rule evenodd on &lt;b&gt;fill and stroke&lt;/b&gt; dialog if no flatten result after convert clip to paths." />
    <clipPath
       clipPathUnits="userSpaceOnUse"
       id="clipPath1976">
      <rect
         x="9.6784649"
         y="9.925169"
         width="43.343258"
         height="44.613056"
         rx="8.6689987"
         ry="8.9229689"
         fill="url(#linearGradient862)"
         stroke-width="2.96772"
         id="rect1978"
         style="display:none;fill:#333333;fill-opacity:1"
         d="m 18.347464,9.925169 h 26.00526 c 4.802625,0 8.668999,3.979644 8.668999,8.922969 v 26.767118 c 0,4.943325 -3.866374,8.922969 -8.668999,8.922969 h -26.00526 c -4.802626,0 -8.6689991,-3.979644 -8.6689991,-8.922969 V 18.848138 c 0,-4.943325 3.8663731,-8.922969 8.6689991,-8.922969 z" />
      <path
         id="lpe_path-effect1980"
         style="fill:#333333;fill-opacity:1"
         class="powerclip"
         d="M 2.0757722,2.2464043 H 60.623896 V 62.216811 H 2.0757722 Z M 18.347464,9.925169 c -4.802626,0 -8.6689991,3.979644 -8.6689991,8.922969 v 26.767118 c 0,4.943325 3.8663731,8.922969 8.6689991,8.922969 h 26.00526 c 4.802625,0 8.668999,-3.979644 8.668999,-8.922969 V 18.848138 c 0,-4.943325 -3.866374,-8.922969 -8.668999,-8.922969 z" />
    </clipPath>
    <linearGradient
       inkscape:collect="always"
       xlink:href="#linearGradient5"
       id="linearGradient6"
       x1="33.785751"
       y1="12.971354"
       x2="33.375801"
       y2="52.289253"
       gradientUnits="userSpaceOnUse"
       gradientTransform="matrix(1.1,0,0,1.1,-3.1845928,-3.2341119)" />
    <linearGradient
       id="d"
       y1="1050.34"
       y2="1038.36"
       gradientUnits="userSpaceOnUse"
       x2="0"
       gradientTransform="matrix(-2.5774727,0,0,2.5806818,51.999856,-2661.7402)">
      <stop
         stop-color="#c61423"
         id="stop7" />
      <stop
         offset="1"
         stop-color="#dc2b41"
         id="stop8" />
    </linearGradient>
  </defs>
  <g
     id="g877"
     transform="matrix(1.1,0,0,1.1,-3.1845928,-3.2065454)">
    <path
       d="m 18.347203,7.2464043 c -6.244452,0 -11.2714308,5.1741617 -11.2714308,11.6016437 v 26.767119 c 0,6.427394 5.0268918,11.601644 11.2714308,11.601644 h 26.005262 c 6.244452,0 11.271431,-5.174161 11.271431,-11.601644 V 18.848048 c 0,-6.427393 -5.026893,-11.6016437 -11.271431,-11.6016437 z"
       fill="url(#linearGradient910)"
       stroke-width="3.32418"
       id="path33"
       style="fill:#4d4d4d;fill-opacity:1"
       clip-path="url(#clipPath1976)"
       inkscape:path-effect="#path-effect1980"
       inkscape:original-d="m 18.347203,7.2464043 c -6.244452,0 -11.2714308,5.1741617 -11.2714308,11.6016437 v 26.767119 c 0,6.427394 5.0268918,11.601644 11.2714308,11.601644 h 26.005262 c 6.244452,0 11.271431,-5.174161 11.271431,-11.601644 V 18.848048 c 0,-6.427393 -5.026893,-11.6016437 -11.271431,-11.6016437 z"
       transform="matrix(1.089,0,0,1.089,-2.2940414,-2.7591018)" />
    <rect
       x="8.245779"
       y="8.0493994"
       width="47.200809"
       height="48.583622"
       rx="9.511797"
       ry="9.6776171"
       fill="url(#linearGradient862)"
       stroke-width="3.23184"
       id="rect35-7"
       style="opacity:1;fill:#f9f9f9;fill-opacity:1" />
    <rect
       x="10.60582"
       y="10.47858"
       width="42.480732"
       height="43.725258"
       rx="9.0337515"
       ry="8.819849"
       fill="url(#linearGradient862)"
       stroke-width="2.90867"
       id="rect35-7-3"
       style="fill:url(#linearGradient6)" />
    <path
       id="path29-4"
       style="fill:#000000;stroke:none;stroke-width:0.0460408;opacity:0.2"
       d="m 33.012951,36.935972 c -0.340051,-2.3e-4 -0.660561,0.08477 -1.030717,0.260475 -0.603989,0.286706 -1.113228,0.905594 -1.292791,1.572443 -0.0791,0.293751 -0.06883,0.92483 0.02077,1.235264 0.27021,0.936094 1.04418,1.617266 1.999113,1.761008 0.992225,0.149356 2.039483,-0.394613 2.494496,-1.295987 0.698824,-1.384364 -0.05299,-3.060862 -1.543679,-3.442117 -0.232617,-0.05949 -0.443164,-0.09095 -0.647194,-0.09109 z m -10.201705,8.97603 -0.147016,0.166193 c -0.413795,0.46782 -0.70387,0.991373 -0.893289,1.61559 -0.106985,0.352546 -0.122272,0.486678 -0.124645,1.048295 -0.0021,0.481208 0.01904,0.727791 0.0815,0.968395 0.121793,0.469126 0.480927,1.192045 0.783026,1.575639 l 0.263672,0.333985 h 9.455433 9.455433 l 0.263671,-0.333985 c 0.302101,-0.383594 0.661237,-1.106513 0.783026,-1.575639 0.06247,-0.240604 0.08355,-0.487187 0.0815,-0.968395 -0.0023,-0.561617 -0.01767,-0.695749 -0.124645,-1.048295 -0.189419,-0.624217 -0.479493,-1.14777 -0.893288,-1.61559 l -0.147019,-0.166193 h -9.41868 z m 5.305398,1.610795 h 0.437855 c 0.394874,0 0.433967,0.007 0.410689,0.0799 -0.01416,0.04432 -0.199448,0.599009 -0.410689,1.232068 l -0.383523,1.150568 -0.442649,0.01438 -0.441051,0.01279 0.413885,-1.244852 z m -1.211292,0.0096 c 0.232118,-0.0073 0.421874,0.003 0.421874,0.02237 1e-6,0.01942 -0.181486,0.579622 -0.402698,1.244851 l -0.402699,1.209695 h -0.429865 c -0.388281,0 -0.425952,-0.0086 -0.402699,-0.08149 0.01416,-0.04432 0.197854,-0.597411 0.40909,-1.23047 l 0.383523,-1.152165 z m 3.267933,0 c 0.320292,-0.01004 0.421875,0.0014 0.421875,0.04634 0,0.0326 -0.177362,0.592792 -0.394709,1.244851 l -0.394709,1.185725 h -0.437855 c -0.394972,0 -0.433966,-0.0086 -0.410689,-0.0815 0.01416,-0.04432 0.199452,-0.59741 0.410689,-1.230468 l 0.383523,-1.152167 z" />
    <path
       id="path29"
       style="fill:#f9f9f9;stroke:none;stroke-width:0.0460408"
       d="m 33.012951,35.11779 c -0.340051,-2.3e-4 -0.660561,0.08477 -1.030717,0.260475 -0.603989,0.286706 -1.113228,0.905594 -1.292791,1.572443 -0.0791,0.293751 -0.06883,0.92483 0.02077,1.235264 0.27021,0.936094 1.04418,1.617266 1.999113,1.761008 0.992225,0.149356 2.039483,-0.394613 2.494496,-1.295987 0.698824,-1.384364 -0.05299,-3.060862 -1.543679,-3.442117 -0.232617,-0.05949 -0.443164,-0.09095 -0.647194,-0.09109 z m -10.201705,8.97603 -0.147016,0.166193 c -0.413795,0.46782 -0.70387,0.991373 -0.893289,1.61559 -0.106985,0.352546 -0.122272,0.486678 -0.124645,1.048295 -0.0021,0.481208 0.01904,0.727791 0.0815,0.968395 0.121793,0.469126 0.480927,1.192045 0.783026,1.575639 l 0.263672,0.333985 h 9.455433 9.455433 l 0.263671,-0.333985 c 0.302101,-0.383594 0.661237,-1.106513 0.783026,-1.575639 0.06247,-0.240604 0.08355,-0.487187 0.0815,-0.968395 -0.0023,-0.561617 -0.01767,-0.695749 -0.124645,-1.048295 -0.189419,-0.624217 -0.479493,-1.14777 -0.893288,-1.61559 L 41.648605,44.09382 h -9.41868 z m 5.305398,1.610795 h 0.437855 c 0.394874,0 0.433967,0.007 0.410689,0.0799 -0.01416,0.04432 -0.199448,0.599009 -0.410689,1.232068 l -0.383523,1.150568 -0.442649,0.01438 -0.441051,0.01279 0.413885,-1.244852 z m -1.211292,0.0096 c 0.232118,-0.0073 0.421874,0.003 0.421874,0.02237 1e-6,0.01942 -0.181486,0.579622 -0.402698,1.244851 l -0.402699,1.209695 h -0.429865 c -0.388281,0 -0.425952,-0.0086 -0.402699,-0.08149 0.01416,-0.04432 0.197854,-0.597411 0.40909,-1.23047 l 0.383523,-1.152165 z m 3.267933,0 c 0.320292,-0.01004 0.421875,0.0014 0.421875,0.04634 0,0.0326 -0.177362,0.592792 -0.394709,1.244851 l -0.394709,1.185725 h -0.437855 c -0.394972,0 -0.433966,-0.0086 -0.410689,-0.0815 0.01416,-0.04432 0.199452,-0.59741 0.410689,-1.230468 l 0.383523,-1.152167 z" />
    <g
       id="g2"
       transform="translate(0,1.8181818)"
       style="fill:#000000;opacity:0.2">
      <path
         style="fill:#000000;fill-opacity:1;stroke:none;stroke-width:0.736364"
         d="m 26.41081,17.706346 v 4.418181 h 9.572728 v -4.418181 z"
         id="path21-9" />
      <path
         style="fill:#000000;fill-opacity:1;stroke:none;stroke-width:0.736364"
         d="m 15.019901,17.706346 v 4.418181 h 9.572727 v -4.418181 z"
         id="path22-3" />
      <path
         d="m 37.80172,17.706346 v 4.418181 h 9.572727 v -4.418181 z"
         style="fill:#000000;fill-opacity:1;stroke:none;stroke-width:0.736364"
         id="path26-1" />
      <path
         d="m 26.41081,23.942709 v 4.418182 h 9.572728 v -4.418182 z"
         style="fill:#000000;fill-opacity:1;stroke:none;stroke-width:0.736364"
         id="path27-9" />
      <path
         style="fill:#000000;fill-opacity:1;stroke:none;stroke-width:0.736364"
         d="m 37.80172,23.942709 v 4.418182 h 9.572727 v -4.418182 z"
         id="path28-4" />
    </g>
    <g
       id="g1">
      <path
         style="fill:#f9f9f9;fill-opacity:1;stroke:none;stroke-width:0.736364"
         d="m 26.41081,17.706346 v 4.418181 h 9.572728 v -4.418181 z"
         id="path21" />
      <path
         style="fill:#f9f9f9;fill-opacity:1;stroke:none;stroke-width:0.736364"
         d="m 15.019901,17.706346 v 4.418181 h 9.572727 v -4.418181 z"
         id="path22" />
      <path
         d="m 37.80172,17.706346 v 4.418181 h 9.572727 v -4.418181 z"
         style="fill:#f9f9f9;fill-opacity:1;stroke:none;stroke-width:0.736364"
         id="path26" />
      <path
         d="m 26.41081,23.942709 v 4.418182 h 9.572728 v -4.418182 z"
         style="fill:#f9f9f9;fill-opacity:1;stroke:none;stroke-width:0.736364"
         id="path27" />
      <path
         style="fill:#f9f9f9;fill-opacity:1;stroke:none;stroke-width:0.736364"
         d="m 37.80172,23.942709 v 4.418182 h 9.572727 v -4.418182 z"
         id="path28" />
    </g>
    <g
       id="g13"
       transform="matrix(0.59645455,0,0,0.59645455,13.921578,17.032047)" />
    <path
       style="fill:#f5f7fa;stroke-width:0.204426;fill-opacity:1"
       d=""
       id="path3" />
  </g>
</svg>
