<?xml version="1.0" encoding="UTF-8" standalone="no"?>
<svg
   width="64"
   height="64"
   version="1.1"
   id="svg73"
   sodipodi:docname="scribus.svg"
   inkscape:version="1.3.2 (091e20ef0f, 2023-11-25)"
   xmlns:inkscape="http://www.inkscape.org/namespaces/inkscape"
   xmlns:sodipodi="http://sodipodi.sourceforge.net/DTD/sodipodi-0.dtd"
   xmlns:xlink="http://www.w3.org/1999/xlink"
   xmlns="http://www.w3.org/2000/svg"
   xmlns:svg="http://www.w3.org/2000/svg"
   xmlns:rdf="http://www.w3.org/1999/02/22-rdf-syntax-ns#"
   xmlns:cc="http://creativecommons.org/ns#"
   xmlns:dc="http://purl.org/dc/elements/1.1/">
  <metadata
     id="metadata77">
    <rdf:RDF>
      <cc:Work
         rdf:about="">
        <dc:format>image/svg+xml</dc:format>
        <dc:type
           rdf:resource="http://purl.org/dc/dcmitype/StillImage" />
      </cc:Work>
    </rdf:RDF>
  </metadata>
  <sodipodi:namedview
     pagecolor="#f5f7fa"
     bordercolor="#666666"
     borderopacity="1"
     objecttolerance="10"
     gridtolerance="10"
     guidetolerance="10"
     inkscape:pageopacity="0"
     inkscape:pageshadow="2"
     inkscape:window-width="1377"
     inkscape:window-height="886"
     id="namedview75"
     showgrid="false"
     inkscape:zoom="6.2890624"
     inkscape:cx="19.398758"
     inkscape:cy="42.057143"
     inkscape:window-x="300"
     inkscape:window-y="96"
     inkscape:window-maximized="0"
     inkscape:current-layer="g877"
     inkscape:document-rotation="0"
     inkscape:pagecheckerboard="0"
     inkscape:showpageshadow="2"
     inkscape:deskcolor="#d1d1d1" />
  <defs
     id="defs29">
    <linearGradient
       id="linearGradient5"
       inkscape:collect="always">
      <stop
         style="stop-color:#984859;stop-opacity:1;"
         offset="0"
         id="stop5" />
      <stop
         style="stop-color:#bf7384;stop-opacity:1;"
         offset="1"
         id="stop6" />
    </linearGradient>
    <inkscape:path-effect
       effect="powerclip"
       id="path-effect1980"
       is_visible="true"
       lpeversion="1"
       inverse="true"
       flatten="false"
       hide_clip="false"
       message="Use fill-rule evenodd on &lt;b&gt;fill and stroke&lt;/b&gt; dialog if no flatten result after convert clip to paths." />
    <clipPath
       clipPathUnits="userSpaceOnUse"
       id="clipPath1976">
      <rect
         x="9.6784649"
         y="9.925169"
         width="43.343258"
         height="44.613056"
         rx="8.6689987"
         ry="8.9229689"
         fill="url(#linearGradient862)"
         stroke-width="2.96772"
         id="rect1978"
         style="display:none;fill:#333333;fill-opacity:1"
         d="m 18.347464,9.925169 h 26.00526 c 4.802625,0 8.668999,3.979644 8.668999,8.922969 v 26.767118 c 0,4.943325 -3.866374,8.922969 -8.668999,8.922969 h -26.00526 c -4.802626,0 -8.6689991,-3.979644 -8.6689991,-8.922969 V 18.848138 c 0,-4.943325 3.8663731,-8.922969 8.6689991,-8.922969 z" />
      <path
         id="lpe_path-effect1980"
         style="fill:#333333;fill-opacity:1"
         class="powerclip"
         d="M 2.0757722,2.2464043 H 60.623896 V 62.216811 H 2.0757722 Z M 18.347464,9.925169 c -4.802626,0 -8.6689991,3.979644 -8.6689991,8.922969 v 26.767118 c 0,4.943325 3.8663731,8.922969 8.6689991,8.922969 h 26.00526 c 4.802625,0 8.668999,-3.979644 8.668999,-8.922969 V 18.848138 c 0,-4.943325 -3.866374,-8.922969 -8.668999,-8.922969 z" />
    </clipPath>
    <linearGradient
       inkscape:collect="always"
       xlink:href="#linearGradient5"
       id="linearGradient6"
       x1="33.785751"
       y1="12.971354"
       x2="33.375801"
       y2="52.289253"
       gradientUnits="userSpaceOnUse"
       gradientTransform="matrix(1.1,0,0,1.1,-3.1845928,-3.2341119)" />
    <linearGradient
       id="d"
       y1="1050.34"
       y2="1038.36"
       gradientUnits="userSpaceOnUse"
       x2="0"
       gradientTransform="matrix(-2.5774727,0,0,2.5806818,51.999856,-2661.7402)">
      <stop
         stop-color="#c61423"
         id="stop7" />
      <stop
         offset="1"
         stop-color="#dc2b41"
         id="stop8" />
    </linearGradient>
    <linearGradient
       id="a"
       y1="35"
       x1="23"
       y2="13"
       x2="5"
       gradientUnits="userSpaceOnUse"
       gradientTransform="matrix(0.90909091,0,0,0.90909091,8.5935567,11.299011)">
      <stop
         stop-color="#c61423"
         id="stop1" />
      <stop
         offset="1"
         stop-color="#dc2b41"
         id="stop2" />
    </linearGradient>
    <linearGradient
       id="b"
       y1="35"
       x1="42"
       y2="12"
       x2="22"
       gradientUnits="userSpaceOnUse"
       gradientTransform="matrix(0.90909091,0,0,0.90909091,12.22992,11.299011)">
      <stop
         stop-color="#197cf1"
         id="stop3" />
      <stop
         offset="1"
         stop-color="#20bcfa"
         id="stop4" />
    </linearGradient>
  </defs>
  <g
     id="g877"
     transform="matrix(1.1,0,0,1.1,-3.1845928,-3.2065454)">
    <path
       d="m 18.347203,7.2464043 c -6.244452,0 -11.2714308,5.1741617 -11.2714308,11.6016437 v 26.767119 c 0,6.427394 5.0268918,11.601644 11.2714308,11.601644 h 26.005262 c 6.244452,0 11.271431,-5.174161 11.271431,-11.601644 V 18.848048 c 0,-6.427393 -5.026893,-11.6016437 -11.271431,-11.6016437 z"
       fill="url(#linearGradient910)"
       stroke-width="3.32418"
       id="path33"
       style="fill:#4d4d4d;fill-opacity:1"
       clip-path="url(#clipPath1976)"
       inkscape:path-effect="#path-effect1980"
       inkscape:original-d="m 18.347203,7.2464043 c -6.244452,0 -11.2714308,5.1741617 -11.2714308,11.6016437 v 26.767119 c 0,6.427394 5.0268918,11.601644 11.2714308,11.601644 h 26.005262 c 6.244452,0 11.271431,-5.174161 11.271431,-11.601644 V 18.848048 c 0,-6.427393 -5.026893,-11.6016437 -11.271431,-11.6016437 z"
       transform="matrix(1.089,0,0,1.089,-2.2940414,-2.7591018)" />
    <rect
       x="8.245779"
       y="8.0493994"
       width="47.200809"
       height="48.583622"
       rx="9.511797"
       ry="9.6776171"
       fill="url(#linearGradient862)"
       stroke-width="3.23184"
       id="rect35-7"
       style="opacity:1;fill:#f9f9f9;fill-opacity:1" />
    <rect
       x="10.60582"
       y="10.47858"
       width="42.480732"
       height="43.725258"
       rx="9.0337515"
       ry="8.819849"
       fill="url(#linearGradient862)"
       stroke-width="2.90867"
       id="rect35-7-3"
       style="fill:url(#linearGradient6)" />
    <g
       id="g2"
       transform="translate(0,1.8181818)"
       style="fill:#000000;opacity:0.2">
      <path
         style="opacity:1;fill:#000000;stroke-width:0.53681"
         d="m 17.970244,17.161243 c -0.859134,0 -1.551714,0.69258 -1.551714,1.551714 v 10.853609 c 0,0.859133 0.69258,1.551713 1.551714,1.551713 h 10.853609 c 0.859133,0 1.551713,-0.69258 1.551713,-1.551713 V 18.712957 c 0,-0.859134 -0.69258,-1.551714 -1.551713,-1.551714 z m 2.50371,3.220854 h 5.846187 c 0.462611,0 0.834571,0.371961 0.834571,0.83457 v 5.846186 c 0,0.462612 -0.37196,0.834572 -0.834571,0.834572 h -5.846187 c -0.462609,0 -0.83457,-0.37196 -0.83457,-0.834572 v -5.846186 c 0,-0.462609 0.371961,-0.83457 0.83457,-0.83457 z"
         id="path2-5" />
      <path
         style="opacity:1;fill:#000000;stroke-width:0.53681"
         d="m 35.148136,17.161243 c -0.859134,0 -1.551715,0.69258 -1.551715,1.551714 v 10.853609 c 0,0.859133 0.692581,1.551713 1.551715,1.551713 h 10.853607 c 0.859134,0 1.551714,-0.69258 1.551714,-1.551713 V 18.712957 c 0,-0.859134 -0.69258,-1.551714 -1.551714,-1.551714 z m 2.50371,3.220854 h 5.846187 c 0.462609,0 0.83457,0.371961 0.83457,0.83457 v 5.846186 c 0,0.462612 -0.371961,0.834572 -0.83457,0.834572 h -5.846187 c -0.462611,0 -0.834571,-0.37196 -0.834571,-0.834572 v -5.846186 c 0,-0.462609 0.37196,-0.83457 0.834571,-0.83457 z"
         id="path3-7-2" />
      <path
         style="opacity:1;fill:#000000;stroke-width:0.53681"
         d="m 17.970244,34.339134 c -0.859134,0 -1.551714,0.69258 -1.551714,1.551713 v 10.853609 c 0,0.859134 0.69258,1.551714 1.551714,1.551714 h 10.853609 c 0.859133,0 1.551713,-0.69258 1.551713,-1.551714 V 35.890847 c 0,-0.859133 -0.69258,-1.551713 -1.551713,-1.551713 z m 2.50371,3.220854 h 5.846187 c 0.462611,0 0.834571,0.37196 0.834571,0.834571 v 5.846187 c 0,0.462609 -0.37196,0.83457 -0.834571,0.83457 h -5.846187 c -0.462609,0 -0.83457,-0.371961 -0.83457,-0.83457 v -5.846187 c 0,-0.462611 0.371961,-0.834571 0.83457,-0.834571 z"
         id="path4-5" />
      <path
         style="opacity:1;fill:#000000;stroke-width:0.53681"
         d="m 35.148136,34.339134 c -0.859134,0 -1.551715,0.69258 -1.551715,1.551713 v 10.853609 c 0,0.859134 0.692581,1.551714 1.551715,1.551714 h 10.853607 c 0.859134,0 1.551714,-0.69258 1.551714,-1.551714 V 35.890847 c 0,-0.859133 -0.69258,-1.551713 -1.551714,-1.551713 z m 2.50371,3.220854 h 5.846187 c 0.462609,0 0.83457,0.37196 0.83457,0.834571 v 5.846187 c 0,0.462609 -0.371961,0.83457 -0.83457,0.83457 h -5.846187 c -0.462611,0 -0.834571,-0.371961 -0.834571,-0.83457 v -5.846187 c 0,-0.462611 0.37196,-0.834571 0.834571,-0.834571 z"
         id="path5-4" />
      <path
         style="color:#000000;fill:#000000;stroke-width:0.53681;stroke-linecap:round;-inkscape-stroke:none"
         d="m 40.54768,21.482975 a 2.6840455,2.6840455 0 0 0 -1.897705,0.785293 l -17.12442,17.12442 a 2.6840455,2.6840455 0 0 0 0,3.796457 2.6840455,2.6840455 0 0 0 3.796456,0 L 42.446432,26.064724 a 2.6840455,2.6840455 0 0 0 0,-3.796456 2.6840455,2.6840455 0 0 0 -1.898752,-0.785293 z"
         id="path7-7" />
      <path
         style="color:#000000;fill:#000000;stroke-width:0.53681;stroke-linecap:round;-inkscape-stroke:none"
         d="m 23.424307,21.482975 a 2.6840455,2.6840455 0 0 0 -1.898752,0.785293 2.6840455,2.6840455 0 0 0 0,3.796456 l 17.12442,17.124421 a 2.6840455,2.6840455 0 0 0 3.796457,0 2.6840455,2.6840455 0 0 0 0,-3.796457 L 25.322011,22.268268 a 2.6840455,2.6840455 0 0 0 -1.897704,-0.785293 z"
         id="path9-4" />
    </g>
    <g
       id="g1">
      <path
         style="opacity:1;fill:#f9f9f9;stroke-width:0.53681"
         d="m 17.970244,17.161243 c -0.859134,0 -1.551714,0.69258 -1.551714,1.551714 v 10.853609 c 0,0.859133 0.69258,1.551713 1.551714,1.551713 h 10.853609 c 0.859133,0 1.551713,-0.69258 1.551713,-1.551713 V 18.712957 c 0,-0.859134 -0.69258,-1.551714 -1.551713,-1.551714 z m 2.50371,3.220854 h 5.846187 c 0.462611,0 0.834571,0.371961 0.834571,0.83457 v 5.846186 c 0,0.462612 -0.37196,0.834572 -0.834571,0.834572 h -5.846187 c -0.462609,0 -0.83457,-0.37196 -0.83457,-0.834572 v -5.846186 c 0,-0.462609 0.371961,-0.83457 0.83457,-0.83457 z"
         id="path2" />
      <path
         style="opacity:1;fill:#f9f9f9;stroke-width:0.53681"
         d="m 35.148136,17.161243 c -0.859134,0 -1.551715,0.69258 -1.551715,1.551714 v 10.853609 c 0,0.859133 0.692581,1.551713 1.551715,1.551713 h 10.853607 c 0.859134,0 1.551714,-0.69258 1.551714,-1.551713 V 18.712957 c 0,-0.859134 -0.69258,-1.551714 -1.551714,-1.551714 z m 2.50371,3.220854 h 5.846187 c 0.462609,0 0.83457,0.371961 0.83457,0.83457 v 5.846186 c 0,0.462612 -0.371961,0.834572 -0.83457,0.834572 h -5.846187 c -0.462611,0 -0.834571,-0.37196 -0.834571,-0.834572 v -5.846186 c 0,-0.462609 0.37196,-0.83457 0.834571,-0.83457 z"
         id="path3-7" />
      <path
         style="opacity:1;fill:#f9f9f9;stroke-width:0.53681"
         d="m 17.970244,34.339134 c -0.859134,0 -1.551714,0.69258 -1.551714,1.551713 v 10.853609 c 0,0.859134 0.69258,1.551714 1.551714,1.551714 h 10.853609 c 0.859133,0 1.551713,-0.69258 1.551713,-1.551714 V 35.890847 c 0,-0.859133 -0.69258,-1.551713 -1.551713,-1.551713 z m 2.50371,3.220854 h 5.846187 c 0.462611,0 0.834571,0.37196 0.834571,0.834571 v 5.846187 c 0,0.462609 -0.37196,0.83457 -0.834571,0.83457 h -5.846187 c -0.462609,0 -0.83457,-0.371961 -0.83457,-0.83457 v -5.846187 c 0,-0.462611 0.371961,-0.834571 0.83457,-0.834571 z"
         id="path4" />
      <path
         style="opacity:1;fill:#f9f9f9;stroke-width:0.53681"
         d="m 35.148136,34.339134 c -0.859134,0 -1.551715,0.69258 -1.551715,1.551713 v 10.853609 c 0,0.859134 0.692581,1.551714 1.551715,1.551714 h 10.853607 c 0.859134,0 1.551714,-0.69258 1.551714,-1.551714 V 35.890847 c 0,-0.859133 -0.69258,-1.551713 -1.551714,-1.551713 z m 2.50371,3.220854 h 5.846187 c 0.462609,0 0.83457,0.37196 0.83457,0.834571 v 5.846187 c 0,0.462609 -0.371961,0.83457 -0.83457,0.83457 h -5.846187 c -0.462611,0 -0.834571,-0.371961 -0.834571,-0.83457 v -5.846187 c 0,-0.462611 0.37196,-0.834571 0.834571,-0.834571 z"
         id="path5" />
      <path
         style="color:#000000;fill:#f9f9f9;stroke-width:0.53681;stroke-linecap:round;-inkscape-stroke:none"
         d="m 40.54768,21.482975 a 2.6840455,2.6840455 0 0 0 -1.897705,0.785293 l -17.12442,17.12442 a 2.6840455,2.6840455 0 0 0 0,3.796457 2.6840455,2.6840455 0 0 0 3.796456,0 L 42.446432,26.064724 a 2.6840455,2.6840455 0 0 0 0,-3.796456 2.6840455,2.6840455 0 0 0 -1.898752,-0.785293 z"
         id="path7" />
      <path
         style="color:#000000;fill:#f9f9f9;stroke-width:0.53681;stroke-linecap:round;-inkscape-stroke:none"
         d="m 23.424307,21.482975 a 2.6840455,2.6840455 0 0 0 -1.898752,0.785293 2.6840455,2.6840455 0 0 0 0,3.796456 l 17.12442,17.124421 a 2.6840455,2.6840455 0 0 0 3.796457,0 2.6840455,2.6840455 0 0 0 0,-3.796457 L 25.322011,22.268268 a 2.6840455,2.6840455 0 0 0 -1.897704,-0.785293 z"
         id="path9" />
    </g>
    <g
       id="g10"
       transform="matrix(0.66272728,0,0,0.66272728,10.46825,10.016848)"
       style="fill:#f9f9f9" />
    <path
       style="fill:#f5f7fa;stroke-width:0.204426;fill-opacity:1"
       d=""
       id="path3" />
  </g>
</svg>
