<?xml version="1.0" encoding="UTF-8" standalone="no"?>
<svg
   width="64"
   height="64"
   version="1.1"
   id="svg73"
   sodipodi:docname="scribus.svg"
   inkscape:version="1.3.2 (091e20ef0f, 2023-11-25)"
   xmlns:inkscape="http://www.inkscape.org/namespaces/inkscape"
   xmlns:sodipodi="http://sodipodi.sourceforge.net/DTD/sodipodi-0.dtd"
   xmlns:xlink="http://www.w3.org/1999/xlink"
   xmlns="http://www.w3.org/2000/svg"
   xmlns:svg="http://www.w3.org/2000/svg"
   xmlns:rdf="http://www.w3.org/1999/02/22-rdf-syntax-ns#"
   xmlns:cc="http://creativecommons.org/ns#"
   xmlns:dc="http://purl.org/dc/elements/1.1/">
  <metadata
     id="metadata77">
    <rdf:RDF>
      <cc:Work
         rdf:about="">
        <dc:format>image/svg+xml</dc:format>
        <dc:type
           rdf:resource="http://purl.org/dc/dcmitype/StillImage" />
      </cc:Work>
    </rdf:RDF>
  </metadata>
  <sodipodi:namedview
     pagecolor="#f5f7fa"
     bordercolor="#666666"
     borderopacity="1"
     objecttolerance="10"
     gridtolerance="10"
     guidetolerance="10"
     inkscape:pageopacity="0"
     inkscape:pageshadow="2"
     inkscape:window-width="1377"
     inkscape:window-height="886"
     id="namedview75"
     showgrid="false"
     inkscape:zoom="4.4470387"
     inkscape:cx="30.35728"
     inkscape:cy="48.459214"
     inkscape:window-x="55"
     inkscape:window-y="98"
     inkscape:window-maximized="0"
     inkscape:current-layer="g877"
     inkscape:document-rotation="0"
     inkscape:pagecheckerboard="0"
     inkscape:showpageshadow="2"
     inkscape:deskcolor="#d1d1d1" />
  <defs
     id="defs29">
    <linearGradient
       id="linearGradient5"
       inkscape:collect="always">
      <stop
         style="stop-color:#984859;stop-opacity:1;"
         offset="0"
         id="stop5" />
      <stop
         style="stop-color:#bf7384;stop-opacity:1;"
         offset="1"
         id="stop6" />
    </linearGradient>
    <inkscape:path-effect
       effect="powerclip"
       id="path-effect1980"
       is_visible="true"
       lpeversion="1"
       inverse="true"
       flatten="false"
       hide_clip="false"
       message="Use fill-rule evenodd on &lt;b&gt;fill and stroke&lt;/b&gt; dialog if no flatten result after convert clip to paths." />
    <clipPath
       clipPathUnits="userSpaceOnUse"
       id="clipPath1976">
      <rect
         x="9.6784649"
         y="9.925169"
         width="43.343258"
         height="44.613056"
         rx="8.6689987"
         ry="8.9229689"
         fill="url(#linearGradient862)"
         stroke-width="2.96772"
         id="rect1978"
         style="display:none;fill:#333333;fill-opacity:1"
         d="m 18.347464,9.925169 h 26.00526 c 4.802625,0 8.668999,3.979644 8.668999,8.922969 v 26.767118 c 0,4.943325 -3.866374,8.922969 -8.668999,8.922969 h -26.00526 c -4.802626,0 -8.6689991,-3.979644 -8.6689991,-8.922969 V 18.848138 c 0,-4.943325 3.8663731,-8.922969 8.6689991,-8.922969 z" />
      <path
         id="lpe_path-effect1980"
         style="fill:#333333;fill-opacity:1"
         class="powerclip"
         d="M 2.0757722,2.2464043 H 60.623896 V 62.216811 H 2.0757722 Z M 18.347464,9.925169 c -4.802626,0 -8.6689991,3.979644 -8.6689991,8.922969 v 26.767118 c 0,4.943325 3.8663731,8.922969 8.6689991,8.922969 h 26.00526 c 4.802625,0 8.668999,-3.979644 8.668999,-8.922969 V 18.848138 c 0,-4.943325 -3.866374,-8.922969 -8.668999,-8.922969 z" />
    </clipPath>
    <linearGradient
       inkscape:collect="always"
       xlink:href="#linearGradient5"
       id="linearGradient6"
       x1="33.785751"
       y1="12.971354"
       x2="33.375801"
       y2="52.289253"
       gradientUnits="userSpaceOnUse"
       gradientTransform="matrix(1.1,0,0,1.1,-3.1845928,-3.2341119)" />
    <linearGradient
       id="d"
       y1="1050.34"
       y2="1038.36"
       gradientUnits="userSpaceOnUse"
       x2="0"
       gradientTransform="matrix(-2.5774727,0,0,2.5806818,51.999856,-2661.7402)">
      <stop
         stop-color="#c61423"
         id="stop7" />
      <stop
         offset="1"
         stop-color="#dc2b41"
         id="stop8" />
    </linearGradient>
    <linearGradient
       id="c"
       y1="537.79999"
       y2="508.79999"
       gradientUnits="userSpaceOnUse"
       x2="0"
       gradientTransform="matrix(0.90909091,0,0,0.90909091,-339.35467,-442.65828)">
      <stop
         stop-color="#026ddc"
         id="stop5-6" />
      <stop
         offset="1"
         stop-color="#28b0fd"
         id="stop6-7" />
    </linearGradient>
  </defs>
  <g
     id="g877"
     transform="matrix(1.1,0,0,1.1,-3.1845928,-3.2065454)">
    <path
       d="m 18.347203,7.2464043 c -6.244452,0 -11.2714308,5.1741617 -11.2714308,11.6016437 v 26.767119 c 0,6.427394 5.0268918,11.601644 11.2714308,11.601644 h 26.005262 c 6.244452,0 11.271431,-5.174161 11.271431,-11.601644 V 18.848048 c 0,-6.427393 -5.026893,-11.6016437 -11.271431,-11.6016437 z"
       fill="url(#linearGradient910)"
       stroke-width="3.32418"
       id="path33"
       style="fill:#4d4d4d;fill-opacity:1"
       clip-path="url(#clipPath1976)"
       inkscape:path-effect="#path-effect1980"
       inkscape:original-d="m 18.347203,7.2464043 c -6.244452,0 -11.2714308,5.1741617 -11.2714308,11.6016437 v 26.767119 c 0,6.427394 5.0268918,11.601644 11.2714308,11.601644 h 26.005262 c 6.244452,0 11.271431,-5.174161 11.271431,-11.601644 V 18.848048 c 0,-6.427393 -5.026893,-11.6016437 -11.271431,-11.6016437 z"
       transform="matrix(1.089,0,0,1.089,-2.2940414,-2.7591018)" />
    <rect
       x="8.245779"
       y="8.0493994"
       width="47.200809"
       height="48.583622"
       rx="9.511797"
       ry="9.6776171"
       fill="url(#linearGradient862)"
       stroke-width="3.23184"
       id="rect35-7"
       style="opacity:1;fill:#f9f9f9;fill-opacity:1" />
    <rect
       x="10.60582"
       y="10.47858"
       width="42.480732"
       height="43.725258"
       rx="9.0337515"
       ry="8.819849"
       fill="url(#linearGradient862)"
       stroke-width="2.90867"
       id="rect35-7-3"
       style="fill:url(#linearGradient6)" />
    <path
       id="path18-3"
       style="fill:#000000;fill-opacity:1;stroke:none;stroke-width:0.968;stroke-dasharray:none;stroke-dashoffset:2.2;stroke-opacity:0.3;opacity:0.2"
       d="m 31.705161,19.458327 c -0.588717,0.01522 -1.179079,0.07349 -1.765844,0.175828 -6.276679,1.094562 -11.191384,7.031922 -11.504452,13.899874 l -0.06618,1.444439 -0.438626,0.427282 c -1.089626,1.060474 -1.252664,2.72577 -0.393249,4.02325 0.347423,0.524515 1.276598,1.160689 1.699674,1.164625 0.170486,0.0015 0.323662,0.225661 0.657937,0.956655 1.189514,2.601251 3.420345,5.076795 5.857154,6.49997 1.487861,0.868956 3.391972,1.48298 5.127377,1.654296 2.331476,0.230158 4.85436,-0.267294 7.029344,-1.387719 l 0.992578,-0.51236 0.449967,0.204188 c 0.269561,0.121361 0.700609,0.200741 1.077657,0.198516 1.624122,-0.0095 2.908496,-1.806157 2.544782,-3.558157 -0.127216,-0.612788 -0.126644,-0.613844 0.311953,-1.308311 1.134048,-1.79564 1.97677,-4.036745 2.304671,-6.13319 0.151606,-0.969288 0.176005,-1.621071 0.122892,-3.170576 -0.03675,-1.072141 -0.09721,-2.126602 -0.134236,-2.344374 -0.06161,-0.362489 -0.03269,-0.419159 0.336531,-0.667392 0.922297,-0.620082 1.434939,-1.942886 1.194875,-3.087392 -0.344341,-1.641653 -1.655928,-2.612747 -3.134655,-2.321687 -0.27518,0.05416 -0.555562,0.107118 -0.622014,0.117224 -0.06645,0.01012 -0.425519,-0.384865 -0.797845,-0.87725 -2.659289,-3.516783 -6.729282,-5.504297 -10.850294,-5.397734 z m 0.170156,1.423641 c 1.0423,-0.01907 2.09766,0.102993 3.149781,0.37056 1.114618,0.28347 3.105949,1.255767 4.062954,1.983266 0.882512,0.670875 2.271663,2.107238 2.805687,2.90022 l 0.391359,0.580423 -0.232545,0.518031 c -0.167077,0.37134 -0.234006,0.750666 -0.23633,1.33856 l -0.0037,0.818641 -2.703594,2.136409 -2.705484,2.136405 -0.51425,-0.259015 c -0.666546,-0.337433 -1.363842,-0.337614 -2.092922,0.0018 -0.627228,0.292076 -1.095971,0.787481 -1.404733,1.48225 -0.247556,0.557039 0.360919,0.443648 -5.607595,1.036061 -2.453107,0.243487 -4.513821,0.444299 -4.579093,0.444299 -0.06526,0 -0.146994,-0.09518 -0.183392,-0.209861 -0.188901,-0.595177 -1.416851,-1.450456 -2.08914,-1.45578 -0.294501,-0.0024 -0.306914,-0.02386 -0.306281,-0.586094 0.0017,-1.517614 0.516273,-3.806616 1.225125,-5.452563 0.92461,-2.146936 2.730505,-4.407971 4.495906,-5.628391 2.002848,-1.384567 4.235269,-2.113361 6.528327,-2.155311 z m 10.993985,10.131859 0.635251,0.257125 c 0.350167,0.142262 0.668266,0.303381 0.707093,0.357328 0.03883,0.05394 0.126552,0.532717 0.194733,1.064423 0.410034,3.19725 -0.231297,6.501896 -1.792311,9.228139 -0.26039,0.454759 -0.523056,0.840152 -0.584204,0.856453 -0.06114,0.0163 -0.311239,-0.0783 -0.555844,-0.209858 -0.31131,-0.167435 -0.649627,-0.239825 -1.126811,-0.243892 l -0.682516,-0.0057 -1.304532,-2.162875 -1.304531,-2.160985 0.24578,-0.69575 c 0.176317,-0.499446 0.235094,-0.882854 0.207971,-1.353685 l -0.03781,-0.656049 2.697921,-2.138296 z m -10.680141,6.399766 c 0.180241,0.008 0.261828,0.108064 0.474548,0.444296 0.526919,0.832882 1.652271,1.395626 2.4805,1.24025 l 0.362998,-0.06807 1.336674,2.221483 1.33478,2.223375 -0.226875,0.468875 c -0.310051,0.641734 -0.380573,1.582846 -0.164484,2.20258 0.09451,0.271074 0.145042,0.534963 0.113437,0.586093 -0.179586,0.290576 -2.290587,1.113104 -3.541142,1.380157 -1.099527,0.2348 -2.944107,0.286606 -4.011907,0.11155 -2.533592,-0.415369 -4.667425,-1.537255 -6.645545,-3.490095 -1.432955,-1.414638 -3.316495,-4.473217 -2.75464,-4.473217 0.217409,0 1.010517,-0.934246 1.187312,-1.397172 0.107294,-0.280939 0.26067,-0.493454 0.355437,-0.493454 0.218253,0 8.970116,-0.86769 9.477705,-0.939642 0.0906,-0.01278 0.16112,-0.01968 0.221201,-0.01702 z" />
    <path
       id="path18"
       style="fill:#f9f9f9;fill-opacity:1;stroke:none;stroke-width:0.968;stroke-dasharray:none;stroke-dashoffset:2.2;stroke-opacity:0.3"
       d="m 31.705161,17.640145 c -0.588717,0.01522 -1.179079,0.07349 -1.765844,0.175828 -6.276679,1.094562 -11.191384,7.031922 -11.504452,13.899874 l -0.06618,1.444439 -0.438626,0.427282 c -1.089626,1.060474 -1.252664,2.72577 -0.393249,4.02325 0.347423,0.524515 1.276598,1.160689 1.699674,1.164625 0.170486,0.0015 0.323662,0.225661 0.657937,0.956655 1.189514,2.601251 3.420345,5.076795 5.857154,6.49997 1.487861,0.868956 3.391972,1.48298 5.127377,1.654296 2.331476,0.230158 4.85436,-0.267294 7.029344,-1.387719 l 0.992578,-0.51236 0.449967,0.204188 c 0.269561,0.121361 0.700609,0.200741 1.077657,0.198516 1.624122,-0.0095 2.908496,-1.806157 2.544782,-3.558157 -0.127216,-0.612788 -0.126644,-0.613844 0.311953,-1.308311 1.134048,-1.79564 1.97677,-4.036745 2.304671,-6.13319 0.151606,-0.969288 0.176005,-1.621071 0.122892,-3.170576 -0.03675,-1.072141 -0.09721,-2.126602 -0.134236,-2.344374 -0.06161,-0.362489 -0.03269,-0.419159 0.336531,-0.667392 0.922297,-0.620082 1.434939,-1.942886 1.194875,-3.087392 -0.344341,-1.641653 -1.655928,-2.612747 -3.134655,-2.321687 -0.27518,0.05416 -0.555562,0.107118 -0.622014,0.117224 -0.06645,0.01012 -0.425519,-0.384865 -0.797845,-0.87725 C 39.896163,19.521101 35.82617,17.533587 31.705158,17.64015 Z m 0.170156,1.423641 c 1.0423,-0.01907 2.09766,0.102993 3.149781,0.37056 1.114618,0.28347 3.105949,1.255767 4.062954,1.983266 0.882512,0.670875 2.271663,2.107238 2.805687,2.90022 l 0.391359,0.580423 -0.232545,0.518031 c -0.167077,0.37134 -0.234006,0.750666 -0.23633,1.33856 l -0.0037,0.818641 -2.703594,2.136409 -2.705484,2.136405 -0.51425,-0.259015 c -0.666546,-0.337433 -1.363842,-0.337614 -2.092922,0.0018 -0.627228,0.292076 -1.095971,0.787481 -1.404733,1.48225 -0.247556,0.557039 0.360919,0.443648 -5.607595,1.036061 -2.453107,0.243487 -4.513821,0.444299 -4.579093,0.444299 -0.06526,0 -0.146994,-0.09518 -0.183392,-0.209861 -0.188901,-0.595177 -1.416851,-1.450456 -2.08914,-1.45578 -0.294501,-0.0024 -0.306914,-0.02386 -0.306281,-0.586094 0.0017,-1.517614 0.516273,-3.806616 1.225125,-5.452563 0.92461,-2.146936 2.730505,-4.407971 4.495906,-5.628391 2.002848,-1.384567 4.235269,-2.113361 6.528327,-2.155311 z m 10.993985,10.131859 0.635251,0.257125 c 0.350167,0.142262 0.668266,0.303381 0.707093,0.357328 0.03883,0.05394 0.126552,0.532717 0.194733,1.064423 0.410034,3.19725 -0.231297,6.501896 -1.792311,9.228139 -0.26039,0.454759 -0.523056,0.840152 -0.584204,0.856453 -0.06114,0.0163 -0.311239,-0.0783 -0.555844,-0.209858 -0.31131,-0.167435 -0.649627,-0.239825 -1.126811,-0.243892 l -0.682516,-0.0057 -1.304532,-2.162875 -1.304531,-2.160985 0.24578,-0.69575 c 0.176317,-0.499446 0.235094,-0.882854 0.207971,-1.353685 l -0.03781,-0.656049 2.697921,-2.138296 z m -10.680141,6.399766 c 0.180241,0.008 0.261828,0.108064 0.474548,0.444296 0.526919,0.832882 1.652271,1.395626 2.4805,1.24025 l 0.362998,-0.06807 1.336674,2.221483 1.33478,2.223375 -0.226875,0.468875 c -0.310051,0.641734 -0.380573,1.582846 -0.164484,2.20258 0.09451,0.271074 0.145042,0.534963 0.113437,0.586093 -0.179586,0.290576 -2.290587,1.113104 -3.541142,1.380157 -1.099527,0.2348 -2.944107,0.286606 -4.011907,0.11155 -2.533592,-0.415369 -4.667425,-1.537255 -6.645545,-3.490095 -1.432955,-1.414638 -3.316495,-4.473217 -2.75464,-4.473217 0.217409,0 1.010517,-0.934246 1.187312,-1.397172 0.107294,-0.280939 0.26067,-0.493454 0.355437,-0.493454 0.218253,0 8.970116,-0.86769 9.477705,-0.939642 0.0906,-0.01278 0.16112,-0.01968 0.221201,-0.01702 z" />
    <path
       style="fill:#f5f7fa;stroke-width:0.204426;fill-opacity:1"
       d=""
       id="path3" />
  </g>
</svg>
