<?xml version="1.0" encoding="UTF-8" standalone="no"?>
<svg
   width="64"
   height="64"
   version="1.1"
   id="svg73"
   sodipodi:docname="Blue.svg"
   inkscape:version="1.3.2 (091e20ef0f, 2023-11-25)"
   xmlns:inkscape="http://www.inkscape.org/namespaces/inkscape"
   xmlns:sodipodi="http://sodipodi.sourceforge.net/DTD/sodipodi-0.dtd"
   xmlns:xlink="http://www.w3.org/1999/xlink"
   xmlns="http://www.w3.org/2000/svg"
   xmlns:svg="http://www.w3.org/2000/svg"
   xmlns:rdf="http://www.w3.org/1999/02/22-rdf-syntax-ns#"
   xmlns:cc="http://creativecommons.org/ns#"
   xmlns:dc="http://purl.org/dc/elements/1.1/">
  <metadata
     id="metadata77">
    <rdf:RDF>
      <cc:Work
         rdf:about="">
        <dc:format>image/svg+xml</dc:format>
        <dc:type
           rdf:resource="http://purl.org/dc/dcmitype/StillImage" />
      </cc:Work>
    </rdf:RDF>
  </metadata>
  <sodipodi:namedview
     pagecolor="#f5f7fa"
     bordercolor="#666666"
     borderopacity="1"
     objecttolerance="10"
     gridtolerance="10"
     guidetolerance="10"
     inkscape:pageopacity="0"
     inkscape:pageshadow="2"
     inkscape:window-width="1377"
     inkscape:window-height="886"
     id="namedview75"
     showgrid="false"
     inkscape:zoom="6.2890624"
     inkscape:cx="47.701864"
     inkscape:cy="46.191305"
     inkscape:window-x="233"
     inkscape:window-y="88"
     inkscape:window-maximized="0"
     inkscape:current-layer="g877"
     inkscape:document-rotation="0"
     inkscape:pagecheckerboard="0"
     inkscape:showpageshadow="2"
     inkscape:deskcolor="#d1d1d1" />
  <defs
     id="defs29">
    <linearGradient
       id="linearGradient5"
       inkscape:collect="always">
      <stop
         style="stop-color:#984859;stop-opacity:1;"
         offset="0"
         id="stop5" />
      <stop
         style="stop-color:#bf7384;stop-opacity:1;"
         offset="1"
         id="stop6" />
    </linearGradient>
    <inkscape:path-effect
       effect="powerclip"
       id="path-effect1980"
       is_visible="true"
       lpeversion="1"
       inverse="true"
       flatten="false"
       hide_clip="false"
       message="Use fill-rule evenodd on &lt;b&gt;fill and stroke&lt;/b&gt; dialog if no flatten result after convert clip to paths." />
    <clipPath
       clipPathUnits="userSpaceOnUse"
       id="clipPath1976">
      <rect
         x="9.6784649"
         y="9.925169"
         width="43.343258"
         height="44.613056"
         rx="8.6689987"
         ry="8.9229689"
         fill="url(#linearGradient862)"
         stroke-width="2.96772"
         id="rect1978"
         style="display:none;fill:#333333;fill-opacity:1"
         d="m 18.347464,9.925169 h 26.00526 c 4.802625,0 8.668999,3.979644 8.668999,8.922969 v 26.767118 c 0,4.943325 -3.866374,8.922969 -8.668999,8.922969 h -26.00526 c -4.802626,0 -8.6689991,-3.979644 -8.6689991,-8.922969 V 18.848138 c 0,-4.943325 3.8663731,-8.922969 8.6689991,-8.922969 z" />
      <path
         id="lpe_path-effect1980"
         style="fill:#333333;fill-opacity:1"
         class="powerclip"
         d="M 2.0757722,2.2464043 H 60.623896 V 62.216811 H 2.0757722 Z M 18.347464,9.925169 c -4.802626,0 -8.6689991,3.979644 -8.6689991,8.922969 v 26.767118 c 0,4.943325 3.8663731,8.922969 8.6689991,8.922969 h 26.00526 c 4.802625,0 8.668999,-3.979644 8.668999,-8.922969 V 18.848138 c 0,-4.943325 -3.866374,-8.922969 -8.668999,-8.922969 z" />
    </clipPath>
    <linearGradient
       inkscape:collect="always"
       xlink:href="#linearGradient5"
       id="linearGradient6"
       x1="33.785751"
       y1="12.971354"
       x2="33.375801"
       y2="52.289253"
       gradientUnits="userSpaceOnUse"
       gradientTransform="matrix(1.1,0,0,1.1,-3.1845928,-3.2341119)" />
    <linearGradient
       id="d"
       y1="1050.34"
       y2="1038.36"
       gradientUnits="userSpaceOnUse"
       x2="0"
       gradientTransform="matrix(-2.5774727,0,0,2.5806818,51.999856,-2661.7402)">
      <stop
         stop-color="#c61423"
         id="stop7" />
      <stop
         offset="1"
         stop-color="#dc2b41"
         id="stop8" />
    </linearGradient>
  </defs>
  <g
     id="g877"
     transform="matrix(1.1,0,0,1.1,-3.1845928,-3.2065454)">
    <path
       d="m 18.347203,7.2464043 c -6.244452,0 -11.2714308,5.1741617 -11.2714308,11.6016437 v 26.767119 c 0,6.427394 5.0268918,11.601644 11.2714308,11.601644 h 26.005262 c 6.244452,0 11.271431,-5.174161 11.271431,-11.601644 V 18.848048 c 0,-6.427393 -5.026893,-11.6016437 -11.271431,-11.6016437 z"
       fill="url(#linearGradient910)"
       stroke-width="3.32418"
       id="path33"
       style="fill:#4d4d4d;fill-opacity:1"
       clip-path="url(#clipPath1976)"
       inkscape:path-effect="#path-effect1980"
       inkscape:original-d="m 18.347203,7.2464043 c -6.244452,0 -11.2714308,5.1741617 -11.2714308,11.6016437 v 26.767119 c 0,6.427394 5.0268918,11.601644 11.2714308,11.601644 h 26.005262 c 6.244452,0 11.271431,-5.174161 11.271431,-11.601644 V 18.848048 c 0,-6.427393 -5.026893,-11.6016437 -11.271431,-11.6016437 z"
       transform="matrix(1.089,0,0,1.089,-2.2940414,-2.7591018)" />
    <rect
       x="8.245779"
       y="8.0493994"
       width="47.200809"
       height="48.583622"
       rx="9.511797"
       ry="9.6776171"
       fill="url(#linearGradient862)"
       stroke-width="3.23184"
       id="rect35-7"
       style="opacity:1;fill:#f9f9f9;fill-opacity:1" />
    <rect
       x="10.60582"
       y="10.47858"
       width="42.480732"
       height="43.725258"
       rx="9.0337515"
       ry="8.819849"
       fill="url(#linearGradient862)"
       stroke-width="2.90867"
       id="rect35-7-3"
       style="fill:url(#linearGradient6)" />
    <path
       id="path11-0"
       style="fill:#000000;fill-opacity:1;stroke:none;stroke-width:0.204273;stroke-opacity:1;opacity:0.2"
       d="m 32.872041,16.724303 c -0.0054,0.01103 0.0039,0.04639 0.03369,0.115817 0.364079,0.846411 0.39626,1.538889 0.103176,2.173066 -0.121945,0.263873 -0.167128,0.517529 -0.202146,1.124435 -0.05269,0.912812 -0.130544,1.081189 -0.610648,1.324476 -0.662908,0.335922 -2.067514,0.650656 -2.910053,0.650656 -0.543352,0 -1.025988,-0.159716 -1.958288,-0.646446 -0.591654,-0.308886 -0.77866,-0.374811 -1.059157,-0.374811 h -0.341124 l 0.334805,0.322169 c 0.404813,0.392575 0.549028,0.778699 0.404292,1.073898 -0.05124,0.104523 -0.137542,0.211927 -0.193724,0.237944 -0.543634,0.251754 -0.91031,0.490663 -1.859317,1.206555 -0.606359,0.457411 -1.195281,0.912038 -1.30763,1.010729 l -0.204252,0.178984 0.421138,-0.04001 c 0.572842,-0.05344 0.998738,-0.228131 1.758246,-0.720145 0.856311,-0.554721 1.402508,-0.754793 2.179381,-0.800159 0.551048,-0.03218 0.630243,-0.0212 0.791738,0.10739 0.39105,0.311394 0.287655,0.691766 -0.520104,1.924594 -0.243813,0.372114 -0.442194,0.691763 -0.442194,0.709615 0,0.0677 1.147158,-0.543036 1.676124,-0.892808 0.303701,-0.200818 0.722383,-0.536207 0.932818,-0.743308 0.309258,-0.304352 0.426385,-0.374431 0.606437,-0.372705 0.361227,0.0036 0.598013,0.269692 0.598013,0.673819 0,0.664112 0.940265,2.510507 1.657175,3.255387 0.153564,0.159556 0.298117,0.283443 0.32217,0.273738 0.09331,-0.03785 0.600976,-0.670663 0.905443,-1.128646 0.534431,-0.803897 0.863786,-1.582674 0.920183,-2.173065 0.04007,-0.419461 0.07852,-0.538735 0.206358,-0.642233 0.268223,-0.217194 0.478326,-0.15494 1.423441,0.416925 1.246352,0.754134 1.713622,1.077777 3.032184,2.103578 0.631308,0.491136 1.176625,0.876007 1.210769,0.854908 0.09985,-0.06171 0.373801,-0.643584 0.492731,-1.044419 0.126698,-0.427021 0.145054,-1.44782 0.03369,-1.911962 -0.178432,-0.743663 -0.003,-1.020723 0.650657,-1.025466 l 0.412714,-0.0021 -0.271635,-0.143187 c -0.496237,-0.261867 -2.422247,-1.007921 -3.295398,-1.276012 -1.087378,-0.333869 -2.26269,-0.531515 -3.640725,-0.610648 -1.202031,-0.06903 -1.282561,-0.09705 -1.621376,-0.591697 -0.425521,-0.621218 -0.567563,-1.588205 -0.355861,-2.423641 0.175402,-0.692168 0.162828,-1.361576 -0.03579,-1.775093 -0.11322,-0.235713 -0.26172,-0.433281 -0.277954,-0.400079 z m -6.085426,8.130044 c -0.03649,-0.03649 -0.60318,0.280722 -1.347637,0.755941 -0.556699,0.35537 -0.995526,0.504415 -1.785619,0.606437 l -0.606437,0.08001 -0.267421,0.339013 c -0.49664,0.628299 -1.024172,1.855694 -1.311842,3.053241 -0.6267,2.608919 -0.140886,5.625206 1.518199,9.412407 0.872416,1.991471 3.818487,7.700011 4.457732,8.637515 0.499821,0.733019 1.679427,1.951039 2.276244,2.349942 0.62176,0.415576 1.321275,0.746848 1.87827,0.892809 0.612828,0.160596 1.638193,0.176299 2.185698,0.03369 0.942895,-0.245589 2.081358,-0.978521 3.114308,-2.00461 0.944588,-0.938317 1.353458,-1.504688 2.651055,-3.67863 0.592985,-0.993461 1.367118,-2.249111 1.722449,-2.792136 2.016334,-3.081427 2.166925,-3.345895 2.629999,-4.594601 0.613604,-1.654603 0.878795,-2.845438 0.932817,-4.19031 0.06664,-1.658643 -0.150803,-2.795534 -0.787525,-4.118717 -0.385486,-0.801085 -0.939496,-1.749044 -1.368695,-2.339416 l -0.216883,-0.299005 -0.157929,0.450615 c -0.267229,0.764763 -0.768003,1.52862 -1.12654,1.714026 -0.432453,0.223632 -0.596223,0.15662 -1.644538,-0.663289 -1.50641,-1.178189 -2.492791,-1.900467 -3.038503,-2.2236 -0.274378,-0.162469 -0.508708,-0.284366 -0.520102,-0.271633 -0.01138,0.01274 -0.136046,0.295321 -0.277952,0.627494 -0.364956,0.854284 -1.20239,2.08871 -1.794042,2.646845 -0.53473,0.504435 -0.722709,0.560475 -1.202345,0.360071 -0.729145,-0.304655 -1.746809,-1.730706 -2.465755,-3.453321 l -0.0758,-0.181089 -0.566429,0.374811 c -0.60682,0.401659 -1.848964,1.031636 -2.404691,1.219191 -0.187249,0.0632 -0.533717,0.117276 -0.77068,0.12213 -0.405361,0.0083 -0.442367,-0.0034 -0.629599,-0.212674 -0.326438,-0.364771 -0.260463,-0.587263 0.547476,-1.855106 0.267953,-0.420479 0.471548,-0.779233 0.452724,-0.798055 z m 0.10529,5.651655 c 0.03733,3.81e-4 0.07451,0.0054 0.111606,0.01473 0.269353,0.06761 0.661723,0.519415 0.838062,0.966509 0.233455,0.591908 0.228938,1.496628 -0.01057,1.962498 -0.09584,0.186459 -0.277155,0.408463 -0.402186,0.49273 -0.158089,0.10657 -0.328305,0.153717 -0.557974,0.153717 -0.282842,0 -0.367943,-0.03431 -0.598014,-0.242153 -0.352137,-0.318139 -0.515728,-0.750266 -0.513787,-1.358168 0.0033,-1.027775 0.572839,-1.995587 1.132859,-1.98987 z m 11.629691,0.0064 c 0.283746,-0.02037 0.531945,0.113991 0.817003,0.423241 0.396784,0.430459 0.564666,0.839675 0.602227,1.47398 0.02791,0.471406 0.01187,0.566913 -0.15582,0.909654 -0.138081,0.282229 -0.269368,0.433407 -0.499048,0.579063 -0.624532,0.39607 -1.520379,0.193811 -1.905643,-0.429558 -0.568616,-0.920043 -0.100781,-2.524631 0.842274,-2.884786 0.104975,-0.0401 0.204424,-0.0648 0.299007,-0.0716 z m -7.759444,3.832343 c 0.729222,-0.06114 1.509051,0.932334 1.511881,1.998295 0.0018,0.67946 -0.258932,1.174787 -0.749624,1.423441 -1.162723,0.589203 -2.332217,-0.445531 -2.053041,-1.815099 0.160018,-0.785013 0.628122,-1.432988 1.145491,-1.581366 0.04793,-0.01374 0.09668,-0.0212 0.145293,-0.02527 z m 8.915463,2.42996 c 0.09622,0.0066 0.19674,0.03223 0.305325,0.07368 0.364848,0.139338 0.67689,0.475297 0.918077,0.989673 0.144435,0.308039 0.176835,0.477918 0.176879,0.92229 6e-5,0.635643 -0.162823,1.002417 -0.60012,1.353954 -0.220792,0.17749 -0.325559,0.212575 -0.713827,0.231624 -0.666428,0.0327 -1.053128,-0.206974 -1.349744,-0.835956 -0.316734,-0.671654 -0.133646,-1.65474 0.423243,-2.274139 0.303264,-0.337295 0.551503,-0.480773 0.840167,-0.461144 z m -4.175572,3.459638 c 0.143424,0.0059 0.249806,0.05931 0.463253,0.204251 0.568304,0.385924 0.989694,1.372075 0.882281,2.067782 -0.06289,0.407397 -0.350494,0.888237 -0.654867,1.099166 -0.339469,0.235251 -0.99044,0.297067 -1.311841,0.124236 -0.564802,-0.303716 -0.86732,-0.825079 -0.863331,-1.488719 0.0061,-1.002151 0.613416,-1.918857 1.324476,-1.998291 0.06126,-0.0068 0.112223,-0.01035 0.160029,-0.0085 z m -6.776088,1.547678 c 0.162443,-0.0085 0.328001,0.06825 0.511681,0.22952 0.33008,0.289816 0.499321,0.67414 0.501152,1.141281 0.0021,0.502115 -0.163877,0.808789 -0.545371,1.00441 -0.389354,0.199607 -0.617951,0.183508 -0.968614,-0.06532 -0.577078,-0.409493 -0.573219,-1.416343 0.0085,-2.027772 0.171191,-0.179962 0.330285,-0.273608 0.492727,-0.282163 z" />
    <path
       id="path11"
       style="fill:#f9f9f9;fill-opacity:1;stroke:none;stroke-width:0.204273;stroke-opacity:1"
       d="m 32.872041,14.906121 c -0.0054,0.01103 0.0039,0.04639 0.03369,0.115817 0.364079,0.846411 0.39626,1.538889 0.103176,2.173066 -0.121945,0.263873 -0.167128,0.517529 -0.202146,1.124435 -0.05269,0.912812 -0.130544,1.081189 -0.610648,1.324476 -0.662908,0.335922 -2.067514,0.650656 -2.910053,0.650656 -0.543352,0 -1.025988,-0.159716 -1.958288,-0.646446 -0.591654,-0.308886 -0.77866,-0.374811 -1.059157,-0.374811 h -0.341124 l 0.334805,0.322169 c 0.404813,0.392575 0.549028,0.778699 0.404292,1.073898 -0.05124,0.104523 -0.137542,0.211927 -0.193724,0.237944 -0.543634,0.251754 -0.91031,0.490663 -1.859317,1.206555 -0.606359,0.457411 -1.195281,0.912038 -1.30763,1.010729 l -0.204252,0.178984 0.421138,-0.04001 c 0.572842,-0.05344 0.998738,-0.228131 1.758246,-0.720145 0.856311,-0.554721 1.402508,-0.754793 2.179381,-0.800159 0.551048,-0.03218 0.630243,-0.0212 0.791738,0.10739 0.39105,0.311394 0.287655,0.691766 -0.520104,1.924594 -0.243813,0.372114 -0.442194,0.691763 -0.442194,0.709615 0,0.0677 1.147158,-0.543036 1.676124,-0.892808 0.303701,-0.200818 0.722383,-0.536207 0.932818,-0.743308 0.309258,-0.304352 0.426385,-0.374431 0.606437,-0.372705 0.361227,0.0036 0.598013,0.269692 0.598013,0.673819 0,0.664112 0.940265,2.510507 1.657175,3.255387 0.153564,0.159556 0.298117,0.283443 0.32217,0.273738 0.09331,-0.03785 0.600976,-0.670663 0.905443,-1.128646 0.534431,-0.803897 0.863786,-1.582674 0.920183,-2.173065 0.04007,-0.419461 0.07852,-0.538735 0.206358,-0.642233 0.268223,-0.217194 0.478326,-0.15494 1.423441,0.416925 1.246352,0.754134 1.713622,1.077777 3.032184,2.103578 0.631308,0.491136 1.176625,0.876007 1.210769,0.854908 0.09985,-0.06171 0.373801,-0.643584 0.492731,-1.044419 0.126698,-0.427021 0.145054,-1.44782 0.03369,-1.911962 -0.178432,-0.743663 -0.003,-1.020723 0.650657,-1.025466 l 0.412714,-0.0021 -0.271635,-0.143187 c -0.496237,-0.261867 -2.422247,-1.007921 -3.295398,-1.276012 -1.087378,-0.333869 -2.26269,-0.531515 -3.640725,-0.610648 -1.202031,-0.06903 -1.282561,-0.09705 -1.621376,-0.591697 -0.425521,-0.621218 -0.567563,-1.588205 -0.355861,-2.423641 0.175402,-0.692168 0.162828,-1.361576 -0.03579,-1.775093 -0.11322,-0.235713 -0.26172,-0.433281 -0.277954,-0.400079 z m -6.085426,8.130044 c -0.03649,-0.03649 -0.60318,0.280722 -1.347637,0.755941 -0.556699,0.35537 -0.995526,0.504415 -1.785619,0.606437 l -0.606437,0.08001 -0.267421,0.339013 c -0.49664,0.628299 -1.024172,1.855694 -1.311842,3.053241 -0.6267,2.608919 -0.140886,5.625206 1.518199,9.412407 0.872416,1.991471 3.818487,7.700011 4.457732,8.637515 0.499821,0.733019 1.679427,1.951039 2.276244,2.349942 0.62176,0.415576 1.321275,0.746848 1.87827,0.892809 0.612828,0.160596 1.638193,0.176299 2.185698,0.03369 0.942895,-0.245589 2.081358,-0.978521 3.114308,-2.00461 0.944588,-0.938317 1.353458,-1.504688 2.651055,-3.67863 0.592985,-0.993461 1.367118,-2.249111 1.722449,-2.792136 2.016334,-3.081427 2.166925,-3.345895 2.629999,-4.594601 0.613604,-1.654603 0.878795,-2.845438 0.932817,-4.19031 0.06664,-1.658643 -0.150803,-2.795534 -0.787525,-4.118717 -0.385486,-0.801085 -0.939496,-1.749044 -1.368695,-2.339416 l -0.216883,-0.299005 -0.157929,0.450615 c -0.267229,0.764763 -0.768003,1.52862 -1.12654,1.714026 -0.432453,0.223632 -0.596223,0.15662 -1.644538,-0.663289 -1.50641,-1.178189 -2.492791,-1.900467 -3.038503,-2.2236 -0.274378,-0.162469 -0.508708,-0.284366 -0.520102,-0.271633 -0.01138,0.01274 -0.136046,0.295321 -0.277952,0.627494 -0.364956,0.854284 -1.20239,2.08871 -1.794042,2.646845 -0.53473,0.504435 -0.722709,0.560475 -1.202345,0.360071 -0.729145,-0.304655 -1.746809,-1.730706 -2.465755,-3.453321 l -0.0758,-0.181089 -0.566429,0.374811 c -0.60682,0.401659 -1.848964,1.031636 -2.404691,1.219191 -0.187249,0.0632 -0.533717,0.117276 -0.77068,0.12213 -0.405361,0.0083 -0.442367,-0.0034 -0.629599,-0.212674 -0.326438,-0.364771 -0.260463,-0.587263 0.547476,-1.855106 0.267953,-0.420479 0.471548,-0.779233 0.452724,-0.798055 z m 0.10529,5.651655 c 0.03733,3.81e-4 0.07451,0.0054 0.111606,0.01473 0.269353,0.06761 0.661723,0.519415 0.838062,0.966509 0.233455,0.591908 0.228938,1.496628 -0.01057,1.962498 -0.09584,0.186459 -0.277155,0.408463 -0.402186,0.49273 -0.158089,0.10657 -0.328305,0.153717 -0.557974,0.153717 -0.282842,0 -0.367943,-0.03431 -0.598014,-0.242153 -0.352137,-0.318139 -0.515728,-0.750266 -0.513787,-1.358168 0.0033,-1.027775 0.572839,-1.995587 1.132859,-1.98987 z m 11.629691,0.0064 c 0.283746,-0.02037 0.531945,0.113991 0.817003,0.423241 0.396784,0.430459 0.564666,0.839675 0.602227,1.47398 0.02791,0.471406 0.01187,0.566913 -0.15582,0.909654 -0.138081,0.282229 -0.269368,0.433407 -0.499048,0.579063 -0.624532,0.39607 -1.520379,0.193811 -1.905643,-0.429558 -0.568616,-0.920043 -0.100781,-2.524631 0.842274,-2.884786 0.104975,-0.0401 0.204424,-0.0648 0.299007,-0.0716 z m -7.759444,3.832343 c 0.729222,-0.06114 1.509051,0.932334 1.511881,1.998295 0.0018,0.67946 -0.258932,1.174787 -0.749624,1.423441 -1.162723,0.589203 -2.332217,-0.445531 -2.053041,-1.815099 0.160018,-0.785013 0.628122,-1.432988 1.145491,-1.581366 0.04793,-0.01374 0.09668,-0.0212 0.145293,-0.02527 z m 8.915463,2.42996 c 0.09622,0.0066 0.19674,0.03223 0.305325,0.07368 0.364848,0.139338 0.67689,0.475297 0.918077,0.989673 0.144435,0.308039 0.176835,0.477918 0.176879,0.92229 6e-5,0.635643 -0.162823,1.002417 -0.60012,1.353954 -0.220792,0.17749 -0.325559,0.212575 -0.713827,0.231624 -0.666428,0.0327 -1.053128,-0.206974 -1.349744,-0.835956 -0.316734,-0.671654 -0.133646,-1.65474 0.423243,-2.274139 0.303264,-0.337295 0.551503,-0.480773 0.840167,-0.461144 z m -4.175572,3.459638 c 0.143424,0.0059 0.249806,0.05931 0.463253,0.204251 0.568304,0.385924 0.989694,1.372075 0.882281,2.067782 -0.06289,0.407397 -0.350494,0.888237 -0.654867,1.099166 -0.339469,0.235251 -0.99044,0.297067 -1.311841,0.124236 -0.564802,-0.303716 -0.86732,-0.825079 -0.863331,-1.488719 0.0061,-1.002151 0.613416,-1.918857 1.324476,-1.998291 0.06126,-0.0068 0.112223,-0.01035 0.160029,-0.0085 z m -6.776088,1.547678 c 0.162443,-0.0085 0.328001,0.06825 0.511681,0.22952 0.33008,0.289816 0.499321,0.67414 0.501152,1.141281 0.0021,0.502115 -0.163877,0.808789 -0.545371,1.00441 -0.389354,0.199607 -0.617951,0.183508 -0.968614,-0.06532 -0.577078,-0.409493 -0.573219,-1.416343 0.0085,-2.027772 0.171191,-0.179962 0.330285,-0.273608 0.492727,-0.282163 z" />
    <path
       style="fill:#f5f7fa;stroke-width:0.204426;fill-opacity:1"
       d=""
       id="path3" />
  </g>
</svg>
