<?xml version="1.0" encoding="UTF-8" standalone="no"?>
<svg
   width="64"
   height="64"
   version="1.1"
   id="svg73"
   sodipodi:docname="org.suyu_emu.suyu.svg"
   inkscape:version="1.3.2 (091e20ef0f, 2023-11-25)"
   xmlns:inkscape="http://www.inkscape.org/namespaces/inkscape"
   xmlns:sodipodi="http://sodipodi.sourceforge.net/DTD/sodipodi-0.dtd"
   xmlns:xlink="http://www.w3.org/1999/xlink"
   xmlns="http://www.w3.org/2000/svg"
   xmlns:svg="http://www.w3.org/2000/svg"
   xmlns:rdf="http://www.w3.org/1999/02/22-rdf-syntax-ns#"
   xmlns:cc="http://creativecommons.org/ns#"
   xmlns:dc="http://purl.org/dc/elements/1.1/">
  <metadata
     id="metadata77">
    <rdf:RDF>
      <cc:Work
         rdf:about="">
        <dc:format>image/svg+xml</dc:format>
        <dc:type
           rdf:resource="http://purl.org/dc/dcmitype/StillImage" />
      </cc:Work>
    </rdf:RDF>
  </metadata>
  <sodipodi:namedview
     pagecolor="#f5f7fa"
     bordercolor="#666666"
     borderopacity="1"
     objecttolerance="10"
     gridtolerance="10"
     guidetolerance="10"
     inkscape:pageopacity="0"
     inkscape:pageshadow="2"
     inkscape:window-width="1377"
     inkscape:window-height="886"
     id="namedview75"
     showgrid="false"
     inkscape:zoom="6.2890624"
     inkscape:cx="30.529193"
     inkscape:cy="48.417392"
     inkscape:window-x="55"
     inkscape:window-y="98"
     inkscape:window-maximized="0"
     inkscape:current-layer="g877"
     inkscape:document-rotation="0"
     inkscape:pagecheckerboard="0"
     inkscape:showpageshadow="2"
     inkscape:deskcolor="#d1d1d1" />
  <defs
     id="defs29">
    <linearGradient
       id="linearGradient5"
       inkscape:collect="always">
      <stop
         style="stop-color:#984859;stop-opacity:1;"
         offset="0"
         id="stop5" />
      <stop
         style="stop-color:#bf7384;stop-opacity:1;"
         offset="1"
         id="stop6" />
    </linearGradient>
    <inkscape:path-effect
       effect="powerclip"
       id="path-effect1980"
       is_visible="true"
       lpeversion="1"
       inverse="true"
       flatten="false"
       hide_clip="false"
       message="Use fill-rule evenodd on &lt;b&gt;fill and stroke&lt;/b&gt; dialog if no flatten result after convert clip to paths." />
    <clipPath
       clipPathUnits="userSpaceOnUse"
       id="clipPath1976">
      <rect
         x="9.6784649"
         y="9.925169"
         width="43.343258"
         height="44.613056"
         rx="8.6689987"
         ry="8.9229689"
         fill="url(#linearGradient862)"
         stroke-width="2.96772"
         id="rect1978"
         style="display:none;fill:#333333;fill-opacity:1"
         d="m 18.347464,9.925169 h 26.00526 c 4.802625,0 8.668999,3.979644 8.668999,8.922969 v 26.767118 c 0,4.943325 -3.866374,8.922969 -8.668999,8.922969 h -26.00526 c -4.802626,0 -8.6689991,-3.979644 -8.6689991,-8.922969 V 18.848138 c 0,-4.943325 3.8663731,-8.922969 8.6689991,-8.922969 z" />
      <path
         id="lpe_path-effect1980"
         style="fill:#333333;fill-opacity:1"
         class="powerclip"
         d="M 2.0757722,2.2464043 H 60.623896 V 62.216811 H 2.0757722 Z M 18.347464,9.925169 c -4.802626,0 -8.6689991,3.979644 -8.6689991,8.922969 v 26.767118 c 0,4.943325 3.8663731,8.922969 8.6689991,8.922969 h 26.00526 c 4.802625,0 8.668999,-3.979644 8.668999,-8.922969 V 18.848138 c 0,-4.943325 -3.866374,-8.922969 -8.668999,-8.922969 z" />
    </clipPath>
    <linearGradient
       inkscape:collect="always"
       xlink:href="#linearGradient5"
       id="linearGradient6"
       x1="33.785751"
       y1="12.971354"
       x2="33.375801"
       y2="52.289253"
       gradientUnits="userSpaceOnUse"
       gradientTransform="matrix(1.1,0,0,1.1,-3.1845928,-3.2341119)" />
    <linearGradient
       id="d"
       y1="1050.34"
       y2="1038.36"
       gradientUnits="userSpaceOnUse"
       x2="0"
       gradientTransform="matrix(-2.5774727,0,0,2.5806818,51.999856,-2661.7402)">
      <stop
         stop-color="#c61423"
         id="stop7" />
      <stop
         offset="1"
         stop-color="#dc2b41"
         id="stop8" />
    </linearGradient>
    <linearGradient
       xlink:href="#linearGradient4144"
       id="linearGradient4150"
       x1="14.023"
       y1="8.1289997"
       x2="27.879"
       y2="34.944"
       gradientUnits="userSpaceOnUse"
       gradientTransform="matrix(0.90909091,0,0,0.90909091,10.411742,11.299005)" />
    <linearGradient
       id="linearGradient4144">
      <stop
         style="stop-color:#ffffff;stop-opacity:1;"
         offset="0"
         id="stop1" />
      <stop
         style="stop-color:#eea9a9;stop-opacity:1"
         offset="1"
         id="stop2" />
    </linearGradient>
  </defs>
  <g
     id="g877"
     transform="matrix(1.1,0,0,1.1,-3.1845928,-3.2065454)">
    <path
       d="m 18.347203,7.2464043 c -6.244452,0 -11.2714308,5.1741617 -11.2714308,11.6016437 v 26.767119 c 0,6.427394 5.0268918,11.601644 11.2714308,11.601644 h 26.005262 c 6.244452,0 11.271431,-5.174161 11.271431,-11.601644 V 18.848048 c 0,-6.427393 -5.026893,-11.6016437 -11.271431,-11.6016437 z"
       fill="url(#linearGradient910)"
       stroke-width="3.32418"
       id="path33"
       style="fill:#4d4d4d;fill-opacity:1"
       clip-path="url(#clipPath1976)"
       inkscape:path-effect="#path-effect1980"
       inkscape:original-d="m 18.347203,7.2464043 c -6.244452,0 -11.2714308,5.1741617 -11.2714308,11.6016437 v 26.767119 c 0,6.427394 5.0268918,11.601644 11.2714308,11.601644 h 26.005262 c 6.244452,0 11.271431,-5.174161 11.271431,-11.601644 V 18.848048 c 0,-6.427393 -5.026893,-11.6016437 -11.271431,-11.6016437 z"
       transform="matrix(1.089,0,0,1.089,-2.2940414,-2.7591018)" />
    <rect
       x="8.245779"
       y="8.0493994"
       width="47.200809"
       height="48.583622"
       rx="9.511797"
       ry="9.6776171"
       fill="url(#linearGradient862)"
       stroke-width="3.23184"
       id="rect35-7"
       style="opacity:1;fill:#f9f9f9;fill-opacity:1" />
    <rect
       x="10.60582"
       y="10.47858"
       width="42.480732"
       height="43.725258"
       rx="9.0337515"
       ry="8.819849"
       fill="url(#linearGradient862)"
       stroke-width="2.90867"
       id="rect35-7-3"
       style="fill:url(#linearGradient6)" />
    <path
       id="path11-5"
       style="fill:#000000;fill-opacity:1;stroke:none;stroke-width:0.980099;stroke-dasharray:none;stroke-dashoffset:2.2;stroke-opacity:0.3;opacity:0.2"
       d="m 31.993314,17.612097 c -0.496202,0.0015 -0.986662,0.09304 -1.332324,0.275653 -0.742565,0.392308 -1.441047,1.096899 -1.787917,1.80323 -0.262815,0.535167 -0.311968,0.776333 -0.310112,1.535234 0.0018,0.752309 0.0512,0.994214 0.298628,1.464406 0.371131,0.705295 0.99567,1.332986 1.630948,1.64052 l 0.488135,0.237365 v 0.945648 0.947559 H 28.56105 26.141427 v 1.070069 1.068155 h 2.419623 2.419622 v 4.665048 c 0,3.030735 -0.04066,4.77499 -0.118689,4.980898 -0.300493,0.793089 -1.176784,1.316617 -2.187999,1.305525 -0.806492,-0.0088 -3.154576,-0.475776 -4.464048,-0.886302 -1.107686,-0.347269 -2.546447,-1.066045 -2.913499,-1.456751 l -0.26034,-0.277568 h 1.026043 1.027957 l -1.734314,-1.638603 c -0.953693,-0.900875 -1.773032,-1.647283 -1.82046,-1.659664 -0.250876,-0.06548 -0.720828,1.995815 -0.880558,3.861059 l -0.07274,0.844188 0.568534,-0.555135 c 0.312463,-0.305841 0.584038,-0.534505 0.602993,-0.507277 0.01899,0.02726 0.108262,0.198334 0.199084,0.379022 0.09083,0.180683 0.415309,0.526985 0.721676,0.769531 0.967457,0.765922 2.211975,1.315655 5.576234,2.469392 1.082252,0.371153 2.21869,0.801958 2.524907,0.957131 0.306209,0.155167 1.143994,0.808335 1.860657,1.451005 0.716668,0.64267 1.329984,1.168708 1.36295,1.169616 0.03297,9.07e-4 0.666007,-0.532649 1.406981,-1.186844 0.740972,-0.654192 1.523352,-1.28136 1.740058,-1.393577 0.216707,-0.112228 1.509242,-0.595679 2.871387,-1.0739 3.833338,-1.345806 5.883368,-2.449235 6.091166,-3.27721 0.03751,-0.149364 0.09833,-0.269908 0.135918,-0.269908 0.03751,0 0.312496,0.238481 0.608738,0.53025 l 0.537909,0.530249 v -0.516853 c 0,-0.669992 -0.264247,-2.153765 -0.599166,-3.359519 l -0.266121,-0.957131 -1.678804,1.690289 -1.67689,1.688376 0.955215,0.05552 0.957127,0.05744 -0.706359,0.484308 c -1.294139,0.887714 -3.059505,1.4818 -5.740831,1.933399 -1.128636,0.190093 -1.471348,0.210191 -1.858744,0.107195 C 34.12389,39.339591 33.588731,38.99091 33.33521,38.575149 33.13488,38.24662 33.121208,37.935926 33.120812,33.412396 v -4.812442 h 2.364108 2.36411 V 27.531798 26.46173 h -2.36411 -2.364108 v -0.945644 -0.947557 l 0.610649,-0.344567 c 1.54924,-0.874336 2.205098,-2.953367 1.431864,-4.542535 -0.324085,-0.666061 -1.126494,-1.466924 -1.805145,-1.801316 -0.366061,-0.180365 -0.868661,-0.269565 -1.364864,-0.267996 z m -0.04787,2.348795 c 0.675909,-0.04268 1.288297,0.480912 1.288297,1.228952 0,0.364982 -0.0744,0.52809 -0.382851,0.836531 -0.308442,0.308442 -0.471548,0.382852 -0.836531,0.382852 -1.296688,0 -1.70711,-1.767268 -0.539821,-2.32391 0.156157,-0.07446 0.314928,-0.114587 0.470906,-0.124422 z m 10.237451,26.866602 c -1.488542,0 -2.978105,0.04929 -3.0743,0.145478 -0.09615,0.09614 -0.133974,0.790915 -0.133974,2.41388 0,2.052341 0.01975,2.291433 0.197155,2.394741 0.26754,0.155813 5.710913,0.161117 6.001205,0.0061 0.20429,-0.109296 0.218239,-0.258347 0.218239,-2.398569 0,-1.624235 -0.03979,-2.319618 -0.135919,-2.415791 -0.09618,-0.09618 -1.583846,-0.145477 -3.072383,-0.145477 z m -20.390674,0.0096 c -2.534138,0 -2.977984,0.02652 -3.129812,0.17804 -0.148646,0.148679 -0.17611,0.524034 -0.17611,2.356452 0,2.125935 0.005,2.185617 0.248853,2.356457 0.210217,0.14726 0.699193,0.17612 3.058983,0.17612 2.455441,0 2.834974,-0.02468 3.014957,-0.187598 0.18613,-0.168436 0.206738,-0.397148 0.206738,-2.396652 0,-1.56997 -0.04003,-2.250978 -0.135915,-2.346881 -0.09821,-0.09819 -0.941281,-0.135918 -3.087694,-0.135918 z m 10.151311,0 c -2.139095,0 -2.979946,0.03796 -3.078128,0.13592 -0.09594,0.09595 -0.135915,0.779165 -0.135915,2.356452 0,1.868924 0.02914,2.247786 0.178026,2.396647 0.151537,0.15156 0.587582,0.17804 3.03984,0.17804 2.712497,0 2.874354,-0.01278 3.087698,-0.225876 0.209074,-0.209091 0.223969,-0.375972 0.223969,-2.327733 0,-1.797858 -0.02634,-2.130589 -0.185685,-2.30668 -0.171444,-0.189472 -0.421408,-0.20676 -3.129811,-0.20676 z" />
    <path
       id="path11"
       style="fill:#f9f9f9;fill-opacity:1;stroke:none;stroke-width:0.980099;stroke-dasharray:none;stroke-dashoffset:2.2;stroke-opacity:0.3"
       d="m 31.993314,15.793915 c -0.496202,0.0015 -0.986662,0.09304 -1.332324,0.275653 -0.742565,0.392308 -1.441047,1.096899 -1.787917,1.80323 -0.262815,0.535167 -0.311968,0.776333 -0.310112,1.535234 0.0018,0.752309 0.0512,0.994214 0.298628,1.464406 0.371131,0.705295 0.99567,1.332986 1.630948,1.64052 l 0.488135,0.237365 v 0.945648 0.947559 H 28.56105 26.141427 v 1.070069 1.068155 h 2.419623 2.419622 v 4.665048 c 0,3.030735 -0.04066,4.77499 -0.118689,4.980898 -0.300493,0.793089 -1.176784,1.316617 -2.187999,1.305525 -0.806492,-0.0088 -3.154576,-0.475776 -4.464048,-0.886302 -1.107686,-0.347269 -2.546447,-1.066045 -2.913499,-1.456751 l -0.26034,-0.277568 h 1.026043 1.027957 l -1.734314,-1.638603 c -0.953693,-0.900875 -1.773032,-1.647283 -1.82046,-1.659664 -0.250876,-0.06548 -0.720828,1.995815 -0.880558,3.861059 l -0.07274,0.844188 0.568534,-0.555135 c 0.312463,-0.305841 0.584038,-0.534505 0.602993,-0.507277 0.01899,0.02726 0.108262,0.198334 0.199084,0.379022 0.09083,0.180683 0.415309,0.526985 0.721676,0.769531 0.967457,0.765922 2.211975,1.315655 5.576234,2.469392 1.082252,0.371153 2.21869,0.801958 2.524907,0.957131 0.306209,0.155167 1.143994,0.808335 1.860657,1.451005 0.716668,0.64267 1.329984,1.168708 1.36295,1.169616 0.03297,9.07e-4 0.666007,-0.532649 1.406981,-1.186844 0.740972,-0.654192 1.523352,-1.28136 1.740058,-1.393577 0.216707,-0.112228 1.509242,-0.595679 2.871387,-1.0739 3.833338,-1.345806 5.883368,-2.449235 6.091166,-3.27721 0.03751,-0.149364 0.09833,-0.269908 0.135918,-0.269908 0.03751,0 0.312496,0.238481 0.608738,0.53025 l 0.537909,0.530249 v -0.516853 c 0,-0.669992 -0.264247,-2.153765 -0.599166,-3.359519 l -0.266121,-0.957131 -1.678804,1.690289 -1.67689,1.688376 0.955215,0.05552 0.957127,0.05744 -0.706359,0.484308 c -1.294139,0.887714 -3.059505,1.4818 -5.740831,1.933399 -1.128636,0.190093 -1.471348,0.210191 -1.858744,0.107195 -0.652754,-0.173544 -1.187913,-0.522225 -1.441434,-0.937986 -0.20033,-0.328529 -0.214002,-0.639223 -0.214398,-5.162753 v -4.812442 h 2.364108 2.36411 v -1.068156 -1.070068 h -2.36411 -2.364108 v -0.945644 -0.947557 l 0.610649,-0.344567 c 1.54924,-0.874336 2.205098,-2.953367 1.431864,-4.542535 -0.324085,-0.666061 -1.126494,-1.466924 -1.805145,-1.801316 -0.366061,-0.180365 -0.868661,-0.269565 -1.364864,-0.267996 z m -0.04787,2.348795 c 0.675909,-0.04268 1.288297,0.480912 1.288297,1.228952 0,0.364982 -0.0744,0.52809 -0.382851,0.836531 -0.308442,0.308442 -0.471548,0.382852 -0.836531,0.382852 -1.296688,0 -1.70711,-1.767268 -0.539821,-2.32391 0.156157,-0.07446 0.314928,-0.114587 0.470906,-0.124422 z m 10.237451,26.866602 c -1.488542,0 -2.978105,0.04929 -3.0743,0.145478 -0.09615,0.09614 -0.133974,0.790915 -0.133974,2.41388 0,2.052341 0.01975,2.291433 0.197155,2.394741 0.26754,0.155813 5.710913,0.161117 6.001205,0.0061 0.20429,-0.109296 0.218239,-0.258347 0.218239,-2.398569 0,-1.624235 -0.03979,-2.319618 -0.135919,-2.415791 -0.09618,-0.09618 -1.583846,-0.145477 -3.072383,-0.145477 z m -20.390674,0.0096 c -2.534138,0 -2.977984,0.02652 -3.129812,0.17804 -0.148646,0.148679 -0.17611,0.524034 -0.17611,2.356452 0,2.125935 0.005,2.185617 0.248853,2.356457 0.210217,0.14726 0.699193,0.17612 3.058983,0.17612 2.455441,0 2.834974,-0.02468 3.014957,-0.187598 0.18613,-0.168436 0.206738,-0.397148 0.206738,-2.396652 0,-1.56997 -0.04003,-2.250978 -0.135915,-2.346881 -0.09821,-0.09819 -0.941281,-0.135918 -3.087694,-0.135918 z m 10.151311,0 c -2.139095,0 -2.979946,0.03796 -3.078128,0.13592 -0.09594,0.09595 -0.135915,0.779165 -0.135915,2.356452 0,1.868924 0.02914,2.247786 0.178026,2.396647 0.151537,0.15156 0.587582,0.17804 3.03984,0.17804 2.712497,0 2.874354,-0.01278 3.087698,-0.225876 0.209074,-0.209091 0.223969,-0.375972 0.223969,-2.327733 0,-1.797858 -0.02634,-2.130589 -0.185685,-2.30668 -0.171444,-0.189472 -0.421408,-0.20676 -3.129811,-0.20676 z" />
    <path
       style="fill:#f5f7fa;stroke-width:0.204426;fill-opacity:1"
       d=""
       id="path3" />
  </g>
</svg>
