<?xml version="1.0" encoding="UTF-8" standalone="no"?>
<svg
   width="64"
   height="64"
   version="1.1"
   id="svg73"
   sodipodi:docname="io.elementary.settings-daemon.svg"
   inkscape:version="1.3.2 (091e20ef0f, 2023-11-25)"
   xmlns:inkscape="http://www.inkscape.org/namespaces/inkscape"
   xmlns:sodipodi="http://sodipodi.sourceforge.net/DTD/sodipodi-0.dtd"
   xmlns:xlink="http://www.w3.org/1999/xlink"
   xmlns="http://www.w3.org/2000/svg"
   xmlns:svg="http://www.w3.org/2000/svg"
   xmlns:rdf="http://www.w3.org/1999/02/22-rdf-syntax-ns#"
   xmlns:cc="http://creativecommons.org/ns#"
   xmlns:dc="http://purl.org/dc/elements/1.1/">
  <metadata
     id="metadata77">
    <rdf:RDF>
      <cc:Work
         rdf:about="">
        <dc:format>image/svg+xml</dc:format>
        <dc:type
           rdf:resource="http://purl.org/dc/dcmitype/StillImage" />
      </cc:Work>
    </rdf:RDF>
  </metadata>
  <sodipodi:namedview
     pagecolor="#f5f7fa"
     bordercolor="#666666"
     borderopacity="1"
     objecttolerance="10"
     gridtolerance="10"
     guidetolerance="10"
     inkscape:pageopacity="0"
     inkscape:pageshadow="2"
     inkscape:window-width="1377"
     inkscape:window-height="886"
     id="namedview75"
     showgrid="false"
     inkscape:zoom="4.4470387"
     inkscape:cx="30.132411"
     inkscape:cy="28.221027"
     inkscape:window-x="346"
     inkscape:window-y="72"
     inkscape:window-maximized="0"
     inkscape:current-layer="g877"
     inkscape:document-rotation="0"
     inkscape:pagecheckerboard="0"
     inkscape:showpageshadow="2"
     inkscape:deskcolor="#d1d1d1" />
  <defs
     id="defs29">
    <linearGradient
       id="linearGradient5"
       inkscape:collect="always">
      <stop
         style="stop-color:#984859;stop-opacity:1;"
         offset="0"
         id="stop5" />
      <stop
         style="stop-color:#bf7384;stop-opacity:1;"
         offset="1"
         id="stop6" />
    </linearGradient>
    <inkscape:path-effect
       effect="powerclip"
       id="path-effect1980"
       is_visible="true"
       lpeversion="1"
       inverse="true"
       flatten="false"
       hide_clip="false"
       message="Use fill-rule evenodd on &lt;b&gt;fill and stroke&lt;/b&gt; dialog if no flatten result after convert clip to paths." />
    <linearGradient
       id="b"
       x1="399.57"
       x2="399.57"
       y1="545.8"
       y2="517.8"
       gradientTransform="matrix(2.1429,0,0,2.1429,-825.86391,-1107.6662)"
       gradientUnits="userSpaceOnUse">
      <stop
         stop-color="#3889e9"
         offset="0"
         id="stop2" />
      <stop
         stop-color="#5ea5fb"
         offset="1"
         id="stop4" />
    </linearGradient>
    <linearGradient
       id="linearGradient862"
       x1="7.9373"
       x2="7.9373"
       y1="15.081"
       y2="1.852"
       gradientTransform="matrix(3.3743 0 0 3.3743 3.4312 3.4278)"
       gradientUnits="userSpaceOnUse">
      <stop
         stop-color="#f1efeb"
         offset="0"
         id="stop7" />
      <stop
         stop-color="#fff"
         offset="1"
         id="stop9" />
    </linearGradient>
    <linearGradient
       id="linearGradient910"
       x1="7.9373"
       x2="7.9373"
       y1="15.081"
       y2="1.852"
       gradientTransform="scale(3.7796)"
       gradientUnits="userSpaceOnUse">
      <stop
         stop-color="#613583"
         offset="0"
         id="stop12" />
      <stop
         stop-color="#a663c0"
         offset="1"
         id="stop14" />
    </linearGradient>
    <linearGradient
       id="linearGradient932"
       x1="379.24"
       x2="374.24"
       y1="546.85"
       y2="546.85"
       gradientTransform="matrix(2.1429 0 0 2.1429 -769.68 -1134.5)"
       gradientUnits="userSpaceOnUse">
      <stop
         stop-color="#f6f5f4"
         offset="0"
         id="stop17" />
      <stop
         stop-color="#fff"
         offset=".6"
         id="stop19" />
      <stop
         stop-color="#dddbd8"
         offset="1"
         id="stop21" />
    </linearGradient>
    <linearGradient
       id="linearGradient1146"
       x1="18"
       x2="18"
       y1="52"
       y2="12"
       gradientUnits="userSpaceOnUse">
      <stop
         stop-color="#5e337f"
         offset="0"
         id="stop24" />
      <stop
         stop-color="#ab60bf"
         offset="1"
         id="stop26" />
    </linearGradient>
    <clipPath
       clipPathUnits="userSpaceOnUse"
       id="clipPath1976">
      <rect
         x="9.6784649"
         y="9.925169"
         width="43.343258"
         height="44.613056"
         rx="8.6689987"
         ry="8.9229689"
         fill="url(#linearGradient862)"
         stroke-width="2.96772"
         id="rect1978"
         style="display:none;fill:#333333;fill-opacity:1"
         d="m 18.347464,9.925169 h 26.00526 c 4.802625,0 8.668999,3.979644 8.668999,8.922969 v 26.767118 c 0,4.943325 -3.866374,8.922969 -8.668999,8.922969 h -26.00526 c -4.802626,0 -8.6689991,-3.979644 -8.6689991,-8.922969 V 18.848138 c 0,-4.943325 3.8663731,-8.922969 8.6689991,-8.922969 z" />
      <path
         id="lpe_path-effect1980"
         style="fill:#333333;fill-opacity:1"
         class="powerclip"
         d="M 2.0757722,2.2464043 H 60.623896 V 62.216811 H 2.0757722 Z M 18.347464,9.925169 c -4.802626,0 -8.6689991,3.979644 -8.6689991,8.922969 v 26.767118 c 0,4.943325 3.8663731,8.922969 8.6689991,8.922969 h 26.00526 c 4.802625,0 8.668999,-3.979644 8.668999,-8.922969 V 18.848138 c 0,-4.943325 -3.866374,-8.922969 -8.668999,-8.922969 z" />
    </clipPath>
    <filter
       style="color-interpolation-filters:sRGB;"
       inkscape:label="Drop Shadow"
       id="filter663"
       x="-0.098870968"
       y="-0.096056853"
       width="1.2389382"
       height="1.2321374">
      <feFlood
         flood-opacity="0.301961"
         flood-color="rgb(0,0,0)"
         result="flood"
         id="feFlood653" />
      <feComposite
         in="flood"
         in2="SourceGraphic"
         operator="in"
         result="composite1"
         id="feComposite655" />
      <feGaussianBlur
         in="composite1"
         stdDeviation="2"
         result="blur"
         id="feGaussianBlur657" />
      <feOffset
         dx="2"
         dy="2"
         result="offset"
         id="feOffset659" />
      <feComposite
         in="SourceGraphic"
         in2="offset"
         operator="over"
         result="composite2"
         id="feComposite661" />
    </filter>
    <clipPath
       clipPathUnits="userSpaceOnUse"
       id="clipPath38">
      <rect
         x="0.97311002"
         y="4.6963"
         width="14.987"
         height="9.9216995"
         ry="0.29919001"
         fill="#fffffc"
         id="rect40"
         style="display:block;opacity:0.85;fill:#f2f2f2;stroke-width:0.999999" />
    </clipPath>
    <inkscape:path-effect
       effect="powerclip"
       id="path-effect42"
       is_visible="true"
       lpeversion="1"
       inverse="true"
       flatten="false"
       hide_clip="false"
       message="Use fill-rule evenodd on &lt;b&gt;fill and stroke&lt;/b&gt; dialog if no flatten result after convert clip to paths." />
    <clipPath
       clipPathUnits="userSpaceOnUse"
       id="clipPath30">
      <path
         id="path32"
         style="color:#000000;display:block;opacity:0.85;fill:#f5f7fa;stroke-linecap:round;-inkscape-stroke:none"
         d="m 27.902344,19.023438 c -5.140587,0.01596 -9.820748,0.752518 -13.330078,2.15625 a 2.5,2.5 0 0 0 -1.392578,3.248046 2.5,2.5 0 0 0 3.248046,1.392578 c 3.180816,-1.272325 8.839301,-2.056673 14.796875,-1.699218 5.957575,0.357454 12.260098,1.820223 17.035157,4.548828 a 2.5,2.5 0 0 0 3.410156,-0.929688 2.5,2.5 0 0 0 -0.929688,-3.410156 c -5.72493,-3.271389 -12.67243,-4.808627 -19.214843,-5.201172 -1.226703,-0.0736 -2.436758,-0.109153 -3.623047,-0.105468 z m -1.240235,9.966796 c -1.05657,-0.0087 -2.093217,0.01082 -3.097656,0.05859 -2.678505,0.127409 -5.127438,0.45996 -7.113281,1.027344 a 2,2 0 0 0 -1.375,2.472656 2,2 0 0 0 2.472656,1.375 c 3.028306,-0.86523 8.701737,-1.165792 14.148438,-0.68164 5.4467,0.484152 10.812065,1.834345 13.193359,3.421874 a 2,2 0 0 0 2.773437,-0.554687 2,2 0 0 0 -0.554687,-2.773437 C 43.490675,30.923467 37.856023,29.773657 32.052734,29.257808 30.239207,29.096607 28.42306,29.004783 26.662109,28.99023 Z m 0.917969,8.988282 c -3.813243,-0.0048 -7.379665,0.410834 -10.064453,1.082031 a 2,2 0 0 0 -1.455078,2.423828 2,2 0 0 0 2.423828,1.455078 c 5.391278,-1.347819 17.438862,-1.241506 23.621094,1.849609 a 2,2 0 0 0 2.683593,-0.894531 2,2 0 0 0 -0.894531,-2.683593 c -3.908877,-1.954439 -8.851018,-2.904387 -13.642578,-3.160157 -0.898417,-0.04796 -1.791896,-0.07116 -2.671875,-0.07227 z" />
    </clipPath>
    <inkscape:path-effect
       effect="powerclip"
       id="path-effect34"
       is_visible="true"
       lpeversion="1"
       inverse="true"
       flatten="false"
       hide_clip="false"
       message="Use fill-rule evenodd on &lt;b&gt;fill and stroke&lt;/b&gt; dialog if no flatten result after convert clip to paths." />
    <clipPath
       clipPathUnits="userSpaceOnUse"
       id="clipPath1299">
      <path
         style="color:#000000;display:block;opacity:0.85;fill:#f5f7fa;-inkscape-stroke:none"
         d="m 24.149464,39.847234 c 1.129182,1.129183 1.129024,2.947446 -3.54e-4,4.076824 L 11.920405,56.152763 c -1.129378,1.129378 -2.9476414,1.129536 -4.0768237,3.54e-4 -1.1291824,-1.129183 -1.1290247,-2.947446 3.535e-4,-4.076825 L 20.072639,39.847588 c 1.129379,-1.129378 2.947642,-1.129536 4.076825,-3.54e-4 z"
         id="path1301" />
    </clipPath>
    <inkscape:path-effect
       effect="powerclip"
       id="path-effect1303"
       is_visible="true"
       lpeversion="1"
       inverse="true"
       flatten="false"
       hide_clip="false"
       message="Use fill-rule evenodd on &lt;b&gt;fill and stroke&lt;/b&gt; dialog if no flatten result after convert clip to paths." />
    <clipPath
       clipPathUnits="userSpaceOnUse"
       id="clipPath703">
      <path
         id="path705"
         style="display:block;fill:#cccccc"
         d="m 43,22 a 10,10 0 0 0 -10,10 10,10 0 0 0 7.291016,9.619141 L 33.099609,56 H 32.716797 C 30.979913,56 29,58.306428 29,60 h 28 c 0,-1.693572 -1.979913,-4 -3.716797,-4 H 52.900391 L 45.708984,41.619141 A 10,10 0 0 0 53,32 10,10 0 0 0 43,22 Z" />
    </clipPath>
    <inkscape:path-effect
       effect="powerclip"
       id="path-effect707"
       is_visible="true"
       lpeversion="1"
       inverse="true"
       flatten="false"
       hide_clip="false"
       message="Use fill-rule evenodd on &lt;b&gt;fill and stroke&lt;/b&gt; dialog if no flatten result after convert clip to paths." />
    <clipPath
       clipPathUnits="userSpaceOnUse"
       id="clipPath679">
      <path
         id="path681"
         style="display:block;fill:#9499b2"
         d="m 31,6 c -0.554,0 -1,0.39025 -1,0.875 v 5.25 C 30,12.60975 30.446,13 31,13 h 2 c 0.554,0 1,-0.39025 1,-0.875 V 6.875 C 34,6.39025 33.554,6 33,6 Z m 1,10 A 16,16 0 0 0 16,32 16,16 0 0 0 32,48 16,16 0 0 0 48,32 16,16 0 0 0 32,16 Z M 6.875,30 C 6.39025,30 6,30.446 6,31 v 2 c 0,0.554 0.39025,1 0.875,1 h 5.25 C 12.60975,34 13,33.554 13,33 v -2 c 0,-0.554 -0.39025,-1 -0.875,-1 z m 45,0 C 51.39025,30 51,30.446 51,31 v 2 c 0,0.554 0.39025,1 0.875,1 h 5.25 C 57.60975,34 58,33.554 58,33 v -2 c 0,-0.554 -0.39025,-1 -0.875,-1 z M 31,51 c -0.554,0 -1,0.39025 -1,0.875 v 5.25 C 30,57.60975 30.446,58 31,58 h 2 c 0.554,0 1,-0.39025 1,-0.875 v -5.25 C 34,51.39025 33.554,51 33,51 Z" />
    </clipPath>
    <inkscape:path-effect
       effect="powerclip"
       id="path-effect683"
       is_visible="true"
       lpeversion="1"
       inverse="true"
       flatten="false"
       hide_clip="false"
       message="Use fill-rule evenodd on &lt;b&gt;fill and stroke&lt;/b&gt; dialog if no flatten result after convert clip to paths." />
    <clipPath
       clipPathUnits="userSpaceOnUse"
       id="clipPath32">
      <path
         fill="url(#deepin-feedback-c)"
         fill-rule="nonzero"
         d="m 17.266954,37.715754 c -0.854456,0 -1.547131,0.868034 -1.547131,1.938785 0,1.070753 0.692675,1.938786 1.547131,1.938786 h 30.169037 c 0.854455,0 1.547133,-0.868033 1.547133,-1.938786 0,-1.070751 -0.692678,-1.938785 -1.547133,-1.938785 z m 0,-9.693925 c -0.854456,0 -1.547131,0.867993 -1.547131,1.938784 0,1.070753 0.692675,1.938786 1.547131,1.938786 h 30.169037 c 0.854455,0 1.547133,-0.868033 1.547133,-1.938786 0,-1.070791 -0.692678,-1.938784 -1.547133,-1.938784 z m 0,-9.693965 c -0.854456,0 -1.547131,0.868033 -1.547131,1.938784 0,1.070793 0.692675,1.938825 1.547131,1.938825 h 30.169037 c 0.854455,0 1.547133,-0.868032 1.547133,-1.938825 0,-1.070751 -0.692678,-1.938784 -1.547133,-1.938784 z"
         id="path34"
         style="display:block;opacity:0.85;fill:#f9f9f9;stroke-width:0.144327" />
    </clipPath>
    <inkscape:path-effect
       effect="powerclip"
       id="path-effect36"
       is_visible="true"
       lpeversion="1"
       inverse="true"
       flatten="false"
       hide_clip="false"
       message="Use fill-rule evenodd on &lt;b&gt;fill and stroke&lt;/b&gt; dialog if no flatten result after convert clip to paths." />
    <clipPath
       clipPathUnits="userSpaceOnUse"
       id="clipPath854">
      <path
         style="display:block;fill:#ff812d;stroke-width:1.58832"
         d="M 16.422583,26.677299 C 38.790028,17.420545 36.741406,2.3199162 36.741406,2.3199162 c 0,0 12.349179,30.8061828 -6.163856,37.9881208 C 9.8965818,48.330999 11.458373,62.03536 11.458373,62.03536 c 0,0 -8.1724877,-29.921445 4.96421,-35.358061 z"
         id="path856"
         clip-path="url(#clipPath791)" />
    </clipPath>
    <inkscape:path-effect
       effect="powerclip"
       id="path-effect858"
       is_visible="true"
       lpeversion="1"
       inverse="true"
       flatten="false"
       hide_clip="false"
       message="Use fill-rule evenodd on &lt;b&gt;fill and stroke&lt;/b&gt; dialog if no flatten result after convert clip to paths." />
    <clipPath
       clipPathUnits="userSpaceOnUse"
       id="clipath_lpe_path-effect846">
      <path
         style="display:block;fill:#ffdf55;stroke-width:1.58832"
         d="M 4.2768115,34.537906 C 16.934974,18.372356 14.087849,7.0342933 14.087849,7.0342933 c 0,0 16.217779,19.6951427 5.182049,31.8936557 -12.3280457,13.627003 -7.706194,23.107411 -7.706194,23.107411 0,0 -14.5471376,-18.225493 -7.2868925,-27.497454 z"
         id="path848" />
    </clipPath>
    <inkscape:path-effect
       effect="powerclip"
       id="path-effect846"
       is_visible="true"
       lpeversion="1"
       inverse="true"
       flatten="false"
       hide_clip="false"
       message="Use fill-rule evenodd on &lt;b&gt;fill and stroke&lt;/b&gt; dialog if no flatten result after convert clip to paths." />
    <clipPath
       clipPathUnits="userSpaceOnUse"
       id="clipPath9545">
      <path
         style="display:block;fill:#f5f7fa;stroke-width:0.6561"
         d="m 33.433548,18.111827 a 4.26465,4.26465 0 0 0 -4.26465,4.26465 v 8.20125 h -0.02307 a 2.29635,2.29635 0 0 1 -2.273281,1.9683 2.29635,2.29635 0 0 1 -2.29635,-2.29635 2.29635,2.29635 0 0 1 2.29635,-2.29635 h 0.98415 v -2.6244 h -0.98415 a 4.92075,4.92075 0 0 0 -0.02435,0 4.92075,4.92075 0 0 0 -4.896404,4.92075 4.92075,4.92075 0 0 0 4.92075,4.92075 4.92075,4.92075 0 0 0 4.910498,-4.5927 h 0.01025 v -0.303703 a 4.92075,4.92075 0 0 0 0,-0.02435 v -2.29635 h 1.3122 a 1.3122,1.3122 0 0 0 1.3122,-1.3122 1.3122,1.3122 0 0 0 -1.3122,-1.3122 h -1.3122 v -2.95245 a 1.64025,1.64025 0 0 1 1.64025,-1.64025 1.64025,1.64025 0 0 1 1.64025,1.64025 v 0.32805 a 1.3122,1.3122 0 0 0 1.3122,1.3122 1.3122,1.3122 0 0 0 1.3122,-1.3122 1.3122,1.3122 0 0 0 0,-0.03204 v -0.624063 h -0.01282 a 4.26465,4.26465 0 0 0 -4.251835,-3.9366 z"
         id="path9547" />
    </clipPath>
    <inkscape:path-effect
       effect="powerclip"
       id="path-effect9549"
       is_visible="true"
       lpeversion="1"
       inverse="true"
       flatten="false"
       hide_clip="false"
       message="Use fill-rule evenodd on &lt;b&gt;fill and stroke&lt;/b&gt; dialog if no flatten result after convert clip to paths." />
    <clipPath
       clipPathUnits="userSpaceOnUse"
       id="clipPath29559">
      <path
         id="path29561"
         style="display:block;fill:#c01728"
         d="M 12.807506,15.00189 25.129742,29.152502 33.875626,6.0248098 C 25.965731,5.6856143 18.128435,8.8937717 12.807906,15.00189 Z M 7.4725772,39.888359 26.06373,36.442405 10.121942,17.410858 C 5.8683985,23.994571 4.7678131,32.29046 7.4725772,39.888559 Z M 26.663722,56.886133 32.933639,39.290367 8.2459669,43.386313 c 3.6567511,6.923908 10.3932621,12.01164 18.4189551,13.50082 z M 51.191396,48.998238 38.87016,34.847226 30.123076,57.974919 c 7.910095,0.339615 15.74739,-2.868562 21.06772,-8.976681 z M 56.527325,24.112569 37.936972,27.557523 53.87816,46.59007 c 4.253343,-6.584312 5.354129,-14.880202 2.649165,-22.477701 z M 37.33558,7.1139953 31.065663,24.710561 55.753335,20.614616 C 52.097384,13.690908 45.359473,8.6029755 37.33558,7.1139953 Z" />
    </clipPath>
    <inkscape:path-effect
       effect="powerclip"
       id="path-effect29563"
       is_visible="true"
       lpeversion="1"
       inverse="true"
       flatten="false"
       hide_clip="false"
       message="Use fill-rule evenodd on &lt;b&gt;fill and stroke&lt;/b&gt; dialog if no flatten result after convert clip to paths." />
    <clipPath
       clipPathUnits="userSpaceOnUse"
       id="clipPath1976-3">
      <rect
         x="9.6784649"
         y="9.925169"
         width="43.343258"
         height="44.613056"
         rx="8.6689987"
         ry="8.9229689"
         fill="url(#linearGradient862)"
         stroke-width="2.96772"
         id="rect1978-6"
         style="display:none;fill:#333333;fill-opacity:1"
         d="m 18.347464,9.925169 h 26.00526 c 4.802625,0 8.668999,3.979644 8.668999,8.922969 v 26.767118 c 0,4.943325 -3.866374,8.922969 -8.668999,8.922969 h -26.00526 c -4.802626,0 -8.6689991,-3.979644 -8.6689991,-8.922969 V 18.848138 c 0,-4.943325 3.8663731,-8.922969 8.6689991,-8.922969 z" />
      <path
         id="lpe_path-effect1980-7"
         style="fill:#333333;fill-opacity:1"
         class="powerclip"
         d="M 2.0757722,2.2464043 H 60.623896 V 62.216811 H 2.0757722 Z M 18.347464,9.925169 c -4.802626,0 -8.6689991,3.979644 -8.6689991,8.922969 v 26.767118 c 0,4.943325 3.8663731,8.922969 8.6689991,8.922969 h 26.00526 c 4.802625,0 8.668999,-3.979644 8.668999,-8.922969 V 18.848138 c 0,-4.943325 -3.866374,-8.922969 -8.668999,-8.922969 z" />
    </clipPath>
    <inkscape:path-effect
       effect="powerclip"
       id="path-effect1980-5"
       is_visible="true"
       lpeversion="1"
       inverse="true"
       flatten="false"
       hide_clip="false"
       message="Use fill-rule evenodd on &lt;b&gt;fill and stroke&lt;/b&gt; dialog if no flatten result after convert clip to paths." />
    <clipPath
       clipPathUnits="userSpaceOnUse"
       id="clipath_lpe_path-effect1980-5">
      <rect
         x="9.6784649"
         y="9.925169"
         width="43.343258"
         height="44.613056"
         rx="8.6689987"
         ry="8.9229689"
         fill="url(#linearGradient862)"
         stroke-width="2.96772"
         id="rect1"
         style="display:block;fill:#333333;fill-opacity:1" />
    </clipPath>
    <filter
       style="color-interpolation-filters:sRGB;"
       inkscape:label="Blur"
       id="filter1"
       x="-0.069336253"
       y="-0.067362776"
       width="1.1386725"
       height="1.1347256">
      <feGaussianBlur
         stdDeviation="1.5 1.5"
         result="blur"
         id="feGaussianBlur1" />
    </filter>
    <clipPath
       clipPathUnits="userSpaceOnUse"
       id="clipath_lpe_path-effect15-5">
      <path
         style="display:block;fill:#f5f7fa"
         d="M 32.000002,9.9999998 C 19.861159,9.9999998 10,19.861158 10,31.999998 10,44.13884 19.861159,54.000002 32.000002,54 44.138842,54 54.000008,44.13884 54,31.999998 54,19.861158 44.138842,9.9999998 32.000002,9.9999998 Z"
         id="path8108" />
    </clipPath>
    <inkscape:path-effect
       effect="powerclip"
       id="path-effect15-5"
       is_visible="true"
       lpeversion="1"
       inverse="true"
       flatten="false"
       hide_clip="false"
       message="Use fill-rule evenodd on &lt;b&gt;fill and stroke&lt;/b&gt; dialog if no flatten result after convert clip to paths." />
    <clipPath
       clipPathUnits="userSpaceOnUse"
       id="clipath_lpe_path-effect85-3">
      <path
         style="display:block;fill:#f5f7fa"
         d="m 32,30 c -1.10353,0 -2,0.89647 -2,2 0,1.10353 0.89647,2 2,2 1.10353,0 2,-0.89647 2,-2 0,-1.10353 -0.89647,-2 -2,-2 z"
         id="path8113" />
    </clipPath>
    <inkscape:path-effect
       effect="powerclip"
       id="path-effect85-3"
       is_visible="true"
       lpeversion="1"
       inverse="true"
       flatten="false"
       hide_clip="false"
       message="Use fill-rule evenodd on &lt;b&gt;fill and stroke&lt;/b&gt; dialog if no flatten result after convert clip to paths." />
    <clipPath
       clipPathUnits="userSpaceOnUse"
       id="clipath_lpe_path-effect15400-0">
      <path
         id="path2"
         style="display:block;opacity:1;fill:#f5f7fa;stroke-width:1.21"
         d="m 50.372929,27.606287 a 6.655,6.655 0 0 1 -6.655,6.655 6.655,6.655 0 0 1 -6.655,-6.655 6.655,6.655 0 0 1 6.655,-6.655 6.655,6.655 0 0 1 6.655,6.655 z m -14,8 a 6.655,6.655 0 0 1 -6.655,6.655 6.655,6.655 0 0 1 -6.655,-6.655 6.655,6.655 0 0 1 6.655,-6.655 6.655,6.655 0 0 1 6.655,6.655 z m -14,-11 a 6.655,6.655 0 0 1 -6.655,6.655 6.655,6.655 0 0 1 -6.655,-6.655 6.655,6.655 0 0 1 6.655,-6.655 6.655,6.655 0 0 1 6.655,6.655 z" />
    </clipPath>
    <inkscape:path-effect
       effect="powerclip"
       id="path-effect15400-0"
       is_visible="true"
       lpeversion="1"
       inverse="true"
       flatten="false"
       hide_clip="false"
       message="Use fill-rule evenodd on &lt;b&gt;fill and stroke&lt;/b&gt; dialog if no flatten result after convert clip to paths." />
    <clipPath
       clipPathUnits="userSpaceOnUse"
       id="clipath_lpe_path-effect15400-5">
      <path
         id="path1"
         style="display:block;opacity:1;fill:#f5f7fa;stroke-width:1.21"
         d="m 50.372929,27.606287 a 6.655,6.655 0 0 1 -6.655,6.655 6.655,6.655 0 0 1 -6.655,-6.655 6.655,6.655 0 0 1 6.655,-6.655 6.655,6.655 0 0 1 6.655,6.655 z m -14,8 a 6.655,6.655 0 0 1 -6.655,6.655 6.655,6.655 0 0 1 -6.655,-6.655 6.655,6.655 0 0 1 6.655,-6.655 6.655,6.655 0 0 1 6.655,6.655 z m -14,-11 a 6.655,6.655 0 0 1 -6.655,6.655 6.655,6.655 0 0 1 -6.655,-6.655 6.655,6.655 0 0 1 6.655,-6.655 6.655,6.655 0 0 1 6.655,6.655 z" />
    </clipPath>
    <inkscape:path-effect
       effect="powerclip"
       id="path-effect15400-5"
       is_visible="true"
       lpeversion="1"
       inverse="true"
       flatten="false"
       hide_clip="false"
       message="Use fill-rule evenodd on &lt;b&gt;fill and stroke&lt;/b&gt; dialog if no flatten result after convert clip to paths." />
    <linearGradient
       inkscape:collect="always"
       xlink:href="#linearGradient5"
       id="linearGradient6"
       x1="33.785751"
       y1="12.971354"
       x2="33.375801"
       y2="52.289253"
       gradientUnits="userSpaceOnUse"
       gradientTransform="matrix(1.1,0,0,1.1,-3.1845928,-3.2341119)" />
  </defs>
  <g
     id="g877"
     transform="matrix(1.1,0,0,1.1,-3.1845928,-3.2065454)">
    <path
       d="m 18.347203,7.2464043 c -6.244452,0 -11.2714308,5.1741617 -11.2714308,11.6016437 v 26.767119 c 0,6.427394 5.0268918,11.601644 11.2714308,11.601644 h 26.005262 c 6.244452,0 11.271431,-5.174161 11.271431,-11.601644 V 18.848048 c 0,-6.427393 -5.026893,-11.6016437 -11.271431,-11.6016437 z"
       fill="url(#linearGradient910)"
       stroke-width="3.32418"
       id="path33"
       style="fill:#4d4d4d;fill-opacity:1"
       clip-path="url(#clipPath1976)"
       inkscape:path-effect="#path-effect1980"
       inkscape:original-d="m 18.347203,7.2464043 c -6.244452,0 -11.2714308,5.1741617 -11.2714308,11.6016437 v 26.767119 c 0,6.427394 5.0268918,11.601644 11.2714308,11.601644 h 26.005262 c 6.244452,0 11.271431,-5.174161 11.271431,-11.601644 V 18.848048 c 0,-6.427393 -5.026893,-11.6016437 -11.271431,-11.6016437 z"
       transform="matrix(1.089,0,0,1.089,-2.2940414,-2.7591018)" />
    <rect
       x="8.245779"
       y="8.0493994"
       width="47.200809"
       height="48.583622"
       rx="9.511797"
       ry="9.6776171"
       fill="url(#linearGradient862)"
       stroke-width="3.23184"
       id="rect35-7"
       style="opacity:1;fill:#f9f9f9;fill-opacity:1" />
    <rect
       x="10.60582"
       y="10.47858"
       width="42.480732"
       height="43.725258"
       rx="9.0337515"
       ry="8.819849"
       fill="url(#linearGradient862)"
       stroke-width="2.90867"
       id="rect35-7-3"
       style="fill:url(#linearGradient6)" />
    <path
       style="fill:#f5f7fa;stroke-width:0.204426;fill-opacity:1"
       d=""
       id="path3" />
    <path
       id="path4-3"
       style="opacity:0.2;fill:#000000;stroke-width:0.112434"
       d="m 20.820306,22.171653 c -0.02625,-1.96e-4 -0.05196,8.27e-4 -0.07812,0.002 -0.61184,0.02633 -1.197047,0.414208 -1.554687,1.115234 -0.157329,0.308392 -0.21875,0.657888 -0.21875,1.230469 v 0.800781 l 0.365234,-0.09375 c 0.200976,-0.05129 0.869901,-0.0918 1.488281,-0.0918 0.618389,0 1.289258,0.04051 1.490234,0.0918 l 0.365235,0.09375 v -0.798828 c 0,-0.958112 -0.168416,-1.409673 -0.705078,-1.880859 -0.356953,-0.313407 -0.758645,-0.465835 -1.152344,-0.468749 z m 10.896484,0.002 c -0.387335,0.0061 -0.781475,0.156132 -1.130859,0.46289 -0.720466,0.632603 -0.710938,0.55491 -0.710938,6.160157 v 5.076173 l 0.308594,-0.07617 c 0.67566,-0.167343 2.331547,-0.187583 2.837887,-0.03516 l 0.505859,0.152343 0.0293,-5.095703 c 0.02798,-4.875302 0.02014,-5.112675 -0.19141,-5.527344 -0.37595,-0.736917 -1.00287,-1.12727 -1.648433,-1.117186 z m 10.927735,0.002 c -0.395296,0.0012 -0.798501,0.150261 -1.152338,0.460936 -0.648879,0.569703 -0.712894,0.840441 -0.712894,3.06836 0,1.794219 0.01825,1.97631 0.185543,1.912109 0.725989,-0.278635 2.323268,-0.280002 3.27149,-0.002 l 0.253902,0.07422 -0.0022,-1.951172 c -0.0022,-1.650844 -0.03454,-2.024037 -0.208989,-2.408202 -0.34045,-0.749485 -0.975942,-1.15637 -1.634767,-1.154298 z M 20.720696,26.13259 c -0.190439,0.0051 -0.382814,0.02487 -0.576172,0.06054 -1.39974,0.258229 -2.57411,1.164997 -3.179686,2.457032 -0.260561,0.55591 -0.302736,0.789308 -0.302736,1.71289 0,0.915635 0.04226,1.156908 0.29297,1.691406 0.505409,1.077555 1.192941,1.726104 2.33789,2.208985 0.538273,0.226966 0.779138,0.261399 1.648437,0.230469 0.838913,-0.02985 1.131715,-0.09201 1.658204,-0.34961 1.206184,-0.590127 2.047205,-1.688799 2.326171,-3.039062 0.514777,-2.491633 -1.573131,-4.917066 -4.015625,-4.972656 -0.06317,-0.0014 -0.125973,-0.0016 -0.189453,0 z m 21.976563,2.292969 c -1.055285,-0.0065 -2.128155,0.390103 -2.984375,1.232421 -0.60953,0.599639 -1.00706,1.369292 -1.197271,2.316407 -0.420949,2.096142 1.25993,4.421371 3.462906,4.791016 0.299871,0.05033 0.572418,0.09816 0.60742,0.105468 0.03498,0.0073 0.362507,-0.04208 0.726552,-0.109373 1.413808,-0.261354 2.580382,-1.158524 3.1836,-2.445312 0.258115,-0.550583 0.298826,-0.783423 0.298826,-1.705077 0,-0.921656 -0.0407,-1.156451 -0.298826,-1.707032 -0.749529,-1.598894 -2.256498,-2.468959 -3.798832,-2.478516 z m -10.914063,6.265625 c -0.981254,0 -1.131905,0.02955 -1.818358,0.367187 -2.578358,1.268205 -3.197683,4.512253 -1.269532,6.646485 0.430568,0.476584 1.478368,1.079021 2.148437,1.236328 1.85163,0.434685 3.864231,-0.559979 4.74023,-2.34375 0.270651,-0.550966 0.30469,-0.750376 0.30469,-1.746094 0,-0.985391 -0.03589,-1.204334 -0.300779,-1.769531 -0.386171,-0.823953 -1.26588,-1.70173 -2.089841,-2.087891 -0.55834,-0.261668 -0.788619,-0.302734 -1.714847,-0.302734 z m -12.675781,0.542969 c -0.128726,0.03485 -0.141324,0.850394 -0.115234,5.550781 l 0.03125,5.615233 0.298828,0.451173 c 0.163825,0.247492 0.466621,0.535028 0.673829,0.640625 0.507438,0.258607 1.406927,0.194919 1.867186,-0.132812 0.190003,-0.135295 0.451093,-0.464021 0.580079,-0.730469 0.227917,-0.470803 0.234374,-0.639481 0.234374,-5.970704 0,-4.982769 -0.01626,-5.478726 -0.179687,-5.416015 -0.09896,0.03797 -0.522732,0.126173 -0.941406,0.195313 -0.716958,0.118405 -1.832531,0.02498 -2.421876,-0.201172 -0.0097,-0.0037 -0.01875,-0.0043 -0.02735,-0.002 z m 21.671878,2.30664 v 4.341796 c 0,4.12238 0.01275,4.364116 0.226562,4.783204 0.12386,0.242787 0.41393,0.56986 0.644534,0.726563 0.928202,0.63073 2.297066,0.13294 2.720698,-0.988281 0.07689,-0.203389 0.119141,-1.843352 0.119141,-4.589844 v -4.273438 l -0.365233,0.09179 c -0.472857,0.120681 -2.50567,0.120681 -2.978516,0 z m -10.769534,6.238282 c -0.12405,-0.01383 -0.134766,0.192549 -0.134766,1.222656 0,1.217816 0.01574,1.306854 0.320312,1.787109 0.176481,0.278282 0.493117,0.594216 0.703126,0.701172 0.529526,0.269681 1.400993,0.200064 1.875003,-0.150391 0.62174,-0.459668 0.810539,-1.020216 0.810539,-2.408203 0,-1.110407 -0.01718,-1.206455 -0.19726,-1.134765 -0.55768,0.222009 -1.654415,0.313616 -2.371095,0.199218 -0.411666,-0.06571 -0.837094,-0.155459 -0.945312,-0.199218 -0.02257,-0.0091 -0.04282,-0.0156 -0.06054,-0.01758 z" />
    <path
       id="path4"
       style="fill:#f9f9f9;stroke-width:0.112434"
       d="m 20.820306,20.171653 c -0.02625,-1.96e-4 -0.05196,8.27e-4 -0.07812,0.002 -0.61184,0.02633 -1.197047,0.414208 -1.554687,1.115234 -0.157329,0.308391 -0.21875,0.657888 -0.21875,1.230469 v 0.800781 l 0.365234,-0.09375 c 0.200976,-0.05129 0.869901,-0.0918 1.488281,-0.0918 0.618389,0 1.289258,0.04051 1.490234,0.0918 l 0.365235,0.09375 v -0.798828 c 0,-0.958112 -0.168416,-1.409673 -0.705078,-1.880859 -0.356953,-0.313408 -0.758645,-0.465836 -1.152344,-0.46875 z m 10.896484,0.002 c -0.387335,0.0061 -0.781475,0.156132 -1.130859,0.46289 -0.720466,0.632603 -0.710938,0.55491 -0.710938,6.160157 v 5.076172 l 0.308594,-0.07618 c 0.67566,-0.167343 2.331547,-0.187583 2.837887,-0.03516 l 0.505859,0.152344 0.0293,-5.095703 c 0.02798,-4.875302 0.02014,-5.112676 -0.19141,-5.527344 -0.37595,-0.736917 -1.00287,-1.12727 -1.648433,-1.117187 z m 10.927735,0.002 c -0.395296,0.0012 -0.798501,0.150261 -1.152338,0.460936 -0.648879,0.569702 -0.712894,0.840441 -0.712894,3.06836 0,1.794219 0.01825,1.97631 0.185543,1.912109 0.725989,-0.278635 2.323268,-0.280003 3.27149,-0.002 l 0.253902,0.07422 -0.0022,-1.951172 c -0.0022,-1.650844 -0.03454,-2.024038 -0.208989,-2.408203 -0.34045,-0.749485 -0.975942,-1.156369 -1.634767,-1.154297 z M 20.720696,24.13259 c -0.190439,0.0051 -0.382814,0.02487 -0.576172,0.06054 -1.39974,0.258228 -2.57411,1.164997 -3.179686,2.457032 -0.260561,0.55591 -0.302736,0.789308 -0.302736,1.71289 0,0.915634 0.04226,1.156907 0.29297,1.691406 0.505409,1.077555 1.192941,1.726104 2.33789,2.208985 0.538273,0.226966 0.779138,0.261398 1.648437,0.230469 0.838913,-0.02985 1.131715,-0.09201 1.658204,-0.34961 1.206184,-0.590127 2.047205,-1.688799 2.326171,-3.039062 0.514777,-2.491634 -1.573131,-4.917066 -4.015625,-4.972656 -0.06317,-0.0014 -0.125973,-0.0016 -0.189453,0 z m 21.976563,2.292969 c -1.055285,-0.0065 -2.128155,0.390103 -2.984375,1.232421 -0.60953,0.599639 -1.00706,1.369292 -1.197271,2.316407 -0.420949,2.096142 1.25993,4.42137 3.462906,4.791015 0.299871,0.05033 0.572418,0.09816 0.60742,0.105468 0.03498,0.0073 0.362507,-0.04207 0.726552,-0.109373 1.413808,-0.261353 2.580382,-1.158523 3.1836,-2.445312 0.258115,-0.550583 0.298826,-0.783422 0.298826,-1.705077 0,-0.921656 -0.0407,-1.156451 -0.298826,-1.707031 -0.749529,-1.598894 -2.256498,-2.468959 -3.798832,-2.478516 z m -10.914063,6.265625 c -0.981254,0 -1.131905,0.02955 -1.818358,0.367187 -2.578358,1.268205 -3.197683,4.512253 -1.269532,6.646485 0.430568,0.476583 1.478368,1.07902 2.148437,1.236328 1.85163,0.434685 3.864231,-0.559979 4.74023,-2.34375 0.270651,-0.550966 0.30469,-0.750376 0.30469,-1.746094 0,-0.985391 -0.03589,-1.204334 -0.300779,-1.769531 -0.386171,-0.823953 -1.26588,-1.70173 -2.089841,-2.087892 -0.55834,-0.261668 -0.788619,-0.302733 -1.714847,-0.302733 z m -12.675781,0.542969 c -0.128726,0.03485 -0.141324,0.850393 -0.115234,5.55078 l 0.03125,5.615234 0.298828,0.451173 c 0.163825,0.247492 0.466621,0.535028 0.673829,0.640624 0.507438,0.258608 1.406927,0.194919 1.867186,-0.132811 0.190003,-0.135295 0.451093,-0.464021 0.580079,-0.73047 0.227917,-0.470802 0.234374,-0.63948 0.234374,-5.970703 0,-4.982769 -0.01626,-5.478726 -0.179687,-5.416015 -0.09896,0.03797 -0.522732,0.126172 -0.941406,0.195313 -0.716958,0.118405 -1.832531,0.02498 -2.421876,-0.201173 -0.0097,-0.0037 -0.01875,-0.0043 -0.02735,-0.002 z m 21.671878,2.306639 v 4.341797 c 0,4.12238 0.01275,4.364116 0.226562,4.783204 0.12386,0.242786 0.41393,0.569859 0.644534,0.726563 0.928202,0.63073 2.297066,0.13294 2.720698,-0.988282 0.07689,-0.203389 0.119141,-1.843351 0.119141,-4.589843 v -4.273439 l -0.365233,0.09179 c -0.472857,0.120681 -2.50567,0.120681 -2.978516,0 z m -10.769534,6.238283 c -0.12405,-0.01383 -0.134766,0.192548 -0.134766,1.222656 0,1.217816 0.01574,1.306853 0.320312,1.787109 0.176481,0.278281 0.493117,0.594216 0.703126,0.701172 0.529526,0.26968 1.400993,0.200064 1.875003,-0.150391 0.62174,-0.459668 0.810539,-1.020216 0.810539,-2.408204 0,-1.110407 -0.01718,-1.206454 -0.19726,-1.134764 -0.55768,0.222009 -1.654415,0.313616 -2.371095,0.199218 -0.411666,-0.06571 -0.837094,-0.155459 -0.945312,-0.199218 -0.02257,-0.0091 -0.04282,-0.0156 -0.06054,-0.01758 z" />
  </g>
</svg>
