<?xml version="1.0" encoding="UTF-8" standalone="no"?>
<svg
   width="64"
   height="64"
   version="1.1"
   id="svg73"
   sodipodi:docname="kalgebra.svg"
   inkscape:version="1.3.2 (091e20ef0f, 2023-11-25)"
   xmlns:inkscape="http://www.inkscape.org/namespaces/inkscape"
   xmlns:sodipodi="http://sodipodi.sourceforge.net/DTD/sodipodi-0.dtd"
   xmlns:xlink="http://www.w3.org/1999/xlink"
   xmlns="http://www.w3.org/2000/svg"
   xmlns:svg="http://www.w3.org/2000/svg"
   xmlns:rdf="http://www.w3.org/1999/02/22-rdf-syntax-ns#"
   xmlns:cc="http://creativecommons.org/ns#"
   xmlns:dc="http://purl.org/dc/elements/1.1/">
  <metadata
     id="metadata77">
    <rdf:RDF>
      <cc:Work
         rdf:about="">
        <dc:format>image/svg+xml</dc:format>
        <dc:type
           rdf:resource="http://purl.org/dc/dcmitype/StillImage" />
      </cc:Work>
    </rdf:RDF>
  </metadata>
  <sodipodi:namedview
     pagecolor="#f5f7fa"
     bordercolor="#666666"
     borderopacity="1"
     objecttolerance="10"
     gridtolerance="10"
     guidetolerance="10"
     inkscape:pageopacity="0"
     inkscape:pageshadow="2"
     inkscape:window-width="1377"
     inkscape:window-height="886"
     id="namedview75"
     showgrid="false"
     inkscape:zoom="6.2890624"
     inkscape:cx="30.370187"
     inkscape:cy="42.057143"
     inkscape:window-x="352"
     inkscape:window-y="126"
     inkscape:window-maximized="0"
     inkscape:current-layer="g877"
     inkscape:document-rotation="0"
     inkscape:pagecheckerboard="0"
     inkscape:showpageshadow="2"
     inkscape:deskcolor="#d1d1d1" />
  <defs
     id="defs29">
    <linearGradient
       id="linearGradient5"
       inkscape:collect="always">
      <stop
         style="stop-color:#984859;stop-opacity:1;"
         offset="0"
         id="stop5" />
      <stop
         style="stop-color:#bf7384;stop-opacity:1;"
         offset="1"
         id="stop6" />
    </linearGradient>
    <inkscape:path-effect
       effect="powerclip"
       id="path-effect1980"
       is_visible="true"
       lpeversion="1"
       inverse="true"
       flatten="false"
       hide_clip="false"
       message="Use fill-rule evenodd on &lt;b&gt;fill and stroke&lt;/b&gt; dialog if no flatten result after convert clip to paths." />
    <clipPath
       clipPathUnits="userSpaceOnUse"
       id="clipPath1976">
      <rect
         x="9.6784649"
         y="9.925169"
         width="43.343258"
         height="44.613056"
         rx="8.6689987"
         ry="8.9229689"
         fill="url(#linearGradient862)"
         stroke-width="2.96772"
         id="rect1978"
         style="display:none;fill:#333333;fill-opacity:1"
         d="m 18.347464,9.925169 h 26.00526 c 4.802625,0 8.668999,3.979644 8.668999,8.922969 v 26.767118 c 0,4.943325 -3.866374,8.922969 -8.668999,8.922969 h -26.00526 c -4.802626,0 -8.6689991,-3.979644 -8.6689991,-8.922969 V 18.848138 c 0,-4.943325 3.8663731,-8.922969 8.6689991,-8.922969 z" />
      <path
         id="lpe_path-effect1980"
         style="fill:#333333;fill-opacity:1"
         class="powerclip"
         d="M 2.0757722,2.2464043 H 60.623896 V 62.216811 H 2.0757722 Z M 18.347464,9.925169 c -4.802626,0 -8.6689991,3.979644 -8.6689991,8.922969 v 26.767118 c 0,4.943325 3.8663731,8.922969 8.6689991,8.922969 h 26.00526 c 4.802625,0 8.668999,-3.979644 8.668999,-8.922969 V 18.848138 c 0,-4.943325 -3.866374,-8.922969 -8.668999,-8.922969 z" />
    </clipPath>
    <linearGradient
       inkscape:collect="always"
       xlink:href="#linearGradient5"
       id="linearGradient6"
       x1="33.785751"
       y1="12.971354"
       x2="33.375801"
       y2="52.289253"
       gradientUnits="userSpaceOnUse"
       gradientTransform="matrix(1.1,0,0,1.1,-3.1845928,-3.2341119)" />
    <linearGradient
       id="d"
       y1="1050.34"
       y2="1038.36"
       gradientUnits="userSpaceOnUse"
       x2="0"
       gradientTransform="matrix(-2.5774727,0,0,2.5806818,51.999856,-2661.7402)">
      <stop
         stop-color="#c61423"
         id="stop7" />
      <stop
         offset="1"
         stop-color="#dc2b41"
         id="stop8" />
    </linearGradient>
  </defs>
  <g
     id="g877"
     transform="matrix(1.1,0,0,1.1,-3.1845928,-3.2065454)">
    <path
       d="m 18.347203,7.2464043 c -6.244452,0 -11.2714308,5.1741617 -11.2714308,11.6016437 v 26.767119 c 0,6.427394 5.0268918,11.601644 11.2714308,11.601644 h 26.005262 c 6.244452,0 11.271431,-5.174161 11.271431,-11.601644 V 18.848048 c 0,-6.427393 -5.026893,-11.6016437 -11.271431,-11.6016437 z"
       fill="url(#linearGradient910)"
       stroke-width="3.32418"
       id="path33"
       style="fill:#4d4d4d;fill-opacity:1"
       clip-path="url(#clipPath1976)"
       inkscape:path-effect="#path-effect1980"
       inkscape:original-d="m 18.347203,7.2464043 c -6.244452,0 -11.2714308,5.1741617 -11.2714308,11.6016437 v 26.767119 c 0,6.427394 5.0268918,11.601644 11.2714308,11.601644 h 26.005262 c 6.244452,0 11.271431,-5.174161 11.271431,-11.601644 V 18.848048 c 0,-6.427393 -5.026893,-11.6016437 -11.271431,-11.6016437 z"
       transform="matrix(1.089,0,0,1.089,-2.2940414,-2.7591018)" />
    <rect
       x="8.245779"
       y="8.0493994"
       width="47.200809"
       height="48.583622"
       rx="9.511797"
       ry="9.6776171"
       fill="url(#linearGradient862)"
       stroke-width="3.23184"
       id="rect35-7"
       style="opacity:1;fill:#f9f9f9;fill-opacity:1" />
    <rect
       x="10.60582"
       y="10.47858"
       width="42.480732"
       height="43.725258"
       rx="9.0337515"
       ry="8.819849"
       fill="url(#linearGradient862)"
       stroke-width="2.90867"
       id="rect35-7-3"
       style="fill:url(#linearGradient6)" />
    <path
       style="fill:#000000;stroke-width:0.818182;opacity:0.2"
       d="m 20.524203,19.444721 1.394709,3.274361 3.410143,3.895096 c -1.105675,0.174582 -2.089148,0.471368 -3.016365,0.826348 -0.523745,0.252176 -1.02421,0.523745 -1.303541,1.076586 l -0.849627,1.1783 c -0.273511,0.552842 -0.853506,0.644234 -1.421864,1.092324 l -2.327744,1.817582 c 0.463608,0.225014 0.878723,0.519859 1.260862,0.869024 -0.411236,-0.226958 -0.810832,-0.465553 -1.289959,-0.591636 -0.333644,-0.05238 -0.663408,-0.0485 -0.967956,0.193978 -0.273509,0.226954 -0.242472,0.611034 -0.186219,0.969892 0.104739,0.554784 0.568359,1.047486 1.095981,1.419926 0.490767,0.219198 0.942737,0.106708 1.37725,-0.149384 0.376318,-0.349162 0.529561,-0.962136 0.483006,-1.800126 0.27157,-0.05042 0.211436,1.565408 0.259933,1.38113 0.02521,-0.09892 3.990141,-2.409054 5.039569,-2.655408 1.070762,-0.275452 2.74092,0.313388 3.949406,-0.06314 0.750698,-0.240534 1.29966,-0.483169 1.765208,-1.198952 l -0.37438,0.795314 c -0.27991,0.452485 -0.718372,0.784441 -1.229826,0.931096 l -0.942912,7.161697 -0.01326,6.925045 -1.065359,1.745812 0.797251,-0.02713 0.849629,-1.123138 -0.624613,1.344271 c 0,0 4.087134,-0.273505 4.087134,-0.244415 0,0.02911 -1.260864,-8.282888 -1.260864,-8.282888 0,0 1.365611,-1.526615 1.394709,-1.547952 0.02911,-0.02327 5.158489,1.675976 5.158489,1.675976 l -0.764277,-0.902 -0.628492,-0.347224 0.762339,0.25217 c 0,0 1.771023,2.14541 1.778784,2.176446 0.0076,0.02912 0.316185,-0.38602 0.316185,-0.38602 l -1.854435,7.526376 2.463529,0.839932 -0.07762,-1.150298 0.589695,1.427684 0.905881,0.0601 -0.612974,-1.487816 1.066885,1.295774 0.585817,-0.116378 -1.055247,-1.518856 1.231766,-7.332399 -1.419923,-1.121199 -1.099861,-1.474234 1.041667,1.061062 -1.128957,-1.608086 -0.08922,-2.124066 0.395716,1.829218 0.426754,-1.503334 -0.221137,1.755508 0.82053,1.800122 1.64106,1.222066 -0.03102,0.281272 1.2919,-0.473314 0.83411,-1.885472 0.07178,-1.16775 0.120273,1.183272 c 0,0 -0.717721,1.738044 -0.717721,1.798181 0,0.0582 0.936918,-0.886483 0.936918,-0.886483 l -1.028088,1.210429 1.643,2.963998 0.556718,3.231682 0.409296,-0.292905 -0.08732,0.11641 -1.319054,1.72253 0.865142,-0.18816 0.335586,-0.531502 -0.14742,0.647891 0.308427,0.01522 -0.07178,0.708022 0.64401,-0.576117 0.48107,0.149384 0.149383,-0.859326 v 0.872906 l 0.451971,-0.08922 0.219194,0.737122 0.321926,-0.9291 0.630203,-0.02889 C 47.314649,43.67656 46.519333,39.370996 46.305959,34.80862 46.282689,33.939591 45.55332,32.40328 44.767707,31.39847 43.850189,30.341283 41.97635,28.08143 39.316903,27.447122 c -1.450961,-0.17264 -2.92908,0.06208 -4.539102,0.587752 -1.423808,0.417057 -2.894167,0.668466 -4.492552,1.434679 0.376318,0.616855 0.874844,1.222067 1.724475,1.939788 0.265752,0.259931 0.744877,0.331705 1.216245,0.294849 -0.325885,0.116428 -0.661466,0.213376 -1.012568,0.02911 -0.572242,-0.387957 -1.043608,-0.872905 -1.493639,-1.38501 -0.273808,-0.339773 -0.505062,-0.711739 -0.688626,-1.107617 -0.271569,-0.616852 0.04852,-1.40053 0.572238,-2.242396 0.475251,-0.583876 0.998992,-1.154176 2.063937,-1.563468 0.958255,-0.38214 1.920389,-0.764277 2.83015,-1.268623 1.028086,-0.667289 2.669146,-2.793297 3.542052,-4.279173 -2.37818,0.872904 -4.75442,1.571229 -7.119022,2.963995 -0.884544,0.607153 -1.751627,1.54795 -2.63617,2.521725 -0.376323,0.426752 -0.783679,0.82635 -1.319055,1.109558 -0.735182,0.393776 -1.241467,0.0194 -1.580929,-0.281268 -0.526142,-0.569436 -0.992205,-1.191512 -1.390878,-1.856397 -0.523742,-0.717721 -1.072703,-1.437383 -1.875776,-2.155104 -0.923338,-0.857387 -1.755505,-1.846679 -2.593494,-2.7448 z m 15.044994,2.352963 -2.094972,2.543061 1.421868,-0.492705 -2.861192,1.402466 z m -9.937533,5.309202 c 0.184281,-0.004 0.368559,0 0.547019,0.0194 -1.158052,0.08922 -1.687614,0.289029 -2.692422,0.805014 0.36856,-0.281271 0.576116,-0.490769 1.239522,-0.717721 0.290966,-0.06404 0.599396,-0.100882 0.905881,-0.106707 z m 0.322003,1.598382 c 0.572236,0.0093 0.9602,0.261872 0.9602,0.261872 -1.268622,-0.3414 -1.965006,-0.0582 -2.50815,0.772036 -0.06402,-0.05238 0.360805,-0.773974 0.923338,-0.94468 0.22502,-0.0679 0.434514,-0.09308 0.624612,-0.08922 z m -0.09702,0.426756 c 0.120372,-0.005 0.240882,0.0048 0.35886,0.02911 0.236654,0.08338 0.345282,0.259928 0.461672,0.426753 -0.246356,-0.217258 -0.500466,-0.38796 -0.808894,-0.30843 0.349163,0.0388 0.479128,0.257993 0.529562,0.545083 0.04268,0.386015 -0.289029,0.612972 -0.510166,0.645945 -0.221132,0.03298 -0.504344,-0.02326 -0.667288,-0.261869 -0.04656,-0.09702 -0.170696,-0.453911 0.02713,-0.708022 -0.216077,0.08792 -0.414523,0.214077 -0.585815,0.37244 0.149384,-0.217257 0.331706,-0.387961 0.607158,-0.570297 0.179239,-0.10386 0.380824,-0.163064 0.587751,-0.172642 z m -9.361416,4.359774 c 0.296787,0.351102 0.585816,0.688624 0.727421,1.154174 0.01939,0.430636 -0.170702,0.420934 -0.356921,0.418994 -0.155182,-0.0018 -0.450031,-0.17846 -0.354982,-0.322004 0.09175,-0.186396 0.130663,-0.394374 0.112513,-0.601334 z m -1.08628,0.106707 c 0.232774,0.244413 0.461669,0.407358 0.504343,0.748759 0.01746,0.08148 0.03299,0.283212 -0.128027,0.252176 -0.469412,-0.444231 -0.186202,-0.395734 -0.374363,-1.00095 z"
       id="path3-7-7" />
    <path
       style="fill:#f9f9f9;stroke-width:0.818182"
       d="m 20.524203,17.626539 1.394709,3.274361 3.410143,3.895096 c -1.105675,0.174582 -2.089148,0.471368 -3.016365,0.826348 -0.523745,0.252176 -1.02421,0.523745 -1.303541,1.076586 l -0.849627,1.1783 c -0.273511,0.552842 -0.853506,0.644234 -1.421864,1.092324 l -2.327744,1.817582 c 0.463608,0.225014 0.878723,0.519859 1.260862,0.869024 -0.411236,-0.226958 -0.810832,-0.465553 -1.289959,-0.591636 -0.333644,-0.05238 -0.663408,-0.0485 -0.967956,0.193978 -0.273509,0.226954 -0.242472,0.611034 -0.186219,0.969892 0.104739,0.554784 0.568359,1.047486 1.095981,1.419926 0.490767,0.219198 0.942737,0.106708 1.37725,-0.149384 0.376318,-0.349162 0.529561,-0.962136 0.483006,-1.800126 0.27157,-0.05042 0.211436,1.565408 0.259933,1.38113 0.02521,-0.09892 3.990141,-2.409054 5.039569,-2.655408 1.070762,-0.275452 2.74092,0.313388 3.949406,-0.06314 0.750698,-0.240534 1.29966,-0.483169 1.765208,-1.198952 l -0.37438,0.795314 c -0.27991,0.452485 -0.718372,0.784441 -1.229826,0.931096 l -0.942912,7.161697 -0.01326,6.925045 -1.065359,1.745812 0.797251,-0.02713 0.849629,-1.123138 -0.624613,1.344271 c 0,0 4.087134,-0.273505 4.087134,-0.244415 0,0.02911 -1.260864,-8.282888 -1.260864,-8.282888 0,0 1.365611,-1.526615 1.394709,-1.547952 0.02911,-0.02327 5.158489,1.675976 5.158489,1.675976 l -0.764277,-0.902 -0.628492,-0.347224 0.762339,0.25217 c 0,0 1.771023,2.14541 1.778784,2.176446 0.0076,0.02912 0.316185,-0.38602 0.316185,-0.38602 l -1.854435,7.526376 2.463529,0.839932 -0.07762,-1.150298 0.589695,1.427684 0.905881,0.0601 -0.612974,-1.487816 1.066885,1.295774 0.585817,-0.116378 -1.055247,-1.518856 1.231766,-7.332399 -1.419923,-1.121199 -1.099861,-1.474234 1.041667,1.061062 -1.128957,-1.608086 -0.08922,-2.124066 0.395716,1.829218 0.426754,-1.503334 -0.221137,1.755508 0.82053,1.800122 1.64106,1.222066 -0.03102,0.281272 1.2919,-0.473314 0.83411,-1.885472 0.07178,-1.16775 0.120273,1.183272 c 0,0 -0.717721,1.738044 -0.717721,1.798181 0,0.0582 0.936918,-0.886483 0.936918,-0.886483 l -1.028088,1.210429 1.643,2.963998 0.556718,3.231682 0.409296,-0.292905 -0.08732,0.11641 -1.319054,1.72253 0.865142,-0.18816 0.335586,-0.531502 -0.14742,0.647891 0.308427,0.01522 -0.07178,0.708022 0.64401,-0.576117 0.48107,0.149384 0.149383,-0.859326 v 0.872906 l 0.451971,-0.08922 0.219194,0.737122 0.321926,-0.9291 0.630203,-0.02889 c -0.601313,-4.562378 -1.396629,-8.867942 -1.610003,-13.430318 -0.02327,-0.869029 -0.752639,-2.40534 -1.538252,-3.41015 -0.917518,-1.057187 -2.791357,-3.31704 -5.450804,-3.951348 -1.450961,-0.17264 -2.92908,0.06208 -4.539102,0.587752 -1.423808,0.417057 -2.894167,0.668466 -4.492552,1.434679 0.376318,0.616855 0.874844,1.222067 1.724475,1.939788 0.265752,0.259931 0.744877,0.331705 1.216245,0.294849 -0.325885,0.116428 -0.661466,0.213376 -1.012568,0.02911 -0.572242,-0.387957 -1.043608,-0.872905 -1.493639,-1.38501 -0.273808,-0.339773 -0.505062,-0.711739 -0.688626,-1.107617 -0.271569,-0.616852 0.04852,-1.40053 0.572238,-2.242396 0.475251,-0.583876 0.998992,-1.154176 2.063937,-1.563468 0.958255,-0.38214 1.920389,-0.764277 2.83015,-1.268623 1.028086,-0.667289 2.669146,-2.793297 3.542052,-4.279173 -2.37818,0.872904 -4.75442,1.571229 -7.119022,2.963995 -0.884544,0.607153 -1.751627,1.54795 -2.63617,2.521725 -0.376323,0.426752 -0.783679,0.82635 -1.319055,1.109558 -0.735182,0.393776 -1.241467,0.0194 -1.580929,-0.281268 -0.526142,-0.569436 -0.992205,-1.191512 -1.390878,-1.856397 -0.523742,-0.717721 -1.072703,-1.437383 -1.875776,-2.155104 -0.923338,-0.857387 -1.755505,-1.846679 -2.593494,-2.7448 z m 15.044994,2.352963 -2.094972,2.543061 1.421868,-0.492705 -2.861192,1.402466 z m -9.937533,5.309202 c 0.184281,-0.004 0.368559,0 0.547019,0.0194 -1.158052,0.08922 -1.687614,0.289029 -2.692422,0.805014 0.36856,-0.281271 0.576116,-0.490769 1.239522,-0.717721 0.290966,-0.06404 0.599396,-0.100882 0.905881,-0.106707 z m 0.322003,1.598382 c 0.572236,0.0093 0.9602,0.261872 0.9602,0.261872 -1.268622,-0.3414 -1.965006,-0.0582 -2.50815,0.772036 -0.06402,-0.05238 0.360805,-0.773974 0.923338,-0.94468 0.22502,-0.0679 0.434514,-0.09308 0.624612,-0.08922 z m -0.09702,0.426756 c 0.120372,-0.005 0.240882,0.0048 0.35886,0.02911 0.236654,0.08338 0.345282,0.259928 0.461672,0.426753 -0.246356,-0.217258 -0.500466,-0.38796 -0.808894,-0.30843 0.349163,0.0388 0.479128,0.257993 0.529562,0.545083 0.04268,0.386015 -0.289029,0.612972 -0.510166,0.645945 -0.221132,0.03298 -0.504344,-0.02326 -0.667288,-0.261869 -0.04656,-0.09702 -0.170696,-0.453911 0.02713,-0.708022 -0.216077,0.08792 -0.414523,0.214077 -0.585815,0.37244 0.149384,-0.217257 0.331706,-0.387961 0.607158,-0.570297 0.179239,-0.10386 0.380824,-0.163064 0.587751,-0.172642 z m -9.361416,4.359774 c 0.296787,0.351102 0.585816,0.688624 0.727421,1.154174 0.01939,0.430636 -0.170702,0.420934 -0.356921,0.418994 -0.155182,-0.0018 -0.450031,-0.17846 -0.354982,-0.322004 0.09175,-0.186396 0.130663,-0.394374 0.112513,-0.601334 z m -1.08628,0.106707 c 0.232774,0.244413 0.461669,0.407358 0.504343,0.748759 0.01746,0.08148 0.03299,0.283212 -0.128027,0.252176 -0.469412,-0.444231 -0.186202,-0.395734 -0.374363,-1.00095 z"
       id="path3-7" />
    <g
       id="g13"
       transform="matrix(0.59645455,0,0,0.59645455,13.921578,17.032047)" />
    <path
       style="fill:#f5f7fa;stroke-width:0.204426;fill-opacity:1"
       d=""
       id="path3" />
  </g>
</svg>
