
<svg xmlns="http://www.w3.org/2000/svg" xmlns:xlink="http://www.w3.org/1999/xlink" width="16px" height="16px" viewBox="0 0 16 16" version="1.1"><defs><linearGradient id="linear0" x1="0%" x2="100%" y1="0%" y2="100%"><stop offset="0%" style="stop-color:#ff0000; stop-opacity:1"/><stop offset="50%" style="stop-color:#ffd000; stop-opacity:1"/><stop offset="100%" style="stop-color:#ff00bb; stop-opacity:1"/></linearGradient></defs>
<g id="surface1">
<path style=" stroke:none;fill-rule:nonzero;fill:url(#linear0);fill-opacity:1;" d="M 1 0 L 1 16 L 10.75 16 L 15 11.75 L 15 0 Z M 2 1 L 14 1 L 14 11 L 10 11 L 10 15 L 2 15 Z M 4 3 L 4 4 L 12 4 L 12 3 Z M 4 5 L 4 6 L 12 6 L 12 5 Z M 4 7 L 4 8 L 12 8 L 12 7 Z M 4 9 L 4 10 L 7 10 L 7 9 Z M 4 9 "/>
</g>
</svg>
