
<svg xmlns="http://www.w3.org/2000/svg" xmlns:xlink="http://www.w3.org/1999/xlink" width="16px" height="16px" viewBox="0 0 16 16" version="1.1"><defs><linearGradient id="linear0" x1="0%" x2="100%" y1="0%" y2="100%"><stop offset="0%" style="stop-color:#e5ff00; stop-opacity:1"/><stop offset="50%" style="stop-color:#0073ff; stop-opacity:1"/><stop offset="100%" style="stop-color:#ff0000; stop-opacity:1"/></linearGradient></defs>
<g id="surface1">
<path style=" stroke:none;fill-rule:nonzero;fill:url(#linear0);fill-opacity:1;" d="M 3.992188 1 C 2.734375 1.015625 1.816406 0.96875 1.0625 1.386719 C 0.6875 1.59375 0.390625 1.945312 0.226562 2.382812 C 0.0585938 2.820312 0 3.34375 0 4 L 0 12 C 0 12.65625 0.0585938 13.179688 0.226562 13.617188 C 0.390625 14.054688 0.6875 14.40625 1.0625 14.613281 C 1.816406 15.027344 2.734375 14.984375 3.992188 15 L 12.007812 15 C 13.265625 14.984375 14.183594 15.03125 14.9375 14.613281 C 15.3125 14.40625 15.609375 14.054688 15.777344 13.617188 C 15.941406 13.179688 16 12.65625 16 12 L 16 4 C 16 3.34375 15.941406 2.820312 15.773438 2.382812 C 15.609375 1.945312 15.3125 1.59375 14.9375 1.386719 C 14.183594 0.972656 13.265625 1.015625 12.007812 1 Z M 4 2 L 12 2 C 13.257812 2.015625 14.089844 2.058594 14.457031 2.261719 C 14.636719 2.363281 14.742188 2.472656 14.839844 2.734375 C 14.9375 2.996094 15 3.40625 15 4 L 15 12 C 15 12.59375 14.9375 13.003906 14.839844 13.265625 C 14.742188 13.527344 14.636719 13.636719 14.457031 13.738281 C 14.089844 13.941406 13.257812 13.984375 12 14 L 4 14 C 2.742188 13.984375 1.910156 13.941406 1.542969 13.738281 C 1.363281 13.636719 1.257812 13.527344 1.160156 13.265625 C 1.0625 13.003906 1 12.59375 1 12 L 1 4 C 1 3.40625 1.0625 2.996094 1.160156 2.734375 C 1.257812 2.472656 1.363281 2.363281 1.542969 2.261719 C 1.910156 2.058594 2.742188 2.015625 4 2 Z M 4 2 "/>
<use xlink:href="#surface12" mask="url(#mask0)"/>
<path style=" stroke:none;fill-rule:nonzero;fill:url(#linear0);fill-opacity:1;" d="M 11.25 12 L 13.75 12 C 13.886719 12 14 12.113281 14 12.25 L 14 12.75 C 14 12.886719 13.886719 13 13.75 13 L 11.25 13 C 11.113281 13 11 12.886719 11 12.75 L 11 12.25 C 11 12.113281 11.113281 12 11.25 12 Z M 11.25 12 "/>
<path style=" stroke:none;fill-rule:nonzero;fill:url(#linear0);fill-opacity:1;" d="M 11.25 10 L 13.75 10 C 13.886719 10 14 10.113281 14 10.25 L 14 10.75 C 14 10.886719 13.886719 11 13.75 11 L 11.25 11 C 11.113281 11 11 10.886719 11 10.75 L 11 10.25 C 11 10.113281 11.113281 10 11.25 10 Z M 11.25 10 "/>
<path style=" stroke:none;fill-rule:nonzero;fill:url(#linear0);fill-opacity:1;" d="M 5 1 L 5 4.996094 L 2.523438 4.996094 C 2.523438 4.996094 4.855469 8.960938 8 13.328125 C 11.140625 8.964844 13.476562 5 13.476562 5 L 11 5 L 11 1 Z M 6 2 L 10 2 L 10 6 L 11.535156 6 C 10.859375 7.351562 9.941406 8.628906 8 11.515625 C 6.058594 8.628906 5.140625 7.347656 4.464844 5.996094 L 6 5.996094 Z M 6 2 "/>
</g>
</svg>
