
<svg xmlns="http://www.w3.org/2000/svg" xmlns:xlink="http://www.w3.org/1999/xlink" width="16px" height="16px" viewBox="0 0 16 16" version="1.1"><defs><linearGradient id="linear0" x1="0%" x2="0%" y1="0%" y2="100%"><stop offset="0%" style="stop-color:#ffd000; stop-opacity:1"/><stop offset="50%" style="stop-color:#24dbdb; stop-opacity:1"/><stop offset="100%" style="stop-color:#0073ff; stop-opacity:1"/></linearGradient></defs>
<g id="surface1">
<path style=" stroke:none;fill-rule:nonzero;fill:url(#linear0);fill-opacity:1;" d="M 16 0.570312 L 16 15.429688 L 0 15.429688 L 0 0.570312 M 14.855469 1.714844 L 6.855469 1.714844 L 6.855469 5.144531 L 14.855469 5.144531 M 5.714844 1.714844 L 1.144531 1.714844 L 1.144531 5.144531 L 5.714844 5.144531 M 14.855469 6.285156 L 6.855469 6.285156 L 6.855469 9.714844 L 14.855469 9.714844 M 5.714844 6.285156 L 1.144531 6.285156 L 1.144531 9.714844 L 5.714844 9.714844 M 14.855469 10.855469 L 6.855469 10.855469 L 6.855469 14.285156 L 14.855469 14.285156 M 5.714844 10.855469 L 1.144531 10.855469 L 1.144531 14.285156 L 5.714844 14.285156 "/>
</g>
</svg>
