
<svg xmlns="http://www.w3.org/2000/svg" xmlns:xlink="http://www.w3.org/1999/xlink" width="16px" height="16px" viewBox="0 0 16 16" version="1.1"><defs><linearGradient id="linear0" x1="0%" x2="0%" y1="0%" y2="100%"><stop offset="0%" style="stop-color:#00b54e; stop-opacity:1"/><stop offset="50%" style="stop-color:#ffd000; stop-opacity:1"/><stop offset="100%" style="stop-color:#ff00bb; stop-opacity:1"/></linearGradient></defs>
<g id="surface1">
<use xlink:href="#surface12" mask="url(#mask0)"/>
<path style=" stroke:none;fill-rule:nonzero;fill:url(#linear0);fill-opacity:1;" d="M 11.167969 13.835938 C 11.167969 15.011719 9.734375 15.96875 7.96875 15.96875 C 6.203125 15.96875 4.769531 15.011719 4.769531 13.835938 C 4.769531 12.65625 6.203125 11.703125 7.96875 11.703125 C 9.734375 11.703125 11.167969 12.65625 11.167969 13.835938 Z M 11.167969 13.835938 "/>
<path style=" stroke:none;fill-rule:nonzero;fill:url(#linear0);fill-opacity:1;" d="M 6.367188 7.96875 C 6.367188 8.851562 5.652344 9.570312 4.769531 9.570312 C 3.886719 9.570312 3.167969 8.851562 3.167969 7.96875 C 3.167969 7.085938 3.886719 6.367188 4.769531 6.367188 C 5.652344 6.367188 6.367188 7.085938 6.367188 7.96875 Z M 6.367188 7.96875 "/>
<path style=" stroke:none;fill-rule:nonzero;fill:url(#linear0);fill-opacity:1;" d="M 12.769531 7.96875 C 12.769531 8.851562 12.050781 9.570312 11.167969 9.570312 C 10.285156 9.570312 9.570312 8.851562 9.570312 7.96875 C 9.570312 7.085938 10.285156 6.367188 11.167969 6.367188 C 12.050781 6.367188 12.769531 7.085938 12.769531 7.96875 Z M 12.769531 7.96875 "/>
<use xlink:href="#surface24" mask="url(#mask1)"/>
</g>
</svg>
