<?xml version="1.0" encoding="UTF-8" standalone="no"?>
<svg
   height="16"
   width="16"
   version="1.1"
   id="svg3"
   sodipodi:docname="emblem-warning.svg"
   inkscape:version="1.3.2 (091e20ef0f, 2023-11-25)"
   xmlns:inkscape="http://www.inkscape.org/namespaces/inkscape"
   xmlns:sodipodi="http://sodipodi.sourceforge.net/DTD/sodipodi-0.dtd"
   xmlns:xlink="http://www.w3.org/1999/xlink"
   xmlns="http://www.w3.org/2000/svg"
   xmlns:svg="http://www.w3.org/2000/svg">
  <defs
     id="defs3">
    <linearGradient
       id="linearGradient5"
       inkscape:collect="always">
      <stop
         style="stop-color:#984859;stop-opacity:1;"
         offset="0"
         id="stop5" />
      <stop
         style="stop-color:#bf7384;stop-opacity:1;"
         offset="1"
         id="stop6" />
    </linearGradient>
    <linearGradient
       inkscape:collect="always"
       xlink:href="#linearGradient5"
       id="linearGradient7"
       x1="8.0464268"
       y1="1.0785286"
       x2="8.0661163"
       y2="14.996466"
       gradientUnits="userSpaceOnUse" />
  </defs>
  <sodipodi:namedview
     id="namedview3"
     pagecolor="#ffffff"
     bordercolor="#000000"
     borderopacity="0.25"
     inkscape:showpageshadow="2"
     inkscape:pageopacity="0.0"
     inkscape:pagecheckerboard="0"
     inkscape:deskcolor="#d1d1d1"
     inkscape:zoom="53.3125"
     inkscape:cx="11.01993"
     inkscape:cy="8"
     inkscape:window-width="1920"
     inkscape:window-height="1024"
     inkscape:window-x="0"
     inkscape:window-y="32"
     inkscape:window-maximized="1"
     inkscape:current-layer="svg3" />
  <style
     type="text/css"
     id="current-color-scheme">
        .ColorScheme-NeutralText {
            color:#f67400;
        }
        .ColorScheme-Text {
            color:#232629;
        }
    </style>
  <path
     style="fill:url(#linearGradient7);fill-opacity:1;stroke:none"
     class="ColorScheme-NeutralText"
     d="M8.008 0a1 1 0 0 0-.903.553l-7 14A1 1 0 0 0 1 16h14a1 1 0 0 0 .895-1.447l-7-14A1 1 0 0 0 8.008 0z"
     id="path1" />
  <path
     style="fill:#4d4d4d;fill-opacity:1;stroke:none"
     class="ColorScheme-Text"
     d="M8.008 0a1 1 0 0 0-.903.553l-7 14A1 1 0 0 0 1 16h14a1 1 0 0 0 .895-1.447l-7-14A1 1 0 0 0 8.008 0zM8 1l7 14H1z"
     id="path2" />
  <path
     d="M7 3v9h2V3zm0 10v2h2v-2z"
     fill="#fff"
     id="path3"
     style="fill:#f9f9f9" />
</svg>
