<?xml version="1.0" encoding="UTF-8" standalone="no"?>
<svg
   width="16"
   height="16"
   version="1.1"
   viewBox="0 0 16 16"
   id="svg1"
   sodipodi:docname="folder-torrent-symbolic.svg"
   inkscape:version="1.4.2 (unknown)"
   xmlns:inkscape="http://www.inkscape.org/namespaces/inkscape"
   xmlns:sodipodi="http://sodipodi.sourceforge.net/DTD/sodipodi-0.dtd"
   xmlns="http://www.w3.org/2000/svg"
   xmlns:svg="http://www.w3.org/2000/svg">
  <sodipodi:namedview
     id="namedview1"
     pagecolor="#ffffff"
     bordercolor="#000000"
     borderopacity="0.25"
     inkscape:showpageshadow="2"
     inkscape:pageopacity="0.0"
     inkscape:pagecheckerboard="0"
     inkscape:deskcolor="#d1d1d1"
     inkscape:zoom="48.4375"
     inkscape:cx="8"
     inkscape:cy="8"
     inkscape:window-width="1920"
     inkscape:window-height="998"
     inkscape:window-x="0"
     inkscape:window-y="0"
     inkscape:window-maximized="1"
     inkscape:current-layer="svg1" />
  <defs
     id="defs1">
    <style
       id="current-color-scheme"
       type="text/css">
   .ColorScheme-Text { color:#dedede; }
  </style>
  </defs>
  <path
     fill="currentColor"
     class="ColorScheme-Text"
     d="m 8.0000035,2 a 6,6 0 0 0 -6,6 6,6 0 0 0 6,6 6,6 0 0 0 3.9580095,-1.5 H 8.0000035 a 4.5,4.5 0 0 1 -4.5,-4.5 4.5,4.5 0 0 1 4.5,-4.5 v 0.75 a 3.75,3.75 0 0 0 -3.75,3.75 3.75,3.75 0 0 0 3.75,3.75 h 2.4814435 2.195801 A 6,6 0 0 0 13.189944,11 H 8.0000035 c -1.6568544,0 -3,-1.3431453 -3,-3 0,-1.6568544 1.3431456,-3 3,-3 0.2531393,9.277e-4 0.5051424,0.03392 0.75,0.098144 V 5.8818356 C 8.5093099,5.7956002 8.2556786,5.7510499 8.0000035,5.75 c -1.2426408,0 -2.25,1.0073592 -2.25,2.25 0,1.2426408 1.0073592,2.25 2.25,2.25 H 13.557625 A 6,6 0 0 0 13.800785,9.5 H 8.0000035 a 1.5,1.5 0 0 1 -1.5,-1.5 1.5,1.5 0 0 1 1.5,-1.5 1.5,1.5 0 0 1 1.2978518,0.75 H 8.0000035 a 0.75,0.75 0 0 0 -0.75,0.75 0.75,0.75 0 0 0 0.75,0.75 H 13.947267 A 6,6 0 0 0 13.999997,8 6,6 0 0 0 7.9999955,2 Z"
     id="path1"
     style="stroke-width:0.75" />
</svg>
