<svg xmlns="http://www.w3.org/2000/svg" xmlns:xlink="http://www.w3.org/1999/xlink" width="16" height="16" viewBox="0 0 16 16" version="1.1">
<g id="surface1">
<path style=" stroke:none;fill-rule:evenodd;fill:#565656;fill-opacity:1;" d="M 1.042969 8.058594 C 1.035156 8.804688 1.144531 9.542969 1.371094 10.246094 C 2.308594 13.136719 5.042969 15.097656 8.125 15.097656 C 11.214844 15.097656 13.945312 13.136719 14.878906 10.246094 C 15.808594 7.359375 14.714844 4.214844 12.1875 2.480469 L 11.03125 4.109375 C 12.839844 5.34375 13.617188 7.589844 12.949219 9.648438 C 12.285156 11.714844 10.332031 13.113281 8.125 13.109375 C 5.917969 13.113281 3.964844 11.714844 3.300781 9.648438 C 2.632812 7.589844 3.414062 5.34375 5.222656 4.109375 L 4.066406 2.480469 C 2.203125 3.753906 1.082031 5.832031 1.042969 8.058594 Z M 7.117188 1.1875 L 7.117188 8.140625 L 9.140625 8.140625 L 9.140625 0.9375 Z M 7.117188 1.1875 "/>
</g>
</svg>
