<svg xmlns="http://www.w3.org/2000/svg" xmlns:xlink="http://www.w3.org/1999/xlink" width="16" height="16" viewBox="0 0 16 16" version="1.1">
<g id="surface1">
<path style=" stroke:none;fill-rule:evenodd;fill:#565656;fill-opacity:1;" d="M 5.363281 7.953125 L 5.363281 14.546875 L 3.339844 13.800781 L 3.371094 7.988281 L 1.433594 8.019531 C 1.433594 8.019531 2.527344 4.640625 4.269531 1.566406 C 4.273438 1.566406 4.273438 1.566406 4.273438 1.566406 C 4.273438 1.566406 4.273438 1.5625 4.277344 1.5625 C 6.03125 4.417969 7.269531 7.921875 7.269531 7.921875 Z M 12.777344 8.046875 L 12.777344 1.453125 L 10.753906 2.199219 L 10.785156 8.011719 L 8.847656 7.980469 C 8.847656 7.980469 9.941406 11.359375 11.683594 14.433594 C 11.683594 14.433594 11.683594 14.4375 11.683594 14.4375 C 11.6875 14.4375 11.6875 14.4375 11.691406 14.4375 C 13.445312 11.582031 14.683594 8.078125 14.683594 8.078125 Z M 12.777344 8.046875 "/>
</g>
</svg>
