<?xml version="1.0" encoding="UTF-8" standalone="no"?>
<svg
   width="64"
   height="64"
   viewBox="0 0 64 64"
   fill="none"
   version="1.1"
   id="svg23"
   sodipodi:docname="folder-chameleon.svg"
   inkscape:version="1.4.2 (unknown)"
   xmlns:inkscape="http://www.inkscape.org/namespaces/inkscape"
   xmlns:sodipodi="http://sodipodi.sourceforge.net/DTD/sodipodi-0.dtd"
   xmlns:xlink="http://www.w3.org/1999/xlink"
   xmlns="http://www.w3.org/2000/svg"
   xmlns:svg="http://www.w3.org/2000/svg">
  <sodipodi:namedview
     id="namedview23"
     pagecolor="#ffffff"
     bordercolor="#000000"
     borderopacity="0.25"
     inkscape:showpageshadow="2"
     inkscape:pageopacity="0.0"
     inkscape:pagecheckerboard="0"
     inkscape:deskcolor="#d1d1d1"
     inkscape:zoom="11.313709"
     inkscape:cx="35.48792"
     inkscape:cy="32.482716"
     inkscape:window-width="1920"
     inkscape:window-height="1000"
     inkscape:window-x="0"
     inkscape:window-y="0"
     inkscape:window-maximized="1"
     inkscape:current-layer="svg23"
     showgrid="false">
    <inkscape:grid
       id="grid1"
       units="px"
       originx="0"
       originy="0"
       spacingx="1"
       spacingy="1"
       empcolor="#0099e5"
       empopacity="0.30196078"
       color="#0099e5"
       opacity="0.14901961"
       empspacing="5"
       enabled="true"
       visible="false" />
  </sodipodi:namedview>
  <defs
     id="defs23">
    <linearGradient
       id="linearGradient27"
       x1="40.6957"
       y1="46"
       x2="40.6957"
       y2="42"
       gradientUnits="userSpaceOnUse">
      <stop
         offset="0.34068099"
         stop-color="#2E2E41"
         id="stop26"
         style="stop-color:#d08770;stop-opacity:1;" />
      <stop
         offset="1"
         stop-color="#566C80"
         id="stop27"
         style="stop-color:#180c08;stop-opacity:1;" />
    </linearGradient>
    <linearGradient
       id="linearGradient25"
       x1="56"
       y1="34"
       x2="48.4736"
       y2="8.1952"
       gradientUnits="userSpaceOnUse">
      <stop
         stop-color="#2E2E41"
         id="stop24"
         offset="0"
         style="stop-color:#4a7ab5;stop-opacity:1;" />
      <stop
         offset="1"
         stop-color="#566C80"
         id="stop25"
         style="stop-color:#4a7ab5;stop-opacity:1;" />
    </linearGradient>
    <linearGradient
       id="linearGradient7"
       x1="56"
       y1="60"
       x2="31.6269"
       y2="18.2176"
       gradientUnits="userSpaceOnUse">
      <stop
         offset="0.12675899"
         stop-color="#2E2E41"
         id="stop6"
         style="stop-color:#5294e2;stop-opacity:1;" />
      <stop
         offset="0.87736899"
         stop-color="#566C80"
         id="stop7"
         style="stop-color:#5294e2;stop-opacity:1;" />
    </linearGradient>
    <linearGradient
       id="paint0_linear_328_683"
       x1="56"
       y1="34"
       x2="48.4736"
       y2="8.1952"
       gradientUnits="userSpaceOnUse">
      <stop
         stop-color="#2E2E41"
         id="stop8" />
      <stop
         offset="1"
         stop-color="#566C80"
         id="stop9" />
    </linearGradient>
    <linearGradient
       id="paint1_linear_328_683"
       x1="50"
       y1="54"
       x2="1.21951"
       y2="14.9756"
       gradientUnits="userSpaceOnUse"
       gradientTransform="translate(-59.39697,1.979899)">
      <stop
         stop-color="#5200FF"
         id="stop10" />
      <stop
         offset="0.906064"
         stop-color="#0085FF"
         id="stop11" />
    </linearGradient>
    <linearGradient
       id="paint2_linear_328_683"
       x1="54"
       y1="54"
       x2="10.8713"
       y2="18.7129"
       gradientUnits="userSpaceOnUse"
       gradientTransform="translate(49.921739,-2.8284271)">
      <stop
         offset="0.377885"
         stop-color="#FF7E07"
         id="stop12" />
      <stop
         offset="1"
         stop-color="#FFE607"
         id="stop13" />
    </linearGradient>
    <linearGradient
       id="paint3_linear_328_683"
       x1="52"
       y1="54"
       x2="14.0499"
       y2="14.0526"
       gradientUnits="userSpaceOnUse"
       gradientTransform="matrix(1,0,0,0.71052632,0,12.631579)">
      <stop
         offset="0.295664"
         stop-color="#71706E"
         id="stop14" />
      <stop
         offset="1"
         stop-color="#B9AA99"
         id="stop15" />
    </linearGradient>
    <linearGradient
       id="paint4_linear_328_683"
       x1="21.75"
       y1="22"
       x2="21.75"
       y2="24"
       gradientUnits="userSpaceOnUse">
      <stop
         stop-color="white"
         id="stop16" />
      <stop
         offset="0.705"
         stop-color="#E6E6E6"
         id="stop17" />
    </linearGradient>
    <linearGradient
       id="paint5_linear_328_683"
       x1="20.5"
       y1="26"
       x2="20.5"
       y2="28"
       gradientUnits="userSpaceOnUse">
      <stop
         stop-color="white"
         id="stop18" />
      <stop
         offset="0.705"
         stop-color="#E6E6E6"
         id="stop19" />
    </linearGradient>
    <linearGradient
       id="paint6_linear_328_683"
       x1="56"
       y1="60"
       x2="31.6269"
       y2="18.2176"
       gradientUnits="userSpaceOnUse">
      <stop
         offset="0.126759"
         stop-color="#2E2E41"
         id="stop20" />
      <stop
         offset="0.877369"
         stop-color="#566C80"
         id="stop21" />
    </linearGradient>
    <linearGradient
       id="paint7_linear_328_683"
       x1="40.6957"
       y1="46"
       x2="40.6957"
       y2="42"
       gradientUnits="userSpaceOnUse">
      <stop
         offset="0.340681"
         stop-color="#2E2E41"
         id="stop22" />
      <stop
         offset="1"
         stop-color="#566C80"
         id="stop23" />
    </linearGradient>
    <linearGradient
       inkscape:collect="always"
       xlink:href="#linearGradient27"
       id="linearGradient3-2-3-6"
       gradientUnits="userSpaceOnUse"
       x1="41"
       y1="45.909904"
       x2="41"
       y2="41.909904"
       gradientTransform="translate(0,-15.909903)" />
  </defs>
  <rect
     style="opacity:0.2;fill:#4d4d4d;fill-opacity:1;stroke-width:0.48202"
     width="56"
     height="4.4542842"
     x="3.3000009"
     y="-38.372002"
     rx="7.0117254"
     ry="1.0271422"
     id="rect1-9-5" />
  <g
     id="g1">
    <g
       id="g27"
       transform="matrix(1.1666667,0,0,1.1707317,-5.3333344,-11.235773)">
      <g
         id="g6-7-4"
         transform="translate(0,-2)">
        <rect
           style="opacity:0.2;fill:#4d4d4d;fill-opacity:1;stroke-width:0.835088"
           width="48"
           height="41"
           x="8"
           y="18.943056"
           rx="6"
           ry="7.4027348"
           id="rect1-8-7" />
        <g
           id="g1-9-7-4-6"
           transform="translate(0,-1)">
          <path
             d="m 8,26 c 0,-3.3137 2.6863,-6 6,-6 h 36 c 3.3137,0 6,2.6863 6,6 v 8 H 8 Z"
             fill="url(#paint0_linear_328_683)"
             id="path1-3-5-5-5"
             style="fill:#c15f3e;fill-opacity:1" />
          <path
             d="M 12,27.105173 C 12,25.535549 12.7909,24 15,24 h 34 c 2.2091,0 3,1.535549 3,3.105173 V 48.157895 C 52,49.727518 50.2091,51 48,51 H 16 c -2.2091,0 -4,-1.272482 -4,-2.842105 z"
             fill="url(#paint3_linear_328_683)"
             id="path4-6-9-0-6"
             style="fill:#e5e5e5;fill-opacity:1;stroke-width:0.842927"
             sodipodi:nodetypes="sssssssss" />
          <path
             d="m 8,34 c 0,-1.1046 0.89543,-2 2,-2 h 44 c 1.1046,0 2,0.8954 2,2 v 19 c 0,4 -3,7 -7,7 H 15 C 10.978049,60 8,57 8,53 Z"
             fill="url(#paint6_linear_328_683)"
             id="path7-0-2-3-9"
             sodipodi:nodetypes="sssssssss"
             style="fill:#d08770;fill-opacity:1" />
          <path
             d="m 22,28.090097 c 0,-1.1046 0.8954,-2 2,-2 h 16 c 1.1046,0 2,0.8954 2,2 0,1.1046 -0.8954,2 -2,2 H 24 c -1.1046,0 -2,-0.8954 -2,-2 z"
             fill="url(#paint7_linear_328_683)"
             id="path8-6-2-6-3"
             style="fill:url(#linearGradient3-2-3-6)" />
        </g>
      </g>
      <g
         id="g25"
         transform="matrix(0.8181819,0,0,0.8181819,7.4545429,-12.45455)" />
    </g>
    <path
       style="color:#000000;clip-rule:nonzero;display:inline;overflow:visible;visibility:visible;opacity:0.2;isolation:auto;mix-blend-mode:normal;color-interpolation:sRGB;color-interpolation-filters:linearRGB;solid-color:#000000;solid-opacity:1;fill:#cccccc;fill-opacity:1;fill-rule:nonzero;stroke:none;stroke-width:1.05282;stroke-linecap:butt;stroke-linejoin:miter;stroke-miterlimit:4;stroke-dasharray:none;stroke-dashoffset:0;stroke-opacity:1;marker:none;color-rendering:auto;image-rendering:auto;shape-rendering:auto;text-rendering:auto;enable-background:accumulate"
       d="m 10.814062,8.7001162 c -0.9436204,0 -1.7257394,0.2158374 -2.5413996,0.5196773 C 7.4570011,9.5236354 6.7765438,10.071449 6.1608059,10.61554 5.5450679,11.159631 5.08588,11.819443 4.7420288,12.540197 4.3981788,13.260945 4.1720475,13.885292 4.0943899,14.715462 L 4,15.724507 C 4,14.890684 4.1898994,14.096705 4.5337494,13.375955 4.8776006,12.655204 5.3748873,12.006413 5.9906253,11.462322 6.6063632,10.918231 7.3405892,10.478808 8.1562505,10.174967 8.9719107,9.8711271 9.8704416,9.7033245 10.814062,9.7033245 h 42.37188 c 0.943611,0 1.842143,0.1678026 2.657805,0.4716425 0.815662,0.303841 1.54989,0.743264 2.165632,1.287355 0.615732,0.544091 1.113023,1.192882 1.456874,1.913633 C 59.810104,14.096705 60,14.890684 60,15.724507 L 59.90561,14.715462 C 59.82795,13.885292 59.589518,13.236505 59.245667,12.515757 58.901816,11.795004 58.455621,11.160299 57.839889,10.616207 57.224147,10.072116 56.584526,9.5414409 55.768864,9.2375991 54.953202,8.9337602 54.129553,8.7001162 53.185942,8.7001162 Z"
       id="path824-2-6"
       inkscape:connector-curvature="0"
       sodipodi:nodetypes="ssssscsssssssscssssss" />
  </g>
  <path
     style="fill:#2e2e41;fill-opacity:1;stroke-width:1.08451"
     d="m 41.904481,52.080004 c -0.06981,-0.281155 -0.188581,-0.620479 -0.263889,-0.754063 -0.316665,-0.56173 -0.722901,-2.082928 -0.604753,-2.264569 0.07035,-0.108206 0.06416,-0.145756 -0.01392,-0.08342 -0.143958,0.114935 -1.599833,-2.241976 -1.460813,-2.364919 0.116311,-0.102859 0.96154,0.931787 1.26262,1.545571 0.496405,1.011948 0.288411,0.03335 -0.265608,-1.249601 l -0.548256,-1.269654 -0.526855,0.162415 c -0.56583,0.174435 -0.635614,0.288776 -0.337232,0.552634 0.133354,0.11794 -0.119151,0.12264 -0.851146,0.01581 -0.572407,-0.08352 -1.121376,-0.237163 -1.219928,-0.341452 -0.374376,-0.396133 -1.332478,-0.626453 -1.808381,-0.434709 -0.578461,0.233087 -1.249212,0.229809 -1.742334,-0.0086 -0.215257,-0.104027 -0.61718,-0.169582 -0.893167,-0.145674 -0.275988,0.02392 -0.59852,-0.02731 -0.716746,-0.113662 -0.143444,-0.104867 -1.198506,-0.06084 -3.171519,0.132233 -3.848132,0.376617 -5.259928,0.454134 -4.973986,0.27311 0.155589,-0.09849 0.11266,-0.121389 -0.138102,-0.07375 -0.200018,0.03787 -0.470213,-0.03193 -0.600445,-0.155135 -0.130215,-0.123278 -0.286771,-0.179927 -0.347887,-0.125879 -0.06121,0.05409 -0.0066,0.15578 0.1227,0.226059 0.348717,0.190593 -0.110967,0.294548 -0.781755,0.176782 -0.362711,-0.06371 -0.521831,-0.177508 -0.489212,-0.349955 0.03063,-0.161746 -0.1503,-0.316813 -0.492766,-0.422389 C 20.743501,44.915667 20.5,44.776238 20.5,44.697601 c 0,-0.171679 2.205864,-0.323722 6.450685,-0.444597 3.505544,-0.09983 3.716522,-0.126474 3.428703,-0.433147 -0.14744,-0.157071 -0.67442,-0.1907 -2.147921,-0.137014 -1.662981,0.06053 -2.124849,0.02046 -3.114401,-0.270766 -1.554181,-0.457369 -2.784396,-1.162 -2.931076,-1.678847 -0.16253,-0.572655 0.03368,-0.668853 0.527494,-0.25861 0.869806,0.722611 3.206508,0.410733 2.581504,-0.344544 -0.186478,-0.225338 -0.366007,-0.250457 -1.03208,-0.144435 -0.443478,0.07067 -1.196968,0.07677 -1.674421,0.01371 -0.963355,-0.127266 -1.718344,-0.578726 -1.331178,-0.796007 0.183734,-0.103118 0.183908,-0.12856 8.15e-4,-0.130519 -0.238964,-0.0032 -0.131755,-0.741043 0.146948,-1.0121 0.07808,-0.07596 0.09813,-0.239334 0.04443,-0.363008 -0.05368,-0.12367 -0.02716,-0.213499 0.05882,-0.199609 0.333335,0.05378 0.506161,-0.02198 0.306419,-0.134355 -0.154763,-0.08709 -0.137844,-0.259656 0.06572,-0.671021 0.150758,-0.304597 0.300381,-0.732078 0.332477,-0.949953 0.03203,-0.21788 0.09016,-0.610074 0.129196,-0.871527 0.03906,-0.261449 0.126771,-0.653638 0.19514,-0.871518 0.07546,-0.240517 -0.02671,-0.15181 -0.26015,0.225812 l -0.384458,0.62194 -0.334022,-0.384264 c -0.477429,-0.549242 -0.436702,-0.650524 0.492014,-1.223805 0.711579,-0.439239 0.831141,-0.437914 0.68943,0.0076 -0.08871,0.279105 -0.07257,0.304914 0.07478,0.118841 0.158498,-0.200208 0.189028,-0.187709 0.193657,0.07927 0.0046,0.26195 0.03509,0.275695 0.176185,0.07926 0.101001,-0.140575 0.10388,-0.258047 0.0074,-0.287531 -0.08975,-0.02748 -0.116391,-0.158189 -0.05893,-0.290596 0.0769,-0.177057 0.139719,-0.190296 0.237739,-0.05006 0.08341,0.119356 0.218537,-0.03768 0.361182,-0.419953 0.184776,-0.495125 0.25042,-0.553862 0.346975,-0.31046 0.103773,0.261826 0.169001,0.228738 0.50981,-0.258915 0.214912,-0.307515 0.390744,-0.718761 0.390744,-0.913888 0,-0.238221 0.08211,-0.326936 0.249708,-0.270041 0.137339,0.04659 0.433608,-0.08839 0.658389,-0.299964 0.495204,-0.46614 0.77947,-0.496632 0.653333,-0.07011 -0.06809,0.230258 0.07408,0.162537 0.529777,-0.252514 0.342544,-0.311917 0.671996,-0.523616 0.732139,-0.470438 0.06007,0.05315 0.01393,0.181071 -0.102645,0.2842 -0.367814,0.325257 -0.254413,0.635113 0.117861,0.322196 0.181473,-0.152515 0.299854,-0.327646 0.263071,-0.389183 -0.109309,-0.18286 0.778156,-0.622487 1.577016,-0.781214 0.93001,-0.184793 1.660236,0.01352 2.444012,0.663731 0.320291,0.26571 0.582351,0.529414 0.582351,0.586011 0,0.05662 -0.09686,0.01728 -0.215026,-0.08723 -0.303064,-0.268007 -1.695082,-0.236141 -2.842017,0.06507 -0.955974,0.251055 -2.497732,1.35361 -2.497732,1.786214 0,0.640668 2.864526,1.261364 4.549779,0.985864 1.622535,-0.265243 1.763403,-0.377635 1.692673,-1.350409 -0.04388,-0.602752 0.0038,-0.832307 0.171164,-0.832084 0.130748,1.51e-4 0.187419,0.102333 0.130073,0.23449 -0.05593,0.128809 0.01551,0.348669 0.158699,0.488576 0.143195,0.13992 0.267053,0.325703 0.275244,0.412856 0.03362,0.356252 0.224213,0.713058 0.381076,0.713058 0.09198,0 0.167109,-0.07128 0.167109,-0.158456 0,-0.08717 -0.09411,-0.158463 -0.209044,-0.158463 -0.114975,0 -0.159088,-0.04417 -0.09797,-0.09818 0.15722,-0.139041 1.827357,0.974611 2.363258,1.57583 0.246639,0.276706 0.449332,0.427408 0.450424,0.334895 9.57e-4,-0.09254 -0.172306,-0.333629 -0.385318,-0.535825 -0.213114,-0.202206 -0.684856,-0.894287 -1.048403,-1.53797 l -0.660981,-1.170329 0.579804,0.09618 c 0.333673,0.05535 0.629516,0.0251 0.696884,-0.07128 0.06739,-0.09651 0.353692,-0.125647 0.675522,-0.06869 0.421952,0.07465 0.524472,0.05012 0.419398,-0.100186 -0.109919,-0.157255 -0.05705,-0.160196 0.251809,-0.01407 0.414021,0.195948 0.405292,0.586157 -0.01212,0.521446 -0.135514,-0.02111 -0.04777,0.08592 0.194972,0.237692 0.242745,0.151759 0.563035,0.400712 0.711768,0.553221 0.148729,0.152512 0.38208,0.277316 0.51855,0.277316 0.150626,0 0.206197,0.0966 0.14141,0.245917 -0.06691,0.15411 -0.03351,0.205856 0.08965,0.138609 0.132478,-0.07243 0.157123,0.01515 0.07575,0.269074 -0.08123,0.253504 -0.06621,0.307132 0.04604,0.164274 0.12686,-0.161597 0.262531,-0.07473 0.569741,0.364862 0.22178,0.317333 0.355442,0.619222 0.297042,0.670863 -0.05844,0.05168 -0.18344,-0.07696 -0.277858,-0.285634 -0.141387,-0.312581 -0.17368,-0.326282 -0.183028,-0.07764 -0.01155,0.291809 -0.02337,0.292309 -0.369734,0.01506 -0.45505,-0.364169 -0.474651,-0.03067 -0.02065,0.350366 0.525632,0.441127 1.076544,1.331701 0.972339,1.571828 -0.05183,0.119344 -0.03193,0.341778 0.04394,0.4943 0.07587,0.152507 0.145045,0.324836 0.153556,0.38294 0.0088,0.05803 0.07596,0.159116 0.149873,0.224479 0.07397,0.06539 0.134381,0.247333 0.134381,0.404375 0,0.188709 0.09115,0.254612 0.268781,0.194331 0.355963,-0.120792 0.341133,0.05981 -0.03195,0.389773 -0.28158,0.249008 -0.28158,0.269257 0,0.317219 0.179291,0.03054 0.300782,0.200869 0.300782,0.421672 0,0.210996 0.215478,0.530778 0.500628,0.742972 0.824279,0.613349 0.84599,0.744762 0.217814,1.317917 l -0.576152,0.525665 1.041031,0.87065 c 1.215332,1.016414 1.181378,1.158201 -0.427942,1.787603 -0.827277,0.323538 -0.94445,0.422667 -0.840844,0.711356 0.656494,1.82917 1.247355,6.63814 0.842779,6.859264 -0.11258,0.0616 -0.242553,-0.105035 -0.317554,-0.407011 z M 39.45494,45.006925 c 0.349779,-0.196267 0.07452,-0.616311 -0.524999,-0.801145 -0.456307,-0.140663 -0.642453,-0.10493 -1.265548,0.242903 -0.557593,0.311276 -0.67144,0.440896 -0.480938,0.547572 0.313714,0.175673 1.963608,0.183424 2.271485,0.01073 z m 2.341405,-0.515395 c 0.710482,-0.219028 0.71152,-0.384407 0.0046,-0.707745 -0.695536,-0.318073 -1.117444,-0.06095 -0.861633,0.525174 0.181329,0.41546 0.134232,0.405437 0.857173,0.182571 z m -9.47012,-0.459876 c 0,-0.08717 -0.141109,-0.157361 -0.313575,-0.156029 -0.267976,0.0021 -0.274498,0.02478 -0.04481,0.156029 0.338162,0.193253 0.358375,0.193253 0.358375,0 z m 2.227281,0.01793 c 0.05412,-0.07732 -0.02181,-0.22862 -0.168611,-0.336324 -0.420987,-0.308968 -0.31983,-0.567543 0.449936,-1.150225 0.788464,-0.596831 0.875529,-0.822414 0.403169,-1.044701 -0.238973,-0.112455 -0.654598,0.03627 -1.747068,0.625055 -0.788424,0.42494 -1.534281,0.774055 -1.657472,0.775815 -0.476539,0.0065 -0.18458,0.319609 0.716748,0.767826 0.941168,0.468037 1.818601,0.626827 2.003298,0.362554 z m 2.181911,-0.341304 c 0.522629,-0.175725 0.538173,-0.332324 0.07017,-0.706888 -0.346477,-0.277273 -0.380466,-0.27677 -0.998637,0.01507 -1.663352,0.785229 -0.943868,1.321344 0.928483,0.691827 z m -8.91683,-3.075699 c 0.121268,-0.549558 -0.264935,-0.626187 -1.261481,-0.250297 -1.167583,0.44041 -1.108333,0.388005 -0.874892,0.77376 0.191058,0.31568 0.208869,0.316286 1.134441,0.03818 0.590295,-0.177349 0.96326,-0.386429 1.001932,-0.561671 z m 1.334218,-0.266778 c 0.414924,-0.186021 0.803746,-0.406021 0.864033,-0.488901 0.06031,-0.08291 0.168285,-0.136131 0.239965,-0.11832 0.197363,0.04898 1.721198,-0.996281 1.913468,-1.312611 0.227428,-0.374135 0.15264,-0.358792 -1.237215,0.253983 -0.662768,0.292198 -1.588036,0.658413 -2.056158,0.813817 -0.660247,0.219164 -0.851136,0.360634 -0.851136,0.630743 0,0.316248 0.132952,0.559495 0.305786,0.559495 0.03681,0 0.406339,-0.152205 0.821257,-0.338206 z m -7.398547,-1.087928 c 0,-0.08717 -0.08058,-0.15845 -0.179186,-0.15845 -0.09862,0 -0.179187,0.07128 -0.179187,0.15845 0,0.08716 0.08061,0.158469 0.179187,0.158469 0.09859,0 0.179186,-0.07128 0.179186,-0.158469 z m 15.532395,-3.67423 c -0.05715,-0.126403 -0.09969,-0.08881 -0.108248,0.09573 -0.0074,0.167033 0.03454,0.260626 0.09411,0.207973 0.05958,-0.05269 0.06583,-0.189324 0.01404,-0.30371 z m -2.141981,-1.65061 c -0.05959,-0.05271 -0.214097,-0.05822 -0.343436,-0.01244 -0.142954,0.05063 -0.100405,0.08816 0.108211,0.09574 0.188898,0.0065 0.294721,-0.03054 0.235176,-0.08321 z m -9.8067,-0.69655 c 0,-0.08716 -0.03552,-0.158464 -0.07907,-0.158464 -0.04353,0 -0.128863,0.07128 -0.189776,0.158464 -0.06096,0.08717 -0.02529,0.158459 0.07909,0.158459 0.104356,0 0.18976,-0.07128 0.189761,-0.158459 z m 0.358373,-0.652549 c 0,-0.08716 -0.08058,-0.114375 -0.179187,-0.06053 -0.09859,0.05388 -0.179186,0.169243 -0.179186,0.2564 0,0.08717 0.08058,0.114378 0.179186,0.06053 0.0986,-0.05388 0.179187,-0.169233 0.179187,-0.2564 z m 11.288713,-0.237458 c 0,-0.03334 -0.206343,-0.06074 -0.458545,-0.06074 -0.252189,0 -0.413385,0.06461 -0.358195,0.143587 0.09184,0.131362 0.81674,0.05788 0.81674,-0.08281 z m -5.479662,1.027737 c -0.152724,-0.218525 0.198048,-0.519935 0.446847,-0.38396 0.107244,0.05853 0.194797,0.165944 0.194797,0.238632 0,0.210784 -0.514459,0.327313 -0.641644,0.145328 z m -9.930324,-0.613106 c 0,-0.08718 0.08536,-0.158458 0.189762,-0.158458 0.104351,0 0.139935,0.07127 0.07908,0.158458 -0.06097,0.08715 -0.146306,0.158452 -0.189764,0.158452 -0.04353,0 -0.07908,-0.07128 -0.07908,-0.158452 z"
     id="path1-3-3-6" />
  <rect
     style="fill:#2e2e41;stroke:#a8a8d6;stroke-width:0;stroke-linecap:round;stroke-linejoin:round;paint-order:fill markers stroke"
     id="rect2"
     width="1.5"
     height="1.5"
     x="30.679646"
     y="32.065578"
     rx="0.75"
     ry="0.75" />
  <rect
     style="fill:#2e2e41;stroke:#a8a8d6;stroke-width:0;stroke-linecap:round;stroke-linejoin:round;paint-order:fill markers stroke"
     id="rect2-5"
     width="1.5"
     height="1.5"
     x="22.979185"
     y="31.315578"
     rx="0.75"
     ry="0.75" />
</svg>
