<?xml version="1.0" encoding="UTF-8" standalone="no"?>
<svg
   width="64"
   height="64"
   viewBox="0 0 64 64"
   fill="none"
   version="1.1"
   id="svg23"
   sodipodi:docname="folder-openSUSE.svg"
   inkscape:version="1.4.2 (unknown)"
   xmlns:inkscape="http://www.inkscape.org/namespaces/inkscape"
   xmlns:sodipodi="http://sodipodi.sourceforge.net/DTD/sodipodi-0.dtd"
   xmlns:xlink="http://www.w3.org/1999/xlink"
   xmlns="http://www.w3.org/2000/svg"
   xmlns:svg="http://www.w3.org/2000/svg">
  <sodipodi:namedview
     id="namedview23"
     pagecolor="#ffffff"
     bordercolor="#000000"
     borderopacity="0.25"
     inkscape:showpageshadow="2"
     inkscape:pageopacity="0.0"
     inkscape:pagecheckerboard="0"
     inkscape:deskcolor="#d1d1d1"
     inkscape:zoom="11.313709"
     inkscape:cx="35.48792"
     inkscape:cy="32.30594"
     inkscape:window-width="1920"
     inkscape:window-height="998"
     inkscape:window-x="0"
     inkscape:window-y="0"
     inkscape:window-maximized="1"
     inkscape:current-layer="svg23"
     showgrid="false">
    <inkscape:grid
       id="grid1"
       units="px"
       originx="0"
       originy="0"
       spacingx="1"
       spacingy="1"
       empcolor="#0099e5"
       empopacity="0.30196078"
       color="#0099e5"
       opacity="0.14901961"
       empspacing="5"
       enabled="true"
       visible="false" />
  </sodipodi:namedview>
  <defs
     id="defs23">
    <linearGradient
       id="linearGradient27"
       x1="40.6957"
       y1="46"
       x2="40.6957"
       y2="42"
       gradientUnits="userSpaceOnUse">
      <stop
         offset="0.34068099"
         stop-color="#2E2E41"
         id="stop26"
         style="stop-color:#00cdab;stop-opacity:1;" />
      <stop
         offset="1"
         stop-color="#566C80"
         id="stop27"
         style="stop-color:#001e19;stop-opacity:1;" />
    </linearGradient>
    <linearGradient
       id="linearGradient25"
       x1="56"
       y1="34"
       x2="48.4736"
       y2="8.1952"
       gradientUnits="userSpaceOnUse">
      <stop
         stop-color="#2E2E41"
         id="stop24"
         offset="0"
         style="stop-color:#4a7ab5;stop-opacity:1;" />
      <stop
         offset="1"
         stop-color="#566C80"
         id="stop25"
         style="stop-color:#4a7ab5;stop-opacity:1;" />
    </linearGradient>
    <linearGradient
       id="linearGradient7"
       x1="56"
       y1="60"
       x2="31.6269"
       y2="18.2176"
       gradientUnits="userSpaceOnUse">
      <stop
         offset="0.12675899"
         stop-color="#2E2E41"
         id="stop6"
         style="stop-color:#5294e2;stop-opacity:1;" />
      <stop
         offset="0.87736899"
         stop-color="#566C80"
         id="stop7"
         style="stop-color:#5294e2;stop-opacity:1;" />
    </linearGradient>
    <linearGradient
       id="paint0_linear_328_683"
       x1="56"
       y1="34"
       x2="48.4736"
       y2="8.1952"
       gradientUnits="userSpaceOnUse">
      <stop
         stop-color="#2E2E41"
         id="stop8" />
      <stop
         offset="1"
         stop-color="#566C80"
         id="stop9" />
    </linearGradient>
    <linearGradient
       id="paint1_linear_328_683"
       x1="50"
       y1="54"
       x2="1.21951"
       y2="14.9756"
       gradientUnits="userSpaceOnUse"
       gradientTransform="translate(-59.39697,1.979899)">
      <stop
         stop-color="#5200FF"
         id="stop10" />
      <stop
         offset="0.906064"
         stop-color="#0085FF"
         id="stop11" />
    </linearGradient>
    <linearGradient
       id="paint2_linear_328_683"
       x1="54"
       y1="54"
       x2="10.8713"
       y2="18.7129"
       gradientUnits="userSpaceOnUse"
       gradientTransform="translate(49.921739,-2.8284271)">
      <stop
         offset="0.377885"
         stop-color="#FF7E07"
         id="stop12" />
      <stop
         offset="1"
         stop-color="#FFE607"
         id="stop13" />
    </linearGradient>
    <linearGradient
       id="paint3_linear_328_683"
       x1="52"
       y1="54"
       x2="14.0499"
       y2="14.0526"
       gradientUnits="userSpaceOnUse"
       gradientTransform="matrix(1,0,0,0.71052632,0,12.631579)">
      <stop
         offset="0.295664"
         stop-color="#71706E"
         id="stop14" />
      <stop
         offset="1"
         stop-color="#B9AA99"
         id="stop15" />
    </linearGradient>
    <linearGradient
       id="paint4_linear_328_683"
       x1="21.75"
       y1="22"
       x2="21.75"
       y2="24"
       gradientUnits="userSpaceOnUse">
      <stop
         stop-color="white"
         id="stop16" />
      <stop
         offset="0.705"
         stop-color="#E6E6E6"
         id="stop17" />
    </linearGradient>
    <linearGradient
       id="paint5_linear_328_683"
       x1="20.5"
       y1="26"
       x2="20.5"
       y2="28"
       gradientUnits="userSpaceOnUse">
      <stop
         stop-color="white"
         id="stop18" />
      <stop
         offset="0.705"
         stop-color="#E6E6E6"
         id="stop19" />
    </linearGradient>
    <linearGradient
       id="paint6_linear_328_683"
       x1="56"
       y1="60"
       x2="31.6269"
       y2="18.2176"
       gradientUnits="userSpaceOnUse">
      <stop
         offset="0.126759"
         stop-color="#2E2E41"
         id="stop20" />
      <stop
         offset="0.877369"
         stop-color="#566C80"
         id="stop21" />
    </linearGradient>
    <linearGradient
       id="paint7_linear_328_683"
       x1="40.6957"
       y1="46"
       x2="40.6957"
       y2="42"
       gradientUnits="userSpaceOnUse">
      <stop
         offset="0.340681"
         stop-color="#2E2E41"
         id="stop22" />
      <stop
         offset="1"
         stop-color="#566C80"
         id="stop23" />
    </linearGradient>
    <linearGradient
       inkscape:collect="always"
       xlink:href="#linearGradient27"
       id="linearGradient3-2-3-6"
       gradientUnits="userSpaceOnUse"
       x1="41"
       y1="45.909904"
       x2="41"
       y2="41.909904"
       gradientTransform="translate(0,-15.909903)" />
  </defs>
  <rect
     style="opacity:0.2;fill:#4d4d4d;fill-opacity:1;stroke-width:0.48202"
     width="56"
     height="4.4542842"
     x="3.3000009"
     y="-38.372002"
     rx="7.0117254"
     ry="1.0271422"
     id="rect1-9-5" />
  <g
     id="g1">
    <g
       id="g27"
       transform="matrix(1.1666667,0,0,1.1707317,-5.3333344,-11.235773)">
      <g
         id="g6-7-4"
         transform="translate(0,-2)">
        <rect
           style="opacity:0.2;fill:#4d4d4d;fill-opacity:1;stroke-width:0.835088"
           width="48"
           height="41"
           x="8"
           y="18.943056"
           rx="6"
           ry="7.4027348"
           id="rect1-8-7" />
        <g
           id="g1-9-7-4-6"
           transform="translate(0,-1)">
          <path
             d="m 8,26 c 0,-3.3137 2.6863,-6 6,-6 h 36 c 3.3137,0 6,2.6863 6,6 v 8 H 8 Z"
             fill="url(#paint0_linear_328_683)"
             id="path1-3-5-5-5"
             style="fill:#00806b;fill-opacity:1" />
          <path
             d="M 12,27.105173 C 12,25.535549 12.7909,24 15,24 h 34 c 2.2091,0 3,1.535549 3,3.105173 V 48.157895 C 52,49.727518 50.2091,51 48,51 H 16 c -2.2091,0 -4,-1.272482 -4,-2.842105 z"
             fill="url(#paint3_linear_328_683)"
             id="path4-6-9-0-6"
             style="fill:#e5e5e5;fill-opacity:1;stroke-width:0.842927"
             sodipodi:nodetypes="sssssssss" />
          <path
             d="m 8,34 c 0,-1.1046 0.89543,-2 2,-2 h 44 c 1.1046,0 2,0.8954 2,2 v 19 c 0,4 -3,7 -7,7 H 15 C 10.978049,60 8,57 8,53 Z"
             fill="url(#paint6_linear_328_683)"
             id="path7-0-2-3-9"
             sodipodi:nodetypes="sssssssss"
             style="fill:#00a489;fill-opacity:1" />
          <path
             d="m 22,28.090097 c 0,-1.1046 0.8954,-2 2,-2 h 16 c 1.1046,0 2,0.8954 2,2 0,1.1046 -0.8954,2 -2,2 H 24 c -1.1046,0 -2,-0.8954 -2,-2 z"
             fill="url(#paint7_linear_328_683)"
             id="path8-6-2-6-3"
             style="fill:url(#linearGradient3-2-3-6)" />
        </g>
      </g>
      <g
         id="g25"
         transform="matrix(0.8181819,0,0,0.8181819,7.4545429,-12.45455)" />
    </g>
    <path
       style="color:#000000;clip-rule:nonzero;display:inline;overflow:visible;visibility:visible;opacity:0.2;isolation:auto;mix-blend-mode:normal;color-interpolation:sRGB;color-interpolation-filters:linearRGB;solid-color:#000000;solid-opacity:1;fill:#cccccc;fill-opacity:1;fill-rule:nonzero;stroke:none;stroke-width:1.05282;stroke-linecap:butt;stroke-linejoin:miter;stroke-miterlimit:4;stroke-dasharray:none;stroke-dashoffset:0;stroke-opacity:1;marker:none;color-rendering:auto;image-rendering:auto;shape-rendering:auto;text-rendering:auto;enable-background:accumulate"
       d="m 10.814062,8.7001162 c -0.9436204,0 -1.7257394,0.2158374 -2.5413996,0.5196773 C 7.4570011,9.5236354 6.7765438,10.071449 6.1608059,10.61554 5.5450679,11.159631 5.08588,11.819443 4.7420288,12.540197 4.3981788,13.260945 4.1720475,13.885292 4.0943899,14.715462 L 4,15.724507 C 4,14.890684 4.1898994,14.096705 4.5337494,13.375955 4.8776006,12.655204 5.3748873,12.006413 5.9906253,11.462322 6.6063632,10.918231 7.3405892,10.478808 8.1562505,10.174967 8.9719107,9.8711271 9.8704416,9.7033245 10.814062,9.7033245 h 42.37188 c 0.943611,0 1.842143,0.1678026 2.657805,0.4716425 0.815662,0.303841 1.54989,0.743264 2.165632,1.287355 0.615732,0.544091 1.113023,1.192882 1.456874,1.913633 C 59.810104,14.096705 60,14.890684 60,15.724507 L 59.90561,14.715462 C 59.82795,13.885292 59.589518,13.236505 59.245667,12.515757 58.901816,11.795004 58.455621,11.160299 57.839889,10.616207 57.224147,10.072116 56.584526,9.5414409 55.768864,9.2375991 54.953202,8.9337602 54.129553,8.7001162 53.185942,8.7001162 Z"
       id="path824-2-6"
       inkscape:connector-curvature="0"
       sodipodi:nodetypes="ssssscsssssssscssssss" />
  </g>
  <g
     transform="matrix(0.08999385,0,0,0.08985698,-4.2571452,-6.4112248)"
     id="g10"
     style="fill:#2e2e41;fill-opacity:1">
    <path
       id="Geeko"
       d="m 523.71,442.05 c -3.3113,-0.11926 -6.4507,1.0506 -8.8499,3.3008 -2.3993,2.2502 -3.8147,5.2984 -3.9147,8.5992 -0.2297,6.8208 5.1108,12.559 11.916,12.81 3.3095,0.1 6.4647,-1.0698 8.878,-3.32 2.4098,-2.2607 3.7953,-5.3107 3.9006,-8.5992 0.2297,-6.819 -5.109,-12.549 -11.93,-12.791 z m 2.0205,13.512 c -3.0307,0 -5.4791,-1.6398 -5.4791,-3.6498 0,-2.0292 2.4484,-3.6603 5.4791,-3.6603 3.0306,0 5.486,1.6311 5.486,3.6603 0,2.0099 -2.4571,3.6498 -5.486,3.6498 z m 28.798,14.729 c 0.0887,-0.0692 0.29521,-0.25105 0.2683,-0.41918 -0.68471,-4.2787 -7.0592,-25.029 -11.884,-30.019 -1.3294,-1.3592 -2.394,-2.6992 -4.5495,-3.9602 -17.454,-10.171 -58.863,-16.309 -60.803,-16.59 0,0 -0.19473,-0.0406 -0.3297,0.0912 -0.1048,0.10237 -0.1246,0.29991 -0.1246,0.29991 0,0 -0.1596,8.5799 -0.1841,9.5392 -4.2286,-1.4206 -34.972,-11.351 -63.791,-12.351 -24.44,-0.85939 -60.033,-4.0198 -107.2,24.98 l -1.3943,0.86815 c -22.19,13.841 -37.51,30.91 -45.518,50.739 -2.5116,6.2402 -5.8895,20.32 -2.5414,33.569 1.4417,5.7912 4.1304,11.611 7.7556,16.819 8.194,11.77 21.944,19.58 36.749,20.899 20.904,1.8696 36.733,-7.5188 42.363,-25.099 3.8708,-12.13 0,-29.928 -14.839,-39.008 -12.07,-7.3908 -25.049,-5.7106 -32.578,-0.7296 -6.5313,4.3303 -10.23,11.06 -10.165,18.451 0.1508,13.11 11.444,20.078 19.564,20.099 2.3589,0 4.7284,-0.41041 7.3995,-1.2803 0.9506,-0.28939 1.845,-0.64893 2.8307,-1.2593 l 0.3087,-0.18065 0.1947,-0.12978 -0.065,0.0386 c 1.8503,-1.261 2.964,-3.3113 2.964,-5.5106 0,-0.59981 -0.084,-1.2084 -0.2561,-1.8205 -0.9593,-3.32 -4.239,-5.3282 -7.638,-4.7091 l -0.4595,0.10874 -0.6209,0.18942 -0.9015,0.31043 c -1.8696,0.45951 -3.2692,0.49985 -3.5691,0.51038 -0.9506,-0.0614 -5.6246,-1.461 -5.6246,-6.5805 v -0.0702 c 0,-1.8801 0.7542,-3.199 1.1698,-3.9199 1.454,-2.28 5.4352,-4.5179 10.814,-4.0497 7.0593,0.61034 12.149,4.2303 15.52,11.06 3.1289,6.349 2.3098,14.159 -2.1099,19.88 -4.3899,5.6685 -12.205,8.0783 -22.598,6.9593 -10.481,-1.1593 -19.34,-7.1908 -24.303,-16.579 -4.8565,-9.1779 -5.1213,-20.059 -0.6858,-28.418 10.609,-20.029 30.649,-19.82 41.637,-17.921 16.26,2.8202 34.758,17.819 41.319,35.139 1.0593,2.7606 1.5995,4.9494 2.0713,6.9505 l 0.7085,2.9903 18.37,8.9692 c 0.39458,0.19266 0.52796,0.25778 0.6858,0.14034 0.18941,-0.14093 0.081,-0.52966 0.081,-0.52966 -0.114,-0.4104 -0.3806,-0.78924 -0.805,-5.9298 -0.3491,-4.5618 -1.0594,-17.051 5.2282,-23.24 2.4414,-2.4186 6.1613,-4.5776 9.099,-5.2686 12.04,-2.9412 26.159,-0.912 39.507,14.539 6.9102,7.98 10.279,11.619 11.97,13.249 0,0 0.38494,0.36349 0.5893,0.53142 0.22331,0.1835 0.36878,0.33789 0.6945,0.51914 0.55786,0.31042 22.954,10.621 22.954,10.621 0,0 0.26534,0.13182 0.4612,-0.11049 0.19362,-0.23953 0.01,-0.4788 0.01,-0.4788 -0.1491,-0.17013 -14.199,-18.328 -11.698,-33.279 1.9696,-11.909 11.447,-10.83 24.558,-9.3498 4.2794,0.49984 9.1516,1.0593 14.196,1.1716 14.084,0.0895 29.254,-2.5115 38.604,-6.6015 6.049,-2.629 9.9093,-4.3794 12.328,-6.5787 0.8699,-0.72084 1.3207,-1.8907 1.7907,-3.1499 l 0.3297,-0.83133 c 0.3911,-1.0207 0.9664,-3.171 1.219,-4.3496 0.1017,-0.51914 0.2208,-1.0274 -0.2087,-1.3592 -0.39265,-0.30337 -1.2944,0.24027 -1.2944,0.24027 -4.1058,2.4712 -14.369,7.1505 -23.965,7.3504 -11.914,0.24028 -36.054,-12.061 -38.555,-13.36 -1.6739,-3.9857 -3.3458,-7.9724 -5.0438,-11.948 17.27,11.379 31.594,17.668 42.559,18.638 12.207,1.0874 21.723,-5.5724 25.853,-8.3433 0.54064,-0.35944 1.0799,-0.76184 1.5756,-1.1486 z m -48.992,-16.369 c 0.1753,-4.7302 2.1554,-9.1201 5.6141,-12.34 3.4603,-3.2306 7.9747,-4.9003 12.708,-4.7494 9.7602,0.34902 17.43,8.5886 17.095,18.338 -0.1841,4.7302 -2.1642,9.1201 -5.6141,12.33 -3.4603,3.2499 -7.9642,4.9196 -12.719,4.76 -9.7497,-0.35954 -17.411,-8.5799 -17.084,-18.338 z"
       clip-rule="evenodd"
       fill-rule="evenodd"
       style="fill:#2e2e41;fill-opacity:1" />
    <path
       d="m 376.84,556.36 c -7.7836,0 -12.065,6.5805 -12.065,11.13 v 5.8403 c 0,6.6997 5.4738,10.851 10.55,10.851 h 17.819 c 2.2449,0 2.7149,1.4697 2.7149,2.7097 v 3.769 c 0,0.39988 -0.081,4.0198 -2.7149,4.0198 h -24.303 c -2.4151,0 -4.1602,1.6802 -4.1602,3.9795 v 1.0418 c 0,2.2905 1.7451,3.9602 4.1602,3.9602 h 25.624 c 6.698,0 11.02,-4.66 11.02,-11.879 v -6.3016 c 0,-6.7786 -4.8705,-9.8093 -9.7058,-9.8093 h -17.533 c -2.6395,0 -3.8356,-1.9801 -3.8356,-3.3797 v -3.4796 c 0,-2.1906 1.4644,-3.4604 4.0251,-3.4604 h 19.408 c 2.38,0 4.1707,-1.71 4.1707,-3.9707 v -1.04 c 0,-2.2695 -1.8205,-3.9813 -4.2513,-3.9813 h -20.922 z"
       id="path1"
       style="fill:#2e2e41;fill-opacity:1" />
    <path
       d="m 449.7,556.36 c -2.301,0 -4.1548,1.8696 -4.1548,4.1707 v 29.838 c 0,2.3905 -1.9503,4.311 -4.311,4.311 h -13.545 c -2.3694,0 -4.3092,-1.9205 -4.3092,-4.311 v -29.838 c 0,-2.3011 -1.8696,-4.1707 -4.1689,-4.1707 h -1.3101 c -2.3344,0 -4.1707,1.8416 -4.1707,4.1707 v 30.968 c 0,7.2101 5.6737,12.44 13.489,12.44 h 14.485 c 7.8047,0 13.475,-5.2282 13.475,-12.44 v -30.968 c 0,-2.3291 -1.8293,-4.1707 -4.1602,-4.1707 h -1.3189 z"
       id="path2"
       style="fill:#2e2e41;fill-opacity:1" />
    <path
       d="m 475.63,556.36 c -7.7801,0 -12.074,6.5805 -12.074,11.13 v 5.8403 c 0,6.6997 5.4843,10.851 10.564,10.851 h 17.814 c 2.2485,0 2.7203,1.4697 2.7203,2.7097 v 3.769 c 0,0.39988 -0.081,4.0198 -2.7203,4.0198 H 467.62 c -2.4045,0 -4.1601,1.6802 -4.1601,3.9795 v 1.0418 c 0,2.2905 1.7556,3.9602 4.1601,3.9602 h 25.633 c 6.6998,0 11.041,-4.66 11.041,-11.879 v -6.3016 c 0,-6.7786 -4.8845,-9.8093 -9.7199,-9.8093 h -17.533 c -2.6466,0 -3.8392,-1.9801 -3.8392,-3.3797 v -3.4796 c 0,-2.1906 1.4645,-3.4604 4.0251,-3.4604 h 19.419 c 2.3747,0 4.1584,-1.71 4.1584,-3.9707 v -1.04 c 0,-2.2695 -1.8188,-3.9813 -4.2601,-3.9813 h -20.913 z"
       id="path3"
       style="fill:#2e2e41;fill-opacity:1" />
    <path
       d="m 512.55,560.34 v 39.358 c 0,2.259 1.7047,3.9602 3.9637,3.9602 h 31.364 c 2.4151,0 4.1602,-1.6697 4.1602,-3.9602 v -1.0418 c 0,-2.2993 -1.7451,-3.9795 -4.1602,-3.9795 h -25.687 v -10.02 h 18.822 c 2.4098,0 4.1602,-1.6907 4.1602,-3.9813 v -1.04 c 0,-2.3011 -1.7504,-3.9707 -4.1602,-3.9707 h -18.822 v -10.32 h 24.382 c 2.4063,0 4.1601,-1.6591 4.1601,-3.9707 v -1.04 c 0,-2.3011 -1.7538,-3.9815 -4.1601,-3.9813 l -29.968,0.003 c -2.3064,0 -4.0549,1.7148 -4.0549,3.9843 z"
       id="path4"
       style="fill:#2e2e41;fill-opacity:1" />
    <g
       transform="matrix(1.7539,0,0,1.7539,-611.6,-134.13)"
       stroke-width="0"
       id="g8"
       style="fill:#2e2e41;fill-opacity:1">
      <path
         d="m 491.25,404.37 c -2.241,0 -4.065,1.744 -4.065,3.894 v 8.461 c 0,2.184 1.765,3.963 3.929,3.963 h 5.473 c 2.164,0 3.929,-1.779 3.929,-3.963 v -8.461 c 0,-2.149 -1.825,-3.894 -4.065,-3.894 z m -1.184,12.019 v -7.726 c 0,-0.906 0.744,-1.647 1.654,-1.647 h 4.264 c 0.89,0 1.648,0.758 1.648,1.647 v 7.726 c 0,0.912 -0.738,1.653 -1.648,1.653 h -4.296 c -0.912,0 -1.622,-0.725 -1.622,-1.653 z"
         id="path5"
         style="fill:#2e2e41;fill-opacity:1" />
      <path
         d="m 512.91,404.27 c -1.578,0 -2.768,0.564 -3.723,1.026 -0.582,0.279 -1.086,0.52 -1.477,0.52 -0.177,0 -0.328,-0.08 -0.408,-0.211 l -0.364,-0.696 c -0.091,-0.183 -0.456,-0.541 -0.907,-0.541 h -0.541 c -0.52,0 -0.936,0.467 -0.936,1.037 v 21.461 c 0,0.673 0.531,1.203 1.203,1.203 h 0.468 c 0.667,0 1.209,-0.536 1.209,-1.203 v -7.121 c 0,-0.211 0.137,-0.439 0.276,-0.439 0.391,0 0.895,0.229 1.477,0.496 0.955,0.439 2.145,0.98 3.723,0.98 h 0.505 c 2.794,0 4.532,-1.597 4.532,-4.162 v -8.192 c 0,-2.526 -1.775,-4.157 -4.532,-4.157 h -0.505 z m -5.475,11.952 v -7.39 c 0,-1.021 0.798,-1.818 1.818,-1.818 h 3.997 c 1.021,0 1.818,0.798 1.818,1.818 v 7.39 c 0,1.003 -0.818,1.818 -1.818,1.818 h -3.997 c -1.001,0 -1.818,-0.815 -1.818,-1.818 z"
         id="path6"
         style="fill:#2e2e41;fill-opacity:1" />
      <path
         d="m 521.98,408.26 v 8.398 c 0,2.178 1.768,4.025 3.854,4.025 h 5.647 c 0.698,0 1.203,-0.484 1.203,-1.141 v -0.37 c 0,-0.661 -0.505,-1.135 -1.203,-1.135 h -4.639 c -1.3,0 -1.986,-0.639 -1.986,-1.854 v -2.457 h 8.369 c 1.346,0 2.142,-0.821 2.142,-2.212 v -3.256 c 0,-2.149 -1.822,-3.8944 -4.054,-3.894 l -5.273,0.001 c -2.2401,0.002 -4.06,1.745 -4.06,3.895 z m 2.877,0.371 c 0,-0.907 0.713,-1.619 1.621,-1.619 h 4.396 c 0.906,0 1.613,0.712 1.613,1.619 v 2.622 h -7.631 c 10e-4,-0.342 10e-4,-2.622 10e-4,-2.622 z"
         id="path7"
         style="fill:#2e2e41;fill-opacity:1" />
      <path
         d="m 547,404.27 c -1.573,0 -2.76,0.564 -3.718,1.021 -0.596,0.28 -1.105,0.525 -1.521,0.525 -0.183,0 -0.257,-0.023 -0.399,-0.269 l -0.331,-0.604 c -0.19,-0.382 -0.513,-0.575 -0.949,-0.575 h -0.465 c -0.562,0 -0.972,0.438 -0.972,1.037 v 14.077 c 0,0.667 0.527,1.203 1.206,1.203 h 0.465 c 0.667,0 1.211,-0.542 1.211,-1.203 v -10.65 c 0,-0.998 0.815,-1.818 1.813,-1.818 h 3.999 c 1.001,0 1.816,0.82 1.816,1.818 v 10.65 c 0,0.667 0.53,1.203 1.203,1.203 h 0.47 c 0.667,0 1.209,-0.542 1.209,-1.203 v -11.055 c 0,-2.526 -1.776,-4.157 -4.535,-4.157 z"
         id="path8"
         style="fill:#2e2e41;fill-opacity:1" />
    </g>
    <g
       transform="matrix(1.7539,0,0,1.7539,-611.6,-134.13)"
       id="g9"
       style="fill:#2e2e41;fill-opacity:1">
      <path
         d="m 667.46,415.23 c 1.218,0 2.188,0.99 2.188,2.229 0,1.257 -0.971,2.237 -2.198,2.237 -1.218,0 -2.208,-0.98 -2.208,-2.237 0,-1.238 0.99,-2.229 2.208,-2.229 z m -0.01,0.346 c -0.98,0 -1.782,0.842 -1.782,1.882 0,1.06 0.802,1.891 1.792,1.891 0.99,0.011 1.782,-0.831 1.782,-1.881 0,-1.05 -0.792,-1.892 -1.782,-1.892 z m -0.416,3.179 h -0.396 v -2.485 c 0.208,-0.03 0.406,-0.06 0.703,-0.06 0.377,0 0.624,0.079 0.772,0.188 0.149,0.108 0.229,0.276 0.229,0.515 0,0.326 -0.218,0.524 -0.485,0.604 v 0.021 c 0.218,0.039 0.366,0.237 0.416,0.604 0.06,0.387 0.118,0.535 0.158,0.614 h -0.416 c -0.06,-0.079 -0.119,-0.307 -0.168,-0.634 -0.06,-0.316 -0.218,-0.436 -0.535,-0.436 h -0.277 v 1.069 z m 0,-1.377 h 0.287 c 0.327,0 0.604,-0.118 0.604,-0.426 0,-0.218 -0.158,-0.436 -0.604,-0.436 -0.129,0 -0.218,0.01 -0.287,0.021 z"
         id="path9"
         style="fill:#2e2e41;fill-opacity:1" />
    </g>
  </g>
</svg>
