<?xml version="1.0" encoding="UTF-8" standalone="no"?>
<svg
   width="64"
   height="64"
   version="1.1"
   viewBox="0 0 16.933 16.933"
   id="svg7"
   sodipodi:docname="4kvideodownloaderplus.png.svg"
   inkscape:version="1.4 (e7c3feb100, 2024-10-09)"
   xmlns:inkscape="http://www.inkscape.org/namespaces/inkscape"
   xmlns:sodipodi="http://sodipodi.sourceforge.net/DTD/sodipodi-0.dtd"
   xmlns:xlink="http://www.w3.org/1999/xlink"
   xmlns="http://www.w3.org/2000/svg"
   xmlns:svg="http://www.w3.org/2000/svg"
   xmlns:rdf="http://www.w3.org/1999/02/22-rdf-syntax-ns#"
   xmlns:cc="http://creativecommons.org/ns#"
   xmlns:dc="http://purl.org/dc/elements/1.1/">
  <sodipodi:namedview
     id="namedview7"
     pagecolor="#9c4444"
     bordercolor="#000000"
     borderopacity="0.25"
     inkscape:showpageshadow="2"
     inkscape:pageopacity="0.0"
     inkscape:pagecheckerboard="0"
     inkscape:deskcolor="#d1d1d1"
     inkscape:zoom="4.3531261"
     inkscape:cx="36.066035"
     inkscape:cy="25.958357"
     inkscape:window-width="1280"
     inkscape:window-height="669"
     inkscape:window-x="180"
     inkscape:window-y="166"
     inkscape:window-maximized="0"
     inkscape:current-layer="svg7"
     showgrid="false" />
  <defs
     id="defs2">
    <linearGradient
       id="linearGradient1"
       inkscape:collect="always">
      <stop
         style="stop-color:#d8dee9;stop-opacity:1;"
         offset="0"
         id="stop1" />
      <stop
         style="stop-color:#eceff4;stop-opacity:1;"
         offset="1"
         id="stop2" />
    </linearGradient>
    <linearGradient
       inkscape:collect="always"
       id="linearGradient1134">
      <stop
         style="stop-color:#2e3440;stop-opacity:1;"
         offset="0"
         id="stop1130" />
      <stop
         style="stop-color:#4c566a;stop-opacity:1;"
         offset="1"
         id="stop1132" />
    </linearGradient>
    <filter
       style="color-interpolation-filters:sRGB;"
       inkscape:label="Blur"
       id="filter3"
       x="-0.10843471"
       y="-0.10870992"
       width="1.2168694"
       height="1.2174198">
      <feGaussianBlur
         stdDeviation="0.5 0.5"
         result="blur"
         id="feGaussianBlur3" />
    </filter>
    <linearGradient
       inkscape:collect="always"
       xlink:href="#linearGradient1134"
       id="linearGradient4"
       x1="14.388208"
       y1="14.440324"
       x2="2.2869277"
       y2="2.3637428"
       gradientUnits="userSpaceOnUse" />
    <linearGradient
       inkscape:collect="always"
       xlink:href="#linearGradient1"
       id="linearGradient12"
       x1="12.031549"
       y1="11.017465"
       x2="4.7792583"
       y2="5.9120383"
       gradientUnits="userSpaceOnUse" />
  </defs>
  <metadata
     id="metadata2">
    <rdf:RDF>
      <cc:Work
         rdf:about="">
        <dc:format>image/svg+xml</dc:format>
        <dc:type
           rdf:resource="http://purl.org/dc/dcmitype/StillImage" />
      </cc:Work>
    </rdf:RDF>
  </metadata>
  <ellipse
     style="opacity:1;fill:none;stroke:#000000;stroke-width:0.582072;stroke-dasharray:none;stroke-opacity:1;filter:url(#filter3)"
     id="path1-5"
     cx="8.4450111"
     cy="8.423522"
     rx="6.8752708"
     ry="6.8578653" />
  <ellipse
     style="opacity:1;fill:#2b323e;stroke-width:0.58207188;stroke-opacity:1;stroke:#eed49f;stroke-dasharray:none;fill-opacity:1"
     id="path1"
     cx="8.4450111"
     cy="8.423522"
     rx="6.8752708"
     ry="6.8578653" />
  <ellipse
     style="fill:url(#linearGradient4);stroke:none;stroke-width:0.515624;stroke-dasharray:none;stroke-opacity:1"
     id="path1-2"
     cx="8.4450111"
     cy="8.423522"
     rx="6.0904069"
     ry="6.0749874" />
  <path
     id="path9-1"
     style="fill:#000000;stroke-width:0.0105593;opacity:0.3"
     d="M 8.876869,6.3461534 C 8.843973,6.3457104 8.810896,6.3461471 8.777757,6.3473934 8.4555758,6.3594686 8.1835615,6.4366118 7.9067584,6.5943083 7.6365348,6.7482563 7.4017009,6.9760342 7.2327479,7.2482987 l -0.050668,0.081563 -0.1139415,0.029907 C 6.8593652,7.414215 6.6745793,7.5179234 6.5135067,7.6709456 6.3240651,7.8509188 6.1939507,8.0885677 6.1430111,8.3479219 c -0.010633,0.054138 -0.01686,0.065993 -0.033862,0.065993 -0.0114,0 -0.068794,0.00979 -0.1277827,0.02175 -0.3155814,0.064003 -0.5753992,0.2019533 -0.8134092,0.4317917 -0.674806,0.651638 -0.6502196,1.7433104 0.05314,2.3675634 0.2351585,0.20871 0.5237664,0.345037 0.83343,0.393481 0.078526,0.01229 0.4814256,0.01451 2.4488801,0.01284 l 2.3547117,-0.002 0.09788,-0.02273 c 0.440429,-0.102102 0.785938,-0.335434 1.0277,-0.693739 0.254103,-0.376596 0.334561,-0.850274 0.220963,-1.3000711 C 12.082338,9.1384526 11.728574,8.7288213 11.260992,8.5300821 11.145324,8.4809187 10.95516,8.4294369 10.85194,8.4193536 c -0.127487,-0.012454 -0.115424,0.00558 -0.115424,-0.1688115 0,-0.5208119 -0.191442,-0.9882152 -0.554138,-1.35247 C 9.8336196,6.5478125 9.3703105,6.3527894 8.876869,6.3461583 Z m -1.9310761,2.015111 h 1.52054 1.5205393 v 1.266952 1.2671976 H 8.4663329 6.9457929 V 9.6282164 Z m 0.770898,0.3905158 V 9.0580138 9.3642474 H 8.4663329 9.215975 V 9.0580138 8.7517802 H 8.4663329 Z m 0,1.0032302 v 0.3749446 0.374698 H 8.4663329 9.215975 V 10.129955 9.7550104 H 8.4663329 Z" />
  <path
     id="path9"
     style="opacity:1;fill:url(#linearGradient12);stroke-width:0.0105593"
     d="M 8.876869,5.8169972 C 8.843973,5.8165542 8.810896,5.8169909 8.777757,5.8182372 8.4555758,5.8303124 8.1835615,5.9074556 7.9067584,6.0651521 7.6365348,6.2191001 7.4017009,6.446878 7.2327479,6.7191425 l -0.050668,0.081563 -0.1139415,0.029907 C 6.8593652,6.8850588 6.6745793,6.9887672 6.5135067,7.1417894 6.3240651,7.3217626 6.1939507,7.5594115 6.1430111,7.8187657 c -0.010633,0.054138 -0.01686,0.065993 -0.033862,0.065993 -0.0114,0 -0.068794,0.00979 -0.1277827,0.02175 C 5.665785,7.970512 5.4059672,8.108462 5.1679572,8.3383004 c -0.674806,0.651638 -0.6502196,1.7433106 0.05314,2.3675636 0.2351585,0.20871 0.5237664,0.345037 0.83343,0.393481 0.078526,0.01229 0.4814256,0.01451 2.4488801,0.01284 l 2.3547117,-0.002 0.09788,-0.02273 c 0.440429,-0.102102 0.785938,-0.335434 1.0277,-0.693739 C 12.237802,10.01712 12.31826,9.5434421 12.204662,9.0936447 12.082338,8.6092964 11.728574,8.1996651 11.260992,8.0009259 11.145324,7.9517625 10.95516,7.9002807 10.85194,7.8901974 c -0.127487,-0.012454 -0.115424,0.00558 -0.115424,-0.1688115 0,-0.5208119 -0.191442,-0.9882152 -0.554138,-1.35247 C 9.8336196,6.0186563 9.3703105,5.8236332 8.876869,5.8170021 Z m -1.9310761,2.015111 h 1.52054 1.5205393 v 1.266952 1.2671978 H 8.4663329 6.9457929 V 9.0990602 Z M 7.7166909,8.222624 V 8.5288576 8.8350912 H 8.4663329 9.215975 V 8.5288576 8.222624 H 8.4663329 Z m 0,1.0032302 V 9.6007989 9.9754964 H 8.4663329 9.215975 V 9.6007989 9.2258542 H 8.4663329 Z" />
</svg>
