<?xml version="1.0" encoding="UTF-8" standalone="no"?>
<svg
   width="64"
   height="64"
   version="1.1"
   viewBox="0 0 16.933 16.933"
   id="svg7"
   sodipodi:docname="4kyoutubetomp3.svg"
   inkscape:version="1.4 (e7c3feb100, 2024-10-09)"
   xmlns:inkscape="http://www.inkscape.org/namespaces/inkscape"
   xmlns:sodipodi="http://sodipodi.sourceforge.net/DTD/sodipodi-0.dtd"
   xmlns:xlink="http://www.w3.org/1999/xlink"
   xmlns="http://www.w3.org/2000/svg"
   xmlns:svg="http://www.w3.org/2000/svg"
   xmlns:rdf="http://www.w3.org/1999/02/22-rdf-syntax-ns#"
   xmlns:cc="http://creativecommons.org/ns#"
   xmlns:dc="http://purl.org/dc/elements/1.1/">
  <sodipodi:namedview
     id="namedview7"
     pagecolor="#9c4444"
     bordercolor="#000000"
     borderopacity="0.25"
     inkscape:showpageshadow="2"
     inkscape:pageopacity="0.0"
     inkscape:pagecheckerboard="0"
     inkscape:deskcolor="#d1d1d1"
     inkscape:zoom="4.3531261"
     inkscape:cx="36.066035"
     inkscape:cy="25.958357"
     inkscape:window-width="1280"
     inkscape:window-height="669"
     inkscape:window-x="180"
     inkscape:window-y="166"
     inkscape:window-maximized="0"
     inkscape:current-layer="svg7"
     showgrid="false" />
  <defs
     id="defs2">
    <linearGradient
       id="linearGradient1"
       inkscape:collect="always">
      <stop
         style="stop-color:#d8dee9;stop-opacity:1;"
         offset="0"
         id="stop1" />
      <stop
         style="stop-color:#eceff4;stop-opacity:1;"
         offset="1"
         id="stop2" />
    </linearGradient>
    <linearGradient
       inkscape:collect="always"
       id="linearGradient1134">
      <stop
         style="stop-color:#2e3440;stop-opacity:1;"
         offset="0"
         id="stop1130" />
      <stop
         style="stop-color:#4c566a;stop-opacity:1;"
         offset="1"
         id="stop1132" />
    </linearGradient>
    <filter
       style="color-interpolation-filters:sRGB;"
       inkscape:label="Blur"
       id="filter3"
       x="-0.10843471"
       y="-0.10870992"
       width="1.2168694"
       height="1.2174198">
      <feGaussianBlur
         stdDeviation="0.5 0.5"
         result="blur"
         id="feGaussianBlur3" />
    </filter>
    <linearGradient
       inkscape:collect="always"
       xlink:href="#linearGradient1134"
       id="linearGradient4"
       x1="14.388208"
       y1="14.440324"
       x2="2.2869277"
       y2="2.3637428"
       gradientUnits="userSpaceOnUse" />
    <linearGradient
       inkscape:collect="always"
       xlink:href="#linearGradient1"
       id="linearGradient14"
       x1="11.973797"
       y1="10.837597"
       x2="4.776979"
       y2="5.671392"
       gradientUnits="userSpaceOnUse" />
  </defs>
  <metadata
     id="metadata2">
    <rdf:RDF>
      <cc:Work
         rdf:about="">
        <dc:format>image/svg+xml</dc:format>
        <dc:type
           rdf:resource="http://purl.org/dc/dcmitype/StillImage" />
      </cc:Work>
    </rdf:RDF>
  </metadata>
  <ellipse
     style="opacity:1;fill:none;stroke:#000000;stroke-width:0.582072;stroke-dasharray:none;stroke-opacity:1;filter:url(#filter3)"
     id="path1-5"
     cx="8.4450111"
     cy="8.423522"
     rx="6.8752708"
     ry="6.8578653" />
  <ellipse
     style="opacity:1;fill:#2b323e;stroke-width:0.58207188;stroke-opacity:1;stroke:#f5a97f;stroke-dasharray:none;fill-opacity:1"
     id="path1"
     cx="8.4450111"
     cy="8.423522"
     rx="6.8752708"
     ry="6.8578653" />
  <ellipse
     style="fill:url(#linearGradient4);stroke:none;stroke-width:0.515624;stroke-dasharray:none;stroke-opacity:1"
     id="path1-2"
     cx="8.4450111"
     cy="8.423522"
     rx="6.0904069"
     ry="6.0749874" />
  <path
     style="fill:#000000;stroke-width:0.0105593;opacity:0.3"
     d="M 6.117067,11.639251 C 5.3903026,11.542865 4.8334624,11.020527 4.7007419,10.31068 4.6714412,10.153966 4.6740701,9.8647445 4.7061649,9.7140774 4.7747079,9.3923071 4.9089235,9.1365691 5.1288778,8.9086295 5.3022797,8.7289323 5.4793007,8.607651 5.6916133,8.5230853 5.805083,8.4778897 5.9717226,8.4329858 6.0728778,8.4203473 l 0.057702,-0.00721 0.012693,-0.064925 C 6.1937428,8.0900676 6.3213929,7.856512 6.5124069,7.6728266 6.6697743,7.521497 6.8581545,7.4158213 7.0682,7.3610431 l 0.1139317,-0.029713 0.043633,-0.071637 C 7.3873946,6.9943237 7.6220721,6.7631275 7.8910334,6.604294 8.0757364,6.4952187 8.3043015,6.4109985 8.5245928,6.3708443 c 0.148703,-0.027106 0.495416,-0.027106 0.6441189,0 0.6016907,0.1096748 1.1000913,0.482901 1.3727153,1.027954 0.126656,0.2532199 0.184377,0.4935725 0.192629,0.8021144 l 0.0055,0.2027253 0.02767,0.00516 c 0.01523,0.00284 0.0562,0.0083 0.09104,0.012123 0.10021,0.011009 0.287524,0.061919 0.398643,0.1083487 0.210452,0.087934 0.378483,0.204402 0.547308,0.3793564 0.219955,0.2279397 0.35417,0.4836778 0.422714,0.805448 0.0321,0.1506675 0.03473,0.4398889 0.0055,0.5966029 -0.0952,0.509149 -0.420559,0.941278 -0.8778,1.165843 -0.13762,0.06759 -0.245858,0.106005 -0.398279,0.141356 l -0.09801,0.02272 -2.3547295,0.0014 c -1.2950624,8.05e-4 -2.3689457,-4.65e-4 -2.3863684,-0.0028 z m 1.4677462,-0.901059 c 0.1601673,-0.061 0.2989415,-0.199197 0.3477951,-0.346345 0.032274,-0.09721 0.036971,-0.214277 0.037366,-0.9311933 L 7.9703669,8.73734 8.6434515,8.5004679 c 0.3701966,-0.1302795 0.6790242,-0.238889 0.6862837,-0.2413542 0.010436,-0.00354 0.0132,0.1020084 0.0132,0.5047265 v 0.5092087 l -0.023761,-0.00769 c -0.013068,-0.00423 -0.074258,-0.010044 -0.1359814,-0.012918 -0.086068,-0.00401 -0.1266749,-0.00108 -0.174229,0.012576 -0.1990474,0.057146 -0.3654604,0.2313159 -0.4055571,0.424461 -0.017896,0.086199 -0.00824,0.248006 0.019324,0.3239361 0.056913,0.156766 0.1796662,0.28096 0.3373184,0.341277 0.094114,0.03601 0.2428729,0.04522 0.3377474,0.02092 0.2043013,-0.05234 0.3675724,-0.213832 0.4201078,-0.4155322 0.022664,-0.087007 0.023887,-2.614767 0.0013,-2.6094214 -0.00794,0.00188 -0.492568,0.1720993 -1.0769376,0.3782701 L 7.5797592,8.1037798 7.5796474,8.8772503 c -6.14e-5,0.4254087 -0.00368,0.7733571 -0.00804,0.7732185 -0.00436,-1.393e-4 -0.026926,-0.00497 -0.050157,-0.010726 -0.074839,-0.018557 -0.2252313,-0.013436 -0.3017095,0.010272 -0.2292122,0.071056 -0.38515,0.2741372 -0.3978434,0.5181201 -0.00911,0.175096 0.043467,0.312982 0.1650807,0.432941 0.0766,0.07556 0.1520911,0.120928 0.2493634,0.149869 0.090159,0.02682 0.2609504,0.02057 0.3484577,-0.01275 z"
     id="path7-0" />
  <path
     style="opacity:1;fill:url(#linearGradient14);stroke-width:0.0105593"
     d="M 6.117067,11.110095 C 5.3903026,11.013709 4.8334624,10.491371 4.7007419,9.7815234 4.6714412,9.6248099 4.6740701,9.3355883 4.7061649,9.1849212 4.7747079,8.8631509 4.9089235,8.6074129 5.1288778,8.3794733 5.3022797,8.1997761 5.4793007,8.0784948 5.6916133,7.9939291 5.805083,7.9487335 5.9717226,7.9038296 6.0728778,7.8911911 l 0.057702,-0.00721 0.012693,-0.064925 C 6.1937428,7.5609114 6.3213929,7.3273558 6.5124069,7.1436704 6.6697743,6.9923408 6.8581545,6.8866651 7.0682,6.8318869 L 7.1821317,6.8021743 7.2257646,6.730537 C 7.3873946,6.4651675 7.6220721,6.2339713 7.8910334,6.0751378 8.0757364,5.9660625 8.3043015,5.8818423 8.5245928,5.8416881 c 0.148703,-0.027106 0.495416,-0.027106 0.6441189,0 0.6016907,0.1096748 1.1000913,0.482901 1.3727153,1.027954 0.126656,0.2532199 0.184377,0.4935725 0.192629,0.8021144 l 0.0055,0.2027253 0.02767,0.00516 c 0.01523,0.00284 0.0562,0.0083 0.09104,0.012123 0.10021,0.011009 0.287524,0.061919 0.398643,0.1083487 0.210452,0.087934 0.378483,0.204402 0.547308,0.3793564 0.219955,0.2279397 0.35417,0.4836778 0.422714,0.805448 0.0321,0.1506675 0.03473,0.4398884 0.0055,0.5966025 -0.0952,0.5091496 -0.420559,0.9412786 -0.8778,1.1658436 -0.13762,0.06759 -0.245858,0.106005 -0.398279,0.141356 l -0.09801,0.02272 -2.3547295,0.0014 c -1.2950624,8.05e-4 -2.3689457,-4.65e-4 -2.3863684,-0.0028 z m 1.4677462,-0.901059 c 0.1601673,-0.061 0.2989415,-0.199197 0.3477951,-0.346345 0.032274,-0.09721 0.036971,-0.2142777 0.037366,-0.9311935 L 7.9703669,8.2081838 8.6434515,7.9713117 c 0.3701966,-0.1302795 0.6790242,-0.238889 0.6862837,-0.2413542 0.010436,-0.00354 0.0132,0.1020084 0.0132,0.5047265 v 0.5092087 l -0.023761,-0.00769 c -0.013068,-0.00423 -0.074258,-0.010044 -0.1359814,-0.012918 -0.086068,-0.00401 -0.1266749,-0.00108 -0.174229,0.012576 -0.1990474,0.057146 -0.3654604,0.2313159 -0.4055571,0.424461 -0.017896,0.086199 -0.00824,0.248006 0.019324,0.323936 0.056913,0.1567657 0.1796662,0.2809596 0.3373184,0.3412766 0.094114,0.036006 0.2428729,0.045218 0.3377474,0.020916 0.2043013,-0.05234 0.3675724,-0.2138319 0.4201078,-0.4155317 0.022664,-0.087007 0.023887,-2.614767 0.0013,-2.6094214 -0.00794,0.00188 -0.492568,0.1720993 -1.0769376,0.3782701 L 7.5797592,7.5746236 7.5796474,8.3480941 c -6.14e-5,0.4254087 -0.00368,0.773357 -0.00804,0.7732185 -0.00436,-1.393e-4 -0.026926,-0.00497 -0.050157,-0.010726 -0.074839,-0.018557 -0.2252313,-0.013436 -0.3017095,0.010272 -0.2292122,0.071056 -0.38515,0.2741372 -0.3978434,0.5181205 -0.00911,0.1750954 0.043467,0.3129816 0.1650807,0.4329409 0.0766,0.07556 0.1520911,0.120928 0.2493634,0.149869 0.090159,0.02682 0.2609504,0.02057 0.3484577,-0.01275 z"
     id="path7" />
</svg>
