<?xml version="1.0" encoding="UTF-8" standalone="no"?>
<svg
   width="64"
   height="64"
   version="1.1"
   viewBox="0 0 16.933 16.933"
   id="svg7"
   sodipodi:docname="alienarena.svg"
   inkscape:version="1.4 (e7c3feb100, 2024-10-09)"
   xmlns:inkscape="http://www.inkscape.org/namespaces/inkscape"
   xmlns:sodipodi="http://sodipodi.sourceforge.net/DTD/sodipodi-0.dtd"
   xmlns:xlink="http://www.w3.org/1999/xlink"
   xmlns="http://www.w3.org/2000/svg"
   xmlns:svg="http://www.w3.org/2000/svg"
   xmlns:rdf="http://www.w3.org/1999/02/22-rdf-syntax-ns#"
   xmlns:cc="http://creativecommons.org/ns#"
   xmlns:dc="http://purl.org/dc/elements/1.1/">
  <sodipodi:namedview
     id="namedview7"
     pagecolor="#9c4444"
     bordercolor="#000000"
     borderopacity="0.25"
     inkscape:showpageshadow="2"
     inkscape:pageopacity="0.0"
     inkscape:pagecheckerboard="0"
     inkscape:deskcolor="#d1d1d1"
     inkscape:zoom="4.3531261"
     inkscape:cx="36.066035"
     inkscape:cy="25.958357"
     inkscape:window-width="1280"
     inkscape:window-height="669"
     inkscape:window-x="180"
     inkscape:window-y="166"
     inkscape:window-maximized="0"
     inkscape:current-layer="svg7"
     showgrid="false" />
  <defs
     id="defs2">
    <linearGradient
       id="linearGradient1"
       inkscape:collect="always">
      <stop
         style="stop-color:#d8dee9;stop-opacity:1;"
         offset="0"
         id="stop1" />
      <stop
         style="stop-color:#eceff4;stop-opacity:1;"
         offset="1"
         id="stop2" />
    </linearGradient>
    <linearGradient
       inkscape:collect="always"
       id="linearGradient1134">
      <stop
         style="stop-color:#2e3440;stop-opacity:1;"
         offset="0"
         id="stop1130" />
      <stop
         style="stop-color:#4c566a;stop-opacity:1;"
         offset="1"
         id="stop1132" />
    </linearGradient>
    <filter
       style="color-interpolation-filters:sRGB;"
       inkscape:label="Blur"
       id="filter3"
       x="-0.10843471"
       y="-0.10870992"
       width="1.2168694"
       height="1.2174198">
      <feGaussianBlur
         stdDeviation="0.5 0.5"
         result="blur"
         id="feGaussianBlur3" />
    </filter>
    <linearGradient
       inkscape:collect="always"
       xlink:href="#linearGradient1134"
       id="linearGradient4"
       x1="14.388208"
       y1="14.440324"
       x2="2.2869277"
       y2="2.3637428"
       gradientUnits="userSpaceOnUse" />
    <linearGradient
       inkscape:collect="always"
       xlink:href="#linearGradient1"
       id="linearGradient40"
       x1="11.549605"
       y1="12.079827"
       x2="5.2440867"
       y2="4.7255831"
       gradientUnits="userSpaceOnUse" />
  </defs>
  <metadata
     id="metadata2">
    <rdf:RDF>
      <cc:Work
         rdf:about="">
        <dc:format>image/svg+xml</dc:format>
        <dc:type
           rdf:resource="http://purl.org/dc/dcmitype/StillImage" />
      </cc:Work>
    </rdf:RDF>
  </metadata>
  <ellipse
     style="opacity:1;fill:none;stroke:#000000;stroke-width:0.582072;stroke-dasharray:none;stroke-opacity:1;filter:url(#filter3)"
     id="path1-5"
     cx="8.4450111"
     cy="8.423522"
     rx="6.8752708"
     ry="6.8578653" />
  <ellipse
     style="opacity:1;fill:#2b323e;stroke-width:0.58207188;stroke-opacity:1;stroke:#8aadf4;stroke-dasharray:none;fill-opacity:1"
     id="path1"
     cx="8.4450111"
     cy="8.423522"
     rx="6.8752708"
     ry="6.8578653" />
  <ellipse
     style="fill:url(#linearGradient4);stroke:none;stroke-width:0.515624;stroke-dasharray:none;stroke-opacity:1"
     id="path1-2"
     cx="8.4450111"
     cy="8.423522"
     rx="6.0904069"
     ry="6.0749874" />
  <path
     id="path7-62-1"
     style="fill:#000000;fill-opacity:1;stroke:none;stroke-width:0.241697;stroke-dasharray:none;stroke-opacity:0.3;opacity:0.3"
     d="M 8.4823349,5.1573615 C 7.6655481,5.1512517 6.8474173,5.4685661 6.2055714,6.1104582 5.2694061,7.0466909 4.9306149,8.460134 5.3374459,9.7326038 c 0.2221093,0.6947042 0.7259349,1.4049282 1.2509694,1.7626872 0.087753,0.0598 0.1595575,0.120099 0.1595575,0.134067 0,0.05992 0.2070509,0.430359 0.3228919,0.577805 0.2712807,0.345298 0.7225396,0.606838 1.1626929,0.674579 0.1364464,0.021 0.5164345,-0.0076 0.6788277,-0.05099 0.4985409,-0.133302 0.9208947,-0.495658 1.1693017,-1.003609 0.09822,-0.200848 0.133224,-0.243436 0.317698,-0.384732 0.533566,-0.408675 0.943849,-0.993715 1.164584,-1.6611924 C 11.985443,8.5067299 11.666926,7.0837619 10.75013,6.144448 10.114306,5.4930058 9.2991226,5.163465 8.4823349,5.1573615 Z m 2.0978521,3.4720292 c 0.131198,-0.00556 0.257788,4.726e-4 0.346022,0.019353 0.07979,0.017036 0.08425,0.025523 0.107158,0.2114846 0.03061,0.2484924 -0.01239,0.6130908 -0.10338,0.8747344 -0.215163,0.6187002 -0.748394,1.0924672 -1.3595445,1.2080102 -0.3187148,0.06025 -0.6681472,0.04165 -0.7085675,-0.03729 -0.043399,-0.08476 -0.058999,-0.387303 -0.031157,-0.607539 0.1014949,-0.8028506 0.6339012,-1.4292447 1.3765381,-1.6191793 0.105724,-0.027039 0.241732,-0.044018 0.372931,-0.049568 z m -4.1890948,0.00144 c 0.4390687,0.015643 0.7937606,0.1796518 1.1376741,0.5202151 0.1937645,0.1918767 0.2606202,0.2812395 0.3535756,0.4725362 0.1825534,0.3756787 0.2487328,0.7154839 0.2133729,1.0928279 -0.014641,0.15619 -0.030703,0.212065 -0.065618,0.225645 -0.025529,0.0099 -0.1525104,0.02294 -0.282294,0.02879 -0.8574063,0.03869 -1.6250842,-0.571644 -1.8198057,-1.4468783 -0.044618,-0.2005458 -0.050839,-0.8155735 -0.0085,-0.8577403 0.010048,-0.010003 0.1354058,-0.025033 0.2780459,-0.033043 0.066384,-0.00373 0.1308221,-0.00459 0.1935461,-0.00237 z" />
  <path
     id="path7-62"
     style="opacity:1;fill:url(#linearGradient40);fill-opacity:1;stroke:none;stroke-width:0.241697;stroke-dasharray:none;stroke-opacity:0.3"
     d="M 8.4823349,4.6282053 C 7.6655481,4.6220955 6.8474173,4.9394099 6.2055714,5.581302 5.2694061,6.5175347 4.9306149,7.9309778 5.3374459,9.2034476 c 0.2221093,0.6947037 0.7259349,1.4049284 1.2509694,1.7626874 0.087753,0.0598 0.1595575,0.120099 0.1595575,0.134067 0,0.05992 0.2070509,0.430359 0.3228919,0.577805 0.2712807,0.345298 0.7225396,0.606838 1.1626929,0.674579 0.1364464,0.021 0.5164345,-0.0076 0.6788277,-0.05099 0.4985409,-0.133302 0.9208947,-0.495658 1.1693017,-1.003609 0.09822,-0.200848 0.133224,-0.243436 0.317698,-0.384732 C 10.932951,10.50458 11.343234,9.9195402 11.563969,9.2520624 11.985443,7.9775737 11.666926,6.5546057 10.75013,5.6152918 10.114306,4.9638496 9.2991226,4.6343088 8.4823349,4.6282053 Z m 2.0978521,3.4720292 c 0.131198,-0.00556 0.257788,4.726e-4 0.346022,0.019353 0.07979,0.017036 0.08425,0.025523 0.107158,0.2114847 0.03061,0.2484924 -0.01239,0.6130907 -0.10338,0.8747344 C 10.714824,9.8245064 10.181593,10.298274 9.5704425,10.413817 9.2517277,10.474072 8.9022953,10.455469 8.861875,10.37653 8.8184761,10.291768 8.8028764,9.9892268 8.8307179,9.7689903 8.9322128,8.9661402 9.4646191,8.3397461 10.207256,8.1498115 c 0.105724,-0.027039 0.241732,-0.044018 0.372931,-0.049568 z m -4.1890948,0.00144 c 0.4390687,0.015643 0.7937606,0.1796519 1.1376741,0.5202152 0.1937645,0.1918767 0.2606202,0.2812395 0.3535756,0.4725362 0.1825534,0.3756786 0.2487328,0.7154834 0.2133729,1.0928281 -0.014641,0.15619 -0.030703,0.212065 -0.065618,0.225645 -0.025529,0.0099 -0.1525104,0.02294 -0.282294,0.02879 C 6.8903965,10.480383 6.1227186,9.8700443 5.9279971,8.9948105 5.8833787,8.7942647 5.8771586,8.179237 5.919493,8.1370702 c 0.010048,-0.010003 0.1354058,-0.025033 0.2780459,-0.033043 0.066384,-0.00373 0.1308221,-0.00459 0.1935461,-0.00237 z" />
</svg>
