<?xml version="1.0" encoding="UTF-8" standalone="no"?>
<svg
   width="64"
   height="64"
   version="1.1"
   viewBox="0 0 16.933 16.933"
   id="svg7"
   sodipodi:docname="Misc.svg"
   inkscape:version="1.4 (e7c3feb100, 2024-10-09)"
   xmlns:inkscape="http://www.inkscape.org/namespaces/inkscape"
   xmlns:sodipodi="http://sodipodi.sourceforge.net/DTD/sodipodi-0.dtd"
   xmlns:xlink="http://www.w3.org/1999/xlink"
   xmlns="http://www.w3.org/2000/svg"
   xmlns:svg="http://www.w3.org/2000/svg"
   xmlns:rdf="http://www.w3.org/1999/02/22-rdf-syntax-ns#"
   xmlns:cc="http://creativecommons.org/ns#"
   xmlns:dc="http://purl.org/dc/elements/1.1/">
  <sodipodi:namedview
     id="namedview7"
     pagecolor="#9c4444"
     bordercolor="#000000"
     borderopacity="0.25"
     inkscape:showpageshadow="2"
     inkscape:pageopacity="0.0"
     inkscape:pagecheckerboard="0"
     inkscape:deskcolor="#d1d1d1"
     inkscape:zoom="4.3531261"
     inkscape:cx="36.755195"
     inkscape:cy="25.958357"
     inkscape:window-width="1280"
     inkscape:window-height="669"
     inkscape:window-x="24"
     inkscape:window-y="205"
     inkscape:window-maximized="0"
     inkscape:current-layer="svg7"
     showgrid="false" />
  <defs
     id="defs2">
    <linearGradient
       id="linearGradient1"
       inkscape:collect="always">
      <stop
         style="stop-color:#d8dee9;stop-opacity:1;"
         offset="0"
         id="stop1" />
      <stop
         style="stop-color:#eceff4;stop-opacity:1;"
         offset="1"
         id="stop2" />
    </linearGradient>
    <linearGradient
       inkscape:collect="always"
       id="linearGradient1134">
      <stop
         style="stop-color:#2e3440;stop-opacity:1;"
         offset="0"
         id="stop1130" />
      <stop
         style="stop-color:#4c566a;stop-opacity:1;"
         offset="1"
         id="stop1132" />
    </linearGradient>
    <filter
       style="color-interpolation-filters:sRGB;"
       inkscape:label="Blur"
       id="filter3"
       x="-0.10843471"
       y="-0.10870992"
       width="1.2168694"
       height="1.2174198">
      <feGaussianBlur
         stdDeviation="0.5 0.5"
         result="blur"
         id="feGaussianBlur3" />
    </filter>
    <linearGradient
       inkscape:collect="always"
       xlink:href="#linearGradient1134"
       id="linearGradient4"
       x1="14.388208"
       y1="14.440324"
       x2="2.2869277"
       y2="2.3637428"
       gradientUnits="userSpaceOnUse" />
    <linearGradient
       inkscape:collect="always"
       xlink:href="#linearGradient1"
       id="linearGradient51"
       x1="12.322971"
       y1="10.503264"
       x2="4.8251143"
       y2="5.8908234"
       gradientUnits="userSpaceOnUse"
       gradientTransform="matrix(0.9,0,0,0.9,0.8465991,1.3215102)" />
  </defs>
  <metadata
     id="metadata2">
    <rdf:RDF>
      <cc:Work
         rdf:about="">
        <dc:format>image/svg+xml</dc:format>
        <dc:type
           rdf:resource="http://purl.org/dc/dcmitype/StillImage" />
      </cc:Work>
    </rdf:RDF>
  </metadata>
  <ellipse
     style="opacity:1;fill:none;stroke:#000000;stroke-width:0.582072;stroke-dasharray:none;stroke-opacity:1;filter:url(#filter3)"
     id="path1-5"
     cx="8.4450111"
     cy="8.423522"
     rx="6.8752708"
     ry="6.8578653" />
  <ellipse
     style="opacity:1;fill:#2b323e;stroke-width:0.58207188;stroke-opacity:1;stroke:#9267d7;stroke-dasharray:none;fill-opacity:1"
     id="path1"
     cx="8.4450111"
     cy="8.423522"
     rx="6.8752708"
     ry="6.8578653" />
  <ellipse
     style="fill:url(#linearGradient4);stroke:none;stroke-width:0.515624;stroke-dasharray:none;stroke-opacity:1"
     id="path1-2"
     cx="8.4450111"
     cy="8.423522"
     rx="6.0904069"
     ry="6.0749874" />
  <path
     id="path7-0"
     style="fill:#000000;fill-opacity:1;stroke-width:0.117658;opacity:0.3"
     d="m 5.6987848,6.8703493 c -0.031343,7.505e-4 -0.060603,0.013702 -0.1128022,0.03964 -0.1469032,0.072991 -0.2302535,0.1924683 -0.2302535,0.3298425 0,0.091372 0.055894,0.1963176 0.3190761,0.598023 L 5.9938814,8.3247887 6.2456678,8.1229191 C 6.3841625,8.0117998 6.5084527,7.9208046 6.5216784,7.9208046 c 0.056117,0 0.00809,-0.090854 -0.27283,-0.5172753 C 5.977852,6.9921779 5.94085,6.9487167 5.8240663,6.9041165 5.7635051,6.8809879 5.7301274,6.8695687 5.6987848,6.8703493 Z m 5.5123822,0.018352 c -0.0629,7.939e-4 -0.124688,0.023185 -0.181071,0.067534 -0.07897,0.062114 -0.6313,0.8762631 -0.6313,0.9305569 0,0.014367 0.04969,0.059184 0.110355,0.099589 0.06066,0.040405 0.176333,0.128363 0.256925,0.1952627 0.0806,0.0669 0.153356,0.1212154 0.161741,0.120877 0.0085,-3.401e-4 0.154347,-0.2153931 0.324214,-0.4778799 0.27119,-0.4190575 0.308799,-0.492766 0.308799,-0.6046298 0,-0.1095457 -0.01538,-0.1414714 -0.109867,-0.2280514 -0.07597,-0.06962 -0.158907,-0.1042908 -0.239796,-0.1032585 z M 8.4327095,7.3790608 C 8.0408392,7.3814998 7.6544203,7.4498872 7.2809522,7.5841113 5.993955,8.0466585 5.0667854,9.2027474 4.8700187,10.590131 c -0.035945,0.253452 -0.00226,0.371747 0.127973,0.451454 0.089097,0.05452 0.1903723,0.05594 3.4988266,0.04869 l 3.4070677,-0.0073 0.08589,-0.09617 c 0.10188,-0.11403 0.109613,-0.227465 0.04062,-0.591173 C 11.764616,8.9945498 10.693591,7.8332161 9.3537235,7.4933305 9.0455854,7.4151652 8.7374972,7.377163 8.4327095,7.3790608 Z M 6.731378,9.3620302 c 0.1463115,0 0.2591985,0.070871 0.3295974,0.2070083 C 7.1486498,9.7385816 7.0848317,9.9682451 6.922481,10.067228 6.6548344,10.230407 6.3277796,10.042239 6.3325325,9.7278425 6.335958,9.5012629 6.4877057,9.3620302 6.731378,9.3620302 Z m 3.503475,0 c 0.37425,0 0.507552,0.5103259 0.184741,0.7071558 -0.119448,0.07283 -0.274008,0.07332 -0.392238,0.0012 C 9.8944269,9.9893605 9.8399229,9.8963965 9.8399229,9.749872 c 0,-0.23927 0.1513566,-0.3878343 0.3949301,-0.3878343 z" />
  <path
     id="path7"
     style="fill:url(#linearGradient51);fill-opacity:1;stroke-width:0.117658"
     d="m 5.6987848,6.3411931 c -0.031343,7.505e-4 -0.060603,0.013702 -0.1128022,0.03964 -0.1469032,0.072991 -0.2302535,0.1924683 -0.2302535,0.3298425 0,0.091372 0.055894,0.1963176 0.3190761,0.598023 L 5.9938814,7.7956325 6.2456678,7.5937629 C 6.3841625,7.4826436 6.5084527,7.3916484 6.5216784,7.3916484 c 0.056117,0 0.00809,-0.090854 -0.27283,-0.5172753 C 5.977852,6.4630217 5.94085,6.4195605 5.8240663,6.3749603 5.7635051,6.3518317 5.7301274,6.3404125 5.6987848,6.3411931 Z m 5.5123822,0.018352 c -0.0629,7.939e-4 -0.124688,0.023185 -0.181071,0.067534 -0.07897,0.062114 -0.6313,0.8762631 -0.6313,0.9305569 0,0.014367 0.04969,0.059184 0.110355,0.099589 0.06066,0.040405 0.176333,0.128363 0.256925,0.1952627 0.0806,0.0669 0.153356,0.1212154 0.161741,0.120877 0.0085,-3.401e-4 0.154347,-0.2153931 0.324214,-0.4778799 0.27119,-0.4190575 0.308799,-0.492766 0.308799,-0.6046298 0,-0.1095457 -0.01538,-0.1414714 -0.109867,-0.2280514 -0.07597,-0.06962 -0.158907,-0.1042908 -0.239796,-0.1032585 z M 8.4327095,6.8499046 C 8.0408392,6.8523436 7.6544203,6.920731 7.2809522,7.0549551 5.993955,7.5175023 5.0667854,8.6735912 4.8700187,10.060975 c -0.035945,0.253452 -0.00226,0.371747 0.127973,0.451454 0.089097,0.05452 0.1903723,0.05594 3.4988266,0.04869 l 3.4070677,-0.0073 0.08589,-0.09617 c 0.10188,-0.11403 0.109613,-0.227465 0.04062,-0.5911734 C 11.764616,8.4653936 10.693591,7.3040599 9.3537235,6.9641743 9.0455854,6.886009 8.7374972,6.8480068 8.4327095,6.8499046 Z M 6.731378,8.832874 c 0.1463115,0 0.2591985,0.070871 0.3295974,0.2070083 C 7.1486498,9.2094254 7.0848317,9.4390889 6.922481,9.5380716 6.6548344,9.7012506 6.3277796,9.5130825 6.3325325,9.1986863 6.335958,8.9721067 6.4877057,8.832874 6.731378,8.832874 Z m 3.503475,0 c 0.37425,0 0.507552,0.5103259 0.184741,0.7071553 -0.119448,0.072828 -0.274008,0.073317 -0.392238,0.00123 -0.1329291,-0.081055 -0.1874331,-0.174019 -0.1874331,-0.3205435 0,-0.23927 0.1513566,-0.3878343 0.3949301,-0.3878343 z" />
</svg>
