<?xml version="1.0" encoding="UTF-8" standalone="no"?>
<svg
   width="64"
   height="64"
   version="1.1"
   viewBox="0 0 16.933 16.933"
   id="svg7"
   sodipodi:docname="application-default-icon.svg"
   inkscape:version="1.4 (e7c3feb100, 2024-10-09)"
   xmlns:inkscape="http://www.inkscape.org/namespaces/inkscape"
   xmlns:sodipodi="http://sodipodi.sourceforge.net/DTD/sodipodi-0.dtd"
   xmlns:xlink="http://www.w3.org/1999/xlink"
   xmlns="http://www.w3.org/2000/svg"
   xmlns:svg="http://www.w3.org/2000/svg"
   xmlns:rdf="http://www.w3.org/1999/02/22-rdf-syntax-ns#"
   xmlns:cc="http://creativecommons.org/ns#"
   xmlns:dc="http://purl.org/dc/elements/1.1/">
  <sodipodi:namedview
     id="namedview7"
     pagecolor="#9c4444"
     bordercolor="#000000"
     borderopacity="0.25"
     inkscape:showpageshadow="2"
     inkscape:pageopacity="0.0"
     inkscape:pagecheckerboard="0"
     inkscape:deskcolor="#d1d1d1"
     inkscape:zoom="4.3531261"
     inkscape:cx="57.889433"
     inkscape:cy="33.768836"
     inkscape:window-width="1280"
     inkscape:window-height="669"
     inkscape:window-x="586"
     inkscape:window-y="243"
     inkscape:window-maximized="0"
     inkscape:current-layer="svg7"
     showgrid="false" />
  <defs
     id="defs2">
    <linearGradient
       id="linearGradient1"
       inkscape:collect="always">
      <stop
         style="stop-color:#d8dee9;stop-opacity:1;"
         offset="0"
         id="stop1" />
      <stop
         style="stop-color:#eceff4;stop-opacity:1;"
         offset="1"
         id="stop2" />
    </linearGradient>
    <linearGradient
       inkscape:collect="always"
       id="linearGradient1134">
      <stop
         style="stop-color:#2e3440;stop-opacity:1;"
         offset="0"
         id="stop1130" />
      <stop
         style="stop-color:#4c566a;stop-opacity:1;"
         offset="1"
         id="stop1132" />
    </linearGradient>
    <filter
       style="color-interpolation-filters:sRGB;"
       inkscape:label="Blur"
       id="filter3"
       x="-0.10843471"
       y="-0.10870992"
       width="1.2168694"
       height="1.2174198">
      <feGaussianBlur
         stdDeviation="0.5 0.5"
         result="blur"
         id="feGaussianBlur3" />
    </filter>
    <linearGradient
       inkscape:collect="always"
       xlink:href="#linearGradient1134"
       id="linearGradient4"
       x1="14.388208"
       y1="14.440324"
       x2="2.2869277"
       y2="2.3637428"
       gradientUnits="userSpaceOnUse" />
    <linearGradient
       inkscape:collect="always"
       xlink:href="#linearGradient1"
       id="linearGradient24"
       x1="12.212248"
       y1="12.682209"
       x2="4.4815063"
       y2="4.3555021"
       gradientUnits="userSpaceOnUse" />
  </defs>
  <metadata
     id="metadata2">
    <rdf:RDF>
      <cc:Work
         rdf:about="">
        <dc:format>image/svg+xml</dc:format>
        <dc:type
           rdf:resource="http://purl.org/dc/dcmitype/StillImage" />
      </cc:Work>
    </rdf:RDF>
  </metadata>
  <ellipse
     style="opacity:1;fill:none;stroke:#000000;stroke-width:0.582072;stroke-dasharray:none;stroke-opacity:1;filter:url(#filter3)"
     id="path1-5"
     cx="8.4450111"
     cy="8.423522"
     rx="6.8752708"
     ry="6.8578653" />
  <ellipse
     style="opacity:1;fill:#2b323e;stroke-width:0.58207188;stroke-opacity:1;stroke:#ed8796;stroke-dasharray:none;fill-opacity:1"
     id="path1"
     cx="8.4450111"
     cy="8.423522"
     rx="6.8752708"
     ry="6.8578653" />
  <ellipse
     style="fill:url(#linearGradient4);stroke:none;stroke-width:0.515624;stroke-dasharray:none;stroke-opacity:1"
     id="path1-2"
     cx="8.4450111"
     cy="8.423522"
     rx="6.0904069"
     ry="6.0749874" />
  <path
     style="color:#000000;clip-rule:nonzero;display:inline;overflow:visible;visibility:visible;isolation:auto;mix-blend-mode:normal;color-interpolation:sRGB;color-interpolation-filters:linearRGB;solid-color:#000000;solid-opacity:1;fill:#000000;fill-opacity:1;fill-rule:nonzero;stroke:none;stroke-width:0.107154;stroke-linecap:butt;stroke-linejoin:miter;stroke-miterlimit:4;stroke-dasharray:none;stroke-dashoffset:0;stroke-opacity:0.6;marker:none;color-rendering:auto;image-rendering:auto;shape-rendering:auto;text-rendering:auto;enable-background:accumulate;opacity:0.3"
     d="m 7.900563,4.9835935 c -0.1021974,0 -0.1873625,0.4066104 -0.2373535,0.9877135 A 3.1232963,3.2173499 0 0 0 6.9084499,6.2980689 C 6.4724528,5.9216542 6.1318756,5.6944365 6.0594152,5.7690794 l -0.8035613,0.82776 c -0.072461,0.074641 0.1481147,0.4254758 0.5135246,0.8746017 A 3.1232963,3.2173499 0 0 0 5.454941,8.2489295 C 4.8892463,8.3003763 4.4933303,8.3879782 4.4933303,8.4934302 v 1.1699441 c 0,0.1052752 0.3947233,0.1930055 0.9588387,0.2445017 a 3.1232963,3.2173499 0 0 0 0.3161007,0.779199 c -0.3645794,0.448321 -0.58479,0.798335 -0.5124158,0.872889 l 0.8035613,0.827758 c 0.072303,0.07448 0.4116586,-0.151815 0.8462624,-0.526703 a 3.1232963,3.2173499 0 0 0 0.7575319,0.321621 c 0.049942,0.582732 0.134985,0.990569 0.2373535,0.990569 h 1.1357432 c 0.1021983,0 0.1873629,-0.406611 0.2373533,-0.987713 a 3.1232963,3.2173499 0 0 0 0.7547595,-0.326759 c 0.435998,0.376412 0.776574,0.603629 0.849036,0.528985 l 0.803562,-0.827758 c 0.07245,-0.07461 -0.148117,-0.425476 -0.513526,-0.874603 A 3.1232963,3.2173499 0 0 0 11.481928,9.9078761 C 12.047622,9.8564291 12.44354,9.7688268 12.44354,9.6633745 V 8.4934298 c 0,-0.1052752 -0.394725,-0.1930047 -0.958839,-0.2445003 A 3.1232963,3.2173499 0 0 0 11.168599,7.469728 c 0.36458,-0.4483225 0.584791,-0.7983357 0.512418,-0.8728886 l -0.803562,-0.82776 c -0.07231,-0.074482 -0.411659,0.1518172 -0.846264,0.5267042 A 3.1232963,3.2173499 0 0 0 9.2736595,5.9741628 C 9.2237167,5.3914325 9.1386753,4.9835949 9.0363062,4.9835949 Z m 0.5678716,2.632377 A 1.4196801,1.4624316 0 0 1 9.8881155,9.0784021 1.4196801,1.4624316 0 0 1 8.4684346,10.540833 1.4196801,1.4624316 0 0 1 7.0487541,9.0784021 1.4196801,1.4624316 0 0 1 8.4684346,7.6159705 Z"
     id="path4690-0"
     inkscape:connector-curvature="0" />
  <path
     style="color:#000000;clip-rule:nonzero;display:inline;overflow:visible;visibility:visible;opacity:1;isolation:auto;mix-blend-mode:normal;color-interpolation:sRGB;color-interpolation-filters:linearRGB;solid-color:#000000;solid-opacity:1;fill:url(#linearGradient24);fill-opacity:1;fill-rule:nonzero;stroke:none;stroke-width:0.107154;stroke-linecap:butt;stroke-linejoin:miter;stroke-miterlimit:4;stroke-dasharray:none;stroke-dashoffset:0;stroke-opacity:0.6;marker:none;color-rendering:auto;image-rendering:auto;shape-rendering:auto;text-rendering:auto;enable-background:accumulate"
     d="m 7.900563,4.4544373 c -0.1021974,0 -0.1873625,0.4066104 -0.2373535,0.9877135 A 3.1232963,3.2173499 0 0 0 6.9084499,5.7689127 C 6.4724528,5.392498 6.1318756,5.1652803 6.0594152,5.2399232 l -0.8035613,0.82776 C 5.1833929,6.1423242 5.4039686,6.493159 5.7693785,6.9422849 A 3.1232963,3.2173499 0 0 0 5.454941,7.7197733 C 4.8892463,7.7712201 4.4933303,7.858822 4.4933303,7.964274 v 1.1699441 c 0,0.1052752 0.3947233,0.1930055 0.9588387,0.2445017 a 3.1232963,3.2173499 0 0 0 0.3161007,0.7791992 c -0.3645794,0.448321 -0.58479,0.798335 -0.5124158,0.872889 l 0.8035613,0.827758 c 0.072303,0.07448 0.4116586,-0.151815 0.8462624,-0.526703 a 3.1232963,3.2173499 0 0 0 0.7575319,0.321621 c 0.049942,0.582732 0.134985,0.990569 0.2373535,0.990569 h 1.1357432 c 0.1021983,0 0.1873629,-0.406611 0.2373533,-0.987713 a 3.1232963,3.2173499 0 0 0 0.7547595,-0.326759 c 0.435998,0.376412 0.776574,0.603629 0.849036,0.528985 l 0.803562,-0.827758 c 0.07245,-0.07461 -0.148117,-0.425476 -0.513526,-0.874603 A 3.1232963,3.2173499 0 0 0 11.481928,9.3787199 C 12.047622,9.3272729 12.44354,9.2396706 12.44354,9.1342183 V 7.9642736 c 0,-0.1052753 -0.394725,-0.1930048 -0.958839,-0.2445003 A 3.1232963,3.2173499 0 0 0 11.168599,6.9405718 c 0.36458,-0.4483225 0.584791,-0.7983357 0.512418,-0.8728886 l -0.803562,-0.82776 c -0.07231,-0.074482 -0.411659,0.1518172 -0.846264,0.5267042 A 3.1232963,3.2173499 0 0 0 9.2736595,5.4450066 C 9.2237167,4.8622763 9.1386753,4.4544387 9.0363062,4.4544387 Z m 0.5678716,2.632377 A 1.4196801,1.4624316 0 0 1 9.8881155,8.5492459 1.4196801,1.4624316 0 0 1 8.4684346,10.011677 1.4196801,1.4624316 0 0 1 7.0487541,8.5492459 1.4196801,1.4624316 0 0 1 8.4684346,7.0868143 Z"
     id="path4690"
     inkscape:connector-curvature="0" />
</svg>
