<?xml version="1.0" encoding="UTF-8" standalone="no"?>
<svg
   width="64"
   height="64"
   version="1.1"
   viewBox="0 0 16.933 16.933"
   id="svg7"
   sodipodi:docname="internet.svg"
   inkscape:version="1.4 (e7c3feb100, 2024-10-09)"
   xmlns:inkscape="http://www.inkscape.org/namespaces/inkscape"
   xmlns:sodipodi="http://sodipodi.sourceforge.net/DTD/sodipodi-0.dtd"
   xmlns:xlink="http://www.w3.org/1999/xlink"
   xmlns="http://www.w3.org/2000/svg"
   xmlns:svg="http://www.w3.org/2000/svg"
   xmlns:rdf="http://www.w3.org/1999/02/22-rdf-syntax-ns#"
   xmlns:cc="http://creativecommons.org/ns#"
   xmlns:dc="http://purl.org/dc/elements/1.1/">
  <sodipodi:namedview
     id="namedview7"
     pagecolor="#9c4444"
     bordercolor="#000000"
     borderopacity="0.25"
     inkscape:showpageshadow="2"
     inkscape:pageopacity="0.0"
     inkscape:pagecheckerboard="0"
     inkscape:deskcolor="#d1d1d1"
     inkscape:zoom="4.3531261"
     inkscape:cx="36.755195"
     inkscape:cy="25.958357"
     inkscape:window-width="1280"
     inkscape:window-height="669"
     inkscape:window-x="123"
     inkscape:window-y="215"
     inkscape:window-maximized="0"
     inkscape:current-layer="svg7"
     showgrid="false" />
  <defs
     id="defs2">
    <linearGradient
       id="linearGradient1"
       inkscape:collect="always">
      <stop
         style="stop-color:#d8dee9;stop-opacity:1;"
         offset="0"
         id="stop1" />
      <stop
         style="stop-color:#eceff4;stop-opacity:1;"
         offset="1"
         id="stop2" />
    </linearGradient>
    <linearGradient
       inkscape:collect="always"
       id="linearGradient1134">
      <stop
         style="stop-color:#2e3440;stop-opacity:1;"
         offset="0"
         id="stop1130" />
      <stop
         style="stop-color:#4c566a;stop-opacity:1;"
         offset="1"
         id="stop1132" />
    </linearGradient>
    <filter
       style="color-interpolation-filters:sRGB;"
       inkscape:label="Blur"
       id="filter3"
       x="-0.10843471"
       y="-0.10870992"
       width="1.2168694"
       height="1.2174198">
      <feGaussianBlur
         stdDeviation="0.5 0.5"
         result="blur"
         id="feGaussianBlur3" />
    </filter>
    <linearGradient
       inkscape:collect="always"
       xlink:href="#linearGradient1134"
       id="linearGradient4"
       x1="14.388208"
       y1="14.440324"
       x2="2.2869277"
       y2="2.3637428"
       gradientUnits="userSpaceOnUse" />
    <filter
       style="color-interpolation-filters:sRGB"
       inkscape:label="Blur"
       id="filter3-8"
       x="-0.10843471"
       y="-0.10870992"
       width="1.2168694"
       height="1.2174198">
      <feGaussianBlur
         stdDeviation="0.5 0.5"
         result="blur"
         id="feGaussianBlur3-7" />
    </filter>
    <linearGradient
       inkscape:collect="always"
       xlink:href="#linearGradient1134"
       id="linearGradient11"
       gradientUnits="userSpaceOnUse"
       x1="14.388208"
       y1="14.440324"
       x2="2.2869277"
       y2="2.3637428"
       gradientTransform="matrix(0.4782969,0,0,0.4782969,8.9000071,8.8280171)" />
    <linearGradient
       inkscape:collect="always"
       xlink:href="#linearGradient1"
       id="linearGradient7"
       x1="12.530917"
       y1="11.286328"
       x2="4.4042015"
       y2="4.6776795"
       gradientUnits="userSpaceOnUse"
       gradientTransform="matrix(0.88209,0,0,0.88209,0.98860006,1.4911043)" />
    <linearGradient
       inkscape:collect="always"
       xlink:href="#linearGradient1"
       id="linearGradient7-8"
       x1="14.39997"
       y1="15.090709"
       x2="11.494932"
       y2="10.719304"
       gradientUnits="userSpaceOnUse"
       gradientTransform="matrix(0.9,0,0,0.9,1.284922,1.2905006)" />
  </defs>
  <metadata
     id="metadata2">
    <rdf:RDF>
      <cc:Work
         rdf:about="">
        <dc:format>image/svg+xml</dc:format>
        <dc:type
           rdf:resource="http://purl.org/dc/dcmitype/StillImage" />
      </cc:Work>
    </rdf:RDF>
  </metadata>
  <ellipse
     style="opacity:1;fill:none;stroke:#000000;stroke-width:0.582072;stroke-dasharray:none;stroke-opacity:1;filter:url(#filter3)"
     id="path1-5"
     cx="8.4450111"
     cy="8.423522"
     rx="6.8752708"
     ry="6.8578653" />
  <ellipse
     style="opacity:1;fill:#2b323e;stroke-width:0.58207188;stroke-opacity:1;stroke:#ed8796;stroke-dasharray:none;fill-opacity:1"
     id="path1"
     cx="8.4450111"
     cy="8.423522"
     rx="6.8752708"
     ry="6.8578653" />
  <ellipse
     style="fill:url(#linearGradient4);stroke:none;stroke-width:0.515624;stroke-dasharray:none;stroke-opacity:1"
     id="path1-2"
     cx="8.4450111"
     cy="8.423522"
     rx="6.0904069"
     ry="6.0749874" />
  <path
     d="m 9.1199316,8.6831812 q 0,0.7885857 -0.2849512,1.3717418 -0.2783245,0.583155 -0.8747338,0.854852 l 1.1464315,1.272341 H 7.801204 L 6.9596039,11.121833 q -0.019881,0 -0.046388,0 -0.026507,0 -0.046388,0 -0.7687054,0 -1.2723399,-0.304832 Q 5.0974812,10.51217 4.8522907,9.962148 4.6137269,9.4121261 4.6137269,8.6765544 q 0,-0.7289449 0.2385638,-1.2723403 Q 5.0974812,6.8541922 5.5944891,6.5559874 6.0981237,6.251156 6.8734561,6.251156 q 0.7687054,0 1.2657132,0.3048314 0.5036346,0.2982048 0.7421985,0.8482267 0.2385638,0.5433954 0.2385638,1.2789671 z m -3.4392945,0 q 0,0.7421983 0.2783245,1.1663117 0.2849511,0.4174861 0.9078676,0.4174861 0.6361701,0 0.9078679,-0.4174861 0.2783242,-0.4241133 0.2783242,-1.1663117 0,-0.7421985 -0.2783242,-1.1663118 Q 7.5029993,7.092756 6.8734561,7.092756 q -0.6295434,0 -0.9144945,0.4241134 Q 5.6806371,7.9409827 5.6806371,8.6831812 Z M 11.53208,10.333248 q 0.165668,0 0.318084,-0.03314 0.152416,-0.03313 0.304832,-0.07952 v 0.735571 q -0.159043,0.06628 -0.397606,0.112655 -0.231939,0.05301 -0.510262,0.05301 -0.324713,0 -0.583156,-0.106027 Q 10.412155,10.909777 10.259739,10.651334 10.11395,10.386262 10.11395,9.9223881 V 8.1795465 H 9.643449 V 7.7620599 L 10.186844,7.4307214 10.471795,6.6686425 H 11.10134 V 7.437348 h 1.013894 V 8.1795465 H 11.10134 v 1.7428409 q 0,0.2054296 0.119281,0.3114586 0.119281,0.0994 0.311459,0.0994 z"
     id="text3-3"
     style="font-weight:bold;font-size:7.51258px;-inkscape-font-specification:'sans-serif Bold';fill:#000000;stroke:none;stroke-width:0.0964386;stroke-dasharray:none;stroke-opacity:0.6;opacity:0.3"
     aria-label="Qt" />
  <path
     d="m 9.1199316,8.154025 q 0,0.7885857 -0.2849512,1.3717416 Q 8.5566559,10.108922 7.9602466,10.380619 L 9.1066781,11.65296 H 7.801204 L 6.9596039,10.592677 q -0.019881,0 -0.046388,0 -0.026507,0 -0.046388,0 -0.7687054,0 -1.2723399,-0.304832 Q 5.0974812,9.9830138 4.8522907,9.4329918 4.6137269,8.8829699 4.6137269,8.1473982 q 0,-0.7289449 0.2385638,-1.2723403 0.2451905,-0.5500219 0.7421984,-0.8482267 0.5036346,-0.3048314 1.278967,-0.3048314 0.7687054,0 1.2657132,0.3048314 0.5036346,0.2982048 0.7421985,0.8482267 0.2385638,0.5433954 0.2385638,1.2789671 z m -3.4392945,0 q 0,0.7421983 0.2783245,1.1663117 0.2849511,0.4174865 0.9078676,0.4174865 0.6361701,0 0.9078679,-0.4174865 0.2783242,-0.4241133 0.2783242,-1.1663117 0,-0.7421985 -0.2783242,-1.1663118 -0.2716978,-0.4241134 -0.901241,-0.4241134 -0.6295434,0 -0.9144945,0.4241134 Q 5.6806371,7.4118265 5.6806371,8.154025 Z M 11.53208,9.8040917 q 0.165668,0 0.318084,-0.033137 0.152416,-0.033133 0.304832,-0.079522 v 0.7355713 q -0.159043,0.06628 -0.397606,0.112655 -0.231939,0.05301 -0.510262,0.05301 -0.324713,0 -0.583156,-0.106027 Q 10.412155,10.380621 10.259739,10.122178 10.11395,9.8571054 10.11395,9.3932319 V 7.6503903 H 9.643449 V 7.2329037 l 0.543395,-0.3313385 0.284951,-0.7620789 h 0.629545 v 0.7687055 h 1.013894 V 7.6503903 H 11.10134 v 1.7428409 q 0,0.2054299 0.119281,0.3114582 0.119281,0.099402 0.311459,0.099402 z"
     id="text3"
     style="font-weight:bold;font-size:7.51258px;-inkscape-font-specification:'sans-serif Bold';fill:url(#linearGradient7);stroke:none;stroke-width:0.0964386;stroke-dasharray:none;stroke-opacity:0.6"
     aria-label="Qt" />
  <ellipse
     style="fill:none;stroke:#000000;stroke-width:0.582072;stroke-dasharray:none;stroke-opacity:1;filter:url(#filter3-8)"
     id="path1-5-7"
     cx="8.4450111"
     cy="8.423522"
     rx="6.8752708"
     ry="6.8578653"
     transform="matrix(0.4782969,0,0,0.4782969,8.9000071,8.8280171)" />
  <ellipse
     style="fill:#2b323e;fill-opacity:1;stroke:#ed8796;stroke-width:0.278402;stroke-dasharray:none;stroke-opacity:1"
     id="path1-59"
     cx="12.939234"
     cy="12.856965"
     rx="3.2884204"
     ry="3.2800953" />
  <ellipse
     style="fill:url(#linearGradient11);stroke:none;stroke-width:0.246622;stroke-dasharray:none;stroke-opacity:1"
     id="path1-2-2"
     cx="12.939234"
     cy="12.856965"
     rx="2.9130225"
     ry="2.9056478" />
  <path
     fill="url(#a)"
     stroke-linejoin="round"
     stroke-width="0.38026"
     d="m 12.848835,11.312691 c -0.375075,0 -0.725246,0.13153 -0.971976,0.377419 -0.24673,0.246643 -0.378139,0.596888 -0.378139,0.971853 h 0.771986 c 0,-0.203617 0.0613,-0.335526 0.152099,-0.426483 0.0908,-0.09077 0.222785,-0.152099 0.426413,-0.152099 0.203628,0 0.335613,0.06133 0.426413,0.152099 0.0908,0.09077 0.152098,0.222866 0.152098,0.426483 0,0.176821 -0.03487,0.252116 -0.08141,0.31873 -0.04655,0.06662 -0.12279,0.129644 -0.236193,0.20909 -0.113404,0.07945 -0.264162,0.170971 -0.403426,0.333449 -0.139264,0.16248 -0.243282,0.408557 -0.243282,0.681808 v 0.192861 h 0.771988 V 14.20504 c 0,-0.112471 0.01609,-0.131531 0.05766,-0.180029 0.04157,-0.0485 0.132368,-0.113791 0.259948,-0.203051 0.127578,-0.08926 0.292511,-0.207203 0.426795,-0.399686 0.134284,-0.192484 0.219911,-0.45479 0.219911,-0.760499 0,-0.374966 -0.131601,-0.72521 -0.378139,-0.971853 -0.246732,-0.246644 -0.596904,-0.377419 -0.971979,-0.377419 m -0.385036,3.471875 v 0.771443 h 0.771987 v -0.771443 z"
     id="path14-6"
     style="fill:#000000;opacity:0.3" />
  <path
     fill="url(#a)"
     stroke-linejoin="round"
     stroke-width="0.38026"
     d="m 12.848835,10.783535 c -0.375075,0 -0.725246,0.13153 -0.971976,0.377419 -0.24673,0.246643 -0.378139,0.596888 -0.378139,0.971853 h 0.771986 c 0,-0.203617 0.0613,-0.335526 0.152099,-0.426483 0.0908,-0.09077 0.222785,-0.152099 0.426413,-0.152099 0.203628,0 0.335613,0.06133 0.426413,0.152099 0.0908,0.09077 0.152098,0.222866 0.152098,0.426483 0,0.176821 -0.03487,0.252116 -0.08141,0.31873 -0.04655,0.06662 -0.12279,0.129644 -0.236193,0.20909 -0.113404,0.07945 -0.264162,0.170971 -0.403426,0.333449 -0.139264,0.16248 -0.243282,0.408557 -0.243282,0.681808 v 0.192861 h 0.771988 v -0.192861 c 0,-0.112471 0.01609,-0.131531 0.05766,-0.180029 0.04157,-0.0485 0.132368,-0.113791 0.259948,-0.203051 0.127578,-0.08926 0.292511,-0.207203 0.426795,-0.399686 0.134284,-0.192484 0.219911,-0.45479 0.219911,-0.760499 0,-0.374966 -0.131601,-0.72521 -0.378139,-0.971853 -0.246732,-0.246644 -0.596904,-0.377419 -0.971979,-0.377419 m -0.385036,3.471875 v 0.771443 h 0.771987 v -0.771443 z"
     id="path14"
     style="fill:url(#linearGradient7-8)" />
</svg>
