<?xml version="1.0" encoding="UTF-8" standalone="no"?>
<svg
   width="64"
   height="64"
   version="1.1"
   viewBox="0 0 16.933 16.933"
   id="svg7"
   sodipodi:docname="internet.svg"
   inkscape:version="1.4 (e7c3feb100, 2024-10-09)"
   xmlns:inkscape="http://www.inkscape.org/namespaces/inkscape"
   xmlns:sodipodi="http://sodipodi.sourceforge.net/DTD/sodipodi-0.dtd"
   xmlns:xlink="http://www.w3.org/1999/xlink"
   xmlns="http://www.w3.org/2000/svg"
   xmlns:svg="http://www.w3.org/2000/svg"
   xmlns:rdf="http://www.w3.org/1999/02/22-rdf-syntax-ns#"
   xmlns:cc="http://creativecommons.org/ns#"
   xmlns:dc="http://purl.org/dc/elements/1.1/">
  <sodipodi:namedview
     id="namedview7"
     pagecolor="#9c4444"
     bordercolor="#000000"
     borderopacity="0.25"
     inkscape:showpageshadow="2"
     inkscape:pageopacity="0.0"
     inkscape:pagecheckerboard="0"
     inkscape:deskcolor="#d1d1d1"
     inkscape:zoom="4.3531261"
     inkscape:cx="39.741555"
     inkscape:cy="24.120597"
     inkscape:window-width="1280"
     inkscape:window-height="669"
     inkscape:window-x="0"
     inkscape:window-y="152"
     inkscape:window-maximized="0"
     inkscape:current-layer="svg7"
     showgrid="false" />
  <defs
     id="defs2">
    <linearGradient
       id="linearGradient1"
       inkscape:collect="always">
      <stop
         style="stop-color:#d8dee9;stop-opacity:1;"
         offset="0"
         id="stop1" />
      <stop
         style="stop-color:#eceff4;stop-opacity:1;"
         offset="1"
         id="stop2" />
    </linearGradient>
    <linearGradient
       inkscape:collect="always"
       id="linearGradient1134">
      <stop
         style="stop-color:#2e3440;stop-opacity:1;"
         offset="0"
         id="stop1130" />
      <stop
         style="stop-color:#4c566a;stop-opacity:1;"
         offset="1"
         id="stop1132" />
    </linearGradient>
    <filter
       style="color-interpolation-filters:sRGB;"
       inkscape:label="Blur"
       id="filter3"
       x="-0.10843471"
       y="-0.10870992"
       width="1.2168694"
       height="1.2174198">
      <feGaussianBlur
         stdDeviation="0.5 0.5"
         result="blur"
         id="feGaussianBlur3" />
    </filter>
    <linearGradient
       inkscape:collect="always"
       xlink:href="#linearGradient1134"
       id="linearGradient4"
       x1="14.388208"
       y1="14.440324"
       x2="2.2869277"
       y2="2.3637428"
       gradientUnits="userSpaceOnUse" />
    <filter
       style="color-interpolation-filters:sRGB"
       inkscape:label="Blur"
       id="filter3-8"
       x="-0.10843471"
       y="-0.10870992"
       width="1.2168694"
       height="1.2174198">
      <feGaussianBlur
         stdDeviation="0.5 0.5"
         result="blur"
         id="feGaussianBlur3-7" />
    </filter>
    <linearGradient
       inkscape:collect="always"
       xlink:href="#linearGradient1"
       id="linearGradient34"
       x1="13.05664"
       y1="10.118895"
       x2="4.3288245"
       y2="5.5402193"
       gradientUnits="userSpaceOnUse"
       gradientTransform="matrix(0.9,0,0,0.9,0.84664997,1.3229171)" />
  </defs>
  <metadata
     id="metadata2">
    <rdf:RDF>
      <cc:Work
         rdf:about="">
        <dc:format>image/svg+xml</dc:format>
        <dc:type
           rdf:resource="http://purl.org/dc/dcmitype/StillImage" />
      </cc:Work>
    </rdf:RDF>
  </metadata>
  <ellipse
     style="opacity:1;fill:none;stroke:#000000;stroke-width:0.582072;stroke-dasharray:none;stroke-opacity:1;filter:url(#filter3)"
     id="path1-5"
     cx="8.4450111"
     cy="8.423522"
     rx="6.8752708"
     ry="6.8578653" />
  <ellipse
     style="opacity:1;fill:#2b323e;stroke-width:0.58207188;stroke-opacity:1;stroke:#f5a97f;stroke-dasharray:none;fill-opacity:1"
     id="path1"
     cx="8.4450111"
     cy="8.423522"
     rx="6.8752708"
     ry="6.8578653" />
  <ellipse
     style="fill:url(#linearGradient4);stroke:none;stroke-width:0.515624;stroke-dasharray:none;stroke-opacity:1"
     id="path1-2"
     cx="8.4450111"
     cy="8.423522"
     rx="6.0904069"
     ry="6.0749874" />
  <path
     d="m 6.4044261,7.1057004 c -0.2828714,0 -0.5155614,0.2326901 -0.5155614,0.5155614 1.719e-4,0.2826996 0.2328619,0.5152178 0.5155614,0.5152178 0.2826996,0 0.5153896,-0.2325182 0.5155613,-0.5152178 0,-0.2828713 -0.23269,-0.5155614 -0.5155613,-0.5155614 z m 1.3748305,0 c -0.2828716,0 -0.5155614,0.2326901 -0.5155614,0.5155614 1.717e-4,0.2826996 0.2328618,0.5152178 0.5155614,0.5152178 0.2826996,0 0.5153897,-0.2325182 0.5155614,-0.5152178 0,-0.2828713 -0.2326899,-0.5155614 -0.5155614,-0.5155614 z m 1.3748305,0 c -0.2828714,0 -0.5155614,0.2326901 -0.5155614,0.5155614 1.718e-4,0.2826996 0.232862,0.5152178 0.5155614,0.5152178 0.2826996,0 0.5153894,-0.2325182 0.5155619,-0.5152178 0,-0.2828713 -0.2326905,-0.5155614 -0.5155619,-0.5155614 z m 1.3744859,0 c -0.282869,0 -0.515561,0.2326901 -0.515561,0.5155614 1.72e-4,0.2826996 0.232863,0.5152178 0.515561,0.5152178 0.282701,0 0.51539,-0.2325182 0.515561,-0.5152178 0,-0.2828713 -0.232689,-0.5155614 -0.515561,-0.5155614 z M 5.0295955,8.4801873 c -0.2828712,0 -0.5155613,0.23269 -0.5155613,0.5155612 0,0.2828715 0.2326901,0.5155615 0.5155613,0.5155615 0.2828715,0 0.5155615,-0.2326899 0.5155615,-0.5155615 0,-0.2828712 -0.23269,-0.5155612 -0.5155615,-0.5155612 z m 1.3748306,0 c -0.2828714,0 -0.5155614,0.23269 -0.5155614,0.5155612 0,0.2828715 0.23269,0.5155615 0.5155614,0.5155615 0.2828713,0 0.5155613,-0.2326899 0.5155613,-0.5155615 0,-0.2828712 -0.23269,-0.5155612 -0.5155613,-0.5155612 z m 1.3748305,0 c -0.2828716,0 -0.5155615,0.23269 -0.5155615,0.5155612 0,0.2828715 0.2326899,0.5155615 0.5155615,0.5155615 0.2828715,0 0.5155614,-0.2326899 0.5155614,-0.5155615 0,-0.2828712 -0.2326899,-0.5155612 -0.5155614,-0.5155612 z m 1.3748305,0 c -0.2828714,0 -0.5155614,0.23269 -0.5155614,0.5155612 0,0.2828715 0.23269,0.5155615 0.5155614,0.5155615 0.2828713,0 0.5155618,-0.2326899 0.5155618,-0.5155615 0,-0.2828712 -0.2326904,-0.5155612 -0.5155618,-0.5155612 z m 1.3744859,0 c -0.282869,0 -0.515561,0.23269 -0.515561,0.5155612 0,0.2828715 0.232692,0.5155615 0.515561,0.5155615 0.282872,0 0.515561,-0.2326899 0.515561,-0.5155615 0,-0.2828712 -0.232689,-0.5155612 -0.515561,-0.5155612 z m 1.374831,0 c -0.282871,0 -0.515561,0.23269 -0.515561,0.5155612 0,0.2828715 0.23269,0.5155615 0.515561,0.5155615 0.282872,0 0.515561,-0.2326899 0.515561,-0.5155615 0,-0.2828712 -0.232689,-0.5155612 -0.515561,-0.5155612 z M 5.0295955,9.8550178 c -0.2828712,0 -0.5155613,0.2326902 -0.5155613,0.5155622 0,0.282871 0.2326901,0.515561 0.5155613,0.515561 0.2828715,0 0.5155615,-0.23269 0.5155615,-0.515561 0,-0.282872 -0.23269,-0.5155622 -0.5155615,-0.5155622 z m 1.3748306,0 c -0.2828714,0 -0.5155614,0.2326902 -0.5155614,0.5155622 0,0.282871 0.23269,0.515561 0.5155614,0.515561 0.2828713,0 0.5155613,-0.23269 0.5155613,-0.515561 0,-0.282872 -0.23269,-0.5155622 -0.5155613,-0.5155622 z m 4.1241469,0 c -0.282869,0 -0.515561,0.2326902 -0.515561,0.5155622 0,0.282871 0.232692,0.515561 0.515561,0.515561 0.282872,0 0.515561,-0.23269 0.515561,-0.515561 0,-0.282872 -0.232689,-0.5155622 -0.515561,-0.5155622 z m 1.374831,0 c -0.282871,0 -0.515561,0.2326902 -0.515561,0.5155622 0,0.282871 0.23269,0.515561 0.515561,0.515561 0.282872,0 0.515561,-0.23269 0.515561,-0.515561 0,-0.282872 -0.232689,-0.5155622 -0.515561,-0.5155622 z"
     fill="#ffffff"
     fill-rule="nonzero"
     id="path16-6-9"
     style="fill:#000000;fill-opacity:1;stroke-width:0.171853;opacity:0.3" />
  <path
     d="m 6.4044261,6.5765442 c -0.2828714,0 -0.5155614,0.2326901 -0.5155614,0.5155614 1.719e-4,0.2826996 0.2328619,0.5152178 0.5155614,0.5152178 0.2826996,0 0.5153896,-0.2325182 0.5155613,-0.5152178 0,-0.2828713 -0.23269,-0.5155614 -0.5155613,-0.5155614 z m 1.3748305,0 c -0.2828716,0 -0.5155614,0.2326901 -0.5155614,0.5155614 1.717e-4,0.2826996 0.2328618,0.5152178 0.5155614,0.5152178 0.2826996,0 0.5153897,-0.2325182 0.5155614,-0.5152178 0,-0.2828713 -0.2326899,-0.5155614 -0.5155614,-0.5155614 z m 1.3748305,0 c -0.2828714,0 -0.5155614,0.2326901 -0.5155614,0.5155614 1.718e-4,0.2826996 0.232862,0.5152178 0.5155614,0.5152178 0.2826996,0 0.5153894,-0.2325182 0.5155619,-0.5152178 0,-0.2828713 -0.2326905,-0.5155614 -0.5155619,-0.5155614 z m 1.3744859,0 c -0.282869,0 -0.515561,0.2326901 -0.515561,0.5155614 1.72e-4,0.2826996 0.232863,0.5152178 0.515561,0.5152178 0.282701,0 0.51539,-0.2325182 0.515561,-0.5152178 0,-0.2828713 -0.232689,-0.5155614 -0.515561,-0.5155614 z M 5.0295955,7.9510311 c -0.2828712,0 -0.5155613,0.23269 -0.5155613,0.5155612 0,0.2828715 0.2326901,0.5155615 0.5155613,0.5155615 0.2828715,0 0.5155615,-0.2326899 0.5155615,-0.5155615 0,-0.2828712 -0.23269,-0.5155612 -0.5155615,-0.5155612 z m 1.3748306,0 c -0.2828714,0 -0.5155614,0.23269 -0.5155614,0.5155612 0,0.2828715 0.23269,0.5155615 0.5155614,0.5155615 0.2828713,0 0.5155613,-0.2326899 0.5155613,-0.5155615 0,-0.2828712 -0.23269,-0.5155612 -0.5155613,-0.5155612 z m 1.3748305,0 c -0.2828716,0 -0.5155615,0.23269 -0.5155615,0.5155612 0,0.2828715 0.2326899,0.5155615 0.5155615,0.5155615 0.2828715,0 0.5155614,-0.2326899 0.5155614,-0.5155615 0,-0.2828712 -0.2326899,-0.5155612 -0.5155614,-0.5155612 z m 1.3748305,0 c -0.2828714,0 -0.5155614,0.23269 -0.5155614,0.5155612 0,0.2828715 0.23269,0.5155615 0.5155614,0.5155615 0.2828713,0 0.5155618,-0.2326899 0.5155618,-0.5155615 0,-0.2828712 -0.2326904,-0.5155612 -0.5155618,-0.5155612 z m 1.3744859,0 c -0.282869,0 -0.515561,0.23269 -0.515561,0.5155612 0,0.2828715 0.232692,0.5155615 0.515561,0.5155615 0.282872,0 0.515561,-0.2326899 0.515561,-0.5155615 0,-0.2828712 -0.232689,-0.5155612 -0.515561,-0.5155612 z m 1.374831,0 c -0.282871,0 -0.515561,0.23269 -0.515561,0.5155612 0,0.2828715 0.23269,0.5155615 0.515561,0.5155615 0.282872,0 0.515561,-0.2326899 0.515561,-0.5155615 0,-0.2828712 -0.232689,-0.5155612 -0.515561,-0.5155612 z M 5.0295955,9.3258616 c -0.2828712,0 -0.5155613,0.2326904 -0.5155613,0.5155622 0,0.2828712 0.2326901,0.5155612 0.5155613,0.5155612 0.2828715,0 0.5155615,-0.23269 0.5155615,-0.5155612 0,-0.2828718 -0.23269,-0.5155622 -0.5155615,-0.5155622 z m 1.3748306,0 c -0.2828714,0 -0.5155614,0.2326904 -0.5155614,0.5155622 0,0.2828712 0.23269,0.5155612 0.5155614,0.5155612 0.2828713,0 0.5155613,-0.23269 0.5155613,-0.5155612 0,-0.2828718 -0.23269,-0.5155622 -0.5155613,-0.5155622 z m 4.1241469,0 c -0.282869,0 -0.515561,0.2326904 -0.515561,0.5155622 0,0.2828712 0.232692,0.5155612 0.515561,0.5155612 0.282872,0 0.515561,-0.23269 0.515561,-0.5155612 0,-0.2828718 -0.232689,-0.5155622 -0.515561,-0.5155622 z m 1.374831,0 c -0.282871,0 -0.515561,0.2326904 -0.515561,0.5155622 0,0.2828712 0.23269,0.5155612 0.515561,0.5155612 0.282872,0 0.515561,-0.23269 0.515561,-0.5155612 0,-0.2828718 -0.232689,-0.5155622 -0.515561,-0.5155622 z"
     fill="#ffffff"
     fill-rule="nonzero"
     id="path16-6"
     style="fill:url(#linearGradient34);fill-opacity:1;stroke-width:0.171853" />
</svg>
