<?xml version="1.0" encoding="UTF-8" standalone="no"?>
<svg
   width="64"
   height="64"
   version="1.1"
   viewBox="0 0 16.933 16.933"
   id="svg7"
   sodipodi:docname="com.bitwarden.desktop.svg"
   inkscape:version="1.4 (e7c3feb100, 2024-10-09)"
   xmlns:inkscape="http://www.inkscape.org/namespaces/inkscape"
   xmlns:sodipodi="http://sodipodi.sourceforge.net/DTD/sodipodi-0.dtd"
   xmlns:xlink="http://www.w3.org/1999/xlink"
   xmlns="http://www.w3.org/2000/svg"
   xmlns:svg="http://www.w3.org/2000/svg"
   xmlns:rdf="http://www.w3.org/1999/02/22-rdf-syntax-ns#"
   xmlns:cc="http://creativecommons.org/ns#"
   xmlns:dc="http://purl.org/dc/elements/1.1/">
  <sodipodi:namedview
     id="namedview7"
     pagecolor="#9c4444"
     bordercolor="#000000"
     borderopacity="0.25"
     inkscape:showpageshadow="2"
     inkscape:pageopacity="0.0"
     inkscape:pagecheckerboard="0"
     inkscape:deskcolor="#d1d1d1"
     inkscape:zoom="4.3531261"
     inkscape:cx="36.755195"
     inkscape:cy="25.958357"
     inkscape:window-width="1280"
     inkscape:window-height="669"
     inkscape:window-x="130"
     inkscape:window-y="164"
     inkscape:window-maximized="0"
     inkscape:current-layer="svg7"
     showgrid="false" />
  <defs
     id="defs2">
    <linearGradient
       id="linearGradient1"
       inkscape:collect="always">
      <stop
         style="stop-color:#d8dee9;stop-opacity:1;"
         offset="0"
         id="stop1" />
      <stop
         style="stop-color:#eceff4;stop-opacity:1;"
         offset="1"
         id="stop2" />
    </linearGradient>
    <linearGradient
       inkscape:collect="always"
       id="linearGradient1134">
      <stop
         style="stop-color:#2e3440;stop-opacity:1;"
         offset="0"
         id="stop1130" />
      <stop
         style="stop-color:#4c566a;stop-opacity:1;"
         offset="1"
         id="stop1132" />
    </linearGradient>
    <filter
       style="color-interpolation-filters:sRGB;"
       inkscape:label="Blur"
       id="filter3"
       x="-0.10843471"
       y="-0.10870992"
       width="1.2168694"
       height="1.2174198">
      <feGaussianBlur
         stdDeviation="0.5 0.5"
         result="blur"
         id="feGaussianBlur3" />
    </filter>
    <linearGradient
       inkscape:collect="always"
       xlink:href="#linearGradient1134"
       id="linearGradient4"
       x1="14.388208"
       y1="14.440324"
       x2="2.2869277"
       y2="2.3637428"
       gradientUnits="userSpaceOnUse" />
    <linearGradient
       inkscape:collect="always"
       xlink:href="#linearGradient1"
       id="linearGradient55"
       x1="12.410351"
       y1="10.877124"
       x2="4.7743111"
       y2="5.0896239"
       gradientUnits="userSpaceOnUse"
       gradientTransform="matrix(0.9,0,0,0.9,0.85518113,1.342013)" />
  </defs>
  <metadata
     id="metadata2">
    <rdf:RDF>
      <cc:Work
         rdf:about="">
        <dc:format>image/svg+xml</dc:format>
        <dc:type
           rdf:resource="http://purl.org/dc/dcmitype/StillImage" />
      </cc:Work>
    </rdf:RDF>
  </metadata>
  <ellipse
     style="opacity:1;fill:none;stroke:#000000;stroke-width:0.582072;stroke-dasharray:none;stroke-opacity:1;filter:url(#filter3)"
     id="path1-5"
     cx="8.4450111"
     cy="8.423522"
     rx="6.8752708"
     ry="6.8578653" />
  <ellipse
     style="opacity:1;fill:#2b323e;stroke-width:0.58207188;stroke-opacity:1;stroke:#f5a97f;stroke-dasharray:none;fill-opacity:1"
     id="path1"
     cx="8.4450111"
     cy="8.423522"
     rx="6.8752708"
     ry="6.8578653" />
  <ellipse
     style="fill:url(#linearGradient4);stroke:none;stroke-width:0.515624;stroke-dasharray:none;stroke-opacity:1"
     id="path1-2"
     cx="8.4450111"
     cy="8.423522"
     rx="6.0904069"
     ry="6.0749874" />
  <path
     style="fill:#000000;stroke:none;stroke-width:0.0153851;stroke-opacity:1;opacity:0.3"
     d="M 8.409823,11.895469 C 7.4642738,11.817181 6.5924253,11.412638 5.926338,10.743118 5.8287339,10.64501 5.7043495,10.509799 5.6499274,10.442648 5.4056134,10.141189 5.1448679,9.6826917 5.0112237,9.3195468 4.9379658,9.1204883 4.8449243,8.7510991 4.8094598,8.5185167 c -0.039741,-0.2606369 -0.039741,-0.8624791 0,-1.1231159 0.046779,-0.306787 0.2024889,-0.8673944 0.2559515,-0.9215129 0.008,-0.00811 0.047254,7.02e-4 0.095221,0.021371 0.044879,0.019337 0.1103512,0.047509 0.1454923,0.062603 l 0.063893,0.027445 -0.068396,0.2050399 c -0.2736365,0.820314 -0.2532418,1.7131816 0.056922,2.4921468 0.4303221,1.0807334 1.3520858,1.8927934 2.4693071,2.1754224 0.8406875,0.212673 1.702433,0.124134 2.476092,-0.254406 0.700673,-0.342829 1.261857,-0.890913 1.630711,-1.5926481 0.04891,-0.09308 0.09666,-0.1669581 0.106075,-0.1641739 0.01671,0.00494 0.274588,0.1129207 0.282826,0.1184272 0.0084,0.00557 -0.112287,0.2491796 -0.186443,0.3765277 -0.61389,1.0542421 -1.70005,1.7761671 -2.9024371,1.9291211 -0.2290596,0.02914 -0.6272572,0.04107 -0.8248534,0.0247 z M 8.7920487,11.288044 C 8.6338936,11.243557 8.5602133,11.182567 8.5473806,11.085503 8.5403066,11.032043 8.560652,10.611502 8.6268947,9.4416256 8.6393516,9.2216179 8.653739,8.9844944 8.6588699,8.9146843 l 0.00932,-0.1269276 0.079391,-2.383e-4 c 0.043666,-1.389e-4 0.1194606,-0.00967 0.1684355,-0.021193 l 0.089044,-0.020952 0.024614,0.048117 c 0.013542,0.026464 0.2495127,0.4766632 0.5243892,1.0004423 0.2748751,0.5237793 0.5062774,0.9758733 0.5142244,1.0046563 0.04963,0.179773 -0.1750482,0.359916 -0.5835851,0.467894 -0.1607443,0.04248 -0.5726719,0.05531 -0.6926517,0.02156 z M 7.611544,11.165615 C 7.2686691,11.076227 6.936336,10.894513 6.7254371,10.681111 6.5918791,10.545969 6.5470523,10.456877 6.5648577,10.361966 6.5769839,10.297325 6.5362445,10.340774 7.5970549,9.2611416 7.9360216,8.9161618 8.2182841,8.6339052 8.2243054,8.6339052 c 0.00603,0 0.037158,0.016546 0.069193,0.036768 0.032031,0.020221 0.094207,0.04954 0.1381602,0.065153 0.067615,0.024014 0.079911,0.034339 0.079882,0.067082 -4.62e-5,0.056611 -0.1594676,1.3044438 -0.2305815,1.8048758 -0.041752,0.293808 -0.0698,0.444921 -0.088531,0.476994 -0.015079,0.02581 -0.057841,0.06304 -0.095025,0.0827 -0.093595,0.0495 -0.2917855,0.04873 -0.4858591,-0.0019 z m 2.746132,-0.520102 c -0.06979,-0.04753 -0.37752,-0.533994 -0.9973216,-1.57655 L 9.1296591,8.680915 9.186014,8.6462584 c 0.030993,-0.019061 0.084048,-0.059947 0.1178955,-0.090857 l 0.06154,-0.0562 1.0203745,0.4426464 c 0.561205,0.2434558 1.036982,0.45825 1.057283,0.4773209 0.110481,0.103795 0.0727,0.321434 -0.102804,0.5922543 -0.297803,0.459522 -0.781073,0.771377 -0.982627,0.63409 z M 6.1798999,10.026674 C 6.0069021,9.9401741 5.8348719,9.7426737 5.7105047,9.4877811 5.6175407,9.2972502 5.5822996,9.1550784 5.5935214,9.0158418 5.6048767,8.874941 5.6511089,8.7958854 5.7527698,8.7435271 5.8131418,8.7124337 6.4888196,8.559346 7.1879827,8.4183521 7.5647926,8.3423643 7.8884846,8.2766124 7.9072982,8.2722369 c 0.027714,-0.00644 0.039964,0.00332 0.064517,0.051457 0.016668,0.032677 0.055588,0.092529 0.086485,0.1330044 l 0.056173,0.073592 -0.036073,0.034164 C 7.4843744,9.1270576 6.5438394,9.9729675 6.4422727,10.035976 c -0.065661,0.04073 -0.169678,0.03705 -0.2623728,-0.0093 z M 8.56387,8.4733891 C 8.4716614,8.4429555 8.3867685,8.3849048 8.3146416,8.3029646 8.2478133,8.2270432 8.1837403,8.0827582 8.1915654,8.0258059 c 0.00434,-0.031547 0.030564,-0.022281 0.4316074,0.1524678 0.2348471,0.102331 0.424966,0.193055 0.4224865,0.201609 -0.0025,0.00855 -0.044701,0.035774 -0.093827,0.060491 -0.105471,0.053063 -0.2817649,0.068066 -0.3879623,0.033015 z M 5.5319164,8.4052348 C 5.3115955,8.2654751 5.2994448,7.6431395 5.5083613,7.1987206 5.5734165,7.06033 5.6694339,6.9569241 5.7328809,6.9569241 c 0.020185,0 0.5134501,0.2031168 1.0961473,0.4513709 L 7.8884773,7.8596658 V 7.996777 8.133888 L 7.550003,8.1909943 C 6.8878205,8.3027148 6.0723797,8.4096502 5.7499403,8.4270504 5.5975457,8.4352743 5.5758485,8.4331011 5.5319164,8.4052348 Z"
     id="path1-6-2" />
  <path
     style="fill:url(#linearGradient55);stroke-width:0.0153851;stroke:none;stroke-opacity:1"
     d="M 8.409823,11.366313 C 7.4642738,11.288025 6.5924253,10.883482 5.926338,10.213962 5.8287339,10.115854 5.7043495,9.980643 5.6499274,9.9134913 5.4056134,9.6120326 5.1448679,9.1535355 5.0112237,8.7903906 4.9379658,8.5913321 4.8449243,8.2219429 4.8094598,7.9893605 c -0.039741,-0.2606369 -0.039741,-0.8624791 0,-1.1231159 0.046779,-0.306787 0.2024889,-0.8673944 0.2559515,-0.9215129 0.008,-0.00811 0.047254,7.02e-4 0.095221,0.021371 0.044879,0.019337 0.1103512,0.047509 0.1454923,0.062603 l 0.063893,0.027445 -0.068396,0.2050399 C 5.0279851,7.0815046 5.0483798,7.9743722 5.3585439,8.7533374 5.788866,9.8340708 6.7106297,10.646131 7.827851,10.92876 c 0.8406875,0.212673 1.702433,0.124134 2.476092,-0.254406 0.700673,-0.342829 1.261857,-0.8909137 1.630711,-1.5926483 0.04891,-0.09308 0.09666,-0.1669581 0.106075,-0.1641739 0.01671,0.00494 0.274588,0.1129206 0.282826,0.1184272 0.0084,0.00557 -0.112287,0.2491796 -0.186443,0.3765277 -0.61389,1.0542423 -1.70005,1.7761673 -2.9024371,1.9291213 -0.2290596,0.02914 -0.6272572,0.04107 -0.8248534,0.0247 z M 8.7920487,10.758888 C 8.6338936,10.714401 8.5602133,10.653411 8.5473806,10.556347 8.5403066,10.502887 8.560652,10.082346 8.6268947,8.9124694 8.6393516,8.6924617 8.653739,8.4553382 8.6588699,8.3855281 l 0.00932,-0.1269276 0.079391,-2.383e-4 c 0.043666,-1.389e-4 0.1194606,-0.00967 0.1684355,-0.021193 l 0.089044,-0.020952 0.024614,0.048117 c 0.013542,0.026464 0.2495127,0.4766632 0.5243892,1.0004423 0.2748751,0.5237789 0.5062774,0.9758735 0.5142244,1.0046565 0.04963,0.179773 -0.1750482,0.359916 -0.5835851,0.467894 -0.1607443,0.04248 -0.5726719,0.05531 -0.6926517,0.02156 z M 7.611544,10.636459 C 7.2686691,10.547071 6.936336,10.365357 6.7254371,10.151955 6.5918791,10.016813 6.5470523,9.9277212 6.5648577,9.8328094 6.5769839,9.768169 6.5362445,9.8116174 7.5970549,8.7319854 7.9360216,8.3870056 8.2182841,8.104749 8.2243054,8.104749 c 0.00603,0 0.037158,0.016546 0.069193,0.036768 0.032031,0.020221 0.094207,0.04954 0.1381602,0.065153 0.067615,0.024014 0.079911,0.034339 0.079882,0.067082 -4.62e-5,0.056611 -0.1594676,1.3044438 -0.2305815,1.804876 -0.041752,0.293808 -0.0698,0.444921 -0.088531,0.476994 -0.015079,0.02581 -0.057841,0.06304 -0.095025,0.0827 -0.093595,0.0495 -0.2917855,0.04873 -0.4858591,-0.0019 z m 2.746132,-0.520102 C 10.287889,10.068826 9.980156,9.5823623 9.3603544,8.5398068 L 9.1296591,8.1517588 9.186014,8.1171022 c 0.030993,-0.019061 0.084048,-0.059947 0.1178955,-0.090857 l 0.06154,-0.0562 1.0203745,0.4426464 c 0.561205,0.2434558 1.036982,0.45825 1.057283,0.4773209 0.110481,0.103795 0.0727,0.3214339 -0.102804,0.592254 C 11.0425,9.9417891 10.55923,10.253644 10.357676,10.116357 Z M 6.1798999,9.4975176 C 6.0069021,9.4110179 5.8348719,9.2135175 5.7105047,8.9586249 5.6175407,8.768094 5.5822996,8.6259222 5.5935214,8.4866856 5.6048767,8.3457848 5.6511089,8.2667292 5.7527698,8.2143709 5.8131418,8.1832775 6.4888196,8.0301898 7.1879827,7.8891959 7.5647926,7.8132081 7.8884846,7.7474562 7.9072982,7.7430807 c 0.027714,-0.00644 0.039964,0.00332 0.064517,0.051457 0.016668,0.032677 0.055588,0.092529 0.086485,0.1330044 l 0.056173,0.073592 -0.036073,0.034164 C 7.4843744,8.5979014 6.5438394,9.4438113 6.4422727,9.5068196 6.3766119,9.5475533 6.2725947,9.543866 6.1798999,9.4975176 Z M 8.56387,7.9442329 C 8.4716614,7.9137993 8.3867685,7.8557486 8.3146416,7.7738084 8.2478133,7.697887 8.1837403,7.553602 8.1915654,7.4966497 c 0.00434,-0.031547 0.030564,-0.022281 0.4316074,0.1524678 0.2348471,0.102331 0.424966,0.193055 0.4224865,0.201609 -0.0025,0.00855 -0.044701,0.035774 -0.093827,0.060491 -0.105471,0.053063 -0.2817649,0.068066 -0.3879623,0.033015 z M 5.5319164,7.8760786 C 5.3115955,7.7363189 5.2994448,7.1139833 5.5083613,6.6695644 5.5734165,6.5311738 5.6694339,6.4277679 5.7328809,6.4277679 c 0.020185,0 0.5134501,0.2031168 1.0961473,0.4513709 l 1.0594491,0.4513708 v 0.1371112 0.137111 L 7.550003,7.6618381 C 6.8878205,7.7735586 6.0723797,7.880494 5.7499403,7.8978942 5.5975457,7.9061181 5.5758485,7.9039449 5.5319164,7.8760786 Z"
     id="path1-6" />
</svg>
