<?xml version="1.0" encoding="UTF-8" standalone="no"?>
<svg
   width="64"
   height="64"
   version="1.1"
   viewBox="0 0 16.933 16.933"
   id="svg7"
   sodipodi:docname="Office.svg"
   inkscape:version="1.4 (e7c3feb100, 2024-10-09)"
   xmlns:inkscape="http://www.inkscape.org/namespaces/inkscape"
   xmlns:sodipodi="http://sodipodi.sourceforge.net/DTD/sodipodi-0.dtd"
   xmlns:xlink="http://www.w3.org/1999/xlink"
   xmlns="http://www.w3.org/2000/svg"
   xmlns:svg="http://www.w3.org/2000/svg"
   xmlns:rdf="http://www.w3.org/1999/02/22-rdf-syntax-ns#"
   xmlns:cc="http://creativecommons.org/ns#"
   xmlns:dc="http://purl.org/dc/elements/1.1/">
  <sodipodi:namedview
     id="namedview7"
     pagecolor="#9c4444"
     bordercolor="#000000"
     borderopacity="0.25"
     inkscape:showpageshadow="2"
     inkscape:pageopacity="0.0"
     inkscape:pagecheckerboard="0"
     inkscape:deskcolor="#d1d1d1"
     inkscape:zoom="4.3531261"
     inkscape:cx="36.984915"
     inkscape:cy="25.958357"
     inkscape:window-width="1280"
     inkscape:window-height="669"
     inkscape:window-x="180"
     inkscape:window-y="166"
     inkscape:window-maximized="0"
     inkscape:current-layer="svg7"
     showgrid="false" />
  <defs
     id="defs2">
    <linearGradient
       id="linearGradient1"
       inkscape:collect="always">
      <stop
         style="stop-color:#d8dee9;stop-opacity:1;"
         offset="0"
         id="stop1" />
      <stop
         style="stop-color:#eceff4;stop-opacity:1;"
         offset="1"
         id="stop2" />
    </linearGradient>
    <linearGradient
       inkscape:collect="always"
       id="linearGradient1134">
      <stop
         style="stop-color:#2e3440;stop-opacity:1;"
         offset="0"
         id="stop1130" />
      <stop
         style="stop-color:#4c566a;stop-opacity:1;"
         offset="1"
         id="stop1132" />
    </linearGradient>
    <filter
       style="color-interpolation-filters:sRGB;"
       inkscape:label="Blur"
       id="filter3"
       x="-0.10843471"
       y="-0.10870992"
       width="1.2168694"
       height="1.2174198">
      <feGaussianBlur
         stdDeviation="0.5 0.5"
         result="blur"
         id="feGaussianBlur3" />
    </filter>
    <linearGradient
       inkscape:collect="always"
       xlink:href="#linearGradient1134"
       id="linearGradient4"
       x1="14.388208"
       y1="14.440324"
       x2="2.2869277"
       y2="2.3637428"
       gradientUnits="userSpaceOnUse" />
    <linearGradient
       inkscape:collect="always"
       xlink:href="#linearGradient1"
       id="linearGradient28"
       x1="11.127862"
       y1="12.081055"
       x2="5.7206864"
       y2="3.8759062"
       gradientUnits="userSpaceOnUse"
       gradientTransform="translate(-0.23814462,0.52915625)" />
  </defs>
  <metadata
     id="metadata2">
    <rdf:RDF>
      <cc:Work
         rdf:about="">
        <dc:format>image/svg+xml</dc:format>
        <dc:type
           rdf:resource="http://purl.org/dc/dcmitype/StillImage" />
      </cc:Work>
    </rdf:RDF>
  </metadata>
  <ellipse
     style="opacity:1;fill:none;stroke:#000000;stroke-width:0.582072;stroke-dasharray:none;stroke-opacity:1;filter:url(#filter3)"
     id="path1-5"
     cx="8.4450111"
     cy="8.423522"
     rx="6.8752708"
     ry="6.8578653" />
  <ellipse
     style="opacity:1;fill:#2b323e;stroke-width:0.58207188;stroke-opacity:1;stroke:#8bd5ca;stroke-dasharray:none;fill-opacity:1"
     id="path1"
     cx="8.4450111"
     cy="8.423522"
     rx="6.8752708"
     ry="6.8578653" />
  <ellipse
     style="fill:url(#linearGradient4);stroke:none;stroke-width:0.515624;stroke-dasharray:none;stroke-opacity:1"
     id="path1-2"
     cx="8.4450111"
     cy="8.423522"
     rx="6.0904069"
     ry="6.0749874" />
  <path
     style="opacity:0.3;fill:#000000;fill-opacity:1;stroke-width:0.231048"
     d="m 10.713348,6.8941517 c -0.01567,-0.1275903 0.08219,-0.3294971 0.06906,-0.6043767 -0.01355,-0.2753273 -0.14701,-0.6589944 -0.694797,-0.9374559 -0.0097,-0.00492 -0.01948,-0.00986 -0.02966,-0.014772 C 9.7016555,5.1638443 9.1822512,5.0393874 8.5764214,5.1002729 8.1057377,5.1477276 7.6168372,5.3048657 7.1558979,5.5819837 6.7411372,5.83045 6.3589983,6.1706916 6.0488808,6.5915166 5.8667081,6.8560997 5.7078363,7.155602 5.5942963,7.4788315 5.5451522,7.6185096 5.5044812,7.7631124 5.4739778,7.9108487 5.4345769,8.1029066 5.4129718,8.3128715 5.421444,8.5344764 c 0.022453,0.3514341 0.1215895,0.7355495 0.3431622,1.081163 0.104643,0.1638536 0.2347066,0.3124853 0.3851049,0.4364946 0.1495511,0.124009 0.3207086,0.224291 0.5075416,0.290101 0.2995256,0.103415 0.5939676,0.103415 0.8375708,0.06447 0.1292155,-0.02059 0.2478397,-0.05238 0.3524832,-0.08775 0.1292157,-0.04343 0.2478399,-0.09357 0.3414681,-0.136098 C 8.3929775,10.088397 8.5844706,9.9751318 8.7369872,9.8838037 8.8895041,9.7924758 9.0390551,9.7006999 9.182675,9.626384 9.268254,9.583406 9.3699313,9.535504 9.4703384,9.4992412 c 0.026689,-0.0094 0.053377,-0.018353 0.08007,-0.025965 0.099983,-0.029099 0.1986966,-0.042082 0.2863939,-0.032681 0.07498,0.00761 0.1385339,0.033576 0.1813227,0.065361 0.01823,0.012083 0.03389,0.029101 0.04702,0.047007 0.01143,0.016567 0.01906,0.032233 0.0233,0.040741 0.0046,0.010747 0.0073,0.032681 -8.82e-4,0.064467 -0.0075,0.032232 -0.02414,0.069392 -0.04957,0.1065492 -0.02626,0.038053 -0.0627,0.077451 -0.1118435,0.1181893 -0.04831,0.039395 -0.1059212,0.077896 -0.1728587,0.115055 C 9.6062989,10.072728 9.460137,10.122869 9.2546631,10.2039 c -0.1864093,0.07342 -0.4088295,0.16833 -0.617269,0.318753 -0.1093033,0.08148 -0.2186073,0.183103 -0.3126591,0.306218 -0.093628,0.123113 -0.1749706,0.271746 -0.2203018,0.445895 -0.040671,0.17415 -0.04279,0.367552 0.011862,0.553342 0.027537,0.09446 0.069904,0.183999 0.1241318,0.263685 0.055076,0.08059 0.1241315,0.153558 0.2058972,0.211756 0.1453147,0.102069 0.3054571,0.13968 0.4439931,0.143708 h 0.047026 c 0.117353,-0.0031 0.2291986,-0.02865 0.3313001,-0.06491 0.1067616,-0.03447 0.2033553,-0.08104 0.2863925,-0.122219 0.084731,-0.04254 0.1499752,-0.077 0.2181845,-0.105655 0.06227,-0.02909 0.1165045,-0.04789 0.1656481,-0.05597 0.0466,-0.0075 0.084732,-0.004 0.1122685,0.0041 0.0123,0.0035 0.02331,0.0095 0.0322,0.01521 0.0084,0.0058 0.0144,0.01119 0.01737,0.01388 0.0047,0.0023 0.0089,0.0058 0.01186,0.0067 0.0034,0 0.0064,0.0019 0.01056,8.83e-4 0.0038,-8.83e-4 0,0.01343 -0.01526,0.03222 -0.01779,0.02193 -0.04363,0.04388 -0.08346,0.07656 -0.03856,0.03089 -0.09109,0.07163 -0.1389581,0.121772 -0.05297,0.05507 -0.1046415,0.124905 -0.136417,0.211308 -0.031782,0.0873 -0.036852,0.176836 -0.023718,0.25563 0.015254,0.09177 0.055501,0.166985 0.1021024,0.22026 0.0627,0.07252 0.135568,0.103411 0.1893717,0.111922 0.01313,0.0019 0.02542,0.0026 0.03685,0.0023 0.09574,-0.0035 0.134301,-0.08104 0.151247,-0.103862 -0.02372,-0.02373 -0.04787,-0.08461 -0.06693,-0.136545 -0.0021,-0.0058 -0.0043,-0.01119 -0.0059,-0.01701 -0.0075,-0.02284 -0.0144,-0.04789 -0.01271,-0.07029 8.83e-4,-0.01611 0.0047,-0.03312 0.01186,-0.04388 0.0059,-0.0093 0.0144,-0.01791 0.02203,-0.02104 0.0075,-0.0036 0.02034,-0.01432 0.04321,-0.0291 0.02838,-0.01791 0.0483,-0.02819 0.09871,-0.05686 0.0394,-0.02192 0.09786,-0.05597 0.153788,-0.102069 0.05592,-0.0461 0.120318,-0.113265 0.166074,-0.206832 0.04068,-0.08371 0.06058,-0.176389 0.06058,-0.267717 4.4e-4,-0.09133 -0.01905,-0.17997 -0.05297,-0.259209 -0.0356,-0.07968 -0.08473,-0.147737 -0.140656,-0.203698 -0.05636,-0.05646 -0.120347,-0.101233 -0.187286,-0.13481 -0.134299,-0.0667 -0.2758,-0.08551 -0.3999303,-0.08059 -0.1283683,0.0049 -0.2461461,0.03538 -0.3431637,0.06761 -0.095747,0.03402 -0.1948824,0.07879 -0.2652096,0.10879 -0.080918,0.03446 -0.143196,0.0582 -0.2020847,0.07252 -0.055498,0.01034 -0.09744,0.0094 -0.1279444,0.0023 -0.00381,-8.82e-4 -0.00762,-0.0019 -0.01144,-0.0031 -0.030926,-0.01034 -0.047873,-0.02819 -0.043213,-0.03717 0.00254,-0.0035 0.00297,-0.008 0.00381,-0.01567 8.339e-4,-0.0071 0.0017,-0.01521 0.00509,-0.0224 0.00509,-0.01521 0.013557,-0.04163 0.030928,-0.06626 0.012709,-0.02731 0.033893,-0.0582 0.068631,-0.09312 0.035587,-0.0358 0.08219,-0.07207 0.1381122,-0.104313 0.112695,-0.07172 0.246994,-0.125001 0.4211176,-0.182753 0.1609898,-0.05373 0.3817142,-0.119531 0.5846459,-0.208621 0.109307,-0.04566 0.222844,-0.101624 0.332994,-0.17236 0.112692,-0.07207 0.224117,-0.160719 0.325793,-0.270402 0.10549,-0.114607 0.197001,-0.249809 0.264363,-0.401127 0.06908,-0.1558211 0.113987,-0.3326575 0.118225,-0.522029 0.0043,-0.1867042 -0.03176,-0.3630928 -0.09192,-0.5188879 -0.0618,-0.1615797 -0.152042,-0.30663 -0.259652,-0.4279533 C 10.61591,8.385818 10.327399,8.2461397 10.068119,8.185702 9.7677493,8.1154149 9.4860166,8.1413809 9.2695275,8.1897286 9.2093683,8.2036082 9.1525979,8.218828 9.0996408,8.2353925 8.8996745,8.2976208 8.7336009,8.3813383 8.617095,8.4462531 8.4277199,8.5496684 8.2391924,8.6754685 8.1108246,8.7582904 7.9616971,8.854543 7.8282451,8.9378128 7.6943693,9.0018319 c -0.059739,0.029101 -0.1249814,0.055066 -0.1927666,0.072974 -0.054228,0.01388 -0.1071851,0.02328 -0.1592954,0.025965 -0.09956,0.00537 -0.1834438,-0.013432 -0.240214,-0.047902 C 7.0690483,9.0340659 7.0351563,9.0067579 7.0042283,8.9709429 6.9733003,8.9346799 6.9470353,8.8925979 6.9292413,8.8478293 6.8885703,8.7484433 6.8758603,8.628015 6.8936543,8.513855 6.8983143,8.442673 6.9131443,8.3710431 6.9364443,8.2998608 6.9546633,8.2447948 6.9796573,8.1888348 7.0114313,8.132426 7.0859945,7.9999101 7.1940274,7.8745578 7.3207008,7.7666653 7.5177014,7.574608 7.7481711,7.4358249 7.9820301,7.34584 8.2421557,7.245558 8.4912665,7.2110866 8.7098734,7.2092956 c 0.2796143,-0.00178 0.5299958,0.048798 0.7261492,0.072973 0.00549,4.621e-4 0.011014,0.00136 0.01652,0.00178 0.3101167,0.036263 0.5477874,-0.040292 0.7587704,-0.1468412 0.204625,-0.1029677 0.387644,-0.2421988 0.502032,-0.2430941 z m 0,0"
     id="path11-3-5" />
  <path
     style="fill:url(#linearGradient28);fill-opacity:1;stroke-width:0.231048"
     d="m 10.713348,6.3649955 c -0.01567,-0.1275903 0.08219,-0.3294971 0.06906,-0.6043767 -0.01355,-0.2753273 -0.14701,-0.6589944 -0.694797,-0.9374559 -0.0097,-0.00492 -0.01948,-0.00986 -0.02966,-0.014772 C 9.7016555,4.6346881 9.1822512,4.5102312 8.5764214,4.5711167 8.1057377,4.6185714 7.6168372,4.7757095 7.1558979,5.0528275 6.7411372,5.3012938 6.3589983,5.6415354 6.0488808,6.0623604 5.8667081,6.3269435 5.7078363,6.6264458 5.5942963,6.9496753 5.5451522,7.0893534 5.5044812,7.2339562 5.4739778,7.3816925 5.4345769,7.5737504 5.4129718,7.7837153 5.421444,8.0053202 5.4438972,8.3567543 5.5430335,8.7408697 5.7646062,9.0864832 5.8692492,9.2503368 5.9993128,9.3989685 6.1497111,9.5229778 6.2992622,9.6469872 6.4704197,9.7472685 6.6572527,9.8130788 6.9567783,9.9164942 7.2512203,9.9164942 7.4948235,9.877552 7.624039,9.85696 7.7426632,9.8251711 7.8473067,9.789805 7.9765224,9.746377 8.0951466,9.6962357 8.1887748,9.6537063 8.3929775,9.5592403 8.5844706,9.4459756 8.7369872,9.3546475 8.8895041,9.2633196 9.0390551,9.1715437 9.182675,9.0972278 9.268254,9.0542498 9.3699313,9.0063478 9.4703384,8.970085 9.4970274,8.960685 9.5237154,8.951732 9.5504084,8.94412 9.6503914,8.915021 9.749105,8.902038 9.8368023,8.911439 c 0.07498,0.00761 0.1385339,0.033576 0.1813227,0.065361 0.01823,0.012083 0.03389,0.029101 0.04702,0.047007 0.01143,0.016567 0.01906,0.032233 0.0233,0.040741 0.0046,0.010747 0.0073,0.032681 -8.82e-4,0.064467 -0.0075,0.032232 -0.02414,0.069392 -0.04957,0.1065492 -0.02626,0.038053 -0.0627,0.077451 -0.1118435,0.1181893 -0.04831,0.039395 -0.1059212,0.077896 -0.1728587,0.115055 C 9.6062989,9.5435714 9.460137,9.5937123 9.2546631,9.6747435 9.0682538,9.7481645 8.8458336,9.8430739 8.6373941,9.9934968 8.5280908,10.074979 8.4187868,10.1766 8.324735,10.299715 8.231107,10.422828 8.1497644,10.571461 8.1044332,10.74561 c -0.040671,0.17415 -0.04279,0.367552 0.011862,0.553342 0.027537,0.09446 0.069904,0.183999 0.1241318,0.263685 0.055076,0.08059 0.1241315,0.153558 0.2058972,0.211756 0.1453147,0.102069 0.3054571,0.13968 0.4439931,0.143708 h 0.047026 c 0.117353,-0.0031 0.2291986,-0.02865 0.3313001,-0.06491 0.1067616,-0.03447 0.2033553,-0.08104 0.2863925,-0.122219 0.084731,-0.04254 0.1499752,-0.077 0.2181845,-0.105655 0.06227,-0.02909 0.1165045,-0.04789 0.1656481,-0.05597 0.0466,-0.0075 0.084732,-0.004 0.1122685,0.0041 0.0123,0.0035 0.02331,0.0095 0.0322,0.01521 0.0084,0.0058 0.0144,0.01119 0.01737,0.01388 0.0047,0.0023 0.0089,0.0058 0.01186,0.0067 0.0034,0 0.0064,0.0019 0.01056,8.83e-4 0.0038,-8.83e-4 0,0.01343 -0.01526,0.03222 -0.01779,0.02193 -0.04363,0.04388 -0.08346,0.07656 -0.03856,0.03089 -0.09109,0.07163 -0.1389581,0.121772 -0.05297,0.05507 -0.1046415,0.124905 -0.136417,0.211308 -0.031782,0.0873 -0.036852,0.176836 -0.023718,0.25563 0.015254,0.09177 0.055501,0.166985 0.1021024,0.22026 0.0627,0.07252 0.135568,0.103411 0.1893717,0.111922 0.01313,0.0019 0.02542,0.0026 0.03685,0.0023 0.09574,-0.0035 0.134301,-0.08104 0.151247,-0.103862 -0.02372,-0.02373 -0.04787,-0.08461 -0.06693,-0.136545 -0.0021,-0.0058 -0.0043,-0.01119 -0.0059,-0.01701 -0.0075,-0.02284 -0.0144,-0.04789 -0.01271,-0.07029 8.83e-4,-0.01611 0.0047,-0.03312 0.01186,-0.04388 0.0059,-0.0093 0.0144,-0.01791 0.02203,-0.02104 0.0075,-0.0036 0.02034,-0.01432 0.04321,-0.0291 0.02838,-0.01791 0.0483,-0.02819 0.09871,-0.05686 0.0394,-0.02192 0.09786,-0.05597 0.153788,-0.102069 0.05592,-0.0461 0.120318,-0.113265 0.166074,-0.206832 0.04068,-0.08371 0.06058,-0.176389 0.06058,-0.267717 4.4e-4,-0.09133 -0.01905,-0.17997 -0.05297,-0.259209 -0.0356,-0.07968 -0.08473,-0.147737 -0.140656,-0.203698 -0.05636,-0.05646 -0.120347,-0.101233 -0.187286,-0.13481 -0.134299,-0.0667 -0.2758,-0.08551 -0.3999303,-0.08059 -0.1283683,0.0049 -0.2461461,0.03538 -0.3431637,0.06761 -0.095747,0.03402 -0.1948824,0.07879 -0.2652096,0.10879 -0.080918,0.03446 -0.143196,0.0582 -0.2020847,0.07252 -0.055498,0.01034 -0.09744,0.0094 -0.1279444,0.0023 -0.00381,-8.82e-4 -0.00762,-0.0019 -0.01144,-0.0031 -0.030926,-0.01034 -0.047873,-0.02819 -0.043213,-0.03717 0.00254,-0.0035 0.00297,-0.008 0.00381,-0.01567 8.339e-4,-0.0071 0.0017,-0.01521 0.00509,-0.0224 0.00509,-0.01521 0.013557,-0.04163 0.030928,-0.06626 0.012709,-0.02731 0.033893,-0.0582 0.068631,-0.09312 0.035587,-0.0358 0.08219,-0.07207 0.1381122,-0.104313 0.112695,-0.07172 0.246994,-0.125001 0.4211176,-0.182753 0.1609898,-0.05373 0.3817142,-0.119531 0.5846459,-0.208621 0.109307,-0.04566 0.222844,-0.101624 0.332994,-0.17236 0.112692,-0.07207 0.224117,-0.160719 0.325793,-0.2704021 0.10549,-0.1146074 0.197001,-0.2498096 0.264363,-0.4011273 0.06908,-0.155821 0.113987,-0.3326574 0.118225,-0.5220289 0.0043,-0.1867042 -0.03176,-0.3630928 -0.09192,-0.5188879 C 11.041685,8.3800072 10.951447,8.2349569 10.843837,8.1136336 10.61591,7.8566618 10.327399,7.7169835 10.068119,7.6565458 9.7677493,7.5862587 9.4860166,7.6122247 9.2695275,7.6605724 9.2093683,7.674452 9.1525979,7.6896718 9.0996408,7.7062363 8.8996745,7.7684646 8.7336009,7.8521821 8.617095,7.9170969 8.4277199,8.0205122 8.2391924,8.1463123 8.1108246,8.2291342 7.9616971,8.3253868 7.8282451,8.4086566 7.6943693,8.4726757 c -0.059739,0.029101 -0.1249814,0.055066 -0.1927666,0.072974 -0.054228,0.01388 -0.1071851,0.02328 -0.1592954,0.025965 -0.09956,0.00537 -0.1834438,-0.013432 -0.240214,-0.047902 C 7.0690482,8.5049101 7.0351561,8.4776015 7.0042285,8.4417866 6.9733009,8.405524 6.9470351,8.3634413 6.9292415,8.318673 6.8885701,8.2192869 6.8758607,8.0988587 6.8936543,7.9846987 c 0.00466,-0.071182 0.01949,-0.1428119 0.04279,-0.2139942 0.018219,-0.055066 0.043213,-0.111026 0.074987,-0.1674348 C 7.0859945,7.4707539 7.1940274,7.3454016 7.3207008,7.2375091 7.5177014,7.0454518 7.7481711,6.9066687 7.9820301,6.8166838 8.2421557,6.7164018 8.4912665,6.6819304 8.7098734,6.6801394 c 0.2796143,-0.00178 0.5299958,0.048798 0.7261492,0.072973 0.00549,4.621e-4 0.011014,0.00136 0.01652,0.00178 0.3101167,0.036263 0.5477874,-0.040292 0.7587704,-0.1468412 0.204625,-0.1029677 0.387644,-0.2421988 0.502032,-0.2430941 z m 0,0"
     id="path11-3" />
</svg>
