<?xml version="1.0" encoding="UTF-8" standalone="no"?>
<svg
   width="64"
   height="64"
   version="1.1"
   viewBox="0 0 16.933 16.933"
   id="svg7"
   sodipodi:docname="Misc.svg"
   inkscape:version="1.4 (e7c3feb100, 2024-10-09)"
   xmlns:inkscape="http://www.inkscape.org/namespaces/inkscape"
   xmlns:sodipodi="http://sodipodi.sourceforge.net/DTD/sodipodi-0.dtd"
   xmlns:xlink="http://www.w3.org/1999/xlink"
   xmlns="http://www.w3.org/2000/svg"
   xmlns:svg="http://www.w3.org/2000/svg"
   xmlns:rdf="http://www.w3.org/1999/02/22-rdf-syntax-ns#"
   xmlns:cc="http://creativecommons.org/ns#"
   xmlns:dc="http://purl.org/dc/elements/1.1/">
  <sodipodi:namedview
     id="namedview7"
     pagecolor="#9c4444"
     bordercolor="#000000"
     borderopacity="0.25"
     inkscape:showpageshadow="2"
     inkscape:pageopacity="0.0"
     inkscape:pagecheckerboard="0"
     inkscape:deskcolor="#d1d1d1"
     inkscape:zoom="4.3531261"
     inkscape:cx="36.755195"
     inkscape:cy="25.958357"
     inkscape:window-width="1280"
     inkscape:window-height="669"
     inkscape:window-x="17"
     inkscape:window-y="196"
     inkscape:window-maximized="0"
     inkscape:current-layer="svg7"
     showgrid="false" />
  <defs
     id="defs2">
    <linearGradient
       id="linearGradient1"
       inkscape:collect="always">
      <stop
         style="stop-color:#d8dee9;stop-opacity:1;"
         offset="0"
         id="stop1" />
      <stop
         style="stop-color:#eceff4;stop-opacity:1;"
         offset="1"
         id="stop2" />
    </linearGradient>
    <linearGradient
       inkscape:collect="always"
       id="linearGradient1134">
      <stop
         style="stop-color:#2e3440;stop-opacity:1;"
         offset="0"
         id="stop1130" />
      <stop
         style="stop-color:#4c566a;stop-opacity:1;"
         offset="1"
         id="stop1132" />
    </linearGradient>
    <filter
       style="color-interpolation-filters:sRGB;"
       inkscape:label="Blur"
       id="filter3"
       x="-0.10843471"
       y="-0.10870992"
       width="1.2168694"
       height="1.2174198">
      <feGaussianBlur
         stdDeviation="0.5 0.5"
         result="blur"
         id="feGaussianBlur3" />
    </filter>
    <linearGradient
       inkscape:collect="always"
       xlink:href="#linearGradient1134"
       id="linearGradient4"
       x1="14.388208"
       y1="14.440324"
       x2="2.2869277"
       y2="2.3637428"
       gradientUnits="userSpaceOnUse" />
    <linearGradient
       inkscape:collect="always"
       xlink:href="#linearGradient1"
       id="linearGradient59"
       x1="11.973136"
       y1="11.770184"
       x2="4.9125948"
       y2="4.3416533"
       gradientUnits="userSpaceOnUse"
       gradientTransform="matrix(0.9,0,0,0.9,0.84665017,1.3306961)" />
  </defs>
  <metadata
     id="metadata2">
    <rdf:RDF>
      <cc:Work
         rdf:about="">
        <dc:format>image/svg+xml</dc:format>
        <dc:type
           rdf:resource="http://purl.org/dc/dcmitype/StillImage" />
      </cc:Work>
    </rdf:RDF>
  </metadata>
  <ellipse
     style="opacity:1;fill:none;stroke:#000000;stroke-width:0.582072;stroke-dasharray:none;stroke-opacity:1;filter:url(#filter3)"
     id="path1-5"
     cx="8.4450111"
     cy="8.423522"
     rx="6.8752708"
     ry="6.8578653" />
  <ellipse
     style="opacity:1;fill:#2b323e;stroke-width:0.58207188;stroke-opacity:1;stroke:#eed49f;stroke-dasharray:none;fill-opacity:1"
     id="path1"
     cx="8.4450111"
     cy="8.423522"
     rx="6.8752708"
     ry="6.8578653" />
  <ellipse
     style="fill:url(#linearGradient4);stroke:none;stroke-width:0.515624;stroke-dasharray:none;stroke-opacity:1"
     id="path1-2"
     cx="8.4450111"
     cy="8.423522"
     rx="6.0904069"
     ry="6.0749874" />
  <path
     id="path5-7-7"
     style="fill:#000000;fill-opacity:1;stroke-width:0.0207989;opacity:0.3"
     d="M 8.501736,5.5753147 C 8.3841333,5.5753872 8.2669208,5.5790497 8.1909795,5.5860814 7.37032,5.6620747 6.607603,6.0238174 6.0117677,6.6196532 5.3329371,7.2984836 4.9671851,8.1723791 4.9671851,9.1159836 c 0,0.559347 0.119714,1.0673264 0.3677692,1.5623474 0.4926193,0.983075 1.4224199,1.662898 2.528385,1.848637 0.085795,0.0144 0.1981069,0.03035 0.2495838,0.03524 0.1566624,0.01488 0.5183674,0.01256 0.6760794,-0.0041 0.3594205,-0.03812 0.6300989,-0.106363 1.0294122,-0.259863 0.4077223,-0.15673 0.5548433,-0.192373 0.7954883,-0.192325 0.240521,4.7e-5 0.418995,0.04094 0.832926,0.190858 0.264267,0.09571 0.369694,0.128493 0.380248,0.117941 0.01,-0.01 -0.02039,-0.08408 -0.126749,-0.308799 -0.2098,-0.443268 -0.277556,-0.720877 -0.253745,-1.039955 0.01463,-0.196062 0.05192,-0.327196 0.207253,-0.727953 C 11.923731,9.6416011 11.966079,9.456175 11.965817,8.9718538 11.96546,8.2858131 11.783687,7.6775698 11.413305,7.1234712 10.82131,6.237834 9.8803273,5.6810625 8.8149399,5.5858368 8.737323,5.5788988 8.6193389,5.5752427 8.501736,5.5753159 Z m -0.050651,0.989283 c 0.3021624,-0.00271 0.6306629,0.022573 0.8627781,0.072673 0.320668,0.069214 0.5812882,0.2410467 0.643291,0.4238036 0.018351,0.054092 0.014283,0.135556 -0.00954,0.1881671 -0.025632,0.056619 -0.1024567,0.1310279 -0.1717735,0.1663891 -0.043319,0.022097 -0.065057,0.0261 -0.1446111,0.025937 C 9.4824069,7.4412442 9.3993832,7.3996624 9.1009829,7.1763232 8.9073078,7.0313663 8.7791465,6.9458919 8.6815835,6.8966423 8.2975833,6.7027994 7.6636049,6.8140155 7.5347201,7.0977776 c -0.027795,0.061196 -0.024509,0.097845 0.017129,0.181071 0.1000388,0.1999654 0.3739719,0.4110905 1.068073,0.8238723 0.1844883,0.1097147 0.4068217,0.243912 0.4942745,0.2980326 0.4839415,0.2994877 0.7893318,0.5753407 0.9599184,0.8674268 0.204962,0.350943 0.199212,0.9023567 -0.01395,1.3394357 -0.096196,0.19725 -0.2448508,0.377125 -0.4384833,0.530243 C 9.314652,11.380651 9.0385376,11.500333 8.6485531,11.55995 8.5159158,11.58023 8.2181445,11.58816 8.0980001,11.57463 7.7210844,11.532196 7.3788688,11.380398 7.1348957,11.147157 6.8754164,10.899094 6.7463032,10.634633 6.7140285,10.285358 6.6910093,10.036247 6.747141,9.7301379 6.8549702,9.5162961 6.9562683,9.3154061 7.167273,9.0941623 7.4057679,8.9385824 7.6127929,8.8035309 7.8194471,8.7134155 8.1224657,8.626113 8.3423737,8.562755 8.4092429,8.536786 8.4092429,8.5145339 c 0,-0.04391 -0.2650116,-0.2863457 -0.5449254,-0.498434 C 7.3960197,7.6612745 7.2659886,7.5134113 7.2325272,7.2981785 7.2017128,7.0999724 7.2876482,6.9106997 7.4620466,6.7924037 7.592228,6.7041007 7.7855757,6.6299225 7.9621935,6.6005666 8.09801,6.5779921 8.2697875,6.5662309 8.451085,6.5645977 Z m 0.1866992,2.266566 c -0.0362,-9.28e-5 -0.081975,0.0068 -0.1487717,0.020309 C 8.2174913,8.9064298 7.9625829,9.0318066 7.7899322,9.1957523 7.542067,9.4311206 7.4649402,9.6468277 7.4762394,10.071988 c 0.00589,0.22143 0.027076,0.315803 0.1115785,0.492807 0.1412369,0.295836 0.357017,0.498536 0.6271415,0.589214 0.044633,0.01498 0.1076236,0.03119 0.1402074,0.03597 v -2.4e-4 c 0.1303451,0.01912 0.273461,0.0061 0.4110797,-0.0372 0.3243144,-0.10221 0.5603315,-0.3629 0.6574824,-0.726235 0.033725,-0.126113 0.045621,-0.340042 0.026184,-0.4729807 C 9.4131747,9.7020781 9.3123258,9.4739731 9.1396437,9.250814 9.0483666,9.1328553 8.789387,8.8811756 8.7290535,8.8519687 8.7006181,8.8382064 8.673984,8.8312628 8.637784,8.8311705 Z" />
  <path
     id="path5-7"
     style="fill:url(#linearGradient59);fill-opacity:1;stroke-width:0.0207989"
     d="M 8.501736,5.0461585 C 8.3841333,5.046231 8.2669208,5.0498935 8.1909795,5.0569252 7.37032,5.1329185 6.607603,5.4946612 6.0117677,6.090497 5.3329371,6.7693274 4.9671851,7.6432229 4.9671851,8.5868274 c 0,0.559347 0.119714,1.0673264 0.3677692,1.5623476 0.4926193,0.983075 1.4224199,1.662898 2.528385,1.848637 0.085795,0.0144 0.1981069,0.03035 0.2495838,0.03524 0.1566624,0.01488 0.5183674,0.01256 0.6760794,-0.0041 0.3594205,-0.03812 0.6300989,-0.106363 1.0294122,-0.259863 0.4077223,-0.15673 0.5548433,-0.192373 0.7954883,-0.192325 0.240521,4.7e-5 0.418995,0.04094 0.832926,0.190858 0.264267,0.09571 0.369694,0.128493 0.380248,0.117941 0.01,-0.01 -0.02039,-0.08408 -0.126749,-0.308799 -0.2098,-0.443268 -0.277556,-0.720877 -0.253745,-1.039955 0.01463,-0.196062 0.05192,-0.327196 0.207253,-0.7279537 C 11.923731,9.1124449 11.966079,8.9270188 11.965817,8.4426976 11.96546,7.7566569 11.783687,7.1484136 11.413305,6.594315 10.82131,5.7086778 9.8803273,5.1519063 8.8149399,5.0566806 8.737323,5.0497426 8.6193389,5.0460865 8.501736,5.0461597 Z m -0.050651,0.989283 c 0.3021624,-0.00271 0.6306629,0.022573 0.8627781,0.072673 0.320668,0.069214 0.5812882,0.2410467 0.643291,0.4238036 0.018351,0.054092 0.014283,0.135556 -0.00954,0.1881671 -0.025632,0.056619 -0.1024567,0.1310279 -0.1717735,0.1663891 -0.043319,0.022097 -0.065057,0.0261 -0.1446111,0.025937 C 9.4824069,6.912088 9.3993832,6.8705062 9.1009829,6.647167 8.9073078,6.5022101 8.7791465,6.4167357 8.6815835,6.3674861 8.2975833,6.1736432 7.6636049,6.2848593 7.5347201,6.5686214 c -0.027795,0.061196 -0.024509,0.097845 0.017129,0.181071 0.1000388,0.1999654 0.3739719,0.4110905 1.068073,0.8238723 0.1844883,0.1097147 0.4068217,0.243912 0.4942745,0.2980326 0.4839415,0.2994877 0.7893318,0.5753407 0.9599184,0.8674268 0.204962,0.350943 0.199212,0.9023562 -0.01395,1.3394359 -0.096196,0.19725 -0.2448508,0.377125 -0.4384833,0.530243 -0.3070297,0.242792 -0.5831441,0.362474 -0.9731286,0.422091 -0.1326373,0.02028 -0.4304086,0.02821 -0.550553,0.01468 C 7.7210844,11.00304 7.3788688,10.851242 7.1348957,10.618001 6.8754164,10.369938 6.7463032,10.105477 6.7140285,9.7562017 6.6910093,9.5070908 6.747141,9.2009817 6.8549702,8.9871399 6.9562683,8.7862499 7.167273,8.5650061 7.4057679,8.4094262 7.6127929,8.2743747 7.8194471,8.1842593 8.1224657,8.0969568 c 0.219908,-0.063358 0.2867772,-0.089327 0.2867772,-0.1115791 0,-0.04391 -0.2650116,-0.2863457 -0.5449254,-0.498434 C 7.3960197,7.1321183 7.2659886,6.9842551 7.2325272,6.7690223 7.2017128,6.5708162 7.2876482,6.3815435 7.4620466,6.2632475 7.592228,6.1749445 7.7855757,6.1007663 7.9621935,6.0714104 8.09801,6.0488359 8.2697875,6.0370747 8.451085,6.0354415 Z m 0.1866992,2.266566 c -0.0362,-9.28e-5 -0.081975,0.0068 -0.1487717,0.020309 C 8.2174913,8.3772736 7.9625829,8.5026504 7.7899322,8.6665961 7.542067,8.9019644 7.4649402,9.1176715 7.4762394,9.5428316 c 0.00589,0.2214301 0.027076,0.3158035 0.1115785,0.4928074 0.1412369,0.295836 0.357017,0.498536 0.6271415,0.589214 0.044633,0.01498 0.1076236,0.03119 0.1402074,0.03597 v -2.4e-4 c 0.1303451,0.01912 0.273461,0.0061 0.4110797,-0.0372 0.3243144,-0.10221 0.5603315,-0.3629 0.6574824,-0.7262348 C 9.4574537,9.7710346 9.4693499,9.5571053 9.4499126,9.4241671 9.4131747,9.1729219 9.3123258,8.9448169 9.1396437,8.7216578 9.0483666,8.6036991 8.789387,8.3520194 8.7290535,8.3228125 8.7006181,8.3090502 8.673984,8.3021066 8.637784,8.3020143 Z" />
</svg>
