<?xml version="1.0" encoding="UTF-8" standalone="no"?>
<svg
   width="64"
   height="64"
   version="1.1"
   viewBox="0 0 16.933 16.933"
   id="svg7"
   sodipodi:docname="com.bitwarden.desktop.svg"
   inkscape:version="1.4 (e7c3feb100, 2024-10-09)"
   xmlns:inkscape="http://www.inkscape.org/namespaces/inkscape"
   xmlns:sodipodi="http://sodipodi.sourceforge.net/DTD/sodipodi-0.dtd"
   xmlns:xlink="http://www.w3.org/1999/xlink"
   xmlns="http://www.w3.org/2000/svg"
   xmlns:svg="http://www.w3.org/2000/svg"
   xmlns:rdf="http://www.w3.org/1999/02/22-rdf-syntax-ns#"
   xmlns:cc="http://creativecommons.org/ns#"
   xmlns:dc="http://purl.org/dc/elements/1.1/">
  <sodipodi:namedview
     id="namedview7"
     pagecolor="#9c4444"
     bordercolor="#000000"
     borderopacity="0.25"
     inkscape:showpageshadow="2"
     inkscape:pageopacity="0.0"
     inkscape:pagecheckerboard="0"
     inkscape:deskcolor="#d1d1d1"
     inkscape:zoom="4.3531261"
     inkscape:cx="36.755195"
     inkscape:cy="25.958357"
     inkscape:window-width="1280"
     inkscape:window-height="669"
     inkscape:window-x="24"
     inkscape:window-y="205"
     inkscape:window-maximized="0"
     inkscape:current-layer="svg7"
     showgrid="false" />
  <defs
     id="defs2">
    <linearGradient
       id="linearGradient1"
       inkscape:collect="always">
      <stop
         style="stop-color:#d8dee9;stop-opacity:1;"
         offset="0"
         id="stop1" />
      <stop
         style="stop-color:#eceff4;stop-opacity:1;"
         offset="1"
         id="stop2" />
    </linearGradient>
    <linearGradient
       inkscape:collect="always"
       id="linearGradient1134">
      <stop
         style="stop-color:#2e3440;stop-opacity:1;"
         offset="0"
         id="stop1130" />
      <stop
         style="stop-color:#4c566a;stop-opacity:1;"
         offset="1"
         id="stop1132" />
    </linearGradient>
    <filter
       style="color-interpolation-filters:sRGB;"
       inkscape:label="Blur"
       id="filter3"
       x="-0.10843471"
       y="-0.10870992"
       width="1.2168694"
       height="1.2174198">
      <feGaussianBlur
         stdDeviation="0.5 0.5"
         result="blur"
         id="feGaussianBlur3" />
    </filter>
    <linearGradient
       inkscape:collect="always"
       xlink:href="#linearGradient1134"
       id="linearGradient4"
       x1="14.388208"
       y1="14.440324"
       x2="2.2869277"
       y2="2.3637428"
       gradientUnits="userSpaceOnUse" />
    <linearGradient
       inkscape:collect="always"
       xlink:href="#linearGradient1"
       id="linearGradient9"
       x1="12.485134"
       y1="11.831118"
       x2="4.8286815"
       y2="4.6051836"
       gradientUnits="userSpaceOnUse"
       gradientTransform="matrix(0.9,0,0,0.9,0.84678184,1.3442181)" />
  </defs>
  <metadata
     id="metadata2">
    <rdf:RDF>
      <cc:Work
         rdf:about="">
        <dc:format>image/svg+xml</dc:format>
        <dc:type
           rdf:resource="http://purl.org/dc/dcmitype/StillImage" />
      </cc:Work>
    </rdf:RDF>
  </metadata>
  <ellipse
     style="opacity:1;fill:none;stroke:#000000;stroke-width:0.582072;stroke-dasharray:none;stroke-opacity:1;filter:url(#filter3)"
     id="path1-5"
     cx="8.4450111"
     cy="8.423522"
     rx="6.8752708"
     ry="6.8578653" />
  <ellipse
     style="opacity:1;fill:#2b323e;stroke-width:0.58207188;stroke-opacity:1;stroke:#eed49f;stroke-dasharray:none;fill-opacity:1"
     id="path1"
     cx="8.4450111"
     cy="8.423522"
     rx="6.8752708"
     ry="6.8578653" />
  <ellipse
     style="fill:url(#linearGradient4);stroke:none;stroke-width:0.515624;stroke-dasharray:none;stroke-opacity:1"
     id="path1-2"
     cx="8.4450111"
     cy="8.423522"
     rx="6.0904069"
     ry="6.0749874" />
  <path
     id="path3-6-5"
     style="fill:#000000;fill-opacity:1;stroke:none;stroke-width:0.0385167;opacity:0.3"
     d="M 8.4700688,5.6995374 C 7.7938033,5.6991459 7.1136388,5.895304 6.5170777,6.2949505 5.2013795,7.1763596 4.6409918,8.8151386 5.1413743,10.318143 5.5697181,11.604764 6.726145,12.544678 8.0673872,12.696472 9.2935698,12.835247 10.523584,12.305669 11.26709,11.318656 12.345049,9.8876531 12.176337,7.8908126 10.87347,6.6592671 10.202604,6.0251249 9.3395528,5.7000384 8.4700688,5.6995374 Z m -0.014198,2.6272487 c 0.1010214,0 0.1902212,0.048216 0.6389136,0.3446812 0.210219,0.1388986 0.4391346,0.2846241 0.5087138,0.3235349 l 0.1265749,0.070688 0.1302001,-0.033532 c 0.071685,-0.018464 0.2674688,-0.077167 0.4350048,-0.1301992 0.427224,-0.1352346 0.638155,-0.1896539 0.733163,-0.1897106 0.07303,-4.33e-5 0.08186,0.00471 0.08186,0.045009 0,0.2259333 -1.046604,1.2818166 -1.3216285,1.3334106 C 9.6589544,10.115008 9.4349669,10.014333 8.8464691,9.6671454 8.6563815,9.5550024 8.4894707,9.4632566 8.4758088,9.4632369 8.4386156,9.4631822 8.3208065,9.5261269 7.9900533,9.7230314 7.6448395,9.9285446 7.4836967,10.012596 7.3375457,10.062879 7.1988689,10.110591 7.1473089,10.108159 7.0351571,10.048681 6.6716439,9.8558999 5.814122,8.935987 5.814122,8.7388329 c 3e-7,-0.056289 0.2253073,-0.0198 0.616257,0.099689 0.1959534,0.059891 0.445806,0.1349314 0.5552356,0.166752 l 0.1990751,0.058001 0.080356,-0.035949 C 7.3091999,9.0076889 7.4881236,8.8970248 7.662893,8.7811248 8.2037873,8.422426 8.3706232,8.3267864 8.4558708,8.3267861 Z" />
  <path
     id="path3-6"
     style="fill:url(#linearGradient9);fill-opacity:1;stroke:none;stroke-width:0.0385167"
     d="M 8.4700688,5.1703812 C 7.7938033,5.1699897 7.1136388,5.3661478 6.5170777,5.7657943 5.2013795,6.6472034 4.6409918,8.2859824 5.1413743,9.7889866 5.5697181,11.075608 6.726145,12.015522 8.0673872,12.167316 9.2935698,12.306091 10.523584,11.776513 11.26709,10.7895 12.345049,9.3584969 12.176337,7.3616564 10.87347,6.1301109 10.202604,5.4959687 9.3395528,5.1708822 8.4700688,5.1703812 Z m -0.014198,2.6272487 c 0.1010214,0 0.1902212,0.048216 0.6389136,0.3446812 0.210219,0.1388986 0.4391346,0.2846241 0.5087138,0.3235349 L 9.7300731,8.536534 9.8602732,8.503002 c 0.071685,-0.018464 0.2674688,-0.077167 0.4350048,-0.1301992 0.427224,-0.1352346 0.638155,-0.189654 0.733163,-0.1897106 0.07303,-4.33e-5 0.08186,0.00471 0.08186,0.045009 0,0.2259333 -1.046604,1.2818163 -1.3216285,1.333411 C 9.6589544,9.5858517 9.4349669,9.4851763 8.8464691,9.1379892 8.6563815,9.0258462 8.4894707,8.9341004 8.4758088,8.9340807 8.4386156,8.934026 8.3208065,8.9969707 7.9900533,9.1938752 7.6448395,9.3993884 7.4836967,9.4834394 7.3375457,9.5337231 7.1988689,9.5814351 7.1473089,9.5790026 7.0351571,9.5195249 6.6716439,9.3267437 5.814122,8.4068308 5.814122,8.2096767 c 3e-7,-0.056289 0.2253073,-0.0198 0.616257,0.099689 0.1959534,0.059891 0.445806,0.1349314 0.5552356,0.166752 l 0.1990751,0.058001 0.080356,-0.035949 C 7.3091999,8.4785327 7.4881236,8.3678686 7.662893,8.2519686 8.2037873,7.8932698 8.3706232,7.7976302 8.4558708,7.7976299 Z" />
</svg>
