<?xml version="1.0" encoding="UTF-8" standalone="no"?>
<svg
   width="64"
   height="64"
   version="1.1"
   viewBox="0 0 16.933 16.933"
   id="svg7"
   sodipodi:docname="anydesk.svg"
   inkscape:version="1.4 (e7c3feb100, 2024-10-09)"
   xmlns:inkscape="http://www.inkscape.org/namespaces/inkscape"
   xmlns:sodipodi="http://sodipodi.sourceforge.net/DTD/sodipodi-0.dtd"
   xmlns:xlink="http://www.w3.org/1999/xlink"
   xmlns="http://www.w3.org/2000/svg"
   xmlns:svg="http://www.w3.org/2000/svg"
   xmlns:rdf="http://www.w3.org/1999/02/22-rdf-syntax-ns#"
   xmlns:cc="http://creativecommons.org/ns#"
   xmlns:dc="http://purl.org/dc/elements/1.1/">
  <sodipodi:namedview
     id="namedview7"
     pagecolor="#9c4444"
     bordercolor="#000000"
     borderopacity="0.25"
     inkscape:showpageshadow="2"
     inkscape:pageopacity="0.0"
     inkscape:pagecheckerboard="0"
     inkscape:deskcolor="#d1d1d1"
     inkscape:zoom="4.3531261"
     inkscape:cx="36.755195"
     inkscape:cy="25.958357"
     inkscape:window-width="1280"
     inkscape:window-height="669"
     inkscape:window-x="24"
     inkscape:window-y="205"
     inkscape:window-maximized="0"
     inkscape:current-layer="svg7"
     showgrid="false" />
  <defs
     id="defs2">
    <linearGradient
       id="linearGradient1"
       inkscape:collect="always">
      <stop
         style="stop-color:#d8dee9;stop-opacity:1;"
         offset="0"
         id="stop1" />
      <stop
         style="stop-color:#eceff4;stop-opacity:1;"
         offset="1"
         id="stop2" />
    </linearGradient>
    <linearGradient
       inkscape:collect="always"
       id="linearGradient1134">
      <stop
         style="stop-color:#2e3440;stop-opacity:1;"
         offset="0"
         id="stop1130" />
      <stop
         style="stop-color:#4c566a;stop-opacity:1;"
         offset="1"
         id="stop1132" />
    </linearGradient>
    <filter
       style="color-interpolation-filters:sRGB;"
       inkscape:label="Blur"
       id="filter3"
       x="-0.10843471"
       y="-0.10870992"
       width="1.2168694"
       height="1.2174198">
      <feGaussianBlur
         stdDeviation="0.5 0.5"
         result="blur"
         id="feGaussianBlur3" />
    </filter>
    <linearGradient
       inkscape:collect="always"
       xlink:href="#linearGradient1134"
       id="linearGradient4"
       x1="14.388208"
       y1="14.440324"
       x2="2.2869277"
       y2="2.3637428"
       gradientUnits="userSpaceOnUse" />
    <linearGradient
       inkscape:collect="always"
       xlink:href="#linearGradient1"
       id="linearGradient5"
       x1="12.428696"
       y1="12.134697"
       x2="4.5434504"
       y2="4.4765582"
       gradientUnits="userSpaceOnUse" />
  </defs>
  <metadata
     id="metadata2">
    <rdf:RDF>
      <cc:Work
         rdf:about="">
        <dc:format>image/svg+xml</dc:format>
        <dc:type
           rdf:resource="http://purl.org/dc/dcmitype/StillImage" />
      </cc:Work>
    </rdf:RDF>
  </metadata>
  <ellipse
     style="opacity:1;fill:none;stroke:#000000;stroke-width:0.582072;stroke-dasharray:none;stroke-opacity:1;filter:url(#filter3)"
     id="path1-5"
     cx="8.4450111"
     cy="8.423522"
     rx="6.8752708"
     ry="6.8578653" />
  <ellipse
     style="opacity:1;fill:#2b323e;stroke-width:0.58207188;stroke-opacity:1;stroke:#eed49f;stroke-dasharray:none;fill-opacity:1"
     id="path1"
     cx="8.4450111"
     cy="8.423522"
     rx="6.8752708"
     ry="6.8578653" />
  <ellipse
     style="fill:url(#linearGradient4);stroke:none;stroke-width:0.515624;stroke-dasharray:none;stroke-opacity:1"
     id="path1-2"
     cx="8.4450111"
     cy="8.423522"
     rx="6.0904069"
     ry="6.0749874" />
  <path
     id="path36-7"
     style="fill:#000000;fill-opacity:1;stroke-width:0.0404626;stroke-opacity:0.3;opacity:0.3"
     d="m 9.8080382,4.9311042 c -0.077407,0 -0.6088096,0.4668172 -0.8046938,0.7069045 C 8.8040697,5.88225 8.5255878,6.3985406 8.5255878,6.5234643 c 0,0.045471 0.034919,0.066664 0.1109247,0.067139 0.2353618,0.00147 0.6904924,0.1257753 0.9812989,0.2680688 0.4044846,0.1979162 0.7856216,0.5805096 0.9866496,0.9905417 0.08047,0.164127 0.157653,0.362406 0.171254,0.4402951 l 0.02481,0.1415753 -0.07151,-0.1011945 C 10.566241,8.0983619 10.271156,7.830345 10.061026,7.723207 9.8854448,7.6336837 9.4835628,7.520817 9.340499,7.520817 c -0.010956,0 0.066817,0.061563 0.1731997,0.1371969 C 10.470835,8.3385128 10.442421,9.768903 9.4587262,10.425791 8.9693163,10.752606 8.3891336,10.777589 7.8172271,10.496818 7.0342812,10.11245 6.569436,9.2718332 6.9298214,8.892786 7.1641602,8.6463137 7.4458016,8.5274726 7.9286347,8.4719513 8.1161882,8.4503877 8.2005793,8.41446 8.3635791,8.2856167 8.4748168,8.1976881 8.5649563,8.1032289 8.5635362,8.0759295 8.5621079,8.0486296 8.4026606,7.9492967 8.2093543,7.8550521 8.0160476,7.7608074 7.7183717,7.5718723 7.5476947,7.4351904 L 7.2372989,7.1865823 7.1910814,6.9214321 C 7.1643323,6.7678376 7.156868,6.546431 7.1730786,6.3950241 L 7.2008065,6.1337663 7.0276084,6.2305824 C 6.9323393,6.2837193 6.7194563,6.45267 6.554716,6.6061714 6.3838853,6.7653472 6.2408584,6.8696561 6.2214536,6.8489412 6.1641648,6.7877809 6.0978794,6.3980418 6.0978794,6.1225766 c 0,-0.1435565 -0.015946,-0.2607711 -0.035033,-0.2607711 -0.019085,0 -0.1876369,0.158971 -0.3751017,0.353695 -0.7582445,0.7876062 -1.0984755,1.6294254 -1.0995218,2.7215583 -5.671e-4,0.6165754 0.096841,1.0528533 0.3595337,1.6123052 0.2180744,0.464432 0.4492761,0.791725 0.8119919,1.149146 0.5996179,0.590868 1.2971799,0.951687 2.1309315,1.102926 0.9208814,0.167043 1.9416139,-0.02719 2.787725,-0.530786 0.701556,-0.417552 1.373857,-1.226145 1.646849,-1.980596 0.203612,-0.562698 0.260537,-0.9329944 0.235475,-1.5339788 -0.02671,-0.6405653 -0.142587,-1.0767696 -0.432023,-1.627388 -0.180243,-0.3428893 -0.525124,-0.8385752 -0.55949,-0.8042075 -0.0083,0.00808 0.02409,0.090927 0.07151,0.1839026 0.100232,0.1964728 0.24326,0.7273546 0.24326,0.9034558 0,0.1135434 -0.01387,0.1028159 -0.216013,-0.1693069 C 11.549245,7.0826926 11.183637,6.6777395 10.855503,6.3424808 10.252824,5.7267167 9.9789668,5.3689061 9.8941498,5.0858155 9.8686369,5.000654 9.8298571,4.9311042 9.8080422,4.9311042 Z M 9.066591,7.8895942 C 9.043292,7.8881442 9.018764,7.8948942 8.9868,7.9061372 8.896436,7.9379162 8.864693,7.9852002 8.8233312,8.1479349 8.7843354,8.3013488 8.7248047,8.3950337 8.577643,8.5356868 8.406627,8.6991364 8.3556844,8.7243188 8.1475633,8.7487794 7.8800915,8.7802158 7.7390163,8.8429769 7.6002346,8.9915496 7.517233,9.0804021 7.5078753,9.1191654 7.5316386,9.2776201 7.586291,9.6420746 7.9549026,10.026787 8.351415,10.133397 8.7481033,10.240056 8.9831947,10.182253 9.2534118,9.9120338 9.7376234,9.4278218 9.7460248,8.5510091 9.2714148,8.0486861 9.1636429,7.9346199 9.1178582,7.892812 9.0665928,7.8895954 Z" />
  <path
     id="path36"
     style="fill:url(#linearGradient5);fill-opacity:1;stroke-width:0.0404626;stroke-opacity:0.3"
     d="m 9.8080382,4.401948 c -0.077407,0 -0.6088096,0.4668172 -0.8046938,0.7069045 -0.1992747,0.2442413 -0.4777566,0.7605319 -0.4777566,0.8854556 0,0.045471 0.034919,0.066664 0.1109247,0.067139 0.2353618,0.00147 0.6904924,0.1257753 0.9812989,0.2680688 0.4044846,0.1979162 0.7856216,0.5805096 0.9866496,0.9905417 0.08047,0.164127 0.157653,0.362406 0.171254,0.4402951 L 10.80052,7.901928 10.729009,7.8007335 C 10.566241,7.5692057 10.271156,7.3011888 10.061026,7.1940508 9.8854448,7.1045275 9.4835628,6.9916608 9.340499,6.9916608 c -0.010956,0 0.066817,0.061563 0.1731997,0.1371969 C 10.470835,7.8093566 10.442421,9.2397468 9.4587262,9.8966343 8.9693163,10.22345 8.3891336,10.248433 7.8172271,9.9676613 7.0342812,9.5832938 6.569436,8.742677 6.9298214,8.3636298 7.1641602,8.1171575 7.4458016,7.9983164 7.9286347,7.9427951 8.1161882,7.9212315 8.2005793,7.8853038 8.3635791,7.7564605 8.4748168,7.6685319 8.5649563,7.5740727 8.5635362,7.5467733 8.5621079,7.5194734 8.4026606,7.4201405 8.2093543,7.3258959 8.0160476,7.2316512 7.7183717,7.0427161 7.5476947,6.9060342 L 7.2372989,6.6574261 7.1910814,6.3922759 C 7.1643323,6.2386814 7.156868,6.0172748 7.1730786,5.8658679 L 7.2008065,5.6046101 7.0276084,5.7014262 C 6.9323393,5.7545631 6.7194563,5.9235138 6.554716,6.0770152 6.3838853,6.236191 6.2408584,6.3404999 6.2214536,6.319785 6.1641648,6.2586247 6.0978794,5.8688856 6.0978794,5.5934204 c 0,-0.1435565 -0.015946,-0.2607711 -0.035033,-0.2607711 -0.019085,0 -0.1876369,0.158971 -0.3751017,0.353695 -0.7582445,0.7876062 -1.0984755,1.6294254 -1.0995218,2.7215583 -5.671e-4,0.6165754 0.096841,1.0528533 0.3595337,1.6123054 0.2180744,0.464432 0.4492761,0.791725 0.8119919,1.149146 0.5996179,0.590868 1.2971799,0.951687 2.1309315,1.102926 0.9208814,0.167043 1.9416139,-0.02719 2.787725,-0.530786 0.701556,-0.417552 1.373857,-1.226145 1.646849,-1.9805964 C 12.528866,9.1981998 12.585791,8.8279034 12.560729,8.226919 12.534019,7.5863537 12.418142,7.1501494 12.128706,6.599531 11.948463,6.2566417 11.603582,5.7609558 11.569216,5.7953235 c -0.0083,0.00808 0.02409,0.090927 0.07151,0.1839026 0.100232,0.1964728 0.24326,0.7273546 0.24326,0.9034558 0,0.1135434 -0.01387,0.1028159 -0.216013,-0.1693069 C 11.549245,6.5535364 11.183637,6.1485833 10.855503,5.8133246 10.252824,5.1975605 9.9789668,4.8397499 9.8941498,4.5566593 9.8686369,4.4714978 9.8298571,4.401948 9.8080422,4.401948 Z M 9.066591,7.360438 C 9.043292,7.358988 9.018764,7.365738 8.9868,7.376981 8.896436,7.40876 8.864693,7.456044 8.8233312,7.6187787 8.7843354,7.7721926 8.7248047,7.8658775 8.577643,8.0065306 8.406627,8.1699802 8.3556844,8.1951626 8.1475633,8.2196232 7.8800915,8.2510596 7.7390163,8.3138207 7.6002346,8.4623934 7.517233,8.5512459 7.5078753,8.5900092 7.5316386,8.7484639 7.586291,9.1129184 7.9549026,9.4976305 8.351415,9.6042411 8.7481033,9.7108993 8.9831947,9.6530965 9.2534118,9.3828776 9.7376234,8.8986656 9.7460248,8.0218529 9.2714148,7.5195299 9.1636429,7.4054637 9.1178582,7.3636558 9.0665928,7.3604392 Z" />
</svg>
