<?xml version="1.0" encoding="UTF-8" standalone="no"?>
<svg
   width="64"
   height="64"
   version="1.1"
   viewBox="0 0 16.933 16.933"
   id="svg7"
   sodipodi:docname="com.google.Chrome.svg"
   inkscape:version="1.4 (e7c3feb100, 2024-10-09)"
   xmlns:inkscape="http://www.inkscape.org/namespaces/inkscape"
   xmlns:sodipodi="http://sodipodi.sourceforge.net/DTD/sodipodi-0.dtd"
   xmlns:xlink="http://www.w3.org/1999/xlink"
   xmlns="http://www.w3.org/2000/svg"
   xmlns:svg="http://www.w3.org/2000/svg"
   xmlns:rdf="http://www.w3.org/1999/02/22-rdf-syntax-ns#"
   xmlns:cc="http://creativecommons.org/ns#"
   xmlns:dc="http://purl.org/dc/elements/1.1/">
  <sodipodi:namedview
     id="namedview7"
     pagecolor="#9c4444"
     bordercolor="#000000"
     borderopacity="0.25"
     inkscape:showpageshadow="2"
     inkscape:pageopacity="0.0"
     inkscape:pagecheckerboard="0"
     inkscape:deskcolor="#d1d1d1"
     inkscape:zoom="4.3531261"
     inkscape:cx="36.984915"
     inkscape:cy="25.958357"
     inkscape:window-width="1280"
     inkscape:window-height="669"
     inkscape:window-x="180"
     inkscape:window-y="166"
     inkscape:window-maximized="0"
     inkscape:current-layer="svg7"
     showgrid="false" />
  <defs
     id="defs2">
    <linearGradient
       id="linearGradient1"
       inkscape:collect="always">
      <stop
         style="stop-color:#d8dee9;stop-opacity:1;"
         offset="0"
         id="stop1" />
      <stop
         style="stop-color:#eceff4;stop-opacity:1;"
         offset="1"
         id="stop2" />
    </linearGradient>
    <linearGradient
       inkscape:collect="always"
       id="linearGradient1134">
      <stop
         style="stop-color:#2e3440;stop-opacity:1;"
         offset="0"
         id="stop1130" />
      <stop
         style="stop-color:#4c566a;stop-opacity:1;"
         offset="1"
         id="stop1132" />
    </linearGradient>
    <filter
       style="color-interpolation-filters:sRGB;"
       inkscape:label="Blur"
       id="filter3"
       x="-0.10843471"
       y="-0.10870992"
       width="1.2168694"
       height="1.2174198">
      <feGaussianBlur
         stdDeviation="0.5 0.5"
         result="blur"
         id="feGaussianBlur3" />
    </filter>
    <linearGradient
       inkscape:collect="always"
       xlink:href="#linearGradient1134"
       id="linearGradient4"
       x1="14.388208"
       y1="14.440324"
       x2="2.2869277"
       y2="2.3637428"
       gradientUnits="userSpaceOnUse" />
    <filter
       style="color-interpolation-filters:sRGB"
       inkscape:label="Blur"
       id="filter3-8"
       x="-0.10843471"
       y="-0.10870992"
       width="1.2168694"
       height="1.2174198">
      <feGaussianBlur
         stdDeviation="0.5 0.5"
         result="blur"
         id="feGaussianBlur3-7" />
    </filter>
    <linearGradient
       inkscape:collect="always"
       xlink:href="#linearGradient1"
       id="linearGradient19"
       x1="12.82526"
       y1="12.195858"
       x2="4.7707391"
       y2="4.2946033"
       gradientUnits="userSpaceOnUse"
       gradientTransform="translate(0,0.52915625)" />
  </defs>
  <metadata
     id="metadata2">
    <rdf:RDF>
      <cc:Work
         rdf:about="">
        <dc:format>image/svg+xml</dc:format>
        <dc:type
           rdf:resource="http://purl.org/dc/dcmitype/StillImage" />
      </cc:Work>
    </rdf:RDF>
  </metadata>
  <ellipse
     style="opacity:1;fill:none;stroke:#000000;stroke-width:0.582072;stroke-dasharray:none;stroke-opacity:1;filter:url(#filter3)"
     id="path1-5"
     cx="8.4450111"
     cy="8.423522"
     rx="6.8752708"
     ry="6.8578653" />
  <ellipse
     style="opacity:1;fill:#2b323e;stroke-width:0.58207188;stroke-opacity:1;stroke:#eed49f;stroke-dasharray:none;fill-opacity:1"
     id="path1"
     cx="8.4450111"
     cy="8.423522"
     rx="6.8752708"
     ry="6.8578653" />
  <ellipse
     style="fill:url(#linearGradient4);stroke:none;stroke-width:0.515624;stroke-dasharray:none;stroke-opacity:1"
     id="path1-2"
     cx="8.4450111"
     cy="8.423522"
     rx="6.0904069"
     ry="6.0749874" />
  <path
     style="fill:#000000;fill-opacity:1;stroke-width:0.0153851;opacity:0.3"
     d="M 8.0856291,13.103031 C 7.5752147,13.048011 7.0054387,12.864738 6.5597876,12.612236 5.5006899,12.012163 4.7822667,10.965353 4.5906523,9.743025 4.5567228,9.5265852 4.5471694,8.6743094 4.5779798,8.6122163 4.5884751,8.5910612 4.6157572,8.4837506 4.6386057,8.3737466 4.7957679,7.6170881 5.1679405,6.9365847 5.7259794,6.3855261 6.348045,5.7712411 7.0744214,5.4103453 7.9548582,5.2781203 8.2043399,5.2406533 8.7844809,5.2410983 9.0395112,5.2789465 9.9053617,5.4074661 10.666702,5.7884034 11.27655,6.39825 c 0.772655,0.7726552 1.180955,1.7983705 1.150766,2.8909069 -0.02889,1.0451291 -0.441032,1.9799421 -1.197609,2.7163131 -0.603165,0.587061 -1.3133905,0.938307 -2.1775328,1.076919 -0.1834344,0.02942 -0.7690355,0.04192 -0.9665423,0.02063 z M 10.486453,12.18774 c 0.08421,-0.05584 0.201574,-0.140395 0.260806,-0.187899 0.113062,-0.09067 0.438479,-0.40066 0.438479,-0.417685 0,-0.0055 -0.0599,-0.0012 -0.133101,0.0095 -0.401605,0.05864 -0.947423,0.06459 -1.2489903,0.01361 C 9.2142511,11.505642 8.6543846,11.303993 7.6240746,10.820269 6.8694673,10.465984 6.2243322,10.243582 5.6547759,10.141375 5.496425,10.112955 5.0459742,10.100584 5.0225294,10.123997 c -0.02488,0.02485 0.1157205,0.410686 0.2405037,0.659994 0.1881349,0.37588 0.3785882,0.638849 0.6837499,0.944088 0.1186363,0.118665 0.2774823,0.261808 0.3529911,0.318093 l 0.1372886,0.102339 0.084706,-0.0755 c 0.1712489,-0.152631 0.4479115,-0.261719 0.6638286,-0.261747 0.1357902,-1.4e-5 0.4068365,0.04445 0.6230984,0.10222 0.417687,0.111582 0.5749266,0.149947 0.8175233,0.199459 0.3004257,0.06132 0.7084371,0.121038 0.9902317,0.144948 0.1057733,0.009 0.2165465,0.01859 0.2461626,0.02139 0.029619,0.0028 0.1476467,0.0061 0.2622887,0.0076 l 0.208439,0.0024 z m 1.428133,-1.863927 c 0.05317,-0.16153 0.110044,-0.3741835 0.120035,-0.4488588 0.0044,-0.032582 -0.0038,-0.039641 -0.06425,-0.055735 C 11.521912,9.6998534 10.442106,8.9927661 9.2933632,8.0662343 8.8365521,7.6977873 8.4160031,7.427374 7.8702371,7.1511622 7.1772119,6.8004235 6.4713999,6.5659918 6.1084431,6.5659918 H 6.0039516 L 5.862871,6.7150629 c -0.3908344,0.412971 -0.6803918,0.9234635 -0.8406051,1.4819957 -0.022081,0.076973 -0.036956,0.1431422 -0.033058,0.1470403 0.0039,0.00392 0.068704,-0.00824 0.1440136,-0.027 0.1809872,-0.04505 0.5941724,-0.048347 0.8292569,-0.00661 0.3550053,0.063026 0.7123007,0.1699704 1.1231157,0.3361671 0.4390096,0.1776023 0.6534376,0.2827314 1.5308223,0.7505268 0.4194634,0.2236458 1.2598455,0.6346252 1.5626486,0.7641962 0.338257,0.144741 0.66076,0.257556 0.850996,0.297687 0.104576,0.02206 0.206297,0.0282 0.481339,0.02905 l 0.348737,0.0011 z M 12.07128,8.7314509 C 12.065356,8.6701031 12.043071,8.5368291 12.021759,8.4352871 11.875566,7.7387381 11.49552,7.0588879 10.979141,6.5701883 10.329121,5.955011 9.5372548,5.6226661 8.6087242,5.5753281 l -0.1538516,-0.00784 0.092311,0.040602 C 9.276974,5.9290768 9.9958055,6.465483 10.657177,7.182609 c 0.37989,0.4119156 0.529822,0.5924702 1.021061,1.2296046 0.153811,0.1994934 0.363639,0.430784 0.390808,0.430784 0.0071,0 0.0082,-0.050195 0.0023,-0.1115422 z"
     id="path452-7" />
  <path
     style="fill:url(#linearGradient19);fill-opacity:1;stroke-width:0.0153851"
     d="M 8.0856291,12.573875 C 7.5752147,12.518855 7.0054387,12.335582 6.5597876,12.08308 5.5006899,11.483007 4.7822667,10.436197 4.5906523,9.2138688 4.5567228,8.997429 4.5471694,8.1451532 4.5779798,8.0830601 4.5884751,8.061905 4.6157572,7.9545944 4.6386057,7.8445904 4.7957679,7.0879319 5.1679405,6.4074285 5.7259794,5.8563699 6.348045,5.2420849 7.0744214,4.8811891 7.9548582,4.7489641 c 0.2494817,-0.037467 0.8296227,-0.037022 1.084653,8.262e-4 0.8658505,0.1285196 1.6271908,0.5094569 2.2370388,1.1193035 0.772655,0.7726552 1.180955,1.7983705 1.150766,2.8909069 -0.02889,1.0451295 -0.441032,1.9799423 -1.197609,2.7163133 -0.603165,0.587061 -1.3133905,0.938307 -2.1775328,1.076919 -0.1834344,0.02942 -0.7690355,0.04192 -0.9665423,0.02063 z m 2.4008239,-0.915291 c 0.08421,-0.05584 0.201574,-0.140395 0.260806,-0.187899 0.113062,-0.09067 0.438479,-0.40066 0.438479,-0.417685 0,-0.0055 -0.0599,-0.0012 -0.133101,0.0095 -0.401605,0.05864 -0.947423,0.06459 -1.2489903,0.01361 C 9.2142511,10.976486 8.6543846,10.774837 7.6240746,10.291113 6.8694673,9.9368279 6.2243322,9.7144262 5.6547759,9.6122187 5.496425,9.5837983 5.0459742,9.5714276 5.0225294,9.5948405 c -0.02488,0.024848 0.1157205,0.4106865 0.2405037,0.6599945 0.1881349,0.37588 0.3785882,0.638849 0.6837499,0.944088 0.1186363,0.118665 0.2774823,0.261808 0.3529911,0.318093 l 0.1372886,0.102339 0.084706,-0.0755 c 0.1712489,-0.152631 0.4479115,-0.261719 0.6638286,-0.261747 0.1357902,-1.4e-5 0.4068365,0.04445 0.6230984,0.10222 0.417687,0.111582 0.5749266,0.149947 0.8175233,0.199459 0.3004257,0.06132 0.7084371,0.121038 0.9902317,0.144948 0.1057733,0.009 0.2165465,0.01859 0.2461626,0.02139 0.029619,0.0028 0.1476467,0.0061 0.2622887,0.0076 l 0.208439,0.0024 z m 1.428133,-1.8639268 c 0.05317,-0.1615305 0.110044,-0.3741839 0.120035,-0.4488592 0.0044,-0.032582 -0.0038,-0.039641 -0.06425,-0.055735 C 11.521912,9.1706972 10.442106,8.4636099 9.2933632,7.5370781 8.8365521,7.1686311 8.4160031,6.8982178 7.8702371,6.622006 7.1772119,6.2712673 6.4713999,6.0368356 6.1084431,6.0368356 H 6.0039516 L 5.862871,6.1859067 c -0.3908344,0.412971 -0.6803918,0.9234635 -0.8406051,1.4819956 -0.022081,0.076973 -0.036956,0.1431423 -0.033058,0.1470404 0.0039,0.00392 0.068704,-0.00824 0.1440136,-0.027 0.1809872,-0.04505 0.5941724,-0.048347 0.8292569,-0.00661 0.3550053,0.063026 0.7123007,0.1699704 1.1231157,0.3361671 0.4390096,0.1776022 0.6534376,0.2827314 1.5308223,0.7505268 0.4194634,0.2236458 1.2598455,0.6346256 1.5626486,0.7641957 0.338257,0.144741 0.66076,0.2575562 0.850996,0.2976876 0.104576,0.022056 0.206297,0.028196 0.481339,0.029047 l 0.348737,0.00113 z M 12.07128,8.2022947 C 12.065356,8.1409469 12.043071,8.0076729 12.021759,7.9061309 11.875566,7.2095819 11.49552,6.5297317 10.979141,6.0410321 10.329121,5.4258548 9.5372548,5.0935099 8.6087242,5.0461719 l -0.1538516,-0.00784 0.092311,0.040602 c 0.7297904,0.3209867 1.4486219,0.8573929 2.1099934,1.5745189 0.37989,0.4119156 0.529822,0.5924702 1.021061,1.2296046 0.153811,0.1994934 0.363639,0.430784 0.390808,0.430784 0.0071,0 0.0082,-0.050195 0.0023,-0.1115422 z"
     id="path452" />
</svg>
