<?xml version="1.0" encoding="UTF-8" standalone="no"?>
<svg
   width="64"
   height="64"
   version="1.1"
   viewBox="0 0 16.933 16.933"
   id="svg7"
   sodipodi:docname="gparted.svg"
   inkscape:version="1.4 (e7c3feb100, 2024-10-09)"
   xmlns:inkscape="http://www.inkscape.org/namespaces/inkscape"
   xmlns:sodipodi="http://sodipodi.sourceforge.net/DTD/sodipodi-0.dtd"
   xmlns:xlink="http://www.w3.org/1999/xlink"
   xmlns="http://www.w3.org/2000/svg"
   xmlns:svg="http://www.w3.org/2000/svg"
   xmlns:rdf="http://www.w3.org/1999/02/22-rdf-syntax-ns#"
   xmlns:cc="http://creativecommons.org/ns#"
   xmlns:dc="http://purl.org/dc/elements/1.1/">
  <sodipodi:namedview
     id="namedview7"
     pagecolor="#9c4444"
     bordercolor="#000000"
     borderopacity="0.25"
     inkscape:showpageshadow="2"
     inkscape:pageopacity="0.0"
     inkscape:pagecheckerboard="0"
     inkscape:deskcolor="#d1d1d1"
     inkscape:zoom="4.3531261"
     inkscape:cx="36.295755"
     inkscape:cy="25.958357"
     inkscape:window-width="1280"
     inkscape:window-height="669"
     inkscape:window-x="180"
     inkscape:window-y="166"
     inkscape:window-maximized="0"
     inkscape:current-layer="svg7"
     showgrid="false" />
  <defs
     id="defs2">
    <linearGradient
       id="linearGradient1"
       inkscape:collect="always">
      <stop
         style="stop-color:#d8dee9;stop-opacity:1;"
         offset="0"
         id="stop1" />
      <stop
         style="stop-color:#eceff4;stop-opacity:1;"
         offset="1"
         id="stop2" />
    </linearGradient>
    <linearGradient
       inkscape:collect="always"
       id="linearGradient1134">
      <stop
         style="stop-color:#2e3440;stop-opacity:1;"
         offset="0"
         id="stop1130" />
      <stop
         style="stop-color:#4c566a;stop-opacity:1;"
         offset="1"
         id="stop1132" />
    </linearGradient>
    <filter
       style="color-interpolation-filters:sRGB;"
       inkscape:label="Blur"
       id="filter3"
       x="-0.10843471"
       y="-0.10870992"
       width="1.2168694"
       height="1.2174198">
      <feGaussianBlur
         stdDeviation="0.5 0.5"
         result="blur"
         id="feGaussianBlur3" />
    </filter>
    <linearGradient
       inkscape:collect="always"
       xlink:href="#linearGradient1134"
       id="linearGradient4"
       x1="14.388208"
       y1="14.440324"
       x2="2.2869277"
       y2="2.3637428"
       gradientUnits="userSpaceOnUse" />
    <filter
       style="color-interpolation-filters:sRGB"
       inkscape:label="Blur"
       id="filter3-8"
       x="-0.10843471"
       y="-0.10870992"
       width="1.2168694"
       height="1.2174198">
      <feGaussianBlur
         stdDeviation="0.5 0.5"
         result="blur"
         id="feGaussianBlur3-7" />
    </filter>
    <linearGradient
       inkscape:collect="always"
       xlink:href="#linearGradient1134"
       id="linearGradient11"
       gradientUnits="userSpaceOnUse"
       x1="14.388208"
       y1="14.440324"
       x2="2.2869277"
       y2="2.3637428"
       gradientTransform="matrix(0.4782969,0,0,0.4782969,8.9000071,8.8280171)" />
    <linearGradient
       inkscape:collect="always"
       xlink:href="#linearGradient1"
       id="linearGradient6"
       x1="12.043377"
       y1="11.926996"
       x2="5.0442758"
       y2="4.9982042"
       gradientUnits="userSpaceOnUse" />
    <linearGradient
       inkscape:collect="always"
       xlink:href="#linearGradient1"
       id="linearGradient8"
       x1="14.651535"
       y1="14.73875"
       x2="11.16063"
       y2="10.848903"
       gradientUnits="userSpaceOnUse" />
  </defs>
  <metadata
     id="metadata2">
    <rdf:RDF>
      <cc:Work
         rdf:about="">
        <dc:format>image/svg+xml</dc:format>
        <dc:type
           rdf:resource="http://purl.org/dc/dcmitype/StillImage" />
      </cc:Work>
    </rdf:RDF>
  </metadata>
  <ellipse
     style="opacity:1;fill:none;stroke:#000000;stroke-width:0.582072;stroke-dasharray:none;stroke-opacity:1;filter:url(#filter3)"
     id="path1-5"
     cx="8.4450111"
     cy="8.423522"
     rx="6.8752708"
     ry="6.8578653" />
  <ellipse
     style="opacity:1;fill:#2b323e;stroke-width:0.58207188;stroke-opacity:1;stroke:#ed8796;stroke-dasharray:none;fill-opacity:1"
     id="path1"
     cx="8.4450111"
     cy="8.423522"
     rx="6.8752708"
     ry="6.8578653" />
  <ellipse
     style="fill:url(#linearGradient4);stroke:none;stroke-width:0.515624;stroke-dasharray:none;stroke-opacity:1"
     id="path1-2"
     cx="8.4450111"
     cy="8.423522"
     rx="6.0904069"
     ry="6.0749874" />
  <path
     style="fill:#000000;fill-opacity:1;stroke:none;stroke-width:0.0964386;stroke-dasharray:none;stroke-opacity:0.6;opacity:0.3"
     d="m 8.604605,5.4409577 c -1.994623,0 -3.6115777,1.6169553 -3.6115777,3.6115777 V 12.664114 H 8.604605 c 1.994623,0 3.611579,-1.616956 3.611579,-3.6115786 0,-1.9946224 -1.616956,-3.6115777 -3.611579,-3.6115777 z m 0,2.0637588 A 1.5478191,1.5478191 0 0 1 10.152425,9.0525354 1.5478191,1.5478191 0 0 1 8.604605,10.600353 1.5478191,1.5478191 0 0 1 7.0567858,9.0525354 1.5478191,1.5478191 0 0 1 8.604605,7.5047165 Z"
     id="path2072-1" />
  <path
     style="opacity:1;fill:url(#linearGradient6);fill-opacity:1;stroke:none;stroke-width:0.0964386;stroke-dasharray:none;stroke-opacity:0.6"
     d="m 8.604605,4.9118015 c -1.994623,0 -3.6115777,1.6169553 -3.6115777,3.6115777 V 12.134958 H 8.604605 c 1.994623,0 3.611579,-1.616956 3.611579,-3.6115788 0,-1.9946224 -1.616956,-3.6115777 -3.611579,-3.6115777 z m 0,2.0637588 A 1.5478191,1.5478191 0 0 1 10.152425,8.5233792 1.5478191,1.5478191 0 0 1 8.604605,10.071197 1.5478191,1.5478191 0 0 1 7.0567858,8.5233792 1.5478191,1.5478191 0 0 1 8.604605,6.9755603 Z"
     id="path2072" />
  <ellipse
     style="fill:none;stroke:#000000;stroke-width:0.582072;stroke-dasharray:none;stroke-opacity:1;filter:url(#filter3-8)"
     id="path1-5-7"
     cx="8.4450111"
     cy="8.423522"
     rx="6.8752708"
     ry="6.8578653"
     transform="matrix(0.4782969,0,0,0.4782969,8.9000071,8.8280171)" />
  <ellipse
     style="fill:#2b323e;fill-opacity:1;stroke:#ed8796;stroke-width:0.278402;stroke-dasharray:none;stroke-opacity:1"
     id="path1-59"
     cx="12.939234"
     cy="12.856965"
     rx="3.2884204"
     ry="3.2800953" />
  <ellipse
     style="fill:url(#linearGradient11);stroke:none;stroke-width:0.246622;stroke-dasharray:none;stroke-opacity:1"
     id="path1-2-2"
     cx="12.939234"
     cy="12.856965"
     rx="2.9130225"
     ry="2.9056478" />
  <path
     style="color:#000000;clip-rule:nonzero;display:inline;overflow:visible;visibility:visible;isolation:auto;mix-blend-mode:normal;color-interpolation:sRGB;color-interpolation-filters:linearRGB;solid-color:#000000;solid-opacity:1;fill:#000000;fill-opacity:1;fill-rule:nonzero;stroke:none;stroke-width:0.0512514;stroke-linecap:butt;stroke-linejoin:miter;stroke-miterlimit:4;stroke-dasharray:none;stroke-dashoffset:0;stroke-opacity:0.6;marker:none;color-rendering:auto;image-rendering:auto;shape-rendering:auto;text-rendering:auto;enable-background:accumulate;opacity:0.3"
     d="m 12.69525,11.425228 c -0.04888,0 -0.08961,0.19448 -0.113526,0.47242 a 1.4938629,1.5388485 0 0 0 -0.360998,0.15629 C 12.01219,11.873899 11.849292,11.765222 11.814635,11.800924 l -0.384341,0.395914 c -0.03466,0.03569 0.07084,0.203506 0.245618,0.418319 a 1.4938629,1.5388485 0 0 0 -0.150395,0.371871 c -0.27057,0.02461 -0.459936,0.06651 -0.459936,0.116944 v 0.55958 c 0,0.05035 0.188795,0.09231 0.45861,0.116943 a 1.4938629,1.5388485 0 0 0 0.15119,0.37269 c -0.174378,0.214431 -0.279704,0.381841 -0.245087,0.4175 l 0.384341,0.395914 c 0.03459,0.03562 0.196895,-0.07261 0.404764,-0.251921 a 1.4938629,1.5388485 0 0 0 0.362325,0.153832 c 0.02389,0.278718 0.06456,0.473786 0.113526,0.473786 h 0.543222 c 0.04888,0 0.08961,-0.194482 0.113525,-0.472421 a 1.4938629,1.5388485 0 0 0 0.361,-0.156287 c 0.208536,0.180036 0.371433,0.288713 0.406091,0.253011 l 0.384341,-0.395914 c 0.03466,-0.03569 -0.07084,-0.203505 -0.245618,-0.418319 a 1.4938629,1.5388485 0 0 0 0.150394,-0.371871 c 0.270569,-0.0246 0.459937,-0.06651 0.459937,-0.116943 v -0.559581 c 0,-0.05035 -0.188798,-0.09231 -0.458611,-0.116943 a 1.4938629,1.5388485 0 0 0 -0.151191,-0.37269 c 0.174378,-0.214431 0.279705,-0.381841 0.245089,-0.4175 l -0.384341,-0.395914 c -0.03459,-0.03562 -0.196896,0.07262 -0.404766,0.251921 a 1.4938629,1.5388485 0 0 0 -0.362325,-0.153831 c -0.02389,-0.278717 -0.06456,-0.473785 -0.113525,-0.473785 z m 0.27161,1.259058 a 0.6790286,0.69947648 0 0 1 0.679029,0.699476 0.6790286,0.69947648 0 0 1 -0.679029,0.699476 0.6790286,0.69947648 0 0 1 -0.679028,-0.699476 0.6790286,0.69947648 0 0 1 0.679028,-0.699476 z"
     id="path4690-3"
     inkscape:connector-curvature="0" />
  <path
     style="color:#000000;clip-rule:nonzero;display:inline;overflow:visible;visibility:visible;opacity:1;isolation:auto;mix-blend-mode:normal;color-interpolation:sRGB;color-interpolation-filters:linearRGB;solid-color:#000000;solid-opacity:1;fill:url(#linearGradient8);fill-opacity:1;fill-rule:nonzero;stroke:none;stroke-width:0.0512514;stroke-linecap:butt;stroke-linejoin:miter;stroke-miterlimit:4;stroke-dasharray:none;stroke-dashoffset:0;stroke-opacity:0.6;marker:none;color-rendering:auto;image-rendering:auto;shape-rendering:auto;text-rendering:auto;enable-background:accumulate"
     d="m 12.69525,10.896072 c -0.04888,0 -0.08961,0.19448 -0.113526,0.47242 a 1.4938629,1.5388485 0 0 0 -0.360998,0.15629 C 12.01219,11.344743 11.849292,11.236066 11.814635,11.271768 l -0.384341,0.395914 c -0.03466,0.03569 0.07084,0.203506 0.245618,0.418319 a 1.4938629,1.5388485 0 0 0 -0.150395,0.371871 c -0.27057,0.02461 -0.459936,0.06651 -0.459936,0.116944 v 0.55958 c 0,0.05035 0.188795,0.09231 0.45861,0.116943 a 1.4938629,1.5388485 0 0 0 0.15119,0.37269 c -0.174378,0.214431 -0.279704,0.381841 -0.245087,0.4175 l 0.384341,0.395914 c 0.03459,0.03562 0.196895,-0.07261 0.404764,-0.251921 a 1.4938629,1.5388485 0 0 0 0.362325,0.153832 c 0.02389,0.278718 0.06456,0.473786 0.113526,0.473786 h 0.543222 c 0.04888,0 0.08961,-0.194482 0.113525,-0.472421 a 1.4938629,1.5388485 0 0 0 0.361,-0.156287 c 0.208536,0.180036 0.371433,0.288713 0.406091,0.253011 l 0.384341,-0.395914 c 0.03466,-0.03569 -0.07084,-0.203505 -0.245618,-0.418319 a 1.4938629,1.5388485 0 0 0 0.150394,-0.371871 c 0.270569,-0.0246 0.459937,-0.06651 0.459937,-0.116943 v -0.559581 c 0,-0.05035 -0.188798,-0.09231 -0.458611,-0.116943 a 1.4938629,1.5388485 0 0 0 -0.151191,-0.37269 c 0.174378,-0.214431 0.279705,-0.381841 0.245089,-0.4175 l -0.384341,-0.395914 c -0.03459,-0.03562 -0.196896,0.07262 -0.404766,0.251921 a 1.4938629,1.5388485 0 0 0 -0.362325,-0.153831 c -0.02389,-0.278717 -0.06456,-0.473785 -0.113525,-0.473785 z m 0.27161,1.259058 a 0.6790286,0.69947648 0 0 1 0.679029,0.699476 0.6790286,0.69947648 0 0 1 -0.679029,0.699476 0.6790286,0.69947648 0 0 1 -0.679028,-0.699476 0.6790286,0.69947648 0 0 1 0.679028,-0.699476 z"
     id="path4690"
     inkscape:connector-curvature="0" />
</svg>
