<?xml version="1.0" encoding="UTF-8" standalone="no"?>
<svg
   width="64"
   height="64"
   version="1.1"
   viewBox="0 0 16.933 16.933"
   id="svg7"
   sodipodi:docname="internet.svg"
   inkscape:version="1.4 (e7c3feb100, 2024-10-09)"
   xmlns:inkscape="http://www.inkscape.org/namespaces/inkscape"
   xmlns:sodipodi="http://sodipodi.sourceforge.net/DTD/sodipodi-0.dtd"
   xmlns:xlink="http://www.w3.org/1999/xlink"
   xmlns="http://www.w3.org/2000/svg"
   xmlns:svg="http://www.w3.org/2000/svg"
   xmlns:rdf="http://www.w3.org/1999/02/22-rdf-syntax-ns#"
   xmlns:cc="http://creativecommons.org/ns#"
   xmlns:dc="http://purl.org/dc/elements/1.1/">
  <sodipodi:namedview
     id="namedview7"
     pagecolor="#9c4444"
     bordercolor="#000000"
     borderopacity="0.25"
     inkscape:showpageshadow="2"
     inkscape:pageopacity="0.0"
     inkscape:pagecheckerboard="0"
     inkscape:deskcolor="#d1d1d1"
     inkscape:zoom="4.3531261"
     inkscape:cx="36.755195"
     inkscape:cy="25.958357"
     inkscape:window-width="1280"
     inkscape:window-height="669"
     inkscape:window-x="0"
     inkscape:window-y="152"
     inkscape:window-maximized="0"
     inkscape:current-layer="svg7"
     showgrid="false" />
  <defs
     id="defs2">
    <linearGradient
       id="linearGradient1"
       inkscape:collect="always">
      <stop
         style="stop-color:#d8dee9;stop-opacity:1;"
         offset="0"
         id="stop1" />
      <stop
         style="stop-color:#eceff4;stop-opacity:1;"
         offset="1"
         id="stop2" />
    </linearGradient>
    <linearGradient
       inkscape:collect="always"
       id="linearGradient1134">
      <stop
         style="stop-color:#2e3440;stop-opacity:1;"
         offset="0"
         id="stop1130" />
      <stop
         style="stop-color:#4c566a;stop-opacity:1;"
         offset="1"
         id="stop1132" />
    </linearGradient>
    <filter
       style="color-interpolation-filters:sRGB;"
       inkscape:label="Blur"
       id="filter3"
       x="-0.10843471"
       y="-0.10870992"
       width="1.2168694"
       height="1.2174198">
      <feGaussianBlur
         stdDeviation="0.5 0.5"
         result="blur"
         id="feGaussianBlur3" />
    </filter>
    <linearGradient
       inkscape:collect="always"
       xlink:href="#linearGradient1134"
       id="linearGradient4"
       x1="14.388208"
       y1="14.440324"
       x2="2.2869277"
       y2="2.3637428"
       gradientUnits="userSpaceOnUse" />
    <filter
       style="color-interpolation-filters:sRGB"
       inkscape:label="Blur"
       id="filter3-8"
       x="-0.10843471"
       y="-0.10870992"
       width="1.2168694"
       height="1.2174198">
      <feGaussianBlur
         stdDeviation="0.5 0.5"
         result="blur"
         id="feGaussianBlur3-7" />
    </filter>
    <linearGradient
       inkscape:collect="always"
       xlink:href="#linearGradient1134"
       id="linearGradient11"
       gradientUnits="userSpaceOnUse"
       x1="14.388208"
       y1="14.440324"
       x2="2.2869277"
       y2="2.3637428"
       gradientTransform="matrix(0.4782969,0,0,0.4782969,8.9000071,8.8280171)" />
    <linearGradient
       inkscape:collect="always"
       xlink:href="#linearGradient1"
       id="linearGradient2821"
       x1="13.237943"
       y1="13.178155"
       x2="4.1437244"
       y2="3.8859909"
       gradientUnits="userSpaceOnUse"
       gradientTransform="matrix(0.81,0,0,0.81,1.6147048,1.6207105)" />
    <linearGradient
       inkscape:collect="always"
       xlink:href="#linearGradient1"
       id="linearGradient2936"
       x1="14.556472"
       y1="15.215609"
       x2="11.45761"
       y2="10.564674"
       gradientUnits="userSpaceOnUse"
       gradientTransform="matrix(0.729,0,0,0.729,3.5256641,3.487497)" />
  </defs>
  <metadata
     id="metadata2">
    <rdf:RDF>
      <cc:Work
         rdf:about="">
        <dc:format>image/svg+xml</dc:format>
        <dc:type
           rdf:resource="http://purl.org/dc/dcmitype/StillImage" />
      </cc:Work>
    </rdf:RDF>
  </metadata>
  <ellipse
     style="opacity:1;fill:none;stroke:#000000;stroke-width:0.582072;stroke-dasharray:none;stroke-opacity:1;filter:url(#filter3)"
     id="path1-5"
     cx="8.4450111"
     cy="8.423522"
     rx="6.8752708"
     ry="6.8578653" />
  <ellipse
     style="opacity:1;fill:#2b323e;stroke-width:0.58207188;stroke-opacity:1;stroke:#f5a97f;stroke-dasharray:none;fill-opacity:1"
     id="path1"
     cx="8.4450111"
     cy="8.423522"
     rx="6.8752708"
     ry="6.8578653" />
  <ellipse
     style="fill:url(#linearGradient4);stroke:none;stroke-width:0.515624;stroke-dasharray:none;stroke-opacity:1"
     id="path1-2"
     cx="8.4450111"
     cy="8.423522"
     rx="6.0904069"
     ry="6.0749874" />
  <path
     style="color:#000000;clip-rule:nonzero;display:inline;overflow:visible;visibility:visible;isolation:auto;mix-blend-mode:normal;color-interpolation:sRGB;color-interpolation-filters:linearRGB;solid-color:#000000;solid-opacity:1;fill:#000000;fill-opacity:1;fill-rule:nonzero;stroke:none;stroke-width:0.248968;stroke-linecap:butt;stroke-linejoin:miter;stroke-miterlimit:4;stroke-dasharray:none;stroke-dashoffset:0;stroke-opacity:1;marker:none;color-rendering:auto;image-rendering:auto;shape-rendering:auto;text-rendering:auto;enable-background:accumulate;opacity:0.3"
     d="m 7.9610227,5.1839578 c -0.096717,0 -0.1773164,0.3848085 -0.2246271,0.934754 A 2.9558319,3.0448421 0 0 0 7.0221051,6.4279534 C 6.6094848,6.0717219 6.2871688,5.8566867 6.2185932,5.9273278 L 5.4581174,6.7107044 c -0.068575,0.07064 0.1401732,0.402663 0.4859904,0.8277076 A 2.9558319,3.0448421 0 0 0 5.6465301,8.2742131 C 5.1111669,8.3229013 4.7364784,8.4058059 4.7364784,8.5056045 v 1.1072146 c 0,0.09963 0.3735596,0.1826559 0.9074283,0.231391 a 2.9558319,3.0448421 0 0 0 0.2991518,0.7374219 c -0.3450317,0.424284 -0.5534348,0.755531 -0.4849411,0.826087 l 0.7604758,0.783377 c 0.068428,0.07049 0.3895873,-0.143676 0.8008881,-0.498463 a 2.9558319,3.0448421 0 0 0 0.7169143,0.304375 c 0.047268,0.551487 0.1277474,0.937457 0.2246271,0.937457 h 1.0748475 c 0.096718,0 0.1773166,-0.384807 0.2246272,-0.934753 A 2.9558319,3.0448421 0 0 0 9.9747871,11.69047 c 0.4126209,0.356232 0.7349379,0.571267 0.8035129,0.500626 l 0.760475,-0.783377 c 0.06857,-0.07065 -0.140173,-0.402664 -0.48599,-0.827709 a 2.9558319,3.0448421 0 0 0 0.297578,-0.7357999 c 0.535364,-0.048688 0.910052,-0.131593 0.910052,-0.231391 V 8.5056045 c 0,-0.099631 -0.37356,-0.1826564 -0.907427,-0.2313913 A 2.9558319,3.0448421 0 0 0 11.053835,7.5367909 C 11.398866,7.1125066 11.60727,6.7812598 11.538775,6.7107047 L 10.7783,5.9273278 C 10.70988,5.8568388 10.388714,6.0710043 9.9774115,6.4257908 A 2.9558319,3.0448421 0 0 0 9.2604974,6.1214147 C 9.2132323,5.569929 9.1327502,5.1839587 9.0358702,5.1839587 Z M 8.4984466,7.6751924 A 1.3435599,1.3840192 0 0 1 9.8420061,9.0592116 1.3435599,1.3840192 0 0 1 8.4984466,10.443231 1.3435599,1.3840192 0 0 1 7.1548864,9.0592116 1.3435599,1.3840192 0 0 1 8.4984466,7.6751924 Z"
     id="path4690-1"
     inkscape:connector-curvature="0" />
  <path
     style="color:#000000;clip-rule:nonzero;display:inline;overflow:visible;visibility:visible;isolation:auto;mix-blend-mode:normal;color-interpolation:sRGB;color-interpolation-filters:linearRGB;solid-color:#000000;solid-opacity:1;fill:url(#linearGradient2821);fill-opacity:1;fill-rule:nonzero;stroke:none;stroke-width:0.24896802;stroke-linecap:butt;stroke-linejoin:miter;stroke-miterlimit:4;stroke-dasharray:none;stroke-dashoffset:0;stroke-opacity:1;marker:none;color-rendering:auto;image-rendering:auto;shape-rendering:auto;text-rendering:auto;enable-background:accumulate"
     d="m 7.9610227,4.6548016 c -0.096717,0 -0.1773164,0.3848085 -0.2246271,0.934754 A 2.9558319,3.0448421 0 0 0 7.0221051,5.8987972 C 6.6094848,5.5425657 6.2871688,5.3275305 6.2185932,5.3981716 L 5.4581174,6.1815482 c -0.068575,0.07064 0.1401732,0.402663 0.4859904,0.8277076 A 2.9558319,3.0448421 0 0 0 5.6465301,7.7450569 C 5.1111669,7.7937451 4.7364784,7.8766497 4.7364784,7.9764483 v 1.1072146 c 0,0.09963 0.3735596,0.1826559 0.9074283,0.231391 A 2.9558319,3.0448421 0 0 0 5.9430585,10.052476 C 5.5980268,10.47676 5.3896237,10.808007 5.4581174,10.878563 l 0.7604758,0.783377 c 0.068428,0.07049 0.3895873,-0.143676 0.8008881,-0.498463 a 2.9558319,3.0448421 0 0 0 0.7169143,0.304375 c 0.047268,0.551487 0.1277474,0.937457 0.2246271,0.937457 h 1.0748475 c 0.096718,0 0.1773166,-0.384807 0.2246272,-0.934753 a 2.9558319,3.0448421 0 0 0 0.7142897,-0.309242 c 0.4126209,0.356232 0.7349379,0.571267 0.8035129,0.500626 l 0.760475,-0.783377 c 0.06857,-0.07065 -0.140173,-0.402664 -0.48599,-0.827709 a 2.9558319,3.0448421 0 0 0 0.297578,-0.7358001 c 0.535364,-0.048688 0.910052,-0.131593 0.910052,-0.231391 V 7.9764483 c 0,-0.099631 -0.37356,-0.1826564 -0.907427,-0.2313914 A 2.9558319,3.0448421 0 0 0 11.053835,7.0076347 C 11.398866,6.5833504 11.60727,6.2521036 11.538775,6.1815485 L 10.7783,5.3981716 C 10.70988,5.3276826 10.388714,5.5418481 9.9774115,5.8966346 A 2.9558319,3.0448421 0 0 0 9.2604974,5.5922585 C 9.2132323,5.0407728 9.1327502,4.6548025 9.0358702,4.6548025 Z M 8.4984466,7.1460362 A 1.3435599,1.3840192 0 0 1 9.8420061,8.5300554 1.3435599,1.3840192 0 0 1 8.4984466,9.914075 1.3435599,1.3840192 0 0 1 7.1548864,8.5300554 1.3435599,1.3840192 0 0 1 8.4984466,7.1460362 Z"
     id="path4690"
     inkscape:connector-curvature="0" />
  <ellipse
     style="fill:none;stroke:#000000;stroke-width:0.582072;stroke-dasharray:none;stroke-opacity:1;filter:url(#filter3-8)"
     id="path1-5-7"
     cx="8.4450111"
     cy="8.423522"
     rx="6.8752708"
     ry="6.8578653"
     transform="matrix(0.4782969,0,0,0.4782969,8.9000071,8.8280171)" />
  <ellipse
     style="fill:#2b323e;fill-opacity:1;stroke:#f5a97f;stroke-width:0.278402;stroke-dasharray:none;stroke-opacity:1"
     id="path1-59"
     cx="12.939234"
     cy="12.856965"
     rx="3.2884204"
     ry="3.2800953" />
  <ellipse
     style="fill:url(#linearGradient11);stroke:none;stroke-width:0.246622;stroke-dasharray:none;stroke-opacity:1"
     id="path1-2-2"
     cx="12.939234"
     cy="12.856965"
     rx="2.9130225"
     ry="2.9056478" />
  <path
     style="fill:#000000;fill-opacity:1;stroke:none;stroke-width:0.212165;stroke-dasharray:none;stroke-opacity:0.3;stop-color:#000000;opacity:0.3"
     d="m 11.611785,13.398142 v -1.714996 h 0.129261 c 0.0711,0 0.168807,0.01134 0.217139,0.0252 0.04833,0.01386 0.597503,0.34094 1.220376,0.726839 0.794088,0.491975 1.147856,0.726026 1.183888,0.783253 0.07697,0.122247 0.05335,0.32127 -0.0498,0.419752 -0.04316,0.04121 -0.579858,0.384996 -1.192655,0.763974 l -1.114174,0.689052 -0.197019,0.01097 -0.197019,0.01097 z"
     id="path1505-2" />
  <path
     style="fill:url(#linearGradient2936);fill-opacity:1;stroke:none;stroke-width:0.212165;stroke-dasharray:none;stroke-opacity:0.3;stop-color:#000000"
     d="M 11.611785,12.868986 V 11.15399 h 0.129261 c 0.0711,0 0.168807,0.01134 0.217139,0.0252 0.04833,0.01386 0.597503,0.34094 1.220376,0.726839 0.794088,0.491975 1.147856,0.726026 1.183888,0.783253 0.07697,0.122247 0.05335,0.32127 -0.0498,0.419752 -0.04316,0.04121 -0.579858,0.384996 -1.192655,0.763974 L 12.00582,14.56206 11.808801,14.57303 11.611782,14.584 Z"
     id="path1505" />
</svg>
