<?xml version="1.0" encoding="UTF-8" standalone="no"?>
<svg
   width="64"
   height="64"
   version="1.1"
   viewBox="0 0 16.933 16.933"
   id="svg7"
   sodipodi:docname="hwloc.svg"
   inkscape:version="1.4 (e7c3feb100, 2024-10-09)"
   xmlns:inkscape="http://www.inkscape.org/namespaces/inkscape"
   xmlns:sodipodi="http://sodipodi.sourceforge.net/DTD/sodipodi-0.dtd"
   xmlns:xlink="http://www.w3.org/1999/xlink"
   xmlns="http://www.w3.org/2000/svg"
   xmlns:svg="http://www.w3.org/2000/svg"
   xmlns:rdf="http://www.w3.org/1999/02/22-rdf-syntax-ns#"
   xmlns:cc="http://creativecommons.org/ns#"
   xmlns:dc="http://purl.org/dc/elements/1.1/">
  <sodipodi:namedview
     id="namedview7"
     pagecolor="#9c4444"
     bordercolor="#000000"
     borderopacity="0.25"
     inkscape:showpageshadow="2"
     inkscape:pageopacity="0.0"
     inkscape:pagecheckerboard="0"
     inkscape:deskcolor="#d1d1d1"
     inkscape:zoom="4.3531261"
     inkscape:cx="36.066035"
     inkscape:cy="25.958357"
     inkscape:window-width="1280"
     inkscape:window-height="669"
     inkscape:window-x="180"
     inkscape:window-y="166"
     inkscape:window-maximized="0"
     inkscape:current-layer="svg7"
     showgrid="false" />
  <defs
     id="defs2">
    <linearGradient
       id="linearGradient1"
       inkscape:collect="always">
      <stop
         style="stop-color:#d8dee9;stop-opacity:1;"
         offset="0"
         id="stop1" />
      <stop
         style="stop-color:#eceff4;stop-opacity:1;"
         offset="1"
         id="stop2" />
    </linearGradient>
    <linearGradient
       inkscape:collect="always"
       id="linearGradient1134">
      <stop
         style="stop-color:#2e3440;stop-opacity:1;"
         offset="0"
         id="stop1130" />
      <stop
         style="stop-color:#4c566a;stop-opacity:1;"
         offset="1"
         id="stop1132" />
    </linearGradient>
    <filter
       style="color-interpolation-filters:sRGB;"
       inkscape:label="Blur"
       id="filter3"
       x="-0.10843471"
       y="-0.10870992"
       width="1.2168694"
       height="1.2174198">
      <feGaussianBlur
         stdDeviation="0.5 0.5"
         result="blur"
         id="feGaussianBlur3" />
    </filter>
    <linearGradient
       inkscape:collect="always"
       xlink:href="#linearGradient1134"
       id="linearGradient4"
       x1="14.388208"
       y1="14.440324"
       x2="2.2869277"
       y2="2.3637428"
       gradientUnits="userSpaceOnUse" />
    <linearGradient
       inkscape:collect="always"
       xlink:href="#linearGradient1"
       id="linearGradient16"
       x1="12.73981"
       y1="11.914669"
       x2="4.5455604"
       y2="4.3804297"
       gradientUnits="userSpaceOnUse"
       gradientTransform="matrix(0.8732691,0,0,0.8732691,1.0798901,1.5293934)" />
  </defs>
  <metadata
     id="metadata2">
    <rdf:RDF>
      <cc:Work
         rdf:about="">
        <dc:format>image/svg+xml</dc:format>
        <dc:type
           rdf:resource="http://purl.org/dc/dcmitype/StillImage" />
      </cc:Work>
    </rdf:RDF>
  </metadata>
  <ellipse
     style="opacity:1;fill:none;stroke:#000000;stroke-width:0.582072;stroke-dasharray:none;stroke-opacity:1;filter:url(#filter3)"
     id="path1-5"
     cx="8.4450111"
     cy="8.423522"
     rx="6.8752708"
     ry="6.8578653" />
  <ellipse
     style="opacity:1;fill:#2b323e;stroke-width:0.58207188;stroke-opacity:1;stroke:#ed8796;stroke-dasharray:none;fill-opacity:1"
     id="path1"
     cx="8.4450111"
     cy="8.423522"
     rx="6.8752708"
     ry="6.8578653" />
  <ellipse
     style="fill:url(#linearGradient4);stroke:none;stroke-width:0.515624;stroke-dasharray:none;stroke-opacity:1"
     id="path1-2"
     cx="8.4450111"
     cy="8.423522"
     rx="6.0904069"
     ry="6.0749874" />
  <path
     id="path72-7"
     style="opacity:0.3;fill:#000000;fill-opacity:1;stroke:none;stroke-width:0.0954742;stroke-dasharray:none;stroke-dashoffset:2.2;stroke-opacity:0.6"
     d="m 8.5135739,5.7757663 c -2.3075721,0 -2.317128,3.329e-4 -2.390531,0.058065 C 5.9580861,5.9635875 5.9667898,5.7688022 5.9667898,9.17321 c 0,1.878746 0.010758,3.150385 0.026434,3.191623 0.035137,0.09241 0.1342233,0.180778 0.2365036,0.211015 0.047182,0.01395 1.0780951,0.023 2.3466296,0.02029 2.172027,-0.0047 2.265841,-0.0073 2.340496,-0.05757 0.167294,-0.11339 0.158142,0.07956 0.158142,-3.3634561 0,-2.8707248 -0.004,-3.1618085 -0.04532,-3.2317489 -0.104456,-0.1768512 0.03304,-0.1676002 -2.5160932,-0.1675993 z m -3.7401614,0.555147 v 0.346967 0.3474392 H 5.1340693 5.4951979 V 6.6778803 6.3309133 H 5.1340693 Z m 6.7457915,0 v 0.346967 0.3474392 h 0.37482 0.374818 V 6.6778803 6.3309133 H 11.894024 Z M 7.2163427,6.6084871 H 7.3829813 7.5491475 V 7.0390095 7.4690596 H 7.3829813 7.2163427 V 7.0390095 Z m 1.1381457,0 H 8.5211268 8.6877655 V 7.760795 8.9126307 H 8.5395377 c -0.081432,0 -0.1564585,-0.00823 -0.1666388,-0.018408 -0.010175,-0.010175 -0.018408,-0.5283721 -0.018408,-1.1518361 z m 1.1659978,0 H 9.6729625 9.825913 V 7.4690596 8.3301039 H 9.6729625 9.5204862 V 7.4690596 Z M 4.7734125,7.6078459 V 7.955285 8.3022521 H 5.1340693 5.4951979 V 7.955285 7.6078459 H 5.1340693 Z m 6.7457915,0 V 7.955285 8.3022521 h 0.37482 0.374818 V 7.955285 7.6078459 H 11.894024 Z M 7.2163427,7.747105 h 0.1671105 0.1671104 l -0.00757,0.4371312 -0.00757,0.4371309 -0.1397309,0.00801 C 7.3188028,8.633893 7.2470388,8.6289446 7.2361745,8.6180645 7.2253107,8.6072005 7.2163492,8.4065539 7.2163492,8.1724363 Z M 9.5204862,8.6076775 H 9.6729625 9.825913 v 0.43005 0.4305222 H 9.6729625 9.5204862 V 9.0377275 Z M 7.2163427,8.885251 H 7.3829813 7.5491475 V 9.7458235 10.606395 H 7.3829813 7.2163427 V 9.7458235 Z M 4.7734125,8.912631 V 9.245908 9.5791848 H 5.1340693 5.4951979 V 9.2459076 8.9126307 H 5.1340693 Z m 6.7457915,0 v 0.3332774 0.3332767 h 0.37482 0.374818 V 9.2459076 8.9126307 H 11.894024 Z M 8.6877655,9.159992 v 1.153252 1.153724 H 8.5206548 8.3540164 l 0.00708,-1.145226 0.00707,-1.1452276 0.1595575,-0.00801 z M 9.5204862,9.7458235 H 9.6729625 9.825913 v 1.0130475 1.013523 H 9.6729625 9.5204862 V 10.758871 Z M 4.7734125,10.190035 v 0.346967 0.346966 H 5.1340693 5.4951979 V 10.537002 10.190035 H 5.1340693 Z m 6.7457915,0 v 0.346967 0.346966 h 0.37482 0.374818 v -0.346966 -0.346967 h -0.374818 z m -6.7457915,1.276933 v 0.346967 0.346968 H 5.1340693 5.4951979 V 11.813935 11.466968 H 5.1340693 Z m 6.7457915,0 v 0.346967 0.346968 h 0.37482 0.374818 v -0.346968 -0.346967 h -0.374818 z" />
  <path
     id="path72"
     style="fill:url(#linearGradient16);fill-opacity:1;stroke:none;stroke-width:0.0954742;stroke-dasharray:none;stroke-dashoffset:2.2;stroke-opacity:0.6"
     d="m 8.5135739,5.1936945 c -2.3075721,0 -2.317128,3.329e-4 -2.390531,0.058065 -0.1649568,0.1297565 -0.1562531,-0.065029 -0.1562531,3.3393791 0,1.8787464 0.010758,3.1503844 0.026434,3.1916224 0.035137,0.09241 0.1342233,0.180779 0.2365036,0.211015 0.047182,0.01395 1.0780951,0.023 2.3466296,0.02029 2.172027,-0.0047 2.265841,-0.0073 2.340496,-0.05757 0.167294,-0.11339 0.158142,0.07956 0.158142,-3.3634556 0,-2.8707247 -0.004,-3.1618085 -0.04532,-3.231749 -0.104456,-0.176851 0.03304,-0.1676 -2.5160932,-0.1675992 z m -3.7401614,0.555147 v 0.346967 0.3474391 H 5.1340693 5.4951979 V 6.0958085 5.7488415 H 5.1340693 Z m 6.7457915,0 v 0.346967 0.3474391 h 0.37482 0.374818 V 6.0958085 5.7488415 H 11.894024 Z M 7.2163427,6.0264153 h 0.1666386 0.1661662 v 0.4305224 0.43005 H 7.3829813 7.2163427 v -0.43005 z m 1.1381457,0 H 8.5211268 8.6877655 V 7.1787231 8.3305589 H 8.5395377 c -0.081432,0 -0.1564585,-0.00823 -0.1666388,-0.018408 -0.010175,-0.010175 -0.018408,-0.5283721 -0.018408,-1.1518361 z m 1.1659978,0 H 9.6729625 9.825913 V 6.8869877 7.7480321 H 9.6729625 9.5204862 V 6.8869877 Z M 4.7734125,7.0257741 V 7.3732132 7.7201803 H 5.1340693 5.4951979 V 7.3732132 7.0257741 H 5.1340693 Z m 6.7457915,0 v 0.3474391 0.3469671 h 0.37482 0.374818 V 7.3732132 7.0257741 H 11.894024 Z M 7.2163427,7.1650332 h 0.1671105 0.1671104 l -0.00757,0.4371312 -0.00757,0.4371309 -0.1397309,0.00801 C 7.3188028,8.0518212 7.2470388,8.0468727 7.2361745,8.0359926 7.2253107,8.0251287 7.2163492,7.8244821 7.2163492,7.5903645 Z M 9.5204862,8.0256057 H 9.6729625 9.825913 v 0.43005 0.4305222 H 9.6729625 9.5204862 V 8.4556557 Z M 7.2163427,8.3031792 H 7.3829813 7.5491475 V 9.1637517 10.024323 H 7.3829813 7.2163427 V 9.1637517 Z m -2.4429302,0.02738 V 8.6638362 8.997113 H 5.1340693 5.4951979 V 8.6638358 8.3305589 H 5.1340693 Z m 6.7457915,0 v 0.3332774 0.3332766 h 0.37482 0.374818 V 8.6638358 8.3305589 H 11.894024 Z M 8.6877655,8.5779202 V 9.7311724 10.884896 H 8.5206548 8.3540164 l 0.00708,-1.1452259 0.00707,-1.1452275 0.1595575,-0.00801 z M 9.5204862,9.1637517 H 9.6729625 9.825913 V 10.1768 11.190322 H 9.6729625 9.5204862 V 10.1768 Z M 4.7734125,9.6079634 V 9.9549302 10.301896 H 5.1340693 5.4951979 V 9.9549302 9.6079634 H 5.1340693 Z m 6.7457915,0 v 0.3469668 0.3469658 h 0.37482 0.374818 V 9.9549302 9.6079634 H 11.894024 Z M 4.7734125,10.884896 v 0.346968 0.346967 H 5.1340693 5.4951979 V 11.231864 10.884896 H 5.1340693 Z m 6.7457915,0 v 0.346968 0.346967 h 0.37482 0.374818 v -0.346967 -0.346968 h -0.374818 z" />
</svg>
