<?xml version="1.0" encoding="UTF-8" standalone="no"?>
<svg
   width="64"
   height="64"
   version="1.1"
   viewBox="0 0 16.933 16.933"
   id="svg7"
   sodipodi:docname="Office.svg"
   inkscape:version="1.4 (e7c3feb100, 2024-10-09)"
   xmlns:inkscape="http://www.inkscape.org/namespaces/inkscape"
   xmlns:sodipodi="http://sodipodi.sourceforge.net/DTD/sodipodi-0.dtd"
   xmlns:xlink="http://www.w3.org/1999/xlink"
   xmlns="http://www.w3.org/2000/svg"
   xmlns:svg="http://www.w3.org/2000/svg"
   xmlns:rdf="http://www.w3.org/1999/02/22-rdf-syntax-ns#"
   xmlns:cc="http://creativecommons.org/ns#"
   xmlns:dc="http://purl.org/dc/elements/1.1/">
  <sodipodi:namedview
     id="namedview7"
     pagecolor="#9c4444"
     bordercolor="#000000"
     borderopacity="0.25"
     inkscape:showpageshadow="2"
     inkscape:pageopacity="0.0"
     inkscape:pagecheckerboard="0"
     inkscape:deskcolor="#d1d1d1"
     inkscape:zoom="4.3531261"
     inkscape:cx="36.984915"
     inkscape:cy="25.958357"
     inkscape:window-width="1280"
     inkscape:window-height="669"
     inkscape:window-x="180"
     inkscape:window-y="166"
     inkscape:window-maximized="0"
     inkscape:current-layer="svg7"
     showgrid="false" />
  <defs
     id="defs2">
    <linearGradient
       inkscape:collect="always"
       id="linearGradient1134">
      <stop
         style="stop-color:#2e3440;stop-opacity:1;"
         offset="0"
         id="stop1130" />
      <stop
         style="stop-color:#4c566a;stop-opacity:1;"
         offset="1"
         id="stop1132" />
    </linearGradient>
    <filter
       style="color-interpolation-filters:sRGB;"
       inkscape:label="Blur"
       id="filter3"
       x="-0.10843471"
       y="-0.10870992"
       width="1.2168694"
       height="1.2174198">
      <feGaussianBlur
         stdDeviation="0.5 0.5"
         result="blur"
         id="feGaussianBlur3" />
    </filter>
    <linearGradient
       inkscape:collect="always"
       xlink:href="#linearGradient1134"
       id="linearGradient4"
       x1="14.388208"
       y1="14.440324"
       x2="2.2869277"
       y2="2.3637428"
       gradientUnits="userSpaceOnUse" />
    <linearGradient
       inkscape:collect="always"
       xlink:href="#linearGradient1"
       id="linearGradient9"
       x1="12.349432"
       y1="11.53406"
       x2="4.644618"
       y2="4.3621521"
       gradientUnits="userSpaceOnUse"
       gradientTransform="translate(0,0.52915625)" />
    <linearGradient
       id="linearGradient1"
       inkscape:collect="always">
      <stop
         style="stop-color:#d8dee9;stop-opacity:1;"
         offset="0"
         id="stop1" />
      <stop
         style="stop-color:#eceff4;stop-opacity:1;"
         offset="1"
         id="stop2" />
    </linearGradient>
  </defs>
  <metadata
     id="metadata2">
    <rdf:RDF>
      <cc:Work
         rdf:about="">
        <dc:format>image/svg+xml</dc:format>
        <dc:type
           rdf:resource="http://purl.org/dc/dcmitype/StillImage" />
      </cc:Work>
    </rdf:RDF>
  </metadata>
  <ellipse
     style="opacity:1;fill:none;stroke:#000000;stroke-width:0.582072;stroke-dasharray:none;stroke-opacity:1;filter:url(#filter3)"
     id="path1-5"
     cx="8.4450111"
     cy="8.423522"
     rx="6.8752708"
     ry="6.8578653" />
  <ellipse
     style="opacity:1;fill:#2b323e;stroke-width:0.58207188;stroke-opacity:1;stroke:#8bd5ca;stroke-dasharray:none;fill-opacity:1"
     id="path1"
     cx="8.4450111"
     cy="8.423522"
     rx="6.8752708"
     ry="6.8578653" />
  <ellipse
     style="fill:url(#linearGradient4);stroke:none;stroke-width:0.515624;stroke-dasharray:none;stroke-opacity:1"
     id="path1-2"
     cx="8.4450111"
     cy="8.423522"
     rx="6.0904069"
     ry="6.0749874" />
  <path
     style="opacity:0.3;fill:#000000;fill-opacity:1;stroke-width:0.210044"
     d="m 6.9625816,5.3475693 c -0.095801,-0.00267 -0.1857732,0.00591 -0.2457345,0.025844 -0.2941613,0.099518 -0.4787592,0.3136384 -0.5809019,0.6711547 -0.088245,0.3115763 -0.085971,0.8725074 0.00616,1.3607705 0.016165,0.084836 0.032636,0.1619137 0.036511,0.1743528 0.00485,0.017542 -0.026334,0.028641 -0.1653272,0.059895 C 5.3337953,7.7926659 4.8377284,8.0207064 4.5396972,8.3173064 4.4058773,8.4493429 4.3316194,8.5649799 4.2886293,8.7107279 c -0.030385,0.101101 -0.030385,0.3013915 0,0.401216 0.083409,0.2742726 0.3181201,0.5321474 0.6892054,0.7601769 0.2576257,0.1569142 0.33464,0.1741762 0.4180358,0.091895 0.039112,-0.038589 0.047999,-0.056728 0.047999,-0.102971 0,-0.089617 -0.028111,-0.125884 -0.1493276,-0.1944541 C 4.5345943,9.2443636 4.401027,8.8208132 4.9085041,8.4444813 5.166138,8.2537718 5.5259541,8.1028754 6.0108223,7.9858312 c 0.2123704,-0.051028 0.260093,-0.057376 0.260093,-0.029947 0,0.037303 0.1563079,0.5307262 0.2371194,0.7437675 L 6.5917237,8.922823 6.4817787,9.1316356 C 6.0424809,9.968778 5.7604655,10.822509 5.7265246,11.446628 c -0.027798,0.480912 0.060635,0.82487 0.2752721,1.03791 0.2346849,0.231862 0.5657546,0.281453 0.9911429,0.146868 0.160303,-0.05103 0.478638,-0.210471 0.6641807,-0.335168 0.1338242,-0.08835 0.1631363,-0.114573 0.1809163,-0.160814 0.017778,-0.04623 0.017778,-0.06106 0,-0.109538 -0.026508,-0.07239 -0.082304,-0.112406 -0.1579427,-0.112406 -0.049135,0 -0.082838,0.01485 -0.209223,0.09969 -0.2867141,0.191998 -0.5556883,0.311802 -0.7790481,0.349119 -0.3093313,0.05232 -0.5077122,-0.08229 -0.5985419,-0.401217 -0.039116,-0.138417 -0.036837,-0.58174 0.00616,-0.811048 0.065617,-0.364844 0.1803922,-0.743868 0.3445994,-1.142523 0.097291,-0.2366336 0.2828745,-0.6326977 0.3080888,-0.6588481 0.012605,-0.013711 0.029272,0.00867 0.070972,0.1033813 0.2123749,0.4707041 0.5369337,1.0450338 0.853712,1.5096878 0.7564254,1.107929 1.5845145,1.829315 2.222278,1.932648 l -0.00695,0.0013 c 0.2802509,0.04465 0.5165069,-0.0242 0.6994609,-0.204713 0.149011,-0.149591 0.24757,-0.35992 0.303169,-0.652692 0.03395,-0.183071 0.03395,-0.695249 0,-0.945607 C 10.791314,10.346343 10.5162,9.4907403 10.10342,8.6385584 10.03909,8.5052491 10.002617,8.4728208 9.9192213,8.4728208 c -0.093419,-0.00125 -0.1694291,0.069557 -0.1694291,0.1591739 0,0.031253 0.031908,0.1158775 0.08492,0.2268632 0.5087668,1.0699954 0.7814128,2.1052071 0.7536138,2.8540501 -0.01713,0.446171 -0.130031,0.714278 -0.343371,0.817611 -0.112176,0.05454 -0.2537638,0.05339 -0.4406023,-0.0066 C 8.9467337,12.237508 7.7850578,10.804752 7.0364244,9.1103027 L 6.9617611,8.9412835 7.0704753,8.7579056 C 7.1929696,8.5499639 7.5022648,8.0854755 7.644813,7.8947577 L 7.740809,7.7679931 h 0.2527087 c 1.5344374,0 3.0532143,0.3421974 3.8587303,0.8668402 0.164207,0.1071544 0.362252,0.3031314 0.421728,0.4176253 0.043,0.079731 0.04718,0.1008799 0.04718,0.2067616 0,0.1036519 -0.0042,0.1285268 -0.03938,0.1919931 -0.09861,0.1868784 -0.35875,0.3809523 -0.693307,0.5193657 -0.155157,0.064743 -0.196917,0.107341 -0.196917,0.195685 0,0.07463 0.04954,0.13685 0.123893,0.159173 0.04816,0.01371 0.06457,0.01134 0.150559,-0.02215 0.540474,-0.210797 0.910581,-0.5383489 0.98622,-0.8697109 0.02133,-0.089617 0.01969,-0.2579465 -0.0016,-0.3450129 -0.04045,-0.1709521 -0.184069,-0.389984 -0.34957,-0.537009 C 11.563746,7.8987023 9.9993243,7.4777498 8.1432583,7.4340567 L 8.0107505,7.4299567 8.1658217,7.2580654 C 8.2492174,7.162068 8.3980216,7.0028004 8.5001684,6.9007452 9.0280399,6.3713139 9.5182838,6.0249502 9.9462683,5.880475 10.082677,5.833272 10.109906,5.827964 10.251489,5.827964 c 0.131559,0 0.162998,0.00411 0.219889,0.03282 0.07726,0.036039 0.164119,0.1244339 0.208403,0.2079926 0.08695,0.1706378 0.116365,0.4695561 0.07467,0.7884836 -0.0139,0.1097096 -0.02544,0.2365025 -0.02544,0.280195 0,0.073674 0.0025,0.084982 0.04554,0.121021 0.03524,0.03253 0.05944,0.041024 0.105017,0.041024 0.07338,0 0.141272,-0.038358 0.161637,-0.090663 0.06044,-0.1543808 0.09203,-0.7014841 0.05292,-0.9320683 C 11.033347,5.9227554 10.879262,5.683642 10.634243,5.5678713 10.201108,5.36119 9.5723915,5.5630108 8.8386175,6.1434398 8.4549121,6.4473705 7.9497853,6.9630236 7.6013297,7.4041114 l -0.034051,0.039794 -0.2059411,0.011488 c -0.1729057,0.00989 -0.4543851,0.037306 -0.7815097,0.075894 l -0.070562,0.00861 -0.030359,-0.17066 C 6.4197564,7.0292471 6.4145017,6.9782651 6.4145017,6.6529605 c 0,-0.2854342 0.00378,-0.3404639 0.031589,-0.4549576 C 6.5142947,5.9090489 6.6495061,5.7294905 6.8276148,5.692176 7.0726464,5.641166 7.3769136,5.761974 7.8035788,6.0745209 7.9399874,6.1756186 8.1057805,6.0895789 8.0854148,5.9301161 8.0766872,5.8605924 8.0121836,5.8005038 7.7949633,5.6573054 7.6129716,5.5364351 7.40875,5.4366649 7.2419584,5.3881873 7.1598525,5.3639494 7.0583859,5.3502445 6.9625841,5.3475737 Z m 0.22112,2.4528331 c 0.062326,-0.00396 0.1037916,-0.0047 0.1037916,0 0,0.00638 -0.057963,0.094767 -0.1300466,0.1993772 C 7.0853636,8.1031114 6.9831855,8.2549917 6.9301729,8.3411002 6.8784542,8.4246595 6.8277904,8.5005991 6.8177668,8.5117608 6.8038705,8.5264304 6.7835117,8.486507 6.7217698,8.2922815 6.6335199,8.0244025 6.5955891,7.8801205 6.6069022,7.867682 6.6209522,7.853571 6.9967227,7.812273 7.1837016,7.8004024 Z m 1.2828246,0.9074535 c -0.231889,0 -0.4200871,0.1889176 -0.4200871,0.4204975 0,0.2315839 0.1882018,0.4196768 0.4200871,0.4196768 0.2318886,0 0.420087,-0.1880965 0.420087,-0.4196768 0,-0.231569 -0.1882021,-0.4204975 -0.420087,-0.4204975 z"
     id="path3-7-3" />
  <path
     style="fill:url(#linearGradient9);fill-opacity:1;stroke-width:0.210044"
     d="m 6.9625816,4.8184131 c -0.095801,-0.00267 -0.1857732,0.00591 -0.2457345,0.025844 -0.2941613,0.099518 -0.4787592,0.3136384 -0.5809019,0.6711547 -0.088245,0.3115763 -0.085971,0.8725074 0.00616,1.3607705 0.016165,0.084836 0.032636,0.1619137 0.036511,0.1743528 0.00485,0.017542 -0.026334,0.028641 -0.1653272,0.059895 C 5.3337953,7.2635097 4.8377284,7.4915502 4.5396972,7.7881502 4.4058773,7.9201867 4.3316194,8.0358237 4.2886293,8.1815717 c -0.030385,0.101101 -0.030385,0.3013915 0,0.401216 0.083409,0.2742726 0.3181201,0.5321474 0.6892054,0.7601769 0.2576257,0.1569139 0.33464,0.1741762 0.4180358,0.091895 0.039112,-0.038589 0.047999,-0.056728 0.047999,-0.102971 0,-0.089617 -0.028111,-0.125884 -0.1493276,-0.1944541 C 4.5345943,8.7152074 4.401027,8.291657 4.9085041,7.9153251 5.166138,7.7246156 5.5259541,7.5737192 6.0108223,7.456675 6.2231927,7.405647 6.2709153,7.399299 6.2709153,7.426728 c 0,0.037303 0.1563079,0.5307262 0.2371194,0.7437675 l 0.083689,0.2231713 -0.109945,0.2088126 C 6.0424809,9.4396218 5.7604655,10.293353 5.7265246,10.917472 c -0.027798,0.480912 0.060635,0.82487 0.2752721,1.03791 0.2346849,0.231862 0.5657546,0.281453 0.9911429,0.146868 0.160303,-0.05103 0.478638,-0.210471 0.6641807,-0.335168 0.1338242,-0.08835 0.1631363,-0.114573 0.1809163,-0.160814 0.017778,-0.04623 0.017778,-0.06106 0,-0.109538 -0.026508,-0.07239 -0.082304,-0.112406 -0.1579427,-0.112406 -0.049135,0 -0.082838,0.01485 -0.209223,0.09969 -0.2867141,0.191998 -0.5556883,0.311802 -0.7790481,0.349119 -0.3093313,0.05232 -0.5077122,-0.08229 -0.5985419,-0.401217 -0.039116,-0.138417 -0.036837,-0.58174 0.00616,-0.811048 0.065617,-0.364844 0.1803922,-0.7438683 0.3445994,-1.1425236 0.097291,-0.2366332 0.2828745,-0.6326973 0.3080888,-0.6588477 0.012605,-0.013711 0.029272,0.00867 0.070972,0.1033813 0.2123749,0.4707041 0.5369337,1.0450336 0.853712,1.509688 0.7564254,1.107929 1.5845145,1.829315 2.222278,1.932648 l -0.00695,0.0013 c 0.2802509,0.04465 0.5165069,-0.0242 0.6994609,-0.204713 0.149011,-0.149591 0.24757,-0.35992 0.303169,-0.652692 0.03395,-0.183071 0.03395,-0.695249 0,-0.945607 C 10.791314,9.8171869 10.5162,8.9615841 10.10342,8.1094022 10.03909,7.9760929 10.002617,7.9436646 9.9192213,7.9436646 c -0.093419,-0.00125 -0.1694291,0.069557 -0.1694291,0.1591739 0,0.031253 0.031908,0.1158775 0.08492,0.2268632 0.5087668,1.0699954 0.7814128,2.1052073 0.7536138,2.8540503 -0.01713,0.446171 -0.130031,0.714278 -0.343371,0.817611 -0.112176,0.05454 -0.2537638,0.05339 -0.4406023,-0.0066 C 8.9467337,11.708352 7.7850578,10.275596 7.0364244,8.5811465 L 6.9617611,8.4121273 7.0704753,8.2287494 C 7.1929696,8.0208077 7.5022648,7.5563193 7.644813,7.3656015 L 7.740809,7.2388369 h 0.2527087 c 1.5344374,0 3.0532143,0.3421974 3.8587303,0.8668402 0.164207,0.1071544 0.362252,0.3031314 0.421728,0.4176253 0.043,0.079731 0.04718,0.1008799 0.04718,0.2067616 0,0.1036519 -0.0042,0.1285268 -0.03938,0.1919931 -0.09861,0.1868784 -0.35875,0.3809523 -0.693307,0.5193657 -0.155157,0.064743 -0.196917,0.1073413 -0.196917,0.1956849 0,0.074627 0.04954,0.1368504 0.123893,0.1591735 0.04816,0.013713 0.06457,0.011338 0.150559,-0.02215 0.540474,-0.2107978 0.910581,-0.5383493 0.98622,-0.8697113 0.02133,-0.089617 0.01969,-0.2579465 -0.0016,-0.3450129 C 12.610174,8.3884549 12.466555,8.169423 12.301054,8.022398 11.563746,7.3695461 9.9993243,6.9485936 8.1432583,6.9049005 L 8.0107505,6.9008005 8.1658217,6.7289092 C 8.2492174,6.6329118 8.3980216,6.4736442 8.5001684,6.371589 9.0280399,5.8421577 9.5182838,5.495794 9.9462683,5.3513188 c 0.1364087,-0.047203 0.1636377,-0.052511 0.3052207,-0.052511 0.131559,0 0.162998,0.00411 0.219889,0.03282 0.07726,0.036039 0.164119,0.1244339 0.208403,0.2079926 0.08695,0.1706378 0.116365,0.4695561 0.07467,0.7884836 -0.0139,0.1097096 -0.02544,0.2365025 -0.02544,0.280195 0,0.073674 0.0025,0.084982 0.04554,0.121021 0.03524,0.03253 0.05944,0.041024 0.105017,0.041024 0.07338,0 0.141272,-0.038358 0.161637,-0.090663 0.06044,-0.1543808 0.09203,-0.7014841 0.05292,-0.9320683 C 11.033347,5.3935992 10.879262,5.1544858 10.634243,5.0387151 10.201108,4.8320338 9.5723915,5.0338546 8.8386175,5.6142836 8.4549121,5.9182143 7.9497853,6.4338674 7.6013297,6.8749552 l -0.034051,0.039794 -0.2059411,0.011488 c -0.1729057,0.00989 -0.4543851,0.037306 -0.7815097,0.075894 l -0.070562,0.00861 -0.030359,-0.17066 C 6.4197564,6.5000909 6.4145017,6.4491089 6.4145017,6.1238043 c 0,-0.2854342 0.00378,-0.3404639 0.031589,-0.4549576 0.068204,-0.288954 0.2034154,-0.4685124 0.3815241,-0.5058269 0.2450316,-0.05101 0.5492988,0.069798 0.975964,0.3823449 0.1364086,0.1010977 0.3022017,0.015058 0.281836,-0.1444048 C 8.0766872,5.3314362 8.0121836,5.2713476 7.7949633,5.1281492 7.6129716,5.0072789 7.40875,4.9075087 7.2419584,4.8590311 7.1598525,4.8347932 7.0583859,4.8210883 6.9625841,4.8184175 Z m 0.22112,2.4528331 c 0.062326,-0.00396 0.1037916,-0.0047 0.1037916,0 0,0.00638 -0.057963,0.094767 -0.1300466,0.1993772 C 7.0853636,7.5739552 6.9831855,7.7258355 6.9301729,7.811944 6.8784542,7.8955033 6.8277904,7.9714429 6.8177668,7.9826046 6.8038705,7.9972742 6.7835117,7.9573508 6.7217698,7.7631253 6.6335199,7.4952463 6.5955891,7.3509643 6.6069022,7.3385258 c 0.01405,-0.014111 0.3898205,-0.055409 0.5767994,-0.06728 z m 1.2828246,0.9074535 c -0.231889,0 -0.4200871,0.1889175 -0.4200871,0.4204975 0,0.2315839 0.1882018,0.4196768 0.4200871,0.4196768 0.2318886,0 0.420087,-0.1880965 0.420087,-0.4196768 0,-0.231569 -0.1882021,-0.4204975 -0.420087,-0.4204975 z"
     id="path3-7" />
</svg>
