<?xml version="1.0" encoding="UTF-8" standalone="no"?>
<svg
   width="64"
   height="64"
   version="1.1"
   viewBox="0 0 16.933 16.933"
   id="svg7"
   sodipodi:docname="accessories-text-editor.svg"
   inkscape:version="1.4 (e7c3feb100, 2024-10-09)"
   xmlns:inkscape="http://www.inkscape.org/namespaces/inkscape"
   xmlns:sodipodi="http://sodipodi.sourceforge.net/DTD/sodipodi-0.dtd"
   xmlns:xlink="http://www.w3.org/1999/xlink"
   xmlns="http://www.w3.org/2000/svg"
   xmlns:svg="http://www.w3.org/2000/svg"
   xmlns:rdf="http://www.w3.org/1999/02/22-rdf-syntax-ns#"
   xmlns:cc="http://creativecommons.org/ns#"
   xmlns:dc="http://purl.org/dc/elements/1.1/">
  <sodipodi:namedview
     id="namedview7"
     pagecolor="#9c4444"
     bordercolor="#000000"
     borderopacity="0.25"
     inkscape:showpageshadow="2"
     inkscape:pageopacity="0.0"
     inkscape:pagecheckerboard="0"
     inkscape:deskcolor="#d1d1d1"
     inkscape:zoom="4.3531261"
     inkscape:cx="36.295755"
     inkscape:cy="25.958357"
     inkscape:window-width="1280"
     inkscape:window-height="669"
     inkscape:window-x="180"
     inkscape:window-y="166"
     inkscape:window-maximized="0"
     inkscape:current-layer="svg7"
     showgrid="false" />
  <defs
     id="defs2">
    <linearGradient
       id="linearGradient1"
       inkscape:collect="always">
      <stop
         style="stop-color:#d8dee9;stop-opacity:1;"
         offset="0"
         id="stop1" />
      <stop
         style="stop-color:#eceff4;stop-opacity:1;"
         offset="1"
         id="stop2" />
    </linearGradient>
    <linearGradient
       inkscape:collect="always"
       id="linearGradient1134">
      <stop
         style="stop-color:#2e3440;stop-opacity:1;"
         offset="0"
         id="stop1130" />
      <stop
         style="stop-color:#4c566a;stop-opacity:1;"
         offset="1"
         id="stop1132" />
    </linearGradient>
    <filter
       style="color-interpolation-filters:sRGB;"
       inkscape:label="Blur"
       id="filter3"
       x="-0.10843471"
       y="-0.10870992"
       width="1.2168694"
       height="1.2174198">
      <feGaussianBlur
         stdDeviation="0.5 0.5"
         result="blur"
         id="feGaussianBlur3" />
    </filter>
    <linearGradient
       inkscape:collect="always"
       xlink:href="#linearGradient1134"
       id="linearGradient4"
       x1="14.388208"
       y1="14.440324"
       x2="2.2869277"
       y2="2.3637428"
       gradientUnits="userSpaceOnUse" />
    <linearGradient
       inkscape:collect="always"
       xlink:href="#linearGradient1"
       id="linearGradient8"
       x1="12.050993"
       y1="11.938146"
       x2="5.3490024"
       y2="5.2524691"
       gradientUnits="userSpaceOnUse" />
  </defs>
  <metadata
     id="metadata2">
    <rdf:RDF>
      <cc:Work
         rdf:about="">
        <dc:format>image/svg+xml</dc:format>
        <dc:type
           rdf:resource="http://purl.org/dc/dcmitype/StillImage" />
      </cc:Work>
    </rdf:RDF>
  </metadata>
  <ellipse
     style="opacity:1;fill:none;stroke:#000000;stroke-width:0.582072;stroke-dasharray:none;stroke-opacity:1;filter:url(#filter3)"
     id="path1-5"
     cx="8.4450111"
     cy="8.423522"
     rx="6.8752708"
     ry="6.8578653" />
  <ellipse
     style="opacity:1;fill:#2b323e;stroke-width:0.58207188;stroke-opacity:1;stroke:#8bd5ca;stroke-dasharray:none;fill-opacity:1"
     id="path1"
     cx="8.4450111"
     cy="8.423522"
     rx="6.8752708"
     ry="6.8578653" />
  <ellipse
     style="fill:url(#linearGradient4);stroke:none;stroke-width:0.515624;stroke-dasharray:none;stroke-opacity:1"
     id="path1-2"
     cx="8.4450111"
     cy="8.423522"
     rx="6.0904069"
     ry="6.0749874" />
  <path
     id="path17-5"
     style="fill:#000000;fill-opacity:1;stroke:none;stroke-width:0.0964386;stroke-dasharray:none;stroke-opacity:0.6;opacity:0.3"
     d="m 10.726447,5.5442256 c -0.04736,2.472e-4 -0.09225,0.016961 -0.144193,0.044158 -0.05819,0.030466 -1.2428931,1.1963913 -2.6328949,2.5905364 l -2.5274524,2.534662 0.765581,0.766482 c 0.4211116,0.421488 0.7772409,0.761768 0.791265,0.756567 C 6.9927757,12.231531 8.132722,11.089 9.5120636,9.6974643 12.121593,7.0648613 12.158417,7.0234073 12.07376,6.8081768 12.054347,6.7588316 11.787956,6.4624843 11.482115,6.1498403 11.033359,5.6911077 10.868553,5.5434676 10.726447,5.5442256 Z M 5.0614214,11.145713 v 0.718721 0.718713 H 5.7400353 6.4190991 L 6.2762563,12.424085 C 6.197821,12.336485 5.8926122,12.013132 5.597643,11.705366 Z" />
  <path
     id="path17"
     style="opacity:1;fill:url(#linearGradient8);fill-opacity:1;stroke:none;stroke-width:0.0964386;stroke-dasharray:none;stroke-opacity:0.6"
     d="m 10.726447,5.0150694 c -0.04736,2.472e-4 -0.09225,0.016961 -0.144193,0.044158 -0.05819,0.030466 -1.2428931,1.1963913 -2.6328949,2.5905364 l -2.5274524,2.5346622 0.765581,0.766482 c 0.4211116,0.421488 0.7772409,0.761768 0.791265,0.756567 0.014023,-0.0051 1.1539693,-1.147631 2.5333109,-2.5391669 C 12.121593,6.5357051 12.158417,6.4942511 12.07376,6.2790206 12.054347,6.2296754 11.787956,5.9333281 11.482115,5.6206841 11.033359,5.1619515 10.868553,5.0143114 10.726447,5.0150694 Z M 5.0614214,10.616557 v 0.718721 0.718713 H 5.7400353 6.4190991 L 6.2762563,11.894929 C 6.197821,11.807329 5.8926122,11.483976 5.597643,11.17621 Z" />
</svg>
