<?xml version="1.0" encoding="UTF-8" standalone="no"?>
<svg
   width="64"
   height="64"
   version="1.1"
   viewBox="0 0 16.933 16.933"
   id="svg7"
   sodipodi:docname="klassy-settings.svg"
   inkscape:version="1.4 (e7c3feb100, 2024-10-09)"
   xmlns:inkscape="http://www.inkscape.org/namespaces/inkscape"
   xmlns:sodipodi="http://sodipodi.sourceforge.net/DTD/sodipodi-0.dtd"
   xmlns:xlink="http://www.w3.org/1999/xlink"
   xmlns="http://www.w3.org/2000/svg"
   xmlns:svg="http://www.w3.org/2000/svg"
   xmlns:rdf="http://www.w3.org/1999/02/22-rdf-syntax-ns#"
   xmlns:cc="http://creativecommons.org/ns#"
   xmlns:dc="http://purl.org/dc/elements/1.1/">
  <sodipodi:namedview
     id="namedview7"
     pagecolor="#9c4444"
     bordercolor="#000000"
     borderopacity="0.25"
     inkscape:showpageshadow="2"
     inkscape:pageopacity="0.0"
     inkscape:pagecheckerboard="0"
     inkscape:deskcolor="#d1d1d1"
     inkscape:zoom="4.3531261"
     inkscape:cx="36.755195"
     inkscape:cy="25.958357"
     inkscape:window-width="1280"
     inkscape:window-height="669"
     inkscape:window-x="180"
     inkscape:window-y="166"
     inkscape:window-maximized="0"
     inkscape:current-layer="svg7"
     showgrid="false" />
  <defs
     id="defs2">
    <linearGradient
       id="linearGradient1"
       inkscape:collect="always">
      <stop
         style="stop-color:#d8dee9;stop-opacity:1;"
         offset="0"
         id="stop1" />
      <stop
         style="stop-color:#eceff4;stop-opacity:1;"
         offset="1"
         id="stop2" />
    </linearGradient>
    <linearGradient
       inkscape:collect="always"
       id="linearGradient1134">
      <stop
         style="stop-color:#2e3440;stop-opacity:1;"
         offset="0"
         id="stop1130" />
      <stop
         style="stop-color:#4c566a;stop-opacity:1;"
         offset="1"
         id="stop1132" />
    </linearGradient>
    <filter
       style="color-interpolation-filters:sRGB;"
       inkscape:label="Blur"
       id="filter3"
       x="-0.10843471"
       y="-0.10870992"
       width="1.2168694"
       height="1.2174198">
      <feGaussianBlur
         stdDeviation="0.5 0.5"
         result="blur"
         id="feGaussianBlur3" />
    </filter>
    <linearGradient
       inkscape:collect="always"
       xlink:href="#linearGradient1134"
       id="linearGradient4"
       x1="14.388208"
       y1="14.440324"
       x2="2.2869277"
       y2="2.3637428"
       gradientUnits="userSpaceOnUse" />
    <linearGradient
       inkscape:collect="always"
       xlink:href="#linearGradient1"
       id="linearGradient9"
       x1="12.25729"
       y1="11.724264"
       x2="4.853394"
       y2="5.0385871"
       gradientUnits="userSpaceOnUse" />
  </defs>
  <metadata
     id="metadata2">
    <rdf:RDF>
      <cc:Work
         rdf:about="">
        <dc:format>image/svg+xml</dc:format>
        <dc:type
           rdf:resource="http://purl.org/dc/dcmitype/StillImage" />
      </cc:Work>
    </rdf:RDF>
  </metadata>
  <ellipse
     style="opacity:1;fill:none;stroke:#000000;stroke-width:0.582072;stroke-dasharray:none;stroke-opacity:1;filter:url(#filter3)"
     id="path1-5"
     cx="8.4450111"
     cy="8.423522"
     rx="6.8752708"
     ry="6.8578653" />
  <ellipse
     style="opacity:1;fill:#2b323e;stroke-width:0.58207188;stroke-opacity:1;stroke:#9267d7;stroke-dasharray:none;fill-opacity:1"
     id="path1"
     cx="8.4450111"
     cy="8.423522"
     rx="6.8752708"
     ry="6.8578653" />
  <ellipse
     style="fill:url(#linearGradient4);stroke:none;stroke-width:0.515624;stroke-dasharray:none;stroke-opacity:1"
     id="path1-2"
     cx="8.4450111"
     cy="8.423522"
     rx="6.0904069"
     ry="6.0749874" />
  <path
     id="path8-9-7"
     style="fill:#000000;stroke:none;stroke-width:0.0964386;stroke-dasharray:none;stroke-opacity:0.6;opacity:0.3"
     d="M 8.4934279,5.7822571 C 8.3506067,5.7831157 8.2054325,5.8559233 8.103535,6.0029261 l -0.073557,0.105596 -0.00723,1.3334892 -0.00723,1.3334896 0.1268055,-0.038809 c 0.1627007,-0.049748 0.5416076,-0.049649 0.7039734,0 L 8.972213,8.7750491 V 7.4826255 6.1897498 L 8.9031758,6.0516625 C 8.8139188,5.8725472 8.6552908,5.7812952 8.4934267,5.7822571 Z m 2.7518151,0 c -0.119856,0.00456 -0.235556,0.0616 -0.328071,0.1669683 -0.12145,0.1383268 -0.140177,0.2403254 -0.140342,0.7694076 -1.37e-4,0.4380305 0.0035,0.4719727 0.04648,0.4589369 0.293749,-0.089003 0.582295,-0.091061 0.84928,-0.00542 l 0.05957,0.019404 V 6.6847867 c 0,-0.632183 -0.03153,-0.7305646 -0.27121,-0.8528918 -0.07051,-0.035988 -0.143792,-0.052372 -0.215705,-0.049639 z m -5.5406331,4.62e-4 c -0.088104,0.00329 -0.1751928,0.033967 -0.2513559,0.092058 -0.1361442,0.1038432 -0.1969379,0.2458902 -0.2152532,0.5054172 -0.00873,0.1231246 -0.010786,0.2239859 -0.00498,0.2238278 0.00585,-1.582e-4 0.069145,-0.018426 0.1407958,-0.040163 0.164592,-0.049931 0.5524078,-0.051131 0.7148039,-0.00226 l 0.1236466,0.037455 V 6.4203476 C 6.2122703,6.1824747 6.1529862,6.018466 6.0258977,5.9036486 5.9325132,5.8192814 5.8178731,5.778484 5.704597,5.7827097 Z m 0.017151,1.020311 c -0.2435531,0 -0.2808158,0.00703 -0.4431423,0.083935 C 5.0318176,7.0038895 4.8781254,7.1543623 4.75876,7.3959933 4.664142,7.5875217 4.65993,7.6088353 4.65993,7.8639556 c 0,0.2486661 0.00567,0.2796063 0.08709,0.4449478 0.1453251,0.2951529 0.3970699,0.507587 0.6963027,0.5879986 0.079921,0.021473 0.189216,0.039646 0.2432319,0.040616 C 5.9644684,8.942495 6.2950258,8.8013462 6.4884534,8.5945561 6.9956452,8.0523246 6.8389697,7.2222605 6.167153,6.8914783 6.0001301,6.8092416 5.9694603,6.8030301 5.721754,6.8030301 Z m 5.5460481,0.5839378 c -0.268997,7.16e-5 -0.30454,0.00627 -0.451266,0.078069 -0.310415,0.1518776 -0.539165,0.4586576 -0.600184,0.8050577 -0.09947,0.5646999 0.330598,1.1489009 0.899375,1.2215768 0.480056,0.061335 0.937856,-0.1890627 1.142152,-0.6250044 0.0635,-0.1354843 0.07131,-0.184073 0.07131,-0.431861 0,-0.2610846 -0.0055,-0.2905221 -0.08574,-0.4535213 C 12.138688,7.7685055 11.925164,7.5584742 11.7123,7.458719 11.575447,7.394585 11.529487,7.3868981 11.267803,7.3869674 Z M 8.5191537,8.9451874 C 8.3236811,8.9432774 8.1241174,8.9963695 7.9406317,9.1062905 7.7633942,9.2124634 7.6401795,9.3540594 7.5308833,9.5760573 c -0.078154,0.1587423 -0.084518,0.1922026 -0.084387,0.4377277 1.254e-4,0.234908 0.00859,0.284275 0.073557,0.423287 0.1430577,0.306066 0.339513,0.484165 0.6520782,0.590705 0.2198956,0.07496 0.4244055,0.07716 0.6493701,0.0076 0.53479,-0.165094 0.861077,-0.736209 0.7247323,-1.2684212 C 9.4887466,9.5425635 9.3978607,9.395255 9.2100372,9.2213638 9.0151665,9.0409463 8.7704709,8.9476552 8.5191497,8.9451874 Z m -3.2915288,0.1313192 0.00813,1.3975674 c 0.00879,1.549186 0.00288,1.49646 0.1863729,1.671036 0.050545,0.04809 0.1263525,0.09859 0.1687723,0.111915 0.1949609,0.06125 0.4433958,-0.05044 0.5478362,-0.245939 0.060157,-0.112612 0.060183,-0.114485 0.06769,-1.523472 l 0.00766,-1.4106568 -0.1272566,0.039707 c -0.1656205,0.05182 -0.5661264,0.051427 -0.7319507,-4.389e-4 z m 5.5492071,0.5997217 v 1.0681437 c 0,0.736682 0.0094,1.100265 0.03069,1.171484 0.0421,0.140535 0.172795,0.282607 0.300994,0.327621 0.05839,0.0205 0.130452,0.03816 0.160201,0.03881 0.09122,0.0021 0.283607,-0.112769 0.369133,-0.220218 l 0.08123,-0.101986 0.0072,-1.142154 c 0.0069,-1.0639833 0.0045,-1.1406253 -0.03746,-1.1245518 -0.02472,0.00949 -0.126494,0.031208 -0.226085,0.048284 -0.173991,0.029841 -0.437415,0.00987 -0.626356,-0.047387 z M 8.0168954,11.250693 v 0.304603 c 0,0.418453 0.06713,0.567993 0.3050551,0.677801 0.1304078,0.06017 0.1989464,0.06204 0.325814,0.009 0.2503833,-0.104615 0.3232225,-0.257478 0.3240076,-0.679603 l 4.621e-4,-0.309116 -0.1259026,0.03926 c -0.1671883,0.0522 -0.5695282,0.05154 -0.7166089,-0.0014 z" />
  <path
     id="path8-9"
     style="opacity:1;fill:url(#linearGradient9);stroke:none;stroke-width:0.0964386;stroke-dasharray:none;stroke-opacity:0.6"
     d="M 8.4934279,5.2531009 C 8.3506067,5.2539595 8.2054325,5.3267671 8.103535,5.4737699 l -0.073557,0.105596 -0.00723,1.3334892 -0.00723,1.3334896 0.1268055,-0.038809 c 0.1627007,-0.049748 0.5416076,-0.049649 0.7039734,0 L 8.972213,8.2458929 V 6.9534693 5.6605936 L 8.9031758,5.5225063 C 8.8139188,5.343391 8.6552908,5.252139 8.4934267,5.2531009 Z m 2.7518151,0 c -0.119856,0.00456 -0.235556,0.0616 -0.328071,0.1669683 -0.12145,0.1383268 -0.140177,0.2403254 -0.140342,0.7694076 -1.37e-4,0.4380305 0.0035,0.4719727 0.04648,0.4589369 0.293749,-0.089003 0.582295,-0.091061 0.84928,-0.00542 l 0.05957,0.019404 V 6.1556305 c 0,-0.632183 -0.03153,-0.7305646 -0.27121,-0.8528918 -0.07051,-0.035988 -0.143792,-0.052372 -0.215705,-0.049639 z m -5.5406331,4.62e-4 C 5.6165059,5.2568515 5.5294171,5.2875295 5.453254,5.345621 5.3171098,5.4494642 5.2563161,5.5915112 5.2380008,5.8510382 5.2292708,5.9741628 5.2272148,6.0750241 5.2330208,6.074866 5.2388708,6.0747078 5.3021658,6.05644 5.3738166,6.034703 5.5384086,5.984772 5.9262244,5.983572 6.0886205,6.032443 L 6.2122671,6.069898 V 5.8911914 C 6.2122703,5.6533185 6.1529862,5.4893098 6.0258977,5.3744924 5.9325132,5.2901252 5.8178731,5.2493278 5.704597,5.2535535 Z m 0.017151,1.020311 c -0.2435531,0 -0.2808158,0.00703 -0.4431423,0.083935 C 5.0318176,6.4747333 4.8781254,6.6252061 4.75876,6.8668371 4.664142,7.0583655 4.65993,7.0796791 4.65993,7.3347994 c 0,0.2486661 0.00567,0.2796063 0.08709,0.4449478 0.1453251,0.2951529 0.3970699,0.507587 0.6963027,0.5879986 0.079921,0.021473 0.189216,0.039646 0.2432319,0.040616 C 5.9644684,8.4133388 6.2950258,8.27219 6.4884534,8.0653999 6.9956452,7.5231684 6.8389697,6.6931043 6.167153,6.3623221 6.0001301,6.2800854 5.9694603,6.2738739 5.721754,6.2738739 Z m 5.5460481,0.5839378 c -0.268997,7.16e-5 -0.30454,0.00627 -0.451266,0.078069 -0.310415,0.1518776 -0.539165,0.4586576 -0.600184,0.8050577 -0.09947,0.5646999 0.330598,1.1489009 0.899375,1.2215768 0.480056,0.061335 0.937856,-0.1890627 1.142152,-0.6250044 0.0635,-0.1354843 0.07131,-0.184073 0.07131,-0.4318611 0,-0.2610845 -0.0055,-0.290522 -0.08574,-0.4535212 C 12.138688,7.2393493 11.925164,7.029318 11.7123,6.9295628 11.575447,6.8654288 11.529487,6.8577419 11.267803,6.8578112 Z M 8.5191537,8.4160312 c -0.1954726,-0.00191 -0.3950363,0.051182 -0.578522,0.161103 -0.1772375,0.1061729 -0.3004522,0.247769 -0.4097484,0.4697669 -0.078154,0.1587422 -0.084518,0.1922025 -0.084387,0.4377276 1.254e-4,0.2349076 0.00859,0.2842755 0.073557,0.4232866 0.1430577,0.3060667 0.339513,0.4841657 0.6520782,0.5907057 0.2198956,0.07496 0.4244055,0.07716 0.6493701,0.0076 0.53479,-0.165094 0.861077,-0.7362096 0.7247323,-1.2684215 C 9.4887466,9.0134073 9.3978607,8.8660988 9.2100372,8.6922076 9.0151665,8.5117901 8.7704709,8.418499 8.5191497,8.4160312 Z m -3.2915288,0.1313192 0.00813,1.3975675 c 0.00879,1.5491861 0.00288,1.4964601 0.1863729,1.6710361 0.050545,0.04809 0.1263525,0.09859 0.1687723,0.111915 0.1949609,0.06125 0.4433958,-0.05044 0.5478362,-0.245939 0.060157,-0.112612 0.060183,-0.114485 0.06769,-1.5234725 L 6.2140822,8.547801 6.0868256,8.5875081 C 5.9212051,8.6393284 5.5206992,8.638935 5.3548749,8.5870692 Z m 5.5492071,0.5997217 v 1.0681439 c 0,0.736682 0.0094,1.100265 0.03069,1.171484 0.0421,0.140535 0.172795,0.282607 0.300994,0.327621 0.05839,0.0205 0.130452,0.03816 0.160201,0.03881 0.09122,0.0021 0.283607,-0.112769 0.369133,-0.220218 l 0.08123,-0.101986 0.0072,-1.142154 c 0.0069,-1.0639836 0.0045,-1.1406256 -0.03746,-1.1245521 -0.02472,0.00949 -0.126494,0.031208 -0.226085,0.048284 -0.173991,0.029841 -0.437415,0.00987 -0.626356,-0.047387 z M 8.0168954,10.721537 v 0.304603 c 0,0.418453 0.06713,0.567993 0.3050551,0.677801 0.1304078,0.06017 0.1989464,0.06204 0.325814,0.009 0.2503833,-0.104615 0.3232225,-0.257478 0.3240076,-0.679603 l 4.621e-4,-0.309116 -0.1259026,0.03926 c -0.1671883,0.0522 -0.5695282,0.05154 -0.7166089,-0.0014 z" />
</svg>
