<?xml version="1.0" encoding="UTF-8" standalone="no"?>
<svg
   width="64"
   height="64"
   version="1.1"
   viewBox="0 0 16.933 16.933"
   id="svg7"
   sodipodi:docname="ksnapshot.svg"
   inkscape:version="1.4 (e7c3feb100, 2024-10-09)"
   xmlns:inkscape="http://www.inkscape.org/namespaces/inkscape"
   xmlns:sodipodi="http://sodipodi.sourceforge.net/DTD/sodipodi-0.dtd"
   xmlns:xlink="http://www.w3.org/1999/xlink"
   xmlns="http://www.w3.org/2000/svg"
   xmlns:svg="http://www.w3.org/2000/svg"
   xmlns:rdf="http://www.w3.org/1999/02/22-rdf-syntax-ns#"
   xmlns:cc="http://creativecommons.org/ns#"
   xmlns:dc="http://purl.org/dc/elements/1.1/">
  <sodipodi:namedview
     id="namedview7"
     pagecolor="#9c4444"
     bordercolor="#000000"
     borderopacity="0.25"
     inkscape:showpageshadow="2"
     inkscape:pageopacity="0.0"
     inkscape:pagecheckerboard="0"
     inkscape:deskcolor="#d1d1d1"
     inkscape:zoom="4.3531261"
     inkscape:cx="36.066035"
     inkscape:cy="25.958357"
     inkscape:window-width="1280"
     inkscape:window-height="669"
     inkscape:window-x="61"
     inkscape:window-y="142"
     inkscape:window-maximized="0"
     inkscape:current-layer="svg7"
     showgrid="false" />
  <defs
     id="defs2">
    <linearGradient
       id="linearGradient1"
       inkscape:collect="always">
      <stop
         style="stop-color:#d8dee9;stop-opacity:1;"
         offset="0"
         id="stop1" />
      <stop
         style="stop-color:#eceff4;stop-opacity:1;"
         offset="1"
         id="stop2" />
    </linearGradient>
    <linearGradient
       inkscape:collect="always"
       id="linearGradient1134">
      <stop
         style="stop-color:#2e3440;stop-opacity:1;"
         offset="0"
         id="stop1130" />
      <stop
         style="stop-color:#4c566a;stop-opacity:1;"
         offset="1"
         id="stop1132" />
    </linearGradient>
    <filter
       style="color-interpolation-filters:sRGB;"
       inkscape:label="Blur"
       id="filter3"
       x="-0.10843471"
       y="-0.10870992"
       width="1.2168694"
       height="1.2174198">
      <feGaussianBlur
         stdDeviation="0.5 0.5"
         result="blur"
         id="feGaussianBlur3" />
    </filter>
    <linearGradient
       inkscape:collect="always"
       xlink:href="#linearGradient1134"
       id="linearGradient4"
       x1="14.388208"
       y1="14.440324"
       x2="2.2869277"
       y2="2.3637428"
       gradientUnits="userSpaceOnUse" />
    <linearGradient
       inkscape:collect="always"
       xlink:href="#linearGradient1"
       id="linearGradient6"
       x1="11.977061"
       y1="11.889581"
       x2="4.4544497"
       y2="4.0584078"
       gradientUnits="userSpaceOnUse"
       gradientTransform="matrix(0.970299,0,0,0.970299,0.25126436,0.76878725)" />
  </defs>
  <metadata
     id="metadata2">
    <rdf:RDF>
      <cc:Work
         rdf:about="">
        <dc:format>image/svg+xml</dc:format>
        <dc:type
           rdf:resource="http://purl.org/dc/dcmitype/StillImage" />
      </cc:Work>
    </rdf:RDF>
  </metadata>
  <ellipse
     style="opacity:1;fill:none;stroke:#000000;stroke-width:0.582072;stroke-dasharray:none;stroke-opacity:1;filter:url(#filter3)"
     id="path1-5"
     cx="8.4450111"
     cy="8.423522"
     rx="6.8752708"
     ry="6.8578653" />
  <ellipse
     style="opacity:1;fill:#2b323e;stroke-width:0.58207188;stroke-opacity:1;stroke:#f5bde6;stroke-dasharray:none;fill-opacity:1"
     id="path1"
     cx="8.4450111"
     cy="8.423522"
     rx="6.8752708"
     ry="6.8578653" />
  <ellipse
     style="fill:url(#linearGradient4);stroke:none;stroke-width:0.515624;stroke-dasharray:none;stroke-opacity:1"
     id="path1-2"
     cx="8.4450111"
     cy="8.423522"
     rx="6.0904069"
     ry="6.0749874" />
  <path
     style="fill:#000000;stroke:none;stroke-width:0.0964386;stroke-dasharray:none;stroke-opacity:0.6;opacity:0.3"
     d="M 8.0908476,13.006799 C 7.2793156,12.924349 6.5453066,12.613781 5.9284889,12.091884 5.8702538,12.042606 5.7455347,11.922656 5.6513443,11.825325 4.8015747,10.94722 4.4227947,9.7192534 4.6211952,8.4856912 4.6991505,8.0010057 4.8728059,7.5300398 5.1341179,7.0946154 5.4119682,6.6316325 5.8787166,6.1526022 6.3451904,5.851676 6.8788898,5.5073815 7.4817329,5.303417 8.1368373,5.2454941 c 0.2072672,-0.018327 0.6735123,-0.00799 0.8748962,0.019396 0.7455061,0.1013793 1.3985605,0.3615125 1.9559485,0.77912 0.661424,0.4955521 1.121453,1.1701481 1.299767,1.9060061 0.06897,0.2845859 0.08239,0.4019387 0.08265,0.7225383 2.25e-4,0.2576821 -0.0032,0.3099146 -0.02874,0.4360143 -0.165901,0.8202207 -0.710119,1.4529132 -1.467584,1.7061672 -0.276317,0.09239 -0.370105,0.102555 -1.0011683,0.108519 -0.5448417,0.0052 -0.5560984,0.0058 -0.6556026,0.03576 -0.2380381,0.07172 -0.3963278,0.247953 -0.428108,0.476617 -0.022727,0.163536 0.032552,0.328434 0.1741564,0.5195 0.095334,0.128635 0.1026823,0.151296 0.109254,0.336937 0.00439,0.124195 9.81e-4,0.181493 -0.01451,0.242922 -0.050672,0.201019 -0.1680122,0.350515 -0.3393292,0.432314 l -0.097845,0.04674 -0.1993207,0.0021 c -0.1096269,0.0012 -0.2493366,-0.003 -0.3104664,-0.0092 z M 5.896828,9.1144093 C 6.0913338,9.0637473 6.253216,8.92066 6.3281721,8.7331458 6.3689266,8.6312022 6.374693,8.4738704 6.3416678,8.3651392 6.2273828,7.9888814 5.80493,7.8122202 5.471705,8.0013369 5.3203454,8.087238 5.1950616,8.266196 5.1655122,8.4387095 5.0968246,8.8396985 5.5046941,9.2165479 5.8968298,9.1144093 Z m 5.078385,0.00654 c 0.108901,-0.020314 0.219887,-0.082202 0.310879,-0.1733424 0.191898,-0.192204 0.235575,-0.4434581 0.11833,-0.6806872 -0.15289,-0.3093506 -0.510291,-0.4291042 -0.816457,-0.273568 -0.103179,0.052417 -0.21583,0.1723294 -0.27097,0.288441 -0.04056,0.085394 -0.04674,0.1110312 -0.05115,0.2120215 -0.004,0.091616 2.86e-4,0.1323751 0.02122,0.2012509 0.08986,0.2958723 0.389902,0.4815592 0.688163,0.4258942 z M 7.4242491,7.3072877 C 7.6444819,7.2426774 7.8191547,7.0464688 7.8600223,6.8177857 7.915932,6.5049168 7.679099,6.1838968 7.3517655,6.1288676 7.0666181,6.0809308 6.7644105,6.2772082 6.6805867,6.5647843 c -0.041429,0.1421255 -0.015994,0.3373718 0.06012,0.461518 0.039379,0.064221 0.1311553,0.1602352 0.1955141,0.2045326 0.1304056,0.089759 0.3339715,0.1216482 0.4880249,0.076452 z M 9.6179846,7.2683501 C 9.7530803,7.201409 9.8471725,7.1058182 9.9116818,6.9699787 9.9519928,6.8850934 9.9582028,6.8592998 9.9626038,6.7584246 9.9665638,6.6668103 9.9623374,6.6260499 9.9414088,6.5571743 9.8548126,6.272084 9.558335,6.080835 9.2776038,6.1289752 8.9508237,6.1850119 8.7147002,6.5000306 8.7662588,6.8111757 c 0.028463,0.171765 0.1493502,0.3501121 0.2952847,0.4356353 0.1048257,0.061431 0.1862498,0.080693 0.3253666,0.076968 0.1197118,-0.0032 0.1312881,-0.006 0.2310745,-0.055429 z"
     id="path7-7" />
  <path
     style="fill:url(#linearGradient6);stroke:none;stroke-width:0.0964386;stroke-dasharray:none;stroke-opacity:0.6"
     d="M 8.0908476,12.477643 C 7.2793156,12.395193 6.5453066,12.084625 5.9284889,11.562728 5.8702538,11.51345 5.7455347,11.3935 5.6513443,11.296169 4.8015747,10.418064 4.4227947,9.1900972 4.6211952,7.956535 4.6991505,7.4718495 4.8728059,7.0008836 5.1341179,6.5654592 5.4119682,6.1024763 5.8787166,5.623446 6.3451904,5.3225198 6.8788898,4.9782253 7.4817329,4.7742608 8.1368373,4.7163379 c 0.2072672,-0.018327 0.6735123,-0.00799 0.8748962,0.019396 0.7455061,0.1013793 1.3985605,0.3615125 1.9559485,0.77912 0.661424,0.4955521 1.121453,1.1701481 1.299767,1.9060061 0.06897,0.2845858 0.08239,0.4019387 0.08265,0.7225383 2.25e-4,0.2576821 -0.0032,0.3099146 -0.02874,0.4360143 -0.165901,0.8202207 -0.710119,1.4529134 -1.467584,1.7061674 -0.276317,0.09239 -0.370105,0.102555 -1.0011683,0.108519 -0.5448417,0.0052 -0.5560984,0.0058 -0.6556026,0.03576 -0.2380381,0.07172 -0.3963278,0.247953 -0.428108,0.476617 -0.022727,0.163536 0.032552,0.328434 0.1741564,0.5195 0.095334,0.128635 0.1026823,0.151296 0.109254,0.336937 0.00439,0.124195 9.81e-4,0.181493 -0.01451,0.242922 -0.050672,0.201019 -0.1680122,0.350515 -0.3393292,0.432314 l -0.097845,0.04674 -0.1993207,0.0021 c -0.1096269,0.0012 -0.2493366,-0.003 -0.3104664,-0.0092 z M 5.896828,8.5852531 C 6.0913338,8.5345911 6.253216,8.3915038 6.3281721,8.2039896 6.3689266,8.102046 6.374693,7.9447142 6.3416678,7.835983 6.2273828,7.4597252 5.80493,7.283064 5.471705,7.4721807 5.3203454,7.5580818 5.1950616,7.7370398 5.1655122,7.9095533 5.0968246,8.3105423 5.5046941,8.6873917 5.8968298,8.5852531 Z m 5.078385,0.00654 c 0.108901,-0.020314 0.219887,-0.082202 0.310879,-0.1733424 0.191898,-0.192204 0.235575,-0.4434581 0.11833,-0.6806872 -0.15289,-0.3093506 -0.510291,-0.4291042 -0.816457,-0.273568 -0.103179,0.052417 -0.21583,0.1723294 -0.27097,0.288441 -0.04056,0.085394 -0.04674,0.1110312 -0.05115,0.2120215 -0.004,0.091616 2.86e-4,0.1323751 0.02122,0.2012509 0.08986,0.2958723 0.389902,0.4815592 0.688163,0.4258942 z M 7.4242491,6.7781315 C 7.6444819,6.7135212 7.8191547,6.5173126 7.8600223,6.2886295 7.915932,5.9757606 7.679099,5.6547406 7.3517655,5.5997114 7.0666181,5.5517746 6.7644105,5.748052 6.6805867,6.0356281 c -0.041429,0.1421255 -0.015994,0.3373718 0.06012,0.461518 0.039379,0.064221 0.1311553,0.1602352 0.1955141,0.2045326 0.1304056,0.089759 0.3339715,0.1216482 0.4880249,0.076452 z M 9.6179846,6.7391939 C 9.7530803,6.6722528 9.8471725,6.576662 9.9116818,6.4408225 9.9519928,6.3559372 9.9582028,6.3301436 9.9626038,6.2292684 9.9665638,6.1376541 9.9623374,6.0968937 9.9414088,6.0280181 9.8548126,5.7429278 9.558335,5.5516788 9.2776038,5.599819 8.9508237,5.6558557 8.7147002,5.9708744 8.7662588,6.2820195 c 0.028463,0.171765 0.1493502,0.3501121 0.2952847,0.4356353 0.1048257,0.061431 0.1862498,0.080693 0.3253666,0.076968 0.1197118,-0.0032 0.1312881,-0.006 0.2310745,-0.055429 z"
     id="path7" />
</svg>
