<?xml version="1.0" encoding="UTF-8" standalone="no"?>
<svg
   width="64"
   height="64"
   version="1.1"
   viewBox="0 0 16.933 16.933"
   id="svg7"
   sodipodi:docname="Office.svg"
   inkscape:version="1.4 (e7c3feb100, 2024-10-09)"
   xmlns:inkscape="http://www.inkscape.org/namespaces/inkscape"
   xmlns:sodipodi="http://sodipodi.sourceforge.net/DTD/sodipodi-0.dtd"
   xmlns:xlink="http://www.w3.org/1999/xlink"
   xmlns="http://www.w3.org/2000/svg"
   xmlns:svg="http://www.w3.org/2000/svg"
   xmlns:rdf="http://www.w3.org/1999/02/22-rdf-syntax-ns#"
   xmlns:cc="http://creativecommons.org/ns#"
   xmlns:dc="http://purl.org/dc/elements/1.1/">
  <sodipodi:namedview
     id="namedview7"
     pagecolor="#9c4444"
     bordercolor="#000000"
     borderopacity="0.25"
     inkscape:showpageshadow="2"
     inkscape:pageopacity="0.0"
     inkscape:pagecheckerboard="0"
     inkscape:deskcolor="#d1d1d1"
     inkscape:zoom="4.3531261"
     inkscape:cx="36.984915"
     inkscape:cy="25.958357"
     inkscape:window-width="1280"
     inkscape:window-height="669"
     inkscape:window-x="180"
     inkscape:window-y="166"
     inkscape:window-maximized="0"
     inkscape:current-layer="svg7"
     showgrid="false" />
  <defs
     id="defs2">
    <linearGradient
       id="linearGradient1"
       inkscape:collect="always">
      <stop
         style="stop-color:#d8dee9;stop-opacity:1;"
         offset="0"
         id="stop1" />
      <stop
         style="stop-color:#eceff4;stop-opacity:1;"
         offset="1"
         id="stop2" />
    </linearGradient>
    <linearGradient
       inkscape:collect="always"
       id="linearGradient1134">
      <stop
         style="stop-color:#2e3440;stop-opacity:1;"
         offset="0"
         id="stop1130" />
      <stop
         style="stop-color:#4c566a;stop-opacity:1;"
         offset="1"
         id="stop1132" />
    </linearGradient>
    <filter
       style="color-interpolation-filters:sRGB;"
       inkscape:label="Blur"
       id="filter3"
       x="-0.10843471"
       y="-0.10870992"
       width="1.2168694"
       height="1.2174198">
      <feGaussianBlur
         stdDeviation="0.5 0.5"
         result="blur"
         id="feGaussianBlur3" />
    </filter>
    <linearGradient
       inkscape:collect="always"
       xlink:href="#linearGradient1134"
       id="linearGradient4"
       x1="14.388208"
       y1="14.440324"
       x2="2.2869277"
       y2="2.3637428"
       gradientUnits="userSpaceOnUse" />
    <linearGradient
       inkscape:collect="always"
       xlink:href="#linearGradient1"
       id="linearGradient9"
       x1="12.359396"
       y1="11.715723"
       x2="4.4660592"
       y2="5.4554987"
       gradientUnits="userSpaceOnUse" />
  </defs>
  <metadata
     id="metadata2">
    <rdf:RDF>
      <cc:Work
         rdf:about="">
        <dc:format>image/svg+xml</dc:format>
        <dc:type
           rdf:resource="http://purl.org/dc/dcmitype/StillImage" />
      </cc:Work>
    </rdf:RDF>
  </metadata>
  <ellipse
     style="opacity:1;fill:none;stroke:#000000;stroke-width:0.582072;stroke-dasharray:none;stroke-opacity:1;filter:url(#filter3)"
     id="path1-5"
     cx="8.4450111"
     cy="8.423522"
     rx="6.8752708"
     ry="6.8578653" />
  <ellipse
     style="opacity:1;fill:#2b323e;stroke-width:0.58207188;stroke-opacity:1;stroke:#8bd5ca;stroke-dasharray:none;fill-opacity:1"
     id="path1"
     cx="8.4450111"
     cy="8.423522"
     rx="6.8752708"
     ry="6.8578653" />
  <ellipse
     style="fill:url(#linearGradient4);stroke:none;stroke-width:0.515624;stroke-dasharray:none;stroke-opacity:1"
     id="path1-2"
     cx="8.4450111"
     cy="8.423522"
     rx="6.0904069"
     ry="6.0749874" />
  <path
     style="fill:#000000;fill-opacity:1;stroke:none;stroke-width:0.249095;stroke-dasharray:none;stroke-opacity:0.3;opacity:0.3"
     d="M 7.4164201,12.231802 C 6.9516755,12.187841 6.5048839,11.937022 6.1755119,11.535184 5.9300561,11.235724 5.7333842,10.681773 5.6595439,10.081893 L 5.6449675,9.9634884 5.4872546,9.9561984 C 5.4005126,9.9521844 5.1198024,9.945384 4.8634527,9.9410946 l -0.4660893,-0.00781 3e-5,-0.1358102 c 1.63e-5,-0.074696 0.00354,-0.2494946 0.00788,-0.3884419 l 0.00782,-0.2526314 0.1936045,0.00425 c 0.1064826,0.00233 0.3801603,0.00904 0.6081744,0.01493 0.2280127,0.00588 0.4160313,0.00927 0.4178193,0.00751 0.00178,-0.0017 0.00852,-0.073928 0.01496,-0.1604197 0.030755,-0.4130819 0.1549782,-0.8732224 0.326727,-1.2102422 0.261283,-0.5127111 0.627806,-0.8142889 1.0811979,-0.8896194 0.5214256,-0.086634 1.0377831,0.040617 1.4840263,0.365721 0.1578779,0.1150188 0.4264211,0.3770265 0.5854814,0.5712297 0.069188,0.084476 0.2340117,0.3004435 0.3662721,0.4799273 0.422161,0.5728926 0.5596317,0.7290356 0.7034617,0.7990041 0.08729,0.042467 0.11933,0.045041 0.186531,0.015005 0.06763,-0.030234 0.08832,-0.057578 0.103668,-0.1370153 0.02966,-0.1535343 -0.0038,-0.3636549 -0.152691,-0.9567702 C 10.1888,7.4879118 10.167261,7.3618148 10.166902,7.09142 c -2.76e-4,-0.198558 0.0023,-0.2263932 0.03196,-0.3337216 0.117213,-0.425595 0.444928,-0.7084276 0.820838,-0.7084276 0.305121,0 0.709133,0.1696522 1.121217,0.4708172 0.124961,0.091325 0.463091,0.3685053 0.469461,0.3848375 0.0059,0.015044 -0.502735,0.5861592 -0.515282,0.5786129 -0.0059,-0.00362 -0.07748,-0.062229 -0.158726,-0.1302043 -0.274071,-0.2292807 -0.472089,-0.362584 -0.676967,-0.4557259 -0.145431,-0.066114 -0.215924,-0.082408 -0.253328,-0.058549 -0.03642,0.023237 -0.05324,0.084433 -0.05332,0.1941212 -1.39e-4,0.1832155 0.03867,0.3922117 0.164091,0.8837636 0.143696,0.5631611 0.180933,0.7956811 0.169545,1.0586914 -0.0078,0.1830125 -0.03926,0.3087531 -0.114081,0.4576944 -0.04782,0.095205 -0.07244,0.1273618 -0.170826,0.2230654 -0.09357,0.09104 -0.135059,0.1218336 -0.223192,0.1656777 C 10.402089,10.009223 10.034734,9.9817975 9.6833384,9.7403302 9.4923484,9.6090853 9.267299,9.3687624 9.0272977,9.0397625 8.9573453,8.9438712 8.8464619,8.7916436 8.7808894,8.7014803 8.3214128,8.0696919 7.9557419,7.7560426 7.594343,7.6837349 7.4200646,7.6488656 7.1757806,7.67029 7.0521323,7.731288 6.9193514,7.796791 6.7711129,7.9732036 6.6702367,8.1857657 6.5502333,8.4386304 6.4566006,8.812116 6.4362196,9.1192171 l -0.0083,0.1250001 0.058229,0.00761 c 0.5011724,0.065525 0.8136288,0.1480755 1.1133418,0.2941439 0.4266647,0.2079396 0.6862923,0.4672439 0.9128245,0.9116899 0.249568,0.489638 0.2691403,0.924051 0.05705,1.266253 -0.1797614,0.290046 -0.4945848,0.471007 -0.8834644,0.507819 -0.1310098,0.0124 -0.1391239,0.0124 -0.2694847,7e-5 z m 0.3948063,-0.823628 c 0.0476,-0.02403 0.068623,-0.04303 0.081916,-0.07399 0.063178,-0.147202 0.00208,-0.39119 -0.1675709,-0.66918 C 7.5637539,10.399837 7.3719984,10.259839 7.0137273,10.145275 6.8840143,10.103797 6.5710389,10.042382 6.4887678,10.042262 l -0.031559,-4.6e-5 0.022748,0.125877 c 0.05293,0.292949 0.1367647,0.555486 0.2428346,0.760467 0.092092,0.177971 0.249212,0.32202 0.4590836,0.420895 0.1633333,0.07695 0.2606912,0.09848 0.4269983,0.09442 0.1238009,-0.003 0.1450457,-0.0068 0.2023568,-0.0357 z"
     id="path109-9" />
  <path
     style="fill:url(#linearGradient9);fill-opacity:1;stroke:none;stroke-width:0.249095;stroke-dasharray:none;stroke-opacity:0.3"
     d="M 7.4164201,11.702646 C 6.9516755,11.658685 6.5048839,11.407866 6.1755119,11.006028 5.9300561,10.706568 5.7333842,10.152617 5.6595439,9.5527363 L 5.6449675,9.4343322 5.4872546,9.4270422 C 5.4005126,9.4230282 5.1198024,9.4162278 4.8634527,9.4119384 l -0.4660893,-0.00781 3e-5,-0.1358102 c 1.63e-5,-0.074696 0.00354,-0.2494946 0.00788,-0.3884419 l 0.00782,-0.2526314 0.1936045,0.00425 c 0.1064826,0.00233 0.3801603,0.00904 0.6081744,0.01493 0.2280127,0.00588 0.4160313,0.00927 0.4178193,0.00751 0.00178,-0.0017 0.00852,-0.073928 0.01496,-0.1604198 0.030755,-0.4130819 0.1549782,-0.8732224 0.326727,-1.2102421 0.261283,-0.5127111 0.627806,-0.8142889 1.0811979,-0.8896194 0.5214256,-0.086634 1.0377831,0.040617 1.4840263,0.365721 0.1578779,0.1150188 0.4264211,0.3770265 0.5854814,0.5712297 0.069188,0.084476 0.2340117,0.3004435 0.3662721,0.4799273 0.422161,0.5728926 0.5596317,0.7290356 0.7034617,0.7990041 0.08729,0.042467 0.11933,0.045041 0.186531,0.015005 0.06763,-0.030234 0.08832,-0.057578 0.103668,-0.1370153 0.02966,-0.1535343 -0.0038,-0.3636549 -0.152691,-0.9567703 C 10.1888,6.9587556 10.167261,6.8326586 10.166902,6.5622638 c -2.76e-4,-0.198558 0.0023,-0.2263932 0.03196,-0.3337216 0.117213,-0.425595 0.444928,-0.7084276 0.820838,-0.7084276 0.305121,0 0.709133,0.1696522 1.121217,0.4708172 0.124961,0.091325 0.463091,0.3685053 0.469461,0.3848375 0.0059,0.015044 -0.502735,0.5861592 -0.515282,0.5786129 -0.0059,-0.00362 -0.07748,-0.062229 -0.158726,-0.1302043 C 11.662299,6.5948972 11.464281,6.4615939 11.259403,6.368452 11.113972,6.302338 11.043479,6.286044 11.006075,6.309903 c -0.03642,0.023237 -0.05324,0.084433 -0.05332,0.1941212 -1.39e-4,0.1832155 0.03867,0.3922117 0.164091,0.8837636 0.143696,0.5631611 0.180933,0.7956811 0.169545,1.0586914 -0.0078,0.1830124 -0.03926,0.3087531 -0.114081,0.4576944 -0.04782,0.095205 -0.07244,0.1273618 -0.170826,0.2230654 -0.09357,0.09104 -0.135059,0.1218336 -0.223192,0.1656777 C 10.402089,9.4800666 10.034734,9.4526413 9.6833384,9.211174 9.4923484,9.0799291 9.267299,8.8396062 9.0272977,8.5106063 8.9573453,8.414715 8.8464619,8.2624874 8.7808894,8.1723241 8.3214128,7.5405357 7.9557419,7.2268864 7.594343,7.1545787 7.4200646,7.1197094 7.1757806,7.1411338 7.0521323,7.2021318 6.9193514,7.2676348 6.7711129,7.4440474 6.6702367,7.6566095 6.5502333,7.9094742 6.4566006,8.2829598 6.4362196,8.5900609 l -0.0083,0.1250001 0.058229,0.00761 c 0.5011724,0.065525 0.8136288,0.1480755 1.1133418,0.2941439 0.4266647,0.2079396 0.6862923,0.4672442 0.9128245,0.91169 0.249568,0.4896381 0.2691403,0.9240511 0.05705,1.2662531 -0.1797614,0.290046 -0.4945848,0.471007 -0.8834644,0.507819 -0.1310098,0.0124 -0.1391239,0.0124 -0.2694847,7e-5 z m 0.3948063,-0.823628 c 0.0476,-0.02403 0.068623,-0.04303 0.081916,-0.07399 0.063178,-0.147202 0.00208,-0.39119 -0.1675709,-0.66918 C 7.5637539,9.8706812 7.3719984,9.7306826 7.0137273,9.6161188 6.8840143,9.5746411 6.5710389,9.5132258 6.4887678,9.5131062 l -0.031559,-4.65e-5 0.022748,0.1258775 c 0.05293,0.2929485 0.1367647,0.5554858 0.2428346,0.7604668 0.092092,0.177971 0.249212,0.32202 0.4590836,0.420895 0.1633333,0.07695 0.2606912,0.09848 0.4269983,0.09442 0.1238009,-0.003 0.1450457,-0.0068 0.2023568,-0.0357 z"
     id="path109" />
</svg>
