<?xml version="1.0" encoding="UTF-8" standalone="no"?>
<svg
   width="64"
   height="64"
   version="1.1"
   viewBox="0 0 16.933 16.933"
   id="svg7"
   sodipodi:docname="menulibre.svg"
   inkscape:version="1.4 (e7c3feb100, 2024-10-09)"
   xmlns:inkscape="http://www.inkscape.org/namespaces/inkscape"
   xmlns:sodipodi="http://sodipodi.sourceforge.net/DTD/sodipodi-0.dtd"
   xmlns:xlink="http://www.w3.org/1999/xlink"
   xmlns="http://www.w3.org/2000/svg"
   xmlns:svg="http://www.w3.org/2000/svg"
   xmlns:rdf="http://www.w3.org/1999/02/22-rdf-syntax-ns#"
   xmlns:cc="http://creativecommons.org/ns#"
   xmlns:dc="http://purl.org/dc/elements/1.1/">
  <sodipodi:namedview
     id="namedview7"
     pagecolor="#9c4444"
     bordercolor="#000000"
     borderopacity="0.25"
     inkscape:showpageshadow="2"
     inkscape:pageopacity="0.0"
     inkscape:pagecheckerboard="0"
     inkscape:deskcolor="#d1d1d1"
     inkscape:zoom="4.3531261"
     inkscape:cx="36.066035"
     inkscape:cy="25.958357"
     inkscape:window-width="1280"
     inkscape:window-height="669"
     inkscape:window-x="61"
     inkscape:window-y="142"
     inkscape:window-maximized="0"
     inkscape:current-layer="svg7"
     showgrid="false" />
  <defs
     id="defs2">
    <linearGradient
       id="linearGradient1"
       inkscape:collect="always">
      <stop
         style="stop-color:#d8dee9;stop-opacity:1;"
         offset="0"
         id="stop1" />
      <stop
         style="stop-color:#eceff4;stop-opacity:1;"
         offset="1"
         id="stop2" />
    </linearGradient>
    <linearGradient
       inkscape:collect="always"
       id="linearGradient1134">
      <stop
         style="stop-color:#2e3440;stop-opacity:1;"
         offset="0"
         id="stop1130" />
      <stop
         style="stop-color:#4c566a;stop-opacity:1;"
         offset="1"
         id="stop1132" />
    </linearGradient>
    <filter
       style="color-interpolation-filters:sRGB;"
       inkscape:label="Blur"
       id="filter3"
       x="-0.10843471"
       y="-0.10870992"
       width="1.2168694"
       height="1.2174198">
      <feGaussianBlur
         stdDeviation="0.5 0.5"
         result="blur"
         id="feGaussianBlur3" />
    </filter>
    <linearGradient
       inkscape:collect="always"
       xlink:href="#linearGradient1134"
       id="linearGradient4"
       x1="14.388208"
       y1="14.440324"
       x2="2.2869277"
       y2="2.3637428"
       gradientUnits="userSpaceOnUse" />
    <linearGradient
       inkscape:collect="always"
       xlink:href="#linearGradient1"
       id="linearGradient5"
       x1="11.754036"
       y1="12.34209"
       x2="5.3347468"
       y2="4.9878449"
       gradientUnits="userSpaceOnUse" />
  </defs>
  <metadata
     id="metadata2">
    <rdf:RDF>
      <cc:Work
         rdf:about="">
        <dc:format>image/svg+xml</dc:format>
        <dc:type
           rdf:resource="http://purl.org/dc/dcmitype/StillImage" />
      </cc:Work>
    </rdf:RDF>
  </metadata>
  <ellipse
     style="opacity:1;fill:none;stroke:#000000;stroke-width:0.582072;stroke-dasharray:none;stroke-opacity:1;filter:url(#filter3)"
     id="path1-5"
     cx="8.4450111"
     cy="8.423522"
     rx="6.8752708"
     ry="6.8578653" />
  <ellipse
     style="opacity:1;fill:#2b323e;stroke-width:0.58207188;stroke-opacity:1;stroke:#9267d7;stroke-dasharray:none;fill-opacity:1"
     id="path1"
     cx="8.4450111"
     cy="8.423522"
     rx="6.8752708"
     ry="6.8578653" />
  <ellipse
     style="fill:url(#linearGradient4);stroke:none;stroke-width:0.515624;stroke-dasharray:none;stroke-opacity:1"
     id="path1-2"
     cx="8.4450111"
     cy="8.423522"
     rx="6.0904069"
     ry="6.0749874" />
  <path
     style="fill:#000000;stroke:none;stroke-width:0.0964386;stroke-dasharray:none;stroke-dashoffset:2.2;stroke-opacity:0.6;opacity:0.3"
     d="M 6.6242045,12.412718 6.2765713,11.972988 5.9432143,11.97288 C 5.5475217,11.972754 5.4492134,11.933419 5.3971932,11.754439 5.374981,11.678022 5.368342,10.777221 5.374364,8.6580644 l 0.00849,-2.9886126 0.1059882,-0.097125 0.1059882,-0.097125 h 2.9953472 c 3.2889564,0 3.1124794,-0.00932 3.2048594,0.1693188 0.03768,0.07287 0.04305,0.4596126 0.04305,3.1060903 v 3.0228581 l -0.08279,0.09267 -0.08279,0.09266 -1.9875256,0.0076 -1.9875276,0.0076 -0.3466306,0.439244 C 7.1601774,12.654762 6.9969134,12.852389 6.9880153,12.852349 6.9791453,12.85231 6.815402,12.654397 6.6242027,12.412543 Z m 0.2501887,-1.490591 c 0.049486,-0.0265 0.054882,-0.06218 0.054882,-0.363196 0,-0.221807 -0.011428,-0.345247 -0.034051,-0.367871 -0.046956,-0.04696 -0.6794337,-0.04696 -0.7263895,0 -0.022437,0.02244 -0.034051,0.142684 -0.034051,0.352655 0,0.412892 -0.00485,0.407784 0.3869495,0.407784 0.1637749,0 0.3224702,-0.01323 0.3526566,-0.02937 z m 4.0188598,-0.02622 c 0.210296,-0.128229 0.250654,-0.434216 0.08161,-0.618714 l -0.09712,-0.105995 -1.4492554,-0.0078 c -1.2736406,-0.0069 -1.4597297,-0.0024 -1.5356806,0.03684 -0.2657151,0.137406 -0.2628411,0.571003 0.00466,0.702783 0.085462,0.04209 0.2482914,0.04728 1.500407,0.04776 1.34362,5.2e-4 1.408485,-0.0019 1.495384,-0.05485 z M 6.8662139,9.0913542 c 0.058739,-0.04114 0.063062,-0.065812 0.063062,-0.3595421 0,-0.4201663 9.36e-4,-0.4191505 -0.3923143,-0.4191505 -0.4039223,0 -0.4021754,-0.00181 -0.4021754,0.4142202 0,0.4039853 0.00457,0.4086429 0.3972445,0.4086429 0.1994607,0 0.2877876,-0.011676 0.3341832,-0.04417 z m 3.9917011,-0.011976 c 0.144375,-0.06989 0.218786,-0.1913051 0.218786,-0.3569961 0,-0.1583702 -0.07352,-0.2876738 -0.202912,-0.3568561 C 10.781259,8.31605 10.68706,8.312663 9.404493,8.312663 c -1.4782019,0 -1.481595,3.211e-4 -1.6209599,0.1514772 -0.086964,0.094329 -0.1131549,0.3137137 -0.051641,0.4326638 0.055891,0.1080824 0.1366318,0.1794381 0.2371059,0.2095473 0.044594,0.013365 0.6867472,0.025395 1.4270085,0.026735 1.2858455,0.00231 1.3511055,-6.77e-5 1.4619115,-0.053707 z M 6.8952268,7.2571264 c 0.046956,-0.046957 0.046956,-0.6794335 0,-0.7263896 -0.046957,-0.046957 -0.6794337,-0.046957 -0.7263894,0 -0.046956,0.046957 -0.046956,0.679433 0,0.7263896 0.046955,0.046957 0.6794336,0.046957 0.7263894,0 z m 3.9772932,-0.00808 c 0.276677,-0.1430757 0.276677,-0.5671453 0,-0.7102213 -0.124607,-0.064438 -2.8562694,-0.062782 -2.9811697,0.00181 -0.2531679,0.1309179 -0.2634358,0.5448342 -0.017235,0.6949488 0.086881,0.052972 0.1524548,0.055392 1.503886,0.055494 1.1943097,8.97e-5 1.4256577,-0.00642 1.4945227,-0.042026 z"
     id="path79-7" />
  <path
     style="opacity:1;fill:url(#linearGradient5);stroke:none;stroke-width:0.0964386;stroke-dasharray:none;stroke-dashoffset:2.2;stroke-opacity:0.6"
     d="m 6.6242045,11.883562 -0.3476332,-0.43973 -0.333357,-1.08e-4 C 5.5475217,11.443598 5.4492134,11.404263 5.3971932,11.225283 5.374981,11.148866 5.368342,10.248065 5.374364,8.1289082 l 0.00849,-2.9886126 0.1059882,-0.097125 0.1059882,-0.097125 h 2.9953472 c 3.2889564,0 3.1124794,-0.00932 3.2048594,0.1693188 0.03768,0.07287 0.04305,0.4596126 0.04305,3.1060903 v 3.0228583 l -0.08279,0.09267 -0.08279,0.09266 -1.9875256,0.0076 -1.9875276,0.0076 -0.3466306,0.439244 c -0.1906458,0.241519 -0.3539098,0.439146 -0.3628079,0.439106 -0.00887,-3.9e-5 -0.1726133,-0.197952 -0.3638126,-0.439806 z m 0.2501887,-1.490591 c 0.049486,-0.0265 0.054882,-0.06218 0.054882,-0.363196 0,-0.2218068 -0.011428,-0.3452474 -0.034051,-0.3678713 -0.046956,-0.046957 -0.6794337,-0.046957 -0.7263895,0 -0.022437,0.022439 -0.034051,0.1426836 -0.034051,0.3526553 0,0.412892 -0.00485,0.407784 0.3869495,0.407784 0.1637749,0 0.3224702,-0.01323 0.3526566,-0.02937 z m 4.0188598,-0.02622 c 0.210296,-0.128229 0.250654,-0.4342159 0.08161,-0.6187141 L 10.87774,9.6420415 9.4284846,9.6341989 C 8.154844,9.6273058 7.9687549,9.6317932 7.892804,9.6710425 7.6270889,9.8084486 7.6299629,10.242046 7.897466,10.373826 c 0.085462,0.04209 0.2482914,0.04728 1.500407,0.04776 1.34362,5.2e-4 1.408485,-0.0019 1.495384,-0.05485 z M 6.8662139,8.562198 c 0.058739,-0.04114 0.063062,-0.065812 0.063062,-0.3595421 0,-0.4201663 9.36e-4,-0.4191505 -0.3923143,-0.4191505 -0.4039223,0 -0.4021754,-0.00181 -0.4021754,0.4142202 0,0.4039853 0.00457,0.4086429 0.3972445,0.4086429 0.1994607,0 0.2877876,-0.011676 0.3341832,-0.04417 z M 10.857915,8.550222 c 0.144375,-0.06989 0.218786,-0.1913051 0.218786,-0.3569961 0,-0.1583702 -0.07352,-0.2876738 -0.202912,-0.3568561 -0.09253,-0.049476 -0.186729,-0.052863 -1.469296,-0.052863 -1.4782019,0 -1.481595,3.211e-4 -1.6209599,0.1514772 -0.086964,0.094329 -0.1131549,0.3137137 -0.051641,0.4326638 0.055891,0.1080824 0.1366318,0.1794381 0.2371059,0.2095473 0.044594,0.013365 0.6867472,0.025395 1.4270085,0.026735 1.2858455,0.00231 1.3511055,-6.77e-5 1.4619115,-0.053707 z M 6.8952268,6.7279702 c 0.046956,-0.046957 0.046956,-0.6794335 0,-0.7263896 -0.046957,-0.046957 -0.6794337,-0.046957 -0.7263894,0 -0.046956,0.046957 -0.046956,0.679433 0,0.7263896 0.046955,0.046957 0.6794336,0.046957 0.7263894,0 z m 3.9772932,-0.00808 c 0.276677,-0.1430757 0.276677,-0.5671453 0,-0.7102213 -0.124607,-0.064438 -2.8562694,-0.062782 -2.9811697,0.00181 -0.2531679,0.1309179 -0.2634358,0.5448342 -0.017235,0.6949488 0.086881,0.052972 0.1524548,0.055392 1.503886,0.055494 1.1943097,8.97e-5 1.4256577,-0.00642 1.4945227,-0.042026 z"
     id="path79" />
</svg>
