<?xml version="1.0" encoding="UTF-8" standalone="no"?>
<svg
   width="64"
   height="64"
   version="1.1"
   viewBox="0 0 16.933 16.933"
   id="svg7"
   sodipodi:docname="org.onlyoffice.desktopeditors.svg"
   inkscape:version="1.4 (e7c3feb100, 2024-10-09)"
   xmlns:inkscape="http://www.inkscape.org/namespaces/inkscape"
   xmlns:sodipodi="http://sodipodi.sourceforge.net/DTD/sodipodi-0.dtd"
   xmlns:xlink="http://www.w3.org/1999/xlink"
   xmlns="http://www.w3.org/2000/svg"
   xmlns:svg="http://www.w3.org/2000/svg"
   xmlns:rdf="http://www.w3.org/1999/02/22-rdf-syntax-ns#"
   xmlns:cc="http://creativecommons.org/ns#"
   xmlns:dc="http://purl.org/dc/elements/1.1/">
  <sodipodi:namedview
     id="namedview7"
     pagecolor="#9c4444"
     bordercolor="#000000"
     borderopacity="0.25"
     inkscape:showpageshadow="2"
     inkscape:pageopacity="0.0"
     inkscape:pagecheckerboard="0"
     inkscape:deskcolor="#d1d1d1"
     inkscape:zoom="4.3531261"
     inkscape:cx="36.984915"
     inkscape:cy="25.958357"
     inkscape:window-width="1280"
     inkscape:window-height="669"
     inkscape:window-x="180"
     inkscape:window-y="166"
     inkscape:window-maximized="0"
     inkscape:current-layer="svg7"
     showgrid="false" />
  <defs
     id="defs2">
    <linearGradient
       id="linearGradient1"
       inkscape:collect="always">
      <stop
         style="stop-color:#d8dee9;stop-opacity:1;"
         offset="0"
         id="stop1" />
      <stop
         style="stop-color:#eceff4;stop-opacity:1;"
         offset="1"
         id="stop2" />
    </linearGradient>
    <linearGradient
       inkscape:collect="always"
       id="linearGradient1134">
      <stop
         style="stop-color:#2e3440;stop-opacity:1;"
         offset="0"
         id="stop1130" />
      <stop
         style="stop-color:#4c566a;stop-opacity:1;"
         offset="1"
         id="stop1132" />
    </linearGradient>
    <filter
       style="color-interpolation-filters:sRGB;"
       inkscape:label="Blur"
       id="filter3"
       x="-0.10843471"
       y="-0.10870992"
       width="1.2168694"
       height="1.2174198">
      <feGaussianBlur
         stdDeviation="0.5 0.5"
         result="blur"
         id="feGaussianBlur3" />
    </filter>
    <linearGradient
       inkscape:collect="always"
       xlink:href="#linearGradient1134"
       id="linearGradient4"
       x1="14.388208"
       y1="14.440324"
       x2="2.2869277"
       y2="2.3637428"
       gradientUnits="userSpaceOnUse" />
    <linearGradient
       inkscape:collect="always"
       xlink:href="#linearGradient1"
       id="linearGradient27"
       x1="11.814057"
       y1="12.179564"
       x2="5.0233545"
       y2="4.5214257"
       gradientUnits="userSpaceOnUse" />
  </defs>
  <metadata
     id="metadata2">
    <rdf:RDF>
      <cc:Work
         rdf:about="">
        <dc:format>image/svg+xml</dc:format>
        <dc:type
           rdf:resource="http://purl.org/dc/dcmitype/StillImage" />
      </cc:Work>
    </rdf:RDF>
  </metadata>
  <ellipse
     style="opacity:1;fill:none;stroke:#000000;stroke-width:0.582072;stroke-dasharray:none;stroke-opacity:1;filter:url(#filter3)"
     id="path1-5"
     cx="8.4450111"
     cy="8.423522"
     rx="6.8752708"
     ry="6.8578653" />
  <ellipse
     style="opacity:1;fill:#2b323e;stroke-width:0.58207188;stroke-opacity:1;stroke:#8bd5ca;stroke-dasharray:none;fill-opacity:1"
     id="path1"
     cx="8.4450111"
     cy="8.423522"
     rx="6.8752708"
     ry="6.8578653" />
  <ellipse
     style="fill:url(#linearGradient4);stroke:none;stroke-width:0.515624;stroke-dasharray:none;stroke-opacity:1"
     id="path1-2"
     cx="8.4450111"
     cy="8.423522"
     rx="6.0904069"
     ry="6.0749874" />
  <path
     id="path2-2"
     style="fill:#000000;stroke:none;stroke-width:0.0964386;stroke-dasharray:none;stroke-opacity:0.6;opacity:0.3"
     d="M 8.1766011,5.1565456 6.6853088,5.8972571 C 5.7466817,6.3632543 5.165731,6.6795996 5.1184857,6.750834 4.9604722,6.989077 5.0499897,7.0533953 6.6350981,7.8438766 c 0.8148643,0.4063657 1.5545321,0.7492522 1.6440696,0.7617393 0.4920791,0.068625 0.641146,0.017861 2.1641983,-0.7364193 0.801661,-0.3970172 1.496525,-0.7566144 1.544079,-0.7990758 0.04756,-0.042461 0.08626,-0.125878 0.08626,-0.1853919 0,-0.059513 -0.03872,-0.1429314 -0.08626,-0.1853926 -0.04756,-0.042461 -0.749168,-0.4068181 -1.5591,-0.8098037 L 8.9555064,5.1565456 H 8.5662682 Z M 10.697422,8.0910662 9.9073593,8.4867414 C 8.6602621,9.1112081 8.4481025,9.1115057 7.1925628,8.4927475 L 6.3879082,8.0962164 5.7497637,8.4163613 C 5.3870801,8.5981024 5.0875252,8.7806507 5.0562589,8.8390732 4.932258,9.0707709 5.1310641,9.1958211 7.2316151,10.20634 L 8.1950545,10.66982 8.5988837,10.65479 9.0022836,10.63977 10.461391,9.9132241 C 12.042102,9.1259282 12.156633,9.0440667 12.003754,8.810746 11.952824,8.733015 11.692534,8.574964 11.309818,8.388893 Z M 6.3587262,10.158275 5.7107112,10.48786 c -1.0418842,0.52979 -1.0453127,0.523411 0.7960715,1.445375 0.7927256,0.39691 1.4967394,0.740039 1.5646766,0.762597 0.067938,0.02255 0.3014412,0.03414 0.5188417,0.02575 L 8.9855469,12.706562 10.393585,12.0019 c 1.411808,-0.706663 1.630768,-0.83968 1.630768,-0.991335 0,-0.133052 -0.18952,-0.270044 -0.787919,-0.568623 L 10.670816,10.159994 9.80093,10.589141 8.9310451,11.018293 H 8.5160579 8.1014999 L 7.2303274,10.588281 Z" />
  <path
     id="path2"
     style="opacity:1;fill:url(#linearGradient27);stroke:none;stroke-width:0.0964386;stroke-dasharray:none;stroke-opacity:0.6"
     d="M 8.1766011,4.6273894 6.6853088,5.3681009 C 5.7466817,5.8340981 5.165731,6.1504434 5.1184857,6.2216778 c -0.1580135,0.238243 -0.068496,0.3025613 1.5166124,1.0930426 0.8148643,0.4063657 1.5545321,0.7492522 1.6440696,0.7617393 0.4920791,0.068625 0.641146,0.017861 2.1641983,-0.7364193 0.801661,-0.3970172 1.496525,-0.7566144 1.544079,-0.7990758 0.04756,-0.042461 0.08626,-0.125878 0.08626,-0.1853919 0,-0.059513 -0.03872,-0.1429314 -0.08626,-0.1853926 C 11.93988,6.127719 11.238277,5.763362 10.428345,5.3603764 L 8.9555064,4.6273894 H 8.5662682 Z M 10.697422,7.56191 9.9073593,7.9575852 C 8.6602621,8.5820519 8.4481025,8.5823495 7.1925628,7.9635913 L 6.3879082,7.5670602 5.7497637,7.8872051 C 5.3870801,8.0689462 5.0875252,8.2514945 5.0562589,8.309917 4.932258,8.5416147 5.1310641,8.6666649 7.2316151,9.6771833 l 0.9634394,0.4634807 0.4038292,-0.01503 0.4033999,-0.01502 1.4591074,-0.7265461 c 1.580711,-0.7872959 1.695242,-0.8691574 1.542363,-1.1024781 -0.05093,-0.077731 -0.31122,-0.235782 -0.693936,-0.421853 z M 6.3587262,9.6291192 5.7107112,9.9587042 C 4.668827,10.488494 4.6653985,10.482115 6.5067827,11.404079 c 0.7927256,0.39691 1.4967394,0.740039 1.5646766,0.762597 0.067938,0.02255 0.3014412,0.03414 0.5188417,0.02575 l 0.3952459,-0.01502 1.4080381,-0.704662 c 1.411808,-0.706663 1.630768,-0.83968 1.630768,-0.991335 0,-0.133052 -0.18952,-0.270044 -0.787919,-0.5686235 L 10.670816,9.630838 9.80093,10.059985 8.9310451,10.489137 H 8.5160579 8.1014999 L 7.2303274,10.059125 Z" />
</svg>
