<?xml version="1.0" encoding="UTF-8" standalone="no"?>
<svg
   width="64"
   height="64"
   version="1.1"
   viewBox="0 0 16.933 16.933"
   id="svg7"
   sodipodi:docname="internet.svg"
   inkscape:version="1.4 (e7c3feb100, 2024-10-09)"
   xmlns:inkscape="http://www.inkscape.org/namespaces/inkscape"
   xmlns:sodipodi="http://sodipodi.sourceforge.net/DTD/sodipodi-0.dtd"
   xmlns:xlink="http://www.w3.org/1999/xlink"
   xmlns="http://www.w3.org/2000/svg"
   xmlns:svg="http://www.w3.org/2000/svg"
   xmlns:rdf="http://www.w3.org/1999/02/22-rdf-syntax-ns#"
   xmlns:cc="http://creativecommons.org/ns#"
   xmlns:dc="http://purl.org/dc/elements/1.1/">
  <sodipodi:namedview
     id="namedview7"
     pagecolor="#9c4444"
     bordercolor="#000000"
     borderopacity="0.25"
     inkscape:showpageshadow="2"
     inkscape:pageopacity="0.0"
     inkscape:pagecheckerboard="0"
     inkscape:deskcolor="#d1d1d1"
     inkscape:zoom="4.3531261"
     inkscape:cx="36.755195"
     inkscape:cy="25.958357"
     inkscape:window-width="1280"
     inkscape:window-height="669"
     inkscape:window-x="56"
     inkscape:window-y="135"
     inkscape:window-maximized="0"
     inkscape:current-layer="svg7"
     showgrid="false" />
  <defs
     id="defs2">
    <linearGradient
       id="linearGradient1"
       inkscape:collect="always">
      <stop
         style="stop-color:#d8dee9;stop-opacity:1;"
         offset="0"
         id="stop1" />
      <stop
         style="stop-color:#eceff4;stop-opacity:1;"
         offset="1"
         id="stop2" />
    </linearGradient>
    <linearGradient
       inkscape:collect="always"
       id="linearGradient1134">
      <stop
         style="stop-color:#2e3440;stop-opacity:1;"
         offset="0"
         id="stop1130" />
      <stop
         style="stop-color:#4c566a;stop-opacity:1;"
         offset="1"
         id="stop1132" />
    </linearGradient>
    <filter
       style="color-interpolation-filters:sRGB;"
       inkscape:label="Blur"
       id="filter3"
       x="-0.10843471"
       y="-0.10870992"
       width="1.2168694"
       height="1.2174198">
      <feGaussianBlur
         stdDeviation="0.5 0.5"
         result="blur"
         id="feGaussianBlur3" />
    </filter>
    <linearGradient
       inkscape:collect="always"
       xlink:href="#linearGradient1134"
       id="linearGradient4"
       x1="14.388208"
       y1="14.440324"
       x2="2.2869277"
       y2="2.3637428"
       gradientUnits="userSpaceOnUse" />
    <filter
       style="color-interpolation-filters:sRGB"
       inkscape:label="Blur"
       id="filter3-8"
       x="-0.10843471"
       y="-0.10870992"
       width="1.2168694"
       height="1.2174198">
      <feGaussianBlur
         stdDeviation="0.5 0.5"
         result="blur"
         id="feGaussianBlur3-7" />
    </filter>
    <linearGradient
       inkscape:collect="always"
       xlink:href="#linearGradient1"
       id="linearGradient5"
       x1="11.999635"
       y1="12.010487"
       x2="4.8097267"
       y2="5.1424727"
       gradientUnits="userSpaceOnUse" />
  </defs>
  <metadata
     id="metadata2">
    <rdf:RDF>
      <cc:Work
         rdf:about="">
        <dc:format>image/svg+xml</dc:format>
        <dc:type
           rdf:resource="http://purl.org/dc/dcmitype/StillImage" />
      </cc:Work>
    </rdf:RDF>
  </metadata>
  <ellipse
     style="opacity:1;fill:none;stroke:#000000;stroke-width:0.582072;stroke-dasharray:none;stroke-opacity:1;filter:url(#filter3)"
     id="path1-5"
     cx="8.4450111"
     cy="8.423522"
     rx="6.8752708"
     ry="6.8578653" />
  <ellipse
     style="opacity:1;fill:#2b323e;stroke-width:0.58207188;stroke-opacity:1;stroke:#eed49f;stroke-dasharray:none;fill-opacity:1"
     id="path1"
     cx="8.4450111"
     cy="8.423522"
     rx="6.8752708"
     ry="6.8578653" />
  <ellipse
     style="fill:url(#linearGradient4);stroke:none;stroke-width:0.515624;stroke-dasharray:none;stroke-opacity:1"
     id="path1-2"
     cx="8.4450111"
     cy="8.423522"
     rx="6.0904069"
     ry="6.0749874" />
  <path
     fill="#f5f7fa"
     d="M 9.9139311,12.028591 9.6101167,11.435416 c -0.3395581,0.217222 -0.9203818,0.375957 -1.4833337,0.375957 -1.6620477,0 -2.5645579,-0.802041 -2.5645579,-2.3476394 0,-1.6792709 1.3671687,-3.1162587 3.1989962,-3.1162587 1.6084327,0 2.5556217,0.7519132 2.5556217,2.0970021 0,0.8855849 -0.428917,1.746106 -1.170581,1.746106 -0.2680744,0 -0.3753019,-0.125319 -0.3753019,-0.3676015 0,-0.1253174 0.026803,-0.3592479 0.062548,-0.5514019 L 10.110519,7.5923075 C 9.8245732,7.4252167 9.3509808,7.3249616 8.9220643,7.3249616 c -1.0901603,0 -2.1892564,0.6934302 -2.1892564,2.1972549 0,0.7268505 0.3842369,1.3116705 1.3135536,1.3116705 0.4199802,0 0.7952813,-0.150382 1.0454829,-0.442793 h 0.035746 c 0.1250994,0.258993 0.4110435,0.442793 0.9114446,0.442793 1.251006,0 2.064157,-1.0610332 2.064157,-2.4813116 0,-1.6207892 -1.27781,-2.6734673 -3.2258022,-2.6734673 -2.3590365,0 -4.1104416,1.7126906 -4.1104416,3.8681722 0,1.7878807 1.1259034,2.9241047 3.2258034,2.9241047 0.7506016,0 1.4654607,-0.175448 1.9211829,-0.442794 z M 8.2072049,10.198939 c -0.4646583,0 -0.6880524,-0.2506379 -0.6880524,-0.810394 0,-0.8354602 0.5629523,-1.4202805 1.3046193,-1.4202805 0.1697782,0 0.330622,0.033419 0.4378506,0.066838 L 9.0561009,9.3467711 C 9.038232,9.4386705 9.011427,9.6725999 9.011427,9.7728538 8.8773914,9.9984286 8.5735755,10.198939 8.2072094,10.198939 Z"
     id="path42-7"
     style="fill:#000000;fill-opacity:1;stroke:none;stroke-width:0.228738;stroke-dasharray:none;stroke-opacity:0.3;opacity:0.3" />
  <path
     fill="#f5f7fa"
     d="M 9.9139311,11.499435 9.6101167,10.90626 c -0.3395581,0.217222 -0.9203818,0.375957 -1.4833337,0.375957 -1.6620477,0 -2.5645579,-0.802041 -2.5645579,-2.3476396 0,-1.6792709 1.3671687,-3.1162587 3.1989962,-3.1162587 1.6084327,0 2.5556217,0.7519132 2.5556217,2.0970021 0,0.8855849 -0.428917,1.7461064 -1.170581,1.7461064 -0.2680744,0 -0.3753019,-0.1253196 -0.3753019,-0.3676019 0,-0.1253174 0.026803,-0.3592479 0.062548,-0.5514019 L 10.110519,7.0631513 C 9.8245732,6.8960605 9.3509808,6.7958054 8.9220643,6.7958054 c -1.0901603,0 -2.1892564,0.6934302 -2.1892564,2.1972549 0,0.7268503 0.3842369,1.3116707 1.3135536,1.3116707 0.4199802,0 0.7952813,-0.150382 1.0454829,-0.4427936 h 0.035746 c 0.1250994,0.2589936 0.4110435,0.4427936 0.9114446,0.4427936 1.251006,0 2.064157,-1.0610334 2.064157,-2.4813118 0,-1.6207892 -1.27781,-2.6734673 -3.2258022,-2.6734673 -2.3590365,0 -4.1104416,1.7126906 -4.1104416,3.8681722 0,1.7878809 1.1259034,2.9241049 3.2258034,2.9241049 0.7506016,0 1.4654607,-0.175448 1.9211829,-0.442794 z M 8.2072049,9.6697823 c -0.4646583,0 -0.6880524,-0.2506374 -0.6880524,-0.8103935 0,-0.8354602 0.5629523,-1.4202805 1.3046193,-1.4202805 0.1697782,0 0.330622,0.033419 0.4378506,0.066838 L 9.0561009,8.8176149 C 9.038232,8.9095143 9.011427,9.1434437 9.011427,9.2436976 8.8773914,9.4692724 8.5735755,9.6697823 8.2072094,9.6697823 Z"
     id="path42"
     style="fill:url(#linearGradient5);fill-opacity:1;stroke:none;stroke-width:0.228738;stroke-dasharray:none;stroke-opacity:0.3" />
</svg>
