<?xml version="1.0" encoding="UTF-8" standalone="no"?>
<svg
   width="64"
   height="64"
   version="1.1"
   viewBox="0 0 16.933 16.933"
   id="svg7"
   sodipodi:docname="org.kde.haruna.svg"
   inkscape:version="1.4 (e7c3feb100, 2024-10-09)"
   xmlns:inkscape="http://www.inkscape.org/namespaces/inkscape"
   xmlns:sodipodi="http://sodipodi.sourceforge.net/DTD/sodipodi-0.dtd"
   xmlns:xlink="http://www.w3.org/1999/xlink"
   xmlns="http://www.w3.org/2000/svg"
   xmlns:svg="http://www.w3.org/2000/svg"
   xmlns:rdf="http://www.w3.org/1999/02/22-rdf-syntax-ns#"
   xmlns:cc="http://creativecommons.org/ns#"
   xmlns:dc="http://purl.org/dc/elements/1.1/">
  <sodipodi:namedview
     id="namedview7"
     pagecolor="#9c4444"
     bordercolor="#000000"
     borderopacity="0.25"
     inkscape:showpageshadow="2"
     inkscape:pageopacity="0.0"
     inkscape:pagecheckerboard="0"
     inkscape:deskcolor="#d1d1d1"
     inkscape:zoom="4.3531261"
     inkscape:cx="36.525475"
     inkscape:cy="25.958357"
     inkscape:window-width="1280"
     inkscape:window-height="669"
     inkscape:window-x="180"
     inkscape:window-y="166"
     inkscape:window-maximized="0"
     inkscape:current-layer="svg7"
     showgrid="false" />
  <defs
     id="defs2">
    <linearGradient
       id="linearGradient1"
       inkscape:collect="always">
      <stop
         style="stop-color:#d8dee9;stop-opacity:1;"
         offset="0"
         id="stop1" />
      <stop
         style="stop-color:#eceff4;stop-opacity:1;"
         offset="1"
         id="stop2" />
    </linearGradient>
    <linearGradient
       inkscape:collect="always"
       id="linearGradient1134">
      <stop
         style="stop-color:#2e3440;stop-opacity:1;"
         offset="0"
         id="stop1130" />
      <stop
         style="stop-color:#4c566a;stop-opacity:1;"
         offset="1"
         id="stop1132" />
    </linearGradient>
    <filter
       style="color-interpolation-filters:sRGB;"
       inkscape:label="Blur"
       id="filter3"
       x="-0.10843471"
       y="-0.10870992"
       width="1.2168694"
       height="1.2174198">
      <feGaussianBlur
         stdDeviation="0.5 0.5"
         result="blur"
         id="feGaussianBlur3" />
    </filter>
    <linearGradient
       inkscape:collect="always"
       xlink:href="#linearGradient1134"
       id="linearGradient4"
       x1="14.388208"
       y1="14.440324"
       x2="2.2869277"
       y2="2.3637428"
       gradientUnits="userSpaceOnUse" />
    <filter
       style="color-interpolation-filters:sRGB"
       inkscape:label="Blur"
       id="filter3-8"
       x="-0.10843471"
       y="-0.10870992"
       width="1.2168694"
       height="1.2174198">
      <feGaussianBlur
         stdDeviation="0.5 0.5"
         result="blur"
         id="feGaussianBlur3-7" />
    </filter>
    <linearGradient
       inkscape:collect="always"
       xlink:href="#linearGradient1"
       id="linearGradient8"
       x1="11.883653"
       y1="12.224365"
       x2="5.2238202"
       y2="5.0524578"
       gradientUnits="userSpaceOnUse" />
  </defs>
  <metadata
     id="metadata2">
    <rdf:RDF>
      <cc:Work
         rdf:about="">
        <dc:format>image/svg+xml</dc:format>
        <dc:type
           rdf:resource="http://purl.org/dc/dcmitype/StillImage" />
      </cc:Work>
    </rdf:RDF>
  </metadata>
  <ellipse
     style="opacity:1;fill:none;stroke:#000000;stroke-width:0.582072;stroke-dasharray:none;stroke-opacity:1;filter:url(#filter3)"
     id="path1-5"
     cx="8.4450111"
     cy="8.423522"
     rx="6.8752708"
     ry="6.8578653" />
  <ellipse
     style="opacity:1;fill:#2b323e;stroke-width:0.58207188;stroke-opacity:1;stroke:#f5a97f;stroke-dasharray:none;fill-opacity:1"
     id="path1"
     cx="8.4450111"
     cy="8.423522"
     rx="6.8752708"
     ry="6.8578653" />
  <ellipse
     style="fill:url(#linearGradient4);stroke:none;stroke-width:0.515624;stroke-dasharray:none;stroke-opacity:1"
     id="path1-2"
     cx="8.4450111"
     cy="8.423522"
     rx="6.0904069"
     ry="6.0749874" />
  <path
     style="fill:#000000;stroke:none;stroke-width:0.0867947;stroke-dasharray:none;stroke-opacity:0.6;opacity:0.3"
     d="M 5.2587548,9.1675654 V 5.6443966 H 5.9922852 6.7258159 V 7.1170144 8.5896322 H 8.4929571 10.260098 V 7.1170144 5.6443966 h 0.733532 0.73353 V 9.1675654 12.690734 H 10.99363 10.260098 V 11.368156 10.045579 H 8.4926527 6.7252066 l 0.00309,1.322581 0.00309,1.322579 -0.7363095,-1e-6 -0.736309,-4e-6 z m 1.178094,2.2061496 V 10.923594 H 5.9922852 5.5477214 v 0.450121 0.450121 h 0.4445638 0.4445636 z m 5.0013452,0 V 10.923594 H 10.99363 10.549066 v 0.450121 0.450121 h 0.444564 0.444564 z M 6.4368488,9.3120488 V 8.8674848 H 5.9922852 5.5477214 v 0.444564 0.4445641 h 0.4445638 0.4445636 z m 5.0013452,0 V 8.8674848 H 10.99363 10.549066 v 0.444564 0.4445641 h 0.444564 0.444564 z M 6.4368488,6.9614171 V 6.511296 H 5.9922852 5.5477214 v 0.4501211 0.4501211 h 0.4445638 0.4445636 z m 5.0013452,0 V 6.511296 H 10.99363 10.549066 v 0.4501211 0.4501211 h 0.444564 0.444564 z"
     id="path7-5" />
  <path
     style="opacity:1;fill:url(#linearGradient8);stroke:none;stroke-width:0.0867947;stroke-dasharray:none;stroke-opacity:0.6"
     d="M 5.2587548,8.6384092 V 5.1152404 H 5.9922852 6.7258159 V 6.5878582 8.060476 H 8.4929571 10.260098 V 6.5878582 5.1152404 h 0.733532 0.73353 V 8.6384092 12.161578 H 10.99363 10.260098 V 10.839 9.516423 H 8.4926527 6.7252066 l 0.00309,1.322581 0.00309,1.322579 -0.7363095,-1e-6 -0.736309,-4e-6 z m 1.178094,2.2061498 V 10.394438 H 5.9922852 5.5477214 v 0.450121 0.450121 h 0.4445638 0.4445636 z m 5.0013452,0 V 10.394438 H 10.99363 10.549066 v 0.450121 0.450121 h 0.444564 0.444564 z M 6.4368488,8.7828926 V 8.3383286 H 5.9922852 5.5477214 v 0.444564 0.4445641 h 0.4445638 0.4445636 z m 5.0013452,0 V 8.3383286 H 10.99363 10.549066 v 0.444564 0.4445641 h 0.444564 0.444564 z M 6.4368488,6.4322609 V 5.9821398 H 5.9922852 5.5477214 V 6.4322609 6.882382 h 0.4445638 0.4445636 z m 5.0013452,0 V 5.9821398 H 10.99363 10.549066 V 6.4322609 6.882382 h 0.444564 0.444564 z"
     id="path7" />
</svg>
