<?xml version="1.0" encoding="UTF-8" standalone="no"?>
<svg
   width="64"
   height="64"
   version="1.1"
   viewBox="0 0 16.933 16.933"
   id="svg7"
   sodipodi:docname="org.kde.kcolorchooser.svg"
   inkscape:version="1.4 (e7c3feb100, 2024-10-09)"
   xmlns:inkscape="http://www.inkscape.org/namespaces/inkscape"
   xmlns:sodipodi="http://sodipodi.sourceforge.net/DTD/sodipodi-0.dtd"
   xmlns:xlink="http://www.w3.org/1999/xlink"
   xmlns="http://www.w3.org/2000/svg"
   xmlns:svg="http://www.w3.org/2000/svg"
   xmlns:rdf="http://www.w3.org/1999/02/22-rdf-syntax-ns#"
   xmlns:cc="http://creativecommons.org/ns#"
   xmlns:dc="http://purl.org/dc/elements/1.1/">
  <sodipodi:namedview
     id="namedview7"
     pagecolor="#9c4444"
     bordercolor="#000000"
     borderopacity="0.25"
     inkscape:showpageshadow="2"
     inkscape:pageopacity="0.0"
     inkscape:pagecheckerboard="0"
     inkscape:deskcolor="#d1d1d1"
     inkscape:zoom="4.3531261"
     inkscape:cx="36.295755"
     inkscape:cy="25.958357"
     inkscape:window-width="1280"
     inkscape:window-height="669"
     inkscape:window-x="180"
     inkscape:window-y="166"
     inkscape:window-maximized="0"
     inkscape:current-layer="svg7"
     showgrid="false" />
  <defs
     id="defs2">
    <linearGradient
       id="linearGradient1"
       inkscape:collect="always">
      <stop
         style="stop-color:#d8dee9;stop-opacity:1;"
         offset="0"
         id="stop1" />
      <stop
         style="stop-color:#eceff4;stop-opacity:1;"
         offset="1"
         id="stop2" />
    </linearGradient>
    <linearGradient
       inkscape:collect="always"
       id="linearGradient1134">
      <stop
         style="stop-color:#2e3440;stop-opacity:1;"
         offset="0"
         id="stop1130" />
      <stop
         style="stop-color:#4c566a;stop-opacity:1;"
         offset="1"
         id="stop1132" />
    </linearGradient>
    <filter
       style="color-interpolation-filters:sRGB;"
       inkscape:label="Blur"
       id="filter3"
       x="-0.10843471"
       y="-0.10870992"
       width="1.2168694"
       height="1.2174198">
      <feGaussianBlur
         stdDeviation="0.5 0.5"
         result="blur"
         id="feGaussianBlur3" />
    </filter>
    <linearGradient
       inkscape:collect="always"
       xlink:href="#linearGradient1134"
       id="linearGradient4"
       x1="14.388208"
       y1="14.440324"
       x2="2.2869277"
       y2="2.3637428"
       gradientUnits="userSpaceOnUse" />
    <linearGradient
       inkscape:collect="always"
       xlink:href="#linearGradient1"
       id="linearGradient22"
       x1="11.918279"
       y1="11.907505"
       x2="5.4191003"
       y2="5.3433857"
       gradientUnits="userSpaceOnUse" />
  </defs>
  <metadata
     id="metadata2">
    <rdf:RDF>
      <cc:Work
         rdf:about="">
        <dc:format>image/svg+xml</dc:format>
        <dc:type
           rdf:resource="http://purl.org/dc/dcmitype/StillImage" />
      </cc:Work>
    </rdf:RDF>
  </metadata>
  <ellipse
     style="opacity:1;fill:none;stroke:#000000;stroke-width:0.582072;stroke-dasharray:none;stroke-opacity:1;filter:url(#filter3)"
     id="path1-5"
     cx="8.4450111"
     cy="8.423522"
     rx="6.8752708"
     ry="6.8578653" />
  <ellipse
     style="opacity:1;fill:#2b323e;stroke-width:0.58207188;stroke-opacity:1;stroke:#f5bde6;stroke-dasharray:none;fill-opacity:1"
     id="path1"
     cx="8.4450111"
     cy="8.423522"
     rx="6.8752708"
     ry="6.8578653" />
  <ellipse
     style="fill:url(#linearGradient4);stroke:none;stroke-width:0.515624;stroke-dasharray:none;stroke-opacity:1"
     id="path1-2"
     cx="8.4450111"
     cy="8.423522"
     rx="6.0904069"
     ry="6.0749874" />
  <path
     id="path30-0"
     style="fill:#000000;stroke:none;stroke-width:0.0867947;stroke-dasharray:none;stroke-opacity:0.6;opacity:0.3"
     d="M 10.470993,5.8469257 C 9.9925878,5.8449367 9.8698251,5.9252914 8.9585247,6.8386248 L 8.1838127,7.6153711 7.9681818,7.4183873 C 7.7918349,7.2572162 7.7261989,7.2212818 7.6064236,7.2214037 7.2870326,7.2217335 7.064012,7.5052341 7.1582094,7.7906559 c 0.02958,0.089629 0.4647107,0.5512837 1.3900741,1.4751735 L 9.8952987,10.61081 h 0.1851173 c 0.232053,0 0.415398,-0.137913 0.453639,-0.341754 0.03371,-0.179711 -0.03095,-0.3281164 -0.225124,-0.517718 L 10.152293,9.5980909 10.928699,8.815242 c 0.902,-0.9092212 0.994689,-1.0523622 0.993735,-1.5341669 C 11.921687,6.9037657 11.818942,6.6889125 11.465065,6.3239584 11.104784,5.9523992 10.888465,5.8486548 10.470993,5.8469257 Z M 7.4731799,8.8562661 6.8547666,9.4445047 C 6.5145602,9.7680723 6.208911,10.085315 6.1756648,10.149374 c -0.033247,0.06406 -0.063244,0.210501 -0.066792,0.32582 -0.00644,0.209399 -0.00708,0.210314 -0.4160049,0.630617 -0.2251983,0.231465 -0.4355974,0.483312 -0.4675395,0.55976 -0.1504851,0.360161 0.026299,0.743612 0.4068508,0.882527 0.1642912,0.05998 0.3649525,0.04373 0.5306014,-0.04272 0.055589,-0.02902 0.2917459,-0.256948 0.5248377,-0.506528 0.4184615,-0.448064 0.4260109,-0.453675 0.5828138,-0.438721 0.2487783,0.02372 0.4172091,-0.09365 1.0473019,-0.72996 L 8.8958019,10.24634 8.184491,9.5513031 Z M 7.2277133,10.172429 c 0.2473771,0 0.4363826,0.277982 0.3305664,0.486186 -0.065125,0.128139 -1.4297291,1.500133 -1.5616293,1.570105 -0.2529198,0.134172 -0.506325,-0.01686 -0.5089027,-0.303103 -0.00118,-0.130678 0.057038,-0.198956 0.808277,-0.946945 0.6992901,-0.696266 0.8263254,-0.806243 0.9316886,-0.806243 z" />
  <path
     id="path30"
     style="opacity:1;fill:url(#linearGradient22);stroke:none;stroke-width:0.0867947;stroke-dasharray:none;stroke-opacity:0.6"
     d="M 10.470993,5.3177695 C 9.9925878,5.3157805 9.8698251,5.3961352 8.9585247,6.3094686 L 8.1838127,7.0862149 7.9681818,6.8892311 C 7.7918349,6.72806 7.7261989,6.6921256 7.6064236,6.6922475 7.2870326,6.6925773 7.064012,6.9760779 7.1582094,7.2614997 c 0.02958,0.089629 0.4647107,0.5512837 1.3900741,1.4751735 l 1.3470152,1.3449808 h 0.1851173 c 0.232053,0 0.415398,-0.1379132 0.453639,-0.3417547 0.03371,-0.1797103 -0.03095,-0.3281159 -0.225124,-0.5177175 L 10.152293,9.0689347 10.928699,8.2860858 c 0.902,-0.9092212 0.994689,-1.0523622 0.993735,-1.5341669 C 11.921687,6.3746095 11.818942,6.1597563 11.465065,5.7948022 11.104784,5.423243 10.888465,5.3194986 10.470993,5.3177695 Z M 7.4731799,8.3271099 6.8547666,8.9153485 C 6.5145602,9.2389161 6.208911,9.5561592 6.1756648,9.6202176 c -0.033247,0.064062 -0.063244,0.2105014 -0.066792,0.32582 -0.00644,0.2093994 -0.00708,0.2103144 -0.4160049,0.6306174 -0.2251983,0.231465 -0.4355974,0.483312 -0.4675395,0.55976 -0.1504851,0.360161 0.026299,0.743612 0.4068508,0.882527 0.1642912,0.05998 0.3649525,0.04373 0.5306014,-0.04272 0.055589,-0.02902 0.2917459,-0.256948 0.5248377,-0.506528 0.4184615,-0.448064 0.4260109,-0.453675 0.5828138,-0.438721 0.2487783,0.02372 0.4172091,-0.09365 1.0473019,-0.72996 L 8.8958019,9.7171836 8.184491,9.0221469 Z m -0.2454666,1.316163 c 0.2473771,0 0.4363826,0.2779814 0.3305664,0.4861861 -0.065125,0.128139 -1.4297291,1.500133 -1.5616293,1.570105 -0.2529198,0.134172 -0.506325,-0.01686 -0.5089027,-0.303103 -0.00118,-0.130678 0.057038,-0.198956 0.808277,-0.946945 C 6.9953148,9.7532498 7.1223501,9.6432729 7.2277133,9.6432729 Z" />
</svg>
