<?xml version="1.0" encoding="UTF-8" standalone="no"?>
<svg
   width="64"
   height="64"
   version="1.1"
   viewBox="0 0 16.933 16.933"
   id="svg7"
   sodipodi:docname="org.videolan.VLC.svg"
   inkscape:version="1.4 (e7c3feb100, 2024-10-09)"
   xmlns:inkscape="http://www.inkscape.org/namespaces/inkscape"
   xmlns:sodipodi="http://sodipodi.sourceforge.net/DTD/sodipodi-0.dtd"
   xmlns:xlink="http://www.w3.org/1999/xlink"
   xmlns="http://www.w3.org/2000/svg"
   xmlns:svg="http://www.w3.org/2000/svg"
   xmlns:rdf="http://www.w3.org/1999/02/22-rdf-syntax-ns#"
   xmlns:cc="http://creativecommons.org/ns#"
   xmlns:dc="http://purl.org/dc/elements/1.1/">
  <sodipodi:namedview
     id="namedview7"
     pagecolor="#9c4444"
     bordercolor="#000000"
     borderopacity="0.25"
     inkscape:showpageshadow="2"
     inkscape:pageopacity="0.0"
     inkscape:pagecheckerboard="0"
     inkscape:deskcolor="#d1d1d1"
     inkscape:zoom="4.3531261"
     inkscape:cx="36.525475"
     inkscape:cy="25.958357"
     inkscape:window-width="1280"
     inkscape:window-height="669"
     inkscape:window-x="180"
     inkscape:window-y="166"
     inkscape:window-maximized="0"
     inkscape:current-layer="svg7"
     showgrid="false" />
  <defs
     id="defs2">
    <linearGradient
       id="linearGradient1"
       inkscape:collect="always">
      <stop
         style="stop-color:#d8dee9;stop-opacity:1;"
         offset="0"
         id="stop1" />
      <stop
         style="stop-color:#eceff4;stop-opacity:1;"
         offset="1"
         id="stop2" />
    </linearGradient>
    <linearGradient
       inkscape:collect="always"
       id="linearGradient1134">
      <stop
         style="stop-color:#2e3440;stop-opacity:1;"
         offset="0"
         id="stop1130" />
      <stop
         style="stop-color:#4c566a;stop-opacity:1;"
         offset="1"
         id="stop1132" />
    </linearGradient>
    <filter
       style="color-interpolation-filters:sRGB;"
       inkscape:label="Blur"
       id="filter3"
       x="-0.10843471"
       y="-0.10870992"
       width="1.2168694"
       height="1.2174198">
      <feGaussianBlur
         stdDeviation="0.5 0.5"
         result="blur"
         id="feGaussianBlur3" />
    </filter>
    <linearGradient
       inkscape:collect="always"
       xlink:href="#linearGradient1134"
       id="linearGradient4"
       x1="14.388208"
       y1="14.440324"
       x2="2.2869277"
       y2="2.3637428"
       gradientUnits="userSpaceOnUse" />
    <filter
       style="color-interpolation-filters:sRGB"
       inkscape:label="Blur"
       id="filter3-8"
       x="-0.10843471"
       y="-0.10870992"
       width="1.2168694"
       height="1.2174198">
      <feGaussianBlur
         stdDeviation="0.5 0.5"
         result="blur"
         id="feGaussianBlur3-7" />
    </filter>
    <linearGradient
       inkscape:collect="always"
       xlink:href="#linearGradient1"
       id="linearGradient12"
       x1="12.220746"
       y1="11.945302"
       x2="5.0362077"
       y2="4.8341727"
       gradientUnits="userSpaceOnUse" />
  </defs>
  <metadata
     id="metadata2">
    <rdf:RDF>
      <cc:Work
         rdf:about="">
        <dc:format>image/svg+xml</dc:format>
        <dc:type
           rdf:resource="http://purl.org/dc/dcmitype/StillImage" />
      </cc:Work>
    </rdf:RDF>
  </metadata>
  <ellipse
     style="opacity:1;fill:none;stroke:#000000;stroke-width:0.582072;stroke-dasharray:none;stroke-opacity:1;filter:url(#filter3)"
     id="path1-5"
     cx="8.4450111"
     cy="8.423522"
     rx="6.8752708"
     ry="6.8578653" />
  <ellipse
     style="opacity:1;fill:#2b323e;stroke-width:0.58207188;stroke-opacity:1;stroke:#f5a97f;stroke-dasharray:none;fill-opacity:1"
     id="path1"
     cx="8.4450111"
     cy="8.423522"
     rx="6.8752708"
     ry="6.8578653" />
  <ellipse
     style="fill:url(#linearGradient4);stroke:none;stroke-width:0.515624;stroke-dasharray:none;stroke-opacity:1"
     id="path1-2"
     cx="8.4450111"
     cy="8.423522"
     rx="6.0904069"
     ry="6.0749874" />
  <path
     id="path1-2-7-7"
     style="fill:#000000;stroke:none;stroke-width:0.0964386;stroke-dasharray:none;stroke-dashoffset:2.2;stroke-opacity:0.6;opacity:0.3"
     d="M 8.5234131,5.3590842 C 8.3260481,5.3610642 8.1316887,5.4160812 8.0473259,5.523332 8.0182259,5.560326 7.9064098,5.8558433 7.7984095,6.1798601 L 7.6017752,6.7688388 7.7105019,6.8655368 C 7.8253938,6.9674555 8.0088277,7.0451598 8.2268414,7.084842 8.4354591,7.122814 8.8593471,7.094762 9.0508567,7.030247 9.259089,6.9600986 9.4290214,6.8502391 9.4482899,6.7734663 9.4674697,6.6970534 9.0900598,5.5931107 9.0175445,5.513616 8.9213456,5.4081583 8.7207781,5.3571249 8.5234131,5.3590842 Z M 7.2362657,7.8699928 7.0734058,8.3409912 C 6.775527,9.2012575 6.7819288,9.1562892 6.9346051,9.3301791 7.1728678,9.6015454 7.6291863,9.7776743 8.2314684,9.8307872 8.9855009,9.8972831 9.7644363,9.7098888 10.091403,9.3829229 10.283224,9.1911012 10.283256,9.1891336 10.07382,8.5565948 9.971738,8.2482888 9.8774603,7.9677073 9.8646938,7.9333788 9.8416811,7.8715021 9.8406848,7.8717235 9.7568911,7.9671536 9.6482947,8.0908411 9.3393893,8.2415963 9.0790829,8.2979629 8.7744415,8.3639283 8.257481,8.357784 7.9534076,8.2845435 7.6678654,8.2157683 7.4177538,8.0901818 7.3121472,7.9620627 Z M 6.5760358,9.6804196 c 0,-0.00349 -0.3398036,0.1393155 -0.7550767,0.3173915 -0.6525146,0.2798099 -0.7691792,0.3390489 -0.8601037,0.4353719 -0.092872,0.09839 -0.1032427,0.122711 -0.089295,0.208663 0.00937,0.05771 0.051678,0.134684 0.1041004,0.188769 0.051336,0.05297 0.6771154,0.426329 1.4907224,0.889712 1.6420464,0.935218 1.4853069,0.850779 1.6660737,0.899433 0.2326454,0.06263 0.6536552,0.05269 0.8679688,-0.02035 0.103041,-0.03513 0.7982444,-0.41469 1.6285993,-0.889252 1.511137,-0.863641 1.579091,-0.910155 1.579091,-1.082647 0,-0.09766 -0.07132,-0.212908 -0.169337,-0.273439 -0.07963,-0.04917 -1.544857,-0.6880833 -1.544857,-0.6736451 0,0.00325 0.03614,0.1121215 0.08005,0.2419764 0.062,0.1834247 0.07444,0.2543967 0.05599,0.3187797 -0.151586,0.528524 -1.0971157,0.876531 -2.2680133,0.834654 -0.9019152,-0.03227 -1.6306549,-0.302373 -1.8566956,-0.687995 -0.082783,-0.14123 -0.082212,-0.251194 0.00278,-0.5010709 0.037412,-0.109996 0.068013,-0.2028425 0.068013,-0.206351 z" />
  <path
     id="path1-2-7"
     style="opacity:1;fill:url(#linearGradient12);stroke:none;stroke-width:0.0964386;stroke-dasharray:none;stroke-dashoffset:2.2;stroke-opacity:0.6"
     d="m 8.5234131,4.829928 c -0.197365,0.00198 -0.3917244,0.056997 -0.4760872,0.1642478 -0.0291,0.036994 -0.1409161,0.3325113 -0.2489164,0.6565281 l -0.1966343,0.5889787 0.1087267,0.096698 c 0.1148919,0.1019187 0.2983258,0.179623 0.5163395,0.2193052 0.2086177,0.037972 0.6325057,0.00992 0.8240153,-0.054595 C 9.259089,6.4309424 9.4290214,6.3210829 9.4482899,6.2443101 9.4674697,6.1678972 9.0900598,5.0639545 9.0175445,4.9844598 8.9213456,4.8790021 8.7207781,4.8279687 8.5234131,4.829928 Z M 7.2362657,7.3408366 7.0734058,7.811835 C 6.775527,8.6721013 6.7819288,8.627133 6.9346051,8.8010229 7.1728678,9.0723892 7.6291863,9.2485181 8.2314684,9.301631 8.9855009,9.3681269 9.7644363,9.1807326 10.091403,8.8537667 10.283224,8.661945 10.283256,8.6599774 10.07382,8.0274386 9.971738,7.7191326 9.8774603,7.4385511 9.8646938,7.4042226 9.8416811,7.3423459 9.8406848,7.3425673 9.7568911,7.4379974 9.6482947,7.5616849 9.3393893,7.7124401 9.0790829,7.7688067 8.7744415,7.8347721 8.257481,7.8286278 7.9534076,7.7553873 7.6678654,7.6866121 7.4177538,7.5610256 7.3121472,7.4329065 Z M 6.5760358,9.1512634 c 0,-0.00349 -0.3398036,0.1393155 -0.7550767,0.3173915 -0.6525146,0.2798097 -0.7691792,0.3390486 -0.8601037,0.4353719 -0.092872,0.09839 -0.1032427,0.1227112 -0.089295,0.2086632 0.00937,0.05771 0.051678,0.134684 0.1041004,0.188769 0.051336,0.05297 0.6771154,0.426329 1.4907224,0.889712 1.6420464,0.935218 1.4853069,0.850779 1.6660737,0.899433 0.2326454,0.06263 0.6536552,0.05269 0.8679688,-0.02035 0.103041,-0.03513 0.7982444,-0.41469 1.6285993,-0.889252 1.511137,-0.863641 1.579091,-0.910155 1.579091,-1.082647 0,-0.09766 -0.07132,-0.2129086 -0.169337,-0.2734391 -0.07963,-0.049167 -1.544857,-0.6880834 -1.544857,-0.6736452 0,0.00325 0.03614,0.1121215 0.08005,0.2419764 0.062,0.1834251 0.07444,0.2543966 0.05599,0.3187795 C 10.478376,10.240551 9.5328463,10.588558 8.3619487,10.546681 7.4600335,10.514416 6.7312938,10.244308 6.5052531,9.8586858 6.4224702,9.7174562 6.4230408,9.6074922 6.5080341,9.3576149 c 0.037412,-0.109996 0.068013,-0.2028425 0.068013,-0.206351 z" />
</svg>
