<?xml version="1.0" encoding="UTF-8" standalone="no"?>
<svg
   width="64"
   height="64"
   version="1.1"
   viewBox="0 0 16.933 16.933"
   id="svg7"
   sodipodi:docname="com.bitwarden.desktop.svg"
   inkscape:version="1.4 (e7c3feb100, 2024-10-09)"
   xmlns:inkscape="http://www.inkscape.org/namespaces/inkscape"
   xmlns:sodipodi="http://sodipodi.sourceforge.net/DTD/sodipodi-0.dtd"
   xmlns:xlink="http://www.w3.org/1999/xlink"
   xmlns="http://www.w3.org/2000/svg"
   xmlns:svg="http://www.w3.org/2000/svg"
   xmlns:rdf="http://www.w3.org/1999/02/22-rdf-syntax-ns#"
   xmlns:cc="http://creativecommons.org/ns#"
   xmlns:dc="http://purl.org/dc/elements/1.1/">
  <sodipodi:namedview
     id="namedview7"
     pagecolor="#9c4444"
     bordercolor="#000000"
     borderopacity="0.25"
     inkscape:showpageshadow="2"
     inkscape:pageopacity="0.0"
     inkscape:pagecheckerboard="0"
     inkscape:deskcolor="#d1d1d1"
     inkscape:zoom="4.3531261"
     inkscape:cx="36.755195"
     inkscape:cy="25.958357"
     inkscape:window-width="1280"
     inkscape:window-height="669"
     inkscape:window-x="89"
     inkscape:window-y="174"
     inkscape:window-maximized="0"
     inkscape:current-layer="svg7"
     showgrid="false" />
  <defs
     id="defs2">
    <linearGradient
       id="linearGradient1"
       inkscape:collect="always">
      <stop
         style="stop-color:#d8dee9;stop-opacity:1;"
         offset="0"
         id="stop1" />
      <stop
         style="stop-color:#eceff4;stop-opacity:1;"
         offset="1"
         id="stop2" />
    </linearGradient>
    <linearGradient
       inkscape:collect="always"
       id="linearGradient1134">
      <stop
         style="stop-color:#2e3440;stop-opacity:1;"
         offset="0"
         id="stop1130" />
      <stop
         style="stop-color:#4c566a;stop-opacity:1;"
         offset="1"
         id="stop1132" />
    </linearGradient>
    <filter
       style="color-interpolation-filters:sRGB;"
       inkscape:label="Blur"
       id="filter3"
       x="-0.10843471"
       y="-0.10870992"
       width="1.2168694"
       height="1.2174198">
      <feGaussianBlur
         stdDeviation="0.5 0.5"
         result="blur"
         id="feGaussianBlur3" />
    </filter>
    <linearGradient
       inkscape:collect="always"
       xlink:href="#linearGradient1134"
       id="linearGradient4"
       x1="14.388208"
       y1="14.440324"
       x2="2.2869277"
       y2="2.3637428"
       gradientUnits="userSpaceOnUse" />
    <linearGradient
       inkscape:collect="always"
       xlink:href="#linearGradient1"
       id="linearGradient11"
       x1="12.346251"
       y1="11.901453"
       x2="5.0233645"
       y2="4.2892227"
       gradientUnits="userSpaceOnUse"
       gradientTransform="matrix(0.891,0,0,0.891,0.92893694,1.3991802)" />
  </defs>
  <metadata
     id="metadata2">
    <rdf:RDF>
      <cc:Work
         rdf:about="">
        <dc:format>image/svg+xml</dc:format>
        <dc:type
           rdf:resource="http://purl.org/dc/dcmitype/StillImage" />
      </cc:Work>
    </rdf:RDF>
  </metadata>
  <ellipse
     style="opacity:1;fill:none;stroke:#000000;stroke-width:0.582072;stroke-dasharray:none;stroke-opacity:1;filter:url(#filter3)"
     id="path1-5"
     cx="8.4450111"
     cy="8.423522"
     rx="6.8752708"
     ry="6.8578653" />
  <ellipse
     style="opacity:1;fill:#2b323e;stroke-width:0.58207188;stroke-opacity:1;stroke:#ace3ff;stroke-dasharray:none;fill-opacity:1"
     id="path1"
     cx="8.4450111"
     cy="8.423522"
     rx="6.8752708"
     ry="6.8578653" />
  <ellipse
     style="fill:url(#linearGradient4);stroke:none;stroke-width:0.515624;stroke-dasharray:none;stroke-opacity:1"
     id="path1-2"
     cx="8.4450111"
     cy="8.423522"
     rx="6.0904069"
     ry="6.0749874" />
  <path
     style="fill:#000000;stroke:none;stroke-width:0.241696;stroke-dasharray:none;stroke-opacity:0.3;opacity:0.3"
     d="m 10.947,5.7206039 c -0.192001,0.00832 -0.381365,0.08636 -0.530117,0.2328041 -0.326605,0.3228426 -0.33925,0.8557415 -0.02557,1.1918972 l -0.0036,-0.00671 C 10.633474,7.3982 11.015191,7.4645676 11.332097,7.3048106 L 10.769439,6.7292473 c -0.0194,-0.023296 -0.0194,-0.056713 0,-0.080009 l 0.724212,-0.742293 C 11.333601,5.7738202 11.139003,5.7122838 10.947,5.7206039 Z m 0.624409,0.2627434 -0.688602,0.7092534 0.540148,0.5554276 c 0.04529,-0.029952 0.08408,-0.066111 0.122875,-0.102723 0.313671,-0.319515 0.323081,-0.8324583 0.02557,-1.161958 z m -0.03711,0.4268943 c 0.01719,-6.66e-5 0.03352,0.00815 0.04363,0.022717 0.0582,0.1131614 0.04222,0.2493316 -0.03861,0.3458508 -0.0097,0.013316 -0.02948,0.02323 -0.04564,0.02323 -0.01293,0.00331 -0.02919,0.00331 -0.04212,0 l -0.003,-0.00306 c -0.02263,-0.023297 -0.01963,-0.063424 0.003,-0.086721 0.0485,-0.05658 0.05541,-0.1393969 0.02307,-0.2059621 0,-0.00331 -0.0036,-0.0034 -0.0036,-0.00671 -0.01293,-0.029953 0.0036,-0.066698 0.0326,-0.08001 0.0097,-0.00623 0.02029,-0.00925 0.03059,-0.00929 z M 9.9183632,6.9925105 C 9.5710929,6.963649 9.0006353,7.3536869 7.5260586,8.868883 L 7.9528615,9.3086826 9.9514652,7.251641 C 10.022601,7.1784188 10.11653,7.1383083 10.216776,7.1349814 10.125423,7.058431 10.034121,7.0021317 9.918365,6.9925105 Z m 0.3044308,0.2699709 c -0.07115,0 -0.142128,0.027156 -0.197102,0.082075 L 8.0336077,9.3814666 8.301928,9.6710522 10.407357,7.7606107 c 0.05819,-0.053254 0.09056,-0.1260836 0.09379,-0.2059628 0.0031,-0.076549 -0.02577,-0.1535106 -0.08075,-0.2100909 -0.05497,-0.054917 -0.126461,-0.082075 -0.197603,-0.082076 z m 0.310448,0.5151639 c -0.01616,0.023297 -0.03527,0.043235 -0.05466,0.059879 L 8.3731458,9.744352 8.7482909,10.130467 C 9.618162,9.2751011 10.465334,8.3967035 10.533242,7.7776453 Z M 7.4483212,8.935474 6.9212119,9.4779951 l -0.00953,0.013426 c -0.0097,0.00998 -0.012762,0.020239 -0.00953,0.033553 0.00321,0.01997 0.022226,0.033264 0.041628,0.029935 L 7.8460432,9.3551404 Z m 0.5110607,0.5425211 -0.300919,0.3097178 c -0.00648,0.00998 -0.00648,0.023566 0,0.033551 0.0097,0.00667 0.019391,0.00667 0.029089,0 L 8.1825631,9.6911823 Z M 8.2763501,9.7944227 7.4583521,9.9740594 5.770197,11.714672 6.3198754,12.297457 c 0.016169,0.01664 0.045295,0.01664 0.064697,0 0.019396,-0.01333 0.032548,-0.03998 0.02608,-0.06658 l -0.090778,-0.399536 c -0.0097,-0.04661 0.013131,-0.09336 0.055169,-0.116663 h 0.00297 v -0.0068 c 0.8213743,-0.402732 1.5910168,-0.911829 2.2895,-1.510917 z M 5.6829288,11.797779 5.2591345,12.23758 c -0.00322,0.01 -0.00322,0.02282 0,0.03615 0.00322,0.01 0.016156,0.02041 0.029089,0.02378 l 0.9443822,0.06299 z"
     id="path8-6" />
  <path
     style="fill:url(#linearGradient11);stroke:none;stroke-width:0.241696;stroke-dasharray:none;stroke-opacity:0.3"
     d="m 10.947,5.1914477 c -0.192001,0.00832 -0.381365,0.08636 -0.530117,0.2328041 -0.326605,0.3228426 -0.33925,0.8557415 -0.02557,1.1918972 l -0.0036,-0.00671 c 0.245761,0.2596048 0.627478,0.3259724 0.944384,0.1662154 L 10.769439,6.2000911 c -0.0194,-0.023296 -0.0194,-0.056713 0,-0.080009 l 0.724212,-0.742293 C 11.333601,5.244664 11.139003,5.1831276 10.947,5.1914477 Z m 0.624409,0.2627434 -0.688602,0.7092534 0.540148,0.5554276 c 0.04529,-0.029952 0.08408,-0.066111 0.122875,-0.102723 0.313671,-0.319515 0.323081,-0.8324583 0.02557,-1.161958 z m -0.03711,0.4268943 c 0.01719,-6.66e-5 0.03352,0.00815 0.04363,0.022717 0.0582,0.1131614 0.04222,0.2493316 -0.03861,0.3458508 -0.0097,0.013316 -0.02948,0.02323 -0.04564,0.02323 -0.01293,0.00331 -0.02919,0.00331 -0.04212,0 l -0.003,-0.00306 c -0.02263,-0.023297 -0.01963,-0.063424 0.003,-0.086721 0.0485,-0.05658 0.05541,-0.1393969 0.02307,-0.2059621 0,-0.00331 -0.0036,-0.0034 -0.0036,-0.00671 -0.01293,-0.029953 0.0036,-0.066698 0.0326,-0.08001 0.0097,-0.00623 0.02029,-0.00925 0.03059,-0.00929 z M 9.9183632,6.4633543 C 9.5710929,6.4344928 9.0006353,6.8245307 7.5260586,8.3397268 L 7.9528615,8.7795264 9.9514652,6.7224848 C 10.022601,6.6492626 10.11653,6.6091521 10.216776,6.6058252 10.125423,6.5292748 10.034121,6.4729755 9.918365,6.4633543 Z m 0.3044308,0.2699709 c -0.07115,0 -0.142128,0.027156 -0.197102,0.082075 L 8.0336077,8.8523104 8.301928,9.141896 10.407357,7.2314545 c 0.05819,-0.053254 0.09056,-0.1260836 0.09379,-0.2059628 0.0031,-0.076549 -0.02577,-0.1535106 -0.08075,-0.2100909 -0.05497,-0.054917 -0.126461,-0.082075 -0.197603,-0.082076 z m 0.310448,0.5151639 c -0.01616,0.023297 -0.03527,0.043235 -0.05466,0.059879 L 8.3731458,9.2151958 8.7482909,9.6013108 C 9.618162,8.7459449 10.465334,7.8675473 10.533242,7.2484891 Z m -3.0849208,1.1578287 -0.5271093,0.5425211 -0.00953,0.013426 c -0.0097,0.00998 -0.012762,0.020239 -0.00953,0.033553 0.00321,0.01997 0.022226,0.033264 0.041628,0.029935 L 7.8460432,8.8259842 Z m 0.5110607,0.5425211 -0.300919,0.3097178 c -0.00648,0.00998 -0.00648,0.023566 0,0.033551 0.0097,0.00667 0.019391,0.00667 0.029089,0 L 8.1825631,9.1620261 Z M 8.2763501,9.2652665 7.4583521,9.4449032 5.770197,11.185516 6.3198754,11.768301 c 0.016169,0.01664 0.045295,0.01664 0.064697,0 0.019396,-0.01333 0.032548,-0.03998 0.02608,-0.06658 l -0.090778,-0.399536 c -0.0097,-0.04661 0.013131,-0.09336 0.055169,-0.116663 h 0.00297 v -0.0068 c 0.8213743,-0.402732 1.5910168,-0.911829 2.2895,-1.5109176 z M 5.6829288,11.268623 5.2591345,11.708424 c -0.00322,0.01 -0.00322,0.02282 0,0.03615 0.00322,0.01 0.016156,0.02041 0.029089,0.02378 l 0.9443822,0.06299 z"
     id="path8" />
</svg>
