<?xml version="1.0" encoding="UTF-8" standalone="no"?>
<svg
   width="64"
   height="64"
   version="1.1"
   viewBox="0 0 16.933 16.933"
   id="svg7"
   sodipodi:docname="System.svg"
   inkscape:version="1.4.2 (ebf0e940d0, 2025-05-08)"
   xmlns:inkscape="http://www.inkscape.org/namespaces/inkscape"
   xmlns:sodipodi="http://sodipodi.sourceforge.net/DTD/sodipodi-0.dtd"
   xmlns:xlink="http://www.w3.org/1999/xlink"
   xmlns="http://www.w3.org/2000/svg"
   xmlns:svg="http://www.w3.org/2000/svg"
   xmlns:rdf="http://www.w3.org/1999/02/22-rdf-syntax-ns#"
   xmlns:cc="http://creativecommons.org/ns#"
   xmlns:dc="http://purl.org/dc/elements/1.1/">
  <sodipodi:namedview
     id="namedview7"
     pagecolor="#9c4444"
     bordercolor="#000000"
     borderopacity="0.25"
     inkscape:showpageshadow="2"
     inkscape:pageopacity="0.0"
     inkscape:pagecheckerboard="0"
     inkscape:deskcolor="#d1d1d1"
     inkscape:zoom="4.3531261"
     inkscape:cx="36.755195"
     inkscape:cy="25.958357"
     inkscape:window-width="1280"
     inkscape:window-height="669"
     inkscape:window-x="11"
     inkscape:window-y="153"
     inkscape:window-maximized="0"
     inkscape:current-layer="svg7"
     showgrid="false" />
  <defs
     id="defs2">
    <linearGradient
       id="linearGradient1"
       inkscape:collect="always">
      <stop
         style="stop-color:#d8dee9;stop-opacity:1;"
         offset="0"
         id="stop1" />
      <stop
         style="stop-color:#eceff4;stop-opacity:1;"
         offset="1"
         id="stop2" />
    </linearGradient>
    <linearGradient
       inkscape:collect="always"
       id="linearGradient1134">
      <stop
         style="stop-color:#2e3440;stop-opacity:1;"
         offset="0"
         id="stop1130" />
      <stop
         style="stop-color:#4c566a;stop-opacity:1;"
         offset="1"
         id="stop1132" />
    </linearGradient>
    <filter
       style="color-interpolation-filters:sRGB;"
       inkscape:label="Blur"
       id="filter3"
       x="-0.10843471"
       y="-0.10870992"
       width="1.2168694"
       height="1.2174198">
      <feGaussianBlur
         stdDeviation="0.5 0.5"
         result="blur"
         id="feGaussianBlur3" />
    </filter>
    <linearGradient
       inkscape:collect="always"
       xlink:href="#linearGradient1134"
       id="linearGradient4"
       x1="14.388208"
       y1="14.440324"
       x2="2.2869277"
       y2="2.3637428"
       gradientUnits="userSpaceOnUse" />
    <linearGradient
       inkscape:collect="always"
       xlink:href="#linearGradient1"
       id="linearGradient7"
       x1="13.389046"
       y1="10.450603"
       x2="3.2323692"
       y2="4.3119349"
       gradientUnits="userSpaceOnUse"
       gradientTransform="matrix(0.729,0,0,0.729,2.2844096,3.0442775)" />
  </defs>
  <metadata
     id="metadata2">
    <rdf:RDF>
      <cc:Work
         rdf:about="">
        <dc:format>image/svg+xml</dc:format>
        <dc:type
           rdf:resource="http://purl.org/dc/dcmitype/StillImage" />
      </cc:Work>
    </rdf:RDF>
  </metadata>
  <ellipse
     style="opacity:1;fill:none;stroke:#000000;stroke-width:0.582072;stroke-dasharray:none;stroke-opacity:1;filter:url(#filter3)"
     id="path1-5"
     cx="8.4450111"
     cy="8.423522"
     rx="6.8752708"
     ry="6.8578653" />
  <ellipse
     style="opacity:1;fill:#2b323e;stroke-width:0.58207188;stroke-opacity:1;stroke:#ed8796;stroke-dasharray:none;fill-opacity:1"
     id="path1"
     cx="8.4450111"
     cy="8.423522"
     rx="6.8752708"
     ry="6.8578653" />
  <ellipse
     style="fill:url(#linearGradient4);stroke:none;stroke-width:0.515624;stroke-dasharray:none;stroke-opacity:1"
     id="path1-2"
     cx="8.4450111"
     cy="8.423522"
     rx="6.0904069"
     ry="6.0749874" />
  <path
     d="m 8.1025682,8.8735613 q 0,0.5575364 -0.1536993,0.9794557 -0.1506856,0.418905 -0.4400018,0.702195 -0.2863024,0.280274 -0.7052082,0.421919 -0.415892,0.141644 -0.9493186,0.141644 H 4.6940617 V 6.7127309 h 1.289868 q 0.4852074,0 0.873976,0.1386307 0.3917824,0.1386306 0.6690437,0.4128783 0.2772614,0.2712339 0.4249331,0.6750712 0.1506857,0.4038371 0.1506857,0.9342502 z M 7.156263,8.8976707 q 0,-0.3676726 -0.075343,-0.6328792 Q 7.0085913,7.9965716 6.8669468,7.8217764 6.7283162,7.6469811 6.5233839,7.5625973 6.3214653,7.4782134 6.0592725,7.4782134 H 5.6283119 v 2.8690516 h 0.343563 q 0.5906872,0 0.8860308,-0.3616447 Q 7.156263,9.6239751 7.156263,8.8976707 Z M 11.221759,6.7127309 H 12.16505 L 10.790798,11.118775 H 9.7721642 L 8.4009255,6.7127309 H 9.344217 l 0.7474,2.6520651 q 0.01507,0.051233 0.03918,0.1717816 0.02713,0.1205484 0.05424,0.2652064 0.03014,0.1446581 0.05726,0.289316 0.02713,0.144658 0.04219,0.244111 0.01507,-0.09945 0.04219,-0.244111 0.02713,-0.1446578 0.05727,-0.2863022 0.03014,-0.1446581 0.05727,-0.2652065 0.03014,-0.1205485 0.04521,-0.1747953 z"
     id="text6-3"
     style="font-weight:bold;font-size:8.4665px;font-family:'Droid Sans';-inkscape-font-specification:'Droid Sans Bold';text-align:end;letter-spacing:0px;text-anchor:end;fill:#000000;stroke:none;stroke-width:0.0964386;stroke-opacity:0.6;opacity:0.3"
     aria-label="DV" />
  <path
     d="m 8.1025682,8.3444051 q 0,0.5575364 -0.1536993,0.9794557 Q 7.7981833,9.7427662 7.5088671,10.026056 7.2225647,10.30633 6.8036589,10.447975 6.3877669,10.589619 5.8543403,10.589619 H 4.6940617 V 6.1835747 h 1.289868 q 0.4852074,0 0.873976,0.1386307 Q 7.2496881,6.460836 7.5269494,6.7350837 7.8042108,7.0063176 7.9518825,7.4101549 8.1025682,7.813992 8.1025682,8.3444051 Z M 7.156263,8.3685145 q 0,-0.3676726 -0.075343,-0.6328792 Q 7.0085913,7.4674154 6.8669468,7.2926202 6.7283162,7.1178249 6.5233839,7.0334411 6.3214653,6.9490572 6.0592725,6.9490572 H 5.6283119 v 2.869052 h 0.343563 q 0.5906872,0 0.8860308,-0.3616451 Q 7.156263,9.0948189 7.156263,8.3685145 Z M 11.221759,6.1835747 H 12.16505 L 10.790798,10.589619 H 9.7721642 L 8.4009255,6.1835747 H 9.344217 l 0.7474,2.6520651 q 0.01507,0.051233 0.03918,0.1717816 0.02713,0.1205484 0.05424,0.2652064 0.03014,0.1446581 0.05726,0.2893163 0.02713,0.144658 0.04219,0.2441106 0.01507,-0.099453 0.04219,-0.2441106 0.02713,-0.1446581 0.05727,-0.2863025 0.03014,-0.1446581 0.05727,-0.2652065 0.03014,-0.1205485 0.04521,-0.1747953 z"
     id="text6"
     style="font-weight:bold;font-size:8.4665px;font-family:'Droid Sans';-inkscape-font-specification:'Droid Sans Bold';text-align:end;letter-spacing:0px;text-anchor:end;fill:url(#linearGradient7);stroke:none;stroke-width:0.0964386;stroke-opacity:0.6"
     aria-label="DV" />
</svg>
