<?xml version="1.0" encoding="UTF-8" standalone="no"?>
<svg
   width="64"
   height="64"
   version="1.1"
   viewBox="0 0 16.933 16.933"
   id="svg7"
   sodipodi:docname="Multimedia.svg"
   inkscape:version="1.4 (e7c3feb100, 2024-10-09)"
   xmlns:inkscape="http://www.inkscape.org/namespaces/inkscape"
   xmlns:sodipodi="http://sodipodi.sourceforge.net/DTD/sodipodi-0.dtd"
   xmlns:xlink="http://www.w3.org/1999/xlink"
   xmlns="http://www.w3.org/2000/svg"
   xmlns:svg="http://www.w3.org/2000/svg"
   xmlns:rdf="http://www.w3.org/1999/02/22-rdf-syntax-ns#"
   xmlns:cc="http://creativecommons.org/ns#"
   xmlns:dc="http://purl.org/dc/elements/1.1/">
  <sodipodi:namedview
     id="namedview7"
     pagecolor="#9c4444"
     bordercolor="#000000"
     borderopacity="0.25"
     inkscape:showpageshadow="2"
     inkscape:pageopacity="0.0"
     inkscape:pagecheckerboard="0"
     inkscape:deskcolor="#d1d1d1"
     inkscape:zoom="4.3531261"
     inkscape:cx="36.984915"
     inkscape:cy="25.958357"
     inkscape:window-width="1280"
     inkscape:window-height="669"
     inkscape:window-x="180"
     inkscape:window-y="166"
     inkscape:window-maximized="0"
     inkscape:current-layer="svg7"
     showgrid="false" />
  <defs
     id="defs2">
    <linearGradient
       id="linearGradient1"
       inkscape:collect="always">
      <stop
         style="stop-color:#d8dee9;stop-opacity:1;"
         offset="0"
         id="stop1" />
      <stop
         style="stop-color:#eceff4;stop-opacity:1;"
         offset="1"
         id="stop2" />
    </linearGradient>
    <linearGradient
       inkscape:collect="always"
       id="linearGradient1134">
      <stop
         style="stop-color:#2e3440;stop-opacity:1;"
         offset="0"
         id="stop1130" />
      <stop
         style="stop-color:#4c566a;stop-opacity:1;"
         offset="1"
         id="stop1132" />
    </linearGradient>
    <filter
       style="color-interpolation-filters:sRGB;"
       inkscape:label="Blur"
       id="filter3"
       x="-0.10843471"
       y="-0.10870992"
       width="1.2168694"
       height="1.2174198">
      <feGaussianBlur
         stdDeviation="0.5 0.5"
         result="blur"
         id="feGaussianBlur3" />
    </filter>
    <linearGradient
       inkscape:collect="always"
       xlink:href="#linearGradient1134"
       id="linearGradient4"
       x1="14.388208"
       y1="14.440324"
       x2="2.2869277"
       y2="2.3637428"
       gradientUnits="userSpaceOnUse" />
    <linearGradient
       inkscape:collect="always"
       xlink:href="#linearGradient1"
       id="linearGradient25"
       x1="12.028728"
       y1="11.653823"
       x2="4.8599653"
       y2="5.2112617"
       gradientUnits="userSpaceOnUse" />
  </defs>
  <metadata
     id="metadata2">
    <rdf:RDF>
      <cc:Work
         rdf:about="">
        <dc:format>image/svg+xml</dc:format>
        <dc:type
           rdf:resource="http://purl.org/dc/dcmitype/StillImage" />
      </cc:Work>
    </rdf:RDF>
  </metadata>
  <ellipse
     style="opacity:1;fill:none;stroke:#000000;stroke-width:0.582072;stroke-dasharray:none;stroke-opacity:1;filter:url(#filter3)"
     id="path1-5"
     cx="8.4450111"
     cy="8.423522"
     rx="6.8752708"
     ry="6.8578653" />
  <ellipse
     style="opacity:1;fill:#2b323e;stroke-width:0.58207188;stroke-opacity:1;stroke:#f5a97f;stroke-dasharray:none;fill-opacity:1"
     id="path1"
     cx="8.4450111"
     cy="8.423522"
     rx="6.8752708"
     ry="6.8578653" />
  <ellipse
     style="fill:url(#linearGradient4);stroke:none;stroke-width:0.515624;stroke-dasharray:none;stroke-opacity:1"
     id="path1-2"
     cx="8.4450111"
     cy="8.423522"
     rx="6.0904069"
     ry="6.0749874" />
  <path
     id="path16-0"
     style="fill:#000000;stroke:none;stroke-width:0.0867947;stroke-dasharray:none;stroke-opacity:0.6;opacity:0.3"
     d="M 6.6613444,5.6466133 C 6.3638583,5.6465901 6.0932529,5.6652587 5.9667656,5.7028216 5.7066941,5.7800543 5.5791521,5.9459205 5.5590303,6.233681 5.5468244,6.4081929 5.559287,6.4655467 5.6326334,6.5736096 l 0.087881,0.1298148 0.7592626,0.021412 c 0.6468842,0.018302 0.8243586,0.0366 1.2000105,0.1235698 1.3528928,0.31322 2.3775735,0.8670895 3.3497685,1.8116135 0.469317,0.4559586 0.539003,0.5103391 0.653536,0.5103391 0.163185,0 0.312378,-0.1160684 0.40149,-0.3122709 0.135936,-0.2992927 0.08631,-0.4502997 -0.291299,-0.885063 C 10.823051,6.8559428 9.1427261,5.9638601 7.517411,5.7028213 7.2833575,5.6652302 6.9588292,5.6466365 6.6613444,5.6466133 Z M 5.9765794,7.7664819 C 5.8763431,7.7632239 5.7877429,7.7669771 5.7138267,7.7780802 5.3657912,7.8302721 5.2120433,8.269984 5.4506271,8.5306514 c 0.061697,0.067405 0.1162375,0.083301 0.2832741,0.08342 0.6975187,4.768e-4 1.9724844,0.3512477 2.8340766,0.7797831 0.619471,0.3081103 1.0224617,0.5883557 1.4788222,1.0278145 0.217793,0.209727 0.418136,0.381046 0.445209,0.38097 0.105394,-2.75e-4 0.297237,-0.155743 0.35108,-0.284612 0.07818,-0.18712 0.04071,-0.33755 -0.148552,-0.5946496 C 10.377972,9.4933579 9.7070827,9.0046924 8.8686496,8.5935533 7.9570112,8.1465171 6.6782394,7.7893641 5.9765794,7.7664833 Z M 5.3654218,9.8408494 c -0.1029753,0.00221 -0.1527829,0.018163 -0.2118974,0.053085 -0.2359316,0.1393666 -0.3120469,0.4792196 -0.1494442,0.6682566 0.076477,0.0889 0.1191614,0.100698 0.4916028,0.132937 0.733097,0.06347 1.5975289,0.310771 2.3763784,0.680303 0.4670127,0.221579 0.8465992,0.468866 1.2223151,0.796289 0.1961164,0.170909 0.2872417,0.226525 0.3729408,0.226621 0.2935721,3.11e-4 0.4524085,-0.401017 0.2734589,-0.690565 C 9.628592,11.526259 9.2558169,11.200457 8.8503602,10.929778 7.9441089,10.324777 6.7351778,9.9205545 5.6214835,9.8502168 5.5082845,9.8430686 5.4272074,9.8395267 5.3654218,9.8408474 Z" />
  <path
     id="path16"
     style="opacity:1;fill:url(#linearGradient25);stroke:none;stroke-width:0.0867947;stroke-dasharray:none;stroke-opacity:0.6"
     d="M 6.6613444,5.1174571 C 6.3638583,5.1174339 6.0932529,5.1361025 5.9667656,5.1736654 5.7066941,5.2508981 5.5791521,5.4167643 5.5590303,5.7045248 5.5468244,5.8790367 5.559287,5.9363905 5.6326334,6.0444534 l 0.087881,0.1298148 0.7592626,0.021412 c 0.6468842,0.018302 0.8243586,0.0366 1.2000105,0.1235698 1.3528928,0.31322 2.3775735,0.8670895 3.3497685,1.8116135 0.469317,0.4559586 0.539003,0.5103391 0.653536,0.5103391 0.163185,0 0.312378,-0.1160684 0.40149,-0.3122709 C 12.220518,8.029639 12.170892,7.878632 11.793283,7.4438687 10.823051,6.3267866 9.1427261,5.4347039 7.517411,5.1736651 7.2833575,5.136074 6.9588292,5.1174803 6.6613444,5.1174571 Z M 5.9765794,7.2373257 C 5.8763431,7.2340677 5.7877429,7.2378209 5.7138267,7.248924 5.3657912,7.3011159 5.2120433,7.7408278 5.4506271,8.0014952 c 0.061697,0.067405 0.1162375,0.083301 0.2832741,0.08342 0.6975187,4.768e-4 1.9724844,0.3512477 2.8340766,0.7797831 0.619471,0.3081103 1.0224617,0.5883557 1.4788222,1.0278148 0.217793,0.2097269 0.418136,0.3810459 0.445209,0.3809699 0.105394,-2.75e-4 0.297237,-0.155743 0.35108,-0.2846123 C 10.92127,9.8017505 10.883799,9.651321 10.694537,9.3942212 10.377972,8.9642017 9.7070827,8.4755362 8.8686496,8.0643971 7.9570112,7.6173609 6.6782394,7.2602079 5.9765794,7.2373271 Z M 5.3654218,9.3116932 C 5.2624465,9.3139032 5.2126389,9.3298562 5.1535244,9.3647782 4.9175928,9.504145 4.8414775,9.8439977 5.0040802,10.033035 c 0.076477,0.0889 0.1191614,0.100698 0.4916028,0.132937 0.733097,0.06347 1.5975289,0.310771 2.3763784,0.680303 0.4670127,0.221579 0.8465992,0.468866 1.2223151,0.796289 0.1961164,0.170909 0.2872417,0.226525 0.3729408,0.226621 0.2935721,3.11e-4 0.4524085,-0.401017 0.2734589,-0.690565 C 9.628592,10.997103 9.2558169,10.671301 8.8503602,10.400622 7.9441089,9.7956204 6.7351778,9.3913983 5.6214835,9.3210606 5.5082845,9.3139124 5.4272074,9.3103705 5.3654218,9.3116912 Z" />
</svg>
