<?xml version="1.0" encoding="UTF-8" standalone="no"?>
<svg
   width="64"
   height="64"
   version="1.1"
   viewBox="0 0 16.933 16.933"
   id="svg7"
   sodipodi:docname="steam_icon_268500.svg"
   inkscape:version="1.4 (e7c3feb100, 2024-10-09)"
   xmlns:inkscape="http://www.inkscape.org/namespaces/inkscape"
   xmlns:sodipodi="http://sodipodi.sourceforge.net/DTD/sodipodi-0.dtd"
   xmlns:xlink="http://www.w3.org/1999/xlink"
   xmlns="http://www.w3.org/2000/svg"
   xmlns:svg="http://www.w3.org/2000/svg"
   xmlns:rdf="http://www.w3.org/1999/02/22-rdf-syntax-ns#"
   xmlns:cc="http://creativecommons.org/ns#"
   xmlns:dc="http://purl.org/dc/elements/1.1/">
  <sodipodi:namedview
     id="namedview7"
     pagecolor="#9c4444"
     bordercolor="#000000"
     borderopacity="0.25"
     inkscape:showpageshadow="2"
     inkscape:pageopacity="0.0"
     inkscape:pagecheckerboard="0"
     inkscape:deskcolor="#d1d1d1"
     inkscape:zoom="4.3531261"
     inkscape:cx="36.066035"
     inkscape:cy="25.958357"
     inkscape:window-width="1280"
     inkscape:window-height="669"
     inkscape:window-x="74"
     inkscape:window-y="150"
     inkscape:window-maximized="0"
     inkscape:current-layer="svg7"
     showgrid="false" />
  <defs
     id="defs2">
    <linearGradient
       id="linearGradient1"
       inkscape:collect="always">
      <stop
         style="stop-color:#d8dee9;stop-opacity:1;"
         offset="0"
         id="stop1" />
      <stop
         style="stop-color:#eceff4;stop-opacity:1;"
         offset="1"
         id="stop2" />
    </linearGradient>
    <linearGradient
       inkscape:collect="always"
       id="linearGradient1134">
      <stop
         style="stop-color:#2e3440;stop-opacity:1;"
         offset="0"
         id="stop1130" />
      <stop
         style="stop-color:#4c566a;stop-opacity:1;"
         offset="1"
         id="stop1132" />
    </linearGradient>
    <filter
       style="color-interpolation-filters:sRGB;"
       inkscape:label="Blur"
       id="filter3"
       x="-0.10843471"
       y="-0.10870992"
       width="1.2168694"
       height="1.2174198">
      <feGaussianBlur
         stdDeviation="0.5 0.5"
         result="blur"
         id="feGaussianBlur3" />
    </filter>
    <linearGradient
       inkscape:collect="always"
       xlink:href="#linearGradient1134"
       id="linearGradient4"
       x1="14.388208"
       y1="14.440324"
       x2="2.2869277"
       y2="2.3637428"
       gradientUnits="userSpaceOnUse" />
    <filter
       style="color-interpolation-filters:sRGB"
       inkscape:label="Blur"
       id="filter3-8"
       x="-0.10843471"
       y="-0.10870992"
       width="1.2168694"
       height="1.2174198">
      <feGaussianBlur
         stdDeviation="0.5 0.5"
         result="blur"
         id="feGaussianBlur3-7" />
    </filter>
    <linearGradient
       inkscape:collect="always"
       xlink:href="#linearGradient1134"
       id="linearGradient11"
       gradientUnits="userSpaceOnUse"
       x1="14.388208"
       y1="14.440324"
       x2="2.2869277"
       y2="2.3637428"
       gradientTransform="matrix(0.4782969,0,0,0.4782969,8.9000071,8.8280171)" />
    <linearGradient
       inkscape:collect="always"
       xlink:href="#linearGradient1"
       id="linearGradient8255"
       x1="12.778065"
       y1="11.921236"
       x2="4.179378"
       y2="5.0497904"
       gradientUnits="userSpaceOnUse"
       gradientTransform="matrix(0.4304785,0,0,0.43046721,9.2824147,9.1519912)" />
    <linearGradient
       inkscape:collect="always"
       xlink:href="#linearGradient1"
       id="linearGradient5"
       x1="11.675852"
       y1="12.447409"
       x2="5.3609557"
       y2="4.9108276"
       gradientUnits="userSpaceOnUse" />
  </defs>
  <metadata
     id="metadata2">
    <rdf:RDF>
      <cc:Work
         rdf:about="">
        <dc:format>image/svg+xml</dc:format>
        <dc:type
           rdf:resource="http://purl.org/dc/dcmitype/StillImage" />
      </cc:Work>
    </rdf:RDF>
  </metadata>
  <ellipse
     style="opacity:1;fill:none;stroke:#000000;stroke-width:0.582072;stroke-dasharray:none;stroke-opacity:1;filter:url(#filter3)"
     id="path1-5"
     cx="8.4450111"
     cy="8.423522"
     rx="6.8752708"
     ry="6.8578653" />
  <ellipse
     style="opacity:1;fill:#2b323e;stroke-width:0.58207188;stroke-opacity:1;stroke:#8aadf4;stroke-dasharray:none;fill-opacity:1"
     id="path1"
     cx="8.4450111"
     cy="8.423522"
     rx="6.8752708"
     ry="6.8578653" />
  <ellipse
     style="fill:url(#linearGradient4);stroke:none;stroke-width:0.515624;stroke-dasharray:none;stroke-opacity:1"
     id="path1-2"
     cx="8.4450111"
     cy="8.423522"
     rx="6.0904069"
     ry="6.0749874" />
  <path
     id="path7-62-2"
     style="fill:#000000;stroke:none;stroke-width:0.0964386;stroke-dasharray:none;stroke-opacity:0.6;opacity:0.3"
     d="M 8.4818432,5.4195302 C 7.6813104,5.413542 6.8794605,5.7245419 6.2503872,6.3536604 5.3328516,7.271262 5.0008024,8.6565776 5.3995373,9.9037252 c 0.2176896,0.6808798 0.711489,1.3769698 1.2260751,1.7276108 0.086007,0.05861 0.1563825,0.117709 0.1563825,0.131399 0,0.05872 0.2029305,0.421794 0.3164663,0.566305 0.2658821,0.338428 0.7081611,0.594764 1.1395552,0.661157 0.1337313,0.02058 0.5061575,-0.0074 0.6653191,-0.04998 0.48862,-0.13065 0.9025693,-0.485795 1.1460325,-0.983637 0.09626,-0.196851 0.130573,-0.238593 0.311375,-0.377076 0.522949,-0.400539 0.925067,-0.973938 1.141408,-1.628132 C 11.91524,8.7022476 11.603061,7.3075968 10.704509,6.3869752 10.081338,5.7484952 9.2823767,5.4255124 8.4818432,5.4195302 Z m 2.0561038,3.402936 c 0.128588,-0.00545 0.252659,4.631e-4 0.339137,0.018967 0.07821,0.016698 0.08258,0.025016 0.105027,0.207276 0.03,0.2435474 -0.01214,0.6008902 -0.101323,0.8573273 -0.210882,0.6063885 -0.733502,1.0707285 -1.3324907,1.1839725 -0.3123724,0.05906 -0.654851,0.04082 -0.6944669,-0.03655 -0.042535,-0.08307 -0.057824,-0.379597 -0.030537,-0.595451 0.099475,-0.7868733 0.6212867,-1.4008021 1.3491446,-1.5869571 0.103622,-0.0265 0.236922,-0.043142 0.365509,-0.048582 z m -4.1057308,0.00141 C 6.8625474,8.8392052 7.210181,8.99995 7.5472506,9.333736 7.7371592,9.5217944 7.8026843,9.6093788 7.89379,9.7968687 c 0.1789206,0.3682023 0.243783,0.7012453 0.2091269,1.0710803 -0.014351,0.153084 -0.030092,0.207846 -0.064312,0.221156 -0.02502,0.0097 -0.1494755,0.02248 -0.2766764,0.02822 -0.840344,0.03792 -1.5927451,-0.560272 -1.7835917,-1.4180886 -0.043729,-0.1965549 -0.049827,-0.7993434 -0.00833,-0.8406713 0.00985,-0.00981 0.1327112,-0.024536 0.2725127,-0.032386 0.065063,-0.00365 0.1282187,-0.00449 0.1896947,-0.00231 z" />
  <path
     id="path7-62"
     style="opacity:1;fill:url(#linearGradient5);stroke:none;stroke-width:0.0964386;stroke-dasharray:none;stroke-opacity:0.6"
     d="M 8.4818432,4.890374 C 7.6813104,4.8843858 6.8794605,5.1953857 6.2503872,5.8245042 5.3328516,6.7421058 5.0008024,8.1274214 5.3995373,9.374569 c 0.2176896,0.68088 0.711489,1.37697 1.2260751,1.727611 0.086007,0.05861 0.1563825,0.117709 0.1563825,0.131399 0,0.05872 0.2029305,0.421794 0.3164663,0.566305 0.2658821,0.338428 0.7081611,0.594764 1.1395552,0.661157 0.1337313,0.02058 0.5061575,-0.0074 0.6653191,-0.04998 0.48862,-0.13065 0.9025693,-0.485795 1.1460325,-0.983637 0.09626,-0.196851 0.130573,-0.238593 0.311375,-0.377076 C 10.883692,10.649809 11.28581,10.07641 11.502151,9.4222158 11.91524,8.1730914 11.603061,6.7784406 10.704509,5.857819 10.081338,5.219339 9.2823767,4.8963562 8.4818432,4.890374 Z M 10.537947,8.29331 c 0.128588,-0.00545 0.252659,4.631e-4 0.339137,0.018967 0.07821,0.016698 0.08258,0.025016 0.105027,0.207276 0.03,0.2435474 -0.01214,0.6008902 -0.101323,0.8573273 -0.210882,0.6063887 -0.733502,1.0707287 -1.3324907,1.1839727 -0.3123724,0.05906 -0.654851,0.04082 -0.6944669,-0.03655 -0.042535,-0.08307 -0.057824,-0.379597 -0.030537,-0.5954508 0.099475,-0.7868737 0.6212867,-1.4008025 1.3491446,-1.5869575 0.103622,-0.0265 0.236922,-0.043142 0.365509,-0.048582 z M 6.4322162,8.29472 C 6.8625474,8.310049 7.210181,8.4707938 7.5472506,8.8045798 7.7371592,8.9926382 7.8026843,9.0802226 7.89379,9.2677125 c 0.1789206,0.3682027 0.243783,0.7012449 0.2091269,1.0710805 -0.014351,0.153084 -0.030092,0.207846 -0.064312,0.221156 -0.02502,0.0097 -0.1494755,0.02248 -0.2766764,0.02822 -0.840344,0.03792 -1.5927451,-0.560272 -1.7835917,-1.4180888 -0.043729,-0.1965549 -0.049827,-0.7993435 -0.00833,-0.8406713 0.00985,-0.00981 0.1327112,-0.024536 0.2725127,-0.032386 0.065063,-0.00365 0.1282187,-0.00449 0.1896947,-0.00231 z" />
  <ellipse
     style="fill:none;stroke:#000000;stroke-width:0.582072;stroke-dasharray:none;stroke-opacity:1;filter:url(#filter3-8)"
     id="path1-5-7"
     cx="8.4450111"
     cy="8.423522"
     rx="6.8752708"
     ry="6.8578653"
     transform="matrix(0.4782969,0,0,0.4782969,8.9000071,8.8280171)" />
  <ellipse
     style="fill:#2b323e;fill-opacity:1;stroke:#8aadf4;stroke-width:0.278402;stroke-dasharray:none;stroke-opacity:1"
     id="path1-59"
     cx="12.939234"
     cy="12.856965"
     rx="3.2884204"
     ry="3.2800953" />
  <ellipse
     style="fill:url(#linearGradient11);stroke:none;stroke-width:0.246622;stroke-dasharray:none;stroke-opacity:1"
     id="path1-2-2"
     cx="12.939234"
     cy="12.856965"
     rx="2.9130225"
     ry="2.9056478" />
  <path
     id="path1-36-3"
     style="fill:#000000;fill-opacity:1;stroke:none;stroke-width:0.124104;stroke-dasharray:none;stroke-dashoffset:2.2;stroke-opacity:0.3;opacity:0.3"
     d="m 14.021099,11.736685 c -0.06523,-2.7e-5 -0.135047,0.02623 -0.222431,0.07744 -0.207942,0.121835 -0.479893,0.179294 -0.853351,0.179294 -0.373425,0 -0.654446,-0.05868 -0.861152,-0.179813 -0.165749,-0.09713 -0.264703,-0.09842 -0.403809,-0.0046 -0.357127,0.240662 -0.62628,1.012267 -0.705238,2.020557 -0.04735,0.604628 -0.0031,0.923391 0.153311,1.102784 0.07546,0.08649 0.260665,0.07183 0.427716,-0.0343 0.141607,-0.08996 0.310333,-0.288477 0.511911,-0.602326 0.182153,-0.283608 0.40248,-0.377017 0.889733,-0.377816 0.486283,-7.65e-4 0.677387,0.09125 0.901686,0.436021 0.376321,0.578447 0.72416,0.779828 0.928191,0.537359 0.113031,-0.134326 0.133719,-0.264107 0.128366,-0.804479 -0.0098,-0.981615 -0.266353,-1.87461 -0.636118,-2.215438 -0.09848,-0.09078 -0.174941,-0.134569 -0.258815,-0.134604 z m -2.112591,0.578416 h 0.225551 0.22555 v 0.193324 0.193326 h 0.19333 0.193331 v 0.241656 0.241656 h -0.193331 -0.19333 v 0.209435 0.209435 h -0.204243 c -0.112206,0 -0.213221,-0.01005 -0.225032,-0.02182 -0.0118,-0.01181 -0.02182,-0.105569 -0.02182,-0.208914 v -0.188138 h -0.193337 -0.193331 v -0.241656 -0.241656 h 0.193331 0.193332 v -0.193326 z m 1.83871,0 c 0.203478,0 0.290618,0.225442 0.14396,0.372098 -0.09327,0.09326 -0.178394,0.100588 -0.270247,0.02287 -0.159321,-0.134809 -0.07616,-0.394964 0.126287,-0.394964 z m -0.391336,0.413154 c 0.05081,3.5e-5 0.101967,0.02029 0.142399,0.06495 0.06302,0.06964 0.06984,0.229093 0.013,0.303499 -0.111241,0.145623 -0.378344,0.05196 -0.378344,-0.13252 0,-0.140009 0.111172,-0.236016 0.22295,-0.23594 z m 0.798786,0.0078 c 0.05856,0.0011 0.115418,0.02047 0.148634,0.05716 0.06302,0.06964 0.06983,0.229092 0.013,0.303499 -0.118321,0.154886 -0.378346,0.05122 -0.378346,-0.150713 0,-0.06121 0.02453,-0.127549 0.05873,-0.158506 0.03909,-0.03538 0.09943,-0.05251 0.15799,-0.05145 z m -0.393417,0.416788 c 0.180393,0 0.268168,0.19134 0.159029,0.347153 -0.0373,0.05326 -0.08282,0.07171 -0.176699,0.07171 -0.108097,0 -0.133181,-0.01407 -0.176699,-0.09823 -0.08582,-0.165932 0.0078,-0.320649 0.194369,-0.320649 z" />
  <path
     id="path1-36"
     style="fill:url(#linearGradient8255);fill-opacity:1;stroke:none;stroke-width:0.124104;stroke-dasharray:none;stroke-dashoffset:2.2;stroke-opacity:0.3"
     d="m 14.021099,11.207529 c -0.06523,-2.7e-5 -0.135047,0.02623 -0.222431,0.07744 -0.207942,0.121835 -0.479893,0.179294 -0.853351,0.179294 -0.373425,0 -0.654446,-0.05868 -0.861152,-0.179813 -0.165749,-0.09713 -0.264703,-0.09842 -0.403809,-0.0046 -0.357127,0.240662 -0.62628,1.012267 -0.705238,2.020557 -0.04735,0.604628 -0.0031,0.923391 0.153311,1.102784 0.07546,0.08649 0.260665,0.07183 0.427716,-0.0343 0.141607,-0.08996 0.310333,-0.288477 0.511911,-0.602326 0.182153,-0.283608 0.40248,-0.377017 0.889733,-0.377816 0.486283,-7.65e-4 0.677387,0.09125 0.901686,0.436021 0.376321,0.578447 0.72416,0.779828 0.928191,0.537359 0.113031,-0.134326 0.133719,-0.264107 0.128366,-0.804479 -0.0098,-0.981615 -0.266353,-1.87461 -0.636118,-2.215438 -0.09848,-0.09078 -0.174941,-0.134569 -0.258815,-0.134604 z m -2.112591,0.578416 h 0.225551 0.22555 v 0.193324 0.193326 h 0.19333 0.193331 v 0.241656 0.241656 h -0.193331 -0.19333 v 0.209435 0.209435 h -0.204243 c -0.112206,0 -0.213221,-0.01005 -0.225032,-0.02182 -0.0118,-0.01181 -0.02182,-0.105569 -0.02182,-0.208914 v -0.188138 h -0.193337 -0.193331 v -0.241656 -0.241656 h 0.193331 0.193332 v -0.193326 z m 1.83871,0 c 0.203478,0 0.290618,0.225442 0.14396,0.372098 -0.09327,0.09326 -0.178394,0.100588 -0.270247,0.02287 -0.159321,-0.134809 -0.07616,-0.394964 0.126287,-0.394964 z m -0.391336,0.413154 c 0.05081,3.5e-5 0.101967,0.02029 0.142399,0.06495 0.06302,0.06964 0.06984,0.229093 0.013,0.303499 -0.111241,0.145623 -0.378344,0.05196 -0.378344,-0.13252 0,-0.140009 0.111172,-0.236016 0.22295,-0.23594 z m 0.798786,0.0078 c 0.05856,0.0011 0.115418,0.02047 0.148634,0.05716 0.06302,0.06964 0.06983,0.229092 0.013,0.303499 -0.118321,0.154886 -0.378346,0.05122 -0.378346,-0.150713 0,-0.06121 0.02453,-0.127549 0.05873,-0.158506 0.03909,-0.03538 0.09943,-0.05251 0.15799,-0.05145 z m -0.393417,0.416788 c 0.180393,0 0.268168,0.19134 0.159029,0.347153 -0.0373,0.05326 -0.08282,0.07171 -0.176699,0.07171 -0.108097,0 -0.133181,-0.01407 -0.176699,-0.09823 -0.08582,-0.165932 0.0078,-0.320649 0.194369,-0.320649 z" />
</svg>
