<?xml version="1.0" encoding="UTF-8" standalone="no"?>
<svg
   width="64"
   height="64"
   version="1.1"
   viewBox="0 0 16.933 16.933"
   id="svg7"
   sodipodi:docname="steam_icon_1604030.svg"
   inkscape:version="1.4 (e7c3feb100, 2024-10-09)"
   xmlns:inkscape="http://www.inkscape.org/namespaces/inkscape"
   xmlns:sodipodi="http://sodipodi.sourceforge.net/DTD/sodipodi-0.dtd"
   xmlns:xlink="http://www.w3.org/1999/xlink"
   xmlns="http://www.w3.org/2000/svg"
   xmlns:svg="http://www.w3.org/2000/svg"
   xmlns:rdf="http://www.w3.org/1999/02/22-rdf-syntax-ns#"
   xmlns:cc="http://creativecommons.org/ns#"
   xmlns:dc="http://purl.org/dc/elements/1.1/">
  <sodipodi:namedview
     id="namedview7"
     pagecolor="#9c4444"
     bordercolor="#000000"
     borderopacity="0.25"
     inkscape:showpageshadow="2"
     inkscape:pageopacity="0.0"
     inkscape:pagecheckerboard="0"
     inkscape:deskcolor="#d1d1d1"
     inkscape:zoom="4.3531261"
     inkscape:cx="36.066035"
     inkscape:cy="25.958357"
     inkscape:window-width="1280"
     inkscape:window-height="669"
     inkscape:window-x="74"
     inkscape:window-y="150"
     inkscape:window-maximized="0"
     inkscape:current-layer="svg7"
     showgrid="false" />
  <defs
     id="defs2">
    <linearGradient
       id="linearGradient1"
       inkscape:collect="always">
      <stop
         style="stop-color:#d8dee9;stop-opacity:1;"
         offset="0"
         id="stop1" />
      <stop
         style="stop-color:#eceff4;stop-opacity:1;"
         offset="1"
         id="stop2" />
    </linearGradient>
    <linearGradient
       inkscape:collect="always"
       id="linearGradient1134">
      <stop
         style="stop-color:#2e3440;stop-opacity:1;"
         offset="0"
         id="stop1130" />
      <stop
         style="stop-color:#4c566a;stop-opacity:1;"
         offset="1"
         id="stop1132" />
    </linearGradient>
    <filter
       style="color-interpolation-filters:sRGB;"
       inkscape:label="Blur"
       id="filter3"
       x="-0.10843471"
       y="-0.10870992"
       width="1.2168694"
       height="1.2174198">
      <feGaussianBlur
         stdDeviation="0.5 0.5"
         result="blur"
         id="feGaussianBlur3" />
    </filter>
    <linearGradient
       inkscape:collect="always"
       xlink:href="#linearGradient1134"
       id="linearGradient4"
       x1="14.388208"
       y1="14.440324"
       x2="2.2869277"
       y2="2.3637428"
       gradientUnits="userSpaceOnUse" />
    <filter
       style="color-interpolation-filters:sRGB"
       inkscape:label="Blur"
       id="filter3-8"
       x="-0.10843471"
       y="-0.10870992"
       width="1.2168694"
       height="1.2174198">
      <feGaussianBlur
         stdDeviation="0.5 0.5"
         result="blur"
         id="feGaussianBlur3-7" />
    </filter>
    <linearGradient
       inkscape:collect="always"
       xlink:href="#linearGradient1134"
       id="linearGradient11"
       gradientUnits="userSpaceOnUse"
       x1="14.388208"
       y1="14.440324"
       x2="2.2869277"
       y2="2.3637428"
       gradientTransform="matrix(0.4782969,0,0,0.4782969,8.9000071,8.8280171)" />
    <linearGradient
       inkscape:collect="always"
       xlink:href="#linearGradient1"
       id="linearGradient8255"
       x1="12.778065"
       y1="11.921236"
       x2="4.179378"
       y2="5.0497904"
       gradientUnits="userSpaceOnUse"
       gradientTransform="matrix(0.4304785,0,0,0.43046721,9.2824147,9.1519912)" />
    <linearGradient
       inkscape:collect="always"
       xlink:href="#linearGradient1"
       id="linearGradient34"
       x1="10.497728"
       y1="11.97291"
       x2="6.5462403"
       y2="4.8617806"
       gradientUnits="userSpaceOnUse" />
  </defs>
  <metadata
     id="metadata2">
    <rdf:RDF>
      <cc:Work
         rdf:about="">
        <dc:format>image/svg+xml</dc:format>
        <dc:type
           rdf:resource="http://purl.org/dc/dcmitype/StillImage" />
      </cc:Work>
    </rdf:RDF>
  </metadata>
  <ellipse
     style="opacity:1;fill:none;stroke:#000000;stroke-width:0.582072;stroke-dasharray:none;stroke-opacity:1;filter:url(#filter3)"
     id="path1-5"
     cx="8.4450111"
     cy="8.423522"
     rx="6.8752708"
     ry="6.8578653" />
  <ellipse
     style="opacity:1;fill:#2b323e;stroke-width:0.58207188;stroke-opacity:1;stroke:#8aadf4;stroke-dasharray:none;fill-opacity:1"
     id="path1"
     cx="8.4450111"
     cy="8.423522"
     rx="6.8752708"
     ry="6.8578653" />
  <ellipse
     style="fill:url(#linearGradient4);stroke:none;stroke-width:0.515624;stroke-dasharray:none;stroke-opacity:1"
     id="path1-2"
     cx="8.4450111"
     cy="8.423522"
     rx="6.0904069"
     ry="6.0749874" />
  <path
     style="fill:#000000;stroke:none;stroke-width:0.0964386;stroke-dasharray:none;stroke-opacity:0.6;opacity:0.3"
     d="M 8.169609,12.385284 C 7.7330309,11.844097 7.3625173,11.265918 7.0630176,10.658466 L 6.7991551,10.123296 6.8121061,9.2456161 C 6.8244208,8.4109789 6.7503117,7.4500495 6.6090385,6.6125774 6.589177,6.4948399 6.5803617,6.3905998 6.5894488,6.3809324 c 0.00908,-0.00966 0.055172,0.017402 0.1024109,0.060152 0.04724,0.042752 0.085849,0.069926 0.085801,0.06039 C 6.7776125,6.4919394 6.6812576,6.225671 6.5635419,5.9097694 6.4458264,5.5938678 6.3566412,5.3282751 6.3653524,5.3195635 c 0.00871,-0.00871 0.1719239,0.09168 0.3626943,0.2230922 0.2178164,0.1500424 0.3887355,0.3059029 0.4594289,0.4189512 0.061915,0.099011 0.1016245,0.1463047 0.088242,0.1050966 C 7.2364466,5.945773 7.3393226,5.9772775 7.665823,6.1861706 7.9687937,6.380009 7.969486,6.3808919 7.909138,6.4965697 7.860169,6.5904357 7.848612,6.9149248 7.848592,8.196682 7.8485761,9.2078356 7.865464,9.8427274 7.895281,9.9520415 7.964998,10.20762 8.2591375,10.791217 8.3883471,10.93032 L 8.501676,11.052328 8.601261,10.93032 C 8.7181452,10.787121 9.0200373,10.189013 9.0842384,9.9734482 9.1556592,9.7336379 9.181256,8.5775056 9.1387394,7.5116638 9.1171332,6.9700712 9.0924436,6.4886623 9.0838692,6.4418665 9.0720448,6.3773208 9.1348416,6.3120411 9.3440337,6.1714241 9.4956982,6.0694764 9.651968,5.9944806 9.6913012,6.0047662 c 0.045527,0.011903 0.098206,-0.026485 0.1449532,-0.105621 0.063917,-0.1082103 0.7466486,-0.6119163 0.7817796,-0.5767854 0.0071,0.00717 -0.08327,0.271508 -0.200985,0.5874096 -0.117715,0.3159016 -0.214068,0.5821697 -0.214117,0.5917059 -4.4e-5,0.00954 0.03855,-0.017638 0.0858,-0.06039 0.04723,-0.042751 0.09506,-0.068559 0.106264,-0.057353 0.01121,0.011209 -0.0072,0.1828794 -0.04099,0.3814925 -0.142963,0.8413683 -0.202137,1.7087369 -0.171154,2.5088072 l 0.0301,0.777657 -0.2215894,0.463938 C 9.6923116,11.14178 9.318199,11.74235 8.882279,12.296086 8.6830023,12.549223 8.5084656,12.756321 8.4944187,12.756303 8.4803731,12.756285 8.3342049,12.589325 8.1696016,12.385282 Z M 9.7318899,6.0988135 c 0,-0.011775 -0.00962,-0.021407 -0.021404,-0.021407 -0.011766,0 -0.021404,0.00963 -0.021404,0.021407 0,0.011775 0.00962,0.021407 0.021404,0.021407 0.011766,0 0.021404,-0.00963 0.021404,-0.021407 z"
     id="path1-5-3-0" />
  <path
     style="opacity:1;fill:url(#linearGradient34);stroke:none;stroke-width:0.0964386;stroke-dasharray:none;stroke-opacity:0.6"
     d="M 8.169609,11.856128 C 7.7330309,11.314941 7.3625173,10.736762 7.0630176,10.12931 L 6.7991551,9.5941395 6.8121061,8.7164599 C 6.8244208,7.8818227 6.7503117,6.9208933 6.6090385,6.0834212 6.589177,5.9656837 6.5803617,5.8614436 6.5894488,5.8517762 c 0.00908,-0.00966 0.055172,0.017402 0.1024109,0.060152 0.04724,0.042752 0.085849,0.069926 0.085801,0.06039 C 6.7776125,5.9627832 6.6812576,5.6965148 6.5635419,5.3806132 6.4458264,5.0647116 6.3566412,4.7991189 6.3653524,4.7904073 c 0.00871,-0.00871 0.1719239,0.09168 0.3626943,0.2230922 0.2178164,0.1500424 0.3887355,0.3059029 0.4594289,0.4189512 0.061915,0.099011 0.1016245,0.1463047 0.088242,0.1050966 C 7.2364466,5.4166168 7.3393226,5.4481213 7.665823,5.6570144 7.9687937,5.8508528 7.969486,5.8517357 7.909138,5.9674135 7.860169,6.0612795 7.848612,6.3857686 7.848592,7.6675258 7.8485761,8.6786794 7.865464,9.3135712 7.895281,9.4228853 7.964998,9.6784636 8.2591375,10.262061 8.3883471,10.401164 L 8.501676,10.523172 8.601261,10.401164 C 8.7181452,10.257965 9.0200373,9.6598572 9.0842384,9.444292 9.1556592,9.2044817 9.181256,8.0483494 9.1387394,6.9825076 9.1171332,6.440915 9.0924436,5.9595061 9.0838692,5.9127103 9.0720448,5.8481646 9.1348416,5.7828849 9.3440337,5.6422679 9.4956982,5.5403202 9.651968,5.4653244 9.6913012,5.47561 9.736828,5.4875129 9.7895068,5.4491246 9.8362544,5.369989 9.9001716,5.2617787 10.582903,4.7580727 10.618034,4.7932036 c 0.0071,0.00717 -0.08327,0.271508 -0.200985,0.5874096 -0.117715,0.3159016 -0.214068,0.5821697 -0.214117,0.5917059 -4.4e-5,0.00954 0.03855,-0.017638 0.0858,-0.06039 0.04723,-0.042751 0.09506,-0.068559 0.106264,-0.057353 0.01121,0.011209 -0.0072,0.1828794 -0.04099,0.3814925 -0.142963,0.8413683 -0.202137,1.7087369 -0.171154,2.5088072 l 0.0301,0.7776569 L 9.9913626,9.986471 C 9.6923116,10.612624 9.318199,11.213194 8.882279,11.76693 8.6830023,12.020067 8.5084656,12.227165 8.4944187,12.227147 8.4803731,12.227129 8.3342049,12.060169 8.1696016,11.856126 Z M 9.7318899,5.5696573 c 0,-0.011775 -0.00962,-0.021407 -0.021404,-0.021407 -0.011766,0 -0.021404,0.00963 -0.021404,0.021407 0,0.011775 0.00962,0.021407 0.021404,0.021407 0.011766,0 0.021404,-0.00963 0.021404,-0.021407 z"
     id="path1-5-3" />
  <ellipse
     style="fill:none;stroke:#000000;stroke-width:0.582072;stroke-dasharray:none;stroke-opacity:1;filter:url(#filter3-8)"
     id="path1-5-7"
     cx="8.4450111"
     cy="8.423522"
     rx="6.8752708"
     ry="6.8578653"
     transform="matrix(0.4782969,0,0,0.4782969,8.9000071,8.8280171)" />
  <ellipse
     style="fill:#2b323e;fill-opacity:1;stroke:#8aadf4;stroke-width:0.278402;stroke-dasharray:none;stroke-opacity:1"
     id="path1-59"
     cx="12.939234"
     cy="12.856965"
     rx="3.2884204"
     ry="3.2800953" />
  <ellipse
     style="fill:url(#linearGradient11);stroke:none;stroke-width:0.246622;stroke-dasharray:none;stroke-opacity:1"
     id="path1-2-2"
     cx="12.939234"
     cy="12.856965"
     rx="2.9130225"
     ry="2.9056478" />
  <path
     id="path1-36-3"
     style="fill:#000000;fill-opacity:1;stroke:none;stroke-width:0.124104;stroke-dasharray:none;stroke-dashoffset:2.2;stroke-opacity:0.3;opacity:0.3"
     d="m 14.021099,11.736685 c -0.06523,-2.7e-5 -0.135047,0.02623 -0.222431,0.07744 -0.207942,0.121835 -0.479893,0.179294 -0.853351,0.179294 -0.373425,0 -0.654446,-0.05868 -0.861152,-0.179813 -0.165749,-0.09713 -0.264703,-0.09842 -0.403809,-0.0046 -0.357127,0.240662 -0.62628,1.012267 -0.705238,2.020557 -0.04735,0.604628 -0.0031,0.923391 0.153311,1.102784 0.07546,0.08649 0.260665,0.07183 0.427716,-0.0343 0.141607,-0.08996 0.310333,-0.288477 0.511911,-0.602326 0.182153,-0.283608 0.40248,-0.377017 0.889733,-0.377816 0.486283,-7.65e-4 0.677387,0.09125 0.901686,0.436021 0.376321,0.578447 0.72416,0.779828 0.928191,0.537359 0.113031,-0.134326 0.133719,-0.264107 0.128366,-0.804479 -0.0098,-0.981615 -0.266353,-1.87461 -0.636118,-2.215438 -0.09848,-0.09078 -0.174941,-0.134569 -0.258815,-0.134604 z m -2.112591,0.578416 h 0.225551 0.22555 v 0.193324 0.193326 h 0.19333 0.193331 v 0.241656 0.241656 h -0.193331 -0.19333 v 0.209435 0.209435 h -0.204243 c -0.112206,0 -0.213221,-0.01005 -0.225032,-0.02182 -0.0118,-0.01181 -0.02182,-0.105569 -0.02182,-0.208914 v -0.188138 h -0.193337 -0.193331 v -0.241656 -0.241656 h 0.193331 0.193332 v -0.193326 z m 1.83871,0 c 0.203478,0 0.290618,0.225442 0.14396,0.372098 -0.09327,0.09326 -0.178394,0.100588 -0.270247,0.02287 -0.159321,-0.134809 -0.07616,-0.394964 0.126287,-0.394964 z m -0.391336,0.413154 c 0.05081,3.5e-5 0.101967,0.02029 0.142399,0.06495 0.06302,0.06964 0.06984,0.229093 0.013,0.303499 -0.111241,0.145623 -0.378344,0.05196 -0.378344,-0.13252 0,-0.140009 0.111172,-0.236016 0.22295,-0.23594 z m 0.798786,0.0078 c 0.05856,0.0011 0.115418,0.02047 0.148634,0.05716 0.06302,0.06964 0.06983,0.229092 0.013,0.303499 -0.118321,0.154886 -0.378346,0.05122 -0.378346,-0.150713 0,-0.06121 0.02453,-0.127549 0.05873,-0.158506 0.03909,-0.03538 0.09943,-0.05251 0.15799,-0.05145 z m -0.393417,0.416788 c 0.180393,0 0.268168,0.19134 0.159029,0.347153 -0.0373,0.05326 -0.08282,0.07171 -0.176699,0.07171 -0.108097,0 -0.133181,-0.01407 -0.176699,-0.09823 -0.08582,-0.165932 0.0078,-0.320649 0.194369,-0.320649 z" />
  <path
     id="path1-36"
     style="fill:url(#linearGradient8255);fill-opacity:1;stroke:none;stroke-width:0.124104;stroke-dasharray:none;stroke-dashoffset:2.2;stroke-opacity:0.3"
     d="m 14.021099,11.207529 c -0.06523,-2.7e-5 -0.135047,0.02623 -0.222431,0.07744 -0.207942,0.121835 -0.479893,0.179294 -0.853351,0.179294 -0.373425,0 -0.654446,-0.05868 -0.861152,-0.179813 -0.165749,-0.09713 -0.264703,-0.09842 -0.403809,-0.0046 -0.357127,0.240662 -0.62628,1.012267 -0.705238,2.020557 -0.04735,0.604628 -0.0031,0.923391 0.153311,1.102784 0.07546,0.08649 0.260665,0.07183 0.427716,-0.0343 0.141607,-0.08996 0.310333,-0.288477 0.511911,-0.602326 0.182153,-0.283608 0.40248,-0.377017 0.889733,-0.377816 0.486283,-7.65e-4 0.677387,0.09125 0.901686,0.436021 0.376321,0.578447 0.72416,0.779828 0.928191,0.537359 0.113031,-0.134326 0.133719,-0.264107 0.128366,-0.804479 -0.0098,-0.981615 -0.266353,-1.87461 -0.636118,-2.215438 -0.09848,-0.09078 -0.174941,-0.134569 -0.258815,-0.134604 z m -2.112591,0.578416 h 0.225551 0.22555 v 0.193324 0.193326 h 0.19333 0.193331 v 0.241656 0.241656 h -0.193331 -0.19333 v 0.209435 0.209435 h -0.204243 c -0.112206,0 -0.213221,-0.01005 -0.225032,-0.02182 -0.0118,-0.01181 -0.02182,-0.105569 -0.02182,-0.208914 v -0.188138 h -0.193337 -0.193331 v -0.241656 -0.241656 h 0.193331 0.193332 v -0.193326 z m 1.83871,0 c 0.203478,0 0.290618,0.225442 0.14396,0.372098 -0.09327,0.09326 -0.178394,0.100588 -0.270247,0.02287 -0.159321,-0.134809 -0.07616,-0.394964 0.126287,-0.394964 z m -0.391336,0.413154 c 0.05081,3.5e-5 0.101967,0.02029 0.142399,0.06495 0.06302,0.06964 0.06984,0.229093 0.013,0.303499 -0.111241,0.145623 -0.378344,0.05196 -0.378344,-0.13252 0,-0.140009 0.111172,-0.236016 0.22295,-0.23594 z m 0.798786,0.0078 c 0.05856,0.0011 0.115418,0.02047 0.148634,0.05716 0.06302,0.06964 0.06983,0.229092 0.013,0.303499 -0.118321,0.154886 -0.378346,0.05122 -0.378346,-0.150713 0,-0.06121 0.02453,-0.127549 0.05873,-0.158506 0.03909,-0.03538 0.09943,-0.05251 0.15799,-0.05145 z m -0.393417,0.416788 c 0.180393,0 0.268168,0.19134 0.159029,0.347153 -0.0373,0.05326 -0.08282,0.07171 -0.176699,0.07171 -0.108097,0 -0.133181,-0.01407 -0.176699,-0.09823 -0.08582,-0.165932 0.0078,-0.320649 0.194369,-0.320649 z" />
</svg>
