<?xml version="1.0" encoding="UTF-8" standalone="no"?>
<svg
   width="64"
   height="64"
   version="1.1"
   viewBox="0 0 16.933 16.933"
   id="svg7"
   sodipodi:docname="steam_icon_1882280.svg"
   inkscape:version="1.4 (e7c3feb100, 2024-10-09)"
   xmlns:inkscape="http://www.inkscape.org/namespaces/inkscape"
   xmlns:sodipodi="http://sodipodi.sourceforge.net/DTD/sodipodi-0.dtd"
   xmlns:xlink="http://www.w3.org/1999/xlink"
   xmlns="http://www.w3.org/2000/svg"
   xmlns:svg="http://www.w3.org/2000/svg"
   xmlns:rdf="http://www.w3.org/1999/02/22-rdf-syntax-ns#"
   xmlns:cc="http://creativecommons.org/ns#"
   xmlns:dc="http://purl.org/dc/elements/1.1/">
  <sodipodi:namedview
     id="namedview7"
     pagecolor="#9c4444"
     bordercolor="#000000"
     borderopacity="0.25"
     inkscape:showpageshadow="2"
     inkscape:pageopacity="0.0"
     inkscape:pagecheckerboard="0"
     inkscape:deskcolor="#d1d1d1"
     inkscape:zoom="4.3531261"
     inkscape:cx="36.295755"
     inkscape:cy="25.958357"
     inkscape:window-width="1280"
     inkscape:window-height="669"
     inkscape:window-x="0"
     inkscape:window-y="104"
     inkscape:window-maximized="0"
     inkscape:current-layer="svg7"
     showgrid="false" />
  <defs
     id="defs2">
    <linearGradient
       id="linearGradient1"
       inkscape:collect="always">
      <stop
         style="stop-color:#d8dee9;stop-opacity:1;"
         offset="0"
         id="stop1" />
      <stop
         style="stop-color:#eceff4;stop-opacity:1;"
         offset="1"
         id="stop2" />
    </linearGradient>
    <linearGradient
       inkscape:collect="always"
       id="linearGradient1134">
      <stop
         style="stop-color:#2e3440;stop-opacity:1;"
         offset="0"
         id="stop1130" />
      <stop
         style="stop-color:#4c566a;stop-opacity:1;"
         offset="1"
         id="stop1132" />
    </linearGradient>
    <filter
       style="color-interpolation-filters:sRGB;"
       inkscape:label="Blur"
       id="filter3"
       x="-0.10843471"
       y="-0.10870992"
       width="1.2168694"
       height="1.2174198">
      <feGaussianBlur
         stdDeviation="0.5 0.5"
         result="blur"
         id="feGaussianBlur3" />
    </filter>
    <linearGradient
       inkscape:collect="always"
       xlink:href="#linearGradient1134"
       id="linearGradient4"
       x1="14.388208"
       y1="14.440324"
       x2="2.2869277"
       y2="2.3637428"
       gradientUnits="userSpaceOnUse" />
    <filter
       style="color-interpolation-filters:sRGB"
       inkscape:label="Blur"
       id="filter3-8"
       x="-0.10843471"
       y="-0.10870992"
       width="1.2168694"
       height="1.2174198">
      <feGaussianBlur
         stdDeviation="0.5 0.5"
         result="blur"
         id="feGaussianBlur3-7" />
    </filter>
    <linearGradient
       inkscape:collect="always"
       xlink:href="#linearGradient1134"
       id="linearGradient11"
       gradientUnits="userSpaceOnUse"
       x1="14.388208"
       y1="14.440324"
       x2="2.2869277"
       y2="2.3637428"
       gradientTransform="matrix(0.4782969,0,0,0.4782969,8.9000071,8.8280171)" />
    <linearGradient
       inkscape:collect="always"
       xlink:href="#linearGradient1"
       id="linearGradient8255"
       x1="12.778065"
       y1="11.921236"
       x2="4.179378"
       y2="5.0497904"
       gradientUnits="userSpaceOnUse"
       gradientTransform="matrix(0.4304785,0,0,0.43046721,9.2824147,9.1519912)" />
    <linearGradient
       inkscape:collect="always"
       xlink:href="#linearGradient1"
       id="linearGradient12"
       x1="12.712615"
       y1="12.260424"
       x2="4.621943"
       y2="4.7238426"
       gradientUnits="userSpaceOnUse" />
  </defs>
  <metadata
     id="metadata2">
    <rdf:RDF>
      <cc:Work
         rdf:about="">
        <dc:format>image/svg+xml</dc:format>
        <dc:type
           rdf:resource="http://purl.org/dc/dcmitype/StillImage" />
      </cc:Work>
    </rdf:RDF>
  </metadata>
  <ellipse
     style="opacity:1;fill:none;stroke:#000000;stroke-width:0.582072;stroke-dasharray:none;stroke-opacity:1;filter:url(#filter3)"
     id="path1-5"
     cx="8.4450111"
     cy="8.423522"
     rx="6.8752708"
     ry="6.8578653" />
  <ellipse
     style="opacity:1;fill:#2b323e;stroke-width:0.58207188;stroke-opacity:1;stroke:#8aadf4;stroke-dasharray:none;fill-opacity:1"
     id="path1"
     cx="8.4450111"
     cy="8.423522"
     rx="6.8752708"
     ry="6.8578653" />
  <ellipse
     style="fill:url(#linearGradient4);stroke:none;stroke-width:0.515624;stroke-dasharray:none;stroke-opacity:1"
     id="path1-2"
     cx="8.4450111"
     cy="8.423522"
     rx="6.0904069"
     ry="6.0749874" />
  <path
     style="fill:#000000;stroke:none;stroke-width:0.0964386;stroke-dasharray:none;stroke-opacity:0.6;opacity:0.3"
     d="m 8.7669529,12.75829 c 0.033207,-0.0049 0.060378,-0.01553 0.060378,-0.02372 0,-0.0082 -0.077331,-0.05249 -0.1718435,-0.09846 -0.308844,-0.150218 -0.4655015,-0.292315 -0.5642899,-0.51184 -0.039879,-0.08861 -0.059483,-0.208468 -0.034098,-0.208468 0.00553,0 0.041046,0.01554 0.078955,0.03454 0.080226,0.04021 0.2029048,0.0608 0.2512061,0.04217 0.030638,-0.01183 0.028621,-0.01932 -0.022505,-0.08366 -0.096108,-0.120936 -0.1319077,-0.247299 -0.1319077,-0.465595 0,-0.191076 6.174e-4,-0.193701 0.083822,-0.359926 0.1784353,-0.356428 0.5226848,-0.632158 0.9193695,-0.736364 0.1531378,-0.04022 0.5853537,-0.05755 0.8081286,-0.03238 0.09196,0.01038 0.170646,0.01548 0.174862,0.01129 C 10.269911,10.275447 9.8577339,9.8489249 9.5704304,9.654719 9.4683539,9.5857178 8.9935067,9.3469187 8.8960343,9.3155659 8.857189,9.3030699 8.8282289,9.2831891 8.8316774,9.2713838 8.8447043,9.2268014 9.0842374,9.1280306 9.2917715,9.0816653 9.4092753,9.0554136 9.5121136,9.0273447 9.5203013,9.0192899 9.5458541,8.9941534 9.3148542,8.8670536 9.0876605,8.781244 8.9462777,8.7278441 8.4436946,8.6091199 8.3572755,8.6087063 8.2898535,8.608386 8.2358297,8.5812553 8.2581155,8.5589123 c 0.0082,-0.00822 0.1660569,-0.017729 0.3507975,-0.021137 0.251699,-0.00465 0.3828698,0.00162 0.5233089,0.02497 0.335557,0.055794 0.6908274,0.1896162 0.9501441,0.3578986 0.117386,0.076176 0.361221,0.2936148 0.361221,0.3221164 0,0.00904 -0.02774,0.016448 -0.0616,0.016448 -0.1225,0 -0.4408178,0.072957 -0.4822898,0.1105374 -0.00792,0.00718 0.084015,0.048984 0.2043528,0.092863 0.427974,0.1560589 0.751514,0.3468009 1.101229,0.6492303 l 0.195065,0.168688 0.01246,-0.296352 c 0.01982,-0.4708166 0.05149,-0.5739776 0.227055,-0.740033 0.158612,-0.1500089 0.265102,-0.1906442 0.557137,-0.2125969 0.134023,-0.010073 0.252039,-0.026337 0.262256,-0.03614 0.02769,-0.026549 -0.127131,-0.1559317 -0.427276,-0.3570989 -0.24789,-0.1661436 -0.341725,-0.2222574 -0.724527,-0.4332664 -0.218054,-0.1201965 -0.25649,-0.1730886 -0.247347,-0.340389 0.01264,-0.2314833 0.16461,-0.4617531 0.417206,-0.6322035 0.07517,-0.050723 0.136671,-0.099424 0.136671,-0.1082223 0,-0.031169 -0.105633,-0.042138 -0.389599,-0.04045 -0.308652,0.00184 -0.369406,0.00803 -0.507976,0.051728 -0.0492,0.015517 -0.09384,0.023818 -0.09921,0.018447 -0.0054,-0.00537 0.02005,-0.075816 0.05651,-0.1565444 0.07547,-0.1671181 0.111845,-0.3218485 0.144272,-0.6134601 0.01478,-0.1328629 0.01659,-0.2243844 0.0052,-0.2638591 l -0.01738,-0.060438 -0.123942,0.15642 C 10.524092,6.4151966 10.249422,6.6776187 10.071187,6.7995247 9.9949983,6.8516336 9.7747536,6.9799221 9.5817525,7.0846096 9.0261366,7.3860058 8.81439,7.5318156 8.4952148,7.83283 8.3642986,7.9562975 8.2959528,8.0093797 8.29218,7.9905216 8.2840965,7.9501044 8.4181099,7.6911993 8.5154874,7.5591098 8.6222985,7.4142247 8.8855481,7.1387026 9.0300095,7.0206005 9.1718049,6.9046783 9.2086925,6.8290099 9.2373434,6.5952929 9.2811789,6.2377085 9.2315683,5.8638695 9.0874539,5.4658888 9.0123559,5.2584967 8.9828256,5.230658 8.9667203,5.352073 8.9150531,5.7415846 8.8419398,5.923861 8.6167161,6.2246549 8.4809085,6.4060303 8.2857078,6.5989528 7.5170481,7.311488 7.0604038,7.7347897 6.7025545,8.1230136 6.4987682,8.4162005 6.4410819,8.4991934 6.3798833,8.578613 6.362771,8.5926882 6.3344305,8.6159978 6.3327862,8.6125864 6.344314,8.5544134 6.3641413,8.4543575 6.5280139,8.1285614 6.6223995,8.0015531 6.7668713,7.8071461 6.9577776,7.5998809 7.5000174,7.0487305 8.0165241,6.5237362 8.1139721,6.4107541 8.1555887,6.2886551 8.1849913,6.202392 8.182113,5.9511544 8.1499786,5.7995522 8.0999438,5.5634567 8.0099062,5.4270288 8.0099062,5.5873114 c 0,0.091538 -0.1060173,0.4107607 -0.1952138,0.5877975 C 7.7708851,6.2620738 7.6813548,6.3959267 7.6157449,6.4725597 7.4944368,6.6142484 7.041361,7.0529308 6.3589461,7.6894322 5.9407239,8.079516 5.7894018,8.2604367 5.6584964,8.5268888 5.5515666,8.7445402 5.5212331,8.8922626 5.5208306,9.1973117 c -1.774e-4,0.1345489 -0.00539,0.257858 -0.011598,0.2740203 -0.00633,0.01651 -0.032792,0.029416 -0.060377,0.029455 -0.1241632,1.76e-4 -0.2618991,0.1573128 -0.2771672,0.3162077 -0.00667,0.06934 -0.016413,0.092387 -0.039028,0.092253 C 5.0681805,9.9088593 4.8573263,9.7250559 4.7602049,9.584566 4.706915,9.5074813 4.6555458,9.4492139 4.646049,9.4550834 4.636559,9.4609534 4.628887,9.5634917 4.629026,9.6829467 4.6297005,10.283443 4.8592124,10.752794 5.316155,11.088127 l 0.1207546,0.08861 0.00992,-0.183151 c 0.011785,-0.21759 0.051311,-0.319945 0.1668654,-0.432085 0.1672483,-0.162308 0.4452512,-0.246905 0.7948681,-0.241875 0.1052652,0.0015 0.195751,-0.0016 0.2010795,-0.0069 0.00532,-0.0053 -0.00346,-0.03513 -0.019549,-0.06623 -0.036008,-0.06964 -0.037807,-0.206263 -0.00379,-0.2876826 0.057181,-0.1368542 0.2468488,-0.2454084 0.5318802,-0.304416 0.2087459,-0.043215 0.8058293,-0.042464 0.962892,0.00122 0.151828,0.042219 0.3189663,0.1162883 0.3189663,0.1413533 0,0.011974 -0.053228,0.019599 -0.1367968,0.019599 -0.1634727,0 -0.2825609,0.020808 -0.4258021,0.074402 -0.124116,0.046438 -0.1316466,0.072033 -0.050249,0.1707843 0.071541,0.08679 0.1441928,0.243498 0.1591586,0.343295 0.00917,0.06113 0.00144,0.100196 -0.035959,0.181902 -0.05429,0.118585 -0.119922,0.158498 -0.2606304,0.158498 -0.1422605,0 -0.1476867,0.0081 -0.082692,0.123252 0.049469,0.08766 0.056041,0.114986 0.048757,0.202814 -0.014468,0.174458 -0.1294647,0.260613 -0.3267281,0.244779 l -0.1194068,-0.0096 0.012606,0.06769 c 0.034368,0.184565 0.033123,0.214726 -0.011634,0.28134 -0.069986,0.104169 -0.1625252,0.139576 -0.3590149,0.137363 -0.1279628,-0.0014 -0.198806,-0.01299 -0.301887,-0.04918 -0.099777,-0.03504 -0.1346877,-0.04096 -0.1346877,-0.02284 0,0.04597 0.1823265,0.296804 0.3002282,0.413017 0.1606307,0.158326 0.2708862,0.235012 0.489322,0.340339 0.3463415,0.166997 0.8230764,0.273242 1.2818577,0.285672 0.1430482,0.0041 0.2872574,0.0031 0.3204647,-0.0019 z M 6.4081562,9.3030952 C 6.389692,9.2917316 6.4517244,9.1397677 6.5265358,9.013095 6.6943866,8.7288857 7.0229264,8.4385582 7.2250074,8.3958616 l 0.060378,-0.012758 V 8.487126 c 0,0.1734389 -0.1456582,0.4629923 -0.3377221,0.6713575 -0.09293,0.1008177 -0.1620701,0.1405728 -0.2753401,0.1583202 -0.078924,0.012365 -0.2349534,0.00427 -0.2641664,-0.013711 z"
     id="path2-3" />
  <path
     style="opacity:1;fill:url(#linearGradient12);stroke:none;stroke-width:0.0964386;stroke-dasharray:none;stroke-opacity:0.6"
     d="m 8.7669529,12.229134 c 0.033207,-0.0049 0.060378,-0.01553 0.060378,-0.02372 0,-0.0082 -0.077331,-0.05249 -0.1718435,-0.09846 -0.308844,-0.150218 -0.4655015,-0.292315 -0.5642899,-0.51184 -0.039879,-0.08861 -0.059483,-0.208468 -0.034098,-0.208468 0.00553,0 0.041046,0.01554 0.078955,0.03454 0.080226,0.04021 0.2029048,0.0608 0.2512061,0.04217 0.030638,-0.01183 0.028621,-0.01932 -0.022505,-0.08366 -0.096108,-0.120936 -0.1319077,-0.247299 -0.1319077,-0.465595 0,-0.191076 6.174e-4,-0.193701 0.083822,-0.359926 0.1784353,-0.356428 0.5226848,-0.6321579 0.9193695,-0.7363644 0.1531378,-0.040225 0.5853537,-0.057551 0.8081286,-0.032384 0.09196,0.010384 0.170646,0.015479 0.174862,0.011291 C 10.269911,9.7462906 9.8577339,9.3197687 9.5704304,9.1255628 9.4683539,9.0565616 8.9935067,8.8177625 8.8960343,8.7864097 8.857189,8.7739137 8.8282289,8.7540329 8.8316774,8.7422276 8.8447043,8.6976452 9.0842374,8.5988744 9.2917715,8.5525091 9.4092753,8.5262574 9.5121136,8.4981885 9.5203013,8.4901337 9.5458541,8.4649972 9.3148542,8.3378974 9.0876605,8.2520878 8.9462777,8.1986879 8.4436946,8.0799637 8.3572755,8.0795501 c -0.067422,-3.203e-4 -0.1214458,-0.027451 -0.09916,-0.049794 0.0082,-0.00822 0.1660569,-0.017729 0.3507975,-0.021137 0.251699,-0.00465 0.3828698,0.00162 0.5233089,0.02497 0.335557,0.055794 0.6908274,0.1896162 0.9501441,0.3578986 0.117386,0.076176 0.361221,0.2936148 0.361221,0.3221164 0,0.00904 -0.02774,0.016448 -0.0616,0.016448 -0.1225,0 -0.4408178,0.072957 -0.4822898,0.1105374 -0.00792,0.00718 0.084015,0.048984 0.2043528,0.092863 0.427974,0.1560588 0.751514,0.3468009 1.101229,0.6492305 l 0.195065,0.1686878 0.01246,-0.2963521 c 0.01982,-0.4708166 0.05149,-0.5739776 0.227055,-0.740033 0.158612,-0.1500089 0.265102,-0.1906442 0.557137,-0.2125969 0.134023,-0.010073 0.252039,-0.026337 0.262256,-0.03614 C 12.486942,8.4396998 12.332121,8.3103172 12.031976,8.10915 11.784086,7.9430064 11.690251,7.8868926 11.307449,7.6758836 11.089395,7.5556871 11.050959,7.502795 11.060102,7.3354946 c 0.01264,-0.2314833 0.16461,-0.4617531 0.417206,-0.6322035 0.07517,-0.050723 0.136671,-0.099424 0.136671,-0.1082223 0,-0.031169 -0.105633,-0.042138 -0.389599,-0.04045 -0.308652,0.00184 -0.369406,0.00803 -0.507976,0.051728 -0.0492,0.015517 -0.09384,0.023818 -0.09921,0.018447 -0.0054,-0.00537 0.02005,-0.075816 0.05651,-0.1565444 0.07547,-0.1671181 0.111845,-0.3218485 0.144272,-0.6134601 0.01478,-0.1328629 0.01659,-0.2243844 0.0052,-0.2638591 l -0.01738,-0.060438 -0.123942,0.15642 C 10.524092,5.8860404 10.249422,6.1484625 10.071187,6.2703685 9.9949983,6.3224774 9.7747536,6.4507659 9.5817525,6.5554534 9.0261366,6.8568496 8.81439,7.0026594 8.4952148,7.3036738 8.3642986,7.4271413 8.2959528,7.4802235 8.29218,7.4613654 8.2840965,7.4209482 8.4181099,7.1620431 8.5154874,7.0299536 8.6222985,6.8850685 8.8855481,6.6095464 9.0300095,6.4914443 9.1718049,6.3755221 9.2086925,6.2998537 9.2373434,6.0661367 9.2811789,5.7085523 9.2315683,5.3347133 9.0874539,4.9367326 9.0123559,4.7293405 8.9828256,4.7015018 8.9667203,4.8229168 8.9150531,5.2124284 8.8419398,5.3947048 8.6167161,5.6954987 8.4809085,5.8768741 8.2857078,6.0697966 7.5170481,6.7823318 7.0604038,7.2056335 6.7025545,7.5938574 6.4987682,7.8870443 6.4410819,7.9700372 6.3798833,8.0494568 6.362771,8.063532 6.3344305,8.0868416 6.3327862,8.0834302 6.344314,8.0252572 6.3641413,7.9252013 6.5280139,7.5994052 6.6223995,7.4723969 6.7668713,7.2779899 6.9577776,7.0707247 7.5000174,6.5195743 8.0165241,5.99458 8.1139721,5.8815979 8.1555887,5.7594989 8.1849913,5.6732358 8.182113,5.4219982 8.1499786,5.270396 8.0999438,5.0343005 8.0099062,4.8978726 8.0099062,5.0581552 c 0,0.091538 -0.1060173,0.4107607 -0.1952138,0.5877975 C 7.7708851,5.7329176 7.6813548,5.8667705 7.6157449,5.9434035 7.4944368,6.0850922 7.041361,6.5237746 6.3589461,7.160276 5.9407239,7.5503598 5.7894018,7.7312805 5.6584964,7.9977326 5.5515666,8.215384 5.5212331,8.3631064 5.5208306,8.6681555 c -1.774e-4,0.1345489 -0.00539,0.257858 -0.011598,0.2740203 -0.00633,0.01651 -0.032792,0.029416 -0.060377,0.029455 -0.1241632,1.76e-4 -0.2618991,0.1573128 -0.2771672,0.3162077 -0.00667,0.06934 -0.016413,0.092387 -0.039028,0.092253 C 5.0681805,9.3797031 4.8573263,9.1958997 4.7602049,9.0554098 4.706915,8.9783251 4.6555458,8.9200577 4.646049,8.9259272 4.636559,8.9317972 4.628887,9.0343355 4.629026,9.1537905 4.6297005,9.7542869 4.8592124,10.223638 5.316155,10.558971 l 0.1207546,0.08861 0.00992,-0.183151 C 5.4586146,10.24684 5.4981406,10.144485 5.613695,10.032345 5.7809433,9.8700365 6.0589462,9.78544 6.4085631,9.7904693 c 0.1052652,0.00146 0.195751,-0.00162 0.2010795,-0.00689 0.00532,-0.00535 -0.00346,-0.03513 -0.019549,-0.066226 -0.036008,-0.069636 -0.037807,-0.2062621 -0.00379,-0.2876821 0.057181,-0.1368542 0.2468488,-0.2454084 0.5318802,-0.304416 0.2087459,-0.043215 0.8058293,-0.042464 0.962892,0.00122 0.151828,0.042219 0.3189663,0.1162883 0.3189663,0.1413533 0,0.011974 -0.053228,0.019599 -0.1367968,0.019599 -0.1634727,0 -0.2825609,0.020808 -0.4258021,0.074402 -0.124116,0.046438 -0.1316466,0.072033 -0.050249,0.1707843 0.071541,0.086791 0.1441928,0.2434976 0.1591586,0.3432953 0.00917,0.061128 0.00144,0.1001952 -0.035959,0.1819019 -0.05429,0.118585 -0.119922,0.158498 -0.2606304,0.158498 -0.1422605,0 -0.1476867,0.0081 -0.082692,0.123252 0.049469,0.08766 0.056041,0.114986 0.048757,0.202814 -0.014468,0.174458 -0.1294647,0.260613 -0.3267281,0.244779 l -0.1194068,-0.0096 0.012606,0.06769 c 0.034368,0.184565 0.033123,0.214726 -0.011634,0.28134 -0.069986,0.104169 -0.1625252,0.139576 -0.3590149,0.137363 -0.1279628,-0.0014 -0.198806,-0.01299 -0.301887,-0.04918 -0.099777,-0.03504 -0.1346877,-0.04096 -0.1346877,-0.02284 0,0.04597 0.1823265,0.296804 0.3002282,0.413017 0.1606307,0.158326 0.2708862,0.235012 0.489322,0.340339 0.3463415,0.166997 0.8230764,0.273242 1.2818577,0.285672 0.1430482,0.0041 0.2872574,0.0031 0.3204647,-0.0019 z M 6.4081562,8.773939 C 6.389692,8.7625754 6.4517244,8.6106115 6.5265358,8.4839388 6.6943866,8.1997295 7.0229264,7.909402 7.2250074,7.8667054 l 0.060378,-0.012758 v 0.1040224 c 0,0.1734389 -0.1456582,0.4629923 -0.3377221,0.6713575 -0.09293,0.1008177 -0.1620701,0.1405728 -0.2753401,0.1583202 -0.078924,0.012365 -0.2349534,0.00427 -0.2641664,-0.013711 z"
     id="path2" />
  <ellipse
     style="fill:none;stroke:#000000;stroke-width:0.582072;stroke-dasharray:none;stroke-opacity:1;filter:url(#filter3-8)"
     id="path1-5-7"
     cx="8.4450111"
     cy="8.423522"
     rx="6.8752708"
     ry="6.8578653"
     transform="matrix(0.4782969,0,0,0.4782969,8.9000071,8.8280171)" />
  <ellipse
     style="fill:#2b323e;fill-opacity:1;stroke:#8aadf4;stroke-width:0.278402;stroke-dasharray:none;stroke-opacity:1"
     id="path1-59"
     cx="12.939234"
     cy="12.856965"
     rx="3.2884204"
     ry="3.2800953" />
  <ellipse
     style="fill:url(#linearGradient11);stroke:none;stroke-width:0.246622;stroke-dasharray:none;stroke-opacity:1"
     id="path1-2-2"
     cx="12.939234"
     cy="12.856965"
     rx="2.9130225"
     ry="2.9056478" />
  <path
     id="path1-36-3"
     style="fill:#000000;fill-opacity:1;stroke:none;stroke-width:0.124104;stroke-dasharray:none;stroke-dashoffset:2.2;stroke-opacity:0.3;opacity:0.3"
     d="m 14.021099,11.736685 c -0.06523,-2.7e-5 -0.135047,0.02623 -0.222431,0.07744 -0.207942,0.121835 -0.479893,0.179294 -0.853351,0.179294 -0.373425,0 -0.654446,-0.05868 -0.861152,-0.179813 -0.165749,-0.09713 -0.264703,-0.09842 -0.403809,-0.0046 -0.357127,0.240662 -0.62628,1.012267 -0.705238,2.020557 -0.04735,0.604628 -0.0031,0.923391 0.153311,1.102784 0.07546,0.08649 0.260665,0.07183 0.427716,-0.0343 0.141607,-0.08996 0.310333,-0.288477 0.511911,-0.602326 0.182153,-0.283608 0.40248,-0.377017 0.889733,-0.377816 0.486283,-7.65e-4 0.677387,0.09125 0.901686,0.436021 0.376321,0.578447 0.72416,0.779828 0.928191,0.537359 0.113031,-0.134326 0.133719,-0.264107 0.128366,-0.804479 -0.0098,-0.981615 -0.266353,-1.87461 -0.636118,-2.215438 -0.09848,-0.09078 -0.174941,-0.134569 -0.258815,-0.134604 z m -2.112591,0.578416 h 0.225551 0.22555 v 0.193324 0.193326 h 0.19333 0.193331 v 0.241656 0.241656 h -0.193331 -0.19333 v 0.209435 0.209435 h -0.204243 c -0.112206,0 -0.213221,-0.01005 -0.225032,-0.02182 -0.0118,-0.01181 -0.02182,-0.105569 -0.02182,-0.208914 v -0.188138 h -0.193337 -0.193331 v -0.241656 -0.241656 h 0.193331 0.193332 v -0.193326 z m 1.83871,0 c 0.203478,0 0.290618,0.225442 0.14396,0.372098 -0.09327,0.09326 -0.178394,0.100588 -0.270247,0.02287 -0.159321,-0.134809 -0.07616,-0.394964 0.126287,-0.394964 z m -0.391336,0.413154 c 0.05081,3.5e-5 0.101967,0.02029 0.142399,0.06495 0.06302,0.06964 0.06984,0.229093 0.013,0.303499 -0.111241,0.145623 -0.378344,0.05196 -0.378344,-0.13252 0,-0.140009 0.111172,-0.236016 0.22295,-0.23594 z m 0.798786,0.0078 c 0.05856,0.0011 0.115418,0.02047 0.148634,0.05716 0.06302,0.06964 0.06983,0.229092 0.013,0.303499 -0.118321,0.154886 -0.378346,0.05122 -0.378346,-0.150713 0,-0.06121 0.02453,-0.127549 0.05873,-0.158506 0.03909,-0.03538 0.09943,-0.05251 0.15799,-0.05145 z m -0.393417,0.416788 c 0.180393,0 0.268168,0.19134 0.159029,0.347153 -0.0373,0.05326 -0.08282,0.07171 -0.176699,0.07171 -0.108097,0 -0.133181,-0.01407 -0.176699,-0.09823 -0.08582,-0.165932 0.0078,-0.320649 0.194369,-0.320649 z" />
  <path
     id="path1-36"
     style="fill:url(#linearGradient8255);fill-opacity:1;stroke:none;stroke-width:0.124104;stroke-dasharray:none;stroke-dashoffset:2.2;stroke-opacity:0.3"
     d="m 14.021099,11.207529 c -0.06523,-2.7e-5 -0.135047,0.02623 -0.222431,0.07744 -0.207942,0.121835 -0.479893,0.179294 -0.853351,0.179294 -0.373425,0 -0.654446,-0.05868 -0.861152,-0.179813 -0.165749,-0.09713 -0.264703,-0.09842 -0.403809,-0.0046 -0.357127,0.240662 -0.62628,1.012267 -0.705238,2.020557 -0.04735,0.604628 -0.0031,0.923391 0.153311,1.102784 0.07546,0.08649 0.260665,0.07183 0.427716,-0.0343 0.141607,-0.08996 0.310333,-0.288477 0.511911,-0.602326 0.182153,-0.283608 0.40248,-0.377017 0.889733,-0.377816 0.486283,-7.65e-4 0.677387,0.09125 0.901686,0.436021 0.376321,0.578447 0.72416,0.779828 0.928191,0.537359 0.113031,-0.134326 0.133719,-0.264107 0.128366,-0.804479 -0.0098,-0.981615 -0.266353,-1.87461 -0.636118,-2.215438 -0.09848,-0.09078 -0.174941,-0.134569 -0.258815,-0.134604 z m -2.112591,0.578416 h 0.225551 0.22555 v 0.193324 0.193326 h 0.19333 0.193331 v 0.241656 0.241656 h -0.193331 -0.19333 v 0.209435 0.209435 h -0.204243 c -0.112206,0 -0.213221,-0.01005 -0.225032,-0.02182 -0.0118,-0.01181 -0.02182,-0.105569 -0.02182,-0.208914 v -0.188138 h -0.193337 -0.193331 v -0.241656 -0.241656 h 0.193331 0.193332 v -0.193326 z m 1.83871,0 c 0.203478,0 0.290618,0.225442 0.14396,0.372098 -0.09327,0.09326 -0.178394,0.100588 -0.270247,0.02287 -0.159321,-0.134809 -0.07616,-0.394964 0.126287,-0.394964 z m -0.391336,0.413154 c 0.05081,3.5e-5 0.101967,0.02029 0.142399,0.06495 0.06302,0.06964 0.06984,0.229093 0.013,0.303499 -0.111241,0.145623 -0.378344,0.05196 -0.378344,-0.13252 0,-0.140009 0.111172,-0.236016 0.22295,-0.23594 z m 0.798786,0.0078 c 0.05856,0.0011 0.115418,0.02047 0.148634,0.05716 0.06302,0.06964 0.06983,0.229092 0.013,0.303499 -0.118321,0.154886 -0.378346,0.05122 -0.378346,-0.150713 0,-0.06121 0.02453,-0.127549 0.05873,-0.158506 0.03909,-0.03538 0.09943,-0.05251 0.15799,-0.05145 z m -0.393417,0.416788 c 0.180393,0 0.268168,0.19134 0.159029,0.347153 -0.0373,0.05326 -0.08282,0.07171 -0.176699,0.07171 -0.108097,0 -0.133181,-0.01407 -0.176699,-0.09823 -0.08582,-0.165932 0.0078,-0.320649 0.194369,-0.320649 z" />
</svg>
