<?xml version="1.0" encoding="UTF-8" standalone="no"?>
<svg
   width="64"
   height="64"
   version="1.1"
   viewBox="0 0 16.933 16.933"
   id="svg7"
   sodipodi:docname="internet.svg"
   inkscape:version="1.4 (e7c3feb100, 2024-10-09)"
   xmlns:inkscape="http://www.inkscape.org/namespaces/inkscape"
   xmlns:sodipodi="http://sodipodi.sourceforge.net/DTD/sodipodi-0.dtd"
   xmlns:xlink="http://www.w3.org/1999/xlink"
   xmlns="http://www.w3.org/2000/svg"
   xmlns:svg="http://www.w3.org/2000/svg"
   xmlns:rdf="http://www.w3.org/1999/02/22-rdf-syntax-ns#"
   xmlns:cc="http://creativecommons.org/ns#"
   xmlns:dc="http://purl.org/dc/elements/1.1/">
  <sodipodi:namedview
     id="namedview7"
     pagecolor="#9c4444"
     bordercolor="#000000"
     borderopacity="0.25"
     inkscape:showpageshadow="2"
     inkscape:pageopacity="0.0"
     inkscape:pagecheckerboard="0"
     inkscape:deskcolor="#d1d1d1"
     inkscape:zoom="4.3531261"
     inkscape:cx="36.755195"
     inkscape:cy="25.958357"
     inkscape:window-width="1280"
     inkscape:window-height="669"
     inkscape:window-x="52"
     inkscape:window-y="371"
     inkscape:window-maximized="0"
     inkscape:current-layer="svg7"
     showgrid="false" />
  <defs
     id="defs2">
    <linearGradient
       id="linearGradient1"
       inkscape:collect="always">
      <stop
         style="stop-color:#d8dee9;stop-opacity:1;"
         offset="0"
         id="stop1" />
      <stop
         style="stop-color:#eceff4;stop-opacity:1;"
         offset="1"
         id="stop2" />
    </linearGradient>
    <linearGradient
       inkscape:collect="always"
       id="linearGradient1134">
      <stop
         style="stop-color:#2e3440;stop-opacity:1;"
         offset="0"
         id="stop1130" />
      <stop
         style="stop-color:#4c566a;stop-opacity:1;"
         offset="1"
         id="stop1132" />
    </linearGradient>
    <filter
       style="color-interpolation-filters:sRGB;"
       inkscape:label="Blur"
       id="filter3"
       x="-0.10843471"
       y="-0.10870992"
       width="1.2168694"
       height="1.2174198">
      <feGaussianBlur
         stdDeviation="0.5 0.5"
         result="blur"
         id="feGaussianBlur3" />
    </filter>
    <linearGradient
       inkscape:collect="always"
       xlink:href="#linearGradient1134"
       id="linearGradient4"
       x1="14.388208"
       y1="14.440324"
       x2="2.2869277"
       y2="2.3637428"
       gradientUnits="userSpaceOnUse" />
    <filter
       style="color-interpolation-filters:sRGB"
       inkscape:label="Blur"
       id="filter3-8"
       x="-0.10843471"
       y="-0.10870992"
       width="1.2168694"
       height="1.2174198">
      <feGaussianBlur
         stdDeviation="0.5 0.5"
         result="blur"
         id="feGaussianBlur3-7" />
    </filter>
    <linearGradient
       inkscape:collect="always"
       xlink:href="#linearGradient1134"
       id="linearGradient11"
       gradientUnits="userSpaceOnUse"
       x1="14.388208"
       y1="14.440324"
       x2="2.2869277"
       y2="2.3637428"
       gradientTransform="matrix(0.4782969,0,0,0.4782969,8.9000071,8.8280171)" />
    <linearGradient
       inkscape:collect="always"
       xlink:href="#linearGradient1"
       id="linearGradient5"
       x1="12.426105"
       y1="11.696717"
       x2="4.5298772"
       y2="5.0718193"
       gradientUnits="userSpaceOnUse" />
    <linearGradient
       inkscape:collect="always"
       xlink:href="#linearGradient1"
       id="linearGradient5011"
       x1="15.045657"
       y1="15.190301"
       x2="11.113165"
       y2="11.048727"
       gradientUnits="userSpaceOnUse"
       gradientTransform="matrix(0.81,0,0,0.81,2.5989927,2.455803)" />
  </defs>
  <metadata
     id="metadata2">
    <rdf:RDF>
      <cc:Work
         rdf:about="">
        <dc:format>image/svg+xml</dc:format>
        <dc:type
           rdf:resource="http://purl.org/dc/dcmitype/StillImage" />
      </cc:Work>
    </rdf:RDF>
  </metadata>
  <ellipse
     style="opacity:1;fill:none;stroke:#000000;stroke-width:0.582072;stroke-dasharray:none;stroke-opacity:1;filter:url(#filter3)"
     id="path1-5"
     cx="8.4450111"
     cy="8.423522"
     rx="6.8752708"
     ry="6.8578653" />
  <ellipse
     style="opacity:1;fill:#2b323e;stroke-width:0.58207188;stroke-opacity:1;stroke:#eed49f;stroke-dasharray:none;fill-opacity:1"
     id="path1"
     cx="8.4450111"
     cy="8.423522"
     rx="6.8752708"
     ry="6.8578653" />
  <ellipse
     style="fill:url(#linearGradient4);stroke:none;stroke-width:0.515624;stroke-dasharray:none;stroke-opacity:1"
     id="path1-2"
     cx="8.4450111"
     cy="8.423522"
     rx="6.0904069"
     ry="6.0749874" />
  <path
     id="path19-6"
     style="fill:#000000;fill-opacity:1;stroke:none;stroke-width:0.268554;stroke-dasharray:none;stroke-dashoffset:2.2;stroke-opacity:0.3;opacity:0.3"
     d="M 7.5062621,5.5770717 C 7.2980519,5.5796217 7.0871549,5.6263997 6.8857603,5.7228868 5.9292439,6.1811399 5.7163516,7.4109208 6.4661479,8.148246 6.6926131,8.370944 6.9290733,8.501355 7.2204008,8.564711 7.4595744,8.616726 7.5538818,8.619113 7.7816326,8.577821 8.3359617,8.4773289 8.8220706,8.0413977 8.9801497,7.5025653 9.0547015,7.2484534 9.0440485,6.8523787 8.9560257,6.6030216 8.7291348,5.9602898 8.1308934,5.5694471 7.5062657,5.5770702 Z M 10.056981,6.569979 C 9.9427142,6.571719 9.8276169,6.588674 9.7139464,6.62243 l -0.1594516,0.047208 0.018877,0.270126 c 0.035376,0.4982981 -0.1505485,1.0902636 -0.448983,1.4293031 -0.069352,0.078788 -0.1264085,0.1555252 -0.1264085,0.1704675 0,0.03569 0.3011645,0.3244442 0.4054501,0.3886663 0.044783,0.027579 0.1628361,0.078655 0.2622591,0.1138198 0.279204,0.098753 0.6672605,0.076909 0.9446515,-0.052975 0.276797,-0.1296082 0.521005,-0.3640474 0.647774,-0.6215513 0.09331,-0.1895341 0.09966,-0.2234676 0.09966,-0.5276622 0,-0.3034552 -0.0066,-0.3385417 -0.09861,-0.5250397 C 11.026945,6.8438792 10.552133,6.5624436 10.056978,6.5699798 Z M 9.8513693,9.6598991 10.00243,9.7595568 c 0.348882,0.2310881 0.66363,0.5878952 0.857059,0.9703502 0.104415,0.206455 0.236033,0.660986 0.236033,0.815098 v 0.11959 h 0.758974 0.758972 l -0.01048,-0.364016 c -0.01049,-0.34816 -0.01644,-0.374383 -0.126941,-0.597946 C 12.147265,10.03749 11.307606,9.6598991 10.15821,9.6598991 Z m -2.2763956,0.00578 c -0.074118,6.95e-5 -0.1497228,0.00142 -0.2271155,0.00367 -0.647459,0.018999 -0.9585756,0.070947 -1.401505,0.2339235 C 4.9833059,10.257627 4.465093,10.978627 4.4640723,11.965666 v 0.223444 h 3.0537288 3.0537299 v -0.317332 c 0,-0.593952 -0.168115,-1.000407 -0.5827386,-1.410943 C 9.4356187,9.9131123 8.6867331,9.6646056 7.5749737,9.6656692 Z" />
  <path
     id="path19"
     style="fill:url(#linearGradient5);fill-opacity:1;stroke:none;stroke-width:0.268554;stroke-dasharray:none;stroke-dashoffset:2.2;stroke-opacity:0.3"
     d="m 7.5062621,5.0479155 c -0.2082102,0.00255 -0.4191072,0.049328 -0.6205018,0.1458151 -0.9565164,0.4582531 -1.1694087,1.688034 -0.4196124,2.4253592 0.2264652,0.222698 0.4629254,0.353109 0.7542529,0.416465 0.2391736,0.052015 0.333481,0.054402 0.5612318,0.01311 C 8.3359617,7.9481727 8.8220706,7.5122415 8.9801497,6.9734091 9.0547015,6.7192972 9.0440485,6.3232225 8.9560257,6.0738654 8.7291348,5.4311336 8.1308934,5.0402909 7.5062657,5.047914 Z m 2.5507189,0.9929073 c -0.1142668,0.00174 -0.2293641,0.018695 -0.3430346,0.052451 l -0.1594516,0.047208 0.018877,0.270126 c 0.035376,0.4982981 -0.1505485,1.0902636 -0.448983,1.4293031 -0.069352,0.078788 -0.1264085,0.1555251 -0.1264085,0.1704675 0,0.03569 0.3011645,0.3244442 0.4054501,0.3886663 0.044783,0.027579 0.1628361,0.078655 0.2622591,0.1138198 0.279204,0.098753 0.6672605,0.076909 0.9446515,-0.052975 0.276797,-0.1296082 0.521005,-0.3640474 0.647774,-0.6215513 0.09331,-0.1895342 0.09966,-0.2234677 0.09966,-0.5276622 0,-0.3034552 -0.0066,-0.3385417 -0.09861,-0.5250397 C 11.026945,6.314723 10.552133,6.0332874 10.056978,6.0408236 Z M 9.8513693,9.1307429 10.00243,9.2304006 c 0.348882,0.2310881 0.66363,0.5878953 0.857059,0.9703504 0.104415,0.206455 0.236033,0.660986 0.236033,0.815098 v 0.11959 h 0.758974 0.758972 l -0.01048,-0.364016 C 12.592498,10.423263 12.586549,10.39704 12.476047,10.173477 12.147265,9.5083342 11.307606,9.1307429 10.15821,9.1307429 Z m -2.2763956,0.00578 c -0.074118,6.95e-5 -0.1497228,0.00142 -0.2271155,0.00367 -0.647459,0.018999 -0.9585756,0.070947 -1.401505,0.2339235 C 4.9833059,9.7284709 4.465093,10.449471 4.4640723,11.43651 v 0.223444 h 3.0537288 3.0537299 v -0.317332 c 0,-0.593952 -0.168115,-1.000407 -0.5827386,-1.4109431 C 9.4356187,9.3839561 8.6867331,9.1354494 7.5749737,9.136513 Z" />
  <ellipse
     style="fill:none;stroke:#000000;stroke-width:0.582072;stroke-dasharray:none;stroke-opacity:1;filter:url(#filter3-8)"
     id="path1-5-7"
     cx="8.4450111"
     cy="8.423522"
     rx="6.8752708"
     ry="6.8578653"
     transform="matrix(0.4782969,0,0,0.4782969,8.9000071,8.8280171)" />
  <ellipse
     style="fill:#2b323e;fill-opacity:1;stroke:#eed49f;stroke-width:0.278402;stroke-dasharray:none;stroke-opacity:1"
     id="path1-59"
     cx="12.939234"
     cy="12.856965"
     rx="3.2884204"
     ry="3.2800953" />
  <ellipse
     style="fill:url(#linearGradient11);stroke:none;stroke-width:0.246622;stroke-dasharray:none;stroke-opacity:1"
     id="path1-2-2"
     cx="12.939234"
     cy="12.856965"
     rx="2.9130225"
     ry="2.9056478" />
  <path
     id="path5-1"
     style="fill:#000000;fill-opacity:1;stroke-width:0.0287224;opacity:0.3"
     d="m 13.001854,11.792633 c -1.44359,0 -1.499608,5.72e-4 -1.531893,0.01776 -0.04689,0.02498 -0.08419,0.06178 -0.108364,0.106587 l -0.02072,0.0382 v 1.498438 c 0,1.443591 5.72e-4,1.499607 0.01776,1.531892 0.03493,0.06557 0.08847,0.108981 0.154553,0.125241 0.0158,0.0039 0.694347,0.0061 1.507909,0.0053 l 1.479192,-0.0014 0.03937,-0.02102 c 0.04468,-0.0239 0.08551,-0.06814 0.108067,-0.117541 0.01381,-0.03024 0.0154,-0.178658 0.0154,-1.522415 0,-1.343758 -0.0016,-1.492174 -0.0154,-1.522419 -0.02255,-0.04939 -0.06339,-0.09364 -0.108067,-0.117542 l -0.03937,-0.02102 z m -0.919017,0.598366 h 0.91428 0.914279 v 0.306144 0.306437 h -0.301404 -0.3017 v 0.756472 0.756178 H 13.001854 12.695712 V 13.760052 13.00358 h -0.306437 -0.306438 v -0.306437 z" />
  <path
     id="path5"
     style="fill:url(#linearGradient5011);fill-opacity:1;stroke-width:0.0287224"
     d="m 13.001854,11.263477 c -1.44359,0 -1.499608,5.72e-4 -1.531893,0.01776 -0.04689,0.02498 -0.08419,0.06178 -0.108364,0.106587 l -0.02072,0.0382 v 1.498438 c 0,1.443591 5.72e-4,1.499607 0.01776,1.531892 0.03493,0.06557 0.08847,0.108981 0.154553,0.125241 0.0158,0.0039 0.694347,0.0061 1.507909,0.0053 l 1.479192,-0.0014 0.03937,-0.02102 c 0.04468,-0.0239 0.08551,-0.06814 0.108067,-0.117541 0.01381,-0.03024 0.0154,-0.178658 0.0154,-1.522415 0,-1.343758 -0.0016,-1.492174 -0.0154,-1.522419 -0.02255,-0.04939 -0.06339,-0.09364 -0.108067,-0.117542 l -0.03937,-0.02102 z m -0.919017,0.598366 h 0.91428 0.914279 v 0.306144 0.306437 h -0.301404 -0.3017 v 0.756472 0.756178 h -0.306438 -0.306142 v -0.756178 -0.756472 h -0.306437 -0.306438 v -0.306437 z" />
</svg>
