<?xml version="1.0" encoding="UTF-8" standalone="no"?>
<svg
   width="64"
   height="64"
   version="1.1"
   viewBox="0 0 16.933 16.933"
   id="svg7"
   sodipodi:docname="org.kde.akregator.svg"
   inkscape:version="1.4 (e7c3feb100, 2024-10-09)"
   xmlns:inkscape="http://www.inkscape.org/namespaces/inkscape"
   xmlns:sodipodi="http://sodipodi.sourceforge.net/DTD/sodipodi-0.dtd"
   xmlns:xlink="http://www.w3.org/1999/xlink"
   xmlns="http://www.w3.org/2000/svg"
   xmlns:svg="http://www.w3.org/2000/svg"
   xmlns:rdf="http://www.w3.org/1999/02/22-rdf-syntax-ns#"
   xmlns:cc="http://creativecommons.org/ns#"
   xmlns:dc="http://purl.org/dc/elements/1.1/">
  <sodipodi:namedview
     id="namedview7"
     pagecolor="#9c4444"
     bordercolor="#000000"
     borderopacity="0.25"
     inkscape:showpageshadow="2"
     inkscape:pageopacity="0.0"
     inkscape:pagecheckerboard="0"
     inkscape:deskcolor="#d1d1d1"
     inkscape:zoom="4.3531261"
     inkscape:cx="36.066035"
     inkscape:cy="25.958357"
     inkscape:window-width="1280"
     inkscape:window-height="669"
     inkscape:window-x="28"
     inkscape:window-y="126"
     inkscape:window-maximized="0"
     inkscape:current-layer="svg7"
     showgrid="false" />
  <defs
     id="defs2">
    <linearGradient
       id="linearGradient1"
       inkscape:collect="always">
      <stop
         style="stop-color:#d8dee9;stop-opacity:1;"
         offset="0"
         id="stop1" />
      <stop
         style="stop-color:#eceff4;stop-opacity:1;"
         offset="1"
         id="stop2" />
    </linearGradient>
    <linearGradient
       inkscape:collect="always"
       id="linearGradient1134">
      <stop
         style="stop-color:#2e3440;stop-opacity:1;"
         offset="0"
         id="stop1130" />
      <stop
         style="stop-color:#4c566a;stop-opacity:1;"
         offset="1"
         id="stop1132" />
    </linearGradient>
    <filter
       style="color-interpolation-filters:sRGB;"
       inkscape:label="Blur"
       id="filter3"
       x="-0.10843471"
       y="-0.10870992"
       width="1.2168694"
       height="1.2174198">
      <feGaussianBlur
         stdDeviation="0.5 0.5"
         result="blur"
         id="feGaussianBlur3" />
    </filter>
    <linearGradient
       inkscape:collect="always"
       xlink:href="#linearGradient1134"
       id="linearGradient4"
       x1="14.388208"
       y1="14.440324"
       x2="2.2869277"
       y2="2.3637428"
       gradientUnits="userSpaceOnUse" />
    <linearGradient
       inkscape:collect="always"
       xlink:href="#linearGradient1"
       id="linearGradient7"
       x1="12.112673"
       y1="12.506032"
       x2="4.6984658"
       y2="4.7263355"
       gradientUnits="userSpaceOnUse" />
  </defs>
  <metadata
     id="metadata2">
    <rdf:RDF>
      <cc:Work
         rdf:about="">
        <dc:format>image/svg+xml</dc:format>
        <dc:type
           rdf:resource="http://purl.org/dc/dcmitype/StillImage" />
      </cc:Work>
    </rdf:RDF>
  </metadata>
  <ellipse
     style="opacity:1;fill:none;stroke:#000000;stroke-width:0.582072;stroke-dasharray:none;stroke-opacity:1;filter:url(#filter3)"
     id="path1-5"
     cx="8.4450111"
     cy="8.423522"
     rx="6.8752708"
     ry="6.8578653" />
  <ellipse
     style="opacity:1;fill:#2b323e;stroke-width:0.58207188;stroke-opacity:1;stroke:#eed49f;stroke-dasharray:none;fill-opacity:1"
     id="path1"
     cx="8.4450111"
     cy="8.423522"
     rx="6.8752708"
     ry="6.8578653" />
  <ellipse
     style="fill:url(#linearGradient4);stroke:none;stroke-width:0.515624;stroke-dasharray:none;stroke-opacity:1"
     id="path1-2"
     cx="8.4450111"
     cy="8.423522"
     rx="6.0904069"
     ry="6.0749874" />
  <path
     style="fill:#000000;stroke-width:0.0232306;opacity:0.3"
     d="M 8.1992773,13.090065 C 7.7754062,13.05492 7.4282911,12.977122 7.0642244,12.835669 6.0488942,12.44118 5.2459702,11.64309 4.8447738,10.629581 4.4866104,9.7247842 4.4865284,8.6914668 4.8445479,7.783845 5.0559788,7.2478427 5.4061144,6.7358882 5.8229895,6.3532052 6.7129968,5.5361968 7.8772487,5.1815117 9.0732316,5.3630309 c 0.8032541,0.1219131 1.5601844,0.5096603 2.1518194,1.102296 0.990199,0.9918726 1.366258,2.4434293 0.985566,3.8041831 -0.190895,0.682336 -0.611164,1.356176 -1.138491,1.825401 -0.658007,0.585504 -1.4233417,0.915625 -2.2978934,0.991174 -0.1232152,0.01067 -0.4659703,0.01302 -0.5749553,0.004 z m 0.7143389,-0.567606 c 0.4104396,-0.05692 0.8156852,-0.189516 1.1567508,-0.378453 0.480902,-0.266401 0.887573,-0.640682 1.191147,-1.096276 0.198796,-0.298345 0.391381,-0.7503 0.467719,-1.0976397 C 11.898485,9.179995 11.807933,8.4218956 11.463565,7.7257687 11.294021,7.3830505 11.10405,7.1152984 10.844899,6.8538087 10.251551,6.2551005 9.4657576,5.9051507 8.626138,5.8656912 L 8.4606208,5.8579142 V 6.159991 6.462068 l 0.1597095,0.00678 c 0.9605878,0.040723 1.8649107,0.6354023 2.3000017,1.5124672 0.20027,0.4037066 0.28646,0.7722653 0.286576,1.2254095 8.1e-5,0.3262928 -0.03563,0.5530718 -0.134756,0.8555803 -0.299388,0.913724 -1.067245,1.612635 -2.0008234,1.821164 -0.1699492,0.03797 -0.3782355,0.06446 -0.5067655,0.06446 H 8.4606208 v 0.303803 0.303803 l 0.1597101,-0.0074 c 0.08784,-0.004 0.2198192,-0.0156 0.2932853,-0.0258 z M 8.7533109,11.419514 c 0.2549998,-0.03366 0.4822521,-0.102223 0.7001223,-0.211221 0.6528638,-0.32662 1.0894378,-0.914406 1.2148988,-1.6356985 0.02089,-0.1200887 0.02627,-0.1949848 0.02627,-0.3658805 0,-0.2477722 -0.02562,-0.428059 -0.09197,-0.6470894 C 10.374218,7.8055996 9.7629331,7.2255486 9.00073,7.0395809 8.8599831,7.0052406 8.6510121,6.9765848 8.5413326,6.9765848 h -0.080711 v 0.3062127 0.306213 l 0.1132487,0.00828 c 0.4077311,0.029834 0.7684781,0.1995037 1.0544666,0.4959432 0.2942856,0.30504 0.4468051,0.6851307 0.4468051,1.1134734 0,0.4457435 -0.1565316,0.8205749 -0.4755012,1.1386399 -0.287612,0.286793 -0.6253035,0.441053 -1.0315783,0.471232 l -0.1074414,0.008 v 0.306138 0.306137 h 0.080711 c 0.044392,0 0.1397815,-0.0078 0.2119788,-0.01734 z m -0.07038,-1.116146 C 8.8884069,10.264414 9.07429,10.168052 9.2320782,10.018693 9.396269,9.8632721 9.5004427,9.6846753 9.5547883,9.4654358 c 0.035588,-0.143563 0.035588,-0.3738807 0,-0.5174439 C 9.5043064,8.7443381 9.413295,8.5793311 9.2691528,8.4301279 9.0768118,8.2310329 8.8298395,8.1131239 8.5680618,8.0954142 l -0.1074414,-0.00727 v 1.1168165 1.1168163 h 0.0626 c 0.03443,0 0.1062996,-0.0083 0.1597096,-0.01841 z"
     id="path6-7" />
  <path
     style="fill:url(#linearGradient7);stroke-width:0.0232306"
     d="M 8.1992773,12.560909 C 7.7754062,12.525764 7.4282911,12.447966 7.0642244,12.306513 6.0488942,11.912024 5.2459702,11.113934 4.8447738,10.100425 4.4866104,9.195628 4.4865284,8.1623106 4.8445479,7.2546888 5.0559788,6.7186865 5.4061144,6.206732 5.8229895,5.824049 6.7129968,5.0070406 7.8772487,4.6523555 9.0732316,4.8338747 9.8764857,4.9557878 10.633416,5.343535 11.225051,5.9361707 12.21525,6.9280433 12.591309,8.3796 12.210617,9.7403533 12.019722,10.42269 11.599453,11.09653 11.072126,11.565755 c -0.658007,0.585504 -1.4233417,0.915625 -2.2978934,0.991174 -0.1232152,0.01067 -0.4659703,0.01302 -0.5749553,0.004 z m 0.7143389,-0.567606 c 0.4104396,-0.05692 0.8156852,-0.189516 1.1567508,-0.378453 0.480902,-0.266401 0.887573,-0.640682 1.191147,-1.096276 0.198796,-0.298345 0.391381,-0.7503002 0.467719,-1.0976399 0.169252,-0.7700953 0.0787,-1.5281947 -0.265668,-2.2243216 C 11.294021,6.8538943 11.10405,6.5861422 10.844899,6.3246525 10.251551,5.7259443 9.4657576,5.3759945 8.626138,5.336535 L 8.4606208,5.328758 v 0.3020768 0.302077 l 0.1597095,0.00678 c 0.9605878,0.040723 1.8649107,0.6354023 2.3000017,1.5124672 0.20027,0.4037066 0.28646,0.7722653 0.286576,1.2254095 8.1e-5,0.3262928 -0.03563,0.5530718 -0.134756,0.8555802 -0.299388,0.9137243 -1.067245,1.6126353 -2.0008234,1.8211643 -0.1699492,0.03797 -0.3782355,0.06446 -0.5067655,0.06446 H 8.4606208 v 0.303803 0.303803 l 0.1597101,-0.0074 c 0.08784,-0.004 0.2198192,-0.0156 0.2932853,-0.0258 z M 8.7533109,10.890358 c 0.2549998,-0.03366 0.4822521,-0.102223 0.7001223,-0.211221 0.6528638,-0.32662 1.0894378,-0.9144058 1.2148988,-1.6356987 0.02089,-0.1200887 0.02627,-0.1949848 0.02627,-0.3658805 0,-0.2477722 -0.02562,-0.428059 -0.09197,-0.6470894 C 10.374218,7.2764434 9.7629331,6.6963924 9.00073,6.5104247 8.8599831,6.4760844 8.6510121,6.4474286 8.5413326,6.4474286 h -0.080711 v 0.3062127 0.306213 l 0.1132487,0.00828 c 0.4077311,0.029834 0.7684781,0.1995037 1.0544666,0.4959432 0.2942856,0.30504 0.4468051,0.6851307 0.4468051,1.1134734 0,0.4457435 -0.1565316,0.8205748 -0.4755012,1.1386399 -0.287612,0.2867932 -0.6253035,0.4410532 -1.0315783,0.4712322 l -0.1074414,0.008 v 0.306138 0.306137 h 0.080711 c 0.044392,0 0.1397815,-0.0078 0.2119788,-0.01734 z M 8.6829308,9.7742118 C 8.8884069,9.7352573 9.07429,9.6388956 9.2320782,9.4895363 9.396269,9.3341159 9.5004427,9.1555191 9.5547883,8.9362796 c 0.035588,-0.143563 0.035588,-0.3738807 0,-0.5174439 C 9.5043064,8.2151819 9.413295,8.0501749 9.2691528,7.9009717 9.0768118,7.7018767 8.8298395,7.5839677 8.5680618,7.566258 L 8.4606204,7.558987 v 1.1168165 1.1168167 h 0.0626 c 0.03443,0 0.1062996,-0.00825 0.1597096,-0.018407 z"
     id="path6" />
</svg>
