<svg width="64" height="64" viewBox="0 0 64 64" version="1.1"><defs><linearGradient id="linear-pattern-0" gradientUnits="userSpaceOnUse" x1="0" y1="0" x2="0" y2="1" gradientTransform="matrix(60, 0, 0, 56, 0, 4)"><stop offset="0" stop-color="#ec7700" stop-opacity="1"/><stop offset="1" stop-color="#773c00" stop-opacity="1"/></linearGradient></defs><path fill="url(#linear-pattern-0)" fill-opacity="1" d="M 36.21875 2.050781 L 62.027344 27.605469 C 64.402344 29.957031 64.417969 33.785156 62.058594 36.15625 L 36.460938 61.917969 C 34.105469 64.289062 30.269531 64.304688 27.894531 61.949219 L 2.085938 36.394531 C -0.289062 34.042969 -0.304688 30.214844 2.050781 27.84375 L 27.652344 2.082031 C 30.007812 -0.289062 33.84375 -0.304688 36.21875 2.050781 Z M 36.21875 2.050781 " /><g transform="matrix(1.0075098,0,0,1.0032698,16.221436,16.077397)"><path fill-rule="nonzero" fill="rgb(100%, 100%, 100%)" fill-opacity="1" d="M 0 7.53125 L 0 11.765625 L 2.820312 11.765625 L 2.820312 24.46875 L 7.058594 24.46875 L 7.058594 7.53125 Z M 18.347656 7.53125 C 13.671875 7.53125 9.882812 11.320312 9.882812 16 C 9.882812 20.675781 13.671875 24.46875 18.347656 24.46875 L 30.546875 24.46875 C 31.179688 23.132812 31.679688 21.71875 32 20.234375 L 18.347656 20.234375 C 16.007812 20.234375 14.113281 18.335938 14.113281 16 C 14.113281 13.664062 16.007812 11.765625 18.347656 11.765625 C 19.550781 11.765625 20.695312 12.28125 21.496094 13.179688 L 26.320312 13.179688 C 25.128906 9.796875 21.933594 7.539062 18.351562 7.53125 Z M 18.347656 7.53125 "/></g></svg>
