<svg width="64" height="64" viewBox="0 0 64 64" version="1.1"><defs><linearGradient id="linear-pattern-0" gradientUnits="userSpaceOnUse" x1="0" y1="0" x2="0" y2="1" gradientTransform="matrix(60, 0, 0, 56, 0, 4)"><stop offset="0" stop-color="#00983a" stop-opacity="1"/><stop offset="1" stop-color="#004a1c" stop-opacity="1"/></linearGradient></defs><path fill="url(#linear-pattern-0)" fill-opacity="1" d="M 36.21875 2.050781 L 62.027344 27.605469 C 64.402344 29.957031 64.417969 33.785156 62.058594 36.15625 L 36.460938 61.917969 C 34.105469 64.289062 30.269531 64.304688 27.894531 61.949219 L 2.085938 36.394531 C -0.289062 34.042969 -0.304688 30.214844 2.050781 27.84375 L 27.652344 2.082031 C 30.007812 -0.289062 33.84375 -0.304688 36.21875 2.050781 Z M 36.21875 2.050781 " /><g transform="matrix(1.0075098,0,0,1.0032698,16.221436,16.077397)"><path fill-rule="evenodd" fill="rgb(100%, 100%, 100%)" fill-opacity="1" d="M 8.945312 1.949219 C 7.585938 1.949219 7.585938 3.75 7.585938 3.75 L 7.585938 5.554688 C 7.585938 5.554688 7.585938 10.953125 4.191406 10.953125 C 2.179688 10.953125 1.371094 9.0625 1.039062 7.515625 C 0.882812 8.648438 0.800781 9.800781 0.796875 10.953125 C 0.796875 21.898438 7.484375 30.765625 15.738281 30.765625 C 23.992188 30.765625 30.679688 21.898438 30.679688 10.953125 C 30.675781 9.460938 30.542969 7.976562 30.28125 6.523438 C 29.328125 6.835938 29.320312 8.25 29.320312 8.25 L 29.320312 14.558594 C 29.320312 14.558594 29.320312 16.359375 27.964844 16.359375 C 26.609375 16.359375 26.609375 14.558594 26.609375 14.558594 L 26.609375 9.15625 C 26.609375 9.15625 26.609375 7.355469 25.25 7.355469 C 23.890625 7.355469 23.890625 9.15625 23.890625 9.15625 L 23.890625 16.359375 C 23.890625 16.359375 23.890625 19.0625 21.171875 19.0625 C 18.457031 19.0625 18.457031 15.460938 18.457031 15.460938 L 18.457031 5.554688 C 18.457031 5.554688 18.457031 1.949219 15.738281 1.949219 C 13.023438 1.949219 13.023438 5.554688 13.023438 5.554688 L 13.023438 20.859375 C 13.023438 20.859375 13.023438 22.664062 11.664062 22.664062 C 10.304688 22.664062 10.304688 20.859375 10.304688 20.859375 L 10.304688 3.75 C 10.304688 3.75 10.304688 1.949219 8.945312 1.949219 Z M 8.945312 1.949219 "/></g></svg>
