<svg width="64" height="64" viewBox="0 0 64 64" version="1.1"><defs><linearGradient id="linear-pattern-0" gradientUnits="userSpaceOnUse" x1="0" y1="0" x2="0" y2="1" gradientTransform="matrix(60, 0, 0, 56, 0, 4)"><stop offset="0" stop-color="#00a07f" stop-opacity="1"/><stop offset="1" stop-color="#005241" stop-opacity="1"/></linearGradient></defs><path fill="url(#linear-pattern-0)" fill-opacity="1" d="M 36.21875 2.050781 L 62.027344 27.605469 C 64.402344 29.957031 64.417969 33.785156 62.058594 36.15625 L 36.460938 61.917969 C 34.105469 64.289062 30.269531 64.304688 27.894531 61.949219 L 2.085938 36.394531 C -0.289062 34.042969 -0.304688 30.214844 2.050781 27.84375 L 27.652344 2.082031 C 30.007812 -0.289062 33.84375 -0.304688 36.21875 2.050781 Z M 36.21875 2.050781 " /><g transform="matrix(1.0075098,0,0,1.0032698,16.221436,16.077397)"><path fill-rule="nonzero" fill="rgb(100%, 100%, 100%)" fill-opacity="1" d="M 4.578125 31.414062 L 4.578125 0.789062 L 13.929688 0.789062 L 13.929688 12.117188 C 14.085938 13.65625 15.804688 12.96875 15.921875 12.261719 L 17.941406 0.789062 L 28.304688 0.789062 L 24.628906 14.875 L 20.617188 15.789062 L 24.957031 16.710938 L 28.632812 31.414062 L 17.941406 31.414062 L 15.921875 19.003906 C 15.8125 18.042969 13.960938 18.035156 13.929688 19.164062 C 13.902344 20.285156 13.929688 31.414062 13.929688 31.414062 "/></g></svg>
