<svg width="64" height="64" viewBox="0 0 64 64" version="1.1"><defs><linearGradient id="linear-pattern-0" gradientUnits="userSpaceOnUse" x1="0" y1="0" x2="0" y2="1" gradientTransform="matrix(60, 0, 0, 56, 0, 4)"><stop offset="0" stop-color="#ec7700" stop-opacity="1"/><stop offset="1" stop-color="#773c00" stop-opacity="1"/></linearGradient></defs><path fill="url(#linear-pattern-0)" fill-opacity="1" d="M 36.21875 2.050781 L 62.027344 27.605469 C 64.402344 29.957031 64.417969 33.785156 62.058594 36.15625 L 36.460938 61.917969 C 34.105469 64.289062 30.269531 64.304688 27.894531 61.949219 L 2.085938 36.394531 C -0.289062 34.042969 -0.304688 30.214844 2.050781 27.84375 L 27.652344 2.082031 C 30.007812 -0.289062 33.84375 -0.304688 36.21875 2.050781 Z M 36.21875 2.050781 " /><g transform="matrix(1.0075098,0,0,1.0032698,16.221436,16.077397)"><path fill-rule="evenodd" fill="rgb(100%, 100%, 100%)" fill-opacity="1" d="M 1.109375 16.03125 C 1.109375 7.75 7.824219 1.027344 16.101562 1.027344 C 24.378906 1.027344 31.09375 7.75 31.09375 16.03125 C 31.09375 24.3125 24.378906 31.03125 16.101562 31.03125 C 7.824219 31.03125 1.109375 24.3125 1.109375 16.03125 Z M 4.710938 16.03125 C 4.710938 9.742188 9.816406 4.632812 16.101562 4.632812 C 22.386719 4.632812 27.492188 9.742188 27.492188 16.03125 C 27.492188 22.320312 22.386719 27.429688 16.101562 27.429688 C 9.816406 27.429688 4.710938 22.320312 4.710938 16.03125 Z M 16.078125 25.511719 C 14.15625 25.511719 12.609375 24.992188 11.441406 23.953125 C 10.273438 22.914062 9.6875 21.5625 9.6875 19.890625 C 9.6875 18.867188 9.96875 17.96875 10.53125 17.183594 C 11.09375 16.398438 11.867188 15.804688 12.84375 15.394531 C 12.136719 15.054688 11.554688 14.566406 11.101562 13.925781 C 10.648438 13.289062 10.421875 12.550781 10.421875 11.71875 C 10.421875 10.335938 10.9375 9.210938 11.972656 8.332031 C 13.007812 7.453125 14.375 7.015625 16.078125 7.015625 C 17.796875 7.015625 19.171875 7.453125 20.21875 8.332031 C 21.261719 9.210938 21.78125 10.335938 21.78125 11.71875 C 21.78125 12.550781 21.554688 13.289062 21.085938 13.925781 C 20.625 14.566406 20.03125 15.046875 19.308594 15.371094 C 20.285156 15.78125 21.0625 16.382812 21.644531 17.183594 C 22.226562 17.984375 22.515625 18.882812 22.515625 19.890625 C 22.515625 21.5625 21.925781 22.914062 20.75 23.953125 C 19.570312 24.992188 18.015625 25.511719 16.078125 25.511719 Z M 14.132812 13.515625 C 14.621094 13.933594 15.265625 14.140625 16.078125 14.140625 C 16.882812 14.140625 17.539062 13.933594 18.046875 13.515625 C 18.550781 13.101562 18.804688 12.574219 18.804688 11.945312 C 18.804688 11.28125 18.550781 10.746094 18.046875 10.335938 C 17.539062 9.929688 16.882812 9.722656 16.078125 9.722656 C 15.265625 9.722656 14.621094 9.929688 14.132812 10.335938 C 13.640625 10.746094 13.398438 11.28125 13.398438 11.945312 C 13.398438 12.574219 13.640625 13.101562 14.132812 13.515625 Z M 13.640625 21.945312 C 14.269531 22.5 15.085938 22.78125 16.078125 22.78125 C 17.070312 22.78125 17.882812 22.5 18.523438 21.945312 C 19.164062 21.390625 19.484375 20.675781 19.484375 19.789062 C 19.484375 18.9375 19.164062 18.230469 18.523438 17.667969 C 17.882812 17.109375 17.070312 16.828125 16.078125 16.828125 C 15.085938 16.828125 14.269531 17.109375 13.640625 17.667969 C 13.007812 18.230469 12.691406 18.9375 12.691406 19.789062 C 12.691406 20.675781 13.007812 21.390625 13.640625 21.945312 Z M 13.640625 21.945312 "/></g></svg>
