<svg width="64" height="64" viewBox="0 0 64 64" version="1.1"><defs><linearGradient id="linear-pattern-0" gradientUnits="userSpaceOnUse" x1="0" y1="0" x2="0" y2="1" gradientTransform="matrix(60, 0, 0, 56, 0, 4)"><stop offset="0" stop-color="#6926fc" stop-opacity="1"/><stop offset="1" stop-color="#3702ab" stop-opacity="1"/></linearGradient></defs><path fill="url(#linear-pattern-0)" fill-opacity="1" d="M 36.21875 2.050781 L 62.027344 27.605469 C 64.402344 29.957031 64.417969 33.785156 62.058594 36.15625 L 36.460938 61.917969 C 34.105469 64.289062 30.269531 64.304688 27.894531 61.949219 L 2.085938 36.394531 C -0.289062 34.042969 -0.304688 30.214844 2.050781 27.84375 L 27.652344 2.082031 C 30.007812 -0.289062 33.84375 -0.304688 36.21875 2.050781 Z M 36.21875 2.050781 " /><g transform="matrix(1.0075098,0,0,1.0032698,16.221436,16.077397)"><path fill-rule="nonzero" fill="rgb(100%, 100%, 100%)" fill-opacity="1" d="M 2.046875 8.035156 C 6.703125 5.375 11.363281 2.71875 16.023438 0.0664062 C 20.679688 2.71875 25.34375 5.363281 30 8.027344 C 29.992188 13.347656 29.992188 18.667969 30 23.992188 C 25.351562 26.65625 20.679688 29.28125 16.023438 31.933594 C 11.351562 29.261719 6.65625 26.632812 2 23.933594 C 3.859375 22.882812 5.710938 21.835938 7.574219 20.789062 C 10.390625 22.398438 13.210938 24 16.023438 25.617188 C 18.824219 23.988281 21.664062 22.417969 24.453125 20.769531 C 24.429688 18.640625 24.453125 16.511719 24.445312 14.382812 C 21.640625 15.996094 18.828125 17.605469 16.023438 19.214844 C 11.359375 16.585938 6.710938 13.925781 2.050781 11.292969 C 2.050781 10.203125 2.054688 9.117188 2.046875 8.035156 Z M 10.324219 9.632812 C 12.214844 10.734375 14.125 11.804688 16.023438 12.898438 C 17.929688 11.8125 19.835938 10.726562 21.75 9.640625 C 19.835938 8.5625 17.929688 7.46875 16.023438 6.382812 C 14.121094 7.464844 12.226562 8.5625 10.324219 9.632812 Z M 10.324219 9.632812 "/></g></svg>
