<svg width="64" height="64" viewBox="0 0 64 64" version="1.1"><defs><linearGradient id="linear-pattern-0" gradientUnits="userSpaceOnUse" x1="0" y1="0" x2="0" y2="1" gradientTransform="matrix(60, 0, 0, 56, 0, 4)"><stop offset="0" stop-color="#7795ab" stop-opacity="1"/><stop offset="1" stop-color="#3b4f5f" stop-opacity="1"/></linearGradient></defs><path fill="url(#linear-pattern-0)" fill-opacity="1" d="M 36.21875 2.050781 L 62.027344 27.605469 C 64.402344 29.957031 64.417969 33.785156 62.058594 36.15625 L 36.460938 61.917969 C 34.105469 64.289062 30.269531 64.304688 27.894531 61.949219 L 2.085938 36.394531 C -0.289062 34.042969 -0.304688 30.214844 2.050781 27.84375 L 27.652344 2.082031 C 30.007812 -0.289062 33.84375 -0.304688 36.21875 2.050781 Z M 36.21875 2.050781 " /><g transform="matrix(1.0075098,0,0,1.0032698,16.221436,16.077397)"><path fill-rule="nonzero" fill="rgb(100%, 100%, 100%)" fill-opacity="1" d="M 9.53125 0.730469 L 9.53125 0.734375 C 9.230469 0.742188 9.050781 1.042969 9.207031 1.273438 L 10.46875 3.207031 C 7.976562 4.53125 6.484375 6.71875 6.484375 9.027344 L 25.125 9.027344 C 25.117188 6.703125 23.632812 4.53125 21.140625 3.207031 L 22.410156 1.273438 C 22.566406 1.039062 22.378906 0.738281 22.070312 0.734375 C 21.917969 0.730469 21.78125 0.804688 21.710938 0.914062 L 20.433594 2.871094 C 20.433594 2.871094 11.34375 2.867188 11.183594 2.867188 L 9.910156 0.921875 C 9.835938 0.804688 9.695312 0.734375 9.539062 0.742188 Z M 3.15625 10.210938 L 1.15625 20.289062 C 1.15625 21.273438 2.050781 22.070312 3.15625 22.070312 C 4.261719 22.070312 5.152344 21.273438 5.152344 20.289062 L 5.152344 11.992188 C 5.152344 11.007812 4.261719 10.210938 3.15625 10.210938 Z M 6.484375 10.210938 L 6.484375 23.25 C 6.484375 24.570312 7.671875 25.625 9.144531 25.625 C 9.144531 25.625 10.515625 29.867188 10.476562 29.773438 C 10.476562 30.757812 11.367188 31.550781 12.476562 31.550781 C 13.578125 31.550781 14.46875 30.757812 14.46875 29.773438 L 14.46875 25.625 L 17.132812 25.625 L 17.132812 29.773438 C 17.132812 30.757812 18.023438 31.550781 19.125 31.550781 C 20.234375 31.550781 21.125 30.757812 21.125 29.773438 L 21.125 25.625 L 22.457031 25.625 C 23.933594 25.625 25.117188 24.566406 25.117188 23.25 L 25.117188 10.210938 Z M 28.445312 10.210938 L 26.453125 20.289062 C 26.453125 21.273438 27.339844 22.070312 28.445312 22.070312 C 29.554688 22.070312 30.445312 21.273438 30.445312 20.289062 L 30.445312 11.992188 C 30.445312 11.007812 29.554688 10.210938 28.445312 10.210938 Z M 9.144531 13.769531 L 14.46875 13.769531 L 15.800781 14.957031 L 22.457031 14.957031 L 22.457031 22.070312 L 9.144531 22.070312 Z M 10.476562 14.957031 L 10.476562 16.140625 L 13.140625 16.140625 L 14.46875 14.957031 Z M 10.476562 14.957031 "/></g></svg>
