<svg width="64" height="64" viewBox="0 0 64 64" version="1.1"><defs><linearGradient id="linear-pattern-0" gradientUnits="userSpaceOnUse" x1="0" y1="0" x2="0" y2="1" gradientTransform="matrix(60, 0, 0, 56, 0, 4)"><stop offset="0" stop-color="#aaaa00" stop-opacity="1"/><stop offset="1" stop-color="#5c5c00" stop-opacity="1"/></linearGradient></defs><path fill="url(#linear-pattern-0)" fill-opacity="1" d="M 36.21875 2.050781 L 62.027344 27.605469 C 64.402344 29.957031 64.417969 33.785156 62.058594 36.15625 L 36.460938 61.917969 C 34.105469 64.289062 30.269531 64.304688 27.894531 61.949219 L 2.085938 36.394531 C -0.289062 34.042969 -0.304688 30.214844 2.050781 27.84375 L 27.652344 2.082031 C 30.007812 -0.289062 33.84375 -0.304688 36.21875 2.050781 Z M 36.21875 2.050781 " /><g transform="matrix(1.0075098,0,0,1.0032698,16.221436,16.077397)"><path fill-rule="evenodd" fill="rgb(100%, 100%, 100%)" fill-opacity="1" d="M 23.164062 11.820312 L 23.164062 21.523438 L 29.566406 25.164062 L 29.566406 30.015625 L 23.164062 26.351562 L 23.164062 28.398438 L 18.894531 31.09375 L 18.894531 23.90625 L 10.882812 19.320312 L 6.085938 22.25 L 1.816406 19.554688 L 6.457031 16.78125 L 3.953125 15.351562 L 3.953125 10.601562 L 10.539062 14.34375 L 18.894531 9.351562 L 18.894531 3.054688 L 23.164062 0.894531 L 23.164062 6.804688 L 25.832031 5.210938 L 29.566406 7.90625 Z M 18.894531 14.429688 L 18.894531 19.09375 L 14.933594 16.84375 Z M 18.894531 14.429688 "/></g></svg>
