<svg width="64" height="64" viewBox="0 0 64 64" version="1.1"><defs><linearGradient id="linear-pattern-0" gradientUnits="userSpaceOnUse" x1="0" y1="0" x2="0" y2="1" gradientTransform="matrix(60, 0, 0, 56, 0, 4)"><stop offset="0" stop-color="#8900e4" stop-opacity="1"/><stop offset="1" stop-color="#42006e" stop-opacity="1"/></linearGradient></defs><path fill="url(#linear-pattern-0)" fill-opacity="1" d="M 36.21875 2.050781 L 62.027344 27.605469 C 64.402344 29.957031 64.417969 33.785156 62.058594 36.15625 L 36.460938 61.917969 C 34.105469 64.289062 30.269531 64.304688 27.894531 61.949219 L 2.085938 36.394531 C -0.289062 34.042969 -0.304688 30.214844 2.050781 27.84375 L 27.652344 2.082031 C 30.007812 -0.289062 33.84375 -0.304688 36.21875 2.050781 Z M 36.21875 2.050781 " /><g transform="matrix(1.0075098,0,0,1.0032698,16.221436,16.077397)"><path fill-rule="nonzero" fill="rgb(100%, 100%, 100%)" fill-opacity="1" d="M 20.484375 16.101562 C 20.484375 18.492188 18.605469 20.429688 16.28125 20.429688 C 13.960938 20.429688 12.078125 18.492188 12.078125 16.101562 C 12.078125 13.710938 13.960938 11.773438 16.28125 11.773438 C 18.605469 11.773438 20.484375 13.710938 20.484375 16.101562 Z M 20.484375 16.101562 "/><path fill-rule="nonzero" fill="rgb(100%, 100%, 100%)" fill-opacity="1" d="M 16.28125 1.078125 C 8.203125 1.078125 1.617188 7.34375 1.296875 15.882812 L 10.265625 15.882812 C 10.570312 12.46875 13.148438 10.28125 16.28125 10.28125 C 19.414062 10.28125 21.996094 12.46875 22.300781 15.882812 L 31.265625 15.882812 C 30.949219 7.34375 24.359375 1.078125 16.28125 1.078125 Z M 16.28125 6.453125 C 15.464844 6.453125 14.808594 5.773438 14.808594 4.9375 C 14.808594 4.101562 15.464844 3.421875 16.28125 3.421875 C 17.09375 3.421875 17.753906 4.101562 17.753906 4.9375 C 17.753906 5.773438 17.09375 6.453125 16.28125 6.453125 Z M 16.28125 6.453125 "/><path fill-rule="nonzero" fill="rgb(100%, 100%, 100%)" fill-opacity="1" d="M 16.28125 22.320312 C 13.148438 22.320312 10.570312 19.859375 10.265625 16.71875 L 1.296875 16.71875 C 1.34375 17.960938 1.535156 19.164062 1.851562 20.304688 C 3.632812 26.785156 9.417969 31.53125 16.28125 31.53125 C 24.359375 31.53125 30.949219 24.957031 31.265625 16.71875 L 22.296875 16.71875 C 21.996094 19.859375 19.414062 22.320312 16.28125 22.320312 Z M 16.28125 22.320312 "/></g></svg>
