<svg width="64" height="64" viewBox="0 0 64 64" version="1.1"><defs><linearGradient id="linear-pattern-0" gradientUnits="userSpaceOnUse" x1="0" y1="0" x2="0" y2="1" gradientTransform="matrix(60, 0, 0, 56, 0, 4)"><stop offset="0" stop-color="#ec7700" stop-opacity="1"/><stop offset="1" stop-color="#773c00" stop-opacity="1"/></linearGradient></defs><path fill="url(#linear-pattern-0)" fill-opacity="1" d="M 36.21875 2.050781 L 62.027344 27.605469 C 64.402344 29.957031 64.417969 33.785156 62.058594 36.15625 L 36.460938 61.917969 C 34.105469 64.289062 30.269531 64.304688 27.894531 61.949219 L 2.085938 36.394531 C -0.289062 34.042969 -0.304688 30.214844 2.050781 27.84375 L 27.652344 2.082031 C 30.007812 -0.289062 33.84375 -0.304688 36.21875 2.050781 Z M 36.21875 2.050781 " /><g transform="matrix(1.0075098,0,0,1.0032698,16.221436,16.077397)"><path fill-rule="nonzero" fill="rgb(100%, 100%, 100%)" fill-opacity="1" d="M 16 0 C 7.164062 0 0 7.164062 0 16 C 0 24.835938 7.164062 32 16 32 C 24.835938 32 32 24.835938 32 16 C 32 7.164062 24.835938 0 16 0 Z M 16 2.386719 C 23.507812 2.386719 29.617188 8.492188 29.617188 16 C 29.617188 23.507812 23.507812 29.617188 16 29.617188 C 8.492188 29.617188 2.382812 23.507812 2.382812 16 C 2.382812 8.492188 8.492188 2.382812 16 2.382812 Z M 13.808594 4.539062 C 9.117188 5.449219 5.453125 9.117188 4.539062 13.804688 L 7.84375 14.421875 C 8.492188 11.09375 11.09375 8.488281 14.421875 7.84375 Z M 15.382812 9.921875 C 12.320312 10.234375 9.921875 12.84375 9.921875 16 C 9.921875 17.609375 10.558594 19.160156 11.699219 20.300781 C 12.839844 21.4375 14.390625 22.078125 16 22.078125 C 17.609375 22.078125 19.160156 21.4375 20.300781 20.300781 C 21.4375 19.160156 22.078125 17.609375 22.078125 16 C 22.078125 14.390625 21.4375 12.839844 20.300781 11.699219 C 19.160156 10.5625 17.609375 9.921875 16 9.921875 C 15.789062 9.921875 15.59375 9.90625 15.382812 9.921875 Z M 16 14.535156 C 16.804688 14.535156 17.460938 15.195312 17.460938 16 C 17.460938 16.804688 16.804688 17.460938 16 17.460938 C 15.195312 17.457031 14.542969 16.804688 14.539062 16 C 14.539062 15.195312 15.195312 14.539062 16 14.539062 Z M 24.15625 17.578125 C 23.507812 20.90625 20.90625 23.507812 17.578125 24.152344 L 18.191406 27.460938 C 22.882812 26.550781 26.550781 22.882812 27.460938 18.1875 Z M 24.15625 17.578125 "/></g></svg>
