<svg width="64" height="64" viewBox="0 0 64 64" version="1.1"><defs><linearGradient id="linear-pattern-0" gradientUnits="userSpaceOnUse" x1="0" y1="0" x2="0" y2="1" gradientTransform="matrix(60, 0, 0, 56, 0, 4)"><stop offset="0" stop-color="#8900e4" stop-opacity="1"/><stop offset="1" stop-color="#42006e" stop-opacity="1"/></linearGradient></defs><path fill="url(#linear-pattern-0)" fill-opacity="1" d="M 36.21875 2.050781 L 62.027344 27.605469 C 64.402344 29.957031 64.417969 33.785156 62.058594 36.15625 L 36.460938 61.917969 C 34.105469 64.289062 30.269531 64.304688 27.894531 61.949219 L 2.085938 36.394531 C -0.289062 34.042969 -0.304688 30.214844 2.050781 27.84375 L 27.652344 2.082031 C 30.007812 -0.289062 33.84375 -0.304688 36.21875 2.050781 Z M 36.21875 2.050781 " /><g transform="matrix(1.0075098,0,0,1.0032698,16.221436,16.077397)"><path fill-rule="nonzero" fill="rgb(100%, 100%, 100%)" fill-opacity="1" d="M 24.101562 0.84375 L 24.101562 4.359375 L 20.664062 4.359375 L 20.664062 7.875 L 24.101562 7.875 L 24.101562 11.394531 L 27.53125 11.394531 L 27.53125 7.875 L 30.96875 7.875 L 30.96875 4.359375 L 27.53125 4.359375 L 27.53125 0.84375 Z M 14.9375 3.1875 C 7.34375 3.1875 1.195312 9.484375 1.195312 17.253906 C 1.195312 25.027344 7.34375 31.320312 14.9375 31.320312 C 22.53125 31.320312 28.679688 25.027344 28.679688 17.253906 C 28.679688 16.070312 28.53125 14.886719 28.242188 13.738281 L 24.65625 13.738281 C 24.65625 13.738281 25.242188 16.0625 25.246094 17.253906 C 25.246094 23.078125 20.632812 27.804688 14.941406 27.804688 C 9.25 27.804688 4.632812 23.078125 4.632812 17.253906 C 4.632812 11.429688 9.25 6.703125 14.941406 6.703125 C 16.109375 6.707031 17.277344 6.910156 18.375 7.3125 L 18.375 3.640625 C 17.253906 3.34375 16.097656 3.195312 14.941406 3.195312 Z M 13.792969 10.222656 L 13.792969 17.863281 L 20.007812 22.320312 L 21.328125 20.398438 L 16.09375 16.644531 L 16.09375 10.222656 Z M 13.792969 10.222656 "/></g></svg>
