<svg width="64" height="64" viewBox="0 0 64 64" version="1.1"><defs><linearGradient id="linear-pattern-0" gradientUnits="userSpaceOnUse" x1="0" y1="0" x2="0" y2="1" gradientTransform="matrix(60, 0, 0, 56, 0, 4)"><stop offset="0" stop-color="#8900e4" stop-opacity="1"/><stop offset="1" stop-color="#42006e" stop-opacity="1"/></linearGradient></defs><path fill="url(#linear-pattern-0)" fill-opacity="1" d="M 36.21875 2.050781 L 62.027344 27.605469 C 64.402344 29.957031 64.417969 33.785156 62.058594 36.15625 L 36.460938 61.917969 C 34.105469 64.289062 30.269531 64.304688 27.894531 61.949219 L 2.085938 36.394531 C -0.289062 34.042969 -0.304688 30.214844 2.050781 27.84375 L 27.652344 2.082031 C 30.007812 -0.289062 33.84375 -0.304688 36.21875 2.050781 Z M 36.21875 2.050781 " /><g transform="matrix(1.0075098,0,0,1.0032698,16.221436,16.077397)"><path fill-rule="nonzero" fill="rgb(100%, 100%, 100%)" fill-opacity="1" d="M 14.210938 11.65625 C 14.320312 11.9375 14.367188 12.289062 14.367188 12.703125 C 14.367188 13.195312 14.3125 13.605469 14.203125 13.921875 C 14.109375 14.195312 13.960938 14.445312 13.757812 14.648438 C 13.578125 14.820312 13.359375 14.945312 13.117188 15.015625 C 12.875 15.09375 12.609375 15.132812 12.335938 15.132812 C 12.265625 15.132812 12.117188 15.117188 11.90625 15.101562 C 11.765625 15.085938 11.671875 15.070312 11.605469 15.0625 L 11.605469 10.601562 C 11.886719 10.550781 12.171875 10.527344 12.453125 10.53125 C 12.710938 10.53125 12.960938 10.570312 13.195312 10.644531 C 13.421875 10.714844 13.625 10.832031 13.796875 10.992188 C 13.96875 11.15625 14.109375 11.375 14.210938 11.65625 Z M 32 6 L 32 26 C 32 29.3125 29.3125 32 26 32 L 6 32 C 2.6875 32 0 29.3125 0 26 L 0 6 C 0 2.6875 2.6875 0 6 0 L 26 0 C 29.3125 0 32 2.6875 32 6 Z M 16.898438 14.984375 C 17.148438 14.367188 17.273438 13.605469 17.273438 12.71875 C 17.273438 11.746094 17.125 10.9375 16.828125 10.320312 C 16.53125 9.707031 16.132812 9.21875 15.65625 8.875 C 15.171875 8.53125 14.613281 8.296875 14.03125 8.1875 C 12.882812 7.972656 11.695312 7.980469 10.507812 8.109375 C 9.984375 8.164062 9.453125 8.242188 8.9375 8.355469 C 8.867188 8.375 8.820312 8.433594 8.820312 8.503906 L 8.820312 22.15625 C 8.820312 22.242188 8.882812 22.308594 8.972656 22.308594 L 11.453125 22.308594 C 11.535156 22.308594 11.605469 22.238281 11.605469 22.15625 L 11.605469 17.585938 L 11.703125 17.601562 C 11.832031 17.617188 11.960938 17.625 12.09375 17.632812 C 12.226562 17.632812 12.355469 17.640625 12.476562 17.640625 L 12.734375 17.640625 C 13.308594 17.640625 13.882812 17.554688 14.421875 17.375 C 14.96875 17.203125 15.472656 16.90625 15.890625 16.515625 C 16.3125 16.117188 16.648438 15.605469 16.898438 14.984375 Z M 23.671875 19.398438 C 23.671875 18.835938 23.582031 18.355469 23.394531 17.972656 C 23.21875 17.601562 22.976562 17.273438 22.683594 16.992188 C 22.40625 16.734375 22.101562 16.511719 21.773438 16.328125 C 21.46875 16.15625 21.171875 15.996094 20.898438 15.835938 C 20.664062 15.707031 20.445312 15.554688 20.25 15.375 C 20.109375 15.246094 20.027344 15.0625 20.03125 14.867188 C 20.03125 14.570312 20.125 14.21875 20.84375 14.21875 C 21.167969 14.21875 21.507812 14.265625 21.84375 14.355469 C 22.1875 14.453125 22.484375 14.554688 22.734375 14.65625 C 22.773438 14.671875 22.820312 14.671875 22.855469 14.65625 C 22.898438 14.640625 22.929688 14.601562 22.9375 14.558594 L 23.492188 12.742188 C 23.511719 12.679688 23.484375 12.605469 23.421875 12.570312 C 23.109375 12.382812 22.683594 12.21875 22.15625 12.09375 C 21.609375 11.960938 21.054688 11.898438 20.492188 11.898438 C 19.480469 11.898438 18.703125 12.164062 18.171875 12.691406 C 17.648438 13.21875 17.382812 13.972656 17.382812 14.929688 C 17.382812 15.484375 17.476562 15.960938 17.664062 16.335938 C 17.84375 16.703125 18.085938 17.023438 18.375 17.289062 C 18.664062 17.546875 18.96875 17.765625 19.277344 17.9375 C 19.585938 18.105469 19.882812 18.273438 20.15625 18.4375 C 20.417969 18.589844 20.632812 18.765625 20.796875 18.9375 C 20.949219 19.097656 21.03125 19.3125 21.023438 19.53125 C 21.023438 19.78125 20.945312 19.960938 20.796875 20.070312 C 20.625 20.1875 20.398438 20.242188 20.132812 20.242188 C 19.765625 20.246094 19.398438 20.1875 19.046875 20.078125 C 18.726562 19.972656 18.417969 19.835938 18.117188 19.679688 C 18.082031 19.65625 18.03125 19.648438 17.992188 19.664062 C 17.945312 19.679688 17.914062 19.71875 17.898438 19.757812 L 17.25 21.648438 C 17.226562 21.71875 17.253906 21.789062 17.3125 21.828125 C 17.640625 22.046875 18.078125 22.226562 18.609375 22.359375 C 19.140625 22.496094 19.6875 22.5625 20.230469 22.5625 C 21.359375 22.5625 22.226562 22.269531 22.804688 21.691406 C 23.382812 21.109375 23.671875 20.339844 23.671875 19.398438 Z M 23.671875 19.398438 "/></g></svg>
