<svg width="64" height="64" viewBox="0 0 64 64" version="1.1"><defs><linearGradient id="linear-pattern-0" gradientUnits="userSpaceOnUse" x1="0" y1="0" x2="0" y2="1" gradientTransform="matrix(60, 0, 0, 56, 0, 4)"><stop offset="0" stop-color="#ec7700" stop-opacity="1"/><stop offset="1" stop-color="#773c00" stop-opacity="1"/></linearGradient></defs><path fill="url(#linear-pattern-0)" fill-opacity="1" d="M 36.21875 2.050781 L 62.027344 27.605469 C 64.402344 29.957031 64.417969 33.785156 62.058594 36.15625 L 36.460938 61.917969 C 34.105469 64.289062 30.269531 64.304688 27.894531 61.949219 L 2.085938 36.394531 C -0.289062 34.042969 -0.304688 30.214844 2.050781 27.84375 L 27.652344 2.082031 C 30.007812 -0.289062 33.84375 -0.304688 36.21875 2.050781 Z M 36.21875 2.050781 " /><g transform="matrix(1.0075098,0,0,1.0032698,16.221436,16.077397)"><path fill-rule="nonzero" fill="rgb(100%, 100%, 100%)" fill-opacity="1" d="M 4.40625 4.570312 L 8.75 15.914062 L 4.40625 27.058594 L 7.492188 27.023438 L 10.25 19.828125 L 13.007812 27.023438 L 16.09375 27.058594 L 11.75 15.914062 L 16.09375 4.570312 L 13.171875 4.570312 L 10.25 12.066406 L 7.328125 4.570312 Z M 25.140625 4.921875 L 25.140625 13.53125 L 25.09375 13.53125 C 24.605469 12.414062 23.53125 11.53125 22.039062 11.53125 C 19.429688 11.53125 17.15625 14.5625 17.179688 19.644531 C 17.179688 24.324219 19.226562 27.410156 21.8125 27.410156 C 23.398438 27.410156 24.714844 26.351562 25.363281 24.671875 L 25.40625 24.671875 L 25.515625 27.070312 L 27.96875 27.070312 C 27.925781 26.039062 27.878906 24.359375 27.878906 22.796875 L 27.878906 4.921875 Z M 22.710938 14.5 C 23.953125 14.5 24.828125 15.714844 25.070312 17.214844 C 25.117188 17.523438 25.140625 17.898438 25.140625 18.210938 L 25.140625 20.488281 C 25.140625 20.898438 25.117188 21.265625 25.050781 21.613281 C 24.785156 23.265625 23.808594 24.324219 22.6875 24.324219 C 20.949219 24.324219 19.96875 22.296875 19.96875 19.523438 L 19.964844 19.523438 C 19.964844 16.679688 20.945312 14.5 22.710938 14.5 Z M 22.710938 14.5 "/></g></svg>
