<svg width="64" height="64" viewBox="0 0 64 64" version="1.1"><defs><linearGradient id="linear-pattern-0" gradientUnits="userSpaceOnUse" x1="0" y1="0" x2="0" y2="1" gradientTransform="matrix(60, 0, 0, 56, 0, 4)"><stop offset="0" stop-color="#aaaa00" stop-opacity="1"/><stop offset="1" stop-color="#5c5c00" stop-opacity="1"/></linearGradient></defs><path fill="url(#linear-pattern-0)" fill-opacity="1" d="M 36.21875 2.050781 L 62.027344 27.605469 C 64.402344 29.957031 64.417969 33.785156 62.058594 36.15625 L 36.460938 61.917969 C 34.105469 64.289062 30.269531 64.304688 27.894531 61.949219 L 2.085938 36.394531 C -0.289062 34.042969 -0.304688 30.214844 2.050781 27.84375 L 27.652344 2.082031 C 30.007812 -0.289062 33.84375 -0.304688 36.21875 2.050781 Z M 36.21875 2.050781 " /><g transform="matrix(1.0075098,0,0,1.0032698,16.221436,16.077397)"><path fill-rule="nonzero" fill="rgb(100%, 100%, 100%)" fill-opacity="1" d="M 20.574219 13.140625 L 20.492188 13.140625 L 20.339844 6.40625 L 17.507812 6.40625 C 17.585938 7.523438 17.613281 13.566406 17.613281 15.0625 L 17.613281 24.179688 L 20.859375 24.179688 L 20.859375 16.554688 C 20.859375 16.183594 20.882812 15.78125 20.992188 15.492188 C 21.332031 14.503906 22.226562 13.570312 23.507812 13.570312 C 25.261719 13.570312 25.941406 14.984375 25.941406 16.847656 L 25.941406 24.179688 L 29.164062 24.179688 L 29.164062 16.472656 C 29.164062 12.367188 26.859375 10.90625 24.632812 10.90625 C 22.515625 10.90625 21.121094 12.132812 20.574219 13.140625 "/><path fill-rule="nonzero" fill="rgb(100%, 100%, 100%)" fill-opacity="1" d="M 12.382812 5.765625 C 7.65625 5.765625 3.828125 9.929688 3.828125 15.0625 C 3.828125 20.195312 7.65625 24.355469 12.382812 24.355469 C 13.5625 24.351562 14.734375 24.078125 15.816406 23.558594 L 15.816406 20.789062 C 15.335938 21.023438 13.539062 21.875 12.457031 21.875 C 9.992188 21.875 7.523438 19.398438 7.523438 15.679688 C 7.523438 11.960938 8.757812 8.246094 12.457031 8.246094 C 13.539062 8.246094 15.335938 9.097656 15.816406 9.332031 L 15.816406 6.554688 C 14.734375 6.039062 13.5625 5.769531 12.382812 5.765625 Z M 12.382812 5.765625 "/></g></svg>
