<svg width="64" height="64" viewBox="0 0 64 64" version="1.1"><defs><linearGradient id="linear-pattern-0" gradientUnits="userSpaceOnUse" x1="0" y1="0" x2="0" y2="1" gradientTransform="matrix(60, 0, 0, 56, 0, 4)"><stop offset="0" stop-color="#8900e4" stop-opacity="1"/><stop offset="1" stop-color="#42006e" stop-opacity="1"/></linearGradient></defs><path fill="url(#linear-pattern-0)" fill-opacity="1" d="M 36.21875 2.050781 L 62.027344 27.605469 C 64.402344 29.957031 64.417969 33.785156 62.058594 36.15625 L 36.460938 61.917969 C 34.105469 64.289062 30.269531 64.304688 27.894531 61.949219 L 2.085938 36.394531 C -0.289062 34.042969 -0.304688 30.214844 2.050781 27.84375 L 27.652344 2.082031 C 30.007812 -0.289062 33.84375 -0.304688 36.21875 2.050781 Z M 36.21875 2.050781 " /><g transform="matrix(1.0075098,0,0,1.0032698,16.221436,16.077397)"><path fill-rule="nonzero" fill="rgb(100%, 100%, 100%)" fill-opacity="1" d="M 4.9375 5.492188 L 4.9375 26.535156 L 7.574219 26.535156 L 7.574219 17.609375 L 12.890625 17.609375 L 12.890625 14.453125 L 7.574219 14.453125 L 7.574219 8.648438 L 13.28125 8.648438 L 13.28125 5.492188 M 4.9375 5.492188 "/><path fill-rule="nonzero" fill="rgb(100%, 100%, 100%)" fill-opacity="1" d="M 25.535156 11.328125 L 24.460938 18.070312 C 24.207031 19.851562 23.988281 21.503906 23.828125 23.160156 L 23.789062 23.160156 C 23.570312 21.503906 23.316406 19.851562 23.015625 18.070312 L 21.804688 11.328125 L 19.820312 11.328125 L 18.570312 18.257812 C 18.289062 19.820312 17.96875 21.503906 17.773438 23.15625 L 17.734375 23.15625 C 17.554688 21.503906 17.335938 19.851562 17.117188 18.226562 L 16.101562 11.328125 L 13.605469 11.328125 L 16.460938 26.527344 L 18.746094 26.527344 L 19.976562 20.347656 C 20.253906 18.851562 20.507812 17.351562 20.710938 15.476562 L 20.75 15.476562 C 20.96875 17.316406 21.1875 18.75 21.484375 20.347656 L 22.636719 26.527344 L 24.898438 26.527344 L 27.9375 11.328125 M 25.53125 11.328125 "/></g></svg>
