<svg width="64" height="64" viewBox="0 0 64 64" version="1.1"><defs><linearGradient id="linear-pattern-0" gradientUnits="userSpaceOnUse" x1="0" y1="0" x2="0" y2="1" gradientTransform="matrix(60, 0, 0, 56, 0, 4)"><stop offset="0" stop-color="#ec7700" stop-opacity="1"/><stop offset="1" stop-color="#773c00" stop-opacity="1"/></linearGradient></defs><path fill="url(#linear-pattern-0)" fill-opacity="1" d="M 36.21875 2.050781 L 62.027344 27.605469 C 64.402344 29.957031 64.417969 33.785156 62.058594 36.15625 L 36.460938 61.917969 C 34.105469 64.289062 30.269531 64.304688 27.894531 61.949219 L 2.085938 36.394531 C -0.289062 34.042969 -0.304688 30.214844 2.050781 27.84375 L 27.652344 2.082031 C 30.007812 -0.289062 33.84375 -0.304688 36.21875 2.050781 Z M 36.21875 2.050781 " /><g transform="matrix(1.0075098,0,0,1.0032698,16.221436,16.077397)"><path fill-rule="nonzero" fill="rgb(100%, 100%, 100%)" fill-opacity="1" d="M 5.585938 5.90625 L 5.585938 26.90625 L 10.203125 26.90625 L 10.203125 5.90625 Z M 21.148438 11.164062 C 19.34375 11.164062 14.84375 13.40625 14.84375 19.398438 C 14.84375 25.390625 19.34375 26.890625 21.148438 26.890625 C 24.75 26.890625 26.546875 26.140625 26.546875 26.140625 L 26.546875 23.144531 C 26.546875 23.144531 24.75 23.894531 22.945312 23.894531 C 20.25 23.894531 18.445312 22.398438 18.445312 19.398438 C 18.445312 16.40625 19.34375 14.15625 22.945312 14.15625 C 24.75 14.15625 26.546875 14.90625 26.546875 14.90625 L 26.546875 11.910156 C 26.546875 11.910156 24.75 11.164062 21.148438 11.164062 Z M 21.148438 11.164062 "/></g></svg>
