<svg width="64" height="64" viewBox="0 0 64 64" version="1.1"><defs><linearGradient id="linear-pattern-0" gradientUnits="userSpaceOnUse" x1="0" y1="0" x2="0" y2="1" gradientTransform="matrix(60, 0, 0, 56, 0, 4)"><stop offset="0" stop-color="#6926fc" stop-opacity="1"/><stop offset="1" stop-color="#3702ab" stop-opacity="1"/></linearGradient></defs><path fill="url(#linear-pattern-0)" fill-opacity="1" d="M 36.21875 2.050781 L 62.027344 27.605469 C 64.402344 29.957031 64.417969 33.785156 62.058594 36.15625 L 36.460938 61.917969 C 34.105469 64.289062 30.269531 64.304688 27.894531 61.949219 L 2.085938 36.394531 C -0.289062 34.042969 -0.304688 30.214844 2.050781 27.84375 L 27.652344 2.082031 C 30.007812 -0.289062 33.84375 -0.304688 36.21875 2.050781 Z M 36.21875 2.050781 " /><g transform="matrix(1.0075098,0,0,1.0032698,16.221436,16.077397)"><path fill-rule="nonzero" fill="rgb(100%, 100%, 100%)" fill-opacity="1" d="M 3.554688 0 C 1.59375 0 0 1.59375 0 3.554688 L 0 28.445312 C 0 30.40625 1.59375 32 3.554688 32 L 28.445312 32 C 30.40625 32 32 30.40625 32 28.445312 L 32 3.554688 C 32 1.59375 30.40625 0 28.445312 0 Z M 4.445312 8.335938 L 8.554688 8.335938 C 11.757812 8.335938 14.222656 10.6875 14.222656 14.777344 L 14.222656 17.222656 C 14.222656 21.484375 11.890625 23.667969 8.332031 23.667969 L 4.445312 23.667969 Z M 7.445312 11 L 7.445312 21.164062 L 8.335938 21.164062 C 10.46875 21.164062 11.226562 19.890625 11.226562 17.222656 L 11.226562 14.945312 C 11.226562 11.570312 10.109375 11 8.332031 11 Z M 15.445312 12.445312 L 18.332031 12.445312 L 19.390625 18.835938 L 20.773438 12.445312 L 22.945312 12.445312 L 24.332031 18.835938 L 25.445312 12.445312 L 28.277344 12.445312 L 25.945312 23.667969 L 23.445312 23.667969 L 21.890625 17.054688 L 20.277344 23.667969 L 17.777344 23.667969 Z M 15.445312 12.445312 "/></g></svg>
