<svg width="64" height="64" viewBox="0 0 64 64" version="1.1"><defs><linearGradient id="linear-pattern-0" gradientUnits="userSpaceOnUse" x1="0" y1="0" x2="0" y2="1" gradientTransform="matrix(60, 0, 0, 56, 0, 4)"><stop offset="0" stop-color="#008a97" stop-opacity="1"/><stop offset="1" stop-color="#00545c" stop-opacity="1"/></linearGradient></defs><path fill="url(#linear-pattern-0)" fill-opacity="1" d="M 36.21875 2.050781 L 62.027344 27.605469 C 64.402344 29.957031 64.417969 33.785156 62.058594 36.15625 L 36.460938 61.917969 C 34.105469 64.289062 30.269531 64.304688 27.894531 61.949219 L 2.085938 36.394531 C -0.289062 34.042969 -0.304688 30.214844 2.050781 27.84375 L 27.652344 2.082031 C 30.007812 -0.289062 33.84375 -0.304688 36.21875 2.050781 Z M 36.21875 2.050781 " /><g transform="matrix(1.0075098,0,0,1.0032698,16.221436,16.077397)"><path fill-rule="nonzero" fill="rgb(100%, 100%, 100%)" fill-opacity="1" d="M 16 0 C 15.789062 -0.00390625 15.578125 0.046875 15.390625 0.15625 L 1.195312 8.769531 C 0.730469 9.0625 0.511719 9.625 0.65625 10.15625 C 0.796875 10.695312 1.273438 11.078125 1.8125 11.078125 L 30.195312 11.078125 C 30.847656 11.078125 31.386719 10.53125 31.386719 9.84375 C 31.386719 9.328125 31.085938 8.875 30.65625 8.691406 L 16.582031 0.15625 C 16.40625 0.046875 16.203125 -0.00390625 16 0 Z M 16 4.117188 C 17.46875 4.117188 18.65625 5.304688 18.65625 6.769531 C 18.65625 8.234375 17.46875 9.421875 16 9.421875 C 14.539062 9.421875 13.351562 8.234375 13.351562 6.769531 C 13.351562 5.304688 14.539062 4.117188 16 4.117188 Z M 1.851562 12.308594 L 1.851562 13.539062 C 1.851562 14.21875 2.40625 14.769531 3.078125 14.769531 L 3.078125 24.617188 L 6.773438 24.617188 L 6.773438 14.769531 C 7.449219 14.769531 8.003906 14.21875 8.003906 13.539062 L 8.003906 12.308594 Z M 9.234375 12.308594 L 9.234375 13.539062 C 9.234375 14.21875 9.789062 14.769531 10.464844 14.769531 L 10.464844 24.617188 L 14.15625 24.617188 L 14.15625 14.769531 C 14.835938 14.769531 15.390625 14.21875 15.390625 13.539062 L 15.390625 12.308594 Z M 16.617188 12.308594 L 16.617188 13.539062 C 16.617188 14.21875 17.171875 14.769531 17.851562 14.769531 L 17.851562 24.617188 L 21.542969 24.617188 L 21.542969 14.769531 C 22.21875 14.769531 22.773438 14.21875 22.773438 13.539062 L 22.773438 12.308594 Z M 24 12.308594 L 24 13.539062 C 24 14.21875 24.554688 14.769531 25.234375 14.769531 L 25.234375 24.617188 L 28.925781 24.617188 L 28.925781 14.769531 C 29.601562 14.769531 30.15625 14.21875 30.15625 13.539062 L 30.15625 12.308594 Z M 3.078125 25.84375 L 3.078125 28.308594 L 1.851562 28.308594 C 1.171875 28.308594 0.617188 28.859375 0.617188 29.539062 L 0.617188 30.769531 C 0.617188 31.445312 1.171875 32 1.851562 32 L 30.15625 32 C 30.835938 32 31.390625 31.445312 31.390625 30.769531 L 31.390625 29.539062 C 31.390625 28.859375 30.835938 28.308594 30.15625 28.308594 L 28.925781 28.308594 L 28.925781 25.84375 Z M 3.078125 25.84375 "/></g></svg>
