<svg width="64" height="64" viewBox="0 0 64 64" version="1.1"><defs><linearGradient id="linear-pattern-0" gradientUnits="userSpaceOnUse" x1="0" y1="0" x2="0" y2="1" gradientTransform="matrix(60, 0, 0, 56, 0, 4)"><stop offset="0" stop-color="#00983a" stop-opacity="1"/><stop offset="1" stop-color="#004a1c" stop-opacity="1"/></linearGradient></defs><path fill="url(#linear-pattern-0)" fill-opacity="1" d="M 36.21875 2.050781 L 62.027344 27.605469 C 64.402344 29.957031 64.417969 33.785156 62.058594 36.15625 L 36.460938 61.917969 C 34.105469 64.289062 30.269531 64.304688 27.894531 61.949219 L 2.085938 36.394531 C -0.289062 34.042969 -0.304688 30.214844 2.050781 27.84375 L 27.652344 2.082031 C 30.007812 -0.289062 33.84375 -0.304688 36.21875 2.050781 Z M 36.21875 2.050781 " /><g transform="matrix(1.0075098,0,0,1.0032698,16.221436,16.077397)"><path fill-rule="nonzero" fill="rgb(100%, 100%, 100%)" fill-opacity="1" d="M 0.867188 6.242188 L 0.867188 30.0625 L 4.390625 30.0625 L 4.390625 24.109375 L 6.734375 24.109375 L 6.734375 30.0625 L 10.253906 30.0625 L 10.253906 6.242188 C 10.253906 4.039062 9.207031 2.273438 7.90625 2.273438 Z M 11.429688 6.242188 L 11.429688 26.09375 C 11.429688 28.296875 12.476562 30.0625 13.777344 30.0625 L 18.46875 30.0625 C 19.769531 30.0625 20.820312 28.296875 20.820312 26.09375 L 20.820312 14.179688 L 19.644531 14.179688 L 16.121094 24.109375 L 14.945312 22.125 L 14.945312 10.210938 C 14.945312 9.113281 15.472656 8.226562 16.121094 8.226562 C 16.773438 8.226562 17.296875 9.113281 17.296875 10.210938 L 20.820312 10.210938 L 20.820312 6.242188 C 20.820312 4.039062 19.769531 2.273438 18.46875 2.273438 Z M 21.992188 2.273438 L 21.992188 30.0625 L 25.511719 30.0625 L 25.511719 24.109375 L 26.6875 20.140625 L 27.859375 30.0625 L 31.382812 30.0625 L 29.03125 14.179688 L 31.382812 2.273438 L 27.859375 2.273438 L 25.511719 14.179688 L 25.511719 2.273438 Z M 4.390625 8.226562 L 6.734375 8.226562 L 6.734375 18.15625 L 4.390625 18.15625 Z M 4.390625 8.226562 "/></g></svg>
