<svg width="64" height="64" viewBox="0 0 64 64" version="1.1"><defs><linearGradient id="linear-pattern-0" gradientUnits="userSpaceOnUse" x1="0" y1="0" x2="0" y2="1" gradientTransform="matrix(60, 0, 0, 56, 0, 4)"><stop offset="0" stop-color="#0288cf" stop-opacity="1"/><stop offset="1" stop-color="#01486e" stop-opacity="1"/></linearGradient></defs><path fill="url(#linear-pattern-0)" fill-opacity="1" d="M 36.21875 2.050781 L 62.027344 27.605469 C 64.402344 29.957031 64.417969 33.785156 62.058594 36.15625 L 36.460938 61.917969 C 34.105469 64.289062 30.269531 64.304688 27.894531 61.949219 L 2.085938 36.394531 C -0.289062 34.042969 -0.304688 30.214844 2.050781 27.84375 L 27.652344 2.082031 C 30.007812 -0.289062 33.84375 -0.304688 36.21875 2.050781 Z M 36.21875 2.050781 " /><g transform="matrix(1.0075098,0,0,1.0032698,16.221436,16.077397)"><path fill-rule="nonzero" fill="rgb(100%, 100%, 100%)" fill-opacity="1" d="M 10.558594 0.796875 C 5.757812 0.796875 2.570312 4.757812 0.957031 7.3125 L 3.699219 11.65625 C 4.828125 9.867188 7.128906 7.3125 10.558594 7.3125 C 11.929688 7.3125 13.269531 8.480469 14.984375 10.109375 C 16.699219 11.738281 18.785156 13.828125 21.527344 13.828125 C 26.328125 13.828125 29.515625 9.867188 31.128906 7.3125 L 28.382812 2.96875 C 27.257812 4.757812 24.957031 7.3125 21.527344 7.3125 C 20.15625 7.3125 18.8125 6.148438 17.101562 4.519531 C 15.386719 2.890625 13.296875 0.796875 10.558594 0.796875 Z M 10.558594 18.171875 C 5.757812 18.171875 2.570312 22.132812 0.957031 24.6875 L 3.699219 29.03125 C 4.828125 27.242188 7.128906 24.6875 10.558594 24.6875 C 11.929688 24.6875 13.269531 25.855469 14.984375 27.484375 C 16.699219 29.109375 18.785156 31.203125 21.527344 31.203125 C 26.328125 31.203125 29.515625 27.242188 31.128906 24.6875 L 28.382812 20.34375 C 27.257812 22.132812 24.957031 24.6875 21.527344 24.6875 C 20.15625 24.6875 18.8125 23.523438 17.101562 21.890625 C 15.386719 20.265625 13.296875 18.171875 10.558594 18.171875 Z M 10.558594 18.171875 "/></g></svg>
