<svg width="64" height="64" viewBox="0 0 64 64" version="1.1"><defs><linearGradient id="linear-pattern-0" gradientUnits="userSpaceOnUse" x1="0" y1="0" x2="0" y2="1" gradientTransform="matrix(60, 0, 0, 56, 0, 4)"><stop offset="0" stop-color="#a67e50" stop-opacity="1"/><stop offset="1" stop-color="#644c30" stop-opacity="1"/></linearGradient></defs><path fill="url(#linear-pattern-0)" fill-opacity="1" d="M 36.21875 2.050781 L 62.027344 27.605469 C 64.402344 29.957031 64.417969 33.785156 62.058594 36.15625 L 36.460938 61.917969 C 34.105469 64.289062 30.269531 64.304688 27.894531 61.949219 L 2.085938 36.394531 C -0.289062 34.042969 -0.304688 30.214844 2.050781 27.84375 L 27.652344 2.082031 C 30.007812 -0.289062 33.84375 -0.304688 36.21875 2.050781 Z M 36.21875 2.050781 " /><g transform="matrix(1.0075098,0,0,1.0032698,16.221436,16.077397)"><path fill-rule="nonzero" fill="rgb(100%, 100%, 100%)" fill-opacity="1" d="M 12.257812 12.308594 C 12.289062 12.175781 12.308594 12.039062 12.308594 11.898438 L 12.308594 1.640625 C 12.308594 0.734375 11.570312 0 10.667969 0 L 9.023438 0 C 8.117188 0 7.382812 0.734375 7.382812 1.640625 L 7.382812 11.898438 C 7.382812 12.039062 7.402344 12.175781 7.4375 12.308594 L 5.332031 12.308594 C 4.429688 12.308594 3.691406 13.042969 3.691406 13.945312 L 3.691406 30.359375 C 3.691406 31.265625 4.429688 32 5.332031 32 L 26.667969 32 C 27.570312 32 28.308594 31.265625 28.308594 30.359375 L 28.308594 13.945312 C 28.308594 13.042969 27.570312 12.308594 26.667969 12.308594 L 24.5625 12.308594 C 24.597656 12.175781 24.617188 12.039062 24.617188 11.898438 L 24.617188 1.640625 C 24.617188 0.734375 23.882812 0 22.976562 0 L 21.332031 0 C 20.429688 0 19.691406 0.734375 19.691406 1.640625 L 19.691406 11.898438 C 19.691406 12.039062 19.710938 12.175781 19.742188 12.308594 Z M 12.257812 12.308594 "/></g></svg>
