<svg width="64" height="64" viewBox="0 0 64 64" version="1.1"><defs><linearGradient id="linear-pattern-0" gradientUnits="userSpaceOnUse" x1="0" y1="0" x2="0" y2="1" gradientTransform="matrix(60, 0, 0, 56, 0, 4)"><stop offset="0" stop-color="#3067ff" stop-opacity="1"/><stop offset="1" stop-color="#002ca6" stop-opacity="1"/></linearGradient></defs><path fill="url(#linear-pattern-0)" fill-opacity="1" d="M 36.21875 2.050781 L 62.027344 27.605469 C 64.402344 29.957031 64.417969 33.785156 62.058594 36.15625 L 36.460938 61.917969 C 34.105469 64.289062 30.269531 64.304688 27.894531 61.949219 L 2.085938 36.394531 C -0.289062 34.042969 -0.304688 30.214844 2.050781 27.84375 L 27.652344 2.082031 C 30.007812 -0.289062 33.84375 -0.304688 36.21875 2.050781 Z M 36.21875 2.050781 " /><g transform="matrix(1.0075098,0,0,1.0032698,16.221436,16.077397)"><path fill-rule="nonzero" fill="rgb(100%, 100%, 100%)" fill-opacity="1" d="M 9.203125 0.546875 C 7.890625 0.570312 6.789062 0.882812 5.953125 1.46875 C 5.113281 2.046875 4.539062 2.945312 4.5 3.925781 C 4.453125 4.90625 4.964844 5.867188 5.773438 6.476562 C 6.582031 7.085938 7.664062 7.414062 8.960938 7.4375 C 9.671875 7.453125 10.261719 6.890625 10.277344 6.171875 C 10.296875 5.457031 9.726562 4.867188 9.015625 4.847656 C 8.125 4.828125 7.578125 4.601562 7.328125 4.40625 C 7.070312 4.210938 7.074219 4.117188 7.078125 4.042969 C 7.078125 3.96875 7.109375 3.8125 7.421875 3.601562 C 7.726562 3.382812 8.324219 3.15625 9.242188 3.140625 L 24.859375 3.140625 C 25.1875 3.140625 25.257812 3.214844 25.25 3.203125 C 25.234375 3.1875 25.285156 3.179688 25.285156 3.507812 L 25.285156 26.53125 C 25.289062 27.25 25.863281 27.828125 26.578125 27.828125 C 27.289062 27.828125 27.867188 27.25 27.867188 26.53125 L 27.867188 3.507812 C 27.867188 2.691406 27.601562 1.855469 26.996094 1.296875 C 26.390625 0.738281 25.605469 0.546875 24.859375 0.546875 L 9.226562 0.546875 C 9.21875 0.546875 9.210938 0.546875 9.203125 0.546875 Z M 13.171875 4.558594 C 12.90625 4.558594 12.679688 4.5625 12.417969 4.601562 C 12.164062 4.640625 11.820312 4.742188 11.53125 5.015625 C 11.242188 5.289062 11.125 5.65625 11.082031 5.914062 C 11.039062 6.164062 11.039062 6.367188 11.039062 6.59375 L 11.039062 16.726562 C 11.039062 17.324219 11.523438 17.808594 12.117188 17.808594 C 12.898438 17.808594 13.433594 17.390625 13.851562 16.984375 C 14.269531 16.585938 14.609375 16.121094 14.910156 15.679688 C 15.085938 15.4375 15.199219 15.257812 15.339844 15.046875 C 15.480469 15.257812 15.597656 15.4375 15.765625 15.679688 C 16.070312 16.125 16.414062 16.585938 16.835938 16.992188 C 17.253906 17.390625 17.796875 17.808594 18.570312 17.808594 C 19.167969 17.808594 19.648438 17.324219 19.648438 16.726562 L 19.648438 6.695312 C 19.648438 6.171875 19.640625 5.589844 19.140625 5.078125 C 18.640625 4.566406 18.046875 4.558594 17.574219 4.558594 Z M 22.585938 4.929688 C 21.875 4.929688 21.296875 5.507812 21.296875 6.226562 L 21.296875 28.929688 C 21.269531 28.9375 21.203125 28.976562 20.953125 28.976562 L 8.539062 28.976562 C 7.882812 28.976562 7.109375 28.382812 7.109375 27.25 L 7.109375 9.351562 C 7.109375 8.632812 6.535156 8.054688 5.820312 8.054688 C 5.109375 8.054688 4.53125 8.632812 4.53125 9.351562 L 4.53125 27.25 C 4.53125 29.65625 6.359375 31.570312 8.539062 31.570312 L 20.953125 31.570312 C 21.609375 31.570312 22.289062 31.453125 22.890625 31.015625 C 23.492188 30.578125 23.882812 29.765625 23.882812 28.992188 L 23.882812 6.226562 C 23.882812 5.507812 23.304688 4.929688 22.585938 4.929688 Z M 13.191406 6.71875 L 17.5 6.71875 L 17.5 14.394531 C 17.242188 14.019531 17 13.632812 16.757812 13.296875 C 16.628906 13.117188 16.507812 12.953125 16.34375 12.789062 C 16.175781 12.617188 15.980469 12.328125 15.34375 12.328125 C 14.726562 12.328125 14.519531 12.613281 14.351562 12.78125 C 14.179688 12.953125 14.058594 13.113281 13.929688 13.292969 C 13.6875 13.625 13.445312 14.007812 13.191406 14.378906 Z M 13.191406 6.71875 "/></g></svg>
