<svg width="64" height="64" viewBox="0 0 64 64" version="1.1"><defs><linearGradient id="linear-pattern-0" gradientUnits="userSpaceOnUse" x1="0" y1="0" x2="0" y2="1" gradientTransform="matrix(60, 0, 0, 56, 0, 4)"><stop offset="0" stop-color="#00983a" stop-opacity="1"/><stop offset="1" stop-color="#004a1c" stop-opacity="1"/></linearGradient></defs><path fill="url(#linear-pattern-0)" fill-opacity="1" d="M 36.21875 2.050781 L 62.027344 27.605469 C 64.402344 29.957031 64.417969 33.785156 62.058594 36.15625 L 36.460938 61.917969 C 34.105469 64.289062 30.269531 64.304688 27.894531 61.949219 L 2.085938 36.394531 C -0.289062 34.042969 -0.304688 30.214844 2.050781 27.84375 L 27.652344 2.082031 C 30.007812 -0.289062 33.84375 -0.304688 36.21875 2.050781 Z M 36.21875 2.050781 " /><g transform="matrix(1.0075098,0,0,1.0032698,16.221436,16.077397)"><path fill-rule="evenodd" fill="rgb(100%, 100%, 100%)" fill-opacity="1" d="M 20.929688 1.066406 C 30.617188 1.066406 32 2.445312 32 12.125 L 32 19.875 C 32 29.554688 30.617188 30.933594 20.929688 30.933594 L 11.070312 30.933594 C 1.382812 30.933594 0 29.554688 0 19.875 L 0 12.125 C 0 2.445312 1.382812 1.066406 11.070312 1.066406 Z M 16.953125 3.886719 C 16.558594 3.886719 16.203125 4.121094 16.054688 4.484375 C 15.902344 4.851562 15.984375 5.265625 16.265625 5.546875 L 26.640625 15.921875 C 26.921875 16.203125 27.335938 16.285156 27.703125 16.132812 C 28.066406 15.984375 28.304688 15.632812 28.304688 15.234375 L 28.304688 4.859375 C 28.304688 4.320312 27.867188 3.886719 27.328125 3.886719 Z M 16.953125 3.886719 "/></g></svg>
