<svg width="64" height="64" viewBox="0 0 64 64" version="1.1"><defs><linearGradient id="linear-pattern-0" gradientUnits="userSpaceOnUse" x1="0" y1="0" x2="0" y2="1" gradientTransform="matrix(60, 0, 0, 56, 0, 4)"><stop offset="0" stop-color="#00983a" stop-opacity="1"/><stop offset="1" stop-color="#004a1c" stop-opacity="1"/></linearGradient></defs><path fill="url(#linear-pattern-0)" fill-opacity="1" d="M 36.21875 2.050781 L 62.027344 27.605469 C 64.402344 29.957031 64.417969 33.785156 62.058594 36.15625 L 36.460938 61.917969 C 34.105469 64.289062 30.269531 64.304688 27.894531 61.949219 L 2.085938 36.394531 C -0.289062 34.042969 -0.304688 30.214844 2.050781 27.84375 L 27.652344 2.082031 C 30.007812 -0.289062 33.84375 -0.304688 36.21875 2.050781 Z M 36.21875 2.050781 " /><g transform="matrix(1.0075098,0,0,1.0032698,16.221436,16.077397)"><path fill-rule="nonzero" fill="rgb(100%, 100%, 100%)" fill-opacity="1" d="M 26.734375 1 C 26 1 24.570312 2.75 24.03125 3.023438 C 23.492188 3.300781 19.25 6.425781 18.847656 6.976562 C 18.445312 7.53125 17.90625 7.757812 17.328125 7.714844 C 16.746094 7.667969 14.914062 7.648438 14.285156 8.015625 C 13.660156 8.382812 10.804688 11.394531 10.085938 11.761719 C 9.375 12.128906 8.441406 12.320312 7.992188 12.363281 C 7.546875 12.410156 6.066406 14.105469 5.664062 14.429688 C 5.261719 14.75 2.085938 16.164062 1.636719 16.441406 C 1.1875 16.71875 4.898438 20.582031 5.433594 20.671875 C 5.96875 20.765625 4.042969 21.984375 4.03125 22.859375 C 4.023438 23.730469 4.953125 26.328125 10.367188 29.386719 C 15.050781 32.03125 19.996094 30.757812 21.859375 30.21875 C 22.601562 30.003906 22.328125 27.550781 22.46875 26.25 C 22.554688 25.421875 22.867188 18.476562 24.03125 16.636719 C 25.195312 14.796875 28.515625 12.585938 29.675781 12.359375 C 30.835938 12.128906 30.617188 11.667969 30.617188 11.253906 C 30.617188 10.84375 30.4375 9.921875 30.125 9.78125 C 29.8125 9.644531 28.589844 10.476562 28.1875 10.566406 C 27.785156 10.65625 25.863281 10.796875 25.59375 10.335938 C 25.328125 9.875 27.765625 5.1875 28.078125 4.632812 C 28.390625 4.082031 28.523438 3.34375 27.941406 2.5625 C 27.359375 1.78125 26.960938 1 26.734375 1 Z M 16.550781 10.679688 C 16.851562 10.671875 17.0625 10.703125 17.0625 10.703125 C 17.226562 11.085938 16.4375 12.285156 15.703125 12.449219 C 14.96875 12.613281 13.273438 15.015625 13.214844 14.46875 C 13.15625 13.921875 13.894531 12.125 14.742188 11.304688 C 15.273438 10.792969 16.046875 10.6875 16.550781 10.679688 Z M 16.550781 10.679688 "/></g></svg>
