<svg width="64" height="64" viewBox="0 0 64 64" version="1.1"><defs><linearGradient id="linear-pattern-0" gradientUnits="userSpaceOnUse" x1="0" y1="0" x2="0" y2="1" gradientTransform="matrix(60, 0, 0, 56, 0, 4)"><stop offset="0" stop-color="#00a07f" stop-opacity="1"/><stop offset="1" stop-color="#005241" stop-opacity="1"/></linearGradient></defs><path fill="url(#linear-pattern-0)" fill-opacity="1" d="M 36.21875 2.050781 L 62.027344 27.605469 C 64.402344 29.957031 64.417969 33.785156 62.058594 36.15625 L 36.460938 61.917969 C 34.105469 64.289062 30.269531 64.304688 27.894531 61.949219 L 2.085938 36.394531 C -0.289062 34.042969 -0.304688 30.214844 2.050781 27.84375 L 27.652344 2.082031 C 30.007812 -0.289062 33.84375 -0.304688 36.21875 2.050781 Z M 36.21875 2.050781 " /><g transform="matrix(1.0075098,0,0,1.0032698,16.221436,16.077397)"><path fill-rule="evenodd" fill="rgb(100%, 100%, 100%)" fill-opacity="1" d="M 18.921875 17.761719 C 18.921875 19.808594 18.976562 21.511719 17.9375 23.328125 C 17.105469 24.808594 15.777344 25.71875 14.304688 25.71875 C 12.289062 25.71875 11.109375 24.179688 11.109375 21.910156 C 11.109375 17.4375 15.125 16.625 18.921875 16.625 Z M 24.226562 30.5625 C 23.875 30.871094 23.371094 30.894531 22.980469 30.679688 C 21.234375 29.234375 20.921875 28.5625 19.96875 27.183594 C 17.085938 30.117188 15.042969 31 11.304688 31 C 6.882812 31 3.4375 28.273438 3.4375 22.820312 C 3.4375 18.558594 5.75 15.660156 9.046875 14.238281 C 11.894531 12.988281 15.878906 12.761719 18.921875 12.421875 L 18.921875 11.738281 C 18.921875 10.492188 19.023438 9.011719 18.285156 7.929688 C 17.648438 6.96875 16.417969 6.570312 15.335938 6.570312 C 13.332031 6.570312 11.550781 7.59375 11.109375 9.71875 C 11.023438 10.195312 10.675781 10.664062 10.199219 10.6875 L 5.105469 10.132812 C 4.675781 10.039062 4.195312 9.695312 4.320312 9.039062 C 5.492188 2.867188 11.070312 1 16.074219 1 C 18.632812 1 21.972656 1.679688 23.988281 3.613281 C 26.546875 6 26.296875 9.179688 26.296875 12.648438 L 26.296875 20.828125 C 26.296875 23.285156 27.320312 24.367188 28.28125 25.691406 C 28.617188 26.167969 28.691406 26.738281 28.265625 27.085938 C 27.1875 27.984375 25.28125 29.640625 24.234375 30.570312 Z M 24.226562 30.5625 "/></g></svg>
