<svg width="64" height="64" viewBox="0 0 64 64" version="1.1"><defs><linearGradient id="linear-pattern-0" gradientUnits="userSpaceOnUse" x1="0" y1="0" x2="0" y2="1" gradientTransform="matrix(60, 0, 0, 56, 0, 4)"><stop offset="0" stop-color="#3067ff" stop-opacity="1"/><stop offset="1" stop-color="#002ca6" stop-opacity="1"/></linearGradient></defs><path fill="url(#linear-pattern-0)" fill-opacity="1" d="M 36.21875 2.050781 L 62.027344 27.605469 C 64.402344 29.957031 64.417969 33.785156 62.058594 36.15625 L 36.460938 61.917969 C 34.105469 64.289062 30.269531 64.304688 27.894531 61.949219 L 2.085938 36.394531 C -0.289062 34.042969 -0.304688 30.214844 2.050781 27.84375 L 27.652344 2.082031 C 30.007812 -0.289062 33.84375 -0.304688 36.21875 2.050781 Z M 36.21875 2.050781 " /><g transform="matrix(1.0075098,0,0,1.0032698,16.221436,16.077397)"><path fill-rule="nonzero" fill="rgb(100%, 100%, 100%)" fill-opacity="1" d="M 8.289062 31.101562 C 8.023438 30.5 8.710938 29.289062 9.5625 28.855469 C 10.21875 28.519531 10.195312 29.242188 9.796875 21.597656 C 9.625 18.375 9.484375 15.71875 9.484375 15.703125 C 9.484375 15.6875 8.882812 15.671875 8.15625 15.671875 C 6.351562 15.671875 6.367188 15.453125 8.242188 14.421875 L 9.652344 13.648438 L 9.046875 13.007812 C 8.21875 12.140625 7.851562 11.578125 7.484375 10.617188 C 6.453125 7.960938 7.21875 5.203125 9.546875 3.195312 C 10.816406 2.101562 12.09375 1.492188 13.773438 1.1875 C 15.144531 0.9375 15.835938 0.9375 17.203125 1.1875 C 21.710938 2.007812 24.65625 5.804688 23.757812 9.640625 C 23.472656 10.859375 22.726562 12.226562 21.863281 13.09375 L 21.320312 13.640625 L 22.734375 14.421875 C 24.605469 15.453125 24.625 15.671875 22.84375 15.671875 L 21.535156 15.671875 L 21.4375 16.851562 C 21.390625 17.5 21.226562 20.390625 21.085938 23.28125 C 20.84375 28.289062 20.84375 28.539062 21.105469 28.671875 C 22.121094 29.183594 22.835938 30.179688 22.71875 30.914062 L 22.664062 31.234375 L 15.523438 31.273438 C 9.257812 31.304688 8.371094 31.28125 8.289062 31.105469 Z M 20.21875 27.96875 L 20.167969 27.324219 L 10.808594 27.324219 L 10.757812 27.96875 L 10.710938 28.605469 L 20.265625 28.605469 Z M 19.570312 26.523438 C 19.414062 26.183594 15.65625 22.152344 15.488281 22.152344 C 15.320312 22.152344 11.5625 26.179688 11.410156 26.523438 C 11.332031 26.6875 11.886719 26.71875 15.488281 26.71875 C 19.089844 26.71875 19.644531 26.6875 19.570312 26.523438 Z M 13.046875 23.65625 C 14.09375 22.53125 14.941406 21.570312 14.941406 21.523438 C 14.941406 21.394531 10.375 16.46875 10.3125 16.527344 C 10.28125 16.546875 10.359375 18.566406 10.492188 21.007812 C 10.625 23.445312 10.730469 25.585938 10.730469 25.769531 C 10.730469 26.183594 10.617188 26.289062 13.046875 23.65625 Z M 20.46875 21.273438 C 20.609375 18.6875 20.695312 16.550781 20.664062 16.523438 C 20.601562 16.46875 16.039062 21.394531 16.039062 21.519531 C 16.039062 21.617188 20.132812 26.054688 20.183594 26.007812 C 20.203125 25.992188 20.335938 23.859375 20.46875 21.273438 Z M 17.90625 18.398438 C 19.195312 17.007812 20.25 15.828125 20.25 15.773438 C 20.25 15.71875 18.109375 15.667969 15.488281 15.667969 C 12.871094 15.667969 10.730469 15.714844 10.730469 15.773438 C 10.730469 15.890625 15.378906 20.925781 15.488281 20.925781 C 15.527344 20.925781 16.617188 19.789062 17.90625 18.398438 Z M 12.304688 12.109375 L 13.484375 11.421875 L 13.207031 10.886719 C 12.863281 10.234375 12.84375 9.742188 13.132812 9.164062 C 13.851562 7.695312 16.113281 7.351562 17.335938 8.523438 C 18.058594 9.210938 18.214844 10.003906 17.789062 10.835938 L 17.492188 11.421875 L 20.640625 13.253906 L 21.296875 12.632812 C 22.171875 11.808594 22.851562 10.566406 23.085938 9.371094 C 23.859375 5.390625 20.179688 1.65625 15.488281 1.65625 C 11.992188 1.65625 8.898438 3.742188 8.003906 6.710938 C 7.394531 8.738281 8.03125 11.03125 9.640625 12.609375 C 10.398438 13.34375 10.054688 13.414062 12.304688 12.109375 Z M 16.753906 11.03125 C 17.351562 10.515625 17.457031 9.882812 17.046875 9.195312 C 16.421875 8.15625 14.554688 8.15625 13.929688 9.195312 C 13.523438 9.882812 13.625 10.515625 14.226562 11.03125 C 14.679688 11.421875 14.863281 11.492188 15.488281 11.492188 C 16.113281 11.492188 16.296875 11.421875 16.753906 11.03125 Z M 16.753906 11.03125 "/></g></svg>
