<svg width="64" height="64" viewBox="0 0 64 64" version="1.1"><defs><linearGradient id="linear-pattern-0" gradientUnits="userSpaceOnUse" x1="0" y1="0" x2="0" y2="1" gradientTransform="matrix(60, 0, 0, 56, 0, 4)"><stop offset="0" stop-color="#d00068" stop-opacity="1"/><stop offset="1" stop-color="#6e0037" stop-opacity="1"/></linearGradient></defs><path fill="url(#linear-pattern-0)" fill-opacity="1" d="M 36.21875 2.050781 L 62.027344 27.605469 C 64.402344 29.957031 64.417969 33.785156 62.058594 36.15625 L 36.460938 61.917969 C 34.105469 64.289062 30.269531 64.304688 27.894531 61.949219 L 2.085938 36.394531 C -0.289062 34.042969 -0.304688 30.214844 2.050781 27.84375 L 27.652344 2.082031 C 30.007812 -0.289062 33.84375 -0.304688 36.21875 2.050781 Z M 36.21875 2.050781 " /><g transform="matrix(1.0075098,0,0,1.0032698,16.221436,16.077397)"><path fill-rule="nonzero" fill="rgb(100%, 100%, 100%)" fill-opacity="1" d="M 30.355469 31.5 C 30.835938 31.5 31.222656 31.027344 31.222656 30.4375 L 31.222656 12.382812 C 31.222656 11.789062 30.835938 11.316406 30.355469 11.316406 L 25.148438 11.316406 L 25.148438 26.1875 C 25.148438 26.777344 24.757812 27.25 24.28125 27.25 L 15.605469 27.25 C 15.125 27.25 14.742188 26.777344 14.742188 26.1875 L 14.742188 11.316406 L 9.535156 11.316406 C 9.054688 11.316406 8.664062 11.789062 8.664062 12.382812 L 8.664062 30.4375 C 8.664062 31.027344 9.054688 31.5 9.535156 31.5 Z M 30.355469 31.5 "/><path fill-rule="nonzero" fill="rgb(100%, 100%, 100%)" fill-opacity="1" d="M 6.929688 11.335938 L 6.929688 20.898438 L 14.734375 11.335938 Z M 6.929688 11.335938 "/><path fill-rule="nonzero" fill="rgb(100%, 100%, 100%)" fill-opacity="1" d="M 1.722656 0.710938 C 1.242188 0.710938 0.851562 1.179688 0.851562 1.769531 L 0.851562 19.828125 C 0.851562 20.414062 1.242188 20.890625 1.722656 20.890625 L 6.929688 20.890625 L 6.929688 6.019531 C 6.929688 5.429688 7.3125 4.953125 7.796875 4.953125 L 16.472656 4.953125 C 16.953125 4.953125 17.339844 5.429688 17.339844 6.019531 L 17.339844 20.890625 L 22.542969 20.890625 C 23.023438 20.890625 23.414062 20.414062 23.414062 19.828125 L 23.414062 1.769531 C 23.414062 1.179688 23.023438 0.710938 22.542969 0.710938 Z M 1.722656 0.710938 "/></g></svg>
