<svg width="64" height="64" viewBox="0 0 64 64" version="1.1"><defs><linearGradient id="linear-pattern-0" gradientUnits="userSpaceOnUse" x1="0" y1="0" x2="0" y2="1" gradientTransform="matrix(60, 0, 0, 56, 0, 4)"><stop offset="0" stop-color="#c10000" stop-opacity="1"/><stop offset="1" stop-color="#5f0000" stop-opacity="1"/></linearGradient></defs><path fill="url(#linear-pattern-0)" fill-opacity="1" d="M 36.21875 2.050781 L 62.027344 27.605469 C 64.402344 29.957031 64.417969 33.785156 62.058594 36.15625 L 36.460938 61.917969 C 34.105469 64.289062 30.269531 64.304688 27.894531 61.949219 L 2.085938 36.394531 C -0.289062 34.042969 -0.304688 30.214844 2.050781 27.84375 L 27.652344 2.082031 C 30.007812 -0.289062 33.84375 -0.304688 36.21875 2.050781 Z M 36.21875 2.050781 " /><g transform="matrix(1.0075098,0,0,1.0032698,16.221436,16.077397)"><path fill-rule="nonzero" fill="rgb(100%, 100%, 100%)" fill-opacity="1" d="M 5.785156 2.132812 C 3.75 2.132812 2.109375 3.777344 2.109375 5.8125 C 2.109375 7.847656 3.75 9.492188 5.785156 9.492188 C 7.820312 9.492188 9.460938 7.847656 9.460938 5.8125 C 9.460938 3.777344 7.820312 2.132812 5.785156 2.132812 Z M 16.8125 2.132812 C 14.78125 2.132812 13.140625 3.777344 13.140625 5.8125 C 13.140625 7.847656 14.78125 9.492188 16.8125 9.492188 C 18.851562 9.492188 20.492188 7.847656 20.492188 5.8125 C 20.492188 3.777344 18.851562 2.132812 16.8125 2.132812 Z M 27.84375 2.132812 C 25.8125 2.132812 24.167969 3.777344 24.167969 5.8125 C 24.167969 7.847656 25.8125 9.492188 27.84375 9.492188 C 29.882812 9.492188 31.523438 7.847656 31.523438 5.8125 C 31.523438 3.777344 29.882812 2.132812 27.84375 2.132812 Z M 2.109375 11.945312 L 2.109375 30.332031 C 2.109375 31.007812 2.65625 31.558594 3.335938 31.558594 L 9.460938 31.558594 L 9.460938 22.976562 L 7.015625 22.976562 L 7.015625 11.945312 Z M 18.042969 11.945312 L 11.914062 30.332031 L 11.914062 31.558594 L 21.71875 31.558594 L 21.71875 22.976562 L 19.265625 22.976562 L 19.265625 11.945312 Z M 30.296875 11.945312 L 24.167969 30.332031 L 24.167969 31.558594 L 30.296875 31.558594 C 30.972656 31.558594 31.523438 31.007812 31.523438 30.332031 L 31.523438 11.945312 Z M 30.296875 11.945312 "/><path fill-rule="nonzero" fill="rgb(100%, 100%, 100%)" fill-opacity="1" d="M 4.5625 0.90625 C 2.523438 0.90625 0.882812 2.550781 0.882812 4.585938 C 0.882812 6.625 2.523438 8.265625 4.5625 8.265625 C 6.59375 8.265625 8.234375 6.625 8.234375 4.585938 C 8.234375 2.550781 6.59375 0.90625 4.5625 0.90625 Z M 15.589844 0.90625 C 13.554688 0.90625 11.914062 2.550781 11.914062 4.585938 C 11.914062 6.625 13.554688 8.265625 15.589844 8.265625 C 17.625 8.265625 19.265625 6.625 19.265625 4.585938 C 19.265625 2.550781 17.625 0.90625 15.589844 0.90625 Z M 26.621094 0.90625 C 24.585938 0.90625 22.945312 2.550781 22.945312 4.585938 C 22.945312 6.625 24.585938 8.265625 26.621094 8.265625 C 28.65625 8.265625 30.296875 6.625 30.296875 4.585938 C 30.296875 2.550781 28.65625 0.90625 26.621094 0.90625 Z M 0.882812 10.71875 L 0.882812 29.109375 C 0.882812 29.78125 1.433594 30.332031 2.109375 30.332031 L 8.234375 30.332031 L 8.234375 21.75 L 7.015625 21.75 C 6.335938 21.75 5.785156 21.203125 5.785156 20.523438 L 5.785156 10.71875 Z M 13.140625 10.71875 L 13.140625 20.523438 C 13.140625 21.203125 12.59375 21.75 11.914062 21.75 L 10.6875 21.75 L 10.6875 30.332031 L 20.492188 30.332031 L 20.492188 21.75 L 19.265625 21.75 C 18.585938 21.75 18.042969 21.203125 18.042969 20.523438 L 18.042969 10.71875 Z M 25.398438 10.71875 L 25.398438 20.523438 C 25.398438 21.203125 24.847656 21.75 24.167969 21.75 L 22.945312 21.75 L 22.945312 30.332031 L 29.074219 30.332031 C 29.75 30.332031 30.296875 29.78125 30.296875 29.109375 L 30.296875 10.71875 Z M 25.398438 10.71875 "/></g></svg>
