<svg width="64" height="64" viewBox="0 0 64 64" version="1.1"><defs><linearGradient id="linear-pattern-0" gradientUnits="userSpaceOnUse" x1="0" y1="0" x2="0" y2="1" gradientTransform="matrix(60, 0, 0, 56, 0, 4)"><stop offset="0" stop-color="#008a97" stop-opacity="1"/><stop offset="1" stop-color="#00545c" stop-opacity="1"/></linearGradient></defs><path fill="url(#linear-pattern-0)" fill-opacity="1" d="M 36.21875 2.050781 L 62.027344 27.605469 C 64.402344 29.957031 64.417969 33.785156 62.058594 36.15625 L 36.460938 61.917969 C 34.105469 64.289062 30.269531 64.304688 27.894531 61.949219 L 2.085938 36.394531 C -0.289062 34.042969 -0.304688 30.214844 2.050781 27.84375 L 27.652344 2.082031 C 30.007812 -0.289062 33.84375 -0.304688 36.21875 2.050781 Z M 36.21875 2.050781 " /><g transform="matrix(1.0075098,0,0,1.0032698,16.221436,16.077397)"><path fill-rule="nonzero" fill="rgb(100%, 100%, 100%)" fill-opacity="1" d="M 16.441406 1.03125 C 12.117188 1.089844 7.90625 2.953125 5 6.308594 L 4.984375 6.308594 L 12.1875 14.605469 L 17.304688 1.082031 C 17.015625 1.070312 16.722656 1.066406 16.4375 1.070312 Z M 19.3125 1.671875 L 15.664062 12.039062 L 30.035156 9.640625 C 27.90625 5.585938 23.984375 2.59375 19.304688 1.71875 Z M 3.421875 7.71875 C 0.945312 11.585938 0.296875 16.445312 1.875 20.9375 L 12.707031 18.914062 Z M 1.875 20.9375 L 1.867188 20.9375 L 1.875 20.941406 C 1.875 20.941406 1.875 20.9375 1.875 20.9375 Z M 30.523438 11.675781 C 30.523438 11.679688 30.523438 11.679688 30.523438 11.679688 L 30.53125 11.679688 Z M 30.523438 11.679688 L 19.695312 13.703125 L 29.003906 24.886719 C 31.492188 21.023438 32.132812 16.164062 30.554688 11.667969 Z M 20.195312 17.976562 L 15.085938 31.496094 C 19.710938 31.695312 24.289062 29.808594 27.4375 26.230469 L 27.453125 26.230469 Z M 16.75 20.574219 L 2.375 22.976562 C 4.507812 27.042969 8.445312 30.023438 13.101562 30.898438 Z M 16.75 20.574219 "/></g></svg>
