<svg width="64" height="64" viewBox="0 0 64 64" version="1.1"><defs><linearGradient id="linear-pattern-0" gradientUnits="userSpaceOnUse" x1="0" y1="0" x2="0" y2="1" gradientTransform="matrix(60, 0, 0, 56, 0, 4)"><stop offset="0" stop-color="#aaaa00" stop-opacity="1"/><stop offset="1" stop-color="#5c5c00" stop-opacity="1"/></linearGradient></defs><path fill="url(#linear-pattern-0)" fill-opacity="1" d="M 36.21875 2.050781 L 62.027344 27.605469 C 64.402344 29.957031 64.417969 33.785156 62.058594 36.15625 L 36.460938 61.917969 C 34.105469 64.289062 30.269531 64.304688 27.894531 61.949219 L 2.085938 36.394531 C -0.289062 34.042969 -0.304688 30.214844 2.050781 27.84375 L 27.652344 2.082031 C 30.007812 -0.289062 33.84375 -0.304688 36.21875 2.050781 Z M 36.21875 2.050781 " /><g transform="matrix(1.0075098,0,0,1.0032698,16.221436,16.077397)"><path fill-rule="evenodd" fill="rgb(100%, 100%, 100%)" fill-opacity="1" d="M 16 6.6875 L 13.882812 4.574219 C 13.410156 4.101562 12.773438 3.859375 12.140625 3.859375 C 11.5 3.859375 10.867188 4.101562 10.390625 4.574219 L 0.710938 14.253906 C -0.238281 15.203125 -0.234375 16.796875 0.714844 17.746094 L 10.390625 27.421875 C 11.34375 28.375 12.933594 28.375 13.882812 27.425781 L 16 25.3125 L 18.117188 27.421875 C 19.066406 28.375 20.65625 28.375 21.609375 27.425781 L 31.285156 17.746094 C 32.238281 16.796875 32.238281 15.203125 31.285156 14.253906 L 21.609375 4.574219 C 21.132812 4.101562 20.5 3.859375 19.859375 3.859375 C 19.226562 3.859375 18.589844 4.101562 18.113281 4.574219 Z M 14.585938 8.101562 L 12.480469 6 C 12.382812 5.898438 12.257812 5.859375 12.140625 5.859375 C 12.019531 5.859375 11.882812 5.898438 11.800781 6 L 2.140625 15.660156 C 2.039062 15.757812 2 15.882812 2 16 C 2 16.117188 2.039062 16.242188 2.140625 16.339844 L 11.800781 26 C 11.898438 26.101562 12.019531 26.140625 12.140625 26.140625 C 12.257812 26.140625 12.382812 26.101562 12.480469 26 L 14.585938 23.894531 L 8.4375 17.746094 C 7.488281 16.796875 7.484375 15.203125 8.4375 14.253906 Z M 14.585938 8.101562 "/></g></svg>
