<svg width="64" height="64" viewBox="0 0 64 64" version="1.1"><defs><linearGradient id="linear-pattern-0" gradientUnits="userSpaceOnUse" x1="0" y1="0" x2="0" y2="1" gradientTransform="matrix(60, 0, 0, 56, 0, 4)"><stop offset="0" stop-color="#c10000" stop-opacity="1"/><stop offset="1" stop-color="#5f0000" stop-opacity="1"/></linearGradient></defs><path fill="url(#linear-pattern-0)" fill-opacity="1" d="M 36.21875 2.050781 L 62.027344 27.605469 C 64.402344 29.957031 64.417969 33.785156 62.058594 36.15625 L 36.460938 61.917969 C 34.105469 64.289062 30.269531 64.304688 27.894531 61.949219 L 2.085938 36.394531 C -0.289062 34.042969 -0.304688 30.214844 2.050781 27.84375 L 27.652344 2.082031 C 30.007812 -0.289062 33.84375 -0.304688 36.21875 2.050781 Z M 36.21875 2.050781 " /><g transform="matrix(1.0075098,0,0,1.0032698,16.221436,16.077397)"><path fill-rule="nonzero" fill="rgb(100%, 100%, 100%)" fill-opacity="1" d="M 14.113281 31.882812 C 14.015625 31.820312 13.863281 31.765625 13.773438 31.765625 C 13.554688 31.765625 13.523438 31.648438 13.664062 31.375 C 13.945312 30.824219 14.128906 30.101562 14.195312 29.308594 C 14.273438 28.328125 14.28125 26.257812 14.203125 25.835938 C 14.109375 25.335938 13.882812 24.929688 13.65625 24.84375 C 13.554688 24.804688 13.421875 24.75 13.367188 24.71875 C 13.1875 24.625 12.832031 24.664062 12.523438 24.804688 C 12.125 24.992188 11.78125 25.300781 11.8125 25.4375 C 11.855469 25.59375 11.617188 25.914062 11.359375 26.046875 C 11.117188 26.171875 11.046875 26.257812 10.734375 26.800781 C 10.625 26.992188 10.4375 27.253906 10.3125 27.390625 L 10.09375 27.632812 L 10.214844 27.308594 C 10.28125 27.132812 10.367188 26.910156 10.398438 26.820312 C 10.429688 26.730469 10.445312 26.640625 10.429688 26.625 C 10.410156 26.609375 10.039062 26.679688 9.601562 26.789062 C 9.167969 26.898438 8.824219 26.96875 8.84375 26.941406 C 8.90625 26.839844 9.367188 26.648438 9.742188 26.570312 C 9.960938 26.523438 10.1875 26.46875 10.25 26.449219 C 10.613281 26.320312 10.976562 25.835938 10.792969 25.71875 C 10.75 25.6875 10.625 25.664062 10.523438 25.664062 C 10.03125 25.664062 10.308594 25.390625 11.140625 25.054688 C 12.324219 24.570312 13.203125 24.078125 13.203125 23.886719 C 13.203125 23.75 12.167969 22.238281 11.882812 21.957031 C 11.726562 21.804688 11.523438 21.664062 11.433594 21.640625 C 11.234375 21.601562 10.828125 21.777344 10.820312 21.910156 C 10.820312 21.960938 10.8125 22.03125 10.804688 22.070312 C 10.796875 22.171875 10.445312 22.378906 10.285156 22.378906 C 10.117188 22.378906 9.960938 22.617188 9.945312 22.898438 C 9.933594 23.132812 9.164062 24.53125 9.0625 24.507812 C 9.03125 24.5 8.996094 24.398438 8.976562 24.273438 L 8.949219 24.054688 L 8.855469 24.199219 C 8.804688 24.28125 8.742188 24.410156 8.714844 24.492188 C 8.6875 24.570312 8.578125 24.832031 8.46875 25.070312 C 8.355469 25.3125 8.234375 25.664062 8.199219 25.851562 C 8.136719 26.195312 8.125 26.210938 7.71875 26.519531 C 7.492188 26.695312 7.203125 26.921875 7.070312 27.023438 L 6.835938 27.210938 L 7.015625 27.011719 C 7.582031 26.382812 7.917969 25.777344 8.070312 25.117188 C 8.132812 24.871094 8.164062 24.652344 8.140625 24.632812 C 8.117188 24.609375 7.953125 24.710938 7.769531 24.851562 C 7.167969 25.320312 7.195312 25.304688 7.242188 25.121094 C 7.296875 24.890625 7.144531 24.90625 6.554688 25.203125 C 6.175781 25.394531 6.101562 25.417969 6.191406 25.3125 C 6.460938 25.015625 6.847656 24.796875 7.335938 24.664062 C 7.933594 24.507812 8.140625 24.394531 8.40625 24.0625 C 8.601562 23.820312 9.039062 23.085938 9.039062 22.996094 C 9.039062 22.898438 8.273438 23.015625 8 23.148438 C 7.765625 23.265625 7.710938 23.320312 7.679688 23.492188 C 7.632812 23.722656 7.351562 23.996094 7.105469 24.050781 C 7.019531 24.070312 6.835938 24.164062 6.6875 24.257812 C 6.390625 24.457031 6.332031 24.40625 6.515625 24.109375 C 6.585938 23.992188 6.632812 23.882812 6.617188 23.867188 C 6.597656 23.851562 6.484375 23.890625 6.359375 23.953125 C 6.125 24.074219 6.023438 24.152344 5.257812 24.773438 C 5.003906 24.976562 4.789062 25.128906 4.773438 25.113281 C 4.757812 25.097656 4.8125 24.996094 4.894531 24.886719 C 4.976562 24.773438 5.046875 24.664062 5.046875 24.640625 C 5.046875 24.617188 4.902344 24.613281 4.726562 24.632812 C 4.535156 24.65625 4.402344 24.652344 4.402344 24.621094 C 4.402344 24.589844 4.625 24.484375 4.890625 24.382812 C 5.398438 24.1875 5.992188 23.863281 6.1875 23.667969 C 6.304688 23.554688 6.304688 23.554688 6.1875 23.46875 C 6.085938 23.390625 6.097656 23.382812 6.382812 23.34375 C 6.570312 23.320312 6.796875 23.234375 6.976562 23.117188 C 7.210938 22.96875 7.449219 22.890625 8.195312 22.738281 C 8.707031 22.632812 9.210938 22.523438 9.3125 22.492188 C 9.511719 22.429688 9.917969 22.023438 9.917969 21.886719 C 9.917969 21.777344 9.5 21.585938 9.066406 21.5 C 8.875 21.460938 8.523438 21.390625 8.28125 21.335938 C 7.910156 21.257812 7.8125 21.253906 7.578125 21.320312 C 7.429688 21.367188 7.195312 21.40625 7.054688 21.410156 C 6.871094 21.417969 6.75 21.46875 6.585938 21.605469 C 6.46875 21.707031 6.132812 21.9375 5.839844 22.113281 C 5.546875 22.289062 5.140625 22.542969 4.9375 22.671875 C 4.523438 22.929688 4.378906 22.929688 4.679688 22.675781 C 4.988281 22.417969 4.9375 22.359375 4.445312 22.40625 C 3.90625 22.453125 4.011719 22.382812 4.78125 22.179688 C 5.332031 22.03125 5.8125 21.796875 5.8125 21.679688 C 5.8125 21.648438 5.632812 21.605469 5.414062 21.585938 C 4.78125 21.515625 4.722656 21.445312 5.296875 21.445312 C 5.703125 21.4375 5.867188 21.414062 6.0625 21.3125 C 6.363281 21.160156 6.691406 20.90625 6.691406 20.820312 C 6.691406 20.710938 5.621094 20.277344 5.109375 20.179688 C 4.832031 20.132812 4.375 20.046875 4.089844 19.992188 C 3.632812 19.90625 3.5 19.90625 2.992188 19.972656 C 2.523438 20.035156 2.34375 20.035156 2.085938 19.976562 C 1.75 19.902344 1.671875 19.820312 1.894531 19.773438 C 1.96875 19.757812 2.132812 19.726562 2.261719 19.699219 C 2.390625 19.671875 2.792969 19.660156 3.15625 19.671875 C 3.519531 19.679688 3.816406 19.664062 3.816406 19.632812 C 3.816406 19.566406 3.414062 19.28125 2.9375 19.007812 C 2.40625 18.703125 2.71875 18.789062 3.632812 19.1875 C 5.0625 19.820312 5.960938 20.078125 5.816406 19.8125 C 5.785156 19.757812 5.585938 19.515625 5.371094 19.28125 C 5.15625 19.046875 5.003906 18.859375 5.035156 18.859375 C 5.0625 18.859375 5.351562 19.101562 5.671875 19.394531 C 6.898438 20.53125 7.085938 20.613281 8.085938 20.507812 C 8.894531 20.421875 10.351562 20.21875 10.476562 20.171875 C 10.609375 20.117188 10.585938 20.066406 10.261719 19.710938 C 9.90625 19.320312 9.601562 19.140625 7.792969 18.21875 C 6.085938 17.359375 6.109375 17.363281 5.75 17.492188 C 5.507812 17.578125 5.441406 17.578125 5.234375 17.511719 C 4.953125 17.421875 4.609375 17.453125 3.992188 17.625 C 3.707031 17.707031 3.304688 17.761719 2.847656 17.78125 C 2.453125 17.796875 2.039062 17.851562 1.902344 17.898438 C 1.632812 18 1.34375 17.984375 1.308594 17.875 C 1.296875 17.835938 1.34375 17.796875 1.421875 17.78125 C 2 17.671875 2.210938 17.609375 2.289062 17.542969 C 2.351562 17.484375 2.628906 17.453125 3.226562 17.4375 C 3.871094 17.414062 4.148438 17.382812 4.367188 17.296875 C 4.527344 17.234375 4.664062 17.15625 4.679688 17.121094 C 4.6875 17.085938 4.585938 17.007812 4.449219 16.953125 C 4.3125 16.890625 3.972656 16.742188 3.699219 16.625 C 3.195312 16.398438 2.765625 16.304688 1.503906 16.15625 C 0.757812 16.070312 0.710938 16.054688 0.882812 15.925781 L 1.011719 15.828125 L 0.8125 15.695312 L 0.617188 15.5625 L 0.796875 15.589844 C 0.890625 15.605469 1.429688 15.738281 2 15.886719 C 3.140625 16.1875 3.40625 16.21875 3.40625 16.046875 C 3.40625 15.867188 2.976562 15.382812 2.742188 15.304688 C 2.660156 15.277344 2.640625 15.234375 2.671875 15.125 C 2.746094 14.8125 2.3125 14.382812 1.246094 13.726562 C 0.945312 13.539062 0.710938 13.375 0.726562 13.359375 C 0.742188 13.34375 0.945312 13.414062 1.183594 13.515625 C 1.617188 13.695312 1.765625 13.730469 1.761719 13.648438 C 1.757812 13.625 1.617188 13.414062 1.4375 13.171875 C 1.261719 12.9375 1.117188 12.71875 1.117188 12.6875 C 1.117188 12.617188 1.277344 12.625 1.320312 12.695312 C 1.34375 12.730469 1.40625 12.757812 1.460938 12.757812 C 1.53125 12.757812 1.6875 12.949219 1.90625 13.308594 C 2.09375 13.613281 2.414062 14.054688 2.617188 14.289062 C 2.820312 14.53125 3.226562 15.023438 3.515625 15.398438 C 3.90625 15.898438 4.117188 16.117188 4.351562 16.257812 C 4.730469 16.488281 5.890625 16.933594 6.125 16.945312 C 6.53125 16.960938 6.289062 16.628906 5.550781 16.152344 C 5.257812 15.964844 4.96875 15.773438 4.902344 15.722656 C 4.785156 15.636719 4.785156 15.636719 4.914062 15.632812 C 4.988281 15.632812 5.046875 15.609375 5.046875 15.585938 C 5.046875 15.5625 4.765625 15.261719 4.417969 14.914062 C 3.789062 14.28125 3.707031 14.148438 4.125 14.429688 C 4.257812 14.519531 4.390625 14.570312 4.453125 14.546875 C 4.578125 14.507812 4.980469 14.914062 5.820312 15.929688 C 6.664062 16.945312 6.996094 17.222656 7.679688 17.484375 C 8.34375 17.734375 8.503906 17.828125 9.101562 18.277344 C 9.6875 18.71875 9.921875 18.859375 10.078125 18.859375 C 10.246094 18.859375 10.25 18.75 10.085938 18.429688 C 9.898438 18.054688 9.53125 17.597656 9.285156 17.4375 C 9.164062 17.359375 8.882812 17.222656 8.652344 17.136719 C 8.394531 17.039062 8.09375 16.859375 7.859375 16.667969 C 7.347656 16.25 7.03125 16.039062 6.539062 15.789062 C 6.046875 15.539062 5.8125 15.328125 6.25 15.515625 C 6.460938 15.613281 6.539062 15.625 6.605469 15.570312 C 6.671875 15.515625 6.765625 15.5625 7.09375 15.800781 C 7.316406 15.964844 7.515625 16.101562 7.535156 16.101562 C 7.554688 16.101562 7.570312 16.042969 7.570312 15.972656 C 7.570312 15.867188 7.640625 15.914062 7.96875 16.226562 C 8.585938 16.820312 9.273438 17.234375 9.460938 17.121094 C 9.546875 17.070312 8.695312 16.21875 8.140625 15.804688 C 7.890625 15.617188 7.523438 15.316406 7.320312 15.140625 C 7.121094 14.960938 6.761719 14.679688 6.523438 14.519531 C 6.109375 14.234375 6.078125 14.222656 5.695312 14.222656 C 5.179688 14.222656 4.78125 14.097656 3.359375 13.488281 C 2.203125 12.992188 1.984375 12.875 2.210938 12.875 C 2.378906 12.875 2.679688 12.984375 3.476562 13.335938 C 4.273438 13.691406 4.929688 13.871094 5.433594 13.871094 C 5.847656 13.871094 5.984375 13.835938 5.984375 13.726562 C 5.984375 13.683594 5.734375 13.414062 5.429688 13.117188 C 4.898438 12.609375 4.855469 12.582031 4.375 12.4375 C 4.054688 12.335938 3.800781 12.21875 3.671875 12.101562 C 3.421875 11.886719 3.402344 11.78125 3.625 11.898438 C 3.890625 12.03125 4.570312 12.238281 4.679688 12.21875 C 4.828125 12.1875 4.46875 11.804688 3.96875 11.46875 C 3.382812 11.074219 2.679688 10.503906 2.746094 10.484375 C 2.777344 10.46875 3.039062 10.59375 3.328125 10.75 C 3.921875 11.070312 4.050781 11.125 4.050781 11.066406 C 4.050781 11.046875 3.800781 10.71875 3.492188 10.351562 C 2.933594 9.671875 2.78125 9.421875 3.117188 9.738281 C 3.34375 9.953125 4.507812 11.25 5.132812 11.992188 C 5.390625 12.296875 5.609375 12.515625 5.621094 12.476562 C 5.632812 12.441406 5.507812 12.070312 5.335938 11.660156 C 4.964844 10.738281 4.90625 10.546875 5.015625 10.640625 C 5.113281 10.722656 5.414062 11.335938 5.871094 12.390625 C 6.3125 13.40625 6.613281 13.84375 7.402344 14.609375 C 8.117188 15.296875 8.644531 15.6875 8.675781 15.539062 C 8.6875 15.484375 8.492188 15.039062 8.246094 14.539062 C 7.851562 13.75 7.734375 13.570312 7.269531 13.054688 C 6.789062 12.519531 5.808594 11.078125 5.8125 10.914062 C 5.816406 10.800781 6.542969 11.601562 6.65625 11.847656 C 6.84375 12.242188 7.054688 12.523438 7.230469 12.617188 C 7.382812 12.695312 7.394531 12.691406 7.394531 12.59375 C 7.394531 12.421875 7.050781 11.757812 6.75 11.347656 C 6.589844 11.132812 6.023438 10.539062 5.492188 10.03125 C 4.957031 9.523438 4.519531 9.082031 4.519531 9.054688 C 4.519531 9.023438 4.601562 9 4.695312 9 C 4.820312 9 4.929688 9.058594 5.054688 9.191406 L 5.234375 9.382812 L 5.199219 9.207031 C 5.101562 8.699219 5.09375 8.621094 5.148438 8.679688 C 5.179688 8.710938 5.28125 8.925781 5.367188 9.15625 C 5.570312 9.695312 5.910156 10.171875 6.265625 10.40625 C 6.496094 10.558594 6.546875 10.578125 6.5625 10.5 C 6.574219 10.445312 6.539062 10.339844 6.492188 10.261719 C 6.4375 10.183594 6.398438 10.089844 6.398438 10.054688 C 6.398438 9.976562 6.585938 10.207031 6.890625 10.65625 C 7.015625 10.84375 7.140625 10.996094 7.167969 10.996094 C 7.269531 10.996094 7.210938 10.777344 6.902344 10 C 6.726562 9.5625 6.597656 9.195312 6.609375 9.179688 C 6.695312 9.089844 7.277344 10.242188 7.277344 10.5 C 7.277344 10.605469 7.335938 10.84375 7.40625 11.023438 C 7.515625 11.3125 7.632812 11.449219 8.269531 12.042969 C 8.671875 12.417969 9.429688 13.136719 9.945312 13.640625 C 10.828125 14.496094 11.289062 14.867188 11.367188 14.789062 C 11.414062 14.742188 11.128906 14.214844 10.734375 13.625 C 10.296875 12.980469 9.78125 12.425781 9.207031 11.988281 C 8.714844 11.613281 8.21875 11.136719 8.21875 11.042969 C 8.21875 10.980469 8.414062 11.117188 8.96875 11.5625 C 9.246094 11.792969 9.570312 11.992188 9.648438 11.992188 C 9.71875 11.992188 9.679688 11.804688 9.570312 11.59375 C 9.40625 11.273438 6.773438 8.632812 6.46875 8.476562 C 5.765625 8.125 4.578125 7.265625 4.578125 7.109375 C 4.578125 7.023438 4.671875 7.070312 5.0625 7.351562 C 5.375 7.578125 5.8125 7.8125 5.8125 7.75 C 5.8125 7.742188 5.585938 7.503906 5.308594 7.21875 C 4.660156 6.542969 4.210938 5.890625 4.390625 5.890625 C 4.414062 5.890625 4.671875 6.15625 4.960938 6.476562 C 5.25 6.796875 5.53125 7.0625 5.585938 7.0625 C 5.640625 7.0625 5.945312 7.375 6.257812 7.753906 C 6.570312 8.132812 7.03125 8.640625 7.28125 8.886719 C 7.753906 9.34375 8.699219 10.054688 8.839844 10.054688 C 9.085938 10.054688 8.78125 9.289062 8.257812 8.59375 C 7.601562 7.726562 6.386719 6.523438 5.734375 6.097656 C 5.617188 6.019531 5.578125 5.953125 5.597656 5.875 C 5.617188 5.796875 5.558594 5.671875 5.417969 5.5 C 5.179688 5.207031 5.195312 5.117188 5.449219 5.296875 C 5.796875 5.546875 5.78125 5.472656 5.3125 4.722656 C 5.101562 4.382812 4.929688 4.085938 4.929688 4.058594 C 4.929688 3.96875 5.300781 4.25 5.585938 4.5625 C 5.902344 4.90625 5.933594 4.867188 5.722656 4.386719 C 5.640625 4.203125 5.585938 4.042969 5.601562 4.03125 C 5.636719 3.992188 6.359375 5.089844 6.898438 6 C 7.359375 6.773438 7.925781 7.488281 8.015625 7.398438 C 8.070312 7.34375 8.007812 7.078125 7.679688 6.039062 L 7.441406 5.273438 L 6.914062 4.742188 C 6.347656 4.167969 6.28125 4.085938 6.28125 3.957031 C 6.28125 3.910156 6.40625 4 6.570312 4.15625 C 6.757812 4.34375 6.890625 4.429688 6.949219 4.40625 C 7.007812 4.382812 7.09375 4.445312 7.199219 4.585938 C 7.289062 4.707031 7.429688 4.882812 7.523438 4.984375 C 7.679688 5.15625 8.164062 6.46875 8.960938 8.914062 C 9.140625 9.460938 9.417969 10.203125 9.578125 10.554688 C 9.738281 10.910156 9.898438 11.265625 9.929688 11.347656 L 9.992188 11.492188 L 10.042969 11.320312 C 10.15625 10.945312 9.953125 9.46875 9.710938 8.851562 C 9.59375 8.566406 9.578125 8.449219 9.613281 8.210938 L 9.65625 7.914062 L 9.882812 8.546875 C 10.101562 9.148438 10.132812 9.207031 10.617188 9.726562 C 10.894531 10.023438 11.304688 10.484375 11.523438 10.75 C 12.136719 11.476562 12.445312 11.625 12.121094 11.039062 C 11.9375 10.703125 11.007812 9.328125 10.105469 8.046875 C 9.3125 6.929688 8.785156 5.976562 8.421875 5.027344 C 7.945312 3.765625 7.9375 3.757812 7.460938 3.578125 C 7.234375 3.492188 7.019531 3.382812 6.980469 3.335938 C 6.867188 3.195312 7.3125 3.226562 7.546875 3.375 C 7.726562 3.484375 7.75 3.484375 7.78125 3.398438 C 7.804688 3.34375 7.789062 3.234375 7.753906 3.15625 C 7.660156 2.945312 7.671875 2.867188 7.78125 2.960938 C 7.835938 3.007812 8.058594 3.414062 8.28125 3.867188 C 8.660156 4.648438 8.679688 4.675781 8.683594 4.445312 C 8.6875 4.3125 8.59375 3.878906 8.476562 3.484375 C 8.363281 3.089844 8.28125 2.738281 8.289062 2.703125 C 8.320312 2.617188 8.519531 3.222656 8.6875 3.890625 C 9.085938 5.484375 10.15625 7.828125 10.734375 8.382812 L 10.914062 8.554688 L 10.914062 8.40625 C 10.914062 8 10.28125 6.542969 10.039062 6.390625 C 10.007812 6.371094 9.949219 6.300781 9.914062 6.238281 C 9.859375 6.132812 9.867188 6.125 10 6.160156 C 10.101562 6.183594 10.152344 6.171875 10.152344 6.125 C 10.152344 6.03125 9.632812 4.648438 9.296875 3.867188 C 8.8125 2.707031 8.785156 2.566406 9.167969 3.121094 C 9.410156 3.472656 9.453125 3.335938 9.25 2.859375 C 9.171875 2.671875 9.117188 2.507812 9.125 2.5 C 9.132812 2.488281 9.199219 2.515625 9.269531 2.554688 C 9.375 2.625 9.402344 2.621094 9.445312 2.546875 C 9.515625 2.4375 9.515625 2.441406 9.730469 2.929688 C 10.0625 3.695312 10.65625 4.761719 10.71875 4.703125 C 10.742188 4.671875 10.554688 4.117188 10.160156 3.0625 C 9.800781 2.109375 9.78125 1.953125 10.054688 2.265625 C 10.199219 2.425781 10.304688 2.667969 10.46875 3.179688 C 10.589844 3.570312 10.796875 4.078125 10.949219 4.339844 C 11.09375 4.59375 11.285156 5.039062 11.367188 5.320312 C 11.511719 5.796875 11.554688 5.867188 11.988281 6.34375 C 12.242188 6.628906 12.640625 7.132812 12.867188 7.46875 C 13.097656 7.804688 13.296875 8.046875 13.308594 8.007812 C 13.398438 7.734375 12.21875 4.960938 11.585938 3.976562 C 11.480469 3.808594 11.15625 3.414062 10.859375 3.09375 C 10.351562 2.539062 10.121094 2.203125 10.164062 2.070312 C 10.179688 2.03125 10.304688 2.15625 10.445312 2.34375 C 10.75 2.734375 11.203125 3.101562 11.28125 3.023438 C 11.375 2.929688 11.164062 2.417969 10.90625 2.105469 C 10.6875 1.839844 10.679688 1.8125 10.789062 1.796875 C 10.859375 1.78125 10.914062 1.726562 10.929688 1.648438 C 10.945312 1.539062 10.96875 1.554688 11.070312 1.757812 C 11.140625 1.882812 11.257812 2.1875 11.328125 2.429688 C 11.398438 2.671875 11.539062 3.039062 11.632812 3.25 C 11.777344 3.578125 11.8125 3.617188 11.863281 3.523438 C 11.90625 3.449219 11.902344 3.304688 11.851562 3.042969 C 11.8125 2.835938 11.796875 2.636719 11.8125 2.59375 C 11.828125 2.554688 11.867188 2.675781 11.910156 2.867188 C 12.144531 4.015625 12.480469 5.097656 12.554688 4.945312 C 12.625 4.808594 12.515625 3.601562 12.390625 3.132812 C 12.21875 2.484375 12.03125 2.019531 11.945312 2.019531 C 11.742188 2.019531 11.414062 1.398438 11.265625 0.746094 C 11.183594 0.382812 11.238281 0.359375 11.378906 0.6875 C 11.46875 0.890625 11.519531 0.945312 11.601562 0.925781 C 11.6875 0.902344 11.726562 0.804688 11.777344 0.484375 C 11.875 -0.128906 11.96875 -0.164062 11.972656 0.40625 C 11.976562 0.917969 12.082031 1.523438 12.230469 1.84375 C 12.28125 1.957031 12.3125 1.992188 12.300781 1.917969 C 12.273438 1.773438 12.40625 1.554688 12.476562 1.625 C 12.535156 1.679688 12.59375 2.144531 12.703125 3.457031 C 12.8125 4.738281 12.859375 5.011719 13.085938 5.6875 L 13.257812 6.210938 L 13.226562 5.742188 C 13.210938 5.484375 13.171875 5.0625 13.140625 4.804688 C 13.109375 4.546875 13.085938 4.273438 13.089844 4.191406 C 13.09375 4.046875 13.097656 4.046875 13.1875 4.226562 C 13.238281 4.332031 13.324219 4.429688 13.382812 4.441406 C 13.453125 4.460938 13.5 4.570312 13.546875 4.847656 C 13.585938 5.054688 13.617188 5.277344 13.617188 5.335938 C 13.617188 5.398438 13.640625 5.492188 13.671875 5.539062 C 13.746094 5.65625 13.972656 5.144531 13.976562 4.84375 C 13.976562 4.726562 13.84375 4.230469 13.679688 3.746094 C 13.515625 3.265625 13.328125 2.601562 13.265625 2.273438 C 13.132812 1.5625 13.039062 1.367188 12.6875 1.039062 C 12.472656 0.832031 12.4375 0.773438 12.496094 0.703125 C 12.585938 0.59375 12.53125 0.492188 12.378906 0.492188 C 12.234375 0.492188 12.234375 0.421875 12.382812 0.289062 C 12.492188 0.1875 12.5 0.195312 12.71875 0.542969 C 12.878906 0.804688 12.96875 0.890625 13.039062 0.871094 C 13.144531 0.835938 13.210938 1 13.441406 1.886719 C 13.511719 2.152344 13.589844 2.371094 13.613281 2.371094 C 13.640625 2.371094 13.675781 2.195312 13.695312 1.976562 C 13.726562 1.667969 13.703125 1.421875 13.585938 0.878906 C 13.507812 0.492188 13.453125 0.167969 13.464844 0.15625 C 13.507812 0.113281 13.65625 0.445312 13.765625 0.816406 C 13.820312 1.007812 13.945312 1.328125 14.046875 1.519531 C 14.292969 2 14.3125 1.8125 14.117188 0.902344 C 13.953125 0.125 13.9375 0.0234375 14.023438 0.0234375 C 14.054688 0.0234375 14.132812 0.214844 14.203125 0.449219 C 14.53125 1.59375 14.925781 2.816406 14.976562 2.867188 C 15.097656 2.992188 14.953125 1.921875 14.75 1.226562 C 14.472656 0.265625 14.46875 0.25 14.640625 0.570312 C 14.757812 0.789062 14.820312 0.84375 14.902344 0.816406 C 14.996094 0.789062 15.023438 0.84375 15.105469 1.328125 C 15.296875 2.421875 15.484375 4.007812 15.523438 4.867188 C 15.574219 5.914062 15.609375 5.867188 15.8125 4.460938 C 16.007812 3.148438 16 2.867188 15.773438 1.953125 C 15.636719 1.398438 15.605469 1.179688 15.652344 1.132812 C 15.703125 1.082031 15.734375 1.160156 15.789062 1.425781 C 15.898438 1.988281 15.972656 1.957031 16.054688 1.3125 C 16.074219 1.136719 16.109375 0.964844 16.125 0.933594 C 16.183594 0.839844 16.242188 1.140625 16.25 1.546875 C 16.257812 2.078125 16.332031 2.164062 16.460938 1.804688 C 16.515625 1.648438 16.589844 1.453125 16.625 1.375 C 16.691406 1.226562 16.691406 1.226562 16.710938 1.429688 C 16.742188 1.695312 16.515625 2.542969 16.304688 2.96875 C 16.148438 3.285156 16.078125 3.71875 16.183594 3.71875 C 16.253906 3.71875 16.910156 3.230469 17.046875 3.078125 C 17.152344 2.957031 17.167969 2.835938 17.195312 1.8125 C 17.210938 1.1875 17.242188 0.65625 17.265625 0.632812 C 17.367188 0.539062 17.398438 0.710938 17.417969 1.40625 C 17.433594 2.015625 17.453125 2.136719 17.527344 2.136719 C 17.632812 2.136719 17.625 2.195312 17.4375 2.957031 C 17.242188 3.742188 17.179688 4.257812 17.140625 5.398438 C 17.101562 6.394531 17.089844 6.476562 16.941406 6.757812 C 16.71875 7.183594 16.726562 7.3125 16.96875 7.089844 L 17.148438 6.917969 L 17.109375 7.179688 C 17.085938 7.328125 17.046875 7.632812 17.023438 7.859375 C 16.996094 8.132812 16.921875 8.390625 16.792969 8.65625 C 16.488281 9.273438 16.40625 10.328125 16.453125 13.136719 C 16.511719 16.703125 16.550781 17.605469 16.648438 17.476562 C 16.863281 17.179688 17.1875 15.78125 17.3125 14.601562 C 17.351562 14.25 17.507812 13.3125 17.664062 12.523438 C 18.148438 10.078125 18.203125 9.3125 18.132812 5.945312 C 18.054688 2.25 18.046875 0.90625 18.117188 0.835938 C 18.203125 0.75 18.230469 0.871094 18.3125 1.800781 C 18.40625 2.851562 18.453125 2.898438 18.601562 2.058594 C 18.640625 1.835938 18.695312 1.679688 18.722656 1.707031 C 18.84375 1.828125 18.78125 2.90625 18.574219 4.277344 C 18.476562 4.929688 18.453125 6.164062 18.539062 6.300781 C 18.585938 6.367188 18.644531 6.285156 18.796875 5.949219 C 19.203125 5.078125 19.480469 3.78125 19.480469 2.789062 C 19.484375 2.34375 19.496094 2.28125 19.625 2.164062 C 19.726562 2.070312 19.78125 1.9375 19.808594 1.730469 C 19.851562 1.414062 19.953125 1.320312 19.953125 1.59375 C 19.949219 1.972656 19.816406 2.890625 19.601562 3.984375 C 19.476562 4.628906 19.34375 5.320312 19.304688 5.519531 C 19.273438 5.71875 19.167969 6.050781 19.078125 6.253906 C 18.882812 6.683594 18.828125 6.890625 18.898438 6.890625 C 18.984375 6.890625 19.191406 6.546875 19.527344 5.847656 C 19.804688 5.273438 19.863281 5.1875 19.882812 5.320312 C 19.90625 5.535156 19.71875 6.109375 19.359375 6.921875 C 19.203125 7.28125 19.070312 7.648438 19.078125 7.742188 L 19.078125 7.914062 L 19.164062 7.726562 C 19.257812 7.515625 19.339844 7.445312 19.390625 7.53125 C 19.414062 7.566406 19.453125 7.59375 19.476562 7.59375 C 19.507812 7.59375 19.71875 7.28125 19.960938 6.902344 C 20.734375 5.664062 20.960938 4.78125 20.742188 3.835938 C 20.59375 3.195312 20.574219 3.015625 20.648438 3.015625 C 20.679688 3.015625 20.75 2.945312 20.792969 2.859375 C 20.867188 2.710938 20.875 2.746094 20.914062 3.34375 C 20.9375 3.695312 20.96875 4.074219 20.992188 4.1875 C 21.023438 4.367188 21.03125 4.375 21.101562 4.28125 C 21.144531 4.21875 21.222656 3.972656 21.277344 3.726562 C 21.410156 3.117188 21.433594 3.085938 21.5625 3.382812 L 21.671875 3.628906 L 21.472656 4.214844 C 21.359375 4.539062 20.960938 5.449219 20.574219 6.242188 C 20.191406 7.03125 19.773438 7.914062 19.648438 8.203125 L 19.414062 8.730469 L 19.402344 9.601562 C 19.390625 10.25 19.40625 10.46875 19.460938 10.46875 C 19.5 10.46875 19.660156 10.304688 19.8125 10.109375 C 20.195312 9.625 20.21875 9.78125 19.871094 10.515625 C 19.726562 10.828125 19.589844 11.167969 19.570312 11.273438 C 19.546875 11.398438 19.382812 11.609375 19.035156 11.960938 C 18.640625 12.351562 18.492188 12.554688 18.335938 12.898438 C 18.117188 13.367188 18.015625 13.742188 18.113281 13.679688 C 18.148438 13.65625 18.339844 13.382812 18.546875 13.074219 C 18.75 12.761719 18.929688 12.53125 18.9375 12.5625 C 18.945312 12.589844 18.902344 12.769531 18.835938 12.960938 C 18.675781 13.429688 18.6875 13.535156 18.871094 13.3125 C 19.589844 12.453125 21.09375 9.273438 21.382812 7.992188 C 21.429688 7.789062 21.554688 7.078125 21.65625 6.421875 C 21.882812 4.9375 22.011719 4.296875 22.207031 3.691406 C 22.476562 2.851562 22.566406 2.890625 22.363281 3.75 C 22.203125 4.421875 22.164062 4.773438 22.234375 4.773438 C 22.269531 4.773438 22.402344 4.570312 22.53125 4.320312 C 22.65625 4.070312 22.765625 3.890625 22.765625 3.921875 C 22.765625 3.953125 22.710938 4.171875 22.644531 4.414062 C 22.546875 4.757812 22.539062 4.859375 22.59375 4.898438 C 22.652344 4.929688 22.640625 5.015625 22.539062 5.257812 C 22.460938 5.429688 22.355469 5.621094 22.296875 5.6875 C 22.234375 5.75 22.160156 5.882812 22.125 5.976562 C 22.042969 6.1875 21.828125 7.417969 21.828125 7.664062 C 21.828125 7.84375 21.828125 7.84375 21.953125 7.734375 C 22.023438 7.671875 22.34375 7.296875 22.671875 6.902344 C 23 6.507812 23.273438 6.207031 23.285156 6.238281 C 23.308594 6.3125 23.179688 6.515625 22.757812 7.0625 C 22.363281 7.585938 22.015625 8.148438 21.964844 8.355469 C 21.945312 8.4375 21.789062 8.65625 21.613281 8.84375 C 21.246094 9.242188 21.1875 9.347656 20.746094 10.4375 C 20.5625 10.890625 20.226562 11.617188 19.996094 12.054688 C 19.25 13.460938 19.132812 13.71875 19.070312 14.015625 C 19.039062 14.179688 19 14.371094 18.976562 14.445312 C 18.957031 14.515625 18.964844 14.574219 18.992188 14.574219 C 19.117188 14.574219 19.691406 14.179688 19.84375 13.984375 C 20.015625 13.773438 20.480469 12.6875 20.703125 11.992188 C 20.765625 11.78125 20.957031 11.183594 21.121094 10.660156 C 21.285156 10.140625 21.449219 9.691406 21.484375 9.671875 C 21.597656 9.601562 21.484375 10.144531 21.234375 10.898438 C 21.109375 11.28125 21.007812 11.617188 21.019531 11.648438 C 21.03125 11.671875 21.234375 11.347656 21.472656 10.921875 C 22.992188 8.21875 23.257812 7.65625 23.625 6.449219 C 23.765625 5.96875 23.78125 5.84375 23.773438 5.011719 C 23.765625 4.117188 23.835938 3.703125 23.917969 4.117188 C 23.976562 4.40625 24.03125 4.394531 24.171875 4.0625 C 24.238281 3.898438 24.304688 3.773438 24.320312 3.789062 C 24.34375 3.8125 24.296875 4.449219 24.203125 5.273438 L 24.171875 5.570312 L 24.375 5.21875 C 24.492188 5.023438 24.695312 4.613281 24.828125 4.304688 C 24.960938 4 25.09375 3.726562 25.117188 3.699219 C 25.140625 3.671875 25.195312 3.753906 25.234375 3.882812 C 25.300781 4.101562 25.296875 4.132812 25.164062 4.316406 C 25.015625 4.515625 24.585938 5.425781 24.585938 5.539062 C 24.585938 5.640625 24.738281 5.601562 24.859375 5.464844 C 24.929688 5.390625 25.113281 5.132812 25.273438 4.890625 C 25.585938 4.421875 25.820312 4.171875 25.738281 4.394531 C 25.617188 4.71875 25.132812 5.523438 24.90625 5.78125 C 24.761719 5.9375 24.644531 6.117188 24.644531 6.171875 C 24.644531 6.328125 24.484375 6.523438 24.234375 6.683594 C 24.050781 6.796875 23.945312 6.960938 23.621094 7.59375 C 23.40625 8.015625 22.976562 8.75 22.664062 9.222656 C 22.28125 9.8125 21.984375 10.355469 21.726562 10.9375 C 21.523438 11.40625 21.15625 12.191406 20.90625 12.683594 C 20.664062 13.175781 20.476562 13.59375 20.496094 13.613281 C 20.558594 13.675781 20.933594 13.40625 21.195312 13.113281 C 21.335938 12.960938 21.761719 12.375 22.148438 11.8125 C 22.53125 11.25 22.949219 10.671875 23.070312 10.53125 C 23.523438 10.015625 24.125 9.0625 24.269531 8.632812 C 24.429688 8.15625 24.527344 8.015625 24.527344 8.257812 C 24.527344 8.34375 24.554688 8.414062 24.582031 8.414062 C 24.640625 8.414062 25.390625 7.4375 25.570312 7.121094 C 25.636719 7.007812 25.734375 6.765625 25.785156 6.578125 C 25.878906 6.25 25.992188 6.128906 25.992188 6.359375 C 25.992188 6.492188 26.109375 6.515625 26.21875 6.40625 C 26.273438 6.351562 26.289062 6.359375 26.289062 6.433594 C 26.289062 6.484375 26.332031 6.554688 26.382812 6.585938 C 26.476562 6.632812 26.46875 6.65625 26.355469 6.820312 C 26.285156 6.914062 26.101562 7.089844 25.949219 7.203125 C 25.5625 7.484375 24.992188 8.179688 24.390625 9.09375 C 23.765625 10.039062 23.75 10.132812 24.238281 9.875 C 24.648438 9.65625 25.273438 9.097656 25.640625 8.625 C 25.78125 8.445312 25.910156 8.296875 25.933594 8.296875 C 25.953125 8.296875 25.960938 8.378906 25.945312 8.480469 L 25.921875 8.664062 L 26.179688 8.523438 C 26.320312 8.445312 26.65625 8.164062 26.925781 7.898438 C 27.359375 7.464844 27.421875 7.421875 27.488281 7.511719 C 27.609375 7.671875 27.851562 7.5625 28.273438 7.164062 C 28.484375 6.964844 28.632812 6.851562 28.609375 6.917969 C 28.585938 6.984375 28.539062 7.109375 28.507812 7.195312 C 28.476562 7.28125 28.320312 7.445312 28.167969 7.554688 C 27.914062 7.742188 27.890625 7.777344 27.890625 7.988281 C 27.902344 8.289062 27.75 8.515625 27.445312 8.648438 C 27.125 8.785156 26.894531 9.035156 26.53125 9.632812 C 26.242188 10.117188 25.949219 10.851562 26.019531 10.921875 C 26.039062 10.941406 26.160156 10.898438 26.289062 10.828125 C 26.417969 10.753906 26.523438 10.71875 26.523438 10.75 C 26.523438 10.78125 26.429688 10.921875 26.320312 11.070312 C 26.09375 11.367188 25.996094 11.578125 25.996094 11.777344 C 25.996094 11.851562 25.929688 12.003906 25.847656 12.125 C 25.664062 12.394531 25.664062 12.425781 25.859375 12.375 C 26.089844 12.320312 26.46875 12.039062 26.6875 11.761719 C 26.859375 11.554688 26.898438 11.53125 26.953125 11.609375 C 27.015625 11.6875 27.085938 11.664062 27.539062 11.441406 C 27.820312 11.300781 28.101562 11.140625 28.164062 11.085938 C 28.242188 11.015625 28.328125 11 28.46875 11.023438 C 28.90625 11.101562 29.222656 10.699219 29.585938 9.617188 C 29.726562 9.195312 29.832031 8.964844 29.890625 8.953125 C 30.03125 8.921875 30.007812 9.101562 29.78125 9.8125 C 29.53125 10.578125 29.53125 10.597656 29.71875 10.550781 C 29.929688 10.5 29.902344 10.574219 29.601562 10.898438 C 29.457031 11.054688 29.339844 11.210938 29.339844 11.25 C 29.339844 11.289062 29.261719 11.460938 29.164062 11.640625 C 29.070312 11.820312 28.992188 12 28.992188 12.042969 C 28.988281 12.085938 29.304688 11.796875 29.6875 11.398438 C 30.367188 10.695312 30.625 10.523438 30.324219 10.980469 C 30.242188 11.101562 30.054688 11.335938 29.90625 11.503906 C 29.480469 11.976562 29.5625 12.003906 30.21875 11.617188 L 30.660156 11.359375 L 30.796875 11.503906 C 30.875 11.585938 30.914062 11.671875 30.886719 11.695312 C 30.859375 11.726562 30.664062 11.773438 30.453125 11.808594 C 29.957031 11.894531 29.484375 12.210938 29.304688 12.582031 C 29.15625 12.882812 28.90625 13.117188 28.78125 13.070312 C 28.726562 13.046875 28.566406 13.179688 28.328125 13.4375 C 28.125 13.65625 27.703125 14.085938 27.390625 14.390625 C 27.074219 14.695312 26.816406 14.960938 26.816406 14.984375 C 26.816406 15.007812 27.039062 15.046875 27.3125 15.070312 C 27.863281 15.113281 28.027344 15.070312 28.492188 14.75 C 28.71875 14.59375 28.757812 14.582031 28.742188 14.671875 C 28.726562 14.765625 28.761719 14.78125 29.066406 14.765625 C 29.492188 14.753906 29.867188 14.632812 30.304688 14.367188 C 30.492188 14.257812 30.65625 14.164062 30.667969 14.164062 C 30.679688 14.164062 30.6875 14.21875 30.6875 14.289062 C 30.6875 14.40625 30.710938 14.414062 30.992188 14.375 C 31.257812 14.335938 31.289062 14.34375 31.222656 14.421875 C 31.070312 14.601562 30.652344 14.742188 30.070312 14.808594 C 29.75 14.84375 29.386719 14.898438 29.265625 14.929688 C 28.804688 15.054688 29.101562 15.195312 29.824219 15.1875 C 30.199219 15.1875 30.28125 15.203125 30.28125 15.277344 C 30.28125 15.328125 30.320312 15.429688 30.375 15.503906 C 30.421875 15.578125 30.449219 15.65625 30.429688 15.675781 C 30.40625 15.695312 30.175781 15.640625 29.910156 15.554688 C 29.382812 15.382812 28.703125 15.257812 28.273438 15.25 C 28.0625 15.25 27.96875 15.28125 27.882812 15.375 C 27.773438 15.484375 27.734375 15.492188 27.480469 15.445312 C 27.089844 15.367188 26.757812 15.421875 26.390625 15.625 C 26.023438 15.828125 25.773438 15.890625 25.679688 15.8125 C 25.570312 15.726562 25.132812 15.945312 25.085938 16.109375 C 25.035156 16.28125 24.648438 16.6875 24.542969 16.6875 C 24.484375 16.6875 24.46875 16.757812 24.480469 16.933594 C 24.503906 17.246094 24.546875 17.257812 25.554688 17.265625 C 26.039062 17.269531 26.46875 17.304688 26.734375 17.367188 C 27.273438 17.496094 27.582031 17.445312 28.15625 17.148438 L 28.601562 16.917969 L 28.371094 17.15625 L 28.136719 17.398438 L 28.371094 17.402344 C 28.5 17.40625 29.1875 17.410156 29.898438 17.414062 C 30.761719 17.417969 31.226562 17.445312 31.304688 17.488281 C 31.410156 17.550781 31.402344 17.5625 31.214844 17.59375 C 31.101562 17.613281 30.65625 17.621094 30.21875 17.613281 L 29.429688 17.597656 L 29.078125 17.84375 C 28.816406 18.027344 28.511719 18.160156 27.914062 18.351562 C 27.472656 18.492188 27.109375 18.601562 27.109375 18.589844 C 27.109375 18.503906 27.722656 18.136719 28.039062 18.03125 C 28.441406 17.898438 28.578125 17.828125 28.578125 17.734375 C 28.578125 17.707031 28.132812 17.6875 27.59375 17.6875 C 27.050781 17.6875 26.289062 17.644531 25.90625 17.597656 C 25.519531 17.546875 25.0625 17.507812 24.898438 17.507812 C 24.613281 17.507812 24.582031 17.523438 24.496094 17.6875 C 24.445312 17.789062 24.3125 17.921875 24.203125 17.988281 C 23.925781 18.148438 23.917969 18.402344 24.183594 18.539062 C 24.390625 18.644531 25.484375 18.890625 26.03125 18.949219 C 26.34375 18.984375 26.421875 18.96875 26.703125 18.828125 L 27.023438 18.667969 L 26.882812 18.820312 C 26.703125 19.015625 26.75 19.125 27.03125 19.171875 C 27.5625 19.257812 27.835938 19.21875 28.199219 19 C 28.390625 18.882812 28.65625 18.738281 28.789062 18.679688 C 29.046875 18.570312 29.574219 18.46875 29.574219 18.527344 C 29.574219 18.546875 29.4375 18.632812 29.265625 18.71875 C 28.929688 18.890625 28.578125 19.140625 28.578125 19.207031 C 28.578125 19.261719 29.523438 19.429688 30.101562 19.476562 C 30.679688 19.523438 30.722656 19.539062 30.628906 19.652344 C 30.570312 19.726562 30.570312 19.769531 30.632812 19.886719 C 30.671875 19.96875 30.695312 20.042969 30.679688 20.058594 C 30.667969 20.070312 30.421875 19.984375 30.128906 19.867188 C 29.65625 19.671875 29.546875 19.652344 29.007812 19.640625 C 28.679688 19.632812 28.257812 19.601562 28.070312 19.566406 C 27.886719 19.53125 27.523438 19.503906 27.269531 19.503906 C 26.96875 19.503906 26.367188 19.421875 25.554688 19.261719 C 24.820312 19.117188 24.238281 19.035156 24.148438 19.058594 C 23.875 19.125 23.160156 19.875 22.863281 20.394531 C 22.714844 20.660156 22.59375 20.898438 22.59375 20.921875 C 22.59375 21.003906 23.023438 21.082031 24.203125 21.207031 C 25.390625 21.335938 25.851562 21.332031 26.523438 21.195312 C 26.808594 21.136719 26.890625 21.140625 27.140625 21.242188 L 27.429688 21.351562 L 26.640625 21.382812 C 26.203125 21.402344 25.796875 21.445312 25.730469 21.484375 C 25.617188 21.546875 25.617188 21.550781 25.773438 21.609375 C 26.113281 21.738281 27.820312 22.085938 28.117188 22.085938 C 28.140625 22.085938 28.164062 22.109375 28.164062 22.140625 C 28.164062 22.171875 28.023438 22.210938 27.84375 22.234375 C 27.664062 22.257812 27.523438 22.296875 27.523438 22.328125 C 27.523438 22.359375 27.710938 22.507812 27.945312 22.65625 C 28.261719 22.863281 28.515625 22.972656 28.914062 23.074219 C 29.296875 23.171875 29.457031 23.242188 29.457031 23.304688 C 29.457031 23.375 29.402344 23.386719 29.171875 23.359375 C 28.875 23.324219 28.285156 23.078125 27.066406 22.492188 C 26.429688 22.1875 26.347656 22.164062 26.347656 22.265625 C 26.347656 22.40625 26.320312 22.40625 26.109375 22.257812 C 25.164062 21.585938 23.261719 21.289062 22.1875 21.644531 C 21.722656 21.796875 21.59375 21.875 21.59375 22.007812 C 21.59375 22.054688 21.761719 22.324219 21.96875 22.609375 C 22.171875 22.898438 22.4375 23.296875 22.550781 23.503906 C 22.792969 23.9375 22.894531 24.039062 23.203125 24.171875 C 23.488281 24.289062 23.949219 24.289062 24.855469 24.175781 C 25.542969 24.085938 25.820312 24.09375 25.820312 24.203125 C 25.820312 24.234375 25.753906 24.257812 25.675781 24.257812 C 25.46875 24.257812 25.445312 24.34375 25.617188 24.460938 C 25.742188 24.539062 25.765625 24.585938 25.734375 24.714844 C 25.710938 24.800781 25.683594 24.878906 25.671875 24.890625 C 25.664062 24.898438 25.515625 24.835938 25.34375 24.742188 C 25.070312 24.601562 24.960938 24.578125 24.554688 24.578125 C 24.0625 24.578125 23.765625 24.632812 23.765625 24.71875 C 23.765625 24.75 23.851562 24.886719 23.957031 25.023438 C 24.09375 25.207031 24.308594 25.359375 24.757812 25.601562 C 25.335938 25.914062 26.007812 26.429688 25.929688 26.511719 C 25.910156 26.53125 25.675781 26.386719 25.414062 26.191406 C 25.148438 25.992188 24.863281 25.808594 24.78125 25.777344 C 24.609375 25.710938 24.335938 25.703125 24.363281 25.765625 C 24.375 25.789062 24.476562 26.015625 24.597656 26.265625 C 24.878906 26.859375 24.90625 26.953125 24.804688 26.953125 C 24.714844 26.953125 24.667969 26.898438 23.652344 25.578125 C 22.898438 24.59375 22.605469 24.257812 22.515625 24.257812 C 22.484375 24.257812 22.46875 24.429688 22.488281 24.664062 C 22.523438 25.128906 22.789062 25.726562 23.382812 26.6875 C 23.5625 26.972656 23.707031 27.234375 23.703125 27.273438 C 23.703125 27.304688 23.398438 27.027344 23.023438 26.648438 C 22.652344 26.273438 22.3125 25.953125 22.273438 25.9375 C 22.21875 25.914062 22.1875 25.65625 22.164062 25.039062 C 22.125 24.070312 22.023438 23.5625 21.78125 23.121094 C 21.445312 22.492188 20.960938 22.445312 20.382812 22.976562 C 19.972656 23.351562 19.25 24.242188 19.25 24.371094 C 19.25 24.433594 19.390625 24.605469 19.566406 24.757812 C 19.757812 24.921875 19.871094 25.0625 19.851562 25.113281 C 19.8125 25.21875 20.554688 25.960938 21.140625 26.386719 C 21.390625 26.570312 21.59375 26.734375 21.59375 26.75 C 21.59375 26.84375 21.277344 26.75 20.992188 26.570312 C 20.804688 26.460938 20.507812 26.273438 20.320312 26.164062 C 20.140625 26.046875 19.9375 25.957031 19.875 25.957031 C 19.683594 25.957031 19.78125 26.335938 20.210938 27.230469 C 20.421875 27.679688 20.597656 28.078125 20.597656 28.117188 C 20.597656 28.261719 20.484375 28.179688 20.304688 27.890625 C 20.128906 27.621094 20.007812 27.359375 19.339844 25.835938 C 19.054688 25.1875 18.90625 24.988281 18.726562 25.046875 C 18.3125 25.179688 17.5 27.289062 17.335938 29.003906 C 17.234375 30.109375 17.382812 30.890625 17.820312 31.480469 C 17.96875 31.679688 17.929688 31.78125 17.671875 31.902344 C 17.492188 31.984375 17.226562 32 15.800781 32 C 14.242188 32 14.28125 31.992188 14.113281 31.882812 Z M 17.367188 24.71875 C 17.601562 24.359375 17.703125 24.039062 17.640625 23.878906 C 17.625 23.832031 17.546875 23.75 17.464844 23.699219 C 17.351562 23.625 17.292969 23.617188 17.195312 23.671875 C 17.019531 23.765625 16.960938 23.964844 16.960938 24.460938 C 16.960938 25.195312 17.03125 25.242188 17.367188 24.71875 Z M 13.953125 22.6875 C 13.90625 22.054688 13.800781 21.820312 13.515625 21.734375 C 13.390625 21.695312 13.210938 21.671875 13.109375 21.6875 L 12.929688 21.703125 L 12.992188 21.953125 C 13.039062 22.125 13.1875 22.355469 13.460938 22.671875 C 13.679688 22.929688 13.890625 23.140625 13.921875 23.140625 C 13.960938 23.140625 13.972656 22.976562 13.953125 22.6875 Z M 18.015625 22.90625 C 18.015625 22.710938 17.929688 22.675781 17.84375 22.839844 C 17.804688 22.914062 17.804688 22.96875 17.851562 23.015625 C 17.964844 23.125 18.015625 23.09375 18.015625 22.90625 Z M 19.757812 22.105469 C 20.515625 21.53125 21.84375 20.34375 22.164062 19.953125 C 22.484375 19.570312 22.492188 19.46875 22.199219 19.59375 C 22.078125 19.640625 21.949219 19.671875 21.910156 19.65625 C 21.8125 19.617188 20.953125 20.039062 20.46875 20.363281 C 20.195312 20.542969 20.070312 20.664062 20.070312 20.746094 C 20.070312 20.8125 19.953125 21.015625 19.8125 21.195312 C 19.488281 21.617188 19.242188 22.320312 19.417969 22.320312 C 19.449219 22.320312 19.601562 22.222656 19.757812 22.105469 Z M 17.515625 21.871094 C 17.648438 21.785156 17.96875 21.542969 18.234375 21.335938 C 18.640625 21.011719 18.734375 20.90625 18.828125 20.65625 C 18.976562 20.25 19.070312 19.621094 19.070312 19 L 19.070312 18.488281 L 18.945312 18.601562 C 18.757812 18.773438 17.992188 19.800781 17.75 20.214844 C 17.535156 20.582031 17.242188 21.390625 17.167969 21.804688 C 17.121094 22.078125 17.1875 22.089844 17.515625 21.871094 Z M 10.898438 21.320312 C 11.054688 21.289062 11.21875 21.234375 11.265625 21.203125 C 11.34375 21.15625 11.34375 21.140625 11.265625 21.066406 C 11.21875 21.019531 11.011719 20.914062 10.808594 20.828125 L 10.4375 20.671875 L 9.757812 20.765625 C 9.382812 20.820312 9.046875 20.875 9.015625 20.894531 C 8.949219 20.9375 9.402344 21.117188 9.945312 21.265625 C 10.433594 21.394531 10.527344 21.398438 10.898438 21.320312 Z M 13.429688 21.167969 C 13.78125 21.101562 13.648438 20.789062 12.875 19.851562 C 12.453125 19.34375 12.046875 18.980469 11.507812 18.632812 C 11.113281 18.375 10.917969 18.335938 10.800781 18.476562 C 10.703125 18.585938 10.828125 18.84375 11.46875 19.914062 C 12.148438 21.039062 12.222656 21.132812 12.453125 21.164062 C 12.789062 21.203125 13.242188 21.207031 13.429688 21.171875 Z M 14.574219 20.453125 C 14.546875 19.421875 13.589844 17.515625 12.539062 16.40625 C 12.3125 16.171875 11.804688 15.742188 11.40625 15.457031 C 11.007812 15.164062 10.179688 14.460938 9.539062 13.859375 C 8.195312 12.605469 7.804688 12.3125 7.804688 12.550781 C 7.804688 12.8125 8.871094 15.148438 9.378906 16.007812 C 9.921875 16.921875 10.308594 17.371094 10.601562 17.425781 C 10.710938 17.445312 10.820312 17.449219 10.835938 17.429688 C 10.875 17.394531 10.640625 17.046875 10.03125 16.230469 C 9.546875 15.59375 9.15625 14.90625 9.230469 14.832031 C 9.339844 14.722656 10.25 15.847656 10.945312 16.953125 C 11.070312 17.144531 11.539062 17.6875 11.992188 18.15625 C 12.960938 19.148438 13.429688 19.679688 14.023438 20.429688 C 14.515625 21.0625 14.585938 21.066406 14.574219 20.453125 Z M 20.023438 20.054688 C 20.128906 20 20.570312 19.730469 21.007812 19.457031 C 21.90625 18.886719 22.59375 18.546875 23.0625 18.429688 C 23.34375 18.359375 23.398438 18.320312 23.488281 18.132812 C 23.546875 18.007812 23.601562 17.8125 23.605469 17.695312 L 23.617188 17.480469 L 23.140625 17.429688 C 22.683594 17.378906 22.65625 17.382812 22.289062 17.554688 C 22.085938 17.65625 21.796875 17.765625 21.65625 17.796875 C 21.375 17.859375 21.054688 18.132812 20.753906 18.574219 C 20.648438 18.726562 20.335938 19.089844 20.054688 19.386719 C 19.652344 19.808594 19.539062 19.960938 19.539062 20.09375 C 19.539062 20.25 19.554688 20.257812 19.6875 20.207031 C 19.765625 20.179688 19.921875 20.109375 20.023438 20.054688 Z M 18.054688 18.082031 C 18.445312 17.671875 19.085938 16.765625 19.320312 16.296875 C 19.519531 15.886719 19.566406 15.726562 19.59375 15.34375 C 19.625 14.9375 19.617188 14.886719 19.539062 14.929688 C 19.375 15.03125 19.1875 15.210938 19.1875 15.273438 C 19.1875 15.304688 19.027344 15.511719 18.832031 15.730469 C 18.285156 16.34375 18.113281 16.746094 17.804688 18.140625 C 17.765625 18.320312 17.84375 18.304688 18.054688 18.082031 Z M 14.679688 17.554688 C 14.644531 17.222656 14.601562 16.773438 14.582031 16.550781 C 14.539062 16.007812 14.3125 15.328125 14.050781 14.945312 C 13.683594 14.414062 12.804688 13.933594 11.929688 13.785156 L 11.6875 13.742188 L 11.792969 14.042969 C 11.9375 14.441406 14.632812 18.265625 14.714844 18.1875 C 14.734375 18.171875 14.71875 17.882812 14.679688 17.554688 Z M 23.757812 17.019531 C 23.898438 16.835938 24.585938 14.480469 24.585938 14.164062 C 24.585938 13.933594 24.523438 13.914062 24.28125 14.0625 C 23.992188 14.242188 23.574219 14.757812 23.320312 15.25 C 23.199219 15.476562 22.933594 15.90625 22.726562 16.210938 C 22.296875 16.84375 22.296875 16.84375 22.855469 17 C 23.421875 17.15625 23.640625 17.160156 23.757812 17.019531 Z M 21.429688 16.628906 C 21.890625 16.628906 21.953125 16.617188 22.121094 16.476562 C 22.234375 16.382812 22.433594 16.054688 22.636719 15.640625 C 22.921875 15.058594 22.976562 14.902344 22.992188 14.5625 C 23.015625 14.171875 23.015625 14.164062 22.867188 14.164062 C 22.578125 14.164062 21.335938 15.414062 21.117188 15.917969 C 21.054688 16.058594 20.925781 16.273438 20.828125 16.398438 C 20.621094 16.660156 20.613281 16.710938 20.789062 16.664062 C 20.859375 16.648438 21.148438 16.632812 21.429688 16.628906 Z M 20.476562 15.5625 C 20.863281 15.332031 22.183594 14.207031 22.625 13.738281 C 22.941406 13.398438 23.132812 13.132812 23.3125 12.765625 C 23.449219 12.484375 23.675781 12.109375 23.8125 11.921875 C 23.964844 11.726562 24.179688 11.304688 24.347656 10.890625 C 24.5 10.507812 24.660156 10.140625 24.695312 10.070312 C 24.8125 9.851562 24.640625 9.910156 24.230469 10.21875 C 24.027344 10.371094 23.722656 10.578125 23.554688 10.671875 C 23.273438 10.835938 23.167969 10.96875 22.265625 12.3125 C 21.667969 13.210938 21.222656 13.820312 21.117188 13.882812 C 21.023438 13.941406 20.949219 14.023438 20.949219 14.070312 C 20.949219 14.117188 20.835938 14.285156 20.703125 14.4375 C 20.445312 14.734375 20.222656 15.179688 20.164062 15.5 C 20.125 15.726562 20.1875 15.742188 20.476562 15.5625 Z M 25.6875 14.859375 C 25.921875 14.59375 26.140625 14.359375 26.171875 14.351562 C 26.265625 14.320312 26.238281 14.503906 26.117188 14.746094 C 26.050781 14.871094 26.015625 14.988281 26.035156 15.007812 C 26.125 15.09375 26.695312 14.679688 27.164062 14.1875 C 27.683594 13.644531 28.367188 12.695312 28.554688 12.257812 C 28.671875 11.984375 28.820312 11.394531 28.78125 11.355469 C 28.703125 11.28125 27.730469 11.617188 27.285156 11.871094 C 27.011719 12.027344 26.601562 12.25 26.375 12.367188 C 25.847656 12.648438 25.71875 12.757812 25.605469 13.03125 C 25.554688 13.15625 25.382812 13.46875 25.21875 13.734375 C 24.957031 14.164062 24.914062 14.28125 24.816406 14.871094 C 24.753906 15.230469 24.71875 15.550781 24.738281 15.582031 C 24.804688 15.695312 25.273438 15.34375 25.6875 14.859375 Z M 14.960938 14.03125 C 15.121094 13.1875 15.117188 13.011719 14.890625 12.445312 C 14.664062 11.871094 13.460938 9.4375 13.21875 9.054688 C 13.03125 8.769531 12.222656 8.117188 11.824219 7.9375 C 11.695312 7.878906 11.488281 7.828125 11.363281 7.828125 C 11.140625 7.828125 11.136719 7.828125 11.171875 8.019531 C 11.21875 8.289062 11.78125 9.375 12.546875 10.691406 C 12.910156 11.316406 13.527344 12.464844 13.914062 13.246094 C 14.304688 14.023438 14.652344 14.695312 14.6875 14.742188 C 14.78125 14.855469 14.820312 14.753906 14.960938 14.03125 Z M 13.203125 13.410156 C 13.203125 13.195312 10.585938 10.234375 10.394531 10.234375 C 10.3125 10.234375 10.273438 10.839844 10.332031 11.28125 C 10.390625 11.765625 10.648438 12.578125 10.820312 12.828125 C 11.007812 13.109375 11.296875 13.21875 12.125 13.335938 C 13.011719 13.464844 13.203125 13.476562 13.203125 13.410156 Z M 15.984375 13.160156 C 16.039062 12.875 16.023438 11.539062 15.960938 10.871094 C 15.820312 9.53125 15.605469 8.835938 14.789062 7.125 C 14.472656 6.460938 14.195312 5.832031 14.171875 5.726562 C 14.148438 5.609375 14.109375 5.546875 14.078125 5.578125 C 13.960938 5.699219 13.792969 6.71875 13.78125 7.394531 L 13.765625 8.09375 L 14.21875 9.296875 C 14.6875 10.539062 14.757812 10.695312 14.8125 10.636719 C 14.835938 10.617188 14.867188 10.386719 14.886719 10.125 C 14.90625 9.859375 14.945312 9.628906 14.96875 9.613281 C 15.070312 9.550781 15.382812 10.34375 15.488281 10.925781 C 15.523438 11.109375 15.578125 11.5625 15.609375 11.929688 C 15.671875 12.617188 15.824219 13.34375 15.902344 13.34375 C 15.925781 13.34375 15.960938 13.261719 15.984375 13.160156 Z M 24.695312 11.4375 C 25.0625 10.835938 25.234375 10.5 25.234375 10.375 C 25.234375 10.289062 25.210938 10.289062 25.09375 10.40625 C 24.945312 10.539062 24.28125 11.785156 24.207031 12.054688 L 24.167969 12.199219 L 24.289062 12.054688 C 24.359375 11.972656 24.539062 11.695312 24.695312 11.4375 Z M 27.015625 8.367188 C 27.179688 8.152344 27.082031 8.148438 26.757812 8.355469 C 26.472656 8.539062 25.9375 9.078125 25.9375 9.183594 C 25.9375 9.253906 26.890625 8.535156 27.015625 8.367188 Z M 16.234375 8.113281 C 16.398438 7.195312 16.367188 4.34375 16.199219 4.453125 C 16.113281 4.507812 16.027344 5.199219 15.996094 6.097656 C 15.976562 6.582031 15.921875 7.171875 15.875 7.40625 C 15.78125 7.84375 15.8125 8.289062 15.96875 8.699219 C 16.019531 8.828125 16.039062 8.839844 16.082031 8.757812 C 16.109375 8.707031 16.179688 8.414062 16.234375 8.113281 Z M 12.324219 7.671875 C 12.324219 7.648438 12.0625 7.289062 11.742188 6.867188 C 11.425781 6.445312 10.964844 5.792969 10.722656 5.421875 C 10.480469 5.050781 10.203125 4.65625 10.101562 4.542969 L 9.921875 4.335938 L 9.921875 4.535156 C 9.917969 4.742188 10.421875 6.007812 10.507812 6.007812 C 10.53125 6.007812 10.570312 5.984375 10.59375 5.953125 C 10.613281 5.917969 10.648438 5.890625 10.679688 5.890625 C 10.734375 5.890625 11.3125 6.753906 11.488281 7.09375 C 11.617188 7.351562 11.738281 7.476562 12 7.613281 C 12.1875 7.710938 12.320312 7.734375 12.320312 7.671875 Z M 15.03125 5.585938 C 15.058594 4.660156 14.996094 4.066406 14.8125 3.484375 C 14.578125 2.726562 14.109375 1.914062 13.984375 2.039062 C 13.929688 2.09375 13.949219 3.273438 14.011719 3.546875 C 14.050781 3.707031 14.085938 3.746094 14.179688 3.734375 C 14.296875 3.71875 14.3125 3.757812 14.375 4.320312 C 14.472656 5.101562 14.820312 6.242188 14.96875 6.242188 C 14.992188 6.242188 15.023438 5.945312 15.03125 5.585938 Z M 16.867188 4.230469 C 16.949219 3.839844 16.960938 3.695312 16.90625 3.648438 C 16.855469 3.59375 16.804688 3.617188 16.6875 3.726562 C 16.550781 3.867188 16.542969 3.898438 16.601562 4.109375 C 16.636719 4.234375 16.664062 4.453125 16.664062 4.597656 C 16.664062 4.976562 16.75 4.828125 16.867188 4.230469 Z M 7.570312 27.140625 C 7.570312 27.0625 7.804688 26.875 7.84375 26.914062 C 7.867188 26.9375 7.835938 27.007812 7.777344 27.070312 C 7.664062 27.195312 7.570312 27.226562 7.570312 27.140625 Z M 22.25 26.273438 C 22.273438 26.140625 22.445312 26.125 22.445312 26.25 C 22.445312 26.296875 22.398438 26.347656 22.335938 26.359375 C 22.257812 26.375 22.234375 26.351562 22.25 26.273438 Z M 26.769531 23.039062 C 26.632812 23.015625 26.46875 22.765625 26.546875 22.6875 C 26.566406 22.667969 26.683594 22.746094 26.804688 22.867188 C 26.921875 22.984375 26.992188 23.078125 26.960938 23.078125 C 26.929688 23.070312 26.84375 23.054688 26.769531 23.039062 Z M 29.953125 22.523438 C 29.007812 22.25 29.039062 22.160156 30 22.402344 C 30.507812 22.53125 31.132812 22.789062 30.921875 22.78125 C 30.875 22.78125 30.4375 22.664062 29.953125 22.523438 Z M 31.125 19.617188 C 31.105469 19.582031 31.113281 19.523438 31.148438 19.492188 C 31.226562 19.414062 31.410156 19.480469 31.378906 19.578125 C 31.34375 19.675781 31.179688 19.703125 31.125 19.617188 Z M 1.335938 19.171875 C 1.3125 19.152344 1.308594 19.117188 1.324219 19.089844 C 1.359375 19.03125 1.585938 19.09375 1.585938 19.15625 C 1.585938 19.21875 1.390625 19.226562 1.335938 19.171875 Z M 30.203125 18.605469 C 30.019531 18.570312 29.867188 18.527344 29.867188 18.503906 C 29.867188 18.453125 30.441406 18.339844 30.921875 18.300781 L 31.304688 18.269531 L 31.070312 18.359375 C 30.941406 18.40625 30.789062 18.5 30.738281 18.566406 C 30.683594 18.632812 30.617188 18.679688 30.59375 18.671875 C 30.5625 18.671875 30.390625 18.640625 30.203125 18.605469 Z M 1.234375 17.203125 C 0.890625 17.128906 0.828125 17.0625 1.054688 17.019531 C 1.257812 16.976562 1.65625 17.09375 1.6875 17.203125 C 1.71875 17.285156 1.609375 17.289062 1.234375 17.203125 Z M 29.609375 17.164062 C 29.5625 17.085938 29.847656 16.980469 30.105469 16.980469 C 30.328125 16.980469 30.75 17.113281 30.75 17.183594 C 30.75 17.234375 29.640625 17.21875 29.609375 17.164062 Z M 30.953125 15.867188 C 30.929688 15.835938 30.957031 15.808594 31.007812 15.808594 C 31.058594 15.808594 31.101562 15.835938 31.101562 15.867188 C 31.101562 15.898438 31.074219 15.925781 31.046875 15.925781 C 31.015625 15.925781 30.972656 15.898438 30.953125 15.867188 Z M 4.050781 15.28125 C 3.828125 15.09375 3.890625 15.046875 4.171875 15.195312 C 4.265625 15.242188 4.34375 15.320312 4.34375 15.367188 C 4.34375 15.492188 4.28125 15.476562 4.050781 15.28125 Z M 1.890625 15.046875 C 1.480469 14.898438 1.113281 14.671875 1.242188 14.648438 C 1.34375 14.625 2.335938 15.011719 2.433594 15.109375 C 2.53125 15.203125 2.222656 15.164062 1.890625 15.046875 Z M 0.671875 14.335938 C 0.609375 14.234375 0.679688 14.21875 0.796875 14.3125 C 0.898438 14.382812 0.898438 14.398438 0.8125 14.398438 C 0.757812 14.398438 0.695312 14.371094 0.671875 14.335938 Z M 2.890625 11.519531 C 2.757812 11.46875 2.71875 11.378906 2.8125 11.324219 C 2.863281 11.289062 3.09375 11.507812 3.046875 11.546875 C 3.035156 11.558594 2.964844 11.546875 2.890625 11.519531 Z M 27.226562 10.71875 C 27.347656 10.371094 27.488281 9.992188 27.539062 9.882812 L 27.628906 9.675781 L 27.632812 9.867188 C 27.640625 10.070312 27.691406 10.09375 27.878906 9.996094 C 27.945312 9.960938 28.039062 9.941406 28.085938 9.953125 C 28.214844 9.976562 27.777344 10.527344 27.625 10.527344 C 27.554688 10.527344 27.515625 10.5625 27.523438 10.628906 C 27.53125 10.6875 27.53125 10.765625 27.527344 10.804688 C 27.519531 10.890625 27.117188 11.347656 27.046875 11.347656 C 27.023438 11.347656 27.101562 11.0625 27.226562 10.71875 Z M 24.703125 7.429688 C 24.707031 7.359375 24.9375 6.648438 24.988281 6.554688 C 25.078125 6.398438 25.113281 6.5625 25.046875 6.804688 C 24.949219 7.164062 24.703125 7.613281 24.703125 7.429688 Z M 7.402344 4.472656 C 7.304688 4.21875 7.261719 3.9375 7.324219 3.976562 C 7.414062 4.035156 7.570312 4.535156 7.507812 4.574219 C 7.476562 4.59375 7.429688 4.546875 7.402344 4.472656 Z M 25.46875 3.796875 C 25.46875 3.710938 25.578125 3.578125 25.609375 3.609375 C 25.65625 3.65625 25.585938 3.835938 25.519531 3.835938 C 25.492188 3.835938 25.46875 3.820312 25.46875 3.796875 Z M 10.507812 1.570312 C 10.382812 1.40625 10.34375 1.28125 10.445312 1.34375 C 10.511719 1.382812 10.699219 1.726562 10.65625 1.726562 C 10.640625 1.726562 10.578125 1.65625 10.507812 1.570312 Z M 10.507812 1.570312 "/></g></svg>
