<svg width="64" height="64" viewBox="0 0 64 64" version="1.1"><defs><linearGradient id="linear-pattern-0" gradientUnits="userSpaceOnUse" x1="0" y1="0" x2="0" y2="1" gradientTransform="matrix(60, 0, 0, 56, 0, 4)"><stop offset="0" stop-color="#00983a" stop-opacity="1"/><stop offset="1" stop-color="#004a1c" stop-opacity="1"/></linearGradient></defs><path fill="url(#linear-pattern-0)" fill-opacity="1" d="M 36.21875 2.050781 L 62.027344 27.605469 C 64.402344 29.957031 64.417969 33.785156 62.058594 36.15625 L 36.460938 61.917969 C 34.105469 64.289062 30.269531 64.304688 27.894531 61.949219 L 2.085938 36.394531 C -0.289062 34.042969 -0.304688 30.214844 2.050781 27.84375 L 27.652344 2.082031 C 30.007812 -0.289062 33.84375 -0.304688 36.21875 2.050781 Z M 36.21875 2.050781 " /><g transform="matrix(1.0075098,0,0,1.0032698,16.221436,16.077397)"><path fill-rule="nonzero" fill="rgb(100%, 100%, 100%)" fill-opacity="1" d="M 14.121094 1.039062 L 11.40625 7.734375 C 5.003906 8.953125 0.640625 12.601562 0.640625 16.734375 C 0.640625 19.21875 2.234375 21.601562 5.070312 23.367188 L 1.914062 31.171875 L 8.90625 31.171875 L 10.96875 25.640625 C 12.554688 25.976562 14.226562 26.148438 15.910156 26.148438 C 24.347656 26.148438 31.179688 21.929688 31.179688 16.734375 C 31.179688 14.4375 29.820312 12.226562 27.359375 10.507812 C 27.363281 10.488281 27.363281 10.46875 27.363281 10.453125 C 27.363281 9.414062 26.507812 8.570312 25.453125 8.570312 C 24.402344 8.570312 23.546875 9.414062 23.546875 10.453125 C 23.546875 11.496094 24.402344 12.335938 25.453125 12.335938 C 25.851562 12.335938 26.238281 12.214844 26.5625 11.988281 C 27.914062 13.210938 28.636719 14.640625 28.636719 16.101562 C 28.636719 20.265625 22.9375 23.636719 15.910156 23.636719 C 14.53125 23.636719 13.160156 23.507812 11.855469 23.246094 L 15.910156 12.335938 L 19.519531 22.046875 C 21.554688 21.660156 23.328125 20.976562 24.644531 20.109375 C 24.808594 20.003906 24.953125 19.898438 25.101562 19.78125 L 17.183594 1.039062 Z M 10.816406 9.203125 L 6.078125 20.882812 C 4.207031 19.539062 3.183594 17.851562 3.183594 16.101562 C 3.183594 13.109375 6.179688 10.398438 10.816406 9.203125 Z M 27.132812 24.59375 C 25.457031 25.589844 23.476562 26.351562 21.296875 26.828125 L 22.910156 31.171875 L 29.910156 31.171875 Z M 27.132812 24.59375 "/></g></svg>
