<svg width="64" height="64" viewBox="0 0 64 64" version="1.1"><defs><linearGradient id="linear-pattern-0" gradientUnits="userSpaceOnUse" x1="0" y1="0" x2="0" y2="1" gradientTransform="matrix(60, 0, 0, 56, 0, 4)"><stop offset="0" stop-color="#7795ab" stop-opacity="1"/><stop offset="1" stop-color="#3b4f5f" stop-opacity="1"/></linearGradient></defs><path fill="url(#linear-pattern-0)" fill-opacity="1" d="M 36.21875 2.050781 L 62.027344 27.605469 C 64.402344 29.957031 64.417969 33.785156 62.058594 36.15625 L 36.460938 61.917969 C 34.105469 64.289062 30.269531 64.304688 27.894531 61.949219 L 2.085938 36.394531 C -0.289062 34.042969 -0.304688 30.214844 2.050781 27.84375 L 27.652344 2.082031 C 30.007812 -0.289062 33.84375 -0.304688 36.21875 2.050781 Z M 36.21875 2.050781 " /><g transform="matrix(1.0075098,0,0,1.0032698,16.221436,16.077397)"><path fill-rule="nonzero" fill="rgb(100%, 100%, 100%)" fill-opacity="1" d="M 28.695312 0.796875 C 28.234375 0.835938 27.777344 1.0625 27.40625 1.421875 L 19.140625 8.609375 C 18.785156 8.953125 18.585938 9.441406 18.585938 9.929688 C 18.585938 10.164062 18.640625 10.382812 18.726562 10.59375 C 18.726562 10.601562 18.71875 10.617188 18.726562 10.625 C 18.417969 11.28125 18.515625 12.195312 18.515625 14.167969 C 18.515625 14.898438 16.625 15.664062 16.15625 15.664062 C 16.132812 15.664062 16.109375 15.664062 16.085938 15.664062 C 14.578125 15.664062 9.703125 15.882812 8.199219 17.953125 C 6.695312 20.023438 1.046875 29.429688 1.046875 30.804688 C 3.300781 30.804688 19.6875 22.617188 20.53125 21.84375 C 21.546875 20.914062 21.046875 19.03125 20.390625 17.78125 C 20.398438 17.773438 20.390625 17.753906 20.390625 17.746094 C 20.410156 17.703125 20.414062 17.632812 20.359375 17.539062 C 20.003906 16.945312 19.800781 16.351562 19.800781 15.523438 C 19.800781 13.679688 19.992188 12.664062 20.390625 12.085938 C 21.28125 12.238281 22.5625 11.804688 23.132812 11.25 L 30.394531 4.335938 C 31.132812 3.625 31.308594 2.550781 30.570312 1.835938 L 29.976562 1.246094 C 29.609375 0.890625 29.148438 0.757812 28.695312 0.796875 Z M 28.695312 0.796875 "/></g></svg>
