<svg width="64" height="64" viewBox="0 0 64 64" version="1.1"><defs><linearGradient id="linear-pattern-0" gradientUnits="userSpaceOnUse" x1="0" y1="0" x2="0" y2="1" gradientTransform="matrix(60, 0, 0, 56, 0, 4)"><stop offset="0" stop-color="#aaaa00" stop-opacity="1"/><stop offset="1" stop-color="#5c5c00" stop-opacity="1"/></linearGradient></defs><path fill="url(#linear-pattern-0)" fill-opacity="1" d="M 36.21875 2.050781 L 62.027344 27.605469 C 64.402344 29.957031 64.417969 33.785156 62.058594 36.15625 L 36.460938 61.917969 C 34.105469 64.289062 30.269531 64.304688 27.894531 61.949219 L 2.085938 36.394531 C -0.289062 34.042969 -0.304688 30.214844 2.050781 27.84375 L 27.652344 2.082031 C 30.007812 -0.289062 33.84375 -0.304688 36.21875 2.050781 Z M 36.21875 2.050781 " /><g transform="matrix(1.0075098,0,0,1.0032698,16.221436,16.077397)"><path fill-rule="nonzero" fill="rgb(100%, 100%, 100%)" fill-opacity="1" d="M 30.589844 2 C 30.234375 2.011719 29.898438 2.171875 29.648438 2.445312 L 17.546875 15.492188 L 12.296875 9.828125 C 11.761719 9.253906 10.894531 9.253906 10.359375 9.828125 L 0.398438 20.566406 C -0.132812 21.140625 -0.132812 22.078125 0.402344 22.65625 C 0.9375 23.230469 1.804688 23.230469 2.339844 22.652344 L 11.328125 12.960938 L 16.578125 18.625 C 16.835938 18.90625 17.1875 19.0625 17.546875 19.0625 C 17.914062 19.0625 18.261719 18.90625 18.515625 18.625 L 31.585938 4.535156 C 31.992188 4.109375 32.109375 3.460938 31.890625 2.898438 C 31.671875 2.339844 31.15625 1.984375 30.589844 2 Z M 29 11.875 C 28.445312 11.875 28 12.359375 28 12.953125 L 28 28.921875 C 28 29.515625 28.445312 29.996094 29 29.996094 L 29.492188 29.996094 C 30.046875 29.996094 30.492188 29.515625 30.492188 28.921875 L 30.492188 12.953125 C 30.492188 12.359375 30.046875 11.875 29.492188 11.875 Z M 24.519531 16.574219 C 23.96875 16.574219 23.523438 17.054688 23.523438 17.648438 L 23.523438 28.925781 C 23.523438 29.519531 23.96875 29.996094 24.519531 29.996094 L 25.019531 29.996094 C 25.570312 29.996094 26.011719 29.519531 26.011719 28.925781 L 26.011719 17.648438 C 26.011719 17.054688 25.570312 16.574219 25.019531 16.574219 Z M 11.203125 18.25 C 10.648438 18.25 10.203125 18.730469 10.203125 19.328125 L 10.203125 28.921875 C 10.203125 29.515625 10.648438 29.996094 11.203125 29.996094 L 11.695312 29.996094 C 12.25 29.996094 12.695312 29.515625 12.695312 28.921875 L 12.695312 19.328125 C 12.695312 18.730469 12.25 18.25 11.695312 18.25 Z M 20.164062 20.867188 C 19.613281 20.867188 19.167969 21.351562 19.167969 21.945312 L 19.167969 28.921875 C 19.167969 29.515625 19.613281 29.996094 20.164062 29.996094 L 20.660156 29.996094 C 21.210938 29.996094 21.65625 29.515625 21.65625 28.921875 L 21.65625 21.945312 C 21.65625 21.351562 21.210938 20.867188 20.660156 20.867188 Z M 15.683594 21.671875 C 15.132812 21.671875 14.6875 22.148438 14.6875 22.746094 L 14.6875 28.921875 C 14.6875 29.515625 15.132812 29.996094 15.683594 29.996094 L 16.179688 29.996094 C 16.734375 29.996094 17.179688 29.515625 17.179688 28.921875 L 17.179688 22.746094 C 17.179688 22.148438 16.734375 21.671875 16.179688 21.671875 Z M 6.71875 21.949219 C 6.171875 21.949219 5.726562 22.429688 5.726562 23.023438 L 5.726562 28.929688 C 5.726562 29.523438 6.171875 30 6.71875 30 L 7.21875 30 C 7.773438 30 8.214844 29.523438 8.214844 28.929688 L 8.214844 23.023438 C 8.214844 22.429688 7.773438 21.949219 7.21875 21.949219 Z M 2.246094 24.632812 C 1.695312 24.632812 1.25 25.109375 1.25 25.703125 L 1.25 28.925781 C 1.25 29.519531 1.695312 30 2.246094 30 L 2.742188 30 C 3.292969 30 3.738281 29.519531 3.738281 28.925781 L 3.738281 25.703125 C 3.738281 25.109375 3.292969 24.632812 2.742188 24.632812 Z M 2.246094 24.632812 "/></g></svg>
