<svg width="64" height="64" viewBox="0 0 64 64" version="1.1"><defs><linearGradient id="linear-pattern-0" gradientUnits="userSpaceOnUse" x1="0" y1="0" x2="0" y2="1" gradientTransform="matrix(60, 0, 0, 56, 0, 4)"><stop offset="0" stop-color="#6926fc" stop-opacity="1"/><stop offset="1" stop-color="#3702ab" stop-opacity="1"/></linearGradient></defs><path fill="url(#linear-pattern-0)" fill-opacity="1" d="M 36.21875 2.050781 L 62.027344 27.605469 C 64.402344 29.957031 64.417969 33.785156 62.058594 36.15625 L 36.460938 61.917969 C 34.105469 64.289062 30.269531 64.304688 27.894531 61.949219 L 2.085938 36.394531 C -0.289062 34.042969 -0.304688 30.214844 2.050781 27.84375 L 27.652344 2.082031 C 30.007812 -0.289062 33.84375 -0.304688 36.21875 2.050781 Z M 36.21875 2.050781 " /><g transform="matrix(1.0075098,0,0,1.0032698,16.221436,16.077397)"><path fill-rule="nonzero" fill="rgb(100%, 100%, 100%)" fill-opacity="1" d="M 9.980469 4 C 5.554688 4 -0.046875 8.164062 0 14.597656 C 0.046875 20.824219 2.164062 24.1875 3.765625 28 L 8.480469 26.058594 C 7.394531 23.867188 5.992188 21.675781 5.488281 20.589844 C 4.082031 17.550781 3.570312 16.191406 3.6875 13.875 C 3.800781 11.632812 4.578125 10.269531 5.960938 8.949219 C 7.34375 7.628906 9.234375 6.953125 11.515625 7.265625 C 15.1875 7.765625 16.960938 9.96875 17.65625 11.769531 C 13.5625 12.226562 12.101562 15.109375 11.769531 17.832031 C 10.195312 17.289062 9.3125 16.035156 9.175781 14.199219 C 9.046875 12.441406 10.773438 10.671875 13.570312 11.570312 C 14.019531 11.714844 14.035156 10.914062 13.527344 10.511719 C 12.21875 9.472656 7.023438 9.867188 7.042969 13.953125 C 7.054688 17.15625 9.269531 19.453125 11.746094 20.097656 C 12.179688 23.742188 16.777344 28 22.019531 28 C 26.445312 28 32.046875 23.835938 32 17.402344 C 31.953125 11.175781 29.835938 7.8125 28.234375 4 L 23.519531 5.941406 C 24.605469 8.132812 26.007812 10.324219 26.511719 11.410156 C 27.917969 14.449219 28.429688 15.808594 28.3125 18.125 C 28.199219 20.367188 27.421875 21.730469 26.039062 23.050781 C 24.65625 24.371094 22.765625 25.046875 20.484375 24.734375 C 16.8125 24.234375 15.039062 22.03125 14.34375 20.230469 C 18.4375 19.773438 19.898438 16.890625 20.230469 14.167969 C 21.804688 14.707031 22.6875 15.964844 22.824219 17.800781 C 22.953125 19.558594 21.226562 21.328125 18.429688 20.429688 C 17.980469 20.285156 17.964844 21.085938 18.472656 21.488281 C 19.78125 22.527344 24.976562 22.132812 24.957031 18.046875 C 24.945312 14.84375 22.730469 12.546875 20.253906 11.902344 C 19.820312 8.257812 15.222656 4 9.980469 4 Z M 18 13.925781 C 17.828125 15.453125 16.75 17.851562 14 18.074219 C 14.171875 16.546875 15.25 14.148438 18 13.925781 Z M 18 13.925781 "/></g></svg>
