<svg width="64" height="64" viewBox="0 0 64 64" version="1.1"><defs><linearGradient id="linear-pattern-0" gradientUnits="userSpaceOnUse" x1="0" y1="0" x2="0" y2="1" gradientTransform="matrix(60, 0, 0, 56, 0, 4)"><stop offset="0" stop-color="#00a07f" stop-opacity="1"/><stop offset="1" stop-color="#005241" stop-opacity="1"/></linearGradient></defs><path fill="url(#linear-pattern-0)" fill-opacity="1" d="M 36.21875 2.050781 L 62.027344 27.605469 C 64.402344 29.957031 64.417969 33.785156 62.058594 36.15625 L 36.460938 61.917969 C 34.105469 64.289062 30.269531 64.304688 27.894531 61.949219 L 2.085938 36.394531 C -0.289062 34.042969 -0.304688 30.214844 2.050781 27.84375 L 27.652344 2.082031 C 30.007812 -0.289062 33.84375 -0.304688 36.21875 2.050781 Z M 36.21875 2.050781 " /><g transform="matrix(1.0075098,0,0,1.0032698,16.221436,16.077397)"><path fill-rule="nonzero" fill="rgb(100%, 100%, 100%)" fill-opacity="1" d="M 11.429688 0 L 11.429688 0.00390625 C 10.882812 1.203125 10.453125 2.421875 10.210938 3.171875 C 9.417969 3.171875 8.109375 3.203125 6.859375 3.367188 C 7.8125 4.273438 8.828125 5.0625 9.453125 5.523438 C 9.207031 6.289062 8.832031 7.5625 8.601562 8.8125 C 9.742188 8.175781 10.789062 7.445312 11.421875 6.984375 C 12.324219 7.652344 13.265625 8.265625 14.246094 8.820312 C 14.023438 7.707031 13.742188 6.609375 13.398438 5.53125 C 14.304688 4.867188 15.171875 4.148438 15.996094 3.375 C 14.886719 3.242188 13.769531 3.175781 12.648438 3.175781 C 12.304688 2.09375 11.898438 1.03125 11.429688 0 Z M 3.429688 9.160156 C 3.078125 9.933594 2.773438 10.726562 2.515625 11.539062 C 1.671875 11.535156 0.835938 11.585938 0 11.6875 C 0.71875 12.359375 1.476562 12.953125 1.945312 13.300781 C 1.761719 13.875 1.480469 14.828125 1.308594 15.773438 C 2.039062 15.351562 2.746094 14.894531 3.421875 14.394531 C 3.90625 14.75 4.71875 15.320312 5.546875 15.777344 L 5.546875 15.773438 C 5.359375 14.800781 5.085938 13.867188 4.90625 13.308594 C 5.390625 12.953125 6.171875 12.347656 6.859375 11.6875 C 6.023438 11.59375 5.1875 11.542969 4.34375 11.539062 C 4.085938 10.730469 3.78125 9.9375 3.429688 9.160156 Z M 21.25 2.4375 C 23.914062 5.734375 24.847656 10.132812 23.765625 14.25 C 21.894531 21.332031 14.710938 25.535156 7.726562 23.636719 C 5.945312 23.148438 4.285156 22.277344 2.855469 21.089844 C 4.296875 26.164062 8.25 30.109375 13.28125 31.484375 C 21.210938 33.640625 29.367188 28.867188 31.496094 20.820312 C 33.585938 12.890625 29.035156 4.71875 21.253906 2.4375 Z M 26.203125 8.132812 C 28.636719 10.683594 29.90625 14.15625 29.695312 17.695312 C 29.640625 18.554688 29.503906 19.398438 29.285156 20.226562 C 28.140625 24.597656 24.796875 28.023438 20.5 29.234375 C 16.203125 30.4375 11.59375 29.242188 8.398438 26.085938 C 16.171875 27.5 23.898438 22.71875 25.976562 14.851562 L 25.976562 14.847656 C 26.535156 12.652344 26.613281 10.359375 26.203125 8.132812 Z M 26.203125 8.132812 "/></g></svg>
