<svg width="64" height="64" viewBox="0 0 64 64" version="1.1"><defs><linearGradient id="linear-pattern-0" gradientUnits="userSpaceOnUse" x1="0" y1="0" x2="0" y2="1" gradientTransform="matrix(60, 0, 0, 56, 0, 4)"><stop offset="0" stop-color="#d00068" stop-opacity="1"/><stop offset="1" stop-color="#6e0037" stop-opacity="1"/></linearGradient></defs><path fill="url(#linear-pattern-0)" fill-opacity="1" d="M 36.21875 2.050781 L 62.027344 27.605469 C 64.402344 29.957031 64.417969 33.785156 62.058594 36.15625 L 36.460938 61.917969 C 34.105469 64.289062 30.269531 64.304688 27.894531 61.949219 L 2.085938 36.394531 C -0.289062 34.042969 -0.304688 30.214844 2.050781 27.84375 L 27.652344 2.082031 C 30.007812 -0.289062 33.84375 -0.304688 36.21875 2.050781 Z M 36.21875 2.050781 " /><g transform="matrix(1.0075098,0,0,1.0032698,16.221436,16.077397)"><path fill-rule="nonzero" fill="rgb(100%, 100%, 100%)" fill-opacity="1" d="M 16.890625 30.992188 C 16.847656 30.984375 16.8125 30.976562 16.804688 30.960938 C 16.78125 30.929688 16.789062 30.847656 16.828125 30.78125 C 16.855469 30.726562 16.859375 30.683594 16.835938 30.671875 C 16.828125 30.664062 16.75 30.65625 16.664062 30.65625 C 16.484375 30.648438 16.394531 30.617188 16.328125 30.5625 C 16.226562 30.480469 16.210938 30.355469 16.28125 30.210938 C 16.335938 30.101562 16.4375 29.96875 16.5625 29.851562 C 16.761719 29.660156 16.925781 29.554688 17.136719 29.476562 C 17.308594 29.414062 17.335938 29.390625 17.367188 29.265625 C 17.375 29.234375 17.40625 29.179688 17.4375 29.140625 C 17.523438 29.007812 17.570312 28.804688 17.605469 28.355469 C 17.644531 27.867188 17.652344 27.554688 17.65625 26.109375 L 17.664062 24.632812 L 17.589844 24.480469 C 17.453125 24.203125 17.324219 23.921875 17.289062 23.820312 C 17.234375 23.648438 17.203125 23.46875 17.167969 23.046875 C 17.101562 22.28125 17.023438 22.039062 16.421875 20.667969 C 15.917969 19.511719 15.59375 18.710938 15.394531 18.132812 C 15.210938 17.601562 15.058594 17.285156 14.917969 17.148438 C 14.867188 17.105469 14.796875 17.0625 14.75 17.0625 C 14.675781 17.0625 14.5625 17.160156 14.46875 17.304688 C 14.378906 17.445312 14.1875 17.851562 14.0625 18.171875 C 13.835938 18.746094 13.652344 19.328125 13.484375 20.015625 C 13.265625 20.910156 13.144531 21.269531 12.875 21.832031 C 12.679688 22.246094 12.652344 22.34375 12.609375 22.730469 C 12.558594 23.1875 12.460938 23.554688 12.308594 23.855469 C 12.25 23.976562 12.203125 24.042969 12.117188 24.136719 C 12.007812 24.253906 11.992188 24.277344 11.949219 24.441406 C 11.929688 24.523438 11.835938 24.84375 11.746094 25.144531 C 11.492188 26.011719 11.328125 26.617188 11.140625 27.390625 C 11.03125 27.84375 10.945312 28.15625 10.867188 28.40625 C 10.777344 28.671875 10.773438 28.734375 10.808594 28.984375 C 10.839844 29.1875 10.835938 29.316406 10.796875 29.46875 C 10.71875 29.742188 10.542969 29.90625 10.246094 29.984375 C 10.019531 30.042969 9.867188 30.050781 9.234375 30.050781 C 8.609375 30.054688 8.53125 30.046875 8.367188 29.992188 C 8.277344 29.960938 8.195312 29.898438 8.171875 29.828125 C 8.160156 29.808594 8.148438 29.738281 8.144531 29.6875 C 8.132812 29.5625 8.121094 29.554688 8.042969 29.570312 C 7.976562 29.585938 7.933594 29.578125 7.886719 29.53125 C 7.757812 29.417969 7.753906 29.0625 7.875 28.945312 C 7.96875 28.851562 8.117188 28.820312 8.546875 28.804688 C 8.992188 28.78125 9.148438 28.75 9.363281 28.628906 C 9.496094 28.554688 9.59375 28.46875 9.632812 28.390625 C 9.648438 28.359375 9.671875 28.265625 9.6875 28.179688 C 9.707031 28.097656 9.734375 27.984375 9.753906 27.929688 C 9.800781 27.796875 9.976562 27.429688 10.183594 27.054688 C 10.496094 26.484375 10.601562 26.234375 10.722656 25.765625 C 10.765625 25.601562 10.875 25.199219 10.96875 24.875 C 11.0625 24.546875 11.148438 24.222656 11.164062 24.152344 C 11.203125 23.96875 11.210938 23.789062 11.1875 23.367188 C 11.167969 22.921875 11.167969 22.601562 11.1875 22.46875 C 11.195312 22.417969 11.234375 22.273438 11.265625 22.15625 C 11.359375 21.828125 11.375 21.726562 11.375 21.390625 C 11.375 21.007812 11.34375 20.703125 11.203125 19.734375 C 11.0625 18.742188 11.023438 18.382812 11.015625 17.8125 C 11.015625 17.578125 11.007812 17.382812 11 17.375 C 11 17.367188 10.695312 17.261719 10.328125 17.132812 C 9.960938 17.003906 9.585938 16.871094 9.484375 16.835938 C 8.640625 16.523438 8.238281 16.300781 7.820312 15.914062 C 6.855469 15.023438 6.238281 13.742188 5.664062 11.441406 C 5.382812 10.3125 5.25 9.59375 5.1875 8.78125 C 5.171875 8.628906 5.15625 8.285156 5.132812 7.664062 C 5.109375 6.898438 5.0625 6.75 4.691406 6.117188 C 4.535156 5.851562 4.378906 5.554688 4.324219 5.414062 C 4.304688 5.359375 4.269531 5.242188 4.253906 5.160156 C 4.234375 5.078125 4.21875 4.996094 4.210938 4.980469 C 4.195312 4.953125 3.890625 4.796875 3.632812 4.691406 C 3.445312 4.613281 3.066406 4.429688 2.957031 4.355469 C 2.914062 4.328125 2.832031 4.265625 2.78125 4.226562 C 2.726562 4.179688 2.679688 4.144531 2.671875 4.140625 C 2.664062 4.132812 2.59375 4.15625 2.5 4.199219 C 2.414062 4.234375 2.296875 4.285156 2.234375 4.304688 C 2.132812 4.335938 2.109375 4.335938 1.886719 4.335938 C 1.617188 4.335938 1.515625 4.320312 1.34375 4.234375 C 1.148438 4.140625 1.09375 4.070312 1.070312 3.890625 C 1.046875 3.722656 1.070312 3.628906 1.179688 3.484375 C 1.203125 3.445312 1.191406 3.421875 1.117188 3.371094 C 1.015625 3.296875 1 3.25 1 3.015625 C 1 2.769531 1.007812 2.757812 1.210938 2.542969 C 1.398438 2.351562 1.546875 2.15625 1.65625 1.964844 C 1.851562 1.609375 1.921875 1.515625 2.023438 1.46875 C 2.132812 1.414062 2.421875 1.390625 3.3125 1.375 C 4.242188 1.359375 4.539062 1.339844 4.8125 1.265625 C 5.039062 1.207031 5.171875 1.132812 5.429688 0.914062 C 5.605469 0.769531 5.625 0.765625 5.972656 0.765625 C 6.28125 0.761719 6.464844 0.777344 6.734375 0.828125 C 6.9375 0.867188 7.054688 0.867188 7.140625 0.835938 C 7.179688 0.824219 7.277344 0.785156 7.367188 0.742188 C 7.453125 0.703125 7.554688 0.660156 7.585938 0.648438 C 7.835938 0.570312 8.054688 0.597656 8.242188 0.734375 C 8.414062 0.859375 8.53125 1.019531 8.757812 1.453125 C 8.835938 1.601562 8.96875 1.847656 9.054688 2 C 9.375 2.570312 9.476562 2.875 9.492188 3.320312 C 9.5 3.664062 9.46875 3.804688 9.292969 4.296875 C 9.195312 4.566406 9.195312 4.5625 9.195312 5.34375 C 9.195312 5.789062 9.203125 6.105469 9.210938 6.242188 C 9.269531 6.96875 9.335938 7.5625 9.414062 8.007812 C 9.492188 8.46875 9.542969 8.621094 9.671875 8.75 C 9.832031 8.914062 10.0625 8.964844 10.601562 8.964844 C 11.0625 8.964844 11.265625 8.933594 11.484375 8.824219 C 11.835938 8.648438 12.28125 8.207031 12.667969 7.644531 C 12.832031 7.40625 12.976562 7.164062 13.214844 6.75 C 13.898438 5.535156 14.265625 5.070312 15 4.496094 C 15.445312 4.148438 15.664062 3.816406 15.84375 3.234375 C 16.03125 2.640625 16.308594 2.210938 16.753906 1.84375 C 17.289062 1.398438 17.75 1.246094 18.570312 1.246094 C 18.902344 1.242188 19.046875 1.257812 19.265625 1.3125 C 19.71875 1.429688 20.023438 1.664062 20.210938 2.03125 C 20.28125 2.171875 20.316406 2.320312 20.453125 3.003906 C 20.589844 3.691406 20.664062 3.957031 20.804688 4.242188 C 20.902344 4.445312 21.007812 4.59375 21.179688 4.765625 C 21.386719 4.96875 21.53125 5.039062 21.65625 5 C 21.761719 4.960938 21.8125 4.875 22.203125 4.105469 C 22.554688 3.398438 22.648438 3.21875 22.796875 2.976562 C 23.046875 2.5625 23.253906 2.371094 23.539062 2.304688 C 23.617188 2.28125 23.6875 2.28125 23.933594 2.28125 C 24.277344 2.28125 24.316406 2.289062 24.574219 2.398438 C 25.25 2.691406 25.773438 3.117188 25.9375 3.515625 C 26.023438 3.726562 26.355469 4.773438 26.554688 5.457031 C 26.667969 5.847656 26.714844 5.976562 26.8125 6.164062 C 26.929688 6.40625 26.992188 6.492188 27.304688 6.796875 C 27.507812 7 27.625 7.125 27.703125 7.234375 C 27.996094 7.625 28.25 8.09375 28.554688 8.796875 C 29.015625 9.859375 29.179688 10.40625 29.230469 11.089844 C 29.25 11.382812 29.238281 12.042969 29.195312 12.734375 C 29.15625 13.414062 29.15625 13.703125 29.203125 13.84375 C 29.234375 13.953125 29.335938 14.15625 29.414062 14.273438 C 29.511719 14.421875 29.570312 14.472656 30.03125 14.773438 C 30.195312 14.882812 30.347656 14.992188 30.425781 15.0625 C 30.753906 15.359375 30.96875 15.726562 31 16.046875 C 31.007812 16.148438 30.988281 16.21875 30.945312 16.226562 C 30.863281 16.25 30.390625 16.023438 29.8125 15.695312 C 29.507812 15.515625 29.328125 15.402344 29.101562 15.234375 C 28.875 15.0625 28.800781 15.015625 28.742188 15.007812 C 28.707031 15 28.695312 15.007812 28.683594 15.03125 C 28.609375 15.175781 28.296875 16.441406 28.046875 17.640625 C 27.820312 18.710938 27.773438 19.085938 27.773438 19.78125 C 27.773438 20.332031 27.804688 20.71875 27.894531 21.121094 C 27.96875 21.476562 27.976562 21.574219 27.96875 21.984375 C 27.964844 22.359375 27.949219 22.570312 27.855469 23.648438 C 27.765625 24.691406 27.75 25.125 27.773438 25.785156 C 27.796875 26.535156 27.90625 28.140625 27.96875 28.8125 C 28.011719 29.246094 28.042969 29.398438 28.140625 29.648438 C 28.234375 29.890625 28.265625 30.015625 28.273438 30.15625 C 28.289062 30.359375 28.242188 30.484375 28.101562 30.625 C 27.929688 30.796875 27.683594 30.84375 27.132812 30.8125 C 26.382812 30.773438 26.265625 30.738281 26.304688 30.578125 C 26.320312 30.496094 26.320312 30.445312 26.289062 30.433594 C 26.277344 30.425781 26.21875 30.417969 26.164062 30.417969 C 26.023438 30.417969 25.914062 30.394531 25.875 30.375 C 25.855469 30.359375 25.828125 30.328125 25.808594 30.292969 C 25.78125 30.25 25.777344 30.21875 25.777344 30.140625 C 25.777344 30.054688 25.78125 30.039062 25.820312 29.964844 C 25.875 29.867188 26.015625 29.722656 26.164062 29.609375 C 26.621094 29.265625 26.945312 28.882812 26.992188 28.621094 C 27.070312 28.203125 27.0625 26.988281 26.960938 25.632812 C 26.90625 24.890625 26.890625 24.539062 26.875 24.074219 C 26.859375 23.597656 26.847656 23.542969 26.726562 23.265625 C 26.664062 23.117188 26.589844 22.859375 26.539062 22.601562 C 26.476562 22.289062 26.460938 22.191406 26.460938 21.984375 C 26.460938 21.773438 26.492188 21.636719 26.5625 21.453125 C 26.625 21.296875 26.636719 21.21875 26.617188 21.03125 C 26.578125 20.554688 26.484375 20.109375 26.34375 19.703125 C 26.242188 19.394531 26.148438 19.183594 25.925781 18.742188 C 25.617188 18.140625 25.507812 17.875 25.460938 17.660156 C 25.386719 17.296875 25.375 16.566406 25.4375 16.21875 C 25.453125 16.152344 25.460938 16.042969 25.460938 15.972656 C 25.460938 15.859375 25.453125 15.835938 25.421875 15.765625 C 25.375 15.664062 25.289062 15.582031 25.195312 15.554688 C 25.078125 15.515625 25.007812 15.539062 24.929688 15.625 C 24.835938 15.726562 24.765625 15.90625 24.609375 16.414062 C 24.453125 16.9375 24.21875 17.65625 23.964844 18.398438 C 23.398438 20.058594 23.265625 20.585938 23.109375 21.765625 C 22.992188 22.6875 22.898438 23.046875 22.609375 23.6875 C 22.519531 23.890625 22.179688 24.5625 21.964844 24.96875 C 21.519531 25.800781 21.289062 26.398438 21.085938 27.28125 C 20.953125 27.828125 20.875 28.085938 20.75 28.324219 C 20.695312 28.4375 20.671875 28.46875 20.546875 28.585938 C 20.398438 28.734375 20.394531 28.742188 20.4375 28.84375 C 20.460938 28.890625 20.46875 28.9375 20.472656 29.054688 C 20.480469 29.25 20.460938 29.320312 20.382812 29.390625 C 20.304688 29.460938 20.113281 29.554688 20 29.578125 C 19.894531 29.601562 19.59375 29.625 19.289062 29.625 C 19.054688 29.625 18.804688 29.648438 18.789062 29.664062 C 18.769531 29.679688 18.789062 29.714844 18.894531 29.886719 C 19.023438 30.09375 19.054688 30.164062 19.054688 30.234375 C 19.054688 30.3125 19.003906 30.414062 18.902344 30.539062 C 18.679688 30.796875 18.421875 30.910156 17.910156 30.96875 C 17.613281 30.996094 17.039062 31.011719 16.890625 30.988281 Z M 18.851562 28.515625 C 18.980469 28.445312 19.125 28.328125 19.367188 28.085938 C 19.609375 27.84375 19.703125 27.726562 19.867188 27.484375 C 20.1875 27.007812 20.421875 26.371094 20.757812 25.070312 C 21.042969 23.976562 21.183594 23.285156 21.257812 22.625 C 21.289062 22.339844 21.289062 21.394531 21.253906 20.984375 C 21.226562 20.621094 21.210938 19.859375 21.234375 19.628906 C 21.242188 19.535156 21.257812 19.371094 21.265625 19.261719 C 21.324219 18.671875 21.3125 17.664062 21.242188 17.464844 C 21.226562 17.429688 21.21875 17.421875 21.191406 17.414062 C 21.136719 17.40625 21 17.453125 20.757812 17.5625 C 20.382812 17.734375 20.125 17.8125 19.820312 17.84375 C 19.515625 17.875 19.117188 17.8125 18.859375 17.695312 C 18.804688 17.671875 18.757812 17.648438 18.753906 17.65625 C 18.734375 17.671875 18.726562 17.863281 18.710938 18.613281 C 18.699219 19.570312 18.6875 19.773438 18.585938 20.492188 C 18.503906 21.101562 18.492188 21.210938 18.492188 21.585938 C 18.492188 21.957031 18.503906 22.0625 18.574219 22.382812 C 18.648438 22.703125 18.664062 22.875 18.664062 23.21875 C 18.664062 23.613281 18.625 23.929688 18.53125 24.351562 C 18.289062 25.40625 18.257812 26.324219 18.4375 27.390625 C 18.503906 27.8125 18.664062 28.492188 18.703125 28.542969 C 18.726562 28.5625 18.761719 28.558594 18.851562 28.511719 Z M 18.851562 28.515625 "/></g></svg>
