<svg width="64" height="64" viewBox="0 0 64 64" version="1.1"><defs><linearGradient id="linear-pattern-0" gradientUnits="userSpaceOnUse" x1="0" y1="0" x2="0" y2="1" gradientTransform="matrix(60, 0, 0, 56, 0, 4)"><stop offset="0" stop-color="#a67e50" stop-opacity="1"/><stop offset="1" stop-color="#644c30" stop-opacity="1"/></linearGradient></defs><path fill="url(#linear-pattern-0)" fill-opacity="1" d="M 36.21875 2.050781 L 62.027344 27.605469 C 64.402344 29.957031 64.417969 33.785156 62.058594 36.15625 L 36.460938 61.917969 C 34.105469 64.289062 30.269531 64.304688 27.894531 61.949219 L 2.085938 36.394531 C -0.289062 34.042969 -0.304688 30.214844 2.050781 27.84375 L 27.652344 2.082031 C 30.007812 -0.289062 33.84375 -0.304688 36.21875 2.050781 Z M 36.21875 2.050781 " /><g transform="matrix(1.0075098,0,0,1.0032698,16.221436,16.077397)"><path fill-rule="nonzero" fill="rgb(100%, 100%, 100%)" fill-opacity="1" d="M 7.988281 2 C 5.472656 2.03125 3.632812 1.9375 2.125 2.769531 C 1.34375 3.210938 0.75 3.921875 0.449219 4.765625 C 0.117188 5.640625 0 6.6875 0 8 L 0 24 C 0 25.316406 0.117188 26.359375 0.449219 27.234375 C 0.777344 28.113281 1.375 28.8125 2.125 29.230469 C 3.632812 30.0625 5.472656 29.96875 7.988281 30 L 24.011719 30 C 26.527344 29.96875 28.367188 30.0625 29.875 29.230469 C 30.65625 28.789062 31.25 28.078125 31.550781 27.234375 C 31.878906 26.359375 32 25.3125 32 24 L 32 8 C 32 6.683594 31.882812 5.640625 31.550781 4.765625 C 31.25 3.921875 30.65625 3.210938 29.875 2.769531 C 28.367188 1.9375 26.527344 2.03125 24.011719 2 Z M 8 4 L 16 4 L 16 28 L 8 28 C 5.484375 27.96875 3.820312 27.882812 3.089844 27.476562 C 2.726562 27.277344 2.515625 27.050781 2.320312 26.53125 C 2.125 26.011719 2 25.183594 2 24 L 2 8 C 2 6.816406 2.125 5.988281 2.320312 5.46875 C 2.515625 4.949219 2.726562 4.726562 3.089844 4.523438 C 3.820312 4.117188 5.484375 4.03125 8 4 Z M 8 8 L 8 10 L 6 10 L 6 12 L 8 12 L 8 14 L 10 14 L 10 12 L 12 12 L 12 10 L 10 10 L 10 8 Z M 20 12 L 28 12 L 28 14 L 20 14 Z M 20 16 L 28 16 L 28 18 L 20 18 Z M 6 20 L 6 22 L 12 22 L 12 20 Z M 6 20 "/></g></svg>
