<svg width="64" height="64" viewBox="0 0 64 64" version="1.1"><defs><linearGradient id="linear-pattern-0" gradientUnits="userSpaceOnUse" x1="0" y1="0" x2="0" y2="1" gradientTransform="matrix(60, 0, 0, 56, 0, 4)"><stop offset="0" stop-color="#6926fc" stop-opacity="1"/><stop offset="1" stop-color="#3702ab" stop-opacity="1"/></linearGradient></defs><path fill="url(#linear-pattern-0)" fill-opacity="1" d="M 36.21875 2.050781 L 62.027344 27.605469 C 64.402344 29.957031 64.417969 33.785156 62.058594 36.15625 L 36.460938 61.917969 C 34.105469 64.289062 30.269531 64.304688 27.894531 61.949219 L 2.085938 36.394531 C -0.289062 34.042969 -0.304688 30.214844 2.050781 27.84375 L 27.652344 2.082031 C 30.007812 -0.289062 33.84375 -0.304688 36.21875 2.050781 Z M 36.21875 2.050781 " /><g transform="matrix(1.0075098,0,0,1.0032698,16.221436,16.077397)"><path fill-rule="nonzero" fill="rgb(100%, 100%, 100%)" fill-opacity="1" d="M 16.09375 0.960938 C 7.757812 0.960938 1 7.835938 1 16.3125 C 1 24.792969 7.757812 31.664062 16.09375 31.664062 C 19.789062 31.664062 23.195312 30.324219 25.820312 28.085938 L 29.335938 31.664062 L 31.1875 29.78125 L 27.671875 26.203125 C 29.875 23.539062 31.1875 20.070312 31.1875 16.316406 C 31.1875 7.835938 24.429688 0.96875 16.09375 0.96875 Z M 16.09375 3.328125 C 22.867188 3.328125 28.398438 8.6875 28.835938 15.46875 L 8.4375 5.949219 C 10.574219 4.3125 13.21875 3.328125 16.09375 3.328125 Z M 5.859375 8.566406 L 15.1875 29.265625 C 8.554688 28.792969 3.320312 23.175781 3.320312 16.3125 C 3.320312 13.40625 4.273438 10.730469 5.859375 8.5625 Z M 9.199219 9.34375 L 20.484375 14.765625 L 14.539062 20.78125 Z M 23.023438 15.945312 L 28.648438 18.75 C 28.25 20.90625 27.3125 22.867188 26 24.507812 L 23.789062 22.253906 L 21.9375 24.140625 L 24.152344 26.386719 C 22.53125 27.726562 20.585938 28.679688 18.453125 29.082031 L 15.734375 23.359375 Z M 23.023438 15.945312 "/></g></svg>
