<svg width="64" height="64" viewBox="0 0 64 64" version="1.1"><defs><linearGradient id="linear-pattern-0" gradientUnits="userSpaceOnUse" x1="0" y1="0" x2="0" y2="1" gradientTransform="matrix(60, 0, 0, 56, 0, 4)"><stop offset="0" stop-color="#c10000" stop-opacity="1"/><stop offset="1" stop-color="#5f0000" stop-opacity="1"/></linearGradient></defs><path fill="url(#linear-pattern-0)" fill-opacity="1" d="M 36.21875 2.050781 L 62.027344 27.605469 C 64.402344 29.957031 64.417969 33.785156 62.058594 36.15625 L 36.460938 61.917969 C 34.105469 64.289062 30.269531 64.304688 27.894531 61.949219 L 2.085938 36.394531 C -0.289062 34.042969 -0.304688 30.214844 2.050781 27.84375 L 27.652344 2.082031 C 30.007812 -0.289062 33.84375 -0.304688 36.21875 2.050781 Z M 36.21875 2.050781 " /><g transform="matrix(1.0075098,0,0,1.0032698,16.221436,16.077397)"><path fill-rule="nonzero" fill="rgb(100%, 100%, 100%)" fill-opacity="1" d="M 4.171875 0.867188 C 2.386719 0.867188 0.914062 2.59375 0.914062 4.683594 L 0.914062 27.582031 C 0.914062 29.679688 2.386719 31.398438 4.171875 31.398438 L 28.0625 31.398438 C 29.847656 31.398438 31.320312 29.679688 31.320312 27.582031 L 31.320312 4.683594 C 31.320312 2.59375 29.847656 0.867188 28.0625 0.867188 Z M 4.171875 3.414062 L 11.773438 3.414062 L 11.773438 16.042969 L 13.945312 13.5 L 16.117188 16.042969 L 18.289062 14.132812 L 20.460938 16.042969 L 20.460938 3.414062 L 28.0625 3.414062 C 28.683594 3.414062 29.148438 3.957031 29.148438 4.683594 L 29.148438 27.582031 C 29.148438 28.3125 28.683594 28.851562 28.0625 28.851562 L 4.171875 28.851562 C 3.882812 28.859375 3.601562 28.730469 3.398438 28.492188 C 3.1875 28.25 3.078125 27.921875 3.085938 27.582031 L 3.085938 4.683594 C 3.085938 3.957031 3.550781 3.414062 4.171875 3.414062 Z M 13.945312 3.414062 L 18.289062 3.414062 L 18.289062 10.953125 L 16.320312 12.683594 L 13.945312 9.898438 Z M 13.945312 3.414062 "/></g></svg>
