<svg width="64" height="64" viewBox="0 0 64 64" version="1.1"><defs><linearGradient id="linear-pattern-0" gradientUnits="userSpaceOnUse" x1="0" y1="0" x2="0" y2="1" gradientTransform="matrix(60, 0, 0, 56, 0, 4)"><stop offset="0" stop-color="#00983a" stop-opacity="1"/><stop offset="1" stop-color="#004a1c" stop-opacity="1"/></linearGradient></defs><path fill="url(#linear-pattern-0)" fill-opacity="1" d="M 36.21875 2.050781 L 62.027344 27.605469 C 64.402344 29.957031 64.417969 33.785156 62.058594 36.15625 L 36.460938 61.917969 C 34.105469 64.289062 30.269531 64.304688 27.894531 61.949219 L 2.085938 36.394531 C -0.289062 34.042969 -0.304688 30.214844 2.050781 27.84375 L 27.652344 2.082031 C 30.007812 -0.289062 33.84375 -0.304688 36.21875 2.050781 Z M 36.21875 2.050781 " /><g transform="matrix(1.0075098,0,0,1.0032698,16.221436,16.077397)"><path fill-rule="nonzero" fill="rgb(100%, 100%, 100%)" fill-opacity="1" d="M 7.734375 7.429688 C 3.664062 7.429688 0.386719 10.941406 0.386719 15.304688 L 0.386719 16.398438 C 0.386719 20.757812 3.664062 24.273438 7.734375 24.273438 L 24.46875 24.273438 C 28.539062 24.273438 31.8125 20.757812 31.8125 16.398438 L 31.8125 15.304688 C 31.8125 10.941406 28.539062 7.429688 24.46875 7.429688 Z M 8.242188 9.664062 C 11.429688 9.664062 14.015625 12.429688 14.015625 15.851562 C 14.015625 19.265625 11.429688 22.035156 8.242188 22.035156 C 5.054688 22.035156 2.46875 19.265625 2.46875 15.851562 C 2.46875 12.429688 5.054688 9.664062 8.242188 9.664062 Z M 22.109375 10 L 22.25 10.265625 C 22.328125 10.414062 22.894531 11.5625 23.507812 12.828125 C 24.117188 14.09375 25.359375 16.632812 26.257812 18.476562 C 27.515625 21.0625 27.875 21.835938 27.8125 21.875 C 27.773438 21.90625 27.269531 21.929688 26.695312 21.929688 L 25.648438 21.929688 L 25.335938 21.59375 C 24.5625 20.753906 23.210938 19.992188 21.699219 19.542969 L 21.023438 19.34375 L 21.867188 19.296875 C 22.664062 19.257812 23.5625 19.285156 24.050781 19.367188 C 24.21875 19.398438 24.265625 19.382812 24.265625 19.320312 C 24.265625 19.160156 22.191406 15.09375 22.109375 15.09375 C 22.054688 15.09375 21.632812 15.875 20.007812 19.027344 C 19.210938 20.578125 18.546875 21.84375 18.546875 21.851562 C 18.519531 21.882812 16.257812 21.945312 16.257812 21.914062 C 16.257812 21.871094 21.796875 10.570312 21.984375 10.234375 Z M 22.109375 10 "/></g></svg>
