<svg width="64" height="64" viewBox="0 0 64 64" version="1.1"><defs><linearGradient id="linear-pattern-0" gradientUnits="userSpaceOnUse" x1="0" y1="0" x2="0" y2="1" gradientTransform="matrix(60, 0, 0, 56, 0, 4)"><stop offset="0" stop-color="#c10000" stop-opacity="1"/><stop offset="1" stop-color="#5f0000" stop-opacity="1"/></linearGradient></defs><path fill="url(#linear-pattern-0)" fill-opacity="1" d="M 36.21875 2.050781 L 62.027344 27.605469 C 64.402344 29.957031 64.417969 33.785156 62.058594 36.15625 L 36.460938 61.917969 C 34.105469 64.289062 30.269531 64.304688 27.894531 61.949219 L 2.085938 36.394531 C -0.289062 34.042969 -0.304688 30.214844 2.050781 27.84375 L 27.652344 2.082031 C 30.007812 -0.289062 33.84375 -0.304688 36.21875 2.050781 Z M 36.21875 2.050781 " /><g transform="matrix(1.0075098,0,0,1.0032698,16.221436,16.077397)"><path fill-rule="nonzero" fill="rgb(100%, 100%, 100%)" fill-opacity="1" d="M 16.007812 1.054688 C 20.164062 2.933594 23.035156 7.117188 23.035156 11.722656 C 23.035156 18.328125 18.019531 23.40625 11.496094 23.40625 C 6.953125 23.40625 2.816406 20.492188 0.953125 16.296875 C 0.953125 24.421875 7.785156 31.53125 16.007812 31.539062 C 24.328125 31.539062 31.066406 24.710938 31.0625 16.296875 C 31.0625 7.953125 24.039062 1.054688 16.007812 1.054688 Z M 16.007812 1.054688 "/></g></svg>
