<svg width="64" height="64" viewBox="0 0 64 64" version="1.1"><defs><linearGradient id="linear-pattern-0" gradientUnits="userSpaceOnUse" x1="0" y1="0" x2="0" y2="1" gradientTransform="matrix(60, 0, 0, 56, 0, 4)"><stop offset="0" stop-color="#aaaa00" stop-opacity="1"/><stop offset="1" stop-color="#5c5c00" stop-opacity="1"/></linearGradient></defs><path fill="url(#linear-pattern-0)" fill-opacity="1" d="M 36.21875 2.050781 L 62.027344 27.605469 C 64.402344 29.957031 64.417969 33.785156 62.058594 36.15625 L 36.460938 61.917969 C 34.105469 64.289062 30.269531 64.304688 27.894531 61.949219 L 2.085938 36.394531 C -0.289062 34.042969 -0.304688 30.214844 2.050781 27.84375 L 27.652344 2.082031 C 30.007812 -0.289062 33.84375 -0.304688 36.21875 2.050781 Z M 36.21875 2.050781 " /><g transform="matrix(1.0075098,0,0,1.0032698,16.221436,16.077397)"><path fill-rule="nonzero" fill="rgb(100%, 100%, 100%)" fill-opacity="1" d="M 9.78125 1.046875 C 9.78125 1.046875 1.261719 16.1875 0.957031 16.070312 C 0.980469 21.757812 3.640625 27.195312 8.523438 31.097656 L 9.796875 31.097656 C 7.351562 27.632812 5.960938 22.726562 6 18.382812 C 6 10.445312 8.523438 5.671875 14.828125 3.355469 L 14.828125 7.980469 L 9.78125 7.980469 L 8.523438 11.445312 L 11.046875 10.292969 L 14.828125 10.292969 L 14.828125 26.476562 L 12.304688 28.789062 L 26.179688 28.789062 L 27.4375 29.945312 L 31.21875 23.007812 L 29.960938 23.007812 L 24.914062 26.476562 L 21.132812 26.476562 L 19.871094 24.164062 L 19.871094 3.355469 L 21.132812 1.046875 Z M 9.78125 1.046875 "/></g></svg>
