<svg width="64" height="64" viewBox="0 0 64 64" version="1.1"><defs><linearGradient id="linear-pattern-0" gradientUnits="userSpaceOnUse" x1="0" y1="0" x2="0" y2="1" gradientTransform="matrix(60, 0, 0, 56, 0, 4)"><stop offset="0" stop-color="#00983a" stop-opacity="1"/><stop offset="1" stop-color="#004a1c" stop-opacity="1"/></linearGradient></defs><path fill="url(#linear-pattern-0)" fill-opacity="1" d="M 36.21875 2.050781 L 62.027344 27.605469 C 64.402344 29.957031 64.417969 33.785156 62.058594 36.15625 L 36.460938 61.917969 C 34.105469 64.289062 30.269531 64.304688 27.894531 61.949219 L 2.085938 36.394531 C -0.289062 34.042969 -0.304688 30.214844 2.050781 27.84375 L 27.652344 2.082031 C 30.007812 -0.289062 33.84375 -0.304688 36.21875 2.050781 Z M 36.21875 2.050781 " /><g transform="matrix(1.0075098,0,0,1.0032698,16.221436,16.077397)"><path fill-rule="nonzero" fill="rgb(100%, 100%, 100%)" fill-opacity="1" d="M 8.308594 27.390625 C 7.6875 27.289062 6.585938 26.859375 5.84375 26.429688 C 1.046875 23.65625 -0.921875 16.664062 1.445312 10.773438 C 4.148438 4.039062 11.523438 2.328125 15.960938 7.394531 C 17.242188 8.859375 17.8125 10.109375 19.742188 15.648438 C 21.757812 21.445312 22.132812 22.351562 22.785156 23.125 C 23.484375 23.949219 24.132812 24.226562 25.375 24.226562 C 27.414062 24.226562 28.867188 22.703125 28.867188 20.582031 C 28.867188 18.789062 28.34375 18.210938 25.679688 17.070312 C 21.613281 15.300781 20.296875 13.703125 20.289062 10.492188 C 20.289062 8.78125 20.65625 7.640625 21.566406 6.457031 C 22.875 4.765625 25.140625 4.207031 27.140625 5.046875 C 27.992188 5.414062 29.78125 7.320312 29.78125 7.867188 C 29.78125 8.132812 28.746094 8.945312 28.171875 9.132812 C 27.867188 9.226562 27.609375 9.109375 27.257812 8.703125 C 26.546875 7.878906 26.070312 7.625 25.21875 7.625 C 23.75 7.625 22.84375 8.691406 22.84375 10.40625 C 22.84375 12.117188 23.421875 12.699219 26.3125 13.875 C 30.289062 15.5 31.46875 16.960938 31.492188 20.351562 C 31.515625 23.273438 30.421875 25.386719 28.246094 26.640625 C 27.257812 27.203125 26.921875 27.269531 25.304688 27.269531 C 23 27.265625 21.96875 26.757812 20.671875 25 C 19.804688 23.816406 18.921875 21.597656 16.101562 13.503906 C 14.929688 10.148438 13.429688 8.503906 10.921875 7.855469 C 9.652344 7.53125 7.882812 7.832031 6.730469 8.566406 C 5.609375 9.273438 4.351562 10.875 3.757812 12.335938 C 3.269531 13.523438 3.222656 13.859375 3.222656 15.921875 C 3.222656 17.890625 3.289062 18.351562 3.695312 19.4375 C 4.320312 21.09375 5.539062 22.609375 6.882812 23.429688 C 7.855469 24.023438 8.15625 24.09375 9.707031 24.09375 C 11.195312 24.09375 11.570312 24 12.464844 23.5 C 13.476562 22.902344 14.84375 21.4375 15.394531 20.34375 L 15.6875 19.773438 L 16.257812 21.34375 C 16.574219 22.214844 16.828125 23.027344 16.828125 23.179688 C 16.828125 23.609375 15.539062 25.007812 14.359375 25.90625 C 12.566406 27.242188 10.507812 27.746094 8.3125 27.382812 "/></g></svg>
