<svg width="64" height="64" viewBox="0 0 64 64" version="1.1"><defs><linearGradient id="linear-pattern-0" gradientUnits="userSpaceOnUse" x1="0" y1="0" x2="0" y2="1" gradientTransform="matrix(60, 0, 0, 56, 0, 4)"><stop offset="0" stop-color="#8900e4" stop-opacity="1"/><stop offset="1" stop-color="#42006e" stop-opacity="1"/></linearGradient></defs><path fill="url(#linear-pattern-0)" fill-opacity="1" d="M 36.21875 2.050781 L 62.027344 27.605469 C 64.402344 29.957031 64.417969 33.785156 62.058594 36.15625 L 36.460938 61.917969 C 34.105469 64.289062 30.269531 64.304688 27.894531 61.949219 L 2.085938 36.394531 C -0.289062 34.042969 -0.304688 30.214844 2.050781 27.84375 L 27.652344 2.082031 C 30.007812 -0.289062 33.84375 -0.304688 36.21875 2.050781 Z M 36.21875 2.050781 " /><g transform="matrix(1.0075098,0,0,1.0032698,16.221436,16.077397)"><path fill-rule="nonzero" fill="rgb(100%, 100%, 100%)" fill-opacity="1" d="M 4.570312 8 C 3.9375 8 3.429688 8.511719 3.429688 9.140625 C 3.429688 9.773438 3.9375 10.285156 4.570312 10.285156 C 5.203125 10.285156 5.714844 9.773438 5.714844 9.140625 C 5.714844 8.511719 5.203125 8 4.570312 8 Z M 16 8 C 15.367188 8 14.859375 8.511719 14.859375 9.140625 C 14.859375 9.773438 15.367188 10.285156 16 10.285156 C 16.632812 10.285156 17.140625 9.773438 17.140625 9.140625 C 17.140625 8.511719 16.632812 8 16 8 Z M 19.429688 8 C 18.796875 8 18.285156 8.511719 18.285156 9.140625 C 18.285156 9.773438 18.796875 10.285156 19.429688 10.285156 C 20.0625 10.285156 20.570312 9.773438 20.570312 9.140625 C 20.570312 8.511719 20.0625 8 19.429688 8 Z M 24 8 C 23.367188 8 22.859375 8.511719 22.859375 9.140625 C 22.859375 9.773438 23.367188 10.285156 24 10.285156 C 24.632812 10.285156 25.140625 9.773438 25.140625 9.140625 C 25.140625 8.511719 24.632812 8 24 8 Z M 27.429688 8 C 26.796875 8 26.285156 8.511719 26.285156 9.140625 C 26.285156 9.773438 26.796875 10.285156 27.429688 10.285156 C 28.0625 10.285156 28.570312 9.773438 28.570312 9.140625 C 28.570312 8.511719 28.0625 8 27.429688 8 Z M 30.859375 8 C 30.226562 8 29.714844 8.511719 29.714844 9.140625 C 29.714844 9.773438 30.226562 10.285156 30.859375 10.285156 C 31.488281 10.285156 32 9.773438 32 9.140625 C 32 8.511719 31.488281 8 30.859375 8 Z M 1.140625 11.429688 C 0.511719 11.429688 0 11.9375 0 12.570312 C 0 13.203125 0.511719 13.714844 1.140625 13.714844 C 1.773438 13.714844 2.285156 13.203125 2.285156 12.570312 C 2.285156 11.9375 1.773438 11.429688 1.140625 11.429688 Z M 8 11.429688 C 7.367188 11.429688 6.859375 11.9375 6.859375 12.570312 C 6.859375 13.203125 7.367188 13.714844 8 13.714844 C 8.632812 13.714844 9.140625 13.203125 9.140625 12.570312 C 9.140625 11.9375 8.632812 11.429688 8 11.429688 Z M 13.714844 11.429688 C 13.085938 11.429688 12.570312 11.9375 12.570312 12.570312 C 12.570312 13.203125 13.085938 13.714844 13.714844 13.714844 C 14.34375 13.714844 14.859375 13.203125 14.859375 12.570312 C 14.859375 11.9375 14.34375 11.429688 13.714844 11.429688 Z M 24 11.429688 C 23.367188 11.429688 22.859375 11.9375 22.859375 12.570312 C 22.859375 13.203125 23.367188 13.714844 24 13.714844 C 24.632812 13.714844 25.140625 13.203125 25.140625 12.570312 C 25.140625 11.9375 24.632812 11.429688 24 11.429688 Z M 1.140625 14.859375 C 0.511719 14.859375 0 15.367188 0 16 C 0 16.632812 0.511719 17.140625 1.140625 17.140625 C 1.773438 17.140625 2.285156 16.632812 2.285156 16 C 2.285156 15.367188 1.773438 14.859375 1.140625 14.859375 Z M 4.570312 14.859375 C 3.9375 14.859375 3.429688 15.367188 3.429688 16 C 3.429688 16.632812 3.9375 17.140625 4.570312 17.140625 C 5.203125 17.140625 5.714844 16.632812 5.714844 16 C 5.714844 15.367188 5.203125 14.859375 4.570312 14.859375 Z M 8 14.859375 C 7.367188 14.859375 6.859375 15.367188 6.859375 16 C 6.859375 16.632812 7.367188 17.140625 8 17.140625 C 8.632812 17.140625 9.140625 16.632812 9.140625 16 C 9.140625 15.367188 8.632812 14.859375 8 14.859375 Z M 16 14.859375 C 15.367188 14.859375 14.859375 15.367188 14.859375 16 C 14.859375 16.632812 15.367188 17.140625 16 17.140625 C 16.632812 17.140625 17.140625 16.632812 17.140625 16 C 17.140625 15.367188 16.632812 14.859375 16 14.859375 Z M 24 14.859375 C 23.367188 14.859375 22.859375 15.367188 22.859375 16 C 22.859375 16.632812 23.367188 17.140625 24 17.140625 C 24.632812 17.140625 25.140625 16.632812 25.140625 16 C 25.140625 15.367188 24.632812 14.859375 24 14.859375 Z M 27.429688 14.859375 C 26.796875 14.859375 26.285156 15.367188 26.285156 16 C 26.285156 16.632812 26.796875 17.140625 27.429688 17.140625 C 28.0625 17.140625 28.570312 16.632812 28.570312 16 C 28.570312 15.367188 28.0625 14.859375 27.429688 14.859375 Z M 1.140625 18.285156 C 0.511719 18.285156 0 18.796875 0 19.429688 C 0 20.0625 0.511719 20.570312 1.140625 20.570312 C 1.773438 20.570312 2.285156 20.0625 2.285156 19.429688 C 2.285156 18.796875 1.773438 18.285156 1.140625 18.285156 Z M 8 18.285156 C 7.367188 18.285156 6.859375 18.796875 6.859375 19.429688 C 6.859375 20.0625 7.367188 20.570312 8 20.570312 C 8.632812 20.570312 9.140625 20.0625 9.140625 19.429688 C 9.140625 18.796875 8.632812 18.285156 8 18.285156 Z M 19.429688 18.285156 C 18.796875 18.285156 18.285156 18.796875 18.285156 19.429688 C 18.285156 20.0625 18.796875 20.570312 19.429688 20.570312 C 20.0625 20.570312 20.570312 20.0625 20.570312 19.429688 C 20.570312 18.796875 20.0625 18.285156 19.429688 18.285156 Z M 24 18.285156 C 23.367188 18.285156 22.859375 18.796875 22.859375 19.429688 C 22.859375 20.0625 23.367188 20.570312 24 20.570312 C 24.632812 20.570312 25.140625 20.0625 25.140625 19.429688 C 25.140625 18.796875 24.632812 18.285156 24 18.285156 Z M 1.140625 21.714844 C 0.511719 21.714844 0 22.226562 0 22.859375 C 0 23.488281 0.511719 24 1.140625 24 C 1.773438 24 2.285156 23.488281 2.285156 22.859375 C 2.285156 22.226562 1.773438 21.714844 1.140625 21.714844 Z M 8 21.714844 C 7.367188 21.714844 6.859375 22.226562 6.859375 22.859375 C 6.859375 23.488281 7.367188 24 8 24 C 8.632812 24 9.140625 23.488281 9.140625 22.859375 C 9.140625 22.226562 8.632812 21.714844 8 21.714844 Z M 12.570312 21.714844 C 11.9375 21.714844 11.429688 22.226562 11.429688 22.859375 C 11.429688 23.488281 11.9375 24 12.570312 24 C 13.203125 24 13.714844 23.488281 13.714844 22.859375 C 13.714844 22.226562 13.203125 21.714844 12.570312 21.714844 Z M 16 21.714844 C 15.367188 21.714844 14.859375 22.226562 14.859375 22.859375 C 14.859375 23.488281 15.367188 24 16 24 C 16.632812 24 17.140625 23.488281 17.140625 22.859375 C 17.140625 22.226562 16.632812 21.714844 16 21.714844 Z M 24 21.714844 C 23.367188 21.714844 22.859375 22.226562 22.859375 22.859375 C 22.859375 23.488281 23.367188 24 24 24 C 24.632812 24 25.140625 23.488281 25.140625 22.859375 C 25.140625 22.226562 24.632812 21.714844 24 21.714844 Z M 27.429688 21.714844 C 26.796875 21.714844 26.285156 22.226562 26.285156 22.859375 C 26.285156 23.488281 26.796875 24 27.429688 24 C 28.0625 24 28.570312 23.488281 28.570312 22.859375 C 28.570312 22.226562 28.0625 21.714844 27.429688 21.714844 Z M 30.859375 21.714844 C 30.226562 21.714844 29.714844 22.226562 29.714844 22.859375 C 29.714844 23.488281 30.226562 24 30.859375 24 C 31.488281 24 32 23.488281 32 22.859375 C 32 22.226562 31.488281 21.714844 30.859375 21.714844 Z M 30.859375 21.714844 "/></g></svg>
