<svg width="64" height="64" viewBox="0 0 64 64" version="1.1"><defs><linearGradient id="linear-pattern-0" gradientUnits="userSpaceOnUse" x1="0" y1="0" x2="0" y2="1" gradientTransform="matrix(60, 0, 0, 56, 0, 4)"><stop offset="0" stop-color="#0288cf" stop-opacity="1"/><stop offset="1" stop-color="#01486e" stop-opacity="1"/></linearGradient></defs><path fill="url(#linear-pattern-0)" fill-opacity="1" d="M 36.21875 2.050781 L 62.027344 27.605469 C 64.402344 29.957031 64.417969 33.785156 62.058594 36.15625 L 36.460938 61.917969 C 34.105469 64.289062 30.269531 64.304688 27.894531 61.949219 L 2.085938 36.394531 C -0.289062 34.042969 -0.304688 30.214844 2.050781 27.84375 L 27.652344 2.082031 C 30.007812 -0.289062 33.84375 -0.304688 36.21875 2.050781 Z M 36.21875 2.050781 " /><g transform="matrix(1.0075098,0,0,1.0032698,16.221436,16.077397)"><path fill-rule="nonzero" fill="rgb(100%, 100%, 100%)" fill-opacity="1" d="M 22.136719 1.070312 C 11.566406 1.070312 4.015625 6.53125 1.527344 15.988281 C 0.8125 18.707031 0.742188 22.53125 1.363281 24.921875 C 1.914062 27.046875 4.171875 29.648438 6.300781 30.617188 C 8.359375 31.554688 12.066406 31.378906 14.347656 30.242188 C 15.914062 29.460938 17.765625 27.773438 19.109375 25.890625 C 19.789062 24.945312 19.789062 24.984375 19.523438 27.734375 L 19.25 30.546875 L 27.339844 30.546875 L 27.339844 28.703125 C 27.34375 25.601562 28.074219 20.269531 29.75 11.183594 C 30.632812 6.40625 31.289062 2.4375 31.203125 2.359375 C 30.710938 1.878906 25.027344 1.070312 22.136719 1.070312 M 19.132812 7.414062 C 19.582031 7.390625 20.027344 7.421875 20.472656 7.507812 C 21.164062 7.648438 21.734375 7.992188 21.734375 8.285156 C 21.734375 9.453125 19.78125 17.648438 19.160156 19.101562 C 17.125 23.835938 13.527344 26.078125 11.34375 23.964844 C 10.253906 22.90625 9.996094 21.644531 10.21875 18.394531 C 10.609375 12.59375 14.820312 7.609375 19.132812 7.414062 "/></g></svg>
