<svg width="64" height="64" viewBox="0 0 64 64" version="1.1"><defs><linearGradient id="linear-pattern-0" gradientUnits="userSpaceOnUse" x1="0" y1="0" x2="0" y2="1" gradientTransform="matrix(60, 0, 0, 56, 0, 4)"><stop offset="0" stop-color="#7795ab" stop-opacity="1"/><stop offset="1" stop-color="#3b4f5f" stop-opacity="1"/></linearGradient></defs><path fill="url(#linear-pattern-0)" fill-opacity="1" d="M 36.21875 2.050781 L 62.027344 27.605469 C 64.402344 29.957031 64.417969 33.785156 62.058594 36.15625 L 36.460938 61.917969 C 34.105469 64.289062 30.269531 64.304688 27.894531 61.949219 L 2.085938 36.394531 C -0.289062 34.042969 -0.304688 30.214844 2.050781 27.84375 L 27.652344 2.082031 C 30.007812 -0.289062 33.84375 -0.304688 36.21875 2.050781 Z M 36.21875 2.050781 " /><g transform="matrix(1.0075098,0,0,1.0032698,16.221436,16.077397)"><path fill-rule="nonzero" fill="rgb(100%, 100%, 100%)" fill-opacity="1" d="M 15.945312 1 L 7.972656 9.25 L 1.984375 9.25 C 1.984375 9.25 0 11.257812 0 16.003906 C 0 20.746094 1.984375 22.75 1.984375 22.75 L 7.972656 22.75 L 15.945312 31 Z M 15.945312 1 "/><path fill-rule="nonzero" fill="rgb(100%, 100%, 100%)" fill-opacity="1" d="M 21.695312 9.085938 L 20.082031 10.671875 L 20.886719 11.46875 C 22.171875 12.734375 22.890625 14.453125 22.890625 16.242188 C 22.890625 18.03125 22.171875 19.75 20.886719 21.015625 L 20.082031 21.8125 L 21.695312 23.398438 L 22.5 22.605469 C 24.207031 20.917969 25.167969 18.628906 25.167969 16.242188 C 25.167969 13.855469 24.207031 11.566406 22.5 9.878906 Z M 21.695312 9.085938 "/><path fill-rule="nonzero" fill="rgb(100%, 100%, 100%)" fill-opacity="1" d="M 26.523438 4.3125 L 24.914062 5.902344 L 25.71875 6.695312 C 28.28125 9.226562 29.722656 12.664062 29.722656 16.242188 C 29.722656 19.820312 28.28125 23.257812 25.71875 25.789062 L 24.914062 26.582031 L 26.523438 28.171875 L 27.328125 27.375 C 30.320312 24.421875 32 20.417969 32 16.242188 C 32 12.0625 30.320312 8.0625 27.328125 5.105469 Z M 26.523438 4.3125 "/></g></svg>
