<svg width="64" height="64" viewBox="0 0 64 64" version="1.1"><defs><linearGradient id="linear-pattern-0" gradientUnits="userSpaceOnUse" x1="0" y1="0" x2="0" y2="1" gradientTransform="matrix(60, 0, 0, 56, 0, 4)"><stop offset="0" stop-color="#ec7700" stop-opacity="1"/><stop offset="1" stop-color="#773c00" stop-opacity="1"/></linearGradient></defs><path fill="url(#linear-pattern-0)" fill-opacity="1" d="M 36.21875 2.050781 L 62.027344 27.605469 C 64.402344 29.957031 64.417969 33.785156 62.058594 36.15625 L 36.460938 61.917969 C 34.105469 64.289062 30.269531 64.304688 27.894531 61.949219 L 2.085938 36.394531 C -0.289062 34.042969 -0.304688 30.214844 2.050781 27.84375 L 27.652344 2.082031 C 30.007812 -0.289062 33.84375 -0.304688 36.21875 2.050781 Z M 36.21875 2.050781 " /><g transform="matrix(1.0075098,0,0,1.0032698,16.221436,16.077397)"><path fill-rule="nonzero" fill="rgb(100%, 100%, 100%)" fill-opacity="1" d="M 16 2.824219 C 9.242188 2.824219 3.765625 8.304688 3.765625 15.058594 L 3.765625 19.023438 C 1.539062 19.65625 0 21.6875 0 24 C 0 26.859375 2.320312 29.175781 5.175781 29.175781 C 5.996094 29.171875 6.804688 28.976562 7.53125 28.601562 L 7.53125 29.175781 L 10.351562 29.175781 L 10.351562 18.824219 L 7.53125 18.824219 L 7.53125 19.390625 C 7.226562 19.234375 6.914062 19.113281 6.585938 19.023438 L 6.585938 15.058594 C 6.585938 9.859375 10.804688 5.648438 16 5.648438 C 21.195312 5.648438 25.414062 9.859375 25.414062 15.058594 L 25.414062 19.023438 C 23.1875 19.65625 21.648438 21.6875 21.648438 24 C 21.648438 26.859375 23.964844 29.175781 26.824219 29.175781 C 29.679688 29.175781 32 26.859375 32 24 C 32 21.6875 30.460938 19.65625 28.234375 19.023438 L 28.234375 15.058594 C 28.234375 8.304688 22.757812 2.824219 16 2.824219 Z M 5.175781 21.648438 C 6.476562 21.648438 7.53125 22.699219 7.53125 24 C 7.53125 25.300781 6.476562 26.351562 5.175781 26.351562 C 3.878906 26.351562 2.824219 25.300781 2.824219 24 C 2.824219 22.699219 3.878906 21.648438 5.175781 21.648438 Z M 26.824219 21.648438 C 28.121094 21.648438 29.175781 22.699219 29.175781 24 C 29.175781 25.300781 28.121094 26.351562 26.824219 26.351562 C 25.523438 26.351562 24.46875 25.300781 24.46875 24 C 24.46875 22.699219 25.523438 21.648438 26.824219 21.648438 Z M 26.824219 21.648438 "/></g></svg>
