<svg width="64" height="64" viewBox="0 0 64 64" version="1.1"><defs><linearGradient id="linear-pattern-0" gradientUnits="userSpaceOnUse" x1="0" y1="0" x2="0" y2="1" gradientTransform="matrix(60, 0, 0, 56, 0, 4)"><stop offset="0" stop-color="#aaaa00" stop-opacity="1"/><stop offset="1" stop-color="#5c5c00" stop-opacity="1"/></linearGradient></defs><path fill="url(#linear-pattern-0)" fill-opacity="1" d="M 36.21875 2.050781 L 62.027344 27.605469 C 64.402344 29.957031 64.417969 33.785156 62.058594 36.15625 L 36.460938 61.917969 C 34.105469 64.289062 30.269531 64.304688 27.894531 61.949219 L 2.085938 36.394531 C -0.289062 34.042969 -0.304688 30.214844 2.050781 27.84375 L 27.652344 2.082031 C 30.007812 -0.289062 33.84375 -0.304688 36.21875 2.050781 Z M 36.21875 2.050781 " /><g transform="matrix(1.0075098,0,0,1.0032698,16.221436,16.077397)"><path fill-rule="evenodd" fill="rgb(100%, 100%, 100%)" fill-opacity="1" d="M 14.09375 11.292969 L 19.421875 16.617188 C 20.191406 17.390625 21.4375 17.390625 22.210938 16.617188 C 22.984375 15.847656 22.984375 14.601562 22.210938 13.828125 L 16.882812 8.5 C 13.070312 4.6875 6.90625 4.625 3.011719 8.308594 C 2.976562 8.335938 2.941406 8.367188 2.90625 8.402344 C 2.890625 8.421875 2.875 8.4375 2.859375 8.453125 C 2.84375 8.46875 2.828125 8.484375 2.8125 8.5 C 2.773438 8.53125 2.746094 8.570312 2.71875 8.605469 C -0.96875 12.5 -0.90625 18.664062 2.90625 22.476562 L 8.238281 27.804688 C 9.007812 28.574219 10.257812 28.574219 11.023438 27.804688 C 11.796875 27.03125 11.796875 25.78125 11.023438 25.015625 L 5.695312 19.6875 C 3.375 17.359375 3.355469 13.585938 5.648438 11.242188 C 7.996094 8.949219 11.765625 8.96875 14.09375 11.292969 Z M 20.976562 4.195312 C 20.203125 4.96875 20.203125 6.214844 20.976562 6.984375 L 26.304688 12.3125 C 28.628906 14.640625 28.640625 18.414062 26.351562 20.757812 C 24.003906 23.050781 20.234375 23.03125 17.90625 20.710938 L 12.578125 15.382812 C 11.808594 14.609375 10.558594 14.609375 9.789062 15.382812 C 9.015625 16.152344 9.015625 17.398438 9.789062 18.171875 L 15.117188 23.5 C 18.929688 27.3125 25.09375 27.375 28.984375 23.691406 C 29.023438 23.664062 29.058594 23.632812 29.09375 23.597656 C 29.109375 23.578125 29.121094 23.5625 29.140625 23.546875 C 29.15625 23.53125 29.171875 23.515625 29.1875 23.5 C 29.226562 23.46875 29.253906 23.429688 29.28125 23.394531 C 32.96875 19.5 32.90625 13.335938 29.09375 9.523438 L 23.765625 4.195312 C 22.992188 3.425781 21.742188 3.425781 20.976562 4.195312 Z M 20.976562 4.195312 "/></g></svg>
