<svg width="64" height="64" viewBox="0 0 64 64" version="1.1"><defs><linearGradient id="linear-pattern-0" gradientUnits="userSpaceOnUse" x1="0" y1="0" x2="0" y2="1" gradientTransform="matrix(60, 0, 0, 56, 0, 4)"><stop offset="0" stop-color="#d00068" stop-opacity="1"/><stop offset="1" stop-color="#6e0037" stop-opacity="1"/></linearGradient></defs><path fill="url(#linear-pattern-0)" fill-opacity="1" d="M 36.21875 2.050781 L 62.027344 27.605469 C 64.402344 29.957031 64.417969 33.785156 62.058594 36.15625 L 36.460938 61.917969 C 34.105469 64.289062 30.269531 64.304688 27.894531 61.949219 L 2.085938 36.394531 C -0.289062 34.042969 -0.304688 30.214844 2.050781 27.84375 L 27.652344 2.082031 C 30.007812 -0.289062 33.84375 -0.304688 36.21875 2.050781 Z M 36.21875 2.050781 " /><g transform="matrix(1.0075098,0,0,1.0032698,16.221436,16.077397)"><path fill-rule="evenodd" fill="rgb(100%, 100%, 100%)" fill-opacity="1" d="M 7.152344 10.496094 C 5.101562 10.496094 3.429688 12.167969 3.429688 14.210938 C 3.429688 16.253906 5.101562 17.921875 7.152344 17.921875 C 9.203125 17.921875 10.875 16.253906 10.875 14.210938 C 10.875 12.164062 9.203125 10.496094 7.152344 10.496094 M 16.023438 10.496094 C 13.972656 10.496094 12.304688 12.167969 12.304688 14.210938 C 12.304688 16.253906 13.972656 17.921875 16.023438 17.921875 C 18.078125 17.921875 19.753906 16.253906 19.753906 14.210938 C 19.753906 12.164062 18.078125 10.496094 16.023438 10.496094 M 24.902344 10.496094 C 22.847656 10.496094 21.179688 12.167969 21.179688 14.210938 C 21.179688 16.253906 22.847656 17.921875 24.902344 17.921875 C 26.953125 17.921875 28.625 16.253906 28.625 14.210938 C 28.625 12.164062 26.953125 10.496094 24.902344 10.496094 M 11.578125 15.570312 C 11.148438 16.828125 10.210938 17.945312 8.980469 18.46875 C 6.875 19.453125 4.210938 18.421875 3.09375 16.464844 L 0.289062 21.671875 L 31.765625 21.671875 L 29.054688 16.21875 C 28.496094 17.347656 27.507812 18.269531 26.289062 18.632812 C 23.933594 19.445312 21.183594 17.90625 20.453125 15.585938 C 20.03125 16.835938 19.054688 17.984375 17.78125 18.496094 C 15.367188 19.585938 12.328125 18.039062 11.578125 15.574219 Z M 11.578125 15.570312 "/></g></svg>
