<svg width="64" height="64" viewBox="0 0 64 64" version="1.1"><defs><linearGradient id="linear-pattern-0" gradientUnits="userSpaceOnUse" x1="0" y1="0" x2="0" y2="1" gradientTransform="matrix(60, 0, 0, 56, 0, 4)"><stop offset="0" stop-color="#8900e4" stop-opacity="1"/><stop offset="1" stop-color="#42006e" stop-opacity="1"/></linearGradient></defs><path fill="url(#linear-pattern-0)" fill-opacity="1" d="M 36.21875 2.050781 L 62.027344 27.605469 C 64.402344 29.957031 64.417969 33.785156 62.058594 36.15625 L 36.460938 61.917969 C 34.105469 64.289062 30.269531 64.304688 27.894531 61.949219 L 2.085938 36.394531 C -0.289062 34.042969 -0.304688 30.214844 2.050781 27.84375 L 27.652344 2.082031 C 30.007812 -0.289062 33.84375 -0.304688 36.21875 2.050781 Z M 36.21875 2.050781 " /><g transform="matrix(1.0075098,0,0,1.0032698,16.221436,16.077397)"><path fill-rule="nonzero" fill="rgb(100%, 100%, 100%)" fill-opacity="1" d="M 25.03125 1.117188 C 24.503906 1.078125 23.960938 1.140625 23.429688 1.324219 C 22.792969 1.539062 22.351562 1.8125 21.859375 2.296875 C 21.226562 2.933594 20.890625 3.609375 20.734375 4.515625 C 20.648438 5.019531 20.585938 5.21875 20.4375 5.53125 C 19.875 6.730469 18.625 7.570312 17.390625 7.570312 C 17.28125 7.570312 16.960938 7.546875 16.648438 7.507812 C 15.40625 7.34375 14.835938 7.324219 13.539062 7.445312 C 13.1875 7.484375 12.765625 7.507812 12.625 7.507812 C 12.003906 7.507812 11.628906 7.273438 11.375 6.765625 C 11.21875 6.453125 11.164062 6.292969 11.167969 5.730469 C 11.171875 5.265625 11.1875 5.210938 11.109375 4.992188 C 10.984375 4.648438 10.875 4.492188 10.609375 4.230469 C 10.21875 3.835938 9.804688 3.664062 9.273438 3.664062 C 8.925781 3.664062 8.679688 3.71875 8.386719 3.875 C 7.769531 4.195312 7.390625 4.792969 7.351562 5.472656 C 7.328125 5.945312 7.421875 6.234375 7.679688 6.625 C 7.867188 6.914062 8.09375 7.117188 8.507812 7.335938 C 8.957031 7.570312 9.191406 7.789062 9.394531 8.195312 C 9.523438 8.453125 9.515625 8.476562 9.515625 8.757812 C 9.515625 9.023438 9.515625 9.054688 9.425781 9.234375 C 9.375 9.339844 9.21875 9.539062 9.101562 9.675781 C 7.992188 10.914062 7.3125 12.242188 7.023438 13.671875 C 6.886719 14.347656 6.851562 14.710938 6.878906 15.445312 C 6.894531 15.796875 6.976562 16.1875 6.976562 16.304688 C 6.964844 16.976562 6.421875 17.4375 5.398438 17.785156 C 5.152344 17.867188 5.039062 17.890625 4.71875 17.90625 C 4.46875 17.914062 4.265625 17.90625 4.121094 17.875 C 3.992188 17.851562 3.734375 17.851562 3.46875 17.851562 C 2.972656 17.851562 2.734375 17.90625 2.34375 18.089844 C 0.894531 18.757812 0.253906 20.445312 0.921875 21.875 C 1.78125 23.699219 4.210938 24.097656 5.601562 22.648438 C 5.8125 22.429688 5.914062 22.265625 6.136719 21.875 C 6.203125 21.75 6.351562 21.578125 6.460938 21.464844 C 6.953125 20.945312 7.632812 20.699219 8.414062 20.699219 C 8.976562 20.699219 9.3125 20.816406 9.75 21.171875 C 10.476562 21.757812 11.492188 22.273438 12.382812 22.53125 C 13.371094 22.820312 13.929688 22.867188 15.578125 22.824219 C 16.066406 22.804688 16.21875 22.839844 16.441406 22.875 C 17.0625 23.007812 17.667969 23.242188 18.1875 23.59375 C 18.574219 23.851562 19.207031 24.480469 19.46875 24.867188 C 19.8125 25.382812 20.066406 26.039062 20.152344 26.554688 C 20.289062 27.421875 20.457031 27.9375 20.742188 28.507812 C 21.523438 30.042969 22.925781 31.070312 24.652344 31.375 C 25.125 31.460938 26.15625 31.445312 26.632812 31.351562 C 28.28125 31.015625 29.648438 29.976562 30.398438 28.507812 C 30.804688 27.710938 30.992188 26.980469 30.992188 26.050781 C 31 23.886719 29.734375 21.96875 27.738281 21.109375 C 27.28125 20.917969 26.945312 20.835938 26.316406 20.726562 C 25.695312 20.621094 25.28125 20.484375 24.835938 20.25 C 23.792969 19.710938 22.773438 18.71875 22.40625 17.625 C 22.203125 17.007812 22.140625 16.261719 22.140625 15.703125 L 22.140625 12.679688 C 22.140625 12.007812 22.210938 11.59375 22.492188 11.023438 C 22.820312 10.367188 23.542969 9.828125 24.214844 9.484375 C 24.5625 9.304688 24.820312 9.242188 25.3125 9.15625 C 25.835938 9.066406 26.210938 8.953125 26.609375 8.746094 C 27.546875 8.257812 28.265625 7.441406 28.59375 6.4375 C 28.734375 6.007812 28.769531 5.65625 28.769531 5.15625 C 28.769531 4.664062 28.707031 4.316406 28.570312 3.878906 C 28.03125 2.289062 26.609375 1.242188 25.046875 1.125 Z M 14.554688 9.945312 C 17.347656 9.945312 19.609375 12.203125 19.609375 14.992188 C 19.609375 17.785156 17.347656 20.046875 14.554688 20.046875 C 11.765625 20.046875 9.5 17.785156 9.5 14.992188 C 9.5 12.203125 11.765625 9.945312 14.554688 9.945312 Z M 14.707031 11.808594 C 13.171875 11.691406 11.773438 12.695312 11.367188 14.234375 C 11.289062 14.503906 11.273438 14.570312 11.273438 15.03125 C 11.273438 15.492188 11.289062 15.585938 11.367188 15.859375 C 11.53125 16.484375 11.929688 17.117188 12.398438 17.519531 C 13.757812 18.632812 14.75 17.664062 15.421875 16.78125 L 15.421875 16.660156 L 14.859375 16.660156 C 14.453125 16.660156 14.242188 16.65625 14.117188 16.632812 C 13.398438 16.4375 12.90625 15.789062 12.90625 15.0625 C 12.90625 14.617188 13.054688 14.226562 13.375 13.910156 C 13.679688 13.601562 14.09375 13.4375 14.5 13.4375 C 15.230469 13.4375 16.101562 13.972656 16.109375 14.710938 L 16.132812 17.820312 L 16.316406 17.820312 C 16.6875 17.78125 17.078125 17.601562 17.324219 17.347656 C 17.460938 17.203125 17.609375 16.890625 17.679688 16.671875 C 17.734375 16.492188 17.738281 16.386719 17.738281 15.578125 C 17.738281 14.414062 17.703125 14.140625 17.382812 13.539062 C 16.984375 12.773438 16.195312 12.148438 15.367188 11.9375 C 15.144531 11.875 14.898438 11.824219 14.710938 11.8125 Z M 14.707031 11.808594 "/></g></svg>
