<svg width="64" height="64" viewBox="0 0 64 64" version="1.1"><defs><linearGradient id="linear-pattern-0" gradientUnits="userSpaceOnUse" x1="0" y1="0" x2="0" y2="1" gradientTransform="matrix(60, 0, 0, 56, 0, 4)"><stop offset="0" stop-color="#008a97" stop-opacity="1"/><stop offset="1" stop-color="#00545c" stop-opacity="1"/></linearGradient></defs><path fill="url(#linear-pattern-0)" fill-opacity="1" d="M 36.21875 2.050781 L 62.027344 27.605469 C 64.402344 29.957031 64.417969 33.785156 62.058594 36.15625 L 36.460938 61.917969 C 34.105469 64.289062 30.269531 64.304688 27.894531 61.949219 L 2.085938 36.394531 C -0.289062 34.042969 -0.304688 30.214844 2.050781 27.84375 L 27.652344 2.082031 C 30.007812 -0.289062 33.84375 -0.304688 36.21875 2.050781 Z M 36.21875 2.050781 " /><g transform="matrix(1.0075098,0,0,1.0032698,16.221436,16.077397)"><path fill-rule="evenodd" fill="rgb(100%, 100%, 100%)" fill-opacity="1" d="M 5.28125 11.960938 L 1.449219 15.578125 L 2.03125 31.335938 L 31.25 30.492188 L 30.539062 11.238281 L 5.28125 11.960938 M 7.160156 19.214844 L 25.238281 18.695312 L 25.28125 19.789062 L 7.199219 20.304688 Z M 7.304688 23.117188 L 25.382812 22.601562 L 25.421875 23.695312 L 7.34375 24.214844 Z M 7.304688 23.117188 "/><path fill-rule="evenodd" fill="rgb(100%, 100%, 100%)" fill-opacity="1" d="M 0.925781 7.644531 L 1.097656 11.34375 L 1.265625 14.84375 L 5.054688 11.1875 L 5.164062 11.085938 L 0.925781 7.644531 "/><path fill-rule="evenodd" fill="rgb(100%, 100%, 100%)" fill-opacity="1" d="M 0.835938 6.3125 L 1.03125 7.03125 L 5.929688 9.804688 L 5.851562 9.921875 L 30.425781 5.210938 L 29.265625 0.859375 L 0.835938 6.3125 M 6.867188 5.640625 L 10.011719 5.035156 L 12.039062 8.390625 L 8.886719 8.992188 L 6.867188 5.640625 M 14.527344 4.171875 L 17.671875 3.5625 L 19.695312 6.917969 L 16.550781 7.523438 Z M 21.890625 2.757812 L 25.039062 2.15625 L 27.0625 5.507812 L 23.914062 6.109375 L 21.890625 2.757812 "/></g></svg>
