<svg width="64" height="64" viewBox="0 0 64 64" version="1.1"><defs><linearGradient id="linear-pattern-0" gradientUnits="userSpaceOnUse" x1="0" y1="0" x2="0" y2="1" gradientTransform="matrix(60, 0, 0, 56, 0, 4)"><stop offset="0" stop-color="#7795ab" stop-opacity="1"/><stop offset="1" stop-color="#3b4f5f" stop-opacity="1"/></linearGradient></defs><path fill="url(#linear-pattern-0)" fill-opacity="1" d="M 36.21875 2.050781 L 62.027344 27.605469 C 64.402344 29.957031 64.417969 33.785156 62.058594 36.15625 L 36.460938 61.917969 C 34.105469 64.289062 30.269531 64.304688 27.894531 61.949219 L 2.085938 36.394531 C -0.289062 34.042969 -0.304688 30.214844 2.050781 27.84375 L 27.652344 2.082031 C 30.007812 -0.289062 33.84375 -0.304688 36.21875 2.050781 Z M 36.21875 2.050781 " /><g transform="matrix(1.0075098,0,0,1.0032698,16.221436,16.077397)"><path fill-rule="nonzero" fill="rgb(100%, 100%, 100%)" fill-opacity="1" d="M 17.851562 1.273438 C 17.011719 1.273438 16.328125 2.101562 16.328125 3.128906 L 16.328125 3.746094 L 9.226562 3.746094 C 4.742188 3.746094 1.109375 8.171875 1.109375 13.636719 C 1.109375 16.636719 2.230469 19.476562 4.152344 21.351562 L 4.152344 29.089844 C 4.152344 30.113281 4.835938 30.945312 5.671875 30.945312 C 6.515625 30.945312 7.195312 30.113281 7.195312 29.089844 L 7.195312 23.195312 C 7.859375 23.40625 8.539062 23.515625 9.226562 23.523438 L 10.242188 23.523438 L 10.242188 29.085938 C 10.242188 30.109375 10.921875 30.941406 11.761719 30.941406 C 12.601562 30.941406 13.289062 30.109375 13.289062 29.085938 L 13.289062 23.523438 L 19.375 23.523438 L 19.375 29.085938 C 19.375 30.109375 20.054688 30.941406 20.898438 30.941406 C 21.734375 30.941406 22.417969 30.109375 22.417969 29.085938 L 22.417969 23.523438 L 23.433594 23.523438 C 24.117188 23.519531 24.800781 23.410156 25.460938 23.199219 L 25.460938 29.085938 C 25.460938 30.109375 26.144531 30.941406 26.984375 30.941406 C 27.828125 30.941406 28.507812 30.109375 28.507812 29.085938 L 28.507812 21.34375 C 30.429688 19.46875 31.546875 16.632812 31.550781 13.632812 C 31.550781 8.167969 27.917969 3.742188 23.433594 3.742188 L 23.433594 3.125 C 23.433594 2.097656 22.75 1.269531 21.914062 1.269531 C 21.070312 1.269531 20.390625 2.097656 20.390625 3.125 L 20.390625 3.742188 L 19.375 3.742188 L 19.375 3.125 C 19.375 2.097656 18.695312 1.269531 17.851562 1.269531 Z M 19.375 12.398438 C 19.375 11.71875 19.828125 11.164062 20.390625 11.164062 C 20.949219 11.164062 21.40625 11.71875 21.40625 12.398438 C 21.40625 13.082031 20.949219 13.636719 20.390625 13.636719 C 19.828125 13.636719 19.375 13.082031 19.375 12.398438 Z M 25.460938 9.929688 C 25.460938 9.246094 25.914062 8.695312 26.476562 8.695312 C 27.039062 8.695312 27.492188 9.246094 27.492188 9.929688 C 27.492188 10.609375 27.039062 11.164062 26.476562 11.164062 C 25.914062 11.164062 25.460938 10.609375 25.460938 9.929688 Z M 25.460938 9.929688 "/></g></svg>
