<svg width="64" height="64" viewBox="0 0 64 64" version="1.1"><defs><linearGradient id="linear-pattern-0" gradientUnits="userSpaceOnUse" x1="0" y1="0" x2="0" y2="1" gradientTransform="matrix(60, 0, 0, 56, 0, 4)"><stop offset="0" stop-color="#0288cf" stop-opacity="1"/><stop offset="1" stop-color="#01486e" stop-opacity="1"/></linearGradient></defs><path fill="url(#linear-pattern-0)" fill-opacity="1" d="M 36.21875 2.050781 L 62.027344 27.605469 C 64.402344 29.957031 64.417969 33.785156 62.058594 36.15625 L 36.460938 61.917969 C 34.105469 64.289062 30.269531 64.304688 27.894531 61.949219 L 2.085938 36.394531 C -0.289062 34.042969 -0.304688 30.214844 2.050781 27.84375 L 27.652344 2.082031 C 30.007812 -0.289062 33.84375 -0.304688 36.21875 2.050781 Z M 36.21875 2.050781 " /><g transform="matrix(1.0075098,0,0,1.0032698,16.221436,16.077397)"><path fill-rule="nonzero" fill="rgb(100%, 100%, 100%)" fill-opacity="1" d="M 16.0625 0.929688 L 31.226562 7.21875 L 31.226562 8.476562 L 0.902344 8.476562 L 0.902344 7.21875 Z M 4.691406 9.734375 L 8.484375 9.734375 L 8.484375 24.828125 L 4.691406 24.828125 Z M 11.007812 9.734375 L 14.796875 9.734375 L 14.796875 24.828125 L 11.007812 24.828125 Z M 17.328125 9.734375 L 21.117188 9.734375 L 21.117188 24.828125 L 17.328125 24.828125 Z M 23.640625 9.734375 L 27.433594 9.734375 L 27.433594 24.828125 L 23.640625 24.828125 Z M 0.902344 31.117188 L 0.902344 29.859375 L 3.429688 26.082031 L 28.695312 26.082031 L 31.226562 29.859375 L 31.226562 31.117188 Z M 0.902344 31.117188 "/></g></svg>
