<svg width="64" height="64" viewBox="0 0 64 64" version="1.1"><defs><linearGradient id="linear-pattern-0" gradientUnits="userSpaceOnUse" x1="0" y1="0" x2="0" y2="1" gradientTransform="matrix(60, 0, 0, 56, 0, 4)"><stop offset="0" stop-color="#ec7700" stop-opacity="1"/><stop offset="1" stop-color="#773c00" stop-opacity="1"/></linearGradient></defs><path fill="url(#linear-pattern-0)" fill-opacity="1" d="M 36.21875 2.050781 L 62.027344 27.605469 C 64.402344 29.957031 64.417969 33.785156 62.058594 36.15625 L 36.460938 61.917969 C 34.105469 64.289062 30.269531 64.304688 27.894531 61.949219 L 2.085938 36.394531 C -0.289062 34.042969 -0.304688 30.214844 2.050781 27.84375 L 27.652344 2.082031 C 30.007812 -0.289062 33.84375 -0.304688 36.21875 2.050781 Z M 36.21875 2.050781 " /><g transform="matrix(1.0075098,0,0,1.0032698,16.221436,16.077397)"><path fill-rule="nonzero" fill="rgb(100%, 100%, 100%)" fill-opacity="1" d="M 5.890625 0.914062 C 4.78125 0.914062 3.886719 2 3.886719 3.34375 L 3.886719 17.875 C 3.886719 17.984375 3.894531 18.089844 3.90625 18.195312 C 3.90625 18.203125 3.90625 18.203125 3.90625 18.207031 C 3.894531 18.414062 3.886719 18.617188 3.886719 18.828125 C 3.886719 25.632812 9.382812 31.152344 16.167969 31.152344 C 22.953125 31.152344 28.453125 25.632812 28.453125 18.828125 C 28.453125 12.015625 22.953125 6.492188 16.167969 6.492188 C 12.980469 6.492188 10.082031 7.71875 7.898438 9.71875 L 7.898438 3.34375 C 7.898438 2 7 0.914062 5.890625 0.914062 M 16.167969 10.507812 C 20.75 10.507812 24.460938 14.226562 24.460938 18.828125 C 24.460938 23.417969 20.75 27.148438 16.167969 27.148438 C 11.589844 27.148438 7.882812 23.417969 7.882812 18.828125 C 7.882812 14.226562 11.589844 10.507812 16.167969 10.507812 M 12 16.449219 C 10.710938 16.449219 9.667969 17.496094 9.667969 18.792969 C 9.667969 20.089844 10.710938 21.144531 12 21.144531 C 13.292969 21.144531 14.34375 20.089844 14.34375 18.792969 C 14.34375 17.496094 13.292969 16.449219 12 16.449219 "/></g></svg>
