<svg width="64" height="64" viewBox="0 0 64 64" version="1.1"><defs><linearGradient id="linear-pattern-0" gradientUnits="userSpaceOnUse" x1="0" y1="0" x2="0" y2="1" gradientTransform="matrix(60, 0, 0, 56, 0, 4)"><stop offset="0" stop-color="#7795ab" stop-opacity="1"/><stop offset="1" stop-color="#3b4f5f" stop-opacity="1"/></linearGradient></defs><path fill="url(#linear-pattern-0)" fill-opacity="1" d="M 36.21875 2.050781 L 62.027344 27.605469 C 64.402344 29.957031 64.417969 33.785156 62.058594 36.15625 L 36.460938 61.917969 C 34.105469 64.289062 30.269531 64.304688 27.894531 61.949219 L 2.085938 36.394531 C -0.289062 34.042969 -0.304688 30.214844 2.050781 27.84375 L 27.652344 2.082031 C 30.007812 -0.289062 33.84375 -0.304688 36.21875 2.050781 Z M 36.21875 2.050781 " /><g transform="matrix(1.0075098,0,0,1.0032698,16.221436,16.077397)"><path fill-rule="nonzero" fill="rgb(100%, 100%, 100%)" fill-opacity="1" d="M 0.648438 1.078125 L 0.648438 20.351562 L 14.671875 15.679688 L 14.671875 1.078125 Z M 17.476562 1.078125 L 17.476562 10.421875 L 31.5 15.09375 L 31.5 1.078125 Z M 17.476562 12.757812 L 17.476562 31.449219 L 31.5 31.449219 L 31.5 17.433594 Z M 14.671875 18.015625 L 0.648438 22.6875 L 0.648438 31.449219 L 14.671875 31.449219 Z M 14.671875 18.015625 "/></g></svg>
