<svg width="64" height="64" viewBox="0 0 64 64" version="1.1"><defs><linearGradient id="linear-pattern-0" gradientUnits="userSpaceOnUse" x1="0" y1="0" x2="0" y2="1" gradientTransform="matrix(60, 0, 0, 56, 0, 4)"><stop offset="0" stop-color="#ec7700" stop-opacity="1"/><stop offset="1" stop-color="#773c00" stop-opacity="1"/></linearGradient></defs><path fill="url(#linear-pattern-0)" fill-opacity="1" d="M 36.21875 2.050781 L 62.027344 27.605469 C 64.402344 29.957031 64.417969 33.785156 62.058594 36.15625 L 36.460938 61.917969 C 34.105469 64.289062 30.269531 64.304688 27.894531 61.949219 L 2.085938 36.394531 C -0.289062 34.042969 -0.304688 30.214844 2.050781 27.84375 L 27.652344 2.082031 C 30.007812 -0.289062 33.84375 -0.304688 36.21875 2.050781 Z M 36.21875 2.050781 " /><g transform="matrix(1.0075098,0,0,1.0032698,16.221436,16.077397)"><path fill-rule="nonzero" fill="rgb(100%, 100%, 100%)" fill-opacity="1" d="M 16 0 C 7.152344 0 0 7.152344 0 16 C 0 24.847656 7.152344 32 16 32 C 24.847656 32 32 24.847656 32 16 C 32 7.152344 24.847656 0 16 0 Z M 16 2 L 16 16 L 30.046875 16.09375 C 30.148438 16.09375 30 15.882812 30 16 C 30 23.742188 23.742188 30 16 30 C 8.257812 30 2 23.742188 2 16 C 2 8.425781 7.996094 2.265625 15.507812 2.007812 C 15.671875 2 16 1.835938 16 2 Z M 16 2 "/></g></svg>
