<svg width="64" height="64" viewBox="0 0 64 64" version="1.1"><defs><linearGradient id="linear-pattern-0" gradientUnits="userSpaceOnUse" x1="0" y1="0" x2="0" y2="1" gradientTransform="matrix(60, 0, 0, 56, 0, 4)"><stop offset="0" stop-color="#c10000" stop-opacity="1"/><stop offset="1" stop-color="#5f0000" stop-opacity="1"/></linearGradient></defs><path fill="url(#linear-pattern-0)" fill-opacity="1" d="M 36.21875 2.050781 L 62.027344 27.605469 C 64.402344 29.957031 64.417969 33.785156 62.058594 36.15625 L 36.460938 61.917969 C 34.105469 64.289062 30.269531 64.304688 27.894531 61.949219 L 2.085938 36.394531 C -0.289062 34.042969 -0.304688 30.214844 2.050781 27.84375 L 27.652344 2.082031 C 30.007812 -0.289062 33.84375 -0.304688 36.21875 2.050781 Z M 36.21875 2.050781 " /><g transform="matrix(1.0075098,0,0,1.0032698,16.221436,16.077397)"><path fill-rule="nonzero" fill="rgb(100%, 100%, 100%)" fill-opacity="1" stroke-width="1" stroke-linecap="butt" stroke-linejoin="miter" stroke="rgb(100%, 100%, 100%)" stroke-opacity="1" stroke-miterlimit="4" d="M 970.423916 228.371544 L 967.466462 230.074092 C 963.374642 232.419825 960.862831 236.241098 960.538727 240.743391 C 960.295648 243.391799 963.698746 262.308996 974.070093 316.109505 C 981.68655 355.570778 988.128128 389.016383 988.371207 390.340586 C 988.857364 393.064663 991.247635 396.772433 993.718932 398.474981 C 997.932292 401.426064 994.569707 401.350395 1118.458678 401.199057 L 1236.716333 401.04772 L 1239.633274 399.383007 C 1243.522529 397.150777 1245.872287 393.55651 1246.804088 388.56237 C 1247.209219 386.254472 1253.610284 352.884536 1261.064689 314.369123 C 1271.192957 261.892818 1274.555542 243.429633 1274.312463 240.743391 C 1273.947846 236.241098 1271.436035 232.419825 1267.384728 230.074092 L 1264.427274 228.371544 Z M 1027.830938 265.600588 C 1028.600687 265.562754 1029.329922 265.78976 1030.62634 266.243773 C 1032.125324 266.773455 1034.029438 268.097658 1034.799186 269.157021 C 1036.257657 271.12441 1036.29817 271.767595 1036.500735 313.347594 C 1036.662788 359.051542 1036.662788 359.051542 1033.016611 361.472943 C 1028.762739 364.234854 1023.415013 362.872816 1021.186794 358.370523 C 1020.092942 356.176128 1019.971402 352.581861 1019.971402 314.369123 C 1019.971402 267.454474 1019.768837 269.157021 1025.116562 266.546448 C 1026.372468 265.941098 1027.101703 265.638423 1027.830938 265.600588 Z M 1073.610709 265.600588 C 1074.380457 265.562754 1075.150205 265.78976 1076.406111 266.243773 C 1077.945607 266.773455 1079.809209 268.097658 1080.578957 269.157021 C 1081.996914 271.12441 1082.037427 271.767595 1082.239993 313.347594 C 1082.442558 359.051542 1082.442558 359.051542 1078.755869 361.472943 C 1074.501996 364.234854 1069.194784 362.872816 1066.966565 358.370523 C 1065.832199 356.176128 1065.751173 352.581861 1065.751173 314.369123 C 1065.751173 267.454474 1065.548607 269.157021 1070.85582 266.546448 C 1072.111725 265.941098 1072.84096 265.638423 1073.610709 265.600588 Z M 1116.595077 265.600588 C 1117.324312 265.562754 1118.134574 265.78976 1119.390479 266.243773 C 1120.889463 266.773455 1122.793577 268.097658 1123.603838 269.157021 C 1125.021796 271.12441 1125.062309 271.767595 1125.224361 313.347594 C 1125.426927 359.051542 1125.426927 359.051542 1121.78075 361.472943 C 1117.526878 364.234854 1112.179152 362.872816 1109.950933 358.370523 C 1108.857081 356.176128 1108.735541 352.581861 1108.735541 314.369123 C 1108.735541 267.454474 1108.532976 269.157021 1113.880701 266.546448 C 1115.096094 265.941098 1115.865842 265.638423 1116.595077 265.600588 Z M 1161.686125 265.600588 C 1162.455874 265.562754 1163.225622 265.78976 1164.481527 266.243773 C 1165.980511 266.773455 1167.844112 268.097658 1168.654374 269.157021 C 1170.072331 271.12441 1170.112844 271.767595 1170.31541 313.347594 C 1170.517975 359.051542 1170.517975 359.051542 1166.871799 361.472943 C 1162.577413 364.234854 1157.270201 362.872816 1155.041982 358.370523 C 1153.907616 356.176128 1153.82659 352.581861 1153.82659 314.369123 C 1153.82659 267.454474 1153.624024 269.157021 1158.97175 266.546448 C 1160.187142 265.941098 1160.916377 265.638423 1161.686125 265.600588 Z M 1206.736661 265.600588 C 1207.506409 265.562754 1208.276157 265.78976 1209.532062 266.243773 C 1211.031046 266.773455 1212.93516 268.097658 1213.745422 269.157021 C 1215.163379 271.12441 1215.203892 271.767595 1215.406458 313.347594 C 1215.609023 359.051542 1215.56851 359.051542 1211.922334 361.472943 C 1207.668461 364.234854 1202.320736 362.872816 1200.13303 358.370523 C 1198.998664 356.176128 1198.917638 352.581861 1198.917638 314.369123 C 1198.917638 267.454474 1198.715072 269.157021 1204.022285 266.546448 C 1205.27819 265.941098 1206.007425 265.638423 1206.736661 265.600588 Z M 1206.736661 265.600588 " transform="matrix(0.0964195, 0, 0, 0.103246, -91.759193, -10.351887)"/><path fill-rule="nonzero" fill="rgb(100%, 100%, 100%)" fill-opacity="1" stroke-width="1" stroke-linecap="butt" stroke-linejoin="miter" stroke="rgb(100%, 100%, 100%)" stroke-opacity="1" stroke-miterlimit="4" d="M 1011.301605 219.102118 C 1011.544684 218.761608 1013.853929 204.762882 1016.568304 188.077915 C 1020.254994 164.771928 1021.794491 156.826705 1023.090909 154.02696 C 1025.278615 149.259826 1030.788392 143.811673 1035.7715 141.465941 C 1039.741781 139.612055 1040.025373 139.612055 1056.554706 139.385049 L 1073.286604 139.158043 L 1074.501996 141.655113 C 1075.960467 144.757533 1079.606643 147.859953 1083.050254 148.843648 C 1086.777457 149.978679 1148.802969 149.978679 1152.530171 148.843648 C 1155.973782 147.859953 1159.619959 144.757533 1161.118942 141.655113 L 1162.253308 139.158043 L 1195.109409 139.612055 L 1199.241742 141.617278 C 1204.467929 144.190017 1209.613089 149.29766 1211.760281 154.02696 C 1213.097213 156.826705 1214.596196 164.771928 1218.323399 188.077915 C 1220.997262 204.762882 1223.387533 218.761608 1223.630611 219.064283 C 1224.238307 220.123646 1238.417882 219.858806 1238.863526 218.799443 C 1239.390196 217.323901 1229.586033 156.751036 1227.924997 151.492055 C 1224.80549 141.465941 1216.986468 132.574858 1206.898713 127.580718 C 1199.849438 124.099954 1198.147889 123.835113 1179.876494 123.3811 L 1162.577413 122.964922 L 1161.848178 120.543521 C 1160.95689 117.289763 1156.257374 112.711801 1152.692224 111.690272 C 1148.640916 110.441737 1086.939509 110.441737 1082.847689 111.690272 C 1079.323052 112.711801 1074.623535 117.289763 1073.691735 120.543521 L 1073.003013 122.964922 L 1057.081376 123.3811 C 1048.330552 123.645941 1039.134085 124.251291 1036.662788 124.66747 C 1022.84783 127.240209 1009.964674 139.422883 1006.237471 153.572947 C 1004.941053 158.226577 995.66356 217.815748 996.028177 218.799443 C 996.433308 219.858806 1010.653396 220.123646 1011.301605 219.064283 Z M 1011.301605 219.102118 " transform="matrix(0.0964195, 0, 0, 0.103246, -91.759193, -10.351887)"/><path fill-rule="evenodd" fill="rgb(100%, 100%, 100%)" fill-opacity="1" stroke-width="4.4" stroke-linecap="butt" stroke-linejoin="miter" stroke="rgb(100%, 100%, 100%)" stroke-opacity="1" stroke-miterlimit="4" d="M 1117.769956 112.863139 C 1084.265646 112.863139 1084.144107 112.863139 1081.470244 114.414349 C 1078.269712 116.2304 1076.487137 118.462629 1075.150205 122.246068 L 1074.218405 124.970145 L 1072.516856 124.970145 L 1072.516856 137.114985 L 1074.177892 137.114985 L 1075.352771 139.233711 C 1077.418937 143.017151 1078.998947 144.719699 1081.753836 146.081737 C 1084.306159 147.443775 1086.007708 147.481609 1117.769956 147.481609 C 1149.61323 147.481609 1151.274266 147.443775 1153.82659 146.081737 C 1156.581478 144.719699 1158.120975 143.017151 1160.227655 139.233711 L 1161.443047 137.114985 L 1162.415361 137.114985 L 1162.415361 124.970145 L 1161.362021 124.970145 L 1160.43022 122.246068 C 1159.133802 118.462629 1157.310714 116.2304 1154.110181 114.414349 C 1151.436318 112.863139 1151.355292 112.863139 1117.769956 112.863139 Z M 1117.769956 112.863139 " transform="matrix(0.0964195, 0, 0, 0.103246, -91.759193, -10.351887)"/></g></svg>
