<svg width="64" height="64" viewBox="0 0 64 64" version="1.1"><defs><linearGradient id="linear-pattern-0" gradientUnits="userSpaceOnUse" x1="0" y1="0" x2="0" y2="1" gradientTransform="matrix(60, 0, 0, 56, 0, 4)"><stop offset="0" stop-color="#008a97" stop-opacity="1"/><stop offset="1" stop-color="#00545c" stop-opacity="1"/></linearGradient></defs><path fill="url(#linear-pattern-0)" fill-opacity="1" d="M 36.21875 2.050781 L 62.027344 27.605469 C 64.402344 29.957031 64.417969 33.785156 62.058594 36.15625 L 36.460938 61.917969 C 34.105469 64.289062 30.269531 64.304688 27.894531 61.949219 L 2.085938 36.394531 C -0.289062 34.042969 -0.304688 30.214844 2.050781 27.84375 L 27.652344 2.082031 C 30.007812 -0.289062 33.84375 -0.304688 36.21875 2.050781 Z M 36.21875 2.050781 " /><g transform="matrix(1.0075098,0,0,1.0032698,16.221436,16.077397)"><path fill-rule="nonzero" fill="rgb(100%, 100%, 100%)" fill-opacity="1" d="M 12.390625 24.988281 L 23.992188 18.792969 L 23.914062 7.140625 L 12.390625 13.109375 Z M 12.390625 24.988281 "/><path fill-rule="nonzero" fill="rgb(100%, 100%, 100%)" fill-opacity="1" d="M 12.390625 25.011719 L 0.796875 18.820312 L 0.875 7.167969 L 12.390625 13.128906 Z M 12.390625 25.011719 "/><path fill-rule="nonzero" fill="rgb(100%, 100%, 100%)" fill-opacity="1" d="M 0.84375 7.195312 L 12.449219 1.09375 L 23.953125 7.199219 L 12.390625 13.191406 Z M 0.84375 7.195312 "/><path fill-rule="nonzero" fill="rgb(100%, 100%, 100%)" fill-opacity="1" d="M 31.492188 23.359375 C 31.492188 27.632812 27.828125 31.09375 23.304688 31.09375 C 18.785156 31.09375 15.121094 27.632812 15.121094 23.359375 C 15.121094 19.085938 18.785156 15.625 23.304688 15.625 C 27.828125 15.625 31.492188 19.085938 31.492188 23.359375 Z M 31.492188 23.359375 "/><path fill-rule="nonzero" fill="rgb(100%, 100%, 100%)" fill-opacity="1" d="M 23.304688 20.207031 C 21.464844 20.207031 19.972656 21.617188 19.972656 23.359375 C 19.972656 25.101562 21.464844 26.511719 23.304688 26.511719 C 25.148438 26.511719 26.640625 25.101562 26.640625 23.359375 C 26.640625 21.617188 25.148438 20.207031 23.304688 20.207031 Z M 23.304688 21.640625 C 24.3125 21.640625 25.125 22.414062 25.125 23.359375 C 25.125 24.308594 24.3125 25.078125 23.304688 25.078125 C 22.824219 25.078125 22.359375 24.898438 22.019531 24.578125 C 21.679688 24.25 21.484375 23.816406 21.484375 23.359375 C 21.484375 22.410156 22.304688 21.640625 23.304688 21.640625 Z M 23.304688 21.640625 "/><path fill-rule="nonzero" fill="rgb(100%, 100%, 100%)" fill-opacity="1" d="M 22.703125 18.921875 L 23.914062 18.921875 L 23.914062 20.925781 L 22.703125 20.925781 Z M 22.703125 25.796875 L 23.914062 25.796875 L 23.914062 27.804688 L 22.703125 27.804688 Z M 28.007812 22.789062 L 28.007812 23.933594 L 25.882812 23.933594 L 25.882812 22.789062 Z M 20.730469 22.789062 L 20.730469 23.933594 L 18.609375 23.933594 L 18.609375 22.789062 Z M 27.058594 26.097656 L 26.203125 26.90625 L 24.703125 25.488281 L 25.554688 24.679688 Z M 21.914062 21.234375 L 21.054688 22.046875 L 19.554688 20.625 L 20.414062 19.8125 Z M 20.414062 26.90625 L 19.554688 26.09375 L 21.054688 24.679688 L 21.914062 25.488281 Z M 25.554688 22.046875 L 24.703125 21.234375 L 26.203125 19.8125 L 27.058594 20.625 Z M 25.554688 22.046875 "/></g></svg>
