<svg width="64" height="64" viewBox="0 0 64 64" version="1.1"><defs><linearGradient id="linear-pattern-0" gradientUnits="userSpaceOnUse" x1="0" y1="0" x2="0" y2="1" gradientTransform="matrix(60, 0, 0, 56, 0, 4)"><stop offset="0" stop-color="#0288cf" stop-opacity="1"/><stop offset="1" stop-color="#01486e" stop-opacity="1"/></linearGradient></defs><path fill="url(#linear-pattern-0)" fill-opacity="1" d="M 36.21875 2.050781 L 62.027344 27.605469 C 64.402344 29.957031 64.417969 33.785156 62.058594 36.15625 L 36.460938 61.917969 C 34.105469 64.289062 30.269531 64.304688 27.894531 61.949219 L 2.085938 36.394531 C -0.289062 34.042969 -0.304688 30.214844 2.050781 27.84375 L 27.652344 2.082031 C 30.007812 -0.289062 33.84375 -0.304688 36.21875 2.050781 Z M 36.21875 2.050781 " /><g transform="matrix(1.0075098,0,0,1.0032698,16.221436,16.077397)"><path fill-rule="nonzero" fill="rgb(100%, 100%, 100%)" fill-opacity="1" d="M 10.296875 0.960938 L 8.28125 3.148438 C 8.28125 4.351562 9.183594 5.335938 10.296875 5.335938 C 10.65625 5.332031 11.007812 5.222656 11.316406 5.023438 L 12.617188 6.433594 L 3.25 16.269531 C 3.25 21.726562 7.292969 26.109375 12.324219 26.109375 L 12.324219 31.570312 L 17.367188 26.109375 L 20.390625 26.109375 C 25.421875 26.109375 29.46875 21.726562 29.46875 16.269531 C 29.46875 10.816406 25.421875 6.433594 20.390625 6.433594 L 20.097656 6.433594 L 21.398438 5.023438 C 21.703125 5.222656 22.054688 5.332031 22.414062 5.335938 C 23.523438 5.335938 24.429688 4.359375 24.429688 3.148438 C 24.429688 1.9375 23.53125 0.960938 22.414062 0.960938 L 20.398438 3.148438 C 20.40625 3.539062 20.5 3.914062 20.6875 4.25 L 18.679688 6.425781 L 14.054688 6.425781 L 12.046875 4.25 C 12.230469 3.921875 12.328125 3.539062 12.332031 3.148438 C 12.332031 1.945312 11.429688 0.960938 10.3125 0.960938 Z M 10.296875 0.960938 "/><path fill-rule="nonzero" fill="rgb(40%, 40%, 40%)" fill-opacity="1" d="M 11.308594 7.523438 C 7.390625 7.523438 4.25 10.929688 4.25 15.171875 C 4.25 17.578125 5.257812 19.707031 6.84375 21.101562 C 5.847656 19.78125 5.257812 18.101562 5.257812 16.265625 C 5.257812 12.023438 8.40625 8.613281 12.316406 8.613281 L 20.382812 8.613281 C 22.078125 8.613281 23.628906 9.257812 24.851562 10.328125 C 23.558594 8.613281 21.59375 7.523438 19.375 7.523438 Z M 10.804688 10.800781 L 8.28125 13.53125 C 8.28125 15.039062 9.414062 16.265625 10.804688 16.265625 C 12.195312 16.265625 13.320312 15.039062 13.320312 13.53125 C 13.320312 12.023438 12.195312 10.800781 10.804688 10.800781 Z M 21.898438 10.800781 L 19.375 13.53125 C 19.375 15.039062 20.503906 16.265625 21.898438 16.265625 C 23.289062 16.265625 24.414062 15.039062 24.414062 13.53125 C 24.414062 12.023438 23.289062 10.800781 21.898438 10.800781 Z M 12.316406 17.359375 C 12.316406 19.773438 14.117188 21.730469 16.347656 21.730469 C 18.578125 21.730469 20.382812 19.773438 20.382812 17.359375 L 18.367188 17.359375 L 16.347656 19.542969 C 15.242188 19.542969 14.335938 18.5625 14.335938 17.359375 Z M 12.316406 17.359375 "/></g></svg>
