<svg width="64" height="64" viewBox="0 0 64 64" version="1.1"><defs><linearGradient id="linear-pattern-0" gradientUnits="userSpaceOnUse" x1="0" y1="0" x2="0" y2="1" gradientTransform="matrix(60, 0, 0, 56, 0, 4)"><stop offset="0" stop-color="#3067ff" stop-opacity="1"/><stop offset="1" stop-color="#002ca6" stop-opacity="1"/></linearGradient></defs><path fill="url(#linear-pattern-0)" fill-opacity="1" d="M 36.21875 2.050781 L 62.027344 27.605469 C 64.402344 29.957031 64.417969 33.785156 62.058594 36.15625 L 36.460938 61.917969 C 34.105469 64.289062 30.269531 64.304688 27.894531 61.949219 L 2.085938 36.394531 C -0.289062 34.042969 -0.304688 30.214844 2.050781 27.84375 L 27.652344 2.082031 C 30.007812 -0.289062 33.84375 -0.304688 36.21875 2.050781 Z M 36.21875 2.050781 " /><g transform="matrix(1.0075098,0,0,1.0032698,16.221436,16.077397)"><path fill-rule="nonzero" fill="rgb(100%, 100%, 100%)" fill-opacity="1" d="M 4.757812 6.96875 L 4.757812 13.484375 L 11.460938 13.484375 L 11.460938 6.96875 Z M 12.453125 6.96875 L 12.453125 13.484375 L 19.15625 13.484375 L 19.15625 6.96875 Z M 20.117188 6.96875 L 20.117188 13.484375 L 26.820312 13.484375 L 26.820312 6.96875 Z M 23.742188 7.90625 C 24.523438 7.90625 25.117188 8.148438 25.5625 8.617188 L 25.046875 9.101562 C 24.75 8.734375 24.351562 8.523438 23.742188 8.523438 C 22.578125 8.523438 22.089844 9.289062 22.089844 10.253906 C 22.089844 11.191406 22.554688 11.929688 23.734375 11.929688 C 24.347656 11.929688 24.746094 11.726562 25.054688 11.351562 L 25.554688 11.828125 C 25.109375 12.304688 24.515625 12.546875 23.734375 12.546875 C 22.179688 12.546875 21.375 11.617188 21.375 10.253906 C 21.375 8.882812 22.210938 7.90625 23.742188 7.90625 M 6.503906 7.960938 L 8.328125 7.960938 C 9.15625 7.960938 9.550781 8.546875 9.550781 9.210938 C 9.550781 9.609375 9.425781 9.898438 9.148438 10.109375 L 9.148438 10.125 C 9.515625 10.285156 9.71875 10.683594 9.71875 11.179688 C 9.71875 11.992188 9.234375 12.5 8.363281 12.5 L 6.503906 12.5 L 6.503906 7.960938 M 14.203125 7.960938 L 16.023438 7.960938 C 16.847656 7.960938 17.25 8.546875 17.25 9.210938 C 17.25 9.609375 17.125 9.898438 16.84375 10.109375 L 16.84375 10.125 C 17.214844 10.285156 17.414062 10.683594 17.414062 11.179688 C 17.414062 11.992188 16.933594 12.5 16.0625 12.5 L 14.203125 12.5 L 14.203125 7.960938 M 7.015625 8.582031 L 7.070312 8.648438 L 7.070312 9.789062 L 7.015625 9.851562 L 8.28125 9.851562 C 8.796875 9.851562 8.96875 9.566406 8.96875 9.207031 C 8.96875 8.796875 8.75 8.582031 8.28125 8.582031 Z M 14.710938 8.582031 L 14.773438 8.648438 L 14.773438 9.789062 L 14.710938 9.851562 L 15.976562 9.851562 C 16.492188 9.851562 16.664062 9.566406 16.664062 9.207031 C 16.664062 8.796875 16.445312 8.582031 15.976562 8.582031 Z M 7.015625 10.476562 L 7.070312 10.539062 L 7.070312 11.804688 L 7.015625 11.875 L 8.363281 11.875 C 8.9375 11.875 9.132812 11.625 9.132812 11.179688 C 9.132812 10.75 8.910156 10.476562 8.363281 10.476562 Z M 14.710938 10.476562 L 14.773438 10.539062 L 14.773438 11.804688 L 14.710938 11.875 L 16.0625 11.875 C 16.632812 11.875 16.832031 11.625 16.832031 11.179688 C 16.832031 10.75 16.609375 10.476562 16.0625 10.476562 Z M 28.859375 16.703125 C 28.050781 16.703125 27.382812 16.898438 26.871094 17.285156 C 26.367188 17.675781 26.105469 18.21875 26.105469 18.875 C 26.105469 19.480469 26.28125 19.988281 26.625 20.382812 C 26.96875 20.773438 27.539062 21.097656 28.308594 21.371094 C 28.84375 21.5625 29.238281 21.726562 29.492188 21.875 C 29.746094 22.019531 29.921875 22.171875 30.015625 22.320312 C 30.117188 22.46875 30.167969 22.664062 30.167969 22.914062 C 30.167969 23.289062 30.035156 23.554688 29.75 23.769531 C 29.46875 23.976562 29.03125 24.09375 28.429688 24.09375 C 28.078125 24.09375 27.695312 24.054688 27.28125 23.96875 C 26.875 23.890625 26.5 23.773438 26.164062 23.632812 L 26 23.5625 L 26 24.78125 L 26.066406 24.8125 C 26.625 25.078125 27.394531 25.203125 28.382812 25.203125 C 29.328125 25.203125 30.074219 25 30.621094 24.578125 C 31.164062 24.148438 31.445312 23.554688 31.445312 22.828125 C 31.445312 22.441406 31.367188 22.097656 31.210938 21.8125 C 31.0625 21.519531 30.824219 21.265625 30.511719 21.054688 C 30.195312 20.835938 29.730469 20.617188 29.117188 20.398438 C 28.609375 20.214844 28.238281 20.050781 28.007812 19.914062 C 27.789062 19.78125 27.625 19.640625 27.53125 19.484375 C 27.4375 19.328125 27.390625 19.132812 27.390625 18.886719 C 27.390625 18.546875 27.507812 18.304688 27.757812 18.117188 C 28.007812 17.933594 28.363281 17.832031 28.835938 17.832031 C 29.421875 17.832031 30.066406 17.972656 30.761719 18.25 L 30.875 18.296875 L 30.914062 18.1875 L 31.238281 17.3125 L 31.273438 17.210938 L 31.171875 17.164062 C 30.46875 16.859375 29.695312 16.703125 28.859375 16.703125 Z M 0.613281 16.820312 L 0.613281 25.09375 L 1.808594 25.09375 L 1.808594 20.484375 C 1.808594 19.988281 1.785156 19.40625 1.742188 18.738281 L 1.734375 18.660156 L 5.953125 25.039062 L 5.988281 25.09375 L 7.261719 25.09375 L 7.261719 24.976562 L 7.382812 24.976562 L 7.382812 16.820312 L 6.175781 16.820312 L 6.175781 21.476562 C 6.175781 21.71875 6.1875 22.113281 6.210938 22.65625 C 6.222656 22.988281 6.226562 23.078125 6.238281 23.242188 L 4.992188 21.34375 L 2.285156 17.269531 L 2.285156 17.265625 L 2.03125 16.878906 L 2 16.824219 L 0.613281 16.824219 M 9.382812 16.824219 L 9.382812 25.09375 L 14.101562 25.09375 L 14.101562 24.980469 L 14.222656 24.980469 L 14.222656 23.96875 L 10.65625 23.96875 L 10.65625 21.335938 L 14.015625 21.335938 L 14.015625 20.21875 L 10.65625 20.21875 L 10.65625 17.949219 L 14.222656 17.949219 L 14.222656 16.824219 L 9.382812 16.824219 M 14.789062 16.824219 L 14.828125 16.972656 L 17.007812 25.011719 L 17.03125 25.09375 L 18.257812 25.09375 L 18.285156 25.015625 L 19.84375 19.78125 C 19.96875 19.367188 20.054688 19.015625 20.128906 18.695312 C 20.203125 18.976562 20.296875 19.3125 20.425781 19.746094 L 22.03125 25.015625 L 22.054688 25.09375 L 23.191406 25.09375 L 23.191406 24.980469 L 23.308594 25.011719 L 25.5 16.972656 L 25.539062 16.824219 L 24.210938 16.824219 L 24.1875 16.914062 L 22.914062 21.8125 C 22.78125 22.304688 22.695312 22.71875 22.621094 23.101562 C 22.53125 22.660156 22.425781 22.222656 22.289062 21.792969 L 20.773438 16.90625 L 20.75 16.824219 L 19.503906 16.824219 L 19.476562 16.90625 L 18.023438 21.757812 C 17.890625 22.226562 17.785156 22.664062 17.703125 23.085938 C 17.625 22.664062 17.53125 22.246094 17.421875 21.820312 L 16.140625 16.914062 L 16.117188 16.824219 L 14.789062 16.824219 "/></g></svg>
