<svg width="64" height="64" viewBox="0 0 64 64" version="1.1"><defs><linearGradient id="linear-pattern-0" gradientUnits="userSpaceOnUse" x1="0" y1="0" x2="0" y2="1" gradientTransform="matrix(60, 0, 0, 56, 0, 4)"><stop offset="0" stop-color="#6926fc" stop-opacity="1"/><stop offset="1" stop-color="#3702ab" stop-opacity="1"/></linearGradient></defs><path fill="url(#linear-pattern-0)" fill-opacity="1" d="M 36.21875 2.050781 L 62.027344 27.605469 C 64.402344 29.957031 64.417969 33.785156 62.058594 36.15625 L 36.460938 61.917969 C 34.105469 64.289062 30.269531 64.304688 27.894531 61.949219 L 2.085938 36.394531 C -0.289062 34.042969 -0.304688 30.214844 2.050781 27.84375 L 27.652344 2.082031 C 30.007812 -0.289062 33.84375 -0.304688 36.21875 2.050781 Z M 36.21875 2.050781 " /><g transform="matrix(1.0075098,0,0,1.0032698,16.221436,16.077397)"><path fill-rule="nonzero" fill="rgb(100%, 100%, 100%)" fill-opacity="1" d="M 8.253906 1.058594 C 6.945312 1.058594 5.890625 2.085938 5.890625 3.351562 L 5.890625 29.3125 C 5.890625 30.578125 6.945312 31.601562 8.253906 31.601562 L 24.523438 31.601562 C 25.828125 31.601562 26.882812 30.578125 26.882812 29.3125 L 26.882812 3.351562 C 26.882812 2.085938 25.828125 1.058594 24.523438 1.058594 L 8.253906 1.058594 M 16.382812 4.054688 C 18.664062 4.054688 20.523438 5.851562 20.523438 8.0625 C 20.523438 10.273438 18.664062 12.070312 16.382812 12.070312 C 14.101562 12.070312 12.25 10.273438 12.25 8.0625 C 12.25 5.851562 14.101562 4.054688 16.382812 4.054688 M 16.382812 6.34375 C 15.410156 6.34375 14.613281 7.113281 14.613281 8.0625 C 14.613281 9.007812 15.410156 9.777344 16.382812 9.777344 C 17.363281 9.777344 18.164062 9.007812 18.164062 8.0625 C 18.164062 7.113281 17.363281 6.34375 16.382812 6.34375 M 16.382812 16.015625 C 19.96875 16.015625 22.882812 18.835938 22.882812 22.3125 C 22.882812 25.785156 19.96875 28.609375 16.382812 28.609375 C 12.804688 28.609375 9.890625 25.785156 9.890625 22.3125 C 9.890625 18.835938 12.804688 16.015625 16.382812 16.015625 M 16.382812 18.304688 C 14.101562 18.304688 12.257812 20.101562 12.257812 22.3125 C 12.257812 24.523438 14.101562 26.320312 16.382812 26.320312 C 18.664062 26.320312 20.523438 24.523438 20.523438 22.3125 C 20.523438 20.101562 18.664062 18.304688 16.382812 18.304688 "/></g></svg>
