<svg width="64" height="64" viewBox="0 0 64 64" version="1.1"><defs><linearGradient id="linear-pattern-0" gradientUnits="userSpaceOnUse" x1="0" y1="0" x2="0" y2="1" gradientTransform="matrix(60, 0, 0, 56, 0, 4)"><stop offset="0" stop-color="#008a97" stop-opacity="1"/><stop offset="1" stop-color="#00545c" stop-opacity="1"/></linearGradient></defs><path fill="url(#linear-pattern-0)" fill-opacity="1" d="M 36.21875 2.050781 L 62.027344 27.605469 C 64.402344 29.957031 64.417969 33.785156 62.058594 36.15625 L 36.460938 61.917969 C 34.105469 64.289062 30.269531 64.304688 27.894531 61.949219 L 2.085938 36.394531 C -0.289062 34.042969 -0.304688 30.214844 2.050781 27.84375 L 27.652344 2.082031 C 30.007812 -0.289062 33.84375 -0.304688 36.21875 2.050781 Z M 36.21875 2.050781 " /><g transform="matrix(1.0075098,0,0,1.0032698,16.221436,16.077397)"><path fill-rule="nonzero" fill="rgb(100%, 100%, 100%)" fill-opacity="1" d="M 5.109375 13.386719 C 5.566406 13.386719 5.914062 13.179688 6.148438 12.765625 C 6.382812 12.34375 6.5 11.726562 6.5 10.914062 C 6.5 10.113281 6.382812 9.5 6.148438 9.078125 C 5.914062 8.65625 5.566406 8.441406 5.109375 8.441406 L 3.507812 8.441406 L 3.507812 13.386719 Z M 5.210938 23.609375 C 5.789062 23.609375 6.226562 23.351562 6.519531 22.84375 C 6.8125 22.328125 6.960938 21.554688 6.960938 20.523438 C 6.960938 19.507812 6.8125 18.75 6.523438 18.242188 C 6.234375 17.738281 5.796875 17.484375 5.210938 17.484375 L 3.507812 17.484375 L 3.507812 23.609375 Z M 7.898438 15.199219 C 8.519531 15.574219 9 16.269531 9.335938 17.28125 C 9.679688 18.292969 9.851562 19.535156 9.851562 21.007812 C 9.851562 23.265625 9.484375 24.945312 8.753906 26.054688 C 8.023438 27.15625 6.910156 27.707031 5.421875 27.707031 L 0.617188 27.707031 L 0.617188 4.34375 L 4.960938 4.34375 C 6.515625 4.34375 7.644531 4.835938 8.34375 5.820312 C 9.042969 6.796875 9.390625 8.363281 9.390625 10.523438 C 9.390625 11.664062 9.265625 12.628906 9.007812 13.425781 C 8.757812 14.21875 8.382812 14.8125 7.898438 15.199219 Z M 12.34375 4.34375 L 20.15625 4.34375 L 20.15625 8.890625 L 15.238281 8.890625 L 15.238281 13.242188 L 19.859375 13.242188 L 19.859375 17.796875 L 15.238281 17.796875 L 15.238281 23.152344 L 20.316406 23.152344 L 20.316406 27.707031 L 12.34375 27.707031 Z M 30.664062 5.074219 L 30.664062 10.019531 C 30.046875 9.449219 29.445312 9.015625 28.859375 8.726562 C 28.273438 8.429688 27.71875 8.28125 27.199219 8.28125 C 26.507812 8.28125 26 8.484375 25.664062 8.875 C 25.335938 9.273438 25.171875 9.890625 25.171875 10.726562 C 25.171875 11.351562 25.28125 11.84375 25.503906 12.191406 C 25.726562 12.539062 26.132812 12.835938 26.71875 13.085938 L 27.953125 13.605469 C 29.195312 14.125 30.085938 14.921875 30.609375 15.988281 C 31.136719 17.050781 31.398438 18.5625 31.398438 20.523438 C 31.398438 23.101562 31.03125 25.023438 30.300781 26.28125 C 29.566406 27.53125 28.445312 28.15625 26.9375 28.15625 C 26.226562 28.15625 25.507812 28.015625 24.792969 27.734375 C 24.078125 27.457031 23.359375 27.039062 22.648438 26.488281 L 22.648438 21.398438 C 23.359375 22.195312 24.054688 22.789062 24.726562 23.1875 C 25.390625 23.59375 26.039062 23.789062 26.65625 23.789062 C 27.289062 23.789062 27.773438 23.570312 28.105469 23.136719 C 28.441406 22.703125 28.609375 22.074219 28.609375 21.257812 C 28.609375 20.523438 28.496094 19.960938 28.265625 19.566406 C 28.039062 19.171875 27.585938 18.820312 26.90625 18.507812 L 25.785156 17.988281 C 24.664062 17.488281 23.84375 16.691406 23.324219 15.597656 C 22.804688 14.5 22.546875 13.023438 22.546875 11.164062 C 22.546875 8.835938 22.90625 7.046875 23.632812 5.796875 C 24.351562 4.542969 25.390625 3.914062 26.742188 3.914062 C 27.359375 3.914062 27.992188 4.015625 28.640625 4.210938 C 29.289062 4.398438 29.96875 4.6875 30.664062 5.074219 Z M -0.796875 -2.039062 "/></g></svg>
