<svg width="64" height="64" viewBox="0 0 64 64" version="1.1"><defs><linearGradient id="linear-pattern-0" gradientUnits="userSpaceOnUse" x1="0" y1="0" x2="0" y2="1" gradientTransform="matrix(60, 0, 0, 56, 0, 4)"><stop offset="0" stop-color="#00a07f" stop-opacity="1"/><stop offset="1" stop-color="#005241" stop-opacity="1"/></linearGradient></defs><path fill="url(#linear-pattern-0)" fill-opacity="1" d="M 36.21875 2.050781 L 62.027344 27.605469 C 64.402344 29.957031 64.417969 33.785156 62.058594 36.15625 L 36.460938 61.917969 C 34.105469 64.289062 30.269531 64.304688 27.894531 61.949219 L 2.085938 36.394531 C -0.289062 34.042969 -0.304688 30.214844 2.050781 27.84375 L 27.652344 2.082031 C 30.007812 -0.289062 33.84375 -0.304688 36.21875 2.050781 Z M 36.21875 2.050781 " /><g transform="matrix(1.0075098,0,0,1.0032698,16.221436,16.077397)"><path fill-rule="nonzero" fill="rgb(100%, 100%, 100%)" fill-opacity="1" d="M 0.46875 4.492188 L 0.46875 26.234375 L 12.4375 26.234375 L 13.316406 22.617188 L 17.984375 22.617188 L 18.859375 26.234375 L 22.65625 26.234375 L 17.984375 4.492188 L 13.316406 4.492188 L 10.589844 17.1875 C 10.382812 16.5 10.097656 15.890625 9.757812 15.367188 C 10.511719 14.21875 10.980469 12.617188 10.980469 10.835938 C 10.980469 7.320312 9.15625 4.492188 6.890625 4.492188 Z M 19.152344 4.492188 L 23.824219 26.234375 L 23.824219 18.992188 L 24.40625 18.992188 L 26.742188 26.234375 L 31.410156 26.234375 L 28.367188 18.136719 C 29.835938 16.921875 30.828125 14.515625 30.828125 11.742188 C 30.828125 7.726562 28.746094 4.492188 26.15625 4.492188 Z M 3.976562 9.929688 L 6.3125 9.929688 C 6.957031 9.929688 7.476562 10.742188 7.476562 11.742188 C 7.476562 12.75 6.957031 13.554688 6.3125 13.554688 L 3.976562 13.554688 Z M 23.824219 9.929688 L 26.15625 9.929688 C 26.804688 9.929688 27.328125 10.742188 27.328125 11.742188 C 27.328125 12.75 26.804688 13.554688 26.15625 13.554688 L 23.824219 13.554688 Z M 15.648438 10.382812 L 17.109375 17.179688 L 14.191406 17.179688 Z M 3.976562 17.179688 L 6.3125 17.179688 C 6.957031 17.179688 7.476562 17.984375 7.476562 18.992188 C 7.476562 19.992188 6.957031 20.800781 6.3125 20.800781 L 3.976562 20.800781 Z M 3.976562 17.179688 "/><path fill-rule="nonzero" fill="rgb(40%, 40%, 40%)" fill-opacity="1" d="M 16.234375 4.492188 C 15.914062 4.492188 15.648438 4.902344 15.648438 5.398438 C 15.648438 5.898438 15.914062 6.308594 16.234375 6.308594 C 16.554688 6.308594 16.820312 5.898438 16.820312 5.398438 C 16.820312 4.902344 16.554688 4.492188 16.234375 4.492188 Z M 17.398438 9.929688 C 17.078125 9.929688 16.820312 10.335938 16.820312 10.835938 C 16.820312 11.335938 17.078125 11.742188 17.398438 11.742188 C 17.726562 11.742188 17.984375 11.335938 17.984375 10.835938 C 17.984375 10.335938 17.726562 9.929688 17.398438 9.929688 Z M 18.570312 15.367188 C 18.242188 15.367188 17.984375 15.773438 17.984375 16.273438 C 17.984375 16.773438 18.242188 17.179688 18.570312 17.179688 C 18.890625 17.179688 19.152344 16.773438 19.152344 16.273438 C 19.152344 15.773438 18.890625 15.367188 18.570312 15.367188 Z M 19.734375 20.800781 C 19.414062 20.800781 19.152344 21.210938 19.152344 21.710938 C 19.152344 22.207031 19.414062 22.617188 19.734375 22.617188 C 20.058594 22.617188 20.320312 22.207031 20.320312 21.710938 C 20.320312 21.210938 20.058594 20.800781 19.734375 20.800781 Z M 19.734375 20.800781 "/></g></svg>
