<svg width="64" height="64" viewBox="0 0 64 64" version="1.1"><defs><linearGradient id="linear-pattern-0" gradientUnits="userSpaceOnUse" x1="0" y1="0" x2="0" y2="1" gradientTransform="matrix(60, 0, 0, 56, 0, 4)"><stop offset="0" stop-color="#ec7700" stop-opacity="1"/><stop offset="1" stop-color="#773c00" stop-opacity="1"/></linearGradient></defs><path fill="url(#linear-pattern-0)" fill-opacity="1" d="M 36.21875 2.050781 L 62.027344 27.605469 C 64.402344 29.957031 64.417969 33.785156 62.058594 36.15625 L 36.460938 61.917969 C 34.105469 64.289062 30.269531 64.304688 27.894531 61.949219 L 2.085938 36.394531 C -0.289062 34.042969 -0.304688 30.214844 2.050781 27.84375 L 27.652344 2.082031 C 30.007812 -0.289062 33.84375 -0.304688 36.21875 2.050781 Z M 36.21875 2.050781 " /><g transform="matrix(1.0075098,0,0,1.0032698,16.221436,16.077397)"><path fill-rule="nonzero" fill="rgb(68.235294%, 70.196078%, 76.078431%)" fill-opacity="1" d="M 11.382812 0.660156 L 11.382812 12.386719 C 10.226562 8.867188 7.433594 6.523438 5.609375 6.523438 C 2.425781 6.523438 0.992188 8.867188 0.992188 13.558594 C 0.992188 20.59375 4.460938 27.625 8.492188 27.625 C 9.664062 27.625 10.632812 27.242188 11.382812 26.398438 L 11.382812 28.804688 L 16 31.144531 L 17.152344 17.074219 L 16 3.003906 Z M 7.34375 12.386719 C 8.9375 12.386719 11.382812 15.316406 11.382812 19.421875 C 11.382812 21.765625 10.226562 22.9375 9.070312 22.9375 C 6.765625 22.9375 5.609375 18.25 5.609375 15.90625 C 5.609375 12.984375 6.1875 12.386719 7.34375 12.386719 Z M 7.34375 12.386719 "/><path fill-rule="nonzero" fill="rgb(38.431373%, 39.607843%, 43.921569%)" fill-opacity="1" d="M 20.617188 0.660156 L 20.617188 12.386719 C 21.773438 8.867188 24.566406 6.523438 26.386719 6.523438 C 29.570312 6.523438 31.003906 8.867188 31.003906 13.558594 C 31.003906 20.59375 27.539062 27.625 23.5 27.625 C 22.335938 27.625 21.367188 27.242188 20.617188 26.398438 L 20.617188 28.804688 L 16 31.144531 L 16 3.003906 Z M 24.65625 12.386719 C 23.0625 12.386719 20.617188 15.316406 20.617188 19.421875 C 20.617188 21.765625 21.773438 22.9375 22.921875 22.9375 C 25.234375 22.9375 26.386719 18.25 26.386719 15.90625 C 26.386719 12.984375 25.808594 12.386719 24.65625 12.386719 Z M 24.65625 12.386719 "/></g></svg>
