<svg width="64" height="64" viewBox="0 0 64 64" version="1.1"><defs><linearGradient id="linear-pattern-0" gradientUnits="userSpaceOnUse" x1="0" y1="0" x2="0" y2="1" gradientTransform="matrix(60, 0, 0, 56, 0, 4)"><stop offset="0" stop-color="#a67e50" stop-opacity="1"/><stop offset="1" stop-color="#644c30" stop-opacity="1"/></linearGradient></defs><path fill="url(#linear-pattern-0)" fill-opacity="1" d="M 36.21875 2.050781 L 62.027344 27.605469 C 64.402344 29.957031 64.417969 33.785156 62.058594 36.15625 L 36.460938 61.917969 C 34.105469 64.289062 30.269531 64.304688 27.894531 61.949219 L 2.085938 36.394531 C -0.289062 34.042969 -0.304688 30.214844 2.050781 27.84375 L 27.652344 2.082031 C 30.007812 -0.289062 33.84375 -0.304688 36.21875 2.050781 Z M 36.21875 2.050781 " /><g transform="matrix(1.0075098,0,0,1.0032698,16.221436,16.077397)"><path fill-rule="nonzero" fill="rgb(100%, 100%, 100%)" fill-opacity="1" d="M 0.933594 1.242188 L 0.933594 2.625 L 2.179688 2.625 L 2.179688 5.382812 L 0.933594 5.382812 L 0.933594 6.765625 L 4.664062 6.765625 L 4.664062 5.382812 L 3.421875 5.382812 L 3.421875 1.25 L 0.933594 1.25 "/><path fill-rule="nonzero" fill="rgb(100%, 100%, 100%)" fill-opacity="1" d="M 6.210938 1.242188 L 6.210938 6.765625 L 9.941406 6.765625 L 9.941406 1.242188 Z M 7.453125 2.625 L 8.695312 2.625 L 8.695312 5.382812 L 7.453125 5.382812 Z M 7.453125 2.625 "/><path fill-rule="nonzero" fill="rgb(100%, 100%, 100%)" fill-opacity="1" d="M 11.484375 1.242188 L 11.484375 2.625 L 12.730469 2.625 L 12.730469 5.382812 L 11.484375 5.382812 L 11.484375 6.765625 L 15.21875 6.765625 L 15.21875 5.382812 L 13.972656 5.382812 L 13.972656 1.25 L 11.484375 1.25 "/><path fill-rule="nonzero" fill="rgb(100%, 100%, 100%)" fill-opacity="1" d="M 16.765625 1.242188 L 16.765625 2.625 L 18.003906 2.625 L 18.003906 5.382812 L 16.765625 5.382812 L 16.765625 6.765625 L 20.492188 6.765625 L 20.492188 5.382812 L 19.25 5.382812 L 19.25 1.25 L 16.757812 1.25 "/><path fill-rule="nonzero" fill="rgb(100%, 100%, 100%)" fill-opacity="1" d="M 22.039062 1.242188 L 22.039062 6.765625 L 25.773438 6.765625 L 25.773438 1.242188 Z M 23.285156 2.625 L 24.53125 2.625 L 24.53125 5.382812 L 23.285156 5.382812 Z M 23.285156 2.625 "/><path fill-rule="nonzero" fill="rgb(100%, 100%, 100%)" fill-opacity="1" d="M 27.316406 1.242188 L 27.316406 2.625 L 28.558594 2.625 L 28.558594 5.382812 L 27.316406 5.382812 L 27.316406 6.765625 L 31.042969 6.765625 L 31.042969 5.382812 L 29.804688 5.382812 L 29.804688 1.25 L 27.3125 1.25 "/><path fill-rule="nonzero" fill="rgb(100%, 100%, 100%)" fill-opacity="1" d="M 0.933594 9.277344 L 0.933594 14.796875 L 4.664062 14.796875 L 4.664062 9.277344 Z M 2.179688 10.65625 L 3.421875 10.65625 L 3.421875 13.417969 L 2.179688 13.417969 Z M 2.179688 10.65625 "/><path fill-rule="nonzero" fill="rgb(100%, 100%, 100%)" fill-opacity="1" d="M 6.210938 9.277344 L 6.210938 14.796875 L 9.941406 14.796875 L 9.941406 9.277344 Z M 7.453125 10.65625 L 8.695312 10.65625 L 8.695312 13.417969 L 7.453125 13.417969 Z M 7.453125 10.65625 "/><path fill-rule="nonzero" fill="rgb(100%, 100%, 100%)" fill-opacity="1" d="M 11.484375 9.273438 L 11.484375 10.65625 L 12.730469 10.65625 L 12.730469 13.414062 L 11.484375 13.414062 L 11.484375 14.796875 L 15.21875 14.796875 L 15.21875 13.414062 L 13.972656 13.414062 L 13.972656 9.273438 L 11.484375 9.273438 "/></g></svg>
