<svg width="64" height="64" viewBox="0 0 64 64" version="1.1"><defs><linearGradient id="linear-pattern-0" gradientUnits="userSpaceOnUse" x1="0" y1="0" x2="0" y2="1" gradientTransform="matrix(60, 0, 0, 56, 0, 4)"><stop offset="0" stop-color="#ec7700" stop-opacity="1"/><stop offset="1" stop-color="#773c00" stop-opacity="1"/></linearGradient></defs><path fill="url(#linear-pattern-0)" fill-opacity="1" d="M 36.21875 2.050781 L 62.027344 27.605469 C 64.402344 29.957031 64.417969 33.785156 62.058594 36.15625 L 36.460938 61.917969 C 34.105469 64.289062 30.269531 64.304688 27.894531 61.949219 L 2.085938 36.394531 C -0.289062 34.042969 -0.304688 30.214844 2.050781 27.84375 L 27.652344 2.082031 C 30.007812 -0.289062 33.84375 -0.304688 36.21875 2.050781 Z M 36.21875 2.050781 " /><g transform="matrix(1.0075098,0,0,1.0032698,16.221436,16.077397)"><path fill-rule="nonzero" fill="rgb(100%, 100%, 100%)" fill-opacity="1" d="M 15.578125 0.617188 C 14.507812 0.664062 12.089844 10.125 11.25 10.820312 C 10.410156 11.515625 1 11.828125 0.710938 12.902344 C 0.421875 13.976562 8.335938 19.289062 8.710938 20.335938 C 9.085938 21.382812 6.460938 30.785156 7.355469 31.398438 C 8.25 32.015625 15.554688 25.835938 16.625 25.789062 C 17.699219 25.738281 25.492188 31.238281 26.332031 30.546875 C 27.171875 29.851562 23.78125 20.71875 24.0625 19.640625 C 24.351562 18.566406 31.789062 12.5625 31.414062 11.519531 C 31.039062 10.472656 21.632812 11.011719 20.738281 10.398438 C 19.84375 9.78125 16.648438 0.566406 15.578125 0.617188 M 15.714844 3.914062 C 16.574219 3.875 19.140625 11.28125 19.859375 11.773438 C 20.582031 12.265625 28.132812 11.835938 28.4375 12.679688 C 28.742188 13.515625 22.757812 18.335938 22.53125 19.203125 C 22.300781 20.0625 25.03125 27.398438 24.355469 27.957031 C 23.683594 28.515625 17.421875 24.09375 16.5625 24.132812 C 15.703125 24.171875 9.835938 29.140625 9.109375 28.648438 C 8.398438 28.148438 10.503906 20.59375 10.203125 19.757812 C 9.898438 18.914062 3.539062 14.648438 3.773438 13.789062 C 4.007812 12.925781 11.570312 12.671875 12.242188 12.117188 C 12.917969 11.558594 14.855469 3.953125 15.714844 3.914062 "/></g></svg>
