<svg width="64" height="64" viewBox="0 0 64 64" version="1.1"><defs><linearGradient id="linear-pattern-0" gradientUnits="userSpaceOnUse" x1="0" y1="0" x2="0" y2="1" gradientTransform="matrix(60, 0, 0, 56, 0, 4)"><stop offset="0" stop-color="#6926fc" stop-opacity="1"/><stop offset="1" stop-color="#3702ab" stop-opacity="1"/></linearGradient></defs><path fill="url(#linear-pattern-0)" fill-opacity="1" d="M 36.21875 2.050781 L 62.027344 27.605469 C 64.402344 29.957031 64.417969 33.785156 62.058594 36.15625 L 36.460938 61.917969 C 34.105469 64.289062 30.269531 64.304688 27.894531 61.949219 L 2.085938 36.394531 C -0.289062 34.042969 -0.304688 30.214844 2.050781 27.84375 L 27.652344 2.082031 C 30.007812 -0.289062 33.84375 -0.304688 36.21875 2.050781 Z M 36.21875 2.050781 " /><g transform="matrix(1.0075098,0,0,1.0032698,16.221436,16.077397)"><path fill-rule="nonzero" fill="rgb(100%, 100%, 100%)" fill-opacity="1" d="M 10.671875 0.789062 L 10.671875 4.046875 L 4.148438 4.046875 L 4.148438 10.570312 L 0.890625 10.570312 L 0.890625 13.835938 L 4.148438 13.835938 L 4.148438 18.179688 L 0.890625 18.179688 L 0.890625 21.441406 L 4.148438 21.441406 L 4.148438 25.789062 C 4.148438 26.875 5.238281 27.960938 6.324219 27.960938 L 10.671875 27.960938 L 10.671875 31.222656 L 13.929688 31.222656 L 13.929688 27.960938 L 18.273438 27.960938 L 18.273438 31.222656 L 21.535156 31.222656 L 21.535156 27.960938 L 25.882812 27.960938 C 26.96875 27.960938 28.054688 26.875 28.054688 25.789062 L 28.054688 21.441406 L 31.316406 21.441406 L 31.316406 18.179688 L 28.054688 18.179688 L 28.054688 13.835938 L 31.316406 13.835938 L 31.316406 10.570312 L 28.054688 10.570312 L 28.054688 6.226562 C 28.054688 5.136719 26.96875 4.046875 25.882812 4.046875 L 21.535156 4.046875 L 21.535156 0.789062 L 18.273438 0.789062 L 18.273438 4.046875 L 13.929688 4.046875 L 13.929688 0.789062 Z M 7.410156 7.3125 L 24.796875 7.3125 L 24.796875 24.703125 L 7.410156 24.703125 Z M 10.671875 10.570312 L 10.671875 21.441406 L 21.535156 21.441406 L 21.535156 10.570312 Z M 13.929688 13.835938 L 18.273438 13.835938 L 18.273438 18.179688 L 13.929688 18.179688 Z M 13.929688 13.835938 "/></g></svg>
