<svg width="64" height="64" viewBox="0 0 64 64" version="1.1"><defs><linearGradient id="linear-pattern-0" gradientUnits="userSpaceOnUse" x1="0" y1="0" x2="0" y2="1" gradientTransform="matrix(60, 0, 0, 56, 0, 4)"><stop offset="0" stop-color="#00a07f" stop-opacity="1"/><stop offset="1" stop-color="#005241" stop-opacity="1"/></linearGradient></defs><path fill="url(#linear-pattern-0)" fill-opacity="1" d="M 36.21875 2.050781 L 62.027344 27.605469 C 64.402344 29.957031 64.417969 33.785156 62.058594 36.15625 L 36.460938 61.917969 C 34.105469 64.289062 30.269531 64.304688 27.894531 61.949219 L 2.085938 36.394531 C -0.289062 34.042969 -0.304688 30.214844 2.050781 27.84375 L 27.652344 2.082031 C 30.007812 -0.289062 33.84375 -0.304688 36.21875 2.050781 Z M 36.21875 2.050781 " /><g transform="matrix(1.0075098,0,0,1.0032698,16.221436,16.077397)"><path fill-rule="nonzero" fill="rgb(100%, 100%, 100%)" fill-opacity="1" d="M 32 0 L 0 10.242188 L 11.84375 15.164062 L 16 16 L 16.890625 20.257812 L 21.757812 32 Z M 10.296875 19.203125 C 10.160156 19.21875 9.988281 19.246094 9.828125 19.289062 C 8.617188 19.601562 6.851562 20.90625 5.90625 22.1875 C 4.835938 23.640625 4.265625 25.34375 4.265625 27.078125 C 4.265625 27.5625 4.289062 27.648438 4.429688 27.707031 C 4.59375 27.777344 5.96875 27.695312 6.523438 27.582031 C 8.128906 27.253906 9.492188 26.5 10.71875 25.277344 C 11.484375 24.507812 11.9375 23.871094 12.386719 22.945312 C 12.679688 22.335938 12.875 21.597656 12.773438 21.496094 C 12.75 21.476562 12.59375 21.570312 12.414062 21.707031 C 11.09375 22.558594 10.03125 23.171875 8.53125 23.46875 C 8.921875 21.992188 9.335938 20.867188 10.109375 19.804688 C 10.335938 19.503906 10.519531 19.242188 10.519531 19.230469 C 10.519531 19.199219 10.429688 19.195312 10.296875 19.203125 Z M 10.296875 19.203125 "/></g></svg>
