<svg width="64" height="64" viewBox="0 0 64 64" version="1.1"><defs><linearGradient id="linear-pattern-0" gradientUnits="userSpaceOnUse" x1="0" y1="0" x2="0" y2="1" gradientTransform="matrix(60, 0, 0, 56, 0, 4)"><stop offset="0" stop-color="#0288cf" stop-opacity="1"/><stop offset="1" stop-color="#01486e" stop-opacity="1"/></linearGradient></defs><path fill="url(#linear-pattern-0)" fill-opacity="1" d="M 36.21875 2.050781 L 62.027344 27.605469 C 64.402344 29.957031 64.417969 33.785156 62.058594 36.15625 L 36.460938 61.917969 C 34.105469 64.289062 30.269531 64.304688 27.894531 61.949219 L 2.085938 36.394531 C -0.289062 34.042969 -0.304688 30.214844 2.050781 27.84375 L 27.652344 2.082031 C 30.007812 -0.289062 33.84375 -0.304688 36.21875 2.050781 Z M 36.21875 2.050781 " /><g transform="matrix(1.0075098,0,0,1.0032698,16.221436,16.077397)"><path fill-rule="nonzero" fill="rgb(100%, 100%, 100%)" fill-opacity="1" d="M 5.289062 2.226562 L 2.257812 28.910156 C 2.257812 30.257812 3.335938 31.335938 4.679688 31.335938 L 9.519531 31.335938 C 10.867188 31.335938 11.945312 30.257812 11.945312 28.910156 L 11.945312 30.726562 C 11.945312 31.066406 12.210938 31.335938 12.550781 31.335938 L 21.023438 31.335938 C 21.363281 31.335938 21.632812 31.066406 21.632812 30.726562 L 21.632812 30.125 C 21.632812 30.796875 22.171875 31.335938 22.839844 31.335938 L 30.105469 31.335938 C 30.773438 31.335938 31.3125 30.796875 31.3125 30.125 L 31.3125 11.929688 C 31.3125 9.5 28.894531 8.289062 28.894531 8.289062 L 28.894531 5.859375 C 28.894531 4.53125 27.808594 3.4375 26.472656 3.4375 C 25.136719 3.4375 24.050781 4.523438 24.050781 5.859375 C 24.050781 5.859375 21.617188 11.867188 21.632812 11.929688 C 21.652344 9.5625 19.210938 5.859375 19.210938 5.859375 L 19.210938 4.648438 C 19.210938 3.980469 18.671875 3.4375 18 3.4375 L 11.945312 11.929688 C 11.945312 9.234375 9.957031 7.863281 8.917969 5.859375 C 8.554688 5.160156 8.304688 4.382812 8.304688 3.4375 L 8.914062 3.4375 C 9.25 3.4375 9.519531 3.164062 9.519531 2.832031 C 9.519531 2.492188 9.25 2.226562 8.914062 2.226562 Z M 26.472656 4.648438 C 26.472656 4.648438 27.679688 5.195312 27.679688 5.859375 L 25.265625 5.859375 C 25.265625 5.195312 25.804688 4.648438 26.472656 4.648438 Z M 26.472656 4.648438 "/><path fill-rule="nonzero" fill="rgb(100%, 100%, 100%)" fill-opacity="1" d="M 4.074219 4.648438 C 3.085938 6.710938 1.132812 8.140625 1.011719 10.710938 L 1.011719 27.699219 C 1.011719 29.046875 2.089844 30.125 3.429688 30.125 L 8.277344 30.125 C 9.621094 30.125 10.695312 29.039062 10.695312 27.699219 L 13.117188 19.207031 L 10.695312 10.710938 C 10.695312 8.023438 8.710938 6.652344 7.671875 4.648438 L 5.851562 3.4375 Z M 4.074219 4.648438 "/><path fill-rule="nonzero" fill="rgb(100%, 100%, 100%)" fill-opacity="1" d="M 4.074219 1.015625 L 7.703125 1.015625 C 8.042969 1.015625 8.3125 1.28125 8.3125 1.617188 C 8.3125 1.953125 8.042969 2.226562 7.703125 2.226562 L 4.074219 2.226562 C 3.742188 2.226562 3.46875 1.953125 3.46875 1.617188 C 3.46875 1.28125 3.742188 1.015625 4.074219 1.015625 Z M 4.074219 1.015625 "/><path fill-rule="nonzero" fill="rgb(100%, 100%, 100%)" fill-opacity="1" d="M 4.679688 2.226562 C 4.679688 3.15625 4.449219 3.933594 4.109375 4.648438 L 7.703125 4.648438 C 7.34375 3.945312 7.09375 3.171875 7.09375 2.226562 Z M 4.679688 2.226562 "/><path fill-rule="nonzero" fill="rgb(100%, 100%, 100%)" fill-opacity="1" d="M 8.3125 16.78125 C 8.3125 18.121094 7.226562 19.207031 5.890625 19.207031 C 4.550781 19.207031 3.46875 18.121094 3.46875 16.78125 C 3.46875 15.4375 4.550781 14.351562 5.890625 14.351562 C 7.226562 14.351562 8.3125 15.4375 8.3125 16.78125 Z M 8.3125 16.78125 "/><path fill-rule="nonzero" fill="rgb(100%, 100%, 100%)" fill-opacity="1" d="M 25.265625 6.46875 L 22.839844 7.074219 C 22.839844 7.074219 20.515625 8.601562 20.421875 10.710938 L 18 19.207031 L 20.421875 28.910156 C 20.421875 29.578125 20.960938 30.125 21.632812 30.125 L 28.894531 30.125 C 29.566406 30.125 30.105469 29.578125 30.105469 28.910156 L 30.105469 10.710938 C 30.105469 8.289062 27.679688 7.074219 27.679688 7.074219 Z M 25.265625 6.46875 "/><path fill-rule="nonzero" fill="rgb(100%, 100%, 100%)" fill-opacity="1" d="M 15.578125 4.042969 L 13.15625 4.648438 C 13.15625 4.648438 10.734375 8.289062 10.734375 10.710938 L 10.734375 15.570312 L 11.945312 17.992188 L 10.734375 20.417969 L 10.734375 29.515625 C 10.734375 29.855469 11.007812 30.125 11.335938 30.125 L 19.8125 30.125 C 20.148438 30.125 20.421875 29.855469 20.421875 29.515625 L 20.421875 20.417969 L 19.210938 17.992188 L 20.421875 15.570312 L 20.421875 10.710938 C 20.441406 8.351562 18 4.648438 18 4.648438 Z M 15.578125 4.042969 "/><path fill-rule="nonzero" fill="rgb(100%, 100%, 100%)" fill-opacity="1" d="M 14.367188 2.226562 C 13.695312 2.226562 13.15625 2.765625 13.15625 3.4375 L 13.15625 4.648438 L 18 4.648438 L 18 3.4375 C 18 2.765625 17.457031 2.226562 16.785156 2.226562 Z M 15.578125 13.140625 C 14.242188 13.140625 13.15625 14.226562 13.15625 15.570312 L 10.734375 15.570312 L 10.734375 20.417969 L 20.421875 20.417969 L 20.421875 15.570312 L 18 15.570312 C 18 14.230469 16.914062 13.140625 15.578125 13.140625 Z M 15.578125 14.351562 C 15.578125 14.351562 16.785156 15.570312 16.785156 16.78125 C 16.785156 17.445312 16.242188 17.992188 15.578125 17.992188 C 14.90625 17.992188 14.375 17.445312 14.367188 16.78125 C 14.351562 15.65625 15.578125 14.351562 15.578125 14.351562 Z M 15.578125 14.351562 "/><path fill-rule="nonzero" fill="rgb(100%, 100%, 100%)" fill-opacity="1" d="M 25.265625 2.226562 C 23.925781 2.226562 22.839844 3.3125 22.839844 4.648438 L 22.839844 7.074219 L 27.679688 7.074219 L 27.679688 4.648438 C 27.679688 3.3125 26.601562 2.226562 25.265625 2.226562 Z M 25.265625 3.4375 C 25.929688 3.4375 26.472656 3.980469 26.472656 4.648438 L 26.472656 5.859375 L 24.050781 5.859375 L 24.050781 4.648438 C 24.050781 3.980469 24.59375 3.4375 25.265625 3.4375 Z M 25.265625 3.4375 "/></g></svg>
