<svg width="64" height="64" viewBox="0 0 64 64" version="1.1"><defs><linearGradient id="linear-pattern-0" gradientUnits="userSpaceOnUse" x1="0" y1="0" x2="0" y2="1" gradientTransform="matrix(60, 0, 0, 56, 0, 4)"><stop offset="0" stop-color="#8900e4" stop-opacity="1"/><stop offset="1" stop-color="#42006e" stop-opacity="1"/></linearGradient></defs><path fill="url(#linear-pattern-0)" fill-opacity="1" d="M 36.21875 2.050781 L 62.027344 27.605469 C 64.402344 29.957031 64.417969 33.785156 62.058594 36.15625 L 36.460938 61.917969 C 34.105469 64.289062 30.269531 64.304688 27.894531 61.949219 L 2.085938 36.394531 C -0.289062 34.042969 -0.304688 30.214844 2.050781 27.84375 L 27.652344 2.082031 C 30.007812 -0.289062 33.84375 -0.304688 36.21875 2.050781 Z M 36.21875 2.050781 " /><g transform="matrix(1.0075098,0,0,1.0032698,16.221436,16.077397)"><path fill-rule="nonzero" fill="rgb(100%, 100%, 100%)" fill-opacity="1" d="M 8.734375 1.203125 L 0.8125 22.304688 L 4.46875 26.828125 L 8.125 25.320312 L 11.78125 17.785156 L 10.5625 11.757812 L 12.246094 8.648438 L 11.789062 11.757812 L 13.007812 17.03125 L 21.539062 8.742188 L 26.414062 8.742188 L 27.632812 7.234375 L 23.976562 2.714844 L 17.882812 1.203125 L 11.789062 1.203125 L 14.226562 2.714844 L 13.007812 3.46875 Z M 22.753906 10.25 L 20.3125 11.757812 L 23.96875 13.265625 L 25.1875 20.800781 L 31.285156 17.785156 L 28.84375 10.25 Z M 19.09375 13.265625 L 10.5625 23.8125 L 9.34375 29.84375 L 15.4375 29.84375 L 19.09375 28.335938 L 23.96875 22.304688 L 23.96875 20.800781 L 22.726562 14.785156 Z M 31.285156 19.289062 L 25.796875 22.304688 L 21.53125 28.335938 L 23.96875 31.351562 L 30.0625 28.335938 L 31.285156 23.8125 Z M 31.285156 19.289062 "/></g></svg>
