<svg width="64" height="64" viewBox="0 0 64 64" version="1.1"><defs><linearGradient id="linear-pattern-0" gradientUnits="userSpaceOnUse" x1="0" y1="0" x2="0" y2="1" gradientTransform="matrix(60, 0, 0, 56, 0, 4)"><stop offset="0" stop-color="#0288cf" stop-opacity="1"/><stop offset="1" stop-color="#01486e" stop-opacity="1"/></linearGradient></defs><path fill="url(#linear-pattern-0)" fill-opacity="1" d="M 36.21875 2.050781 L 62.027344 27.605469 C 64.402344 29.957031 64.417969 33.785156 62.058594 36.15625 L 36.460938 61.917969 C 34.105469 64.289062 30.269531 64.304688 27.894531 61.949219 L 2.085938 36.394531 C -0.289062 34.042969 -0.304688 30.214844 2.050781 27.84375 L 27.652344 2.082031 C 30.007812 -0.289062 33.84375 -0.304688 36.21875 2.050781 Z M 36.21875 2.050781 " /><g transform="matrix(1.0075098,0,0,1.0032698,16.221436,16.077397)"><path fill-rule="nonzero" fill="rgb(100%, 100%, 100%)" fill-opacity="1" d="M 16.132812 0.847656 C 14.851562 0.847656 13.8125 2.371094 13.8125 4.25 C 13.8125 6.804688 14.972656 8.507812 16.132812 11.0625 C 17.289062 8.507812 18.445312 6.804688 18.445312 4.25 C 18.445312 2.371094 17.414062 0.847656 16.132812 0.847656 Z M 12.65625 7.65625 C 5.695312 7.65625 1.058594 12.226562 1.058594 16.167969 C 1.058594 20.109375 5.695312 24.679688 12.65625 24.679688 L 12.65625 23.460938 C 7.828125 22.460938 4.539062 19.507812 4.539062 16.167969 C 4.539062 12.828125 7.828125 9.875 12.65625 8.875 Z M 19.609375 7.65625 L 19.609375 8.875 C 24.429688 9.875 27.726562 12.828125 27.726562 16.167969 C 27.726562 19.507812 24.429688 22.460938 19.609375 23.460938 L 19.609375 24.679688 C 26.5625 24.679688 31.203125 20.109375 31.203125 16.167969 C 31.203125 12.226562 26.5625 7.65625 19.609375 7.65625 Z M 12.65625 12.765625 C 9.171875 12.765625 6.855469 14.78125 6.855469 16.167969 C 6.855469 17.554688 9.171875 19.570312 12.65625 19.570312 L 12.65625 18.296875 C 11.195312 17.816406 10.332031 16.96875 10.332031 16.167969 C 10.332031 15.367188 11.195312 14.523438 12.65625 14.039062 Z M 16.132812 12.765625 C 14.851562 12.765625 13.8125 14.289062 13.8125 16.167969 C 13.8125 18.050781 14.851562 19.570312 16.132812 19.570312 C 17.414062 19.570312 18.445312 18.050781 18.445312 16.167969 C 18.445312 14.289062 17.414062 12.765625 16.132812 12.765625 Z M 19.609375 12.765625 L 19.609375 14.039062 C 21.066406 14.519531 21.929688 15.367188 21.929688 16.167969 C 21.929688 16.96875 21.0625 17.816406 19.609375 18.296875 L 19.609375 19.570312 C 23.085938 19.570312 25.40625 17.554688 25.40625 16.167969 C 25.40625 14.78125 23.085938 12.765625 19.609375 12.765625 Z M 16.132812 21.277344 C 14.972656 23.828125 13.8125 25.53125 13.8125 28.085938 C 13.8125 29.964844 14.851562 31.492188 16.132812 31.492188 C 17.414062 31.492188 18.445312 29.964844 18.445312 28.085938 C 18.445312 25.53125 17.289062 23.828125 16.132812 21.277344 Z M 16.132812 21.277344 "/></g></svg>
