<svg width="64" height="64" viewBox="0 0 64 64" version="1.1"><defs><linearGradient id="linear-pattern-0" gradientUnits="userSpaceOnUse" x1="0" y1="0" x2="0" y2="1" gradientTransform="matrix(60, 0, 0, 56, 0, 4)"><stop offset="0" stop-color="#6926fc" stop-opacity="1"/><stop offset="1" stop-color="#3702ab" stop-opacity="1"/></linearGradient></defs><path fill="url(#linear-pattern-0)" fill-opacity="1" d="M 36.21875 2.050781 L 62.027344 27.605469 C 64.402344 29.957031 64.417969 33.785156 62.058594 36.15625 L 36.460938 61.917969 C 34.105469 64.289062 30.269531 64.304688 27.894531 61.949219 L 2.085938 36.394531 C -0.289062 34.042969 -0.304688 30.214844 2.050781 27.84375 L 27.652344 2.082031 C 30.007812 -0.289062 33.84375 -0.304688 36.21875 2.050781 Z M 36.21875 2.050781 " /><g transform="matrix(1.0075098,0,0,1.0032698,16.221436,16.077397)"><path fill-rule="nonzero" fill="rgb(100%, 100%, 100%)" fill-opacity="1" d="M 16.183594 1.058594 C 7.640625 1.058594 0.714844 7.875 0.714844 16.28125 C 0.714844 24.6875 7.640625 31.503906 16.183594 31.503906 C 24.726562 31.503906 31.65625 24.6875 31.65625 16.28125 C 31.65625 7.875 24.726562 1.058594 16.183594 1.058594 Z M 15.152344 3.496094 L 15.152344 9.179688 C 13.296875 9.125 11.742188 8.902344 10.375 8.554688 C 10.46875 8.335938 10.5625 8.117188 10.664062 7.90625 C 11.660156 5.898438 13.085938 4.351562 15.152344 3.496094 Z M 17.214844 3.496094 C 19.28125 4.351562 20.710938 5.898438 21.703125 7.90625 C 21.808594 8.117188 21.898438 8.335938 21.992188 8.554688 C 20.625 8.902344 19.070312 9.125 17.214844 9.179688 Z M 21.707031 4.273438 C 23.210938 4.941406 24.578125 5.875 25.742188 7.03125 C 25.15625 7.359375 24.5625 7.65625 23.953125 7.90625 C 23.828125 7.609375 23.703125 7.308594 23.558594 7.023438 C 23.0625 6.023438 22.445312 5.097656 21.707031 4.273438 Z M 10.65625 4.28125 C 9.921875 5.101562 9.304688 6.027344 8.8125 7.023438 C 8.667969 7.308594 8.539062 7.609375 8.417969 7.90625 C 7.804688 7.65625 7.21875 7.359375 6.636719 7.039062 C 7.792969 5.882812 9.15625 4.945312 10.65625 4.28125 Z M 5.296875 8.601562 C 6.089844 9.054688 6.898438 9.472656 7.75 9.8125 C 7.25 11.570312 6.96875 13.429688 6.898438 15.265625 L 2.78125 15.265625 C 2.96875 12.867188 3.867188 10.554688 5.296875 8.601562 Z M 27.0625 8.601562 C 28.496094 10.5625 29.398438 12.867188 29.59375 15.265625 L 25.46875 15.265625 C 25.398438 13.429688 25.117188 11.574219 24.617188 9.8125 C 25.46875 9.472656 26.273438 9.058594 27.0625 8.601562 Z M 16.183594 10.191406 C 17.164062 10.191406 18.0625 10.546875 18.773438 11.117188 C 20.195312 10.992188 21.480469 10.769531 22.652344 10.457031 C 23.078125 11.984375 23.335938 13.625 23.40625 15.265625 L 23.40625 15.652344 C 24.035156 16.367188 24.4375 17.292969 24.4375 18.3125 C 24.4375 19.617188 23.78125 20.777344 22.796875 21.523438 C 22.75 21.71875 22.707031 21.914062 22.652344 22.105469 C 22.460938 22.054688 22.257812 22.015625 22.0625 21.96875 C 21.527344 22.21875 20.9375 22.367188 20.308594 22.367188 C 19.289062 22.367188 18.355469 21.988281 17.632812 21.378906 C 17.492188 21.375 17.359375 21.359375 17.214844 21.355469 L 15.152344 21.355469 C 15.007812 21.359375 14.875 21.375 14.734375 21.378906 C 14.011719 21.988281 13.078125 22.367188 12.054688 22.367188 C 11.429688 22.367188 10.839844 22.21875 10.304688 21.96875 C 10.109375 22.015625 9.90625 22.054688 9.710938 22.105469 C 9.660156 21.914062 9.617188 21.71875 9.570312 21.523438 C 8.582031 20.777344 7.929688 19.617188 7.929688 18.3125 C 7.929688 17.292969 8.328125 16.367188 8.960938 15.652344 L 8.960938 15.265625 C 9.03125 13.625 9.289062 11.984375 9.710938 10.457031 C 10.882812 10.765625 12.160156 10.992188 13.578125 11.117188 C 14.289062 10.539062 15.195312 10.191406 16.183594 10.191406 Z M 16.183594 11.210938 C 14.71875 11.210938 13.496094 12.207031 13.175781 13.550781 C 13.175781 13.554688 13.171875 13.5625 13.171875 13.5625 C 13.03125 14.054688 12.96875 14.371094 12.574219 14.757812 C 12.054688 15.265625 11.734375 15.144531 10.851562 15.507812 C 10.484375 15.660156 10.148438 15.882812 9.871094 16.15625 C 9.3125 16.710938 8.960938 17.46875 8.960938 18.3125 C 8.960938 19.992188 10.347656 21.355469 12.054688 21.355469 C 12.914062 21.355469 13.6875 21.015625 14.246094 20.460938 C 14.523438 20.1875 14.765625 19.867188 14.910156 19.5 C 15.132812 18.90625 15.152344 18.3125 15.667969 17.804688 C 15.832031 17.640625 16.007812 17.539062 16.183594 17.460938 C 16.359375 17.539062 16.53125 17.640625 16.699219 17.804688 C 17.214844 18.3125 17.234375 18.90625 17.460938 19.5 C 17.601562 19.867188 17.84375 20.1875 18.125 20.460938 C 18.679688 21.015625 19.453125 21.355469 20.308594 21.355469 C 22.015625 21.355469 23.40625 19.992188 23.40625 18.3125 C 23.40625 17.46875 23.054688 16.710938 22.5 16.15625 C 22.21875 15.882812 21.882812 15.660156 21.515625 15.507812 C 20.632812 15.144531 20.308594 15.265625 19.796875 14.757812 C 19.277344 14.253906 19.339844 13.878906 19.03125 13.070312 C 18.894531 12.699219 18.648438 12.375 18.371094 12.101562 C 17.8125 11.546875 17.039062 11.210938 16.183594 11.210938 Z M 16.183594 12.222656 C 17.320312 12.222656 18.246094 13.132812 18.246094 14.25 C 18.246094 15.375 17.320312 16.28125 16.183594 16.28125 C 15.046875 16.28125 14.121094 15.375 14.121094 14.25 C 14.121094 13.132812 15.046875 12.222656 16.183594 12.222656 Z M 12.054688 16.28125 C 13.195312 16.28125 14.121094 17.1875 14.121094 18.3125 C 14.121094 19.433594 13.195312 20.34375 12.054688 20.34375 C 10.917969 20.34375 9.992188 19.433594 9.992188 18.3125 C 9.992188 17.1875 10.917969 16.28125 12.054688 16.28125 Z M 20.308594 16.28125 C 21.445312 16.28125 22.371094 17.1875 22.371094 18.3125 C 22.371094 19.433594 21.445312 20.34375 20.308594 20.34375 C 19.171875 20.34375 18.246094 19.433594 18.246094 18.3125 C 18.246094 17.1875 19.171875 16.28125 20.308594 16.28125 Z M 2.773438 17.296875 L 6.898438 17.296875 C 6.96875 19.132812 7.25 20.992188 7.753906 22.75 C 6.898438 23.09375 6.09375 23.507812 5.300781 23.960938 C 3.867188 22.003906 2.960938 19.699219 2.773438 17.296875 Z M 25.46875 17.296875 L 29.585938 17.296875 C 29.398438 19.699219 28.5 22.007812 27.070312 23.964844 C 26.277344 23.507812 25.46875 23.09375 24.617188 22.75 C 25.117188 20.992188 25.398438 19.132812 25.46875 17.296875 Z M 15.152344 23.386719 L 15.152344 29.070312 C 13.085938 28.210938 11.660156 26.664062 10.664062 24.652344 C 10.5625 24.445312 10.46875 24.226562 10.378906 24.007812 C 11.742188 23.660156 13.296875 23.4375 15.152344 23.386719 Z M 17.214844 23.386719 C 19.070312 23.4375 20.625 23.660156 21.992188 24.007812 C 21.894531 24.226562 21.804688 24.445312 21.703125 24.652344 C 20.703125 26.664062 19.28125 28.210938 17.214844 29.070312 Z M 8.414062 24.65625 C 8.539062 24.957031 8.667969 25.25 8.8125 25.539062 C 9.304688 26.539062 9.921875 27.464844 10.660156 28.289062 C 9.15625 27.625 7.789062 26.6875 6.628906 25.53125 C 7.210938 25.207031 7.804688 24.910156 8.414062 24.65625 Z M 23.953125 24.65625 C 24.5625 24.90625 25.148438 25.203125 25.726562 25.527344 C 24.570312 26.679688 23.210938 27.617188 21.710938 28.28125 C 22.445312 27.460938 23.0625 26.535156 23.554688 25.539062 C 23.695312 25.25 23.828125 24.957031 23.953125 24.65625 Z M 23.953125 24.65625 "/></g></svg>
