<svg width="64" height="64" viewBox="0 0 64 64" version="1.1"><defs><linearGradient id="linear-pattern-0" gradientUnits="userSpaceOnUse" x1="0" y1="0" x2="0" y2="1" gradientTransform="matrix(60, 0, 0, 56, 0, 4)"><stop offset="0" stop-color="#d00068" stop-opacity="1"/><stop offset="1" stop-color="#6e0037" stop-opacity="1"/></linearGradient></defs><path fill="url(#linear-pattern-0)" fill-opacity="1" d="M 36.21875 2.050781 L 62.027344 27.605469 C 64.402344 29.957031 64.417969 33.785156 62.058594 36.15625 L 36.460938 61.917969 C 34.105469 64.289062 30.269531 64.304688 27.894531 61.949219 L 2.085938 36.394531 C -0.289062 34.042969 -0.304688 30.214844 2.050781 27.84375 L 27.652344 2.082031 C 30.007812 -0.289062 33.84375 -0.304688 36.21875 2.050781 Z M 36.21875 2.050781 " /><g transform="matrix(1.0075098,0,0,1.0032698,16.221436,16.077397)"><path fill-rule="nonzero" fill="rgb(100%, 100%, 100%)" fill-opacity="1" d="M 29.691406 0.0234375 C 29.117188 0.03125 28.578125 0.257812 28.273438 0.726562 L 23.417969 9.855469 C 23.777344 9.980469 24.585938 10.339844 27.273438 11.554688 L 27.3125 11.574219 C 27.777344 11.78125 28.132812 11.933594 28.273438 11.992188 C 28.320312 12.015625 28.367188 12.054688 28.414062 12.074219 L 31.953125 2.28125 C 32.171875 1.507812 31.617188 0.617188 30.734375 0.265625 C 30.410156 0.101562 30.054688 0.0234375 29.695312 0.0234375 Z M 2.558594 5.117188 C 1.148438 5.117188 0 6.265625 0 7.679688 C 0 9.085938 1.148438 10.234375 2.558594 10.234375 C 3.96875 10.234375 5.117188 9.085938 5.117188 7.679688 C 5.117188 6.265625 3.96875 5.117188 2.558594 5.117188 Z M 8.3125 7.039062 C 7.605469 7.039062 7.03125 7.609375 7.03125 8.316406 C 7.03125 9.023438 7.605469 9.59375 8.3125 9.59375 C 9.015625 9.59375 9.59375 9.023438 9.59375 8.316406 C 9.59375 7.609375 9.015625 7.039062 8.3125 7.039062 Z M 20.5625 10.632812 C 19.324219 10.726562 18.25 11.34375 17.484375 12.414062 C 17.96875 13.226562 18.8125 14.21875 20 14.191406 C 20.3125 14.183594 20.585938 14.40625 20.640625 14.710938 C 20.882812 15.085938 22.371094 15.757812 22.796875 15.589844 C 22.976562 15.519531 23.171875 15.535156 23.335938 15.632812 C 23.507812 15.726562 23.625 15.882812 23.65625 16.070312 C 23.683594 16.171875 23.960938 16.542969 24.539062 16.808594 C 24.992188 17.015625 25.429688 17.070312 25.675781 16.945312 C 25.832031 16.871094 26.015625 16.863281 26.175781 16.929688 C 26.34375 16.992188 26.488281 17.125 26.554688 17.289062 C 26.988281 18.34375 28.960938 18.421875 30.3125 18.308594 C 30.507812 17.453125 30.453125 16.554688 30.152344 15.730469 C 29.730469 14.585938 28.894531 13.6875 27.753906 13.171875 C 27.632812 13.117188 27.246094 12.9375 26.757812 12.710938 C 24.476562 11.683594 23.191406 11.125 22.9375 11.054688 C 22.101562 10.726562 21.304688 10.578125 20.5625 10.632812 Z M 7.351562 11.515625 C 5.414062 11.515625 3.839844 13.089844 3.835938 15.03125 C 3.835938 16.96875 5.414062 18.546875 7.351562 18.546875 C 9.292969 18.546875 10.867188 16.96875 10.867188 15.03125 C 10.867188 13.09375 9.292969 11.515625 7.351562 11.515625 Z M 16.804688 13.691406 C 16.609375 14.148438 16.390625 14.59375 16.144531 15.03125 C 16.421875 15.699219 17.234375 17.25 18.722656 16.910156 C 18.890625 16.867188 19.074219 16.894531 19.222656 16.992188 C 19.367188 17.085938 19.453125 17.234375 19.484375 17.40625 C 19.523438 17.648438 19.804688 17.929688 20.203125 18.148438 C 20.757812 18.449219 21.367188 18.515625 21.617188 18.40625 C 21.78125 18.332031 21.976562 18.332031 22.140625 18.40625 C 22.304688 18.484375 22.429688 18.632812 22.476562 18.808594 C 22.570312 19.109375 22.882812 19.421875 23.320312 19.648438 C 23.828125 19.90625 24.414062 20 24.796875 19.867188 C 25.089844 19.761719 25.414062 19.890625 25.554688 20.164062 C 26.117188 21.210938 27.976562 21.324219 29.414062 21.226562 C 29.59375 20.703125 29.765625 20.171875 29.929688 19.605469 C 29.757812 19.617188 29.578125 19.625 29.390625 19.625 C 28.054688 19.625 26.453125 19.359375 25.65625 18.265625 C 25.117188 18.339844 24.496094 18.222656 23.878906 17.90625 C 23.429688 17.679688 22.933594 17.328125 22.640625 16.890625 C 21.824219 16.890625 20.890625 16.4375 20.421875 16.148438 C 20.058594 15.929688 19.773438 15.707031 19.601562 15.46875 C 18.335938 15.351562 17.425781 14.523438 16.804688 13.691406 Z M 15.34375 16.289062 C 11.382812 21.796875 4.613281 21.636719 4.535156 21.625 C 4.28125 21.601562 4.035156 21.738281 3.914062 21.96875 C 3.796875 22.1875 3.820312 22.464844 3.976562 22.664062 C 5.054688 23.992188 6.265625 25.203125 7.59375 26.28125 C 8.179688 26.398438 11.890625 26.921875 15.566406 22.664062 C 15.675781 22.535156 15.835938 22.460938 16 22.445312 C 16.171875 22.4375 16.335938 22.492188 16.464844 22.601562 C 16.734375 22.835938 16.753906 23.234375 16.523438 23.503906 C 13.960938 26.476562 11.257812 27.402344 9.371094 27.601562 C 10.835938 28.582031 12.394531 29.414062 14.023438 30.078125 C 14.972656 29.882812 18.140625 28.933594 20.9375 24.664062 C 21.136719 24.367188 21.546875 24.265625 21.839844 24.460938 C 22.132812 24.65625 22.214844 25.066406 22.019531 25.359375 C 19.90625 28.578125 17.59375 30.09375 15.964844 30.796875 C 19.289062 31.875 21.769531 31.96875 21.980469 31.976562 L 22 31.976562 C 22.117188 31.976562 22.238281 31.9375 22.339844 31.875 C 22.515625 31.765625 26.21875 29.34375 28.933594 22.546875 C 28.828125 22.546875 28.71875 22.5625 28.613281 22.5625 C 27.214844 22.5625 25.597656 22.28125 24.71875 21.1875 C 24.097656 21.257812 23.390625 21.117188 22.742188 20.785156 C 22.210938 20.515625 21.789062 20.148438 21.519531 19.726562 C 20.839844 19.78125 20.105469 19.539062 19.601562 19.265625 C 19.082031 18.984375 18.675781 18.632812 18.441406 18.226562 C 16.972656 18.304688 15.949219 17.304688 15.34375 16.289062 Z M 15.34375 16.289062 "/></g></svg>
