<svg width="64" height="64" viewBox="0 0 64 64" version="1.1"><defs><linearGradient id="linear-pattern-0" gradientUnits="userSpaceOnUse" x1="0" y1="0" x2="0" y2="1" gradientTransform="matrix(60, 0, 0, 56, 0, 4)"><stop offset="0" stop-color="#c10000" stop-opacity="1"/><stop offset="1" stop-color="#5f0000" stop-opacity="1"/></linearGradient></defs><path fill="url(#linear-pattern-0)" fill-opacity="1" d="M 36.21875 2.050781 L 62.027344 27.605469 C 64.402344 29.957031 64.417969 33.785156 62.058594 36.15625 L 36.460938 61.917969 C 34.105469 64.289062 30.269531 64.304688 27.894531 61.949219 L 2.085938 36.394531 C -0.289062 34.042969 -0.304688 30.214844 2.050781 27.84375 L 27.652344 2.082031 C 30.007812 -0.289062 33.84375 -0.304688 36.21875 2.050781 Z M 36.21875 2.050781 " /><g transform="matrix(1.0075098,0,0,1.0032698,16.221436,16.077397)"><path fill-rule="nonzero" fill="rgb(100%, 100%, 100%)" fill-opacity="1" d="M 16.132812 0.929688 C 7.824219 0.929688 1.027344 7.667969 0.523438 16.171875 C 0.679688 16.570312 1.042969 16.835938 1.25 17.226562 L 1.34375 18.171875 L 1.511719 17.296875 L 3.335938 18.09375 L 4.59375 19.3125 L 5.671875 19.480469 C 5.289062 20.390625 4.507812 21.867188 4.648438 22.886719 C 4.734375 23.476562 5.3125 24.324219 5.640625 24.808594 C 6.109375 25.484375 6.984375 25.882812 7.214844 26.726562 L 7.25 28.125 L 7.503906 29.171875 C 7.460938 29.539062 7.183594 30.132812 7.238281 30.554688 C 7.953125 31.070312 8.710938 31.523438 9.507812 31.914062 C 9.648438 31.777344 9.628906 31.480469 9.5 31.269531 L 10.117188 30.382812 L 10.898438 29.777344 L 11.453125 27.78125 L 12.632812 26.980469 C 13.121094 26.21875 12.769531 25.585938 12.949219 24.808594 L 13.75 22.449219 C 12.84375 22.09375 11.554688 21.664062 10.914062 20.875 L 10.75 20.96875 L 10.582031 20.179688 L 9.585938 19.65625 L 9.421875 19.828125 L 9.171875 18.609375 L 7.835938 18.492188 L 6.835938 17.921875 C 6.40625 17.859375 5.835938 18.601562 5.671875 18.957031 L 5.089844 18.871094 L 5.257812 18.695312 L 4.757812 18.34375 L 4.839844 18.695312 C 4.484375 18.304688 4.421875 17.8125 4.507812 17.296875 L 3.925781 17.03125 L 3.84375 17.296875 C 3.738281 16.863281 3.78125 16.304688 4.09375 15.984375 C 3.632812 15.660156 3.328125 15.96875 3.011719 16.335938 L 2.34375 14.9375 C 2.160156 15.367188 2.226562 15.796875 2.261719 16.25 L 2.09375 16.25 C 2.054688 15.757812 1.941406 15.226562 2.179688 14.765625 C 2.617188 13.90625 3.945312 13.539062 4.757812 13.71875 L 4.671875 13.890625 L 5.421875 14.59375 C 5.425781 13.253906 5.925781 13.117188 6.632812 12.144531 L 7.125 11.203125 C 7.667969 10.574219 8.515625 10.148438 9.25 9.859375 L 10.164062 9.265625 C 9.867188 8.726562 9.085938 8.878906 8.585938 8.914062 C 9.488281 8.375 10.710938 8.664062 11.335938 7.695312 C 10.660156 7.179688 10.660156 5.835938 9.585938 6.382812 L 9.75 5.859375 L 8.835938 5.421875 L 8.167969 6.882812 L 7.253906 8.039062 L 7.171875 7.429688 C 6.820312 7.257812 5.851562 6.960938 5.828125 6.46875 C 5.8125 5.9375 7.375 5.132812 7.757812 4.8125 L 7.585938 5.246094 L 8.234375 5.183594 C 8.367188 5.09375 9.664062 3.171875 9.832031 4.371094 C 10.734375 4.734375 10.835938 5.140625 11.75 4.546875 L 11.164062 4.285156 C 11.074219 3.421875 10.347656 3.414062 9.664062 3.414062 L 11.828125 2.367188 C 12.070312 2.984375 12.828125 3.109375 13.070312 3.683594 C 13.246094 4.089844 12.734375 4.332031 12.746094 4.722656 C 12.757812 5.203125 13.203125 5.789062 13.414062 6.207031 L 14.664062 4.773438 C 15.355469 4.382812 16.46875 4.34375 17.019531 3.71875 C 17.65625 2.996094 17.304688 1.847656 18.492188 1.84375 C 18.25 1.734375 17.859375 1.65625 17.65625 1.84375 L 17.40625 1.578125 L 17.742188 1.578125 C 17.570312 1.328125 17.449219 1.195312 17.160156 1.140625 C 17.09375 1.054688 17 0.992188 16.90625 0.953125 C 16.648438 0.9375 16.394531 0.929688 16.132812 0.929688 M 23.398438 3.5 C 23.109375 3.75 22.609375 3.875 22.234375 3.9375 L 21.554688 4.914062 L 20.765625 5.609375 C 20.632812 5.929688 20.839844 6.410156 20.898438 6.726562 L 21.734375 6.296875 C 21.855469 6.726562 22.179688 6.839844 22.484375 7.078125 C 22.976562 6.097656 22.554688 5.15625 23.734375 4.632812 L 22.984375 5.59375 L 23.234375 5.421875 L 23.316406 5.945312 L 23.398438 5.246094 C 23.617188 6.03125 23.390625 7.117188 22.570312 7.414062 L 21.734375 7.34375 L 21.734375 6.820312 C 21.261719 6.921875 21.28125 7.171875 21.40625 7.601562 C 21.082031 7.507812 20.890625 7.523438 20.65625 7.78125 C 20.398438 7.503906 20.195312 7.296875 20.15625 6.90625 C 19.992188 6.734375 19.921875 6.621094 19.90625 6.382812 L 19.320312 6.296875 L 19.570312 7.695312 C 19.347656 7.257812 19.117188 7.148438 18.65625 7.25 L 18.90625 8.304688 L 19.242188 8.21875 L 18.992188 8.125 L 19.320312 7.515625 L 19.484375 8.476562 L 20.238281 8.304688 C 20.03125 8.511719 19.859375 8.5625 19.570312 8.5625 L 19.65625 8.824219 L 19.242188 8.824219 L 19.820312 9.875 C 18.457031 9.882812 18.445312 10.617188 18.492188 11.792969 C 18.757812 11.8125 18.882812 11.859375 19.070312 12.058594 C 20.171875 11.445312 20.429688 10.316406 21.734375 9.960938 C 21.945312 10.65625 22.601562 10.613281 22.402344 11.445312 C 23.042969 11.308594 23.226562 10.742188 22.816406 10.222656 C 23.367188 10.5625 23.523438 11.265625 23.898438 11.792969 C 24.164062 11.429688 24.0625 11.011719 24.484375 10.746094 L 24.484375 11.007812 C 25.1875 11.664062 25.671875 11.8125 26.5625 12.144531 C 26.257812 12.601562 25.890625 13.046875 25.3125 13.007812 C 24.609375 12.960938 23.714844 12.242188 23.234375 13.101562 L 21.894531 11.992188 C 21.152344 11.664062 20.421875 11.972656 19.65625 11.882812 L 19.320312 12.054688 L 19.484375 12.144531 C 17.960938 12.867188 17.117188 14.757812 16.960938 16.335938 L 16.667969 17.382812 C 16.832031 18.40625 17.65625 19.46875 18.351562 20.164062 C 18.839844 20.648438 19.191406 19.695312 19.65625 20.179688 C 20.269531 19.9375 21.203125 19.507812 21.765625 20.1875 C 22.132812 20.640625 21.746094 21.011719 21.875 21.488281 C 22.101562 22.320312 22.628906 23.289062 22.625 24.195312 L 22.421875 26.378906 C 22.601562 27.707031 23.304688 28.828125 23.316406 30.222656 C 24.335938 30.109375 25.484375 29.570312 26.046875 28.648438 L 26.292969 27.871094 L 26.714844 27.332031 L 26.554688 26.476562 C 26.792969 25.875 27.757812 25.808594 27.902344 25.15625 C 28.101562 24.261719 27.582031 23.203125 27.890625 22.273438 C 28.367188 20.84375 29.6875 19.789062 29.726562 18.171875 L 28.726562 18.257812 C 29.625 17.101562 31.527344 16.519531 30.554688 14.765625 L 30.140625 15.289062 L 29.976562 15.289062 C 29.65625 14.578125 29.140625 14.507812 29.140625 13.628906 C 29.921875 14.332031 30.726562 14.351562 31.472656 15.203125 C 31.539062 15.164062 31.59375 15.109375 31.640625 15.054688 C 31.074219 10.539062 28.726562 6.609375 25.351562 4.046875 C 24.714844 3.984375 23.964844 3.890625 23.566406 3.5 L 23.398438 3.5 L 23.398438 3.496094 "/><path fill-rule="nonzero" fill="rgb(100%, 100%, 100%)" fill-opacity="1" d="M 15.953125 8.132812 C 15.917969 8.152344 15.707031 8.972656 15.476562 10 C 15.238281 11.058594 15.011719 11.96875 14.96875 12.015625 C 14.960938 12.03125 14.945312 12.039062 14.921875 12.054688 C 13.078125 12.484375 11.625 13.96875 11.1875 15.867188 C 11.1875 15.867188 11.1875 15.871094 11.1875 15.875 C 11.109375 16.070312 11.046875 16.101562 10.871094 16.152344 C 10.726562 16.1875 9.90625 16.390625 9.039062 16.59375 C 8.179688 16.796875 7.445312 16.988281 7.421875 17.015625 C 7.390625 17.042969 8.160156 17.257812 9.132812 17.484375 C 10.097656 17.71875 10.953125 17.945312 11.035156 17.996094 C 11.078125 18.023438 11.132812 18.101562 11.179688 18.203125 C 11.609375 20.128906 13.085938 21.640625 14.960938 22.058594 C 15.195312 22.21875 15.226562 22.457031 15.414062 23.257812 C 15.554688 23.871094 15.757812 24.765625 15.859375 25.242188 C 16 25.882812 16.070312 26.070312 16.109375 25.960938 C 16.140625 25.882812 16.34375 25.039062 16.554688 24.085938 C 16.765625 23.132812 16.96875 22.292969 16.996094 22.21875 C 17.023438 22.15625 17.15625 22.074219 17.375 21.976562 C 18.992188 21.496094 20.273438 20.191406 20.757812 18.53125 C 20.777344 18.464844 20.796875 18.398438 20.808594 18.332031 C 20.796875 18.398438 20.777344 18.464844 20.757812 18.53125 C 20.824219 18.3125 20.917969 18.121094 20.972656 18.101562 C 21.03125 18.078125 21.898438 17.863281 22.898438 17.625 C 23.902344 17.382812 24.734375 17.171875 24.746094 17.160156 C 24.78125 17.125 24.507812 17.054688 22.699219 16.621094 C 21.855469 16.417969 21.105469 16.226562 21.03125 16.199219 C 20.984375 16.179688 20.917969 16.078125 20.84375 15.921875 C 20.84375 15.917969 20.84375 15.917969 20.84375 15.917969 C 20.40625 13.929688 18.851562 12.375 16.898438 12.015625 C 16.882812 11.992188 16.867188 11.96875 16.859375 11.945312 C 16.824219 11.859375 16.617188 10.980469 16.398438 9.984375 C 16.179688 8.992188 15.984375 8.15625 15.957031 8.132812 C 15.957031 8.125 15.957031 8.132812 15.953125 8.132812 M 16.007812 11.929688 C 16.09375 11.929688 16.183594 11.929688 16.265625 11.9375 C 16.179688 11.929688 16.09375 11.929688 16.007812 11.929688 C 15.945312 11.929688 15.875 11.929688 15.804688 11.933594 C 15.875 11.929688 15.945312 11.929688 16.007812 11.929688 M 15.710938 11.9375 C 15.640625 11.945312 15.574219 11.949219 15.503906 11.953125 C 15.445312 11.960938 15.382812 11.96875 15.320312 11.976562 C 15.382812 11.96875 15.445312 11.960938 15.503906 11.953125 C 15.574219 11.949219 15.640625 11.945312 15.710938 11.9375 M 16.007812 13.296875 C 18.015625 13.296875 19.640625 14.980469 19.640625 17.050781 C 19.640625 19.125 18.015625 20.804688 16.007812 20.804688 C 14.007812 20.804688 12.382812 19.125 12.382812 17.050781 C 12.382812 14.980469 14.007812 13.296875 16.007812 13.296875 M 11.078125 16.546875 C 11.070312 16.613281 11.070312 16.679688 11.0625 16.75 C 11.070312 16.679688 11.070312 16.613281 11.078125 16.546875 M 20.945312 16.554688 C 20.949219 16.621094 20.953125 16.6875 20.957031 16.75 C 20.953125 16.6875 20.949219 16.621094 20.945312 16.554688 M 11.0625 16.808594 C 11.054688 16.890625 11.054688 16.96875 11.054688 17.050781 C 11.054688 17.125 11.058594 17.203125 11.0625 17.277344 C 11.058594 17.203125 11.054688 17.125 11.054688 17.050781 C 11.054688 16.96875 11.054688 16.890625 11.0625 16.808594 M 20.960938 16.835938 C 20.964844 16.90625 20.96875 16.976562 20.96875 17.050781 C 20.96875 16.976562 20.964844 16.90625 20.960938 16.835938 M 11.0625 17.347656 C 11.070312 17.421875 11.074219 17.496094 11.078125 17.570312 C 11.074219 17.496094 11.070312 17.421875 11.0625 17.347656 M 20.957031 17.351562 C 20.953125 17.429688 20.945312 17.5 20.941406 17.574219 C 20.933594 17.632812 20.929688 17.695312 20.917969 17.757812 C 20.929688 17.695312 20.933594 17.632812 20.941406 17.574219 C 20.945312 17.5 20.953125 17.429688 20.957031 17.351562 M 20.898438 17.90625 C 20.890625 17.953125 20.882812 17.996094 20.875 18.039062 C 20.882812 17.996094 20.890625 17.953125 20.898438 17.90625 M 15.503906 22.148438 C 15.582031 22.15625 15.660156 22.164062 15.742188 22.164062 C 15.660156 22.164062 15.582031 22.15625 15.503906 22.148438 M 15.757812 22.164062 C 15.839844 22.171875 15.925781 22.171875 16.007812 22.171875 C 16.09375 22.171875 16.171875 22.171875 16.25 22.164062 C 16.171875 22.171875 16.09375 22.171875 16.007812 22.171875 C 15.925781 22.171875 15.839844 22.171875 15.757812 22.164062 "/><path fill-rule="nonzero" fill="rgb(100%, 100%, 100%)" fill-opacity="1" d="M 14.78125 15.820312 C 17.390625 13.640625 14.773438 15.820312 17.382812 13.648438 C 24.351562 7.765625 17.414062 13.65625 24.355469 7.742188 C 18.15625 16.808594 20.03125 14.117188 18.128906 16.867188 C 17.621094 17.601562 17.164062 18.203125 17.117188 18.203125 C 14.769531 15.835938 17.109375 18.195312 14.78125 15.820312 "/><path fill-rule="nonzero" fill="rgb(100%, 100%, 100%)" fill-opacity="1" d="M 17.195312 18.152344 C 14.609375 20.367188 17.207031 18.15625 14.617188 20.359375 C 7.726562 26.339844 14.585938 20.351562 7.722656 26.359375 C 13.804688 17.210938 11.96875 19.921875 13.835938 17.148438 C 14.332031 16.410156 14.78125 15.804688 14.828125 15.804688 C 17.207031 18.132812 14.835938 15.8125 17.195312 18.152344 "/></g></svg>
