<svg width="64" height="64" viewBox="0 0 64 64" version="1.1"><defs><linearGradient id="linear-pattern-0" gradientUnits="userSpaceOnUse" x1="0" y1="0" x2="0" y2="1" gradientTransform="matrix(60, 0, 0, 56, 0, 4)"><stop offset="0" stop-color="#0288cf" stop-opacity="1"/><stop offset="1" stop-color="#01486e" stop-opacity="1"/></linearGradient></defs><path fill="url(#linear-pattern-0)" fill-opacity="1" d="M 36.21875 2.050781 L 62.027344 27.605469 C 64.402344 29.957031 64.417969 33.785156 62.058594 36.15625 L 36.460938 61.917969 C 34.105469 64.289062 30.269531 64.304688 27.894531 61.949219 L 2.085938 36.394531 C -0.289062 34.042969 -0.304688 30.214844 2.050781 27.84375 L 27.652344 2.082031 C 30.007812 -0.289062 33.84375 -0.304688 36.21875 2.050781 Z M 36.21875 2.050781 " /><g transform="matrix(1.0075098,0,0,1.0032698,16.221436,16.077397)"><path fill-rule="nonzero" fill="rgb(100%, 100%, 100%)" fill-opacity="1" d="M 15.839844 0 C 14.691406 0.00390625 13.546875 0.128906 12.417969 0.378906 C 8.367188 1.273438 4.867188 3.753906 2.363281 7.492188 C 1.304688 9.078125 0.335938 11.285156 0.335938 12.132812 C 0.335938 12.851562 1.175781 13.226562 1.734375 12.757812 C 1.867188 12.648438 1.996094 12.445312 2.027344 12.304688 C 2.3125 10.996094 3.316406 9.03125 4.480469 7.503906 C 5.453125 6.226562 7.234375 4.617188 8.609375 3.773438 C 12.902344 1.140625 18.765625 1.085938 23.085938 3.644531 C 25.792969 5.246094 28.007812 7.90625 29.304688 11.117188 C 29.585938 11.8125 30.046875 13.339844 30.046875 13.574219 C 30.046875 13.640625 29.632812 13.285156 29.125 12.785156 C 28.023438 11.695312 27.914062 11.617188 27.484375 11.617188 C 27.007812 11.617188 26.675781 11.925781 26.617188 12.417969 C 26.597656 12.617188 26.609375 12.835938 26.648438 12.898438 C 26.730469 13.046875 30.230469 16.585938 30.507812 16.804688 C 30.789062 17.023438 31.308594 17 31.601562 16.757812 C 31.984375 16.433594 32.035156 16.203125 31.984375 15.046875 C 31.78125 10.734375 29.085938 5.851562 25.367188 3.0625 C 22.699219 1.0625 19.28125 -0.0078125 15.839844 0 Z M 0 15.78125 L 0.046875 16.898438 C 0.128906 18.796875 0.664062 20.75 1.664062 22.796875 C 3.679688 26.921875 6.988281 29.902344 11 31.21875 C 12.164062 31.59375 13.015625 31.773438 14.566406 31.957031 C 15.230469 32.039062 17.359375 32 18.1875 31.890625 C 22.890625 31.28125 27.046875 28.5625 29.796875 24.304688 C 30.6875 22.921875 31.5625 20.921875 31.671875 20.007812 C 31.710938 19.648438 31.695312 19.609375 31.4375 19.347656 C 31.203125 19.113281 31.105469 19.070312 30.820312 19.070312 C 30.28125 19.074219 30.15625 19.230469 29.804688 20.285156 C 28.597656 23.898438 25.679688 27.210938 22.242188 28.882812 C 19.449219 30.230469 16.265625 30.605469 13.078125 29.960938 C 9.453125 29.234375 6.320312 27.03125 4.15625 23.695312 C 3.34375 22.441406 2.5 20.558594 2.179688 19.304688 C 2.109375 19.023438 2.03125 18.726562 2.007812 18.640625 C 1.984375 18.554688 2.445312 18.953125 3.03125 19.53125 L 4.09375 20.578125 L 4.496094 20.542969 C 5.042969 20.488281 5.28125 20.25 5.335938 19.695312 L 5.375 19.289062 L 1.3125 15.226562 C 1.3125 15.226562 0.929688 14.96875 0.453125 15.179688 C -0.0234375 15.394531 0 15.78125 0 15.78125 Z M 0 15.78125 "/></g></svg>
