<svg width="64" height="64" viewBox="0 0 64 64" version="1.1"><defs><linearGradient id="linear-pattern-0" gradientUnits="userSpaceOnUse" x1="0" y1="0" x2="0" y2="1" gradientTransform="matrix(60, 0, 0, 56, 0, 4)"><stop offset="0" stop-color="#3067ff" stop-opacity="1"/><stop offset="1" stop-color="#002ca6" stop-opacity="1"/></linearGradient></defs><path fill="url(#linear-pattern-0)" fill-opacity="1" d="M 36.21875 2.050781 L 62.027344 27.605469 C 64.402344 29.957031 64.417969 33.785156 62.058594 36.15625 L 36.460938 61.917969 C 34.105469 64.289062 30.269531 64.304688 27.894531 61.949219 L 2.085938 36.394531 C -0.289062 34.042969 -0.304688 30.214844 2.050781 27.84375 L 27.652344 2.082031 C 30.007812 -0.289062 33.84375 -0.304688 36.21875 2.050781 Z M 36.21875 2.050781 " /><g transform="matrix(1.0075098,0,0,1.0032698,16.221436,16.077397)"><path fill-rule="nonzero" fill="rgb(100%, 100%, 100%)" fill-opacity="1" d="M 5.570312 4.46875 C 2.875 4.46875 0.699219 6.640625 0.699219 9.328125 L 0.699219 21.492188 C 0.699219 24.179688 2.875 26.351562 5.570312 26.351562 L 6.789062 26.351562 L 6.789062 29.386719 C 6.789062 30.84375 8.414062 31.710938 9.628906 30.90625 L 16.535156 26.351562 L 23.84375 26.351562 C 26.542969 26.351562 28.71875 24.179688 28.71875 21.492188 L 28.71875 19.664062 C 28.71875 18.65625 27.898438 17.84375 26.890625 17.84375 C 25.882812 17.84375 25.0625 18.65625 25.0625 19.664062 L 25.0625 20.273438 C 25.0625 21.617188 23.976562 22.703125 22.625 22.703125 L 15.320312 22.703125 L 10.441406 26.046875 L 10.441406 22.703125 L 6.789062 22.703125 C 5.4375 22.703125 4.351562 21.617188 4.351562 20.273438 L 4.351562 10.550781 C 4.351562 9.199219 5.4375 8.117188 6.789062 8.117188 L 7.398438 8.117188 C 8.40625 8.117188 9.226562 7.304688 9.226562 6.292969 C 9.226562 5.289062 8.40625 4.46875 7.398438 4.46875 Z M 5.570312 4.46875 "/><path fill-rule="nonzero" fill="rgb(68.235294%, 70.196078%, 76.078431%)" fill-opacity="1" d="M 13.71875 1.085938 C 13.226562 1.53125 12.917969 2.171875 12.917969 2.882812 L 12.917969 11.394531 C 12.917969 12.742188 14.007812 13.820312 15.359375 13.820312 L 28.757812 13.820312 C 30.105469 13.820312 31.195312 12.742188 31.195312 11.394531 L 31.195312 2.882812 C 31.195312 2.171875 30.890625 1.53125 30.398438 1.085938 Z M 13.71875 1.085938 "/><path fill-rule="nonzero" fill="rgb(38.431373%, 39.607843%, 43.921569%)" fill-opacity="1" d="M 15 1.8125 C 14.359375 1.8125 13.789062 2.054688 13.355469 2.445312 L 21.695312 9.101562 L 30.039062 2.445312 C 29.609375 2.054688 29.03125 1.8125 28.398438 1.8125 Z M 15 1.8125 "/></g></svg>
