<svg width="64" height="64" viewBox="0 0 64 64" version="1.1"><defs><linearGradient id="linear-pattern-0" gradientUnits="userSpaceOnUse" x1="0" y1="0" x2="0" y2="1" gradientTransform="matrix(60, 0, 0, 56, 0, 4)"><stop offset="0" stop-color="#ec7700" stop-opacity="1"/><stop offset="1" stop-color="#773c00" stop-opacity="1"/></linearGradient></defs><path fill="url(#linear-pattern-0)" fill-opacity="1" d="M 36.21875 2.050781 L 62.027344 27.605469 C 64.402344 29.957031 64.417969 33.785156 62.058594 36.15625 L 36.460938 61.917969 C 34.105469 64.289062 30.269531 64.304688 27.894531 61.949219 L 2.085938 36.394531 C -0.289062 34.042969 -0.304688 30.214844 2.050781 27.84375 L 27.652344 2.082031 C 30.007812 -0.289062 33.84375 -0.304688 36.21875 2.050781 Z M 36.21875 2.050781 " /><g transform="matrix(1.0075098,0,0,1.0032698,16.221436,16.077397)"><path fill-rule="evenodd" fill="rgb(100%, 100%, 100%)" fill-opacity="1" d="M 6.421875 2.328125 C 3.257812 2.328125 0.691406 5.019531 0.691406 8.339844 C 0.691406 11.660156 3.257812 14.351562 6.421875 14.351562 C 9.585938 14.351562 12.152344 11.660156 12.152344 8.339844 C 12.152344 5.019531 9.585938 2.328125 6.421875 2.328125 M 25.78125 2.632812 C 22.617188 2.632812 20.050781 5.324219 20.050781 8.640625 C 20.050781 11.960938 22.617188 14.648438 25.78125 14.648438 C 28.945312 14.648438 31.507812 11.960938 31.507812 8.640625 C 31.507812 5.324219 28.945312 2.632812 25.78125 2.632812 M 15.679688 13.671875 C 13.71875 13.695312 12.6875 14.523438 11.367188 15.101562 C 9.1875 22.613281 15.742188 25.804688 16.386719 29.84375 C 17.328125 26.023438 22.671875 21.578125 21.40625 15.101562 C 18.796875 14.019531 17.019531 13.652344 15.679688 13.671875 "/><path fill-rule="evenodd" fill="rgb(14.901961%, 13.72549%, 15.686275%)" fill-opacity="1" d="M 25.511719 6.988281 C 25.511719 8.242188 24.539062 9.265625 23.34375 9.265625 C 22.144531 9.265625 21.171875 8.242188 21.171875 6.988281 C 21.171875 5.730469 22.140625 4.710938 23.34375 4.710938 C 24.539062 4.710938 25.511719 5.730469 25.511719 6.988281 "/><path fill-rule="evenodd" fill="rgb(14.901961%, 13.72549%, 15.686275%)" fill-opacity="1" d="M 11.03125 6.6875 C 11.03125 7.941406 10.058594 8.960938 8.859375 8.960938 C 7.660156 8.960938 6.691406 7.941406 6.6875 6.6875 C 6.6875 5.429688 7.660156 4.40625 8.859375 4.40625 C 10.058594 4.40625 11.03125 5.429688 11.03125 6.6875 "/></g></svg>
