<svg width="64" height="64" viewBox="0 0 64 64" version="1.1"><defs><linearGradient id="linear-pattern-0" gradientUnits="userSpaceOnUse" x1="0" y1="0" x2="0" y2="1" gradientTransform="matrix(60, 0, 0, 56, 0, 4)"><stop offset="0" stop-color="#a67e50" stop-opacity="1"/><stop offset="1" stop-color="#644c30" stop-opacity="1"/></linearGradient></defs><path fill="url(#linear-pattern-0)" fill-opacity="1" d="M 36.21875 2.050781 L 62.027344 27.605469 C 64.402344 29.957031 64.417969 33.785156 62.058594 36.15625 L 36.460938 61.917969 C 34.105469 64.289062 30.269531 64.304688 27.894531 61.949219 L 2.085938 36.394531 C -0.289062 34.042969 -0.304688 30.214844 2.050781 27.84375 L 27.652344 2.082031 C 30.007812 -0.289062 33.84375 -0.304688 36.21875 2.050781 Z M 36.21875 2.050781 " /><g transform="matrix(1.0075098,0,0,1.0032698,16.221436,16.077397)"><path fill-rule="nonzero" fill="rgb(100%, 100%, 100%)" fill-opacity="1" d="M 16.03125 0.890625 C 7.578125 0.890625 0.730469 7.773438 0.730469 16.265625 C 0.730469 24.757812 7.578125 31.640625 16.03125 31.640625 C 24.476562 31.640625 31.324219 24.757812 31.324219 16.265625 C 31.324219 7.773438 24.476562 0.890625 16.03125 0.890625 Z M 16.03125 2.945312 C 23.351562 2.945312 29.28125 8.90625 29.28125 16.265625 C 29.28125 23.625 23.351562 29.589844 16.03125 29.589844 C 8.703125 29.589844 2.773438 23.625 2.773438 16.265625 C 2.773438 8.90625 8.703125 2.945312 16.03125 2.945312 Z M 16.03125 6.015625 C 10.398438 6.015625 5.832031 10.605469 5.832031 16.265625 C 5.832031 21.925781 10.398438 26.515625 16.03125 26.515625 C 21.65625 26.515625 26.222656 21.925781 26.222656 16.265625 C 26.222656 10.605469 21.65625 6.015625 16.03125 6.015625 Z M 16.03125 6.015625 "/></g></svg>
