<svg width="64" height="64" viewBox="0 0 64 64" version="1.1"><defs><linearGradient id="linear-pattern-0" gradientUnits="userSpaceOnUse" x1="0" y1="0" x2="0" y2="1" gradientTransform="matrix(60, 0, 0, 56, 0, 4)"><stop offset="0" stop-color="#3067ff" stop-opacity="1"/><stop offset="1" stop-color="#002ca6" stop-opacity="1"/></linearGradient></defs><path fill="url(#linear-pattern-0)" fill-opacity="1" d="M 36.21875 2.050781 L 62.027344 27.605469 C 64.402344 29.957031 64.417969 33.785156 62.058594 36.15625 L 36.460938 61.917969 C 34.105469 64.289062 30.269531 64.304688 27.894531 61.949219 L 2.085938 36.394531 C -0.289062 34.042969 -0.304688 30.214844 2.050781 27.84375 L 27.652344 2.082031 C 30.007812 -0.289062 33.84375 -0.304688 36.21875 2.050781 Z M 36.21875 2.050781 " /><g transform="matrix(1.0075098,0,0,1.0032698,16.221436,16.077397)"><path fill-rule="nonzero" fill="rgb(100%, 100%, 100%)" fill-opacity="1" d="M 28.15625 24.90625 C 25.429688 28.726562 21 31.207031 16 31.207031 C 10.976562 31.207031 6.523438 28.699219 3.804688 24.851562 Z M 28.179688 24.800781 C 29.96875 22.335938 31 19.289062 31 16 C 31 7.605469 24.277344 0.792969 16 0.792969 C 7.722656 0.792969 1 7.605469 1 16 C 1 19.265625 2.015625 22.289062 3.78125 24.742188 C 13.4375 24.117188 14.265625 19.902344 16.820312 19.949219 C 20 20.007812 19.304688 24.132812 28.179688 24.800781 Z M 28.179688 24.800781 "/></g></svg>
