<svg width="64" height="64" viewBox="0 0 64 64" version="1.1"><defs><linearGradient id="linear-pattern-0" gradientUnits="userSpaceOnUse" x1="0" y1="0" x2="0" y2="1" gradientTransform="matrix(60, 0, 0, 56, 0, 4)"><stop offset="0" stop-color="#6926fc" stop-opacity="1"/><stop offset="1" stop-color="#3702ab" stop-opacity="1"/></linearGradient></defs><path fill="url(#linear-pattern-0)" fill-opacity="1" d="M 36.21875 2.050781 L 62.027344 27.605469 C 64.402344 29.957031 64.417969 33.785156 62.058594 36.15625 L 36.460938 61.917969 C 34.105469 64.289062 30.269531 64.304688 27.894531 61.949219 L 2.085938 36.394531 C -0.289062 34.042969 -0.304688 30.214844 2.050781 27.84375 L 27.652344 2.082031 C 30.007812 -0.289062 33.84375 -0.304688 36.21875 2.050781 Z M 36.21875 2.050781 " /><g transform="matrix(1.0075098,0,0,1.0032698,16.221436,16.077397)"><path fill-rule="nonzero" fill="rgb(100%, 100%, 100%)" fill-opacity="1" d="M 1.585938 11.53125 C 1.519531 11.753906 1.460938 11.976562 1.402344 12.199219 L 30.984375 12.199219 C 30.917969 11.976562 30.847656 11.753906 30.773438 11.53125 C 29.519531 10.199219 2.851562 10.199219 1.585938 11.53125 Z M 1.585938 11.53125 "/><path fill-rule="nonzero" fill="rgb(100%, 100%, 100%)" fill-opacity="1" d="M 17.359375 25.210938 L 16.230469 25.210938 L 16.230469 19.539062 C 16.230469 19.359375 16.230469 19.171875 16.230469 18.96875 C 16.234375 18.765625 16.242188 18.5625 16.242188 18.367188 C 16.25 18.164062 16.257812 17.96875 16.265625 17.789062 C 16.273438 17.601562 16.277344 17.4375 16.28125 17.296875 C 16.210938 17.375 16.144531 17.4375 16.089844 17.492188 C 16.03125 17.546875 15.976562 17.59375 15.914062 17.644531 C 15.859375 17.695312 15.800781 17.75 15.738281 17.804688 C 15.671875 17.859375 15.59375 17.921875 15.507812 18 L 14.558594 18.75 L 13.945312 17.984375 L 16.398438 16.132812 L 17.359375 16.132812 Z M 17.359375 25.210938 "/><path fill-rule="nonzero" fill="rgb(100%, 100%, 100%)" fill-opacity="1" d="M 10.664062 8 C 10.664062 8.734375 10.070312 9.335938 9.335938 9.335938 C 8.597656 9.335938 8 8.734375 8 8 C 8 7.265625 8.597656 6.664062 9.335938 6.664062 C 10.070312 6.664062 10.664062 7.265625 10.664062 8 Z M 10.664062 8 "/><path fill-rule="nonzero" fill="rgb(100%, 100%, 100%)" fill-opacity="1" d="M 14 8 C 14 8.734375 13.402344 9.335938 12.664062 9.335938 C 11.929688 9.335938 11.335938 8.734375 11.335938 8 C 11.335938 7.265625 11.929688 6.664062 12.664062 6.664062 C 13.402344 6.664062 14 7.265625 14 8 Z M 14 8 "/><path fill-rule="nonzero" fill="rgb(100%, 100%, 100%)" fill-opacity="1" d="M 9.34375 7.179688 L 12.679688 7.179688 C 13.046875 7.179688 13.34375 7.476562 13.34375 7.847656 C 13.34375 8.214844 13.046875 8.515625 12.679688 8.515625 L 9.34375 8.515625 C 8.976562 8.515625 8.679688 8.214844 8.679688 7.847656 C 8.679688 7.476562 8.976562 7.179688 9.34375 7.179688 Z M 9.34375 7.179688 "/><path fill-rule="nonzero" fill="rgb(100%, 100%, 100%)" fill-opacity="1" d="M 20.664062 8 C 20.664062 8.734375 20.070312 9.335938 19.335938 9.335938 C 18.597656 9.335938 18 8.734375 18 8 C 18 7.265625 18.597656 6.664062 19.335938 6.664062 C 20.070312 6.664062 20.664062 7.265625 20.664062 8 Z M 20.664062 8 "/><path fill-rule="nonzero" fill="rgb(100%, 100%, 100%)" fill-opacity="1" d="M 24 8 C 24 8.734375 23.402344 9.335938 22.664062 9.335938 C 21.929688 9.335938 21.335938 8.734375 21.335938 8 C 21.335938 7.265625 21.929688 6.664062 22.664062 6.664062 C 23.402344 6.664062 24 7.265625 24 8 Z M 24 8 "/><path fill-rule="nonzero" fill="rgb(100%, 100%, 100%)" fill-opacity="1" d="M 19.3125 7.359375 L 22.644531 7.359375 C 23.015625 7.359375 23.3125 7.65625 23.3125 8.023438 C 23.3125 8.390625 23.015625 8.691406 22.644531 8.691406 L 19.3125 8.691406 C 18.945312 8.691406 18.644531 8.390625 18.644531 8.023438 C 18.644531 7.65625 18.945312 7.359375 19.3125 7.359375 Z M 19.3125 7.359375 "/></g></svg>
