<svg width="64" height="64" viewBox="0 0 64 64" version="1.1"><defs><linearGradient id="linear-pattern-0" gradientUnits="userSpaceOnUse" x1="0" y1="0" x2="0" y2="1" gradientTransform="matrix(60, 0, 0, 56, 0, 4)"><stop offset="0" stop-color="#6926fc" stop-opacity="1"/><stop offset="1" stop-color="#3702ab" stop-opacity="1"/></linearGradient></defs><path fill="url(#linear-pattern-0)" fill-opacity="1" d="M 36.21875 2.050781 L 62.027344 27.605469 C 64.402344 29.957031 64.417969 33.785156 62.058594 36.15625 L 36.460938 61.917969 C 34.105469 64.289062 30.269531 64.304688 27.894531 61.949219 L 2.085938 36.394531 C -0.289062 34.042969 -0.304688 30.214844 2.050781 27.84375 L 27.652344 2.082031 C 30.007812 -0.289062 33.84375 -0.304688 36.21875 2.050781 Z M 36.21875 2.050781 " /><g transform="matrix(1.0075098,0,0,1.0032698,16.221436,16.077397)"><path fill-rule="nonzero" fill="rgb(100%, 100%, 100%)" fill-opacity="1" d="M 1.398438 11.335938 C 1.335938 11.554688 1.273438 11.777344 1.21875 12 L 30.796875 12 C 30.734375 11.773438 30.664062 11.554688 30.585938 11.335938 C 29.335938 10 2.664062 10 1.398438 11.335938 Z M 1.398438 11.335938 "/><path fill-rule="nonzero" fill="rgb(100%, 100%, 100%)" fill-opacity="1" d="M 15.644531 25.210938 L 9.804688 25.210938 L 9.804688 24.242188 L 12.046875 21.875 C 12.367188 21.539062 12.652344 21.234375 12.90625 20.953125 C 13.15625 20.679688 13.367188 20.40625 13.546875 20.140625 C 13.726562 19.875 13.859375 19.609375 13.953125 19.347656 C 14.046875 19.078125 14.09375 18.785156 14.09375 18.46875 C 14.09375 18.226562 14.058594 18.011719 13.984375 17.824219 C 13.914062 17.640625 13.808594 17.480469 13.671875 17.351562 C 13.539062 17.21875 13.382812 17.121094 13.199219 17.054688 C 13.015625 16.988281 12.8125 16.953125 12.585938 16.953125 C 12.179688 16.953125 11.8125 17.039062 11.484375 17.195312 C 11.15625 17.355469 10.851562 17.558594 10.554688 17.804688 L 9.898438 17.070312 C 10.070312 16.917969 10.253906 16.78125 10.453125 16.648438 C 10.648438 16.519531 10.859375 16.40625 11.085938 16.3125 C 11.3125 16.214844 11.550781 16.140625 11.804688 16.085938 C 12.054688 16.03125 12.320312 16 12.59375 16 C 13.007812 16 13.375 16.054688 13.703125 16.164062 C 14.039062 16.28125 14.320312 16.4375 14.546875 16.648438 C 14.78125 16.859375 14.957031 17.113281 15.078125 17.414062 C 15.210938 17.710938 15.273438 18.050781 15.273438 18.429688 C 15.273438 18.78125 15.214844 19.117188 15.101562 19.433594 C 14.988281 19.75 14.835938 20.066406 14.632812 20.375 C 14.4375 20.683594 14.199219 20.992188 13.921875 21.304688 C 13.648438 21.609375 13.351562 21.9375 13.03125 22.273438 L 11.234375 24.125 L 11.234375 24.179688 L 15.644531 24.179688 Z M 15.644531 25.210938 "/><path fill-rule="nonzero" fill="rgb(100%, 100%, 100%)" fill-opacity="1" d="M 18.21875 25.210938 L 21.820312 17.164062 L 16.992188 17.164062 L 16.992188 16.132812 L 23.015625 16.132812 L 23.015625 17.03125 L 19.460938 25.210938 Z M 18.21875 25.210938 "/><path fill-rule="nonzero" fill="rgb(100%, 100%, 100%)" fill-opacity="1" d="M 10.664062 8 C 10.664062 8.734375 10.070312 9.335938 9.335938 9.335938 C 8.597656 9.335938 8 8.734375 8 8 C 8 7.265625 8.597656 6.664062 9.335938 6.664062 C 10.070312 6.664062 10.664062 7.265625 10.664062 8 Z M 10.664062 8 "/><path fill-rule="nonzero" fill="rgb(100%, 100%, 100%)" fill-opacity="1" d="M 14 8 C 14 8.734375 13.402344 9.335938 12.664062 9.335938 C 11.929688 9.335938 11.335938 8.734375 11.335938 8 C 11.335938 7.265625 11.929688 6.664062 12.664062 6.664062 C 13.402344 6.664062 14 7.265625 14 8 Z M 14 8 "/><path fill-rule="nonzero" fill="rgb(100%, 100%, 100%)" fill-opacity="1" d="M 9.335938 7.335938 L 12.664062 7.335938 C 13.035156 7.335938 13.335938 7.632812 13.335938 8 C 13.335938 8.367188 13.035156 8.664062 12.664062 8.664062 L 9.335938 8.664062 C 8.964844 8.664062 8.664062 8.367188 8.664062 8 C 8.664062 7.632812 8.964844 7.335938 9.335938 7.335938 Z M 9.335938 7.335938 "/><path fill-rule="nonzero" fill="rgb(100%, 100%, 100%)" fill-opacity="1" d="M 20.664062 8 C 20.664062 8.734375 20.070312 9.335938 19.335938 9.335938 C 18.597656 9.335938 18 8.734375 18 8 C 18 7.265625 18.597656 6.664062 19.335938 6.664062 C 20.070312 6.664062 20.664062 7.265625 20.664062 8 Z M 20.664062 8 "/><path fill-rule="nonzero" fill="rgb(100%, 100%, 100%)" fill-opacity="1" d="M 24 8 C 24 8.734375 23.402344 9.335938 22.664062 9.335938 C 21.929688 9.335938 21.335938 8.734375 21.335938 8 C 21.335938 7.265625 21.929688 6.664062 22.664062 6.664062 C 23.402344 6.664062 24 7.265625 24 8 Z M 24 8 "/><path fill-rule="nonzero" fill="rgb(100%, 100%, 100%)" fill-opacity="1" d="M 19.335938 7.335938 L 22.664062 7.335938 C 23.035156 7.335938 23.335938 7.632812 23.335938 8 C 23.335938 8.367188 23.035156 8.664062 22.664062 8.664062 L 19.335938 8.664062 C 18.964844 8.664062 18.664062 8.367188 18.664062 8 C 18.664062 7.632812 18.964844 7.335938 19.335938 7.335938 Z M 19.335938 7.335938 "/></g></svg>
