<svg width="64" height="64" viewBox="0 0 64 64" version="1.1"><defs><linearGradient id="linear-pattern-0" gradientUnits="userSpaceOnUse" x1="0" y1="0" x2="0" y2="1" gradientTransform="matrix(60, 0, 0, 56, 0, 4)"><stop offset="0" stop-color="#3067ff" stop-opacity="1"/><stop offset="1" stop-color="#002ca6" stop-opacity="1"/></linearGradient></defs><path fill="url(#linear-pattern-0)" fill-opacity="1" d="M 36.21875 2.050781 L 62.027344 27.605469 C 64.402344 29.957031 64.417969 33.785156 62.058594 36.15625 L 36.460938 61.917969 C 34.105469 64.289062 30.269531 64.304688 27.894531 61.949219 L 2.085938 36.394531 C -0.289062 34.042969 -0.304688 30.214844 2.050781 27.84375 L 27.652344 2.082031 C 30.007812 -0.289062 33.84375 -0.304688 36.21875 2.050781 Z M 36.21875 2.050781 " /><g transform="matrix(1.0075098,0,0,1.0032698,16.221436,16.077397)"><path fill-rule="nonzero" fill="rgb(100%, 100%, 100%)" fill-opacity="1" d="M 1.398438 11.335938 C 1.335938 11.554688 1.273438 11.777344 1.21875 12 L 30.796875 12 C 30.734375 11.773438 30.664062 11.554688 30.585938 11.335938 C 29.335938 10 2.664062 10 1.398438 11.335938 Z M 1.398438 11.335938 "/><path fill-rule="nonzero" fill="rgb(100%, 100%, 100%)" fill-opacity="1" d="M 15.648438 25.210938 L 9.808594 25.210938 L 9.808594 24.242188 L 12.046875 21.875 C 12.367188 21.539062 12.65625 21.234375 12.90625 20.953125 C 13.160156 20.679688 13.375 20.40625 13.546875 20.140625 C 13.726562 19.875 13.863281 19.609375 13.960938 19.34375 C 14.054688 19.078125 14.101562 18.785156 14.101562 18.46875 C 14.101562 18.226562 14.0625 18.011719 13.992188 17.824219 C 13.917969 17.640625 13.8125 17.480469 13.675781 17.351562 C 13.546875 17.21875 13.386719 17.121094 13.203125 17.054688 C 13.019531 16.988281 12.8125 16.953125 12.585938 16.953125 C 12.179688 16.953125 11.8125 17.035156 11.484375 17.195312 C 11.164062 17.355469 10.851562 17.554688 10.554688 17.804688 L 9.90625 17.066406 C 10.074219 16.917969 10.257812 16.78125 10.453125 16.648438 C 10.648438 16.515625 10.859375 16.40625 11.085938 16.308594 C 11.3125 16.210938 11.554688 16.140625 11.804688 16.085938 C 12.054688 16.027344 12.320312 16 12.601562 16 C 13.007812 16 13.378906 16.054688 13.707031 16.164062 C 14.039062 16.277344 14.320312 16.4375 14.554688 16.648438 C 14.78125 16.859375 14.960938 17.109375 15.085938 17.414062 C 15.210938 17.710938 15.273438 18.046875 15.273438 18.425781 C 15.273438 18.777344 15.21875 19.113281 15.101562 19.429688 C 14.992188 19.75 14.835938 20.0625 14.632812 20.375 C 14.4375 20.679688 14.203125 20.992188 13.925781 21.300781 C 13.652344 21.609375 13.355469 21.933594 13.035156 22.269531 L 11.234375 24.125 L 11.234375 24.175781 L 15.648438 24.175781 Z M 15.648438 25.210938 "/><path fill-rule="nonzero" fill="rgb(100%, 100%, 100%)" fill-opacity="1" d="M 22.574219 18.253906 C 22.574219 18.554688 22.523438 18.832031 22.425781 19.078125 C 22.328125 19.328125 22.1875 19.542969 22.007812 19.726562 C 21.835938 19.90625 21.625 20.058594 21.375 20.179688 C 21.128906 20.296875 20.851562 20.375 20.550781 20.429688 L 20.550781 20.464844 C 21.304688 20.554688 21.882812 20.789062 22.273438 21.164062 C 22.664062 21.539062 22.859375 22.023438 22.859375 22.625 C 22.859375 23.023438 22.789062 23.390625 22.648438 23.71875 C 22.515625 24.050781 22.304688 24.335938 22.023438 24.578125 C 21.742188 24.816406 21.382812 25 20.953125 25.132812 C 20.523438 25.265625 20.011719 25.335938 19.421875 25.335938 C 18.957031 25.335938 18.515625 25.296875 18.101562 25.226562 C 17.695312 25.15625 17.304688 25.03125 16.945312 24.84375 L 16.945312 23.789062 C 17.316406 23.976562 17.71875 24.125 18.148438 24.226562 C 18.585938 24.332031 19 24.382812 19.398438 24.382812 C 19.789062 24.382812 20.128906 24.34375 20.414062 24.257812 C 20.703125 24.175781 20.9375 24.058594 21.117188 23.90625 C 21.304688 23.75 21.445312 23.5625 21.53125 23.339844 C 21.617188 23.117188 21.664062 22.867188 21.664062 22.585938 C 21.664062 22.304688 21.605469 22.066406 21.492188 21.867188 C 21.382812 21.664062 21.21875 21.5 21.011719 21.371094 C 20.804688 21.238281 20.546875 21.140625 20.242188 21.078125 C 19.945312 21.015625 19.601562 20.984375 19.226562 20.984375 L 18.375 20.984375 L 18.375 20.046875 L 19.226562 20.046875 C 19.570312 20.046875 19.875 20.007812 20.148438 19.921875 C 20.414062 19.84375 20.640625 19.726562 20.820312 19.570312 C 21 19.417969 21.140625 19.234375 21.234375 19.023438 C 21.328125 18.8125 21.375 18.582031 21.375 18.328125 C 21.375 18.113281 21.335938 17.921875 21.261719 17.75 C 21.183594 17.582031 21.078125 17.4375 20.933594 17.320312 C 20.792969 17.203125 20.625 17.109375 20.429688 17.046875 C 20.234375 16.988281 20.015625 16.957031 19.773438 16.957031 C 19.320312 16.957031 18.914062 17.027344 18.5625 17.167969 C 18.21875 17.304688 17.890625 17.484375 17.570312 17.710938 L 16.984375 16.929688 C 17.148438 16.804688 17.324219 16.683594 17.523438 16.570312 C 17.722656 16.460938 17.9375 16.363281 18.175781 16.28125 C 18.410156 16.195312 18.660156 16.125 18.921875 16.074219 C 19.195312 16.023438 19.476562 16 19.773438 16 C 20.238281 16 20.640625 16.054688 20.984375 16.167969 C 21.335938 16.28125 21.628906 16.4375 21.863281 16.640625 C 22.101562 16.835938 22.273438 17.078125 22.394531 17.351562 C 22.515625 17.625 22.574219 17.929688 22.574219 18.253906 Z M 22.574219 18.253906 "/><path fill-rule="nonzero" fill="rgb(100%, 100%, 100%)" fill-opacity="1" d="M 10.664062 8 C 10.664062 8.734375 10.070312 9.335938 9.335938 9.335938 C 8.597656 9.335938 8 8.734375 8 8 C 8 7.265625 8.597656 6.664062 9.335938 6.664062 C 10.070312 6.664062 10.664062 7.265625 10.664062 8 Z M 10.664062 8 "/><path fill-rule="nonzero" fill="rgb(100%, 100%, 100%)" fill-opacity="1" d="M 14 8 C 14 8.734375 13.402344 9.335938 12.664062 9.335938 C 11.929688 9.335938 11.335938 8.734375 11.335938 8 C 11.335938 7.265625 11.929688 6.664062 12.664062 6.664062 C 13.402344 6.664062 14 7.265625 14 8 Z M 14 8 "/><path fill-rule="nonzero" fill="rgb(100%, 100%, 100%)" fill-opacity="1" d="M 9.335938 7.335938 L 12.664062 7.335938 C 13.035156 7.335938 13.335938 7.632812 13.335938 8 C 13.335938 8.367188 13.035156 8.664062 12.664062 8.664062 L 9.335938 8.664062 C 8.964844 8.664062 8.664062 8.367188 8.664062 8 C 8.664062 7.632812 8.964844 7.335938 9.335938 7.335938 Z M 9.335938 7.335938 "/><path fill-rule="nonzero" fill="rgb(100%, 100%, 100%)" fill-opacity="1" d="M 20.664062 8 C 20.664062 8.734375 20.070312 9.335938 19.335938 9.335938 C 18.597656 9.335938 18 8.734375 18 8 C 18 7.265625 18.597656 6.664062 19.335938 6.664062 C 20.070312 6.664062 20.664062 7.265625 20.664062 8 Z M 20.664062 8 "/><path fill-rule="nonzero" fill="rgb(100%, 100%, 100%)" fill-opacity="1" d="M 24 8 C 24 8.734375 23.402344 9.335938 22.664062 9.335938 C 21.929688 9.335938 21.335938 8.734375 21.335938 8 C 21.335938 7.265625 21.929688 6.664062 22.664062 6.664062 C 23.402344 6.664062 24 7.265625 24 8 Z M 24 8 "/><path fill-rule="nonzero" fill="rgb(100%, 100%, 100%)" fill-opacity="1" d="M 19.335938 7.335938 L 22.664062 7.335938 C 23.035156 7.335938 23.335938 7.632812 23.335938 8 C 23.335938 8.367188 23.035156 8.664062 22.664062 8.664062 L 19.335938 8.664062 C 18.964844 8.664062 18.664062 8.367188 18.664062 8 C 18.664062 7.632812 18.964844 7.335938 19.335938 7.335938 Z M 19.335938 7.335938 "/></g></svg>
