<svg width="64" height="64" viewBox="0 0 64 64" version="1.1"><defs><linearGradient id="linear-pattern-0" gradientUnits="userSpaceOnUse" x1="0" y1="0" x2="0" y2="1" gradientTransform="matrix(60, 0, 0, 56, 0, 4)"><stop offset="0" stop-color="#3067ff" stop-opacity="1"/><stop offset="1" stop-color="#002ca6" stop-opacity="1"/></linearGradient></defs><path fill="url(#linear-pattern-0)" fill-opacity="1" d="M 36.21875 2.050781 L 62.027344 27.605469 C 64.402344 29.957031 64.417969 33.785156 62.058594 36.15625 L 36.460938 61.917969 C 34.105469 64.289062 30.269531 64.304688 27.894531 61.949219 L 2.085938 36.394531 C -0.289062 34.042969 -0.304688 30.214844 2.050781 27.84375 L 27.652344 2.082031 C 30.007812 -0.289062 33.84375 -0.304688 36.21875 2.050781 Z M 36.21875 2.050781 " /><g transform="matrix(1.0075098,0,0,1.0032698,16.221436,16.077397)"><path fill-rule="nonzero" fill="rgb(100%, 100%, 100%)" fill-opacity="1" d="M 1.398438 11.335938 C 1.335938 11.554688 1.273438 11.777344 1.21875 12 L 30.796875 12 C 30.734375 11.773438 30.664062 11.554688 30.585938 11.335938 C 29.335938 10 2.664062 10 1.398438 11.335938 Z M 1.398438 11.335938 "/><path fill-rule="nonzero" fill="rgb(100%, 100%, 100%)" fill-opacity="1" d="M 13.75 25.210938 L 12.621094 25.210938 L 12.621094 19.539062 C 12.621094 19.359375 12.621094 19.171875 12.621094 18.96875 C 12.625 18.765625 12.628906 18.5625 12.632812 18.367188 C 12.640625 18.164062 12.648438 17.96875 12.652344 17.789062 C 12.660156 17.601562 12.664062 17.4375 12.671875 17.296875 C 12.597656 17.375 12.535156 17.4375 12.476562 17.492188 C 12.421875 17.546875 12.367188 17.59375 12.304688 17.644531 C 12.25 17.695312 12.191406 17.75 12.125 17.804688 C 12.0625 17.859375 11.984375 17.921875 11.898438 18 L 10.945312 18.75 L 10.335938 17.984375 L 12.785156 16.132812 L 13.746094 16.132812 L 13.746094 25.210938 Z M 13.75 25.210938 "/><path fill-rule="nonzero" fill="rgb(100%, 100%, 100%)" fill-opacity="1" d="M 23.023438 20.65625 C 23.023438 21.390625 22.96875 22.046875 22.859375 22.625 C 22.75 23.203125 22.578125 23.695312 22.335938 24.097656 C 22.09375 24.5 21.785156 24.804688 21.40625 25.015625 C 21.023438 25.226562 20.5625 25.335938 20.023438 25.335938 C 19.515625 25.335938 19.078125 25.226562 18.703125 25.015625 C 18.328125 24.804688 18.023438 24.5 17.773438 24.097656 C 17.53125 23.695312 17.347656 23.203125 17.222656 22.625 C 17.101562 22.046875 17.042969 21.390625 17.042969 20.65625 C 17.042969 19.921875 17.097656 19.265625 17.203125 18.6875 C 17.3125 18.109375 17.488281 17.621094 17.722656 17.222656 C 17.960938 16.820312 18.269531 16.515625 18.644531 16.304688 C 19.023438 16.09375 19.484375 15.988281 20.023438 15.988281 C 20.53125 15.988281 20.96875 16.09375 21.347656 16.304688 C 21.722656 16.511719 22.03125 16.8125 22.28125 17.21875 C 22.53125 17.613281 22.714844 18.101562 22.839844 18.679688 C 22.960938 19.261719 23.023438 19.921875 23.023438 20.65625 Z M 18.226562 20.65625 C 18.226562 21.277344 18.261719 21.820312 18.328125 22.28125 C 18.390625 22.75 18.492188 23.132812 18.632812 23.445312 C 18.773438 23.75 18.957031 23.984375 19.183594 24.140625 C 19.414062 24.292969 19.695312 24.371094 20.023438 24.371094 C 20.351562 24.371094 20.632812 24.292969 20.859375 24.140625 C 21.09375 23.988281 21.28125 23.757812 21.421875 23.453125 C 21.574219 23.144531 21.679688 22.757812 21.742188 22.296875 C 21.8125 21.828125 21.84375 21.28125 21.84375 20.65625 C 21.84375 20.035156 21.8125 19.492188 21.742188 19.03125 C 21.679688 18.566406 21.574219 18.179688 21.421875 17.875 C 21.28125 17.570312 21.09375 17.339844 20.859375 17.1875 C 20.632812 17.03125 20.351562 16.957031 20.023438 16.957031 C 19.695312 16.957031 19.414062 17.03125 19.183594 17.1875 C 18.957031 17.339844 18.773438 17.570312 18.632812 17.875 C 18.492188 18.179688 18.390625 18.566406 18.328125 19.03125 C 18.261719 19.492188 18.226562 20.035156 18.226562 20.65625 Z M 18.226562 20.65625 "/><path fill-rule="nonzero" fill="rgb(100%, 100%, 100%)" fill-opacity="1" d="M 10.664062 8 C 10.664062 8.734375 10.070312 9.335938 9.335938 9.335938 C 8.597656 9.335938 8 8.734375 8 8 C 8 7.265625 8.597656 6.664062 9.335938 6.664062 C 10.070312 6.664062 10.664062 7.265625 10.664062 8 Z M 10.664062 8 "/><path fill-rule="nonzero" fill="rgb(100%, 100%, 100%)" fill-opacity="1" d="M 14 8 C 14 8.734375 13.402344 9.335938 12.664062 9.335938 C 11.929688 9.335938 11.335938 8.734375 11.335938 8 C 11.335938 7.265625 11.929688 6.664062 12.664062 6.664062 C 13.402344 6.664062 14 7.265625 14 8 Z M 14 8 "/><path fill-rule="nonzero" fill="rgb(100%, 100%, 100%)" fill-opacity="1" d="M 9.335938 7.335938 L 12.664062 7.335938 C 13.035156 7.335938 13.335938 7.632812 13.335938 8 C 13.335938 8.367188 13.035156 8.664062 12.664062 8.664062 L 9.335938 8.664062 C 8.964844 8.664062 8.664062 8.367188 8.664062 8 C 8.664062 7.632812 8.964844 7.335938 9.335938 7.335938 Z M 9.335938 7.335938 "/><path fill-rule="nonzero" fill="rgb(100%, 100%, 100%)" fill-opacity="1" d="M 20.664062 8 C 20.664062 8.734375 20.070312 9.335938 19.335938 9.335938 C 18.597656 9.335938 18 8.734375 18 8 C 18 7.265625 18.597656 6.664062 19.335938 6.664062 C 20.070312 6.664062 20.664062 7.265625 20.664062 8 Z M 20.664062 8 "/><path fill-rule="nonzero" fill="rgb(100%, 100%, 100%)" fill-opacity="1" d="M 24 8 C 24 8.734375 23.402344 9.335938 22.664062 9.335938 C 21.929688 9.335938 21.335938 8.734375 21.335938 8 C 21.335938 7.265625 21.929688 6.664062 22.664062 6.664062 C 23.402344 6.664062 24 7.265625 24 8 Z M 24 8 "/><path fill-rule="nonzero" fill="rgb(100%, 100%, 100%)" fill-opacity="1" d="M 19.335938 7.335938 L 22.664062 7.335938 C 23.035156 7.335938 23.335938 7.632812 23.335938 8 C 23.335938 8.367188 23.035156 8.664062 22.664062 8.664062 L 19.335938 8.664062 C 18.964844 8.664062 18.664062 8.367188 18.664062 8 C 18.664062 7.632812 18.964844 7.335938 19.335938 7.335938 Z M 19.335938 7.335938 "/></g></svg>
