<svg width="64" height="64" viewBox="0 0 64 64" version="1.1"><defs><linearGradient id="linear-pattern-0" gradientUnits="userSpaceOnUse" x1="0" y1="0" x2="0" y2="1" gradientTransform="matrix(60, 0, 0, 56, 0, 4)"><stop offset="0" stop-color="#8900e4" stop-opacity="1"/><stop offset="1" stop-color="#42006e" stop-opacity="1"/></linearGradient></defs><path fill="url(#linear-pattern-0)" fill-opacity="1" d="M 36.21875 2.050781 L 62.027344 27.605469 C 64.402344 29.957031 64.417969 33.785156 62.058594 36.15625 L 36.460938 61.917969 C 34.105469 64.289062 30.269531 64.304688 27.894531 61.949219 L 2.085938 36.394531 C -0.289062 34.042969 -0.304688 30.214844 2.050781 27.84375 L 27.652344 2.082031 C 30.007812 -0.289062 33.84375 -0.304688 36.21875 2.050781 Z M 36.21875 2.050781 " /><g transform="matrix(1.0075098,0,0,1.0032698,16.221436,16.077397)"><path fill-rule="nonzero" fill="rgb(100%, 100%, 100%)" fill-opacity="1" d="M 1.398438 11.335938 C 1.335938 11.554688 1.273438 11.777344 1.21875 12 L 30.796875 12 C 30.734375 11.773438 30.664062 11.554688 30.585938 11.335938 C 29.335938 10 2.664062 10 1.398438 11.335938 Z M 1.398438 11.335938 "/><path fill-rule="nonzero" fill="rgb(100%, 100%, 100%)" fill-opacity="1" d="M 19.765625 23.171875 L 18.40625 23.171875 L 18.40625 25.210938 L 17.28125 25.210938 L 17.28125 23.171875 L 12.957031 23.171875 L 12.957031 22.1875 L 17.203125 16.082031 L 18.40625 16.082031 L 18.40625 22.144531 L 19.765625 22.144531 Z M 17.277344 22.144531 L 17.277344 19.933594 C 17.277344 19.703125 17.28125 19.460938 17.28125 19.207031 C 17.289062 18.949219 17.300781 18.703125 17.308594 18.460938 C 17.316406 18.21875 17.328125 17.992188 17.335938 17.78125 C 17.347656 17.570312 17.355469 17.390625 17.359375 17.25 L 17.304688 17.25 C 17.273438 17.335938 17.234375 17.425781 17.1875 17.53125 C 17.144531 17.628906 17.09375 17.730469 17.039062 17.835938 C 16.988281 17.933594 16.9375 18.03125 16.878906 18.125 C 16.824219 18.222656 16.773438 18.304688 16.726562 18.367188 L 14.09375 22.144531 Z M 17.277344 22.144531 "/><path fill-rule="nonzero" fill="rgb(100%, 100%, 100%)" fill-opacity="1" d="M 10.664062 8 C 10.664062 8.734375 10.070312 9.335938 9.335938 9.335938 C 8.597656 9.335938 8 8.734375 8 8 C 8 7.265625 8.597656 6.664062 9.335938 6.664062 C 10.070312 6.664062 10.664062 7.265625 10.664062 8 Z M 10.664062 8 "/><path fill-rule="nonzero" fill="rgb(100%, 100%, 100%)" fill-opacity="1" d="M 14 8 C 14 8.734375 13.402344 9.335938 12.664062 9.335938 C 11.929688 9.335938 11.335938 8.734375 11.335938 8 C 11.335938 7.265625 11.929688 6.664062 12.664062 6.664062 C 13.402344 6.664062 14 7.265625 14 8 Z M 14 8 "/><path fill-rule="nonzero" fill="rgb(100%, 100%, 100%)" fill-opacity="1" d="M 9.335938 7.335938 L 12.664062 7.335938 C 13.035156 7.335938 13.335938 7.632812 13.335938 8 C 13.335938 8.367188 13.035156 8.664062 12.664062 8.664062 L 9.335938 8.664062 C 8.964844 8.664062 8.664062 8.367188 8.664062 8 C 8.664062 7.632812 8.964844 7.335938 9.335938 7.335938 Z M 9.335938 7.335938 "/><path fill-rule="nonzero" fill="rgb(100%, 100%, 100%)" fill-opacity="1" d="M 20.664062 8 C 20.664062 8.734375 20.070312 9.335938 19.335938 9.335938 C 18.597656 9.335938 18 8.734375 18 8 C 18 7.265625 18.597656 6.664062 19.335938 6.664062 C 20.070312 6.664062 20.664062 7.265625 20.664062 8 Z M 20.664062 8 "/><path fill-rule="nonzero" fill="rgb(100%, 100%, 100%)" fill-opacity="1" d="M 24 8 C 24 8.734375 23.402344 9.335938 22.664062 9.335938 C 21.929688 9.335938 21.335938 8.734375 21.335938 8 C 21.335938 7.265625 21.929688 6.664062 22.664062 6.664062 C 23.402344 6.664062 24 7.265625 24 8 Z M 24 8 "/><path fill-rule="nonzero" fill="rgb(100%, 100%, 100%)" fill-opacity="1" d="M 19.335938 7.335938 L 22.664062 7.335938 C 23.035156 7.335938 23.335938 7.632812 23.335938 8 C 23.335938 8.367188 23.035156 8.664062 22.664062 8.664062 L 19.335938 8.664062 C 18.964844 8.664062 18.664062 8.367188 18.664062 8 C 18.664062 7.632812 18.964844 7.335938 19.335938 7.335938 Z M 19.335938 7.335938 "/></g></svg>
