<svg width="64" height="64" viewBox="0 0 64 64" version="1.1"><defs><linearGradient id="linear-pattern-0" gradientUnits="userSpaceOnUse" x1="0" y1="0" x2="0" y2="1" gradientTransform="matrix(60, 0, 0, 56, 0, 4)"><stop offset="0" stop-color="#c10000" stop-opacity="1"/><stop offset="1" stop-color="#5f0000" stop-opacity="1"/></linearGradient></defs><path fill="url(#linear-pattern-0)" fill-opacity="1" d="M 36.21875 2.050781 L 62.027344 27.605469 C 64.402344 29.957031 64.417969 33.785156 62.058594 36.15625 L 36.460938 61.917969 C 34.105469 64.289062 30.269531 64.304688 27.894531 61.949219 L 2.085938 36.394531 C -0.289062 34.042969 -0.304688 30.214844 2.050781 27.84375 L 27.652344 2.082031 C 30.007812 -0.289062 33.84375 -0.304688 36.21875 2.050781 Z M 36.21875 2.050781 " /><g transform="matrix(1.0075098,0,0,1.0032698,16.221436,16.077397)"><path fill-rule="nonzero" fill="rgb(100%, 100%, 100%)" fill-opacity="1" d="M 1.398438 11.335938 C 1.335938 11.554688 1.273438 11.777344 1.21875 12 L 30.796875 12 C 30.734375 11.773438 30.664062 11.554688 30.585938 11.335938 C 29.335938 10 2.664062 10 1.398438 11.335938 Z M 1.398438 11.335938 "/><path fill-rule="nonzero" fill="rgb(100%, 100%, 100%)" fill-opacity="1" d="M 16.296875 19.640625 C 16.71875 19.640625 17.109375 19.695312 17.472656 19.8125 C 17.839844 19.921875 18.15625 20.09375 18.429688 20.3125 C 18.699219 20.539062 18.914062 20.816406 19.070312 21.148438 C 19.21875 21.476562 19.296875 21.859375 19.296875 22.296875 C 19.296875 22.765625 19.226562 23.195312 19.078125 23.570312 C 18.9375 23.945312 18.71875 24.265625 18.433594 24.523438 C 18.148438 24.789062 17.792969 24.988281 17.371094 25.128906 C 16.953125 25.265625 16.46875 25.335938 15.921875 25.335938 C 15.703125 25.335938 15.492188 25.320312 15.277344 25.304688 C 15.070312 25.28125 14.867188 25.25 14.667969 25.210938 C 14.476562 25.171875 14.292969 25.125 14.117188 25.0625 C 13.945312 25 13.785156 24.925781 13.644531 24.84375 L 13.644531 23.773438 C 13.785156 23.871094 13.949219 23.953125 14.136719 24.03125 C 14.328125 24.101562 14.53125 24.164062 14.738281 24.21875 C 14.945312 24.265625 15.15625 24.304688 15.367188 24.335938 C 15.578125 24.359375 15.773438 24.371094 15.953125 24.371094 C 16.292969 24.371094 16.59375 24.335938 16.859375 24.257812 C 17.125 24.179688 17.347656 24.0625 17.53125 23.898438 C 17.714844 23.738281 17.855469 23.535156 17.953125 23.289062 C 18.050781 23.046875 18.101562 22.757812 18.101562 22.421875 C 18.101562 21.828125 17.914062 21.378906 17.539062 21.070312 C 17.164062 20.753906 16.617188 20.59375 15.898438 20.59375 C 15.78125 20.59375 15.65625 20.601562 15.519531 20.617188 C 15.390625 20.625 15.253906 20.632812 15.117188 20.652344 C 14.984375 20.667969 14.855469 20.6875 14.734375 20.707031 C 14.613281 20.726562 14.507812 20.742188 14.417969 20.757812 L 13.84375 20.40625 L 14.195312 16.132812 L 18.613281 16.132812 L 18.613281 17.164062 L 15.207031 17.164062 L 14.960938 19.765625 C 15.09375 19.738281 15.273438 19.710938 15.496094 19.683594 C 15.722656 19.65625 15.988281 19.640625 16.296875 19.640625 Z M 16.296875 19.640625 "/><path fill-rule="nonzero" fill="rgb(100%, 100%, 100%)" fill-opacity="1" d="M 10.664062 8 C 10.664062 8.734375 10.070312 9.335938 9.335938 9.335938 C 8.597656 9.335938 8 8.734375 8 8 C 8 7.265625 8.597656 6.664062 9.335938 6.664062 C 10.070312 6.664062 10.664062 7.265625 10.664062 8 Z M 10.664062 8 "/><path fill-rule="nonzero" fill="rgb(100%, 100%, 100%)" fill-opacity="1" d="M 14 8 C 14 8.734375 13.402344 9.335938 12.664062 9.335938 C 11.929688 9.335938 11.335938 8.734375 11.335938 8 C 11.335938 7.265625 11.929688 6.664062 12.664062 6.664062 C 13.402344 6.664062 14 7.265625 14 8 Z M 14 8 "/><path fill-rule="nonzero" fill="rgb(100%, 100%, 100%)" fill-opacity="1" d="M 9.335938 7.335938 L 12.664062 7.335938 C 13.035156 7.335938 13.335938 7.632812 13.335938 8 C 13.335938 8.367188 13.035156 8.664062 12.664062 8.664062 L 9.335938 8.664062 C 8.964844 8.664062 8.664062 8.367188 8.664062 8 C 8.664062 7.632812 8.964844 7.335938 9.335938 7.335938 Z M 9.335938 7.335938 "/><path fill-rule="nonzero" fill="rgb(100%, 100%, 100%)" fill-opacity="1" d="M 20.664062 8 C 20.664062 8.734375 20.070312 9.335938 19.335938 9.335938 C 18.597656 9.335938 18 8.734375 18 8 C 18 7.265625 18.597656 6.664062 19.335938 6.664062 C 20.070312 6.664062 20.664062 7.265625 20.664062 8 Z M 20.664062 8 "/><path fill-rule="nonzero" fill="rgb(100%, 100%, 100%)" fill-opacity="1" d="M 24 8 C 24 8.734375 23.402344 9.335938 22.664062 9.335938 C 21.929688 9.335938 21.335938 8.734375 21.335938 8 C 21.335938 7.265625 21.929688 6.664062 22.664062 6.664062 C 23.402344 6.664062 24 7.265625 24 8 Z M 24 8 "/><path fill-rule="nonzero" fill="rgb(100%, 100%, 100%)" fill-opacity="1" d="M 19.335938 7.335938 L 22.664062 7.335938 C 23.035156 7.335938 23.335938 7.632812 23.335938 8 C 23.335938 8.367188 23.035156 8.664062 22.664062 8.664062 L 19.335938 8.664062 C 18.964844 8.664062 18.664062 8.367188 18.664062 8 C 18.664062 7.632812 18.964844 7.335938 19.335938 7.335938 Z M 19.335938 7.335938 "/></g></svg>
