<svg width="64" height="64" viewBox="0 0 64 64" version="1.1"><defs><linearGradient id="linear-pattern-0" gradientUnits="userSpaceOnUse" x1="0" y1="0" x2="0" y2="1" gradientTransform="matrix(60, 0, 0, 56, 0, 4)"><stop offset="0" stop-color="#00a07f" stop-opacity="1"/><stop offset="1" stop-color="#005241" stop-opacity="1"/></linearGradient></defs><path fill="url(#linear-pattern-0)" fill-opacity="1" d="M 36.21875 2.050781 L 62.027344 27.605469 C 64.402344 29.957031 64.417969 33.785156 62.058594 36.15625 L 36.460938 61.917969 C 34.105469 64.289062 30.269531 64.304688 27.894531 61.949219 L 2.085938 36.394531 C -0.289062 34.042969 -0.304688 30.214844 2.050781 27.84375 L 27.652344 2.082031 C 30.007812 -0.289062 33.84375 -0.304688 36.21875 2.050781 Z M 36.21875 2.050781 " /><g transform="matrix(1.0075098,0,0,1.0032698,16.221436,16.077397)"><path fill-rule="nonzero" fill="rgb(100%, 100%, 100%)" fill-opacity="1" d="M 1.398438 11.335938 C 1.335938 11.554688 1.273438 11.777344 1.21875 12 L 30.796875 12 C 30.734375 11.773438 30.664062 11.554688 30.585938 11.335938 C 29.335938 10 2.664062 10 1.398438 11.335938 Z M 1.398438 11.335938 "/><path fill-rule="nonzero" fill="rgb(100%, 100%, 100%)" fill-opacity="1" d="M 19.332031 25.335938 L 13.332031 25.335938 L 13.332031 24.351562 L 15.632812 21.953125 C 15.964844 21.613281 16.257812 21.304688 16.515625 21.023438 C 16.773438 20.742188 16.996094 20.46875 17.175781 20.195312 C 17.359375 19.929688 17.5 19.660156 17.59375 19.390625 C 17.695312 19.117188 17.742188 18.824219 17.742188 18.503906 C 17.742188 18.257812 17.703125 18.039062 17.628906 17.851562 C 17.554688 17.664062 17.445312 17.5 17.304688 17.371094 C 17.171875 17.238281 17.007812 17.136719 16.820312 17.070312 C 16.632812 17 16.421875 16.96875 16.1875 16.96875 C 15.773438 16.96875 15.394531 17.050781 15.054688 17.214844 C 14.722656 17.375 14.40625 17.578125 14.101562 17.832031 L 13.429688 17.082031 C 13.609375 16.929688 13.796875 16.789062 13.996094 16.660156 C 14.199219 16.523438 14.414062 16.410156 14.648438 16.3125 C 14.882812 16.21875 15.125 16.140625 15.382812 16.085938 C 15.640625 16.03125 15.914062 16 16.203125 16 C 16.621094 16 17 16.054688 17.335938 16.171875 C 17.679688 16.28125 17.96875 16.445312 18.207031 16.660156 C 18.445312 16.871094 18.625 17.128906 18.75 17.433594 C 18.882812 17.734375 18.949219 18.078125 18.949219 18.460938 C 18.949219 18.816406 18.890625 19.15625 18.773438 19.476562 C 18.65625 19.804688 18.5 20.121094 18.292969 20.4375 C 18.089844 20.746094 17.847656 21.058594 17.5625 21.375 C 17.28125 21.6875 16.976562 22.015625 16.648438 22.355469 L 14.796875 24.234375 L 14.796875 24.289062 L 19.332031 24.289062 Z M 19.332031 25.335938 "/><path fill-rule="nonzero" fill="rgb(100%, 100%, 100%)" fill-opacity="1" d="M 10.664062 8 C 10.664062 8.734375 10.070312 9.335938 9.335938 9.335938 C 8.597656 9.335938 8 8.734375 8 8 C 8 7.265625 8.597656 6.664062 9.335938 6.664062 C 10.070312 6.664062 10.664062 7.265625 10.664062 8 Z M 10.664062 8 "/><path fill-rule="nonzero" fill="rgb(100%, 100%, 100%)" fill-opacity="1" d="M 14 8 C 14 8.734375 13.402344 9.335938 12.664062 9.335938 C 11.929688 9.335938 11.335938 8.734375 11.335938 8 C 11.335938 7.265625 11.929688 6.664062 12.664062 6.664062 C 13.402344 6.664062 14 7.265625 14 8 Z M 14 8 "/><path fill-rule="nonzero" fill="rgb(100%, 100%, 100%)" fill-opacity="1" d="M 9.335938 7.335938 L 12.664062 7.335938 C 13.035156 7.335938 13.335938 7.632812 13.335938 8 C 13.335938 8.367188 13.035156 8.664062 12.664062 8.664062 L 9.335938 8.664062 C 8.964844 8.664062 8.664062 8.367188 8.664062 8 C 8.664062 7.632812 8.964844 7.335938 9.335938 7.335938 Z M 9.335938 7.335938 "/><path fill-rule="nonzero" fill="rgb(100%, 100%, 100%)" fill-opacity="1" d="M 20.664062 8 C 20.664062 8.734375 20.070312 9.335938 19.335938 9.335938 C 18.597656 9.335938 18 8.734375 18 8 C 18 7.265625 18.597656 6.664062 19.335938 6.664062 C 20.070312 6.664062 20.664062 7.265625 20.664062 8 Z M 20.664062 8 "/><path fill-rule="nonzero" fill="rgb(100%, 100%, 100%)" fill-opacity="1" d="M 24 8 C 24 8.734375 23.402344 9.335938 22.664062 9.335938 C 21.929688 9.335938 21.335938 8.734375 21.335938 8 C 21.335938 7.265625 21.929688 6.664062 22.664062 6.664062 C 23.402344 6.664062 24 7.265625 24 8 Z M 24 8 "/><path fill-rule="nonzero" fill="rgb(100%, 100%, 100%)" fill-opacity="1" d="M 19.335938 7.335938 L 22.664062 7.335938 C 23.035156 7.335938 23.335938 7.632812 23.335938 8 C 23.335938 8.367188 23.035156 8.664062 22.664062 8.664062 L 19.335938 8.664062 C 18.964844 8.664062 18.664062 8.367188 18.664062 8 C 18.664062 7.632812 18.964844 7.335938 19.335938 7.335938 Z M 19.335938 7.335938 "/></g></svg>
