<svg width="64" height="64" viewBox="0 0 64 64" version="1.1"><defs><linearGradient id="linear-pattern-0" gradientUnits="userSpaceOnUse" x1="0" y1="0" x2="0" y2="1" gradientTransform="matrix(60, 0, 0, 56, 0, 4)"><stop offset="0" stop-color="#c10000" stop-opacity="1"/><stop offset="1" stop-color="#5f0000" stop-opacity="1"/></linearGradient></defs><path fill="url(#linear-pattern-0)" fill-opacity="1" d="M 36.21875 2.050781 L 62.027344 27.605469 C 64.402344 29.957031 64.417969 33.785156 62.058594 36.15625 L 36.460938 61.917969 C 34.105469 64.289062 30.269531 64.304688 27.894531 61.949219 L 2.085938 36.394531 C -0.289062 34.042969 -0.304688 30.214844 2.050781 27.84375 L 27.652344 2.082031 C 30.007812 -0.289062 33.84375 -0.304688 36.21875 2.050781 Z M 36.21875 2.050781 " /><g transform="matrix(1.0075098,0,0,1.0032698,16.221436,16.077397)"><path fill-rule="nonzero" fill="rgb(100%, 100%, 100%)" fill-opacity="1" d="M 1.398438 11.335938 C 1.335938 11.554688 1.273438 11.777344 1.21875 12 L 30.796875 12 C 30.734375 11.773438 30.664062 11.554688 30.585938 11.335938 C 29.335938 10 2.664062 10 1.398438 11.335938 Z M 1.398438 11.335938 "/><path fill-rule="nonzero" fill="rgb(100%, 100%, 100%)" fill-opacity="1" d="M 15.347656 18.253906 C 15.347656 18.554688 15.296875 18.832031 15.199219 19.078125 C 15.101562 19.328125 14.960938 19.542969 14.78125 19.726562 C 14.609375 19.90625 14.398438 20.058594 14.148438 20.179688 C 13.902344 20.296875 13.625 20.375 13.324219 20.429688 L 13.324219 20.464844 C 14.078125 20.554688 14.65625 20.789062 15.046875 21.164062 C 15.4375 21.539062 15.632812 22.023438 15.632812 22.625 C 15.632812 23.023438 15.5625 23.390625 15.421875 23.71875 C 15.289062 24.050781 15.078125 24.335938 14.796875 24.578125 C 14.515625 24.816406 14.15625 25 13.726562 25.132812 C 13.296875 25.265625 12.785156 25.335938 12.195312 25.335938 C 11.730469 25.335938 11.289062 25.296875 10.875 25.226562 C 10.46875 25.15625 10.078125 25.03125 9.71875 24.84375 L 9.71875 23.789062 C 10.085938 23.976562 10.492188 24.125 10.921875 24.226562 C 11.359375 24.332031 11.773438 24.382812 12.171875 24.382812 C 12.5625 24.382812 12.902344 24.34375 13.1875 24.257812 C 13.476562 24.175781 13.710938 24.058594 13.890625 23.90625 C 14.078125 23.75 14.21875 23.5625 14.304688 23.339844 C 14.390625 23.117188 14.4375 22.867188 14.4375 22.585938 C 14.4375 22.304688 14.378906 22.066406 14.265625 21.867188 C 14.152344 21.664062 13.992188 21.5 13.78125 21.371094 C 13.574219 21.238281 13.320312 21.140625 13.015625 21.078125 C 12.71875 21.015625 12.375 20.984375 12 20.984375 L 11.148438 20.984375 L 11.148438 20.046875 L 12 20.046875 C 12.34375 20.046875 12.648438 20.007812 12.921875 19.921875 C 13.1875 19.84375 13.414062 19.726562 13.59375 19.570312 C 13.773438 19.417969 13.914062 19.234375 14.007812 19.023438 C 14.101562 18.8125 14.148438 18.582031 14.148438 18.328125 C 14.148438 18.113281 14.109375 17.921875 14.03125 17.75 C 13.957031 17.582031 13.847656 17.4375 13.707031 17.320312 C 13.566406 17.203125 13.398438 17.109375 13.203125 17.046875 C 13.007812 16.988281 12.789062 16.957031 12.546875 16.957031 C 12.09375 16.957031 11.6875 17.027344 11.335938 17.167969 C 10.992188 17.304688 10.664062 17.484375 10.34375 17.710938 L 9.757812 16.929688 C 9.917969 16.804688 10.097656 16.683594 10.296875 16.570312 C 10.496094 16.460938 10.710938 16.363281 10.945312 16.28125 C 11.183594 16.195312 11.429688 16.125 11.695312 16.074219 C 11.96875 16.023438 12.25 16 12.546875 16 C 13.007812 16 13.414062 16.054688 13.757812 16.167969 C 14.109375 16.28125 14.402344 16.4375 14.636719 16.640625 C 14.871094 16.835938 15.046875 17.078125 15.167969 17.351562 C 15.289062 17.625 15.347656 17.929688 15.347656 18.253906 Z M 15.347656 18.253906 "/><path fill-rule="nonzero" fill="rgb(100%, 100%, 100%)" fill-opacity="1" d="M 20.96875 25.210938 L 19.84375 25.210938 L 19.84375 19.539062 C 19.84375 19.359375 19.84375 19.171875 19.84375 18.96875 C 19.84375 18.765625 19.851562 18.5625 19.855469 18.367188 C 19.863281 18.164062 19.871094 17.96875 19.875 17.789062 C 19.882812 17.601562 19.890625 17.4375 19.890625 17.296875 C 19.820312 17.371094 19.757812 17.4375 19.703125 17.492188 C 19.648438 17.542969 19.585938 17.59375 19.53125 17.644531 C 19.472656 17.695312 19.414062 17.75 19.351562 17.804688 C 19.285156 17.859375 19.207031 17.921875 19.117188 18 L 18.171875 18.75 L 17.554688 17.984375 L 20.007812 16.132812 L 20.96875 16.132812 Z M 20.96875 25.210938 "/><path fill-rule="nonzero" fill="rgb(100%, 100%, 100%)" fill-opacity="1" d="M 10.664062 8 C 10.664062 8.734375 10.070312 9.335938 9.335938 9.335938 C 8.597656 9.335938 8 8.734375 8 8 C 8 7.265625 8.597656 6.664062 9.335938 6.664062 C 10.070312 6.664062 10.664062 7.265625 10.664062 8 Z M 10.664062 8 "/><path fill-rule="nonzero" fill="rgb(100%, 100%, 100%)" fill-opacity="1" d="M 14 8 C 14 8.734375 13.402344 9.335938 12.664062 9.335938 C 11.929688 9.335938 11.335938 8.734375 11.335938 8 C 11.335938 7.265625 11.929688 6.664062 12.664062 6.664062 C 13.402344 6.664062 14 7.265625 14 8 Z M 14 8 "/><path fill-rule="nonzero" fill="rgb(100%, 100%, 100%)" fill-opacity="1" d="M 9.335938 7.335938 L 12.664062 7.335938 C 13.035156 7.335938 13.335938 7.632812 13.335938 8 C 13.335938 8.367188 13.035156 8.664062 12.664062 8.664062 L 9.335938 8.664062 C 8.964844 8.664062 8.664062 8.367188 8.664062 8 C 8.664062 7.632812 8.964844 7.335938 9.335938 7.335938 Z M 9.335938 7.335938 "/><path fill-rule="nonzero" fill="rgb(100%, 100%, 100%)" fill-opacity="1" d="M 20.664062 8 C 20.664062 8.734375 20.070312 9.335938 19.335938 9.335938 C 18.597656 9.335938 18 8.734375 18 8 C 18 7.265625 18.597656 6.664062 19.335938 6.664062 C 20.070312 6.664062 20.664062 7.265625 20.664062 8 Z M 20.664062 8 "/><path fill-rule="nonzero" fill="rgb(100%, 100%, 100%)" fill-opacity="1" d="M 24 8 C 24 8.734375 23.402344 9.335938 22.664062 9.335938 C 21.929688 9.335938 21.335938 8.734375 21.335938 8 C 21.335938 7.265625 21.929688 6.664062 22.664062 6.664062 C 23.402344 6.664062 24 7.265625 24 8 Z M 24 8 "/><path fill-rule="nonzero" fill="rgb(100%, 100%, 100%)" fill-opacity="1" d="M 19.335938 7.335938 L 22.664062 7.335938 C 23.035156 7.335938 23.335938 7.632812 23.335938 8 C 23.335938 8.367188 23.035156 8.664062 22.664062 8.664062 L 19.335938 8.664062 C 18.964844 8.664062 18.664062 8.367188 18.664062 8 C 18.664062 7.632812 18.964844 7.335938 19.335938 7.335938 Z M 19.335938 7.335938 "/></g></svg>
