<svg width="64" height="64" viewBox="0 0 64 64" version="1.1"><defs><linearGradient id="linear-pattern-0" gradientUnits="userSpaceOnUse" x1="0" y1="0" x2="0" y2="1" gradientTransform="matrix(60, 0, 0, 56, 0, 4)"><stop offset="0" stop-color="#008a97" stop-opacity="1"/><stop offset="1" stop-color="#00545c" stop-opacity="1"/></linearGradient></defs><path fill="url(#linear-pattern-0)" fill-opacity="1" d="M 36.21875 2.050781 L 62.027344 27.605469 C 64.402344 29.957031 64.417969 33.785156 62.058594 36.15625 L 36.460938 61.917969 C 34.105469 64.289062 30.269531 64.304688 27.894531 61.949219 L 2.085938 36.394531 C -0.289062 34.042969 -0.304688 30.214844 2.050781 27.84375 L 27.652344 2.082031 C 30.007812 -0.289062 33.84375 -0.304688 36.21875 2.050781 Z M 36.21875 2.050781 " /><g transform="matrix(1.0075098,0,0,1.0032698,16.221436,16.077397)"><path fill-rule="nonzero" fill="rgb(100%, 100%, 100%)" fill-opacity="1" d="M 14.65625 31.53125 L 14.65625 8.609375 L 10.601562 8.609375 L 10.601562 31.53125 M 9.589844 7.335938 L 0.46875 0.96875 L 0.46875 22.617188 L 9.589844 30.257812 M 24.785156 22.617188 L 24.785156 0.96875 L 15.667969 7.335938 L 15.667969 30.257812 M 22.757812 0.96875 C 18.703125 0.96875 16.679688 1.632812 12.632812 6.0625 C 8.578125 1.738281 6.546875 0.96875 2.5 0.96875 L 10.601562 7.335938 L 14.65625 7.335938 "/><path fill-rule="nonzero" fill="rgb(100%, 100%, 100%)" fill-opacity="1" d="M 27.828125 25.445312 L 27.679688 17.710938 C 26.6875 17.195312 25.976562 16.007812 25.949219 14.578125 C 25.921875 13.152344 26.585938 11.886719 27.550781 11.320312 L 27.609375 14.273438 C 27.632812 15.742188 29.859375 15.671875 29.832031 14.210938 L 29.769531 11.246094 C 30.085938 11.414062 30.367188 11.640625 30.609375 11.921875 C 31.148438 12.550781 31.492188 13.40625 31.515625 14.390625 C 31.539062 15.820312 30.867188 17.078125 29.902344 17.644531 L 30.054688 25.382812 C 29.871094 26.867188 28.03125 26.863281 27.835938 25.445312 "/></g></svg>
