<svg width="64" height="64" viewBox="0 0 64 64" version="1.1"><defs><linearGradient id="linear-pattern-0" gradientUnits="userSpaceOnUse" x1="0" y1="0" x2="0" y2="1" gradientTransform="matrix(60, 0, 0, 56, 0, 4)"><stop offset="0" stop-color="#008a97" stop-opacity="1"/><stop offset="1" stop-color="#00545c" stop-opacity="1"/></linearGradient></defs><path fill="url(#linear-pattern-0)" fill-opacity="1" d="M 36.21875 2.050781 L 62.027344 27.605469 C 64.402344 29.957031 64.417969 33.785156 62.058594 36.15625 L 36.460938 61.917969 C 34.105469 64.289062 30.269531 64.304688 27.894531 61.949219 L 2.085938 36.394531 C -0.289062 34.042969 -0.304688 30.214844 2.050781 27.84375 L 27.652344 2.082031 C 30.007812 -0.289062 33.84375 -0.304688 36.21875 2.050781 Z M 36.21875 2.050781 " /><g transform="matrix(1.0075098,0,0,1.0032698,16.221436,16.077397)"><path fill-rule="nonzero" fill="rgb(100%, 100%, 100%)" fill-opacity="1" d="M 30.929688 2.117188 L 25.941406 1.140625 C 26.757812 2.070312 27.289062 3.070312 27.675781 4.414062 C 28.304688 6.527344 28.277344 9.1875 27.65625 12.132812 C 26.851562 15.75 25.285156 19.382812 21.492188 26.203125 C 20.980469 23.984375 20.640625 22.492188 20.484375 21.960938 L 18.765625 15.167969 C 18.179688 12.859375 17.484375 10.007812 16.703125 6.6875 C 16.425781 5.429688 16.152344 4.1875 15.828125 2.9375 L 13.382812 4.0625 C 12.28125 7.828125 7.617188 20.292969 5.476562 25.222656 C 4.851562 21.320312 3.59375 10.722656 3.039062 4.9375 C 3.945312 4.59375 4.421875 4.25 5.078125 3.375 C 3.34375 3.40625 2.167969 3.429688 0.980469 3.453125 L 2.664062 31.429688 L 5.390625 30.484375 C 9.421875 20.234375 10.515625 17.4375 13.496094 9.171875 C 15.101562 14.949219 18.128906 26.984375 18.988281 31.371094 L 21.757812 30.347656 C 22.648438 27.832031 22.96875 27.003906 24.914062 23.179688 C 30.515625 12.261719 32.125 6.757812 30.929688 2.117188 Z M 30.929688 2.117188 "/></g></svg>
