<svg width="64" height="64" viewBox="0 0 64 64" version="1.1"><defs><linearGradient id="linear-pattern-0" gradientUnits="userSpaceOnUse" x1="0" y1="0" x2="0" y2="1" gradientTransform="matrix(60, 0, 0, 56, 0, 4)"><stop offset="0" stop-color="#d00068" stop-opacity="1"/><stop offset="1" stop-color="#6e0037" stop-opacity="1"/></linearGradient></defs><path fill="url(#linear-pattern-0)" fill-opacity="1" d="M 36.21875 2.050781 L 62.027344 27.605469 C 64.402344 29.957031 64.417969 33.785156 62.058594 36.15625 L 36.460938 61.917969 C 34.105469 64.289062 30.269531 64.304688 27.894531 61.949219 L 2.085938 36.394531 C -0.289062 34.042969 -0.304688 30.214844 2.050781 27.84375 L 27.652344 2.082031 C 30.007812 -0.289062 33.84375 -0.304688 36.21875 2.050781 Z M 36.21875 2.050781 " /><g transform="matrix(1.0075098,0,0,1.0032698,16.221436,16.077397)"><path fill-rule="nonzero" fill="rgb(100%, 100%, 100%)" fill-opacity="1" d="M 0.664062 2.917969 L 1.84375 7.886719 L 1.84375 5.414062 L 19.53125 5.773438 L 19.53125 8.242188 L 20.710938 3.324219 Z M 8.917969 11.734375 L 10.101562 16.703125 L 10.101562 14.230469 L 27.789062 14.585938 L 27.789062 17.058594 L 28.964844 12.140625 Z M 10.101562 17.9375 C 9.445312 17.925781 8.917969 18.445312 8.917969 19.101562 L 8.917969 19.199219 C 8.917969 19.855469 9.445312 20.398438 10.101562 20.410156 L 18.351562 20.578125 C 19.007812 20.589844 19.53125 20.070312 19.53125 19.414062 L 19.53125 19.316406 C 19.53125 18.65625 19.007812 18.117188 18.351562 18.105469 Z M 27.789062 18.292969 C 27.132812 18.28125 26.605469 18.679688 26.605469 19.195312 L 26.605469 19.816406 C 26.605469 20.328125 27.132812 20.75 27.789062 20.765625 L 30.148438 20.8125 C 30.796875 20.828125 31.320312 20.421875 31.320312 19.914062 L 31.320312 19.292969 C 31.320312 18.78125 30.796875 18.355469 30.148438 18.34375 Z M 0.664062 25.160156 L 1.847656 30.128906 L 1.847656 27.65625 L 19.53125 28.015625 L 19.53125 30.484375 L 20.710938 25.570312 Z M 27.789062 25.710938 L 25.429688 28.132812 L 27.789062 30.648438 L 30.148438 28.226562 Z M 27.789062 25.710938 "/></g></svg>
