<svg width="64" height="64" viewBox="0 0 64 64" version="1.1"><defs><linearGradient id="linear-pattern-0" gradientUnits="userSpaceOnUse" x1="0" y1="0" x2="0" y2="1" gradientTransform="matrix(60, 0, 0, 56, 0, 4)"><stop offset="0" stop-color="#8900e4" stop-opacity="1"/><stop offset="1" stop-color="#42006e" stop-opacity="1"/></linearGradient></defs><path fill="url(#linear-pattern-0)" fill-opacity="1" d="M 36.21875 2.050781 L 62.027344 27.605469 C 64.402344 29.957031 64.417969 33.785156 62.058594 36.15625 L 36.460938 61.917969 C 34.105469 64.289062 30.269531 64.304688 27.894531 61.949219 L 2.085938 36.394531 C -0.289062 34.042969 -0.304688 30.214844 2.050781 27.84375 L 27.652344 2.082031 C 30.007812 -0.289062 33.84375 -0.304688 36.21875 2.050781 Z M 36.21875 2.050781 " /><g transform="matrix(1.0075098,0,0,1.0032698,16.221436,16.077397)"><path fill-rule="nonzero" fill="rgb(68.235294%, 70.196078%, 76.078431%)" fill-opacity="1" d="M 15.917969 6.054688 L 11.46875 16.007812 L 15.917969 25.953125 L 23.707031 25.953125 C 28.023438 25.953125 31.492188 21.519531 31.492188 16.007812 C 31.492188 10.492188 28.023438 6.054688 23.707031 6.054688 Z M 15.917969 6.054688 "/><path fill-rule="nonzero" fill="rgb(38.431373%, 39.607843%, 43.921569%)" fill-opacity="1" d="M 8.070312 6.421875 C 3.75 6.421875 0.28125 10.851562 0.28125 16.367188 C 0.28125 21.882812 3.75 26.3125 8.070312 26.3125 L 15.855469 26.3125 L 15.855469 6.421875 Z M 8.070312 6.421875 "/></g></svg>
