<svg width="64" height="64" viewBox="0 0 64 64" version="1.1"><defs><linearGradient id="linear-pattern-0" gradientUnits="userSpaceOnUse" x1="0" y1="0" x2="0" y2="1" gradientTransform="matrix(60, 0, 0, 56, 0, 4)"><stop offset="0" stop-color="#00983a" stop-opacity="1"/><stop offset="1" stop-color="#004a1c" stop-opacity="1"/></linearGradient></defs><path fill="url(#linear-pattern-0)" fill-opacity="1" d="M 36.21875 2.050781 L 62.027344 27.605469 C 64.402344 29.957031 64.417969 33.785156 62.058594 36.15625 L 36.460938 61.917969 C 34.105469 64.289062 30.269531 64.304688 27.894531 61.949219 L 2.085938 36.394531 C -0.289062 34.042969 -0.304688 30.214844 2.050781 27.84375 L 27.652344 2.082031 C 30.007812 -0.289062 33.84375 -0.304688 36.21875 2.050781 Z M 36.21875 2.050781 " /><g transform="matrix(1.0075098,0,0,1.0032698,16.221436,16.077397)"><path fill="none" stroke-width="20.315001" stroke-linecap="butt" stroke-linejoin="miter" stroke="rgb(100%, 100%, 100%)" stroke-opacity="1" stroke-miterlimit="4" d="M 190.558215 182.556596 C 223.416091 182.556596 280.036238 284.102891 312.467757 284.102891 " transform="matrix(0.137429, 0, 0, 0.142215, -18.590569, -21.474005)"/><path fill-rule="nonzero" fill="rgb(100%, 100%, 100%)" fill-opacity="1" d="M 2.75 0.875 L 5.46875 0.875 C 6.644531 0.875 7.597656 1.867188 7.597656 3.085938 L 7.597656 5.894531 C 7.597656 7.109375 6.644531 8.101562 5.46875 8.101562 L 2.75 8.101562 C 1.570312 8.101562 0.621094 7.109375 0.621094 5.894531 L 0.621094 3.085938 C 0.621094 1.867188 1.570312 0.875 2.75 0.875 Z M 2.75 0.875 "/><path fill-rule="nonzero" fill="rgb(100%, 100%, 100%)" fill-opacity="1" d="M 2.75 10.992188 L 5.46875 10.992188 C 6.644531 10.992188 7.597656 11.976562 7.597656 13.195312 L 7.597656 16.003906 C 7.597656 17.226562 6.644531 18.210938 5.46875 18.210938 L 2.75 18.210938 C 1.570312 18.210938 0.621094 17.226562 0.621094 16.003906 L 0.621094 13.195312 C 0.621094 11.976562 1.570312 10.992188 2.75 10.992188 Z M 2.75 10.992188 "/><path fill-rule="nonzero" fill="rgb(100%, 100%, 100%)" fill-opacity="1" d="M 26.480469 15.324219 L 29.195312 15.324219 C 30.375 15.324219 31.328125 16.3125 31.328125 17.53125 L 31.328125 20.335938 C 31.328125 21.558594 30.375 22.546875 29.195312 22.546875 L 26.480469 22.546875 C 25.304688 22.546875 24.351562 21.558594 24.351562 20.335938 L 24.351562 17.53125 C 24.351562 16.3125 25.304688 15.324219 26.480469 15.324219 Z M 26.480469 15.324219 "/><path fill-rule="nonzero" fill="rgb(100%, 100%, 100%)" fill-opacity="1" d="M 26.480469 24.445312 L 29.195312 24.445312 C 30.375 24.445312 31.328125 25.429688 31.328125 26.648438 L 31.328125 29.457031 C 31.328125 30.671875 30.375 31.664062 29.195312 31.664062 L 26.480469 31.664062 C 25.304688 31.664062 24.351562 30.671875 24.351562 29.457031 L 24.351562 26.648438 C 24.351562 25.429688 25.304688 24.445312 26.480469 24.445312 Z M 26.480469 24.445312 "/><path fill="none" stroke-width="20.315001" stroke-linecap="butt" stroke-linejoin="miter" stroke="rgb(100%, 100%, 100%)" stroke-opacity="1" stroke-miterlimit="4" d="M 190.558215 253.641749 C 223.416091 253.641749 280.036238 355.215512 312.467757 355.215512 " transform="matrix(0.137429, 0, 0, 0.142215, -18.590569, -21.474005)"/></g></svg>
