<svg width="64" height="64" viewBox="0 0 64 64" version="1.1"><defs><linearGradient id="linear-pattern-0" gradientUnits="userSpaceOnUse" x1="0" y1="0" x2="0" y2="1" gradientTransform="matrix(60, 0, 0, 56, 0, 4)"><stop offset="0" stop-color="#6926fc" stop-opacity="1"/><stop offset="1" stop-color="#3702ab" stop-opacity="1"/></linearGradient></defs><path fill="url(#linear-pattern-0)" fill-opacity="1" d="M 36.21875 2.050781 L 62.027344 27.605469 C 64.402344 29.957031 64.417969 33.785156 62.058594 36.15625 L 36.460938 61.917969 C 34.105469 64.289062 30.269531 64.304688 27.894531 61.949219 L 2.085938 36.394531 C -0.289062 34.042969 -0.304688 30.214844 2.050781 27.84375 L 27.652344 2.082031 C 30.007812 -0.289062 33.84375 -0.304688 36.21875 2.050781 Z M 36.21875 2.050781 " /><g transform="matrix(1.0075098,0,0,1.0032698,16.221436,16.077397)"><path fill-rule="nonzero" fill="rgb(100%, 100%, 100%)" fill-opacity="1" d="M 9.828125 0.890625 C 8.234375 1.464844 6.761719 2.269531 5.4375 3.25 L 5.4375 29.140625 C 6.761719 30.125 8.234375 30.925781 9.828125 31.496094 L 9.828125 17.164062 C 10.742188 16.703125 11.292969 15.832031 11.292969 14.398438 L 11.292969 12.625 C 11.292969 12.195312 10.75 11.5 9.828125 11.023438 Z M 23.003906 1.496094 L 23.003906 30.867188 C 24.628906 30.101562 26.117188 29.09375 27.398438 27.886719 L 27.398438 17.175781 C 28.3125 16.710938 28.859375 15.839844 28.859375 14.40625 L 28.859375 12.632812 C 28.859375 12.203125 28.316406 11.507812 27.398438 11.03125 L 27.398438 4.460938 C 26.117188 3.257812 24.628906 2.242188 23.003906 1.484375 Z M 11.292969 21.859375 C 11.292969 24.695312 13.855469 26.820312 16.414062 26.820312 C 18.976562 26.820312 21.539062 24.695312 21.539062 21.859375 Z M 11.292969 21.859375 "/><path fill-rule="nonzero" fill="rgb(86.27451%, 86.27451%, 86.27451%)" fill-opacity="1" d="M 7.484375 10.578125 C 4.1875 10.578125 3.359375 12.230469 3.089844 12.707031 L 3.820312 13.414062 C 4.554688 12.351562 5.285156 12 7.484375 12 C 9.679688 12 10.410156 12.707031 11.140625 14.476562 L 11.140625 12.707031 C 11.140625 12 9.679688 10.578125 7.484375 10.578125 Z M 25.050781 10.578125 C 21.757812 10.578125 20.929688 12.230469 20.65625 12.707031 L 21.390625 13.414062 C 22.121094 12.351562 22.851562 12 25.050781 12 C 27.246094 12 27.976562 12.707031 28.710938 14.476562 L 28.710938 12.707031 C 28.710938 12 27.246094 10.578125 25.050781 10.578125 Z M 8.210938 12.707031 C 8.003906 12.707031 7.8125 12.964844 7.679688 13.371094 C 7.75 13.335938 7.828125 13.292969 7.921875 13.292969 C 8.179688 13.292969 8.371094 13.460938 8.371094 13.65625 C 8.371094 13.851562 8.179688 14 7.921875 14 C 7.765625 14 7.632812 13.945312 7.546875 13.859375 C 7.492188 14.152344 7.46875 14.46875 7.46875 14.828125 C 7.46875 16.007812 7.804688 16.964844 8.214844 16.964844 C 8.625 16.964844 8.9375 16.007812 8.9375 14.828125 C 8.9375 13.652344 8.625 12.710938 8.214844 12.710938 Z M 25.78125 12.707031 C 25.570312 12.707031 25.382812 12.964844 25.25 13.371094 C 25.320312 13.335938 25.398438 13.292969 25.488281 13.292969 C 25.742188 13.292969 25.9375 13.460938 25.9375 13.65625 C 25.9375 13.851562 25.742188 14 25.488281 14 C 25.328125 14 25.195312 13.945312 25.113281 13.859375 C 25.0625 14.152344 25.039062 14.46875 25.039062 14.828125 C 25.039062 16.007812 25.375 16.964844 25.78125 16.964844 C 26.191406 16.964844 26.503906 16.007812 26.503906 14.828125 C 26.503906 13.652344 26.191406 12.710938 25.78125 12.710938 Z M 8.070312 14.542969 C 8.207031 14.542969 8.335938 14.625 8.335938 14.726562 C 8.335938 14.828125 8.203125 14.921875 8.070312 14.921875 C 7.929688 14.921875 7.828125 14.828125 7.828125 14.726562 C 7.828125 14.621094 7.929688 14.542969 8.070312 14.542969 Z M 25.632812 14.542969 C 25.773438 14.542969 25.898438 14.625 25.898438 14.726562 C 25.898438 14.828125 25.773438 14.921875 25.632812 14.921875 C 25.496094 14.921875 25.394531 14.828125 25.394531 14.726562 C 25.394531 14.621094 25.5 14.542969 25.632812 14.542969 Z M 8.578125 15.125 C 8.6875 15.125 8.765625 15.1875 8.765625 15.269531 C 8.765625 15.351562 8.6875 15.433594 8.578125 15.433594 C 8.472656 15.433594 8.367188 15.351562 8.367188 15.269531 C 8.367188 15.1875 8.472656 15.125 8.578125 15.125 Z M 26.148438 15.125 C 26.257812 15.125 26.332031 15.1875 26.332031 15.269531 C 26.332031 15.351562 26.257812 15.433594 26.148438 15.433594 C 26.039062 15.433594 25.933594 15.351562 25.933594 15.269531 C 25.933594 15.1875 26.039062 15.125 26.148438 15.125 Z M 11.140625 21.929688 C 11.140625 24.769531 13.703125 26.898438 16.265625 26.898438 C 18.828125 26.898438 21.390625 24.769531 21.390625 21.929688 Z M 11.140625 21.929688 "/></g></svg>
