<svg width="64" height="64" viewBox="0 0 64 64" version="1.1"><defs><linearGradient id="linear-pattern-0" gradientUnits="userSpaceOnUse" x1="0" y1="0" x2="0" y2="1" gradientTransform="matrix(60, 0, 0, 56, 0, 4)"><stop offset="0" stop-color="#a67e50" stop-opacity="1"/><stop offset="1" stop-color="#644c30" stop-opacity="1"/></linearGradient></defs><path fill="url(#linear-pattern-0)" fill-opacity="1" d="M 36.21875 2.050781 L 62.027344 27.605469 C 64.402344 29.957031 64.417969 33.785156 62.058594 36.15625 L 36.460938 61.917969 C 34.105469 64.289062 30.269531 64.304688 27.894531 61.949219 L 2.085938 36.394531 C -0.289062 34.042969 -0.304688 30.214844 2.050781 27.84375 L 27.652344 2.082031 C 30.007812 -0.289062 33.84375 -0.304688 36.21875 2.050781 Z M 36.21875 2.050781 " /><g transform="matrix(1.0075098,0,0,1.0032698,16.221436,16.077397)"><path fill-rule="nonzero" fill="rgb(100%, 100%, 100%)" fill-opacity="1" d="M 3.289062 1.289062 C 2.871094 1.289062 2.53125 1.5625 2.53125 1.910156 C 2.53125 2.257812 2.871094 2.53125 3.289062 2.53125 L 7.855469 2.53125 C 8.277344 2.53125 8.617188 2.257812 8.617188 1.910156 C 8.617188 1.5625 8.277344 1.289062 7.855469 1.289062 Z M 24.585938 1.289062 C 24.171875 1.289062 23.824219 1.5625 23.824219 1.910156 C 23.824219 2.257812 24.171875 2.53125 24.585938 2.53125 L 29.152344 2.53125 C 29.578125 2.53125 29.914062 2.257812 29.914062 1.910156 C 29.914062 1.5625 29.578125 1.289062 29.152344 1.289062 Z M 1.773438 5.015625 C 1.351562 5.015625 1.007812 5.289062 1.007812 5.632812 C 1.007812 5.980469 1.351562 6.257812 1.773438 6.257812 L 9.378906 6.257812 C 9.796875 6.257812 10.136719 5.980469 10.136719 5.632812 C 10.136719 5.289062 9.796875 5.015625 9.378906 5.015625 Z M 23.070312 5.015625 C 22.648438 5.015625 22.304688 5.289062 22.304688 5.632812 C 22.304688 5.980469 22.648438 6.257812 23.070312 6.257812 L 30.671875 6.257812 C 31.09375 6.257812 31.433594 5.980469 31.433594 5.632812 C 31.433594 5.289062 31.09375 5.015625 30.671875 5.015625 Z M 1.773438 7.492188 C 1.351562 7.492188 1.007812 7.773438 1.007812 8.117188 C 1.007812 8.460938 1.351562 8.734375 1.773438 8.734375 L 9.378906 8.734375 C 9.796875 8.734375 10.136719 8.460938 10.136719 8.117188 C 10.136719 7.773438 9.796875 7.492188 9.378906 7.492188 Z M 23.070312 7.492188 C 22.648438 7.492188 22.304688 7.773438 22.304688 8.117188 C 22.304688 8.460938 22.648438 8.734375 23.070312 8.734375 L 30.671875 8.734375 C 31.09375 8.734375 31.433594 8.460938 31.433594 8.117188 C 31.433594 7.773438 31.09375 7.492188 30.671875 7.492188 Z M 1.773438 9.976562 C 1.351562 9.976562 1.007812 10.257812 1.007812 10.597656 C 1.007812 10.945312 1.351562 11.21875 1.773438 11.21875 L 9.378906 11.21875 C 9.796875 11.21875 10.136719 10.945312 10.136719 10.597656 C 10.136719 10.257812 9.796875 9.976562 9.378906 9.976562 Z M 23.070312 9.976562 C 22.648438 9.976562 22.304688 10.257812 22.304688 10.597656 C 22.304688 10.945312 22.648438 11.21875 23.070312 11.21875 L 30.671875 11.21875 C 31.09375 11.21875 31.433594 10.945312 31.433594 10.597656 C 31.433594 10.257812 31.09375 9.976562 30.671875 9.976562 Z M 1.773438 12.457031 C 1.351562 12.457031 1.007812 12.734375 1.007812 13.078125 C 1.007812 13.425781 1.351562 13.703125 1.773438 13.703125 L 9.378906 13.703125 C 9.796875 13.703125 10.136719 13.425781 10.136719 13.078125 C 10.136719 12.734375 9.796875 12.457031 9.378906 12.457031 Z M 23.070312 12.457031 C 22.648438 12.457031 22.304688 12.734375 22.304688 13.078125 C 22.304688 13.425781 22.648438 13.703125 23.070312 13.703125 L 30.671875 13.703125 C 31.09375 13.703125 31.433594 13.425781 31.433594 13.078125 C 31.433594 12.734375 31.09375 12.457031 30.671875 12.457031 Z M 3.289062 18.664062 C 2.871094 18.664062 2.53125 18.941406 2.53125 19.289062 C 2.53125 19.625 2.871094 19.90625 3.289062 19.90625 L 7.855469 19.90625 C 8.277344 19.90625 8.617188 19.625 8.617188 19.289062 C 8.617188 18.941406 8.277344 18.664062 7.855469 18.664062 Z M 24.585938 18.664062 C 24.171875 18.664062 23.824219 18.941406 23.824219 19.289062 C 23.824219 19.625 24.171875 19.90625 24.585938 19.90625 L 29.152344 19.90625 C 29.578125 19.90625 29.914062 19.625 29.914062 19.289062 C 29.914062 18.941406 29.578125 18.664062 29.152344 18.664062 Z M 1.773438 22.390625 C 1.351562 22.390625 1.007812 22.664062 1.007812 23.007812 C 1.007812 23.351562 1.351562 23.628906 1.773438 23.628906 L 9.378906 23.628906 C 9.796875 23.628906 10.136719 23.351562 10.136719 23.007812 C 10.136719 22.664062 9.796875 22.390625 9.378906 22.390625 Z M 23.070312 22.390625 C 22.648438 22.390625 22.304688 22.664062 22.304688 23.007812 C 22.304688 23.351562 22.648438 23.628906 23.070312 23.628906 L 30.671875 23.628906 C 31.09375 23.628906 31.433594 23.351562 31.433594 23.007812 C 31.433594 22.664062 31.09375 22.390625 30.671875 22.390625 Z M 1.773438 24.875 C 1.351562 24.875 1.007812 25.148438 1.007812 25.492188 C 1.007812 25.835938 1.351562 26.109375 1.773438 26.109375 L 9.378906 26.109375 C 9.796875 26.109375 10.136719 25.835938 10.136719 25.492188 C 10.136719 25.148438 9.796875 24.875 9.378906 24.875 Z M 23.070312 24.875 C 22.648438 24.875 22.304688 25.148438 22.304688 25.492188 C 22.304688 25.835938 22.648438 26.109375 23.070312 26.109375 L 30.671875 26.109375 C 31.09375 26.109375 31.433594 25.835938 31.433594 25.492188 C 31.433594 25.148438 31.09375 24.875 30.671875 24.875 Z M 1.773438 27.351562 C 1.351562 27.351562 1.007812 27.628906 1.007812 27.972656 C 1.007812 28.320312 1.351562 28.59375 1.773438 28.59375 L 9.378906 28.59375 C 9.796875 28.59375 10.136719 28.320312 10.136719 27.972656 C 10.136719 27.628906 9.796875 27.351562 9.378906 27.351562 Z M 23.070312 27.351562 C 22.648438 27.351562 22.304688 27.628906 22.304688 27.972656 C 22.304688 28.320312 22.648438 28.59375 23.070312 28.59375 L 30.671875 28.59375 C 31.09375 28.59375 31.433594 28.320312 31.433594 27.972656 C 31.433594 27.628906 31.09375 27.351562 30.671875 27.351562 Z M 1.773438 29.835938 C 1.351562 29.835938 1.007812 30.109375 1.007812 30.457031 C 1.007812 30.796875 1.351562 31.074219 1.773438 31.074219 L 9.378906 31.074219 C 9.796875 31.074219 10.136719 30.796875 10.136719 30.457031 C 10.136719 30.109375 9.796875 29.835938 9.378906 29.835938 Z M 23.070312 29.835938 C 22.648438 29.835938 22.304688 30.109375 22.304688 30.457031 C 22.304688 30.796875 22.648438 31.074219 23.070312 31.074219 L 30.671875 31.074219 C 31.09375 31.074219 31.433594 30.796875 31.433594 30.457031 C 31.433594 30.109375 31.09375 29.835938 30.671875 29.835938 Z M 23.070312 29.835938 "/><path fill-rule="nonzero" fill="rgb(100%, 100%, 100%)" fill-opacity="1" d="M 12.570312 9.945312 C 12.148438 9.945312 11.808594 10.21875 11.808594 10.5625 C 11.808594 10.90625 12.148438 11.179688 12.570312 11.179688 L 20.171875 11.179688 C 20.59375 11.179688 20.9375 10.90625 20.9375 10.5625 C 20.9375 10.21875 20.59375 9.945312 20.171875 9.945312 Z M 11.046875 13.664062 C 10.625 13.664062 10.289062 13.945312 10.289062 14.289062 C 10.289062 14.628906 10.625 14.90625 11.046875 14.90625 L 21.695312 14.90625 C 22.117188 14.90625 22.453125 14.628906 22.453125 14.289062 C 22.453125 13.945312 22.117188 13.664062 21.695312 13.664062 Z M 11.046875 16.148438 C 10.625 16.148438 10.289062 16.425781 10.289062 16.765625 C 10.289062 17.113281 10.625 17.390625 11.046875 17.390625 L 21.695312 17.390625 C 22.117188 17.390625 22.453125 17.113281 22.453125 16.765625 C 22.453125 16.425781 22.117188 16.148438 21.695312 16.148438 Z M 11.046875 18.628906 C 10.625 18.628906 10.289062 18.90625 10.289062 19.25 C 10.289062 19.59375 10.625 19.871094 11.046875 19.871094 L 21.695312 19.871094 C 22.117188 19.871094 22.453125 19.59375 22.453125 19.25 C 22.453125 18.90625 22.117188 18.628906 21.695312 18.628906 Z M 11.046875 21.113281 C 10.625 21.113281 10.289062 21.390625 10.289062 21.734375 C 10.289062 22.078125 10.625 22.351562 11.046875 22.351562 L 21.695312 22.351562 C 22.117188 22.351562 22.453125 22.078125 22.453125 21.734375 C 22.453125 21.390625 22.117188 21.113281 21.695312 21.113281 Z M 11.046875 21.113281 "/></g></svg>
