<svg width="64" height="64" viewBox="0 0 64 64" version="1.1"><defs><linearGradient id="linear-pattern-0" gradientUnits="userSpaceOnUse" x1="0" y1="0" x2="0" y2="1" gradientTransform="matrix(60, 0, 0, 56, 0, 4)"><stop offset="0" stop-color="#6926fc" stop-opacity="1"/><stop offset="1" stop-color="#3702ab" stop-opacity="1"/></linearGradient></defs><path fill="url(#linear-pattern-0)" fill-opacity="1" d="M 36.21875 2.050781 L 62.027344 27.605469 C 64.402344 29.957031 64.417969 33.785156 62.058594 36.15625 L 36.460938 61.917969 C 34.105469 64.289062 30.269531 64.304688 27.894531 61.949219 L 2.085938 36.394531 C -0.289062 34.042969 -0.304688 30.214844 2.050781 27.84375 L 27.652344 2.082031 C 30.007812 -0.289062 33.84375 -0.304688 36.21875 2.050781 Z M 36.21875 2.050781 " /><g transform="matrix(1.0075098,0,0,1.0032698,16.221436,16.077397)"><path fill-rule="evenodd" fill="rgb(100%, 100%, 100%)" fill-opacity="1" d="M 1.820312 0 L 12.726562 0 C 13.730469 0 14.546875 0.8125 14.546875 1.820312 L 14.546875 6.910156 C 14.546875 7.914062 13.730469 8.726562 12.726562 8.726562 L 1.820312 8.726562 C 0.8125 8.726562 0 7.914062 0 6.910156 L 0 1.820312 C 0 0.8125 0.8125 0 1.820312 0 Z M 19.273438 0 L 30.179688 0 C 31.1875 0 32 0.8125 32 1.820312 L 32 6.910156 C 32 7.914062 31.1875 8.726562 30.179688 8.726562 L 19.273438 8.726562 C 18.269531 8.726562 17.453125 7.914062 17.453125 6.910156 L 17.453125 1.820312 C 17.453125 0.8125 18.269531 0 19.273438 0 Z M 10.546875 11.636719 L 21.453125 11.636719 C 22.457031 11.636719 23.273438 12.453125 23.273438 13.453125 L 23.273438 18.546875 C 23.273438 19.546875 22.457031 20.363281 21.453125 20.363281 L 10.546875 20.363281 C 9.542969 20.363281 8.726562 19.546875 8.726562 18.546875 L 8.726562 13.453125 C 8.726562 12.453125 9.542969 11.636719 10.546875 11.636719 Z M 26.910156 11.636719 L 31.273438 11.636719 C 31.671875 11.636719 32 11.960938 32 12.363281 L 32 19.636719 C 32 20.039062 31.671875 20.363281 31.273438 20.363281 L 26.910156 20.363281 C 26.507812 20.363281 26.179688 20.039062 26.179688 19.636719 L 26.179688 12.363281 C 26.179688 11.960938 26.507812 11.636719 26.910156 11.636719 Z M 1.820312 23.273438 L 12.726562 23.273438 C 13.730469 23.273438 14.546875 24.085938 14.546875 25.089844 L 14.546875 30.179688 C 14.546875 31.1875 13.730469 32 12.726562 32 L 1.820312 32 C 0.8125 32 0 31.1875 0 30.179688 L 0 25.089844 C 0 24.085938 0.8125 23.273438 1.820312 23.273438 Z M 19.273438 23.273438 L 30.179688 23.273438 C 31.1875 23.273438 32 24.085938 32 25.089844 L 32 30.179688 C 32 31.1875 31.1875 32 30.179688 32 L 19.273438 32 C 18.269531 32 17.453125 31.1875 17.453125 30.179688 L 17.453125 25.089844 C 17.453125 24.085938 18.269531 23.273438 19.273438 23.273438 Z M 19.273438 23.273438 "/></g></svg>
