<svg width="64" height="64" viewBox="0 0 64 64" version="1.1"><defs><linearGradient id="linear-pattern-0" gradientUnits="userSpaceOnUse" x1="0" y1="0" x2="0" y2="1" gradientTransform="matrix(60, 0, 0, 56, 0, 4)"><stop offset="0" stop-color="#00a07f" stop-opacity="1"/><stop offset="1" stop-color="#005241" stop-opacity="1"/></linearGradient></defs><path fill="url(#linear-pattern-0)" fill-opacity="1" d="M 36.21875 2.050781 L 62.027344 27.605469 C 64.402344 29.957031 64.417969 33.785156 62.058594 36.15625 L 36.460938 61.917969 C 34.105469 64.289062 30.269531 64.304688 27.894531 61.949219 L 2.085938 36.394531 C -0.289062 34.042969 -0.304688 30.214844 2.050781 27.84375 L 27.652344 2.082031 C 30.007812 -0.289062 33.84375 -0.304688 36.21875 2.050781 Z M 36.21875 2.050781 " /><g transform="matrix(1.0075098,0,0,1.0032698,16.221436,16.077397)"><path fill-rule="nonzero" fill="rgb(100%, 100%, 100%)" fill-opacity="1" d="M 32 12.632812 C 32 13.550781 31.636719 14.160156 30.90625 14.460938 C 30.453125 14.648438 29.65625 14.742188 28.53125 14.742188 C 27.226562 14.742188 26.28125 14.632812 25.695312 14.417969 C 24.78125 14.101562 24.292969 13.4375 24.226562 12.414062 C 25.867188 12.660156 27.476562 12.78125 29.050781 12.78125 C 30.039062 12.78125 31.023438 12.734375 32 12.632812 M 32 11.898438 C 31.066406 12 30.320312 12.050781 29.765625 12.050781 C 29.300781 12.050781 27.320312 11.914062 23.820312 11.640625 C 23.6875 10.664062 22.902344 10.0625 21.460938 9.835938 L 21.523438 11.984375 C 22.902344 13.203125 24.171875 15.289062 25.335938 18.226562 C 26.464844 21.039062 27.03125 23.394531 27.03125 25.289062 C 27.03125 27.09375 26.664062 28 25.921875 28 L 6.304688 28 C 5.371094 28 4.90625 27.246094 4.90625 25.742188 C 4.90625 23.875 5.484375 21.449219 6.648438 18.464844 C 7.875 15.335938 9.164062 13.175781 10.507812 11.984375 L 10.507812 9.835938 C 9.097656 10.046875 8.320312 10.648438 8.179688 11.640625 C 7.007812 11.914062 5.359375 12.050781 3.242188 12.050781 C 1.96875 12.050781 0.890625 12 0 11.898438 C 0.117188 9.042969 1.0625 7.101562 2.835938 6.066406 C 4.007812 5.363281 6.132812 4.820312 9.203125 4.429688 C 11.445312 4.140625 13.710938 4 16.015625 4 C 22.351562 4 26.734375 4.6875 29.164062 6.066406 C 30.992188 7.070312 31.9375 9.015625 32 11.898438 M 20.320312 9.617188 C 18.785156 9.203125 17.328125 8.992188 15.953125 8.992188 C 14.625 8.992188 13.171875 9.203125 11.585938 9.617188 L 12.382812 11.46875 L 19.554688 11.46875 L 20.320312 9.617188 M 21.390625 18.65625 C 21.390625 17.496094 20.789062 16.554688 19.585938 15.835938 C 18.59375 15.25 17.40625 14.957031 16.015625 14.953125 C 14.671875 14.957031 13.480469 15.265625 12.445312 15.882812 C 11.21875 16.570312 10.609375 17.496094 10.609375 18.65625 C 10.609375 19.835938 11.21875 20.765625 12.445312 21.457031 C 13.480469 22.074219 14.671875 22.382812 16.015625 22.382812 C 17.363281 22.382812 18.554688 22.074219 19.585938 21.457031 C 20.789062 20.765625 21.390625 19.835938 21.390625 18.65625 M 24.097656 25.804688 L 24.421875 25.503906 L 24.097656 25.203125 L 8.015625 25.203125 L 7.671875 25.503906 L 8.015625 25.804688 L 24.097656 25.804688 M 20.5625 17.238281 C 20.5625 17.710938 20.296875 17.945312 19.765625 17.945312 C 19.199219 17.945312 18.914062 17.710938 18.914062 17.238281 C 18.914062 16.734375 19.199219 16.484375 19.765625 16.484375 C 20.296875 16.484375 20.5625 16.734375 20.5625 17.238281 M 18.851562 16.140625 C 18.851562 16.640625 18.574219 16.890625 18.019531 16.890625 C 17.488281 16.890625 17.222656 16.640625 17.222656 16.140625 C 17.222656 15.679688 17.488281 15.453125 18.019531 15.453125 C 18.574219 15.453125 18.851562 15.679688 18.851562 16.140625 M 21.085938 18.980469 C 21.085938 19.484375 20.804688 19.734375 20.25 19.734375 C 19.71875 19.734375 19.453125 19.484375 19.453125 18.980469 C 19.453125 18.507812 19.71875 18.273438 20.25 18.273438 C 20.804688 18.273438 21.085938 18.507812 21.085938 18.980469 M 16.359375 15.835938 C 16.359375 16.339844 16.078125 16.59375 15.511719 16.59375 C 14.976562 16.59375 14.710938 16.34375 14.710938 15.835938 C 14.710938 15.367188 14.976562 15.128906 15.511719 15.128906 C 16.078125 15.128906 16.359375 15.367188 16.359375 15.835938 M 19.960938 20.660156 C 19.960938 21.148438 19.679688 21.390625 19.128906 21.390625 C 18.59375 21.390625 18.328125 21.148438 18.328125 20.660156 C 18.328125 20.1875 18.59375 19.949219 19.128906 19.949219 C 19.679688 19.949219 19.960938 20.1875 19.960938 20.660156 M 19.355469 18.617188 C 19.355469 19.246094 18.953125 19.804688 18.148438 20.296875 C 17.453125 20.679688 16.722656 20.875 15.953125 20.875 C 15.203125 20.875 14.492188 20.679688 13.816406 20.296875 C 13.035156 19.851562 12.644531 19.289062 12.644531 18.617188 C 12.644531 17.96875 13.066406 17.453125 13.914062 17.066406 C 14.601562 16.78125 15.320312 16.632812 16.082031 16.632812 C 16.828125 16.632812 17.53125 16.792969 18.183594 17.109375 C 18.964844 17.453125 19.355469 17.953125 19.355469 18.617188 M 14.046875 16.59375 C 14.046875 17.066406 13.78125 17.304688 13.246094 17.304688 C 12.695312 17.304688 12.414062 17.066406 12.414062 16.59375 C 12.414062 16.089844 12.695312 15.835938 13.246094 15.835938 C 13.78125 15.835938 14.046875 16.089844 14.046875 16.59375 M 17.921875 21.523438 C 17.921875 22.007812 17.648438 22.25 17.09375 22.25 C 16.558594 22.25 16.292969 22.007812 16.292969 21.523438 C 16.292969 21.046875 16.558594 20.8125 17.09375 20.8125 C 17.648438 20.8125 17.921875 21.046875 17.921875 21.523438 M 12.644531 18.121094 C 12.644531 18.59375 12.375 18.828125 11.84375 18.828125 C 11.289062 18.828125 11.015625 18.59375 11.015625 18.121094 C 11.015625 17.632812 11.289062 17.390625 11.84375 17.390625 C 12.375 17.390625 12.644531 17.632812 12.644531 18.121094 M 15.28125 21.390625 C 15.28125 21.867188 15.015625 22.101562 14.484375 22.101562 C 13.929688 22.101562 13.65625 21.867188 13.65625 21.390625 C 13.65625 20.90625 13.929688 20.660156 14.484375 20.660156 C 15.015625 20.660156 15.28125 20.90625 15.28125 21.390625 M 13.117188 20.316406 C 13.117188 20.789062 12.851562 21.023438 12.320312 21.023438 C 11.765625 21.023438 11.484375 20.789062 11.484375 20.316406 C 11.484375 19.828125 11.765625 19.585938 12.320312 19.585938 C 12.851562 19.585938 13.117188 19.828125 13.117188 20.316406 M 7.804688 12.414062 C 7.742188 13.40625 7.1875 14.085938 6.140625 14.460938 C 5.5 14.648438 4.523438 14.742188 3.210938 14.742188 C 2.210938 14.742188 1.476562 14.625 1.007812 14.398438 C 0.359375 14.066406 0.03125 13.476562 0.03125 12.632812 C 0.988281 12.71875 1.867188 12.757812 2.671875 12.757812 C 4.429688 12.757812 6.140625 12.648438 7.804688 12.414062 "/></g></svg>
