<svg width="64" height="64" viewBox="0 0 64 64" version="1.1"><defs><linearGradient id="linear-pattern-0" gradientUnits="userSpaceOnUse" x1="0" y1="0" x2="0" y2="1" gradientTransform="matrix(60, 0, 0, 56, 0, 4)"><stop offset="0" stop-color="#c10000" stop-opacity="1"/><stop offset="1" stop-color="#5f0000" stop-opacity="1"/></linearGradient></defs><path fill="url(#linear-pattern-0)" fill-opacity="1" d="M 36.21875 2.050781 L 62.027344 27.605469 C 64.402344 29.957031 64.417969 33.785156 62.058594 36.15625 L 36.460938 61.917969 C 34.105469 64.289062 30.269531 64.304688 27.894531 61.949219 L 2.085938 36.394531 C -0.289062 34.042969 -0.304688 30.214844 2.050781 27.84375 L 27.652344 2.082031 C 30.007812 -0.289062 33.84375 -0.304688 36.21875 2.050781 Z M 36.21875 2.050781 " /><g transform="matrix(1.0075098,0,0,1.0032698,16.221436,16.077397)"><path fill-rule="nonzero" fill="rgb(100%, 100%, 100%)" fill-opacity="1" d="M 16.109375 0.753906 C 7.6875 0.753906 0.835938 7.5625 0.835938 15.9375 C 0.835938 17.765625 1.171875 19.578125 1.816406 21.289062 C 1.9375 21.640625 2.238281 21.890625 2.601562 21.957031 C 2.96875 22.019531 3.34375 21.882812 3.574219 21.59375 C 3.800781 21.304688 3.863281 20.917969 3.722656 20.578125 C 3.164062 19.09375 2.871094 17.519531 2.871094 15.9375 C 2.871094 8.65625 8.789062 2.78125 16.109375 2.78125 C 19.671875 2.78125 23.03125 4.25 25.515625 6.753906 L 22.886719 11.453125 L 20.75 10.03125 C 20.3125 9.742188 19.71875 9.835938 19.390625 10.242188 L 15.757812 14.753906 L 13.378906 13.964844 C 12.875 13.796875 12.328125 14.042969 12.117188 14.527344 L 9.546875 20.492188 L 7.507812 19.140625 C 7.25 18.972656 6.929688 18.929688 6.632812 19.023438 C 6.335938 19.117188 6.101562 19.34375 5.992188 19.628906 L 4.125 24.554688 C 4 24.894531 4.0625 25.277344 4.289062 25.558594 C 7.191406 29.078125 11.53125 31.117188 16.109375 31.117188 C 24.53125 31.117188 31.382812 24.3125 31.382812 15.9375 C 31.382812 13.695312 30.886719 11.484375 29.921875 9.460938 C 29.773438 9.128906 29.453125 8.898438 29.085938 8.867188 C 28.71875 8.835938 28.367188 9.003906 28.15625 9.304688 C 27.953125 9.605469 27.921875 10 28.085938 10.324219 C 28.914062 12.078125 29.351562 14 29.351562 15.9375 C 29.351562 23.21875 23.429688 29.09375 16.109375 29.09375 C 12.328125 29.09375 8.769531 27.453125 6.265625 24.65625 L 7.445312 21.53125 L 9.4375 22.851562 C 9.6875 23.015625 10 23.066406 10.289062 22.976562 C 10.578125 22.898438 10.820312 22.6875 10.9375 22.410156 L 13.625 16.179688 L 15.789062 16.898438 C 16.191406 17.03125 16.640625 16.898438 16.90625 16.570312 L 20.394531 12.234375 L 22.675781 13.742188 C 22.910156 13.898438 23.199219 13.953125 23.476562 13.886719 C 23.753906 13.816406 23.992188 13.640625 24.125 13.390625 L 27.679688 7.042969 C 27.890625 6.671875 27.84375 6.203125 27.554688 5.882812 C 24.65625 2.625 20.488281 0.753906 16.109375 0.753906 Z M 15.089844 3.789062 L 15.089844 6.828125 L 17.128906 6.828125 L 17.128906 3.789062 Z M 3.890625 14.929688 L 3.890625 16.949219 L 6.945312 16.949219 L 6.945312 14.929688 Z M 25.277344 14.929688 L 25.277344 16.949219 L 28.332031 16.949219 L 28.332031 14.929688 Z M 15.089844 25.046875 L 15.089844 28.085938 L 17.128906 28.085938 L 17.128906 25.046875 Z M 15.089844 25.046875 "/></g></svg>
