<svg width="64" height="64" viewBox="0 0 64 64" version="1.1"><defs><linearGradient id="linear-pattern-0" gradientUnits="userSpaceOnUse" x1="0" y1="0" x2="0" y2="1" gradientTransform="matrix(60, 0, 0, 56, 0, 4)"><stop offset="0" stop-color="#0288cf" stop-opacity="1"/><stop offset="1" stop-color="#01486e" stop-opacity="1"/></linearGradient></defs><path fill="url(#linear-pattern-0)" fill-opacity="1" d="M 36.21875 2.050781 L 62.027344 27.605469 C 64.402344 29.957031 64.417969 33.785156 62.058594 36.15625 L 36.460938 61.917969 C 34.105469 64.289062 30.269531 64.304688 27.894531 61.949219 L 2.085938 36.394531 C -0.289062 34.042969 -0.304688 30.214844 2.050781 27.84375 L 27.652344 2.082031 C 30.007812 -0.289062 33.84375 -0.304688 36.21875 2.050781 Z M 36.21875 2.050781 " /><g transform="matrix(1.0075098,0,0,1.0032698,16.221436,16.077397)"><path fill-rule="nonzero" fill="rgb(100%, 100%, 100%)" fill-opacity="1" d="M 4 0 L 4 12 L 6 13.5 L 6 29 C 6 30.664062 7.335938 32 9 32 C 10.664062 32 12 30.664062 12 29 L 12 13.5 L 14 12 L 14 0 L 12 0 L 12 11 L 10 12 L 10 0 L 8 0 L 8 12 L 6 11 L 6 0 Z M 8 14.21875 L 10 14.21875 L 10 29 C 10 29.554688 9.554688 30 9 30 C 8.445312 30 8 29.554688 8 29 Z M 8 14.21875 "/><path fill-rule="nonzero" fill="rgb(100%, 100%, 100%)" fill-opacity="1" d="M 26 0 C 23.140625 0 20.5 1.90625 19.070312 5 C 17.640625 8.09375 17.640625 11.90625 19.070312 15 C 19.335938 15.570312 19.648438 16.101562 20 16.59375 L 20 29 C 20 30.664062 21.335938 32 23 32 C 24.664062 32 26 30.664062 26 29 Z M 24 2.5625 L 24 29 C 24 29.554688 23.554688 30 23 30 C 22.445312 30 22 29.554688 22 29 L 22 15.78125 C 21.429688 15.210938 20.957031 14.40625 20.625 13.445312 C 19.929688 11.421875 19.757812 8.945312 20.453125 6.921875 C 21.148438 4.894531 22.351562 2.921875 24 2.5625 Z M 24 2.5625 "/></g></svg>
