<svg width="64" height="64" viewBox="0 0 64 64" version="1.1"><defs><linearGradient id="linear-pattern-0" gradientUnits="userSpaceOnUse" x1="0" y1="0" x2="0" y2="1" gradientTransform="matrix(60, 0, 0, 56, 0, 4)"><stop offset="0" stop-color="#a67e50" stop-opacity="1"/><stop offset="1" stop-color="#644c30" stop-opacity="1"/></linearGradient></defs><path fill="url(#linear-pattern-0)" fill-opacity="1" d="M 36.21875 2.050781 L 62.027344 27.605469 C 64.402344 29.957031 64.417969 33.785156 62.058594 36.15625 L 36.460938 61.917969 C 34.105469 64.289062 30.269531 64.304688 27.894531 61.949219 L 2.085938 36.394531 C -0.289062 34.042969 -0.304688 30.214844 2.050781 27.84375 L 27.652344 2.082031 C 30.007812 -0.289062 33.84375 -0.304688 36.21875 2.050781 Z M 36.21875 2.050781 " /><g transform="matrix(1.0075098,0,0,1.0032698,16.221436,16.077397)"><path fill-rule="nonzero" fill="rgb(68.235294%, 70.196078%, 76.078431%)" fill-opacity="1" d="M 17.96875 1.042969 C 8.558594 1.042969 0.925781 7.882812 0.925781 16.308594 C 0.9375 19.585938 2.113281 22.773438 4.296875 25.398438 C 4.601562 26.125 4.855469 27.058594 4.855469 28.054688 C 4.855469 29.765625 3.546875 30.941406 2.230469 31.578125 C 4.460938 31.578125 7.648438 30.71875 8.539062 29.015625 C 11.328125 30.683594 14.609375 31.574219 17.964844 31.578125 C 23.117188 31.5625 27.984375 29.460938 31.207031 25.859375 L 24.625 19.960938 C 23.195312 22.0625 20.65625 23.339844 17.914062 23.34375 C 13.570312 23.34375 10.046875 20.191406 10.046875 16.296875 C 10.046875 12.40625 13.570312 9.253906 17.914062 9.253906 C 20.65625 9.257812 23.195312 10.535156 24.625 12.632812 L 31.191406 6.75 C 27.96875 3.148438 23.101562 1.046875 17.953125 1.03125 Z M 17.96875 1.042969 "/><path fill-rule="nonzero" fill="rgb(38.431373%, 39.607843%, 43.921569%)" fill-opacity="1" d="M 15.347656 4.566406 C 6.710938 4.742188 2.238281 9.277344 1.054688 14.992188 C 1.015625 15.421875 0.988281 15.847656 0.988281 16.289062 C 0.988281 18.1875 1.007812 19.738281 1.039062 21.09375 C 1.390625 21.828125 1.828125 22.53125 2.308594 23.210938 L 2.3125 22.171875 C 2.296875 12.125 10.820312 8.082031 16.730469 8.082031 C 17.011719 8.082031 17.273438 8.109375 17.53125 8.152344 C 19.957031 8.378906 22.144531 9.59375 23.433594 11.484375 C 24.03125 9.277344 22.554688 4.578125 15.40625 4.578125 Z M 15.347656 4.566406 "/></g></svg>
