<svg width="64" height="64" viewBox="0 0 64 64" version="1.1"><defs><linearGradient id="linear-pattern-0" gradientUnits="userSpaceOnUse" x1="0" y1="0" x2="0" y2="1" gradientTransform="matrix(60, 0, 0, 56, 0, 4)"><stop offset="0" stop-color="#00983a" stop-opacity="1"/><stop offset="1" stop-color="#004a1c" stop-opacity="1"/></linearGradient></defs><path fill="url(#linear-pattern-0)" fill-opacity="1" d="M 36.21875 2.050781 L 62.027344 27.605469 C 64.402344 29.957031 64.417969 33.785156 62.058594 36.15625 L 36.460938 61.917969 C 34.105469 64.289062 30.269531 64.304688 27.894531 61.949219 L 2.085938 36.394531 C -0.289062 34.042969 -0.304688 30.214844 2.050781 27.84375 L 27.652344 2.082031 C 30.007812 -0.289062 33.84375 -0.304688 36.21875 2.050781 Z M 36.21875 2.050781 " /><g transform="matrix(1.0075098,0,0,1.0032698,16.221436,16.077397)"><path fill-rule="nonzero" fill="rgb(100%, 100%, 100%)" fill-opacity="1" d="M 5.023438 0 C 1.015625 0 1.015625 4 1.015625 4 L 1.015625 28 C 1.015625 32 5.023438 32 5.023438 32 L 15.035156 32 L 15.035156 30 L 3.019531 30 L 3.019531 2 L 27.050781 2 L 27.050781 12 L 29.050781 12 L 29.050781 4 C 29.050781 0 25.046875 0 25.046875 0 Z M 9.027344 10.007812 C 7.917969 10.007812 7.023438 10.90625 7.023438 12.007812 C 7.023438 13.109375 7.917969 14.007812 9.027344 14.007812 C 10.136719 14.007812 11.03125 13.109375 11.03125 12.007812 C 11.03125 10.90625 10.136719 10.007812 9.027344 10.007812 Z M 21.042969 10.007812 C 19.9375 10.007812 19.042969 10.902344 19.039062 12 L 23.046875 12 C 23.042969 10.902344 22.148438 10.007812 21.042969 10.007812 Z M 24.078125 15.105469 C 20.828125 15.113281 18.203125 17.742188 18.203125 20.988281 C 18.203125 24.238281 20.839844 26.871094 24.09375 26.871094 C 27.34375 26.867188 29.980469 24.234375 29.980469 20.988281 C 29.980469 17.742188 27.34375 15.109375 24.09375 15.105469 C 24.085938 15.105469 24.085938 15.105469 24.078125 15.105469 Z M 9.375 19.660156 L 7.960938 21.074219 C 9.835938 22.949219 12.382812 24.007812 15.035156 24.007812 L 15.035156 22.007812 C 12.914062 22.007812 10.875 21.160156 9.375 19.660156 Z M 19.039062 28 C 18.414062 30.453125 19.039062 32 19.039062 32 L 29.050781 32 C 29.050781 32 29.722656 30 29.050781 28 C 28.6875 28.3125 25.917969 30 24.046875 30 C 22.175781 30 19.761719 28.628906 19.039062 28 Z M 19.039062 28 "/></g></svg>
