<svg width="64" height="64" viewBox="0 0 64 64" version="1.1"><defs><linearGradient id="linear-pattern-0" gradientUnits="userSpaceOnUse" x1="0" y1="0" x2="0" y2="1" gradientTransform="matrix(60, 0, 0, 56, 0, 4)"><stop offset="0" stop-color="#0288cf" stop-opacity="1"/><stop offset="1" stop-color="#01486e" stop-opacity="1"/></linearGradient></defs><path fill="url(#linear-pattern-0)" fill-opacity="1" d="M 36.21875 2.050781 L 62.027344 27.605469 C 64.402344 29.957031 64.417969 33.785156 62.058594 36.15625 L 36.460938 61.917969 C 34.105469 64.289062 30.269531 64.304688 27.894531 61.949219 L 2.085938 36.394531 C -0.289062 34.042969 -0.304688 30.214844 2.050781 27.84375 L 27.652344 2.082031 C 30.007812 -0.289062 33.84375 -0.304688 36.21875 2.050781 Z M 36.21875 2.050781 " /><g transform="matrix(1.0075098,0,0,1.0032698,16.221436,16.077397)"><path fill-rule="nonzero" fill="rgb(100%, 100%, 100%)" fill-opacity="1" d="M 16.65625 0.445312 C 14.15625 0.351562 11.605469 0.890625 9.207031 2.089844 C 7.28125 3.054688 5.585938 4.40625 4.210938 6.054688 L 9.28125 14.898438 C 9.707031 12.40625 11.484375 10.242188 14.046875 9.429688 C 14.691406 9.226562 15.347656 9.101562 16.023438 9.089844 L 30.027344 9.089844 C 27.40625 3.785156 22.164062 0.640625 16.65625 0.445312 Z M 3.246094 7.292969 C -1.53125 14.453125 0.398438 24.171875 7.53125 28.976562 C 9.3125 30.175781 11.320312 30.953125 13.414062 31.335938 L 18.484375 22.5 C 16.242188 23.332031 13.640625 22.976562 11.664062 21.335938 C 10.660156 20.507812 9.914062 19.394531 9.503906 18.152344 Z M 16.132812 10.289062 C 12.992188 10.289062 10.4375 12.859375 10.4375 16.015625 C 10.4375 19.171875 12.992188 21.746094 16.132812 21.746094 C 19.273438 21.746094 21.835938 19.171875 21.835938 16.015625 C 21.835938 12.859375 19.273438 10.289062 16.132812 10.289062 Z M 20.046875 10.441406 C 21.792969 11.710938 22.921875 13.757812 22.914062 16.09375 C 22.90625 17.648438 22.382812 19.175781 21.425781 20.398438 L 14.90625 31.558594 C 23.460938 32.207031 30.945312 25.742188 31.59375 17.140625 C 31.765625 14.851562 31.398438 12.578125 30.585938 10.441406 Z M 20.046875 10.441406 "/></g></svg>
