<svg width="64" height="64" viewBox="0 0 64 64" version="1.1"><defs><linearGradient id="linear-pattern-0" gradientUnits="userSpaceOnUse" x1="0" y1="0" x2="0" y2="1" gradientTransform="matrix(60, 0, 0, 56, 0, 4)"><stop offset="0" stop-color="#6926fc" stop-opacity="1"/><stop offset="1" stop-color="#3702ab" stop-opacity="1"/></linearGradient></defs><path fill="url(#linear-pattern-0)" fill-opacity="1" d="M 36.21875 2.050781 L 62.027344 27.605469 C 64.402344 29.957031 64.417969 33.785156 62.058594 36.15625 L 36.460938 61.917969 C 34.105469 64.289062 30.269531 64.304688 27.894531 61.949219 L 2.085938 36.394531 C -0.289062 34.042969 -0.304688 30.214844 2.050781 27.84375 L 27.652344 2.082031 C 30.007812 -0.289062 33.84375 -0.304688 36.21875 2.050781 Z M 36.21875 2.050781 " /><g transform="matrix(1.0075098,0,0,1.0032698,16.221436,16.077397)"><path fill-rule="nonzero" fill="rgb(100%, 100%, 100%)" fill-opacity="1" d="M 16.335938 0.984375 C 9.171875 0.984375 3.367188 2.4375 3.367188 4.226562 C 3.367188 4.335938 3.390625 4.453125 3.433594 4.5625 L 6.238281 19.929688 C 8.789062 21.578125 12.378906 22.59375 16.375 22.59375 C 20.339844 22.59375 23.890625 21.5625 26.441406 19.929688 L 29.246094 4.5625 C 29.289062 4.453125 29.3125 4.335938 29.3125 4.226562 C 29.3125 2.4375 23.507812 0.984375 16.339844 0.984375 Z M 16.335938 3.148438 C 21.117188 3.148438 24.984375 3.875 24.984375 4.765625 C 24.984375 5.664062 21.117188 6.386719 16.335938 6.386719 C 11.5625 6.386719 7.6875 5.664062 7.6875 4.765625 C 7.6875 3.875 11.5625 3.148438 16.335938 3.148438 Z M 16.335938 10.710938 C 18.726562 10.710938 20.664062 12.648438 20.664062 15.03125 C 20.664062 17.421875 18.726562 19.351562 16.335938 19.351562 C 13.949219 19.351562 12.015625 17.421875 12.015625 15.03125 C 12.015625 12.648438 13.949219 10.710938 16.335938 10.710938 Z M 16.335938 12.871094 C 15.140625 12.871094 14.179688 13.835938 14.179688 15.03125 C 14.179688 16.226562 15.140625 17.195312 16.335938 17.195312 C 17.53125 17.195312 18.5 16.226562 18.5 15.03125 C 18.5 13.835938 17.53125 12.871094 16.335938 12.871094 Z M 6.671875 22.324219 L 7.6875 28 C 9.851562 30.160156 12.015625 31.238281 16.335938 31.238281 C 20.664062 31.238281 22.824219 30.160156 24.984375 28 L 26 22.390625 C 23.488281 23.859375 20.109375 24.757812 16.375 24.757812 C 12.59375 24.757812 9.195312 23.820312 6.679688 22.324219 Z M 6.671875 22.324219 "/></g></svg>
