<svg width="64" height="64" viewBox="0 0 64 64" version="1.1"><defs><linearGradient id="linear-pattern-0" gradientUnits="userSpaceOnUse" x1="0" y1="0" x2="0" y2="1" gradientTransform="matrix(60, 0, 0, 56, 0, 4)"><stop offset="0" stop-color="#00983a" stop-opacity="1"/><stop offset="1" stop-color="#004a1c" stop-opacity="1"/></linearGradient></defs><path fill="url(#linear-pattern-0)" fill-opacity="1" d="M 36.21875 2.050781 L 62.027344 27.605469 C 64.402344 29.957031 64.417969 33.785156 62.058594 36.15625 L 36.460938 61.917969 C 34.105469 64.289062 30.269531 64.304688 27.894531 61.949219 L 2.085938 36.394531 C -0.289062 34.042969 -0.304688 30.214844 2.050781 27.84375 L 27.652344 2.082031 C 30.007812 -0.289062 33.84375 -0.304688 36.21875 2.050781 Z M 36.21875 2.050781 " /><g transform="matrix(1.0075098,0,0,1.0032698,16.221436,16.077397)"><path fill-rule="nonzero" fill="rgb(100%, 100%, 100%)" fill-opacity="1" d="M 30.332031 11.546875 C 30.332031 14.394531 28.195312 16.703125 25.554688 16.703125 C 22.921875 16.703125 20.78125 14.394531 20.78125 11.546875 C 20.78125 8.699219 22.921875 6.386719 25.554688 6.386719 C 28.195312 6.386719 30.332031 8.699219 30.332031 11.546875 Z M 30.332031 11.546875 "/><path fill-rule="nonzero" fill="rgb(100%, 100%, 100%)" fill-opacity="1" d="M 5.203125 5.015625 C 4.890625 5.027344 4.640625 5.3125 4.640625 5.65625 C 4.640625 6.011719 4.90625 6.300781 5.234375 6.300781 L 6.429688 6.300781 C 6.761719 6.300781 7.027344 6.011719 7.027344 5.65625 C 7.027344 5.296875 6.761719 5.015625 6.429688 5.015625 L 5.234375 5.015625 C 5.226562 5.015625 5.214844 5.007812 5.203125 5.015625 Z M 9.984375 5.015625 C 9.664062 5.027344 9.414062 5.3125 9.414062 5.65625 C 9.414062 6.011719 9.679688 6.300781 10.007812 6.300781 L 11.203125 6.300781 C 11.535156 6.300781 11.796875 6.011719 11.796875 5.65625 C 11.796875 5.296875 11.535156 5.015625 11.203125 5.015625 L 10.007812 5.015625 C 10 5.015625 9.992188 5.007812 9.984375 5.015625 Z M 14.753906 5.015625 C 14.441406 5.027344 14.1875 5.3125 14.1875 5.65625 C 14.1875 6.011719 14.453125 6.300781 14.789062 6.300781 L 15.976562 6.300781 C 16.3125 6.300781 16.578125 6.011719 16.578125 5.65625 C 16.578125 5.296875 16.3125 5.015625 15.976562 5.015625 L 14.789062 5.015625 C 14.773438 5.015625 14.765625 5.007812 14.753906 5.015625 Z M 10.617188 7.589844 C 9.289062 7.589844 8.226562 8.742188 8.226562 10.167969 L 8.226562 14.679688 C 8.226562 15.035156 8.492188 15.324219 8.828125 15.324219 C 9.15625 15.324219 9.421875 15.035156 9.421875 14.679688 C 9.421875 14.679688 9.421875 14.671875 9.421875 14.671875 C 9.421875 14.671875 9.421875 14.664062 9.421875 14.664062 C 9.421875 14.664062 9.421875 14.65625 9.421875 14.65625 C 9.421875 14.652344 9.421875 14.652344 9.421875 14.652344 C 9.421875 14.652344 9.421875 14.652344 9.421875 14.648438 L 9.421875 12.75 L 11.808594 12.75 L 11.808594 14.683594 C 11.808594 15.039062 12.070312 15.328125 12.40625 15.328125 C 12.734375 15.328125 13 15.039062 13 14.683594 C 13 14.683594 13 14.679688 13 14.679688 C 13 14.679688 13 14.671875 13 14.671875 C 13 14.671875 13 14.664062 13 14.664062 C 13 14.664062 13 14.65625 13 14.65625 C 13 14.652344 13 14.652344 13 14.652344 L 13 10.179688 C 13 8.746094 11.9375 7.601562 10.617188 7.601562 Z M 10.617188 8.878906 C 11.273438 8.878906 11.808594 9.453125 11.808594 10.167969 L 11.808594 11.453125 L 9.421875 11.453125 L 9.421875 10.167969 C 9.421875 9.453125 9.953125 8.878906 10.617188 8.878906 Z M 10.617188 8.878906 "/><path fill-rule="nonzero" fill="rgb(100%, 100%, 100%)" fill-opacity="1" d="M 0.726562 23.257812 L 0.726562 25.835938 C 0.726562 27.265625 1.792969 28.414062 3.117188 28.414062 L 29.375 28.414062 C 30.703125 28.414062 31.765625 27.265625 31.765625 25.835938 L 31.765625 23.257812 L 16.246094 23.257812 L 16.246094 24.546875 C 16.246094 25.976562 15.179688 27.125 13.859375 27.125 L 6.695312 27.125 C 5.375 27.125 4.3125 25.976562 4.3125 24.546875 L 4.3125 23.257812 Z M 0.726562 23.257812 "/><path fill-rule="nonzero" fill="rgb(100%, 100%, 100%)" fill-opacity="1" d="M 7.65625 19.28125 C 6.996094 19.28125 6.460938 19.855469 6.460938 20.570312 C 6.460938 21.28125 6.996094 21.859375 7.65625 21.859375 C 8.3125 21.859375 8.851562 21.28125 8.851562 20.570312 C 8.851562 19.855469 8.3125 19.28125 7.65625 19.28125 Z M 11.234375 19.28125 C 10.578125 19.28125 10.042969 19.855469 10.042969 20.570312 C 10.042969 21.28125 10.578125 21.859375 11.234375 21.859375 C 11.894531 21.859375 12.429688 21.28125 12.429688 20.570312 C 12.429688 19.855469 11.894531 19.28125 11.234375 19.28125 Z M 14.8125 19.28125 C 14.15625 19.28125 13.625 19.855469 13.625 20.570312 C 13.625 21.28125 14.15625 21.859375 14.8125 21.859375 C 15.476562 21.859375 16.011719 21.28125 16.011719 20.570312 C 16.011719 19.855469 15.476562 19.28125 14.8125 19.28125 Z M 14.8125 19.28125 "/></g></svg>
