<svg width="64" height="64" viewBox="0 0 64 64" version="1.1"><defs><linearGradient id="linear-pattern-0" gradientUnits="userSpaceOnUse" x1="0" y1="0" x2="0" y2="1" gradientTransform="matrix(60, 0, 0, 56, 0, 4)"><stop offset="0" stop-color="#aaaa00" stop-opacity="1"/><stop offset="1" stop-color="#5c5c00" stop-opacity="1"/></linearGradient></defs><path fill="url(#linear-pattern-0)" fill-opacity="1" d="M 36.21875 2.050781 L 62.027344 27.605469 C 64.402344 29.957031 64.417969 33.785156 62.058594 36.15625 L 36.460938 61.917969 C 34.105469 64.289062 30.269531 64.304688 27.894531 61.949219 L 2.085938 36.394531 C -0.289062 34.042969 -0.304688 30.214844 2.050781 27.84375 L 27.652344 2.082031 C 30.007812 -0.289062 33.84375 -0.304688 36.21875 2.050781 Z M 36.21875 2.050781 " /><g transform="matrix(1.0075098,0,0,1.0032698,16.221436,16.077397)"><path fill-rule="nonzero" fill="rgb(100%, 100%, 100%)" fill-opacity="1" d="M 16.050781 0.945312 C 15.703125 0.945312 15.359375 0.953125 15.019531 0.976562 L 15.019531 3.023438 C 15.355469 2.996094 15.707031 2.992188 16.050781 2.992188 C 16.398438 2.992188 16.746094 3 17.082031 3.023438 L 17.082031 0.976562 C 16.742188 0.953125 16.398438 0.945312 16.050781 0.945312 Z M 14.046875 1.070312 C 13.671875 1.117188 13.289062 1.1875 12.917969 1.265625 C 12.613281 1.328125 12.316406 1.40625 12.015625 1.488281 L 12.4375 3.503906 C 13.097656 3.320312 13.769531 3.171875 14.46875 3.085938 Z M 18.050781 1.070312 L 17.632812 3.085938 C 18.332031 3.164062 19.003906 3.320312 19.664062 3.5 L 20.085938 1.484375 C 19.785156 1.40625 19.484375 1.324219 19.179688 1.265625 C 18.8125 1.1875 18.429688 1.117188 18.050781 1.070312 Z M 11.109375 1.773438 C 10.742188 1.898438 10.375 2.007812 10.015625 2.15625 C 9.726562 2.28125 9.453125 2.40625 9.175781 2.542969 L 9.984375 4.429688 C 10.59375 4.125 11.222656 3.875 11.886719 3.664062 Z M 20.988281 1.773438 L 20.214844 3.664062 C 20.875 3.875 21.503906 4.125 22.117188 4.429688 L 22.921875 2.542969 C 22.648438 2.40625 22.371094 2.28125 22.085938 2.15625 C 21.726562 2.007812 21.359375 1.898438 20.988281 1.773438 Z M 8.335938 2.992188 C 8.015625 3.175781 7.710938 3.359375 7.402344 3.570312 C 7.136719 3.746094 6.882812 3.949219 6.628906 4.144531 L 7.757812 5.839844 C 8.296875 5.421875 8.871094 5.023438 9.46875 4.6875 Z M 23.765625 2.992188 L 22.632812 4.6875 C 23.234375 5.019531 23.808594 5.421875 24.34375 5.835938 L 25.476562 4.144531 C 25.21875 3.949219 24.96875 3.746094 24.703125 3.570312 C 24.394531 3.359375 24.085938 3.175781 23.765625 2.992188 Z M 16.050781 4.015625 C 9.207031 4.015625 3.65625 9.515625 3.65625 16.296875 C 3.65625 23.085938 9.207031 28.585938 16.050781 28.585938 C 22.894531 28.585938 28.445312 23.085938 28.445312 16.296875 C 28.445312 9.515625 22.894531 4.015625 16.050781 4.015625 Z M 5.882812 4.78125 C 5.625 5.007812 5.351562 5.210938 5.109375 5.453125 C 4.867188 5.695312 4.660156 5.96875 4.429688 6.222656 L 5.851562 7.632812 C 6.300781 7.109375 6.78125 6.632812 7.304688 6.191406 Z M 26.21875 4.78125 L 24.796875 6.191406 C 25.320312 6.632812 25.800781 7.109375 26.25 7.632812 L 27.671875 6.222656 C 27.445312 5.96875 27.234375 5.695312 26.992188 5.453125 C 26.75 5.210938 26.476562 5.007812 26.21875 4.78125 Z M 16.050781 5.039062 C 22.328125 5.039062 27.410156 10.082031 27.410156 16.296875 C 27.410156 22.519531 22.328125 27.5625 16.050781 27.5625 C 9.777344 27.5625 4.691406 22.519531 4.691406 16.296875 C 4.691406 10.082031 9.777344 5.039062 16.050781 5.039062 Z M 16.050781 6.0625 C 10.347656 6.0625 5.726562 10.648438 5.726562 16.296875 C 5.726562 21.953125 10.347656 26.539062 16.050781 26.539062 C 21.757812 26.539062 26.375 21.953125 26.375 16.296875 C 26.375 10.648438 21.757812 6.0625 16.050781 6.0625 Z M 3.789062 6.960938 C 3.59375 7.210938 3.386719 7.460938 3.203125 7.726562 C 3 8.03125 2.808594 8.335938 2.625 8.652344 L 4.335938 9.773438 C 4.671875 9.179688 5.074219 8.609375 5.496094 8.078125 Z M 28.3125 6.960938 L 26.601562 8.078125 C 27.023438 8.609375 27.429688 9.179688 27.765625 9.773438 L 29.476562 8.652344 C 29.289062 8.335938 29.101562 8.03125 28.894531 7.726562 C 28.714844 7.460938 28.507812 7.210938 28.3125 6.960938 Z M 16.050781 7.085938 C 21.1875 7.085938 25.34375 11.210938 25.34375 16.296875 C 25.34375 21.390625 21.1875 25.515625 16.050781 25.515625 C 10.917969 25.515625 6.757812 21.386719 6.757812 16.296875 C 6.757812 11.210938 10.917969 7.085938 16.050781 7.085938 Z M 16.050781 8.109375 C 11.488281 8.109375 7.789062 11.777344 7.789062 16.296875 C 7.789062 20.820312 11.488281 24.492188 16.050781 24.492188 C 20.613281 24.492188 24.3125 20.820312 24.3125 16.296875 C 24.3125 11.777344 20.613281 8.109375 16.050781 8.109375 Z M 16.050781 9.132812 C 20.042969 9.132812 23.28125 12.34375 23.28125 16.296875 C 23.28125 20.257812 20.042969 23.46875 16.050781 23.46875 C 12.058594 23.46875 8.820312 20.257812 8.820312 16.296875 C 8.820312 12.34375 12.058594 9.132812 16.050781 9.132812 Z M 2.171875 9.484375 C 2.035156 9.757812 1.90625 10.035156 1.785156 10.320312 C 1.636719 10.671875 1.523438 11.039062 1.398438 11.40625 L 3.304688 12.171875 C 3.515625 11.515625 3.765625 10.894531 4.078125 10.289062 L 2.171875 9.488281 Z M 29.929688 9.484375 L 28.023438 10.285156 C 28.335938 10.894531 28.582031 11.515625 28.796875 12.171875 L 30.703125 11.40625 C 30.578125 11.039062 30.46875 10.671875 30.3125 10.320312 C 30.195312 10.035156 30.0625 9.757812 29.929688 9.484375 Z M 16.050781 10.15625 C 15.699219 10.15625 15.351562 10.195312 15.015625 10.253906 L 15.015625 22.347656 C 15.351562 22.40625 15.699219 22.445312 16.050781 22.445312 C 16.398438 22.445312 16.75 22.40625 17.082031 22.347656 L 17.082031 10.253906 C 16.75 10.195312 16.398438 10.15625 16.050781 10.15625 Z M 13.984375 10.539062 C 13.625 10.667969 13.277344 10.804688 12.953125 10.992188 L 12.953125 21.609375 C 13.277344 21.796875 13.625 21.929688 13.984375 22.0625 Z M 18.117188 10.539062 L 18.117188 22.058594 C 18.476562 21.929688 18.820312 21.765625 19.148438 21.578125 L 19.148438 11.023438 C 18.820312 10.835938 18.476562 10.667969 18.117188 10.539062 Z M 11.917969 11.726562 C 11.523438 12.078125 11.179688 12.46875 10.886719 12.90625 L 10.886719 19.691406 C 11.179688 20.128906 11.523438 20.523438 11.917969 20.875 Z M 20.179688 11.757812 L 20.179688 20.84375 C 20.570312 20.5 20.925781 20.121094 21.210938 19.691406 L 21.210938 12.90625 C 20.925781 12.476562 20.570312 12.097656 20.179688 11.757812 Z M 1.109375 12.300781 C 1.027344 12.597656 0.945312 12.890625 0.882812 13.195312 C 0.804688 13.5625 0.734375 13.941406 0.6875 14.316406 L 2.71875 14.730469 C 2.804688 14.039062 2.957031 13.375 3.140625 12.714844 Z M 30.992188 12.300781 L 28.960938 12.714844 C 29.144531 13.375 29.296875 14.039062 29.378906 14.730469 L 31.414062 14.316406 C 31.363281 13.941406 31.292969 13.5625 31.21875 13.195312 C 31.15625 12.890625 31.070312 12.597656 30.992188 12.300781 Z M 10.140625 14.476562 C 9.960938 15.054688 9.851562 15.664062 9.851562 16.296875 C 9.851562 16.9375 9.960938 17.546875 10.140625 18.125 Z M 21.953125 14.476562 L 21.953125 18.125 C 22.132812 17.546875 22.242188 16.9375 22.242188 16.296875 C 22.242188 15.664062 22.132812 15.054688 21.953125 14.476562 Z M 0.589844 15.273438 C 0.566406 15.617188 0.558594 15.953125 0.558594 16.296875 C 0.558594 16.648438 0.566406 16.984375 0.589844 17.320312 L 2.65625 17.320312 C 2.628906 16.988281 2.621094 16.640625 2.621094 16.296875 C 2.621094 15.957031 2.632812 15.609375 2.65625 15.273438 Z M 29.441406 15.273438 C 29.46875 15.609375 29.476562 15.957031 29.476562 16.296875 C 29.476562 16.640625 29.464844 16.988281 29.441406 17.320312 L 31.507812 17.320312 C 31.53125 16.984375 31.539062 16.648438 31.539062 16.296875 C 31.539062 15.953125 31.53125 15.617188 31.507812 15.273438 Z M 2.71875 17.867188 L 0.6875 18.28125 C 0.734375 18.65625 0.804688 19.039062 0.878906 19.402344 C 0.945312 19.703125 1.027344 20 1.109375 20.296875 L 3.140625 19.882812 C 2.953125 19.226562 2.804688 18.558594 2.71875 17.867188 Z M 29.375 17.867188 C 29.296875 18.558594 29.140625 19.226562 28.957031 19.882812 L 30.992188 20.296875 C 31.070312 20 31.15625 19.703125 31.21875 19.402344 C 31.292969 19.039062 31.363281 18.65625 31.414062 18.28125 L 29.378906 17.867188 Z M 3.300781 20.425781 L 1.398438 21.195312 C 1.523438 21.5625 1.632812 21.929688 1.78125 22.28125 C 1.90625 22.5625 2.03125 22.839844 2.171875 23.113281 L 4.078125 22.3125 C 3.765625 21.707031 3.515625 21.085938 3.300781 20.429688 Z M 28.796875 20.425781 C 28.582031 21.082031 28.335938 21.703125 28.023438 22.3125 L 29.925781 23.113281 C 30.0625 22.839844 30.195312 22.5625 30.3125 22.28125 C 30.464844 21.929688 30.578125 21.5625 30.703125 21.191406 Z M 4.335938 22.824219 L 2.625 23.945312 C 2.808594 24.265625 3 24.570312 3.203125 24.875 C 3.382812 25.136719 3.589844 25.390625 3.789062 25.640625 L 5.496094 24.519531 C 5.074219 23.992188 4.671875 23.414062 4.335938 22.824219 Z M 27.765625 22.824219 C 27.429688 23.417969 27.023438 23.992188 26.601562 24.519531 L 28.3125 25.640625 C 28.507812 25.390625 28.710938 25.136719 28.890625 24.875 C 29.101562 24.570312 29.289062 24.265625 29.476562 23.945312 Z M 5.851562 24.96875 L 4.429688 26.375 C 4.65625 26.632812 4.867188 26.90625 5.109375 27.144531 C 5.351562 27.382812 5.625 27.59375 5.882812 27.816406 L 7.304688 26.40625 C 6.78125 25.960938 6.296875 25.488281 5.851562 24.96875 Z M 26.246094 24.96875 C 25.796875 25.488281 25.320312 25.960938 24.792969 26.40625 L 26.210938 27.816406 C 26.472656 27.59375 26.742188 27.382812 26.988281 27.144531 C 27.230469 26.90625 27.441406 26.632812 27.664062 26.375 Z M 7.753906 26.757812 L 6.625 28.453125 C 6.878906 28.648438 7.132812 28.851562 7.398438 29.03125 C 7.707031 29.238281 8.015625 29.421875 8.335938 29.609375 L 9.460938 27.914062 C 8.867188 27.578125 8.289062 27.179688 7.753906 26.761719 Z M 24.339844 26.757812 C 23.804688 27.179688 23.226562 27.578125 22.632812 27.914062 L 23.757812 29.609375 C 24.078125 29.421875 24.386719 29.238281 24.695312 29.03125 C 24.960938 28.851562 25.214844 28.648438 25.46875 28.453125 Z M 9.976562 28.167969 L 9.171875 30.054688 C 9.445312 30.195312 9.726562 30.320312 10.011719 30.441406 C 10.367188 30.589844 10.738281 30.703125 11.109375 30.824219 L 11.882812 28.9375 C 11.21875 28.722656 10.59375 28.476562 9.980469 28.167969 Z M 22.113281 28.167969 C 21.5 28.476562 20.871094 28.722656 20.207031 28.9375 L 20.984375 30.824219 C 21.351562 30.703125 21.722656 30.589844 22.082031 30.441406 C 22.367188 30.320312 22.640625 30.195312 22.921875 30.054688 Z M 12.429688 29.09375 L 12.011719 31.109375 C 12.3125 31.191406 12.609375 31.273438 12.914062 31.335938 C 13.28125 31.414062 13.667969 31.476562 14.046875 31.527344 L 14.460938 29.511719 C 13.765625 29.429688 13.09375 29.28125 12.429688 29.097656 Z M 19.660156 29.09375 C 19 29.28125 18.328125 29.429688 17.625 29.511719 L 18.046875 31.527344 C 18.421875 31.476562 18.804688 31.40625 19.179688 31.335938 C 19.484375 31.273438 19.78125 31.1875 20.078125 31.109375 Z M 15.015625 29.574219 L 15.015625 31.625 C 15.355469 31.648438 15.695312 31.65625 16.046875 31.65625 C 16.398438 31.65625 16.734375 31.648438 17.078125 31.625 L 17.078125 29.574219 C 16.742188 29.601562 16.390625 29.609375 16.046875 29.609375 C 15.699219 29.609375 15.351562 29.601562 15.015625 29.574219 Z M 15.015625 29.574219 "/><path fill-rule="nonzero" fill="rgb(100%, 100%, 100%)" fill-opacity="1" d="M 16.15625 7.007812 C 11.265625 7.007812 7.304688 11.027344 7.304688 15.984375 C 7.304688 20.9375 11.265625 24.960938 16.15625 24.960938 C 21.039062 24.960938 25.007812 20.9375 25.007812 15.984375 C 25.007812 11.027344 21.039062 7.007812 16.15625 7.007812 Z M 16.15625 7.757812 C 20.632812 7.757812 24.265625 11.4375 24.265625 15.984375 C 24.265625 20.53125 20.632812 24.210938 16.15625 24.210938 C 11.671875 24.210938 8.039062 20.53125 8.039062 15.984375 C 8.039062 11.4375 11.671875 7.757812 16.15625 7.757812 Z M 16.15625 8.507812 C 12.078125 8.507812 8.777344 11.851562 8.777344 15.984375 C 8.777344 20.117188 12.078125 23.460938 16.15625 23.460938 C 20.226562 23.460938 23.53125 20.117188 23.53125 15.984375 C 23.53125 11.851562 20.226562 8.507812 16.15625 8.507812 Z M 16.15625 9.253906 C 19.820312 9.253906 22.792969 12.265625 22.792969 15.984375 C 22.792969 19.703125 19.820312 22.714844 16.15625 22.714844 C 12.484375 22.714844 9.515625 19.703125 9.515625 15.984375 C 9.515625 12.265625 12.488281 9.253906 16.15625 9.253906 Z M 16.15625 10 C 12.894531 10 10.25 12.679688 10.25 15.984375 C 10.25 19.289062 12.894531 21.96875 16.15625 21.96875 C 19.414062 21.96875 22.054688 19.289062 22.054688 15.984375 C 22.054688 12.679688 19.414062 10 16.15625 10 Z M 16.15625 10.75 C 19.007812 10.75 21.316406 13.09375 21.316406 15.984375 C 21.316406 18.875 19.007812 21.21875 16.15625 21.21875 C 13.300781 21.21875 10.992188 18.875 10.992188 15.984375 C 10.992188 13.09375 13.300781 10.75 16.15625 10.75 Z M 16.15625 10.75 "/><path fill-rule="nonzero" fill="rgb(100%, 100%, 100%)" fill-opacity="1" d="M 10.644531 6.265625 C 10.414062 6.398438 10.195312 6.53125 9.976562 6.683594 C 9.785156 6.8125 9.601562 6.960938 9.421875 7.101562 L 10.230469 8.34375 C 10.613281 8.039062 11.023438 7.746094 11.453125 7.5 Z M 22.078125 23.625 C 21.695312 23.933594 21.28125 24.226562 20.855469 24.46875 L 21.664062 25.710938 C 21.890625 25.570312 22.109375 25.4375 22.332031 25.289062 C 22.523438 25.15625 22.703125 25.007812 22.882812 24.867188 Z M 22.078125 23.625 "/><path fill-rule="nonzero" fill="rgb(100%, 100%, 100%)" fill-opacity="1" d="M 24.914062 9.160156 L 23.691406 9.976562 C 23.992188 10.367188 24.28125 10.785156 24.523438 11.21875 L 25.742188 10.398438 C 25.609375 10.164062 25.476562 9.945312 25.328125 9.71875 C 25.199219 9.527344 25.054688 9.34375 24.914062 9.160156 Z M 7.789062 20.75 L 6.5625 21.570312 C 6.695312 21.804688 6.832031 22.023438 6.976562 22.25 C 7.109375 22.441406 7.253906 22.625 7.394531 22.808594 L 8.617188 21.992188 C 8.316406 21.601562 8.023438 21.183594 7.789062 20.75 Z M 7.789062 20.75 "/><path fill-rule="nonzero" fill="rgb(100%, 100%, 100%)" fill-opacity="1" d="M 5.480469 13.058594 C 5.421875 13.273438 5.363281 13.492188 5.320312 13.714844 C 5.265625 13.984375 5.21875 14.257812 5.179688 14.53125 L 6.632812 14.835938 C 6.691406 14.328125 6.800781 13.84375 6.933594 13.363281 Z M 25.671875 17.128906 C 25.617188 17.632812 25.503906 18.121094 25.375 18.601562 L 26.828125 18.902344 C 26.882812 18.6875 26.945312 18.46875 26.988281 18.25 C 27.039062 17.984375 27.089844 17.703125 27.125 17.429688 L 25.675781 17.128906 Z M 25.671875 17.128906 "/><path fill-rule="nonzero" fill="rgb(100%, 100%, 100%)" fill-opacity="1" d="M 17.585938 4.859375 L 17.28125 6.332031 C 17.78125 6.390625 18.265625 6.503906 18.734375 6.632812 L 19.039062 5.164062 C 18.820312 5.105469 18.609375 5.046875 18.390625 5 C 18.125 4.945312 17.851562 4.898438 17.585938 4.859375 Z M 13.570312 25.335938 L 13.273438 26.804688 C 13.484375 26.863281 13.699219 26.921875 13.917969 26.96875 C 14.179688 27.023438 14.453125 27.070312 14.726562 27.109375 L 15.023438 25.640625 C 14.523438 25.578125 14.046875 25.46875 13.570312 25.335938 Z M 13.570312 25.335938 "/><path fill-rule="nonzero" fill="rgb(100%, 100%, 100%)" fill-opacity="1" d="M 7.398438 9.160156 C 7.257812 9.34375 7.109375 9.527344 6.984375 9.71875 C 6.835938 9.945312 6.699219 10.164062 6.570312 10.398438 L 7.789062 11.21875 C 8.03125 10.78125 8.320312 10.367188 8.617188 9.976562 Z M 24.523438 20.75 C 24.285156 21.1875 23.996094 21.601562 23.695312 21.992188 L 24.914062 22.808594 C 25.054688 22.625 25.203125 22.441406 25.335938 22.25 C 25.480469 22.023438 25.617188 21.804688 25.75 21.570312 Z M 24.523438 20.75 "/><path fill-rule="nonzero" fill="rgb(100%, 100%, 100%)" fill-opacity="1" d="M 21.664062 6.265625 L 20.855469 7.5 C 21.28125 7.742188 21.695312 8.039062 22.078125 8.34375 L 22.882812 7.101562 C 22.703125 6.960938 22.523438 6.8125 22.332031 6.679688 C 22.109375 6.53125 21.890625 6.398438 21.664062 6.257812 Z M 10.230469 23.625 L 9.421875 24.867188 C 9.601562 25.007812 9.785156 25.15625 9.976562 25.289062 C 10.195312 25.4375 10.414062 25.574219 10.644531 25.710938 L 11.453125 24.46875 C 11.023438 24.226562 10.613281 23.933594 10.230469 23.628906 Z M 10.230469 23.625 "/><path fill-rule="nonzero" fill="rgb(100%, 100%, 100%)" fill-opacity="1" d="M 26.828125 13.058594 L 25.375 13.363281 C 25.507812 13.84375 25.617188 14.328125 25.671875 14.835938 L 27.125 14.53125 C 27.089844 14.257812 27.039062 13.984375 26.984375 13.714844 C 26.941406 13.492188 26.882812 13.273438 26.824219 13.058594 Z M 6.632812 17.128906 L 5.179688 17.429688 C 5.21875 17.703125 5.265625 17.984375 5.320312 18.25 C 5.367188 18.46875 5.421875 18.6875 5.484375 18.902344 L 6.9375 18.601562 C 6.804688 18.121094 6.695312 17.632812 6.632812 17.128906 Z M 6.632812 17.128906 "/></g></svg>
