<svg width="64" height="64" viewBox="0 0 64 64" version="1.1"><defs><linearGradient id="linear-pattern-0" gradientUnits="userSpaceOnUse" x1="0" y1="0" x2="0" y2="1" gradientTransform="matrix(60, 0, 0, 56, 0, 4)"><stop offset="0" stop-color="#6926fc" stop-opacity="1"/><stop offset="1" stop-color="#3702ab" stop-opacity="1"/></linearGradient></defs><path fill="url(#linear-pattern-0)" fill-opacity="1" d="M 36.21875 2.050781 L 62.027344 27.605469 C 64.402344 29.957031 64.417969 33.785156 62.058594 36.15625 L 36.460938 61.917969 C 34.105469 64.289062 30.269531 64.304688 27.894531 61.949219 L 2.085938 36.394531 C -0.289062 34.042969 -0.304688 30.214844 2.050781 27.84375 L 27.652344 2.082031 C 30.007812 -0.289062 33.84375 -0.304688 36.21875 2.050781 Z M 36.21875 2.050781 " /><g transform="matrix(1.0075098,0,0,1.0032698,16.221436,16.077397)"><path fill-rule="nonzero" fill="rgb(100%, 100%, 100%)" fill-opacity="1" d="M 4.1875 0.96875 C 1.828125 0.96875 0.648438 3.253906 0.648438 5.5 C 0.648438 11.539062 6.140625 31.164062 10.085938 31.164062 C 13.625 31.164062 14.804688 27.15625 15.984375 20.59375 C 17.164062 27.15625 18.34375 31.164062 21.882812 31.164062 C 25.828125 31.164062 31.320312 11.539062 31.320312 5.5 C 31.320312 3.253906 30.140625 0.96875 27.78125 0.96875 C 24.832031 0.96875 23.503906 8.515625 21.882812 13.046875 C 20.703125 8.515625 19.117188 0.96875 15.984375 0.96875 C 12.851562 0.96875 11.265625 8.515625 10.085938 13.046875 C 8.464844 8.515625 7.136719 0.96875 4.1875 0.96875 Z M 4.1875 0.96875 "/></g></svg>
