<svg width="64" height="64" viewBox="0 0 64 64" version="1.1"><defs><linearGradient id="linear-pattern-0" gradientUnits="userSpaceOnUse" x1="0" y1="0" x2="0" y2="1" gradientTransform="matrix(60, 0, 0, 56, 0, 4)"><stop offset="0" stop-color="#3067ff" stop-opacity="1"/><stop offset="1" stop-color="#002ca6" stop-opacity="1"/></linearGradient></defs><path fill="url(#linear-pattern-0)" fill-opacity="1" d="M 36.21875 2.050781 L 62.027344 27.605469 C 64.402344 29.957031 64.417969 33.785156 62.058594 36.15625 L 36.460938 61.917969 C 34.105469 64.289062 30.269531 64.304688 27.894531 61.949219 L 2.085938 36.394531 C -0.289062 34.042969 -0.304688 30.214844 2.050781 27.84375 L 27.652344 2.082031 C 30.007812 -0.289062 33.84375 -0.304688 36.21875 2.050781 Z M 36.21875 2.050781 " /><g transform="matrix(1.0075098,0,0,1.0032698,16.221436,16.077397)"><path fill-rule="nonzero" fill="rgb(100%, 100%, 100%)" fill-opacity="1" d="M 12.640625 0.425781 C 11.9375 0.425781 11.40625 0.734375 11.070312 1.164062 C 10.726562 1.585938 10.59375 2.113281 10.601562 2.570312 C 10.628906 3.523438 11.175781 4.339844 11.960938 4.96875 L 3.414062 13.0625 C 1.742188 17.679688 2.617188 22.960938 6.175781 26.878906 C 8.109375 28.992188 10.972656 30.632812 14.261719 31.054688 C 16.035156 31.28125 17.0625 31.292969 18.726562 30.976562 C 22.078125 30.34375 24.960938 28.546875 26.765625 26.25 C 30.109375 22.125 30.667969 16.710938 28.597656 12.101562 C 28.320312 11.550781 28.078125 10.933594 27.53125 10.511719 C 27.171875 10.308594 26.691406 10.238281 26.257812 10.21875 C 26.539062 9.753906 26.378906 9.21875 25.957031 8.851562 C 24.679688 7.171875 22.84375 5.679688 20.597656 4.859375 C 21.3125 4.242188 21.84375 3.472656 21.875 2.570312 C 21.878906 2.109375 21.703125 1.585938 21.363281 1.164062 C 21.027344 0.734375 20.492188 0.425781 19.789062 0.425781 C 19.554688 0.425781 19.328125 0.457031 19.109375 0.574219 C 18.890625 0.6875 18.679688 0.910156 18.679688 1.164062 C 18.710938 1.257812 18.6875 1.328125 18.679688 1.421875 C 18.679688 1.703125 19 1.941406 19.363281 1.941406 C 19.714844 1.941406 20 1.703125 20 1.421875 C 20 1.140625 19.714844 0.910156 19.363281 0.90625 C 19.484375 0.839844 19.65625 0.796875 19.789062 0.796875 C 20.304688 0.796875 20.664062 1.039062 20.9375 1.382812 C 21.214844 1.730469 21.367188 2.1875 21.363281 2.566406 C 21.347656 3.414062 20.859375 4.132812 20.132812 4.710938 C 19.875 4.628906 19.632812 4.546875 19.367188 4.488281 C 18.179688 4.21875 16.96875 4.148438 15.75 4.15625 C 14.601562 4.191406 13.492188 4.425781 12.429688 4.785156 C 11.648438 4.191406 11.089844 3.449219 11.070312 2.566406 C 11.0625 2.1875 11.21875 1.730469 11.496094 1.382812 C 11.773438 1.039062 12.132812 0.796875 12.640625 0.796875 C 12.777344 0.796875 12.945312 0.839844 13.070312 0.90625 C 12.71875 0.910156 12.472656 1.136719 12.472656 1.421875 C 12.472656 1.703125 12.757812 1.941406 13.109375 1.941406 C 13.476562 1.941406 13.75 1.703125 13.75 1.421875 C 13.742188 1.328125 13.726562 1.257812 13.75 1.164062 C 13.757812 0.910156 13.585938 0.6875 13.367188 0.574219 C 13.164062 0.457031 12.890625 0.425781 12.660156 0.425781 M 12.441406 7.480469 C 14.316406 10.136719 18.070312 13.335938 16.90625 15.128906 C 14.609375 18.671875 10.300781 18.46875 8.1875 15.128906 C 7.207031 13.578125 10.539062 10.183594 12.441406 7.480469 M 22.101562 15.90625 C 23.429688 17.796875 26.078125 20.058594 25.25 21.335938 C 23.609375 23.859375 20.539062 23.71875 19.039062 21.335938 C 18.335938 20.230469 20.75 17.828125 22.101562 15.90625 M 12.992188 23.03125 C 13.9375 24.390625 15.574219 25.914062 15.238281 26.914062 C 13.828125 28.578125 12.089844 28.5 10.8125 26.914062 C 10.53125 26.054688 12.015625 24.40625 12.992188 23.03125 "/></g></svg>
