<svg width="64" height="64" viewBox="0 0 64 64" version="1.1"><defs><linearGradient id="linear-pattern-0" gradientUnits="userSpaceOnUse" x1="0" y1="0" x2="0" y2="1" gradientTransform="matrix(60, 0, 0, 56, 0, 4)"><stop offset="0" stop-color="#ec7700" stop-opacity="1"/><stop offset="1" stop-color="#773c00" stop-opacity="1"/></linearGradient></defs><path fill="url(#linear-pattern-0)" fill-opacity="1" d="M 36.21875 2.050781 L 62.027344 27.605469 C 64.402344 29.957031 64.417969 33.785156 62.058594 36.15625 L 36.460938 61.917969 C 34.105469 64.289062 30.269531 64.304688 27.894531 61.949219 L 2.085938 36.394531 C -0.289062 34.042969 -0.304688 30.214844 2.050781 27.84375 L 27.652344 2.082031 C 30.007812 -0.289062 33.84375 -0.304688 36.21875 2.050781 Z M 36.21875 2.050781 " /><g transform="matrix(1.0075098,0,0,1.0032698,16.221436,16.077397)"><path fill-rule="nonzero" fill="rgb(100%, 100%, 100%)" fill-opacity="1" d="M 16 0 C 15.949219 0 15.898438 0.00390625 15.847656 0.0078125 C 7.101562 0.09375 0 7.234375 0 16 C 0 24.820312 7.179688 32 16 32 C 24.765625 32 31.90625 24.902344 31.992188 16.160156 C 31.996094 16.105469 32 16.054688 32 16 C 32 15.117188 31.28125 14.398438 30.398438 14.398438 C 29.515625 14.398438 28.800781 15.117188 28.800781 16 C 28.800781 23.085938 23.085938 28.800781 16 28.800781 C 8.914062 28.800781 3.199219 23.085938 3.199219 16 C 3.199219 8.914062 8.914062 3.199219 16 3.199219 C 16.882812 3.199219 17.601562 2.484375 17.601562 1.601562 C 17.601562 0.71875 16.882812 0 16 0 Z M 16 6.398438 C 15.949219 6.398438 15.898438 6.402344 15.847656 6.40625 C 10.632812 6.488281 6.398438 10.765625 6.398438 16 C 6.398438 21.28125 10.71875 25.601562 16 25.601562 C 21.226562 25.601562 25.503906 21.367188 25.589844 16.15625 C 25.59375 16.105469 25.601562 16.054688 25.601562 16 C 25.601562 15.117188 24.882812 14.398438 24 14.398438 C 23.117188 14.398438 22.398438 15.117188 22.398438 16 C 22.398438 19.554688 19.554688 22.398438 16 22.398438 C 12.445312 22.398438 9.601562 19.554688 9.601562 16 C 9.601562 12.445312 12.445312 9.601562 16 9.601562 C 16.882812 9.601562 17.601562 8.882812 17.601562 8 C 17.601562 7.117188 16.882812 6.398438 16 6.398438 Z M 16 12.800781 C 14.234375 12.800781 12.800781 14.234375 12.800781 16 C 12.800781 17.765625 14.234375 19.203125 16 19.203125 C 17.765625 19.203125 19.199219 17.765625 19.199219 16 C 19.199219 14.234375 17.765625 12.800781 16 12.800781 Z M 16 12.800781 "/></g></svg>
