<svg width="64" height="64" viewBox="0 0 64 64" version="1.1"><defs><linearGradient id="linear-pattern-0" gradientUnits="userSpaceOnUse" x1="0" y1="0" x2="0" y2="1" gradientTransform="matrix(60, 0, 0, 56, 0, 4)"><stop offset="0" stop-color="#aaaa00" stop-opacity="1"/><stop offset="1" stop-color="#5c5c00" stop-opacity="1"/></linearGradient></defs><path fill="url(#linear-pattern-0)" fill-opacity="1" d="M 36.21875 2.050781 L 62.027344 27.605469 C 64.402344 29.957031 64.417969 33.785156 62.058594 36.15625 L 36.460938 61.917969 C 34.105469 64.289062 30.269531 64.304688 27.894531 61.949219 L 2.085938 36.394531 C -0.289062 34.042969 -0.304688 30.214844 2.050781 27.84375 L 27.652344 2.082031 C 30.007812 -0.289062 33.84375 -0.304688 36.21875 2.050781 Z M 36.21875 2.050781 " /><g transform="matrix(1.0075098,0,0,1.0032698,16.221436,16.077397)"><path fill-rule="nonzero" fill="rgb(100%, 100%, 100%)" fill-opacity="1" d="M 16 0 C 10.921875 0.0078125 6.144531 2.425781 3.132812 6.515625 L 8.066406 15.054688 C 8.074219 14.984375 8.085938 14.90625 8.09375 14.832031 C 8.132812 14.570312 8.183594 14.304688 8.25 14.046875 C 8.316406 13.789062 8.394531 13.53125 8.484375 13.28125 C 8.5625 13.070312 8.648438 12.855469 8.746094 12.648438 C 8.765625 12.597656 8.789062 12.550781 8.8125 12.503906 C 8.902344 12.320312 9 12.148438 9.101562 11.972656 C 9.132812 11.914062 9.164062 11.859375 9.195312 11.804688 C 9.3125 11.621094 9.4375 11.4375 9.566406 11.265625 C 9.589844 11.230469 9.617188 11.191406 9.640625 11.15625 C 9.765625 10.992188 9.898438 10.835938 10.039062 10.679688 C 10.078125 10.632812 10.125 10.578125 10.167969 10.53125 C 10.289062 10.40625 10.410156 10.285156 10.539062 10.167969 C 10.613281 10.09375 10.6875 10.023438 10.765625 9.953125 C 10.875 9.863281 10.984375 9.777344 11.09375 9.695312 C 11.199219 9.609375 11.304688 9.53125 11.410156 9.453125 C 11.519531 9.378906 11.632812 9.304688 11.746094 9.234375 C 11.828125 9.179688 11.914062 9.125 12 9.070312 C 12.03125 9.054688 12.0625 9.039062 12.09375 9.023438 C 12.15625 8.988281 12.222656 8.953125 12.28125 8.921875 C 12.414062 8.851562 12.550781 8.789062 12.683594 8.726562 C 12.8125 8.667969 12.945312 8.609375 13.078125 8.5625 C 13.1875 8.515625 13.296875 8.476562 13.410156 8.4375 C 13.546875 8.390625 13.6875 8.34375 13.832031 8.304688 C 13.953125 8.273438 14.078125 8.242188 14.203125 8.210938 C 14.335938 8.179688 14.46875 8.15625 14.601562 8.132812 C 14.726562 8.109375 14.855469 8.085938 14.984375 8.070312 C 15.125 8.054688 15.265625 8.042969 15.40625 8.03125 C 15.523438 8.023438 15.648438 8.015625 15.765625 8.011719 C 15.84375 8.007812 15.921875 8 16 8 L 29.832031 8 C 26.976562 3.058594 21.707031 0.0078125 16 0 Z M 2.15625 8.011719 C 0.75 10.4375 0.0078125 13.195312 0 16 C 0 24.835938 7.164062 32 16 32 C 18.203125 31.992188 20.382812 31.53125 22.398438 30.644531 L 22.398438 20.796875 C 22.367188 20.835938 22.339844 20.875 22.3125 20.914062 C 22.242188 20.996094 22.171875 21.078125 22.101562 21.15625 C 22.003906 21.28125 21.898438 21.398438 21.796875 21.511719 C 21.714844 21.59375 21.632812 21.671875 21.546875 21.75 C 21.4375 21.859375 21.328125 21.964844 21.210938 22.066406 C 21.117188 22.140625 21.03125 22.210938 20.9375 22.28125 C 20.824219 22.371094 20.707031 22.460938 20.589844 22.546875 C 20.480469 22.621094 20.367188 22.695312 20.253906 22.765625 C 20.171875 22.820312 20.085938 22.875 20 22.929688 C 19.96875 22.945312 19.9375 22.960938 19.90625 22.976562 C 19.84375 23.011719 19.777344 23.046875 19.71875 23.078125 C 19.585938 23.148438 19.449219 23.210938 19.316406 23.273438 C 19.1875 23.332031 19.054688 23.390625 18.921875 23.4375 C 18.8125 23.484375 18.703125 23.523438 18.589844 23.5625 C 18.453125 23.609375 18.3125 23.65625 18.167969 23.695312 C 18.046875 23.726562 17.921875 23.757812 17.796875 23.789062 C 17.664062 23.820312 17.53125 23.84375 17.398438 23.867188 C 17.273438 23.890625 17.144531 23.914062 17.015625 23.929688 C 16.875 23.945312 16.734375 23.957031 16.59375 23.96875 C 16.476562 23.976562 16.351562 23.984375 16.234375 23.988281 C 16.15625 23.992188 16.078125 23.996094 16 24 C 15.902344 24 15.804688 23.996094 15.703125 23.992188 C 15.664062 23.988281 15.617188 23.984375 15.578125 23.984375 C 15.398438 23.976562 15.226562 23.953125 15.050781 23.933594 C 14.953125 23.921875 14.859375 23.914062 14.757812 23.898438 C 14.59375 23.871094 14.429688 23.835938 14.269531 23.800781 C 14.171875 23.78125 14.070312 23.757812 13.976562 23.734375 C 13.820312 23.691406 13.664062 23.648438 13.507812 23.59375 C 13.40625 23.5625 13.304688 23.527344 13.207031 23.492188 C 13.074219 23.4375 12.941406 23.382812 12.8125 23.324219 C 12.6875 23.273438 12.570312 23.21875 12.449219 23.164062 C 12.34375 23.109375 12.242188 23.050781 12.136719 22.992188 C 12.007812 22.921875 11.882812 22.851562 11.757812 22.773438 C 11.65625 22.707031 11.554688 22.640625 11.453125 22.570312 C 11.332031 22.488281 11.210938 22.398438 11.085938 22.308594 C 11.003906 22.242188 10.921875 22.171875 10.839844 22.101562 C 10.71875 22 10.601562 21.898438 10.488281 21.796875 C 10.40625 21.714844 10.328125 21.632812 10.25 21.546875 C 10.140625 21.4375 10.035156 21.328125 9.9375 21.210938 C 9.859375 21.117188 9.789062 21.03125 9.71875 20.9375 C 9.628906 20.824219 9.539062 20.707031 9.453125 20.589844 C 9.378906 20.480469 9.304688 20.367188 9.234375 20.25 C 9.179688 20.171875 9.125 20.085938 9.070312 20 L 8.976562 19.835938 Z M 20.796875 9.601562 C 20.835938 9.632812 20.875 9.660156 20.914062 9.6875 C 20.996094 9.757812 21.078125 9.828125 21.160156 9.898438 C 21.28125 9.996094 21.398438 10.101562 21.511719 10.203125 C 21.59375 10.285156 21.671875 10.367188 21.75 10.453125 C 21.859375 10.5625 21.964844 10.675781 22.066406 10.789062 C 22.140625 10.882812 22.210938 10.96875 22.28125 11.0625 C 22.371094 11.175781 22.460938 11.292969 22.546875 11.410156 C 22.621094 11.519531 22.695312 11.632812 22.765625 11.746094 C 22.820312 11.828125 22.875 11.914062 22.929688 12 C 22.945312 12.03125 22.960938 12.0625 22.976562 12.09375 C 23.011719 12.160156 23.046875 12.222656 23.078125 12.28125 C 23.148438 12.414062 23.210938 12.550781 23.273438 12.683594 C 23.332031 12.8125 23.390625 12.945312 23.4375 13.078125 C 23.484375 13.1875 23.523438 13.296875 23.5625 13.410156 C 23.609375 13.546875 23.65625 13.6875 23.695312 13.832031 C 23.726562 13.953125 23.757812 14.078125 23.789062 14.203125 C 23.820312 14.335938 23.84375 14.46875 23.867188 14.601562 C 23.890625 14.726562 23.914062 14.855469 23.929688 14.984375 C 23.9375 15.054688 23.949219 15.128906 23.957031 15.199219 C 23.960938 15.265625 23.96875 15.335938 23.96875 15.40625 C 23.976562 15.523438 23.984375 15.648438 23.988281 15.769531 C 23.992188 15.84375 23.996094 15.921875 24 16 L 24 29.828125 C 28.941406 26.976562 31.992188 21.707031 32 16 C 31.992188 13.796875 31.53125 11.617188 30.644531 9.601562 Z M 20.796875 9.601562 "/></g></svg>
