<svg width="64" height="64" viewBox="0 0 64 64" version="1.1"><defs><linearGradient id="linear-pattern-0" gradientUnits="userSpaceOnUse" x1="0" y1="0" x2="0" y2="1" gradientTransform="matrix(60, 0, 0, 56, 0, 4)"><stop offset="0" stop-color="#7795ab" stop-opacity="1"/><stop offset="1" stop-color="#3b4f5f" stop-opacity="1"/></linearGradient></defs><path fill="url(#linear-pattern-0)" fill-opacity="1" d="M 36.21875 2.050781 L 62.027344 27.605469 C 64.402344 29.957031 64.417969 33.785156 62.058594 36.15625 L 36.460938 61.917969 C 34.105469 64.289062 30.269531 64.304688 27.894531 61.949219 L 2.085938 36.394531 C -0.289062 34.042969 -0.304688 30.214844 2.050781 27.84375 L 27.652344 2.082031 C 30.007812 -0.289062 33.84375 -0.304688 36.21875 2.050781 Z M 36.21875 2.050781 " /><g transform="matrix(1.0075098,0,0,1.0032698,16.221436,16.077397)"><path fill-rule="nonzero" fill="rgb(100%, 100%, 100%)" fill-opacity="1" d="M 10.117188 1.140625 C 15.863281 1.1875 13.640625 13.703125 17.164062 21.242188 C 19.515625 19.984375 22.960938 14.960938 23.039062 11.1875 C 23.074219 9.554688 23.039062 7.421875 21.867188 7.421875 C 20.691406 7.421875 20.351562 7.75 18.929688 8.675781 C 18.34375 9.058594 18.371094 7.203125 18.929688 6.539062 C 20.960938 4.117188 23.039062 1.140625 26.566406 1.140625 C 28.914062 1.140625 31.269531 3.652344 31.269531 7.421875 C 31.269531 17.46875 18.339844 31.289062 14.8125 31.289062 C 10.117188 31.289062 8.9375 21.242188 4.828125 9.9375 C 3.664062 10.390625 2.273438 11.1875 1.300781 11.1875 C 1.03125 11.1875 0.710938 10.90625 0.710938 10.558594 L 0.710938 9.9375 C 0.710938 8.675781 6.585938 1.109375 10.117188 1.140625 Z M 10.117188 1.140625 "/></g></svg>
