<svg width="64" height="64" viewBox="0 0 64 64" version="1.1"><defs><linearGradient id="linear-pattern-0" gradientUnits="userSpaceOnUse" x1="0" y1="0" x2="0" y2="1" gradientTransform="matrix(60, 0, 0, 56, 0, 4)"><stop offset="0" stop-color="#ec7700" stop-opacity="1"/><stop offset="1" stop-color="#773c00" stop-opacity="1"/></linearGradient></defs><path fill="url(#linear-pattern-0)" fill-opacity="1" d="M 36.21875 2.050781 L 62.027344 27.605469 C 64.402344 29.957031 64.417969 33.785156 62.058594 36.15625 L 36.460938 61.917969 C 34.105469 64.289062 30.269531 64.304688 27.894531 61.949219 L 2.085938 36.394531 C -0.289062 34.042969 -0.304688 30.214844 2.050781 27.84375 L 27.652344 2.082031 C 30.007812 -0.289062 33.84375 -0.304688 36.21875 2.050781 Z M 36.21875 2.050781 " /><g transform="matrix(1.0075098,0,0,1.0032698,16.221436,16.077397)"><path fill-rule="nonzero" fill="rgb(100%, 100%, 100%)" fill-opacity="1" d="M 16.34375 0.792969 C 14.355469 0.757812 12.316406 1.113281 10.328125 1.917969 C 10.328125 1.917969 10.328125 1.917969 10.328125 1.921875 C 2.542969 5.085938 -0.625 12.335938 1.007812 19.960938 C 1.171875 20.71875 1.914062 21.199219 2.667969 21.039062 C 3.421875 20.875 3.90625 20.132812 3.742188 19.375 C 2.328125 12.765625 4.671875 7.242188 11.375 4.515625 L 11.378906 4.515625 C 17.925781 1.867188 25.070312 5.195312 27.664062 11.089844 C 27.664062 11.09375 27.664062 11.097656 27.667969 11.101562 C 29.585938 15.367188 29.367188 22.09375 23.699219 26.40625 C 17.917969 30.367188 10.652344 29.160156 6.46875 24.535156 C 6.304688 24.335938 6.292969 24.234375 6.316406 24.039062 C 6.34375 23.839844 6.476562 23.539062 6.695312 23.273438 L 14.84375 13.539062 C 14.851562 13.523438 14.859375 13.515625 14.867188 13.507812 C 15.179688 13.109375 15.195312 13.125 15.207031 13.085938 C 15.273438 13.15625 15.289062 13.15625 15.390625 13.296875 C 15.394531 13.304688 15.398438 13.304688 15.402344 13.3125 L 17.761719 16.527344 C 17.765625 16.53125 17.769531 16.539062 17.773438 16.546875 C 18.089844 16.957031 18.363281 17.285156 18.757812 17.574219 C 19.144531 17.859375 19.851562 18.125 20.5 17.921875 C 21.148438 17.71875 21.453125 17.296875 21.664062 16.972656 C 21.867188 16.671875 22.003906 16.371094 22.15625 16.054688 L 25.539062 19.984375 C 26.046875 20.570312 26.929688 20.632812 27.515625 20.128906 C 28.097656 19.625 28.164062 18.738281 27.660156 18.15625 L 24.046875 13.957031 C 24.03125 13.941406 24.015625 13.921875 24 13.90625 C 23.6875 13.578125 23.414062 13.304688 23.03125 13.0625 C 22.65625 12.824219 22 12.601562 21.375 12.796875 C 20.742188 12.992188 20.421875 13.414062 20.203125 13.75 C 20.039062 14 19.914062 14.273438 19.785156 14.554688 L 17.667969 11.667969 L 17.664062 11.667969 C 17.34375 11.21875 17.015625 10.84375 16.570312 10.546875 C 16.125 10.25 15.5 10.070312 14.929688 10.15625 C 13.789062 10.320312 13.234375 11.058594 12.679688 11.765625 L 4.550781 21.476562 C 4.546875 21.476562 4.546875 21.476562 4.546875 21.480469 C 4.050781 22.078125 3.660156 22.808594 3.546875 23.671875 C 3.429688 24.539062 3.664062 25.539062 4.308594 26.324219 C 4.320312 26.339844 4.335938 26.359375 4.351562 26.371094 C 9.460938 32.070312 18.382812 33.472656 25.3125 28.699219 C 25.332031 28.6875 25.351562 28.671875 25.367188 28.664062 C 32.148438 23.523438 32.628906 15.316406 30.21875 9.953125 C 27.820312 4.5 22.304688 0.898438 16.34375 0.792969 Z M 16.34375 0.792969 "/></g></svg>
