<svg width="64" height="64" viewBox="0 0 64 64" version="1.1"><defs><linearGradient id="linear-pattern-0" gradientUnits="userSpaceOnUse" x1="0" y1="0" x2="0" y2="1" gradientTransform="matrix(60, 0, 0, 56, 0, 4)"><stop offset="0" stop-color="#aaaa00" stop-opacity="1"/><stop offset="1" stop-color="#5c5c00" stop-opacity="1"/></linearGradient></defs><path fill="url(#linear-pattern-0)" fill-opacity="1" d="M 36.21875 2.050781 L 62.027344 27.605469 C 64.402344 29.957031 64.417969 33.785156 62.058594 36.15625 L 36.460938 61.917969 C 34.105469 64.289062 30.269531 64.304688 27.894531 61.949219 L 2.085938 36.394531 C -0.289062 34.042969 -0.304688 30.214844 2.050781 27.84375 L 27.652344 2.082031 C 30.007812 -0.289062 33.84375 -0.304688 36.21875 2.050781 Z M 36.21875 2.050781 " /><g transform="matrix(1.0075098,0,0,1.0032698,16.221436,16.077397)"><path fill-rule="nonzero" fill="rgb(100%, 100%, 100%)" fill-opacity="1" d="M 16.375 0.785156 C 14.398438 0.75 12.375 1.105469 10.398438 1.910156 C 10.398438 1.910156 10.398438 1.910156 10.398438 1.914062 C 2.652344 5.078125 -0.496094 12.332031 1.125 19.953125 C 1.289062 20.710938 2.027344 21.195312 2.777344 21.03125 C 3.53125 20.871094 4.007812 20.125 3.847656 19.367188 C 2.4375 12.757812 4.769531 7.234375 11.4375 4.507812 L 11.441406 4.507812 C 17.953125 1.859375 25.054688 5.1875 27.632812 11.085938 C 27.636719 11.085938 27.636719 11.09375 27.640625 11.09375 C 29.546875 15.359375 29.328125 22.085938 23.695312 26.398438 C 17.941406 30.363281 10.71875 29.15625 6.554688 24.53125 C 6.394531 24.328125 6.382812 24.234375 6.40625 24.035156 C 6.433594 23.835938 6.5625 23.535156 6.785156 23.265625 L 14.882812 13.53125 C 14.890625 13.519531 14.898438 13.507812 14.910156 13.5 C 15.222656 13.101562 15.234375 13.117188 15.25 13.078125 C 15.3125 13.148438 15.328125 13.148438 15.429688 13.289062 C 15.433594 13.296875 15.4375 13.300781 15.441406 13.304688 L 17.789062 16.523438 C 17.789062 16.527344 17.796875 16.53125 17.804688 16.539062 C 18.113281 16.953125 18.386719 17.28125 18.773438 17.570312 C 19.164062 17.855469 19.863281 18.117188 20.511719 17.914062 C 21.15625 17.710938 21.460938 17.289062 21.671875 16.96875 C 21.867188 16.664062 22.007812 16.367188 22.15625 16.046875 L 25.523438 19.980469 C 26.023438 20.5625 26.902344 20.628906 27.484375 20.125 C 28.066406 19.617188 28.132812 18.734375 27.632812 18.148438 L 24.039062 13.953125 C 24.023438 13.9375 24.007812 13.917969 23.992188 13.902344 C 23.679688 13.570312 23.40625 13.296875 23.03125 13.058594 C 22.65625 12.820312 22.003906 12.59375 21.378906 12.789062 C 20.75 12.988281 20.4375 13.40625 20.21875 13.742188 C 20.050781 13.996094 19.929688 14.269531 19.800781 14.546875 L 17.695312 11.664062 L 17.691406 11.664062 C 17.375 11.210938 17.046875 10.835938 16.601562 10.539062 C 16.160156 10.242188 15.539062 10.0625 14.96875 10.148438 C 13.835938 10.316406 13.289062 11.054688 12.734375 11.757812 L 4.652344 21.46875 C 4.648438 21.472656 4.648438 21.476562 4.648438 21.476562 C 4.15625 22.070312 3.765625 22.804688 3.648438 23.667969 C 3.539062 24.53125 3.773438 25.539062 4.40625 26.320312 C 4.421875 26.335938 4.4375 26.351562 4.449219 26.367188 C 9.53125 32.066406 18.40625 33.46875 25.296875 28.695312 C 25.316406 28.683594 25.332031 28.671875 25.347656 28.65625 C 32.09375 23.519531 32.570312 15.3125 30.171875 9.945312 C 27.789062 4.492188 22.304688 0.890625 16.375 0.785156 Z M 16.375 0.785156 "/></g></svg>
