<svg width="64" height="64" viewBox="0 0 64 64" version="1.1"><defs><linearGradient id="linear-pattern-0" gradientUnits="userSpaceOnUse" x1="0" y1="0" x2="0" y2="1" gradientTransform="matrix(60, 0, 0, 56, 0, 4)"><stop offset="0" stop-color="#8900e4" stop-opacity="1"/><stop offset="1" stop-color="#42006e" stop-opacity="1"/></linearGradient></defs><path fill="url(#linear-pattern-0)" fill-opacity="1" d="M 36.21875 2.050781 L 62.027344 27.605469 C 64.402344 29.957031 64.417969 33.785156 62.058594 36.15625 L 36.460938 61.917969 C 34.105469 64.289062 30.269531 64.304688 27.894531 61.949219 L 2.085938 36.394531 C -0.289062 34.042969 -0.304688 30.214844 2.050781 27.84375 L 27.652344 2.082031 C 30.007812 -0.289062 33.84375 -0.304688 36.21875 2.050781 Z M 36.21875 2.050781 " /><g transform="matrix(1.0075098,0,0,1.0032698,16.221436,16.077397)"><path fill-rule="nonzero" fill="rgb(100%, 100%, 100%)" fill-opacity="1" d="M 8.507812 0.945312 C 7.554688 0.945312 5.640625 3.984375 5.640625 3.984375 L 1.824219 9.800781 L 14.980469 9.800781 L 14.980469 0.945312 Z M 17.316406 0.945312 L 17.316406 9.800781 L 30.46875 9.800781 L 26.652344 3.984375 C 26.652344 3.984375 24.738281 0.945312 23.789062 0.945312 Z M 2.398438 12.328125 C 2.28125 12.328125 2.171875 12.328125 2.0625 12.335938 C 1.390625 12.367188 0.921875 12.554688 0.921875 13.320312 L 0.921875 29.515625 C 0.921875 30.539062 1.730469 31.375 2.757812 31.375 L 29.535156 31.375 C 30.570312 31.375 31.414062 30.539062 31.414062 29.515625 L 31.414062 13.320312 C 31.414062 12.296875 30.570312 12.335938 29.535156 12.335938 L 2.757812 12.335938 C 2.625 12.335938 2.507812 12.335938 2.394531 12.328125 Z M 23.1875 14.859375 L 24.949219 16.125 L 12.617188 28.144531 L 6.742188 23.148438 L 7.917969 21.1875 L 12.617188 24.980469 Z M 23.1875 14.859375 "/></g></svg>
