<svg width="64" height="64" viewBox="0 0 64 64" version="1.1"><defs><linearGradient id="linear-pattern-0" gradientUnits="userSpaceOnUse" x1="0" y1="0" x2="0" y2="1" gradientTransform="matrix(60, 0, 0, 56, 0, 4)"><stop offset="0" stop-color="#3067ff" stop-opacity="1"/><stop offset="1" stop-color="#002ca6" stop-opacity="1"/></linearGradient></defs><path fill="url(#linear-pattern-0)" fill-opacity="1" d="M 36.21875 2.050781 L 62.027344 27.605469 C 64.402344 29.957031 64.417969 33.785156 62.058594 36.15625 L 36.460938 61.917969 C 34.105469 64.289062 30.269531 64.304688 27.894531 61.949219 L 2.085938 36.394531 C -0.289062 34.042969 -0.304688 30.214844 2.050781 27.84375 L 27.652344 2.082031 C 30.007812 -0.289062 33.84375 -0.304688 36.21875 2.050781 Z M 36.21875 2.050781 " /><g transform="matrix(1.0075098,0,0,1.0032698,16.221436,16.077397)"><path fill-rule="nonzero" fill="rgb(100%, 100%, 100%)" fill-opacity="1" d="M 0 0 L 0 2.664062 L 16 2.664062 L 16 8 L 13.335938 8 L 13.335938 21.335938 L 0 21.335938 L 0 24 L 13.335938 24 L 13.335938 32 L 32 32 L 32 29.335938 L 16 29.335938 L 16 10.664062 L 32 10.664062 L 32 8 L 18.664062 8 L 18.664062 0 Z M 6.957031 6.375 L 5.039062 8.296875 L 7.417969 10.664062 L 0 10.664062 L 0 13.335938 L 7.417969 13.335938 L 5.039062 15.707031 L 6.960938 17.625 L 11.625 12.960938 L 12.542969 12 L 11.625 11.042969 Z M 25.039062 14.664062 L 19.457031 20.25 L 20.375 21.207031 L 25.039062 25.875 L 26.960938 24 L 24.335938 21.335938 L 32 21.335938 L 32 18.664062 L 24.835938 18.664062 L 26.957031 16.542969 Z M 25.039062 14.664062 "/></g></svg>
