<svg width="64" height="64" viewBox="0 0 64 64" version="1.1"><defs><linearGradient id="linear-pattern-0" gradientUnits="userSpaceOnUse" x1="0" y1="0" x2="0" y2="1" gradientTransform="matrix(60, 0, 0, 56, 0, 4)"><stop offset="0" stop-color="#aaaa00" stop-opacity="1"/><stop offset="1" stop-color="#5c5c00" stop-opacity="1"/></linearGradient></defs><path fill="url(#linear-pattern-0)" fill-opacity="1" d="M 36.21875 2.050781 L 62.027344 27.605469 C 64.402344 29.957031 64.417969 33.785156 62.058594 36.15625 L 36.460938 61.917969 C 34.105469 64.289062 30.269531 64.304688 27.894531 61.949219 L 2.085938 36.394531 C -0.289062 34.042969 -0.304688 30.214844 2.050781 27.84375 L 27.652344 2.082031 C 30.007812 -0.289062 33.84375 -0.304688 36.21875 2.050781 Z M 36.21875 2.050781 " /><g transform="matrix(1.0075098,0,0,1.0032698,16.221436,16.077397)"><path fill-rule="nonzero" fill="rgb(100%, 100%, 100%)" fill-opacity="1" d="M 8.519531 1.066406 C 5.835938 1.097656 3.871094 1 2.265625 1.890625 C 1.464844 2.328125 0.828125 3.078125 0.480469 4.015625 C 0.128906 4.953125 0 6.0625 0 7.46875 L 0 24.53125 C 0 25.9375 0.128906 27.046875 0.480469 27.984375 C 0.828125 28.921875 1.464844 29.671875 2.265625 30.109375 C 3.871094 31 5.835938 30.902344 8.519531 30.933594 L 23.480469 30.933594 C 26.164062 30.902344 28.128906 31 29.734375 30.109375 C 30.535156 29.671875 31.171875 28.921875 31.523438 27.984375 C 31.871094 27.046875 32 25.9375 32 24.53125 L 32 7.46875 C 32 6.0625 31.871094 4.953125 31.519531 4.015625 C 31.171875 3.078125 30.535156 2.328125 29.734375 1.890625 C 28.128906 1 26.164062 1.097656 23.480469 1.066406 Z M 24.699219 9.574219 C 24.929688 9.601562 25.140625 9.707031 25.25 9.859375 L 25.433594 10.101562 C 25.703125 10.460938 25.660156 11.15625 25.21875 11.484375 L 18.109375 15.710938 C 18.125 15.808594 18.132812 15.90625 18.132812 16 C 18.132812 16.761719 17.726562 17.464844 17.070312 17.84375 L 17.070312 23.46875 C 17.070312 24.058594 16.621094 24.53125 16.070312 24.53125 L 15.933594 24.53125 C 15.382812 24.53125 14.933594 24.058594 14.933594 23.46875 L 14.933594 17.84375 C 14.273438 17.460938 13.867188 16.757812 13.867188 16 C 13.867188 15.914062 13.875 15.832031 13.882812 15.75 L 8.914062 13.65625 C 8.476562 13.328125 8.429688 12.632812 8.699219 12.269531 L 8.882812 12.027344 C 9.109375 11.726562 9.703125 11.601562 10.148438 11.929688 L 15.148438 14.046875 C 15.417969 13.929688 15.707031 13.867188 16 13.867188 C 16.28125 13.867188 16.5625 13.921875 16.820312 14.03125 L 23.988281 9.757812 C 24.207031 9.59375 24.46875 9.546875 24.699219 9.574219 Z M 24.699219 9.574219 "/></g></svg>
