<svg width="64" height="64" viewBox="0 0 64 64" version="1.1"><defs><linearGradient id="linear-pattern-0" gradientUnits="userSpaceOnUse" x1="0" y1="0" x2="0" y2="1" gradientTransform="matrix(60, 0, 0, 56, 0, 4)"><stop offset="0" stop-color="#0288cf" stop-opacity="1"/><stop offset="1" stop-color="#01486e" stop-opacity="1"/></linearGradient></defs><path fill="url(#linear-pattern-0)" fill-opacity="1" d="M 36.21875 2.050781 L 62.027344 27.605469 C 64.402344 29.957031 64.417969 33.785156 62.058594 36.15625 L 36.460938 61.917969 C 34.105469 64.289062 30.269531 64.304688 27.894531 61.949219 L 2.085938 36.394531 C -0.289062 34.042969 -0.304688 30.214844 2.050781 27.84375 L 27.652344 2.082031 C 30.007812 -0.289062 33.84375 -0.304688 36.21875 2.050781 Z M 36.21875 2.050781 " /><g transform="matrix(1.0075098,0,0,1.0032698,16.221436,16.077397)"><path fill-rule="nonzero" fill="rgb(100%, 100%, 100%)" fill-opacity="1" d="M 28.257812 17.519531 C 31.734375 19.40625 33.019531 23.753906 31.132812 27.226562 C 29.242188 30.703125 24.898438 31.992188 21.421875 30.101562 C 17.945312 28.214844 16.660156 23.867188 18.546875 20.390625 C 20.4375 16.917969 24.78125 15.632812 28.257812 17.519531 Z M 28.257812 17.519531 "/><path fill-rule="nonzero" fill="rgb(53.333333%, 53.333333%, 53.333333%)" fill-opacity="1" d="M 10.578125 17.523438 C 14.054688 19.414062 15.339844 23.757812 13.453125 27.234375 C 11.5625 30.710938 7.21875 31.996094 3.742188 30.109375 C 0.265625 28.21875 -1.019531 23.875 0.867188 20.398438 C 2.757812 16.921875 7.101562 15.636719 10.578125 17.523438 Z M 10.578125 17.523438 "/><path fill-rule="nonzero" fill="rgb(61.176471%, 61.176471%, 61.176471%)" fill-opacity="1" d="M 19.554688 1.890625 C 23.03125 3.78125 24.316406 8.125 22.429688 11.601562 C 20.539062 15.078125 16.195312 16.363281 12.71875 14.476562 C 9.242188 12.585938 7.957031 8.242188 9.84375 4.765625 C 11.734375 1.289062 16.078125 0.00390625 19.554688 1.890625 Z M 19.554688 1.890625 "/></g></svg>
