<svg width="64" height="64" viewBox="0 0 64 64" version="1.1"><defs><linearGradient id="linear-pattern-0" gradientUnits="userSpaceOnUse" x1="0" y1="0" x2="0" y2="1" gradientTransform="matrix(60, 0, 0, 56, 0, 4)"><stop offset="0" stop-color="#6926fc" stop-opacity="1"/><stop offset="1" stop-color="#3702ab" stop-opacity="1"/></linearGradient></defs><path fill="url(#linear-pattern-0)" fill-opacity="1" d="M 36.21875 2.050781 L 62.027344 27.605469 C 64.402344 29.957031 64.417969 33.785156 62.058594 36.15625 L 36.460938 61.917969 C 34.105469 64.289062 30.269531 64.304688 27.894531 61.949219 L 2.085938 36.394531 C -0.289062 34.042969 -0.304688 30.214844 2.050781 27.84375 L 27.652344 2.082031 C 30.007812 -0.289062 33.84375 -0.304688 36.21875 2.050781 Z M 36.21875 2.050781 " /><g transform="matrix(1.0075098,0,0,1.0032698,16.221436,16.077397)"><path fill-rule="nonzero" fill="rgb(100%, 100%, 100%)" fill-opacity="1" d="M 30.804688 1.195312 C 29.21875 -0.398438 26.640625 -0.398438 25.046875 1.195312 L 20.246094 5.992188 L 18.921875 4.667969 C 18.226562 3.972656 17.09375 3.972656 16.398438 4.667969 C 15.703125 5.363281 15.703125 6.492188 16.398438 7.1875 L 17.726562 8.515625 L 2.96875 23.273438 C 2.242188 24 1.84375 24.929688 1.78125 25.878906 C 1.757812 26.265625 1.660156 26.984375 1.542969 27.757812 C 1.523438 27.886719 1.46875 28.007812 1.367188 28.109375 L 0.265625 29.214844 C -0.0859375 29.566406 -0.0859375 30.140625 0.265625 30.492188 L 1.507812 31.734375 C 1.859375 32.085938 2.433594 32.085938 2.789062 31.734375 L 3.890625 30.632812 C 3.992188 30.53125 4.109375 30.476562 4.242188 30.457031 C 5.015625 30.34375 5.734375 30.242188 6.121094 30.21875 C 7.070312 30.15625 8 29.757812 8.726562 29.03125 L 23.484375 14.273438 L 24.8125 15.601562 C 25.507812 16.296875 26.636719 16.296875 27.332031 15.601562 C 28.027344 14.90625 28.027344 13.773438 27.332031 13.078125 L 22.9375 8.679688 L 26.382812 11.375 L 30.804688 6.953125 C 32.398438 5.359375 32.398438 2.78125 30.804688 1.195312 Z M 21.351562 13.421875 L 14.054688 20.722656 C 13.695312 21.074219 13.125 21.074219 12.773438 20.722656 L 11.609375 19.558594 C 11.257812 19.203125 10.679688 19.203125 10.328125 19.5625 L 10.109375 19.777344 L 4.875 25.015625 C 4.753906 25.132812 4.582031 25.15625 4.492188 25.0625 C 4.398438 24.972656 4.421875 24.804688 4.542969 24.679688 L 13.015625 16.203125 L 13.019531 16.203125 L 18.578125 10.648438 C 18.929688 10.296875 19.503906 10.296875 19.859375 10.648438 L 21.351562 12.140625 C 21.703125 12.496094 21.703125 13.070312 21.351562 13.421875 Z M 21.351562 13.421875 "/></g></svg>
