<svg width="64" height="64" viewBox="0 0 64 64" version="1.1"><defs><linearGradient id="linear-pattern-0" gradientUnits="userSpaceOnUse" x1="0" y1="0" x2="0" y2="1" gradientTransform="matrix(60, 0, 0, 56, 0, 4)"><stop offset="0" stop-color="#6926fc" stop-opacity="1"/><stop offset="1" stop-color="#3702ab" stop-opacity="1"/></linearGradient></defs><path fill="url(#linear-pattern-0)" fill-opacity="1" d="M 36.21875 2.050781 L 62.027344 27.605469 C 64.402344 29.957031 64.417969 33.785156 62.058594 36.15625 L 36.460938 61.917969 C 34.105469 64.289062 30.269531 64.304688 27.894531 61.949219 L 2.085938 36.394531 C -0.289062 34.042969 -0.304688 30.214844 2.050781 27.84375 L 27.652344 2.082031 C 30.007812 -0.289062 33.84375 -0.304688 36.21875 2.050781 Z M 36.21875 2.050781 " /><g transform="matrix(1.0075098,0,0,1.0032698,16.221436,16.077397)"><path fill-rule="evenodd" fill="rgb(100%, 100%, 100%)" fill-opacity="1" d="M 14.054688 24.945312 C 13.988281 24.039062 13.953125 23.132812 13.953125 22.226562 C 13.953125 21.152344 14.054688 20.199219 14.164062 19.199219 L 10.875 19.199219 C 11.078125 19.949219 11.191406 20.890625 11.191406 22.074219 C 11.191406 23.257812 11.078125 24.195312 10.875 24.945312 Z M 4.808594 22.074219 C 4.808594 20.890625 4.921875 19.949219 5.125 19.199219 L 1.835938 19.199219 C 1.945312 20.199219 2.046875 21.152344 2.046875 22.226562 C 2.046875 23.296875 2 24.164062 1.945312 24.945312 L 5.125 24.945312 C 4.921875 24.195312 4.808594 23.257812 4.808594 22.074219 Z M 14.164062 26.222656 L 10.34375 26.222656 C 9.761719 27.15625 8.929688 27.5 8 27.5 C 7.070312 27.5 6.238281 27.15625 5.65625 26.222656 L 1.835938 26.222656 L 1.796875 26.578125 C 1.6875 27.695312 1.585938 28.75 1.585938 30.148438 C 1.585938 31.1875 2.382812 32 3.40625 32 L 12.59375 32 C 13.617188 32 14.414062 31.1875 14.414062 30.148438 C 14.414062 28.75 14.3125 27.695312 14.203125 26.578125 Z M 10.554688 3.296875 L 5.445312 3.296875 C 5.066406 3.296875 4.757812 2.988281 4.757812 2.605469 L 4.757812 1.96875 C 4.757812 0.882812 5.640625 0 6.726562 0 L 9.273438 0 C 10.359375 0 11.242188 0.882812 11.242188 1.96875 L 11.242188 2.605469 C 11.242188 2.988281 10.9375 3.296875 10.554688 3.296875 Z M 11.171875 9.789062 L 10.652344 4.5625 C 10.617188 4.566406 10.585938 4.574219 10.554688 4.574219 L 5.445312 4.574219 C 5.414062 4.574219 5.382812 4.566406 5.351562 4.5625 L 4.828125 9.789062 C 4.074219 10.476562 1.585938 12.929688 1.585938 15.46875 C 1.585938 16.367188 1.640625 17.164062 1.710938 17.921875 L 5.65625 17.921875 C 6.238281 16.988281 7.070312 16.648438 8 16.648438 C 8.929688 16.648438 9.761719 16.988281 10.34375 17.921875 L 14.292969 17.921875 C 14.359375 17.164062 14.414062 16.367188 14.414062 15.46875 C 14.414062 12.929688 11.925781 10.476562 11.171875 9.789062 Z M 30.054688 24.945312 C 29.988281 24.039062 29.953125 23.132812 29.953125 22.226562 C 29.953125 21.152344 30.054688 20.199219 30.164062 19.199219 L 26.875 19.199219 C 27.078125 19.949219 27.191406 20.890625 27.191406 22.074219 C 27.191406 23.257812 27.078125 24.195312 26.875 24.945312 Z M 20.808594 22.074219 C 20.808594 20.890625 20.921875 19.949219 21.125 19.199219 L 17.835938 19.199219 C 17.945312 20.199219 18.046875 21.152344 18.046875 22.226562 C 18.046875 23.296875 18 24.164062 17.945312 24.945312 L 21.125 24.945312 C 20.921875 24.195312 20.808594 23.257812 20.808594 22.074219 Z M 30.164062 26.222656 L 26.34375 26.222656 C 25.761719 27.15625 24.929688 27.5 24 27.5 C 23.070312 27.5 22.238281 27.15625 21.65625 26.222656 L 17.835938 26.222656 L 17.796875 26.578125 C 17.6875 27.695312 17.585938 28.75 17.585938 30.148438 C 17.585938 31.1875 18.382812 32 19.40625 32 L 28.59375 32 C 29.617188 32 30.414062 31.1875 30.414062 30.148438 C 30.414062 28.75 30.3125 27.695312 30.203125 26.578125 Z M 26.554688 3.296875 L 21.445312 3.296875 C 21.066406 3.296875 20.757812 2.988281 20.757812 2.605469 L 20.757812 1.96875 C 20.757812 0.882812 21.640625 0 22.726562 0 L 25.273438 0 C 26.359375 0 27.242188 0.882812 27.242188 1.96875 L 27.242188 2.605469 C 27.242188 2.988281 26.9375 3.296875 26.554688 3.296875 Z M 27.171875 9.789062 L 26.652344 4.5625 C 26.617188 4.566406 26.585938 4.574219 26.554688 4.574219 L 21.445312 4.574219 C 21.414062 4.574219 21.382812 4.566406 21.351562 4.5625 L 20.828125 9.789062 C 20.074219 10.476562 17.585938 12.929688 17.585938 15.46875 C 17.585938 16.367188 17.640625 17.164062 17.710938 17.921875 L 21.65625 17.921875 C 22.238281 16.988281 23.070312 16.648438 24 16.648438 C 24.929688 16.648438 25.761719 16.988281 26.34375 17.921875 L 30.292969 17.921875 C 30.359375 17.164062 30.414062 16.367188 30.414062 15.46875 C 30.414062 12.929688 27.925781 10.476562 27.171875 9.789062 Z M 27.171875 9.789062 "/></g></svg>
