<svg width="64" height="64" viewBox="0 0 64 64" version="1.1"><defs><linearGradient id="linear-pattern-0" gradientUnits="userSpaceOnUse" x1="0" y1="0" x2="0" y2="1" gradientTransform="matrix(60, 0, 0, 56, 0, 4)"><stop offset="0" stop-color="#00983a" stop-opacity="1"/><stop offset="1" stop-color="#004a1c" stop-opacity="1"/></linearGradient></defs><path fill="url(#linear-pattern-0)" fill-opacity="1" d="M 36.21875 2.050781 L 62.027344 27.605469 C 64.402344 29.957031 64.417969 33.785156 62.058594 36.15625 L 36.460938 61.917969 C 34.105469 64.289062 30.269531 64.304688 27.894531 61.949219 L 2.085938 36.394531 C -0.289062 34.042969 -0.304688 30.214844 2.050781 27.84375 L 27.652344 2.082031 C 30.007812 -0.289062 33.84375 -0.304688 36.21875 2.050781 Z M 36.21875 2.050781 " /><g transform="matrix(1.0075098,0,0,1.0032698,16.221436,16.077397)"><path fill-rule="nonzero" fill="rgb(100%, 100%, 100%)" fill-opacity="1" d="M 25.351562 9.351562 C 25.242188 9.351562 25.148438 9.457031 25.148438 9.585938 L 25.148438 11.007812 C 25.148438 11.144531 25.242188 11.246094 25.351562 11.246094 L 25.757812 11.246094 C 25.867188 11.246094 25.960938 11.140625 25.960938 11.007812 L 25.960938 9.585938 C 25.960938 9.457031 25.867188 9.351562 25.757812 9.351562 Z M 21.5625 11.195312 C 21.507812 11.195312 21.457031 11.222656 21.414062 11.265625 L 21.132812 11.597656 C 21.09375 11.644531 21.074219 11.703125 21.074219 11.769531 C 21.074219 11.832031 21.09375 11.890625 21.132812 11.9375 L 21.988281 12.941406 C 22.023438 12.984375 22.078125 13.011719 22.132812 13.011719 C 22.1875 13.011719 22.234375 12.984375 22.273438 12.941406 L 22.554688 12.605469 C 22.597656 12.5625 22.617188 12.503906 22.617188 12.4375 C 22.617188 12.375 22.597656 12.316406 22.554688 12.269531 L 21.703125 11.265625 C 21.664062 11.222656 21.617188 11.195312 21.5625 11.195312 Z M 29.546875 11.195312 C 29.492188 11.195312 29.441406 11.222656 29.40625 11.265625 L 28.550781 12.269531 C 28.515625 12.316406 28.492188 12.375 28.492188 12.4375 C 28.492188 12.503906 28.515625 12.5625 28.550781 12.605469 L 28.835938 12.941406 C 28.914062 13.03125 29.039062 13.03125 29.125 12.941406 L 29.976562 11.9375 C 30.015625 11.890625 30.035156 11.832031 30.035156 11.769531 C 30.035156 11.703125 30.015625 11.644531 29.976562 11.597656 L 29.691406 11.265625 C 29.648438 11.222656 29.601562 11.195312 29.546875 11.195312 Z M 25.554688 13.140625 C 23.996094 13.140625 22.730469 14.628906 22.730469 16.460938 C 22.730469 18.296875 23.996094 19.78125 25.554688 19.78125 C 27.117188 19.78125 28.378906 18.296875 28.378906 16.460938 C 28.378906 14.628906 27.117188 13.140625 25.554688 13.140625 Z M 19.703125 15.992188 C 19.59375 15.992188 19.503906 16.097656 19.503906 16.226562 L 19.503906 16.699219 C 19.503906 16.835938 19.59375 16.9375 19.703125 16.9375 L 20.914062 16.9375 C 21.023438 16.9375 21.117188 16.832031 21.117188 16.699219 L 21.117188 16.226562 C 21.117188 16.097656 21.023438 15.992188 20.914062 15.992188 Z M 30.195312 15.992188 C 30.082031 15.992188 29.992188 16.097656 29.992188 16.226562 L 29.992188 16.699219 C 29.992188 16.835938 30.082031 16.9375 30.195312 16.9375 L 31.402344 16.9375 C 31.515625 16.9375 31.601562 16.832031 31.601562 16.699219 L 31.601562 16.226562 C 31.601562 16.097656 31.515625 15.992188 31.402344 15.992188 Z M 22.132812 19.914062 C 22.078125 19.914062 22.03125 19.9375 21.988281 19.988281 L 21.132812 20.992188 C 21.09375 21.035156 21.074219 21.09375 21.074219 21.15625 C 21.074219 21.21875 21.09375 21.28125 21.132812 21.328125 L 21.414062 21.664062 C 21.453125 21.703125 21.507812 21.734375 21.5625 21.734375 C 21.617188 21.734375 21.664062 21.703125 21.703125 21.664062 L 22.554688 20.65625 C 22.597656 20.617188 22.617188 20.550781 22.617188 20.488281 C 22.617188 20.421875 22.597656 20.367188 22.554688 20.320312 L 22.273438 19.988281 C 22.234375 19.9375 22.1875 19.914062 22.132812 19.914062 Z M 28.976562 19.914062 C 28.921875 19.914062 28.875 19.945312 28.835938 19.988281 L 28.550781 20.320312 C 28.507812 20.367188 28.492188 20.421875 28.492188 20.488281 C 28.492188 20.550781 28.507812 20.617188 28.550781 20.65625 L 29.40625 21.664062 C 29.441406 21.703125 29.492188 21.734375 29.546875 21.734375 C 29.601562 21.734375 29.65625 21.703125 29.691406 21.664062 L 29.976562 21.328125 C 30.015625 21.28125 30.035156 21.21875 30.035156 21.15625 C 30.035156 21.09375 30.015625 21.035156 29.976562 20.992188 L 29.125 19.988281 C 29.085938 19.9375 29.03125 19.914062 28.976562 19.914062 Z M 25.351562 21.679688 C 25.242188 21.679688 25.148438 21.789062 25.148438 21.917969 L 25.148438 23.34375 C 25.148438 23.472656 25.242188 23.578125 25.351562 23.578125 L 25.757812 23.578125 C 25.867188 23.578125 25.960938 23.46875 25.960938 23.34375 L 25.960938 21.917969 C 25.960938 21.789062 25.867188 21.679688 25.757812 21.679688 Z M 25.351562 21.679688 "/><path fill-rule="nonzero" fill="rgb(100%, 100%, 100%)" fill-opacity="1" d="M 6.570312 9.351562 C 3.238281 9.367188 0.546875 12.546875 0.546875 16.460938 C 0.546875 20.390625 3.253906 23.578125 6.59375 23.578125 C 7.6875 23.578125 8.757812 23.234375 9.691406 22.578125 C 9.46875 22.609375 9.242188 22.628906 9.015625 22.628906 C 6.117188 22.628906 3.773438 19.867188 3.773438 16.460938 C 3.773438 13.0625 6.117188 10.296875 9.015625 10.296875 C 9.242188 10.296875 9.464844 10.316406 9.6875 10.351562 C 8.75 9.695312 7.683594 9.351562 6.59375 9.351562 C 6.585938 9.351562 6.578125 9.351562 6.570312 9.351562 Z M 6.570312 9.351562 "/></g></svg>
