<svg width="64" height="64" viewBox="0 0 64 64" version="1.1"><defs><linearGradient id="linear-pattern-0" gradientUnits="userSpaceOnUse" x1="0" y1="0" x2="0" y2="1" gradientTransform="matrix(60, 0, 0, 56, 0, 4)"><stop offset="0" stop-color="#a67e50" stop-opacity="1"/><stop offset="1" stop-color="#644c30" stop-opacity="1"/></linearGradient></defs><path fill="url(#linear-pattern-0)" fill-opacity="1" d="M 36.21875 2.050781 L 62.027344 27.605469 C 64.402344 29.957031 64.417969 33.785156 62.058594 36.15625 L 36.460938 61.917969 C 34.105469 64.289062 30.269531 64.304688 27.894531 61.949219 L 2.085938 36.394531 C -0.289062 34.042969 -0.304688 30.214844 2.050781 27.84375 L 27.652344 2.082031 C 30.007812 -0.289062 33.84375 -0.304688 36.21875 2.050781 Z M 36.21875 2.050781 " /><g transform="matrix(1.0075098,0,0,1.0032698,16.221436,16.077397)"><path fill-rule="evenodd" fill="rgb(100%, 100%, 100%)" fill-opacity="1" d="M 6.285156 19.515625 L 12.441406 16.4375 L 6.285156 12.742188 Z M 8.398438 22.285156 L 15.921875 18.523438 L 16 18.570312 L 16.078125 18.523438 L 23.601562 22.285156 L 16 26.085938 Z M 25.714844 19.515625 L 19.558594 16.4375 L 25.714844 12.742188 Z M 23.871094 9.851562 L 16 14.570312 L 8.128906 9.851562 L 16 5.914062 Z M 2.855469 8.65625 L 16 2.085938 L 29.140625 8.65625 L 29.140625 23.34375 L 16 29.914062 L 2.855469 23.34375 Z M 2.855469 8.65625 "/><path fill-rule="evenodd" fill="rgb(100%, 100%, 100%)" fill-opacity="1" d="M 12 4 C 12 1.792969 13.792969 0 16 0 C 18.207031 0 20 1.792969 20 4 C 20 6.207031 18.207031 8 16 8 C 13.792969 8 12 6.207031 12 4 Z M 12 28 C 12 25.792969 13.792969 24 16 24 C 18.207031 24 20 25.792969 20 28 C 20 30.207031 18.207031 32 16 32 C 13.792969 32 12 30.207031 12 28 Z M 25.429688 6.25 C 27.339844 5.148438 29.789062 5.804688 30.890625 7.714844 C 31.996094 9.625 31.339844 12.074219 29.429688 13.179688 C 27.515625 14.28125 25.070312 13.625 23.964844 11.714844 C 22.859375 9.804688 23.515625 7.351562 25.429688 6.25 Z M 2.570312 18.820312 C 4.484375 17.71875 6.929688 18.375 8.035156 20.285156 C 9.140625 22.195312 8.484375 24.648438 6.570312 25.75 C 4.660156 26.851562 2.210938 26.195312 1.109375 24.285156 C 0.00390625 22.375 0.660156 19.925781 2.570312 18.820312 Z M 29.429688 18.820312 C 31.339844 19.925781 31.996094 22.375 30.890625 24.285156 C 29.789062 26.195312 27.339844 26.851562 25.429688 25.75 C 23.515625 24.648438 22.859375 22.195312 23.964844 20.285156 C 25.070312 18.375 27.515625 17.71875 29.429688 18.820312 Z M 6.570312 6.25 C 8.484375 7.351562 9.140625 9.804688 8.035156 11.714844 C 6.929688 13.625 4.484375 14.28125 2.570312 13.179688 C 0.660156 12.074219 0.00390625 9.625 1.109375 7.714844 C 2.210938 5.804688 4.660156 5.148438 6.570312 6.25 Z M 6.570312 6.25 "/></g></svg>
