<svg width="64" height="64" viewBox="0 0 64 64" version="1.1"><defs><linearGradient id="linear-pattern-0" gradientUnits="userSpaceOnUse" x1="0" y1="0" x2="0" y2="1" gradientTransform="matrix(60, 0, 0, 56, 0, 4)"><stop offset="0" stop-color="#00983a" stop-opacity="1"/><stop offset="1" stop-color="#004a1c" stop-opacity="1"/></linearGradient></defs><path fill="url(#linear-pattern-0)" fill-opacity="1" d="M 36.21875 2.050781 L 62.027344 27.605469 C 64.402344 29.957031 64.417969 33.785156 62.058594 36.15625 L 36.460938 61.917969 C 34.105469 64.289062 30.269531 64.304688 27.894531 61.949219 L 2.085938 36.394531 C -0.289062 34.042969 -0.304688 30.214844 2.050781 27.84375 L 27.652344 2.082031 C 30.007812 -0.289062 33.84375 -0.304688 36.21875 2.050781 Z M 36.21875 2.050781 " /><g transform="matrix(1.0075098,0,0,1.0032698,16.221436,16.077397)"><path fill-rule="evenodd" fill="rgb(100%, 100%, 100%)" fill-opacity="1" d="M 28.953125 24.382812 L 28.953125 12.1875 L 22.859375 12.1875 L 22.859375 24.382812 L 25.90625 24.382812 L 25.90625 27.429688 L 32 27.429688 L 32 24.382812 Z M 12.1875 10.664062 L 10.664062 10.664062 L 10.664062 7.617188 L 6.09375 7.617188 L 6.09375 24.382812 L 10.664062 24.382812 L 10.664062 21.335938 L 12.1875 21.335938 Z M 15.238281 10.664062 L 15.238281 7.617188 L 13.714844 7.617188 L 13.714844 4.570312 L 0 4.570312 L 0 27.429688 L 13.714844 27.429688 L 13.714844 24.382812 L 15.238281 24.382812 L 15.238281 21.335938 L 18.285156 21.335938 L 18.285156 10.664062 Z M 22.859375 4.570312 L 28.953125 4.570312 L 28.953125 7.617188 L 22.859375 7.617188 Z M 22.859375 4.570312 "/></g></svg>
