<svg width="64" height="64" viewBox="0 0 64 64" version="1.1"><defs><linearGradient id="linear-pattern-0" gradientUnits="userSpaceOnUse" x1="0" y1="0" x2="0" y2="1" gradientTransform="matrix(60, 0, 0, 56, 0, 4)"><stop offset="0" stop-color="#d00068" stop-opacity="1"/><stop offset="1" stop-color="#6e0037" stop-opacity="1"/></linearGradient></defs><path fill="url(#linear-pattern-0)" fill-opacity="1" d="M 36.21875 2.050781 L 62.027344 27.605469 C 64.402344 29.957031 64.417969 33.785156 62.058594 36.15625 L 36.460938 61.917969 C 34.105469 64.289062 30.269531 64.304688 27.894531 61.949219 L 2.085938 36.394531 C -0.289062 34.042969 -0.304688 30.214844 2.050781 27.84375 L 27.652344 2.082031 C 30.007812 -0.289062 33.84375 -0.304688 36.21875 2.050781 Z M 36.21875 2.050781 " /><g transform="matrix(1.0075098,0,0,1.0032698,16.221436,16.077397)"><path fill-rule="nonzero" fill="rgb(100%, 100%, 100%)" fill-opacity="1" d="M 0.71875 0.71875 L 4.992188 21.859375 L 16.101562 24.203125 L 27.207031 21.859375 L 31.476562 0.71875 Z M 2.429688 26.554688 L 0.71875 30.078125 C 0.71875 30.726562 1.484375 31.25 2.429688 31.25 L 29.773438 31.25 C 30.71875 31.25 31.476562 30.726562 31.476562 30.078125 L 31.476562 27.730469 C 31.476562 27.078125 30.71875 26.554688 29.773438 26.554688 Z M 14.390625 27.730469 L 29.773438 27.730469 L 29.773438 30.078125 L 14.390625 30.078125 Z M 14.390625 27.730469 "/><path fill-rule="nonzero" fill="rgb(0%, 0%, 0%)" fill-opacity="1" d="M 7.316406 5.34375 L 8.351562 12.5 L 19.929688 12.5 L 19.414062 16.375 L 15.609375 17.226562 L 11.53125 16.375 L 11.328125 14.886719 L 8.699219 14.886719 L 9.21875 18.164062 L 15.609375 19.65625 L 22.003906 18.164062 L 23.210938 10.117188 L 10.601562 10.117188 L 10.253906 7.734375 L 23.558594 7.734375 L 23.90625 5.34375 Z M 7.316406 5.34375 "/></g></svg>
