<svg width="64" height="64" viewBox="0 0 64 64" version="1.1"><defs><linearGradient id="linear-pattern-0" gradientUnits="userSpaceOnUse" x1="0" y1="0" x2="0" y2="1" gradientTransform="matrix(60, 0, 0, 56, 0, 4)"><stop offset="0" stop-color="#00a07f" stop-opacity="1"/><stop offset="1" stop-color="#005241" stop-opacity="1"/></linearGradient></defs><path fill="url(#linear-pattern-0)" fill-opacity="1" d="M 36.21875 2.050781 L 62.027344 27.605469 C 64.402344 29.957031 64.417969 33.785156 62.058594 36.15625 L 36.460938 61.917969 C 34.105469 64.289062 30.269531 64.304688 27.894531 61.949219 L 2.085938 36.394531 C -0.289062 34.042969 -0.304688 30.214844 2.050781 27.84375 L 27.652344 2.082031 C 30.007812 -0.289062 33.84375 -0.304688 36.21875 2.050781 Z M 36.21875 2.050781 " /><g transform="matrix(1.0075098,0,0,1.0032698,16.221436,16.077397)"><path fill-rule="nonzero" fill="rgb(100%, 100%, 100%)" fill-opacity="1" d="M 29.539062 29.703125 C 28.03125 30.464844 26.460938 31.035156 24.828125 31.421875 C 23.191406 31.808594 21.484375 32 19.710938 32 C 14.40625 32 10.207031 30.570312 7.109375 27.703125 C 4.007812 24.824219 2.460938 20.929688 2.460938 16.007812 C 2.460938 11.078125 4.007812 7.179688 7.109375 4.320312 C 10.207031 1.4375 14.40625 0 19.710938 0 C 21.484375 0 23.191406 0.191406 24.828125 0.578125 C 26.460938 0.964844 28.03125 1.535156 29.539062 2.296875 L 29.539062 8.9375 C 28.015625 7.929688 26.515625 7.195312 25.039062 6.726562 C 23.5625 6.257812 22.300781 6.023438 20.664062 6.023438 C 17.738281 6.023438 15.4375 6.929688 13.757812 8.75 C 12.082031 10.570312 11.242188 12.816406 11.242188 16.007812 C 11.242188 19.191406 12.082031 21.429688 13.757812 23.25 C 15.4375 25.070312 17.738281 25.976562 20.664062 25.976562 C 22.300781 25.976562 23.5625 25.742188 25.039062 25.273438 C 26.515625 24.804688 28.015625 24.070312 29.539062 23.0625 Z M 29.539062 29.703125 "/></g></svg>
