<svg width="64" height="64" viewBox="0 0 64 64" version="1.1"><defs><linearGradient id="linear-pattern-0" gradientUnits="userSpaceOnUse" x1="0" y1="0" x2="0" y2="1" gradientTransform="matrix(60, 0, 0, 56, 0, 4)"><stop offset="0" stop-color="#aaaa00" stop-opacity="1"/><stop offset="1" stop-color="#5c5c00" stop-opacity="1"/></linearGradient></defs><path fill="url(#linear-pattern-0)" fill-opacity="1" d="M 36.21875 2.050781 L 62.027344 27.605469 C 64.402344 29.957031 64.417969 33.785156 62.058594 36.15625 L 36.460938 61.917969 C 34.105469 64.289062 30.269531 64.304688 27.894531 61.949219 L 2.085938 36.394531 C -0.289062 34.042969 -0.304688 30.214844 2.050781 27.84375 L 27.652344 2.082031 C 30.007812 -0.289062 33.84375 -0.304688 36.21875 2.050781 Z M 36.21875 2.050781 " /><g transform="matrix(1.0075098,0,0,1.0032698,16.221436,16.077397)"><path fill-rule="nonzero" fill="rgb(100%, 100%, 100%)" fill-opacity="1" d="M 17.488281 0 C 36.164062 21.332031 31.003906 29.734375 2 25.203125 C 21.472656 24.5625 26.632812 16.160156 17.488281 0 M 17.488281 0 "/><path fill-rule="nonzero" fill="rgb(100%, 100%, 100%)" fill-opacity="1" d="M 16.199219 5.601562 C 2.414062 5.816406 -0.078125 12.148438 8.648438 24.578125 C 9.46875 24.4375 10.257812 24.296875 10.996094 24.121094 C 7.664062 13.101562 13.992188 7.308594 30 6.796875 C 24.558594 5.949219 19.957031 5.558594 16.1875 5.617188 M 9.769531 26.148438 C 11.132812 27.976562 12.695312 29.929688 14.507812 32 C 13.367188 29.980469 12.433594 28.082031 11.734375 26.300781 C 11.101562 26.265625 10.441406 26.207031 9.769531 26.148438 M 9.769531 26.148438 "/></g></svg>
