<svg width="64" height="64" viewBox="0 0 64 64" version="1.1"><defs><linearGradient id="linear-pattern-0" gradientUnits="userSpaceOnUse" x1="0" y1="0" x2="0" y2="1" gradientTransform="matrix(60, 0, 0, 56, 0, 4)"><stop offset="0" stop-color="#7795ab" stop-opacity="1"/><stop offset="1" stop-color="#3b4f5f" stop-opacity="1"/></linearGradient></defs><path fill="url(#linear-pattern-0)" fill-opacity="1" d="M 36.21875 2.050781 L 62.027344 27.605469 C 64.402344 29.957031 64.417969 33.785156 62.058594 36.15625 L 36.460938 61.917969 C 34.105469 64.289062 30.269531 64.304688 27.894531 61.949219 L 2.085938 36.394531 C -0.289062 34.042969 -0.304688 30.214844 2.050781 27.84375 L 27.652344 2.082031 C 30.007812 -0.289062 33.84375 -0.304688 36.21875 2.050781 Z M 36.21875 2.050781 " /><g transform="matrix(1.0075098,0,0,1.0032698,16.221436,16.077397)"><path fill-rule="nonzero" fill="rgb(100%, 100%, 100%)" fill-opacity="1" d="M 3.230469 0.769531 L 3.230469 7.757812 L 5.773438 7.757812 L 5.773438 3.101562 L 8.320312 3.101562 L 8.320312 0.769531 Z M 8.320312 3.101562 L 8.320312 5.429688 L 26.132812 5.429688 L 26.132812 3.101562 Z M 26.132812 3.101562 L 28.679688 3.101562 L 28.679688 7.757812 L 31.222656 7.757812 L 31.222656 0.769531 L 26.132812 0.769531 Z M 28.679688 7.757812 L 21.042969 7.757812 L 21.042969 10.089844 L 26.132812 10.089844 L 26.132812 14.75 L 28.679688 14.75 L 28.679688 17.078125 L 31.222656 17.078125 L 31.222656 10.089844 L 28.679688 10.089844 Z M 28.679688 17.078125 L 26.132812 17.078125 L 26.132812 19.410156 L 28.679688 19.410156 Z M 26.132812 19.410156 L 18.5 19.410156 L 18.5 17.078125 L 15.953125 17.078125 L 15.953125 19.410156 L 8.320312 19.410156 L 8.320312 21.738281 L 10.867188 21.738281 L 10.867188 24.070312 L 13.40625 24.070312 L 13.40625 21.738281 L 26.132812 21.738281 Z M 10.867188 24.070312 L 8.320312 24.070312 L 8.320312 28.726562 L 5.773438 28.726562 L 5.773438 31.058594 L 10.867188 31.058594 Z M 8.320312 19.410156 L 8.320312 17.078125 L 5.773438 17.078125 L 5.773438 19.410156 Z M 5.773438 17.078125 L 5.773438 14.75 L 8.320312 14.75 L 8.320312 10.089844 L 13.40625 10.089844 L 13.40625 7.757812 L 5.773438 7.757812 L 5.773438 10.089844 L 3.230469 10.089844 L 3.230469 12.421875 L 0.6875 12.421875 L 0.6875 14.75 L 3.230469 14.75 L 3.230469 17.078125 Z M 3.230469 17.078125 L 0.6875 17.078125 L 0.6875 19.410156 L 3.230469 19.410156 Z M 3.230469 10.089844 L 3.230469 7.757812 L 0.6875 7.757812 L 0.6875 10.089844 Z M 13.40625 10.089844 L 13.40625 14.75 L 15.953125 14.75 L 15.953125 10.089844 Z M 13.40625 14.75 L 8.320312 14.75 L 8.320312 17.078125 L 13.40625 17.078125 Z M 26.132812 17.078125 L 26.132812 14.75 L 21.042969 14.75 L 21.042969 17.078125 Z M 21.042969 14.75 L 21.042969 10.089844 L 18.5 10.089844 L 18.5 14.75 Z M 28.679688 24.070312 L 28.679688 26.398438 L 26.132812 26.398438 L 26.132812 31.058594 L 28.679688 31.058594 L 28.679688 28.726562 L 31.222656 28.726562 L 31.222656 24.070312 Z M 15.953125 26.398438 L 15.953125 31.058594 L 18.5 31.058594 L 18.5 26.398438 Z M 15.953125 26.398438 "/></g></svg>
