<svg width="64" height="64" viewBox="0 0 64 64" version="1.1"><defs><linearGradient id="linear-pattern-0" gradientUnits="userSpaceOnUse" x1="0" y1="0" x2="0" y2="1" gradientTransform="matrix(60, 0, 0, 56, 0, 4)"><stop offset="0" stop-color="#0288cf" stop-opacity="1"/><stop offset="1" stop-color="#01486e" stop-opacity="1"/></linearGradient></defs><path fill="url(#linear-pattern-0)" fill-opacity="1" d="M 36.21875 2.050781 L 62.027344 27.605469 C 64.402344 29.957031 64.417969 33.785156 62.058594 36.15625 L 36.460938 61.917969 C 34.105469 64.289062 30.269531 64.304688 27.894531 61.949219 L 2.085938 36.394531 C -0.289062 34.042969 -0.304688 30.214844 2.050781 27.84375 L 27.652344 2.082031 C 30.007812 -0.289062 33.84375 -0.304688 36.21875 2.050781 Z M 36.21875 2.050781 " /><g transform="matrix(1.0075098,0,0,1.0032698,16.221436,16.077397)"><path fill-rule="evenodd" fill="rgb(100%, 100%, 100%)" fill-opacity="1" d="M 4.570312 16 C 4.570312 9.691406 9.691406 4.570312 16 4.570312 C 22.308594 4.570312 27.429688 9.691406 27.429688 16 C 27.429688 22.308594 22.308594 27.429688 16 27.429688 C 9.691406 27.429688 4.570312 22.308594 4.570312 16 Z M 15.835938 0 L 15.820312 0.0078125 C 7.039062 0.105469 0 7.195312 0 16 C 0 24.863281 7.136719 32 16 32 C 24.730469 32 31.765625 25.074219 31.980469 16.398438 C 31.980469 16.398438 31.992188 16.125 32 16 L 32 3.429688 C 32 1.53125 30.46875 0 28.570312 0 Z M 17.570312 11.042969 C 17.515625 11.6875 17.085938 11.414062 16.617188 11.765625 C 16.492188 11.746094 16.351562 11.746094 16.15625 11.746094 C 16.117188 11.316406 16.261719 11.238281 16.332031 11.160156 C 16.617188 10.925781 16.820312 11.042969 16.820312 11.042969 C 17.03125 11.003906 17.230469 11.0625 17.570312 11.042969 Z M 18.648438 9.984375 L 18.019531 9.984375 L 18.019531 9.8125 L 17.679688 9.8125 L 17.679688 9.90625 C 17.640625 9.929688 17.605469 9.96875 17.570312 9.984375 L 17.535156 9.984375 C 16.941406 9.476562 16.90625 10.515625 16.511719 10.28125 C 16.476562 10.0625 16.492188 9.867188 16.492188 9.617188 C 17.175781 9.59375 16.921875 9.398438 16.726562 9.148438 C 16.65625 9.046875 16.617188 8.890625 16.601562 8.796875 C 16.4375 8.148438 15.773438 7.757812 14.808594 8.171875 C 14.179688 8.421875 14.34375 9.34375 14.398438 9.96875 C 14.359375 10.023438 14.289062 10.007812 14.234375 10.007812 C 13.554688 10.046875 13.25 10.828125 13.101562 11.453125 C 13.140625 12.019531 13.070312 12.648438 12.976562 13.191406 C 12.890625 13.742188 12.707031 14.171875 12.6875 14.695312 C 12.65625 15.164062 12.816406 15.714844 12.78125 16.144531 C 12.40625 17.355469 12.132812 18.15625 11.9375 19.445312 C 11.796875 19.742188 11.292969 20.363281 11.09375 20.5 C 11.039062 20.601562 11.132812 20.8125 11.039062 20.953125 C 10.882812 21.203125 10.628906 21.34375 10.484375 21.617188 C 10.519531 21.671875 10.265625 21.734375 10.289062 21.828125 C 10.304688 21.929688 10.429688 22.179688 10.484375 22.242188 C 10.5 22.28125 10.679688 22.179688 10.679688 22.242188 C 10.753906 22.476562 10.914062 22.964844 11.09375 23.082031 C 11.882812 23.179688 11.882812 23.179688 12.203125 23.082031 C 12.386719 22.515625 11.597656 22.765625 11.667969 22.007812 C 12.746094 21.773438 13.085938 21.4375 13.515625 20.207031 C 13.714844 19.3125 13.984375 18.429688 14.398438 17.570312 C 14.46875 17.511719 14.445312 17.355469 14.574219 17.296875 C 15.058594 18.175781 15.9375 18.804688 16.367188 19.71875 C 16.476562 20.914062 16.691406 21.554688 17.070312 21.773438 C 17.15625 21.8125 17.070312 22.179688 17.140625 22.257812 C 17.140625 22.378906 17.175781 22.515625 17.121094 22.652344 C 17.085938 22.75 17.105469 22.867188 17.105469 22.964844 L 17.105469 23.082031 C 17.121094 23.257812 17.15625 23.257812 17.320312 23.394531 C 17.785156 23.726562 18.414062 24.253906 19.042969 23.863281 C 19.328125 23.351562 18.71875 22.710938 18.289062 22.378906 C 18.148438 22.257812 17.894531 21.96875 17.929688 21.773438 C 18.164062 21.515625 18.324219 20.40625 18.234375 19.546875 C 18.195312 19.347656 18.164062 19.152344 18.089844 18.996094 C 17.875 18.546875 17.390625 17.921875 16.980469 17.472656 C 17.03125 17.414062 17.105469 17.335938 17.195312 17.296875 C 17.195312 16.867188 17.03125 16.730469 16.820312 16.417969 C 16.640625 16.101562 16.226562 15.5 15.921875 15.304688 C 15.921875 15.304688 15.921875 15.28125 15.617188 15.28125 C 15.597656 15.070312 15.652344 14.890625 15.703125 14.65625 C 15.703125 14.484375 15.832031 14.578125 15.867188 14.1875 C 15.953125 13.855469 15.921875 14.054688 15.992188 13.71875 C 16.0625 13.5625 16.101562 13.40625 16.101562 13.15625 C 16.367188 13.25 16.90625 13.234375 17.140625 13.15625 L 17.195312 13.191406 C 17.265625 13.210938 17.28125 13.09375 17.335938 13.078125 C 17.75 12.839844 17.894531 12.429688 18.234375 12.390625 C 18.234375 12.390625 18.414062 12.296875 18.679688 12.390625 C 18.789062 12.390625 18.882812 12.410156 18.882812 12.296875 C 18.898438 12.117188 18.898438 11.980469 18.992188 11.863281 C 19.0625 12.332031 19.257812 12.859375 19.617188 13.367188 L 19.976562 13.09375 C 19.632812 12.648438 19.421875 12.140625 19.382812 11.554688 C 19.398438 11.589844 19.421875 11.632812 19.453125 11.667969 C 19.582031 11.667969 19.652344 11.375 19.796875 11.394531 C 19.8125 11.355469 19.851562 11.179688 19.886719 11.042969 L 21.234375 11.042969 L 21.714844 10.925781 L 21.714844 10.652344 L 21.355469 10.613281 L 21.355469 10.300781 L 21.265625 10.300781 L 21.265625 9.945312 L 21.054688 9.945312 L 21.054688 10.28125 L 20.496094 10.242188 L 20.496094 10.023438 L 20.28125 10.023438 L 20.28125 10.222656 L 19.703125 10.164062 L 19.703125 9.867188 L 19.492188 9.867188 L 19.492188 10.144531 L 18.648438 10.085938 Z M 18.648438 9.984375 "/></g></svg>
