<svg width="64" height="64" viewBox="0 0 64 64" version="1.1"><defs><linearGradient id="linear-pattern-0" gradientUnits="userSpaceOnUse" x1="0" y1="0" x2="0" y2="1" gradientTransform="matrix(60, 0, 0, 56, 0, 4)"><stop offset="0" stop-color="#7795ab" stop-opacity="1"/><stop offset="1" stop-color="#3b4f5f" stop-opacity="1"/></linearGradient></defs><path fill="url(#linear-pattern-0)" fill-opacity="1" d="M 36.21875 2.050781 L 62.027344 27.605469 C 64.402344 29.957031 64.417969 33.785156 62.058594 36.15625 L 36.460938 61.917969 C 34.105469 64.289062 30.269531 64.304688 27.894531 61.949219 L 2.085938 36.394531 C -0.289062 34.042969 -0.304688 30.214844 2.050781 27.84375 L 27.652344 2.082031 C 30.007812 -0.289062 33.84375 -0.304688 36.21875 2.050781 Z M 36.21875 2.050781 " /><g transform="matrix(1.0075098,0,0,1.0032698,16.221436,16.077397)"><path fill-rule="nonzero" fill="rgb(100%, 100%, 100%)" fill-opacity="1" d="M 3.199219 5.335938 L 3.199219 11.734375 L 0 11.734375 L 0 26.664062 L 32 26.664062 L 32 11.734375 L 28.800781 11.734375 L 28.800781 5.335938 L 26.664062 5.335938 L 26.664062 11.734375 L 24.53125 11.734375 L 24.53125 5.335938 L 20.265625 5.335938 L 20.265625 11.734375 L 18.132812 11.734375 L 18.132812 5.335938 L 16 5.335938 L 16 11.734375 L 13.867188 11.734375 L 13.867188 5.335938 L 7.46875 5.335938 L 7.46875 11.734375 L 5.335938 11.734375 L 5.335938 5.335938 Z M 2.132812 13.867188 L 29.867188 13.867188 L 29.867188 24.53125 L 2.132812 24.53125 Z M 3.199219 14.933594 L 3.199219 22.398438 L 5.335938 22.398438 L 5.335938 14.933594 Z M 7.46875 14.933594 L 7.46875 22.398438 L 13.867188 22.398438 L 13.867188 14.933594 Z M 16 14.933594 L 16 22.398438 L 18.132812 22.398438 L 18.132812 14.933594 Z M 20.265625 14.933594 L 20.265625 22.398438 L 24.53125 22.398438 L 24.53125 14.933594 Z M 26.664062 14.933594 L 26.664062 22.398438 L 28.800781 22.398438 L 28.800781 14.933594 Z M 26.664062 14.933594 "/></g></svg>
