<svg width="64" height="64" viewBox="0 0 64 64" version="1.1"><defs><linearGradient id="linear-pattern-0" gradientUnits="userSpaceOnUse" x1="0" y1="0" x2="0" y2="1" gradientTransform="matrix(60, 0, 0, 56, 0, 4)"><stop offset="0" stop-color="#d00068" stop-opacity="1"/><stop offset="1" stop-color="#6e0037" stop-opacity="1"/></linearGradient></defs><path fill="url(#linear-pattern-0)" fill-opacity="1" d="M 36.21875 2.050781 L 62.027344 27.605469 C 64.402344 29.957031 64.417969 33.785156 62.058594 36.15625 L 36.460938 61.917969 C 34.105469 64.289062 30.269531 64.304688 27.894531 61.949219 L 2.085938 36.394531 C -0.289062 34.042969 -0.304688 30.214844 2.050781 27.84375 L 27.652344 2.082031 C 30.007812 -0.289062 33.84375 -0.304688 36.21875 2.050781 Z M 36.21875 2.050781 " /><g transform="matrix(1.0075098,0,0,1.0032698,16.221436,16.077397)"><path fill-rule="nonzero" fill="rgb(100%, 100%, 100%)" fill-opacity="1" d="M 23.835938 0.96875 C 22.664062 0.976562 21.640625 1.140625 20.941406 1.300781 C 20.851562 1.320312 20.785156 1.335938 20.707031 1.359375 C 22.789062 2.101562 24.320312 3.40625 25.382812 4.710938 C 26.179688 5.679688 26.714844 6.652344 27.039062 7.390625 C 27.195312 7.761719 27.304688 8.070312 27.359375 8.304688 C 27.390625 8.421875 27.410156 8.515625 27.417969 8.609375 C 27.421875 8.65625 27.425781 8.695312 27.410156 8.765625 C 27.40625 8.773438 27.40625 8.78125 27.398438 8.789062 C 27.441406 10.03125 27.109375 10.867188 27.066406 12.089844 C 27.039062 12.976562 27.269531 13.992188 27.328125 15.074219 C 27.382812 16.121094 27.257812 17.253906 26.523438 18.367188 C 26.53125 18.375 26.535156 18.382812 26.539062 18.390625 C 26.679688 18.554688 26.8125 18.703125 26.929688 18.859375 C 28.875 15.980469 30.265625 12.765625 31.007812 10.039062 C 31.390625 8.605469 31.597656 7.3125 31.613281 6.273438 C 31.632812 5.234375 31.4375 4.46875 31.140625 4.101562 C 29.046875 1.546875 26.164062 0.945312 23.835938 0.96875 M 16.78125 1.34375 C 15.078125 1.382812 13.824219 1.894531 12.867188 2.652344 C 11.851562 3.460938 11.179688 4.5625 10.742188 5.679688 C 10.15625 7.160156 9.984375 8.640625 9.9375 9.484375 C 10.039062 9.421875 10.15625 9.351562 10.28125 9.28125 C 10.796875 9.007812 11.476562 8.726562 12.195312 8.570312 C 12.558594 8.492188 12.929688 8.441406 13.292969 8.441406 C 13.65625 8.441406 14.015625 8.492188 14.351562 8.617188 C 15.023438 8.867188 15.578125 9.4375 15.789062 10.355469 C 16.820312 14.9375 15.484375 16.5625 14.960938 17.898438 C 14.691406 18.59375 14.457031 19.195312 14.382812 19.683594 C 14.554688 19.585938 14.714844 19.53125 14.871094 19.515625 C 15.171875 19.492188 15.414062 19.589844 15.578125 19.65625 C 15.582031 19.65625 15.582031 19.65625 15.585938 19.65625 C 16.015625 19.832031 16.34375 20.21875 16.515625 20.65625 C 16.613281 20.914062 16.664062 21.203125 16.625 21.480469 C 16.601562 22.21875 16.59375 22.945312 16.59375 23.648438 C 16.710938 24.328125 16.773438 25.160156 16.75 25.953125 C 16.730469 26.578125 16.710938 27.136719 16.71875 27.628906 C 16.742188 27.933594 16.773438 28.21875 16.800781 28.46875 C 16.867188 29.003906 16.953125 29.410156 17.023438 29.582031 C 17.210938 30.039062 17.492188 30.65625 18.039062 31.09375 C 18.582031 31.53125 19.382812 31.8125 20.742188 31.539062 C 21.898438 31.304688 22.640625 30.960938 23.140625 30.460938 C 23.648438 29.960938 23.941406 29.273438 24.117188 28.273438 C 24.390625 26.78125 24.914062 22.578125 24.992188 21.671875 C 24.992188 21.671875 24.992188 21.671875 24.992188 21.667969 C 24.957031 21.046875 25.046875 20.59375 25.234375 20.257812 C 25.429688 19.921875 25.71875 19.726562 25.976562 19.617188 C 26.214844 19.515625 26.421875 19.472656 26.542969 19.4375 C 26.46875 19.289062 26.308594 19.078125 26.0625 18.78125 C 25.761719 18.421875 25.398438 17.945312 25.105469 17.265625 C 25.0625 17.171875 24.914062 16.90625 24.710938 16.566406 C 24.515625 16.226562 24.269531 15.804688 24.007812 15.328125 C 23.492188 14.375 22.929688 13.21875 22.640625 12.117188 C 22.351562 11.007812 22.324219 9.898438 23.015625 9.140625 C 23.664062 8.429688 24.867188 8.160156 26.738281 8.386719 C 26.6875 8.199219 26.609375 7.953125 26.46875 7.636719 C 26.164062 6.945312 25.65625 6.023438 24.898438 5.09375 C 23.386719 3.25 20.921875 1.398438 17.132812 1.34375 C 17.015625 1.34375 16.898438 1.34375 16.78125 1.34375 M 7.117188 1.40625 C 6.929688 1.40625 6.738281 1.40625 6.546875 1.421875 C 5.019531 1.503906 3.546875 1.9375 2.496094 3.003906 C 1.445312 4.070312 0.773438 5.800781 0.921875 8.613281 C 0.949219 9.171875 1.1875 10.636719 1.601562 12.398438 C 2.015625 14.160156 2.601562 16.234375 3.304688 18.066406 C 4.007812 19.898438 4.851562 21.496094 5.703125 22.289062 C 6.125 22.683594 6.53125 22.871094 6.921875 22.855469 C 7.316406 22.839844 7.75 22.617188 8.242188 22.054688 C 9.507812 20.59375 10.628906 19.4375 11.007812 19.046875 C 9.730469 18.078125 8.953125 16.429688 9.214844 14.625 C 9.371094 13.5625 9.390625 12.570312 9.371094 11.792969 C 9.355469 11.070312 9.308594 10.5625 9.304688 10.265625 C 9.300781 10.246094 9.296875 10.226562 9.296875 10.203125 L 9.296875 10.1875 C 9.296875 10.1875 9.296875 10.179688 9.296875 10.175781 C 9.292969 10.03125 9.261719 7.753906 10.167969 5.457031 C 10.613281 4.335938 11.289062 3.195312 12.316406 2.320312 C 11.40625 2.015625 9.289062 1.398438 7.117188 1.40625 M 25.476562 8.90625 C 24.4375 8.921875 23.8125 9.183594 23.476562 9.550781 C 22.996094 10.078125 22.976562 10.941406 23.234375 11.960938 C 23.507812 12.984375 24.042969 14.101562 24.546875 15.035156 C 24.804688 15.5 25.050781 15.921875 25.25 16.261719 C 25.449219 16.597656 25.589844 16.84375 25.667969 17.023438 C 25.808594 17.34375 25.960938 17.609375 26.121094 17.835938 C 26.660156 16.921875 26.757812 16.023438 26.710938 15.109375 C 26.65625 14.09375 26.414062 13.070312 26.445312 12.070312 C 26.492188 10.828125 26.78125 10.023438 26.78125 8.992188 C 26.382812 8.9375 26.015625 8.910156 25.695312 8.90625 C 25.617188 8.90625 25.550781 8.90625 25.476562 8.90625 M 13.289062 9.054688 C 12.984375 9.054688 12.65625 9.097656 12.328125 9.171875 C 11.679688 9.3125 11.039062 9.578125 10.570312 9.828125 C 10.335938 9.953125 10.144531 10.070312 10.023438 10.167969 C 9.972656 10.210938 9.941406 10.242188 9.917969 10.261719 C 9.921875 10.476562 9.972656 11.015625 9.992188 11.78125 C 10.007812 12.582031 9.988281 13.601562 9.824219 14.710938 C 9.449219 17.28125 11.46875 19.421875 13.828125 19.320312 C 13.945312 18.796875 14.15625 18.257812 14.382812 17.675781 C 14.96875 16.171875 16.1875 14.941406 15.183594 10.492188 C 15.011719 9.734375 14.632812 9.375 14.132812 9.1875 C 13.882812 9.097656 13.597656 9.054688 13.289062 9.054688 M 25.09375 9.4375 C 25.195312 9.4375 25.289062 9.453125 25.375 9.46875 C 25.460938 9.488281 25.53125 9.515625 25.601562 9.558594 C 25.664062 9.601562 25.71875 9.671875 25.734375 9.757812 L 25.742188 9.757812 C 25.742188 9.757812 25.742188 9.761719 25.742188 9.765625 C 25.742188 9.765625 25.738281 9.765625 25.738281 9.765625 C 25.757812 9.859375 25.734375 9.945312 25.6875 10.015625 C 25.652344 10.101562 25.59375 10.175781 25.515625 10.25 C 25.367188 10.398438 25.152344 10.535156 24.898438 10.570312 L 24.890625 10.570312 C 24.640625 10.59375 24.414062 10.511719 24.242188 10.402344 C 24.164062 10.347656 24.09375 10.289062 24.039062 10.222656 C 23.984375 10.160156 23.945312 10.101562 23.921875 10.027344 L 23.921875 10.015625 C 23.90625 9.921875 23.945312 9.835938 24 9.773438 C 24.054688 9.710938 24.117188 9.667969 24.195312 9.625 C 24.347656 9.546875 24.546875 9.484375 24.773438 9.453125 C 24.882812 9.4375 24.992188 9.429688 25.09375 9.4375 M 13.347656 9.601562 C 13.457031 9.601562 13.570312 9.609375 13.691406 9.625 C 13.929688 9.65625 14.144531 9.71875 14.320312 9.8125 C 14.40625 9.859375 14.492188 9.90625 14.5625 9.992188 C 14.632812 10.070312 14.695312 10.210938 14.671875 10.355469 L 14.671875 10.367188 C 14.640625 10.496094 14.585938 10.570312 14.523438 10.640625 C 14.457031 10.71875 14.382812 10.789062 14.28125 10.851562 C 14.085938 10.984375 13.824219 11.078125 13.523438 11.039062 C 13.21875 11 12.988281 10.84375 12.820312 10.671875 C 12.738281 10.589844 12.667969 10.5 12.617188 10.402344 C 12.570312 10.3125 12.53125 10.214844 12.554688 10.066406 L 12.550781 10.066406 C 12.550781 10.0625 12.554688 10.058594 12.554688 10.054688 C 12.554688 10.050781 12.554688 10.046875 12.554688 10.042969 L 12.558594 10.042969 C 12.585938 9.90625 12.671875 9.804688 12.757812 9.75 C 12.84375 9.6875 12.9375 9.660156 13.03125 9.640625 C 13.132812 9.617188 13.234375 9.609375 13.347656 9.601562 M 26.898438 19.960938 C 26.859375 19.976562 26.820312 19.992188 26.785156 20.007812 C 26.585938 20.070312 26.394531 20.109375 26.21875 20.179688 C 26.039062 20.257812 25.890625 20.359375 25.773438 20.5625 C 25.667969 20.75 25.582031 21.054688 25.601562 21.535156 C 25.609375 21.574219 25.617188 21.613281 25.609375 21.652344 C 25.617188 21.664062 25.625 21.679688 25.65625 21.703125 C 25.703125 21.746094 25.8125 21.796875 25.953125 21.84375 C 26.242188 21.929688 26.679688 21.976562 27.164062 21.972656 C 28.140625 21.960938 29.316406 21.757812 29.976562 21.464844 C 30.835938 21.085938 31.523438 20.542969 31.71875 20.253906 C 31.734375 20.242188 31.726562 20.242188 31.734375 20.234375 C 31.640625 20.226562 31.496094 20.21875 31.25 20.265625 C 31.25 20.265625 31.25 20.265625 31.246094 20.265625 C 29.210938 20.671875 28.078125 20.550781 27.421875 20.289062 C 27.179688 20.195312 27.023438 20.078125 26.898438 19.960938 M 14.921875 20.132812 C 14.789062 20.140625 14.625 20.195312 14.382812 20.453125 C 14.367188 20.476562 14.347656 20.492188 14.328125 20.503906 C 13.84375 21.039062 13.644531 21.378906 13.273438 21.664062 C 12.882812 21.957031 12.367188 22.117188 11.273438 22.335938 C 10.75 22.4375 10.449219 22.570312 10.347656 22.648438 C 10.3125 22.679688 10.316406 22.679688 10.320312 22.679688 C 10.34375 22.71875 10.46875 22.835938 10.644531 22.929688 C 10.824219 23.023438 11.046875 23.101562 11.226562 23.140625 C 11.226562 23.140625 11.234375 23.140625 11.234375 23.140625 C 11.726562 23.257812 12.523438 23.398438 13.378906 23.257812 C 14.234375 23.117188 15.132812 22.710938 15.882812 21.707031 C 15.945312 21.625 15.984375 21.53125 16.007812 21.429688 C 16.007812 21.34375 16.007812 21.257812 16.011719 21.164062 C 16.011719 21.15625 16.011719 21.148438 16.011719 21.140625 C 16 21.054688 15.976562 20.96875 15.941406 20.878906 C 15.828125 20.578125 15.582031 20.316406 15.351562 20.226562 C 15.351562 20.222656 15.351562 20.226562 15.351562 20.226562 C 15.191406 20.160156 15.054688 20.117188 14.921875 20.128906 "/></g></svg>
