<svg width="64" height="64" viewBox="0 0 64 64" version="1.1"><defs><linearGradient id="linear-pattern-0" gradientUnits="userSpaceOnUse" x1="0" y1="0" x2="0" y2="1" gradientTransform="matrix(60, 0, 0, 56, 0, 4)"><stop offset="0" stop-color="#a67e50" stop-opacity="1"/><stop offset="1" stop-color="#644c30" stop-opacity="1"/></linearGradient></defs><path fill="url(#linear-pattern-0)" fill-opacity="1" d="M 36.21875 2.050781 L 62.027344 27.605469 C 64.402344 29.957031 64.417969 33.785156 62.058594 36.15625 L 36.460938 61.917969 C 34.105469 64.289062 30.269531 64.304688 27.894531 61.949219 L 2.085938 36.394531 C -0.289062 34.042969 -0.304688 30.214844 2.050781 27.84375 L 27.652344 2.082031 C 30.007812 -0.289062 33.84375 -0.304688 36.21875 2.050781 Z M 36.21875 2.050781 " /><g transform="matrix(1.0075098,0,0,1.0032698,16.221436,16.077397)"><path fill-rule="nonzero" fill="rgb(100%, 100%, 100%)" fill-opacity="1" d="M 31.800781 8.5625 L 23.441406 0.199219 C 23.3125 0.0703125 23.140625 0 22.957031 0 C 22.773438 0 22.601562 0.0703125 22.476562 0.199219 L 19.996094 2.679688 L 22.632812 5.3125 L 21.667969 6.28125 L 19.03125 3.644531 L 17.265625 5.414062 L 21.949219 10.097656 L 20.984375 11.0625 L 16.296875 6.378906 L 14.53125 8.144531 L 17.167969 10.78125 L 16.199219 11.75 L 13.5625 9.109375 L 11.796875 10.878906 L 16.484375 15.5625 L 15.515625 16.53125 L 10.828125 11.84375 L 9.0625 13.609375 L 11.699219 16.25 L 10.734375 17.214844 L 8.097656 14.578125 L 6.328125 16.34375 L 11.015625 21.03125 L 10.050781 22 L 5.363281 17.3125 L 3.59375 19.078125 L 6.234375 21.714844 L 5.265625 22.679688 L 2.632812 20.046875 L 0.199219 22.476562 C 0.0703125 22.601562 0 22.773438 0 22.957031 C 0 23.140625 0.0703125 23.3125 0.199219 23.4375 L 8.5625 31.800781 C 8.6875 31.929688 8.859375 32 9.046875 32 C 9.226562 32 9.398438 31.929688 9.523438 31.800781 L 31.800781 9.523438 C 32.066406 9.257812 32.066406 8.828125 31.800781 8.5625 Z M 31.800781 8.5625 "/></g></svg>
