<svg width="64" height="64" viewBox="0 0 64 64" version="1.1"><defs><linearGradient id="linear-pattern-0" gradientUnits="userSpaceOnUse" x1="0" y1="0" x2="0" y2="1" gradientTransform="matrix(60, 0, 0, 56, 0, 4)"><stop offset="0" stop-color="#0288cf" stop-opacity="1"/><stop offset="1" stop-color="#01486e" stop-opacity="1"/></linearGradient></defs><path fill="url(#linear-pattern-0)" fill-opacity="1" d="M 36.21875 2.050781 L 62.027344 27.605469 C 64.402344 29.957031 64.417969 33.785156 62.058594 36.15625 L 36.460938 61.917969 C 34.105469 64.289062 30.269531 64.304688 27.894531 61.949219 L 2.085938 36.394531 C -0.289062 34.042969 -0.304688 30.214844 2.050781 27.84375 L 27.652344 2.082031 C 30.007812 -0.289062 33.84375 -0.304688 36.21875 2.050781 Z M 36.21875 2.050781 " /><g transform="matrix(1.0075098,0,0,1.0032698,16.221436,16.077397)"><path fill-rule="nonzero" fill="rgb(100%, 100%, 100%)" fill-opacity="1" d="M 6.953125 0 C 4.65625 0 2.78125 1.871094 2.78125 4.171875 L 2.78125 28.117188 C 2.78125 30.257812 4.65625 32 6.953125 32 L 29.21875 32 L 29.21875 30.609375 L 6.953125 30.609375 C 5.445312 30.609375 4.171875 29.46875 4.171875 28.117188 C 4.171875 26.785156 5.398438 25.742188 6.953125 25.742188 L 29.21875 25.742188 L 29.21875 0 Z M 12.023438 7.652344 L 13.714844 7.652344 L 17.390625 18.382812 L 17.390625 18.78125 L 16 18.78125 L 16 18.609375 L 15.34375 16.695312 L 10.394531 16.695312 L 9.742188 18.609375 L 9.742188 18.78125 L 8.347656 18.78125 L 8.347656 18.382812 Z M 12.867188 9.476562 L 10.871094 15.304688 L 14.867188 15.304688 Z M 20.867188 10.433594 C 22.117188 10.433594 22.953125 11.414062 22.953125 12.867188 L 22.953125 16.695312 C 22.953125 17.078125 23.269531 17.390625 23.652344 17.390625 L 23.652344 18.78125 C 23.117188 18.78125 22.632812 18.574219 22.257812 18.242188 C 21.890625 18.574219 21.40625 18.78125 20.867188 18.78125 L 20.171875 18.78125 C 19.023438 18.78125 18.085938 17.84375 18.085938 16.695312 L 18.085938 15.304688 C 18.085938 14.15625 19.023438 13.21875 20.171875 13.21875 L 20.867188 13.21875 C 21.113281 13.21875 21.347656 13.265625 21.566406 13.34375 L 21.566406 12.867188 C 21.566406 12.394531 21.441406 11.828125 20.867188 11.828125 C 20.527344 11.828125 20.171875 11.90625 20.171875 12.523438 L 18.78125 12.523438 C 18.78125 11.273438 19.621094 10.433594 20.867188 10.433594 Z M 20.171875 14.609375 C 19.792969 14.609375 19.476562 14.921875 19.476562 15.304688 L 19.476562 16.695312 C 19.476562 17.078125 19.792969 17.390625 20.171875 17.390625 L 20.867188 17.390625 C 21.25 17.390625 21.566406 17.078125 21.566406 16.695312 L 21.566406 15.304688 C 21.566406 14.921875 21.25 14.609375 20.867188 14.609375 Z M 20.171875 14.609375 "/></g></svg>
