<svg width="64" height="64" viewBox="0 0 64 64" version="1.1"><defs><linearGradient id="linear-pattern-0" gradientUnits="userSpaceOnUse" x1="0" y1="0" x2="0" y2="1" gradientTransform="matrix(60, 0, 0, 56, 0, 4)"><stop offset="0" stop-color="#3067ff" stop-opacity="1"/><stop offset="1" stop-color="#002ca6" stop-opacity="1"/></linearGradient></defs><path fill="url(#linear-pattern-0)" fill-opacity="1" d="M 36.21875 2.050781 L 62.027344 27.605469 C 64.402344 29.957031 64.417969 33.785156 62.058594 36.15625 L 36.460938 61.917969 C 34.105469 64.289062 30.269531 64.304688 27.894531 61.949219 L 2.085938 36.394531 C -0.289062 34.042969 -0.304688 30.214844 2.050781 27.84375 L 27.652344 2.082031 C 30.007812 -0.289062 33.84375 -0.304688 36.21875 2.050781 Z M 36.21875 2.050781 " /><g transform="matrix(1.0075098,0,0,1.0032698,16.221436,16.077397)"><path fill-rule="nonzero" fill="rgb(100%, 100%, 100%)" fill-opacity="1" d="M 7.625 0.4375 C 6.71875 0.4375 5.992188 1.484375 5.992188 2.789062 C 5.992188 4.09375 6.71875 5.140625 7.625 5.140625 L 10.875 5.140625 C 11.773438 5.140625 12.5 6.1875 12.5 7.492188 C 12.5 8.796875 11.773438 9.84375 10.875 9.84375 L 5.453125 9.84375 C 4.554688 9.84375 3.828125 10.890625 3.828125 12.195312 C 3.828125 13.5 4.554688 14.546875 5.453125 14.546875 L 7.648438 14.546875 C 8.53125 14.546875 9.25 15.578125 9.25 16.859375 L 9.25 16.9375 C 9.25 18.21875 8.53125 19.253906 7.648438 19.253906 L 7.625 19.253906 C 6.71875 19.253906 5.992188 20.304688 5.992188 21.605469 C 5.992188 22.90625 6.71875 23.953125 7.625 23.953125 L 9.25 23.953125 L 9.25 30.226562 C 9.25 30.226562 9.25 31.796875 10.332031 31.796875 L 22.257812 31.796875 C 29.84375 31.796875 29.84375 20.820312 29.84375 20.820312 L 29.84375 11.414062 C 29.84375 11.414062 29.84375 0.4375 22.257812 0.4375 Z M 17.921875 9.84375 L 20.089844 9.84375 C 21.171875 9.84375 22.257812 11.414062 22.257812 12.984375 L 22.257812 19.253906 C 22.257812 20.820312 21.171875 22.390625 20.089844 22.390625 L 17.921875 22.390625 Z M 17.921875 9.84375 "/></g></svg>
