<svg width="64" height="64" viewBox="0 0 64 64" version="1.1"><defs><linearGradient id="linear-pattern-0" gradientUnits="userSpaceOnUse" x1="0" y1="0" x2="0" y2="1" gradientTransform="matrix(60, 0, 0, 56, 0, 4)"><stop offset="0" stop-color="#6926fc" stop-opacity="1"/><stop offset="1" stop-color="#3702ab" stop-opacity="1"/></linearGradient></defs><path fill="url(#linear-pattern-0)" fill-opacity="1" d="M 36.21875 2.050781 L 62.027344 27.605469 C 64.402344 29.957031 64.417969 33.785156 62.058594 36.15625 L 36.460938 61.917969 C 34.105469 64.289062 30.269531 64.304688 27.894531 61.949219 L 2.085938 36.394531 C -0.289062 34.042969 -0.304688 30.214844 2.050781 27.84375 L 27.652344 2.082031 C 30.007812 -0.289062 33.84375 -0.304688 36.21875 2.050781 Z M 36.21875 2.050781 " /><g transform="matrix(1.0075098,0,0,1.0032698,16.221436,16.077397)"><path fill-rule="nonzero" fill="rgb(100%, 100%, 100%)" fill-opacity="1" d="M 0.726562 0.894531 C 0.726562 3.09375 1.101562 6.226562 3.085938 7.929688 C 4.152344 8.84375 5.90625 9.09375 7.320312 9.5 C 10.398438 10.382812 13.808594 11.730469 17.09375 11.960938 L 12.773438 11.453125 L 3 9.964844 C 3.015625 10.75 3.21875 11.414062 3.589844 12.140625 C 6.03125 16.9375 11.933594 15.953125 17.320312 15.953125 C 15.289062 16.445312 13.054688 16.503906 10.957031 16.726562 C 10.257812 16.804688 8.90625 16.824219 8.472656 17.351562 C 7.734375 18.234375 9.816406 19.453125 10.5 19.898438 C 13.484375 21.832031 16.464844 21.460938 19.824219 20.304688 L 18.6875 24.84375 L 22.320312 24.84375 L 20.507812 31.375 L 24.773438 27.023438 L 29.601562 21.757812 L 24.824219 21.757812 C 26.390625 19.410156 28.320312 17.21875 29.875 14.863281 C 30.5625 13.835938 31.507812 12.640625 31.09375 11.414062 C 30.441406 9.515625 26.195312 8.679688 24.144531 8.121094 C 18.515625 6.578125 13.0625 4.773438 7.546875 3.007812 C 5.390625 2.316406 3.070312 0.992188 0.726562 0.894531 Z M 0.726562 0.894531 "/></g></svg>
