<svg width="64" height="64" viewBox="0 0 64 64" version="1.1"><defs><linearGradient id="linear-pattern-0" gradientUnits="userSpaceOnUse" x1="0" y1="0" x2="0" y2="1" gradientTransform="matrix(60, 0, 0, 56, 0, 4)"><stop offset="0" stop-color="#7795ab" stop-opacity="1"/><stop offset="1" stop-color="#3b4f5f" stop-opacity="1"/></linearGradient></defs><path fill="url(#linear-pattern-0)" fill-opacity="1" d="M 36.21875 2.050781 L 62.027344 27.605469 C 64.402344 29.957031 64.417969 33.785156 62.058594 36.15625 L 36.460938 61.917969 C 34.105469 64.289062 30.269531 64.304688 27.894531 61.949219 L 2.085938 36.394531 C -0.289062 34.042969 -0.304688 30.214844 2.050781 27.84375 L 27.652344 2.082031 C 30.007812 -0.289062 33.84375 -0.304688 36.21875 2.050781 Z M 36.21875 2.050781 " /><g transform="matrix(1.0075098,0,0,1.0032698,16.221436,16.077397)"><path fill-rule="nonzero" fill="rgb(100%, 100%, 100%)" fill-opacity="1" d="M 11.585938 4.578125 C 11.160156 4.578125 7.648438 4.679688 3.949219 7.429688 C 3.949219 7.429688 0 14.53125 0 23.28125 C 0 23.28125 2.304688 27.226562 8.363281 27.421875 C 8.363281 27.421875 9.375 26.214844 10.203125 25.171875 C 6.71875 24.132812 5.402344 21.964844 5.402344 21.964844 C 5.402344 21.964844 5.675781 22.15625 6.171875 22.429688 C 6.195312 22.429688 6.226562 22.460938 6.28125 22.484375 C 6.359375 22.542969 6.445312 22.570312 6.523438 22.625 C 7.210938 23.007812 7.898438 23.308594 8.527344 23.554688 C 9.652344 24.023438 10.996094 24.433594 12.558594 24.734375 C 14.617188 25.117188 17.027344 25.257812 19.660156 24.765625 C 20.949219 24.523438 22.265625 24.164062 23.636719 23.585938 C 24.59375 23.234375 25.664062 22.710938 26.789062 21.96875 C 26.789062 21.96875 25.421875 24.191406 21.828125 25.207031 C 22.648438 26.21875 23.636719 27.398438 23.636719 27.398438 C 29.695312 27.207031 32 23.257812 32 23.289062 C 32 14.539062 28.050781 7.4375 28.050781 7.4375 C 24.132812 4.503906 20.375 4.585938 20.375 4.585938 L 19.992188 5.023438 C 24.648438 6.421875 26.820312 8.476562 26.820312 8.476562 C 23.964844 6.945312 21.167969 6.175781 18.5625 5.875 C 16.589844 5.65625 14.695312 5.710938 13.023438 5.929688 C 12.859375 5.929688 12.722656 5.960938 12.558594 5.984375 C 11.601562 6.09375 9.265625 6.425781 6.335938 7.714844 C 5.320312 8.152344 4.71875 8.484375 4.71875 8.484375 C 4.71875 8.484375 6.964844 6.316406 11.898438 4.917969 L 11.625 4.585938 C 11.625 4.585938 11.609375 4.585938 11.585938 4.585938 Z M 10.886719 14.695312 C 12.449219 14.695312 13.710938 16.039062 13.683594 17.714844 C 13.683594 19.386719 12.449219 20.730469 10.886719 20.730469 C 9.351562 20.730469 8.089844 19.386719 8.089844 17.714844 C 8.089844 16.039062 9.320312 14.695312 10.886719 14.695312 Z M 20.894531 14.695312 C 22.429688 14.695312 23.691406 16.039062 23.691406 17.714844 C 23.691406 19.386719 22.457031 20.730469 20.894531 20.730469 C 19.359375 20.730469 18.097656 19.386719 18.097656 17.714844 C 18.097656 16.039062 19.332031 14.695312 20.894531 14.695312 Z M 20.894531 14.695312 "/></g></svg>
