<svg width="64" height="64" viewBox="0 0 64 64" version="1.1"><defs><linearGradient id="linear-pattern-0" gradientUnits="userSpaceOnUse" x1="0" y1="0" x2="0" y2="1" gradientTransform="matrix(60, 0, 0, 56, 0, 4)"><stop offset="0" stop-color="#00983a" stop-opacity="1"/><stop offset="1" stop-color="#004a1c" stop-opacity="1"/></linearGradient></defs><path fill="url(#linear-pattern-0)" fill-opacity="1" d="M 36.21875 2.050781 L 62.027344 27.605469 C 64.402344 29.957031 64.417969 33.785156 62.058594 36.15625 L 36.460938 61.917969 C 34.105469 64.289062 30.269531 64.304688 27.894531 61.949219 L 2.085938 36.394531 C -0.289062 34.042969 -0.304688 30.214844 2.050781 27.84375 L 27.652344 2.082031 C 30.007812 -0.289062 33.84375 -0.304688 36.21875 2.050781 Z M 36.21875 2.050781 " /><g transform="matrix(1.0075098,0,0,1.0032698,16.221436,16.077397)"><path fill-rule="nonzero" fill="rgb(100%, 100%, 100%)" fill-opacity="1" d="M 24.152344 0.40625 L 15.046875 9.515625 L 13.746094 10.816406 L 8.546875 16.023438 L 0.417969 24.160156 L 7.894531 31.640625 L 12.121094 27.410156 L 21.226562 18.304688 L 22.523438 17 L 31.628906 7.890625 Z M 5.992188 2.640625 L 4.804688 4.796875 L 2.648438 5.984375 L 4.804688 7.171875 L 5.992188 9.332031 L 7.175781 7.171875 L 9.335938 5.984375 L 7.175781 4.796875 Z M 24.152344 4.148438 L 27.890625 7.890625 L 20.65625 15.132812 L 16.914062 11.390625 Z M 24.152344 4.148438 "/></g></svg>
