<svg width="64" height="64" viewBox="0 0 64 64" version="1.1"><defs><linearGradient id="linear-pattern-0" gradientUnits="userSpaceOnUse" x1="0" y1="0" x2="0" y2="1" gradientTransform="matrix(60, 0, 0, 56, 0, 4)"><stop offset="0" stop-color="#00983a" stop-opacity="1"/><stop offset="1" stop-color="#004a1c" stop-opacity="1"/></linearGradient></defs><path fill="url(#linear-pattern-0)" fill-opacity="1" d="M 36.21875 2.050781 L 62.027344 27.605469 C 64.402344 29.957031 64.417969 33.785156 62.058594 36.15625 L 36.460938 61.917969 C 34.105469 64.289062 30.269531 64.304688 27.894531 61.949219 L 2.085938 36.394531 C -0.289062 34.042969 -0.304688 30.214844 2.050781 27.84375 L 27.652344 2.082031 C 30.007812 -0.289062 33.84375 -0.304688 36.21875 2.050781 Z M 36.21875 2.050781 " /><g transform="matrix(1.0075098,0,0,1.0032698,16.221436,16.077397)"><path fill-rule="evenodd" fill="rgb(100%, 100%, 100%)" fill-opacity="1" d="M 16.105469 0.460938 C 14.726562 3.859375 13.90625 6.078125 12.375 9.375 C 13.3125 10.382812 14.460938 11.546875 16.328125 12.871094 C 14.320312 12.03125 12.953125 11.195312 11.929688 10.324219 C 9.96875 14.453125 6.90625 20.320312 0.679688 31.609375 C 5.578125 28.753906 9.359375 27 12.894531 26.328125 C 12.742188 25.671875 12.65625 24.953125 12.664062 24.210938 L 12.671875 24.054688 C 12.746094 20.890625 14.375 18.460938 16.308594 18.625 C 18.238281 18.792969 19.734375 21.492188 19.660156 24.652344 C 19.644531 25.25 19.578125 25.820312 19.460938 26.351562 C 22.953125 27.042969 26.710938 28.789062 31.53125 31.609375 C 30.578125 29.835938 29.730469 28.242188 28.917969 26.726562 C 27.640625 25.726562 26.3125 24.429688 23.59375 23.019531 C 25.460938 23.511719 26.796875 24.074219 27.835938 24.707031 C 19.59375 9.210938 18.929688 7.15625 16.101562 0.460938 "/></g></svg>
