<svg width="64" height="64" viewBox="0 0 64 64" version="1.1"><defs><linearGradient id="linear-pattern-0" gradientUnits="userSpaceOnUse" x1="0" y1="0" x2="0" y2="1" gradientTransform="matrix(60, 0, 0, 56, 0, 4)"><stop offset="0" stop-color="#3067ff" stop-opacity="1"/><stop offset="1" stop-color="#002ca6" stop-opacity="1"/></linearGradient></defs><path fill="url(#linear-pattern-0)" fill-opacity="1" d="M 36.21875 2.050781 L 62.027344 27.605469 C 64.402344 29.957031 64.417969 33.785156 62.058594 36.15625 L 36.460938 61.917969 C 34.105469 64.289062 30.269531 64.304688 27.894531 61.949219 L 2.085938 36.394531 C -0.289062 34.042969 -0.304688 30.214844 2.050781 27.84375 L 27.652344 2.082031 C 30.007812 -0.289062 33.84375 -0.304688 36.21875 2.050781 Z M 36.21875 2.050781 " /><g transform="matrix(1.0075098,0,0,1.0032698,16.221436,16.077397)"><path fill-rule="nonzero" fill="rgb(100%, 100%, 100%)" fill-opacity="1" d="M 21.035156 6.234375 C 20.476562 6.234375 20.015625 6.742188 20.015625 7.359375 C 20.015625 7.980469 20.476562 8.484375 21.035156 8.484375 C 21.597656 8.484375 22.054688 7.980469 22.054688 7.359375 C 22.054688 6.742188 21.597656 6.234375 21.035156 6.234375 Z M 13.390625 9.601562 C 10.574219 9.601562 8.289062 12.117188 8.289062 15.214844 C 8.289062 18.3125 10.574219 20.828125 13.390625 20.828125 C 16.203125 20.828125 18.484375 18.3125 18.484375 15.214844 C 18.484375 12.117188 16.203125 9.601562 13.390625 9.601562 Z M 20.527344 9.601562 L 20.527344 20.828125 L 21.546875 20.828125 L 21.546875 9.601562 Z M 13.390625 10.726562 C 15.640625 10.726562 17.46875 12.734375 17.46875 15.214844 C 17.46875 17.695312 15.640625 19.703125 13.390625 19.703125 C 11.136719 19.703125 9.3125 17.695312 9.3125 15.214844 C 9.3125 12.734375 11.136719 10.726562 13.390625 10.726562 Z M 25.886719 12.546875 C 25.875 12.6875 26.28125 12.789062 27.125 12.984375 C 27.777344 13.132812 29.449219 13.464844 30.367188 14.488281 C 30.648438 14.800781 30.851562 15.253906 30.792969 15.710938 C 30.75 16.210938 30.460938 16.703125 30.070312 17.203125 C 28.9375 18.632812 27.378906 19.597656 25.214844 20.75 C 22.957031 21.941406 20.375 23 17.304688 23.917969 C 14.238281 24.835938 11.527344 25.375 9.03125 25.613281 C 6.636719 25.828125 4.847656 25.867188 3.214844 25.273438 C 2.648438 25.054688 2.171875 24.796875 1.90625 24.390625 C 1.640625 24.023438 1.605469 23.519531 1.703125 23.09375 C 2.023438 21.699219 3.3125 20.484375 3.804688 19.988281 C 4.441406 19.351562 4.746094 19.03125 4.667969 18.914062 C 3.226562 19.847656 1.621094 21.070312 1 22.921875 C 0.804688 23.554688 0.851562 24.25 1.1875 24.839844 C 1.601562 25.476562 2.21875 25.875 2.828125 26.109375 C 4.816406 26.898438 7.007812 26.851562 9.054688 26.671875 C 11.9375 26.445312 14.789062 25.835938 17.574219 25 C 20.359375 24.164062 23.101562 23.09375 25.6875 21.679688 C 27.53125 20.6875 29.445312 19.5 30.789062 17.710938 C 31.210938 17.171875 31.554688 16.484375 31.617188 15.703125 C 31.632812 15.003906 31.359375 14.375 30.890625 13.945312 C 29.507812 12.695312 27.558594 12.546875 25.886719 12.546875 Z M 25.886719 12.546875 "/></g></svg>
