<svg width="64" height="64" viewBox="0 0 64 64" version="1.1"><defs><linearGradient id="linear-pattern-0" gradientUnits="userSpaceOnUse" x1="0" y1="0" x2="0" y2="1" gradientTransform="matrix(60, 0, 0, 56, 0, 4)"><stop offset="0" stop-color="#3067ff" stop-opacity="1"/><stop offset="1" stop-color="#002ca6" stop-opacity="1"/></linearGradient></defs><path fill="url(#linear-pattern-0)" fill-opacity="1" d="M 36.21875 2.050781 L 62.027344 27.605469 C 64.402344 29.957031 64.417969 33.785156 62.058594 36.15625 L 36.460938 61.917969 C 34.105469 64.289062 30.269531 64.304688 27.894531 61.949219 L 2.085938 36.394531 C -0.289062 34.042969 -0.304688 30.214844 2.050781 27.84375 L 27.652344 2.082031 C 30.007812 -0.289062 33.84375 -0.304688 36.21875 2.050781 Z M 36.21875 2.050781 " /><g transform="matrix(1.0075098,0,0,1.0032698,16.221436,16.077397)"><path fill-rule="nonzero" fill="rgb(100%, 100%, 100%)" fill-opacity="1" d="M 13.195312 31.035156 C 10.511719 30.5 7.421875 28.851562 5.46875 26.914062 C -2.015625 19.507812 0.0585938 7.148438 9.570312 2.492188 C 13.390625 0.691406 17.234375 0.550781 20.75 1.726562 C 25.171875 3.203125 28.5 6.335938 30.257812 10.664062 C 30.992188 12.46875 31.039062 13.078125 31.140625 21.78125 C 31.242188 30.164062 31.199219 31.007812 30.679688 31.203125 C 29.335938 31.710938 29.234375 31.078125 29.125 21.632812 C 29.023438 12.601562 29.019531 12.5625 28.117188 10.664062 C 25.589844 5.320312 19.539062 2.078125 13.96875 3.078125 C 8.9375 3.984375 5.265625 7.171875 3.578125 12.101562 C 1.375 18.523438 4.957031 26.023438 11.378906 28.4375 C 15.71875 30.0625 20.765625 29.273438 24.257812 26.410156 C 26.078125 24.921875 26.242188 24.867188 26.8125 25.550781 C 27.445312 26.304688 26.710938 27.289062 24.390625 28.765625 C 21.0625 30.894531 16.808594 31.757812 13.195312 31.035156 Z M 13.195312 31.035156 "/></g></svg>
