<svg width="64" height="64" viewBox="0 0 64 64" version="1.1"><defs><linearGradient id="linear-pattern-0" gradientUnits="userSpaceOnUse" x1="0" y1="0" x2="0" y2="1" gradientTransform="matrix(60, 0, 0, 56, 0, 4)"><stop offset="0" stop-color="#ec7700" stop-opacity="1"/><stop offset="1" stop-color="#773c00" stop-opacity="1"/></linearGradient></defs><path fill="url(#linear-pattern-0)" fill-opacity="1" d="M 36.21875 2.050781 L 62.027344 27.605469 C 64.402344 29.957031 64.417969 33.785156 62.058594 36.15625 L 36.460938 61.917969 C 34.105469 64.289062 30.269531 64.304688 27.894531 61.949219 L 2.085938 36.394531 C -0.289062 34.042969 -0.304688 30.214844 2.050781 27.84375 L 27.652344 2.082031 C 30.007812 -0.289062 33.84375 -0.304688 36.21875 2.050781 Z M 36.21875 2.050781 " /><g transform="matrix(1.0075098,0,0,1.0032698,16.221436,16.077397)"><path fill-rule="nonzero" fill="rgb(100%, 100%, 100%)" fill-opacity="1" d="M 1.742188 2.183594 C 1.769531 2.933594 1.75 3.796875 1.953125 4.238281 C 2.191406 4.773438 2.8125 5.507812 3.75 6.558594 C 4.125 5.976562 4.582031 5.4375 5.09375 4.933594 C 3.78125 3.191406 3.085938 2.726562 1.742188 2.183594 Z M 14.917969 3.179688 L 13.617188 4.53125 L 13.617188 8.6875 L 10.953125 5.921875 L 10.953125 3.453125 C 10.476562 3.542969 10.039062 3.65625 9.621094 3.789062 C 8.484375 4.53125 8.289062 5.921875 8.289062 10.070312 C 8.289062 11.453125 6.957031 11.453125 6.957031 10.070312 C 6.957031 10.070312 6.765625 7.664062 6.226562 5.6875 C 5.679688 6.1875 5.226562 6.75 4.847656 7.339844 C 3.304688 9.75 2.960938 12.898438 2.960938 15.609375 C 2.960938 19.21875 4.234375 22.6875 6.421875 25.40625 C 6.300781 25.210938 6.195312 25.007812 6.105469 24.804688 C 5.714844 23.890625 5.625 22.917969 5.625 21.835938 C 5.625 20.5625 6.1875 19.085938 7.195312 17.84375 C 8.210938 16.597656 9.730469 15.609375 11.617188 15.609375 C 10.578125 15.609375 9.617188 14.730469 9.617188 13.53125 C 9.617188 12.757812 9.859375 12.125 10.316406 11.789062 C 10.773438 11.453125 11.257812 11.453125 11.617188 11.453125 C 12.195312 11.453125 12.742188 11.601562 13.121094 12.007812 C 13.5 12.417969 13.617188 12.96875 13.617188 13.53125 C 13.617188 14.03125 13.460938 14.539062 13.117188 14.945312 C 12.773438 15.34375 12.230469 15.609375 11.617188 15.609375 C 17.699219 15.609375 22.101562 16.804688 24.136719 18.460938 C 24.875 19.0625 25.683594 19.601562 26.359375 20.289062 C 27.035156 20.976562 27.574219 21.890625 27.574219 23.050781 C 27.574219 24.457031 26.820312 25.980469 25.648438 27.230469 C 24.476562 28.480469 22.824219 29.453125 20.9375 29.453125 C 19.214844 29.453125 16.515625 29.210938 14.019531 28.828125 C 12.773438 28.636719 11.578125 28.410156 10.574219 28.15625 C 9.570312 27.898438 8.789062 27.648438 8.226562 27.25 C 8.105469 27.164062 8.007812 27.078125 7.894531 26.992188 C 10.421875 29.34375 13.765625 30.835938 17.609375 30.835938 C 24.761719 30.835938 27.960938 28.042969 29.515625 25.292969 C 30.070312 24.316406 30.226562 23.464844 30.429688 22.617188 C 30.632812 21.671875 30.925781 20.757812 30.925781 19.757812 C 30.925781 17.164062 30.390625 14.859375 29.476562 12.84375 C 28.765625 11.453125 28.75 11.453125 27.578125 11.453125 L 25.601562 11.453125 C 25.601562 12.839844 24.914062 12.851562 24.265625 12.839844 C 23.40625 12.839844 22.9375 12.199219 22.9375 11.453125 C 22.9375 10.773438 23.226562 10.070312 23.601562 10.070312 C 24.265625 10.070312 24.265625 10.070312 24.265625 8.6875 C 23.390625 8.6875 22.9375 8.113281 22.9375 7.304688 L 22.9375 5.613281 C 22.667969 5.453125 21.878906 5.101562 21.601562 4.960938 C 21.601562 8.792969 18.734375 8.6875 16.277344 8.6875 C 17.8125 7.5625 18.074219 5.539062 16.796875 3.375 C 16.164062 3.265625 15.539062 3.210938 14.917969 3.179688 Z M 26.929688 5.921875 C 26.542969 5.914062 26.238281 5.957031 25.910156 6.0625 C 26.058594 6.1875 26.21875 6.300781 26.367188 6.429688 C 27 6.992188 27.585938 7.617188 28.148438 8.28125 C 28.222656 8.140625 28.265625 8.03125 28.265625 7.996094 C 28.265625 7.761719 28.125 7.117188 27.859375 6.648438 C 27.59375 6.179688 27.320312 5.921875 26.929688 5.921875 Z M 20.273438 10.070312 C 21.050781 10.070312 21.75 10.28125 22.242188 10.792969 C 22.730469 11.304688 22.9375 12.03125 22.9375 12.839844 C 22.9375 13.648438 22.730469 14.375 22.242188 14.882812 C 21.75 15.398438 21.050781 15.609375 20.273438 15.609375 C 19.496094 15.609375 18.734375 15.371094 18.253906 14.742188 C 17.773438 14.117188 17.609375 13.265625 17.609375 12.148438 C 17.609375 11.570312 17.898438 11.011719 18.375 10.640625 C 18.851562 10.273438 19.496094 10.070312 20.273438 10.070312 Z M 20.273438 11.453125 C 19.71875 11.453125 19.367188 11.601562 19.175781 11.75 C 18.984375 11.898438 18.941406 12.03125 18.941406 12.148438 C 18.941406 13.109375 19.109375 13.640625 19.296875 13.878906 C 19.480469 14.117188 19.71875 14.226562 20.273438 14.226562 C 20.828125 14.226562 21.125 14.089844 21.300781 13.90625 C 21.476562 13.726562 21.601562 13.417969 21.601562 12.839844 C 21.601562 12.265625 21.476562 11.953125 21.300781 11.773438 C 21.125 11.589844 20.828125 11.453125 20.273438 11.453125 Z M 11.617188 12.839844 C 11.3125 12.839844 11.128906 12.886719 11.085938 12.917969 C 11.046875 12.949219 10.953125 13.007812 10.953125 13.53125 C 10.953125 13.933594 11.328125 14.226562 11.617188 14.226562 C 11.898438 14.226562 12.023438 14.140625 12.117188 14.023438 C 12.21875 13.910156 12.28125 13.726562 12.28125 13.53125 C 12.28125 13.164062 12.210938 13.023438 12.164062 12.96875 C 12.117188 12.917969 11.992188 12.839844 11.617188 12.839844 Z M 11.617188 16.992188 C 10.175781 16.992188 9.03125 17.730469 8.210938 18.734375 C 7.394531 19.742188 6.957031 21.023438 6.957031 21.835938 C 6.957031 22.835938 7.046875 23.589844 7.320312 24.234375 C 7.601562 24.882812 8.070312 25.46875 8.976562 26.113281 C 9.210938 26.28125 9.949219 26.570312 10.890625 26.8125 C 11.828125 27.050781 12.996094 27.273438 14.214844 27.457031 C 16.65625 27.832031 19.335938 28.0625 20.9375 28.0625 C 22.382812 28.0625 23.714844 27.304688 24.695312 26.261719 C 25.671875 25.21875 26.242188 23.890625 26.242188 23.050781 C 26.242188 22.304688 25.960938 21.820312 25.425781 21.277344 C 24.890625 20.734375 24.113281 20.203125 23.316406 19.554688 C 21.8125 18.328125 17.519531 16.992188 11.617188 16.992188 Z M 11.617188 19.757812 C 12.96875 19.757812 13.617188 20.171875 13.617188 21.144531 C 13.617188 22.117188 12.367188 22.53125 11.617188 22.53125 C 10.867188 22.53125 9.617188 22.472656 9.617188 21.144531 C 9.617188 20.054688 10.285156 19.757812 11.617188 19.757812 Z M 21.601562 21.144531 C 22.4375 21.144531 22.9375 21.640625 22.9375 22.53125 C 22.9375 24.171875 22.523438 25.296875 21.398438 25.296875 C 20.273438 25.296875 20.273438 23.65625 20.273438 22.53125 C 20.273438 21.6875 20.9375 21.144531 21.601562 21.144531 Z M 21.601562 21.144531 "/><path fill-rule="nonzero" fill="rgb(100%, 100%, 100%)" fill-opacity="1" d="M 13.875 2.1875 L 12.445312 3.582031 L 12.445312 7.859375 L 9.515625 5.007812 L 9.515625 2.464844 C 8.992188 2.5625 8.511719 2.679688 8.054688 2.8125 C 6.800781 3.582031 6.585938 5.007812 6.585938 9.285156 C 6.585938 10.710938 5.125 10.710938 5.125 9.285156 C 5.125 9.285156 4.914062 6.804688 4.320312 4.769531 C 3.71875 5.289062 3.222656 5.859375 2.804688 6.472656 C 1.105469 8.953125 0.730469 12.195312 0.730469 14.992188 C 0.730469 18.707031 2.132812 22.28125 4.53125 25.078125 C 4.398438 24.878906 4.28125 24.671875 4.1875 24.460938 C 3.757812 23.523438 3.65625 22.519531 3.65625 21.40625 C 3.65625 20.09375 4.273438 18.570312 5.390625 17.289062 C 6.5 16.007812 8.171875 14.992188 10.25 14.992188 C 9.101562 14.992188 8.050781 14.085938 8.050781 12.851562 C 8.050781 12.054688 8.3125 11.398438 8.820312 11.054688 C 9.320312 10.703125 9.851562 10.710938 10.25 10.710938 C 10.882812 10.710938 11.484375 10.859375 11.898438 11.28125 C 12.3125 11.703125 12.445312 12.269531 12.445312 12.851562 C 12.445312 13.359375 12.273438 13.886719 11.898438 14.304688 C 11.523438 14.71875 10.921875 14.992188 10.25 14.992188 C 16.9375 14.992188 21.773438 16.21875 24.015625 17.929688 C 24.824219 18.546875 25.71875 19.101562 26.460938 19.808594 C 27.203125 20.519531 27.796875 21.460938 27.796875 22.65625 C 27.796875 24.101562 26.96875 25.671875 25.679688 26.960938 C 24.386719 28.25 22.570312 29.246094 20.5 29.246094 C 18.601562 29.246094 15.640625 29 12.890625 28.609375 C 11.515625 28.410156 10.203125 28.175781 9.101562 27.914062 C 8 27.648438 7.132812 27.390625 6.515625 26.984375 C 6.382812 26.898438 6.273438 26.804688 6.15625 26.710938 C 8.929688 29.140625 12.609375 30.671875 16.835938 30.671875 C 24.703125 30.671875 28.226562 27.796875 29.9375 24.964844 C 30.539062 23.960938 30.710938 23.082031 30.9375 22.207031 C 31.15625 21.234375 31.484375 20.292969 31.484375 19.265625 C 31.484375 16.585938 30.890625 14.214844 29.890625 12.140625 C 29.109375 10.710938 29.085938 10.710938 27.796875 10.710938 L 25.625 10.710938 C 25.625 12.136719 24.867188 12.148438 24.160156 12.136719 C 23.210938 12.136719 22.695312 11.476562 22.695312 10.710938 C 22.695312 10.007812 23.019531 9.285156 23.429688 9.285156 C 24.160156 9.285156 24.160156 9.285156 24.160156 7.859375 C 23.195312 7.859375 22.695312 7.269531 22.695312 6.433594 L 22.695312 4.695312 C 22.398438 4.53125 21.53125 4.167969 21.234375 4.015625 C 21.234375 7.96875 18.074219 7.859375 15.375 7.859375 C 17.0625 6.699219 17.347656 4.613281 15.941406 2.382812 C 15.25 2.277344 14.5625 2.214844 13.875 2.1875 Z M 19.765625 9.285156 C 20.617188 9.285156 21.390625 9.507812 21.929688 10.027344 C 22.46875 10.554688 22.695312 11.304688 22.695312 12.136719 C 22.695312 12.96875 22.46875 13.71875 21.929688 14.242188 C 21.390625 14.769531 20.617188 14.992188 19.765625 14.992188 C 18.914062 14.992188 18.078125 14.742188 17.546875 14.097656 C 17.015625 13.453125 16.835938 12.570312 16.835938 11.421875 C 16.835938 10.828125 17.15625 10.253906 17.679688 9.871094 C 18.203125 9.492188 18.914062 9.285156 19.765625 9.285156 Z M 19.765625 9.285156 "/></g></svg>
