<svg width="64" height="64" viewBox="0 0 64 64" version="1.1"><defs><linearGradient id="linear-pattern-0" gradientUnits="userSpaceOnUse" x1="0" y1="0" x2="0" y2="1" gradientTransform="matrix(60, 0, 0, 56, 0, 4)"><stop offset="0" stop-color="#00983a" stop-opacity="1"/><stop offset="1" stop-color="#004a1c" stop-opacity="1"/></linearGradient></defs><path fill="url(#linear-pattern-0)" fill-opacity="1" d="M 36.21875 2.050781 L 62.027344 27.605469 C 64.402344 29.957031 64.417969 33.785156 62.058594 36.15625 L 36.460938 61.917969 C 34.105469 64.289062 30.269531 64.304688 27.894531 61.949219 L 2.085938 36.394531 C -0.289062 34.042969 -0.304688 30.214844 2.050781 27.84375 L 27.652344 2.082031 C 30.007812 -0.289062 33.84375 -0.304688 36.21875 2.050781 Z M 36.21875 2.050781 " /><g transform="matrix(1.0075098,0,0,1.0032698,16.221436,16.077397)"><path fill-rule="nonzero" fill="rgb(100%, 100%, 100%)" fill-opacity="1" d="M 25.25 0.835938 C 24.453125 0.925781 23.613281 1.09375 22.726562 1.3125 L 17.144531 8.085938 C 17.785156 8.179688 18.371094 8.328125 18.902344 8.539062 Z M 29.1875 1.21875 L 21.457031 10.585938 C 23.632812 13.921875 22.859375 20.605469 18.296875 31.628906 C 21.679688 27.265625 36.648438 4.9375 29.683594 1.472656 M 18.882812 2.539062 C 17.8125 2.945312 16.726562 3.398438 15.640625 3.890625 L 11.945312 8.367188 C 12.796875 8.203125 13.59375 8.097656 14.359375 8.039062 Z M 13.34375 4.953125 C 6.597656 8.238281 0.515625 12.242188 0.515625 12.242188 C 4.097656 10.652344 7.335938 9.46875 10.15625 8.75 Z M 13.34375 4.953125 "/></g></svg>
