<svg width="64" height="64" viewBox="0 0 64 64" version="1.1"><defs><linearGradient id="linear-pattern-0" gradientUnits="userSpaceOnUse" x1="0" y1="0" x2="0" y2="1" gradientTransform="matrix(60, 0, 0, 56, 0, 4)"><stop offset="0" stop-color="#0288cf" stop-opacity="1"/><stop offset="1" stop-color="#01486e" stop-opacity="1"/></linearGradient></defs><path fill="url(#linear-pattern-0)" fill-opacity="1" d="M 36.21875 2.050781 L 62.027344 27.605469 C 64.402344 29.957031 64.417969 33.785156 62.058594 36.15625 L 36.460938 61.917969 C 34.105469 64.289062 30.269531 64.304688 27.894531 61.949219 L 2.085938 36.394531 C -0.289062 34.042969 -0.304688 30.214844 2.050781 27.84375 L 27.652344 2.082031 C 30.007812 -0.289062 33.84375 -0.304688 36.21875 2.050781 Z M 36.21875 2.050781 " /><g transform="matrix(1.0075098,0,0,1.0032698,16.221436,16.077397)"><path fill-rule="nonzero" fill="rgb(100%, 100%, 100%)" fill-opacity="1" d="M 16.109375 31.679688 C 10.128906 31.679688 5.269531 26.804688 5.269531 20.8125 C 5.269531 17.519531 6.738281 14.4375 9.296875 12.359375 C 9.878906 11.886719 10.734375 11.886719 11.320312 12.359375 C 12.691406 13.476562 14.347656 14.070312 16.109375 14.070312 C 17.867188 14.070312 19.523438 13.476562 20.898438 12.359375 C 21.484375 11.886719 22.335938 11.886719 22.921875 12.359375 C 25.476562 14.4375 26.945312 17.515625 26.945312 20.8125 C 26.945312 26.804688 22.082031 31.679688 16.109375 31.679688 M 10.464844 15.515625 C 9.15625 16.953125 8.421875 18.828125 8.421875 20.820312 C 8.421875 25.125 11.871094 28.632812 16.109375 28.632812 C 20.34375 28.632812 23.789062 25.125 23.789062 20.820312 C 23.789062 18.828125 23.058594 16.953125 21.75 15.515625 C 20.0625 16.550781 18.101562 17.109375 16.109375 17.109375 C 14.117188 17.109375 12.15625 16.550781 10.464844 15.515625 "/><path fill-rule="nonzero" fill="rgb(100%, 100%, 100%)" fill-opacity="1" d="M 13.523438 12.472656 L 13.515625 12.472656 C 12.449219 12.472656 11.578125 11.632812 11.578125 10.601562 C 11.578125 9.570312 12.445312 8.726562 13.515625 8.726562 C 14.585938 8.726562 15.460938 9.5625 15.460938 10.59375 C 15.460938 11.632812 14.589844 12.472656 13.523438 12.472656 Z M 13.523438 12.472656 "/><path fill-rule="nonzero" fill="rgb(100%, 100%, 100%)" fill-opacity="1" d="M 15.78125 8.257812 C 14.890625 8.257812 14.171875 7.554688 14.164062 6.695312 C 14.164062 6.28125 14.335938 5.890625 14.640625 5.59375 C 14.945312 5.296875 15.351562 5.132812 15.78125 5.132812 C 16.671875 5.132812 17.398438 5.835938 17.398438 6.695312 C 17.398438 7.113281 17.234375 7.503906 16.929688 7.796875 C 16.625 8.09375 16.21875 8.257812 15.785156 8.257812 "/><path fill-rule="nonzero" fill="rgb(100%, 100%, 100%)" fill-opacity="1" d="M 19.34375 11.222656 C 18.363281 11.222656 17.5625 10.453125 17.5625 9.507812 C 17.5625 8.5625 18.359375 7.789062 19.339844 7.789062 C 20.324219 7.789062 21.117188 8.5625 21.117188 9.507812 C 21.125 10.453125 20.328125 11.222656 19.34375 11.226562 "/><path fill-rule="nonzero" fill="rgb(100%, 100%, 100%)" fill-opacity="1" d="M 14.976562 3.261719 C 14.257812 3.261719 13.679688 2.703125 13.679688 2.015625 C 13.679688 1.679688 13.8125 1.367188 14.058594 1.132812 C 14.304688 0.894531 14.625 0.761719 14.96875 0.761719 C 15.6875 0.761719 16.265625 1.320312 16.269531 2.011719 C 16.269531 2.703125 15.6875 3.261719 14.976562 3.261719 "/><path fill-rule="nonzero" fill="rgb(100%, 100%, 100%)" fill-opacity="1" d="M 18.859375 5.445312 C 18.054688 5.445312 17.398438 4.816406 17.398438 4.046875 C 17.398438 3.265625 18.054688 2.636719 18.859375 2.636719 C 19.660156 2.636719 20.3125 3.265625 20.3125 4.039062 C 20.3125 4.414062 20.164062 4.769531 19.890625 5.035156 C 19.613281 5.296875 19.25 5.445312 18.859375 5.445312 "/></g></svg>
