<svg width="64" height="64" viewBox="0 0 64 64" version="1.1"><defs><linearGradient id="linear-pattern-0" gradientUnits="userSpaceOnUse" x1="0" y1="0" x2="0" y2="1" gradientTransform="matrix(60, 0, 0, 56, 0, 4)"><stop offset="0" stop-color="#3067ff" stop-opacity="1"/><stop offset="1" stop-color="#002ca6" stop-opacity="1"/></linearGradient></defs><path fill="url(#linear-pattern-0)" fill-opacity="1" d="M 36.21875 2.050781 L 62.027344 27.605469 C 64.402344 29.957031 64.417969 33.785156 62.058594 36.15625 L 36.460938 61.917969 C 34.105469 64.289062 30.269531 64.304688 27.894531 61.949219 L 2.085938 36.394531 C -0.289062 34.042969 -0.304688 30.214844 2.050781 27.84375 L 27.652344 2.082031 C 30.007812 -0.289062 33.84375 -0.304688 36.21875 2.050781 Z M 36.21875 2.050781 " /><g transform="matrix(1.0075098,0,0,1.0032698,16.221436,16.077397)"><path fill-rule="evenodd" fill="rgb(100%, 100%, 100%)" fill-opacity="1" d="M 16.59375 0.550781 C 13.195312 0.664062 25.636719 17.945312 16.054688 16.84375 C 24.046875 19.070312 25.875 8.6875 24.246094 3.601562 C 22.628906 -1.429688 21.789062 1.710938 16.96875 0.59375 C 16.828125 0.5625 16.703125 0.546875 16.59375 0.550781 M 7.070312 2.960938 C 1.820312 2.953125 4.523438 4.726562 1.980469 8.992188 C -0.449219 13.070312 21.179688 5.773438 17.042969 14.890625 C 21.617188 7.929688 12.371094 2.96875 7.070312 2.960938 M 10.769531 10.757812 C 6.5625 10.75 2.335938 15.554688 1.152344 19.207031 C -0.476562 24.230469 2.039062 22.1875 5.28125 25.945312 C 8.382812 29.53125 8.171875 6.570312 15.507812 13.34375 C 14.054688 11.507812 12.410156 10.765625 10.769531 10.757812 M 28.972656 11.574219 C 26.363281 11.375 15.671875 25.25 13.914062 16.5 C 14.273438 24.839844 24.648438 23.382812 28.941406 20.25 C 33.195312 17.148438 29.972656 17.3125 29.535156 12.359375 C 29.492188 11.835938 29.289062 11.601562 28.972656 11.574219 M 13.570312 14.339844 C 5.804688 17.265625 10.382812 26.75 14.671875 29.890625 C 18.914062 33.003906 17.761719 29.96875 22.3125 28.023438 C 26.65625 26.164062 4.902344 19.273438 13.570312 14.339844 "/></g></svg>
