<svg width="64" height="64" viewBox="0 0 64 64" version="1.1"><defs><linearGradient id="linear-pattern-0" gradientUnits="userSpaceOnUse" x1="0" y1="0" x2="0" y2="1" gradientTransform="matrix(60, 0, 0, 56, 0, 4)"><stop offset="0" stop-color="#3067ff" stop-opacity="1"/><stop offset="1" stop-color="#002ca6" stop-opacity="1"/></linearGradient></defs><path fill="url(#linear-pattern-0)" fill-opacity="1" d="M 36.21875 2.050781 L 62.027344 27.605469 C 64.402344 29.957031 64.417969 33.785156 62.058594 36.15625 L 36.460938 61.917969 C 34.105469 64.289062 30.269531 64.304688 27.894531 61.949219 L 2.085938 36.394531 C -0.289062 34.042969 -0.304688 30.214844 2.050781 27.84375 L 27.652344 2.082031 C 30.007812 -0.289062 33.84375 -0.304688 36.21875 2.050781 Z M 36.21875 2.050781 " /><g transform="matrix(1.0075098,0,0,1.0032698,16.221436,16.077397)"><path fill-rule="nonzero" fill="rgb(100%, 100%, 100%)" fill-opacity="1" d="M 26.238281 0.585938 C 24.476562 0.585938 23.046875 1.960938 23.046875 3.65625 C 23.046875 5.355469 24.476562 6.730469 26.238281 6.730469 C 28 6.730469 29.433594 5.355469 29.433594 3.65625 C 29.433594 1.960938 28 0.585938 26.238281 0.585938 M 18.773438 3.796875 C 16.710938 3.796875 14.765625 4.265625 13.039062 5.085938 L 15.394531 9.007812 C 16.417969 8.546875 17.5625 8.289062 18.773438 8.289062 C 22.929688 8.289062 26.351562 11.335938 26.757812 15.234375 L 31.578125 15.234375 C 31.375 12.105469 29.921875 9.296875 27.703125 7.246094 C 26.605469 7.65625 25.335938 7.605469 24.234375 6.996094 C 23.148438 6.390625 22.464844 5.375 22.28125 4.265625 C 21.167969 3.964844 19.988281 3.796875 18.773438 3.796875 M 11.726562 5.804688 C 9.117188 7.4375 7.171875 9.953125 6.363281 12.902344 C 7.3125 13.609375 7.929688 14.710938 7.929688 15.957031 C 7.929688 17.210938 7.3125 18.328125 6.34375 19.03125 C 7.144531 22.015625 9.101562 24.5625 11.734375 26.210938 L 14.101562 22.273438 C 12.070312 20.875 10.75 18.585938 10.75 16 C 10.75 13.421875 12.070312 11.140625 14.085938 9.742188 L 11.726562 5.804688 M 3.921875 12.890625 C 2.160156 12.890625 0.734375 14.265625 0.734375 15.957031 C 0.734375 17.65625 2.160156 19.03125 3.921875 19.03125 C 5.6875 19.03125 7.117188 17.65625 7.117188 15.957031 C 7.117188 14.265625 5.6875 12.890625 3.921875 12.890625 M 26.765625 16.683594 C 26.40625 20.625 22.960938 23.722656 18.773438 23.722656 C 17.570312 23.722656 16.429688 23.464844 15.40625 23.007812 L 13.046875 26.929688 C 14.773438 27.746094 16.710938 28.210938 18.773438 28.210938 C 19.960938 28.210938 21.109375 28.054688 22.203125 27.765625 C 22.394531 26.667969 23.070312 25.65625 24.15625 25.058594 C 25.257812 24.445312 26.539062 24.398438 27.648438 24.820312 C 29.921875 22.75 31.398438 19.875 31.585938 16.683594 L 26.765625 16.683594 M 26.15625 25.324219 C 24.394531 25.324219 22.960938 26.703125 22.960938 28.398438 C 22.960938 30.09375 24.394531 31.46875 26.15625 31.46875 C 27.921875 31.46875 29.351562 30.09375 29.351562 28.398438 C 29.351562 26.703125 27.921875 25.324219 26.15625 25.324219 "/></g></svg>
