<svg width="64" height="64" viewBox="0 0 64 64" version="1.1"><defs><linearGradient id="linear-pattern-0" gradientUnits="userSpaceOnUse" x1="0" y1="0" x2="0" y2="1" gradientTransform="matrix(60, 0, 0, 56, 0, 4)"><stop offset="0" stop-color="#ec7700" stop-opacity="1"/><stop offset="1" stop-color="#773c00" stop-opacity="1"/></linearGradient></defs><path fill="url(#linear-pattern-0)" fill-opacity="1" d="M 36.21875 2.050781 L 62.027344 27.605469 C 64.402344 29.957031 64.417969 33.785156 62.058594 36.15625 L 36.460938 61.917969 C 34.105469 64.289062 30.269531 64.304688 27.894531 61.949219 L 2.085938 36.394531 C -0.289062 34.042969 -0.304688 30.214844 2.050781 27.84375 L 27.652344 2.082031 C 30.007812 -0.289062 33.84375 -0.304688 36.21875 2.050781 Z M 36.21875 2.050781 " /><g transform="matrix(1.0075098,0,0,1.0032698,16.221436,16.077397)"><path fill-rule="nonzero" fill="rgb(100%, 100%, 100%)" fill-opacity="1" d="M 28.054688 0.554688 L 23.554688 2.960938 L 28.054688 5.367188 Z M 19.054688 4.40625 L 13.257812 5.839844 L 14.445312 7.40625 C 15.824219 6.71875 17.394531 6.320312 19.054688 6.320312 C 24.234375 6.320312 28.5 10.125 29 14.984375 L 31 14.984375 C 30.492188 9.054688 25.34375 4.398438 19.007812 4.398438 Z M 11.59375 6.917969 C 8.835938 9.039062 7.054688 12.296875 7.054688 15.957031 C 7.0625 18.90625 8.234375 21.734375 10.335938 23.871094 L 20.835938 13.761719 L 19.085938 12.078125 L 10.316406 20.523438 C 9.515625 19.117188 9.09375 17.539062 9.085938 15.929688 C 9.085938 12.90625 10.535156 10.210938 12.796875 8.4375 Z M 24.09375 13.070312 L 11.695312 25.007812 C 13.8125 26.613281 16.425781 27.484375 19.117188 27.492188 C 25.40625 27.492188 30.511719 22.828125 31.113281 16.898438 L 29.09375 16.898438 L 28.972656 17.6875 Z M 5.097656 13.550781 L 1.097656 15.957031 L 5.097656 18.363281 Z M 28.09375 26.546875 L 23.59375 28.953125 L 28.09375 31.359375 Z M 28.09375 26.546875 "/></g></svg>
