<svg width="64" height="64" viewBox="0 0 64 64" version="1.1"><defs><linearGradient id="linear-pattern-0" gradientUnits="userSpaceOnUse" x1="0" y1="0" x2="0" y2="1" gradientTransform="matrix(60, 0, 0, 56, 0, 4)"><stop offset="0" stop-color="#008a97" stop-opacity="1"/><stop offset="1" stop-color="#00545c" stop-opacity="1"/></linearGradient></defs><path fill="url(#linear-pattern-0)" fill-opacity="1" d="M 36.21875 2.050781 L 62.027344 27.605469 C 64.402344 29.957031 64.417969 33.785156 62.058594 36.15625 L 36.460938 61.917969 C 34.105469 64.289062 30.269531 64.304688 27.894531 61.949219 L 2.085938 36.394531 C -0.289062 34.042969 -0.304688 30.214844 2.050781 27.84375 L 27.652344 2.082031 C 30.007812 -0.289062 33.84375 -0.304688 36.21875 2.050781 Z M 36.21875 2.050781 " /><g transform="matrix(1.0075098,0,0,1.0032698,16.221436,16.077397)"><path fill-rule="nonzero" fill="rgb(100%, 100%, 100%)" fill-opacity="1" d="M 10.710938 0.898438 C 10.5625 0.882812 10.410156 0.882812 10.257812 0.898438 C 6.59375 1.328125 9.855469 4.382812 12.015625 7.273438 C 11.90625 7.453125 11.710938 7.515625 11.5 7.613281 C 9.261719 6.757812 6.328125 3.132812 3.429688 4.164062 C 2.429688 4.515625 2.09375 5.410156 2.308594 5.921875 C 3.449219 8.683594 6.0625 9.59375 8.367188 10.914062 C 6.175781 14.652344 10.886719 18.5 9.996094 22.03125 C 9.671875 23.320312 9.59375 24.546875 9.824219 25.65625 C 9.78125 25.671875 9.734375 25.6875 9.691406 25.714844 C 8.675781 26.4375 8.539062 25.9375 8.242188 26.898438 C 8.203125 27.023438 7.558594 27.335938 8.03125 27.976562 C 7.710938 28.339844 7.644531 28.914062 8.136719 29.0625 C 8.554688 29.1875 8.949219 29.503906 9.300781 29.59375 C 9.863281 29.734375 10.421875 29.722656 10.734375 29.691406 C 11.617188 29.605469 12.414062 29.585938 13.144531 29.671875 C 14.507812 30.375 16.3125 30.914062 18.695312 31.210938 C 19.652344 31.328125 20.753906 31.652344 21.671875 31.460938 C 22.863281 31.828125 24.8125 32.09375 25.320312 30.890625 C 27.398438 30.671875 27.273438 29.546875 26.621094 28.28125 C 29.265625 25.597656 28.285156 23.59375 28.617188 21.3125 C 29 18.742188 29.796875 16.421875 29.589844 14.53125 C 28.984375 8.992188 22.695312 5.914062 16.9375 6.34375 C 15.273438 4.925781 12.976562 1.132812 10.703125 0.898438 Z M 10.710938 0.898438 "/></g></svg>
