<svg width="64" height="64" viewBox="0 0 64 64" version="1.1"><defs><linearGradient id="linear-pattern-0" gradientUnits="userSpaceOnUse" x1="0" y1="0" x2="0" y2="1" gradientTransform="matrix(60, 0, 0, 56, 0, 4)"><stop offset="0" stop-color="#a67e50" stop-opacity="1"/><stop offset="1" stop-color="#644c30" stop-opacity="1"/></linearGradient></defs><path fill="url(#linear-pattern-0)" fill-opacity="1" d="M 36.21875 2.050781 L 62.027344 27.605469 C 64.402344 29.957031 64.417969 33.785156 62.058594 36.15625 L 36.460938 61.917969 C 34.105469 64.289062 30.269531 64.304688 27.894531 61.949219 L 2.085938 36.394531 C -0.289062 34.042969 -0.304688 30.214844 2.050781 27.84375 L 27.652344 2.082031 C 30.007812 -0.289062 33.84375 -0.304688 36.21875 2.050781 Z M 36.21875 2.050781 " /><g transform="matrix(1.0075098,0,0,1.0032698,16.221436,16.077397)"><path fill-rule="nonzero" fill="rgb(100%, 100%, 100%)" fill-opacity="1" d="M 31.296875 1.148438 C 28.039062 4.398438 25.175781 8.671875 20.441406 8.671875 C 17.574219 8.671875 17.183594 6.164062 17.183594 1.5625 C 16.757812 3.179688 16.097656 4.683594 16.097656 7.414062 C 16.097656 10.523438 17.171875 13.683594 20.441406 13.683594 C 24.992188 13.683594 29.78125 5.960938 31.296875 1.148438 Z M 17.183594 14.9375 C 10.355469 14.9375 4.375 25.601562 0.898438 31.230469 C 6.078125 26.84375 9.585938 21.203125 17.183594 21.203125 C 21.527344 21.203125 22.613281 26.21875 22.613281 31.230469 C 23.257812 28.898438 23.699219 27.65625 23.699219 23.710938 C 23.699219 19.222656 22.09375 14.9375 17.183594 14.9375 Z M 17.183594 14.9375 "/></g></svg>
