<svg width="64" height="64" viewBox="0 0 64 64" version="1.1"><defs><linearGradient id="linear-pattern-0" gradientUnits="userSpaceOnUse" x1="0" y1="0" x2="0" y2="1" gradientTransform="matrix(60, 0, 0, 56, 0, 4)"><stop offset="0" stop-color="#d00068" stop-opacity="1"/><stop offset="1" stop-color="#6e0037" stop-opacity="1"/></linearGradient></defs><path fill="url(#linear-pattern-0)" fill-opacity="1" d="M 36.21875 2.050781 L 62.027344 27.605469 C 64.402344 29.957031 64.417969 33.785156 62.058594 36.15625 L 36.460938 61.917969 C 34.105469 64.289062 30.269531 64.304688 27.894531 61.949219 L 2.085938 36.394531 C -0.289062 34.042969 -0.304688 30.214844 2.050781 27.84375 L 27.652344 2.082031 C 30.007812 -0.289062 33.84375 -0.304688 36.21875 2.050781 Z M 36.21875 2.050781 " /><g transform="matrix(1.0075098,0,0,1.0032698,16.221436,16.077397)"><path fill-rule="nonzero" fill="rgb(100%, 100%, 100%)" fill-opacity="1" d="M 14.78125 0.585938 L 12.398438 5.210938 L 12.398438 31.414062 L 17.164062 31.414062 L 17.164062 0.585938 Z M 18.351562 0.585938 L 18.351562 31.414062 L 19.542969 31.414062 L 23.117188 25.25 L 23.117188 0.585938 Z M 11.210938 8.296875 L 0.492188 31.414062 L 6.445312 31.414062 L 11.210938 21.398438 Z M 25.496094 25.25 L 21.921875 31.414062 L 31.449219 31.414062 L 31.449219 25.25 Z M 25.496094 25.25 "/></g></svg>
