<svg width="64" height="64" viewBox="0 0 64 64" version="1.1"><defs><linearGradient id="linear-pattern-0" gradientUnits="userSpaceOnUse" x1="0" y1="0" x2="0" y2="1" gradientTransform="matrix(60, 0, 0, 56, 0, 4)"><stop offset="0" stop-color="#7795ab" stop-opacity="1"/><stop offset="1" stop-color="#3b4f5f" stop-opacity="1"/></linearGradient></defs><path fill="url(#linear-pattern-0)" fill-opacity="1" d="M 36.21875 2.050781 L 62.027344 27.605469 C 64.402344 29.957031 64.417969 33.785156 62.058594 36.15625 L 36.460938 61.917969 C 34.105469 64.289062 30.269531 64.304688 27.894531 61.949219 L 2.085938 36.394531 C -0.289062 34.042969 -0.304688 30.214844 2.050781 27.84375 L 27.652344 2.082031 C 30.007812 -0.289062 33.84375 -0.304688 36.21875 2.050781 Z M 36.21875 2.050781 " /><g transform="matrix(1.0075098,0,0,1.0032698,16.221436,16.077397)"><path fill-rule="nonzero" fill="rgb(100%, 100%, 100%)" fill-opacity="1" d="M 16 0 C 7.171875 0 0 7.171875 0 16 C 0 22.859375 4.335938 28.710938 10.414062 30.976562 C 10.445312 30.992188 10.46875 31.007812 10.5 31.023438 C 10.992188 31.203125 11.492188 31.367188 12 31.5 C 12.007812 31.5 12.015625 31.5 12.023438 31.5 C 12.273438 31.5625 12.53125 31.621094 12.78125 31.671875 C 12.828125 31.679688 12.867188 31.6875 12.914062 31.695312 C 13.203125 31.753906 13.492188 31.808594 13.78125 31.847656 C 13.929688 31.867188 14.085938 31.875 14.242188 31.890625 C 14.28125 31.898438 14.328125 31.90625 14.367188 31.914062 C 14.554688 31.929688 14.726562 31.941406 14.914062 31.953125 C 15.273438 31.984375 15.636719 32 16 32 C 16.273438 32 16.554688 31.992188 16.828125 31.976562 C 17.148438 31.960938 17.453125 31.921875 17.757812 31.890625 C 17.914062 31.875 18.070312 31.867188 18.21875 31.847656 C 18.507812 31.808594 18.796875 31.753906 19.085938 31.695312 C 19.40625 31.632812 19.703125 31.578125 20 31.5 C 20.507812 31.367188 21.007812 31.203125 21.5 31.023438 C 21.53125 31.007812 21.554688 30.992188 21.585938 30.976562 C 27.664062 28.710938 32 22.859375 32 16 C 32 7.171875 24.828125 0 16 0 Z M 16 1.390625 C 24.078125 1.390625 30.609375 7.921875 30.609375 16 C 30.609375 20.480469 28.605469 24.492188 25.433594 27.171875 C 25.210938 26.640625 24.828125 25.90625 24.21875 25.171875 C 22.269531 26.214844 19.570312 27.132812 16 27.132812 C 12.429688 27.132812 9.730469 26.214844 7.78125 25.171875 C 7.28125 25.777344 6.867188 26.453125 6.5625 27.171875 C 3.273438 24.398438 1.382812 20.304688 1.390625 16 C 1.390625 7.921875 7.921875 1.390625 16 1.390625 Z M 9.109375 6.046875 L 8.632812 6.390625 C 6.617188 8.007812 5.902344 10.757812 6.867188 13.152344 C 6.335938 14.089844 4.898438 16.976562 4.867188 20.828125 L 4.867188 21.066406 L 5 21.261719 C 5.136719 21.441406 8.4375 25.742188 16 25.742188 C 23.5625 25.742188 26.863281 21.441406 27 21.257812 L 27.132812 21.066406 L 27.132812 20.828125 C 27.101562 16.976562 25.664062 14.089844 25.132812 13.152344 C 26.097656 10.757812 25.382812 8.007812 23.367188 6.390625 L 22.890625 6.046875 L 20 8.933594 C 19.324219 8.710938 17.929688 8.347656 16 8.347656 C 14.070312 8.347656 12.675781 8.710938 12 8.933594 Z M 12.523438 14.609375 C 13.265625 14.609375 13.953125 15.007812 14.328125 15.65625 C 14.703125 16.300781 14.703125 17.09375 14.328125 17.742188 C 13.953125 18.386719 13.265625 18.78125 12.519531 18.78125 C 11.367188 18.78125 10.433594 17.847656 10.433594 16.695312 C 10.433594 15.542969 11.367188 14.609375 12.523438 14.609375 Z M 19.476562 14.609375 C 20.226562 14.609375 20.914062 15.007812 21.285156 15.65625 C 21.65625 16.300781 21.65625 17.09375 21.285156 17.742188 C 20.914062 18.386719 20.222656 18.78125 19.476562 18.78125 C 18.324219 18.78125 17.390625 17.847656 17.390625 16.695312 C 17.390625 15.542969 18.328125 14.609375 19.476562 14.609375 Z M 14.257812 20.171875 L 17.742188 20.171875 L 16 21.914062 Z M 14.257812 20.171875 "/></g></svg>
