<svg width="64" height="64" viewBox="0 0 64 64" version="1.1"><defs><linearGradient id="linear-pattern-0" gradientUnits="userSpaceOnUse" x1="0" y1="0" x2="0" y2="1" gradientTransform="matrix(60, 0, 0, 56, 0, 4)"><stop offset="0" stop-color="#6926fc" stop-opacity="1"/><stop offset="1" stop-color="#3702ab" stop-opacity="1"/></linearGradient></defs><path fill="url(#linear-pattern-0)" fill-opacity="1" d="M 36.21875 2.050781 L 62.027344 27.605469 C 64.402344 29.957031 64.417969 33.785156 62.058594 36.15625 L 36.460938 61.917969 C 34.105469 64.289062 30.269531 64.304688 27.894531 61.949219 L 2.085938 36.394531 C -0.289062 34.042969 -0.304688 30.214844 2.050781 27.84375 L 27.652344 2.082031 C 30.007812 -0.289062 33.84375 -0.304688 36.21875 2.050781 Z M 36.21875 2.050781 " /><g transform="matrix(1.0075098,0,0,1.0032698,16.221436,16.077397)"><path fill-rule="nonzero" fill="rgb(100%, 100%, 100%)" fill-opacity="1" d="M 0.625 1.761719 L 0.625 17.773438 C 0.625 20.054688 1.867188 23.25 3.929688 25.773438 C 6.777344 29.25 11.183594 31.492188 16.117188 31.492188 C 19.40625 31.492188 22.4375 30.480469 24.949219 28.863281 C 25.910156 30.507812 26.859375 31.492188 28.664062 31.492188 C 30.3125 31.492188 31.648438 29.960938 31.648438 28.0625 C 31.648438 26.65625 30.804688 25.257812 29.710938 24.082031 C 30.945312 22.125 31.648438 19.945312 31.648438 17.773438 L 31.648438 1.761719 C 26.867188 1.761719 23.285156 7.480469 23.285156 7.480469 L 8.953125 7.480469 C 8.953125 7.480469 5.367188 1.761719 0.589844 1.761719 Z M 0.625 1.761719 "/><path fill-rule="nonzero" fill="rgb(100%, 100%, 100%)" fill-opacity="1" d="M 30.488281 0.621094 C 25.710938 0.621094 22.125 6.335938 22.125 6.335938 L 16.585938 6.335938 C 15.851562 25.660156 7.351562 18.570312 2.726562 24.632812 C 5.570312 28.105469 9.980469 30.347656 14.910156 30.347656 C 23.488281 30.347656 30.445312 23.484375 30.445312 16.625 Z M 30.488281 0.621094 "/></g></svg>
