<svg width="64" height="64" viewBox="0 0 64 64" version="1.1"><defs><linearGradient id="linear-pattern-0" gradientUnits="userSpaceOnUse" x1="0" y1="0" x2="0" y2="1" gradientTransform="matrix(60, 0, 0, 56, 0, 4)"><stop offset="0" stop-color="#008a97" stop-opacity="1"/><stop offset="1" stop-color="#00545c" stop-opacity="1"/></linearGradient></defs><path fill="url(#linear-pattern-0)" fill-opacity="1" d="M 36.21875 2.050781 L 62.027344 27.605469 C 64.402344 29.957031 64.417969 33.785156 62.058594 36.15625 L 36.460938 61.917969 C 34.105469 64.289062 30.269531 64.304688 27.894531 61.949219 L 2.085938 36.394531 C -0.289062 34.042969 -0.304688 30.214844 2.050781 27.84375 L 27.652344 2.082031 C 30.007812 -0.289062 33.84375 -0.304688 36.21875 2.050781 Z M 36.21875 2.050781 " /><g transform="matrix(1.0075098,0,0,1.0032698,16.221436,16.077397)"><path fill-rule="nonzero" fill="rgb(100%, 100%, 100%)" fill-opacity="1" d="M 17.609375 0.617188 C 16.71875 0.636719 15.835938 0.796875 14.976562 1.109375 C 13.84375 1.523438 18.523438 1.828125 20.195312 2.257812 C 22.546875 2.875 24.195312 4.214844 25.679688 6 C 27.097656 7.707031 27.410156 9.671875 27.25 11.796875 C 27.078125 14.015625 27.222656 16.273438 26.5 18.414062 C 25.597656 21.09375 23.8125 23.542969 21.125 24.792969 C 18.523438 26.007812 15.421875 26.015625 12.867188 24.570312 C 11.757812 23.9375 9.984375 21.195312 9.964844 21.878906 C 9.882812 24.683594 13.203125 26.273438 15.765625 27.339844 C 17.753906 28.164062 19.785156 27.335938 21.734375 27.179688 C 23.632812 27.023438 25.226562 26.050781 26.585938 24.800781 C 28.554688 22.992188 30.109375 20.820312 30.890625 18.25 C 32.199219 13.949219 30.722656 9.363281 27.9375 5.976562 C 25.46875 2.957031 21.476562 0.523438 17.609375 0.617188 Z M 16.429688 4.320312 C 14.992188 4.34375 13.554688 4.734375 12.164062 4.871094 C 9.28125 5.148438 7.515625 7.5625 5.648438 9.425781 C 3.65625 11.421875 3.453125 14.234375 2.863281 16.773438 C 2.507812 18.3125 -0.902344 19.671875 1.390625 21 C 2.6875 21.75 5.328125 22.65625 4.175781 24.488281 C 2.523438 27.109375 5.59375 26.101562 7.101562 26.75 C 8.84375 27.5 8.101562 30.328125 9.734375 30.066406 C 11.730469 29.746094 13.429688 30.863281 15.335938 31.007812 C 16.855469 31.125 18.585938 31.621094 19.898438 30.867188 C 20.398438 30.578125 17.1875 30.75 16.160156 30.273438 C 14.28125 29.394531 11.765625 29.648438 10.375 27.9375 C 8.867188 26.089844 6.550781 24.179688 7.015625 21.578125 C 7.398438 19.421875 6.933594 17.246094 7.429688 15.101562 C 8.261719 11.503906 11.414062 8.757812 15.046875 7.929688 C 16.683594 7.554688 18.472656 6.765625 20.121094 7.71875 C 21.890625 8.738281 23.511719 9.96875 24.484375 11.75 C 25.625 13.84375 24.53125 10.226562 24.277344 9.453125 C 23.523438 7.167969 21.21875 5.828125 19 4.8125 C 18.148438 4.425781 17.289062 4.304688 16.429688 4.320312 M 17.75 9.625 C 15.882812 9.625 13.539062 10.265625 12.585938 11.335938 C 11.304688 12.757812 10.523438 13.25 10.382812 14.871094 C 10.25 16.492188 10.519531 18.59375 11.339844 20.28125 C 12.160156 21.964844 14 23.042969 15.699219 23.5 C 17.398438 23.960938 18.972656 23.878906 20.453125 23.265625 C 21.9375 22.648438 22.605469 21.054688 23.441406 20 C 24.28125 18.945312 24.007812 18.078125 23.96875 16.695312 C 23.929688 15.3125 23.460938 13.28125 22.691406 11.957031 C 21.921875 10.636719 21.1875 10.453125 19.394531 9.851562 C 18.945312 9.699219 18.375 9.625 17.753906 9.625 Z M 17.195312 12.835938 C 18.441406 12.921875 19.730469 13.601562 20.363281 14.734375 C 21.375 16.539062 19.652344 19.554688 18.347656 20.148438 C 17.039062 20.734375 17.304688 20.371094 16.304688 20.234375 C 15.304688 20.101562 14.15625 19.109375 13.789062 17.726562 C 13.425781 16.347656 13.625 14.414062 15.144531 13.34375 C 15.710938 12.9375 16.445312 12.78125 17.195312 12.835938 Z M 17.195312 12.835938 "/></g></svg>
