<svg width="64" height="64" viewBox="0 0 64 64" version="1.1"><defs><linearGradient id="linear-pattern-0" gradientUnits="userSpaceOnUse" x1="0" y1="0" x2="0" y2="1" gradientTransform="matrix(60, 0, 0, 56, 0, 4)"><stop offset="0" stop-color="#c10000" stop-opacity="1"/><stop offset="1" stop-color="#5f0000" stop-opacity="1"/></linearGradient></defs><path fill="url(#linear-pattern-0)" fill-opacity="1" d="M 36.21875 2.050781 L 62.027344 27.605469 C 64.402344 29.957031 64.417969 33.785156 62.058594 36.15625 L 36.460938 61.917969 C 34.105469 64.289062 30.269531 64.304688 27.894531 61.949219 L 2.085938 36.394531 C -0.289062 34.042969 -0.304688 30.214844 2.050781 27.84375 L 27.652344 2.082031 C 30.007812 -0.289062 33.84375 -0.304688 36.21875 2.050781 Z M 36.21875 2.050781 " /><g transform="matrix(1.0075098,0,0,1.0032698,16.221436,16.077397)"><path fill-rule="nonzero" fill="rgb(100%, 100%, 100%)" fill-opacity="1" d="M 19.929688 0.78125 C 7.101562 8.414062 12.234375 14.773438 13.515625 16.046875 C 12.777344 13.171875 13.679688 9.125 17.363281 7.140625 C 18.492188 6.535156 19.929688 2.054688 19.929688 0.78125 Z M 7.914062 2.550781 C 4.289062 16.945312 12.453125 17.847656 14.265625 17.847656 C 11.695312 16.328125 9.449219 12.835938 10.640625 8.851562 C 11.003906 7.632812 8.824219 3.453125 7.914062 2.550781 Z M 22.875 7.042969 C 14.867188 7.167969 14.265625 12.789062 14.265625 14.25 C 15.796875 11.695312 19.320312 9.472656 23.335938 10.648438 C 24.566406 11.011719 28.78125 8.851562 29.6875 7.953125 C 26.96875 7.277344 24.722656 7.015625 22.875 7.042969 Z M 21.375 11.4375 C 18.648438 11.273438 16.722656 12.867188 16.078125 13.5 C 18.980469 12.773438 23.0625 13.667969 25.0625 17.320312 C 25.671875 18.4375 30.1875 19.867188 31.472656 19.867188 C 27.625 13.5 24.097656 11.59375 21.375 11.4375 Z M 0.6875 12.230469 C 8.382812 24.953125 14.796875 19.867188 16.078125 18.59375 C 13.179688 19.324219 9.101562 18.425781 7.101562 14.773438 C 6.488281 13.65625 1.96875 12.230469 0.6875 12.230469 Z M 17.890625 14.25 C 20.46875 15.765625 22.710938 19.261719 21.523438 23.242188 C 21.15625 24.460938 23.335938 28.644531 24.242188 29.546875 C 27.871094 15.148438 19.710938 14.25 17.890625 14.25 Z M 18.648438 16.046875 C 19.382812 18.925781 18.476562 22.96875 14.796875 24.953125 C 13.671875 25.5625 12.234375 30.046875 12.234375 31.316406 C 25.0625 23.679688 19.929688 17.320312 18.648438 16.046875 Z M 17.890625 17.847656 C 16.367188 20.398438 12.84375 22.625 8.824219 21.445312 C 7.59375 21.085938 3.378906 23.242188 2.472656 24.144531 C 16.984375 27.742188 17.890625 19.648438 17.890625 17.847656 Z M 17.890625 17.847656 "/></g></svg>
