<svg width="64" height="64" viewBox="0 0 64 64" version="1.1"><defs><linearGradient id="linear-pattern-0" gradientUnits="userSpaceOnUse" x1="0" y1="0" x2="0" y2="1" gradientTransform="matrix(60, 0, 0, 56, 0, 4)"><stop offset="0" stop-color="#d00068" stop-opacity="1"/><stop offset="1" stop-color="#6e0037" stop-opacity="1"/></linearGradient></defs><path fill="url(#linear-pattern-0)" fill-opacity="1" d="M 36.21875 2.050781 L 62.027344 27.605469 C 64.402344 29.957031 64.417969 33.785156 62.058594 36.15625 L 36.460938 61.917969 C 34.105469 64.289062 30.269531 64.304688 27.894531 61.949219 L 2.085938 36.394531 C -0.289062 34.042969 -0.304688 30.214844 2.050781 27.84375 L 27.652344 2.082031 C 30.007812 -0.289062 33.84375 -0.304688 36.21875 2.050781 Z M 36.21875 2.050781 " /><g transform="matrix(1.0075098,0,0,1.0032698,16.221436,16.077397)"><path fill-rule="nonzero" fill="rgb(100%, 100%, 100%)" fill-opacity="1" d="M 16.09375 0.9375 C 10.992188 0.945312 6.21875 3.46875 3.351562 7.683594 C 4.011719 10.960938 5.097656 13.335938 6.164062 15.007812 C 6.402344 15.378906 6.632812 15.703125 6.855469 16.007812 C 7.03125 11.039062 11.117188 7.101562 16.09375 7.097656 C 16.59375 7.101562 17.09375 7.144531 17.589844 7.226562 C 18.53125 6.878906 20.03125 6.453125 22.117188 6.359375 C 22.5625 6.34375 23.027344 6.335938 23.523438 6.351562 C 24.941406 6.394531 26.570312 6.609375 28.382812 7.054688 C 25.46875 3.210938 20.921875 0.945312 16.09375 0.9375 Z M 23.460938 8.402344 C 23.019531 8.390625 22.601562 8.394531 22.207031 8.414062 C 21.769531 8.429688 21.371094 8.46875 20.996094 8.511719 C 23.699219 10.195312 25.34375 13.148438 25.351562 16.332031 C 25.351562 18.464844 24.609375 20.53125 23.25 22.183594 C 23.078125 23.171875 22.703125 24.675781 21.742188 26.519531 C 20.941406 28.046875 19.746094 29.785156 18.007812 31.585938 C 25.71875 30.625 31.515625 24.085938 31.519531 16.332031 C 31.515625 14.011719 30.984375 11.726562 29.96875 9.640625 C 27.425781 8.785156 25.25 8.453125 23.460938 8.402344 Z M 1.898438 10.355469 C 1.09375 12.246094 0.675781 14.277344 0.671875 16.332031 C 0.671875 24.382812 6.898438 31.074219 14.945312 31.671875 C 17.46875 29.460938 18.992188 27.332031 19.914062 25.570312 C 20.113281 25.1875 20.28125 24.824219 20.429688 24.484375 C 19.09375 25.1875 17.609375 25.5625 16.09375 25.5625 C 12.242188 25.5625 8.792969 23.179688 7.4375 19.578125 C 6.664062 18.9375 5.546875 17.859375 4.429688 16.113281 C 3.503906 14.65625 2.59375 12.757812 1.898438 10.355469 Z M 9.921875 13.25 L 9.921875 17.867188 C 9.921875 18.488281 10.132812 19.007812 10.445312 19.382812 C 10.757812 19.757812 11.15625 19.992188 11.535156 20.140625 C 12.289062 20.441406 13.007812 20.433594 13.007812 20.433594 C 13.007812 20.433594 13.734375 20.441406 14.484375 20.140625 C 14.863281 19.992188 15.265625 19.757812 15.574219 19.382812 C 15.890625 19.007812 16.09375 18.488281 16.09375 17.867188 L 16.09375 13.25 L 14.039062 13.25 L 14.039062 17.867188 C 14.039062 18.765625 13.75 19.070312 13.496094 19.238281 C 13.242188 19.40625 13.007812 19.40625 13.007812 19.40625 C 13.007812 19.40625 12.78125 19.40625 12.523438 19.238281 C 12.269531 19.070312 11.984375 18.765625 11.984375 17.867188 L 11.984375 13.25 Z M 18.152344 13.25 L 18.152344 20.433594 L 22.78125 20.433594 L 22.78125 19.40625 L 20.210938 19.40625 L 20.210938 17.359375 L 22.265625 17.359375 L 22.265625 16.332031 L 20.210938 16.332031 L 20.210938 14.277344 L 22.78125 14.277344 L 22.78125 13.25 Z M 18.152344 13.25 "/></g></svg>
