<svg width="64" height="64" viewBox="0 0 64 64" version="1.1"><defs><linearGradient id="linear-pattern-0" gradientUnits="userSpaceOnUse" x1="0" y1="0" x2="0" y2="1" gradientTransform="matrix(60, 0, 0, 56, 0, 4)"><stop offset="0" stop-color="#aaaa00" stop-opacity="1"/><stop offset="1" stop-color="#5c5c00" stop-opacity="1"/></linearGradient></defs><path fill="url(#linear-pattern-0)" fill-opacity="1" d="M 36.21875 2.050781 L 62.027344 27.605469 C 64.402344 29.957031 64.417969 33.785156 62.058594 36.15625 L 36.460938 61.917969 C 34.105469 64.289062 30.269531 64.304688 27.894531 61.949219 L 2.085938 36.394531 C -0.289062 34.042969 -0.304688 30.214844 2.050781 27.84375 L 27.652344 2.082031 C 30.007812 -0.289062 33.84375 -0.304688 36.21875 2.050781 Z M 36.21875 2.050781 " /><g transform="matrix(1.0075098,0,0,1.0032698,16.221436,16.077397)"><path fill-rule="nonzero" fill="rgb(100%, 100%, 100%)" fill-opacity="1" d="M 2.148438 30.832031 L 3.984375 30.832031 C 4.332031 30.34375 4.769531 30.101562 5.289062 30.101562 C 5.640625 30.101562 6.425781 30.21875 7.644531 30.464844 C 11.484375 31.078125 14.542969 31.382812 16.808594 31.382812 C 25.710938 31.140625 30.515625 28.320312 31.207031 22.9375 C 31.207031 20.734375 29.898438 18.648438 27.277344 16.691406 C 25.1875 15.222656 21.695312 13.632812 16.808594 11.914062 C 11.398438 9.832031 8.695312 8 8.695312 6.40625 C 9.046875 4.324219 11.226562 3.222656 15.238281 3.101562 C 20.648438 3.222656 24.316406 5.304688 26.234375 9.34375 L 28.851562 9.34375 L 27.539062 1.820312 L 26.234375 1.820312 C 25.882812 1.9375 25.796875 2 25.96875 2 C 25.59375 2.203125 25.140625 2.335938 24.664062 2.367188 C 24.488281 2.367188 23.878906 2.242188 22.828125 2 C 19.691406 1.390625 16.894531 1.078125 14.453125 1.078125 C 5.902344 1.449219 1.367188 4.019531 0.839844 8.796875 C 1.886719 13.328125 5.8125 16.386719 12.625 17.976562 C 18.382812 19.570312 21.609375 21.835938 22.304688 24.777344 C 21.957031 27.710938 19.421875 29.242188 14.71875 29.371094 C 9.132812 29.371094 5.289062 27.042969 3.199219 22.390625 L 0.578125 22.390625 L 2.148438 30.835938 "/></g></svg>
