<svg width="64" height="64" viewBox="0 0 64 64" version="1.1"><defs><linearGradient id="linear-pattern-0" gradientUnits="userSpaceOnUse" x1="0" y1="0" x2="0" y2="1" gradientTransform="matrix(60, 0, 0, 56, 0, 4)"><stop offset="0" stop-color="#d00068" stop-opacity="1"/><stop offset="1" stop-color="#6e0037" stop-opacity="1"/></linearGradient></defs><path fill="url(#linear-pattern-0)" fill-opacity="1" d="M 36.21875 2.050781 L 62.027344 27.605469 C 64.402344 29.957031 64.417969 33.785156 62.058594 36.15625 L 36.460938 61.917969 C 34.105469 64.289062 30.269531 64.304688 27.894531 61.949219 L 2.085938 36.394531 C -0.289062 34.042969 -0.304688 30.214844 2.050781 27.84375 L 27.652344 2.082031 C 30.007812 -0.289062 33.84375 -0.304688 36.21875 2.050781 Z M 36.21875 2.050781 " /><g transform="matrix(1.0075098,0,0,1.0032698,16.221436,16.077397)"><path fill-rule="evenodd" fill="rgb(100%, 100%, 100%)" fill-opacity="1" d="M 0.585938 0.984375 L 0.585938 22.828125 C 0.585938 25.148438 1.414062 27.179688 3 28.820312 C 4.359375 30.214844 5.988281 31.125 7.824219 31.328125 L 22.84375 31.328125 C 25.144531 31.328125 27.15625 30.4375 28.792969 28.707031 L 28.804688 28.707031 C 30.195312 27.226562 31.007812 25.449219 31.203125 23.453125 L 31.203125 21.019531 L 31.195312 11.515625 C 31.195312 9.625 30.515625 7.945312 29.234375 6.605469 C 27.953125 5.261719 26.359375 4.570312 24.5625 4.570312 C 22.796875 4.570312 21.257812 5.25 20.015625 6.496094 C 18.769531 5.25 17.242188 4.570312 15.480469 4.570312 C 13.683594 4.570312 12.09375 5.261719 10.8125 6.605469 C 9.53125 7.945312 8.859375 9.625 8.859375 11.515625 L 8.859375 21.078125 L 13.03125 21.078125 L 13.03125 11.515625 C 13.03125 10.789062 13.265625 10.226562 13.761719 9.703125 C 14.265625 9.179688 14.792969 8.9375 15.480469 8.9375 C 16.179688 8.9375 16.703125 9.175781 17.210938 9.703125 C 17.703125 10.226562 17.933594 10.789062 17.933594 11.515625 L 17.933594 21.078125 L 22.109375 21.078125 L 22.109375 11.515625 C 22.109375 10.789062 22.339844 10.226562 22.84375 9.703125 C 23.339844 9.175781 23.859375 8.9375 24.5625 8.9375 C 25.25 8.9375 25.789062 9.179688 26.285156 9.703125 C 26.785156 10.226562 27.007812 10.789062 27.007812 11.515625 L 27.03125 22.6875 C 27.03125 22.828125 27.023438 22.96875 27.007812 23.109375 C 27.007812 23.109375 27.011719 23.117188 27.007812 23.125 C 27.003906 23.179688 26.992188 23.234375 26.984375 23.285156 C 26.96875 23.398438 26.945312 23.507812 26.917969 23.617188 C 26.4375 25.570312 24.476562 27.078125 22.042969 27.078125 L 13.019531 27.039062 L 13.019531 27.042969 L 8.5625 27.023438 C 6.394531 27.023438 4.542969 24.839844 4.542969 22.03125 L 4.542969 0.984375 L 0.585938 0.984375 "/></g></svg>
