<svg width="64" height="64" viewBox="0 0 64 64" version="1.1"><defs><linearGradient id="linear-pattern-0" gradientUnits="userSpaceOnUse" x1="0" y1="0" x2="0" y2="1" gradientTransform="matrix(60, 0, 0, 56, 0, 4)"><stop offset="0" stop-color="#ec7700" stop-opacity="1"/><stop offset="1" stop-color="#773c00" stop-opacity="1"/></linearGradient></defs><path fill="url(#linear-pattern-0)" fill-opacity="1" d="M 36.21875 2.050781 L 62.027344 27.605469 C 64.402344 29.957031 64.417969 33.785156 62.058594 36.15625 L 36.460938 61.917969 C 34.105469 64.289062 30.269531 64.304688 27.894531 61.949219 L 2.085938 36.394531 C -0.289062 34.042969 -0.304688 30.214844 2.050781 27.84375 L 27.652344 2.082031 C 30.007812 -0.289062 33.84375 -0.304688 36.21875 2.050781 Z M 36.21875 2.050781 " /><g transform="matrix(1.0075098,0,0,1.0032698,16.221436,16.077397)"><path fill-rule="nonzero" fill="rgb(100%, 100%, 100%)" fill-opacity="1" d="M 16.738281 0.914062 L 3.414062 7.941406 L 3.414062 24.332031 L 16.738281 31.359375 L 30.070312 24.332031 L 30.070312 7.941406 Z M 16.738281 0.914062 "/><path fill-rule="nonzero" fill="rgb(68.235294%, 70.196078%, 76.078431%)" fill-opacity="1" d="M 16.894531 7.3125 L 16.894531 14.070312 L 10.320312 14.070312 L 10.320312 24.214844 L 20.179688 24.214844 L 20.179688 7.3125 Z M 13.609375 17.453125 L 16.894531 17.453125 L 16.894531 20.832031 L 13.609375 20.832031 Z M 13.609375 17.453125 "/></g></svg>
