<svg width="64" height="64" viewBox="0 0 64 64" version="1.1"><defs><linearGradient id="linear-pattern-0" gradientUnits="userSpaceOnUse" x1="0" y1="0" x2="0" y2="1" gradientTransform="matrix(60, 0, 0, 56, 0, 4)"><stop offset="0" stop-color="#aaaa00" stop-opacity="1"/><stop offset="1" stop-color="#5c5c00" stop-opacity="1"/></linearGradient></defs><path fill="url(#linear-pattern-0)" fill-opacity="1" d="M 36.21875 2.050781 L 62.027344 27.605469 C 64.402344 29.957031 64.417969 33.785156 62.058594 36.15625 L 36.460938 61.917969 C 34.105469 64.289062 30.269531 64.304688 27.894531 61.949219 L 2.085938 36.394531 C -0.289062 34.042969 -0.304688 30.214844 2.050781 27.84375 L 27.652344 2.082031 C 30.007812 -0.289062 33.84375 -0.304688 36.21875 2.050781 Z M 36.21875 2.050781 " /><g transform="matrix(1.0075098,0,0,1.0032698,16.221436,16.077397)"><path fill-rule="evenodd" fill="rgb(100%, 100%, 100%)" fill-opacity="1" d="M 25.039062 5.644531 C 25.039062 8.140625 22.980469 10.164062 20.4375 10.164062 C 19.78125 10.164062 19.160156 10.023438 18.59375 9.78125 C 16.976562 9.085938 17.84375 7.84375 17.84375 5.992188 C 17.84375 5.125 16.085938 3.96875 16.519531 3.28125 C 17.328125 1.988281 18.78125 1.125 20.4375 1.125 C 22.980469 1.125 25.039062 3.148438 25.039062 5.644531 Z M 25.03125 1.691406 C 25.03125 0.757812 25.796875 0 26.726562 0 C 27.664062 0 28.421875 0.757812 28.421875 1.691406 C 28.421875 2.625 27.664062 3.386719 26.726562 3.386719 C 25.796875 3.386719 25.03125 2.625 25.03125 1.691406 Z M 25.03125 1.691406 "/><path fill-rule="evenodd" fill="rgb(100%, 100%, 100%)" fill-opacity="1" d="M 32 24.054688 C 31.617188 30.929688 29.523438 32 20.976562 32 L 11.09375 32 C 1.390625 32 0 30.617188 0 20.914062 L 0 18.503906 C 12.582031 19.007812 23.25 20.859375 32 24.054688 Z M 7.53125 3.949219 L 11.820312 3.949219 C 14.867188 3.949219 16.5625 5.492188 16.5625 8.46875 C 16.5625 11.445312 14.867188 12.984375 11.820312 12.984375 L 7.53125 12.984375 Z M 4.347656 0 C 3.921875 0 3.578125 0.339844 3.578125 0.765625 L 3.578125 16.167969 C 3.578125 16.59375 3.921875 16.9375 4.347656 16.9375 L 12.265625 16.9375 C 12.28125 16.9375 12.296875 16.925781 12.316406 16.921875 C 16.882812 16.78125 20.511719 13.039062 20.515625 8.46875 C 20.515625 3.890625 16.875 0.140625 12.296875 0.0078125 C 12.289062 0.0078125 12.277344 0 12.265625 0 Z M 4.347656 0 "/></g></svg>
