<svg width="64" height="64" viewBox="0 0 64 64" version="1.1"><defs><linearGradient id="linear-pattern-0" gradientUnits="userSpaceOnUse" x1="0" y1="0" x2="0" y2="1" gradientTransform="matrix(60, 0, 0, 56, 0, 4)"><stop offset="0" stop-color="#7795ab" stop-opacity="1"/><stop offset="1" stop-color="#3b4f5f" stop-opacity="1"/></linearGradient></defs><path fill="url(#linear-pattern-0)" fill-opacity="1" d="M 36.21875 2.050781 L 62.027344 27.605469 C 64.402344 29.957031 64.417969 33.785156 62.058594 36.15625 L 36.460938 61.917969 C 34.105469 64.289062 30.269531 64.304688 27.894531 61.949219 L 2.085938 36.394531 C -0.289062 34.042969 -0.304688 30.214844 2.050781 27.84375 L 27.652344 2.082031 C 30.007812 -0.289062 33.84375 -0.304688 36.21875 2.050781 Z M 36.21875 2.050781 " /><g transform="matrix(1.0075098,0,0,1.0032698,16.221436,16.077397)"><path fill-rule="nonzero" fill="rgb(100%, 100%, 100%)" fill-opacity="1" d="M 10.421875 27.804688 C 8.703125 27.6875 7.542969 27.492188 6.414062 27.117188 C 4.789062 26.582031 3.75 25.851562 2.820312 24.601562 C 1.667969 23.054688 0.917969 20.414062 0.730469 17.945312 C 0.664062 17.074219 0.65625 16.5625 0.710938 16.351562 C 0.78125 16.039062 0.992188 15.78125 1.28125 15.664062 C 1.421875 15.601562 1.4375 15.601562 11.671875 15.601562 C 18.398438 15.601562 22.035156 15.589844 22.25 15.570312 C 22.597656 15.535156 23.148438 15.4375 23.414062 15.359375 C 23.777344 15.257812 24.210938 15.078125 24.210938 15.039062 C 24.167969 14.929688 24.117188 14.824219 24.0625 14.722656 C 23.734375 14.097656 23.589844 13.855469 23.59375 13.089844 C 23.59375 12.25 23.78125 11.484375 24.1875 10.652344 C 24.355469 10.3125 24.765625 9.671875 24.8125 9.671875 C 24.859375 9.671875 25.359375 9.984375 25.589844 10.152344 C 26.511719 10.847656 27.234375 12.136719 27.414062 13.1875 C 27.453125 13.414062 27.453125 13.421875 27.53125 13.402344 C 28.203125 13.304688 28.878906 13.285156 29.554688 13.351562 C 30.316406 13.460938 30.882812 13.679688 31.34375 14.03125 C 31.46875 14.125 31.570312 14.210938 31.570312 14.226562 C 31.382812 14.890625 31.027344 15.492188 30.539062 15.960938 C 29.6875 16.820312 28.46875 17.289062 27.101562 17.292969 L 26.804688 17.292969 L 26.734375 17.46875 C 25.398438 20.875 23.710938 23.105469 21.414062 24.832031 C 19.101562 26.566406 16.140625 27.578125 12.730469 27.789062 C 12.339844 27.816406 10.730469 27.824219 10.421875 27.804688 Z M 10.421875 27.804688 "/><path fill-rule="nonzero" fill="rgb(100%, 100%, 100%)" fill-opacity="1" d="M 4.09375 11.773438 L 6.074219 11.773438 C 6.335938 11.773438 6.550781 12.007812 6.550781 12.296875 L 6.550781 14.304688 C 6.550781 14.59375 6.335938 14.828125 6.074219 14.828125 L 4.09375 14.828125 C 3.828125 14.828125 3.613281 14.59375 3.613281 14.304688 L 3.613281 12.296875 C 3.613281 12.007812 3.828125 11.773438 4.09375 11.773438 Z M 4.09375 11.773438 "/><path fill-rule="nonzero" fill="rgb(100%, 100%, 100%)" fill-opacity="1" d="M 7.765625 11.773438 L 9.75 11.773438 C 10.015625 11.773438 10.226562 12.007812 10.226562 12.296875 L 10.226562 14.304688 C 10.226562 14.59375 10.015625 14.828125 9.75 14.828125 L 7.765625 14.828125 C 7.503906 14.828125 7.289062 14.59375 7.289062 14.304688 L 7.289062 12.296875 C 7.289062 12.007812 7.503906 11.773438 7.765625 11.773438 Z M 7.765625 11.773438 "/><path fill-rule="nonzero" fill="rgb(100%, 100%, 100%)" fill-opacity="1" d="M 11.441406 11.773438 L 13.421875 11.773438 C 13.6875 11.773438 13.902344 12.007812 13.902344 12.296875 L 13.902344 14.304688 C 13.902344 14.59375 13.6875 14.828125 13.421875 14.828125 L 11.441406 14.828125 C 11.179688 14.828125 10.964844 14.59375 10.964844 14.304688 L 10.964844 12.296875 C 10.964844 12.007812 11.179688 11.773438 11.441406 11.773438 Z M 11.441406 11.773438 "/><path fill-rule="nonzero" fill="rgb(100%, 100%, 100%)" fill-opacity="1" d="M 15.117188 11.773438 L 17.101562 11.773438 C 17.363281 11.773438 17.578125 12.007812 17.578125 12.296875 L 17.578125 14.304688 C 17.578125 14.59375 17.363281 14.828125 17.101562 14.828125 L 15.117188 14.828125 C 14.851562 14.828125 14.640625 14.59375 14.640625 14.304688 L 14.640625 12.296875 C 14.640625 12.007812 14.851562 11.773438 15.117188 11.773438 Z M 15.117188 11.773438 "/><path fill-rule="nonzero" fill="rgb(100%, 100%, 100%)" fill-opacity="1" d="M 18.789062 11.773438 L 20.773438 11.773438 C 21.039062 11.773438 21.25 12.007812 21.25 12.296875 L 21.25 14.304688 C 21.25 14.59375 21.039062 14.828125 20.773438 14.828125 L 18.789062 14.828125 C 18.523438 14.828125 18.3125 14.59375 18.3125 14.304688 L 18.3125 12.296875 C 18.3125 12.007812 18.523438 11.773438 18.789062 11.773438 Z M 18.789062 11.773438 "/><path fill-rule="nonzero" fill="rgb(100%, 100%, 100%)" fill-opacity="1" d="M 7.765625 7.957031 L 9.75 7.957031 C 10.015625 7.957031 10.226562 8.195312 10.226562 8.484375 L 10.226562 10.492188 C 10.226562 10.78125 10.015625 11.011719 9.75 11.011719 L 7.765625 11.011719 C 7.503906 11.011719 7.289062 10.78125 7.289062 10.492188 L 7.289062 8.484375 C 7.289062 8.195312 7.503906 7.957031 7.765625 7.957031 Z M 7.765625 7.957031 "/><path fill-rule="nonzero" fill="rgb(100%, 100%, 100%)" fill-opacity="1" d="M 11.441406 7.957031 L 13.421875 7.957031 C 13.6875 7.957031 13.902344 8.195312 13.902344 8.484375 L 13.902344 10.492188 C 13.902344 10.78125 13.6875 11.011719 13.421875 11.011719 L 11.441406 11.011719 C 11.179688 11.011719 10.964844 10.78125 10.964844 10.492188 L 10.964844 8.484375 C 10.964844 8.195312 11.179688 7.957031 11.441406 7.957031 Z M 11.441406 7.957031 "/><path fill-rule="nonzero" fill="rgb(100%, 100%, 100%)" fill-opacity="1" d="M 15.117188 7.957031 L 17.101562 7.957031 C 17.363281 7.957031 17.578125 8.195312 17.578125 8.484375 L 17.578125 10.492188 C 17.578125 10.78125 17.363281 11.011719 17.101562 11.011719 L 15.117188 11.011719 C 14.851562 11.011719 14.640625 10.78125 14.640625 10.492188 L 14.640625 8.484375 C 14.640625 8.195312 14.851562 7.957031 15.117188 7.957031 Z M 15.117188 7.957031 "/></g></svg>
