<svg width="64" height="64" viewBox="0 0 64 64" version="1.1"><defs><linearGradient id="linear-pattern-0" gradientUnits="userSpaceOnUse" x1="0" y1="0" x2="0" y2="1" gradientTransform="matrix(60, 0, 0, 56, 0, 4)"><stop offset="0" stop-color="#c10000" stop-opacity="1"/><stop offset="1" stop-color="#5f0000" stop-opacity="1"/></linearGradient></defs><path fill="url(#linear-pattern-0)" fill-opacity="1" d="M 36.21875 2.050781 L 62.027344 27.605469 C 64.402344 29.957031 64.417969 33.785156 62.058594 36.15625 L 36.460938 61.917969 C 34.105469 64.289062 30.269531 64.304688 27.894531 61.949219 L 2.085938 36.394531 C -0.289062 34.042969 -0.304688 30.214844 2.050781 27.84375 L 27.652344 2.082031 C 30.007812 -0.289062 33.84375 -0.304688 36.21875 2.050781 Z M 36.21875 2.050781 " /><g transform="matrix(1.0075098,0,0,1.0032698,16.221436,16.077397)"><path fill-rule="evenodd" fill="rgb(100%, 100%, 100%)" fill-opacity="1" d="M 4.542969 0.6875 L 27.445312 0.6875 C 29.597656 0.6875 31.335938 2.824219 31.335938 5.464844 L 31.335938 26.453125 C 31.335938 29.09375 29.597656 31.226562 27.445312 31.226562 L 4.542969 31.226562 C 2.390625 31.226562 0.65625 29.09375 0.65625 26.453125 L 0.65625 5.464844 C 0.65625 2.824219 2.390625 0.6875 4.542969 0.6875 Z M 4.542969 4.273438 C 4 4.273438 3.570312 4.804688 3.570312 5.464844 L 3.570312 26.453125 C 3.570312 27.117188 4 27.648438 4.542969 27.648438 L 8.890625 27.648438 C 9.15625 27.648438 9.375 27.382812 9.375 27.050781 L 9.375 26.425781 C 9.375 26.101562 9.15625 25.828125 8.890625 25.828125 L 7.203125 25.828125 C 6.539062 25.828125 6 25.164062 6 24.351562 C 6 23.542969 6.539062 22.878906 7.203125 22.878906 L 24.308594 22.878906 C 24.96875 22.878906 25.507812 23.542969 25.507812 24.351562 C 25.507812 25.164062 24.96875 25.828125 24.308594 25.828125 L 23.34375 25.828125 C 23.078125 25.828125 22.859375 26.101562 22.859375 26.425781 L 22.859375 27.050781 C 22.859375 27.382812 23.078125 27.648438 23.34375 27.648438 L 27.445312 27.648438 C 27.984375 27.648438 28.421875 27.117188 28.421875 26.453125 L 28.421875 5.464844 C 28.421875 4.804688 27.984375 4.273438 27.445312 4.273438 Z M 19.972656 26.425781 C 19.972656 26.101562 19.75 25.828125 19.484375 25.828125 L 18.050781 25.828125 C 17.773438 25.828125 17.5625 26.101562 17.5625 26.425781 L 17.5625 27.050781 C 17.5625 27.382812 17.773438 27.648438 18.050781 27.648438 L 19.484375 27.648438 C 19.75 27.648438 19.972656 27.382812 19.972656 27.050781 Z M 14.667969 26.425781 C 14.667969 26.101562 14.449219 25.828125 14.183594 25.828125 L 12.75 25.828125 C 12.484375 25.828125 12.261719 26.101562 12.261719 26.425781 L 12.261719 27.050781 C 12.261719 27.382812 12.484375 27.648438 12.75 27.648438 L 14.183594 27.648438 C 14.449219 27.648438 14.667969 27.382812 14.667969 27.050781 Z M 14.667969 26.425781 "/></g></svg>
