<svg width="64" height="64" viewBox="0 0 64 64" version="1.1"><defs><linearGradient id="linear-pattern-0" gradientUnits="userSpaceOnUse" x1="0" y1="0" x2="0" y2="1" gradientTransform="matrix(60, 0, 0, 56, 0, 4)"><stop offset="0" stop-color="#c10000" stop-opacity="1"/><stop offset="1" stop-color="#5f0000" stop-opacity="1"/></linearGradient></defs><path fill="url(#linear-pattern-0)" fill-opacity="1" d="M 36.21875 2.050781 L 62.027344 27.605469 C 64.402344 29.957031 64.417969 33.785156 62.058594 36.15625 L 36.460938 61.917969 C 34.105469 64.289062 30.269531 64.304688 27.894531 61.949219 L 2.085938 36.394531 C -0.289062 34.042969 -0.304688 30.214844 2.050781 27.84375 L 27.652344 2.082031 C 30.007812 -0.289062 33.84375 -0.304688 36.21875 2.050781 Z M 36.21875 2.050781 " /><g transform="matrix(1.0075098,0,0,1.0032698,16.221436,16.077397)"><path fill-rule="nonzero" fill="rgb(100%, 100%, 100%)" fill-opacity="1" d="M 4.242188 0.757812 L 0.710938 5.828125 C 0.710938 7.53125 1.640625 9.140625 3.0625 9.632812 L 3.0625 19.777344 C 3.0625 23.984375 6.21875 27.382812 10.125 27.382812 L 20.027344 27.382812 C 20.933594 29.625 23.003906 31.1875 25.414062 31.1875 C 28.675781 31.1875 31.300781 28.359375 31.300781 24.847656 L 31.300781 9.632812 C 31.300781 6.125 28.675781 3.296875 25.414062 3.296875 L 7.769531 7.101562 L 7.769531 4.5625 C 7.769531 2.460938 6.195312 0.757812 4.242188 0.757812 Z M 18.59375 7.101562 L 19.535156 7.101562 L 19.535156 23.578125 L 10.125 23.578125 C 8.171875 23.578125 6.59375 21.882812 6.59375 19.777344 L 6.59375 10.902344 L 11.300781 10.902344 C 13.921875 10.902344 17.183594 9.632812 18.59375 7.101562 Z M 14.828125 12.171875 L 12.476562 14.703125 C 12.476562 16.101562 13.53125 17.242188 14.828125 17.242188 C 16.128906 17.242188 17.179688 16.109375 17.179688 14.703125 C 17.179688 13.304688 16.128906 12.171875 14.828125 12.171875 Z M 14.828125 12.171875 "/></g></svg>
