<svg width="64" height="64" viewBox="0 0 64 64" version="1.1"><defs><linearGradient id="linear-pattern-0" gradientUnits="userSpaceOnUse" x1="0" y1="0" x2="0" y2="1" gradientTransform="matrix(60, 0, 0, 56, 0, 4)"><stop offset="0" stop-color="#a67e50" stop-opacity="1"/><stop offset="1" stop-color="#644c30" stop-opacity="1"/></linearGradient></defs><path fill="url(#linear-pattern-0)" fill-opacity="1" d="M 36.21875 2.050781 L 62.027344 27.605469 C 64.402344 29.957031 64.417969 33.785156 62.058594 36.15625 L 36.460938 61.917969 C 34.105469 64.289062 30.269531 64.304688 27.894531 61.949219 L 2.085938 36.394531 C -0.289062 34.042969 -0.304688 30.214844 2.050781 27.84375 L 27.652344 2.082031 C 30.007812 -0.289062 33.84375 -0.304688 36.21875 2.050781 Z M 36.21875 2.050781 " /><g transform="matrix(1.0075098,0,0,1.0032698,16.221436,16.077397)"><path fill-rule="nonzero" fill="rgb(100%, 100%, 100%)" fill-opacity="1" d="M 0 3.429688 L 0 11.429688 L 19.199219 11.429688 C 21.945312 11.429688 24 13.304688 24 16 C 24 18.695312 21.945312 20.535156 19.199219 20.570312 L 8 20.570312 L 8 13.714844 L 0 13.714844 L 0 28.570312 L 19.199219 28.570312 C 26.269531 28.570312 32 22.945312 32 16 C 32 9.054688 26.269531 3.429688 19.199219 3.429688 Z M 0 3.429688 "/></g></svg>
