<svg width="64" height="64" viewBox="0 0 64 64" version="1.1"><defs><linearGradient id="linear-pattern-0" gradientUnits="userSpaceOnUse" x1="0" y1="0" x2="0" y2="1" gradientTransform="matrix(60, 0, 0, 56, 0, 4)"><stop offset="0" stop-color="#ec7700" stop-opacity="1"/><stop offset="1" stop-color="#773c00" stop-opacity="1"/></linearGradient></defs><path fill="url(#linear-pattern-0)" fill-opacity="1" d="M 36.21875 2.050781 L 62.027344 27.605469 C 64.402344 29.957031 64.417969 33.785156 62.058594 36.15625 L 36.460938 61.917969 C 34.105469 64.289062 30.269531 64.304688 27.894531 61.949219 L 2.085938 36.394531 C -0.289062 34.042969 -0.304688 30.214844 2.050781 27.84375 L 27.652344 2.082031 C 30.007812 -0.289062 33.84375 -0.304688 36.21875 2.050781 Z M 36.21875 2.050781 " /><g transform="matrix(1.0075098,0,0,1.0032698,16.221436,16.077397)"><path fill-rule="nonzero" fill="rgb(100%, 100%, 100%)" fill-opacity="1" d="M 16.140625 0.804688 C 13.664062 5.320312 12.234375 10.59375 12.234375 16.25 C 12.234375 16.695312 12.257812 17.132812 12.273438 17.570312 C 10.289062 14.4375 7.703125 11.96875 4.796875 10.203125 C 4.742188 14.429688 5.6875 18.71875 7.773438 22.648438 C 7.972656 23.027344 8.1875 23.382812 8.398438 23.742188 C 5.960938 22.5 3.367188 21.945312 0.808594 21.984375 C 2.28125 24.859375 4.460938 27.355469 7.257812 29.125 C 10.058594 30.882812 13.109375 31.6875 16.117188 31.648438 C 16.253906 31.648438 16.21875 31.648438 16.253906 31.648438 C 19.25 31.679688 22.289062 30.90625 25.078125 29.152344 C 27.886719 27.382812 30.046875 24.867188 31.515625 21.992188 L 31.511719 21.992188 C 29.019531 21.953125 26.496094 22.5 24.117188 23.6875 C 24.351562 23.289062 24.585938 22.890625 24.808594 22.476562 C 26.933594 18.46875 27.867188 14.082031 27.8125 9.765625 C 24.777344 11.613281 22.09375 14.234375 20.046875 17.554688 C 20.066406 17.121094 20.09375 16.6875 20.09375 16.25 C 20.09375 10.59375 18.621094 5.320312 16.140625 0.800781 Z M 4.796875 10.203125 L 4.785156 10.207031 C 4.789062 10.210938 4.792969 10.210938 4.796875 10.214844 Z M 4.796875 10.203125 "/></g></svg>
