<svg width="64" height="64" viewBox="0 0 64 64" version="1.1"><defs><linearGradient id="linear-pattern-0" gradientUnits="userSpaceOnUse" x1="0" y1="0" x2="0" y2="1" gradientTransform="matrix(60, 0, 0, 56, 0, 4)"><stop offset="0" stop-color="#6926fc" stop-opacity="1"/><stop offset="1" stop-color="#3702ab" stop-opacity="1"/></linearGradient></defs><path fill="url(#linear-pattern-0)" fill-opacity="1" d="M 36.21875 2.050781 L 62.027344 27.605469 C 64.402344 29.957031 64.417969 33.785156 62.058594 36.15625 L 36.460938 61.917969 C 34.105469 64.289062 30.269531 64.304688 27.894531 61.949219 L 2.085938 36.394531 C -0.289062 34.042969 -0.304688 30.214844 2.050781 27.84375 L 27.652344 2.082031 C 30.007812 -0.289062 33.84375 -0.304688 36.21875 2.050781 Z M 36.21875 2.050781 " /><g transform="matrix(1.0075098,0,0,1.0032698,16.221436,16.077397)"><path fill-rule="nonzero" fill="rgb(100%, 100%, 100%)" fill-opacity="1" d="M 27.4375 1.070312 C 25.847656 1.070312 24.433594 2.070312 23.90625 3.566406 L 1.175781 3.566406 L 1.175781 6.0625 C 5.816406 8.460938 9.089844 12.257812 9.570312 14.3125 C 10.226562 17.109375 9.21875 20.382812 6.609375 23.945312 C 6.085938 23.6875 5.507812 23.546875 4.925781 23.546875 C 2.855469 23.546875 1.175781 25.226562 1.175781 27.292969 C 1.175781 29.359375 2.855469 31.039062 4.925781 31.039062 C 6.515625 31.039062 7.929688 30.039062 8.460938 28.539062 L 18.679688 28.539062 L 18.679688 31.039062 L 26.1875 31.039062 L 26.1875 23.546875 L 18.679688 23.546875 L 18.679688 26.046875 L 8.460938 26.046875 C 8.429688 25.960938 8.398438 25.882812 8.367188 25.804688 C 11.625 21.609375 13.113281 17.6875 12.242188 13.90625 C 11.507812 10.714844 9.28125 8.222656 6.101562 6.0625 L 23.90625 6.0625 C 24.433594 7.558594 25.847656 8.558594 27.4375 8.5625 C 29.507812 8.5625 31.1875 6.882812 31.1875 4.8125 C 31.1875 2.746094 29.507812 1.070312 27.4375 1.070312 Z M 27.4375 3.566406 C 28.125 3.566406 28.6875 4.125 28.6875 4.8125 C 28.6875 5.503906 28.125 6.0625 27.4375 6.0625 C 26.742188 6.0625 26.1875 5.503906 26.1875 4.8125 C 26.1875 4.125 26.742188 3.566406 27.4375 3.566406 Z M 4.925781 26.046875 C 5.554688 26.046875 6.082031 26.511719 6.164062 27.132812 C 6.167969 27.15625 6.171875 27.179688 6.171875 27.203125 C 6.171875 27.222656 6.171875 27.234375 6.179688 27.253906 C 6.179688 27.265625 6.179688 27.28125 6.179688 27.292969 C 6.179688 27.984375 5.617188 28.539062 4.925781 28.539062 C 4.320312 28.539062 3.800781 28.105469 3.695312 27.507812 C 3.695312 27.507812 3.695312 27.507812 3.695312 27.5 C 3.683594 27.433594 3.675781 27.363281 3.675781 27.292969 C 3.675781 27.25 3.675781 27.207031 3.679688 27.164062 C 3.746094 26.527344 4.28125 26.046875 4.925781 26.046875 Z M 21.183594 26.046875 L 23.683594 26.046875 L 23.683594 28.539062 L 21.183594 28.539062 Z M 21.183594 26.046875 "/></g></svg>
