<svg width="64" height="64" viewBox="0 0 64 64" version="1.1"><defs><linearGradient id="linear-pattern-0" gradientUnits="userSpaceOnUse" x1="0" y1="0" x2="0" y2="1" gradientTransform="matrix(60, 0, 0, 56, 0, 4)"><stop offset="0" stop-color="#7795ab" stop-opacity="1"/><stop offset="1" stop-color="#3b4f5f" stop-opacity="1"/></linearGradient></defs><path fill="url(#linear-pattern-0)" fill-opacity="1" d="M 36.21875 2.050781 L 62.027344 27.605469 C 64.402344 29.957031 64.417969 33.785156 62.058594 36.15625 L 36.460938 61.917969 C 34.105469 64.289062 30.269531 64.304688 27.894531 61.949219 L 2.085938 36.394531 C -0.289062 34.042969 -0.304688 30.214844 2.050781 27.84375 L 27.652344 2.082031 C 30.007812 -0.289062 33.84375 -0.304688 36.21875 2.050781 Z M 36.21875 2.050781 " /><g transform="matrix(1.0075098,0,0,1.0032698,16.221436,16.077397)"><path fill-rule="nonzero" fill="rgb(100%, 100%, 100%)" fill-opacity="1" d="M 31.554688 30.753906 C 31.546875 30.359375 30.972656 29.835938 29.449219 28.832031 L 27.351562 27.453125 L 19.734375 27.453125 L 17.632812 28.832031 C 16.109375 29.835938 15.539062 30.359375 15.53125 30.753906 L 15.515625 31.289062 L 31.5625 31.289062 L 31.554688 30.753906 M 12.3125 30.742188 C 12.3125 30.394531 11.75 29.699219 10.765625 28.828125 L 9.222656 27.453125 L 3.640625 27.453125 L 2.09375 28.828125 C 1.109375 29.699219 0.546875 30.394531 0.546875 30.742188 L 0.546875 31.289062 L 12.3125 31.289062 L 12.3125 30.742188 M 27.285156 26.226562 C 27.285156 25.8125 25.421875 13.25 25.273438 12.640625 C 25.148438 12.15625 24.976562 12.101562 23.542969 12.101562 C 22.109375 12.101562 21.933594 12.15625 21.8125 12.640625 C 21.660156 13.25 19.796875 25.8125 19.796875 26.226562 C 19.796875 26.410156 20.960938 26.492188 23.542969 26.492188 C 26.117188 26.492188 27.285156 26.410156 27.285156 26.226562 M 9.101562 26.203125 C 9.101562 25.765625 8.296875 19.976562 8.152344 19.359375 C 8.039062 18.875 7.867188 18.820312 6.429688 18.820312 C 4.992188 18.820312 4.824219 18.875 4.703125 19.359375 C 4.5625 19.976562 3.757812 25.765625 3.757812 26.203125 C 3.757812 26.410156 4.515625 26.492188 6.429688 26.492188 C 8.339844 26.492188 9.101562 26.410156 9.101562 26.203125 M 10.914062 17.578125 C 11.640625 16.921875 11.085938 15.9375 9.984375 15.9375 C 9.273438 15.9375 9.230469 15.765625 9.78125 15.117188 C 9.996094 14.859375 10.171875 14.160156 10.171875 13.554688 C 10.164062 10.132812 5.3125 8.890625 3.195312 11.773438 C 2.582031 12.609375 2.515625 14.453125 3.078125 15.117188 C 3.632812 15.773438 3.585938 15.898438 2.78125 15.988281 C 1.867188 16.085938 1.375 16.742188 1.78125 17.320312 C 2.039062 17.6875 2.617188 17.75 6.335938 17.804688 C 9.414062 17.855469 10.679688 17.789062 10.914062 17.578125 M 28.023438 10.859375 C 28.808594 10.164062 28.183594 9.222656 26.9375 9.222656 C 26.417969 9.222656 26.203125 9.125 26.289062 8.921875 C 26.566406 8.265625 27.078125 4.199219 26.929688 3.84375 C 26.8125 3.574219 26.394531 3.46875 25.421875 3.46875 C 24.257812 3.46875 24.074219 3.402344 24.074219 2.988281 C 24.074219 2.671875 24.257812 2.507812 24.609375 2.507812 C 24.96875 2.507812 25.148438 2.347656 25.148438 2.03125 C 25.148438 1.707031 24.96875 1.546875 24.609375 1.546875 C 24.257812 1.546875 24.074219 1.390625 24.074219 1.070312 C 24.074219 0.75 23.898438 0.589844 23.542969 0.589844 C 23.1875 0.589844 23.003906 0.75 23.003906 1.070312 C 23.003906 1.390625 22.828125 1.546875 22.472656 1.546875 C 22.117188 1.546875 21.9375 1.707031 21.9375 2.03125 C 21.9375 2.347656 22.117188 2.507812 22.472656 2.507812 C 22.828125 2.507812 23.003906 2.671875 23.003906 2.988281 C 23.003906 3.402344 22.828125 3.46875 21.664062 3.46875 C 20.6875 3.46875 20.273438 3.574219 20.15625 3.84375 C 20.007812 4.195312 20.511719 8.265625 20.789062 8.90625 C 20.859375 9.085938 20.585938 9.21875 20.046875 9.265625 C 19 9.363281 18.460938 9.988281 18.894531 10.605469 C 19.148438 10.96875 19.734375 11.03125 23.445312 11.085938 C 26.523438 11.140625 27.789062 11.074219 28.023438 10.859375 "/></g></svg>
