<svg width="64" height="64" viewBox="0 0 64 64" version="1.1"><defs><linearGradient id="linear-pattern-0" gradientUnits="userSpaceOnUse" x1="0" y1="0" x2="0" y2="1" gradientTransform="matrix(60, 0, 0, 56, 0, 4)"><stop offset="0" stop-color="#008a97" stop-opacity="1"/><stop offset="1" stop-color="#00545c" stop-opacity="1"/></linearGradient></defs><path fill="url(#linear-pattern-0)" fill-opacity="1" d="M 36.21875 2.050781 L 62.027344 27.605469 C 64.402344 29.957031 64.417969 33.785156 62.058594 36.15625 L 36.460938 61.917969 C 34.105469 64.289062 30.269531 64.304688 27.894531 61.949219 L 2.085938 36.394531 C -0.289062 34.042969 -0.304688 30.214844 2.050781 27.84375 L 27.652344 2.082031 C 30.007812 -0.289062 33.84375 -0.304688 36.21875 2.050781 Z M 36.21875 2.050781 " /><g transform="matrix(1.0075098,0,0,1.0032698,16.221436,16.077397)"><path fill-rule="nonzero" fill="rgb(100%, 100%, 100%)" fill-opacity="1" d="M 15.285156 0.890625 C 14.617188 0.890625 14.078125 1.40625 14.078125 2.054688 L 14.078125 3.273438 C 7.921875 3.75 3.234375 7.742188 3.222656 12.515625 C 3.234375 17.28125 7.921875 21.273438 14.078125 21.75 L 14.078125 22.972656 C 14.078125 23.617188 14.617188 24.132812 15.285156 24.132812 C 15.953125 24.132812 16.492188 23.617188 16.492188 22.972656 L 16.492188 19.484375 C 16.492188 18.839844 15.953125 18.324219 15.285156 18.324219 C 10.625 18.324219 6.84375 15.71875 6.84375 12.515625 C 6.84375 9.304688 10.625 6.703125 15.285156 6.703125 C 15.953125 6.703125 16.492188 6.183594 16.492188 5.539062 L 16.492188 2.054688 C 16.492188 1.40625 15.953125 0.890625 15.285156 0.890625 Z M 15.285156 0.890625 "/><path fill-rule="nonzero" fill="rgb(100%, 100%, 100%)" fill-opacity="1" d="M 16.523438 10.265625 C 17.1875 10.265625 17.71875 10.742188 17.71875 11.328125 L 17.71875 12.4375 C 23.839844 12.871094 28.5 16.503906 28.507812 20.847656 C 28.5 25.1875 23.839844 28.824219 17.71875 29.257812 L 17.71875 30.371094 C 17.71875 30.957031 17.1875 31.429688 16.523438 31.429688 C 15.859375 31.429688 15.320312 30.957031 15.320312 30.371094 L 15.320312 27.195312 C 15.320312 26.609375 15.859375 26.136719 16.523438 26.136719 C 21.15625 26.136719 24.914062 23.769531 24.914062 20.847656 C 24.914062 17.921875 21.15625 15.554688 16.523438 15.554688 C 15.859375 15.554688 15.320312 15.085938 15.320312 14.5 L 15.320312 11.328125 C 15.320312 10.742188 15.859375 10.265625 16.523438 10.265625 Z M 16.523438 10.265625 "/></g></svg>
