<svg width="64" height="64" viewBox="0 0 64 64" version="1.1"><defs><linearGradient id="linear-pattern-0" gradientUnits="userSpaceOnUse" x1="0" y1="0" x2="0" y2="1" gradientTransform="matrix(60, 0, 0, 56, 0, 4)"><stop offset="0" stop-color="#d00068" stop-opacity="1"/><stop offset="1" stop-color="#6e0037" stop-opacity="1"/></linearGradient></defs><path fill="url(#linear-pattern-0)" fill-opacity="1" d="M 36.21875 2.050781 L 62.027344 27.605469 C 64.402344 29.957031 64.417969 33.785156 62.058594 36.15625 L 36.460938 61.917969 C 34.105469 64.289062 30.269531 64.304688 27.894531 61.949219 L 2.085938 36.394531 C -0.289062 34.042969 -0.304688 30.214844 2.050781 27.84375 L 27.652344 2.082031 C 30.007812 -0.289062 33.84375 -0.304688 36.21875 2.050781 Z M 36.21875 2.050781 " /><g transform="matrix(1.0075098,0,0,1.0032698,16.221436,16.077397)"><path fill-rule="nonzero" fill="rgb(68.235294%, 70.196078%, 76.078431%)" fill-opacity="1" d="M 4.953125 1.460938 C 3.898438 1.460938 3.046875 2.097656 3.046875 2.890625 L 3.046875 7.179688 C 3.046875 7.972656 3.898438 8.609375 4.953125 8.609375 L 27.832031 8.609375 C 28.890625 8.609375 29.742188 7.972656 29.742188 7.179688 L 29.742188 2.890625 C 29.742188 2.097656 28.890625 1.460938 27.832031 1.460938 Z M 4.953125 22.921875 C 3.898438 22.921875 3.046875 23.558594 3.046875 24.351562 L 3.046875 28.640625 C 3.046875 29.433594 3.898438 30.070312 4.953125 30.070312 L 27.832031 30.070312 C 28.890625 30.070312 29.742188 29.433594 29.742188 28.640625 L 29.742188 24.351562 C 29.742188 23.558594 28.890625 22.921875 27.832031 22.921875 Z M 4.953125 22.921875 "/><path fill-rule="nonzero" fill="rgb(100%, 100%, 100%)" fill-opacity="1" d="M 5.648438 2.164062 L 16.1875 1.601562 L 26.730469 2.164062 L 26.730469 29.21875 L 16.1875 29.78125 L 5.648438 29.21875 Z M 5.648438 2.164062 "/><path fill-rule="nonzero" fill="rgb(100%, 100%, 100%)" fill-opacity="1" d="M 7.054688 1.023438 L 5.246094 2.1875 L 26.976562 2.1875 L 25.164062 1.023438 Z M 5.246094 30.128906 L 7.054688 31.296875 L 25.164062 31.296875 L 26.976562 30.128906 Z M 5.246094 30.128906 "/></g></svg>
