<svg width="64" height="64" viewBox="0 0 64 64" version="1.1"><defs><linearGradient id="linear-pattern-0" gradientUnits="userSpaceOnUse" x1="0" y1="0" x2="0" y2="1" gradientTransform="matrix(60, 0, 0, 56, 0, 4)"><stop offset="0" stop-color="#008a97" stop-opacity="1"/><stop offset="1" stop-color="#00545c" stop-opacity="1"/></linearGradient></defs><path fill="url(#linear-pattern-0)" fill-opacity="1" d="M 36.21875 2.050781 L 62.027344 27.605469 C 64.402344 29.957031 64.417969 33.785156 62.058594 36.15625 L 36.460938 61.917969 C 34.105469 64.289062 30.269531 64.304688 27.894531 61.949219 L 2.085938 36.394531 C -0.289062 34.042969 -0.304688 30.214844 2.050781 27.84375 L 27.652344 2.082031 C 30.007812 -0.289062 33.84375 -0.304688 36.21875 2.050781 Z M 36.21875 2.050781 " /><g transform="matrix(1.0075098,0,0,1.0032698,16.221436,16.077397)"><path fill-rule="evenodd" fill="rgb(100%, 100%, 100%)" fill-opacity="1" d="M 16.023438 0.648438 C 7.523438 0.648438 0.632812 7.460938 0.632812 15.855469 C 0.632812 24.257812 7.523438 31.0625 16.023438 31.0625 C 24.523438 31.0625 31.417969 24.25 31.417969 15.855469 C 31.417969 15.484375 31.398438 15.113281 31.375 14.75 C 30.632812 15.761719 29.785156 16.828125 28.859375 17.914062 C 27.753906 19.210938 26.652344 20.378906 25.609375 21.390625 L 22.570312 18.855469 C 23.40625 17.675781 24.398438 16.402344 25.5 15.109375 C 27.179688 13.148438 28.859375 11.445312 30.3125 10.1875 C 28.039062 4.601562 22.5 0.648438 16.023438 0.648438 M 16.023438 11.453125 C 18.488281 11.453125 20.484375 13.421875 20.484375 15.855469 C 20.484375 18.289062 18.488281 20.261719 16.023438 20.261719 C 13.558594 20.261719 11.5625 18.289062 11.5625 15.855469 C 11.5625 13.421875 13.558594 11.453125 16.023438 11.453125 M 16.023438 12.34375 C 14.054688 12.34375 12.46875 13.917969 12.46875 15.855469 C 12.46875 17.796875 14.054688 19.367188 16.023438 19.367188 C 17.984375 19.367188 19.578125 17.796875 19.578125 15.855469 C 19.578125 13.917969 17.984375 12.34375 16.023438 12.34375 M 16.023438 13.550781 C 17.3125 13.550781 18.359375 14.578125 18.359375 15.855469 C 18.359375 17.132812 17.3125 18.164062 16.023438 18.164062 C 14.734375 18.164062 13.6875 17.132812 13.6875 15.859375 C 13.6875 14.585938 14.734375 13.554688 16.023438 13.554688 M 22.03125 19.644531 L 24.917969 22.054688 C 24.046875 22.867188 23.234375 23.546875 22.515625 24.058594 L 20.429688 22.320312 C 20.820312 21.539062 21.367188 20.628906 22.03125 19.644531 M 19.964844 22.871094 L 21.960938 24.539062 C 21.1875 27.335938 20.210938 27.632812 18.828125 27.164062 C 17.445312 26.695312 15.390625 29.523438 15.390625 29.523438 C 13.640625 24.066406 19.964844 22.871094 19.964844 22.871094 "/></g></svg>
