<svg width="64" height="64" viewBox="0 0 64 64" version="1.1"><defs><linearGradient id="linear-pattern-0" gradientUnits="userSpaceOnUse" x1="0" y1="0" x2="0" y2="1" gradientTransform="matrix(60, 0, 0, 56, 0, 4)"><stop offset="0" stop-color="#6926fc" stop-opacity="1"/><stop offset="1" stop-color="#3702ab" stop-opacity="1"/></linearGradient></defs><path fill="url(#linear-pattern-0)" fill-opacity="1" d="M 36.21875 2.050781 L 62.027344 27.605469 C 64.402344 29.957031 64.417969 33.785156 62.058594 36.15625 L 36.460938 61.917969 C 34.105469 64.289062 30.269531 64.304688 27.894531 61.949219 L 2.085938 36.394531 C -0.289062 34.042969 -0.304688 30.214844 2.050781 27.84375 L 27.652344 2.082031 C 30.007812 -0.289062 33.84375 -0.304688 36.21875 2.050781 Z M 36.21875 2.050781 " /><g transform="matrix(1.0075098,0,0,1.0032698,16.221436,16.077397)"><path fill-rule="nonzero" fill="rgb(100%, 100%, 100%)" fill-opacity="1" d="M 4.5625 30.320312 C 3.089844 30.203125 1.671875 29.914062 0.394531 29.46875 L 0 29.328125 L 0.015625 29.21875 C 0.0625 28.9375 0.179688 28.378906 0.296875 27.921875 C 0.820312 25.84375 1.828125 23.792969 3.179688 22.054688 C 3.988281 21.011719 5.070312 19.9375 6.125 19.125 C 7.304688 18.222656 8.75 17.40625 10.085938 16.890625 C 10.304688 16.804688 10.304688 16.804688 10.289062 16.71875 C 10.277344 16.671875 10.25 16.441406 10.21875 16.207031 C 9.960938 14.164062 10.082031 12.1875 10.589844 10.164062 C 10.746094 9.550781 11.085938 8.523438 11.328125 7.945312 C 12.171875 5.914062 13.421875 4.070312 14.984375 2.5625 C 15.375 2.179688 15.96875 1.65625 16.007812 1.65625 C 16.054688 1.65625 16.648438 2.179688 17.046875 2.570312 C 17.898438 3.40625 18.59375 4.242188 19.257812 5.246094 C 19.675781 5.882812 19.90625 6.289062 20.265625 7.015625 C 21.695312 9.921875 22.230469 13.226562 21.773438 16.425781 C 21.746094 16.632812 21.726562 16.800781 21.726562 16.804688 C 21.734375 16.804688 21.902344 16.875 22.105469 16.957031 C 25.132812 18.179688 27.726562 20.304688 29.558594 23.0625 C 30.726562 24.816406 31.539062 26.820312 31.945312 28.933594 C 32.003906 29.230469 32.011719 29.320312 31.984375 29.335938 C 31.96875 29.347656 31.746094 29.425781 31.496094 29.507812 C 30.335938 29.898438 29.1875 30.144531 27.90625 30.28125 C 27.34375 30.34375 25.949219 30.367188 25.3125 30.324219 C 22.007812 30.109375 18.792969 28.890625 16.285156 26.898438 L 16.007812 26.675781 L 15.8125 26.835938 C 14.078125 28.226562 11.945312 29.28125 9.742188 29.84375 C 8.882812 30.0625 8.203125 30.179688 7.25 30.28125 C 6.777344 30.335938 5.039062 30.359375 4.5625 30.320312 Z M 6.542969 27.335938 C 9.125 27.15625 11.515625 26.28125 13.59375 24.75 L 13.859375 24.554688 L 13.78125 24.453125 C 13.585938 24.226562 13.027344 23.46875 12.789062 23.109375 C 12.207031 22.234375 11.636719 21.148438 11.273438 20.234375 C 11.167969 19.972656 11.078125 19.75 11.074219 19.746094 C 11.046875 19.703125 9.851562 20.273438 9.335938 20.578125 C 7.167969 21.859375 5.429688 23.6875 4.273438 25.890625 C 4.023438 26.371094 3.671875 27.171875 3.703125 27.195312 C 3.730469 27.226562 4.398438 27.304688 4.808594 27.335938 C 5.292969 27.367188 6.074219 27.367188 6.542969 27.335938 Z M 27.15625 27.335938 C 27.390625 27.316406 27.75 27.28125 27.953125 27.257812 C 28.382812 27.203125 28.359375 27.242188 28.191406 26.84375 C 26.976562 23.960938 24.667969 21.515625 21.867188 20.140625 C 21.464844 19.941406 21.007812 19.742188 20.96875 19.742188 C 20.949219 19.742188 20.851562 19.960938 20.746094 20.226562 C 20.394531 21.117188 19.824219 22.203125 19.234375 23.101562 C 19.007812 23.449219 18.4375 24.222656 18.238281 24.453125 L 18.15625 24.554688 L 18.445312 24.765625 C 20.929688 26.609375 24.109375 27.546875 27.15625 27.335938 Z M 16.285156 22.070312 C 16.925781 21.210938 17.480469 20.25 17.890625 19.277344 L 18.039062 18.933594 L 17.949219 18.914062 C 17.902344 18.90625 17.675781 18.875 17.449219 18.847656 C 17.117188 18.808594 16.835938 18.796875 16.007812 18.796875 C 15.015625 18.796875 14.695312 18.816406 14.085938 18.914062 L 13.984375 18.929688 L 14.09375 19.203125 C 14.273438 19.648438 14.773438 20.625 15.03125 21.046875 C 15.398438 21.636719 15.949219 22.402344 16.011719 22.402344 C 16.023438 22.402344 16.148438 22.25 16.285156 22.070312 Z M 13.550781 15.960938 C 14.511719 15.8125 15.714844 15.75 16.671875 15.796875 C 17.335938 15.824219 18.070312 15.898438 18.546875 15.976562 C 18.679688 15.996094 18.796875 16.007812 18.800781 16.007812 C 18.804688 16.003906 18.828125 15.816406 18.851562 15.589844 C 18.925781 15 18.925781 13.328125 18.851562 12.742188 C 18.554688 10.289062 17.71875 8.171875 16.289062 6.25 C 16.148438 6.0625 16.019531 5.90625 16.007812 5.90625 C 16 5.90625 15.867188 6.0625 15.726562 6.25 C 14.214844 8.28125 13.328125 10.640625 13.125 13.203125 C 13.085938 13.71875 13.109375 15.125 13.164062 15.605469 C 13.1875 15.796875 13.207031 15.964844 13.207031 15.984375 C 13.207031 16.007812 13.234375 16.015625 13.28125 16.007812 C 13.328125 15.996094 13.445312 15.976562 13.550781 15.960938 Z M 13.550781 15.960938 "/></g></svg>
