<svg width="64" height="64" viewBox="0 0 64 64" version="1.1"><defs><linearGradient id="linear-pattern-0" gradientUnits="userSpaceOnUse" x1="0" y1="0" x2="0" y2="1" gradientTransform="matrix(60, 0, 0, 56, 0, 4)"><stop offset="0" stop-color="#00983a" stop-opacity="1"/><stop offset="1" stop-color="#004a1c" stop-opacity="1"/></linearGradient></defs><path fill="url(#linear-pattern-0)" fill-opacity="1" d="M 36.21875 2.050781 L 62.027344 27.605469 C 64.402344 29.957031 64.417969 33.785156 62.058594 36.15625 L 36.460938 61.917969 C 34.105469 64.289062 30.269531 64.304688 27.894531 61.949219 L 2.085938 36.394531 C -0.289062 34.042969 -0.304688 30.214844 2.050781 27.84375 L 27.652344 2.082031 C 30.007812 -0.289062 33.84375 -0.304688 36.21875 2.050781 Z M 36.21875 2.050781 " /><g transform="matrix(1.0075098,0,0,1.0032698,16.221436,16.077397)"><path fill-rule="evenodd" fill="rgb(100%, 100%, 100%)" fill-opacity="1" d="M 30.722656 22.265625 C 21.921875 26.367188 12.476562 27.71875 4.40625 27.011719 C 7.421875 30.195312 11.613281 32 16 32 C 22.414062 32 28.210938 28.167969 30.722656 22.265625 Z M 12.570312 17.714844 L 19.429688 17.714844 L 19.429688 19.429688 L 12.570312 19.429688 Z M 19.640625 12.679688 L 18.757812 11.203125 L 23.199219 8.542969 L 27.640625 11.203125 L 26.757812 12.679688 L 23.199219 10.542969 Z M 16 0 C 7.164062 0 0 7.164062 0 16 C 0.00390625 18.605469 0.644531 21.171875 1.867188 23.476562 C 10.5625 24.835938 21.882812 23.484375 31.839844 18.128906 C 31.941406 17.421875 31.992188 16.710938 32 16 C 32 7.164062 24.835938 0 16 0 Z M 7.714844 8.570312 L 8.570312 8.570312 L 8.570312 10.285156 L 7.714844 10.285156 C 7.210938 10.285156 6.859375 9.933594 6.859375 9.429688 C 6.859375 8.921875 7.210938 8.570312 7.714844 8.570312 Z M 10.285156 12 L 11.140625 12 C 11.648438 12 12 12.351562 12 12.859375 C 12 13.359375 11.648438 13.714844 11.140625 13.714844 L 10.285156 13.714844 Z M 8.570312 5.140625 L 8.570312 6.859375 L 7.714844 6.859375 C 6.289062 6.859375 5.140625 8.003906 5.140625 9.429688 C 5.140625 10.851562 6.289062 12 7.714844 12 L 8.570312 12 L 8.570312 13.714844 L 5.300781 13.714844 C 5.65625 14.710938 6.59375 15.429688 7.714844 15.429688 L 8.570312 15.429688 L 8.570312 17.140625 L 10.285156 17.140625 L 10.285156 15.429688 L 11.140625 15.429688 C 12.570312 15.429688 13.714844 14.28125 13.714844 12.859375 C 13.714844 11.429688 12.570312 10.285156 11.140625 10.285156 L 10.285156 10.285156 L 10.285156 8.570312 L 13.554688 8.570312 C 13.203125 7.574219 12.265625 6.859375 11.140625 6.859375 L 10.285156 6.859375 L 10.285156 5.140625 Z M 8.570312 5.140625 "/></g></svg>
