<svg width="64" height="64" viewBox="0 0 64 64" version="1.1"><defs><linearGradient id="linear-pattern-0" gradientUnits="userSpaceOnUse" x1="0" y1="0" x2="0" y2="1" gradientTransform="matrix(60, 0, 0, 56, 0, 4)"><stop offset="0" stop-color="#00a07f" stop-opacity="1"/><stop offset="1" stop-color="#005241" stop-opacity="1"/></linearGradient></defs><path fill="url(#linear-pattern-0)" fill-opacity="1" d="M 36.21875 2.050781 L 62.027344 27.605469 C 64.402344 29.957031 64.417969 33.785156 62.058594 36.15625 L 36.460938 61.917969 C 34.105469 64.289062 30.269531 64.304688 27.894531 61.949219 L 2.085938 36.394531 C -0.289062 34.042969 -0.304688 30.214844 2.050781 27.84375 L 27.652344 2.082031 C 30.007812 -0.289062 33.84375 -0.304688 36.21875 2.050781 Z M 36.21875 2.050781 " /><g transform="matrix(1.0075098,0,0,1.0032698,16.221436,16.077397)"><path fill-rule="evenodd" fill="rgb(100%, 100%, 100%)" fill-opacity="1" d="M 11.019531 1.429688 C 9.824219 1.476562 8.804688 1.851562 8.054688 2.589844 L 3.367188 7.273438 C 1.691406 8.945312 1.867188 12.023438 3.507812 15.277344 C 4.476562 13.445312 5.75 11.679688 7.199219 9.957031 C 6.734375 8.96875 6.90625 7.757812 7.726562 6.941406 C 8.773438 5.898438 10.460938 5.898438 11.507812 6.941406 C 11.8125 7.242188 12.019531 7.597656 12.148438 7.976562 L 20.722656 5.984375 L 20.617188 5.882812 C 20.5 5.765625 20.359375 5.648438 20.222656 5.5625 C 17.101562 2.820312 13.648438 1.324219 11.019531 1.429688 M 9.148438 8.726562 C 9.019531 8.742188 8.898438 8.796875 8.816406 8.898438 C 5.96875 12.023438 3.671875 15.296875 2.664062 18.734375 C 2.660156 18.742188 2.648438 18.75 2.648438 18.75 C 2.648438 18.757812 2.648438 18.769531 2.648438 18.773438 C 1.828125 21.105469 1.84375 23.296875 2.390625 24.914062 C 2.398438 24.917969 2.40625 24.921875 2.40625 24.929688 C 2.40625 24.929688 2.40625 24.933594 2.40625 24.9375 C 2.835938 26.394531 3.78125 27.226562 4.839844 27.351562 C 5.910156 27.476562 6.984375 26.964844 7.851562 26.113281 L 7.867188 26.101562 C 9.054688 24.898438 9.207031 23.1875 9.53125 21.457031 C 9.59375 21.265625 9.539062 21.0625 9.394531 20.929688 C 9.25 20.789062 9.042969 20.75 8.859375 20.820312 C 8.671875 20.898438 8.546875 21.066406 8.53125 21.265625 C 8.199219 23.035156 7.992188 24.507812 7.132812 25.386719 C 7.132812 25.390625 7.140625 25.394531 7.132812 25.398438 C 6.4375 26.082031 5.601562 26.40625 4.957031 26.332031 C 4.308594 26.257812 3.730469 25.84375 3.382812 24.632812 L 3.382812 24.621094 L 3.367188 24.609375 C 2.898438 23.25 2.855469 21.234375 3.625 19.082031 L 3.625 19.066406 L 3.636719 19.054688 C 4.570312 15.84375 6.785156 12.660156 9.582031 9.585938 C 9.730469 9.429688 9.761719 9.195312 9.664062 9.007812 C 9.570312 8.8125 9.359375 8.703125 9.148438 8.726562 M 20.09375 10.59375 L 14.800781 12 C 14.753906 12.007812 14.710938 12.035156 14.6875 12.074219 C 14.679688 12.078125 14.675781 12.082031 14.671875 12.085938 C 14.667969 12.09375 14.664062 12.09375 14.660156 12.101562 C 14.648438 12.136719 14.648438 12.175781 14.660156 12.210938 L 15.125 16.425781 C 15.125 16.488281 15.164062 16.539062 15.210938 16.578125 C 15.265625 16.609375 15.332031 16.613281 15.390625 16.59375 L 20.1875 15.351562 C 20.273438 15.332031 20.335938 15.25 20.335938 15.164062 L 20.335938 10.785156 C 20.335938 10.726562 20.3125 10.667969 20.261719 10.632812 C 20.210938 10.59375 20.15625 10.578125 20.09375 10.59375 M 8.773438 11.359375 C 7.09375 13.367188 5.707031 15.40625 4.8125 17.4375 C 5.28125 18.105469 5.796875 18.773438 6.378906 19.425781 C 6.40625 19.453125 6.429688 19.484375 6.457031 19.515625 C 6.523438 19.601562 6.578125 19.703125 6.660156 19.78125 L 8.007812 21.125 C 8.117188 20.542969 8.640625 20.171875 9.234375 20.28125 C 9.453125 20.320312 9.632812 20.414062 9.773438 20.546875 L 9.261719 11.476562 C 9.097656 11.453125 8.9375 11.414062 8.773438 11.359375 M 26.25 11.484375 L 26.351562 14.972656 C 26.375 15.8125 26.015625 16.554688 25.4375 17.179688 C 24.859375 17.804688 24.066406 18.3125 23.171875 18.734375 L 23.15625 18.75 L 23.132812 18.761719 L 16.476562 20.253906 L 16.59375 23.398438 L 26.960938 20.789062 L 27.207031 20.726562 L 27.21875 20.96875 L 27.351562 23.304688 L 31.179688 19.488281 C 32.039062 18.632812 32.039062 17.257812 31.179688 16.398438 L 26.25 11.484375 M 9.890625 22.589844 C 9.871094 22.707031 9.851562 22.820312 9.828125 22.9375 L 9.917969 23.023438 Z M 23.757812 26.890625 L 15.648438 28.726562 L 17.222656 30.296875 C 18.085938 31.15625 19.476562 31.15625 20.335938 30.296875 L 23.757812 26.890625 "/></g></svg>
