<svg width="64" height="64" viewBox="0 0 64 64" version="1.1"><defs><linearGradient id="linear-pattern-0" gradientUnits="userSpaceOnUse" x1="0" y1="0" x2="0" y2="1" gradientTransform="matrix(60, 0, 0, 56, 0, 4)"><stop offset="0" stop-color="#aaaa00" stop-opacity="1"/><stop offset="1" stop-color="#5c5c00" stop-opacity="1"/></linearGradient></defs><path fill="url(#linear-pattern-0)" fill-opacity="1" d="M 36.21875 2.050781 L 62.027344 27.605469 C 64.402344 29.957031 64.417969 33.785156 62.058594 36.15625 L 36.460938 61.917969 C 34.105469 64.289062 30.269531 64.304688 27.894531 61.949219 L 2.085938 36.394531 C -0.289062 34.042969 -0.304688 30.214844 2.050781 27.84375 L 27.652344 2.082031 C 30.007812 -0.289062 33.84375 -0.304688 36.21875 2.050781 Z M 36.21875 2.050781 " /><g transform="matrix(1.0075098,0,0,1.0032698,16.221436,16.077397)"><path fill-rule="nonzero" fill="rgb(100%, 100%, 100%)" fill-opacity="1" d="M 20.382812 3.144531 C 22.390625 5.335938 22.851562 9.148438 20.773438 11.523438 C 19.015625 13.519531 15.5625 14.0625 13.910156 11.726562 C 12.59375 9.871094 13.003906 6.59375 15.246094 5.835938 C 17.460938 5.085938 15.867188 7.425781 15.085938 8.421875 C 13.945312 9.890625 16.523438 11.921875 18.039062 10.984375 C 20.070312 9.726562 20.488281 6.640625 18.675781 5.113281 C 17.25 3.914062 14.523438 3.890625 13.289062 5.433594 C 10.898438 8.429688 12.195312 13.601562 15.742188 14.9375 C 17.289062 15.515625 18.859375 14.9375 20.367188 14.539062 C 25.066406 13.289062 30.554688 16.71875 31.382812 21.867188 C 31.933594 25.304688 30.910156 28.648438 27.054688 30.164062 C 23.628906 31.507812 19.203125 28.453125 19.207031 24.460938 C 19.207031 21.898438 21.148438 19.414062 23.710938 19.90625 C 25.726562 20.289062 27.578125 22.585938 26.59375 24.648438 C 25.757812 26.398438 25.007812 24.070312 24.835938 22.976562 C 24.539062 21.152344 21.390625 21.734375 21.0625 23.484375 C 20.589844 26.070312 23.585938 28.390625 25.867188 27.304688 C 27.972656 26.304688 28.804688 23.046875 27.355469 20.929688 C 25.25 17.851562 20.269531 17.5625 18.179688 20.804688 C 16.5 23.414062 16.246094 27.0625 13.820312 29.140625 C 10.78125 31.738281 5.953125 32.367188 2.9375 29.492188 C 0.53125 27.203125 -0.0507812 22.925781 2.101562 20.171875 C 4.039062 17.691406 7.914062 16.796875 10.265625 19.082031 C 12.109375 20.878906 12.015625 24.484375 9.703125 25.835938 C 8.226562 26.695312 5.347656 26.609375 5.261719 24.648438 C 5.167969 22.523438 7.742188 25.417969 9.007812 23.832031 C 10.363281 22.132812 9.175781 19.804688 7.171875 20.015625 C 4.988281 20.25 3.75 22.304688 3.984375 24.691406 C 4.1875 26.8125 6.136719 27.976562 8.046875 27.695312 C 11.21875 27.242188 13.632812 25.375 13.289062 20.734375 C 13.109375 18.273438 11.507812 17.039062 10.539062 15.785156 C 7.960938 12.441406 7.398438 7.671875 9.878906 3.976562 C 11.863281 1.015625 15.835938 -0.0703125 18.898438 1.890625 C 19.445312 2.238281 19.9375 2.664062 20.378906 3.144531 Z M 20.382812 3.144531 "/></g></svg>
