<svg width="64" height="64" viewBox="0 0 64 64" version="1.1"><defs><linearGradient id="linear-pattern-0" gradientUnits="userSpaceOnUse" x1="0" y1="0" x2="0" y2="1" gradientTransform="matrix(60, 0, 0, 56, 0, 4)"><stop offset="0" stop-color="#8900e4" stop-opacity="1"/><stop offset="1" stop-color="#42006e" stop-opacity="1"/></linearGradient></defs><path fill="url(#linear-pattern-0)" fill-opacity="1" d="M 36.21875 2.050781 L 62.027344 27.605469 C 64.402344 29.957031 64.417969 33.785156 62.058594 36.15625 L 36.460938 61.917969 C 34.105469 64.289062 30.269531 64.304688 27.894531 61.949219 L 2.085938 36.394531 C -0.289062 34.042969 -0.304688 30.214844 2.050781 27.84375 L 27.652344 2.082031 C 30.007812 -0.289062 33.84375 -0.304688 36.21875 2.050781 Z M 36.21875 2.050781 " /><g transform="matrix(1.0075098,0,0,1.0032698,16.221436,16.077397)"><path fill-rule="nonzero" fill="rgb(100%, 100%, 100%)" fill-opacity="1" d="M 7.988281 2 C 5.472656 2.027344 3.632812 1.9375 2.125 2.769531 C 1.371094 3.183594 0.777344 3.890625 0.449219 4.765625 C 0.117188 5.640625 0 6.683594 0 8 L 0 24 C 0 25.316406 0.117188 26.359375 0.449219 27.234375 C 0.777344 28.109375 1.371094 28.816406 2.125 29.230469 C 3.632812 30.0625 5.472656 29.96875 7.988281 30 L 24.011719 30 C 26.527344 29.972656 28.367188 30.0625 29.875 29.230469 C 30.628906 28.816406 31.222656 28.109375 31.554688 27.234375 C 31.882812 26.359375 32 25.316406 32 24 L 32 8 C 32 6.683594 31.882812 5.640625 31.550781 4.765625 C 31.222656 3.890625 30.628906 3.183594 29.875 2.769531 C 28.367188 1.9375 26.527344 2.03125 24.011719 2 Z M 8 4 L 24 4 C 26.515625 4.03125 28.171875 4.117188 28.90625 4.523438 C 29.273438 4.726562 29.484375 4.945312 29.679688 5.46875 C 29.875 5.988281 30 6.816406 30 8 L 30 24 C 30 25.183594 29.875 26.011719 29.679688 26.53125 C 29.484375 27.054688 29.273438 27.273438 28.90625 27.476562 C 28.171875 27.882812 26.515625 27.96875 24 28 L 8 28 C 5.484375 27.96875 3.820312 27.882812 3.089844 27.476562 C 2.726562 27.273438 2.515625 27.054688 2.320312 26.53125 C 2.125 26.011719 2 25.183594 2 24 L 2 8 C 2 6.816406 2.125 5.988281 2.320312 5.46875 C 2.515625 4.945312 2.726562 4.726562 3.089844 4.523438 C 3.820312 4.117188 5.484375 4.03125 8 4 Z M 8 4 "/><path fill-rule="nonzero" fill="rgb(100%, 100%, 100%)" fill-opacity="1" d="M 1.617188 3.820312 L 30.429688 3.820312 L 30.429688 8.539062 L 1.617188 8.539062 Z M 1.617188 3.820312 "/><path fill-rule="nonzero" fill="rgb(100%, 100%, 100%)" fill-opacity="1" d="M 10.75 23.90625 C 10.058594 23.90625 8.992188 19.921875 8.503906 19.433594 C 8.015625 18.945312 4.03125 17.878906 4.03125 17.1875 C 4.03125 16.496094 8.015625 15.429688 8.503906 14.941406 C 8.992188 14.453125 10.058594 10.46875 10.75 10.46875 C 11.441406 10.46875 12.507812 14.453125 12.996094 14.941406 C 13.484375 15.429688 17.46875 16.496094 17.46875 17.1875 C 17.46875 17.878906 13.484375 18.945312 12.996094 19.433594 C 12.507812 19.921875 11.441406 23.90625 10.75 23.90625 Z M 10.75 23.90625 "/><path fill-rule="nonzero" fill="rgb(100%, 100%, 100%)" fill-opacity="1" d="M 20.234375 26.75 C 19.890625 26.75 19.355469 24.757812 19.109375 24.515625 C 18.867188 24.269531 16.875 23.734375 16.875 23.390625 C 16.875 23.046875 18.867188 22.511719 19.109375 22.265625 C 19.355469 22.023438 19.890625 20.03125 20.234375 20.03125 C 20.578125 20.03125 21.113281 22.023438 21.359375 22.265625 C 21.601562 22.511719 23.59375 23.046875 23.59375 23.390625 C 23.59375 23.734375 21.601562 24.269531 21.359375 24.515625 C 21.113281 24.757812 20.578125 26.75 20.234375 26.75 Z M 20.234375 26.75 "/><path fill-rule="nonzero" fill="rgb(100%, 100%, 100%)" fill-opacity="1" d="M 22.890625 18.6875 C 22.464844 18.6875 21.808594 16.234375 21.507812 15.929688 C 21.203125 15.632812 18.75 14.972656 18.75 14.546875 C 18.75 14.117188 21.203125 13.464844 21.507812 13.164062 C 21.808594 12.859375 22.464844 10.40625 22.890625 10.40625 C 23.316406 10.40625 23.976562 12.859375 24.273438 13.164062 C 24.578125 13.464844 27.03125 14.117188 27.03125 14.546875 C 27.03125 14.972656 24.578125 15.632812 24.273438 15.929688 C 23.976562 16.234375 23.316406 18.6875 22.890625 18.6875 Z M 22.890625 18.6875 "/></g></svg>
