<svg width="64" height="64" viewBox="0 0 64 64" version="1.1"><defs><linearGradient id="linear-pattern-0" gradientUnits="userSpaceOnUse" x1="0" y1="0" x2="0" y2="1" gradientTransform="matrix(60, 0, 0, 56, 0, 4)"><stop offset="0" stop-color="#8900e4" stop-opacity="1"/><stop offset="1" stop-color="#42006e" stop-opacity="1"/></linearGradient></defs><path fill="url(#linear-pattern-0)" fill-opacity="1" d="M 36.21875 2.050781 L 62.027344 27.605469 C 64.402344 29.957031 64.417969 33.785156 62.058594 36.15625 L 36.460938 61.917969 C 34.105469 64.289062 30.269531 64.304688 27.894531 61.949219 L 2.085938 36.394531 C -0.289062 34.042969 -0.304688 30.214844 2.050781 27.84375 L 27.652344 2.082031 C 30.007812 -0.289062 33.84375 -0.304688 36.21875 2.050781 Z M 36.21875 2.050781 " /><g transform="matrix(1.0075098,0,0,1.0032698,16.221436,16.077397)"><path fill-rule="evenodd" fill="rgb(100%, 100%, 100%)" fill-opacity="1" d="M 23.335938 18.789062 C 23.335938 20.5625 20.199219 22 16.335938 22 C 12.46875 22 9.335938 20.5625 9.335938 18.789062 C 9.335938 17.015625 12.46875 18.789062 16.335938 18.789062 C 20.199219 18.789062 23.335938 17.015625 23.335938 18.789062 Z M 4.664062 13 C 4.664062 12.445312 5.113281 12 5.664062 12 C 6.21875 12 6.664062 12.445312 6.664062 13 C 6.664062 13.554688 6.21875 14 5.664062 14 C 5.113281 14 4.664062 13.554688 4.664062 13 Z M 0 14 C 0 11.792969 1.792969 10 4 10 C 6.207031 10 8 11.792969 8 14 C 8 16.207031 6.207031 18 4 18 C 1.792969 18 0 16.207031 0 14 Z M 28.664062 13 C 28.664062 12.445312 29.113281 12 29.664062 12 C 30.21875 12 30.664062 12.445312 30.664062 13 C 30.664062 13.554688 30.21875 14 29.664062 14 C 29.113281 14 28.664062 13.554688 28.664062 13 Z M 24 14 C 24 11.792969 25.792969 10 28 10 C 30.207031 10 32 11.792969 32 14 C 32 16.207031 30.207031 18 28 18 C 25.792969 18 24 16.207031 24 14 Z M 24 14 "/></g></svg>
