<svg width="64" height="64" viewBox="0 0 64 64" version="1.1"><defs><linearGradient id="linear-pattern-0" gradientUnits="userSpaceOnUse" x1="0" y1="0" x2="0" y2="1" gradientTransform="matrix(60, 0, 0, 56, 0, 4)"><stop offset="0" stop-color="#aaaa00" stop-opacity="1"/><stop offset="1" stop-color="#5c5c00" stop-opacity="1"/></linearGradient></defs><path fill="url(#linear-pattern-0)" fill-opacity="1" d="M 36.21875 2.050781 L 62.027344 27.605469 C 64.402344 29.957031 64.417969 33.785156 62.058594 36.15625 L 36.460938 61.917969 C 34.105469 64.289062 30.269531 64.304688 27.894531 61.949219 L 2.085938 36.394531 C -0.289062 34.042969 -0.304688 30.214844 2.050781 27.84375 L 27.652344 2.082031 C 30.007812 -0.289062 33.84375 -0.304688 36.21875 2.050781 Z M 36.21875 2.050781 " /><g transform="matrix(1.0075098,0,0,1.0032698,16.221436,16.077397)"><path fill-rule="nonzero" fill="rgb(100%, 100%, 100%)" fill-opacity="1" d="M 5.3125 30.230469 C 5.3125 30.230469 7.210938 31.125 9.734375 31.4375 C 10.757812 31.566406 14.648438 32.011719 17.632812 32 C 17.632812 32 21.265625 32.003906 23.269531 31.71875 C 25.367188 31.421875 26.554688 31.039062 27.21875 30.28125 C 27.234375 30.101562 27.539062 29.507812 26.71875 28.941406 C 24.636719 27.484375 21.9375 27.085938 16.703125 25.84375 C 10.914062 24.390625 9.09375 22.996094 8.230469 21.984375 C 7.410156 20.976562 8.472656 18.875 13.140625 17.84375 C 15.5 17.273438 23.8125 16.972656 23.8125 16.972656 C 21.285156 14.96875 17.035156 11.570312 16.066406 10.8125 C 15.21875 10.140625 13.851562 9.113281 13.703125 8.195312 C 13.503906 7.304688 14.910156 6.875 15.65625 6.820312 C 18.054688 6.65625 21.328125 7.292969 24.242188 7.871094 C 25.703125 8.164062 25.960938 8.117188 25.960938 8.117188 C 28.046875 8.21875 30.078125 6.773438 30 4.476562 C 29.980469 2.140625 27.234375 0.273438 24.65625 0.1875 C 22.042969 0.179688 15.855469 0.179688 15.855469 0.179688 C 22.835938 1.617188 24.355469 2.34375 24.71875 3.1875 C 24.9375 3.679688 24.359375 4.175781 22.4375 4.078125 C 20.34375 3.976562 16.050781 3.46875 16.050781 3.46875 C 11.964844 2.835938 9.472656 2.242188 8.234375 3.863281 C 7.421875 4.921875 8.347656 6.210938 8.710938 6.972656 C 10.332031 9.804688 12.78125 11.742188 14.5625 13.109375 C 15.230469 13.625 17.273438 14.765625 17.273438 14.765625 C 10.921875 13.03125 5.507812 14.003906 2.296875 15.691406 C -1.390625 17.875 -0.761719 21.5625 5.09375 25.007812 C 8.550781 27.039062 10.625 28.015625 16.285156 28.710938 C 19.59375 29.242188 20.265625 29.457031 20.242188 29.734375 C 20.203125 30.117188 16.148438 30.265625 15.078125 30.339844 C 12.367188 30.527344 5.347656 30.234375 5.3125 30.234375 Z M 5.3125 30.230469 "/></g></svg>
