<svg width="64" height="64" viewBox="0 0 64 64" version="1.1"><defs><linearGradient id="linear-pattern-0" gradientUnits="userSpaceOnUse" x1="0" y1="0" x2="0" y2="1" gradientTransform="matrix(60, 0, 0, 56, 0, 4)"><stop offset="0" stop-color="#00a07f" stop-opacity="1"/><stop offset="1" stop-color="#005241" stop-opacity="1"/></linearGradient></defs><path fill="url(#linear-pattern-0)" fill-opacity="1" d="M 36.21875 2.050781 L 62.027344 27.605469 C 64.402344 29.957031 64.417969 33.785156 62.058594 36.15625 L 36.460938 61.917969 C 34.105469 64.289062 30.269531 64.304688 27.894531 61.949219 L 2.085938 36.394531 C -0.289062 34.042969 -0.304688 30.214844 2.050781 27.84375 L 27.652344 2.082031 C 30.007812 -0.289062 33.84375 -0.304688 36.21875 2.050781 Z M 36.21875 2.050781 " /><g transform="matrix(1.0075098,0,0,1.0032698,16.221436,16.077397)"><path fill-rule="evenodd" fill="rgb(100%, 100%, 100%)" fill-opacity="1" d="M 4.03125 0.96875 L 4.03125 13.21875 L 9.304688 13.21875 L 9.304688 0.96875 Z M 21.566406 0.96875 L 21.566406 13.21875 L 26.835938 13.21875 L 26.835938 0.96875 L 21.566406 0.96875 M 1.304688 18.257812 C 1.300781 18.265625 1.296875 18.265625 1.296875 18.265625 C 1.296875 18.265625 1.296875 18.265625 1.289062 18.265625 C 1.164062 18.285156 1.050781 18.375 0.976562 18.515625 C 0.902344 18.65625 0.875 18.832031 0.90625 19.003906 C 1.503906 22.59375 3.382812 25.519531 5.90625 27.59375 C 8.425781 29.671875 11.601562 30.914062 14.890625 31.171875 C 21.460938 31.6875 28.554688 28.191406 31.542969 19.109375 C 31.617188 18.859375 31.570312 18.574219 31.414062 18.402344 C 31.257812 18.234375 31.039062 18.226562 30.875 18.382812 C 26.792969 22.304688 22.351562 25.078125 17.507812 25.484375 C 12.664062 25.898438 7.398438 23.976562 1.59375 18.382812 C 1.523438 18.308594 1.4375 18.269531 1.34375 18.265625 C 1.335938 18.265625 1.320312 18.257812 1.304688 18.257812 "/></g></svg>
