<svg width="64" height="64" viewBox="0 0 64 64" version="1.1"><defs><linearGradient id="linear-pattern-0" gradientUnits="userSpaceOnUse" x1="0" y1="0" x2="0" y2="1" gradientTransform="matrix(60, 0, 0, 56, 0, 4)"><stop offset="0" stop-color="#0288cf" stop-opacity="1"/><stop offset="1" stop-color="#01486e" stop-opacity="1"/></linearGradient></defs><path fill="url(#linear-pattern-0)" fill-opacity="1" d="M 36.21875 2.050781 L 62.027344 27.605469 C 64.402344 29.957031 64.417969 33.785156 62.058594 36.15625 L 36.460938 61.917969 C 34.105469 64.289062 30.269531 64.304688 27.894531 61.949219 L 2.085938 36.394531 C -0.289062 34.042969 -0.304688 30.214844 2.050781 27.84375 L 27.652344 2.082031 C 30.007812 -0.289062 33.84375 -0.304688 36.21875 2.050781 Z M 36.21875 2.050781 " /><g transform="matrix(1.0075098,0,0,1.0032698,16.221436,16.077397)"><path fill-rule="nonzero" fill="rgb(100%, 100%, 100%)" fill-opacity="1" d="M 6 2 C 4.546875 2 3.339844 5 3.0625 9.003906 C 3.039062 9 3.023438 9 3 9 C 1.894531 9 1 9.894531 1 11 C 1 11.488281 1.179688 11.960938 1.507812 12.324219 C 0.5625 12.835938 0 13.398438 0 14 L 0 29 C 0 29.554688 0.445312 30 1 30 L 4.136719 30 C 4.691406 30 5.136719 29.554688 5.136719 29 L 5.136719 24.925781 C 7.988281 25.585938 11.78125 26 16 26 C 20.21875 26 24.011719 25.585938 26.863281 24.925781 L 26.863281 29 C 26.863281 29.554688 27.308594 30 27.863281 30 L 31 30 C 31.554688 30 32 29.554688 32 29 L 32 14 C 32 13.398438 31.4375 12.835938 30.496094 12.324219 C 30.820312 11.960938 31 11.488281 31 11 C 31 9.894531 30.105469 9 29 9 C 28.976562 9 28.960938 9 28.9375 9 C 28.65625 4.996094 27.453125 2 26 2 Z M 6.671875 4 L 25.328125 4 C 26.253906 4 27 7.121094 27 11 C 27 11.035156 26.996094 11.066406 26.996094 11.101562 C 24.132812 10.421875 20.28125 10 16 10 C 11.722656 10 7.867188 10.417969 5.003906 11.097656 C 5.003906 11.0625 5 11.035156 5 11 C 5 7.121094 5.746094 4 6.671875 4 Z M 16 12 C 23.757812 12 30 13.289062 30 14.886719 L 30 21.113281 C 30 22.710938 23.757812 24 16 24 C 8.242188 24 2 22.710938 2 21.113281 L 2 14.886719 C 2 13.289062 8.242188 12 16 12 Z M 6 16 C 4.894531 16 4 16.894531 4 18 C 4 19.105469 4.894531 20 6 20 C 7.105469 20 8 19.105469 8 18 C 8 16.894531 7.105469 16 6 16 Z M 26 16 C 24.894531 16 24 16.894531 24 18 C 24 19.105469 24.894531 20 26 20 C 27.105469 20 28 19.105469 28 18 C 28 16.894531 27.105469 16 26 16 Z M 11 20 C 10.445312 20 10 20.445312 10 21 C 10 21.554688 10.445312 22 11 22 L 21 22 C 21.554688 22 22 21.554688 22 21 C 22 20.445312 21.554688 20 21 20 Z M 11 20 "/></g></svg>
