<svg width="64" height="64" viewBox="0 0 64 64" version="1.1"><defs><linearGradient id="linear-pattern-0" gradientUnits="userSpaceOnUse" x1="0" y1="0" x2="0" y2="1" gradientTransform="matrix(60, 0, 0, 56, 0, 4)"><stop offset="0" stop-color="#a67e50" stop-opacity="1"/><stop offset="1" stop-color="#644c30" stop-opacity="1"/></linearGradient></defs><path fill="url(#linear-pattern-0)" fill-opacity="1" d="M 36.21875 2.050781 L 62.027344 27.605469 C 64.402344 29.957031 64.417969 33.785156 62.058594 36.15625 L 36.460938 61.917969 C 34.105469 64.289062 30.269531 64.304688 27.894531 61.949219 L 2.085938 36.394531 C -0.289062 34.042969 -0.304688 30.214844 2.050781 27.84375 L 27.652344 2.082031 C 30.007812 -0.289062 33.84375 -0.304688 36.21875 2.050781 Z M 36.21875 2.050781 " /><g transform="matrix(1.0075098,0,0,1.0032698,16.221436,16.077397)"><path fill-rule="evenodd" fill="rgb(100%, 100%, 100%)" fill-opacity="1" d="M 3.953125 1.195312 L 3.953125 13.324219 L 9.242188 13.324219 L 9.242188 1.195312 Z M 21.53125 1.195312 L 21.53125 13.324219 L 26.816406 13.324219 L 26.816406 1.195312 L 21.53125 1.195312 M 1.21875 18.320312 C 1.214844 18.320312 1.210938 18.320312 1.210938 18.320312 C 1.210938 18.320312 1.210938 18.320312 1.203125 18.320312 C 1.078125 18.34375 0.964844 18.433594 0.890625 18.578125 C 0.816406 18.710938 0.789062 18.886719 0.820312 19.054688 C 1.421875 22.613281 3.304688 25.507812 5.832031 27.5625 C 8.359375 29.617188 11.546875 30.851562 14.839844 31.105469 C 21.425781 31.617188 28.539062 28.15625 31.53125 19.160156 C 31.609375 18.914062 31.558594 18.632812 31.40625 18.460938 C 31.25 18.296875 31.03125 18.285156 30.867188 18.441406 C 26.773438 22.320312 22.320312 25.070312 17.464844 25.476562 C 12.609375 25.886719 7.328125 23.976562 1.511719 18.441406 C 1.445312 18.367188 1.355469 18.328125 1.261719 18.320312 C 1.25 18.320312 1.234375 18.320312 1.21875 18.320312 "/></g></svg>
