<svg width="64" height="64" viewBox="0 0 64 64" version="1.1"><defs><linearGradient id="linear-pattern-0" gradientUnits="userSpaceOnUse" x1="0" y1="0" x2="0" y2="1" gradientTransform="matrix(60, 0, 0, 56, 0, 4)"><stop offset="0" stop-color="#3067ff" stop-opacity="1"/><stop offset="1" stop-color="#002ca6" stop-opacity="1"/></linearGradient></defs><path fill="url(#linear-pattern-0)" fill-opacity="1" d="M 36.21875 2.050781 L 62.027344 27.605469 C 64.402344 29.957031 64.417969 33.785156 62.058594 36.15625 L 36.460938 61.917969 C 34.105469 64.289062 30.269531 64.304688 27.894531 61.949219 L 2.085938 36.394531 C -0.289062 34.042969 -0.304688 30.214844 2.050781 27.84375 L 27.652344 2.082031 C 30.007812 -0.289062 33.84375 -0.304688 36.21875 2.050781 Z M 36.21875 2.050781 " /><g transform="matrix(1.0075098,0,0,1.0032698,16.221436,16.077397)"><path fill-rule="nonzero" fill="rgb(100%, 100%, 100%)" fill-opacity="1" d="M 4.3125 0.871094 L 0.863281 6.265625 L 0.863281 25.695312 L 4.3125 31.089844 L 16.050781 31.089844 L 11.90625 24.613281 L 4.3125 24.613281 L 4.3125 19.21875 L 11.90625 19.21875 L 11.90625 12.742188 L 4.3125 12.742188 L 4.3125 7.335938 L 11.90625 7.335938 L 16.050781 0.875 Z M 19.5 0.871094 L 16.050781 6.265625 L 16.050781 13.820312 L 19.507812 19.21875 L 27.789062 19.21875 L 27.789062 24.613281 L 16.050781 24.613281 L 20.195312 31.089844 L 27.789062 31.089844 L 31.242188 25.695312 L 31.242188 18.140625 L 27.789062 12.742188 L 19.507812 12.742188 L 19.507812 7.335938 L 27.097656 7.335938 L 31.242188 0.867188 Z M 19.5 0.871094 "/></g></svg>
