<svg width="64" height="64" viewBox="0 0 64 64" version="1.1"><defs><linearGradient id="linear-pattern-0" gradientUnits="userSpaceOnUse" x1="0" y1="0" x2="0" y2="1" gradientTransform="matrix(60, 0, 0, 56, 0, 4)"><stop offset="0" stop-color="#008a97" stop-opacity="1"/><stop offset="1" stop-color="#00545c" stop-opacity="1"/></linearGradient></defs><path fill="url(#linear-pattern-0)" fill-opacity="1" d="M 36.21875 2.050781 L 62.027344 27.605469 C 64.402344 29.957031 64.417969 33.785156 62.058594 36.15625 L 36.460938 61.917969 C 34.105469 64.289062 30.269531 64.304688 27.894531 61.949219 L 2.085938 36.394531 C -0.289062 34.042969 -0.304688 30.214844 2.050781 27.84375 L 27.652344 2.082031 C 30.007812 -0.289062 33.84375 -0.304688 36.21875 2.050781 Z M 36.21875 2.050781 " /><g transform="matrix(1.0075098,0,0,1.0032698,16.221436,16.077397)"><path fill-rule="nonzero" fill="rgb(100%, 100%, 100%)" fill-opacity="1" d="M 0.695312 3.039062 L 0.695312 5.796875 L 5.855469 5.796875 L 5.855469 3.039062 Z M 0.695312 7.171875 L 0.695312 9.921875 L 5.855469 9.921875 L 5.855469 7.171875 Z M 14.882812 7.171875 L 14.882812 10.058594 C 14.078125 10.234375 13.3125 10.578125 12.625 11.0625 L 10.703125 9.015625 L 8.882812 10.953125 L 10.808594 13.003906 C 10.351562 13.734375 10.035156 14.550781 9.867188 15.40625 L 7.148438 15.40625 L 7.148438 18.164062 L 9.855469 18.164062 C 10.023438 19.023438 10.34375 19.835938 10.796875 20.570312 L 8.875 22.617188 L 10.695312 24.554688 L 12.617188 22.507812 C 13.304688 22.992188 14.070312 23.332031 14.875 23.507812 L 14.875 26.410156 L 17.457031 26.410156 L 17.457031 23.523438 C 18.261719 23.34375 19.027344 23 19.710938 22.515625 L 21.632812 24.570312 L 23.453125 22.628906 L 21.53125 20.578125 C 21.984375 19.84375 22.304688 19.03125 22.46875 18.171875 L 25.191406 18.171875 L 25.191406 15.421875 L 22.484375 15.421875 C 22.316406 14.5625 21.996094 13.742188 21.539062 13.011719 L 23.460938 10.960938 L 21.644531 9.023438 L 19.722656 11.070312 C 19.035156 10.589844 18.269531 10.25 17.464844 10.070312 L 17.464844 7.171875 Z M 20.042969 7.171875 L 20.042969 8.78125 L 21.554688 7.171875 Z M 21.734375 7.171875 L 24.3125 9.921875 L 25.203125 9.921875 L 25.203125 7.171875 Z M 0.707031 11.296875 L 0.707031 14.046875 L 5.867188 14.046875 L 5.867188 11.296875 Z M 7.15625 11.296875 L 7.15625 14.046875 L 9.039062 14.046875 C 9.121094 13.8125 9.210938 13.578125 9.3125 13.351562 L 7.390625 11.300781 Z M 24.960938 11.296875 L 23.039062 13.34375 C 23.140625 13.574219 23.226562 13.804688 23.308594 14.042969 L 25.191406 14.042969 L 25.191406 11.289062 Z M 26.46875 11.296875 L 26.46875 14.046875 L 31.628906 14.046875 L 31.628906 11.296875 Z M 16.148438 12.671875 C 18.285156 12.671875 20.015625 14.519531 20.015625 16.800781 C 20.015625 19.078125 18.285156 20.925781 16.148438 20.925781 C 14.007812 20.925781 12.277344 19.078125 12.277344 16.800781 C 12.277344 14.519531 14.007812 12.671875 16.148438 12.671875 Z M 0.667969 15.421875 L 0.667969 18.171875 L 5.828125 18.171875 L 5.828125 15.421875 Z M 26.46875 15.421875 L 26.46875 18.171875 L 31.628906 18.171875 L 31.628906 15.421875 Z M 0.667969 19.550781 L 0.667969 22.304688 L 5.828125 22.304688 L 5.828125 19.550781 Z M 7.117188 19.550781 L 7.117188 22.304688 L 7.339844 22.304688 L 9.261719 20.25 C 9.164062 20.023438 9.070312 19.796875 8.992188 19.554688 Z M 23.242188 19.550781 C 23.164062 19.789062 23.074219 20.019531 22.976562 20.246094 L 24.898438 22.296875 L 25.117188 22.296875 L 25.117188 19.546875 Z M 26.414062 19.550781 L 26.414062 22.304688 L 31.578125 22.304688 L 31.578125 19.550781 Z M 0.617188 23.679688 L 0.617188 26.429688 L 5.777344 26.429688 L 5.777344 23.679688 Z M 7.066406 23.679688 L 7.066406 26.429688 L 10.539062 26.429688 L 7.953125 23.679688 Z M 24.222656 23.679688 L 21.644531 26.429688 L 25.113281 26.429688 L 25.113281 23.679688 Z M 26.40625 23.679688 L 26.40625 26.429688 L 31.5625 26.429688 L 31.5625 23.679688 Z M 12.210938 24.816406 L 10.703125 26.425781 L 12.210938 26.425781 Z M 19.953125 24.816406 L 19.953125 26.425781 L 21.464844 26.425781 Z M 0.601562 27.800781 L 0.601562 30.554688 L 5.765625 30.554688 L 5.765625 27.800781 Z M 7.054688 27.800781 L 7.054688 30.554688 L 12.210938 30.554688 L 12.210938 27.800781 Z M 13.503906 27.800781 L 13.503906 30.554688 L 18.664062 30.554688 L 18.664062 27.800781 Z M 19.953125 27.800781 L 19.953125 30.554688 L 25.113281 30.554688 L 25.113281 27.800781 Z M 26.40625 27.800781 L 26.40625 30.554688 L 31.5625 30.554688 L 31.5625 27.800781 Z M 26.40625 27.800781 "/></g></svg>
