<svg width="64" height="64" viewBox="0 0 64 64" version="1.1"><defs><linearGradient id="linear-pattern-0" gradientUnits="userSpaceOnUse" x1="0" y1="0" x2="0" y2="1" gradientTransform="matrix(60, 0, 0, 56, 0, 4)"><stop offset="0" stop-color="#aaaa00" stop-opacity="1"/><stop offset="1" stop-color="#5c5c00" stop-opacity="1"/></linearGradient></defs><path fill="url(#linear-pattern-0)" fill-opacity="1" d="M 36.21875 2.050781 L 62.027344 27.605469 C 64.402344 29.957031 64.417969 33.785156 62.058594 36.15625 L 36.460938 61.917969 C 34.105469 64.289062 30.269531 64.304688 27.894531 61.949219 L 2.085938 36.394531 C -0.289062 34.042969 -0.304688 30.214844 2.050781 27.84375 L 27.652344 2.082031 C 30.007812 -0.289062 33.84375 -0.304688 36.21875 2.050781 Z M 36.21875 2.050781 " /><g transform="matrix(1.0075098,0,0,1.0032698,16.221436,16.077397)"><path fill-rule="evenodd" fill="rgb(100%, 100%, 100%)" fill-opacity="1" d="M 9.660156 15.757812 L 11.472656 15.757812 L 11.472656 17.570312 L 9.660156 17.570312 Z M 19.921875 15.757812 L 21.734375 15.757812 L 21.734375 17.570312 L 19.921875 17.570312 Z M 10.265625 19.984375 L 21.132812 19.984375 L 21.132812 21.796875 L 10.265625 21.796875 Z M 1.6875 6.703125 C 0.078125 6.703125 -0.613281 8.75 0.664062 9.734375 L 4.34375 16.59375 C 4.34375 16.59375 6.382812 13.363281 7.929688 12.882812 C 10.515625 12.085938 13.257812 14.550781 16 14.550781 C 18.742188 14.550781 21.484375 12.085938 24.070312 12.882812 C 25.617188 13.363281 27.65625 16.59375 27.65625 16.59375 L 31.335938 9.734375 C 32.613281 8.75 31.921875 6.703125 30.3125 6.703125 Z M 1.6875 6.703125 "/></g></svg>
