<svg width="64" height="64" viewBox="0 0 64 64" version="1.1"><defs><linearGradient id="linear-pattern-0" gradientUnits="userSpaceOnUse" x1="0" y1="0" x2="0" y2="1" gradientTransform="matrix(60, 0, 0, 56, 0, 4)"><stop offset="0" stop-color="#c10000" stop-opacity="1"/><stop offset="1" stop-color="#5f0000" stop-opacity="1"/></linearGradient></defs><path fill="url(#linear-pattern-0)" fill-opacity="1" d="M 36.21875 2.050781 L 62.027344 27.605469 C 64.402344 29.957031 64.417969 33.785156 62.058594 36.15625 L 36.460938 61.917969 C 34.105469 64.289062 30.269531 64.304688 27.894531 61.949219 L 2.085938 36.394531 C -0.289062 34.042969 -0.304688 30.214844 2.050781 27.84375 L 27.652344 2.082031 C 30.007812 -0.289062 33.84375 -0.304688 36.21875 2.050781 Z M 36.21875 2.050781 " /><g transform="matrix(1.0075098,0,0,1.0032698,16.221436,16.077397)"><path fill-rule="nonzero" fill="rgb(100%, 100%, 100%)" fill-opacity="1" d="M 14.109375 27.90625 C 14.054688 27.859375 13.78125 27.796875 13.492188 27.773438 C 12.414062 27.6875 11.082031 26.539062 7.703125 22.777344 C 4.339844 19.03125 2.796875 17.785156 0.820312 17.210938 C 0.585938 17.148438 0.84375 16.867188 2.375 15.492188 C 4.449219 13.621094 5.851562 12.265625 9.289062 8.804688 C 12.023438 6.054688 12.398438 5.722656 12.5625 5.890625 C 12.625 5.953125 13.039062 6.492188 13.476562 7.085938 C 14.59375 8.582031 15.453125 8.984375 16.515625 8.5 C 17.414062 8.09375 19.359375 5.816406 19.90625 4.546875 C 20.09375 4.101562 20.21875 4.109375 20.546875 4.605469 C 21.007812 5.289062 23.40625 8.039062 24.976562 9.675781 C 25.796875 10.53125 27.5625 12.214844 28.90625 13.417969 C 30.246094 14.621094 31.339844 15.65625 31.339844 15.722656 C 31.339844 15.78125 30.976562 15.9375 30.53125 16.0625 C 28.59375 16.601562 26.789062 18.015625 21.890625 22.804688 C 18.070312 26.535156 16.328125 27.8125 14.875 27.9375 C 14.503906 27.964844 14.164062 27.953125 14.109375 27.90625 M 16.859375 20.980469 C 17.808594 20.730469 17.957031 20.640625 19.226562 19.519531 C 20.546875 18.359375 21.78125 16.859375 22.882812 15.078125 C 23.40625 14.242188 23.382812 13.957031 22.777344 13.828125 C 22.5625 13.785156 21.695312 13.476562 20.851562 13.140625 C 17.710938 11.898438 16.703125 11.773438 15.234375 12.429688 C 14.144531 12.914062 11.601562 14.292969 10.773438 14.851562 C 10.429688 15.078125 9.9375 15.335938 9.679688 15.421875 C 9.421875 15.5 9.179688 15.640625 9.140625 15.726562 C 9.046875 15.9375 10.710938 18.359375 11.53125 19.210938 C 12.328125 20.03125 13.457031 20.804688 14.21875 21.054688 C 15 21.304688 15.703125 21.289062 16.859375 20.976562 "/></g></svg>
