<svg width="64" height="64" viewBox="0 0 64 64" version="1.1"><defs><linearGradient id="linear-pattern-0" gradientUnits="userSpaceOnUse" x1="0" y1="0" x2="0" y2="1" gradientTransform="matrix(60, 0, 0, 56, 0, 4)"><stop offset="0" stop-color="#008a97" stop-opacity="1"/><stop offset="1" stop-color="#00545c" stop-opacity="1"/></linearGradient></defs><path fill="url(#linear-pattern-0)" fill-opacity="1" d="M 36.21875 2.050781 L 62.027344 27.605469 C 64.402344 29.957031 64.417969 33.785156 62.058594 36.15625 L 36.460938 61.917969 C 34.105469 64.289062 30.269531 64.304688 27.894531 61.949219 L 2.085938 36.394531 C -0.289062 34.042969 -0.304688 30.214844 2.050781 27.84375 L 27.652344 2.082031 C 30.007812 -0.289062 33.84375 -0.304688 36.21875 2.050781 Z M 36.21875 2.050781 " /><g transform="matrix(1.0075098,0,0,1.0032698,16.221436,16.077397)"><path fill-rule="evenodd" fill="rgb(100%, 100%, 100%)" fill-opacity="1" d="M 22.953125 2.78125 L 8.207031 2.78125 C 8.089844 2.78125 7.972656 2.789062 7.851562 2.8125 C 7.539062 2.867188 7.234375 2.941406 6.9375 3.039062 C 6.28125 3.25 5.664062 3.53125 5.078125 3.902344 C 4.25 4.417969 3.554688 5.117188 3.03125 5.941406 C 2.398438 6.984375 2.074219 8.1875 2.085938 9.40625 L 2.085938 22.257812 L 6.257812 22.257812 L 6.257812 9.390625 C 6.257812 9.378906 6.257812 9.367188 6.257812 9.355469 C 6.253906 8.929688 6.367188 8.507812 6.582031 8.140625 C 6.765625 7.851562 7.011719 7.617188 7.296875 7.4375 C 7.589844 7.257812 7.898438 7.117188 8.222656 7.011719 C 8.285156 6.992188 8.347656 6.96875 8.417969 6.953125 L 23.554688 6.953125 C 23.5625 6.953125 23.5625 6.953125 23.570312 6.953125 L 29.300781 6.953125 C 29.546875 6.953125 29.773438 6.808594 29.867188 6.578125 C 29.960938 6.347656 29.90625 6.085938 29.734375 5.90625 L 24.003906 0.179688 C 23.886719 0.0625 23.726562 0 23.5625 0 C 23.226562 0.00390625 22.953125 0.277344 22.953125 0.613281 Z M 9.046875 29.21875 L 23.789062 29.21875 C 23.910156 29.21875 24.027344 29.210938 24.148438 29.1875 C 24.457031 29.132812 24.765625 29.058594 25.0625 28.960938 C 25.71875 28.75 26.335938 28.46875 26.921875 28.097656 C 27.75 27.582031 28.445312 26.882812 28.96875 26.058594 C 29.601562 25.015625 29.925781 23.8125 29.914062 22.59375 L 29.914062 9.742188 L 25.738281 9.742188 L 25.738281 22.609375 C 25.738281 22.621094 25.738281 22.632812 25.738281 22.644531 C 25.746094 23.070312 25.632812 23.492188 25.417969 23.859375 C 25.230469 24.148438 24.988281 24.382812 24.703125 24.5625 C 24.410156 24.742188 24.101562 24.882812 23.773438 24.988281 C 23.714844 25.007812 23.652344 25.03125 23.582031 25.046875 L 8.445312 25.046875 C 8.4375 25.046875 8.433594 25.046875 8.429688 25.046875 L 2.699219 25.046875 C 2.453125 25.046875 2.226562 25.191406 2.132812 25.421875 C 2.039062 25.652344 2.089844 25.914062 2.265625 26.09375 L 7.996094 31.820312 C 8.109375 31.9375 8.273438 32 8.4375 32 C 8.773438 31.996094 9.046875 31.722656 9.046875 31.386719 Z M 12.289062 12.523438 L 12.753906 12.523438 C 13.777344 12.523438 14.609375 13.351562 14.609375 14.378906 L 14.609375 16.234375 C 14.609375 17.257812 13.777344 18.085938 12.753906 18.085938 L 12.289062 18.085938 C 11.265625 18.085938 10.433594 17.257812 10.433594 16.234375 L 10.433594 14.378906 C 10.433594 13.351562 11.265625 12.523438 12.289062 12.523438 Z M 19.246094 12.523438 L 19.710938 12.523438 C 20.734375 12.523438 21.566406 13.351562 21.566406 14.378906 L 21.566406 16.234375 C 21.566406 17.257812 20.734375 18.085938 19.710938 18.085938 L 19.246094 18.085938 C 18.222656 18.085938 17.390625 17.257812 17.390625 16.234375 L 17.390625 14.378906 C 17.390625 13.351562 18.222656 12.523438 19.246094 12.523438 Z M 19.246094 12.523438 "/></g></svg>
