<svg width="64" height="64" viewBox="0 0 64 64" version="1.1"><defs><linearGradient id="linear-pattern-0" gradientUnits="userSpaceOnUse" x1="0" y1="0" x2="0" y2="1" gradientTransform="matrix(60, 0, 0, 56, 0, 4)"><stop offset="0" stop-color="#0288cf" stop-opacity="1"/><stop offset="1" stop-color="#01486e" stop-opacity="1"/></linearGradient></defs><path fill="url(#linear-pattern-0)" fill-opacity="1" d="M 36.21875 2.050781 L 62.027344 27.605469 C 64.402344 29.957031 64.417969 33.785156 62.058594 36.15625 L 36.460938 61.917969 C 34.105469 64.289062 30.269531 64.304688 27.894531 61.949219 L 2.085938 36.394531 C -0.289062 34.042969 -0.304688 30.214844 2.050781 27.84375 L 27.652344 2.082031 C 30.007812 -0.289062 33.84375 -0.304688 36.21875 2.050781 Z M 36.21875 2.050781 " /><g transform="matrix(1.0075098,0,0,1.0032698,16.221436,16.077397)"><path fill-rule="nonzero" fill="rgb(100%, 100%, 100%)" fill-opacity="1" d="M 18.554688 30.648438 L 21.632812 29.472656 L 21.632812 23.601562 L 23.175781 23.601562 L 26.253906 21.257812 L 6.246094 21.257812 L 6.246094 31.820312 L 12.402344 31.820312 L 13.9375 29.472656 L 9.324219 29.472656 L 9.324219 27.125 L 12.402344 27.125 L 12.402344 25.953125 L 9.324219 25.953125 L 9.324219 23.601562 L 18.554688 23.601562 "/><path fill-rule="nonzero" fill="rgb(100%, 100%, 100%)" fill-opacity="1" d="M 12.75 0.800781 C 12.636719 0.800781 12.515625 0.804688 12.390625 0.8125 L 12.390625 6.453125 L 8.550781 6.453125 L 9.828125 3.632812 L 0.867188 3.632812 L 2.148438 5.046875 L 7.269531 5.046875 L 6.632812 6.453125 L 2.148438 6.453125 L 3.046875 7.867188 L 13.675781 7.867188 L 13.675781 3.632812 C 13.648438 2.65625 14.1875 2.324219 14.953125 2.222656 C 14.671875 1.53125 14.460938 0.796875 12.75 0.796875 Z M 20.074219 0.8125 C 18.15625 0.878906 17.476562 1.414062 17.511719 2.222656 C 18.210938 2.34375 18.820312 2.582031 18.792969 3.632812 L 18.792969 7.867188 L 28.523438 7.867188 L 29.5 6.453125 L 24.558594 6.453125 L 23.914062 5.050781 L 30.601562 5.050781 L 31.597656 3.640625 L 21.359375 3.640625 L 22.636719 6.460938 L 20.078125 6.460938 L 20.078125 0.820312 Z M 3.816406 9.277344 L 4.71875 10.6875 L 12.402344 10.6875 L 12.402344 21.617188 L 13.679688 20.5625 L 13.679688 18.445312 L 14.960938 17.742188 L 14.960938 22.679688 L 17.523438 20.5625 L 17.523438 18.445312 L 18.804688 17.742188 L 18.804688 20.210938 L 20.082031 19.148438 L 20.082031 10.6875 L 27.097656 10.6875 L 28.320312 9.277344 L 18.792969 9.277344 L 18.792969 16.328125 L 17.511719 17.035156 L 17.511719 9.277344 L 14.953125 9.277344 L 14.953125 16.328125 L 13.671875 17.035156 L 13.671875 9.277344 L 3.800781 9.277344 Z M 3.816406 9.277344 "/></g></svg>
