<svg width="64" height="64" viewBox="0 0 64 64" version="1.1"><defs><linearGradient id="linear-pattern-0" gradientUnits="userSpaceOnUse" x1="0" y1="0" x2="0" y2="1" gradientTransform="matrix(60, 0, 0, 56, 0, 4)"><stop offset="0" stop-color="#6926fc" stop-opacity="1"/><stop offset="1" stop-color="#3702ab" stop-opacity="1"/></linearGradient></defs><path fill="url(#linear-pattern-0)" fill-opacity="1" d="M 36.21875 2.050781 L 62.027344 27.605469 C 64.402344 29.957031 64.417969 33.785156 62.058594 36.15625 L 36.460938 61.917969 C 34.105469 64.289062 30.269531 64.304688 27.894531 61.949219 L 2.085938 36.394531 C -0.289062 34.042969 -0.304688 30.214844 2.050781 27.84375 L 27.652344 2.082031 C 30.007812 -0.289062 33.84375 -0.304688 36.21875 2.050781 Z M 36.21875 2.050781 " /><g transform="matrix(1.0075098,0,0,1.0032698,16.221436,16.077397)"><path fill-rule="nonzero" fill="rgb(100%, 100%, 100%)" fill-opacity="1" d="M 11.550781 10.132812 C 7.980469 10.132812 4.785156 11.132812 2.730469 12.453125 C 0.671875 13.773438 0 15.140625 0 16 C 0 16.859375 0.671875 18.226562 2.730469 19.546875 C 4.785156 20.867188 7.980469 21.867188 11.550781 21.867188 C 16.285156 21.867188 20.445312 19.78125 22.140625 17.960938 C 23.390625 16.617188 25.402344 16.320312 26.984375 17.25 L 29.421875 18.679688 C 29.421875 18.679688 29.421875 18.679688 29.425781 18.679688 L 32 20.191406 C 31.601562 18.914062 31.296875 17.554688 31.296875 16 C 31.296875 14.445312 31.601562 13.082031 32 11.804688 L 29.425781 13.316406 L 26.984375 14.75 C 25.40625 15.679688 23.390625 15.382812 22.140625 14.039062 C 20.445312 12.21875 16.285156 10.132812 11.550781 10.132812 Z M 11.550781 10.132812 "/></g></svg>
