<svg width="64" height="64" viewBox="0 0 64 64" version="1.1"><defs><linearGradient id="linear-pattern-0" gradientUnits="userSpaceOnUse" x1="0" y1="0" x2="0" y2="1" gradientTransform="matrix(60, 0, 0, 56, 0, 4)"><stop offset="0" stop-color="#00a07f" stop-opacity="1"/><stop offset="1" stop-color="#005241" stop-opacity="1"/></linearGradient></defs><path fill="url(#linear-pattern-0)" fill-opacity="1" d="M 36.21875 2.050781 L 62.027344 27.605469 C 64.402344 29.957031 64.417969 33.785156 62.058594 36.15625 L 36.460938 61.917969 C 34.105469 64.289062 30.269531 64.304688 27.894531 61.949219 L 2.085938 36.394531 C -0.289062 34.042969 -0.304688 30.214844 2.050781 27.84375 L 27.652344 2.082031 C 30.007812 -0.289062 33.84375 -0.304688 36.21875 2.050781 Z M 36.21875 2.050781 " /><g transform="matrix(1.0075098,0,0,1.0032698,16.221436,16.077397)"><path fill-rule="nonzero" fill="rgb(100%, 100%, 100%)" fill-opacity="1" d="M 28.117188 20.453125 L 27.503906 21.90625 L 10.03125 16.664062 C 10.007812 16.769531 9.960938 16.929688 9.898438 17.140625 C 9.835938 17.328125 9.792969 17.480469 9.765625 17.585938 C 9.300781 19.535156 9.40625 21.125 10.078125 22.359375 C 10.765625 23.601562 12.015625 24.496094 13.835938 25.042969 C 15.40625 25.515625 17.132812 25.707031 19.015625 25.617188 C 20.914062 25.539062 22.96875 25.1875 25.171875 24.5625 L 22.242188 31.671875 C 20.214844 31.984375 18.25 32.070312 16.34375 31.941406 C 14.445312 31.832031 12.570312 31.5 10.703125 30.9375 C 7.0625 29.84375 4.507812 27.921875 3.039062 25.164062 C 1.582031 22.410156 1.328125 19.054688 2.273438 15.109375 C 2.820312 12.820312 3.664062 10.699219 4.800781 8.742188 C 5.957031 6.773438 7.351562 5.078125 8.992188 3.652344 C 10.9375 1.9375 13.03125 0.824219 15.285156 0.3125 C 17.554688 -0.195312 19.902344 -0.0859375 22.335938 0.648438 C 25.492188 1.59375 27.734375 3.421875 29.0625 6.140625 C 30.410156 8.859375 30.640625 12.054688 29.765625 15.71875 C 29.59375 16.429688 29.371094 17.179688 29.09375 17.957031 C 28.835938 18.722656 28.515625 19.554688 28.117188 20.453125 Z M 22.125 13.941406 C 22.222656 13.722656 22.304688 13.5 22.375 13.269531 C 22.464844 13.027344 22.535156 12.789062 22.589844 12.558594 C 22.933594 11.128906 22.871094 9.894531 22.40625 8.851562 C 21.9375 7.8125 21.132812 7.125 19.996094 6.78125 C 18.535156 6.34375 17.167969 6.488281 15.890625 7.21875 C 14.632812 7.929688 13.492188 9.203125 12.472656 11.046875 Z M 22.125 13.941406 "/></g></svg>
