<svg width="64" height="64" viewBox="0 0 64 64" version="1.1"><defs><linearGradient id="linear-pattern-0" gradientUnits="userSpaceOnUse" x1="0" y1="0" x2="0" y2="1" gradientTransform="matrix(60, 0, 0, 56, 0, 4)"><stop offset="0" stop-color="#c10000" stop-opacity="1"/><stop offset="1" stop-color="#5f0000" stop-opacity="1"/></linearGradient></defs><path fill="url(#linear-pattern-0)" fill-opacity="1" d="M 36.21875 2.050781 L 62.027344 27.605469 C 64.402344 29.957031 64.417969 33.785156 62.058594 36.15625 L 36.460938 61.917969 C 34.105469 64.289062 30.269531 64.304688 27.894531 61.949219 L 2.085938 36.394531 C -0.289062 34.042969 -0.304688 30.214844 2.050781 27.84375 L 27.652344 2.082031 C 30.007812 -0.289062 33.84375 -0.304688 36.21875 2.050781 Z M 36.21875 2.050781 " /><g transform="matrix(1.0075098,0,0,1.0032698,16.221436,16.077397)"><path fill-rule="nonzero" fill="rgb(100%, 100%, 100%)" fill-opacity="1" d="M 9.765625 21.789062 L 9.765625 1.710938 L 9.734375 1.65625 L 8.835938 0 L 21.1875 0 L 23.164062 1.976562 L 23.164062 6.351562 L 18.929688 6.351562 L 18.929688 4.941406 L 13.988281 4.941406 L 13.988281 9.886719 L 19.636719 9.886719 L 19.636719 14.121094 L 13.988281 14.121094 L 13.988281 21.75 L 18.929688 18.78125 L 18.929688 16.945312 L 23.164062 16.945312 L 23.164062 21.75 L 9.765625 32 Z M 9.765625 21.789062 "/></g></svg>
