<svg width="64" height="64" viewBox="0 0 64 64" version="1.1"><defs><linearGradient id="linear-pattern-0" gradientUnits="userSpaceOnUse" x1="0" y1="0" x2="0" y2="1" gradientTransform="matrix(60, 0, 0, 56, 0, 4)"><stop offset="0" stop-color="#aaaa00" stop-opacity="1"/><stop offset="1" stop-color="#5c5c00" stop-opacity="1"/></linearGradient></defs><path fill="url(#linear-pattern-0)" fill-opacity="1" d="M 36.21875 2.050781 L 62.027344 27.605469 C 64.402344 29.957031 64.417969 33.785156 62.058594 36.15625 L 36.460938 61.917969 C 34.105469 64.289062 30.269531 64.304688 27.894531 61.949219 L 2.085938 36.394531 C -0.289062 34.042969 -0.304688 30.214844 2.050781 27.84375 L 27.652344 2.082031 C 30.007812 -0.289062 33.84375 -0.304688 36.21875 2.050781 Z M 36.21875 2.050781 " /><g transform="matrix(1.0075098,0,0,1.0032698,16.221436,16.077397)"><path fill-rule="nonzero" fill="rgb(100%, 100%, 100%)" fill-opacity="1" d="M 0 25.925781 C 5.457031 24.367188 10.617188 21.78125 15.125 18.332031 C 16.65625 17.164062 18.148438 15.855469 19.078125 14.171875 C 19.546875 13.328125 19.867188 12.394531 19.949219 11.433594 C 20.03125 10.472656 19.867188 9.484375 19.425781 8.625 C 19.050781 7.90625 18.484375 7.285156 17.8125 6.824219 C 17.140625 6.359375 16.367188 6.054688 15.570312 5.890625 C 13.96875 5.558594 12.296875 5.804688 10.75 6.324219 C 8.664062 7.023438 6.71875 8.234375 5.3125 9.929688 C 3.90625 11.632812 3.070312 13.832031 3.179688 16.03125 C 3.304688 18.429688 4.539062 20.691406 6.292969 22.328125 C 8.046875 23.960938 10.289062 25.007812 12.613281 25.609375 C 16.007812 26.496094 19.628906 26.476562 23.011719 25.554688 C 26.394531 24.628906 29.527344 22.804688 32 20.320312 L 31.976562 13.871094 C 29.789062 17.246094 26.476562 19.875 22.695312 21.234375 C 19.84375 22.257812 16.671875 22.5625 13.78125 21.660156 C 12.335938 21.210938 10.976562 20.460938 9.859375 19.4375 C 8.746094 18.414062 7.878906 17.113281 7.417969 15.671875 C 6.882812 14 6.921875 12.117188 7.71875 10.554688 C 8.121094 9.773438 8.703125 9.085938 9.429688 8.589844 C 10.148438 8.09375 11.011719 7.792969 11.886719 7.757812 C 12.472656 7.738281 13.066406 7.835938 13.605469 8.0625 C 14.148438 8.292969 14.632812 8.65625 14.988281 9.121094 C 15.398438 9.65625 15.628906 10.320312 15.6875 10.996094 C 15.742188 11.667969 15.632812 12.351562 15.414062 12.988281 C 14.96875 14.265625 14.101562 15.347656 13.199219 16.351562 C 9.539062 20.425781 5.007812 23.710938 0 25.925781 "/></g></svg>
