<svg width="64" height="64" viewBox="0 0 64 64" version="1.1"><defs><linearGradient id="linear-pattern-0" gradientUnits="userSpaceOnUse" x1="0" y1="0" x2="0" y2="1" gradientTransform="matrix(60, 0, 0, 56, 0, 4)"><stop offset="0" stop-color="#c10000" stop-opacity="1"/><stop offset="1" stop-color="#5f0000" stop-opacity="1"/></linearGradient></defs><path fill="url(#linear-pattern-0)" fill-opacity="1" d="M 36.21875 2.050781 L 62.027344 27.605469 C 64.402344 29.957031 64.417969 33.785156 62.058594 36.15625 L 36.460938 61.917969 C 34.105469 64.289062 30.269531 64.304688 27.894531 61.949219 L 2.085938 36.394531 C -0.289062 34.042969 -0.304688 30.214844 2.050781 27.84375 L 27.652344 2.082031 C 30.007812 -0.289062 33.84375 -0.304688 36.21875 2.050781 Z M 36.21875 2.050781 " /><g transform="matrix(1.0075098,0,0,1.0032698,16.221436,16.077397)"><path fill-rule="nonzero" fill="rgb(100%, 100%, 100%)" fill-opacity="1" d="M 12.46875 21.023438 L 11.238281 21.023438 L 11.238281 19.84375 C 11.238281 19.765625 11.175781 19.703125 11.101562 19.703125 L 3.335938 19.703125 C 3.261719 19.703125 3.203125 19.765625 3.203125 19.84375 L 3.203125 21.023438 L 3.128906 21.023438 C 2.523438 21.023438 2.03125 21.511719 2.03125 22.117188 L 2.03125 30.90625 C 2.03125 31.507812 2.523438 32 3.128906 32 L 28.871094 32 C 29.476562 32 29.96875 31.507812 29.96875 30.90625 L 29.96875 22.117188 C 29.96875 21.511719 29.476562 21.023438 28.871094 21.023438 L 28.796875 21.023438 L 28.796875 19.84375 C 28.796875 19.765625 28.738281 19.703125 28.664062 19.703125 L 20.898438 19.703125 C 20.824219 19.703125 20.761719 19.765625 20.761719 19.84375 L 20.761719 21.023438 L 18.71875 21.023438 L 18.71875 17.964844 C 18.71875 17.832031 18.609375 17.726562 18.480469 17.726562 L 17.179688 17.726562 L 17.179688 10.898438 C 18.734375 10.503906 20.105469 9.433594 20.835938 7.863281 C 22.117188 5.089844 20.914062 1.800781 18.140625 0.515625 C 15.363281 -0.769531 12.074219 0.4375 10.789062 3.207031 C 9.503906 5.984375 10.707031 9.273438 13.484375 10.558594 L 13.484375 10.5625 C 13.65625 10.640625 13.835938 10.710938 14.015625 10.773438 L 14.015625 17.726562 L 12.710938 17.726562 C 12.578125 17.726562 12.46875 17.832031 12.46875 17.964844 Z M 12.46875 21.023438 "/></g></svg>
