<svg width="64" height="64" viewBox="0 0 64 64" version="1.1"><defs><linearGradient id="linear-pattern-0" gradientUnits="userSpaceOnUse" x1="0" y1="0" x2="0" y2="1" gradientTransform="matrix(60, 0, 0, 56, 0, 4)"><stop offset="0" stop-color="#8900e4" stop-opacity="1"/><stop offset="1" stop-color="#42006e" stop-opacity="1"/></linearGradient></defs><path fill="url(#linear-pattern-0)" fill-opacity="1" d="M 36.21875 2.050781 L 62.027344 27.605469 C 64.402344 29.957031 64.417969 33.785156 62.058594 36.15625 L 36.460938 61.917969 C 34.105469 64.289062 30.269531 64.304688 27.894531 61.949219 L 2.085938 36.394531 C -0.289062 34.042969 -0.304688 30.214844 2.050781 27.84375 L 27.652344 2.082031 C 30.007812 -0.289062 33.84375 -0.304688 36.21875 2.050781 Z M 36.21875 2.050781 " /><g transform="matrix(1.0075098,0,0,1.0032698,16.221436,16.077397)"><path fill-rule="evenodd" fill="rgb(100%, 100%, 100%)" fill-opacity="1" d="M 2.539062 31.019531 C 2.539062 31.019531 8.46875 10.554688 31.546875 13.15625 C 31.546875 13.15625 16.875 4.570312 2.636719 16.148438 C -1.570312 25.753906 2.539062 31.019531 2.539062 31.019531 Z M 2.539062 31.019531 "/><path fill-rule="evenodd" fill="rgb(100%, 100%, 100%)" fill-opacity="1" d="M 4.296875 28.433594 C 4.296875 28.433594 10.488281 13.71875 27 13.460938 C 14.449219 16.476562 27.023438 27.167969 27.023438 27.167969 C 27.023438 27.167969 17.09375 36.046875 4.296875 28.433594 Z M 4.296875 28.433594 "/><path fill-rule="evenodd" fill="rgb(100%, 100%, 100%)" fill-opacity="1" d="M 12.316406 0.597656 C 10.015625 0.617188 7.382812 1.101562 4.398438 2.320312 C 8.59375 2.640625 10.390625 3.226562 10.496094 3.664062 C 3.242188 2.433594 1.089844 12.617188 0.859375 17.152344 C 0.859375 17.152344 13.214844 3.742188 31.664062 13.007812 C 31.335938 10.492188 29.15625 7.644531 25.242188 6.828125 C 24.566406 6.515625 20.546875 0.542969 12.316406 0.597656 Z M 19.601562 5.597656 C 20.5625 5.5625 21.894531 5.90625 22.148438 7.984375 C 19.035156 8.273438 18.578125 5.78125 18.578125 5.78125 C 18.578125 5.78125 19.023438 5.621094 19.601562 5.597656 Z M 19.601562 5.597656 "/></g></svg>
