<svg width="64" height="64" viewBox="0 0 64 64" version="1.1"><defs><linearGradient id="linear-pattern-0" gradientUnits="userSpaceOnUse" x1="0" y1="0" x2="0" y2="1" gradientTransform="matrix(60, 0, 0, 56, 0, 4)"><stop offset="0" stop-color="#c10000" stop-opacity="1"/><stop offset="1" stop-color="#5f0000" stop-opacity="1"/></linearGradient></defs><path fill="url(#linear-pattern-0)" fill-opacity="1" d="M 36.21875 2.050781 L 62.027344 27.605469 C 64.402344 29.957031 64.417969 33.785156 62.058594 36.15625 L 36.460938 61.917969 C 34.105469 64.289062 30.269531 64.304688 27.894531 61.949219 L 2.085938 36.394531 C -0.289062 34.042969 -0.304688 30.214844 2.050781 27.84375 L 27.652344 2.082031 C 30.007812 -0.289062 33.84375 -0.304688 36.21875 2.050781 Z M 36.21875 2.050781 " /><g transform="matrix(1.0075098,0,0,1.0032698,16.221436,16.077397)"><path fill-rule="nonzero" fill="rgb(100%, 100%, 100%)" fill-opacity="1" d="M 23.757812 1.132812 C 19.65625 1.132812 16.328125 4.765625 16.328125 9.242188 C 16.328125 13.714844 19.65625 17.34375 23.757812 17.34375 C 23.773438 17.34375 23.789062 17.34375 23.804688 17.34375 L 20.414062 21.039062 C 19.945312 18.496094 18.664062 16.007812 16.8125 14.03125 C 12.539062 9.460938 6.390625 8.75 3.070312 12.445312 C -0.242188 16.140625 0.539062 22.839844 4.8125 27.414062 C 9.09375 31.984375 15.25 32.695312 18.5625 29 C 19.476562 27.976562 20.101562 26.6875 20.40625 25.214844 L 27.601562 25.214844 L 27.601562 16.171875 C 29.828125 14.703125 31.1875 12.078125 31.191406 9.242188 C 31.195312 4.765625 27.867188 1.136719 23.761719 1.136719 Z M 23.757812 1.132812 "/><path fill-rule="nonzero" fill="rgb(86.666667%, 86.666667%, 86.666667%)" fill-opacity="1" d="M 24.210938 12.226562 C 24.210938 12.867188 23.6875 13.390625 23.042969 13.390625 C 22.398438 13.390625 21.875 12.867188 21.875 12.226562 C 21.875 11.582031 22.398438 11.0625 23.042969 11.0625 C 23.6875 11.0625 24.210938 11.582031 24.210938 12.226562 Z M 24.210938 12.226562 "/><path fill-rule="nonzero" fill="rgb(86.666667%, 86.666667%, 86.666667%)" fill-opacity="1" d="M 12.753906 20.285156 C 13.433594 20.953125 13.558594 21.929688 13.03125 22.46875 C 12.507812 23.007812 11.527344 22.902344 10.847656 22.234375 C 10.167969 21.570312 10.042969 20.59375 10.570312 20.054688 C 11.09375 19.515625 12.074219 19.617188 12.753906 20.285156 Z M 12.753906 20.285156 "/></g></svg>
