<svg width="64" height="64" viewBox="0 0 64 64" version="1.1"><defs><linearGradient id="linear-pattern-0" gradientUnits="userSpaceOnUse" x1="0" y1="0" x2="0" y2="1" gradientTransform="matrix(60, 0, 0, 56, 0, 4)"><stop offset="0" stop-color="#0288cf" stop-opacity="1"/><stop offset="1" stop-color="#01486e" stop-opacity="1"/></linearGradient></defs><path fill="url(#linear-pattern-0)" fill-opacity="1" d="M 36.21875 2.050781 L 62.027344 27.605469 C 64.402344 29.957031 64.417969 33.785156 62.058594 36.15625 L 36.460938 61.917969 C 34.105469 64.289062 30.269531 64.304688 27.894531 61.949219 L 2.085938 36.394531 C -0.289062 34.042969 -0.304688 30.214844 2.050781 27.84375 L 27.652344 2.082031 C 30.007812 -0.289062 33.84375 -0.304688 36.21875 2.050781 Z M 36.21875 2.050781 " /><g transform="matrix(1.0075098,0,0,1.0032698,16.221436,16.077397)"><path fill-rule="nonzero" fill="rgb(100%, 100%, 100%)" fill-opacity="1" d="M 26.1875 0.953125 C 25.367188 0.960938 24.613281 1.402344 24.203125 2.121094 L 16.996094 2.121094 C 13.8125 2.121094 11.253906 4.722656 11.253906 7.953125 L 11.253906 11.453125 L 4.359375 11.453125 C 3.726562 11.453125 3.210938 11.96875 3.210938 12.617188 L 3.210938 19.617188 C 3.210938 20.265625 3.726562 20.78125 4.359375 20.78125 L 5.824219 20.78125 C 6.234375 21.5 6.992188 21.945312 7.808594 21.949219 C 9.078125 21.949219 10.105469 20.90625 10.105469 19.617188 C 10.105469 18.328125 9.078125 17.285156 7.808594 17.285156 C 6.992188 17.289062 6.234375 17.730469 5.824219 18.449219 L 5.507812 18.449219 L 5.507812 13.785156 L 11.253906 13.785156 L 11.253906 28.945312 C 11.253906 29.59375 11.765625 30.113281 12.398438 30.113281 L 17.3125 30.113281 C 17.71875 30.835938 18.476562 31.277344 19.296875 31.28125 C 20.5625 31.28125 21.59375 30.234375 21.59375 28.945312 C 21.589844 28.117188 21.152344 27.34375 20.445312 26.929688 L 20.445312 20.78125 L 27.335938 20.78125 C 27.96875 20.78125 28.484375 20.265625 28.484375 19.617188 L 28.484375 12.617188 C 28.484375 11.96875 27.96875 11.453125 27.335938 11.453125 L 22.429688 11.453125 C 22.023438 10.734375 21.265625 10.289062 20.445312 10.285156 C 19.625 10.289062 18.867188 10.734375 18.460938 11.453125 L 13.550781 11.453125 L 13.550781 7.953125 C 13.550781 6.015625 15.085938 4.453125 16.996094 4.453125 L 24.203125 4.453125 C 24.613281 5.171875 25.367188 5.617188 26.1875 5.621094 C 27.453125 5.621094 28.484375 4.578125 28.484375 3.289062 C 28.484375 2 27.453125 0.953125 26.1875 0.953125 Z M 13.550781 13.785156 L 18.460938 13.785156 C 18.867188 14.507812 19.625 14.949219 20.445312 14.953125 C 21.261719 14.953125 22.015625 14.507812 22.425781 13.785156 L 26.1875 13.785156 L 26.1875 18.449219 L 19.296875 18.449219 C 18.660156 18.449219 18.148438 18.972656 18.148438 19.617188 L 18.148438 26.933594 C 17.796875 27.140625 17.511719 27.429688 17.3125 27.78125 L 13.550781 27.78125 Z M 13.550781 13.785156 "/></g></svg>
