<svg width="64" height="64" viewBox="0 0 64 64" version="1.1"><defs><linearGradient id="linear-pattern-0" gradientUnits="userSpaceOnUse" x1="0" y1="0" x2="0" y2="1" gradientTransform="matrix(60, 0, 0, 56, 0, 4)"><stop offset="0" stop-color="#ec7700" stop-opacity="1"/><stop offset="1" stop-color="#773c00" stop-opacity="1"/></linearGradient></defs><path fill="url(#linear-pattern-0)" fill-opacity="1" d="M 36.21875 2.050781 L 62.027344 27.605469 C 64.402344 29.957031 64.417969 33.785156 62.058594 36.15625 L 36.460938 61.917969 C 34.105469 64.289062 30.269531 64.304688 27.894531 61.949219 L 2.085938 36.394531 C -0.289062 34.042969 -0.304688 30.214844 2.050781 27.84375 L 27.652344 2.082031 C 30.007812 -0.289062 33.84375 -0.304688 36.21875 2.050781 Z M 36.21875 2.050781 " /><g transform="matrix(1.0075098,0,0,1.0032698,16.221436,16.077397)"><path fill-rule="nonzero" fill="rgb(100%, 100%, 100%)" fill-opacity="1" d="M 2 0.570312 C 1.058594 0.625 0.574219 1.710938 1.140625 2.46875 L 3.84375 6.101562 C 3.476562 6.519531 3.25 7.0625 3.25 7.664062 L 3.25 11.210938 C 3.25 12.523438 4.296875 13.578125 5.597656 13.578125 L 26.742188 13.578125 C 28.042969 13.578125 29.09375 12.523438 29.09375 11.210938 L 29.09375 7.664062 C 29.09375 7.0625 28.867188 6.515625 28.496094 6.101562 L 31.203125 2.46875 C 31.765625 1.710938 31.28125 0.628906 30.34375 0.570312 C 29.945312 0.550781 29.570312 0.734375 29.328125 1.054688 L 26.167969 5.296875 L 6.171875 5.296875 L 3.007812 1.054688 C 2.773438 0.734375 2.394531 0.546875 2 0.570312 Z M 10.296875 7.664062 C 11.59375 7.664062 12.644531 8.722656 12.644531 10.03125 C 12.644531 11.335938 11.59375 12.394531 10.296875 12.394531 C 9 12.394531 7.945312 11.335938 7.945312 10.03125 C 7.945312 8.722656 9 7.664062 10.296875 7.664062 Z M 22.042969 7.664062 C 23.339844 7.664062 24.390625 8.722656 24.390625 10.03125 C 24.390625 11.335938 23.339844 12.394531 22.042969 12.394531 C 20.746094 12.394531 19.695312 11.335938 19.695312 10.03125 C 19.695312 8.722656 20.746094 7.664062 22.042969 7.664062 Z M 5.597656 14.757812 C 4.296875 14.757812 3.25 15.8125 3.25 17.125 L 3.25 28.945312 C 3.25 30.257812 4.296875 31.3125 5.597656 31.3125 L 26.742188 31.3125 C 28.046875 31.3125 29.09375 30.257812 29.09375 28.945312 L 29.09375 17.125 C 29.09375 15.8125 28.046875 14.757812 26.742188 14.757812 Z M 5.597656 14.757812 "/></g></svg>
