<svg width="64" height="64" viewBox="0 0 64 64" version="1.1"><defs><linearGradient id="linear-pattern-0" gradientUnits="userSpaceOnUse" x1="0" y1="0" x2="0" y2="1" gradientTransform="matrix(60, 0, 0, 56, 0, 4)"><stop offset="0" stop-color="#ec7700" stop-opacity="1"/><stop offset="1" stop-color="#773c00" stop-opacity="1"/></linearGradient></defs><path fill="url(#linear-pattern-0)" fill-opacity="1" d="M 36.21875 2.050781 L 62.027344 27.605469 C 64.402344 29.957031 64.417969 33.785156 62.058594 36.15625 L 36.460938 61.917969 C 34.105469 64.289062 30.269531 64.304688 27.894531 61.949219 L 2.085938 36.394531 C -0.289062 34.042969 -0.304688 30.214844 2.050781 27.84375 L 27.652344 2.082031 C 30.007812 -0.289062 33.84375 -0.304688 36.21875 2.050781 Z M 36.21875 2.050781 " /><g transform="matrix(1.0075098,0,0,1.0032698,16.221436,16.077397)"><path fill-rule="evenodd" fill="rgb(100%, 100%, 100%)" fill-opacity="1" d="M 14.59375 15.761719 L 14.59375 32 L 17.40625 32 L 17.40625 15.761719 C 18.640625 15.21875 19.507812 13.984375 19.507812 12.546875 C 19.507812 10.609375 17.9375 9.039062 16 9.039062 C 14.0625 9.039062 12.492188 10.609375 12.492188 12.546875 C 12.492188 13.984375 13.359375 15.21875 14.59375 15.761719 Z M 22.976562 0 L 21.71875 2.515625 C 25.515625 4.414062 27.921875 8.296875 27.925781 12.546875 C 27.921875 16.796875 25.523438 20.679688 21.71875 22.582031 L 22.96875 25.078125 C 27.71875 22.707031 30.726562 17.855469 30.734375 12.546875 C 30.730469 7.234375 27.726562 2.375 22.976562 0 Z M 9.03125 0.0078125 C 4.28125 2.382812 1.273438 7.234375 1.265625 12.546875 C 1.269531 17.859375 4.273438 22.71875 9.023438 25.09375 L 10.28125 22.578125 C 6.484375 20.679688 4.078125 16.796875 4.074219 12.546875 C 4.078125 8.296875 6.476562 4.410156 10.28125 2.507812 Z M 20.464844 5.015625 L 19.210938 7.53125 C 21.109375 8.480469 22.3125 10.421875 22.3125 12.546875 C 22.3125 14.671875 21.109375 16.613281 19.210938 17.5625 L 20.460938 20.066406 C 23.3125 18.640625 25.117188 15.734375 25.117188 12.546875 C 25.117188 9.359375 23.316406 6.441406 20.464844 5.015625 Z M 11.539062 5.023438 C 8.6875 6.449219 6.882812 9.359375 6.882812 12.546875 C 6.882812 15.734375 8.683594 18.648438 11.535156 20.074219 L 12.789062 17.5625 C 10.890625 16.609375 9.6875 14.671875 9.6875 12.546875 C 9.6875 10.421875 10.890625 8.476562 12.789062 7.527344 Z M 11.539062 5.023438 "/></g></svg>
