<svg width="64" height="64" viewBox="0 0 64 64" version="1.1"><defs><linearGradient id="linear-pattern-0" gradientUnits="userSpaceOnUse" x1="0" y1="0" x2="0" y2="1" gradientTransform="matrix(60, 0, 0, 56, 0, 4)"><stop offset="0" stop-color="#008a97" stop-opacity="1"/><stop offset="1" stop-color="#00545c" stop-opacity="1"/></linearGradient></defs><path fill="url(#linear-pattern-0)" fill-opacity="1" d="M 36.21875 2.050781 L 62.027344 27.605469 C 64.402344 29.957031 64.417969 33.785156 62.058594 36.15625 L 36.460938 61.917969 C 34.105469 64.289062 30.269531 64.304688 27.894531 61.949219 L 2.085938 36.394531 C -0.289062 34.042969 -0.304688 30.214844 2.050781 27.84375 L 27.652344 2.082031 C 30.007812 -0.289062 33.84375 -0.304688 36.21875 2.050781 Z M 36.21875 2.050781 " /><g transform="matrix(1.0075098,0,0,1.0032698,16.221436,16.077397)"><path fill-rule="nonzero" fill="rgb(100%, 100%, 100%)" fill-opacity="1" d="M 11.335938 32 C 14.277344 32 16.664062 29.609375 16.664062 26.664062 L 16.664062 21.335938 L 11.335938 21.335938 C 8.390625 21.335938 6 23.722656 6 26.664062 C 6 29.609375 8.390625 32 11.335938 32 Z M 11.335938 32 "/><path fill-rule="nonzero" fill="rgb(100%, 100%, 100%)" fill-opacity="1" d="M 6 16 C 6 13.054688 8.390625 10.664062 11.335938 10.664062 L 16.664062 10.664062 L 16.664062 21.335938 L 11.335938 21.335938 C 8.390625 21.335938 6 18.945312 6 16 Z M 6 16 "/><path fill-rule="nonzero" fill="rgb(100%, 100%, 100%)" fill-opacity="1" d="M 6 5.335938 C 6 2.390625 8.390625 0 11.335938 0 L 16.664062 0 L 16.664062 10.664062 L 11.335938 10.664062 C 8.390625 10.664062 6 8.277344 6 5.335938 Z M 6 5.335938 "/><path fill-rule="nonzero" fill="rgb(100%, 100%, 100%)" fill-opacity="1" d="M 16.664062 0 L 22 0 C 24.945312 0 27.335938 2.390625 27.335938 5.335938 C 27.335938 8.277344 24.945312 10.664062 22 10.664062 L 16.664062 10.664062 Z M 16.664062 0 "/><path fill-rule="nonzero" fill="rgb(100%, 100%, 100%)" fill-opacity="1" d="M 27.335938 16 C 27.335938 18.945312 24.945312 21.335938 22 21.335938 C 19.054688 21.335938 16.664062 18.945312 16.664062 16 C 16.664062 13.054688 19.054688 10.664062 22 10.664062 C 24.945312 10.664062 27.335938 13.054688 27.335938 16 Z M 27.335938 16 "/></g></svg>
