<svg width="64" height="64" viewBox="0 0 64 64" version="1.1"><defs><linearGradient id="linear-pattern-0" gradientUnits="userSpaceOnUse" x1="0" y1="0" x2="0" y2="1" gradientTransform="matrix(60, 0, 0, 56, 0, 4)"><stop offset="0" stop-color="#8900e4" stop-opacity="1"/><stop offset="1" stop-color="#42006e" stop-opacity="1"/></linearGradient></defs><path fill="url(#linear-pattern-0)" fill-opacity="1" d="M 36.21875 2.050781 L 62.027344 27.605469 C 64.402344 29.957031 64.417969 33.785156 62.058594 36.15625 L 36.460938 61.917969 C 34.105469 64.289062 30.269531 64.304688 27.894531 61.949219 L 2.085938 36.394531 C -0.289062 34.042969 -0.304688 30.214844 2.050781 27.84375 L 27.652344 2.082031 C 30.007812 -0.289062 33.84375 -0.304688 36.21875 2.050781 Z M 36.21875 2.050781 " /><g transform="matrix(1.0075098,0,0,1.0032698,16.221436,16.077397)"><path fill-rule="nonzero" fill="rgb(100%, 100%, 100%)" fill-opacity="1" d="M 16.367188 0.00390625 C 12.082031 -0.09375 7.90625 1.390625 4.640625 4.167969 C 4.355469 4.40625 4.222656 4.777344 4.289062 5.140625 C 4.355469 5.507812 4.609375 5.804688 4.960938 5.929688 C 5.308594 6.054688 5.695312 5.984375 5.976562 5.742188 C 11.945312 0.664062 20.765625 0.851562 26.511719 6.179688 C 26.78125 6.4375 27.167969 6.53125 27.523438 6.421875 C 27.882812 6.3125 28.148438 6.023438 28.234375 5.65625 C 28.3125 5.292969 28.191406 4.914062 27.914062 4.664062 C 24.769531 1.75 20.660156 0.09375 16.371094 0.00390625 Z M 16 4.125 C 8.609375 4.125 2.617188 10.09375 2.578125 17.480469 C 2.578125 17.5 2.578125 17.515625 2.578125 17.53125 C 2.578125 17.535156 2.578125 17.539062 2.578125 17.542969 C 2.578125 17.546875 2.578125 17.546875 2.578125 17.546875 C 2.578125 17.550781 2.578125 17.554688 2.578125 17.554688 L 2.578125 17.578125 C 2.578125 17.59375 2.578125 17.609375 2.578125 17.625 C 2.578125 20.273438 3.070312 22.902344 4.023438 25.375 C 4.15625 25.726562 4.460938 25.976562 4.828125 26.03125 C 5.195312 26.09375 5.5625 25.949219 5.796875 25.660156 C 6.03125 25.371094 6.085938 24.976562 5.949219 24.632812 C 5.078125 22.375 4.636719 19.976562 4.640625 17.5625 C 4.640625 17.554688 4.640625 17.546875 4.640625 17.542969 C 4.640625 11.273438 9.726562 6.1875 15.996094 6.1875 C 22.265625 6.1875 27.351562 11.273438 27.351562 17.542969 C 27.351562 19.25 25.960938 20.640625 24.253906 20.640625 C 22.542969 20.640625 21.15625 19.25 21.15625 17.542969 C 21.15625 14.691406 18.84375 12.382812 15.996094 12.382812 C 13.171875 12.382812 10.871094 14.65625 10.835938 17.480469 C 10.835938 17.5 10.835938 17.523438 10.835938 17.542969 C 10.835938 17.546875 10.835938 17.550781 10.835938 17.554688 C 10.820312 24.894531 16.753906 30.898438 24.097656 30.960938 C 24.46875 30.964844 24.8125 30.773438 25 30.453125 C 25.1875 30.132812 25.191406 29.742188 25.007812 29.421875 C 24.828125 29.097656 24.488281 28.898438 24.117188 28.894531 C 17.898438 28.851562 12.882812 23.78125 12.90625 17.5625 C 12.90625 17.554688 12.90625 17.546875 12.90625 17.542969 C 12.90625 15.832031 14.289062 14.445312 16 14.445312 C 17.710938 14.445312 19.097656 15.832031 19.097656 17.542969 C 19.097656 20.390625 21.40625 22.703125 24.257812 22.703125 C 27.109375 22.703125 29.421875 20.390625 29.421875 17.542969 C 29.421875 10.132812 23.414062 4.125 16 4.125 Z M 16 8.253906 C 10.890625 8.25 6.742188 12.375 6.710938 17.476562 C 6.710938 17.484375 6.710938 17.496094 6.710938 17.507812 C 6.710938 17.515625 6.710938 17.53125 6.710938 17.542969 C 6.710938 17.546875 6.710938 17.550781 6.710938 17.554688 C 6.695312 23.203125 9.40625 28.507812 13.992188 31.796875 C 14.1875 31.945312 14.429688 32.015625 14.671875 32 C 14.707031 31.996094 14.742188 31.992188 14.777344 31.984375 C 15.191406 31.914062 15.523438 31.601562 15.613281 31.195312 C 15.707031 30.785156 15.539062 30.359375 15.199219 30.121094 C 11.15625 27.21875 8.761719 22.539062 8.773438 17.5625 C 8.773438 17.554688 8.773438 17.546875 8.773438 17.539062 C 8.773438 13.550781 12.007812 10.3125 16 10.3125 C 19.992188 10.3125 23.226562 13.550781 23.226562 17.539062 C 23.226562 18.109375 23.6875 18.570312 24.257812 18.570312 C 24.828125 18.570312 25.289062 18.109375 25.289062 17.539062 C 25.289062 17.507812 25.289062 17.476562 25.289062 17.445312 C 25.234375 12.351562 21.09375 8.257812 16.003906 8.253906 Z M 15.976562 16.46875 C 15.703125 16.472656 15.445312 16.585938 15.25 16.78125 C 15.058594 16.976562 14.953125 17.242188 14.957031 17.515625 L 14.957031 17.53125 C 14.957031 17.53125 14.957031 17.539062 14.957031 17.542969 C 14.953125 17.578125 14.953125 17.617188 14.957031 17.652344 C 15.023438 22.703125 19.109375 26.777344 24.15625 26.832031 C 24.527344 26.835938 24.867188 26.640625 25.058594 26.324219 C 25.246094 26.007812 25.25 25.613281 25.070312 25.289062 C 24.886719 24.96875 24.546875 24.769531 24.179688 24.765625 C 20.210938 24.742188 17.007812 21.511719 17.015625 17.542969 C 17.015625 17.535156 17.015625 17.527344 17.015625 17.523438 C 17.023438 17.242188 16.914062 16.976562 16.71875 16.777344 C 16.519531 16.578125 16.25 16.46875 15.976562 16.472656 Z M 15.976562 16.46875 "/></g></svg>
