<svg width="64" height="64" viewBox="0 0 64 64" version="1.1"><defs><linearGradient id="linear-pattern-0" gradientUnits="userSpaceOnUse" x1="0" y1="0" x2="0" y2="1" gradientTransform="matrix(60, 0, 0, 56, 0, 4)"><stop offset="0" stop-color="#00983a" stop-opacity="1"/><stop offset="1" stop-color="#004a1c" stop-opacity="1"/></linearGradient></defs><path fill="url(#linear-pattern-0)" fill-opacity="1" d="M 36.21875 2.050781 L 62.027344 27.605469 C 64.402344 29.957031 64.417969 33.785156 62.058594 36.15625 L 36.460938 61.917969 C 34.105469 64.289062 30.269531 64.304688 27.894531 61.949219 L 2.085938 36.394531 C -0.289062 34.042969 -0.304688 30.214844 2.050781 27.84375 L 27.652344 2.082031 C 30.007812 -0.289062 33.84375 -0.304688 36.21875 2.050781 Z M 36.21875 2.050781 " /><g transform="matrix(1.0075098,0,0,1.0032698,16.221436,16.077397)"><path fill-rule="nonzero" fill="rgb(100%, 100%, 100%)" fill-opacity="1" d="M 0.0351562 4.207031 C 0.078125 4.210938 0.117188 4.21875 0.148438 4.242188 C 0.328125 4.390625 0.523438 4.496094 0.703125 4.65625 C 5.277344 8.699219 7.601562 8.464844 11.382812 10.988281 C 11.554688 11.101562 12.550781 11.335938 13.226562 12.140625 C 13.25 12.171875 13.273438 12.210938 13.320312 12.21875 C 14.25 12.445312 14.191406 12.429688 14.191406 12.453125 C 14.203125 12.632812 14.207031 12.8125 14.226562 12.984375 C 14.242188 12.984375 14.253906 12.972656 14.257812 12.957031 C 14.894531 11.785156 16.390625 11.375 16.371094 11.386719 C 18.953125 9.660156 21.832031 8.816406 23.523438 7.695312 C 24.949219 6.742188 27.632812 4.34375 27.4375 4.492188 C 27.753906 4.25 27.828125 4.171875 27.875 4.3125 C 28.0625 4.890625 27.09375 7.335938 25.742188 8.339844 C 25.351562 8.632812 25.207031 8.609375 25.207031 8.683594 C 25.597656 8.609375 26.046875 8.5 26.332031 8.546875 C 27.039062 8.664062 25.476562 9.507812 24.84375 9.84375 C 24.78125 9.882812 24.117188 10.195312 24.105469 10.234375 C 24.40625 10.175781 26.0625 9.703125 26.242188 9.984375 C 26.257812 10.085938 26.070312 10.179688 26.050781 10.214844 C 26.011719 10.25 25.972656 10.289062 25.917969 10.296875 C 25.6875 10.539062 23.257812 11.648438 20.179688 12.578125 C 20.164062 12.578125 20.152344 12.59375 20.152344 12.613281 C 24.421875 12.039062 23.28125 13.148438 19.210938 13.667969 C 19.167969 13.707031 19.140625 13.761719 19.101562 13.8125 C 19.171875 13.828125 20.332031 13.925781 21.007812 14.183594 C 21.570312 14.414062 20.953125 14.53125 20.277344 14.527344 C 18.703125 14.53125 18.523438 14.28125 18.40625 14.445312 C 19.367188 14.757812 20.242188 15.136719 20.242188 15.136719 C 20.328125 15.117188 20.40625 15.082031 20.484375 15.054688 C 24.363281 13.648438 27.507812 11.59375 29.734375 13.078125 C 30.203125 13.382812 30.523438 13.816406 30.550781 14.378906 C 30.570312 14.949219 30.257812 15.5625 30.03125 15.859375 C 30.003906 15.894531 29.976562 15.921875 29.953125 15.960938 C 32.320312 17.042969 32.3125 18.296875 31.53125 19.132812 C 30.039062 20.828125 26.78125 19.535156 25.976562 18.617188 C 26.09375 18.65625 26.210938 18.71875 26.328125 18.757812 C 27.507812 19.214844 29.070312 19.347656 28.90625 18.542969 C 28.6875 16.339844 24.574219 17.628906 19.757812 16.484375 C 19.664062 16.460938 19.578125 16.4375 19.484375 16.417969 C 19.492188 16.433594 19.492188 16.453125 19.515625 16.453125 C 22.046875 17.34375 24.902344 17.601562 26.113281 18.863281 C 26.90625 19.769531 27.175781 21.292969 25.507812 22.15625 C 25.203125 22.304688 24.683594 22.582031 23.914062 22.277344 C 23.09375 21.976562 22.382812 21.058594 22.332031 20.359375 C 22.425781 20.464844 22.628906 20.789062 23.046875 21.0625 C 23.347656 21.265625 23.796875 21.433594 24.085938 21.21875 C 24.242188 21.101562 24.453125 20.632812 24.4375 20.300781 C 24.375 19.101562 21.84375 18.878906 19.910156 17.554688 C 19.726562 17.417969 19.140625 17.042969 18.265625 16.15625 C 18.238281 16.257812 18.199219 16.351562 18.15625 16.445312 C 18.132812 16.492188 18.152344 16.542969 18.15625 16.589844 C 18.164062 16.636719 18.15625 16.6875 18.1875 16.730469 C 19.945312 19.335938 19.410156 21.101562 20.105469 21.992188 C 20.453125 22.445312 21.246094 22.273438 21.351562 21.953125 C 21.5 21.53125 21.160156 20.9375 20.84375 20.617188 C 21.644531 20.828125 22.683594 22.28125 21.746094 23.375 C 20.96875 24.351562 19.929688 24.242188 19.234375 23.484375 C 18.28125 22.523438 18.5625 19.976562 18.261719 17.804688 C 18.257812 17.804688 18.246094 17.800781 18.242188 17.796875 C 18.40625 22.074219 16.65625 24.972656 18.484375 25.46875 C 18.851562 25.5625 18.988281 24.976562 19.03125 24.601562 C 19.089844 23.863281 18.945312 23.320312 18.921875 23.179688 C 19.457031 23.78125 20.007812 26.53125 18.570312 27.5 C 17.257812 28.414062 16.414062 26.992188 16.234375 25.84375 C 14.320312 26.757812 13.601562 25.054688 13.921875 23.640625 C 14.203125 22.460938 15.226562 21.066406 16.128906 19.71875 C 16.359375 19.375 17.578125 17.535156 17.671875 17.132812 C 17.617188 17.148438 16.578125 18.289062 14.515625 18.144531 C 12.578125 18.015625 11.800781 16.835938 11.757812 16.8125 C 11.75 16.921875 11.738281 17.382812 11.726562 17.4375 C 11.535156 17.253906 9.757812 15.070312 9.648438 15.066406 C 9.421875 15.078125 9.214844 15.074219 9.027344 15.179688 C 8.75 15.304688 8.648438 15.703125 8.628906 15.757812 C 8.574219 15.648438 8.554688 15.523438 8.5 15.410156 C 8.039062 15.65625 5.328125 16.648438 5.117188 16.273438 C 4.957031 15.949219 7.183594 14.867188 8.324219 14.460938 C 8.332031 14.347656 8.359375 14.242188 8.390625 14.132812 C 8.234375 14.132812 7.054688 14.226562 6.652344 14.0625 C 6.496094 14 6.582031 13.90625 6.734375 13.835938 C 7.316406 13.578125 8.625 13.460938 8.699219 13.445312 C 8.671875 13.402344 8.640625 13.359375 8.609375 13.316406 C 8.609375 13.316406 7.109375 13.105469 6.042969 12.796875 C 4.144531 12.246094 4.773438 11.84375 7.460938 12.21875 C 7.53125 12.226562 7.601562 12.238281 7.675781 12.242188 C 7.671875 12.226562 1.640625 10.28125 1.570312 9.5625 C 1.84375 9.320312 3.5 9.808594 3.707031 9.84375 C 3.703125 9.8125 3.667969 9.804688 3.644531 9.789062 C 3.003906 9.484375 2.195312 9.039062 2.171875 8.992188 C 2.066406 8.953125 1.675781 8.6875 1.59375 8.601562 C 1.515625 8.5625 1.234375 8.304688 1.335938 8.21875 C 1.335938 8.214844 1.335938 8.203125 1.335938 8.199219 C 1.613281 7.984375 2.414062 8.332031 2.625 8.261719 C 2.570312 8.234375 2.515625 8.195312 2.457031 8.171875 C 2.421875 8.148438 2.367188 8.132812 2.34375 8.09375 C 1.660156 7.8125 -0.0859375 5.8125 0.00390625 4.242188 C 0.015625 4.242188 0.0234375 4.238281 0.03125 4.238281 C 0.03125 4.234375 0.0351562 4.21875 0.0351562 4.207031 Z M 26.796875 14.515625 C 26.566406 14.53125 26.335938 14.570312 26.109375 14.609375 C 25.25 14.761719 24.433594 15.0625 23.601562 15.304688 C 23.070312 15.453125 22.53125 15.582031 21.988281 15.664062 C 21.972656 15.667969 21.960938 15.675781 21.953125 15.6875 C 22.132812 15.691406 22.304688 15.667969 22.476562 15.664062 C 23.554688 15.601562 24.628906 15.53125 25.703125 15.496094 C 26.179688 15.488281 26.660156 15.472656 27.140625 15.492188 C 27.492188 15.492188 27.851562 15.523438 28.203125 15.554688 C 28.207031 15.460938 28.164062 15.382812 28.140625 15.296875 C 28.078125 15.148438 28.007812 15 27.902344 14.878906 C 27.785156 14.742188 27.628906 14.648438 27.460938 14.585938 C 27.25 14.515625 27.019531 14.507812 26.796875 14.515625 Z M 17.226562 19.679688 C 17.171875 19.820312 17.117188 19.957031 17.058594 20.09375 C 16.960938 20.328125 16.839844 20.554688 16.734375 20.78125 C 16.695312 20.832031 16.671875 20.886719 16.644531 20.941406 C 16.421875 21.367188 16.179688 21.78125 15.96875 22.21875 C 15.859375 22.453125 15.757812 22.6875 15.679688 22.929688 C 15.59375 23.164062 15.523438 23.414062 15.554688 23.664062 C 15.570312 23.898438 15.695312 24.125 15.890625 24.257812 C 15.976562 24.328125 16.078125 24.390625 16.1875 24.429688 C 16.203125 24.367188 16.203125 24.304688 16.214844 24.242188 C 16.226562 24.097656 16.253906 23.957031 16.273438 23.816406 C 16.453125 22.710938 16.75 21.632812 17.03125 20.546875 C 17.109375 20.257812 17.191406 19.96875 17.261719 19.679688 C 17.253906 19.679688 17.234375 19.679688 17.226562 19.679688 Z M 17.226562 19.679688 "/></g></svg>
