<svg width="64" height="64" viewBox="0 0 64 64" version="1.1"><defs><linearGradient id="linear-pattern-0" gradientUnits="userSpaceOnUse" x1="0" y1="0" x2="0" y2="1" gradientTransform="matrix(60, 0, 0, 56, 0, 4)"><stop offset="0" stop-color="#00a07f" stop-opacity="1"/><stop offset="1" stop-color="#005241" stop-opacity="1"/></linearGradient></defs><path fill="url(#linear-pattern-0)" fill-opacity="1" d="M 36.21875 2.050781 L 62.027344 27.605469 C 64.402344 29.957031 64.417969 33.785156 62.058594 36.15625 L 36.460938 61.917969 C 34.105469 64.289062 30.269531 64.304688 27.894531 61.949219 L 2.085938 36.394531 C -0.289062 34.042969 -0.304688 30.214844 2.050781 27.84375 L 27.652344 2.082031 C 30.007812 -0.289062 33.84375 -0.304688 36.21875 2.050781 Z M 36.21875 2.050781 " /><g transform="matrix(1.0075098,0,0,1.0032698,16.221436,16.077397)"><path fill-rule="nonzero" fill="rgb(100%, 100%, 100%)" fill-opacity="1" d="M 6.398438 0.835938 L 5.21875 4.320312 L 5.21875 27.5625 L 6.398438 31.050781 L 8.757812 31.050781 L 9.933594 27.5625 L 9.933594 4.320312 L 8.757812 0.835938 Z M 14.648438 0.835938 L 13.46875 4.320312 L 13.46875 27.5625 L 14.648438 31.050781 L 17.007812 31.050781 L 18.1875 27.5625 L 18.1875 4.320312 L 17.007812 0.835938 Z M 22.898438 0.835938 L 21.71875 4.320312 L 21.71875 27.5625 L 22.898438 31.050781 L 25.257812 31.050781 L 26.433594 27.5625 L 26.433594 4.320312 L 25.257812 0.835938 Z M 22.898438 0.835938 "/><path fill-rule="nonzero" fill="rgb(100%, 100%, 100%)" fill-opacity="1" d="M 4.402344 5.539062 L 27.96875 5.539062 C 29.921875 5.539062 31.507812 7.097656 31.507812 9.023438 L 31.507812 22.96875 C 31.507812 24.894531 29.921875 26.457031 27.96875 26.457031 L 4.402344 26.457031 C 2.449219 26.457031 0.867188 24.894531 0.867188 22.96875 L 0.867188 9.023438 C 0.867188 7.097656 2.449219 5.539062 4.402344 5.539062 Z M 4.402344 5.539062 "/></g></svg>
