<svg width="64" height="64" viewBox="0 0 64 64" version="1.1"><defs><linearGradient id="linear-pattern-0" gradientUnits="userSpaceOnUse" x1="0" y1="0" x2="0" y2="1" gradientTransform="matrix(60, 0, 0, 56, 0, 4)"><stop offset="0" stop-color="#7795ab" stop-opacity="1"/><stop offset="1" stop-color="#3b4f5f" stop-opacity="1"/></linearGradient></defs><path fill="url(#linear-pattern-0)" fill-opacity="1" d="M 36.21875 2.050781 L 62.027344 27.605469 C 64.402344 29.957031 64.417969 33.785156 62.058594 36.15625 L 36.460938 61.917969 C 34.105469 64.289062 30.269531 64.304688 27.894531 61.949219 L 2.085938 36.394531 C -0.289062 34.042969 -0.304688 30.214844 2.050781 27.84375 L 27.652344 2.082031 C 30.007812 -0.289062 33.84375 -0.304688 36.21875 2.050781 Z M 36.21875 2.050781 " /><g transform="matrix(1.0075098,0,0,1.0032698,16.221436,16.077397)"><path fill-rule="nonzero" fill="rgb(100%, 100%, 100%)" fill-opacity="1" d="M 5.359375 1.066406 L 5.359375 5.40625 L 7.554688 5.40625 L 7.554688 3.238281 L 9.757812 3.242188 L 9.757812 1.070312 M 18.5625 1.070312 L 18.5625 3.242188 L 20.757812 3.242188 L 20.757812 5.414062 L 22.960938 5.414062 L 22.960938 1.070312 M 7.554688 7.582031 L 7.554688 11.921875 L 9.757812 11.921875 L 9.757812 7.582031 M 14.15625 7.582031 L 14.15625 11.921875 L 16.351562 11.921875 L 16.351562 7.582031 M 3.15625 9.75 L 3.15625 11.921875 L 5.351562 11.921875 L 5.351562 9.75 M 3.15625 14.09375 L 3.15625 20.601562 L 7.550781 20.601562 L 7.550781 24.945312 L 9.75 24.945312 L 9.75 14.085938 L 3.15625 14.085938 M 7.550781 24.945312 L 5.351562 24.945312 L 5.351562 31.453125 L 11.945312 31.453125 L 11.945312 27.117188 L 9.75 27.117188 L 9.75 29.289062 L 7.550781 29.289062 M 11.945312 27.117188 L 14.15625 27.132812 L 14.15625 29.304688 L 16.34375 29.289062 L 16.359375 24.960938 L 11.960938 24.960938 M 16.359375 29.304688 L 16.359375 31.476562 L 20.757812 31.476562 L 20.742188 29.289062 L 22.960938 29.304688 L 22.960938 27.132812 L 27.359375 27.132812 L 27.359375 24.960938 L 29.5625 24.960938 L 29.5625 16.273438 L 25.160156 16.273438 L 25.160156 14.101562 L 18.5625 14.101562 L 18.5625 16.273438 L 22.960938 16.273438 L 22.960938 18.445312 L 18.5625 18.445312 L 18.5625 27.132812 L 20.738281 27.109375 L 20.738281 29.277344 M 5.34375 16.257812 L 7.539062 16.257812 L 7.539062 18.429688 L 5.34375 18.429688 M 25.160156 18.445312 L 27.359375 18.445312 L 27.34375 22.765625 L 25.160156 22.789062 L 25.160156 24.960938 L 20.757812 24.960938 L 20.757812 22.789062 L 22.960938 22.789062 L 22.960938 20.617188 L 25.140625 20.59375 "/></g></svg>
