<svg width="64" height="64" viewBox="0 0 64 64" version="1.1"><defs><linearGradient id="linear-pattern-0" gradientUnits="userSpaceOnUse" x1="0" y1="0" x2="0" y2="1" gradientTransform="matrix(60, 0, 0, 56, 0, 4)"><stop offset="0" stop-color="#008a97" stop-opacity="1"/><stop offset="1" stop-color="#00545c" stop-opacity="1"/></linearGradient></defs><path fill="url(#linear-pattern-0)" fill-opacity="1" d="M 36.21875 2.050781 L 62.027344 27.605469 C 64.402344 29.957031 64.417969 33.785156 62.058594 36.15625 L 36.460938 61.917969 C 34.105469 64.289062 30.269531 64.304688 27.894531 61.949219 L 2.085938 36.394531 C -0.289062 34.042969 -0.304688 30.214844 2.050781 27.84375 L 27.652344 2.082031 C 30.007812 -0.289062 33.84375 -0.304688 36.21875 2.050781 Z M 36.21875 2.050781 " /><g transform="matrix(1.0075098,0,0,1.0032698,16.221436,16.077397)"><path fill-rule="nonzero" fill="rgb(100%, 100%, 100%)" fill-opacity="1" d="M 19.167969 0.609375 L 10.460938 10.097656 C 6.109375 14.84375 4.660156 16.753906 4.660156 20.773438 C 4.660156 27.890625 10.460938 31.449219 17.71875 31.449219 C 23.519531 31.449219 27.871094 27.890625 27.871094 21.960938 C 27.871094 12.46875 20.617188 12.222656 20.617188 4.167969 L 20.617188 1.203125 C 20.617188 0.875 20.292969 0.609375 19.890625 0.609375 Z M 17.71875 6.539062 L 17.71875 7.726562 C 17.71875 10.054688 19.109375 11.804688 20.53125 13.679688 C 20.320312 13.664062 20.109375 13.652344 19.894531 13.652344 C 15.484375 13.648438 11.914062 16.570312 11.914062 20.175781 C 11.914062 21.8125 13.542969 23.144531 15.542969 23.144531 C 17.546875 23.144531 19.171875 21.8125 19.171875 20.175781 C 19.171875 18.765625 17.960938 17.554688 16.265625 17.269531 C 17.21875 16.476562 18.53125 16.023438 19.894531 16.023438 C 20.796875 16.023438 21.679688 16.226562 22.460938 16.597656 C 23.09375 17.808594 23.53125 19.148438 23.53125 20.773438 C 23.53125 23.148438 22.683594 27.890625 16.273438 27.890625 C 11.460938 27.890625 7.570312 24.746094 7.570312 20.773438 C 7.570312 17.6875 9.019531 16.027344 11.199219 13.65625 Z M 17.71875 6.539062 "/></g></svg>
