<svg width="64" height="64" viewBox="0 0 64 64" version="1.1"><defs><linearGradient id="linear-pattern-0" gradientUnits="userSpaceOnUse" x1="0" y1="0" x2="0" y2="1" gradientTransform="matrix(60, 0, 0, 56, 0, 4)"><stop offset="0" stop-color="#d00068" stop-opacity="1"/><stop offset="1" stop-color="#6e0037" stop-opacity="1"/></linearGradient></defs><path fill="url(#linear-pattern-0)" fill-opacity="1" d="M 36.21875 2.050781 L 62.027344 27.605469 C 64.402344 29.957031 64.417969 33.785156 62.058594 36.15625 L 36.460938 61.917969 C 34.105469 64.289062 30.269531 64.304688 27.894531 61.949219 L 2.085938 36.394531 C -0.289062 34.042969 -0.304688 30.214844 2.050781 27.84375 L 27.652344 2.082031 C 30.007812 -0.289062 33.84375 -0.304688 36.21875 2.050781 Z M 36.21875 2.050781 " /><g transform="matrix(1.0075098,0,0,1.0032698,16.221436,16.077397)"><path fill-rule="nonzero" fill="rgb(100%, 100%, 100%)" fill-opacity="1" d="M 8.25 0 C 7.804688 0.546875 7.53125 1 7.023438 1.546875 C 5.3125 3.367188 5.589844 4.53125 6.945312 5.804688 C 7.179688 6.023438 6.417969 6.808594 6.15625 7.835938 C 6.664062 8.242188 6.796875 8.867188 7.257812 9.34375 C 7.765625 8.726562 8.921875 7.328125 9.273438 6.953125 C 9.273438 6.953125 10.015625 5.78125 9.085938 4.679688 C 8.417969 4.015625 8.25 2.460938 8.289062 0.921875 C 8.332031 0.820312 8.234375 0.257812 8.25 0 Z M 12.523438 1.257812 C 11.878906 1.257812 11.8125 1.488281 12.035156 2.890625 C 12.359375 4.929688 11.65625 6.789062 10.070312 7.960938 C 9.40625 8.449219 8.0625 10.101562 8.0625 10.316406 C 8.0625 10.507812 5.007812 11.296875 5.890625 12.433594 C 6.023438 12.601562 4.363281 13.734375 6.25 12.90625 C 7.824219 12.21875 8.703125 16.296875 9.304688 17.46875 L 10.398438 19.589844 L 9.429688 21.488281 C 8.007812 24.25 8.421875 25.160156 5.75 27.863281 C 5.335938 28.285156 5.40625 28.808594 5.078125 28.59375 C 2.734375 27.054688 4.871094 29.28125 4.726562 29.484375 C 3.664062 27.257812 3.972656 30.738281 3.972656 30.742188 C 4.984375 31.855469 6.878906 32.035156 8.367188 31.992188 C 10.84375 32.007812 11.933594 30.335938 12.664062 29.09375 C 14.796875 25.449219 17.546875 22.542969 18.414062 22.875 C 18.796875 23.023438 20.164062 24.617188 21.460938 26.417969 C 22.757812 28.21875 24.007812 29.640625 24.234375 29.574219 C 24.960938 29.359375 25.824219 27.511719 25.824219 25.746094 C 25.824219 23.40625 25.414062 22.859375 24.703125 22.167969 C 24.179688 21.652344 24.5 21.382812 24.003906 20.652344 C 23.132812 19.382812 22.707031 19.773438 23.355469 18.40625 C 23.726562 17.617188 23.742188 17.246094 24.71875 16.449219 C 27.117188 14.484375 28.488281 10.398438 27.953125 8.46875 C 27.734375 7.671875 27.367188 6.664062 27.035156 6.226562 C 26.46875 5.472656 26.429688 5.515625 26.414062 6.960938 C 26.40625 8.226562 23.210938 9.679688 22.53125 9.679688 C 22.460938 9.679688 22.390625 9.6875 22.3125 9.714844 C 21.71875 10.65625 21.226562 11.25 20.84375 11.945312 C 18.996094 14.546875 19.601562 14.515625 18.914062 14.515625 C 18.21875 14.515625 16.710938 12.714844 14.828125 9.882812 C 14.679688 9.664062 14.019531 9.457031 13.914062 9.265625 C 13.863281 9.171875 13.828125 9.085938 13.792969 9 C 13.777344 8.96875 13.761719 8.9375 13.75 8.90625 C 13.722656 8.847656 13.6875 8.78125 13.664062 8.726562 C 13.609375 8.582031 13.578125 8.449219 13.558594 8.324219 C 13.554688 8.320312 13.554688 8.3125 13.554688 8.3125 C 13.554688 8.300781 13.546875 8.289062 13.546875 8.273438 C 13.546875 8.261719 13.546875 8.25 13.546875 8.234375 C 13.53125 8.117188 13.53125 8.011719 13.554688 7.914062 C 13.554688 7.90625 13.554688 7.894531 13.554688 7.886719 C 13.578125 7.777344 13.617188 7.679688 13.675781 7.585938 C 13.679688 7.585938 13.679688 7.582031 13.679688 7.578125 C 13.6875 7.570312 13.6875 7.5625 13.695312 7.554688 C 13.757812 7.453125 13.84375 7.367188 13.949219 7.285156 C 13.953125 7.28125 13.953125 7.28125 13.957031 7.277344 C 13.957031 7.277344 13.960938 7.277344 13.960938 7.277344 C 14.183594 7.105469 14.492188 6.964844 14.898438 6.84375 C 14.992188 6.875 15.078125 6.902344 15.179688 6.9375 L 16.550781 6.9375 C 16.601562 6.78125 16.605469 6.589844 16.578125 6.34375 C 16.433594 5.121094 13.519531 1.257812 12.523438 1.257812 Z M 22.828125 1.257812 C 22.273438 1.257812 19.757812 5.101562 19.871094 6.472656 C 19.976562 7.734375 19.742188 7.75 20.289062 7.6875 C 20.773438 7.625 22.046875 7.632812 22.289062 7.175781 C 22.453125 6.867188 22.945312 3.84375 23.109375 3.203125 C 23.566406 1.398438 23.546875 1.257812 22.828125 1.257812 Z M 22.828125 1.257812 "/></g></svg>
