<svg width="64" height="64" viewBox="0 0 64 64" version="1.1"><defs><linearGradient id="linear-pattern-0" gradientUnits="userSpaceOnUse" x1="0" y1="0" x2="0" y2="1" gradientTransform="matrix(60, 0, 0, 56, 0, 4)"><stop offset="0" stop-color="#7795ab" stop-opacity="1"/><stop offset="1" stop-color="#3b4f5f" stop-opacity="1"/></linearGradient></defs><path fill="url(#linear-pattern-0)" fill-opacity="1" d="M 36.21875 2.050781 L 62.027344 27.605469 C 64.402344 29.957031 64.417969 33.785156 62.058594 36.15625 L 36.460938 61.917969 C 34.105469 64.289062 30.269531 64.304688 27.894531 61.949219 L 2.085938 36.394531 C -0.289062 34.042969 -0.304688 30.214844 2.050781 27.84375 L 27.652344 2.082031 C 30.007812 -0.289062 33.84375 -0.304688 36.21875 2.050781 Z M 36.21875 2.050781 " /><g transform="matrix(1.0075098,0,0,1.0032698,16.221436,16.077397)"><path fill-rule="nonzero" fill="rgb(100%, 100%, 100%)" fill-opacity="1" d="M 15.992188 0.800781 C 8.429688 0.800781 2.332031 7.171875 2.332031 15.085938 C 1.167969 15.085938 0.230469 16.457031 0.230469 18.15625 L 0.230469 19.699219 C 0.230469 21.398438 1.171875 22.773438 2.332031 22.773438 L 4.4375 22.773438 L 4.4375 15.085938 C 4.4375 8.390625 9.59375 3 15.992188 3 C 22.390625 3 27.550781 8.390625 27.550781 15.085938 L 27.550781 22.773438 C 27.550781 26.421875 24.734375 29.367188 21.25 29.367188 L 17.046875 29.367188 L 17.046875 28.265625 C 17.046875 27.660156 16.570312 27.171875 15.992188 27.171875 C 15.414062 27.171875 14.941406 27.660156 14.941406 28.265625 L 14.941406 30.464844 C 14.941406 31.070312 15.414062 31.5625 15.992188 31.5625 L 21.25 31.5625 C 25.902344 31.5625 29.652344 27.640625 29.652344 22.773438 C 30.820312 22.773438 31.753906 21.289062 31.753906 19.589844 L 31.753906 18.378906 C 31.753906 16.679688 30.816406 15.085938 29.652344 15.085938 C 29.652344 7.171875 23.558594 0.800781 15.992188 0.800781 Z M 15.992188 5.195312 C 14.835938 5.195312 13.890625 5.9375 13.890625 6.84375 C 13.890625 7.433594 14.289062 7.976562 14.941406 8.273438 L 14.941406 9.589844 L 10.738281 9.589844 C 8.40625 9.589844 6.535156 11.546875 6.535156 13.984375 L 6.535156 19.476562 C 6.535156 23.125 9.351562 26.070312 12.84375 26.070312 L 19.144531 26.070312 C 22.632812 26.070312 25.449219 23.125 25.449219 19.476562 L 25.449219 13.984375 C 25.449219 11.546875 23.578125 9.589844 21.25 9.589844 L 17.046875 9.589844 L 17.046875 8.273438 C 17.695312 7.976562 18.09375 7.433594 18.09375 6.84375 C 18.09375 5.9375 17.152344 5.195312 15.992188 5.195312 Z M 10.738281 12.886719 L 21.25 12.886719 C 21.828125 12.886719 22.296875 13.375 22.296875 13.984375 L 22.296875 19.476562 C 22.296875 21.304688 20.890625 22.773438 19.144531 22.773438 L 12.84375 22.773438 C 11.097656 22.773438 9.6875 21.304688 9.6875 19.476562 L 9.6875 13.984375 C 9.6875 13.375 10.15625 12.886719 10.738281 12.886719 Z M 13.890625 13.984375 C 13.308594 13.984375 12.84375 14.476562 12.84375 15.085938 L 12.84375 16.179688 C 12.84375 16.789062 13.308594 17.28125 13.890625 17.28125 C 14.476562 17.28125 14.941406 16.789062 14.941406 16.179688 L 14.941406 15.085938 C 14.941406 14.476562 14.476562 13.984375 13.890625 13.984375 Z M 18.09375 13.984375 C 17.511719 13.984375 17.046875 14.476562 17.046875 15.085938 L 17.046875 16.179688 C 17.046875 16.789062 17.511719 17.28125 18.09375 17.28125 C 18.679688 17.28125 19.144531 16.789062 19.144531 16.179688 L 19.144531 15.085938 C 19.144531 14.476562 18.679688 13.984375 18.09375 13.984375 Z M 12.84375 19.476562 L 12.84375 20.578125 L 14.941406 21.675781 L 17.046875 21.675781 L 19.144531 20.578125 L 19.144531 19.476562 Z M 12.84375 19.476562 "/></g></svg>
