<svg width="64" height="64" viewBox="0 0 64 64" version="1.1"><defs><linearGradient id="linear-pattern-0" gradientUnits="userSpaceOnUse" x1="0" y1="0" x2="0" y2="1" gradientTransform="matrix(60, 0, 0, 56, 0, 4)"><stop offset="0" stop-color="#aaaa00" stop-opacity="1"/><stop offset="1" stop-color="#5c5c00" stop-opacity="1"/></linearGradient></defs><path fill="url(#linear-pattern-0)" fill-opacity="1" d="M 36.21875 2.050781 L 62.027344 27.605469 C 64.402344 29.957031 64.417969 33.785156 62.058594 36.15625 L 36.460938 61.917969 C 34.105469 64.289062 30.269531 64.304688 27.894531 61.949219 L 2.085938 36.394531 C -0.289062 34.042969 -0.304688 30.214844 2.050781 27.84375 L 27.652344 2.082031 C 30.007812 -0.289062 33.84375 -0.304688 36.21875 2.050781 Z M 36.21875 2.050781 " /><g transform="matrix(1.0075098,0,0,1.0032698,16.221436,16.077397)"><path fill-rule="nonzero" fill="rgb(100%, 100%, 100%)" fill-opacity="1" d="M 15.640625 14.949219 C 14.167969 13.152344 11.929688 12 9.429688 12 C 5.015625 12 1.429688 15.585938 1.429688 20 C 1.429688 24.414062 5.015625 28 9.429688 28 C 10.890625 28 12.265625 27.605469 13.441406 26.914062 C 15.097656 29.9375 18.3125 32 22 32 C 27.359375 32 31.714844 27.648438 31.714844 22.285156 C 31.714844 16.921875 27.359375 12.570312 22 12.570312 C 19.570312 12.570312 17.34375 13.46875 15.640625 14.949219 Z M 15.640625 14.949219 "/></g></svg>
