<svg width="64" height="64" viewBox="0 0 64 64" version="1.1"><defs><linearGradient id="linear-pattern-0" gradientUnits="userSpaceOnUse" x1="0" y1="0" x2="0" y2="1" gradientTransform="matrix(60, 0, 0, 56, 0, 4)"><stop offset="0" stop-color="#c10000" stop-opacity="1"/><stop offset="1" stop-color="#5f0000" stop-opacity="1"/></linearGradient></defs><path fill="url(#linear-pattern-0)" fill-opacity="1" d="M 36.21875 2.050781 L 62.027344 27.605469 C 64.402344 29.957031 64.417969 33.785156 62.058594 36.15625 L 36.460938 61.917969 C 34.105469 64.289062 30.269531 64.304688 27.894531 61.949219 L 2.085938 36.394531 C -0.289062 34.042969 -0.304688 30.214844 2.050781 27.84375 L 27.652344 2.082031 C 30.007812 -0.289062 33.84375 -0.304688 36.21875 2.050781 Z M 36.21875 2.050781 " /><g transform="matrix(1.0075098,0,0,1.0032698,16.221436,16.077397)"><path fill-rule="nonzero" fill="rgb(100%, 100%, 100%)" fill-opacity="1" d="M 16.339844 5.761719 L 7.941406 23.835938 L 10.921875 23.835938 L 16.328125 11.851562 L 21.746094 23.847656 L 24.726562 23.84375 L 16.351562 5.773438 Z M 5.507812 5.78125 L 4.148438 8.546875 L 13.347656 8.546875 L 14.703125 5.78125 L 5.492188 5.78125 Z M 17.953125 5.78125 L 19.3125 8.546875 L 28.507812 8.546875 L 27.152344 5.78125 L 17.945312 5.78125 Z M 2.445312 11.328125 L 1.09375 14.109375 L 7.722656 14.109375 L 2.984375 23.839844 L 5.960938 23.839844 L 12.046875 11.328125 L 2.4375 11.328125 Z M 20.6875 11.328125 L 26.769531 23.839844 L 29.75 23.839844 L 25.011719 14.109375 L 31.640625 14.109375 L 30.289062 11.328125 L 20.675781 11.328125 Z M 16.359375 16.890625 C 15.757812 16.890625 15.269531 17.511719 15.269531 18.28125 C 15.269531 19.046875 15.757812 19.667969 16.359375 19.667969 C 16.964844 19.667969 17.453125 19.046875 17.453125 18.28125 C 17.453125 17.511719 16.964844 16.890625 16.359375 16.890625 Z M 16.359375 16.890625 "/></g></svg>
