<svg width="64" height="64" viewBox="0 0 64 64" version="1.1"><defs><linearGradient id="linear-pattern-0" gradientUnits="userSpaceOnUse" x1="0" y1="0" x2="0" y2="1" gradientTransform="matrix(60, 0, 0, 56, 0, 4)"><stop offset="0" stop-color="#aaaa00" stop-opacity="1"/><stop offset="1" stop-color="#5c5c00" stop-opacity="1"/></linearGradient></defs><path fill="url(#linear-pattern-0)" fill-opacity="1" d="M 36.21875 2.050781 L 62.027344 27.605469 C 64.402344 29.957031 64.417969 33.785156 62.058594 36.15625 L 36.460938 61.917969 C 34.105469 64.289062 30.269531 64.304688 27.894531 61.949219 L 2.085938 36.394531 C -0.289062 34.042969 -0.304688 30.214844 2.050781 27.84375 L 27.652344 2.082031 C 30.007812 -0.289062 33.84375 -0.304688 36.21875 2.050781 Z M 36.21875 2.050781 " /><g transform="matrix(1.0075098,0,0,1.0032698,16.221436,16.077397)"><path fill-rule="evenodd" fill="rgb(100%, 100%, 100%)" fill-opacity="1" d="M 31.125 11.273438 C 28.296875 -0.789062 17.4375 -0.6875 10.875 2.460938 C 3.976562 5.980469 -1.023438 15 1.707031 22.558594 C 5.917969 33.953125 21.53125 33.832031 27.285156 22.945312 C 28.898438 19.160156 28.246094 16.15625 25.929688 12.945312 L 25.433594 16.90625 L 23.382812 13.429688 C 23.382812 13.429688 22.242188 17.566406 20.820312 19.019531 C 18.84375 21.046875 15.8125 19.546875 16 20.25 C 16.527344 22.273438 21.070312 23.726562 21.070312 23.726562 C 10.296875 28.617188 9.664062 19.921875 9.78125 17.917969 C 10.121094 12.15625 15.125 7.890625 21.171875 8.210938 C 23.097656 8.363281 26.457031 10.65625 26.457031 10.65625 C 25.066406 7.453125 22.714844 6.054688 21.554688 5.453125 C 26.105469 3.9375 29.054688 8.507812 31.125 11.273438 Z M 31.125 11.273438 "/></g></svg>
