<svg width="64" height="64" viewBox="0 0 64 64" version="1.1"><defs><linearGradient id="linear-pattern-0" gradientUnits="userSpaceOnUse" x1="0" y1="0" x2="0" y2="1" gradientTransform="matrix(60, 0, 0, 56, 0, 4)"><stop offset="0" stop-color="#00a07f" stop-opacity="1"/><stop offset="1" stop-color="#005241" stop-opacity="1"/></linearGradient></defs><path fill="url(#linear-pattern-0)" fill-opacity="1" d="M 36.21875 2.050781 L 62.027344 27.605469 C 64.402344 29.957031 64.417969 33.785156 62.058594 36.15625 L 36.460938 61.917969 C 34.105469 64.289062 30.269531 64.304688 27.894531 61.949219 L 2.085938 36.394531 C -0.289062 34.042969 -0.304688 30.214844 2.050781 27.84375 L 27.652344 2.082031 C 30.007812 -0.289062 33.84375 -0.304688 36.21875 2.050781 Z M 36.21875 2.050781 " /><g transform="matrix(1.0075098,0,0,1.0032698,16.221436,16.077397)"><path fill-rule="nonzero" fill="rgb(100%, 100%, 100%)" fill-opacity="1" d="M 27.398438 1.285156 L 24.90625 4.75 L 28.644531 9.363281 L 28.644531 10.515625 L 13.679688 10.515625 L 13.679688 5.902344 L 11.1875 10.515625 L 3.703125 10.515625 L 1.210938 5.902344 L 1.210938 31.289062 L 3.703125 31.289062 L 3.703125 22.054688 L 11.1875 22.054688 L 11.1875 31.289062 L 13.679688 31.289062 L 13.679688 22.054688 L 18.667969 22.054688 L 18.667969 31.289062 L 21.164062 31.289062 L 21.164062 22.054688 L 28.644531 22.054688 L 28.644531 31.289062 L 31.140625 31.289062 L 31.140625 8.210938 L 27.398438 4.75 Z M 27.398438 1.285156 "/><path fill-rule="nonzero" fill="rgb(68.235294%, 70.196078%, 76.078431%)" fill-opacity="1" d="M 5.367188 11.542969 L 5.367188 15.492188 L 6.449219 15.492188 L 6.449219 11.542969 Z M 8.617188 11.542969 L 8.617188 15.492188 L 9.703125 15.492188 L 9.703125 11.542969 Z M 3.195312 16.804688 L 3.195312 18.117188 L 5.367188 18.117188 L 5.367188 16.804688 Z M 6.449219 16.804688 L 7.53125 19.4375 L 8.617188 16.804688 Z M 9.703125 16.804688 L 9.703125 18.117188 L 11.867188 18.117188 L 11.867188 16.804688 Z M 3.195312 19.4375 L 3.195312 20.75 L 5.367188 20.75 L 5.367188 19.4375 Z M 9.703125 19.4375 L 9.703125 20.75 L 11.867188 20.75 L 11.867188 19.4375 Z M 9.703125 19.4375 "/></g></svg>
