<svg width="64" height="64" viewBox="0 0 64 64" version="1.1"><defs><linearGradient id="linear-pattern-0" gradientUnits="userSpaceOnUse" x1="0" y1="0" x2="0" y2="1" gradientTransform="matrix(60, 0, 0, 56, 0, 4)"><stop offset="0" stop-color="#7795ab" stop-opacity="1"/><stop offset="1" stop-color="#3b4f5f" stop-opacity="1"/></linearGradient></defs><path fill="url(#linear-pattern-0)" fill-opacity="1" d="M 36.21875 2.050781 L 62.027344 27.605469 C 64.402344 29.957031 64.417969 33.785156 62.058594 36.15625 L 36.460938 61.917969 C 34.105469 64.289062 30.269531 64.304688 27.894531 61.949219 L 2.085938 36.394531 C -0.289062 34.042969 -0.304688 30.214844 2.050781 27.84375 L 27.652344 2.082031 C 30.007812 -0.289062 33.84375 -0.304688 36.21875 2.050781 Z M 36.21875 2.050781 " /><g transform="matrix(1.0075098,0,0,1.0032698,16.221436,16.077397)"><path fill-rule="nonzero" fill="rgb(100%, 100%, 100%)" fill-opacity="1" d="M 16.28125 11.507812 C 10.402344 11.507812 4.527344 16.234375 4.515625 22.136719 C 4.515625 28.632812 8.179688 31.578125 12.753906 31.578125 C 14.007812 31.578125 15.382812 30.03125 16.28125 28.628906 C 17.171875 30.03125 18.546875 31.578125 19.804688 31.578125 C 24.375 31.578125 28.039062 28.632812 28.039062 22.136719 C 28.03125 16.234375 22.152344 11.507812 16.28125 11.507812 "/><path fill-rule="nonzero" fill="rgb(100%, 100%, 100%)" fill-opacity="1" d="M 17.75 2.183594 C 17.75 2.898438 17.085938 3.484375 16.28125 3.484375 C 15.46875 3.484375 14.8125 2.898438 14.8125 2.183594 C 14.8125 1.46875 15.46875 0.886719 16.28125 0.886719 C 17.085938 0.886719 17.75 1.46875 17.75 2.183594 Z M 17.75 2.183594 "/><path fill-rule="nonzero" fill="rgb(100%, 100%, 100%)" fill-opacity="1" d="M 7.113281 15.9375 C 7.113281 16.429688 6.71875 16.820312 6.230469 16.820312 C 5.742188 16.820312 5.351562 16.429688 5.351562 15.9375 C 5.351562 15.449219 5.742188 15.054688 6.230469 15.054688 C 6.71875 15.054688 7.113281 15.449219 7.113281 15.9375 Z M 7.113281 15.9375 "/><path fill-rule="nonzero" fill="rgb(100%, 100%, 100%)" fill-opacity="1" d="M 27.207031 15.9375 C 27.207031 16.429688 26.8125 16.820312 26.324219 16.820312 C 25.835938 16.820312 25.445312 16.429688 25.445312 15.9375 C 25.445312 15.449219 25.835938 15.054688 26.324219 15.054688 C 26.8125 15.054688 27.207031 15.449219 27.207031 15.9375 Z M 27.207031 15.9375 "/><path fill-rule="nonzero" fill="rgb(100%, 100%, 100%)" fill-opacity="1" d="M 4.761719 22.726562 C 4.761719 23.703125 3.921875 24.5 2.882812 24.5 C 1.84375 24.5 1.003906 23.703125 1.003906 22.726562 C 1.003906 21.75 1.84375 20.957031 2.882812 20.957031 C 3.921875 20.957031 4.761719 21.75 4.761719 22.726562 Z M 4.761719 22.726562 "/><path fill-rule="nonzero" fill="rgb(100%, 100%, 100%)" fill-opacity="1" d="M 31.554688 22.726562 C 31.554688 23.703125 30.710938 24.5 29.671875 24.5 C 28.636719 24.5 27.792969 23.703125 27.792969 22.726562 C 27.792969 21.75 28.636719 20.957031 29.671875 20.957031 C 30.710938 20.957031 31.554688 21.75 31.554688 22.726562 Z M 31.554688 22.726562 "/><path fill-rule="nonzero" fill="rgb(100%, 100%, 100%)" fill-opacity="1" d="M 8.054688 30.398438 C 8.054688 31.054688 7.527344 31.578125 6.875 31.578125 C 6.226562 31.578125 5.703125 31.054688 5.703125 30.398438 C 5.703125 29.75 6.226562 29.21875 6.875 29.21875 C 7.527344 29.21875 8.054688 29.75 8.054688 30.398438 Z M 8.054688 30.398438 "/><path fill-rule="nonzero" fill="rgb(100%, 100%, 100%)" fill-opacity="1" d="M 26.851562 30.398438 C 26.851562 31.054688 26.328125 31.578125 25.679688 31.578125 C 25.03125 31.578125 24.503906 31.054688 24.503906 30.398438 C 24.503906 29.75 25.03125 29.21875 25.679688 29.21875 C 26.328125 29.21875 26.851562 29.75 26.851562 30.398438 Z M 26.851562 30.398438 "/><path fill-rule="nonzero" fill="rgb(100%, 100%, 100%)" fill-opacity="1" d="M 20.976562 7.671875 C 20.976562 10.117188 18.875 12.101562 16.28125 12.101562 C 13.679688 12.101562 11.578125 10.117188 11.578125 7.671875 C 11.578125 5.226562 13.679688 3.25 16.28125 3.25 C 18.875 3.25 20.976562 5.226562 20.976562 7.671875 Z M 20.976562 7.671875 "/></g></svg>
