<svg width="64" height="64" viewBox="0 0 64 64" version="1.1"><defs><linearGradient id="linear-pattern-0" gradientUnits="userSpaceOnUse" x1="0" y1="0" x2="0" y2="1" gradientTransform="matrix(60, 0, 0, 56, 0, 4)"><stop offset="0" stop-color="#00a07f" stop-opacity="1"/><stop offset="1" stop-color="#005241" stop-opacity="1"/></linearGradient></defs><path fill="url(#linear-pattern-0)" fill-opacity="1" d="M 36.21875 2.050781 L 62.027344 27.605469 C 64.402344 29.957031 64.417969 33.785156 62.058594 36.15625 L 36.460938 61.917969 C 34.105469 64.289062 30.269531 64.304688 27.894531 61.949219 L 2.085938 36.394531 C -0.289062 34.042969 -0.304688 30.214844 2.050781 27.84375 L 27.652344 2.082031 C 30.007812 -0.289062 33.84375 -0.304688 36.21875 2.050781 Z M 36.21875 2.050781 " /><g transform="matrix(1.0075098,0,0,1.0032698,16.221436,16.077397)"><path fill-rule="nonzero" fill="rgb(100%, 100%, 100%)" fill-opacity="1" d="M 17.441406 0 C 14.289062 -0.0078125 10.359375 0.195312 9.828125 0.484375 C 9.199219 0.828125 9.171875 0.921875 9.574219 1.320312 C 9.820312 1.566406 10.671875 1.835938 11.460938 1.921875 C 12.328125 2.011719 13.171875 2.316406 13.570312 2.679688 C 14.195312 3.25 14.238281 3.53125 14.238281 6.925781 C 14.238281 7.367188 14.242188 7.515625 14.148438 7.953125 C 14.015625 8.585938 13.304688 8.746094 12.90625 8.992188 C 12.308594 9.34375 11.835938 9.519531 11.476562 9.636719 C 10.023438 10.113281 9.117188 10.511719 8.300781 10.890625 C 7.640625 11.195312 7.058594 11.523438 6.335938 12.070312 C 5.015625 13.0625 4 14.007812 3.996094 15.296875 L 3.996094 15.300781 C 3.996094 15.304688 3.996094 15.304688 3.996094 15.304688 L 3.996094 15.308594 C 4 16.601562 5.015625 17.542969 6.335938 18.539062 C 7.058594 19.085938 7.640625 19.414062 8.300781 19.71875 C 9.117188 20.09375 10.023438 20.492188 11.476562 20.96875 C 11.835938 21.085938 12.308594 21.265625 12.90625 21.617188 C 13.425781 21.882812 14.078125 22.101562 14.152344 22.601562 C 14.191406 22.9375 14.203125 24.050781 14.203125 24.996094 C 14.203125 29.457031 14.085938 29.695312 11.710938 30.019531 C 8.910156 30.398438 8.46875 31.3125 10.851562 31.804688 C 12.667969 32.1875 21.359375 31.960938 22.179688 31.515625 C 22.804688 31.171875 22.828125 31.082031 22.429688 30.679688 C 22.183594 30.433594 21.332031 30.164062 20.539062 30.078125 C 19.675781 29.988281 18.835938 29.683594 18.429688 29.320312 C 17.808594 28.75 17.765625 28.464844 17.765625 25.074219 C 17.765625 23.953125 17.726562 23.195312 17.796875 22.640625 C 18.042969 22.046875 18.816406 21.78125 19.09375 21.617188 C 19.691406 21.265625 20.164062 21.085938 20.523438 20.96875 C 21.976562 20.492188 22.882812 20.09375 23.699219 19.71875 C 24.359375 19.414062 24.941406 19.085938 25.664062 18.539062 C 26.984375 17.546875 28 16.601562 28.003906 15.308594 L 28.003906 15.300781 C 28 14.007812 26.984375 13.066406 25.664062 12.070312 C 24.941406 11.527344 24.359375 11.195312 23.699219 10.890625 C 22.882812 10.515625 21 9.53125 19.546875 9.054688 C 18.476562 8.53125 18.242188 8.378906 18 7.8125 C 17.789062 7.320312 17.851562 7.007812 17.851562 6.613281 C 17.851562 2.15625 17.921875 2.304688 20.289062 1.984375 C 23.09375 1.601562 23.53125 0.6875 21.15625 0.195312 C 20.699219 0.101562 19.8125 0.0390625 18.734375 0.015625 C 18.328125 0.0078125 17.890625 0.0078125 17.441406 0 Z M 16 9.8125 C 19.289062 9.8125 21.953125 12.269531 21.953125 15.304688 C 21.953125 18.339844 19.289062 20.796875 16 20.796875 C 12.710938 20.796875 10.046875 18.339844 10.046875 15.304688 C 10.046875 12.269531 12.710938 9.8125 16 9.8125 Z M 16 9.8125 "/></g></svg>
