<svg width="64" height="64" viewBox="0 0 64 64" version="1.1"><defs><linearGradient id="linear-pattern-0" gradientUnits="userSpaceOnUse" x1="0" y1="0" x2="0" y2="1" gradientTransform="matrix(60, 0, 0, 56, 0, 4)"><stop offset="0" stop-color="#d00068" stop-opacity="1"/><stop offset="1" stop-color="#6e0037" stop-opacity="1"/></linearGradient></defs><path fill="url(#linear-pattern-0)" fill-opacity="1" d="M 36.21875 2.050781 L 62.027344 27.605469 C 64.402344 29.957031 64.417969 33.785156 62.058594 36.15625 L 36.460938 61.917969 C 34.105469 64.289062 30.269531 64.304688 27.894531 61.949219 L 2.085938 36.394531 C -0.289062 34.042969 -0.304688 30.214844 2.050781 27.84375 L 27.652344 2.082031 C 30.007812 -0.289062 33.84375 -0.304688 36.21875 2.050781 Z M 36.21875 2.050781 " /><g transform="matrix(1.0075098,0,0,1.0032698,16.221436,16.077397)"><path fill-rule="nonzero" fill="rgb(100%, 100%, 100%)" fill-opacity="1" d="M 0 1.601562 C 0.261719 4.488281 2.359375 5.15625 2.476562 8.238281 C 2.539062 9.539062 0.828125 12.53125 0.84375 14.265625 C 0.851562 15.085938 1.253906 15.855469 1.929688 16.332031 C 3.210938 17.234375 5.890625 17.601562 9.476562 17.601562 L 9.691406 17.601562 C 6.664062 17.601562 4.398438 18.398438 3.316406 19.121094 C 2.746094 19.5 2.410156 20.117188 2.402344 20.773438 C 2.535156 25.164062 3.148438 30.261719 8.179688 30.398438 C 12.09375 30.355469 13.875 26.234375 14.652344 22.414062 C 14.652344 22.414062 14.65625 22.414062 14.65625 22.417969 C 14.785156 22.625 14.953125 22.796875 15.160156 22.929688 C 15.203125 22.957031 15.238281 22.988281 15.28125 23.011719 C 15.34375 23.042969 15.40625 23.070312 15.472656 23.09375 C 15.636719 23.15625 15.8125 23.199219 16 23.199219 C 16.1875 23.199219 16.363281 23.15625 16.527344 23.09375 C 16.59375 23.070312 16.65625 23.042969 16.71875 23.011719 C 16.761719 22.988281 16.796875 22.957031 16.839844 22.929688 C 17.046875 22.796875 17.214844 22.625 17.34375 22.417969 C 17.34375 22.414062 17.347656 22.414062 17.347656 22.414062 C 18.125 26.234375 19.90625 30.351562 23.820312 30.398438 C 28.851562 30.261719 29.464844 25.164062 29.597656 20.773438 C 29.589844 20.117188 29.253906 19.5 28.683594 19.121094 C 27.601562 18.398438 25.335938 17.601562 22.308594 17.601562 L 22.523438 17.601562 C 26.109375 17.601562 28.789062 17.234375 30.070312 16.332031 C 30.746094 15.855469 31.148438 15.085938 31.15625 14.265625 C 31.171875 12.53125 29.460938 9.539062 29.523438 8.238281 C 29.640625 5.15625 31.738281 4.488281 32 1.601562 C 24.871094 1.601562 19.429688 10.382812 17.558594 15.078125 C 17.546875 15.054688 17.546875 15.039062 17.535156 15.015625 C 17.472656 14.859375 17.421875 14.71875 17.402344 14.589844 C 17.402344 14.585938 17.402344 14.585938 17.402344 14.585938 C 17.304688 13.90625 17.785156 13.574219 18.113281 13.023438 C 18.132812 12.992188 18.148438 12.972656 18.167969 12.941406 C 18.234375 12.820312 18.289062 12.683594 18.332031 12.53125 C 18.375 12.375 18.402344 12.195312 18.402344 11.996094 C 18.402344 11.335938 18.132812 10.738281 17.699219 10.304688 C 17.78125 9.351562 17.921875 8.335938 18.222656 7.402344 C 18.46875 6.632812 18.804688 5.960938 19.226562 5.503906 C 19.648438 5.046875 20.132812 4.789062 20.792969 4.796875 L 20.808594 4.003906 C 19.921875 3.992188 19.179688 4.375 18.636719 4.960938 C 18.09375 5.546875 17.726562 6.328125 17.460938 7.164062 C 17.1875 8.015625 17.023438 8.929688 16.925781 9.789062 C 16.640625 9.671875 16.328125 9.601562 16 9.601562 C 15.671875 9.601562 15.359375 9.664062 15.074219 9.785156 C 14.976562 8.929688 14.8125 8.015625 14.542969 7.164062 C 14.273438 6.328125 13.90625 5.546875 13.367188 4.960938 C 12.828125 4.375 12.085938 3.992188 11.199219 4.003906 L 11.210938 4.796875 C 11.867188 4.789062 12.351562 5.046875 12.777344 5.503906 C 13.203125 5.960938 13.535156 6.632812 13.78125 7.402344 C 14.078125 8.335938 14.21875 9.347656 14.304688 10.300781 C 14.304688 10.300781 14.304688 10.304688 14.304688 10.304688 C 14.085938 10.523438 13.910156 10.777344 13.789062 11.0625 C 13.789062 11.0625 13.789062 11.0625 13.789062 11.066406 C 13.667969 11.351562 13.597656 11.664062 13.597656 11.996094 C 13.597656 12.195312 13.625 12.375 13.667969 12.53125 C 13.710938 12.683594 13.765625 12.820312 13.832031 12.941406 C 13.851562 12.972656 13.867188 12.992188 13.886719 13.023438 C 14.214844 13.574219 14.695312 13.90625 14.597656 14.585938 C 14.597656 14.585938 14.597656 14.585938 14.597656 14.589844 C 14.578125 14.714844 14.527344 14.859375 14.464844 15.015625 C 14.453125 15.039062 14.453125 15.054688 14.441406 15.078125 C 12.570312 10.382812 7.128906 1.601562 0 1.601562 Z M 4 3.996094 C 4.210938 3.996094 4.417969 4.078125 4.570312 4.234375 C 4.71875 4.382812 4.804688 4.585938 4.800781 4.800781 C 4.800781 5.015625 4.71875 5.21875 4.566406 5.367188 C 4.414062 5.515625 4.210938 5.601562 4 5.601562 C 3.789062 5.601562 3.585938 5.515625 3.433594 5.367188 C 3.28125 5.21875 3.199219 5.015625 3.199219 4.800781 C 3.195312 4.585938 3.28125 4.382812 3.429688 4.234375 C 3.582031 4.078125 3.789062 3.996094 4 3.996094 Z M 28 3.996094 C 28.210938 3.996094 28.417969 4.078125 28.570312 4.234375 C 28.71875 4.382812 28.804688 4.585938 28.800781 4.800781 C 28.800781 5.015625 28.71875 5.21875 28.566406 5.367188 C 28.414062 5.515625 28.210938 5.601562 28 5.601562 C 27.789062 5.601562 27.585938 5.515625 27.433594 5.367188 C 27.28125 5.21875 27.199219 5.015625 27.199219 4.800781 C 27.195312 4.585938 27.28125 4.382812 27.429688 4.234375 C 27.582031 4.078125 27.789062 3.996094 28 3.996094 Z M 6.734375 7.699219 C 6.757812 7.699219 6.78125 7.699219 6.800781 7.699219 C 7.460938 7.699219 8 8.234375 8 8.898438 C 8 9.21875 7.875 9.523438 7.648438 9.75 C 7.425781 9.976562 7.117188 10.101562 6.800781 10.101562 C 6.480469 10.101562 6.175781 9.976562 5.949219 9.75 C 5.722656 9.523438 5.597656 9.21875 5.597656 8.898438 C 5.597656 8.257812 6.097656 7.734375 6.734375 7.699219 Z M 25.136719 7.699219 C 25.15625 7.699219 25.179688 7.699219 25.199219 7.699219 C 25.515625 7.699219 25.824219 7.824219 26.046875 8.046875 C 26.273438 8.273438 26.402344 8.578125 26.402344 8.898438 C 26.402344 9.21875 26.277344 9.523438 26.050781 9.75 C 25.824219 9.976562 25.519531 10.101562 25.199219 10.101562 C 24.882812 10.101562 24.574219 9.976562 24.351562 9.75 C 24.125 9.523438 24 9.21875 24 8.898438 C 24 8.257812 24.5 7.734375 25.136719 7.699219 Z M 4.800781 11.996094 C 5.226562 11.996094 5.632812 12.164062 5.9375 12.46875 C 6.234375 12.765625 6.40625 13.175781 6.402344 13.601562 C 6.398438 14.484375 5.683594 15.199219 4.800781 15.199219 C 3.917969 15.199219 3.203125 14.484375 3.199219 13.601562 C 3.195312 13.175781 3.367188 12.765625 3.664062 12.46875 C 3.96875 12.164062 4.375 11.996094 4.800781 11.996094 Z M 27.199219 11.996094 C 27.625 11.996094 28.03125 12.164062 28.335938 12.46875 C 28.632812 12.765625 28.804688 13.175781 28.800781 13.601562 C 28.796875 14.484375 28.082031 15.199219 27.199219 15.199219 C 26.316406 15.199219 25.601562 14.484375 25.597656 13.601562 C 25.59375 13.175781 25.765625 12.765625 26.0625 12.46875 C 26.367188 12.164062 26.773438 11.996094 27.199219 11.996094 Z M 5.914062 20.800781 C 5.945312 20.796875 5.96875 20.796875 6 20.800781 C 6.660156 20.800781 7.195312 21.335938 7.199219 21.996094 C 7.199219 22.3125 7.074219 22.621094 6.851562 22.84375 C 6.625 23.070312 6.320312 23.199219 6 23.199219 C 5.679688 23.199219 5.375 23.070312 5.148438 22.84375 C 4.925781 22.621094 4.800781 22.3125 4.800781 21.996094 C 4.800781 21.367188 5.289062 20.84375 5.914062 20.800781 Z M 25.914062 20.800781 C 25.945312 20.796875 25.96875 20.796875 26 20.800781 C 26.660156 20.800781 27.195312 21.335938 27.199219 21.996094 C 27.199219 22.3125 27.074219 22.621094 26.851562 22.84375 C 26.625 23.070312 26.320312 23.199219 26 23.199219 C 25.679688 23.199219 25.375 23.070312 25.148438 22.84375 C 24.925781 22.621094 24.800781 22.3125 24.800781 21.996094 C 24.800781 21.367188 25.289062 20.84375 25.914062 20.800781 Z M 8 25.601562 C 8.882812 25.601562 9.59375 26.320312 9.597656 27.199219 C 9.597656 28.082031 8.882812 28.796875 8 28.800781 C 7.117188 28.796875 6.402344 28.082031 6.402344 27.199219 C 6.40625 26.320312 7.117188 25.601562 8 25.601562 Z M 24 25.601562 C 24.882812 25.601562 25.59375 26.320312 25.597656 27.199219 C 25.597656 28.082031 24.882812 28.796875 24 28.800781 C 23.117188 28.796875 22.402344 28.082031 22.402344 27.199219 C 22.40625 26.320312 23.117188 25.601562 24 25.601562 Z M 24 25.601562 "/></g></svg>
