<svg width="64" height="64" viewBox="0 0 64 64" version="1.1"><defs><linearGradient id="linear-pattern-0" gradientUnits="userSpaceOnUse" x1="0" y1="0" x2="0" y2="1" gradientTransform="matrix(60, 0, 0, 56, 0, 4)"><stop offset="0" stop-color="#8900e4" stop-opacity="1"/><stop offset="1" stop-color="#42006e" stop-opacity="1"/></linearGradient></defs><path fill="url(#linear-pattern-0)" fill-opacity="1" d="M 36.21875 2.050781 L 62.027344 27.605469 C 64.402344 29.957031 64.417969 33.785156 62.058594 36.15625 L 36.460938 61.917969 C 34.105469 64.289062 30.269531 64.304688 27.894531 61.949219 L 2.085938 36.394531 C -0.289062 34.042969 -0.304688 30.214844 2.050781 27.84375 L 27.652344 2.082031 C 30.007812 -0.289062 33.84375 -0.304688 36.21875 2.050781 Z M 36.21875 2.050781 " /><g transform="matrix(1.0075098,0,0,1.0032698,16.221436,16.077397)"><path fill-rule="evenodd" fill="rgb(100%, 100%, 100%)" fill-opacity="1" d="M 17.078125 4.609375 C 16.582031 5.585938 16.335938 6.1875 16.214844 6.546875 C 16.164062 6.710938 16.140625 6.894531 16.117188 6.894531 C 16.105469 6.894531 16.085938 6.71875 16.03125 6.5625 C 15.90625 6.195312 15.664062 5.601562 15.164062 4.625 L 14.875 4.785156 C 15.367188 5.75 15.601562 6.332031 15.71875 6.667969 C 15.765625 6.820312 15.832031 6.925781 15.796875 6.96875 C 15.765625 7.011719 15.695312 6.976562 15.546875 7.109375 C 15.40625 7.238281 15.238281 7.546875 15.195312 7.925781 C 14.390625 7.914062 14.125 7.894531 14.117188 7.894531 C 14.035156 7.8125 13.941406 7.71875 13.78125 7.585938 C 13.585938 7.421875 13.335938 7.242188 13.085938 7.066406 C 12.828125 6.890625 12.570312 6.71875 12.335938 6.601562 C 12.097656 6.484375 11.765625 6.4375 11.679688 6.464844 C 11.589844 6.492188 11.691406 6.460938 11.667969 6.464844 C 11.648438 6.464844 11.628906 6.460938 11.5625 6.464844 C 11.5 6.464844 11.351562 6.460938 11.199219 6.464844 C 10.898438 6.46875 10.476562 6.476562 9.972656 6.496094 C 8.96875 6.535156 7.648438 6.640625 6.320312 6.882812 C 4.992188 7.128906 3.652344 7.507812 2.605469 8.152344 C 1.5625 8.796875 0.796875 9.71875 0.679688 10.960938 C 0.679688 10.964844 0.679688 10.96875 0.679688 10.976562 C 0.679688 10.984375 0.679688 11 0.679688 11.039062 C 0.6875 11.078125 0.699219 11.132812 0.722656 11.203125 C 0.765625 11.328125 0.859375 11.507812 1.046875 11.707031 C 1.421875 12.109375 2.164062 12.636719 3.695312 13.242188 C 3.695312 13.242188 3.972656 13.367188 4.195312 13.546875 C 4.308594 13.640625 4.40625 13.75 4.445312 13.835938 C 4.492188 13.925781 4.5 13.976562 4.445312 14.0625 L 4.445312 14.074219 C 4.445312 14.074219 4.410156 14.132812 4.398438 14.214844 C 4.382812 14.292969 4.375 14.398438 4.40625 14.539062 C 4.460938 14.808594 4.648438 15.164062 5.121094 15.601562 C 5.121094 15.601562 5.15625 15.632812 5.164062 15.632812 C 5.171875 15.640625 5.179688 15.648438 5.1875 15.648438 C 5.195312 15.648438 5.203125 15.648438 5.203125 15.648438 C 5.21875 15.648438 5.21875 15.65625 5.226562 15.65625 C 5.238281 15.660156 5.242188 15.65625 5.257812 15.65625 C 5.285156 15.660156 5.332031 15.664062 5.375 15.667969 C 5.457031 15.679688 5.570312 15.691406 5.6875 15.722656 C 5.914062 15.78125 6.148438 15.914062 6.246094 16.097656 C 6.296875 16.199219 6.378906 16.222656 6.457031 16.25 C 6.53125 16.273438 6.613281 16.289062 6.703125 16.300781 C 6.890625 16.328125 7.113281 16.34375 7.328125 16.347656 C 7.546875 16.351562 7.753906 16.347656 7.902344 16.359375 C 7.953125 16.359375 7.984375 16.363281 8.015625 16.367188 C 8.023438 16.429688 8.035156 16.550781 8.035156 16.753906 C 8.035156 16.882812 8.03125 17.015625 8.003906 17.109375 C 7.984375 17.207031 7.953125 17.257812 7.929688 17.273438 L 7.914062 17.28125 L 7.902344 17.296875 C 7.902344 17.296875 7.683594 17.523438 7.601562 17.921875 C 7.515625 18.308594 7.585938 18.875 8.085938 19.480469 C 8.585938 20.074219 9.5 20.851562 10.292969 21.578125 C 10.695312 21.9375 11.0625 22.289062 11.328125 22.578125 C 11.453125 22.722656 11.558594 22.851562 11.628906 22.953125 C 11.695312 23.0625 11.71875 23.144531 11.71875 23.164062 C 11.71875 23.179688 11.589844 24.320312 11.523438 25.5 C 11.488281 26.09375 11.472656 26.6875 11.5 27.15625 C 11.515625 27.390625 11.539062 27.59375 11.585938 27.757812 C 11.609375 27.84375 11.636719 27.910156 11.679688 27.976562 C 11.71875 28.039062 11.78125 28.101562 11.867188 28.125 C 12.242188 28.226562 12.640625 28.019531 12.957031 27.757812 C 13.273438 27.496094 13.523438 27.179688 13.539062 26.84375 C 13.566406 26.3125 13.226562 25.898438 13.1875 25.851562 C 13.175781 25.816406 13.125 25.589844 13.09375 25.304688 C 13.074219 25.148438 13.0625 24.992188 13.070312 24.859375 C 13.085938 24.730469 13.128906 24.632812 13.15625 24.601562 C 13.195312 24.5625 13.25 24.550781 13.351562 24.550781 C 13.453125 24.554688 13.59375 24.570312 13.738281 24.601562 C 13.882812 24.636719 14.042969 24.6875 14.195312 24.699219 C 14.351562 24.714844 14.511719 24.695312 14.65625 24.601562 C 14.960938 24.40625 15.273438 23.96875 15.570312 23.570312 C 15.71875 23.375 15.773438 23.242188 15.976562 23.0625 C 16.171875 22.886719 16.382812 23.179688 16.671875 23.546875 C 16.96875 23.945312 17.28125 24.394531 17.589844 24.59375 C 17.730469 24.6875 17.890625 24.695312 18.046875 24.679688 C 18.203125 24.664062 18.359375 24.625 18.503906 24.59375 C 18.648438 24.558594 18.785156 24.53125 18.890625 24.527344 C 18.992188 24.527344 19.046875 24.554688 19.085938 24.59375 C 19.117188 24.625 19.148438 24.710938 19.15625 24.84375 C 19.171875 24.96875 19.167969 25.140625 19.148438 25.292969 C 19.117188 25.589844 19.050781 25.835938 19.046875 25.851562 C 18.992188 25.914062 18.675781 26.3125 18.703125 26.832031 C 18.71875 27.171875 18.96875 27.484375 19.28125 27.75 C 19.601562 28.007812 19.992188 28.214844 20.367188 28.113281 C 20.453125 28.089844 20.523438 28.027344 20.5625 27.960938 C 20.609375 27.898438 20.632812 27.820312 20.65625 27.734375 C 20.703125 27.570312 20.726562 27.382812 20.742188 27.148438 C 20.773438 26.671875 20.753906 26.070312 20.71875 25.476562 C 20.65625 24.300781 20.515625 23.171875 20.511719 23.148438 C 20.511719 23.132812 20.539062 23.050781 20.609375 22.945312 C 20.671875 22.839844 20.773438 22.710938 20.90625 22.570312 C 21.171875 22.28125 21.539062 21.929688 21.9375 21.566406 C 22.734375 20.84375 23.65625 20.050781 24.152344 19.457031 C 24.65625 18.851562 24.726562 18.296875 24.640625 17.90625 C 24.5625 17.515625 24.339844 17.28125 24.339844 17.28125 L 24.320312 17.273438 L 24.3125 17.257812 C 24.289062 17.25 24.25 17.195312 24.226562 17.101562 C 24.203125 17 24.195312 16.867188 24.195312 16.746094 C 24.195312 16.546875 24.21875 16.421875 24.226562 16.359375 C 24.257812 16.351562 24.289062 16.351562 24.339844 16.347656 C 24.492188 16.335938 24.699219 16.34375 24.914062 16.335938 C 25.128906 16.328125 25.351562 16.316406 25.539062 16.292969 C 25.632812 16.28125 25.710938 16.265625 25.789062 16.242188 C 25.859375 16.210938 25.945312 16.179688 25.996094 16.078125 C 26.09375 15.890625 26.324219 15.773438 26.554688 15.710938 C 26.671875 15.679688 26.785156 15.667969 26.871094 15.65625 C 26.910156 15.648438 26.945312 15.648438 26.976562 15.648438 C 26.984375 15.648438 27 15.636719 27.015625 15.632812 C 27.019531 15.632812 27.023438 15.636719 27.035156 15.632812 C 27.039062 15.632812 27.046875 15.628906 27.054688 15.625 C 27.0625 15.625 27.070312 15.617188 27.078125 15.617188 C 27.085938 15.609375 27.117188 15.59375 27.117188 15.59375 C 27.597656 15.15625 27.78125 14.796875 27.835938 14.523438 C 27.867188 14.390625 27.851562 14.273438 27.835938 14.191406 C 27.820312 14.113281 27.796875 14.054688 27.796875 14.054688 C 27.742188 13.960938 27.75 13.90625 27.796875 13.816406 C 27.839844 13.726562 27.929688 13.625 28.046875 13.535156 C 28.265625 13.359375 28.523438 13.238281 28.53125 13.234375 C 28.53125 13.234375 28.542969 13.226562 28.542969 13.226562 C 30.066406 12.617188 30.828125 12.085938 31.195312 11.683594 C 31.382812 11.484375 31.476562 11.316406 31.523438 11.1875 C 31.542969 11.125 31.546875 11.070312 31.550781 11.027344 C 31.554688 10.992188 31.550781 10.960938 31.550781 10.953125 L 31.550781 10.9375 C 31.4375 9.695312 30.679688 8.78125 29.636719 8.140625 C 28.589844 7.5 27.25 7.105469 25.921875 6.859375 C 24.59375 6.617188 23.273438 6.523438 22.269531 6.484375 C 21.765625 6.464844 21.347656 6.453125 21.039062 6.453125 C 20.890625 6.449219 20.742188 6.453125 20.679688 6.453125 C 20.609375 6.449219 20.59375 6.441406 20.574219 6.441406 C 20.550781 6.4375 20.652344 6.46875 20.5625 6.441406 C 20.476562 6.414062 20.148438 6.476562 19.90625 6.59375 C 19.667969 6.707031 19.402344 6.875 19.148438 7.054688 C 18.894531 7.234375 18.65625 7.414062 18.460938 7.570312 C 18.304688 7.703125 18.21875 7.789062 18.140625 7.875 C 18.128906 7.875 17.851562 7.890625 17.035156 7.90625 C 16.996094 7.523438 16.835938 7.226562 16.695312 7.097656 C 16.546875 6.96875 16.5 7.015625 16.46875 6.972656 C 16.4375 6.929688 16.476562 6.8125 16.523438 6.65625 C 16.640625 6.320312 16.875 5.742188 17.367188 4.773438 "/></g></svg>
