<svg width="64" height="64" viewBox="0 0 64 64" version="1.1"><defs><linearGradient id="linear-pattern-0" gradientUnits="userSpaceOnUse" x1="0" y1="0" x2="0" y2="1" gradientTransform="matrix(60, 0, 0, 56, 0, 4)"><stop offset="0" stop-color="#c10000" stop-opacity="1"/><stop offset="1" stop-color="#5f0000" stop-opacity="1"/></linearGradient></defs><path fill="url(#linear-pattern-0)" fill-opacity="1" d="M 36.21875 2.050781 L 62.027344 27.605469 C 64.402344 29.957031 64.417969 33.785156 62.058594 36.15625 L 36.460938 61.917969 C 34.105469 64.289062 30.269531 64.304688 27.894531 61.949219 L 2.085938 36.394531 C -0.289062 34.042969 -0.304688 30.214844 2.050781 27.84375 L 27.652344 2.082031 C 30.007812 -0.289062 33.84375 -0.304688 36.21875 2.050781 Z M 36.21875 2.050781 " /><g transform="matrix(1.0075098,0,0,1.0032698,16.221436,16.077397)"><path fill-rule="nonzero" fill="rgb(100%, 100%, 100%)" fill-opacity="1" d="M 18.386719 4.789062 C 17.921875 4.875 17.40625 5.085938 16.828125 5.390625 C 15.6875 6.007812 14.328125 7.09375 12.859375 8.765625 C 12.554688 9.113281 12.429688 9.414062 12.265625 9.542969 C 12.101562 9.671875 11.890625 9.773438 11.171875 9.554688 C 9.679688 9.101562 7.984375 9.765625 6.980469 10.738281 C 6.476562 11.226562 6.105469 11.851562 6.222656 12.550781 C 6.339844 13.25 6.945312 13.78125 7.894531 14.089844 L 7.90625 14.09375 L 7.925781 14.097656 C 8.570312 14.265625 8.890625 14.484375 8.949219 14.5625 C 8.976562 14.601562 8.957031 14.570312 8.949219 14.554688 C 8.949219 14.539062 8.953125 14.554688 8.910156 14.613281 C 8.734375 14.839844 7.835938 15.300781 6.914062 15.390625 C 5.304688 15.554688 3.679688 15.957031 2.476562 16.554688 C 1.875 16.855469 1.375 17.199219 1.039062 17.648438 C 0.699219 18.09375 0.554688 18.726562 0.78125 19.289062 C 0.960938 19.742188 1.355469 20.046875 1.773438 20.164062 C 2.1875 20.289062 2.640625 20.277344 3.117188 20.199219 C 4.0625 20.046875 5.121094 19.605469 6.066406 19.074219 L 6.058594 19.078125 C 9.726562 17.117188 13.585938 18.164062 17.613281 18.832031 L 17.617188 18.832031 C 23.695312 19.835938 25.285156 22.175781 27.992188 25.132812 C 28.382812 25.558594 28.742188 25.835938 29.128906 25.96875 C 29.515625 26.101562 29.929688 26.046875 30.234375 25.851562 C 30.84375 25.453125 31.066406 24.75 31.25 24.09375 C 31.515625 23.164062 31.257812 22.242188 30.757812 21.445312 C 30.25 20.652344 29.5 19.945312 28.648438 19.289062 C 26.960938 17.984375 24.875 16.910156 23.621094 16.203125 C 23.03125 15.875 22.789062 15.492188 22.765625 15.140625 C 22.742188 14.785156 22.9375 14.3125 23.609375 13.78125 C 24.171875 13.339844 24.488281 12.8125 24.507812 12.277344 C 24.523438 11.742188 24.242188 11.285156 23.882812 11.003906 C 23.523438 10.71875 23.070312 10.574219 22.605469 10.621094 C 22.140625 10.667969 21.652344 10.949219 21.378906 11.460938 L 21.375 11.460938 C 21.199219 11.796875 20.992188 12.046875 20.835938 12.113281 C 20.683594 12.179688 20.484375 12.210938 19.980469 11.789062 C 19.332031 11.257812 18.089844 10.859375 15.984375 11.195312 C 15.804688 11.226562 15.714844 11.210938 15.585938 11.21875 C 15.777344 11.03125 16.039062 10.804688 16.480469 10.5 C 18.1875 9.328125 19.25 8.257812 19.789062 7.332031 C 20.0625 6.875 20.21875 6.445312 20.214844 6.011719 C 20.210938 5.585938 19.96875 5.15625 19.609375 4.953125 C 19.25 4.75 18.835938 4.710938 18.375 4.792969 Z M 19.148438 5.875 C 19.21875 5.914062 19.21875 5.898438 19.21875 6.03125 C 19.222656 6.15625 19.15625 6.429688 18.945312 6.78125 C 18.527344 7.492188 17.570312 8.503906 15.9375 9.621094 C 15.386719 10 15 10.3125 14.734375 10.601562 C 14.464844 10.890625 14.230469 11.171875 14.320312 11.625 C 14.359375 11.847656 14.523438 12.035156 14.679688 12.125 C 14.828125 12.21875 14.976562 12.253906 15.125 12.273438 C 15.429688 12.320312 15.765625 12.292969 16.148438 12.226562 C 18.074219 11.921875 19.035156 12.335938 19.367188 12.609375 C 20.03125 13.160156 20.710938 13.308594 21.242188 13.078125 C 21.773438 12.84375 22.054688 12.367188 22.265625 11.96875 C 22.382812 11.746094 22.523438 11.679688 22.710938 11.664062 C 22.898438 11.644531 23.132812 11.714844 23.289062 11.835938 C 23.445312 11.960938 23.515625 12.09375 23.507812 12.238281 C 23.503906 12.382812 23.421875 12.625 23.015625 12.945312 C 22.179688 13.605469 21.722656 14.398438 21.773438 15.203125 C 21.820312 16.011719 22.367188 16.6875 23.152344 17.125 C 24.4375 17.851562 26.476562 18.90625 28.0625 20.132812 C 28.855469 20.742188 29.523438 21.398438 29.925781 22.023438 C 30.328125 22.65625 30.460938 23.214844 30.296875 23.796875 C 30.132812 24.375 29.867188 24.859375 29.710938 24.964844 C 29.632812 25.015625 29.605469 25.03125 29.457031 24.980469 C 29.308594 24.929688 29.054688 24.765625 28.730469 24.410156 C 26.066406 21.5 24.078125 18.84375 17.785156 17.804688 L 17.78125 17.804688 C 13.820312 17.144531 9.65625 15.984375 5.609375 18.152344 L 5.601562 18.15625 C 4.730469 18.644531 3.738281 19.039062 2.96875 19.164062 C 2.585938 19.230469 2.261719 19.21875 2.054688 19.160156 C 1.851562 19.101562 1.777344 19.039062 1.71875 18.882812 C 1.625 18.664062 1.652344 18.542969 1.835938 18.296875 C 2.023438 18.054688 2.40625 17.761719 2.925781 17.5 C 3.960938 16.984375 5.515625 16.589844 7.023438 16.4375 C 8.136719 16.324219 9.160156 15.976562 9.703125 15.273438 C 9.84375 15.097656 9.953125 14.875 9.964844 14.617188 C 9.976562 14.359375 9.878906 14.09375 9.722656 13.890625 C 9.40625 13.5 8.90625 13.273438 8.164062 13.085938 L 8.195312 13.09375 C 7.429688 12.84375 7.242188 12.558594 7.210938 12.375 C 7.179688 12.1875 7.304688 11.859375 7.664062 11.507812 C 8.390625 10.804688 9.898438 10.261719 10.886719 10.5625 C 11.78125 10.835938 12.453125 10.71875 12.875 10.378906 C 13.304688 10.039062 13.476562 9.625 13.601562 9.476562 C 15.007812 7.875 16.296875 6.867188 17.296875 6.324219 C 18.296875 5.785156 19.003906 5.796875 19.148438 5.875 Z M 19.148438 5.875 "/></g></svg>
