<svg width="64" height="64" viewBox="0 0 64 64" version="1.1"><defs><linearGradient id="linear-pattern-0" gradientUnits="userSpaceOnUse" x1="0" y1="0" x2="0" y2="1" gradientTransform="matrix(60, 0, 0, 56, 0, 4)"><stop offset="0" stop-color="#aaaa00" stop-opacity="1"/><stop offset="1" stop-color="#5c5c00" stop-opacity="1"/></linearGradient></defs><path fill="url(#linear-pattern-0)" fill-opacity="1" d="M 36.21875 2.050781 L 62.027344 27.605469 C 64.402344 29.957031 64.417969 33.785156 62.058594 36.15625 L 36.460938 61.917969 C 34.105469 64.289062 30.269531 64.304688 27.894531 61.949219 L 2.085938 36.394531 C -0.289062 34.042969 -0.304688 30.214844 2.050781 27.84375 L 27.652344 2.082031 C 30.007812 -0.289062 33.84375 -0.304688 36.21875 2.050781 Z M 36.21875 2.050781 " /><g transform="matrix(1.0075098,0,0,1.0032698,16.221436,16.077397)"><path fill-rule="nonzero" fill="rgb(100%, 100%, 100%)" fill-opacity="1" d="M 31.8125 11.917969 C 30.6875 7.816406 25.085938 7.351562 23.054688 7.328125 C 22.453125 5.675781 20.210938 0.421875 16.023438 0.421875 C 11.859375 0.421875 9.617188 5.617188 9 7.296875 C 8.835938 7.296875 8.675781 7.289062 8.515625 7.289062 C 6.421875 7.289062 1.429688 7.742188 0.238281 11.910156 C -1.039062 16.367188 3.179688 19.734375 4.621094 20.734375 C 4.109375 22.398438 2.859375 27.59375 6.234375 30.40625 C 7.164062 31.183594 8.28125 31.578125 9.558594 31.578125 C 12.308594 31.578125 15.050781 29.738281 16.058594 28.984375 C 17.117188 29.652344 19.992188 31.277344 22.761719 31.277344 C 23.898438 31.277344 24.90625 31 25.746094 30.453125 C 29.171875 28.234375 27.875 22.429688 27.398438 20.71875 C 28.746094 19.671875 32.933594 16.027344 31.8125 11.917969 Z M 16.492188 16.644531 C 16.492188 16.644531 20.496094 19.519531 19.054688 20.683594 C 17.605469 21.847656 16 17.003906 16 17.003906 C 16 17.003906 14.257812 21.8125 12.945312 20.683594 C 11.636719 19.554688 15.507812 16.644531 15.507812 16.644531 C 15.507812 16.644531 10.414062 16.609375 11.0625 14.882812 C 11.710938 13.148438 15.695312 16.0625 15.695312 16.0625 C 15.695312 16.0625 14.171875 11.292969 16 11.292969 C 17.828125 11.292969 16.304688 16.0625 16.304688 16.0625 C 16.304688 16.0625 20.261719 13.152344 20.9375 14.882812 C 21.613281 16.605469 16.492188 16.644531 16.492188 16.644531 Z M 16.492188 16.644531 "/></g></svg>
