<svg width="64" height="64" viewBox="0 0 64 64" version="1.1"><defs><linearGradient id="linear-pattern-0" gradientUnits="userSpaceOnUse" x1="0" y1="0" x2="0" y2="1" gradientTransform="matrix(60, 0, 0, 56, 0, 4)"><stop offset="0" stop-color="#00983a" stop-opacity="1"/><stop offset="1" stop-color="#004a1c" stop-opacity="1"/></linearGradient></defs><path fill="url(#linear-pattern-0)" fill-opacity="1" d="M 36.21875 2.050781 L 62.027344 27.605469 C 64.402344 29.957031 64.417969 33.785156 62.058594 36.15625 L 36.460938 61.917969 C 34.105469 64.289062 30.269531 64.304688 27.894531 61.949219 L 2.085938 36.394531 C -0.289062 34.042969 -0.304688 30.214844 2.050781 27.84375 L 27.652344 2.082031 C 30.007812 -0.289062 33.84375 -0.304688 36.21875 2.050781 Z M 36.21875 2.050781 " /><g transform="matrix(1.0075098,0,0,1.0032698,16.221436,16.077397)"><path fill-rule="nonzero" fill="rgb(100%, 100%, 100%)" fill-opacity="1" d="M 23.5 0 C 21.359375 0 19.242188 0.839844 17.5625 2.519531 C 15.882812 4.199219 15.046875 6.382812 15.046875 8.398438 L 23.601562 16.953125 C 25.785156 16.953125 27.972656 16.117188 29.480469 14.4375 C 32.839844 11.078125 32.839844 5.878906 29.480469 2.519531 C 27.800781 0.839844 25.632812 0 23.496094 0 Z M 13.523438 11.078125 C 13.523438 11.078125 0.257812 27.347656 0.0859375 27.347656 C -0.25 27.683594 0.421875 29.0625 1.765625 30.234375 C 3.109375 31.578125 4.265625 32.25 4.601562 31.914062 L 20.921875 18.476562 Z M 13.523438 11.078125 "/></g></svg>
