<svg width="64" height="64" viewBox="0 0 64 64" version="1.1"><defs><linearGradient id="linear-pattern-0" gradientUnits="userSpaceOnUse" x1="0" y1="0" x2="0" y2="1" gradientTransform="matrix(60, 0, 0, 56, 0, 4)"><stop offset="0" stop-color="#8900e4" stop-opacity="1"/><stop offset="1" stop-color="#42006e" stop-opacity="1"/></linearGradient></defs><path fill="url(#linear-pattern-0)" fill-opacity="1" d="M 36.21875 2.050781 L 62.027344 27.605469 C 64.402344 29.957031 64.417969 33.785156 62.058594 36.15625 L 36.460938 61.917969 C 34.105469 64.289062 30.269531 64.304688 27.894531 61.949219 L 2.085938 36.394531 C -0.289062 34.042969 -0.304688 30.214844 2.050781 27.84375 L 27.652344 2.082031 C 30.007812 -0.289062 33.84375 -0.304688 36.21875 2.050781 Z M 36.21875 2.050781 " /><g transform="matrix(1.0075098,0,0,1.0032698,16.221436,16.077397)"><path fill-rule="nonzero" fill="rgb(100%, 100%, 100%)" fill-opacity="1" d="M 5.539062 1.035156 L 26.492188 1.035156 C 27.246094 1.035156 27.859375 1.8125 27.859375 2.765625 L 27.859375 29.34375 C 27.859375 30.304688 27.246094 31.078125 26.492188 31.078125 L 5.539062 31.078125 C 4.785156 31.078125 4.171875 30.304688 4.171875 29.34375 L 4.171875 2.765625 C 4.171875 1.8125 4.785156 1.035156 5.539062 1.035156 Z M 5.539062 1.035156 "/><path fill-rule="nonzero" fill="rgb(68.235294%, 70.196078%, 76.078431%)" fill-opacity="1" d="M 7.757812 6.789062 L 7.757812 9.101562 L 19.601562 9.101562 L 19.601562 6.789062 Z M 7.757812 11.414062 L 7.757812 13.722656 L 23.246094 13.722656 L 23.246094 11.414062 Z M 9.582031 16.035156 L 9.582031 18.347656 L 17.78125 18.347656 L 17.78125 16.035156 Z M 20.515625 16.035156 L 20.515625 18.347656 L 25.066406 18.347656 L 25.066406 16.035156 Z M 7.757812 22.96875 L 7.757812 25.28125 L 21.421875 25.28125 L 21.421875 22.96875 Z M 7.757812 22.96875 "/></g></svg>
