<svg width="64" height="64" viewBox="0 0 64 64" version="1.1"><defs><linearGradient id="linear-pattern-0" gradientUnits="userSpaceOnUse" x1="0" y1="0" x2="0" y2="1" gradientTransform="matrix(60, 0, 0, 56, 0, 4)"><stop offset="0" stop-color="#7795ab" stop-opacity="1"/><stop offset="1" stop-color="#3b4f5f" stop-opacity="1"/></linearGradient></defs><path fill="url(#linear-pattern-0)" fill-opacity="1" d="M 36.21875 2.050781 L 62.027344 27.605469 C 64.402344 29.957031 64.417969 33.785156 62.058594 36.15625 L 36.460938 61.917969 C 34.105469 64.289062 30.269531 64.304688 27.894531 61.949219 L 2.085938 36.394531 C -0.289062 34.042969 -0.304688 30.214844 2.050781 27.84375 L 27.652344 2.082031 C 30.007812 -0.289062 33.84375 -0.304688 36.21875 2.050781 Z M 36.21875 2.050781 " /><g transform="matrix(1.0075098,0,0,1.0032698,16.221436,16.077397)"><path fill-rule="nonzero" fill="rgb(100%, 100%, 100%)" fill-opacity="1" d="M 20.445312 1.054688 C 16 1.054688 12.445312 4.609375 12.445312 9.054688 C 12.445312 19.015625 7.644531 22.03125 0 20.609375 C 0 20.609375 4.382812 26.890625 13.277344 27.664062 C 12.773438 28.25 12.554688 28.832031 12.554688 28.832031 L 15.890625 30.164062 C 15.890625 30.164062 15.820312 30.195312 16.054688 30 C 16.292969 29.804688 16.730469 29.5 17.777344 29.5 C 19.882812 29.5 22.054688 30.945312 22.054688 30.945312 L 24.167969 28.054688 C 24.167969 28.054688 22.695312 27 20.554688 26.390625 C 25.03125 23.96875 28.039062 18.359375 28.390625 10.554688 L 32 8.164062 L 27.890625 6.222656 C 26.742188 3.207031 23.875 1.054688 20.445312 1.054688 Z M 23.109375 6.390625 C 24.179688 6.390625 24.890625 7.09375 24.890625 8.164062 C 24.890625 9.234375 24.179688 9.945312 23.109375 9.945312 C 22.039062 9.945312 21.335938 9.234375 21.335938 8.164062 C 21.335938 7.09375 22.039062 6.390625 23.109375 6.390625 Z M 23.109375 6.390625 "/></g></svg>
