<svg width="64" height="64" viewBox="0 0 64 64" version="1.1"><defs><linearGradient id="linear-pattern-0" gradientUnits="userSpaceOnUse" x1="0" y1="0" x2="0" y2="1" gradientTransform="matrix(60, 0, 0, 56, 0, 4)"><stop offset="0" stop-color="#0288cf" stop-opacity="1"/><stop offset="1" stop-color="#01486e" stop-opacity="1"/></linearGradient></defs><path fill="url(#linear-pattern-0)" fill-opacity="1" d="M 36.21875 2.050781 L 62.027344 27.605469 C 64.402344 29.957031 64.417969 33.785156 62.058594 36.15625 L 36.460938 61.917969 C 34.105469 64.289062 30.269531 64.304688 27.894531 61.949219 L 2.085938 36.394531 C -0.289062 34.042969 -0.304688 30.214844 2.050781 27.84375 L 27.652344 2.082031 C 30.007812 -0.289062 33.84375 -0.304688 36.21875 2.050781 Z M 36.21875 2.050781 " /><g transform="matrix(1.0075098,0,0,1.0032698,16.221436,16.077397)"><path fill-rule="nonzero" fill="rgb(100%, 100%, 100%)" fill-opacity="1" d="M 12.132812 1.503906 C 15.960938 2.640625 15.960938 9.445312 12.132812 10.578125 C 8.296875 9.445312 8.296875 2.640625 12.132812 1.503906 Z M 12.132812 1.503906 "/><path fill-rule="nonzero" fill="rgb(100%, 100%, 100%)" fill-opacity="1" d="M 15.007812 15.6875 L 17.304688 15.6875 L 17.304688 28.734375 L 20.753906 31 L 11.554688 31 L 15.007812 28.734375 Z M 15.007812 15.6875 "/><path fill-rule="nonzero" fill="rgb(100%, 100%, 100%)" fill-opacity="1" d="M 20.179688 1.503906 C 24.011719 2.640625 24.011719 9.445312 20.179688 10.578125 C 16.347656 9.445312 16.347656 2.640625 20.179688 1.503906 Z M 20.179688 1.503906 "/><path fill-rule="nonzero" fill="rgb(100%, 100%, 100%)" fill-opacity="1" d="M 30.703125 7.570312 C 32.484375 10.828125 27.90625 15.347656 24.601562 13.59375 C 22.820312 10.328125 27.398438 5.8125 30.703125 7.570312 Z M 30.703125 7.570312 "/><path fill-rule="nonzero" fill="rgb(100%, 100%, 100%)" fill-opacity="1" d="M 1.609375 7.570312 C -0.171875 10.828125 4.40625 15.347656 7.710938 13.59375 C 9.492188 10.328125 4.914062 5.8125 1.609375 7.570312 Z M 1.609375 7.570312 "/><path fill-rule="nonzero" fill="rgb(100%, 100%, 100%)" fill-opacity="1" d="M 11.554688 8.3125 L 11.554688 11.976562 L 16.15625 17 L 20.753906 11.976562 L 20.753906 8.3125 L 19.605469 8.3125 L 19.605469 11.453125 L 16.15625 15.507812 L 12.707031 11.453125 L 12.707031 8.3125 M 7.304688 12.394531 L 6.609375 13.304688 L 11.679688 17.054688 L 7.96875 17.972656 L 8.246094 19.070312 L 12.84375 17.9375 L 12.835938 17.914062 L 16.15625 20.367188 L 19.472656 17.914062 L 19.464844 17.9375 L 24.0625 19.070312 L 24.34375 17.972656 L 20.628906 17.054688 L 25.699219 13.304688 L 25.007812 12.394531 L 16.15625 18.945312 "/><path fill-rule="nonzero" fill="rgb(100%, 100%, 100%)" fill-opacity="1" d="M 1.210938 20.21875 C 1.316406 16.421875 7.351562 14.726562 9.257812 17.960938 C 9.148438 21.757812 3.113281 23.453125 1.210938 20.21875 Z M 1.210938 20.21875 "/><path fill-rule="nonzero" fill="rgb(100%, 100%, 100%)" fill-opacity="1" d="M 31.101562 20.21875 C 30.996094 16.421875 24.960938 14.726562 23.054688 17.960938 C 23.160156 21.757812 29.195312 23.453125 31.101562 20.21875 Z M 31.101562 20.21875 "/></g></svg>
