<svg width="64" height="64" viewBox="0 0 64 64" version="1.1"><defs><linearGradient id="linear-pattern-0" gradientUnits="userSpaceOnUse" x1="0" y1="0" x2="0" y2="1" gradientTransform="matrix(60, 0, 0, 56, 0, 4)"><stop offset="0" stop-color="#aaaa00" stop-opacity="1"/><stop offset="1" stop-color="#5c5c00" stop-opacity="1"/></linearGradient></defs><path fill="url(#linear-pattern-0)" fill-opacity="1" d="M 36.21875 2.050781 L 62.027344 27.605469 C 64.402344 29.957031 64.417969 33.785156 62.058594 36.15625 L 36.460938 61.917969 C 34.105469 64.289062 30.269531 64.304688 27.894531 61.949219 L 2.085938 36.394531 C -0.289062 34.042969 -0.304688 30.214844 2.050781 27.84375 L 27.652344 2.082031 C 30.007812 -0.289062 33.84375 -0.304688 36.21875 2.050781 Z M 36.21875 2.050781 " /><g transform="matrix(1.0075098,0,0,1.0032698,16.221436,16.077397)"><path fill-rule="nonzero" fill="rgb(100%, 100%, 100%)" fill-opacity="1" d="M 13.539062 0.882812 C 13.34375 0.875 13.144531 0.882812 12.953125 0.914062 C 12.570312 0.96875 12.195312 1.09375 11.859375 1.296875 C 11.183594 1.707031 10.703125 2.417969 10.527344 3.226562 C 10.523438 3.226562 10.523438 3.230469 10.523438 3.234375 L 9.21875 9.460938 C 9.21875 9.46875 9.214844 9.476562 9.210938 9.488281 C 9.085938 10.179688 9.171875 10.917969 9.546875 11.558594 C 9.925781 12.195312 10.601562 12.6875 11.394531 12.886719 C 11.414062 12.890625 11.429688 12.898438 11.453125 12.898438 L 14.585938 13.53125 C 15.238281 13.65625 15.875 13.25 16.007812 12.609375 C 16.140625 11.96875 15.722656 11.347656 15.070312 11.21875 L 11.988281 10.601562 C 11.746094 10.535156 11.6875 10.464844 11.636719 10.375 C 11.585938 10.289062 11.546875 10.132812 11.585938 9.90625 L 12.882812 3.714844 C 12.941406 3.441406 13.03125 3.367188 13.125 3.308594 C 13.21875 3.25 13.367188 3.207031 13.625 3.257812 L 18.320312 4.21875 C 18.96875 4.351562 19.609375 3.941406 19.746094 3.304688 C 19.882812 2.664062 19.460938 2.039062 18.8125 1.90625 L 14.121094 0.949219 L 14.117188 0.949219 C 13.925781 0.910156 13.730469 0.890625 13.539062 0.882812 Z M 23.21875 2.515625 C 23.015625 2.515625 22.816406 2.53125 22.617188 2.570312 C 22.21875 2.644531 21.828125 2.800781 21.476562 3.027344 C 21.472656 3.027344 21.46875 3.027344 21.46875 3.03125 L 16.050781 6.53125 C 16.039062 6.53125 16.03125 6.539062 16.023438 6.546875 C 15.4375 6.945312 14.960938 7.527344 14.765625 8.242188 C 14.570312 8.953125 14.695312 9.769531 15.113281 10.460938 C 15.125 10.476562 15.132812 10.492188 15.144531 10.507812 L 16.90625 13.125 C 17.273438 13.664062 18.019531 13.816406 18.574219 13.457031 C 19.132812 13.097656 19.28125 12.367188 18.914062 11.820312 L 17.1875 9.25 C 17.058594 9.039062 17.070312 8.945312 17.09375 8.851562 C 17.121094 8.75 17.203125 8.617188 17.398438 8.484375 L 22.789062 5.003906 L 22.792969 5.003906 C 23.023438 4.855469 23.148438 4.859375 23.253906 4.882812 C 23.359375 4.90625 23.5 4.980469 23.640625 5.195312 L 26.265625 9.125 C 26.632812 9.667969 27.378906 9.820312 27.9375 9.464844 C 28.492188 9.109375 28.648438 8.375 28.285156 7.828125 L 25.660156 3.90625 L 25.65625 3.90625 C 25.226562 3.261719 24.578125 2.765625 23.808594 2.585938 C 23.617188 2.542969 23.414062 2.519531 23.21875 2.515625 Z M 8.445312 4.085938 C 8.226562 4.09375 8.015625 4.164062 7.835938 4.28125 L 3.828125 6.851562 C 3.171875 7.273438 2.664062 7.90625 2.480469 8.664062 C 2.296875 9.421875 2.46875 10.257812 2.929688 10.949219 C 2.929688 10.953125 2.933594 10.953125 2.933594 10.953125 L 6.507812 16.261719 C 6.507812 16.269531 6.515625 16.277344 6.523438 16.289062 C 6.929688 16.863281 7.523438 17.324219 8.253906 17.515625 C 8.980469 17.707031 9.8125 17.585938 10.519531 17.179688 C 10.535156 17.167969 10.554688 17.15625 10.570312 17.148438 L 13.238281 15.421875 C 13.792969 15.0625 13.945312 14.332031 13.578125 13.789062 C 13.210938 13.242188 12.46875 13.09375 11.910156 13.453125 L 9.292969 15.148438 C 9.289062 15.148438 9.289062 15.148438 9.289062 15.148438 C 9.070312 15.273438 8.976562 15.265625 8.878906 15.238281 C 8.777344 15.210938 8.636719 15.128906 8.5 14.9375 L 4.949219 9.664062 C 4.796875 9.429688 4.796875 9.3125 4.828125 9.210938 C 4.851562 9.101562 4.925781 8.96875 5.144531 8.828125 C 5.144531 8.828125 5.148438 8.828125 5.148438 8.828125 L 9.15625 6.253906 C 9.710938 5.898438 9.867188 5.164062 9.503906 4.621094 C 9.273438 4.273438 8.871094 4.070312 8.445312 4.085938 Z M 22.429688 9.125 C 22.25 9.125 22.070312 9.132812 21.890625 9.160156 C 21.53125 9.210938 21.179688 9.324219 20.851562 9.507812 C 20.199219 9.875 19.699219 10.539062 19.496094 11.316406 C 19.492188 11.335938 19.488281 11.355469 19.484375 11.375 L 18.839844 14.441406 C 18.707031 15.078125 19.125 15.703125 19.78125 15.835938 C 20.429688 15.96875 21.070312 15.554688 21.203125 14.914062 L 21.828125 11.90625 C 21.828125 11.90625 21.832031 11.902344 21.832031 11.902344 C 21.898438 11.65625 21.96875 11.601562 22.058594 11.554688 C 22.148438 11.5 22.304688 11.460938 22.539062 11.503906 L 28.863281 12.773438 C 29.140625 12.832031 29.21875 12.917969 29.28125 13.007812 C 29.335938 13.101562 29.382812 13.25 29.328125 13.5 L 28.351562 18.097656 C 28.210938 18.734375 28.628906 19.359375 29.28125 19.492188 C 29.933594 19.625 30.570312 19.21875 30.707031 18.578125 L 31.6875 13.984375 C 31.84375 13.234375 31.742188 12.433594 31.328125 11.773438 C 30.910156 11.109375 30.1875 10.636719 29.359375 10.46875 C 29.359375 10.46875 29.355469 10.464844 29.351562 10.464844 L 22.996094 9.1875 C 22.984375 9.183594 22.976562 9.179688 22.964844 9.179688 C 22.789062 9.148438 22.609375 9.132812 22.429688 9.125 Z M 2.984375 12.617188 C 2.40625 12.609375 1.90625 13.003906 1.789062 13.554688 L 0.808594 18.152344 L 0.8125 18.148438 C 0.648438 18.90625 0.75 19.703125 1.164062 20.367188 C 1.585938 21.027344 2.308594 21.5 3.132812 21.671875 C 3.132812 21.671875 3.136719 21.671875 3.140625 21.671875 L 9.5 22.953125 C 9.507812 22.953125 9.515625 22.953125 9.53125 22.957031 C 10.234375 23.078125 10.988281 23 11.640625 22.625 C 12.292969 22.257812 12.796875 21.597656 13 20.820312 C 13 20.804688 13.007812 20.78125 13.007812 20.765625 L 13.65625 17.695312 C 13.789062 17.054688 13.367188 16.433594 12.714844 16.304688 C 12.0625 16.171875 11.425781 16.585938 11.292969 17.222656 L 10.664062 20.234375 C 10.597656 20.476562 10.523438 20.53125 10.4375 20.585938 C 10.347656 20.632812 10.1875 20.671875 9.953125 20.632812 L 3.632812 19.359375 C 3.351562 19.304688 3.273438 19.21875 3.21875 19.125 C 3.160156 19.03125 3.113281 18.886719 3.167969 18.636719 C 3.167969 18.636719 3.167969 18.632812 3.167969 18.632812 L 4.144531 14.039062 C 4.28125 13.402344 3.867188 12.777344 3.210938 12.644531 C 3.136719 12.628906 3.058594 12.617188 2.984375 12.617188 Z M 23.679688 14.535156 C 23.484375 14.523438 23.292969 14.535156 23.101562 14.5625 C 22.710938 14.625 22.328125 14.757812 21.976562 14.960938 C 21.960938 14.96875 21.941406 14.976562 21.925781 14.988281 L 19.257812 16.714844 C 18.703125 17.070312 18.546875 17.804688 18.914062 18.351562 C 19.28125 18.890625 20.027344 19.042969 20.585938 18.683594 L 23.207031 16.988281 C 23.421875 16.863281 23.515625 16.875 23.617188 16.898438 C 23.71875 16.925781 23.855469 17.007812 23.992188 17.199219 C 23.992188 17.199219 23.996094 17.199219 23.996094 17.199219 L 27.546875 22.476562 C 27.699219 22.707031 27.695312 22.824219 27.667969 22.929688 C 27.640625 23.039062 27.570312 23.171875 27.351562 23.3125 C 27.347656 23.3125 27.347656 23.3125 27.347656 23.3125 L 23.339844 25.882812 C 22.78125 26.242188 22.625 26.972656 22.992188 27.515625 C 23.351562 28.0625 24.101562 28.214844 24.65625 27.859375 L 28.664062 25.289062 L 28.667969 25.285156 C 29.324219 24.863281 29.832031 24.226562 30.015625 23.472656 C 30.195312 22.71875 30.023438 21.882812 29.5625 21.1875 C 29.5625 21.1875 29.5625 21.183594 29.5625 21.183594 L 25.988281 15.875 C 25.984375 15.867188 25.976562 15.859375 25.96875 15.851562 C 25.5625 15.273438 24.96875 14.8125 24.242188 14.621094 C 24.054688 14.570312 23.867188 14.542969 23.679688 14.535156 Z M 14.609375 18.484375 C 14.578125 18.484375 14.554688 18.484375 14.527344 18.484375 C 14.3125 18.496094 14.101562 18.5625 13.921875 18.679688 C 13.363281 19.039062 13.210938 19.773438 13.578125 20.3125 L 15.308594 22.886719 C 15.4375 23.097656 15.425781 23.1875 15.398438 23.289062 C 15.371094 23.382812 15.289062 23.519531 15.09375 23.65625 L 9.703125 27.132812 C 9.46875 27.285156 9.347656 27.28125 9.242188 27.257812 C 9.132812 27.226562 8.996094 27.15625 8.851562 26.941406 C 8.851562 26.9375 8.851562 26.9375 8.851562 26.9375 L 6.226562 23.015625 C 5.859375 22.46875 5.113281 22.316406 4.554688 22.671875 C 4 23.03125 3.84375 23.761719 4.210938 24.304688 L 6.835938 28.234375 C 7.265625 28.875 7.914062 29.371094 8.6875 29.550781 C 9.460938 29.730469 10.3125 29.5625 11.019531 29.109375 C 11.023438 29.109375 11.023438 29.109375 11.023438 29.109375 L 16.445312 25.609375 C 16.453125 25.601562 16.460938 25.597656 16.46875 25.59375 C 17.054688 25.1875 17.53125 24.609375 17.726562 23.898438 C 17.921875 23.1875 17.796875 22.367188 17.382812 21.679688 C 17.371094 21.664062 17.359375 21.648438 17.351562 21.628906 L 15.589844 19.015625 C 15.371094 18.691406 15.003906 18.492188 14.609375 18.484375 Z M 17.679688 18.585938 C 17.101562 18.578125 16.601562 18.976562 16.484375 19.53125 C 16.351562 20.164062 16.773438 20.789062 17.421875 20.921875 L 20.5 21.539062 C 20.75 21.601562 20.804688 21.671875 20.859375 21.757812 C 20.910156 21.847656 20.949219 22 20.90625 22.230469 C 20.90625 22.234375 20.90625 22.234375 20.90625 22.234375 L 19.609375 28.421875 C 19.554688 28.695312 19.460938 28.773438 19.367188 28.828125 C 19.273438 28.886719 19.125 28.929688 18.867188 28.875 L 14.175781 27.921875 C 13.523438 27.785156 12.886719 28.195312 12.75 28.835938 C 12.613281 29.46875 13.03125 30.097656 13.683594 30.230469 L 18.375 31.1875 C 19.140625 31.34375 19.960938 31.242188 20.632812 30.835938 C 21.308594 30.429688 21.792969 29.71875 21.96875 28.910156 C 21.96875 28.90625 21.96875 28.90625 21.96875 28.90625 L 23.273438 22.679688 C 23.277344 22.667969 23.28125 22.65625 23.28125 22.648438 C 23.40625 21.957031 23.320312 21.21875 22.945312 20.578125 C 22.566406 19.941406 21.890625 19.449219 21.101562 19.25 C 21.078125 19.246094 21.0625 19.242188 21.039062 19.238281 L 17.90625 18.609375 C 17.832031 18.59375 17.753906 18.585938 17.679688 18.585938 Z M 17.679688 18.585938 "/></g></svg>
