<svg width="64" height="64" viewBox="0 0 64 64" version="1.1"><defs><linearGradient id="linear-pattern-0" gradientUnits="userSpaceOnUse" x1="0" y1="0" x2="0" y2="1" gradientTransform="matrix(60, 0, 0, 56, 0, 4)"><stop offset="0" stop-color="#d00068" stop-opacity="1"/><stop offset="1" stop-color="#6e0037" stop-opacity="1"/></linearGradient></defs><path fill="url(#linear-pattern-0)" fill-opacity="1" d="M 36.21875 2.050781 L 62.027344 27.605469 C 64.402344 29.957031 64.417969 33.785156 62.058594 36.15625 L 36.460938 61.917969 C 34.105469 64.289062 30.269531 64.304688 27.894531 61.949219 L 2.085938 36.394531 C -0.289062 34.042969 -0.304688 30.214844 2.050781 27.84375 L 27.652344 2.082031 C 30.007812 -0.289062 33.84375 -0.304688 36.21875 2.050781 Z M 36.21875 2.050781 " /><g transform="matrix(1.0075098,0,0,1.0032698,16.221436,16.077397)"><path fill-rule="nonzero" fill="rgb(100%, 100%, 100%)" fill-opacity="1" d="M 11.382812 11.929688 C 4.796875 13.382812 0 17.851562 0 22.859375 C 2.804688 23.5 3.703125 23.695312 6.859375 24.203125 L 6.859375 30.417969 C 6.859375 30.417969 6.972656 32 8.570312 32 L 23.429688 32 C 25.027344 32 25.140625 30.417969 25.140625 30.417969 L 25.140625 24.203125 C 28.351562 23.613281 29 23.5 32 22.859375 C 32 17.851562 27.203125 13.382812 20.617188 11.929688 C 21.992188 10.671875 22.859375 8.867188 22.859375 6.859375 C 22.859375 3.070312 19.78125 0 16 0 C 12.21875 0 9.140625 3.070312 9.140625 6.859375 C 9.140625 8.867188 10.007812 10.671875 11.382812 11.929688 Z M 11.382812 11.929688 "/></g></svg>
