<svg width="64" height="64" viewBox="0 0 64 64" version="1.1"><defs><linearGradient id="linear-pattern-0" gradientUnits="userSpaceOnUse" x1="0" y1="0" x2="0" y2="1" gradientTransform="matrix(60, 0, 0, 56, 0, 4)"><stop offset="0" stop-color="#ec7700" stop-opacity="1"/><stop offset="1" stop-color="#773c00" stop-opacity="1"/></linearGradient></defs><path fill="url(#linear-pattern-0)" fill-opacity="1" d="M 36.21875 2.050781 L 62.027344 27.605469 C 64.402344 29.957031 64.417969 33.785156 62.058594 36.15625 L 36.460938 61.917969 C 34.105469 64.289062 30.269531 64.304688 27.894531 61.949219 L 2.085938 36.394531 C -0.289062 34.042969 -0.304688 30.214844 2.050781 27.84375 L 27.652344 2.082031 C 30.007812 -0.289062 33.84375 -0.304688 36.21875 2.050781 Z M 36.21875 2.050781 " /><g transform="matrix(1.0075098,0,0,1.0032698,16.221436,16.077397)"><path fill-rule="nonzero" fill="rgb(100%, 100%, 100%)" fill-opacity="1" d="M 14.933594 3.203125 L 14.933594 4.265625 L 17.066406 4.265625 L 17.066406 3.203125 Z M 14.933594 5.335938 L 14.933594 6.398438 L 17.066406 6.398438 L 17.066406 5.335938 Z M 14.933594 7.46875 L 14.933594 13.867188 L 7.46875 13.867188 C 7.394531 13.867188 7.324219 13.871094 7.253906 13.886719 C 3.96875 13.980469 1.109375 16.210938 0.253906 19.402344 C -0.617188 22.664062 0.8125 26.117188 3.734375 27.804688 C 6.632812 29.476562 10.296875 29.003906 12.683594 26.671875 L 19.316406 26.671875 C 21.703125 29.003906 25.367188 29.476562 28.265625 27.804688 C 31.1875 26.117188 32.617188 22.664062 31.746094 19.402344 C 30.890625 16.210938 28.023438 13.976562 24.734375 13.886719 C 24.667969 13.871094 24.601562 13.867188 24.53125 13.867188 L 17.066406 13.867188 L 17.066406 7.46875 Z M 7.46875 16 L 24.53125 16 C 26.953125 16 29.0625 17.617188 29.6875 19.953125 C 30.3125 22.289062 29.296875 24.746094 27.199219 25.953125 C 25.21875 27.097656 22.773438 26.835938 21.0625 25.359375 C 20.78125 25.082031 20.507812 24.527344 20.007812 24.535156 L 11.992188 24.535156 C 11.492188 24.53125 11.148438 25.105469 10.941406 25.355469 C 9.234375 26.835938 6.78125 27.101562 4.800781 25.953125 C 2.703125 24.746094 1.691406 22.289062 2.316406 19.953125 C 2.945312 17.617188 5.046875 16 7.46875 16 Z M 6.398438 18.132812 L 6.398438 20.265625 L 4.265625 20.265625 L 4.265625 22.398438 L 6.398438 22.398438 L 6.398438 24.535156 L 8.53125 24.535156 L 8.53125 22.398438 L 10.664062 22.398438 L 10.664062 20.265625 L 8.53125 20.265625 L 8.53125 18.132812 Z M 24.53125 18.132812 C 23.945312 18.132812 23.46875 18.609375 23.46875 19.203125 C 23.46875 19.789062 23.945312 20.265625 24.53125 20.265625 C 25.125 20.265625 25.601562 19.789062 25.601562 19.203125 C 25.601562 18.609375 25.125 18.132812 24.53125 18.132812 Z M 22.398438 20.265625 C 21.8125 20.265625 21.335938 20.746094 21.335938 21.335938 C 21.335938 21.921875 21.8125 22.398438 22.398438 22.398438 C 22.988281 22.398438 23.46875 21.921875 23.46875 21.335938 C 23.46875 20.746094 22.988281 20.265625 22.398438 20.265625 Z M 26.664062 20.265625 C 26.078125 20.265625 25.601562 20.746094 25.601562 21.335938 C 25.601562 21.921875 26.078125 22.398438 26.664062 22.398438 C 27.257812 22.398438 27.734375 21.921875 27.734375 21.335938 C 27.734375 20.746094 27.257812 20.265625 26.664062 20.265625 Z M 24.53125 22.398438 C 23.945312 22.398438 23.46875 22.878906 23.46875 23.46875 C 23.46875 24.054688 23.945312 24.535156 24.53125 24.535156 C 25.125 24.535156 25.601562 24.054688 25.601562 23.46875 C 25.601562 22.878906 25.125 22.398438 24.53125 22.398438 Z M 24.53125 22.398438 "/></g></svg>
