<svg width="64" height="64" viewBox="0 0 64 64" version="1.1"><defs><linearGradient id="linear-pattern-0" gradientUnits="userSpaceOnUse" x1="0" y1="0" x2="0" y2="1" gradientTransform="matrix(60, 0, 0, 56, 0, 4)"><stop offset="0" stop-color="#0288cf" stop-opacity="1"/><stop offset="1" stop-color="#01486e" stop-opacity="1"/></linearGradient></defs><path fill="url(#linear-pattern-0)" fill-opacity="1" d="M 36.21875 2.050781 L 62.027344 27.605469 C 64.402344 29.957031 64.417969 33.785156 62.058594 36.15625 L 36.460938 61.917969 C 34.105469 64.289062 30.269531 64.304688 27.894531 61.949219 L 2.085938 36.394531 C -0.289062 34.042969 -0.304688 30.214844 2.050781 27.84375 L 27.652344 2.082031 C 30.007812 -0.289062 33.84375 -0.304688 36.21875 2.050781 Z M 36.21875 2.050781 " /><g transform="matrix(1.0075098,0,0,1.0032698,16.221436,16.077397)"><path fill-rule="nonzero" fill="rgb(100%, 100%, 100%)" fill-opacity="1" d="M 13.554688 4.265625 L 0.652344 18.546875 L 9.941406 28.4375 L 19.746094 28.4375 L 28 19.648438 L 9.941406 19.648438 L 7.875 21.84375 L 22.84375 21.84375 L 18.710938 26.234375 L 10.972656 26.234375 L 3.75 18.546875 L 14.585938 6.460938 L 22.84375 6.460938 L 29.03125 13.054688 L 19.226562 13.054688 L 19.226562 9.757812 L 14.070312 15.25 L 29.546875 15.25 L 29.546875 18 L 31.609375 15.800781 L 31.609375 12.503906 L 23.875 4.265625 Z M 13.554688 4.265625 "/></g></svg>
