<svg width="64" height="64" viewBox="0 0 64 64" version="1.1"><defs><linearGradient id="linear-pattern-0" gradientUnits="userSpaceOnUse" x1="0" y1="0" x2="0" y2="1" gradientTransform="matrix(60, 0, 0, 56, 0, 4)"><stop offset="0" stop-color="#d00068" stop-opacity="1"/><stop offset="1" stop-color="#6e0037" stop-opacity="1"/></linearGradient></defs><path fill="url(#linear-pattern-0)" fill-opacity="1" d="M 36.21875 2.050781 L 62.027344 27.605469 C 64.402344 29.957031 64.417969 33.785156 62.058594 36.15625 L 36.460938 61.917969 C 34.105469 64.289062 30.269531 64.304688 27.894531 61.949219 L 2.085938 36.394531 C -0.289062 34.042969 -0.304688 30.214844 2.050781 27.84375 L 27.652344 2.082031 C 30.007812 -0.289062 33.84375 -0.304688 36.21875 2.050781 Z M 36.21875 2.050781 " /><g transform="matrix(1.0075098,0,0,1.0032698,16.221436,16.077397)"><path fill-rule="evenodd" fill="rgb(100%, 100%, 100%)" fill-opacity="1" d="M 4.859375 14.734375 L 4.859375 13.140625 L 4.867188 13.140625 C 4.859375 12.953125 4.859375 12.761719 4.859375 12.570312 C 4.859375 5.632812 10.492188 0 17.429688 0 C 24.367188 0 30 5.632812 30 12.570312 C 30 16.472656 28.21875 19.960938 25.429688 22.265625 L 25.429688 29.875 C 25.429688 31.046875 24.476562 32 23.304688 32 L 12.695312 32 C 11.523438 32 10.570312 31.046875 10.570312 29.875 L 10.570312 27.429688 L 7.132812 27.429688 C 5.871094 27.429688 4.859375 26.414062 4.859375 25.15625 L 4.859375 21.714844 L 3.601562 21.714844 C 3.027344 21.714844 2.5 21.410156 2.214844 20.914062 C 1.929688 20.421875 1.929688 19.8125 2.214844 19.3125 L 4.335938 15.640625 Z M 17.605469 3.386719 C 17.351562 3.378906 17.09375 3.382812 16.839844 3.390625 C 15.390625 3.4375 13.921875 3.769531 12.632812 4.34375 C 11.304688 5.039062 10.15625 6.039062 9.28125 7.257812 C 8.351562 8.730469 7.984375 10.46875 8.5625 11.570312 C 9.242188 12.875 10.664062 13.667969 12.109375 13.667969 C 12.859375 13.667969 12.917969 13.707031 12.917969 14.25 C 12.917969 15.429688 14.453125 15.984375 16.609375 15.984375 C 17.761719 15.984375 17.953125 16.035156 17.851562 16.304688 C 17.695312 16.71875 18.351562 18.121094 19.0625 18.78125 C 19.363281 19.0625 19.738281 19.484375 19.890625 19.851562 C 20.191406 20.566406 20.484375 20.65625 21.3125 20.277344 C 21.941406 19.992188 21.964844 19.824219 21.425781 18.9375 C 21.199219 18.570312 21.015625 18.375 21.015625 18.304688 C 21.015625 18.242188 20.855469 18.191406 21.734375 18.203125 C 24.273438 18.226562 25.421875 17.324219 25.425781 15.25 C 25.425781 14.914062 25.597656 14.671875 25.828125 14.46875 C 26.617188 14.085938 26.53125 13.679688 26.570312 12.890625 C 26.570312 8.796875 23.953125 5.085938 20.078125 3.777344 C 19.988281 3.75 19.902344 3.71875 19.8125 3.695312 C 19.109375 3.511719 18.367188 3.410156 17.605469 3.386719 Z M 17.605469 3.386719 "/></g></svg>
