<svg width="64" height="64" viewBox="0 0 64 64" version="1.1"><defs><linearGradient id="linear-pattern-0" gradientUnits="userSpaceOnUse" x1="0" y1="0" x2="0" y2="1" gradientTransform="matrix(60, 0, 0, 56, 0, 4)"><stop offset="0" stop-color="#7795ab" stop-opacity="1"/><stop offset="1" stop-color="#3b4f5f" stop-opacity="1"/></linearGradient></defs><path fill="url(#linear-pattern-0)" fill-opacity="1" d="M 36.21875 2.050781 L 62.027344 27.605469 C 64.402344 29.957031 64.417969 33.785156 62.058594 36.15625 L 36.460938 61.917969 C 34.105469 64.289062 30.269531 64.304688 27.894531 61.949219 L 2.085938 36.394531 C -0.289062 34.042969 -0.304688 30.214844 2.050781 27.84375 L 27.652344 2.082031 C 30.007812 -0.289062 33.84375 -0.304688 36.21875 2.050781 Z M 36.21875 2.050781 " /><g transform="matrix(1.0075098,0,0,1.0032698,16.221436,16.077397)"><path fill-rule="evenodd" fill="rgb(100%, 100%, 100%)" fill-opacity="1" d="M 16.03125 1.101562 C 7.46875 1.101562 0.523438 7.890625 0.523438 16.269531 C 0.523438 24.648438 7.46875 31.445312 16.03125 31.445312 C 24.59375 31.445312 31.539062 24.648438 31.539062 16.269531 C 31.539062 7.890625 24.59375 1.101562 16.03125 1.101562 M 21.375 2.90625 C 23.210938 3.609375 24.921875 4.679688 26.402344 6.128906 C 27.648438 7.347656 28.625 8.730469 29.328125 10.210938 L 20.273438 15.324219 C 20.09375 14.570312 19.703125 13.851562 19.101562 13.265625 C 18.476562 12.660156 17.710938 12.273438 16.90625 12.109375 L 21.375 2.90625 M 16.03125 12.722656 C 18.03125 12.722656 19.65625 14.3125 19.65625 16.269531 C 19.65625 18.226562 18.03125 19.820312 16.03125 19.820312 C 14.03125 19.820312 12.40625 18.226562 12.40625 16.269531 C 12.40625 14.3125 14.03125 12.722656 16.03125 12.722656 M 16.03125 13.507812 C 14.46875 13.507812 13.207031 14.742188 13.207031 16.269531 C 13.207031 17.796875 14.46875 19.035156 16.03125 19.035156 C 17.59375 19.035156 18.855469 17.796875 18.855469 16.269531 C 18.855469 14.742188 17.59375 13.507812 16.03125 13.507812 M 16.03125 14.320312 C 17.132812 14.320312 18.023438 15.195312 18.023438 16.269531 C 18.023438 17.347656 17.132812 18.21875 16.03125 18.21875 C 14.929688 18.21875 14.039062 17.347656 14.039062 16.269531 C 14.039062 15.195312 14.929688 14.320312 16.03125 14.320312 M 11.75 17.210938 C 11.789062 17.351562 11.828125 17.492188 11.875 17.632812 C 11.890625 17.679688 11.90625 17.722656 11.929688 17.765625 C 12.0625 18.132812 12.257812 18.480469 12.507812 18.804688 C 12.539062 18.84375 12.570312 18.882812 12.601562 18.921875 C 12.695312 19.042969 12.804688 19.15625 12.914062 19.269531 C 13.113281 19.460938 13.320312 19.628906 13.539062 19.773438 C 13.585938 19.804688 13.628906 19.835938 13.671875 19.859375 C 13.851562 19.972656 14.039062 20.070312 14.226562 20.152344 C 14.324219 20.195312 14.417969 20.226562 14.515625 20.261719 C 14.664062 20.3125 14.8125 20.359375 14.960938 20.394531 C 15.011719 20.40625 15.0625 20.417969 15.109375 20.425781 L 10.644531 29.628906 C 10.53125 29.585938 10.414062 29.539062 10.300781 29.496094 C 10.1875 29.449219 10.074219 29.402344 9.96875 29.351562 C 9.734375 29.25 9.515625 29.148438 9.296875 29.035156 C 9.1875 28.976562 9.074219 28.921875 8.96875 28.859375 C 8.96875 28.859375 8.96875 28.867188 8.96875 28.859375 C 8.859375 28.804688 8.75 28.746094 8.640625 28.6875 C 8.421875 28.5625 8.207031 28.4375 8 28.300781 C 7.890625 28.234375 7.789062 28.164062 7.6875 28.09375 C 7.269531 27.8125 6.863281 27.511719 6.472656 27.183594 C 6.375 27.101562 6.28125 27.019531 6.179688 26.9375 C 6.085938 26.851562 5.992188 26.765625 5.898438 26.675781 C 5.804688 26.589844 5.710938 26.5 5.617188 26.40625 C 5.148438 25.949219 4.71875 25.46875 4.328125 24.96875 C 4.265625 24.886719 4.199219 24.804688 4.140625 24.71875 C 3.570312 23.960938 3.085938 23.15625 2.691406 22.328125 L 11.75 17.210938 "/></g></svg>
