<svg width="64" height="64" viewBox="0 0 64 64" version="1.1"><defs><linearGradient id="linear-pattern-0" gradientUnits="userSpaceOnUse" x1="0" y1="0" x2="0" y2="1" gradientTransform="matrix(60, 0, 0, 56, 0, 4)"><stop offset="0" stop-color="#8900e4" stop-opacity="1"/><stop offset="1" stop-color="#42006e" stop-opacity="1"/></linearGradient></defs><path fill="url(#linear-pattern-0)" fill-opacity="1" d="M 36.21875 2.050781 L 62.027344 27.605469 C 64.402344 29.957031 64.417969 33.785156 62.058594 36.15625 L 36.460938 61.917969 C 34.105469 64.289062 30.269531 64.304688 27.894531 61.949219 L 2.085938 36.394531 C -0.289062 34.042969 -0.304688 30.214844 2.050781 27.84375 L 27.652344 2.082031 C 30.007812 -0.289062 33.84375 -0.304688 36.21875 2.050781 Z M 36.21875 2.050781 " /><g transform="matrix(1.0075098,0,0,1.0032698,16.221436,16.077397)"><path fill-rule="nonzero" fill="rgb(100%, 100%, 100%)" fill-opacity="1" d="M 8.578125 1.101562 C 7.984375 1.101562 7.601562 1.65625 7.507812 2.320312 L 5.359375 14.320312 C 5.289062 14.992188 5.835938 15.539062 6.433594 15.539062 L 29.984375 15.539062 C 30.578125 15.539062 31.125 14.992188 31.054688 14.320312 L 28.910156 2.320312 C 28.820312 1.65625 28.429688 1.101562 27.835938 1.101562 Z M 6.433594 16.773438 C 5.835938 16.773438 5.359375 17.320312 5.359375 17.996094 L 5.359375 20.476562 C 5.359375 21.152344 5.835938 21.695312 6.433594 21.695312 L 29.984375 21.695312 C 30.578125 21.695312 31.054688 21.152344 31.054688 20.476562 L 31.054688 17.996094 C 31.054688 17.320312 30.578125 16.773438 29.984375 16.773438 Z M 7.480469 18.25 L 10.105469 18.25 C 10.304688 18.25 10.46875 18.421875 10.46875 18.652344 L 10.46875 19.8125 C 10.46875 20.039062 10.304688 20.21875 10.105469 20.21875 L 7.480469 20.21875 C 7.28125 20.21875 7.117188 20.039062 7.117188 19.8125 L 7.117188 18.652344 C 7.117188 18.421875 7.28125 18.25 7.480469 18.25 Z M 7.480469 18.25 "/><path fill-rule="nonzero" fill="rgb(74.117647%, 0%, 0%)" fill-opacity="1" d="M 8.117188 16.40625 C 7.914062 16.410156 7.710938 16.566406 7.558594 16.863281 L 0.757812 30.273438 C 0.449219 30.875 0.726562 31.390625 1.324219 31.390625 L 14.945312 31.390625 C 15.628906 31.390625 15.792969 30.839844 15.507812 30.273438 L 8.695312 16.863281 C 8.539062 16.546875 8.324219 16.398438 8.117188 16.40625 Z M 8.046875 19.636719 C 8.390625 19.636719 8.667969 19.757812 8.867188 20 C 9.070312 20.238281 9.167969 20.554688 9.167969 20.957031 C 9.167969 21.503906 9.078125 22.257812 8.890625 23.203125 C 8.679688 24.289062 8.5625 25.035156 8.523438 25.4375 C 8.515625 25.6875 8.507812 25.945312 8.5 26.203125 C 8.480469 26.546875 8.402344 26.757812 8.269531 26.835938 C 8.21875 26.875 8.152344 26.890625 8.078125 26.890625 C 7.894531 26.890625 7.78125 26.726562 7.75 26.40625 C 7.742188 26.375 7.742188 26.132812 7.742188 25.6875 C 7.742188 24.867188 7.59375 23.6875 7.28125 22.15625 C 7.164062 21.554688 7.101562 21.160156 7.101562 20.96875 C 7.101562 20.625 7.179688 20.328125 7.335938 20.070312 C 7.515625 19.78125 7.753906 19.636719 8.046875 19.636719 Z M 8.054688 27.601562 C 8.296875 27.601562 8.511719 27.6875 8.6875 27.851562 C 8.878906 28.03125 8.972656 28.257812 8.972656 28.53125 C 8.972656 28.835938 8.890625 29.085938 8.71875 29.28125 C 8.554688 29.46875 8.335938 29.5625 8.070312 29.5625 C 7.847656 29.5625 7.65625 29.46875 7.488281 29.285156 C 7.320312 29.09375 7.242188 28.875 7.242188 28.617188 C 7.242188 28.351562 7.316406 28.113281 7.46875 27.914062 C 7.625 27.703125 7.820312 27.601562 8.054688 27.601562 Z M 8.054688 27.601562 "/></g></svg>
