<svg width="64" height="64" viewBox="0 0 64 64" version="1.1"><defs><linearGradient id="linear-pattern-0" gradientUnits="userSpaceOnUse" x1="0" y1="0" x2="0" y2="1" gradientTransform="matrix(60, 0, 0, 56, 0, 4)"><stop offset="0" stop-color="#c10000" stop-opacity="1"/><stop offset="1" stop-color="#5f0000" stop-opacity="1"/></linearGradient></defs><path fill="url(#linear-pattern-0)" fill-opacity="1" d="M 36.21875 2.050781 L 62.027344 27.605469 C 64.402344 29.957031 64.417969 33.785156 62.058594 36.15625 L 36.460938 61.917969 C 34.105469 64.289062 30.269531 64.304688 27.894531 61.949219 L 2.085938 36.394531 C -0.289062 34.042969 -0.304688 30.214844 2.050781 27.84375 L 27.652344 2.082031 C 30.007812 -0.289062 33.84375 -0.304688 36.21875 2.050781 Z M 36.21875 2.050781 " /><g transform="matrix(1.0075098,0,0,1.0032698,16.221436,16.077397)"><path fill-rule="nonzero" fill="rgb(100%, 100%, 100%)" fill-opacity="1" d="M 4.5 7 C 3.394531 7 0.257812 11.992188 0.015625 13.820312 C 0.0078125 13.875 0 13.933594 0 14 C 0 14.066406 0.0078125 14.125 0.015625 14.179688 C 0.257812 16.007812 3.394531 21 4.5 21 C 5.605469 21 8.742188 16.007812 8.984375 14.179688 C 8.992188 14.125 9 14.066406 9 14 C 9 13.933594 8.992188 13.875 8.984375 13.820312 C 8.742188 11.992188 5.605469 7 4.5 7 Z M 27.5 7 C 26.394531 7 23.257812 11.992188 23.015625 13.820312 C 23.007812 13.875 23 13.933594 23 14 C 23 14.066406 23.007812 14.125 23.015625 14.179688 C 23.257812 16.007812 26.394531 21 27.5 21 C 28.605469 21 31.742188 16.007812 31.984375 14.179688 C 31.992188 14.125 32 14.066406 32 14 C 32 13.933594 31.992188 13.875 31.984375 13.820312 C 31.742188 11.992188 28.605469 7 27.5 7 Z M 16 11 C 14.894531 11 11.757812 15.992188 11.515625 17.820312 C 11.507812 17.875 11.5 17.933594 11.5 18 C 11.5 18.066406 11.507812 18.125 11.515625 18.179688 C 11.757812 20.007812 14.894531 25 16 25 C 17.105469 25 20.242188 20.007812 20.484375 18.179688 C 20.492188 18.125 20.5 18.066406 20.5 18 C 20.5 17.933594 20.492188 17.875 20.484375 17.820312 C 20.242188 15.992188 17.105469 11 16 11 Z M 16 11 "/></g></svg>
