<svg width="64" height="64" viewBox="0 0 64 64" version="1.1"><defs><linearGradient id="linear-pattern-0" gradientUnits="userSpaceOnUse" x1="0" y1="0" x2="0" y2="1" gradientTransform="matrix(60, 0, 0, 56, 0, 4)"><stop offset="0" stop-color="#7795ab" stop-opacity="1"/><stop offset="1" stop-color="#3b4f5f" stop-opacity="1"/></linearGradient></defs><path fill="url(#linear-pattern-0)" fill-opacity="1" d="M 36.21875 2.050781 L 62.027344 27.605469 C 64.402344 29.957031 64.417969 33.785156 62.058594 36.15625 L 36.460938 61.917969 C 34.105469 64.289062 30.269531 64.304688 27.894531 61.949219 L 2.085938 36.394531 C -0.289062 34.042969 -0.304688 30.214844 2.050781 27.84375 L 27.652344 2.082031 C 30.007812 -0.289062 33.84375 -0.304688 36.21875 2.050781 Z M 36.21875 2.050781 " /><g transform="matrix(1.0075098,0,0,1.0032698,16.221436,16.077397)"><path fill-rule="evenodd" fill="rgb(100%, 100%, 100%)" fill-opacity="1" d="M 12.726562 0 C 12.386719 0.0390625 12.085938 0.316406 12.023438 0.652344 L 11.351562 4.078125 C 10.140625 4.550781 9 5.199219 8 6 L 4.675781 4.875 C 4.328125 4.757812 3.914062 4.914062 3.726562 5.226562 L 0.523438 10.773438 C 0.34375 11.09375 0.421875 11.535156 0.699219 11.773438 L 3.351562 14.101562 C 3.257812 14.726562 3.199219 15.351562 3.199219 16 C 3.199219 16.648438 3.257812 17.273438 3.351562 17.898438 L 0.699219 20.226562 C 0.421875 20.464844 0.34375 20.90625 0.523438 21.226562 L 3.726562 26.773438 C 3.914062 27.089844 4.328125 27.242188 4.675781 27.125 L 8 26 C 9 26.800781 10.140625 27.453125 11.351562 27.925781 L 12.023438 31.351562 C 12.09375 31.707031 12.4375 31.996094 12.800781 32 L 19.199219 32 C 19.5625 31.996094 19.90625 31.707031 19.976562 31.351562 L 20.648438 27.925781 C 21.859375 27.453125 23 26.800781 24 26 L 27.324219 27.125 C 27.671875 27.242188 28.085938 27.089844 28.273438 26.773438 L 31.476562 21.226562 C 31.65625 20.90625 31.578125 20.464844 31.300781 20.226562 L 28.648438 17.898438 C 28.742188 17.277344 28.800781 16.648438 28.800781 16 C 28.800781 15.351562 28.742188 14.726562 28.648438 14.101562 L 31.300781 11.773438 C 31.578125 11.535156 31.65625 11.09375 31.476562 10.773438 L 28.273438 5.226562 C 28.085938 4.914062 27.671875 4.757812 27.324219 4.875 L 24 6 C 23 5.199219 21.859375 4.550781 20.648438 4.078125 L 19.976562 0.648438 C 19.90625 0.292969 19.5625 0.0078125 19.199219 0 L 12.800781 0 C 12.773438 0 12.75 0 12.726562 0 Z M 10 16 C 10 12.6875 12.6875 10 16 10 C 19.3125 10 22 12.6875 22 16 C 22 19.3125 19.3125 22 16 22 C 12.6875 22 10 19.3125 10 16 Z M 10 16 "/></g></svg>
