<svg width="64" height="64" viewBox="0 0 64 64" version="1.1"><defs><linearGradient id="linear-pattern-0" gradientUnits="userSpaceOnUse" x1="0" y1="0" x2="0" y2="1" gradientTransform="matrix(60, 0, 0, 56, 0, 4)"><stop offset="0" stop-color="#0288cf" stop-opacity="1"/><stop offset="1" stop-color="#01486e" stop-opacity="1"/></linearGradient></defs><path fill="url(#linear-pattern-0)" fill-opacity="1" d="M 36.21875 2.050781 L 62.027344 27.605469 C 64.402344 29.957031 64.417969 33.785156 62.058594 36.15625 L 36.460938 61.917969 C 34.105469 64.289062 30.269531 64.304688 27.894531 61.949219 L 2.085938 36.394531 C -0.289062 34.042969 -0.304688 30.214844 2.050781 27.84375 L 27.652344 2.082031 C 30.007812 -0.289062 33.84375 -0.304688 36.21875 2.050781 Z M 36.21875 2.050781 " /><g transform="matrix(1.0075098,0,0,1.0032698,16.221436,16.077397)"><path fill-rule="nonzero" fill="rgb(100%, 100%, 100%)" fill-opacity="1" d="M 8.296875 0.882812 L 8.296875 3.015625 L 9.898438 3.015625 C 9.875 4.519531 9.828125 9.382812 9.898438 11.4375 C 9.886719 11.910156 8.742188 13.484375 7.820312 14.75 C 7.25 15.546875 6.609375 16.421875 5.976562 17.359375 C 4.09375 20.15625 2.277344 23.4375 1.492188 24.84375 L 1.285156 25.210938 C 0.484375 26.636719 0.476562 28.589844 1.261719 29.953125 C 1.855469 30.992188 2.816406 31.558594 3.953125 31.558594 L 28.234375 31.558594 C 29.375 31.558594 30.324219 30.992188 30.921875 29.953125 C 31.710938 28.589844 31.703125 26.636719 30.898438 25.210938 L 30.691406 24.84375 C 29.910156 23.4375 28.089844 20.15625 26.210938 17.359375 C 25.578125 16.421875 24.941406 15.546875 24.363281 14.75 C 23.441406 13.484375 22.296875 11.910156 22.289062 11.441406 C 22.355469 9.382812 22.304688 4.519531 22.289062 3.015625 L 23.496094 3.015625 L 23.496094 0.882812 Z M 11.632812 3.457031 L 20.550781 3.457031 C 20.574219 5.296875 20.601562 9.550781 20.542969 11.382812 C 20.511719 12.378906 21.347656 13.582031 22.957031 15.796875 C 23.519531 16.578125 24.148438 17.433594 24.765625 18.351562 C 26.609375 21.085938 28.402344 24.320312 29.171875 25.699219 L 29.382812 26.078125 C 29.878906 26.960938 29.890625 28.25 29.414062 29.070312 C 29.136719 29.550781 28.742188 29.796875 28.234375 29.796875 L 3.953125 29.796875 C 3.445312 29.796875 3.046875 29.550781 2.765625 29.070312 C 2.296875 28.25 2.3125 26.960938 2.808594 26.078125 L 3.015625 25.699219 C 3.78125 24.320312 5.578125 21.085938 7.421875 18.351562 C 8.039062 17.433594 8.660156 16.578125 9.226562 15.796875 C 10.835938 13.582031 11.671875 12.378906 11.640625 11.382812 C 11.582031 9.550781 11.617188 5.296875 11.632812 3.457031 Z M 7.402344 19.820312 C 7.132812 20.195312 6.851562 20.585938 6.570312 21.007812 C 5.464844 22.652344 4.386719 24.582031 3.929688 25.40625 L 3.8125 25.625 C 3.335938 26.46875 3.335938 27.609375 3.796875 28.414062 C 4.148438 29.015625 4.710938 29.355469 5.375 29.355469 L 26.8125 29.355469 C 27.484375 29.355469 28.046875 29.015625 28.394531 28.414062 C 28.859375 27.609375 28.851562 26.46875 28.382812 25.625 L 28.257812 25.40625 C 27.800781 24.582031 26.730469 22.652344 25.621094 21.007812 C 25.34375 20.585938 25.054688 20.195312 24.789062 19.820312 C 24.789062 19.820312 23.382812 20.410156 19.058594 20.554688 C 14.734375 20.699219 14.007812 21.804688 11.574219 21.578125 C 9.136719 21.359375 7.402344 19.820312 7.402344 19.820312 Z M 8.351562 22.746094 C 9.148438 22.746094 9.796875 23.398438 9.796875 24.207031 C 9.796875 25.015625 9.148438 25.667969 8.351562 25.667969 C 7.554688 25.667969 6.898438 25.015625 6.898438 24.207031 C 6.898438 23.398438 7.554688 22.746094 8.351562 22.746094 Z M 14.507812 23.109375 C 14.988281 23.109375 15.382812 23.5 15.382812 23.988281 C 15.382812 24.476562 14.988281 24.875 14.507812 24.875 C 14.023438 24.875 13.640625 24.476562 13.640625 23.988281 C 13.640625 23.5 14.027344 23.109375 14.507812 23.109375 Z M 22.40625 23.34375 C 23.265625 23.34375 23.96875 24.054688 23.96875 24.921875 C 23.96875 25.796875 23.265625 26.5 22.40625 26.5 C 21.542969 26.5 20.84375 25.796875 20.84375 24.921875 C 20.84375 24.054688 21.542969 23.34375 22.40625 23.34375 Z M 18.015625 26.4375 C 18.394531 26.4375 18.699219 26.746094 18.699219 27.128906 C 18.695312 27.507812 18.390625 27.820312 18.015625 27.820312 C 17.632812 27.820312 17.328125 27.507812 17.328125 27.128906 C 17.328125 26.746094 17.632812 26.4375 18.015625 26.4375 Z M 9.960938 27.128906 C 10.242188 27.128906 10.472656 27.359375 10.472656 27.652344 C 10.472656 27.9375 10.242188 28.171875 9.960938 28.171875 C 9.671875 28.171875 9.4375 27.9375 9.4375 27.652344 C 9.4375 27.359375 9.671875 27.128906 9.960938 27.128906 Z M 24.015625 27.128906 C 24.296875 27.128906 24.523438 27.359375 24.523438 27.652344 C 24.523438 27.9375 24.296875 28.171875 24.015625 28.171875 C 23.726562 28.171875 23.496094 27.9375 23.496094 27.652344 C 23.496094 27.359375 23.726562 27.128906 24.015625 27.128906 Z M 24.015625 27.128906 "/></g></svg>
