<svg width="64" height="64" viewBox="0 0 64 64" version="1.1"><defs><linearGradient id="linear-pattern-0" gradientUnits="userSpaceOnUse" x1="0" y1="0" x2="0" y2="1" gradientTransform="matrix(60, 0, 0, 56, 0, 4)"><stop offset="0" stop-color="#6926fc" stop-opacity="1"/><stop offset="1" stop-color="#3702ab" stop-opacity="1"/></linearGradient></defs><path fill="url(#linear-pattern-0)" fill-opacity="1" d="M 36.21875 2.050781 L 62.027344 27.605469 C 64.402344 29.957031 64.417969 33.785156 62.058594 36.15625 L 36.460938 61.917969 C 34.105469 64.289062 30.269531 64.304688 27.894531 61.949219 L 2.085938 36.394531 C -0.289062 34.042969 -0.304688 30.214844 2.050781 27.84375 L 27.652344 2.082031 C 30.007812 -0.289062 33.84375 -0.304688 36.21875 2.050781 Z M 36.21875 2.050781 " /><g transform="matrix(1.0075098,0,0,1.0032698,16.221436,16.077397)"><path fill-rule="evenodd" fill="rgb(100%, 100%, 100%)" fill-opacity="1" d="M 19.226562 16.503906 C 19.390625 15.328125 20.226562 14.410156 21.09375 14.457031 C 21.960938 14.503906 22.53125 15.496094 22.371094 16.671875 C 22.210938 17.851562 21.375 18.765625 20.507812 18.722656 C 19.640625 18.671875 19.066406 17.679688 19.226562 16.503906 Z M 28.582031 19.914062 C 27.496094 19.648438 26.039062 20.171875 25.359375 20.46875 C 24.5 20.839844 24.1875 20.792969 23.734375 20.855469 C 23.640625 20.867188 23.546875 20.882812 23.457031 20.890625 L 22.980469 20.890625 C 22.328125 20.828125 21.65625 20.527344 20.265625 19.828125 C 19.429688 19.421875 18.492188 18.992188 17.546875 18.820312 C 17.148438 17.570312 17.007812 15.84375 17.179688 14.382812 C 17.628906 12.054688 18.734375 10.480469 20.902344 10.21875 C 21.03125 10.203125 21.164062 10.203125 21.296875 10.210938 C 22.21875 10.265625 23.160156 10.890625 23.828125 11.714844 C 24.378906 12.394531 24.734375 13.1875 24.929688 14.183594 C 25.007812 14.570312 25.054688 14.5625 25.09375 15.265625 C 25.222656 17.417969 25.460938 18.332031 25.867188 18.59375 C 26.023438 18.6875 26.117188 18.667969 26.273438 18.492188 C 26.734375 17.773438 27.03125 17.109375 27.65625 15.804688 C 27.738281 15.589844 27.898438 15.25 28.164062 14.71875 C 28.226562 14.554688 28.394531 14.207031 28.578125 13.828125 C 29.273438 12.671875 29.820312 12.1875 30.210938 12.390625 C 30.257812 12.414062 30.328125 12.476562 30.359375 12.523438 C 30.96875 13.339844 31.019531 16.570312 30.332031 18.820312 C 30.0625 18.859375 29.757812 18.988281 29.453125 19.171875 C 29.109375 19.386719 28.851562 19.601562 28.582031 19.914062 Z M 30.390625 18.8125 C 30.992188 17.609375 31.40625 16.304688 31.726562 15.039062 C 31.90625 14.289062 31.984375 13.773438 32 13.195312 C 32.015625 12.511719 31.945312 12.125 31.734375 11.6875 C 31.628906 11.476562 31.585938 11.414062 31.449219 11.28125 C 31.34375 11.171875 31.234375 11.09375 31.132812 11.039062 C 30.96875 10.953125 30.699219 10.875 30.570312 10.875 C 30.492188 10.875 30.484375 10.867188 30.4375 10.78125 L 30.390625 10.683594 L 30.46875 10.515625 C 30.859375 9.6875 30.796875 8.535156 30.914062 7.210938 C 30.945312 6.84375 30.96875 6.226562 30.945312 6.136719 C 30.929688 6.046875 30.941406 6.046875 30.503906 6 C 29.457031 5.894531 28.511719 5.921875 27.179688 6.078125 L 26.792969 6.125 L 26.59375 5.945312 C 25.527344 5.007812 24.230469 4.28125 22.898438 3.640625 C 20.960938 2.703125 18.867188 2.046875 16.472656 1.78125 C 15.675781 1.695312 14.84375 1.652344 13.984375 1.648438 C 11.171875 1.648438 8.085938 2.171875 5.097656 3.03125 C 4.242188 3.277344 2.9375 3.714844 2.875 3.773438 C 2.84375 3.804688 2.894531 3.828125 3.074219 3.859375 C 3.539062 3.929688 4.226562 4.144531 4.734375 4.367188 C 6.601562 5.195312 8.351562 6.90625 9.53125 9.242188 C 9.75 9.667969 9.917969 10.039062 9.917969 10.09375 C 9.917969 10.105469 9.78125 10.140625 9.5625 10.171875 C 7.304688 10.542969 5.160156 11.539062 3.195312 13.667969 C 2.375 14.5625 1.5 15.738281 0.820312 16.875 C 0.355469 17.640625 -0.0585938 18.445312 0.0078125 18.445312 C 0.0117188 18.445312 0.230469 18.394531 0.492188 18.328125 C 3.300781 17.648438 5.859375 17.515625 7.664062 17.96875 C 8.421875 18.15625 9.070312 18.28125 9.523438 18.625 C 9.71875 18.769531 9.917969 18.953125 9.917969 18.988281 C 8.109375 20.527344 7.03125 22.378906 6.273438 24.414062 C 5.601562 26.367188 5.3125 28.335938 5.335938 30.351562 C 6.488281 29.464844 8.3125 27.640625 9.710938 27.125 C 11.359375 26.539062 12.828125 26.347656 14.859375 26.242188 C 15.359375 26.21875 17.066406 26.21875 17.304688 26.257812 C 17.796875 26.523438 18.226562 26.664062 18.882812 26.882812 C 19.742188 27.132812 20.65625 27.257812 21.671875 27.257812 C 22.671875 27.257812 23.453125 27.15625 24.328125 26.921875 C 26.25 26.398438 27.863281 25.242188 28.804688 23.714844 C 28.9375 23.445312 29.074219 23.1875 29.214844 22.945312 C 29.414062 22.925781 29.636719 22.859375 29.84375 22.773438 C 30.453125 22.507812 31.09375 21.949219 31.503906 21.320312 C 31.835938 20.808594 31.976562 20.414062 31.996094 19.9375 C 32.007812 19.695312 32 19.660156 31.9375 19.460938 C 31.859375 19.214844 31.765625 19.078125 31.578125 18.941406 C 31.28125 18.726562 30.867188 18.671875 30.390625 18.8125 Z M 30.390625 18.8125 "/></g></svg>
