<svg width="64" height="64" viewBox="0 0 64 64" version="1.1"><defs><linearGradient id="linear-pattern-0" gradientUnits="userSpaceOnUse" x1="0" y1="0" x2="0" y2="1" gradientTransform="matrix(60, 0, 0, 56, 0, 4)"><stop offset="0" stop-color="#8900e4" stop-opacity="1"/><stop offset="1" stop-color="#42006e" stop-opacity="1"/></linearGradient></defs><path fill="url(#linear-pattern-0)" fill-opacity="1" d="M 36.21875 2.050781 L 62.027344 27.605469 C 64.402344 29.957031 64.417969 33.785156 62.058594 36.15625 L 36.460938 61.917969 C 34.105469 64.289062 30.269531 64.304688 27.894531 61.949219 L 2.085938 36.394531 C -0.289062 34.042969 -0.304688 30.214844 2.050781 27.84375 L 27.652344 2.082031 C 30.007812 -0.289062 33.84375 -0.304688 36.21875 2.050781 Z M 36.21875 2.050781 " /><g transform="matrix(1.0075098,0,0,1.0032698,16.221436,16.077397)"><path fill-rule="nonzero" fill="rgb(100%, 100%, 100%)" fill-opacity="1" d="M 10.300781 1.109375 L 8.796875 2.570312 C 8.796875 3.378906 9.46875 4.03125 10.300781 4.03125 C 10.300781 4.03125 10.960938 4.882812 11.140625 4.851562 C 5.535156 6.769531 1.777344 11.90625 1.757812 17.71875 C 1.773438 25.046875 7.742188 31.074219 15.320312 31.367188 C 15.492188 31.390625 15.667969 31.402344 15.84375 31.402344 C 16.023438 31.402344 16.195312 31.390625 16.367188 31.367188 C 23.914062 31.09375 29.929688 25.078125 29.929688 17.71875 C 29.917969 11.945312 26.164062 6.796875 20.550781 4.851562 L 20.359375 4.546875 L 20.886719 4.035156 L 21.390625 4.035156 C 22.21875 4.035156 22.898438 3.382812 22.898438 2.570312 C 22.898438 1.765625 22.21875 1.109375 21.390625 1.109375 L 19.882812 2.570312 L 11.84375 2.570312 C 11.84375 1.765625 11.171875 1.109375 10.335938 1.109375 Z M 21.554688 7.382812 C 22.65625 7.96875 23.671875 8.710938 24.535156 9.597656 L 21.851562 9.878906 C 21.851562 9.046875 21.75 8.203125 21.546875 7.382812 Z M 10.101562 7.40625 L 9.515625 10.800781 C 8.589844 10.449219 7.804688 10.039062 7.132812 9.601562 C 8 8.726562 9.003906 7.984375 10.097656 7.40625 Z M 25.773438 11.125 C 26.929688 12.78125 27.621094 14.710938 27.78125 16.699219 L 22.828125 16.699219 C 22.820312 15.421875 22.773438 14.117188 22.539062 12.703125 C 23.8125 12.25 24.882812 11.695312 25.765625 11.113281 Z M 5.882812 11.128906 C 6.773438 11.703125 7.828125 12.257812 9.105469 12.710938 L 8.820312 16.703125 L 3.863281 16.703125 C 4.035156 14.707031 4.730469 12.796875 5.882812 11.128906 Z M 3.859375 18.65625 L 8.824219 18.65625 L 9.265625 22.585938 C 9.265625 22.585938 5.902344 24.210938 5.875 24.230469 C 4.71875 22.570312 4.023438 20.652344 3.851562 18.65625 Z M 22.847656 18.65625 L 27.8125 18.65625 L 25.792969 24.230469 L 22.394531 22.585938 C 22.652344 21.238281 22.796875 19.890625 22.839844 18.65625 Z M 9.6875 24.484375 C 9.59375 24.398438 11.578125 28.597656 11.578125 28.597656 C 11.550781 28.644531 8.363281 27.007812 7.117188 25.75 C 7.84375 25.289062 8.679688 24.851562 9.6875 24.484375 Z M 21.945312 24.484375 C 22.957031 24.851562 23.789062 25.289062 24.515625 25.75 L 20.054688 28.597656 C 20.582031 27.839844 21.015625 27.007812 21.339844 26.210938 C 21.570312 25.65625 21.765625 25.078125 21.9375 24.484375 Z M 21.945312 24.484375 "/></g></svg>
