<svg width="64" height="64" viewBox="0 0 64 64" version="1.1"><defs><linearGradient id="linear-pattern-0" gradientUnits="userSpaceOnUse" x1="0" y1="0" x2="0" y2="1" gradientTransform="matrix(60, 0, 0, 56, 0, 4)"><stop offset="0" stop-color="#c10000" stop-opacity="1"/><stop offset="1" stop-color="#5f0000" stop-opacity="1"/></linearGradient></defs><path fill="url(#linear-pattern-0)" fill-opacity="1" d="M 36.21875 2.050781 L 62.027344 27.605469 C 64.402344 29.957031 64.417969 33.785156 62.058594 36.15625 L 36.460938 61.917969 C 34.105469 64.289062 30.269531 64.304688 27.894531 61.949219 L 2.085938 36.394531 C -0.289062 34.042969 -0.304688 30.214844 2.050781 27.84375 L 27.652344 2.082031 C 30.007812 -0.289062 33.84375 -0.304688 36.21875 2.050781 Z M 36.21875 2.050781 " /><g transform="matrix(1.0075098,0,0,1.0032698,16.221436,16.077397)"><path fill-rule="nonzero" fill="rgb(100%, 100%, 100%)" fill-opacity="1" d="M 16.289062 1.089844 C 14.757812 1.089844 13.476562 2.234375 13.304688 3.753906 C 12.148438 4.140625 11 4.640625 9.890625 5.28125 C 6.722656 7.109375 4.304688 9.726562 2.882812 12.609375 C 1.414062 12.835938 0.335938 14.09375 0.335938 15.574219 C 0.335938 16.476562 0.742188 17.332031 1.445312 17.902344 C 1.324219 20.042969 1.769531 22.164062 2.875 24.082031 C 3.898438 25.855469 5.363281 27.21875 7.085938 28.179688 C 7.390625 29.554688 8.609375 30.53125 10.015625 30.53125 C 10.765625 30.53125 11.492188 30.246094 12.046875 29.734375 C 15.46875 30.132812 19.242188 29.390625 22.664062 27.414062 C 23.371094 27.007812 24.023438 26.546875 24.648438 26.070312 C 25.085938 26.304688 25.578125 26.429688 26.070312 26.429688 C 27.726562 26.429688 29.070312 25.085938 29.070312 23.429688 C 29.070312 22.875 28.921875 22.335938 28.632812 21.863281 C 30.765625 18.664062 31.617188 14.964844 30.820312 11.558594 C 31.703125 11.011719 32.242188 10.046875 32.242188 9.011719 C 32.242188 7.355469 30.898438 6.011719 29.242188 6.011719 C 28.773438 6.011719 28.3125 6.117188 27.898438 6.328125 C 25.632812 4.09375 22.453125 2.921875 19.023438 2.859375 C 18.539062 1.78125 17.46875 1.089844 16.289062 1.089844 Z M 19.070312 5.203125 C 21.964844 5.28125 24.582031 6.296875 26.375 8.121094 C 26.285156 8.410156 26.242188 8.710938 26.242188 9.011719 C 26.242188 10.382812 27.171875 11.578125 28.5 11.914062 C 29.195312 14.65625 28.53125 17.765625 26.726562 20.503906 C 26.515625 20.453125 26.292969 20.429688 26.070312 20.429688 C 24.414062 20.429688 23.070312 21.773438 23.070312 23.429688 C 23.070312 23.703125 23.109375 23.980469 23.1875 24.246094 C 22.652344 24.648438 22.09375 25.035156 21.492188 25.382812 C 18.703125 26.996094 15.71875 27.65625 13.015625 27.484375 C 12.988281 25.84375 11.652344 24.53125 10.015625 24.53125 C 9.0625 24.53125 8.171875 24.984375 7.609375 25.746094 C 6.5 25.011719 5.574219 24.0625 4.90625 22.910156 C 4.140625 21.578125 3.789062 20.082031 3.789062 18.539062 C 5.253906 18.3125 6.335938 17.054688 6.335938 15.574219 C 6.332031 14.664062 5.917969 13.804688 5.203125 13.234375 C 6.429688 10.949219 8.414062 8.84375 11.0625 7.3125 C 12.015625 6.761719 12.992188 6.335938 13.976562 6 C 14.546875 6.6875 15.390625 7.089844 16.289062 7.089844 C 17.511719 7.085938 18.613281 6.34375 19.070312 5.203125 Z M 19.070312 5.203125 "/></g></svg>
