<svg width="64" height="64" viewBox="0 0 64 64" version="1.1"><defs><linearGradient id="linear-pattern-0" gradientUnits="userSpaceOnUse" x1="0" y1="0" x2="0" y2="1" gradientTransform="matrix(60, 0, 0, 56, 0, 4)"><stop offset="0" stop-color="#a67e50" stop-opacity="1"/><stop offset="1" stop-color="#644c30" stop-opacity="1"/></linearGradient></defs><path fill="url(#linear-pattern-0)" fill-opacity="1" d="M 36.21875 2.050781 L 62.027344 27.605469 C 64.402344 29.957031 64.417969 33.785156 62.058594 36.15625 L 36.460938 61.917969 C 34.105469 64.289062 30.269531 64.304688 27.894531 61.949219 L 2.085938 36.394531 C -0.289062 34.042969 -0.304688 30.214844 2.050781 27.84375 L 27.652344 2.082031 C 30.007812 -0.289062 33.84375 -0.304688 36.21875 2.050781 Z M 36.21875 2.050781 " /><g transform="matrix(1.0075098,0,0,1.0032698,16.221436,16.077397)"><path fill-rule="nonzero" fill="rgb(100%, 100%, 100%)" fill-opacity="1" d="M 14.609375 0.617188 C 6.398438 0.617188 4.421875 3.5625 4.421875 8.808594 C 4.421875 12.320312 5.476562 13.90625 7.335938 14.660156 C 6.296875 16.179688 5.410156 17 5.375 19.339844 C 5.429688 25.1875 20.429688 21.679688 20.429688 25.1875 C 20.429688 28.699219 10.78125 27.171875 5.878906 26.359375 L 4.421875 29.867188 C 7.390625 31.273438 11.882812 31.390625 16.0625 31.445312 C 23.339844 31.632812 27.121094 30.375 27.023438 25.1875 C 27.078125 22.433594 25.445312 19.339844 20.429688 19.339844 C 17.519531 19.339844 11.699219 19.007812 11.699219 17.839844 C 11.699219 17.472656 11.699219 16.765625 13.15625 16.453125 C 18.976562 16.609375 26.25 15.828125 26.25 8.808594 C 26.25 7.183594 26.28125 4.199219 24.796875 2.960938 L 27.703125 2.960938 L 27.703125 0.617188 Z M 15.335938 4.128906 C 18.148438 4.128906 20.429688 5.960938 20.429688 8.222656 C 20.429688 10.484375 18.148438 12.320312 15.335938 12.320312 C 12.523438 12.320312 10.242188 10.484375 10.242188 8.222656 C 10.242188 5.960938 12.523438 4.128906 15.335938 4.128906 Z M 15.335938 4.128906 "/></g></svg>
