<svg width="64" height="64" viewBox="0 0 64 64" version="1.1"><defs><linearGradient id="linear-pattern-0" gradientUnits="userSpaceOnUse" x1="0" y1="0" x2="0" y2="1" gradientTransform="matrix(60, 0, 0, 56, 0, 4)"><stop offset="0" stop-color="#d00068" stop-opacity="1"/><stop offset="1" stop-color="#6e0037" stop-opacity="1"/></linearGradient></defs><path fill="url(#linear-pattern-0)" fill-opacity="1" d="M 36.21875 2.050781 L 62.027344 27.605469 C 64.402344 29.957031 64.417969 33.785156 62.058594 36.15625 L 36.460938 61.917969 C 34.105469 64.289062 30.269531 64.304688 27.894531 61.949219 L 2.085938 36.394531 C -0.289062 34.042969 -0.304688 30.214844 2.050781 27.84375 L 27.652344 2.082031 C 30.007812 -0.289062 33.84375 -0.304688 36.21875 2.050781 Z M 36.21875 2.050781 " /><g transform="matrix(1.0075098,0,0,1.0032698,16.221436,16.077397)"><path fill-rule="nonzero" fill="rgb(100%, 100%, 100%)" fill-opacity="1" d="M 18 25.78125 L 18 21.109375 L 14 21.109375 L 14 25.78125 L 2.664062 25.78125 L 2.664062 29.78125 L 29.335938 29.78125 L 29.335938 25.78125 Z M 18 25.78125 "/><path fill-rule="evenodd" fill="rgb(100%, 100%, 100%)" fill-opacity="1" d="M 0 27.78125 C 0 25.570312 1.792969 23.78125 4 23.78125 C 6.207031 23.78125 8 25.570312 8 27.78125 C 8 29.988281 6.207031 31.78125 4 31.78125 C 1.792969 31.78125 0 29.988281 0 27.78125 Z M 12 27.78125 C 12 25.570312 13.792969 23.78125 16 23.78125 C 18.207031 23.78125 20 25.570312 20 27.78125 C 20 29.988281 18.207031 31.78125 16 31.78125 C 13.792969 31.78125 12 29.988281 12 27.78125 Z M 24 27.78125 C 24 25.570312 25.792969 23.78125 28 23.78125 C 30.207031 23.78125 32 25.570312 32 27.78125 C 32 29.988281 30.207031 31.78125 28 31.78125 C 25.792969 31.78125 24 29.988281 24 27.78125 Z M 6.109375 2.429688 L 25.890625 2.429688 C 26.320312 2.429688 26.734375 2.601562 27.039062 2.90625 C 27.34375 3.203125 27.511719 3.617188 27.511719 4.050781 L 27.511719 19.195312 C 27.511719 19.628906 27.34375 20.039062 27.039062 20.34375 C 26.734375 20.648438 26.320312 20.820312 25.890625 20.820312 L 6.109375 20.820312 C 5.679688 20.820312 5.265625 20.648438 4.960938 20.34375 C 4.65625 20.039062 4.488281 19.628906 4.488281 19.195312 L 4.488281 4.050781 C 4.488281 3.617188 4.65625 3.203125 4.960938 2.90625 C 5.265625 2.601562 5.679688 2.429688 6.109375 2.429688 Z M 6.109375 0.21875 L 25.890625 0.21875 C 26.90625 0.21875 27.882812 0.625 28.597656 1.34375 C 29.316406 2.0625 29.71875 3.03125 29.71875 4.050781 L 29.71875 19.195312 C 29.71875 20.210938 29.316406 21.1875 28.597656 21.90625 C 27.882812 22.621094 26.90625 23.023438 25.890625 23.023438 L 6.109375 23.023438 C 5.09375 23.023438 4.117188 22.621094 3.402344 21.90625 C 2.6875 21.1875 2.28125 20.210938 2.28125 19.195312 L 2.28125 4.050781 C 2.28125 3.03125 2.6875 2.0625 3.402344 1.34375 C 4.117188 0.625 5.09375 0.21875 6.109375 0.21875 Z M 6.109375 0.21875 "/></g></svg>
