<svg width="64" height="64" viewBox="0 0 64 64" version="1.1"><defs><linearGradient id="linear-pattern-0" gradientUnits="userSpaceOnUse" x1="0" y1="0" x2="0" y2="1" gradientTransform="matrix(60, 0, 0, 56, 0, 4)"><stop offset="0" stop-color="#c10000" stop-opacity="1"/><stop offset="1" stop-color="#5f0000" stop-opacity="1"/></linearGradient></defs><path fill="url(#linear-pattern-0)" fill-opacity="1" d="M 36.21875 2.050781 L 62.027344 27.605469 C 64.402344 29.957031 64.417969 33.785156 62.058594 36.15625 L 36.460938 61.917969 C 34.105469 64.289062 30.269531 64.304688 27.894531 61.949219 L 2.085938 36.394531 C -0.289062 34.042969 -0.304688 30.214844 2.050781 27.84375 L 27.652344 2.082031 C 30.007812 -0.289062 33.84375 -0.304688 36.21875 2.050781 Z M 36.21875 2.050781 " /><g transform="matrix(1.0075098,0,0,1.0032698,16.221436,16.077397)"><path fill-rule="nonzero" fill="rgb(100%, 100%, 100%)" fill-opacity="1" d="M 15.921875 0.667969 C 15.414062 0.667969 14.914062 0.863281 14.523438 1.25 L 11.734375 4.039062 L 15.273438 7.585938 C 16.09375 7.304688 17.035156 7.492188 17.6875 8.148438 C 18.34375 8.8125 18.53125 9.761719 18.242188 10.585938 L 21.648438 14 C 22.472656 13.71875 23.421875 13.898438 24.082031 14.5625 C 25.003906 15.484375 25.003906 16.976562 24.082031 17.898438 C 23.164062 18.820312 21.671875 18.820312 20.75 17.898438 C 20.0625 17.203125 19.890625 16.1875 20.242188 15.328125 L 17.0625 12.148438 L 17.0625 20.523438 C 17.289062 20.640625 17.5 20.785156 17.6875 20.972656 C 18.605469 21.894531 18.605469 23.386719 17.6875 24.3125 C 16.765625 25.234375 15.273438 25.234375 14.359375 24.3125 C 13.4375 23.386719 13.4375 21.894531 14.359375 20.972656 C 14.585938 20.742188 14.851562 20.570312 15.132812 20.457031 L 15.132812 12.003906 C 14.851562 11.886719 14.585938 11.714844 14.359375 11.484375 C 13.664062 10.789062 13.492188 9.765625 13.851562 8.90625 L 10.371094 5.414062 L 1.175781 14.632812 C 0.40625 15.40625 0.40625 16.664062 1.175781 17.4375 L 14.585938 30.890625 C 15.359375 31.664062 16.609375 31.664062 17.382812 30.890625 L 30.726562 17.5 C 31.5 16.726562 31.5 15.46875 30.726562 14.695312 L 17.320312 1.25 C 16.933594 0.863281 16.429688 0.671875 15.921875 0.671875 Z M 5.941406 13.65625 C 6.15625 13.65625 6.347656 13.707031 6.511719 13.804688 C 6.703125 13.914062 6.867188 14.039062 7.015625 14.183594 C 7.1875 14.359375 7.292969 14.53125 7.335938 14.703125 C 7.382812 14.871094 7.351562 15.007812 7.234375 15.125 C 7.1875 15.175781 7.117188 15.234375 7.039062 15.300781 C 6.953125 15.359375 6.859375 15.417969 6.746094 15.476562 C 6.71875 15.390625 6.667969 15.304688 6.601562 15.199219 C 6.539062 15.101562 6.476562 15.015625 6.398438 14.941406 C 6.335938 14.875 6.257812 14.828125 6.171875 14.792969 C 6.089844 14.761719 5.984375 14.761719 5.855469 14.800781 C 5.726562 14.835938 5.570312 14.914062 5.382812 15.046875 C 5.199219 15.179688 4.96875 15.375 4.710938 15.640625 C 4.507812 15.84375 4.34375 16.015625 4.226562 16.167969 C 4.101562 16.316406 4.015625 16.449219 3.96875 16.566406 C 3.921875 16.6875 3.910156 16.796875 3.929688 16.898438 C 3.960938 16.992188 4.019531 17.085938 4.113281 17.179688 C 4.1875 17.25 4.28125 17.320312 4.382812 17.390625 C 4.484375 17.453125 4.574219 17.5 4.660156 17.53125 C 4.59375 17.640625 4.53125 17.734375 4.476562 17.808594 C 4.429688 17.875 4.367188 17.941406 4.308594 18.003906 C 4.195312 18.121094 4.027344 18.140625 3.8125 18.066406 C 3.609375 17.992188 3.394531 17.84375 3.171875 17.617188 C 2.988281 17.433594 2.851562 17.253906 2.773438 17.078125 C 2.6875 16.898438 2.664062 16.710938 2.710938 16.496094 C 2.75 16.289062 2.859375 16.046875 3.046875 15.78125 C 3.234375 15.515625 3.515625 15.199219 3.875 14.835938 C 4.296875 14.414062 4.664062 14.117188 4.988281 13.945312 C 5.3125 13.765625 5.601562 13.671875 5.84375 13.65625 C 5.878906 13.65625 5.914062 13.65625 5.941406 13.65625 Z M 7.804688 15.546875 C 8.183594 15.546875 8.523438 15.695312 8.828125 16 C 9.015625 16.1875 9.148438 16.378906 9.226562 16.566406 C 9.3125 16.757812 9.335938 16.96875 9.289062 17.191406 C 9.238281 17.417969 9.125 17.664062 8.9375 17.9375 C 8.757812 18.210938 8.492188 18.527344 8.132812 18.882812 C 7.796875 19.21875 7.484375 19.480469 7.195312 19.667969 C 6.917969 19.851562 6.65625 19.976562 6.40625 20.023438 C 6.171875 20.078125 5.945312 20.0625 5.734375 19.988281 C 5.523438 19.910156 5.320312 19.777344 5.136719 19.589844 C 4.945312 19.398438 4.804688 19.210938 4.710938 19.023438 C 4.617188 18.847656 4.585938 18.648438 4.617188 18.425781 C 4.664062 18.203125 4.777344 17.953125 4.96875 17.671875 C 5.171875 17.382812 5.464844 17.046875 5.855469 16.65625 C 6.492188 16.015625 7.046875 15.65625 7.535156 15.570312 C 7.625 15.558594 7.714844 15.546875 7.804688 15.546875 Z M 11.78125 16.011719 C 11.828125 16.011719 11.875 16.023438 11.921875 16.046875 C 12.003906 16.085938 12.101562 16.15625 12.207031 16.25 C 12.3125 16.351562 12.445312 16.476562 12.605469 16.636719 L 7.605469 21.648438 C 7.570312 21.683594 7.539062 21.710938 7.507812 21.71875 C 7.484375 21.726562 7.4375 21.710938 7.375 21.667969 C 7.324219 21.625 7.242188 21.554688 7.132812 21.453125 L 6.6875 21 L 11.476562 16.195312 C 11.5625 16.109375 11.640625 16.054688 11.703125 16.027344 C 11.726562 16.015625 11.757812 16.015625 11.78125 16.015625 Z M 7.953125 16.574219 C 7.898438 16.574219 7.828125 16.601562 7.734375 16.648438 C 7.632812 16.703125 7.5 16.796875 7.335938 16.933594 C 7.175781 17.070312 6.96875 17.257812 6.722656 17.507812 C 6.445312 17.785156 6.238281 18.007812 6.085938 18.175781 C 5.945312 18.34375 5.84375 18.476562 5.789062 18.578125 C 5.734375 18.679688 5.707031 18.757812 5.714844 18.8125 C 5.734375 18.867188 5.765625 18.917969 5.808594 18.960938 C 5.84375 18.992188 5.882812 19.015625 5.929688 19.03125 C 5.988281 19.039062 6.070312 19.015625 6.171875 18.960938 C 6.277344 18.898438 6.414062 18.796875 6.582031 18.660156 C 6.757812 18.523438 6.984375 18.3125 7.25 18.039062 C 7.507812 17.789062 7.703125 17.585938 7.84375 17.425781 C 7.984375 17.273438 8.085938 17.140625 8.140625 17.039062 C 8.203125 16.941406 8.226562 16.863281 8.21875 16.804688 C 8.210938 16.75 8.179688 16.695312 8.125 16.648438 C 8.089844 16.609375 8.039062 16.585938 7.976562 16.578125 C 7.96875 16.578125 7.960938 16.574219 7.953125 16.574219 Z M 11.265625 18.898438 C 11.28125 18.898438 11.292969 18.898438 11.3125 18.898438 C 11.398438 18.914062 11.558594 18.984375 11.78125 19.125 C 12.015625 19.25 12.273438 19.460938 12.550781 19.738281 C 12.875 20.0625 13.039062 20.351562 13.039062 20.609375 C 13.054688 20.867188 12.898438 21.15625 12.582031 21.476562 L 11.640625 22.421875 C 11.429688 22.636719 11.222656 22.835938 11.023438 23.027344 C 10.828125 23.222656 10.640625 23.40625 10.464844 23.574219 C 10.289062 23.742188 10.132812 23.890625 9.988281 24.007812 C 9.796875 23.957031 9.597656 23.859375 9.390625 23.726562 C 9.179688 23.601562 8.96875 23.4375 8.757812 23.222656 C 8.628906 23.09375 8.515625 22.953125 8.414062 22.8125 C 8.320312 22.667969 8.265625 22.515625 8.25 22.34375 C 8.234375 22.1875 8.273438 22 8.359375 21.796875 C 8.449219 21.601562 8.617188 21.375 8.855469 21.132812 C 9.09375 20.898438 9.304688 20.722656 9.5 20.613281 C 9.699219 20.507812 9.878906 20.453125 10.039062 20.4375 C 10.195312 20.429688 10.335938 20.460938 10.464844 20.53125 C 10.59375 20.597656 10.710938 20.679688 10.8125 20.785156 C 10.863281 20.835938 10.929688 20.914062 11.003906 21.015625 C 11.078125 21.121094 11.132812 21.230469 11.15625 21.339844 L 11.640625 20.851562 C 11.730469 20.761719 11.773438 20.671875 11.765625 20.585938 C 11.765625 20.5 11.710938 20.40625 11.605469 20.300781 C 11.476562 20.171875 11.3125 20.039062 11.125 19.910156 C 10.945312 19.78125 10.773438 19.679688 10.617188 19.609375 C 10.65625 19.484375 10.707031 19.375 10.773438 19.28125 C 10.847656 19.179688 10.910156 19.101562 10.964844 19.046875 C 11.007812 19.007812 11.058594 18.96875 11.121094 18.933594 C 11.171875 18.910156 11.222656 18.898438 11.265625 18.898438 Z M 10.296875 21.539062 C 10.265625 21.539062 10.242188 21.546875 10.210938 21.554688 C 10.09375 21.585938 9.925781 21.714844 9.703125 21.9375 C 9.53125 22.109375 9.429688 22.242188 9.382812 22.34375 C 9.34375 22.449219 9.367188 22.546875 9.457031 22.636719 C 9.492188 22.664062 9.53125 22.695312 9.566406 22.71875 C 9.621094 22.742188 9.671875 22.753906 9.71875 22.753906 C 9.757812 22.722656 9.8125 22.667969 9.882812 22.597656 C 9.964844 22.53125 10.046875 22.453125 10.132812 22.367188 L 10.632812 21.863281 C 10.632812 21.820312 10.617188 21.773438 10.582031 21.730469 C 10.5625 21.6875 10.535156 21.652344 10.507812 21.625 C 10.445312 21.5625 10.375 21.539062 10.296875 21.539062 Z M 10.296875 21.539062 "/></g></svg>
