<svg width="64" height="64" viewBox="0 0 64 64" version="1.1"><defs><linearGradient id="linear-pattern-0" gradientUnits="userSpaceOnUse" x1="0" y1="0" x2="0" y2="1" gradientTransform="matrix(60, 0, 0, 56, 0, 4)"><stop offset="0" stop-color="#00a07f" stop-opacity="1"/><stop offset="1" stop-color="#005241" stop-opacity="1"/></linearGradient></defs><path fill="url(#linear-pattern-0)" fill-opacity="1" d="M 36.21875 2.050781 L 62.027344 27.605469 C 64.402344 29.957031 64.417969 33.785156 62.058594 36.15625 L 36.460938 61.917969 C 34.105469 64.289062 30.269531 64.304688 27.894531 61.949219 L 2.085938 36.394531 C -0.289062 34.042969 -0.304688 30.214844 2.050781 27.84375 L 27.652344 2.082031 C 30.007812 -0.289062 33.84375 -0.304688 36.21875 2.050781 Z M 36.21875 2.050781 " /><g transform="matrix(1.0075098,0,0,1.0032698,16.221436,16.077397)"><path fill-rule="nonzero" fill="rgb(100%, 100%, 100%)" fill-opacity="1" d="M 1.15625 1.046875 L 1.15625 10.402344 C 1.15625 14.289062 4.484375 17.421875 8.601562 17.421875 L 8.71875 17.421875 C 9.25 20.359375 11.695312 22.664062 14.8125 23.167969 L 14.8125 31.460938 L 17.296875 31.460938 L 17.296875 23.167969 C 20.40625 22.667969 22.851562 20.359375 23.386719 17.421875 L 23.5 17.421875 C 27.621094 17.421875 30.945312 14.289062 30.945312 10.402344 L 30.945312 1.046875 L 28.464844 1.046875 L 28.464844 10.402344 L 23.390625 15.085938 C 22.859375 12.132812 20.410156 9.828125 17.296875 9.339844 L 17.296875 1.046875 L 14.8125 1.046875 L 14.8125 9.339844 L 8.609375 15.085938 C 5.851562 15.085938 3.644531 13 3.644531 10.402344 L 3.644531 1.046875 Z M 1.15625 1.046875 "/></g></svg>
