<svg width="64" height="64" viewBox="0 0 64 64" version="1.1"><defs><linearGradient id="linear-pattern-0" gradientUnits="userSpaceOnUse" x1="0" y1="0" x2="0" y2="1" gradientTransform="matrix(60, 0, 0, 56, 0, 4)"><stop offset="0" stop-color="#0288cf" stop-opacity="1"/><stop offset="1" stop-color="#01486e" stop-opacity="1"/></linearGradient></defs><path fill="url(#linear-pattern-0)" fill-opacity="1" d="M 36.21875 2.050781 L 62.027344 27.605469 C 64.402344 29.957031 64.417969 33.785156 62.058594 36.15625 L 36.460938 61.917969 C 34.105469 64.289062 30.269531 64.304688 27.894531 61.949219 L 2.085938 36.394531 C -0.289062 34.042969 -0.304688 30.214844 2.050781 27.84375 L 27.652344 2.082031 C 30.007812 -0.289062 33.84375 -0.304688 36.21875 2.050781 Z M 36.21875 2.050781 " /><g transform="matrix(1.0075098,0,0,1.0032698,16.221436,16.077397)"><path fill-rule="nonzero" fill="rgb(100%, 100%, 100%)" fill-opacity="1" d="M 0.890625 0.777344 L 0.890625 6.328125 L 4.402344 6.328125 L 5.570312 25.746094 L 0.890625 25.746094 L 0.890625 29.90625 C 0.890625 30.675781 1.414062 31.296875 2.0625 31.296875 L 30.15625 31.296875 C 30.804688 31.296875 31.328125 30.675781 31.328125 29.90625 L 31.328125 25.746094 L 26.648438 25.746094 L 26.648438 7.710938 C 26.648438 6.945312 27.171875 6.328125 27.816406 6.328125 L 31.328125 6.328125 L 31.328125 2.164062 C 31.328125 1.398438 30.804688 0.777344 30.15625 0.777344 Z M 3.816406 2.164062 L 6.15625 2.164062 L 3.234375 4.246094 L 3.234375 2.859375 C 3.234375 2.476562 3.492188 2.164062 3.816406 2.164062 Z M 9.671875 2.164062 L 12.011719 2.164062 L 9.085938 4.246094 L 9.085938 2.859375 C 9.085938 2.476562 9.34375 2.164062 9.671875 2.164062 Z M 15.523438 2.164062 L 17.867188 2.164062 L 14.9375 4.246094 L 14.9375 2.859375 C 14.9375 2.476562 15.199219 2.164062 15.523438 2.164062 Z M 21.375 2.164062 L 23.71875 2.164062 L 20.792969 4.246094 L 20.792969 2.859375 C 20.792969 2.476562 21.054688 2.164062 21.375 2.164062 Z M 27.234375 2.164062 L 29.570312 2.164062 L 26.648438 4.246094 L 26.648438 2.859375 C 26.648438 2.476562 26.90625 2.164062 27.234375 2.164062 Z M 7.914062 6.328125 L 24.304688 6.328125 L 25.476562 24.359375 L 6.742188 24.359375 L 6.742188 7.710938 C 6.742188 6.945312 7.265625 6.328125 7.914062 6.328125 Z M 9.671875 11.875 C 8.703125 11.875 7.914062 12.804688 7.914062 13.953125 C 7.914062 15.105469 8.703125 16.035156 9.671875 16.035156 L 9.085938 21.585938 C 9.085938 22.351562 9.609375 22.972656 10.257812 22.972656 C 10.902344 22.972656 11.429688 22.351562 11.429688 21.585938 C 11.429688 19.335938 12.582031 17.316406 14.335938 16.46875 C 14.785156 17.074219 15.429688 17.421875 16.109375 17.421875 C 16.796875 17.421875 17.445312 17.070312 17.890625 16.453125 C 19.644531 17.308594 20.792969 19.335938 20.792969 21.585938 C 20.792969 22.351562 21.316406 22.972656 21.960938 22.972656 C 22.609375 22.972656 23.132812 22.351562 23.132812 21.585938 C 23.132812 18.796875 21.953125 16.191406 19.992188 14.648438 L 20.898438 14.648438 C 21.144531 15.476562 21.804688 16.03125 22.546875 16.035156 C 23.515625 16.035156 24.304688 15.105469 24.304688 13.953125 C 24.304688 12.804688 23.515625 11.875 22.546875 11.875 C 21.804688 11.875 21.144531 12.429688 20.898438 13.261719 Z M 9.671875 13.261719 C 9.992188 13.261719 10.257812 13.570312 10.257812 13.953125 C 10.257812 14.335938 9.992188 14.648438 9.671875 14.648438 C 9.347656 14.648438 9.085938 14.335938 9.085938 13.953125 C 9.085938 13.570312 9.347656 13.261719 9.671875 13.261719 Z M 22.546875 13.261719 C 22.871094 13.261719 23.132812 13.570312 23.132812 13.953125 C 23.132812 14.335938 22.871094 14.648438 22.546875 14.648438 C 22.226562 14.648438 21.960938 14.335938 21.960938 13.953125 C 21.960938 13.570312 22.226562 13.261719 22.546875 13.261719 Z M 3.816406 27.132812 L 6.15625 27.132812 L 3.234375 29.210938 L 3.234375 27.828125 C 3.234375 27.441406 3.492188 27.132812 3.816406 27.132812 Z M 9.671875 27.132812 L 12.011719 27.132812 L 9.085938 29.210938 L 9.085938 27.828125 C 9.085938 27.441406 9.34375 27.132812 9.671875 27.132812 Z M 15.523438 27.132812 L 17.867188 27.132812 L 14.9375 29.210938 L 14.9375 27.828125 C 14.9375 27.441406 15.199219 27.132812 15.523438 27.132812 Z M 21.375 27.132812 L 23.71875 27.132812 L 20.792969 29.210938 L 20.792969 27.828125 C 20.792969 27.441406 21.054688 27.132812 21.375 27.132812 Z M 27.234375 27.132812 L 29.570312 27.132812 L 26.648438 29.210938 L 26.648438 27.828125 C 26.648438 27.441406 26.90625 27.132812 27.234375 27.132812 Z M 27.234375 27.132812 "/></g></svg>
