<svg width="64" height="64" viewBox="0 0 64 64" version="1.1"><defs><linearGradient id="linear-pattern-0" gradientUnits="userSpaceOnUse" x1="0" y1="0" x2="0" y2="1" gradientTransform="matrix(60, 0, 0, 56, 0, 4)"><stop offset="0" stop-color="#6926fc" stop-opacity="1"/><stop offset="1" stop-color="#3702ab" stop-opacity="1"/></linearGradient></defs><path fill="url(#linear-pattern-0)" fill-opacity="1" d="M 36.21875 2.050781 L 62.027344 27.605469 C 64.402344 29.957031 64.417969 33.785156 62.058594 36.15625 L 36.460938 61.917969 C 34.105469 64.289062 30.269531 64.304688 27.894531 61.949219 L 2.085938 36.394531 C -0.289062 34.042969 -0.304688 30.214844 2.050781 27.84375 L 27.652344 2.082031 C 30.007812 -0.289062 33.84375 -0.304688 36.21875 2.050781 Z M 36.21875 2.050781 " /><g transform="matrix(1.0075098,0,0,1.0032698,16.221436,16.077397)"><path fill-rule="nonzero" fill="rgb(100%, 100%, 100%)" fill-opacity="1" d="M 22.980469 1.097656 C 22.980469 1.097656 22.96875 2.242188 22.929688 2.695312 C 22 2.773438 20.546875 2.789062 20.546875 2.789062 L 20.632812 4.066406 C 20.632812 4.066406 22.148438 3.976562 22.882812 3.9375 C 22.851562 4.492188 22.828125 5.085938 22.835938 5.78125 C 20.953125 6.6875 20.085938 7.882812 20.085938 9.46875 C 20.085938 11.117188 21.835938 11.742188 23.234375 11.265625 C 23.59375 11.140625 23.8125 11.007812 24.03125 10.882812 C 24.109375 11 24.179688 11.265625 24.179688 11.265625 L 25.835938 10.625 C 25.835938 10.625 25.464844 9.980469 25.375 9.722656 C 26.285156 8.710938 26.894531 7.539062 27.320312 6.421875 C 28.597656 6.570312 29.8125 7.191406 29.617188 8.480469 C 29.40625 9.925781 27.484375 10.488281 26.125 10.75 L 26.773438 12.125 C 29.09375 11.699219 31.199219 10.1875 31.257812 8.4375 C 31.3125 7.003906 30.5625 6.21875 29.066406 5.609375 C 28.523438 5.390625 28.074219 5.335938 27.71875 5.265625 L 27.921875 4.28125 L 26.324219 4.152344 C 26.324219 4.152344 26.226562 4.773438 26.171875 5.09375 C 25.4375 5.132812 24.8125 5.230469 24.273438 5.351562 C 24.28125 4.945312 24.289062 4.484375 24.328125 3.898438 C 25.21875 3.839844 27.183594 3.421875 28.367188 3.210938 C 28.242188 2.777344 28.164062 2.382812 28.039062 1.945312 C 26.761719 2.304688 25.507812 2.515625 24.441406 2.632812 C 24.429688 2.128906 24.777344 1.273438 24.777344 1.273438 Z M 25.71875 6.335938 C 25.511719 7.078125 25.089844 7.71875 24.722656 8.351562 C 24.476562 7.773438 24.414062 7.136719 24.324219 6.59375 C 24.867188 6.460938 25.324219 6.375 25.71875 6.335938 Z M 22.929688 7.152344 C 23.054688 8 23.269531 8.863281 23.53125 9.589844 C 22.9375 10.074219 21.945312 10.523438 21.679688 9.976562 C 21.09375 8.75 21.84375 7.773438 22.929688 7.152344 Z M 5.128906 7.992188 L 0.921875 17.640625 L 3.53125 17.640625 L 4.753906 14.882812 L 8.265625 14.882812 L 9.554688 17.640625 L 12.09375 17.640625 L 7.9375 7.992188 Z M 6.519531 10.269531 L 7.921875 13.507812 L 5.128906 13.507812 Z M 13.097656 23.15625 C 11.445312 23.15625 10.859375 23.863281 9.964844 25.027344 L 11.257812 25.921875 C 11.976562 24.6875 13.15625 24.464844 13.679688 24.925781 C 14.207031 25.382812 13.953125 25.9375 13.453125 26.296875 C 12.855469 26.726562 12.1875 26.601562 11.484375 26.609375 L 12.195312 28.144531 C 12.480469 27.949219 12.980469 27.890625 13.269531 27.90625 C 14.351562 27.945312 14.671875 28.4375 14.664062 29.167969 C 14.664062 29.902344 14.222656 30.015625 13.746094 30.023438 C 12.101562 30.046875 11.183594 28.460938 10.636719 27.117188 L 9.320312 27.859375 C 10.0625 29.859375 12.101562 31.429688 13.699219 31.429688 C 15.296875 31.429688 16.40625 30.632812 16.375 28.859375 L 16.890625 28.671875 L 16.890625 31.429688 L 18.488281 31.429688 L 18.488281 24.535156 L 20.085938 24.535156 L 20.085938 31.429688 L 21.683594 31.429688 L 21.683594 24.535156 L 23.28125 24.535156 L 23.28125 23.15625 L 15.613281 23.15625 L 15.613281 24.539062 L 16.890625 24.539062 L 16.890625 27.289062 C 16.09375 27.289062 15.648438 27.15625 15.007812 26.875 C 15.398438 26.46875 15.585938 26.003906 15.585938 25.476562 C 15.585938 24.824219 15.351562 24.273438 14.867188 23.828125 C 14.386719 23.382812 13.699219 23.15625 13.097656 23.15625 Z M 13.097656 23.15625 "/></g></svg>
