<svg width="64" height="64" viewBox="0 0 64 64" version="1.1"><defs><linearGradient id="linear-pattern-0" gradientUnits="userSpaceOnUse" x1="0" y1="0" x2="0" y2="1" gradientTransform="matrix(60, 0, 0, 56, 0, 4)"><stop offset="0" stop-color="#7795ab" stop-opacity="1"/><stop offset="1" stop-color="#3b4f5f" stop-opacity="1"/></linearGradient></defs><path fill="url(#linear-pattern-0)" fill-opacity="1" d="M 36.21875 2.050781 L 62.027344 27.605469 C 64.402344 29.957031 64.417969 33.785156 62.058594 36.15625 L 36.460938 61.917969 C 34.105469 64.289062 30.269531 64.304688 27.894531 61.949219 L 2.085938 36.394531 C -0.289062 34.042969 -0.304688 30.214844 2.050781 27.84375 L 27.652344 2.082031 C 30.007812 -0.289062 33.84375 -0.304688 36.21875 2.050781 Z M 36.21875 2.050781 " /><g transform="matrix(1.0075098,0,0,1.0032698,16.221436,16.077397)"><path fill-rule="nonzero" fill="rgb(100%, 100%, 100%)" fill-opacity="1" d="M 2.265625 3.96875 C 1.3125 3.96875 0.554688 4.804688 0.554688 5.835938 L 0.554688 26.953125 C 0.554688 27.988281 1.3125 28.820312 2.265625 28.820312 C 3.207031 28.820312 3.96875 27.992188 3.96875 26.953125 L 3.96875 5.835938 C 3.96875 4.804688 3.207031 3.96875 2.265625 3.96875 M 29.824219 3.96875 C 28.875 3.96875 28.117188 4.804688 28.117188 5.835938 L 28.117188 26.953125 C 28.117188 27.988281 28.875 28.820312 29.824219 28.820312 C 30.773438 28.820312 31.535156 27.992188 31.535156 26.953125 L 31.535156 5.835938 C 31.535156 4.804688 30.773438 3.96875 29.824219 3.96875 "/><path fill-rule="nonzero" fill="rgb(100%, 100%, 100%)" fill-opacity="1" d="M 2.230469 3.78125 C 1.285156 3.78125 0.523438 4.617188 0.523438 5.648438 L 0.523438 7.5 L 2.125 8.757812 L 3.9375 10.1875 L 13.789062 17.953125 C 15.023438 18.929688 17.007812 18.929688 18.242188 17.953125 L 28.085938 10.195312 L 29.117188 9.382812 L 31.503906 7.5 L 31.503906 5.648438 C 31.503906 4.617188 30.742188 3.789062 29.792969 3.789062 C 29.550781 3.789062 29.324219 3.839844 29.117188 3.933594 L 29.117188 3.882812 L 28.867188 4.085938 C 28.859375 4.085938 28.859375 4.085938 28.859375 4.085938 L 28.835938 4.101562 C 28.789062 4.136719 28.746094 4.171875 28.703125 4.210938 L 18.242188 12.460938 C 17.007812 13.429688 15.023438 13.429688 13.789062 12.460938 L 3.335938 4.21875 L 3.335938 4.226562 C 3.285156 4.183594 3.238281 4.140625 3.1875 4.101562 C 2.914062 3.90625 2.585938 3.789062 2.230469 3.789062 "/></g></svg>
