<svg width="64" height="64" viewBox="0 0 64 64" version="1.1"><defs><linearGradient id="linear-pattern-0" gradientUnits="userSpaceOnUse" x1="0" y1="0" x2="0" y2="1" gradientTransform="matrix(60, 0, 0, 56, 0, 4)"><stop offset="0" stop-color="#00983a" stop-opacity="1"/><stop offset="1" stop-color="#004a1c" stop-opacity="1"/></linearGradient></defs><path fill="url(#linear-pattern-0)" fill-opacity="1" d="M 36.21875 2.050781 L 62.027344 27.605469 C 64.402344 29.957031 64.417969 33.785156 62.058594 36.15625 L 36.460938 61.917969 C 34.105469 64.289062 30.269531 64.304688 27.894531 61.949219 L 2.085938 36.394531 C -0.289062 34.042969 -0.304688 30.214844 2.050781 27.84375 L 27.652344 2.082031 C 30.007812 -0.289062 33.84375 -0.304688 36.21875 2.050781 Z M 36.21875 2.050781 " /><g transform="matrix(1.0075098,0,0,1.0032698,16.221436,16.077397)"><path fill-rule="nonzero" fill="rgb(100%, 100%, 100%)" fill-opacity="1" d="M 0.898438 0.992188 L 0.898438 13.242188 L 4.117188 13.242188 L 4.117188 7.117188 L 5.726562 10.179688 L 8.945312 10.179688 L 10.554688 7.117188 L 10.554688 13.242188 L 13.773438 13.242188 L 13.773438 0.992188 L 10.554688 0.992188 L 7.335938 7.117188 L 4.117188 0.992188 Z M 21.820312 19.367188 L 21.820312 31.621094 L 25.042969 31.621094 L 25.042969 28.558594 L 26.65625 28.558594 C 29.328125 28.558594 31.484375 26.507812 31.484375 23.960938 C 31.484375 21.421875 29.328125 19.367188 26.65625 19.367188 Z M 25.042969 22.429688 L 26.65625 22.429688 C 27.546875 22.429688 28.265625 23.117188 28.265625 23.960938 C 28.265625 24.8125 27.546875 25.496094 26.65625 25.496094 L 25.042969 25.496094 Z M 25.042969 22.429688 "/><path fill-rule="nonzero" fill="rgb(100%, 100%, 100%)" fill-opacity="1" d="M 23.359375 1.085938 L 21 3.597656 L 23.359375 6.109375 L 21 8.621094 L 23.359375 11.132812 L 25.710938 8.621094 L 28.070312 11.132812 L 30.425781 8.621094 L 28.070312 6.109375 L 30.425781 3.597656 L 28.070312 1.085938 L 25.710938 3.597656 Z M 5.304688 21.183594 L 5.304688 24.53125 L 2.160156 24.53125 L 2.160156 27.882812 L 5.304688 27.882812 L 5.304688 31.234375 L 8.441406 31.234375 L 8.441406 27.882812 L 11.578125 27.882812 L 11.578125 24.53125 L 8.441406 24.53125 L 8.441406 21.183594 Z M 5.304688 21.183594 "/></g></svg>
