<svg width="64" height="64" viewBox="0 0 64 64" version="1.1"><defs><linearGradient id="linear-pattern-0" gradientUnits="userSpaceOnUse" x1="0" y1="0" x2="0" y2="1" gradientTransform="matrix(60, 0, 0, 56, 0, 4)"><stop offset="0" stop-color="#6926fc" stop-opacity="1"/><stop offset="1" stop-color="#3702ab" stop-opacity="1"/></linearGradient></defs><path fill="url(#linear-pattern-0)" fill-opacity="1" d="M 36.21875 2.050781 L 62.027344 27.605469 C 64.402344 29.957031 64.417969 33.785156 62.058594 36.15625 L 36.460938 61.917969 C 34.105469 64.289062 30.269531 64.304688 27.894531 61.949219 L 2.085938 36.394531 C -0.289062 34.042969 -0.304688 30.214844 2.050781 27.84375 L 27.652344 2.082031 C 30.007812 -0.289062 33.84375 -0.304688 36.21875 2.050781 Z M 36.21875 2.050781 " /><g transform="matrix(1.0075098,0,0,1.0032698,16.221436,16.077397)"><path fill-rule="nonzero" fill="rgb(100%, 100%, 100%)" fill-opacity="1" d="M 15.242188 7.640625 C 15.242188 11.851562 11.828125 15.257812 7.625 15.257812 C 3.414062 15.257812 0.00390625 11.851562 0.00390625 7.640625 C 0.00390625 3.433594 3.414062 0.0234375 7.625 0.0234375 C 11.832031 0.0234375 15.242188 3.433594 15.242188 7.640625 Z M 15.242188 7.640625 "/><path fill-rule="nonzero" fill="rgb(100%, 100%, 100%)" fill-opacity="1" d="M 32 24.382812 C 32 28.589844 28.585938 32 24.382812 32 C 20.171875 32 16.765625 28.589844 16.761719 24.382812 C 16.757812 20.171875 20.171875 16.757812 24.382812 16.757812 C 28.589844 16.757812 32 20.171875 32 24.382812 Z M 32 24.382812 "/></g></svg>
