<svg width="64" height="64" viewBox="0 0 64 64" version="1.1"><defs><linearGradient id="linear-pattern-0" gradientUnits="userSpaceOnUse" x1="0" y1="0" x2="0" y2="1" gradientTransform="matrix(60, 0, 0, 56, 0, 4)"><stop offset="0" stop-color="#008a97" stop-opacity="1"/><stop offset="1" stop-color="#00545c" stop-opacity="1"/></linearGradient></defs><path fill="url(#linear-pattern-0)" fill-opacity="1" d="M 36.21875 2.050781 L 62.027344 27.605469 C 64.402344 29.957031 64.417969 33.785156 62.058594 36.15625 L 36.460938 61.917969 C 34.105469 64.289062 30.269531 64.304688 27.894531 61.949219 L 2.085938 36.394531 C -0.289062 34.042969 -0.304688 30.214844 2.050781 27.84375 L 27.652344 2.082031 C 30.007812 -0.289062 33.84375 -0.304688 36.21875 2.050781 Z M 36.21875 2.050781 " /><g transform="matrix(1.0075098,0,0,1.0032698,16.221436,16.077397)"><path fill-rule="nonzero" fill="rgb(100%, 100%, 100%)" fill-opacity="1" d="M 5.054688 0.992188 C 4.179688 0.992188 3.453125 1.6875 3.453125 2.53125 L 3.453125 8.40625 C 3.453125 9.253906 4.179688 9.953125 5.054688 9.953125 L 11.140625 9.953125 C 11.859375 9.953125 12.46875 9.492188 12.675781 8.867188 C 12.875 9.492188 13.484375 9.953125 14.199219 9.953125 L 20.289062 9.953125 C 21.007812 9.953125 21.621094 9.492188 21.824219 8.867188 C 21.980469 9.347656 22.375 9.734375 22.875 9.886719 C 22.226562 10.078125 21.75 10.664062 21.75 11.355469 L 21.75 17.230469 C 21.75 18.078125 22.46875 18.769531 23.347656 18.769531 L 29.441406 18.769531 C 30.320312 18.769531 31.046875 18.078125 31.046875 17.230469 L 31.046875 11.355469 C 31.046875 10.664062 30.570312 10.078125 29.917969 9.886719 C 30.570312 9.6875 31.046875 9.097656 31.046875 8.40625 L 31.046875 2.53125 C 31.046875 1.6875 30.320312 0.992188 29.441406 0.992188 L 23.347656 0.992188 C 22.632812 0.992188 22.027344 1.445312 21.824219 2.070312 C 21.621094 1.445312 21.007812 0.992188 20.289062 0.992188 L 14.199219 0.992188 C 13.484375 0.992188 12.875 1.445312 12.675781 2.070312 C 12.46875 1.445312 11.859375 0.992188 11.140625 0.992188 Z M 5.054688 1.820312 L 11.140625 1.820312 C 11.558594 1.820312 11.882812 2.132812 11.882812 2.53125 L 11.882812 8.40625 C 11.882812 8.8125 11.558594 9.125 11.140625 9.125 L 5.054688 9.125 C 4.640625 9.125 4.3125 8.8125 4.3125 8.40625 L 4.3125 2.53125 C 4.3125 2.132812 4.640625 1.820312 5.054688 1.820312 Z M 14.199219 1.820312 L 20.289062 1.820312 C 20.710938 1.820312 21.035156 2.132812 21.035156 2.53125 L 21.035156 8.40625 C 21.035156 8.8125 20.710938 9.125 20.289062 9.125 L 14.199219 9.125 C 13.78125 9.125 13.460938 8.8125 13.460938 8.40625 L 13.460938 2.53125 C 13.460938 2.132812 13.78125 1.820312 14.199219 1.820312 Z M 23.347656 1.820312 L 29.441406 1.820312 C 29.859375 1.820312 30.1875 2.132812 30.1875 2.53125 L 30.1875 8.40625 C 30.1875 8.8125 29.859375 9.125 29.441406 9.125 L 23.347656 9.125 C 22.929688 9.125 22.613281 8.8125 22.613281 8.40625 L 22.613281 2.53125 C 22.613281 2.132812 22.929688 1.820312 23.347656 1.820312 Z M 23.347656 10.648438 L 29.441406 10.648438 C 29.859375 10.648438 30.1875 10.953125 30.1875 11.355469 L 30.1875 17.230469 C 30.1875 17.632812 29.859375 17.9375 29.441406 17.9375 L 23.347656 17.9375 C 22.929688 17.9375 22.613281 17.632812 22.613281 17.230469 L 22.613281 11.355469 C 22.613281 10.953125 22.929688 10.648438 23.347656 10.648438 Z M 10.90625 14.671875 C 10.261719 14.671875 9.742188 15.171875 9.742188 15.796875 L 9.742188 21.671875 C 9.742188 22.296875 10.261719 22.796875 10.90625 22.796875 L 17.003906 22.796875 C 17.652344 22.796875 18.179688 22.296875 18.179688 21.671875 L 18.179688 15.796875 C 18.179688 15.171875 17.652344 14.671875 17.003906 14.671875 Z M 1.757812 23.492188 C 1.109375 23.492188 0.59375 23.992188 0.59375 24.617188 L 0.59375 30.492188 C 0.59375 31.117188 1.109375 31.617188 1.757812 31.617188 L 7.855469 31.617188 C 8.5 31.617188 9.03125 31.117188 9.03125 30.492188 L 9.03125 24.617188 C 9.03125 23.992188 8.5 23.492188 7.855469 23.492188 Z M 10.90625 23.492188 C 10.261719 23.492188 9.742188 23.992188 9.742188 24.617188 L 9.742188 30.492188 C 9.742188 31.117188 10.261719 31.617188 10.90625 31.617188 L 17.003906 31.617188 C 17.652344 31.617188 18.179688 31.117188 18.179688 30.492188 L 18.179688 24.617188 C 18.179688 23.992188 17.652344 23.492188 17.003906 23.492188 Z M 20.058594 23.492188 C 19.410156 23.492188 18.894531 23.992188 18.894531 24.617188 L 18.894531 30.492188 C 18.894531 31.117188 19.410156 31.617188 20.058594 31.617188 L 26.15625 31.617188 C 26.800781 31.617188 27.316406 31.117188 27.316406 30.492188 L 27.316406 24.617188 C 27.316406 23.992188 26.800781 23.492188 26.15625 23.492188 Z M 20.058594 23.492188 "/></g></svg>
