<svg width="64" height="64" viewBox="0 0 64 64" version="1.1"><defs><linearGradient id="linear-pattern-0" gradientUnits="userSpaceOnUse" x1="0" y1="0" x2="0" y2="1" gradientTransform="matrix(60, 0, 0, 56, 0, 4)"><stop offset="0" stop-color="#00983a" stop-opacity="1"/><stop offset="1" stop-color="#004a1c" stop-opacity="1"/></linearGradient></defs><path fill="url(#linear-pattern-0)" fill-opacity="1" d="M 36.21875 2.050781 L 62.027344 27.605469 C 64.402344 29.957031 64.417969 33.785156 62.058594 36.15625 L 36.460938 61.917969 C 34.105469 64.289062 30.269531 64.304688 27.894531 61.949219 L 2.085938 36.394531 C -0.289062 34.042969 -0.304688 30.214844 2.050781 27.84375 L 27.652344 2.082031 C 30.007812 -0.289062 33.84375 -0.304688 36.21875 2.050781 Z M 36.21875 2.050781 " /><g transform="matrix(1.0075098,0,0,1.0032698,16.221436,16.077397)"><path fill-rule="nonzero" fill="rgb(100%, 100%, 100%)" fill-opacity="1" d="M 16.195312 1.308594 C 14.257812 1.308594 12.6875 2.980469 12.6875 5.046875 C 12.6875 7.109375 14.257812 8.78125 16.195312 8.78125 C 18.132812 8.78125 19.707031 7.109375 19.707031 5.046875 C 19.707031 2.980469 18.132812 1.308594 16.195312 1.308594 Z M 5.664062 12.515625 L 16.195312 31.199219 L 26.726562 12.515625 Z M 4.496094 21.234375 C 2.554688 21.234375 0.984375 22.910156 0.984375 24.972656 C 0.984375 27.039062 2.554688 28.710938 4.496094 28.710938 C 6.4375 28.710938 8.007812 27.039062 8.007812 24.972656 C 8.007812 22.910156 6.4375 21.234375 4.496094 21.234375 Z M 27.898438 21.234375 C 25.960938 21.234375 24.386719 22.910156 24.386719 24.972656 C 24.386719 27.039062 25.960938 28.710938 27.898438 28.710938 C 29.835938 28.710938 31.40625 27.039062 31.40625 24.972656 C 31.40625 22.910156 29.835938 21.234375 27.898438 21.234375 Z M 27.898438 21.234375 "/></g></svg>
