<svg width="64" height="64" viewBox="0 0 64 64" version="1.1"><defs><linearGradient id="linear-pattern-0" gradientUnits="userSpaceOnUse" x1="0" y1="0" x2="0" y2="1" gradientTransform="matrix(60, 0, 0, 56, 0, 4)"><stop offset="0" stop-color="#0288cf" stop-opacity="1"/><stop offset="1" stop-color="#01486e" stop-opacity="1"/></linearGradient></defs><path fill="url(#linear-pattern-0)" fill-opacity="1" d="M 36.21875 2.050781 L 62.027344 27.605469 C 64.402344 29.957031 64.417969 33.785156 62.058594 36.15625 L 36.460938 61.917969 C 34.105469 64.289062 30.269531 64.304688 27.894531 61.949219 L 2.085938 36.394531 C -0.289062 34.042969 -0.304688 30.214844 2.050781 27.84375 L 27.652344 2.082031 C 30.007812 -0.289062 33.84375 -0.304688 36.21875 2.050781 Z M 36.21875 2.050781 " /><g transform="matrix(1.0075098,0,0,1.0032698,16.221436,16.077397)"><path fill-rule="nonzero" fill="rgb(100%, 100%, 100%)" fill-opacity="1" d="M 3.9375 0.0625 C 1.757812 0.0625 0 1.820312 0 4 L 0 28 C 0 30.179688 1.757812 31.9375 3.9375 31.9375 L 28.0625 31.9375 C 30.242188 31.9375 32 30.179688 32 28 L 32 4 C 32 1.820312 30.242188 0.0625 28.0625 0.0625 Z M 3.9375 2.0625 L 28.0625 2.0625 C 29.167969 2.0625 30 2.894531 30 4 L 30 26.0625 C 30 27.167969 29.167969 28 28.0625 28 L 3.9375 28 C 2.832031 28 2 27.167969 2 26.0625 L 2 4 C 2 2.796875 2.710938 2.0625 3.9375 2.0625 Z M 4 4 L 4 6 L 6 6 L 6 4 Z M 8 4 L 8 6 L 10 6 L 10 4 Z M 14 4 L 14 6 L 16 6 L 16 4 Z M 18 4 L 18 6 L 20 6 L 20 4 Z M 22 4 L 22 6 L 24 6 L 24 4 Z M 26 4 L 26 6 L 28 6 L 28 4 Z M 4 8 L 4 10 L 6 10 L 6 8 Z M 8 8 L 8 10 L 10 10 L 10 8 Z M 14 8 L 14 10 L 16 10 L 16 8 Z M 18 8 L 18 10 L 20 10 L 20 8 Z M 22 8 L 22 10 L 24 10 L 24 8 Z M 26 8 L 26 10 L 28 10 L 28 8 Z M 22 12 L 22 14 L 20 14 C 18.910156 14 18 14.910156 18 16 L 18 18 C 18 19.089844 18.910156 20 20 20 L 26 20 C 27.09375 20 28 19.089844 28 18 L 28 16 C 28 14.910156 27.09375 14 26 14 L 24 14 L 24 12 Z M 10 14 C 6.699219 14 4 16.695312 4 20 C 4 23.300781 6.699219 26 10 26 C 13.304688 26 16 23.300781 16 20 C 16 16.695312 13.304688 14 10 14 Z M 10 16 C 12.21875 16 14 17.78125 14 20 C 14 22.21875 12.21875 24 10 24 C 7.78125 24 6 22.21875 6 20 C 6 17.78125 7.78125 16 10 16 Z M 20 16 L 26 16 L 26 18 L 20 18 Z M 22 22 L 22 26 L 24 26 L 24 22 Z M 22 22 "/></g></svg>
