<svg width="64" height="64" viewBox="0 0 64 64" version="1.1"><defs><linearGradient id="linear-pattern-0" gradientUnits="userSpaceOnUse" x1="0" y1="0" x2="0" y2="1" gradientTransform="matrix(60, 0, 0, 56, 0, 4)"><stop offset="0" stop-color="#008a97" stop-opacity="1"/><stop offset="1" stop-color="#00545c" stop-opacity="1"/></linearGradient></defs><path fill="url(#linear-pattern-0)" fill-opacity="1" d="M 36.21875 2.050781 L 62.027344 27.605469 C 64.402344 29.957031 64.417969 33.785156 62.058594 36.15625 L 36.460938 61.917969 C 34.105469 64.289062 30.269531 64.304688 27.894531 61.949219 L 2.085938 36.394531 C -0.289062 34.042969 -0.304688 30.214844 2.050781 27.84375 L 27.652344 2.082031 C 30.007812 -0.289062 33.84375 -0.304688 36.21875 2.050781 Z M 36.21875 2.050781 " /><g transform="matrix(1.0075098,0,0,1.0032698,16.221436,16.077397)"><path fill-rule="nonzero" fill="rgb(14.901961%, 13.72549%, 15.686275%)" fill-opacity="1" d="M 16.070312 0.695312 C 7.4375 0.695312 0.4375 7.511719 0.4375 15.921875 C 0.4375 16.007812 0.4375 16.085938 0.4375 16.164062 L 16.25 16.164062 L 16.25 0.695312 C 16.1875 0.695312 16.132812 0.695312 16.070312 0.695312 "/><path fill-rule="nonzero" fill="rgb(14.901961%, 13.72549%, 15.686275%)" fill-opacity="1" d="M 16.25 31.632812 L 16.25 16.164062 L 31.703125 16.164062 C 31.707031 16.242188 31.707031 16.320312 31.707031 16.402344 C 31.707031 24.757812 24.804688 31.539062 16.25 31.632812 "/><path fill-rule="nonzero" fill="rgb(100%, 100%, 100%)" fill-opacity="1" d="M 8.40625 6.925781 C 7.539062 6.925781 6.839844 7.609375 6.839844 8.453125 L 6.839844 13.5 C 6.839844 14.351562 7.539062 15.03125 8.40625 15.03125 L 13.59375 15.03125 C 14.460938 15.03125 15.15625 14.351562 15.15625 13.5 L 15.15625 8.453125 C 15.15625 7.609375 14.460938 6.925781 13.59375 6.925781 Z M 18.976562 6.925781 C 18.109375 6.925781 17.414062 7.609375 17.414062 8.453125 L 17.414062 13.5 C 17.414062 14.351562 18.109375 15.03125 18.976562 15.03125 L 24.164062 15.03125 C 25.03125 15.03125 25.730469 14.351562 25.730469 13.5 L 25.730469 8.453125 C 25.730469 7.609375 25.03125 6.925781 24.164062 6.925781 Z M 8.40625 17.226562 C 7.539062 17.226562 6.839844 17.90625 6.839844 18.753906 L 6.839844 23.804688 C 6.839844 24.648438 7.539062 25.328125 8.40625 25.328125 L 13.59375 25.328125 C 14.460938 25.328125 15.15625 24.648438 15.15625 23.804688 L 15.15625 18.753906 C 15.15625 17.90625 14.460938 17.226562 13.59375 17.226562 Z M 18.976562 17.226562 C 18.109375 17.226562 17.414062 17.90625 17.414062 18.753906 L 17.414062 23.804688 C 17.414062 24.648438 18.109375 25.328125 18.976562 25.328125 L 24.164062 25.328125 C 25.03125 25.328125 25.730469 24.648438 25.730469 23.804688 L 25.730469 18.753906 C 25.730469 17.90625 25.03125 17.226562 24.164062 17.226562 Z M 18.976562 17.226562 "/></g></svg>
