<svg width="64" height="64" viewBox="0 0 64 64" version="1.1"><defs><linearGradient id="linear-pattern-0" gradientUnits="userSpaceOnUse" x1="0" y1="0" x2="0" y2="1" gradientTransform="matrix(60, 0, 0, 56, 0, 4)"><stop offset="0" stop-color="#7795ab" stop-opacity="1"/><stop offset="1" stop-color="#3b4f5f" stop-opacity="1"/></linearGradient></defs><path fill="url(#linear-pattern-0)" fill-opacity="1" d="M 36.21875 2.050781 L 62.027344 27.605469 C 64.402344 29.957031 64.417969 33.785156 62.058594 36.15625 L 36.460938 61.917969 C 34.105469 64.289062 30.269531 64.304688 27.894531 61.949219 L 2.085938 36.394531 C -0.289062 34.042969 -0.304688 30.214844 2.050781 27.84375 L 27.652344 2.082031 C 30.007812 -0.289062 33.84375 -0.304688 36.21875 2.050781 Z M 36.21875 2.050781 " /><g transform="matrix(1.0075098,0,0,1.0032698,16.221436,16.077397)"><path fill-rule="evenodd" fill="rgb(100%, 100%, 100%)" fill-opacity="1" d="M 16 0 C 8.730469 0 2.652344 4.8125 0.691406 11.429688 L 31.308594 11.429688 C 29.347656 4.8125 23.269531 0 16 0 Z M 0.691406 20.570312 C 2.65625 27.1875 8.730469 32 16 32 C 23.269531 32 29.347656 27.1875 31.308594 20.570312 Z M 12.570312 16 C 12.570312 14.109375 14.109375 12.570312 16 12.570312 C 17.890625 12.570312 19.429688 14.109375 19.429688 16 C 19.429688 17.890625 17.890625 19.429688 16 19.429688 C 14.109375 19.429688 12.570312 17.890625 12.570312 16 Z M 20.570312 16 C 20.570312 14.109375 22.109375 12.570312 24 12.570312 C 25.890625 12.570312 27.429688 14.109375 27.429688 16 C 27.429688 17.890625 25.890625 19.429688 24 19.429688 C 22.109375 19.429688 20.570312 17.890625 20.570312 16 Z M 4.570312 16 C 4.570312 14.109375 6.105469 12.570312 8 12.570312 C 9.890625 12.570312 11.429688 14.109375 11.429688 16 C 11.429688 17.890625 9.890625 19.429688 8 19.429688 C 6.105469 19.429688 4.570312 17.890625 4.570312 16 Z M 4.570312 16 "/></g></svg>
