<svg width="64" height="64" viewBox="0 0 64 64" version="1.1"><defs><linearGradient id="linear-pattern-0" gradientUnits="userSpaceOnUse" x1="0" y1="0" x2="0" y2="1" gradientTransform="matrix(60, 0, 0, 56, 0, 4)"><stop offset="0" stop-color="#008a97" stop-opacity="1"/><stop offset="1" stop-color="#00545c" stop-opacity="1"/></linearGradient></defs><path fill="url(#linear-pattern-0)" fill-opacity="1" d="M 36.21875 2.050781 L 62.027344 27.605469 C 64.402344 29.957031 64.417969 33.785156 62.058594 36.15625 L 36.460938 61.917969 C 34.105469 64.289062 30.269531 64.304688 27.894531 61.949219 L 2.085938 36.394531 C -0.289062 34.042969 -0.304688 30.214844 2.050781 27.84375 L 27.652344 2.082031 C 30.007812 -0.289062 33.84375 -0.304688 36.21875 2.050781 Z M 36.21875 2.050781 " /><g transform="matrix(1.0075098,0,0,1.0032698,16.221436,16.077397)"><path fill-rule="nonzero" fill="rgb(100%, 100%, 100%)" fill-opacity="1" d="M 15.058594 7.53125 C 15.0625 3.375 11.6875 0 7.53125 0 C 3.367188 0 0 3.375 0 7.53125 C 0 11.691406 3.367188 15.0625 7.53125 15.0625 C 11.6875 15.0625 15.0625 11.691406 15.058594 7.53125 Z M 15.058594 7.53125 "/><path fill-rule="nonzero" fill="rgb(100%, 100%, 100%)" fill-opacity="1" d="M 32 7.53125 C 32 11.691406 28.632812 15.0625 24.46875 15.0625 C 20.3125 15.0625 16.9375 11.691406 16.941406 7.53125 C 16.9375 3.375 20.3125 0 24.46875 0 C 28.632812 0 32 3.375 32 7.53125 Z M 32 7.53125 "/><path fill-rule="nonzero" fill="rgb(100%, 100%, 100%)" fill-opacity="1" d="M 32 24.46875 C 32 28.628906 28.632812 32 24.46875 32 C 20.3125 32 16.9375 28.628906 16.941406 24.46875 C 16.9375 20.3125 20.3125 16.9375 24.46875 16.9375 C 28.632812 16.9375 32 20.3125 32 24.46875 Z M 32 24.46875 "/><path fill-rule="nonzero" fill="rgb(100%, 100%, 100%)" fill-opacity="1" d="M 15.058594 24.46875 C 15.058594 28.625 11.6875 32 7.53125 32 C 3.371094 32 0 28.625 0 24.46875 C 0 20.3125 3.371094 16.941406 7.53125 16.941406 C 11.6875 16.941406 15.058594 20.3125 15.058594 24.46875 Z M 15.058594 24.46875 "/></g></svg>
