<svg width="64" height="64" viewBox="0 0 64 64" version="1.1"><defs><linearGradient id="linear-pattern-0" gradientUnits="userSpaceOnUse" x1="0" y1="0" x2="0" y2="1" gradientTransform="matrix(60, 0, 0, 56, 0, 4)"><stop offset="0" stop-color="#d00068" stop-opacity="1"/><stop offset="1" stop-color="#6e0037" stop-opacity="1"/></linearGradient></defs><path fill="url(#linear-pattern-0)" fill-opacity="1" d="M 36.21875 2.050781 L 62.027344 27.605469 C 64.402344 29.957031 64.417969 33.785156 62.058594 36.15625 L 36.460938 61.917969 C 34.105469 64.289062 30.269531 64.304688 27.894531 61.949219 L 2.085938 36.394531 C -0.289062 34.042969 -0.304688 30.214844 2.050781 27.84375 L 27.652344 2.082031 C 30.007812 -0.289062 33.84375 -0.304688 36.21875 2.050781 Z M 36.21875 2.050781 " /><g transform="matrix(1.0075098,0,0,1.0032698,16.221436,16.077397)"><path fill-rule="evenodd" fill="rgb(100%, 100%, 100%)" fill-opacity="1" d="M 15.992188 6.859375 C 15.992188 6.015625 16.671875 5.335938 17.515625 5.335938 C 18.355469 5.335938 19.039062 6.015625 19.039062 6.859375 C 19.039062 7.695312 18.355469 8.382812 17.515625 8.382812 C 16.671875 8.382812 15.992188 7.695312 15.992188 6.859375 Z M 14.46875 7.617188 C 14.46875 5.515625 16.171875 3.8125 18.273438 3.8125 C 20.378906 3.8125 22.085938 5.515625 22.085938 7.617188 C 22.085938 9.722656 20.378906 11.429688 18.273438 11.429688 C 16.171875 11.429688 14.46875 9.722656 14.46875 7.617188 Z M 28.140625 7.191406 C 28.3125 8.015625 27.929688 8.867188 27.28125 9.089844 L 26.65625 6.09375 C 27.304688 5.875 27.96875 6.363281 28.140625 7.191406 Z M 13.414062 31.863281 C 11.589844 31.515625 9.644531 30.671875 8.015625 29.523438 C 6.1875 28.234375 4.296875 25.957031 3.390625 23.957031 C 2.476562 21.945312 2.105469 19.515625 2.347656 17.117188 C 2.53125 15.308594 2.742188 14.46875 3.367188 13.023438 C 5.097656 9.015625 8.484375 6.257812 12.976562 5.191406 C 13.710938 5.015625 14.21875 4.8125 14.535156 4.5625 C 15 4.195312 15.003906 4.1875 15.28125 2.367188 C 15.636719 0.0976562 15.632812 0.117188 15.992188 0.0234375 C 16.476562 -0.09375 18.734375 0.226562 19.835938 0.574219 C 21.613281 1.132812 22.882812 1.859375 24.398438 3.1875 C 24.863281 3.597656 26.070312 3.933594 26.148438 3.933594 C 26.601562 3.933594 27.875 4.53125 28.390625 5.027344 C 29.921875 6.515625 30.125 8.382812 28.957031 10.199219 C 28.648438 10.6875 28.226562 10.46875 28.226562 11.097656 C 28.226562 11.515625 28.15625 11.953125 28.070312 12.070312 C 27.9375 12.238281 26.796875 12.328125 24.320312 12.546875 C 22.0625 12.738281 20.699219 13.316406 20.5625 13.453125 C 20.148438 13.867188 21.101562 13.953125 25.484375 14.296875 C 29.578125 14.617188 29.949219 14.734375 29.640625 15.046875 C 29.570312 15.109375 27.773438 15.421875 25.273438 15.929688 L 20.734375 16.84375 L 17.875 15.742188 C 16.304688 15.140625 14.972656 14.796875 14.914062 14.796875 C 14.726562 14.796875 13.351562 17.078125 13.394531 17.3125 C 13.449219 17.601562 14.023438 17.445312 14.773438 17.546875 C 15.289062 17.617188 15.433594 17.578125 15.96875 17.226562 C 17.15625 16.4375 18.226562 16.4375 18.886719 17.226562 C 19.289062 17.703125 19.304688 18.03125 18.929688 18.289062 C 18.558594 18.554688 18.285156 18.542969 17.734375 18.25 C 16.964844 17.835938 16.476562 18.375 16.753906 19.113281 C 16.933594 19.59375 16.832031 19.851562 16.464844 19.851562 C 16.257812 19.851562 16.109375 19.726562 15.96875 19.421875 C 15.765625 19 15.761719 18.78125 14.640625 18.707031 C 13.429688 18.625 12.855469 19.046875 12.09375 18.570312 C 11.5 18.1875 10.9375 17.53125 10.9375 17.207031 C 10.9375 16.898438 11.53125 15.71875 12.140625 14.8125 C 12.707031 13.976562 12.726562 13.773438 12.230469 13.773438 C 11.96875 13.773438 11.753906 13.894531 11.503906 14.1875 C 11.070312 14.703125 10.042969 16.828125 10.042969 17.222656 C 10.042969 17.765625 10.453125 18.359375 11.558594 19.085938 C 12.429688 19.660156 12.695312 19.695312 12.882812 20.117188 C 13.164062 20.757812 13.65625 21.84375 13.765625 22.839844 C 13.851562 23.664062 14.03125 23.449219 14.359375 22.875 C 14.695312 22.289062 15.617188 22.171875 15.617188 22.71875 C 15.617188 22.847656 15.476562 23.03125 15.296875 23.125 C 14.71875 23.433594 14.761719 23.953125 15.390625 24.292969 C 15.574219 24.390625 15.757812 24.34375 16.1875 24.09375 C 16.5 23.914062 16.835938 23.765625 16.945312 23.765625 C 17.195312 23.765625 17.535156 24.257812 17.535156 24.617188 C 17.535156 25.429688 16.898438 25.9375 15.882812 25.9375 C 14.671875 25.9375 13.742188 25.285156 13.242188 24.085938 C 12.972656 23.445312 11.921875 22.285156 11.492188 21.820312 C 11.0625 21.359375 10.835938 21.28125 10.476562 21.335938 C 10.078125 21.390625 9.882812 21.769531 9.878906 22.742188 C 9.875 24.625 10.46875 26.554688 12.605469 27.605469 C 16.117188 29.335938 19.492188 29.359375 23.125 27.667969 C 25.804688 26.421875 27.867188 24.359375 28.019531 22.195312 C 28.074219 21.402344 28.042969 21.1875 27.785156 20.695312 C 27.25 19.671875 25.597656 19.074219 24.46875 19.585938 C 24.101562 19.75 23.824219 20.226562 23.644531 20.742188 C 23.117188 22.363281 23.890625 23.03125 24.777344 23.414062 C 25.140625 23.578125 25.78125 23.460938 25.898438 23.007812 C 26.023438 22.503906 25.777344 22.304688 25.085938 22.34375 C 24.566406 22.375 24.496094 22.347656 24.460938 22.101562 C 24.40625 21.726562 24.964844 21.367188 25.570312 21.382812 C 25.921875 21.398438 26.132812 21.386719 26.453125 21.742188 C 26.953125 22.285156 26.867188 22.925781 26.605469 23.429688 C 26.289062 24.03125 25.695312 24.4375 24.820312 24.4375 C 23.570312 24.429688 22.5625 23.734375 22.265625 22.679688 C 22.085938 22.046875 22.09375 21.027344 22.320312 20.277344 C 22.96875 18.101562 26.625 17.65625 28.367188 19.34375 C 29.203125 20.160156 29.632812 21.085938 29.554688 22.550781 C 29.382812 25.726562 26.179688 28.789062 22.523438 30.578125 C 20.359375 31.640625 19.140625 31.925781 16.507812 31.988281 C 15.007812 32.023438 14.046875 31.984375 13.414062 31.863281 Z M 13.414062 31.863281 "/></g></svg>
