<svg width="64" height="64" viewBox="0 0 64 64" version="1.1"><defs><linearGradient id="linear-pattern-0" gradientUnits="userSpaceOnUse" x1="0" y1="0" x2="0" y2="1" gradientTransform="matrix(60, 0, 0, 56, 0, 4)"><stop offset="0" stop-color="#3067ff" stop-opacity="1"/><stop offset="1" stop-color="#002ca6" stop-opacity="1"/></linearGradient></defs><path fill="url(#linear-pattern-0)" fill-opacity="1" d="M 36.21875 2.050781 L 62.027344 27.605469 C 64.402344 29.957031 64.417969 33.785156 62.058594 36.15625 L 36.460938 61.917969 C 34.105469 64.289062 30.269531 64.304688 27.894531 61.949219 L 2.085938 36.394531 C -0.289062 34.042969 -0.304688 30.214844 2.050781 27.84375 L 27.652344 2.082031 C 30.007812 -0.289062 33.84375 -0.304688 36.21875 2.050781 Z M 36.21875 2.050781 " /><g transform="matrix(1.0075098,0,0,1.0032698,16.221436,16.077397)"><path fill-rule="nonzero" fill="rgb(100%, 100%, 100%)" fill-opacity="1" d="M 15.914062 0.367188 C 10.234375 0.367188 5.660156 4.890625 5.660156 10.515625 L 5.660156 15.59375 L 4.382812 15.59375 L 4.382812 22.8125 L 4.902344 22.136719 C 5.648438 21.148438 7.632812 19.730469 9.1875 19.125 C 10.003906 18.804688 11.96875 18.453125 14.1875 18.210938 C 17.535156 17.835938 23.851562 18.132812 26.160156 15.59375 L 26.160156 10.515625 C 26.160156 4.890625 21.585938 0.367188 15.914062 0.367188 Z M 16.75 1.59375 C 17.234375 1.625 17.710938 1.679688 18.195312 1.796875 C 19.914062 2.203125 20.109375 2.601562 18.433594 2.269531 C 15.796875 1.75 12.292969 2.914062 10.148438 5.046875 C 9.503906 5.683594 8.695312 6.738281 8.34375 7.382812 C 7.625 8.71875 7.734375 7.859375 8.503906 6.234375 C 9.910156 3.265625 13.351562 1.398438 16.75 1.59375 Z M 15.914062 5.441406 C 18.75 5.441406 21.035156 7.703125 21.035156 10.515625 L 21.035156 15.59375 L 10.789062 15.59375 L 10.789062 10.515625 C 10.789062 7.703125 13.070312 5.441406 15.914062 5.441406 Z M 27.4375 17.820312 L 26.078125 18.929688 C 25.339844 19.554688 24.179688 20.410156 23.476562 20.835938 C 22.035156 21.707031 18.617188 22.9375 17.59375 22.9375 C 17.207031 22.9375 16.980469 23.03125 17.070312 23.175781 C 17.242188 23.449219 19.289062 23.328125 21.4375 22.898438 C 22.140625 22.757812 23.773438 22.125 25.078125 21.46875 L 27.4375 20.28125 Z M 27.4375 20.554688 L 26.71875 21.546875 C 24.328125 24.8125 20.4375 26.621094 15.03125 26.945312 C 11.417969 27.15625 12.742188 27.5625 17.070312 27.578125 C 20.007812 27.578125 20.667969 27.492188 22.4375 26.902344 C 23.542969 26.535156 24.460938 26.25 24.515625 26.304688 C 24.71875 26.507812 22.554688 28.28125 21.355469 28.882812 C 19.058594 30.039062 17.492188 30.363281 13.351562 30.550781 C 10.402344 30.679688 9.195312 30.832031 8.625 31.144531 C 7.898438 31.539062 8.375 31.570312 17.632812 31.578125 L 27.4375 31.578125 Z M 27.4375 20.554688 "/></g></svg>
