<svg width="64" height="64" viewBox="0 0 64 64" version="1.1"><defs><linearGradient id="linear-pattern-0" gradientUnits="userSpaceOnUse" x1="0" y1="0" x2="0" y2="1" gradientTransform="matrix(60, 0, 0, 56, 0, 4)"><stop offset="0" stop-color="#c10000" stop-opacity="1"/><stop offset="1" stop-color="#5f0000" stop-opacity="1"/></linearGradient></defs><path fill="url(#linear-pattern-0)" fill-opacity="1" d="M 36.21875 2.050781 L 62.027344 27.605469 C 64.402344 29.957031 64.417969 33.785156 62.058594 36.15625 L 36.460938 61.917969 C 34.105469 64.289062 30.269531 64.304688 27.894531 61.949219 L 2.085938 36.394531 C -0.289062 34.042969 -0.304688 30.214844 2.050781 27.84375 L 27.652344 2.082031 C 30.007812 -0.289062 33.84375 -0.304688 36.21875 2.050781 Z M 36.21875 2.050781 " /><g transform="matrix(1.0075098,0,0,1.0032698,16.221436,16.077397)"><path fill-rule="evenodd" fill="rgb(100%, 100%, 100%)" fill-opacity="1" d="M -0.0625 25 L 31.9375 25 L 31.9375 29 L -0.0625 29 Z M -0.0625 25 "/><path fill-rule="evenodd" fill="rgb(100%, 100%, 100%)" fill-opacity="1" d="M 7.585938 20.660156 C 6.304688 20.660156 5.164062 20.410156 4.171875 19.90625 C 3.179688 19.40625 2.382812 18.726562 1.789062 17.871094 C 1.195312 17.015625 0.753906 16.070312 0.457031 15.035156 C 0.164062 14 0.015625 12.898438 0.015625 11.730469 C 0.015625 10.875 0.109375 10.03125 0.296875 9.1875 C 0.488281 8.351562 0.789062 7.546875 1.195312 6.773438 C 1.609375 6 2.101562 5.320312 2.679688 4.734375 C 3.253906 4.152344 3.964844 3.683594 4.8125 3.328125 C 5.660156 2.976562 6.585938 2.800781 7.585938 2.800781 C 9.101562 2.800781 10.320312 3.109375 11.238281 3.726562 C 12.160156 4.34375 12.957031 5.195312 13.632812 6.277344 L 10.992188 7.78125 C 10.039062 6.367188 8.90625 5.664062 7.585938 5.664062 C 6.765625 5.664062 6.046875 5.84375 5.429688 6.21875 C 4.8125 6.585938 4.339844 7.078125 4.011719 7.695312 C 3.683594 8.3125 3.445312 8.960938 3.296875 9.632812 C 3.148438 10.304688 3.074219 11.007812 3.074219 11.730469 C 3.074219 13.441406 3.453125 14.878906 4.207031 16.046875 C 4.964844 17.214844 6.09375 17.796875 7.585938 17.796875 C 8.539062 17.796875 9.335938 17.484375 9.96875 16.859375 C 10.601562 16.234375 10.917969 15.46875 10.917969 14.566406 L 10.917969 14.296875 L 7.882812 14.296875 L 7.882812 11.507812 L 13.929688 11.507812 L 13.929688 13.898438 C 13.929688 16.023438 13.335938 17.679688 12.152344 18.871094 C 10.96875 20.0625 9.445312 20.660156 7.585938 20.660156 Z M 24.414062 20.660156 C 23.34375 20.660156 22.375 20.488281 21.5 20.140625 C 20.632812 19.796875 19.910156 19.332031 19.34375 18.75 C 18.773438 18.164062 18.296875 17.484375 17.914062 16.714844 C 17.523438 15.941406 17.25 15.140625 17.085938 14.308594 C 16.921875 13.476562 16.835938 12.617188 16.835938 11.730469 C 16.835938 10.84375 16.921875 9.984375 17.085938 9.152344 C 17.25 8.320312 17.523438 7.519531 17.914062 6.746094 C 18.296875 5.976562 18.773438 5.296875 19.34375 4.710938 C 19.910156 4.128906 20.632812 3.664062 21.5 3.320312 C 22.375 2.972656 23.34375 2.800781 24.414062 2.800781 C 25.742188 2.800781 26.914062 3.058594 27.929688 3.578125 C 28.9375 4.09375 29.726562 4.796875 30.296875 5.671875 C 30.863281 6.554688 31.285156 7.503906 31.566406 8.523438 C 31.84375 9.542969 31.984375 10.609375 31.984375 11.730469 C 31.984375 12.851562 31.84375 13.917969 31.566406 14.9375 C 31.285156 15.953125 30.863281 16.90625 30.296875 17.785156 C 29.726562 18.664062 28.9375 19.367188 27.929688 19.882812 C 26.914062 20.398438 25.742188 20.660156 24.414062 20.660156 Z M 24.414062 17.824219 C 25.203125 17.824219 25.898438 17.632812 26.507812 17.257812 C 27.117188 16.875 27.589844 16.382812 27.929688 15.765625 C 28.265625 15.148438 28.515625 14.496094 28.679688 13.8125 C 28.84375 13.132812 28.925781 12.4375 28.925781 11.730469 C 28.925781 10.976562 28.84375 10.253906 28.679688 9.570312 C 28.515625 8.890625 28.265625 8.242188 27.929688 7.636719 C 27.589844 7.027344 27.121094 6.539062 26.523438 6.179688 C 25.921875 5.816406 25.21875 5.636719 24.414062 5.636719 C 23.359375 5.636719 22.480469 5.96875 21.773438 6.636719 C 21.0625 7.304688 20.578125 8.070312 20.304688 8.941406 C 20.03125 9.8125 19.898438 10.742188 19.898438 11.730469 C 19.898438 12.46875 19.980469 13.1875 20.144531 13.875 C 20.308594 14.566406 20.558594 15.21875 20.898438 15.824219 C 21.234375 16.433594 21.703125 16.917969 22.304688 17.28125 C 22.90625 17.640625 23.609375 17.824219 24.414062 17.824219 Z M 24.414062 17.824219 "/></g></svg>
