<svg width="64" height="64" viewBox="0 0 64 64" version="1.1"><defs><linearGradient id="linear-pattern-0" gradientUnits="userSpaceOnUse" x1="0" y1="0" x2="0" y2="1" gradientTransform="matrix(60, 0, 0, 56, 0, 4)"><stop offset="0" stop-color="#ec7700" stop-opacity="1"/><stop offset="1" stop-color="#773c00" stop-opacity="1"/></linearGradient></defs><path fill="url(#linear-pattern-0)" fill-opacity="1" d="M 36.21875 2.050781 L 62.027344 27.605469 C 64.402344 29.957031 64.417969 33.785156 62.058594 36.15625 L 36.460938 61.917969 C 34.105469 64.289062 30.269531 64.304688 27.894531 61.949219 L 2.085938 36.394531 C -0.289062 34.042969 -0.304688 30.214844 2.050781 27.84375 L 27.652344 2.082031 C 30.007812 -0.289062 33.84375 -0.304688 36.21875 2.050781 Z M 36.21875 2.050781 " /><g transform="matrix(1.0075098,0,0,1.0032698,16.221436,16.077397)"><path fill-rule="nonzero" fill="rgb(100%, 100%, 100%)" fill-opacity="1" d="M 4.335938 30.9375 C 4.160156 30.882812 3.957031 30.8125 3.886719 30.773438 C 3.644531 30.648438 3.21875 30.207031 3.089844 29.960938 C 2.789062 29.367188 2.800781 29.976562 2.800781 15.992188 C 2.800781 2 2.789062 2.621094 3.09375 2.023438 C 3.273438 1.671875 3.777344 1.238281 4.160156 1.105469 C 4.5625 0.964844 5.324219 0.964844 5.796875 1.101562 C 6.007812 1.164062 7.46875 1.96875 9.511719 3.136719 L 12.882812 5.066406 L 13.601562 4.9375 C 18.46875 4.050781 23.398438 6.429688 25.804688 10.832031 C 26.058594 11.296875 26.566406 12.484375 26.648438 12.816406 C 26.679688 12.9375 26.90625 13.09375 27.699219 13.546875 C 28.472656 13.984375 28.789062 14.207031 29.046875 14.476562 C 29.539062 14.992188 29.65625 15.28125 29.65625 15.992188 C 29.65625 16.503906 29.632812 16.617188 29.484375 16.917969 C 29.140625 17.617188 29.097656 17.648438 22.78125 21.257812 C 19.570312 23.09375 14.523438 25.984375 11.5625 27.679688 C 8.574219 29.390625 6.03125 30.804688 5.847656 30.863281 C 5.359375 31.015625 4.726562 31.042969 4.335938 30.9375 Z M 14.195312 24.734375 C 15.359375 24.066406 16.324219 23.507812 16.335938 23.5 C 16.34375 23.492188 15.992188 23.476562 15.546875 23.476562 C 14.367188 23.46875 13.398438 23.238281 12.359375 22.710938 C 10.382812 21.703125 8.976562 19.8125 8.539062 17.585938 C 8.417969 16.976562 8.433594 15.519531 8.570312 14.894531 C 8.9375 13.148438 9.902344 11.625 11.289062 10.585938 C 12.726562 9.5 14.5 8.984375 16.242188 9.148438 C 18.203125 9.335938 19.890625 10.210938 21.125 11.695312 C 22.25 13.042969 22.792969 14.546875 22.796875 16.300781 C 22.796875 17.800781 22.390625 19.121094 21.53125 20.417969 L 21.414062 20.59375 L 21.625 20.476562 C 21.742188 20.414062 22.726562 19.859375 23.804688 19.238281 C 25.179688 18.449219 25.777344 18.074219 25.800781 17.984375 C 25.820312 17.914062 25.867188 17.507812 25.910156 17.078125 C 26.03125 15.773438 25.863281 14.425781 25.410156 13.054688 C 23.359375 6.882812 16.207031 4.144531 10.5 7.351562 C 8.867188 8.273438 7.25 9.96875 6.40625 11.648438 C 4.082031 16.289062 5.542969 21.945312 9.808594 24.835938 C 10.640625 25.398438 11.699219 25.945312 11.972656 25.953125 C 12.027344 25.953125 13.027344 25.40625 14.195312 24.734375 Z M 15.90625 19.554688 C 16.242188 19.382812 16.601562 19.019531 16.734375 18.71875 C 16.839844 18.492188 16.851562 18.28125 16.851562 16.253906 L 16.851562 14.039062 L 18.441406 14.039062 L 18.441406 12.265625 L 15.9375 12.265625 L 15.9375 14.4375 C 15.9375 15.628906 15.925781 16.605469 15.914062 16.605469 C 15.898438 16.605469 15.773438 16.5625 15.632812 16.515625 C 15.203125 16.363281 14.789062 16.394531 14.359375 16.609375 C 13.128906 17.226562 13.140625 18.992188 14.375 19.578125 C 14.640625 19.707031 14.75 19.726562 15.171875 19.703125 C 15.511719 19.6875 15.734375 19.640625 15.90625 19.554688 Z M 15.90625 19.554688 "/></g></svg>
