<svg width="64" height="64" viewBox="0 0 64 64" version="1.1"><defs><linearGradient id="linear-pattern-0" gradientUnits="userSpaceOnUse" x1="0" y1="0" x2="0" y2="1" gradientTransform="matrix(60, 0, 0, 56, 0, 4)"><stop offset="0" stop-color="#3067ff" stop-opacity="1"/><stop offset="1" stop-color="#002ca6" stop-opacity="1"/></linearGradient></defs><path fill="url(#linear-pattern-0)" fill-opacity="1" d="M 36.21875 2.050781 L 62.027344 27.605469 C 64.402344 29.957031 64.417969 33.785156 62.058594 36.15625 L 36.460938 61.917969 C 34.105469 64.289062 30.269531 64.304688 27.894531 61.949219 L 2.085938 36.394531 C -0.289062 34.042969 -0.304688 30.214844 2.050781 27.84375 L 27.652344 2.082031 C 30.007812 -0.289062 33.84375 -0.304688 36.21875 2.050781 Z M 36.21875 2.050781 " /><g transform="matrix(1.0075098,0,0,1.0032698,16.221436,16.077397)"><path fill-rule="nonzero" fill="rgb(100%, 100%, 100%)" fill-opacity="1" d="M 5.640625 0.632812 C 3.671875 0.632812 2.085938 2.617188 2.085938 5.085938 L 2.085938 26.953125 C 2.085938 29.429688 3.671875 31.414062 5.640625 31.414062 L 26.507812 31.414062 C 28.484375 31.414062 30.066406 29.429688 30.066406 26.953125 L 30.066406 5.089844 C 30.066406 2.617188 28.484375 0.632812 26.507812 0.632812 L 5.640625 0.632812 M 5.289062 3.648438 L 8.980469 3.648438 L 8.980469 7.335938 L 5.296875 7.335938 L 5.296875 3.648438 M 23.179688 3.648438 L 26.867188 3.648438 L 26.867188 7.335938 L 23.183594 7.335938 L 23.183594 3.648438 M 5.296875 8.910156 L 8.984375 8.910156 L 8.984375 12.605469 L 5.296875 12.605469 L 5.296875 8.910156 M 23.183594 8.910156 L 26.867188 8.910156 L 26.867188 12.605469 L 23.1875 12.605469 L 23.1875 8.910156 M 5.296875 14.171875 L 8.984375 14.171875 L 8.984375 17.867188 L 5.296875 17.867188 L 5.296875 14.171875 M 23.1875 14.171875 L 26.875 14.171875 L 26.875 17.867188 L 23.1875 17.867188 L 23.1875 14.171875 M 5.300781 19.4375 L 8.984375 19.4375 L 8.984375 23.140625 L 5.300781 23.140625 L 5.300781 19.4375 M 23.1875 19.4375 L 26.875 19.4375 L 26.875 23.140625 L 23.1875 23.140625 L 23.1875 19.4375 M 5.304688 24.703125 L 8.988281 24.703125 L 8.988281 28.402344 L 5.304688 28.402344 L 5.304688 24.703125 M 23.191406 24.703125 L 26.875 24.703125 L 26.875 28.402344 L 23.191406 28.402344 L 23.191406 24.703125 "/></g></svg>
