<svg width="64" height="64" viewBox="0 0 64 64" version="1.1"><defs><linearGradient id="linear-pattern-0" gradientUnits="userSpaceOnUse" x1="0" y1="0" x2="0" y2="1" gradientTransform="matrix(60, 0, 0, 56, 0, 4)"><stop offset="0" stop-color="#d00068" stop-opacity="1"/><stop offset="1" stop-color="#6e0037" stop-opacity="1"/></linearGradient></defs><path fill="url(#linear-pattern-0)" fill-opacity="1" d="M 36.21875 2.050781 L 62.027344 27.605469 C 64.402344 29.957031 64.417969 33.785156 62.058594 36.15625 L 36.460938 61.917969 C 34.105469 64.289062 30.269531 64.304688 27.894531 61.949219 L 2.085938 36.394531 C -0.289062 34.042969 -0.304688 30.214844 2.050781 27.84375 L 27.652344 2.082031 C 30.007812 -0.289062 33.84375 -0.304688 36.21875 2.050781 Z M 36.21875 2.050781 " /><g transform="matrix(1.0075098,0,0,1.0032698,16.221436,16.077397)"><path fill-rule="nonzero" fill="rgb(100%, 100%, 100%)" fill-opacity="1" d="M 16.035156 0.5625 C 13.695312 0.5625 12.695312 0.722656 10.886719 1.382812 C 5.800781 3.242188 2.160156 7.5 0.976562 12.976562 C 0.710938 14.21875 0.707031 17.671875 0.96875 19.003906 C 1.070312 19.515625 1.242188 20.390625 1.351562 20.960938 C 1.460938 21.527344 1.679688 22.6875 1.84375 23.535156 C 2.007812 24.382812 2.25 25.648438 2.378906 26.34375 L 2.617188 27.601562 L 3.554688 27.601562 C 4.359375 27.601562 4.5 27.632812 4.546875 27.785156 C 4.578125 27.882812 4.695312 28.5 4.8125 29.148438 C 4.929688 29.804688 5.054688 30.457031 5.082031 30.609375 C 5.109375 30.757812 5.242188 31.007812 5.382812 31.15625 L 5.632812 31.425781 L 8.316406 31.390625 C 8.78125 31.390625 9.078125 31.382812 9.398438 31.375 L 6.921875 18.394531 C 5.5 18.839844 3.65625 19.597656 3.28125 20.132812 C 3.210938 20.320312 3.195312 20.308594 3.1875 20.0625 C 3.1875 19.914062 3.09375 19.335938 2.992188 18.773438 C 2.882812 18.21875 2.765625 17.359375 2.726562 16.863281 L 2.65625 15.960938 L 2.710938 15.960938 C 2.746094 8.554688 8.703125 2.554688 16.050781 2.554688 C 23.398438 2.554688 29.359375 8.554688 29.390625 15.960938 L 29.417969 15.960938 L 29.386719 16.382812 C 29.375 16.734375 29.351562 17.085938 29.320312 17.429688 L 29.289062 17.429688 C 29.234375 17.882812 29.15625 18.398438 29.085938 18.773438 C 28.976562 19.335938 28.882812 19.914062 28.882812 20.0625 C 28.875 20.308594 28.867188 20.320312 28.792969 20.132812 C 28.464844 19.375 26.367188 18.796875 25.136719 18.460938 L 22.675781 31.375 C 22.992188 31.382812 23.292969 31.390625 23.757812 31.390625 L 26.445312 31.425781 L 26.691406 31.15625 C 26.828125 31.007812 26.960938 30.757812 26.992188 30.609375 C 27.023438 30.457031 27.140625 29.804688 27.257812 29.148438 C 27.378906 28.5 27.5 27.882812 27.527344 27.785156 C 27.570312 27.632812 27.710938 27.601562 28.523438 27.601562 L 29.460938 27.601562 L 29.957031 25 C 30.226562 23.570312 30.511719 22.078125 30.585938 21.679688 C 30.65625 21.285156 30.8125 20.472656 30.925781 19.875 C 31.3125 17.855469 31.367188 17.207031 31.304688 15.398438 C 31.226562 12.929688 30.78125 11.117188 29.71875 8.988281 C 27.984375 5.503906 24.875 2.734375 21.183594 1.378906 C 19.375 0.71875 18.375 0.5625 16.035156 0.5625 M 22.675781 31.382812 C 21.359375 31.359375 21.0625 31.328125 20.820312 31.1875 C 21.050781 31.328125 21.367188 31.359375 22.675781 31.382812 M 9.398438 31.382812 C 10.703125 31.359375 11.023438 31.328125 11.253906 31.1875 C 11.007812 31.328125 10.710938 31.359375 9.398438 31.382812 M 11.113281 6.984375 C 10.976562 7.0625 10.835938 7.148438 10.703125 7.238281 C 10.835938 7.148438 10.976562 7.0625 11.113281 6.984375 M 10.703125 7.238281 C 10.5625 7.328125 10.4375 7.417969 10.300781 7.515625 C 10.4375 7.417969 10.5625 7.328125 10.703125 7.238281 M 10.101562 7.664062 C 9.96875 7.765625 9.835938 7.875 9.707031 7.984375 C 9.835938 7.875 9.96875 7.765625 10.101562 7.664062 M 9.515625 8.15625 C 9.382812 8.265625 9.257812 8.382812 9.128906 8.507812 C 9.257812 8.382812 9.382812 8.265625 9.515625 8.15625 M 8.9375 8.695312 C 8.722656 8.910156 8.523438 9.125 8.328125 9.355469 C 8.523438 9.125 8.722656 8.910156 8.9375 8.695312 M 24.273438 10.015625 C 24.382812 10.164062 24.476562 10.3125 24.578125 10.464844 C 24.484375 10.3125 24.382812 10.164062 24.273438 10.015625 M 24.71875 10.683594 C 24.792969 10.804688 24.863281 10.921875 24.929688 11.050781 C 24.863281 10.929688 24.792969 10.804688 24.71875 10.683594 M 25.546875 12.363281 C 25.664062 12.671875 25.773438 12.984375 25.851562 13.300781 C 25.773438 12.984375 25.664062 12.671875 25.546875 12.363281 M 25.851562 13.300781 C 25.9375 13.617188 26.007812 13.9375 26.054688 14.257812 C 26.007812 13.9375 25.9375 13.617188 25.851562 13.300781 M 26.09375 14.578125 C 26.117188 14.753906 26.140625 14.910156 26.171875 15.050781 C 26.140625 14.910156 26.117188 14.753906 26.09375 14.578125 M 26.363281 15.570312 C 26.390625 15.617188 26.417969 15.65625 26.445312 15.691406 C 26.417969 15.65625 26.390625 15.617188 26.363281 15.570312 M 29.347656 16.867188 C 29.335938 16.992188 29.328125 17.132812 29.304688 17.296875 C 29.328125 17.136719 29.335938 16.984375 29.347656 16.867188 M 8.171875 18.070312 C 8.085938 18.085938 7.984375 18.109375 7.875 18.132812 C 7.984375 18.109375 8.085938 18.085938 8.171875 18.070312 M 23.402344 18.09375 C 23.347656 18.09375 23.296875 18.097656 23.25 18.105469 C 23.296875 18.097656 23.347656 18.09375 23.402344 18.09375 M 23.25 18.105469 C 23.148438 18.113281 23.054688 18.132812 22.953125 18.164062 C 23.054688 18.132812 23.144531 18.113281 23.25 18.105469 M 22.953125 18.164062 C 22.910156 18.179688 22.863281 18.195312 22.8125 18.21875 C 22.863281 18.195312 22.910156 18.179688 22.953125 18.164062 M 22.8125 18.21875 C 22.773438 18.234375 22.734375 18.257812 22.691406 18.285156 C 22.734375 18.257812 22.773438 18.234375 22.8125 18.21875 M 23.664062 18.109375 C 23.707031 18.109375 23.753906 18.117188 23.804688 18.125 C 23.753906 18.117188 23.707031 18.109375 23.664062 18.109375 M 7.789062 18.15625 C 7.671875 18.1875 7.542969 18.21875 7.40625 18.257812 C 7.542969 18.21875 7.667969 18.1875 7.789062 18.15625 M 7.40625 18.257812 C 7.265625 18.292969 7.117188 18.335938 6.960938 18.382812 C 7.117188 18.335938 7.265625 18.292969 7.40625 18.257812 M 22.664062 18.296875 C 22.625 18.320312 22.582031 18.351562 22.539062 18.382812 C 22.582031 18.351562 22.625 18.320312 22.664062 18.296875 M 22.539062 18.382812 C 22.492188 18.414062 22.449219 18.449219 22.398438 18.484375 C 22.449219 18.449219 22.492188 18.414062 22.539062 18.382812 "/><path fill-rule="nonzero" fill="rgb(100%, 100%, 100%)" fill-opacity="1" d="M 16.050781 2.554688 C 8.707031 2.554688 2.746094 8.554688 2.710938 15.964844 L 3.953125 15.964844 C 4.65625 15.964844 5.328125 15.917969 5.4375 15.859375 C 5.71875 15.703125 5.898438 15.28125 5.984375 14.578125 C 6.21875 12.421875 7.234375 10.40625 8.9375 8.695312 C 10.96875 6.660156 13.179688 5.738281 16.035156 5.738281 C 17.570312 5.738281 18.578125 5.929688 19.882812 6.46875 C 23.164062 7.820312 25.714844 11.15625 26.09375 14.578125 C 26.175781 15.28125 26.359375 15.703125 26.640625 15.859375 C 26.75 15.917969 27.421875 15.964844 28.125 15.964844 L 29.390625 15.964844 C 29.359375 8.554688 23.398438 2.554688 16.050781 2.554688 M 29.386719 16.386719 L 29.347656 16.867188 C 29.335938 17.023438 29.320312 17.226562 29.289062 17.4375 L 29.320312 17.4375 C 29.359375 17.085938 29.375 16.742188 29.386719 16.386719 Z M 8.46875 18.027344 C 8.171875 18.046875 7.59375 18.1875 6.929688 18.398438 L 9.398438 31.382812 C 10.898438 31.355469 11.078125 31.320312 11.363281 31.117188 C 11.796875 30.816406 12.128906 30.320312 12.214844 29.84375 C 12.257812 29.625 12.203125 29.0625 12.078125 28.417969 C 11.960938 27.828125 11.84375 27.210938 11.820312 27.039062 C 11.789062 26.871094 11.5625 25.640625 11.3125 24.3125 C 11.0625 22.976562 10.828125 21.75 10.800781 21.578125 C 10.523438 19.984375 10.398438 19.390625 10.273438 19.15625 C 9.972656 18.5625 9.109375 18.027344 8.46875 18.027344 M 23.40625 18.09375 C 22.976562 18.097656 22.648438 18.25 22.253906 18.609375 C 22.039062 18.804688 21.820312 19.117188 21.757812 19.296875 C 21.703125 19.476562 21.40625 20.945312 21.105469 22.558594 C 20.796875 24.171875 20.523438 25.632812 20.484375 25.804688 C 20.453125 25.976562 20.402344 26.25 20.375 26.421875 C 20.351562 26.59375 20.210938 27.328125 20.0625 28.070312 C 19.890625 28.914062 19.820312 29.554688 19.859375 29.796875 C 19.9375 30.296875 20.269531 30.808594 20.71875 31.117188 C 21.007812 31.320312 21.179688 31.355469 22.679688 31.382812 L 25.140625 18.464844 C 24.976562 18.421875 24.773438 18.367188 24.652344 18.328125 C 24.125 18.175781 23.738281 18.09375 23.40625 18.09375 "/></g></svg>
