<svg width="64" height="64" viewBox="0 0 64 64" version="1.1"><defs><linearGradient id="linear-pattern-0" gradientUnits="userSpaceOnUse" x1="0" y1="0" x2="0" y2="1" gradientTransform="matrix(60, 0, 0, 56, 0, 4)"><stop offset="0" stop-color="#aaaa00" stop-opacity="1"/><stop offset="1" stop-color="#5c5c00" stop-opacity="1"/></linearGradient></defs><path fill="url(#linear-pattern-0)" fill-opacity="1" d="M 36.21875 2.050781 L 62.027344 27.605469 C 64.402344 29.957031 64.417969 33.785156 62.058594 36.15625 L 36.460938 61.917969 C 34.105469 64.289062 30.269531 64.304688 27.894531 61.949219 L 2.085938 36.394531 C -0.289062 34.042969 -0.304688 30.214844 2.050781 27.84375 L 27.652344 2.082031 C 30.007812 -0.289062 33.84375 -0.304688 36.21875 2.050781 Z M 36.21875 2.050781 " /><g transform="matrix(1.0075098,0,0,1.0032698,16.221436,16.077397)"><path fill-rule="evenodd" fill="rgb(100%, 100%, 100%)" fill-opacity="1" d="M 31.65625 16.0625 C 31.65625 24.539062 24.703125 31.414062 16.132812 31.414062 C 7.5625 31.414062 0.609375 24.539062 0.609375 16.0625 C 0.609375 7.582031 7.5625 0.710938 16.132812 0.710938 C 24.703125 0.710938 31.65625 7.582031 31.65625 16.0625 "/><path fill-rule="nonzero" fill="rgb(100%, 100%, 100%)" fill-opacity="1" d="M 8.445312 25.429688 C 8.367188 25.375 8.253906 25.230469 8.191406 25.113281 L 8.078125 24.90625 L 8.078125 6.957031 L 8.207031 6.707031 C 8.289062 6.554688 8.40625 6.414062 8.511719 6.359375 L 8.6875 6.257812 L 8.890625 6.484375 C 9.007812 6.609375 10.964844 8.734375 13.242188 11.203125 C 15.515625 13.675781 17.421875 15.75 17.46875 15.808594 C 17.554688 15.917969 17.515625 15.96875 13.140625 20.71875 C 10.710938 23.351562 8.691406 25.515625 8.648438 25.523438 C 8.613281 25.53125 8.519531 25.492188 8.441406 25.429688 M 11.273438 23.96875 C 11.851562 23.34375 13.632812 21.414062 15.226562 19.679688 C 16.828125 17.945312 18.152344 16.546875 18.171875 16.570312 C 18.375 16.773438 20.769531 19.390625 20.765625 19.398438 C 20.757812 19.402344 18.789062 20.46875 16.382812 21.769531 C 13.976562 23.070312 11.84375 24.230469 11.632812 24.347656 C 11.417969 24.460938 11.015625 24.679688 10.734375 24.832031 L 10.226562 25.101562 L 11.273438 23.96875 M 20.09375 17.445312 L 18.6875 15.917969 L 19.179688 15.382812 C 19.453125 15.085938 20.09375 14.394531 20.59375 13.847656 L 21.511719 12.851562 L 21.671875 12.945312 C 21.757812 13 22.632812 13.476562 23.617188 14.007812 C 26.289062 15.460938 26.351562 15.5 26.351562 15.929688 C 26.351562 16.183594 26.261719 16.320312 25.976562 16.523438 C 25.785156 16.660156 21.757812 18.875 21.578125 18.941406 C 21.53125 18.960938 21.027344 18.449219 20.09375 17.445312 M 14.414062 11.273438 C 12.390625 9.070312 10.632812 7.15625 10.507812 7.015625 L 10.28125 6.769531 L 10.484375 6.871094 C 10.898438 7.078125 20.652344 12.398438 20.691406 12.4375 C 20.726562 12.476562 18.230469 15.226562 18.132812 15.257812 C 18.109375 15.269531 16.433594 13.476562 14.414062 11.273438 "/></g></svg>
