<svg width="64" height="64" viewBox="0 0 64 64" version="1.1"><defs><linearGradient id="linear-pattern-0" gradientUnits="userSpaceOnUse" x1="0" y1="0" x2="0" y2="1" gradientTransform="matrix(60, 0, 0, 56, 0, 4)"><stop offset="0" stop-color="#c10000" stop-opacity="1"/><stop offset="1" stop-color="#5f0000" stop-opacity="1"/></linearGradient></defs><path fill="url(#linear-pattern-0)" fill-opacity="1" d="M 36.21875 2.050781 L 62.027344 27.605469 C 64.402344 29.957031 64.417969 33.785156 62.058594 36.15625 L 36.460938 61.917969 C 34.105469 64.289062 30.269531 64.304688 27.894531 61.949219 L 2.085938 36.394531 C -0.289062 34.042969 -0.304688 30.214844 2.050781 27.84375 L 27.652344 2.082031 C 30.007812 -0.289062 33.84375 -0.304688 36.21875 2.050781 Z M 36.21875 2.050781 " /><g transform="matrix(1.0075098,0,0,1.0032698,16.221436,16.077397)"><path fill-rule="evenodd" fill="rgb(100%, 100%, 100%)" fill-opacity="1" d="M 0.804688 4.152344 L 0.804688 23.378906 L 15.148438 23.378906 L 15.148438 4.152344 Z M 18.3125 4.179688 L 18.3125 6.0625 L 31.375 6.0625 L 31.375 4.179688 Z M 8.535156 6.363281 L 8.621094 6.363281 L 12.5625 6.375 L 11.390625 7.09375 L 10.359375 7.09375 C 10.367188 7.132812 10.960938 7.601562 11.304688 8.328125 C 11.488281 8.726562 11.597656 9.183594 11.597656 9.671875 C 11.597656 9.898438 11.609375 10.140625 11.539062 10.375 C 11.414062 10.765625 11.332031 11.023438 11.210938 11.203125 C 10.820312 11.796875 10.648438 11.699219 10 12.492188 C 9.648438 12.929688 9.539062 13.195312 9.53125 13.40625 C 9.527344 13.5625 9.550781 13.765625 9.695312 13.921875 C 9.851562 14.09375 10.085938 14.242188 10.421875 14.539062 C 10.96875 15.007812 11.53125 15.492188 11.851562 16.054688 C 12.1875 16.632812 12.28125 17.289062 12.195312 17.992188 C 12.039062 19.398438 10.195312 21.253906 7.226562 21.164062 C 4.269531 21.078125 3.582031 19.3125 3.582031 19.3125 C 3.582031 19.3125 2.875 17.964844 4.179688 16.5 C 5.492188 15.03125 8.253906 15.109375 8.253906 15.109375 C 8.253906 15.109375 8.363281 15.101562 8.210938 14.914062 C 7.582031 14.132812 7.894531 13.03125 7.894531 13.03125 C 7.894531 13.03125 7.105469 13.132812 6.359375 12.914062 C 6.117188 12.84375 5.515625 12.472656 5.515625 12.472656 C 5.515625 12.472656 3.804688 11.492188 4.46875 9.03125 C 4.898438 7.4375 6.414062 6.671875 7.515625 6.460938 C 7.976562 6.375 8.367188 6.363281 8.535156 6.363281 M 7.6875 7.039062 C 7.328125 7.039062 7.078125 7.148438 7.078125 7.148438 C 6.679688 7.414062 5.664062 7.554688 6.078125 10.21875 C 6.488281 12.832031 8.714844 12.472656 8.714844 12.472656 C 8.714844 12.472656 10.65625 12.023438 9.730469 9.085938 C 9.1875 7.371094 8.289062 7.039062 7.6875 7.039062 M 18.3125 8.539062 L 18.3125 10.421875 L 31.375 10.421875 L 31.375 8.539062 Z M 18.3125 12.90625 L 18.3125 14.78125 L 31.375 14.78125 L 31.375 12.90625 Z M 8.917969 15.695312 C 8.535156 15.726562 8.140625 15.703125 7.847656 15.730469 C 6.960938 15.8125 6.492188 15.96875 6.015625 16.304688 C 5.792969 16.46875 5.554688 16.601562 5.332031 16.914062 C 4.464844 18.15625 5.632812 19.542969 5.847656 19.65625 C 6.253906 19.878906 7.070312 20.320312 8.160156 20.320312 C 8.601562 20.316406 9.304688 20.289062 9.703125 20.070312 C 11.054688 19.316406 11.046875 18.632812 10.859375 17.6875 C 10.691406 16.847656 8.917969 15.695312 8.917969 15.695312 M 18.3125 17.265625 L 18.3125 19.140625 L 31.375 19.140625 L 31.375 17.265625 Z M 18.3125 21.625 L 18.3125 23.5 L 31.375 23.5 L 31.375 21.625 Z M 1.507812 25.984375 L 1.507812 27.859375 L 31.375 27.859375 L 31.375 25.984375 Z M 1.507812 25.984375 "/></g></svg>
