<svg width="64" height="64" viewBox="0 0 64 64" version="1.1"><defs><linearGradient id="linear-pattern-0" gradientUnits="userSpaceOnUse" x1="0" y1="0" x2="0" y2="1" gradientTransform="matrix(60, 0, 0, 56, 0, 4)"><stop offset="0" stop-color="#a67e50" stop-opacity="1"/><stop offset="1" stop-color="#644c30" stop-opacity="1"/></linearGradient></defs><path fill="url(#linear-pattern-0)" fill-opacity="1" d="M 36.21875 2.050781 L 62.027344 27.605469 C 64.402344 29.957031 64.417969 33.785156 62.058594 36.15625 L 36.460938 61.917969 C 34.105469 64.289062 30.269531 64.304688 27.894531 61.949219 L 2.085938 36.394531 C -0.289062 34.042969 -0.304688 30.214844 2.050781 27.84375 L 27.652344 2.082031 C 30.007812 -0.289062 33.84375 -0.304688 36.21875 2.050781 Z M 36.21875 2.050781 " /><g transform="matrix(1.0075098,0,0,1.0032698,16.221436,16.077397)"><path fill-rule="nonzero" fill="rgb(100%, 100%, 100%)" fill-opacity="1" d="M 2.964844 27.472656 C 1.828125 27.15625 1.042969 26.320312 0.734375 25.070312 C 0.570312 24.414062 0.507812 23.28125 0.570312 22.300781 C 0.71875 20.21875 1.558594 11.199219 1.644531 10.824219 C 1.976562 9.335938 2.671875 8.082031 3.734375 7.023438 C 4.859375 5.914062 6.101562 5.289062 7.742188 5.007812 C 8.476562 4.882812 8.757812 4.882812 16.0625 4.882812 C 23.371094 4.882812 23.652344 4.882812 24.390625 5.007812 C 26.023438 5.289062 27.242188 5.894531 28.367188 6.996094 C 29.554688 8.171875 30.359375 9.734375 30.570312 11.296875 C 30.648438 11.898438 31.460938 20.976562 31.554688 22.28125 C 31.625 23.28125 31.558594 24.414062 31.390625 25.070312 C 31.078125 26.328125 30.292969 27.171875 29.136719 27.476562 C 28.40625 27.671875 27.726562 27.570312 26.859375 27.128906 C 25.765625 26.578125 25.109375 25.953125 22.382812 22.882812 L 20.148438 20.367188 L 11.984375 20.367188 L 9.75 22.882812 C 7.019531 25.953125 6.363281 26.578125 5.265625 27.128906 C 4.40625 27.570312 3.695312 27.671875 2.964844 27.472656 M 9.820312 16.609375 C 11.25 16.214844 12.429688 14.972656 12.796875 13.476562 C 12.9375 12.929688 12.929688 11.929688 12.789062 11.394531 C 12.398438 9.859375 11.234375 8.671875 9.726562 8.265625 C 9.257812 8.140625 8.242188 8.140625 7.765625 8.265625 C 6.261719 8.671875 5.09375 9.859375 4.703125 11.394531 C 4.5625 11.9375 4.5625 12.9375 4.695312 13.476562 C 5 14.703125 5.828125 15.75 6.882812 16.28125 C 7.203125 16.4375 7.613281 16.59375 7.796875 16.632812 C 7.984375 16.671875 8.1875 16.714844 8.257812 16.730469 C 8.476562 16.78125 9.476562 16.703125 9.820312 16.609375 M 7.890625 15.484375 C 7.875 15.4375 7.851562 14.953125 7.84375 14.394531 L 7.828125 13.382812 L 5.75 13.320312 L 5.730469 12.46875 C 5.71875 11.835938 5.734375 11.609375 5.792969 11.570312 C 5.835938 11.546875 6.320312 11.519531 6.863281 11.519531 L 7.859375 11.519531 L 7.859375 10.488281 C 7.859375 9.773438 7.882812 9.4375 7.9375 9.382812 C 8.03125 9.28125 9.460938 9.28125 9.5625 9.382812 C 9.617188 9.4375 9.636719 9.773438 9.636719 10.488281 L 9.636719 11.519531 L 10.632812 11.519531 C 11.175781 11.519531 11.660156 11.546875 11.703125 11.570312 C 11.765625 11.609375 11.777344 11.835938 11.765625 12.46875 L 11.746094 13.320312 L 10.707031 13.351562 L 9.664062 13.382812 L 9.636719 14.453125 L 9.601562 15.53125 L 8.757812 15.546875 C 8.117188 15.5625 7.914062 15.546875 7.890625 15.484375 M 23.945312 16.1875 C 24.765625 15.777344 24.796875 14.5 24 14.015625 C 23.632812 13.792969 23.125 13.792969 22.757812 14.015625 C 21.960938 14.496094 21.992188 15.769531 22.804688 16.183594 C 23.15625 16.363281 23.589844 16.363281 23.945312 16.1875 M 21.125 13.65625 C 21.730469 13.5 22.164062 12.769531 22.007812 12.171875 C 21.851562 11.585938 21.382812 11.203125 20.816406 11.203125 C 19.921875 11.203125 19.347656 12.175781 19.742188 13.015625 C 19.878906 13.3125 20.113281 13.515625 20.460938 13.644531 C 20.742188 13.746094 20.78125 13.746094 21.125 13.65625 M 26.585938 13.492188 C 26.980469 13.242188 27.164062 12.867188 27.128906 12.359375 C 27.109375 12.035156 27.074219 11.921875 26.917969 11.726562 C 26.652344 11.386719 26.320312 11.203125 25.953125 11.203125 C 24.851562 11.199219 24.3125 12.523438 25.089844 13.320312 C 25.515625 13.761719 26.0625 13.824219 26.585938 13.492188 M 24.050781 10.835938 C 24.390625 10.59375 24.570312 10.242188 24.570312 9.828125 C 24.570312 9.265625 24.347656 8.898438 23.867188 8.664062 C 23.367188 8.429688 22.773438 8.59375 22.40625 9.070312 C 22.15625 9.398438 22.109375 9.976562 22.296875 10.367188 C 22.4375 10.648438 22.746094 10.921875 23.023438 11.015625 C 23.316406 11.117188 23.78125 11.03125 24.050781 10.835938 "/></g></svg>
