<svg width="64" height="64" viewBox="0 0 64 64" version="1.1"><defs><linearGradient id="linear-pattern-0" gradientUnits="userSpaceOnUse" x1="0" y1="0" x2="0" y2="1" gradientTransform="matrix(60, 0, 0, 56, 0, 4)"><stop offset="0" stop-color="#aaaa00" stop-opacity="1"/><stop offset="1" stop-color="#5c5c00" stop-opacity="1"/></linearGradient></defs><path fill="url(#linear-pattern-0)" fill-opacity="1" d="M 36.21875 2.050781 L 62.027344 27.605469 C 64.402344 29.957031 64.417969 33.785156 62.058594 36.15625 L 36.460938 61.917969 C 34.105469 64.289062 30.269531 64.304688 27.894531 61.949219 L 2.085938 36.394531 C -0.289062 34.042969 -0.304688 30.214844 2.050781 27.84375 L 27.652344 2.082031 C 30.007812 -0.289062 33.84375 -0.304688 36.21875 2.050781 Z M 36.21875 2.050781 " /><g transform="matrix(1.0075098,0,0,1.0032698,16.221436,16.077397)"><path fill-rule="nonzero" fill="rgb(100%, 100%, 100%)" fill-opacity="1" d="M 29.769531 3.75 C 24.953125 9.328125 20.132812 14.890625 15.3125 20.460938 C 13.644531 18.523438 11.96875 16.601562 10.304688 14.660156 C 7.023438 18.46875 3.730469 22.273438 0.4375 26.070312 C 0.960938 27.15625 1.578125 28.1875 2.265625 29.140625 C 4.9375 26.039062 7.625 22.945312 10.304688 19.851562 C 11.972656 21.785156 13.648438 23.710938 15.3125 25.648438 C 20.707031 19.40625 26.109375 13.167969 31.511719 6.9375 C 31.015625 5.8125 30.429688 4.742188 29.769531 3.75 "/></g></svg>
