<svg width="64" height="64" viewBox="0 0 64 64" version="1.1"><defs><linearGradient id="linear-pattern-0" gradientUnits="userSpaceOnUse" x1="0" y1="0" x2="0" y2="1" gradientTransform="matrix(60, 0, 0, 56, 0, 4)"><stop offset="0" stop-color="#008a97" stop-opacity="1"/><stop offset="1" stop-color="#00545c" stop-opacity="1"/></linearGradient></defs><path fill="url(#linear-pattern-0)" fill-opacity="1" d="M 36.21875 2.050781 L 62.027344 27.605469 C 64.402344 29.957031 64.417969 33.785156 62.058594 36.15625 L 36.460938 61.917969 C 34.105469 64.289062 30.269531 64.304688 27.894531 61.949219 L 2.085938 36.394531 C -0.289062 34.042969 -0.304688 30.214844 2.050781 27.84375 L 27.652344 2.082031 C 30.007812 -0.289062 33.84375 -0.304688 36.21875 2.050781 Z M 36.21875 2.050781 " /><g transform="matrix(1.0075098,0,0,1.0032698,16.221436,16.077397)"><path fill-rule="nonzero" fill="rgb(100%, 100%, 100%)" fill-opacity="1" d="M 19.492188 5.0625 C 12.914062 5.0625 10.949219 8.25 9.90625 10.46875 C 8.796875 9.136719 7.789062 8.796875 6.03125 8.796875 C 4.089844 8.796875 1.9375 10.703125 1.9375 13.164062 C 1.9375 13.796875 2.132812 14.667969 2.53125 15.59375 C 1.835938 15.792969 1.171875 15.894531 0.457031 16.1875 C 0.816406 16.929688 1.222656 17.648438 1.671875 18.328125 C 2.785156 17.835938 3.886719 17.53125 4.273438 17.535156 C 5.316406 17.539062 5.84375 16.1875 5.109375 15.402344 C 4.398438 14.582031 4.28125 14.164062 4.28125 13.171875 C 4.28125 11.921875 5.625 11.300781 6.035156 11.300781 C 7.011719 11.300781 7.546875 11.53125 7.992188 11.855469 C 8.425781 12.179688 8.78125 12.664062 9.1875 13.265625 C 9.601562 13.898438 10.460938 13.976562 10.976562 13.429688 C 11.539062 12.828125 11.726562 12.21875 12.007812 11.609375 C 13.125 9.203125 14.726562 7.558594 19.523438 7.558594 C 26.53125 7.558594 27.703125 14.351562 27.703125 16.28125 C 27.703125 16.820312 28.027344 17.296875 28.503906 17.46875 C 29.257812 17.734375 29.851562 18.007812 30.328125 18.28125 C 30.765625 17.617188 31.164062 16.921875 31.515625 16.203125 C 31.066406 15.957031 30.585938 15.71875 30.039062 15.488281 C 30.039062 12.746094 27.695312 5.054688 19.492188 5.054688 Z M 12.484375 13.785156 L 12.484375 21.265625 L 10.140625 21.265625 L 13.921875 26.085938 C 14.609375 26.183594 15.304688 26.234375 15.992188 26.246094 C 16.6875 26.234375 17.375 26.183594 18.0625 26.085938 L 21.84375 21.265625 L 19.507812 21.265625 L 19.507812 13.785156 Z M 12.484375 13.785156 "/></g></svg>
