<svg width="64" height="64" viewBox="0 0 64 64" version="1.1"><defs><linearGradient id="linear-pattern-0" gradientUnits="userSpaceOnUse" x1="0" y1="0" x2="0" y2="1" gradientTransform="matrix(60, 0, 0, 56, 0, 4)"><stop offset="0" stop-color="#aaaa00" stop-opacity="1"/><stop offset="1" stop-color="#5c5c00" stop-opacity="1"/></linearGradient></defs><path fill="url(#linear-pattern-0)" fill-opacity="1" d="M 36.21875 2.050781 L 62.027344 27.605469 C 64.402344 29.957031 64.417969 33.785156 62.058594 36.15625 L 36.460938 61.917969 C 34.105469 64.289062 30.269531 64.304688 27.894531 61.949219 L 2.085938 36.394531 C -0.289062 34.042969 -0.304688 30.214844 2.050781 27.84375 L 27.652344 2.082031 C 30.007812 -0.289062 33.84375 -0.304688 36.21875 2.050781 Z M 36.21875 2.050781 " /><g transform="matrix(1.0075098,0,0,1.0032698,16.221436,16.077397)"><path fill-rule="nonzero" fill="rgb(100%, 100%, 100%)" fill-opacity="1" d="M 1.46875 1.292969 L 1.46875 12.6875 L 2.9375 12.6875 L 2.9375 6.988281 L 8.804688 6.988281 L 8.804688 12.6875 L 10.273438 12.6875 L 10.273438 1.292969 L 8.804688 1.292969 L 8.804688 5.566406 L 2.9375 5.566406 L 2.9375 1.292969 Z M 1.46875 18.386719 L 1.46875 29.78125 L 7.335938 29.78125 L 7.335938 28.359375 L 2.9375 28.359375 L 2.9375 18.386719 Z M 9.539062 18.386719 C 9.132812 18.386719 8.804688 18.703125 8.804688 19.09375 C 8.804688 19.492188 9.132812 19.8125 9.539062 19.8125 C 9.945312 19.8125 10.273438 19.492188 10.273438 19.09375 C 10.273438 18.703125 9.945312 18.386719 9.539062 18.386719 Z M 16.140625 18.386719 L 16.140625 29.78125 L 19.808594 29.78125 C 21.835938 29.78125 23.476562 28.195312 23.476562 26.21875 C 23.476562 24.792969 22.617188 23.570312 21.375 23.003906 C 21.773438 22.515625 22.007812 21.90625 22.007812 21.234375 C 22.007812 19.65625 20.699219 18.386719 19.074219 18.386719 Z M 17.609375 19.8125 L 19.074219 19.8125 C 19.886719 19.8125 20.539062 20.445312 20.539062 21.234375 C 20.539062 22.023438 19.886719 22.660156 19.074219 22.660156 L 17.609375 22.660156 Z M 8.804688 21.234375 L 8.804688 29.78125 L 10.273438 29.78125 L 10.273438 21.234375 Z M 27.875 22.660156 C 26.257812 22.660156 24.941406 24.257812 24.941406 26.21875 C 24.941406 28.1875 26.257812 29.78125 27.875 29.78125 C 29.34375 29.78125 29.890625 29.25 30.441406 28.359375 L 27.875 28.359375 C 27.257812 28.359375 26.703125 27.785156 26.496094 26.933594 L 30.742188 26.933594 C 30.785156 26.703125 30.8125 26.460938 30.8125 26.21875 C 30.8125 24.257812 29.496094 22.660156 27.875 22.660156 Z M 17.609375 24.085938 L 19.808594 24.085938 C 21.023438 24.085938 22.007812 25.035156 22.007812 26.21875 C 22.007812 27.40625 21.023438 28.359375 19.808594 28.359375 L 17.609375 28.359375 Z M 27.875 24.085938 C 28.5 24.085938 29.054688 24.65625 29.257812 25.507812 L 26.496094 25.507812 C 26.703125 24.65625 27.257812 24.085938 27.875 24.085938 Z M 27.875 24.085938 "/></g></svg>
