<svg width="64" height="64" viewBox="0 0 64 64" version="1.1"><defs><linearGradient id="linear-pattern-0" gradientUnits="userSpaceOnUse" x1="0" y1="0" x2="0" y2="1" gradientTransform="matrix(60, 0, 0, 56, 0, 4)"><stop offset="0" stop-color="#8900e4" stop-opacity="1"/><stop offset="1" stop-color="#42006e" stop-opacity="1"/></linearGradient></defs><path fill="url(#linear-pattern-0)" fill-opacity="1" d="M 36.21875 2.050781 L 62.027344 27.605469 C 64.402344 29.957031 64.417969 33.785156 62.058594 36.15625 L 36.460938 61.917969 C 34.105469 64.289062 30.269531 64.304688 27.894531 61.949219 L 2.085938 36.394531 C -0.289062 34.042969 -0.304688 30.214844 2.050781 27.84375 L 27.652344 2.082031 C 30.007812 -0.289062 33.84375 -0.304688 36.21875 2.050781 Z M 36.21875 2.050781 " /><g transform="matrix(1.0075098,0,0,1.0032698,16.221436,16.077397)"><path fill-rule="nonzero" fill="rgb(100%, 100%, 100%)" fill-opacity="1" d="M 12.496094 18.429688 C 12.210938 16.128906 11.628906 3.59375 15.011719 3.46875 C 18.394531 3.339844 19.296875 14.90625 19.625 17.960938 C 19.953125 21.019531 18.867188 23.757812 26.148438 22.085938 C 29.378906 21.335938 31.203125 19.550781 30.984375 24.007812 C 30.757812 28.46875 22.703125 28.597656 18.894531 28.90625 C 8.671875 29.484375 0.898438 28.601562 1 26.078125 C 1.101562 23.546875 1.234375 22.492188 3.109375 22.835938 C 15.667969 25.128906 12.773438 20.664062 12.496094 18.429688 Z M 12.496094 18.429688 "/><path fill-rule="nonzero" fill="rgb(100%, 100%, 100%)" fill-opacity="1" d="M 11.429688 6.3125 C 9.449219 6.21875 7.695312 9.171875 7.515625 12.90625 C 7.335938 16.640625 8.792969 19.742188 10.773438 19.835938 C 12.757812 19.929688 14.507812 16.976562 14.691406 13.242188 C 14.875 9.507812 13.414062 6.40625 11.429688 6.3125 Z M 10.957031 12.820312 C 11 12.824219 11.039062 12.832031 11.078125 12.84375 C 11.121094 12.851562 11.164062 12.867188 11.203125 12.882812 C 11.242188 12.902344 11.28125 12.921875 11.320312 12.953125 C 11.359375 12.976562 11.398438 13.007812 11.429688 13.039062 C 11.46875 13.074219 11.503906 13.109375 11.539062 13.152344 C 11.574219 13.195312 11.609375 13.238281 11.640625 13.285156 C 11.671875 13.335938 11.703125 13.382812 11.730469 13.4375 C 11.757812 13.492188 11.789062 13.550781 11.8125 13.609375 C 11.839844 13.671875 11.863281 13.734375 11.886719 13.796875 C 11.90625 13.867188 11.929688 13.933594 11.949219 14.003906 C 11.96875 14.070312 11.984375 14.144531 12 14.21875 C 12.015625 14.292969 12.03125 14.367188 12.039062 14.445312 C 12.054688 14.523438 12.0625 14.601562 12.070312 14.679688 C 12.078125 14.757812 12.078125 14.84375 12.085938 14.921875 C 12.085938 15.003906 12.085938 15.085938 12.085938 15.164062 C 12.085938 15.226562 12.085938 15.28125 12.082031 15.34375 C 12.078125 15.421875 12.070312 15.503906 12.0625 15.585938 C 12.054688 15.667969 12.046875 15.75 12.03125 15.828125 C 12.023438 15.90625 12.007812 15.988281 11.992188 16.0625 C 11.976562 16.140625 11.957031 16.21875 11.9375 16.292969 C 11.917969 16.367188 11.898438 16.441406 11.875 16.511719 C 11.851562 16.585938 11.824219 16.652344 11.796875 16.71875 C 11.769531 16.785156 11.742188 16.851562 11.710938 16.914062 C 11.683594 16.972656 11.652344 17.03125 11.617188 17.085938 C 11.585938 17.140625 11.554688 17.195312 11.515625 17.242188 C 11.484375 17.296875 11.445312 17.339844 11.410156 17.382812 C 11.375 17.425781 11.335938 17.464844 11.296875 17.5 C 11.257812 17.535156 11.21875 17.566406 11.179688 17.59375 C 11.136719 17.625 11.09375 17.648438 11.054688 17.667969 C 11.015625 17.6875 10.972656 17.703125 10.929688 17.714844 C 10.890625 17.726562 10.847656 17.734375 10.804688 17.738281 C 10.777344 17.742188 10.75 17.742188 10.71875 17.742188 C 10.679688 17.738281 10.636719 17.734375 10.59375 17.722656 C 10.554688 17.710938 10.515625 17.695312 10.476562 17.679688 C 10.433594 17.664062 10.394531 17.640625 10.355469 17.613281 C 10.320312 17.585938 10.28125 17.554688 10.242188 17.523438 C 10.207031 17.492188 10.171875 17.453125 10.136719 17.414062 C 10.101562 17.371094 10.070312 17.328125 10.039062 17.277344 C 10.007812 17.230469 9.976562 17.179688 9.945312 17.125 C 9.914062 17.070312 9.890625 17.015625 9.863281 16.953125 C 9.835938 16.890625 9.8125 16.828125 9.789062 16.765625 C 9.765625 16.699219 9.746094 16.632812 9.726562 16.5625 C 9.707031 16.492188 9.691406 16.417969 9.675781 16.34375 C 9.660156 16.273438 9.648438 16.195312 9.632812 16.117188 C 9.625 16.039062 9.617188 15.960938 9.609375 15.882812 C 9.601562 15.804688 9.59375 15.722656 9.59375 15.640625 C 9.589844 15.5625 9.585938 15.476562 9.589844 15.398438 C 9.589844 15.339844 9.59375 15.28125 9.59375 15.222656 C 9.597656 15.140625 9.601562 15.058594 9.613281 14.976562 C 9.621094 14.898438 9.632812 14.8125 9.640625 14.734375 C 9.65625 14.65625 9.671875 14.578125 9.6875 14.5 C 9.703125 14.421875 9.71875 14.34375 9.738281 14.269531 C 9.757812 14.195312 9.78125 14.125 9.804688 14.050781 C 9.828125 13.980469 9.851562 13.914062 9.878906 13.84375 C 9.90625 13.777344 9.933594 13.714844 9.960938 13.652344 C 9.992188 13.59375 10.023438 13.53125 10.054688 13.476562 C 10.089844 13.421875 10.125 13.367188 10.15625 13.320312 C 10.195312 13.269531 10.230469 13.222656 10.265625 13.179688 C 10.304688 13.140625 10.34375 13.101562 10.382812 13.0625 C 10.421875 13.027344 10.460938 12.996094 10.5 12.96875 C 10.539062 12.941406 10.578125 12.914062 10.621094 12.898438 C 10.664062 12.875 10.703125 12.859375 10.742188 12.851562 C 10.785156 12.835938 10.828125 12.828125 10.867188 12.828125 C 10.898438 12.820312 10.929688 12.820312 10.957031 12.824219 Z M 10.957031 12.820312 "/><path fill-rule="nonzero" fill="rgb(100%, 100%, 100%)" fill-opacity="1" d="M 20.382812 6.4375 C 20.261719 6.429688 20.140625 6.429688 20.023438 6.441406 C 18.046875 6.636719 16.757812 9.8125 17.132812 13.53125 C 17.515625 17.253906 19.421875 20.109375 21.398438 19.914062 C 23.367188 19.71875 24.664062 16.539062 24.28125 12.820312 C 23.929688 9.359375 22.246094 6.601562 20.382812 6.4375 Z M 21.492188 13.039062 C 21.523438 13.039062 21.554688 13.042969 21.582031 13.046875 C 22.265625 13.140625 22.664062 14.304688 22.480469 15.652344 C 22.296875 17 21.59375 18.015625 20.910156 17.925781 C 20.226562 17.835938 19.828125 16.667969 20.011719 15.320312 C 20.1875 14.039062 20.835938 13.046875 21.492188 13.039062 Z M 21.492188 13.039062 "/></g></svg>
