<svg width="64" height="64" viewBox="0 0 64 64" version="1.1"><defs><linearGradient id="linear-pattern-0" gradientUnits="userSpaceOnUse" x1="0" y1="0" x2="0" y2="1" gradientTransform="matrix(60, 0, 0, 56, 0, 4)"><stop offset="0" stop-color="#3067ff" stop-opacity="1"/><stop offset="1" stop-color="#002ca6" stop-opacity="1"/></linearGradient></defs><path fill="url(#linear-pattern-0)" fill-opacity="1" d="M 36.21875 2.050781 L 62.027344 27.605469 C 64.402344 29.957031 64.417969 33.785156 62.058594 36.15625 L 36.460938 61.917969 C 34.105469 64.289062 30.269531 64.304688 27.894531 61.949219 L 2.085938 36.394531 C -0.289062 34.042969 -0.304688 30.214844 2.050781 27.84375 L 27.652344 2.082031 C 30.007812 -0.289062 33.84375 -0.304688 36.21875 2.050781 Z M 36.21875 2.050781 " /><g transform="matrix(1.0075098,0,0,1.0032698,16.221436,16.077397)"><path fill-rule="nonzero" fill="rgb(100%, 100%, 100%)" fill-opacity="1" d="M 26.335938 27.09375 C 26.335938 29.40625 24.417969 31.273438 22.054688 31.273438 C 19.695312 31.273438 17.78125 29.40625 17.78125 27.09375 C 17.78125 24.785156 19.695312 22.914062 22.054688 22.914062 C 24.417969 22.914062 26.335938 24.785156 26.335938 27.09375 Z M 26.335938 27.09375 "/><path fill-rule="nonzero" fill="rgb(100%, 100%, 100%)" fill-opacity="1" d="M 27.207031 15.921875 L 5.523438 19.53125 L 5.523438 21.335938 L 27.207031 17.726562 Z M 27.207031 15.921875 "/><path fill-rule="nonzero" fill="rgb(100%, 100%, 100%)" fill-opacity="1" d="M 14.367188 19.078125 C 13.792969 17.011719 12.78125 15.289062 11.554688 13.695312 C 10.648438 12.515625 9.59375 11.421875 8.625 10.277344 C 8.296875 9.890625 8.015625 9.492188 7.710938 9.09375 C 7.082031 8.300781 6.578125 7.378906 6.609375 6.1875 C 6.636719 5.015625 7.101562 4.082031 7.765625 3.3125 C 8.847656 2.054688 10.671875 1.023438 13.125 0.753906 C 15.125 0.53125 17.011719 0.90625 18.339844 1.476562 C 19.421875 1.945312 20.273438 2.566406 20.910156 3.304688 C 21.578125 4.070312 22.042969 4.976562 22.078125 6.164062 C 22.101562 6.769531 21.960938 7.335938 21.773438 7.796875 C 21.578125 8.265625 21.273438 8.664062 20.996094 9.085938 C 20.457031 9.90625 19.78125 10.65625 19.101562 11.410156 C 17.085938 13.65625 15.195312 15.945312 14.367188 19.078125 "/></g></svg>
