<svg width="64" height="64" viewBox="0 0 64 64" version="1.1"><defs><linearGradient id="linear-pattern-0" gradientUnits="userSpaceOnUse" x1="0" y1="0" x2="0" y2="1" gradientTransform="matrix(60, 0, 0, 56, 0, 4)"><stop offset="0" stop-color="#d00068" stop-opacity="1"/><stop offset="1" stop-color="#6e0037" stop-opacity="1"/></linearGradient></defs><path fill="url(#linear-pattern-0)" fill-opacity="1" d="M 36.21875 2.050781 L 62.027344 27.605469 C 64.402344 29.957031 64.417969 33.785156 62.058594 36.15625 L 36.460938 61.917969 C 34.105469 64.289062 30.269531 64.304688 27.894531 61.949219 L 2.085938 36.394531 C -0.289062 34.042969 -0.304688 30.214844 2.050781 27.84375 L 27.652344 2.082031 C 30.007812 -0.289062 33.84375 -0.304688 36.21875 2.050781 Z M 36.21875 2.050781 " /><g transform="matrix(1.0075098,0,0,1.0032698,16.221436,16.077397)"><path fill-rule="nonzero" fill="rgb(100%, 100%, 100%)" fill-opacity="1" d="M 12.34375 -0.460938 C 5.070312 1.367188 -0.03125 7.875 -0.046875 15.34375 C -0.03125 22.8125 5.070312 29.320312 12.34375 31.148438 L 12.34375 28.632812 C 6.425781 26.835938 2.375 21.398438 2.359375 15.234375 C 2.367188 9.070312 6.421875 3.632812 12.34375 1.832031 Z M 20.585938 -0.40625 L 20.585938 1.835938 C 26.507812 3.640625 30.554688 9.074219 30.5625 15.234375 C 30.546875 21.398438 26.507812 26.828125 20.585938 28.632812 L 20.585938 31.089844 C 27.75 29.179688 32.734375 22.726562 32.75 15.34375 C 32.738281 7.960938 27.75 1.503906 20.585938 -0.40625 Z M 20.585938 -0.40625 "/><path fill-rule="nonzero" fill="rgb(100%, 100%, 100%)" fill-opacity="1" d="M 12.34375 3.21875 C 7.078125 4.9375 3.515625 9.828125 3.5 15.34375 C 3.507812 20.867188 7.074219 25.765625 12.34375 27.484375 L 12.34375 25.476562 C 8.148438 23.804688 5.390625 19.761719 5.382812 15.261719 C 5.390625 10.761719 8.148438 6.71875 12.34375 5.054688 Z M 20.585938 3.28125 L 20.585938 5.070312 C 24.757812 6.75 27.484375 10.78125 27.488281 15.261719 C 27.484375 19.734375 24.757812 23.765625 20.585938 25.445312 L 20.585938 27.398438 C 25.738281 25.609375 29.191406 20.773438 29.203125 15.34375 C 29.195312 9.910156 25.742188 5.078125 20.585938 3.28125 Z M 20.585938 3.28125 "/><path fill-rule="nonzero" fill="rgb(100%, 100%, 100%)" fill-opacity="1" d="M 12.34375 6.773438 C 9.023438 8.296875 6.890625 11.605469 6.882812 15.246094 C 6.886719 18.890625 9.019531 22.199219 12.34375 23.71875 L 12.34375 22.164062 C 9.820312 20.742188 8.257812 18.074219 8.257812 15.1875 C 8.265625 12.296875 9.824219 9.636719 12.34375 8.210938 Z M 20.585938 6.953125 L 20.585938 8.375 C 22.953125 9.835938 24.398438 12.410156 24.398438 15.1875 C 24.398438 17.960938 22.957031 20.535156 20.585938 22 L 20.585938 23.523438 C 23.695312 21.921875 25.644531 18.726562 25.648438 15.246094 C 25.648438 11.757812 23.695312 8.5625 20.585938 6.953125 Z M 20.585938 6.953125 "/><path fill-rule="nonzero" fill="rgb(100%, 100%, 100%)" fill-opacity="1" d="M 14.46875 12.113281 C 13.433594 13.085938 13.429688 14.667969 14.46875 15.636719 L 14.957031 15.171875 C 14.191406 14.453125 14.191406 13.296875 14.960938 12.574219 M 17.742188 12.570312 C 18.507812 13.289062 18.515625 14.453125 17.742188 15.175781 L 18.234375 15.640625 C 19.273438 14.671875 19.265625 13.078125 18.234375 12.109375 M 17.742188 12.570312 "/><path fill-rule="nonzero" fill="rgb(100%, 100%, 100%)" fill-opacity="1" d="M 13.007812 10.636719 C 11.160156 12.421875 11.15625 15.320312 13 17.101562 L 13.878906 16.253906 C 12.507812 14.929688 12.515625 12.808594 13.882812 11.484375 M 18.820312 11.480469 C 20.1875 12.800781 20.195312 14.9375 18.828125 16.261719 L 19.703125 17.109375 C 21.546875 15.328125 21.539062 12.410156 19.695312 10.632812 L 18.820312 11.480469 M 18.820312 11.480469 "/><path fill-rule="nonzero" fill="rgb(100%, 100%, 100%)" fill-opacity="1" d="M 16.351562 13.578125 C 16.679688 13.578125 16.941406 13.835938 16.941406 14.164062 L 16.941406 19.464844 C 16.941406 19.789062 16.679688 20.054688 16.351562 20.054688 C 16.023438 20.054688 15.761719 19.789062 15.761719 19.464844 L 15.761719 14.164062 C 15.761719 13.835938 16.023438 13.578125 16.351562 13.578125 "/></g></svg>
