<svg width="64" height="64" viewBox="0 0 64 64" version="1.1"><defs><linearGradient id="linear-pattern-0" gradientUnits="userSpaceOnUse" x1="0" y1="0" x2="0" y2="1" gradientTransform="matrix(60, 0, 0, 56, 0, 4)"><stop offset="0" stop-color="#00a07f" stop-opacity="1"/><stop offset="1" stop-color="#005241" stop-opacity="1"/></linearGradient></defs><path fill="url(#linear-pattern-0)" fill-opacity="1" d="M 36.21875 2.050781 L 62.027344 27.605469 C 64.402344 29.957031 64.417969 33.785156 62.058594 36.15625 L 36.460938 61.917969 C 34.105469 64.289062 30.269531 64.304688 27.894531 61.949219 L 2.085938 36.394531 C -0.289062 34.042969 -0.304688 30.214844 2.050781 27.84375 L 27.652344 2.082031 C 30.007812 -0.289062 33.84375 -0.304688 36.21875 2.050781 Z M 36.21875 2.050781 " /><g transform="matrix(1.0075098,0,0,1.0032698,16.221436,16.077397)"><path fill-rule="nonzero" fill="rgb(100%, 100%, 100%)" fill-opacity="1" d="M 12.402344 0.824219 C 5.554688 2.574219 0.746094 8.820312 0.734375 15.992188 C 0.75 23.15625 5.554688 29.398438 12.402344 31.152344 L 12.402344 28.742188 C 6.824219 27.015625 3.007812 21.796875 3 15.882812 C 3.007812 9.96875 6.824219 4.75 12.402344 3.023438 Z M 20.164062 0.875 L 20.164062 3.023438 C 25.734375 4.757812 29.546875 9.976562 29.558594 15.882812 C 29.542969 21.796875 25.734375 27.011719 20.164062 28.742188 L 20.164062 31.101562 C 26.90625 29.265625 31.601562 23.074219 31.617188 15.992188 C 31.601562 8.90625 26.90625 2.707031 20.164062 0.875 Z M 20.164062 0.875 "/><path fill-rule="nonzero" fill="rgb(100%, 100%, 100%)" fill-opacity="1" d="M 12.402344 4.351562 C 7.445312 6 4.085938 10.695312 4.074219 15.992188 C 4.082031 21.289062 7.4375 25.988281 12.402344 27.640625 L 12.402344 25.710938 C 8.445312 24.109375 5.851562 20.226562 5.847656 15.910156 C 5.855469 11.59375 8.445312 7.710938 12.402344 6.113281 Z M 20.164062 4.414062 L 20.164062 6.128906 C 24.089844 7.742188 26.660156 11.609375 26.664062 15.910156 C 26.65625 20.203125 24.089844 24.070312 20.164062 25.679688 L 20.164062 27.554688 C 25.011719 25.835938 28.265625 21.203125 28.273438 15.992188 C 28.265625 10.773438 25.015625 6.132812 20.164062 4.414062 Z M 20.164062 4.414062 "/><path fill-rule="nonzero" fill="rgb(100%, 100%, 100%)" fill-opacity="1" d="M 12.402344 7.765625 C 9.273438 9.226562 7.265625 12.398438 7.257812 15.890625 C 7.261719 19.390625 9.273438 22.566406 12.402344 24.027344 L 12.402344 22.53125 C 10.023438 21.164062 8.554688 18.609375 8.554688 15.835938 C 8.558594 13.0625 10.03125 10.515625 12.402344 9.144531 Z M 20.164062 7.9375 L 20.164062 9.296875 C 22.390625 10.703125 23.75 13.171875 23.753906 15.835938 C 23.75 18.496094 22.394531 20.96875 20.164062 22.375 L 20.164062 23.835938 C 23.085938 22.296875 24.925781 19.238281 24.929688 15.890625 C 24.929688 12.546875 23.09375 9.484375 20.164062 7.9375 Z M 20.164062 7.9375 "/><path fill-rule="nonzero" fill="rgb(100%, 100%, 100%)" fill-opacity="1" d="M 14.398438 12.890625 C 13.425781 13.820312 13.421875 15.339844 14.398438 16.269531 L 14.863281 15.824219 C 14.136719 15.132812 14.140625 14.023438 14.867188 13.335938 M 17.480469 13.328125 C 18.207031 14.019531 18.210938 15.132812 17.484375 15.828125 L 17.945312 16.273438 C 18.921875 15.34375 18.921875 13.816406 17.945312 12.882812 M 17.480469 13.328125 "/><path fill-rule="nonzero" fill="rgb(100%, 100%, 100%)" fill-opacity="1" d="M 13.023438 11.476562 C 11.289062 13.179688 11.285156 15.964844 13.015625 17.671875 L 13.84375 16.859375 C 12.554688 15.59375 12.5625 13.558594 13.851562 12.289062 M 18.496094 12.28125 C 19.78125 13.546875 19.796875 15.601562 18.507812 16.871094 L 19.328125 17.679688 C 21.066406 15.972656 21.058594 13.179688 19.324219 11.46875 L 18.496094 12.28125 M 18.496094 12.28125 "/><path fill-rule="nonzero" fill="rgb(100%, 100%, 100%)" fill-opacity="1" d="M 16.171875 14.296875 C 16.484375 14.296875 16.726562 14.546875 16.726562 14.859375 L 16.726562 19.945312 C 16.726562 20.257812 16.484375 20.507812 16.171875 20.507812 C 15.867188 20.507812 15.617188 20.257812 15.617188 19.945312 L 15.617188 14.859375 C 15.617188 14.546875 15.867188 14.296875 16.171875 14.296875 "/></g></svg>
