<svg width="64" height="64" viewBox="0 0 64 64" version="1.1"><defs><linearGradient id="linear-pattern-0" gradientUnits="userSpaceOnUse" x1="0" y1="0" x2="0" y2="1" gradientTransform="matrix(60, 0, 0, 56, 0, 4)"><stop offset="0" stop-color="#0288cf" stop-opacity="1"/><stop offset="1" stop-color="#01486e" stop-opacity="1"/></linearGradient></defs><path fill="url(#linear-pattern-0)" fill-opacity="1" d="M 36.21875 2.050781 L 62.027344 27.605469 C 64.402344 29.957031 64.417969 33.785156 62.058594 36.15625 L 36.460938 61.917969 C 34.105469 64.289062 30.269531 64.304688 27.894531 61.949219 L 2.085938 36.394531 C -0.289062 34.042969 -0.304688 30.214844 2.050781 27.84375 L 27.652344 2.082031 C 30.007812 -0.289062 33.84375 -0.304688 36.21875 2.050781 Z M 36.21875 2.050781 " /><g transform="matrix(1.0075098,0,0,1.0032698,16.221436,16.077397)"><path fill-rule="nonzero" fill="rgb(100%, 100%, 100%)" fill-opacity="1" d="M 3.796875 23.179688 L 2.023438 21.914062 L 9.90625 10.871094 L 18.828125 16.8125 L 28.378906 8.625 L 29.804688 10.28125 L 18.992188 19.550781 L 10.457031 13.851562 Z M 3.796875 23.179688 "/><path fill-rule="evenodd" fill="rgb(100%, 100%, 100%)" fill-opacity="1" d="M 0 22.546875 C 0 20.9375 1.304688 19.636719 2.910156 19.636719 C 4.515625 19.636719 5.820312 20.9375 5.820312 22.546875 C 5.820312 24.152344 4.515625 25.453125 2.910156 25.453125 C 1.304688 25.453125 0 24.152344 0 22.546875 Z M 7.273438 12.363281 C 7.273438 10.757812 8.578125 9.453125 10.179688 9.453125 C 11.789062 9.453125 13.089844 10.757812 13.089844 12.363281 C 13.089844 13.96875 11.789062 15.273438 10.179688 15.273438 C 8.578125 15.273438 7.273438 13.96875 7.273438 12.363281 Z M 16 18.179688 C 16 16.578125 17.304688 15.273438 18.910156 15.273438 C 20.515625 15.273438 21.820312 16.578125 21.820312 18.179688 C 21.820312 19.789062 20.515625 21.089844 18.910156 21.089844 C 17.304688 21.089844 16 19.789062 16 18.179688 Z M 26.179688 9.453125 C 26.179688 7.847656 27.484375 6.546875 29.089844 6.546875 C 30.695312 6.546875 32 7.847656 32 9.453125 C 32 11.0625 30.695312 12.363281 29.089844 12.363281 C 27.484375 12.363281 26.179688 11.0625 26.179688 9.453125 Z M 26.179688 9.453125 "/></g></svg>
