<svg width="64" height="64" viewBox="0 0 64 64" version="1.1"><defs><linearGradient id="linear-pattern-0" gradientUnits="userSpaceOnUse" x1="0" y1="0" x2="0" y2="1" gradientTransform="matrix(60, 0, 0, 56, 0, 4)"><stop offset="0" stop-color="#3067ff" stop-opacity="1"/><stop offset="1" stop-color="#002ca6" stop-opacity="1"/></linearGradient></defs><path fill="url(#linear-pattern-0)" fill-opacity="1" d="M 36.21875 2.050781 L 62.027344 27.605469 C 64.402344 29.957031 64.417969 33.785156 62.058594 36.15625 L 36.460938 61.917969 C 34.105469 64.289062 30.269531 64.304688 27.894531 61.949219 L 2.085938 36.394531 C -0.289062 34.042969 -0.304688 30.214844 2.050781 27.84375 L 27.652344 2.082031 C 30.007812 -0.289062 33.84375 -0.304688 36.21875 2.050781 Z M 36.21875 2.050781 " /><g transform="matrix(1.0075098,0,0,1.0032698,16.221436,16.077397)"><path fill-rule="nonzero" fill="rgb(100%, 100%, 100%)" fill-opacity="1" d="M 10.351562 1.0625 L 6.335938 3.007812 C 7.726562 3.914062 9.125 4.71875 10.496094 5.445312 C 10.855469 5.257812 11.21875 5.070312 11.589844 4.890625 C 12.59375 4.386719 13.621094 3.890625 14.65625 3.390625 C 13.226562 2.675781 11.78125 1.914062 10.351562 1.0625 Z M 21.78125 1.066406 C 18.585938 2.972656 15.289062 4.421875 12.3125 5.90625 C 9.945312 7.089844 7.765625 8.296875 6.085938 9.921875 C 4.398438 11.539062 3.300781 13.648438 3.300781 16.132812 C 3.300781 18.617188 4.398438 20.730469 6.085938 22.351562 C 7.328125 23.546875 8.839844 24.519531 10.5 25.421875 C 11.953125 24.671875 13.347656 23.996094 14.648438 23.375 C 14.59375 23.351562 14.542969 23.324219 14.492188 23.296875 C 12.25 22.179688 10.445312 21.121094 9.289062 20.007812 C 8.140625 18.898438 7.554688 17.8125 7.554688 16.132812 C 7.554688 14.460938 8.140625 13.371094 9.289062 12.261719 C 10.445312 11.148438 12.25 10.09375 14.492188 8.976562 C 17.71875 7.359375 21.796875 5.617188 25.792969 3.007812 Z M 21.632812 6.855469 C 20.175781 7.609375 18.78125 8.273438 17.476562 8.898438 C 17.523438 8.921875 17.582031 8.949219 17.632812 8.976562 C 19.875 10.09375 21.679688 11.15625 22.835938 12.261719 C 23.6875 13.085938 24.230469 13.898438 24.453125 14.945312 L 28.734375 14.945312 C 28.445312 12.976562 27.449219 11.277344 26.039062 9.921875 C 24.800781 8.726562 23.289062 7.757812 21.632812 6.855469 Z M 15.351562 17.324219 L 13.226562 20.890625 L 21.765625 20.890625 C 20.679688 21.691406 19.273438 22.476562 17.632812 23.296875 C 14.40625 24.914062 10.328125 26.65625 6.328125 29.265625 L 10.34375 31.207031 C 13.539062 29.296875 16.835938 27.851562 19.8125 26.367188 C 22.179688 25.179688 24.355469 23.972656 26.039062 22.351562 C 27.449219 20.992188 28.445312 19.296875 28.734375 17.324219 Z M 21.628906 26.820312 C 21.265625 27.007812 20.90625 27.199219 20.535156 27.382812 C 19.535156 27.882812 18.5 28.378906 17.464844 28.882812 C 18.898438 29.59375 20.34375 30.359375 21.773438 31.210938 L 25.792969 29.265625 C 24.402344 28.351562 23 27.546875 21.628906 26.820312 Z M 21.628906 26.820312 "/></g></svg>
