<svg width="64" height="64" viewBox="0 0 64 64" version="1.1"><defs><linearGradient id="linear-pattern-0" gradientUnits="userSpaceOnUse" x1="0" y1="0" x2="0" y2="1" gradientTransform="matrix(60, 0, 0, 56, 0, 4)"><stop offset="0" stop-color="#a67e50" stop-opacity="1"/><stop offset="1" stop-color="#644c30" stop-opacity="1"/></linearGradient></defs><path fill="url(#linear-pattern-0)" fill-opacity="1" d="M 36.21875 2.050781 L 62.027344 27.605469 C 64.402344 29.957031 64.417969 33.785156 62.058594 36.15625 L 36.460938 61.917969 C 34.105469 64.289062 30.269531 64.304688 27.894531 61.949219 L 2.085938 36.394531 C -0.289062 34.042969 -0.304688 30.214844 2.050781 27.84375 L 27.652344 2.082031 C 30.007812 -0.289062 33.84375 -0.304688 36.21875 2.050781 Z M 36.21875 2.050781 " /><g transform="matrix(1.0075098,0,0,1.0032698,16.221436,16.077397)"><path fill-rule="nonzero" fill="rgb(100%, 100%, 100%)" fill-opacity="1" d="M 2.9375 5.820312 L 3.011719 6.417969 C 3.144531 7.539062 3.28125 7.898438 3.660156 8.09375 C 3.851562 8.195312 4.046875 8.410156 4.089844 8.574219 C 4.171875 8.898438 4.378906 8.980469 4.378906 8.691406 C 4.378906 8.59375 4.164062 8.09375 3.898438 7.585938 C 3.632812 7.074219 3.414062 6.601562 3.414062 6.539062 C 3.414062 6.472656 3.304688 6.28125 3.175781 6.117188 Z M 29.0625 5.820312 L 28.820312 6.117188 C 28.691406 6.28125 28.585938 6.472656 28.585938 6.535156 C 28.582031 6.601562 28.367188 7.074219 28.101562 7.585938 C 27.835938 8.09375 27.617188 8.59375 27.617188 8.691406 C 27.617188 8.980469 27.828125 8.898438 27.90625 8.574219 C 27.949219 8.410156 28.144531 8.195312 28.335938 8.09375 C 28.71875 7.898438 28.855469 7.539062 28.988281 6.417969 Z M 1.710938 6.476562 C 1.640625 6.476562 1.625 6.566406 1.675781 6.6875 C 1.882812 7.171875 1.886719 7.4375 1.6875 7.4375 C 1.582031 7.4375 1.492188 7.476562 1.492188 7.523438 C 1.492188 7.714844 1.890625 8.171875 2.140625 8.273438 C 2.4375 8.390625 2.695312 8.421875 2.695312 8.332031 C 2.695312 8.296875 2.640625 8.171875 2.578125 8.0625 C 2.515625 7.945312 2.40625 7.625 2.335938 7.347656 C 2.207031 6.84375 1.945312 6.476562 1.710938 6.476562 Z M 30.28125 6.476562 C 30.054688 6.476562 29.789062 6.84375 29.664062 7.347656 C 29.59375 7.625 29.484375 7.945312 29.421875 8.0625 C 29.351562 8.171875 29.304688 8.296875 29.304688 8.332031 C 29.304688 8.421875 29.5625 8.390625 29.859375 8.273438 C 30.109375 8.171875 30.503906 7.714844 30.503906 7.523438 C 30.503906 7.476562 30.414062 7.4375 30.308594 7.4375 C 30.109375 7.4375 30.117188 7.171875 30.320312 6.6875 C 30.371094 6.566406 30.355469 6.476562 30.28125 6.476562 Z M 15.960938 6.773438 C 16 6.882812 15.964844 6.953125 15.867188 6.953125 C 15.472656 6.953125 15.316406 8.394531 15.617188 9.289062 C 15.695312 9.527344 15.695312 9.527344 15.546875 9.289062 C 15.308594 8.890625 14.921875 8.507812 14.765625 8.507812 C 14.679688 8.507812 14.578125 8.671875 14.53125 8.867188 C 14.492188 9.066406 14.40625 9.230469 14.339844 9.230469 C 14.273438 9.230469 14.253906 9.175781 14.296875 9.109375 C 14.335938 9.046875 14.320312 8.902344 14.257812 8.792969 C 14.15625 8.609375 14.132812 8.617188 14.007812 8.847656 C 13.898438 9.046875 13.90625 9.195312 14.054688 9.539062 C 14.28125 10.085938 14.28125 10.183594 14.046875 10.183594 C 13.796875 10.183594 13.898438 10.476562 14.164062 10.523438 C 14.402344 10.570312 14.835938 10.226562 14.835938 9.992188 C 14.835938 9.910156 14.898438 9.804688 14.96875 9.757812 C 15.15625 9.648438 15.363281 9.894531 15.242188 10.085938 C 15.1875 10.171875 15.140625 10.28125 15.140625 10.324219 C 15.136719 10.367188 14.984375 10.523438 14.796875 10.667969 C 14.367188 11.003906 14.382812 11.539062 14.820312 11.601562 C 14.984375 11.625 15.070312 11.59375 15.03125 11.523438 C 14.984375 11.453125 15.078125 11.460938 15.242188 11.535156 C 15.398438 11.609375 15.578125 11.820312 15.648438 12.003906 C 15.773438 12 15.890625 11.984375 16 11.960938 C 16.109375 11.984375 16.226562 12 16.34375 12.003906 C 16.417969 11.820312 16.601562 11.609375 16.757812 11.535156 C 16.921875 11.460938 17.007812 11.453125 16.96875 11.523438 C 16.921875 11.59375 17.015625 11.625 17.179688 11.601562 C 17.617188 11.539062 17.628906 11.003906 17.195312 10.667969 C 17.011719 10.523438 16.859375 10.367188 16.859375 10.324219 C 16.859375 10.28125 16.8125 10.171875 16.757812 10.085938 C 16.632812 9.894531 16.84375 9.648438 17.03125 9.757812 C 17.101562 9.804688 17.164062 9.910156 17.164062 9.992188 C 17.164062 10.226562 17.59375 10.570312 17.832031 10.523438 C 18.101562 10.476562 18.203125 10.183594 17.953125 10.183594 C 17.71875 10.183594 17.714844 10.085938 17.945312 9.539062 C 18.085938 9.195312 18.097656 9.046875 17.992188 8.847656 C 17.867188 8.617188 17.84375 8.609375 17.742188 8.792969 C 17.679688 8.902344 17.664062 9.046875 17.703125 9.109375 C 17.742188 9.175781 17.722656 9.230469 17.65625 9.230469 C 17.59375 9.230469 17.507812 9.066406 17.460938 8.867188 C 17.417969 8.671875 17.3125 8.507812 17.234375 8.507812 C 17.070312 8.507812 16.6875 8.890625 16.445312 9.289062 C 16.304688 9.527344 16.300781 9.527344 16.382812 9.289062 C 16.679688 8.394531 16.523438 6.953125 16.128906 6.953125 C 16.03125 6.953125 15.996094 6.882812 16.035156 6.773438 C 16.023438 6.789062 16.011719 6.804688 16 6.820312 C 15.984375 6.804688 15.976562 6.789062 15.960938 6.773438 Z M 0.132812 7.109375 C -0.09375 7.1875 -0.015625 8.6875 0.234375 9.070312 C 0.421875 9.351562 0.421875 9.375 0.246094 9.3125 C 0.0078125 9.21875 0 9.382812 0.222656 9.804688 C 0.480469 10.296875 0.992188 10.71875 1.828125 11.132812 C 2.242188 11.339844 2.578125 11.523438 2.578125 11.546875 C 2.578125 11.679688 1.429688 11.351562 1.171875 11.148438 C 0.691406 10.769531 0.476562 10.832031 0.789062 11.253906 C 0.929688 11.445312 1.015625 11.6875 0.980469 11.78125 C 0.90625 11.976562 1.226562 12.3125 1.859375 12.6875 C 2.382812 13 2.496094 13 2.398438 12.699219 C 2.296875 12.382812 2.355469 12.398438 2.703125 12.765625 C 2.941406 13.015625 2.953125 13.054688 2.765625 12.984375 C 2.59375 12.921875 2.5625 12.9375 2.636719 13.054688 C 2.734375 13.210938 2.523438 13.191406 1.8125 12.980469 C 1.628906 12.921875 1.605469 12.957031 1.679688 13.195312 C 1.875 13.820312 2.195312 14.101562 2.988281 14.324219 C 3.414062 14.445312 3.734375 14.589844 3.703125 14.644531 C 3.628906 14.761719 2.816406 14.628906 2.609375 14.464844 C 2.390625 14.292969 2.410156 14.734375 2.632812 15.050781 C 2.835938 15.335938 3.644531 15.75 4.617188 16.058594 L 5.28125 16.269531 L 4.679688 16.210938 C 4.351562 16.179688 3.9375 16.136719 3.761719 16.109375 C 3.492188 16.070312 3.453125 16.097656 3.503906 16.296875 C 3.59375 16.640625 4.203125 17.109375 4.65625 17.175781 C 4.867188 17.210938 5.3125 17.28125 5.640625 17.335938 L 6.242188 17.445312 L 5.703125 17.59375 C 5.40625 17.679688 4.957031 17.71875 4.703125 17.6875 C 4.253906 17.625 4.25 17.632812 4.414062 17.882812 C 4.65625 18.25 5.242188 18.5625 5.90625 18.6875 L 6.484375 18.796875 L 5.789062 18.746094 C 5.410156 18.71875 5.101562 18.742188 5.101562 18.796875 C 5.101562 18.84375 5.242188 19.03125 5.417969 19.203125 C 5.757812 19.542969 5.890625 19.566406 7.203125 19.535156 L 8.046875 19.515625 L 7.324219 19.828125 C 6.445312 20.207031 6.304688 20.328125 6.542969 20.476562 C 6.6875 20.570312 6.644531 20.667969 6.285156 21.042969 C 6.046875 21.292969 5.648438 21.765625 5.398438 22.09375 C 4.273438 23.585938 3.683594 24.066406 2.96875 24.066406 C 2.351562 24.066406 2.289062 24.265625 2.875 24.375 C 3.464844 24.484375 4.265625 24.34375 4.914062 24.015625 C 5.699219 23.621094 5.648438 23.828125 4.800781 24.492188 C 4.566406 24.671875 4.570312 24.675781 4.859375 24.601562 C 5.023438 24.5625 5.417969 24.367188 5.734375 24.179688 C 6.335938 23.820312 6.429688 23.804688 6.109375 24.121094 C 5.835938 24.394531 5.992188 24.496094 6.390625 24.304688 C 6.574219 24.21875 6.816406 24.15625 6.929688 24.171875 C 7.042969 24.1875 7.390625 23.96875 7.695312 23.683594 C 8.015625 23.394531 8.203125 23.277344 8.132812 23.417969 C 8.058594 23.554688 7.914062 23.734375 7.8125 23.820312 C 7.703125 23.90625 7.625 24.023438 7.625 24.078125 C 7.625 24.316406 7.914062 24.15625 8.519531 23.582031 C 8.898438 23.226562 9.195312 23.027344 9.242188 23.101562 C 9.285156 23.171875 9.257812 23.230469 9.179688 23.230469 C 9.101562 23.230469 9.070312 23.3125 9.109375 23.410156 C 9.152344 23.515625 9.109375 23.585938 9 23.585938 C 8.90625 23.585938 8.828125 23.640625 8.828125 23.703125 C 8.828125 23.941406 9.5625 23.550781 9.734375 23.21875 C 9.96875 22.765625 10.039062 22.777344 9.945312 23.25 C 9.890625 23.515625 9.910156 23.601562 10.007812 23.539062 C 10.085938 23.492188 10.148438 23.375 10.148438 23.273438 C 10.148438 23.171875 10.234375 23.113281 10.355469 23.132812 C 10.496094 23.15625 10.667969 22.976562 10.894531 22.570312 C 11.15625 22.09375 11.226562 22.03125 11.226562 22.257812 C 11.230469 22.480469 11.28125 22.527344 11.46875 22.476562 C 11.664062 22.429688 11.632812 22.507812 11.300781 22.914062 C 10.867188 23.4375 10.625 24.066406 10.859375 24.066406 C 10.929688 24.066406 10.992188 24.015625 10.992188 23.960938 C 10.992188 23.898438 11.164062 23.792969 11.382812 23.71875 L 11.769531 23.585938 L 11.375 23.898438 C 10.835938 24.324219 10.269531 25.335938 10.277344 25.859375 L 10.277344 25.863281 C 10.28125 26.234375 10.300781 26.257812 10.429688 26.054688 C 10.824219 25.421875 11.335938 24.992188 12.203125 24.566406 L 13.15625 24.09375 L 13.15625 24.4375 C 13.15625 24.632812 13.207031 24.785156 13.273438 24.785156 C 13.339844 24.785156 13.394531 24.675781 13.394531 24.542969 C 13.394531 24.40625 13.5 24.089844 13.632812 23.835938 C 13.921875 23.265625 15.539062 21.988281 16 21.921875 C 16.4375 21.957031 18.070312 23.257812 18.367188 23.835938 C 18.5 24.089844 18.601562 24.40625 18.601562 24.542969 C 18.601562 24.675781 18.660156 24.789062 18.726562 24.789062 C 18.792969 24.789062 18.84375 24.632812 18.84375 24.4375 L 18.84375 24.09375 L 19.796875 24.566406 C 20.664062 24.992188 21.171875 25.421875 21.570312 26.054688 C 21.695312 26.257812 21.71875 26.234375 21.71875 25.863281 L 21.71875 25.859375 C 21.726562 25.335938 21.160156 24.328125 20.621094 23.898438 L 20.226562 23.585938 L 20.617188 23.71875 C 20.832031 23.792969 21.007812 23.898438 21.007812 23.960938 C 21.007812 24.015625 21.070312 24.066406 21.140625 24.066406 C 21.371094 24.066406 21.132812 23.4375 20.695312 22.914062 C 20.367188 22.507812 20.335938 22.429688 20.53125 22.476562 C 20.71875 22.527344 20.765625 22.480469 20.769531 22.257812 C 20.773438 22.03125 20.84375 22.101562 21.101562 22.570312 C 21.332031 22.980469 21.5 23.15625 21.644531 23.132812 C 21.761719 23.113281 21.851562 23.171875 21.851562 23.273438 C 21.851562 23.375 21.914062 23.492188 21.992188 23.539062 C 22.085938 23.601562 22.105469 23.515625 22.054688 23.25 C 21.957031 22.777344 22.03125 22.765625 22.265625 23.21875 C 22.4375 23.550781 23.171875 23.941406 23.171875 23.703125 C 23.171875 23.640625 23.09375 23.585938 22.996094 23.585938 C 22.890625 23.585938 22.84375 23.515625 22.890625 23.410156 C 22.925781 23.3125 22.898438 23.230469 22.820312 23.230469 C 22.742188 23.230469 22.714844 23.171875 22.757812 23.101562 C 22.804688 23.027344 23.101562 23.226562 23.476562 23.582031 C 24.085938 24.15625 24.375 24.320312 24.375 24.085938 C 24.375 24.023438 24.292969 23.90625 24.1875 23.820312 C 24.085938 23.734375 23.9375 23.554688 23.867188 23.417969 C 23.792969 23.277344 23.984375 23.398438 24.300781 23.6875 C 24.609375 23.96875 24.953125 24.1875 25.070312 24.171875 C 25.179688 24.15625 25.425781 24.21875 25.609375 24.304688 C 26.003906 24.496094 26.164062 24.394531 25.890625 24.125 C 25.570312 23.804688 25.664062 23.820312 26.265625 24.179688 C 26.578125 24.367188 26.976562 24.5625 27.140625 24.601562 C 27.429688 24.675781 27.429688 24.671875 27.195312 24.492188 C 26.347656 23.828125 26.300781 23.621094 27.085938 24.015625 C 27.734375 24.34375 28.53125 24.484375 29.121094 24.375 C 29.707031 24.265625 29.648438 24.066406 29.027344 24.066406 C 28.3125 24.066406 27.726562 23.585938 26.601562 22.09375 C 26.351562 21.765625 25.953125 21.292969 25.714844 21.042969 C 25.351562 20.667969 25.308594 20.570312 25.453125 20.476562 C 25.695312 20.328125 25.550781 20.207031 24.671875 19.828125 L 23.953125 19.515625 L 24.796875 19.535156 C 26.109375 19.566406 26.242188 19.542969 26.578125 19.203125 C 26.757812 19.03125 26.898438 18.84375 26.898438 18.796875 C 26.898438 18.742188 26.585938 18.71875 26.207031 18.746094 L 25.515625 18.796875 L 26.089844 18.6875 C 26.757812 18.5625 27.339844 18.25 27.585938 17.882812 C 27.75 17.632812 27.742188 17.625 27.296875 17.6875 C 27.042969 17.71875 26.589844 17.679688 26.296875 17.59375 L 25.757812 17.445312 L 26.359375 17.335938 C 26.6875 17.28125 27.132812 17.207031 27.34375 17.175781 C 27.796875 17.109375 28.40625 16.636719 28.496094 16.296875 C 28.546875 16.09375 28.507812 16.070312 28.238281 16.109375 C 28.0625 16.136719 27.648438 16.179688 27.320312 16.210938 L 26.71875 16.265625 L 27.382812 16.058594 C 28.355469 15.746094 29.164062 15.335938 29.367188 15.046875 C 29.589844 14.730469 29.609375 14.289062 29.390625 14.460938 C 29.183594 14.625 28.371094 14.757812 28.296875 14.640625 C 28.265625 14.585938 28.585938 14.445312 29.011719 14.324219 C 29.804688 14.097656 30.125 13.820312 30.320312 13.195312 C 30.394531 12.960938 30.371094 12.921875 30.1875 12.976562 C 29.476562 13.1875 29.265625 13.207031 29.363281 13.054688 C 29.4375 12.9375 29.40625 12.917969 29.234375 12.984375 C 29.046875 13.054688 29.058594 13.015625 29.296875 12.765625 C 29.644531 12.394531 29.703125 12.382812 29.601562 12.695312 C 29.503906 13 29.617188 13 30.140625 12.683594 C 30.773438 12.308594 31.09375 11.976562 31.019531 11.78125 C 30.984375 11.683594 31.070312 11.445312 31.210938 11.25 C 31.523438 10.828125 31.308594 10.769531 30.828125 11.144531 C 30.570312 11.347656 29.421875 11.675781 29.421875 11.546875 C 29.421875 11.523438 29.757812 11.335938 30.171875 11.132812 C 31.007812 10.71875 31.519531 10.292969 31.777344 9.804688 C 32 9.382812 31.992188 9.21875 31.753906 9.3125 C 31.578125 9.375 31.578125 9.351562 31.765625 9.066406 C 32.015625 8.6875 32.09375 7.1875 31.867188 7.109375 C 31.789062 7.082031 31.695312 7.167969 31.652344 7.296875 C 31.609375 7.429688 31.347656 7.757812 31.070312 8.039062 C 30.792969 8.3125 30.65625 8.507812 30.761719 8.472656 C 31.085938 8.359375 31.128906 8.53125 30.84375 8.828125 C 30.546875 9.148438 30.289062 9.1875 30.1875 8.929688 C 30.101562 8.695312 30.03125 8.703125 29.039062 8.996094 L 28.210938 9.242188 L 27.828125 10.027344 C 27.511719 10.691406 27.320312 10.914062 26.605469 11.441406 C 26.140625 11.785156 25.65625 12.179688 25.53125 12.320312 C 25.242188 12.644531 25.351562 13.113281 25.773438 13.335938 C 26.078125 13.492188 26.0625 13.503906 24.976562 13.894531 C 23.421875 14.449219 22.867188 14.402344 22.960938 13.71875 C 22.992188 13.484375 23.246094 13.320312 23.984375 13.050781 C 24.46875 12.875 24.492188 12.695312 24.023438 12.695312 C 23.445312 12.695312 23.492188 12.492188 24.140625 12.167969 C 25.4375 11.519531 27.011719 10.15625 27.320312 9.417969 C 27.46875 9.066406 27.4375 8.382812 27.273438 8.390625 C 27.234375 8.398438 27.070312 8.671875 26.914062 9 C 26.476562 9.929688 24.816406 11.101562 23.296875 11.546875 C 22.382812 11.8125 21.445312 12.371094 21.046875 12.894531 C 20.40625 13.726562 19.988281 14.109375 19.628906 14.1875 L 19.265625 14.273438 L 19.679688 13.992188 C 20.226562 13.625 20.308594 13.382812 19.851562 13.484375 L 19.507812 13.5625 L 19.808594 13.351562 C 20.273438 13.023438 20.765625 12.546875 20.765625 12.421875 C 20.765625 12.359375 20.660156 12.335938 20.53125 12.371094 C 20.335938 12.421875 20.367188 12.34375 20.699219 11.9375 C 21.132812 11.410156 21.375 10.78125 21.140625 10.78125 C 21.070312 10.78125 21.007812 10.832031 21.007812 10.890625 C 21.007812 10.949219 20.835938 11.0625 20.617188 11.132812 L 20.226562 11.265625 L 20.625 10.949219 C 21.164062 10.523438 21.730469 9.511719 21.722656 8.992188 C 21.71875 8.617188 21.699219 8.59375 21.570312 8.796875 C 21.175781 9.429688 20.664062 9.859375 19.796875 10.285156 L 18.84375 10.757812 L 18.84375 10.414062 C 18.84375 10.222656 18.792969 10.066406 18.726562 10.066406 C 18.660156 10.066406 18.605469 10.171875 18.605469 10.308594 C 18.605469 10.804688 18.109375 11.511719 17.335938 12.117188 C 16.445312 12.8125 16.25 13.117188 16.125 14.023438 L 16 14.203125 L 15.875 14.023438 C 15.75 13.117188 15.5625 12.8125 14.664062 12.117188 C 13.894531 11.511719 13.394531 10.804688 13.394531 10.3125 C 13.394531 10.179688 13.339844 10.066406 13.273438 10.066406 C 13.207031 10.066406 13.15625 10.226562 13.15625 10.414062 L 13.15625 10.757812 L 12.203125 10.289062 C 11.335938 9.859375 10.828125 9.429688 10.429688 8.796875 C 10.304688 8.59375 10.28125 8.617188 10.28125 8.992188 C 10.273438 9.511719 10.839844 10.523438 11.378906 10.953125 L 11.773438 11.265625 L 11.382812 11.132812 C 11.167969 11.0625 10.992188 10.953125 10.992188 10.890625 C 10.992188 10.832031 10.929688 10.78125 10.859375 10.78125 C 10.625 10.78125 10.867188 11.410156 11.304688 11.9375 C 11.632812 12.34375 11.664062 12.421875 11.472656 12.371094 C 11.339844 12.335938 11.234375 12.359375 11.234375 12.421875 C 11.234375 12.546875 11.726562 13.023438 12.191406 13.351562 L 12.492188 13.5625 L 12.152344 13.484375 C 11.695312 13.382812 11.773438 13.625 12.320312 13.992188 L 12.734375 14.273438 L 12.375 14.1875 C 12.015625 14.109375 11.59375 13.730469 10.957031 12.898438 C 10.554688 12.375 9.617188 11.8125 8.707031 11.546875 C 7.1875 11.101562 5.523438 9.929688 5.085938 9 C 4.929688 8.671875 4.765625 8.398438 4.726562 8.398438 C 4.5625 8.386719 4.53125 9.070312 4.679688 9.417969 C 4.992188 10.15625 6.566406 11.519531 7.863281 12.171875 C 8.511719 12.492188 8.554688 12.695312 7.980469 12.695312 C 7.511719 12.695312 7.53125 12.875 8.015625 13.054688 C 8.757812 13.320312 9.007812 13.484375 9.042969 13.71875 C 9.132812 14.40625 8.578125 14.453125 7.027344 13.898438 C 5.941406 13.507812 5.921875 13.492188 6.226562 13.335938 C 6.648438 13.117188 6.761719 12.644531 6.46875 12.320312 C 6.34375 12.179688 5.859375 11.785156 5.394531 11.441406 C 4.679688 10.914062 4.492188 10.691406 4.171875 10.027344 L 3.792969 9.242188 L 2.960938 8.996094 C 1.96875 8.703125 1.902344 8.695312 1.8125 8.929688 C 1.714844 9.1875 1.457031 9.148438 1.15625 8.828125 C 0.875 8.53125 0.914062 8.367188 1.238281 8.476562 C 1.347656 8.511719 1.207031 8.3125 0.929688 8.035156 C 0.652344 7.757812 0.390625 7.429688 0.351562 7.296875 C 0.308594 7.167969 0.210938 7.082031 0.136719 7.109375 Z M 2.492188 9.78125 C 2.554688 9.765625 2.695312 9.804688 2.910156 9.890625 C 3.132812 9.984375 3.398438 10.226562 3.511719 10.445312 C 3.625 10.660156 3.890625 11.015625 4.097656 11.230469 L 4.097656 11.234375 C 4.304688 11.445312 4.441406 11.617188 4.398438 11.617188 C 4.210938 11.605469 3.570312 11.203125 3.242188 10.894531 C 3.042969 10.707031 2.742188 10.507812 2.578125 10.4375 C 2.367188 10.359375 2.339844 10.316406 2.488281 10.3125 C 2.734375 10.304688 2.757812 10.171875 2.554688 9.972656 C 2.445312 9.859375 2.425781 9.796875 2.492188 9.78125 Z M 29.507812 9.78125 C 29.574219 9.796875 29.554688 9.859375 29.445312 9.976562 C 29.242188 10.171875 29.269531 10.304688 29.515625 10.3125 C 29.660156 10.320312 29.632812 10.359375 29.421875 10.441406 C 29.257812 10.507812 28.960938 10.710938 28.757812 10.898438 C 28.429688 11.203125 27.789062 11.605469 27.601562 11.617188 C 27.5625 11.617188 27.695312 11.445312 27.902344 11.234375 L 27.902344 11.230469 C 28.109375 11.015625 28.371094 10.660156 28.484375 10.445312 C 28.601562 10.226562 28.867188 9.984375 29.085938 9.890625 C 29.304688 9.804688 29.445312 9.765625 29.507812 9.78125 Z M 15.796875 9.890625 C 15.867188 9.847656 15.886719 9.898438 15.84375 10 C 15.765625 10.207031 15.679688 10.246094 15.679688 10.074219 C 15.679688 10.011719 15.734375 9.929688 15.796875 9.890625 Z M 16.140625 9.890625 C 16.148438 9.867188 16.171875 9.867188 16.203125 9.890625 C 16.265625 9.929688 16.320312 10.011719 16.320312 10.074219 C 16.320312 10.246094 16.234375 10.207031 16.15625 10 C 16.132812 9.945312 16.132812 9.910156 16.140625 9.890625 Z M 16.140625 9.890625 "/></g></svg>
