<svg width="64" height="64" viewBox="0 0 64 64" version="1.1"><defs><linearGradient id="linear-pattern-0" gradientUnits="userSpaceOnUse" x1="0" y1="0" x2="0" y2="1" gradientTransform="matrix(60, 0, 0, 56, 0, 4)"><stop offset="0" stop-color="#8900e4" stop-opacity="1"/><stop offset="1" stop-color="#42006e" stop-opacity="1"/></linearGradient></defs><path fill="url(#linear-pattern-0)" fill-opacity="1" d="M 36.21875 2.050781 L 62.027344 27.605469 C 64.402344 29.957031 64.417969 33.785156 62.058594 36.15625 L 36.460938 61.917969 C 34.105469 64.289062 30.269531 64.304688 27.894531 61.949219 L 2.085938 36.394531 C -0.289062 34.042969 -0.304688 30.214844 2.050781 27.84375 L 27.652344 2.082031 C 30.007812 -0.289062 33.84375 -0.304688 36.21875 2.050781 Z M 36.21875 2.050781 " /><g transform="matrix(1.0075098,0,0,1.0032698,16.221436,16.077397)"><path fill-rule="evenodd" fill="rgb(100%, 100%, 100%)" fill-opacity="1" d="M 15.890625 13.710938 C 16.328125 13.6875 16.765625 13.796875 17.140625 14.015625 C 18.234375 14.644531 18.609375 16.042969 17.980469 17.136719 C 17.347656 18.226562 15.949219 18.601562 14.859375 17.972656 C 13.765625 17.339844 13.390625 15.941406 14.019531 14.851562 C 14.410156 14.175781 15.117188 13.746094 15.890625 13.710938 Z M 16.125 10.664062 C 14.175781 10.617188 12.355469 11.640625 11.382812 13.328125 C 10.671875 14.550781 10.484375 16.007812 10.847656 17.375 C 11.214844 18.742188 12.109375 19.90625 13.335938 20.609375 C 14.558594 21.320312 16.015625 21.507812 17.382812 21.144531 C 18.746094 20.777344 19.914062 19.882812 20.617188 18.660156 C 21.328125 17.433594 21.515625 15.976562 21.152344 14.609375 C 20.785156 13.246094 19.890625 12.078125 18.664062 11.375 C 17.890625 10.929688 17.015625 10.679688 16.125 10.664062 Z M 22.292969 6.46875 L 19.234375 9.527344 L 22.464844 12.757812 L 25.53125 9.6875 C 26.757812 11.546875 27.429688 13.734375 27.429688 15.992188 C 27.429688 19.023438 26.226562 21.929688 24.082031 24.074219 C 21.9375 26.21875 19.03125 27.421875 16 27.421875 C 12.96875 27.421875 10.0625 26.21875 7.917969 24.074219 C 5.773438 21.929688 4.570312 19.023438 4.570312 15.992188 C 4.570312 12.960938 5.773438 10.054688 7.917969 7.914062 C 10.460938 5.375 14.050781 4.179688 17.605469 4.6875 L 21.359375 0.9375 C 15.546875 -1.136719 9.054688 0.320312 4.6875 4.679688 C -1.5625 10.929688 -1.5625 21.058594 4.6875 27.304688 C 10.933594 33.554688 21.066406 33.554688 27.3125 27.304688 C 33.5625 21.058594 33.5625 10.929688 27.3125 4.679688 C 26.835938 4.210938 26.328125 3.773438 25.796875 3.367188 L 25.695312 3.0625 L 25.570312 3.195312 C 25.570312 3.195312 25.570312 3.195312 25.566406 3.195312 Z M 22.292969 6.46875 "/></g></svg>
