<svg width="64" height="64" viewBox="0 0 64 64" version="1.1"><defs><linearGradient id="linear-pattern-0" gradientUnits="userSpaceOnUse" x1="0" y1="0" x2="0" y2="1" gradientTransform="matrix(60, 0, 0, 56, 0, 4)"><stop offset="0" stop-color="#a67e50" stop-opacity="1"/><stop offset="1" stop-color="#644c30" stop-opacity="1"/></linearGradient></defs><path fill="url(#linear-pattern-0)" fill-opacity="1" d="M 36.21875 2.050781 L 62.027344 27.605469 C 64.402344 29.957031 64.417969 33.785156 62.058594 36.15625 L 36.460938 61.917969 C 34.105469 64.289062 30.269531 64.304688 27.894531 61.949219 L 2.085938 36.394531 C -0.289062 34.042969 -0.304688 30.214844 2.050781 27.84375 L 27.652344 2.082031 C 30.007812 -0.289062 33.84375 -0.304688 36.21875 2.050781 Z M 36.21875 2.050781 " /><g transform="matrix(1.0075098,0,0,1.0032698,16.221436,16.077397)"><path fill-rule="nonzero" fill="rgb(100%, 100%, 100%)" fill-opacity="1" d="M 17.402344 1.164062 C 12.460938 1.164062 8.125 4.007812 5.6875 8.230469 L 3.746094 5.726562 C 3.726562 5.710938 3.703125 5.707031 3.679688 5.699219 C 3.402344 5.382812 2.808594 5.574219 2.734375 6 L 0.746094 18.414062 C 0.679688 18.765625 0.976562 19.140625 1.304688 19.136719 L 3.789062 18.460938 C 4.867188 25.507812 10.570312 30.902344 17.402344 30.902344 C 25 30.902344 31.207031 24.234375 31.207031 16.046875 C 31.207031 7.851562 25 1.164062 17.402344 1.164062 Z M 19.082031 5.675781 C 19.808594 5.683594 20.570312 5.835938 21.371094 6.089844 C 25.5625 7.8125 28.53125 10.914062 28.53125 16.046875 C 28.53125 22.6875 23.5625 28.039062 17.402344 28.039062 C 11.777344 28.039062 7.164062 23.574219 6.398438 17.742188 L 12.570312 16.042969 C 12.96875 16.03125 13.242188 15.4375 13 15.09375 L 10.5 13.066406 C 10.554688 12.84375 9.71875 12.21875 13.0625 8.390625 C 14.640625 6.582031 16.753906 5.648438 19.082031 5.671875 "/></g></svg>
