<svg width="64" height="64" viewBox="0 0 64 64" version="1.1"><defs><linearGradient id="linear-pattern-0" gradientUnits="userSpaceOnUse" x1="0" y1="0" x2="0" y2="1" gradientTransform="matrix(60, 0, 0, 56, 0, 4)"><stop offset="0" stop-color="#00a07f" stop-opacity="1"/><stop offset="1" stop-color="#005241" stop-opacity="1"/></linearGradient></defs><path fill="url(#linear-pattern-0)" fill-opacity="1" d="M 36.21875 2.050781 L 62.027344 27.605469 C 64.402344 29.957031 64.417969 33.785156 62.058594 36.15625 L 36.460938 61.917969 C 34.105469 64.289062 30.269531 64.304688 27.894531 61.949219 L 2.085938 36.394531 C -0.289062 34.042969 -0.304688 30.214844 2.050781 27.84375 L 27.652344 2.082031 C 30.007812 -0.289062 33.84375 -0.304688 36.21875 2.050781 Z M 36.21875 2.050781 " /><g transform="matrix(1.0075098,0,0,1.0032698,16.221436,16.077397)"><path fill-rule="nonzero" fill="rgb(100%, 100%, 100%)" fill-opacity="1" d="M 30.789062 15.4375 L 30.789062 16.375 C 30.789062 16.789062 30.195312 17.125 29.46875 17.125 L 2.351562 17.125 C 1.625 17.125 1.03125 16.789062 1.03125 16.375 L 1.03125 15.4375 "/><path fill-rule="nonzero" fill="rgb(100%, 100%, 100%)" fill-opacity="1" d="M 15.96875 20.042969 C 13.71875 20.042969 11.898438 21.289062 11.898438 22.824219 C 11.898438 23.71875 12.515625 24.5 13.46875 25.007812 L 10.675781 29.78125 C 13.929688 31.171875 18 31.171875 21.257812 29.78125 L 18.464844 25.007812 C 19.414062 24.5 20.039062 23.71875 20.039062 22.824219 C 20.039062 21.289062 18.214844 20.042969 15.96875 20.042969 Z M 15.96875 20.042969 "/><path fill-rule="nonzero" fill="rgb(100%, 100%, 100%)" fill-opacity="1" d="M 3.203125 13.46875 C 3.203125 7.933594 6.773438 2.398438 15.6875 2.398438 C 24.605469 2.398438 28.171875 7.933594 28.171875 13.46875 C 28.171875 14.855469 26.386719 14.855469 26.386719 13.46875 C 26.386719 9.320312 22.820312 3.78125 15.6875 3.78125 C 8.554688 3.78125 4.992188 9.320312 4.992188 13.46875 C 4.992188 14.855469 3.203125 14.855469 3.203125 13.46875 "/></g></svg>
