<svg width="64" height="64" viewBox="0 0 64 64" version="1.1"><defs><linearGradient id="linear-pattern-0" gradientUnits="userSpaceOnUse" x1="0" y1="0" x2="0" y2="1" gradientTransform="matrix(60, 0, 0, 56, 0, 4)"><stop offset="0" stop-color="#3067ff" stop-opacity="1"/><stop offset="1" stop-color="#002ca6" stop-opacity="1"/></linearGradient></defs><path fill="url(#linear-pattern-0)" fill-opacity="1" d="M 36.21875 2.050781 L 62.027344 27.605469 C 64.402344 29.957031 64.417969 33.785156 62.058594 36.15625 L 36.460938 61.917969 C 34.105469 64.289062 30.269531 64.304688 27.894531 61.949219 L 2.085938 36.394531 C -0.289062 34.042969 -0.304688 30.214844 2.050781 27.84375 L 27.652344 2.082031 C 30.007812 -0.289062 33.84375 -0.304688 36.21875 2.050781 Z M 36.21875 2.050781 " /><g transform="matrix(1.0075098,0,0,1.0032698,16.221436,16.077397)"><path fill-rule="nonzero" fill="rgb(100%, 100%, 100%)" fill-opacity="1" d="M 13.648438 30.898438 C 13.28125 30.695312 11.304688 29.472656 9.273438 28.1875 C 4.445312 25.140625 2.992188 24.253906 1.96875 23.765625 C 0.585938 23.101562 0.71875 23.875 0.671875 16.070312 C 0.632812 8.78125 0.539062 7.507812 1.265625 7.699219 C 0.695312 7.191406 3.367188 6.394531 7.546875 4.632812 C 11.628906 2.910156 16.140625 1.175781 17.132812 0.9375 C 17.398438 0.878906 18.046875 1.132812 20.460938 2.273438 C 25.785156 4.777344 30.171875 7.078125 30.734375 7.65625 C 30.859375 7.792969 31.039062 7.902344 31.125 7.902344 C 31.382812 7.902344 31.453125 8.382812 31.304688 9.257812 C 31.246094 9.707031 30.742188 12.59375 30.203125 15.6875 C 29.664062 18.769531 29.183594 21.617188 29.140625 22 C 28.976562 23.367188 29.023438 23.320312 26.816406 24.601562 C 25.71875 25.242188 22.929688 26.78125 20.625 28.023438 C 18.316406 29.265625 16.023438 30.507812 15.523438 30.796875 C 15.019531 31.074219 14.550781 31.296875 14.46875 31.289062 C 14.398438 31.285156 14.023438 31.109375 13.65625 30.90625 M 14.1875 27.875 C 14.226562 26.832031 14.3125 23.84375 14.359375 21.238281 C 14.484375 15.453125 14.515625 15.632812 13.21875 14.8125 C 11.632812 13.800781 9.914062 12.859375 6.984375 11.40625 C 5.390625 10.613281 3.648438 9.714844 3.101562 9.40625 C 2.429688 9.015625 2.078125 8.882812 1.992188 8.960938 C 1.832031 9.109375 1.820312 15.164062 1.96875 19.398438 L 2.078125 22.414062 L 2.953125 22.898438 C 3.710938 23.320312 8.128906 26.132812 12.410156 28.921875 C 13.136719 29.390625 13.804688 29.773438 13.914062 29.777344 C 14.097656 29.78125 14.121094 29.539062 14.1875 27.882812 M 6.613281 22.691406 L 6.804688 16.851562 L 4.457031 15.679688 L 4.761719 13.269531 L 12.1875 16.617188 L 12.046875 18.878906 L 9.351562 17.820312 C 9 19.125 8.945312 21.75 8.742188 23.75 L 6.613281 22.691406 M 20.625 26.789062 C 26.007812 23.863281 27.832031 22.789062 27.898438 22.484375 C 27.933594 22.347656 28.046875 21.648438 28.15625 20.945312 C 28.265625 20.234375 28.742188 17.445312 29.210938 14.746094 C 29.992188 10.21875 30.15625 9.070312 30.007812 9.070312 C 29.847656 9.070312 26.960938 10.304688 23.28125 11.9375 C 21.003906 12.949219 18.480469 14.0625 17.667969 14.421875 C 16.851562 14.777344 16.121094 15.140625 16.03125 15.203125 C 15.78125 15.421875 15.203125 28.820312 15.429688 29.359375 C 15.496094 29.539062 15.585938 29.515625 16.210938 29.175781 C 16.605469 28.96875 18.585938 27.890625 20.617188 26.789062 M 17.921875 24.777344 C 17.882812 21.679688 17.632812 18.617188 18.363281 15.367188 L 19.890625 15.34375 L 20.023438 19.796875 L 25.34375 13.648438 L 27.855469 13.027344 L 23.171875 19.109375 L 27.515625 21.078125 L 25.726562 22.171875 L 21.304688 20.304688 L 19.695312 21.054688 L 19.640625 24.054688 M 16.265625 13.816406 C 16.625 13.667969 19.246094 12.484375 22.101562 11.210938 C 24.953125 9.914062 27.648438 8.714844 28.085938 8.539062 C 29.257812 8.058594 29.304688 7.996094 28.742188 7.640625 C 27.882812 7.105469 23.496094 4.890625 20.417969 3.445312 L 17.367188 2.007812 L 16.34375 2.335938 C 14.902344 2.796875 10.789062 4.421875 7.265625 5.929688 C 3.558594 7.507812 3.0625 7.742188 3.0625 7.929688 C 3.0625 8.015625 3.882812 8.507812 4.886719 9.039062 C 8.097656 10.722656 15.085938 14.101562 15.367188 14.101562 C 15.515625 14.101562 15.929688 13.976562 16.292969 13.824219 M 14.335938 11.945312 C 12.550781 11.53125 10.519531 10.546875 9.988281 9.855469 C 9.574219 9.304688 9.21875 8.414062 9.21875 7.917969 C 9.21875 7.320312 9.613281 6.476562 10.128906 5.96875 C 10.785156 5.328125 11.695312 5.054688 14.0625 4.789062 C 16.410156 4.53125 18.4375 4.609375 19.648438 5.007812 C 20.792969 5.382812 21.253906 5.617188 21.488281 5.9375 C 22.101562 6.773438 22.539062 7.476562 22.539062 7.621094 C 22.539062 7.832031 21.96875 8.042969 21.5625 7.972656 C 21.390625 7.9375 21.042969 7.882812 20.789062 7.84375 C 20.414062 7.789062 20.28125 7.683594 20.054688 7.304688 C 19.734375 6.773438 18.90625 6.226562 18.109375 6.023438 C 16.875 5.710938 13.492188 5.976562 12.460938 6.453125 C 11.875 6.726562 11.5625 7.324219 11.472656 8.320312 C 11.410156 9 11.433594 9.101562 11.703125 9.375 C 12.0625 9.738281 13.066406 10.230469 14.1875 10.585938 C 14.804688 10.78125 15.167969 10.835938 15.59375 10.777344 C 16.59375 10.640625 16.710938 10.398438 16.121094 9.695312 C 15.609375 9.085938 15.484375 8.757812 15.652344 8.460938 C 15.773438 8.25 15.871094 8.222656 16.429688 8.273438 C 17.21875 8.355469 18.90625 8.960938 19.289062 9.3125 C 19.640625 9.617188 19.695312 10.34375 19.390625 10.632812 C 19.046875 10.964844 17.515625 11.769531 16.914062 11.9375 C 16.21875 12.132812 15.1875 12.132812 14.34375 11.9375 "/></g></svg>
