<svg width="64" height="64" viewBox="0 0 64 64" version="1.1"><defs><linearGradient id="linear-pattern-0" gradientUnits="userSpaceOnUse" x1="0" y1="0" x2="0" y2="1" gradientTransform="matrix(60, 0, 0, 56, 0, 4)"><stop offset="0" stop-color="#7795ab" stop-opacity="1"/><stop offset="1" stop-color="#3b4f5f" stop-opacity="1"/></linearGradient></defs><path fill="url(#linear-pattern-0)" fill-opacity="1" d="M 36.21875 2.050781 L 62.027344 27.605469 C 64.402344 29.957031 64.417969 33.785156 62.058594 36.15625 L 36.460938 61.917969 C 34.105469 64.289062 30.269531 64.304688 27.894531 61.949219 L 2.085938 36.394531 C -0.289062 34.042969 -0.304688 30.214844 2.050781 27.84375 L 27.652344 2.082031 C 30.007812 -0.289062 33.84375 -0.304688 36.21875 2.050781 Z M 36.21875 2.050781 " /><g transform="matrix(1.0075098,0,0,1.0032698,16.221436,16.077397)"><path fill-rule="nonzero" fill="rgb(100%, 100%, 100%)" fill-opacity="1" d="M 11.789062 0.695312 C 8.246094 0.695312 5.375 3.640625 5.375 7.277344 L 5.375 11.664062 C 5.375 12.875 4.414062 13.859375 3.234375 13.859375 C 2.050781 13.859375 1.09375 14.84375 1.09375 16.050781 C 1.09375 17.265625 2.050781 18.246094 3.234375 18.246094 C 4.414062 18.246094 5.375 19.226562 5.375 20.441406 L 5.375 24.828125 C 5.375 28.460938 8.246094 31.410156 11.789062 31.410156 C 12.972656 31.410156 13.929688 30.429688 13.929688 29.21875 C 13.929688 28.003906 12.972656 27.023438 11.789062 27.023438 C 10.609375 27.023438 9.652344 26.039062 9.652344 24.828125 L 9.652344 20.441406 C 9.652344 18.8125 9.066406 17.242188 8 16.03125 C 9.054688 14.832031 9.640625 13.28125 9.652344 11.664062 L 9.652344 7.277344 C 9.652344 6.066406 10.609375 5.085938 11.789062 5.085938 C 12.972656 5.085938 13.929688 4.101562 13.929688 2.890625 C 13.929688 1.679688 12.972656 0.695312 11.789062 0.695312 Z M 20.351562 0.695312 C 19.167969 0.695312 18.210938 1.679688 18.210938 2.890625 C 18.210938 4.101562 19.167969 5.085938 20.351562 5.085938 C 21.53125 5.085938 22.492188 6.066406 22.492188 7.277344 L 22.492188 11.664062 C 22.5 13.28125 23.085938 14.832031 24.140625 16.03125 C 23.074219 17.242188 22.488281 18.8125 22.492188 20.441406 L 22.492188 24.828125 C 22.492188 26.039062 21.53125 27.023438 20.351562 27.023438 C 19.167969 27.023438 18.210938 28.003906 18.210938 29.21875 C 18.210938 30.429688 19.167969 31.410156 20.351562 31.410156 C 23.894531 31.410156 26.765625 28.460938 26.765625 24.828125 L 26.765625 20.441406 C 26.765625 19.226562 27.726562 18.246094 28.90625 18.246094 C 30.089844 18.246094 31.046875 17.265625 31.046875 16.050781 C 31.046875 14.84375 30.089844 13.859375 28.90625 13.859375 C 27.726562 13.859375 26.765625 12.875 26.765625 11.664062 L 26.765625 7.277344 C 26.765625 3.640625 23.894531 0.695312 20.351562 0.695312 Z M 20.351562 0.695312 "/></g></svg>
