<svg width="64" height="64" viewBox="0 0 64 64" version="1.1"><defs><linearGradient id="linear-pattern-0" gradientUnits="userSpaceOnUse" x1="0" y1="0" x2="0" y2="1" gradientTransform="matrix(60, 0, 0, 56, 0, 4)"><stop offset="0" stop-color="#00983a" stop-opacity="1"/><stop offset="1" stop-color="#004a1c" stop-opacity="1"/></linearGradient></defs><path fill="url(#linear-pattern-0)" fill-opacity="1" d="M 36.21875 2.050781 L 62.027344 27.605469 C 64.402344 29.957031 64.417969 33.785156 62.058594 36.15625 L 36.460938 61.917969 C 34.105469 64.289062 30.269531 64.304688 27.894531 61.949219 L 2.085938 36.394531 C -0.289062 34.042969 -0.304688 30.214844 2.050781 27.84375 L 27.652344 2.082031 C 30.007812 -0.289062 33.84375 -0.304688 36.21875 2.050781 Z M 36.21875 2.050781 " /><g transform="matrix(1.0075098,0,0,1.0032698,16.221436,16.077397)"><path fill-rule="nonzero" fill="rgb(100%, 100%, 100%)" fill-opacity="1" d="M 11.664062 6 C 8.414062 6.003906 5.171875 6 1.921875 6.003906 C 1.675781 6.003906 1.441406 6.054688 1.226562 6.195312 C 0.671875 6.546875 0.492188 7.0625 0.558594 7.6875 C 0.5625 7.722656 0.5625 7.753906 0.5625 7.785156 C 0.5625 11.15625 0.554688 13.078125 0.554688 16.4375 C 0.554688 17.296875 1.132812 19.027344 1.96875 19.039062 C 2.195312 19.042969 2.414062 19.042969 2.640625 19.042969 C 4.695312 19.046875 6.816406 19.054688 8.871094 19.054688 C 8.707031 20 8.28125 21.132812 7.570312 21.804688 C 6.976562 22.359375 6.5625 22.609375 5.800781 22.78125 C 5.199219 22.921875 4.734375 23.132812 4.734375 23.617188 C 4.734375 23.757812 4.738281 23.898438 4.742188 24.039062 L 4.726562 25.953125 C 4.726562 26.304688 4.726562 26.664062 4.734375 27.015625 C 4.738281 27.523438 4.890625 27.808594 5.386719 27.734375 C 6.039062 27.640625 6.882812 27.484375 7.515625 27.304688 C 7.539062 27.292969 7.570312 27.28125 7.59375 27.265625 C 7.632812 27.257812 7.671875 27.242188 7.710938 27.234375 C 7.785156 27.195312 7.859375 27.152344 7.9375 27.117188 C 10.964844 25.84375 13.023438 22.734375 13.023438 19.40625 C 13.027344 15.6875 13.023438 11.976562 13.023438 8.257812 L 13.027344 7.265625 C 12.976562 6.582031 12.371094 6 11.664062 6 Z M 30.390625 6 C 27.140625 6.003906 23.894531 6 20.648438 6.003906 C 20.398438 6.003906 20.164062 6.054688 19.953125 6.195312 C 19.398438 6.546875 19.222656 7.0625 19.285156 7.6875 C 19.289062 7.722656 19.289062 7.753906 19.289062 7.785156 C 19.289062 11.15625 19.28125 13.078125 19.28125 16.4375 C 19.28125 17.296875 19.855469 19.027344 20.695312 19.039062 C 20.917969 19.042969 21.140625 19.042969 21.367188 19.042969 C 23.421875 19.046875 25.542969 19.054688 27.59375 19.054688 C 27.429688 20 27.007812 21.132812 26.296875 21.804688 C 25.703125 22.359375 25.289062 22.609375 24.527344 22.78125 C 23.925781 22.921875 23.460938 23.132812 23.457031 23.617188 C 23.457031 23.757812 23.460938 23.898438 23.46875 24.039062 L 23.449219 25.953125 C 23.453125 26.304688 23.453125 26.664062 23.457031 27.015625 C 23.464844 27.523438 23.609375 27.808594 24.109375 27.734375 C 24.765625 27.640625 25.609375 27.484375 26.242188 27.304688 C 26.265625 27.292969 26.289062 27.28125 26.316406 27.265625 C 26.359375 27.257812 26.398438 27.242188 26.4375 27.234375 C 26.511719 27.195312 26.585938 27.152344 26.664062 27.117188 C 29.691406 25.84375 31.746094 22.734375 31.75 19.40625 C 31.75 15.6875 31.75 11.976562 31.75 8.257812 C 31.757812 8.171875 31.75 7.222656 31.75 7.222656 C 31.675781 6.558594 31.078125 6 30.390625 6 Z M 30.390625 6 "/></g></svg>
