<svg width="64" height="64" viewBox="0 0 64 64" version="1.1"><defs><linearGradient id="linear-pattern-0" gradientUnits="userSpaceOnUse" x1="0" y1="0" x2="0" y2="1" gradientTransform="matrix(60, 0, 0, 56, 0, 4)"><stop offset="0" stop-color="#00a07f" stop-opacity="1"/><stop offset="1" stop-color="#005241" stop-opacity="1"/></linearGradient></defs><path fill="url(#linear-pattern-0)" fill-opacity="1" d="M 36.21875 2.050781 L 62.027344 27.605469 C 64.402344 29.957031 64.417969 33.785156 62.058594 36.15625 L 36.460938 61.917969 C 34.105469 64.289062 30.269531 64.304688 27.894531 61.949219 L 2.085938 36.394531 C -0.289062 34.042969 -0.304688 30.214844 2.050781 27.84375 L 27.652344 2.082031 C 30.007812 -0.289062 33.84375 -0.304688 36.21875 2.050781 Z M 36.21875 2.050781 " /><g transform="matrix(1.0075098,0,0,1.0032698,16.221436,16.077397)"><path fill-rule="evenodd" fill="rgb(100%, 100%, 100%)" fill-opacity="1" d="M 13.367188 10.929688 L 13.507812 10.804688 L 13.839844 10.058594 L 14.320312 9.695312 L 14.820312 9.621094 L 15.25 9.429688 L 15.585938 9.191406 L 16.398438 9.367188 L 16.761719 8.992188 L 17.390625 9.066406 L 17.574219 8.953125 L 17.914062 9.148438 L 17.644531 9.453125 L 17.546875 9.914062 L 19.0625 10.15625 L 19.203125 10.386719 L 19.398438 10.304688 L 19.304688 9.886719 L 19.574219 9.726562 L 20.421875 9.886719 L 20.570312 9.757812 L 21.664062 10.15625 L 22.09375 10.195312 L 22.070312 9.648438 L 21.90625 9.167969 L 21.199219 9.140625 L 20.382812 9.230469 L 19.546875 9.164062 L 19.292969 8.703125 L 20.242188 8.039062 L 20.953125 8.046875 L 21.78125 7.96875 L 21.84375 7.726562 L 21.339844 7.558594 L 21.21875 7.210938 L 20.539062 7.234375 L 20.023438 7.035156 L 19.625 7.28125 L 19.890625 7.425781 L 19.882812 7.695312 L 19.609375 8.144531 L 19.09375 8.226562 L 18.898438 8.101562 L 18.742188 7.773438 L 18.183594 7.796875 L 17.859375 7.601562 L 17.542969 7.371094 L 17.390625 7.570312 L 17.703125 7.859375 L 18.175781 8.320312 L 18.539062 8.359375 L 18.820312 8.550781 L 18.34375 8.765625 L 18.21875 8.878906 L 18.023438 8.570312 L 17.695312 8.382812 L 17.25 7.984375 C 17.25 7.984375 16.726562 7.703125 16.761719 7.613281 C 16.796875 7.519531 16.382812 7.898438 16.382812 7.898438 L 15.863281 7.964844 L 15.484375 8.3125 L 15.238281 8.976562 L 14.71875 9.328125 L 14.609375 9.234375 L 14.289062 9.308594 L 14.082031 9.433594 L 13.617188 9.289062 L 13.738281 8.796875 C 13.738281 8.796875 13.78125 8.328125 13.925781 8.167969 C 14 8.078125 14.09375 8.019531 14.203125 8 C 14.203125 8 14.699219 7.96875 14.929688 7.789062 L 14.8125 7.703125 L 14.867188 7.367188 L 14.664062 7.457031 L 14.632812 7.230469 L 14.921875 7.054688 L 15.179688 7.097656 L 15.226562 6.910156 L 15.476562 6.6875 C 15.476562 6.6875 15.625 6.859375 15.671875 6.796875 C 15.714844 6.734375 15.796875 6.773438 15.796875 6.773438 L 15.980469 6.664062 L 16.148438 6.632812 L 16.15625 5.847656 L 16.75 5.875 L 16.425781 5.335938 L 16.160156 5.496094 L 15.796875 5.167969 L 15.9375 4.609375 L 17.390625 3.882812 C 17.765625 4.03125 18.53125 3.945312 19.15625 3.851562 C 19.164062 3.851562 19.171875 3.851562 19.175781 3.851562 C 19.203125 3.859375 19.234375 3.867188 19.257812 3.875 C 19.664062 3.984375 20.054688 4.109375 20.429688 4.265625 C 20.84375 4.40625 21.242188 4.585938 21.632812 4.773438 C 21.957031 4.9375 22.273438 5.117188 22.578125 5.320312 C 22.875 5.488281 23.160156 5.679688 23.421875 5.890625 C 23.710938 6.085938 23.980469 6.300781 24.242188 6.519531 C 24.6875 6.914062 25.101562 7.332031 25.496094 7.773438 C 25.710938 8.03125 25.914062 8.289062 26.101562 8.566406 C 26.328125 8.84375 26.53125 9.148438 26.707031 9.464844 C 27.359375 10.5 27.847656 11.644531 28.164062 12.859375 L 27.785156 12.023438 L 27.46875 12.074219 L 27.0625 11.519531 L 26.59375 11.003906 L 25.867188 10.773438 L 25.386719 10.640625 L 24.960938 10.550781 L 24.648438 10.195312 L 24.203125 9.757812 L 24.035156 10.0625 C 24.085938 10.238281 24.148438 10.414062 24.214844 10.585938 C 24.335938 10.898438 24.449219 10.707031 24.449219 10.707031 L 24.773438 10.9375 L 25.023438 11.324219 L 25.160156 11.015625 L 25.257812 10.957031 L 25.816406 11.238281 L 26.195312 11.445312 L 26.324219 11.875 L 25.894531 13.84375 L 25.566406 14.046875 L 25.445312 14.351562 L 24.671875 13.976562 L 24.167969 13.453125 L 23.875 12.976562 L 23.523438 12.238281 L 23.125 11.898438 L 22.757812 10.871094 L 22.398438 10.984375 L 22.820312 11.925781 L 23.070312 12.375 L 23.148438 12.664062 L 23.515625 13.304688 L 23.859375 13.640625 C 23.859375 13.640625 24.195312 14.023438 24.460938 14.054688 C 24.726562 14.078125 24.664062 14.316406 24.664062 14.316406 L 25 14.867188 L 24.960938 14.734375 L 25.519531 14.851562 L 25.570312 14.59375 L 25.921875 14.539062 L 25.914062 14.894531 L 25.886719 15.777344 L 25.390625 16.960938 L 25.054688 17.445312 L 24.667969 17.710938 L 24.59375 18.625 C 24.648438 18.859375 24.710938 19.09375 24.78125 19.320312 C 24.84375 19.484375 24.890625 19.660156 24.921875 19.835938 L 24.386719 21.515625 L 24.09375 21.695312 L 23.898438 22.234375 L 23.445312 22.597656 L 23.367188 22.996094 L 23.65625 23.757812 L 23.257812 24.070312 L 22.765625 25 L 22.367188 25.667969 L 21.484375 25.851562 L 20.96875 26.164062 L 20.710938 26.554688 L 20.328125 26.640625 L 20.269531 26.289062 L 20.070312 25.8125 L 20.167969 25.136719 L 19.890625 24.28125 L 19.296875 23.476562 L 18.96875 21.367188 C 18.96875 21.367188 19.210938 20.867188 19.25 20.777344 C 19.246094 20.746094 19.242188 20.71875 19.242188 20.6875 C 18.328125 21.339844 17.203125 21.714844 16 21.714844 C 12.84375 21.714844 10.285156 19.15625 10.285156 16 C 10.285156 13.796875 11.535156 11.882812 13.367188 10.929688 Z M 5.34375 9.382812 C 5.121094 9.6875 4.9375 10.015625 4.773438 10.359375 C 3.910156 12.054688 3.429688 13.972656 3.429688 16 C 3.429688 16.496094 3.457031 16.984375 3.507812 17.46875 C 3.546875 17.742188 3.585938 18.015625 3.671875 18.273438 C 3.742188 18.871094 3.890625 19.441406 4.078125 19.992188 C 4.164062 20.25 4.253906 20.496094 4.390625 20.71875 C 4.570312 21.273438 4.824219 21.789062 5.117188 22.273438 C 5.257812 22.542969 5.421875 22.796875 5.617188 23.019531 C 5.890625 23.476562 6.21875 23.898438 6.578125 24.296875 C 6.929688 24.703125 7.3125 25.085938 7.71875 25.445312 L 7.8125 24.765625 L 8.226562 24.671875 L 8.28125 24.378906 L 8.273438 21.78125 L 8.753906 21.335938 L 8.835938 20.929688 L 8.664062 20.671875 L 8.015625 20.171875 L 7.390625 20.140625 L 7.023438 19.371094 L 6.15625 19.375 L 5.703125 18.359375 L 5.695312 17.941406 L 5.414062 17.757812 L 4.894531 17.753906 L 4.585938 17.367188 L 4.28125 16.554688 L 3.53125 16.171875 L 3.4375 16.300781 C 3.445312 16.691406 3.476562 17.078125 3.507812 17.46875 C 3.554688 17.738281 3.59375 18.011719 3.671875 18.273438 C 3.753906 18.859375 3.902344 19.433594 4.078125 19.992188 C 4.171875 20.242188 4.265625 20.488281 4.390625 20.71875 C 4.578125 21.265625 4.832031 21.777344 5.117188 22.273438 C 5.265625 22.53125 5.425781 22.789062 5.34375 9.382812 Z M 15.804688 3.4375 C 15.171875 3.445312 14.539062 3.5 13.914062 3.605469 L 15.671875 3.515625 Z M 13.914062 3.605469 C 12.640625 3.820312 11.40625 4.226562 10.257812 4.820312 L 10.257812 5.132812 L 10.492188 5.722656 L 10.90625 5.632812 L 10.796875 5.21875 L 10.886719 4.898438 L 12.402344 4.78125 L 12.855469 4.761719 L 13.777344 4.085938 Z M 14.652344 5.4375 L 14.394531 5.496094 L 14.703125 6.023438 L 14.578125 6.617188 L 14.609375 6.976562 L 15.476562 6.390625 L 15.175781 6.054688 L 14.929688 5.828125 Z M 8.894531 5.648438 C 8.679688 5.796875 8.472656 5.945312 8.265625 6.101562 C 7.953125 6.351562 7.648438 6.613281 7.375 6.90625 C 7.097656 7.136719 6.851562 7.390625 6.617188 7.664062 C 6.367188 7.9375 6.132812 8.226562 5.921875 8.53125 C 5.703125 8.796875 5.511719 9.082031 5.34375 9.382812 C 5.132812 9.695312 4.945312 10.023438 4.773438 10.359375 C 4.613281 10.6875 4.464844 11.015625 4.328125 11.359375 L 4.453125 11.246094 L 5.132812 10.996094 L 5.1875 10.746094 L 5.164062 10.503906 L 5.1875 10.269531 L 5.269531 9.960938 L 5.429688 9.820312 L 5.582031 9.730469 L 5.65625 9.585938 C 5.757812 9.40625 5.882812 9.242188 6.015625 9.085938 L 7.179688 8.242188 L 7.289062 7.703125 C 7.289062 7.703125 7.851562 7.359375 7.914062 7.484375 C 7.972656 7.601562 8.140625 7.523438 8.164062 7.785156 C 8.1875 8.050781 8.382812 7.097656 8.382812 7.097656 L 8.375 6.210938 L 8.890625 5.84375 Z M 26.109375 20.335938 L 25.804688 21.140625 L 25.226562 21.546875 L 25.03125 22.023438 L 25.074219 22.414062 L 24.890625 22.984375 L 24.898438 22.980469 C 24.9375 23.0625 24.671875 23.234375 24.636719 23.257812 C 24.65625 23.265625 24.679688 23.28125 24.75 23.34375 L 24.667969 23.75 L 24.839844 24.109375 L 25.511719 23.59375 L 25.828125 22.121094 L 26 21.339844 L 26.238281 21.140625 L 26.382812 20.59375 Z M 24.636719 23.257812 C 24.617188 23.242188 24.613281 23.242188 24.601562 23.21875 L 24.625 23.265625 C 24.625 23.265625 24.632812 23.257812 24.636719 23.257812 Z M 5.921875 8.53125 C 6.125 8.21875 6.359375 7.929688 6.617188 7.664062 C 6.84375 7.382812 7.09375 7.125 7.375 6.90625 C 7.640625 6.601562 7.945312 6.34375 8.265625 6.101562 C 10.398438 4.421875 13.082031 3.429688 16 3.429688 C 17.09375 3.429688 18.15625 3.570312 19.15625 3.851562 C 19.195312 3.839844 19.234375 3.847656 19.257812 3.875 C 19.667969 3.96875 20.0625 4.09375 20.429688 4.265625 C 20.851562 4.394531 21.25 4.570312 21.632812 4.773438 C 21.96875 4.929688 22.28125 5.105469 22.578125 5.320312 C 22.882812 5.476562 23.167969 5.667969 23.421875 5.890625 C 23.71875 6.074219 23.988281 6.289062 24.242188 6.519531 C 24.695312 6.90625 25.113281 7.324219 25.496094 7.773438 C 25.71875 8.023438 25.925781 8.28125 26.101562 8.566406 C 26.335938 8.839844 26.539062 9.140625 26.707031 9.464844 C 27.898438 11.359375 28.570312 13.601562 28.570312 16 C 28.570312 22.9375 22.9375 28.570312 16 28.570312 C 12.242188 28.570312 8.871094 26.921875 6.578125 24.296875 C 6.21875 23.90625 5.890625 23.484375 5.921875 8.53125 Z M 15.875 0 L 15.875 0.00390625 C 7.070312 0.0703125 0 7.179688 0 16 C 0 24.863281 7.136719 32 16 32 C 24.546875 32 31.480469 25.367188 31.96875 16.953125 L 32 16.921875 L 32 3.199219 C 32 1.429688 30.570312 0 28.800781 0 Z M 15.875 0 "/></g></svg>
