<svg width="64" height="64" viewBox="0 0 64 64" version="1.1"><defs><linearGradient id="linear-pattern-0" gradientUnits="userSpaceOnUse" x1="0" y1="0" x2="0" y2="1" gradientTransform="matrix(60, 0, 0, 56, 0, 4)"><stop offset="0" stop-color="#8900e4" stop-opacity="1"/><stop offset="1" stop-color="#42006e" stop-opacity="1"/></linearGradient></defs><path fill="url(#linear-pattern-0)" fill-opacity="1" d="M 36.21875 2.050781 L 62.027344 27.605469 C 64.402344 29.957031 64.417969 33.785156 62.058594 36.15625 L 36.460938 61.917969 C 34.105469 64.289062 30.269531 64.304688 27.894531 61.949219 L 2.085938 36.394531 C -0.289062 34.042969 -0.304688 30.214844 2.050781 27.84375 L 27.652344 2.082031 C 30.007812 -0.289062 33.84375 -0.304688 36.21875 2.050781 Z M 36.21875 2.050781 " /><g transform="matrix(1.0075098,0,0,1.0032698,16.221436,16.077397)"><path fill-rule="evenodd" fill="rgb(100%, 100%, 100%)" fill-opacity="1" d="M 10.554688 0.71875 C 10.035156 0.71875 9.609375 1.140625 9.609375 1.664062 L 9.609375 5.792969 C 9.609375 6.3125 10.035156 6.730469 10.554688 6.730469 C 11.078125 6.730469 11.503906 6.3125 11.503906 5.792969 L 11.503906 1.664062 C 11.503906 1.140625 11.078125 0.71875 10.554688 0.71875 M 15.800781 0.71875 C 15.28125 0.71875 14.859375 1.140625 14.859375 1.664062 L 14.859375 5.792969 C 14.859375 6.3125 15.28125 6.730469 15.800781 6.730469 C 16.324219 6.730469 16.75 6.3125 16.75 5.792969 L 16.75 1.664062 C 16.75 1.140625 16.324219 0.71875 15.800781 0.71875 M 21.054688 0.71875 C 20.53125 0.71875 20.109375 1.140625 20.109375 1.664062 L 20.109375 5.792969 C 20.109375 6.3125 20.53125 6.730469 21.054688 6.730469 C 21.578125 6.730469 21.992188 6.3125 21.992188 5.792969 L 21.992188 1.664062 C 21.992188 1.140625 21.578125 0.71875 21.054688 0.71875 M 10.46875 8.085938 C 9.03125 8.085938 7.875 9.25 7.875 10.679688 L 7.875 21.398438 C 7.875 22.835938 9.03125 23.992188 10.46875 23.992188 L 21.140625 23.992188 C 22.578125 23.992188 23.734375 22.835938 23.734375 21.398438 L 23.734375 10.679688 C 23.734375 9.25 22.578125 8.085938 21.140625 8.085938 Z M 17.570312 9.640625 C 17.664062 9.636719 17.753906 9.695312 17.789062 9.785156 C 17.824219 9.875 17.863281 9.945312 17.902344 10.027344 C 17.90625 10.03125 17.90625 10.039062 17.90625 10.039062 C 18.0625 10.414062 18.078125 10.421875 18.199219 10.664062 C 18.25 10.734375 18.339844 10.882812 18.460938 11.117188 C 18.507812 11.21875 18.476562 11.34375 18.390625 11.40625 C 17.726562 11.914062 17.683594 11.960938 17.136719 12.449219 C 17.121094 12.46875 17.101562 12.484375 17.082031 12.5 C 17.078125 12.5 17.078125 12.503906 17.070312 12.507812 C 17.070312 12.507812 17.0625 12.507812 17.058594 12.507812 C 17.054688 12.511719 17.054688 12.515625 17.050781 12.515625 C 17.046875 12.515625 17.042969 12.515625 17.039062 12.515625 C 17.03125 12.523438 17.023438 12.523438 17.015625 12.527344 C 16.992188 12.53125 16.96875 12.539062 16.945312 12.539062 C 16.945312 12.539062 16.9375 12.539062 16.9375 12.539062 C 16.929688 12.53125 16.925781 12.53125 16.921875 12.53125 C 16.910156 12.53125 16.902344 12.53125 16.890625 12.527344 C 16.886719 12.523438 16.882812 12.523438 16.878906 12.523438 C 16.875 12.523438 16.871094 12.515625 16.867188 12.515625 C 16.851562 12.511719 16.84375 12.507812 16.828125 12.5 C 16.824219 12.5 16.820312 12.496094 16.820312 12.492188 C 16.8125 12.488281 16.8125 12.484375 16.8125 12.484375 C 16.804688 12.476562 16.796875 12.472656 16.789062 12.46875 C 16.789062 12.46875 16.785156 12.464844 16.78125 12.460938 C 16.78125 12.460938 16.777344 12.453125 16.777344 12.449219 C 16.757812 12.4375 16.75 12.417969 16.742188 12.402344 C 16.742188 12.398438 16.738281 12.398438 16.738281 12.390625 C 16.734375 12.382812 16.734375 12.382812 16.730469 12.382812 C 16.320312 11.78125 16.117188 11.425781 15.976562 10.976562 C 15.9375 10.871094 15.992188 10.75 16.09375 10.695312 C 16.140625 10.671875 16.21875 10.621094 16.296875 10.5625 C 16.296875 10.554688 16.304688 10.554688 16.308594 10.554688 C 16.480469 10.4375 16.617188 10.335938 16.707031 10.265625 C 16.90625 10.101562 17.078125 9.976562 17.125 9.921875 C 17.226562 9.828125 17.335938 9.757812 17.425781 9.6875 C 17.460938 9.664062 17.5 9.644531 17.546875 9.640625 C 17.554688 9.640625 17.5625 9.640625 17.570312 9.636719 M 1.535156 9.855469 C 1.011719 9.855469 0.59375 10.273438 0.59375 10.796875 C 0.59375 11.316406 1.011719 11.738281 1.535156 11.738281 L 5.667969 11.738281 C 6.1875 11.738281 6.609375 11.316406 6.609375 10.796875 C 6.609375 10.273438 6.1875 9.855469 5.667969 9.855469 Z M 26.421875 9.855469 C 25.898438 9.855469 25.476562 10.273438 25.476562 10.796875 C 25.476562 11.316406 25.898438 11.738281 26.421875 11.738281 L 30.550781 11.738281 C 31.070312 11.738281 31.492188 11.316406 31.492188 10.796875 C 31.492188 10.273438 31.070312 9.855469 30.550781 9.855469 Z M 16.9375 13.710938 C 17.046875 13.710938 17.167969 13.742188 17.257812 13.820312 C 17.351562 13.898438 17.414062 14.019531 17.414062 14.144531 C 17.414062 14.234375 17.390625 14.308594 17.359375 14.476562 C 17.320312 14.640625 17.265625 14.890625 17.175781 15.257812 C 17 16 16.695312 17.242188 16.1875 19.332031 C 16.1875 19.332031 16.1875 19.335938 16.1875 19.335938 C 16.070312 19.757812 16.015625 20.136719 16.015625 20.289062 C 16.015625 20.425781 16.046875 20.523438 16.078125 20.570312 C 16.101562 20.609375 16.109375 20.609375 16.140625 20.609375 C 16.261719 20.609375 16.257812 20.625 16.523438 20.5 C 16.78125 20.375 17.273438 20.109375 18.179688 19.625 C 18.1875 19.617188 18.195312 19.613281 18.203125 19.609375 C 18.222656 19.597656 18.242188 19.589844 18.261719 19.585938 C 18.265625 19.585938 18.273438 19.585938 18.273438 19.578125 C 18.28125 19.578125 18.28125 19.578125 18.289062 19.578125 C 18.304688 19.574219 18.320312 19.574219 18.335938 19.574219 C 18.339844 19.574219 18.34375 19.574219 18.34375 19.574219 C 18.351562 19.574219 18.351562 19.574219 18.359375 19.574219 C 18.367188 19.574219 18.375 19.578125 18.382812 19.578125 C 18.390625 19.585938 18.398438 19.585938 18.402344 19.585938 C 18.40625 19.585938 18.40625 19.585938 18.40625 19.585938 C 18.414062 19.589844 18.417969 19.59375 18.429688 19.59375 C 18.4375 19.601562 18.445312 19.605469 18.460938 19.609375 C 18.515625 19.648438 18.550781 19.710938 18.5625 19.773438 C 18.5625 19.78125 18.5625 19.78125 18.5625 19.785156 C 18.5625 19.789062 18.5625 19.792969 18.5625 19.796875 C 18.566406 19.820312 18.566406 19.835938 18.5625 19.855469 C 18.558594 19.859375 18.558594 19.867188 18.558594 19.878906 L 18.554688 19.882812 L 18.480469 20.398438 C 18.472656 20.46875 18.429688 20.53125 18.371094 20.570312 C 18.183594 20.679688 18.007812 20.796875 17.828125 20.898438 C 17.820312 20.90625 17.8125 20.90625 17.804688 20.914062 C 17.429688 21.164062 17.054688 21.40625 16.6875 21.640625 C 15.621094 22.320312 15.085938 22.609375 14.628906 22.609375 C 14.398438 22.609375 14.199219 22.46875 14.085938 22.28125 C 13.96875 22.089844 13.914062 21.855469 13.914062 21.582031 C 13.914062 21.335938 13.914062 21.164062 14.039062 20.65625 C 14.15625 20.15625 14.390625 19.28125 14.859375 17.546875 C 14.859375 17.546875 14.859375 17.546875 14.859375 17.542969 C 15.152344 16.414062 15.210938 16.160156 15.210938 15.9375 C 15.210938 15.859375 15.195312 15.828125 15.1875 15.820312 C 15.125 15.820312 15.117188 15.8125 14.953125 15.890625 C 14.765625 15.976562 14.449219 16.140625 13.859375 16.460938 C 13.789062 16.5 13.695312 16.5 13.625 16.453125 C 13.550781 16.40625 13.507812 16.320312 13.515625 16.238281 L 13.554688 15.679688 C 13.5625 15.609375 13.597656 15.539062 13.65625 15.503906 C 14.476562 14.953125 15.183594 14.515625 15.734375 14.207031 C 16.007812 14.058594 16.242188 13.933594 16.4375 13.851562 C 16.632812 13.765625 16.777344 13.710938 16.9375 13.710938 M 1.535156 15.09375 C 1.011719 15.09375 0.585938 15.515625 0.585938 16.039062 C 0.585938 16.5625 1.011719 16.976562 1.535156 16.976562 L 5.664062 16.976562 C 6.1875 16.976562 6.601562 16.5625 6.601562 16.039062 C 6.601562 15.515625 6.1875 15.09375 5.664062 15.09375 Z M 26.421875 15.09375 C 25.898438 15.09375 25.472656 15.515625 25.472656 16.039062 C 25.472656 16.5625 25.898438 16.976562 26.421875 16.976562 L 30.546875 16.976562 C 31.070312 16.976562 31.488281 16.5625 31.488281 16.039062 C 31.488281 15.515625 31.070312 15.09375 30.546875 15.09375 Z M 1.535156 20.335938 C 1.011719 20.335938 0.585938 20.757812 0.585938 21.28125 C 0.585938 21.804688 1.011719 22.226562 1.535156 22.226562 L 5.664062 22.226562 C 6.1875 22.226562 6.601562 21.804688 6.601562 21.28125 C 6.601562 20.757812 6.1875 20.335938 5.664062 20.335938 Z M 26.421875 20.335938 C 25.898438 20.335938 25.472656 20.757812 25.472656 21.28125 C 25.472656 21.804688 25.898438 22.226562 26.421875 22.226562 L 30.546875 22.226562 C 31.070312 22.226562 31.488281 21.804688 31.488281 21.28125 C 31.488281 20.757812 31.070312 20.335938 30.546875 20.335938 Z M 10.554688 25.515625 C 10.035156 25.515625 9.609375 25.9375 9.609375 26.460938 L 9.609375 30.589844 C 9.609375 31.109375 10.035156 31.53125 10.554688 31.53125 C 11.078125 31.53125 11.503906 31.109375 11.503906 30.589844 L 11.503906 26.460938 C 11.503906 25.9375 11.078125 25.515625 10.554688 25.515625 M 15.800781 25.515625 C 15.28125 25.515625 14.859375 25.9375 14.859375 26.460938 L 14.859375 30.589844 C 14.859375 31.109375 15.28125 31.53125 15.800781 31.53125 C 16.324219 31.53125 16.75 31.109375 16.75 30.589844 L 16.75 26.460938 C 16.75 25.9375 16.324219 25.515625 15.800781 25.515625 M 21.054688 25.515625 C 20.53125 25.515625 20.109375 25.9375 20.109375 26.460938 L 20.109375 30.589844 C 20.109375 31.109375 20.53125 31.53125 21.054688 31.53125 C 21.578125 31.53125 21.992188 31.109375 21.992188 30.589844 L 21.992188 26.460938 C 21.992188 25.9375 21.578125 25.515625 21.054688 25.515625 "/></g></svg>
