<svg width="64" height="64" viewBox="0 0 64 64" version="1.1"><defs><linearGradient id="linear-pattern-0" gradientUnits="userSpaceOnUse" x1="0" y1="0" x2="0" y2="1" gradientTransform="matrix(60, 0, 0, 56, 0, 4)"><stop offset="0" stop-color="#a67e50" stop-opacity="1"/><stop offset="1" stop-color="#644c30" stop-opacity="1"/></linearGradient></defs><path fill="url(#linear-pattern-0)" fill-opacity="1" d="M 36.21875 2.050781 L 62.027344 27.605469 C 64.402344 29.957031 64.417969 33.785156 62.058594 36.15625 L 36.460938 61.917969 C 34.105469 64.289062 30.269531 64.304688 27.894531 61.949219 L 2.085938 36.394531 C -0.289062 34.042969 -0.304688 30.214844 2.050781 27.84375 L 27.652344 2.082031 C 30.007812 -0.289062 33.84375 -0.304688 36.21875 2.050781 Z M 36.21875 2.050781 " /><g transform="matrix(1.0075098,0,0,1.0032698,16.221436,16.077397)"><path fill-rule="nonzero" fill="rgb(100%, 100%, 100%)" fill-opacity="1" d="M 2.554688 1.195312 C 2.289062 1.203125 2.023438 1.292969 1.796875 1.453125 C 1.136719 1.9375 0.953125 2.929688 1.382812 3.664062 L 8.171875 15.203125 C 8.183594 15.222656 8.195312 15.242188 8.210938 15.261719 C 8.734375 16.066406 8.722656 16.695312 8.238281 17.523438 L 1.386719 29.148438 C 0.953125 29.882812 1.136719 30.875 1.796875 31.359375 C 2.460938 31.84375 3.351562 31.640625 3.78125 30.898438 L 10.640625 19.265625 C 11.671875 17.507812 11.679688 15.15625 10.53125 13.390625 L 10.570312 13.449219 L 3.78125 1.914062 C 3.515625 1.460938 3.050781 1.183594 2.554688 1.195312 Z M 8.71875 1.195312 C 8.445312 1.203125 8.183594 1.296875 7.960938 1.460938 C 7.300781 1.945312 7.117188 2.933594 7.554688 3.671875 L 23.679688 30.898438 C 24.117188 31.640625 25.007812 31.84375 25.667969 31.359375 C 26.328125 30.871094 26.511719 29.882812 26.074219 29.144531 L 9.945312 1.914062 C 9.675781 1.453125 9.210938 1.179688 8.71875 1.195312 Z M 21.015625 12.070312 C 20.222656 12.070312 19.578125 12.789062 19.578125 13.671875 C 19.578125 14.550781 20.222656 15.265625 21.015625 15.265625 L 29.625 15.265625 C 30.417969 15.265625 31.058594 14.550781 31.058594 13.671875 C 31.058594 12.789062 30.417969 12.070312 29.625 12.070312 Z M 24.011719 17.546875 C 23.21875 17.546875 22.578125 18.265625 22.578125 19.148438 C 22.578125 20.027344 23.21875 20.742188 24.011719 20.742188 L 29.625 20.742188 C 30.417969 20.742188 31.058594 20.027344 31.058594 19.148438 C 31.058594 18.265625 30.417969 17.546875 29.625 17.546875 Z M 13.914062 19.78125 C 13.4375 19.785156 12.992188 20.050781 12.730469 20.492188 L 7.554688 29.140625 C 7.117188 29.875 7.296875 30.863281 7.953125 31.351562 C 8.613281 31.84375 9.503906 31.640625 9.945312 30.90625 L 15.117188 22.261719 C 15.554688 21.53125 15.375 20.539062 14.71875 20.046875 C 14.480469 19.871094 14.199219 19.777344 13.914062 19.78125 Z M 13.914062 19.78125 "/></g></svg>
