<svg width="64" height="64" viewBox="0 0 64 64" version="1.1"><defs><linearGradient id="linear-pattern-0" gradientUnits="userSpaceOnUse" x1="0" y1="0" x2="0" y2="1" gradientTransform="matrix(60, 0, 0, 56, 0, 4)"><stop offset="0" stop-color="#3067ff" stop-opacity="1"/><stop offset="1" stop-color="#002ca6" stop-opacity="1"/></linearGradient></defs><path fill="url(#linear-pattern-0)" fill-opacity="1" d="M 36.21875 2.050781 L 62.027344 27.605469 C 64.402344 29.957031 64.417969 33.785156 62.058594 36.15625 L 36.460938 61.917969 C 34.105469 64.289062 30.269531 64.304688 27.894531 61.949219 L 2.085938 36.394531 C -0.289062 34.042969 -0.304688 30.214844 2.050781 27.84375 L 27.652344 2.082031 C 30.007812 -0.289062 33.84375 -0.304688 36.21875 2.050781 Z M 36.21875 2.050781 " /><g transform="matrix(1.0075098,0,0,1.0032698,16.221436,16.077397)"><path fill-rule="nonzero" fill="rgb(100%, 100%, 100%)" fill-opacity="1" d="M 0.378906 26.265625 C 3.953125 26.265625 11.117188 21.160156 11.117188 4.570312 L 11.117188 0.742188 L 13.503906 0.742188 L 13.503906 10.953125 C 13.503906 24.984375 6.34375 31.367188 0.378906 31.367188 Z M 0.378906 26.265625 "/><path fill-rule="nonzero" fill="rgb(100%, 100%, 100%)" fill-opacity="1" d="M 31.40625 26.265625 C 27.828125 26.265625 20.664062 21.160156 20.664062 4.570312 L 20.664062 0.742188 L 18.277344 0.742188 L 18.277344 10.953125 C 18.277344 24.984375 25.4375 31.367188 31.40625 31.367188 Z M 31.40625 26.265625 "/><path fill-rule="nonzero" fill="rgb(100%, 100%, 100%)" fill-opacity="1" d="M 12.3125 12.226562 L 19.476562 12.226562 L 19.476562 17.328125 L 12.3125 17.328125 Z M 12.3125 12.226562 "/></g></svg>
