<svg width="64" height="64" viewBox="0 0 64 64" version="1.1"><defs><linearGradient id="linear-pattern-0" gradientUnits="userSpaceOnUse" x1="0" y1="0" x2="0" y2="1" gradientTransform="matrix(60, 0, 0, 56, 0, 4)"><stop offset="0" stop-color="#6926fc" stop-opacity="1"/><stop offset="1" stop-color="#3702ab" stop-opacity="1"/></linearGradient></defs><path fill="url(#linear-pattern-0)" fill-opacity="1" d="M 36.21875 2.050781 L 62.027344 27.605469 C 64.402344 29.957031 64.417969 33.785156 62.058594 36.15625 L 36.460938 61.917969 C 34.105469 64.289062 30.269531 64.304688 27.894531 61.949219 L 2.085938 36.394531 C -0.289062 34.042969 -0.304688 30.214844 2.050781 27.84375 L 27.652344 2.082031 C 30.007812 -0.289062 33.84375 -0.304688 36.21875 2.050781 Z M 36.21875 2.050781 " /><g transform="matrix(1.0075098,0,0,1.0032698,16.221436,16.077397)"><path fill-rule="nonzero" fill="rgb(100%, 100%, 100%)" fill-opacity="1" d="M 0 7.199219 L 0 23.199219 L 3.199219 23.199219 L 3.199219 14.398438 L 4.800781 14.398438 L 4.800781 20 L 8 20 L 8 7.199219 L 4.800781 7.199219 L 4.800781 11.199219 L 3.199219 11.199219 L 3.199219 7.199219 Z M 16 7.199219 C 14.304688 7.199219 12.671875 7.875 11.476562 9.074219 C 10.273438 10.273438 9.601562 11.902344 9.601562 13.601562 C 9.601562 15.296875 10.273438 16.925781 11.476562 18.125 C 12.671875 19.328125 14.304688 20 16 20 C 17.695312 20 19.328125 19.328125 20.523438 18.125 C 21.726562 16.925781 22.398438 15.296875 22.398438 13.601562 C 22.398438 11.902344 21.726562 10.273438 20.523438 9.074219 C 19.328125 7.875 17.695312 7.199219 16 7.199219 Z M 24 7.199219 L 24 20 L 27.199219 20 L 27.199219 13.125 L 28.800781 15.898438 L 28.800781 23.199219 L 32 23.199219 L 32 7.199219 L 28.800781 7.199219 L 28.800781 9.90625 L 27.199219 7.199219 Z M 16 10.398438 C 16.847656 10.398438 17.664062 10.738281 18.261719 11.335938 C 18.859375 11.9375 19.199219 12.75 19.199219 13.601562 C 19.199219 14.445312 18.859375 15.261719 18.261719 15.859375 C 17.664062 16.460938 16.847656 16.800781 16 16.800781 C 15.152344 16.800781 14.335938 16.460938 13.738281 15.859375 C 13.140625 15.261719 12.800781 14.445312 12.800781 13.601562 C 12.800781 12.75 13.140625 11.9375 13.738281 11.335938 C 14.335938 10.738281 15.152344 10.398438 16 10.398438 Z M 9.601562 21.601562 L 9.601562 24.800781 L 22.398438 24.800781 L 22.398438 21.601562 Z M 9.601562 21.601562 "/></g></svg>
