<svg width="64" height="64" viewBox="0 0 64 64" version="1.1"><defs><linearGradient id="linear-pattern-0" gradientUnits="userSpaceOnUse" x1="0" y1="0" x2="0" y2="1" gradientTransform="matrix(60, 0, 0, 56, 0, 4)"><stop offset="0" stop-color="#c10000" stop-opacity="1"/><stop offset="1" stop-color="#5f0000" stop-opacity="1"/></linearGradient></defs><path fill="url(#linear-pattern-0)" fill-opacity="1" d="M 36.21875 2.050781 L 62.027344 27.605469 C 64.402344 29.957031 64.417969 33.785156 62.058594 36.15625 L 36.460938 61.917969 C 34.105469 64.289062 30.269531 64.304688 27.894531 61.949219 L 2.085938 36.394531 C -0.289062 34.042969 -0.304688 30.214844 2.050781 27.84375 L 27.652344 2.082031 C 30.007812 -0.289062 33.84375 -0.304688 36.21875 2.050781 Z M 36.21875 2.050781 " /><g transform="matrix(1.0075098,0,0,1.0032698,16.221436,16.077397)"><path fill-rule="nonzero" fill="rgb(100%, 100%, 100%)" fill-opacity="1" d="M 3.132812 0.890625 C 1.757812 0.890625 0.640625 2.277344 0.640625 3.976562 L 0.640625 28.34375 C 0.640625 30.046875 1.75 31.429688 3.132812 31.429688 L 28.9375 31.429688 C 30.304688 31.429688 31.414062 30.054688 31.414062 28.34375 L 31.414062 3.976562 C 31.414062 2.28125 30.304688 0.890625 28.9375 0.890625 Z M 22.191406 2.796875 L 26.804688 2.796875 L 26.804688 10.433594 L 22.191406 10.433594 Z M 3.71875 2.792969 L 8.335938 2.792969 L 8.335938 10.425781 L 3.71875 10.425781 Z M 9.875 2.792969 L 14.488281 2.792969 L 14.488281 10.425781 L 9.875 10.425781 Z M 16.03125 2.796875 L 19.105469 2.796875 L 19.105469 8.523438 L 20.640625 8.523438 L 20.640625 10.425781 L 16.03125 10.425781 L 16.03125 8.523438 L 17.5625 8.523438 L 17.5625 4.710938 L 16.03125 4.710938 Z M 23.730469 4.710938 L 23.730469 8.523438 L 25.265625 8.523438 L 25.265625 4.710938 Z M 5.257812 4.699219 L 5.257812 8.519531 L 6.796875 8.519531 L 6.796875 4.699219 Z M 11.410156 4.699219 L 11.410156 8.519531 L 12.945312 8.519531 L 12.945312 4.699219 Z M 3.71875 12.335938 L 8.335938 12.335938 L 8.335938 19.96875 L 3.71875 19.96875 Z M 9.875 12.335938 L 12.945312 12.335938 L 12.945312 18.054688 L 14.488281 18.054688 L 14.488281 19.96875 L 9.875 19.96875 L 9.875 18.054688 L 11.410156 18.054688 L 11.410156 14.25 L 9.875 14.25 Z M 16.03125 12.335938 L 20.640625 12.335938 L 20.640625 19.96875 L 16.03125 19.96875 Z M 22.1875 12.335938 L 26.796875 12.335938 L 26.796875 19.96875 L 22.1875 19.96875 Z M 5.257812 14.242188 L 5.257812 18.050781 L 6.796875 18.050781 L 6.796875 14.242188 Z M 17.5625 14.242188 L 17.5625 18.050781 L 19.105469 18.050781 L 19.105469 14.242188 Z M 23.726562 14.242188 L 23.726562 18.050781 L 25.261719 18.050781 L 25.261719 14.242188 Z M 3.71875 21.875 L 6.796875 21.875 L 6.796875 27.597656 L 8.335938 27.597656 L 8.335938 29.507812 L 3.71875 29.507812 L 3.71875 27.597656 L 5.257812 27.597656 L 5.257812 23.789062 L 3.71875 23.789062 Z M 9.875 21.875 L 14.488281 21.875 L 14.488281 29.507812 L 9.875 29.507812 Z M 16.03125 21.875 L 19.105469 21.875 L 19.105469 27.597656 L 20.640625 27.597656 L 20.640625 29.507812 L 16.03125 29.507812 L 16.03125 27.597656 L 17.5625 27.597656 L 17.5625 23.789062 L 16.03125 23.789062 Z M 22.1875 21.875 L 25.261719 21.875 L 25.261719 27.597656 L 23.726562 27.597656 L 23.726562 23.789062 L 22.1875 23.789062 Z M 11.410156 23.78125 L 11.410156 27.59375 L 12.945312 27.59375 L 12.945312 23.78125 Z M 11.410156 23.78125 "/></g></svg>
