<svg width="64" height="64" viewBox="0 0 64 64" version="1.1"><defs><linearGradient id="linear-pattern-0" gradientUnits="userSpaceOnUse" x1="0" y1="0" x2="0" y2="1" gradientTransform="matrix(60, 0, 0, 56, 0, 4)"><stop offset="0" stop-color="#3067ff" stop-opacity="1"/><stop offset="1" stop-color="#002ca6" stop-opacity="1"/></linearGradient></defs><path fill="url(#linear-pattern-0)" fill-opacity="1" d="M 36.21875 2.050781 L 62.027344 27.605469 C 64.402344 29.957031 64.417969 33.785156 62.058594 36.15625 L 36.460938 61.917969 C 34.105469 64.289062 30.269531 64.304688 27.894531 61.949219 L 2.085938 36.394531 C -0.289062 34.042969 -0.304688 30.214844 2.050781 27.84375 L 27.652344 2.082031 C 30.007812 -0.289062 33.84375 -0.304688 36.21875 2.050781 Z M 36.21875 2.050781 " /><g transform="matrix(1.0075098,0,0,1.0032698,16.221436,16.077397)"><path fill-rule="nonzero" fill="rgb(100%, 100%, 100%)" fill-opacity="1" d="M 1.257812 30.632812 C 1.257812 30.621094 1.515625 30.476562 1.835938 30.308594 C 4.789062 28.777344 7.234375 26.695312 8.789062 24.398438 C 10.5625 21.773438 11.53125 18.660156 11.921875 14.375 C 12.035156 13.167969 12.039062 8.765625 11.929688 7.773438 C 11.753906 6.160156 11.511719 5.039062 11.082031 3.859375 C 10.804688 3.109375 10.769531 2.671875 10.945312 2.359375 C 11.226562 1.875 11.585938 1.898438 13.421875 2.46875 C 15.695312 3.179688 16.015625 3.296875 16.148438 3.472656 C 16.292969 3.660156 16.273438 3.789062 15.878906 5.179688 C 15.203125 7.574219 14.875 10.148438 14.792969 13.734375 L 14.75 15.667969 L 15.054688 16.054688 C 15.867188 17.097656 16.328125 17.703125 17.152344 18.828125 C 19.160156 21.578125 20.316406 22.96875 21.460938 23.992188 C 23.039062 25.421875 24.152344 26.195312 26.011719 27.160156 C 27.179688 27.765625 27.851562 28.054688 29.429688 28.640625 C 30.136719 28.898438 30.804688 29.15625 30.929688 29.210938 C 31.195312 29.328125 31.40625 29.554688 31.328125 29.640625 C 30.945312 30.039062 25.09375 30.402344 23.554688 30.125 C 20.953125 29.65625 18.648438 27.539062 14.378906 21.714844 L 13.515625 20.53125 L 13.34375 21.296875 C 12.980469 22.933594 12.351562 24.5 11.597656 25.648438 C 11.085938 26.433594 9.828125 27.742188 9.082031 28.261719 C 7.457031 29.402344 5.453125 30.101562 2.78125 30.46875 C 1.714844 30.617188 1.261719 30.664062 1.261719 30.632812 M 7.304688 14.648438 C 6.164062 14.15625 4.882812 12.609375 3.929688 10.578125 C 3.46875 9.578125 3.351562 9 3.53125 8.5625 C 3.773438 7.960938 4.703125 8.023438 6.085938 8.726562 C 7.4375 9.410156 8.53125 10.257812 8.957031 10.953125 C 9.296875 11.5 9.382812 11.890625 9.34375 12.597656 C 9.289062 13.632812 8.941406 14.394531 8.40625 14.664062 C 8.0625 14.835938 7.730469 14.828125 7.304688 14.648438 M 16.753906 14.402344 C 17.960938 13.023438 19.375 11.457031 20.257812 10.527344 C 21.46875 9.242188 21.484375 9.214844 21.804688 7.929688 C 21.921875 7.46875 22.0625 7.039062 22.117188 6.976562 C 22.28125 6.792969 22.582031 6.828125 22.933594 7.070312 C 23.414062 7.410156 25.8125 9.371094 26.144531 9.703125 C 26.355469 9.914062 26.4375 10.046875 26.4375 10.171875 C 26.4375 10.375 26.261719 10.472656 25.445312 10.726562 C 24.6875 10.960938 24.070312 11.253906 21.71875 12.464844 C 18.976562 13.875 18.4375 14.101562 16.6875 14.585938 C 16.582031 14.613281 16.59375 14.578125 16.753906 14.402344 "/></g></svg>
