<svg width="64" height="64" viewBox="0 0 64 64" version="1.1"><defs><linearGradient id="linear-pattern-0" gradientUnits="userSpaceOnUse" x1="0" y1="0" x2="0" y2="1" gradientTransform="matrix(60, 0, 0, 56, 0, 4)"><stop offset="0" stop-color="#ec7700" stop-opacity="1"/><stop offset="1" stop-color="#773c00" stop-opacity="1"/></linearGradient></defs><path fill="url(#linear-pattern-0)" fill-opacity="1" d="M 36.21875 2.050781 L 62.027344 27.605469 C 64.402344 29.957031 64.417969 33.785156 62.058594 36.15625 L 36.460938 61.917969 C 34.105469 64.289062 30.269531 64.304688 27.894531 61.949219 L 2.085938 36.394531 C -0.289062 34.042969 -0.304688 30.214844 2.050781 27.84375 L 27.652344 2.082031 C 30.007812 -0.289062 33.84375 -0.304688 36.21875 2.050781 Z M 36.21875 2.050781 " /><g transform="matrix(1.0075098,0,0,1.0032698,16.221436,16.077397)"><path fill-rule="evenodd" fill="rgb(100%, 100%, 100%)" fill-opacity="1" d="M 16 3.554688 C 22.863281 3.554688 28.441406 8.953125 28.445312 15.226562 C 28.4375 17.921875 27.226562 20.53125 25.089844 22.726562 C 24.421875 23.40625 24.0625 24.328125 24.078125 25.28125 C 24.101562 26.328125 24.507812 27.292969 24.910156 28.195312 C 23.761719 27.929688 22.65625 27.464844 21.574219 26.75 C 20.773438 26.226562 19.789062 26.042969 18.851562 26.25 C 17.722656 26.5 16.773438 26.664062 16 26.664062 C 9.070312 26.664062 3.554688 21.5 3.554688 15.226562 C 3.554688 8.953125 9.132812 3.554688 16 3.554688 Z M 16 0 C 7.265625 0 0 6.890625 0 15.226562 C 0 23.566406 7.265625 30.222656 16 30.222656 L 16.003906 30.222656 C 17.226562 30.21875 18.429688 29.984375 19.621094 29.71875 C 22.078125 31.335938 25.078125 32.441406 28.484375 31.828125 C 30.046875 31.546875 30.667969 30 29.578125 28.84375 C 28.414062 27.613281 27.671875 26.847656 27.636719 25.203125 C 30.296875 22.476562 31.996094 18.992188 32 15.226562 C 32 6.890625 24.734375 0 16 0 Z M 20.40625 18.011719 C 20.804688 17.765625 21.296875 17.691406 21.75 17.800781 C 22.210938 17.90625 22.601562 18.199219 22.851562 18.601562 C 23.101562 19 23.171875 19.488281 23.0625 19.941406 C 22.945312 20.40625 22.664062 20.796875 22.257812 21.046875 C 21.632812 21.425781 20.984375 21.765625 20.308594 22.046875 C 19.679688 22.324219 19.027344 22.554688 18.359375 22.742188 C 17.597656 22.953125 16.796875 23.070312 16 23.078125 C 15.195312 23.070312 14.40625 22.953125 13.632812 22.742188 C 12.976562 22.554688 12.328125 22.324219 11.695312 22.046875 C 11.019531 21.765625 10.367188 21.425781 9.742188 21.046875 C 9.339844 20.796875 9.046875 20.40625 8.9375 19.941406 C 8.824219 19.488281 8.90625 19 9.152344 18.601562 C 9.390625 18.199219 9.792969 17.90625 10.246094 17.800781 C 10.707031 17.691406 11.1875 17.765625 11.597656 18.011719 C 12.078125 18.304688 12.585938 18.5625 13.109375 18.785156 C 13.585938 19 14.085938 19.175781 14.601562 19.320312 C 15.054688 19.445312 15.523438 19.515625 16 19.523438 C 16.476562 19.515625 16.945312 19.445312 17.402344 19.320312 C 17.90625 19.175781 18.414062 19 18.898438 18.785156 C 19.421875 18.5625 19.925781 18.304688 20.40625 18.011719 Z M 20.40625 18.011719 "/></g></svg>
