<svg width="64" height="64" viewBox="0 0 64 64" version="1.1"><defs><linearGradient id="linear-pattern-0" gradientUnits="userSpaceOnUse" x1="0" y1="0" x2="0" y2="1" gradientTransform="matrix(60, 0, 0, 56, 0, 4)"><stop offset="0" stop-color="#0288cf" stop-opacity="1"/><stop offset="1" stop-color="#01486e" stop-opacity="1"/></linearGradient></defs><path fill="url(#linear-pattern-0)" fill-opacity="1" d="M 36.21875 2.050781 L 62.027344 27.605469 C 64.402344 29.957031 64.417969 33.785156 62.058594 36.15625 L 36.460938 61.917969 C 34.105469 64.289062 30.269531 64.304688 27.894531 61.949219 L 2.085938 36.394531 C -0.289062 34.042969 -0.304688 30.214844 2.050781 27.84375 L 27.652344 2.082031 C 30.007812 -0.289062 33.84375 -0.304688 36.21875 2.050781 Z M 36.21875 2.050781 " /><g transform="matrix(1.0075098,0,0,1.0032698,16.221436,16.077397)"><path fill-rule="nonzero" fill="rgb(100%, 100%, 100%)" fill-opacity="1" d="M 6.359375 0 L 9.902344 5.085938 L 12.8125 4.160156 L 21.140625 10.726562 L 18.710938 5.5 Z M 12.492188 4.945312 L 2.875 7.820312 L 19.75 10.671875 Z M 18.140625 11.132812 C 17.726562 11.140625 17.589844 11.28125 17.132812 11.726562 L 15.613281 13.4375 C 15.070312 14.125 14.847656 14.570312 15.023438 15.332031 L 16.234375 19.125 L 19.804688 20.601562 L 26.296875 12.625 L 18.671875 11.164062 C 18.449219 11.140625 18.28125 11.132812 18.140625 11.132812 Z M 27.015625 13.25 L 24.386719 16.34375 L 25.421875 20.65625 C 28.261719 19.960938 28.730469 17.570312 29.125 15.789062 Z M 14.359375 19.558594 C 14.234375 19.554688 14.113281 19.5625 14 19.574219 C 12.574219 19.53125 9.433594 23.039062 9.433594 23.039062 L 18.921875 24.265625 L 19.3125 21.699219 C 19.3125 21.699219 16.234375 19.617188 14.359375 19.558594 Z M 9.539062 24.359375 L 14.398438 30.804688 L 19.148438 25.179688 Z M 17.851562 27.882812 L 15.046875 31.078125 L 18.34375 32 L 24.34375 31.097656 Z M 17.851562 27.882812 "/></g></svg>
