<svg width="64" height="64" viewBox="0 0 64 64" version="1.1"><defs><linearGradient id="linear-pattern-0" gradientUnits="userSpaceOnUse" x1="0" y1="0" x2="0" y2="1" gradientTransform="matrix(60, 0, 0, 56, 0, 4)"><stop offset="0" stop-color="#3067ff" stop-opacity="1"/><stop offset="1" stop-color="#002ca6" stop-opacity="1"/></linearGradient></defs><path fill="url(#linear-pattern-0)" fill-opacity="1" d="M 36.21875 2.050781 L 62.027344 27.605469 C 64.402344 29.957031 64.417969 33.785156 62.058594 36.15625 L 36.460938 61.917969 C 34.105469 64.289062 30.269531 64.304688 27.894531 61.949219 L 2.085938 36.394531 C -0.289062 34.042969 -0.304688 30.214844 2.050781 27.84375 L 27.652344 2.082031 C 30.007812 -0.289062 33.84375 -0.304688 36.21875 2.050781 Z M 36.21875 2.050781 " /><g transform="matrix(1.0075098,0,0,1.0032698,16.221436,16.077397)"><path fill-rule="nonzero" fill="rgb(100%, 100%, 100%)" fill-opacity="1" d="M 16.40625 0.625 C 12.117188 0.679688 7.9375 2.578125 5.054688 5.992188 L 5.039062 5.992188 L 12.191406 14.4375 L 17.261719 0.585938 C 16.976562 0.570312 16.691406 0.570312 16.40625 0.570312 Z M 19.261719 1.273438 L 15.632812 11.816406 L 29.898438 9.378906 C 27.789062 5.253906 23.882812 2.214844 19.25 1.328125 Z M 3.488281 7.421875 C 1.027344 11.351562 0.382812 16.304688 1.953125 20.859375 L 12.703125 18.804688 L 3.445312 7.4375 Z M 1.953125 20.859375 L 1.945312 20.867188 L 1.953125 20.867188 Z M 30.382812 11.445312 C 30.382812 11.445312 30.382812 11.445312 30.382812 11.449219 L 30.390625 11.445312 Z M 30.382812 11.449219 L 19.632812 13.507812 L 28.886719 24.875 C 31.359375 20.949219 31.992188 16 30.421875 11.4375 Z M 20.136719 17.859375 L 15.0625 31.710938 C 19.65625 31.910156 24.203125 29.992188 27.320312 26.355469 L 27.335938 26.355469 L 20.171875 17.910156 Z M 16.710938 20.503906 L 2.445312 22.945312 C 4.5625 27.078125 8.472656 30.117188 13.09375 30.992188 L 16.730469 20.453125 Z M 16.710938 20.503906 "/></g></svg>
