<svg width="64" height="64" viewBox="0 0 64 64" version="1.1"><defs><linearGradient id="linear-pattern-0" gradientUnits="userSpaceOnUse" x1="0" y1="0" x2="0" y2="1" gradientTransform="matrix(60, 0, 0, 56, 0, 4)"><stop offset="0" stop-color="#ec7700" stop-opacity="1"/><stop offset="1" stop-color="#773c00" stop-opacity="1"/></linearGradient></defs><path fill="url(#linear-pattern-0)" fill-opacity="1" d="M 36.21875 2.050781 L 62.027344 27.605469 C 64.402344 29.957031 64.417969 33.785156 62.058594 36.15625 L 36.460938 61.917969 C 34.105469 64.289062 30.269531 64.304688 27.894531 61.949219 L 2.085938 36.394531 C -0.289062 34.042969 -0.304688 30.214844 2.050781 27.84375 L 27.652344 2.082031 C 30.007812 -0.289062 33.84375 -0.304688 36.21875 2.050781 Z M 36.21875 2.050781 " /><g transform="matrix(1.0075098,0,0,1.0032698,16.221436,16.077397)"><path fill-rule="nonzero" fill="rgb(100%, 100%, 100%)" fill-opacity="1" d="M 18.28125 0 C 18.28125 0 18.304688 0.75 18.183594 1.097656 C 18.125 1.261719 17.957031 1.367188 17.894531 1.53125 C 17.796875 1.789062 17.738281 2.070312 17.769531 2.339844 C 17.789062 2.492188 17.882812 2.632812 17.941406 2.777344 C 17.988281 2.894531 18.035156 3.019531 18.082031 3.125 L 18.175781 3.359375 L 18.378906 2.636719 C 18.410156 2.53125 18.445312 2.421875 18.472656 2.308594 C 18.472656 2.308594 18.714844 1.695312 18.738281 1.371094 C 18.757812 1.089844 18.71875 0.796875 18.621094 0.535156 C 18.546875 0.335938 18.28125 0 18.28125 0 Z M 16.386719 3.460938 C 16.046875 3.695312 15.726562 3.9375 15.429688 4.195312 L 15.429688 4.199219 C 15.429688 4.199219 14.613281 4.949219 14.277344 5.386719 C 13.789062 6.015625 13.375 6.710938 13.042969 7.433594 C 12.710938 8.148438 12.460938 8.914062 12.292969 9.683594 C 12.113281 10.492188 12.015625 11.320312 12.011719 12.148438 C 12.003906 13.359375 12.101562 14.621094 12.371094 15.769531 L 12.375 15.785156 C 12.632812 16.878906 12.679688 17.398438 13.167969 18.269531 C 18.710938 17.296875 22.382812 21.578125 21.144531 26.203125 C 20.492188 28.640625 18.476562 29.816406 16.546875 30.257812 C 13.828125 30.730469 11.539062 29.265625 10.984375 27.203125 C 10.875 26.523438 11.046875 25.609375 11.433594 25.378906 C 11.210938 25.457031 10.9375 25.546875 10.609375 25.855469 C 10.058594 26.375 10.046875 26.5625 9.324219 26.761719 C 9.675781 25.765625 7.742188 24.960938 8.089844 22.828125 C 8.097656 22.78125 8.003906 23.238281 8.011719 23.1875 C 7.160156 27.898438 11.980469 33.195312 17.332031 31.761719 C 20.957031 30.859375 23.117188 28.195312 23.832031 25.1875 C 24.242188 23.453125 24.117188 21.664062 23.742188 20.164062 C 23.4375 18.941406 22.8125 17.648438 21.875 16.464844 C 21.574219 16.085938 21.261719 15.734375 20.941406 15.414062 L 20.90625 15.378906 C 20.1875 14.65625 19.441406 14.0625 18.726562 13.496094 C 18.726562 13.496094 17.28125 12.3125 16.609375 11.664062 C 16.570312 11.625 16.53125 11.585938 16.492188 11.539062 C 16.257812 11.257812 16.039062 10.96875 15.835938 10.667969 C 15.78125 10.585938 15.726562 10.5 15.683594 10.410156 C 15.46875 9.945312 15.289062 9.460938 15.179688 8.964844 C 15.039062 8.3125 14.984375 7.640625 15 6.972656 C 15.015625 6.40625 15.09375 5.839844 15.246094 5.292969 C 15.523438 4.644531 15.976562 4.046875 16.386719 3.460938 Z M 17.988281 5.859375 C 17.804688 6.148438 17.671875 6.476562 17.511719 6.789062 C 17.367188 7.0625 17.203125 7.328125 17.085938 7.613281 C 16.828125 8.238281 16.679688 8.90625 16.472656 9.550781 C 16.445312 9.628906 16.390625 9.703125 16.398438 9.78125 C 16.472656 10.390625 16.984375 10.867188 17.359375 11.355469 C 17.503906 11.542969 17.851562 11.867188 17.851562 11.867188 C 17.910156 11.929688 17.96875 11.996094 18.03125 12.058594 C 18.03125 12.058594 17.914062 11.320312 17.859375 10.949219 C 17.855469 10.914062 17.851562 10.882812 17.847656 10.851562 C 17.757812 9.539062 17.695312 8.210938 17.804688 6.894531 C 17.835938 6.546875 17.988281 5.859375 17.988281 5.859375 Z M 8.535156 16.335938 C 8.535156 16.335938 8.753906 17.789062 8.597656 18.488281 C 8.523438 18.820312 8.226562 19.070312 8.140625 19.398438 C 8.007812 19.917969 7.96875 20.484375 8.089844 21.003906 C 8.160156 21.300781 8.382812 21.539062 8.527344 21.808594 C 8.5625 21.871094 8.59375 21.9375 8.625 22 C 8.800781 21.214844 9.371094 20.574219 9.597656 19.808594 C 9.6875 19.511719 9.757812 19.203125 9.742188 18.894531 C 9.714844 18.34375 9.574219 17.789062 9.324219 17.296875 C 9.132812 16.929688 8.535156 16.335938 8.535156 16.335938 Z M 14.917969 19.113281 C 11.835938 19.113281 9.339844 21.609375 9.339844 24.691406 C 9.34375 24.976562 9.367188 25.265625 9.410156 25.546875 C 9.472656 25.644531 9.539062 25.742188 9.59375 25.847656 C 9.640625 25.9375 9.660156 26.042969 9.691406 26.148438 C 9.710938 26.136719 9.75 26.125 9.769531 26.113281 C 9.890625 26.015625 10.046875 25.835938 10.335938 25.5625 C 10.714844 25.203125 11.0625 25.042969 11.296875 24.996094 C 11.8125 24.890625 11.949219 24.984375 12.394531 25.050781 C 12.03125 25.203125 11.921875 25.367188 11.640625 25.726562 C 11.632812 25.738281 11.476562 25.921875 11.410156 26.210938 C 11.34375 26.492188 11.34375 26.84375 11.382812 27.121094 C 11.886719 28.945312 13.945312 30.296875 16.476562 29.855469 C 17.011719 29.734375 17.546875 29.546875 18.050781 29.296875 C 19.578125 28.257812 20.492188 26.535156 20.492188 24.691406 C 20.492188 21.609375 18 19.113281 14.917969 19.113281 Z M 14.917969 19.113281 "/></g></svg>
