<svg width="64" height="64" viewBox="0 0 64 64" version="1.1"><defs><linearGradient id="linear-pattern-0" gradientUnits="userSpaceOnUse" x1="0" y1="0" x2="0" y2="1" gradientTransform="matrix(60, 0, 0, 56, 0, 4)"><stop offset="0" stop-color="#7795ab" stop-opacity="1"/><stop offset="1" stop-color="#3b4f5f" stop-opacity="1"/></linearGradient></defs><path fill="url(#linear-pattern-0)" fill-opacity="1" d="M 36.21875 2.050781 L 62.027344 27.605469 C 64.402344 29.957031 64.417969 33.785156 62.058594 36.15625 L 36.460938 61.917969 C 34.105469 64.289062 30.269531 64.304688 27.894531 61.949219 L 2.085938 36.394531 C -0.289062 34.042969 -0.304688 30.214844 2.050781 27.84375 L 27.652344 2.082031 C 30.007812 -0.289062 33.84375 -0.304688 36.21875 2.050781 Z M 36.21875 2.050781 " /><g transform="matrix(1.0075098,0,0,1.0032698,16.221436,16.077397)"><path fill-rule="nonzero" fill="rgb(100%, 100%, 100%)" fill-opacity="1" d="M 18.640625 29.96875 C 18.640625 29.46875 18.96875 29.066406 19.367188 29.066406 C 19.765625 29.066406 20.09375 29.46875 20.09375 29.96875 C 20.09375 30.46875 19.765625 30.875 19.367188 30.875 C 18.96875 30.875 18.640625 30.46875 18.640625 29.96875 Z M 18.640625 29.96875 "/><path fill-rule="nonzero" fill="rgb(100%, 100%, 100%)" fill-opacity="1" d="M 16.824219 29.066406 L 13.195312 29.066406 C 12.796875 29.066406 12.46875 29.46875 12.46875 29.96875 C 12.46875 30.46875 12.796875 30.875 13.195312 30.875 L 16.824219 30.875 C 17.226562 30.875 17.550781 30.46875 17.550781 29.96875 C 17.550781 29.46875 17.226562 29.066406 16.824219 29.066406 Z M 16.824219 29.066406 "/><path fill-rule="nonzero" fill="rgb(100%, 100%, 100%)" fill-opacity="1" d="M 22 2.828125 L 9.898438 2.828125 C 9.234375 2.828125 8.6875 3.503906 8.6875 4.335938 L 8.6875 19.414062 C 8.6875 20.25 9.234375 20.921875 9.898438 20.921875 L 22 20.921875 C 22.664062 20.921875 23.210938 20.25 23.210938 19.414062 L 23.210938 4.335938 C 23.210938 3.503906 22.664062 2.828125 22 2.828125 Z M 22 2.828125 "/><path fill-rule="nonzero" fill="rgb(100%, 100%, 100%)" fill-opacity="1" d="M 21.089844 5.84375 L 10.804688 5.84375 C 10.46875 5.84375 10.203125 6.179688 10.203125 6.597656 L 10.203125 17.152344 C 10.203125 17.570312 10.46875 17.90625 10.804688 17.90625 L 21.089844 17.90625 C 21.421875 17.90625 21.695312 17.570312 21.695312 17.152344 L 21.695312 6.597656 C 21.695312 6.179688 21.421875 5.84375 21.089844 5.84375 Z M 21.089844 5.84375 "/><path fill-rule="nonzero" fill="rgb(100%, 100%, 100%)" fill-opacity="1" d="M 25.929688 11.125 C 26.765625 11.125 27.445312 10.359375 27.445312 9.429688 C 27.445312 8.492188 26.765625 7.730469 25.929688 7.730469 C 25.09375 7.730469 24.414062 8.492188 24.414062 9.429688 C 24.414062 10.359375 25.09375 11.125 25.929688 11.125 Z M 29.5625 8.859375 C 30.394531 8.859375 31.070312 8.101562 31.070312 7.164062 C 31.070312 6.226562 30.394531 5.46875 29.5625 5.46875 C 28.722656 5.46875 28.046875 6.226562 28.046875 7.164062 C 28.046875 8.101562 28.722656 8.859375 29.5625 8.859375 Z M 29.5625 8.859375 "/><path fill-rule="nonzero" fill="rgb(100%, 100%, 100%)" fill-opacity="1" d="M 5.359375 7.539062 C 5.359375 6.8125 4.886719 6.21875 4.304688 6.21875 C 3.71875 6.21875 3.242188 6.8125 3.242188 7.539062 L 3.242188 12.441406 C 3.242188 13.171875 3.71875 13.757812 4.304688 13.757812 C 4.886719 13.757812 5.359375 13.171875 5.359375 12.441406 Z M 5.359375 7.539062 "/><path fill-rule="nonzero" fill="rgb(100%, 100%, 100%)" fill-opacity="1" d="M 6.570312 8.859375 L 2.035156 8.859375 C 1.53125 8.859375 1.125 9.367188 1.125 9.992188 C 1.125 10.613281 1.53125 11.125 2.035156 11.125 L 6.570312 11.125 C 7.070312 11.125 7.476562 10.613281 7.476562 9.992188 C 7.476562 9.367188 7.070312 8.859375 6.570312 8.859375 Z M 6.570312 8.859375 "/><path fill-rule="nonzero" fill="rgb(100%, 100%, 100%)" fill-opacity="1" d="M 29.859375 14.890625 L 25.628906 14.890625 C 25.460938 14.890625 25.324219 15.0625 25.324219 15.265625 C 25.324219 15.476562 25.460938 15.648438 25.628906 15.648438 L 29.859375 15.648438 C 30.027344 15.648438 30.164062 15.476562 30.164062 15.265625 C 30.164062 15.0625 30.027344 14.890625 29.859375 14.890625 Z M 29.859375 16.773438 L 25.628906 16.773438 C 25.460938 16.773438 25.324219 16.945312 25.324219 17.152344 C 25.324219 17.359375 25.460938 17.53125 25.628906 17.53125 L 29.859375 17.53125 C 30.027344 17.53125 30.164062 17.359375 30.164062 17.152344 C 30.164062 16.945312 30.027344 16.773438 29.859375 16.773438 Z M 29.859375 18.660156 L 25.628906 18.660156 C 25.460938 18.660156 25.324219 18.832031 25.324219 19.039062 C 25.324219 19.25 25.460938 19.414062 25.628906 19.414062 L 29.859375 19.414062 C 30.027344 19.414062 30.164062 19.25 30.164062 19.039062 C 30.164062 18.832031 30.027344 18.660156 29.859375 18.660156 Z M 29.859375 18.660156 "/><path fill-rule="nonzero" fill="rgb(100%, 100%, 100%)" fill-opacity="1" d="M 3.242188 16.773438 L 2.035156 16.773438 C 1.699219 16.773438 1.429688 17.109375 1.429688 17.53125 C 1.429688 17.945312 1.699219 18.28125 2.035156 18.28125 L 3.242188 18.28125 C 3.578125 18.28125 3.847656 17.945312 3.847656 17.53125 C 3.847656 17.109375 3.578125 16.773438 3.242188 16.773438 Z M 6.570312 16.773438 L 5.359375 16.773438 C 5.027344 16.773438 4.757812 17.109375 4.757812 17.53125 C 4.757812 17.945312 5.027344 18.28125 5.359375 18.28125 L 6.570312 18.28125 C 6.90625 18.28125 7.171875 17.945312 7.171875 17.53125 C 7.171875 17.109375 6.90625 16.773438 6.570312 16.773438 Z M 6.570312 16.773438 "/></g></svg>
