<svg width="64" height="64" viewBox="0 0 64 64" version="1.1"><defs><linearGradient id="linear-pattern-0" gradientUnits="userSpaceOnUse" x1="0" y1="0" x2="0" y2="1" gradientTransform="matrix(60, 0, 0, 56, 0, 4)"><stop offset="0" stop-color="#a67e50" stop-opacity="1"/><stop offset="1" stop-color="#644c30" stop-opacity="1"/></linearGradient></defs><path fill="url(#linear-pattern-0)" fill-opacity="1" d="M 36.21875 2.050781 L 62.027344 27.605469 C 64.402344 29.957031 64.417969 33.785156 62.058594 36.15625 L 36.460938 61.917969 C 34.105469 64.289062 30.269531 64.304688 27.894531 61.949219 L 2.085938 36.394531 C -0.289062 34.042969 -0.304688 30.214844 2.050781 27.84375 L 27.652344 2.082031 C 30.007812 -0.289062 33.84375 -0.304688 36.21875 2.050781 Z M 36.21875 2.050781 " /><g transform="matrix(1.0075098,0,0,1.0032698,16.221436,16.077397)"><path fill-rule="evenodd" fill="rgb(100%, 100%, 100%)" fill-opacity="1" d="M 7.585938 30.007812 C 3.4375 27.539062 3.265625 27.386719 3.492188 26.445312 C 3.71875 25.511719 7.101562 22.195312 8.761719 21.28125 L 10.054688 20.570312 L 11.234375 21.546875 C 12.71875 22.769531 14.082031 23.28125 15.90625 23.296875 C 17.738281 23.3125 18.90625 22.894531 20.613281 21.605469 L 21.984375 20.570312 L 23.28125 21.277344 C 23.992188 21.664062 25.5 22.921875 26.636719 24.070312 C 29.476562 26.953125 29.472656 26.972656 24.71875 29.820312 C 23.398438 30.609375 22.164062 31.3125 21.398438 31.71875 C 20.554688 32.265625 20.453125 31.878906 19.976562 31.296875 C 19.265625 30.578125 17.960938 29.714844 16 29.714844 C 13.863281 29.714844 12.574219 30.757812 11.96875 31.484375 C 11.53125 32.273438 11.273438 31.992188 10.679688 31.726562 C 9.921875 31.351562 8.78125 30.71875 7.585938 30.007812 Z M 0.207031 21.515625 C 0.09375 21.398438 0 19.257812 0 16.757812 L 0 12.21875 L 1.464844 11.570312 C 3.960938 10.460938 5.058594 8.667969 4.695312 6.015625 C 4.609375 5.375 4.628906 4.703125 4.738281 4.523438 C 5 4.101562 12.105469 0 12.585938 0 C 12.78125 0 13.066406 0.15625 13.214844 0.347656 C 14.15625 1.570312 15.117188 6.195312 14.792969 7.9375 C 14.648438 8.71875 14.421875 8.929688 13.167969 9.4375 C 11.40625 10.15625 9.921875 11.621094 9.125 13.4375 C 8.648438 14.523438 8.550781 15.199219 8.625 16.898438 L 8.722656 19.007812 L 7.796875 19.632812 C 5.804688 20.984375 0.875 22.203125 0.207031 21.515625 Z M 31.792969 21.515625 C 31.90625 21.398438 32 19.257812 32 16.757812 L 32 12.21875 L 30.535156 11.570312 C 28.039062 10.460938 27.019531 8.667969 27.382812 6.015625 C 27.46875 5.375 27.453125 4.703125 27.339844 4.523438 C 27.078125 4.101562 19.894531 0 19.414062 0 C 19.21875 0 18.933594 0.15625 18.785156 0.347656 C 17.84375 1.570312 16.882812 6.195312 17.207031 7.9375 C 17.351562 8.71875 17.578125 8.929688 18.832031 9.4375 C 20.59375 10.15625 22.078125 11.621094 22.875 13.4375 C 23.351562 14.523438 23.449219 15.199219 23.375 16.898438 L 23.277344 19.007812 L 24.203125 19.632812 C 26.195312 20.984375 31.125 22.203125 31.792969 21.515625 Z M 31.792969 21.515625 "/></g></svg>
