<svg width="64" height="64" viewBox="0 0 64 64" version="1.1"><defs><linearGradient id="linear-pattern-0" gradientUnits="userSpaceOnUse" x1="0" y1="0" x2="0" y2="1" gradientTransform="matrix(60, 0, 0, 56, 0, 4)"><stop offset="0" stop-color="#d00068" stop-opacity="1"/><stop offset="1" stop-color="#6e0037" stop-opacity="1"/></linearGradient></defs><path fill="url(#linear-pattern-0)" fill-opacity="1" d="M 36.21875 2.050781 L 62.027344 27.605469 C 64.402344 29.957031 64.417969 33.785156 62.058594 36.15625 L 36.460938 61.917969 C 34.105469 64.289062 30.269531 64.304688 27.894531 61.949219 L 2.085938 36.394531 C -0.289062 34.042969 -0.304688 30.214844 2.050781 27.84375 L 27.652344 2.082031 C 30.007812 -0.289062 33.84375 -0.304688 36.21875 2.050781 Z M 36.21875 2.050781 " /><g transform="matrix(1.0075098,0,0,1.0032698,16.221436,16.077397)"><path fill-rule="nonzero" fill="rgb(100%, 100%, 100%)" fill-opacity="1" d="M 23.601562 0.535156 C 23.601562 0.535156 22.09375 2.507812 20.257812 3.375 C 18.417969 4.234375 12.8125 6.078125 11.148438 7.0625 C 9.5625 7.996094 8.273438 9.128906 7.800781 10.046875 L 7.800781 13.152344 C 7.875 13.253906 7.972656 13.351562 8.054688 13.457031 C 9.144531 14.8125 12.0625 15.863281 12.0625 15.863281 C 12.0625 15.863281 8.601562 17.304688 7.800781 18.6875 L 7.800781 22.042969 C 8.210938 22.5 9.078125 23.410156 9.8125 23.863281 C 10.628906 24.363281 11.304688 24.679688 11.582031 24.804688 C 10.710938 25.164062 9.867188 25.535156 9.296875 25.832031 C 8.132812 26.449219 7.800781 27.125 7.800781 27.125 L 7.878906 31.617188 C 7.878906 31.617188 9.386719 29.640625 11.222656 28.78125 C 13.0625 27.921875 18.664062 26.078125 20.332031 25.09375 C 21.917969 24.15625 23.203125 23.023438 23.679688 22.109375 L 23.679688 19 C 23.601562 18.898438 23.507812 18.804688 23.421875 18.695312 C 22.335938 17.34375 19.414062 16.289062 19.414062 16.289062 C 19.414062 16.289062 22.875 14.855469 23.679688 13.476562 L 23.679688 10.109375 C 23.265625 9.65625 22.402344 8.742188 21.664062 8.289062 C 20.851562 7.789062 20.171875 7.476562 19.898438 7.351562 C 20.765625 6.992188 21.609375 6.617188 22.179688 6.320312 C 23.347656 5.703125 23.679688 5.027344 23.679688 5.027344 Z M 15.625 9.007812 C 16.390625 9.246094 17.21875 9.53125 17.738281 9.773438 C 18.90625 10.328125 20 11.003906 20.332031 11.25 C 20.664062 11.492188 20.664062 11.621094 20.332031 11.867188 C 20.050781 12.078125 17.421875 13.414062 15.921875 14.140625 C 15.859375 14.117188 15.8125 14.09375 15.746094 14.074219 C 14.65625 13.707031 13.070312 12.902344 12.230469 12.414062 C 11.394531 11.917969 10.894531 11.671875 10.808594 11.488281 C 10.726562 11.300781 11.226562 10.8125 11.726562 10.566406 C 12.078125 10.390625 14.023438 9.625 15.625 9.007812 Z M 15.554688 18.015625 C 15.617188 18.035156 15.667969 18.054688 15.734375 18.078125 C 16.820312 18.445312 18.414062 19.25 19.25 19.742188 C 20.085938 20.234375 20.585938 20.480469 20.671875 20.664062 C 20.753906 20.851562 20.25 21.34375 19.75 21.585938 C 19.398438 21.761719 17.457031 22.53125 15.855469 23.148438 C 15.09375 22.90625 14.261719 22.625 13.742188 22.378906 C 12.570312 21.828125 11.476562 21.148438 11.148438 20.90625 C 10.8125 20.660156 10.8125 20.53125 11.148438 20.289062 C 11.429688 20.078125 14.054688 18.738281 15.554688 18.015625 Z M 15.554688 18.015625 "/></g></svg>
