<svg width="64" height="64" viewBox="0 0 64 64" version="1.1"><defs><linearGradient id="linear-pattern-0" gradientUnits="userSpaceOnUse" x1="0" y1="0" x2="0" y2="1" gradientTransform="matrix(60, 0, 0, 56, 0, 4)"><stop offset="0" stop-color="#d00068" stop-opacity="1"/><stop offset="1" stop-color="#6e0037" stop-opacity="1"/></linearGradient></defs><path fill="url(#linear-pattern-0)" fill-opacity="1" d="M 36.21875 2.050781 L 62.027344 27.605469 C 64.402344 29.957031 64.417969 33.785156 62.058594 36.15625 L 36.460938 61.917969 C 34.105469 64.289062 30.269531 64.304688 27.894531 61.949219 L 2.085938 36.394531 C -0.289062 34.042969 -0.304688 30.214844 2.050781 27.84375 L 27.652344 2.082031 C 30.007812 -0.289062 33.84375 -0.304688 36.21875 2.050781 Z M 36.21875 2.050781 " /><g transform="matrix(1.0075098,0,0,1.0032698,16.221436,16.077397)"><path fill-rule="nonzero" fill="rgb(100%, 100%, 100%)" fill-opacity="1" d="M 7.984375 0.683594 C 6.957031 0.683594 6.125 1.476562 6.125 2.464844 C 6.125 3.453125 6.957031 4.246094 7.984375 4.246094 L 24.085938 4.246094 C 25.117188 4.246094 25.945312 3.453125 25.945312 2.464844 C 25.945312 1.476562 25.117188 0.683594 24.085938 0.683594 Z M 16.035156 7.808594 C 9.195312 7.808594 3.648438 13.125 3.648438 19.679688 C 3.648438 26.238281 9.195312 31.554688 16.035156 31.554688 C 22.875 31.554688 28.421875 26.238281 28.421875 19.679688 C 28.421875 13.125 22.875 7.808594 16.035156 7.808594 Z M 16.035156 12.554688 C 20.140625 12.554688 23.46875 15.75 23.46875 19.679688 C 23.46875 23.617188 20.140625 26.804688 16.035156 26.804688 C 11.929688 26.804688 8.605469 23.617188 8.605469 19.679688 C 8.605469 15.75 11.929688 12.554688 16.035156 12.554688 Z M 16.035156 12.554688 "/></g></svg>
