<svg width="64" height="64" viewBox="0 0 64 64" version="1.1"><defs><linearGradient id="linear-pattern-0" gradientUnits="userSpaceOnUse" x1="0" y1="0" x2="0" y2="1" gradientTransform="matrix(60, 0, 0, 56, 0, 4)"><stop offset="0" stop-color="#6926fc" stop-opacity="1"/><stop offset="1" stop-color="#3702ab" stop-opacity="1"/></linearGradient></defs><path fill="url(#linear-pattern-0)" fill-opacity="1" d="M 36.21875 2.050781 L 62.027344 27.605469 C 64.402344 29.957031 64.417969 33.785156 62.058594 36.15625 L 36.460938 61.917969 C 34.105469 64.289062 30.269531 64.304688 27.894531 61.949219 L 2.085938 36.394531 C -0.289062 34.042969 -0.304688 30.214844 2.050781 27.84375 L 27.652344 2.082031 C 30.007812 -0.289062 33.84375 -0.304688 36.21875 2.050781 Z M 36.21875 2.050781 " /><g transform="matrix(1.0075098,0,0,1.0032698,16.221436,16.077397)"><path fill-rule="nonzero" fill="rgb(100%, 100%, 100%)" fill-opacity="1" d="M 11.875 0.828125 C 11.765625 0.828125 11.667969 0.835938 11.5625 0.84375 C 10.917969 0.917969 10.25 0.914062 9.59375 1.003906 C 8.34375 1.167969 7.148438 1.5 5.976562 1.898438 C 5.554688 2.046875 5.132812 2.195312 4.71875 2.367188 C 4.566406 2.429688 4.335938 2.492188 4.210938 2.589844 C 4.144531 2.640625 4.15625 2.773438 4.144531 2.839844 C 4.125 3.039062 4.09375 3.230469 4.070312 3.429688 C 3.984375 4.203125 3.917969 4.996094 4.046875 5.765625 C 4.089844 6.015625 4.179688 6.464844 4.53125 6.507812 C 5.085938 6.585938 5.523438 6.011719 5.792969 5.6875 C 6.421875 4.945312 7.136719 4.253906 8.175781 3.921875 C 9.398438 3.53125 10.796875 3.429688 12.085938 3.359375 C 15.710938 3.148438 19.65625 3.707031 22.328125 5.976562 C 22.703125 6.296875 23.070312 6.640625 23.375 7.019531 C 24.570312 8.492188 25.195312 10.171875 25.5 11.929688 C 25.644531 12.757812 25.742188 13.585938 25.523438 14.410156 C 25.136719 15.839844 24.132812 17.082031 22.976562 18.140625 C 22.183594 18.863281 21.292969 19.519531 20.367188 20.117188 C 19.851562 20.445312 19.269531 20.730469 18.78125 21.09375 C 18.226562 21.507812 17.75 22.03125 17.398438 22.585938 C 16.441406 24.089844 16.195312 25.894531 16.476562 27.570312 C 16.53125 27.914062 16.578125 28.257812 16.667969 28.59375 C 16.699219 28.695312 16.703125 28.871094 16.78125 28.957031 C 16.921875 29.109375 17.320312 29.195312 17.535156 29.203125 C 17.765625 29.210938 17.925781 29.0625 17.984375 28.890625 C 18.078125 28.585938 18.015625 28.257812 17.960938 27.960938 C 17.84375 27.335938 17.742188 26.710938 17.773438 26.082031 C 17.835938 24.925781 18.359375 23.84375 19.304688 23.003906 C 20.261719 22.148438 21.558594 21.65625 22.652344 20.9375 C 24.851562 19.492188 26.828125 17.539062 27.578125 15.222656 C 27.851562 14.394531 27.945312 13.523438 27.820312 12.664062 C 27.664062 11.585938 27.195312 10.507812 26.757812 9.492188 C 25.429688 6.394531 23.144531 3.445312 19.519531 2.027344 C 18.078125 1.46875 16.582031 1.207031 15.023438 1.023438 C 14.289062 0.933594 13.558594 0.882812 12.824219 0.859375 C 12.515625 0.84375 12.1875 0.820312 11.875 0.828125 Z M 10.050781 13.695312 C 9.722656 13.703125 9.402344 13.785156 9.117188 13.929688 C 8.660156 14.171875 8.394531 14.585938 8.25 15.011719 C 7.96875 15.859375 8.09375 16.828125 8.296875 17.679688 C 8.359375 17.949219 8.433594 18.222656 8.523438 18.492188 C 8.554688 18.585938 8.570312 18.734375 8.640625 18.8125 C 8.773438 18.953125 9.078125 18.988281 9.269531 18.960938 C 9.84375 18.878906 9.710938 18.070312 9.691406 17.722656 C 9.648438 16.917969 9.367188 16.140625 9.640625 15.335938 C 9.75 14.992188 9.972656 14.613281 10.375 14.46875 C 10.738281 14.332031 11.109375 14.492188 11.253906 14.796875 C 11.484375 15.289062 11.421875 15.847656 11.5625 16.359375 C 11.617188 16.53125 11.671875 16.703125 11.761719 16.867188 C 11.789062 16.914062 11.828125 17.007812 11.902344 17.007812 C 12.089844 16.992188 12.355469 16.726562 12.5 16.625 C 12.953125 16.304688 13.421875 15.96875 13.941406 15.730469 C 14.1875 15.617188 14.585938 15.441406 14.835938 15.628906 C 14.90625 15.679688 14.957031 15.734375 15 15.792969 C 15.296875 16.1875 15 16.492188 14.808594 16.867188 C 14.5625 17.351562 14.3125 17.828125 13.953125 18.257812 C 13.640625 18.632812 13.222656 18.960938 12.976562 19.367188 C 12.820312 19.628906 12.726562 19.910156 12.789062 20.203125 C 12.84375 20.445312 13.054688 20.59375 13.34375 20.539062 C 13.558594 20.5 13.699219 20.34375 13.820312 20.195312 C 14.039062 19.9375 14.242188 19.671875 14.460938 19.414062 C 14.875 18.914062 15.375 18.445312 15.726562 17.90625 C 16.152344 17.257812 16.359375 16.535156 16.359375 15.792969 C 16.359375 15.195312 16.09375 14.273438 15.273438 14.144531 C 15.117188 14.117188 14.9375 14.132812 14.785156 14.152344 C 14.59375 14.179688 14.398438 14.238281 14.222656 14.3125 C 13.75 14.5 13.355469 14.792969 13.007812 15.125 C 12.789062 15.328125 12.59375 15.578125 12.335938 15.75 C 12.335938 15.304688 12.242188 14.820312 11.933594 14.449219 C 11.515625 13.933594 10.773438 13.65625 10.050781 13.695312 Z M 6.128906 20.898438 C 6.054688 20.894531 5.976562 20.898438 5.890625 20.90625 C 5.183594 20.992188 4.976562 21.480469 5.109375 22.023438 C 5.277344 22.71875 5.921875 23.25 6.5625 23.667969 C 8.195312 24.742188 10.304688 25.320312 12.355469 25.242188 C 13.160156 25.21875 14.023438 25.101562 14.765625 24.8125 C 15.15625 24.65625 15.570312 24.09375 15.035156 23.851562 C 14.960938 23.820312 14.867188 23.796875 14.785156 23.789062 C 14.550781 23.757812 14.289062 23.84375 14.070312 23.898438 C 13.675781 23.992188 13.28125 24.09375 12.878906 24.148438 C 11.671875 24.3125 10.367188 24.074219 9.367188 23.464844 C 8.5625 22.96875 7.90625 22.320312 7.289062 21.664062 C 6.960938 21.3125 6.65625 20.933594 6.128906 20.898438 Z M 5.273438 24.296875 C 5.164062 24.296875 5.054688 24.304688 4.96875 24.3125 C 4.789062 24.335938 4.59375 24.328125 4.4375 24.421875 C 4.117188 24.625 4.464844 25.023438 4.632812 25.210938 C 5.125 25.738281 5.765625 26.179688 6.410156 26.5625 C 8.203125 27.648438 10.234375 28.273438 12.421875 28.402344 C 13.054688 28.4375 13.695312 28.398438 14.320312 28.308594 C 14.546875 28.277344 14.824219 28.265625 15.035156 28.179688 C 15.625 27.945312 15.453125 26.988281 14.925781 26.777344 C 14.695312 26.6875 14.324219 26.804688 14.078125 26.832031 C 13.507812 26.898438 12.9375 26.90625 12.355469 26.898438 C 10.84375 26.867188 9.226562 26.46875 7.90625 25.84375 C 7.390625 25.601562 6.90625 25.292969 6.464844 24.960938 C 6.191406 24.757812 5.917969 24.421875 5.5625 24.320312 C 5.484375 24.296875 5.378906 24.292969 5.273438 24.296875 Z M 5.335938 27.183594 C 5.078125 27.207031 4.886719 27.320312 4.71875 27.480469 C 4.601562 27.589844 4.492188 27.6875 4.429688 27.828125 C 4.0625 28.601562 5.03125 29.335938 5.703125 29.703125 C 6.457031 30.109375 7.285156 30.410156 8.121094 30.664062 C 10.011719 31.234375 12.226562 31.609375 14.1875 31.09375 C 14.773438 30.945312 15.351562 30.65625 15.773438 30.28125 C 16.007812 30.070312 16.175781 29.753906 15.738281 29.617188 C 15.476562 29.539062 15.15625 29.742188 14.925781 29.820312 C 14.371094 30.015625 13.796875 30.15625 13.203125 30.21875 C 12.414062 30.296875 11.707031 30.148438 10.949219 29.988281 C 10.304688 29.851562 9.648438 29.71875 9.023438 29.519531 C 8.488281 29.347656 7.960938 29.144531 7.492188 28.863281 C 7.351562 28.78125 7.1875 28.703125 7.070312 28.59375 C 6.695312 28.238281 6.421875 27.820312 6.019531 27.480469 C 5.84375 27.335938 5.601562 27.15625 5.335938 27.183594 Z M 5.335938 27.183594 "/></g></svg>
