<svg width="64" height="64" viewBox="0 0 64 64" version="1.1"><defs><linearGradient id="linear-pattern-0" gradientUnits="userSpaceOnUse" x1="0" y1="0" x2="0" y2="1" gradientTransform="matrix(60, 0, 0, 56, 0, 4)"><stop offset="0" stop-color="#00a07f" stop-opacity="1"/><stop offset="1" stop-color="#005241" stop-opacity="1"/></linearGradient></defs><path fill="url(#linear-pattern-0)" fill-opacity="1" d="M 36.21875 2.050781 L 62.027344 27.605469 C 64.402344 29.957031 64.417969 33.785156 62.058594 36.15625 L 36.460938 61.917969 C 34.105469 64.289062 30.269531 64.304688 27.894531 61.949219 L 2.085938 36.394531 C -0.289062 34.042969 -0.304688 30.214844 2.050781 27.84375 L 27.652344 2.082031 C 30.007812 -0.289062 33.84375 -0.304688 36.21875 2.050781 Z M 36.21875 2.050781 " /><g transform="matrix(1.0075098,0,0,1.0032698,16.221436,16.077397)"><path fill-rule="evenodd" fill="rgb(100%, 100%, 100%)" fill-opacity="1" d="M 29.109375 22.285156 C 29.132812 22.285156 29.15625 22.285156 29.175781 22.285156 C 29.425781 22.285156 29.664062 22.382812 29.84375 22.546875 C 30.015625 22.710938 30.117188 22.933594 30.117188 23.171875 C 30.117188 23.40625 30.015625 23.628906 29.84375 23.796875 C 29.664062 23.957031 29.425781 24.054688 29.175781 24.054688 C 28.65625 24.054688 28.234375 23.65625 28.234375 23.171875 C 28.234375 22.703125 28.617188 22.320312 29.109375 22.285156 Z M 2.757812 22.285156 C 2.78125 22.285156 2.804688 22.285156 2.824219 22.285156 C 3.074219 22.285156 3.3125 22.382812 3.492188 22.546875 C 3.664062 22.710938 3.765625 22.933594 3.765625 23.171875 C 3.765625 23.40625 3.664062 23.628906 3.492188 23.796875 C 3.3125 23.957031 3.074219 24.054688 2.824219 24.054688 C 2.574219 24.054688 2.335938 23.957031 2.15625 23.796875 C 1.984375 23.628906 1.882812 23.40625 1.882812 23.171875 C 1.882812 22.703125 2.265625 22.320312 2.757812 22.285156 Z M 3.953125 12.695312 C 3.582031 12.800781 3.191406 12.851562 2.796875 12.855469 C 2.5625 12.855469 2.328125 12.835938 2.09375 12.796875 L 2.09375 19.570312 C 2.328125 19.527344 2.5625 19.507812 2.796875 19.507812 C 3.191406 19.507812 3.582031 19.5625 3.953125 19.671875 Z M 28.054688 12.710938 L 28.054688 19.652344 C 28.414062 19.554688 28.78125 19.507812 29.152344 19.507812 C 29.46875 19.507812 29.78125 19.546875 30.085938 19.617188 L 30.085938 12.75 C 29.78125 12.820312 29.46875 12.851562 29.152344 12.851562 C 28.78125 12.851562 28.414062 12.804688 28.054688 12.710938 Z M 6.710938 24.007812 C 6.585938 24.578125 6.320312 25.109375 5.933594 25.566406 L 12.054688 28.882812 C 12.117188 28.296875 12.328125 27.734375 12.664062 27.238281 Z M 25.25 24.039062 L 19.382812 27.21875 C 19.742188 27.734375 19.953125 28.328125 20.007812 28.945312 L 26.089844 25.648438 C 25.675781 25.1875 25.390625 24.632812 25.25 24.042969 Z M 12.03125 2.945312 L 5.589844 6.433594 C 6.070312 6.875 6.421875 7.421875 6.617188 8.027344 L 12.609375 4.78125 C 12.25 4.226562 12.054688 3.59375 12.03125 2.945312 Z M 20.042969 2.886719 C 20.027344 3.5625 19.820312 4.226562 19.441406 4.800781 L 25.339844 7.996094 C 25.550781 7.367188 25.929688 6.804688 26.449219 6.359375 Z M 15.882812 1.765625 C 15.90625 1.765625 15.929688 1.765625 15.949219 1.765625 C 16.199219 1.765625 16.4375 1.859375 16.613281 2.023438 C 16.792969 2.1875 16.890625 2.414062 16.890625 2.648438 C 16.890625 2.882812 16.792969 3.105469 16.613281 3.273438 C 16.4375 3.4375 16.199219 3.53125 15.949219 3.53125 C 15.699219 3.53125 15.460938 3.4375 15.28125 3.273438 C 15.109375 3.105469 15.007812 2.882812 15.007812 2.648438 C 15.007812 2.183594 15.390625 1.796875 15.882812 1.765625 Z M 29.109375 8.144531 C 29.132812 8.140625 29.15625 8.140625 29.175781 8.144531 C 29.425781 8.144531 29.664062 8.234375 29.84375 8.402344 C 30.015625 8.570312 30.117188 8.792969 30.117188 9.023438 C 30.117188 9.257812 30.015625 9.484375 29.84375 9.648438 C 29.664062 9.816406 29.425781 9.910156 29.175781 9.910156 C 28.65625 9.910156 28.234375 9.515625 28.234375 9.023438 C 28.234375 8.5625 28.617188 8.175781 29.109375 8.144531 Z M 2.757812 8.144531 C 2.78125 8.140625 2.804688 8.140625 2.824219 8.144531 C 3.074219 8.144531 3.3125 8.234375 3.492188 8.402344 C 3.664062 8.570312 3.765625 8.792969 3.765625 9.023438 C 3.765625 9.257812 3.664062 9.484375 3.492188 9.648438 C 3.3125 9.816406 3.074219 9.910156 2.824219 9.910156 C 2.574219 9.910156 2.335938 9.816406 2.15625 9.648438 C 1.984375 9.484375 1.882812 9.257812 1.882812 9.023438 C 1.882812 8.5625 2.265625 8.175781 2.757812 8.144531 Z M 15.882812 28.46875 C 15.90625 28.46875 15.929688 28.46875 15.949219 28.46875 C 16.199219 28.46875 16.4375 28.5625 16.613281 28.726562 C 16.792969 28.894531 16.890625 29.117188 16.890625 29.351562 C 16.890625 29.585938 16.792969 29.8125 16.613281 29.976562 C 16.4375 30.140625 16.199219 30.234375 15.949219 30.234375 C 15.699219 30.234375 15.460938 30.140625 15.28125 29.976562 C 15.109375 29.8125 15.007812 29.585938 15.007812 29.351562 C 15.007812 28.890625 15.390625 28.5 15.882812 28.46875 Z M 5.859375 11.519531 C 5.445312 11.976562 4.921875 12.335938 4.328125 12.566406 L 13.0625 26.75 C 13.484375 26.304688 14.015625 25.964844 14.613281 25.75 Z M 29.175781 20.519531 C 27.617188 20.519531 26.351562 21.703125 26.351562 23.171875 C 26.351562 24.632812 27.617188 25.820312 29.175781 25.820312 C 29.925781 25.820312 30.644531 25.539062 31.171875 25.042969 C 31.703125 24.546875 32 23.871094 32 23.171875 C 32 22.46875 31.703125 21.796875 31.171875 21.296875 C 30.644531 20.800781 29.925781 20.519531 29.175781 20.519531 Z M 2.824219 20.519531 C 1.265625 20.519531 0 21.703125 0 23.171875 C 0 24.632812 1.265625 25.820312 2.824219 25.820312 C 3.570312 25.820312 4.289062 25.539062 4.820312 25.042969 C 5.351562 24.546875 5.648438 23.871094 5.648438 23.171875 C 5.648438 22.46875 5.351562 21.796875 4.820312 21.296875 C 4.289062 20.800781 3.570312 20.519531 2.824219 20.519531 Z M 15.949219 0 C 14.390625 0 13.125 1.1875 13.125 2.648438 C 13.125 4.109375 14.390625 5.296875 15.949219 5.296875 C 16.695312 5.296875 17.414062 5.015625 17.945312 4.519531 C 18.476562 4.023438 18.773438 3.351562 18.773438 2.648438 C 18.773438 1.945312 18.476562 1.273438 17.945312 0.773438 C 17.414062 0.28125 16.695312 0 15.949219 0 Z M 2.824219 6.378906 C 1.265625 6.378906 0 7.5625 0 9.023438 C 0 9.726562 0.296875 10.402344 0.828125 10.898438 C 1.355469 11.398438 2.074219 11.671875 2.824219 11.671875 C 3.570312 11.671875 4.289062 11.398438 4.820312 10.898438 C 5.351562 10.402344 5.648438 9.726562 5.648438 9.023438 C 5.648438 8.324219 5.351562 7.648438 4.820312 7.15625 C 4.289062 6.65625 3.570312 6.378906 2.824219 6.378906 Z M 29.175781 6.378906 C 27.617188 6.378906 26.351562 7.5625 26.351562 9.023438 C 26.351562 9.726562 26.648438 10.402344 27.179688 10.898438 C 27.710938 11.398438 28.429688 11.671875 29.175781 11.671875 C 29.925781 11.671875 30.644531 11.398438 31.171875 10.898438 C 31.703125 10.402344 32 9.726562 32 9.023438 C 32 8.324219 31.703125 7.648438 31.171875 7.15625 C 30.644531 6.65625 29.925781 6.378906 29.175781 6.378906 Z M 15.949219 26.703125 C 15.199219 26.703125 14.484375 26.984375 13.953125 27.480469 C 13.421875 27.976562 13.125 28.648438 13.125 29.351562 C 13.125 30.8125 14.390625 32 15.949219 32 C 16.695312 32 17.414062 31.71875 17.945312 31.226562 C 18.476562 30.726562 18.773438 30.054688 18.773438 29.351562 C 18.773438 28.648438 18.476562 27.976562 17.945312 27.480469 C 17.414062 26.984375 16.695312 26.703125 15.949219 26.703125 Z M 26.15625 11.585938 L 17.4375 25.757812 C 18.035156 25.96875 18.570312 26.3125 19 26.757812 L 27.710938 12.59375 C 27.113281 12.382812 26.582031 12.03125 26.15625 11.585938 Z M 26.15625 11.585938 "/></g></svg>
