<svg width="64" height="64" viewBox="0 0 64 64" version="1.1"><defs><linearGradient id="linear-pattern-0" gradientUnits="userSpaceOnUse" x1="0" y1="0" x2="0" y2="1" gradientTransform="matrix(60, 0, 0, 56, 0, 4)"><stop offset="0" stop-color="#0288cf" stop-opacity="1"/><stop offset="1" stop-color="#01486e" stop-opacity="1"/></linearGradient></defs><path fill="url(#linear-pattern-0)" fill-opacity="1" d="M 36.21875 2.050781 L 62.027344 27.605469 C 64.402344 29.957031 64.417969 33.785156 62.058594 36.15625 L 36.460938 61.917969 C 34.105469 64.289062 30.269531 64.304688 27.894531 61.949219 L 2.085938 36.394531 C -0.289062 34.042969 -0.304688 30.214844 2.050781 27.84375 L 27.652344 2.082031 C 30.007812 -0.289062 33.84375 -0.304688 36.21875 2.050781 Z M 36.21875 2.050781 " /><g transform="matrix(1.0075098,0,0,1.0032698,16.221436,16.077397)"><path fill-rule="nonzero" fill="rgb(100%, 100%, 100%)" fill-opacity="1" d="M 16.09375 0.554688 C 15.914062 0.5625 15.738281 0.617188 15.585938 0.710938 L 3.0625 8.457031 C 2.757812 8.648438 2.570312 8.976562 2.570312 9.335938 L 2.570312 22.761719 C 2.570312 23.117188 2.757812 23.449219 3.0625 23.636719 L 15.585938 31.382812 C 15.921875 31.59375 16.351562 31.59375 16.6875 31.382812 L 29.214844 23.636719 C 29.519531 23.449219 29.703125 23.117188 29.703125 22.761719 L 29.703125 9.335938 C 29.703125 8.976562 29.519531 8.648438 29.214844 8.457031 L 16.6875 0.710938 C 16.511719 0.601562 16.304688 0.546875 16.09375 0.554688 Z M 7.789062 8.816406 L 25.53125 8.816406 L 21.875 12.949219 L 7.789062 12.949219 Z M 15.09375 16.046875 L 17.179688 16.046875 C 17.757812 16.046875 18.226562 16.507812 18.226562 17.078125 L 18.226562 24.3125 C 18.226562 24.882812 17.757812 25.34375 17.179688 25.34375 L 15.09375 25.34375 C 14.515625 25.34375 14.050781 24.882812 14.050781 24.3125 L 14.050781 17.078125 C 14.050781 16.507812 14.515625 16.046875 15.09375 16.046875 Z M 15.09375 16.046875 "/></g></svg>
