<svg width="64" height="64" viewBox="0 0 64 64" version="1.1"><defs><linearGradient id="linear-pattern-0" gradientUnits="userSpaceOnUse" x1="0" y1="0" x2="0" y2="1" gradientTransform="matrix(60, 0, 0, 56, 0, 4)"><stop offset="0" stop-color="#d00068" stop-opacity="1"/><stop offset="1" stop-color="#6e0037" stop-opacity="1"/></linearGradient></defs><path fill="url(#linear-pattern-0)" fill-opacity="1" d="M 36.21875 2.050781 L 62.027344 27.605469 C 64.402344 29.957031 64.417969 33.785156 62.058594 36.15625 L 36.460938 61.917969 C 34.105469 64.289062 30.269531 64.304688 27.894531 61.949219 L 2.085938 36.394531 C -0.289062 34.042969 -0.304688 30.214844 2.050781 27.84375 L 27.652344 2.082031 C 30.007812 -0.289062 33.84375 -0.304688 36.21875 2.050781 Z M 36.21875 2.050781 " /><g transform="matrix(1.0075098,0,0,1.0032698,16.221436,16.077397)"><path fill-rule="evenodd" fill="rgb(100%, 100%, 100%)" fill-opacity="1" d="M 21.058594 19.851562 L 19.546875 18.226562 C 20.328125 17.792969 21.0625 17.246094 21.726562 16.582031 C 25.515625 12.789062 25.515625 6.632812 21.726562 2.84375 C 17.933594 -0.945312 11.777344 -0.945312 7.984375 2.84375 C 4.195312 6.632812 4.195312 12.789062 7.984375 16.582031 C 9.304688 17.898438 10.902344 18.757812 12.589844 19.160156 L 12.589844 24.160156 C 10.929688 24.648438 9.710938 26.179688 9.710938 28 C 9.710938 30.207031 11.507812 32 13.714844 32 C 15.921875 32 17.714844 30.207031 17.714844 28 C 17.714844 26.179688 16.5 24.648438 14.835938 24.160156 L 14.835938 19.425781 C 15.664062 19.429688 16.492188 19.324219 17.304688 19.113281 L 19.414062 21.390625 C 19.0625 21.984375 18.855469 22.683594 18.855469 23.429688 C 18.855469 25.636719 20.648438 27.429688 22.855469 27.429688 C 25.0625 27.429688 26.855469 25.636719 26.855469 23.429688 C 26.855469 21.21875 25.0625 19.429688 22.855469 19.429688 C 22.210938 19.429688 21.597656 19.582031 21.058594 19.851562 Z M 15.160156 6.835938 L 9.710938 12.285156 L 9.765625 14.804688 L 12.28125 14.855469 L 17.730469 9.40625 Z M 18.242188 4.78125 C 17.960938 4.5 17.5 4.5 17.21875 4.78125 L 16.1875 5.8125 L 18.757812 8.382812 L 19.785156 7.351562 C 20.070312 7.070312 20.070312 6.609375 19.785156 6.324219 Z M 18.242188 4.78125 "/></g></svg>
