<svg width="64" height="64" viewBox="0 0 64 64" version="1.1"><defs><linearGradient id="linear-pattern-0" gradientUnits="userSpaceOnUse" x1="0" y1="0" x2="0" y2="1" gradientTransform="matrix(60, 0, 0, 56, 0, 4)"><stop offset="0" stop-color="#3067ff" stop-opacity="1"/><stop offset="1" stop-color="#002ca6" stop-opacity="1"/></linearGradient></defs><path fill="url(#linear-pattern-0)" fill-opacity="1" d="M 36.21875 2.050781 L 62.027344 27.605469 C 64.402344 29.957031 64.417969 33.785156 62.058594 36.15625 L 36.460938 61.917969 C 34.105469 64.289062 30.269531 64.304688 27.894531 61.949219 L 2.085938 36.394531 C -0.289062 34.042969 -0.304688 30.214844 2.050781 27.84375 L 27.652344 2.082031 C 30.007812 -0.289062 33.84375 -0.304688 36.21875 2.050781 Z M 36.21875 2.050781 " /><g transform="matrix(1.0075098,0,0,1.0032698,16.221436,16.077397)"><path fill-rule="evenodd" fill="rgb(100%, 100%, 100%)" fill-opacity="1" d="M 15.992188 0.0546875 C 15.078125 0.0546875 14.1875 0.398438 13.492188 1.117188 L 1.054688 13.9375 C 0.367188 14.644531 0.00390625 15.578125 -0.0078125 16.5 C -0.0078125 16.515625 -0.0078125 16.546875 -0.0078125 16.5625 C -0.0078125 19.3125 7.328125 16.644531 7.992188 20 C 8.351562 21.820312 3.992188 20.988281 3.992188 22.816406 C 3.992188 24.960938 10.160156 23.484375 11.929688 25.257812 C 12.65625 27.023438 9.566406 26.738281 10.117188 28.382812 C 11.152344 29.453125 13.480469 28.84375 13.929688 30.570312 C 14.4375 32.542969 17.789062 32.203125 19.742188 30.757812 C 20.773438 29.6875 18.140625 29.203125 19.179688 28.132812 C 20.210938 27.0625 25.328125 27.28125 25.367188 24.945312 C 24.875 23.476562 22.957031 23.238281 22.929688 21.503906 C 22.824219 20.03125 24.5 20.460938 29.804688 19 C 31.921875 18.007812 32 17.476562 31.992188 16.5625 C 31.992188 16.546875 31.992188 16.519531 31.992188 16.5 C 31.976562 15.578125 31.550781 14.644531 30.867188 13.9375 L 18.492188 1.117188 C 17.789062 0.394531 16.902344 0.0546875 15.992188 0.0546875 Z M 16.242188 2.742188 C 17.179688 2.75 19.757812 5.929688 22.054688 8.308594 C 22.699219 9.171875 21.804688 10.0625 21.804688 10.0625 L 16.992188 7.433594 L 14.867188 10.3125 L 12.992188 7.496094 L 11.867188 11.875 L 8.554688 9.875 L 9.429688 8.746094 L 14.617188 3.429688 C 15.015625 3.027344 15.320312 2.734375 16.242188 2.742188 Z M 30.492188 22.003906 C 30.238281 21.996094 29.984375 22.015625 29.804688 22.066406 C 29.464844 22.164062 27.859375 22.21875 27.992188 23.441406 C 29.445312 24.054688 31.664062 24.539062 31.929688 23.316406 C 32.125 22.402344 31.25 22.03125 30.492188 22.003906 Z M 5.679688 26.070312 C 5.539062 26.085938 5.441406 26.140625 5.304688 26.195312 C 4.199219 26.613281 3.460938 27.496094 4.492188 27.882812 C 5.523438 28.265625 6.210938 27.859375 7.117188 27.382812 C 8.019531 26.902344 7.992188 26.816406 7.929688 26.632812 C 7.804688 26.65625 6.980469 26.144531 6.117188 26.070312 C 5.972656 26.054688 5.820312 26.054688 5.679688 26.070312 Z M 5.679688 26.070312 "/></g></svg>
