<svg width="64" height="64" viewBox="0 0 64 64" version="1.1"><defs><linearGradient id="linear-pattern-0" gradientUnits="userSpaceOnUse" x1="0" y1="0" x2="0" y2="1" gradientTransform="matrix(60, 0, 0, 56, 0, 4)"><stop offset="0" stop-color="#00a07f" stop-opacity="1"/><stop offset="1" stop-color="#005241" stop-opacity="1"/></linearGradient></defs><path fill="url(#linear-pattern-0)" fill-opacity="1" d="M 36.21875 2.050781 L 62.027344 27.605469 C 64.402344 29.957031 64.417969 33.785156 62.058594 36.15625 L 36.460938 61.917969 C 34.105469 64.289062 30.269531 64.304688 27.894531 61.949219 L 2.085938 36.394531 C -0.289062 34.042969 -0.304688 30.214844 2.050781 27.84375 L 27.652344 2.082031 C 30.007812 -0.289062 33.84375 -0.304688 36.21875 2.050781 Z M 36.21875 2.050781 " /><g transform="matrix(1.0075098,0,0,1.0032698,16.221436,16.077397)"><path fill-rule="nonzero" fill="rgb(100%, 100%, 100%)" fill-opacity="1" d="M 8.519531 1 C 5.835938 1.03125 3.871094 0.933594 2.265625 1.824219 C 1.460938 2.269531 0.832031 3.023438 0.480469 3.964844 C 0.128906 4.90625 0 6.023438 0 7.429688 L 0 24.570312 C 0 25.976562 0.128906 27.09375 0.480469 28.035156 C 0.832031 28.976562 1.460938 29.730469 2.265625 30.175781 C 3.871094 31.066406 5.835938 30.96875 8.519531 31 L 23.480469 31 C 26.164062 30.96875 28.128906 31.066406 29.734375 30.175781 C 30.539062 29.730469 31.167969 28.976562 31.519531 28.035156 C 31.871094 27.09375 32 25.976562 32 24.570312 L 32 7.429688 C 32 6.023438 31.871094 4.90625 31.519531 3.964844 C 31.167969 3.023438 30.539062 2.269531 29.734375 1.824219 C 28.128906 0.933594 26.164062 1.03125 23.480469 1 Z M 8.535156 3.144531 L 23.46875 3.144531 C 26.15625 3.175781 27.917969 3.269531 28.699219 3.703125 C 29.089844 3.921875 29.3125 4.15625 29.523438 4.714844 C 29.730469 5.273438 29.867188 6.160156 29.867188 7.429688 L 29.867188 22.429688 L 2.132812 22.429688 L 2.132812 7.429688 C 2.132812 6.160156 2.265625 5.273438 2.476562 4.714844 C 2.6875 4.15625 2.90625 3.921875 3.296875 3.703125 C 4.078125 3.269531 5.851562 3.175781 8.535156 3.144531 Z M 2.132812 24.570312 L 14.933594 24.570312 L 14.933594 28.855469 L 8.535156 28.855469 C 5.851562 28.824219 4.078125 28.730469 3.296875 28.296875 C 2.90625 28.078125 2.6875 27.84375 2.476562 27.285156 C 2.265625 26.726562 2.132812 25.839844 2.132812 24.570312 Z M 17.066406 24.570312 L 29.867188 24.570312 C 29.867188 25.839844 29.734375 26.726562 29.523438 27.285156 C 29.3125 27.84375 29.089844 28.078125 28.699219 28.296875 C 27.917969 28.730469 26.148438 28.824219 23.464844 28.855469 L 17.066406 28.855469 Z M 17.066406 24.570312 "/></g></svg>
