<svg width="64" height="64" viewBox="0 0 64 64" version="1.1"><defs><linearGradient id="linear-pattern-0" gradientUnits="userSpaceOnUse" x1="0" y1="0" x2="0" y2="1" gradientTransform="matrix(60, 0, 0, 56, 0, 4)"><stop offset="0" stop-color="#00983a" stop-opacity="1"/><stop offset="1" stop-color="#004a1c" stop-opacity="1"/></linearGradient></defs><path fill="url(#linear-pattern-0)" fill-opacity="1" d="M 36.21875 2.050781 L 62.027344 27.605469 C 64.402344 29.957031 64.417969 33.785156 62.058594 36.15625 L 36.460938 61.917969 C 34.105469 64.289062 30.269531 64.304688 27.894531 61.949219 L 2.085938 36.394531 C -0.289062 34.042969 -0.304688 30.214844 2.050781 27.84375 L 27.652344 2.082031 C 30.007812 -0.289062 33.84375 -0.304688 36.21875 2.050781 Z M 36.21875 2.050781 " /><g transform="matrix(1.0075098,0,0,1.0032698,16.221436,16.077397)"><path fill-rule="nonzero" fill="rgb(100%, 100%, 100%)" fill-opacity="1" d="M 13.148438 1.03125 C 17.6875 7.640625 11.867188 7.546875 12.742188 14.714844 C 11.609375 13.070312 11.5625 12.011719 9 11.507812 C 12.476562 16.949219 4.855469 16.339844 5.570312 21.078125 C 4.640625 20.84375 3.78125 19.285156 4.492188 17.363281 C 2.042969 20.058594 2.914062 22.382812 4.652344 24.722656 C 2.914062 23.167969 2.914062 23.945312 2.046875 21.757812 C 2.371094 27.214844 6.847656 31.339844 15.273438 31.691406 C 11.546875 31.3125 9 28.34375 9 24.722656 C 9 20.835938 13.445312 18.445312 15.652344 15.707031 C 16.578125 14.546875 17.65625 12.3125 15.953125 10.726562 C 21.148438 13.867188 15.089844 20.054688 18.546875 22.378906 C 17.6875 20.828125 18.546875 19.273438 20.296875 18.5 C 19.429688 20.054688 19.429688 21.601562 20.136719 22.234375 C 24.144531 26.453125 21.332031 31.453125 16.445312 31.707031 L 17.09375 31.707031 C 22.84375 31.707031 28.539062 27.980469 29.15625 24.253906 C 28.34375 25.324219 27.257812 26.273438 25.652344 26.273438 C 29.867188 23.164062 30.71875 18.5 26.988281 14.03125 C 27.265625 16.945312 25.507812 18.5 23.96875 19.5 C 26.378906 15.398438 26.386719 10.71875 21.664062 6.605469 C 22.039062 7.617188 22.328125 8.40625 22.070312 9.324219 C 22.328125 8.195312 18.574219 2.96875 13.160156 1.023438 "/></g></svg>
