<svg width="64" height="64" viewBox="0 0 64 64" version="1.1"><defs><linearGradient id="linear-pattern-0" gradientUnits="userSpaceOnUse" x1="0" y1="0" x2="0" y2="1" gradientTransform="matrix(60, 0, 0, 56, 0, 4)"><stop offset="0" stop-color="#00a07f" stop-opacity="1"/><stop offset="1" stop-color="#005241" stop-opacity="1"/></linearGradient></defs><path fill="url(#linear-pattern-0)" fill-opacity="1" d="M 36.21875 2.050781 L 62.027344 27.605469 C 64.402344 29.957031 64.417969 33.785156 62.058594 36.15625 L 36.460938 61.917969 C 34.105469 64.289062 30.269531 64.304688 27.894531 61.949219 L 2.085938 36.394531 C -0.289062 34.042969 -0.304688 30.214844 2.050781 27.84375 L 27.652344 2.082031 C 30.007812 -0.289062 33.84375 -0.304688 36.21875 2.050781 Z M 36.21875 2.050781 " /><g transform="matrix(1.0075098,0,0,1.0032698,16.221436,16.077397)"><path fill-rule="nonzero" fill="rgb(100%, 100%, 100%)" fill-opacity="1" d="M 20.132812 1.539062 C 11.921875 -0.625 3.476562 4.164062 1.273438 12.238281 C -0.929688 20.308594 3.945312 28.609375 12.164062 30.769531 C 20.378906 32.933594 28.824219 28.144531 31.027344 20.070312 C 33.226562 12 28.351562 3.703125 20.132812 1.539062 Z M 28.679688 11.335938 C 28.90625 11.386719 29.070312 11.53125 29.125 11.847656 L 27.347656 14.046875 L 26.664062 13.507812 L 28.4375 11.308594 C 28.523438 11.308594 28.605469 11.316406 28.679688 11.335938 Z M 26.03125 13.164062 L 27.839844 14.570312 L 18.273438 26.414062 L 16.464844 25.007812 Z M 17.328125 11.84375 C 19.742188 12.480469 21.1875 14.929688 20.535156 17.3125 C 19.890625 19.6875 17.390625 21.101562 14.96875 20.464844 C 12.554688 19.828125 11.113281 17.378906 11.761719 15 C 12.40625 12.617188 14.898438 11.203125 17.328125 11.84375 Z M 27.90625 14.648438 L 28.289062 14.945312 L 27.921875 15.398438 L 27.539062 15.109375 Z M 28.382812 15.003906 L 28.730469 15.273438 L 25.058594 19.820312 L 24.710938 19.546875 Z M 25.417969 18.578125 L 24.6875 19.480469 L 24.65625 18.710938 Z M 16.40625 25.078125 L 18.214844 26.484375 L 15.6875 28.96875 L 14.570312 28.101562 Z M 14.722656 28.335938 L 15.371094 28.839844 L 13.773438 30.269531 C 13.773438 30.269531 14.515625 28.804688 14.722656 28.335938 Z M 14.722656 28.335938 "/></g></svg>
