<svg width="64" height="64" viewBox="0 0 64 64" version="1.1"><defs><linearGradient id="linear-pattern-0" gradientUnits="userSpaceOnUse" x1="0" y1="0" x2="0" y2="1" gradientTransform="matrix(60, 0, 0, 56, 0, 4)"><stop offset="0" stop-color="#3067ff" stop-opacity="1"/><stop offset="1" stop-color="#002ca6" stop-opacity="1"/></linearGradient></defs><path fill="url(#linear-pattern-0)" fill-opacity="1" d="M 36.21875 2.050781 L 62.027344 27.605469 C 64.402344 29.957031 64.417969 33.785156 62.058594 36.15625 L 36.460938 61.917969 C 34.105469 64.289062 30.269531 64.304688 27.894531 61.949219 L 2.085938 36.394531 C -0.289062 34.042969 -0.304688 30.214844 2.050781 27.84375 L 27.652344 2.082031 C 30.007812 -0.289062 33.84375 -0.304688 36.21875 2.050781 Z M 36.21875 2.050781 " /><g transform="matrix(1.0075098,0,0,1.0032698,16.221436,16.077397)"><path fill-rule="evenodd" fill="rgb(100%, 100%, 100%)" fill-opacity="1" d="M 3.238281 2.910156 C 8.894531 9.351562 9.640625 16 9.34375 20.363281 C 9.082031 24.1875 6.726562 25.617188 6.277344 25.804688 C 5.34375 26.179688 3.140625 26.742188 0 24.726562 C 0 27.078125 2.015625 29.089844 5.53125 29.089844 C 9.046875 29.089844 11.921875 26.269531 12.5 23.09375 C 14.53125 6.695312 10.671875 4.390625 10.671875 4.390625 C 10.671875 4.390625 7.140625 2.910156 3.238281 2.910156 Z M 14.546875 2.910156 C 15.570312 7.257812 23.273438 8.976562 23.273438 11.042969 C 23.273438 13.109375 17.367188 13.46875 17.453125 16.820312 C 17.539062 21.457031 24.984375 27.59375 32 29.089844 C 28.921875 25.523438 21.132812 17.75 23.703125 15.75 C 32.941406 9.472656 24.46875 4.335938 14.546875 2.910156 Z M 14.546875 2.910156 "/></g></svg>
