<svg width="64" height="64" viewBox="0 0 64 64" version="1.1"><defs><linearGradient id="linear-pattern-0" gradientUnits="userSpaceOnUse" x1="0" y1="0" x2="0" y2="1" gradientTransform="matrix(60, 0, 0, 56, 0, 4)"><stop offset="0" stop-color="#d00068" stop-opacity="1"/><stop offset="1" stop-color="#6e0037" stop-opacity="1"/></linearGradient></defs><path fill="url(#linear-pattern-0)" fill-opacity="1" d="M 36.21875 2.050781 L 62.027344 27.605469 C 64.402344 29.957031 64.417969 33.785156 62.058594 36.15625 L 36.460938 61.917969 C 34.105469 64.289062 30.269531 64.304688 27.894531 61.949219 L 2.085938 36.394531 C -0.289062 34.042969 -0.304688 30.214844 2.050781 27.84375 L 27.652344 2.082031 C 30.007812 -0.289062 33.84375 -0.304688 36.21875 2.050781 Z M 36.21875 2.050781 " /><g transform="matrix(1.0075098,0,0,1.0032698,16.221436,16.077397)"><path fill-rule="nonzero" fill="rgb(100%, 100%, 100%)" fill-opacity="1" d="M 27.265625 1.054688 L 18.671875 19.039062 C 16.921875 17.332031 13.929688 16.207031 10.53125 16.210938 C 5.152344 16.210938 0.773438 19.039062 0.773438 22.523438 C 0.773438 23.710938 1.289062 24.8125 2.164062 25.757812 L 2.164062 31.359375 L 10.53125 28.835938 C 15.921875 28.835938 20.292969 26.007812 20.292969 22.523438 L 25.453125 11.421875 C 27.59375 13.480469 28.660156 15.34375 28.660156 18.101562 C 28.660156 21.222656 24.898438 23.265625 21.6875 23.761719 C 21.589844 24.160156 21.296875 24.679688 21.121094 25.046875 C 25.839844 24.339844 31.445312 21.792969 31.445312 16.839844 C 31.445312 11.15625 26.765625 8.601562 28.660156 4.527344 L 30.054688 1.054688 Z M 10.53125 18.734375 C 14.382812 18.734375 17.5 20.429688 17.5 22.523438 C 17.5 24.617188 14.382812 26.3125 10.53125 26.3125 L 4.953125 27.953125 L 4.953125 24.773438 C 4.085938 24.144531 3.5625 23.367188 3.5625 22.523438 C 3.5625 20.429688 6.679688 18.734375 10.53125 18.734375 Z M 10.53125 18.734375 "/></g></svg>
