<svg width="64" height="64" viewBox="0 0 64 64" version="1.1"><defs><linearGradient id="linear-pattern-0" gradientUnits="userSpaceOnUse" x1="0" y1="0" x2="0" y2="1" gradientTransform="matrix(60, 0, 0, 56, 0, 4)"><stop offset="0" stop-color="#8900e4" stop-opacity="1"/><stop offset="1" stop-color="#42006e" stop-opacity="1"/></linearGradient></defs><path fill="url(#linear-pattern-0)" fill-opacity="1" d="M 36.21875 2.050781 L 62.027344 27.605469 C 64.402344 29.957031 64.417969 33.785156 62.058594 36.15625 L 36.460938 61.917969 C 34.105469 64.289062 30.269531 64.304688 27.894531 61.949219 L 2.085938 36.394531 C -0.289062 34.042969 -0.304688 30.214844 2.050781 27.84375 L 27.652344 2.082031 C 30.007812 -0.289062 33.84375 -0.304688 36.21875 2.050781 Z M 36.21875 2.050781 " /><g transform="matrix(1.0075098,0,0,1.0032698,16.221436,16.077397)"><path fill-rule="evenodd" fill="rgb(100%, 100%, 100%)" fill-opacity="1" d="M 23.464844 0.0234375 L 31.992188 0 C 32.007812 4.007812 31.429688 8 30.289062 11.835938 C 29.253906 15.40625 27.664062 18.800781 25.578125 21.867188 C 24.585938 23.320312 23.453125 24.671875 22.21875 25.921875 C 21 27.125 19.667969 28.195312 18.21875 29.109375 C 16.789062 30.015625 15.242188 30.734375 13.621094 31.234375 C 11.980469 31.734375 10.265625 32 8.546875 32 L 8.523438 23.46875 C 9.398438 23.46875 10.265625 23.34375 11.105469 23.085938 C 12 22.796875 12.867188 22.40625 13.664062 21.902344 C 14.582031 21.316406 15.421875 20.644531 16.191406 19.875 C 17.054688 19.011719 17.835938 18.074219 18.527344 17.070312 C 20.117188 14.726562 21.320312 12.15625 22.109375 9.4375 C 23.015625 6.390625 23.476562 3.210938 23.464844 0.0234375 Z M 8.535156 32 L 0.0078125 32 L 0.0078125 0.0078125 L 8.535156 0.0078125 Z M 8.535156 32 "/></g></svg>
