<svg width="64" height="64" viewBox="0 0 64 64" version="1.1"><defs><linearGradient id="linear-pattern-0" gradientUnits="userSpaceOnUse" x1="0" y1="0" x2="0" y2="1" gradientTransform="matrix(60, 0, 0, 56, 0, 4)"><stop offset="0" stop-color="#7795ab" stop-opacity="1"/><stop offset="1" stop-color="#3b4f5f" stop-opacity="1"/></linearGradient></defs><path fill="url(#linear-pattern-0)" fill-opacity="1" d="M 36.21875 2.050781 L 62.027344 27.605469 C 64.402344 29.957031 64.417969 33.785156 62.058594 36.15625 L 36.460938 61.917969 C 34.105469 64.289062 30.269531 64.304688 27.894531 61.949219 L 2.085938 36.394531 C -0.289062 34.042969 -0.304688 30.214844 2.050781 27.84375 L 27.652344 2.082031 C 30.007812 -0.289062 33.84375 -0.304688 36.21875 2.050781 Z M 36.21875 2.050781 " /><g transform="matrix(1.0075098,0,0,1.0032698,16.221436,16.077397)"><path fill-rule="nonzero" fill="rgb(100%, 100%, 100%)" fill-opacity="1" d="M 0.746094 0.8125 L 0.746094 18.453125 L 4.550781 18.453125 L 4.550781 23.492188 L 11.3125 18.453125 L 23.578125 18.453125 L 23.578125 0.8125 Z M 3.28125 3.335938 L 21.039062 3.335938 L 21.039062 15.929688 L 10.476562 15.929688 L 7.085938 18.453125 L 7.085938 15.929688 L 3.28125 15.929688 Z M 26.113281 10.890625 L 26.113281 13.414062 L 28.648438 13.414062 L 28.648438 23.492188 L 24.84375 23.492188 L 24.84375 26.015625 L 21.460938 23.492188 L 13.429688 23.492188 L 13.429688 20.96875 L 10.894531 20.96875 L 10.894531 26.015625 L 20.621094 26.015625 L 27.382812 31.054688 L 27.382812 26.015625 L 31.1875 26.015625 L 31.1875 10.890625 Z M 26.113281 10.890625 "/></g></svg>
