<svg width="64" height="64" viewBox="0 0 64 64" version="1.1"><defs><linearGradient id="linear-pattern-0" gradientUnits="userSpaceOnUse" x1="0" y1="0" x2="0" y2="1" gradientTransform="matrix(60, 0, 0, 56, 0, 4)"><stop offset="0" stop-color="#3067ff" stop-opacity="1"/><stop offset="1" stop-color="#002ca6" stop-opacity="1"/></linearGradient></defs><path fill="url(#linear-pattern-0)" fill-opacity="1" d="M 36.21875 2.050781 L 62.027344 27.605469 C 64.402344 29.957031 64.417969 33.785156 62.058594 36.15625 L 36.460938 61.917969 C 34.105469 64.289062 30.269531 64.304688 27.894531 61.949219 L 2.085938 36.394531 C -0.289062 34.042969 -0.304688 30.214844 2.050781 27.84375 L 27.652344 2.082031 C 30.007812 -0.289062 33.84375 -0.304688 36.21875 2.050781 Z M 36.21875 2.050781 " /><g transform="matrix(1.0075098,0,0,1.0032698,16.221436,16.077397)"><path fill-rule="nonzero" fill="rgb(100%, 100%, 100%)" fill-opacity="1" d="M 5.5625 1.070312 C 4.757812 1.070312 4.109375 1.710938 4.109375 2.515625 C 4.109375 3.308594 4.757812 3.953125 5.5625 3.953125 L 28.335938 3.953125 L 26.042969 24.335938 C 25.980469 24.773438 25.851562 24.953125 25.445312 25.132812 L 16.648438 28 C 16.152344 28.148438 15.828125 28.164062 15.46875 28.039062 C 15.457031 28.03125 15.445312 28.023438 15.429688 28.023438 L 6.554688 25.085938 C 6.171875 24.914062 6.09375 24.890625 6.035156 24.375 C 6.035156 24.367188 6.03125 24.367188 6.03125 24.359375 L 3.777344 5.71875 C 3.679688 4.929688 2.960938 4.367188 2.164062 4.460938 C 1.367188 4.554688 0.804688 5.273438 0.898438 6.0625 L 3.15625 24.691406 C 3.316406 26.152344 4.351562 27.261719 5.386719 27.734375 C 5.4375 27.757812 5.484375 27.777344 5.535156 27.792969 L 14.484375 30.75 C 15.554688 31.132812 16.632812 31.023438 17.511719 30.75 C 17.515625 30.75 17.523438 30.75 17.53125 30.746094 L 26.464844 27.839844 C 26.503906 27.828125 26.546875 27.808594 26.585938 27.792969 C 27.867188 27.242188 28.734375 26.027344 28.914062 24.734375 C 28.917969 24.71875 28.917969 24.707031 28.921875 24.695312 L 31.234375 4.140625 C 31.234375 4.136719 31.234375 4.136719 31.234375 4.132812 C 31.304688 3.4375 31.171875 2.648438 30.65625 2.023438 C 30.140625 1.390625 29.289062 1.070312 28.484375 1.070312 Z M 21.867188 6.527344 L 8.6875 6.5625 C 7.886719 6.566406 7.238281 7.210938 7.242188 8.007812 C 7.242188 8.390625 7.394531 8.757812 7.664062 9.03125 C 7.9375 9.300781 8.308594 9.453125 8.695312 9.453125 L 21.804688 9.414062 L 20.527344 20.476562 C 20.527344 20.476562 20.523438 20.476562 20.523438 20.484375 C 20.46875 21.03125 20.417969 21.195312 19.875 21.390625 L 17.007812 22.351562 C 16.335938 22.554688 15.578125 22.570312 14.976562 22.390625 L 12.199219 21.492188 C 11.929688 21.402344 11.625 20.9375 11.585938 20.578125 L 11.382812 18.921875 C 11.285156 18.132812 10.5625 17.570312 9.769531 17.664062 C 8.976562 17.757812 8.40625 18.476562 8.5 19.265625 L 8.703125 20.921875 C 8.863281 22.261719 9.671875 23.703125 11.296875 24.234375 L 14.109375 25.144531 C 14.117188 25.148438 14.128906 25.148438 14.140625 25.152344 C 15.382812 25.527344 16.675781 25.46875 17.84375 25.117188 C 17.859375 25.113281 17.875 25.109375 17.890625 25.101562 L 20.820312 24.125 C 20.828125 24.117188 20.839844 24.117188 20.851562 24.109375 C 22.40625 23.554688 23.265625 22.089844 23.40625 20.796875 L 24.695312 9.664062 C 24.789062 8.867188 24.558594 8.011719 24.007812 7.414062 C 23.460938 6.820312 22.65625 6.527344 21.871094 6.527344 C 21.871094 6.527344 21.867188 6.527344 21.867188 6.527344 Z M 21.867188 6.527344 "/></g></svg>
