<svg width="64" height="64" viewBox="0 0 64 64" version="1.1"><defs><linearGradient id="linear-pattern-0" gradientUnits="userSpaceOnUse" x1="0" y1="0" x2="0" y2="1" gradientTransform="matrix(60, 0, 0, 56, 0, 4)"><stop offset="0" stop-color="#ec7700" stop-opacity="1"/><stop offset="1" stop-color="#773c00" stop-opacity="1"/></linearGradient></defs><path fill="url(#linear-pattern-0)" fill-opacity="1" d="M 36.21875 2.050781 L 62.027344 27.605469 C 64.402344 29.957031 64.417969 33.785156 62.058594 36.15625 L 36.460938 61.917969 C 34.105469 64.289062 30.269531 64.304688 27.894531 61.949219 L 2.085938 36.394531 C -0.289062 34.042969 -0.304688 30.214844 2.050781 27.84375 L 27.652344 2.082031 C 30.007812 -0.289062 33.84375 -0.304688 36.21875 2.050781 Z M 36.21875 2.050781 " /><g transform="matrix(1.0075098,0,0,1.0032698,16.221436,16.077397)"><path fill-rule="nonzero" fill="rgb(100%, 100%, 100%)" fill-opacity="1" d="M 16.28125 0.714844 L 16.0625 1.039062 C 13.554688 4.617188 11.582031 8.34375 10.027344 12.1875 C 9.578125 13.296875 9.167969 14.414062 8.789062 15.542969 L 8.554688 15.714844 C 6.5625 17.195312 4.109375 18.710938 2.476562 20.578125 L 2.320312 20.757812 L 2.46875 20.9375 C 2.914062 21.5 3.453125 22.015625 4.09375 22.496094 C 4.085938 22.558594 4.078125 22.628906 4.074219 22.695312 C 4.066406 22.777344 4.0625 22.851562 4.058594 22.914062 C 4.054688 22.976562 4.046875 23.046875 4.050781 23.015625 L 4.050781 23.019531 C 3.75 24.921875 3.398438 25.199219 2.15625 26.289062 L 1.9375 26.484375 L 2.140625 26.699219 C 2.921875 27.5 3.390625 27.90625 3.953125 28.109375 C 4.449219 28.289062 5.007812 28.296875 5.820312 28.316406 C 5.6875 29.226562 5.5625 30.140625 5.464844 31.0625 L 5.414062 31.484375 L 5.8125 31.359375 L 14.265625 28.75 C 14.273438 28.75 14.273438 28.75 14.28125 28.75 C 14.9375 28.585938 14.878906 28.578125 15.375 28.570312 C 16.007812 28.554688 15.996094 28.578125 16.492188 28.714844 L 16.492188 28.710938 L 25 31.1875 L 25.328125 31.285156 L 25.34375 30.9375 C 25.390625 30.070312 25.40625 29.195312 25.40625 28.328125 C 26.335938 28.304688 26.933594 28.308594 27.460938 28.125 C 28.039062 27.933594 28.511719 27.523438 29.320312 26.699219 L 29.523438 26.484375 L 29.304688 26.289062 C 28.0625 25.199219 27.710938 24.925781 27.414062 23.019531 L 27.410156 23.019531 L 27.410156 23.015625 C 27.414062 23.046875 27.40625 22.976562 27.402344 22.914062 C 27.398438 22.851562 27.398438 22.777344 27.390625 22.695312 C 27.382812 22.636719 27.375 22.570312 27.367188 22.515625 C 28.015625 22.09375 28.5 21.496094 28.984375 20.953125 L 29.148438 20.765625 L 28.984375 20.578125 C 27.59375 18.992188 25.945312 17.554688 23.703125 15.929688 C 23.367188 14.757812 22.988281 13.585938 22.546875 12.410156 C 21.125 8.617188 19.140625 4.824219 16.507812 1.039062 L 16.28125 0.714844 M 8.320312 17.058594 C 7.695312 19.058594 7.171875 21.085938 6.738281 23.140625 C 6.714844 23.128906 6.6875 23.117188 6.667969 23.109375 C 6.589844 23.085938 6.507812 23.074219 6.429688 23.0625 C 6.351562 23.054688 6.273438 23.046875 6.210938 23.039062 C 6.183594 23.035156 6.148438 23.023438 6.140625 23.019531 L 5.820312 22.84375 C 5.15625 22.179688 4.75 21.390625 3.871094 20.730469 C 5.398438 19.640625 6.945312 18.34375 8.320312 17.058594 M 24.101562 17.484375 C 25.273438 18.617188 26.382812 19.722656 27.710938 20.734375 C 26.875 21.378906 26.332031 22.160156 25.644531 22.84375 L 25.304688 23.03125 C 25.300781 23.03125 25.28125 23.039062 25.265625 23.042969 C 25.230469 23.046875 25.179688 23.058594 25.125 23.066406 C 25.121094 23.066406 25.117188 23.074219 25.109375 23.074219 C 24.898438 21.210938 24.5625 19.34375 24.101562 17.484375 "/></g></svg>
