<svg width="64" height="64" viewBox="0 0 64 64" version="1.1"><defs><linearGradient id="linear-pattern-0" gradientUnits="userSpaceOnUse" x1="0" y1="0" x2="0" y2="1" gradientTransform="matrix(60, 0, 0, 56, 0, 4)"><stop offset="0" stop-color="#a67e50" stop-opacity="1"/><stop offset="1" stop-color="#644c30" stop-opacity="1"/></linearGradient></defs><path fill="url(#linear-pattern-0)" fill-opacity="1" d="M 36.21875 2.050781 L 62.027344 27.605469 C 64.402344 29.957031 64.417969 33.785156 62.058594 36.15625 L 36.460938 61.917969 C 34.105469 64.289062 30.269531 64.304688 27.894531 61.949219 L 2.085938 36.394531 C -0.289062 34.042969 -0.304688 30.214844 2.050781 27.84375 L 27.652344 2.082031 C 30.007812 -0.289062 33.84375 -0.304688 36.21875 2.050781 Z M 36.21875 2.050781 " /><g transform="matrix(1.0075098,0,0,1.0032698,16.221436,16.077397)"><path fill-rule="evenodd" fill="rgb(100%, 100%, 100%)" fill-opacity="1" d="M 16 0 C 11.765625 0 -1.867188 24.714844 0.214844 28.890625 C 2.292969 33.0625 29.734375 33.015625 31.789062 28.890625 C 33.84375 24.761719 20.234375 0 16 0 Z M 26.148438 24.855469 C 24.828125 27.507812 7.1875 27.539062 5.851562 24.855469 C 4.515625 22.171875 13.28125 6.285156 16 6.285156 C 18.722656 6.285156 27.472656 22.203125 26.148438 24.855469 Z M 10.359375 21.746094 C 9.617188 20.257812 14.488281 11.429688 16 11.429688 C 17.515625 11.429688 22.375 20.273438 21.640625 21.746094 C 20.90625 23.21875 11.105469 23.234375 10.359375 21.746094 Z M 10.359375 21.746094 "/></g></svg>
