<svg width="64" height="64" viewBox="0 0 64 64" version="1.1"><defs><linearGradient id="linear-pattern-0" gradientUnits="userSpaceOnUse" x1="0" y1="0" x2="0" y2="1" gradientTransform="matrix(60, 0, 0, 56, 0, 4)"><stop offset="0" stop-color="#ec7700" stop-opacity="1"/><stop offset="1" stop-color="#773c00" stop-opacity="1"/></linearGradient></defs><path fill="url(#linear-pattern-0)" fill-opacity="1" d="M 36.21875 2.050781 L 62.027344 27.605469 C 64.402344 29.957031 64.417969 33.785156 62.058594 36.15625 L 36.460938 61.917969 C 34.105469 64.289062 30.269531 64.304688 27.894531 61.949219 L 2.085938 36.394531 C -0.289062 34.042969 -0.304688 30.214844 2.050781 27.84375 L 27.652344 2.082031 C 30.007812 -0.289062 33.84375 -0.304688 36.21875 2.050781 Z M 36.21875 2.050781 " /><g transform="matrix(1.0075098,0,0,1.0032698,16.221436,16.077397)"><path fill-rule="evenodd" fill="rgb(100%, 100%, 100%)" fill-opacity="1" d="M 16.0625 31.898438 L 0.0625 25.96875 L 0.0625 5.09375 L 0.148438 5.128906 L 16.34375 0.03125 L 32 6.0625 L 31.984375 6.070312 L 32 26.0625 L 16.25 31.898438 L 16.25 31.96875 L 16.15625 31.933594 L 16.0625 31.96875 Z M 16.164062 11.375 L 3.101562 6.28125 L 16.25 2.09375 L 28.773438 7.140625 Z M 2.0625 8.019531 L 14.257812 12.78125 L 14.257812 29.101562 L 2.0625 24.578125 Z M 20.21875 24 L 20.21875 26.65625 L 25.90625 24.71875 L 25.90625 22.0625 Z M 20.21875 24 "/></g></svg>
