<svg width="64" height="64" viewBox="0 0 64 64" version="1.1"><defs><linearGradient id="linear-pattern-0" gradientUnits="userSpaceOnUse" x1="0" y1="0" x2="0" y2="1" gradientTransform="matrix(60, 0, 0, 56, 0, 4)"><stop offset="0" stop-color="#0288cf" stop-opacity="1"/><stop offset="1" stop-color="#01486e" stop-opacity="1"/></linearGradient></defs><path fill="url(#linear-pattern-0)" fill-opacity="1" d="M 36.21875 2.050781 L 62.027344 27.605469 C 64.402344 29.957031 64.417969 33.785156 62.058594 36.15625 L 36.460938 61.917969 C 34.105469 64.289062 30.269531 64.304688 27.894531 61.949219 L 2.085938 36.394531 C -0.289062 34.042969 -0.304688 30.214844 2.050781 27.84375 L 27.652344 2.082031 C 30.007812 -0.289062 33.84375 -0.304688 36.21875 2.050781 Z M 36.21875 2.050781 " /><g transform="matrix(1.0075098,0,0,1.0032698,16.221436,16.077397)"><path fill-rule="nonzero" fill="rgb(100%, 100%, 100%)" fill-opacity="1" d="M 11.179688 0.03125 L 0 5.320312 L 0 31.171875 C 0 31.320312 0.046875 31.457031 0.101562 31.570312 C 0.164062 31.703125 0.265625 31.808594 0.398438 31.867188 C 0.511719 31.925781 0.648438 31.96875 0.796875 31.96875 C 0.960938 31.96875 1.097656 31.984375 1.097656 31.820312 L 11.179688 27.179688 L 20.757812 31.96875 L 31.9375 26.679688 L 31.9375 7.71875 L 20.757812 18.898438 L 20.757812 28.476562 L 12.625 24.285156 L 11.179688 23.6875 L 11.179688 3.578125 L 11.328125 3.523438 L 18.367188 5.921875 L 21.0625 3.226562 L 21.257812 3.074219 L 20.757812 3.226562 Z M 28.296875 0.132812 C 28.035156 0.132812 27.8125 0.167969 27.648438 0.328125 L 25.851562 2.125 L 29.84375 6.117188 L 31.640625 4.320312 C 32.117188 3.84375 32.117188 3.242188 31.640625 2.925781 L 29.046875 0.328125 C 28.820312 0.1875 28.5625 0.117188 28.296875 0.132812 Z M 24.90625 3.074219 L 14.371094 13.601562 L 14.371094 17.59375 L 18.367188 17.59375 L 28.898438 7.066406 Z M 24.90625 3.074219 "/></g></svg>
