<svg width="64" height="64" viewBox="0 0 64 64" version="1.1"><defs><linearGradient id="linear-pattern-0" gradientUnits="userSpaceOnUse" x1="0" y1="0" x2="0" y2="1" gradientTransform="matrix(60, 0, 0, 56, 0, 4)"><stop offset="0" stop-color="#8900e4" stop-opacity="1"/><stop offset="1" stop-color="#42006e" stop-opacity="1"/></linearGradient></defs><path fill="url(#linear-pattern-0)" fill-opacity="1" d="M 36.21875 2.050781 L 62.027344 27.605469 C 64.402344 29.957031 64.417969 33.785156 62.058594 36.15625 L 36.460938 61.917969 C 34.105469 64.289062 30.269531 64.304688 27.894531 61.949219 L 2.085938 36.394531 C -0.289062 34.042969 -0.304688 30.214844 2.050781 27.84375 L 27.652344 2.082031 C 30.007812 -0.289062 33.84375 -0.304688 36.21875 2.050781 Z M 36.21875 2.050781 " /><g transform="matrix(1.0075098,0,0,1.0032698,16.221436,16.077397)"><path fill-rule="nonzero" fill="rgb(100%, 100%, 100%)" fill-opacity="1" d="M 5.375 0.941406 L 0.664062 6.027344 L 12.445312 18.738281 L 12.445312 31.449219 L 19.507812 31.449219 L 19.507812 18.738281 L 31.289062 6.027344 L 26.578125 0.941406 L 15.976562 12.382812 Z M 5.375 0.941406 "/><path fill-rule="nonzero" fill="rgb(100%, 100%, 100%)" fill-opacity="1" d="M 8.453125 1.9375 C 8.15625 1.9375 7.859375 2.058594 7.632812 2.300781 L 1.921875 8.460938 C 1.46875 8.953125 1.46875 9.738281 1.921875 10.226562 L 2.742188 11.101562 C 3.191406 11.59375 3.921875 11.59375 4.371094 11.101562 L 10.078125 4.945312 C 10.53125 4.457031 10.53125 3.671875 10.078125 3.183594 L 9.265625 2.300781 C 9.039062 2.058594 8.742188 1.9375 8.453125 1.9375 Z M 22.988281 1.9375 C 22.695312 1.9375 22.402344 2.058594 22.171875 2.300781 L 21.355469 3.183594 C 20.90625 3.671875 20.90625 4.457031 21.355469 4.945312 L 27.066406 11.101562 C 27.519531 11.59375 28.246094 11.59375 28.699219 11.101562 L 29.515625 10.226562 C 29.964844 9.738281 29.964844 8.953125 29.515625 8.460938 L 23.804688 2.300781 C 23.578125 2.058594 23.285156 1.9375 22.988281 1.9375 Z M 11.007812 24.816406 C 10.355469 24.816406 9.828125 25.386719 9.828125 26.089844 L 9.828125 27.359375 C 9.828125 28.0625 10.355469 28.628906 11.007812 28.628906 L 20.429688 28.628906 C 21.085938 28.628906 21.609375 28.0625 21.609375 27.359375 L 21.609375 26.089844 C 21.609375 25.386719 21.085938 24.816406 20.429688 24.816406 Z M 11.007812 24.816406 "/></g></svg>
