<svg width="64" height="64" viewBox="0 0 64 64" version="1.1"><defs><linearGradient id="linear-pattern-0" gradientUnits="userSpaceOnUse" x1="0" y1="0" x2="0" y2="1" gradientTransform="matrix(60, 0, 0, 56, 0, 4)"><stop offset="0" stop-color="#0288cf" stop-opacity="1"/><stop offset="1" stop-color="#01486e" stop-opacity="1"/></linearGradient></defs><path fill="url(#linear-pattern-0)" fill-opacity="1" d="M 36.21875 2.050781 L 62.027344 27.605469 C 64.402344 29.957031 64.417969 33.785156 62.058594 36.15625 L 36.460938 61.917969 C 34.105469 64.289062 30.269531 64.304688 27.894531 61.949219 L 2.085938 36.394531 C -0.289062 34.042969 -0.304688 30.214844 2.050781 27.84375 L 27.652344 2.082031 C 30.007812 -0.289062 33.84375 -0.304688 36.21875 2.050781 Z M 36.21875 2.050781 " /><g transform="matrix(1.0075098,0,0,1.0032698,16.221436,16.077397)"><path fill-rule="nonzero" fill="rgb(100%, 100%, 100%)" fill-opacity="1" d="M 16.09375 0.898438 C 14.15625 0.898438 12.59375 2.609375 12.59375 4.730469 C 12.59375 5.414062 12.765625 6.09375 13.085938 6.683594 L 11.476562 8.804688 C 11.085938 8.648438 10.679688 8.5625 10.265625 8.5625 C 8.332031 8.5625 6.765625 10.28125 6.765625 12.398438 C 6.765625 13.085938 6.9375 13.761719 7.257812 14.351562 L 5.648438 16.476562 C 5.257812 16.3125 4.847656 16.234375 4.433594 16.230469 C 2.503906 16.230469 0.9375 17.945312 0.9375 20.0625 C 0.9375 22.179688 2.503906 23.898438 4.433594 23.898438 C 6.367188 23.898438 7.929688 22.179688 7.929688 20.0625 C 7.929688 19.375 7.757812 18.703125 7.4375 18.109375 L 9.046875 15.992188 C 9.4375 16.148438 9.851562 16.230469 10.265625 16.230469 C 10.679688 16.226562 11.085938 16.148438 11.476562 15.988281 L 13.089844 18.109375 C 12.765625 18.703125 12.597656 19.375 12.59375 20.0625 C 12.59375 20.753906 12.765625 21.429688 13.085938 22.015625 L 11.476562 24.140625 C 11.085938 23.984375 10.679688 23.898438 10.265625 23.898438 C 8.332031 23.898438 6.765625 25.617188 6.765625 27.734375 C 6.765625 29.851562 8.332031 31.566406 10.265625 31.566406 C 12.195312 31.566406 13.757812 29.851562 13.757812 27.734375 C 13.757812 27.042969 13.585938 26.367188 13.265625 25.78125 L 14.875 23.660156 C 15.265625 23.816406 15.679688 23.898438 16.09375 23.898438 C 16.503906 23.898438 16.914062 23.8125 17.304688 23.65625 L 18.914062 25.78125 C 18.59375 26.367188 18.421875 27.042969 18.421875 27.734375 C 18.421875 29.851562 19.988281 31.566406 21.917969 31.566406 C 23.851562 31.566406 25.414062 29.851562 25.414062 27.734375 C 25.414062 25.617188 23.851562 23.898438 21.917969 23.898438 C 21.503906 23.898438 21.09375 23.980469 20.707031 24.140625 L 19.09375 22.015625 C 19.414062 21.429688 19.585938 20.753906 19.585938 20.0625 C 19.585938 17.945312 18.023438 16.230469 16.09375 16.230469 C 15.679688 16.230469 15.265625 16.3125 14.875 16.476562 L 13.265625 14.351562 C 13.585938 13.761719 13.757812 13.085938 13.757812 12.398438 C 13.757812 11.710938 13.585938 11.035156 13.265625 10.441406 L 14.875 8.324219 C 15.265625 8.484375 15.679688 8.5625 16.09375 8.5625 C 16.503906 8.5625 16.914062 8.480469 17.304688 8.320312 L 18.914062 10.441406 C 18.59375 11.03125 18.421875 11.710938 18.421875 12.398438 C 18.421875 14.515625 19.988281 16.230469 21.917969 16.230469 C 22.332031 16.226562 22.742188 16.148438 23.132812 15.988281 L 24.742188 18.109375 C 24.421875 18.703125 24.25 19.375 24.25 20.0625 C 24.25 22.179688 25.816406 23.898438 27.75 23.898438 C 29.679688 23.898438 31.242188 22.179688 31.242188 20.0625 C 31.242188 17.945312 29.679688 16.230469 27.75 16.230469 C 27.332031 16.230469 26.921875 16.3125 26.535156 16.46875 L 24.921875 14.351562 C 25.242188 13.761719 25.414062 13.085938 25.414062 12.398438 C 25.414062 10.28125 23.851562 8.5625 21.917969 8.5625 C 21.507812 8.5625 21.09375 8.648438 20.710938 8.804688 L 19.09375 6.683594 C 19.414062 6.09375 19.585938 5.414062 19.585938 4.730469 C 19.585938 2.609375 18.023438 0.898438 16.09375 0.898438 "/></g></svg>
