<svg width="64" height="64" viewBox="0 0 64 64" version="1.1"><defs><linearGradient id="linear-pattern-0" gradientUnits="userSpaceOnUse" x1="0" y1="0" x2="0" y2="1" gradientTransform="matrix(60, 0, 0, 56, 0, 4)"><stop offset="0" stop-color="#aaaa00" stop-opacity="1"/><stop offset="1" stop-color="#5c5c00" stop-opacity="1"/></linearGradient></defs><path fill="url(#linear-pattern-0)" fill-opacity="1" d="M 36.21875 2.050781 L 62.027344 27.605469 C 64.402344 29.957031 64.417969 33.785156 62.058594 36.15625 L 36.460938 61.917969 C 34.105469 64.289062 30.269531 64.304688 27.894531 61.949219 L 2.085938 36.394531 C -0.289062 34.042969 -0.304688 30.214844 2.050781 27.84375 L 27.652344 2.082031 C 30.007812 -0.289062 33.84375 -0.304688 36.21875 2.050781 Z M 36.21875 2.050781 " /><g transform="matrix(1.0075098,0,0,1.0032698,16.221436,16.077397)"><path fill-rule="nonzero" fill="rgb(100%, 100%, 100%)" fill-opacity="1" d="M 6.339844 0.90625 C 6.289062 0.90625 6.234375 0.910156 6.171875 0.921875 C 5.933594 0.960938 5.644531 1.046875 5.296875 1.21875 C 4.605469 1.53125 3.816406 2.484375 3.84375 3.773438 L 3.84375 29.472656 C 3.84375 31.375 5.707031 31.375 5.707031 31.375 L 28.023438 31.375 L 28.023438 4.726562 L 26.160156 4.726562 L 26.160156 2.828125 L 28.023438 2.828125 L 28.023438 0.921875 L 6.636719 0.921875 C 6.609375 0.921875 6.492188 0.902344 6.339844 0.90625 M 6.539062 2.820312 C 6.601562 2.8125 6.636719 2.828125 6.636719 2.828125 L 24.304688 2.828125 L 24.304688 4.730469 L 6.636719 4.730469 C 6.625 4.730469 6.554688 4.6875 6.460938 4.664062 C 6.300781 4.640625 6.074219 4.554688 5.9375 4.429688 C 5.8125 4.304688 5.722656 4.253906 5.707031 3.773438 C 5.734375 3.160156 5.878906 3.105469 6.117188 2.9375 C 6.234375 2.878906 6.351562 2.84375 6.460938 2.820312 L 6.460938 2.828125 C 6.492188 2.820312 6.515625 2.820312 6.539062 2.8125 M 16.554688 9.890625 C 18.015625 9.890625 19.320312 10.195312 20.464844 10.804688 C 21.613281 11.414062 22.5 12.28125 23.125 13.410156 C 23.746094 14.539062 24.054688 15.839844 24.054688 17.3125 C 24.054688 18.289062 23.90625 19.183594 23.597656 20 C 23.292969 20.8125 22.863281 21.445312 22.304688 21.902344 C 21.75 22.359375 21.101562 22.585938 20.367188 22.585938 C 19.875 22.585938 19.4375 22.46875 19.050781 22.226562 C 18.671875 21.984375 18.40625 21.664062 18.25 21.273438 L 18.085938 21.273438 C 17.761719 21.679688 17.367188 22 16.90625 22.242188 C 16.4375 22.472656 15.921875 22.585938 15.351562 22.585938 C 14.179688 22.585938 13.253906 22.226562 12.578125 21.507812 C 11.902344 20.78125 11.558594 19.789062 11.558594 18.539062 C 11.558594 17.125 12 15.976562 12.875 15.089844 C 13.757812 14.210938 14.925781 13.765625 16.375 13.765625 C 16.914062 13.765625 17.53125 13.820312 18.238281 13.929688 C 18.941406 14.03125 19.515625 14.164062 19.957031 14.328125 L 19.726562 19.304688 C 19.726562 20.257812 19.976562 20.734375 20.484375 20.734375 C 20.910156 20.734375 21.246094 20.414062 21.5 19.785156 C 21.75 19.148438 21.878906 18.316406 21.878906 17.289062 C 21.878906 16.199219 21.65625 15.234375 21.210938 14.398438 C 20.773438 13.554688 20.148438 12.910156 19.339844 12.46875 C 18.539062 12.023438 17.617188 11.796875 16.578125 11.796875 C 15.242188 11.796875 14.078125 12.085938 13.085938 12.65625 C 12.085938 13.226562 11.328125 14.039062 10.804688 15.101562 C 10.28125 16.15625 10.019531 17.382812 10.019531 18.765625 C 10.019531 20.648438 10.507812 22.089844 11.484375 23.09375 C 12.460938 24.09375 13.882812 24.589844 15.742188 24.589844 C 16.484375 24.589844 17.28125 24.507812 18.128906 24.335938 C 18.976562 24.171875 19.78125 23.9375 20.546875 23.640625 L 20.546875 25.609375 C 19.140625 26.222656 17.5625 26.523438 15.820312 26.523438 C 13.296875 26.523438 11.332031 25.847656 9.921875 24.488281 C 8.515625 23.128906 7.8125 21.246094 7.8125 18.828125 C 7.8125 17.148438 8.171875 15.625 8.894531 14.253906 C 9.625 12.882812 10.65625 11.8125 11.992188 11.046875 C 13.328125 10.273438 14.84375 9.882812 16.554688 9.882812 M 16.5 15.617188 C 15.664062 15.617188 15.015625 15.882812 14.554688 16.414062 C 14.101562 16.941406 13.871094 17.667969 13.871094 18.582031 C 13.871094 20.015625 14.4375 20.734375 15.578125 20.734375 C 16.171875 20.734375 16.621094 20.515625 16.933594 20.085938 C 17.25 19.65625 17.445312 18.945312 17.511719 17.96875 L 17.640625 15.71875 C 17.335938 15.65625 16.953125 15.617188 16.5 15.617188 "/></g></svg>
