<svg width="64" height="64" viewBox="0 0 64 64" version="1.1"><defs><linearGradient id="linear-pattern-0" gradientUnits="userSpaceOnUse" x1="0" y1="0" x2="0" y2="1" gradientTransform="matrix(60, 0, 0, 56, 0, 4)"><stop offset="0" stop-color="#8900e4" stop-opacity="1"/><stop offset="1" stop-color="#42006e" stop-opacity="1"/></linearGradient></defs><path fill="url(#linear-pattern-0)" fill-opacity="1" d="M 36.21875 2.050781 L 62.027344 27.605469 C 64.402344 29.957031 64.417969 33.785156 62.058594 36.15625 L 36.460938 61.917969 C 34.105469 64.289062 30.269531 64.304688 27.894531 61.949219 L 2.085938 36.394531 C -0.289062 34.042969 -0.304688 30.214844 2.050781 27.84375 L 27.652344 2.082031 C 30.007812 -0.289062 33.84375 -0.304688 36.21875 2.050781 Z M 36.21875 2.050781 " /><g transform="matrix(1.0075098,0,0,1.0032698,16.221436,16.077397)"><path fill-rule="evenodd" fill="rgb(100%, 100%, 100%)" fill-opacity="1" d="M 22.671875 32 L 26.15625 31.921875 C 27.148438 30.851562 27.863281 29.742188 28.382812 28.632812 C 28.894531 27.519531 29.171875 26.328125 29.292969 25.023438 C 29.292969 24.070312 29.25 23.117188 29.171875 22.203125 C 29.09375 21.296875 28.933594 20.421875 28.617188 19.628906 C 28.0625 18.242188 27.1875 17.050781 25.960938 16.0625 C 24.734375 15.027344 23.699219 14.273438 22.789062 13.800781 L 23.265625 12.015625 L 23.617188 11.898438 L 23.617188 10.1875 L 20.132812 10.1875 C 19.457031 11.222656 19.101562 12.015625 18.941406 12.648438 L 18.820312 12.609375 L 15.453125 12.609375 C 14.738281 12.648438 14.0625 12.726562 13.429688 12.925781 L 13.585938 8.523438 L 19.0625 8.289062 C 21.121094 8.207031 23.304688 7.96875 25.679688 7.574219 L 25.679688 5.710938 L 19.179688 6.265625 C 17.355469 6.421875 15.570312 6.542969 13.75 6.621094 L 13.75 0 L 9.980469 0 L 9.980469 5.511719 C 9.980469 6.105469 9.9375 6.542969 9.898438 6.78125 L 8.117188 6.703125 L 2.960938 6.703125 L 2.960938 8.523438 L 5.738281 8.644531 L 9.742188 8.644531 L 9.585938 10.703125 L 9.585938 14.511719 C 9.265625 14.671875 8.789062 14.949219 8.195312 15.34375 C 7.601562 15.703125 7.046875 16.140625 6.492188 16.613281 C 5.460938 17.523438 4.625 18.515625 3.992188 19.628906 C 3.320312 20.695312 2.921875 21.890625 2.726562 23.15625 C 2.683594 24.070312 2.726562 25.023438 2.84375 25.933594 C 2.960938 26.882812 3.320312 27.71875 3.992188 28.429688 C 4.507812 28.945312 5.140625 29.226562 5.816406 29.382812 L 9.585938 29.382812 C 10.375 29.226562 11.050781 29.023438 11.648438 28.75 C 11.804688 29.382812 12.042969 30.175781 12.4375 31.167969 L 16.125 31.167969 C 15.929688 29.976562 15.769531 29.066406 15.570312 28.390625 C 15.371094 27.71875 15.214844 27.085938 15.09375 26.40625 L 15.253906 26.25 C 16.722656 24.742188 18.03125 23.195312 19.101562 21.492188 C 20.210938 19.785156 20.964844 18.199219 21.480469 16.734375 L 22.632812 17.605469 C 23.582031 18.4375 24.257812 19.351562 24.691406 20.421875 C 25.167969 21.492188 25.40625 22.601562 25.484375 23.832031 C 25.40625 25.0625 25.167969 26.210938 24.734375 27.28125 C 24.296875 28.351562 23.617188 29.421875 22.671875 30.492188 Z M 9.625 26.488281 L 7.957031 27.28125 C 7.835938 27.28125 7.679688 27.164062 7.523438 26.964844 C 7.007812 26.367188 6.648438 25.617188 6.53125 24.78125 C 6.492188 23.832031 6.648438 22.921875 7.046875 22.125 C 7.402344 21.296875 7.917969 20.460938 8.554688 19.667969 C 9.148438 18.875 9.546875 18.359375 9.742188 18.082031 C 9.859375 18.757812 9.980469 19.785156 10.21875 21.171875 C 10.414062 22.5625 10.65625 23.910156 10.972656 25.21875 L 10.972656 25.335938 Z M 13.945312 19.785156 L 13.46875 16.335938 L 13.507812 15.820312 C 13.828125 15.625 14.304688 15.386719 14.859375 15.148438 C 15.453125 14.910156 16.046875 14.75 16.640625 14.632812 C 17.355469 14.632812 17.832031 14.710938 18.070312 14.828125 C 17.671875 16.101562 17.078125 17.40625 16.246094 18.835938 C 15.648438 19.90625 14.976562 20.9375 14.261719 21.929688 C 14.222656 21.453125 14.101562 20.738281 13.945312 19.785156 Z M 13.945312 19.785156 "/></g></svg>
