<svg width="64" height="64" viewBox="0 0 64 64" version="1.1"><defs><linearGradient id="linear-pattern-0" gradientUnits="userSpaceOnUse" x1="0" y1="0" x2="0" y2="1" gradientTransform="matrix(60, 0, 0, 56, 0, 4)"><stop offset="0" stop-color="#ec7700" stop-opacity="1"/><stop offset="1" stop-color="#773c00" stop-opacity="1"/></linearGradient></defs><path fill="url(#linear-pattern-0)" fill-opacity="1" d="M 36.21875 2.050781 L 62.027344 27.605469 C 64.402344 29.957031 64.417969 33.785156 62.058594 36.15625 L 36.460938 61.917969 C 34.105469 64.289062 30.269531 64.304688 27.894531 61.949219 L 2.085938 36.394531 C -0.289062 34.042969 -0.304688 30.214844 2.050781 27.84375 L 27.652344 2.082031 C 30.007812 -0.289062 33.84375 -0.304688 36.21875 2.050781 Z M 36.21875 2.050781 " /><g transform="matrix(1.0075098,0,0,1.0032698,16.221436,16.077397)"><path fill-rule="nonzero" fill="rgb(100%, 100%, 100%)" fill-opacity="1" d="M 19.597656 7.53125 C 19.417969 7.574219 19.257812 7.667969 19.132812 7.804688 L 17.554688 9.425781 C 17.34375 9.515625 17.179688 9.679688 17.089844 9.890625 L 15.429688 11.507812 C 15.265625 11.671875 15.171875 11.894531 15.171875 12.125 C 15.171875 12.359375 15.265625 12.578125 15.429688 12.742188 C 15.59375 12.90625 15.816406 13 16.046875 13 C 16.28125 13 16.5 12.90625 16.664062 12.742188 L 17.898438 11.507812 L 20.832031 14.402344 C 19.671875 15.078125 17.734375 15.828125 14.8125 15.828125 C 9.507812 15.828125 7.40625 13.359375 7.40625 13.359375 L 7.40625 12.625 C 7.40625 11.179688 6.839844 9.796875 5.828125 8.765625 C 5.523438 8.460938 5.085938 8.328125 4.664062 8.421875 C 4.203125 8.503906 3.832031 8.839844 3.703125 9.289062 C 3.574219 9.742188 3.707031 10.226562 4.050781 10.546875 C 4.546875 11.039062 4.9375 11.878906 4.9375 12.625 L 4.9375 13.359375 L 3.320312 13.359375 C 2.210938 13.359375 1.234375 14.210938 1.234375 15.445312 L 1.234375 18.296875 L 1.117188 18.296875 C 0.5 18.296875 0 18.800781 0 19.414062 L 0 20.765625 C 0 21.507812 0.5 22 1.117188 22 L 2.46875 22 L 2.46875 21.382812 C 2.46875 23.109375 3.828125 24.46875 5.554688 24.46875 C 7.023438 24.480469 8.289062 23.441406 8.5625 22 L 23.453125 22 C 23.453125 21.753906 23.339844 21.632812 23.339844 21.382812 C 23.339844 20.6875 23.542969 20.046875 23.917969 19.53125 L 24.070312 19.53125 C 23.691406 20.046875 23.453125 20.6875 23.453125 21.382812 C 23.453125 23.109375 24.816406 24.46875 26.542969 24.46875 C 28.007812 24.480469 29.273438 23.441406 29.554688 22 L 30.859375 22 C 31.480469 22 31.980469 21.5 31.980469 20.882812 L 31.980469 19.53125 C 32.105469 18.789062 31.59375 18.296875 30.976562 18.296875 L 30.476562 18.296875 C 28.851562 15.445312 22.21875 13.359375 22.21875 13.359375 L 19.132812 10.273438 L 20.367188 9.039062 C 20.640625 8.792969 20.726562 8.40625 20.59375 8.070312 C 20.453125 7.734375 20.117188 7.515625 19.75 7.53125 C 19.699219 7.527344 19.648438 7.527344 19.597656 7.53125 Z M 5.554688 20.265625 C 5.953125 20.265625 6.324219 20.480469 6.523438 20.828125 C 6.726562 21.171875 6.726562 21.601562 6.523438 21.945312 C 6.324219 22.292969 5.953125 22.507812 5.554688 22.507812 C 4.9375 22.503906 4.433594 22.003906 4.433594 21.382812 C 4.4375 20.765625 4.9375 20.265625 5.554688 20.265625 Z M 26.542969 20.265625 C 26.941406 20.265625 27.3125 20.480469 27.507812 20.828125 C 27.710938 21.171875 27.710938 21.601562 27.507812 21.945312 C 27.3125 22.292969 26.9375 22.507812 26.539062 22.507812 C 25.921875 22.503906 25.421875 22.003906 25.421875 21.382812 C 25.421875 20.765625 25.921875 20.265625 26.542969 20.265625 Z M 8.640625 21.382812 C 8.640625 21.570312 8.617188 21.691406 8.5625 21.847656 C 8.585938 21.691406 8.640625 21.546875 8.640625 21.382812 Z M 29.628906 21.382812 C 29.628906 21.570312 29.601562 21.691406 29.550781 21.847656 C 29.574219 21.691406 29.628906 21.546875 29.628906 21.382812 Z M 29.628906 21.382812 "/></g></svg>
