<svg width="64" height="64" viewBox="0 0 64 64" version="1.1"><defs><linearGradient id="linear-pattern-0" gradientUnits="userSpaceOnUse" x1="0" y1="0" x2="0" y2="1" gradientTransform="matrix(60, 0, 0, 56, 0, 4)"><stop offset="0" stop-color="#aaaa00" stop-opacity="1"/><stop offset="1" stop-color="#5c5c00" stop-opacity="1"/></linearGradient></defs><path fill="url(#linear-pattern-0)" fill-opacity="1" d="M 36.21875 2.050781 L 62.027344 27.605469 C 64.402344 29.957031 64.417969 33.785156 62.058594 36.15625 L 36.460938 61.917969 C 34.105469 64.289062 30.269531 64.304688 27.894531 61.949219 L 2.085938 36.394531 C -0.289062 34.042969 -0.304688 30.214844 2.050781 27.84375 L 27.652344 2.082031 C 30.007812 -0.289062 33.84375 -0.304688 36.21875 2.050781 Z M 36.21875 2.050781 " /><g transform="matrix(1.0075098,0,0,1.0032698,16.221436,16.077397)"><path fill-rule="nonzero" fill="rgb(100%, 100%, 100%)" fill-opacity="1" d="M 7.667969 0.789062 C 7.207031 0.789062 6.832031 1.1875 6.832031 1.671875 L 6.832031 3.4375 C 6.832031 3.929688 7.207031 4.320312 7.667969 4.320312 C 8.125 4.320312 8.5 3.929688 8.5 3.4375 L 8.5 1.671875 C 8.5 1.1875 8.125 0.789062 7.667969 0.789062 M 22.679688 0.789062 C 22.222656 0.789062 21.851562 1.1875 21.851562 1.671875 L 21.851562 3.4375 C 21.851562 3.929688 22.222656 4.320312 22.679688 4.320312 C 23.140625 4.320312 23.515625 3.929688 23.515625 3.4375 L 23.515625 1.671875 C 23.515625 1.1875 23.140625 0.789062 22.679688 0.789062 M 5.96875 2.554688 C 4.601562 2.570312 3.5 3.75 3.5 5.203125 L 3.5 26.402344 C 3.5 27.867188 4.609375 29.050781 6 29.050781 L 9.242188 29.050781 C 9.667969 27.171875 10.453125 25.375 10.898438 23.511719 C 13.046875 20.851562 15.484375 18.4375 17.820312 15.96875 C 19.390625 14.398438 20.84375 12.6875 22.410156 11.125 C 23.335938 10.210938 24.125 8.777344 25.542969 8.71875 C 25.59375 8.710938 25.636719 8.710938 25.679688 8.710938 C 26.085938 8.710938 26.476562 8.796875 26.851562 8.929688 L 26.851562 5.203125 C 26.851562 3.746094 25.757812 2.570312 24.382812 2.554688 L 24.382812 3.4375 C 24.382812 4.421875 23.609375 5.234375 22.679688 5.234375 C 21.75 5.234375 20.984375 4.414062 20.984375 3.4375 L 20.984375 2.554688 L 9.363281 2.554688 L 9.363281 3.4375 C 9.363281 4.414062 8.597656 5.234375 7.667969 5.234375 C 6.742188 5.234375 5.96875 4.421875 5.96875 3.4375 L 5.96875 2.554688 M 25.617188 10.238281 C 25.375 10.25 25.164062 10.335938 25.015625 10.492188 L 25.003906 10.503906 L 23.816406 11.765625 L 28.898438 17.136719 L 30.066406 15.894531 L 30.085938 15.875 C 30.089844 15.875 30.089844 15.867188 30.09375 15.867188 C 30.644531 15.265625 30.222656 13.867188 29.140625 12.726562 L 27.992188 11.503906 C 27.242188 10.710938 26.378906 10.253906 25.730469 10.238281 C 25.695312 10.238281 25.65625 10.234375 25.625 10.238281 L 25.617188 10.238281 M 7.859375 11.21875 L 21.054688 11.21875 C 20.375 11.953125 19.679688 12.679688 18.988281 13.40625 L 7.859375 13.40625 C 7.289062 13.40625 6.828125 12.921875 6.828125 12.3125 C 6.828125 11.707031 7.289062 11.21875 7.859375 11.21875 M 23.164062 12.460938 L 21.90625 13.792969 L 26.984375 19.171875 L 28.238281 17.832031 L 23.164062 12.460938 M 21.125 14.613281 L 13.460938 22.726562 L 12.515625 23.726562 L 12.273438 23.980469 L 10.363281 30.324219 C 10.296875 30.664062 10.394531 31.015625 10.617188 31.238281 C 10.824219 31.40625 11.082031 31.4375 11.316406 31.339844 L 17.398438 29.3125 L 17.59375 29.097656 L 18.507812 28.128906 L 26.203125 19.984375 L 21.125 14.613281 M 7.859375 16.757812 L 15.769531 16.757812 C 15.078125 17.480469 14.382812 18.203125 13.703125 18.945312 L 7.859375 18.945312 C 7.289062 18.945312 6.828125 18.453125 6.828125 17.847656 C 6.828125 17.242188 7.289062 16.757812 7.859375 16.757812 M 26.851562 21.460938 C 24.492188 23.949219 22.128906 26.4375 19.78125 28.929688 C 19.78125 28.96875 19.773438 29.011719 19.773438 29.050781 L 24.355469 29.050781 C 25.742188 29.050781 26.851562 27.867188 26.851562 26.402344 L 26.851562 21.460938 M 7.859375 22.289062 L 10.742188 22.289062 C 10.59375 22.46875 10.441406 22.648438 10.292969 22.832031 C 9.992188 23.34375 9.828125 23.90625 9.679688 24.480469 L 7.859375 24.480469 C 7.289062 24.480469 6.824219 23.992188 6.824219 23.386719 C 6.824219 22.78125 7.289062 22.289062 7.859375 22.289062 M 13.617188 24.90625 C 13.625 24.90625 13.632812 24.90625 13.640625 24.90625 C 13.699219 24.90625 13.757812 24.9375 13.796875 24.976562 L 14.242188 25.449219 L 15.90625 25.359375 C 15.960938 25.359375 16.015625 25.375 16.0625 25.414062 C 16.109375 25.464844 16.136719 25.53125 16.132812 25.601562 L 16.054688 27.523438 L 16.382812 27.867188 C 16.4375 27.925781 16.460938 28.011719 16.4375 28.09375 C 16.421875 28.171875 16.359375 28.234375 16.285156 28.257812 L 13.417969 29.070312 C 13.34375 29.089844 13.261719 29.070312 13.203125 29.011719 L 12.648438 28.421875 C 12.59375 28.363281 12.570312 28.273438 12.59375 28.195312 L 13.429688 25.078125 C 13.453125 24.984375 13.53125 24.914062 13.617188 24.90625 M 18.285156 28.992188 L 18.230469 29.050781 L 18.285156 29.050781 Z M 18.285156 28.992188 "/></g></svg>
