<svg width="64" height="64" viewBox="0 0 64 64" version="1.1"><defs><linearGradient id="linear-pattern-0" gradientUnits="userSpaceOnUse" x1="0" y1="0" x2="0" y2="1" gradientTransform="matrix(60, 0, 0, 56, 0, 4)"><stop offset="0" stop-color="#ec7700" stop-opacity="1"/><stop offset="1" stop-color="#773c00" stop-opacity="1"/></linearGradient></defs><path fill="url(#linear-pattern-0)" fill-opacity="1" d="M 36.21875 2.050781 L 62.027344 27.605469 C 64.402344 29.957031 64.417969 33.785156 62.058594 36.15625 L 36.460938 61.917969 C 34.105469 64.289062 30.269531 64.304688 27.894531 61.949219 L 2.085938 36.394531 C -0.289062 34.042969 -0.304688 30.214844 2.050781 27.84375 L 27.652344 2.082031 C 30.007812 -0.289062 33.84375 -0.304688 36.21875 2.050781 Z M 36.21875 2.050781 " /><g transform="matrix(1.0075098,0,0,1.0032698,16.221436,16.077397)"><path fill-rule="nonzero" fill="rgb(100%, 100%, 100%)" fill-opacity="1" d="M 6.523438 5.277344 C 6.382812 5.265625 6.246094 5.3125 6.132812 5.421875 L 3.707031 7.851562 C 3.484375 8.074219 3.484375 8.4375 3.707031 8.65625 L 6.214844 12.59375 C 6.015625 13 5.839844 13.417969 5.695312 13.84375 L 1.140625 14.859375 C 0.824219 14.859375 0.570312 15.109375 0.570312 15.429688 L 0.570312 18.859375 C 0.570312 19.171875 0.832031 19.359375 1.140625 19.429688 L 5.695312 20.441406 C 5.835938 20.867188 6.007812 21.28125 6.203125 21.679688 L 3.6875 25.625 C 3.519531 25.894531 3.46875 26.210938 3.6875 26.4375 L 6.113281 28.859375 C 6.335938 29.085938 6.695312 29.085938 6.921875 28.859375 L 10.867188 26.347656 C 11.277344 26.550781 11.695312 26.726562 12.128906 26.875 L 13.140625 31.429688 C 13.140625 31.746094 13.394531 32 13.710938 32 L 17.140625 32 C 17.457031 32 17.640625 31.738281 17.710938 31.429688 L 18.726562 26.875 C 19.15625 26.726562 19.574219 26.558594 19.984375 26.359375 L 23.910156 28.859375 C 24.132812 29.085938 24.492188 29.085938 24.71875 28.859375 L 27.144531 26.4375 C 27.367188 26.210938 27.3125 25.894531 27.144531 25.625 L 26.074219 23.945312 L 25.273438 24.265625 L 22.714844 20.421875 C 21.421875 23.292969 18.570312 25.140625 15.425781 25.140625 C 11.007812 25.140625 7.425781 21.5625 7.425781 17.140625 C 7.429688 14.054688 9.210938 11.246094 12 9.921875 L 12 7.464844 C 11.613281 7.59375 11.234375 7.75 10.871094 7.925781 L 6.941406 5.421875 C 6.808594 5.339844 6.664062 5.28125 6.523438 5.277344 Z M 6.523438 5.277344 "/><path fill-rule="nonzero" fill="rgb(100%, 100%, 100%)" fill-opacity="1" d="M 18.855469 0 L 13.140625 0.53125 L 13.140625 22.859375 L 18.855469 21.714844 L 18.855469 12.570312 L 25.710938 22.859375 L 31.425781 20.570312 L 24 10.953125 L 31.429688 1.140625 L 25.445312 0 L 18.855469 9.714844 Z M 18.855469 0 "/></g></svg>
