<svg width="64" height="64" viewBox="0 0 64 64" version="1.1"><defs><linearGradient id="linear-pattern-0" gradientUnits="userSpaceOnUse" x1="0" y1="0" x2="0" y2="1" gradientTransform="matrix(60, 0, 0, 56, 0, 4)"><stop offset="0" stop-color="#8900e4" stop-opacity="1"/><stop offset="1" stop-color="#42006e" stop-opacity="1"/></linearGradient></defs><path fill="url(#linear-pattern-0)" fill-opacity="1" d="M 36.21875 2.050781 L 62.027344 27.605469 C 64.402344 29.957031 64.417969 33.785156 62.058594 36.15625 L 36.460938 61.917969 C 34.105469 64.289062 30.269531 64.304688 27.894531 61.949219 L 2.085938 36.394531 C -0.289062 34.042969 -0.304688 30.214844 2.050781 27.84375 L 27.652344 2.082031 C 30.007812 -0.289062 33.84375 -0.304688 36.21875 2.050781 Z M 36.21875 2.050781 " /><g transform="matrix(1.0075098,0,0,1.0032698,16.221436,16.077397)"><path fill-rule="nonzero" fill="rgb(100%, 100%, 100%)" fill-opacity="1" d="M 9.128906 0 C 6.253906 0.03125 4.148438 -0.0703125 2.429688 0.878906 C 1.570312 1.351562 0.890625 2.15625 0.511719 3.160156 C 0.132812 4.164062 0 5.351562 0 6.855469 L 0 25.617188 L 0.335938 25.949219 L 6.382812 32 L 22.871094 32 C 25.746094 31.96875 27.851562 32.070312 29.570312 31.121094 C 30.429688 30.648438 31.109375 29.84375 31.488281 28.839844 C 31.867188 27.835938 32 26.648438 32 25.144531 L 32 6.855469 C 32 5.351562 31.867188 4.164062 31.488281 3.160156 C 31.109375 2.15625 30.429688 1.351562 29.570312 0.878906 C 27.851562 -0.0703125 25.746094 0.03125 22.871094 0 Z M 9.144531 2.285156 L 22.859375 2.285156 C 25.734375 2.320312 27.632812 2.421875 28.46875 2.882812 C 28.890625 3.113281 29.125 3.371094 29.347656 3.964844 C 29.570312 4.558594 29.714844 5.5 29.714844 6.855469 L 29.714844 25.144531 C 29.714844 26.5 29.570312 27.441406 29.347656 28.035156 C 29.125 28.628906 28.890625 28.886719 28.46875 29.117188 C 27.898438 29.429688 26.667969 29.554688 25.144531 29.625 L 25.144531 18.285156 L 6.855469 18.285156 L 6.855469 29.238281 L 2.285156 24.667969 L 2.285156 6.855469 C 2.285156 5.5 2.429688 4.558594 2.652344 3.964844 C 2.875 3.371094 3.117188 3.113281 3.535156 2.882812 C 4.371094 2.421875 6.265625 2.320312 9.144531 2.285156 Z M 11.429688 20.570312 L 16 20.570312 L 16 29.714844 L 11.429688 29.714844 Z M 11.429688 20.570312 "/></g></svg>
