<svg width="64" height="64" viewBox="0 0 64 64" version="1.1"><defs><linearGradient id="linear-pattern-0" gradientUnits="userSpaceOnUse" x1="0" y1="0" x2="0" y2="1" gradientTransform="matrix(60, 0, 0, 56, 0, 4)"><stop offset="0" stop-color="#7795ab" stop-opacity="1"/><stop offset="1" stop-color="#3b4f5f" stop-opacity="1"/></linearGradient></defs><path fill="url(#linear-pattern-0)" fill-opacity="1" d="M 36.21875 2.050781 L 62.027344 27.605469 C 64.402344 29.957031 64.417969 33.785156 62.058594 36.15625 L 36.460938 61.917969 C 34.105469 64.289062 30.269531 64.304688 27.894531 61.949219 L 2.085938 36.394531 C -0.289062 34.042969 -0.304688 30.214844 2.050781 27.84375 L 27.652344 2.082031 C 30.007812 -0.289062 33.84375 -0.304688 36.21875 2.050781 Z M 36.21875 2.050781 " /><g transform="matrix(1.0075098,0,0,1.0032698,16.221436,16.077397)"><path fill-rule="nonzero" fill="rgb(100%, 100%, 100%)" fill-opacity="1" d="M 16.085938 1.003906 C 13.796875 1.003906 11.929688 2.84375 11.929688 5.09375 C 11.929688 7.335938 13.796875 9.136719 16.085938 9.136719 C 18.375 9.136719 20.242188 7.335938 20.242188 5.09375 C 20.242188 2.84375 18.375 1.003906 16.085938 1.003906 M 16.085938 11.832031 C 13.796875 11.832031 11.929688 13.671875 11.929688 15.917969 C 11.929688 18.167969 13.796875 19.960938 16.085938 19.960938 C 18.375 19.960938 20.242188 18.167969 20.242188 15.917969 C 20.242188 13.671875 18.375 11.832031 16.085938 11.832031 M 5.074219 22.65625 C 2.789062 22.65625 0.921875 24.5 0.921875 26.746094 C 0.921875 28.996094 2.789062 30.835938 5.074219 30.835938 C 7.359375 30.835938 9.183594 28.996094 9.183594 26.746094 C 9.183594 24.5 7.359375 22.65625 5.074219 22.65625 M 16.085938 22.65625 C 13.796875 22.65625 11.929688 24.5 11.929688 26.746094 C 11.929688 28.996094 13.796875 30.835938 16.085938 30.835938 C 18.375 30.835938 20.242188 28.996094 20.242188 26.746094 C 20.242188 24.5 18.375 22.65625 16.085938 22.65625 M 27.09375 22.65625 C 24.808594 22.65625 22.984375 24.5 22.984375 26.746094 C 22.984375 28.996094 24.808594 30.835938 27.09375 30.835938 C 29.382812 30.835938 31.25 28.996094 31.25 26.746094 C 31.25 24.5 29.382812 22.65625 27.09375 22.65625 "/></g></svg>
