<svg width="64" height="64" viewBox="0 0 64 64" version="1.1"><defs><linearGradient id="linear-pattern-0" gradientUnits="userSpaceOnUse" x1="0" y1="0" x2="0" y2="1" gradientTransform="matrix(60, 0, 0, 56, 0, 4)"><stop offset="0" stop-color="#d00068" stop-opacity="1"/><stop offset="1" stop-color="#6e0037" stop-opacity="1"/></linearGradient></defs><path fill="url(#linear-pattern-0)" fill-opacity="1" d="M 36.21875 2.050781 L 62.027344 27.605469 C 64.402344 29.957031 64.417969 33.785156 62.058594 36.15625 L 36.460938 61.917969 C 34.105469 64.289062 30.269531 64.304688 27.894531 61.949219 L 2.085938 36.394531 C -0.289062 34.042969 -0.304688 30.214844 2.050781 27.84375 L 27.652344 2.082031 C 30.007812 -0.289062 33.84375 -0.304688 36.21875 2.050781 Z M 36.21875 2.050781 " /><g transform="matrix(1.0075098,0,0,1.0032698,16.221436,16.077397)"><path fill-rule="nonzero" fill="rgb(100%, 100%, 100%)" fill-opacity="1" d="M 18.765625 11.359375 L 22.359375 11.359375 C 23.195312 11.359375 23.617188 11.292969 23.617188 10.621094 C 23.617188 10.25 23.195312 10.210938 22.492188 10.183594 L 19.015625 10.183594 L 19.886719 6.140625 C 20.0625 5.4375 20.648438 3.054688 20.90625 2.648438 C 21.28125 2.007812 21.984375 1.503906 22.867188 1.503906 C 23.023438 1.503906 24.117188 1.503906 24.914062 2.117188 C 23.078125 2.238281 22.65625 3.421875 22.65625 3.929688 C 22.65625 4.695312 23.40625 5.101562 24.210938 5.101562 C 25.296875 5.101562 26.507812 4.359375 26.507812 3.082031 C 26.507812 1.539062 24.574219 0.769531 22.867188 0.769531 C 21.4375 0.769531 18.804688 1.367188 17.554688 4.695312 C 17.308594 5.40625 17.171875 5.945312 16.171875 10.179688 L 13.296875 10.179688 C 12.488281 10.179688 12.164062 10.25 12.164062 10.882812 C 12.164062 11.292969 12.414062 11.378906 13.203125 11.359375 L 15.964844 11.359375 L 12.8125 24.296875 C 12.066406 27.558594 11.363281 30.628906 9.179688 30.628906 C 9.011719 30.628906 7.976562 30.628906 7.171875 30.015625 C 9.101562 29.921875 9.472656 28.703125 9.472656 28.199219 C 9.472656 27.429688 8.726562 27.023438 7.917969 27.023438 C 6.835938 27.023438 5.625 27.765625 5.625 29.046875 C 5.625 30.558594 7.464844 31.367188 9.179688 31.367188 C 11.476562 31.367188 13.15625 29.382812 13.90625 28.101562 C 15.242188 25.984375 16.210938 21.921875 16.257812 21.679688 Z M 18.765625 11.359375 "/></g></svg>
