<svg width="64" height="64" viewBox="0 0 64 64" version="1.1"><defs><linearGradient id="linear-pattern-0" gradientUnits="userSpaceOnUse" x1="0" y1="0" x2="0" y2="1" gradientTransform="matrix(60, 0, 0, 56, 0, 4)"><stop offset="0" stop-color="#c10000" stop-opacity="1"/><stop offset="1" stop-color="#5f0000" stop-opacity="1"/></linearGradient></defs><path fill="url(#linear-pattern-0)" fill-opacity="1" d="M 36.21875 2.050781 L 62.027344 27.605469 C 64.402344 29.957031 64.417969 33.785156 62.058594 36.15625 L 36.460938 61.917969 C 34.105469 64.289062 30.269531 64.304688 27.894531 61.949219 L 2.085938 36.394531 C -0.289062 34.042969 -0.304688 30.214844 2.050781 27.84375 L 27.652344 2.082031 C 30.007812 -0.289062 33.84375 -0.304688 36.21875 2.050781 Z M 36.21875 2.050781 " /><g transform="matrix(1.0075098,0,0,1.0032698,16.221436,16.077397)"><path fill-rule="nonzero" fill="rgb(100%, 100%, 100%)" fill-opacity="1" d="M 1.664062 1.824219 L 1.664062 29.742188 L 3.898438 29.742188 L 3.898438 16.492188 C 4.6875 17.1875 5.492188 18.03125 6.308594 19.019531 C 7.148438 20.015625 7.964844 21.105469 8.773438 22.289062 C 9.59375 23.441406 10.359375 24.671875 11.089844 25.949219 C 11.820312 27.210938 12.453125 28.476562 13.015625 29.726562 L 15.535156 29.726562 C 15.03125 28.464844 14.390625 27.132812 13.632812 25.734375 C 12.882812 24.339844 12.085938 22.976562 11.226562 21.632812 C 10.359375 20.28125 9.488281 19.019531 8.59375 17.835938 C 7.695312 16.65625 6.84375 15.671875 6.050781 14.867188 C 6.742188 13.898438 7.472656 12.84375 8.257812 11.726562 C 9.039062 10.609375 9.824219 9.460938 10.609375 8.3125 C 11.410156 7.132812 12.175781 5.996094 12.90625 4.878906 C 13.632812 3.75 14.28125 2.726562 14.863281 1.824219 L 12.265625 1.820312 C 11.796875 2.601562 11.21875 3.515625 10.53125 4.5625 C 9.859375 5.585938 9.140625 6.648438 8.378906 7.78125 C 7.617188 8.914062 6.835938 10.03125 6.050781 11.164062 C 5.265625 12.265625 4.550781 13.265625 3.898438 14.15625 L 3.898438 1.820312 Z M 18.457031 1.828125 L 18.457031 29.746094 L 30.773438 29.746094 L 30.773438 26.460938 L 20.695312 26.460938 L 20.695312 1.828125 Z M 18.457031 1.828125 "/></g></svg>
