<svg width="64" height="64" viewBox="0 0 64 64" version="1.1"><defs><linearGradient id="linear-pattern-0" gradientUnits="userSpaceOnUse" x1="0" y1="0" x2="0" y2="1" gradientTransform="matrix(60, 0, 0, 56, 0, 4)"><stop offset="0" stop-color="#6926fc" stop-opacity="1"/><stop offset="1" stop-color="#3702ab" stop-opacity="1"/></linearGradient></defs><path fill="url(#linear-pattern-0)" fill-opacity="1" d="M 36.21875 2.050781 L 62.027344 27.605469 C 64.402344 29.957031 64.417969 33.785156 62.058594 36.15625 L 36.460938 61.917969 C 34.105469 64.289062 30.269531 64.304688 27.894531 61.949219 L 2.085938 36.394531 C -0.289062 34.042969 -0.304688 30.214844 2.050781 27.84375 L 27.652344 2.082031 C 30.007812 -0.289062 33.84375 -0.304688 36.21875 2.050781 Z M 36.21875 2.050781 " /><g transform="matrix(1.0075098,0,0,1.0032698,16.221436,16.077397)"><path fill-rule="nonzero" fill="rgb(100%, 100%, 100%)" fill-opacity="1" d="M 14.070312 0.828125 C 8.039062 0.804688 3.136719 5.488281 1.667969 11.710938 C -0.351562 20.257812 1.929688 23.25 6.15625 23.375 C 6.933594 22.6875 7.894531 22.140625 8.953125 21.820312 L 24.296875 6.601562 C 22.445312 3.609375 19.359375 1.445312 15.632812 0.9375 C 15.101562 0.867188 14.585938 0.828125 14.070312 0.828125 M 14.804688 3.492188 C 14.957031 3.492188 15.105469 3.5 15.261719 3.523438 C 16.914062 3.742188 18.0625 5.242188 17.835938 6.851562 C 17.605469 8.46875 16.082031 9.59375 14.433594 9.375 C 12.78125 9.148438 11.628906 7.65625 11.859375 6.039062 C 12.070312 4.578125 13.335938 3.511719 14.804688 3.492188 M 29.886719 5.109375 C 29.640625 5.101562 29.507812 5.199219 29.507812 5.199219 L 16.320312 17.675781 L 15.984375 17.996094 L 19.828125 21.378906 L 20.132812 21 L 31.476562 6.523438 C 31.449219 6.28125 31.320312 5.953125 30.898438 5.578125 C 30.476562 5.203125 30.132812 5.109375 29.886719 5.109375 M 7.8125 7.359375 C 7.921875 7.355469 8.039062 7.363281 8.148438 7.378906 C 9.375 7.539062 10.226562 8.648438 10.058594 9.851562 C 9.886719 11.046875 8.757812 11.882812 7.535156 11.71875 C 6.3125 11.546875 5.460938 10.445312 5.628906 9.246094 C 5.78125 8.164062 6.726562 7.371094 7.8125 7.359375 M 6.535156 14.71875 C 6.644531 14.710938 6.765625 14.71875 6.875 14.734375 C 8.097656 14.898438 8.953125 16.007812 8.78125 17.203125 C 8.613281 18.40625 7.484375 19.242188 6.261719 19.070312 C 5.039062 18.90625 4.183594 17.800781 4.351562 16.601562 C 4.507812 15.515625 5.449219 14.726562 6.535156 14.71875 M 15.28125 18.742188 L 11.757812 22.589844 L 11.433594 22.945312 L 15.273438 26.335938 L 15.601562 25.980469 L 19.148438 22.117188 L 15.28125 18.742188 M 10.867188 23.796875 C 10.789062 23.808594 10.710938 23.824219 10.632812 23.84375 C 10.625 23.84375 10.617188 23.851562 10.609375 23.851562 C 7.699219 24.523438 4.835938 27.585938 7.714844 31.015625 C 7.851562 31.171875 8.0625 31.242188 8.265625 31.1875 C 8.46875 31.132812 8.621094 30.976562 8.65625 30.78125 C 8.742188 30.328125 8.910156 29.828125 9.296875 29.472656 C 10.183594 28.652344 12.660156 29.976562 14.238281 27.359375 C 14.238281 27.359375 14.445312 27.046875 14.472656 26.988281 L 10.867188 23.796875 "/></g></svg>
