<svg width="64" height="64" viewBox="0 0 64 64" version="1.1"><defs><linearGradient id="linear-pattern-0" gradientUnits="userSpaceOnUse" x1="0" y1="0" x2="0" y2="1" gradientTransform="matrix(60, 0, 0, 56, 0, 4)"><stop offset="0" stop-color="#d00068" stop-opacity="1"/><stop offset="1" stop-color="#6e0037" stop-opacity="1"/></linearGradient></defs><path fill="url(#linear-pattern-0)" fill-opacity="1" d="M 36.21875 2.050781 L 62.027344 27.605469 C 64.402344 29.957031 64.417969 33.785156 62.058594 36.15625 L 36.460938 61.917969 C 34.105469 64.289062 30.269531 64.304688 27.894531 61.949219 L 2.085938 36.394531 C -0.289062 34.042969 -0.304688 30.214844 2.050781 27.84375 L 27.652344 2.082031 C 30.007812 -0.289062 33.84375 -0.304688 36.21875 2.050781 Z M 36.21875 2.050781 " /><g transform="matrix(1.0075098,0,0,1.0032698,16.221436,16.077397)"><path fill-rule="nonzero" fill="rgb(100%, 100%, 100%)" fill-opacity="1" d="M 16.015625 3.140625 C 14.140625 3.140625 12.523438 4.296875 11.796875 5.96875 L 3.679688 5.96875 C 3.054688 5.96875 2.546875 6.433594 2.546875 7.011719 L 2.546875 8.945312 C 2.546875 9.523438 3.054688 9.992188 3.679688 9.992188 L 11.796875 9.992188 C 12.53125 11.65625 14.144531 12.820312 16.015625 12.820312 C 17.894531 12.820312 19.507812 11.65625 20.242188 9.992188 L 28.359375 9.992188 C 28.992188 9.992188 29.492188 9.523438 29.492188 8.945312 L 29.492188 7.011719 C 29.492188 6.429688 28.992188 5.96875 28.359375 5.96875 L 20.242188 5.96875 C 19.515625 4.296875 17.894531 3.140625 16.015625 3.140625 M 16.015625 6.1875 C 16.046875 6.1875 16.078125 6.1875 16.109375 6.191406 C 16.109375 6.191406 16.113281 6.191406 16.121094 6.191406 C 17.023438 6.246094 17.734375 7.023438 17.734375 7.976562 C 17.734375 8.96875 16.96875 9.769531 16.015625 9.769531 C 15.992188 9.769531 15.960938 9.769531 15.929688 9.769531 C 15.023438 9.71875 14.304688 8.9375 14.304688 7.976562 C 14.304688 7.023438 15.015625 6.246094 15.921875 6.191406 C 15.953125 6.1875 15.984375 6.1875 16.015625 6.1875 M 7.171875 10.484375 C 6.929688 10.476562 6.710938 10.609375 6.585938 10.820312 L 0.546875 20.96875 L 0.527344 20.96875 C 0.515625 21.15625 0.507812 21.34375 0.507812 21.535156 C 0.507812 25.375 3.488281 28.484375 7.171875 28.484375 C 10.851562 28.484375 13.835938 25.375 13.835938 21.535156 C 13.835938 21.375 13.828125 21.21875 13.820312 21.0625 L 13.824219 21.058594 L 13.820312 21.046875 C 13.820312 21.023438 13.8125 20.996094 13.8125 20.96875 L 13.773438 20.96875 L 7.738281 10.820312 C 7.617188 10.617188 7.402344 10.492188 7.171875 10.484375 M 24.921875 10.53125 C 24.679688 10.527344 24.460938 10.65625 24.335938 10.867188 L 18.304688 21.015625 L 18.277344 21.015625 C 18.261719 21.203125 18.257812 21.390625 18.257812 21.582031 C 18.257812 25.421875 21.242188 28.535156 24.921875 28.535156 C 28.601562 28.535156 31.585938 25.421875 31.585938 21.582031 C 31.585938 21.421875 31.578125 21.265625 31.570312 21.105469 L 31.574219 21.105469 L 31.570312 21.097656 C 31.566406 21.070312 31.566406 21.046875 31.5625 21.015625 L 31.519531 21.015625 L 25.492188 10.867188 C 25.367188 10.664062 25.152344 10.535156 24.921875 10.53125 M 7.164062 12.539062 L 12.171875 20.96875 L 2.152344 20.96875 Z M 24.914062 12.589844 L 29.921875 21.015625 L 19.90625 21.015625 Z M 24.914062 12.589844 "/></g></svg>
