<svg width="64" height="64" viewBox="0 0 64 64" version="1.1"><defs><linearGradient id="linear-pattern-0" gradientUnits="userSpaceOnUse" x1="0" y1="0" x2="0" y2="1" gradientTransform="matrix(60, 0, 0, 56, 0, 4)"><stop offset="0" stop-color="#00a07f" stop-opacity="1"/><stop offset="1" stop-color="#005241" stop-opacity="1"/></linearGradient></defs><path fill="url(#linear-pattern-0)" fill-opacity="1" d="M 36.21875 2.050781 L 62.027344 27.605469 C 64.402344 29.957031 64.417969 33.785156 62.058594 36.15625 L 36.460938 61.917969 C 34.105469 64.289062 30.269531 64.304688 27.894531 61.949219 L 2.085938 36.394531 C -0.289062 34.042969 -0.304688 30.214844 2.050781 27.84375 L 27.652344 2.082031 C 30.007812 -0.289062 33.84375 -0.304688 36.21875 2.050781 Z M 36.21875 2.050781 " /><g transform="matrix(1.0075098,0,0,1.0032698,16.221436,16.077397)"><path fill-rule="evenodd" fill="rgb(100%, 100%, 100%)" fill-opacity="1" d="M 16.019531 0.828125 C 7.558594 0.828125 0.703125 7.710938 0.703125 16.203125 C 0.703125 20.03125 2.09375 23.527344 4.398438 26.21875 L 1.394531 31.429688 L 13.902344 31.429688 C 14.59375 31.523438 15.300781 31.578125 16.019531 31.578125 C 24.476562 31.578125 31.335938 24.695312 31.335938 16.203125 C 31.335938 7.710938 24.484375 0.828125 16.019531 0.828125 M 7 13.28125 C 8.765625 13.28125 10.203125 14.722656 10.203125 16.5 C 10.203125 18.277344 8.765625 19.71875 7 19.71875 C 5.222656 19.71875 3.789062 18.277344 3.789062 16.5 C 3.789062 14.722656 5.222656 13.28125 7 13.28125 M 16.320312 13.28125 C 18.089844 13.28125 19.527344 14.722656 19.527344 16.5 C 19.527344 18.277344 18.089844 19.71875 16.320312 19.71875 C 14.546875 19.71875 13.109375 18.277344 13.109375 16.5 C 13.109375 14.722656 14.546875 13.28125 16.320312 13.28125 M 25.640625 13.28125 C 27.414062 13.28125 28.851562 14.722656 28.851562 16.5 C 28.851562 18.277344 27.414062 19.71875 25.640625 19.71875 C 23.871094 19.71875 22.433594 18.277344 22.433594 16.5 C 22.433594 14.722656 23.871094 13.28125 25.640625 13.28125 "/></g></svg>
