<svg width="64" height="64" viewBox="0 0 64 64" version="1.1"><defs><linearGradient id="linear-pattern-0" gradientUnits="userSpaceOnUse" x1="0" y1="0" x2="0" y2="1" gradientTransform="matrix(60, 0, 0, 56, 0, 4)"><stop offset="0" stop-color="#008a97" stop-opacity="1"/><stop offset="1" stop-color="#00545c" stop-opacity="1"/></linearGradient></defs><path fill="url(#linear-pattern-0)" fill-opacity="1" d="M 36.21875 2.050781 L 62.027344 27.605469 C 64.402344 29.957031 64.417969 33.785156 62.058594 36.15625 L 36.460938 61.917969 C 34.105469 64.289062 30.269531 64.304688 27.894531 61.949219 L 2.085938 36.394531 C -0.289062 34.042969 -0.304688 30.214844 2.050781 27.84375 L 27.652344 2.082031 C 30.007812 -0.289062 33.84375 -0.304688 36.21875 2.050781 Z M 36.21875 2.050781 " /><g transform="matrix(1.0075098,0,0,1.0032698,16.221436,16.077397)"><path fill-rule="nonzero" fill="rgb(100%, 100%, 100%)" fill-opacity="1" d="M 0.46875 26.019531 C 0.46875 19.882812 0.535156 18.945312 1.074219 17.382812 C 2.023438 14.640625 3.984375 12.414062 6.585938 11.132812 C 7.15625 10.84375 7.660156 10.664062 9.011719 10.242188 C 9.046875 10.230469 9.042969 10.222656 9.25 10.203125 C 9.210938 10.484375 9.167969 10.828125 9.152344 11.140625 C 9.136719 11.457031 9.152344 12.085938 9.152344 12.085938 L 8.304688 12.394531 C 7.207031 12.789062 5.578125 13.855469 4.835938 14.65625 C 4.085938 15.472656 3.300781 16.730469 2.929688 17.699219 C 2.367188 19.179688 2.296875 20.011719 2.296875 25.15625 L 2.296875 29.898438 L 7.082031 29.898438 C 12.347656 29.898438 13.148438 29.828125 14.703125 29.234375 C 15.792969 28.8125 17.320312 27.796875 18.046875 27.011719 C 19.867188 25.046875 20.804688 22.289062 20.476562 19.875 C 20.117188 17.164062 18.695312 14.847656 16.507812 13.40625 C 15.363281 12.652344 14.1875 12.171875 12.960938 11.964844 L 12.066406 11.8125 C 12.066406 11.8125 12.066406 11.21875 12.101562 10.921875 C 12.132812 10.625 12.164062 10.445312 12.273438 10.046875 L 12.992188 10.125 C 13.894531 10.214844 15.363281 10.664062 16.296875 11.125 C 18.984375 12.46875 20.96875 14.773438 21.875 17.617188 C 23.648438 23.203125 20.570312 29.191406 14.925781 31.113281 C 13.351562 31.648438 12.40625 31.710938 6.210938 31.710938 L 0.46875 31.710938 Z M 18.421875 22.417969 C 14.582031 21.667969 11.351562 18.769531 10.148438 15 C 8.371094 9.410156 11.453125 3.425781 17.097656 1.503906 C 18.671875 0.96875 19.617188 0.90625 25.8125 0.90625 L 31.546875 0.90625 L 31.546875 6.59375 C 31.546875 12.734375 31.484375 13.671875 30.945312 15.230469 C 29.996094 17.96875 28.039062 20.203125 25.4375 21.484375 C 24.863281 21.773438 24.160156 22.03125 22.835938 22.425781 C 22.867188 22.175781 22.90625 21.828125 22.921875 21.53125 C 22.9375 21.195312 22.90625 20.523438 22.90625 20.523438 L 23.71875 20.21875 C 24.808594 19.820312 26.445312 18.757812 27.183594 17.953125 C 27.929688 17.144531 28.71875 15.882812 29.085938 14.917969 C 29.65625 13.4375 29.722656 12.605469 29.722656 7.457031 L 29.722656 2.714844 L 24.9375 2.714844 C 19.671875 2.714844 18.871094 2.789062 17.316406 3.382812 C 16.226562 3.804688 14.703125 4.816406 13.976562 5.605469 C 12.148438 7.582031 11.203125 10.402344 11.550781 12.820312 C 11.933594 15.5 13.351562 17.785156 15.515625 19.210938 C 16.65625 19.964844 17.835938 20.445312 19.0625 20.648438 L 19.953125 20.800781 C 19.953125 20.800781 19.984375 21.394531 19.945312 21.6875 C 19.914062 21.976562 19.773438 22.476562 19.757812 22.539062 C 19.523438 22.539062 18.695312 22.46875 18.421875 22.417969 Z M 18.421875 22.417969 "/></g></svg>
