<svg width="64" height="64" viewBox="0 0 64 64" version="1.1"><defs><linearGradient id="linear-pattern-0" gradientUnits="userSpaceOnUse" x1="0" y1="0" x2="0" y2="1" gradientTransform="matrix(60, 0, 0, 56, 0, 4)"><stop offset="0" stop-color="#00983a" stop-opacity="1"/><stop offset="1" stop-color="#004a1c" stop-opacity="1"/></linearGradient></defs><path fill="url(#linear-pattern-0)" fill-opacity="1" d="M 36.21875 2.050781 L 62.027344 27.605469 C 64.402344 29.957031 64.417969 33.785156 62.058594 36.15625 L 36.460938 61.917969 C 34.105469 64.289062 30.269531 64.304688 27.894531 61.949219 L 2.085938 36.394531 C -0.289062 34.042969 -0.304688 30.214844 2.050781 27.84375 L 27.652344 2.082031 C 30.007812 -0.289062 33.84375 -0.304688 36.21875 2.050781 Z M 36.21875 2.050781 " /><g transform="matrix(1.0075098,0,0,1.0032698,16.221436,16.077397)"><path fill-rule="evenodd" fill="rgb(100%, 100%, 100%)" fill-opacity="1" d="M 24.859375 0.824219 C 24.554688 0.820312 24.3125 1.074219 24.308594 1.382812 L 24.265625 10.539062 L 23.34375 10.539062 L 23.390625 1.4375 C 23.390625 1.132812 23.148438 0.882812 22.84375 0.882812 C 22.539062 0.875 22.296875 1.125 22.289062 1.4375 L 22.246094 10.539062 L 21.296875 10.539062 L 21.34375 1.4375 C 21.34375 1.125 21.097656 0.875 20.796875 0.875 C 20.488281 0.875 20.246094 1.125 20.242188 1.429688 L 20.203125 10.539062 L 19.25 10.539062 L 19.296875 1.539062 C 19.296875 1.230469 19.054688 0.980469 18.75 0.980469 C 18.445312 0.976562 18.199219 1.230469 18.195312 1.539062 C 18.171875 5.9375 18.171875 5.929688 18.15625 10.816406 L 18.15625 12.664062 L 18.164062 12.664062 C 18.226562 13.5625 18.929688 14.289062 19.867188 14.484375 L 19.992188 31.675781 L 23.878906 31.675781 L 23.8125 14.460938 C 24.6875 14.234375 25.34375 13.523438 25.402344 12.664062 L 25.40625 12.664062 L 25.40625 10.539062 C 25.328125 7.578125 25.390625 4.414062 25.40625 1.390625 C 25.410156 1.078125 25.164062 0.824219 24.859375 0.824219 M 11.460938 2.53125 C 8.789062 2.539062 6.554688 5.269531 6.433594 8.699219 C 6.34375 11.367188 7.5625 13.6875 9.359375 14.664062 L 9.382812 31.671875 L 13.414062 31.671875 L 13.515625 14.476562 C 15.101562 13.460938 16.230469 11.398438 16.3125 8.992188 C 16.4375 5.503906 14.320312 2.609375 11.585938 2.527344 C 11.546875 2.527344 11.5 2.527344 11.460938 2.527344 "/></g></svg>
