<svg width="64" height="64" viewBox="0 0 64 64" version="1.1"><defs><linearGradient id="linear-pattern-0" gradientUnits="userSpaceOnUse" x1="0" y1="0" x2="0" y2="1" gradientTransform="matrix(60, 0, 0, 56, 0, 4)"><stop offset="0" stop-color="#d00068" stop-opacity="1"/><stop offset="1" stop-color="#6e0037" stop-opacity="1"/></linearGradient></defs><path fill="url(#linear-pattern-0)" fill-opacity="1" d="M 36.21875 2.050781 L 62.027344 27.605469 C 64.402344 29.957031 64.417969 33.785156 62.058594 36.15625 L 36.460938 61.917969 C 34.105469 64.289062 30.269531 64.304688 27.894531 61.949219 L 2.085938 36.394531 C -0.289062 34.042969 -0.304688 30.214844 2.050781 27.84375 L 27.652344 2.082031 C 30.007812 -0.289062 33.84375 -0.304688 36.21875 2.050781 Z M 36.21875 2.050781 " /><g transform="matrix(1.0075098,0,0,1.0032698,16.221436,16.077397)"><path fill-rule="nonzero" fill="rgb(100%, 100%, 100%)" fill-opacity="1" d="M 14.664062 1.375 C 14.449219 1.375 14.238281 1.382812 14.023438 1.40625 C 6.113281 1.738281 -0.210938 8.21875 -0.210938 16.183594 C -0.210938 24.109375 6.039062 30.554688 13.898438 30.953125 C 10.148438 30.570312 7.226562 27.417969 7.226562 23.585938 C 7.226562 19.496094 10.554688 16.183594 14.664062 16.183594 C 18.765625 16.183594 22.09375 12.867188 22.09375 8.78125 C 22.09375 4.6875 18.765625 1.375 14.664062 1.375 Z M 14.664062 5.324219 C 16.578125 5.324219 18.132812 6.871094 18.128906 8.78125 C 18.132812 10.6875 16.578125 12.234375 14.664062 12.234375 C 12.746094 12.234375 11.191406 10.6875 11.191406 8.78125 C 11.191406 6.871094 12.746094 5.324219 14.664062 5.324219 Z M 14.664062 5.324219 "/><path fill-rule="nonzero" fill="rgb(100%, 100%, 100%)" fill-opacity="1" d="M 18.8125 1.78125 C 21.5 2.644531 24.953125 6.132812 24.980469 9.234375 C 24.90625 13.324219 21.515625 16.578125 17.40625 16.5 C 13.304688 16.425781 9.914062 19.679688 9.835938 23.769531 C 9.761719 27.855469 13.027344 31.234375 17.132812 31.308594 C 17.34375 31.3125 17.554688 31.304688 17.765625 31.289062 C 25.6875 31.101562 32.128906 24.742188 32.273438 16.777344 C 32.421875 8.976562 26.484375 2.496094 18.8125 1.78125 Z M 18.078125 20.78125 C 19.988281 20.9375 21.40625 22.609375 21.246094 24.507812 C 21.085938 26.414062 19.410156 27.824219 17.5 27.664062 C 15.589844 27.507812 14.171875 25.835938 14.332031 23.933594 C 14.492188 22.03125 16.171875 20.617188 18.078125 20.78125 Z M 18.078125 20.78125 "/></g></svg>
