<svg width="64" height="64" viewBox="0 0 64 64" version="1.1"><defs><linearGradient id="linear-pattern-0" gradientUnits="userSpaceOnUse" x1="0" y1="0" x2="0" y2="1" gradientTransform="matrix(60, 0, 0, 56, 0, 4)"><stop offset="0" stop-color="#0288cf" stop-opacity="1"/><stop offset="1" stop-color="#01486e" stop-opacity="1"/></linearGradient></defs><path fill="url(#linear-pattern-0)" fill-opacity="1" d="M 36.21875 2.050781 L 62.027344 27.605469 C 64.402344 29.957031 64.417969 33.785156 62.058594 36.15625 L 36.460938 61.917969 C 34.105469 64.289062 30.269531 64.304688 27.894531 61.949219 L 2.085938 36.394531 C -0.289062 34.042969 -0.304688 30.214844 2.050781 27.84375 L 27.652344 2.082031 C 30.007812 -0.289062 33.84375 -0.304688 36.21875 2.050781 Z M 36.21875 2.050781 " /><g transform="matrix(1.0075098,0,0,1.0032698,16.221436,16.077397)"><path fill-rule="nonzero" fill="rgb(100%, 100%, 100%)" fill-opacity="1" d="M 23.421875 0.453125 C 23.328125 0.457031 23.273438 0.554688 23.273438 0.734375 C 23.273438 0.886719 23.226562 1.039062 23.171875 1.070312 C 23.117188 1.109375 23.070312 1.28125 23.070312 1.464844 C 23.070312 1.796875 23.039062 1.820312 22.542969 1.929688 C 22.273438 1.980469 22.261719 2.011719 22.265625 2.53125 C 22.273438 3.027344 22.308594 3.109375 22.621094 3.40625 C 22.835938 3.609375 22.9375 3.773438 22.875 3.835938 C 22.832031 3.890625 22.734375 4.195312 22.667969 4.507812 C 22.4375 5.328125 22.078125 6.226562 21.863281 7.101562 C 21.863281 7.179688 21.71875 7.429688 21.550781 7.648438 C 21.007812 8.375 20.421875 9.21875 19.742188 9.941406 C 19.742188 8.054688 19.75 5.640625 19.695312 3.273438 C 17.058594 3.03125 13.855469 2.710938 10.769531 2.441406 C 11.171875 5.304688 12.179688 8.40625 12.828125 11.742188 C 11.960938 12.746094 10.695312 13.746094 9.621094 14.71875 L 8.929688 15.367188 C 8.824219 16.675781 8.800781 17.960938 8.511719 19.171875 C 8 19.308594 7.582031 19.429688 7.085938 19.574219 C 6.578125 19.734375 6.15625 19.886719 5.648438 20.007812 C 5.46875 20.058594 5.5625 20.199219 6.234375 20.886719 C 6.71875 21.382812 6.820312 21.445312 6.972656 21.339844 C 7.0625 21.273438 7.257812 21.140625 7.398438 21.039062 C 7.703125 20.804688 7.96875 20.570312 8.3125 20.429688 C 8.421875 20.429688 8.851562 21.1875 8.851562 21.382812 C 8.851562 21.550781 9.054688 21.488281 9.3125 21.246094 C 9.527344 21.042969 9.5625 20.921875 9.5625 20.359375 C 9.5625 20.003906 9.609375 19.5625 9.671875 19.375 C 10.015625 18.085938 10.101562 17.503906 10.492188 16.273438 C 10.613281 15.984375 10.804688 15.746094 10.921875 15.746094 C 11.601562 15.304688 12.445312 14.695312 13.234375 14.21875 C 13.734375 15.257812 14.011719 16.640625 14.328125 17.828125 C 14.394531 17.90625 14.386719 17.988281 14.324219 18.070312 C 13.984375 19.007812 13.695312 19.84375 13.34375 20.890625 C 13.265625 21.078125 13.140625 21.277344 13.085938 21.5 C 12.382812 22.234375 11.6875 22.804688 11.085938 23.488281 C 10.59375 24.015625 10.015625 24.605469 9.398438 25.089844 L 8.179688 26.210938 L 8.109375 26.804688 C 8.070312 27.132812 7.976562 27.625 7.902344 27.90625 C 7.820312 28.203125 7.796875 28.445312 7.851562 28.5 C 7.902344 28.546875 8.25 28.691406 8.625 28.8125 C 9.703125 29.171875 9.859375 29.21875 9.875 29.148438 C 9.90625 28.9375 9.832031 28.335938 9.71875 27.886719 C 9.625 27.445312 9.515625 26.96875 9.472656 26.5 L 11.085938 25.445312 C 11.875 24.929688 12.917969 24.210938 13.867188 23.636719 C 14.230469 23.34375 14.296875 23.296875 14.378906 23.296875 C 14.621094 23.296875 15.242188 22.628906 15.5 22.085938 C 15.765625 21.667969 15.984375 21.308594 16.234375 20.90625 C 16.273438 20.828125 16.304688 21.222656 16.3125 21.785156 C 16.316406 22.761719 16.304688 22.820312 16.039062 23.121094 C 15.882812 23.296875 15.71875 23.496094 15.664062 23.570312 C 15.1875 24.101562 14.761719 24.59375 14.324219 25.117188 C 13.535156 26.023438 12.65625 27.0625 11.855469 28.007812 C 11.734375 28.140625 11.679688 28.367188 11.679688 28.71875 C 11.679688 29 11.632812 29.539062 11.570312 29.898438 C 11.445312 30.652344 11.507812 30.796875 11.960938 30.875 C 12.109375 30.898438 12.460938 31.007812 12.738281 31.117188 L 12.734375 31.117188 C 13.296875 31.335938 13.5625 31.339844 13.507812 31.128906 C 13.484375 31.054688 13.433594 30.710938 13.382812 30.371094 C 13.328125 30.03125 13.242188 29.601562 13.1875 29.417969 C 13.132812 29.230469 13.085938 28.90625 13.085938 28.695312 C 13.085938 28.367188 13.140625 28.265625 13.464844 28.007812 C 14.925781 26.808594 16.394531 25.566406 17.914062 24.273438 C 18.464844 23.808594 18.53125 23.710938 18.636719 23.21875 C 18.992188 21.6875 19.203125 20.367188 19.625 18.757812 C 19.875 16.695312 19.765625 15.167969 20.003906 13.28125 C 21.375 11.351562 22.390625 9.835938 23.28125 7.8125 C 23.507812 6.820312 23.8125 5.816406 24.015625 4.800781 C 24.203125 3.78125 24.21875 3.765625 24.84375 3.367188 L 25.390625 3.023438 L 25.390625 1.515625 L 25.089844 1.460938 C 24.921875 1.421875 24.78125 1.355469 24.78125 1.316406 C 24.78125 1.273438 24.6875 1.210938 24.5625 1.183594 C 24.316406 1.125 23.960938 0.890625 23.691406 0.617188 C 23.585938 0.507812 23.492188 0.453125 23.421875 0.453125 Z M 18.707031 4.460938 L 18.710938 4.460938 C 18.78125 4.90625 18.832031 5.234375 18.882812 5.65625 C 17.988281 6.1875 17.144531 6.601562 16.140625 7.007812 L 14.21875 7.890625 C 13.898438 7.898438 13.773438 5.945312 13.609375 4.992188 C 13.65625 4.628906 13.8125 4.601562 16.53125 4.523438 Z M 18.707031 4.460938 "/></g></svg>
