<svg width="64" height="64" viewBox="0 0 64 64" version="1.1"><defs><linearGradient id="linear-pattern-0" gradientUnits="userSpaceOnUse" x1="0" y1="0" x2="0" y2="1" gradientTransform="matrix(60, 0, 0, 56, 0, 4)"><stop offset="0" stop-color="#8900e4" stop-opacity="1"/><stop offset="1" stop-color="#42006e" stop-opacity="1"/></linearGradient></defs><path fill="url(#linear-pattern-0)" fill-opacity="1" d="M 36.21875 2.050781 L 62.027344 27.605469 C 64.402344 29.957031 64.417969 33.785156 62.058594 36.15625 L 36.460938 61.917969 C 34.105469 64.289062 30.269531 64.304688 27.894531 61.949219 L 2.085938 36.394531 C -0.289062 34.042969 -0.304688 30.214844 2.050781 27.84375 L 27.652344 2.082031 C 30.007812 -0.289062 33.84375 -0.304688 36.21875 2.050781 Z M 36.21875 2.050781 " /><g transform="matrix(1.0075098,0,0,1.0032698,16.221436,16.077397)"><path fill-rule="nonzero" fill="rgb(100%, 100%, 100%)" fill-opacity="1" d="M 16.007812 4.476562 C 15.65625 4.476562 15.308594 4.484375 14.964844 4.515625 C 11.242188 4.847656 8.03125 6.980469 6.179688 10.015625 C 5.328125 11.578125 4.835938 13.398438 4.835938 15.398438 C 4.835938 16.765625 5.09375 18.101562 5.578125 19.421875 C 5.625 19.5 5.65625 19.5625 5.660156 19.5625 C 6.84375 21.488281 11.898438 21.4375 17.546875 18.320312 C 21.273438 16.28125 24.085938 13.4375 24.710938 11.078125 C 24.914062 10.308594 24.882812 9.648438 24.570312 9.136719 C 24.5625 9.125 24.46875 8.964844 24.289062 8.71875 C 22.382812 6.351562 19.917969 4.773438 16.90625 4.511719 C 16.605469 4.488281 16.304688 4.476562 16.007812 4.476562 Z M 24.8125 4.734375 C 24.5 4.734375 24.179688 4.753906 23.851562 4.773438 C 23.742188 4.78125 23.617188 4.785156 23.507812 4.796875 C 23.273438 4.8125 23.035156 4.824219 22.789062 4.851562 C 22.664062 4.867188 22.535156 4.898438 22.410156 4.914062 C 22.292969 4.929688 22.171875 4.9375 22.046875 4.953125 C 23.292969 5.75 24.414062 6.785156 25.390625 8.015625 C 25.382812 8.019531 25.375 8.03125 25.367188 8.035156 C 25.5625 8.308594 25.664062 8.5 25.671875 8.515625 C 26.15625 9.304688 26.242188 10.3125 25.953125 11.417969 C 25.242188 14.097656 22.183594 17.246094 18.164062 19.441406 C 14.890625 21.25 11.664062 22.164062 9.121094 22.164062 C 7.007812 22.164062 5.375 21.539062 4.578125 20.242188 L 4.539062 20.140625 C 4.53125 20.140625 4.523438 20.148438 4.515625 20.140625 C 4.492188 20.066406 4.46875 19.980469 4.4375 19.902344 C 4.40625 19.8125 4.382812 19.75 4.378906 19.742188 C 4.382812 19.742188 4.375 19.726562 4.378906 19.722656 C 3.875 18.308594 3.558594 16.859375 3.558594 15.398438 C 3.558594 15.242188 3.574219 15.09375 3.578125 14.9375 C 0.265625 18.5625 -0.84375 22.085938 0.65625 24.585938 C 1.761719 26.417969 4.132812 27.328125 7.179688 27.328125 C 7.597656 27.328125 8.039062 27.304688 8.480469 27.265625 C 8.625 27.257812 8.773438 27.242188 8.921875 27.226562 C 9.773438 27.136719 10.625 26.996094 11.460938 26.804688 C 11.578125 26.78125 11.703125 26.773438 11.820312 26.746094 C 14.53125 26.117188 17.484375 24.976562 20.429688 23.34375 C 23.09375 21.835938 25.425781 20.089844 27.292969 18.28125 C 27.5625 18.015625 27.820312 17.765625 28.070312 17.5 C 28.121094 17.445312 28.164062 17.394531 28.210938 17.339844 C 28.414062 17.117188 28.621094 16.898438 28.8125 16.679688 C 28.878906 16.605469 28.929688 16.535156 28.992188 16.460938 C 29.15625 16.261719 29.320312 16.0625 29.472656 15.859375 C 29.539062 15.773438 29.609375 15.6875 29.671875 15.601562 C 29.8125 15.414062 29.945312 15.226562 30.074219 15.039062 C 30.140625 14.945312 30.1875 14.851562 30.253906 14.757812 C 30.367188 14.582031 30.488281 14.398438 30.59375 14.21875 C 30.65625 14.117188 30.695312 14.015625 30.753906 13.917969 C 30.851562 13.742188 30.945312 13.570312 31.03125 13.398438 C 31.082031 13.300781 31.128906 13.195312 31.171875 13.097656 C 31.257812 12.914062 31.34375 12.742188 31.414062 12.558594 C 31.449219 12.472656 31.484375 12.386719 31.515625 12.296875 C 31.609375 12.035156 31.703125 11.773438 31.773438 11.515625 C 32.179688 9.964844 32.039062 8.609375 31.351562 7.476562 C 31.226562 7.269531 31.085938 7.078125 30.933594 6.894531 C 30.890625 6.84375 30.835938 6.804688 30.796875 6.753906 C 30.667969 6.617188 30.535156 6.492188 30.394531 6.375 C 30.34375 6.335938 30.300781 6.292969 30.253906 6.253906 C 30.0625 6.101562 29.859375 5.960938 29.652344 5.835938 C 29.609375 5.808594 29.578125 5.796875 29.53125 5.773438 C 29.34375 5.664062 29.148438 5.5625 28.953125 5.476562 C 28.882812 5.441406 28.808594 5.421875 28.734375 5.394531 C 28.523438 5.3125 28.308594 5.238281 28.09375 5.171875 C 28.042969 5.15625 27.984375 5.132812 27.929688 5.113281 C 27.65625 5.039062 27.367188 4.96875 27.070312 4.914062 C 26.992188 4.898438 26.914062 4.90625 26.832031 4.894531 C 26.597656 4.855469 26.359375 4.816406 26.109375 4.796875 C 26.015625 4.78125 25.925781 4.78125 25.828125 4.773438 C 25.5 4.75 25.164062 4.734375 24.828125 4.734375 Z M 26.492188 20.703125 C 24.796875 22.117188 22.972656 23.378906 21.046875 24.46875 C 18.820312 25.703125 16.515625 26.6875 14.28125 27.386719 C 14.859375 27.476562 15.4375 27.523438 16.007812 27.523438 C 20.648438 27.523438 24.6875 24.773438 26.492188 20.703125 Z M 26.492188 20.703125 "/></g></svg>
