<svg width="64" height="64" viewBox="0 0 64 64" version="1.1"><defs><linearGradient id="linear-pattern-0" gradientUnits="userSpaceOnUse" x1="0" y1="0" x2="0" y2="1" gradientTransform="matrix(60, 0, 0, 56, 0, 4)"><stop offset="0" stop-color="#0288cf" stop-opacity="1"/><stop offset="1" stop-color="#01486e" stop-opacity="1"/></linearGradient></defs><path fill="url(#linear-pattern-0)" fill-opacity="1" d="M 36.21875 2.050781 L 62.027344 27.605469 C 64.402344 29.957031 64.417969 33.785156 62.058594 36.15625 L 36.460938 61.917969 C 34.105469 64.289062 30.269531 64.304688 27.894531 61.949219 L 2.085938 36.394531 C -0.289062 34.042969 -0.304688 30.214844 2.050781 27.84375 L 27.652344 2.082031 C 30.007812 -0.289062 33.84375 -0.304688 36.21875 2.050781 Z M 36.21875 2.050781 " /><g transform="matrix(1.0075098,0,0,1.0032698,16.221436,16.077397)"><path fill-rule="nonzero" fill="rgb(100%, 100%, 100%)" fill-opacity="1" d="M 4.40625 0.773438 C 2.296875 0.773438 0.542969 2.539062 0.542969 4.65625 L 0.542969 25.992188 C 0.542969 28.109375 2.296875 29.871094 4.40625 29.871094 L 8.273438 29.871094 L 8.273438 26.839844 L 9.117188 25.992188 L 4.40625 25.992188 L 4.40625 20.171875 L 10.207031 20.171875 L 10.207031 24.902344 L 12.140625 22.960938 L 12.140625 20.171875 L 14.917969 20.171875 L 16.851562 18.234375 L 12.140625 18.234375 L 12.140625 12.414062 L 17.9375 12.414062 L 17.9375 17.140625 L 19.871094 15.265625 L 19.871094 12.414062 L 22.710938 12.414062 L 24.640625 10.476562 L 19.871094 10.476562 L 19.871094 4.65625 L 25.671875 4.65625 L 25.671875 9.445312 L 29.292969 5.808594 L 29.535156 6.050781 L 29.535156 4.65625 C 29.535156 2.539062 27.777344 0.773438 25.671875 0.773438 Z M 4.40625 4.65625 L 10.207031 4.65625 L 10.207031 10.476562 L 4.40625 10.476562 Z M 12.140625 4.65625 L 17.9375 4.65625 L 17.9375 10.476562 L 12.140625 10.476562 Z M 29.292969 8.535156 L 26.210938 11.625 C 26.210938 11.625 27.921875 12.023438 28.730469 12.96875 C 29.542969 13.917969 30.320312 15.75 30.320312 15.75 L 31.53125 14.535156 L 31.53125 10.777344 Z M 4.40625 12.414062 L 10.207031 12.414062 L 10.207031 18.234375 L 4.40625 18.234375 Z M 24.882812 12.960938 L 10.207031 27.8125 L 10.207031 31.8125 L 14.238281 31.828125 L 28.992188 17.082031 C 28.992188 17.082031 28.660156 15.484375 27.609375 14.371094 C 26.5625 13.25 24.882812 12.960938 24.882812 12.960938 Z M 29.535156 19.265625 L 25.671875 23.082031 L 25.671875 25.992188 L 22.769531 25.992188 L 18.90625 29.871094 L 25.671875 29.871094 C 27.777344 29.871094 29.535156 28.109375 29.535156 25.992188 Z M 29.535156 19.265625 "/></g></svg>
