<svg width="64" height="64" viewBox="0 0 64 64" version="1.1"><defs><linearGradient id="linear-pattern-0" gradientUnits="userSpaceOnUse" x1="0" y1="0" x2="0" y2="1" gradientTransform="matrix(60, 0, 0, 56, 0, 4)"><stop offset="0" stop-color="#a67e50" stop-opacity="1"/><stop offset="1" stop-color="#644c30" stop-opacity="1"/></linearGradient></defs><path fill="url(#linear-pattern-0)" fill-opacity="1" d="M 36.21875 2.050781 L 62.027344 27.605469 C 64.402344 29.957031 64.417969 33.785156 62.058594 36.15625 L 36.460938 61.917969 C 34.105469 64.289062 30.269531 64.304688 27.894531 61.949219 L 2.085938 36.394531 C -0.289062 34.042969 -0.304688 30.214844 2.050781 27.84375 L 27.652344 2.082031 C 30.007812 -0.289062 33.84375 -0.304688 36.21875 2.050781 Z M 36.21875 2.050781 " /><g transform="matrix(1.0075098,0,0,1.0032698,16.221436,16.077397)"><path fill-rule="nonzero" fill="rgb(100%, 100%, 100%)" fill-opacity="1" d="M 8.738281 0.914062 C 8.34375 0.929688 7.953125 1.09375 7.664062 1.46875 C 6.789062 2.605469 6.542969 3.832031 6.921875 5.195312 C 7.289062 6.535156 8.320312 7.570312 7.796875 9.011719 C 7.21875 10.589844 9.851562 11.261719 10.421875 9.699219 C 10.855469 8.507812 10.738281 7.351562 10.265625 6.1875 C 9.734375 4.898438 9.039062 4.03125 10.015625 2.773438 C 10.757812 1.808594 9.746094 0.867188 8.738281 0.914062 M 13.640625 0.914062 C 13.242188 0.929688 12.851562 1.09375 12.5625 1.46875 C 11.6875 2.605469 11.4375 3.832031 11.8125 5.195312 C 12.179688 6.535156 13.21875 7.570312 12.695312 9.011719 C 12.117188 10.589844 14.746094 11.261719 15.320312 9.699219 C 15.75 8.507812 15.632812 7.351562 15.15625 6.1875 C 14.632812 4.898438 13.9375 4.03125 14.910156 2.773438 C 15.65625 1.808594 14.640625 0.867188 13.640625 0.914062 M 18.535156 0.914062 C 18.140625 0.929688 17.742188 1.09375 17.453125 1.46875 C 16.574219 2.605469 16.335938 3.832031 16.710938 5.195312 C 17.078125 6.535156 18.117188 7.570312 17.59375 9.011719 C 17.015625 10.589844 19.640625 11.261719 20.214844 9.699219 C 20.648438 8.507812 20.53125 7.351562 20.054688 6.1875 C 19.527344 4.898438 18.835938 4.03125 19.804688 2.773438 C 20.554688 1.808594 19.539062 0.867188 18.535156 0.914062 M 0.8125 12.195312 C 0.8125 19.429688 0.8125 31.03125 13.332031 31.03125 C 19.175781 31.03125 22.296875 28.503906 23.957031 25.070312 C 29.328125 24.859375 31.515625 22.578125 31.515625 19.796875 C 31.515625 17.359375 29.835938 15.316406 25.835938 14.695312 C 25.851562 13.820312 25.851562 12.984375 25.851562 12.195312 L 0.8125 12.195312 M 5.101562 14.046875 C 5.78125 14.046875 6.457031 14.460938 6.457031 15.296875 C 6.449219 18.835938 7.21875 22.210938 9.332031 25.171875 C 10.320312 26.554688 7.957031 27.847656 6.984375 26.476562 C 4.621094 23.164062 3.726562 19.257812 3.734375 15.296875 C 3.734375 14.460938 4.421875 14.046875 5.101562 14.046875 M 25.746094 17.03125 C 27.835938 17.523438 28.3125 18.546875 28.289062 19.851562 C 28.265625 21.339844 27.683594 22.351562 24.847656 22.714844 C 25.375 20.890625 25.625 18.933594 25.746094 17.03125 "/></g></svg>
