<svg width="64" height="64" viewBox="0 0 64 64" version="1.1"><defs><linearGradient id="linear-pattern-0" gradientUnits="userSpaceOnUse" x1="0" y1="0" x2="0" y2="1" gradientTransform="matrix(60, 0, 0, 56, 0, 4)"><stop offset="0" stop-color="#c10000" stop-opacity="1"/><stop offset="1" stop-color="#5f0000" stop-opacity="1"/></linearGradient></defs><path fill="url(#linear-pattern-0)" fill-opacity="1" d="M 36.21875 2.050781 L 62.027344 27.605469 C 64.402344 29.957031 64.417969 33.785156 62.058594 36.15625 L 36.460938 61.917969 C 34.105469 64.289062 30.269531 64.304688 27.894531 61.949219 L 2.085938 36.394531 C -0.289062 34.042969 -0.304688 30.214844 2.050781 27.84375 L 27.652344 2.082031 C 30.007812 -0.289062 33.84375 -0.304688 36.21875 2.050781 Z M 36.21875 2.050781 " /><g transform="matrix(1.0075098,0,0,1.0032698,16.221436,16.077397)"><path fill-rule="nonzero" fill="rgb(100%, 100%, 100%)" fill-opacity="1" d="M 21.679688 4.554688 C 21.46875 4.554688 21.28125 4.820312 21.28125 5.125 L 21.28125 6.039062 L 16.890625 6.828125 C 16.476562 6.902344 16.417969 7.738281 16.816406 7.925781 L 20.71875 9.796875 L 5.492188 23.25 C 5.492188 24.945312 6.285156 26.082031 7.863281 26.082031 L 11.023438 26.082031 L 11.921875 24.132812 C 11.851562 24.394531 11.8125 24.667969 11.8125 24.945312 C 11.8125 26.199219 12.515625 27.214844 13.390625 27.214844 C 14.261719 27.214844 14.96875 26.199219 14.96875 24.945312 L 15.363281 26.082031 L 17.730469 26.082031 L 18.125 24.945312 C 18.125 26.199219 18.832031 27.214844 19.703125 27.214844 C 20.578125 27.214844 21.28125 26.199219 21.28125 24.945312 C 21.28125 24.550781 21.210938 24.160156 21.070312 23.816406 L 21.28125 23.816406 L 22.074219 24.945312 L 27.601562 24.945312 L 26.8125 23.816406 L 27.996094 22.117188 L 26.8125 20.417969 L 27.996094 18.71875 L 26.8125 17.019531 L 27.996094 15.320312 L 26.8125 13.617188 L 27.996094 11.921875 L 26.8125 10.21875 L 22.792969 10.21875 C 22.640625 9.59375 22.234375 9.136719 21.75 9.09375 L 18.71875 7.640625 L 23.304688 6.820312 C 23.503906 6.78125 23.652344 6.542969 23.652344 6.257812 L 23.652344 5.691406 L 24.445312 5.691406 L 24.445312 6.257812 C 24.445312 6.570312 24.617188 6.820312 24.835938 6.820312 C 25.054688 6.820312 25.230469 6.570312 25.230469 6.257812 L 25.230469 5.125 C 25.230469 4.8125 25.054688 4.558594 24.835938 4.558594 Z M 22.074219 5.691406 L 22.863281 5.691406 L 22.863281 5.757812 L 22.074219 5.898438 Z M 22.074219 5.691406 "/><path fill-rule="nonzero" fill="rgb(100%, 100%, 100%)" fill-opacity="1" d="M 15.8125 9.054688 C 7.132812 9.054688 0.625 19.386719 0.625 22.257812 C 0.625 23.976562 1.710938 25.125 3.882812 25.125 L 8.21875 25.125 L 10.390625 21.683594 L 21.242188 21.683594 L 23.40625 23.976562 L 31 23.976562 L 29.917969 22.832031 L 31.546875 21.109375 L 31 20.53125 L 28.835938 19.386719 L 31 18.238281 L 31.546875 17.664062 L 31 17.089844 L 27.75 14.796875 L 31.546875 10.777344 L 29.917969 9.054688 Z M 15.8125 9.054688 "/></g></svg>
