<svg width="64" height="64" viewBox="0 0 64 64" version="1.1"><defs><linearGradient id="linear-pattern-0" gradientUnits="userSpaceOnUse" x1="0" y1="0" x2="0" y2="1" gradientTransform="matrix(60, 0, 0, 56, 0, 4)"><stop offset="0" stop-color="#a67e50" stop-opacity="1"/><stop offset="1" stop-color="#644c30" stop-opacity="1"/></linearGradient></defs><path fill="url(#linear-pattern-0)" fill-opacity="1" d="M 36.21875 2.050781 L 62.027344 27.605469 C 64.402344 29.957031 64.417969 33.785156 62.058594 36.15625 L 36.460938 61.917969 C 34.105469 64.289062 30.269531 64.304688 27.894531 61.949219 L 2.085938 36.394531 C -0.289062 34.042969 -0.304688 30.214844 2.050781 27.84375 L 27.652344 2.082031 C 30.007812 -0.289062 33.84375 -0.304688 36.21875 2.050781 Z M 36.21875 2.050781 " /><g transform="matrix(1.0075098,0,0,1.0032698,16.221436,16.077397)"><path fill-rule="nonzero" fill="rgb(100%, 100%, 100%)" fill-opacity="1" d="M 15.828125 2.664062 C 15.679688 2.679688 15.566406 2.777344 15.53125 2.953125 C 15.511719 3.0625 15.523438 3.242188 15.554688 3.367188 C 15.59375 3.492188 15.617188 3.640625 15.617188 3.703125 C 15.617188 3.765625 15.675781 3.890625 15.738281 3.992188 C 15.847656 4.15625 15.847656 4.171875 15.765625 4.296875 C 15.640625 4.46875 15.429688 4.589844 15.1875 4.628906 C 14.984375 4.65625 14.984375 4.664062 14.984375 4.890625 C 14.984375 5.09375 14.960938 5.132812 14.746094 5.28125 C 14.617188 5.375 14.414062 5.46875 14.289062 5.484375 C 14.117188 5.515625 14.023438 5.570312 13.886719 5.734375 C 13.671875 5.980469 13.21875 6.199219 13.007812 6.15625 C 12.929688 6.136719 12.800781 6.054688 12.71875 5.976562 C 12.539062 5.796875 12.3125 5.773438 12.226562 5.929688 C 12.132812 6.101562 12.214844 6.308594 12.480469 6.554688 C 12.617188 6.679688 12.726562 6.820312 12.726562 6.867188 C 12.726562 7.003906 12.515625 7.222656 12.296875 7.308594 C 11.875 7.46875 11.796875 7.671875 12 8.046875 C 12.058594 8.152344 12.132812 8.339844 12.167969 8.460938 C 12.257812 8.769531 12.128906 9.148438 11.859375 9.34375 C 11.640625 9.507812 11.609375 9.703125 11.78125 9.847656 C 12 10.03125 11.929688 10.164062 11.515625 10.34375 C 10.914062 10.601562 10.757812 10.929688 10.972656 11.476562 C 11.09375 11.800781 11.085938 11.867188 10.875 12.015625 C 10.679688 12.15625 10.570312 12.34375 10.421875 12.78125 C 10.296875 13.160156 10.210938 13.273438 9.945312 13.429688 C 9.664062 13.597656 9.277344 14.136719 9.277344 14.359375 C 9.277344 14.523438 9.71875 15.195312 10.0625 15.570312 C 10.25 15.773438 10.320312 16.101562 10.21875 16.328125 C 10.101562 16.601562 9.820312 16.890625 9.585938 16.988281 C 9.367188 17.078125 9.359375 17.078125 9.109375 16.953125 C 8.96875 16.882812 8.71875 16.6875 8.5625 16.515625 C 8.195312 16.132812 8.0625 16.113281 7.863281 16.433594 C 7.753906 16.601562 7.71875 16.734375 7.71875 16.953125 C 7.71875 17.300781 7.699219 17.3125 7.109375 17.375 C 6.742188 17.414062 6.5625 17.492188 6.191406 17.765625 C 5.9375 17.953125 5.882812 17.957031 5.671875 17.789062 C 5.578125 17.71875 5.257812 17.582031 4.957031 17.488281 C 4.46875 17.335938 4.394531 17.296875 4.261719 17.113281 C 4.179688 17 4.09375 16.851562 4.078125 16.78125 C 4.015625 16.539062 3.195312 15.414062 2.992188 15.304688 C 2.949219 15.273438 2.71875 15.171875 2.492188 15.078125 C 2.101562 14.914062 2.046875 14.90625 1.636719 14.929688 C 1.109375 14.96875 0.835938 15.09375 0.511719 15.464844 C 0.257812 15.757812 0.171875 15.945312 0.09375 16.441406 C -0.0820312 17.585938 -0.0390625 17.738281 0.460938 17.773438 C 0.816406 17.804688 0.921875 17.882812 1.148438 18.265625 C 1.230469 18.398438 1.332031 18.527344 1.378906 18.554688 C 1.464844 18.59375 1.996094 18.796875 2.460938 18.960938 C 2.773438 19.078125 2.925781 19.195312 3.203125 19.558594 C 3.3125 19.703125 3.5 19.914062 3.617188 20.039062 C 3.734375 20.15625 3.828125 20.296875 3.828125 20.351562 C 3.828125 20.402344 3.703125 20.5625 3.546875 20.710938 C 3.234375 21.011719 3.210938 21.136719 3.351562 21.585938 C 3.417969 21.792969 3.480469 21.867188 3.671875 21.984375 C 3.804688 22.0625 4.019531 22.21875 4.148438 22.332031 C 4.386719 22.535156 4.390625 22.539062 4.304688 22.691406 C 4.257812 22.777344 4.1875 22.863281 4.15625 22.882812 C 4.121094 22.902344 4.054688 23 4.015625 23.09375 C 3.945312 23.253906 3.945312 23.289062 4.046875 23.480469 C 4.140625 23.644531 4.15625 23.742188 4.125 23.941406 C 4.097656 24.148438 4.113281 24.226562 4.199219 24.34375 C 4.261719 24.421875 4.351562 24.597656 4.40625 24.726562 C 4.554688 25.085938 4.582031 25.101562 5.5 25.46875 C 5.667969 25.53125 5.71875 25.59375 5.816406 25.847656 C 5.882812 26.015625 5.960938 26.25 5.992188 26.363281 C 6.085938 26.699219 6.390625 26.90625 6.804688 26.90625 C 7.039062 26.90625 7.273438 26.988281 7.273438 27.066406 C 7.273438 27.164062 7.652344 27.609375 7.863281 27.757812 C 7.976562 27.839844 8.148438 27.914062 8.265625 27.914062 C 8.429688 27.929688 8.527344 27.992188 8.859375 28.320312 C 9.074219 28.53125 9.335938 28.8125 9.433594 28.941406 C 9.53125 29.070312 9.695312 29.21875 9.796875 29.265625 L 9.796875 29.273438 C 9.980469 29.359375 10.085938 29.359375 11.3125 29.257812 C 11.929688 29.203125 12.039062 29.152344 12.121094 28.875 C 12.21875 28.535156 12.140625 28.359375 11.820312 28.21875 C 11.5625 28.09375 11.554688 28.09375 11.308594 28.179688 C 11.078125 28.257812 11.035156 28.257812 10.789062 28.179688 C 10.648438 28.140625 10.4375 28.089844 10.324219 28.070312 C 10.050781 28.03125 10.058594 27.960938 10.351562 27.835938 C 10.648438 27.710938 10.734375 27.710938 10.90625 27.839844 C 11.203125 28.054688 11.367188 27.921875 11.304688 27.527344 C 11.273438 27.359375 11.296875 27.320312 11.609375 27.03125 C 11.796875 26.863281 12.054688 26.667969 12.183594 26.601562 C 12.390625 26.496094 12.46875 26.484375 12.8125 26.515625 C 13.140625 26.539062 13.226562 26.53125 13.382812 26.4375 C 13.578125 26.324219 13.59375 26.25 13.492188 25.890625 C 13.4375 25.679688 13.441406 25.632812 13.539062 25.46875 C 13.679688 25.21875 13.9375 24.984375 14.0625 24.984375 C 14.203125 24.984375 14.5625 25.183594 14.710938 25.34375 C 14.820312 25.460938 14.878906 25.472656 15.269531 25.492188 C 15.507812 25.507812 15.726562 25.507812 15.761719 25.507812 C 15.789062 25.507812 16.007812 25.492188 16.242188 25.476562 C 16.617188 25.445312 16.703125 25.453125 17.023438 25.578125 C 17.226562 25.648438 17.546875 25.746094 17.734375 25.789062 C 18.132812 25.875 18.257812 25.960938 18.429688 26.28125 C 18.582031 26.5625 18.648438 26.621094 19.148438 26.929688 C 19.710938 27.273438 20.125 27.304688 20.695312 27.03125 C 20.839844 26.964844 21.007812 26.90625 21.066406 26.90625 C 21.242188 26.90625 21.460938 26.695312 21.539062 26.4375 C 21.601562 26.226562 21.617188 26.203125 21.804688 26.203125 C 21.921875 26.203125 22.054688 26.167969 22.117188 26.117188 C 22.171875 26.066406 22.296875 26.023438 22.386719 26.023438 C 22.605469 26.023438 22.6875 25.9375 22.6875 25.707031 C 22.6875 25.554688 22.726562 25.484375 22.882812 25.355469 C 23.28125 25.023438 23.3125 25.015625 23.609375 25.140625 C 24.011719 25.304688 24.191406 25.277344 24.917969 24.929688 C 25.152344 24.820312 25.40625 24.726562 25.484375 24.726562 C 25.570312 24.726562 25.777344 24.832031 25.996094 24.988281 C 26.527344 25.359375 26.726562 25.328125 26.898438 24.835938 C 27.007812 24.511719 26.988281 24.46875 26.609375 24.199219 C 26.25 23.941406 26.21875 23.882812 26.34375 23.648438 C 26.46875 23.414062 26.6875 23.289062 27.234375 23.160156 C 27.695312 23.054688 27.828125 22.992188 28.605469 22.527344 C 28.992188 22.304688 29.148438 22.234375 29.320312 22.234375 C 30.125 22.234375 30.523438 21.453125 30.617188 19.679688 C 30.628906 19.417969 30.679688 19.230469 30.835938 18.902344 C 31.226562 18.078125 31.3125 17.808594 31.390625 17.03125 C 31.445312 16.546875 31.453125 16.21875 31.421875 16.085938 C 31.390625 15.949219 31.402344 15.542969 31.464844 14.890625 C 31.617188 13.199219 31.585938 12.871094 31.203125 12.351562 C 31.09375 12.203125 31.039062 12.039062 31.007812 11.820312 C 30.964844 11.445312 30.835938 11.113281 30.523438 10.570312 C 30.265625 10.121094 30.140625 9.945312 29.71875 9.484375 C 29.316406 9.050781 29.304688 9.007812 29.3125 8.460938 C 29.320312 8.117188 29.296875 7.921875 29.234375 7.78125 C 29.179688 7.671875 29.140625 7.5 29.140625 7.40625 C 29.140625 7.28125 29.109375 7.214844 29.023438 7.175781 C 28.867188 7.09375 28.164062 7.082031 28.078125 7.15625 C 28.046875 7.1875 28.003906 7.328125 27.988281 7.460938 C 27.960938 7.648438 27.929688 7.714844 27.828125 7.757812 C 27.640625 7.835938 27.226562 7.601562 27.085938 7.328125 C 27.023438 7.21875 26.878906 7.0625 26.765625 6.984375 C 26.421875 6.734375 26.371094 6.671875 26.328125 6.453125 C 26.296875 6.273438 26.320312 6.199219 26.457031 5.96875 C 26.65625 5.644531 26.726562 5.117188 26.605469 4.953125 C 26.480469 4.789062 26.191406 4.6875 25.941406 4.726562 C 25.734375 4.757812 25.710938 4.78125 25.570312 5.054688 C 25.476562 5.234375 25.335938 5.402344 25.207031 5.492188 C 25.089844 5.574219 24.914062 5.703125 24.8125 5.78125 C 24.609375 5.945312 24.378906 5.96875 24.136719 5.851562 C 23.996094 5.785156 23.976562 5.742188 23.9375 5.445312 C 23.914062 5.1875 23.863281 5.0625 23.710938 4.863281 C 23.605469 4.726562 23.503906 4.519531 23.484375 4.410156 C 23.460938 4.265625 23.398438 4.171875 23.257812 4.074219 C 23.15625 4 23.03125 3.871094 22.984375 3.789062 C 22.875 3.59375 22.59375 3.4375 22.351562 3.4375 C 22.183594 3.4375 22.109375 3.484375 21.796875 3.792969 C 21.601562 3.988281 21.390625 4.164062 21.328125 4.179688 C 21.269531 4.203125 21.082031 4.164062 20.875 4.085938 C 20.484375 3.9375 20.328125 3.929688 20.132812 4.03125 C 20.015625 4.09375 19.960938 4.09375 19.773438 4.03125 C 19.472656 3.929688 19.328125 3.972656 19.179688 4.195312 C 18.945312 4.550781 18.714844 4.539062 18.632812 4.160156 C 18.585938 3.953125 18.417969 3.855469 18.097656 3.851562 C 17.972656 3.851562 17.757812 3.796875 17.601562 3.726562 C 17.28125 3.574219 17.054688 3.5625 16.671875 3.679688 C 16.40625 3.757812 16.390625 3.757812 16.320312 3.664062 C 16.25 3.578125 16.253906 3.546875 16.347656 3.40625 C 16.496094 3.179688 16.484375 3.0625 16.296875 2.875 C 16.140625 2.71875 15.96875 2.648438 15.828125 2.664062 Z M 20.695312 6.230469 C 21.058594 6.203125 21.515625 6.25 22.148438 6.367188 C 22.394531 6.414062 22.765625 6.480469 22.976562 6.511719 C 23.1875 6.546875 23.472656 6.585938 23.609375 6.609375 C 23.960938 6.664062 24.179688 6.789062 24.320312 7.011719 C 24.429688 7.1875 24.429688 7.210938 24.351562 7.265625 C 24.234375 7.34375 24.242188 7.40625 24.375 7.484375 C 24.4375 7.523438 24.484375 7.605469 24.484375 7.679688 C 24.484375 7.882812 24.585938 8.015625 24.730469 8.015625 C 24.925781 8.015625 25.007812 8.140625 24.929688 8.320312 C 24.890625 8.398438 24.875 8.5 24.882812 8.539062 C 24.890625 8.59375 24.859375 8.609375 24.789062 8.59375 C 24.34375 8.515625 24.101562 8.609375 24.21875 8.8125 C 24.265625 8.898438 24.25 8.9375 24.105469 9.050781 C 23.910156 9.203125 23.890625 9.3125 24.054688 9.3125 C 24.125 9.3125 24.179688 9.351562 24.199219 9.417969 C 24.234375 9.554688 24.257812 9.550781 24.429688 9.390625 C 24.558594 9.273438 24.585938 9.269531 24.683594 9.335938 C 24.78125 9.398438 24.792969 9.457031 24.78125 9.789062 C 24.757812 10.304688 24.867188 11.070312 24.976562 11.261719 C 25.15625 11.5625 25.207031 11.953125 25.144531 12.5625 C 25.113281 12.875 25.070312 13.320312 25.054688 13.546875 C 25.027344 13.878906 24.992188 13.992188 24.890625 14.109375 C 24.746094 14.273438 24.734375 14.382812 24.757812 15.367188 C 24.769531 15.90625 24.78125 15.945312 24.9375 16.15625 C 25.027344 16.273438 25.148438 16.378906 25.210938 16.398438 C 25.320312 16.421875 25.320312 16.421875 25.207031 16.5625 C 25.140625 16.640625 25.089844 16.75 25.089844 16.800781 C 25.089844 16.882812 25.121094 16.890625 25.253906 16.863281 C 25.394531 16.835938 25.425781 16.851562 25.46875 16.96875 C 25.539062 17.144531 25.679688 17.148438 25.757812 16.984375 C 25.808594 16.882812 25.855469 16.859375 26.085938 16.859375 C 26.320312 16.859375 26.359375 16.875 26.386719 16.984375 C 26.425781 17.132812 26.546875 17.179688 26.695312 17.105469 C 26.84375 17.03125 26.929688 17.117188 27.066406 17.488281 C 27.203125 17.851562 27.203125 18.0625 27.078125 18.332031 C 26.914062 18.667969 26.46875 18.964844 25.691406 19.265625 C 25.335938 19.40625 25.1875 19.492188 25.023438 19.675781 C 24.675781 20.0625 24.578125 20.207031 24.59375 21.421875 C 24.609375 23.382812 24.613281 23.351562 24.488281 23.578125 C 24.429688 23.695312 24.390625 23.828125 24.328125 23.882812 L 24.328125 23.875 C 24.234375 23.953125 24.101562 23.976562 23.679688 24 C 23.382812 24.007812 23.121094 24 23.101562 23.980469 C 23.039062 23.914062 22.273438 23.878906 21.988281 23.914062 C 21.890625 23.929688 21.875 23.898438 21.875 23.738281 C 21.875 23.546875 21.699219 23.296875 21.648438 23.417969 C 21.546875 23.667969 21.304688 23.695312 21.304688 23.457031 C 21.304688 23.273438 21.121094 23.296875 21.046875 23.492188 C 20.960938 23.703125 20.777344 23.714844 20.828125 23.507812 C 20.929688 23.085938 20.929688 23.027344 20.851562 23.027344 C 20.703125 23.027344 20.632812 22.898438 20.695312 22.738281 C 20.78125 22.53125 20.71875 22.3125 20.570312 22.289062 C 20.460938 22.273438 20.449219 22.242188 20.4375 21.882812 C 20.429688 21.671875 20.421875 21.398438 20.421875 21.277344 C 20.421875 21.015625 20.28125 21.039062 20.011719 20.835938 C 19.890625 20.75 19.816406 20.648438 19.816406 20.574219 C 19.816406 20.507812 19.78125 20.414062 19.738281 20.355469 C 19.664062 20.257812 19.65625 20.257812 19.523438 20.382812 C 19.398438 20.492188 19.351562 20.5 19.09375 20.46875 C 18.71875 20.417969 18.203125 20.390625 17.371094 20.359375 C 16.769531 20.339844 16.398438 20.292969 16.265625 20.210938 C 16.234375 20.195312 15.929688 20.15625 15.585938 20.121094 C 15.238281 20.089844 14.875 20.03125 14.773438 19.992188 C 14.671875 19.953125 14.460938 19.917969 14.304688 19.917969 C 14.148438 19.917969 13.792969 19.886719 13.507812 19.847656 C 12.945312 19.773438 12.765625 19.398438 12.65625 19.070312 C 12.625 18.976562 12.519531 18.851562 12.425781 18.796875 C 12.265625 18.695312 12.257812 18.679688 12.273438 18.382812 C 12.289062 18.1875 12.328125 18.039062 12.390625 17.980469 C 12.460938 17.898438 12.46875 17.847656 12.414062 17.640625 C 12.359375 17.40625 12.359375 17.390625 12.488281 17.296875 C 12.5625 17.242188 12.625 17.171875 12.625 17.132812 C 12.625 17.09375 12.675781 17.03125 12.738281 17 C 12.828125 16.953125 12.847656 16.910156 12.824219 16.800781 C 12.804688 16.699219 12.832031 16.601562 12.925781 16.476562 C 13.054688 16.296875 13.054688 16.289062 12.957031 16.203125 C 12.851562 16.117188 12.855469 16.101562 13.042969 15.777344 C 13.21875 15.476562 13.226562 15.429688 13.164062 15.273438 C 13.058594 14.988281 13.304688 14.59375 13.9375 14.035156 C 14.398438 13.632812 14.476562 13.539062 14.59375 13.25 C 14.65625 13.074219 14.765625 12.8125 14.828125 12.667969 C 14.890625 12.523438 14.960938 12.335938 14.984375 12.25 C 15.011719 12.164062 15.117188 11.925781 15.226562 11.71875 C 15.386719 11.414062 15.578125 11.183594 16.222656 10.550781 C 16.664062 10.117188 17.113281 9.632812 17.226562 9.480469 C 17.65625 8.890625 17.734375 8.765625 17.789062 8.570312 C 17.820312 8.453125 17.953125 8.234375 18.078125 8.078125 C 18.308594 7.78125 18.484375 7.507812 18.636719 7.203125 C 18.835938 6.804688 19.460938 6.460938 20.351562 6.273438 C 20.457031 6.25 20.570312 6.238281 20.695312 6.230469 Z M 19.796875 12.523438 C 19.746094 12.539062 19.6875 12.570312 19.621094 12.613281 C 19.507812 12.6875 19.359375 12.789062 19.28125 12.835938 C 18.738281 13.1875 18.296875 13.695312 18.296875 13.957031 C 18.292969 14.0625 18.070312 14.492188 17.867188 14.789062 C 17.785156 14.898438 17.703125 15.085938 17.679688 15.203125 C 17.660156 15.328125 17.609375 15.519531 17.570312 15.640625 C 17.507812 15.835938 17.507812 16.40625 17.609375 16.507812 C 17.742188 16.652344 18.125 16.816406 18.449219 16.867188 C 18.585938 16.890625 19.226562 16.914062 19.859375 16.914062 C 21.222656 16.921875 21.449219 16.878906 21.65625 16.566406 C 21.859375 16.25 21.914062 15.523438 21.859375 15.34375 C 21.800781 15.148438 21.65625 14.984375 21.546875 14.984375 C 21.378906 14.984375 21.035156 14.753906 21.003906 14.621094 C 20.984375 14.550781 20.921875 14.371094 20.863281 14.230469 C 20.691406 13.820312 20.617188 13.621094 20.539062 13.378906 C 20.46875 13.148438 20.066406 12.609375 19.90625 12.523438 C 19.878906 12.507812 19.839844 12.507812 19.796875 12.523438 Z M 19.796875 12.523438 "/></g></svg>
