<svg width="64" height="64" viewBox="0 0 64 64" version="1.1"><defs><linearGradient id="linear-pattern-0" gradientUnits="userSpaceOnUse" x1="0" y1="0" x2="0" y2="1" gradientTransform="matrix(60, 0, 0, 56, 0, 4)"><stop offset="0" stop-color="#3067ff" stop-opacity="1"/><stop offset="1" stop-color="#002ca6" stop-opacity="1"/></linearGradient></defs><path fill="url(#linear-pattern-0)" fill-opacity="1" d="M 36.21875 2.050781 L 62.027344 27.605469 C 64.402344 29.957031 64.417969 33.785156 62.058594 36.15625 L 36.460938 61.917969 C 34.105469 64.289062 30.269531 64.304688 27.894531 61.949219 L 2.085938 36.394531 C -0.289062 34.042969 -0.304688 30.214844 2.050781 27.84375 L 27.652344 2.082031 C 30.007812 -0.289062 33.84375 -0.304688 36.21875 2.050781 Z M 36.21875 2.050781 " /><g transform="matrix(1.0075098,0,0,1.0032698,16.221436,16.077397)"><path fill-rule="nonzero" fill="rgb(100%, 100%, 100%)" fill-opacity="1" d="M 13.617188 0.582031 C 11.894531 0.582031 10.515625 1.625 10.515625 2.929688 L 10.515625 21.710938 C 7.9375 21.710938 5.859375 23.796875 5.859375 26.40625 C 5.859375 29.007812 7.9375 31.101562 10.515625 31.101562 L 10.515625 28.75 C 10.515625 27.449219 11.898438 26.40625 13.617188 26.40625 C 15.335938 26.40625 16.71875 27.453125 16.71875 28.75 L 16.71875 31.101562 C 19.292969 31.101562 21.375 29.007812 21.375 26.40625 C 21.375 23.796875 19.292969 21.710938 16.71875 21.710938 L 16.71875 12.320312 C 19.820312 15.148438 26.027344 14.664062 26.027344 18.539062 C 26.027344 20.066406 23.992188 21.710938 19.820312 22.882812 C 24.476562 22.882812 27.578125 20.535156 27.578125 18.1875 C 27.578125 16.789062 27.03125 15.710938 26.1875 14.796875 C 26.992188 14.109375 27.578125 13.164062 27.578125 11.734375 C 27.578125 6.804688 20.132812 5.453125 16.515625 2.132812 C 16.359375 1.804688 16.125 1.507812 15.808594 1.273438 C 15.246094 0.847656 14.46875 0.585938 13.601562 0.585938 Z M 16.71875 5.863281 C 19.820312 8.796875 26.027344 8.796875 26.027344 12.320312 C 26.027344 13.167969 25.871094 13.738281 25.613281 14.234375 C 23.132812 12.070312 18.914062 10.851562 16.726562 8.210938 L 16.726562 5.863281 Z M 16.71875 5.863281 "/></g></svg>
