<svg width="64" height="64" viewBox="0 0 64 64" version="1.1"><defs><linearGradient id="linear-pattern-0" gradientUnits="userSpaceOnUse" x1="0" y1="0" x2="0" y2="1" gradientTransform="matrix(60, 0, 0, 56, 0, 4)"><stop offset="0" stop-color="#ec7700" stop-opacity="1"/><stop offset="1" stop-color="#773c00" stop-opacity="1"/></linearGradient></defs><path fill="url(#linear-pattern-0)" fill-opacity="1" d="M 36.21875 2.050781 L 62.027344 27.605469 C 64.402344 29.957031 64.417969 33.785156 62.058594 36.15625 L 36.460938 61.917969 C 34.105469 64.289062 30.269531 64.304688 27.894531 61.949219 L 2.085938 36.394531 C -0.289062 34.042969 -0.304688 30.214844 2.050781 27.84375 L 27.652344 2.082031 C 30.007812 -0.289062 33.84375 -0.304688 36.21875 2.050781 Z M 36.21875 2.050781 " /><g transform="matrix(1.0075098,0,0,1.0032698,16.221436,16.077397)"><path fill-rule="nonzero" fill="rgb(100%, 100%, 100%)" fill-opacity="1" d="M 17.203125 3.183594 C 15.875 3.195312 14.78125 4.054688 13.738281 5.210938 C 12.695312 6.375 11.667969 7.875 10.46875 9.359375 C 8.0625 12.324219 5.046875 15.199219 0 15.199219 L 0 16.804688 C 1.992188 16.804688 3.65625 17.261719 5.105469 17.984375 L 5.105469 18.007812 L 5.140625 18.007812 C 7.34375 19.117188 9.023438 20.855469 10.46875 22.640625 C 11.667969 24.125 12.695312 25.625 13.738281 26.789062 C 14.78125 27.945312 15.875 28.804688 17.203125 28.816406 C 18.527344 28.828125 19.507812 27.945312 20.324219 26.78125 C 21.144531 25.609375 21.871094 24.109375 22.773438 22.625 C 23.929688 20.71875 25.339844 18.867188 27.535156 17.78125 L 27.535156 18.007812 L 29.269531 18.007812 L 29.269531 17.15625 C 30.089844 16.945312 30.976562 16.804688 31.996094 16.804688 L 31.996094 16.800781 L 32 16.800781 L 32 16 L 31.996094 16 L 31.996094 15.199219 C 30.976562 15.199219 30.089844 15.058594 29.269531 14.847656 L 29.269531 14.796875 L 29.054688 14.796875 C 25.953125 13.917969 24.171875 11.691406 22.773438 9.375 C 21.871094 7.894531 21.144531 6.390625 20.324219 5.21875 C 19.507812 4.054688 18.527344 3.171875 17.203125 3.183594 Z M 17.210938 4.003906 C 18.179688 3.996094 18.898438 4.609375 19.65625 5.695312 C 20.414062 6.773438 21.148438 8.277344 22.070312 9.804688 C 22.671875 10.792969 23.378906 11.785156 24.226562 12.6875 C 23.664062 12.21875 23.175781 11.710938 22.726562 11.199219 C 21.832031 10.1875 21.105469 9.152344 20.273438 8.339844 C 19.445312 7.53125 18.472656 6.9375 17.203125 6.945312 C 15.929688 6.957031 14.84375 7.539062 13.792969 8.335938 C 12.746094 9.136719 11.71875 10.167969 10.515625 11.183594 C 9.816406 11.777344 9.050781 12.363281 8.203125 12.898438 C 9.300781 11.96875 10.257812 10.921875 11.101562 9.875 C 12.328125 8.359375 13.363281 6.859375 14.351562 5.761719 C 15.335938 4.664062 16.242188 4.011719 17.210938 4.003906 Z M 17.210938 7.765625 C 18.234375 7.757812 18.953125 8.191406 19.703125 8.925781 C 20.453125 9.65625 21.1875 10.6875 22.113281 11.742188 C 23.359375 13.15625 25.007812 14.574219 27.535156 15.371094 L 27.535156 16 L 17.992188 16 L 17.992188 14.796875 L 16.257812 14.796875 L 16.257812 16 L 6.898438 16 L 6.898438 14.796875 L 6.335938 14.796875 C 8.242188 13.992188 9.761719 12.898438 11.046875 11.808594 C 12.273438 10.765625 13.3125 9.738281 14.296875 8.988281 C 15.277344 8.238281 16.183594 7.773438 17.210938 7.765625 Z M 5.105469 15.257812 L 5.105469 16 L 0.398438 16 C 2.179688 15.960938 3.742188 15.691406 5.105469 15.257812 Z M 29.269531 15.78125 C 29.988281 15.898438 30.757812 15.984375 31.609375 16 L 29.269531 16 Z M 4.382812 16.800781 L 5.105469 16.800781 L 5.105469 17.085938 C 4.875 16.976562 4.625 16.894531 4.382812 16.800781 Z M 6.898438 16.800781 L 16.257812 16.800781 L 16.257812 18.007812 L 17.992188 18.007812 L 17.992188 16.800781 L 27.535156 16.800781 L 27.535156 16.914062 C 24.96875 18.078125 23.3125 20.15625 22.070312 22.203125 C 21.148438 23.726562 20.414062 25.226562 19.65625 26.3125 C 18.898438 27.390625 18.179688 28.003906 17.210938 27.996094 C 16.242188 27.988281 15.335938 27.335938 14.351562 26.238281 C 13.363281 25.140625 12.328125 23.640625 11.101562 22.125 C 9.90625 20.648438 8.503906 19.152344 6.765625 18.007812 L 6.898438 18.007812 Z M 6.898438 16.800781 "/></g></svg>
