<svg width="64" height="64" viewBox="0 0 64 64" version="1.1"><defs><linearGradient id="linear-pattern-0" gradientUnits="userSpaceOnUse" x1="0" y1="0" x2="0" y2="1" gradientTransform="matrix(60, 0, 0, 56, 0, 4)"><stop offset="0" stop-color="#7795ab" stop-opacity="1"/><stop offset="1" stop-color="#3b4f5f" stop-opacity="1"/></linearGradient></defs><path fill="url(#linear-pattern-0)" fill-opacity="1" d="M 36.21875 2.050781 L 62.027344 27.605469 C 64.402344 29.957031 64.417969 33.785156 62.058594 36.15625 L 36.460938 61.917969 C 34.105469 64.289062 30.269531 64.304688 27.894531 61.949219 L 2.085938 36.394531 C -0.289062 34.042969 -0.304688 30.214844 2.050781 27.84375 L 27.652344 2.082031 C 30.007812 -0.289062 33.84375 -0.304688 36.21875 2.050781 Z M 36.21875 2.050781 " /><g transform="matrix(1.0075098,0,0,1.0032698,16.221436,16.077397)"><path fill-rule="evenodd" fill="rgb(100%, 100%, 100%)" fill-opacity="1" d="M 15.359375 4 C 14.179688 4 12.945312 4.757812 12.6875 6.023438 C 12.65625 6.140625 12.640625 6.265625 12.640625 6.398438 L 12.640625 6.4375 C 12.640625 6.453125 12.640625 6.460938 12.636719 6.472656 C 12.632812 6.484375 12.632812 6.5 12.632812 6.511719 L 12.632812 8.320312 C 12.648438 8.296875 12.660156 8.273438 12.675781 8.25 C 12.6875 8.238281 12.695312 8.222656 12.703125 8.207031 L 16 8.207031 L 16 7.367188 L 18.523438 7.367188 L 18.523438 17.464844 L 21.890625 17.464844 L 21.890625 7.367188 L 24.414062 7.367188 L 24.414062 8.207031 L 27.6875 8.207031 C 27.703125 8.226562 27.714844 8.242188 27.726562 8.257812 C 27.742188 8.277344 27.761719 8.296875 27.777344 8.320312 C 27.785156 7.617188 27.789062 7.09375 27.789062 6.742188 C 27.789062 5.273438 26.695312 4 24.78125 4 Z M 6.507812 19.992188 C 6.375 19.992188 6.171875 19.992188 5.941406 20.011719 C 5.875 20.015625 5.8125 20.023438 5.746094 20.03125 L 5.707031 20.035156 C 5.640625 20.042969 5.578125 20.054688 5.511719 20.0625 C 4.660156 20.1875 3.765625 20.519531 2.734375 21.351562 C 1.890625 22 0.96875 22.945312 0 24.34375 L 3.113281 26.015625 C 3.390625 25.828125 3.667969 25.546875 3.964844 25.25 C 4.273438 24.9375 4.597656 24.609375 4.964844 24.34375 C 5.449219 23.992188 6.109375 23.761719 6.507812 23.761719 C 6.910156 23.761719 7.1875 23.835938 7.445312 23.980469 C 7.671875 24.109375 7.875 24.273438 8.335938 24.710938 L 8.355469 24.726562 C 8.703125 25.054688 8.96875 25.296875 9.21875 25.492188 C 9.46875 25.691406 9.703125 25.851562 9.992188 26.015625 C 10.816406 26.480469 11.734375 26.71875 12.785156 26.71875 C 13.046875 26.71875 13.304688 26.707031 13.550781 26.679688 C 14.042969 26.617188 14.507812 26.496094 14.941406 26.320312 C 15.15625 26.234375 15.367188 26.132812 15.578125 26.015625 C 16.160156 25.6875 16.515625 25.382812 17.214844 24.726562 C 17.453125 24.5 17.625 24.347656 17.765625 24.234375 C 17.902344 24.117188 18.007812 24.046875 18.125 23.980469 C 18.382812 23.835938 18.660156 23.761719 19.0625 23.761719 C 19.46875 23.761719 19.746094 23.835938 20.003906 23.980469 C 20.234375 24.113281 20.429688 24.273438 20.914062 24.726562 C 21.609375 25.382812 21.96875 25.6875 22.554688 26.015625 C 22.757812 26.132812 22.96875 26.234375 23.1875 26.320312 C 23.839844 26.585938 24.554688 26.71875 25.34375 26.71875 C 25.609375 26.71875 25.867188 26.707031 26.117188 26.675781 C 26.121094 26.675781 26.125 26.671875 26.132812 26.671875 C 26.878906 26.578125 27.566406 26.359375 28.179688 26.015625 C 28.589844 25.804688 29 25.5 29.394531 25.15625 C 29.421875 25.132812 29.449219 25.109375 29.476562 25.085938 C 29.542969 25.03125 29.609375 24.96875 29.671875 24.910156 C 29.742188 24.851562 29.804688 24.789062 29.875 24.726562 L 29.90625 24.6875 L 29.941406 24.644531 C 30.96875 23.617188 31.75 22.492188 31.925781 22.242188 L 31.953125 22.199219 L 32 22.144531 L 28.890625 20.539062 C 28.960938 20.460938 28.921875 20.5 28.867188 20.554688 C 28.835938 20.585938 28.796875 20.625 28.78125 20.640625 C 28.382812 21.167969 27.296875 22.40625 26.730469 22.683594 C 26.390625 22.839844 26.015625 22.921875 25.640625 22.914062 C 25.3125 22.902344 24.992188 22.839844 24.6875 22.730469 C 24.242188 22.570312 23.835938 22.3125 23.492188 21.984375 C 22.796875 21.328125 22.4375 21.027344 21.855469 20.695312 C 21.03125 20.230469 20.117188 19.992188 19.0625 19.992188 C 18.800781 19.992188 18.546875 20.003906 18.296875 20.03125 C 17.558594 20.125 16.890625 20.347656 16.273438 20.695312 C 15.691406 21.027344 15.332031 21.328125 14.632812 21.984375 C 14.15625 22.4375 13.957031 22.601562 13.722656 22.730469 C 13.59375 22.804688 13.460938 22.859375 13.308594 22.894531 C 13.15625 22.929688 12.984375 22.949219 12.785156 22.949219 C 12.382812 22.949219 12.101562 22.878906 11.847656 22.730469 C 11.613281 22.601562 11.417969 22.4375 10.9375 21.984375 C 10.242188 21.328125 9.878906 21.027344 9.296875 20.695312 C 8.476562 20.230469 7.5625 19.992188 6.507812 19.992188 Z M 6.746094 14.902344 L 6.746094 14.90625 L 6.742188 14.90625 L 6.746094 14.914062 C 6.75 16.550781 7.84375 17.398438 9.464844 17.460938 C 9.476562 17.460938 9.488281 17.464844 9.5 17.464844 L 16 17.464844 L 16 14.101562 L 10.109375 14.101562 L 10.109375 6.796875 C 10.109375 6.066406 9.8125 4 7.121094 4 L 5.058594 4 L 5.058594 7.367188 L 6.738281 7.367188 Z M 6.746094 14.902344 "/></g></svg>
