<svg width="64" height="64" viewBox="0 0 64 64" version="1.1"><defs><linearGradient id="linear-pattern-0" gradientUnits="userSpaceOnUse" x1="0" y1="0" x2="0" y2="1" gradientTransform="matrix(60, 0, 0, 56, 0, 4)"><stop offset="0" stop-color="#c10000" stop-opacity="1"/><stop offset="1" stop-color="#5f0000" stop-opacity="1"/></linearGradient></defs><path fill="url(#linear-pattern-0)" fill-opacity="1" d="M 36.21875 2.050781 L 62.027344 27.605469 C 64.402344 29.957031 64.417969 33.785156 62.058594 36.15625 L 36.460938 61.917969 C 34.105469 64.289062 30.269531 64.304688 27.894531 61.949219 L 2.085938 36.394531 C -0.289062 34.042969 -0.304688 30.214844 2.050781 27.84375 L 27.652344 2.082031 C 30.007812 -0.289062 33.84375 -0.304688 36.21875 2.050781 Z M 36.21875 2.050781 " /><g transform="matrix(1.0075098,0,0,1.0032698,16.221436,16.077397)"><path fill-rule="nonzero" fill="rgb(100%, 100%, 100%)" fill-opacity="1" d="M 15 1.128906 L 3.65625 7.691406 L 9.136719 10.859375 L 15 7.484375 L 15 1.128906 M 17.351562 1.128906 L 17.351562 7.476562 L 23.210938 10.875 L 28.699219 7.703125 L 17.359375 1.128906 L 17.351562 1.128906 M 16.171875 8.695312 L 9.585938 12.507812 L 9.585938 20.125 L 16.160156 23.9375 L 22.742188 20.132812 L 22.742188 12.507812 L 16.171875 8.695312 M 2.460938 9.742188 L 2.453125 22.875 L 7.9375 19.710938 L 7.9375 12.914062 L 2.460938 9.742188 M 29.875 9.75 L 24.390625 12.921875 L 24.390625 19.714844 L 29.867188 22.886719 L 29.875 9.75 M 9.113281 21.757812 L 3.628906 24.9375 L 14.96875 31.507812 L 14.96875 25.160156 L 9.113281 21.757812 M 23.203125 21.765625 L 17.34375 25.148438 L 17.34375 31.507812 L 28.6875 24.941406 L 23.203125 21.765625 "/></g></svg>
