<svg width="64" height="64" viewBox="0 0 64 64" version="1.1"><defs><linearGradient id="linear-pattern-0" gradientUnits="userSpaceOnUse" x1="0" y1="0" x2="0" y2="1" gradientTransform="matrix(60, 0, 0, 56, 0, 4)"><stop offset="0" stop-color="#0288cf" stop-opacity="1"/><stop offset="1" stop-color="#01486e" stop-opacity="1"/></linearGradient></defs><path fill="url(#linear-pattern-0)" fill-opacity="1" d="M 36.21875 2.050781 L 62.027344 27.605469 C 64.402344 29.957031 64.417969 33.785156 62.058594 36.15625 L 36.460938 61.917969 C 34.105469 64.289062 30.269531 64.304688 27.894531 61.949219 L 2.085938 36.394531 C -0.289062 34.042969 -0.304688 30.214844 2.050781 27.84375 L 27.652344 2.082031 C 30.007812 -0.289062 33.84375 -0.304688 36.21875 2.050781 Z M 36.21875 2.050781 " /><g transform="matrix(1.0075098,0,0,1.0032698,16.221436,16.077397)"><path fill-rule="nonzero" fill="rgb(100%, 100%, 100%)" fill-opacity="1" d="M 11.835938 12.476562 C 12.535156 13.371094 15.820312 20.773438 16.757812 23.085938 C 14.210938 23.085938 13.367188 23.085938 9.96875 23.085938 C 7.320312 20.921875 3.710938 17.117188 3.011719 16.222656 "/><path fill-rule="nonzero" fill="rgb(100%, 100%, 100%)" fill-opacity="1" d="M 9.359375 6.078125 C 10.765625 8.507812 9.929688 11.609375 7.496094 13.007812 C 5.058594 14.40625 1.945312 13.578125 0.539062 11.148438 C -0.867188 8.722656 -0.0351562 5.621094 2.398438 4.21875 C 4.835938 2.820312 7.953125 3.652344 9.359375 6.078125 Z M 9.359375 6.078125 "/><path fill-rule="nonzero" fill="rgb(100%, 100%, 100%)" fill-opacity="1" d="M 18.132812 23.039062 C 19.820312 21.367188 31.59375 9.492188 32.492188 10.492188 C 33.210938 11.605469 28.125 18.851562 24.921875 23.039062 "/><path fill-rule="evenodd" fill="rgb(100%, 100%, 100%)" fill-opacity="1" d="M 6.785156 24.125 L 26.632812 24.125 C 26.953125 24.125 27.210938 24.386719 27.210938 24.710938 L 27.210938 26.925781 C 27.210938 27.25 26.953125 27.507812 26.632812 27.507812 L 6.785156 27.507812 C 6.464844 27.507812 6.203125 27.25 6.203125 26.925781 L 6.203125 24.710938 C 6.203125 24.386719 6.464844 24.125 6.785156 24.125 Z M 6.785156 24.125 "/></g></svg>
