<svg width="64" height="64" viewBox="0 0 64 64" version="1.1"><defs><linearGradient id="linear-pattern-0" gradientUnits="userSpaceOnUse" x1="0" y1="0" x2="0" y2="1" gradientTransform="matrix(60, 0, 0, 56, 0, 4)"><stop offset="0" stop-color="#aaaa00" stop-opacity="1"/><stop offset="1" stop-color="#5c5c00" stop-opacity="1"/></linearGradient></defs><path fill="url(#linear-pattern-0)" fill-opacity="1" d="M 36.21875 2.050781 L 62.027344 27.605469 C 64.402344 29.957031 64.417969 33.785156 62.058594 36.15625 L 36.460938 61.917969 C 34.105469 64.289062 30.269531 64.304688 27.894531 61.949219 L 2.085938 36.394531 C -0.289062 34.042969 -0.304688 30.214844 2.050781 27.84375 L 27.652344 2.082031 C 30.007812 -0.289062 33.84375 -0.304688 36.21875 2.050781 Z M 36.21875 2.050781 " /><g transform="matrix(1.0075098,0,0,1.0032698,16.221436,16.077397)"><path fill-rule="nonzero" fill="rgb(100%, 100%, 100%)" fill-opacity="1" d="M 19.011719 2.957031 L 19.011719 12.179688 L 16.671875 12.179688 L 16.671875 10.863281 C 16.671875 10.132812 16.148438 9.546875 15.503906 9.546875 L 14.335938 12.179688 L 11.992188 12.179688 L 13.164062 8.226562 L 10.824219 8.226562 L 2.632812 21.398438 L 0.296875 26.671875 L 4.449219 26.671875 C 5.28125 28.289062 6.824219 29.304688 8.484375 29.304688 C 10.15625 29.300781 11.6875 28.296875 12.519531 26.671875 L 21.984375 26.671875 C 22.816406 28.289062 24.359375 29.304688 26.019531 29.304688 C 28.605469 29.304688 30.699219 26.945312 30.699219 24.035156 C 31.347656 24.035156 31.867188 23.445312 31.867188 22.71875 C 31.867188 21.988281 31.347656 21.398438 30.699219 21.398438 L 30.070312 21.398438 C 29.660156 20.601562 29.070312 19.9375 28.359375 19.476562 L 28.359375 5.648438 L 29.53125 5.648438 L 29.53125 3.011719 Z M 23.691406 6.910156 C 24.976562 6.910156 26.03125 8.085938 26.03125 9.546875 C 26.03125 11 24.984375 12.179688 23.691406 12.179688 C 22.398438 12.179688 21.351562 11 21.351562 9.546875 C 21.351562 8.085938 22.398438 6.910156 23.691406 6.910156 Z M 23.691406 6.910156 "/></g></svg>
