<svg width="64" height="64" viewBox="0 0 64 64" version="1.1"><defs><linearGradient id="linear-pattern-0" gradientUnits="userSpaceOnUse" x1="0" y1="0" x2="0" y2="1" gradientTransform="matrix(60, 0, 0, 56, 0, 4)"><stop offset="0" stop-color="#d00068" stop-opacity="1"/><stop offset="1" stop-color="#6e0037" stop-opacity="1"/></linearGradient></defs><path fill="url(#linear-pattern-0)" fill-opacity="1" d="M 36.21875 2.050781 L 62.027344 27.605469 C 64.402344 29.957031 64.417969 33.785156 62.058594 36.15625 L 36.460938 61.917969 C 34.105469 64.289062 30.269531 64.304688 27.894531 61.949219 L 2.085938 36.394531 C -0.289062 34.042969 -0.304688 30.214844 2.050781 27.84375 L 27.652344 2.082031 C 30.007812 -0.289062 33.84375 -0.304688 36.21875 2.050781 Z M 36.21875 2.050781 " /><g transform="matrix(1.0075098,0,0,1.0032698,16.221436,16.077397)"><path fill-rule="nonzero" fill="rgb(100%, 100%, 100%)" fill-opacity="1" d="M 15.914062 0.464844 C 7.328125 0.464844 0.359375 7.484375 0.359375 16.148438 C 0.359375 24.804688 7.328125 31.832031 15.914062 31.832031 C 24.5 31.832031 31.460938 24.804688 31.460938 16.148438 C 31.460938 7.484375 24.5 0.464844 15.914062 0.464844 Z M 15.914062 2.554688 C 23.359375 2.554688 29.390625 8.640625 29.390625 16.148438 C 29.382812 22.429688 25.105469 27.890625 19.042969 29.351562 C 19.023438 25.554688 21.101562 23.46875 21.101562 22.421875 L 21.101562 19.285156 C 21.101562 19.285156 24.210938 14.054688 26.28125 11.96875 C 26.28125 9.875 25.246094 10.507812 25.246094 10.507812 L 25.246094 9.875 L 24.210938 10.917969 C 24.210938 10.917969 25.246094 7.78125 23.171875 6.734375 C 21.101562 7.78125 19.023438 9.875 19.023438 9.875 L 16.953125 9.875 L 13.84375 11.96875 C 11.765625 11.96875 9.695312 11.96875 8.65625 13.011719 C 7.621094 14.054688 10.730469 16.148438 10.730469 16.148438 L 6.585938 23.46875 L 5.09375 24.21875 C 3.371094 21.882812 2.441406 19.054688 2.4375 16.148438 C 2.4375 8.640625 8.46875 2.554688 15.914062 2.554688 Z M 16.953125 10.917969 L 19.023438 10.917969 L 16.953125 11.96875 L 15.914062 11.96875 Z M 16.953125 10.917969 "/></g></svg>
