<svg width="64" height="64" viewBox="0 0 64 64" version="1.1"><defs><linearGradient id="linear-pattern-0" gradientUnits="userSpaceOnUse" x1="0" y1="0" x2="0" y2="1" gradientTransform="matrix(60, 0, 0, 56, 0, 4)"><stop offset="0" stop-color="#00983a" stop-opacity="1"/><stop offset="1" stop-color="#004a1c" stop-opacity="1"/></linearGradient></defs><path fill="url(#linear-pattern-0)" fill-opacity="1" d="M 36.21875 2.050781 L 62.027344 27.605469 C 64.402344 29.957031 64.417969 33.785156 62.058594 36.15625 L 36.460938 61.917969 C 34.105469 64.289062 30.269531 64.304688 27.894531 61.949219 L 2.085938 36.394531 C -0.289062 34.042969 -0.304688 30.214844 2.050781 27.84375 L 27.652344 2.082031 C 30.007812 -0.289062 33.84375 -0.304688 36.21875 2.050781 Z M 36.21875 2.050781 " /><g transform="matrix(1.0075098,0,0,1.0032698,16.221436,16.077397)"><path fill-rule="nonzero" fill="rgb(100%, 100%, 100%)" fill-opacity="1" d="M 22.023438 0.640625 C 20.960938 0.640625 20.109375 1.945312 20.109375 3.570312 C 20.109375 5.191406 20.960938 6.496094 22.023438 6.496094 L 25.058594 6.496094 L 18.203125 17.007812 L 13.828125 10.304688 C 13.078125 9.160156 11.875 9.160156 11.132812 10.304688 L 0.570312 26.492188 C 1.078125 28.390625 1.71875 30.179688 2.46875 31.851562 L 12.480469 16.507812 L 16.855469 23.214844 C 17.601562 24.355469 18.804688 24.355469 19.546875 23.214844 L 27.746094 10.65625 L 27.746094 15.3125 C 27.746094 16.929688 28.597656 18.238281 29.65625 18.238281 C 30.710938 18.238281 31.5625 16.929688 31.5625 15.3125 L 31.5625 3.597656 C 31.5625 1.976562 30.710938 0.671875 29.65625 0.671875 L 22.011719 0.671875 Z M 22.023438 0.640625 "/></g></svg>
