<svg width="64" height="64" viewBox="0 0 64 64" version="1.1"><defs><linearGradient id="linear-pattern-0" gradientUnits="userSpaceOnUse" x1="0" y1="0" x2="0" y2="1" gradientTransform="matrix(60, 0, 0, 56, 0, 4)"><stop offset="0" stop-color="#8900e4" stop-opacity="1"/><stop offset="1" stop-color="#42006e" stop-opacity="1"/></linearGradient></defs><path fill="url(#linear-pattern-0)" fill-opacity="1" d="M 36.21875 2.050781 L 62.027344 27.605469 C 64.402344 29.957031 64.417969 33.785156 62.058594 36.15625 L 36.460938 61.917969 C 34.105469 64.289062 30.269531 64.304688 27.894531 61.949219 L 2.085938 36.394531 C -0.289062 34.042969 -0.304688 30.214844 2.050781 27.84375 L 27.652344 2.082031 C 30.007812 -0.289062 33.84375 -0.304688 36.21875 2.050781 Z M 36.21875 2.050781 " /><g transform="matrix(1.0075098,0,0,1.0032698,16.221436,16.077397)"><path fill-rule="nonzero" fill="rgb(100%, 100%, 100%)" fill-opacity="1" d="M 3.070312 0.875 C 1.648438 0.875 0.507812 2.015625 0.507812 3.4375 L 0.507812 29.070312 C 0.507812 30.492188 1.648438 31.632812 3.070312 31.632812 L 28.726562 31.632812 C 30.148438 31.632812 31.292969 30.492188 31.292969 29.070312 L 31.292969 3.4375 C 31.292969 2.015625 30.148438 0.875 28.726562 0.875 Z M 10.769531 8.5625 L 21.03125 8.5625 C 22.453125 8.5625 23.59375 9.707031 23.59375 11.128906 L 23.59375 21.382812 C 23.59375 22.804688 22.453125 23.945312 21.03125 23.945312 L 10.769531 23.945312 C 9.34375 23.945312 8.203125 22.804688 8.203125 21.382812 L 8.203125 11.128906 C 8.203125 9.703125 9.347656 8.5625 10.769531 8.5625 Z M 10.769531 8.5625 "/></g></svg>
