<svg width="64" height="64" viewBox="0 0 64 64" version="1.1"><defs><linearGradient id="linear-pattern-0" gradientUnits="userSpaceOnUse" x1="0" y1="0" x2="0" y2="1" gradientTransform="matrix(60, 0, 0, 56, 0, 4)"><stop offset="0" stop-color="#008a97" stop-opacity="1"/><stop offset="1" stop-color="#00545c" stop-opacity="1"/></linearGradient></defs><path fill="url(#linear-pattern-0)" fill-opacity="1" d="M 36.21875 2.050781 L 62.027344 27.605469 C 64.402344 29.957031 64.417969 33.785156 62.058594 36.15625 L 36.460938 61.917969 C 34.105469 64.289062 30.269531 64.304688 27.894531 61.949219 L 2.085938 36.394531 C -0.289062 34.042969 -0.304688 30.214844 2.050781 27.84375 L 27.652344 2.082031 C 30.007812 -0.289062 33.84375 -0.304688 36.21875 2.050781 Z M 36.21875 2.050781 " /><g transform="matrix(1.0075098,0,0,1.0032698,16.221436,16.077397)"><path fill-rule="evenodd" fill="rgb(100%, 100%, 100%)" fill-opacity="1" d="M 5.378906 6 L 27.144531 6 C 27.632812 6 28.03125 6.398438 28.03125 6.890625 L 28.03125 24.710938 C 28.03125 25.203125 27.632812 25.601562 27.144531 25.601562 L 5.378906 25.601562 C 4.890625 25.601562 4.492188 25.203125 4.492188 24.710938 L 4.492188 6.890625 C 4.492188 6.398438 4.890625 6 5.378906 6 Z M 20.929688 1.066406 C 30.617188 1.066406 32 2.445312 32 12.125 L 32 19.875 C 32 29.554688 30.617188 30.933594 20.929688 30.933594 L 11.070312 30.933594 C 1.382812 30.933594 0 29.554688 0 19.875 L 0 12.125 C 0 2.445312 1.382812 1.066406 11.070312 1.066406 Z M 10.195312 23.109375 L 10.195312 9.378906 L 12.703125 9.378906 L 12.703125 23.109375 Z M 19.273438 20.609375 L 19.273438 17.671875 C 19.273438 17.4375 19.234375 17.28125 19.144531 17.203125 C 19.054688 17.125 18.898438 17.085938 18.664062 17.085938 L 16.902344 17.085938 C 15.40625 17.085938 14.660156 16.359375 14.660156 14.90625 L 14.660156 11.53125 C 14.660156 10.09375 15.445312 9.378906 17.011719 9.378906 L 19.40625 9.378906 C 20.972656 9.378906 21.757812 10.09375 21.757812 11.53125 L 21.757812 13.445312 L 19.234375 13.445312 L 19.234375 11.882812 C 19.234375 11.648438 19.1875 11.492188 19.101562 11.414062 C 19.015625 11.335938 18.851562 11.296875 18.621094 11.296875 L 17.796875 11.296875 C 17.546875 11.296875 17.382812 11.335938 17.296875 11.414062 C 17.207031 11.492188 17.164062 11.648438 17.164062 11.882812 L 17.164062 14.648438 C 17.164062 14.878906 17.207031 15.03125 17.296875 15.113281 C 17.382812 15.195312 17.546875 15.234375 17.796875 15.234375 L 19.515625 15.234375 C 21.039062 15.234375 21.800781 15.945312 21.800781 17.367188 L 21.800781 20.957031 C 21.800781 22.394531 21.007812 23.109375 19.429688 23.109375 L 17.078125 23.109375 C 15.492188 23.109375 14.703125 22.394531 14.703125 20.957031 L 14.703125 19.0625 L 17.207031 19.0625 L 17.207031 20.609375 C 17.207031 20.84375 17.25 21 17.335938 21.078125 C 17.421875 21.15625 17.59375 21.195312 17.835938 21.195312 L 18.664062 21.195312 C 18.898438 21.195312 19.054688 21.15625 19.144531 21.078125 C 19.234375 21 19.273438 20.84375 19.273438 20.609375 Z M 19.273438 20.609375 "/></g></svg>
