<svg width="64" height="64" viewBox="0 0 64 64" version="1.1"><defs><linearGradient id="linear-pattern-0" gradientUnits="userSpaceOnUse" x1="0" y1="0" x2="0" y2="1" gradientTransform="matrix(60, 0, 0, 56, 0, 4)"><stop offset="0" stop-color="#0288cf" stop-opacity="1"/><stop offset="1" stop-color="#01486e" stop-opacity="1"/></linearGradient></defs><path fill="url(#linear-pattern-0)" fill-opacity="1" d="M 36.21875 2.050781 L 62.027344 27.605469 C 64.402344 29.957031 64.417969 33.785156 62.058594 36.15625 L 36.460938 61.917969 C 34.105469 64.289062 30.269531 64.304688 27.894531 61.949219 L 2.085938 36.394531 C -0.289062 34.042969 -0.304688 30.214844 2.050781 27.84375 L 27.652344 2.082031 C 30.007812 -0.289062 33.84375 -0.304688 36.21875 2.050781 Z M 36.21875 2.050781 " /><g transform="matrix(1.0075098,0,0,1.0032698,16.221436,16.077397)"><path fill-rule="nonzero" fill="rgb(100%, 100%, 100%)" fill-opacity="1" d="M 6.941406 31.535156 L 6.941406 11.1875 L 0.617188 11.1875 L 0.617188 31.535156 Z M 6.941406 3.976562 C 6.90625 2.15625 5.683594 0.773438 3.703125 0.773438 C 1.71875 0.773438 0.421875 2.15625 0.421875 3.976562 C 0.421875 5.757812 1.679688 7.183594 3.625 7.183594 L 3.664062 7.183594 C 5.683594 7.183594 6.941406 5.757812 6.941406 3.976562 M 17.257812 31.535156 L 17.257812 19.9375 C 17.257812 19.320312 17.304688 18.699219 17.488281 18.257812 C 17.992188 17.015625 19.132812 15.734375 21.046875 15.734375 C 23.5625 15.734375 25.136719 17.148438 25.136719 19.9375 L 25.136719 31.535156 L 31.507812 31.535156 L 31.507812 19.632812 C 31.507812 13.257812 28.082031 10.292969 23.515625 10.292969 C 19.773438 10.292969 18.125 12.371094 17.21875 13.789062 L 17.257812 11.066406 L 10.90625 11.066406 C 10.996094 13.015625 10.90625 31.535156 10.90625 31.535156 L 17.257812 31.535156 "/></g></svg>
