<svg width="64" height="64" viewBox="0 0 64 64" version="1.1"><defs><linearGradient id="linear-pattern-0" gradientUnits="userSpaceOnUse" x1="0" y1="0" x2="0" y2="1" gradientTransform="matrix(60, 0, 0, 56, 0, 4)"><stop offset="0" stop-color="#3067ff" stop-opacity="1"/><stop offset="1" stop-color="#002ca6" stop-opacity="1"/></linearGradient></defs><path fill="url(#linear-pattern-0)" fill-opacity="1" d="M 36.21875 2.050781 L 62.027344 27.605469 C 64.402344 29.957031 64.417969 33.785156 62.058594 36.15625 L 36.460938 61.917969 C 34.105469 64.289062 30.269531 64.304688 27.894531 61.949219 L 2.085938 36.394531 C -0.289062 34.042969 -0.304688 30.214844 2.050781 27.84375 L 27.652344 2.082031 C 30.007812 -0.289062 33.84375 -0.304688 36.21875 2.050781 Z M 36.21875 2.050781 " /><g transform="matrix(1.0075098,0,0,1.0032698,16.221436,16.077397)"><path fill-rule="nonzero" fill="rgb(100%, 100%, 100%)" fill-opacity="1" d="M 14.15625 0.5 L 14.15625 4.667969 L 10.929688 4.667969 L 16.308594 8.835938 L 21.6875 4.667969 L 18.460938 4.667969 L 18.460938 0.5 Z M 14.15625 10.921875 L 14.15625 13.273438 C 13.375 13.464844 12.628906 13.765625 11.9375 14.164062 L 10.226562 12.5 L 7.179688 15.449219 L 8.890625 17.109375 C 8.484375 17.78125 8.175781 18.503906 7.976562 19.261719 L 5.550781 19.261719 L 5.550781 23.429688 L 7.976562 23.429688 C 8.175781 24.183594 8.484375 24.90625 8.894531 25.578125 L 7.179688 27.242188 L 10.222656 30.1875 L 11.9375 28.53125 C 12.628906 28.925781 13.375 29.226562 14.15625 29.421875 L 14.15625 31.769531 L 18.460938 31.769531 L 18.460938 29.421875 C 19.234375 29.226562 19.984375 28.925781 20.675781 28.527344 L 22.390625 30.1875 L 25.429688 27.242188 L 23.71875 25.582031 C 24.128906 24.90625 24.4375 24.1875 24.640625 23.429688 L 27.0625 23.429688 L 27.0625 19.261719 L 24.640625 19.261719 C 24.4375 18.507812 24.125 17.78125 23.71875 17.109375 L 25.429688 15.449219 L 22.390625 12.5 L 20.679688 14.160156 C 19.984375 13.765625 19.234375 13.464844 18.460938 13.273438 L 18.460938 10.921875 Z M 16.308594 16.132812 C 19.277344 16.132812 21.6875 18.46875 21.6875 21.34375 C 21.6875 24.222656 19.277344 26.558594 16.308594 26.558594 C 13.335938 26.558594 10.929688 24.222656 10.929688 21.34375 C 10.929688 18.46875 13.335938 16.132812 16.308594 16.132812 Z M 16.308594 16.132812 "/></g></svg>
