<svg width="64" height="64" viewBox="0 0 64 64" version="1.1"><defs><linearGradient id="linear-pattern-0" gradientUnits="userSpaceOnUse" x1="0" y1="0" x2="0" y2="1" gradientTransform="matrix(60, 0, 0, 56, 0, 4)"><stop offset="0" stop-color="#a67e50" stop-opacity="1"/><stop offset="1" stop-color="#644c30" stop-opacity="1"/></linearGradient></defs><path fill="url(#linear-pattern-0)" fill-opacity="1" d="M 36.21875 2.050781 L 62.027344 27.605469 C 64.402344 29.957031 64.417969 33.785156 62.058594 36.15625 L 36.460938 61.917969 C 34.105469 64.289062 30.269531 64.304688 27.894531 61.949219 L 2.085938 36.394531 C -0.289062 34.042969 -0.304688 30.214844 2.050781 27.84375 L 27.652344 2.082031 C 30.007812 -0.289062 33.84375 -0.304688 36.21875 2.050781 Z M 36.21875 2.050781 " /><g transform="matrix(1.0075098,0,0,1.0032698,16.221436,16.077397)"><path fill-rule="nonzero" fill="rgb(100%, 100%, 100%)" fill-opacity="1" d="M 22.984375 2.714844 L 15.273438 0.664062 C 14.207031 0.375 13.117188 1.007812 12.828125 2.0625 L 7.59375 21.539062 L 19.15625 24.625 L 24.398438 5.148438 C 24.679688 4.09375 24.046875 3.003906 22.984375 2.714844 M 20.382812 7.523438 C 20.671875 7.597656 20.851562 7.683594 21.09375 7.820312 C 21.457031 8.019531 21.707031 8.398438 21.613281 8.75 C 21.5 9.171875 21.082031 9.402344 20.597656 9.273438 C 20.367188 9.210938 20.3125 9.140625 19.972656 9.046875 C 18.96875 8.78125 17.945312 9.351562 17.691406 10.292969 L 17.304688 11.71875 C 17.273438 11.855469 17.316406 11.941406 17.507812 11.992188 L 18.683594 12.304688 C 19.128906 12.421875 19.398438 12.914062 19.28125 13.335938 C 19.167969 13.757812 18.695312 14.054688 18.246094 13.9375 L 16.8125 13.554688 L 16.375 15.179688 C 15.894531 16.960938 13.945312 18.023438 12.050781 17.515625 C 11.757812 17.441406 11.585938 17.351562 11.335938 17.21875 C 10.976562 17.019531 10.726562 16.640625 10.820312 16.289062 C 10.929688 15.867188 11.363281 15.589844 11.847656 15.71875 L 12.484375 15.890625 C 13.484375 16.15625 14.476562 15.710938 14.734375 14.773438 L 15.109375 13.375 C 15.175781 13.128906 15.0625 13.085938 14.921875 13.046875 L 13.75 12.734375 C 12.980469 12.53125 12.828125 12.0625 12.945312 11.648438 C 13.058594 11.222656 13.484375 10.921875 14.171875 11.101562 L 15.617188 11.488281 L 16.054688 9.859375 C 16.539062 8.070312 18.484375 7.015625 20.382812 7.523438 M 9.367188 23.59375 L 7.75 29.59375 L 15.195312 31.578125 L 16.804688 25.578125 L 9.367188 23.59375 M 10.289062 27.460938 L 11.796875 27.863281 L 11.46875 29.101562 L 9.953125 28.695312 L 10.289062 27.460938 M 12.59375 28.078125 L 14.105469 28.480469 L 13.773438 29.710938 L 12.257812 29.308594 L 12.59375 28.078125 "/></g></svg>
