<svg width="64" height="64" viewBox="0 0 64 64" version="1.1"><defs><linearGradient id="linear-pattern-0" gradientUnits="userSpaceOnUse" x1="0" y1="0" x2="0" y2="1" gradientTransform="matrix(60, 0, 0, 56, 0, 4)"><stop offset="0" stop-color="#00983a" stop-opacity="1"/><stop offset="1" stop-color="#004a1c" stop-opacity="1"/></linearGradient></defs><path fill="url(#linear-pattern-0)" fill-opacity="1" d="M 36.21875 2.050781 L 62.027344 27.605469 C 64.402344 29.957031 64.417969 33.785156 62.058594 36.15625 L 36.460938 61.917969 C 34.105469 64.289062 30.269531 64.304688 27.894531 61.949219 L 2.085938 36.394531 C -0.289062 34.042969 -0.304688 30.214844 2.050781 27.84375 L 27.652344 2.082031 C 30.007812 -0.289062 33.84375 -0.304688 36.21875 2.050781 Z M 36.21875 2.050781 " /><g transform="matrix(1.0075098,0,0,1.0032698,16.221436,16.077397)"><path fill-rule="nonzero" fill="rgb(100%, 100%, 100%)" fill-opacity="1" d="M 0.390625 0.421875 L 0.390625 31.578125 L 29.21875 31.578125 L 29.21875 27.683594 L 5.195312 27.683594 L 5.195312 0.421875 Z M 24.414062 0.421875 L 24.414062 5.617188 L 22.011719 5.617188 L 22.011719 9.511719 L 24.414062 9.511719 L 24.414062 25.085938 L 29.21875 25.085938 L 29.21875 9.511719 L 31.621094 9.511719 L 31.621094 5.617188 L 29.21875 5.617188 L 29.21875 0.421875 Z M 7.597656 12.109375 L 7.597656 21.195312 L 13.601562 21.195312 L 13.601562 12.109375 Z M 16.007812 12.109375 L 16.007812 21.195312 L 22.011719 21.195312 L 22.011719 12.109375 Z M 16.007812 12.109375 "/></g></svg>
