<svg width="64" height="64" viewBox="0 0 64 64" version="1.1"><defs><linearGradient id="linear-pattern-0" gradientUnits="userSpaceOnUse" x1="0" y1="0" x2="0" y2="1" gradientTransform="matrix(60, 0, 0, 56, 0, 4)"><stop offset="0" stop-color="#00983a" stop-opacity="1"/><stop offset="1" stop-color="#004a1c" stop-opacity="1"/></linearGradient></defs><path fill="url(#linear-pattern-0)" fill-opacity="1" d="M 36.21875 2.050781 L 62.027344 27.605469 C 64.402344 29.957031 64.417969 33.785156 62.058594 36.15625 L 36.460938 61.917969 C 34.105469 64.289062 30.269531 64.304688 27.894531 61.949219 L 2.085938 36.394531 C -0.289062 34.042969 -0.304688 30.214844 2.050781 27.84375 L 27.652344 2.082031 C 30.007812 -0.289062 33.84375 -0.304688 36.21875 2.050781 Z M 36.21875 2.050781 " /><g transform="matrix(1.0075098,0,0,1.0032698,16.221436,16.077397)"><path fill-rule="nonzero" fill="rgb(100%, 100%, 100%)" fill-opacity="1" d="M 17.417969 0.988281 C 12.351562 0.988281 7.90625 3.929688 5.414062 8.304688 L 3.421875 5.710938 C 3.402344 5.695312 3.375 5.691406 3.355469 5.6875 C 3.070312 5.359375 2.460938 5.554688 2.382812 6 L 0.347656 18.855469 C 0.277344 19.21875 0.585938 19.609375 0.921875 19.601562 L 3.464844 18.902344 C 4.570312 26.195312 10.414062 31.789062 17.417969 31.789062 C 25.203125 31.789062 31.5625 24.882812 31.5625 16.398438 C 31.5625 7.914062 25.203125 0.988281 17.417969 0.988281 Z M 19.140625 5.660156 C 19.882812 5.667969 20.664062 5.824219 21.484375 6.089844 C 25.777344 7.875 28.820312 11.085938 28.820312 16.398438 C 28.820312 23.277344 23.726562 28.820312 17.417969 28.820312 C 11.652344 28.820312 6.921875 24.195312 6.140625 18.15625 L 12.464844 16.398438 C 12.875 16.382812 13.148438 15.769531 12.90625 15.414062 L 10.339844 13.3125 C 10.398438 13.082031 9.546875 12.4375 12.96875 8.46875 C 14.585938 6.597656 16.75 5.628906 19.140625 5.65625 "/></g></svg>
