<svg width="64" height="64" viewBox="0 0 64 64" version="1.1"><defs><linearGradient id="linear-pattern-0" gradientUnits="userSpaceOnUse" x1="0" y1="0" x2="0" y2="1" gradientTransform="matrix(60, 0, 0, 56, 0, 4)"><stop offset="0" stop-color="#00a07f" stop-opacity="1"/><stop offset="1" stop-color="#005241" stop-opacity="1"/></linearGradient></defs><path fill="url(#linear-pattern-0)" fill-opacity="1" d="M 36.21875 2.050781 L 62.027344 27.605469 C 64.402344 29.957031 64.417969 33.785156 62.058594 36.15625 L 36.460938 61.917969 C 34.105469 64.289062 30.269531 64.304688 27.894531 61.949219 L 2.085938 36.394531 C -0.289062 34.042969 -0.304688 30.214844 2.050781 27.84375 L 27.652344 2.082031 C 30.007812 -0.289062 33.84375 -0.304688 36.21875 2.050781 Z M 36.21875 2.050781 " /><g transform="matrix(1.0075098,0,0,1.0032698,16.221436,16.077397)"><path fill-rule="evenodd" fill="rgb(100%, 100%, 100%)" fill-opacity="1" d="M 19.835938 19.828125 C 19.132812 19.828125 18.558594 19.257812 18.558594 18.550781 C 18.5625 17.84375 19.132812 17.269531 19.835938 17.273438 C 20.546875 17.273438 21.117188 17.84375 21.117188 18.554688 C 21.117188 19.257812 20.546875 19.828125 19.835938 19.828125 Z M 16.246094 12.675781 C 15.953125 4.023438 9.679688 1.28125 7.875 1.28125 C 6.871094 1.28125 6.40625 1.765625 6.40625 2.8125 C 6.40625 6.015625 7.945312 11.726562 10.851562 14.71875 C 9.515625 16.125 9.039062 17.71875 8.609375 19.140625 C 7.96875 21.28125 7.410156 23.132812 4.253906 24.351562 C 3.929688 24.476562 3.765625 24.835938 3.882812 25.160156 C 3.90625 25.226562 6.382812 32 15.5 32 C 15.757812 32 16.015625 31.992188 16.28125 31.984375 C 16.625 31.96875 16.898438 31.6875 16.898438 31.34375 C 16.898438 26.660156 18.34375 26.660156 19.304688 26.660156 C 19.703125 26.660156 20.140625 26.707031 20.609375 26.757812 C 21.117188 26.8125 21.640625 26.867188 22.175781 26.867188 C 24.546875 26.867188 25.992188 25.632812 26.8125 22.867188 C 27.421875 22.671875 28.15625 22.171875 28.15625 21.171875 C 28.15625 20.082031 25.914062 12.972656 16.246094 12.675781 Z M 17.449219 11.464844 C 17.59375 11.476562 17.738281 11.496094 17.882812 11.511719 C 17.53125 2.863281 14.679688 0 13.25 0 C 12.945312 0 12.667969 0.125 12.445312 0.359375 C 12.195312 0.625 12.03125 1.054688 11.929688 1.523438 C 14.382812 3.164062 16.949219 6.257812 17.449219 11.464844 Z M 17.449219 11.464844 "/></g></svg>
