<svg width="64" height="64" viewBox="0 0 64 64" version="1.1"><defs><linearGradient id="linear-pattern-0" gradientUnits="userSpaceOnUse" x1="0" y1="0" x2="0" y2="1" gradientTransform="matrix(60, 0, 0, 56, 0, 4)"><stop offset="0" stop-color="#0288cf" stop-opacity="1"/><stop offset="1" stop-color="#01486e" stop-opacity="1"/></linearGradient></defs><path fill="url(#linear-pattern-0)" fill-opacity="1" d="M 36.21875 2.050781 L 62.027344 27.605469 C 64.402344 29.957031 64.417969 33.785156 62.058594 36.15625 L 36.460938 61.917969 C 34.105469 64.289062 30.269531 64.304688 27.894531 61.949219 L 2.085938 36.394531 C -0.289062 34.042969 -0.304688 30.214844 2.050781 27.84375 L 27.652344 2.082031 C 30.007812 -0.289062 33.84375 -0.304688 36.21875 2.050781 Z M 36.21875 2.050781 " /><g transform="matrix(1.0075098,0,0,1.0032698,16.221436,16.077397)"><path fill-rule="evenodd" fill="rgb(100%, 100%, 100%)" fill-opacity="1" d="M 16 0.695312 C 17.152344 0.695312 18.085938 1.632812 18.085938 2.78125 L 18.085938 29.21875 C 18.085938 30.367188 17.152344 31.304688 16 31.304688 C 14.847656 31.304688 13.914062 30.367188 13.914062 29.21875 L 13.914062 2.78125 C 13.914062 1.632812 14.847656 0.695312 16 0.695312 Z M 9.046875 6.257812 C 10.195312 6.257812 11.132812 7.195312 11.132812 8.347656 L 11.132812 23.652344 C 11.132812 24.804688 10.195312 25.742188 9.046875 25.742188 C 7.890625 25.742188 6.953125 24.804688 6.953125 23.652344 L 6.953125 8.347656 C 6.953125 7.195312 7.890625 6.257812 9.046875 6.257812 Z M 22.953125 2.085938 C 24.109375 2.085938 25.046875 3.023438 25.046875 4.171875 L 25.046875 27.828125 C 25.046875 28.976562 24.109375 29.914062 22.953125 29.914062 C 21.804688 29.914062 20.867188 28.976562 20.867188 27.828125 L 20.867188 4.171875 C 20.867188 3.023438 21.804688 2.085938 22.953125 2.085938 Z M 2.085938 4.867188 C 3.238281 4.867188 4.171875 5.804688 4.171875 6.953125 L 4.171875 25.046875 C 4.171875 26.195312 3.238281 27.132812 2.085938 27.132812 C 0.9375 27.132812 0 26.195312 0 25.046875 L 0 6.953125 C 0 5.804688 0.9375 4.867188 2.085938 4.867188 Z M 29.914062 4.867188 C 31.0625 4.867188 32 5.804688 32 6.953125 L 32 25.046875 C 32 26.195312 31.0625 27.132812 29.914062 27.132812 C 28.761719 27.132812 27.828125 26.195312 27.828125 25.046875 L 27.828125 6.953125 C 27.828125 5.804688 28.761719 4.867188 29.914062 4.867188 Z M 29.914062 4.867188 "/></g></svg>
