<svg width="64" height="64" viewBox="0 0 64 64" version="1.1"><defs><linearGradient id="linear-pattern-0" gradientUnits="userSpaceOnUse" x1="0" y1="0" x2="0" y2="1" gradientTransform="matrix(60, 0, 0, 56, 0, 4)"><stop offset="0" stop-color="#00a07f" stop-opacity="1"/><stop offset="1" stop-color="#005241" stop-opacity="1"/></linearGradient></defs><path fill="url(#linear-pattern-0)" fill-opacity="1" d="M 36.21875 2.050781 L 62.027344 27.605469 C 64.402344 29.957031 64.417969 33.785156 62.058594 36.15625 L 36.460938 61.917969 C 34.105469 64.289062 30.269531 64.304688 27.894531 61.949219 L 2.085938 36.394531 C -0.289062 34.042969 -0.304688 30.214844 2.050781 27.84375 L 27.652344 2.082031 C 30.007812 -0.289062 33.84375 -0.304688 36.21875 2.050781 Z M 36.21875 2.050781 " /><g transform="matrix(1.0075098,0,0,1.0032698,16.221436,16.077397)"><path fill-rule="nonzero" fill="rgb(100%, 100%, 100%)" fill-opacity="1" d="M 0.421875 4.367188 L 0.421875 10.027344 L 13.328125 10.027344 L 13.328125 4.367188 Z M 18.492188 4.367188 L 18.492188 10.027344 L 23.65625 10.027344 L 23.65625 4.367188 Z M 0.421875 12.859375 L 0.421875 15.6875 L 10.75 15.6875 L 10.75 12.859375 Z M 13.328125 12.859375 L 13.328125 15.6875 L 28.820312 15.6875 L 28.820312 12.859375 Z M 0.421875 18.519531 L 0.421875 21.351562 L 10.75 21.351562 L 10.75 18.519531 Z M 13.328125 18.519531 L 13.328125 21.351562 L 23.65625 21.351562 L 23.65625 18.519531 Z M 0.421875 24.179688 L 0.421875 27.007812 L 18.492188 27.007812 L 18.492188 24.179688 Z M 21.074219 24.179688 L 21.074219 27.007812 L 31.398438 27.007812 L 31.398438 24.179688 Z M 21.074219 24.179688 "/></g></svg>
