<svg width="64" height="64" viewBox="0 0 64 64" version="1.1"><defs><linearGradient id="linear-pattern-0" gradientUnits="userSpaceOnUse" x1="0" y1="0" x2="0" y2="1" gradientTransform="matrix(60, 0, 0, 56, 0, 4)"><stop offset="0" stop-color="#d00068" stop-opacity="1"/><stop offset="1" stop-color="#6e0037" stop-opacity="1"/></linearGradient></defs><path fill="url(#linear-pattern-0)" fill-opacity="1" d="M 36.21875 2.050781 L 62.027344 27.605469 C 64.402344 29.957031 64.417969 33.785156 62.058594 36.15625 L 36.460938 61.917969 C 34.105469 64.289062 30.269531 64.304688 27.894531 61.949219 L 2.085938 36.394531 C -0.289062 34.042969 -0.304688 30.214844 2.050781 27.84375 L 27.652344 2.082031 C 30.007812 -0.289062 33.84375 -0.304688 36.21875 2.050781 Z M 36.21875 2.050781 " /><g transform="matrix(1.0075098,0,0,1.0032698,16.221436,16.077397)"><path fill-rule="nonzero" fill="rgb(100%, 100%, 100%)" fill-opacity="1" d="M 16.09375 0.84375 C 7.605469 0.84375 0.71875 7.710938 0.71875 16.179688 C 0.71875 24.640625 7.605469 31.511719 16.09375 31.511719 C 24.585938 31.511719 31.472656 24.640625 31.472656 16.179688 C 31.472656 7.710938 24.585938 0.84375 16.09375 0.84375 M 16.09375 2.886719 C 17.796875 2.886719 19.171875 4.265625 19.171875 5.953125 C 19.171875 7.648438 17.796875 9.023438 16.09375 9.023438 C 14.398438 9.023438 13.019531 7.648438 13.019531 5.953125 C 13.019531 4.265625 14.398438 2.886719 16.09375 2.886719 M 16.09375 10.425781 C 19.28125 10.425781 21.863281 13.003906 21.863281 16.179688 C 21.863281 19.351562 19.28125 21.929688 16.09375 21.929688 C 12.914062 21.929688 10.328125 19.351562 10.328125 16.179688 C 10.328125 13.003906 12.914062 10.425781 16.09375 10.425781 M 5.84375 13.109375 C 7.539062 13.109375 8.921875 14.484375 8.921875 16.179688 C 8.921875 17.871094 7.539062 19.242188 5.84375 19.242188 C 4.148438 19.242188 2.765625 17.871094 2.765625 16.179688 C 2.765625 14.484375 4.148438 13.109375 5.84375 13.109375 M 26.34375 13.109375 C 28.046875 13.109375 29.425781 14.484375 29.425781 16.179688 C 29.425781 17.871094 28.046875 19.242188 26.34375 19.242188 C 24.652344 19.242188 23.273438 17.871094 23.273438 16.179688 C 23.273438 14.484375 24.652344 13.109375 26.34375 13.109375 M 16.09375 23.332031 C 17.796875 23.332031 19.171875 24.710938 19.171875 26.398438 C 19.171875 28.09375 17.796875 29.46875 16.09375 29.46875 C 14.398438 29.46875 13.019531 28.09375 13.019531 26.398438 C 13.019531 24.710938 14.398438 23.332031 16.09375 23.332031 M 16.09375 23.332031 "/><path fill-rule="nonzero" fill="rgb(100%, 100%, 100%)" fill-opacity="1" d="M 16.09375 12.34375 C 13.96875 12.34375 12.25 14.054688 12.25 16.179688 C 12.25 18.296875 13.96875 20.007812 16.09375 20.007812 C 18.21875 20.007812 19.9375 18.296875 19.9375 16.179688 C 19.9375 14.054688 18.21875 12.34375 16.09375 12.34375 M 16.09375 14.257812 C 17.15625 14.257812 18.019531 15.121094 18.019531 16.179688 C 18.019531 17.234375 17.15625 18.097656 16.09375 18.097656 C 15.035156 18.097656 14.171875 17.234375 14.171875 16.179688 C 14.171875 15.121094 15.035156 14.257812 16.09375 14.257812 M 16.09375 14.257812 "/></g></svg>
