<svg width="64" height="64" viewBox="0 0 64 64" version="1.1"><defs><linearGradient id="linear-pattern-0" gradientUnits="userSpaceOnUse" x1="0" y1="0" x2="0" y2="1" gradientTransform="matrix(60, 0, 0, 56, 0, 4)"><stop offset="0" stop-color="#00a07f" stop-opacity="1"/><stop offset="1" stop-color="#005241" stop-opacity="1"/></linearGradient></defs><path fill="url(#linear-pattern-0)" fill-opacity="1" d="M 36.21875 2.050781 L 62.027344 27.605469 C 64.402344 29.957031 64.417969 33.785156 62.058594 36.15625 L 36.460938 61.917969 C 34.105469 64.289062 30.269531 64.304688 27.894531 61.949219 L 2.085938 36.394531 C -0.289062 34.042969 -0.304688 30.214844 2.050781 27.84375 L 27.652344 2.082031 C 30.007812 -0.289062 33.84375 -0.304688 36.21875 2.050781 Z M 36.21875 2.050781 " /><g transform="matrix(1.0075098,0,0,1.0032698,16.221436,16.077397)"><path fill-rule="nonzero" fill="rgb(100%, 100%, 100%)" fill-opacity="1" d="M 19.4375 0.945312 L 10.117188 10.265625 L 9.90625 10.433594 L 9.824219 10.6875 L 6.578125 18.359375 L 3.667969 21.183594 L 2.65625 22.109375 L 4.046875 23.503906 L 0 27.554688 L 7.167969 31.054688 L 9.359375 28.859375 L 9.695312 29.15625 L 10.625 30.125 L 11.59375 29.195312 L 14.585938 26.371094 L 22.261719 23.125 L 22.472656 23 L 22.683594 22.828125 L 32 13.511719 L 30.0625 11.617188 L 25.210938 16.464844 L 16.441406 7.695312 L 21.332031 2.84375 Z M 14.585938 9.632812 L 23.316406 18.359375 L 21.714844 19.960938 L 12.984375 11.234375 Z M 11.554688 13.597656 L 19.351562 21.398438 L 13.242188 24.007812 L 13.027344 24.09375 L 12.820312 24.265625 L 10.664062 26.328125 L 6.535156 22.195312 L 8.640625 20.171875 L 8.8125 19.960938 L 8.9375 19.710938 Z M 11.554688 13.597656 "/></g></svg>
