<svg width="64" height="64" viewBox="0 0 64 64" version="1.1"><defs><linearGradient id="linear-pattern-0" gradientUnits="userSpaceOnUse" x1="0" y1="0" x2="0" y2="1" gradientTransform="matrix(60, 0, 0, 56, 0, 4)"><stop offset="0" stop-color="#d00068" stop-opacity="1"/><stop offset="1" stop-color="#6e0037" stop-opacity="1"/></linearGradient></defs><path fill="url(#linear-pattern-0)" fill-opacity="1" d="M 36.21875 2.050781 L 62.027344 27.605469 C 64.402344 29.957031 64.417969 33.785156 62.058594 36.15625 L 36.460938 61.917969 C 34.105469 64.289062 30.269531 64.304688 27.894531 61.949219 L 2.085938 36.394531 C -0.289062 34.042969 -0.304688 30.214844 2.050781 27.84375 L 27.652344 2.082031 C 30.007812 -0.289062 33.84375 -0.304688 36.21875 2.050781 Z M 36.21875 2.050781 " /><g transform="matrix(1.0075098,0,0,1.0032698,16.221436,16.077397)"><path fill-rule="nonzero" fill="rgb(100%, 100%, 100%)" fill-opacity="1" d="M 7.742188 8.09375 C 3.707031 8.09375 0.457031 11.539062 0.457031 15.8125 L 0.457031 16.882812 C 0.457031 21.152344 3.707031 24.59375 7.742188 24.59375 L 24.34375 24.59375 C 28.378906 24.59375 31.625 21.152344 31.625 16.882812 L 31.625 15.8125 C 31.625 11.539062 28.378906 8.09375 24.34375 8.09375 Z M 9.800781 9.25 L 9.8125 9.253906 C 13.414062 9.253906 16.34375 12.367188 16.34375 16.203125 C 16.34375 20.035156 13.421875 23.152344 9.8125 23.152344 C 7.726562 23.152344 5.882812 22.113281 4.6875 20.5 L 5.507812 19.953125 C 6.527344 21.273438 8.078125 22.113281 9.8125 22.113281 C 12.886719 22.113281 15.382812 19.464844 15.382812 16.203125 C 15.382812 12.9375 12.886719 10.289062 9.8125 10.289062 C 8.078125 10.289062 6.515625 11.132812 5.496094 12.460938 L 4.679688 11.910156 C 5.867188 10.296875 7.71875 9.25 9.800781 9.25 Z M 23.835938 10.289062 C 27 10.289062 29.5625 13 29.5625 16.34375 C 29.5625 19.691406 27 22.402344 23.835938 22.402344 C 20.679688 22.402344 18.113281 19.6875 18.113281 16.34375 C 18.113281 13 20.679688 10.289062 23.835938 10.289062 Z M 9.804688 11.960938 C 12.007812 11.960938 13.804688 13.863281 13.804688 16.210938 C 13.804688 18.554688 12.015625 20.457031 9.804688 20.457031 C 8.625 20.457031 7.574219 19.917969 6.84375 19.058594 L 7.65625 18.507812 C 8.207031 19.101562 8.960938 19.464844 9.804688 19.464844 C 11.472656 19.464844 12.824219 18.015625 12.824219 16.234375 C 12.824219 14.445312 11.46875 13 9.804688 13 C 8.980469 13 8.230469 13.351562 7.6875 13.921875 L 6.839844 13.367188 C 7.570312 12.507812 8.625 11.96875 9.800781 11.96875 Z M 3.210938 12.148438 L 9.851562 16.160156 L 3.210938 20.25 Z M 3.210938 12.148438 "/></g></svg>
