<svg width="64" height="64" viewBox="0 0 64 64" version="1.1"><defs><linearGradient id="linear-pattern-0" gradientUnits="userSpaceOnUse" x1="0" y1="0" x2="0" y2="1" gradientTransform="matrix(60, 0, 0, 56, 0, 4)"><stop offset="0" stop-color="#7795ab" stop-opacity="1"/><stop offset="1" stop-color="#3b4f5f" stop-opacity="1"/></linearGradient></defs><path fill="url(#linear-pattern-0)" fill-opacity="1" d="M 36.21875 2.050781 L 62.027344 27.605469 C 64.402344 29.957031 64.417969 33.785156 62.058594 36.15625 L 36.460938 61.917969 C 34.105469 64.289062 30.269531 64.304688 27.894531 61.949219 L 2.085938 36.394531 C -0.289062 34.042969 -0.304688 30.214844 2.050781 27.84375 L 27.652344 2.082031 C 30.007812 -0.289062 33.84375 -0.304688 36.21875 2.050781 Z M 36.21875 2.050781 " /><g transform="matrix(1.0075098,0,0,1.0032698,16.221436,16.077397)"><path fill-rule="nonzero" fill="rgb(100%, 100%, 100%)" fill-opacity="1" d="M 22.433594 1.664062 C 21.910156 2.070312 20.367188 4.925781 18.820312 8.332031 C 18.195312 9.71875 17.3125 11.535156 16.867188 12.367188 C 15.539062 14.84375 12.296875 19.339844 10.796875 20.773438 L 9.398438 22.125 L 10.441406 23.238281 C 11.082031 23.921875 11.929688 25.34375 12.632812 26.933594 C 13.960938 29.960938 14.191406 30.398438 14.445312 30.398438 C 14.570312 30.398438 15.25 30.023438 16.007812 29.550781 C 17.707031 28.476562 19.296875 27.03125 21.453125 24.574219 C 24.820312 20.742188 27.351562 19.929688 30.46875 21.6875 C 31.308594 22.167969 32 22.46875 32 22.355469 C 32 22.238281 31.570312 21.085938 31.058594 19.785156 C 30.542969 18.484375 29.140625 14.820312 27.945312 11.632812 C 27.09375 10.234375 24.320312 0.6875 22.433594 1.671875 M 15.71875 9.507812 C 15.703125 9.507812 15.683594 9.507812 15.664062 9.515625 C 12.8125 10.765625 11.78125 11.335938 10.945312 12.125 C 10.390625 12.65625 9.9375 13.21875 9.9375 13.382812 C 9.9375 13.894531 12.183594 15.257812 12.554688 14.972656 C 12.734375 14.832031 13.433594 13.828125 14.109375 12.734375 C 15.3125 10.789062 15.929688 9.539062 15.71875 9.507812 M 7.738281 15.019531 C 7.25 15.019531 0.363281 17.621094 0.0351562 17.929688 C -0.0625 18.023438 0.0429688 18.1875 0.261719 18.308594 C 0.484375 18.433594 1.742188 19.273438 3.078125 20.179688 C 4.414062 21.085938 5.570312 21.820312 5.652344 21.828125 C 5.734375 21.828125 6.34375 21.507812 7 21.113281 C 8.375 20.289062 11.023438 17.734375 11.015625 17.242188 C 11.003906 16.808594 8.359375 15.015625 7.734375 15.015625 "/></g></svg>
