<svg width="64" height="64" viewBox="0 0 64 64" version="1.1"><defs><linearGradient id="linear-pattern-0" gradientUnits="userSpaceOnUse" x1="0" y1="0" x2="0" y2="1" gradientTransform="matrix(60, 0, 0, 56, 0, 4)"><stop offset="0" stop-color="#0288cf" stop-opacity="1"/><stop offset="1" stop-color="#01486e" stop-opacity="1"/></linearGradient></defs><path fill="url(#linear-pattern-0)" fill-opacity="1" d="M 36.21875 2.050781 L 62.027344 27.605469 C 64.402344 29.957031 64.417969 33.785156 62.058594 36.15625 L 36.460938 61.917969 C 34.105469 64.289062 30.269531 64.304688 27.894531 61.949219 L 2.085938 36.394531 C -0.289062 34.042969 -0.304688 30.214844 2.050781 27.84375 L 27.652344 2.082031 C 30.007812 -0.289062 33.84375 -0.304688 36.21875 2.050781 Z M 36.21875 2.050781 " /><g transform="matrix(1.0075098,0,0,1.0032698,16.221436,16.077397)"><path fill-rule="nonzero" fill="rgb(100%, 100%, 100%)" fill-opacity="1" d="M 9.269531 21.691406 L 9.269531 23.703125 L 0 23.703125 L 8.507812 14.328125 L 32 14.328125 L 24.714844 23.703125 L 21.992188 23.703125 L 21.992188 21.691406 L 23.726562 21.691406 L 27.894531 16.335938 L 9.398438 16.335938 L 4.53125 21.691406 Z M 9.269531 21.691406 "/><path fill-rule="nonzero" fill="rgb(100%, 100%, 100%)" fill-opacity="1" d="M 9.269531 8.296875 L 9.269531 21.023438 L 11.277344 21.023438 L 11.277344 13.03125 L 14.828125 21.023438 L 16.433594 21.023438 L 19.984375 13.03125 L 19.984375 21.023438 L 21.992188 21.023438 L 21.992188 8.296875 L 19.890625 8.296875 L 15.632812 17.878906 L 11.375 8.296875 Z M 9.269531 8.296875 "/></g></svg>
