<svg width="64" height="64" viewBox="0 0 64 64" version="1.1"><defs><linearGradient id="linear-pattern-0" gradientUnits="userSpaceOnUse" x1="0" y1="0" x2="0" y2="1" gradientTransform="matrix(60, 0, 0, 56, 0, 4)"><stop offset="0" stop-color="#ec7700" stop-opacity="1"/><stop offset="1" stop-color="#773c00" stop-opacity="1"/></linearGradient></defs><path fill="url(#linear-pattern-0)" fill-opacity="1" d="M 36.21875 2.050781 L 62.027344 27.605469 C 64.402344 29.957031 64.417969 33.785156 62.058594 36.15625 L 36.460938 61.917969 C 34.105469 64.289062 30.269531 64.304688 27.894531 61.949219 L 2.085938 36.394531 C -0.289062 34.042969 -0.304688 30.214844 2.050781 27.84375 L 27.652344 2.082031 C 30.007812 -0.289062 33.84375 -0.304688 36.21875 2.050781 Z M 36.21875 2.050781 " /><g transform="matrix(1.0075098,0,0,1.0032698,16.221436,16.077397)"><path fill-rule="nonzero" fill="rgb(100%, 100%, 100%)" fill-opacity="1" d="M 22.828125 1.566406 L 22.828125 3.410156 L 20.46875 3.410156 C 19.601562 3.410156 18.789062 3.484375 18.023438 3.625 C 17.257812 3.765625 16.507812 4.03125 15.78125 4.40625 C 15.109375 4.769531 14.5625 5.257812 14.140625 5.882812 C 13.71875 6.515625 13.5 7.273438 13.5 8.164062 C 13.5 9.457031 14.023438 10.445312 15.0625 11.117188 C 16.101562 11.792969 17.476562 12.132812 19.191406 12.132812 L 21.828125 12.132812 L 21.828125 13.84375 L 18.257812 13.84375 C 16.28125 13.84375 14.765625 14.21875 13.726562 14.960938 C 12.6875 15.710938 12.171875 16.882812 12.171875 18.480469 C 12.171875 19.789062 12.597656 20.804688 13.449219 21.527344 C 14.296875 22.25 15.484375 22.617188 17 22.617188 L 19.40625 22.617188 C 20.914062 22.617188 22.054688 22.984375 22.828125 23.726562 C 23.609375 24.464844 24 25.453125 24 26.695312 C 24 28.03125 23.359375 29.25 22.078125 30.351562 C 20.796875 31.453125 19.265625 32 17.492188 32 C 16.21875 32 15.308594 31.859375 14.78125 31.585938 C 14.246094 31.308594 13.976562 30.902344 13.976562 30.367188 C 13.976562 29.929688 14.125 29.585938 14.421875 29.324219 C 14.71875 29.0625 15.160156 28.929688 15.742188 28.929688 C 16.085938 28.929688 16.390625 28.992188 16.664062 29.113281 C 16.9375 29.230469 17.175781 29.367188 17.382812 29.519531 C 17.578125 29.648438 17.8125 29.820312 18.085938 30.027344 C 18.359375 30.234375 18.617188 30.390625 18.859375 30.5 C 19.15625 30.476562 19.46875 30.417969 19.820312 30.3125 C 20.164062 30.203125 20.492188 30.03125 20.808594 29.78125 C 21.140625 29.53125 21.398438 29.242188 21.59375 28.90625 C 21.789062 28.578125 21.882812 28.125 21.882812 27.558594 C 21.882812 26.765625 21.605469 26.175781 21.039062 25.796875 C 20.472656 25.417969 19.664062 25.222656 18.605469 25.222656 L 15.765625 25.222656 C 13.671875 25.222656 11.957031 24.65625 10.625 23.511719 C 9.289062 22.367188 8.617188 20.953125 8.617188 19.265625 C 8.617188 18.351562 8.820312 17.515625 9.226562 16.757812 C 9.632812 16.007812 10.183594 15.34375 10.882812 14.773438 C 11.53125 14.242188 12.285156 13.820312 13.125 13.5 C 13.972656 13.1875 14.789062 12.984375 15.5625 12.898438 L 15.5625 12.800781 C 13.71875 12.527344 12.3125 11.984375 11.351562 11.167969 C 10.390625 10.351562 9.910156 9.375 9.910156 8.230469 C 9.910156 7.585938 10.054688 7 10.335938 6.476562 C 10.625 5.945312 11.023438 5.472656 11.53125 5.0625 C 12.007812 4.679688 12.566406 4.351562 13.210938 4.078125 C 13.851562 3.8125 14.53125 3.585938 15.234375 3.394531 L 15.234375 3.121094 C 14.75 3.132812 14.117188 3.148438 13.335938 3.179688 C 12.558594 3.214844 11.894531 3.234375 11.335938 3.234375 C 10.1875 3.234375 9.351562 3.085938 8.808594 2.796875 C 8.265625 2.515625 8 2.101562 8 1.566406 C 8 1.140625 8.125 0.773438 8.375 0.46875 C 8.625 0.15625 9.046875 0 9.632812 0 C 10.195312 0 10.671875 0.101562 11.066406 0.296875 C 11.464844 0.492188 11.832031 0.703125 12.171875 0.929688 C 12.558594 1.195312 12.902344 1.410156 13.195312 1.59375 C 13.484375 1.773438 13.929688 1.859375 14.523438 1.859375 C 15.832031 1.859375 17.25 1.828125 18.78125 1.761719 C 20.304688 1.699219 21.65625 1.632812 22.828125 1.566406 Z M 22.828125 1.566406 "/></g></svg>
