<svg width="64" height="64" viewBox="0 0 64 64" version="1.1"><defs><linearGradient id="linear-pattern-0" gradientUnits="userSpaceOnUse" x1="0" y1="0" x2="0" y2="1" gradientTransform="matrix(60, 0, 0, 56, 0, 4)"><stop offset="0" stop-color="#3067ff" stop-opacity="1"/><stop offset="1" stop-color="#002ca6" stop-opacity="1"/></linearGradient></defs><path fill="url(#linear-pattern-0)" fill-opacity="1" d="M 36.21875 2.050781 L 62.027344 27.605469 C 64.402344 29.957031 64.417969 33.785156 62.058594 36.15625 L 36.460938 61.917969 C 34.105469 64.289062 30.269531 64.304688 27.894531 61.949219 L 2.085938 36.394531 C -0.289062 34.042969 -0.304688 30.214844 2.050781 27.84375 L 27.652344 2.082031 C 30.007812 -0.289062 33.84375 -0.304688 36.21875 2.050781 Z M 36.21875 2.050781 " /><g transform="matrix(1.0075098,0,0,1.0032698,16.221436,16.077397)"><path fill-rule="nonzero" fill="rgb(100%, 100%, 100%)" fill-opacity="1" d="M 6.28125 26.835938 C 4.34375 26.195312 2.53125 23.929688 1.539062 20.910156 C 0.9375 19.078125 0.898438 18.820312 0.898438 15.898438 C 0.898438 13.109375 0.953125 12.628906 1.449219 10.972656 C 2.140625 8.640625 3.234375 6.832031 4.640625 5.6875 L 5.75 4.789062 L 17.566406 4.601562 L 17.308594 5.929688 L 15.523438 15.125 L 14.003906 22.992188 L 13.042969 24.578125 C 12.328125 25.761719 11.828125 26.285156 11.070312 26.65625 C 10 27.1875 7.621094 27.273438 6.28125 26.835938 Z M 10.976562 24.105469 C 12.300781 23.109375 12.617188 22.136719 14.046875 14.726562 L 15.445312 7.484375 C 15.507812 7.183594 14.515625 7.101562 10.917969 7.101562 C 6.476562 7.109375 6.273438 7.132812 5.375 7.828125 C 4.113281 8.921875 3.128906 10.648438 2.585938 12.734375 C 2.171875 14.546875 2.257812 17.835938 2.773438 19.585938 C 3.433594 21.859375 4.910156 23.765625 6.496094 24.398438 C 7.65625 24.867188 10.1875 24.703125 10.976562 24.105469 Z M 14.835938 26.613281 C 14.882812 26.320312 15.710938 21.976562 16.671875 16.976562 C 18.398438 7.992188 18.4375 7.851562 19.289062 6.421875 C 20.34375 4.664062 20.679688 4.539062 23.960938 4.679688 C 26.328125 4.78125 26.507812 4.835938 27.671875 5.792969 C 29.136719 6.980469 30.28125 8.914062 30.976562 11.371094 C 31.644531 13.742188 31.679688 17.859375 31.042969 20.191406 C 30.140625 23.460938 28.492188 25.796875 26.445312 26.679688 C 25.566406 27.054688 24.21875 27.152344 20.039062 27.152344 C 15.085938 27.152344 14.753906 27.121094 14.835938 26.613281 Z M 26.921875 23.875 C 28.726562 22.496094 29.882812 19.6875 30.03125 16.324219 C 30.1875 12.648438 29.003906 9.515625 26.820312 7.835938 C 25.980469 7.183594 25.609375 7.109375 23.414062 7.109375 C 19.984375 7.101562 20.234375 6.640625 18.328125 16.511719 C 17.804688 19.15625 17.3125 21.808594 16.84375 24.476562 C 16.84375 24.613281 18.914062 24.683594 21.453125 24.628906 C 25.691406 24.539062 26.132812 24.480469 26.921875 23.875 Z M 26.921875 23.875 "/></g></svg>
