<svg width="64" height="64" viewBox="0 0 64 64" version="1.1"><defs><linearGradient id="linear-pattern-0" gradientUnits="userSpaceOnUse" x1="0" y1="0" x2="0" y2="1" gradientTransform="matrix(60, 0, 0, 56, 0, 4)"><stop offset="0" stop-color="#c10000" stop-opacity="1"/><stop offset="1" stop-color="#5f0000" stop-opacity="1"/></linearGradient></defs><path fill="url(#linear-pattern-0)" fill-opacity="1" d="M 36.21875 2.050781 L 62.027344 27.605469 C 64.402344 29.957031 64.417969 33.785156 62.058594 36.15625 L 36.460938 61.917969 C 34.105469 64.289062 30.269531 64.304688 27.894531 61.949219 L 2.085938 36.394531 C -0.289062 34.042969 -0.304688 30.214844 2.050781 27.84375 L 27.652344 2.082031 C 30.007812 -0.289062 33.84375 -0.304688 36.21875 2.050781 Z M 36.21875 2.050781 " /><g transform="matrix(1.0075098,0,0,1.0032698,16.221436,16.077397)"><path fill-rule="nonzero" fill="rgb(100%, 100%, 100%)" fill-opacity="1" d="M 15.785156 2.40625 C 19.199219 4.246094 21.402344 7.847656 21.402344 11.773438 C 21.40625 17.625 16.726562 22.371094 10.960938 22.367188 C 7.09375 22.367188 3.546875 20.136719 1.742188 16.664062 C 1.769531 24.515625 8.050781 30.921875 15.785156 30.921875 C 23.542969 30.921875 29.828125 24.539062 29.828125 16.664062 C 29.828125 8.820312 23.515625 2.445312 15.785156 2.40625 Z M 15.785156 2.40625 "/></g></svg>
