<svg width="64" height="64" viewBox="0 0 64 64" version="1.1"><defs><linearGradient id="linear-pattern-0" gradientUnits="userSpaceOnUse" x1="0" y1="0" x2="0" y2="1" gradientTransform="matrix(60, 0, 0, 56, 0, 4)"><stop offset="0" stop-color="#6926fc" stop-opacity="1"/><stop offset="1" stop-color="#3702ab" stop-opacity="1"/></linearGradient></defs><path fill="url(#linear-pattern-0)" fill-opacity="1" d="M 36.21875 2.050781 L 62.027344 27.605469 C 64.402344 29.957031 64.417969 33.785156 62.058594 36.15625 L 36.460938 61.917969 C 34.105469 64.289062 30.269531 64.304688 27.894531 61.949219 L 2.085938 36.394531 C -0.289062 34.042969 -0.304688 30.214844 2.050781 27.84375 L 27.652344 2.082031 C 30.007812 -0.289062 33.84375 -0.304688 36.21875 2.050781 Z M 36.21875 2.050781 " /><g transform="matrix(1.0075098,0,0,1.0032698,16.221436,16.077397)"><path fill-rule="nonzero" fill="rgb(100%, 100%, 100%)" fill-opacity="1" d="M 16.257812 2.632812 C 7.71875 2.632812 2.6875 7.628906 1.53125 8.800781 C 0.390625 9.898438 2.074219 11.585938 3.164062 10.453125 C 4.320312 9.285156 8.570312 4.984375 16.269531 4.984375 C 23.96875 4.984375 28.214844 9.289062 29.375 10.453125 C 30.460938 11.59375 32.144531 9.902344 31.007812 8.800781 C 29.851562 7.632812 24.851562 2.632812 16.28125 2.632812 Z M 16.257812 7.3125 C 12.417969 7.3125 9.296875 10.460938 9.296875 14.335938 C 9.296875 18.210938 12.417969 21.359375 16.257812 21.359375 C 20.09375 21.359375 23.214844 18.210938 23.214844 14.335938 C 23.214844 10.460938 20.09375 7.3125 16.257812 7.3125 Z M 17.414062 8.484375 C 17.734375 8.484375 18.027344 8.617188 18.234375 8.828125 L 20.554688 11.167969 L 18.921875 12.820312 L 16.601562 10.476562 C 16.390625 10.265625 16.261719 9.972656 16.261719 9.648438 C 16.261719 9.003906 16.78125 8.476562 17.421875 8.476562 Z M 2.339844 17.851562 C 1.460938 17.894531 0.726562 19.054688 1.578125 19.875 C 2.734375 21.039062 7.738281 26.042969 16.308594 26.042969 C 24.84375 26.042969 29.875 21.046875 31.039062 19.875 C 32.171875 18.773438 30.492188 17.085938 29.402344 18.222656 C 28.246094 19.390625 24 23.6875 16.296875 23.6875 C 8.59375 23.6875 4.351562 19.382812 3.191406 18.222656 C 2.921875 17.9375 2.609375 17.828125 2.316406 17.84375 Z M 2.339844 17.851562 "/></g></svg>
