<svg width="64" height="64" viewBox="0 0 64 64" version="1.1"><defs><linearGradient id="linear-pattern-0" gradientUnits="userSpaceOnUse" x1="0" y1="0" x2="0" y2="1" gradientTransform="matrix(60, 0, 0, 56, 0, 4)"><stop offset="0" stop-color="#c10000" stop-opacity="1"/><stop offset="1" stop-color="#5f0000" stop-opacity="1"/></linearGradient></defs><path fill="url(#linear-pattern-0)" fill-opacity="1" d="M 36.21875 2.050781 L 62.027344 27.605469 C 64.402344 29.957031 64.417969 33.785156 62.058594 36.15625 L 36.460938 61.917969 C 34.105469 64.289062 30.269531 64.304688 27.894531 61.949219 L 2.085938 36.394531 C -0.289062 34.042969 -0.304688 30.214844 2.050781 27.84375 L 27.652344 2.082031 C 30.007812 -0.289062 33.84375 -0.304688 36.21875 2.050781 Z M 36.21875 2.050781 " /><g transform="matrix(1.0075098,0,0,1.0032698,16.221436,16.077397)"><path fill-rule="evenodd" fill="rgb(100%, 100%, 100%)" fill-opacity="1" d="M 25.191406 5.96875 L 23.984375 1.601562 C 23.742188 0.746094 23.269531 0 22.386719 0 L 19.429688 0 L 16 5.714844 L 12.570312 0 L 9.613281 0 C 8.730469 0 8.257812 0.746094 8.015625 1.601562 L 0.0351562 30.398438 C -0.199219 31.253906 0.75 32 1.632812 32 L 30.367188 32 C 31.25 32 32.199219 31.253906 31.964844 30.398438 L 31.960938 30.398438 L 26.429688 10.445312 L 27.761719 8.140625 C 28.21875 7.355469 27.945312 6.347656 27.160156 5.890625 L 27.046875 5.828125 C 26.441406 5.476562 25.703125 5.554688 25.191406 5.96875 Z M 16.609375 20.609375 C 16.410156 20.585938 16.203125 20.570312 16 20.570312 C 13.476562 20.570312 11.429688 22.617188 11.429688 25.140625 C 11.429688 27.664062 13.476562 29.714844 16 29.714844 C 18.523438 29.714844 20.570312 27.664062 20.570312 25.140625 C 20.570312 24.070312 20.203125 23.085938 19.585938 22.308594 L 17.421875 26.054688 C 16.96875 26.839844 15.960938 27.109375 15.171875 26.65625 L 15.0625 26.589844 C 14.273438 26.136719 14 25.125 14.453125 24.339844 Z M 16.609375 20.609375 "/></g></svg>
