<svg width="64" height="64" viewBox="0 0 64 64" version="1.1"><defs><linearGradient id="linear-pattern-0" gradientUnits="userSpaceOnUse" x1="0" y1="0" x2="0" y2="1" gradientTransform="matrix(60, 0, 0, 56, 0, 4)"><stop offset="0" stop-color="#008a97" stop-opacity="1"/><stop offset="1" stop-color="#00545c" stop-opacity="1"/></linearGradient></defs><path fill="url(#linear-pattern-0)" fill-opacity="1" d="M 36.21875 2.050781 L 62.027344 27.605469 C 64.402344 29.957031 64.417969 33.785156 62.058594 36.15625 L 36.460938 61.917969 C 34.105469 64.289062 30.269531 64.304688 27.894531 61.949219 L 2.085938 36.394531 C -0.289062 34.042969 -0.304688 30.214844 2.050781 27.84375 L 27.652344 2.082031 C 30.007812 -0.289062 33.84375 -0.304688 36.21875 2.050781 Z M 36.21875 2.050781 " /><g transform="matrix(1.0075098,0,0,1.0032698,16.221436,16.077397)"><path fill-rule="nonzero" fill="rgb(100%, 100%, 100%)" fill-opacity="1" d="M 5.242188 1.773438 C 3.609375 1.773438 2.289062 2.757812 2.289062 3.976562 L 2.289062 28.148438 C 2.289062 29.359375 3.609375 30.34375 5.242188 30.34375 C 6.878906 30.34375 8.1875 29.359375 8.1875 28.148438 L 8.1875 20.726562 C 9.667969 21.320312 11.03125 21.550781 12.617188 21.550781 C 15.390625 21.550781 18.046875 20.832031 19.988281 19.359375 C 21.929688 20.832031 24.585938 21.550781 27.359375 21.550781 C 28.992188 21.550781 30.308594 20.570312 30.308594 19.359375 C 30.308594 18.140625 28.992188 17.15625 27.359375 17.15625 C 24.945312 17.15625 22.9375 15.660156 22.9375 13.859375 L 22.9375 3.976562 C 22.9375 2.757812 21.625 1.773438 19.988281 1.773438 C 18.351562 1.773438 17.039062 2.757812 17.039062 3.976562 L 17.039062 13.859375 C 17.039062 15.679688 15.0625 17.15625 12.617188 17.15625 C 10.171875 17.15625 8.1875 15.679688 8.1875 13.859375 L 8.1875 3.976562 C 8.1875 2.757812 6.878906 1.773438 5.242188 1.773438 Z M 5.242188 1.773438 "/></g></svg>
