<svg width="64" height="64" viewBox="0 0 64 64" version="1.1"><defs><linearGradient id="linear-pattern-0" gradientUnits="userSpaceOnUse" x1="0" y1="0" x2="0" y2="1" gradientTransform="matrix(60, 0, 0, 56, 0, 4)"><stop offset="0" stop-color="#008a97" stop-opacity="1"/><stop offset="1" stop-color="#00545c" stop-opacity="1"/></linearGradient></defs><path fill="url(#linear-pattern-0)" fill-opacity="1" d="M 36.21875 2.050781 L 62.027344 27.605469 C 64.402344 29.957031 64.417969 33.785156 62.058594 36.15625 L 36.460938 61.917969 C 34.105469 64.289062 30.269531 64.304688 27.894531 61.949219 L 2.085938 36.394531 C -0.289062 34.042969 -0.304688 30.214844 2.050781 27.84375 L 27.652344 2.082031 C 30.007812 -0.289062 33.84375 -0.304688 36.21875 2.050781 Z M 36.21875 2.050781 " /><g transform="matrix(1.0075098,0,0,1.0032698,16.221436,16.077397)"><path fill-rule="nonzero" fill="rgb(100%, 100%, 100%)" fill-opacity="1" d="M 16.035156 0.214844 C 15.320312 0.214844 14.746094 0.769531 14.746094 1.460938 L 14.746094 2.816406 C 11.078125 3.40625 8.296875 6.460938 8.296875 10.171875 L 8.296875 18.882812 L 23.773438 18.882812 L 23.773438 10.171875 C 23.773438 6.460938 20.992188 3.40625 17.324219 2.816406 L 17.324219 1.460938 C 17.324219 0.769531 16.75 0.214844 16.035156 0.214844 Z M 16.035156 6.4375 C 18.171875 6.4375 19.90625 8.109375 19.90625 10.171875 C 19.90625 12.234375 18.171875 13.90625 16.035156 13.90625 C 13.898438 13.90625 12.167969 12.234375 12.167969 10.171875 C 12.167969 8.109375 13.898438 6.4375 16.035156 6.4375 Z M 12.167969 13.914062 C 13.457031 14.71875 14.554688 15.15625 16.035156 15.15625 C 17.515625 15.15625 18.617188 14.695312 19.90625 13.914062 L 19.90625 15.148438 C 18.789062 15.960938 17.433594 16.40625 16.035156 16.40625 C 14.640625 16.40625 13.28125 15.960938 12.167969 15.148438 Z M 12.167969 13.914062 "/><path fill-rule="nonzero" fill="rgb(100%, 100%, 100%)" fill-opacity="1" d="M 5.71875 17.640625 L 6.007812 18.605469 L 5.078125 19.507812 L 8.296875 22.617188 L 7.65625 23.238281 L 4.429688 20.125 L 3.789062 20.75 L 7.007812 23.859375 L 7.4375 23.445312 L 8.296875 26.351562 L 22.484375 26.351562 L 24.03125 22.867188 L 23.773438 22.617188 L 26.992188 19.507812 L 25.960938 18.507812 L 26.351562 17.640625 Z M 12.167969 20.125 L 18.617188 20.125 L 19.90625 21.371094 L 18.617188 25.101562 L 12.167969 25.101562 L 10.878906 21.371094 Z M 27.640625 20.125 L 24.414062 23.238281 L 25.058594 23.859375 L 28.285156 20.75 Z M 3.140625 21.371094 C 1.851562 22.617188 0.5625 23.859375 0.5625 25.101562 C 0.5625 26.824219 1.71875 27.59375 3.140625 27.59375 C 4.398438 27.59375 5.4375 26.996094 5.671875 25.679688 C 5.640625 25.855469 5.59375 26.015625 5.535156 26.171875 L 1.886719 22.652344 C 2.085938 22.433594 2.285156 22.21875 2.507812 22 L 5.71875 25.101562 L 6.367188 24.484375 Z M 28.929688 21.371094 L 25.703125 24.484375 L 26.351562 25.101562 L 29.570312 22 C 29.785156 22.21875 29.984375 22.433594 30.1875 22.652344 L 26.535156 26.171875 C 26.476562 26.015625 26.429688 25.855469 26.398438 25.679688 C 26.632812 26.996094 27.675781 27.59375 28.929688 27.59375 C 30.351562 27.59375 31.507812 26.824219 31.507812 25.101562 C 31.507812 23.859375 30.21875 22.617188 28.929688 21.371094 Z M 26.359375 25.40625 C 26.375 25.492188 26.382812 25.578125 26.398438 25.660156 C 26.382812 25.578125 26.375 25.492188 26.359375 25.40625 Z M 5.707031 25.40625 C 5.699219 25.492188 5.6875 25.570312 5.675781 25.648438 C 5.6875 25.570312 5.703125 25.492188 5.707031 25.40625 Z M 8.296875 27.59375 L 8.296875 28.835938 L 14.746094 28.835938 L 14.746094 27.59375 Z M 16.035156 27.59375 L 16.035156 28.835938 L 22.480469 28.835938 L 22.480469 27.59375 Z M 8.308594 29.625 C 8.394531 30.578125 9.21875 31.328125 10.234375 31.328125 L 12.8125 31.328125 C 13.824219 31.328125 14.65625 30.578125 14.738281 29.625 C 14.722656 29.789062 14.679688 29.9375 14.625 30.085938 L 8.414062 30.085938 C 8.359375 29.9375 8.328125 29.789062 8.308594 29.625 Z M 16.042969 29.625 C 16.132812 30.578125 16.953125 31.328125 17.96875 31.328125 L 20.546875 31.328125 C 21.5625 31.328125 22.390625 30.578125 22.476562 29.625 C 22.457031 29.789062 22.417969 29.9375 22.363281 30.085938 L 16.152344 30.085938 C 16.097656 29.9375 16.0625 29.789062 16.042969 29.625 Z M 16.042969 29.625 "/></g></svg>
