<svg width="64" height="64" viewBox="0 0 64 64" version="1.1"><defs><linearGradient id="linear-pattern-0" gradientUnits="userSpaceOnUse" x1="0" y1="0" x2="0" y2="1" gradientTransform="matrix(60, 0, 0, 56, 0, 4)"><stop offset="0" stop-color="#ec7700" stop-opacity="1"/><stop offset="1" stop-color="#773c00" stop-opacity="1"/></linearGradient></defs><path fill="url(#linear-pattern-0)" fill-opacity="1" d="M 36.21875 2.050781 L 62.027344 27.605469 C 64.402344 29.957031 64.417969 33.785156 62.058594 36.15625 L 36.460938 61.917969 C 34.105469 64.289062 30.269531 64.304688 27.894531 61.949219 L 2.085938 36.394531 C -0.289062 34.042969 -0.304688 30.214844 2.050781 27.84375 L 27.652344 2.082031 C 30.007812 -0.289062 33.84375 -0.304688 36.21875 2.050781 Z M 36.21875 2.050781 " /><g transform="matrix(1.0075098,0,0,1.0032698,16.221436,16.077397)"><path fill-rule="evenodd" fill="rgb(100%, 100%, 100%)" fill-opacity="1" d="M 4.234375 0.742188 C 2.34375 0.742188 0.820312 2.273438 0.820312 4.175781 L 0.820312 27.890625 C 0.820312 29.789062 2.34375 31.320312 4.234375 31.320312 L 28.253906 31.320312 C 30.148438 31.320312 31.671875 29.789062 31.671875 27.890625 L 31.671875 4.175781 C 31.671875 2.273438 30.148438 0.742188 28.253906 0.742188 L 18.605469 0.742188 C 18.679688 0.742188 18.75 0.804688 18.75 0.890625 L 18.75 3.492188 C 18.75 3.574219 18.679688 3.636719 18.601562 3.636719 L 13.632812 3.636719 C 13.546875 3.636719 13.484375 3.574219 13.484375 3.492188 L 13.484375 0.890625 C 13.484375 0.804688 13.546875 0.742188 13.625 0.742188 Z M 16.046875 8.609375 C 17.839844 8.609375 19.601562 9.335938 20.867188 10.617188 C 22.304688 12.078125 23.039062 14.191406 22.8125 16.1875 C 22.5 18.84375 20.835938 20.960938 18.335938 21.886719 C 17.273438 22.28125 16.097656 22.390625 14.929688 22.207031 C 13.625 22 12.15625 21.234375 11.203125 20.269531 C 9.78125 18.828125 9.039062 16.710938 9.273438 14.722656 C 9.648438 11.492188 12.089844 9.027344 15.28125 8.65625 C 15.539062 8.625 15.796875 8.609375 16.046875 8.609375 Z M 16.039062 10.015625 C 15.34375 10.015625 15.121094 10.046875 14.601562 10.210938 C 13.234375 10.65625 12.195312 11.480469 11.40625 12.75 C 10.636719 13.992188 10.414062 15.335938 10.757812 16.6875 C 11.289062 18.742188 13.210938 20.507812 15.304688 20.867188 C 15.945312 20.976562 16.859375 20.882812 17.589844 20.640625 C 19.414062 20.039062 20.890625 18.425781 21.367188 16.53125 C 21.492188 16.023438 21.492188 14.878906 21.367188 14.367188 C 20.90625 12.484375 19.421875 10.882812 17.566406 10.25 C 16.9375 10.039062 16.789062 10.015625 16.039062 10.015625 Z M 16.039062 11.683594 C 16.308594 11.683594 16.578125 11.6875 16.78125 11.699219 L 17.515625 11.734375 L 17.550781 13.210938 L 17.589844 14.695312 L 18.699219 14.714844 C 19.3125 14.722656 19.859375 14.75 19.914062 14.765625 C 20.03125 14.8125 19.828125 15.070312 18.867188 16.109375 C 18.480469 16.53125 17.695312 17.378906 17.125 18 C 16.554688 18.625 16.066406 19.132812 16.039062 19.132812 C 16.015625 19.132812 15.523438 18.625 14.957031 18 C 14.390625 17.378906 13.605469 16.53125 13.21875 16.109375 C 12.257812 15.070312 12.054688 14.8125 12.171875 14.765625 C 12.222656 14.75 12.773438 14.722656 13.382812 14.714844 L 14.496094 14.695312 L 14.53125 13.210938 L 14.570312 11.734375 L 15.304688 11.699219 C 15.507812 11.6875 15.777344 11.683594 16.039062 11.683594 Z M 13.570312 28.421875 L 18.539062 28.421875 C 18.621094 28.421875 18.683594 28.492188 18.683594 28.570312 L 18.683594 31.175781 C 18.683594 31.257812 18.621094 31.320312 18.539062 31.320312 L 13.570312 31.320312 C 13.488281 31.320312 13.421875 31.257812 13.421875 31.175781 L 13.421875 28.570312 C 13.421875 28.492188 13.488281 28.421875 13.570312 28.421875 Z M 13.570312 28.421875 "/></g></svg>
