<svg width="64" height="64" viewBox="0 0 64 64" version="1.1"><defs><linearGradient id="linear-pattern-0" gradientUnits="userSpaceOnUse" x1="0" y1="0" x2="0" y2="1" gradientTransform="matrix(60, 0, 0, 56, 0, 4)"><stop offset="0" stop-color="#a67e50" stop-opacity="1"/><stop offset="1" stop-color="#644c30" stop-opacity="1"/></linearGradient></defs><path fill="url(#linear-pattern-0)" fill-opacity="1" d="M 36.21875 2.050781 L 62.027344 27.605469 C 64.402344 29.957031 64.417969 33.785156 62.058594 36.15625 L 36.460938 61.917969 C 34.105469 64.289062 30.269531 64.304688 27.894531 61.949219 L 2.085938 36.394531 C -0.289062 34.042969 -0.304688 30.214844 2.050781 27.84375 L 27.652344 2.082031 C 30.007812 -0.289062 33.84375 -0.304688 36.21875 2.050781 Z M 36.21875 2.050781 " /><g transform="matrix(1.0075098,0,0,1.0032698,16.221436,16.077397)"><path fill-rule="evenodd" fill="rgb(100%, 100%, 100%)" fill-opacity="1" d="M 16.765625 12.730469 C 16.425781 12.519531 16.1875 12.183594 16.09375 11.796875 C 16.007812 11.410156 16.078125 11 16.285156 10.664062 C 16.5 10.328125 16.835938 10.085938 17.21875 10 C 17.609375 9.910156 18.015625 9.976562 18.355469 10.183594 C 18.578125 10.328125 18.796875 10.492188 18.992188 10.664062 C 19.449219 11.054688 19.855469 11.492188 20.210938 11.976562 C 20.71875 12.675781 21.125 13.445312 21.410156 14.265625 C 21.769531 15.320312 21.949219 16.425781 21.9375 17.539062 C 21.949219 18.65625 21.765625 19.765625 21.394531 20.8125 C 21.105469 21.632812 20.6875 22.390625 20.15625 23.078125 C 19.789062 23.546875 19.367188 23.976562 18.90625 24.351562 C 18.695312 24.519531 18.476562 24.671875 18.242188 24.804688 C 17.898438 25 17.492188 25.050781 17.105469 24.945312 C 16.71875 24.839844 16.394531 24.589844 16.195312 24.242188 C 16 23.898438 15.949219 23.492188 16.054688 23.105469 C 16.160156 22.71875 16.410156 22.394531 16.757812 22.195312 C 16.84375 22.144531 16.9375 22.085938 17.015625 22.019531 C 17.300781 21.789062 17.5625 21.53125 17.785156 21.242188 C 18.117188 20.804688 18.386719 20.328125 18.570312 19.8125 C 18.828125 19.078125 18.949219 18.3125 18.9375 17.539062 C 18.949219 16.757812 18.828125 15.980469 18.570312 15.234375 C 18.386719 14.703125 18.125 14.203125 17.789062 13.75 C 17.570312 13.445312 17.3125 13.171875 17.023438 12.925781 C 16.945312 12.855469 16.855469 12.789062 16.765625 12.730469 Z M 16 5 C 11.859375 5 8.328125 7.535156 6.8125 11.125 C 2.953125 11.695312 0 14.984375 0 19 C 0 23.417969 3.582031 27 8 27 L 25 27 C 28.867188 27 32 23.867188 32 20 C 32 16.40625 29.296875 13.460938 25.8125 13.0625 C 24.90625 8.476562 20.851562 5 16 5 Z M 12 22.914062 C 11.625 23.046875 11.21875 23.023438 10.855469 22.855469 C 10.496094 22.6875 10.21875 22.375 10.085938 22 C 9.953125 21.625 9.976562 21.214844 10.148438 20.855469 C 10.316406 20.492188 10.625 20.21875 11 20.085938 C 11.101562 20.050781 11.195312 20.007812 11.289062 19.960938 C 11.566406 19.828125 11.820312 19.660156 12.054688 19.464844 C 12.328125 19.25 12.550781 18.984375 12.726562 18.6875 C 12.90625 18.351562 13 17.976562 13 17.589844 C 13 17.585938 13 17.585938 13 17.578125 C 13 17.179688 12.90625 16.785156 12.71875 16.4375 C 12.53125 16.113281 12.300781 15.828125 12.019531 15.585938 C 11.773438 15.375 11.515625 15.1875 11.234375 15.03125 C 11.132812 14.980469 11.03125 14.929688 10.933594 14.890625 C 10.566406 14.742188 10.269531 14.445312 10.117188 14.078125 C 9.96875 13.71875 9.960938 13.300781 10.109375 12.933594 C 10.257812 12.566406 10.554688 12.269531 10.921875 12.117188 C 11.28125 11.96875 11.699219 11.960938 12.066406 12.109375 C 12.28125 12.199219 12.5 12.304688 12.703125 12.421875 C 13.160156 12.675781 13.589844 12.976562 13.980469 13.316406 C 14.53125 13.789062 14.996094 14.359375 15.34375 14.992188 C 15.773438 15.789062 16 16.679688 16 17.578125 C 16.007812 18.480469 15.773438 19.367188 15.339844 20.15625 C 14.980469 20.785156 14.507812 21.339844 13.945312 21.796875 C 13.546875 22.125 13.109375 22.40625 12.648438 22.636719 C 12.4375 22.742188 12.21875 22.835938 12 22.914062 Z M 12 22.914062 "/></g></svg>
