<svg width="64" height="64" viewBox="0 0 64 64" version="1.1"><defs><linearGradient id="linear-pattern-0" gradientUnits="userSpaceOnUse" x1="0" y1="0" x2="0" y2="1" gradientTransform="matrix(60, 0, 0, 56, 0, 4)"><stop offset="0" stop-color="#00983a" stop-opacity="1"/><stop offset="1" stop-color="#004a1c" stop-opacity="1"/></linearGradient></defs><path fill="url(#linear-pattern-0)" fill-opacity="1" d="M 36.21875 2.050781 L 62.027344 27.605469 C 64.402344 29.957031 64.417969 33.785156 62.058594 36.15625 L 36.460938 61.917969 C 34.105469 64.289062 30.269531 64.304688 27.894531 61.949219 L 2.085938 36.394531 C -0.289062 34.042969 -0.304688 30.214844 2.050781 27.84375 L 27.652344 2.082031 C 30.007812 -0.289062 33.84375 -0.304688 36.21875 2.050781 Z M 36.21875 2.050781 " /><g transform="matrix(1.0075098,0,0,1.0032698,16.221436,16.077397)"><path fill-rule="nonzero" fill="rgb(100%, 100%, 100%)" fill-opacity="1" d="M 4.65625 0.535156 C 2.375 0.535156 0.523438 2.414062 0.523438 4.726562 L 0.523438 27.652344 C 0.523438 29.964844 2.375 31.84375 4.65625 31.84375 L 27.234375 31.84375 C 29.515625 31.84375 31.367188 29.964844 31.367188 27.652344 L 31.367188 4.726562 C 31.367188 2.414062 29.515625 0.535156 27.234375 0.535156 Z M 29.164062 2.773438 L 29.164062 29.609375 L 5.34375 29.496094 C 5.34375 29.496094 6.796875 27.3125 6.796875 27.304688 C 6.796875 27.164062 11.394531 21.554688 11.492188 21.578125 C 11.546875 21.585938 13.605469 22.476562 16.0625 23.546875 C 20.253906 25.375 20.53125 25.484375 20.640625 25.328125 C 20.8125 25.09375 21.40625 23.835938 21.71875 23.042969 L 21.984375 22.371094 L 21.539062 22.121094 C 20.90625 21.769531 19.976562 20.992188 19.394531 20.320312 C 18.863281 19.703125 17.90625 18.222656 17.90625 18.015625 C 17.90625 17.945312 18.210938 18.257812 18.582031 18.710938 C 19.625 19.972656 22.03125 21.949219 22.183594 21.667969 C 22.359375 21.335938 22.476562 20.351562 22.46875 19.207031 C 22.464844 17.8125 22.289062 16.730469 21.8125 15.234375 L 21.546875 14.390625 L 20.238281 13.976562 C 19.515625 13.746094 18.796875 13.515625 18.632812 13.464844 C 18.070312 13.28125 18.425781 13.289062 19.253906 13.476562 C 20.242188 13.703125 21.25 13.890625 21.867188 13.96875 C 22.417969 14.039062 22.539062 13.9375 22.59375 13.316406 C 22.671875 12.523438 22.167969 10.34375 21.664062 9.257812 C 21.460938 8.824219 21.371094 8.726562 20.964844 8.539062 C 19.617188 7.914062 15.402344 7.328125 13.613281 7.519531 C 12.835938 7.601562 12.039062 7.792969 11.792969 7.953125 C 11.722656 8 12.222656 8.132812 13.085938 8.292969 C 13.855469 8.4375 14.414062 8.570312 14.328125 8.585938 C 14.25 8.601562 13.035156 8.464844 11.636719 8.28125 C 9.1875 7.964844 9.085938 7.960938 8.917969 8.117188 C 8.5625 8.445312 8.050781 9.335938 7.945312 9.816406 C 7.84375 10.28125 7.851562 10.335938 8.078125 10.808594 C 8.46875 11.609375 9.1875 12.195312 10.824219 13.035156 C 11.601562 13.433594 12.21875 13.78125 12.195312 13.804688 C 12.167969 13.828125 11.507812 13.578125 10.71875 13.246094 L 9.292969 12.648438 L 7.195312 13.242188 C 6.046875 13.570312 2.882812 13.878906 2.835938 13.878906 L 2.726562 2.773438 Z M 29.164062 2.773438 "/></g></svg>
