<svg width="64" height="64" viewBox="0 0 64 64" version="1.1"><defs><linearGradient id="linear-pattern-0" gradientUnits="userSpaceOnUse" x1="0" y1="0" x2="0" y2="1" gradientTransform="matrix(60, 0, 0, 56, 0, 4)"><stop offset="0" stop-color="#aaaa00" stop-opacity="1"/><stop offset="1" stop-color="#5c5c00" stop-opacity="1"/></linearGradient></defs><path fill="url(#linear-pattern-0)" fill-opacity="1" d="M 36.21875 2.050781 L 62.027344 27.605469 C 64.402344 29.957031 64.417969 33.785156 62.058594 36.15625 L 36.460938 61.917969 C 34.105469 64.289062 30.269531 64.304688 27.894531 61.949219 L 2.085938 36.394531 C -0.289062 34.042969 -0.304688 30.214844 2.050781 27.84375 L 27.652344 2.082031 C 30.007812 -0.289062 33.84375 -0.304688 36.21875 2.050781 Z M 36.21875 2.050781 " /><g transform="matrix(1.0075098,0,0,1.0032698,16.221436,16.077397)"><path fill-rule="nonzero" fill="rgb(100%, 100%, 100%)" fill-opacity="1" d="M 13.117188 2.265625 C 6.101562 2.265625 0.414062 8.394531 0.414062 15.949219 C 0.414062 23.507812 6.101562 29.632812 13.117188 29.632812 C 20.132812 29.632812 25.824219 23.507812 25.824219 15.949219 C 25.824219 8.394531 20.132812 2.265625 13.117188 2.265625 Z M 27.234375 2.265625 L 27.234375 27.355469 C 27.234375 27.773438 27.550781 28.117188 27.941406 28.117188 L 29.351562 28.117188 C 29.742188 28.117188 30.0625 27.773438 30.0625 27.355469 L 30.0625 11.386719 L 30.765625 11.386719 C 31.15625 11.386719 31.46875 11.046875 31.46875 10.628906 L 31.46875 3.023438 C 31.46875 2.601562 31.15625 2.265625 30.765625 2.265625 Z M 27.234375 2.265625 "/></g></svg>
