<svg width="64" height="64" viewBox="0 0 64 64" version="1.1"><defs><linearGradient id="linear-pattern-0" gradientUnits="userSpaceOnUse" x1="0" y1="0" x2="0" y2="1" gradientTransform="matrix(60, 0, 0, 56, 0, 4)"><stop offset="0" stop-color="#6926fc" stop-opacity="1"/><stop offset="1" stop-color="#3702ab" stop-opacity="1"/></linearGradient></defs><path fill="url(#linear-pattern-0)" fill-opacity="1" d="M 36.21875 2.050781 L 62.027344 27.605469 C 64.402344 29.957031 64.417969 33.785156 62.058594 36.15625 L 36.460938 61.917969 C 34.105469 64.289062 30.269531 64.304688 27.894531 61.949219 L 2.085938 36.394531 C -0.289062 34.042969 -0.304688 30.214844 2.050781 27.84375 L 27.652344 2.082031 C 30.007812 -0.289062 33.84375 -0.304688 36.21875 2.050781 Z M 36.21875 2.050781 " /><g transform="matrix(1.0075098,0,0,1.0032698,16.221436,16.077397)"><path fill-rule="nonzero" fill="rgb(100%, 100%, 100%)" fill-opacity="1" d="M 16.335938 1.125 C 15.21875 1.125 15.21875 1.125 15.21875 2.242188 L 15.21875 5.683594 C 11.984375 6.226562 9.613281 9.015625 9.609375 12.28125 C 9.617188 15.542969 11.984375 18.328125 15.21875 18.875 L 15.21875 18.972656 C 14.09375 18.972656 14.09375 18.972656 14.09375 20.089844 L 14.09375 21.203125 L 9.609375 17.859375 C 8.492188 16.742188 8.492188 16.742188 8.492188 15.625 L 8.492188 10.046875 C 8.492188 8.933594 8.492188 8.933594 9.609375 7.820312 C 10.734375 6.703125 9.609375 4.46875 6.25 2.242188 C 5.132812 2.242188 2.890625 4.46875 2.890625 5.585938 C 5.132812 6.703125 6.25 7.820312 6.25 8.933594 C 4.007812 8.933594 4.007812 8.933594 4.007812 10.046875 L 4.007812 11.164062 C 4.007812 13.394531 6.25 12.28125 6.25 14.511719 L 5.132812 14.511719 C 5.132812 15.625 5.132812 15.625 6.25 16.742188 L 14.09375 23.4375 L 14.09375 31.242188 L 18.578125 31.242188 L 18.578125 23.4375 L 26.421875 16.742188 C 27.542969 15.625 27.542969 15.625 27.542969 14.511719 L 26.421875 14.511719 C 26.421875 12.28125 28.664062 13.394531 28.664062 11.164062 L 28.664062 10.046875 C 28.664062 8.933594 28.664062 8.933594 26.421875 8.933594 C 26.421875 7.820312 27.542969 6.703125 29.78125 5.585938 C 29.78125 4.46875 27.542969 2.242188 26.421875 2.242188 C 23.058594 4.46875 21.9375 6.703125 23.058594 7.820312 C 24.179688 8.933594 24.179688 8.933594 24.179688 10.046875 L 24.179688 15.625 C 24.179688 16.742188 24.179688 16.742188 23.058594 17.859375 L 18.578125 21.203125 L 18.578125 20.089844 C 18.578125 18.972656 18.578125 18.972656 17.457031 18.972656 L 17.457031 18.875 C 20.691406 18.335938 23.058594 15.546875 23.058594 12.28125 C 23.054688 9.015625 20.6875 6.230469 17.457031 5.6875 L 17.457031 2.242188 C 17.457031 1.125 17.457031 1.125 16.335938 1.125 Z M 16.335938 1.125 "/></g></svg>
