<svg width="64" height="64" viewBox="0 0 64 64" version="1.1"><defs><linearGradient id="linear-pattern-0" gradientUnits="userSpaceOnUse" x1="0" y1="0" x2="0" y2="1" gradientTransform="matrix(60, 0, 0, 56, 0, 4)"><stop offset="0" stop-color="#00a07f" stop-opacity="1"/><stop offset="1" stop-color="#005241" stop-opacity="1"/></linearGradient></defs><path fill="url(#linear-pattern-0)" fill-opacity="1" d="M 36.21875 2.050781 L 62.027344 27.605469 C 64.402344 29.957031 64.417969 33.785156 62.058594 36.15625 L 36.460938 61.917969 C 34.105469 64.289062 30.269531 64.304688 27.894531 61.949219 L 2.085938 36.394531 C -0.289062 34.042969 -0.304688 30.214844 2.050781 27.84375 L 27.652344 2.082031 C 30.007812 -0.289062 33.84375 -0.304688 36.21875 2.050781 Z M 36.21875 2.050781 " /><g transform="matrix(1.0075098,0,0,1.0032698,16.221436,16.077397)"><path fill-rule="nonzero" fill="rgb(100%, 100%, 100%)" fill-opacity="1" d="M 29.140625 8.75 C 28.921875 9.351562 28.804688 10 28.671875 10.53125 C 28.195312 12.445312 27.367188 16.34375 26.03125 16.34375 C 24.585938 16.34375 24.03125 9.679688 22.03125 9.679688 C 21.367188 9.679688 20.691406 10.375 20.367188 11.007812 C 18.421875 14.757812 18.03125 17.007812 16.03125 23.007812 C 16.03125 19.679688 16.097656 13.945312 14.699219 10.34375 C 14.460938 9.71875 14.03125 9.003906 12.699219 9.007812 C 11.738281 9.015625 10.785156 9.664062 10.25 10.976562 C 9.234375 13.460938 8.851562 17.007812 8.03125 20.3125 C 7.367188 20.3125 6.699219 12.976562 4.699219 12.976562 C 2.699219 12.976562 2.558594 15.671875 1.898438 18.257812 C 1.789062 18.8125 1.679688 19.363281 1.546875 19.917969 C 1.78125 21.476562 2.25 22.992188 2.941406 24.40625 C 3.609375 22 4.078125 20.230469 4.695312 18.316406 C 4.921875 18.929688 5.226562 20.3125 5.523438 21.296875 C 6.03125 22.984375 6.695312 24.984375 8.03125 24.984375 C 9.363281 24.984375 9.671875 23.824219 10.03125 22.984375 C 11.34375 19.921875 12.03125 12.984375 12.695312 12.984375 C 13.363281 12.984375 13.363281 20.316406 13.363281 24.316406 C 13.363281 24.984375 13.363281 26.316406 14.695312 26.316406 C 16.164062 26.316406 16.773438 25.335938 17.542969 24.183594 C 19.304688 21.554688 21.203125 14.984375 22.03125 14.984375 C 23.148438 14.984375 23.363281 20.316406 26.03125 20.316406 C 28.695312 20.316406 29.90625 15.65625 31.015625 13.515625 C 31.117188 13.328125 31.195312 13.132812 31.265625 12.9375 C 30.78125 11.429688 30.0625 10.011719 29.140625 8.730469 Z M 29.140625 8.75 "/></g></svg>
