<svg width="64" height="64" viewBox="0 0 64 64" version="1.1"><defs><linearGradient id="linear-pattern-0" gradientUnits="userSpaceOnUse" x1="0" y1="0" x2="0" y2="1" gradientTransform="matrix(60, 0, 0, 56, 0, 4)"><stop offset="0" stop-color="#8900e4" stop-opacity="1"/><stop offset="1" stop-color="#42006e" stop-opacity="1"/></linearGradient></defs><path fill="url(#linear-pattern-0)" fill-opacity="1" d="M 36.21875 2.050781 L 62.027344 27.605469 C 64.402344 29.957031 64.417969 33.785156 62.058594 36.15625 L 36.460938 61.917969 C 34.105469 64.289062 30.269531 64.304688 27.894531 61.949219 L 2.085938 36.394531 C -0.289062 34.042969 -0.304688 30.214844 2.050781 27.84375 L 27.652344 2.082031 C 30.007812 -0.289062 33.84375 -0.304688 36.21875 2.050781 Z M 36.21875 2.050781 " /><g transform="matrix(1.0075098,0,0,1.0032698,16.221436,16.077397)"><path fill-rule="nonzero" fill="rgb(100%, 100%, 100%)" fill-opacity="1" d="M 12.570312 1.035156 C 11.265625 1.035156 10.21875 2.070312 10.21875 3.355469 L 10.21875 10.320312 L 3.160156 10.320312 C 1.851562 10.320312 0.804688 11.359375 0.804688 12.644531 L 0.804688 19.609375 C 0.804688 20.898438 1.855469 21.929688 3.160156 21.929688 L 10.21875 21.929688 L 10.21875 28.898438 C 10.21875 30.1875 11.265625 31.21875 12.570312 31.21875 L 19.625 31.21875 C 20.933594 31.21875 21.976562 30.1875 21.976562 28.898438 L 21.976562 21.929688 L 29.039062 21.929688 C 30.34375 21.929688 31.390625 20.898438 31.390625 19.609375 L 31.390625 12.644531 C 31.390625 11.355469 30.34375 10.320312 29.039062 10.320312 L 21.976562 10.320312 L 21.976562 3.355469 C 21.976562 2.070312 20.929688 1.035156 19.625 1.035156 Z M 13.746094 4.515625 L 18.453125 4.515625 L 18.453125 13.804688 L 27.859375 13.804688 L 27.859375 18.449219 L 18.453125 18.449219 L 18.453125 27.738281 L 13.746094 27.738281 L 13.746094 18.449219 L 4.335938 18.449219 L 4.335938 13.804688 L 13.746094 13.804688 Z M 13.746094 4.515625 "/></g></svg>
