<svg width="64" height="64" viewBox="0 0 64 64" version="1.1"><defs><linearGradient id="linear-pattern-0" gradientUnits="userSpaceOnUse" x1="0" y1="0" x2="0" y2="1" gradientTransform="matrix(60, 0, 0, 56, 0, 4)"><stop offset="0" stop-color="#aaaa00" stop-opacity="1"/><stop offset="1" stop-color="#5c5c00" stop-opacity="1"/></linearGradient></defs><path fill="url(#linear-pattern-0)" fill-opacity="1" d="M 36.21875 2.050781 L 62.027344 27.605469 C 64.402344 29.957031 64.417969 33.785156 62.058594 36.15625 L 36.460938 61.917969 C 34.105469 64.289062 30.269531 64.304688 27.894531 61.949219 L 2.085938 36.394531 C -0.289062 34.042969 -0.304688 30.214844 2.050781 27.84375 L 27.652344 2.082031 C 30.007812 -0.289062 33.84375 -0.304688 36.21875 2.050781 Z M 36.21875 2.050781 " /><g transform="matrix(1.0075098,0,0,1.0032698,16.221436,16.077397)"><path fill-rule="evenodd" fill="rgb(100%, 100%, 100%)" fill-opacity="1" d="M 19.828125 5.289062 L 31.304688 5.289062 L 31.304688 28.28125 L 19.828125 28.28125 Z M 19.828125 7.4375 L 28.765625 7.4375 L 28.765625 9.078125 L 19.828125 16.757812 Z M 28.765625 11.273438 L 22.554688 16.484375 L 28.765625 21.421875 Z M 19.828125 18.726562 L 21.242188 17.632812 L 28.765625 23.890625 L 28.765625 26.085938 L 19.828125 26.085938 Z M 17.25 0.945312 C 11.746094 1.898438 6.234375 3.164062 0.734375 4.097656 C 0.734375 12.234375 0.726562 20.382812 0.734375 28.523438 C 6.210938 29.453125 11.6875 30.695312 17.152344 31.667969 L 18.789062 31.667969 L 18.789062 0.945312 Z M 15.671875 16.710938 C 15.671875 18.65625 15.171875 20.152344 14.179688 21.195312 C 13.191406 22.242188 11.765625 22.765625 9.914062 22.765625 C 8.0625 22.765625 6.640625 22.242188 5.648438 21.195312 C 4.65625 20.152344 4.160156 18.652344 4.160156 16.695312 C 4.160156 14.742188 4.65625 13.25 5.652344 12.21875 C 6.648438 11.1875 8.078125 10.671875 9.929688 10.671875 C 11.789062 10.671875 13.210938 11.191406 14.195312 12.230469 C 15.179688 13.269531 15.671875 14.765625 15.671875 16.710938 Z M 6.851562 16.710938 C 6.851562 18.027344 7.105469 19.015625 7.617188 19.679688 C 8.128906 20.34375 8.898438 20.679688 9.914062 20.679688 C 11.960938 20.679688 12.984375 19.355469 12.984375 16.710938 C 12.984375 14.066406 11.96875 12.742188 9.929688 12.742188 C 8.914062 12.742188 8.144531 13.078125 7.625 13.746094 C 7.109375 14.414062 6.851562 15.402344 6.851562 16.710938 Z M 6.851562 16.710938 "/></g></svg>
