<svg width="64" height="64" viewBox="0 0 64 64" version="1.1"><defs><linearGradient id="linear-pattern-0" gradientUnits="userSpaceOnUse" x1="0" y1="0" x2="0" y2="1" gradientTransform="matrix(60, 0, 0, 56, 0, 4)"><stop offset="0" stop-color="#008a97" stop-opacity="1"/><stop offset="1" stop-color="#00545c" stop-opacity="1"/></linearGradient></defs><path fill="url(#linear-pattern-0)" fill-opacity="1" d="M 36.21875 2.050781 L 62.027344 27.605469 C 64.402344 29.957031 64.417969 33.785156 62.058594 36.15625 L 36.460938 61.917969 C 34.105469 64.289062 30.269531 64.304688 27.894531 61.949219 L 2.085938 36.394531 C -0.289062 34.042969 -0.304688 30.214844 2.050781 27.84375 L 27.652344 2.082031 C 30.007812 -0.289062 33.84375 -0.304688 36.21875 2.050781 Z M 36.21875 2.050781 " /><g transform="matrix(1.0075098,0,0,1.0032698,16.221436,16.077397)"><path fill-rule="nonzero" fill="rgb(100%, 100%, 100%)" fill-opacity="1" d="M 16.195312 0.796875 C 14.789062 0.796875 13.460938 1.429688 12.566406 2.507812 C 6.351562 4.289062 2.023438 10.363281 2.011719 17.3125 L 0.828125 17.3125 L 0.828125 19.671875 L 2.011719 19.671875 L 2.011719 26.75 L 0.828125 26.75 L 0.828125 31.46875 L 6.742188 31.46875 L 6.742188 26.75 L 5.554688 26.75 L 5.554688 19.671875 L 6.742188 19.671875 L 6.742188 17.3125 L 5.554688 17.3125 C 5.554688 10.796875 10.320312 5.515625 16.195312 5.515625 C 22.070312 5.515625 26.828125 10.796875 26.828125 17.3125 L 25.648438 17.3125 L 25.648438 19.671875 L 26.828125 19.671875 L 26.828125 26.75 L 25.648438 26.75 L 25.648438 31.46875 L 31.554688 31.46875 L 31.554688 26.75 L 30.375 26.75 L 30.375 19.671875 L 31.554688 19.671875 L 31.554688 17.3125 L 30.375 17.3125 C 30.371094 10.351562 26.03125 4.265625 19.808594 2.496094 C 18.914062 1.421875 17.589844 0.800781 16.195312 0.800781 Z M 16.195312 0.796875 "/></g></svg>
