<svg width="64" height="64" viewBox="0 0 64 64" version="1.1"><defs><linearGradient id="linear-pattern-0" gradientUnits="userSpaceOnUse" x1="0" y1="0" x2="0" y2="1" gradientTransform="matrix(60, 0, 0, 56, 0, 4)"><stop offset="0" stop-color="#a67e50" stop-opacity="1"/><stop offset="1" stop-color="#644c30" stop-opacity="1"/></linearGradient></defs><path fill="url(#linear-pattern-0)" fill-opacity="1" d="M 36.21875 2.050781 L 62.027344 27.605469 C 64.402344 29.957031 64.417969 33.785156 62.058594 36.15625 L 36.460938 61.917969 C 34.105469 64.289062 30.269531 64.304688 27.894531 61.949219 L 2.085938 36.394531 C -0.289062 34.042969 -0.304688 30.214844 2.050781 27.84375 L 27.652344 2.082031 C 30.007812 -0.289062 33.84375 -0.304688 36.21875 2.050781 Z M 36.21875 2.050781 " /><g transform="matrix(1.0075098,0,0,1.0032698,16.221436,16.077397)"><path fill-rule="nonzero" fill="rgb(100%, 100%, 100%)" fill-opacity="1" d="M 10.324219 4.296875 C 9.3125 4.296875 8.765625 4.84375 8.109375 5.625 L 1.46875 13.617188 C 0.820312 14.398438 0.359375 15.082031 0.359375 16.28125 C 0.359375 17.476562 0.820312 18.15625 1.46875 18.945312 L 8.109375 26.933594 C 8.757812 27.710938 9.21875 28.265625 10.324219 28.265625 C 11.429688 28.265625 11.882812 27.710938 12.539062 26.933594 L 15.859375 22.9375 L 19.179688 26.933594 C 19.828125 27.710938 20.289062 28.265625 21.398438 28.265625 C 22.5 28.265625 22.957031 27.710938 23.609375 26.933594 L 30.25 18.945312 C 30.898438 18.164062 31.359375 17.609375 31.359375 16.28125 C 31.359375 14.945312 30.898438 14.402344 30.25 13.617188 L 23.609375 5.625 C 22.960938 4.84375 22.40625 4.296875 21.398438 4.296875 C 20.390625 4.296875 19.835938 4.84375 19.179688 5.625 L 15.859375 9.621094 L 12.539062 5.625 C 11.890625 4.84375 11.332031 4.296875 10.324219 4.296875 Z M 10.324219 4.296875 "/></g></svg>
