<svg width="64" height="64" viewBox="0 0 64 64" version="1.1"><defs><linearGradient id="linear-pattern-0" gradientUnits="userSpaceOnUse" x1="0" y1="0" x2="0" y2="1" gradientTransform="matrix(60, 0, 0, 56, 0, 4)"><stop offset="0" stop-color="#a67e50" stop-opacity="1"/><stop offset="1" stop-color="#644c30" stop-opacity="1"/></linearGradient></defs><path fill="url(#linear-pattern-0)" fill-opacity="1" d="M 36.21875 2.050781 L 62.027344 27.605469 C 64.402344 29.957031 64.417969 33.785156 62.058594 36.15625 L 36.460938 61.917969 C 34.105469 64.289062 30.269531 64.304688 27.894531 61.949219 L 2.085938 36.394531 C -0.289062 34.042969 -0.304688 30.214844 2.050781 27.84375 L 27.652344 2.082031 C 30.007812 -0.289062 33.84375 -0.304688 36.21875 2.050781 Z M 36.21875 2.050781 " /><g transform="matrix(1.0075098,0,0,1.0032698,16.221436,16.077397)"><path fill-rule="nonzero" fill="rgb(100%, 100%, 100%)" fill-opacity="1" d="M 10.351562 9.40625 L 10.351562 0 L 4.703125 0 L 4.703125 13.179688 C 4.703125 13.179688 4.703125 13.183594 4.703125 13.183594 L 4.703125 32 L 10.351562 32 L 10.351562 22.949219 C 12.015625 23.917969 13.945312 24.476562 16 24.476562 C 18.054688 24.476562 19.984375 23.917969 21.648438 22.949219 L 21.648438 24.46875 L 27.296875 24.46875 L 27.296875 0 L 21.648438 0 L 21.648438 13.175781 C 21.648438 16.351562 19.179688 18.824219 16 18.824219 C 12.820312 18.824219 10.351562 16.351562 10.351562 13.175781 Z M 10.351562 9.40625 "/></g></svg>
