<svg width="64" height="64" viewBox="0 0 64 64" version="1.1"><defs><linearGradient id="linear-pattern-0" gradientUnits="userSpaceOnUse" x1="0" y1="0" x2="0" y2="1" gradientTransform="matrix(60, 0, 0, 56, 0, 4)"><stop offset="0" stop-color="#aaaa00" stop-opacity="1"/><stop offset="1" stop-color="#5c5c00" stop-opacity="1"/></linearGradient></defs><path fill="url(#linear-pattern-0)" fill-opacity="1" d="M 36.21875 2.050781 L 62.027344 27.605469 C 64.402344 29.957031 64.417969 33.785156 62.058594 36.15625 L 36.460938 61.917969 C 34.105469 64.289062 30.269531 64.304688 27.894531 61.949219 L 2.085938 36.394531 C -0.289062 34.042969 -0.304688 30.214844 2.050781 27.84375 L 27.652344 2.082031 C 30.007812 -0.289062 33.84375 -0.304688 36.21875 2.050781 Z M 36.21875 2.050781 " /><g transform="matrix(1.0075098,0,0,1.0032698,16.221436,16.077397)"><path fill-rule="nonzero" fill="rgb(100%, 100%, 100%)" fill-opacity="1" d="M 29.773438 0.910156 C 23.179688 1.726562 16.546875 2.320312 9.96875 3.1875 C 8.957031 3.625 8.984375 4.734375 9.09375 5.558594 C 9.054688 11.320312 9.085938 17.078125 9.078125 22.835938 C 5.820312 22.601562 2.265625 24.03125 0.980469 26.664062 C 0.171875 28.378906 1.359375 30.546875 3.464844 31.085938 C 6.074219 31.9375 9.140625 31.167969 11.128906 29.585938 C 12.527344 28.421875 13.164062 26.726562 13.015625 25.085938 C 13.039062 20.816406 13.015625 16.554688 13.03125 12.289062 L 13.03125 9.84375 L 27.539062 8.011719 C 27.523438 11.882812 27.554688 15.757812 27.515625 19.632812 C 24.25 19.40625 20.667969 20.847656 19.417969 23.511719 C 18.65625 25.21875 19.851562 27.355469 21.9375 27.886719 C 24.601562 28.734375 27.703125 27.9375 29.6875 26.296875 C 31.023438 25.140625 31.601562 23.488281 31.476562 21.898438 C 31.519531 18.050781 31.445312 14.203125 31.5 10.351562 C 31.5 7.457031 31.546875 4.550781 31.375 1.652344 C 31.105469 1.144531 30.414062 0.871094 29.773438 0.910156 "/><path fill-rule="nonzero" fill="rgb(100%, 100%, 100%)" fill-opacity="1" d="M 29.773438 0.910156 C 23.179688 1.726562 16.546875 2.320312 9.96875 3.1875 C 8.957031 3.625 8.984375 4.734375 9.09375 5.558594 C 9.054688 11.320312 9.085938 17.078125 9.078125 22.835938 C 5.820312 22.601562 2.265625 24.03125 0.980469 26.664062 C 0.171875 28.378906 1.359375 30.546875 3.464844 31.085938 C 6.074219 31.9375 9.140625 31.167969 11.128906 29.585938 C 12.527344 28.421875 13.164062 26.726562 13.015625 25.085938 C 13.039062 20.816406 13.015625 16.554688 13.03125 12.289062 L 13.03125 9.84375 L 27.539062 8.011719 C 27.523438 11.882812 27.554688 15.757812 27.515625 19.632812 C 24.25 19.40625 20.667969 20.847656 19.417969 23.511719 C 18.65625 25.21875 19.851562 27.355469 21.9375 27.886719 C 24.601562 28.734375 27.703125 27.9375 29.6875 26.296875 C 31.023438 25.140625 31.601562 23.488281 31.476562 21.898438 C 31.519531 18.050781 31.445312 14.203125 31.5 10.351562 C 31.5 7.457031 31.546875 4.550781 31.375 1.652344 C 31.105469 1.144531 30.414062 0.871094 29.773438 0.910156 "/></g></svg>
