<svg width="64" height="64" viewBox="0 0 64 64" version="1.1"><defs><linearGradient id="linear-pattern-0" gradientUnits="userSpaceOnUse" x1="0" y1="0" x2="0" y2="1" gradientTransform="matrix(60, 0, 0, 56, 0, 4)"><stop offset="0" stop-color="#7795ab" stop-opacity="1"/><stop offset="1" stop-color="#3b4f5f" stop-opacity="1"/></linearGradient></defs><path fill="url(#linear-pattern-0)" fill-opacity="1" d="M 36.21875 2.050781 L 62.027344 27.605469 C 64.402344 29.957031 64.417969 33.785156 62.058594 36.15625 L 36.460938 61.917969 C 34.105469 64.289062 30.269531 64.304688 27.894531 61.949219 L 2.085938 36.394531 C -0.289062 34.042969 -0.304688 30.214844 2.050781 27.84375 L 27.652344 2.082031 C 30.007812 -0.289062 33.84375 -0.304688 36.21875 2.050781 Z M 36.21875 2.050781 " /><g transform="matrix(1.0075098,0,0,1.0032698,16.221436,16.077397)"><path fill-rule="nonzero" fill="rgb(100%, 100%, 100%)" fill-opacity="1" d="M 2.4375 0.726562 C 1.535156 0.710938 1.023438 1.089844 0.851562 1.914062 C 0.617188 3.035156 0.917969 3.8125 2.3125 5.664062 C 3.386719 7.085938 3.757812 7.757812 4.140625 8.964844 C 4.71875 10.765625 5.125 11.640625 5.746094 12.402344 L 6.210938 12.976562 L 5.847656 14.554688 C 4.921875 18.570312 6.054688 23.382812 7.925781 23.382812 C 8.558594 23.382812 9.261719 22.558594 9.398438 21.660156 C 9.460938 21.265625 9.613281 20.796875 9.734375 20.621094 C 9.933594 20.34375 10.007812 20.414062 10.378906 21.1875 C 10.613281 21.671875 11.1875 22.515625 11.65625 23.0625 C 12.59375 24.15625 14.515625 25.921875 14.632812 25.800781 C 14.675781 25.757812 14.242188 25.070312 13.664062 24.265625 C 13.09375 23.46875 12.019531 21.660156 11.289062 20.25 C 10.554688 18.84375 9.835938 17.648438 9.707031 17.59375 C 9.125 17.367188 8.339844 18.765625 8.117188 20.429688 C 7.886719 22.109375 7.136719 21.789062 6.648438 19.800781 C 6.25 18.203125 6.375 16.375 7.007812 14.4375 C 7.5625 12.742188 7.574219 12.828125 6.386719 10.753906 C 6 10.078125 5.445312 8.851562 5.15625 8.015625 C 4.617188 6.476562 4.164062 5.648438 3.03125 4.1875 C 2.226562 3.148438 2.179688 2.457031 2.914062 2.457031 C 3.699219 2.457031 4.617188 2.726562 5.707031 3.617188 C 6.664062 4.390625 6.8125 4.484375 8.0625 4.34375 C 9.257812 4.210938 9.492188 4.40625 10.570312 5.0625 C 13.101562 6.601562 15.460938 8.617188 16.664062 10.257812 C 17.125 10.890625 18.105469 12.726562 18.84375 14.335938 C 19.585938 15.945312 20.480469 17.882812 20.839844 18.640625 C 21.671875 20.386719 22.820312 21.492188 24.277344 21.96875 C 25.625 22.398438 26.601562 22.90625 27.492188 23.632812 C 28.195312 24.210938 28.195312 24.210938 27.75 24.339844 C 27.507812 24.40625 26.761719 24.523438 26.097656 24.601562 C 24.746094 24.746094 23.972656 25.226562 23.972656 25.914062 C 23.972656 26.1875 24.339844 26.703125 25.015625 27.367188 C 26.328125 28.660156 26.855469 29.046875 29.320312 30.503906 C 31.601562 31.851562 31.84375 31.917969 31.570312 31.164062 C 31.289062 30.382812 30.789062 29.890625 28.4375 28.070312 C 27.203125 27.113281 26.390625 26.367188 26.535156 26.320312 C 26.671875 26.273438 27.398438 26.1875 28.15625 26.117188 C 29.636719 25.984375 30.375 25.710938 30.460938 25.25 C 30.488281 25.085938 29.734375 24.171875 28.714844 23.140625 C 27.179688 21.59375 26.664062 21.207031 25.191406 20.476562 C 23.003906 19.390625 22.34375 18.640625 21.710938 16.515625 C 20.808594 13.46875 19.148438 10.679688 16.574219 7.890625 C 13.417969 4.46875 10.378906 2.363281 7.894531 2.648438 C 7.289062 2.71875 6.902344 2.53125 6.351562 2.078125 C 5.5 1.375 3.550781 0.75 2.4375 0.726562 M 7.539062 5.785156 C 7.441406 5.800781 7.347656 5.828125 7.246094 5.882812 C 6.832031 6.105469 6.84375 6.546875 7.265625 6.6875 C 7.453125 6.75 7.734375 7.136719 7.890625 7.546875 C 8.046875 7.960938 8.210938 8.304688 8.265625 8.304688 C 9.03125 8.304688 9.203125 6.933594 8.515625 6.28125 C 8.125 5.90625 7.828125 5.753906 7.539062 5.785156 "/></g></svg>
