<svg width="64" height="64" viewBox="0 0 64 64" version="1.1"><defs><linearGradient id="linear-pattern-0" gradientUnits="userSpaceOnUse" x1="0" y1="0" x2="0" y2="1" gradientTransform="matrix(60, 0, 0, 56, 0, 4)"><stop offset="0" stop-color="#d00068" stop-opacity="1"/><stop offset="1" stop-color="#6e0037" stop-opacity="1"/></linearGradient></defs><path fill="url(#linear-pattern-0)" fill-opacity="1" d="M 36.21875 2.050781 L 62.027344 27.605469 C 64.402344 29.957031 64.417969 33.785156 62.058594 36.15625 L 36.460938 61.917969 C 34.105469 64.289062 30.269531 64.304688 27.894531 61.949219 L 2.085938 36.394531 C -0.289062 34.042969 -0.304688 30.214844 2.050781 27.84375 L 27.652344 2.082031 C 30.007812 -0.289062 33.84375 -0.304688 36.21875 2.050781 Z M 36.21875 2.050781 " /><g transform="matrix(1.0075098,0,0,1.0032698,16.221436,16.077397)"><path fill-rule="nonzero" fill="rgb(100%, 100%, 100%)" fill-opacity="1" d="M 3.328125 1.921875 C 2.789062 1.933594 2.203125 2.082031 1.722656 2.503906 C 1.695312 2.527344 1.667969 2.554688 1.640625 2.578125 C 1.140625 3.109375 0.925781 3.914062 1.03125 4.546875 C 1.132812 5.179688 1.417969 5.65625 1.714844 6.082031 C 2.304688 6.941406 3.035156 7.695312 3.339844 8.203125 C 3.367188 8.25 3.398438 8.289062 3.429688 8.328125 C 4.179688 9.285156 4.609375 11.117188 5.570312 12.726562 C 5.585938 12.753906 5.601562 12.78125 5.617188 12.804688 C 5.9375 13.257812 6.015625 13.585938 6.003906 13.71875 C 5.648438 15.507812 5.441406 17.203125 5.578125 18.738281 C 5.714844 20.304688 6.234375 21.78125 7.433594 22.75 C 7.824219 23.0625 8.367188 23.101562 8.800781 22.84375 C 9.382812 22.5 9.582031 22.109375 9.8125 21.765625 C 10 21.492188 10.144531 21.28125 10.28125 21.09375 C 10.96875 22.164062 11.558594 22.949219 12.289062 23.757812 C 12.734375 24.25 13.492188 24.289062 13.984375 23.84375 C 14.476562 23.402344 14.515625 22.640625 14.070312 22.148438 C 13.351562 21.355469 12.867188 20.734375 12.171875 19.632812 C 12.164062 19.617188 12.152344 19.601562 12.140625 19.585938 C 11.695312 18.945312 11.007812 18.390625 10.179688 18.441406 C 9.351562 18.488281 8.890625 18.988281 8.570312 19.367188 C 8.433594 19.53125 8.359375 19.65625 8.253906 19.8125 C 8.121094 19.453125 8.015625 19.046875 7.96875 18.527344 C 7.863281 17.34375 8.027344 15.789062 8.371094 14.09375 C 8.378906 14.0625 8.382812 14.023438 8.386719 13.992188 C 8.5 12.972656 8.070312 12.117188 7.585938 11.425781 L 7.632812 11.5 C 7 10.4375 6.578125 8.484375 5.335938 6.882812 C 4.789062 6.007812 4.074219 5.277344 3.691406 4.71875 C 3.550781 4.515625 3.523438 4.425781 3.484375 4.328125 C 3.515625 4.328125 3.476562 4.328125 3.519531 4.332031 C 3.78125 4.367188 4.199219 4.507812 4.632812 4.710938 C 5.5 5.125 6.28125 5.691406 6.945312 6.023438 C 6.953125 6.027344 6.960938 6.03125 6.96875 6.03125 C 7.929688 6.488281 8.703125 6.339844 9.351562 6.398438 C 10 6.460938 10.644531 6.585938 11.671875 7.347656 C 11.671875 7.347656 11.671875 7.351562 11.671875 7.351562 C 13.359375 8.671875 14.851562 9.570312 16.464844 11.695312 C 17.839844 13.609375 18.8125 15.460938 21.039062 19.40625 C 21.050781 19.429688 21.066406 19.453125 21.082031 19.476562 C 21.578125 20.222656 22.332031 20.835938 23.273438 21.179688 C 24.183594 21.515625 25.195312 22.171875 26.257812 23.15625 C 26.214844 23.15625 26.191406 23.160156 26.148438 23.15625 C 26.140625 23.15625 26.132812 23.15625 26.125 23.15625 C 25.636719 23.148438 25.234375 23.171875 24.8125 23.296875 C 24.394531 23.421875 23.792969 23.773438 23.625 24.441406 C 23.453125 25.109375 23.734375 25.585938 23.964844 25.902344 C 24.191406 26.214844 24.453125 26.460938 24.765625 26.722656 C 26.261719 28.023438 27.871094 29.046875 29.132812 29.878906 C 29.6875 30.242188 30.429688 30.09375 30.796875 29.539062 C 31.164062 28.984375 31.007812 28.242188 30.457031 27.875 C 29.445312 27.210938 28.3125 26.390625 27.226562 25.554688 C 27.546875 25.554688 27.875 25.578125 28.179688 25.546875 C 28.515625 25.515625 28.824219 25.535156 29.320312 25.171875 C 29.570312 24.992188 29.875 24.578125 29.898438 24.121094 C 29.921875 23.664062 29.734375 23.351562 29.578125 23.148438 C 27.695312 20.585938 25.648438 19.496094 24.101562 18.929688 C 24.101562 18.929688 24.097656 18.929688 24.097656 18.929688 C 23.609375 18.75 23.316406 18.492188 23.089844 18.15625 C 20.90625 14.28125 19.890625 12.339844 18.40625 10.277344 C 18.398438 10.269531 18.390625 10.261719 18.386719 10.253906 C 16.523438 7.789062 14.6875 6.667969 13.128906 5.441406 C 13.121094 5.4375 13.109375 5.429688 13.101562 5.421875 C 11.742188 4.414062 10.5 4.09375 9.570312 4.007812 C 8.644531 3.921875 8.160156 3.9375 7.996094 3.863281 C 7.835938 3.78125 6.761719 3.066406 5.65625 2.542969 C 5.101562 2.28125 4.507812 2.046875 3.851562 1.953125 C 3.6875 1.929688 3.507812 1.921875 3.328125 1.921875 Z M 9.054688 7.429688 C 8.5625 7.421875 8.117188 7.714844 7.929688 8.171875 C 7.679688 8.785156 7.96875 9.484375 8.585938 9.738281 C 9.0625 9.9375 9.085938 9.894531 9.164062 10.273438 C 9.296875 10.921875 9.929688 11.34375 10.578125 11.210938 C 11.226562 11.078125 11.648438 10.445312 11.515625 9.796875 C 11.269531 8.589844 10.273438 7.835938 9.496094 7.515625 C 9.359375 7.460938 9.207031 7.429688 9.054688 7.429688 Z M 9.054688 7.429688 "/></g></svg>
