<svg width="64" height="64" viewBox="0 0 64 64" version="1.1"><defs><linearGradient id="linear-pattern-0" gradientUnits="userSpaceOnUse" x1="0" y1="0" x2="0" y2="1" gradientTransform="matrix(60, 0, 0, 56, 0, 4)"><stop offset="0" stop-color="#d00068" stop-opacity="1"/><stop offset="1" stop-color="#6e0037" stop-opacity="1"/></linearGradient></defs><path fill="url(#linear-pattern-0)" fill-opacity="1" d="M 36.21875 2.050781 L 62.027344 27.605469 C 64.402344 29.957031 64.417969 33.785156 62.058594 36.15625 L 36.460938 61.917969 C 34.105469 64.289062 30.269531 64.304688 27.894531 61.949219 L 2.085938 36.394531 C -0.289062 34.042969 -0.304688 30.214844 2.050781 27.84375 L 27.652344 2.082031 C 30.007812 -0.289062 33.84375 -0.304688 36.21875 2.050781 Z M 36.21875 2.050781 " /><g transform="matrix(1.0075098,0,0,1.0032698,16.221436,16.077397)"><path fill-rule="nonzero" fill="rgb(100%, 100%, 100%)" fill-opacity="1" d="M 2.316406 16.535156 L 2.480469 17.625 L 0.296875 17.953125 L 0.132812 16.859375 C 0.046875 16.273438 0 15.671875 0 15.070312 C 0 14.140625 0.101562 13.21875 0.296875 12.308594 C 0.484375 11.40625 0.757812 10.519531 1.101562 9.664062 C 1.78125 7.984375 2.710938 6.414062 3.859375 5.015625 C 4.40625 4.34375 4.996094 3.722656 5.632812 3.148438 C 6.234375 2.601562 6.882812 2.109375 7.570312 1.683594 C 8.210938 1.28125 8.898438 0.953125 9.613281 0.707031 C 10.296875 0.472656 11.003906 0.347656 11.726562 0.34375 C 12.128906 0.339844 12.53125 0.382812 12.921875 0.476562 C 13.320312 0.566406 13.695312 0.710938 14.054688 0.898438 C 14.621094 1.1875 15.136719 1.5625 15.585938 2.007812 C 16.007812 2.429688 16.355469 2.914062 16.625 3.445312 C 16.882812 3.957031 17.0625 4.503906 17.171875 5.070312 C 17.28125 5.632812 17.335938 6.207031 17.328125 6.78125 C 17.328125 7.203125 17.308594 7.621094 17.265625 8.039062 C 17.21875 8.46875 17.160156 8.894531 17.082031 9.320312 C 16.871094 10.472656 16.59375 11.609375 16.25 12.734375 C 15.1875 12.695312 14.117188 12.773438 13.074219 12.964844 C 12.390625 13.085938 11.71875 13.273438 11.066406 13.515625 C 10.488281 13.734375 9.929688 14 9.40625 14.324219 C 8.929688 14.617188 8.484375 14.957031 8.074219 15.34375 C 7.328125 16.046875 6.734375 16.898438 6.332031 17.84375 C 5.949219 18.75 5.753906 19.730469 5.757812 20.71875 C 5.757812 21.683594 5.9375 22.640625 6.289062 23.539062 C 6.65625 24.488281 7.203125 25.359375 7.890625 26.109375 C 8.652344 26.941406 9.5625 27.625 10.570312 28.132812 C 11.140625 28.417969 11.726562 28.65625 12.335938 28.84375 C 13.007812 29.046875 13.695312 29.195312 14.394531 29.289062 C 15.171875 29.398438 15.953125 29.449219 16.734375 29.453125 C 17.492188 29.453125 18.25 29.398438 18.996094 29.289062 C 19.695312 29.1875 20.382812 29.035156 21.058594 28.835938 C 21.679688 28.644531 22.289062 28.40625 22.882812 28.117188 C 23.421875 27.851562 23.9375 27.539062 24.429688 27.1875 C 24.875 26.859375 25.289062 26.492188 25.664062 26.082031 C 26.011719 25.703125 26.3125 25.296875 26.570312 24.851562 C 26.804688 24.4375 26.992188 23.992188 27.117188 23.53125 C 27.242188 23.078125 27.308594 22.609375 27.308594 22.140625 C 27.300781 21.40625 27.160156 20.6875 26.890625 20.007812 C 26.734375 19.609375 26.546875 19.234375 26.328125 18.875 C 26.078125 18.46875 25.804688 18.078125 25.5 17.710938 C 25.148438 17.296875 24.773438 16.898438 24.375 16.53125 C 23.921875 16.109375 23.4375 15.71875 22.941406 15.351562 C 22.371094 14.933594 21.78125 14.546875 21.175781 14.1875 C 20.289062 13.664062 19.371094 13.1875 18.429688 12.765625 C 18.417969 12 18.476562 11.242188 18.601562 10.484375 C 18.6875 9.960938 18.804688 9.4375 18.945312 8.925781 C 19.21875 7.898438 19.601562 6.898438 20.078125 5.941406 C 20.304688 5.492188 20.554688 5.0625 20.835938 4.648438 C 21.101562 4.257812 21.398438 3.894531 21.726562 3.5625 C 22.039062 3.234375 22.398438 2.964844 22.796875 2.75 C 23.210938 2.523438 23.671875 2.398438 24.140625 2.394531 C 24.335938 2.390625 24.523438 2.414062 24.710938 2.453125 C 25.269531 2.578125 25.808594 2.78125 26.3125 3.058594 C 26.816406 3.335938 27.289062 3.671875 27.722656 4.054688 C 28.171875 4.449219 28.578125 4.886719 28.949219 5.355469 C 29.335938 5.84375 29.679688 6.359375 29.992188 6.898438 C 30.632812 8.027344 31.128906 9.234375 31.464844 10.492188 C 31.8125 11.777344 31.996094 13.101562 32 14.4375 C 32.007812 15.546875 31.859375 16.65625 31.570312 17.726562 L 31.277344 18.792969 L 29.148438 18.210938 L 29.4375 17.144531 C 29.679688 16.265625 29.800781 15.359375 29.792969 14.445312 C 29.789062 13.304688 29.632812 12.167969 29.335938 11.070312 C 29.046875 9.992188 28.621094 8.957031 28.070312 7.992188 C 27.820312 7.546875 27.53125 7.125 27.214844 6.722656 C 26.929688 6.355469 26.605469 6.015625 26.257812 5.703125 C 25.945312 5.429688 25.609375 5.191406 25.25 4.992188 C 24.929688 4.820312 24.585938 4.6875 24.234375 4.609375 C 24.210938 4.601562 24.1875 4.601562 24.164062 4.601562 C 24.054688 4.605469 23.945312 4.632812 23.851562 4.6875 C 23.648438 4.796875 23.460938 4.9375 23.304688 5.101562 C 23.070312 5.34375 22.855469 5.601562 22.667969 5.882812 C 22.441406 6.21875 22.234375 6.570312 22.054688 6.929688 C 21.640625 7.753906 21.3125 8.617188 21.074219 9.503906 C 20.953125 9.945312 20.851562 10.398438 20.78125 10.851562 C 20.75 11.035156 20.722656 11.222656 20.699219 11.40625 C 21.242188 11.6875 21.773438 11.976562 22.300781 12.289062 C 22.96875 12.679688 23.617188 13.109375 24.242188 13.570312 C 24.8125 13.984375 25.355469 14.433594 25.871094 14.910156 C 26.34375 15.34375 26.78125 15.808594 27.191406 16.300781 C 27.570312 16.75 27.910156 17.230469 28.214844 17.730469 C 28.492188 18.195312 28.738281 18.683594 28.9375 19.1875 C 29.3125 20.125 29.507812 21.125 29.515625 22.132812 C 29.515625 22.804688 29.421875 23.46875 29.25 24.117188 C 29.070312 24.757812 28.8125 25.375 28.484375 25.949219 C 28.148438 26.53125 27.746094 27.082031 27.289062 27.578125 C 26.816406 28.09375 26.292969 28.558594 25.726562 28.96875 C 25.132812 29.402344 24.507812 29.777344 23.84375 30.101562 C 23.15625 30.4375 22.433594 30.71875 21.695312 30.945312 C 20.914062 31.179688 20.117188 31.359375 19.3125 31.476562 C 18.457031 31.597656 17.59375 31.65625 16.734375 31.65625 C 15.851562 31.65625 14.96875 31.597656 14.097656 31.476562 C 13.28125 31.367188 12.480469 31.195312 11.695312 30.953125 C 10.96875 30.734375 10.257812 30.445312 9.578125 30.105469 C 8.332031 29.476562 7.203125 28.632812 6.261719 27.601562 C 5.390625 26.648438 4.699219 25.546875 4.230469 24.34375 C 3.78125 23.1875 3.546875 21.960938 3.546875 20.71875 C 3.546875 19.4375 3.800781 18.167969 4.296875 16.984375 C 4.820312 15.757812 5.589844 14.652344 6.5625 13.734375 C 7.078125 13.25 7.648438 12.816406 8.25 12.445312 C 8.898438 12.046875 9.582031 11.710938 10.296875 11.445312 C 11.070312 11.15625 11.867188 10.9375 12.679688 10.792969 C 13.304688 10.679688 13.929688 10.601562 14.5625 10.558594 C 14.695312 10.015625 14.8125 9.476562 14.910156 8.925781 C 14.976562 8.554688 15.03125 8.183594 15.070312 7.8125 C 15.101562 7.46875 15.121094 7.117188 15.121094 6.773438 C 15.125 6.339844 15.085938 5.910156 15.007812 5.484375 C 14.933594 5.117188 14.816406 4.765625 14.648438 4.429688 C 14.492188 4.117188 14.28125 3.828125 14.03125 3.574219 C 13.738281 3.285156 13.40625 3.042969 13.035156 2.855469 C 12.84375 2.75 12.636719 2.671875 12.421875 2.625 C 12.195312 2.570312 11.96875 2.546875 11.742188 2.546875 C 11.257812 2.554688 10.785156 2.636719 10.335938 2.796875 C 9.773438 2.984375 9.242188 3.242188 8.742188 3.554688 C 8.164062 3.914062 7.617188 4.324219 7.117188 4.78125 C 6.5625 5.28125 6.042969 5.828125 5.570312 6.40625 C 4.5625 7.640625 3.746094 9.015625 3.148438 10.492188 C 2.851562 11.226562 2.617188 11.992188 2.453125 12.765625 C 2.296875 13.523438 2.210938 14.296875 2.207031 15.078125 C 2.207031 15.566406 2.242188 16.054688 2.316406 16.535156 Z M 2.316406 16.535156 "/></g></svg>
