<svg width="64" height="64" viewBox="0 0 64 64" version="1.1"><defs><linearGradient id="linear-pattern-0" gradientUnits="userSpaceOnUse" x1="0" y1="0" x2="0" y2="1" gradientTransform="matrix(60, 0, 0, 56, 0, 4)"><stop offset="0" stop-color="#8900e4" stop-opacity="1"/><stop offset="1" stop-color="#42006e" stop-opacity="1"/></linearGradient></defs><path fill="url(#linear-pattern-0)" fill-opacity="1" d="M 36.21875 2.050781 L 62.027344 27.605469 C 64.402344 29.957031 64.417969 33.785156 62.058594 36.15625 L 36.460938 61.917969 C 34.105469 64.289062 30.269531 64.304688 27.894531 61.949219 L 2.085938 36.394531 C -0.289062 34.042969 -0.304688 30.214844 2.050781 27.84375 L 27.652344 2.082031 C 30.007812 -0.289062 33.84375 -0.304688 36.21875 2.050781 Z M 36.21875 2.050781 " /><g transform="matrix(1.0075098,0,0,1.0032698,16.221436,16.077397)"><path fill-rule="nonzero" fill="rgb(100%, 100%, 100%)" fill-opacity="1" d="M 8.375 1.070312 C 4.101562 1.070312 0.894531 5.050781 0.894531 9.03125 C 0.894531 13.007812 4.101562 16.984375 8.375 16.984375 C 12.117188 16.984375 14.328125 14.382812 15.855469 11.085938 C 17.382812 14.382812 19.59375 16.984375 23.335938 16.984375 C 27.609375 16.984375 30.816406 13.007812 30.816406 9.03125 C 30.816406 5.050781 27.609375 1.070312 23.335938 1.070312 C 19.59375 1.070312 17.382812 3.671875 15.855469 6.972656 C 14.328125 3.671875 12.117188 1.070312 8.375 1.070312 Z M 8.375 3.34375 C 11.582031 3.34375 13.203125 6.359375 14.585938 9.03125 C 13.203125 11.703125 11.582031 14.710938 8.375 14.710938 C 5.171875 14.710938 3.03125 11.871094 3.03125 9.03125 C 3.03125 6.1875 5.171875 3.34375 8.375 3.34375 Z M 23.335938 3.34375 C 26.539062 3.34375 28.679688 6.1875 28.679688 9.03125 C 28.679688 11.871094 26.539062 14.710938 23.335938 14.710938 C 20.128906 14.710938 18.507812 11.703125 17.125 9.03125 C 18.507812 6.359375 20.128906 3.34375 23.335938 3.34375 Z M 23.335938 3.34375 "/><path fill-rule="nonzero" fill="rgb(100%, 100%, 100%)" fill-opacity="1" d="M 24.75 26.507812 L 20.476562 28.78125 L 24.75 31.058594 L 27.957031 29.921875 L 29.027344 28.78125 L 27.957031 27.648438 Z M 24.75 26.507812 "/><path fill-rule="nonzero" fill="rgb(100%, 100%, 100%)" fill-opacity="1" d="M 2.847656 26.535156 L 24.65625 26.535156 L 22.976562 27.671875 L 24.65625 28.804688 L 22.976562 29.945312 L 24.65625 31.082031 L 2.847656 31.082031 L 1.171875 28.804688 Z M 2.847656 26.535156 "/><path fill-rule="nonzero" fill="rgb(100%, 100%, 100%)" fill-opacity="1" d="M 28.21875 27.5625 L 28.21875 29.839844 L 31.425781 28.703125 Z M 28.21875 27.5625 "/></g></svg>
