<svg width="64" height="64" viewBox="0 0 64 64" version="1.1"><defs><linearGradient id="linear-pattern-0" gradientUnits="userSpaceOnUse" x1="0" y1="0" x2="0" y2="1" gradientTransform="matrix(60, 0, 0, 56, 0, 4)"><stop offset="0" stop-color="#c10000" stop-opacity="1"/><stop offset="1" stop-color="#5f0000" stop-opacity="1"/></linearGradient></defs><path fill="url(#linear-pattern-0)" fill-opacity="1" d="M 36.21875 2.050781 L 62.027344 27.605469 C 64.402344 29.957031 64.417969 33.785156 62.058594 36.15625 L 36.460938 61.917969 C 34.105469 64.289062 30.269531 64.304688 27.894531 61.949219 L 2.085938 36.394531 C -0.289062 34.042969 -0.304688 30.214844 2.050781 27.84375 L 27.652344 2.082031 C 30.007812 -0.289062 33.84375 -0.304688 36.21875 2.050781 Z M 36.21875 2.050781 " /><g transform="matrix(1.0075098,0,0,1.0032698,16.221436,16.077397)"><path fill-rule="nonzero" fill="rgb(100%, 100%, 100%)" fill-opacity="1" d="M 17.335938 3.566406 C 16.703125 4.855469 15.507812 5.367188 14.015625 5.308594 C 11.882812 5.226562 9.835938 6.394531 8.570312 8.054688 C 7.761719 9.113281 6.742188 10.453125 5.234375 10.226562 C 3.945312 10.035156 2.464844 10.921875 3.746094 12.105469 C 4.640625 12.933594 6 12.867188 6.816406 13.710938 C 8.359375 15.304688 10.660156 15.921875 12.859375 16.117188 C 13.203125 18.308594 14.460938 21 16.898438 21.320312 C 19.101562 21.609375 17.265625 19.164062 17.460938 17.988281 C 17.765625 16.179688 19.238281 17.566406 20.121094 17.945312 C 21.261719 18.4375 22.445312 19.15625 22.996094 20.242188 C 23.964844 22.160156 20.992188 21.128906 20.1875 21.917969 C 19.203125 22.878906 20.234375 24.550781 21.28125 25.179688 C 22.429688 25.867188 23.390625 26.734375 23.78125 28.050781 C 24.125 29.195312 24.351562 32.3125 25.976562 31.386719 C 27.523438 30.507812 27.699219 28.34375 27.898438 26.675781 C 28.09375 25.046875 27.953125 23.367188 27.234375 21.851562 C 29.09375 18.070312 28.15625 13.421875 25.472656 10.234375 C 24.542969 9.128906 23.464844 8.125 22.203125 7.386719 C 23.0625 6.429688 23.265625 5.015625 22.695312 3.929688 C 22.023438 2.640625 24.71875 0.824219 22.492188 0.644531 C 20.4375 0.476562 18.589844 1.859375 17.433594 3.453125 C 16.316406 4.984375 17.398438 3.492188 17.382812 3.511719 C 17.367188 3.53125 17.878906 2.46875 17.335938 3.566406 Z M 17.335938 3.566406 "/></g></svg>
