<svg width="64" height="64" viewBox="0 0 64 64" version="1.1"><defs><linearGradient id="linear-pattern-0" gradientUnits="userSpaceOnUse" x1="0" y1="0" x2="0" y2="1" gradientTransform="matrix(60, 0, 0, 56, 0, 4)"><stop offset="0" stop-color="#00983a" stop-opacity="1"/><stop offset="1" stop-color="#004a1c" stop-opacity="1"/></linearGradient></defs><path fill="url(#linear-pattern-0)" fill-opacity="1" d="M 36.21875 2.050781 L 62.027344 27.605469 C 64.402344 29.957031 64.417969 33.785156 62.058594 36.15625 L 36.460938 61.917969 C 34.105469 64.289062 30.269531 64.304688 27.894531 61.949219 L 2.085938 36.394531 C -0.289062 34.042969 -0.304688 30.214844 2.050781 27.84375 L 27.652344 2.082031 C 30.007812 -0.289062 33.84375 -0.304688 36.21875 2.050781 Z M 36.21875 2.050781 " /><g transform="matrix(1.0075098,0,0,1.0032698,16.221436,16.077397)"><path fill-rule="nonzero" fill="rgb(100%, 100%, 100%)" fill-opacity="1" d="M 12.574219 20.117188 C 11.460938 20.042969 10.554688 19.726562 9.820312 19.160156 C 9.5 18.90625 9.140625 18.503906 8.929688 18.148438 C 8.882812 18.066406 8.816406 17.984375 8.804688 17.972656 L 8.804688 19.945312 L 5.671875 19.945312 L 5.664062 17.671875 C 5.65625 15.308594 5.65625 15.195312 5.585938 14.910156 C 5.457031 14.390625 4.992188 14.191406 4.507812 14.191406 C 3.9375 14.179688 3.515625 14.40625 3.265625 14.933594 C 3.160156 15.214844 3.164062 15.0625 3.160156 17.609375 L 3.15625 19.945312 L 0.0078125 19.945312 C -0.0390625 17.800781 0.0546875 15.648438 -0.03125 13.507812 C -0.0664062 13.15625 -0.136719 12.871094 -0.289062 12.460938 L -0.367188 12.234375 L 2.691406 12.246094 L 2.769531 12.40625 C 2.816406 12.5 2.859375 12.625 2.875 12.703125 C 2.890625 12.78125 2.910156 12.84375 2.917969 12.84375 C 2.921875 12.84375 3.03125 12.777344 3.148438 12.695312 C 3.625 12.378906 4.101562 12.203125 4.714844 12.109375 C 5.039062 12.0625 5.851562 12.070312 6.1875 12.125 C 6.945312 12.238281 7.554688 12.5 8.023438 12.90625 C 8.367188 13.203125 8.613281 13.671875 8.722656 14.210938 L 8.757812 14.40625 L 8.84375 14.253906 C 9 13.957031 9.179688 13.703125 9.4375 13.445312 C 10.1875 12.667969 11.21875 12.210938 12.5625 12.070312 C 12.878906 12.035156 13.691406 12.039062 14.015625 12.078125 C 14.695312 12.15625 15.25 12.316406 15.757812 12.578125 C 16.164062 12.789062 16.460938 13.007812 16.773438 13.328125 C 17.066406 13.625 17.328125 14 17.496094 14.359375 L 17.554688 14.484375 L 17.554688 14.121094 C 17.554688 13.367188 17.515625 12.945312 17.398438 12.507812 L 17.328125 12.226562 L 20.421875 12.25 L 20.460938 12.378906 C 20.523438 12.585938 20.570312 12.835938 20.585938 13.054688 L 20.597656 13.257812 L 20.707031 13.105469 C 21.078125 12.609375 21.527344 12.300781 22.09375 12.15625 C 22.371094 12.085938 22.617188 12.066406 22.996094 12.078125 C 23.308594 12.085938 23.515625 12.113281 23.878906 12.195312 L 23.972656 12.21875 C 23.972656 12.523438 23.972656 12.832031 23.972656 13.132812 C 23.976562 13.132812 24.058594 13.09375 24.128906 13.039062 C 25.304688 12.203125 26.984375 11.859375 28.582031 12.132812 C 29.460938 12.28125 30.289062 12.625 30.914062 13.09375 C 32.003906 13.90625 32.539062 15.136719 32.40625 16.507812 C 32.3125 17.449219 31.875 18.289062 31.140625 18.914062 C 30.179688 19.734375 28.796875 20.171875 27.289062 20.125 C 26.304688 20.101562 25.472656 19.898438 24.703125 19.496094 C 24.078125 19.171875 23.546875 18.703125 23.144531 18.125 C 22.445312 17.070312 22.351562 15.648438 22.902344 14.46875 C 22.945312 14.375 22.984375 14.292969 22.984375 14.289062 C 22.671875 14.1875 22.335938 14.1875 22.015625 14.257812 C 21.820312 14.316406 21.695312 14.378906 21.523438 14.507812 C 21.109375 14.8125 20.875 15.265625 20.769531 15.921875 C 20.71875 16.265625 20.710938 16.601562 20.710938 18.269531 L 20.710938 19.945312 L 17.5625 19.945312 L 17.5625 18.070312 L 17.472656 18.226562 C 17.335938 18.460938 17.171875 18.664062 16.960938 18.875 C 16.21875 19.613281 15.15625 20.023438 13.742188 20.117188 C 13.445312 20.136719 12.871094 20.136719 12.574219 20.117188 Z M 14.890625 17.53125 L 17.570312 17.578125 L 17.570312 16.703125 L 11.488281 16.703125 L 11.5 16.820312 C 11.507812 16.882812 11.53125 17.007812 11.554688 17.089844 C 11.703125 17.679688 12.148438 18.042969 12.859375 18.15625 C 13.664062 18.230469 14.335938 18.195312 14.890625 17.53125 M 28.320312 17.980469 C 28.84375 17.664062 29.15625 17.054688 29.21875 16.273438 C 29.257812 15.707031 29.117188 15.105469 28.835938 14.6875 C 28.742188 14.554688 28.546875 14.351562 28.425781 14.265625 C 28.007812 13.980469 27.492188 13.945312 27.007812 14.050781 C 26.257812 14.28125 25.800781 14.980469 25.761719 15.960938 C 25.734375 16.671875 25.929688 17.28125 26.328125 17.695312 C 26.578125 17.953125 26.804688 18.078125 27.152344 18.15625 C 27.554688 18.21875 27.960938 18.167969 28.320312 17.980469 M 14.636719 15.003906 C 14.664062 14.976562 14.566406 14.636719 14.484375 14.484375 C 14.40625 14.335938 14.203125 14.148438 14.003906 14.054688 C 13.429688 13.78125 12.566406 13.832031 12.089844 14.171875 C 11.84375 14.347656 11.652344 14.621094 11.550781 14.949219 L 11.527344 15.023438 L 13.074219 15.023438 C 13.929688 15.015625 14.632812 15.007812 14.636719 15.003906 Z M 14.636719 15.003906 "/></g></svg>
