<svg width="64" height="64" viewBox="0 0 64 64" version="1.1"><defs><linearGradient id="linear-pattern-0" gradientUnits="userSpaceOnUse" x1="0" y1="0" x2="0" y2="1" gradientTransform="matrix(60, 0, 0, 56, 0, 4)"><stop offset="0" stop-color="#3067ff" stop-opacity="1"/><stop offset="1" stop-color="#002ca6" stop-opacity="1"/></linearGradient></defs><path fill="url(#linear-pattern-0)" fill-opacity="1" d="M 36.21875 2.050781 L 62.027344 27.605469 C 64.402344 29.957031 64.417969 33.785156 62.058594 36.15625 L 36.460938 61.917969 C 34.105469 64.289062 30.269531 64.304688 27.894531 61.949219 L 2.085938 36.394531 C -0.289062 34.042969 -0.304688 30.214844 2.050781 27.84375 L 27.652344 2.082031 C 30.007812 -0.289062 33.84375 -0.304688 36.21875 2.050781 Z M 36.21875 2.050781 " /><g transform="matrix(1.0075098,0,0,1.0032698,16.221436,16.077397)"><path fill-rule="nonzero" fill="rgb(100%, 100%, 100%)" fill-opacity="1" d="M 16.082031 0.640625 L 0.914062 31.183594 L 31.25 31.183594 Z M 16.082031 5.730469 L 20.539062 14.640625 L 11.625 14.640625 Z M 11.207031 17.183594 L 20.957031 17.183594 L 16.082031 27.367188 Z M 9.582031 18.902344 L 14.21875 28.640625 L 4.65625 28.640625 Z M 22.582031 18.902344 L 27.507812 28.640625 L 17.945312 28.640625 Z M 22.582031 18.902344 "/></g></svg>
