<svg width="64" height="64" viewBox="0 0 64 64" version="1.1"><defs><linearGradient id="linear-pattern-0" gradientUnits="userSpaceOnUse" x1="0" y1="0" x2="0" y2="1" gradientTransform="matrix(60, 0, 0, 56, 0, 4)"><stop offset="0" stop-color="#8900e4" stop-opacity="1"/><stop offset="1" stop-color="#42006e" stop-opacity="1"/></linearGradient></defs><path fill="url(#linear-pattern-0)" fill-opacity="1" d="M 36.21875 2.050781 L 62.027344 27.605469 C 64.402344 29.957031 64.417969 33.785156 62.058594 36.15625 L 36.460938 61.917969 C 34.105469 64.289062 30.269531 64.304688 27.894531 61.949219 L 2.085938 36.394531 C -0.289062 34.042969 -0.304688 30.214844 2.050781 27.84375 L 27.652344 2.082031 C 30.007812 -0.289062 33.84375 -0.304688 36.21875 2.050781 Z M 36.21875 2.050781 " /><g transform="matrix(1.0075098,0,0,1.0032698,16.221436,16.077397)"><path fill-rule="nonzero" fill="rgb(100%, 100%, 100%)" fill-opacity="1" d="M 4.273438 31.730469 C 4.429688 31.734375 4.574219 31.761719 4.738281 31.769531 C 5.636719 31.824219 6.71875 31.824219 7.773438 31.839844 L 7.824219 20.917969 C 7.84375 16.820312 7.605469 11.050781 8.570312 8.308594 C 10.179688 5.132812 13.585938 3.421875 17.21875 3.96875 C 20.828125 4.515625 23.574219 7.296875 24.03125 10.875 C 24.128906 11.660156 24.15625 16.382812 24.089844 22.191406 L 23.980469 31.84375 C 25.144531 31.828125 26.3125 31.820312 27.289062 31.765625 C 27.457031 31.757812 27.59375 31.742188 27.753906 31.726562 L 27.679688 21.078125 C 27.59375 9.328125 27.601562 9.429688 26.523438 7.125 C 25.453125 4.851562 23.429688 2.742188 21.269531 1.671875 C 18.789062 0.433594 15.21875 0.125 12.585938 0.914062 C 9.246094 1.921875 6.65625 4.171875 5.203125 7.320312 C 4.296875 9.28125 4.273438 9.625 4.273438 21.148438 Z M 4.273438 31.730469 "/></g></svg>
