<svg width="64" height="64" viewBox="0 0 64 64" version="1.1"><defs><linearGradient id="linear-pattern-0" gradientUnits="userSpaceOnUse" x1="0" y1="0" x2="0" y2="1" gradientTransform="matrix(60, 0, 0, 56, 0, 4)"><stop offset="0" stop-color="#0288cf" stop-opacity="1"/><stop offset="1" stop-color="#01486e" stop-opacity="1"/></linearGradient></defs><path fill="url(#linear-pattern-0)" fill-opacity="1" d="M 36.21875 2.050781 L 62.027344 27.605469 C 64.402344 29.957031 64.417969 33.785156 62.058594 36.15625 L 36.460938 61.917969 C 34.105469 64.289062 30.269531 64.304688 27.894531 61.949219 L 2.085938 36.394531 C -0.289062 34.042969 -0.304688 30.214844 2.050781 27.84375 L 27.652344 2.082031 C 30.007812 -0.289062 33.84375 -0.304688 36.21875 2.050781 Z M 36.21875 2.050781 " /><g transform="matrix(1.0075098,0,0,1.0032698,16.221436,16.077397)"><path fill-rule="evenodd" fill="rgb(100%, 100%, 100%)" fill-opacity="1" d="M 17.832031 14.359375 L 17.832031 21.164062 C 17.832031 21.726562 18.25 22.183594 18.769531 22.183594 L 22.144531 22.183594 C 22.664062 22.183594 23.082031 21.726562 23.082031 21.164062 L 23.082031 14.359375 L 24.109375 14.359375 C 24.445312 14.359375 24.757812 14.1875 24.925781 13.914062 C 25.09375 13.632812 25.09375 13.292969 24.925781 13.015625 L 23.09375 10 L 21.273438 6.984375 C 21.101562 6.710938 20.792969 6.539062 20.457031 6.539062 C 20.117188 6.539062 19.8125 6.710938 19.644531 6.984375 L 17.8125 10 L 15.992188 13.015625 C 15.914062 13.144531 15.867188 13.289062 15.867188 13.4375 C 15.859375 13.679688 15.953125 13.914062 16.128906 14.085938 C 16.304688 14.265625 16.546875 14.359375 16.804688 14.359375 Z M 9.304688 18.625 L 9.304688 11.820312 C 9.304688 11.257812 9.71875 10.804688 10.242188 10.804688 L 13.613281 10.804688 C 14.132812 10.804688 14.550781 11.257812 14.550781 11.820312 L 14.550781 18.625 L 15.578125 18.625 C 15.914062 18.625 16.226562 18.796875 16.390625 19.074219 C 16.5625 19.351562 16.5625 19.695312 16.390625 19.96875 L 12.742188 26 C 12.570312 26.277344 12.261719 26.445312 11.925781 26.445312 C 11.589844 26.445312 11.28125 26.277344 11.109375 26 L 7.460938 19.96875 C 7.382812 19.84375 7.335938 19.695312 7.335938 19.550781 C 7.328125 19.304688 7.421875 19.070312 7.601562 18.898438 C 7.773438 18.726562 8.019531 18.625 8.273438 18.625 Z M 9.304688 18.625 "/></g></svg>
