<svg width="64" height="64" viewBox="0 0 64 64" version="1.1"><defs><linearGradient id="linear-pattern-0" gradientUnits="userSpaceOnUse" x1="0" y1="0" x2="0" y2="1" gradientTransform="matrix(60, 0, 0, 56, 0, 4)"><stop offset="0" stop-color="#ec7700" stop-opacity="1"/><stop offset="1" stop-color="#773c00" stop-opacity="1"/></linearGradient></defs><path fill="url(#linear-pattern-0)" fill-opacity="1" d="M 36.21875 2.050781 L 62.027344 27.605469 C 64.402344 29.957031 64.417969 33.785156 62.058594 36.15625 L 36.460938 61.917969 C 34.105469 64.289062 30.269531 64.304688 27.894531 61.949219 L 2.085938 36.394531 C -0.289062 34.042969 -0.304688 30.214844 2.050781 27.84375 L 27.652344 2.082031 C 30.007812 -0.289062 33.84375 -0.304688 36.21875 2.050781 Z M 36.21875 2.050781 " /><g transform="matrix(1.0075098,0,0,1.0032698,16.221436,16.077397)"><path fill-rule="evenodd" fill="rgb(100%, 100%, 100%)" fill-opacity="1" d="M 14.546875 19.492188 C 14.664062 19.148438 14.429688 18.808594 14.023438 18.808594 L 7.148438 18.808594 C 6.742188 18.808594 6.65625 18.5 6.914062 18.226562 L 21.601562 0.71875 C 21.863281 0.445312 21.953125 0.492188 21.8125 0.828125 L 18.585938 13.054688 C 18.4375 13.390625 18.648438 13.59375 19.054688 13.59375 L 25.945312 13.59375 C 26.351562 13.59375 26.480469 13.890625 26.234375 14.179688 L 11.511719 31.675781 C 11.261719 31.960938 11.152344 31.90625 11.269531 31.5625 Z M 14.546875 19.492188 "/></g></svg>
