<svg width="64" height="64" viewBox="0 0 64 64" version="1.1"><defs><linearGradient id="linear-pattern-0" gradientUnits="userSpaceOnUse" x1="0" y1="0" x2="0" y2="1" gradientTransform="matrix(60, 0, 0, 56, 0, 4)"><stop offset="0" stop-color="#00983a" stop-opacity="1"/><stop offset="1" stop-color="#004a1c" stop-opacity="1"/></linearGradient></defs><path fill="url(#linear-pattern-0)" fill-opacity="1" d="M 36.21875 2.050781 L 62.027344 27.605469 C 64.402344 29.957031 64.417969 33.785156 62.058594 36.15625 L 36.460938 61.917969 C 34.105469 64.289062 30.269531 64.304688 27.894531 61.949219 L 2.085938 36.394531 C -0.289062 34.042969 -0.304688 30.214844 2.050781 27.84375 L 27.652344 2.082031 C 30.007812 -0.289062 33.84375 -0.304688 36.21875 2.050781 Z M 36.21875 2.050781 " /><g transform="matrix(1.0075098,0,0,1.0032698,16.221436,16.077397)"><path fill-rule="nonzero" fill="rgb(100%, 100%, 100%)" fill-opacity="1" d="M 4.0625 11.753906 L 27.914062 16.816406 L 27.914062 20.378906 L 26.960938 21.585938 C 26.960938 21.585938 20.296875 20.632812 20.15625 20.632812 L 19.03125 23.492188 L 5.21875 23.492188 L 3.949219 21.585938 Z M 4.0625 11.753906 "/><path fill-rule="nonzero" fill="rgb(100%, 100%, 100%)" fill-opacity="1" d="M 4.617188 4.425781 L 2.726562 6.332031 L 2.726562 21.582031 L 4.617188 23.492188 L 17.023438 23.492188 L 17.023438 21.445312 L 4.765625 21.445312 L 4.765625 6.46875 L 27.3125 6.46875 L 27.3125 8.238281 L 27.703125 8.238281 L 29.273438 9.75 L 29.273438 6.332031 L 27.382812 4.425781 Z M 19.632812 9.191406 L 17.703125 11.15625 L 17.703125 24.925781 L 19.632812 26.894531 L 27.34375 26.894531 L 29.273438 24.925781 L 29.273438 11.15625 L 27.34375 9.191406 Z M 19.742188 11.234375 L 27.234375 11.234375 L 27.234375 20.085938 L 19.742188 20.085938 Z M 19.742188 22.128906 L 27.234375 22.128906 L 27.234375 24.851562 L 19.742188 24.851562 Z M 22.46875 22.808594 L 22.46875 24.171875 L 24.507812 24.171875 L 24.507812 22.808594 Z M 0 24.851562 L 1.882812 26.894531 L 18.433594 26.894531 L 16.941406 25.273438 L 16.941406 24.851562 Z M 30.117188 24.851562 L 30.117188 25.273438 L 28.625 26.894531 L 30.117188 26.894531 L 32 24.851562 Z M 30.117188 24.851562 "/></g></svg>
