<svg width="64" height="64" viewBox="0 0 64 64" version="1.1"><defs><linearGradient id="linear-pattern-0" gradientUnits="userSpaceOnUse" x1="0" y1="0" x2="0" y2="1" gradientTransform="matrix(60, 0, 0, 56, 0, 4)"><stop offset="0" stop-color="#8900e4" stop-opacity="1"/><stop offset="1" stop-color="#42006e" stop-opacity="1"/></linearGradient></defs><path fill="url(#linear-pattern-0)" fill-opacity="1" d="M 36.21875 2.050781 L 62.027344 27.605469 C 64.402344 29.957031 64.417969 33.785156 62.058594 36.15625 L 36.460938 61.917969 C 34.105469 64.289062 30.269531 64.304688 27.894531 61.949219 L 2.085938 36.394531 C -0.289062 34.042969 -0.304688 30.214844 2.050781 27.84375 L 27.652344 2.082031 C 30.007812 -0.289062 33.84375 -0.304688 36.21875 2.050781 Z M 36.21875 2.050781 " /><g transform="matrix(1.0075098,0,0,1.0032698,16.221436,16.077397)"><path fill-rule="nonzero" fill="rgb(100%, 100%, 100%)" fill-opacity="1" d="M 16.078125 0.964844 C 7.554688 0.960938 0.640625 7.820312 0.640625 16.265625 C 0.640625 24.710938 7.554688 31.5625 16.078125 31.5625 C 24.601562 31.5625 31.515625 24.710938 31.515625 16.265625 C 31.515625 12.5625 30.148438 8.992188 27.6875 6.207031 L 24.777344 9.09375 C 26.476562 11.113281 27.402344 13.652344 27.402344 16.273438 C 27.402344 22.476562 22.335938 27.492188 16.078125 27.492188 C 9.820312 27.492188 4.757812 22.476562 4.757812 16.273438 C 4.757812 10.070312 9.820312 5.054688 16.078125 5.054688 C 18.722656 5.054688 21.289062 5.980469 23.3125 7.664062 L 26.238281 4.769531 C 23.429688 2.328125 19.816406 0.972656 16.078125 0.972656 M 16.078125 6.074219 C 10.398438 6.070312 5.785156 10.644531 5.785156 16.273438 C 5.785156 21.90625 10.398438 26.472656 16.078125 26.472656 C 21.761719 26.472656 26.375 21.90625 26.375 16.273438 C 26.371094 13.917969 25.546875 11.640625 24.046875 9.828125 L 18.867188 14.960938 C 19.066406 15.367188 19.171875 15.820312 19.171875 16.273438 C 19.171875 17.96875 17.789062 19.335938 16.085938 19.335938 C 14.375 19.335938 12.996094 17.96875 12.996094 16.273438 C 12.996094 14.578125 14.375 13.214844 16.085938 13.214844 C 16.542969 13.214844 17 13.320312 17.414062 13.515625 L 22.589844 8.382812 C 20.757812 6.894531 18.453125 6.078125 16.085938 6.078125 "/></g></svg>
