<svg width="64" height="64" viewBox="0 0 64 64" version="1.1"><defs><linearGradient id="linear-pattern-0" gradientUnits="userSpaceOnUse" x1="0" y1="0" x2="0" y2="1" gradientTransform="matrix(60, 0, 0, 56, 0, 4)"><stop offset="0" stop-color="#c10000" stop-opacity="1"/><stop offset="1" stop-color="#5f0000" stop-opacity="1"/></linearGradient></defs><path fill="url(#linear-pattern-0)" fill-opacity="1" d="M 36.21875 2.050781 L 62.027344 27.605469 C 64.402344 29.957031 64.417969 33.785156 62.058594 36.15625 L 36.460938 61.917969 C 34.105469 64.289062 30.269531 64.304688 27.894531 61.949219 L 2.085938 36.394531 C -0.289062 34.042969 -0.304688 30.214844 2.050781 27.84375 L 27.652344 2.082031 C 30.007812 -0.289062 33.84375 -0.304688 36.21875 2.050781 Z M 36.21875 2.050781 " /><g transform="matrix(1.0075098,0,0,1.0032698,16.221436,16.077397)"><path fill-rule="evenodd" fill="rgb(100%, 100%, 100%)" fill-opacity="1" d="M 12.578125 26.464844 C 14.097656 26 15.921875 24.71875 16.78125 23.515625 L 17.0625 23.117188 L 16.707031 22.046875 C 15.414062 18.140625 17.761719 14.199219 21.78125 13.519531 C 24.703125 13.027344 27.769531 14.816406 28.828125 17.628906 C 29.078125 18.296875 29.085938 18.304688 29.007812 17.792969 C 28.765625 16.269531 28.007812 14.867188 26.785156 13.65625 C 25.507812 12.398438 24.023438 11.679688 22.171875 11.429688 C 21.601562 11.355469 21.546875 11.378906 21.328125 11.742188 C 21 12.296875 20.042969 13.234375 19.332031 13.6875 C 17.421875 14.90625 14.476562 14.90625 12.5625 13.6875 C 10.402344 12.308594 9.179688 9.671875 9.578125 7.242188 C 9.792969 5.914062 10.375 4.734375 11.308594 3.75 C 11.984375 3.03125 12.027344 2.953125 11.640625 3.179688 C 10.984375 3.554688 9.445312 5.226562 9.007812 6.035156 C 8.507812 6.972656 8.09375 8.628906 8.101562 9.71875 C 8.101562 10.664062 8.347656 11.910156 8.710938 12.8125 C 8.921875 13.339844 8.945312 13.359375 9.726562 13.445312 C 10.167969 13.496094 10.867188 13.652344 11.273438 13.792969 C 14.90625 15.042969 16.621094 19.234375 14.921875 22.703125 C 13.761719 25.070312 11.078125 26.59375 8.570312 26.308594 C 7.550781 26.195312 7.65625 26.332031 8.789062 26.589844 C 9.796875 26.820312 11.621094 26.757812 12.578125 26.464844 Z M 16 1.71875 C 23.898438 1.71875 30.28125 8.101562 30.28125 16 C 30.28125 23.898438 23.898438 30.28125 16 30.28125 C 8.101562 30.28125 1.71875 23.898438 1.71875 16 C 1.71875 8.101562 8.101562 1.71875 16 1.71875 Z M 16 0 C 7.171875 0 0 7.171875 0 16 C 0 24.828125 7.171875 32 16 32 C 24.828125 32 32 24.828125 32 16 C 32 7.171875 24.828125 0 16 0 Z M 16 0 "/></g></svg>
