<svg width="64" height="64" viewBox="0 0 64 64" version="1.1"><defs><linearGradient id="linear-pattern-0" gradientUnits="userSpaceOnUse" x1="0" y1="0" x2="0" y2="1" gradientTransform="matrix(60, 0, 0, 56, 0, 4)"><stop offset="0" stop-color="#8900e4" stop-opacity="1"/><stop offset="1" stop-color="#42006e" stop-opacity="1"/></linearGradient></defs><path fill="url(#linear-pattern-0)" fill-opacity="1" d="M 36.21875 2.050781 L 62.027344 27.605469 C 64.402344 29.957031 64.417969 33.785156 62.058594 36.15625 L 36.460938 61.917969 C 34.105469 64.289062 30.269531 64.304688 27.894531 61.949219 L 2.085938 36.394531 C -0.289062 34.042969 -0.304688 30.214844 2.050781 27.84375 L 27.652344 2.082031 C 30.007812 -0.289062 33.84375 -0.304688 36.21875 2.050781 Z M 36.21875 2.050781 " /><g transform="matrix(1.0075098,0,0,1.0032698,16.221436,16.077397)"><path fill-rule="nonzero" fill="rgb(100%, 100%, 100%)" fill-opacity="1" d="M 4.441406 0.640625 C 2.976562 0.660156 1.796875 1.90625 1.796875 3.445312 L 1.796875 25.898438 C 1.796875 27.445312 2.992188 28.703125 4.472656 28.703125 L 7.9375 28.703125 C 8.398438 26.710938 9.234375 24.808594 9.714844 22.835938 C 12.007812 20.019531 14.617188 17.460938 17.117188 14.847656 C 18.792969 13.1875 20.351562 11.371094 22.023438 9.71875 C 23.015625 8.75 23.859375 7.230469 25.375 7.167969 C 25.429688 7.164062 25.476562 7.164062 25.523438 7.164062 C 25.953125 7.164062 26.375 7.25 26.773438 7.394531 L 26.773438 3.445312 C 26.773438 1.90625 25.601562 0.660156 24.132812 0.640625 L 4.441406 0.640625 M 10.453125 2.882812 C 10.742188 2.882812 10.992188 2.941406 11.203125 3.0625 C 11.414062 3.183594 11.59375 3.359375 11.734375 3.59375 C 11.875 3.820312 11.984375 4.097656 12.054688 4.433594 C 12.125 4.765625 12.160156 5.140625 12.160156 5.566406 C 12.160156 5.984375 12.125 6.359375 12.0625 6.695312 C 12 7.023438 11.902344 7.300781 11.765625 7.53125 C 11.628906 7.757812 11.453125 7.9375 11.234375 8.058594 C 11.023438 8.179688 10.761719 8.242188 10.453125 8.242188 C 10.167969 8.242188 9.914062 8.179688 9.703125 8.058594 C 9.492188 7.9375 9.316406 7.757812 9.175781 7.53125 C 9.035156 7.300781 8.929688 7.023438 8.859375 6.695312 C 8.789062 6.359375 8.757812 5.984375 8.757812 5.566406 C 8.757812 5.148438 8.789062 4.773438 8.851562 4.441406 C 8.914062 4.109375 9.011719 3.824219 9.148438 3.59375 C 9.28125 3.367188 9.457031 3.1875 9.671875 3.066406 C 9.890625 2.945312 10.148438 2.882812 10.453125 2.882812 M 18.117188 2.882812 C 18.398438 2.882812 18.652344 2.941406 18.863281 3.0625 C 19.078125 3.183594 19.25 3.359375 19.390625 3.59375 C 19.539062 3.820312 19.644531 4.097656 19.714844 4.433594 C 19.785156 4.765625 19.820312 5.140625 19.820312 5.566406 C 19.820312 5.984375 19.785156 6.359375 19.722656 6.695312 C 19.664062 7.023438 19.5625 7.300781 19.421875 7.53125 C 19.289062 7.757812 19.113281 7.9375 18.898438 8.058594 C 18.679688 8.179688 18.421875 8.242188 18.117188 8.242188 C 17.828125 8.242188 17.578125 8.179688 17.363281 8.058594 C 17.148438 7.9375 16.976562 7.757812 16.835938 7.53125 C 16.695312 7.300781 16.589844 7.023438 16.515625 6.695312 C 16.453125 6.359375 16.417969 5.984375 16.417969 5.566406 C 16.417969 5.148438 16.445312 4.773438 16.507812 4.441406 C 16.570312 4.109375 16.671875 3.824219 16.804688 3.59375 C 16.945312 3.367188 17.117188 3.1875 17.332031 3.066406 C 17.546875 2.945312 17.808594 2.882812 18.117188 2.882812 M 21.945312 2.882812 C 22.230469 2.882812 22.484375 2.941406 22.691406 3.0625 C 22.90625 3.183594 23.082031 3.359375 23.222656 3.59375 C 23.367188 3.820312 23.476562 4.097656 23.542969 4.433594 C 23.617188 4.765625 23.648438 5.140625 23.648438 5.566406 C 23.648438 5.734375 23.648438 5.890625 23.632812 6.039062 C 23.207031 6.28125 22.8125 6.59375 22.4375 6.945312 C 22.445312 6.929688 22.449219 6.921875 22.453125 6.90625 C 22.554688 6.609375 22.605469 6.164062 22.605469 5.566406 C 22.605469 4.96875 22.554688 4.523438 22.453125 4.226562 C 22.351562 3.921875 22.179688 3.773438 21.945312 3.773438 C 21.828125 3.773438 21.726562 3.8125 21.640625 3.882812 C 21.558594 3.960938 21.492188 4.074219 21.4375 4.226562 C 21.386719 4.375 21.351562 4.5625 21.328125 4.789062 C 21.304688 5.007812 21.292969 5.269531 21.292969 5.566406 C 21.292969 6.15625 21.339844 6.601562 21.4375 6.90625 C 21.539062 7.203125 21.703125 7.351562 21.945312 7.351562 C 21.976562 7.351562 22 7.351562 22.023438 7.347656 C 21.78125 7.597656 21.546875 7.859375 21.3125 8.121094 C 21.273438 8.101562 21.234375 8.078125 21.195312 8.058594 C 20.980469 7.9375 20.804688 7.757812 20.664062 7.53125 C 20.527344 7.300781 20.421875 7.023438 20.347656 6.695312 C 20.28125 6.359375 20.25 5.984375 20.25 5.566406 C 20.25 5.148438 20.277344 4.773438 20.335938 4.441406 C 20.402344 4.109375 20.503906 3.824219 20.640625 3.59375 C 20.773438 3.367188 20.945312 3.1875 21.164062 3.066406 C 21.382812 2.945312 21.640625 2.882812 21.945312 2.882812 M 6.625 2.964844 L 7.492188 2.964844 L 7.492188 8.171875 L 6.441406 8.171875 L 6.441406 4.9375 C 6.441406 4.851562 6.445312 4.757812 6.445312 4.667969 C 6.449219 4.574219 6.453125 4.476562 6.457031 4.382812 C 6.460938 4.289062 6.460938 4.195312 6.46875 4.121094 C 6.453125 4.132812 6.4375 4.15625 6.410156 4.1875 L 6.320312 4.28125 C 6.28125 4.3125 6.25 4.351562 6.214844 4.386719 C 6.179688 4.421875 6.140625 4.453125 6.109375 4.484375 L 5.539062 4.960938 L 5.027344 4.300781 L 6.625 2.964844 M 14.289062 2.964844 L 15.148438 2.964844 L 15.148438 8.171875 L 14.101562 8.171875 L 14.101562 4.9375 C 14.101562 4.851562 14.101562 4.757812 14.105469 4.667969 C 14.109375 4.574219 14.117188 4.476562 14.117188 4.382812 C 14.121094 4.289062 14.125 4.203125 14.125 4.121094 C 14.117188 4.132812 14.097656 4.15625 14.070312 4.1875 L 13.976562 4.28125 C 13.945312 4.3125 13.910156 4.351562 13.875 4.386719 C 13.835938 4.421875 13.800781 4.453125 13.765625 4.484375 L 13.195312 4.960938 L 12.6875 4.300781 L 14.289062 2.964844 M 10.457031 3.773438 C 10.335938 3.773438 10.234375 3.8125 10.152344 3.882812 C 10.070312 3.960938 10 4.078125 9.949219 4.226562 C 9.894531 4.375 9.859375 4.5625 9.839844 4.789062 C 9.8125 5.007812 9.804688 5.269531 9.804688 5.566406 C 9.804688 6.15625 9.851562 6.601562 9.949219 6.90625 C 10.046875 7.203125 10.214844 7.351562 10.457031 7.351562 C 10.695312 7.351562 10.859375 7.203125 10.964844 6.90625 C 11.066406 6.609375 11.117188 6.164062 11.117188 5.566406 C 11.117188 4.96875 11.066406 4.523438 10.964844 4.226562 C 10.859375 3.925781 10.695312 3.773438 10.457031 3.773438 M 18.117188 3.773438 C 17.996094 3.773438 17.894531 3.8125 17.8125 3.882812 C 17.730469 3.960938 17.664062 4.078125 17.609375 4.226562 C 17.554688 4.375 17.523438 4.5625 17.5 4.789062 C 17.476562 5.007812 17.464844 5.269531 17.464844 5.566406 C 17.464844 6.15625 17.507812 6.601562 17.609375 6.90625 C 17.707031 7.203125 17.875 7.351562 18.117188 7.351562 C 18.351562 7.351562 18.523438 7.203125 18.625 6.90625 C 18.726562 6.609375 18.78125 6.164062 18.78125 5.566406 C 18.78125 4.96875 18.726562 4.523438 18.625 4.226562 C 18.523438 3.925781 18.351562 3.773438 18.117188 3.773438 M 6.625 11.992188 C 6.910156 11.992188 7.160156 12.054688 7.375 12.175781 C 7.585938 12.296875 7.761719 12.472656 7.90625 12.703125 C 8.046875 12.933594 8.15625 13.210938 8.226562 13.546875 C 8.296875 13.875 8.332031 14.257812 8.332031 14.679688 C 8.332031 15.097656 8.296875 15.476562 8.234375 15.804688 C 8.171875 16.132812 8.070312 16.410156 7.9375 16.640625 C 7.800781 16.875 7.625 17.050781 7.40625 17.171875 C 7.191406 17.289062 6.933594 17.351562 6.625 17.351562 C 6.335938 17.351562 6.085938 17.289062 5.875 17.171875 C 5.664062 17.050781 5.484375 16.875 5.34375 16.640625 C 5.203125 16.410156 5.101562 16.132812 5.03125 15.804688 C 4.960938 15.476562 4.929688 15.097656 4.929688 14.679688 C 4.929688 14.257812 4.960938 13.882812 5.023438 13.550781 C 5.085938 13.21875 5.1875 12.9375 5.320312 12.707031 C 5.457031 12.476562 5.628906 12.296875 5.84375 12.179688 C 6.058594 12.054688 6.320312 11.992188 6.625 11.992188 M 14.289062 11.992188 C 14.570312 11.992188 14.820312 12.054688 15.035156 12.175781 C 15.25 12.296875 15.421875 12.472656 15.566406 12.703125 C 15.710938 12.933594 15.8125 13.210938 15.886719 13.546875 C 15.898438 13.625 15.914062 13.703125 15.929688 13.789062 C 15.601562 14.125 15.269531 14.460938 14.945312 14.796875 C 14.945312 14.757812 14.949219 14.71875 14.949219 14.679688 C 14.949219 14.085938 14.898438 13.632812 14.796875 13.335938 C 14.691406 13.035156 14.523438 12.882812 14.289062 12.882812 C 14.164062 12.882812 14.0625 12.921875 13.984375 13 C 13.898438 13.074219 13.832031 13.1875 13.78125 13.335938 C 13.726562 13.484375 13.6875 13.671875 13.671875 13.898438 C 13.644531 14.121094 13.636719 14.382812 13.636719 14.679688 C 13.636719 15.265625 13.679688 15.710938 13.777344 16.007812 C 13.539062 16.25 13.304688 16.492188 13.074219 16.742188 C 13.046875 16.707031 13.027344 16.675781 13.007812 16.640625 C 12.867188 16.410156 12.757812 16.132812 12.6875 15.804688 C 12.621094 15.476562 12.589844 15.097656 12.589844 14.679688 C 12.589844 14.257812 12.617188 13.882812 12.679688 13.550781 C 12.746094 13.21875 12.84375 12.9375 12.980469 12.707031 C 13.117188 12.476562 13.289062 12.304688 13.507812 12.179688 C 13.71875 12.054688 13.976562 11.992188 14.289062 11.992188 M 10.457031 12.078125 L 11.320312 12.078125 L 11.320312 17.28125 L 10.273438 17.28125 L 10.273438 14.046875 C 10.273438 13.960938 10.273438 13.871094 10.273438 13.78125 C 10.28125 13.683594 10.285156 13.589844 10.289062 13.492188 C 10.289062 13.398438 10.292969 13.308594 10.296875 13.230469 C 10.285156 13.246094 10.265625 13.269531 10.242188 13.296875 L 10.148438 13.390625 C 10.113281 13.429688 10.078125 13.460938 10.042969 13.5 C 10.007812 13.53125 9.972656 13.5625 9.9375 13.59375 L 9.367188 14.070312 L 8.859375 13.414062 L 10.457031 12.078125 M 6.625 12.882812 C 6.507812 12.882812 6.402344 12.921875 6.320312 13 C 6.242188 13.074219 6.171875 13.1875 6.117188 13.335938 C 6.0625 13.484375 6.03125 13.671875 6.007812 13.898438 C 5.984375 14.125 5.976562 14.382812 5.976562 14.679688 C 5.976562 15.273438 6.023438 15.71875 6.117188 16.015625 C 6.21875 16.316406 6.382812 16.464844 6.625 16.464844 C 6.859375 16.464844 7.03125 16.316406 7.132812 16.019531 C 7.234375 15.726562 7.289062 15.273438 7.289062 14.679688 C 7.289062 14.085938 7.234375 13.636719 7.132812 13.335938 C 7.03125 13.035156 6.859375 12.882812 6.625 12.882812 M 6.625 21.1875 L 7.492188 21.1875 L 7.492188 24.882812 C 7.339844 25.390625 7.1875 25.898438 7.015625 26.390625 L 6.441406 26.390625 L 6.441406 23.15625 C 6.441406 23.070312 6.445312 22.980469 6.445312 22.890625 C 6.449219 22.796875 6.453125 22.699219 6.457031 22.605469 C 6.460938 22.507812 6.460938 22.421875 6.46875 22.34375 C 6.453125 22.359375 6.4375 22.378906 6.410156 22.40625 L 6.320312 22.503906 C 6.28125 22.539062 6.25 22.570312 6.214844 22.609375 C 6.179688 22.640625 6.140625 22.671875 6.109375 22.703125 L 5.539062 23.183594 L 5.027344 22.523438 L 6.625 21.1875 "/><path fill-rule="nonzero" fill="rgb(100%, 100%, 100%)" fill-opacity="1" d="M 25.457031 8.78125 C 25.195312 8.792969 24.96875 8.882812 24.8125 9.046875 L 24.796875 9.0625 L 23.53125 10.394531 L 28.960938 16.085938 L 30.210938 14.769531 L 30.234375 14.75 C 30.238281 14.75 30.238281 14.742188 30.242188 14.742188 C 30.828125 14.105469 30.378906 12.625 29.226562 11.414062 L 27.992188 10.117188 C 27.195312 9.28125 26.269531 8.796875 25.578125 8.78125 C 25.539062 8.78125 25.496094 8.777344 25.460938 8.78125 L 25.457031 8.78125 M 22.828125 11.132812 L 21.484375 12.542969 L 26.914062 18.234375 L 28.257812 16.820312 L 22.828125 11.132812 M 20.65625 13.414062 L 12.453125 22.007812 L 11.445312 23.0625 L 11.1875 23.332031 L 9.140625 30.050781 C 9.070312 30.410156 9.175781 30.78125 9.414062 31.019531 C 9.632812 31.195312 9.910156 31.234375 10.160156 31.125 L 16.664062 28.976562 L 16.875 28.75 L 17.851562 27.726562 L 26.082031 19.101562 L 20.65625 13.414062 M 12.621094 24.3125 C 12.628906 24.3125 12.632812 24.3125 12.648438 24.3125 C 12.710938 24.3125 12.765625 24.34375 12.8125 24.386719 L 13.289062 24.890625 L 15.070312 24.792969 C 15.128906 24.789062 15.1875 24.8125 15.234375 24.851562 C 15.289062 24.902344 15.316406 24.976562 15.3125 25.046875 L 15.226562 27.082031 L 15.578125 27.453125 C 15.632812 27.515625 15.660156 27.601562 15.640625 27.6875 C 15.617188 27.769531 15.554688 27.835938 15.472656 27.859375 L 12.40625 28.71875 C 12.328125 28.742188 12.242188 28.71875 12.179688 28.65625 L 11.585938 28.039062 C 11.523438 27.972656 11.5 27.882812 11.523438 27.796875 L 12.421875 24.492188 C 12.445312 24.394531 12.523438 24.328125 12.621094 24.3125 M 17.613281 28.636719 L 17.554688 28.703125 L 17.613281 28.703125 Z M 17.613281 28.636719 "/><path fill-rule="nonzero" fill="rgb(100%, 100%, 100%)" fill-opacity="1" d="M 26.773438 20.664062 C 24.253906 23.296875 21.71875 25.929688 19.210938 28.578125 C 19.210938 28.617188 19.207031 28.65625 19.203125 28.703125 L 24.105469 28.703125 C 25.585938 28.703125 26.773438 27.453125 26.773438 25.898438 L 26.773438 20.664062 "/></g></svg>
