<svg width="64" height="64" viewBox="0 0 64 64" version="1.1"><defs><linearGradient id="linear-pattern-0" gradientUnits="userSpaceOnUse" x1="0" y1="0" x2="0" y2="1" gradientTransform="matrix(60, 0, 0, 56, 0, 4)"><stop offset="0" stop-color="#aaaa00" stop-opacity="1"/><stop offset="1" stop-color="#5c5c00" stop-opacity="1"/></linearGradient></defs><path fill="url(#linear-pattern-0)" fill-opacity="1" d="M 36.21875 2.050781 L 62.027344 27.605469 C 64.402344 29.957031 64.417969 33.785156 62.058594 36.15625 L 36.460938 61.917969 C 34.105469 64.289062 30.269531 64.304688 27.894531 61.949219 L 2.085938 36.394531 C -0.289062 34.042969 -0.304688 30.214844 2.050781 27.84375 L 27.652344 2.082031 C 30.007812 -0.289062 33.84375 -0.304688 36.21875 2.050781 Z M 36.21875 2.050781 " /><g transform="matrix(1.0075098,0,0,1.0032698,16.221436,16.077397)"><path fill-rule="evenodd" fill="rgb(100%, 100%, 100%)" fill-opacity="1" d="M 17.328125 9.96875 C 15.804688 9.683594 14.234375 9.945312 12.882812 10.699219 C 12.164062 11.101562 11.535156 11.625 11.015625 12.25 L 6.359375 7.667969 C 7.3125 6.613281 8.4375 5.710938 9.699219 5.007812 C 12.378906 3.507812 15.5 2.996094 18.515625 3.554688 C 21.539062 4.117188 24.265625 5.71875 26.226562 8.078125 C 26.652344 8.59375 27.039062 9.132812 27.375 9.695312 C 28.605469 11.734375 29.265625 14.078125 29.265625 16.484375 L 32.117188 16.484375 L 25.871094 22.847656 L 19.625 16.484375 L 22.742188 16.484375 C 22.742188 14.9375 22.203125 13.4375 21.210938 12.25 C 20.976562 11.960938 20.71875 11.703125 20.445312 11.460938 C 19.5625 10.703125 18.484375 10.183594 17.328125 9.96875 Z M 21.03125 20.933594 L 21.03125 20.929688 L 25.867188 25.304688 L 25.863281 25.304688 C 24.25 27.085938 22.195312 28.382812 19.914062 29.070312 C 19.285156 29.261719 18.636719 29.40625 17.976562 29.5 C 14.9375 29.9375 11.84375 29.292969 9.226562 27.6875 C 6.609375 26.078125 4.640625 23.601562 3.65625 20.695312 C 3.195312 19.328125 2.96875 17.90625 2.96875 16.484375 L 0.117188 16.484375 L 6.359375 10.125 L 12.601562 16.484375 L 9.484375 16.484375 C 9.484375 17.203125 9.601562 17.917969 9.835938 18.609375 C 10.328125 20.074219 11.324219 21.320312 12.640625 22.132812 C 13.648438 22.75 14.789062 23.085938 15.957031 23.109375 C 16.320312 23.121094 16.6875 23.101562 17.054688 23.046875 C 18.585938 22.828125 19.992188 22.078125 21.03125 20.933594 Z M 21.03125 20.933594 "/></g></svg>
