<svg width="64" height="64" viewBox="0 0 64 64" version="1.1"><defs><linearGradient id="linear-pattern-0" gradientUnits="userSpaceOnUse" x1="0" y1="0" x2="0" y2="1" gradientTransform="matrix(60, 0, 0, 56, 0, 4)"><stop offset="0" stop-color="#008a97" stop-opacity="1"/><stop offset="1" stop-color="#00545c" stop-opacity="1"/></linearGradient></defs><path fill="url(#linear-pattern-0)" fill-opacity="1" d="M 36.21875 2.050781 L 62.027344 27.605469 C 64.402344 29.957031 64.417969 33.785156 62.058594 36.15625 L 36.460938 61.917969 C 34.105469 64.289062 30.269531 64.304688 27.894531 61.949219 L 2.085938 36.394531 C -0.289062 34.042969 -0.304688 30.214844 2.050781 27.84375 L 27.652344 2.082031 C 30.007812 -0.289062 33.84375 -0.304688 36.21875 2.050781 Z M 36.21875 2.050781 " /><g transform="matrix(1.0075098,0,0,1.0032698,16.221436,16.077397)"><path fill-rule="nonzero" fill="rgb(100%, 100%, 100%)" fill-opacity="1" d="M 11.484375 0.640625 C 11.214844 0.632812 10.941406 0.652344 10.664062 0.703125 C 9.570312 0.90625 8.582031 1.671875 7.859375 2.828125 C 7.851562 2.839844 7.863281 2.835938 7.855469 2.84375 C 7.855469 2.84375 7.855469 2.84375 7.851562 2.84375 C 7.851562 2.839844 7.851562 2.839844 7.851562 2.839844 C 7.84375 2.851562 7.835938 2.855469 7.828125 2.867188 L 7.847656 2.835938 C 6.59375 2.128906 5.1875 2.03125 4.054688 2.578125 C 2.914062 3.121094 2.117188 4.203125 1.695312 5.519531 C 1.503906 6.117188 1.828125 6.753906 2.425781 6.945312 C 3.023438 7.140625 3.664062 6.8125 3.851562 6.214844 C 4.132812 5.339844 4.589844 4.832031 5.03125 4.617188 C 5.476562 4.40625 5.976562 4.382812 6.734375 4.8125 L 6.695312 4.789062 C 7.171875 5.085938 7.8125 5.289062 8.433594 5.117188 C 9.054688 4.9375 9.429688 4.515625 9.71875 4.117188 C 9.734375 4.09375 9.75 4.070312 9.765625 4.046875 C 10.253906 3.242188 10.664062 3.011719 11.078125 2.933594 C 11.492188 2.855469 12.054688 2.96875 12.738281 3.328125 C 13.292969 3.625 13.976562 3.414062 14.273438 2.859375 C 14.5625 2.308594 14.355469 1.621094 13.800781 1.328125 C 13.082031 0.945312 12.300781 0.671875 11.484375 0.640625 Z M 25.015625 4.023438 C 23.6875 4.023438 22.382812 4.460938 21.183594 5.21875 C 21.179688 5.222656 21.171875 5.226562 21.164062 5.226562 C 20.960938 5.367188 20.867188 5.367188 20.546875 5.125 C 20.539062 5.117188 20.523438 5.109375 20.515625 5.101562 C 19.347656 4.296875 17.9375 3.945312 16.476562 4.089844 C 15.007812 4.234375 13.492188 4.835938 11.867188 5.820312 C 11.300781 6.164062 11.121094 6.90625 11.464844 7.46875 C 11.808594 8.039062 12.546875 8.21875 13.113281 7.875 C 14.535156 7.007812 15.742188 6.574219 16.710938 6.476562 C 17.6875 6.382812 18.421875 6.578125 19.152344 7.078125 L 19.117188 7.054688 C 20.039062 7.734375 21.417969 7.9375 22.484375 7.234375 L 22.46875 7.246094 C 23.5 6.59375 24.425781 6.351562 25.347656 6.445312 C 26.273438 6.539062 27.257812 6.980469 28.355469 7.96875 C 28.851562 8.414062 29.609375 8.375 30.050781 7.882812 C 30.492188 7.390625 30.453125 6.628906 29.960938 6.1875 C 28.589844 4.949219 27.113281 4.210938 25.585938 4.054688 C 25.398438 4.039062 25.207031 4.027344 25.015625 4.023438 Z M 6.957031 8.429688 C 6.59375 8.429688 6.242188 8.59375 6.007812 8.867188 C 1.421875 14.21875 1.671875 22.214844 6.59375 27.257812 C 11.507812 32.300781 19.492188 32.75 24.945312 28.289062 C 28.351562 25.5 30.078125 21.359375 29.925781 17.226562 C 29.835938 14.742188 29.070312 12.265625 27.582031 10.078125 C 27.1875 9.5 26.402344 9.351562 25.824219 9.742188 C 25.242188 10.140625 25.09375 10.925781 25.484375 11.503906 C 28.722656 16.265625 27.792969 22.683594 23.339844 26.328125 C 18.890625 29.96875 12.421875 29.609375 8.40625 25.488281 C 4.390625 21.367188 4.179688 14.886719 7.929688 10.515625 C 8.382812 9.984375 8.320312 9.1875 7.789062 8.734375 C 7.558594 8.53125 7.261719 8.421875 6.957031 8.429688 Z M 13.707031 11.375 C 13.078125 11.375 12.460938 11.5625 11.988281 11.984375 C 11.515625 12.398438 11.234375 13.046875 11.234375 13.710938 L 11.234375 24.015625 C 11.234375 24.699219 11.5 25.382812 12 25.804688 C 12.5 26.226562 13.117188 26.359375 13.707031 26.359375 L 19.535156 26.359375 C 20.171875 26.359375 20.804688 26.109375 21.21875 25.660156 C 21.636719 25.210938 21.820312 24.609375 21.820312 24.015625 L 21.820312 15.921875 C 21.820312 15.296875 21.640625 14.664062 21.195312 14.210938 C 20.75 13.761719 20.125 13.585938 19.535156 13.585938 L 17.820312 13.585938 C 17.265625 13.585938 16.820312 14.03125 16.820312 14.585938 C 16.820312 15.132812 17.265625 15.585938 17.820312 15.585938 L 19.535156 15.585938 C 19.765625 15.585938 19.78125 15.625 19.773438 15.617188 C 19.765625 15.609375 19.820312 15.648438 19.820312 15.921875 L 19.820312 24.015625 C 19.820312 24.210938 19.773438 24.28125 19.75 24.304688 C 19.726562 24.328125 19.714844 24.359375 19.535156 24.359375 L 13.707031 24.359375 C 13.429688 24.359375 13.3125 24.289062 13.289062 24.273438 C 13.269531 24.257812 13.234375 24.269531 13.234375 24.015625 L 13.234375 13.710938 C 13.234375 13.546875 13.265625 13.523438 13.3125 13.480469 C 13.359375 13.4375 13.476562 13.375 13.707031 13.375 L 19.460938 13.375 C 20.015625 13.375 20.460938 12.921875 20.460938 12.375 C 20.460938 11.820312 20.015625 11.375 19.460938 11.375 Z M 13.707031 11.375 "/></g></svg>
