<svg width="64" height="64" viewBox="0 0 64 64" version="1.1"><defs><linearGradient id="linear-pattern-0" gradientUnits="userSpaceOnUse" x1="0" y1="0" x2="0" y2="1" gradientTransform="matrix(60, 0, 0, 56, 0, 4)"><stop offset="0" stop-color="#008a97" stop-opacity="1"/><stop offset="1" stop-color="#00545c" stop-opacity="1"/></linearGradient></defs><path fill="url(#linear-pattern-0)" fill-opacity="1" d="M 36.21875 2.050781 L 62.027344 27.605469 C 64.402344 29.957031 64.417969 33.785156 62.058594 36.15625 L 36.460938 61.917969 C 34.105469 64.289062 30.269531 64.304688 27.894531 61.949219 L 2.085938 36.394531 C -0.289062 34.042969 -0.304688 30.214844 2.050781 27.84375 L 27.652344 2.082031 C 30.007812 -0.289062 33.84375 -0.304688 36.21875 2.050781 Z M 36.21875 2.050781 " /><g transform="matrix(1.0075098,0,0,1.0032698,16.221436,16.077397)"><path fill-rule="nonzero" fill="rgb(100%, 100%, 100%)" fill-opacity="1" d="M 22.515625 1.101562 L 1.042969 8.125 L 3.570312 8.125 L 3.570312 26.84375 L 1.042969 30.9375 L 8.621094 26.84375 L 8.621094 7.539062 L 11.148438 6.660156 L 11.148438 26.78125 L 6.09375 31.460938 L 14.9375 27.953125 L 14.9375 5.492188 L 17.460938 4.613281 C 23.78125 8.125 27.570312 12.804688 27.570312 16.3125 C 27.570312 22.160156 21.253906 25.671875 16.203125 29.179688 L 19.359375 29.179688 C 20.625 29.179688 20.625 30.351562 23.78125 30.351562 C 26.421875 30.367188 27.570312 29.179688 30.097656 28.011719 L 30.097656 26.84375 C 28.835938 27.308594 27.59375 27.992188 26.9375 28.011719 C 25.28125 28.011719 25.042969 26.84375 23.78125 25.671875 C 27.570312 22.160156 31.359375 20.992188 31.359375 13.96875 C 31.359375 8.125 26.304688 4.613281 22.515625 1.101562 Z M 22.515625 1.101562 "/></g></svg>
