<svg width="64" height="64" viewBox="0 0 64 64" version="1.1"><defs><linearGradient id="linear-pattern-0" gradientUnits="userSpaceOnUse" x1="0" y1="0" x2="0" y2="1" gradientTransform="matrix(60, 0, 0, 56, 0, 4)"><stop offset="0" stop-color="#8900e4" stop-opacity="1"/><stop offset="1" stop-color="#42006e" stop-opacity="1"/></linearGradient></defs><path fill="url(#linear-pattern-0)" fill-opacity="1" d="M 36.21875 2.050781 L 62.027344 27.605469 C 64.402344 29.957031 64.417969 33.785156 62.058594 36.15625 L 36.460938 61.917969 C 34.105469 64.289062 30.269531 64.304688 27.894531 61.949219 L 2.085938 36.394531 C -0.289062 34.042969 -0.304688 30.214844 2.050781 27.84375 L 27.652344 2.082031 C 30.007812 -0.289062 33.84375 -0.304688 36.21875 2.050781 Z M 36.21875 2.050781 " /><g transform="matrix(1.0075098,0,0,1.0032698,16.221436,16.077397)"><path fill-rule="nonzero" fill="rgb(100%, 100%, 100%)" fill-opacity="1" d="M 2.898438 25.828125 C 1.933594 24.695312 2.261719 23.648438 3.25 22.652344 C 4.445312 21.535156 5.582031 21.078125 6.734375 20.429688 L 6.734375 19.570312 C 6.804688 19.40625 6.902344 19.226562 7.472656 18.921875 L 8.867188 18.886719 C 9.179688 18.484375 9.460938 18.1875 9.917969 18.234375 C 10.71875 18.304688 12.777344 21.820312 15.890625 21.796875 C 17.140625 21.664062 18.0625 21.539062 18.964844 20.941406 L 12.640625 14.234375 C 11.773438 15 10.976562 15.894531 9.988281 16.421875 C 8.667969 15.421875 7.449219 14.28125 6.460938 12.832031 L 12.5 7.53125 L 17.53125 7.222656 L 18.542969 8.25 C 17.648438 9.285156 16.75 10.210938 15.855469 11.054688 L 22.210938 17.726562 C 22.890625 17.238281 23.039062 15.734375 23.046875 14.316406 C 22.839844 9.605469 17.578125 5.125 14.015625 1.257812 C 18.246094 2.25 27.335938 6.996094 27.765625 15.710938 C 27.484375 17.671875 27.1875 19.628906 25.8125 21.527344 L 27.664062 23.410156 L 24.234375 26.585938 L 22.632812 25.148438 C 20.722656 25.695312 19.8125 26.695312 16.449219 26.585938 C 14.863281 26.53125 11.460938 25.992188 8.867188 22.515625 C 7.992188 23.910156 6.945312 25.121094 5.691406 26.109375 C 4.890625 26.5625 4.070312 26.945312 2.898438 25.835938 Z M 2.898438 25.828125 "/></g></svg>
