<svg width="64" height="64" viewBox="0 0 64 64" version="1.1"><defs><linearGradient id="linear-pattern-0" gradientUnits="userSpaceOnUse" x1="0" y1="0" x2="0" y2="1" gradientTransform="matrix(60, 0, 0, 56, 0, 4)"><stop offset="0" stop-color="#aaaa00" stop-opacity="1"/><stop offset="1" stop-color="#5c5c00" stop-opacity="1"/></linearGradient></defs><path fill="url(#linear-pattern-0)" fill-opacity="1" d="M 36.21875 2.050781 L 62.027344 27.605469 C 64.402344 29.957031 64.417969 33.785156 62.058594 36.15625 L 36.460938 61.917969 C 34.105469 64.289062 30.269531 64.304688 27.894531 61.949219 L 2.085938 36.394531 C -0.289062 34.042969 -0.304688 30.214844 2.050781 27.84375 L 27.652344 2.082031 C 30.007812 -0.289062 33.84375 -0.304688 36.21875 2.050781 Z M 36.21875 2.050781 " /><g transform="matrix(1.0075098,0,0,1.0032698,16.221436,16.077397)"><path fill-rule="nonzero" fill="rgb(100%, 100%, 100%)" fill-opacity="1" d="M 15.328125 0.773438 C 9.789062 0.773438 4.9375 3.703125 2.242188 8.109375 L 11.867188 14.648438 L 16.414062 12.921875 L 20.703125 1.753906 C 19.03125 1.125 17.21875 0.773438 15.328125 0.773438 Z M 30.203125 12.398438 L 18.867188 14.566406 L 18.203125 17.609375 L 27.242188 25.757812 C 29.382812 23.121094 30.660156 19.765625 30.660156 16.109375 C 30.660156 14.828125 30.496094 13.589844 30.203125 12.398438 Z M 11.585938 17.980469 L 11.578125 17.984375 L 1.828125 23.378906 C 4.40625 28.15625 9.445312 31.414062 15.25 31.4375 L 14.335938 19.125 Z M 11.585938 17.980469 "/><path fill-rule="nonzero" fill="rgb(100%, 100%, 100%)" fill-opacity="1" d="M 19.59375 4.640625 L 19.097656 5.933594 L 26.890625 13.03125 L 24.03125 22.851562 L 14.933594 27.195312 L 6.578125 20.808594 L 9.292969 12.898438 L 8.398438 12.289062 L 5.574219 21.367188 L 14.980469 28.242188 L 24.914062 23.671875 L 28.128906 12.796875 Z M 16.445312 12.742188 L 11.945312 14.484375 L 12.1875 15.105469 L 16.382812 13.480469 L 18.601562 14.773438 L 17.898438 17.367188 L 14.367188 18.753906 L 11.777344 17.683594 L 11.523438 18.296875 L 14.363281 19.472656 L 18.453125 17.859375 L 19.375 14.453125 L 16.445312 12.746094 Z M 16.445312 12.742188 "/></g></svg>
