<svg width="64" height="64" viewBox="0 0 64 64" version="1.1"><defs><linearGradient id="linear-pattern-0" gradientUnits="userSpaceOnUse" x1="0" y1="0" x2="0" y2="1" gradientTransform="matrix(60, 0, 0, 56, 0, 4)"><stop offset="0" stop-color="#c10000" stop-opacity="1"/><stop offset="1" stop-color="#5f0000" stop-opacity="1"/></linearGradient></defs><path fill="url(#linear-pattern-0)" fill-opacity="1" d="M 36.21875 2.050781 L 62.027344 27.605469 C 64.402344 29.957031 64.417969 33.785156 62.058594 36.15625 L 36.460938 61.917969 C 34.105469 64.289062 30.269531 64.304688 27.894531 61.949219 L 2.085938 36.394531 C -0.289062 34.042969 -0.304688 30.214844 2.050781 27.84375 L 27.652344 2.082031 C 30.007812 -0.289062 33.84375 -0.304688 36.21875 2.050781 Z M 36.21875 2.050781 " /><g transform="matrix(1.0075098,0,0,1.0032698,16.221436,16.077397)"><path fill-rule="nonzero" fill="rgb(100%, 100%, 100%)" fill-opacity="1" d="M 16.378906 0.621094 C 7.992188 0.621094 1.195312 7.550781 1.195312 16.097656 C 1.195312 24.648438 7.992188 31.578125 16.378906 31.578125 C 24.765625 31.578125 31.5625 24.648438 31.5625 16.097656 C 31.5625 7.550781 24.765625 0.621094 16.378906 0.621094 Z M 16.378906 2.683594 C 16.71875 2.6875 17.054688 2.703125 17.390625 2.734375 L 17.390625 7.328125 L 12.328125 12.488281 L 7.269531 7.328125 L 7.269531 6.421875 C 9.71875 4.027344 12.984375 2.6875 16.378906 2.6875 Z M 19.414062 3.0625 C 24.96875 4.402344 29.035156 9.234375 29.496094 15.03125 L 19.414062 15.03125 Z M 5.242188 8.984375 L 5.242188 23.226562 C 3.921875 21.085938 3.21875 18.609375 3.21875 16.085938 C 3.226562 13.5625 3.925781 11.097656 5.242188 8.964844 Z M 7.269531 10.429688 L 12.328125 15.585938 L 17.390625 10.429688 L 17.390625 29.515625 C 17.054688 29.546875 16.71875 29.5625 16.378906 29.5625 C 12.976562 29.558594 9.71875 28.210938 7.269531 25.804688 Z M 19.414062 17.136719 L 29.484375 17.136719 C 29.027344 22.929688 24.960938 27.761719 19.414062 29.105469 Z M 19.414062 17.136719 "/></g></svg>
