<svg width="64" height="64" viewBox="0 0 64 64" version="1.1"><defs><linearGradient id="linear-pattern-0" gradientUnits="userSpaceOnUse" x1="0" y1="0" x2="0" y2="1" gradientTransform="matrix(60, 0, 0, 56, 0, 4)"><stop offset="0" stop-color="#00a07f" stop-opacity="1"/><stop offset="1" stop-color="#005241" stop-opacity="1"/></linearGradient></defs><path fill="url(#linear-pattern-0)" fill-opacity="1" d="M 36.21875 2.050781 L 62.027344 27.605469 C 64.402344 29.957031 64.417969 33.785156 62.058594 36.15625 L 36.460938 61.917969 C 34.105469 64.289062 30.269531 64.304688 27.894531 61.949219 L 2.085938 36.394531 C -0.289062 34.042969 -0.304688 30.214844 2.050781 27.84375 L 27.652344 2.082031 C 30.007812 -0.289062 33.84375 -0.304688 36.21875 2.050781 Z M 36.21875 2.050781 " /><g transform="matrix(1.0075098,0,0,1.0032698,16.221436,16.077397)"><path fill-rule="nonzero" fill="rgb(100%, 100%, 100%)" fill-opacity="1" d="M 3.867188 1.660156 C 1.984375 1.660156 0.46875 3.203125 0.46875 5.125 L 0.46875 12.0625 C 0.46875 13.984375 1.984375 15.527344 3.867188 15.527344 L 12.320312 15.527344 C 14.476562 13.898438 15.753906 11.332031 15.765625 8.59375 C 15.765625 5.863281 14.503906 3.296875 12.359375 1.660156 Z M 15.765625 8.59375 C 15.777344 11.332031 17.054688 13.898438 19.210938 15.527344 L 27.664062 15.527344 C 29.546875 15.527344 31.0625 13.984375 31.0625 12.0625 L 31.0625 5.125 C 31.0625 3.203125 29.546875 1.660156 27.664062 1.660156 L 19.210938 1.660156 C 17.054688 3.289062 15.777344 5.855469 15.765625 8.59375 Z M 7.265625 5.992188 C 8.671875 5.992188 9.8125 7.15625 9.8125 8.59375 C 9.8125 10.03125 8.671875 11.195312 7.265625 11.195312 C 5.859375 11.195312 4.71875 10.03125 4.71875 8.59375 C 4.71875 7.15625 5.859375 5.992188 7.265625 5.992188 Z M 24.265625 5.992188 C 25.671875 5.992188 26.8125 7.15625 26.8125 8.59375 C 26.8125 10.03125 25.671875 11.195312 24.265625 11.195312 C 22.855469 11.195312 21.710938 10.03125 21.710938 8.59375 C 21.710938 7.15625 22.855469 5.992188 24.265625 5.992188 Z M 24.265625 5.992188 "/><path fill-rule="nonzero" fill="rgb(100%, 100%, 100%)" fill-opacity="1" d="M 1.234375 17.382812 L 1.234375 19.976562 L 31.117188 19.976562 L 31.117188 17.382812 Z M 14.679688 26.460938 L 14.679688 29.054688 L 18.417969 27.757812 Z M 14.679688 26.460938 "/><path fill-rule="nonzero" fill="rgb(100%, 100%, 100%)" fill-opacity="1" d="M 6.171875 24.859375 L 3.5625 27.398438 L 6.171875 29.9375 Z M 6.171875 27.398438 L 8.78125 29.9375 L 8.78125 24.859375 Z M 21.835938 24.859375 L 21.835938 29.9375 L 24.445312 27.398438 Z M 24.445312 27.398438 L 24.445312 29.9375 L 27.054688 27.398438 L 24.445312 24.859375 Z M 24.445312 27.398438 "/></g></svg>
