<svg width="64" height="64" viewBox="0 0 64 64" version="1.1"><defs><linearGradient id="linear-pattern-0" gradientUnits="userSpaceOnUse" x1="0" y1="0" x2="0" y2="1" gradientTransform="matrix(60, 0, 0, 56, 0, 4)"><stop offset="0" stop-color="#ec7700" stop-opacity="1"/><stop offset="1" stop-color="#773c00" stop-opacity="1"/></linearGradient></defs><path fill="url(#linear-pattern-0)" fill-opacity="1" d="M 36.21875 2.050781 L 62.027344 27.605469 C 64.402344 29.957031 64.417969 33.785156 62.058594 36.15625 L 36.460938 61.917969 C 34.105469 64.289062 30.269531 64.304688 27.894531 61.949219 L 2.085938 36.394531 C -0.289062 34.042969 -0.304688 30.214844 2.050781 27.84375 L 27.652344 2.082031 C 30.007812 -0.289062 33.84375 -0.304688 36.21875 2.050781 Z M 36.21875 2.050781 " /><g transform="matrix(1.0075098,0,0,1.0032698,16.221436,16.077397)"><path fill-rule="evenodd" fill="rgb(100%, 100%, 100%)" fill-opacity="1" d="M 19.234375 3.375 C 18.382812 3.351562 17.515625 3.417969 16.648438 3.585938 C 14.023438 4.09375 8.328125 6.992188 5.617188 10.273438 C 5.3125 10.632812 5.308594 10.664062 5.132812 10.882812 C 2.875 11.015625 1.402344 10.523438 0.789062 10.945312 C -0.015625 11.492188 1.21875 14.574219 2.28125 16.414062 C 2.1875 16.796875 2.132812 17.195312 2.164062 17.640625 C 2.257812 19.210938 2.484375 20.539062 2.789062 21.703125 C 1.601562 21.867188 0.78125 22.390625 0.789062 22.988281 C 0.789062 23.507812 1.402344 23.976562 2.367188 24.199219 C 2.347656 24.476562 2.492188 24.742188 2.855469 24.992188 C 4.5 26.125 5.515625 26.765625 6.234375 27.136719 C 8.214844 28.425781 10.601562 28.425781 12.660156 28.007812 C 15.414062 27.449219 18.09375 26.5625 20.015625 25.210938 C 20.726562 24.914062 21.328125 24.558594 21.808594 24.132812 C 22.304688 23.921875 22.523438 23.820312 22.945312 23.648438 C 24.40625 23.027344 26.5625 22.03125 28.351562 21.179688 C 30.140625 20.335938 31.960938 20.414062 31.960938 20.414062 C 31.960938 20.414062 29.515625 17.808594 27.867188 17.25 C 26.703125 16.855469 24.171875 17.25 24.171875 17.25 C 24.171875 17.25 26.1875 15.640625 27.335938 15.054688 C 28.703125 14.355469 31.6875 13.503906 31.6875 13.503906 C 31.6875 13.503906 29.367188 11.648438 27.8125 11.179688 C 25.121094 10.367188 24.023438 10.78125 23.628906 11.054688 C 23.90625 10.796875 25.140625 9.644531 26.007812 9.179688 C 27.445312 8.40625 30.671875 7.65625 30.671875 7.65625 C 30.671875 7.65625 25.21875 3.511719 19.234375 3.375 Z M 11.179688 13.84375 C 13.644531 13.84375 13.609375 18.625 12.375 21.015625 C 11.144531 23.40625 6.253906 21.015625 6.253906 21.015625 L 3.789062 21.535156 C 3.789062 21.535156 3.335938 21.023438 3.261719 20.703125 C 2.929688 19.242188 2.285156 16.589844 3.789062 16.234375 C 5.226562 15.902344 6.253906 19.820312 6.253906 19.820312 C 6.253906 19.820312 6.941406 16.703125 7.984375 15.5625 C 8.789062 14.671875 9.953125 13.84375 11.179688 13.84375 Z M 10.546875 16.316406 C 9.867188 16.316406 9.3125 17.382812 9.3125 18.707031 C 9.3125 20.023438 9.867188 21.09375 10.546875 21.09375 C 11.226562 21.09375 11.78125 20.023438 11.78125 18.707031 C 11.78125 17.386719 11.226562 16.320312 10.546875 16.316406 Z M 4.710938 17.644531 C 4.203125 17.644531 3.789062 18.445312 3.789062 19.433594 C 3.789062 20.425781 4.203125 21.226562 4.710938 21.226562 C 5.222656 21.226562 5.640625 20.425781 5.640625 19.433594 C 5.636719 18.445312 5.222656 17.644531 4.710938 17.644531 Z M 4.710938 17.644531 "/></g></svg>
