<svg width="64" height="64" viewBox="0 0 64 64" version="1.1"><defs><linearGradient id="linear-pattern-0" gradientUnits="userSpaceOnUse" x1="0" y1="0" x2="0" y2="1" gradientTransform="matrix(60, 0, 0, 56, 0, 4)"><stop offset="0" stop-color="#c10000" stop-opacity="1"/><stop offset="1" stop-color="#5f0000" stop-opacity="1"/></linearGradient></defs><path fill="url(#linear-pattern-0)" fill-opacity="1" d="M 36.21875 2.050781 L 62.027344 27.605469 C 64.402344 29.957031 64.417969 33.785156 62.058594 36.15625 L 36.460938 61.917969 C 34.105469 64.289062 30.269531 64.304688 27.894531 61.949219 L 2.085938 36.394531 C -0.289062 34.042969 -0.304688 30.214844 2.050781 27.84375 L 27.652344 2.082031 C 30.007812 -0.289062 33.84375 -0.304688 36.21875 2.050781 Z M 36.21875 2.050781 " /><g transform="matrix(1.0075098,0,0,1.0032698,16.221436,16.077397)"><path fill-rule="nonzero" fill="rgb(100%, 100%, 100%)" fill-opacity="1" d="M 16.933594 25.859375 C 18.230469 25.742188 18.933594 25.234375 19.609375 24.601562 C 20.300781 23.96875 20.605469 23.390625 20.605469 22.300781 C 20.605469 21.3125 20.304688 20.191406 19.628906 19.5 C 18.953125 18.8125 18.242188 18.210938 16.933594 17.859375 Z M 15.097656 6.300781 C 13.914062 6.382812 12.820312 6.867188 12.167969 7.476562 C 11.515625 8.070312 11.421875 8.84375 11.421875 9.859375 C 11.421875 10.773438 11.484375 11.570312 12.082031 12.179688 C 12.6875 12.789062 13.8125 13.03125 15.097656 13.414062 Z M 7.75 25.859375 L 7.75 21.414062 L 9.585938 21.414062 C 9.632812 22.984375 10.15625 23.664062 11.03125 24.464844 C 11.90625 25.269531 13.375 25.820312 15.097656 25.859375 L 15.097656 17.859375 C 12.453125 17.121094 10.429688 15.785156 9.359375 14.832031 C 8.289062 13.867188 7.75 12.59375 7.75 11.007812 C 7.75 9.167969 8.390625 7.695312 9.652344 6.578125 C 10.914062 5.464844 12.84375 4.664062 15.097656 4.523438 L 15.097656 0.078125 L 16.933594 0.078125 L 16.933594 4.523438 C 18.09375 4.617188 18.921875 4.984375 19.992188 5.269531 C 21.070312 5.546875 22.335938 5.917969 23.359375 6.390625 L 23.359375 10.746094 L 21.523438 10.746094 C 21.382812 9.414062 20.664062 8.519531 19.871094 7.75 C 19.078125 6.980469 18.289062 6.40625 16.933594 6.300781 L 16.933594 14.300781 C 19.757812 15.070312 21.449219 15.882812 22.578125 16.882812 C 23.710938 17.871094 24.277344 18.859375 24.277344 20.523438 C 24.277344 22.429688 23.617188 24.296875 22.28125 25.445312 C 20.953125 26.59375 19.359375 27.460938 16.933594 27.632812 L 16.933594 32.078125 L 15.097656 32.078125 L 15.097656 27.632812 C 13.992188 27.609375 12.679688 27.246094 11.496094 26.945312 C 10.3125 26.660156 9.039062 26.429688 7.75 25.859375 Z M 7.75 25.859375 "/></g></svg>
