<svg width="64" height="64" viewBox="0 0 64 64" version="1.1"><defs><linearGradient id="linear-pattern-0" gradientUnits="userSpaceOnUse" x1="0" y1="0" x2="0" y2="1" gradientTransform="matrix(60, 0, 0, 56, 0, 4)"><stop offset="0" stop-color="#aaaa00" stop-opacity="1"/><stop offset="1" stop-color="#5c5c00" stop-opacity="1"/></linearGradient></defs><path fill="url(#linear-pattern-0)" fill-opacity="1" d="M 36.21875 2.050781 L 62.027344 27.605469 C 64.402344 29.957031 64.417969 33.785156 62.058594 36.15625 L 36.460938 61.917969 C 34.105469 64.289062 30.269531 64.304688 27.894531 61.949219 L 2.085938 36.394531 C -0.289062 34.042969 -0.304688 30.214844 2.050781 27.84375 L 27.652344 2.082031 C 30.007812 -0.289062 33.84375 -0.304688 36.21875 2.050781 Z M 36.21875 2.050781 " /><g transform="matrix(1.0075098,0,0,1.0032698,16.221436,16.077397)"><path fill-rule="nonzero" fill="rgb(100%, 100%, 100%)" fill-opacity="1" d="M 13.046875 1.046875 C 5.929688 1.046875 0.808594 5.945312 0.808594 13.292969 C 0.808594 19.828125 5.78125 25.761719 13.046875 25.761719 C 14.578125 25.761719 16 25.5 17.300781 25.03125 C 17.367188 24.953125 17.441406 24.882812 17.527344 24.828125 L 18.6875 24.070312 C 18.753906 24.023438 18.824219 23.992188 18.898438 23.964844 C 18.914062 23.878906 18.929688 23.796875 18.953125 23.710938 C 18.898438 23.65625 18.847656 23.601562 18.804688 23.539062 L 18.003906 22.421875 C 17.988281 22.398438 17.972656 22.375 17.960938 22.351562 L 17.734375 22.617188 C 17.511719 22.882812 17.117188 23.007812 16.769531 22.929688 L 16.175781 22.796875 C 15.890625 22.726562 15.640625 22.523438 15.527344 22.265625 C 14.898438 22.8125 14.085938 23.132812 13.046875 23.132812 C 10.871094 23.132812 9.726562 21.679688 9.125 19.710938 C 8.859375 18.773438 8.695312 17.746094 8.59375 16.703125 C 8.484375 15.464844 8.46875 14.203125 8.46875 13.070312 C 8.46875 12.175781 8.484375 11.285156 8.539062 10.429688 C 8.65625 8.875 8.90625 7.335938 9.390625 6.074219 C 10.046875 4.523438 11.164062 3.535156 13.046875 3.535156 C 15.425781 3.535156 16.632812 5.140625 17.21875 7.429688 C 17.5 8.59375 17.640625 9.890625 17.707031 11.21875 C 17.71875 11.226562 17.726562 11.242188 17.734375 11.25 L 18.652344 12.328125 C 18.671875 12.351562 18.691406 12.371094 18.707031 12.398438 C 18.914062 12.417969 19.113281 12.453125 19.3125 12.5 C 19.328125 12.492188 19.339844 12.484375 19.355469 12.484375 L 20.679688 11.882812 C 21.003906 11.734375 21.414062 11.78125 21.691406 11.992188 L 22.171875 12.359375 C 22.4375 12.574219 22.570312 12.9375 22.492188 13.257812 L 22.195312 14.507812 C 22.355469 14.746094 22.488281 15 22.601562 15.265625 L 23.808594 15.832031 C 24.125 15.976562 24.339844 16.308594 24.339844 16.640625 L 24.339844 17.226562 C 24.339844 17.5625 24.121094 17.890625 23.800781 18.035156 L 23.523438 18.164062 L 24.152344 18.773438 C 24.953125 17.085938 25.390625 15.21875 25.390625 13.292969 C 25.390625 5.890625 20.101562 1.046875 13.046875 1.046875 Z M 16.996094 11.804688 L 16.402344 11.933594 L 16.070312 13.285156 L 16.121094 13.53125 L 16.21875 13.710938 C 15.761719 13.957031 15.351562 14.289062 15.03125 14.6875 L 14.820312 14.515625 L 14.578125 14.40625 L 13.128906 14.414062 L 12.859375 14.933594 L 13.757812 16.027344 L 14 16.140625 L 14.3125 16.195312 C 14.257812 16.4375 14.226562 16.671875 14.226562 16.921875 C 14.226562 17.171875 14.257812 17.414062 14.3125 17.652344 L 14 17.710938 L 13.757812 17.820312 L 12.859375 18.914062 L 13.128906 19.445312 L 14.578125 19.445312 L 14.820312 19.335938 L 15.03125 19.171875 C 15.351562 19.566406 15.761719 19.890625 16.21875 20.136719 L 16.121094 20.316406 L 16.070312 20.5625 L 16.402344 21.914062 L 16.996094 22.050781 L 17.914062 20.96875 L 17.976562 20.71875 L 17.976562 20.617188 C 18.023438 20.617188 18.0625 20.617188 18.113281 20.617188 C 18.632812 20.617188 19.128906 20.507812 19.585938 20.335938 L 19.601562 20.367188 L 19.765625 20.5625 L 21.085938 21.164062 L 21.566406 20.796875 L 21.242188 19.445312 L 21.105469 19.28125 C 21.46875 18.867188 21.746094 18.375 21.890625 17.828125 L 22.070312 17.820312 L 23.386719 17.226562 L 23.386719 16.632812 L 22.070312 16.027344 L 21.890625 16.027344 C 21.746094 15.484375 21.472656 14.992188 21.105469 14.574219 L 21.242188 14.40625 L 21.566406 13.0625 L 21.085938 12.695312 L 19.765625 13.285156 L 19.601562 13.480469 L 19.59375 13.515625 C 19.136719 13.339844 18.632812 13.242188 18.113281 13.242188 C 18.0625 13.242188 18.023438 13.242188 17.976562 13.242188 L 17.976562 13.140625 L 17.914062 12.890625 Z M 18.113281 14.710938 C 19.402344 14.710938 20.453125 15.703125 20.453125 16.921875 C 20.453125 18.148438 19.402344 19.136719 18.113281 19.136719 C 16.824219 19.136719 15.789062 18.148438 15.789062 16.921875 C 15.789062 15.703125 16.824219 14.710938 18.113281 14.710938 Z M 22.828125 18.773438 L 22.179688 18.992188 L 22.035156 20.335938 L 22.132812 20.648438 L 22.269531 20.882812 C 21.8125 21.125 21.414062 21.433594 21.0625 21.796875 L 20.859375 21.632812 L 20.5625 21.476562 L 19.140625 21.351562 L 18.789062 21.914062 L 19.59375 23.035156 L 19.882812 23.214844 L 20.078125 23.28125 C 19.890625 23.738281 19.773438 24.226562 19.742188 24.742188 L 19.570312 24.734375 L 19.230469 24.804688 L 18.070312 25.570312 L 18.175781 26.210938 L 19.546875 26.585938 L 19.890625 26.546875 L 20 26.503906 C 20.171875 26.992188 20.4375 27.445312 20.765625 27.84375 L 20.679688 27.894531 L 20.484375 28.152344 L 20.09375 29.460938 L 20.617188 29.882812 L 21.925781 29.332031 L 22.160156 29.101562 L 22.1875 29.046875 C 22.648438 29.304688 23.160156 29.5 23.703125 29.601562 L 23.683594 29.640625 L 23.703125 29.964844 L 24.289062 31.195312 L 24.980469 31.203125 L 25.601562 29.992188 L 25.625 29.664062 L 25.625 29.621094 C 26.164062 29.523438 26.671875 29.351562 27.136719 29.101562 L 27.171875 29.152344 L 27.398438 29.382812 L 28.6875 29.972656 L 29.21875 29.554688 L 28.867188 28.246094 L 28.667969 27.988281 L 28.585938 27.921875 C 28.917969 27.53125 29.183594 27.085938 29.371094 26.605469 L 29.507812 26.648438 L 29.839844 26.699219 L 31.21875 26.359375 L 31.34375 25.71875 L 30.191406 24.921875 L 29.867188 24.84375 L 29.667969 24.84375 C 29.652344 24.335938 29.554688 23.84375 29.378906 23.382812 L 29.59375 23.316406 L 29.882812 23.144531 L 30.710938 22.042969 L 30.371094 21.476562 L 28.945312 21.570312 L 28.640625 21.71875 L 28.433594 21.882812 C 28.089844 21.507812 27.703125 21.195312 27.253906 20.9375 L 27.40625 20.703125 L 27.515625 20.398438 L 27.398438 19.054688 L 26.757812 18.820312 L 25.726562 19.761719 L 25.59375 20.054688 L 25.539062 20.351562 C 25.265625 20.304688 24.984375 20.28125 24.703125 20.28125 C 24.460938 20.28125 24.238281 20.296875 24.007812 20.324219 L 23.953125 20.042969 L 23.828125 19.742188 Z M 24.703125 21.820312 C 26.546875 21.820312 28.054688 23.238281 28.054688 24.992188 C 28.054688 26.742188 26.546875 28.164062 24.703125 28.164062 C 22.855469 28.164062 21.359375 26.742188 21.359375 24.992188 C 21.359375 23.238281 22.855469 21.820312 24.703125 21.820312 Z M 24.703125 21.820312 "/></g></svg>
