<svg width="64" height="64" viewBox="0 0 64 64" version="1.1"><defs><linearGradient id="linear-pattern-0" gradientUnits="userSpaceOnUse" x1="0" y1="0" x2="0" y2="1" gradientTransform="matrix(60, 0, 0, 56, 0, 4)"><stop offset="0" stop-color="#3067ff" stop-opacity="1"/><stop offset="1" stop-color="#002ca6" stop-opacity="1"/></linearGradient></defs><path fill="url(#linear-pattern-0)" fill-opacity="1" d="M 36.21875 2.050781 L 62.027344 27.605469 C 64.402344 29.957031 64.417969 33.785156 62.058594 36.15625 L 36.460938 61.917969 C 34.105469 64.289062 30.269531 64.304688 27.894531 61.949219 L 2.085938 36.394531 C -0.289062 34.042969 -0.304688 30.214844 2.050781 27.84375 L 27.652344 2.082031 C 30.007812 -0.289062 33.84375 -0.304688 36.21875 2.050781 Z M 36.21875 2.050781 " /><g transform="matrix(1.0075098,0,0,1.0032698,16.221436,16.077397)"><path fill-rule="evenodd" fill="rgb(100%, 100%, 100%)" fill-opacity="1" d="M 15.976562 1.066406 C 14.078125 1.066406 12.292969 1.429688 10.632812 2.148438 C 8.980469 2.867188 7.496094 3.9375 6.164062 5.34375 C 4.726562 6.835938 3.664062 8.453125 2.984375 10.195312 C 2.308594 11.929688 1.976562 13.882812 1.976562 16.054688 C 1.976562 18.222656 2.308594 20.179688 2.984375 21.914062 C 3.664062 23.65625 4.726562 25.273438 6.164062 26.765625 C 7.480469 28.15625 8.964844 29.21875 10.617188 29.929688 C 12.269531 30.644531 14.0625 31.007812 15.976562 31.007812 C 17.898438 31.007812 19.6875 30.644531 21.34375 29.929688 C 23 29.21875 24.476562 28.15625 25.796875 26.765625 C 27.21875 25.285156 28.277344 23.679688 28.945312 21.945312 C 29.617188 20.214844 29.945312 18.242188 29.945312 16.054688 C 29.945312 13.859375 29.617188 11.890625 28.945312 10.164062 C 28.277344 8.429688 27.21875 6.824219 25.796875 5.34375 C 24.46875 3.9375 22.976562 2.867188 21.328125 2.148438 C 19.671875 1.429688 17.890625 1.066406 15.976562 1.066406 M 15.976562 3.042969 C 18.132812 3.042969 19.511719 3.816406 20.289062 5.320312 C 21.113281 6.929688 21.585938 10.453125 21.585938 16.054688 C 21.585938 21.660156 21.113281 25.179688 20.289062 26.785156 C 19.511719 28.292969 18.132812 29.066406 15.976562 29.066406 C 13.808594 29.066406 12.421875 28.28125 11.640625 26.769531 C 10.804688 25.148438 10.335938 21.632812 10.335938 16.054688 C 10.335938 10.476562 10.804688 6.960938 11.640625 5.339844 C 12.421875 3.820312 13.808594 3.039062 15.976562 3.039062 "/></g></svg>
