<svg width="64" height="64" viewBox="0 0 64 64" version="1.1"><defs><linearGradient id="linear-pattern-0" gradientUnits="userSpaceOnUse" x1="0" y1="0" x2="0" y2="1" gradientTransform="matrix(60, 0, 0, 56, 0, 4)"><stop offset="0" stop-color="#00a07f" stop-opacity="1"/><stop offset="1" stop-color="#005241" stop-opacity="1"/></linearGradient></defs><path fill="url(#linear-pattern-0)" fill-opacity="1" d="M 36.21875 2.050781 L 62.027344 27.605469 C 64.402344 29.957031 64.417969 33.785156 62.058594 36.15625 L 36.460938 61.917969 C 34.105469 64.289062 30.269531 64.304688 27.894531 61.949219 L 2.085938 36.394531 C -0.289062 34.042969 -0.304688 30.214844 2.050781 27.84375 L 27.652344 2.082031 C 30.007812 -0.289062 33.84375 -0.304688 36.21875 2.050781 Z M 36.21875 2.050781 " /><g transform="matrix(1.0075098,0,0,1.0032698,16.221436,16.077397)"><path fill-rule="nonzero" fill="rgb(100%, 100%, 100%)" fill-opacity="1" d="M 3.46875 17.59375 C 2.941406 17.59375 2.515625 17.9375 2.515625 18.367188 L 2.515625 19.914062 C 2.515625 20.339844 2.941406 20.683594 3.46875 20.683594 L 22.476562 20.683594 C 23.003906 20.683594 23.429688 20.339844 23.429688 19.914062 L 23.429688 18.367188 C 23.429688 17.9375 23.003906 17.59375 22.476562 17.59375 Z M 26.28125 17.59375 C 25.753906 17.59375 25.328125 17.9375 25.328125 18.367188 L 25.328125 19.914062 C 25.328125 20.339844 25.753906 20.683594 26.28125 20.683594 L 28.179688 20.683594 C 28.707031 20.683594 29.132812 20.339844 29.132812 19.914062 L 29.132812 18.367188 C 29.132812 17.9375 28.707031 17.59375 28.179688 17.59375 Z M 3.46875 22.226562 C 2.941406 22.226562 2.515625 22.570312 2.515625 23 L 2.515625 24.546875 C 2.515625 24.972656 2.941406 25.316406 3.46875 25.316406 L 11.070312 25.316406 C 11.601562 25.316406 12.023438 24.972656 12.023438 24.546875 L 12.023438 23 C 12.023438 22.570312 11.601562 22.226562 11.070312 22.226562 Z M 16.773438 22.226562 C 16.25 22.226562 15.824219 22.570312 15.824219 23 L 15.824219 24.546875 C 15.824219 24.972656 16.25 25.316406 16.773438 25.316406 L 28.179688 25.316406 C 28.707031 25.316406 29.132812 24.972656 29.132812 24.546875 L 29.132812 23 C 29.132812 22.570312 28.707031 22.226562 28.179688 22.226562 Z M 3.46875 26.859375 C 2.941406 26.859375 2.515625 27.207031 2.515625 27.632812 L 2.515625 29.179688 C 2.515625 29.605469 2.941406 29.953125 3.46875 29.953125 L 11.070312 29.953125 C 11.601562 29.953125 12.023438 29.605469 12.023438 29.179688 L 12.023438 27.632812 C 12.023438 27.207031 11.601562 26.859375 11.070312 26.859375 Z M 16.773438 26.859375 C 16.25 26.859375 15.824219 27.207031 15.824219 27.632812 L 15.824219 29.179688 C 15.824219 29.605469 16.25 29.953125 16.773438 29.953125 L 28.179688 29.953125 C 28.707031 29.953125 29.132812 29.605469 29.132812 29.179688 L 29.132812 27.632812 C 29.132812 27.207031 28.707031 26.859375 28.179688 26.859375 Z M 16.773438 26.859375 "/><path fill-rule="nonzero" fill="rgb(100%, 100%, 100%)" fill-opacity="1" d="M 11.679688 1.078125 L 11.679688 10.292969 L 5.804688 10.292969 L 15.601562 16.648438 L 25.398438 10.292969 L 19.515625 10.292969 L 19.515625 1.078125 Z M 11.679688 1.078125 "/></g></svg>
