<svg width="64" height="64" viewBox="0 0 64 64" version="1.1"><defs><linearGradient id="linear-pattern-0" gradientUnits="userSpaceOnUse" x1="0" y1="0" x2="0" y2="1" gradientTransform="matrix(60, 0, 0, 56, 0, 4)"><stop offset="0" stop-color="#8900e4" stop-opacity="1"/><stop offset="1" stop-color="#42006e" stop-opacity="1"/></linearGradient></defs><path fill="url(#linear-pattern-0)" fill-opacity="1" d="M 36.21875 2.050781 L 62.027344 27.605469 C 64.402344 29.957031 64.417969 33.785156 62.058594 36.15625 L 36.460938 61.917969 C 34.105469 64.289062 30.269531 64.304688 27.894531 61.949219 L 2.085938 36.394531 C -0.289062 34.042969 -0.304688 30.214844 2.050781 27.84375 L 27.652344 2.082031 C 30.007812 -0.289062 33.84375 -0.304688 36.21875 2.050781 Z M 36.21875 2.050781 " /><g transform="matrix(1.0075098,0,0,1.0032698,16.221436,16.077397)"><path fill-rule="evenodd" fill="rgb(100%, 100%, 100%)" fill-opacity="1" d="M 0.390625 23.585938 C 4.929688 27.109375 11.820312 23 14.75 21.386719 C 20.492188 18.234375 21.355469 22.191406 22.140625 22.738281 C 23.359375 23.8125 19.140625 27.214844 19.375 29.613281 C 19.507812 30.945312 19.6875 32 19.6875 32 C 20.222656 32 26.328125 28.855469 26.140625 25.730469 C 28.609375 27.167969 29.136719 24.878906 32 25.335938 C 31.59375 24.699219 31.074219 23.75 29.953125 23.257812 C 28.753906 22.792969 26.734375 22.859375 26.207031 21.28125 C 26.109375 19.5 26.136719 10 21.96875 7.09375 C 21.359375 5.828125 22.015625 4.023438 23.203125 2.796875 C 24.273438 1.679688 25.882812 0.65625 26.4375 0 C 23.941406 -0.0273438 21.414062 0.703125 19.023438 2.136719 C 17.128906 3.273438 16.640625 4.292969 15.847656 4.671875 C 8.703125 3.210938 0.824219 9.296875 0.03125 19.976562 C -0.0351562 20.835938 -0.0234375 23.316406 0.390625 23.585938 Z M 0.390625 23.585938 "/></g></svg>
