<svg width="64" height="64" viewBox="0 0 64 64" version="1.1"><defs><linearGradient id="linear-pattern-0" gradientUnits="userSpaceOnUse" x1="0" y1="0" x2="0" y2="1" gradientTransform="matrix(60, 0, 0, 56, 0, 4)"><stop offset="0" stop-color="#6926fc" stop-opacity="1"/><stop offset="1" stop-color="#3702ab" stop-opacity="1"/></linearGradient></defs><path fill="url(#linear-pattern-0)" fill-opacity="1" d="M 36.21875 2.050781 L 62.027344 27.605469 C 64.402344 29.957031 64.417969 33.785156 62.058594 36.15625 L 36.460938 61.917969 C 34.105469 64.289062 30.269531 64.304688 27.894531 61.949219 L 2.085938 36.394531 C -0.289062 34.042969 -0.304688 30.214844 2.050781 27.84375 L 27.652344 2.082031 C 30.007812 -0.289062 33.84375 -0.304688 36.21875 2.050781 Z M 36.21875 2.050781 " /><g transform="matrix(1.0075098,0,0,1.0032698,16.221436,16.077397)"><path fill-rule="nonzero" fill="rgb(100%, 100%, 100%)" fill-opacity="1" d="M 0 26.640625 C 5.457031 24.972656 10.617188 22.195312 15.125 18.5 C 16.65625 17.246094 18.148438 15.84375 19.078125 14.039062 C 19.546875 13.132812 19.867188 12.132812 19.949219 11.101562 C 20.03125 10.074219 19.867188 9.015625 19.425781 8.09375 C 19.050781 7.320312 18.484375 6.65625 17.8125 6.164062 C 17.140625 5.667969 16.367188 5.335938 15.570312 5.160156 C 13.96875 4.804688 12.296875 5.070312 10.75 5.625 C 8.664062 6.375 6.71875 7.671875 5.3125 9.492188 C 3.90625 11.3125 3.070312 13.675781 3.179688 16.035156 C 3.304688 18.601562 4.539062 21.03125 6.292969 22.78125 C 8.046875 24.535156 10.289062 25.65625 12.613281 26.304688 C 16.007812 27.25 19.628906 27.230469 23.011719 26.242188 C 26.394531 25.25 29.527344 23.296875 32 20.632812 L 31.976562 13.71875 C 29.789062 17.335938 26.476562 20.15625 22.695312 21.609375 C 19.84375 22.710938 16.671875 23.03125 13.78125 22.070312 C 12.335938 21.585938 10.976562 20.78125 9.859375 19.6875 C 8.746094 18.589844 7.878906 17.195312 7.417969 15.648438 C 6.882812 13.859375 6.921875 11.835938 7.71875 10.164062 C 8.121094 9.328125 8.703125 8.585938 9.429688 8.054688 C 10.148438 7.523438 11.011719 7.203125 11.886719 7.164062 C 12.472656 7.140625 13.066406 7.246094 13.605469 7.492188 C 14.148438 7.738281 14.632812 8.125 14.988281 8.625 C 15.398438 9.203125 15.628906 9.914062 15.6875 10.632812 C 15.742188 11.355469 15.632812 12.085938 15.414062 12.773438 C 14.96875 14.140625 14.101562 15.300781 13.199219 16.375 C 9.539062 20.742188 5.007812 24.265625 0 26.640625 "/></g></svg>
