<!-- Generator: Gravit.io --><svg width="64" height="64" viewBox="0 0 64 64" version="1.1"><defs><linearGradient id="linear-pattern-0" gradientUnits="userSpaceOnUse" x1="0" y1="0" x2="0" y2="1" gradientTransform="matrix(60, 0, 0, 56, 0, 4)"><stop offset="0" stop-color="#0288cf" stop-opacity="1"/><stop offset="1" stop-color="#01486e" stop-opacity="1"/></linearGradient></defs><path fill="url(#linear-pattern-0)" fill-opacity="1" d="M 36.21875 2.050781 L 62.027344 27.605469 C 64.402344 29.957031 64.417969 33.785156 62.058594 36.15625 L 36.460938 61.917969 C 34.105469 64.289062 30.269531 64.304688 27.894531 61.949219 L 2.085938 36.394531 C -0.289062 34.042969 -0.304688 30.214844 2.050781 27.84375 L 27.652344 2.082031 C 30.007812 -0.289062 33.84375 -0.304688 36.21875 2.050781 Z M 36.21875 2.050781 " /><g transform="matrix(1.0075098,0,0,1.0032698,16.221436,16.077397)"><path fill-rule="evenodd" fill="rgb(100%, 100%, 100%)" fill-opacity="1" d="M 5.15625 23.601562 C 5.15625 21.96875 6.40625 20.644531 7.945312 20.644531 C 9.484375 20.644531 10.734375 21.96875 10.734375 23.601562 C 10.734375 25.230469 9.484375 26.554688 7.945312 26.554688 C 6.40625 26.554688 5.15625 25.230469 5.15625 23.601562 Z M 5.269531 28.03125 C 5.976562 28.03125 6.554688 28.695312 6.554688 29.507812 C 6.554688 30.328125 6.007812 30.984375 5.339844 30.976562 L 5.195312 30.988281 C 5.179688 30.988281 5.171875 30.988281 5.15625 30.988281 C 4.050781 30.988281 2.980469 30.523438 2.199219 29.6875 C 1.414062 28.859375 0.976562 27.730469 0.976562 26.554688 C 0.976562 25.738281 1.597656 25.078125 2.367188 25.078125 C 3.140625 25.078125 3.765625 25.738281 3.765625 26.554688 C 3.765625 26.945312 3.90625 27.320312 4.164062 27.59375 C 4.421875 27.871094 4.773438 28.023438 5.140625 28.03125 Z M 3.765625 20.644531 C 3.765625 21.460938 3.140625 22.125 2.367188 22.125 C 1.597656 22.125 0.976562 21.460938 0.976562 20.644531 L 0.976562 4.394531 C 0.976562 2.359375 2.539062 0.703125 4.460938 0.703125 L 28.167969 0.703125 C 30.089844 0.703125 31.652344 2.359375 31.652344 4.394531 L 31.652344 8.828125 C 31.652344 9.644531 31.03125 10.304688 30.257812 10.304688 C 29.488281 10.304688 28.863281 9.644531 28.863281 8.828125 L 28.863281 5.871094 C 28.863281 4.652344 27.921875 3.65625 26.773438 3.65625 L 5.855469 3.65625 C 4.703125 3.65625 3.765625 4.652344 3.765625 5.871094 Z M 28.863281 16.214844 C 28.863281 15.398438 29.488281 14.734375 30.257812 14.734375 C 31.03125 14.734375 31.652344 15.398438 31.652344 16.214844 L 31.652344 27.296875 C 31.652344 29.328125 30.089844 30.988281 28.167969 30.988281 L 10.734375 30.988281 C 9.964844 30.988281 9.339844 30.328125 9.339844 29.507812 C 9.339844 28.695312 9.964844 28.03125 10.734375 28.03125 L 26.773438 28.03125 C 27.921875 28.03125 28.863281 27.039062 28.863281 25.820312 Z M 7.648438 16.589844 C 7.070312 16.601562 6.59375 16.117188 6.582031 15.507812 C 6.570312 14.894531 7.027344 14.382812 7.601562 14.375 L 7.921875 14.367188 C 7.929688 14.367188 7.9375 14.367188 7.945312 14.367188 C 10.023438 14.367188 12.03125 15.148438 13.609375 16.582031 C 15.1875 18.007812 16.234375 19.988281 16.558594 22.160156 C 16.644531 22.765625 16.253906 23.328125 15.6875 23.429688 C 15.117188 23.523438 14.582031 23.109375 14.492188 22.507812 C 14.242188 20.859375 13.453125 19.351562 12.253906 18.265625 C 11.054688 17.179688 9.539062 16.582031 7.960938 16.582031 Z M 7.683594 12.148438 C 7.101562 12.160156 6.628906 11.671875 6.625 11.054688 C 6.617188 10.445312 7.082031 9.945312 7.65625 9.9375 L 7.929688 9.9375 C 7.9375 9.9375 7.9375 9.9375 7.945312 9.9375 C 11.160156 9.9375 14.257812 11.207031 16.632812 13.496094 C 19.011719 15.785156 20.492188 18.941406 20.789062 22.328125 C 20.84375 22.9375 20.421875 23.476562 19.84375 23.535156 C 19.265625 23.59375 18.757812 23.140625 18.703125 22.539062 C 18.460938 19.695312 17.222656 17.058594 15.226562 15.136719 C 13.238281 13.214844 10.648438 12.148438 7.953125 12.148438 Z M 7.683594 12.148438 "/></g></svg>
