<svg width="64" height="64" viewBox="0 0 64 64" version="1.1"><defs><linearGradient id="linear-pattern-0" gradientUnits="userSpaceOnUse" x1="0" y1="0" x2="0" y2="1" gradientTransform="matrix(60, 0, 0, 56, 0, 4)"><stop offset="0" stop-color="#3067ff" stop-opacity="1"/><stop offset="1" stop-color="#002ca6" stop-opacity="1"/></linearGradient></defs><path fill="url(#linear-pattern-0)" fill-opacity="1" d="M 36.21875 2.050781 L 62.027344 27.605469 C 64.402344 29.957031 64.417969 33.785156 62.058594 36.15625 L 36.460938 61.917969 C 34.105469 64.289062 30.269531 64.304688 27.894531 61.949219 L 2.085938 36.394531 C -0.289062 34.042969 -0.304688 30.214844 2.050781 27.84375 L 27.652344 2.082031 C 30.007812 -0.289062 33.84375 -0.304688 36.21875 2.050781 Z M 36.21875 2.050781 " /><g transform="matrix(1.0075098,0,0,1.0032698,16.221436,16.077397)"><path fill-rule="nonzero" fill="rgb(100%, 100%, 100%)" fill-opacity="1" d="M 18.304688 0.929688 L 1.96875 4.359375 L 1.96875 27.625 L 18.304688 31.335938 L 18.304688 0.929688 M 19.339844 7.375 L 19.339844 13.328125 L 21.257812 14.632812 C 21.304688 14.648438 21.417969 14.648438 21.46875 14.632812 L 29.726562 8.601562 C 29.726562 7.890625 29.109375 7.375 28.765625 7.375 L 19.339844 7.375 M 10.320312 10.816406 C 11.398438 10.816406 12.269531 11.296875 12.9375 12.25 C 13.601562 13.210938 13.9375 14.46875 13.9375 16.035156 C 13.9375 17.644531 13.59375 18.945312 12.902344 19.925781 C 12.210938 20.910156 11.308594 21.40625 10.195312 21.40625 C 9.117188 21.40625 8.234375 20.929688 7.554688 19.976562 C 6.871094 19.015625 6.53125 17.777344 6.53125 16.242188 C 6.53125 14.625 6.875 13.316406 7.570312 12.316406 C 8.257812 11.320312 9.179688 10.816406 10.320312 10.816406 M 29.726562 11.007812 C 29.726562 11.007812 21.339844 17.046875 21.632812 16.847656 C 21.929688 16.648438 21.335938 17.046875 21.089844 16.847656 L 19.339844 15.546875 L 19.339844 23.628906 L 28.234375 23.628906 C 29.023438 23.628906 29.726562 23.132812 29.726562 21.9375 L 29.726562 11.007812 M 10.269531 12.804688 C 9.675781 12.804688 9.203125 13.109375 8.851562 13.710938 C 8.5 14.320312 8.324219 15.125 8.324219 16.125 C 8.324219 17.132812 8.5 17.9375 8.851562 18.53125 C 9.203125 19.117188 9.664062 19.410156 10.234375 19.410156 C 10.820312 19.410156 11.28125 19.125 11.628906 18.554688 C 11.96875 17.976562 12.144531 17.1875 12.144531 16.164062 C 12.144531 15.101562 11.980469 14.28125 11.640625 13.6875 C 11.308594 13.097656 10.851562 12.804688 10.273438 12.804688 "/></g></svg>
