<svg width="64" height="64" viewBox="0 0 64 64" version="1.1"><defs><linearGradient id="linear-pattern-0" gradientUnits="userSpaceOnUse" x1="0" y1="0" x2="0" y2="1" gradientTransform="matrix(60, 0, 0, 56, 0, 4)"><stop offset="0" stop-color="#a67e50" stop-opacity="1"/><stop offset="1" stop-color="#644c30" stop-opacity="1"/></linearGradient></defs><path fill="url(#linear-pattern-0)" fill-opacity="1" d="M 36.21875 2.050781 L 62.027344 27.605469 C 64.402344 29.957031 64.417969 33.785156 62.058594 36.15625 L 36.460938 61.917969 C 34.105469 64.289062 30.269531 64.304688 27.894531 61.949219 L 2.085938 36.394531 C -0.289062 34.042969 -0.304688 30.214844 2.050781 27.84375 L 27.652344 2.082031 C 30.007812 -0.289062 33.84375 -0.304688 36.21875 2.050781 Z M 36.21875 2.050781 " /><g transform="matrix(1.0075098,0,0,1.0032698,16.221436,16.077397)"><path fill-rule="nonzero" fill="rgb(100%, 100%, 100%)" fill-opacity="1" d="M 19.445312 1.367188 L 17.835938 3.167969 C 17.265625 3.085938 16.6875 3.042969 16.109375 3.039062 C 15.535156 3.042969 14.960938 3.085938 14.390625 3.171875 L 12.78125 1.375 C 11.867188 1.582031 10.96875 1.878906 10.105469 2.257812 L 9.84375 4.671875 C 8.828125 5.226562 7.882812 5.921875 7.042969 6.734375 L 4.710938 6.242188 C 4.09375 6.960938 3.539062 7.734375 3.0625 8.558594 L 4.25 10.671875 C 3.75 11.734375 3.386719 12.855469 3.175781 14.011719 L 0.992188 15.015625 C 0.945312 15.488281 0.921875 15.964844 0.921875 16.441406 C 0.925781 16.917969 0.953125 17.394531 1 17.871094 L 3.171875 18.867188 C 3.382812 20.023438 3.742188 21.152344 4.246094 22.214844 L 3.0625 24.320312 C 3.546875 25.144531 4.101562 25.921875 4.71875 26.640625 L 7.054688 26.148438 C 7.890625 26.960938 8.828125 27.660156 9.84375 28.226562 L 10.109375 30.640625 C 10.96875 31.015625 11.863281 31.304688 12.777344 31.515625 L 14.386719 29.710938 C 14.960938 29.796875 15.535156 29.835938 16.109375 29.84375 C 16.6875 29.835938 17.265625 29.792969 17.835938 29.710938 L 19.4375 31.507812 C 20.359375 31.296875 21.253906 31 22.117188 30.625 L 22.375 28.210938 C 23.398438 27.652344 24.335938 26.960938 25.179688 26.148438 L 27.511719 26.640625 C 28.132812 25.921875 28.679688 25.144531 29.160156 24.320312 L 27.976562 22.210938 C 28.476562 21.148438 28.835938 20.023438 29.046875 18.867188 L 31.230469 17.867188 C 31.273438 17.390625 31.296875 16.914062 31.300781 16.441406 C 31.296875 15.960938 31.273438 15.484375 31.222656 15.011719 L 29.050781 14.015625 C 28.839844 12.855469 28.476562 11.726562 27.976562 10.664062 L 29.15625 8.558594 C 28.679688 7.734375 28.125 6.960938 27.503906 6.242188 L 25.167969 6.734375 C 24.332031 5.921875 23.390625 5.222656 22.375 4.65625 L 22.117188 2.242188 C 21.253906 1.867188 20.359375 1.574219 19.445312 1.367188 Z M 16.109375 5.101562 C 22.265625 5.101562 27.25 10.179688 27.25 16.441406 C 27.25 22.703125 22.265625 27.78125 16.109375 27.78125 C 9.960938 27.78125 4.972656 22.703125 4.972656 16.441406 C 4.972656 10.179688 9.960938 5.101562 16.109375 5.101562 Z M 16.109375 7.164062 C 15.390625 8.960938 14.953125 10.140625 14.148438 11.890625 C 14.640625 12.417969 15.246094 13.039062 16.226562 13.734375 C 15.171875 13.289062 14.453125 12.847656 13.914062 12.390625 C 12.886719 14.570312 11.277344 17.6875 8.007812 23.65625 C 10.578125 22.148438 12.566406 21.210938 14.421875 20.859375 C 14.339844 20.507812 14.296875 20.132812 14.300781 19.738281 L 14.304688 19.65625 C 14.34375 17.976562 15.195312 16.691406 16.210938 16.78125 C 17.226562 16.867188 18.015625 18.296875 17.972656 19.96875 C 17.96875 20.285156 17.929688 20.589844 17.871094 20.867188 C 19.703125 21.234375 21.679688 22.171875 24.210938 23.65625 C 23.710938 22.722656 23.265625 21.871094 22.835938 21.070312 C 22.164062 20.539062 21.46875 19.851562 20.039062 19.101562 C 21.019531 19.363281 21.722656 19.664062 22.269531 20 C 17.945312 11.804688 17.589844 10.703125 16.109375 7.164062 Z M 16.109375 7.164062 "/></g></svg>
