<svg width="64" height="64" viewBox="0 0 64 64" version="1.1"><defs><linearGradient id="linear-pattern-0" gradientUnits="userSpaceOnUse" x1="0" y1="0" x2="0" y2="1" gradientTransform="matrix(60, 0, 0, 56, 0, 4)"><stop offset="0" stop-color="#00a07f" stop-opacity="1"/><stop offset="1" stop-color="#005241" stop-opacity="1"/></linearGradient></defs><path fill="url(#linear-pattern-0)" fill-opacity="1" d="M 36.21875 2.050781 L 62.027344 27.605469 C 64.402344 29.957031 64.417969 33.785156 62.058594 36.15625 L 36.460938 61.917969 C 34.105469 64.289062 30.269531 64.304688 27.894531 61.949219 L 2.085938 36.394531 C -0.289062 34.042969 -0.304688 30.214844 2.050781 27.84375 L 27.652344 2.082031 C 30.007812 -0.289062 33.84375 -0.304688 36.21875 2.050781 Z M 36.21875 2.050781 " /><g transform="matrix(1.0075098,0,0,1.0032698,16.221436,16.077397)"><path fill-rule="nonzero" fill="rgb(100%, 100%, 100%)" fill-opacity="1" d="M 16 0 C 7.171875 0.015625 0.015625 7.171875 0 16 C 0.015625 24.828125 7.171875 31.984375 16 32 C 24.828125 31.984375 31.984375 24.828125 32 16 C 31.984375 7.171875 24.828125 0.015625 16 0 Z M 11.691406 3.175781 C 15.054688 3.953125 17.992188 5.992188 19.90625 8.867188 C 20.292969 7.96875 21.175781 7.386719 22.15625 7.382812 C 23.507812 7.382812 24.617188 8.492188 24.617188 9.84375 C 24.617188 11.199219 23.507812 12.308594 22.15625 12.308594 C 21.902344 12.308594 21.671875 12.234375 21.4375 12.164062 C 21.875 13.472656 22.15625 14.855469 22.15625 16.308594 C 22.15625 22.308594 18.242188 27.382812 12.824219 29.15625 C 6.742188 27.695312 2.453125 22.253906 2.460938 16 C 2.460938 10.015625 6.328125 4.960938 11.691406 3.175781 Z M 8.617188 9.84375 C 7.9375 9.84375 7.382812 10.398438 7.382812 11.078125 C 7.382812 11.757812 7.9375 12.308594 8.617188 12.308594 C 9.296875 12.308594 9.84375 11.757812 9.84375 11.078125 C 9.84375 10.398438 9.296875 9.84375 8.617188 9.84375 Z M 9.84375 17.230469 C 8.492188 17.230469 7.382812 18.335938 7.382812 19.691406 C 7.382812 21.046875 8.492188 22.15625 9.84375 22.15625 C 11.199219 22.15625 12.308594 21.046875 12.308594 19.691406 C 12.308594 18.335938 11.199219 17.230469 9.84375 17.230469 Z M 25.84375 17.230469 C 26.523438 17.230469 27.078125 17.78125 27.078125 18.460938 C 27.078125 19.140625 26.523438 19.691406 25.84375 19.691406 C 25.519531 19.695312 25.203125 19.5625 24.976562 19.335938 C 24.742188 19.101562 24.613281 18.789062 24.617188 18.460938 C 24.617188 17.78125 25.164062 17.230469 25.84375 17.230469 Z M 25.84375 17.230469 "/></g></svg>
