<svg width="64" height="64" viewBox="0 0 64 64" version="1.1"><defs><linearGradient id="linear-pattern-0" gradientUnits="userSpaceOnUse" x1="0" y1="0" x2="0" y2="1" gradientTransform="matrix(60, 0, 0, 56, 0, 4)"><stop offset="0" stop-color="#0288cf" stop-opacity="1"/><stop offset="1" stop-color="#01486e" stop-opacity="1"/></linearGradient></defs><path fill="url(#linear-pattern-0)" fill-opacity="1" d="M 36.21875 2.050781 L 62.027344 27.605469 C 64.402344 29.957031 64.417969 33.785156 62.058594 36.15625 L 36.460938 61.917969 C 34.105469 64.289062 30.269531 64.304688 27.894531 61.949219 L 2.085938 36.394531 C -0.289062 34.042969 -0.304688 30.214844 2.050781 27.84375 L 27.652344 2.082031 C 30.007812 -0.289062 33.84375 -0.304688 36.21875 2.050781 Z M 36.21875 2.050781 " /><g transform="matrix(1.0075098,0,0,1.0032698,16.221436,16.077397)"><path fill-rule="nonzero" fill="rgb(100%, 100%, 100%)" fill-opacity="1" d="M 21.046875 16.164062 C 21.046875 18.933594 18.84375 21.179688 16.132812 21.179688 C 13.417969 21.179688 11.21875 18.933594 11.21875 16.164062 C 11.21875 13.394531 13.417969 11.144531 16.132812 11.144531 C 18.84375 11.144531 21.046875 13.394531 21.046875 16.164062 Z M 21.046875 16.164062 "/><path fill-rule="nonzero" fill="rgb(100%, 100%, 100%)" fill-opacity="1" d="M 13.574219 6.332031 C 9.3125 7.488281 6.171875 11.453125 6.171875 16.160156 C 6.171875 20.871094 9.3125 24.835938 13.574219 25.992188 C 10.5 24.585938 8.289062 20.710938 8.289062 16.160156 C 8.289062 11.609375 10.5 7.742188 13.574219 6.332031 Z M 18.691406 6.332031 C 21.765625 7.742188 23.976562 11.609375 23.976562 16.160156 C 23.976562 20.710938 21.765625 24.585938 18.691406 25.992188 C 22.953125 24.835938 26.09375 20.871094 26.09375 16.160156 C 26.09375 11.453125 22.953125 7.488281 18.691406 6.332031 Z M 18.691406 6.332031 "/><path fill-rule="nonzero" fill="rgb(100%, 100%, 100%)" fill-opacity="1" d="M 12.132812 0.8125 C 5.484375 2.617188 0.578125 8.804688 0.578125 16.160156 C 0.578125 23.515625 5.484375 29.710938 12.132812 31.515625 C 7.335938 29.3125 3.886719 23.265625 3.886719 16.160156 C 3.886719 9.054688 7.335938 3.011719 12.132812 0.8125 Z M 20.132812 0.8125 C 24.929688 3.011719 28.378906 9.054688 28.378906 16.160156 C 28.378906 23.265625 24.929688 29.3125 20.132812 31.515625 C 26.78125 29.710938 31.6875 23.515625 31.6875 16.160156 C 31.6875 8.804688 26.78125 2.617188 20.132812 0.8125 Z M 20.132812 0.8125 "/></g></svg>
