<svg width="64" height="64" viewBox="0 0 64 64" version="1.1"><defs><linearGradient id="linear-pattern-0" gradientUnits="userSpaceOnUse" x1="0" y1="0" x2="0" y2="1" gradientTransform="matrix(60, 0, 0, 56, 0, 4)"><stop offset="0" stop-color="#d00068" stop-opacity="1"/><stop offset="1" stop-color="#6e0037" stop-opacity="1"/></linearGradient></defs><path fill="url(#linear-pattern-0)" fill-opacity="1" d="M 36.21875 2.050781 L 62.027344 27.605469 C 64.402344 29.957031 64.417969 33.785156 62.058594 36.15625 L 36.460938 61.917969 C 34.105469 64.289062 30.269531 64.304688 27.894531 61.949219 L 2.085938 36.394531 C -0.289062 34.042969 -0.304688 30.214844 2.050781 27.84375 L 27.652344 2.082031 C 30.007812 -0.289062 33.84375 -0.304688 36.21875 2.050781 Z M 36.21875 2.050781 " /><g transform="matrix(1.0075098,0,0,1.0032698,16.221436,16.077397)"><path fill-rule="nonzero" fill="rgb(100%, 100%, 100%)" fill-opacity="1" d="M 27.570312 4.695312 C 26.492188 4.695312 25.625 5.546875 25.625 6.601562 C 25.625 7.65625 26.492188 8.507812 27.570312 8.507812 C 28.648438 8.507812 29.523438 7.65625 29.523438 6.601562 C 29.523438 5.546875 28.648438 4.695312 27.570312 4.695312 Z M 27.570312 10.414062 C 26.492188 10.414062 25.625 11.265625 25.625 12.320312 C 25.625 13.375 26.492188 14.226562 27.570312 14.226562 C 28.648438 14.226562 29.523438 13.375 29.523438 12.320312 C 29.523438 11.265625 28.648438 10.414062 27.570312 10.414062 Z M 2.234375 25.664062 C 1.15625 25.664062 0.289062 26.511719 0.289062 27.570312 L 0.289062 29.476562 C 0.289062 30.53125 1.15625 31.382812 2.234375 31.382812 L 29.523438 31.382812 C 30.601562 31.382812 31.46875 30.53125 31.46875 29.476562 L 31.46875 27.570312 C 31.46875 26.511719 30.601562 25.664062 29.523438 25.664062 Z M 2.234375 25.664062 "/><path fill-rule="nonzero" fill="rgb(100%, 100%, 100%)" fill-opacity="1" d="M 23.789062 1.046875 L 8.757812 1.046875 C 4.957031 1.046875 1.867188 3.605469 1.867188 6.75 L 1.867188 19.195312 C 1.867188 22.34375 4.957031 24.90625 8.757812 24.90625 L 23.789062 24.90625 C 27.59375 24.90625 30.683594 22.34375 30.683594 19.195312 L 30.683594 6.75 C 30.683594 3.605469 27.59375 1.046875 23.789062 1.046875 Z M 30.042969 19.195312 C 30.042969 22.054688 27.234375 24.375 23.789062 24.375 L 8.757812 24.375 C 5.3125 24.375 2.507812 22.054688 2.507812 19.195312 L 2.507812 6.75 C 2.507812 3.898438 5.3125 1.574219 8.757812 1.574219 L 23.789062 1.574219 C 27.234375 1.574219 30.042969 3.898438 30.042969 6.75 Z M 30.042969 19.195312 "/></g></svg>
