<svg width="64" height="64" viewBox="0 0 64 64" version="1.1"><defs><linearGradient id="linear-pattern-0" gradientUnits="userSpaceOnUse" x1="0" y1="0" x2="0" y2="1" gradientTransform="matrix(60, 0, 0, 56, 0, 4)"><stop offset="0" stop-color="#7795ab" stop-opacity="1"/><stop offset="1" stop-color="#3b4f5f" stop-opacity="1"/></linearGradient></defs><path fill="url(#linear-pattern-0)" fill-opacity="1" d="M 36.21875 2.050781 L 62.027344 27.605469 C 64.402344 29.957031 64.417969 33.785156 62.058594 36.15625 L 36.460938 61.917969 C 34.105469 64.289062 30.269531 64.304688 27.894531 61.949219 L 2.085938 36.394531 C -0.289062 34.042969 -0.304688 30.214844 2.050781 27.84375 L 27.652344 2.082031 C 30.007812 -0.289062 33.84375 -0.304688 36.21875 2.050781 Z M 36.21875 2.050781 " /><g transform="matrix(1.0075098,0,0,1.0032698,16.221436,16.077397)"><path fill-rule="nonzero" fill="rgb(100%, 100%, 100%)" fill-opacity="1" d="M 12.21875 3.667969 L 12.21875 26.796875 L 17.21875 28.332031 L 17.21875 9.023438 C 17.21875 8.515625 17.28125 8.140625 17.496094 7.921875 C 17.703125 7.628906 17.90625 7.597656 18.203125 7.726562 C 18.929688 7.9375 19.265625 8.59375 19.265625 9.65625 L 19.265625 17.417969 C 20.890625 18.1875 22.339844 18.265625 23.40625 17.457031 C 24.511719 16.6875 25.101562 15.328125 25.101562 13.28125 C 25.101562 11.148438 24.699219 9.503906 23.757812 8.4375 C 22.90625 7.289062 21.40625 6.367188 19.1875 5.597656 C 16.421875 4.703125 14.09375 4.0625 12.21875 3.667969 Z M 10.679688 17.65625 L 9.695312 17.96875 L 3.507812 20.175781 L 2.445312 20.609375 C 0.824219 21.289062 -0.0429688 22.015625 0 22.65625 C 0.0859375 23.59375 1.15625 24.273438 3.078125 24.785156 C 5.570312 25.453125 8.09375 25.609375 10.679688 25.21875 L 10.679688 22.578125 L 9.695312 22.933594 L 8.589844 23.367188 L 6.820312 23.722656 L 5.125 23.523438 C 4.78125 23.308594 4.671875 23.070312 4.886719 22.855469 C 5.164062 22.6875 5.453125 22.539062 5.753906 22.421875 L 6.898438 22.027344 L 10.679688 20.6875 Z M 25.019531 18.875 C 24.554688 18.855469 24.089844 18.898438 23.640625 18.914062 C 21.984375 18.949219 20.289062 19.222656 18.519531 19.78125 L 18.519531 22.894531 L 22.023438 21.671875 L 23.835938 21.042969 L 25.019531 20.726562 C 25.78125 20.523438 26.59375 20.808594 26.59375 20.808594 C 27.0625 20.84375 27.300781 21.023438 27.382812 21.242188 C 27.46875 21.496094 27.15625 21.695312 26.515625 21.910156 L 24.941406 22.539062 L 18.519531 24.824219 L 18.519531 27.859375 L 21.515625 26.796875 L 28.726562 24.234375 L 29.589844 23.839844 C 31.300781 23.195312 32.078125 22.523438 31.992188 21.671875 C 31.945312 20.859375 30.980469 20.21875 29.273438 19.664062 C 27.898438 19.199219 26.46875 18.933594 25.019531 18.875 Z M 25.019531 18.875 "/></g></svg>
