<svg width="64" height="64" viewBox="0 0 64 64" version="1.1"><defs><linearGradient id="linear-pattern-0" gradientUnits="userSpaceOnUse" x1="0" y1="0" x2="0" y2="1" gradientTransform="matrix(60, 0, 0, 56, 0, 4)"><stop offset="0" stop-color="#a67e50" stop-opacity="1"/><stop offset="1" stop-color="#644c30" stop-opacity="1"/></linearGradient></defs><path fill="url(#linear-pattern-0)" fill-opacity="1" d="M 36.21875 2.050781 L 62.027344 27.605469 C 64.402344 29.957031 64.417969 33.785156 62.058594 36.15625 L 36.460938 61.917969 C 34.105469 64.289062 30.269531 64.304688 27.894531 61.949219 L 2.085938 36.394531 C -0.289062 34.042969 -0.304688 30.214844 2.050781 27.84375 L 27.652344 2.082031 C 30.007812 -0.289062 33.84375 -0.304688 36.21875 2.050781 Z M 36.21875 2.050781 " /><g transform="matrix(1.0075098,0,0,1.0032698,16.221436,16.077397)"><path fill-rule="evenodd" fill="rgb(100%, 100%, 100%)" fill-opacity="1" d="M 8.8125 9.6875 C 9.820312 9.128906 10.972656 8.667969 12.222656 8.335938 C 15.480469 8.539062 18.511719 9.539062 20.691406 11.132812 C 25.742188 11.5625 29.957031 13.882812 31.441406 17.046875 C 32.921875 20.203125 31.398438 23.617188 27.546875 25.746094 C 23.375 27.804688 17.664062 27.984375 13.140625 26.210938 C 8.089844 25.78125 3.875 23.46875 2.390625 20.304688 C 0.992188 17.320312 2.273438 14.113281 5.652344 11.976562 L 0.6875 7.910156 C 0.300781 7.589844 0.0546875 7.140625 0.0078125 6.640625 C -0.0390625 6.144531 0.109375 5.648438 0.421875 5.257812 C 0.742188 4.875 1.191406 4.632812 1.6875 4.585938 C 2.1875 4.535156 2.6875 4.6875 3.070312 4.996094 Z M 9.757812 15.335938 C 9.65625 15.515625 9.5625 15.695312 9.484375 15.886719 C 8.144531 17.613281 8.105469 19.71875 9.378906 21.484375 C 10.648438 23.25 13.0625 24.433594 15.785156 24.632812 C 19.304688 25.0625 22.78125 23.773438 24.351562 21.457031 C 25.6875 19.730469 25.726562 17.625 24.453125 15.859375 C 23.183594 14.09375 20.773438 12.910156 18.046875 12.710938 C 16.957031 12.320312 15.765625 12.109375 14.554688 12.09375 C 13.855469 12.265625 13.203125 12.507812 12.609375 12.804688 L 13.410156 13.453125 C 13.796875 13.773438 14.039062 14.226562 14.085938 14.726562 C 14.132812 15.222656 13.984375 15.71875 13.671875 16.105469 C 13.351562 16.492188 12.90625 16.734375 12.40625 16.78125 C 11.90625 16.828125 11.40625 16.679688 11.023438 16.367188 Z M 9.757812 15.335938 "/></g></svg>
