<svg width="64" height="64" viewBox="0 0 64 64" version="1.1"><defs><linearGradient id="linear-pattern-0" gradientUnits="userSpaceOnUse" x1="0" y1="0" x2="0" y2="1" gradientTransform="matrix(60, 0, 0, 56, 0, 4)"><stop offset="0" stop-color="#ec7700" stop-opacity="1"/><stop offset="1" stop-color="#773c00" stop-opacity="1"/></linearGradient></defs><path fill="url(#linear-pattern-0)" fill-opacity="1" d="M 36.21875 2.050781 L 62.027344 27.605469 C 64.402344 29.957031 64.417969 33.785156 62.058594 36.15625 L 36.460938 61.917969 C 34.105469 64.289062 30.269531 64.304688 27.894531 61.949219 L 2.085938 36.394531 C -0.289062 34.042969 -0.304688 30.214844 2.050781 27.84375 L 27.652344 2.082031 C 30.007812 -0.289062 33.84375 -0.304688 36.21875 2.050781 Z M 36.21875 2.050781 " /><g transform="matrix(1.0075098,0,0,1.0032698,16.221436,16.077397)"><path fill-rule="nonzero" fill="rgb(100%, 100%, 100%)" fill-opacity="1" d="M 16.132812 0.980469 C 16.132812 0.980469 14.226562 2.863281 10.414062 2.863281 L 0.882812 12.273438 L 4.695312 16.03125 L 8.507812 12.273438 L 14.226562 17.914062 L 12.320312 19.796875 L 8.507812 19.796875 L 4.695312 23.5625 L 4.695312 27.320312 L 8.507812 23.5625 L 11.367188 24.5 L 12.320312 27.320312 L 8.507812 31.085938 L 12.320312 31.085938 L 16.132812 27.320312 L 16.132812 23.5625 L 18.039062 21.679688 L 27.566406 31.085938 L 31.378906 27.320312 L 21.851562 17.914062 L 23.753906 16.03125 L 27.566406 16.03125 L 31.378906 12.273438 L 31.378906 8.507812 L 27.566406 12.273438 L 24.707031 11.328125 L 23.753906 8.507812 L 27.566406 4.742188 L 23.753906 4.742188 L 19.945312 8.507812 L 19.945312 12.273438 L 18.039062 14.152344 L 12.320312 8.507812 L 18.039062 2.863281 Z M 16.132812 0.980469 "/></g></svg>
