<svg width="64" height="64" viewBox="0 0 64 64" version="1.1"><defs><linearGradient id="linear-pattern-0" gradientUnits="userSpaceOnUse" x1="0" y1="0" x2="0" y2="1" gradientTransform="matrix(60, 0, 0, 56, 0, 4)"><stop offset="0" stop-color="#ec7700" stop-opacity="1"/><stop offset="1" stop-color="#773c00" stop-opacity="1"/></linearGradient></defs><path fill="url(#linear-pattern-0)" fill-opacity="1" d="M 36.21875 2.050781 L 62.027344 27.605469 C 64.402344 29.957031 64.417969 33.785156 62.058594 36.15625 L 36.460938 61.917969 C 34.105469 64.289062 30.269531 64.304688 27.894531 61.949219 L 2.085938 36.394531 C -0.289062 34.042969 -0.304688 30.214844 2.050781 27.84375 L 27.652344 2.082031 C 30.007812 -0.289062 33.84375 -0.304688 36.21875 2.050781 Z M 36.21875 2.050781 " /><g transform="matrix(1.0075098,0,0,1.0032698,16.221436,16.077397)"><path fill-rule="nonzero" fill="rgb(100%, 100%, 100%)" fill-opacity="1" d="M 31.128906 29.789062 L 31.128906 22.816406 L 29.898438 23.976562 L 29.898438 28.625 L 24.980469 28.625 L 23.75 29.789062 Z M 23.75 29.789062 L 23.75 22.816406 L 22.519531 23.976562 L 22.519531 28.625 L 17.601562 28.625 L 16.371094 29.789062 Z M 16.371094 29.789062 L 16.371094 22.816406 L 15.140625 23.976562 L 15.140625 28.625 L 10.222656 28.625 L 8.992188 29.789062 Z M 8.992188 29.789062 L 8.992188 22.816406 L 7.761719 23.976562 L 7.761719 28.625 L 2.84375 28.625 L 1.613281 29.789062 Z M 8.992188 22.816406 L 8.992188 15.84375 L 7.761719 17.007812 L 7.761719 21.65625 L 2.84375 21.65625 L 1.613281 22.816406 Z M 8.992188 22.816406 L 16.371094 22.816406 L 16.371094 15.84375 L 15.140625 17.007812 L 15.140625 21.65625 L 10.222656 21.65625 Z M 16.371094 15.84375 L 16.371094 8.875 L 15.140625 10.035156 L 15.140625 14.683594 L 10.222656 14.683594 L 8.992188 15.84375 Z M 16.371094 15.84375 L 23.75 15.84375 L 23.75 8.875 L 22.519531 10.035156 L 22.519531 14.683594 L 17.601562 14.683594 Z M 23.75 8.875 L 23.75 1.902344 L 22.519531 3.0625 L 22.519531 7.710938 L 17.601562 7.710938 L 16.371094 8.875 Z M 23.75 8.875 L 31.128906 8.875 L 31.128906 1.902344 L 29.898438 3.0625 L 29.898438 7.710938 L 24.980469 7.710938 Z M 31.128906 8.875 L 29.898438 10.035156 L 29.898438 14.683594 L 24.980469 14.683594 L 23.75 15.84375 L 31.128906 15.84375 Z M 31.128906 15.84375 L 29.898438 17.007812 L 29.898438 21.65625 L 24.980469 21.65625 L 23.75 22.816406 L 31.128906 22.816406 Z M 23.75 22.816406 L 23.75 15.84375 L 22.519531 17.007812 L 22.519531 21.65625 L 17.601562 21.65625 L 16.371094 22.816406 Z M 16.371094 8.875 L 16.371094 1.902344 L 15.140625 3.0625 L 15.140625 7.710938 L 10.222656 7.710938 L 8.992188 8.875 Z M 8.992188 8.875 L 7.761719 10.035156 L 7.761719 14.683594 L 2.84375 14.683594 L 1.613281 15.84375 L 8.992188 15.84375 Z M 8.992188 8.875 L 8.992188 1.902344 L 7.761719 3.0625 L 7.761719 7.710938 L 2.84375 7.710938 L 1.613281 8.875 Z M 8.992188 8.875 "/></g></svg>
