<svg width="64" height="64" viewBox="0 0 64 64" version="1.1"><defs><linearGradient id="linear-pattern-0" gradientUnits="userSpaceOnUse" x1="0" y1="0" x2="0" y2="1" gradientTransform="matrix(60, 0, 0, 56, 0, 4)"><stop offset="0" stop-color="#00983a" stop-opacity="1"/><stop offset="1" stop-color="#004a1c" stop-opacity="1"/></linearGradient></defs><path fill="url(#linear-pattern-0)" fill-opacity="1" d="M 36.21875 2.050781 L 62.027344 27.605469 C 64.402344 29.957031 64.417969 33.785156 62.058594 36.15625 L 36.460938 61.917969 C 34.105469 64.289062 30.269531 64.304688 27.894531 61.949219 L 2.085938 36.394531 C -0.289062 34.042969 -0.304688 30.214844 2.050781 27.84375 L 27.652344 2.082031 C 30.007812 -0.289062 33.84375 -0.304688 36.21875 2.050781 Z M 36.21875 2.050781 " /><g transform="matrix(1.0075098,0,0,1.0032698,16.221436,16.077397)"><path fill-rule="evenodd" fill="rgb(100%, 100%, 100%)" fill-opacity="1" d="M 12.1875 0 L 10.859375 0.972656 L 7.464844 2.308594 L 6.710938 3.085938 L 6.132812 3.523438 L 6.007812 4.546875 L 6.25 5.078125 L 6.480469 6.070312 L 7.304688 7.675781 L 8.199219 8.820312 L 6.796875 11.125 L 5.957031 14.578125 L 4.988281 16.132812 L 3.625 18.097656 L 3.554688 19 L 2.515625 19.773438 L 3.773438 20.917969 L 3.566406 22.277344 L 3.6875 25.695312 L 4.164062 29.476562 L 4.648438 32 L 9.140625 32 L 8.804688 31.902344 L 9.238281 31.515625 L 9.164062 30.421875 L 9.625 29.476562 L 9.238281 29.523438 L 9.835938 28.304688 L 9.835938 26.785156 L 10.296875 26.15625 L 10.296875 25.328125 L 11.242188 23.613281 L 11.3125 22.519531 L 11.117188 21.621094 L 11.445312 20.601562 L 11.957031 19.773438 L 11.957031 19.265625 L 12.539062 19.191406 L 13.046875 18.679688 L 13.507812 17.394531 L 14.527344 16.25 L 15.742188 15.789062 L 16.492188 16.445312 L 18.359375 17.007812 L 19.835938 18.390625 L 20.539062 19.289062 L 21.75 19.414062 L 25.582031 21.085938 L 27.546875 21.796875 L 29.148438 23.007812 L 29.484375 22.910156 L 29.484375 22.449219 L 28.636719 21.796875 L 29.484375 22.011719 L 29.484375 20.1875 L 29.339844 20.1875 L 28.585938 19.875 L 28.078125 19.605469 L 28.828125 18.976562 L 29.023438 18.515625 L 28.90625 18.195312 L 28.199219 18.320312 L 26.722656 19.09375 L 26.527344 19.484375 L 26.015625 19.363281 L 24.175781 18.320312 L 24.101562 17.613281 L 23.011719 17.054688 L 21.171875 16.085938 L 20.710938 16.398438 L 20.78125 15.960938 L 19.765625 14.992188 L 19.398438 14.140625 L 18.578125 13.164062 L 18.3125 12.851562 L 19.132812 13.433594 L 19.011719 12.777344 L 19.664062 13.117188 L 19.472656 12.148438 L 20.367188 12.972656 L 19.984375 12.414062 L 20.878906 12.777344 L 20.101562 11.707031 L 20.683594 11.902344 L 20.417969 10.859375 L 20.878906 11.246094 L 20.226562 10.300781 L 20.878906 10.492188 L 20.296875 9.71875 L 21.070312 9.644531 L 20.226562 9.132812 L 20.734375 8.890625 L 20.175781 8.820312 L 20.929688 8.109375 L 20.226562 8.1875 L 20.296875 7.726562 L 20.367188 6.460938 L 19.984375 7.335938 L 19.523438 6.070312 L 19.59375 7.09375 L 19.328125 7.164062 L 18.695312 7.164062 L 17.460938 6.117188 L 16.757812 6.117188 L 15.933594 5.414062 L 15.546875 5.804688 L 14.578125 6.140625 L 13.636719 6.140625 L 13.367188 6.773438 L 13.636719 7.796875 L 13.492188 8.550781 L 12.859375 8.1875 L 12.351562 7.214844 L 10.9375 6.96875 L 10.503906 6.507812 L 9.53125 6.070312 L 8.867188 5.007812 L 8.941406 4.179688 L 11.632812 2.113281 L 12.894531 2.695312 L 13.085938 3.59375 L 13.085938 4.125 L 13.425781 4.5625 L 14.058594 4.757812 L 14.492188 4.367188 L 14.566406 3.929688 L 14.371094 3.546875 L 13.984375 3.351562 L 13.742188 2.578125 L 14.300781 2.308594 L 14.179688 1.675781 L 14.179688 1.289062 L 13.789062 0.898438 L 13.59375 0.316406 L 12.84375 0.148438 Z M 12.1875 0 "/></g></svg>
