<svg width="64" height="64" viewBox="0 0 64 64" version="1.1"><defs><linearGradient id="linear-pattern-0" gradientUnits="userSpaceOnUse" x1="0" y1="0" x2="0" y2="1" gradientTransform="matrix(60, 0, 0, 56, 0, 4)"><stop offset="0" stop-color="#d00068" stop-opacity="1"/><stop offset="1" stop-color="#6e0037" stop-opacity="1"/></linearGradient></defs><path fill="url(#linear-pattern-0)" fill-opacity="1" d="M 36.21875 2.050781 L 62.027344 27.605469 C 64.402344 29.957031 64.417969 33.785156 62.058594 36.15625 L 36.460938 61.917969 C 34.105469 64.289062 30.269531 64.304688 27.894531 61.949219 L 2.085938 36.394531 C -0.289062 34.042969 -0.304688 30.214844 2.050781 27.84375 L 27.652344 2.082031 C 30.007812 -0.289062 33.84375 -0.304688 36.21875 2.050781 Z M 36.21875 2.050781 " /><g transform="matrix(1.0075098,0,0,1.0032698,16.221436,16.077397)"><path fill-rule="evenodd" fill="rgb(100%, 100%, 100%)" fill-opacity="1" d="M 29 15.625 L 29 6.660156 C 28.980469 5.679688 28.578125 4.742188 27.882812 4.0625 C 27.160156 3.359375 26.21875 2.980469 25.21875 3 C 25.21875 3 25.21875 3 25.199219 3 L 21.792969 3 L 16.632812 15.625 Z M 29 17.53125 L 29 25.339844 C 28.980469 26.320312 28.578125 27.257812 27.882812 27.9375 C 27.160156 28.640625 26.21875 29.019531 25.21875 29 C 25.21875 29 25.21875 29 25.199219 29 L 11.175781 29 L 15.851562 17.53125 Z M 9.117188 29 L 6.800781 29 C 6.78125 29 6.78125 29 6.78125 29 C 5.78125 29.019531 4.839844 28.640625 4.117188 27.9375 C 3.421875 27.257812 3.019531 26.320312 3 25.339844 L 3 6.660156 C 3.019531 5.679688 3.421875 4.742188 4.117188 4.0625 C 4.839844 3.359375 5.78125 2.980469 6.78125 3 C 6.78125 3 6.78125 3 6.800781 3 L 19.59375 3 Z M 25.203125 1 C 28.414062 1 31 3.523438 31 6.648438 L 31 25.351562 C 31 28.476562 28.414062 31 25.203125 31 L 6.796875 31 C 3.585938 31 1 28.476562 1 25.351562 L 1 6.648438 C 1 3.523438 3.585938 1 6.796875 1 Z M 25.203125 1 "/></g></svg>
