<svg width="64" height="64" viewBox="0 0 64 64" version="1.1"><defs><linearGradient id="linear-pattern-0" gradientUnits="userSpaceOnUse" x1="0" y1="0" x2="0" y2="1" gradientTransform="matrix(60, 0, 0, 56, 0, 4)"><stop offset="0" stop-color="#3067ff" stop-opacity="1"/><stop offset="1" stop-color="#002ca6" stop-opacity="1"/></linearGradient></defs><path fill="url(#linear-pattern-0)" fill-opacity="1" d="M 36.21875 2.050781 L 62.027344 27.605469 C 64.402344 29.957031 64.417969 33.785156 62.058594 36.15625 L 36.460938 61.917969 C 34.105469 64.289062 30.269531 64.304688 27.894531 61.949219 L 2.085938 36.394531 C -0.289062 34.042969 -0.304688 30.214844 2.050781 27.84375 L 27.652344 2.082031 C 30.007812 -0.289062 33.84375 -0.304688 36.21875 2.050781 Z M 36.21875 2.050781 " /><g transform="matrix(1.0075098,0,0,1.0032698,16.221436,16.077397)"><path fill-rule="nonzero" fill="rgb(100%, 100%, 100%)" fill-opacity="1" d="M 15.023438 1.089844 C 7.371094 1.601562 1.277344 7.679688 0.765625 15.3125 L 10.007812 15.3125 C 10.441406 12.75 12.453125 10.742188 15.023438 10.304688 Z M 17.0625 1.089844 L 17.0625 10.304688 C 19.632812 10.742188 21.648438 12.75 22.082031 15.3125 L 31.320312 15.3125 C 30.8125 7.679688 24.71875 1.601562 17.0625 1.089844 Z M 0.765625 17.351562 C 1.277344 24.984375 7.371094 31.0625 15.023438 31.574219 L 15.023438 22.359375 C 12.453125 21.921875 10.441406 19.914062 10.007812 17.351562 Z M 22.082031 17.351562 C 21.648438 19.914062 19.632812 21.921875 17.0625 22.359375 L 17.0625 31.570312 C 24.71875 31.0625 30.8125 24.984375 31.320312 17.351562 Z M 22.082031 17.351562 "/></g></svg>
