<svg width="64" height="64" viewBox="0 0 64 64" version="1.1"><defs><linearGradient id="linear-pattern-0" gradientUnits="userSpaceOnUse" x1="0" y1="0" x2="0" y2="1" gradientTransform="matrix(60, 0, 0, 56, 0, 4)"><stop offset="0" stop-color="#d00068" stop-opacity="1"/><stop offset="1" stop-color="#6e0037" stop-opacity="1"/></linearGradient></defs><path fill="url(#linear-pattern-0)" fill-opacity="1" d="M 36.21875 2.050781 L 62.027344 27.605469 C 64.402344 29.957031 64.417969 33.785156 62.058594 36.15625 L 36.460938 61.917969 C 34.105469 64.289062 30.269531 64.304688 27.894531 61.949219 L 2.085938 36.394531 C -0.289062 34.042969 -0.304688 30.214844 2.050781 27.84375 L 27.652344 2.082031 C 30.007812 -0.289062 33.84375 -0.304688 36.21875 2.050781 Z M 36.21875 2.050781 " /><g transform="matrix(1.0075098,0,0,1.0032698,16.221436,16.077397)"><path fill-rule="evenodd" fill="rgb(100%, 100%, 100%)" fill-opacity="1" d="M 26.125 22.328125 C 26.398438 22.324219 26.742188 22.351562 27.019531 22.421875 L 27.359375 22.5 L 26.921875 22.6875 C 26.679688 22.792969 26.40625 22.875 26.308594 22.871094 C 26.0625 22.867188 25.648438 22.601562 25.648438 22.445312 C 25.648438 22.375 25.851562 22.335938 26.125 22.328125 Z M 6.761719 22.234375 C 7.054688 22.265625 7.015625 22.4375 6.59375 22.648438 C 6.34375 22.773438 6.078125 22.871094 6 22.867188 C 5.710938 22.851562 5.113281 22.628906 5.113281 22.539062 C 5.113281 22.445312 5.328125 22.398438 6.359375 22.253906 C 6.53125 22.230469 6.664062 22.226562 6.761719 22.234375 Z M 11.179688 21.949219 C 11.367188 22.039062 10.859375 22.414062 10.445312 22.484375 C 10.234375 22.523438 9.984375 22.632812 9.890625 22.726562 C 9.796875 22.816406 9.5625 22.957031 9.367188 23.039062 C 8.820312 23.265625 8.367188 23.308594 7.886719 23.183594 C 7.492188 23.085938 7.246094 22.765625 7.558594 22.765625 C 7.625 22.765625 7.914062 22.632812 8.207031 22.46875 C 8.601562 22.246094 9.050781 22.132812 9.90625 22.03125 C 10.546875 21.957031 11.117188 21.921875 11.179688 21.949219 Z M 21.5 22 C 21.648438 21.992188 21.859375 22 22.117188 22.023438 C 22.742188 22.078125 23.0625 22.164062 23.316406 22.359375 C 23.507812 22.507812 23.878906 22.71875 24.136719 22.820312 C 24.582031 23.007812 24.59375 23.023438 24.351562 23.171875 C 24.046875 23.351562 24.113281 23.359375 23.265625 23.085938 C 22.457031 22.824219 21.265625 22.210938 21.265625 22.058594 C 21.265625 22.023438 21.351562 22.003906 21.5 22 Z M 16.226562 22.039062 L 16.5625 22.375 C 16.742188 22.558594 16.996094 22.898438 17.121094 23.132812 C 17.25 23.359375 17.390625 23.550781 17.441406 23.550781 C 17.65625 23.550781 19.078125 24.398438 19.078125 24.523438 C 19.078125 24.679688 18.390625 25.007812 18.054688 25.007812 C 17.929688 25.007812 17.515625 25.183594 17.125 25.398438 C 16.277344 25.863281 16.039062 25.875 15.3125 25.476562 C 15.011719 25.3125 14.453125 25.050781 14.078125 24.898438 C 13.703125 24.742188 13.398438 24.539062 13.398438 24.449219 C 13.398438 24.359375 13.75 24.09375 14.179688 23.859375 C 14.667969 23.59375 15.070312 23.273438 15.230469 23.015625 C 15.375 22.78125 15.65625 22.472656 15.859375 22.320312 Z M 17.910156 21.867188 C 18.40625 21.871094 19.867188 22.367188 20.421875 22.757812 C 20.699219 22.953125 20.726562 23.046875 20.648438 23.492188 C 20.59375 23.769531 20.484375 23.996094 20.398438 23.992188 C 20.179688 23.984375 19.101562 23.449219 18.492188 23.046875 C 18.019531 22.734375 17.578125 22.046875 17.757812 21.902344 C 17.785156 21.882812 17.835938 21.867188 17.910156 21.867188 Z M 14.296875 21.859375 C 14.59375 21.851562 14.835938 21.917969 14.835938 22.0625 C 14.835938 22.382812 13.203125 23.53125 12.398438 23.773438 C 11.503906 24.050781 11.476562 24.050781 11.140625 23.773438 C 10.601562 23.335938 10.882812 23.03125 12.210938 22.605469 C 12.671875 22.453125 13.21875 22.230469 13.414062 22.101562 C 13.648438 21.953125 14 21.867188 14.296875 21.859375 Z M 21.550781 23.339844 C 21.773438 23.34375 21.96875 23.4375 21.886719 23.546875 C 21.773438 23.695312 21.3125 23.695312 21.199219 23.546875 C 21.152344 23.484375 21.210938 23.40625 21.328125 23.367188 C 21.398438 23.34375 21.476562 23.335938 21.550781 23.339844 Z M 10.316406 23.382812 C 10.414062 23.382812 10.523438 23.445312 10.554688 23.519531 C 10.585938 23.601562 10.492188 23.664062 10.316406 23.664062 C 10.140625 23.664062 10.042969 23.601562 10.078125 23.519531 C 10.109375 23.445312 10.214844 23.382812 10.316406 23.382812 Z M 29.679688 20.734375 C 27.484375 20.265625 27.460938 20.242188 27.792969 18.882812 C 28.054688 17.820312 28.570312 16.726562 28.820312 16.726562 C 29.21875 16.726562 29.722656 17.078125 29.953125 17.511719 C 30.101562 17.78125 30.34375 18.105469 30.5 18.226562 C 30.703125 18.382812 30.78125 18.621094 30.78125 19.074219 C 30.78125 19.808594 31.0625 20.339844 31.609375 20.644531 C 31.828125 20.761719 32 20.914062 32 20.984375 C 32 21.171875 31.484375 21.117188 29.679688 20.734375 Z M 7.074219 10.910156 L 6.378906 11.234375 C 5.476562 11.65625 5.058594 12.195312 4.820312 13.25 C 4.710938 13.71875 4.507812 14.226562 4.359375 14.375 C 4.21875 14.523438 3.921875 15.21875 3.703125 15.914062 C 3.484375 16.609375 3.226562 17.28125 3.132812 17.40625 C 2.972656 17.601562 2.929688 17.582031 2.71875 17.207031 C 2.589844 16.976562 2.421875 16.792969 2.351562 16.792969 C 2.09375 16.792969 1.449219 17.898438 1.1875 18.796875 C 0.890625 19.808594 0.605469 20.371094 0.183594 20.796875 C -0.03125 21.007812 -0.0546875 21.085938 0.09375 21.089844 C 0.265625 21.09375 4.496094 20.503906 6.441406 20.203125 C 7.046875 20.113281 7.070312 20.09375 7.304688 19.390625 C 7.4375 18.996094 7.757812 18.304688 8.019531 17.851562 L 8.496094 17.03125 L 8.476562 14.75 C 8.457031 12.28125 8.488281 12.398438 7.554688 11.410156 L 7.078125 10.90625 Z M 8.367188 18.414062 C 8.304688 18.425781 8.246094 18.476562 8.1875 18.574219 C 7.933594 19.03125 7.71875 19.78125 7.804688 19.914062 C 7.921875 20.082031 8.109375 20.082031 8.453125 19.914062 C 8.664062 19.8125 8.726562 19.636719 8.726562 19.210938 C 8.726562 18.71875 8.550781 18.390625 8.367188 18.414062 Z M 16.519531 21.09375 C 13.390625 21.066406 10.5 21.195312 7.988281 21.476562 C 3.492188 21.988281 1.648438 22.214844 1.523438 22.273438 C 1.3125 22.382812 1.5625 22.5 2.578125 22.746094 C 3.195312 22.898438 3.601562 23.066406 3.71875 23.21875 C 3.859375 23.40625 3.9375 23.429688 4.085938 23.324219 C 4.382812 23.125 5.09375 23.367188 5.71875 23.890625 C 6.28125 24.355469 6.410156 24.40625 6.550781 24.226562 C 6.597656 24.164062 6.859375 24.109375 7.140625 24.109375 C 7.417969 24.109375 7.734375 24.0625 7.847656 24 C 7.992188 23.929688 8.191406 23.964844 8.507812 24.117188 C 8.757812 24.234375 9.164062 24.335938 9.414062 24.335938 C 9.664062 24.335938 10.226562 24.488281 10.671875 24.671875 C 11.117188 24.859375 12.027344 25.21875 12.695312 25.476562 C 13.367188 25.730469 14.386719 26.15625 14.957031 26.421875 C 15.53125 26.6875 16.0625 26.90625 16.132812 26.910156 C 16.210938 26.910156 16.484375 26.804688 16.75 26.671875 C 17.851562 26.109375 21.539062 24.671875 21.859375 24.671875 C 22.054688 24.671875 22.25 24.617188 22.304688 24.550781 C 22.351562 24.484375 22.546875 24.460938 22.734375 24.5 C 22.984375 24.554688 23.183594 24.484375 23.542969 24.226562 C 24.125 23.808594 24.9375 23.75 25.207031 24.109375 C 25.445312 24.421875 25.597656 24.394531 26.101562 23.953125 C 26.695312 23.4375 27.351562 23.179688 27.847656 23.269531 C 28.144531 23.324219 28.359375 23.273438 28.695312 23.074219 C 28.9375 22.925781 29.417969 22.734375 29.757812 22.652344 C 30.554688 22.457031 30.628906 22.421875 30.492188 22.3125 C 30.335938 22.1875 27.9375 21.792969 26.472656 21.648438 C 23.015625 21.3125 19.648438 21.125 16.519531 21.09375 Z M 24.273438 19.429688 C 20.460938 18.804688 16.109375 18.625 12.648438 18.957031 C 11.46875 19.070312 10.714844 19.09375 10.640625 19.011719 C 10.578125 18.941406 10.433594 18.324219 10.324219 17.640625 C 10.132812 16.46875 10.132812 16.320312 10.34375 15.070312 C 10.664062 13.179688 10.8125 12.6875 11.273438 12.054688 C 11.6875 11.484375 12.109375 11.332031 12.34375 11.664062 C 12.613281 12.0625 13.117188 14.140625 13.117188 14.859375 C 13.117188 16.050781 13.355469 15.554688 13.5 14.066406 C 13.640625 12.605469 13.679688 12.414062 14.265625 10.253906 C 14.5 9.382812 14.734375 8.234375 14.78125 7.703125 C 14.835938 7.140625 14.953125 6.617188 15.078125 6.4375 C 15.195312 6.265625 15.363281 5.929688 15.453125 5.691406 C 15.726562 4.9375 15.828125 4.921875 16.925781 5.476562 L 17.929688 5.980469 L 18.226562 7.007812 C 18.390625 7.570312 18.636719 8.351562 18.773438 8.742188 C 18.914062 9.136719 19.25 10.386719 19.515625 11.523438 C 19.8125 12.789062 20.078125 13.652344 20.203125 13.75 C 20.429688 13.9375 20.9375 15.378906 21.0625 16.21875 C 21.109375 16.523438 21.234375 16.882812 21.332031 17.023438 C 21.5 17.25 21.507812 17.191406 21.4375 16.453125 C 21.398438 16.007812 21.308594 15.410156 21.242188 15.128906 C 21.09375 14.492188 21.261719 13.359375 21.605469 12.707031 C 21.742188 12.453125 21.96875 11.753906 22.117188 11.15625 C 22.460938 9.761719 22.570312 9.632812 23.117188 9.9375 C 24.175781 10.535156 24.390625 10.84375 24.820312 12.390625 C 25.042969 13.1875 25.328125 14.035156 25.460938 14.277344 C 25.734375 14.789062 26.179688 16.890625 26.179688 17.679688 C 26.1875 18.632812 25.796875 19.699219 25.46875 19.632812 C 25.421875 19.625 24.886719 19.53125 24.273438 19.429688 Z M 24.273438 19.429688 "/></g></svg>
