<svg width="64" height="64" viewBox="0 0 64 64" version="1.1"><defs><linearGradient id="linear-pattern-0" gradientUnits="userSpaceOnUse" x1="0" y1="0" x2="0" y2="1" gradientTransform="matrix(60, 0, 0, 56, 0, 4)"><stop offset="0" stop-color="#6926fc" stop-opacity="1"/><stop offset="1" stop-color="#3702ab" stop-opacity="1"/></linearGradient></defs><path fill="url(#linear-pattern-0)" fill-opacity="1" d="M 36.21875 2.050781 L 62.027344 27.605469 C 64.402344 29.957031 64.417969 33.785156 62.058594 36.15625 L 36.460938 61.917969 C 34.105469 64.289062 30.269531 64.304688 27.894531 61.949219 L 2.085938 36.394531 C -0.289062 34.042969 -0.304688 30.214844 2.050781 27.84375 L 27.652344 2.082031 C 30.007812 -0.289062 33.84375 -0.304688 36.21875 2.050781 Z M 36.21875 2.050781 " /><g transform="matrix(1.0075098,0,0,1.0032698,16.221436,16.077397)"><path fill-rule="evenodd" fill="rgb(100%, 100%, 100%)" fill-opacity="1" d="M 4.390625 0 L 1.335938 21.335938 L 10.132812 32 L 21.867188 32 L 30.664062 21.335938 L 27.609375 0 Z M 9.640625 2.664062 L 22.359375 2.664062 L 28.835938 21.335938 L 21.347656 29.539062 L 20 29.539062 L 20 25.777344 L 12 25.777344 L 12 29.539062 L 10.652344 29.539062 L 3.164062 21.335938 Z M 9.890625 3.554688 L 11.109375 7.109375 L 13.554688 7.109375 L 14.777344 14.222656 L 17.222656 14.222656 L 18.445312 7.109375 L 20.890625 7.109375 L 22.109375 3.554688 Z M 6.222656 15.109375 L 11.25 22.15625 L 12 18.664062 Z M 25.777344 15.109375 L 20 18.664062 L 20.75 22.15625 Z M 25.777344 15.109375 "/></g></svg>
