<svg width="64" height="64" viewBox="0 0 64 64" version="1.1"><defs><linearGradient id="linear-pattern-0" gradientUnits="userSpaceOnUse" x1="0" y1="0" x2="0" y2="1" gradientTransform="matrix(60, 0, 0, 56, 0, 4)"><stop offset="0" stop-color="#7795ab" stop-opacity="1"/><stop offset="1" stop-color="#3b4f5f" stop-opacity="1"/></linearGradient></defs><path fill="url(#linear-pattern-0)" fill-opacity="1" d="M 36.21875 2.050781 L 62.027344 27.605469 C 64.402344 29.957031 64.417969 33.785156 62.058594 36.15625 L 36.460938 61.917969 C 34.105469 64.289062 30.269531 64.304688 27.894531 61.949219 L 2.085938 36.394531 C -0.289062 34.042969 -0.304688 30.214844 2.050781 27.84375 L 27.652344 2.082031 C 30.007812 -0.289062 33.84375 -0.304688 36.21875 2.050781 Z M 36.21875 2.050781 " /><g transform="matrix(1.0075098,0,0,1.0032698,16.221436,16.077397)"><path fill-rule="evenodd" fill="rgb(100%, 100%, 100%)" fill-opacity="1" d="M 16.023438 16.28125 C 15.941406 16.203125 15.882812 16.152344 15.820312 16.09375 C 13.882812 14.234375 11.945312 12.367188 10.007812 10.515625 C 9.117188 9.664062 7.757812 9.695312 6.910156 10.574219 C 6.078125 11.4375 6.085938 12.8125 6.96875 13.65625 C 9.476562 16.085938 12 18.507812 14.523438 20.921875 C 15.363281 21.726562 16.660156 21.71875 17.515625 20.925781 C 17.855469 20.609375 18.1875 20.28125 18.523438 19.953125 C 20.683594 17.882812 22.84375 15.804688 25 13.734375 C 25.523438 13.234375 25.796875 12.632812 25.726562 11.917969 C 25.640625 11.007812 25.15625 10.351562 24.296875 10.039062 C 23.4375 9.726562 22.65625 9.914062 21.992188 10.546875 C 20.90625 11.585938 19.828125 12.625 18.742188 13.664062 C 17.84375 14.53125 16.941406 15.398438 16.023438 16.28125 Z M 16.015625 1.671875 C 20.367188 1.671875 24.71875 1.671875 29.066406 1.671875 C 30.414062 1.671875 31.570312 2.542969 31.90625 3.804688 C 31.960938 4.007812 31.992188 4.21875 31.992188 4.421875 C 31.996094 7.820312 32.011719 11.21875 31.984375 14.617188 C 31.949219 18.089844 30.898438 21.234375 28.761719 23.976562 C 26.382812 27.03125 23.320312 29.046875 19.539062 29.917969 C 10.859375 31.921875 2.566406 26.320312 0.515625 18.484375 C 0.246094 17.4375 0.0625 16.375 0.0546875 15.296875 C 0.0234375 11.679688 0 8.066406 0 4.449219 C 0 2.929688 1.359375 1.671875 2.945312 1.671875 C 7.304688 1.671875 11.660156 1.671875 16.015625 1.671875 Z M 16.015625 1.671875 "/></g></svg>
