<svg width="64" height="64" viewBox="0 0 64 64" version="1.1"><defs><linearGradient id="linear-pattern-0" gradientUnits="userSpaceOnUse" x1="0" y1="0" x2="0" y2="1" gradientTransform="matrix(60, 0, 0, 56, 0, 4)"><stop offset="0" stop-color="#aaaa00" stop-opacity="1"/><stop offset="1" stop-color="#5c5c00" stop-opacity="1"/></linearGradient></defs><path fill="url(#linear-pattern-0)" fill-opacity="1" d="M 36.21875 2.050781 L 62.027344 27.605469 C 64.402344 29.957031 64.417969 33.785156 62.058594 36.15625 L 36.460938 61.917969 C 34.105469 64.289062 30.269531 64.304688 27.894531 61.949219 L 2.085938 36.394531 C -0.289062 34.042969 -0.304688 30.214844 2.050781 27.84375 L 27.652344 2.082031 C 30.007812 -0.289062 33.84375 -0.304688 36.21875 2.050781 Z M 36.21875 2.050781 " /><g transform="matrix(1.0075098,0,0,1.0032698,16.221436,16.077397)"><path fill-rule="nonzero" fill="rgb(100%, 100%, 100%)" fill-opacity="1" d="M 16.117188 0.4375 C 7.460938 0.4375 0.539062 9.304688 0.539062 22.601562 C 0.539062 24.769531 0.671875 26.59375 0.976562 28.132812 L 7.460938 11.519531 L 7.460938 20.386719 L 14.382812 20.386719 L 14.382812 11.519531 L 16.117188 20.386719 L 23.042969 20.386719 L 24.773438 11.519531 C 26.210938 18.898438 28.851562 18.617188 31.695312 22.140625 C 29.96875 9.304688 24.773438 0.4375 16.117188 0.4375 Z M 5.730469 24.820312 L 5.730469 25.929688 C 5.730469 28.988281 7.667969 31.46875 10.058594 31.46875 C 12.449219 31.46875 14.382812 28.988281 14.382812 25.929688 L 14.382812 24.820312 Z M 21.3125 24.820312 L 21.3125 25.929688 C 21.3125 28.988281 23.25 31.46875 25.640625 31.46875 C 28.03125 31.46875 29.96875 28.988281 29.96875 25.929688 L 29.96875 24.820312 Z M 21.3125 24.820312 "/></g></svg>
