<svg width="64" height="64" viewBox="0 0 64 64" version="1.1"><defs><linearGradient id="linear-pattern-0" gradientUnits="userSpaceOnUse" x1="0" y1="0" x2="0" y2="1" gradientTransform="matrix(60, 0, 0, 56, 0, 4)"><stop offset="0" stop-color="#aaaa00" stop-opacity="1"/><stop offset="1" stop-color="#5c5c00" stop-opacity="1"/></linearGradient></defs><path fill="url(#linear-pattern-0)" fill-opacity="1" d="M 36.21875 2.050781 L 62.027344 27.605469 C 64.402344 29.957031 64.417969 33.785156 62.058594 36.15625 L 36.460938 61.917969 C 34.105469 64.289062 30.269531 64.304688 27.894531 61.949219 L 2.085938 36.394531 C -0.289062 34.042969 -0.304688 30.214844 2.050781 27.84375 L 27.652344 2.082031 C 30.007812 -0.289062 33.84375 -0.304688 36.21875 2.050781 Z M 36.21875 2.050781 " /><g transform="matrix(1.0075098,0,0,1.0032698,16.221436,16.077397)"><path fill-rule="nonzero" fill="rgb(100%, 100%, 100%)" fill-opacity="1" d="M 16.066406 0.84375 C 7.582031 0.914062 0.742188 7.742188 0.742188 16.148438 C 0.742188 24.601562 7.660156 31.453125 16.195312 31.453125 C 24.726562 31.453125 31.648438 24.601562 31.648438 16.148438 C 31.648438 7.695312 24.726562 0.84375 16.195312 0.84375 C 16.152344 0.84375 16.109375 0.84375 16.066406 0.84375 Z M 16.195312 7.289062 C 21.132812 7.289062 25.140625 11.253906 25.140625 16.148438 C 25.140625 21.039062 21.132812 25.007812 16.195312 25.007812 C 11.253906 25.007812 7.25 21.039062 7.25 16.148438 C 7.25 11.253906 11.253906 7.289062 16.195312 7.289062 Z M 16.195312 7.289062 "/></g></svg>
