<svg width="64" height="64" viewBox="0 0 64 64" version="1.1"><defs><linearGradient id="linear-pattern-0" gradientUnits="userSpaceOnUse" x1="0" y1="0" x2="0" y2="1" gradientTransform="matrix(60, 0, 0, 56, 0, 4)"><stop offset="0" stop-color="#0288cf" stop-opacity="1"/><stop offset="1" stop-color="#01486e" stop-opacity="1"/></linearGradient></defs><path fill="url(#linear-pattern-0)" fill-opacity="1" d="M 36.21875 2.050781 L 62.027344 27.605469 C 64.402344 29.957031 64.417969 33.785156 62.058594 36.15625 L 36.460938 61.917969 C 34.105469 64.289062 30.269531 64.304688 27.894531 61.949219 L 2.085938 36.394531 C -0.289062 34.042969 -0.304688 30.214844 2.050781 27.84375 L 27.652344 2.082031 C 30.007812 -0.289062 33.84375 -0.304688 36.21875 2.050781 Z M 36.21875 2.050781 " /><g transform="matrix(1.0075098,0,0,1.0032698,16.221436,16.077397)"><path fill-rule="evenodd" fill="rgb(100%, 100%, 100%)" fill-opacity="1" d="M 2.859375 21.140625 L 2.859375 23.828125 C 2.859375 24.554688 3.445312 25.140625 4.171875 25.140625 L 27.828125 25.140625 C 28.554688 25.140625 29.140625 24.554688 29.140625 23.828125 L 29.140625 8.171875 C 29.140625 7.445312 28.554688 6.859375 27.828125 6.859375 L 4.171875 6.859375 C 3.445312 6.859375 2.859375 7.445312 2.859375 8.171875 L 2.859375 10.859375 L 1.070312 10.859375 C 0.476562 10.859375 0 11.347656 0 11.960938 L 0 20.039062 C 0 20.652344 0.476562 21.140625 1.070312 21.140625 Z M 30.929688 21.140625 C 31.523438 21.140625 32 20.652344 32 20.039062 L 32 11.960938 C 32 11.347656 31.523438 10.859375 30.929688 10.859375 L 29.140625 10.859375 L 29.140625 21.140625 Z M 16 11.429688 C 14.140625 11.429688 12.464844 12.5625 11.765625 14.285156 L 9.234375 14.285156 L 9.164062 14.171875 L 8.4375 12.96875 C 8.28125 12.710938 7.984375 12.554688 7.671875 12.570312 C 7.390625 12.585938 7.132812 12.734375 6.992188 12.96875 L 6.265625 14.171875 L 6.195312 14.285156 L 4 14.285156 L 4 13.714844 C 4 13.082031 3.492188 12.570312 2.859375 12.570312 L 2.285156 12.570312 C 1.652344 12.570312 1.140625 13.082031 1.140625 13.714844 L 1.140625 18.285156 C 1.140625 18.917969 1.652344 19.429688 2.285156 19.429688 L 2.859375 19.429688 C 3.492188 19.429688 4 18.917969 4 18.285156 L 4 17.714844 L 6.195312 17.714844 L 6.265625 17.828125 L 6.992188 19.027344 C 7.132812 19.265625 7.390625 19.414062 7.671875 19.429688 C 7.984375 19.445312 8.28125 19.289062 8.4375 19.027344 L 9.164062 17.828125 L 9.234375 17.714844 L 11.765625 17.714844 C 12.460938 19.4375 14.140625 20.570312 16 20.570312 C 17.859375 20.570312 19.535156 19.4375 20.234375 17.714844 L 22.765625 17.714844 L 22.835938 17.828125 L 23.5625 19.027344 C 23.703125 19.265625 23.957031 19.414062 24.242188 19.429688 C 24.554688 19.445312 24.851562 19.289062 25.007812 19.027344 L 25.734375 17.828125 L 25.804688 17.714844 L 28 17.714844 L 28 18.285156 C 28 18.917969 28.507812 19.429688 29.140625 19.429688 L 29.714844 19.429688 C 30.347656 19.429688 30.859375 18.917969 30.859375 18.285156 L 30.859375 13.714844 C 30.859375 13.082031 30.347656 12.570312 29.714844 12.570312 L 29.140625 12.570312 C 28.507812 12.570312 28 13.082031 28 13.714844 L 28 14.285156 L 25.804688 14.285156 L 25.734375 14.171875 L 25.007812 12.96875 C 24.851562 12.710938 24.554688 12.554688 24.242188 12.570312 C 23.957031 12.585938 23.703125 12.734375 23.5625 12.96875 L 22.835938 14.171875 L 22.765625 14.285156 L 20.234375 14.285156 C 19.539062 12.5625 17.859375 11.429688 16 11.429688 Z M 16 11.429688 "/></g></svg>
