<svg width="64" height="64" viewBox="0 0 64 64" version="1.1"><defs><linearGradient id="linear-pattern-0" gradientUnits="userSpaceOnUse" x1="0" y1="0" x2="0" y2="1" gradientTransform="matrix(60, 0, 0, 56, 0, 4)"><stop offset="0" stop-color="#ec7700" stop-opacity="1"/><stop offset="1" stop-color="#773c00" stop-opacity="1"/></linearGradient></defs><path fill="url(#linear-pattern-0)" fill-opacity="1" d="M 36.21875 2.050781 L 62.027344 27.605469 C 64.402344 29.957031 64.417969 33.785156 62.058594 36.15625 L 36.460938 61.917969 C 34.105469 64.289062 30.269531 64.304688 27.894531 61.949219 L 2.085938 36.394531 C -0.289062 34.042969 -0.304688 30.214844 2.050781 27.84375 L 27.652344 2.082031 C 30.007812 -0.289062 33.84375 -0.304688 36.21875 2.050781 Z M 36.21875 2.050781 " /><g transform="matrix(1.0075098,0,0,1.0032698,16.221436,16.077397)"><path fill-rule="evenodd" fill="rgb(100%, 100%, 100%)" fill-opacity="1" d="M 9.03125 0.949219 C 10.070312 0.695312 11.140625 1.257812 11.421875 2.195312 C 11.476562 2.375 11.492188 2.554688 11.484375 2.734375 C 15.671875 2.15625 18.523438 3.738281 19.734375 7.054688 C 21.203125 10.277344 22.132812 13.6875 25.6875 17.046875 C 27.210938 18.324219 28.53125 19.605469 31.46875 20.871094 C 32.042969 22.347656 30.742188 23.125 30.1875 23.578125 L 21.324219 25.703125 C 21.339844 25.742188 21.351562 25.777344 21.363281 25.816406 C 22.046875 28.136719 20.527344 30.523438 17.964844 31.148438 C 15.40625 31.769531 12.773438 30.394531 12.085938 28.070312 C 12.078125 28.023438 12.0625 27.976562 12.046875 27.933594 L 3.140625 30.078125 C 2.226562 29.960938 1.226562 29.976562 0.601562 28.363281 C 1.910156 26.5625 2.964844 24.875 3.460938 22.890625 C 3.476562 22.820312 3.515625 22.75 3.539062 22.679688 C 4.398438 18.234375 3.953125 14.390625 3.148438 11.082031 C 2.1875 8.011719 4.148438 5.0625 7.90625 3.625 C 7.796875 3.46875 7.707031 3.296875 7.652344 3.117188 C 7.375 2.171875 7.992188 1.203125 9.03125 0.949219 "/></g></svg>
