<svg width="64" height="64" viewBox="0 0 64 64" version="1.1"><defs><linearGradient id="linear-pattern-0" gradientUnits="userSpaceOnUse" x1="0" y1="0" x2="0" y2="1" gradientTransform="matrix(60, 0, 0, 56, 0, 4)"><stop offset="0" stop-color="#8900e4" stop-opacity="1"/><stop offset="1" stop-color="#42006e" stop-opacity="1"/></linearGradient></defs><path fill="url(#linear-pattern-0)" fill-opacity="1" d="M 36.21875 2.050781 L 62.027344 27.605469 C 64.402344 29.957031 64.417969 33.785156 62.058594 36.15625 L 36.460938 61.917969 C 34.105469 64.289062 30.269531 64.304688 27.894531 61.949219 L 2.085938 36.394531 C -0.289062 34.042969 -0.304688 30.214844 2.050781 27.84375 L 27.652344 2.082031 C 30.007812 -0.289062 33.84375 -0.304688 36.21875 2.050781 Z M 36.21875 2.050781 " /><g transform="matrix(1.0075098,0,0,1.0032698,16.221436,16.077397)"><path fill="none" stroke-width="18.084999" stroke-linecap="round" stroke-linejoin="round" stroke="rgb(100%, 100%, 100%)" stroke-opacity="1" stroke-miterlimit="4" d="M 131.369705 189.745585 L 374.755225 189.745585 C 382.456837 189.745585 388.698427 196.022919 388.698427 203.705625 L 388.698427 302.394049 C 388.698427 310.139217 382.456837 316.354089 374.755225 316.354089 L 131.369705 316.354089 C 123.631593 316.354089 117.426503 310.139217 117.426503 302.394049 L 117.426503 203.705625 C 117.426503 196.022919 123.631593 189.745585 131.369705 189.745585 Z M 131.369705 189.745585 " transform="matrix(0.107019, 0, 0, 0.125078, -10.953586, -15.580653)"/><path fill-rule="nonzero" fill="rgb(100%, 100%, 100%)" fill-opacity="1" d="M 10.292969 10.414062 C 10.023438 10.414062 9.8125 10.664062 9.8125 10.976562 L 9.8125 21.160156 C 9.8125 21.472656 10.023438 21.726562 10.292969 21.726562 L 21.960938 21.726562 C 22.226562 21.726562 22.441406 21.472656 22.441406 21.160156 L 22.441406 10.976562 C 22.441406 10.664062 22.226562 10.414062 21.960938 10.414062 Z M 13.679688 18.328125 L 13.679688 13.808594 L 14.648438 13.808594 L 14.648438 18.328125 Z M 15.617188 18.328125 L 15.617188 13.808594 L 16.582031 13.808594 L 16.582031 18.328125 Z M 17.554688 18.328125 L 17.554688 13.808594 L 18.519531 13.808594 L 18.519531 18.328125 Z M 17.554688 18.328125 "/></g></svg>
