<svg width="64" height="64" viewBox="0 0 64 64" version="1.1"><defs><linearGradient id="linear-pattern-0" gradientUnits="userSpaceOnUse" x1="0" y1="0" x2="0" y2="1" gradientTransform="matrix(60, 0, 0, 56, 0, 4)"><stop offset="0" stop-color="#aaaa00" stop-opacity="1"/><stop offset="1" stop-color="#5c5c00" stop-opacity="1"/></linearGradient></defs><path fill="url(#linear-pattern-0)" fill-opacity="1" d="M 36.21875 2.050781 L 62.027344 27.605469 C 64.402344 29.957031 64.417969 33.785156 62.058594 36.15625 L 36.460938 61.917969 C 34.105469 64.289062 30.269531 64.304688 27.894531 61.949219 L 2.085938 36.394531 C -0.289062 34.042969 -0.304688 30.214844 2.050781 27.84375 L 27.652344 2.082031 C 30.007812 -0.289062 33.84375 -0.304688 36.21875 2.050781 Z M 36.21875 2.050781 " /><g transform="matrix(1.0075098,0,0,1.0032698,16.221436,16.077397)"><path fill-rule="nonzero" fill="rgb(100%, 100%, 100%)" fill-opacity="1" d="M 18.824219 2.824219 C 18.824219 4.382812 17.5625 5.648438 16 5.648438 C 14.4375 5.648438 13.175781 4.382812 13.175781 2.824219 C 13.175781 1.265625 14.4375 0 16 0 C 17.5625 0 18.824219 1.265625 18.824219 2.824219 Z M 18.824219 2.824219 "/><path fill-rule="nonzero" fill="rgb(100%, 100%, 100%)" fill-opacity="1" d="M 18.824219 29.175781 C 18.824219 30.734375 17.5625 32 16 32 C 14.4375 32 13.175781 30.734375 13.175781 29.175781 C 13.175781 27.617188 14.4375 26.351562 16 26.351562 C 17.5625 26.351562 18.824219 27.617188 18.824219 29.175781 Z M 18.824219 29.175781 "/><path fill-rule="nonzero" fill="rgb(100%, 100%, 100%)" fill-opacity="1" d="M 29.175781 18.824219 C 30.734375 18.824219 32 17.558594 32 16 C 32 14.441406 30.734375 13.175781 29.175781 13.175781 C 27.617188 13.175781 26.351562 14.441406 26.351562 16 C 26.351562 17.558594 27.617188 18.824219 29.175781 18.824219 Z M 29.175781 18.824219 "/><path fill-rule="nonzero" fill="rgb(100%, 100%, 100%)" fill-opacity="1" d="M 2.824219 18.824219 C 4.382812 18.824219 5.648438 17.558594 5.648438 16 C 5.648438 14.441406 4.382812 13.175781 2.824219 13.175781 C 1.265625 13.175781 0 14.441406 0 16 C 0 17.558594 1.265625 18.824219 2.824219 18.824219 Z M 2.824219 18.824219 "/><path fill-rule="nonzero" fill="rgb(100%, 100%, 100%)" fill-opacity="1" d="M 23.320312 27.3125 C 24.421875 28.414062 26.210938 28.414062 27.3125 27.3125 C 28.414062 26.210938 28.414062 24.421875 27.3125 23.320312 C 26.210938 22.21875 24.421875 22.21875 23.320312 23.320312 C 22.21875 24.421875 22.21875 26.210938 23.320312 27.3125 Z M 23.320312 27.3125 "/><path fill-rule="nonzero" fill="rgb(100%, 100%, 100%)" fill-opacity="1" d="M 4.6875 8.679688 C 5.789062 9.78125 7.578125 9.78125 8.679688 8.679688 C 9.78125 7.578125 9.78125 5.789062 8.679688 4.6875 C 7.578125 3.585938 5.789062 3.585938 4.6875 4.6875 C 3.585938 5.789062 3.585938 7.578125 4.6875 8.679688 Z M 4.6875 8.679688 "/><path fill-rule="nonzero" fill="rgb(100%, 100%, 100%)" fill-opacity="1" d="M 8.679688 27.3125 C 7.578125 28.414062 5.789062 28.414062 4.6875 27.3125 C 3.585938 26.210938 3.585938 24.421875 4.6875 23.320312 C 5.789062 22.21875 7.578125 22.21875 8.679688 23.320312 C 9.78125 24.421875 9.78125 26.210938 8.679688 27.3125 Z M 8.679688 27.3125 "/><path fill-rule="nonzero" fill="rgb(100%, 100%, 100%)" fill-opacity="1" d="M 27.3125 8.679688 C 26.210938 9.78125 24.421875 9.78125 23.320312 8.679688 C 22.21875 7.578125 22.21875 5.789062 23.320312 4.6875 C 24.421875 3.585938 26.210938 3.585938 27.3125 4.6875 C 28.414062 5.789062 28.414062 7.578125 27.3125 8.679688 Z M 27.3125 8.679688 "/></g></svg>
