<svg width="64" height="64" viewBox="0 0 64 64" version="1.1"><defs><linearGradient id="linear-pattern-0" gradientUnits="userSpaceOnUse" x1="0" y1="0" x2="0" y2="1" gradientTransform="matrix(60, 0, 0, 56, 0, 4)"><stop offset="0" stop-color="#00a07f" stop-opacity="1"/><stop offset="1" stop-color="#005241" stop-opacity="1"/></linearGradient></defs><path fill="url(#linear-pattern-0)" fill-opacity="1" d="M 36.21875 2.050781 L 62.027344 27.605469 C 64.402344 29.957031 64.417969 33.785156 62.058594 36.15625 L 36.460938 61.917969 C 34.105469 64.289062 30.269531 64.304688 27.894531 61.949219 L 2.085938 36.394531 C -0.289062 34.042969 -0.304688 30.214844 2.050781 27.84375 L 27.652344 2.082031 C 30.007812 -0.289062 33.84375 -0.304688 36.21875 2.050781 Z M 36.21875 2.050781 " /><g transform="matrix(1.0075098,0,0,1.0032698,16.221436,16.077397)"><path fill-rule="evenodd" fill="rgb(100%, 100%, 100%)" fill-opacity="1" stroke-width="1" stroke-linecap="butt" stroke-linejoin="miter" stroke="rgb(100%, 100%, 100%)" stroke-opacity="1" stroke-miterlimit="4" d="M 1106.190522 720.758152 C 1052.184099 730.041146 1011.087744 777.086179 1011.087744 833.750242 C 1011.087744 897.051015 1062.395921 948.380507 1125.742424 948.380507 C 1182.405581 948.380507 1229.396565 907.258107 1238.695135 853.240327 C 1223.584959 890.582323 1187.054866 916.961145 1144.25654 916.961145 C 1088.091521 916.961145 1042.470415 871.386269 1042.470415 815.184255 C 1042.470415 772.42368 1068.87171 735.837766 1106.232033 720.758152 Z M 1106.190522 720.758152 " transform="matrix(0.0941005, 0, 0, 0.092996, -94.491516, -56.551064)"/><path fill-rule="evenodd" fill="rgb(100%, 100%, 100%)" fill-opacity="1" stroke-width="1" stroke-linecap="butt" stroke-linejoin="miter" stroke="rgb(100%, 100%, 100%)" stroke-opacity="1" stroke-miterlimit="4" d="M 261.625828 150.342238 L 239.707772 155.928835 L 231.862104 177.183109 L 219.823777 158.071065 L 197.158515 157.18897 L 211.646018 139.757105 L 205.50232 117.956773 L 226.507124 126.357671 L 245.31182 113.756323 L 243.858919 136.354741 Z M 261.625828 150.342238 " transform="matrix(0.0941005, 0, 0, 0.092996, -12.458964, -7.239039)"/><path fill-rule="evenodd" fill="rgb(100%, 100%, 100%)" fill-opacity="1" stroke-width="1" stroke-linecap="butt" stroke-linejoin="miter" stroke="rgb(100%, 100%, 100%)" stroke-opacity="1" stroke-miterlimit="4" d="M 261.657625 150.350067 L 239.698058 155.936665 L 231.893901 177.148935 L 219.772552 158.03689 L 197.190312 157.154795 L 211.636304 139.764935 L 205.492606 117.964602 L 226.538921 126.365501 L 245.343617 113.764153 L 243.890716 136.320566 Z M 261.657625 150.350067 " transform="matrix(0.0941005, 0, 0, 0.092996, 3.795856, -3.950705)"/><path fill-rule="evenodd" fill="rgb(100%, 100%, 100%)" fill-opacity="1" stroke-width="1" stroke-linecap="butt" stroke-linejoin="miter" stroke="rgb(100%, 100%, 100%)" stroke-opacity="1" stroke-miterlimit="4" d="M 261.659069 150.35319 L 239.699502 155.939788 L 231.853834 177.152057 L 219.773996 158.040012 L 197.191756 157.199923 L 211.637748 139.726053 L 205.49405 117.967725 L 226.540366 126.368624 L 245.30355 113.767276 L 243.89216 136.323689 Z M 261.659069 150.35319 " transform="matrix(0.0941005, 0, 0, 0.092996, -3.04803, -9.868964)"/><path fill-rule="evenodd" fill="rgb(100%, 100%, 100%)" fill-opacity="1" d="M 31.363281 18.863281 L 29.296875 19.378906 L 28.5625 21.359375 L 27.425781 19.578125 L 25.296875 19.496094 L 26.65625 17.875 L 26.078125 15.851562 L 28.054688 16.628906 L 29.828125 15.457031 L 29.6875 17.558594 Z M 31.363281 18.863281 "/></g></svg>
