<svg width="64" height="64" viewBox="0 0 64 64" version="1.1"><defs><linearGradient id="linear-pattern-0" gradientUnits="userSpaceOnUse" x1="0" y1="0" x2="0" y2="1" gradientTransform="matrix(60, 0, 0, 56, 0, 4)"><stop offset="0" stop-color="#00983a" stop-opacity="1"/><stop offset="1" stop-color="#004a1c" stop-opacity="1"/></linearGradient></defs><path fill="url(#linear-pattern-0)" fill-opacity="1" d="M 36.21875 2.050781 L 62.027344 27.605469 C 64.402344 29.957031 64.417969 33.785156 62.058594 36.15625 L 36.460938 61.917969 C 34.105469 64.289062 30.269531 64.304688 27.894531 61.949219 L 2.085938 36.394531 C -0.289062 34.042969 -0.304688 30.214844 2.050781 27.84375 L 27.652344 2.082031 C 30.007812 -0.289062 33.84375 -0.304688 36.21875 2.050781 Z M 36.21875 2.050781 " /><g transform="matrix(1.0075098,0,0,1.0032698,16.221436,16.077397)"><path fill-rule="nonzero" fill="rgb(100%, 100%, 100%)" fill-opacity="1" d="M 15.824219 0.605469 C 7.640625 0.605469 0.949219 7.273438 0.457031 15.695312 C 0.609375 16.085938 0.964844 16.351562 1.164062 16.734375 L 1.265625 17.671875 L 1.429688 16.804688 L 3.21875 17.59375 L 4.460938 18.800781 L 5.523438 18.964844 C 5.144531 19.867188 4.375 21.324219 4.515625 22.335938 C 4.597656 22.921875 5.164062 23.757812 5.492188 24.238281 C 5.953125 24.90625 6.8125 25.296875 7.039062 26.140625 L 7.078125 27.523438 L 7.328125 28.5625 C 7.289062 28.921875 7.011719 29.507812 7.0625 29.929688 C 7.769531 30.4375 8.515625 30.886719 9.296875 31.273438 C 9.4375 31.132812 9.417969 30.84375 9.296875 30.632812 L 9.898438 29.753906 L 10.671875 29.15625 L 11.210938 27.183594 L 12.378906 26.390625 C 12.859375 25.636719 12.511719 25.007812 12.6875 24.238281 L 13.476562 21.902344 C 12.585938 21.554688 11.3125 21.125 10.6875 20.347656 L 10.523438 20.4375 L 10.359375 19.65625 L 9.375 19.140625 L 9.210938 19.3125 L 8.96875 18.101562 L 7.65625 17.988281 L 6.671875 17.425781 C 6.246094 17.359375 5.683594 18.09375 5.523438 18.445312 L 4.949219 18.359375 L 5.117188 18.1875 L 4.625 17.839844 L 4.703125 18.1875 C 4.351562 17.800781 4.289062 17.316406 4.375 16.804688 L 3.804688 16.542969 L 3.71875 16.804688 C 3.617188 16.375 3.660156 15.820312 3.96875 15.507812 C 3.515625 15.183594 3.21875 15.488281 2.902344 15.851562 L 2.246094 14.46875 C 2.0625 14.894531 2.132812 15.320312 2.164062 15.765625 L 2 15.765625 C 1.960938 15.28125 1.851562 14.753906 2.085938 14.296875 C 2.515625 13.445312 3.820312 13.085938 4.625 13.257812 L 4.539062 13.433594 L 5.28125 14.125 C 5.28125 12.804688 5.773438 12.664062 6.46875 11.703125 L 6.953125 10.773438 C 7.488281 10.148438 8.324219 9.726562 9.042969 9.445312 L 9.945312 8.851562 C 9.65625 8.320312 8.886719 8.46875 8.390625 8.507812 C 9.28125 7.976562 10.484375 8.261719 11.097656 7.296875 C 10.433594 6.789062 10.433594 5.460938 9.375 6 L 9.539062 5.484375 L 8.636719 5.046875 L 7.980469 6.492188 L 7.078125 7.640625 L 7 7.039062 C 6.652344 6.871094 5.699219 6.570312 5.679688 6.085938 C 5.65625 5.5625 7.203125 4.765625 7.574219 4.445312 L 7.410156 4.875 L 8.046875 4.8125 C 8.179688 4.726562 9.453125 2.824219 9.617188 4.011719 C 10.507812 4.367188 10.609375 4.773438 11.507812 4.1875 L 10.933594 3.921875 C 10.84375 3.070312 10.125 3.0625 9.453125 3.0625 L 11.585938 2.023438 C 11.828125 2.640625 12.570312 2.765625 12.8125 3.328125 C 12.980469 3.734375 12.476562 3.972656 12.488281 4.359375 C 12.5 4.835938 12.9375 5.414062 13.148438 5.828125 L 14.375 4.40625 C 15.058594 4.023438 16.152344 3.984375 16.695312 3.367188 C 17.320312 2.648438 16.976562 1.511719 18.144531 1.507812 C 17.90625 1.398438 17.523438 1.320312 17.324219 1.507812 L 17.078125 1.246094 L 17.40625 1.246094 C 17.234375 1 17.117188 0.867188 16.835938 0.8125 C 16.765625 0.726562 16.679688 0.667969 16.585938 0.625 C 16.335938 0.613281 16.078125 0.605469 15.824219 0.605469 M 22.976562 3.148438 C 22.6875 3.394531 22.203125 3.523438 21.832031 3.578125 L 21.164062 4.550781 L 20.382812 5.234375 C 20.257812 5.550781 20.460938 6.03125 20.515625 6.34375 L 21.339844 5.914062 C 21.457031 6.34375 21.777344 6.453125 22.078125 6.691406 C 22.5625 5.71875 22.144531 4.789062 23.304688 4.269531 L 22.566406 5.222656 L 22.8125 5.046875 L 22.898438 5.566406 L 22.976562 4.875 C 23.195312 5.65625 22.96875 6.726562 22.160156 7.023438 L 21.339844 6.953125 L 21.339844 6.429688 C 20.875 6.535156 20.890625 6.78125 21.011719 7.210938 C 20.695312 7.117188 20.507812 7.132812 20.273438 7.382812 C 20.023438 7.109375 19.820312 6.90625 19.78125 6.519531 C 19.625 6.351562 19.554688 6.238281 19.539062 6 L 18.960938 5.914062 L 19.210938 7.296875 C 18.988281 6.867188 18.765625 6.757812 18.304688 6.863281 L 18.554688 7.898438 L 18.882812 7.816406 L 18.636719 7.726562 L 18.960938 7.121094 L 19.125 8.074219 L 19.867188 7.898438 C 19.660156 8.109375 19.492188 8.15625 19.210938 8.15625 L 19.289062 8.417969 L 18.882812 8.417969 L 19.453125 9.457031 C 18.113281 9.46875 18.097656 10.191406 18.144531 11.359375 C 18.40625 11.375 18.53125 11.421875 18.71875 11.617188 C 19.800781 11.015625 20.054688 9.898438 21.339844 9.542969 C 21.546875 10.226562 22.195312 10.1875 21.996094 11.015625 C 22.625 10.875 22.804688 10.3125 22.40625 9.800781 C 22.945312 10.140625 23.097656 10.835938 23.46875 11.359375 C 23.730469 10.996094 23.632812 10.585938 24.046875 10.320312 L 24.046875 10.578125 C 24.738281 11.230469 25.21875 11.375 26.09375 11.703125 C 25.792969 12.15625 25.429688 12.59375 24.863281 12.558594 C 24.171875 12.515625 23.289062 11.796875 22.8125 12.652344 L 21.496094 11.550781 C 20.765625 11.226562 20.046875 11.535156 19.289062 11.445312 L 18.960938 11.617188 L 19.125 11.703125 C 17.625 12.417969 16.789062 14.292969 16.636719 15.851562 L 16.351562 16.890625 C 16.507812 17.902344 17.324219 18.953125 18.007812 19.640625 C 18.488281 20.125 18.835938 19.175781 19.289062 19.65625 C 19.898438 19.414062 20.8125 18.992188 21.367188 19.667969 C 21.734375 20.109375 21.351562 20.480469 21.476562 20.953125 C 21.699219 21.773438 22.21875 22.734375 22.21875 23.632812 L 22.015625 25.792969 C 22.195312 27.109375 22.882812 28.21875 22.898438 29.597656 C 23.898438 29.488281 25.03125 28.953125 25.585938 28.039062 L 25.828125 27.269531 L 26.242188 26.734375 L 26.085938 25.886719 C 26.320312 25.292969 27.269531 25.226562 27.414062 24.582031 C 27.609375 23.695312 27.097656 22.648438 27.398438 21.734375 C 27.867188 20.3125 29.171875 19.273438 29.207031 17.667969 L 28.222656 17.757812 C 29.109375 16.609375 30.980469 16.035156 30.023438 14.296875 L 29.617188 14.816406 L 29.453125 14.816406 C 29.136719 14.117188 28.632812 14.039062 28.632812 13.171875 C 29.398438 13.867188 30.195312 13.890625 30.929688 14.726562 C 30.992188 14.691406 31.046875 14.640625 31.09375 14.585938 C 30.535156 10.117188 28.21875 6.226562 24.898438 3.691406 C 24.273438 3.625 23.535156 3.53125 23.140625 3.148438 L 22.976562 3.148438 L 22.976562 3.144531 "/><path fill-rule="nonzero" fill="rgb(100%, 100%, 100%)" fill-opacity="1" d="M 17.808594 10.921875 C 18.71875 11.511719 19.351562 12.515625 19.46875 13.675781 C 19.84375 13.851562 20.25 13.960938 20.6875 13.960938 C 22.28125 13.960938 23.570312 12.617188 23.570312 10.964844 C 23.570312 9.3125 22.28125 7.96875 20.6875 7.96875 C 19.109375 7.96875 17.835938 9.289062 17.808594 10.921875 M 15.921875 17.046875 C 17.511719 17.046875 18.804688 15.710938 18.804688 14.054688 C 18.804688 12.402344 17.511719 11.0625 15.921875 11.0625 C 14.328125 11.0625 13.039062 12.402344 13.039062 14.054688 C 13.039062 15.710938 14.328125 17.046875 15.921875 17.046875 M 17.140625 17.25 L 14.695312 17.25 C 12.664062 17.25 11.007812 18.972656 11.007812 21.085938 L 11.007812 24.195312 L 11.015625 24.242188 L 11.21875 24.3125 C 13.164062 24.941406 14.851562 25.152344 16.238281 25.152344 C 18.949219 25.152344 20.523438 24.351562 20.617188 24.296875 L 20.8125 24.195312 L 20.832031 24.195312 L 20.832031 21.085938 C 20.835938 18.972656 19.179688 17.25 17.140625 17.25 M 21.914062 14.164062 L 19.484375 14.164062 C 19.460938 15.171875 19.046875 16.078125 18.390625 16.734375 C 20.199219 17.289062 21.523438 19.03125 21.523438 21.09375 L 21.523438 22.050781 C 23.914062 21.960938 25.296875 21.253906 25.386719 21.203125 L 25.582031 21.101562 L 25.601562 21.101562 L 25.601562 17.996094 C 25.601562 15.882812 23.945312 14.164062 21.914062 14.164062 M 10.859375 13.960938 C 11.425781 13.960938 11.953125 13.789062 12.394531 13.5 C 12.539062 12.539062 13.03125 11.703125 13.738281 11.132812 C 13.738281 11.078125 13.742188 11.023438 13.742188 10.964844 C 13.742188 9.3125 12.453125 7.96875 10.859375 7.96875 C 9.273438 7.96875 7.980469 9.3125 7.980469 10.964844 C 7.980469 12.617188 9.273438 13.960938 10.859375 13.960938 M 13.453125 16.734375 C 12.796875 16.085938 12.382812 15.179688 12.355469 14.179688 C 12.265625 14.167969 12.175781 14.164062 12.085938 14.164062 L 9.640625 14.164062 C 7.601562 14.164062 5.945312 15.882812 5.945312 17.996094 L 5.945312 21.101562 L 5.957031 21.148438 L 6.164062 21.21875 C 7.71875 21.726562 9.109375 21.957031 10.316406 22.03125 L 10.316406 21.09375 C 10.320312 19.03125 11.640625 17.292969 13.453125 16.734375 "/></g></svg>
