<svg width="64" height="64" viewBox="0 0 64 64" version="1.1"><defs><linearGradient id="linear-pattern-0" gradientUnits="userSpaceOnUse" x1="0" y1="0" x2="0" y2="1" gradientTransform="matrix(60, 0, 0, 56, 0, 4)"><stop offset="0" stop-color="#6926fc" stop-opacity="1"/><stop offset="1" stop-color="#3702ab" stop-opacity="1"/></linearGradient></defs><path fill="url(#linear-pattern-0)" fill-opacity="1" d="M 36.21875 2.050781 L 62.027344 27.605469 C 64.402344 29.957031 64.417969 33.785156 62.058594 36.15625 L 36.460938 61.917969 C 34.105469 64.289062 30.269531 64.304688 27.894531 61.949219 L 2.085938 36.394531 C -0.289062 34.042969 -0.304688 30.214844 2.050781 27.84375 L 27.652344 2.082031 C 30.007812 -0.289062 33.84375 -0.304688 36.21875 2.050781 Z M 36.21875 2.050781 " /><g transform="matrix(1.0075098,0,0,1.0032698,16.221436,16.077397)"><path fill-rule="evenodd" fill="rgb(100%, 100%, 100%)" fill-opacity="1" d="M 0 9.019531 C 0 4 0.515625 3.460938 5.546875 3.484375 L 26.3125 3.484375 C 31.34375 3.460938 31.859375 4 31.859375 9.019531 L 31.859375 22.980469 C 31.859375 28 31.34375 28.515625 26.3125 28.515625 L 5.546875 28.515625 C 0.515625 28.515625 0 28 0 22.980469 Z M 8.675781 13.15625 C 7.101562 13.15625 5.832031 14.429688 5.832031 16 C 5.832031 17.570312 7.101562 18.84375 8.675781 18.84375 C 10.246094 18.84375 11.519531 17.570312 11.519531 16 C 11.519531 14.429688 10.246094 13.15625 8.675781 13.15625 Z M 16.070312 13.15625 C 14.5 13.15625 13.226562 14.429688 13.226562 16 C 13.226562 17.570312 14.5 18.84375 16.070312 18.84375 C 17.640625 18.84375 18.914062 17.570312 18.914062 16 C 18.914062 14.429688 17.640625 13.15625 16.070312 13.15625 Z M 23.46875 13.15625 C 21.898438 13.15625 20.621094 14.429688 20.621094 16 C 20.621094 17.570312 21.898438 18.84375 23.46875 18.84375 C 25.039062 18.84375 26.3125 17.570312 26.3125 16 C 26.3125 14.429688 25.039062 13.15625 23.46875 13.15625 Z M 23.46875 13.15625 "/></g></svg>
