<svg width="64" height="64" viewBox="0 0 64 64" version="1.1"><defs><linearGradient id="linear-pattern-0" gradientUnits="userSpaceOnUse" x1="0" y1="0" x2="0" y2="1" gradientTransform="matrix(60, 0, 0, 56, 0, 4)"><stop offset="0" stop-color="#d00068" stop-opacity="1"/><stop offset="1" stop-color="#6e0037" stop-opacity="1"/></linearGradient></defs><path fill="url(#linear-pattern-0)" fill-opacity="1" d="M 36.21875 2.050781 L 62.027344 27.605469 C 64.402344 29.957031 64.417969 33.785156 62.058594 36.15625 L 36.460938 61.917969 C 34.105469 64.289062 30.269531 64.304688 27.894531 61.949219 L 2.085938 36.394531 C -0.289062 34.042969 -0.304688 30.214844 2.050781 27.84375 L 27.652344 2.082031 C 30.007812 -0.289062 33.84375 -0.304688 36.21875 2.050781 Z M 36.21875 2.050781 " /><g transform="matrix(1.0075098,0,0,1.0032698,16.221436,16.077397)"><path fill-rule="nonzero" fill="rgb(100%, 100%, 100%)" fill-opacity="1" d="M 15.921875 0.496094 L 2.308594 4.695312 C 2.308594 13.539062 2.265625 18.386719 3.914062 21.894531 C 5.5625 25.40625 8.945312 27.71875 15.921875 31.527344 C 22.890625 27.71875 26.273438 25.40625 27.921875 21.894531 C 29.570312 18.390625 29.527344 13.539062 29.527344 4.695312 Z M 16.203125 10.128906 C 17.921875 10.128906 19.320312 11.445312 19.320312 13.070312 C 19.328125 14.25 18.578125 15.316406 17.429688 15.777344 L 19.320312 21.898438 L 13.082031 21.898438 L 14.976562 15.777344 C 13.828125 15.316406 13.078125 14.25 13.082031 13.070312 C 13.082031 11.445312 14.476562 10.125 16.203125 10.125 Z M 16.203125 10.128906 "/><path fill-rule="nonzero" fill="rgb(100%, 100%, 100%)" fill-opacity="1" d="M 15.921875 3.171875 L 4.578125 6.917969 C 4.578125 21.328125 4.140625 22.4375 15.921875 28.851562 C 27.601562 22.484375 27.257812 21.335938 27.257812 6.917969 Z M 16.203125 10.125 C 17.921875 10.125 19.320312 11.445312 19.320312 13.070312 C 19.328125 14.25 18.578125 15.316406 17.429688 15.777344 L 19.320312 21.898438 L 13.082031 21.898438 L 14.976562 15.777344 C 13.828125 15.316406 13.078125 14.25 13.082031 13.070312 C 13.082031 11.445312 14.476562 10.125 16.203125 10.125 Z M 16.203125 10.125 "/></g></svg>
