<svg width="64" height="64" viewBox="0 0 64 64" version="1.1"><defs><linearGradient id="linear-pattern-0" gradientUnits="userSpaceOnUse" x1="0" y1="0" x2="0" y2="1" gradientTransform="matrix(60, 0, 0, 56, 0, 4)"><stop offset="0" stop-color="#008a97" stop-opacity="1"/><stop offset="1" stop-color="#00545c" stop-opacity="1"/></linearGradient></defs><path fill="url(#linear-pattern-0)" fill-opacity="1" d="M 36.21875 2.050781 L 62.027344 27.605469 C 64.402344 29.957031 64.417969 33.785156 62.058594 36.15625 L 36.460938 61.917969 C 34.105469 64.289062 30.269531 64.304688 27.894531 61.949219 L 2.085938 36.394531 C -0.289062 34.042969 -0.304688 30.214844 2.050781 27.84375 L 27.652344 2.082031 C 30.007812 -0.289062 33.84375 -0.304688 36.21875 2.050781 Z M 36.21875 2.050781 " /><g transform="matrix(1.0075098,0,0,1.0032698,16.221436,16.077397)"><path fill-rule="nonzero" fill="rgb(100%, 100%, 100%)" fill-opacity="1" d="M 7.988281 2 C 5.472656 2.03125 3.632812 1.9375 2.125 2.769531 C 1.34375 3.214844 0.75 3.921875 0.449219 4.765625 C 0.117188 5.640625 0 6.6875 0 8 L 0 24 C 0 25.316406 0.117188 26.359375 0.449219 27.234375 C 0.777344 28.109375 1.371094 28.8125 2.125 29.230469 C 3.632812 30.0625 5.472656 29.96875 7.988281 30 L 24.011719 30 C 26.527344 29.96875 28.367188 30.0625 29.875 29.230469 C 30.65625 28.785156 31.25 28.078125 31.554688 27.234375 C 31.882812 26.359375 32 25.3125 32 24 L 32 8 C 32 6.683594 31.882812 5.640625 31.550781 4.765625 C 31.25 3.921875 30.65625 3.214844 29.875 2.769531 C 28.367188 1.9375 26.527344 2.03125 24.011719 2 Z M 8 4 L 24 4 C 26.515625 4.03125 28.171875 4.117188 28.90625 4.523438 C 29.273438 4.726562 29.484375 4.945312 29.679688 5.46875 C 29.875 5.988281 30 6.816406 30 8 L 30 24 C 30 25.183594 29.875 26.011719 29.679688 26.53125 C 29.484375 27.054688 29.273438 27.273438 28.90625 27.476562 C 28.171875 27.882812 26.515625 27.96875 24 28 L 8 28 C 5.484375 27.96875 3.820312 27.882812 3.089844 27.476562 C 2.726562 27.273438 2.515625 27.054688 2.320312 26.53125 C 2.125 26.011719 2 25.183594 2 24 L 2 8 C 2 6.816406 2.125 5.988281 2.320312 5.46875 C 2.515625 4.945312 2.726562 4.726562 3.089844 4.523438 C 3.820312 4.117188 5.484375 4.03125 8 4 Z M 8 4 "/><path fill-rule="nonzero" fill="rgb(95.294118%, 30.980392%, 9.019608%)" fill-opacity="1" d="M 18.085938 6 C 14.898438 5.992188 12.015625 7.890625 10.765625 10.820312 C 7.96875 12.039062 6 14.84375 6 18.085938 C 6 22.445312 9.554688 26 13.914062 26 C 17.15625 26 19.960938 24.03125 21.179688 21.234375 C 24.109375 19.984375 26.007812 17.101562 26 13.914062 C 26 9.554688 22.445312 6 18.085938 6 Z M 18.085938 7.664062 C 21.550781 7.664062 24.335938 10.449219 24.335938 13.914062 C 24.34375 15.925781 23.382812 17.816406 21.753906 18.996094 C 21.789062 18.695312 21.835938 18.390625 21.835938 18.085938 C 21.835938 15.640625 20.714844 13.46875 18.96875 12.015625 C 19.203125 11.726562 19.328125 11.367188 19.335938 11 C 19.542969 10.371094 19.359375 9.679688 18.867188 9.234375 C 18.382812 8.792969 17.671875 8.679688 17.070312 8.945312 C 16.464844 9.21875 16.078125 9.820312 16.078125 10.480469 C 15.375 10.273438 14.648438 10.167969 13.914062 10.164062 C 13.609375 10.164062 13.304688 10.207031 13.003906 10.246094 C 14.183594 8.617188 16.074219 7.65625 18.085938 7.664062 Z M 21.835938 10.164062 C 21.375 10.164062 21 10.542969 21 11 C 21 11.457031 21.375 11.835938 21.835938 11.835938 C 22.292969 11.835938 22.664062 11.457031 22.664062 11 C 22.664062 10.542969 22.292969 10.164062 21.835938 10.164062 Z M 13.914062 11.835938 C 17.375 11.835938 20.164062 14.625 20.164062 18.085938 C 20.167969 18.8125 20.046875 19.53125 19.804688 20.21875 C 18.90625 22.695312 16.550781 24.34375 13.914062 24.335938 C 12.257812 24.335938 10.664062 23.679688 9.492188 22.507812 C 8.320312 21.335938 7.664062 19.742188 7.664062 18.085938 C 7.65625 15.53125 9.203125 13.226562 11.574219 12.273438 C 11.625 12.265625 11.679688 12.246094 11.730469 12.226562 C 12.429688 11.96875 13.171875 11.835938 13.914062 11.835938 Z M 22.25 12.664062 C 21.5625 12.664062 21 13.226562 21 13.914062 C 21 14.609375 21.5625 15.164062 22.25 15.164062 C 22.9375 15.164062 23.5 14.609375 23.5 13.914062 C 23.5 13.226562 22.9375 12.664062 22.25 12.664062 Z M 11.835938 14.335938 C 10.914062 14.335938 10.164062 15.078125 10.164062 16 C 10.164062 16.921875 10.914062 17.664062 11.835938 17.664062 C 12.753906 17.664062 13.5 16.921875 13.5 16 C 13.5 15.078125 12.753906 14.335938 11.835938 14.335938 Z M 16 14.335938 C 15.542969 14.335938 15.164062 14.707031 15.164062 15.164062 C 15.164062 15.625 15.542969 16 16 16 C 16.457031 16 16.835938 15.625 16.835938 15.164062 C 16.835938 14.707031 16.457031 14.335938 16 14.335938 Z M 17.25 16.835938 C 16.5625 16.835938 16 17.390625 16 18.085938 C 16 18.773438 16.5625 19.335938 17.25 19.335938 C 17.9375 19.335938 18.5 18.773438 18.5 18.085938 C 18.5 17.390625 17.9375 16.835938 17.25 16.835938 Z M 11 19.335938 C 10.542969 19.335938 10.164062 19.707031 10.164062 20.164062 C 10.164062 20.625 10.542969 21 11 21 C 11.457031 21 11.835938 20.625 11.835938 20.164062 C 11.835938 19.707031 11.457031 19.335938 11 19.335938 Z M 14.335938 21 C 13.875 21 13.5 21.375 13.5 21.835938 C 13.5 22.292969 13.875 22.664062 14.335938 22.664062 C 14.792969 22.664062 15.164062 22.292969 15.164062 21.835938 C 15.164062 21.375 14.792969 21 14.335938 21 Z M 14.335938 21 "/></g></svg>
