<svg width="64" height="64" viewBox="0 0 64 64" version="1.1"><defs><linearGradient id="linear-pattern-0" gradientUnits="userSpaceOnUse" x1="0" y1="0" x2="0" y2="1" gradientTransform="matrix(60, 0, 0, 56, 0, 4)"><stop offset="0" stop-color="#00983a" stop-opacity="1"/><stop offset="1" stop-color="#004a1c" stop-opacity="1"/></linearGradient></defs><path fill="url(#linear-pattern-0)" fill-opacity="1" d="M 36.21875 2.050781 L 62.027344 27.605469 C 64.402344 29.957031 64.417969 33.785156 62.058594 36.15625 L 36.460938 61.917969 C 34.105469 64.289062 30.269531 64.304688 27.894531 61.949219 L 2.085938 36.394531 C -0.289062 34.042969 -0.304688 30.214844 2.050781 27.84375 L 27.652344 2.082031 C 30.007812 -0.289062 33.84375 -0.304688 36.21875 2.050781 Z M 36.21875 2.050781 " /><g transform="matrix(1.0075098,0,0,1.0032698,16.221436,16.077397)"><path fill-rule="evenodd" fill="rgb(100%, 100%, 100%)" fill-opacity="1" d="M 12.464844 31.90625 C 12.5 31.921875 12.53125 31.9375 12.570312 31.953125 L 12.570312 21.929688 C 13.582031 22.515625 14.75 22.859375 16 22.859375 C 19.789062 22.859375 22.859375 19.789062 22.859375 16 C 22.859375 12.210938 19.789062 9.140625 16 9.140625 C 12.214844 9.140625 9.144531 12.210938 9.144531 16 L 9.144531 26.804688 C 9.839844 27.242188 10.578125 27.625 11.351562 27.925781 L 11.605469 29.21875 L 12.023438 31.351562 C 12.039062 31.425781 12.066406 31.496094 12.09375 31.566406 C 12.132812 31.617188 12.171875 31.671875 12.230469 31.710938 C 12.285156 31.796875 12.367188 31.859375 12.464844 31.90625 Z M 11.351562 27.925781 C 10.140625 27.453125 9 26.800781 8 26 L 4.675781 27.125 C 4.328125 27.242188 3.914062 27.089844 3.726562 26.773438 L 0.523438 21.226562 C 0.34375 20.90625 0.421875 20.464844 0.699219 20.226562 L 3.351562 17.898438 C 3.257812 17.273438 3.199219 16.648438 3.199219 16 C 3.199219 15.351562 3.257812 14.726562 3.351562 14.101562 L 0.699219 11.773438 C 0.421875 11.535156 0.34375 11.09375 0.523438 10.773438 L 3.726562 5.226562 C 3.914062 4.914062 4.328125 4.757812 4.675781 4.875 L 8 6 C 9 5.199219 10.140625 4.550781 11.351562 4.078125 L 12.023438 0.652344 C 12.085938 0.316406 12.386719 0.0390625 12.726562 0 C 12.75 0 12.773438 0 12.800781 0 L 19.199219 0 C 19.5625 0.0078125 19.90625 0.292969 19.976562 0.648438 L 20.648438 4.078125 C 21.859375 4.550781 23 5.199219 24 6 L 27.324219 4.875 C 27.671875 4.757812 28.085938 4.914062 28.273438 5.226562 L 31.476562 10.773438 C 31.65625 11.09375 31.578125 11.535156 31.300781 11.773438 L 28.648438 14.101562 C 28.742188 14.726562 28.800781 15.351562 28.800781 16 C 28.800781 16.648438 28.742188 17.277344 28.648438 17.898438 L 31.300781 20.226562 C 31.578125 20.464844 31.65625 20.90625 31.476562 21.226562 L 28.273438 26.773438 C 28.085938 27.089844 27.671875 27.242188 27.324219 27.125 L 24 26 C 23 26.800781 21.859375 27.453125 20.648438 27.925781 L 19.976562 31.351562 C 19.90625 31.707031 19.5625 31.996094 19.199219 32 L 12.800781 32 C 12.679688 32 12.5625 31.96875 12.464844 31.90625 C 12.367188 31.863281 12.28125 31.800781 12.230469 31.710938 C 12.171875 31.675781 12.132812 31.617188 12.09375 31.566406 C 12.066406 31.496094 12.039062 31.421875 12.023438 31.351562 L 11.605469 29.21875 Z M 16 12.570312 C 17.894531 12.570312 19.429688 14.105469 19.429688 16 C 19.429688 17.894531 17.894531 19.429688 16 19.429688 C 15.089844 19.429688 14.21875 19.070312 13.578125 18.421875 C 12.929688 17.78125 12.570312 16.910156 12.570312 16 C 12.570312 14.105469 14.105469 12.570312 16 12.570312 Z M 16 12.570312 "/></g></svg>
