<svg width="64" height="64" viewBox="0 0 64 64" version="1.1"><defs><linearGradient id="linear-pattern-0" gradientUnits="userSpaceOnUse" x1="0" y1="0" x2="0" y2="1" gradientTransform="matrix(60, 0, 0, 56, 0, 4)"><stop offset="0" stop-color="#3067ff" stop-opacity="1"/><stop offset="1" stop-color="#002ca6" stop-opacity="1"/></linearGradient></defs><path fill="url(#linear-pattern-0)" fill-opacity="1" d="M 36.21875 2.050781 L 62.027344 27.605469 C 64.402344 29.957031 64.417969 33.785156 62.058594 36.15625 L 36.460938 61.917969 C 34.105469 64.289062 30.269531 64.304688 27.894531 61.949219 L 2.085938 36.394531 C -0.289062 34.042969 -0.304688 30.214844 2.050781 27.84375 L 27.652344 2.082031 C 30.007812 -0.289062 33.84375 -0.304688 36.21875 2.050781 Z M 36.21875 2.050781 " /><g transform="matrix(1.0075098,0,0,1.0032698,16.221436,16.077397)"><path fill-rule="nonzero" fill="rgb(100%, 100%, 100%)" fill-opacity="1" d="M 2 6 C 1.296875 4.769531 2.738281 3.085938 3.777344 2.109375 C 4.742188 1.195312 6.167969 0.773438 7.492188 0.671875 C 9.023438 0.5625 10.640625 0.933594 11.984375 1.671875 C 13.5 2.503906 14.691406 3.898438 15.648438 5.335938 C 16.796875 7.0625 17.5 9.082031 18.003906 11.09375 C 18.386719 12.632812 18.292969 14.25 18.476562 15.820312 C 18.671875 17.484375 18.585938 19.226562 19.140625 20.8125 C 19.570312 22.03125 20.261719 23.1875 21.140625 24.140625 C 21.789062 24.84375 22.585938 25.449219 23.46875 25.804688 C 24.5625 26.242188 25.804688 26.117188 26.964844 26.304688 C 27.910156 26.453125 29.792969 26.804688 29.792969 26.804688 C 29.792969 26.804688 27.28125 28.21875 25.96875 28.800781 C 24.9375 29.257812 23.921875 29.882812 22.804688 29.96875 C 21.445312 30.066406 20.015625 29.757812 18.808594 29.132812 C 17.796875 28.609375 16.960938 27.742188 16.3125 26.804688 C 15.5625 25.71875 15.125 24.421875 14.8125 23.140625 C 14.160156 20.421875 14.109375 14.78125 14.109375 14.78125 C 14.109375 14.78125 12.640625 16.429688 11.984375 17.316406 C 11.078125 18.539062 10.054688 19.730469 9.492188 21.144531 C 8.921875 22.558594 8.804688 24.125 8.65625 25.640625 C 8.515625 27.085938 8.617188 30 8.617188 30 L 5.109375 30 C 5.109375 30 5.039062 26.867188 5.164062 25.304688 C 5.289062 23.671875 5.3125 21.976562 5.882812 20.441406 C 6.523438 18.730469 7.679688 17.242188 8.824219 15.820312 C 9.757812 14.65625 10.992188 13.765625 11.984375 12.65625 C 12.460938 12.125 13.289062 11.703125 13.316406 10.992188 C 13.359375 9.992188 12.3125 9.246094 11.652344 8.496094 C 10.925781 7.671875 10.164062 6.773438 9.15625 6.332031 C 8.234375 5.929688 7.164062 6.054688 6.160156 6 C 4.773438 5.921875 2.6875 7.203125 2 6 Z M 2 6 "/></g></svg>
