<svg width="64" height="64" viewBox="0 0 64 64" version="1.1"><defs><linearGradient id="linear-pattern-0" gradientUnits="userSpaceOnUse" x1="0" y1="0" x2="0" y2="1" gradientTransform="matrix(60, 0, 0, 56, 0, 4)"><stop offset="0" stop-color="#8900e4" stop-opacity="1"/><stop offset="1" stop-color="#42006e" stop-opacity="1"/></linearGradient></defs><path fill="url(#linear-pattern-0)" fill-opacity="1" d="M 36.21875 2.050781 L 62.027344 27.605469 C 64.402344 29.957031 64.417969 33.785156 62.058594 36.15625 L 36.460938 61.917969 C 34.105469 64.289062 30.269531 64.304688 27.894531 61.949219 L 2.085938 36.394531 C -0.289062 34.042969 -0.304688 30.214844 2.050781 27.84375 L 27.652344 2.082031 C 30.007812 -0.289062 33.84375 -0.304688 36.21875 2.050781 Z M 36.21875 2.050781 " /><g transform="matrix(1.0075098,0,0,1.0032698,16.221436,16.077397)"><path fill-rule="nonzero" fill="rgb(100%, 100%, 100%)" fill-opacity="1" d="M 2.484375 24.242188 L 21.710938 31.507812 C 21.242188 28.78125 18.386719 27.675781 21.0625 22.820312 C 23.78125 23.035156 31.890625 22.375 31.5625 17.234375 C 31.613281 14.050781 29.351562 13.65625 26.1875 13.625 L 21.90625 9.078125 C 23.621094 8.195312 26.691406 7.6875 26.492188 6.265625 C 26.203125 5.054688 23.195312 5.382812 20.132812 5.292969 C 19.367188 3.476562 15.085938 2.433594 8.917969 4.867188 C 9.03125 4.789062 8.164062 4.492188 8.304688 4.414062 C 10.351562 3.195312 15.390625 1.796875 13.867188 0.914062 C 13.460938 0.132812 10.757812 -0.0703125 8.039062 3.234375 C 6.679688 2.054688 5.355469 3.203125 5.90625 4.132812 C 1.28125 4.121094 0.03125 7.277344 0.796875 7.46875 C 2.199219 9.382812 5.59375 6.351562 6.429688 5.367188 L 7.472656 6.15625 C 5.964844 8.375 3.488281 9.292969 3.734375 13.871094 C 3.207031 15.0625 3.921875 16.015625 4.417969 17.019531 C 5 18.863281 3.328125 21.824219 2.445312 24.398438 Z M 2.484375 24.242188 "/></g></svg>
