<svg width="64" height="64" viewBox="0 0 64 64" version="1.1"><defs><linearGradient id="linear-pattern-0" gradientUnits="userSpaceOnUse" x1="0" y1="0" x2="0" y2="1" gradientTransform="matrix(60, 0, 0, 56, 0, 4)"><stop offset="0" stop-color="#c10000" stop-opacity="1"/><stop offset="1" stop-color="#5f0000" stop-opacity="1"/></linearGradient></defs><path fill="url(#linear-pattern-0)" fill-opacity="1" d="M 36.21875 2.050781 L 62.027344 27.605469 C 64.402344 29.957031 64.417969 33.785156 62.058594 36.15625 L 36.460938 61.917969 C 34.105469 64.289062 30.269531 64.304688 27.894531 61.949219 L 2.085938 36.394531 C -0.289062 34.042969 -0.304688 30.214844 2.050781 27.84375 L 27.652344 2.082031 C 30.007812 -0.289062 33.84375 -0.304688 36.21875 2.050781 Z M 36.21875 2.050781 " /><g transform="matrix(1.0075098,0,0,1.0032698,16.221436,16.077397)"><path fill-rule="nonzero" fill="rgb(100%, 100%, 100%)" fill-opacity="1" d="M 0.445312 5.21875 L 31.699219 7.914062 L 14.875 7.914062 Z M 0.445312 5.21875 "/><path fill-rule="nonzero" fill="rgb(100%, 100%, 100%)" fill-opacity="1" d="M 14.875 11.949219 L 12.46875 18.683594 L 8.859375 26.757812 L 12.46875 29.453125 L 11.265625 26.757812 L 14.875 18.683594 L 13.667969 28.105469 L 17.273438 30.796875 L 16.070312 28.105469 L 16.070312 22.71875 L 18.476562 11.949219 L 19.679688 9.257812 L 14.875 9.257812 Z M 14.875 11.949219 "/><path fill-rule="nonzero" fill="rgb(100%, 100%, 100%)" fill-opacity="1" d="M 19.679688 3.875 C 19.679688 5.363281 18.601562 6.5625 17.273438 6.5625 C 15.945312 6.5625 14.875 5.363281 14.875 3.875 C 14.875 2.390625 15.945312 1.179688 17.273438 1.179688 C 18.601562 1.179688 19.679688 2.390625 19.679688 3.875 Z M 19.679688 3.875 "/><path fill-rule="nonzero" fill="rgb(100%, 100%, 100%)" fill-opacity="1" d="M 13.808594 11.640625 L 31.804688 13.1875 L 22.117188 13.1875 Z M 13.808594 11.640625 "/><path fill-rule="nonzero" fill="rgb(100%, 100%, 100%)" fill-opacity="1" d="M 22.117188 15.515625 L 20.726562 19.390625 L 18.652344 24.042969 L 20.726562 25.589844 L 20.039062 24.042969 L 22.117188 19.390625 L 21.421875 24.816406 L 23.5 26.367188 L 22.804688 24.816406 L 22.804688 21.71875 L 24.191406 15.515625 L 24.882812 13.964844 L 22.117188 13.964844 Z M 22.117188 15.515625 "/><path fill-rule="nonzero" fill="rgb(100%, 100%, 100%)" fill-opacity="1" d="M 24.882812 10.867188 C 24.882812 11.71875 24.265625 12.414062 23.5 12.414062 C 22.734375 12.414062 22.117188 11.71875 22.117188 10.867188 C 22.117188 10.007812 22.734375 9.3125 23.5 9.3125 C 24.265625 9.3125 24.882812 10.007812 24.882812 10.867188 Z M 24.882812 10.867188 "/></g></svg>
