<svg width="64" height="64" viewBox="0 0 64 64" version="1.1"><defs><linearGradient id="linear-pattern-0" gradientUnits="userSpaceOnUse" x1="0" y1="0" x2="0" y2="1" gradientTransform="matrix(60, 0, 0, 56, 0, 4)"><stop offset="0" stop-color="#008a97" stop-opacity="1"/><stop offset="1" stop-color="#00545c" stop-opacity="1"/></linearGradient></defs><path fill="url(#linear-pattern-0)" fill-opacity="1" d="M 36.21875 2.050781 L 62.027344 27.605469 C 64.402344 29.957031 64.417969 33.785156 62.058594 36.15625 L 36.460938 61.917969 C 34.105469 64.289062 30.269531 64.304688 27.894531 61.949219 L 2.085938 36.394531 C -0.289062 34.042969 -0.304688 30.214844 2.050781 27.84375 L 27.652344 2.082031 C 30.007812 -0.289062 33.84375 -0.304688 36.21875 2.050781 Z M 36.21875 2.050781 " /><g transform="matrix(1.0075098,0,0,1.0032698,16.221436,16.077397)"><path fill-rule="nonzero" fill="rgb(100%, 100%, 100%)" fill-opacity="1" d="M 12.859375 1.015625 C 11.75 1.015625 10.960938 1.835938 10.757812 3.015625 C 10.757812 3.015625 9.644531 9.453125 9.644531 17.203125 L 9.644531 17.550781 C 9.007812 17.984375 8.574219 18.773438 8.574219 19.695312 C 8.574219 21.070312 9.53125 22.1875 10.714844 22.1875 C 20.351562 22.1875 29.996094 17.203125 29.996094 8.484375 C 29.996094 3.503906 25.710938 1.015625 21.425781 1.015625 C 19.109375 1.015625 16.757812 1.3125 14.449219 1.851562 C 14.152344 1.460938 13.75 1.171875 13.277344 1.0625 C 13.152344 1.035156 12.984375 1.015625 12.859375 1.015625 Z M 9.625 3.375 C 7.304688 4.355469 5.128906 5.640625 3.21875 7.242188 C 2.773438 7.617188 2.148438 7.914062 2.148438 9.734375 L 2.148438 10.976562 C 2.148438 12.351562 3.105469 13.46875 4.289062 13.46875 C 5.46875 13.46875 6.429688 12.351562 6.429688 10.976562 L 6.429688 10.710938 C 7.289062 10.191406 8.117188 9.71875 8.933594 9.273438 C 9.21875 5.898438 9.53125 3.953125 9.625 3.375 Z M 21.429688 5.996094 C 23.5 6 25.710938 6.796875 25.710938 8.484375 C 25.710938 13.714844 19.671875 16.304688 13.933594 17 C 13.945312 12.84375 14.28125 9.273438 14.570312 6.882812 C 16.578125 6.3125 18.773438 5.992188 21.429688 5.996094 Z M 9.644531 23.203125 L 9.644531 28.414062 C 9.644531 29.789062 10.601562 30.90625 11.789062 30.90625 C 12.96875 30.90625 13.929688 29.789062 13.929688 28.414062 L 13.929688 23.25 C 12.867188 23.367188 11.792969 23.429688 10.714844 23.429688 C 10.335938 23.429688 9.980469 23.347656 9.644531 23.203125 Z M 9.644531 23.203125 "/></g></svg>
