<svg width="64" height="64" viewBox="0 0 64 64" version="1.1"><defs><linearGradient id="linear-pattern-0" gradientUnits="userSpaceOnUse" x1="0" y1="0" x2="0" y2="1" gradientTransform="matrix(60, 0, 0, 56, 0, 4)"><stop offset="0" stop-color="#a67e50" stop-opacity="1"/><stop offset="1" stop-color="#644c30" stop-opacity="1"/></linearGradient></defs><path fill="url(#linear-pattern-0)" fill-opacity="1" d="M 36.21875 2.050781 L 62.027344 27.605469 C 64.402344 29.957031 64.417969 33.785156 62.058594 36.15625 L 36.460938 61.917969 C 34.105469 64.289062 30.269531 64.304688 27.894531 61.949219 L 2.085938 36.394531 C -0.289062 34.042969 -0.304688 30.214844 2.050781 27.84375 L 27.652344 2.082031 C 30.007812 -0.289062 33.84375 -0.304688 36.21875 2.050781 Z M 36.21875 2.050781 " /><g transform="matrix(1.0075098,0,0,1.0032698,16.221436,16.077397)"><path fill-rule="nonzero" fill="rgb(100%, 100%, 100%)" fill-opacity="1" d="M 21.121094 16 C 21.121094 18.847656 18.828125 21.15625 16 21.15625 C 13.171875 21.15625 10.882812 18.847656 10.882812 16 C 10.882812 13.152344 13.171875 10.84375 16 10.84375 C 18.828125 10.84375 21.121094 13.152344 21.121094 16 "/><path fill-rule="nonzero" fill="rgb(100%, 100%, 100%)" fill-opacity="1" d="M 19.242188 6.089844 C 22.179688 7.816406 24.078125 11.703125 24.082031 16 C 24.078125 20.296875 22.175781 24.1875 19.234375 25.90625 C 23.484375 24.5 26.359375 20.507812 26.367188 16 C 26.367188 11.496094 23.492188 7.5 19.242188 6.089844 Z M 12.765625 6.09375 C 8.515625 7.5 5.640625 11.492188 5.632812 16 C 5.632812 20.507812 8.507812 24.5 12.753906 25.910156 C 9.820312 24.183594 7.921875 20.296875 7.917969 16 C 7.921875 11.703125 9.824219 7.8125 12.765625 6.09375 Z M 12.765625 6.09375 "/><path fill-rule="nonzero" fill="rgb(100%, 100%, 100%)" fill-opacity="1" d="M 20.757812 0 C 25.34375 2.726562 28.34375 9.023438 28.375 16 C 28.40625 22.863281 25.554688 29.078125 21.097656 31.863281 C 27.605469 29.570312 31.992188 23.1875 32 16 C 32 8.664062 27.445312 2.179688 20.757812 0 Z M 10.898438 0.136719 C 4.394531 2.429688 0.0078125 8.8125 0 16 C 0 23.335938 4.554688 29.820312 11.242188 32 C 6.65625 29.273438 3.65625 22.976562 3.625 16 C 3.59375 9.136719 6.445312 2.921875 10.898438 0.136719 Z M 10.898438 0.136719 "/></g></svg>
