<svg width="64" height="64" viewBox="0 0 64 64" version="1.1"><defs><linearGradient id="linear-pattern-0" gradientUnits="userSpaceOnUse" x1="0" y1="0" x2="0" y2="1" gradientTransform="matrix(60, 0, 0, 56, 0, 4)"><stop offset="0" stop-color="#6926fc" stop-opacity="1"/><stop offset="1" stop-color="#3702ab" stop-opacity="1"/></linearGradient></defs><path fill="url(#linear-pattern-0)" fill-opacity="1" d="M 36.21875 2.050781 L 62.027344 27.605469 C 64.402344 29.957031 64.417969 33.785156 62.058594 36.15625 L 36.460938 61.917969 C 34.105469 64.289062 30.269531 64.304688 27.894531 61.949219 L 2.085938 36.394531 C -0.289062 34.042969 -0.304688 30.214844 2.050781 27.84375 L 27.652344 2.082031 C 30.007812 -0.289062 33.84375 -0.304688 36.21875 2.050781 Z M 36.21875 2.050781 " /><g transform="matrix(1.0075098,0,0,1.0032698,16.221436,16.077397)"><path fill-rule="nonzero" fill="rgb(100%, 100%, 100%)" fill-opacity="1" d="M 15.917969 1.085938 C 8.128906 1.085938 1.820312 7.816406 1.820312 16.117188 C 1.820312 24.417969 8.128906 31.148438 15.917969 31.148438 C 23.703125 31.148438 30.015625 24.417969 30.015625 16.117188 L 30.015625 1.085938 Z M 15.917969 1.085938 "/><path fill-rule="nonzero" fill="rgb(97.254902%, 97.254902%, 97.254902%)" fill-opacity="1" d="M 16.441406 9.753906 C 12.671875 9.753906 9.617188 12.796875 9.617188 16.554688 C 9.617188 20.304688 12.671875 23.351562 16.441406 23.351562 C 20.210938 23.351562 23.261719 20.304688 23.261719 16.554688 C 23.261719 12.796875 20.210938 9.753906 16.441406 9.753906 Z M 16.441406 13.15625 C 18.324219 13.15625 19.851562 14.675781 19.851562 16.554688 C 19.851562 18.429688 18.324219 19.953125 16.441406 19.953125 C 14.554688 19.953125 13.03125 18.429688 13.03125 16.554688 C 13.03125 14.675781 14.554688 13.15625 16.441406 13.15625 Z M 16.441406 13.15625 "/></g></svg>
