<svg width="64" height="64" viewBox="0 0 64 64" version="1.1"><defs><linearGradient id="linear-pattern-0" gradientUnits="userSpaceOnUse" x1="0" y1="0" x2="0" y2="1" gradientTransform="matrix(60, 0, 0, 56, 0, 4)"><stop offset="0" stop-color="#00983a" stop-opacity="1"/><stop offset="1" stop-color="#004a1c" stop-opacity="1"/></linearGradient></defs><path fill="url(#linear-pattern-0)" fill-opacity="1" d="M 36.21875 2.050781 L 62.027344 27.605469 C 64.402344 29.957031 64.417969 33.785156 62.058594 36.15625 L 36.460938 61.917969 C 34.105469 64.289062 30.269531 64.304688 27.894531 61.949219 L 2.085938 36.394531 C -0.289062 34.042969 -0.304688 30.214844 2.050781 27.84375 L 27.652344 2.082031 C 30.007812 -0.289062 33.84375 -0.304688 36.21875 2.050781 Z M 36.21875 2.050781 " /><g transform="matrix(1.0075098,0,0,1.0032698,16.221436,16.077397)"><path fill-rule="nonzero" fill="rgb(100%, 100%, 100%)" fill-opacity="1" d="M 15.992188 0.410156 C 13.695312 0.410156 11.839844 2.414062 11.839844 4.890625 C 11.839844 7.132812 13.914062 14.976562 14.953125 20.578125 L 17.027344 20.578125 C 18.0625 14.976562 20.136719 7.132812 20.136719 4.890625 C 20.136719 2.414062 18.28125 0.410156 15.992188 0.410156 Z M 15.992188 22.816406 C 13.699219 22.816406 11.839844 24.824219 11.839844 27.300781 C 11.839844 29.773438 13.699219 31.78125 15.992188 31.78125 C 18.28125 31.78125 20.136719 29.773438 20.136719 27.300781 C 20.136719 24.824219 18.28125 22.816406 15.992188 22.816406 Z M 15.992188 22.816406 "/></g></svg>
