<svg width="64" height="64" viewBox="0 0 64 64" version="1.1"><defs><linearGradient id="linear-pattern-0" gradientUnits="userSpaceOnUse" x1="0" y1="0" x2="0" y2="1" gradientTransform="matrix(60, 0, 0, 56, 0, 4)"><stop offset="0" stop-color="#3067ff" stop-opacity="1"/><stop offset="1" stop-color="#002ca6" stop-opacity="1"/></linearGradient></defs><path fill="url(#linear-pattern-0)" fill-opacity="1" d="M 36.21875 2.050781 L 62.027344 27.605469 C 64.402344 29.957031 64.417969 33.785156 62.058594 36.15625 L 36.460938 61.917969 C 34.105469 64.289062 30.269531 64.304688 27.894531 61.949219 L 2.085938 36.394531 C -0.289062 34.042969 -0.304688 30.214844 2.050781 27.84375 L 27.652344 2.082031 C 30.007812 -0.289062 33.84375 -0.304688 36.21875 2.050781 Z M 36.21875 2.050781 " /><g transform="matrix(1.0075098,0,0,1.0032698,16.221436,16.077397)"><path fill-rule="nonzero" fill="rgb(100%, 100%, 100%)" fill-opacity="1" d="M 14.398438 0.703125 C 13.695312 0.703125 13.121094 1.265625 13.121094 1.976562 L 13.121094 5 C 12.046875 5.273438 11.039062 5.695312 10.113281 6.257812 L 7.980469 4.117188 C 7.484375 3.617188 6.679688 3.617188 6.179688 4.117188 L 4.085938 6.214844 C 3.59375 6.714844 3.59375 7.523438 4.085938 8.023438 L 6.21875 10.15625 C 5.667969 11.085938 5.242188 12.101562 4.972656 13.179688 L 1.960938 13.179688 C 1.25 13.179688 0.6875 13.746094 0.6875 14.453125 L 0.6875 17.429688 C 0.6875 18.132812 1.25 18.703125 1.960938 18.703125 L 4.972656 18.703125 C 5.242188 19.78125 5.667969 20.796875 6.21875 21.722656 L 4.085938 23.859375 C 3.59375 24.359375 3.59375 25.167969 4.085938 25.664062 L 6.179688 27.765625 C 6.679688 28.265625 7.484375 28.265625 7.980469 27.765625 L 10.113281 25.628906 C 11.039062 26.179688 12.046875 26.609375 13.121094 26.875 L 13.121094 29.90625 C 13.121094 30.609375 13.695312 31.179688 14.398438 31.179688 L 17.359375 31.179688 C 18.066406 31.179688 18.632812 30.609375 18.632812 29.90625 L 18.632812 26.875 C 19.703125 26.609375 20.71875 26.179688 21.640625 25.628906 L 23.773438 27.765625 C 24.273438 28.265625 25.074219 28.265625 25.574219 27.765625 L 27.664062 25.664062 C 28.164062 25.164062 28.164062 24.359375 27.664062 23.859375 L 25.535156 21.722656 C 26.085938 20.796875 26.515625 19.78125 26.78125 18.703125 L 29.796875 18.703125 C 30.5 18.703125 31.070312 18.132812 31.070312 17.429688 L 31.070312 14.453125 C 31.070312 13.746094 30.5 13.179688 29.796875 13.179688 L 26.78125 13.179688 C 26.515625 12.101562 26.085938 11.085938 25.535156 10.15625 L 27.664062 8.023438 C 28.164062 7.519531 28.164062 6.714844 27.664062 6.214844 L 25.574219 4.117188 C 25.074219 3.617188 24.273438 3.617188 23.773438 4.117188 L 21.640625 6.257812 C 20.71875 5.695312 19.703125 5.273438 18.632812 5 L 18.632812 1.976562 C 18.632812 1.265625 18.066406 0.703125 17.359375 0.703125 Z M 15.875 10.730469 C 18.746094 10.730469 21.070312 13.0625 21.070312 15.941406 C 21.070312 18.820312 18.746094 21.148438 15.875 21.148438 C 13.011719 21.148438 10.683594 18.820312 10.683594 15.941406 C 10.683594 13.0625 13.007812 10.730469 15.875 10.730469 Z M 15.875 10.730469 "/></g></svg>
