<svg width="64" height="64" viewBox="0 0 64 64" version="1.1"><defs><linearGradient id="linear-pattern-0" gradientUnits="userSpaceOnUse" x1="0" y1="0" x2="0" y2="1" gradientTransform="matrix(60, 0, 0, 56, 0, 4)"><stop offset="0" stop-color="#d00068" stop-opacity="1"/><stop offset="1" stop-color="#6e0037" stop-opacity="1"/></linearGradient></defs><path fill="url(#linear-pattern-0)" fill-opacity="1" d="M 36.21875 2.050781 L 62.027344 27.605469 C 64.402344 29.957031 64.417969 33.785156 62.058594 36.15625 L 36.460938 61.917969 C 34.105469 64.289062 30.269531 64.304688 27.894531 61.949219 L 2.085938 36.394531 C -0.289062 34.042969 -0.304688 30.214844 2.050781 27.84375 L 27.652344 2.082031 C 30.007812 -0.289062 33.84375 -0.304688 36.21875 2.050781 Z M 36.21875 2.050781 " /><g transform="matrix(1.0075098,0,0,1.0032698,16.221436,16.077397)"><path fill-rule="nonzero" fill="rgb(100%, 100%, 100%)" fill-opacity="1" d="M 1.0625 5.957031 C 1.0625 3.507812 3.210938 1.347656 5.644531 1.3125 C 12.328125 1.285156 19.015625 1.3125 25.703125 1.304688 C 26.515625 1.285156 27.34375 1.3125 28.101562 1.628906 C 29.871094 2.277344 31.152344 4.066406 31.171875 5.957031 C 31.179688 12.9375 31.179688 19.921875 31.171875 26.902344 C 31.1875 29.144531 29.386719 31.09375 27.242188 31.527344 C 21.058594 31.617188 14.867188 31.546875 8.683594 31.5625 C 8.007812 31.636719 7.398438 31.015625 7.445312 30.347656 C 7.425781 26.101562 7.460938 21.84375 7.425781 17.59375 C 6.789062 17.59375 6.15625 17.632812 5.527344 17.515625 C 6.757812 17.445312 7.992188 17.65625 9.21875 17.570312 C 9.972656 17.515625 10.726562 17.5 11.488281 17.515625 C 10.894531 17.664062 10.28125 17.59375 9.679688 17.578125 C 9.660156 21.476562 9.679688 25.375 9.667969 29.269531 C 11.304688 29.28125 12.9375 29.28125 14.578125 29.28125 C 14.5625 27.0625 14.617188 24.859375 14.554688 22.65625 C 15.296875 22.621094 16.039062 22.621094 16.796875 22.664062 C 16.785156 24.867188 16.785156 27.0625 16.796875 29.269531 C 18.703125 29.28125 20.609375 29.28125 22.519531 29.28125 C 22.519531 24.21875 22.53125 19.175781 22.511719 14.117188 C 21.9375 14.125 21.351562 14.171875 20.78125 14.046875 C 21.460938 14.027344 22.152344 14.035156 22.835938 14.089844 C 24.097656 14.195312 25.351562 13.9375 26.617188 14.0625 C 26.007812 14.164062 25.398438 14.125 24.78125 14.109375 C 24.761719 19.15625 24.78125 24.210938 24.769531 29.269531 C 25.792969 29.242188 26.929688 29.46875 27.820312 28.828125 C 28.507812 28.367188 28.929688 27.542969 28.902344 26.714844 C 28.914062 19.855469 28.914062 13 28.902344 6.144531 C 28.960938 4.796875 27.765625 3.597656 26.4375 3.589844 C 19.625 3.570312 12.8125 3.589844 6.011719 3.578125 C 4.6875 3.480469 3.339844 4.589844 3.367188 5.957031 C 3.359375 12.929688 3.367188 19.910156 3.359375 26.882812 C 3.320312 27.828125 3.984375 28.65625 4.800781 29.0625 C 5.25 29.25 5.402344 29.734375 5.507812 30.171875 C 5.320312 30.773438 4.808594 31.402344 4.101562 31.203125 C 2.257812 30.582031 1 28.628906 1.054688 26.6875 C 1.054688 19.773438 1.054688 12.867188 1.0625 5.957031 Z M 1.0625 5.957031 "/><path fill-rule="nonzero" fill="rgb(100%, 100%, 100%)" fill-opacity="1" d="M 7.453125 10.375 C 7.445312 9.617188 8.375 9.0625 9.023438 9.453125 C 9.507812 9.679688 9.660156 10.257812 9.648438 10.75 C 9.667969 12.300781 9.648438 13.847656 9.660156 15.398438 C 10.390625 15.476562 11.34375 15.140625 11.90625 15.78125 C 12.398438 16.320312 12.152344 17.257812 11.488281 17.515625 C 10.726562 17.5 9.972656 17.515625 9.21875 17.570312 C 7.992188 17.65625 6.757812 17.445312 5.527344 17.515625 C 4.980469 17.179688 4.6875 16.394531 5.125 15.84375 C 5.664062 15.117188 6.675781 15.484375 7.445312 15.40625 C 7.460938 13.730469 7.425781 12.046875 7.453125 10.375 Z M 7.453125 10.375 "/><path fill-rule="nonzero" fill="rgb(100%, 100%, 100%)" fill-opacity="1" d="M 14.597656 10.375 C 14.589844 9.78125 15.171875 9.265625 15.753906 9.328125 C 16.375 9.355469 16.828125 9.96875 16.777344 10.570312 C 16.777344 13.875 16.777344 17.164062 16.777344 20.46875 C 17.382812 20.488281 18.011719 20.398438 18.601562 20.550781 C 19.414062 20.820312 19.5625 22.042969 18.828125 22.492188 C 18.203125 22.820312 17.464844 22.65625 16.796875 22.664062 C 16.039062 22.621094 15.296875 22.621094 14.554688 22.65625 C 13.875 22.648438 13.109375 22.84375 12.5 22.46875 C 11.828125 22 11.953125 20.855469 12.714844 20.558594 C 13.3125 20.398438 13.960938 20.496094 14.578125 20.46875 C 14.597656 17.105469 14.570312 13.738281 14.597656 10.375 Z M 14.597656 10.375 "/><path fill-rule="nonzero" fill="rgb(100%, 100%, 100%)" fill-opacity="1" d="M 22.679688 9.867188 C 23.078125 9.125 24.257812 9.179688 24.609375 9.933594 C 24.824219 10.554688 24.679688 11.234375 24.71875 11.882812 C 25.503906 11.992188 26.578125 11.605469 27.109375 12.398438 C 27.539062 12.984375 27.164062 13.730469 26.617188 14.0625 C 25.351562 13.9375 24.097656 14.195312 22.835938 14.089844 C 22.152344 14.035156 21.460938 14.027344 20.78125 14.046875 C 20.046875 13.820312 19.789062 12.8125 20.308594 12.253906 C 20.890625 11.667969 21.796875 11.976562 22.519531 11.902344 C 22.574219 11.226562 22.382812 10.5 22.679688 9.867188 Z M 22.679688 9.867188 "/></g></svg>
