<svg width="64" height="64" viewBox="0 0 64 64" version="1.1"><defs><linearGradient id="linear-pattern-0" gradientUnits="userSpaceOnUse" x1="0" y1="0" x2="0" y2="1" gradientTransform="matrix(60, 0, 0, 56, 0, 4)"><stop offset="0" stop-color="#0288cf" stop-opacity="1"/><stop offset="1" stop-color="#01486e" stop-opacity="1"/></linearGradient></defs><path fill="url(#linear-pattern-0)" fill-opacity="1" d="M 36.21875 2.050781 L 62.027344 27.605469 C 64.402344 29.957031 64.417969 33.785156 62.058594 36.15625 L 36.460938 61.917969 C 34.105469 64.289062 30.269531 64.304688 27.894531 61.949219 L 2.085938 36.394531 C -0.289062 34.042969 -0.304688 30.214844 2.050781 27.84375 L 27.652344 2.082031 C 30.007812 -0.289062 33.84375 -0.304688 36.21875 2.050781 Z M 36.21875 2.050781 " /><g transform="matrix(1.0075098,0,0,1.0032698,16.221436,16.077397)"><path fill-rule="evenodd" fill="rgb(100%, 100%, 100%)" fill-opacity="1" d="M 5.460938 5.203125 C -0.121094 5.203125 -0.140625 11.1875 -0.140625 11.1875 L -0.140625 17.996094 C -0.140625 19.273438 0.738281 20.980469 1.597656 21.835938 C 3.113281 23.34375 4.164062 23.125 4.164062 23.125 C 4.164062 23.125 4.179688 23.546875 4.609375 24.828125 C 5.039062 26.109375 6.300781 26.96875 7.589844 26.96875 C 8.878906 26.96875 9.328125 26.53125 9.328125 26.53125 L 9.328125 24.828125 C 9.328125 24.828125 8.890625 24.84375 8.03125 24.417969 C 7.171875 23.992188 7.171875 23.125 7.171875 23.125 C 7.171875 23.125 8.453125 22.707031 9.742188 21.425781 C 11.03125 20.148438 11.046875 17.996094 11.046875 17.996094 L 11.046875 11.59375 C 11.046875 11.59375 11.046875 5.203125 5.460938 5.203125 M 13.96875 6.082031 L 12.664062 9.484375 L 11.808594 9.484375 L 11.808594 11.1875 L 12.664062 11.1875 L 12.664062 20.164062 C 12.664062 20.164062 12.671875 22.277344 14.820312 22.277344 C 16.96875 22.277344 17.390625 21.425781 17.390625 21.425781 L 17.390625 19.78125 C 17.351562 19.90625 17.179688 20.164062 16.53125 20.164062 C 15.675781 20.164062 15.265625 19.3125 15.265625 19.3125 L 15.265625 11.1875 L 17.390625 11.1875 L 17.390625 9.484375 L 15.265625 9.484375 L 15.265625 6.085938 L 13.96875 6.085938 M 5.726562 7.34375 C 7.875 7.34375 7.882812 9.460938 7.882812 9.460938 L 7.882812 17.996094 C 7.882812 17.996094 7.875 20.984375 5.726562 20.984375 C 3.582031 20.984375 3.574219 17.996094 3.574219 17.996094 L 3.574219 9.898438 C 3.574219 9.898438 3.582031 7.34375 5.726562 7.34375 "/><path fill-rule="nonzero" fill="rgb(100%, 100%, 100%)" fill-opacity="1" d="M 20.3125 9.039062 L 18.324219 13.199219 L 20.4375 16.847656 L 20.4375 15.140625 L 26.285156 14.828125 L 26.285156 9.078125 L 20.3125 10.664062 L 20.3125 9.039062 M 27.082031 13.507812 L 27.210938 15.382812 L 20.945312 15.726562 L 21.261719 20.3125 L 27.5 21.203125 L 27.632812 23.132812 L 32.199219 18.605469 L 27.082031 13.507812 "/></g></svg>
