<svg width="64" height="64" viewBox="0 0 64 64" version="1.1"><defs><linearGradient id="linear-pattern-0" gradientUnits="userSpaceOnUse" x1="0" y1="0" x2="0" y2="1" gradientTransform="matrix(60, 0, 0, 56, 0, 4)"><stop offset="0" stop-color="#00983a" stop-opacity="1"/><stop offset="1" stop-color="#004a1c" stop-opacity="1"/></linearGradient></defs><path fill="url(#linear-pattern-0)" fill-opacity="1" d="M 36.21875 2.050781 L 62.027344 27.605469 C 64.402344 29.957031 64.417969 33.785156 62.058594 36.15625 L 36.460938 61.917969 C 34.105469 64.289062 30.269531 64.304688 27.894531 61.949219 L 2.085938 36.394531 C -0.289062 34.042969 -0.304688 30.214844 2.050781 27.84375 L 27.652344 2.082031 C 30.007812 -0.289062 33.84375 -0.304688 36.21875 2.050781 Z M 36.21875 2.050781 " /><g transform="matrix(1.0075098,0,0,1.0032698,16.221436,16.077397)"><path fill-rule="evenodd" fill="rgb(100%, 100%, 100%)" fill-opacity="1" d="M 13.703125 13.421875 C 13.703125 14.882812 13.703125 16.34375 13.703125 17.808594 C 14.78125 18.867188 15.859375 19.929688 16.9375 20.992188 C 16.9375 20.996094 16.9375 20.996094 16.9375 20.996094 C 17.859375 21.90625 18.789062 22.820312 19.714844 23.734375 C 22.210938 26.214844 24.710938 28.691406 27.171875 31.203125 L 32 31.3125 L 31.703125 26.679688 L 25.328125 20.292969 C 25.332031 20.292969 25.335938 20.292969 25.34375 20.292969 L 21.5625 16.5625 L 18.328125 13.375 C 16.789062 13.390625 15.242188 13.40625 13.703125 13.421875 Z M 13.65625 30.570312 C 11.554688 30.304688 10.054688 29.84375 8.09375 28.875 C 7.140625 28.402344 7.054688 28.351562 6.871094 28.1875 C 6.785156 28.109375 6.691406 28.046875 6.660156 28.046875 C 6.492188 28.046875 4.867188 26.742188 4.257812 26.117188 C 3.933594 25.789062 3.398438 25.175781 3.148438 24.855469 C 2.609375 24.15625 2.324219 23.761719 2.324219 23.71875 C 2.324219 23.6875 2.25 23.570312 2.164062 23.445312 C 1.910156 23.082031 1.492188 22.261719 1.1875 21.539062 C 0.183594 19.132812 -0.195312 16.484375 0.0976562 13.984375 C 0.335938 11.953125 0.914062 10.035156 1.710938 8.632812 C 1.863281 8.359375 1.988281 8.121094 1.988281 8.101562 C 1.988281 8.015625 2.945312 6.671875 3.316406 6.234375 C 4.023438 5.402344 5.367188 4.117188 5.820312 3.84375 C 6.328125 3.542969 6.519531 3.40625 6.519531 3.351562 C 6.519531 3.316406 6.558594 3.289062 6.601562 3.289062 C 6.648438 3.289062 6.882812 3.164062 7.128906 3.011719 C 7.988281 2.476562 10.304688 1.4375 10.636719 1.4375 C 10.703125 1.441406 10.929688 1.390625 11.136719 1.324219 C 12.359375 0.941406 14.222656 0.691406 15.882812 0.6875 C 17.835938 0.679688 20.132812 1.054688 21.714844 1.632812 C 22.546875 1.933594 23.734375 2.453125 24.15625 2.703125 C 24.390625 2.84375 24.589844 2.953125 24.609375 2.953125 C 24.695312 2.953125 25.699219 3.640625 26.339844 4.140625 C 26.902344 4.582031 28.039062 5.703125 28.796875 6.5625 C 29.507812 7.367188 30.78125 9.804688 31.140625 11.054688 C 31.851562 13.5 32.007812 15.398438 31.699219 17.679688 C 31.542969 18.84375 31.257812 19.921875 30.722656 21.375 C 30.507812 21.960938 29.996094 22.929688 29.902344 22.929688 C 29.851562 22.929688 28.757812 21.875 27.476562 20.585938 L 25.136719 18.246094 L 25.273438 17.65625 C 25.367188 17.234375 25.40625 16.644531 25.40625 15.609375 C 25.40625 14.125 25.296875 13.40625 24.878906 12.179688 C 24.546875 11.207031 23.648438 9.640625 23.140625 9.148438 C 23.0625 9.074219 22.925781 8.921875 22.835938 8.8125 C 22.578125 8.492188 21.789062 7.820312 21.253906 7.464844 C 19.65625 6.402344 17.945312 5.890625 16.007812 5.890625 C 13.765625 5.890625 11.742188 6.59375 9.929688 8.007812 C 9.277344 8.515625 7.945312 10.015625 7.945312 10.242188 C 7.945312 10.296875 7.917969 10.335938 7.882812 10.335938 C 7.789062 10.335938 7.066406 11.804688 6.90625 12.3125 C 6.835938 12.542969 6.71875 12.917969 6.644531 13.148438 C 6.296875 14.257812 6.296875 17.015625 6.648438 18.144531 C 6.992188 19.238281 7.109375 19.5625 7.402344 20.140625 C 8.167969 21.664062 9.304688 22.953125 10.695312 23.882812 C 11.277344 24.269531 12.242188 24.75 12.816406 24.9375 C 14.171875 25.382812 14.3125 25.40625 15.921875 25.40625 C 16.773438 25.40625 17.609375 25.375 17.78125 25.339844 L 18.085938 25.273438 L 20.238281 27.390625 L 22.386719 29.507812 L 21.988281 29.664062 C 19.746094 30.546875 16.335938 30.914062 13.65625 30.570312 Z M 13.65625 30.570312 "/></g></svg>
