<svg width="64" height="64" viewBox="0 0 64 64" version="1.1"><defs><linearGradient id="linear-pattern-0" gradientUnits="userSpaceOnUse" x1="0" y1="0" x2="0" y2="1" gradientTransform="matrix(60, 0, 0, 56, 0, 4)"><stop offset="0" stop-color="#008a97" stop-opacity="1"/><stop offset="1" stop-color="#00545c" stop-opacity="1"/></linearGradient></defs><path fill="url(#linear-pattern-0)" fill-opacity="1" d="M 36.21875 2.050781 L 62.027344 27.605469 C 64.402344 29.957031 64.417969 33.785156 62.058594 36.15625 L 36.460938 61.917969 C 34.105469 64.289062 30.269531 64.304688 27.894531 61.949219 L 2.085938 36.394531 C -0.289062 34.042969 -0.304688 30.214844 2.050781 27.84375 L 27.652344 2.082031 C 30.007812 -0.289062 33.84375 -0.304688 36.21875 2.050781 Z M 36.21875 2.050781 " /><g transform="matrix(1.0075098,0,0,1.0032698,16.221436,16.077397)"><path fill-rule="nonzero" fill="rgb(100%, 100%, 100%)" fill-opacity="1" d="M 12.109375 5.910156 C 1.1875 9.226562 -1.09375 13.484375 3.0625 27.085938 C 3.730469 29.257812 9.882812 22.046875 11.066406 18.117188 L 19.8125 15.464844 C 22.992188 18.066406 32.132812 20.609375 31.476562 18.464844 C 27.3125 4.867188 23.039062 2.59375 12.109375 5.910156 Z M 6.554688 11.164062 L 7.648438 10.828125 L 8.3125 13.007812 L 10.496094 12.34375 L 10.828125 13.429688 L 8.644531 14.09375 L 9.308594 16.269531 L 8.21875 16.601562 L 7.554688 14.429688 L 5.367188 15.085938 L 5.03125 14 L 7.21875 13.335938 Z M 17.476562 7.847656 C 18.085938 7.664062 18.722656 8 18.90625 8.605469 C 19.085938 9.207031 18.75 9.839844 18.148438 10.023438 C 17.539062 10.207031 16.90625 9.867188 16.71875 9.265625 C 16.535156 8.664062 16.875 8.03125 17.476562 7.847656 Z M 20.757812 6.851562 C 21.359375 6.671875 22 7.007812 22.183594 7.609375 C 22.367188 8.210938 22.027344 8.847656 21.421875 9.03125 C 20.820312 9.210938 20.179688 8.875 20 8.273438 C 19.816406 7.671875 20.15625 7.039062 20.757812 6.851562 Z M 18.476562 11.113281 C 19.085938 10.929688 19.71875 11.265625 19.90625 11.867188 C 20.085938 12.46875 19.75 13.105469 19.140625 13.289062 C 18.539062 13.46875 17.902344 13.132812 17.71875 12.53125 C 17.535156 11.929688 17.875 11.296875 18.476562 11.113281 Z M 21.757812 10.117188 C 22.359375 9.933594 23 10.273438 23.179688 10.875 C 23.367188 11.476562 23.023438 12.109375 22.421875 12.296875 C 21.820312 12.476562 21.179688 12.140625 20.996094 11.539062 C 20.8125 10.9375 21.152344 10.300781 21.757812 10.117188 Z M 21.757812 10.117188 "/></g></svg>
