<svg width="64" height="64" viewBox="0 0 64 64" version="1.1"><defs><linearGradient id="linear-pattern-0" gradientUnits="userSpaceOnUse" x1="0" y1="0" x2="0" y2="1" gradientTransform="matrix(60, 0, 0, 56, 0, 4)"><stop offset="0" stop-color="#0288cf" stop-opacity="1"/><stop offset="1" stop-color="#01486e" stop-opacity="1"/></linearGradient></defs><path fill="url(#linear-pattern-0)" fill-opacity="1" d="M 36.21875 2.050781 L 62.027344 27.605469 C 64.402344 29.957031 64.417969 33.785156 62.058594 36.15625 L 36.460938 61.917969 C 34.105469 64.289062 30.269531 64.304688 27.894531 61.949219 L 2.085938 36.394531 C -0.289062 34.042969 -0.304688 30.214844 2.050781 27.84375 L 27.652344 2.082031 C 30.007812 -0.289062 33.84375 -0.304688 36.21875 2.050781 Z M 36.21875 2.050781 " /><g transform="matrix(1.0075098,0,0,1.0032698,16.221436,16.077397)"><path fill-rule="nonzero" fill="rgb(100%, 100%, 100%)" fill-opacity="1" d="M 15.695312 1.757812 C 14.539062 1.757812 13.390625 1.960938 12.28125 2.359375 C 11.164062 2.75 10.171875 3.285156 9.289062 3.96875 C 8.402344 4.65625 7.6875 5.515625 7.140625 6.550781 C 6.601562 7.585938 6.328125 8.707031 6.328125 9.902344 C 6.328125 11.78125 6.953125 13.394531 8.214844 14.765625 C 8.765625 15.355469 9.21875 15.878906 9.582031 16.34375 C 9.9375 16.796875 10.289062 17.390625 10.652344 18.085938 C 11.015625 18.773438 11.21875 19.398438 11.273438 19.996094 L 13.617188 22.140625 L 17.773438 22.140625 L 20.085938 19.996094 C 20.140625 19.398438 20.375 18.773438 20.734375 18.085938 C 21.101562 17.390625 21.445312 16.796875 21.808594 16.34375 C 22.171875 15.878906 22.625 15.355469 23.175781 14.765625 C 24.429688 13.394531 25.0625 11.78125 25.0625 9.902344 C 25.0625 8.703125 24.789062 7.585938 24.25 6.550781 C 23.703125 5.515625 22.992188 4.65625 22.101562 3.96875 C 21.21875 3.285156 20.226562 2.75 19.109375 2.359375 C 18 1.964844 16.855469 1.757812 15.695312 1.757812 "/><path fill-rule="nonzero" fill="rgb(100%, 100%, 100%)" fill-opacity="1" d="M 19.582031 20.015625 C 20.0625 20.410156 20.304688 20.992188 20.304688 21.757812 C 20.304688 22.285156 20.179688 22.734375 19.921875 23.117188 C 20.179688 23.5 20.304688 23.945312 20.304688 24.46875 C 20.304688 25.210938 20.078125 25.78125 19.609375 26.1875 C 19.742188 26.519531 19.8125 26.851562 19.8125 27.1875 C 19.8125 27.84375 19.648438 28.339844 19.320312 28.699219 C 18.992188 29.050781 18.601562 29.226562 18.125 29.226562 C 17.917969 29.851562 17.609375 30.34375 17.1875 30.710938 C 16.773438 31.082031 16.328125 31.265625 15.84375 31.265625 C 15.351562 31.265625 14.902344 31.078125 14.492188 30.710938 C 14.078125 30.34375 13.765625 29.851562 13.5625 29.226562 C 13.082031 29.226562 12.679688 29.050781 12.359375 28.699219 C 12.03125 28.34375 11.867188 27.84375 11.867188 27.1875 C 11.867188 26.851562 11.929688 26.519531 12.070312 26.1875 C 11.601562 25.785156 11.367188 25.210938 11.367188 24.46875 C 11.367188 23.945312 11.5 23.5 11.757812 23.117188 C 11.492188 22.734375 11.367188 22.285156 11.367188 21.757812 C 11.367188 20.996094 11.609375 20.414062 12.101562 20.015625 "/><path fill-rule="nonzero" fill="rgb(77.647059%, 79.215686%, 79.215686%)" fill-opacity="1" d="M 14.796875 7.136719 L 14.796875 10.710938 L 11.394531 10.710938 L 11.394531 12.5 L 14.796875 12.5 L 14.796875 16.078125 L 16.5 16.078125 L 16.5 12.5 L 19.902344 12.5 L 19.902344 10.710938 L 16.5 10.710938 L 16.5 7.136719 Z M 14.796875 7.136719 "/></g></svg>
