<svg width="64" height="64" viewBox="0 0 64 64" version="1.1"><defs><linearGradient id="linear-pattern-0" gradientUnits="userSpaceOnUse" x1="0" y1="0" x2="0" y2="1" gradientTransform="matrix(60, 0, 0, 56, 0, 4)"><stop offset="0" stop-color="#aaaa00" stop-opacity="1"/><stop offset="1" stop-color="#5c5c00" stop-opacity="1"/></linearGradient></defs><path fill="url(#linear-pattern-0)" fill-opacity="1" d="M 36.21875 2.050781 L 62.027344 27.605469 C 64.402344 29.957031 64.417969 33.785156 62.058594 36.15625 L 36.460938 61.917969 C 34.105469 64.289062 30.269531 64.304688 27.894531 61.949219 L 2.085938 36.394531 C -0.289062 34.042969 -0.304688 30.214844 2.050781 27.84375 L 27.652344 2.082031 C 30.007812 -0.289062 33.84375 -0.304688 36.21875 2.050781 Z M 36.21875 2.050781 " /><g transform="matrix(1.0075098,0,0,1.0032698,16.221436,16.077397)"><path fill-rule="nonzero" fill="rgb(100%, 100%, 100%)" fill-opacity="1" d="M 16.488281 2.210938 C 8.628906 2.210938 2.25 9.453125 2.25 18.382812 C 2.25 22.671875 3.75 26.78125 6.414062 29.8125 L 8.457031 27.492188 C 6.320312 25.078125 5.109375 21.800781 5.085938 18.382812 C 5.085938 11.234375 10.1875 5.445312 16.476562 5.445312 C 22.773438 5.445312 27.867188 11.234375 27.867188 18.382812 L 25.734375 25.929688 L 19.839844 25.242188 L 24.070312 30.246094 L 26.445312 30.246094 C 29.113281 27.21875 30.71875 22.675781 30.71875 18.382812 C 30.71875 9.457031 24.335938 2.210938 16.476562 2.210938 Z M 16.488281 7.601562 L 14.589844 9.757812 C 14.589844 10.945312 15.4375 11.914062 16.488281 11.914062 C 17.539062 11.914062 18.386719 10.945312 18.386719 9.757812 C 18.386719 8.5625 17.539062 7.601562 16.488281 7.601562 Z M 10.792969 9.757812 L 8.894531 11.914062 C 8.894531 13.101562 9.742188 14.070312 10.792969 14.070312 C 11.84375 14.070312 12.691406 13.101562 12.691406 11.914062 C 12.691406 10.71875 11.84375 9.757812 10.792969 9.757812 Z M 22.183594 9.757812 L 20.285156 11.914062 C 20.285156 13.101562 21.132812 14.070312 22.183594 14.070312 C 23.234375 14.070312 24.082031 13.101562 24.082031 11.914062 C 24.082031 10.71875 23.234375 9.757812 22.183594 9.757812 Z M 8.894531 16.226562 L 6.996094 18.382812 C 6.996094 19.570312 7.84375 20.539062 8.894531 20.539062 C 9.945312 20.539062 10.792969 19.574219 10.792969 18.382812 C 10.792969 17.191406 9.945312 16.226562 8.894531 16.226562 Z M 10.792969 22.695312 L 8.894531 24.851562 C 8.894531 26.039062 9.742188 27.007812 10.792969 27.007812 C 11.84375 27.007812 12.691406 26.042969 12.691406 24.851562 C 12.691406 23.660156 11.84375 22.695312 10.792969 22.695312 Z M 10.792969 22.695312 "/></g></svg>
