<svg width="64" height="64" viewBox="0 0 64 64" version="1.1"><defs><linearGradient id="linear-pattern-0" gradientUnits="userSpaceOnUse" x1="0" y1="0" x2="0" y2="1" gradientTransform="matrix(60, 0, 0, 56, 0, 4)"><stop offset="0" stop-color="#00983a" stop-opacity="1"/><stop offset="1" stop-color="#004a1c" stop-opacity="1"/></linearGradient></defs><path fill="url(#linear-pattern-0)" fill-opacity="1" d="M 36.21875 2.050781 L 62.027344 27.605469 C 64.402344 29.957031 64.417969 33.785156 62.058594 36.15625 L 36.460938 61.917969 C 34.105469 64.289062 30.269531 64.304688 27.894531 61.949219 L 2.085938 36.394531 C -0.289062 34.042969 -0.304688 30.214844 2.050781 27.84375 L 27.652344 2.082031 C 30.007812 -0.289062 33.84375 -0.304688 36.21875 2.050781 Z M 36.21875 2.050781 " /><g transform="matrix(1.0075098,0,0,1.0032698,16.221436,16.077397)"><path fill-rule="evenodd" fill="rgb(100%, 100%, 100%)" fill-opacity="1" d="M 16.988281 5.59375 C 16.492188 6.464844 16.246094 7 16.125 7.320312 C 16.070312 7.46875 16.050781 7.625 16.03125 7.625 C 16.015625 7.628906 15.992188 7.472656 15.9375 7.328125 C 15.820312 7.007812 15.578125 6.472656 15.078125 5.601562 L 14.789062 5.746094 C 15.28125 6.609375 15.515625 7.128906 15.625 7.425781 C 15.679688 7.5625 15.742188 7.65625 15.710938 7.695312 C 15.679688 7.734375 15.609375 7.703125 15.460938 7.820312 C 15.320312 7.933594 15.15625 8.210938 15.109375 8.546875 C 14.304688 8.539062 14.039062 8.523438 14.03125 8.519531 C 13.953125 8.445312 13.859375 8.359375 13.699219 8.242188 C 13.507812 8.101562 13.257812 7.9375 13.007812 7.78125 C 12.753906 7.625 12.496094 7.472656 12.257812 7.367188 C 12.023438 7.265625 11.695312 7.222656 11.609375 7.242188 C 11.515625 7.265625 11.617188 7.242188 11.59375 7.242188 C 11.570312 7.242188 11.554688 7.242188 11.492188 7.242188 C 11.425781 7.242188 11.28125 7.242188 11.128906 7.242188 C 10.828125 7.25 10.40625 7.257812 9.90625 7.273438 C 8.90625 7.308594 7.589844 7.398438 6.265625 7.617188 C 4.9375 7.835938 3.605469 8.179688 2.5625 8.75 C 1.523438 9.320312 0.757812 10.140625 0.644531 11.257812 C 0.644531 11.257812 0.648438 11.261719 0.644531 11.265625 C 0.644531 11.273438 0.640625 11.289062 0.644531 11.320312 C 0.648438 11.359375 0.664062 11.410156 0.6875 11.46875 C 0.734375 11.582031 0.820312 11.742188 1.007812 11.917969 C 1.382812 12.277344 2.125 12.75 3.648438 13.289062 C 3.648438 13.289062 3.921875 13.398438 4.148438 13.558594 C 4.261719 13.640625 4.355469 13.742188 4.398438 13.820312 C 4.445312 13.898438 4.453125 13.9375 4.398438 14.019531 L 4.398438 14.03125 C 4.398438 14.03125 4.363281 14.085938 4.34375 14.15625 C 4.332031 14.226562 4.328125 14.320312 4.359375 14.445312 C 4.414062 14.683594 4.59375 15 5.070312 15.394531 C 5.070312 15.394531 5.101562 15.414062 5.113281 15.421875 C 5.121094 15.425781 5.132812 15.429688 5.132812 15.429688 C 5.144531 15.4375 5.148438 15.429688 5.15625 15.429688 C 5.164062 15.433594 5.171875 15.4375 5.175781 15.441406 C 5.1875 15.441406 5.195312 15.4375 5.207031 15.441406 C 5.234375 15.445312 5.28125 15.445312 5.320312 15.453125 C 5.40625 15.460938 5.515625 15.46875 5.632812 15.5 C 5.867188 15.554688 6.09375 15.667969 6.191406 15.835938 C 6.242188 15.925781 6.328125 15.945312 6.398438 15.96875 C 6.476562 15.992188 6.554688 16.007812 6.648438 16.015625 C 6.835938 16.039062 7.054688 16.054688 7.273438 16.054688 C 7.484375 16.058594 7.695312 16.058594 7.84375 16.0625 C 7.890625 16.066406 7.921875 16.070312 7.953125 16.078125 C 7.960938 16.132812 7.976562 16.242188 7.976562 16.421875 C 7.976562 16.53125 7.96875 16.648438 7.945312 16.734375 C 7.921875 16.824219 7.890625 16.867188 7.875 16.882812 L 7.851562 16.890625 L 7.84375 16.898438 C 7.84375 16.898438 7.625 17.109375 7.539062 17.460938 C 7.460938 17.804688 7.523438 18.308594 8.03125 18.851562 C 8.523438 19.378906 9.429688 20.074219 10.226562 20.71875 C 10.625 21.042969 10.992188 21.355469 11.25 21.609375 C 11.382812 21.742188 11.484375 21.855469 11.554688 21.949219 C 11.621094 22.046875 11.648438 22.117188 11.648438 22.132812 C 11.644531 22.148438 11.515625 23.167969 11.453125 24.21875 C 11.414062 24.742188 11.398438 25.273438 11.429688 25.691406 C 11.445312 25.902344 11.464844 26.085938 11.515625 26.230469 C 11.535156 26.304688 11.5625 26.367188 11.601562 26.421875 C 11.648438 26.480469 11.707031 26.539062 11.789062 26.554688 C 12.164062 26.648438 12.566406 26.464844 12.882812 26.230469 C 13.195312 26 13.445312 25.714844 13.460938 25.414062 C 13.484375 24.945312 13.148438 24.570312 13.109375 24.53125 C 13.101562 24.5 13.046875 24.296875 13.015625 24.039062 C 13 23.90625 12.984375 23.765625 12.996094 23.648438 C 13.007812 23.53125 13.046875 23.445312 13.078125 23.417969 C 13.117188 23.382812 13.171875 23.367188 13.273438 23.371094 C 13.378906 23.371094 13.511719 23.390625 13.65625 23.417969 C 13.804688 23.445312 13.960938 23.492188 14.113281 23.503906 C 14.265625 23.515625 14.425781 23.5 14.570312 23.417969 C 14.878906 23.242188 15.1875 22.851562 15.484375 22.496094 C 15.632812 22.320312 15.6875 22.203125 15.886719 22.046875 C 16.085938 21.890625 16.296875 22.148438 16.582031 22.476562 C 16.878906 22.828125 17.1875 23.226562 17.492188 23.40625 C 17.640625 23.492188 17.796875 23.5 17.953125 23.484375 C 18.101562 23.472656 18.261719 23.4375 18.40625 23.40625 C 18.554688 23.378906 18.6875 23.351562 18.789062 23.351562 C 18.890625 23.351562 18.945312 23.371094 18.984375 23.40625 C 19.015625 23.4375 19.046875 23.511719 19.0625 23.628906 C 19.070312 23.746094 19.066406 23.894531 19.046875 24.03125 C 19.015625 24.296875 18.949219 24.515625 18.945312 24.53125 C 18.898438 24.585938 18.578125 24.945312 18.601562 25.40625 C 18.621094 25.707031 18.871094 25.988281 19.1875 26.21875 C 19.5 26.453125 19.890625 26.636719 20.261719 26.546875 C 20.351562 26.527344 20.417969 26.46875 20.460938 26.414062 C 20.503906 26.359375 20.53125 26.28125 20.554688 26.210938 C 20.601562 26.066406 20.625 25.890625 20.636719 25.683594 C 20.664062 25.265625 20.648438 24.726562 20.617188 24.195312 C 20.546875 23.148438 20.410156 22.140625 20.410156 22.125 C 20.410156 22.109375 20.4375 22.03125 20.5 21.9375 C 20.570312 21.84375 20.671875 21.734375 20.800781 21.601562 C 21.0625 21.34375 21.429688 21.035156 21.828125 20.710938 C 22.625 20.0625 23.539062 19.359375 24.039062 18.828125 C 24.539062 18.292969 24.605469 17.796875 24.523438 17.445312 C 24.445312 17.101562 24.226562 16.890625 24.226562 16.890625 L 24.203125 16.882812 L 24.195312 16.875 C 24.179688 16.859375 24.132812 16.8125 24.109375 16.726562 C 24.085938 16.640625 24.078125 16.523438 24.078125 16.414062 C 24.078125 16.234375 24.101562 16.125 24.109375 16.0625 C 24.140625 16.0625 24.171875 16.058594 24.226562 16.054688 C 24.375 16.046875 24.578125 16.050781 24.792969 16.046875 C 25.007812 16.039062 25.230469 16.03125 25.414062 16.007812 C 25.507812 15.996094 25.59375 15.984375 25.664062 15.960938 C 25.742188 15.9375 25.820312 15.90625 25.875 15.8125 C 25.96875 15.648438 26.203125 15.542969 26.429688 15.492188 C 26.546875 15.460938 26.65625 15.453125 26.742188 15.441406 C 26.789062 15.4375 26.820312 15.433594 26.84375 15.429688 C 26.859375 15.429688 26.875 15.421875 26.890625 15.421875 C 26.894531 15.421875 26.898438 15.425781 26.90625 15.421875 C 26.914062 15.421875 26.921875 15.414062 26.929688 15.414062 C 26.9375 15.410156 26.945312 15.40625 26.953125 15.402344 C 26.960938 15.398438 26.992188 15.382812 26.992188 15.382812 C 27.46875 14.992188 27.652344 14.675781 27.710938 14.429688 C 27.734375 14.3125 27.726562 14.207031 27.710938 14.132812 C 27.695312 14.0625 27.667969 14.011719 27.667969 14.011719 C 27.617188 13.929688 27.621094 13.878906 27.667969 13.796875 C 27.710938 13.71875 27.804688 13.632812 27.914062 13.550781 C 28.132812 13.390625 28.390625 13.289062 28.402344 13.28125 C 28.402344 13.28125 28.414062 13.273438 28.414062 13.273438 C 29.929688 12.730469 30.6875 12.257812 31.054688 11.898438 C 31.242188 11.71875 31.335938 11.570312 31.378906 11.457031 C 31.398438 11.398438 31.40625 11.351562 31.410156 11.3125 C 31.414062 11.28125 31.414062 11.253906 31.410156 11.246094 L 31.410156 11.234375 C 31.296875 10.125 30.542969 9.3125 29.5 8.742188 C 28.460938 8.164062 27.125 7.816406 25.800781 7.597656 C 24.476562 7.382812 23.160156 7.296875 22.164062 7.261719 C 21.65625 7.242188 21.242188 7.234375 20.9375 7.234375 C 20.78125 7.234375 20.640625 7.234375 20.574219 7.234375 C 20.507812 7.234375 20.492188 7.226562 20.46875 7.226562 C 20.445312 7.226562 20.546875 7.25 20.460938 7.226562 C 20.367188 7.203125 20.042969 7.257812 19.804688 7.359375 C 19.570312 7.460938 19.304688 7.617188 19.046875 7.769531 C 18.796875 7.929688 18.554688 8.089844 18.367188 8.230469 C 18.210938 8.347656 18.121094 8.425781 18.046875 8.5 C 18.035156 8.5 17.757812 8.515625 16.945312 8.53125 C 16.902344 8.1875 16.742188 7.921875 16.601562 7.8125 C 16.460938 7.695312 16.414062 7.742188 16.382812 7.699219 C 16.34375 7.660156 16.382812 7.554688 16.4375 7.414062 C 16.546875 7.117188 16.78125 6.597656 17.273438 5.738281 "/></g></svg>
