<svg width="64" height="64" viewBox="0 0 64 64" version="1.1"><defs><linearGradient id="linear-pattern-0" gradientUnits="userSpaceOnUse" x1="0" y1="0" x2="0" y2="1" gradientTransform="matrix(60, 0, 0, 56, 0, 4)"><stop offset="0" stop-color="#d00068" stop-opacity="1"/><stop offset="1" stop-color="#6e0037" stop-opacity="1"/></linearGradient></defs><path fill="url(#linear-pattern-0)" fill-opacity="1" d="M 36.21875 2.050781 L 62.027344 27.605469 C 64.402344 29.957031 64.417969 33.785156 62.058594 36.15625 L 36.460938 61.917969 C 34.105469 64.289062 30.269531 64.304688 27.894531 61.949219 L 2.085938 36.394531 C -0.289062 34.042969 -0.304688 30.214844 2.050781 27.84375 L 27.652344 2.082031 C 30.007812 -0.289062 33.84375 -0.304688 36.21875 2.050781 Z M 36.21875 2.050781 " /><g transform="matrix(1.0075098,0,0,1.0032698,16.221436,16.077397)"><path fill-rule="nonzero" fill="rgb(100%, 100%, 100%)" fill-opacity="1" d="M 15.984375 1.039062 C 7.53125 1.039062 0.679688 7.851562 0.679688 16.257812 C 0.679688 22.007812 3.945312 27.265625 9.109375 29.847656 L 10.082031 21.859375 C 8.632812 20.351562 7.824219 18.34375 7.820312 16.257812 C 7.820312 11.777344 11.476562 8.140625 15.984375 8.140625 C 20.492188 8.140625 24.148438 11.777344 24.148438 16.257812 C 24.140625 18.34375 23.328125 20.34375 21.882812 21.859375 L 22.851562 29.835938 C 28.019531 27.257812 31.28125 22.003906 31.289062 16.257812 C 31.289062 7.851562 24.4375 1.039062 15.984375 1.039062 "/><path fill-rule="nonzero" fill="rgb(100%, 100%, 100%)" fill-opacity="1" d="M 15.984375 11.1875 C 13.164062 11.1875 10.882812 13.453125 10.882812 16.257812 C 10.886719 18.023438 11.808594 19.65625 13.324219 20.578125 L 12.054688 30.945312 C 13.335938 31.289062 14.65625 31.46875 15.984375 31.472656 C 17.308594 31.472656 18.625 31.296875 19.910156 30.960938 L 18.640625 20.578125 C 20.15625 19.65625 21.078125 18.023438 21.085938 16.257812 C 21.085938 13.453125 18.800781 11.1875 15.984375 11.1875 "/></g></svg>
