<svg width="64" height="64" viewBox="0 0 64 64" version="1.1"><defs><linearGradient id="linear-pattern-0" gradientUnits="userSpaceOnUse" x1="0" y1="0" x2="0" y2="1" gradientTransform="matrix(60, 0, 0, 56, 0, 4)"><stop offset="0" stop-color="#3067ff" stop-opacity="1"/><stop offset="1" stop-color="#002ca6" stop-opacity="1"/></linearGradient></defs><path fill="url(#linear-pattern-0)" fill-opacity="1" d="M 36.21875 2.050781 L 62.027344 27.605469 C 64.402344 29.957031 64.417969 33.785156 62.058594 36.15625 L 36.460938 61.917969 C 34.105469 64.289062 30.269531 64.304688 27.894531 61.949219 L 2.085938 36.394531 C -0.289062 34.042969 -0.304688 30.214844 2.050781 27.84375 L 27.652344 2.082031 C 30.007812 -0.289062 33.84375 -0.304688 36.21875 2.050781 Z M 36.21875 2.050781 " /><g transform="matrix(1.0075098,0,0,1.0032698,16.221436,16.077397)"><path fill-rule="nonzero" fill="rgb(100%, 100%, 100%)" fill-opacity="1" d="M 16.890625 2.179688 C 16.367188 2.179688 15.828125 2.203125 15.277344 2.25 C 10.390625 2.660156 6.886719 5.132812 4.054688 8.058594 C 2.0625 10.125 0.578125 13.023438 0.15625 15.921875 C -0.445312 20.140625 0.6875 23.898438 3.5625 26.609375 C 6 28.90625 9.859375 29.71875 13.90625 29.808594 C 16.742188 29.871094 19.40625 29.640625 21.796875 29.085938 C 22.984375 28.8125 24.15625 28.460938 24.90625 28.011719 C 25.65625 27.5625 26.167969 26.980469 26.183594 26.265625 C 26.183594 25.105469 25.515625 24.15625 24.542969 23.382812 C 21.726562 21.394531 19.421875 20.25 16.300781 18.671875 C 15.4375 18.265625 14.664062 17.730469 14.546875 16.878906 C 14.398438 15.789062 16.0625 15.457031 16.871094 15.367188 C 18 15.265625 18.949219 15.3125 20.101562 15.425781 C 21.25 15.542969 22.53125 16.570312 22.925781 16.726562 L 22.953125 16.734375 L 22.988281 16.742188 C 23.070312 16.75 23.179688 16.707031 23.234375 16.648438 C 23.285156 16.59375 23.296875 16.546875 23.304688 16.515625 C 23.316406 16.453125 23.3125 16.429688 23.308594 16.398438 C 23.304688 16.335938 23.292969 16.273438 23.273438 16.203125 C 23.242188 16.054688 23.1875 15.851562 23.109375 15.609375 C 22.851562 14.117188 21.96875 11.976562 21.351562 10.695312 C 21.203125 10.429688 21.0625 10.203125 20.910156 10.023438 C 20.757812 9.84375 20.609375 9.695312 20.394531 9.640625 C 20.105469 9.5625 19.695312 9.539062 19.140625 9.546875 C 18.582031 9.554688 17.796875 9.59375 17.03125 9.671875 C 15.503906 9.820312 13.855469 10.105469 12.101562 10.523438 C 10.351562 10.945312 8.695312 11.496094 7.546875 12.203125 C 6.96875 12.5625 6.359375 12.953125 6.089844 13.417969 C 5.816406 13.882812 5.75 15.007812 5.960938 15.546875 C 6.40625 16.722656 7.683594 17.601562 9.078125 18.359375 C 12 19.945312 14.578125 20.960938 17.335938 22.664062 C 18.351562 23.214844 19.027344 24.03125 18.875 24.863281 C 18.71875 25.734375 17.664062 26.171875 16.757812 26.476562 C 15.128906 27.015625 13.484375 26.957031 12.039062 26.90625 C 8.6875 26.765625 5.554688 26.0625 3.25 23.453125 C 1.820312 21.835938 1.625 20.171875 1.46875 17.789062 C 1.316406 15.453125 2.226562 12.847656 3.535156 10.910156 C 6.445312 6.601562 10.230469 4.105469 15.25 3.4375 C 21.171875 2.679688 25.21875 4.804688 27.808594 7.09375 C 29.101562 8.242188 30.027344 9.625 30.625 10.507812 C 30.925781 10.953125 31.144531 11.320312 31.28125 11.570312 C 31.355469 11.695312 31.40625 11.789062 31.441406 11.851562 C 31.457031 11.886719 31.46875 11.90625 31.484375 11.929688 C 31.492188 11.941406 31.480469 11.9375 31.53125 11.992188 C 31.542969 12.007812 31.625 12.054688 31.625 12.054688 C 31.625 12.054688 31.960938 11.941406 31.960938 11.941406 C 31.960938 11.941406 32 11.8125 32 11.792969 C 32 11.765625 32 11.757812 31.996094 11.75 C 31.980469 11.671875 31.976562 11.675781 31.960938 11.648438 C 31.945312 11.617188 31.929688 11.578125 31.910156 11.53125 C 31.867188 11.445312 31.804688 11.324219 31.726562 11.175781 C 31.5625 10.882812 31.324219 10.476562 31 10 C 30.359375 9.046875 29.382812 7.609375 28.039062 6.410156 C 25.683594 4.3125 22.1875 2.324219 17.40625 2.1875 C 17.234375 2.1875 17.0625 2.179688 16.890625 2.179688 Z M 16.890625 2.179688 "/></g></svg>
