<svg width="64" height="64" viewBox="0 0 64 64" version="1.1"><defs><linearGradient id="linear-pattern-0" gradientUnits="userSpaceOnUse" x1="0" y1="0" x2="0" y2="1" gradientTransform="matrix(60, 0, 0, 56, 0, 4)"><stop offset="0" stop-color="#aaaa00" stop-opacity="1"/><stop offset="1" stop-color="#5c5c00" stop-opacity="1"/></linearGradient></defs><path fill="url(#linear-pattern-0)" fill-opacity="1" d="M 36.21875 2.050781 L 62.027344 27.605469 C 64.402344 29.957031 64.417969 33.785156 62.058594 36.15625 L 36.460938 61.917969 C 34.105469 64.289062 30.269531 64.304688 27.894531 61.949219 L 2.085938 36.394531 C -0.289062 34.042969 -0.304688 30.214844 2.050781 27.84375 L 27.652344 2.082031 C 30.007812 -0.289062 33.84375 -0.304688 36.21875 2.050781 Z M 36.21875 2.050781 " /><g transform="matrix(1.0075098,0,0,1.0032698,16.221436,16.077397)"><path fill-rule="nonzero" fill="rgb(100%, 100%, 100%)" fill-opacity="1" d="M 5.859375 1.207031 C 3.070312 1.207031 0.8125 3.453125 0.8125 6.226562 C 0.8125 10.625 7.117188 13.765625 10.898438 13.765625 C 12.792969 13.765625 13.421875 13.132812 13.421875 11.25 C 13.421875 7.484375 10.269531 1.207031 5.859375 1.207031 Z M 26.035156 1.207031 C 21.617188 1.207031 18.46875 7.484375 18.46875 11.25 C 18.46875 13.132812 19.097656 13.765625 20.992188 13.765625 C 24.773438 13.765625 31.078125 10.625 31.078125 6.226562 C 31.078125 3.453125 28.820312 1.207031 26.035156 1.207031 Z M 10.898438 18.785156 C 7.117188 18.785156 0.8125 21.925781 0.8125 26.320312 C 0.8125 29.09375 3.070312 31.34375 5.859375 31.34375 C 10.269531 31.34375 13.421875 25.0625 13.421875 21.296875 C 13.421875 19.414062 12.792969 18.785156 10.898438 18.785156 Z M 20.992188 18.785156 C 19.097656 18.785156 18.46875 19.414062 18.46875 21.296875 C 18.46875 25.0625 21.617188 31.34375 26.035156 31.34375 C 28.820312 31.34375 31.078125 29.09375 31.078125 26.320312 C 31.078125 21.925781 24.773438 18.785156 20.992188 18.785156 Z M 20.992188 18.785156 "/></g></svg>
