<svg width="64" height="64" viewBox="0 0 64 64" version="1.1"><defs><linearGradient id="linear-pattern-0" gradientUnits="userSpaceOnUse" x1="0" y1="0" x2="0" y2="1" gradientTransform="matrix(60, 0, 0, 56, 0, 4)"><stop offset="0" stop-color="#a67e50" stop-opacity="1"/><stop offset="1" stop-color="#644c30" stop-opacity="1"/></linearGradient></defs><path fill="url(#linear-pattern-0)" fill-opacity="1" d="M 36.21875 2.050781 L 62.027344 27.605469 C 64.402344 29.957031 64.417969 33.785156 62.058594 36.15625 L 36.460938 61.917969 C 34.105469 64.289062 30.269531 64.304688 27.894531 61.949219 L 2.085938 36.394531 C -0.289062 34.042969 -0.304688 30.214844 2.050781 27.84375 L 27.652344 2.082031 C 30.007812 -0.289062 33.84375 -0.304688 36.21875 2.050781 Z M 36.21875 2.050781 " /><g transform="matrix(1.0075098,0,0,1.0032698,16.221436,16.077397)"><path fill-rule="nonzero" fill="rgb(100%, 100%, 100%)" fill-opacity="1" d="M 16.390625 0.503906 C 8.34375 0.503906 1.828125 6.789062 1.828125 14.546875 C 1.828125 22.300781 8.34375 28.585938 16.390625 28.585938 L 16.390625 24.578125 C 10.644531 24.578125 5.988281 20.085938 5.988281 14.546875 C 5.988281 9.007812 10.644531 4.515625 16.390625 4.515625 C 22.132812 4.515625 26.789062 9.007812 26.789062 14.546875 C 26.789062 17.921875 25.023438 21.070312 22.101562 22.921875 L 26.046875 25.039062 C 29.15625 22.375 30.945312 18.558594 30.949219 14.546875 C 30.949219 6.789062 24.429688 0.503906 16.390625 0.503906 Z M 17.429688 21.566406 L 17.429688 31.597656 L 26.789062 26.582031 Z M 17.429688 21.566406 "/></g></svg>
