<svg width="64" height="64" viewBox="0 0 64 64" version="1.1"><defs><linearGradient id="linear-pattern-0" gradientUnits="userSpaceOnUse" x1="0" y1="0" x2="0" y2="1" gradientTransform="matrix(60, 0, 0, 56, 0, 4)"><stop offset="0" stop-color="#00983a" stop-opacity="1"/><stop offset="1" stop-color="#004a1c" stop-opacity="1"/></linearGradient></defs><path fill="url(#linear-pattern-0)" fill-opacity="1" d="M 36.21875 2.050781 L 62.027344 27.605469 C 64.402344 29.957031 64.417969 33.785156 62.058594 36.15625 L 36.460938 61.917969 C 34.105469 64.289062 30.269531 64.304688 27.894531 61.949219 L 2.085938 36.394531 C -0.289062 34.042969 -0.304688 30.214844 2.050781 27.84375 L 27.652344 2.082031 C 30.007812 -0.289062 33.84375 -0.304688 36.21875 2.050781 Z M 36.21875 2.050781 " /><g transform="matrix(1.0075098,0,0,1.0032698,16.221436,16.077397)"><path fill-rule="nonzero" fill="rgb(100%, 100%, 100%)" fill-opacity="1" d="M 10.183594 0.00390625 C 7.628906 -0.121094 6.007812 2.796875 7.625 4.695312 C 9.226562 7.078125 13.0625 8.53125 15.660156 6.75 C 15.660156 14.820312 15.695312 23.890625 15.695312 31.957031 C 17.242188 32.359375 16.53125 29.714844 16.894531 28.789062 C 17.617188 25.285156 21.167969 23.464844 23.453125 20.960938 C 25.324219 18.914062 25.570312 15.792969 23.929688 13.53125 C 23.46875 12.890625 21.96875 10.257812 22.191406 10.757812 C 23.203125 12.808594 24.5 15.109375 23.890625 17.4375 C 23.109375 20.226562 20.285156 22.007812 17.386719 22.441406 C 16.648438 22.546875 16.695312 22.335938 16.617188 21.171875 C 16.617188 15.40625 16.617188 9.640625 16.617188 3.875 C 15.648438 1.523438 12.820312 -0.0703125 10.183594 0.00390625 Z M 10.492188 0.75 C 12.945312 0.640625 15.90625 2.507812 15.59375 5.039062 C 14.957031 7.28125 11.71875 7.109375 10.070312 6.015625 C 8.238281 5.175781 6.886719 2.273438 9.101562 1.109375 C 9.523438 0.890625 10.007812 0.777344 10.492188 0.75 Z M 10.492188 0.75 "/></g></svg>
