<svg width="64" height="64" viewBox="0 0 64 64" version="1.1"><defs><linearGradient id="linear-pattern-0" gradientUnits="userSpaceOnUse" x1="0" y1="0" x2="0" y2="1" gradientTransform="matrix(60, 0, 0, 56, 0, 4)"><stop offset="0" stop-color="#00a07f" stop-opacity="1"/><stop offset="1" stop-color="#005241" stop-opacity="1"/></linearGradient></defs><path fill="url(#linear-pattern-0)" fill-opacity="1" d="M 36.21875 2.050781 L 62.027344 27.605469 C 64.402344 29.957031 64.417969 33.785156 62.058594 36.15625 L 36.460938 61.917969 C 34.105469 64.289062 30.269531 64.304688 27.894531 61.949219 L 2.085938 36.394531 C -0.289062 34.042969 -0.304688 30.214844 2.050781 27.84375 L 27.652344 2.082031 C 30.007812 -0.289062 33.84375 -0.304688 36.21875 2.050781 Z M 36.21875 2.050781 " /><g transform="matrix(1.0075098,0,0,1.0032698,16.221436,16.077397)"><path fill-rule="nonzero" fill="rgb(100%, 100%, 100%)" fill-opacity="1" d="M 15.75 0.511719 C 8.929688 0.613281 2.914062 5.25 1.0625 11.945312 C 1.03125 12.070312 1.050781 12.207031 1.050781 12.339844 C 1.050781 13.195312 1.738281 13.882812 2.59375 13.882812 L 11.714844 13.882812 L 11.265625 14.335938 C 10.664062 14.941406 10.664062 15.921875 11.265625 16.523438 C 11.550781 16.8125 11.945312 16.976562 12.351562 16.976562 C 12.761719 16.976562 13.152344 16.8125 13.441406 16.523438 L 16.523438 13.429688 C 17.125 12.828125 17.125 11.84375 16.523438 11.246094 L 13.441406 8.15625 C 12.839844 7.554688 11.859375 7.554688 11.265625 8.15625 C 10.664062 8.757812 10.664062 9.742188 11.265625 10.34375 L 11.714844 10.792969 L 4.742188 10.792969 C 6.855469 6.15625 11.640625 3.234375 16.859375 3.613281 C 22.777344 4.054688 27.542969 8.628906 28.160156 14.53125 C 28.257812 15.382812 29.019531 15.992188 29.867188 15.890625 C 30.710938 15.796875 31.3125 15.03125 31.222656 14.179688 C 30.382812 6.816406 24.421875 1.101562 17.046875 0.484375 C 16.585938 0.445312 16.125 0.4375 15.667969 0.441406 Z M 19.585938 14.929688 C 19.175781 14.929688 18.785156 15.09375 18.492188 15.382812 L 15.414062 18.476562 C 14.8125 19.078125 14.8125 20.0625 15.414062 20.65625 L 18.492188 23.75 C 19.097656 24.351562 20.078125 24.351562 20.671875 23.75 C 21.273438 23.148438 21.273438 22.164062 20.671875 21.5625 L 20.222656 21.113281 L 27.195312 21.113281 C 25.082031 25.75 20.296875 28.671875 15.078125 28.289062 C 9.15625 27.851562 4.390625 23.273438 3.773438 17.375 C 3.679688 16.523438 2.917969 15.914062 2.070312 16.015625 C 1.226562 16.109375 0.625 16.875 0.714844 17.726562 C 1.554688 25.089844 7.515625 30.804688 14.890625 31.421875 C 22.265625 31.972656 28.964844 27.171875 30.914062 19.992188 C 30.949219 19.867188 30.929688 19.726562 30.929688 19.59375 C 30.929688 18.742188 30.242188 18.050781 29.390625 18.050781 L 20.265625 18.050781 L 20.71875 17.597656 C 21.320312 16.996094 21.320312 16.011719 20.71875 15.414062 C 20.429688 15.125 20.035156 14.960938 19.628906 14.960938 Z M 19.585938 14.929688 "/></g></svg>
