<svg width="64" height="64" viewBox="0 0 64 64" version="1.1"><defs><linearGradient id="linear-pattern-0" gradientUnits="userSpaceOnUse" x1="0" y1="0" x2="0" y2="1" gradientTransform="matrix(60, 0, 0, 56, 0, 4)"><stop offset="0" stop-color="#d00068" stop-opacity="1"/><stop offset="1" stop-color="#6e0037" stop-opacity="1"/></linearGradient></defs><path fill="url(#linear-pattern-0)" fill-opacity="1" d="M 36.21875 2.050781 L 62.027344 27.605469 C 64.402344 29.957031 64.417969 33.785156 62.058594 36.15625 L 36.460938 61.917969 C 34.105469 64.289062 30.269531 64.304688 27.894531 61.949219 L 2.085938 36.394531 C -0.289062 34.042969 -0.304688 30.214844 2.050781 27.84375 L 27.652344 2.082031 C 30.007812 -0.289062 33.84375 -0.304688 36.21875 2.050781 Z M 36.21875 2.050781 " /><g transform="matrix(1.0075098,0,0,1.0032698,16.221436,16.077397)"><path fill-rule="nonzero" fill="rgb(100%, 100%, 100%)" fill-opacity="1" d="M 7.5 3.207031 C 7.242188 3.207031 6.988281 3.304688 6.792969 3.5 C 6.398438 3.890625 6.398438 4.523438 6.792969 4.914062 L 12.671875 10.792969 L 2 10.792969 C 0.890625 10.792969 0 11.6875 0 12.792969 L 0 26.792969 C 0 27.902344 0.890625 28.792969 2 28.792969 L 30 28.792969 C 31.109375 28.792969 32 27.902344 32 26.792969 L 32 12.792969 C 32 11.6875 31.109375 10.792969 30 10.792969 L 18.8125 10.792969 L 24.691406 4.914062 C 25.085938 4.523438 25.085938 3.890625 24.691406 3.5 C 24.296875 3.109375 23.671875 3.109375 23.277344 3.5 L 15.984375 10.792969 L 15.503906 10.792969 L 8.207031 3.5 C 8.011719 3.304688 7.757812 3.207031 7.5 3.207031 Z M 9 14.792969 C 11.761719 14.792969 14 17.03125 14 19.792969 C 14 22.554688 11.761719 24.792969 9 24.792969 C 6.238281 24.792969 4 22.554688 4 19.792969 C 4 17.03125 6.238281 14.792969 9 14.792969 Z M 19 16.792969 L 27 16.792969 C 27.554688 16.792969 28 17.242188 28 17.792969 C 28 18.347656 27.554688 18.792969 27 18.792969 L 19 18.792969 C 18.445312 18.792969 18 18.347656 18 17.792969 C 18 17.242188 18.445312 16.792969 19 16.792969 Z M 19 20.792969 L 27 20.792969 C 27.554688 20.792969 28 21.242188 28 21.792969 C 28 22.347656 27.554688 22.792969 27 22.792969 L 19 22.792969 C 18.445312 22.792969 18 22.347656 18 21.792969 C 18 21.242188 18.445312 20.792969 19 20.792969 Z M 19 20.792969 "/></g></svg>
