<svg width="64" height="64" viewBox="0 0 64 64" version="1.1"><defs><linearGradient id="linear-pattern-0" gradientUnits="userSpaceOnUse" x1="0" y1="0" x2="0" y2="1" gradientTransform="matrix(60, 0, 0, 56, 0, 4)"><stop offset="0" stop-color="#0288cf" stop-opacity="1"/><stop offset="1" stop-color="#01486e" stop-opacity="1"/></linearGradient></defs><path fill="url(#linear-pattern-0)" fill-opacity="1" d="M 36.21875 2.050781 L 62.027344 27.605469 C 64.402344 29.957031 64.417969 33.785156 62.058594 36.15625 L 36.460938 61.917969 C 34.105469 64.289062 30.269531 64.304688 27.894531 61.949219 L 2.085938 36.394531 C -0.289062 34.042969 -0.304688 30.214844 2.050781 27.84375 L 27.652344 2.082031 C 30.007812 -0.289062 33.84375 -0.304688 36.21875 2.050781 Z M 36.21875 2.050781 " /><g transform="matrix(1.0075098,0,0,1.0032698,16.221436,16.077397)"><path fill-rule="nonzero" fill="rgb(100%, 100%, 100%)" fill-opacity="1" d="M 0.859375 19.257812 C 1.03125 22.675781 0.835938 26.757812 3.34375 29.28125 C 5.691406 31.46875 9.132812 31.71875 12.097656 31.890625 C 13.519531 31.976562 15.078125 32 16.859375 32 L 21.65625 32 C 21.703125 31.78125 21.734375 31.53125 21.789062 31.359375 C 22.007812 30.648438 22.207031 29.183594 22.207031 28.3125 C 22.207031 27.25 21.945312 25.308594 21.597656 23.789062 C 21.554688 23.609375 21.601562 23.601562 23.179688 23.601562 C 24.65625 23.601562 24.882812 23.578125 25.519531 23.367188 C 26.015625 23.207031 26.46875 23.132812 27.035156 23.121094 C 28.726562 23.09375 30.054688 22.152344 30.492188 20.671875 C 30.578125 20.390625 30.734375 20.117188 30.890625 19.996094 C 31.113281 19.820312 31.144531 19.726562 31.140625 19.28125 C 31.125 18.441406 30.695312 17.726562 29.484375 16.53125 L 28.453125 15.523438 L 28.453125 14.824219 C 28.453125 14.183594 28.429688 14.105469 28.195312 13.882812 C 27.816406 13.53125 27.484375 13.484375 26.980469 13.703125 C 26.75 13.808594 26.496094 13.867188 26.421875 13.84375 C 26.253906 13.777344 25.992188 13.125 25.992188 12.765625 C 25.992188 12.539062 26.085938 12.417969 26.519531 12.101562 C 27.09375 11.671875 27.226562 11.441406 27.226562 10.835938 C 27.226562 10.183594 26.511719 9.359375 25.953125 9.359375 C 25.820312 9.359375 25.476562 9.078125 24.992188 8.570312 C 24.554688 8.117188 24.046875 7.695312 23.796875 7.574219 C 23.351562 7.355469 22.265625 7.136719 22.109375 7.230469 C 22.066406 7.257812 21.953125 7.140625 21.859375 6.972656 C 21.609375 6.492188 21.636719 5.453125 21.914062 4.882812 C 22.53125 3.613281 24.332031 2.5625 26.492188 2.214844 C 26.960938 2.140625 27.363281 2.054688 27.390625 2.03125 C 27.414062 2.007812 27.148438 1.902344 26.804688 1.796875 C 24.226562 1 21.511719 1.5 20.070312 3.035156 C 19.839844 3.28125 19.648438 3.476562 19.648438 3.460938 C 19.421875 2.835938 19.949219 1.210938 20.652344 0.378906 C 20.792969 0.210938 20.882812 0.0546875 20.851562 0.0234375 C 20.835938 0.00390625 20.796875 -0.00390625 20.742188 0 C 20.367188 0.03125 19.242188 0.601562 18.625 1.101562 C 17.757812 1.804688 16.929688 3.203125 16.679688 4.375 L 16.554688 4.957031 L 16.3125 4.4375 C 16.054688 3.882812 15.867188 2.976562 15.867188 2.234375 C 15.867188 1.992188 15.835938 1.789062 15.796875 1.789062 C 15.679688 1.792969 14.773438 3.367188 14.273438 4.4375 C 13.621094 5.832031 13.21875 6.890625 12.652344 8.695312 C 11.195312 13.347656 10.609375 14.601562 9.207031 16.058594 C 7.835938 17.484375 5.015625 18.472656 3.542969 18.792969 C 2.066406 19.109375 1.789062 19.171875 0.859375 19.257812 Z M 0.859375 19.257812 "/></g></svg>
