<svg width="64" height="64" viewBox="0 0 64 64" version="1.1"><defs><linearGradient id="linear-pattern-0" gradientUnits="userSpaceOnUse" x1="0" y1="0" x2="0" y2="1" gradientTransform="matrix(60, 0, 0, 56, 0, 4)"><stop offset="0" stop-color="#ec7700" stop-opacity="1"/><stop offset="1" stop-color="#773c00" stop-opacity="1"/></linearGradient></defs><path fill="url(#linear-pattern-0)" fill-opacity="1" d="M 36.21875 2.050781 L 62.027344 27.605469 C 64.402344 29.957031 64.417969 33.785156 62.058594 36.15625 L 36.460938 61.917969 C 34.105469 64.289062 30.269531 64.304688 27.894531 61.949219 L 2.085938 36.394531 C -0.289062 34.042969 -0.304688 30.214844 2.050781 27.84375 L 27.652344 2.082031 C 30.007812 -0.289062 33.84375 -0.304688 36.21875 2.050781 Z M 36.21875 2.050781 " /><g transform="matrix(1.0075098,0,0,1.0032698,16.221436,16.077397)"><path fill-rule="nonzero" fill="rgb(100%, 100%, 100%)" fill-opacity="1" d="M 21.734375 24.714844 C 21.734375 26.035156 19.898438 29.875 17.660156 29.875 C 14.867188 29.875 10.867188 26.832031 10.867188 24.835938 C 10.867188 22.84375 13.507812 21.726562 16.304688 21.726562 C 19.09375 21.726562 21.734375 23.300781 21.734375 24.714844 Z M 28.523438 14.273438 C 28.523438 15.390625 27.308594 16.296875 25.808594 16.296875 C 24.308594 16.296875 23.09375 15.390625 23.09375 14.273438 C 23.09375 13.15625 24.308594 12.25 25.808594 12.25 C 27.308594 12.25 28.523438 13.15625 28.523438 14.273438 Z M 31.039062 2.125 C 31.039062 2.125 21.0625 10.335938 10.148438 10.675781 C 7.15625 10.765625 4.96875 10.015625 3.496094 9.320312 C 2.023438 8.617188 0.605469 7.238281 0.605469 7.238281 L 0 8.609375 C 0 8.609375 0.578125 9.210938 1.054688 9.554688 C 1.445312 11.625 3.1875 17.65625 9.511719 17.65625 C 14.867188 17.65625 16.894531 13.296875 17.46875 11.109375 C 25.398438 8.847656 32 3.15625 32 3.15625 Z M 31.039062 2.125 "/></g></svg>
