<svg width="64" height="64" viewBox="0 0 64 64" version="1.1"><defs><linearGradient id="linear-pattern-0" gradientUnits="userSpaceOnUse" x1="0" y1="0" x2="0" y2="1" gradientTransform="matrix(60, 0, 0, 56, 0, 4)"><stop offset="0" stop-color="#d00068" stop-opacity="1"/><stop offset="1" stop-color="#6e0037" stop-opacity="1"/></linearGradient></defs><path fill="url(#linear-pattern-0)" fill-opacity="1" d="M 36.21875 2.050781 L 62.027344 27.605469 C 64.402344 29.957031 64.417969 33.785156 62.058594 36.15625 L 36.460938 61.917969 C 34.105469 64.289062 30.269531 64.304688 27.894531 61.949219 L 2.085938 36.394531 C -0.289062 34.042969 -0.304688 30.214844 2.050781 27.84375 L 27.652344 2.082031 C 30.007812 -0.289062 33.84375 -0.304688 36.21875 2.050781 Z M 36.21875 2.050781 " /><g transform="matrix(1.0075098,0,0,1.0032698,16.221436,16.077397)"><path fill-rule="evenodd" fill="rgb(100%, 100%, 100%)" fill-opacity="1" d="M 26.132812 10.679688 C 20.015625 0.0195312 15.179688 -0.859375 11.65625 0.804688 C 9.929688 1.617188 10.648438 2.367188 8.195312 1.828125 C 6.007812 1.351562 4.625 1.1875 2.703125 2.085938 C 0.78125 2.980469 0 3.875 0 4.390625 C 0 4.902344 0.515625 3.617188 1.921875 3.484375 C 3.328125 3.351562 5.617188 3.484375 7.15625 4.640625 C 8.695312 5.792969 8.820312 6.804688 8.820312 7.320312 C 8.820312 7.832031 7.15625 7.089844 5.191406 7.574219 C 3.453125 8 2.117188 8.507812 1.988281 9.019531 C 1.859375 9.53125 5.074219 9.21875 6.578125 9.214844 C 7.296875 9.238281 7.816406 9.015625 8.3125 9.984375 C 8.832031 11.003906 8.953125 11.78125 9.597656 12.03125 C 10.242188 12.277344 10.367188 11.519531 11.132812 13.058594 C 11.90625 14.59375 12.15625 15.148438 11.257812 17.453125 C 10.359375 19.761719 9.710938 21.523438 10.09375 21.132812 C 10.398438 20.835938 11.363281 20.554688 11.710938 20.101562 C 11.613281 20.929688 11.710938 22.4375 12.804688 24.128906 C 14.726562 27.074219 17.539062 26.828125 21.515625 27.847656 C 27.703125 29.40625 30.414062 29.3125 31.714844 31.429688 C 31.96875 31.84375 32.132812 32.210938 31.859375 31.210938 C 30.585938 26.554688 29.882812 17.21875 26.132812 10.679688 Z M 11.796875 3.09375 C 11.796875 2.550781 12.234375 2.109375 12.773438 2.109375 C 13.320312 2.109375 13.757812 2.550781 13.757812 3.09375 C 13.757812 3.632812 13.320312 4.070312 12.773438 4.070312 C 12.234375 4.070312 11.796875 3.632812 11.796875 3.09375 Z M 11.796875 3.09375 "/></g></svg>
