<svg width="64" height="64" viewBox="0 0 64 64" version="1.1"><defs><linearGradient id="linear-pattern-0" gradientUnits="userSpaceOnUse" x1="0" y1="0" x2="0" y2="1" gradientTransform="matrix(60, 0, 0, 56, 0, 4)"><stop offset="0" stop-color="#008a97" stop-opacity="1"/><stop offset="1" stop-color="#00545c" stop-opacity="1"/></linearGradient></defs><path fill="url(#linear-pattern-0)" fill-opacity="1" d="M 36.21875 2.050781 L 62.027344 27.605469 C 64.402344 29.957031 64.417969 33.785156 62.058594 36.15625 L 36.460938 61.917969 C 34.105469 64.289062 30.269531 64.304688 27.894531 61.949219 L 2.085938 36.394531 C -0.289062 34.042969 -0.304688 30.214844 2.050781 27.84375 L 27.652344 2.082031 C 30.007812 -0.289062 33.84375 -0.304688 36.21875 2.050781 Z M 36.21875 2.050781 " /><g transform="matrix(1.0075098,0,0,1.0032698,16.221436,16.077397)"><path fill-rule="evenodd" fill="rgb(100%, 100%, 100%)" fill-opacity="1" d="M 0 16 C 0 11.757812 1.6875 7.6875 4.6875 4.6875 C 7.6875 1.6875 11.757812 0 16 0 C 20.242188 0 24.3125 1.6875 27.3125 4.6875 C 30.3125 7.6875 32 11.757812 32 16 C 32 20.242188 30.3125 24.3125 27.3125 27.3125 C 24.3125 30.3125 20.242188 32 16 32 C 11.757812 32 7.6875 30.3125 4.6875 27.3125 C 1.6875 24.3125 0 20.242188 0 16 Z M 4.800781 16 C 4.800781 13.03125 5.984375 10.175781 8.078125 8.078125 C 10.175781 5.984375 13.03125 4.800781 16 4.800781 C 18.96875 4.800781 21.824219 5.984375 23.921875 8.078125 C 26.015625 10.175781 27.199219 13.03125 27.199219 16 C 27.199219 18.96875 26.015625 21.824219 23.921875 23.921875 C 21.824219 26.015625 18.96875 27.199219 16 27.199219 C 13.03125 27.199219 10.175781 26.015625 8.078125 23.921875 C 5.984375 21.824219 4.800781 18.96875 4.800781 16 Z M 4.800781 16 "/></g></svg>
