<svg width="64" height="64" viewBox="0 0 64 64" version="1.1"><defs><linearGradient id="linear-pattern-0" gradientUnits="userSpaceOnUse" x1="0" y1="0" x2="0" y2="1" gradientTransform="matrix(60, 0, 0, 56, 0, 4)"><stop offset="0" stop-color="#0288cf" stop-opacity="1"/><stop offset="1" stop-color="#01486e" stop-opacity="1"/></linearGradient></defs><path fill="url(#linear-pattern-0)" fill-opacity="1" d="M 36.21875 2.050781 L 62.027344 27.605469 C 64.402344 29.957031 64.417969 33.785156 62.058594 36.15625 L 36.460938 61.917969 C 34.105469 64.289062 30.269531 64.304688 27.894531 61.949219 L 2.085938 36.394531 C -0.289062 34.042969 -0.304688 30.214844 2.050781 27.84375 L 27.652344 2.082031 C 30.007812 -0.289062 33.84375 -0.304688 36.21875 2.050781 Z M 36.21875 2.050781 " /><g transform="matrix(1.0075098,0,0,1.0032698,16.221436,16.077397)"><path fill-rule="evenodd" fill="rgb(100%, 100%, 100%)" fill-opacity="1" d="M 25.46875 20.632812 C 25.46875 20.632812 25.984375 20.484375 26.5 20.75 C 26.675781 20.839844 26.984375 21.023438 27.210938 21.261719 C 27.425781 21.496094 27.53125 21.734375 27.53125 21.734375 L 30.664062 28 L 24 28 C 24 28 22.507812 23.644531 21.117188 21.78125 C 20.835938 21.554688 20.609375 21.3125 20.335938 21.335938 L 18.664062 21.335938 L 18.664062 27.996094 L 13.335938 27.996094 L 13.335938 9.335938 L 23.4375 9.335938 C 24.53125 9.335938 29.171875 10 29.332031 14.664062 C 29.171875 19.335938 25.46875 20.664062 25.46875 20.664062 Z M 18.667969 13.296875 L 18.667969 17.300781 L 22.664062 17.300781 C 22.664062 17.300781 24 17.347656 24 15.300781 C 24 13.148438 22.664062 13.300781 22.664062 13.300781 Z M 18.667969 13.296875 "/></g></svg>
