<svg width="64" height="64" viewBox="0 0 64 64" version="1.1"><defs><linearGradient id="linear-pattern-0" gradientUnits="userSpaceOnUse" x1="0" y1="0" x2="0" y2="1" gradientTransform="matrix(60, 0, 0, 56, 0, 4)"><stop offset="0" stop-color="#d00068" stop-opacity="1"/><stop offset="1" stop-color="#6e0037" stop-opacity="1"/></linearGradient></defs><path fill="url(#linear-pattern-0)" fill-opacity="1" d="M 36.21875 2.050781 L 62.027344 27.605469 C 64.402344 29.957031 64.417969 33.785156 62.058594 36.15625 L 36.460938 61.917969 C 34.105469 64.289062 30.269531 64.304688 27.894531 61.949219 L 2.085938 36.394531 C -0.289062 34.042969 -0.304688 30.214844 2.050781 27.84375 L 27.652344 2.082031 C 30.007812 -0.289062 33.84375 -0.304688 36.21875 2.050781 Z M 36.21875 2.050781 " /><g transform="matrix(1.0075098,0,0,1.0032698,16.221436,16.077397)"><path fill-rule="nonzero" fill="rgb(100%, 100%, 100%)" fill-opacity="1" d="M 15.578125 1.59375 C 12.320312 1.6875 9.117188 2.546875 6.5 4.121094 C 6.492188 4.125 6.484375 4.128906 6.480469 4.132812 C 2.90625 6.359375 0.914062 9.265625 0.710938 12.304688 C 0.511719 15.34375 2.117188 18.28125 4.945312 20.527344 C 4.945312 20.527344 4.945312 20.53125 4.945312 20.53125 C 7.769531 22.757812 10.476562 23.300781 12.023438 23.640625 C 13.578125 23.988281 14.097656 24.617188 14.359375 25.445312 C 14.625 26.273438 14.5 27.457031 14.03125 28.558594 C 13.816406 29.0625 13.933594 29.648438 14.324219 30.03125 C 14.71875 30.414062 15.304688 30.519531 15.804688 30.296875 C 18.175781 29.226562 19.578125 27.898438 20.796875 26.578125 C 22.019531 25.257812 23.09375 23.953125 25.140625 22.488281 C 25.734375 22.0625 25.875 21.226562 25.445312 20.628906 C 25.015625 20.03125 24.183594 19.890625 23.585938 20.320312 C 21.289062 21.96875 19.992188 23.523438 18.839844 24.765625 C 18.257812 25.398438 17.71875 25.945312 17.070312 26.457031 C 17.074219 25.847656 17.09375 25.234375 16.898438 24.632812 C 16.367188 22.960938 14.851562 21.539062 12.601562 21.039062 C 12.601562 21.039062 12.601562 21.035156 12.597656 21.035156 C 10.992188 20.683594 8.957031 20.296875 6.601562 18.4375 C 4.257812 16.578125 3.242188 14.488281 3.375 12.484375 C 3.507812 10.476562 4.808594 8.320312 7.882812 6.398438 C 12.765625 3.472656 21 3.625 25.625 7.277344 C 27.9375 9.109375 28.664062 11.078125 28.632812 12.90625 C 28.609375 14.742188 27.726562 16.476562 26.578125 17.539062 C 26.039062 18.039062 26.003906 18.882812 26.503906 19.421875 C 26.742188 19.679688 27.078125 19.835938 27.429688 19.851562 C 27.785156 19.863281 28.132812 19.734375 28.390625 19.496094 C 30.078125 17.9375 31.261719 15.578125 31.304688 12.949219 C 31.34375 10.320312 30.140625 7.453125 27.28125 5.1875 C 27.277344 5.1875 27.277344 5.1875 27.273438 5.1875 C 24.40625 2.921875 20.710938 1.753906 16.976562 1.605469 C 16.515625 1.585938 16.046875 1.582031 15.578125 1.59375 Z M 16.335938 7.382812 C 15.75 7.398438 15.25 7.800781 15.09375 8.367188 L 13.753906 13.378906 C 13.734375 13.4375 13.714844 13.5 13.703125 13.566406 C 13.703125 13.566406 13.703125 13.570312 13.703125 13.570312 L 12.617188 17.621094 C 12.429688 18.332031 12.851562 19.0625 13.5625 19.253906 C 14.273438 19.445312 15 19.023438 15.195312 18.3125 L 16.257812 14.328125 C 16.660156 13.609375 17.46875 12.578125 18.390625 11.738281 C 19.359375 10.859375 20.472656 10.234375 21.132812 10.140625 C 21.859375 10.03125 22.367188 9.351562 22.257812 8.625 C 22.164062 7.96875 21.601562 7.484375 20.9375 7.484375 C 20.875 7.484375 20.8125 7.492188 20.746094 7.5 C 19.625 7.664062 18.625 8.1875 17.710938 8.855469 C 17.78125 8.203125 17.363281 7.59375 16.726562 7.425781 C 16.601562 7.390625 16.46875 7.375 16.335938 7.382812 Z M 16.335938 7.382812 "/></g></svg>
