<svg width="64" height="64" viewBox="0 0 64 64" version="1.1"><defs><linearGradient id="linear-pattern-0" gradientUnits="userSpaceOnUse" x1="0" y1="0" x2="0" y2="1" gradientTransform="matrix(60, 0, 0, 56, 0, 4)"><stop offset="0" stop-color="#c10000" stop-opacity="1"/><stop offset="1" stop-color="#5f0000" stop-opacity="1"/></linearGradient></defs><path fill="url(#linear-pattern-0)" fill-opacity="1" d="M 36.21875 2.050781 L 62.027344 27.605469 C 64.402344 29.957031 64.417969 33.785156 62.058594 36.15625 L 36.460938 61.917969 C 34.105469 64.289062 30.269531 64.304688 27.894531 61.949219 L 2.085938 36.394531 C -0.289062 34.042969 -0.304688 30.214844 2.050781 27.84375 L 27.652344 2.082031 C 30.007812 -0.289062 33.84375 -0.304688 36.21875 2.050781 Z M 36.21875 2.050781 " /><g transform="matrix(1.0075098,0,0,1.0032698,16.221436,16.077397)"><path fill-rule="nonzero" fill="rgb(100%, 100%, 100%)" fill-opacity="1" d="M 8.421875 2.671875 L 0.734375 15.804688 L 8.421875 28.945312 L 23.800781 28.945312 L 31.492188 15.804688 L 23.800781 2.671875 Z M 23.210938 3.6875 L 26.421875 9.171875 L 23.242188 10.984375 L 21.09375 7.304688 L 16.785156 7.304688 L 16.785156 3.6875 Z M 15.441406 3.6875 L 15.441406 7.304688 L 11.132812 7.304688 L 8.984375 10.984375 L 5.804688 9.171875 L 9.015625 3.6875 Z M 15.4375 8.40625 L 15.4375 11.527344 L 13.609375 11.527344 L 12.691406 13.09375 L 9.949219 11.53125 L 11.785156 8.40625 Z M 16.785156 8.40625 L 20.445312 8.40625 L 22.273438 11.53125 L 19.535156 13.09375 L 18.617188 11.527344 L 16.785156 11.527344 Z M 5.132812 10.324219 L 8.3125 12.125 L 6.15625 15.804688 L 8.3125 19.484375 L 5.132812 21.292969 L 1.921875 15.804688 Z M 27.09375 10.324219 L 30.304688 15.808594 L 27.09375 21.296875 L 23.914062 19.488281 L 26.070312 15.808594 L 23.914062 12.132812 Z M 9.28125 12.679688 L 12.023438 14.242188 L 11.109375 15.804688 L 12.027344 17.375 L 9.285156 18.933594 L 7.453125 15.804688 Z M 22.945312 12.679688 L 24.777344 15.804688 L 22.945312 18.933594 L 20.203125 17.375 L 21.121094 15.804688 L 20.203125 14.242188 Z M 14.296875 12.695312 L 17.929688 12.695312 L 19.75 15.804688 L 17.929688 18.914062 L 14.296875 18.914062 L 12.476562 15.804688 Z M 12.695312 18.519531 L 13.609375 20.085938 L 15.441406 20.085938 L 15.441406 23.203125 L 11.78125 23.203125 L 9.953125 20.082031 Z M 19.53125 18.519531 L 22.273438 20.082031 L 20.445312 23.203125 L 16.785156 23.203125 L 16.785156 20.085938 L 18.617188 20.085938 Z M 8.976562 20.632812 L 11.132812 24.308594 L 15.4375 24.308594 L 15.4375 27.929688 L 9.015625 27.929688 L 5.804688 22.441406 Z M 23.242188 20.632812 L 26.421875 22.441406 L 23.210938 27.929688 L 16.785156 27.929688 L 16.785156 24.308594 L 21.089844 24.308594 Z M 23.242188 20.632812 "/></g></svg>
