<svg width="64" height="64" viewBox="0 0 64 64" version="1.1"><defs><linearGradient id="linear-pattern-0" gradientUnits="userSpaceOnUse" x1="0" y1="0" x2="0" y2="1" gradientTransform="matrix(60, 0, 0, 56, 0, 4)"><stop offset="0" stop-color="#008a97" stop-opacity="1"/><stop offset="1" stop-color="#00545c" stop-opacity="1"/></linearGradient></defs><path fill="url(#linear-pattern-0)" fill-opacity="1" d="M 36.21875 2.050781 L 62.027344 27.605469 C 64.402344 29.957031 64.417969 33.785156 62.058594 36.15625 L 36.460938 61.917969 C 34.105469 64.289062 30.269531 64.304688 27.894531 61.949219 L 2.085938 36.394531 C -0.289062 34.042969 -0.304688 30.214844 2.050781 27.84375 L 27.652344 2.082031 C 30.007812 -0.289062 33.84375 -0.304688 36.21875 2.050781 Z M 36.21875 2.050781 " /><g transform="matrix(1.0075098,0,0,1.0032698,16.221436,16.077397)"><path fill-rule="nonzero" fill="rgb(100%, 100%, 100%)" fill-opacity="1" d="M 15.945312 1.195312 L 12.460938 2.914062 L 15.476562 5.132812 L 9.648438 4.597656 L 1.164062 11.808594 L 4.203125 15.054688 L 9.644531 9.953125 L 6.734375 18.351562 L 15.945312 31.515625 L 21.679688 23.113281 C 18.179688 18.78125 9.742188 9.875 9.742188 9.875 L 15.582031 5.210938 L 22.417969 10.234375 L 15.945312 16.355469 L 24.75 18.882812 L 30.726562 11.46875 L 25.65625 7.179688 L 22.496094 10.164062 L 22.667969 4.898438 Z M 15.945312 7.257812 C 13.769531 7.257812 12.003906 8.617188 12.003906 10.289062 C 12.003906 11.96875 13.769531 13.320312 15.945312 13.320312 C 18.125 13.320312 19.886719 11.96875 19.886719 10.289062 C 19.886719 8.617188 18.125 7.257812 15.945312 7.257812 Z M 15.945312 7.257812 "/></g></svg>
