<svg width="64" height="64" viewBox="0 0 64 64" version="1.1"><defs><linearGradient id="linear-pattern-0" gradientUnits="userSpaceOnUse" x1="0" y1="0" x2="0" y2="1" gradientTransform="matrix(60, 0, 0, 56, 0, 4)"><stop offset="0" stop-color="#0288cf" stop-opacity="1"/><stop offset="1" stop-color="#01486e" stop-opacity="1"/></linearGradient></defs><path fill="url(#linear-pattern-0)" fill-opacity="1" d="M 36.21875 2.050781 L 62.027344 27.605469 C 64.402344 29.957031 64.417969 33.785156 62.058594 36.15625 L 36.460938 61.917969 C 34.105469 64.289062 30.269531 64.304688 27.894531 61.949219 L 2.085938 36.394531 C -0.289062 34.042969 -0.304688 30.214844 2.050781 27.84375 L 27.652344 2.082031 C 30.007812 -0.289062 33.84375 -0.304688 36.21875 2.050781 Z M 36.21875 2.050781 " /><g transform="matrix(1.0075098,0,0,1.0032698,16.221436,16.077397)"><path fill-rule="nonzero" fill="rgb(100%, 100%, 100%)" fill-opacity="1" d="M 8.914062 0.6875 C 7.875 0.6875 7.042969 1.34375 7.042969 2.15625 L 7.042969 3.757812 C 3.824219 4.25 1.429688 6.03125 1.429688 8.761719 C 1.429688 14.929688 10.785156 13.167969 10.785156 16.101562 C 10.785156 17.28125 9.132812 18.304688 7.042969 18.304688 C 6 18.304688 5.078125 17.980469 4.40625 17.445312 C 3.671875 16.875 2.5 16.875 1.765625 17.445312 C 1.035156 18.023438 1.035156 18.945312 1.765625 19.515625 C 2.695312 20.242188 3.882812 20.785156 5.191406 21.042969 L 5.191406 22.703125 C 5.191406 23.515625 6.023438 24.171875 7.0625 24.171875 C 8.097656 24.171875 8.933594 23.515625 8.933594 22.703125 L 8.933594 21.101562 C 12.148438 20.609375 14.546875 18.828125 14.546875 16.09375 C 14.546875 11.398438 5.191406 11.691406 5.191406 8.753906 C 5.191406 7.578125 6.84375 6.554688 8.933594 6.554688 C 9.976562 6.554688 10.898438 6.878906 11.570312 7.414062 C 12.300781 7.984375 13.480469 7.984375 14.210938 7.414062 C 14.9375 6.835938 14.9375 5.914062 14.210938 5.34375 C 13.28125 4.613281 12.09375 4.070312 10.785156 3.816406 L 10.785156 2.15625 C 10.785156 1.34375 9.953125 0.6875 8.914062 0.6875 Z M 19.203125 13.902344 C 18.6875 13.902344 18.265625 14.226562 18.265625 14.636719 C 18.265625 15.042969 18.6875 15.367188 19.203125 15.367188 L 30.429688 15.367188 C 30.949219 15.367188 31.367188 15.042969 31.367188 14.636719 C 31.367188 14.226562 30.949219 13.902344 30.429688 13.902344 Z M 19.203125 16.839844 C 18.6875 16.839844 18.265625 17.164062 18.265625 17.570312 C 18.265625 17.980469 18.6875 18.304688 19.203125 18.304688 L 30.429688 18.304688 C 30.949219 18.304688 31.367188 17.980469 31.367188 17.570312 C 31.367188 17.164062 30.949219 16.839844 30.429688 16.839844 Z M 19.203125 19.773438 C 18.6875 19.773438 18.265625 20.101562 18.265625 20.507812 C 18.265625 20.914062 18.6875 21.242188 19.203125 21.242188 L 30.429688 21.242188 C 30.949219 21.242188 31.367188 20.914062 31.367188 20.507812 C 31.367188 20.101562 30.949219 19.773438 30.429688 19.773438 Z M 19.203125 22.710938 C 18.6875 22.710938 18.265625 23.039062 18.265625 23.445312 C 18.265625 23.851562 18.6875 24.179688 19.203125 24.179688 L 30.429688 24.179688 C 30.949219 24.179688 31.367188 23.851562 31.367188 23.445312 C 31.367188 23.039062 30.949219 22.710938 30.429688 22.710938 Z M 2.367188 27.117188 C 1.847656 27.117188 1.429688 27.445312 1.429688 27.851562 C 1.429688 28.257812 1.847656 28.585938 2.367188 28.585938 L 30.429688 28.585938 C 30.949219 28.585938 31.367188 28.257812 31.367188 27.851562 C 31.367188 27.445312 30.949219 27.117188 30.429688 27.117188 Z M 2.367188 30.054688 C 1.847656 30.054688 1.429688 30.382812 1.429688 30.789062 C 1.429688 31.195312 1.847656 31.523438 2.367188 31.523438 L 30.429688 31.523438 C 30.949219 31.523438 31.367188 31.195312 31.367188 30.789062 C 31.367188 30.382812 30.949219 30.054688 30.429688 30.054688 Z M 2.367188 30.054688 "/></g></svg>
