<svg width="64" height="64" viewBox="0 0 64 64" version="1.1"><defs><linearGradient id="linear-pattern-0" gradientUnits="userSpaceOnUse" x1="0" y1="0" x2="0" y2="1" gradientTransform="matrix(60, 0, 0, 56, 0, 4)"><stop offset="0" stop-color="#ec7700" stop-opacity="1"/><stop offset="1" stop-color="#773c00" stop-opacity="1"/></linearGradient></defs><path fill="url(#linear-pattern-0)" fill-opacity="1" d="M 36.21875 2.050781 L 62.027344 27.605469 C 64.402344 29.957031 64.417969 33.785156 62.058594 36.15625 L 36.460938 61.917969 C 34.105469 64.289062 30.269531 64.304688 27.894531 61.949219 L 2.085938 36.394531 C -0.289062 34.042969 -0.304688 30.214844 2.050781 27.84375 L 27.652344 2.082031 C 30.007812 -0.289062 33.84375 -0.304688 36.21875 2.050781 Z M 36.21875 2.050781 " /><g transform="matrix(1.0075098,0,0,1.0032698,16.221436,16.077397)"><path fill-rule="nonzero" fill="rgb(100%, 100%, 100%)" fill-opacity="1" d="M 17.792969 0.890625 C 17.34375 0.882812 16.964844 1.203125 16.898438 1.648438 L 15.375 11.578125 C 11.875 11.679688 8.554688 12.671875 6.046875 14.355469 C 5.382812 13.703125 4.488281 13.335938 3.554688 13.335938 C 1.59375 13.335938 0 14.929688 0 16.890625 C 0 18.21875 0.742188 19.429688 1.914062 20.046875 C 1.828125 20.472656 1.78125 20.90625 1.777344 21.335938 C 1.777344 26.734375 8.148438 31.109375 16 31.109375 C 23.851562 31.109375 30.222656 26.734375 30.222656 21.335938 C 30.21875 20.90625 30.167969 20.476562 30.078125 20.046875 C 31.257812 19.4375 32 18.21875 32 16.890625 C 32 14.929688 30.40625 13.335938 28.445312 13.335938 C 27.507812 13.335938 26.613281 13.703125 25.945312 14.359375 C 23.578125 12.757812 20.472656 11.78125 17.164062 11.59375 L 18.515625 2.855469 L 23.136719 3.882812 C 23.300781 5.21875 24.429688 6.222656 25.777344 6.226562 C 27.25 6.226562 28.445312 5.03125 28.445312 3.558594 C 28.445312 2.085938 27.25 0.890625 25.777344 0.890625 C 24.859375 0.890625 24.007812 1.363281 23.519531 2.140625 L 17.976562 0.914062 C 17.914062 0.898438 17.851562 0.890625 17.792969 0.890625 Z M 11.554688 16.890625 C 13.027344 16.890625 14.222656 18.085938 14.222656 19.558594 C 14.222656 21.03125 13.027344 22.226562 11.554688 22.226562 C 10.082031 22.226562 8.890625 21.03125 8.890625 19.558594 C 8.890625 18.085938 10.082031 16.890625 11.554688 16.890625 Z M 20.445312 16.890625 C 21.917969 16.890625 23.109375 18.085938 23.109375 19.558594 C 23.109375 21.03125 21.917969 22.226562 20.445312 22.226562 C 18.972656 22.226562 17.777344 21.03125 17.777344 19.558594 C 17.777344 18.085938 18.972656 16.890625 20.445312 16.890625 Z M 22.171875 24.859375 C 23 24.789062 23.46875 25.789062 22.882812 26.375 C 22.882812 26.375 22.300781 26.992188 21.191406 27.507812 C 20.082031 28.015625 18.382812 28.492188 15.980469 28.449219 C 13.59375 28.40625 11.921875 27.9375 10.820312 27.453125 C 9.726562 26.96875 9.140625 26.398438 9.140625 26.398438 C 8.597656 25.867188 8.933594 24.9375 9.695312 24.882812 C 9.726562 24.878906 9.75 24.875 9.78125 24.875 C 10.023438 24.882812 10.25 24.980469 10.414062 25.15625 C 10.414062 25.15625 10.671875 25.4375 11.546875 25.824219 C 12.421875 26.210938 13.851562 26.625 16.019531 26.664062 C 18.175781 26.703125 19.578125 26.289062 20.4375 25.890625 C 21.304688 25.492188 21.558594 25.179688 21.558594 25.179688 C 21.710938 24.996094 21.933594 24.882812 22.171875 24.859375 Z M 22.171875 24.859375 "/></g></svg>
