<svg width="64" height="64" viewBox="0 0 64 64" version="1.1"><defs><linearGradient id="linear-pattern-0" gradientUnits="userSpaceOnUse" x1="0" y1="0" x2="0" y2="1" gradientTransform="matrix(60, 0, 0, 56, 0, 4)"><stop offset="0" stop-color="#008a97" stop-opacity="1"/><stop offset="1" stop-color="#00545c" stop-opacity="1"/></linearGradient></defs><path fill="url(#linear-pattern-0)" fill-opacity="1" d="M 36.21875 2.050781 L 62.027344 27.605469 C 64.402344 29.957031 64.417969 33.785156 62.058594 36.15625 L 36.460938 61.917969 C 34.105469 64.289062 30.269531 64.304688 27.894531 61.949219 L 2.085938 36.394531 C -0.289062 34.042969 -0.304688 30.214844 2.050781 27.84375 L 27.652344 2.082031 C 30.007812 -0.289062 33.84375 -0.304688 36.21875 2.050781 Z M 36.21875 2.050781 " /><g transform="matrix(1.0075098,0,0,1.0032698,16.221436,16.077397)"><path fill-rule="nonzero" fill="rgb(100%, 100%, 100%)" fill-opacity="1" d="M 25.691406 12.050781 L 18.890625 6.640625 L 11.117188 6.640625 L 5.285156 13.671875 L 5.285156 20.707031 L 11.601562 26.117188 L 15.976562 26.117188 L 18.890625 25.035156 L 21.320312 19.625 L 20.347656 14.214844 L 15.976562 10.96875 L 13.546875 10.96875 L 10.144531 14.757812 L 10.144531 18.542969 L 14.03125 21.789062 L 15.976562 20.707031 L 15.976562 18.542969 L 14.03125 18.542969 L 13.058594 17.460938 L 13.058594 15.296875 L 14.03125 14.214844 L 16.460938 14.214844 L 18.890625 16.378906 L 18.890625 20.164062 L 17.429688 22.871094 L 12.085938 23.953125 L 8.203125 19.625 L 8.203125 13.132812 L 12.085938 8.804688 L 18.890625 8.804688 L 23.75 14.214844 L 23.75 22.871094 L 19.859375 28.28125 L 13.058594 30.445312 L 5.285156 26.117188 L 1.398438 19.625 L 3.34375 9.886719 L 11.117188 2.3125 L 18.890625 2.3125 L 25.691406 5.558594 L 29.578125 10.96875 L 30.550781 18.542969 L 26.875 19.625 Z M 25.691406 12.050781 "/></g></svg>
