<svg width="64" height="64" viewBox="0 0 64 64" version="1.1"><defs><linearGradient id="linear-pattern-0" gradientUnits="userSpaceOnUse" x1="0" y1="0" x2="0" y2="1" gradientTransform="matrix(60, 0, 0, 56, 0, 4)"><stop offset="0" stop-color="#3067ff" stop-opacity="1"/><stop offset="1" stop-color="#002ca6" stop-opacity="1"/></linearGradient></defs><path fill="url(#linear-pattern-0)" fill-opacity="1" d="M 36.21875 2.050781 L 62.027344 27.605469 C 64.402344 29.957031 64.417969 33.785156 62.058594 36.15625 L 36.460938 61.917969 C 34.105469 64.289062 30.269531 64.304688 27.894531 61.949219 L 2.085938 36.394531 C -0.289062 34.042969 -0.304688 30.214844 2.050781 27.84375 L 27.652344 2.082031 C 30.007812 -0.289062 33.84375 -0.304688 36.21875 2.050781 Z M 36.21875 2.050781 " /><g transform="matrix(1.0075098,0,0,1.0032698,16.221436,16.077397)"><path fill-rule="nonzero" fill="rgb(100%, 100%, 100%)" fill-opacity="1" d="M 28.652344 10.15625 C 26.460938 4.789062 21.558594 1.34375 16.039062 1.34375 C 10.390625 1.34375 5.226562 5.117188 3.195312 10.722656 L 7.476562 12.484375 C 8.828125 8.742188 12.269531 6.234375 16.035156 6.234375 C 19.671875 6.234375 22.882812 8.476562 24.375 11.96875 L 21.25 13.296875 L 29.238281 18.207031 L 31.574219 8.914062 Z M 28.652344 10.15625 "/><path fill-rule="nonzero" fill="rgb(100%, 100%, 100%)" fill-opacity="1" d="M 16.039062 25.773438 C 12.4375 25.773438 9.152344 23.460938 7.683594 19.984375 L 10.765625 18.71875 L 2.859375 13.921875 L 0.441406 22.96875 L 3.390625 21.753906 C 5.535156 27.097656 10.554688 30.65625 16.039062 30.65625 C 21.703125 30.65625 26.726562 27.03125 28.824219 21.429688 L 24.5625 19.617188 C 23.164062 23.359375 19.816406 25.773438 16.039062 25.773438 Z M 16.039062 25.773438 "/></g></svg>
