<svg width="64" height="64" viewBox="0 0 64 64" version="1.1"><defs><linearGradient id="linear-pattern-0" gradientUnits="userSpaceOnUse" x1="0" y1="0" x2="0" y2="1" gradientTransform="matrix(60, 0, 0, 56, 0, 4)"><stop offset="0" stop-color="#7795ab" stop-opacity="1"/><stop offset="1" stop-color="#3b4f5f" stop-opacity="1"/></linearGradient></defs><path fill="url(#linear-pattern-0)" fill-opacity="1" d="M 36.21875 2.050781 L 62.027344 27.605469 C 64.402344 29.957031 64.417969 33.785156 62.058594 36.15625 L 36.460938 61.917969 C 34.105469 64.289062 30.269531 64.304688 27.894531 61.949219 L 2.085938 36.394531 C -0.289062 34.042969 -0.304688 30.214844 2.050781 27.84375 L 27.652344 2.082031 C 30.007812 -0.289062 33.84375 -0.304688 36.21875 2.050781 Z M 36.21875 2.050781 " /><g transform="matrix(1.0075098,0,0,1.0032698,16.221436,16.077397)"><path fill-rule="nonzero" fill="rgb(100%, 100%, 100%)" fill-opacity="1" d="M 19.351562 1.339844 C 18.488281 1.339844 17.5625 2.230469 16.890625 2.515625 C 13.84375 3.8125 5.746094 8.5 3.367188 12.289062 C 2.894531 12.878906 2.679688 13.523438 2.679688 14.203125 C 2.679688 15.355469 3.300781 16.414062 4.78125 17.253906 C 4.699219 17.300781 4.625 17.351562 4.546875 17.398438 C 4.546875 17.398438 4.542969 17.402344 4.539062 17.402344 C 3.238281 18.214844 2.679688 19.21875 2.679688 20.308594 C 2.679688 21.460938 3.300781 22.523438 4.78125 23.359375 C 4.699219 23.40625 4.625 23.457031 4.546875 23.507812 C 4.546875 23.507812 4.542969 23.507812 4.539062 23.507812 C 3.238281 24.320312 2.679688 25.324219 2.679688 26.414062 C 2.679688 29.109375 6.007812 31.296875 15.988281 31.296875 C 25.96875 31.296875 29.296875 29.109375 29.296875 26.414062 C 29.296875 25.46875 28.875 24.589844 27.910156 23.839844 C 27.898438 23.828125 27.886719 23.816406 27.875 23.804688 C 27.667969 23.652344 27.445312 23.5 27.195312 23.359375 C 28.675781 22.523438 29.296875 21.460938 29.296875 20.308594 C 29.296875 19.359375 28.875 18.484375 27.910156 17.734375 C 27.898438 17.722656 27.886719 17.710938 27.875 17.703125 C 27.667969 17.546875 27.445312 17.394531 27.195312 17.253906 C 28.675781 16.417969 29.296875 15.355469 29.296875 14.203125 C 29.296875 11.503906 25.96875 9.316406 15.988281 9.316406 C 15.6875 9.316406 15.445312 9.335938 15.148438 9.339844 C 15.09375 9.34375 15.039062 9.34375 14.980469 9.34375 C 13.765625 9.367188 12.648438 9.421875 11.636719 9.507812 C 14.75 7.507812 19.058594 5.652344 20.425781 5.652344 C 20.425781 5.652344 23.75 5.652344 23.75 4.429688 C 23.75 3.210938 22.839844 3.210938 22.09375 2.785156 C 21.351562 2.605469 21.113281 1.339844 19.351562 1.339844 Z M 19.351562 1.339844 "/><path fill-rule="nonzero" fill="rgb(100%, 100%, 100%)" fill-opacity="1" d="M 20.285156 2.171875 C 20.285156 3.046875 19.585938 3.757812 18.71875 3.757812 C 17.851562 3.757812 17.148438 3.046875 17.148438 2.171875 C 17.148438 1.300781 17.851562 0.589844 18.71875 0.589844 C 19.585938 0.589844 20.285156 1.300781 20.285156 2.171875 Z M 20.285156 2.171875 "/></g></svg>
