<svg width="64" height="64" viewBox="0 0 64 64" version="1.1"><defs><linearGradient id="linear-pattern-0" gradientUnits="userSpaceOnUse" x1="0" y1="0" x2="0" y2="1" gradientTransform="matrix(60, 0, 0, 56, 0, 4)"><stop offset="0" stop-color="#0288cf" stop-opacity="1"/><stop offset="1" stop-color="#01486e" stop-opacity="1"/></linearGradient></defs><path fill="url(#linear-pattern-0)" fill-opacity="1" d="M 36.21875 2.050781 L 62.027344 27.605469 C 64.402344 29.957031 64.417969 33.785156 62.058594 36.15625 L 36.460938 61.917969 C 34.105469 64.289062 30.269531 64.304688 27.894531 61.949219 L 2.085938 36.394531 C -0.289062 34.042969 -0.304688 30.214844 2.050781 27.84375 L 27.652344 2.082031 C 30.007812 -0.289062 33.84375 -0.304688 36.21875 2.050781 Z M 36.21875 2.050781 " /><g transform="matrix(1.0075098,0,0,1.0032698,16.221436,16.077397)"><path fill-rule="evenodd" fill="rgb(100%, 100%, 100%)" fill-opacity="1" d="M -0.0625 25 L 31.9375 25 L 31.9375 29 L -0.0625 29 Z M -0.0625 25 "/><path fill-rule="evenodd" fill="rgb(100%, 100%, 100%)" fill-opacity="1" d="M 3.078125 20.75 L 0 20.75 L 0 2.800781 L 7.945312 2.800781 C 10.015625 2.800781 11.515625 3.3125 12.445312 4.335938 C 13.382812 5.363281 13.84375 6.671875 13.84375 8.261719 C 13.84375 9.375 13.53125 10.414062 12.898438 11.390625 C 12.265625 12.367188 11.351562 13.03125 10.15625 13.390625 L 13.742188 20.75 L 10.28125 20.75 L 6.820312 13.726562 L 3.078125 13.726562 Z M 3.078125 5.726562 L 3.078125 10.800781 L 8 10.800781 C 8.921875 10.800781 9.597656 10.5625 10.023438 10.082031 C 10.453125 9.601562 10.664062 8.996094 10.664062 8.261719 C 10.664062 7.542969 10.460938 6.941406 10.054688 6.453125 C 9.640625 5.96875 8.957031 5.726562 8 5.726562 Z M 21.179688 20.75 L 18.5625 20.75 L 19.28125 16.054688 L 16.460938 16.054688 L 16.84375 13.515625 L 19.664062 13.515625 L 20.257812 9.59375 L 17.4375 9.59375 L 17.820312 7.054688 L 20.664062 7.054688 L 21.308594 2.800781 L 23.898438 2.800781 L 23.257812 7.054688 L 26.589844 7.054688 L 27.257812 2.800781 L 29.84375 2.800781 L 29.179688 7.054688 L 32 7.054688 L 31.640625 9.59375 L 28.796875 9.59375 L 28.203125 13.515625 L 31.023438 13.515625 L 30.640625 16.054688 L 27.820312 16.054688 L 27.101562 20.75 L 24.511719 20.75 L 25.230469 16.054688 L 21.898438 16.054688 Z M 22.871094 9.59375 L 22.28125 13.515625 L 25.617188 13.515625 L 26.203125 9.59375 Z M 22.871094 9.59375 "/></g></svg>
