<svg width="64" height="64" viewBox="0 0 64 64" version="1.1"><defs><linearGradient id="linear-pattern-0" gradientUnits="userSpaceOnUse" x1="0" y1="0" x2="0" y2="1" gradientTransform="matrix(60, 0, 0, 56, 0, 4)"><stop offset="0" stop-color="#6926fc" stop-opacity="1"/><stop offset="1" stop-color="#3702ab" stop-opacity="1"/></linearGradient></defs><path fill="url(#linear-pattern-0)" fill-opacity="1" d="M 36.21875 2.050781 L 62.027344 27.605469 C 64.402344 29.957031 64.417969 33.785156 62.058594 36.15625 L 36.460938 61.917969 C 34.105469 64.289062 30.269531 64.304688 27.894531 61.949219 L 2.085938 36.394531 C -0.289062 34.042969 -0.304688 30.214844 2.050781 27.84375 L 27.652344 2.082031 C 30.007812 -0.289062 33.84375 -0.304688 36.21875 2.050781 Z M 36.21875 2.050781 " /><g transform="matrix(1.0075098,0,0,1.0032698,16.221436,16.077397)"><path fill-rule="nonzero" fill="rgb(100%, 100%, 100%)" fill-opacity="1" d="M 5.707031 0.640625 L 8.625 3.023438 L 23.203125 3.023438 L 26.117188 0.640625 Z M 4.25 1.832031 L 4.25 16.109375 L 7.164062 13.726562 L 7.164062 4.210938 Z M 4.25 16.109375 L 4.25 30.386719 L 7.164062 28.007812 L 7.164062 18.488281 Z M 24.660156 4.210938 L 24.660156 13.726562 L 27.578125 16.109375 L 27.578125 1.832031 Z M 27.578125 16.109375 L 24.660156 18.488281 L 24.660156 28.007812 L 27.578125 30.386719 Z M 7.894531 14.921875 L 6.4375 16.109375 L 7.894531 17.296875 L 23.929688 17.296875 L 25.390625 16.109375 L 23.929688 14.921875 Z M 8.625 29.195312 L 5.707031 31.578125 L 26.117188 31.578125 L 23.203125 29.195312 Z M 8.625 29.195312 "/></g></svg>
