<svg width="64" height="64" viewBox="0 0 64 64" version="1.1"><defs><linearGradient id="linear-pattern-0" gradientUnits="userSpaceOnUse" x1="0" y1="0" x2="0" y2="1" gradientTransform="matrix(60, 0, 0, 56, 0, 4)"><stop offset="0" stop-color="#00a07f" stop-opacity="1"/><stop offset="1" stop-color="#005241" stop-opacity="1"/></linearGradient></defs><path fill="url(#linear-pattern-0)" fill-opacity="1" d="M 36.21875 2.050781 L 62.027344 27.605469 C 64.402344 29.957031 64.417969 33.785156 62.058594 36.15625 L 36.460938 61.917969 C 34.105469 64.289062 30.269531 64.304688 27.894531 61.949219 L 2.085938 36.394531 C -0.289062 34.042969 -0.304688 30.214844 2.050781 27.84375 L 27.652344 2.082031 C 30.007812 -0.289062 33.84375 -0.304688 36.21875 2.050781 Z M 36.21875 2.050781 " /><g transform="matrix(1.0075098,0,0,1.0032698,16.221436,16.077397)"><path fill-rule="evenodd" fill="rgb(100%, 100%, 100%)" fill-opacity="1" d="M 20 13.335938 L 20 16.664062 L 23.335938 16.664062 L 23.335938 13.335938 Z M 9.335938 7.335938 L 12 11.335938 L 6.664062 11.335938 L 6 14 L 3 14 L 4 10 L 2 10 L 0 18 L 4.800781 18 L 4 20.664062 L 8.664062 20.664062 L 5.335938 24.664062 L 9.335938 24.664062 L 12 20.664062 L 20 20.664062 L 22.664062 24.664062 L 26.664062 24.664062 L 23.335938 20.664062 L 28 20.664062 L 27.199219 18 L 32 18 L 30 10 L 28 10 L 29 14 L 26 14 L 25.335938 11.335938 L 20 11.335938 L 22.664062 7.335938 L 20.664062 7.335938 L 18 11.335938 L 14 11.335938 L 11.335938 7.335938 Z M 8.664062 13.335938 L 8.664062 16.664062 L 12 16.664062 L 12 13.335938 Z M 8.664062 13.335938 "/></g></svg>
