<svg width="64" height="64" viewBox="0 0 64 64" version="1.1"><defs><linearGradient id="linear-pattern-0" gradientUnits="userSpaceOnUse" x1="0" y1="0" x2="0" y2="1" gradientTransform="matrix(60, 0, 0, 56, 0, 4)"><stop offset="0" stop-color="#aaaa00" stop-opacity="1"/><stop offset="1" stop-color="#5c5c00" stop-opacity="1"/></linearGradient></defs><path fill="url(#linear-pattern-0)" fill-opacity="1" d="M 36.21875 2.050781 L 62.027344 27.605469 C 64.402344 29.957031 64.417969 33.785156 62.058594 36.15625 L 36.460938 61.917969 C 34.105469 64.289062 30.269531 64.304688 27.894531 61.949219 L 2.085938 36.394531 C -0.289062 34.042969 -0.304688 30.214844 2.050781 27.84375 L 27.652344 2.082031 C 30.007812 -0.289062 33.84375 -0.304688 36.21875 2.050781 Z M 36.21875 2.050781 " /><g transform="matrix(1.0075098,0,0,1.0032698,16.221436,16.077397)"><path fill-rule="nonzero" fill="rgb(100%, 100%, 100%)" fill-opacity="1" d="M 1.625 2.964844 L 1.625 29.21875 L 6.683594 29.21875 L 6.683594 10.125 L 13.003906 17.289062 L 18.0625 17.289062 L 24.382812 10.125 L 24.382812 29.21875 L 29.4375 29.21875 L 29.4375 2.964844 L 24.382812 2.964844 L 15.53125 13.109375 L 6.683594 2.964844 Z M 1.625 2.964844 "/><path fill-rule="nonzero" fill="rgb(100%, 100%, 100%)" fill-opacity="1" d="M 13.335938 19.671875 L 13.335938 22.53125 L 10.492188 22.53125 L 10.492188 26.34375 L 13.335938 26.34375 L 13.335938 29.203125 L 17.125 29.203125 L 17.125 26.34375 L 19.96875 26.34375 L 19.96875 22.53125 L 17.125 22.53125 L 17.125 19.671875 Z M 13.335938 19.671875 "/></g></svg>
