<svg width="64" height="64" viewBox="0 0 64 64" version="1.1"><defs><linearGradient id="linear-pattern-0" gradientUnits="userSpaceOnUse" x1="0" y1="0" x2="0" y2="1" gradientTransform="matrix(60, 0, 0, 56, 0, 4)"><stop offset="0" stop-color="#8900e4" stop-opacity="1"/><stop offset="1" stop-color="#42006e" stop-opacity="1"/></linearGradient></defs><path fill="url(#linear-pattern-0)" fill-opacity="1" d="M 36.21875 2.050781 L 62.027344 27.605469 C 64.402344 29.957031 64.417969 33.785156 62.058594 36.15625 L 36.460938 61.917969 C 34.105469 64.289062 30.269531 64.304688 27.894531 61.949219 L 2.085938 36.394531 C -0.289062 34.042969 -0.304688 30.214844 2.050781 27.84375 L 27.652344 2.082031 C 30.007812 -0.289062 33.84375 -0.304688 36.21875 2.050781 Z M 36.21875 2.050781 " /><g transform="matrix(1.0075098,0,0,1.0032698,16.221436,16.077397)"><path fill-rule="nonzero" fill="rgb(100%, 100%, 100%)" fill-opacity="1" d="M 25.679688 0 C 13.359375 0 6.046875 10.539062 6.328125 19.90625 L 6.328125 32 C 10.050781 32 13.773438 32 17.492188 32 L 17.492188 19.867188 C 17.492188 17.632812 18.226562 15.429688 19.59375 13.820312 C 20.964844 12.21875 22.933594 11.164062 25.679688 11.164062 Z M 23.445312 2.367188 L 23.445312 4.65625 C 16.511719 5.71875 10.796875 11.429688 10.796875 19.867188 L 10.796875 29.765625 L 8.5625 29.765625 L 8.5625 19.835938 C 8.328125 12.242188 13.785156 3.542969 23.445312 2.367188 Z M 23.445312 6.902344 L 23.445312 9.15625 C 21.136719 9.617188 19.246094 10.792969 17.898438 12.375 C 16.136719 14.4375 15.257812 17.148438 15.257812 19.867188 L 15.257812 29.765625 L 13.027344 29.765625 L 13.027344 19.867188 C 13.027344 12.546875 17.648438 7.890625 23.445312 6.902344 Z M 23.445312 6.902344 "/></g></svg>
