<svg width="64" height="64" viewBox="0 0 64 64" version="1.1"><defs><linearGradient id="linear-pattern-0" gradientUnits="userSpaceOnUse" x1="0" y1="0" x2="0" y2="1" gradientTransform="matrix(60, 0, 0, 56, 0, 4)"><stop offset="0" stop-color="#008a97" stop-opacity="1"/><stop offset="1" stop-color="#00545c" stop-opacity="1"/></linearGradient></defs><path fill="url(#linear-pattern-0)" fill-opacity="1" d="M 36.21875 2.050781 L 62.027344 27.605469 C 64.402344 29.957031 64.417969 33.785156 62.058594 36.15625 L 36.460938 61.917969 C 34.105469 64.289062 30.269531 64.304688 27.894531 61.949219 L 2.085938 36.394531 C -0.289062 34.042969 -0.304688 30.214844 2.050781 27.84375 L 27.652344 2.082031 C 30.007812 -0.289062 33.84375 -0.304688 36.21875 2.050781 Z M 36.21875 2.050781 " /><g transform="matrix(1.0075098,0,0,1.0032698,16.221436,16.077397)"><path fill-rule="nonzero" fill="rgb(100%, 100%, 100%)" fill-opacity="1" d="M 11.539062 0 C 9.796875 0 8.984375 1.523438 8.984375 2.554688 L 8.984375 21.859375 L 6.007812 19.183594 C 5.945312 19.117188 3.96875 17.46875 2.078125 19.445312 C 0.503906 21.382812 1.683594 23.335938 2.398438 24.09375 L 6.367188 28.046875 C 8.917969 30.597656 12.261719 32 15.8125 32 L 22.398438 32 C 26.976562 32 30.703125 28.273438 30.703125 23.695312 L 30.703125 3.832031 C 30.703125 2.804688 29.890625 1.277344 28.148438 1.277344 C 26.40625 1.277344 25.59375 2.804688 25.59375 3.832031 L 25.59375 18.007812 C 25.601562 18.664062 25.617188 19.882812 24.695312 20.820312 C 24.292969 21.226562 23.578125 21.71875 22.398438 21.71875 C 21.226562 21.71875 20.503906 21.226562 20.101562 20.820312 C 20.007812 20.726562 19.921875 20.628906 19.84375 20.523438 C 19.765625 20.628906 19.675781 20.726562 19.585938 20.820312 C 19.179688 21.226562 18.46875 21.71875 17.289062 21.71875 C 16.117188 21.71875 15.394531 21.226562 14.992188 20.820312 C 14.0625 19.871094 14.082031 18.613281 14.09375 18.007812 L 14.09375 2.554688 C 14.09375 1.492188 13.300781 0 11.539062 0 Z M 17.289062 8.945312 C 16.703125 8.945312 16.242188 9.121094 15.910156 9.460938 C 15.347656 10.03125 15.363281 10.859375 15.367188 11.359375 L 15.367188 18.027344 C 15.363281 18.527344 15.351562 19.359375 15.910156 19.921875 C 16.242188 20.265625 16.703125 20.441406 17.289062 20.441406 C 17.878906 20.441406 18.351562 20.265625 18.683594 19.921875 C 19.234375 19.363281 19.214844 18.5625 19.203125 18.027344 L 19.203125 11.378906 C 19.210938 10.878906 19.230469 10.035156 18.664062 9.460938 C 18.328125 9.125 17.867188 8.945312 17.289062 8.945312 Z M 22.398438 8.945312 C 21.816406 8.945312 21.351562 9.121094 21.019531 9.460938 C 20.460938 10.03125 20.476562 10.859375 20.484375 11.359375 L 20.484375 18.027344 C 20.472656 18.527344 20.464844 19.359375 21.019531 19.921875 C 21.351562 20.265625 21.8125 20.441406 22.398438 20.441406 C 22.992188 20.441406 23.464844 20.265625 23.796875 19.921875 C 24.34375 19.363281 24.324219 18.5625 24.3125 18.027344 L 24.3125 11.378906 C 24.320312 10.878906 24.339844 10.035156 23.773438 9.460938 C 23.4375 9.125 22.976562 8.945312 22.398438 8.945312 Z M 22.398438 8.945312 "/></g></svg>
