<svg width="64" height="64" viewBox="0 0 64 64" version="1.1"><defs><linearGradient id="linear-pattern-0" gradientUnits="userSpaceOnUse" x1="0" y1="0" x2="0" y2="1" gradientTransform="matrix(60, 0, 0, 56, 0, 4)"><stop offset="0" stop-color="#a67e50" stop-opacity="1"/><stop offset="1" stop-color="#644c30" stop-opacity="1"/></linearGradient></defs><path fill="url(#linear-pattern-0)" fill-opacity="1" d="M 36.21875 2.050781 L 62.027344 27.605469 C 64.402344 29.957031 64.417969 33.785156 62.058594 36.15625 L 36.460938 61.917969 C 34.105469 64.289062 30.269531 64.304688 27.894531 61.949219 L 2.085938 36.394531 C -0.289062 34.042969 -0.304688 30.214844 2.050781 27.84375 L 27.652344 2.082031 C 30.007812 -0.289062 33.84375 -0.304688 36.21875 2.050781 Z M 36.21875 2.050781 " /><g transform="matrix(1.0075098,0,0,1.0032698,16.221436,16.077397)"><path fill-rule="evenodd" fill="rgb(100%, 100%, 100%)" fill-opacity="1" d="M 16.320312 32.039062 C 17.1875 32.039062 17.890625 31.335938 17.890625 30.46875 C 17.890625 30.046875 17.71875 29.640625 17.414062 29.34375 L 19.3125 25.226562 C 19.359375 25.234375 19.410156 25.234375 19.457031 25.234375 C 19.929688 25.234375 20.375 25.023438 20.671875 24.65625 L 25.109375 26.242188 C 25.125 26.632812 25.289062 27.007812 25.566406 27.289062 C 26.179688 27.898438 27.171875 27.898438 27.789062 27.289062 C 28.398438 26.671875 28.398438 25.679688 27.789062 25.066406 C 27.507812 24.789062 27.132812 24.625 26.742188 24.609375 L 25.15625 20.171875 C 25.523438 19.875 25.734375 19.429688 25.734375 18.957031 L 26.78125 18.957031 L 27.960938 18.816406 L 32.015625 18.328125 L 32.015625 13.304688 L 27.960938 12.820312 C 27.679688 11.726562 27.242188 10.679688 26.671875 9.703125 L 29.195312 6.492188 L 25.640625 2.945312 L 22.429688 5.464844 C 21.457031 4.890625 20.410156 4.460938 19.316406 4.179688 L 18.828125 0.117188 L 13.804688 0.117188 L 13.804688 0.125 L 13.320312 4.175781 C 12.226562 4.457031 11.179688 4.890625 10.207031 5.464844 L 6.992188 2.945312 L 3.78125 6.492188 L 6.304688 9.707031 L 7.035156 10.640625 L 7.835938 11.445312 C 7.457031 11.742188 7.234375 12.195312 7.234375 12.679688 C 7.234375 12.726562 7.242188 12.773438 7.242188 12.824219 L 2.710938 14.726562 C 2.414062 14.421875 2.007812 14.25 1.585938 14.25 C 0.71875 14.25 0.015625 14.953125 0.015625 15.820312 C 0.015625 16.6875 0.71875 17.390625 1.585938 17.390625 C 2.007812 17.386719 2.414062 17.214844 2.710938 16.914062 L 7.242188 18.8125 C 7.242188 18.859375 7.234375 18.90625 7.234375 18.957031 C 7.234375 19.429688 7.449219 19.875 7.8125 20.171875 L 5.8125 24.609375 C 5.417969 24.625 5.046875 24.789062 4.765625 25.066406 C 4.15625 25.679688 4.15625 26.671875 4.765625 27.285156 C 5.378906 27.898438 6.375 27.898438 6.984375 27.285156 C 7.265625 27.007812 7.429688 26.632812 7.445312 26.242188 L 11.960938 24.65625 C 12.257812 25.023438 12.707031 25.234375 13.179688 25.234375 C 13.226562 25.234375 13.273438 25.234375 13.324219 25.226562 L 15.222656 29.34375 C 14.921875 29.640625 14.75 30.046875 14.75 30.46875 C 14.75 31.335938 15.453125 32.039062 16.320312 32.039062 Z M 16.171875 28.90625 L 14.273438 24.789062 C 14.445312 24.625 14.578125 24.414062 14.65625 24.1875 L 17.980469 24.1875 C 18.0625 24.414062 18.191406 24.625 18.367188 24.789062 L 16.464844 28.90625 C 16.414062 28.898438 16.367188 28.898438 16.320312 28.898438 C 16.269531 28.898438 16.222656 28.902344 16.171875 28.90625 Z M 25.421875 25.242188 L 21.027344 23.671875 L 21.027344 23.664062 C 21.027344 23.433594 20.972656 23.203125 20.875 22.992188 L 23.492188 20.375 C 23.703125 20.472656 23.933594 20.527344 24.164062 20.527344 L 24.171875 20.527344 L 25.742188 24.921875 C 25.679688 24.964844 25.621094 25.015625 25.566406 25.066406 C 25.515625 25.121094 25.464844 25.179688 25.421875 25.242188 Z M 7.132812 25.242188 C 7.085938 25.179688 7.039062 25.121094 6.984375 25.066406 C 6.929688 25.011719 6.875 24.960938 6.8125 24.917969 L 8.804688 20.527344 C 9.039062 20.527344 9.269531 20.472656 9.480469 20.371094 L 11.765625 22.992188 C 11.664062 23.203125 11.609375 23.433594 11.609375 23.664062 L 11.609375 23.671875 Z M 17.980469 23.140625 L 14.65625 23.140625 C 14.4375 22.515625 13.84375 22.097656 13.179688 22.097656 C 12.945312 22.097656 12.714844 22.148438 12.503906 22.25 L 10.21875 19.632812 C 10.320312 19.421875 10.375 19.191406 10.375 18.957031 C 10.375 18.292969 9.953125 17.699219 9.328125 17.476562 L 9.328125 14.15625 C 9.953125 13.9375 10.375 13.34375 10.375 12.679688 C 10.375 12.308594 10.242188 11.953125 10.007812 11.671875 C 11.4375 9.375 13.613281 7.683594 16.320312 7.679688 C 21.9375 7.679688 24.539062 11.484375 24.539062 15.820312 C 24.539062 16.351562 24.480469 16.878906 24.375 17.398438 C 23.273438 17.417969 22.597656 18.15625 22.59375 18.957031 C 22.597656 19.191406 22.648438 19.421875 22.75 19.632812 L 20.132812 22.25 C 19.921875 22.148438 19.691406 22.097656 19.457031 22.097656 C 18.792969 22.097656 18.203125 22.515625 17.980469 23.140625 Z M 7.683594 17.867188 L 3.148438 15.960938 C 3.148438 15.914062 3.15625 15.867188 3.15625 15.820312 C 3.15625 15.769531 3.148438 15.71875 3.148438 15.671875 L 7.679688 13.773438 C 7.851562 13.945312 8.054688 14.078125 8.28125 14.15625 L 8.28125 17.480469 C 8.054688 17.5625 7.851562 17.691406 7.683594 17.867188 Z M 7.683594 17.867188 "/></g></svg>
