<svg width="64" height="64" viewBox="0 0 64 64" version="1.1"><defs><linearGradient id="linear-pattern-0" gradientUnits="userSpaceOnUse" x1="0" y1="0" x2="0" y2="1" gradientTransform="matrix(60, 0, 0, 56, 0, 4)"><stop offset="0" stop-color="#ec7700" stop-opacity="1"/><stop offset="1" stop-color="#773c00" stop-opacity="1"/></linearGradient></defs><path fill="url(#linear-pattern-0)" fill-opacity="1" d="M 36.21875 2.050781 L 62.027344 27.605469 C 64.402344 29.957031 64.417969 33.785156 62.058594 36.15625 L 36.460938 61.917969 C 34.105469 64.289062 30.269531 64.304688 27.894531 61.949219 L 2.085938 36.394531 C -0.289062 34.042969 -0.304688 30.214844 2.050781 27.84375 L 27.652344 2.082031 C 30.007812 -0.289062 33.84375 -0.304688 36.21875 2.050781 Z M 36.21875 2.050781 " /><g transform="matrix(1.0075098,0,0,1.0032698,16.221436,16.077397)"><path fill-rule="evenodd" fill="rgb(100%, 100%, 100%)" fill-opacity="1" d="M 8.800781 1.789062 L 8.800781 6.40625 C 9.703125 6.414062 10.339844 6.429688 11.179688 6.625 C 12.03125 6.820312 12.800781 6.988281 12.800781 8.054688 L 11.679688 8.800781 C 11.679688 8.800781 11.09375 8.148438 10.5625 8.054688 C 10.34375 8.015625 10.109375 8.046875 9.601562 8.453125 L 9.601562 29.273438 L 7.199219 32 L 4.800781 29.273438 L 4.800781 20 L 2.398438 17.601562 L 4.800781 15.199219 L 4.800781 8.183594 C 4.480469 8.0625 4.152344 8 3.839844 8.054688 C 3.304688 8.148438 2.71875 8.800781 2.71875 8.800781 L 1.601562 8.054688 C 1.601562 6.988281 2.367188 6.820312 3.222656 6.625 C 4.035156 6.4375 4.730469 6.417969 5.601562 6.410156 L 5.601562 1.789062 C 5.109375 1.351562 4.800781 0.710938 4.800781 0 L 9.601562 0 C 9.601562 0.710938 9.292969 1.351562 8.800781 1.789062 Z M 13.855469 6.398438 C 14.175781 6.886719 14.398438 7.480469 14.398438 8.054688 C 14.398438 8.488281 14.0625 8.90625 13.75 9.203125 C 15.0625 10.121094 16 11.777344 16 13.414062 C 16 16.4375 14.3125 16.703125 11.199219 17.601562 C 13.070312 22.164062 16.789062 26.203125 20.472656 28.296875 C 23.609375 30.195312 26.492188 31.53125 30.398438 32 C 26.085938 26.730469 19.359375 24.414062 16 19.199219 C 18.246094 18.023438 20.800781 17.003906 20.800781 13.109375 C 20.800781 9.953125 17.921875 6.398438 15.777344 6.398438 Z M 13.855469 6.398438 "/></g></svg>
