<svg width="64" height="64" viewBox="0 0 64 64" version="1.1"><defs><linearGradient id="linear-pattern-0" gradientUnits="userSpaceOnUse" x1="0" y1="0" x2="0" y2="1" gradientTransform="matrix(60, 0, 0, 56, 0, 4)"><stop offset="0" stop-color="#7795ab" stop-opacity="1"/><stop offset="1" stop-color="#3b4f5f" stop-opacity="1"/></linearGradient></defs><path fill="url(#linear-pattern-0)" fill-opacity="1" d="M 36.21875 2.050781 L 62.027344 27.605469 C 64.402344 29.957031 64.417969 33.785156 62.058594 36.15625 L 36.460938 61.917969 C 34.105469 64.289062 30.269531 64.304688 27.894531 61.949219 L 2.085938 36.394531 C -0.289062 34.042969 -0.304688 30.214844 2.050781 27.84375 L 27.652344 2.082031 C 30.007812 -0.289062 33.84375 -0.304688 36.21875 2.050781 Z M 36.21875 2.050781 " /><g transform="matrix(1.0075098,0,0,1.0032698,16.221436,16.077397)"><path fill-rule="evenodd" fill="rgb(100%, 100%, 100%)" fill-opacity="1" d="M 22.660156 9.46875 L 22.660156 22.703125 L 32.28125 22.703125 L 32.28125 13.25 L 26.601562 13.25 L 26.601562 9.46875 L 22.660156 9.46875 M 11.183594 13.25 L 11.183594 15.140625 L 16.902344 15.140625 L 16.902344 17.21875 L 11.183594 17.21875 L 11.183594 22.703125 L 20.800781 22.703125 L 20.800781 13.25 L 11.183594 13.25 M -0.222656 13.335938 L -0.222656 19.109375 L 5.496094 19.109375 L 5.496094 20.8125 L -0.222656 20.8125 L -0.222656 22.703125 L 9.394531 22.703125 L 9.394531 17.21875 L 3.675781 17.21875 L 3.675781 15.226562 L 9.394531 15.226562 L 9.394531 13.335938 L -0.222656 13.335938 M 26.601562 15.140625 L 28.296875 15.140625 L 28.296875 20.8125 L 26.601562 20.8125 Z M 15.125 19.109375 L 16.941406 19.109375 L 16.941406 20.8125 L 15.125 20.8125 Z M 15.125 19.109375 "/></g></svg>
