<svg width="64" height="64" viewBox="0 0 64 64" version="1.1"><defs><linearGradient id="linear-pattern-0" gradientUnits="userSpaceOnUse" x1="0" y1="0" x2="0" y2="1" gradientTransform="matrix(60, 0, 0, 56, 0, 4)"><stop offset="0" stop-color="#6926fc" stop-opacity="1"/><stop offset="1" stop-color="#3702ab" stop-opacity="1"/></linearGradient></defs><path fill="url(#linear-pattern-0)" fill-opacity="1" d="M 36.21875 2.050781 L 62.027344 27.605469 C 64.402344 29.957031 64.417969 33.785156 62.058594 36.15625 L 36.460938 61.917969 C 34.105469 64.289062 30.269531 64.304688 27.894531 61.949219 L 2.085938 36.394531 C -0.289062 34.042969 -0.304688 30.214844 2.050781 27.84375 L 27.652344 2.082031 C 30.007812 -0.289062 33.84375 -0.304688 36.21875 2.050781 Z M 36.21875 2.050781 " /><g transform="matrix(1.0075098,0,0,1.0032698,16.221436,16.077397)"><path fill-rule="nonzero" fill="rgb(100%, 100%, 100%)" fill-opacity="1" d="M 20.96875 0.78125 C 16.695312 0.78125 13.234375 4.246094 13.234375 8.515625 C 13.234375 10.039062 13.683594 11.519531 14.523438 12.785156 L 14.523438 21.585938 C 13.1875 21.929688 12.046875 22.796875 11.351562 23.992188 L 3.070312 23.992188 L 4.015625 24.484375 L 3.6875 27.292969 L 6.453125 27.96875 L 6.601562 29.148438 L 11.351562 29.148438 C 12.273438 30.742188 13.972656 31.726562 15.8125 31.726562 C 18.65625 31.726562 20.96875 29.421875 20.96875 26.570312 C 20.964844 25.25 20.457031 23.976562 19.546875 23.023438 L 24.347656 15.46875 C 27.007812 14.171875 28.695312 11.476562 28.699219 8.515625 C 28.699219 4.246094 25.238281 0.78125 20.96875 0.78125 Z M 20.96875 3.359375 C 23.8125 3.359375 26.125 5.671875 26.125 8.515625 C 26.125 11.367188 23.8125 13.675781 20.96875 13.675781 C 18.117188 13.675781 15.8125 11.367188 15.8125 8.515625 C 15.8125 5.671875 18.117188 3.359375 20.96875 3.359375 Z M 20.96875 5.9375 C 19.542969 5.9375 18.390625 7.09375 18.390625 8.515625 C 18.390625 9.945312 19.542969 11.097656 20.96875 11.097656 C 22.390625 11.097656 23.546875 9.945312 23.546875 8.515625 C 23.546875 7.09375 22.390625 5.9375 20.96875 5.9375 Z M 15.8125 22.703125 C 17.945312 22.703125 19.679688 24.433594 19.679688 26.570312 C 19.679688 28.703125 17.945312 30.4375 15.8125 30.4375 C 14.710938 30.4375 13.667969 29.96875 12.9375 29.148438 L 15.8125 29.148438 C 17.238281 29.148438 18.390625 28 18.390625 26.570312 C 18.390625 25.140625 17.238281 23.992188 15.8125 23.992188 L 12.933594 23.992188 C 13.664062 23.171875 14.710938 22.703125 15.8125 22.703125 Z M 15.8125 22.703125 "/></g></svg>
