<svg width="64" height="64" viewBox="0 0 64 64" version="1.1"><defs><linearGradient id="linear-pattern-0" gradientUnits="userSpaceOnUse" x1="0" y1="0" x2="0" y2="1" gradientTransform="matrix(60, 0, 0, 56, 0, 4)"><stop offset="0" stop-color="#00a07f" stop-opacity="1"/><stop offset="1" stop-color="#005241" stop-opacity="1"/></linearGradient></defs><path fill="url(#linear-pattern-0)" fill-opacity="1" d="M 36.21875 2.050781 L 62.027344 27.605469 C 64.402344 29.957031 64.417969 33.785156 62.058594 36.15625 L 36.460938 61.917969 C 34.105469 64.289062 30.269531 64.304688 27.894531 61.949219 L 2.085938 36.394531 C -0.289062 34.042969 -0.304688 30.214844 2.050781 27.84375 L 27.652344 2.082031 C 30.007812 -0.289062 33.84375 -0.304688 36.21875 2.050781 Z M 36.21875 2.050781 " /><g transform="matrix(1.0075098,0,0,1.0032698,16.221436,16.077397)"><path fill-rule="evenodd" fill="rgb(100%, 100%, 100%)" fill-opacity="1" d="M 6.285156 16 C 6.285156 10.640625 10.640625 6.285156 16 6.285156 C 21.359375 6.285156 25.714844 10.640625 25.714844 16 C 25.714844 21.359375 21.359375 25.714844 16 25.714844 C 10.640625 25.714844 6.285156 21.359375 6.285156 16 Z M 16 3.429688 L 16 0 C 24.835938 0 32 7.164062 32 16 L 28.570312 16 C 28.570312 22.9375 22.9375 28.570312 16 28.570312 L 16 32 C 7.164062 32 0 24.835938 0 16 L 3.429688 16 C 3.429688 9.0625 9.0625 3.429688 16 3.429688 Z M 12.714844 10.550781 L 19.0625 10.550781 C 19.671875 10.550781 20.195312 10.765625 20.632812 11.199219 C 21.070312 11.632812 21.292969 12.15625 21.292969 12.765625 L 21.292969 15.195312 C 21.292969 15.8125 21.070312 16.335938 20.632812 16.773438 C 20.195312 17.210938 19.671875 17.429688 19.0625 17.429688 L 12.820312 17.429688 L 12.820312 19.21875 L 21.292969 19.21875 L 21.292969 21.558594 L 10.484375 21.558594 L 10.484375 17.296875 C 10.484375 16.679688 10.703125 16.160156 11.140625 15.726562 C 11.578125 15.292969 12.101562 15.078125 12.714844 15.078125 L 18.953125 15.078125 L 18.953125 12.890625 L 12.820312 12.890625 L 12.820312 13.773438 L 10.484375 13.773438 L 10.484375 12.765625 C 10.484375 12.15625 10.703125 11.632812 11.140625 11.199219 C 11.578125 10.765625 12.101562 10.550781 12.714844 10.550781 Z M 12.714844 10.550781 "/></g></svg>
