<svg width="64" height="64" viewBox="0 0 64 64" version="1.1"><defs><linearGradient id="linear-pattern-0" gradientUnits="userSpaceOnUse" x1="0" y1="0" x2="0" y2="1" gradientTransform="matrix(60, 0, 0, 56, 0, 4)"><stop offset="0" stop-color="#c10000" stop-opacity="1"/><stop offset="1" stop-color="#5f0000" stop-opacity="1"/></linearGradient></defs><path fill="url(#linear-pattern-0)" fill-opacity="1" d="M 36.21875 2.050781 L 62.027344 27.605469 C 64.402344 29.957031 64.417969 33.785156 62.058594 36.15625 L 36.460938 61.917969 C 34.105469 64.289062 30.269531 64.304688 27.894531 61.949219 L 2.085938 36.394531 C -0.289062 34.042969 -0.304688 30.214844 2.050781 27.84375 L 27.652344 2.082031 C 30.007812 -0.289062 33.84375 -0.304688 36.21875 2.050781 Z M 36.21875 2.050781 " /><g transform="matrix(1.0075098,0,0,1.0032698,16.221436,16.077397)"><path fill-rule="nonzero" fill="rgb(100%, 100%, 100%)" fill-opacity="1" d="M 8.332031 31.429688 C 8.039062 31.257812 0.941406 24.203125 0.71875 23.867188 C 0.519531 23.554688 0.484375 23.179688 0.640625 22.875 C 0.769531 22.625 22.273438 1.179688 22.625 0.949219 C 22.925781 0.757812 23.335938 0.714844 23.585938 0.851562 C 23.84375 0.996094 31.289062 8.4375 31.367188 8.636719 C 31.472656 8.875 31.476562 9.222656 31.382812 9.398438 C 31.265625 9.609375 9.566406 31.269531 9.316406 31.421875 C 9.027344 31.601562 8.617188 31.601562 8.332031 31.433594 M 19.007812 19.132812 L 29.171875 9.015625 L 23.179688 3.046875 L 20.898438 5.320312 L 21.882812 6.304688 C 22.9375 7.367188 23.046875 7.550781 22.960938 8.023438 C 22.902344 8.324219 22.539062 8.691406 22.25 8.746094 C 21.746094 8.839844 21.648438 8.78125 20.546875 7.695312 L 19.523438 6.6875 L 18.34375 7.863281 L 20.179688 9.695312 C 22.148438 11.667969 22.1875 11.726562 22.078125 12.203125 C 21.9375 12.855469 21.1875 13.183594 20.664062 12.828125 C 20.558594 12.757812 19.679688 11.917969 18.71875 10.964844 L 16.972656 9.234375 L 15.820312 10.375 L 16.8125 11.375 C 17.832031 12.40625 17.882812 12.488281 17.882812 12.96875 C 17.882812 13.316406 17.566406 13.710938 17.203125 13.804688 C 16.726562 13.9375 16.554688 13.832031 15.449219 12.738281 L 14.445312 11.742188 L 13.855469 12.335938 L 13.265625 12.921875 L 14.253906 13.921875 C 15.304688 14.992188 15.402344 15.136719 15.328125 15.582031 C 15.207031 16.273438 14.4375 16.582031 13.851562 16.175781 C 13.710938 16.074219 13.214844 15.609375 12.746094 15.140625 L 11.890625 14.289062 L 10.703125 15.46875 L 12.53125 17.289062 C 13.53125 18.289062 14.378906 19.183594 14.414062 19.277344 C 14.570312 19.691406 14.445312 20.109375 14.097656 20.367188 C 13.851562 20.554688 13.660156 20.597656 13.351562 20.554688 C 13.132812 20.515625 12.9375 20.347656 11.234375 18.660156 L 9.363281 16.804688 L 8.183594 17.984375 L 9.164062 18.96875 C 10.226562 20.039062 10.339844 20.21875 10.25 20.6875 C 10.195312 20.996094 9.835938 21.351562 9.523438 21.414062 C 9.054688 21.5 8.871094 21.386719 7.796875 20.328125 L 6.808594 19.351562 L 5.625 20.53125 L 6.609375 21.515625 C 7.15625 22.058594 7.625 22.578125 7.660156 22.671875 C 7.929688 23.375 7.355469 24.0625 6.601562 23.945312 C 6.382812 23.910156 6.242188 23.792969 5.347656 22.917969 C 4.792969 22.367188 4.316406 21.925781 4.28125 21.925781 C 4.25 21.925781 3.90625 22.234375 3.523438 22.625 L 2.828125 23.320312 L 5.8125 26.289062 C 7.445312 27.921875 8.804688 29.257812 8.820312 29.257812 C 8.835938 29.257812 13.421875 24.703125 19.007812 19.140625 "/></g></svg>
