<svg width="64" height="64" viewBox="0 0 64 64" version="1.1"><defs><linearGradient id="linear-pattern-0" gradientUnits="userSpaceOnUse" x1="0" y1="0" x2="0" y2="1" gradientTransform="matrix(60, 0, 0, 56, 0, 4)"><stop offset="0" stop-color="#8900e4" stop-opacity="1"/><stop offset="1" stop-color="#42006e" stop-opacity="1"/></linearGradient></defs><path fill="url(#linear-pattern-0)" fill-opacity="1" d="M 36.21875 2.050781 L 62.027344 27.605469 C 64.402344 29.957031 64.417969 33.785156 62.058594 36.15625 L 36.460938 61.917969 C 34.105469 64.289062 30.269531 64.304688 27.894531 61.949219 L 2.085938 36.394531 C -0.289062 34.042969 -0.304688 30.214844 2.050781 27.84375 L 27.652344 2.082031 C 30.007812 -0.289062 33.84375 -0.304688 36.21875 2.050781 Z M 36.21875 2.050781 " /><g transform="matrix(1.0075098,0,0,1.0032698,16.221436,16.077397)"><path fill-rule="nonzero" fill="rgb(100%, 100%, 100%)" fill-opacity="1" d="M 8.234375 2.894531 C 3.890625 2.894531 0.367188 6.582031 0.367188 11.132812 C 0.367188 14.449219 2.273438 17.445312 5.195312 18.726562 C 5.746094 18.0625 6.472656 17.578125 7.289062 17.367188 C 7.195312 16.882812 7.140625 16.378906 7.140625 15.863281 C 7.140625 12.148438 9.84375 9.132812 13.171875 9.132812 C 14.195312 9.132812 15.15625 9.414062 16 9.914062 C 15.429688 5.882812 12.121094 2.898438 8.234375 2.894531 Z M 8.234375 2.894531 "/><path fill-rule="nonzero" fill="rgb(100%, 100%, 100%)" fill-opacity="1" d="M 27.453125 18.816406 L 27.34375 18.816406 C 27.058594 15.984375 24.910156 13.789062 22.292969 13.789062 C 21.390625 13.789062 20.539062 14.054688 19.804688 14.511719 C 18.832031 12.265625 16.765625 10.707031 14.371094 10.707031 C 11.039062 10.707031 8.335938 13.722656 8.335938 17.441406 C 8.335938 17.957031 8.390625 18.460938 8.492188 18.945312 C 6.65625 19.417969 5.28125 21.25 5.28125 23.449219 C 5.28125 26 7.140625 28.070312 9.429688 28.070312 L 10.101562 28.039062 L 26.71875 28.039062 L 27.453125 28.070312 C 29.742188 28.070312 31.59375 26 31.59375 23.449219 C 31.59375 20.890625 29.742188 18.816406 27.453125 18.816406 Z M 27.453125 18.816406 "/></g></svg>
