<svg width="64" height="64" viewBox="0 0 64 64" version="1.1"><defs><linearGradient id="linear-pattern-0" gradientUnits="userSpaceOnUse" x1="0" y1="0" x2="0" y2="1" gradientTransform="matrix(60, 0, 0, 56, 0, 4)"><stop offset="0" stop-color="#008a97" stop-opacity="1"/><stop offset="1" stop-color="#00545c" stop-opacity="1"/></linearGradient></defs><path fill="url(#linear-pattern-0)" fill-opacity="1" d="M 36.21875 2.050781 L 62.027344 27.605469 C 64.402344 29.957031 64.417969 33.785156 62.058594 36.15625 L 36.460938 61.917969 C 34.105469 64.289062 30.269531 64.304688 27.894531 61.949219 L 2.085938 36.394531 C -0.289062 34.042969 -0.304688 30.214844 2.050781 27.84375 L 27.652344 2.082031 C 30.007812 -0.289062 33.84375 -0.304688 36.21875 2.050781 Z M 36.21875 2.050781 " /><g transform="matrix(1.0075098,0,0,1.0032698,16.221436,16.077397)"><path fill-rule="nonzero" fill="rgb(100%, 100%, 100%)" fill-opacity="1" d="M 14.484375 20.730469 C 18.132812 20.730469 19.960938 21.015625 21.449219 18.617188 C 23.429688 15.421875 20.691406 11.910156 18.289062 11.980469 C 15.882812 12.054688 13.792969 13.957031 13.792969 18.046875 C 13.792969 22.140625 9.390625 30.96875 0.847656 30.96875 C 0.847656 26.875 0.847656 20.730469 0.847656 20.730469 C 2.351562 20.730469 4.898438 20.484375 4.996094 14.730469 C 5.089844 8.980469 9.996094 1.605469 18.0625 1.605469 C 26.132812 1.605469 31.320312 9.578125 31.320312 16.390625 C 31.320312 23.203125 28.09375 31.035156 14.484375 31.035156 Z M 14.484375 20.730469 "/></g></svg>
