<svg width="64" height="64" viewBox="0 0 64 64" version="1.1"><defs><linearGradient id="linear-pattern-0" gradientUnits="userSpaceOnUse" x1="0" y1="0" x2="0" y2="1" gradientTransform="matrix(60, 0, 0, 56, 0, 4)"><stop offset="0" stop-color="#00a07f" stop-opacity="1"/><stop offset="1" stop-color="#005241" stop-opacity="1"/></linearGradient></defs><path fill="url(#linear-pattern-0)" fill-opacity="1" d="M 36.21875 2.050781 L 62.027344 27.605469 C 64.402344 29.957031 64.417969 33.785156 62.058594 36.15625 L 36.460938 61.917969 C 34.105469 64.289062 30.269531 64.304688 27.894531 61.949219 L 2.085938 36.394531 C -0.289062 34.042969 -0.304688 30.214844 2.050781 27.84375 L 27.652344 2.082031 C 30.007812 -0.289062 33.84375 -0.304688 36.21875 2.050781 Z M 36.21875 2.050781 " /><g transform="matrix(1.0075098,0,0,1.0032698,16.221436,16.077397)"><path fill-rule="nonzero" fill="rgb(100%, 100%, 100%)" fill-opacity="1" d="M 23.015625 0.769531 C 19.132812 0.769531 15.984375 2.054688 15.984375 4.617188 C 15.984375 7.1875 19.132812 8.472656 23.015625 8.472656 C 26.898438 8.472656 30.042969 7.1875 30.042969 4.617188 C 30.042969 2.054688 26.898438 0.769531 23.015625 0.769531 Z M 23.015625 3.335938 C 25.601562 3.335938 27.703125 3.910156 27.703125 4.617188 C 27.703125 5.328125 25.601562 5.90625 23.015625 5.90625 C 20.425781 5.90625 18.328125 5.328125 18.328125 4.617188 C 18.328125 3.910156 20.425781 3.335938 23.015625 3.335938 Z M 23.015625 11.039062 C 19.769531 11.039062 17.15625 13.902344 17.15625 17.460938 C 17.15625 21.015625 19.769531 23.878906 23.015625 23.878906 L 24.773438 23.878906 C 25.742188 23.878906 26.53125 24.738281 26.53125 25.804688 C 26.53125 26.875 25.742188 27.730469 24.773438 27.730469 L 18.328125 27.730469 L 18.328125 29.015625 C 18.328125 30.4375 19.375 31.585938 20.671875 31.585938 L 25.359375 31.585938 C 28.601562 31.585938 31.214844 28.71875 31.214844 25.164062 C 31.214844 21.605469 28.601562 18.742188 25.359375 18.742188 L 23.601562 18.742188 C 22.625 18.742188 21.84375 17.882812 21.84375 16.820312 C 21.84375 15.75 22.625 14.890625 23.601562 14.890625 L 30.042969 14.890625 L 30.042969 13.609375 C 30.042969 12.1875 29 11.039062 27.703125 11.039062 Z M 0.757812 12.324219 C 7.785156 16.175781 5.441406 25.164062 12.46875 25.164062 L 17.742188 25.164062 C 11.296875 21.3125 15.398438 12.324219 9.542969 12.324219 Z M 0.757812 12.324219 "/></g></svg>
