<svg width="64" height="64" viewBox="0 0 64 64" version="1.1"><defs><linearGradient id="linear-pattern-0" gradientUnits="userSpaceOnUse" x1="0" y1="0" x2="0" y2="1" gradientTransform="matrix(60, 0, 0, 56, 0, 4)"><stop offset="0" stop-color="#8900e4" stop-opacity="1"/><stop offset="1" stop-color="#42006e" stop-opacity="1"/></linearGradient></defs><path fill="url(#linear-pattern-0)" fill-opacity="1" d="M 36.21875 2.050781 L 62.027344 27.605469 C 64.402344 29.957031 64.417969 33.785156 62.058594 36.15625 L 36.460938 61.917969 C 34.105469 64.289062 30.269531 64.304688 27.894531 61.949219 L 2.085938 36.394531 C -0.289062 34.042969 -0.304688 30.214844 2.050781 27.84375 L 27.652344 2.082031 C 30.007812 -0.289062 33.84375 -0.304688 36.21875 2.050781 Z M 36.21875 2.050781 " /><g transform="matrix(1.0075098,0,0,1.0032698,16.221436,16.077397)"><path fill-rule="nonzero" fill="rgb(100%, 100%, 100%)" fill-opacity="1" d="M 10.742188 5.34375 C 10.03125 5.382812 9.335938 5.515625 8.929688 5.734375 C 7.554688 6.480469 6.535156 7.453125 6.25 9.042969 C 6.171875 9.457031 6.066406 9.847656 6.007812 9.90625 C 5.953125 9.96875 5.679688 9.945312 5.398438 9.867188 C 4.75 9.679688 3.820312 9.898438 3.023438 10.421875 C 2.398438 10.835938 1.8125 12.25 1.664062 13.132812 C 1.578125 13.625 1.546875 13.296875 1.054688 13.296875 C 0.65625 13.296875 0.476562 13.378906 0.257812 13.660156 C -0.101562 14.140625 -0.0859375 14.390625 0.3125 14.804688 C 0.636719 15.140625 0.664062 15.148438 3.078125 15.144531 C 3.976562 15.144531 4.648438 15.117188 5.117188 15.089844 C 5.382812 14.523438 5.730469 13.984375 6.195312 13.5 C 8.171875 11.445312 11.222656 11.136719 13.617188 12.457031 C 14.214844 11.410156 14.953125 10.507812 15.839844 9.828125 C 15.835938 9.71875 15.722656 9.257812 15.578125 8.777344 C 15.109375 7.234375 14.09375 6.125 12.617188 5.546875 C 12.164062 5.367188 11.445312 5.308594 10.742188 5.34375 Z M 21.285156 9.785156 C 19.875 9.761719 18.414062 10.179688 17.128906 11.070312 C 15.898438 11.917969 15.023438 12.882812 14.554688 14.421875 C 14.429688 14.835938 14.273438 15.175781 14.203125 15.175781 C 14.132812 15.175781 13.875 14.722656 13.625 14.492188 C 11.851562 12.875 9.164062 12.976562 7.476562 14.734375 C 6.21875 16.039062 5.992188 18.320312 6.628906 20.054688 C 6.695312 20.238281 6.09375 20.382812 5.476562 20.707031 C 4.546875 21.195312 3.941406 21.890625 3.714844 22.738281 C 3.304688 24.265625 4.484375 25.890625 6.101562 26.488281 C 6.773438 26.742188 8.078125 26.722656 8.855469 26.449219 C 9.429688 26.25 10 25.722656 13.453125 22.15625 C 18.007812 17.460938 18.179688 16.890625 20.046875 16.882812 C 20.988281 16.882812 21.664062 16.933594 22.445312 17.335938 C 23.515625 17.882812 24.296875 19.195312 24.679688 20.253906 C 25.03125 21.242188 25.039062 22.4375 24.6875 23.035156 C 24.382812 23.558594 23.273438 24.046875 22.675781 24.046875 C 22.085938 24.046875 21.085938 23.527344 20.84375 23 C 20.453125 22.09375 20.398438 21.234375 21.335938 20.445312 C 19.476562 20.492188 19.257812 21.179688 18.667969 23.304688 C 18.667969 24.769531 19.410156 26.179688 20.632812 26.554688 C 20.933594 26.648438 22.601562 26.683594 25.171875 26.65625 C 29.046875 26.613281 29.261719 26.59375 29.769531 26.3125 C 30.515625 25.890625 31.371094 24.929688 31.703125 24.140625 C 32.039062 23.355469 32.097656 21.851562 31.835938 21.023438 C 31.34375 19.582031 29.078125 18.023438 27.640625 19 C 27.390625 19.289062 27.148438 19.039062 27.101562 18.992188 C 27.058594 18.945312 27.300781 18.726562 27.421875 18.289062 C 27.585938 17.703125 27.632812 17.125 27.59375 16.09375 C 27.546875 14.78125 27.507812 14.609375 26.984375 13.5 C 25.867188 11.105469 23.640625 9.828125 21.285156 9.785156 Z M 21.285156 9.785156 "/></g></svg>
