<svg width="64" height="64" viewBox="0 0 64 64" version="1.1"><defs><linearGradient id="linear-pattern-0" gradientUnits="userSpaceOnUse" x1="0" y1="0" x2="0" y2="1" gradientTransform="matrix(60, 0, 0, 56, 0, 4)"><stop offset="0" stop-color="#c10000" stop-opacity="1"/><stop offset="1" stop-color="#5f0000" stop-opacity="1"/></linearGradient></defs><path fill="url(#linear-pattern-0)" fill-opacity="1" d="M 36.21875 2.050781 L 62.027344 27.605469 C 64.402344 29.957031 64.417969 33.785156 62.058594 36.15625 L 36.460938 61.917969 C 34.105469 64.289062 30.269531 64.304688 27.894531 61.949219 L 2.085938 36.394531 C -0.289062 34.042969 -0.304688 30.214844 2.050781 27.84375 L 27.652344 2.082031 C 30.007812 -0.289062 33.84375 -0.304688 36.21875 2.050781 Z M 36.21875 2.050781 " /><g transform="matrix(1.0075098,0,0,1.0032698,16.221436,16.077397)"><path fill-rule="nonzero" fill="rgb(100%, 100%, 100%)" fill-opacity="1" d="M 15.6875 1.410156 C 12.664062 2.617188 11.148438 4.429688 11.148438 5.632812 C 11.148438 11.070312 29.320312 9.859375 29.320312 20.726562 C 29.320312 25.554688 23.261719 30.386719 18.71875 30.386719 C 21.75 29.179688 23.261719 27.367188 23.261719 26.160156 C 23.261719 20.726562 5.09375 21.9375 5.09375 11.070312 C 5.09375 6.238281 11.148438 1.410156 15.6875 1.410156 Z M 15.6875 1.410156 "/></g></svg>
