<svg width="64" height="64" viewBox="0 0 64 64" version="1.1"><defs><linearGradient id="linear-pattern-0" gradientUnits="userSpaceOnUse" x1="0" y1="0" x2="0" y2="1" gradientTransform="matrix(60, 0, 0, 56, 0, 4)"><stop offset="0" stop-color="#7795ab" stop-opacity="1"/><stop offset="1" stop-color="#3b4f5f" stop-opacity="1"/></linearGradient></defs><path fill="url(#linear-pattern-0)" fill-opacity="1" d="M 36.21875 2.050781 L 62.027344 27.605469 C 64.402344 29.957031 64.417969 33.785156 62.058594 36.15625 L 36.460938 61.917969 C 34.105469 64.289062 30.269531 64.304688 27.894531 61.949219 L 2.085938 36.394531 C -0.289062 34.042969 -0.304688 30.214844 2.050781 27.84375 L 27.652344 2.082031 C 30.007812 -0.289062 33.84375 -0.304688 36.21875 2.050781 Z M 36.21875 2.050781 " /><g transform="matrix(1.0075098,0,0,1.0032698,16.221436,16.077397)"><path fill-rule="evenodd" fill="rgb(100%, 100%, 100%)" fill-opacity="1" d="M 9.714844 24.859375 C 9.714844 24.070312 10.351562 23.429688 11.140625 23.429688 C 11.929688 23.429688 12.570312 24.070312 12.570312 24.859375 C 12.570312 25.648438 11.929688 26.285156 11.140625 26.285156 C 10.351562 26.285156 9.714844 25.648438 9.714844 24.859375 Z M 5.714844 24.859375 C 5.714844 24.070312 6.351562 23.429688 7.140625 23.429688 C 7.929688 23.429688 8.570312 24.070312 8.570312 24.859375 C 8.570312 25.648438 7.929688 26.285156 7.140625 26.285156 C 6.351562 26.285156 5.714844 25.648438 5.714844 24.859375 Z M 1.714844 24.859375 C 1.714844 24.070312 2.351562 23.429688 3.140625 23.429688 C 3.929688 23.429688 4.570312 24.070312 4.570312 24.859375 C 4.570312 25.648438 3.929688 26.285156 3.140625 26.285156 C 2.351562 26.285156 1.714844 25.648438 1.714844 24.859375 Z M 5.714844 14 C 5.714844 13.210938 6.351562 12.570312 7.140625 12.570312 C 7.929688 12.570312 8.570312 13.210938 8.570312 14 C 8.570312 14.789062 7.929688 15.429688 7.140625 15.429688 C 6.351562 15.429688 5.714844 14.789062 5.714844 14 Z M 1.714844 14 C 1.714844 13.210938 2.351562 12.570312 3.140625 12.570312 C 3.929688 12.570312 4.570312 13.210938 4.570312 14 C 4.570312 14.789062 3.929688 15.429688 3.140625 15.429688 C 2.351562 15.429688 1.714844 14.789062 1.714844 14 Z M 0 18.417969 L 0 13.582031 C 0 12.078125 1.222656 10.859375 2.726562 10.859375 L 29.273438 10.859375 C 30.777344 10.859375 32 12.078125 32 13.582031 L 32 18.417969 C 32 19.921875 30.777344 21.140625 29.273438 21.140625 L 2.726562 21.140625 C 1.222656 21.140625 0 19.921875 0 18.417969 Z M 0 29.273438 L 0 24.4375 C 0 22.9375 1.222656 21.714844 2.726562 21.714844 L 29.273438 21.714844 C 30.777344 21.714844 32 22.9375 32 24.4375 L 32 29.273438 C 32 30.777344 30.777344 32 29.273438 32 L 2.726562 32 C 1.222656 32 0 30.777344 0 29.273438 Z M 1.714844 3.140625 C 1.714844 2.351562 2.351562 1.714844 3.140625 1.714844 C 3.929688 1.714844 4.570312 2.351562 4.570312 3.140625 C 4.570312 3.929688 3.929688 4.570312 3.140625 4.570312 C 2.351562 4.570312 1.714844 3.929688 1.714844 3.140625 Z M 0 7.5625 L 0 2.726562 C 0 1.222656 1.222656 0 2.726562 0 L 29.273438 0 C 30.777344 0 32 1.222656 32 2.726562 L 32 7.5625 C 32 9.0625 30.777344 10.285156 29.273438 10.285156 L 2.726562 10.285156 C 1.222656 10.285156 0 9.0625 0 7.5625 Z M 0 7.5625 "/></g></svg>
