<svg width="64" height="64" viewBox="0 0 64 64" version="1.1"><defs><linearGradient id="linear-pattern-0" gradientUnits="userSpaceOnUse" x1="0" y1="0" x2="0" y2="1" gradientTransform="matrix(60, 0, 0, 56, 0, 4)"><stop offset="0" stop-color="#3067ff" stop-opacity="1"/><stop offset="1" stop-color="#002ca6" stop-opacity="1"/></linearGradient></defs><path fill="url(#linear-pattern-0)" fill-opacity="1" d="M 36.21875 2.050781 L 62.027344 27.605469 C 64.402344 29.957031 64.417969 33.785156 62.058594 36.15625 L 36.460938 61.917969 C 34.105469 64.289062 30.269531 64.304688 27.894531 61.949219 L 2.085938 36.394531 C -0.289062 34.042969 -0.304688 30.214844 2.050781 27.84375 L 27.652344 2.082031 C 30.007812 -0.289062 33.84375 -0.304688 36.21875 2.050781 Z M 36.21875 2.050781 " /><g transform="matrix(1.0075098,0,0,1.0032698,16.221436,16.077397)"><path fill-rule="nonzero" fill="rgb(100%, 100%, 100%)" fill-opacity="1" d="M 14.84375 1.085938 C 14.625 1.085938 14.445312 1.257812 14.445312 1.472656 C 14.445312 1.6875 14.625 1.859375 14.84375 1.859375 C 15.066406 1.859375 15.25 1.6875 15.25 1.472656 C 15.25 1.257812 15.066406 1.085938 14.84375 1.085938 Z M 9.242188 2.632812 C 9.019531 2.632812 8.835938 2.804688 8.835938 3.015625 C 8.835938 3.230469 9.019531 3.40625 9.242188 3.40625 C 9.460938 3.40625 9.640625 3.230469 9.640625 3.015625 C 9.640625 2.804688 9.460938 2.632812 9.242188 2.632812 Z M 17.25 3.40625 C 17.03125 3.40625 16.851562 3.578125 16.851562 3.789062 C 16.851562 4.003906 17.03125 4.175781 17.25 4.175781 C 17.46875 4.175781 17.648438 4.003906 17.648438 3.789062 C 17.648438 3.578125 17.46875 3.40625 17.25 3.40625 Z M 14.046875 5.71875 C 13.828125 5.71875 13.644531 5.890625 13.644531 6.105469 C 13.644531 6.320312 13.828125 6.492188 14.046875 6.492188 C 14.265625 6.492188 14.445312 6.320312 14.445312 6.105469 C 14.445312 5.890625 14.265625 5.71875 14.046875 5.71875 Z M 25.261719 5.71875 C 25.039062 5.71875 24.859375 5.890625 24.859375 6.105469 C 24.859375 6.320312 25.039062 6.492188 25.261719 6.492188 C 25.484375 6.492188 25.664062 6.320312 25.664062 6.105469 C 25.664062 5.890625 25.484375 5.71875 25.261719 5.71875 Z M 6.039062 6.492188 C 5.8125 6.492188 5.632812 6.664062 5.632812 6.878906 C 5.632812 7.09375 5.8125 7.265625 6.039062 7.265625 C 6.257812 7.265625 6.4375 7.09375 6.4375 6.878906 C 6.4375 6.664062 6.257812 6.492188 6.039062 6.492188 Z M 9.242188 6.492188 C 9.019531 6.492188 8.835938 6.664062 8.835938 6.878906 C 8.835938 7.09375 9.019531 7.265625 9.242188 7.265625 C 9.460938 7.265625 9.640625 7.09375 9.640625 6.878906 C 9.640625 6.664062 9.460938 6.492188 9.242188 6.492188 Z M 20.453125 7.265625 C 20.234375 7.265625 20.054688 7.4375 20.054688 7.648438 C 20.054688 7.863281 20.234375 8.039062 20.453125 8.039062 C 20.675781 8.039062 20.855469 7.863281 20.855469 7.648438 C 20.855469 7.4375 20.675781 7.265625 20.453125 7.265625 Z M 2.03125 8.808594 C 1.808594 8.808594 1.628906 8.980469 1.628906 9.195312 C 1.628906 9.40625 1.808594 9.578125 2.03125 9.578125 C 2.25 9.578125 2.429688 9.40625 2.429688 9.195312 C 2.429688 8.980469 2.25 8.808594 2.03125 8.808594 Z M 13.246094 9.578125 C 13.023438 9.578125 12.84375 9.753906 12.84375 9.96875 C 12.84375 10.179688 13.023438 10.351562 13.246094 10.351562 C 13.46875 10.351562 13.644531 10.179688 13.644531 9.96875 C 13.644531 9.753906 13.46875 9.578125 13.246094 9.578125 Z M 26.863281 9.578125 C 26.640625 9.578125 26.460938 9.753906 26.460938 9.96875 C 26.460938 10.179688 26.640625 10.351562 26.863281 10.351562 C 27.085938 10.351562 27.265625 10.179688 27.265625 9.96875 C 27.265625 9.753906 27.085938 9.578125 26.863281 9.578125 Z M 4.433594 10.351562 C 4.210938 10.351562 4.03125 10.523438 4.03125 10.738281 C 4.03125 10.953125 4.210938 11.125 4.433594 11.125 C 4.65625 11.125 4.835938 10.953125 4.835938 10.738281 C 4.835938 10.523438 4.65625 10.351562 4.433594 10.351562 Z M 17.25 10.351562 C 17.03125 10.351562 16.851562 10.523438 16.851562 10.738281 C 16.851562 10.953125 17.03125 11.125 17.25 11.125 C 17.46875 11.125 17.648438 10.953125 17.648438 10.738281 C 17.648438 10.523438 17.46875 10.351562 17.25 10.351562 Z M 23.09375 10.355469 C 21.648438 10.351562 19.867188 10.714844 17.9375 11.40625 C 17.324219 11.222656 16.6875 11.128906 16.042969 11.125 C 13.671875 11.128906 11.496094 12.394531 10.386719 14.414062 C 10.316406 14.296875 10.195312 14.210938 10.039062 14.210938 C 9.820312 14.210938 9.640625 14.386719 9.640625 14.601562 C 9.640625 14.8125 9.820312 14.984375 10.039062 14.984375 C 10.070312 14.984375 10.09375 14.976562 10.117188 14.96875 C 9.972656 15.308594 9.859375 15.65625 9.78125 16.015625 C 6.496094 18.710938 4.972656 21.457031 5.894531 23.019531 C 6.832031 24.59375 10.070312 24.667969 14.148438 23.210938 C 14.761719 23.390625 15.398438 23.484375 16.042969 23.484375 C 19.0625 23.484375 21.671875 21.445312 22.304688 18.597656 C 25.589844 15.902344 27.109375 13.15625 26.191406 11.59375 C 25.71875 10.796875 24.640625 10.367188 23.09375 10.355469 Z M 8.4375 11.125 C 8.21875 11.125 8.039062 11.296875 8.039062 11.511719 C 8.039062 11.726562 8.21875 11.898438 8.4375 11.898438 C 8.660156 11.898438 8.835938 11.726562 8.835938 11.511719 C 8.835938 11.296875 8.660156 11.125 8.4375 11.125 Z M 29.265625 11.125 C 29.046875 11.125 28.867188 11.296875 28.867188 11.511719 C 28.867188 11.726562 29.046875 11.898438 29.265625 11.898438 C 29.484375 11.898438 29.667969 11.726562 29.667969 11.511719 C 29.667969 11.296875 29.484375 11.125 29.265625 11.125 Z M 20.664062 12.710938 C 21.554688 12.679688 22.15625 12.886719 22.40625 13.304688 C 22.65625 13.734375 22.523438 14.367188 22.03125 15.121094 C 21.671875 14.207031 21.089844 13.386719 20.335938 12.734375 C 20.453125 12.722656 20.558594 12.710938 20.664062 12.710938 Z M 2.828125 14.210938 C 2.609375 14.210938 2.429688 14.386719 2.429688 14.601562 C 2.429688 14.8125 2.609375 14.984375 2.828125 14.984375 C 3.050781 14.984375 3.234375 14.8125 3.234375 14.601562 C 3.234375 14.386719 3.050781 14.210938 2.828125 14.210938 Z M 27.664062 14.210938 C 27.445312 14.210938 27.265625 14.386719 27.265625 14.601562 C 27.265625 14.8125 27.445312 14.984375 27.664062 14.984375 C 27.886719 14.984375 28.0625 14.8125 28.0625 14.601562 C 28.0625 14.386719 27.886719 14.210938 27.664062 14.210938 Z M 30.867188 15.757812 C 30.648438 15.757812 30.46875 15.929688 30.46875 16.144531 C 30.46875 16.359375 30.648438 16.53125 30.867188 16.53125 C 31.089844 16.53125 31.269531 16.359375 31.269531 16.144531 C 31.269531 15.929688 31.089844 15.757812 30.867188 15.757812 Z M 6.039062 16.53125 C 5.8125 16.53125 5.632812 16.703125 5.632812 16.914062 C 5.632812 17.128906 5.8125 17.304688 6.039062 17.304688 C 6.257812 17.304688 6.4375 17.128906 6.4375 16.914062 C 6.4375 16.703125 6.257812 16.53125 6.039062 16.53125 Z M 1.230469 17.304688 C 1.007812 17.304688 0.828125 17.476562 0.828125 17.6875 C 0.828125 17.902344 1.007812 18.074219 1.230469 18.074219 C 1.453125 18.074219 1.628906 17.902344 1.628906 17.6875 C 1.628906 17.476562 1.453125 17.304688 1.230469 17.304688 Z M 9.800781 18.6875 C 10.023438 19.640625 10.484375 20.523438 11.132812 21.273438 C 10.199219 21.320312 9.5625 21.113281 9.304688 20.683594 C 9.03125 20.21875 9.203125 19.523438 9.800781 18.6875 Z M 2.03125 20.390625 C 1.808594 20.390625 1.628906 20.5625 1.628906 20.78125 C 1.628906 20.992188 1.808594 21.164062 2.03125 21.164062 C 2.25 21.164062 2.429688 20.992188 2.429688 20.78125 C 2.429688 20.5625 2.25 20.390625 2.03125 20.390625 Z M 29.265625 20.390625 C 29.046875 20.390625 28.867188 20.5625 28.867188 20.78125 C 28.867188 20.992188 29.046875 21.164062 29.265625 21.164062 C 29.484375 21.164062 29.667969 20.992188 29.667969 20.78125 C 29.667969 20.5625 29.484375 20.390625 29.265625 20.390625 Z M 26.0625 21.164062 C 25.84375 21.164062 25.664062 21.335938 25.664062 21.546875 C 25.664062 21.761719 25.84375 21.9375 26.0625 21.9375 C 26.28125 21.9375 26.460938 21.761719 26.460938 21.546875 C 26.460938 21.335938 26.28125 21.164062 26.0625 21.164062 Z M 4.433594 21.9375 C 4.210938 21.9375 4.03125 22.109375 4.03125 22.320312 C 4.03125 22.539062 4.210938 22.710938 4.433594 22.710938 C 4.65625 22.710938 4.832031 22.539062 4.832031 22.320312 C 4.832031 22.109375 4.65625 21.9375 4.433594 21.9375 Z M 22.859375 21.9375 C 22.636719 21.9375 22.457031 22.109375 22.457031 22.320312 C 22.457031 22.539062 22.636719 22.710938 22.859375 22.710938 C 23.078125 22.710938 23.257812 22.539062 23.257812 22.320312 C 23.257812 22.109375 23.078125 21.9375 22.859375 21.9375 Z M 14.046875 25.023438 C 13.828125 25.023438 13.644531 25.195312 13.644531 25.414062 C 13.644531 25.625 13.828125 25.796875 14.046875 25.796875 C 14.265625 25.796875 14.445312 25.625 14.445312 25.414062 C 14.445312 25.195312 14.265625 25.023438 14.046875 25.023438 Z M 18.050781 25.023438 C 17.828125 25.023438 17.648438 25.195312 17.648438 25.414062 C 17.648438 25.625 17.828125 25.796875 18.050781 25.796875 C 18.273438 25.796875 18.453125 25.625 18.453125 25.414062 C 18.453125 25.195312 18.273438 25.023438 18.050781 25.023438 Z M 5.234375 25.796875 C 5.015625 25.796875 4.832031 25.96875 4.832031 26.183594 C 4.832031 26.398438 5.015625 26.570312 5.234375 26.570312 C 5.453125 26.570312 5.632812 26.398438 5.632812 26.183594 C 5.632812 25.96875 5.453125 25.796875 5.234375 25.796875 Z M 10.039062 25.796875 C 9.820312 25.796875 9.640625 25.96875 9.640625 26.183594 C 9.640625 26.398438 9.820312 26.570312 10.039062 26.570312 C 10.257812 26.570312 10.441406 26.398438 10.441406 26.183594 C 10.441406 25.96875 10.257812 25.796875 10.039062 25.796875 Z M 26.863281 25.796875 C 26.640625 25.796875 26.460938 25.96875 26.460938 26.183594 C 26.460938 26.398438 26.640625 26.570312 26.863281 26.570312 C 27.085938 26.570312 27.265625 26.398438 27.265625 26.183594 C 27.265625 25.96875 27.085938 25.796875 26.863281 25.796875 Z M 22.859375 27.34375 C 22.636719 27.34375 22.457031 27.515625 22.457031 27.726562 C 22.457031 27.941406 22.636719 28.113281 22.859375 28.113281 C 23.078125 28.113281 23.257812 27.941406 23.257812 27.726562 C 23.257812 27.515625 23.078125 27.34375 22.859375 27.34375 Z M 14.84375 28.886719 C 14.625 28.886719 14.445312 29.058594 14.445312 29.273438 C 14.445312 29.484375 14.625 29.65625 14.84375 29.65625 C 15.066406 29.65625 15.25 29.484375 15.25 29.273438 C 15.25 29.058594 15.066406 28.886719 14.84375 28.886719 Z M 9.242188 29.65625 C 9.019531 29.65625 8.835938 29.828125 8.835938 30.046875 C 8.835938 30.257812 9.019531 30.429688 9.242188 30.429688 C 9.460938 30.429688 9.640625 30.257812 9.640625 30.046875 C 9.640625 29.828125 9.460938 29.65625 9.242188 29.65625 Z M 18.851562 30.429688 C 18.632812 30.429688 18.453125 30.601562 18.453125 30.816406 C 18.453125 31.03125 18.632812 31.203125 18.851562 31.203125 C 19.074219 31.203125 19.25 31.03125 19.25 30.816406 C 19.25 30.601562 19.074219 30.429688 18.851562 30.429688 Z M 18.851562 30.429688 "/></g></svg>
