<svg width="64" height="64" viewBox="0 0 64 64" version="1.1"><defs><linearGradient id="linear-pattern-0" gradientUnits="userSpaceOnUse" x1="0" y1="0" x2="0" y2="1" gradientTransform="matrix(60, 0, 0, 56, 0, 4)"><stop offset="0" stop-color="#0288cf" stop-opacity="1"/><stop offset="1" stop-color="#01486e" stop-opacity="1"/></linearGradient></defs><path fill="url(#linear-pattern-0)" fill-opacity="1" d="M 36.21875 2.050781 L 62.027344 27.605469 C 64.402344 29.957031 64.417969 33.785156 62.058594 36.15625 L 36.460938 61.917969 C 34.105469 64.289062 30.269531 64.304688 27.894531 61.949219 L 2.085938 36.394531 C -0.289062 34.042969 -0.304688 30.214844 2.050781 27.84375 L 27.652344 2.082031 C 30.007812 -0.289062 33.84375 -0.304688 36.21875 2.050781 Z M 36.21875 2.050781 " /><g transform="matrix(1.0075098,0,0,1.0032698,16.221436,16.077397)"><path fill-rule="nonzero" fill="rgb(100%, 100%, 100%)" fill-opacity="1" d="M 3.53125 19.46875 C 2.835938 19.46875 2.273438 20.113281 2.273438 20.910156 C 2.273438 21.703125 2.835938 22.351562 3.53125 22.351562 C 4.226562 22.351562 4.789062 21.703125 4.789062 20.910156 C 4.789062 20.113281 4.226562 19.46875 3.53125 19.46875 Z M 9.832031 19.46875 C 9.136719 19.46875 8.570312 20.113281 8.570312 20.910156 C 8.570312 21.703125 9.136719 22.351562 9.832031 22.351562 C 10.527344 22.351562 11.09375 21.703125 11.09375 20.910156 C 11.09375 20.113281 10.527344 19.46875 9.832031 19.46875 Z M 16.132812 19.46875 C 15.4375 19.46875 14.875 20.113281 14.875 20.910156 C 14.875 21.703125 15.4375 22.351562 16.132812 22.351562 C 16.828125 22.351562 17.394531 21.703125 17.394531 20.910156 C 17.394531 20.113281 16.828125 19.46875 16.132812 19.46875 Z M 22.433594 19.46875 C 21.738281 19.46875 21.175781 20.113281 21.175781 20.910156 C 21.175781 21.703125 21.738281 22.351562 22.433594 22.351562 C 23.132812 22.351562 23.695312 21.703125 23.695312 20.910156 C 23.695312 20.113281 23.132812 19.46875 22.433594 19.46875 Z M 28.734375 19.46875 C 28.039062 19.46875 27.476562 20.113281 27.476562 20.910156 C 27.476562 21.703125 28.039062 22.351562 28.734375 22.351562 C 29.429688 22.351562 29.992188 21.703125 29.992188 20.910156 C 29.992188 20.113281 29.429688 19.46875 28.734375 19.46875 Z M 6.050781 25.230469 C 5.355469 25.230469 4.789062 25.875 4.789062 26.671875 C 4.789062 27.46875 5.355469 28.113281 6.050781 28.113281 C 6.75 28.113281 7.3125 27.46875 7.3125 26.671875 C 7.3125 25.875 6.75 25.230469 6.050781 25.230469 Z M 12.351562 25.230469 C 11.65625 25.230469 11.09375 25.875 11.09375 26.671875 C 11.09375 27.46875 11.65625 28.113281 12.351562 28.113281 C 13.046875 28.113281 13.613281 27.46875 13.613281 26.671875 C 13.613281 25.875 13.046875 25.230469 12.351562 25.230469 Z M 18.65625 25.230469 C 17.957031 25.230469 17.394531 25.875 17.394531 26.671875 C 17.394531 27.46875 17.957031 28.113281 18.65625 28.113281 C 19.351562 28.113281 19.914062 27.46875 19.914062 26.671875 C 19.914062 25.875 19.351562 25.230469 18.65625 25.230469 Z M 24.953125 25.230469 C 24.257812 25.230469 23.695312 25.875 23.695312 26.671875 C 23.695312 27.46875 24.257812 28.113281 24.953125 28.113281 C 25.652344 28.113281 26.214844 27.46875 26.214844 26.671875 C 26.214844 25.875 25.652344 25.230469 24.953125 25.230469 Z M 24.953125 25.230469 "/><path fill-rule="nonzero" fill="rgb(100%, 100%, 100%)" fill-opacity="1" d="M 19.742188 5.25 C 18.828125 5.242188 18.050781 5.859375 17.386719 6.820312 C 16.929688 7.488281 16.492188 8.367188 16.0625 9.429688 C 15.640625 8.367188 15.203125 7.496094 14.742188 6.828125 C 14.082031 5.875 13.304688 5.253906 12.390625 5.253906 C 11.472656 5.253906 10.679688 5.851562 9.945312 6.804688 C 9.386719 7.523438 8.835938 8.480469 8.273438 9.679688 C 7.71875 8.492188 7.171875 7.554688 6.621094 6.84375 C 5.882812 5.894531 5.089844 5.296875 4.171875 5.296875 C 3.253906 5.296875 2.476562 5.914062 1.820312 6.875 C 1.359375 7.53125 0.929688 8.398438 0.507812 9.445312 L 0.507812 12.828125 C 0.929688 13.882812 1.359375 14.746094 1.820312 15.40625 C 2.476562 16.367188 3.253906 16.984375 4.171875 16.984375 C 5.089844 16.984375 5.882812 16.382812 6.621094 15.429688 C 7.171875 14.71875 7.71875 13.777344 8.273438 12.59375 C 8.835938 13.796875 9.386719 14.75 9.945312 15.476562 C 10.679688 16.421875 11.472656 17.023438 12.390625 17.023438 C 13.304688 17.023438 14.082031 16.402344 14.742188 15.445312 C 15.203125 14.78125 15.640625 13.90625 16.0625 12.847656 C 16.492188 13.914062 16.929688 14.789062 17.386719 15.453125 C 18.050781 16.414062 18.828125 17.035156 19.742188 17.023438 C 20.660156 17.015625 21.445312 16.398438 22.175781 15.445312 C 22.714844 14.734375 23.257812 13.726562 23.804688 12.5625 C 24.375 13.777344 24.929688 14.746094 25.492188 15.472656 C 26.226562 16.421875 27.023438 17.023438 27.9375 17.023438 C 28.855469 17.023438 29.632812 16.40625 30.292969 15.445312 C 30.75 14.789062 31.179688 13.921875 31.601562 12.871094 L 31.601562 9.398438 C 31.179688 8.351562 30.75 7.484375 30.292969 6.828125 C 29.632812 5.867188 28.855469 5.25 27.9375 5.25 C 27.023438 5.25 26.226562 5.851562 25.492188 6.800781 C 24.929688 7.527344 24.375 8.5 23.804688 9.710938 C 23.257812 8.550781 22.714844 7.539062 22.175781 6.828125 C 21.445312 5.875 20.660156 5.257812 19.742188 5.25 Z M 19.734375 6.421875 C 20.078125 6.429688 20.59375 6.714844 21.21875 7.535156 C 21.8125 8.3125 22.46875 9.542969 23.160156 11.140625 C 22.46875 12.734375 21.8125 13.964844 21.21875 14.742188 C 20.59375 15.5625 20.078125 15.847656 19.734375 15.851562 C 19.386719 15.851562 18.929688 15.601562 18.375 14.796875 C 17.84375 14.023438 17.273438 12.789062 16.695312 11.140625 C 17.273438 9.488281 17.84375 8.253906 18.375 7.476562 C 18.929688 6.671875 19.386719 6.417969 19.734375 6.421875 Z M 27.9375 6.421875 C 28.296875 6.421875 28.75 6.683594 29.304688 7.488281 C 29.839844 8.261719 30.40625 9.492188 30.976562 11.140625 C 30.40625 12.78125 29.839844 14.015625 29.304688 14.789062 C 28.75 15.59375 28.296875 15.851562 27.9375 15.851562 C 27.585938 15.851562 27.074219 15.578125 26.445312 14.761719 C 25.84375 13.992188 25.175781 12.753906 24.476562 11.132812 C 25.175781 9.519531 25.84375 8.285156 26.445312 7.511719 C 27.074219 6.703125 27.585938 6.421875 27.9375 6.421875 Z M 12.390625 6.425781 C 12.746094 6.425781 13.203125 6.683594 13.757812 7.488281 C 14.289062 8.257812 14.859375 9.5 15.429688 11.136719 C 14.859375 12.773438 14.289062 14.015625 13.757812 14.789062 C 13.203125 15.589844 12.746094 15.851562 12.390625 15.851562 C 12.039062 15.851562 11.527344 15.570312 10.898438 14.757812 C 10.300781 13.988281 9.632812 12.753906 8.933594 11.132812 C 9.632812 9.519531 10.300781 8.285156 10.898438 7.511719 C 11.527344 6.703125 12.039062 6.421875 12.390625 6.421875 Z M 4.175781 6.46875 C 4.53125 6.46875 5.039062 6.742188 5.671875 7.554688 C 6.265625 8.320312 6.925781 9.546875 7.617188 11.140625 C 6.925781 12.734375 6.265625 13.953125 5.671875 14.722656 C 5.039062 15.53125 4.53125 15.8125 4.175781 15.8125 C 3.820312 15.8125 3.367188 15.550781 2.8125 14.75 C 2.28125 13.980469 1.71875 12.761719 1.15625 11.140625 C 1.71875 9.519531 2.28125 8.296875 2.8125 7.53125 C 3.367188 6.726562 3.820312 6.46875 4.175781 6.46875 Z M 4.175781 6.46875 "/></g></svg>
