<svg width="64" height="64" viewBox="0 0 64 64" version="1.1"><defs><linearGradient id="linear-pattern-0" gradientUnits="userSpaceOnUse" x1="0" y1="0" x2="0" y2="1" gradientTransform="matrix(60, 0, 0, 56, 0, 4)"><stop offset="0" stop-color="#6926fc" stop-opacity="1"/><stop offset="1" stop-color="#3702ab" stop-opacity="1"/></linearGradient></defs><path fill="url(#linear-pattern-0)" fill-opacity="1" d="M 36.21875 2.050781 L 62.027344 27.605469 C 64.402344 29.957031 64.417969 33.785156 62.058594 36.15625 L 36.460938 61.917969 C 34.105469 64.289062 30.269531 64.304688 27.894531 61.949219 L 2.085938 36.394531 C -0.289062 34.042969 -0.304688 30.214844 2.050781 27.84375 L 27.652344 2.082031 C 30.007812 -0.289062 33.84375 -0.304688 36.21875 2.050781 Z M 36.21875 2.050781 " /><g transform="matrix(1.0075098,0,0,1.0032698,16.221436,16.077397)"><path fill-rule="nonzero" fill="rgb(100%, 100%, 100%)" fill-opacity="1" d="M 23.742188 5.007812 C 23.054688 5.121094 22.890625 5.539062 22.679688 6.089844 C 22.519531 6.609375 22.351562 7.3125 22.265625 8.171875 C 22.085938 9.894531 21.960938 12.164062 21.867188 14.464844 C 21.777344 16.765625 21.679688 19.066406 21.453125 20.777344 C 21.335938 21.632812 21.210938 22.390625 21.035156 22.859375 C 20.6875 22.820312 20.546875 21.726562 20.492188 21.359375 C 20.296875 20.007812 20.28125 18.210938 20.203125 16.382812 C 20.125 14.550781 19.988281 12.714844 19.785156 11.320312 C 19.683594 10.621094 19.5625 10.015625 19.367188 9.570312 C 19.269531 9.34375 19.164062 9.152344 18.992188 8.984375 C 18.8125 8.820312 18.585938 8.652344 18.15625 8.652344 C 17.828125 8.652344 17.410156 8.777344 17.199219 8.902344 C 16.992188 9.027344 16.898438 9.160156 16.78125 9.320312 C 16.554688 9.640625 16.472656 10.023438 16.367188 10.484375 C 16.15625 11.414062 16.023438 12.609375 15.949219 13.796875 C 15.878906 14.988281 15.84375 16.1875 15.65625 17.046875 C 15.449219 17.742188 15.140625 18.375 14.695312 17.714844 C 14.539062 17.328125 14.453125 16.734375 14.402344 16.132812 C 14.351562 15.53125 14.390625 14.898438 14.152344 14.382812 C 14.03125 14.125 13.875 13.914062 13.570312 13.714844 C 13.261719 13.519531 12.6875 13.390625 12.195312 13.402344 C 11.59375 13.429688 11.234375 13.679688 10.984375 13.964844 C 10.738281 14.25 10.53125 14.578125 10.421875 14.964844 C 10.203125 15.738281 10.210938 16.753906 10.148438 17.714844 C 10.09375 18.679688 10.03125 19.609375 9.859375 20.277344 C 9.324219 21.609375 8.972656 19.714844 8.898438 19.277344 C 8.6875 17.992188 8.59375 16.28125 8.5 14.546875 C 8.40625 12.8125 8.40625 11.054688 8.210938 9.734375 C 8.109375 9.078125 7.972656 8.511719 7.792969 8.089844 C 7.507812 7.546875 7.15625 7.15625 6.585938 7.171875 C 5.324219 7.25 5.09375 8.476562 4.917969 9.484375 C 4.71875 10.679688 4.609375 12.242188 4.5 13.796875 C 4.394531 15.359375 4.296875 16.90625 4.085938 18.046875 C 3.820312 18.976562 3.613281 19.691406 3.25 18.777344 C 3.078125 18.125 3.046875 17.296875 2.957031 16.382812 C 2.871094 15.46875 2.820312 14.523438 2.582031 13.796875 C 2.460938 13.4375 2.25 13.085938 2 12.820312 C 1.792969 12.601562 1.460938 12.410156 1.03125 12.347656 C 0.96875 12.632812 0.914062 12.914062 0.867188 13.203125 C 0.886719 13.21875 0.894531 13.214844 0.917969 13.238281 C 1.042969 13.375 1.0625 13.648438 1.167969 13.96875 C 1.375 14.609375 1.496094 15.476562 1.585938 16.382812 C 1.671875 17.296875 1.808594 18.222656 2 18.945312 C 2.097656 19.3125 2.210938 19.601562 2.417969 19.863281 C 2.523438 20 2.640625 20.179688 2.835938 20.28125 C 3.027344 20.386719 3.25 20.4375 3.542969 20.445312 C 3.945312 20.445312 4.320312 20.265625 4.5 20.113281 C 4.683594 19.964844 4.820312 19.804688 4.917969 19.613281 C 5.117188 19.234375 5.226562 18.734375 5.335938 18.132812 C 5.554688 16.945312 5.644531 15.4375 5.75 13.882812 C 5.859375 12.324219 5.976562 10.722656 6.167969 9.570312 C 6.339844 8.027344 6.601562 8.9375 6.835938 9.820312 C 7.023438 11.101562 7.160156 12.816406 7.25 14.550781 C 7.347656 16.289062 7.445312 18.035156 7.667969 19.363281 C 7.78125 20.03125 7.882812 20.601562 8.085938 21.03125 C 8.1875 21.246094 8.324219 21.367188 8.5 21.53125 C 8.679688 21.695312 8.890625 21.9375 9.3125 21.945312 C 9.90625 21.972656 10.449219 21.640625 10.6875 21.363281 C 10.929688 21.089844 11.007812 20.742188 11.105469 20.363281 C 11.304688 19.609375 11.464844 18.683594 11.523438 17.71875 C 11.578125 16.757812 11.582031 15.820312 11.773438 15.132812 C 11.867188 14.792969 11.933594 14.535156 12.066406 14.382812 C 12.195312 14.234375 12.328125 14.21875 12.359375 14.21875 C 12.515625 14.21875 12.523438 14.25 12.609375 14.300781 C 12.691406 14.355469 12.8125 14.449219 12.902344 14.632812 C 13.078125 15.007812 13.140625 15.621094 13.195312 16.21875 C 13.242188 16.816406 13.242188 17.453125 13.445312 17.96875 C 13.546875 18.226562 13.710938 18.429688 13.988281 18.632812 C 14.257812 18.839844 14.753906 18.945312 15.238281 18.945312 C 15.570312 18.945312 15.867188 18.910156 16.070312 18.78125 C 16.273438 18.65625 16.382812 18.460938 16.488281 18.300781 C 16.699219 17.984375 16.804688 17.597656 16.90625 17.132812 C 17.101562 16.210938 17.25 14.992188 17.320312 13.800781 C 17.390625 12.613281 17.371094 11.429688 17.570312 10.570312 C 18.046875 8.703125 18.457031 10.65625 18.570312 11.40625 C 18.769531 12.757812 18.742188 14.554688 18.820312 16.382812 C 18.898438 18.214844 19.03125 20.054688 19.238281 21.445312 C 19.335938 22.144531 19.457031 22.753906 19.65625 23.195312 C 19.75 23.421875 19.894531 23.601562 20.070312 23.765625 C 20.246094 23.933594 20.589844 24.101562 21.03125 24.101562 C 21.710938 24.03125 22.09375 23.546875 22.40625 23.03125 C 22.617188 22.488281 22.703125 21.738281 22.820312 20.863281 C 23.054688 19.117188 23.125 16.769531 23.21875 14.46875 C 23.3125 12.167969 23.460938 9.867188 23.632812 8.175781 C 23.84375 6.054688 24.03125 7.367188 24.179688 8.570312 C 24.390625 10.425781 24.648438 12.921875 24.757812 15.382812 C 24.875 17.847656 24.976562 20.347656 25.179688 22.195312 C 25.28125 23.125 25.429688 23.867188 25.59375 24.433594 C 25.679688 24.710938 25.710938 24.90625 25.84375 25.101562 C 25.914062 25.195312 26 25.335938 26.140625 25.433594 C 26.273438 25.523438 26.515625 25.609375 26.804688 25.601562 C 27.210938 25.574219 27.476562 25.414062 27.640625 25.265625 C 27.796875 25.113281 27.960938 24.953125 28.054688 24.765625 C 28.234375 24.378906 28.359375 23.878906 28.46875 23.28125 C 28.6875 22.101562 28.765625 20.496094 28.890625 18.945312 C 29.007812 17.40625 29.09375 15.859375 29.304688 14.71875 C 29.40625 14.148438 29.578125 13.707031 29.71875 13.40625 C 29.804688 13.550781 29.90625 13.640625 29.96875 13.882812 C 30.140625 14.53125 30.179688 15.464844 30.265625 16.382812 C 30.351562 17.304688 30.445312 18.210938 30.679688 18.945312 C 30.730469 19.109375 30.796875 19.265625 30.871094 19.417969 C 31.171875 18.21875 31.335938 16.964844 31.335938 15.671875 C 31.335938 15.027344 31.289062 14.390625 31.210938 13.765625 C 31.117188 13.417969 31.007812 13.078125 30.804688 12.820312 C 30.695312 12.691406 30.59375 12.59375 30.390625 12.488281 C 30.179688 12.382812 29.890625 12.3125 29.59375 12.320312 C 28.378906 12.492188 28.257812 13.714844 28.054688 14.632812 C 27.835938 15.820312 27.628906 17.398438 27.507812 18.945312 C 27.390625 20.496094 27.300781 22.054688 27.09375 23.195312 C 26.804688 25.136719 26.460938 22.785156 26.382812 22.113281 C 26.183594 20.296875 26.078125 17.851562 25.96875 15.386719 C 25.855469 12.921875 25.8125 10.457031 25.59375 8.574219 C 25.484375 7.632812 25.355469 6.847656 25.175781 6.261719 C 24.867188 5.398438 24.574219 5.046875 23.738281 5.011719 Z M 23.742188 5.007812 "/><path fill-rule="nonzero" fill="rgb(100%, 100%, 100%)" fill-opacity="1" d="M 11.59375 17.03125 C 12.734375 19.3125 14.6875 21.1875 16.976562 22.410156 L 18.765625 20.617188 C 19.011719 20.375 19.335938 20.289062 19.582031 20.453125 C 20.476562 20.78125 21.453125 20.945312 22.515625 20.945312 C 23.003906 20.945312 23.328125 21.269531 23.328125 21.757812 L 23.328125 24.53125 C 23.328125 25.015625 23.003906 25.34375 22.515625 25.34375 C 14.855469 25.34375 8.664062 19.148438 8.664062 11.492188 C 8.664062 11.003906 8.988281 10.679688 9.476562 10.679688 L 12.328125 10.679688 C 12.820312 10.679688 13.144531 11.003906 13.144531 11.492188 C 13.144531 12.46875 13.304688 13.445312 13.632812 14.425781 C 13.710938 14.671875 13.632812 14.996094 13.46875 15.242188 Z M 11.59375 17.03125 "/></g></svg>
