<svg width="64" height="64" viewBox="0 0 64 64" version="1.1"><defs><linearGradient id="linear-pattern-0" gradientUnits="userSpaceOnUse" x1="0" y1="0" x2="0" y2="1" gradientTransform="matrix(60, 0, 0, 56, 0, 4)"><stop offset="0" stop-color="#a67e50" stop-opacity="1"/><stop offset="1" stop-color="#644c30" stop-opacity="1"/></linearGradient></defs><path fill="url(#linear-pattern-0)" fill-opacity="1" d="M 36.21875 2.050781 L 62.027344 27.605469 C 64.402344 29.957031 64.417969 33.785156 62.058594 36.15625 L 36.460938 61.917969 C 34.105469 64.289062 30.269531 64.304688 27.894531 61.949219 L 2.085938 36.394531 C -0.289062 34.042969 -0.304688 30.214844 2.050781 27.84375 L 27.652344 2.082031 C 30.007812 -0.289062 33.84375 -0.304688 36.21875 2.050781 Z M 36.21875 2.050781 " /><g transform="matrix(1.0075098,0,0,1.0032698,16.221436,16.077397)"><path fill-rule="nonzero" fill="rgb(100%, 100%, 100%)" fill-opacity="1" d="M 16.144531 0.902344 C 7.742188 0.902344 0.945312 7.015625 0.9375 14.554688 C 0.945312 18.1875 2.554688 21.660156 5.421875 24.21875 L 5.808594 30.707031 C 5.820312 30.921875 5.945312 31.117188 6.140625 31.210938 C 6.335938 31.3125 6.566406 31.3125 6.753906 31.203125 L 12.710938 27.835938 C 13.832031 28.078125 14.984375 28.199219 16.144531 28.203125 C 24.539062 28.203125 31.34375 22.09375 31.34375 14.554688 C 31.34375 7.015625 24.539062 0.902344 16.144531 0.902344 Z M 16.144531 0.902344 "/></g></svg>
