<svg width="64" height="64" viewBox="0 0 64 64" version="1.1"><defs><linearGradient id="linear-pattern-0" gradientUnits="userSpaceOnUse" x1="0" y1="0" x2="0" y2="1" gradientTransform="matrix(60, 0, 0, 56, 0, 4)"><stop offset="0" stop-color="#c10000" stop-opacity="1"/><stop offset="1" stop-color="#5f0000" stop-opacity="1"/></linearGradient></defs><path fill="url(#linear-pattern-0)" fill-opacity="1" d="M 36.21875 2.050781 L 62.027344 27.605469 C 64.402344 29.957031 64.417969 33.785156 62.058594 36.15625 L 36.460938 61.917969 C 34.105469 64.289062 30.269531 64.304688 27.894531 61.949219 L 2.085938 36.394531 C -0.289062 34.042969 -0.304688 30.214844 2.050781 27.84375 L 27.652344 2.082031 C 30.007812 -0.289062 33.84375 -0.304688 36.21875 2.050781 Z M 36.21875 2.050781 " /><g transform="matrix(1.0075098,0,0,1.0032698,16.221436,16.077397)"><path fill-rule="nonzero" fill="rgb(100%, 100%, 100%)" fill-opacity="1" d="M 15.820312 0.855469 C 15.023438 0.855469 14.40625 1.023438 13.953125 1.367188 C 13.5 1.710938 13.28125 2.179688 13.28125 2.78125 C 13.28125 3.101562 13.347656 3.375 13.484375 3.613281 C 13.625 3.851562 13.804688 4.058594 14.035156 4.234375 C 14.265625 4.414062 14.609375 4.601562 15.0625 4.796875 C 15.554688 5.007812 15.882812 5.160156 16.039062 5.257812 C 16.199219 5.351562 16.320312 5.453125 16.402344 5.554688 C 16.484375 5.660156 16.523438 5.773438 16.523438 5.90625 C 16.523438 6.148438 16.429688 6.324219 16.242188 6.445312 C 16.054688 6.566406 15.789062 6.625 15.445312 6.625 C 15.152344 6.625 14.828125 6.585938 14.476562 6.5 C 14.125 6.417969 13.699219 6.273438 13.195312 6.070312 L 13.195312 7.40625 C 13.804688 7.679688 14.515625 7.8125 15.320312 7.8125 C 16.1875 7.8125 16.867188 7.632812 17.351562 7.28125 C 17.835938 6.929688 18.085938 6.453125 18.085938 5.839844 C 18.085938 5.398438 17.957031 5.023438 17.695312 4.726562 C 17.4375 4.421875 16.953125 4.113281 16.253906 3.8125 C 15.71875 3.585938 15.382812 3.425781 15.242188 3.339844 C 15.101562 3.25 15 3.160156 14.9375 3.066406 C 14.867188 2.96875 14.835938 2.859375 14.835938 2.734375 C 14.835938 2.53125 14.914062 2.367188 15.078125 2.238281 C 15.238281 2.113281 15.46875 2.046875 15.773438 2.046875 C 16.023438 2.046875 16.28125 2.078125 16.542969 2.136719 C 16.804688 2.195312 17.136719 2.296875 17.539062 2.445312 L 18.050781 1.332031 C 17.664062 1.179688 17.292969 1.0625 16.9375 0.976562 C 16.582031 0.898438 16.210938 0.855469 15.820312 0.855469 M 0.707031 12.113281 L 0.707031 12.953125 L 1.648438 13.34375 L 1.648438 17.84375 L 0.707031 18.234375 L 0.707031 19.070312 L 4.21875 19.070312 L 4.21875 18.234375 L 3.277344 17.84375 L 3.277344 13.34375 L 4.21875 12.953125 L 4.21875 12.113281 Z M 11.515625 12.113281 L 11.515625 19.070312 L 12.976562 19.070312 L 12.976562 15.835938 C 12.976562 15.460938 12.9375 14.722656 12.875 13.609375 L 12.921875 13.609375 L 14.78125 19.070312 L 16.28125 19.070312 L 18.273438 13.621094 L 18.320312 13.621094 C 18.273438 14.5 18.25 15.039062 18.242188 15.242188 C 18.242188 15.445312 18.242188 15.625 18.242188 15.777344 L 18.242188 19.070312 L 19.765625 19.070312 L 19.765625 12.113281 L 17.539062 12.113281 L 15.601562 17.433594 L 15.570312 17.433594 L 13.742188 12.113281 L 11.515625 12.113281 M 15.820312 24.289062 C 15.023438 24.289062 14.40625 24.460938 13.953125 24.800781 C 13.5 25.144531 13.28125 25.613281 13.28125 26.210938 C 13.28125 26.53125 13.347656 26.804688 13.484375 27.046875 C 13.625 27.28125 13.804688 27.492188 14.035156 27.671875 C 14.265625 27.851562 14.605469 28.039062 15.0625 28.230469 C 15.554688 28.4375 15.878906 28.59375 16.039062 28.6875 C 16.195312 28.789062 16.320312 28.886719 16.402344 28.988281 C 16.484375 29.09375 16.523438 29.210938 16.523438 29.34375 C 16.523438 29.578125 16.429688 29.757812 16.242188 29.882812 C 16.054688 30 15.789062 30.058594 15.445312 30.058594 C 15.152344 30.058594 14.828125 30.015625 14.476562 29.933594 C 14.125 29.851562 13.695312 29.703125 13.195312 29.503906 L 13.195312 30.835938 C 13.804688 31.109375 14.515625 31.242188 15.320312 31.242188 C 16.1875 31.242188 16.863281 31.070312 17.351562 30.71875 C 17.835938 30.367188 18.085938 29.882812 18.085938 29.273438 C 18.085938 28.835938 17.957031 28.457031 17.695312 28.15625 C 17.4375 27.851562 16.953125 27.550781 16.253906 27.246094 C 15.71875 27.019531 15.382812 26.859375 15.242188 26.773438 C 15.101562 26.683594 15 26.59375 14.9375 26.5 C 14.867188 26.40625 14.835938 26.289062 14.835938 26.164062 C 14.835938 25.960938 14.914062 25.796875 15.078125 25.671875 C 15.234375 25.546875 15.46875 25.480469 15.773438 25.480469 C 16.023438 25.480469 16.28125 25.507812 16.542969 25.570312 C 16.804688 25.628906 17.136719 25.730469 17.539062 25.878906 L 18.050781 24.765625 C 17.664062 24.613281 17.292969 24.496094 16.9375 24.414062 C 16.582031 24.328125 16.210938 24.289062 15.820312 24.289062 M 25.363281 24.289062 L 25.363281 28.710938 C 25.363281 29.199219 25.46875 29.625 25.679688 29.984375 C 26.148438 29.714844 26.609375 29.429688 27.046875 29.117188 C 27 28.9375 26.976562 28.726562 26.976562 28.492188 L 26.976562 24.289062 L 25.363281 24.289062 M 30.007812 24.289062 L 30.007812 26.59375 C 30.589844 25.976562 31.128906 25.316406 31.617188 24.628906 L 31.617188 24.289062 L 30.007812 24.289062 "/></g></svg>
