<svg width="64" height="64" viewBox="0 0 64 64" version="1.1"><defs><linearGradient id="linear-pattern-0" gradientUnits="userSpaceOnUse" x1="0" y1="0" x2="0" y2="1" gradientTransform="matrix(60, 0, 0, 56, 0, 4)"><stop offset="0" stop-color="#8900e4" stop-opacity="1"/><stop offset="1" stop-color="#42006e" stop-opacity="1"/></linearGradient></defs><path fill="url(#linear-pattern-0)" fill-opacity="1" d="M 36.21875 2.050781 L 62.027344 27.605469 C 64.402344 29.957031 64.417969 33.785156 62.058594 36.15625 L 36.460938 61.917969 C 34.105469 64.289062 30.269531 64.304688 27.894531 61.949219 L 2.085938 36.394531 C -0.289062 34.042969 -0.304688 30.214844 2.050781 27.84375 L 27.652344 2.082031 C 30.007812 -0.289062 33.84375 -0.304688 36.21875 2.050781 Z M 36.21875 2.050781 " /><g transform="matrix(1.0075098,0,0,1.0032698,16.221436,16.077397)"><path fill-rule="nonzero" fill="rgb(100%, 100%, 100%)" fill-opacity="1" d="M 21.914062 0.851562 L 20.882812 2.71875 C 20.289062 2.484375 19.679688 2.296875 19.066406 2.15625 L 21.0625 6.328125 C 24.292969 8.207031 26.292969 11.757812 26.296875 15.617188 C 26.289062 19.296875 24.453125 22.710938 21.445312 24.648438 L 19.519531 28.953125 C 19.976562 28.820312 20.425781 28.664062 20.867188 28.484375 L 21.898438 30.34375 C 23.15625 29.804688 24.34375 29.085938 25.425781 28.210938 L 24.402344 26.359375 C 25.132812 25.742188 25.804688 25.046875 26.398438 24.277344 L 28.171875 25.34375 C 29.007812 24.21875 29.695312 22.980469 30.21875 21.664062 L 28.433594 20.585938 C 28.78125 19.671875 29.03125 18.714844 29.1875 17.742188 L 31.25 17.742188 C 31.34375 17.039062 31.390625 16.324219 31.394531 15.617188 C 31.394531 14.902344 31.34375 14.191406 31.257812 13.488281 L 29.195312 13.488281 C 29.046875 12.507812 28.800781 11.546875 28.460938 10.625 L 30.246094 9.546875 C 29.726562 8.230469 29.039062 6.992188 28.203125 5.863281 L 26.421875 6.9375 C 25.824219 6.167969 25.148438 5.46875 24.414062 4.84375 L 25.441406 2.984375 C 24.363281 2.113281 23.175781 1.398438 21.914062 0.851562 Z M 10.296875 0.882812 C 9.039062 1.425781 7.851562 2.140625 6.769531 3.015625 L 7.792969 4.867188 C 7.058594 5.484375 6.390625 6.183594 5.796875 6.953125 L 4.019531 5.882812 C 3.183594 7.007812 2.496094 8.25 1.976562 9.5625 L 3.761719 10.640625 C 3.414062 11.5625 3.164062 12.511719 3.007812 13.488281 L 0.945312 13.488281 C 0.851562 14.191406 0.804688 14.902344 0.800781 15.617188 C 0.804688 16.324219 0.851562 17.039062 0.945312 17.742188 L 3.007812 17.742188 C 3.164062 18.714844 3.414062 19.671875 3.761719 20.585938 L 1.976562 21.664062 C 2.496094 22.980469 3.183594 24.21875 4.019531 25.34375 L 5.796875 24.273438 C 6.390625 25.046875 7.058594 25.742188 7.792969 26.359375 L 6.769531 28.210938 C 7.851562 29.085938 9.039062 29.804688 10.296875 30.34375 L 11.328125 28.484375 C 11.769531 28.664062 12.21875 28.820312 12.671875 28.953125 L 10.746094 24.648438 C 7.742188 22.710938 5.90625 19.296875 5.898438 15.617188 C 5.90625 11.765625 7.898438 8.21875 11.125 6.339844 L 13.117188 2.171875 C 12.511719 2.320312 11.914062 2.507812 11.328125 2.746094 Z M 14.058594 4.976562 L 8.960938 15.617188 L 14.058594 27.015625 L 14.058594 23.0625 C 14.058594 23.0625 13.34375 22.726562 13.039062 22 C 12.589844 20.925781 13.496094 20.933594 13.039062 18.804688 C 14.058594 19.53125 14.058594 20.933594 14.058594 20.933594 C 14.058594 20.933594 14.429688 20.40625 14.429688 19.867188 C 16.097656 20.933594 16.09375 21.582031 16.09375 23.0625 C 16.09375 23.679688 14.695312 25.191406 14.695312 25.191406 L 15.078125 27.320312 L 14.472656 27.945312 L 16.09375 31.570312 L 17.742188 27.894531 C 17.296875 28.523438 16.585938 29.445312 16.09375 29.445312 C 15.441406 29.445312 15.078125 28.382812 15.078125 28.382812 L 16.09375 27.320312 L 15.683594 25.191406 C 15.683594 25.191406 17.117188 24.125 17.117188 23.0625 C 17.117188 21.582031 16.09375 20.933594 17.765625 19.867188 C 17.765625 20.40625 18.136719 20.933594 18.136719 20.933594 C 18.136719 20.933594 18.136719 19.53125 19.15625 18.804688 C 18.695312 20.933594 19.625 20.933594 19.15625 22 C 18.957031 22.453125 18.136719 23.0625 18.136719 23.0625 L 18.136719 27.015625 L 23.234375 15.617188 L 18.136719 4.976562 L 18.136719 6.039062 C 18.136719 6.039062 17.511719 6.039062 17.117188 7.101562 C 17.648438 6.640625 18.136719 6.589844 18.136719 6.589844 L 19.15625 12.421875 C 19.15625 12.421875 18.554688 12.8125 18.136719 14.0625 C 18.53125 13.488281 19.15625 13.488281 19.15625 13.488281 C 19.15625 13.488281 20.179688 14.089844 20.179688 15.617188 C 20.179688 16.679688 18.136719 16.679688 18.136719 16.679688 C 18.136719 16.679688 18.136719 15.921875 19.15625 15.28125 C 18.136719 15.613281 17.117188 16.679688 17.117188 16.679688 C 17.117188 16.679688 15.65625 15.417969 15.683594 14.550781 C 15.726562 13.1875 18.136719 12.421875 18.136719 11.359375 C 18.136719 10.296875 17.117188 10.296875 16.433594 9.871094 C 17.117188 9.230469 17.117188 8.734375 17.117188 8.734375 C 17.117188 8.734375 16.207031 9.5625 15.710938 9.230469 C 15.210938 8.898438 15.078125 8.164062 15.476562 7.101562 C 14.703125 8.164062 15.078125 9.230469 15.078125 9.230469 C 15.078125 9.230469 14.703125 9.617188 14.742188 10.296875 C 14.378906 10.84375 14.058594 11.050781 14.5625 11.765625 C 14.5625 11.765625 15.078125 10.609375 16.09375 10.578125 C 16.515625 10.5625 17.117188 10.945312 17.117188 11.359375 C 17.117188 12.421875 14.5 12.421875 14.5 14.550781 C 14.5 15.617188 15.078125 16.679688 15.078125 16.679688 C 15.078125 16.679688 14.058594 15.613281 13.039062 15.335938 C 14.058594 15.882812 14.058594 16.679688 14.058594 16.679688 C 14.058594 16.679688 12.015625 16.679688 12.015625 15.617188 C 12.015625 14.039062 13.039062 13.488281 13.039062 13.488281 C 13.039062 13.488281 13.570312 13.488281 14.058594 13.929688 C 13.625 12.851562 13.039062 12.421875 13.039062 12.421875 L 14.058594 6.617188 C 14.058594 6.617188 14.554688 6.5 15.078125 7.101562 C 14.703125 6.039062 14.058594 6.039062 14.058594 6.039062 Z M 14.058594 4.976562 "/></g></svg>
