<svg width="64" height="64" viewBox="0 0 64 64" version="1.1"><defs><linearGradient id="linear-pattern-0" gradientUnits="userSpaceOnUse" x1="0" y1="0" x2="0" y2="1" gradientTransform="matrix(60, 0, 0, 56, 0, 4)"><stop offset="0" stop-color="#008a97" stop-opacity="1"/><stop offset="1" stop-color="#00545c" stop-opacity="1"/></linearGradient></defs><path fill="url(#linear-pattern-0)" fill-opacity="1" d="M 36.21875 2.050781 L 62.027344 27.605469 C 64.402344 29.957031 64.417969 33.785156 62.058594 36.15625 L 36.460938 61.917969 C 34.105469 64.289062 30.269531 64.304688 27.894531 61.949219 L 2.085938 36.394531 C -0.289062 34.042969 -0.304688 30.214844 2.050781 27.84375 L 27.652344 2.082031 C 30.007812 -0.289062 33.84375 -0.304688 36.21875 2.050781 Z M 36.21875 2.050781 " /><g transform="matrix(1.0075098,0,0,1.0032698,16.221436,16.077397)"><path fill-rule="nonzero" fill="rgb(100%, 100%, 100%)" fill-opacity="1" d="M 9 1 C 4.582031 1 1 4.582031 1 9 C 1 11 1.757812 12.929688 3.109375 14.402344 C 3.039062 14.929688 3.003906 15.464844 3 16 C 3 23.179688 8.820312 29 16 29 C 16.535156 28.992188 17.070312 28.957031 17.597656 28.886719 C 19.070312 30.242188 21 30.996094 23 31 C 27.417969 31 31 27.417969 31 23 C 31 21 30.242188 19.070312 28.890625 17.597656 C 28.960938 17.070312 28.996094 16.535156 29 16 C 29 8.820312 23.179688 3 16 3 C 15.464844 3.007812 14.929688 3.042969 14.402344 3.113281 C 12.929688 1.757812 11 1.003906 9 1 Z M 15.746094 8 C 16.632812 8 16.789062 8.011719 17.335938 8.136719 C 19.6875 8.671875 21.328125 9.980469 21.394531 11.375 C 21.40625 11.585938 21.375 11.835938 21.34375 11.945312 C 21.265625 12.207031 20.992188 12.523438 20.699219 12.691406 C 20.484375 12.8125 20.394531 12.828125 19.992188 12.828125 C 19.632812 12.828125 19.5 12.804688 19.347656 12.722656 C 19.242188 12.664062 18.855469 12.296875 18.496094 11.910156 C 17.769531 11.121094 17.488281 10.929688 16.742188 10.71875 C 16.230469 10.574219 15.152344 10.570312 14.667969 10.699219 C 13.714844 10.953125 13.183594 11.570312 13.1875 12.429688 C 13.1875 12.984375 13.476562 13.402344 14.101562 13.710938 C 14.570312 13.941406 14.84375 14.015625 16.953125 14.523438 C 17.917969 14.757812 18.894531 15.007812 19.125 15.09375 C 20.867188 15.75 21.789062 16.929688 21.972656 18.695312 C 22.117188 20.085938 21.699219 21.398438 20.828125 22.328125 C 20.078125 23.132812 19.03125 23.640625 17.628906 23.886719 C 17.085938 23.984375 15.550781 24.039062 14.972656 23.972656 C 12.84375 23.734375 11.242188 22.898438 10.433594 21.601562 C 10.148438 21.148438 10 20.648438 10 20.199219 C 10 19.609375 10.210938 19.210938 10.644531 18.953125 C 10.875 18.816406 10.9375 18.796875 11.351562 18.796875 C 12.003906 18.796875 12.1875 18.933594 12.894531 19.871094 C 13.628906 20.84375 14.171875 21.238281 15.035156 21.429688 C 16.59375 21.773438 18.09375 21.246094 18.578125 20.183594 C 18.691406 19.933594 18.722656 19.835938 18.722656 19.457031 C 18.722656 19.078125 18.6875 18.976562 18.578125 18.746094 C 18.429688 18.445312 18.140625 18.15625 17.820312 18.003906 C 17.703125 17.949219 16.601562 17.625 15.375 17.292969 C 14.148438 16.960938 12.960938 16.632812 12.75 16.546875 C 11.246094 15.953125 10.441406 15.070312 10.144531 13.746094 C 10.003906 13.117188 10 12.117188 10.144531 11.53125 C 10.59375 9.695312 11.976562 8.554688 14.28125 8.105469 C 14.648438 8.03125 15 8 15.746094 8 Z M 15.746094 8 "/></g></svg>
