<svg width="64" height="64" viewBox="0 0 64 64" version="1.1"><defs><linearGradient id="linear-pattern-0" gradientUnits="userSpaceOnUse" x1="0" y1="0" x2="0" y2="1" gradientTransform="matrix(60, 0, 0, 56, 0, 4)"><stop offset="0" stop-color="#a67e50" stop-opacity="1"/><stop offset="1" stop-color="#644c30" stop-opacity="1"/></linearGradient></defs><path fill="url(#linear-pattern-0)" fill-opacity="1" d="M 36.21875 2.050781 L 62.027344 27.605469 C 64.402344 29.957031 64.417969 33.785156 62.058594 36.15625 L 36.460938 61.917969 C 34.105469 64.289062 30.269531 64.304688 27.894531 61.949219 L 2.085938 36.394531 C -0.289062 34.042969 -0.304688 30.214844 2.050781 27.84375 L 27.652344 2.082031 C 30.007812 -0.289062 33.84375 -0.304688 36.21875 2.050781 Z M 36.21875 2.050781 " /><g transform="matrix(1.0075098,0,0,1.0032698,16.221436,16.077397)"><path fill-rule="nonzero" fill="rgb(100%, 100%, 100%)" fill-opacity="1" d="M 18.9375 1.015625 C 18.679688 0.984375 18.414062 1 18.148438 1.070312 C 17.089844 1.355469 16.46875 2.4375 16.75 3.496094 L 17.777344 7.324219 L 10.121094 9.375 L 9.09375 5.546875 C 8.8125 4.484375 7.730469 3.859375 6.671875 4.144531 C 5.609375 4.429688 4.984375 5.515625 5.269531 6.570312 L 6.296875 10.398438 L 2.46875 11.421875 C 1.40625 11.707031 0.785156 12.789062 1.070312 13.851562 C 1.351562 14.914062 2.433594 15.535156 3.492188 15.25 L 7.320312 14.226562 L 9.375 21.882812 L 5.546875 22.90625 C 4.484375 23.1875 3.859375 24.269531 4.140625 25.328125 C 4.425781 26.390625 5.511719 27.015625 6.570312 26.730469 L 10.398438 25.703125 L 11.421875 29.53125 C 11.703125 30.59375 12.789062 31.214844 13.851562 30.929688 C 14.910156 30.648438 15.53125 29.566406 15.25 28.507812 L 14.226562 24.679688 L 21.882812 22.625 L 22.90625 26.453125 C 23.1875 27.515625 24.269531 28.140625 25.328125 27.859375 C 26.390625 27.574219 27.015625 26.492188 26.730469 25.429688 L 25.703125 21.605469 L 29.53125 20.578125 C 30.59375 20.296875 31.214844 19.210938 30.929688 18.148438 C 30.648438 17.089844 29.566406 16.46875 28.507812 16.75 L 24.679688 17.78125 L 22.628906 10.125 L 26.457031 9.097656 C 27.515625 8.8125 28.144531 7.734375 27.859375 6.671875 C 27.578125 5.613281 26.492188 4.992188 25.429688 5.273438 L 21.609375 6.300781 L 20.582031 2.472656 C 20.367188 1.679688 19.703125 1.125 18.941406 1.019531 Z M 18.804688 11.148438 L 20.851562 18.804688 L 13.195312 20.851562 L 11.148438 13.199219 Z M 18.804688 11.148438 "/></g></svg>
