<svg width="64" height="64" viewBox="0 0 64 64" version="1.1"><defs><linearGradient id="linear-pattern-0" gradientUnits="userSpaceOnUse" x1="0" y1="0" x2="0" y2="1" gradientTransform="matrix(60, 0, 0, 56, 0, 4)"><stop offset="0" stop-color="#aaaa00" stop-opacity="1"/><stop offset="1" stop-color="#5c5c00" stop-opacity="1"/></linearGradient></defs><path fill="url(#linear-pattern-0)" fill-opacity="1" d="M 36.21875 2.050781 L 62.027344 27.605469 C 64.402344 29.957031 64.417969 33.785156 62.058594 36.15625 L 36.460938 61.917969 C 34.105469 64.289062 30.269531 64.304688 27.894531 61.949219 L 2.085938 36.394531 C -0.289062 34.042969 -0.304688 30.214844 2.050781 27.84375 L 27.652344 2.082031 C 30.007812 -0.289062 33.84375 -0.304688 36.21875 2.050781 Z M 36.21875 2.050781 " /><g transform="matrix(1.0075098,0,0,1.0032698,16.221436,16.077397)"><path fill-rule="nonzero" fill="rgb(100%, 100%, 100%)" fill-opacity="1" d="M 4.90625 27.09375 C 7.28125 30.1875 10.957031 32 14.859375 32 C 21.800781 32 27.429688 26.371094 27.429688 19.429688 C 27.421875 15.53125 25.609375 11.859375 22.515625 9.484375 L 27.09375 4.90625 C 24.71875 1.8125 21.042969 0 17.140625 0 C 10.199219 0 4.570312 5.628906 4.570312 12.570312 C 4.578125 16.46875 6.390625 20.140625 9.484375 22.515625 Z M 4.90625 27.09375 "/></g></svg>
