<svg width="64" height="64" viewBox="0 0 64 64" version="1.1"><defs><linearGradient id="linear-pattern-0" gradientUnits="userSpaceOnUse" x1="0" y1="0" x2="0" y2="1" gradientTransform="matrix(60, 0, 0, 56, 0, 4)"><stop offset="0" stop-color="#d00068" stop-opacity="1"/><stop offset="1" stop-color="#6e0037" stop-opacity="1"/></linearGradient></defs><path fill="url(#linear-pattern-0)" fill-opacity="1" d="M 36.21875 2.050781 L 62.027344 27.605469 C 64.402344 29.957031 64.417969 33.785156 62.058594 36.15625 L 36.460938 61.917969 C 34.105469 64.289062 30.269531 64.304688 27.894531 61.949219 L 2.085938 36.394531 C -0.289062 34.042969 -0.304688 30.214844 2.050781 27.84375 L 27.652344 2.082031 C 30.007812 -0.289062 33.84375 -0.304688 36.21875 2.050781 Z M 36.21875 2.050781 " /><g transform="matrix(1.0075098,0,0,1.0032698,16.221436,16.077397)"><path fill-rule="nonzero" fill="rgb(100%, 100%, 100%)" fill-opacity="1" d="M 16 0 C 7.179688 0 0 7.179688 0 16 C 0 24.820312 7.179688 32 16 32 C 24.820312 32 32 24.820312 32 16 C 32 7.179688 24.820312 0 16 0 Z M 14.585938 2.738281 C 14.109375 10.3125 10.15625 17.15625 3.851562 21.367188 C 3.109375 19.695312 2.476562 17.949219 2.476562 16 C 2.476562 9.015625 7.796875 3.472656 14.585938 2.738281 Z M 17.414062 2.738281 C 24.203125 3.472656 29.523438 9.015625 29.523438 16 C 29.523438 17.949219 28.890625 19.695312 28.148438 21.367188 C 21.84375 17.15625 17.890625 10.3125 17.414062 2.738281 Z M 16 8.96875 C 17.195312 12.914062 19.269531 16.507812 22.09375 19.515625 C 18.078125 18.578125 13.921875 18.578125 9.90625 19.515625 C 12.730469 16.507812 14.804688 12.914062 16 8.96875 Z M 16 21.191406 C 19.679688 21.191406 23.320312 22.160156 26.710938 23.828125 C 24.25 27.179688 20.484375 29.523438 16 29.523438 C 11.515625 29.523438 7.75 27.179688 5.289062 23.828125 C 8.679688 22.160156 12.320312 21.191406 16 21.191406 Z M 16 21.191406 "/></g></svg>
