<svg width="64" height="64" viewBox="0 0 64 64" version="1.1"><defs><linearGradient id="linear-pattern-0" gradientUnits="userSpaceOnUse" x1="0" y1="0" x2="0" y2="1" gradientTransform="matrix(60, 0, 0, 56, 0, 4)"><stop offset="0" stop-color="#8900e4" stop-opacity="1"/><stop offset="1" stop-color="#42006e" stop-opacity="1"/></linearGradient></defs><path fill="url(#linear-pattern-0)" fill-opacity="1" d="M 36.21875 2.050781 L 62.027344 27.605469 C 64.402344 29.957031 64.417969 33.785156 62.058594 36.15625 L 36.460938 61.917969 C 34.105469 64.289062 30.269531 64.304688 27.894531 61.949219 L 2.085938 36.394531 C -0.289062 34.042969 -0.304688 30.214844 2.050781 27.84375 L 27.652344 2.082031 C 30.007812 -0.289062 33.84375 -0.304688 36.21875 2.050781 Z M 36.21875 2.050781 " /><g transform="matrix(1.0075098,0,0,1.0032698,16.221436,16.077397)"><path fill-rule="nonzero" fill="rgb(100%, 100%, 100%)" fill-opacity="1" d="M 20.097656 0.523438 L 19.820312 1.542969 C 18.5625 1.203125 17.261719 1.039062 15.960938 1.03125 C 14.660156 1.042969 13.359375 1.21875 12.101562 1.558594 L 11.828125 0.539062 C 6.3125 2.011719 2.015625 6.28125 0.523438 11.765625 L 1.554688 12.039062 C 1.210938 13.289062 1.03125 14.578125 1.023438 15.875 C 1.03125 17.164062 1.210938 18.457031 1.554688 19.703125 L 0.523438 19.976562 C 2.007812 25.453125 6.304688 29.722656 11.828125 31.207031 L 12.101562 30.183594 C 13.359375 30.523438 14.660156 30.703125 15.960938 30.710938 C 17.261719 30.703125 18.5625 30.523438 19.820312 30.183594 L 20.09375 31.207031 C 25.609375 29.734375 29.902344 25.464844 31.398438 19.976562 L 30.367188 19.703125 C 30.710938 18.457031 30.890625 17.164062 30.894531 15.875 C 30.894531 14.578125 30.722656 13.289062 30.382812 12.039062 L 31.414062 11.765625 C 29.929688 6.289062 25.625 2.007812 20.109375 0.539062 Z M 15.960938 3.148438 C 23.03125 3.148438 28.753906 8.835938 28.753906 15.859375 C 28.753906 22.878906 23.03125 28.566406 15.960938 28.566406 C 8.890625 28.566406 3.164062 22.878906 3.164062 15.859375 C 3.164062 8.835938 8.890625 3.148438 15.960938 3.148438 Z M 16.5 6.3125 C 12.238281 6.3125 9.570312 8.429688 9.570312 11.609375 C 9.570312 17.964844 18.101562 16.90625 18.101562 20.507812 C 18.101562 21.140625 17.664062 22.210938 15.4375 22.203125 C 13.207031 22.191406 11.171875 20.085938 11.171875 20.085938 L 8.507812 23.257812 C 9.570312 24.320312 12.238281 26.4375 15.96875 26.4375 C 20.234375 26.4375 23.433594 23.257812 23.433594 19.554688 C 23.433594 13.199219 14.90625 13.726562 14.90625 11.078125 C 14.90625 10.550781 15.4375 9.492188 17.035156 9.492188 C 18.101562 9.492188 19.164062 10.023438 20.234375 10.8125 L 22.367188 8.429688 C 21.296875 7.375 19.164062 6.3125 16.5 6.3125 Z M 16.5 6.3125 "/></g></svg>
