<svg width="64" height="64" viewBox="0 0 64 64" version="1.1"><defs><linearGradient id="linear-pattern-0" gradientUnits="userSpaceOnUse" x1="0" y1="0" x2="0" y2="1" gradientTransform="matrix(60, 0, 0, 56, 0, 4)"><stop offset="0" stop-color="#d00068" stop-opacity="1"/><stop offset="1" stop-color="#6e0037" stop-opacity="1"/></linearGradient></defs><path fill="url(#linear-pattern-0)" fill-opacity="1" d="M 36.21875 2.050781 L 62.027344 27.605469 C 64.402344 29.957031 64.417969 33.785156 62.058594 36.15625 L 36.460938 61.917969 C 34.105469 64.289062 30.269531 64.304688 27.894531 61.949219 L 2.085938 36.394531 C -0.289062 34.042969 -0.304688 30.214844 2.050781 27.84375 L 27.652344 2.082031 C 30.007812 -0.289062 33.84375 -0.304688 36.21875 2.050781 Z M 36.21875 2.050781 " /><g transform="matrix(1.0075098,0,0,1.0032698,16.221436,16.077397)"><path fill-rule="nonzero" fill="rgb(100%, 100%, 100%)" fill-opacity="1" d="M 2.398438 0.8125 L 2.398438 17.148438 C 2.398438 27.65625 15.890625 31.15625 15.890625 31.15625 C 15.890625 31.15625 29.375 27.65625 29.375 17.148438 L 29.375 0.8125 Z M 15.6875 4.3125 L 17.011719 6.179688 L 13.234375 9.640625 C 13.234375 9.640625 14.710938 11.171875 16.203125 12.785156 C 16.476562 12.492188 16.75 12.179688 17.011719 11.929688 L 17.011719 11.3125 L 17.640625 11.3125 L 21.507812 8.058594 L 21.507812 7.265625 C 21.507812 5.476562 24.09375 5.476562 27.125 5.476562 L 25.222656 8.304688 C 24.78125 8.953125 23.753906 8.980469 22.460938 8.980469 C 21.539062 10.261719 20.539062 11.835938 19.257812 13.039062 L 19.257812 13.648438 L 18.84375 13.648438 C 18.578125 13.945312 18.203125 14.335938 17.894531 14.671875 C 18.179688 15 18.507812 15.363281 18.707031 15.617188 L 22.359375 20.234375 C 22.765625 20.742188 22.703125 21.5 22.226562 21.929688 L 21.351562 22.703125 C 20.867188 23.132812 20.15625 23.066406 19.75 22.554688 L 16.09375 17.9375 C 15.945312 17.75 15.726562 17.421875 15.546875 17.171875 C 12.867188 19.96875 10.0625 22.792969 10.007812 22.847656 C 9.921875 22.9375 9.816406 22.984375 9.707031 22.984375 C 9.339844 22.984375 9.03125 22.503906 9.175781 22.101562 C 9.25 21.90625 11.632812 18.421875 14.171875 15.183594 C 12.871094 13.203125 11.574219 11.109375 11.574219 11.109375 L 10.265625 12.480469 L 9.453125 11.429688 L 8.582031 12.203125 L 9.3125 13.125 L 7.570312 14.671875 L 4.648438 10.980469 L 6.390625 9.433594 L 7.121094 10.359375 L 7.992188 9.585938 L 7.257812 8.65625 L 11.617188 4.789062 C 12.34375 5.710938 13.945312 5.859375 15.6875 4.3125 Z M 15.6875 4.3125 "/></g></svg>
