<svg width="64" height="64" viewBox="0 0 64 64" version="1.1"><defs><linearGradient id="linear-pattern-0" gradientUnits="userSpaceOnUse" x1="0" y1="0" x2="0" y2="1" gradientTransform="matrix(60, 0, 0, 56, 0, 4)"><stop offset="0" stop-color="#7795ab" stop-opacity="1"/><stop offset="1" stop-color="#3b4f5f" stop-opacity="1"/></linearGradient></defs><path fill="url(#linear-pattern-0)" fill-opacity="1" d="M 36.21875 2.050781 L 62.027344 27.605469 C 64.402344 29.957031 64.417969 33.785156 62.058594 36.15625 L 36.460938 61.917969 C 34.105469 64.289062 30.269531 64.304688 27.894531 61.949219 L 2.085938 36.394531 C -0.289062 34.042969 -0.304688 30.214844 2.050781 27.84375 L 27.652344 2.082031 C 30.007812 -0.289062 33.84375 -0.304688 36.21875 2.050781 Z M 36.21875 2.050781 " /><g transform="matrix(1.0075098,0,0,1.0032698,16.221436,16.077397)"><path fill-rule="nonzero" fill="rgb(100%, 100%, 100%)" fill-opacity="1" stroke-width="2.452" stroke-linecap="butt" stroke-linejoin="miter" stroke="rgb(100%, 100%, 100%)" stroke-opacity="1" stroke-miterlimit="4" d="M 323.569895 233.046531 C 323.569895 259.904062 301.824197 281.681313 274.935055 281.681313 C 248.078467 281.681313 226.332769 259.904062 226.332769 233.046531 C 226.332769 206.221358 248.078467 184.444107 274.935055 184.444107 C 301.824197 184.444107 323.569895 206.221358 323.569895 233.046531 Z M 323.569895 233.046531 " transform="matrix(0.119995, 0, 0, 0.120718, -16.522081, -12.101662)"/><path fill="none" stroke-width="3.463" stroke-linecap="square" stroke-linejoin="round" stroke="rgb(100%, 100%, 100%)" stroke-opacity="1" stroke-miterlimit="4" d="M 270.930982 108.628209 C 339.651294 108.628209 395.350231 164.349497 395.350231 233.046531 C 395.350231 301.775924 339.651294 357.432494 270.930982 357.432494 " transform="matrix(0.119995, 0, 0, 0.120718, -16.522081, -12.101662)"/><path fill="none" stroke-width="2.052" stroke-linecap="butt" stroke-linejoin="round" stroke="rgb(100%, 100%, 100%)" stroke-opacity="1" stroke-miterlimit="4" d="M 64.014967 59.832068 C 62.120576 59.818565 60.476436 61.103424 59.975201 62.900838 C 59.489285 64.756198 60.270413 66.65567 61.93482 67.61662 L 106.296198 93.253308 C 108.282169 94.375362 110.834877 93.713269 112.011925 91.716822 C 116.859574 83.320537 119.443926 73.691185 119.436351 63.989314 C 119.419056 61.69612 117.575049 59.821308 115.263417 59.812416 Z M 64.014967 59.832068 " transform="matrix(0.0918625, 0.160177, -0.15911, 0.0924795, 21.397118, 2.841909)"/><path fill="none" stroke-width="2.052" stroke-linecap="butt" stroke-linejoin="round" stroke="rgb(100%, 100%, 100%)" stroke-opacity="1" stroke-miterlimit="4" d="M 64.004388 59.832394 C 62.121959 59.846197 60.452066 61.078578 59.960033 62.947812 C 59.483705 64.759204 60.268646 66.671554 61.902485 67.630433 L 106.276349 93.248005 C 108.273835 94.411509 110.83186 93.739389 112.000293 91.723501 C 116.855177 83.335878 119.441261 73.697525 119.418158 64.004835 C 119.409266 61.693203 117.542307 59.820275 115.24126 59.831901 Z M 64.004388 59.832394 " transform="matrix(0.15911, 0.0924795, -0.0918625, 0.160177, 14.101678, 2.079134)"/><path fill="none" stroke-width="2.052" stroke-linecap="butt" stroke-linejoin="round" stroke="rgb(100%, 100%, 100%)" stroke-opacity="1" stroke-miterlimit="4" d="M 64.004879 59.827237 C 62.133871 59.827237 60.454216 61.09442 59.986464 62.910716 C 59.476189 64.727011 60.284125 66.670025 61.921257 67.620412 L 106.293913 93.217508 C 108.29249 94.400212 110.843864 93.703262 111.991983 91.718008 C 116.860856 83.312361 119.454753 73.702891 119.433492 63.987821 C 119.433492 61.685772 117.562484 59.827237 115.266247 59.827237 Z M 64.004879 59.827237 " transform="matrix(0.183724, 0, 0, 0.184958, 7.404799, 5.090754)"/><path fill="none" stroke-width="2.052" stroke-linecap="butt" stroke-linejoin="round" stroke="rgb(100%, 100%, 100%)" stroke-opacity="1" stroke-miterlimit="4" d="M 63.987566 59.821827 C 62.12355 59.818654 60.45235 61.097381 59.978257 62.896556 C 59.483044 64.732311 60.275098 66.677216 61.913847 67.623358 L 106.28895 93.243606 C 108.277544 94.391733 110.827149 93.717708 111.988737 91.705786 C 116.835723 83.310588 119.423067 73.683932 119.435611 64.009532 C 119.43665 61.668979 117.536045 59.815655 115.253411 59.81466 Z M 63.987566 59.821827 " transform="matrix(0.15911, -0.0924795, 0.0918625, 0.160177, 3.1009, 11.069802)"/><path fill="none" stroke-width="2.052" stroke-linecap="butt" stroke-linejoin="round" stroke="rgb(100%, 100%, 100%)" stroke-opacity="1" stroke-miterlimit="4" d="M 63.992688 59.811089 C 62.098297 59.824592 60.444059 61.098828 59.950887 62.905701 C 59.478976 64.7494 60.272392 66.67273 61.895733 67.625889 L 106.268234 93.244486 C 108.27349 94.394506 110.82679 93.705973 111.990294 91.708487 C 116.856598 83.325924 119.446725 73.704252 119.443669 63.983968 C 119.421413 61.664508 117.57106 59.811289 115.248797 59.801768 Z M 63.992688 59.811089 " transform="matrix(0.0918625, -0.160177, 0.15911, 0.0924795, 2.343211, 18.414202)"/><path fill="none" stroke-width="2.052" stroke-linecap="butt" stroke-linejoin="round" stroke="rgb(100%, 100%, 100%)" stroke-opacity="1" stroke-miterlimit="4" d="M 63.991534 59.836191 C 62.111879 59.836191 60.464541 61.090617 59.957668 62.919102 C 59.471914 64.747587 60.274463 66.661118 61.900682 67.617884 L 106.273205 93.259198 C 108.279578 94.407317 110.835064 93.705689 111.996648 91.728373 C 116.854183 83.330099 119.451908 73.69866 119.430789 64.003436 C 119.430789 61.685938 117.551134 59.836191 115.249085 59.836191 Z M 63.991534 59.836191 " transform="matrix(0, -0.184958, 0.183724, 0, 5.334751, 25.156027)"/></g></svg>
