<svg width="64" height="64" viewBox="0 0 64 64" version="1.1"><defs><linearGradient id="linear-pattern-0" gradientUnits="userSpaceOnUse" x1="0" y1="0" x2="0" y2="1" gradientTransform="matrix(60, 0, 0, 56, 0, 4)"><stop offset="0" stop-color="#6926fc" stop-opacity="1"/><stop offset="1" stop-color="#3702ab" stop-opacity="1"/></linearGradient></defs><path fill="url(#linear-pattern-0)" fill-opacity="1" d="M 36.21875 2.050781 L 62.027344 27.605469 C 64.402344 29.957031 64.417969 33.785156 62.058594 36.15625 L 36.460938 61.917969 C 34.105469 64.289062 30.269531 64.304688 27.894531 61.949219 L 2.085938 36.394531 C -0.289062 34.042969 -0.304688 30.214844 2.050781 27.84375 L 27.652344 2.082031 C 30.007812 -0.289062 33.84375 -0.304688 36.21875 2.050781 Z M 36.21875 2.050781 " /><g transform="matrix(1.0075098,0,0,1.0032698,16.221436,16.077397)"><path fill-rule="nonzero" fill="rgb(100%, 100%, 100%)" fill-opacity="1" d="M 7.988281 2 C 5.472656 2.027344 3.632812 1.9375 2.125 2.769531 C 1.371094 3.183594 0.777344 3.890625 0.449219 4.765625 C 0.117188 5.640625 0 6.683594 0 8 L 0 24 C 0 25.316406 0.117188 26.359375 0.449219 27.234375 C 0.777344 28.109375 1.371094 28.816406 2.125 29.230469 C 3.632812 30.0625 5.472656 29.96875 7.988281 30 L 24.011719 30 C 26.527344 29.972656 28.367188 30.0625 29.875 29.230469 C 30.628906 28.816406 31.222656 28.109375 31.554688 27.234375 C 31.882812 26.359375 32 25.316406 32 24 L 32 8 C 32 6.683594 31.882812 5.640625 31.550781 4.765625 C 31.222656 3.890625 30.628906 3.183594 29.875 2.769531 C 28.367188 1.9375 26.527344 2.03125 24.011719 2 Z M 8 4 L 24 4 C 26.515625 4.03125 28.171875 4.117188 28.90625 4.523438 C 29.273438 4.726562 29.484375 4.945312 29.679688 5.46875 C 29.875 5.988281 30 6.816406 30 8 L 30 24 C 30 25.183594 29.875 26.011719 29.679688 26.53125 C 29.484375 27.054688 29.273438 27.273438 28.90625 27.476562 C 28.171875 27.882812 26.515625 27.96875 24 28 L 8 28 C 5.484375 27.96875 3.820312 27.882812 3.089844 27.476562 C 2.726562 27.273438 2.515625 27.054688 2.320312 26.53125 C 2.125 26.011719 2 25.183594 2 24 L 2 8 C 2 6.816406 2.125 5.988281 2.320312 5.46875 C 2.515625 4.945312 2.726562 4.726562 3.089844 4.523438 C 3.820312 4.117188 5.484375 4.03125 8 4 Z M 8 4 "/><path fill-rule="nonzero" fill="rgb(100%, 100%, 100%)" fill-opacity="1" d="M 1.617188 3.820312 L 30.429688 3.820312 L 30.429688 8.539062 L 1.617188 8.539062 Z M 1.617188 3.820312 "/><path fill-rule="nonzero" fill="rgb(100%, 100%, 100%)" fill-opacity="1" d="M 22.46875 15.347656 L 22.46875 13.078125 L 20.195312 13.078125 Z M 22.46875 15.347656 "/><path fill-rule="nonzero" fill="rgb(100%, 100%, 100%)" fill-opacity="1" d="M 8.835938 17.617188 L 8.835938 26.703125 L 19.0625 26.703125 L 19.0625 25.570312 L 9.972656 25.570312 L 9.972656 16.859375 Z M 21.335938 16.484375 L 21.332031 26.703125 L 22.46875 26.703125 L 22.46875 17.617188 Z M 21.335938 16.484375 "/><path fill-rule="nonzero" fill="rgb(100%, 100%, 100%)" fill-opacity="1" d="M 15.652344 19.875 C 15.882812 19.820312 16.109375 19.773438 16.34375 19.734375 C 16.628906 19.6875 16.957031 19.664062 17.332031 19.664062 C 17.664062 19.664062 17.945312 19.710938 18.164062 19.8125 C 18.390625 19.902344 18.5625 20.03125 18.695312 20.207031 C 18.828125 20.375 18.921875 20.578125 18.976562 20.816406 C 19.03125 21.054688 19.0625 21.316406 19.0625 21.601562 L 19.0625 25.796875 L 15.652344 25.796875 Z M 15.652344 19.875 "/><path fill-rule="evenodd" fill="rgb(100%, 100%, 100%)" fill-opacity="1" d="M 15.652344 10 L 6.730469 18.921875 L 7.53125 19.726562 L 15.652344 11.605469 L 23.769531 19.726562 L 24.574219 18.921875 Z M 15.652344 10 "/></g></svg>
