<svg width="64" height="64" viewBox="0 0 64 64" version="1.1"><defs><linearGradient id="linear-pattern-0" gradientUnits="userSpaceOnUse" x1="0" y1="0" x2="0" y2="1" gradientTransform="matrix(60, 0, 0, 56, 0, 4)"><stop offset="0" stop-color="#0288cf" stop-opacity="1"/><stop offset="1" stop-color="#01486e" stop-opacity="1"/></linearGradient></defs><path fill="url(#linear-pattern-0)" fill-opacity="1" d="M 36.21875 2.050781 L 62.027344 27.605469 C 64.402344 29.957031 64.417969 33.785156 62.058594 36.15625 L 36.460938 61.917969 C 34.105469 64.289062 30.269531 64.304688 27.894531 61.949219 L 2.085938 36.394531 C -0.289062 34.042969 -0.304688 30.214844 2.050781 27.84375 L 27.652344 2.082031 C 30.007812 -0.289062 33.84375 -0.304688 36.21875 2.050781 Z M 36.21875 2.050781 " /><g transform="matrix(1.0075098,0,0,1.0032698,16.221436,16.077397)"><path fill-rule="nonzero" fill="rgb(100%, 100%, 100%)" fill-opacity="1" d="M 16.117188 1.234375 C 14.703125 1.1875 13.421875 2.03125 12.960938 3.3125 L 10.539062 10.011719 L 3.15625 10.152344 C 1.785156 10.175781 0.582031 11.03125 0.15625 12.285156 C -0.265625 13.539062 0.183594 14.914062 1.277344 15.707031 L 7.160156 19.992188 L 5.023438 26.777344 C 4.625 28.039062 5.101562 29.402344 6.210938 30.175781 C 7.320312 30.949219 8.820312 30.964844 9.945312 30.210938 L 16 26.15625 L 22.054688 30.210938 C 23.179688 30.964844 24.679688 30.949219 25.789062 30.175781 C 26.898438 29.402344 27.375 28.039062 26.976562 26.777344 L 24.839844 19.992188 L 30.722656 15.707031 C 31.816406 14.914062 32.265625 13.539062 31.84375 12.285156 C 31.417969 11.03125 30.214844 10.175781 28.84375 10.152344 L 21.460938 10.011719 L 19.039062 3.3125 C 18.601562 2.109375 17.441406 1.28125 16.117188 1.234375 Z M 16 5.765625 L 17.992188 11.265625 C 18.507812 12.703125 19.863281 13.671875 21.390625 13.703125 L 27.054688 13.8125 L 22.664062 17.007812 C 21.382812 17.9375 20.839844 19.585938 21.316406 21.101562 L 22.988281 26.390625 L 18.054688 23.089844 C 16.8125 22.257812 15.1875 22.257812 13.945312 23.089844 L 9.011719 26.390625 L 10.683594 21.101562 C 11.160156 19.585938 10.617188 17.9375 9.335938 17.007812 L 4.945312 13.8125 L 10.609375 13.703125 C 12.136719 13.671875 13.492188 12.703125 14.007812 11.265625 Z M 16 5.765625 "/></g></svg>
