<svg width="64" height="64" viewBox="0 0 64 64" version="1.1"><defs><linearGradient id="linear-pattern-0" gradientUnits="userSpaceOnUse" x1="0" y1="0" x2="0" y2="1" gradientTransform="matrix(60, 0, 0, 56, 0, 4)"><stop offset="0" stop-color="#aaaa00" stop-opacity="1"/><stop offset="1" stop-color="#5c5c00" stop-opacity="1"/></linearGradient></defs><path fill="url(#linear-pattern-0)" fill-opacity="1" d="M 36.21875 2.050781 L 62.027344 27.605469 C 64.402344 29.957031 64.417969 33.785156 62.058594 36.15625 L 36.460938 61.917969 C 34.105469 64.289062 30.269531 64.304688 27.894531 61.949219 L 2.085938 36.394531 C -0.289062 34.042969 -0.304688 30.214844 2.050781 27.84375 L 27.652344 2.082031 C 30.007812 -0.289062 33.84375 -0.304688 36.21875 2.050781 Z M 36.21875 2.050781 " /><g transform="matrix(1.0075098,0,0,1.0032698,16.221436,16.077397)"><path fill-rule="nonzero" fill="rgb(100%, 100%, 100%)" fill-opacity="1" d="M 16.039062 0.679688 C 7.519531 0.679688 0.617188 7.316406 0.617188 15.5 C 0.617188 23.679688 7.519531 30.320312 16.039062 30.320312 C 24.554688 30.320312 31.457031 23.679688 31.457031 15.5 C 31.457031 7.316406 24.554688 0.679688 16.039062 0.679688 Z M 16.039062 6.609375 C 21.148438 6.609375 25.289062 10.585938 25.289062 15.5 C 25.289062 20.410156 21.148438 24.390625 16.039062 24.390625 C 10.929688 24.390625 6.785156 20.410156 6.785156 15.5 C 6.785156 10.585938 10.929688 6.609375 16.039062 6.609375 Z M 16.039062 11.054688 C 13.765625 11.054688 11.925781 13.046875 11.925781 15.5 C 11.925781 17.953125 13.765625 19.945312 16.039062 19.945312 C 18.308594 19.945312 20.148438 17.953125 20.148438 15.5 C 20.148438 13.046875 18.308594 11.054688 16.039062 11.054688 Z M 16.039062 11.054688 "/></g></svg>
