<svg width="64" height="64" viewBox="0 0 64 64" version="1.1"><defs><linearGradient id="linear-pattern-0" gradientUnits="userSpaceOnUse" x1="0" y1="0" x2="0" y2="1" gradientTransform="matrix(60, 0, 0, 56, 0, 4)"><stop offset="0" stop-color="#3067ff" stop-opacity="1"/><stop offset="1" stop-color="#002ca6" stop-opacity="1"/></linearGradient></defs><path fill="url(#linear-pattern-0)" fill-opacity="1" d="M 36.21875 2.050781 L 62.027344 27.605469 C 64.402344 29.957031 64.417969 33.785156 62.058594 36.15625 L 36.460938 61.917969 C 34.105469 64.289062 30.269531 64.304688 27.894531 61.949219 L 2.085938 36.394531 C -0.289062 34.042969 -0.304688 30.214844 2.050781 27.84375 L 27.652344 2.082031 C 30.007812 -0.289062 33.84375 -0.304688 36.21875 2.050781 Z M 36.21875 2.050781 " /><g transform="matrix(1.0075098,0,0,1.0032698,16.221436,16.077397)"><path fill-rule="nonzero" fill="rgb(100%, 100%, 100%)" fill-opacity="1" d="M 27.445312 0.9375 C 27.398438 0.9375 27.351562 0.9375 27.300781 0.945312 C 24.375 1.234375 22.398438 3.421875 20.882812 6.03125 C 19.363281 8.648438 18.195312 11.859375 16.96875 14.84375 C 16.734375 15.421875 17.046875 16.0625 17.671875 16.28125 C 18.300781 16.496094 19 16.203125 19.234375 15.632812 C 20.480469 12.59375 21.648438 9.4375 23.019531 7.078125 C 24.273438 4.921875 25.601562 3.617188 27.140625 3.277344 C 28.148438 3.914062 28.78125 4.617188 28.773438 6.191406 C 28.765625 7.902344 27.773438 10.773438 25.226562 14.992188 C 24.21875 15.117188 23.410156 15.359375 22.882812 15.835938 C 22.40625 16.265625 22.398438 16.972656 22.871094 17.410156 C 23.34375 17.847656 24.109375 17.851562 24.585938 17.421875 C 24.539062 17.460938 25.023438 17.132812 26.09375 17.101562 C 26.511719 17.085938 26.898438 16.875 27.101562 16.539062 C 29.992188 11.863281 31.191406 8.671875 31.195312 6.195312 C 31.207031 3.722656 29.757812 2.050781 28.058594 1.101562 C 27.875 1 27.664062 0.941406 27.445312 0.9375 Z M 5.265625 2.507812 C 4.019531 2.507812 2.8125 2.882812 1.929688 3.664062 C 1.050781 4.441406 0.574219 5.585938 0.574219 6.8125 L 0.574219 24.867188 C 0.574219 26.0625 0.855469 27.226562 1.671875 28.148438 C 2.484375 29.074219 3.820312 29.59375 5.265625 29.59375 L 14.703125 29.59375 C 15.539062 29.59375 16.21875 28.972656 16.21875 28.203125 C 16.21875 27.4375 15.539062 26.8125 14.703125 26.8125 L 5.265625 26.8125 C 4.5 26.8125 4.246094 26.652344 4.027344 26.402344 C 3.804688 26.148438 3.601562 25.648438 3.601562 24.867188 L 3.601562 6.8125 C 3.601562 6.195312 3.789062 5.882812 4.03125 5.664062 C 4.277344 5.449219 4.65625 5.289062 5.265625 5.289062 L 18.71875 5.289062 C 19.554688 5.289062 20.234375 4.667969 20.234375 3.898438 C 20.234375 3.132812 19.554688 2.507812 18.71875 2.507812 Z M 26.789062 4.425781 C 26.421875 4.4375 26.074219 4.605469 25.855469 4.882812 C 21.078125 10.875 16.832031 20.894531 17.667969 30.632812 C 17.71875 31.242188 18.304688 31.703125 18.972656 31.65625 C 19.640625 31.605469 20.136719 31.070312 20.085938 30.457031 C 19.3125 21.445312 23.398438 11.726562 27.8125 6.195312 C 28.203125 5.703125 28.085938 5.003906 27.546875 4.640625 C 27.328125 4.492188 27.0625 4.417969 26.789062 4.425781 Z M 16.34375 16.726562 C 16.269531 16.726562 16.199219 16.734375 16.128906 16.742188 C 15.46875 16.835938 15.015625 17.40625 15.117188 18.011719 C 15.207031 18.5625 15.441406 19.433594 15.710938 20.34375 C 15.890625 20.9375 16.554688 21.28125 17.203125 21.125 C 17.84375 20.960938 18.226562 20.351562 18.046875 19.757812 C 17.796875 18.898438 17.558594 17.960938 17.507812 17.671875 C 17.421875 17.140625 16.929688 16.742188 16.34375 16.726562 Z M 24.796875 18.023438 C 24.453125 18.023438 24.125 18.160156 23.898438 18.398438 C 23.089844 19.226562 22.6875 19.429688 21.644531 20.21875 C 21.125 20.601562 21.046875 21.304688 21.472656 21.78125 C 21.898438 22.257812 22.660156 22.328125 23.179688 21.9375 C 24.140625 21.214844 24.757812 20.851562 25.703125 19.878906 C 26.148438 19.421875 26.105469 18.71875 25.605469 18.304688 C 25.382812 18.125 25.09375 18.023438 24.796875 18.023438 Z M 24.796875 18.023438 "/></g></svg>
