<svg width="64" height="64" viewBox="0 0 64 64" version="1.1"><defs><linearGradient id="linear-pattern-0" gradientUnits="userSpaceOnUse" x1="0" y1="0" x2="0" y2="1" gradientTransform="matrix(60, 0, 0, 56, 0, 4)"><stop offset="0" stop-color="#d00068" stop-opacity="1"/><stop offset="1" stop-color="#6e0037" stop-opacity="1"/></linearGradient></defs><path fill="url(#linear-pattern-0)" fill-opacity="1" d="M 36.21875 2.050781 L 62.027344 27.605469 C 64.402344 29.957031 64.417969 33.785156 62.058594 36.15625 L 36.460938 61.917969 C 34.105469 64.289062 30.269531 64.304688 27.894531 61.949219 L 2.085938 36.394531 C -0.289062 34.042969 -0.304688 30.214844 2.050781 27.84375 L 27.652344 2.082031 C 30.007812 -0.289062 33.84375 -0.304688 36.21875 2.050781 Z M 36.21875 2.050781 " /><g transform="matrix(1.0075098,0,0,1.0032698,16.221436,16.077397)"><path fill-rule="nonzero" fill="rgb(100%, 100%, 100%)" fill-opacity="1" d="M 16.257812 0.5625 C 14.851562 0.582031 10.03125 3.84375 10.03125 18.914062 L 12.8125 18.914062 C 12.804688 4.898438 15.5 0.578125 16.265625 0.570312 C 15.90625 0.578125 14.886719 5.976562 14.886719 18.914062 L 17.652344 18.914062 C 17.652344 5.984375 16.644531 0.589844 16.28125 0.570312 C 17.054688 0.605469 19.726562 4.941406 19.71875 18.914062 L 22.496094 18.914062 C 22.496094 3.828125 17.671875 0.578125 16.28125 0.570312 C 19.054688 0.578125 24.574219 4.90625 24.5625 18.914062 L 27.34375 18.914062 C 27.34375 3.824219 19.070312 0.574219 16.289062 0.5625 Z M 16.257812 0.5625 C 13.476562 0.574219 5.195312 3.824219 5.195312 18.914062 L 7.976562 18.914062 C 7.96875 4.902344 13.480469 0.578125 16.257812 0.5625 Z M 16.257812 0.5625 "/><path fill-rule="nonzero" fill="rgb(100%, 100%, 100%)" fill-opacity="1" d="M 16.367188 27.355469 L 16.914062 27.355469 C 17.527344 27.355469 18.023438 27.742188 18.023438 28.21875 L 18.023438 30.804688 C 18.023438 31.285156 17.527344 31.671875 16.914062 31.671875 L 16.367188 31.671875 C 15.753906 31.671875 15.257812 31.285156 15.257812 30.804688 L 15.257812 28.21875 C 15.257812 27.742188 15.753906 27.355469 16.367188 27.355469 Z M 16.367188 27.355469 "/><path fill-rule="nonzero" fill="rgb(100%, 100%, 100%)" fill-opacity="1" d="M 4.070312 17.949219 C 3.6875 17.949219 3.375 18.195312 3.375 18.492188 C 3.375 18.789062 3.6875 19.03125 4.070312 19.03125 C 4.449219 19.03125 4.757812 18.789062 4.757812 18.492188 C 4.757812 18.195312 4.449219 17.949219 4.070312 17.949219 Z M 29.089844 17.949219 C 28.710938 17.949219 28.398438 18.195312 28.398438 18.492188 C 28.398438 18.789062 28.710938 19.03125 29.089844 19.03125 C 29.46875 19.03125 29.777344 18.789062 29.777344 18.492188 C 29.777344 18.195312 29.46875 17.949219 29.089844 17.949219 Z M 6.140625 19.300781 C 5.570312 19.300781 5.109375 19.664062 5.109375 20.109375 C 5.109375 20.554688 5.570312 20.921875 6.140625 20.921875 C 6.714844 20.921875 7.179688 20.554688 7.179688 20.109375 C 7.179688 19.664062 6.714844 19.300781 6.140625 19.300781 Z M 27.015625 19.300781 C 26.4375 19.300781 25.976562 19.664062 25.976562 20.109375 C 25.976562 20.554688 26.4375 20.921875 27.015625 20.921875 C 27.585938 20.921875 28.054688 20.554688 28.054688 20.109375 C 28.054688 19.664062 27.585938 19.300781 27.015625 19.300781 Z M 9.773438 20.109375 C 8.914062 20.109375 8.21875 20.65625 8.21875 21.324219 C 8.21875 21.992188 8.914062 22.539062 9.773438 22.539062 C 10.632812 22.539062 11.328125 21.992188 11.328125 21.324219 C 11.328125 20.65625 10.632812 20.109375 9.773438 20.109375 Z M 23.386719 20.109375 C 22.53125 20.109375 21.832031 20.65625 21.832031 21.324219 C 21.832031 21.992188 22.53125 22.539062 23.386719 22.539062 C 24.242188 22.539062 24.941406 21.992188 24.941406 21.324219 C 24.941406 20.65625 24.242188 20.109375 23.386719 20.109375 Z M 14.089844 20.921875 C 13.140625 20.921875 12.363281 21.523438 12.363281 22.269531 C 12.363281 23.015625 13.140625 23.617188 14.089844 23.617188 C 15.046875 23.617188 15.820312 23.015625 15.820312 22.269531 C 15.820312 21.523438 15.046875 20.921875 14.089844 20.921875 M 19.0625 20.921875 C 18.113281 20.921875 17.335938 21.523438 17.335938 22.269531 C 17.335938 23.015625 18.113281 23.617188 19.0625 23.617188 C 20.023438 23.617188 20.796875 23.015625 20.796875 22.269531 C 20.796875 21.523438 20.023438 20.921875 19.0625 20.921875 Z M 4.734375 21.1875 C 4.554688 21.203125 4.414062 21.320312 4.414062 21.460938 C 4.414062 21.609375 4.566406 21.730469 4.761719 21.730469 C 4.953125 21.730469 5.109375 21.609375 5.109375 21.460938 C 5.109375 21.3125 4.953125 21.1875 4.761719 21.1875 Z M 28.398438 21.1875 C 28.210938 21.1875 28.054688 21.3125 28.054688 21.460938 C 28.054688 21.609375 28.210938 21.730469 28.398438 21.730469 C 28.59375 21.730469 28.746094 21.609375 28.746094 21.460938 C 28.746094 21.3125 28.59375 21.1875 28.398438 21.1875 Z M 6.664062 22.269531 C 6.1875 22.269531 5.796875 22.570312 5.796875 22.945312 C 5.796875 23.316406 6.1875 23.617188 6.664062 23.617188 C 7.140625 23.617188 7.53125 23.316406 7.53125 22.945312 C 7.53125 22.570312 7.140625 22.269531 6.664062 22.269531 Z M 26.5 22.269531 C 26.023438 22.269531 25.632812 22.570312 25.632812 22.945312 C 25.632812 23.316406 26.023438 23.617188 26.5 23.617188 C 26.976562 23.617188 27.367188 23.316406 27.367188 22.945312 C 27.367188 22.570312 26.976562 22.269531 26.5 22.269531 Z M 10.15625 23.832031 C 9.46875 23.832031 8.910156 24.269531 8.914062 24.804688 C 8.914062 25.339844 9.46875 25.777344 10.15625 25.777344 C 10.84375 25.777344 11.398438 25.339844 11.398438 24.804688 C 11.398438 24.269531 10.84375 23.832031 10.15625 23.832031 Z M 23.011719 23.832031 C 22.320312 23.835938 21.765625 24.269531 21.765625 24.804688 C 21.765625 25.339844 22.328125 25.777344 23.011719 25.777344 C 23.695312 25.777344 24.253906 25.339844 24.253906 24.804688 C 24.253906 24.269531 23.695312 23.832031 23.011719 23.832031 Z M 14.40625 24.695312 C 13.546875 24.695312 12.851562 25.242188 12.851562 25.914062 C 12.851562 26.582031 13.546875 27.125 14.40625 27.125 C 15.265625 27.125 15.960938 26.582031 15.960938 25.914062 C 15.960938 25.242188 15.265625 24.695312 14.40625 24.695312 Z M 18.757812 24.695312 C 17.898438 24.695312 17.203125 25.242188 17.203125 25.914062 C 17.203125 26.582031 17.898438 27.125 18.757812 27.125 C 19.617188 27.125 20.3125 26.582031 20.3125 25.914062 C 20.3125 25.242188 19.617188 24.695312 18.757812 24.695312 Z M 18.757812 24.695312 "/></g></svg>
