<svg width="64" height="64" viewBox="0 0 64 64" version="1.1"><defs><linearGradient id="linear-pattern-0" gradientUnits="userSpaceOnUse" x1="0" y1="0" x2="0" y2="1" gradientTransform="matrix(60, 0, 0, 56, 0, 4)"><stop offset="0" stop-color="#aaaa00" stop-opacity="1"/><stop offset="1" stop-color="#5c5c00" stop-opacity="1"/></linearGradient></defs><path fill="url(#linear-pattern-0)" fill-opacity="1" d="M 36.21875 2.050781 L 62.027344 27.605469 C 64.402344 29.957031 64.417969 33.785156 62.058594 36.15625 L 36.460938 61.917969 C 34.105469 64.289062 30.269531 64.304688 27.894531 61.949219 L 2.085938 36.394531 C -0.289062 34.042969 -0.304688 30.214844 2.050781 27.84375 L 27.652344 2.082031 C 30.007812 -0.289062 33.84375 -0.304688 36.21875 2.050781 Z M 36.21875 2.050781 " /><g transform="matrix(1.0075098,0,0,1.0032698,16.221436,16.077397)"><path fill-rule="nonzero" fill="rgb(100%, 100%, 100%)" fill-opacity="1" d="M 20.394531 31.726562 C 20.046875 31.402344 19.714844 30.8125 19.570312 30.253906 C 19.507812 30.035156 19.445312 29.84375 19.429688 29.820312 C 19.410156 29.804688 19.171875 29.664062 18.90625 29.507812 C 18.335938 29.183594 18.195312 29.015625 18.398438 28.898438 C 18.71875 28.703125 19.0625 28.332031 19.226562 28 C 19.40625 27.625 19.617188 26.933594 19.5625 26.878906 C 19.546875 26.859375 19.257812 26.929688 18.929688 27.03125 C 17.332031 27.523438 15.335938 27.59375 13.851562 27.21875 C 13.589844 27.15625 13.363281 27.109375 13.347656 27.125 C 13.304688 27.167969 13.554688 27.851562 13.691406 28.078125 C 13.875 28.371094 14.140625 28.648438 14.351562 28.757812 C 14.453125 28.8125 14.539062 28.898438 14.539062 28.953125 C 14.539062 29.074219 14.203125 29.328125 13.75 29.558594 C 13.417969 29.722656 13.398438 29.75 13.28125 30.164062 C 12.945312 31.378906 12.0625 32.265625 11.644531 31.804688 C 11.480469 31.621094 11.503906 31.160156 11.710938 30.539062 C 11.808594 30.246094 11.871094 29.992188 11.851562 29.96875 C 11.828125 29.945312 11.617188 29.996094 11.382812 30.074219 C 10.652344 30.316406 10.257812 30.367188 9.992188 30.257812 C 9.699219 30.136719 9.59375 29.835938 9.796875 29.695312 C 10.078125 29.484375 11.292969 29.238281 12.421875 29.15625 L 13.070312 29.109375 L 12.820312 28.59375 C 12.5625 28.070312 12.28125 27.167969 12.28125 26.859375 C 12.28125 26.71875 12.195312 26.625 11.835938 26.394531 C 10.257812 25.371094 9.398438 23.660156 9.382812 21.484375 C 9.382812 20.988281 9.363281 20.578125 9.34375 20.578125 C 9.328125 20.578125 9.140625 20.75 8.929688 20.960938 C 8.527344 21.359375 8.117188 21.558594 7.878906 21.472656 C 7.800781 21.445312 7.667969 21.320312 7.585938 21.195312 C 7.484375 21.046875 7.421875 21.003906 7.398438 21.070312 C 7.382812 21.117188 7.28125 21.390625 7.1875 21.671875 C 7.085938 21.953125 6.867188 22.46875 6.703125 22.808594 C 6.03125 24.195312 5.703125 23.984375 5.691406 22.171875 C 5.6875 21.671875 5.671875 21.265625 5.652344 21.265625 C 5.632812 21.265625 5.46875 21.515625 5.28125 21.820312 C 4.761719 22.6875 4.195312 23.21875 4.046875 22.96875 C 3.96875 22.851562 3.992188 21.390625 4.078125 20.925781 C 4.414062 19.097656 5.691406 17.425781 7.644531 16.269531 C 8.429688 15.804688 9.335938 15.390625 9.703125 15.328125 L 9.980469 15.28125 L 9.570312 15.027344 C 9.070312 14.71875 8.628906 14.25 8.433594 13.824219 C 8.21875 13.347656 8.234375 12.550781 8.46875 11.984375 L 8.644531 11.5625 L 8.398438 11.410156 C 8.246094 11.320312 8.183594 11.25 8.234375 11.234375 C 8.292969 11.210938 8.164062 11.054688 7.910156 10.824219 C 7.679688 10.617188 7.445312 10.355469 7.390625 10.246094 L 7.285156 10.046875 L 7.699219 10.257812 C 8.132812 10.472656 8.1875 10.460938 8 10.195312 C 7.910156 10.0625 7.679688 9.4375 7.726562 9.4375 C 7.734375 9.4375 7.890625 9.515625 8.074219 9.609375 C 8.257812 9.703125 8.449219 9.777344 8.5 9.777344 C 8.601562 9.777344 8.609375 9.75 8.796875 8.617188 C 8.867188 8.144531 8.984375 7.59375 9.042969 7.382812 C 9.632812 5.382812 11.089844 3.835938 13.050781 3.140625 C 13.632812 2.929688 13.65625 2.914062 13.851562 2.5625 C 13.964844 2.359375 14.152344 2.089844 14.269531 1.953125 C 14.480469 1.71875 15.09375 1.234375 15.1875 1.234375 C 15.210938 1.234375 15.210938 1.332031 15.1875 1.453125 C 15.148438 1.636719 15.15625 1.664062 15.234375 1.597656 C 16.101562 0.894531 16.929688 0.414062 17.742188 0.140625 C 18.40625 -0.0820312 18.488281 -0.046875 18.117188 0.292969 C 17.75 0.632812 16.972656 1.570312 17.015625 1.613281 C 17.035156 1.632812 17.1875 1.585938 17.351562 1.515625 C 17.515625 1.445312 17.875 1.335938 18.144531 1.273438 C 18.652344 1.160156 19.53125 1.125 19.53125 1.21875 C 19.53125 1.25 19.375 1.421875 19.183594 1.609375 C 18.859375 1.929688 18.300781 2.6875 18.300781 2.804688 C 18.300781 2.835938 18.414062 2.882812 18.554688 2.90625 C 19.015625 2.992188 20.039062 3.359375 20.648438 3.664062 C 22.542969 4.601562 23.570312 5.972656 23.867188 7.945312 C 23.921875 8.296875 24.011719 8.75 24.070312 8.957031 C 24.132812 9.164062 24.179688 9.433594 24.179688 9.558594 C 24.179688 9.6875 24.21875 9.796875 24.273438 9.820312 C 24.351562 9.851562 24.703125 9.71875 25.078125 9.523438 C 25.164062 9.476562 25 9.976562 24.851562 10.226562 C 24.773438 10.359375 24.71875 10.480469 24.734375 10.492188 C 24.75 10.507812 24.9375 10.429688 25.15625 10.320312 L 25.546875 10.125 L 25.445312 10.320312 C 25.394531 10.421875 25.164062 10.679688 24.9375 10.890625 C 24.710938 11.101562 24.5625 11.28125 24.605469 11.300781 C 24.710938 11.335938 24.398438 11.546875 24.0625 11.664062 C 23.910156 11.71875 23.8125 11.789062 23.828125 11.84375 C 24.09375 12.847656 24.125 13.054688 24.09375 13.535156 C 24.042969 14.238281 23.835938 14.753906 23.414062 15.214844 C 23.078125 15.578125 23.078125 15.589844 23.253906 15.589844 C 23.457031 15.589844 24.671875 16.386719 25.617188 17.140625 C 27.007812 18.25 28.167969 19.65625 28.484375 20.609375 C 28.84375 21.683594 28.523438 22.65625 27.851562 22.546875 L 27.632812 22.507812 L 27.65625 22.828125 C 27.6875 23.285156 27.578125 23.519531 27.339844 23.519531 C 26.894531 23.519531 25.976562 22.671875 25.542969 21.859375 L 25.3125 21.433594 L 25.257812 21.703125 C 25.132812 22.320312 24.875 22.3125 24.03125 21.671875 C 23.6875 21.410156 23.382812 21.195312 23.355469 21.195312 C 23.328125 21.195312 23.292969 21.507812 23.269531 21.898438 C 23.226562 22.636719 23 23.675781 22.742188 24.3125 C 22.65625 24.515625 22.605469 24.703125 22.625 24.726562 C 22.648438 24.746094 22.851562 24.78125 23.085938 24.800781 L 23.5 24.835938 L 23.324219 25.023438 C 23.226562 25.128906 23.039062 25.269531 22.910156 25.335938 C 22.78125 25.40625 22.675781 25.488281 22.675781 25.515625 C 22.675781 25.566406 23.257812 25.605469 23.484375 25.574219 C 23.535156 25.570312 23.558594 25.59375 23.535156 25.632812 C 23.476562 25.730469 22.828125 25.960938 22.453125 26.015625 C 22.273438 26.042969 22.148438 26.089844 22.164062 26.125 C 22.234375 26.230469 21.84375 26.273438 21.515625 26.199219 C 21.234375 26.132812 21.15625 26.140625 20.921875 26.257812 C 20.648438 26.390625 20.648438 26.398438 20.5625 26.9375 C 20.46875 27.546875 20.25 28.234375 19.984375 28.765625 C 19.886719 28.960938 19.804688 29.132812 19.804688 29.148438 C 19.804688 29.164062 20.078125 29.195312 20.410156 29.21875 C 21.578125 29.308594 22.757812 29.554688 23.046875 29.761719 C 23.140625 29.832031 23.164062 29.90625 23.128906 30.035156 C 23.03125 30.417969 22.492188 30.46875 21.585938 30.179688 C 21.273438 30.085938 21.007812 30.015625 20.996094 30.03125 C 20.984375 30.046875 21.046875 30.292969 21.140625 30.585938 C 21.335938 31.195312 21.359375 31.730469 21.199219 31.890625 C 21.007812 32.082031 20.71875 32.023438 20.394531 31.726562 Z M 16.890625 14.136719 C 17.148438 13.773438 17.75 12.65625 17.75 12.546875 C 17.75 12.527344 17.195312 12.511719 16.515625 12.511719 L 15.28125 12.511719 L 15.328125 12.664062 C 15.492188 13.1875 16.359375 14.5625 16.53125 14.5625 C 16.5625 14.5625 16.71875 14.371094 16.890625 14.136719 Z M 13.871094 11.632812 C 14.351562 11.09375 13.808594 10.257812 12.976562 10.257812 C 12.730469 10.257812 12.640625 10.296875 12.445312 10.492188 C 12.195312 10.742188 12.164062 10.898438 12.308594 11.234375 C 12.585938 11.882812 13.445312 12.101562 13.871094 11.632812 Z M 20 11.710938 C 20.242188 11.53125 20.488281 11.160156 20.488281 10.96875 C 20.488281 10.546875 20.164062 10.257812 19.695312 10.257812 C 19.183594 10.257812 18.742188 10.617188 18.664062 11.101562 C 18.617188 11.386719 18.722656 11.589844 19.007812 11.765625 C 19.273438 11.9375 19.734375 11.910156 20 11.710938 Z M 11.382812 6.75 C 11.609375 6.34375 12.0625 5.90625 12.3125 5.84375 C 12.40625 5.820312 12.632812 5.820312 12.8125 5.839844 C 13.449219 5.921875 13.476562 5.921875 13.5 5.800781 C 13.546875 5.578125 13.273438 5.40625 12.886719 5.40625 C 12.246094 5.40625 11.726562 5.773438 11.367188 6.484375 C 11.195312 6.835938 11.09375 7.109375 11.144531 7.109375 C 11.164062 7.109375 11.265625 6.949219 11.382812 6.75 Z M 21.492188 6.546875 C 21.109375 5.769531 20.617188 5.402344 19.957031 5.402344 C 19.570312 5.402344 19.296875 5.578125 19.339844 5.800781 C 19.363281 5.921875 19.390625 5.921875 20.027344 5.839844 C 20.207031 5.820312 20.429688 5.820312 20.523438 5.84375 C 20.78125 5.90625 21.226562 6.34375 21.460938 6.753906 C 21.757812 7.28125 21.78125 7.132812 21.492188 6.546875 Z M 21.492188 6.546875 "/></g></svg>
