<svg width="64" height="64" viewBox="0 0 64 64" version="1.1"><defs><linearGradient id="linear-pattern-0" gradientUnits="userSpaceOnUse" x1="0" y1="0" x2="0" y2="1" gradientTransform="matrix(60, 0, 0, 56, 0, 4)"><stop offset="0" stop-color="#8900e4" stop-opacity="1"/><stop offset="1" stop-color="#42006e" stop-opacity="1"/></linearGradient></defs><path fill="url(#linear-pattern-0)" fill-opacity="1" d="M 36.21875 2.050781 L 62.027344 27.605469 C 64.402344 29.957031 64.417969 33.785156 62.058594 36.15625 L 36.460938 61.917969 C 34.105469 64.289062 30.269531 64.304688 27.894531 61.949219 L 2.085938 36.394531 C -0.289062 34.042969 -0.304688 30.214844 2.050781 27.84375 L 27.652344 2.082031 C 30.007812 -0.289062 33.84375 -0.304688 36.21875 2.050781 Z M 36.21875 2.050781 " /><g transform="matrix(1.0075098,0,0,1.0032698,16.221436,16.077397)"><path fill-rule="nonzero" fill="rgb(100%, 100%, 100%)" fill-opacity="1" d="M 25.835938 0.550781 C 19.382812 0.550781 18.167969 9.695312 21.800781 9.695312 C 25.429688 9.695312 32.292969 0.550781 25.835938 0.550781 M 15.859375 1.667969 C 15.757812 1.667969 15.648438 1.679688 15.539062 1.695312 C 11.90625 2.164062 13.179688 8.445312 15.117188 8.5625 C 16.992188 8.671875 19.039062 1.683594 15.859375 1.667969 M 9.570312 4.15625 C 9.375 4.164062 9.164062 4.207031 8.9375 4.300781 C 6.015625 5.5 8.492188 10.445312 10.132812 10.109375 C 11.640625 9.804688 11.835938 4.109375 9.570312 4.15625 M 4.820312 8.035156 C 4.59375 8.046875 4.351562 8.132812 4.09375 8.3125 C 1.757812 9.914062 4.882812 13.796875 6.253906 13.195312 C 7.476562 12.65625 6.664062 7.929688 4.820312 8.035156 M 17.882812 11 C 12.921875 11.046875 6.617188 13.546875 5.515625 18.4375 C 4.296875 23.867188 10.539062 31.40625 17.058594 31.40625 C 20.261719 31.40625 23.960938 28.53125 24.65625 24.882812 C 25.179688 22.101562 18.433594 23.214844 18.679688 25.054688 C 18.96875 27.265625 17.050781 28.351562 15.171875 26.925781 C 9.195312 22.402344 25.070312 20.140625 24.023438 13.957031 C 23.6875 11.953125 21.0625 10.972656 17.882812 11 "/></g></svg>
