<svg width="64" height="64" viewBox="0 0 64 64" version="1.1"><defs><linearGradient id="linear-pattern-0" gradientUnits="userSpaceOnUse" x1="0" y1="0" x2="0" y2="1" gradientTransform="matrix(60, 0, 0, 56, 0, 4)"><stop offset="0" stop-color="#a67e50" stop-opacity="1"/><stop offset="1" stop-color="#644c30" stop-opacity="1"/></linearGradient></defs><path fill="url(#linear-pattern-0)" fill-opacity="1" d="M 36.21875 2.050781 L 62.027344 27.605469 C 64.402344 29.957031 64.417969 33.785156 62.058594 36.15625 L 36.460938 61.917969 C 34.105469 64.289062 30.269531 64.304688 27.894531 61.949219 L 2.085938 36.394531 C -0.289062 34.042969 -0.304688 30.214844 2.050781 27.84375 L 27.652344 2.082031 C 30.007812 -0.289062 33.84375 -0.304688 36.21875 2.050781 Z M 36.21875 2.050781 " /><g transform="matrix(1.0075098,0,0,1.0032698,16.221436,16.077397)"><path fill-rule="evenodd" fill="rgb(100%, 100%, 100%)" fill-opacity="1" d="M 8.371094 5.984375 L 8.371094 22.757812 L 13.257812 22.757812 L 13.257812 26.015625 L 0 26.015625 L 0 22.757812 L 4.972656 22.757812 L 4.972656 10.328125 L 0.628906 11.5 L 0.628906 8.300781 Z M 29.457031 26.015625 L 26.140625 26.015625 L 26.140625 21.671875 L 16.570312 21.671875 L 16.570312 19.558594 L 26.140625 6.015625 L 29.457031 6.015625 L 29.457031 18.558594 L 32 18.558594 L 32 21.671875 L 29.457031 21.671875 Z M 20.972656 18.558594 L 26.140625 18.558594 L 26.140625 10.757812 Z M 20.972656 18.558594 "/></g></svg>
