<svg width="64" height="64" viewBox="0 0 64 64" version="1.1"><defs><linearGradient id="linear-pattern-0" gradientUnits="userSpaceOnUse" x1="0" y1="0" x2="0" y2="1" gradientTransform="matrix(60, 0, 0, 56, 0, 4)"><stop offset="0" stop-color="#00983a" stop-opacity="1"/><stop offset="1" stop-color="#004a1c" stop-opacity="1"/></linearGradient></defs><path fill="url(#linear-pattern-0)" fill-opacity="1" d="M 36.21875 2.050781 L 62.027344 27.605469 C 64.402344 29.957031 64.417969 33.785156 62.058594 36.15625 L 36.460938 61.917969 C 34.105469 64.289062 30.269531 64.304688 27.894531 61.949219 L 2.085938 36.394531 C -0.289062 34.042969 -0.304688 30.214844 2.050781 27.84375 L 27.652344 2.082031 C 30.007812 -0.289062 33.84375 -0.304688 36.21875 2.050781 Z M 36.21875 2.050781 " /><g transform="matrix(1.0075098,0,0,1.0032698,16.221436,16.077397)"><path fill-rule="nonzero" fill="rgb(100%, 100%, 100%)" fill-opacity="1" d="M 14.8125 0.714844 L 9.277344 2.914062 L 5.957031 6.214844 L 4.851562 11.710938 L 7.0625 16.113281 L 5.957031 15.015625 L 4.851562 16.113281 L 8.171875 21.609375 L 9.277344 24.914062 L 9.277344 29.3125 L 7.0625 30.410156 L 9.277344 31.507812 L 10.382812 30.410156 L 10.382812 27.109375 L 13.703125 29.3125 L 17.023438 28.210938 L 13.703125 28.210938 L 10.382812 26.011719 L 9.277344 21.609375 L 11.492188 22.710938 L 8.171875 19.414062 L 8.171875 17.210938 L 10.382812 8.414062 L 9.277344 7.3125 L 14.8125 7.3125 Z M 15.917969 0.714844 L 15.917969 6.214844 L 22.5625 6.214844 L 22.5625 7.3125 L 15.917969 7.3125 L 15.917969 11.710938 L 19.238281 11.710938 L 19.238281 12.8125 L 15.917969 12.8125 L 15.917969 17.210938 L 18.132812 19.414062 L 18.132812 21.609375 L 15.917969 21.609375 L 15.917969 26.011719 L 17.023438 27.109375 L 20.347656 28.210938 L 18.132812 29.3125 L 21.453125 30.410156 L 22.5625 31.507812 L 24.773438 30.410156 L 22.5625 29.3125 L 22.5625 26.320312 L 23.664062 23.8125 L 25.878906 18.3125 L 26.984375 11.710938 L 26.542969 9.515625 L 20.347656 9.515625 L 20.347656 8.414062 L 26.320312 8.414062 L 25.878906 6.214844 L 22.5625 2.914062 Z M 23.15625 12.265625 C 24.195312 13.296875 24.773438 14.695312 24.773438 16.15625 C 24.773438 19.195312 22.296875 21.65625 19.238281 21.65625 L 19.238281 20.746094 C 21.785156 20.746094 23.851562 18.6875 23.851562 16.15625 C 23.851562 14.9375 23.367188 13.773438 22.503906 12.914062 Z M 19.238281 13.957031 C 20.453125 13.957031 21.453125 14.945312 21.453125 16.15625 C 21.453125 17.371094 20.460938 18.355469 19.238281 18.355469 C 18.015625 18.355469 17.023438 17.371094 17.023438 16.15625 C 17.023438 14.945312 18.015625 13.957031 19.238281 13.957031 Z M 10.992188 15.054688 L 10.386719 16.71875 L 11.492188 16.15625 L 11.492188 17.257812 L 12.601562 17.257812 L 13.707031 16.15625 L 14.816406 16.15625 L 13.707031 15.054688 Z M 21.785156 16.15625 L 23.445312 16.15625 C 23.445312 18.445312 21.59375 20.335938 19.238281 20.335938 L 19.238281 18.6875 C 20.65625 18.6875 21.785156 17.601562 21.785156 16.15625 Z M 21.785156 16.15625 "/></g></svg>
