<svg width="64" height="64" viewBox="0 0 64 64" version="1.1"><defs><linearGradient id="linear-pattern-0" gradientUnits="userSpaceOnUse" x1="0" y1="0" x2="0" y2="1" gradientTransform="matrix(60, 0, 0, 56, 0, 4)"><stop offset="0" stop-color="#a67e50" stop-opacity="1"/><stop offset="1" stop-color="#644c30" stop-opacity="1"/></linearGradient></defs><path fill="url(#linear-pattern-0)" fill-opacity="1" d="M 36.21875 2.050781 L 62.027344 27.605469 C 64.402344 29.957031 64.417969 33.785156 62.058594 36.15625 L 36.460938 61.917969 C 34.105469 64.289062 30.269531 64.304688 27.894531 61.949219 L 2.085938 36.394531 C -0.289062 34.042969 -0.304688 30.214844 2.050781 27.84375 L 27.652344 2.082031 C 30.007812 -0.289062 33.84375 -0.304688 36.21875 2.050781 Z M 36.21875 2.050781 " /><g transform="matrix(1.0075098,0,0,1.0032698,16.221436,16.077397)"><path fill-rule="nonzero" fill="rgb(100%, 100%, 100%)" fill-opacity="1" d="M 13.078125 1.304688 C 13.078125 1.304688 10.929688 1.304688 9.851562 4.460938 C 8.78125 3.40625 8.78125 2.355469 8.78125 2.355469 C 8.78125 2.355469 5.558594 4.460938 5.558594 7.613281 C 5.558594 9.71875 7.707031 11.820312 7.707031 11.820312 C 7.707031 11.820312 5.558594 11.820312 5.558594 13.921875 C 5.558594 16.023438 7.707031 16.023438 7.707031 16.023438 L 7.707031 17.078125 C 7.707031 17.078125 7.71875 19.527344 11.070312 20.683594 C 10.015625 21.09375 8.738281 21.871094 7.707031 23.382812 C 6.890625 24.585938 7.707031 26.539062 6.632812 27.59375 C 6.066406 28.148438 4.484375 28.640625 4.484375 28.640625 C 4.484375 28.640625 7.707031 30.746094 15.226562 30.746094 C 22.742188 30.746094 25.960938 28.640625 25.960938 28.640625 C 25.960938 28.640625 24.382812 28.148438 23.8125 27.59375 L 23.8125 26.539062 L 23.242188 26.257812 C 23.117188 25.289062 23.28125 24.179688 22.742188 23.390625 C 21.710938 21.875 20.429688 21.097656 19.378906 20.6875 C 22.730469 19.53125 22.742188 17.078125 22.742188 17.078125 L 22.742188 16.03125 C 22.742188 16.03125 24.890625 16.03125 24.890625 13.925781 C 24.890625 11.824219 22.742188 11.824219 22.742188 11.824219 L 22.742188 9.71875 C 22.742188 9.71875 23.8125 9.71875 25.960938 11.824219 C 25.960938 10.773438 24.890625 9.71875 24.890625 9.71875 C 24.890625 9.71875 25.960938 8.667969 28.109375 10.773438 C 27.039062 7.617188 25.960938 6.566406 24.890625 6.566406 C 25.960938 5.515625 27.039062 6.566406 27.039062 6.566406 C 27.039062 6.566406 25.960938 3.414062 22.742188 3.414062 C 17.371094 3.414062 16.296875 4.460938 14.148438 5.515625 C 14.148438 3.414062 14.097656 3.769531 15.226562 2.359375 C 15.226562 2.359375 14.148438 2.359375 13.078125 3.414062 C 12 2.359375 13.078125 1.308594 13.078125 1.308594 Z M 13.078125 1.304688 "/></g></svg>
