<svg width="64" height="64" viewBox="0 0 64 64" version="1.1"><defs><linearGradient id="linear-pattern-0" gradientUnits="userSpaceOnUse" x1="0" y1="0" x2="0" y2="1" gradientTransform="matrix(60, 0, 0, 56, 0, 4)"><stop offset="0" stop-color="#0288cf" stop-opacity="1"/><stop offset="1" stop-color="#01486e" stop-opacity="1"/></linearGradient></defs><path fill="url(#linear-pattern-0)" fill-opacity="1" d="M 36.21875 2.050781 L 62.027344 27.605469 C 64.402344 29.957031 64.417969 33.785156 62.058594 36.15625 L 36.460938 61.917969 C 34.105469 64.289062 30.269531 64.304688 27.894531 61.949219 L 2.085938 36.394531 C -0.289062 34.042969 -0.304688 30.214844 2.050781 27.84375 L 27.652344 2.082031 C 30.007812 -0.289062 33.84375 -0.304688 36.21875 2.050781 Z M 36.21875 2.050781 " /><g transform="matrix(1.0075098,0,0,1.0032698,16.221436,16.077397)"><path fill-rule="nonzero" fill="rgb(100%, 100%, 100%)" fill-opacity="1" d="M 30.269531 16.757812 C 30.269531 24.335938 24.203125 30.472656 16.71875 30.472656 C 9.234375 30.472656 3.164062 24.335938 3.164062 16.757812 C 3.164062 9.1875 9.234375 3.046875 16.71875 3.046875 C 24.203125 3.046875 30.269531 9.1875 30.269531 16.757812 Z M 30.269531 16.757812 "/><path fill-rule="nonzero" fill="rgb(100%, 100%, 100%)" fill-opacity="1" d="M 19.730469 10.546875 C 15.210938 10.546875 11.597656 16.03125 11.597656 16.03125 L 19.730469 16.03125 C 19.730469 16.03125 23.34375 16.03125 23.34375 13.289062 C 23.34375 11.457031 21.898438 10.546875 19.730469 10.546875 Z M 15.367188 16.898438 C 14.714844 16.902344 14.308594 16.945312 14.308594 16.945312 L 19.464844 23.304688 C 19.464844 23.304688 21.757812 26.132812 23.851562 24.390625 C 25.25 23.230469 25.035156 21.523438 23.65625 19.824219 C 21.507812 17.171875 17.324219 16.878906 15.367188 16.898438 Z M 15.367188 16.898438 "/><path fill-rule="nonzero" fill="rgb(100%, 100%, 100%)" fill-opacity="1" d="M 29.367188 15.847656 C 29.367188 23.421875 23.300781 29.558594 15.8125 29.558594 C 8.328125 29.558594 2.265625 23.421875 2.265625 15.847656 C 2.265625 8.273438 8.328125 2.132812 15.8125 2.132812 C 23.300781 2.132812 29.367188 8.273438 29.367188 15.847656 Z M 29.367188 15.847656 "/><path fill-rule="nonzero" fill="rgb(100%, 100%, 100%)" fill-opacity="1" d="M 27.558594 15.847656 C 27.558594 22.414062 22.304688 27.730469 15.8125 27.730469 C 9.328125 27.730469 4.070312 22.414062 4.070312 15.847656 C 4.070312 9.28125 9.328125 3.964844 15.8125 3.964844 C 22.304688 3.964844 27.558594 9.28125 27.558594 15.847656 Z M 27.558594 15.847656 "/><path fill-rule="nonzero" fill="rgb(100%, 100%, 100%)" fill-opacity="1" d="M 10.796875 5.546875 L 10.796875 14.753906 L 18.945312 8.246094 C 16.78125 6.519531 13.851562 5.550781 10.796875 5.546875 Z M 10.796875 5.546875 "/><path fill-rule="nonzero" fill="rgb(100%, 100%, 100%)" fill-opacity="1" d="M 9.988281 15.195312 C 7.953125 17.25 6.8125 20.039062 6.808594 22.945312 L 17.648438 22.945312 Z M 9.988281 15.195312 "/></g></svg>
