<svg width="64" height="64" viewBox="0 0 64 64" version="1.1"><defs><linearGradient id="linear-pattern-0" gradientUnits="userSpaceOnUse" x1="0" y1="0" x2="0" y2="1" gradientTransform="matrix(60, 0, 0, 56, 0, 4)"><stop offset="0" stop-color="#3067ff" stop-opacity="1"/><stop offset="1" stop-color="#002ca6" stop-opacity="1"/></linearGradient></defs><path fill="url(#linear-pattern-0)" fill-opacity="1" d="M 36.21875 2.050781 L 62.027344 27.605469 C 64.402344 29.957031 64.417969 33.785156 62.058594 36.15625 L 36.460938 61.917969 C 34.105469 64.289062 30.269531 64.304688 27.894531 61.949219 L 2.085938 36.394531 C -0.289062 34.042969 -0.304688 30.214844 2.050781 27.84375 L 27.652344 2.082031 C 30.007812 -0.289062 33.84375 -0.304688 36.21875 2.050781 Z M 36.21875 2.050781 " /><g transform="matrix(1.0075098,0,0,1.0032698,16.221436,16.077397)"><path fill-rule="nonzero" fill="rgb(100%, 100%, 100%)" fill-opacity="1" d="M 12.515625 0.546875 L 3.085938 13.066406 L 12.515625 26.464844 L 12.515625 21.820312 C 12.515625 21.820312 11.195312 21.421875 10.632812 20.566406 C 9.796875 19.304688 11.476562 19.3125 10.632812 16.8125 C 12.515625 17.664062 12.515625 19.3125 12.515625 19.3125 C 12.515625 19.3125 13.203125 18.691406 13.203125 18.0625 C 16.296875 19.3125 16.28125 20.078125 16.28125 21.820312 C 16.28125 22.546875 13.695312 24.324219 13.695312 24.324219 L 14.398438 26.828125 L 13.28125 27.570312 L 16.28125 31.839844 L 19.320312 27.507812 C 18.5 28.25 17.167969 29.335938 16.28125 29.335938 C 15.066406 29.335938 14.394531 28.082031 14.394531 28.082031 L 16.28125 26.828125 L 15.515625 24.328125 C 15.515625 24.328125 18.175781 23.074219 18.175781 21.820312 C 18.175781 20.078125 16.289062 19.316406 19.375 18.0625 C 19.375 18.695312 20.0625 19.316406 20.0625 19.316406 C 20.0625 19.316406 20.0625 17.664062 21.945312 16.8125 C 21.101562 19.316406 22.8125 19.316406 21.945312 20.570312 C 21.578125 21.105469 20.0625 21.820312 20.0625 21.820312 L 20.0625 26.46875 L 29.492188 13.070312 L 20.0625 0.546875 L 20.0625 1.796875 C 20.0625 1.796875 18.90625 1.796875 18.175781 3.050781 C 19.15625 2.507812 20.0625 2.445312 20.0625 2.445312 L 21.945312 9.308594 C 21.945312 9.308594 20.832031 9.765625 20.0625 11.238281 C 20.789062 10.558594 21.945312 10.558594 21.945312 10.558594 C 21.945312 10.558594 23.835938 11.269531 23.835938 13.0625 C 23.835938 14.3125 20.0625 14.3125 20.0625 14.3125 C 20.0625 14.3125 20.0625 13.425781 21.945312 12.671875 C 20.0625 13.066406 18.175781 14.3125 18.175781 14.3125 C 18.175781 14.3125 15.476562 12.824219 15.515625 11.8125 C 15.59375 10.210938 20.0625 9.304688 20.0625 8.054688 C 20.0625 6.800781 18.175781 6.800781 16.914062 6.300781 C 18.171875 5.546875 18.175781 4.960938 18.175781 4.960938 C 18.175781 4.960938 16.492188 5.933594 15.570312 5.546875 C 14.652344 5.15625 14.40625 4.292969 15.140625 3.039062 C 13.71875 4.292969 14.40625 5.546875 14.40625 5.546875 C 14.40625 5.546875 13.710938 6 13.78125 6.796875 C 13.117188 7.445312 12.519531 7.6875 13.445312 8.527344 C 13.445312 8.527344 14.40625 7.171875 16.292969 7.125 C 17.074219 7.105469 18.179688 7.5625 18.179688 8.046875 C 18.179688 9.296875 13.332031 9.296875 13.332031 11.804688 C 13.332031 13.054688 14.40625 14.304688 14.40625 14.304688 C 14.40625 14.304688 12.515625 13.054688 10.632812 12.726562 C 12.515625 13.375 12.515625 14.304688 12.515625 14.304688 C 12.515625 14.304688 8.742188 14.304688 8.742188 13.054688 C 8.742188 11.203125 10.632812 10.546875 10.632812 10.546875 C 10.632812 10.546875 11.609375 10.550781 12.515625 11.070312 C 11.710938 9.804688 10.632812 9.292969 10.632812 9.292969 L 12.515625 2.453125 C 12.515625 2.453125 13.433594 2.320312 14.40625 3.03125 C 13.710938 1.773438 12.515625 1.773438 12.515625 1.773438 Z M 12.515625 0.546875 "/></g></svg>
