<svg width="64" height="64" viewBox="0 0 64 64" version="1.1"><defs><linearGradient id="linear-pattern-0" gradientUnits="userSpaceOnUse" x1="0" y1="0" x2="0" y2="1" gradientTransform="matrix(60, 0, 0, 56, 0, 4)"><stop offset="0" stop-color="#00a07f" stop-opacity="1"/><stop offset="1" stop-color="#005241" stop-opacity="1"/></linearGradient></defs><path fill="url(#linear-pattern-0)" fill-opacity="1" d="M 36.21875 2.050781 L 62.027344 27.605469 C 64.402344 29.957031 64.417969 33.785156 62.058594 36.15625 L 36.460938 61.917969 C 34.105469 64.289062 30.269531 64.304688 27.894531 61.949219 L 2.085938 36.394531 C -0.289062 34.042969 -0.304688 30.214844 2.050781 27.84375 L 27.652344 2.082031 C 30.007812 -0.289062 33.84375 -0.304688 36.21875 2.050781 Z M 36.21875 2.050781 " /><g transform="matrix(1.0075098,0,0,1.0032698,16.221436,16.077397)"><path fill-rule="nonzero" fill="rgb(100%, 100%, 100%)" fill-opacity="1" d="M 17.195312 0.761719 C 20.582031 0.640625 24.875 3.007812 26.039062 5.433594 C 28.84375 11.257812 26.546875 13.75 26.546875 13.75 L 6.476562 17.066406 C 6.476562 17.066406 4.125 16.914062 5.242188 10.464844 C 5.75 7.535156 8.101562 4.703125 10.0625 2.984375 C 11.734375 1.519531 15.523438 0.820312 17.195312 0.757812 Z M 17.195312 0.761719 "/><path fill-rule="nonzero" fill="rgb(100%, 100%, 100%)" fill-opacity="1" d="M 26.429688 16.839844 C 26.539062 16.824219 26.90625 16.625 27.296875 16.539062 C 27.882812 16.40625 28.535156 16.378906 28.535156 16.378906 C 28.742188 16.15625 29.054688 16.144531 29.3125 16.023438 C 29.3125 16.023438 29.898438 16.054688 29.710938 17.46875 C 29.585938 18.375 29.136719 18.925781 28.808594 19.539062 C 28.492188 20.117188 28.433594 21.171875 28.070312 21.6875 C 27.179688 22.9375 25.9375 23.398438 25.9375 23.398438 L 25.351562 23.976562 L 25.765625 16.945312 Z M 26.429688 16.839844 "/><path fill-rule="nonzero" fill="rgb(100%, 100%, 100%)" fill-opacity="1" d="M 29.25 17.625 C 29.25 17.625 28.679688 17.765625 28.402344 17.859375 C 28.125 17.953125 27.585938 18.179688 27.585938 18.179688 C 27.585938 18.179688 27.285156 18.351562 27.171875 18.476562 C 26.992188 18.6875 26.941406 19.039062 26.777344 19.367188 C 26.449219 20.003906 26.0625 20.65625 26.0625 20.65625 C 26.0625 20.65625 26.9375 19.066406 27.789062 18.695312 C 29.105469 18.125 29.25 17.625 29.25 17.625 Z M 29.25 17.625 "/><path fill-rule="nonzero" fill="rgb(100%, 100%, 100%)" fill-opacity="1" d="M 26.734375 15.648438 C 26.734375 15.648438 26.710938 16.144531 26.664062 16.382812 C 26.632812 16.5625 26.519531 16.914062 26.519531 16.914062 C 26.519531 16.914062 26.851562 19.191406 26.910156 20.292969 C 26.953125 21.015625 26.503906 21.726562 26.226562 22.152344 C 26.0625 22.398438 26 22.535156 26 22.535156 C 26 22.535156 25.925781 24.023438 26.085938 24.726562 C 25.859375 25.476562 25.105469 26.824219 25.105469 26.824219 L 23.921875 25.039062 L 25.453125 13.539062 L 26.617188 14.507812 Z M 26.734375 15.648438 "/><path fill-rule="nonzero" fill="rgb(100%, 100%, 100%)" fill-opacity="1" d="M 6.257812 15.210938 L 6.273438 15.207031 C 6.296875 15.148438 6.292969 15.148438 6.316406 15.085938 C 6.296875 15.125 6.273438 15.171875 6.257812 15.210938 Z M 6.257812 15.210938 "/><path fill-rule="nonzero" fill="rgb(100%, 100%, 100%)" fill-opacity="1" d="M 6.234375 15.277344 C 6.238281 15.257812 6.25 15.234375 6.257812 15.210938 L 6.242188 15.21875 Z M 6.234375 15.277344 "/><path fill-rule="nonzero" fill="rgb(100%, 100%, 100%)" fill-opacity="1" d="M 5.710938 16.703125 C 5.710938 16.703125 5.976562 15.984375 6.21875 15.351562 L 6.234375 15.277344 C 5.910156 16.078125 5.710938 16.703125 5.710938 16.703125 Z M 5.710938 16.703125 "/><path fill-rule="nonzero" fill="rgb(100%, 100%, 100%)" fill-opacity="1" d="M 7.820312 14.570312 L 6.546875 15.929688 L 5.996094 16.523438 L 5.992188 16.554688 L 7.609375 17.582031 L 6.882812 18.859375 C 6.882812 18.859375 7.5 22.921875 7.898438 24.789062 C 8.183594 25.546875 9.21875 26.894531 9.21875 26.894531 L 10.585938 25.5625 C 10.585938 25.5625 11.125 22.0625 8.601562 20.132812 C 8.617188 19.714844 8.679688 19.296875 8.765625 18.882812 C 8.859375 18.429688 9.039062 17.992188 9.132812 17.53125 C 9.273438 16.867188 9.410156 16.25 9.429688 15.507812 C 9.875 14.84375 10.503906 13.464844 10.503906 13.464844 L 7.816406 14.570312 Z M 7.820312 14.570312 "/><path fill-rule="nonzero" fill="rgb(100%, 100%, 100%)" fill-opacity="1" d="M 7.585938 20.027344 C 7.265625 19.226562 7.171875 18.625 7.65625 17.507812 C 7.65625 17.507812 7.296875 16.90625 6.546875 16.609375 C 5.640625 16.25 4.214844 16.09375 3.5625 16.199219 C 3.25 15.996094 3.242188 15.898438 2.566406 15.835938 C 2.269531 16.148438 2.007812 16.558594 1.9375 17.046875 C 1.847656 17.632812 2.050781 18.242188 2.265625 18.796875 C 2.726562 19.53125 3.125 20.375 3.472656 21.085938 C 3.699219 21.496094 4.0625 21.898438 4.226562 22.296875 C 4.699219 22.523438 5.078125 22.875 5.535156 23.109375 C 6.375 23.390625 7.179688 23.882812 7.8125 24.339844 C 8.273438 20.75 7.414062 22.105469 7.585938 20.027344 Z M 7.585938 20.027344 "/></g></svg>
