<svg width="64" height="64" viewBox="0 0 64 64" version="1.1"><defs><linearGradient id="linear-pattern-0" gradientUnits="userSpaceOnUse" x1="0" y1="0" x2="0" y2="1" gradientTransform="matrix(60, 0, 0, 56, 0, 4)"><stop offset="0" stop-color="#00983a" stop-opacity="1"/><stop offset="1" stop-color="#004a1c" stop-opacity="1"/></linearGradient></defs><path fill="url(#linear-pattern-0)" fill-opacity="1" d="M 36.21875 2.050781 L 62.027344 27.605469 C 64.402344 29.957031 64.417969 33.785156 62.058594 36.15625 L 36.460938 61.917969 C 34.105469 64.289062 30.269531 64.304688 27.894531 61.949219 L 2.085938 36.394531 C -0.289062 34.042969 -0.304688 30.214844 2.050781 27.84375 L 27.652344 2.082031 C 30.007812 -0.289062 33.84375 -0.304688 36.21875 2.050781 Z M 36.21875 2.050781 " /><g transform="matrix(1.0075098,0,0,1.0032698,16.221436,16.077397)"><path fill-rule="nonzero" fill="rgb(100%, 100%, 100%)" fill-opacity="1" d="M 8.332031 8.695312 L 9.335938 5.28125 L 12.34375 8.695312 L 13.351562 7.554688 L 14.351562 10.972656 L 16.359375 10.972656 L 16.359375 13.25 L 18.367188 13.25 L 17.359375 15.53125 Z M 8.332031 8.695312 "/><path fill-rule="nonzero" fill="rgb(100%, 100%, 100%)" fill-opacity="1" d="M 17.359375 30.339844 L 22.375 22.367188 L 17.359375 15.53125 L 11.34375 8.695312 L 10.339844 4.136719 L 8.332031 8.695312 L 6.328125 4.136719 L 5.320312 8.695312 L 3.320312 15.53125 L 3.320312 22.367188 L 9.335938 22.367188 Z M 17.359375 30.339844 "/><path fill-rule="nonzero" fill="rgb(100%, 100%, 100%)" fill-opacity="1" d="M 3.320312 15.53125 L 10.339844 15.53125 C 10.894531 15.53125 11.34375 16.039062 11.34375 16.671875 L 11.34375 22.367188 C 11.34375 22.992188 10.894531 23.507812 10.339844 23.507812 L 3.320312 23.507812 C 2.765625 23.507812 2.3125 22.992188 2.3125 22.367188 L 2.3125 16.671875 C 2.3125 16.039062 2.765625 15.53125 3.320312 15.53125 Z M 3.320312 15.53125 "/><path fill-rule="nonzero" fill="rgb(100%, 100%, 100%)" fill-opacity="1" d="M 23.378906 1.859375 C 22.296875 1.859375 21.296875 2.742188 20.765625 4.171875 C 20.632812 4.148438 20.5 4.140625 20.367188 4.136719 C 19.039062 4.140625 17.867188 5.132812 17.492188 6.578125 C 17.292969 6.476562 17.078125 6.414062 16.859375 6.414062 C 16.03125 6.414062 15.355469 7.179688 15.355469 8.125 C 15.355469 9.070312 16.03125 9.835938 16.859375 9.835938 C 17.222656 9.835938 17.570312 9.683594 17.84375 9.414062 C 18.398438 10.382812 19.351562 10.972656 20.367188 10.972656 C 20.9375 10.972656 21.496094 10.789062 21.976562 10.445312 C 22.410156 10.789062 22.890625 10.972656 23.378906 10.972656 C 25.042969 10.972656 26.390625 8.933594 26.390625 6.414062 C 26.390625 3.898438 25.042969 1.859375 23.378906 1.859375 Z M 23.378906 1.859375 "/><path fill-rule="nonzero" fill="rgb(100%, 100%, 100%)" fill-opacity="1" d="M 25.386719 12.113281 C 25.386719 12.113281 23.378906 13.25 23.378906 16.671875 C 23.378906 18.949219 25.386719 20.085938 25.386719 20.085938 L 27.394531 17.808594 L 26.390625 17.808594 L 26.390625 16.671875 L 30.40625 16.671875 Z M 25.386719 12.113281 "/><path fill-rule="nonzero" fill="rgb(100%, 100%, 100%)" fill-opacity="1" d="M 6.328125 10.972656 C 5.773438 10.972656 5.320312 11.484375 5.320312 12.113281 C 5.320312 12.742188 5.773438 13.25 6.328125 13.25 C 6.882812 13.25 7.328125 12.742188 7.328125 12.113281 C 7.328125 11.484375 6.882812 10.972656 6.328125 10.972656 Z M 10.339844 10.972656 C 9.78125 10.972656 9.335938 11.484375 9.335938 12.113281 C 9.335938 12.742188 9.78125 13.25 10.339844 13.25 C 10.894531 13.25 11.34375 12.742188 11.34375 12.113281 C 11.34375 11.484375 10.894531 10.972656 10.339844 10.972656 Z M 21.375 10.972656 C 20.820312 10.972656 20.367188 11.484375 20.367188 12.113281 C 20.367188 12.742188 20.820312 13.25 21.375 13.25 C 21.929688 13.25 22.375 12.742188 22.375 12.113281 C 22.375 11.484375 21.929688 10.972656 21.375 10.972656 Z M 26.390625 10.972656 C 25.835938 10.972656 25.386719 11.484375 25.386719 12.113281 L 26.59375 13.210938 C 27.050781 13.101562 27.382812 12.644531 27.394531 12.113281 C 27.394531 11.484375 26.945312 10.972656 26.390625 10.972656 Z M 4.320312 16.671875 C 3.765625 16.671875 3.320312 17.179688 3.320312 17.808594 C 3.320312 18.4375 3.765625 18.949219 4.320312 18.949219 C 4.875 18.949219 5.320312 18.4375 5.320312 17.808594 C 5.320312 17.179688 4.875 16.671875 4.320312 16.671875 Z M 9.335938 16.671875 C 8.78125 16.671875 8.332031 17.179688 8.332031 17.808594 C 8.332031 18.4375 8.78125 18.949219 9.335938 18.949219 C 9.890625 18.949219 10.339844 18.4375 10.339844 17.808594 C 10.339844 17.179688 9.890625 16.671875 9.335938 16.671875 Z M 24.382812 16.671875 L 24.382812 17.808594 L 27.394531 17.808594 L 26.390625 16.671875 Z M 24.382812 16.671875 "/></g></svg>
