<svg width="64" height="64" viewBox="0 0 64 64" version="1.1"><defs><linearGradient id="linear-pattern-0" gradientUnits="userSpaceOnUse" x1="0" y1="0" x2="0" y2="1" gradientTransform="matrix(60, 0, 0, 56, 0, 4)"><stop offset="0" stop-color="#00a07f" stop-opacity="1"/><stop offset="1" stop-color="#005241" stop-opacity="1"/></linearGradient></defs><path fill="url(#linear-pattern-0)" fill-opacity="1" d="M 36.21875 2.050781 L 62.027344 27.605469 C 64.402344 29.957031 64.417969 33.785156 62.058594 36.15625 L 36.460938 61.917969 C 34.105469 64.289062 30.269531 64.304688 27.894531 61.949219 L 2.085938 36.394531 C -0.289062 34.042969 -0.304688 30.214844 2.050781 27.84375 L 27.652344 2.082031 C 30.007812 -0.289062 33.84375 -0.304688 36.21875 2.050781 Z M 36.21875 2.050781 " /><g transform="matrix(1.0075098,0,0,1.0032698,16.221436,16.077397)"><path fill-rule="nonzero" fill="rgb(100%, 100%, 100%)" fill-opacity="1" d="M 6.3125 1.179688 L 5.328125 6.097656 L 6.3125 6.097656 L 3.351562 24.125 L 2.367188 24.125 L 1.378906 30.675781 L 10.257812 30.675781 L 11.242188 24.125 L 10.257812 24.125 L 14.203125 1.179688 Z M 22.097656 1.179688 L 14.203125 17.570312 L 13.21875 24.125 L 21.976562 24.125 L 21.109375 30.675781 L 27.03125 30.675781 L 27.679688 24.125 L 29.992188 24.125 L 30.976562 17.570312 L 28.355469 17.570312 L 29.992188 1.179688 Z M 23.914062 9.683594 L 22.867188 17.570312 L 20.125 17.570312 Z M 23.914062 9.683594 "/></g></svg>
