<svg width="64" height="64" viewBox="0 0 64 64" version="1.1"><defs><linearGradient id="linear-pattern-0" gradientUnits="userSpaceOnUse" x1="0" y1="0" x2="0" y2="1" gradientTransform="matrix(60, 0, 0, 56, 0, 4)"><stop offset="0" stop-color="#d00068" stop-opacity="1"/><stop offset="1" stop-color="#6e0037" stop-opacity="1"/></linearGradient></defs><path fill="url(#linear-pattern-0)" fill-opacity="1" d="M 36.21875 2.050781 L 62.027344 27.605469 C 64.402344 29.957031 64.417969 33.785156 62.058594 36.15625 L 36.460938 61.917969 C 34.105469 64.289062 30.269531 64.304688 27.894531 61.949219 L 2.085938 36.394531 C -0.289062 34.042969 -0.304688 30.214844 2.050781 27.84375 L 27.652344 2.082031 C 30.007812 -0.289062 33.84375 -0.304688 36.21875 2.050781 Z M 36.21875 2.050781 " /><g transform="matrix(1.0075098,0,0,1.0032698,16.221436,16.077397)"><path fill-rule="nonzero" fill="rgb(100%, 100%, 100%)" fill-opacity="1" d="M 16.148438 2.472656 L 13.3125 4.679688 L 13.3125 7.984375 L 10.484375 10.191406 L 10.484375 9.089844 L 9.0625 7.984375 L 7.648438 9.089844 L 7.648438 12.398438 L 4.8125 14.601562 L 4.8125 13.5 L 4.101562 12.949219 L 3.394531 13.5 L 3.394531 17.914062 L 1.976562 23.421875 L 3.394531 27.835938 L 7.648438 30.039062 L 6.230469 24.53125 L 7.648438 19.015625 L 16.148438 14.601562 L 17.566406 13.5 Z M 16.148438 2.472656 "/><path fill-rule="nonzero" fill="rgb(100%, 100%, 100%)" fill-opacity="1" d="M 16.148438 2.472656 L 18.984375 4.679688 L 18.984375 7.984375 L 21.820312 10.191406 L 21.820312 9.089844 L 23.238281 7.984375 L 24.65625 9.089844 L 24.65625 12.398438 L 27.492188 14.601562 L 27.492188 13.5 L 28.195312 12.949219 L 28.90625 13.5 L 28.90625 17.914062 L 30.320312 23.421875 L 28.90625 27.835938 L 24.65625 30.039062 L 26.070312 24.53125 L 24.65625 19.015625 L 16.148438 14.601562 Z M 16.148438 2.472656 "/><path fill-rule="nonzero" fill="rgb(100%, 100%, 100%)" fill-opacity="1" d="M 10.484375 21.21875 L 11.898438 21.21875 L 11.898438 25.632812 L 10.484375 25.632812 Z M 20.402344 21.21875 L 21.820312 21.21875 L 21.820312 25.632812 L 20.402344 25.632812 Z M 20.402344 21.21875 "/></g></svg>
