<svg width="64" height="64" viewBox="0 0 64 64" version="1.1"><defs><linearGradient id="linear-pattern-0" gradientUnits="userSpaceOnUse" x1="0" y1="0" x2="0" y2="1" gradientTransform="matrix(60, 0, 0, 56, 0, 4)"><stop offset="0" stop-color="#a67e50" stop-opacity="1"/><stop offset="1" stop-color="#644c30" stop-opacity="1"/></linearGradient></defs><path fill="url(#linear-pattern-0)" fill-opacity="1" d="M 36.21875 2.050781 L 62.027344 27.605469 C 64.402344 29.957031 64.417969 33.785156 62.058594 36.15625 L 36.460938 61.917969 C 34.105469 64.289062 30.269531 64.304688 27.894531 61.949219 L 2.085938 36.394531 C -0.289062 34.042969 -0.304688 30.214844 2.050781 27.84375 L 27.652344 2.082031 C 30.007812 -0.289062 33.84375 -0.304688 36.21875 2.050781 Z M 36.21875 2.050781 " /><g transform="matrix(1.0075098,0,0,1.0032698,16.221436,16.077397)"><path fill-rule="nonzero" fill="rgb(100%, 100%, 100%)" fill-opacity="1" d="M 9.710938 1.679688 C 6.625 1.679688 4.414062 2.8125 3.117188 4.761719 C 1.8125 6.710938 1.546875 9.125 1.546875 11.257812 C 1.546875 12.835938 1.652344 14.640625 2.257812 16.3125 C 2.859375 17.992188 4.363281 19.558594 6.140625 19.554688 C 8.695312 19.554688 10.734375 17.960938 10.734375 14.449219 L 7.671875 14.449219 C 7.671875 15.726562 6.90625 15.726562 6.140625 15.726562 C 5.632812 15.726562 5.335938 15.539062 5.046875 14.738281 C 4.757812 13.9375 4.609375 12.550781 4.609375 11.257812 C 4.609375 9.554688 4.851562 8.136719 5.46875 7.214844 C 6.082031 6.292969 7.1875 5.507812 9.714844 5.507812 C 11.5 5.507812 11.855469 5.878906 12.449219 6.421875 C 13.046875 6.960938 14.15625 8.0625 15.839844 8.0625 C 17.523438 8.0625 18.632812 6.960938 19.226562 6.421875 C 19.820312 5.878906 20.179688 5.507812 21.960938 5.507812 C 24.492188 5.507812 25.59375 6.292969 26.210938 7.21875 C 26.824219 8.140625 27.070312 9.554688 27.070312 11.257812 C 27.070312 12.554688 26.917969 13.9375 26.628906 14.738281 C 26.34375 15.539062 26.046875 15.726562 25.539062 15.726562 C 24.773438 15.726562 24.007812 15.726562 24.007812 14.449219 L 20.945312 14.449219 C 20.945312 17.960938 22.984375 19.558594 25.539062 19.558594 C 27.3125 19.5625 28.8125 17.992188 29.421875 16.3125 C 30.023438 14.640625 30.132812 12.835938 30.132812 11.257812 C 30.132812 9.128906 29.863281 6.710938 28.5625 4.761719 C 27.265625 2.8125 25.046875 1.679688 21.960938 1.679688 C 19.664062 1.679688 18.234375 2.585938 17.425781 3.320312 C 16.617188 4.058594 16.707031 4.234375 15.839844 4.234375 C 14.96875 4.234375 15.0625 4.058594 14.25 3.320312 C 13.445312 2.585938 12.011719 1.679688 9.714844 1.679688 Z M 11.757812 14.449219 L 11.757812 22.109375 C 11.757812 24.34375 11.757812 25.945312 10.734375 25.945312 L 10.734375 29.773438 C 14.820312 29.773438 14.820312 25.945312 14.820312 22.109375 L 14.820312 14.449219 Z M 19.921875 14.449219 L 19.921875 22.109375 C 19.921875 24.34375 19.921875 25.945312 20.945312 25.945312 L 20.945312 29.773438 C 16.859375 29.773438 16.859375 25.945312 16.859375 22.109375 L 16.859375 14.449219 Z M 19.921875 14.449219 "/></g></svg>
