<svg width="64" height="64" viewBox="0 0 64 64" version="1.1"><defs><linearGradient id="linear-pattern-0" gradientUnits="userSpaceOnUse" x1="0" y1="0" x2="0" y2="1" gradientTransform="matrix(60, 0, 0, 56, 0, 4)"><stop offset="0" stop-color="#ec7700" stop-opacity="1"/><stop offset="1" stop-color="#773c00" stop-opacity="1"/></linearGradient></defs><path fill="url(#linear-pattern-0)" fill-opacity="1" d="M 36.21875 2.050781 L 62.027344 27.605469 C 64.402344 29.957031 64.417969 33.785156 62.058594 36.15625 L 36.460938 61.917969 C 34.105469 64.289062 30.269531 64.304688 27.894531 61.949219 L 2.085938 36.394531 C -0.289062 34.042969 -0.304688 30.214844 2.050781 27.84375 L 27.652344 2.082031 C 30.007812 -0.289062 33.84375 -0.304688 36.21875 2.050781 Z M 36.21875 2.050781 " /><g transform="matrix(1.0075098,0,0,1.0032698,16.221436,16.077397)"><path fill-rule="nonzero" fill="rgb(100%, 100%, 100%)" fill-opacity="1" d="M 0.710938 6.566406 L 0.710938 12.992188 L 5.257812 12.992188 L 5.257812 29.050781 L 10.933594 29.050781 L 10.933594 12.992188 L 14.339844 12.992188 L 14.339844 29.050781 L 20.015625 29.050781 L 20.015625 22.625 C 20.46875 22.625 20.882812 22.605469 21.289062 22.582031 L 24.558594 29.054688 L 30.234375 29.054688 L 26.320312 21.296875 C 29.089844 19.644531 29.101562 16.753906 29.101562 14.601562 C 29.101562 11.390625 29.101562 6.570312 20.015625 6.570312 L 0.710938 6.570312 Z M 20.015625 12.992188 L 22.289062 12.992188 C 24.558594 12.992188 24.558594 16.203125 22.289062 16.203125 L 20.015625 16.203125 Z M 20.015625 12.992188 "/></g></svg>
