<svg width="64" height="64" viewBox="0 0 64 64" version="1.1"><defs><linearGradient id="linear-pattern-0" gradientUnits="userSpaceOnUse" x1="0" y1="0" x2="0" y2="1" gradientTransform="matrix(60, 0, 0, 56, 0, 4)"><stop offset="0" stop-color="#d00068" stop-opacity="1"/><stop offset="1" stop-color="#6e0037" stop-opacity="1"/></linearGradient></defs><path fill="url(#linear-pattern-0)" fill-opacity="1" d="M 36.21875 2.050781 L 62.027344 27.605469 C 64.402344 29.957031 64.417969 33.785156 62.058594 36.15625 L 36.460938 61.917969 C 34.105469 64.289062 30.269531 64.304688 27.894531 61.949219 L 2.085938 36.394531 C -0.289062 34.042969 -0.304688 30.214844 2.050781 27.84375 L 27.652344 2.082031 C 30.007812 -0.289062 33.84375 -0.304688 36.21875 2.050781 Z M 36.21875 2.050781 " /><g transform="matrix(1.0075098,0,0,1.0032698,16.221436,16.077397)"><path fill-rule="nonzero" fill="rgb(100%, 100%, 100%)" fill-opacity="1" d="M 11.988281 8.859375 C 12.40625 6.640625 12.929688 6.390625 14.140625 5.890625 L 16.054688 5.058594 C 15.460938 4.339844 15.4375 4.351562 15.070312 3.945312 C 14.753906 3.609375 14.351562 2.929688 14.300781 2.34375 C 14.21875 1.425781 14.503906 0.476562 16.554688 0.460938 C 17.859375 0.460938 18.347656 0.773438 18.769531 1.210938 C 19.523438 1.972656 18.953125 3.484375 18.5 4.25 C 19.257812 4.90625 23.773438 5.132812 24.125 6.019531 L 26.007812 10.632812 C 26.125 11.304688 23.898438 11.820312 23.03125 11.820312 C 23.285156 13.421875 23.734375 16.214844 23.941406 17.609375 C 23.992188 17.914062 23.367188 18.246094 22.992188 18.554688 C 22.992188 18.554688 23.484375 20.71875 23.773438 21.804688 C 24.5 24.523438 26.171875 31.539062 26.171875 31.539062 L 22.695312 31.539062 C 22.695312 31.539062 21.179688 25.539062 20.132812 23.421875 C 18.519531 20.171875 17.609375 18.933594 17.609375 18.933594 C 17.609375 18.933594 16.738281 20.269531 15.855469 23.421875 C 15.28125 25.460938 14.140625 31.539062 14.140625 31.539062 L 10.664062 31.539062 C 10.664062 31.539062 12.46875 23.851562 12.648438 21.679688 C 12.757812 20.339844 12.75 17.609375 12.75 17.609375 L 11.324219 18.09375 L 11.054688 18.6875 L 9.960938 18.65625 L 9.625 18.878906 L 8.980469 19.085938 L 7.953125 20.398438 L 7.046875 20.289062 L 8.597656 17.5 L 9.472656 17.601562 L 9.570312 17.742188 L 10.386719 15.371094 C 10.386719 15.371094 11.03125 14.054688 12.007812 8.859375 Z M 11.988281 8.859375 "/></g></svg>
