<svg width="64" height="64" viewBox="0 0 64 64" version="1.1"><defs><linearGradient id="linear-pattern-0" gradientUnits="userSpaceOnUse" x1="0" y1="0" x2="0" y2="1" gradientTransform="matrix(60, 0, 0, 56, 0, 4)"><stop offset="0" stop-color="#6926fc" stop-opacity="1"/><stop offset="1" stop-color="#3702ab" stop-opacity="1"/></linearGradient></defs><path fill="url(#linear-pattern-0)" fill-opacity="1" d="M 36.21875 2.050781 L 62.027344 27.605469 C 64.402344 29.957031 64.417969 33.785156 62.058594 36.15625 L 36.460938 61.917969 C 34.105469 64.289062 30.269531 64.304688 27.894531 61.949219 L 2.085938 36.394531 C -0.289062 34.042969 -0.304688 30.214844 2.050781 27.84375 L 27.652344 2.082031 C 30.007812 -0.289062 33.84375 -0.304688 36.21875 2.050781 Z M 36.21875 2.050781 " /><g transform="matrix(1.0075098,0,0,1.0032698,16.221436,16.077397)"><path fill-rule="nonzero" fill="rgb(100%, 100%, 100%)" fill-opacity="1" d="M 15.925781 1.976562 C 15.527344 1.976562 15.148438 2 14.765625 2.023438 L 14.765625 7.570312 L 10.132812 12.046875 L 10.113281 12.144531 C 12.703125 12.585938 13.609375 13.433594 13.609375 15.40625 C 13.609375 17.296875 11.144531 17.578125 8.976562 17.621094 L 8.96875 17.640625 L 4.15625 23.21875 C 6.210938 27.019531 9.90625 29.953125 15.925781 29.953125 C 26.359375 29.953125 29.835938 21.164062 29.835938 14.289062 C 29.835938 7.570312 25.203125 1.976562 15.925781 1.976562 Z M 13.609375 2.117188 C 5.890625 2.984375 2.015625 8.160156 2.015625 14.289062 C 2.015625 16.71875 2.460938 19.382812 3.484375 21.820312 L 7.8125 17.640625 C 5.878906 17.640625 4.335938 16.523438 4.335938 13.167969 C 4.335938 12.046875 7.242188 12.046875 8.96875 12.046875 L 13.609375 7.570312 Z M 22.882812 12.046875 C 24.609375 12.046875 27.519531 12.046875 27.519531 13.167969 C 27.519531 16.523438 25.972656 17.640625 24.039062 17.640625 C 21.722656 17.640625 18.242188 17.640625 18.242188 15.40625 C 18.242188 13.167969 19.40625 12.046875 22.882812 12.046875 Z M 22.882812 12.046875 "/></g></svg>
