<svg width="64" height="64" viewBox="0 0 64 64" version="1.1"><defs><linearGradient id="linear-pattern-0" gradientUnits="userSpaceOnUse" x1="0" y1="0" x2="0" y2="1" gradientTransform="matrix(60, 0, 0, 56, 0, 4)"><stop offset="0" stop-color="#6926fc" stop-opacity="1"/><stop offset="1" stop-color="#3702ab" stop-opacity="1"/></linearGradient></defs><path fill="url(#linear-pattern-0)" fill-opacity="1" d="M 36.21875 2.050781 L 62.027344 27.605469 C 64.402344 29.957031 64.417969 33.785156 62.058594 36.15625 L 36.460938 61.917969 C 34.105469 64.289062 30.269531 64.304688 27.894531 61.949219 L 2.085938 36.394531 C -0.289062 34.042969 -0.304688 30.214844 2.050781 27.84375 L 27.652344 2.082031 C 30.007812 -0.289062 33.84375 -0.304688 36.21875 2.050781 Z M 36.21875 2.050781 " /><g transform="matrix(1.0075098,0,0,1.0032698,16.221436,16.077397)"><path fill-rule="nonzero" fill="rgb(100%, 100%, 100%)" fill-opacity="1" d="M 19.546875 3.796875 L 22.164062 0.859375 L 27.527344 6 L 24.679688 8.195312 "/><path fill-rule="nonzero" fill="rgb(100%, 100%, 100%)" fill-opacity="1" d="M 26.859375 13.6875 L 26.859375 19.183594 L 31.234375 19.183594 L 31.234375 13.6875 "/><path fill-rule="nonzero" fill="rgb(100%, 100%, 100%)" fill-opacity="1" d="M 15.929688 26.875 L 18.117188 31.273438 L 23.582031 27.976562 L 21.398438 24.679688 "/><path fill-rule="nonzero" fill="rgb(100%, 100%, 100%)" fill-opacity="1" d="M 3.90625 20.28125 L 0.625 22.480469 L 3.90625 26.875 L 6.09375 24.679688 "/><path fill-rule="nonzero" fill="rgb(100%, 100%, 100%)" fill-opacity="1" d="M 17.007812 11.171875 C 15.492188 11.179688 13.734375 11.921875 13.417969 13.226562 C 13.417969 14.136719 14.039062 14.5625 15.246094 14.5625 C 16.382812 14.53125 18.359375 12.992188 18.382812 11.421875 C 17.992188 11.25 17.511719 11.171875 17.007812 11.171875 Z M 5.710938 14.085938 C 4.5 14.085938 4.679688 14.507812 4.679688 15.421875 C 4.679688 16.328125 5.664062 17.066406 6.867188 17.066406 C 8.074219 17.066406 9.050781 16.332031 9.050781 15.421875 L 9.054688 15.421875 C 9.054688 14.507812 6.921875 14.085938 5.710938 14.085938 Z M 5.710938 14.085938 "/><path fill-rule="nonzero" fill="rgb(100%, 100%, 100%)" fill-opacity="1" d="M 7.804688 1.464844 C 7.566406 1.46875 7.328125 1.503906 7.09375 1.578125 C 6.320312 2.046875 5.671875 3.320312 6.9375 3.808594 L 9.070312 3.878906 C 9.460938 3.648438 9.441406 3.667969 9.679688 3.402344 C 9.921875 3.140625 10.296875 2.851562 9.921875 2.230469 C 9.210938 1.753906 8.511719 1.460938 7.804688 1.464844 Z M 6.589844 4.980469 C 5.277344 5.296875 4.875 6.914062 6.589844 7.175781 C 7.9375 7.039062 9.273438 7.039062 10.617188 7.175781 C 11.539062 6.65625 10.179688 5.039062 8.261719 4.980469 Z M 8.195312 8.277344 C 7.476562 8.425781 7.476562 8.976562 8.195312 9.273438 L 9.289062 9.371094 C 9.835938 9.371094 10.1875 8.953125 9.289062 8.5625 Z M 8.195312 8.277344 "/></g></svg>
