<svg width="64" height="64" viewBox="0 0 64 64" version="1.1"><defs><linearGradient id="linear-pattern-0" gradientUnits="userSpaceOnUse" x1="0" y1="0" x2="0" y2="1" gradientTransform="matrix(60, 0, 0, 56, 0, 4)"><stop offset="0" stop-color="#0288cf" stop-opacity="1"/><stop offset="1" stop-color="#01486e" stop-opacity="1"/></linearGradient></defs><path fill="url(#linear-pattern-0)" fill-opacity="1" d="M 36.21875 2.050781 L 62.027344 27.605469 C 64.402344 29.957031 64.417969 33.785156 62.058594 36.15625 L 36.460938 61.917969 C 34.105469 64.289062 30.269531 64.304688 27.894531 61.949219 L 2.085938 36.394531 C -0.289062 34.042969 -0.304688 30.214844 2.050781 27.84375 L 27.652344 2.082031 C 30.007812 -0.289062 33.84375 -0.304688 36.21875 2.050781 Z M 36.21875 2.050781 " /><g transform="matrix(1.0075098,0,0,1.0032698,16.221436,16.077397)"><path fill-rule="nonzero" fill="rgb(100%, 100%, 100%)" fill-opacity="1" d="M 21.382812 16.480469 C 21.382812 19.410156 19.039062 21.785156 16.148438 21.785156 C 13.253906 21.785156 10.90625 19.410156 10.90625 16.480469 C 10.90625 13.554688 13.253906 11.179688 16.148438 11.179688 C 19.039062 11.179688 21.382812 13.554688 21.382812 16.480469 Z M 21.382812 16.480469 "/><path fill-rule="nonzero" fill="rgb(100%, 100%, 100%)" fill-opacity="1" d="M 16.261719 2.234375 C 8.433594 2.234375 2.085938 8.5625 2.085938 16.367188 L 16.261719 16.367188 Z M 16.261719 16.367188 L 16.261719 30.5 C 24.09375 30.5 30.4375 24.171875 30.4375 16.367188 Z M 16.261719 16.367188 "/></g></svg>
