<svg width="64" height="64" viewBox="0 0 64 64" version="1.1"><defs><linearGradient id="linear-pattern-0" gradientUnits="userSpaceOnUse" x1="0" y1="0" x2="0" y2="1" gradientTransform="matrix(60, 0, 0, 56, 0, 4)"><stop offset="0" stop-color="#00a07f" stop-opacity="1"/><stop offset="1" stop-color="#005241" stop-opacity="1"/></linearGradient></defs><path fill="url(#linear-pattern-0)" fill-opacity="1" d="M 36.21875 2.050781 L 62.027344 27.605469 C 64.402344 29.957031 64.417969 33.785156 62.058594 36.15625 L 36.460938 61.917969 C 34.105469 64.289062 30.269531 64.304688 27.894531 61.949219 L 2.085938 36.394531 C -0.289062 34.042969 -0.304688 30.214844 2.050781 27.84375 L 27.652344 2.082031 C 30.007812 -0.289062 33.84375 -0.304688 36.21875 2.050781 Z M 36.21875 2.050781 " /><g transform="matrix(1.0075098,0,0,1.0032698,16.221436,16.077397)"><path fill-rule="nonzero" fill="rgb(100%, 100%, 100%)" fill-opacity="1" d="M 4.703125 2.28125 L 4.703125 3.441406 L 2.3125 3.441406 L 2.3125 5.765625 L 1.117188 5.765625 L 1.117188 19.707031 L 4.703125 19.707031 L 4.703125 23.195312 L 8.296875 23.195312 L 8.296875 26.679688 L 11.882812 26.679688 L 11.882812 30.164062 L 19.0625 30.164062 L 19.0625 26.679688 L 22.652344 26.679688 L 22.652344 23.195312 L 26.242188 23.195312 L 26.242188 19.707031 L 29.828125 19.707031 L 29.828125 5.765625 L 28.632812 5.765625 L 28.632812 3.441406 L 26.242188 3.441406 L 26.242188 2.28125 L 21.453125 2.28125 L 21.453125 3.441406 L 19.0625 3.441406 L 19.0625 5.765625 L 17.867188 5.765625 L 17.867188 9.25 L 13.078125 9.25 L 13.078125 5.765625 L 11.882812 5.765625 L 11.882812 3.441406 L 9.492188 3.441406 L 9.492188 2.28125 Z M 4.703125 2.28125 "/></g></svg>
