<svg width="64" height="64" viewBox="0 0 64 64" version="1.1"><defs><linearGradient id="linear-pattern-0" gradientUnits="userSpaceOnUse" x1="0" y1="0" x2="0" y2="1" gradientTransform="matrix(60, 0, 0, 56, 0, 4)"><stop offset="0" stop-color="#0288cf" stop-opacity="1"/><stop offset="1" stop-color="#01486e" stop-opacity="1"/></linearGradient></defs><path fill="url(#linear-pattern-0)" fill-opacity="1" d="M 36.21875 2.050781 L 62.027344 27.605469 C 64.402344 29.957031 64.417969 33.785156 62.058594 36.15625 L 36.460938 61.917969 C 34.105469 64.289062 30.269531 64.304688 27.894531 61.949219 L 2.085938 36.394531 C -0.289062 34.042969 -0.304688 30.214844 2.050781 27.84375 L 27.652344 2.082031 C 30.007812 -0.289062 33.84375 -0.304688 36.21875 2.050781 Z M 36.21875 2.050781 " /><g transform="matrix(1.0075098,0,0,1.0032698,16.221436,16.077397)"><path fill-rule="nonzero" fill="rgb(100%, 100%, 100%)" fill-opacity="1" d="M 1.734375 6.523438 C 1.734375 8.8125 4.125 11.101562 4.125 11.101562 L 4.125 20.273438 C 4.125 26 8.910156 29.4375 12.5 29.4375 L 17.28125 29.4375 C 22.066406 29.4375 28.046875 22.5625 28.046875 17.976562 L 28.046875 11.101562 C 28.046875 11.101562 30.4375 8.242188 30.4375 5.835938 C 30.4375 3.082031 29.84375 1.9375 26.851562 1.9375 C 23.265625 1.9375 22.066406 5.375 22.066406 5.375 L 14.890625 1.9375 L 16.085938 4.226562 L 13.695312 3.082031 L 13.695312 4.226562 L 8.910156 5.375 C 8.910156 5.375 7.714844 3.082031 5.320312 3.082031 C 2.929688 3.082031 1.734375 4.226562 1.734375 6.523438 Z M 1.734375 6.523438 "/></g></svg>
