<svg width="64" height="64" viewBox="0 0 64 64" version="1.1"><defs><linearGradient id="linear-pattern-0" gradientUnits="userSpaceOnUse" x1="0" y1="0" x2="0" y2="1" gradientTransform="matrix(60, 0, 0, 56, 0, 4)"><stop offset="0" stop-color="#008a97" stop-opacity="1"/><stop offset="1" stop-color="#00545c" stop-opacity="1"/></linearGradient></defs><path fill="url(#linear-pattern-0)" fill-opacity="1" d="M 36.21875 2.050781 L 62.027344 27.605469 C 64.402344 29.957031 64.417969 33.785156 62.058594 36.15625 L 36.460938 61.917969 C 34.105469 64.289062 30.269531 64.304688 27.894531 61.949219 L 2.085938 36.394531 C -0.289062 34.042969 -0.304688 30.214844 2.050781 27.84375 L 27.652344 2.082031 C 30.007812 -0.289062 33.84375 -0.304688 36.21875 2.050781 Z M 36.21875 2.050781 " /><g transform="matrix(1.0075098,0,0,1.0032698,16.221436,16.077397)"><path fill-rule="nonzero" fill="rgb(100%, 100%, 100%)" fill-opacity="1" d="M 10.453125 4.617188 L 2.070312 14.765625 L 4.460938 16.210938 L 10.453125 8.96875 L 12.847656 14.765625 L 15.242188 13.3125 Z M 22.429688 4.617188 L 17.640625 13.3125 L 20.03125 14.765625 L 22.429688 8.96875 L 28.417969 16.210938 L 30.8125 14.765625 Z M 2.070312 19.109375 C 2.070312 19.109375 5.664062 26.355469 9.253906 26.355469 C 12.847656 26.355469 16.441406 23.457031 16.441406 23.457031 C 16.441406 23.457031 20.03125 26.355469 23.625 26.355469 C 27.21875 26.355469 30.8125 19.109375 30.8125 19.109375 L 28.417969 19.109375 C 28.417969 19.109375 26.023438 23.457031 23.625 23.457031 C 21.46875 23.457031 17.640625 20.558594 17.640625 20.558594 L 15.242188 20.558594 C 15.242188 20.558594 11.648438 23.457031 9.253906 23.457031 C 6.859375 23.457031 4.460938 19.109375 4.460938 19.109375 Z M 2.070312 19.109375 "/></g></svg>
