<svg width="64" height="64" viewBox="0 0 64 64" version="1.1"><defs><linearGradient id="linear-pattern-0" gradientUnits="userSpaceOnUse" x1="0" y1="0" x2="0" y2="1" gradientTransform="matrix(60, 0, 0, 56, 0, 4)"><stop offset="0" stop-color="#aaaa00" stop-opacity="1"/><stop offset="1" stop-color="#5c5c00" stop-opacity="1"/></linearGradient></defs><path fill="url(#linear-pattern-0)" fill-opacity="1" d="M 36.21875 2.050781 L 62.027344 27.605469 C 64.402344 29.957031 64.417969 33.785156 62.058594 36.15625 L 36.460938 61.917969 C 34.105469 64.289062 30.269531 64.304688 27.894531 61.949219 L 2.085938 36.394531 C -0.289062 34.042969 -0.304688 30.214844 2.050781 27.84375 L 27.652344 2.082031 C 30.007812 -0.289062 33.84375 -0.304688 36.21875 2.050781 Z M 36.21875 2.050781 " /><g transform="matrix(1.0075098,0,0,1.0032698,16.221436,16.077397)"><path fill-rule="nonzero" fill="rgb(100%, 100%, 100%)" fill-opacity="1" d="M 15.984375 2.21875 C 8.007812 2.21875 1.53125 8.640625 1.53125 16.554688 C 1.53125 24.464844 8.007812 30.886719 15.984375 30.886719 C 23.960938 30.886719 30.4375 24.464844 30.4375 16.554688 C 30.4375 8.640625 23.960938 2.21875 15.984375 2.21875 Z M 9.722656 10.820312 C 11.582031 10.820312 13.09375 12.320312 13.09375 14.164062 C 13.09375 16.007812 11.582031 17.507812 9.722656 17.507812 C 7.863281 17.507812 6.351562 16.007812 6.351562 14.164062 C 6.351562 12.320312 7.863281 10.820312 9.722656 10.820312 Z M 22.25 10.820312 C 24.109375 10.820312 25.621094 12.320312 25.621094 14.164062 C 25.621094 16.007812 24.109375 17.507812 22.25 17.507812 C 20.390625 17.507812 18.875 16.007812 18.875 14.164062 C 18.875 12.320312 20.390625 10.820312 22.25 10.820312 Z M 9.722656 11.773438 C 8.390625 11.773438 7.3125 12.84375 7.3125 14.164062 C 7.3125 15.484375 8.390625 16.554688 9.722656 16.554688 C 11.054688 16.554688 12.132812 15.484375 12.132812 14.164062 C 12.132812 12.84375 11.054688 11.773438 9.722656 11.773438 Z M 22.25 11.773438 C 20.917969 11.773438 19.839844 12.84375 19.839844 14.164062 C 19.839844 15.484375 20.917969 16.554688 22.25 16.554688 C 23.578125 16.554688 24.65625 15.484375 24.65625 14.164062 C 24.65625 12.84375 23.578125 11.773438 22.25 11.773438 Z M 9.722656 12.730469 C 10.519531 12.730469 11.167969 13.375 11.167969 14.164062 C 11.167969 14.953125 10.519531 15.597656 9.722656 15.597656 C 8.925781 15.597656 8.277344 14.953125 8.277344 14.164062 C 8.277344 13.375 8.925781 12.730469 9.722656 12.730469 Z M 22.25 12.730469 C 23.046875 12.730469 23.695312 13.375 23.695312 14.164062 C 23.695312 14.953125 23.046875 15.597656 22.25 15.597656 C 21.453125 15.597656 20.804688 14.953125 20.804688 14.164062 C 20.804688 13.375 21.453125 12.730469 22.25 12.730469 Z M 9.722656 13.207031 C 9.191406 13.207031 8.757812 13.636719 8.757812 14.164062 C 8.757812 14.691406 9.191406 15.117188 9.722656 15.117188 C 10.253906 15.117188 10.6875 14.691406 10.6875 14.164062 C 10.6875 13.636719 10.253906 13.207031 9.722656 13.207031 Z M 22.25 13.207031 C 21.71875 13.207031 21.285156 13.636719 21.285156 14.164062 C 21.285156 14.691406 21.71875 15.117188 22.25 15.117188 C 22.78125 15.117188 23.210938 14.691406 23.210938 14.164062 C 23.210938 13.636719 22.78125 13.207031 22.25 13.207031 Z M 14.539062 16.554688 C 14.804688 16.554688 15.023438 16.765625 15.023438 17.03125 C 15.023438 17.292969 14.804688 17.507812 14.539062 17.507812 C 14.273438 17.507812 14.058594 17.292969 14.058594 17.03125 C 14.058594 16.765625 14.273438 16.554688 14.539062 16.554688 Z M 17.429688 16.554688 C 17.695312 16.554688 17.914062 16.765625 17.914062 17.03125 C 17.914062 17.292969 17.695312 17.507812 17.429688 17.507812 C 17.164062 17.507812 16.949219 17.292969 16.949219 17.03125 C 16.949219 16.765625 17.164062 16.554688 17.429688 16.554688 Z M 4.421875 18.460938 L 7.3125 21.328125 C 7.3125 21.328125 11.167969 20.375 15.984375 20.375 C 19.839844 20.375 24.65625 21.328125 24.65625 21.328125 L 27.546875 18.460938 C 27.546875 18.460938 24.65625 26.109375 15.984375 26.109375 C 7.3125 26.109375 4.421875 18.460938 4.421875 18.460938 Z M 15.503906 21.09375 C 15.023438 21.09375 15.023438 22.285156 15.023438 22.285156 L 15.984375 22.285156 C 15.984375 22.285156 15.984375 21.09375 15.503906 21.09375 Z M 13.578125 21.328125 C 13.15625 21.328125 13.09375 22.285156 13.09375 22.285156 L 14.058594 22.285156 C 14.058594 22.285156 13.992188 21.328125 13.578125 21.328125 Z M 17.429688 21.328125 C 17.015625 21.328125 16.949219 22.285156 16.949219 22.285156 L 17.914062 22.285156 C 17.914062 22.285156 17.851562 21.328125 17.429688 21.328125 Z M 19.359375 21.472656 C 19.003906 21.472656 18.875 22.285156 18.875 22.285156 L 19.839844 22.285156 C 19.839844 22.285156 19.710938 21.472656 19.359375 21.472656 Z M 11.648438 21.519531 C 11.296875 21.519531 11.167969 22.285156 11.167969 22.285156 L 12.132812 22.285156 C 12.132812 22.285156 12.003906 21.519531 11.648438 21.519531 Z M 21.285156 21.617188 C 20.929688 21.617188 20.804688 22.285156 20.804688 22.285156 L 21.765625 22.285156 C 21.765625 22.285156 21.640625 21.617188 21.285156 21.617188 Z M 9.722656 21.710938 C 9.367188 21.710938 9.242188 22.289062 9.242188 22.289062 L 10.203125 22.289062 C 10.203125 22.289062 10.078125 21.710938 9.722656 21.710938 Z M 23.210938 21.808594 C 22.867188 21.820312 22.75 22.285156 22.75 22.285156 L 23.710938 22.285156 C 23.710938 22.285156 23.585938 21.808594 23.226562 21.808594 C 23.226562 21.808594 23.21875 21.808594 23.210938 21.808594 Z M 9.242188 23.242188 C 9.242188 23.242188 9.390625 23.71875 9.722656 23.71875 C 10.054688 23.71875 10.203125 23.242188 10.203125 23.242188 Z M 11.167969 23.242188 C 11.167969 23.242188 11.320312 24.484375 11.648438 24.484375 C 11.980469 24.484375 12.132812 23.242188 12.132812 23.242188 Z M 13.09375 23.242188 C 13.09375 23.242188 13.171875 24.960938 13.578125 24.960938 C 13.984375 24.960938 14.058594 23.242188 14.058594 23.242188 Z M 15.023438 23.242188 C 15.023438 23.242188 15.023438 25.152344 15.503906 25.152344 C 15.984375 25.152344 15.984375 23.242188 15.984375 23.242188 Z M 16.949219 23.242188 C 16.949219 23.242188 17.023438 25.007812 17.429688 25.007812 C 17.835938 25.007812 17.914062 23.242188 17.914062 23.242188 Z M 18.875 23.242188 C 18.875 23.242188 19.027344 24.769531 19.359375 24.769531 C 19.6875 24.769531 19.839844 23.242188 19.839844 23.242188 Z M 20.804688 23.242188 C 20.804688 23.242188 20.953125 24.195312 21.285156 24.195312 C 21.617188 24.195312 21.765625 23.242188 21.765625 23.242188 Z M 20.804688 23.242188 "/></g></svg>
