<svg width="64" height="64" viewBox="0 0 64 64" version="1.1"><defs><linearGradient id="linear-pattern-0" gradientUnits="userSpaceOnUse" x1="0" y1="0" x2="0" y2="1" gradientTransform="matrix(60, 0, 0, 56, 0, 4)"><stop offset="0" stop-color="#00983a" stop-opacity="1"/><stop offset="1" stop-color="#004a1c" stop-opacity="1"/></linearGradient></defs><path fill="url(#linear-pattern-0)" fill-opacity="1" d="M 36.21875 2.050781 L 62.027344 27.605469 C 64.402344 29.957031 64.417969 33.785156 62.058594 36.15625 L 36.460938 61.917969 C 34.105469 64.289062 30.269531 64.304688 27.894531 61.949219 L 2.085938 36.394531 C -0.289062 34.042969 -0.304688 30.214844 2.050781 27.84375 L 27.652344 2.082031 C 30.007812 -0.289062 33.84375 -0.304688 36.21875 2.050781 Z M 36.21875 2.050781 " /><g transform="matrix(1.0075098,0,0,1.0032698,16.221436,16.077397)"><path fill-rule="nonzero" fill="rgb(100%, 100%, 100%)" fill-opacity="1" d="M 3.53125 2.59375 C 2.847656 2.59375 2.296875 3.171875 2.296875 3.882812 L 2.296875 19.296875 C 2.296875 20.011719 2.847656 20.585938 3.53125 20.585938 L 17.699219 20.585938 L 25.707031 28.9375 L 25.707031 20.585938 L 28.171875 20.585938 C 28.851562 20.585938 29.40625 20.011719 29.40625 19.296875 L 29.40625 3.882812 C 29.40625 3.171875 28.851562 2.59375 28.171875 2.59375 Z M 4.765625 5.164062 L 7.226562 5.164062 L 9.691406 14.160156 L 12.15625 5.164062 L 14.617188 5.164062 L 10.921875 18.015625 L 8.460938 18.015625 Z M 17.085938 5.164062 L 23.242188 5.164062 C 25.285156 5.164062 26.9375 6.890625 26.9375 9.019531 C 26.9375 10.867188 25.679688 12.453125 23.941406 12.804688 L 26.9375 18.015625 L 24.476562 18.015625 L 21.519531 12.875 L 19.546875 12.875 L 19.546875 18.015625 L 17.085938 18.015625 Z M 19.546875 7.734375 L 19.546875 10.304688 L 23.242188 10.304688 C 23.921875 10.304688 24.476562 9.730469 24.476562 9.019531 C 24.476562 8.3125 23.921875 7.734375 23.242188 7.734375 Z M 19.546875 7.734375 "/></g></svg>
