<svg width="64" height="64" viewBox="0 0 64 64" version="1.1"><defs><linearGradient id="linear-pattern-0" gradientUnits="userSpaceOnUse" x1="0" y1="0" x2="0" y2="1" gradientTransform="matrix(60, 0, 0, 56, 0, 4)"><stop offset="0" stop-color="#3067ff" stop-opacity="1"/><stop offset="1" stop-color="#002ca6" stop-opacity="1"/></linearGradient></defs><path fill="url(#linear-pattern-0)" fill-opacity="1" d="M 36.21875 2.050781 L 62.027344 27.605469 C 64.402344 29.957031 64.417969 33.785156 62.058594 36.15625 L 36.460938 61.917969 C 34.105469 64.289062 30.269531 64.304688 27.894531 61.949219 L 2.085938 36.394531 C -0.289062 34.042969 -0.304688 30.214844 2.050781 27.84375 L 27.652344 2.082031 C 30.007812 -0.289062 33.84375 -0.304688 36.21875 2.050781 Z M 36.21875 2.050781 " /><g transform="matrix(1.0075098,0,0,1.0032698,16.221436,16.077397)"><path fill-rule="nonzero" fill="rgb(100%, 100%, 100%)" fill-opacity="1" d="M 16.5 13.59375 C 16.832031 12.929688 17.164062 11.726562 17.164062 11.328125 C 17.164062 10.796875 15.832031 10.796875 15.832031 11.328125 C 15.832031 11.726562 16.164062 12.929688 16.5 13.59375 Z M 16.5 18.929688 C 16.832031 19.59375 17.164062 20.796875 17.164062 21.195312 C 17.164062 21.726562 15.832031 21.726562 15.832031 21.195312 C 15.832031 20.796875 16.164062 19.59375 16.5 18.929688 Z M 13.832031 16.261719 C 13.164062 16.59375 11.964844 16.929688 11.5625 16.929688 C 11.03125 16.929688 11.03125 15.59375 11.5625 15.59375 C 11.964844 15.59375 13.164062 15.929688 13.832031 16.261719 Z M 19.164062 16.261719 C 19.832031 16.59375 21.03125 16.929688 21.429688 16.929688 C 21.964844 16.929688 21.964844 15.59375 21.429688 15.59375 C 21.03125 15.59375 19.832031 15.929688 19.164062 16.261719 Z M 12.5 12.929688 C 12.5 12.59375 12.832031 12.261719 13.164062 12.261719 C 13.429688 12.261719 14.164062 13.261719 14.5 14.261719 C 13.5 13.929688 12.5 13.195312 12.5 12.929688 Z M 12.5 19.59375 C 12.5 19.929688 12.832031 20.261719 13.164062 20.261719 C 13.429688 20.261719 14.164062 19.261719 14.5 18.261719 C 13.5 18.59375 12.5 19.328125 12.5 19.59375 Z M 20.5 12.929688 C 20.5 12.59375 20.164062 12.261719 19.832031 12.261719 C 19.5625 12.261719 18.832031 13.261719 18.5 14.261719 C 19.5 13.929688 20.5 13.195312 20.5 12.929688 Z M 20.5 19.59375 C 20.5 19.929688 20.164062 20.261719 19.832031 20.261719 C 19.5625 20.261719 18.832031 19.261719 18.5 18.261719 C 19.5 18.59375 20.5 19.328125 20.5 19.59375 Z M 20.5 19.59375 "/><path fill-rule="nonzero" fill="rgb(100%, 100%, 100%)" fill-opacity="1" d="M 13.59375 7.015625 C 14.011719 7.820312 14.429688 9.425781 14.429688 11.035156 C 13.179688 9.828125 12.351562 8.621094 11.933594 7.820312 Z M 6.945312 13.449219 C 7.773438 13.851562 9.4375 14.253906 11.101562 14.253906 C 9.855469 13.046875 8.609375 12.242188 7.773438 11.839844 Z M 13.59375 26.320312 C 14.011719 25.515625 14.429688 23.90625 14.429688 22.296875 C 13.179688 23.507812 12.351562 24.710938 11.933594 25.515625 Z M 6.945312 19.882812 C 7.773438 19.484375 9.4375 19.078125 11.101562 19.078125 C 9.855469 20.289062 8.609375 21.09375 7.773438 21.492188 Z M 20.25 7.015625 C 19.832031 7.820312 19.414062 9.425781 19.414062 11.035156 C 20.664062 9.828125 21.492188 8.621094 21.910156 7.820312 Z M 26.898438 13.449219 C 26.070312 13.851562 24.40625 14.253906 22.742188 14.253906 C 23.988281 13.046875 25.234375 12.242188 26.070312 11.839844 Z M 20.25 26.320312 C 19.832031 25.515625 19.414062 23.90625 19.414062 22.296875 C 20.664062 23.507812 21.492188 24.710938 21.910156 25.515625 Z M 26.898438 19.882812 C 26.070312 19.484375 24.40625 19.078125 22.742188 19.078125 C 23.988281 20.289062 25.234375 21.09375 26.070312 21.492188 Z M 26.898438 19.882812 "/><path fill-rule="nonzero" fill="rgb(100%, 100%, 100%)" fill-opacity="1" d="M 16.320312 1.414062 C 8.207031 1.414062 1.628906 7.964844 1.628906 16.046875 C 1.628906 24.125 8.207031 30.679688 16.320312 30.675781 C 24.429688 30.679688 31.007812 24.125 31.007812 16.046875 C 31.007812 7.964844 24.429688 1.414062 16.320312 1.414062 M 16.320312 4.34375 C 22.8125 4.339844 28.070312 9.578125 28.070312 16.046875 C 28.070312 22.511719 22.8125 27.75 16.320312 27.75 C 9.828125 27.75 4.566406 22.511719 4.566406 16.046875 C 4.566406 9.578125 9.828125 4.339844 16.320312 4.34375 "/></g></svg>
