<svg width="64" height="64" viewBox="0 0 64 64" version="1.1"><defs><linearGradient id="linear-pattern-0" gradientUnits="userSpaceOnUse" x1="0" y1="0" x2="0" y2="1" gradientTransform="matrix(60, 0, 0, 56, 0, 4)"><stop offset="0" stop-color="#3067ff" stop-opacity="1"/><stop offset="1" stop-color="#002ca6" stop-opacity="1"/></linearGradient></defs><path fill="url(#linear-pattern-0)" fill-opacity="1" d="M 36.21875 2.050781 L 62.027344 27.605469 C 64.402344 29.957031 64.417969 33.785156 62.058594 36.15625 L 36.460938 61.917969 C 34.105469 64.289062 30.269531 64.304688 27.894531 61.949219 L 2.085938 36.394531 C -0.289062 34.042969 -0.304688 30.214844 2.050781 27.84375 L 27.652344 2.082031 C 30.007812 -0.289062 33.84375 -0.304688 36.21875 2.050781 Z M 36.21875 2.050781 " /><g transform="matrix(1.0075098,0,0,1.0032698,16.221436,16.077397)"><path fill-rule="nonzero" fill="rgb(100%, 100%, 100%)" fill-opacity="1" d="M 8.09375 0.433594 C 7.492188 0.429688 6.804688 0.507812 6.339844 0.671875 C 4.820312 1.609375 4.25 1.8125 4.859375 2.894531 C 4.933594 2.96875 5.335938 3.894531 5.542969 3.925781 C 5.8125 3.960938 6.179688 4.179688 6.683594 4.601562 C 7.367188 5.1875 7.429688 5.207031 7.757812 5.089844 C 7.945312 5.015625 8.273438 4.964844 8.492188 4.964844 L 8.886719 4.964844 L 8.585938 5.375 C 7.679688 5.621094 7.851562 7.160156 8.296875 7.9375 L 8.40625 8.578125 C 8.167969 8.601562 7.921875 9.144531 7.941406 9.492188 C 7.972656 10.160156 8.390625 10.351562 8.242188 10.40625 C 7.757812 10.585938 6.667969 10.382812 5.351562 10.230469 C 4.796875 9.765625 4.546875 9.410156 4.195312 9.277344 C 3.691406 9.078125 3.421875 9.1875 3.078125 9.347656 C 2.886719 9.429688 3.515625 9.835938 3.359375 9.898438 C 3.152344 9.976562 2.296875 8.941406 2.210938 9.070312 C 2.085938 9.242188 1.757812 9.421875 2.785156 10.671875 C 3.058594 10.878906 3.558594 11.109375 3.753906 11.152344 C 3.960938 11.191406 4.40625 11.171875 4.476562 11.210938 C 4.882812 11.449219 6.828125 12.015625 8.96875 12.234375 C 10.085938 12.359375 9.996094 12.226562 10.484375 11.53125 C 10.703125 11.222656 10.992188 10.796875 11.03125 10.691406 C 11.09375 10.539062 11.4375 9.820312 11.757812 9.78125 C 12.148438 9.742188 12.472656 10.507812 12.75 10.78125 C 13.445312 11.664062 13.835938 12.632812 13.773438 13.277344 C 13.851562 13.5625 13.757812 13.726562 12.851562 14.789062 C 11.402344 16.054688 10.792969 17.53125 10.257812 17.789062 C 9.367188 19.34375 9.96875 20.039062 9.546875 21.03125 C 9.3125 21.5625 9.273438 21.820312 9.367188 21.898438 C 9.574219 22.070312 9.546875 22.359375 9.242188 23.304688 C 9.101562 23.75 8.960938 24.601562 8.921875 25.167969 C 8.714844 26.183594 8.566406 27.40625 8.523438 28.273438 C 8.59375 28.414062 8.769531 28.578125 8.828125 28.78125 C 8.796875 28.84375 8.78125 28.882812 8.75 28.921875 C 8.523438 29.1875 7.570312 29.414062 7.402344 29.511719 C 6.742188 29.8125 6 30.21875 6.21875 30.742188 C 6.460938 31.109375 6.710938 31.476562 7.515625 31.476562 L 9.335938 31.011719 L 10.070312 30.765625 C 10.476562 30.632812 11.046875 30.414062 11.320312 30.253906 C 11.449219 30.1875 11.617188 30.113281 11.773438 30.039062 L 11.78125 30.039062 C 11.835938 30.015625 11.886719 30 11.929688 29.976562 C 12.085938 29.902344 12.242188 29.84375 12.367188 29.796875 C 12.648438 29.6875 12.867188 29.554688 12.84375 29.496094 L 12.835938 29.492188 L 12.851562 29.492188 C 12.851562 29.492188 12.84375 29.492188 12.835938 29.484375 C 12.8125 29.4375 12.695312 29.3125 12.539062 29.183594 C 12.515625 29.15625 12.5 29.132812 12.488281 29.101562 L 13.316406 28.554688 C 13.160156 28.640625 13.234375 28.203125 13.089844 28.28125 C 12.515625 28.601562 12.226562 28.523438 12.164062 28.523438 C 11.9375 28.523438 11.957031 27.953125 12.125 27.71875 C 12.203125 27.59375 12.5625 27.296875 12.59375 27.160156 C 12.625 27.042969 12.726562 26.519531 12.832031 26.015625 C 12.9375 25.515625 13 24.96875 12.964844 24.804688 C 12.925781 24.640625 12.953125 24.476562 13.015625 24.429688 C 13.230469 24.328125 13.710938 23.398438 13.710938 23.101562 C 13.710938 22.953125 13.664062 22.804688 13.578125 22.765625 C 13.503906 22.738281 13.566406 22.546875 13.726562 22.308594 C 13.953125 21.980469 13.976562 21.796875 13.898438 21.15625 L 13.820312 20.410156 L 14.507812 19.851562 C 14.898438 19.539062 15.3125 19.292969 15.449219 19.292969 C 15.585938 19.292969 15.957031 19.625 16.421875 20.226562 C 16.84375 20.75 17.417969 21.367188 17.726562 21.609375 C 18.230469 22.035156 18.296875 22.070312 18.964844 22.070312 C 19.539062 22.070312 19.84375 21.984375 20.78125 21.5625 C 21.515625 21.230469 22.375 20.960938 23.359375 20.757812 C 24.152344 20.59375 24.898438 20.375 25.015625 20.273438 C 25.132812 20.175781 25.328125 19.875 25.453125 19.609375 C 25.578125 19.34375 25.75 19.09375 25.832031 19.054688 C 26.117188 18.902344 26.671875 18.96875 26.898438 19.171875 C 27.15625 19.402344 27.171875 20.210938 27.25 20.382812 C 27.4375 20.976562 27.734375 21.65625 28.414062 21.625 C 28.90625 21.53125 29.40625 21.421875 29.613281 20.785156 L 29.53125 19.234375 L 29.429688 18.59375 C 29.378906 18.242188 29.242188 17.742188 29.132812 17.476562 C 29.03125 17.207031 28.90625 16.792969 28.859375 16.53125 C 28.8125 16.289062 28.699219 16.085938 28.625 16.085938 C 28.523438 16.085938 28.109375 16.257812 27.679688 16.46875 C 26.390625 17.101562 26.257812 17.144531 24.984375 17.257812 C 23.476562 17.398438 21.921875 17.644531 21.582031 17.796875 C 21.203125 17.96875 20.414062 18 20.414062 17.835938 C 20.414062 17.769531 20.308594 17.6875 20.175781 17.664062 C 19.992188 17.625 19.902344 17.429688 19.796875 16.855469 C 19.636719 16.023438 19.707031 15.59375 20.164062 14.671875 C 20.6875 13.609375 20.445312 12.023438 19.734375 12.023438 C 19.5 12.023438 19.480469 11.984375 19.546875 11.667969 C 19.613281 11.378906 19.574219 11.253906 19.3125 11.027344 C 19.097656 10.835938 19.023438 10.671875 19.0625 10.480469 C 19.109375 10.300781 19.074219 10.203125 18.972656 10.203125 C 18.875 10.203125 18.839844 10.125 18.890625 10.03125 C 18.984375 9.828125 18.496094 9.140625 18.257812 9.140625 C 18.058594 9.140625 17.789062 8.6875 17.789062 8.375 C 17.789062 8.269531 17.664062 8.085938 17.519531 7.992188 C 17.382812 7.886719 17.261719 7.765625 17.261719 7.714844 C 17.261719 7.65625 17.089844 7.296875 16.882812 6.914062 C 16.671875 6.515625 16.476562 5.96875 16.429688 5.703125 C 16.34375 5.128906 16.445312 5.023438 17.398438 4.699219 C 17.71875 4.585938 18.207031 4.390625 18.46875 4.25 L 18.960938 4.007812 L 19.328125 4.460938 C 19.539062 4.710938 20.074219 5.113281 20.53125 5.378906 C 20.980469 5.632812 21.554688 6.0625 21.789062 6.339844 C 22.183594 6.78125 22.226562 6.882812 22.160156 7.335938 C 22.09375 7.78125 22.132812 7.90625 22.515625 8.386719 C 22.914062 8.890625 23.171875 9.058594 23.171875 8.8125 C 23.171875 8.765625 23.492188 8.898438 23.871094 9.140625 C 24.242188 9.371094 24.605469 9.546875 24.671875 9.53125 C 24.75 9.515625 24.851562 9.359375 24.921875 9.199219 C 25.011719 8.976562 24.972656 8.730469 24.75 8.195312 C 24.59375 7.796875 24.382812 7.40625 24.304688 7.320312 C 24.203125 7.234375 23.871094 6.773438 23.570312 6.304688 C 23.257812 5.835938 22.703125 5.070312 22.304688 4.625 C 21.921875 4.164062 21.648438 3.726562 21.6875 3.640625 C 21.78125 3.449219 20.425781 2.308594 19.710938 1.984375 C 19.183594 1.738281 18.507812 1.738281 17 1.976562 C 16.082031 2.125 14.164062 2.371094 12.929688 2.511719 C 12.304688 2.578125 11.675781 2.710938 11.523438 2.789062 C 11.28125 2.90625 11.210938 2.914062 11.210938 2.808594 C 11.210938 2.734375 11.03125 2.570312 10.820312 2.457031 C 10.597656 2.339844 10.21875 1.921875 9.96875 1.515625 C 9.710938 1.117188 9.335938 0.714844 9.164062 0.617188 C 8.953125 0.507812 8.539062 0.453125 8.078125 0.445312 "/></g></svg>
