<svg width="64" height="64" viewBox="0 0 64 64" version="1.1"><defs><linearGradient id="linear-pattern-0" gradientUnits="userSpaceOnUse" x1="0" y1="0" x2="0" y2="1" gradientTransform="matrix(60, 0, 0, 56, 0, 4)"><stop offset="0" stop-color="#ec7700" stop-opacity="1"/><stop offset="1" stop-color="#773c00" stop-opacity="1"/></linearGradient></defs><path fill="url(#linear-pattern-0)" fill-opacity="1" d="M 36.21875 2.050781 L 62.027344 27.605469 C 64.402344 29.957031 64.417969 33.785156 62.058594 36.15625 L 36.460938 61.917969 C 34.105469 64.289062 30.269531 64.304688 27.894531 61.949219 L 2.085938 36.394531 C -0.289062 34.042969 -0.304688 30.214844 2.050781 27.84375 L 27.652344 2.082031 C 30.007812 -0.289062 33.84375 -0.304688 36.21875 2.050781 Z M 36.21875 2.050781 " /><g transform="matrix(1.0075098,0,0,1.0032698,16.221436,16.077397)"><path fill-rule="nonzero" fill="rgb(100%, 100%, 100%)" fill-opacity="1" d="M 14.890625 0.777344 L 14.007812 3.585938 C 12.707031 3.898438 11.484375 4.421875 10.378906 5.117188 L 8 3.796875 L 5.050781 6.816406 L 6.34375 9.246094 C 5.660156 10.375 5.148438 11.625 4.84375 12.957031 L 2.097656 13.859375 L 2.097656 17.886719 L 4.84375 18.789062 C 5.148438 20.121094 5.660156 21.371094 6.34375 22.5 L 5.050781 24.929688 L 8 27.953125 L 10.378906 26.628906 C 11.484375 27.328125 12.707031 27.851562 14.007812 28.164062 L 14.890625 30.96875 L 18.828125 30.96875 L 19.710938 28.164062 C 21.015625 27.851562 22.234375 27.328125 23.34375 26.628906 L 25.71875 27.953125 L 28.671875 24.929688 L 27.375 22.5 C 28.058594 21.371094 28.570312 20.121094 28.875 18.789062 L 31.621094 17.886719 L 31.621094 13.859375 L 28.875 12.957031 C 28.570312 11.625 28.058594 10.375 27.375 9.246094 L 28.671875 6.816406 L 25.71875 3.796875 L 23.34375 5.117188 C 22.234375 4.421875 21.015625 3.898438 19.710938 3.585938 L 18.828125 0.777344 Z M 16.859375 5.8125 C 22.398438 5.8125 26.703125 10.210938 26.703125 15.875 C 26.703125 21.539062 22.398438 25.9375 16.859375 25.9375 C 11.320312 25.9375 7.019531 21.539062 7.019531 15.875 C 7.019531 10.210938 11.320312 5.8125 16.859375 5.8125 Z M 11.9375 9.835938 L 10.953125 13.859375 L 11.9375 13.859375 L 11.9375 21.914062 L 13.90625 21.914062 L 13.90625 9.835938 Z M 15.875 9.835938 L 14.890625 13.859375 L 15.875 13.859375 L 15.875 21.914062 L 17.84375 21.914062 L 17.84375 9.835938 Z M 19.8125 9.835938 L 18.828125 13.859375 L 19.8125 13.859375 L 19.8125 21.914062 L 21.78125 21.914062 L 21.78125 9.835938 Z M 19.8125 9.835938 "/></g></svg>
