<svg width="64" height="64" viewBox="0 0 64 64" version="1.1"><defs><linearGradient id="linear-pattern-0" gradientUnits="userSpaceOnUse" x1="0" y1="0" x2="0" y2="1" gradientTransform="matrix(60, 0, 0, 56, 0, 4)"><stop offset="0" stop-color="#3067ff" stop-opacity="1"/><stop offset="1" stop-color="#002ca6" stop-opacity="1"/></linearGradient></defs><path fill="url(#linear-pattern-0)" fill-opacity="1" d="M 36.21875 2.050781 L 62.027344 27.605469 C 64.402344 29.957031 64.417969 33.785156 62.058594 36.15625 L 36.460938 61.917969 C 34.105469 64.289062 30.269531 64.304688 27.894531 61.949219 L 2.085938 36.394531 C -0.289062 34.042969 -0.304688 30.214844 2.050781 27.84375 L 27.652344 2.082031 C 30.007812 -0.289062 33.84375 -0.304688 36.21875 2.050781 Z M 36.21875 2.050781 " /><g transform="matrix(1.0075098,0,0,1.0032698,16.221436,16.077397)"><path fill-rule="nonzero" fill="rgb(100%, 100%, 100%)" fill-opacity="1" d="M 7.382812 24.492188 L 7.382812 29.671875 C 7.382812 30.390625 7.929688 30.96875 8.605469 30.96875 L 9.828125 30.96875 C 10.5 30.96875 11.046875 30.390625 11.046875 29.671875 L 11.046875 24.492188 Z M 23.273438 24.492188 L 23.273438 29.671875 C 23.273438 30.390625 23.816406 30.96875 24.492188 30.96875 L 25.714844 30.96875 C 26.390625 30.96875 26.9375 30.390625 26.9375 29.671875 L 26.9375 24.492188 Z M 23.273438 24.492188 "/><path fill-rule="nonzero" fill="rgb(100%, 100%, 100%)" fill-opacity="1" d="M 8.234375 12.828125 C 7.746094 12.828125 7.347656 13.242188 7.347656 13.765625 L 7.347656 22.257812 L 11.015625 22.257812 L 11.015625 13.765625 C 11.015625 13.242188 10.621094 12.828125 10.125 12.828125 Z M 24.125 12.828125 C 23.632812 12.828125 23.234375 13.242188 23.234375 13.765625 L 23.234375 22.257812 L 26.902344 22.257812 L 26.902344 13.765625 C 26.902344 13.242188 26.507812 12.828125 26.015625 12.828125 Z M 24.125 12.828125 "/><path fill-rule="nonzero" fill="rgb(100%, 100%, 100%)" fill-opacity="1" d="M 7.382812 5.050781 L 7.382812 11.527344 L 9.828125 11.527344 L 9.828125 10.234375 L 11.046875 10.234375 L 11.660156 9.585938 L 11.046875 8.9375 L 9.828125 8.9375 L 9.828125 7.640625 L 11.046875 7.640625 L 11.660156 6.992188 L 11.046875 5.695312 L 9.828125 6.34375 L 9.828125 5.050781 Z M 24.492188 5.050781 L 24.492188 6.34375 L 23.273438 5.695312 L 22.660156 6.992188 L 23.273438 7.640625 L 24.492188 7.640625 L 24.492188 8.9375 L 23.273438 8.9375 L 22.660156 9.585938 L 23.273438 10.234375 L 24.492188 10.234375 L 24.492188 11.527344 L 26.9375 11.527344 L 26.9375 5.050781 Z M 24.492188 5.050781 "/><path fill-rule="nonzero" fill="rgb(100%, 100%, 100%)" fill-opacity="1" d="M 8.605469 15.414062 C 6.160156 15.414062 6.160156 18.007812 6.160156 18.007812 L 6.160156 21.898438 L 8.605469 24.492188 L 11.046875 21.898438 L 11.046875 18.007812 C 11.046875 18.007812 11.046875 15.414062 8.605469 15.414062 Z M 25.714844 15.414062 C 23.273438 15.414062 23.273438 18.007812 23.273438 18.007812 L 23.273438 21.898438 L 25.714844 24.492188 L 28.160156 21.898438 L 28.160156 18.007812 C 28.160156 18.007812 28.160156 15.414062 25.714844 15.414062 Z M 25.714844 15.414062 "/><path fill-rule="nonzero" fill="rgb(100%, 100%, 100%)" fill-opacity="1" d="M 11.046875 5.050781 L 23.273438 5.050781 L 23.273438 11.527344 L 17.160156 12.828125 L 11.046875 11.527344 Z M 11.046875 5.050781 "/><path fill-rule="nonzero" fill="rgb(100%, 100%, 100%)" fill-opacity="1" d="M 6.160156 21.898438 L 28.160156 21.898438 L 28.160156 25.785156 L 24.492188 27.078125 L 9.828125 27.078125 L 6.160156 25.785156 Z M 6.160156 21.898438 "/><path fill-rule="nonzero" fill="rgb(100%, 100%, 100%)" fill-opacity="1" d="M 12.796875 13.578125 L 12.796875 21.351562 L 14.015625 21.351562 L 14.015625 13.578125 Z M 15.234375 13.578125 L 15.234375 21.351562 L 16.460938 21.351562 L 16.460938 13.578125 Z M 17.679688 13.578125 L 17.679688 21.351562 L 18.902344 21.351562 L 18.902344 13.578125 Z M 20.125 13.578125 L 20.125 21.351562 L 21.351562 21.351562 L 21.351562 13.578125 Z M 20.125 13.578125 "/><path fill-rule="nonzero" fill="rgb(100%, 100%, 100%)" fill-opacity="1" d="M 11.046875 3.75 L 23.273438 3.75 L 24.492188 6.34375 L 9.828125 6.34375 Z M 11.046875 3.75 "/><path fill-rule="nonzero" fill="rgb(100%, 100%, 100%)" fill-opacity="1" d="M 13.492188 1.164062 C 12.816406 1.164062 12.273438 1.738281 12.273438 2.457031 C 12.273438 3.171875 12.816406 3.75 13.492188 3.75 C 14.171875 3.75 14.710938 3.171875 14.710938 2.457031 C 14.710938 1.738281 14.171875 1.164062 13.492188 1.164062 Z M 20.828125 1.164062 C 20.148438 1.164062 19.605469 1.738281 19.605469 2.457031 C 19.605469 3.171875 20.148438 3.75 20.828125 3.75 C 21.5 3.75 22.046875 3.171875 22.046875 2.457031 C 22.046875 1.738281 21.5 1.164062 20.828125 1.164062 Z M 20.828125 1.164062 "/></g></svg>
