<svg width="64" height="64" viewBox="0 0 64 64" version="1.1"><defs><linearGradient id="linear-pattern-0" gradientUnits="userSpaceOnUse" x1="0" y1="0" x2="0" y2="1" gradientTransform="matrix(60, 0, 0, 56, 0, 4)"><stop offset="0" stop-color="#ec7700" stop-opacity="1"/><stop offset="1" stop-color="#773c00" stop-opacity="1"/></linearGradient></defs><path fill="url(#linear-pattern-0)" fill-opacity="1" d="M 36.21875 2.050781 L 62.027344 27.605469 C 64.402344 29.957031 64.417969 33.785156 62.058594 36.15625 L 36.460938 61.917969 C 34.105469 64.289062 30.269531 64.304688 27.894531 61.949219 L 2.085938 36.394531 C -0.289062 34.042969 -0.304688 30.214844 2.050781 27.84375 L 27.652344 2.082031 C 30.007812 -0.289062 33.84375 -0.304688 36.21875 2.050781 Z M 36.21875 2.050781 " /><g transform="matrix(1.0075098,0,0,1.0032698,16.221436,16.077397)"><path fill-rule="nonzero" fill="rgb(100%, 100%, 100%)" fill-opacity="1" d="M 15.832031 1.421875 C 12.503906 1.421875 9.804688 4.230469 9.804688 7.695312 C 9.808594 8.296875 9.890625 8.894531 10.054688 9.472656 C 8.480469 9.890625 7.75 10.550781 7.398438 11.460938 C 4.988281 17.738281 4.988281 17.738281 4.988281 21.507812 C 4.988281 22.4375 4.988281 22.757812 7.398438 22.757812 C 7.398438 21.507812 9.804688 16.484375 9.804688 16.484375 C 9.804688 16.484375 8.601562 20.25 8.601562 22.757812 C 8.601562 26.527344 9.804688 26.527344 9.804688 27.78125 C 9.804688 29.105469 11.011719 31.546875 11.011719 31.546875 L 13.421875 31.546875 C 13.421875 31.546875 14.625 31.546875 15.832031 27.78125 C 17.039062 31.546875 18.242188 31.546875 18.242188 31.546875 L 20.648438 31.546875 C 20.648438 31.546875 21.855469 29.105469 21.855469 27.78125 C 21.855469 26.527344 23.0625 26.527344 23.0625 22.757812 C 23.0625 20.625 21.855469 16.484375 21.855469 16.484375 C 21.855469 16.484375 24.265625 21.507812 24.265625 22.757812 C 26.675781 22.757812 26.675781 22.4375 26.675781 21.507812 C 26.675781 17.738281 26.675781 17.738281 24.265625 11.460938 C 23.914062 10.550781 23.179688 9.890625 21.609375 9.472656 C 21.773438 8.894531 21.855469 8.296875 21.855469 7.695312 C 21.855469 4.230469 19.15625 1.421875 15.832031 1.421875 Z M 15.832031 1.421875 "/></g></svg>
