<svg width="64" height="64" viewBox="0 0 64 64" version="1.1"><defs><linearGradient id="linear-pattern-0" gradientUnits="userSpaceOnUse" x1="0" y1="0" x2="0" y2="1" gradientTransform="matrix(60, 0, 0, 56, 0, 4)"><stop offset="0" stop-color="#0288cf" stop-opacity="1"/><stop offset="1" stop-color="#01486e" stop-opacity="1"/></linearGradient></defs><path fill="url(#linear-pattern-0)" fill-opacity="1" d="M 36.21875 2.050781 L 62.027344 27.605469 C 64.402344 29.957031 64.417969 33.785156 62.058594 36.15625 L 36.460938 61.917969 C 34.105469 64.289062 30.269531 64.304688 27.894531 61.949219 L 2.085938 36.394531 C -0.289062 34.042969 -0.304688 30.214844 2.050781 27.84375 L 27.652344 2.082031 C 30.007812 -0.289062 33.84375 -0.304688 36.21875 2.050781 Z M 36.21875 2.050781 " /><g transform="matrix(1.0075098,0,0,1.0032698,16.221436,16.077397)"><path fill-rule="nonzero" fill="rgb(100%, 100%, 100%)" fill-opacity="1" d="M 15.734375 3.21875 C 7.75 3.21875 5.757812 10.882812 5.757812 10.882812 L 5.757812 11.292969 C 3.109375 12.34375 1.765625 15.429688 1.765625 18.550781 C 1.765625 22.382812 3.761719 26.21875 7.75 26.21875 C 9.75 26.21875 9.75 24.304688 9.75 24.304688 L 9.75 12.800781 C 9.75 12.800781 9.75 10.882812 7.75 10.882812 C 7.75 10.882812 9.75 5.132812 15.734375 5.132812 C 21.71875 5.132812 23.71875 10.882812 23.71875 10.882812 C 21.71875 10.882812 21.71875 12.800781 21.71875 12.800781 L 21.71875 24.304688 C 21.71875 24.304688 21.71875 26.21875 23.71875 26.21875 L 19.726562 26.21875 C 18.617188 26.21875 17.730469 27.074219 17.730469 28.132812 C 17.730469 29.195312 18.617188 30.054688 19.726562 30.054688 C 20.828125 30.054688 21.71875 29.195312 21.71875 28.132812 C 23.71875 28.132812 25.710938 26.21875 25.710938 26.21875 C 27.84375 23.945312 29.65625 21.335938 29.703125 18.550781 C 29.703125 15.429688 28.359375 12.34375 25.710938 11.292969 L 25.710938 10.882812 C 25.710938 10.882812 23.71875 3.21875 15.734375 3.21875 Z M 13.738281 8.96875 L 13.738281 20.46875 L 17.730469 20.46875 L 17.730469 8.96875 Z M 13.738281 8.96875 "/></g></svg>
