<svg width="64" height="64" viewBox="0 0 64 64" version="1.1"><defs><linearGradient id="linear-pattern-0" gradientUnits="userSpaceOnUse" x1="0" y1="0" x2="0" y2="1" gradientTransform="matrix(60, 0, 0, 56, 0, 4)"><stop offset="0" stop-color="#8900e4" stop-opacity="1"/><stop offset="1" stop-color="#42006e" stop-opacity="1"/></linearGradient></defs><path fill="url(#linear-pattern-0)" fill-opacity="1" d="M 36.21875 2.050781 L 62.027344 27.605469 C 64.402344 29.957031 64.417969 33.785156 62.058594 36.15625 L 36.460938 61.917969 C 34.105469 64.289062 30.269531 64.304688 27.894531 61.949219 L 2.085938 36.394531 C -0.289062 34.042969 -0.304688 30.214844 2.050781 27.84375 L 27.652344 2.082031 C 30.007812 -0.289062 33.84375 -0.304688 36.21875 2.050781 Z M 36.21875 2.050781 " /><g transform="matrix(1.0075098,0,0,1.0032698,16.221436,16.077397)"><path fill-rule="nonzero" fill="rgb(100%, 100%, 100%)" fill-opacity="1" d="M 5.195312 2.015625 L 5.195312 3.382812 L 3.039062 3.382812 L 3.039062 4.75 L 1.964844 4.75 L 1.964844 6.109375 L 29.976562 6.109375 L 29.976562 4.75 L 28.898438 4.75 L 28.898438 3.382812 L 26.742188 3.382812 L 26.742188 2.015625 L 22.433594 2.015625 L 22.433594 3.382812 L 18.125 3.382812 L 18.125 2.015625 L 13.8125 2.015625 L 13.8125 3.382812 L 9.507812 3.382812 L 9.507812 2.015625 Z M 5.195312 2.015625 "/><path fill-rule="nonzero" fill="rgb(100%, 100%, 100%)" fill-opacity="1" d="M 2.101562 7.871094 L 30.113281 7.871094 L 30.113281 10.601562 L 2.101562 10.601562 Z M 2.101562 7.871094 "/><path fill-rule="nonzero" fill="rgb(100%, 100%, 100%)" fill-opacity="1" d="M 25.515625 13.796875 L 29.828125 13.796875 L 29.828125 28.8125 L 25.515625 28.8125 Z M 25.515625 13.796875 "/><path fill-rule="nonzero" fill="rgb(100%, 100%, 100%)" fill-opacity="1" d="M 3.03125 13.9375 L 7.339844 13.9375 L 7.339844 28.953125 L 3.03125 28.953125 Z M 3.03125 13.9375 "/><path fill-rule="nonzero" fill="rgb(100%, 100%, 100%)" fill-opacity="1" d="M 14.050781 14.042969 L 18.359375 14.042969 L 18.359375 29.0625 L 14.050781 29.0625 Z M 14.050781 14.042969 "/><path fill-rule="nonzero" fill="rgb(100%, 100%, 100%)" fill-opacity="1" d="M 2.59375 29.195312 L 30.609375 29.195312 L 30.609375 30.558594 L 2.59375 30.558594 Z M 2.59375 29.195312 "/><path fill-rule="nonzero" fill="rgb(100%, 100%, 100%)" fill-opacity="1" d="M 2.203125 11.988281 L 30.21875 11.988281 L 30.21875 14.714844 L 2.203125 14.714844 Z M 2.203125 11.988281 "/></g></svg>
