<svg width="64" height="64" viewBox="0 0 64 64" version="1.1"><defs><linearGradient id="linear-pattern-0" gradientUnits="userSpaceOnUse" x1="0" y1="0" x2="0" y2="1" gradientTransform="matrix(60, 0, 0, 56, 0, 4)"><stop offset="0" stop-color="#c10000" stop-opacity="1"/><stop offset="1" stop-color="#5f0000" stop-opacity="1"/></linearGradient></defs><path fill="url(#linear-pattern-0)" fill-opacity="1" d="M 36.21875 2.050781 L 62.027344 27.605469 C 64.402344 29.957031 64.417969 33.785156 62.058594 36.15625 L 36.460938 61.917969 C 34.105469 64.289062 30.269531 64.304688 27.894531 61.949219 L 2.085938 36.394531 C -0.289062 34.042969 -0.304688 30.214844 2.050781 27.84375 L 27.652344 2.082031 C 30.007812 -0.289062 33.84375 -0.304688 36.21875 2.050781 Z M 36.21875 2.050781 " /><g transform="matrix(1.0075098,0,0,1.0032698,16.221436,16.077397)"><path fill-rule="nonzero" fill="rgb(100%, 100%, 100%)" fill-opacity="1" d="M 14.351562 3.871094 C 7.515625 3.871094 1.96875 9.789062 1.96875 17.082031 C 1.96875 24.378906 7.515625 30.296875 14.351562 30.292969 C 19.347656 30.292969 23.863281 27.089844 25.773438 22.164062 L 30.777344 9.273438 C 31.003906 8.691406 31.230469 8.105469 31.230469 7.476562 C 31.234375 5.484375 29.71875 3.871094 27.855469 3.871094 Z M 26.300781 5.070312 C 27.148438 5.117188 27.859375 5.839844 27.859375 7.234375 C 27.859375 8.886719 26.390625 10.027344 25.796875 11.109375 L 27.859375 11.074219 L 27.859375 12.273438 L 24.480469 12.273438 C 24.480469 9.433594 26.753906 8.914062 26.753906 6.984375 C 26.753906 6.132812 25.605469 5.949219 25.605469 7.128906 L 24.5 7.128906 C 24.476562 5.6875 25.453125 5.03125 26.300781 5.074219 Z M 14.351562 6.269531 C 19.945312 6.269531 24.480469 11.109375 24.480469 17.078125 C 24.480469 23.050781 19.945312 27.890625 14.351562 27.890625 C 8.757812 27.890625 4.222656 23.046875 4.222656 17.078125 C 4.222656 11.109375 8.757812 6.269531 14.351562 6.269531 Z M 10.976562 8.675781 L 10.976562 11.078125 L 12.945312 11.078125 L 13.789062 13.78125 L 8.164062 23.085938 L 10.976562 23.085938 L 14.914062 16.484375 L 17.164062 23.085938 L 21.101562 23.085938 L 21.101562 20.6875 L 18.570312 20.6875 L 14.632812 8.675781 Z M 10.976562 8.675781 "/></g></svg>
