<svg width="64" height="64" viewBox="0 0 64 64" version="1.1"><defs><linearGradient id="linear-pattern-0" gradientUnits="userSpaceOnUse" x1="0" y1="0" x2="0" y2="1" gradientTransform="matrix(60, 0, 0, 56, 0, 4)"><stop offset="0" stop-color="#0288cf" stop-opacity="1"/><stop offset="1" stop-color="#01486e" stop-opacity="1"/></linearGradient></defs><path fill="url(#linear-pattern-0)" fill-opacity="1" d="M 36.21875 2.050781 L 62.027344 27.605469 C 64.402344 29.957031 64.417969 33.785156 62.058594 36.15625 L 36.460938 61.917969 C 34.105469 64.289062 30.269531 64.304688 27.894531 61.949219 L 2.085938 36.394531 C -0.289062 34.042969 -0.304688 30.214844 2.050781 27.84375 L 27.652344 2.082031 C 30.007812 -0.289062 33.84375 -0.304688 36.21875 2.050781 Z M 36.21875 2.050781 " /><g transform="matrix(1.0075098,0,0,1.0032698,16.221436,16.077397)"><path fill-rule="nonzero" fill="rgb(100%, 100%, 100%)" fill-opacity="1" d="M 15.007812 1.03125 L 3.375 6.992188 L 8.015625 10.25 L 15.007812 6.671875 Z M 17.507812 1.03125 L 17.507812 6.683594 L 24.5 10.265625 L 29.140625 7 Z M 2.5 9.242188 L 2.5 14.351562 C 2.5 14.351562 7.5 13.113281 7.5 13.113281 L 7.5 11.796875 Z M 16.132812 9.242188 C 16.015625 9.242188 15.90625 9.25 15.796875 9.257812 C 13.453125 9.445312 11.414062 10.945312 10.515625 13.15625 L 21.40625 19.253906 C 22.125 18.1875 22.511719 16.921875 22.515625 15.636719 C 22.515625 12.03125 19.609375 9.164062 16.136719 9.246094 Z M 30.015625 9.242188 L 25.015625 11.796875 L 25.015625 19.460938 L 30.015625 22.023438 Z M 24.5 20.972656 L 23.007812 21.742188 L 24.734375 26.492188 L 29.140625 24.226562 Z M 24.5 20.972656 "/><path fill-rule="nonzero" fill="rgb(100%, 100%, 100%)" fill-opacity="1" d="M 6.804688 14.457031 C 5.035156 14.59375 3.359375 15.03125 1.796875 15.695312 L 1.796875 23.367188 L 6.804688 20.8125 Z M 9.8125 14.5 C 9.5 15.261719 9.308594 16.097656 9.308594 16.976562 C 9.308594 20.503906 12.109375 23.367188 15.558594 23.367188 C 17.6875 23.367188 19.589844 22.273438 20.714844 20.609375 C 18.078125 17.257812 14.222656 14.96875 9.804688 14.5 Z M 7.328125 22.320312 L 2.6875 25.578125 L 14.316406 31.546875 L 14.316406 25.925781 Z M 22.335938 23.089844 L 16.820312 25.925781 L 16.820312 31.5625 L 24.050781 27.84375 C 23.726562 26.140625 23.117188 24.554688 22.324219 23.089844 Z M 22.335938 23.089844 "/></g></svg>
