<svg width="64" height="64" viewBox="0 0 64 64" version="1.1"><defs><linearGradient id="linear-pattern-0" gradientUnits="userSpaceOnUse" x1="0" y1="0" x2="0" y2="1" gradientTransform="matrix(60, 0, 0, 56, 0, 4)"><stop offset="0" stop-color="#c10000" stop-opacity="1"/><stop offset="1" stop-color="#5f0000" stop-opacity="1"/></linearGradient></defs><path fill="url(#linear-pattern-0)" fill-opacity="1" d="M 36.21875 2.050781 L 62.027344 27.605469 C 64.402344 29.957031 64.417969 33.785156 62.058594 36.15625 L 36.460938 61.917969 C 34.105469 64.289062 30.269531 64.304688 27.894531 61.949219 L 2.085938 36.394531 C -0.289062 34.042969 -0.304688 30.214844 2.050781 27.84375 L 27.652344 2.082031 C 30.007812 -0.289062 33.84375 -0.304688 36.21875 2.050781 Z M 36.21875 2.050781 " /><g transform="matrix(1.0075098,0,0,1.0032698,16.221436,16.077397)"><path fill-rule="nonzero" fill="rgb(100%, 100%, 100%)" fill-opacity="1" d="M 9.867188 25.070312 C 9.328125 25.070312 8.890625 25.574219 8.890625 26.203125 L 8.890625 29.597656 C 8.890625 30.226562 9.328125 30.726562 9.867188 30.726562 L 10.839844 30.726562 C 11.378906 30.726562 11.8125 30.226562 11.8125 29.597656 L 11.8125 26.203125 C 11.8125 25.574219 11.378906 25.070312 10.839844 25.070312 Z M 22.515625 25.070312 C 21.976562 25.070312 21.546875 25.574219 21.546875 26.203125 L 21.546875 29.597656 C 21.546875 30.226562 21.976562 30.726562 22.515625 30.726562 L 23.492188 30.726562 C 24.03125 30.726562 24.464844 30.226562 24.464844 29.597656 L 24.464844 26.203125 C 24.464844 25.574219 24.03125 25.070312 23.492188 25.070312 Z M 22.515625 25.070312 "/><path fill-rule="nonzero" fill="rgb(100%, 100%, 100%)" fill-opacity="1" d="M 12.273438 1.289062 C 12.015625 1.304688 11.8125 1.554688 11.8125 1.855469 L 11.8125 2.992188 C 11.8125 3.304688 12.03125 3.554688 12.296875 3.554688 C 12.570312 3.554688 12.789062 3.304688 12.789062 2.992188 L 12.789062 1.855469 C 12.789062 1.542969 12.570312 1.289062 12.296875 1.289062 C 12.289062 1.289062 12.28125 1.289062 12.273438 1.289062 Z M 21.03125 1.289062 C 20.773438 1.304688 20.570312 1.554688 20.570312 1.855469 L 20.570312 2.992188 C 20.570312 3.304688 20.789062 3.554688 21.058594 3.554688 C 21.328125 3.554688 21.546875 3.304688 21.546875 2.992188 L 21.546875 1.855469 C 21.546875 1.542969 21.328125 1.289062 21.058594 1.289062 C 21.050781 1.289062 21.039062 1.289062 21.03125 1.289062 Z M 21.03125 1.289062 "/><path fill-rule="nonzero" fill="rgb(100%, 100%, 100%)" fill-opacity="1" d="M 12.789062 3.554688 L 20.570312 3.554688 C 21.109375 3.554688 21.546875 4.0625 21.546875 4.6875 C 21.546875 5.3125 21.109375 5.820312 20.570312 5.820312 L 12.789062 5.820312 C 12.25 5.820312 11.8125 5.3125 11.8125 4.6875 C 11.8125 4.0625 12.25 3.554688 12.789062 3.554688 Z M 12.789062 3.554688 "/><path fill-rule="nonzero" fill="rgb(100%, 100%, 100%)" fill-opacity="1" d="M 16.679688 4.6875 L 22.515625 3.554688 L 22.515625 2.421875 L 16.679688 3.554688 L 10.839844 2.421875 L 10.839844 3.554688 Z M 16.679688 4.6875 "/><path fill-rule="nonzero" fill="rgb(100%, 100%, 100%)" fill-opacity="1" d="M 7.921875 5.820312 L 16.679688 3.554688 L 25.4375 5.820312 L 25.4375 8.085938 L 16.679688 5.820312 L 7.921875 8.085938 Z M 7.921875 5.820312 "/><path fill-rule="nonzero" fill="rgb(100%, 100%, 100%)" fill-opacity="1" d="M 18.625 17.140625 C 18.625 18.390625 17.753906 19.40625 16.679688 19.40625 C 15.601562 19.40625 14.734375 18.390625 14.734375 17.140625 C 14.734375 15.890625 15.601562 14.878906 16.679688 14.878906 C 17.753906 14.878906 18.625 15.890625 18.625 17.140625 Z M 18.625 17.140625 "/><path fill-rule="nonzero" fill="rgb(100%, 100%, 100%)" fill-opacity="1" d="M 16.007812 7.867188 L 9.679688 9 L 9.195312 14.09375 L 16.007812 14.09375 Z M 17.957031 7.867188 L 17.957031 14.09375 L 24.765625 14.09375 L 24.28125 9 Z M 17.957031 7.867188 "/><path fill-rule="nonzero" fill="rgb(100%, 100%, 100%)" fill-opacity="1" d="M 7.921875 23.9375 L 6.949219 23.9375 L 6.949219 26.203125 L 7.921875 26.203125 L 16.679688 28.46875 L 25.4375 26.203125 L 26.410156 26.203125 L 26.410156 23.9375 L 25.4375 23.9375 L 16.679688 26.203125 Z M 7.921875 23.9375 "/></g></svg>
