<svg width="64" height="64" viewBox="0 0 64 64" version="1.1"><defs><linearGradient id="linear-pattern-0" gradientUnits="userSpaceOnUse" x1="0" y1="0" x2="0" y2="1" gradientTransform="matrix(60, 0, 0, 56, 0, 4)"><stop offset="0" stop-color="#008a97" stop-opacity="1"/><stop offset="1" stop-color="#00545c" stop-opacity="1"/></linearGradient></defs><path fill="url(#linear-pattern-0)" fill-opacity="1" d="M 36.21875 2.050781 L 62.027344 27.605469 C 64.402344 29.957031 64.417969 33.785156 62.058594 36.15625 L 36.460938 61.917969 C 34.105469 64.289062 30.269531 64.304688 27.894531 61.949219 L 2.085938 36.394531 C -0.289062 34.042969 -0.304688 30.214844 2.050781 27.84375 L 27.652344 2.082031 C 30.007812 -0.289062 33.84375 -0.304688 36.21875 2.050781 Z M 36.21875 2.050781 " /><g transform="matrix(1.0075098,0,0,1.0032698,16.221436,16.077397)"><path fill-rule="nonzero" fill="rgb(100%, 100%, 100%)" fill-opacity="1" d="M 3.042969 3.816406 C 2.671875 3.816406 2.375 4.109375 2.375 4.476562 L 2.375 8.433594 C 2.375 8.796875 2.671875 9.09375 3.042969 9.09375 L 13.714844 9.09375 C 14.085938 9.09375 14.382812 8.796875 14.382812 8.433594 L 14.382812 4.476562 C 14.382812 4.109375 14.085938 3.816406 13.714844 3.816406 Z M 17.71875 3.816406 C 17.347656 3.816406 17.050781 4.109375 17.050781 4.476562 L 17.050781 8.433594 C 17.050781 8.796875 17.347656 9.09375 17.71875 9.09375 L 28.390625 9.09375 C 28.757812 9.09375 29.054688 8.796875 29.054688 8.433594 L 29.054688 4.476562 C 29.054688 4.109375 28.757812 3.816406 28.390625 3.816406 Z M 3.042969 10.414062 C 2.671875 10.414062 2.375 10.703125 2.375 11.070312 L 2.375 15.027344 C 2.375 15.390625 2.671875 15.6875 3.042969 15.6875 L 13.714844 15.6875 C 14.085938 15.6875 14.382812 15.390625 14.382812 15.027344 L 14.382812 11.070312 C 14.382812 10.703125 14.085938 10.414062 13.714844 10.414062 Z M 17.71875 10.414062 C 17.347656 10.414062 17.050781 10.703125 17.050781 11.070312 L 17.050781 15.027344 C 17.050781 15.390625 17.347656 15.6875 17.71875 15.6875 L 28.390625 15.6875 C 28.757812 15.6875 29.054688 15.390625 29.054688 15.027344 L 29.054688 11.070312 C 29.054688 10.703125 28.757812 10.414062 28.390625 10.414062 Z M 3.042969 18.324219 C 2.671875 18.324219 2.375 18.617188 2.375 18.984375 L 2.375 22.941406 C 2.375 23.304688 2.671875 23.601562 3.042969 23.601562 L 13.714844 23.601562 C 14.085938 23.601562 14.382812 23.304688 14.382812 22.941406 L 14.382812 18.984375 C 14.382812 18.617188 14.085938 18.324219 13.714844 18.324219 Z M 17.71875 18.324219 C 17.347656 18.324219 17.050781 18.617188 17.050781 18.984375 L 17.050781 22.941406 C 17.050781 23.304688 17.347656 23.601562 17.71875 23.601562 L 28.390625 23.601562 C 28.757812 23.601562 29.054688 23.304688 29.054688 22.941406 L 29.054688 18.984375 C 29.054688 18.617188 28.757812 18.324219 28.390625 18.324219 Z M 3.042969 24.921875 C 2.671875 24.921875 2.375 25.214844 2.375 25.578125 L 2.375 29.539062 C 2.375 29.902344 2.671875 30.195312 3.042969 30.195312 L 13.714844 30.195312 C 14.085938 30.195312 14.382812 29.902344 14.382812 29.539062 L 14.382812 25.578125 C 14.382812 25.214844 14.085938 24.921875 13.714844 24.921875 Z M 17.71875 24.921875 C 17.347656 24.921875 17.050781 25.214844 17.050781 25.578125 L 17.050781 29.539062 C 17.050781 29.902344 17.347656 30.195312 17.71875 30.195312 L 28.390625 30.195312 C 28.757812 30.195312 29.054688 29.902344 29.054688 29.539062 L 29.054688 25.578125 C 29.054688 25.214844 28.757812 24.921875 28.390625 24.921875 Z M 17.71875 24.921875 "/></g></svg>
