<svg width="64" height="64" viewBox="0 0 64 64" version="1.1"><defs><linearGradient id="linear-pattern-0" gradientUnits="userSpaceOnUse" x1="0" y1="0" x2="0" y2="1" gradientTransform="matrix(60, 0, 0, 56, 0, 4)"><stop offset="0" stop-color="#c10000" stop-opacity="1"/><stop offset="1" stop-color="#5f0000" stop-opacity="1"/></linearGradient></defs><path fill="url(#linear-pattern-0)" fill-opacity="1" d="M 36.21875 2.050781 L 62.027344 27.605469 C 64.402344 29.957031 64.417969 33.785156 62.058594 36.15625 L 36.460938 61.917969 C 34.105469 64.289062 30.269531 64.304688 27.894531 61.949219 L 2.085938 36.394531 C -0.289062 34.042969 -0.304688 30.214844 2.050781 27.84375 L 27.652344 2.082031 C 30.007812 -0.289062 33.84375 -0.304688 36.21875 2.050781 Z M 36.21875 2.050781 " /><g transform="matrix(1.0075098,0,0,1.0032698,16.221436,16.077397)"><path fill-rule="nonzero" fill="rgb(100%, 100%, 100%)" fill-opacity="1" d="M 8 27.617188 C 6.695312 27.617188 5.640625 28.15625 5.640625 28.820312 C 5.640625 29.492188 6.695312 30.03125 8 30.03125 C 9.304688 30.03125 10.363281 29.492188 10.363281 28.820312 C 10.363281 28.15625 9.304688 27.617188 8 27.617188 Z M 24.53125 27.617188 C 23.230469 27.617188 22.171875 28.15625 22.171875 28.820312 C 22.171875 29.492188 23.230469 30.03125 24.53125 30.03125 C 25.835938 30.03125 26.898438 29.492188 26.898438 28.820312 C 26.898438 28.15625 25.835938 27.617188 24.53125 27.617188 Z M 24.53125 27.617188 "/><path fill-rule="nonzero" fill="rgb(100%, 100%, 100%)" fill-opacity="1" d="M 29.847656 24.59375 C 29.847656 27.597656 23.769531 30.03125 16.269531 30.03125 C 8.769531 30.03125 2.691406 27.597656 2.691406 24.59375 C 2.691406 21.589844 8.769531 19.15625 16.269531 19.15625 C 23.769531 19.15625 29.847656 21.589844 29.847656 24.59375 Z M 29.847656 24.59375 "/><path fill-rule="nonzero" fill="rgb(100%, 100%, 100%)" fill-opacity="1" d="M 30.4375 23.382812 L 30.4375 24.59375 C 28.078125 27.007812 23.351562 28.820312 16.269531 28.820312 C 9.183594 28.820312 4.460938 27.007812 2.101562 24.59375 L 2.101562 23.382812 L 16.269531 21.570312 Z M 30.4375 23.382812 "/><path fill-rule="nonzero" fill="rgb(100%, 100%, 100%)" fill-opacity="1" d="M 16.859375 1.03125 C 15.960938 1.03125 15.09375 1.253906 14.3125 1.597656 L 13.90625 4.65625 L 19.8125 4.65625 L 19.367188 1.585938 C 18.597656 1.253906 17.746094 1.03125 16.859375 1.03125 Z M 16.859375 1.03125 "/><path fill-rule="nonzero" fill="rgb(100%, 100%, 100%)" fill-opacity="1" d="M 8.296875 11.90625 L 24.242188 11.90625 C 25.222656 11.90625 25.59375 12.808594 26.011719 13.71875 L 30.4375 23.382812 C 28.078125 25.804688 23.351562 27.617188 16.269531 27.617188 C 9.183594 27.617188 4.460938 25.804688 2.101562 23.382812 L 6.527344 13.71875 C 6.945312 12.808594 7.316406 11.90625 8.296875 11.90625 Z M 8.296875 11.90625 "/><path fill-rule="nonzero" fill="rgb(100%, 100%, 100%)" fill-opacity="1" d="M 20.992188 17.34375 C 20.992188 18.34375 19.140625 19.15625 16.859375 19.15625 C 14.574219 19.15625 12.722656 18.34375 12.722656 17.34375 C 12.722656 16.34375 14.574219 15.53125 16.859375 15.53125 C 19.140625 15.53125 20.992188 16.34375 20.992188 17.34375 "/><path fill-rule="nonzero" fill="rgb(100%, 100%, 100%)" fill-opacity="1" d="M 13.90625 13.113281 L 15.089844 15.53125 L 15.089844 17.34375 C 15.089844 17.679688 15.882812 17.945312 16.859375 17.945312 C 17.835938 17.945312 18.632812 17.679688 18.632812 17.34375 L 18.632812 15.53125 L 19.808594 13.113281 Z M 13.90625 13.113281 "/><path fill-rule="nonzero" fill="rgb(100%, 100%, 100%)" fill-opacity="1" d="M 19.367188 1.585938 L 18.335938 2.859375 C 16.828125 2.015625 15.195312 2.859375 15.195312 2.859375 L 14.3125 1.597656 C 11.992188 2.609375 10.363281 4.957031 10.363281 7.703125 C 10.363281 11.359375 13.269531 14.320312 16.859375 14.320312 C 20.445312 14.320312 23.351562 11.359375 23.351562 7.703125 C 23.351562 4.949219 21.707031 2.585938 19.367188 1.585938 "/></g></svg>
