<svg width="64" height="64" viewBox="0 0 64 64" version="1.1"><defs><linearGradient id="linear-pattern-0" gradientUnits="userSpaceOnUse" x1="0" y1="0" x2="0" y2="1" gradientTransform="matrix(60, 0, 0, 56, 0, 4)"><stop offset="0" stop-color="#aaaa00" stop-opacity="1"/><stop offset="1" stop-color="#5c5c00" stop-opacity="1"/></linearGradient></defs><path fill="url(#linear-pattern-0)" fill-opacity="1" d="M 36.21875 2.050781 L 62.027344 27.605469 C 64.402344 29.957031 64.417969 33.785156 62.058594 36.15625 L 36.460938 61.917969 C 34.105469 64.289062 30.269531 64.304688 27.894531 61.949219 L 2.085938 36.394531 C -0.289062 34.042969 -0.304688 30.214844 2.050781 27.84375 L 27.652344 2.082031 C 30.007812 -0.289062 33.84375 -0.304688 36.21875 2.050781 Z M 36.21875 2.050781 " /><g transform="matrix(1.0075098,0,0,1.0032698,16.221436,16.077397)"><path fill-rule="nonzero" fill="rgb(100%, 100%, 100%)" fill-opacity="1" d="M 20.140625 31.742188 L 22 26.5625 L 20.140625 23.976562 L 23.867188 25.269531 L 20.140625 21.386719 L 23.867188 22.679688 L 22 20.09375 L 23.867188 18.796875 L 22 18.796875 L 23.867188 16.210938 L 20.140625 17.503906 L 22 14.914062 L 20.140625 16.210938 L 20.140625 13.621094 L 18.277344 13.621094 L 20.140625 11.03125 L 16.414062 13.621094 L 16.414062 8.445312 L 10.820312 23.976562 L 8.960938 25.269531 L 8.960938 23.976562 L 7.09375 25.269531 L 7.09375 23.976562 L 5.234375 25.269531 L 7.09375 22.679688 L 5.234375 23.976562 C 5.234375 23.976562 10.820312 0.675781 14.550781 0.675781 C 16.414062 0.675781 27.59375 5.851562 27.59375 17.503906 C 27.59375 26.5625 20.140625 31.742188 20.140625 31.742188 Z M 20.140625 31.742188 "/></g></svg>
