<svg width="64" height="64" viewBox="0 0 64 64" version="1.1"><defs><linearGradient id="linear-pattern-0" gradientUnits="userSpaceOnUse" x1="0" y1="0" x2="0" y2="1" gradientTransform="matrix(60, 0, 0, 56, 0, 4)"><stop offset="0" stop-color="#008a97" stop-opacity="1"/><stop offset="1" stop-color="#00545c" stop-opacity="1"/></linearGradient></defs><path fill="url(#linear-pattern-0)" fill-opacity="1" d="M 36.21875 2.050781 L 62.027344 27.605469 C 64.402344 29.957031 64.417969 33.785156 62.058594 36.15625 L 36.460938 61.917969 C 34.105469 64.289062 30.269531 64.304688 27.894531 61.949219 L 2.085938 36.394531 C -0.289062 34.042969 -0.304688 30.214844 2.050781 27.84375 L 27.652344 2.082031 C 30.007812 -0.289062 33.84375 -0.304688 36.21875 2.050781 Z M 36.21875 2.050781 " /><g transform="matrix(1.0075098,0,0,1.0032698,16.221436,16.077397)"><path fill-rule="nonzero" fill="rgb(100%, 100%, 100%)" fill-opacity="1" d="M 3.453125 0.523438 L 6.230469 2.90625 C 6.230469 2.90625 3.453125 6.476562 3.453125 14.8125 C 3.453125 20.765625 11.789062 27.914062 11.789062 27.914062 C 11.789062 27.914062 7.625 20.765625 7.625 14.8125 C 7.625 10.050781 11.789062 2.90625 15.960938 2.90625 C 20.132812 2.90625 24.300781 8.859375 24.300781 14.8125 C 24.300781 20.765625 17.351562 31.488281 17.351562 31.488281 C 17.351562 31.488281 28.472656 23.148438 28.472656 14.8125 C 28.472656 7.667969 25.691406 2.90625 25.691406 2.90625 L 28.472656 0.523438 L 15.960938 1.710938 Z M 13.273438 13.464844 C 13.210938 13.710938 13.179688 13.960938 13.179688 14.21875 C 13.179688 15.863281 14.425781 17.195312 15.960938 17.195312 C 17.5 17.195312 18.742188 15.863281 18.742188 14.21875 C 18.742188 13.964844 18.710938 13.714844 18.648438 13.472656 L 13.273438 13.476562 Z M 13.273438 13.464844 "/></g></svg>
