<svg width="64" height="64" viewBox="0 0 64 64" version="1.1"><defs><linearGradient id="linear-pattern-0" gradientUnits="userSpaceOnUse" x1="0" y1="0" x2="0" y2="1" gradientTransform="matrix(60, 0, 0, 56, 0, 4)"><stop offset="0" stop-color="#c10000" stop-opacity="1"/><stop offset="1" stop-color="#5f0000" stop-opacity="1"/></linearGradient></defs><path fill="url(#linear-pattern-0)" fill-opacity="1" d="M 36.21875 2.050781 L 62.027344 27.605469 C 64.402344 29.957031 64.417969 33.785156 62.058594 36.15625 L 36.460938 61.917969 C 34.105469 64.289062 30.269531 64.304688 27.894531 61.949219 L 2.085938 36.394531 C -0.289062 34.042969 -0.304688 30.214844 2.050781 27.84375 L 27.652344 2.082031 C 30.007812 -0.289062 33.84375 -0.304688 36.21875 2.050781 Z M 36.21875 2.050781 " /><g transform="matrix(1.0075098,0,0,1.0032698,16.221436,16.077397)"><path fill-rule="nonzero" fill="rgb(100%, 100%, 100%)" fill-opacity="1" d="M 25.425781 28.210938 L 22.398438 23.703125 L 25.15625 28.597656 L 20.601562 23.472656 L 23.382812 29.882812 L 19.925781 24.476562 L 21.53125 30.28125 L 18.835938 24.464844 L 19.90625 31 L 18.296875 25.695312 L 17.757812 31.53125 L 16.082031 25.820312 L 16.265625 31.554688 L 15.867188 24.871094 L 13.84375 31.519531 L 14.304688 24.789062 L 11.53125 30.578125 L 12.585938 24.757812 L 10.585938 30.925781 L 12.046875 25.078125 L 7.828125 29.035156 L 11.734375 23.984375 L 6.617188 28.609375 L 10.039062 23.296875 L 5.90625 26.585938 L 9.6875 23.171875 L 3.976562 25.445312 L 8.214844 21.40625 L 3.3125 24.453125 L 7.882812 21.257812 L 2.308594 22.867188 L 8.171875 20.027344 L 1.511719 19.9375 L 7.375 17.765625 L 2.039062 19.511719 L 7.21875 16.554688 L 1.710938 16.695312 L 7.53125 16.242188 L 0.941406 15.789062 L 7.425781 14.617188 L 1.273438 13 L 8.179688 14.273438 L 2.648438 11.125 L 8.273438 12.132812 L 2.039062 9.039062 L 7.644531 11.722656 L 3.382812 7.535156 L 8.710938 10.9375 L 4.554688 6.023438 L 9.839844 9.3125 L 6.183594 4.832031 L 10.117188 9.0625 L 7.445312 3.515625 L 11.851562 8.769531 L 9.734375 3.183594 L 13.195312 8.589844 L 11.070312 1.71875 L 13.683594 6.972656 L 12.695312 1.136719 L 14.53125 6.710938 L 15.148438 1.4375 L 15.921875 7.265625 L 16.558594 0.585938 L 16.960938 7.535156 L 18.601562 0.742188 L 17.617188 7.789062 L 20.082031 2.367188 L 19.847656 7.378906 L 22.015625 2.742188 L 20.554688 8.589844 L 23.1875 3.808594 L 20.867188 8.171875 L 25.980469 4.929688 L 22.476562 9.539062 L 26.613281 4.90625 L 23.429688 10.082031 L 28.539062 7.390625 L 23.476562 10.867188 L 29.273438 9.078125 L 23.722656 11.660156 L 30.125 10.617188 L 25.03125 13.757812 L 30.933594 12.328125 L 25.226562 14.25 L 31.460938 13.761719 L 25.246094 14.769531 L 31.8125 15.304688 L 25.679688 16.46875 L 31.070312 17.890625 L 25.101562 17.273438 L 31.460938 20.230469 L 24.914062 18.800781 L 29.773438 20.972656 L 24.988281 20.703125 L 29.046875 23.269531 L 24.035156 20.367188 L 29.195312 24.429688 L 23.703125 22.6875 L 28.011719 26.140625 L 21.816406 22.8125 Z M 25.425781 28.210938 "/></g></svg>
