<svg width="64" height="64" viewBox="0 0 64 64" version="1.1"><defs><linearGradient id="linear-pattern-0" gradientUnits="userSpaceOnUse" x1="0" y1="0" x2="0" y2="1" gradientTransform="matrix(60, 0, 0, 56, 0, 4)"><stop offset="0" stop-color="#d00068" stop-opacity="1"/><stop offset="1" stop-color="#6e0037" stop-opacity="1"/></linearGradient></defs><path fill="url(#linear-pattern-0)" fill-opacity="1" d="M 36.21875 2.050781 L 62.027344 27.605469 C 64.402344 29.957031 64.417969 33.785156 62.058594 36.15625 L 36.460938 61.917969 C 34.105469 64.289062 30.269531 64.304688 27.894531 61.949219 L 2.085938 36.394531 C -0.289062 34.042969 -0.304688 30.214844 2.050781 27.84375 L 27.652344 2.082031 C 30.007812 -0.289062 33.84375 -0.304688 36.21875 2.050781 Z M 36.21875 2.050781 " /><g transform="matrix(1.0075098,0,0,1.0032698,16.221436,16.077397)"><path fill-rule="nonzero" fill="rgb(100%, 100%, 100%)" fill-opacity="1" d="M 15.335938 0.679688 L 15.335938 8.015625 L 7.335938 16.015625 L 15.335938 24.015625 L 15.335938 31.34375 C 15.777344 31.367188 16.222656 31.367188 16.664062 31.34375 L 16.664062 24.015625 L 20.664062 20.015625 L 22.664062 22.015625 L 23.5 21.179688 L 20.664062 18.34375 L 16 23.015625 L 9 16.015625 L 16 9.015625 L 20.664062 13.679688 L 23.5 10.84375 L 22.664062 10.015625 L 20.664062 12.015625 L 16.664062 8.015625 L 16.664062 0.679688 C 16.222656 0.660156 15.777344 0.660156 15.335938 0.679688 Z M 16 14.679688 C 15.265625 14.679688 14.664062 15.277344 14.664062 16.015625 C 14.664062 16.75 15.265625 17.34375 16 17.34375 C 16.734375 17.34375 17.335938 16.75 17.335938 16.015625 C 17.335938 15.277344 16.734375 14.679688 16 14.679688 Z M 16 14.679688 "/></g></svg>
