<svg width="64" height="64" viewBox="0 0 64 64" version="1.1"><defs><linearGradient id="linear-pattern-0" gradientUnits="userSpaceOnUse" x1="0" y1="0" x2="0" y2="1" gradientTransform="matrix(60, 0, 0, 56, 0, 4)"><stop offset="0" stop-color="#6926fc" stop-opacity="1"/><stop offset="1" stop-color="#3702ab" stop-opacity="1"/></linearGradient></defs><path fill="url(#linear-pattern-0)" fill-opacity="1" d="M 36.21875 2.050781 L 62.027344 27.605469 C 64.402344 29.957031 64.417969 33.785156 62.058594 36.15625 L 36.460938 61.917969 C 34.105469 64.289062 30.269531 64.304688 27.894531 61.949219 L 2.085938 36.394531 C -0.289062 34.042969 -0.304688 30.214844 2.050781 27.84375 L 27.652344 2.082031 C 30.007812 -0.289062 33.84375 -0.304688 36.21875 2.050781 Z M 36.21875 2.050781 " /><g transform="matrix(1.0075098,0,0,1.0032698,16.221436,16.077397)"><path fill-rule="nonzero" fill="rgb(100%, 100%, 100%)" fill-opacity="1" d="M 1.53125 4.953125 L 1.53125 12.117188 L 3.8125 12.117188 L 4.382812 24.65625 L 4.953125 12.117188 L 6.09375 12.117188 L 6.09375 30.03125 L 11.796875 30.03125 L 11.796875 12.117188 L 12.9375 12.117188 C 12.9375 12.117188 13.328125 16.875 13.507812 19.28125 C 13.695312 16.882812 14.078125 12.117188 14.078125 12.117188 L 15.21875 12.117188 L 15.21875 30.03125 L 20.925781 30.03125 L 20.925781 22.867188 C 21.382812 22.867188 21.796875 22.84375 22.207031 22.820312 L 25.492188 30.03125 L 31.195312 30.03125 L 27.261719 21.382812 C 30.039062 19.53125 30.054688 16.320312 30.054688 13.910156 C 30.054688 11.746094 30.039062 8.933594 28.03125 7.039062 L 27.203125 17.492188 L 26.6875 6.101562 C 25.359375 5.398438 23.523438 4.953125 20.925781 4.953125 L 19.785156 4.953125 L 19.214844 19.28125 L 18.644531 4.953125 L 17.503906 4.953125 L 16.933594 17.492188 L 16.359375 4.953125 L 10.65625 4.953125 L 10.085938 15.703125 L 9.515625 4.953125 L 8.375 4.953125 L 7.804688 17.492188 L 7.234375 4.953125 Z M 20.925781 12.117188 L 23.210938 12.117188 C 25.492188 12.117188 25.492188 15.703125 23.210938 15.703125 L 20.925781 15.703125 Z M 20.925781 12.117188 "/></g></svg>
