<svg width="64" height="64" viewBox="0 0 64 64" version="1.1"><defs><linearGradient id="linear-pattern-0" gradientUnits="userSpaceOnUse" x1="0" y1="0" x2="0" y2="1" gradientTransform="matrix(60, 0, 0, 56, 0, 4)"><stop offset="0" stop-color="#00a07f" stop-opacity="1"/><stop offset="1" stop-color="#005241" stop-opacity="1"/></linearGradient></defs><path fill="url(#linear-pattern-0)" fill-opacity="1" d="M 36.21875 2.050781 L 62.027344 27.605469 C 64.402344 29.957031 64.417969 33.785156 62.058594 36.15625 L 36.460938 61.917969 C 34.105469 64.289062 30.269531 64.304688 27.894531 61.949219 L 2.085938 36.394531 C -0.289062 34.042969 -0.304688 30.214844 2.050781 27.84375 L 27.652344 2.082031 C 30.007812 -0.289062 33.84375 -0.304688 36.21875 2.050781 Z M 36.21875 2.050781 " /><g transform="matrix(1.0075098,0,0,1.0032698,16.221436,16.077397)"><path fill-rule="nonzero" fill="rgb(100%, 100%, 100%)" fill-opacity="1" d="M 5.90625 5.914062 L 5.90625 26.070312 C 5.90625 26.070312 10.238281 26.082031 14.773438 26.085938 L 14.773438 26.078125 C 14.828125 26.078125 14.875 26.082031 14.929688 26.085938 C 15.097656 26.085938 15.242188 26.085938 15.40625 26.085938 C 19.84375 25.960938 21.589844 22.507812 19.359375 19.09375 C 22.691406 21.230469 26.0625 19.28125 26.0625 15.570312 C 26.070312 15.578125 26.082031 15.585938 26.09375 15.59375 C 26.089844 10.710938 26.0625 5.914062 26.0625 5.914062 Z M 25.949219 19.273438 C 25.675781 19.699219 25.351562 20.089844 24.945312 20.402344 C 24.007812 21.117188 22.734375 21.414062 21.347656 21.015625 C 21.882812 22.554688 21.621094 23.914062 20.859375 24.890625 C 20.585938 25.242188 20.242188 25.527344 19.875 25.78125 C 21.59375 25.382812 22.96875 24.617188 23.96875 23.523438 C 24.992188 22.402344 25.640625 20.941406 25.949219 19.273438 Z M 25.949219 19.273438 "/><path fill-rule="nonzero" fill="rgb(8.235294%, 63.137255%, 0%)" fill-opacity="1" d="M 23.929688 2.164062 C 22.414062 2.164062 20.90625 2.742188 19.75 3.894531 C 17.445312 6.203125 17.445312 9.941406 19.75 12.246094 C 22.054688 14.554688 25.800781 14.554688 28.109375 12.246094 C 30.414062 9.941406 30.414062 6.203125 28.109375 3.894531 C 26.953125 2.742188 25.4375 2.164062 23.929688 2.164062 Z M 22.84375 4.507812 L 25.007812 4.507812 L 25.007812 6.984375 L 27.492188 6.984375 L 27.492188 9.15625 L 25.007812 9.15625 L 25.007812 11.632812 L 22.84375 11.632812 L 22.84375 9.15625 L 20.359375 9.15625 L 20.359375 6.984375 L 22.84375 6.984375 Z M 22.84375 4.507812 "/></g></svg>
