<svg width="64" height="64" viewBox="0 0 64 64" version="1.1"><defs><linearGradient id="linear-pattern-0" gradientUnits="userSpaceOnUse" x1="0" y1="0" x2="0" y2="1" gradientTransform="matrix(60, 0, 0, 56, 0, 4)"><stop offset="0" stop-color="#8900e4" stop-opacity="1"/><stop offset="1" stop-color="#42006e" stop-opacity="1"/></linearGradient></defs><path fill="url(#linear-pattern-0)" fill-opacity="1" d="M 36.21875 2.050781 L 62.027344 27.605469 C 64.402344 29.957031 64.417969 33.785156 62.058594 36.15625 L 36.460938 61.917969 C 34.105469 64.289062 30.269531 64.304688 27.894531 61.949219 L 2.085938 36.394531 C -0.289062 34.042969 -0.304688 30.214844 2.050781 27.84375 L 27.652344 2.082031 C 30.007812 -0.289062 33.84375 -0.304688 36.21875 2.050781 Z M 36.21875 2.050781 " /><g transform="matrix(1.0075098,0,0,1.0032698,16.221436,16.077397)"><path fill-rule="nonzero" fill="rgb(100%, 100%, 100%)" fill-opacity="1" d="M 16 0 C 7.164062 0 0 7.164062 0 16 C 0 24.835938 7.164062 32 16 32 C 17 32 18 31.898438 18.984375 31.710938 L 18.984375 29.660156 C 18.003906 29.882812 17.003906 29.992188 16 30 C 8.265625 30 2 23.734375 2 16 C 2 8.265625 8.265625 2 16 2 C 23.734375 2 30 8.265625 30 16 C 29.992188 18.015625 29.554688 20.003906 28.710938 21.832031 L 30.898438 21.832031 C 31.625 19.976562 32 17.996094 32 16 C 32 7.164062 24.835938 0 16 0 Z M 16 10 C 12.6875 10 10 12.6875 10 16 C 10 19.3125 12.6875 22 16 22 C 19.3125 22 22 19.3125 22 16 C 22 12.6875 19.3125 10 16 10 Z M 16 13 C 17.65625 13 19 14.34375 19 16 C 19 17.65625 17.65625 19 16 19 C 14.34375 19 13 17.65625 13 16 C 13 14.34375 14.34375 13 16 13 Z M 16 13 "/><path fill-rule="nonzero" fill="rgb(100%, 100%, 100%)" fill-opacity="1" d="M 25 22 L 25 26 L 21 26 L 21 28 L 25 28 L 25 32 L 27 32 L 27 28 L 31 28 L 31 26 L 27 26 L 27 22 Z M 25 22 "/></g></svg>
