<svg width="64" height="64" viewBox="0 0 64 64" version="1.1"><defs><linearGradient id="linear-pattern-0" gradientUnits="userSpaceOnUse" x1="0" y1="0" x2="0" y2="1" gradientTransform="matrix(60, 0, 0, 56, 0, 4)"><stop offset="0" stop-color="#c10000" stop-opacity="1"/><stop offset="1" stop-color="#5f0000" stop-opacity="1"/></linearGradient></defs><path fill="url(#linear-pattern-0)" fill-opacity="1" d="M 36.21875 2.050781 L 62.027344 27.605469 C 64.402344 29.957031 64.417969 33.785156 62.058594 36.15625 L 36.460938 61.917969 C 34.105469 64.289062 30.269531 64.304688 27.894531 61.949219 L 2.085938 36.394531 C -0.289062 34.042969 -0.304688 30.214844 2.050781 27.84375 L 27.652344 2.082031 C 30.007812 -0.289062 33.84375 -0.304688 36.21875 2.050781 Z M 36.21875 2.050781 " /><g transform="matrix(1.0075098,0,0,1.0032698,16.221436,16.077397)"><path fill-rule="nonzero" fill="rgb(100%, 100%, 100%)" fill-opacity="1" d="M 11.28125 6.34375 C 7.261719 6.34375 3.894531 9.40625 2.945312 13.566406 L 2.664062 13.566406 C 1.476562 13.566406 0.515625 14.644531 0.515625 15.976562 C 0.515625 17.304688 1.476562 18.382812 2.664062 18.382812 L 2.945312 18.382812 C 3.894531 22.542969 7.261719 25.601562 11.28125 25.601562 C 13.378906 25.601562 15.40625 24.75 16.980469 23.195312 L 29.050781 23.195312 C 30.664062 23.195312 31.742188 21.050781 31.742188 18.382812 L 31.742188 13.566406 C 31.742188 10.898438 30.664062 8.75 29.050781 8.75 L 16.980469 8.75 C 15.40625 7.199219 13.378906 6.34375 11.28125 6.34375 Z M 2.664062 14.773438 C 3.257812 14.773438 3.742188 15.308594 3.742188 15.976562 C 3.742188 16.640625 3.257812 17.179688 2.664062 17.179688 C 2.070312 17.179688 1.589844 16.640625 1.589844 15.976562 C 1.589844 15.308594 2.070312 14.773438 2.664062 14.773438 Z M 2.664062 14.773438 "/></g></svg>
