<svg width="64" height="64" viewBox="0 0 64 64" version="1.1"><defs><linearGradient id="linear-pattern-0" gradientUnits="userSpaceOnUse" x1="0" y1="0" x2="0" y2="1" gradientTransform="matrix(60, 0, 0, 56, 0, 4)"><stop offset="0" stop-color="#0288cf" stop-opacity="1"/><stop offset="1" stop-color="#01486e" stop-opacity="1"/></linearGradient></defs><path fill="url(#linear-pattern-0)" fill-opacity="1" d="M 36.21875 2.050781 L 62.027344 27.605469 C 64.402344 29.957031 64.417969 33.785156 62.058594 36.15625 L 36.460938 61.917969 C 34.105469 64.289062 30.269531 64.304688 27.894531 61.949219 L 2.085938 36.394531 C -0.289062 34.042969 -0.304688 30.214844 2.050781 27.84375 L 27.652344 2.082031 C 30.007812 -0.289062 33.84375 -0.304688 36.21875 2.050781 Z M 36.21875 2.050781 " /><g transform="matrix(1.0075098,0,0,1.0032698,16.221436,16.077397)"><path fill-rule="nonzero" fill="rgb(100%, 100%, 100%)" fill-opacity="1" d="M 28.414062 16.566406 C 29.453125 17.15625 30.3125 17.898438 30.988281 18.796875 C 31.664062 19.6875 32 20.84375 32 22.261719 C 32 23.664062 31.597656 24.953125 30.792969 26.117188 C 29.988281 27.289062 28.859375 28.304688 27.398438 29.171875 C 25.769531 30.136719 23.84375 30.851562 21.625 31.320312 C 19.429688 31.773438 17.015625 32 14.386719 32 C 11.6875 32 9.039062 31.792969 6.425781 31.382812 C 3.816406 30.984375 1.671875 30.539062 0 30.0625 L 0 25.75 L 0.492188 25.75 C 2.335938 26.519531 4.515625 27.15625 7.015625 27.667969 C 9.515625 28.175781 11.929688 28.429688 14.257812 28.429688 C 15.625 28.429688 17.082031 28.285156 18.625 27.996094 C 20.171875 27.710938 21.421875 27.28125 22.375 26.71875 C 23.375 26.113281 24.117188 25.445312 24.59375 24.71875 C 25.09375 23.988281 25.34375 23.066406 25.34375 21.953125 C 25.34375 20.851562 25.0625 19.945312 24.5 19.226562 C 23.953125 18.5 23.195312 17.929688 22.214844 17.515625 C 21.234375 17.089844 20.050781 16.800781 18.65625 16.648438 C 17.265625 16.484375 15.765625 16.402344 14.15625 16.402344 L 11.222656 16.402344 L 11.222656 12.976562 L 13.507812 12.976562 C 16.8125 12.976562 19.441406 12.546875 21.398438 11.679688 C 23.378906 10.796875 24.367188 9.515625 24.367188 7.839844 C 24.367188 7.097656 24.117188 6.453125 23.617188 5.898438 C 23.117188 5.335938 22.421875 4.875 21.53125 4.515625 C 20.59375 4.160156 19.59375 3.914062 18.53125 3.773438 C 17.460938 3.636719 16.257812 3.570312 14.90625 3.570312 C 12.84375 3.570312 10.644531 3.804688 8.320312 4.269531 C 5.992188 4.738281 3.796875 5.398438 1.730469 6.25 L 1.402344 6.25 L 1.402344 1.9375 C 2.945312 1.457031 5 1.015625 7.570312 0.617188 C 10.15625 0.207031 12.65625 0 15.070312 0 C 17.441406 0 19.53125 0.136719 21.335938 0.414062 C 23.140625 0.6875 24.769531 1.125 26.226562 1.734375 C 27.792969 2.390625 28.976562 3.191406 29.78125 4.125 C 30.585938 5.0625 30.988281 6.15625 30.988281 7.40625 C 30.988281 9.109375 30.03125 10.601562 28.117188 11.882812 C 26.226562 13.148438 23.984375 13.945312 21.398438 14.277344 L 21.398438 14.566406 C 22.445312 14.675781 23.640625 14.910156 24.984375 15.265625 C 26.335938 15.609375 27.476562 16.046875 28.414062 16.566406 Z M 28.414062 16.566406 "/></g></svg>
