<svg width="64" height="64" viewBox="0 0 64 64" version="1.1"><defs><linearGradient id="linear-pattern-0" gradientUnits="userSpaceOnUse" x1="0" y1="0" x2="0" y2="1" gradientTransform="matrix(60, 0, 0, 56, 0, 4)"><stop offset="0" stop-color="#3067ff" stop-opacity="1"/><stop offset="1" stop-color="#002ca6" stop-opacity="1"/></linearGradient></defs><path fill="url(#linear-pattern-0)" fill-opacity="1" d="M 36.21875 2.050781 L 62.027344 27.605469 C 64.402344 29.957031 64.417969 33.785156 62.058594 36.15625 L 36.460938 61.917969 C 34.105469 64.289062 30.269531 64.304688 27.894531 61.949219 L 2.085938 36.394531 C -0.289062 34.042969 -0.304688 30.214844 2.050781 27.84375 L 27.652344 2.082031 C 30.007812 -0.289062 33.84375 -0.304688 36.21875 2.050781 Z M 36.21875 2.050781 " /><g transform="matrix(1.0075098,0,0,1.0032698,16.221436,16.077397)"><path fill-rule="nonzero" fill="rgb(100%, 100%, 100%)" fill-opacity="1" d="M 9.667969 3.203125 C 9.257812 3.203125 8.882812 3.417969 8.664062 3.765625 C 8.445312 4.109375 8.425781 4.542969 8.601562 4.910156 L 19.882812 28.191406 C 20.078125 28.601562 20.492188 28.859375 20.945312 28.859375 L 30.816406 28.859375 C 31.226562 28.859375 31.601562 28.648438 31.820312 28.304688 C 32.035156 27.957031 32.0625 27.523438 31.882812 27.15625 L 20.601562 3.875 C 20.40625 3.46875 19.992188 3.203125 19.539062 3.203125 Z M 9.667969 3.203125 "/></g></svg>
