<svg width="64" height="64" viewBox="0 0 64 64" version="1.1"><defs><linearGradient id="linear-pattern-0" gradientUnits="userSpaceOnUse" x1="0" y1="0" x2="0" y2="1" gradientTransform="matrix(60, 0, 0, 56, 0, 4)"><stop offset="0" stop-color="#00a07f" stop-opacity="1"/><stop offset="1" stop-color="#005241" stop-opacity="1"/></linearGradient></defs><path fill="url(#linear-pattern-0)" fill-opacity="1" d="M 36.21875 2.050781 L 62.027344 27.605469 C 64.402344 29.957031 64.417969 33.785156 62.058594 36.15625 L 36.460938 61.917969 C 34.105469 64.289062 30.269531 64.304688 27.894531 61.949219 L 2.085938 36.394531 C -0.289062 34.042969 -0.304688 30.214844 2.050781 27.84375 L 27.652344 2.082031 C 30.007812 -0.289062 33.84375 -0.304688 36.21875 2.050781 Z M 36.21875 2.050781 " /><g transform="matrix(1.0075098,0,0,1.0032698,16.221436,16.077397)"><path fill-rule="nonzero" fill="rgb(100%, 100%, 100%)" fill-opacity="1" d="M 2.804688 10.035156 C 2.207031 10.035156 1.726562 10.414062 1.726562 10.878906 L 1.726562 28.585938 C 1.726562 29.054688 2.207031 29.429688 2.804688 29.429688 C 3.402344 29.429688 3.882812 29.054688 3.882812 28.585938 L 3.882812 28.164062 C 3.882812 28.867188 4.609375 29.429688 5.503906 29.429688 C 6.398438 29.429688 7.125 28.867188 7.125 28.164062 C 7.125 28.867188 7.84375 29.429688 8.742188 29.429688 C 9.640625 29.429688 10.363281 28.867188 10.363281 28.164062 C 10.363281 28.867188 11.085938 29.429688 11.984375 29.429688 C 12.882812 29.429688 13.601562 28.867188 13.601562 28.164062 C 13.601562 28.867188 14.324219 29.429688 15.222656 29.429688 C 16.117188 29.429688 16.84375 28.867188 16.84375 28.164062 C 16.84375 28.867188 17.5625 29.429688 18.460938 29.429688 C 19.359375 29.429688 20.082031 28.867188 20.082031 28.164062 C 20.082031 28.867188 20.804688 29.429688 21.703125 29.429688 C 22.597656 29.429688 23.320312 28.867188 23.320312 28.164062 L 23.320312 27.742188 L 27.640625 27.742188 L 27.640625 28.585938 C 27.640625 29.054688 28.121094 29.429688 28.71875 29.429688 C 29.320312 29.429688 29.800781 29.054688 29.800781 28.585938 L 29.800781 10.878906 C 29.800781 10.414062 29.320312 10.035156 28.71875 10.035156 C 28.121094 10.035156 27.640625 10.414062 27.640625 10.878906 L 27.640625 11.300781 C 27.640625 10.601562 26.917969 10.035156 26.023438 10.035156 C 25.125 10.035156 24.398438 10.601562 24.398438 11.300781 C 24.398438 10.601562 23.679688 10.035156 22.78125 10.035156 C 21.882812 10.035156 21.164062 10.601562 21.164062 11.300781 L 21.164062 11.722656 L 16.84375 11.722656 L 16.84375 11.300781 C 16.84375 10.601562 16.117188 10.035156 15.222656 10.035156 C 14.324219 10.035156 13.601562 10.601562 13.601562 11.300781 C 13.601562 10.601562 12.882812 10.035156 11.984375 10.035156 C 11.085938 10.035156 10.363281 10.601562 10.363281 11.300781 C 10.363281 10.601562 9.640625 10.035156 8.742188 10.035156 C 7.84375 10.035156 7.125 10.601562 7.125 11.300781 C 7.125 10.601562 6.398438 10.035156 5.503906 10.035156 C 4.609375 10.035156 3.882812 10.601562 3.882812 11.300781 L 3.882812 10.878906 C 3.882812 10.414062 3.402344 10.035156 2.804688 10.035156 Z M 16.84375 12.566406 L 21.164062 12.566406 L 21.164062 12.984375 C 21.164062 13.6875 21.882812 14.25 22.78125 14.25 C 23.679688 14.25 24.398438 13.6875 24.398438 12.984375 C 24.398438 13.6875 25.125 14.25 26.023438 14.25 C 26.917969 14.25 27.640625 13.6875 27.640625 12.984375 L 27.640625 16.359375 C 27.640625 15.65625 26.917969 15.09375 26.023438 15.09375 C 25.125 15.09375 24.398438 15.65625 24.398438 16.359375 C 24.398438 15.65625 23.679688 15.09375 22.78125 15.09375 C 21.882812 15.09375 21.164062 15.65625 21.164062 16.359375 C 21.164062 15.65625 20.4375 15.09375 19.539062 15.09375 C 18.644531 15.09375 17.921875 15.65625 17.921875 16.359375 L 17.921875 16.78125 L 13.601562 16.78125 L 13.601562 16.359375 C 13.601562 15.65625 12.882812 15.09375 11.984375 15.09375 C 11.085938 15.09375 10.363281 15.65625 10.363281 16.359375 C 10.363281 15.65625 9.640625 15.09375 8.742188 15.09375 C 7.84375 15.09375 7.125 15.65625 7.125 16.359375 C 7.125 15.65625 6.398438 15.09375 5.503906 15.09375 C 4.609375 15.09375 3.882812 15.65625 3.882812 16.359375 L 3.882812 12.984375 C 3.882812 13.6875 4.609375 14.25 5.503906 14.25 C 6.398438 14.25 7.125 13.6875 7.125 12.984375 C 7.125 13.6875 7.84375 14.25 8.742188 14.25 C 9.640625 14.25 10.363281 13.6875 10.363281 12.984375 C 10.363281 13.6875 11.085938 14.25 11.984375 14.25 C 12.882812 14.25 13.601562 13.6875 13.601562 12.984375 C 13.601562 13.6875 14.324219 14.25 15.222656 14.25 C 16.117188 14.25 16.84375 13.6875 16.84375 12.984375 Z M 13.601562 17.625 L 17.921875 17.625 L 17.921875 18.046875 C 17.921875 18.746094 18.644531 19.3125 19.539062 19.3125 C 20.4375 19.3125 21.164062 18.746094 21.164062 18.046875 C 21.164062 18.746094 21.882812 19.3125 22.78125 19.3125 C 23.679688 19.3125 24.398438 18.746094 24.398438 18.046875 C 24.398438 18.746094 25.125 19.3125 26.023438 19.3125 C 26.917969 19.3125 27.640625 18.746094 27.640625 18.046875 L 27.640625 21.421875 C 27.640625 20.71875 26.917969 20.15625 26.023438 20.15625 C 25.125 20.15625 24.398438 20.71875 24.398438 21.421875 C 24.398438 20.71875 23.679688 20.15625 22.78125 20.15625 C 21.882812 20.15625 21.164062 20.71875 21.164062 21.421875 C 21.164062 20.71875 20.4375 20.15625 19.539062 20.15625 C 18.644531 20.15625 17.921875 20.71875 17.921875 21.421875 C 17.921875 20.71875 17.199219 20.15625 16.304688 20.15625 C 15.40625 20.15625 14.679688 20.71875 14.679688 21.421875 L 14.679688 21.839844 L 10.363281 21.839844 L 10.363281 21.421875 C 10.363281 20.71875 9.640625 20.15625 8.742188 20.15625 C 7.84375 20.15625 7.125 20.71875 7.125 21.421875 C 7.125 20.71875 6.398438 20.15625 5.503906 20.15625 C 4.609375 20.15625 3.882812 20.71875 3.882812 21.421875 L 3.882812 18.046875 C 3.882812 18.746094 4.609375 19.3125 5.503906 19.3125 C 6.398438 19.3125 7.125 18.746094 7.125 18.046875 C 7.125 18.746094 7.84375 19.3125 8.742188 19.3125 C 9.640625 19.3125 10.363281 18.746094 10.363281 18.046875 C 10.363281 18.746094 11.085938 19.3125 11.984375 19.3125 C 12.882812 19.3125 13.601562 18.746094 13.601562 18.046875 Z M 10.363281 22.683594 L 14.679688 22.683594 L 14.679688 23.105469 C 14.679688 23.804688 15.40625 24.371094 16.304688 24.371094 C 17.199219 24.371094 17.921875 23.804688 17.921875 23.105469 C 17.921875 23.804688 18.644531 24.371094 19.539062 24.371094 C 20.4375 24.371094 21.164062 23.804688 21.164062 23.105469 C 21.164062 23.804688 21.882812 24.371094 22.78125 24.371094 C 23.679688 24.371094 24.398438 23.804688 24.398438 23.105469 C 24.398438 23.804688 25.125 24.371094 26.023438 24.371094 C 26.917969 24.371094 27.640625 23.804688 27.640625 23.105469 L 27.640625 26.898438 L 23.320312 26.898438 L 23.320312 26.476562 C 23.320312 25.777344 22.597656 25.210938 21.703125 25.210938 C 20.804688 25.210938 20.082031 25.777344 20.082031 26.476562 C 20.082031 25.777344 19.359375 25.210938 18.460938 25.210938 C 17.5625 25.210938 16.84375 25.777344 16.84375 26.476562 C 16.84375 25.777344 16.117188 25.210938 15.222656 25.210938 C 14.324219 25.210938 13.601562 25.777344 13.601562 26.476562 C 13.601562 25.777344 12.882812 25.210938 11.984375 25.210938 C 11.085938 25.210938 10.363281 25.777344 10.363281 26.476562 C 10.363281 25.777344 9.640625 25.210938 8.742188 25.210938 C 7.84375 25.210938 7.125 25.777344 7.125 26.476562 C 7.125 25.777344 6.398438 25.210938 5.503906 25.210938 C 4.609375 25.210938 3.882812 25.777344 3.882812 26.476562 L 3.882812 23.105469 C 3.882812 23.804688 4.609375 24.371094 5.503906 24.371094 C 6.398438 24.371094 7.125 23.804688 7.125 23.105469 C 7.125 23.804688 7.84375 24.371094 8.742188 24.371094 C 9.640625 24.371094 10.363281 23.804688 10.363281 23.105469 Z M 10.363281 22.683594 "/></g></svg>
