<svg width="64" height="64" viewBox="0 0 64 64" version="1.1"><defs><linearGradient id="linear-pattern-0" gradientUnits="userSpaceOnUse" x1="0" y1="0" x2="0" y2="1" gradientTransform="matrix(60, 0, 0, 56, 0, 4)"><stop offset="0" stop-color="#8900e4" stop-opacity="1"/><stop offset="1" stop-color="#42006e" stop-opacity="1"/></linearGradient></defs><path fill="url(#linear-pattern-0)" fill-opacity="1" d="M 36.21875 2.050781 L 62.027344 27.605469 C 64.402344 29.957031 64.417969 33.785156 62.058594 36.15625 L 36.460938 61.917969 C 34.105469 64.289062 30.269531 64.304688 27.894531 61.949219 L 2.085938 36.394531 C -0.289062 34.042969 -0.304688 30.214844 2.050781 27.84375 L 27.652344 2.082031 C 30.007812 -0.289062 33.84375 -0.304688 36.21875 2.050781 Z M 36.21875 2.050781 " /><g transform="matrix(1.0075098,0,0,1.0032698,16.221436,16.077397)"><path fill-rule="evenodd" fill="rgb(100%, 100%, 100%)" fill-opacity="1" d="M 16.730469 11.660156 L 16.734375 11.65625 L 27.375 11.65625 C 27.5625 11.65625 27.738281 11.734375 27.867188 11.855469 C 27.882812 11.871094 28.023438 12.007812 28.234375 12.238281 L 28.234375 12.234375 L 31.792969 15.902344 C 32.0625 16.179688 32.066406 16.621094 31.792969 16.898438 L 28.429688 20.378906 C 28.125 20.714844 27.898438 20.917969 27.875 20.9375 C 27.75 21.070312 27.570312 21.148438 27.375 21.148438 L 19.378906 21.148438 L 5.609375 30.671875 C 5.292969 30.890625 4.851562 30.8125 4.632812 30.5 L 0.125 24.0625 C -0.09375 23.746094 -0.015625 23.269531 0.296875 23.046875 L 16.273438 11.785156 C 16.414062 11.6875 16.574219 11.648438 16.730469 11.660156 Z M 16.730469 11.660156 "/></g></svg>
