<svg width="64" height="64" viewBox="0 0 64 64" version="1.1"><defs><linearGradient id="linear-pattern-0" gradientUnits="userSpaceOnUse" x1="0" y1="0" x2="0" y2="1" gradientTransform="matrix(60, 0, 0, 56, 0, 4)"><stop offset="0" stop-color="#3067ff" stop-opacity="1"/><stop offset="1" stop-color="#002ca6" stop-opacity="1"/></linearGradient></defs><path fill="url(#linear-pattern-0)" fill-opacity="1" d="M 36.21875 2.050781 L 62.027344 27.605469 C 64.402344 29.957031 64.417969 33.785156 62.058594 36.15625 L 36.460938 61.917969 C 34.105469 64.289062 30.269531 64.304688 27.894531 61.949219 L 2.085938 36.394531 C -0.289062 34.042969 -0.304688 30.214844 2.050781 27.84375 L 27.652344 2.082031 C 30.007812 -0.289062 33.84375 -0.304688 36.21875 2.050781 Z M 36.21875 2.050781 " /><g transform="matrix(1.0075098,0,0,1.0032698,16.221436,16.077397)"><path fill-rule="nonzero" fill="rgb(100%, 100%, 100%)" fill-opacity="1" d="M 11.84375 0 L 11.34375 0.015625 C 11.34375 0.015625 12.347656 1.328125 13.058594 1.886719 L 12.953125 2.328125 C 12.898438 2.816406 12.832031 3.339844 12.8125 3.492188 L 12.777344 3.765625 L 12.507812 3.578125 L 12.011719 3.382812 L 12.203125 3.703125 L 12.402344 4.023438 L 11.40625 4.023438 L 11.40625 3.398438 L 10.933594 3.582031 L 10.453125 3.765625 L 10.78125 4.304688 L 10.140625 4.917969 L 9.503906 5.375 L 9.742188 5.640625 L 9.976562 5.90625 L 9.140625 5.414062 L 10.234375 4.1875 L 9.945312 4.15625 C 9.785156 4.140625 9.363281 4.09375 9.003906 4.054688 L 8.351562 3.976562 L 8.304688 4.5625 L 8.265625 5.148438 L 7.492188 5.882812 L 6.71875 6.609375 L 6 9.523438 C 5.601562 11.121094 5.140625 12.890625 5.058594 13.257812 L 4.914062 13.921875 C 5.632812 14.222656 6.273438 14.363281 6.953125 14.40625 C 7.136719 14.289062 7.382812 13.800781 7.503906 13.3125 C 7.625 12.824219 7.890625 12.273438 8 12.273438 L 8.207031 12.273438 L 8.234375 13.320312 C 8.25 13.898438 8.5 15.21875 8.796875 16.25 C 9.085938 17.28125 9.234375 18.480469 9.320312 18.898438 L 9.480469 19.671875 L 8.832031 20.078125 L 9.351562 20.375 L 9.53125 20.671875 L 9.074219 20.492188 L 8.617188 20.316406 L 7.898438 21.828125 L 7.179688 23.335938 L 5.617188 24.351562 L 4.609375 25.375 L 4.863281 26.5 L 5.109375 27.632812 L 5.0625 29.4375 L 5.007812 31.242188 L 5.242188 31.617188 L 5.472656 32 L 7.1875 32 L 7.90625 31.625 L 8.347656 31.039062 L 7.75 30.46875 C 7.625 30.15625 7.453125 28.984375 7.367188 27.871094 L 7.210938 25.847656 L 8.085938 24.335938 L 8.953125 22.828125 L 10.289062 21.511719 L 11.617188 20.195312 L 11.820312 18.484375 L 12.015625 16.777344 L 11.632812 17 L 11.25 17.21875 L 11.976562 16.414062 L 12.730469 16.8125 C 13.140625 17.023438 13.945312 17.554688 14.515625 17.984375 L 15.550781 18.773438 L 15.550781 20.398438 L 16.335938 22.148438 C 16.773438 23.109375 17.21875 23.5 17.335938 23.996094 C 17.453125 24.492188 17.679688 25.0625 17.839844 25.269531 L 18.132812 25.648438 L 19.023438 25.386719 C 19.515625 25.242188 20.234375 24.953125 20.617188 24.75 C 21.003906 24.539062 22.625 24.773438 24.21875 24.296875 L 27.125 23.429688 L 27.257812 23.023438 L 27.390625 22.460938 L 26.285156 22.460938 C 25.679688 22.460938 24.738281 22.554688 24.195312 22.664062 L 23.203125 22.863281 L 23.375 23.144531 L 23.546875 23.421875 L 22.554688 23.039062 L 21.273438 23.558594 C 20.570312 23.84375 19.71875 23.992188 19.398438 24.078125 L 18.804688 24.078125 L 18.296875 22.945312 L 17.78125 21.648438 L 17.582031 19.890625 L 17.375 18.121094 L 16.117188 16.410156 C 15.425781 15.46875 14.40625 14.289062 13.851562 13.792969 L 12.828125 12.800781 C 13.203125 12.804688 13.242188 12.84375 13.613281 12.789062 L 13.382812 12.675781 L 13.304688 12.273438 L 14.101562 12.429688 L 14.015625 11.90625 L 13.929688 11.851562 L 14.414062 11.664062 C 14.585938 11.597656 14.730469 11.335938 14.816406 11.199219 L 13.9375 11.199219 L 13.9375 10.390625 C 13.9375 10.121094 14.03125 9.902344 14.144531 9.902344 C 14.625 10.230469 15.046875 10.296875 15.511719 10.492188 C 15.960938 10.15625 16.964844 9.980469 17.484375 9.773438 L 17.691406 8.289062 C 17.808594 7.472656 17.648438 6.664062 17.757812 6.492188 L 17.945312 6.179688 L 17.472656 5.695312 C 17.210938 5.429688 16.335938 5.148438 16.113281 5.074219 L 15.710938 4.9375 L 16.117188 4.433594 L 16.203125 3.992188 L 16.242188 2.992188 C 16.160156 2.515625 16.039062 2.257812 15.820312 1.988281 C 15.242188 1.652344 15.046875 1.578125 14.421875 1.640625 L 13.433594 1.625 Z M 14.585938 5.804688 L 14.890625 5.804688 C 15.054688 5.804688 15.667969 5.953125 15.667969 6.144531 L 15.667969 6.488281 L 15.960938 6.304688 L 16.257812 6.117188 L 16.492188 6.492188 L 16.722656 6.871094 L 16.351562 6.640625 L 16.242188 6.648438 L 16.203125 7.328125 L 16.203125 8.019531 L 15.667969 8.039062 L 15.667969 8.042969 L 14.570312 8.015625 C 14.554688 7.882812 14.640625 7.226562 14.585938 6.734375 Z M 14.585938 5.804688 "/></g></svg>
