<svg width="64" height="64" viewBox="0 0 64 64" version="1.1"><defs><linearGradient id="linear-pattern-0" gradientUnits="userSpaceOnUse" x1="0" y1="0" x2="0" y2="1" gradientTransform="matrix(60, 0, 0, 56, 0, 4)"><stop offset="0" stop-color="#008a97" stop-opacity="1"/><stop offset="1" stop-color="#00545c" stop-opacity="1"/></linearGradient></defs><path fill="url(#linear-pattern-0)" fill-opacity="1" d="M 36.21875 2.050781 L 62.027344 27.605469 C 64.402344 29.957031 64.417969 33.785156 62.058594 36.15625 L 36.460938 61.917969 C 34.105469 64.289062 30.269531 64.304688 27.894531 61.949219 L 2.085938 36.394531 C -0.289062 34.042969 -0.304688 30.214844 2.050781 27.84375 L 27.652344 2.082031 C 30.007812 -0.289062 33.84375 -0.304688 36.21875 2.050781 Z M 36.21875 2.050781 " /><g transform="matrix(1.0075098,0,0,1.0032698,16.221436,16.077397)"><path fill-rule="nonzero" fill="rgb(100%, 100%, 100%)" fill-opacity="1" d="M 29.351562 0.140625 L 0.140625 29.351562 C 0.304688 29.953125 0.621094 30.507812 1.046875 30.953125 C 1.492188 31.378906 2.046875 31.695312 2.648438 31.859375 L 31.875 2.648438 C 31.539062 1.421875 30.578125 0.460938 29.351562 0.140625 Z M 15.785156 0 L 0 15.785156 L 0 20.820312 L 20.820312 0 Z M 3.554688 0 C 1.601562 0 0 1.601562 0 3.554688 L 0 7.109375 L 7.109375 0 Z M 28.445312 32 C 29.421875 32 30.3125 31.609375 30.953125 30.953125 C 31.609375 30.3125 32 29.421875 32 28.445312 L 32 24.890625 L 24.890625 32 Z M 11.179688 32 L 16.214844 32 L 32 16.214844 L 32 11.179688 Z M 11.179688 32 "/></g></svg>
