<svg width="64" height="64" viewBox="0 0 64 64" version="1.1"><defs><linearGradient id="linear-pattern-0" gradientUnits="userSpaceOnUse" x1="0" y1="0" x2="0" y2="1" gradientTransform="matrix(60, 0, 0, 56, 0, 4)"><stop offset="0" stop-color="#7795ab" stop-opacity="1"/><stop offset="1" stop-color="#3b4f5f" stop-opacity="1"/></linearGradient></defs><path fill="url(#linear-pattern-0)" fill-opacity="1" d="M 36.21875 2.050781 L 62.027344 27.605469 C 64.402344 29.957031 64.417969 33.785156 62.058594 36.15625 L 36.460938 61.917969 C 34.105469 64.289062 30.269531 64.304688 27.894531 61.949219 L 2.085938 36.394531 C -0.289062 34.042969 -0.304688 30.214844 2.050781 27.84375 L 27.652344 2.082031 C 30.007812 -0.289062 33.84375 -0.304688 36.21875 2.050781 Z M 36.21875 2.050781 " /><g transform="matrix(1.0075098,0,0,1.0032698,16.221436,16.077397)"><path fill-rule="nonzero" fill="rgb(100%, 100%, 100%)" fill-opacity="1" d="M 16 2.164062 C 14.398438 2.164062 12.796875 2.746094 11.632812 3.621094 L 10.175781 3.621094 C 6.242188 3.621094 2.894531 6.828125 2.894531 10.90625 C 4.933594 10.621094 6.941406 11.589844 7.992188 13.359375 C 7.992188 13.507812 8.871094 14.84375 9.3125 15.863281 C 10.617188 15.71875 12.796875 15.273438 16 15.273438 C 19.203125 15.273438 21.390625 15.707031 22.554688 16 C 23.132812 14.980469 23.871094 13.542969 23.871094 13.542969 C 25.039062 11.648438 27.070312 10.757812 29.105469 10.90625 C 29.105469 6.828125 25.902344 3.621094 21.824219 3.621094 L 20.367188 3.621094 C 19.203125 2.746094 17.601562 2.164062 16 2.164062 Z M 3.257812 12.40625 C 3.046875 12.414062 2.828125 12.445312 2.617188 12.496094 C 1.453125 12.785156 0.40625 13.835938 0.117188 15 C -0.460938 17.328125 1.164062 19.492188 3.347656 19.640625 L 5.804688 26.921875 L 26.195312 26.921875 L 28.652344 19.640625 C 30.835938 19.492188 32.460938 17.328125 31.882812 15 C 31.59375 13.835938 30.546875 12.785156 29.382812 12.496094 C 27.632812 12.058594 26.054688 12.816406 25.328125 14.273438 C 25.179688 14.417969 23.417969 17.726562 23.417969 17.726562 C 23.417969 17.726562 21.246094 16.726562 16 16.726562 C 10.753906 16.726562 8.71875 17.730469 8.71875 17.730469 C 8.71875 17.730469 6.808594 14.417969 6.808594 14.269531 C 6.046875 13 4.75 12.273438 3.257812 12.40625 Z M 5.351562 28.378906 L 4.625 29.835938 L 6.53125 29.835938 L 7.992188 28.378906 Z M 24.007812 28.378906 L 25.46875 29.835938 L 27.378906 29.835938 L 26.648438 28.378906 Z M 24.007812 28.378906 "/></g></svg>
