<svg width="64" height="64" viewBox="0 0 64 64" version="1.1"><defs><linearGradient id="linear-pattern-0" gradientUnits="userSpaceOnUse" x1="0" y1="0" x2="0" y2="1" gradientTransform="matrix(60, 0, 0, 56, 0, 4)"><stop offset="0" stop-color="#8900e4" stop-opacity="1"/><stop offset="1" stop-color="#42006e" stop-opacity="1"/></linearGradient></defs><path fill="url(#linear-pattern-0)" fill-opacity="1" d="M 36.21875 2.050781 L 62.027344 27.605469 C 64.402344 29.957031 64.417969 33.785156 62.058594 36.15625 L 36.460938 61.917969 C 34.105469 64.289062 30.269531 64.304688 27.894531 61.949219 L 2.085938 36.394531 C -0.289062 34.042969 -0.304688 30.214844 2.050781 27.84375 L 27.652344 2.082031 C 30.007812 -0.289062 33.84375 -0.304688 36.21875 2.050781 Z M 36.21875 2.050781 " /><g transform="matrix(1.0075098,0,0,1.0032698,16.221436,16.077397)"><path fill-rule="nonzero" fill="rgb(100%, 100%, 100%)" fill-opacity="1" d="M 19.136719 2.007812 C 18.5 2.007812 17.890625 2.054688 17.421875 2.136719 C 13.449219 2.875 10.304688 5.445312 8.84375 9.148438 C 8.6875 9.546875 8.53125 10.03125 8.492188 10.230469 C 8.421875 10.628906 8.515625 10.617188 7.359375 10.382812 C 6.570312 10.21875 5.0625 10.3125 4.230469 10.570312 C 2.882812 11 1.765625 11.734375 0.882812 12.777344 C -0.9375 14.941406 -1.28125 17.976562 0.015625 20.476562 C 0.738281 21.875 2.28125 23.269531 3.671875 23.789062 C 4.996094 24.28125 4.1875 24.261719 22.851562 24.269531 C 26.625 24.359375 30.855469 18.988281 30.5625 13.09375 C 30.515625 12.257812 30.410156 11.257812 30.328125 10.882812 C 29.445312 6.6875 26.335938 3.453125 22.117188 2.320312 C 21.351562 2.117188 20.199219 2.003906 19.136719 2.007812 Z M 19.242188 5.171875 L 28.957031 10.015625 L 19.242188 14.851562 L 9.523438 10.015625 Z M 19.242188 6.78125 L 12.746094 10.015625 L 19.242188 13.242188 L 25.730469 10.015625 Z M 11.46875 12.671875 L 19.242188 16.539062 L 27.007812 12.671875 L 28.957031 13.640625 L 19.242188 18.476562 L 9.523438 13.640625 Z M 11.46875 16.296875 L 19.242188 20.167969 L 27.007812 16.296875 L 28.957031 17.269531 L 19.242188 22.109375 L 9.523438 17.269531 Z M 11.46875 16.296875 "/></g></svg>
