<svg width="64" height="64" viewBox="0 0 64 64" version="1.1"><defs><linearGradient id="linear-pattern-0" gradientUnits="userSpaceOnUse" x1="0" y1="0" x2="0" y2="1" gradientTransform="matrix(60, 0, 0, 56, 0, 4)"><stop offset="0" stop-color="#7795ab" stop-opacity="1"/><stop offset="1" stop-color="#3b4f5f" stop-opacity="1"/></linearGradient></defs><path fill="url(#linear-pattern-0)" fill-opacity="1" d="M 36.21875 2.050781 L 62.027344 27.605469 C 64.402344 29.957031 64.417969 33.785156 62.058594 36.15625 L 36.460938 61.917969 C 34.105469 64.289062 30.269531 64.304688 27.894531 61.949219 L 2.085938 36.394531 C -0.289062 34.042969 -0.304688 30.214844 2.050781 27.84375 L 27.652344 2.082031 C 30.007812 -0.289062 33.84375 -0.304688 36.21875 2.050781 Z M 36.21875 2.050781 " /><g transform="matrix(1.0075098,0,0,1.0032698,16.221436,16.077397)"><path fill-rule="nonzero" fill="rgb(100%, 100%, 100%)" fill-opacity="1" d="M 2.1875 4.324219 C 1.5 4.324219 0.953125 4.804688 0.953125 5.398438 L 0.953125 9.695312 C 0.953125 10.289062 1.5 10.769531 2.1875 10.769531 L 12.078125 10.769531 L 12.078125 29.023438 C 12.078125 29.621094 12.632812 30.101562 13.316406 30.101562 L 18.261719 30.101562 C 18.945312 30.101562 19.5 29.621094 19.5 29.023438 L 19.5 10.769531 L 29.390625 10.769531 C 30.078125 10.769531 30.628906 10.289062 30.628906 9.695312 L 30.628906 5.398438 C 30.628906 4.804688 30.078125 4.324219 29.390625 4.324219 Z M 2.1875 4.324219 "/><path fill-rule="nonzero" fill="rgb(100%, 100%, 100%)" fill-opacity="1" d="M 25.191406 1.070312 C 23.1875 1.078125 21.398438 2.046875 20.734375 3.5 L 11.765625 3.5 C 6.945312 3.5 3.078125 6.46875 3.078125 10.167969 C 3.078125 13.867188 6.945312 16.835938 11.765625 16.835938 L 19.664062 16.835938 C 22.726562 16.835938 25.191406 18.730469 25.191406 21.082031 C 25.191406 23.4375 22.726562 25.328125 19.664062 25.328125 L 10.703125 25.328125 C 10.035156 23.871094 8.242188 22.902344 6.234375 22.902344 C 3.613281 22.902344 1.496094 24.527344 1.496094 26.539062 C 1.496094 28.554688 3.613281 30.179688 6.234375 30.179688 C 8.242188 30.171875 10.023438 29.203125 10.6875 27.75 L 19.664062 27.75 C 24.480469 27.75 28.351562 24.78125 28.351562 21.082031 C 28.351562 17.382812 24.480469 14.414062 19.664062 14.414062 L 11.765625 14.414062 C 8.699219 14.414062 6.234375 12.519531 6.234375 10.167969 C 6.234375 7.8125 8.699219 5.921875 11.765625 5.921875 L 20.734375 5.921875 C 21.40625 7.378906 23.1875 8.347656 25.191406 8.347656 C 27.8125 8.347656 29.929688 6.722656 29.929688 4.710938 C 29.929688 2.695312 27.8125 1.070312 25.191406 1.070312 Z M 25.191406 1.070312 "/></g></svg>
