<svg width="64" height="64" viewBox="0 0 64 64" version="1.1"><defs><linearGradient id="linear-pattern-0" gradientUnits="userSpaceOnUse" x1="0" y1="0" x2="0" y2="1" gradientTransform="matrix(60, 0, 0, 56, 0, 4)"><stop offset="0" stop-color="#aaaa00" stop-opacity="1"/><stop offset="1" stop-color="#5c5c00" stop-opacity="1"/></linearGradient></defs><path fill="url(#linear-pattern-0)" fill-opacity="1" d="M 36.21875 2.050781 L 62.027344 27.605469 C 64.402344 29.957031 64.417969 33.785156 62.058594 36.15625 L 36.460938 61.917969 C 34.105469 64.289062 30.269531 64.304688 27.894531 61.949219 L 2.085938 36.394531 C -0.289062 34.042969 -0.304688 30.214844 2.050781 27.84375 L 27.652344 2.082031 C 30.007812 -0.289062 33.84375 -0.304688 36.21875 2.050781 Z M 36.21875 2.050781 " /><g transform="matrix(1.0075098,0,0,1.0032698,16.221436,16.077397)"><path fill-rule="evenodd" fill="rgb(100%, 100%, 100%)" fill-opacity="1" d="M 14.476562 3.011719 C 11.355469 3.335938 8.523438 4.652344 6.308594 6.636719 C 3.335938 9.296875 1.46875 13.164062 1.46875 17.46875 C 1.46875 25.492188 7.972656 32 16 32 C 24.027344 32 30.53125 25.492188 30.53125 17.46875 C 30.53125 16.40625 30.421875 15.378906 30.203125 14.386719 L 27.046875 15.0625 C 27.214844 15.835938 27.304688 16.640625 27.304688 17.46875 C 27.304688 23.710938 22.242188 28.769531 16 28.769531 C 9.757812 28.769531 4.695312 23.710938 4.695312 17.46875 C 4.695312 13.953125 6.300781 10.8125 8.8125 8.742188 C 10.410156 7.421875 12.371094 6.539062 14.523438 6.257812 L 14.570312 9.425781 C 14.570312 9.425781 19.257812 7.425781 23.070312 4.589844 C 23.070312 4.585938 23.070312 4.585938 23.070312 4.585938 C 23.070312 4.585938 23.070312 4.578125 23.0625 4.578125 C 18.957031 1.761719 14.433594 0 14.433594 0 Z M 14.476562 3.011719 "/></g></svg>
