<svg width="64" height="64" viewBox="0 0 64 64" version="1.1"><defs><linearGradient id="linear-pattern-0" gradientUnits="userSpaceOnUse" x1="0" y1="0" x2="0" y2="1" gradientTransform="matrix(60, 0, 0, 56, 0, 4)"><stop offset="0" stop-color="#3067ff" stop-opacity="1"/><stop offset="1" stop-color="#002ca6" stop-opacity="1"/></linearGradient></defs><path fill="url(#linear-pattern-0)" fill-opacity="1" d="M 36.21875 2.050781 L 62.027344 27.605469 C 64.402344 29.957031 64.417969 33.785156 62.058594 36.15625 L 36.460938 61.917969 C 34.105469 64.289062 30.269531 64.304688 27.894531 61.949219 L 2.085938 36.394531 C -0.289062 34.042969 -0.304688 30.214844 2.050781 27.84375 L 27.652344 2.082031 C 30.007812 -0.289062 33.84375 -0.304688 36.21875 2.050781 Z M 36.21875 2.050781 " /><g transform="matrix(1.0075098,0,0,1.0032698,16.221436,16.077397)"><path fill-rule="nonzero" fill="rgb(100%, 100%, 100%)" fill-opacity="1" d="M 18.246094 0.132812 C 25.558594 -0.828125 28.21875 3.640625 31.078125 6.210938 C 25.980469 5.351562 25.515625 -0.847656 16.132812 3.132812 C 8.632812 6.3125 9.820312 12.859375 7.792969 17.242188 L 4.171875 15.28125 C 6 8.460938 11.820312 0.980469 18.246094 0.132812 Z M 18.246094 0.132812 "/><path fill-rule="evenodd" fill="rgb(100%, 100%, 100%)" fill-opacity="1" d="M 20.105469 12.820312 C 20.117188 14.308594 20.132812 15.796875 20.152344 17.289062 C 20.164062 18.296875 20.195312 19.304688 20.242188 20.3125 C 20.273438 21.0625 20.328125 21.796875 20.414062 22.539062 C 20.472656 23.070312 20.5625 23.601562 20.699219 24.121094 C 20.804688 24.546875 20.984375 24.953125 21.234375 25.320312 C 21.480469 25.683594 21.828125 25.960938 22.234375 26.132812 C 22.582031 26.265625 22.957031 26.332031 23.335938 26.316406 L 24.398438 26.28125 L 24.328125 24.148438 L 23.265625 24.1875 C 23.1875 24.1875 23.109375 24.179688 23.03125 24.148438 C 23.015625 24.144531 23 24.136719 22.992188 24.121094 C 22.890625 23.957031 22.8125 23.789062 22.765625 23.601562 C 22.660156 23.175781 22.582031 22.742188 22.53125 22.3125 C 22.453125 21.613281 22.40625 20.917969 22.375 20.222656 C 22.328125 19.234375 22.296875 18.246094 22.28125 17.257812 C 22.261719 15.78125 22.25 14.296875 22.238281 12.820312 L 24.367188 12.820312 L 24.367188 10.6875 L 22.230469 10.6875 C 22.226562 9.859375 22.230469 9.03125 22.234375 8.210938 L 22.242188 7.144531 L 20.109375 7.132812 L 20.101562 8.195312 C 20.097656 9.023438 20.097656 9.859375 20.097656 10.6875 L 17.972656 10.6875 L 17.972656 12.820312 Z M 3.046875 14.949219 C 2.054688 15.003906 1.234375 15.0625 1.027344 15.578125 C 0.441406 17.402344 2.484375 17.132812 2.484375 17.132812 L 1.847656 16.445312 C 1.507812 14.972656 7.976562 17.8125 9.714844 19.910156 C 14.554688 25.757812 14.933594 33.28125 25.34375 31.8125 C 26.945312 31.585938 28.53125 31.417969 30.046875 30.046875 C 27.976562 30.582031 26.113281 30.617188 24.464844 30.796875 C 18.667969 31.402344 16.960938 29.257812 14.953125 24.875 C 13.726562 22.140625 11.867188 19.269531 9.421875 17.324219 L 9.5625 15.054688 L 8.542969 16.679688 C 6.929688 15.613281 5.101562 14.949219 3.046875 14.949219 Z M 3.046875 14.949219 "/></g></svg>
