<svg width="64" height="64" viewBox="0 0 64 64" version="1.1"><defs><linearGradient id="linear-pattern-0" gradientUnits="userSpaceOnUse" x1="0" y1="0" x2="0" y2="1" gradientTransform="matrix(60, 0, 0, 56, 0, 4)"><stop offset="0" stop-color="#008a97" stop-opacity="1"/><stop offset="1" stop-color="#00545c" stop-opacity="1"/></linearGradient></defs><path fill="url(#linear-pattern-0)" fill-opacity="1" d="M 36.21875 2.050781 L 62.027344 27.605469 C 64.402344 29.957031 64.417969 33.785156 62.058594 36.15625 L 36.460938 61.917969 C 34.105469 64.289062 30.269531 64.304688 27.894531 61.949219 L 2.085938 36.394531 C -0.289062 34.042969 -0.304688 30.214844 2.050781 27.84375 L 27.652344 2.082031 C 30.007812 -0.289062 33.84375 -0.304688 36.21875 2.050781 Z M 36.21875 2.050781 " /><g transform="matrix(1.0075098,0,0,1.0032698,16.221436,16.077397)"><path fill-rule="nonzero" fill="rgb(100%, 100%, 100%)" fill-opacity="1" d="M 18.480469 1.601562 C 17.226562 1.601562 16.132812 2.527344 15.476562 3.9375 C 16.257812 4.410156 16.914062 5.1875 17.425781 6.148438 C 17.628906 5.585938 18.015625 5.1875 18.480469 5.1875 L 28.1875 5.1875 C 28.863281 5.1875 29.40625 5.988281 29.40625 6.984375 L 29.40625 15.953125 C 29.40625 16.945312 28.863281 17.742188 28.1875 17.742188 L 25.761719 17.742188 L 25.761719 19.984375 L 23.820312 17.742188 L 18.480469 17.742188 C 17.804688 17.742188 17.265625 16.945312 17.265625 15.953125 L 17.265625 10.570312 C 17.265625 7.585938 15.640625 5.1875 13.625 5.1875 L 3.914062 5.1875 C 1.894531 5.1875 0.273438 7.585938 0.273438 10.570312 L 0.273438 19.539062 C 0.273438 22.515625 1.894531 24.917969 3.914062 24.917969 L 7.554688 24.917969 L 7.554688 30.296875 L 12.410156 24.917969 L 13.625 24.917969 C 14.875 24.917969 15.96875 23.992188 16.625 22.578125 C 15.851562 22.109375 15.191406 21.335938 14.679688 20.375 C 14.476562 20.9375 14.085938 21.328125 13.625 21.328125 L 11.921875 21.328125 L 9.984375 23.570312 L 9.984375 21.328125 L 3.914062 21.328125 C 3.242188 21.328125 2.699219 20.53125 2.699219 19.539062 L 2.699219 10.570312 C 2.699219 9.574219 3.242188 8.773438 3.914062 8.773438 L 13.625 8.773438 C 14.296875 8.773438 14.835938 9.574219 14.835938 10.570312 L 14.835938 15.953125 C 14.835938 18.929688 16.460938 21.328125 18.480469 21.328125 L 23.335938 21.328125 L 28.1875 26.710938 L 28.1875 21.328125 C 30.210938 21.328125 31.835938 18.929688 31.835938 15.953125 L 31.835938 6.984375 C 31.835938 4 30.210938 1.601562 28.1875 1.601562 Z M 18.480469 1.601562 "/></g></svg>
