<svg width="64" height="64" viewBox="0 0 64 64" version="1.1"><defs><linearGradient id="linear-pattern-0" gradientUnits="userSpaceOnUse" x1="0" y1="0" x2="0" y2="1" gradientTransform="matrix(60, 0, 0, 56, 0, 4)"><stop offset="0" stop-color="#ec7700" stop-opacity="1"/><stop offset="1" stop-color="#773c00" stop-opacity="1"/></linearGradient></defs><path fill="url(#linear-pattern-0)" fill-opacity="1" d="M 36.21875 2.050781 L 62.027344 27.605469 C 64.402344 29.957031 64.417969 33.785156 62.058594 36.15625 L 36.460938 61.917969 C 34.105469 64.289062 30.269531 64.304688 27.894531 61.949219 L 2.085938 36.394531 C -0.289062 34.042969 -0.304688 30.214844 2.050781 27.84375 L 27.652344 2.082031 C 30.007812 -0.289062 33.84375 -0.304688 36.21875 2.050781 Z M 36.21875 2.050781 " /><g transform="matrix(1.0075098,0,0,1.0032698,16.221436,16.077397)"><path fill-rule="nonzero" fill="rgb(100%, 100%, 100%)" fill-opacity="1" d="M 12.3125 0.015625 C 11.039062 0.0625 9.75 0.234375 8.453125 0.53125 C 6.882812 0.890625 6.28125 1.175781 5.773438 1.796875 C 5.226562 2.460938 5.0625 3 4.414062 6.410156 C 3.800781 9.597656 3.824219 9.546875 2.640625 10.402344 C 2.03125 10.84375 1.367188 11.835938 1.148438 12.648438 C 0.921875 13.476562 0.960938 14.90625 1.234375 15.78125 C 1.414062 16.355469 1.671875 16.757812 2.273438 17.398438 C 2.96875 18.140625 3.203125 18.296875 4.023438 18.566406 C 5.671875 19.101562 7.253906 18.6875 8.460938 17.40625 C 9.332031 16.480469 9.683594 15.53125 9.6875 14.101562 C 9.6875 12.992188 9.496094 12.226562 8.992188 11.449219 C 10.945312 13.875 11.757812 16.679688 11.445312 19.96875 C 11.152344 22.996094 10.414062 24.824219 8.726562 26.726562 L 8.0625 27.476562 L 8.539062 27.566406 C 8.796875 27.613281 9.070312 27.671875 9.140625 27.695312 C 9.4375 27.804688 11.792969 27.75 12.210938 27.625 C 12.464844 27.546875 12.796875 27.328125 12.945312 27.128906 C 13.195312 26.792969 13.203125 26.671875 13.132812 25.398438 C 13.054688 24.15625 13.074219 23.992188 13.304688 23.648438 C 13.523438 23.320312 13.53125 23.25 13.367188 23.109375 C 13.101562 22.871094 13.140625 22.40625 13.445312 22.203125 C 13.65625 22.0625 13.691406 21.941406 13.632812 21.570312 C 13.585938 21.320312 13.523438 20.90625 13.484375 20.644531 C 13.378906 20.011719 13.625 19.738281 14.640625 19.378906 C 15.078125 19.21875 15.472656 19.011719 15.507812 18.914062 C 15.585938 18.703125 15.484375 18.515625 14.164062 16.429688 C 13.125 14.78125 12.6875 13.941406 12.6875 13.578125 C 12.6875 13.445312 12.855469 13.074219 13.0625 12.753906 C 13.53125 12.007812 13.53125 11.570312 13.0625 10.074219 C 12.078125 6.933594 10.242188 4.246094 8.359375 3.1875 L 7.734375 2.835938 C 7.742188 2.546875 7.742188 1.636719 7.757812 1.617188 C 7.976562 1.390625 9.484375 1.179688 11.4375 1.109375 C 15.355469 0.960938 18.78125 1.875 22.058594 3.929688 C 25.515625 6.101562 27.726562 9.125 28.683594 12.984375 C 29.144531 14.84375 29.171875 17.53125 28.742188 19.226562 C 28.210938 21.351562 27.234375 23.242188 25.800781 24.914062 C 24.203125 26.78125 20.789062 29.089844 18.289062 30 C 15.203125 31.125 11.34375 31.335938 8.0625 30.566406 C 7.59375 30.460938 6.890625 30.296875 6.5 30.203125 C 5.796875 30.039062 5.070312 30.109375 5.070312 30.335938 C 5.070312 30.480469 7.429688 31.265625 8.710938 31.550781 C 9.242188 31.667969 10.152344 31.8125 10.726562 31.875 C 16.699219 32.503906 22.25 30.742188 26.253906 26.945312 C 30.996094 22.453125 32.3125 15.929688 29.625 10.226562 C 28.390625 7.609375 25.679688 4.621094 22.894531 2.824219 C 19.796875 0.820312 16.136719 -0.132812 12.3125 0.015625 Z M 12.3125 0.015625 "/></g></svg>
