<svg width="64" height="64" viewBox="0 0 64 64" version="1.1"><defs><linearGradient id="linear-pattern-0" gradientUnits="userSpaceOnUse" x1="0" y1="0" x2="0" y2="1" gradientTransform="matrix(60, 0, 0, 56, 0, 4)"><stop offset="0" stop-color="#00a07f" stop-opacity="1"/><stop offset="1" stop-color="#005241" stop-opacity="1"/></linearGradient></defs><path fill="url(#linear-pattern-0)" fill-opacity="1" d="M 36.21875 2.050781 L 62.027344 27.605469 C 64.402344 29.957031 64.417969 33.785156 62.058594 36.15625 L 36.460938 61.917969 C 34.105469 64.289062 30.269531 64.304688 27.894531 61.949219 L 2.085938 36.394531 C -0.289062 34.042969 -0.304688 30.214844 2.050781 27.84375 L 27.652344 2.082031 C 30.007812 -0.289062 33.84375 -0.304688 36.21875 2.050781 Z M 36.21875 2.050781 " /><g transform="matrix(1.0075098,0,0,1.0032698,16.221436,16.077397)"><path fill-rule="evenodd" fill="rgb(100%, 100%, 100%)" fill-opacity="1" d="M 11.078125 13.539062 C 11.078125 11.5 12.179688 9.84375 13.539062 9.84375 C 14.898438 9.84375 16 11.5 16 13.539062 C 16 15.578125 14.898438 17.230469 13.539062 17.230469 C 12.179688 17.230469 11.078125 15.578125 11.078125 13.539062 Z M 16 0 C 7.164062 0 0 7.164062 0 16 C 0 24.835938 7.164062 32 16 32 C 24.835938 32 32 24.835938 32 16 C 32 11.757812 30.3125 7.6875 27.3125 4.6875 C 24.3125 1.6875 20.242188 0 16 0 Z M 18.460938 13.539062 C 18.460938 11.5 19.5625 9.84375 20.921875 9.84375 C 22.28125 9.84375 23.382812 11.5 23.382812 13.539062 C 23.382812 15.578125 22.28125 17.230469 20.921875 17.230469 C 19.5625 17.230469 18.460938 15.578125 18.460938 13.539062 Z M 18.460938 13.539062 "/></g></svg>
