<svg width="64" height="64" viewBox="0 0 64 64" version="1.1"><defs><linearGradient id="linear-pattern-0" gradientUnits="userSpaceOnUse" x1="0" y1="0" x2="0" y2="1" gradientTransform="matrix(60, 0, 0, 56, 0, 4)"><stop offset="0" stop-color="#008a97" stop-opacity="1"/><stop offset="1" stop-color="#00545c" stop-opacity="1"/></linearGradient></defs><path fill="url(#linear-pattern-0)" fill-opacity="1" d="M 36.21875 2.050781 L 62.027344 27.605469 C 64.402344 29.957031 64.417969 33.785156 62.058594 36.15625 L 36.460938 61.917969 C 34.105469 64.289062 30.269531 64.304688 27.894531 61.949219 L 2.085938 36.394531 C -0.289062 34.042969 -0.304688 30.214844 2.050781 27.84375 L 27.652344 2.082031 C 30.007812 -0.289062 33.84375 -0.304688 36.21875 2.050781 Z M 36.21875 2.050781 " /><g transform="matrix(1.0075098,0,0,1.0032698,16.221436,16.077397)"><path fill-rule="evenodd" fill="rgb(100%, 100%, 100%)" fill-opacity="1" d="M 1.882812 26.597656 C 1.902344 26.503906 1.921875 26.429688 1.976562 26.351562 C 2.164062 26.128906 2.371094 25.9375 2.617188 25.808594 C 3.539062 25.261719 4.535156 24.847656 5.589844 24.601562 C 7.117188 24.207031 8.679688 23.90625 10.242188 23.734375 C 12.160156 23.53125 14.078125 23.414062 16 23.4375 C 17.921875 23.414062 19.839844 23.53125 21.757812 23.734375 C 23.320312 23.90625 24.882812 24.207031 26.410156 24.601562 C 27.464844 24.847656 28.460938 25.261719 29.382812 25.808594 C 29.628906 25.9375 29.835938 26.128906 30.023438 26.351562 C 30.078125 26.429688 30.097656 26.503906 30.117188 26.597656 C 30.097656 26.671875 30.078125 26.765625 30.023438 26.824219 C 29.835938 27.050781 29.628906 27.238281 29.382812 27.390625 C 28.460938 27.933594 27.464844 28.328125 26.410156 28.574219 C 24.882812 28.988281 23.320312 29.269531 21.757812 29.4375 C 19.839844 29.648438 17.921875 29.757812 16 29.757812 C 14.078125 29.757812 12.160156 29.648438 10.242188 29.4375 C 8.679688 29.269531 7.117188 28.988281 5.589844 28.574219 C 4.535156 28.328125 3.539062 27.933594 2.617188 27.390625 C 2.371094 27.238281 2.164062 27.050781 1.976562 26.824219 C 1.921875 26.765625 1.902344 26.671875 1.882812 26.597656 Z M 1.882812 16 C 1.902344 15.90625 1.921875 15.828125 1.976562 15.757812 C 2.164062 15.546875 2.371094 15.359375 2.617188 15.210938 C 3.539062 14.664062 4.535156 14.25 5.589844 14.003906 C 7.117188 13.609375 8.679688 13.328125 10.242188 13.15625 C 12.160156 12.929688 14.078125 12.835938 16 12.835938 C 17.921875 12.835938 19.839844 12.929688 21.757812 13.15625 C 23.320312 13.328125 24.882812 13.609375 26.410156 14.003906 C 27.464844 14.25 28.460938 14.664062 29.382812 15.210938 C 29.628906 15.359375 29.835938 15.546875 30.023438 15.757812 C 30.078125 15.828125 30.097656 15.90625 30.117188 16 C 30.097656 16.09375 30.078125 16.171875 30.023438 16.242188 C 29.835938 16.453125 29.628906 16.640625 29.382812 16.789062 C 28.460938 17.335938 27.464844 17.75 26.410156 17.996094 C 24.882812 18.390625 23.320312 18.671875 21.757812 18.84375 C 19.839844 19.070312 17.921875 19.164062 16 19.164062 C 14.078125 19.164062 12.160156 19.070312 10.242188 18.84375 C 8.679688 18.671875 7.117188 18.390625 5.589844 17.996094 C 4.535156 17.75 3.539062 17.335938 2.617188 16.789062 C 2.371094 16.640625 2.164062 16.453125 1.976562 16.242188 C 1.921875 16.171875 1.902344 16.09375 1.882812 16 Z M 0 26.597656 C 0.015625 26.070312 0.1875 25.582031 0.507812 25.167969 C 0.828125 24.789062 1.203125 24.453125 1.640625 24.1875 C 2.730469 23.546875 3.898438 23.058594 5.117188 22.773438 C 6.738281 22.34375 8.375 22.042969 10.03125 21.871094 C 12.007812 21.648438 14.003906 21.53125 16 21.554688 C 17.996094 21.53125 19.992188 21.648438 21.96875 21.871094 C 23.625 22.042969 25.261719 22.34375 26.882812 22.773438 C 28.101562 23.058594 29.269531 23.546875 30.359375 24.1875 C 30.796875 24.453125 31.171875 24.789062 31.492188 25.167969 C 31.8125 25.582031 31.984375 26.070312 32 26.597656 C 31.984375 27.105469 31.8125 27.59375 31.492188 28.007812 C 31.171875 28.40625 30.796875 28.742188 30.359375 28.988281 C 29.269531 29.648438 28.101562 30.117188 26.882812 30.398438 C 25.261719 30.832031 23.625 31.132812 21.96875 31.304688 C 19.992188 31.53125 17.996094 31.640625 16 31.640625 C 14.003906 31.640625 12.007812 31.53125 10.03125 31.304688 C 8.375 31.132812 6.738281 30.832031 5.117188 30.398438 C 3.898438 30.117188 2.730469 29.648438 1.640625 28.988281 C 1.203125 28.742188 0.828125 28.40625 0.507812 28.007812 C 0.1875 27.59375 0.015625 27.105469 0 26.597656 Z M 0 16 C 0.015625 15.492188 0.1875 14.984375 0.507812 14.585938 C 0.828125 14.191406 1.203125 13.851562 1.640625 13.589844 C 2.730469 12.949219 3.898438 12.480469 5.117188 12.179688 C 6.738281 11.765625 8.375 11.464844 10.03125 11.273438 C 12.007812 11.070312 14.003906 10.953125 16 10.953125 C 17.996094 10.953125 19.992188 11.070312 21.96875 11.273438 C 23.625 11.464844 25.261719 11.765625 26.882812 12.179688 C 28.101562 12.480469 29.269531 12.949219 30.359375 13.589844 C 30.796875 13.851562 31.171875 14.191406 31.492188 14.585938 C 31.8125 14.984375 31.984375 15.492188 32 16 C 31.984375 16.507812 31.8125 17.015625 31.492188 17.414062 C 31.171875 17.808594 30.796875 18.148438 30.359375 18.410156 C 29.269531 19.050781 28.101562 19.519531 26.882812 19.820312 C 25.261719 20.234375 23.625 20.535156 21.96875 20.726562 C 19.992188 20.929688 17.996094 21.046875 16 21.046875 C 14.003906 21.046875 12.007812 20.929688 10.03125 20.726562 C 8.375 20.535156 6.738281 20.234375 5.117188 19.820312 C 3.898438 19.519531 2.730469 19.050781 1.640625 18.410156 C 1.203125 18.148438 0.828125 17.808594 0.507812 17.414062 C 0.1875 17.015625 0.015625 16.507812 0 16 Z M 1.882812 5.402344 C 1.902344 5.328125 1.921875 5.234375 1.976562 5.175781 C 2.164062 4.949219 2.371094 4.761719 2.617188 4.609375 C 3.539062 4.066406 4.535156 3.671875 5.589844 3.425781 C 7.117188 3.011719 8.679688 2.730469 10.242188 2.5625 C 12.160156 2.351562 14.078125 2.242188 16 2.242188 C 17.921875 2.242188 19.839844 2.351562 21.757812 2.5625 C 23.320312 2.730469 24.882812 3.011719 26.410156 3.425781 C 27.464844 3.671875 28.460938 4.066406 29.382812 4.609375 C 29.628906 4.761719 29.835938 4.949219 30.023438 5.175781 C 30.078125 5.234375 30.097656 5.328125 30.117188 5.402344 C 30.097656 5.496094 30.078125 5.570312 30.023438 5.648438 C 29.835938 5.871094 29.628906 6.0625 29.382812 6.191406 C 28.460938 6.738281 27.464844 7.152344 26.410156 7.398438 C 24.882812 7.792969 23.320312 8.09375 21.757812 8.265625 C 19.839844 8.46875 17.921875 8.585938 16 8.5625 C 14.078125 8.585938 12.160156 8.46875 10.242188 8.265625 C 8.679688 8.09375 7.117188 7.792969 5.589844 7.398438 C 4.535156 7.152344 3.539062 6.738281 2.617188 6.191406 C 2.371094 6.0625 2.164062 5.871094 1.976562 5.648438 C 1.921875 5.570312 1.902344 5.496094 1.882812 5.402344 Z M 0 5.402344 C 0.015625 4.894531 0.1875 4.386719 0.507812 3.992188 C 0.828125 3.59375 1.203125 3.257812 1.640625 3.011719 C 2.730469 2.351562 3.898438 1.882812 5.117188 1.601562 C 6.738281 1.167969 8.375 0.867188 10.03125 0.695312 C 12.007812 0.46875 14.003906 0.359375 16 0.359375 C 17.996094 0.359375 19.992188 0.46875 21.96875 0.695312 C 23.625 0.867188 25.261719 1.167969 26.882812 1.601562 C 28.101562 1.882812 29.269531 2.351562 30.359375 3.011719 C 30.796875 3.257812 31.171875 3.59375 31.492188 3.992188 C 31.8125 4.40625 31.984375 4.894531 32 5.402344 C 31.984375 5.929688 31.8125 6.417969 31.492188 6.832031 C 31.171875 7.210938 30.796875 7.546875 30.359375 7.8125 C 29.269531 8.453125 28.101562 8.941406 26.882812 9.226562 C 25.261719 9.65625 23.625 9.957031 21.96875 10.128906 C 19.992188 10.351562 17.996094 10.46875 16 10.445312 C 14.003906 10.46875 12.007812 10.351562 10.03125 10.128906 C 8.375 9.957031 6.738281 9.65625 5.117188 9.226562 C 3.898438 8.941406 2.730469 8.453125 1.640625 7.8125 C 1.203125 7.546875 0.828125 7.210938 0.507812 6.832031 C 0.1875 6.417969 0.015625 5.929688 0 5.402344 Z M 0 5.402344 "/></g></svg>
