<svg width="64" height="64" viewBox="0 0 64 64" version="1.1"><defs><linearGradient id="linear-pattern-0" gradientUnits="userSpaceOnUse" x1="0" y1="0" x2="0" y2="1" gradientTransform="matrix(60, 0, 0, 56, 0, 4)"><stop offset="0" stop-color="#00a07f" stop-opacity="1"/><stop offset="1" stop-color="#005241" stop-opacity="1"/></linearGradient></defs><path fill="url(#linear-pattern-0)" fill-opacity="1" d="M 36.21875 2.050781 L 62.027344 27.605469 C 64.402344 29.957031 64.417969 33.785156 62.058594 36.15625 L 36.460938 61.917969 C 34.105469 64.289062 30.269531 64.304688 27.894531 61.949219 L 2.085938 36.394531 C -0.289062 34.042969 -0.304688 30.214844 2.050781 27.84375 L 27.652344 2.082031 C 30.007812 -0.289062 33.84375 -0.304688 36.21875 2.050781 Z M 36.21875 2.050781 " /><g transform="matrix(1.0075098,0,0,1.0032698,16.221436,16.077397)"><path fill-rule="nonzero" fill="rgb(100%, 100%, 100%)" fill-opacity="1" d="M 7.988281 2 C 5.472656 2.03125 3.632812 1.9375 2.125 2.769531 C 1.375 3.1875 0.78125 3.890625 0.449219 4.765625 C 0.117188 5.640625 0 6.6875 0 8 L 0 24 C 0 25.3125 0.117188 26.359375 0.449219 27.234375 C 0.78125 28.109375 1.375 28.8125 2.125 29.230469 C 3.632812 30.0625 5.472656 29.96875 7.988281 30 L 24.011719 30 C 26.53125 29.96875 28.367188 30.0625 29.875 29.230469 C 30.628906 28.8125 31.222656 28.109375 31.550781 27.234375 C 31.882812 26.359375 32 25.3125 32 24 L 32 8 C 32 6.6875 31.882812 5.640625 31.550781 4.765625 C 31.21875 3.890625 30.625 3.1875 29.875 2.769531 C 28.367188 1.9375 26.527344 2.03125 24.011719 2 Z M 8 4 L 24 4 C 26.515625 4.03125 28.171875 4.117188 28.90625 4.523438 C 29.273438 4.726562 29.484375 4.949219 29.679688 5.46875 C 29.875 5.988281 30 6.8125 30 8 L 30 24 C 30 25.1875 29.875 26.011719 29.679688 26.53125 C 29.484375 27.050781 29.273438 27.273438 28.90625 27.476562 C 28.171875 27.882812 26.515625 27.96875 24 28 L 8 28 C 5.484375 27.96875 3.820312 27.882812 3.089844 27.476562 C 2.722656 27.273438 2.515625 27.050781 2.320312 26.53125 C 2.125 26.011719 2 25.1875 2 24 L 2 8 C 2 6.8125 2.125 5.988281 2.320312 5.46875 C 2.515625 4.949219 2.722656 4.726562 3.089844 4.523438 C 3.820312 4.117188 5.484375 4.03125 8 4 Z M 8 4 "/><path fill-rule="nonzero" fill="rgb(100%, 100%, 100%)" fill-opacity="1" d="M 6.316406 7.242188 C 5.890625 7.257812 5.523438 7.546875 5.398438 7.953125 C 5.277344 8.359375 5.425781 8.800781 5.769531 9.050781 L 8.703125 11.25 L 5.769531 13.449219 C 5.328125 13.78125 5.238281 14.410156 5.570312 14.851562 C 5.902344 15.292969 6.53125 15.382812 6.972656 15.050781 L 10.972656 12.050781 C 11.226562 11.859375 11.375 11.5625 11.375 11.25 C 11.375 10.9375 11.226562 10.640625 10.972656 10.449219 L 6.972656 7.449219 C 6.785156 7.304688 6.554688 7.230469 6.316406 7.242188 Z M 6.316406 7.242188 "/><path fill-rule="nonzero" fill="rgb(100%, 100%, 100%)" fill-opacity="1" d="M 13.125 13.25 L 17.644531 13.25 C 18.054688 13.25 18.386719 13.582031 18.386719 13.992188 L 18.386719 14.507812 C 18.386719 14.921875 18.054688 15.25 17.644531 15.25 L 13.125 15.25 C 12.71875 15.25 12.386719 14.921875 12.386719 14.507812 L 12.386719 13.992188 C 12.386719 13.582031 12.71875 13.25 13.125 13.25 Z M 13.125 13.25 "/></g></svg>
