<svg width="64" height="64" viewBox="0 0 64 64" version="1.1"><defs><linearGradient id="linear-pattern-0" gradientUnits="userSpaceOnUse" x1="0" y1="0" x2="0" y2="1" gradientTransform="matrix(60, 0, 0, 56, 0, 4)"><stop offset="0" stop-color="#8900e4" stop-opacity="1"/><stop offset="1" stop-color="#42006e" stop-opacity="1"/></linearGradient></defs><path fill="url(#linear-pattern-0)" fill-opacity="1" d="M 36.21875 2.050781 L 62.027344 27.605469 C 64.402344 29.957031 64.417969 33.785156 62.058594 36.15625 L 36.460938 61.917969 C 34.105469 64.289062 30.269531 64.304688 27.894531 61.949219 L 2.085938 36.394531 C -0.289062 34.042969 -0.304688 30.214844 2.050781 27.84375 L 27.652344 2.082031 C 30.007812 -0.289062 33.84375 -0.304688 36.21875 2.050781 Z M 36.21875 2.050781 " /><g transform="matrix(1.0075098,0,0,1.0032698,16.221436,16.077397)"><path fill-rule="nonzero" fill="rgb(100%, 100%, 100%)" fill-opacity="1" d="M 14.070312 19.96875 C 14.070312 21.375 13.578125 22.539062 12.59375 23.460938 C 11.617188 24.382812 10.222656 24.960938 8.410156 25.195312 L 8.410156 28.695312 L 6.511719 28.695312 L 6.511719 25.332031 C 5.414062 25.3125 4.359375 25.21875 3.34375 25.039062 C 2.34375 24.859375 1.515625 24.601562 0.855469 24.289062 L 0.855469 21.707031 C 1.578125 22.066406 2.464844 22.375 3.503906 22.640625 C 4.554688 22.898438 5.5625 23.035156 6.511719 23.054688 L 6.511719 16.480469 C 4.539062 15.820312 3.140625 15.039062 2.320312 14.148438 C 1.496094 13.242188 1.085938 12.09375 1.085938 10.6875 C 1.085938 9.335938 1.578125 8.226562 2.546875 7.355469 C 3.523438 6.484375 4.84375 5.953125 6.511719 5.757812 L 6.511719 2.992188 L 8.410156 2.992188 L 8.410156 5.726562 C 10.242188 5.78125 11.984375 6.167969 13.632812 6.894531 L 12.824219 9.0625 C 11.328125 8.4375 9.859375 8.066406 8.410156 7.957031 L 8.410156 14.4375 C 9.953125 14.992188 11.101562 15.515625 11.855469 16.007812 C 12.617188 16.5 13.179688 17.0625 13.53125 17.695312 C 13.890625 18.320312 14.070312 19.078125 14.070312 19.96875 M 11.433594 20.171875 C 11.433594 19.429688 11.207031 18.847656 10.753906 18.417969 C 10.304688 17.976562 9.519531 17.554688 8.410156 17.144531 L 8.410156 22.902344 C 10.429688 22.574219 11.433594 21.664062 11.433594 20.171875 M 3.734375 10.65625 C 3.734375 11.40625 3.945312 12.011719 4.359375 12.472656 C 4.773438 12.933594 5.492188 13.359375 6.511719 13.746094 L 6.511719 8.015625 C 5.609375 8.179688 4.917969 8.492188 4.445312 8.949219 C 3.976562 9.414062 3.734375 9.984375 3.734375 10.65625 "/><path fill-rule="nonzero" fill="rgb(100%, 100%, 100%)" fill-opacity="1" d="M 19.484375 12.300781 L 19.484375 14.5625 L 16.296875 14.5625 L 16.296875 16.820312 L 19.484375 16.820312 L 19.484375 23.597656 L 16.296875 23.597656 L 16.296875 25.859375 L 19.484375 25.859375 L 19.484375 28.117188 L 21.609375 28.117188 L 21.609375 25.859375 L 25.871094 25.859375 L 25.871094 28.117188 L 28 28.117188 L 28 25.859375 L 31.1875 25.859375 L 31.1875 23.597656 L 28 23.597656 L 28 16.820312 L 31.1875 16.820312 L 31.1875 14.5625 L 28 14.5625 L 28 12.300781 L 25.871094 12.300781 L 25.871094 14.5625 L 21.609375 14.5625 L 21.609375 12.300781 Z M 21.609375 16.820312 L 25.871094 16.820312 L 25.871094 23.597656 L 21.609375 23.597656 Z M 21.609375 16.820312 "/></g></svg>
