<svg width="64" height="64" viewBox="0 0 64 64" version="1.1"><defs><linearGradient id="linear-pattern-0" gradientUnits="userSpaceOnUse" x1="0" y1="0" x2="0" y2="1" gradientTransform="matrix(60, 0, 0, 56, 0, 4)"><stop offset="0" stop-color="#a67e50" stop-opacity="1"/><stop offset="1" stop-color="#644c30" stop-opacity="1"/></linearGradient></defs><path fill="url(#linear-pattern-0)" fill-opacity="1" d="M 36.21875 2.050781 L 62.027344 27.605469 C 64.402344 29.957031 64.417969 33.785156 62.058594 36.15625 L 36.460938 61.917969 C 34.105469 64.289062 30.269531 64.304688 27.894531 61.949219 L 2.085938 36.394531 C -0.289062 34.042969 -0.304688 30.214844 2.050781 27.84375 L 27.652344 2.082031 C 30.007812 -0.289062 33.84375 -0.304688 36.21875 2.050781 Z M 36.21875 2.050781 " /><g transform="matrix(1.0075098,0,0,1.0032698,16.221436,16.077397)"><path fill-rule="evenodd" fill="rgb(100%, 100%, 100%)" fill-opacity="1" d="M 24.101562 18.71875 C 24.101562 21.664062 21.457031 24.320312 20.054688 26.898438 C 18.367188 29.984375 18.746094 30.640625 15.335938 30.640625 C 9.089844 30.640625 7.023438 24.859375 7.023438 18.386719 C 7.023438 15.007812 7.1875 10.851562 9.390625 8.710938 C 11.414062 6.746094 14.828125 6.25 17.820312 6.25 C 21.136719 6.25 22.765625 8.703125 23.734375 10.234375 C 24.59375 11.589844 24.101562 15.679688 24.101562 18.71875 Z M 30.859375 12.675781 C 30.859375 20.167969 22.203125 32 14.65625 32 C 7.113281 32 0.652344 20.175781 1.171875 12.148438 C 1.523438 6.691406 8.140625 -0.128906 12 0 C 13.292969 0.132812 10.960938 1.460938 12.515625 1.027344 C 13.691406 0.699219 14.933594 0.523438 16.21875 0.523438 C 23.761719 0.523438 30.859375 5.1875 30.859375 12.675781 Z M 11.742188 14.898438 L 12.046875 15.007812 C 12.304688 15.109375 12.578125 15.015625 12.65625 14.804688 C 12.734375 14.585938 12.585938 14.335938 12.328125 14.238281 L 9.445312 13.148438 C 9.1875 13.054688 8.910156 13.144531 8.832031 13.359375 C 8.75 13.570312 8.902344 13.824219 9.164062 13.921875 L 10.515625 14.429688 C 10.171875 14.890625 9.9375 15.820312 9.9375 16.890625 C 9.9375 18.414062 10.414062 19.652344 11.003906 19.652344 C 11.59375 19.652344 12.070312 18.414062 12.070312 16.890625 C 12.070312 16.105469 11.945312 15.398438 11.742188 14.898438 Z M 18.320312 12.613281 L 21.4375 11.105469 C 21.722656 10.96875 22.03125 11.03125 22.128906 11.25 C 22.226562 11.464844 22.078125 11.75 21.796875 11.882812 L 18.679688 13.390625 C 18.398438 13.527344 18.085938 13.464844 17.992188 13.25 C 17.890625 13.03125 18.039062 12.75 18.320312 12.613281 Z M 18.605469 16.25 C 18.5 14.648438 18.921875 13.34375 19.546875 13.335938 C 20.171875 13.332031 20.765625 14.625 20.875 16.226562 C 20.980469 17.828125 20.554688 19.132812 19.929688 19.140625 C 19.304688 19.148438 18.710938 17.851562 18.605469 16.25 Z M 17.445312 19.503906 C 17.90625 20.058594 19.117188 20.34375 19.386719 21.152344 C 19.625 21.867188 19.335938 22.75 18.890625 23.359375 C 18.632812 23.707031 18.195312 23.992188 17.765625 24.015625 C 17.109375 24.050781 16.148438 23.84375 15.953125 23.214844 C 15.90625 23.046875 16.0625 22.816406 16.234375 22.765625 C 16.648438 22.640625 16.992188 23.429688 17.40625 23.3125 C 18.148438 23.105469 18.828125 22.164062 18.703125 21.402344 C 18.585938 20.695312 17.320312 20.738281 17 20.097656 C 16.75 19.609375 16.4375 18.566406 16.96875 18.464844 C 17.105469 18.765625 17.246094 19.25 17.445312 19.503906 Z M 13.148438 26.945312 L 17.664062 27.433594 C 18.066406 27.476562 18.339844 27.660156 18.273438 27.84375 C 18.210938 28.023438 17.832031 28.136719 17.429688 28.09375 L 12.914062 27.609375 C 12.515625 27.5625 12.242188 27.382812 12.304688 27.195312 C 12.371094 27.015625 12.75 26.90625 13.148438 26.945312 Z M 13.148438 26.945312 "/></g></svg>
