<svg width="64" height="64" viewBox="0 0 64 64" version="1.1"><defs><linearGradient id="linear-pattern-0" gradientUnits="userSpaceOnUse" x1="0" y1="0" x2="0" y2="1" gradientTransform="matrix(60, 0, 0, 56, 0, 4)"><stop offset="0" stop-color="#00a07f" stop-opacity="1"/><stop offset="1" stop-color="#005241" stop-opacity="1"/></linearGradient></defs><path fill="url(#linear-pattern-0)" fill-opacity="1" d="M 36.21875 2.050781 L 62.027344 27.605469 C 64.402344 29.957031 64.417969 33.785156 62.058594 36.15625 L 36.460938 61.917969 C 34.105469 64.289062 30.269531 64.304688 27.894531 61.949219 L 2.085938 36.394531 C -0.289062 34.042969 -0.304688 30.214844 2.050781 27.84375 L 27.652344 2.082031 C 30.007812 -0.289062 33.84375 -0.304688 36.21875 2.050781 Z M 36.21875 2.050781 " /><g transform="matrix(1.0075098,0,0,1.0032698,16.221436,16.077397)"><path fill-rule="nonzero" fill="rgb(100%, 100%, 100%)" fill-opacity="1" stroke-width="4.473" stroke-linecap="butt" stroke-linejoin="miter" stroke="rgb(100%, 100%, 100%)" stroke-opacity="1" stroke-miterlimit="4" d="M 256.685984 164.714138 C 255.687316 165.116217 255.168009 166.176243 255.407689 167.236269 L 256.526198 171.257056 C 256.805825 172.390187 257.96428 173.084687 259.082788 172.755713 C 263.676661 171.549477 266.592771 170.89153 268.709947 170.964635 C 270.787177 171.074293 272.185312 171.73224 274.502222 173.632976 C 274.542168 173.632976 274.542168 173.632976 274.542168 173.669529 L 318.283827 211.318721 L 301.146684 260.189567 C 297.072119 271.55743 287.325119 274.262323 284.209275 275.066481 C 283.05082 275.395454 282.371726 276.565138 282.691299 277.698269 L 283.769861 281.719057 C 283.929648 282.303898 284.329115 282.779082 284.848422 283.071503 C 285.36773 283.327372 286.006877 283.400477 286.566131 283.144609 C 288.40368 282.523214 291.120057 281.755609 293.716594 281.024557 C 294.635369 290.674447 294.675315 298.204286 291.958938 303.796836 C 288.962934 309.937675 282.731246 314.470199 269.468935 318.052355 L 246.299837 324.229747 C 244.662022 324.668378 243.46362 324.960799 242.704632 324.997352 C 241.905698 325.070457 241.705964 324.997352 241.626071 324.960799 C 241.546177 324.887694 241.386391 324.778036 241.106764 324.156642 C 240.827137 323.535247 240.507563 322.438669 240.148042 321.013117 L 228.164026 276.382375 L 241.865751 272.727113 C 249.455628 270.643614 253.290513 271.118798 255.76721 273.09264 C 258.243907 275.103033 259.961616 279.489347 261.839111 286.470896 C 262.118738 287.604027 263.31714 288.298527 264.435648 287.969554 L 267.152025 287.238501 C 268.270533 286.94608 268.949628 285.776397 268.630054 284.643266 L 257.005558 241.182207 C 256.685984 240.085629 255.567476 239.391129 254.409021 239.720103 L 251.692644 240.414602 C 250.574136 240.707023 249.895042 241.876707 250.214616 243.009838 C 252.052165 249.88173 252.731259 254.523912 251.572804 257.411568 C 250.414349 260.335777 247.298505 262.528934 239.668682 264.57588 L 225.966957 268.267695 L 215.460969 228.900529 C 215.061502 227.51153 214.821822 226.488056 214.741928 225.830109 C 214.701982 225.13561 214.741928 224.989399 214.781875 224.916294 C 214.821822 224.843189 214.981609 224.660426 215.70065 224.331452 C 216.379744 224.002479 217.578145 223.6004 219.215961 223.161769 L 242.025538 217.057482 C 254.688648 213.658089 261.679324 214.389141 266.712611 218.080955 C 271.745898 221.772769 275.221263 229.046739 279.335775 239.756655 C 279.735242 240.780129 280.85375 241.328418 281.892365 240.999444 L 284.888369 240.231839 C 285.48757 240.085629 286.006877 239.646998 286.206611 239.135261 C 286.486238 238.586972 286.566131 237.965577 286.366398 237.417288 L 272.464939 201.559173 C 272.025525 200.5357 270.946964 199.950858 269.868402 200.279832 L 199.042867 219.214086 L 187.298531 185.622234 C 186.939011 184.525655 185.820503 183.940813 184.741941 184.233234 L 88.310559 210.075933 C 87.231997 210.331801 86.552903 211.391827 86.752637 212.524958 L 93.823206 250.210703 C 93.943046 250.795545 94.302567 251.307281 94.781927 251.599702 C 95.301235 251.928676 95.900436 252.001781 96.499636 251.855571 L 99.455694 251.087966 C 100.534255 250.795545 101.253296 249.735519 101.013616 248.638941 C 98.417079 234.566184 97.618145 226.488056 100.014948 221.626559 C 101.213349 219.214086 103.170739 217.349903 106.56621 215.522272 C 110.001628 213.767747 114.795234 212.122879 121.226656 210.404906 L 130.094828 208.028986 C 131.333176 207.882776 131.173389 207.919328 131.453017 208.321407 C 131.732644 208.723486 132.172058 210.002827 132.691365 211.940116 L 157.058864 302.846468 C 157.458331 304.345125 157.698012 305.478256 157.698012 306.172756 C 157.698012 306.867255 157.658065 307.123123 157.178704 307.63486 C 156.299877 308.585228 153.024245 310.15699 146.073516 312.021174 L 141.359803 313.337068 C 140.241295 313.592936 139.522254 314.799172 139.841828 315.932304 L 140.920389 319.953091 C 141.080176 320.50138 141.439697 320.976564 141.959004 321.268985 C 142.438365 321.524854 143.037565 321.597959 143.596819 321.451748 C 151.586164 319.148934 159.815188 316.773014 168.004266 314.543304 C 176.11345 312.3867 184.542208 310.303201 192.571498 308.292807 C 193.130753 308.183149 193.65006 307.817623 193.929687 307.342439 C 194.209314 306.79415 194.289207 306.245861 194.129421 305.697572 L 193.050859 301.676784 C 192.771232 300.5071 191.612777 299.849153 190.454322 300.141574 L 185.780556 301.420916 C 178.949667 303.211994 175.434356 303.504415 174.15606 303.065783 C 173.55686 302.88302 173.357126 302.73681 173.037552 302.115415 C 172.678032 301.494021 172.318511 300.36089 171.919044 298.862233 L 147.591492 207.955881 C 147.072184 206.091698 146.832504 204.812356 146.832504 204.30062 C 146.912397 203.788883 146.832504 203.75233 147.751278 203.277146 L 156.49961 200.901226 C 162.811192 199.256359 167.644745 198.269438 171.47963 198.123228 C 175.274569 197.977017 177.911052 198.598412 180.148069 200.023964 C 184.342474 202.801962 187.618105 209.491091 191.852458 221.151375 L 185.341142 222.9059 C 184.182687 223.234874 183.503593 224.368005 183.823167 225.501136 L 185.061515 230.106765 C 185.341142 231.276449 186.499597 231.897843 187.618105 231.641975 C 193.570167 230.03366 197.005584 229.33916 198.283879 229.595029 C 198.88308 229.704686 199.042867 229.814344 199.442334 230.362634 C 199.841802 230.984028 200.321162 232.117159 200.800523 233.94479 L 224.928342 324.046984 C 225.407703 325.838062 225.647383 327.117404 225.567489 327.848456 C 225.487596 328.542955 225.447649 328.725719 224.928342 329.127797 C 223.969621 329.968507 220.654043 331.065086 214.741928 332.636848 C 213.62342 332.965822 212.944326 334.098953 213.223953 335.268636 L 214.262568 339.325977 C 214.622088 340.422555 215.780543 341.117055 216.938998 340.824634 L 303.823114 317.540619 C 304.821782 317.248198 305.500877 316.261277 305.34109 315.201251 L 300.986897 278.977611 C 305.540823 277.771374 312.970913 275.797533 316.885692 275.029928 C 317.484893 274.956823 317.964253 274.591297 318.283827 274.116113 C 318.603401 273.604376 318.683294 272.982982 318.563454 272.39814 L 317.484893 268.377352 C 317.205266 267.317327 316.166651 266.659379 315.088089 266.80559 C 312.851073 267.207669 311.572778 266.732485 310.733897 266.184196 C 309.855069 265.526248 309.335762 264.648986 309.056135 263.662065 C 308.616721 262.017197 308.936295 261.35925 309.455602 259.933698 C 309.455602 259.933698 309.455602 259.897146 309.455602 259.897146 L 324.715249 216.691956 L 362.82442 249.552756 C 362.82442 249.625861 362.864367 249.625861 362.864367 249.625861 C 363.703248 250.320361 364.062768 250.758992 364.182609 250.86865 C 364.302449 251.051413 364.182609 250.832098 364.262502 251.051413 C 364.182609 250.795545 364.582076 253.24457 359.508842 254.92599 C 358.430281 255.328069 357.83108 256.4612 358.110707 257.521226 L 359.189269 261.578566 C 359.349055 262.126855 359.748523 262.602039 360.26783 262.857908 C 360.787137 263.113776 361.386338 263.186881 361.905646 263.004118 C 367.058772 261.286145 375.207903 259.092988 380.720551 257.630884 C 385.034797 256.4612 393.423608 254.231491 397.338386 253.536991 C 397.937587 253.390781 398.456895 253.061807 398.736522 252.586623 C 399.056095 252.074886 399.175936 251.453492 399.016149 250.86865 L 397.937587 246.847863 C 397.618013 245.714732 396.459559 245.020232 395.34105 245.349205 C 390.028137 246.774757 387.032133 247.286494 385.194583 247.140283 C 383.357034 246.994073 382.278473 246.263021 380.081403 244.43539 L 330.108056 201.559173 L 344.728556 160.583693 C 346.286478 156.380142 348.683281 148.923409 361.626019 145.3047 C 362.744527 144.975727 363.383674 143.842596 363.0641 142.709464 L 361.985539 138.652124 C 361.825752 138.103835 361.466232 137.592098 360.906978 137.33623 C 360.38767 137.080362 359.748523 137.043809 359.229215 137.226572 C 355.673957 138.505914 349.282482 140.223887 345.28781 141.283913 C 339.775163 142.78257 332.944273 144.6102 328.829761 145.341253 C 328.270507 145.487463 327.791146 145.816437 327.471573 146.328173 C 327.112052 146.83991 327.032159 147.424752 327.191946 147.973041 L 328.270507 151.993829 C 328.550134 153.053854 329.588749 153.748354 330.707257 153.565591 C 333.024167 153.163512 334.262515 153.602144 335.101396 154.223538 C 335.940277 154.80838 336.419638 155.758748 336.699265 156.782221 C 337.098732 158.207773 336.819105 159.121588 336.100064 161.058877 L 323.636688 196.039729 L 291.599418 168.51561 C 290.880377 167.857663 290.440963 167.382479 290.281176 167.163163 C 290.081443 166.9804 290.201283 167.090058 290.201283 167.053506 C 290.241229 167.236269 290.081443 164.60448 294.875049 163.178928 C 295.993557 162.849955 296.632705 161.680271 296.313131 160.583693 L 295.234569 156.526353 C 295.114729 155.978063 294.675315 155.502879 294.195955 155.210459 C 293.676647 154.991143 293.077447 154.918038 292.518193 155.100801 C 287.365066 156.818774 279.175988 159.01193 273.703287 160.474035 C 269.389042 161.643719 260.960284 163.873428 257.085452 164.60448 C 256.965612 164.641033 256.805825 164.677586 256.685984 164.714138 Z M 256.685984 164.714138 " transform="matrix(0.0977865, 0, 0, 0.106867, -7.807456, -9.297736)"/></g></svg>
