<svg width="64" height="64" viewBox="0 0 64 64" version="1.1"><defs><linearGradient id="linear-pattern-0" gradientUnits="userSpaceOnUse" x1="0" y1="0" x2="0" y2="1" gradientTransform="matrix(60, 0, 0, 56, 0, 4)"><stop offset="0" stop-color="#a67e50" stop-opacity="1"/><stop offset="1" stop-color="#644c30" stop-opacity="1"/></linearGradient></defs><path fill="url(#linear-pattern-0)" fill-opacity="1" d="M 36.21875 2.050781 L 62.027344 27.605469 C 64.402344 29.957031 64.417969 33.785156 62.058594 36.15625 L 36.460938 61.917969 C 34.105469 64.289062 30.269531 64.304688 27.894531 61.949219 L 2.085938 36.394531 C -0.289062 34.042969 -0.304688 30.214844 2.050781 27.84375 L 27.652344 2.082031 C 30.007812 -0.289062 33.84375 -0.304688 36.21875 2.050781 Z M 36.21875 2.050781 " /><g transform="matrix(1.0075098,0,0,1.0032698,16.221436,16.077397)"><path fill-rule="nonzero" fill="rgb(100%, 100%, 100%)" fill-opacity="1" d="M 17.125 12.789062 L 13.515625 13.804688 C 13.023438 13.945312 12.726562 14.484375 12.859375 15.003906 L 13.828125 18.792969 C 13.960938 19.3125 14.46875 19.625 14.960938 19.484375 L 18.574219 18.46875 C 19.070312 18.328125 19.359375 17.792969 19.226562 17.273438 L 18.261719 13.484375 C 18.132812 12.964844 17.621094 12.652344 17.125 12.789062 "/><path fill-rule="nonzero" fill="rgb(100%, 100%, 100%)" fill-opacity="1" d="M 10.984375 14.296875 L 2.574219 12.515625 C 2.40625 12.476562 2.257812 12.496094 2.148438 12.546875 C 1.546875 12.640625 0.5625 13.066406 0.984375 14.859375 C 1.585938 17.378906 0.296875 17.578125 0.953125 20.136719 C 1.605469 22.695312 2.808594 22.1875 3.496094 24.6875 C 4.015625 26.585938 5.1875 26.273438 5.714844 26.023438 C 5.796875 26 5.875 25.960938 5.960938 25.894531 L 12.589844 20.734375 C 13 20.414062 13.335938 19.695312 13.203125 19.175781 L 12.238281 15.40625 C 12.109375 14.886719 11.484375 14.40625 10.984375 14.296875 "/><path fill-rule="nonzero" fill="rgb(100%, 100%, 100%)" fill-opacity="1" d="M 28.476562 7.121094 C 27.992188 5.34375 26.941406 5.5 26.375 5.726562 C 26.253906 5.742188 26.117188 5.804688 25.992188 5.921875 L 19.554688 11.886719 C 19.171875 12.242188 18.859375 12.984375 18.992188 13.507812 L 19.953125 17.277344 C 20.085938 17.796875 20.710938 18.242188 21.222656 18.304688 L 29.421875 19.289062 C 29.527344 19.304688 29.617188 19.296875 29.699219 19.273438 C 30.273438 19.21875 31.4375 18.875 30.984375 16.945312 C 30.386719 14.429688 31.675781 14.234375 31.019531 11.671875 C 30.367188 9.109375 29.164062 9.617188 28.476562 7.121094 "/></g></svg>
