<svg width="64" height="64" viewBox="0 0 64 64" version="1.1"><defs><linearGradient id="linear-pattern-0" gradientUnits="userSpaceOnUse" x1="0" y1="0" x2="0" y2="1" gradientTransform="matrix(60, 0, 0, 56, 0, 4)"><stop offset="0" stop-color="#00983a" stop-opacity="1"/><stop offset="1" stop-color="#004a1c" stop-opacity="1"/></linearGradient></defs><path fill="url(#linear-pattern-0)" fill-opacity="1" d="M 36.21875 2.050781 L 62.027344 27.605469 C 64.402344 29.957031 64.417969 33.785156 62.058594 36.15625 L 36.460938 61.917969 C 34.105469 64.289062 30.269531 64.304688 27.894531 61.949219 L 2.085938 36.394531 C -0.289062 34.042969 -0.304688 30.214844 2.050781 27.84375 L 27.652344 2.082031 C 30.007812 -0.289062 33.84375 -0.304688 36.21875 2.050781 Z M 36.21875 2.050781 " /><g transform="matrix(1.0075098,0,0,1.0032698,16.221436,16.077397)"><path fill-rule="nonzero" fill="rgb(100%, 100%, 100%)" fill-opacity="1" d="M 5.5 1.28125 C 3.523438 1.28125 1.21875 2.648438 1.21875 6.519531 C 1.21875 7.6875 1.84375 9.4375 2.898438 10.617188 C 2.960938 10.53125 3.03125 10.449219 3.078125 10.382812 C 3.851562 7.085938 5.351562 4.59375 7.398438 3.0625 C 7.257812 2.875 7.109375 2.703125 7.019531 2.578125 C 6.46875 1.828125 6.070312 1.28125 5.5 1.28125 Z M 26.5625 1.28125 C 25.992188 1.28125 25.605469 1.808594 25.0625 2.539062 C 24.957031 2.679688 24.804688 2.875 24.640625 3.078125 C 26.671875 4.617188 28.152344 7.105469 28.921875 10.382812 C 28.980469 10.460938 29.046875 10.554688 29.117188 10.660156 C 30.195312 9.476562 30.839844 7.703125 30.839844 6.519531 C 30.839844 2.648438 28.539062 1.28125 26.5625 1.28125 Z M 12.921875 2.5625 C 8.578125 2.5625 5.429688 5.601562 4.261719 10.921875 C 4.117188 11.109375 3.839844 11.507812 3.480469 12.078125 C 3.660156 12.351562 3.898438 12.671875 4.140625 12.960938 C 4.140625 12.960938 5.265625 14.164062 7.21875 14.742188 C 7.5625 14.839844 7.757812 15.199219 7.660156 15.539062 C 7.578125 15.8125 7.328125 16 7.039062 16 C 6.980469 16 6.917969 15.996094 6.859375 15.980469 C 4.535156 15.296875 3.234375 13.859375 3.179688 13.800781 C 3.058594 13.65625 2.902344 13.488281 2.757812 13.300781 C 2.511719 13.765625 2.277344 14.242188 2.0625 14.71875 C 2.34375 15.140625 2.65625 15.515625 2.820312 15.679688 C 2.835938 15.695312 2.847656 15.703125 2.859375 15.71875 C 2.875 15.734375 4.351562 17.507812 7.859375 18.578125 C 8.195312 18.679688 8.40625 19.042969 8.300781 19.382812 C 8.21875 19.65625 7.953125 19.839844 7.679688 19.839844 C 7.617188 19.839844 7.5625 19.839844 7.5 19.820312 C 3.78125 18.6875 2.117188 16.820312 1.898438 16.5625 C 1.835938 16.492188 1.671875 16.3125 1.480469 16.078125 C 1.222656 16.742188 0.992188 17.414062 0.800781 18.101562 C 1.019531 18.46875 1.273438 18.820312 1.5625 19.140625 C 1.585938 19.164062 2.996094 20.664062 5.980469 21.800781 C 6.3125 21.921875 6.484375 22.289062 6.359375 22.617188 C 6.265625 22.867188 6.027344 23.035156 5.757812 23.039062 C 5.683594 23.039062 5.609375 23.023438 5.539062 23 C 2.28125 21.757812 0.726562 20.132812 0.617188 20.019531 C 0.609375 20.007812 0.523438 19.910156 0.398438 19.757812 C 0.140625 21.050781 0.00390625 22.363281 0 23.679688 C 0 23.875 0.0859375 24.0625 0.242188 24.179688 C 1.625 25.273438 5.671875 26.335938 9 26.800781 C 8.96875 26.5 8.960938 26.304688 8.960938 26.28125 L 8.960938 26.242188 C 8.960938 20.851562 11.25 16.519531 12.382812 14.71875 C 11.96875 14.828125 11.539062 14.804688 11.140625 14.660156 C 8.453125 13.765625 8.960938 10.882812 8.960938 10.882812 L 13.820312 13.757812 C 13.84375 13.777344 13.878906 13.796875 13.898438 13.820312 C 14.140625 14.0625 14.140625 14.445312 13.921875 14.699219 C 13.796875 14.867188 10.246094 19.828125 10.242188 26.21875 C 10.25 26.335938 10.28125 26.960938 10.398438 27.679688 C 10.785156 27.800781 11.203125 27.902344 11.578125 27.980469 C 11.589844 27.984375 11.609375 28 11.617188 28 C 11.632812 28 11.632812 28 11.640625 28 C 12.078125 28.125 13.320312 28.0625 14.257812 27.359375 C 14.984375 26.8125 15.359375 26.011719 15.359375 24.960938 C 15.359375 24.605469 15.648438 24.320312 16 24.320312 C 16.351562 24.320312 16.640625 24.605469 16.640625 24.960938 C 16.640625 26.011719 17.015625 26.820312 17.742188 27.359375 C 18.640625 28.035156 19.820312 28.101562 20.300781 28 C 20.320312 27.992188 20.335938 27.984375 20.359375 27.980469 C 20.757812 27.898438 21.195312 27.789062 21.601562 27.660156 C 21.710938 26.957031 21.75 26.347656 21.757812 26.21875 C 21.753906 19.75 18.117188 14.742188 18.078125 14.699219 C 17.828125 14.449219 17.851562 14.050781 18.101562 13.800781 C 18.171875 13.734375 18.265625 13.683594 18.359375 13.660156 L 23.039062 10.882812 C 23.039062 10.882812 23.546875 13.765625 20.859375 14.660156 C 20.460938 14.804688 20.03125 14.828125 19.617188 14.71875 C 20.75 16.519531 23.039062 20.851562 23.039062 26.242188 L 23.039062 26.28125 C 23.039062 26.304688 23.03125 26.5 23 26.800781 C 26.328125 26.335938 30.375 25.273438 31.757812 24.179688 C 31.914062 24.058594 32 23.875 32 23.679688 C 32 22.351562 31.867188 21.023438 31.601562 19.71875 C 31.46875 19.890625 31.359375 20 31.339844 20.019531 C 31.273438 20.089844 29.722656 21.746094 26.421875 23 C 26.351562 23.027344 26.273438 23.042969 26.199219 23.039062 C 25.941406 23.039062 25.695312 22.875 25.601562 22.617188 C 25.539062 22.464844 25.539062 22.289062 25.609375 22.132812 C 25.675781 21.980469 25.804688 21.859375 25.960938 21.800781 C 28.957031 20.660156 30.386719 19.15625 30.398438 19.140625 C 30.40625 19.132812 30.800781 18.710938 31.179688 18.0625 C 30.976562 17.351562 30.761719 16.664062 30.519531 16.039062 C 30.3125 16.289062 30.132812 16.488281 30.0625 16.5625 C 29.839844 16.820312 28.179688 18.683594 24.460938 19.820312 C 24.398438 19.839844 24.34375 19.839844 24.28125 19.839844 C 24.003906 19.839844 23.746094 19.65625 23.660156 19.382812 C 23.554688 19.046875 23.742188 18.6875 24.078125 18.578125 C 27.625 17.5 29.066406 15.738281 29.078125 15.71875 C 29.09375 15.703125 29.125 15.695312 29.140625 15.679688 C 29.367188 15.445312 29.664062 15.070312 29.921875 14.679688 C 29.703125 14.195312 29.46875 13.726562 29.21875 13.257812 C 29.070312 13.453125 28.925781 13.652344 28.800781 13.800781 C 28.734375 13.875 27.421875 15.296875 25.101562 15.980469 C 25.042969 15.996094 24.980469 16 24.921875 16 C 24.640625 16 24.382812 15.820312 24.300781 15.539062 C 24.203125 15.195312 24.398438 14.839844 24.742188 14.742188 C 26.699219 14.164062 27.828125 12.953125 27.839844 12.9375 C 28.085938 12.648438 28.320312 12.335938 28.5 12.0625 C 28.148438 11.507812 27.882812 11.105469 27.742188 10.921875 C 26.570312 5.601562 23.421875 2.5625 19.078125 2.5625 C 17.578125 2.5625 16.742188 2.796875 16 3.039062 C 15.257812 2.796875 14.421875 2.5625 12.921875 2.5625 Z M 12.160156 5.117188 C 13.21875 5.117188 14.585938 5.273438 16 6.300781 C 17.414062 5.273438 18.78125 5.117188 19.839844 5.117188 C 20.195312 5.117188 20.480469 5.40625 20.480469 5.757812 C 20.480469 6.113281 20.195312 6.398438 19.839844 6.398438 C 18.421875 6.398438 17.402344 6.765625 16.421875 7.601562 C 16.390625 7.628906 16.355469 7.640625 16.320312 7.660156 C 16.296875 7.671875 16.265625 7.6875 16.242188 7.699219 C 16.164062 7.730469 16.082031 7.742188 16 7.742188 C 15.917969 7.742188 15.835938 7.730469 15.757812 7.699219 C 15.734375 7.6875 15.703125 7.671875 15.679688 7.660156 C 15.644531 7.640625 15.609375 7.628906 15.578125 7.601562 C 14.597656 6.765625 13.578125 6.398438 12.160156 6.398438 C 11.808594 6.398438 11.519531 6.109375 11.519531 5.757812 C 11.519531 5.40625 11.808594 5.117188 12.160156 5.117188 Z M 9.601562 7.039062 C 10.703125 7.039062 14.148438 7.210938 16 9.242188 C 17.851562 7.210938 21.296875 7.039062 22.398438 7.039062 C 22.753906 7.039062 23.039062 7.328125 23.039062 7.679688 C 23.039062 8.03125 22.753906 8.320312 22.398438 8.320312 C 21.347656 8.320312 17.828125 8.476562 16.5625 10.617188 C 16.554688 10.632812 16.527344 10.648438 16.519531 10.660156 C 16.507812 10.675781 16.492188 10.6875 16.480469 10.699219 C 16.4375 10.757812 16.398438 10.804688 16.339844 10.839844 C 16.335938 10.84375 16.328125 10.859375 16.320312 10.859375 C 16.28125 10.882812 16.257812 10.890625 16.21875 10.898438 L 16.160156 10.921875 C 16.117188 10.929688 16.078125 10.9375 16.039062 10.9375 L 16 10.9375 C 15.984375 10.9375 15.976562 10.941406 15.960938 10.9375 C 15.921875 10.9375 15.882812 10.929688 15.839844 10.921875 C 15.820312 10.914062 15.796875 10.90625 15.78125 10.898438 C 15.742188 10.890625 15.710938 10.882812 15.679688 10.859375 C 15.671875 10.859375 15.664062 10.84375 15.660156 10.839844 C 15.601562 10.804688 15.546875 10.757812 15.5 10.699219 C 15.488281 10.683594 15.492188 10.671875 15.480469 10.660156 C 15.472656 10.648438 15.445312 10.632812 15.4375 10.617188 C 14.179688 8.476562 10.652344 8.320312 9.601562 8.320312 C 9.25 8.320312 8.960938 8.03125 8.960938 7.679688 C 8.960938 7.328125 9.25 7.039062 9.601562 7.039062 Z M 16 18.5625 C 17.921875 18.574219 19.839844 18.9375 19.839844 19.640625 L 19.839844 20.28125 C 19.839844 20.601562 19.398438 21.046875 18.757812 21.5625 C 18.757812 21.496094 18.742188 21.5 18.679688 21.4375 C 18.359375 21.117188 17.851562 21.0625 17.601562 21.320312 C 17.34375 21.578125 17.40625 22.019531 17.660156 22.339844 C 17.003906 22.722656 16.128906 23.050781 16 23.140625 C 15.875 23.046875 15 22.71875 14.398438 22.28125 C 14.59375 21.960938 14.65625 21.578125 14.398438 21.320312 C 14.148438 21.0625 13.640625 21.117188 13.320312 21.4375 L 13.320312 21.5 C 12.679688 20.988281 12.160156 20.601562 12.160156 20.601562 L 12.160156 19.578125 C 12.160156 18.878906 14.078125 18.546875 16 18.5625 Z M 16 27.339844 C 15.75 27.75 15.421875 28.109375 15.039062 28.398438 C 14.121094 29.085938 12.996094 29.320312 12.140625 29.320312 C 11.835938 29.320312 11.578125 29.296875 11.359375 29.242188 C 11.351562 29.238281 11.328125 29.242188 11.320312 29.242188 C 11.257812 29.226562 11.179688 29.207031 11.0625 29.179688 C 12.109375 30.078125 13.589844 30.71875 16 30.71875 C 18.425781 30.71875 19.910156 30.070312 20.960938 29.160156 C 20.882812 29.179688 20.820312 29.1875 20.757812 29.199219 C 20.75 29.203125 20.734375 29.21875 20.71875 29.21875 C 20.5 29.285156 20.195312 29.320312 19.859375 29.320312 C 19.003906 29.320312 17.878906 29.085938 16.960938 28.398438 C 16.578125 28.109375 16.253906 27.75 16 27.339844 Z M 16 27.339844 "/></g></svg>
