<svg width="64" height="64" viewBox="0 0 64 64" version="1.1"><defs><linearGradient id="linear-pattern-0" gradientUnits="userSpaceOnUse" x1="0" y1="0" x2="0" y2="1" gradientTransform="matrix(60, 0, 0, 56, 0, 4)"><stop offset="0" stop-color="#8900e4" stop-opacity="1"/><stop offset="1" stop-color="#42006e" stop-opacity="1"/></linearGradient></defs><path fill="url(#linear-pattern-0)" fill-opacity="1" d="M 36.21875 2.050781 L 62.027344 27.605469 C 64.402344 29.957031 64.417969 33.785156 62.058594 36.15625 L 36.460938 61.917969 C 34.105469 64.289062 30.269531 64.304688 27.894531 61.949219 L 2.085938 36.394531 C -0.289062 34.042969 -0.304688 30.214844 2.050781 27.84375 L 27.652344 2.082031 C 30.007812 -0.289062 33.84375 -0.304688 36.21875 2.050781 Z M 36.21875 2.050781 " /><g transform="matrix(1.0075098,0,0,1.0032698,16.221436,16.077397)"><path fill-rule="evenodd" fill="rgb(100%, 100%, 100%)" fill-opacity="1" d="M 11.429688 23.429688 C 11.429688 22.484375 12.195312 21.714844 13.144531 21.714844 C 14.089844 21.714844 14.859375 22.484375 14.859375 23.429688 C 14.859375 24.375 14.089844 25.140625 13.144531 25.140625 C 12.195312 25.140625 11.429688 24.375 11.429688 23.429688 Z M 3.429688 17.996094 C 3.386719 14.6875 3.953125 11.539062 5.109375 8.648438 C 6.5625 4.984375 8.679688 1.25 12.429688 0.238281 C 13.289062 0.015625 15.890625 -0.0820312 16.054688 0.0820312 C 16.09375 0.121094 15.78125 0.539062 15.351562 1.007812 C 14.4375 2.011719 13.128906 3.359375 12.804688 4.640625 C 12.5 5.8125 12.507812 6.148438 12.835938 6.359375 C 13.554688 6.828125 19.5 7.167969 20.246094 6.757812 C 20.398438 6.679688 20.890625 6.398438 21.34375 5.945312 C 22.386719 4.902344 24.257812 3.757812 25.640625 3.542969 C 26.632812 3.390625 28.492188 3.515625 28.570312 3.75 C 28.59375 3.828125 28.265625 4.136719 27.84375 4.4375 C 26.988281 5.046875 26 5.875 25.71875 6.46875 C 25.546875 6.828125 25.554688 6.9375 25.832031 8 C 26.265625 9.671875 26.4375 11.988281 26.261719 14.03125 C 26.070312 16.253906 25.449219 20.40625 24.964844 22.691406 C 23.742188 28.46875 21.507812 31.242188 18.257812 31.921875 C 17.476562 32.085938 15.3125 31.9375 15.3125 31.9375 C 7.539062 31.507812 3.578125 24.859375 3.429688 17.996094 Z M 20.570312 24.570312 C 20.570312 23.625 21.339844 22.859375 22.285156 22.859375 C 23.234375 22.859375 24 23.625 24 24.570312 C 24 25.515625 23.234375 26.285156 22.285156 26.285156 C 21.339844 26.285156 20.570312 25.515625 20.570312 24.570312 Z M 20.570312 24.570312 "/></g></svg>
