<svg width="64" height="64" viewBox="0 0 64 64" version="1.1"><defs><linearGradient id="linear-pattern-0" gradientUnits="userSpaceOnUse" x1="0" y1="0" x2="0" y2="1" gradientTransform="matrix(60, 0, 0, 56, 0, 4)"><stop offset="0" stop-color="#00983a" stop-opacity="1"/><stop offset="1" stop-color="#004a1c" stop-opacity="1"/></linearGradient></defs><path fill="url(#linear-pattern-0)" fill-opacity="1" d="M 36.21875 2.050781 L 62.027344 27.605469 C 64.402344 29.957031 64.417969 33.785156 62.058594 36.15625 L 36.460938 61.917969 C 34.105469 64.289062 30.269531 64.304688 27.894531 61.949219 L 2.085938 36.394531 C -0.289062 34.042969 -0.304688 30.214844 2.050781 27.84375 L 27.652344 2.082031 C 30.007812 -0.289062 33.84375 -0.304688 36.21875 2.050781 Z M 36.21875 2.050781 " /><g transform="matrix(1.0075098,0,0,1.0032698,16.221436,16.077397)"><path fill-rule="nonzero" fill="rgb(100%, 100%, 100%)" fill-opacity="1" d="M 16.132812 1.1875 C 7.601562 1.1875 1.59375 8.28125 1.59375 15.96875 C 1.59375 23.65625 7.601562 30.75 16.132812 30.75 C 24.664062 30.75 30.671875 23.65625 30.671875 15.96875 C 30.671875 8.28125 24.664062 1.1875 16.132812 1.1875 Z M 12.484375 4.144531 C 14.195312 4.144531 15.164062 5.59375 15.164062 7.59375 L 15.164062 10.054688 C 15.164062 11.148438 14.515625 12.027344 13.710938 12.027344 C 12.90625 12.027344 12.257812 11.148438 12.257812 10.054688 C 12.257812 8.96875 11.386719 8.085938 10.316406 8.085938 C 9.246094 8.085938 8.375 8.96875 8.375 10.054688 C 8.375 11.148438 9.246094 12.027344 10.316406 12.027344 C 11.390625 12.027344 12.257812 12.6875 12.257812 13.507812 C 12.257812 14.324219 11.390625 14.984375 10.316406 14.984375 L 7.890625 14.984375 C 5.46875 14.984375 3.945312 13.351562 4.742188 11.042969 C 5.890625 7.703125 8.359375 5.460938 11.285156 4.390625 C 11.710938 4.234375 12.113281 4.144531 12.484375 4.144531 Z M 19.78125 4.144531 C 20.152344 4.144531 20.554688 4.234375 20.980469 4.390625 C 23.90625 5.460938 26.375 7.703125 27.523438 11.042969 C 28.320312 13.351562 26.796875 14.984375 24.375 14.984375 L 21.949219 14.984375 C 20.875 14.984375 20.007812 14.324219 20.007812 13.507812 C 20.007812 12.6875 20.875 12.027344 21.949219 12.027344 C 23.019531 12.027344 23.890625 11.148438 23.890625 10.054688 C 23.890625 8.96875 23.019531 8.085938 21.949219 8.085938 C 20.878906 8.085938 20.007812 8.96875 20.007812 10.054688 C 20.007812 11.148438 19.359375 12.027344 18.554688 12.027344 C 17.75 12.027344 17.101562 11.148438 17.101562 10.054688 L 17.101562 7.59375 C 17.101562 5.59375 18.070312 4.144531 19.78125 4.144531 Z M 7.890625 16.953125 L 10.316406 16.953125 C 11.390625 16.953125 12.253906 17.613281 12.253906 18.433594 C 12.253906 19.25 11.390625 19.910156 10.316406 19.910156 C 9.242188 19.910156 8.375 20.792969 8.375 21.882812 C 8.375 22.96875 9.242188 23.851562 10.316406 23.851562 C 11.386719 23.851562 12.253906 22.96875 12.253906 21.882812 C 12.253906 20.789062 12.902344 19.910156 13.710938 19.910156 C 14.515625 19.910156 15.164062 20.789062 15.164062 21.882812 L 15.164062 24.34375 C 15.164062 26.347656 14.195312 27.796875 12.484375 27.796875 C 12.113281 27.796875 11.710938 27.703125 11.285156 27.546875 C 8.359375 26.476562 5.890625 24.234375 4.742188 20.898438 C 3.945312 18.585938 5.46875 16.953125 7.890625 16.953125 Z M 21.949219 16.953125 L 24.375 16.953125 C 26.796875 16.953125 28.320312 18.585938 27.523438 20.898438 C 26.375 24.234375 23.90625 26.476562 20.980469 27.546875 C 20.554688 27.703125 20.152344 27.796875 19.78125 27.796875 C 18.070312 27.796875 17.101562 26.347656 17.101562 24.34375 L 17.101562 21.882812 C 17.101562 20.789062 17.75 19.910156 18.554688 19.910156 C 19.359375 19.910156 20.007812 20.789062 20.007812 21.882812 C 20.007812 22.96875 20.878906 23.851562 21.949219 23.851562 C 23.019531 23.851562 23.890625 22.96875 23.890625 21.882812 C 23.890625 20.792969 23.019531 19.910156 21.949219 19.910156 C 20.875 19.910156 20.007812 19.25 20.007812 18.433594 C 20.007812 17.613281 20.875 16.953125 21.949219 16.953125 Z M 21.949219 16.953125 "/></g></svg>
