<svg width="64" height="64" viewBox="0 0 64 64" version="1.1"><defs><linearGradient id="linear-pattern-0" gradientUnits="userSpaceOnUse" x1="0" y1="0" x2="0" y2="1" gradientTransform="matrix(60, 0, 0, 56, 0, 4)"><stop offset="0" stop-color="#c10000" stop-opacity="1"/><stop offset="1" stop-color="#5f0000" stop-opacity="1"/></linearGradient></defs><path fill="url(#linear-pattern-0)" fill-opacity="1" d="M 36.21875 2.050781 L 62.027344 27.605469 C 64.402344 29.957031 64.417969 33.785156 62.058594 36.15625 L 36.460938 61.917969 C 34.105469 64.289062 30.269531 64.304688 27.894531 61.949219 L 2.085938 36.394531 C -0.289062 34.042969 -0.304688 30.214844 2.050781 27.84375 L 27.652344 2.082031 C 30.007812 -0.289062 33.84375 -0.304688 36.21875 2.050781 Z M 36.21875 2.050781 " /><g transform="matrix(1.0075098,0,0,1.0032698,16.221436,16.077397)"><path fill-rule="evenodd" fill="rgb(100%, 100%, 100%)" fill-opacity="1" d="M 4.292969 0 L 4.292969 9.523438 C 4.292969 8.429688 6.984375 6.242188 8.664062 6.242188 L 13.65625 6.242188 L 13.65625 25.757812 L 11.320312 28.878906 L 20.679688 28.878906 L 18.34375 25.757812 L 18.34375 11.320312 C 19.246094 4.929688 21.507812 3.476562 26.089844 2.34375 L 6.148438 2.34375 Z M 0.390625 11.707031 L 11.320312 11.707031 L 8.976562 14.828125 L 8.976562 28.722656 L 11.320312 32 L 0.390625 32 L 2.734375 28.722656 L 2.734375 14.828125 Z M 20.679688 11.707031 L 31.609375 11.707031 L 29.265625 14.828125 L 29.265625 28.722656 L 31.609375 32 L 20.679688 32 L 23.023438 28.722656 L 23.023438 14.828125 Z M 20.679688 11.707031 "/></g></svg>
