<svg width="64" height="64" viewBox="0 0 64 64" version="1.1"><defs><linearGradient id="linear-pattern-0" gradientUnits="userSpaceOnUse" x1="0" y1="0" x2="0" y2="1" gradientTransform="matrix(60, 0, 0, 56, 0, 4)"><stop offset="0" stop-color="#3067ff" stop-opacity="1"/><stop offset="1" stop-color="#002ca6" stop-opacity="1"/></linearGradient></defs><path fill="url(#linear-pattern-0)" fill-opacity="1" d="M 36.21875 2.050781 L 62.027344 27.605469 C 64.402344 29.957031 64.417969 33.785156 62.058594 36.15625 L 36.460938 61.917969 C 34.105469 64.289062 30.269531 64.304688 27.894531 61.949219 L 2.085938 36.394531 C -0.289062 34.042969 -0.304688 30.214844 2.050781 27.84375 L 27.652344 2.082031 C 30.007812 -0.289062 33.84375 -0.304688 36.21875 2.050781 Z M 36.21875 2.050781 " /><g transform="matrix(1.0075098,0,0,1.0032698,16.221436,16.077397)"><path fill-rule="nonzero" fill="rgb(100%, 100%, 100%)" fill-opacity="1" d="M 2.636719 0.84375 C 1.574219 0.84375 0.710938 1.703125 0.710938 2.765625 L 0.710938 8.046875 L 31.539062 8.046875 L 31.539062 2.765625 C 31.539062 1.703125 30.679688 0.84375 29.609375 0.84375 Z M 2.636719 2.515625 L 4.566406 2.515625 L 6.492188 6.367188 L 2.636719 6.367188 Z M 8.421875 2.515625 L 12.273438 2.515625 L 14.199219 6.367188 L 10.34375 6.367188 Z M 16.125 2.515625 L 19.976562 2.515625 L 21.90625 6.367188 L 18.050781 6.367188 Z M 23.828125 2.515625 L 27.6875 2.515625 L 29.609375 4.441406 L 29.609375 6.367188 L 25.757812 6.367188 Z M 23.828125 2.515625 "/><path fill-rule="nonzero" fill="rgb(100%, 100%, 100%)" fill-opacity="1" d="M 0.710938 10.179688 L 0.710938 29.71875 C 0.710938 30.789062 1.574219 31.648438 2.636719 31.648438 L 29.609375 31.648438 C 30.679688 31.648438 31.539062 30.789062 31.539062 29.71875 L 31.539062 10.179688 L 0.710938 10.179688 M 11.402344 15.007812 C 11.609375 15.007812 11.832031 15.078125 12.070312 15.191406 L 22.109375 20.207031 C 23.054688 20.683594 23.054688 21.457031 22.109375 21.929688 L 12.070312 26.945312 C 11.117188 27.421875 10.34375 26.941406 10.34375 25.882812 L 10.34375 16.257812 C 10.34375 15.460938 10.785156 14.992188 11.402344 15.007812 "/></g></svg>
