<svg width="64" height="64" viewBox="0 0 64 64" version="1.1"><defs><linearGradient id="linear-pattern-0" gradientUnits="userSpaceOnUse" x1="0" y1="0" x2="0" y2="1" gradientTransform="matrix(60, 0, 0, 56, 0, 4)"><stop offset="0" stop-color="#a67e50" stop-opacity="1"/><stop offset="1" stop-color="#644c30" stop-opacity="1"/></linearGradient></defs><path fill="url(#linear-pattern-0)" fill-opacity="1" d="M 36.21875 2.050781 L 62.027344 27.605469 C 64.402344 29.957031 64.417969 33.785156 62.058594 36.15625 L 36.460938 61.917969 C 34.105469 64.289062 30.269531 64.304688 27.894531 61.949219 L 2.085938 36.394531 C -0.289062 34.042969 -0.304688 30.214844 2.050781 27.84375 L 27.652344 2.082031 C 30.007812 -0.289062 33.84375 -0.304688 36.21875 2.050781 Z M 36.21875 2.050781 " /><g transform="matrix(1.0075098,0,0,1.0032698,16.221436,16.077397)"><path fill-rule="nonzero" fill="rgb(100%, 100%, 100%)" fill-opacity="1" d="M 0.984375 2.015625 L 0.984375 9.09375 L 3.449219 9.09375 L 3.449219 27.96875 L 8.382812 27.96875 L 8.382812 25.609375 L 5.917969 25.609375 L 5.917969 18.53125 L 8.382812 18.53125 L 8.382812 16.171875 L 5.917969 16.171875 L 5.917969 9.09375 L 8.382812 9.09375 L 8.382812 2.015625 Z M 10.851562 13.8125 L 10.851562 20.890625 L 18.257812 20.890625 L 18.257812 13.8125 Z M 20.722656 16.171875 L 20.722656 18.53125 L 30.59375 18.53125 L 30.59375 16.171875 Z M 10.855469 23.25 L 10.855469 30.328125 L 18.257812 30.328125 L 18.257812 23.25 Z M 20.722656 25.609375 L 20.722656 27.96875 L 30.59375 27.96875 L 30.59375 25.609375 Z M 20.722656 25.609375 "/></g></svg>
