<svg width="64" height="64" viewBox="0 0 64 64" version="1.1"><defs><linearGradient id="linear-pattern-0" gradientUnits="userSpaceOnUse" x1="0" y1="0" x2="0" y2="1" gradientTransform="matrix(60, 0, 0, 56, 0, 4)"><stop offset="0" stop-color="#3067ff" stop-opacity="1"/><stop offset="1" stop-color="#002ca6" stop-opacity="1"/></linearGradient></defs><path fill="url(#linear-pattern-0)" fill-opacity="1" d="M 36.21875 2.050781 L 62.027344 27.605469 C 64.402344 29.957031 64.417969 33.785156 62.058594 36.15625 L 36.460938 61.917969 C 34.105469 64.289062 30.269531 64.304688 27.894531 61.949219 L 2.085938 36.394531 C -0.289062 34.042969 -0.304688 30.214844 2.050781 27.84375 L 27.652344 2.082031 C 30.007812 -0.289062 33.84375 -0.304688 36.21875 2.050781 Z M 36.21875 2.050781 " /><g transform="matrix(1.0075098,0,0,1.0032698,16.221436,16.077397)"><path fill-rule="nonzero" fill="rgb(100%, 100%, 100%)" fill-opacity="1" d="M 6.535156 3.320312 C 5.863281 3.320312 5.320312 4.042969 5.320312 4.9375 C 5.320312 5.835938 5.863281 6.5625 6.535156 6.5625 L 8.960938 6.5625 L 8.960938 17.898438 C 8.960938 18.796875 9.507812 19.515625 10.179688 19.515625 C 10.851562 19.515625 11.390625 18.796875 11.390625 17.898438 L 11.390625 6.5625 L 12.824219 6.5625 C 12.582031 7.464844 12.539062 8.46875 12.730469 9.445312 C 13.15625 11.5625 14.613281 13.039062 16.25 13.039062 C 16.804688 13.039062 17.28125 13.523438 17.425781 14.234375 C 17.570312 14.953125 17.339844 15.6875 16.859375 16.050781 C 16.375 16.421875 15.785156 16.320312 15.390625 15.796875 C 14.914062 15.164062 14.152344 15.164062 13.679688 15.796875 C 13.203125 16.429688 13.203125 17.445312 13.679688 18.078125 C 14.257812 18.851562 15 19.320312 15.777344 19.460938 C 16.554688 19.59375 17.355469 19.398438 18.070312 18.851562 C 19.492188 17.757812 20.195312 15.5 19.773438 13.375 C 19.347656 11.257812 17.890625 9.78125 16.25 9.78125 C 15.695312 9.78125 15.222656 9.296875 15.078125 8.582031 C 14.933594 7.867188 15.164062 7.132812 15.644531 6.765625 C 16.125 6.398438 16.71875 6.5 17.113281 7.023438 C 17.585938 7.65625 18.351562 7.65625 18.824219 7.023438 C 19.296875 6.390625 19.296875 5.375 18.824219 4.742188 C 18.242188 3.96875 17.5 3.5 16.726562 3.359375 C 16.566406 3.332031 16.25 3.3125 16.25 3.3125 Z M 6.535156 3.320312 "/><path fill-rule="nonzero" fill="rgb(100%, 100%, 100%)" fill-opacity="1" d="M 24.75 2.203125 C 24.109375 2.203125 23.601562 2.832031 23.601562 3.613281 L 23.601562 5.019531 C 23.601562 5.800781 24.109375 6.429688 24.75 6.429688 C 25.382812 6.429688 25.894531 5.800781 25.894531 5.019531 L 25.894531 3.613281 C 25.894531 2.832031 25.382812 2.203125 24.75 2.203125 Z M 24.75 9.242188 C 24.109375 9.242188 23.601562 9.871094 23.601562 10.648438 L 23.601562 12.058594 C 23.601562 12.835938 24.109375 13.46875 24.75 13.46875 C 25.382812 13.46875 25.894531 12.835938 25.894531 12.058594 L 25.894531 10.648438 C 25.894531 9.871094 25.382812 9.242188 24.75 9.242188 Z M 24.75 16.28125 C 24.109375 16.28125 23.601562 16.910156 23.601562 17.6875 L 23.601562 19.097656 C 23.601562 19.875 24.109375 20.507812 24.75 20.507812 C 25.382812 20.507812 25.894531 19.875 25.894531 19.097656 L 25.894531 17.6875 C 25.894531 16.910156 25.382812 16.28125 24.75 16.28125 Z M 8.6875 21.914062 C 8.054688 21.914062 7.542969 22.539062 7.542969 23.320312 C 7.542969 24.101562 8.054688 24.726562 8.6875 24.726562 L 9.835938 24.726562 C 10.472656 24.726562 10.984375 24.101562 10.984375 23.320312 C 10.984375 22.539062 10.472656 21.914062 9.835938 21.914062 Z M 14.425781 21.914062 C 13.789062 21.914062 13.277344 22.539062 13.277344 23.320312 C 13.277344 24.101562 13.789062 24.726562 14.425781 24.726562 L 15.570312 24.726562 C 16.207031 24.726562 16.71875 24.101562 16.71875 23.320312 C 16.71875 22.539062 16.207031 21.914062 15.570312 21.914062 Z M 20.160156 21.914062 C 19.523438 21.914062 19.015625 22.539062 19.015625 23.320312 C 19.015625 24.101562 19.523438 24.726562 20.160156 24.726562 L 21.304688 24.726562 C 21.941406 24.726562 22.453125 24.101562 22.453125 23.320312 C 22.453125 22.539062 21.941406 21.914062 21.304688 21.914062 Z M 28.1875 21.914062 C 27.554688 21.914062 27.039062 22.539062 27.039062 23.320312 C 27.039062 24.101562 27.554688 24.726562 28.1875 24.726562 L 29.335938 24.726562 C 29.96875 24.726562 30.484375 24.101562 30.484375 23.320312 C 30.484375 22.539062 29.96875 21.914062 29.335938 21.914062 Z M 24.75 26.132812 C 24.109375 26.132812 23.601562 26.765625 23.601562 27.542969 L 23.601562 28.953125 C 23.601562 29.730469 24.109375 30.359375 24.75 30.359375 C 25.382812 30.359375 25.894531 29.730469 25.894531 28.953125 L 25.894531 27.542969 C 25.894531 26.765625 25.382812 26.132812 24.75 26.132812 Z M 24.75 26.132812 "/></g></svg>
