<svg width="64" height="64" viewBox="0 0 64 64" version="1.1"><defs><linearGradient id="linear-pattern-0" gradientUnits="userSpaceOnUse" x1="0" y1="0" x2="0" y2="1" gradientTransform="matrix(60, 0, 0, 56, 0, 4)"><stop offset="0" stop-color="#c10000" stop-opacity="1"/><stop offset="1" stop-color="#5f0000" stop-opacity="1"/></linearGradient></defs><path fill="url(#linear-pattern-0)" fill-opacity="1" d="M 36.21875 2.050781 L 62.027344 27.605469 C 64.402344 29.957031 64.417969 33.785156 62.058594 36.15625 L 36.460938 61.917969 C 34.105469 64.289062 30.269531 64.304688 27.894531 61.949219 L 2.085938 36.394531 C -0.289062 34.042969 -0.304688 30.214844 2.050781 27.84375 L 27.652344 2.082031 C 30.007812 -0.289062 33.84375 -0.304688 36.21875 2.050781 Z M 36.21875 2.050781 " /><g transform="matrix(1.0075098,0,0,1.0032698,16.221436,16.077397)"><path fill-rule="nonzero" fill="rgb(100%, 100%, 100%)" fill-opacity="1" d="M 20.902344 29.296875 C 15.632812 27.851562 11.613281 22.382812 12.742188 18.203125 C 12.960938 17.390625 13.066406 17.28125 13.617188 17.28125 C 13.960938 17.28125 14.382812 17.226562 14.554688 17.164062 C 14.8125 17.0625 14.890625 17.390625 14.96875 18.949219 C 15.039062 20.375 15.1875 21.101562 15.558594 21.8125 C 16.574219 23.777344 19.132812 25.671875 21.839844 26.46875 C 25.914062 27.664062 29.523438 25.5625 29.492188 22.015625 C 29.476562 20.53125 28.820312 18.992188 27.585938 17.546875 C 26.523438 16.304688 26.273438 16.398438 26.976562 17.773438 C 28.457031 20.644531 27.074219 23.398438 24.148438 23.414062 C 20.96875 23.425781 18.101562 21.203125 17.792969 18.476562 C 17.699219 17.640625 17.78125 17.328125 18.351562 16.414062 C 18.71875 15.820312 18.9375 15.335938 18.835938 15.335938 C 18.734375 15.335938 17.507812 15.53125 16.117188 15.765625 C 11.890625 16.492188 9.742188 16.296875 6.804688 14.921875 C 2.070312 12.710938 -0.15625 8.410156 1.59375 4.835938 C 2.683594 2.609375 4.84375 1.5 8.109375 1.484375 C 12.304688 1.464844 15.226562 2.9375 16.472656 5.699219 C 16.875 6.59375 16.960938 7.136719 16.9375 8.835938 C 16.929688 9.96875 16.78125 11.335938 16.617188 11.867188 C 16.351562 12.730469 16.234375 12.851562 15.625 12.914062 L 14.9375 12.980469 L 15.257812 12.210938 C 15.433594 11.789062 15.71875 10.84375 15.890625 10.109375 L 16.199219 8.78125 L 15.496094 9.546875 C 14.242188 10.917969 12.058594 11.105469 9.953125 10.03125 C 6 8.007812 5.910156 3.382812 9.800781 2.234375 L 10.703125 1.96875 L 9.976562 1.808594 C 9.117188 1.617188 7.535156 1.828125 6.484375 2.265625 C 4.03125 3.289062 3.191406 6.09375 4.535156 8.78125 C 5.371094 10.453125 6.757812 11.726562 8.71875 12.628906 C 10.90625 13.632812 12.09375 13.820312 17.570312 14.03125 C 22.628906 14.226562 22.984375 14.28125 24.890625 15.195312 C 29.753906 17.515625 32.25 22.585938 30.375 26.335938 C 29.648438 27.789062 28.40625 28.816406 26.785156 29.296875 C 25.429688 29.703125 22.371094 29.703125 20.902344 29.296875 Z M 25.164062 19.898438 C 26.023438 19.574219 26.402344 19.042969 26.402344 18.164062 C 26.402344 15.976562 23.40625 14.199219 21.4375 15.21875 C 19.25 16.351562 21.289062 19.976562 24.167969 20.082031 C 24.429688 20.09375 24.875 20.007812 25.164062 19.898438 Z M 15.15625 7.125 C 15.867188 6.414062 15.960938 5.683594 15.472656 4.738281 C 14.320312 2.507812 10.898438 1.882812 10.015625 3.738281 C 9.578125 4.652344 9.742188 5.351562 10.648438 6.375 C 11.492188 7.335938 12.34375 7.734375 13.585938 7.746094 C 14.34375 7.753906 14.648438 7.632812 15.15625 7.125 Z M 15.15625 7.125 "/></g></svg>
