<svg width="64" height="64" viewBox="0 0 64 64" version="1.1"><defs><linearGradient id="linear-pattern-0" gradientUnits="userSpaceOnUse" x1="0" y1="0" x2="0" y2="1" gradientTransform="matrix(60, 0, 0, 56, 0, 4)"><stop offset="0" stop-color="#8900e4" stop-opacity="1"/><stop offset="1" stop-color="#42006e" stop-opacity="1"/></linearGradient></defs><path fill="url(#linear-pattern-0)" fill-opacity="1" d="M 36.21875 2.050781 L 62.027344 27.605469 C 64.402344 29.957031 64.417969 33.785156 62.058594 36.15625 L 36.460938 61.917969 C 34.105469 64.289062 30.269531 64.304688 27.894531 61.949219 L 2.085938 36.394531 C -0.289062 34.042969 -0.304688 30.214844 2.050781 27.84375 L 27.652344 2.082031 C 30.007812 -0.289062 33.84375 -0.304688 36.21875 2.050781 Z M 36.21875 2.050781 " /><g transform="matrix(1.0075098,0,0,1.0032698,16.221436,16.077397)"><path fill-rule="nonzero" fill="rgb(100%, 100%, 100%)" fill-opacity="1" d="M 28.332031 1.710938 C 26.671875 1.695312 21.945312 2.15625 18.628906 7.613281 C 16.757812 10.671875 18.234375 13.789062 19.75 14.617188 L 22.964844 9.347656 C 24.714844 6.476562 27.179688 4.628906 27.179688 4.628906 C 27.179688 4.628906 26.730469 7.578125 24.984375 10.453125 L 21.773438 15.722656 C 23.289062 16.550781 26.980469 16.019531 28.734375 13.148438 C 32.820312 6.441406 28.929688 1.765625 28.929688 1.765625 C 28.929688 1.765625 28.710938 1.738281 28.328125 1.734375 Z M 13.035156 10.550781 C 4.859375 10.550781 2.527344 16.078125 2.527344 16.078125 C 2.527344 16.078125 4.859375 21.601562 13.035156 21.601562 C 16.757812 21.601562 18.875 18.835938 18.875 17.179688 L 12.453125 17.179688 C 8.949219 17.179688 6.03125 16.078125 6.03125 16.078125 C 6.03125 16.078125 8.949219 14.96875 12.453125 14.96875 L 18.875 14.96875 C 18.875 13.3125 16.539062 10.550781 13.035156 10.550781 Z M 23.203125 16.078125 C 22.617188 16.097656 22.105469 16.21875 21.722656 16.425781 L 24.933594 21.695312 C 26.6875 24.570312 27.128906 27.519531 27.128906 27.519531 C 27.128906 27.519531 24.664062 25.671875 22.914062 22.800781 L 19.703125 17.53125 C 18.1875 18.359375 16.710938 21.476562 18.578125 24.535156 C 22.664062 31.242188 28.875 30.390625 28.875 30.390625 C 28.875 30.390625 32.765625 25.707031 28.679688 19.011719 C 27.371094 16.859375 24.964844 16.015625 23.203125 16.085938 Z M 23.203125 16.078125 "/></g></svg>
