<svg width="64" height="64" viewBox="0 0 64 64" version="1.1"><defs><linearGradient id="linear-pattern-0" gradientUnits="userSpaceOnUse" x1="0" y1="0" x2="0" y2="1" gradientTransform="matrix(60, 0, 0, 56, 0, 4)"><stop offset="0" stop-color="#6926fc" stop-opacity="1"/><stop offset="1" stop-color="#3702ab" stop-opacity="1"/></linearGradient></defs><path fill="url(#linear-pattern-0)" fill-opacity="1" d="M 36.21875 2.050781 L 62.027344 27.605469 C 64.402344 29.957031 64.417969 33.785156 62.058594 36.15625 L 36.460938 61.917969 C 34.105469 64.289062 30.269531 64.304688 27.894531 61.949219 L 2.085938 36.394531 C -0.289062 34.042969 -0.304688 30.214844 2.050781 27.84375 L 27.652344 2.082031 C 30.007812 -0.289062 33.84375 -0.304688 36.21875 2.050781 Z M 36.21875 2.050781 " /><g transform="matrix(1.0075098,0,0,1.0032698,16.221436,16.077397)"><path fill-rule="evenodd" fill="rgb(100%, 100%, 100%)" fill-opacity="1" d="M 11.757812 1.609375 C 10.804688 1.609375 10.039062 2.375 10.039062 3.320312 C 10.039062 4.265625 10.804688 5.03125 11.757812 5.03125 C 12.703125 5.03125 13.476562 4.265625 13.476562 3.320312 C 13.476562 2.375 12.703125 1.609375 11.757812 1.609375 M 16.027344 1.609375 C 15.078125 1.609375 14.304688 2.375 14.304688 3.320312 C 14.304688 4.265625 15.078125 5.03125 16.027344 5.03125 C 16.976562 5.03125 17.746094 4.265625 17.746094 3.320312 C 17.746094 2.375 16.976562 1.609375 16.027344 1.609375 M 20.296875 1.609375 C 19.351562 1.609375 18.578125 2.375 18.578125 3.320312 C 18.578125 4.265625 19.351562 5.03125 20.296875 5.03125 C 21.25 5.03125 22.019531 4.265625 22.019531 3.320312 C 22.019531 2.375 21.25 1.609375 20.296875 1.609375 M 7.484375 5.859375 C 6.53125 5.859375 5.765625 6.628906 5.765625 7.578125 C 5.765625 8.519531 6.53125 9.285156 7.484375 9.285156 C 8.429688 9.285156 9.203125 8.519531 9.203125 7.578125 C 9.203125 6.628906 8.429688 5.859375 7.484375 5.859375 M 24.570312 5.859375 C 23.621094 5.859375 22.851562 6.628906 22.851562 7.578125 C 22.851562 8.519531 23.621094 9.285156 24.570312 9.285156 C 25.519531 9.285156 26.289062 8.519531 26.289062 7.578125 C 26.289062 6.628906 25.519531 5.859375 24.570312 5.859375 M 11.757812 10.070312 C 10.804688 10.070312 10.039062 10.835938 10.039062 11.785156 C 10.039062 12.730469 10.804688 13.496094 11.757812 13.496094 C 12.703125 13.496094 13.476562 12.730469 13.476562 11.785156 C 13.476562 10.835938 12.703125 10.070312 11.757812 10.070312 M 16.027344 10.070312 C 15.078125 10.070312 14.304688 10.835938 14.304688 11.785156 C 14.304688 12.730469 15.078125 13.496094 16.027344 13.496094 C 16.976562 13.496094 17.746094 12.730469 17.746094 11.785156 C 17.746094 10.835938 16.976562 10.070312 16.027344 10.070312 M 20.296875 10.070312 C 19.351562 10.070312 18.578125 10.835938 18.578125 11.785156 C 18.578125 12.730469 19.351562 13.496094 20.296875 13.496094 C 21.25 13.496094 22.019531 12.730469 22.019531 11.785156 C 22.019531 10.835938 21.25 10.070312 20.296875 10.070312 M 16.027344 14.371094 C 15.078125 14.371094 14.304688 15.136719 14.304688 16.078125 C 14.304688 17.027344 15.078125 17.796875 16.027344 17.796875 C 16.976562 17.796875 17.746094 17.027344 17.746094 16.078125 C 17.746094 15.136719 16.976562 14.371094 16.027344 14.371094 M 16.027344 18.625 C 15.078125 18.625 14.304688 19.390625 14.304688 20.339844 C 14.304688 21.28125 15.078125 22.050781 16.027344 22.050781 C 16.976562 22.050781 17.746094 21.28125 17.746094 20.339844 C 17.746094 19.390625 16.976562 18.625 16.027344 18.625 M 15.9375 22.886719 C 15.03125 22.929688 14.304688 23.679688 14.304688 24.597656 C 14.304688 25.546875 15.078125 26.3125 16.027344 26.3125 C 16.976562 26.3125 17.746094 25.546875 17.746094 24.597656 C 17.746094 23.65625 16.976562 22.886719 16.027344 22.886719 C 16 22.886719 15.96875 22.886719 15.9375 22.886719 M 11.757812 27.132812 C 10.808594 27.132812 10.039062 27.898438 10.039062 28.84375 C 10.039062 29.789062 10.808594 30.558594 11.757812 30.558594 C 12.703125 30.558594 13.476562 29.789062 13.476562 28.84375 C 13.476562 27.898438 12.703125 27.132812 11.757812 27.132812 M 16.027344 27.140625 C 15.078125 27.140625 14.304688 27.90625 14.304688 28.851562 C 14.304688 29.796875 15.078125 30.5625 16.027344 30.5625 C 16.976562 30.5625 17.746094 29.796875 17.746094 28.851562 C 17.746094 27.90625 16.976562 27.140625 16.027344 27.140625 "/></g></svg>
