<svg width="64" height="64" viewBox="0 0 64 64" version="1.1"><defs><linearGradient id="linear-pattern-0" gradientUnits="userSpaceOnUse" x1="0" y1="0" x2="0" y2="1" gradientTransform="matrix(60, 0, 0, 56, 0, 4)"><stop offset="0" stop-color="#c10000" stop-opacity="1"/><stop offset="1" stop-color="#5f0000" stop-opacity="1"/></linearGradient></defs><path fill="url(#linear-pattern-0)" fill-opacity="1" d="M 36.21875 2.050781 L 62.027344 27.605469 C 64.402344 29.957031 64.417969 33.785156 62.058594 36.15625 L 36.460938 61.917969 C 34.105469 64.289062 30.269531 64.304688 27.894531 61.949219 L 2.085938 36.394531 C -0.289062 34.042969 -0.304688 30.214844 2.050781 27.84375 L 27.652344 2.082031 C 30.007812 -0.289062 33.84375 -0.304688 36.21875 2.050781 Z M 36.21875 2.050781 " /><g transform="matrix(1.0075098,0,0,1.0032698,16.221436,16.077397)"><path fill-rule="nonzero" fill="rgb(100%, 100%, 100%)" fill-opacity="1" d="M 11.457031 26.242188 C 11.722656 26.914062 12.203125 27.546875 12.898438 28.140625 C 13.59375 28.726562 14.425781 29.1875 15.40625 29.511719 C 16.390625 29.832031 17.140625 29.992188 18.417969 29.992188 C 19.542969 29.992188 20.585938 29.882812 21.554688 29.65625 C 22.523438 29.429688 23.609375 29.035156 24.796875 28.476562 L 24.796875 24.09375 C 23.398438 25.007812 21.992188 25.460938 20.578125 25.460938 C 19.78125 25.460938 19.078125 25.277344 18.460938 24.90625 C 17.992188 24.636719 17.5625 24.164062 17.394531 23.710938 C 17.222656 23.25 17.242188 22.320312 17.242188 20.710938 L 17.242188 13.578125 L 23.703125 13.578125 L 23.703125 8.613281 L 17.242188 8.613281 L 17.242188 2.179688 L 13.273438 2.179688 C 13.09375 3.617188 12.765625 4.796875 12.289062 5.726562 C 11.820312 6.648438 11.191406 7.445312 10.40625 8.113281 C 9.625 8.773438 8.355469 9.28125 7.257812 9.640625 L 7.257812 13.578125 L 11.054688 13.578125 L 11.054688 23.332031 C 11.054688 24.601562 11.1875 25.574219 11.457031 26.242188 "/></g></svg>
