<svg width="64" height="64" viewBox="0 0 64 64" version="1.1"><defs><linearGradient id="linear-pattern-0" gradientUnits="userSpaceOnUse" x1="0" y1="0" x2="0" y2="1" gradientTransform="matrix(60, 0, 0, 56, 0, 4)"><stop offset="0" stop-color="#ec7700" stop-opacity="1"/><stop offset="1" stop-color="#773c00" stop-opacity="1"/></linearGradient></defs><path fill="url(#linear-pattern-0)" fill-opacity="1" d="M 36.21875 2.050781 L 62.027344 27.605469 C 64.402344 29.957031 64.417969 33.785156 62.058594 36.15625 L 36.460938 61.917969 C 34.105469 64.289062 30.269531 64.304688 27.894531 61.949219 L 2.085938 36.394531 C -0.289062 34.042969 -0.304688 30.214844 2.050781 27.84375 L 27.652344 2.082031 C 30.007812 -0.289062 33.84375 -0.304688 36.21875 2.050781 Z M 36.21875 2.050781 " /><g transform="matrix(1.0075098,0,0,1.0032698,16.221436,16.077397)"><path fill-rule="nonzero" fill="rgb(100%, 100%, 100%)" fill-opacity="1" d="M 20.101562 3.828125 C 12.25 3.9375 6.632812 13.242188 2.015625 18.921875 C 3.632812 19.808594 6.554688 20.773438 9.84375 20.773438 C 11.996094 20.773438 14.296875 20.359375 16.519531 19.265625 C 19.234375 17.929688 20.585938 15.484375 20.585938 13.265625 C 20.585938 12 20.144531 10.804688 19.265625 9.9375 C 18.390625 9.070312 17.066406 8.5 15.230469 8.5 C 14.617188 8.5 13.941406 8.570312 13.21875 8.707031 L 13.09375 8.070312 C 13.851562 7.925781 14.570312 7.851562 15.230469 7.851562 C 17.203125 7.851562 18.714844 8.476562 19.726562 9.480469 C 20.738281 10.484375 21.238281 11.847656 21.238281 13.265625 C 21.238281 15.742188 19.734375 18.40625 16.8125 19.847656 C 14.484375 20.992188 12.078125 21.421875 9.84375 21.421875 C 6.398438 21.421875 3.375 20.421875 1.65625 19.476562 L 1.867188 19.101562 C 1.59375 19.425781 1.320312 19.753906 1.058594 20.054688 C 4.03125 21.90625 6.929688 23.132812 9.648438 23.796875 C 10.820312 24.089844 11.960938 24.273438 13.0625 24.367188 L 13.785156 28.347656 L 14.421875 28.234375 L 13.730469 24.40625 C 14.292969 24.433594 14.84375 24.429688 15.382812 24.40625 L 16.105469 28.347656 L 16.742188 28.234375 L 16.050781 24.382812 C 23.183594 23.820312 28.085938 18.957031 28.359375 12.1875 C 28.398438 11.324219 28.351562 10.429688 28.234375 9.507812 L 31 8.085938 L 27.957031 7.890625 L 30.554688 5.804688 L 27.042969 6.054688 C 24.542969 4.453125 22.242188 3.796875 20.101562 3.828125 M 22.671875 6.714844 C 22.871094 6.714844 23.050781 6.773438 23.242188 6.867188 C 23.429688 6.964844 23.625 7.105469 23.820312 7.269531 C 24.21875 7.597656 24.632812 8.050781 25.042969 8.59375 L 24.53125 8.984375 C 23.953125 8.214844 23.34375 7.648438 22.945312 7.445312 C 22.816406 7.382812 22.71875 7.367188 22.671875 7.367188 L 22.628906 7.367188 L 22.601562 7.394531 C 22.570312 7.433594 22.515625 7.578125 22.519531 7.804688 C 22.515625 8.15625 22.609375 8.691406 22.835938 9.4375 L 22.226562 9.632812 C 21.988281 8.851562 21.867188 8.257812 21.867188 7.804688 C 21.867188 7.578125 21.894531 7.386719 21.960938 7.210938 C 22.027344 7.039062 22.15625 6.882812 22.320312 6.796875 C 22.433594 6.742188 22.554688 6.714844 22.671875 6.714844 M 16.992188 9.382812 L 16.828125 10.835938 C 12.609375 12.378906 9.8125 16.015625 8.859375 19.210938 L 7.414062 19.460938 L 7.609375 18.835938 C 8.671875 15.277344 11.601562 11.359375 16.367188 9.617188 L 16.992188 9.382812 "/></g></svg>
