<svg width="64" height="64" viewBox="0 0 64 64" version="1.1"><defs><linearGradient id="linear-pattern-0" gradientUnits="userSpaceOnUse" x1="0" y1="0" x2="0" y2="1" gradientTransform="matrix(60, 0, 0, 56, 0, 4)"><stop offset="0" stop-color="#aaaa00" stop-opacity="1"/><stop offset="1" stop-color="#5c5c00" stop-opacity="1"/></linearGradient></defs><path fill="url(#linear-pattern-0)" fill-opacity="1" d="M 36.21875 2.050781 L 62.027344 27.605469 C 64.402344 29.957031 64.417969 33.785156 62.058594 36.15625 L 36.460938 61.917969 C 34.105469 64.289062 30.269531 64.304688 27.894531 61.949219 L 2.085938 36.394531 C -0.289062 34.042969 -0.304688 30.214844 2.050781 27.84375 L 27.652344 2.082031 C 30.007812 -0.289062 33.84375 -0.304688 36.21875 2.050781 Z M 36.21875 2.050781 " /><g transform="matrix(1.0075098,0,0,1.0032698,16.221436,16.077397)"><path fill-rule="nonzero" fill="rgb(100%, 100%, 100%)" fill-opacity="1" d="M 3.726562 28.417969 C 3.382812 28.34375 3.136719 28.164062 2.890625 27.804688 C 2.828125 27.710938 2.753906 27.570312 2.71875 27.492188 L 2.660156 27.34375 L 2.660156 3.382812 L 2.71875 3.21875 C 2.851562 2.851562 3.113281 2.621094 3.488281 2.546875 C 3.609375 2.519531 6.085938 2.515625 15.554688 2.53125 C 28.515625 2.550781 27.425781 2.65625 27.703125 2.722656 C 27.984375 2.773438 28.382812 2.992188 28.433594 3.289062 C 28.484375 10.898438 28.464844 19.386719 28.34375 27.3125 C 28.332031 27.386719 28.265625 27.554688 28.203125 27.683594 C 27.984375 28.109375 27.710938 28.335938 27.300781 28.421875 C 27.042969 28.476562 3.980469 28.472656 3.726562 28.417969 Z M 22.046875 22.1875 C 22.195312 22.140625 22.304688 22.054688 22.375 21.914062 L 22.445312 21.773438 L 22.445312 8.851562 L 22.375 8.714844 C 22.304688 8.570312 22.195312 8.484375 22.03125 8.4375 C 21.960938 8.417969 20.207031 8.414062 15.46875 8.429688 C 8.492188 8.449219 8.921875 8.4375 8.773438 8.574219 C 8.742188 8.605469 8.695312 8.675781 8.667969 8.726562 C 8.625 8.824219 8.617188 9.0625 8.617188 15.308594 C 8.617188 22.359375 8.609375 21.882812 8.753906 22.03125 C 8.894531 22.183594 8.671875 22.171875 12.007812 22.1875 C 18.265625 22.210938 21.953125 22.210938 22.046875 22.1875 Z M 22.046875 22.1875 "/></g></svg>
