<svg width="64" height="64" viewBox="0 0 64 64" version="1.1"><defs><linearGradient id="linear-pattern-0" gradientUnits="userSpaceOnUse" x1="0" y1="0" x2="0" y2="1" gradientTransform="matrix(60, 0, 0, 56, 0, 4)"><stop offset="0" stop-color="#00983a" stop-opacity="1"/><stop offset="1" stop-color="#004a1c" stop-opacity="1"/></linearGradient></defs><path fill="url(#linear-pattern-0)" fill-opacity="1" d="M 36.21875 2.050781 L 62.027344 27.605469 C 64.402344 29.957031 64.417969 33.785156 62.058594 36.15625 L 36.460938 61.917969 C 34.105469 64.289062 30.269531 64.304688 27.894531 61.949219 L 2.085938 36.394531 C -0.289062 34.042969 -0.304688 30.214844 2.050781 27.84375 L 27.652344 2.082031 C 30.007812 -0.289062 33.84375 -0.304688 36.21875 2.050781 Z M 36.21875 2.050781 " /><g transform="matrix(1.0075098,0,0,1.0032698,16.221436,16.077397)"><path fill-rule="nonzero" fill="rgb(100%, 100%, 100%)" fill-opacity="1" d="M 15.25 6.683594 C 15.289062 6.691406 17.519531 7.082031 17.515625 8.066406 C 17.515625 8.101562 17.515625 8.132812 17.507812 8.164062 C 17.375 9.054688 15.085938 9.1875 13.5 9.277344 C 13.203125 9.292969 12.914062 9.3125 12.625 9.335938 C 12.417969 9.359375 12.164062 9.371094 11.867188 9.386719 C 10.15625 9.480469 7.242188 9.640625 6.414062 11.171875 C 6.367188 11.257812 6.34375 11.351562 6.335938 11.445312 C 6.335938 12.117188 7.691406 12.699219 9.320312 13.398438 C 11.664062 14.40625 14.570312 15.65625 14.839844 17.757812 C 14.851562 17.875 14.859375 17.992188 14.859375 18.109375 C 14.855469 20.90625 10.464844 23.460938 4.375 26.21875 C 6.902344 27.863281 9.8125 28.734375 12.78125 28.726562 C 19.300781 28.726562 24.882812 24.640625 27.382812 18.75 C 26.503906 17.554688 25.390625 16.574219 24.117188 15.882812 C 21.054688 14.195312 17.03125 13.28125 14.027344 12.601562 C 11.683594 12.070312 9.960938 11.679688 9.800781 11.171875 C 9.789062 11.125 9.78125 11.078125 9.78125 11.03125 C 9.789062 10.238281 12.109375 10.054688 13.632812 9.976562 C 15.242188 9.890625 17.679688 9.65625 17.976562 8.429688 C 17.988281 8.390625 17.992188 8.351562 17.996094 8.3125 C 18 8.296875 18 8.277344 18 8.257812 C 18.003906 7.125 15.296875 6.691406 15.25 6.683594 Z M 15.25 6.683594 "/></g></svg>
