<svg width="64" height="64" viewBox="0 0 64 64" version="1.1"><defs><linearGradient id="linear-pattern-0" gradientUnits="userSpaceOnUse" x1="0" y1="0" x2="0" y2="1" gradientTransform="matrix(60, 0, 0, 56, 0, 4)"><stop offset="0" stop-color="#00a07f" stop-opacity="1"/><stop offset="1" stop-color="#005241" stop-opacity="1"/></linearGradient></defs><path fill="url(#linear-pattern-0)" fill-opacity="1" d="M 36.21875 2.050781 L 62.027344 27.605469 C 64.402344 29.957031 64.417969 33.785156 62.058594 36.15625 L 36.460938 61.917969 C 34.105469 64.289062 30.269531 64.304688 27.894531 61.949219 L 2.085938 36.394531 C -0.289062 34.042969 -0.304688 30.214844 2.050781 27.84375 L 27.652344 2.082031 C 30.007812 -0.289062 33.84375 -0.304688 36.21875 2.050781 Z M 36.21875 2.050781 " /><g transform="matrix(1.0075098,0,0,1.0032698,16.221436,16.077397)"><path fill-rule="nonzero" fill="rgb(100%, 100%, 100%)" fill-opacity="1" d="M 0.910156 3.375 L 0.910156 17.023438 L 7.023438 17.023438 L 7.023438 12.476562 L 3.96875 3.375 Z M 26.378906 7.925781 L 23.320312 17.023438 L 23.320312 21.574219 L 29.433594 21.574219 L 29.433594 7.925781 Z M 14.15625 17.023438 L 14.15625 21.574219 L 17.210938 21.574219 L 17.210938 17.023438 Z M 14.15625 24.609375 L 14.15625 29.15625 L 20.265625 29.15625 L 20.265625 24.609375 Z M 14.15625 24.609375 "/></g></svg>
