<svg width="64" height="64" viewBox="0 0 64 64" version="1.1"><defs><linearGradient id="linear-pattern-0" gradientUnits="userSpaceOnUse" x1="0" y1="0" x2="0" y2="1" gradientTransform="matrix(60, 0, 0, 56, 0, 4)"><stop offset="0" stop-color="#7795ab" stop-opacity="1"/><stop offset="1" stop-color="#3b4f5f" stop-opacity="1"/></linearGradient></defs><path fill="url(#linear-pattern-0)" fill-opacity="1" d="M 36.21875 2.050781 L 62.027344 27.605469 C 64.402344 29.957031 64.417969 33.785156 62.058594 36.15625 L 36.460938 61.917969 C 34.105469 64.289062 30.269531 64.304688 27.894531 61.949219 L 2.085938 36.394531 C -0.289062 34.042969 -0.304688 30.214844 2.050781 27.84375 L 27.652344 2.082031 C 30.007812 -0.289062 33.84375 -0.304688 36.21875 2.050781 Z M 36.21875 2.050781 " /><g transform="matrix(1.0075098,0,0,1.0032698,16.221436,16.077397)"><path fill-rule="evenodd" fill="rgb(100%, 100%, 100%)" fill-opacity="1" d="M 17.570312 0 C 21.71875 0 24.820312 0.945312 26.875 2.828125 C 28.929688 4.714844 29.953125 7.5625 29.953125 11.382812 C 29.953125 12.175781 29.9375 12.78125 29.894531 13.203125 L 28.699219 28.226562 C 28.617188 29.398438 28.226562 30.304688 27.535156 30.929688 C 26.84375 31.5625 25.914062 31.875 24.738281 31.875 C 23.648438 31.875 22.78125 31.527344 22.132812 30.835938 C 21.480469 30.144531 21.195312 29.257812 21.28125 28.164062 L 21.34375 26.96875 C 20.507812 28.5625 19.332031 29.800781 17.824219 30.679688 C 16.3125 31.5625 14.59375 32 12.667969 32 C 10.65625 32 8.84375 31.609375 7.230469 30.835938 C 5.617188 30.0625 4.351562 28.992188 3.425781 27.632812 C 2.503906 26.269531 2.046875 24.726562 2.046875 23.007812 C 2.046875 20.664062 2.640625 18.789062 3.835938 17.382812 C 5.03125 15.980469 6.945312 14.953125 9.585938 14.304688 C 12.226562 13.652344 15.75 13.328125 20.148438 13.328125 L 22.414062 13.328125 L 22.476562 12.132812 C 22.640625 10.039062 22.242188 8.488281 21.28125 7.484375 C 20.316406 6.476562 18.789062 5.972656 16.691406 5.972656 C 14.21875 5.972656 11.390625 6.789062 8.203125 8.421875 C 7.660156 8.675781 7.136719 8.804688 6.632812 8.804688 C 5.875 8.804688 5.25 8.539062 4.746094 8.015625 C 4.242188 7.492188 3.992188 6.851562 3.992188 6.097656 C 3.992188 5.554688 4.160156 5 4.496094 4.429688 C 4.828125 3.867188 5.3125 3.394531 5.941406 3.015625 C 7.449219 2.09375 9.230469 1.359375 11.28125 0.820312 C 13.335938 0.273438 15.4375 0 17.570312 0 Z M 14.679688 26.34375 C 16.648438 26.34375 18.3125 25.640625 19.679688 24.234375 C 21.039062 22.832031 21.804688 21.039062 21.972656 18.859375 L 22.097656 17.476562 L 20.335938 17.476562 C 17.65625 17.476562 15.546875 17.625 14.019531 17.917969 C 12.492188 18.210938 11.390625 18.703125 10.71875 19.394531 C 10.046875 20.085938 9.714844 21.019531 9.714844 22.191406 C 9.714844 23.449219 10.164062 24.453125 11.0625 25.210938 C 11.964844 25.964844 13.171875 26.34375 14.679688 26.34375 Z M 14.679688 26.34375 "/></g></svg>
