<svg width="64" height="64" viewBox="0 0 64 64" version="1.1"><defs><linearGradient id="linear-pattern-0" gradientUnits="userSpaceOnUse" x1="0" y1="0" x2="0" y2="1" gradientTransform="matrix(60, 0, 0, 56, 0, 4)"><stop offset="0" stop-color="#00983a" stop-opacity="1"/><stop offset="1" stop-color="#004a1c" stop-opacity="1"/></linearGradient></defs><path fill="url(#linear-pattern-0)" fill-opacity="1" d="M 36.21875 2.050781 L 62.027344 27.605469 C 64.402344 29.957031 64.417969 33.785156 62.058594 36.15625 L 36.460938 61.917969 C 34.105469 64.289062 30.269531 64.304688 27.894531 61.949219 L 2.085938 36.394531 C -0.289062 34.042969 -0.304688 30.214844 2.050781 27.84375 L 27.652344 2.082031 C 30.007812 -0.289062 33.84375 -0.304688 36.21875 2.050781 Z M 36.21875 2.050781 " /><g transform="matrix(1.0075098,0,0,1.0032698,16.221436,16.077397)"><path fill-rule="nonzero" fill="rgb(100%, 100%, 100%)" fill-opacity="1" d="M 2.757812 0.0234375 L 2.757812 10.484375 C 2.757812 19.179688 3.0625 21.265625 3.40625 22.6875 C 4.683594 28.046875 8.125 31.117188 13.667969 31.855469 C 16.671875 32.257812 22.730469 31.789062 27.5 30.796875 L 29.242188 30.4375 L 29.242188 0.0234375 L 20.414062 0 L 20.414062 24.273438 L 11.585938 24.273438 L 11.585938 7.171875 L 8.277344 7.171875 L 12.6875 0 Z M 2.757812 0.0234375 "/></g></svg>
