<svg width="64" height="64" viewBox="0 0 64 64" version="1.1"><defs><linearGradient id="linear-pattern-0" gradientUnits="userSpaceOnUse" x1="0" y1="0" x2="0" y2="1" gradientTransform="matrix(60, 0, 0, 56, 0, 4)"><stop offset="0" stop-color="#0288cf" stop-opacity="1"/><stop offset="1" stop-color="#01486e" stop-opacity="1"/></linearGradient></defs><path fill="url(#linear-pattern-0)" fill-opacity="1" d="M 36.21875 2.050781 L 62.027344 27.605469 C 64.402344 29.957031 64.417969 33.785156 62.058594 36.15625 L 36.460938 61.917969 C 34.105469 64.289062 30.269531 64.304688 27.894531 61.949219 L 2.085938 36.394531 C -0.289062 34.042969 -0.304688 30.214844 2.050781 27.84375 L 27.652344 2.082031 C 30.007812 -0.289062 33.84375 -0.304688 36.21875 2.050781 Z M 36.21875 2.050781 " /><g transform="matrix(1.0075098,0,0,1.0032698,16.221436,16.077397)"><path fill-rule="evenodd" fill="rgb(100%, 100%, 100%)" fill-opacity="1" d="M 22.289062 4.824219 L 22.289062 3.417969 L 30.285156 0 L 30.285156 17.398438 C 30.285156 17.421875 30.28125 17.445312 30.28125 17.46875 L 30.28125 17.773438 C 30.28125 19.875 30 21.800781 29.425781 23.550781 C 28.855469 25.300781 27.984375 26.804688 26.808594 28.054688 C 25.628906 29.308594 24.140625 30.277344 22.320312 30.960938 C 20.507812 31.652344 18.359375 31.992188 15.867188 31.992188 L 15.871094 32 C 13.421875 32 11.304688 31.648438 9.523438 30.941406 C 9.320312 30.859375 9.132812 30.769531 8.960938 30.671875 L 8.742188 30.601562 C 7.3125 29.9375 6.097656 29.070312 5.117188 28.007812 C 3.953125 26.753906 3.101562 25.261719 2.546875 23.523438 C 1.992188 21.792969 1.714844 19.875 1.714844 17.78125 L 1.714844 12.90625 L 9.714844 9.347656 L 9.714844 18.859375 C 9.714844 22.40625 12.484375 25.140625 16 25.140625 C 17.785156 25.140625 19.394531 24.519531 20.546875 23.332031 C 20.5 23.378906 20.445312 23.421875 20.398438 23.46875 C 21.601562 22.304688 22.285156 20.675781 22.285156 18.859375 L 22.285156 5.601562 C 22.285156 5.589844 22.28125 5.578125 22.28125 5.570312 L 22.28125 4.824219 C 22.285156 4.824219 22.285156 4.824219 22.289062 4.824219 Z M 20.351562 23.796875 L 20.410156 23.660156 Z M 20.347656 23.515625 C 20.195312 23.664062 20.03125 23.800781 19.867188 23.929688 C 20.03125 23.800781 20.195312 23.664062 20.347656 23.515625 Z M 20.347656 23.515625 "/></g></svg>
