<svg width="64" height="64" viewBox="0 0 64 64" version="1.1"><defs><linearGradient id="linear-pattern-0" gradientUnits="userSpaceOnUse" x1="0" y1="0" x2="0" y2="1" gradientTransform="matrix(60, 0, 0, 56, 0, 4)"><stop offset="0" stop-color="#3067ff" stop-opacity="1"/><stop offset="1" stop-color="#002ca6" stop-opacity="1"/></linearGradient></defs><path fill="url(#linear-pattern-0)" fill-opacity="1" d="M 36.21875 2.050781 L 62.027344 27.605469 C 64.402344 29.957031 64.417969 33.785156 62.058594 36.15625 L 36.460938 61.917969 C 34.105469 64.289062 30.269531 64.304688 27.894531 61.949219 L 2.085938 36.394531 C -0.289062 34.042969 -0.304688 30.214844 2.050781 27.84375 L 27.652344 2.082031 C 30.007812 -0.289062 33.84375 -0.304688 36.21875 2.050781 Z M 36.21875 2.050781 " /><g transform="matrix(1.0075098,0,0,1.0032698,16.221436,16.077397)"><path fill-rule="nonzero" fill="rgb(100%, 100%, 100%)" fill-opacity="1" d="M 14.578125 2.566406 C 14.046875 2.566406 13.617188 3.015625 13.617188 3.578125 L 13.617188 6.011719 C 12.578125 6.296875 11.585938 6.730469 10.664062 7.304688 L 9.027344 5.582031 C 8.648438 5.1875 8.042969 5.1875 7.667969 5.582031 L 4.953125 8.445312 C 4.574219 8.839844 4.574219 9.480469 4.953125 9.875 L 6.585938 11.597656 C 6.039062 12.570312 5.628906 13.617188 5.359375 14.710938 L 3.050781 14.710938 C 2.515625 14.710938 2.089844 15.164062 2.089844 15.722656 L 2.089844 19.769531 C 2.089844 20.328125 2.515625 20.78125 3.050781 20.78125 L 5.359375 20.78125 C 5.628906 21.875 6.039062 22.921875 6.585938 23.894531 L 4.953125 25.617188 C 4.574219 26.015625 4.574219 26.652344 4.953125 27.046875 L 7.667969 29.914062 C 8.042969 30.308594 8.648438 30.308594 9.027344 29.914062 L 10.664062 28.1875 C 11.585938 28.761719 12.578125 29.195312 13.617188 29.480469 L 19.382812 29.480469 C 20.417969 29.195312 21.414062 28.761719 22.335938 28.1875 L 23.96875 29.914062 C 24.34375 30.308594 24.953125 30.308594 25.328125 29.914062 L 28.046875 27.046875 C 28.421875 26.652344 28.421875 26.015625 28.046875 25.617188 L 26.414062 23.894531 C 26.957031 22.921875 27.367188 21.875 27.636719 20.78125 L 29.945312 20.78125 C 30.476562 20.78125 30.90625 20.328125 30.90625 19.769531 L 30.90625 15.722656 C 30.90625 15.164062 30.476562 14.710938 29.945312 14.710938 L 27.65625 14.710938 C 27.390625 13.609375 26.976562 12.558594 26.429688 11.582031 L 28.046875 9.875 C 28.421875 9.480469 28.421875 8.839844 28.046875 8.445312 L 25.328125 5.582031 C 24.953125 5.1875 24.34375 5.1875 23.96875 5.582031 L 22.351562 7.289062 C 21.421875 6.710938 20.421875 6.273438 19.382812 5.992188 L 19.382812 3.578125 C 19.382812 3.019531 18.953125 2.566406 18.421875 2.566406 Z M 16.5 9.648438 C 20.742188 9.648438 24.183594 13.273438 24.183594 17.746094 C 24.183594 22.21875 20.742188 25.84375 16.5 25.84375 C 12.253906 25.84375 8.8125 22.21875 8.8125 17.746094 C 8.8125 13.273438 12.253906 9.648438 16.5 9.648438 Z M 16.5 9.648438 "/><path fill-rule="nonzero" fill="rgb(100%, 100%, 100%)" fill-opacity="1" d="M 16.070312 12.5 L 12.59375 14.890625 L 12.59375 28.632812 C 12.59375 29.828125 13.460938 31.617188 16.070312 31.617188 C 18.675781 31.617188 19.546875 29.828125 19.546875 28.632812 L 19.546875 14.890625 Z M 16.070312 12.5 "/><path fill-rule="nonzero" fill="rgb(100%, 100%, 100%)" fill-opacity="1" d="M 21.039062 11.539062 C 21.039062 14.09375 18.75 16.164062 15.925781 16.164062 C 13.101562 16.164062 10.8125 14.09375 10.8125 11.539062 C 10.8125 8.984375 13.101562 6.914062 15.925781 6.914062 C 18.75 6.914062 21.039062 8.984375 21.039062 11.539062 Z M 21.039062 11.539062 "/></g></svg>
