<svg width="64" height="64" viewBox="0 0 64 64" version="1.1"><defs><linearGradient id="linear-pattern-0" gradientUnits="userSpaceOnUse" x1="0" y1="0" x2="0" y2="1" gradientTransform="matrix(60, 0, 0, 56, 0, 4)"><stop offset="0" stop-color="#00a07f" stop-opacity="1"/><stop offset="1" stop-color="#005241" stop-opacity="1"/></linearGradient></defs><path fill="url(#linear-pattern-0)" fill-opacity="1" d="M 36.21875 2.050781 L 62.027344 27.605469 C 64.402344 29.957031 64.417969 33.785156 62.058594 36.15625 L 36.460938 61.917969 C 34.105469 64.289062 30.269531 64.304688 27.894531 61.949219 L 2.085938 36.394531 C -0.289062 34.042969 -0.304688 30.214844 2.050781 27.84375 L 27.652344 2.082031 C 30.007812 -0.289062 33.84375 -0.304688 36.21875 2.050781 Z M 36.21875 2.050781 " /><g transform="matrix(1.0075098,0,0,1.0032698,16.221436,16.077397)"><path fill-rule="evenodd" fill="rgb(100%, 100%, 100%)" fill-opacity="1" d="M 4.65625 20.871094 C 5.324219 21.132812 6.226562 21.445312 7.246094 21.757812 C 6.941406 24.496094 7.554688 27.234375 9.609375 29.742188 C 13.054688 33.949219 20 29.847656 23.929688 25.234375 C 23.285156 24.0625 15.667969 30.515625 12.339844 27.117188 C 11.273438 26.085938 10.851562 24.53125 10.902344 22.71875 C 15.195312 23.667969 20.390625 24.171875 24.621094 22.820312 C 24.890625 23.796875 25.039062 24.671875 25.019531 25.386719 C 23.871094 25.679688 23.023438 26.71875 23.023438 27.953125 C 23.023438 29.421875 24.214844 30.609375 25.679688 30.609375 C 27.148438 30.609375 28.335938 29.421875 28.335938 27.953125 C 28.335938 26.75 27.53125 25.734375 26.425781 25.421875 C 26.398438 24.84375 26.226562 23.703125 25.9375 22.328125 C 28.460938 21.21875 30.527344 19.320312 31.679688 16.277344 C 33.597656 11.191406 26.574219 7.234375 20.609375 6.132812 C 19.917969 7.277344 29.320312 10.648438 28.039062 15.226562 C 27.679688 16.652344 26.570312 17.78125 25 18.640625 C 23.78125 14.5 21.726562 9.640625 18.550781 6.421875 C 19.109375 5.820312 19.664062 5.316406 20.179688 4.964844 C 20.523438 5.328125 20.960938 5.59375 21.453125 5.726562 C 22.132812 5.90625 22.859375 5.8125 23.46875 5.460938 C 24.078125 5.109375 24.523438 4.527344 24.703125 3.84375 C 24.890625 3.164062 24.792969 2.441406 24.4375 1.832031 C 23.953125 0.992188 23.046875 0.480469 22.078125 0.5 C 21.632812 0.515625 21.195312 0.636719 20.8125 0.859375 C 20.199219 1.210938 19.757812 1.792969 19.574219 2.472656 C 19.460938 2.882812 19.453125 3.3125 19.570312 3.71875 C 19.0625 4.09375 18.324219 4.714844 17.503906 5.460938 C 15.167969 3.515625 12.292969 2.453125 8.78125 3.027344 C 3.414062 3.90625 3.5 11.96875 5.527344 17.679688 C 6.863281 17.710938 5.082031 7.886719 9.6875 6.703125 C 11.3125 6.242188 13.09375 6.835938 14.84375 8.078125 C 11.757812 11.359375 8.496094 15.777344 7.488281 20.304688 C 6.628906 20.125 5.851562 19.90625 5.234375 19.640625 C 5.34375 19.238281 5.328125 18.820312 5.222656 18.414062 C 5.039062 17.734375 4.59375 17.152344 3.984375 16.800781 C 3.601562 16.578125 3.164062 16.453125 2.71875 16.445312 C 2.65625 16.441406 2.59375 16.445312 2.53125 16.445312 C 1.628906 16.492188 0.808594 16.988281 0.355469 17.773438 C 0.00390625 18.382812 -0.09375 19.105469 0.0898438 19.789062 C 0.273438 20.46875 0.71875 21.046875 1.328125 21.398438 C 1.9375 21.75 2.664062 21.847656 3.34375 21.664062 C 3.851562 21.53125 4.304688 21.25 4.65625 20.871094 Z M 23.359375 19.390625 C 19.90625 20.699219 15.164062 21.101562 11.105469 20.800781 C 11.765625 17.039062 13.910156 12.601562 16.28125 9.234375 C 19.109375 11.789062 21.734375 15.773438 23.359375 19.390625 Z M 23.359375 19.390625 "/></g></svg>
