<svg width="64" height="64" viewBox="0 0 64 64" version="1.1"><defs><linearGradient id="linear-pattern-0" gradientUnits="userSpaceOnUse" x1="0" y1="0" x2="0" y2="1" gradientTransform="matrix(60, 0, 0, 56, 0, 4)"><stop offset="0" stop-color="#d00068" stop-opacity="1"/><stop offset="1" stop-color="#6e0037" stop-opacity="1"/></linearGradient></defs><path fill="url(#linear-pattern-0)" fill-opacity="1" d="M 36.21875 2.050781 L 62.027344 27.605469 C 64.402344 29.957031 64.417969 33.785156 62.058594 36.15625 L 36.460938 61.917969 C 34.105469 64.289062 30.269531 64.304688 27.894531 61.949219 L 2.085938 36.394531 C -0.289062 34.042969 -0.304688 30.214844 2.050781 27.84375 L 27.652344 2.082031 C 30.007812 -0.289062 33.84375 -0.304688 36.21875 2.050781 Z M 36.21875 2.050781 " /><g transform="matrix(1.0075098,0,0,1.0032698,16.221436,16.077397)"><path fill-rule="nonzero" fill="rgb(100%, 100%, 100%)" fill-opacity="1" d="M 16.148438 5.070312 L 21.132812 1.828125 L 26.117188 5.070312 L 26.117188 10.476562 L 24.125 12.632812 L 21.132812 13.714844 L 16.148438 10.476562 L 15.148438 7.5 Z M 16.148438 5.070312 "/><path fill-rule="nonzero" fill="rgb(100%, 100%, 100%)" fill-opacity="1" d="M 21.132812 13.714844 L 26.117188 10.476562 L 31.109375 13.714844 L 31.109375 19.117188 L 26.117188 22.359375 L 23.125 22.359375 L 21.132812 19.117188 Z M 21.132812 13.714844 "/><path fill-rule="nonzero" fill="rgb(100%, 100%, 100%)" fill-opacity="1" d="M 16.148438 22.359375 L 21.132812 19.117188 L 26.117188 22.359375 L 26.117188 27.757812 L 21.132812 31 L 16.148438 27.757812 L 15.148438 24.515625 Z M 16.148438 22.359375 "/><path fill-rule="nonzero" fill="rgb(100%, 100%, 100%)" fill-opacity="1" d="M 6.171875 22.359375 L 8.164062 20.195312 L 11.15625 19.117188 L 16.148438 22.359375 L 16.148438 27.757812 L 11.15625 31 L 6.171875 27.757812 Z M 6.171875 22.359375 "/><path fill-rule="nonzero" fill="rgb(100%, 100%, 100%)" fill-opacity="1" d="M 1.1875 13.714844 L 6.171875 10.476562 L 9.164062 11.554688 L 11.15625 13.714844 L 11.15625 19.117188 L 6.171875 22.359375 L 1.1875 19.117188 Z M 1.1875 13.714844 "/><path fill-rule="nonzero" fill="rgb(100%, 100%, 100%)" fill-opacity="1" d="M 6.171875 5.070312 L 11.15625 1.828125 L 16.148438 5.070312 L 16.148438 10.476562 L 11.15625 13.714844 L 6.171875 10.476562 Z M 6.171875 5.070312 "/></g></svg>
