<svg width="64" height="64" viewBox="0 0 64 64" version="1.1"><defs><linearGradient id="linear-pattern-0" gradientUnits="userSpaceOnUse" x1="0" y1="0" x2="0" y2="1" gradientTransform="matrix(60, 0, 0, 56, 0, 4)"><stop offset="0" stop-color="#3067ff" stop-opacity="1"/><stop offset="1" stop-color="#002ca6" stop-opacity="1"/></linearGradient></defs><path fill="url(#linear-pattern-0)" fill-opacity="1" d="M 36.21875 2.050781 L 62.027344 27.605469 C 64.402344 29.957031 64.417969 33.785156 62.058594 36.15625 L 36.460938 61.917969 C 34.105469 64.289062 30.269531 64.304688 27.894531 61.949219 L 2.085938 36.394531 C -0.289062 34.042969 -0.304688 30.214844 2.050781 27.84375 L 27.652344 2.082031 C 30.007812 -0.289062 33.84375 -0.304688 36.21875 2.050781 Z M 36.21875 2.050781 " /><g transform="matrix(1.0075098,0,0,1.0032698,16.221436,16.077397)"><path fill-rule="nonzero" fill="rgb(100%, 100%, 100%)" fill-opacity="1" d="M 20.609375 16 L 26.046875 6.328125 L 28.632812 16 L 26.046875 25.667969 Z M 17.953125 18.386719 L 23.394531 27.242188 L 13.921875 24.742188 L 7.078125 18.386719 Z M 23.390625 4.757812 L 17.953125 15.1875 L 7.078125 15.1875 L 13.921875 7.257812 Z M 31.15625 12.632812 L 27.839844 0 L 15.457031 3.40625 L 13.625 6.726562 L 9.90625 6.695312 L 0.84375 16 L 9.90625 25.304688 L 13.625 25.273438 L 15.460938 28.59375 L 27.839844 32 L 31.15625 19.367188 L 29.472656 16 "/></g></svg>
