<svg width="64" height="64" viewBox="0 0 64 64" version="1.1"><defs><linearGradient id="linear-pattern-0" gradientUnits="userSpaceOnUse" x1="0" y1="0" x2="0" y2="1" gradientTransform="matrix(60, 0, 0, 56, 0, 4)"><stop offset="0" stop-color="#7795ab" stop-opacity="1"/><stop offset="1" stop-color="#3b4f5f" stop-opacity="1"/></linearGradient></defs><path fill="url(#linear-pattern-0)" fill-opacity="1" d="M 36.21875 2.050781 L 62.027344 27.605469 C 64.402344 29.957031 64.417969 33.785156 62.058594 36.15625 L 36.460938 61.917969 C 34.105469 64.289062 30.269531 64.304688 27.894531 61.949219 L 2.085938 36.394531 C -0.289062 34.042969 -0.304688 30.214844 2.050781 27.84375 L 27.652344 2.082031 C 30.007812 -0.289062 33.84375 -0.304688 36.21875 2.050781 Z M 36.21875 2.050781 " /><g transform="matrix(1.0075098,0,0,1.0032698,16.221436,16.077397)"><path fill-rule="evenodd" fill="rgb(100%, 100%, 100%)" fill-opacity="1" d="M 7.140625 24.835938 L 4.664062 25.320312 L 1.824219 15.695312 L 0.351562 8.132812 L 4.703125 7.289062 L 6.171875 14.851562 Z M 9.164062 30.691406 C 8.703125 31.359375 8.0625 31.773438 7.238281 31.9375 C 6.414062 32.09375 5.671875 31.953125 5.023438 31.515625 C 4.367188 31.078125 3.964844 30.453125 3.808594 29.652344 C 3.652344 28.847656 3.792969 28.113281 4.230469 27.449219 C 4.667969 26.789062 5.300781 26.375 6.125 26.214844 C 6.953125 26.054688 7.703125 26.195312 8.382812 26.644531 C 9.054688 27.089844 9.476562 27.71875 9.632812 28.519531 C 9.78125 29.300781 9.625 30.023438 9.164062 30.691406 Z M 15.023438 17.992188 L 12.582031 17.359375 L 14.179688 7.453125 L 16.125 0 L 20.410156 1.117188 L 18.46875 8.570312 Z M 14.3125 24.148438 C 13.609375 24.554688 12.851562 24.648438 12.039062 24.4375 C 11.226562 24.226562 10.617188 23.78125 10.21875 23.101562 C 9.820312 22.421875 9.726562 21.6875 9.933594 20.894531 C 10.140625 20.101562 10.585938 19.5 11.265625 19.09375 C 11.949219 18.6875 12.695312 18.585938 13.507812 18.796875 C 14.324219 19.007812 14.9375 19.464844 15.355469 20.160156 C 15.773438 20.855469 15.878906 21.601562 15.671875 22.390625 C 15.46875 23.164062 15.015625 23.75 14.3125 24.148438 Z M 24.070312 24.328125 L 21.734375 23.371094 L 24.632812 13.765625 L 27.546875 6.636719 L 31.648438 8.3125 L 28.734375 15.441406 Z M 22.554688 30.335938 C 21.800781 30.640625 21.039062 30.632812 20.257812 30.316406 C 19.476562 30 18.9375 29.476562 18.632812 28.75 C 18.328125 28.023438 18.328125 27.28125 18.640625 26.523438 C 18.953125 25.769531 19.46875 25.234375 20.199219 24.917969 C 20.929688 24.601562 21.6875 24.601562 22.464844 24.921875 C 23.242188 25.242188 23.789062 25.773438 24.109375 26.515625 C 24.4375 27.261719 24.441406 28.011719 24.132812 28.769531 C 23.828125 29.507812 23.304688 30.027344 22.554688 30.335938 Z M 22.554688 30.335938 "/></g></svg>
