<svg width="64" height="64" viewBox="0 0 64 64" version="1.1"><defs><linearGradient id="linear-pattern-0" gradientUnits="userSpaceOnUse" x1="0" y1="0" x2="0" y2="1" gradientTransform="matrix(60, 0, 0, 56, 0, 4)"><stop offset="0" stop-color="#ec7700" stop-opacity="1"/><stop offset="1" stop-color="#773c00" stop-opacity="1"/></linearGradient></defs><path fill="url(#linear-pattern-0)" fill-opacity="1" d="M 36.21875 2.050781 L 62.027344 27.605469 C 64.402344 29.957031 64.417969 33.785156 62.058594 36.15625 L 36.460938 61.917969 C 34.105469 64.289062 30.269531 64.304688 27.894531 61.949219 L 2.085938 36.394531 C -0.289062 34.042969 -0.304688 30.214844 2.050781 27.84375 L 27.652344 2.082031 C 30.007812 -0.289062 33.84375 -0.304688 36.21875 2.050781 Z M 36.21875 2.050781 " /><g transform="matrix(1.0075098,0,0,1.0032698,16.221436,16.077397)"><path fill-rule="nonzero" fill="rgb(100%, 100%, 100%)" fill-opacity="1" d="M 3.367188 27.609375 C 4.210938 25.875 5.332031 23.121094 6.003906 21.296875 C 6.289062 20.515625 7.125 19.761719 7.859375 19.617188 L 10.953125 18.304688 C 10.4375 17.746094 10.84375 16.890625 12.167969 15.734375 L 11.648438 14.679688 C 10.890625 14.550781 10.429688 14.273438 10.261719 13.847656 C 10.097656 13.421875 10.230469 12.851562 10.65625 12.132812 C 10.480469 11.929688 10.429688 11.695312 10.5 11.425781 L 9.542969 7.390625 L 9.523438 6.804688 L 9.574219 6.003906 L 9.464844 5.5625 L 9.777344 5.296875 L 9.949219 5.03125 L 10.140625 4.828125 L 9.921875 4.289062 L 9.8125 3.929688 L 9.828125 3.363281 L 10.109375 2.65625 C 10.617188 1.96875 11.0625 1.496094 11.445312 1.242188 C 12.015625 0.859375 12.015625 0.925781 12.339844 0.785156 C 12.664062 0.648438 13.6875 0.339844 14.445312 0.1875 C 14.949219 0.0859375 15.269531 0.0351562 15.40625 0.03125 L 15.84375 0 L 16.160156 0.078125 L 17.179688 0.34375 L 18.15625 0.820312 L 18.84375 1.554688 L 19.242188 2.359375 L 19.414062 3.300781 L 19.539062 3.773438 L 19.867188 3.929688 L 20.167969 4.496094 L 20.390625 4.574219 L 20.355469 5.203125 L 20.640625 6.054688 L 20.84375 6.507812 L 21.234375 7.246094 L 21.234375 7.546875 L 21.488281 8.0625 L 21.453125 8.566406 L 21.265625 9.257812 L 21.820312 9.492188 L 21.691406 9.714844 C 22.257812 10.28125 22.484375 10.796875 22.367188 11.269531 C 22.136719 12.21875 21.171875 12.949219 21.0625 13.3125 C 20.898438 13.851562 20.5625 13.960938 20.054688 13.640625 L 20.390625 15.152344 L 21.046875 15.71875 L 23.4375 16.359375 L 24.726562 16.503906 L 25.464844 16.644531 L 26.832031 16.785156 C 26.992188 16.695312 27.117188 16.664062 27.207031 16.691406 C 27.304688 16.71875 27.421875 16.757812 27.570312 16.804688 L 28.578125 17.382812 C 29.296875 18.140625 29.765625 18.773438 29.992188 19.28125 C 30.328125 20.054688 30.269531 21.398438 30.304688 22.554688 C 30.339844 23.707031 30.53125 25.359375 30.070312 26.796875 C 29.757812 27.757812 29.550781 28.242188 29.4375 28.257812 L 28.117188 31.664062 C 27.257812 31.699219 26.324219 31.796875 25.476562 31.828125 C 18.667969 32.046875 12.089844 32.085938 6.082031 31.78125 C 4.5 31.703125 3.234375 31.609375 1.625 31.351562 L 1.949219 30.601562 L 2.832031 29.015625 L 3.367188 27.609375 "/></g></svg>
