<svg width="64" height="64" viewBox="0 0 64 64" version="1.1"><defs><linearGradient id="linear-pattern-0" gradientUnits="userSpaceOnUse" x1="0" y1="0" x2="0" y2="1" gradientTransform="matrix(60, 0, 0, 56, 0, 4)"><stop offset="0" stop-color="#8900e4" stop-opacity="1"/><stop offset="1" stop-color="#42006e" stop-opacity="1"/></linearGradient></defs><path fill="url(#linear-pattern-0)" fill-opacity="1" d="M 36.21875 2.050781 L 62.027344 27.605469 C 64.402344 29.957031 64.417969 33.785156 62.058594 36.15625 L 36.460938 61.917969 C 34.105469 64.289062 30.269531 64.304688 27.894531 61.949219 L 2.085938 36.394531 C -0.289062 34.042969 -0.304688 30.214844 2.050781 27.84375 L 27.652344 2.082031 C 30.007812 -0.289062 33.84375 -0.304688 36.21875 2.050781 Z M 36.21875 2.050781 " /><g transform="matrix(1.0075098,0,0,1.0032698,16.221436,16.077397)"><path fill-rule="evenodd" fill="rgb(100%, 100%, 100%)" fill-opacity="1" d="M 15.585938 2.335938 L 13.914062 6.566406 L 13.273438 4.558594 L 12.234375 7.179688 L 11.523438 6.820312 L 11 6.007812 L 10.945312 6.515625 L 8.195312 5.101562 L 10.113281 9.503906 L 5.878906 7.328125 L 7.589844 11.234375 L 4.578125 10.585938 L 5.71875 12.011719 L 4.929688 12.265625 L 6.375 12.832031 L 6.671875 13.203125 L 2.613281 14.484375 L 5.851562 15.757812 L 4.101562 15.832031 L 5.539062 16.90625 L 3.289062 18.34375 L 6.992188 18.765625 L 5.390625 21.851562 L 7.25 21.046875 L 4.835938 23.664062 L 8.226562 23.171875 L 7.9375 24.496094 L 7.648438 24.816406 L 10.734375 24.367188 L 10.914062 28.683594 L 13.53125 25.195312 L 13.726562 29.835938 L 16.496094 26.140625 L 16.539062 27.039062 L 17.046875 26.363281 L 18.78125 27.953125 L 18.539062 26.3125 L 21.589844 29.105469 L 20.742188 23.296875 L 21.09375 23.28125 L 24.398438 26.304688 L 23.9375 23.164062 L 24.195312 23.148438 L 24.523438 23.320312 L 24.445312 23.140625 L 26.632812 23.046875 L 23.597656 20.789062 L 23.554688 20.5 L 29.441406 20.25 L 25.085938 17.015625 L 27.789062 16.160156 L 25.925781 15.429688 L 28.710938 12.421875 L 25.414062 12.894531 L 23.3125 12.070312 L 25.011719 8.796875 L 22.726562 9.789062 L 22.625 7.398438 L 20.074219 10.796875 L 22.78125 5.585938 L 18.789062 7.3125 L 18.796875 7.289062 L 18.742188 7.335938 L 18.433594 7.46875 L 17.820312 5.546875 L 17.152344 7.230469 L 15.585938 2.335938 "/></g></svg>
