<svg width="64" height="64" viewBox="0 0 64 64" version="1.1"><defs><linearGradient id="linear-pattern-0" gradientUnits="userSpaceOnUse" x1="0" y1="0" x2="0" y2="1" gradientTransform="matrix(60, 0, 0, 56, 0, 4)"><stop offset="0" stop-color="#008a97" stop-opacity="1"/><stop offset="1" stop-color="#00545c" stop-opacity="1"/></linearGradient></defs><path fill="url(#linear-pattern-0)" fill-opacity="1" d="M 36.21875 2.050781 L 62.027344 27.605469 C 64.402344 29.957031 64.417969 33.785156 62.058594 36.15625 L 36.460938 61.917969 C 34.105469 64.289062 30.269531 64.304688 27.894531 61.949219 L 2.085938 36.394531 C -0.289062 34.042969 -0.304688 30.214844 2.050781 27.84375 L 27.652344 2.082031 C 30.007812 -0.289062 33.84375 -0.304688 36.21875 2.050781 Z M 36.21875 2.050781 " /><g transform="matrix(1.0075098,0,0,1.0032698,16.221436,16.077397)"><path fill-rule="nonzero" fill="rgb(100%, 100%, 100%)" fill-opacity="1" d="M 16.851562 21.273438 C 16.851562 22.941406 16.273438 24.320312 15.125 25.421875 C 13.992188 26.515625 12.359375 27.203125 10.246094 27.484375 L 10.246094 31.644531 L 8.03125 31.644531 L 8.03125 27.648438 C 6.75 27.617188 5.515625 27.507812 4.332031 27.296875 C 3.164062 27.078125 2.195312 26.78125 1.425781 26.40625 L 1.425781 23.335938 C 2.273438 23.765625 3.304688 24.132812 4.515625 24.449219 C 5.742188 24.757812 6.917969 24.914062 8.03125 24.941406 L 8.03125 17.125 C 5.722656 16.339844 4.09375 15.414062 3.132812 14.355469 C 2.171875 13.28125 1.695312 11.914062 1.695312 10.242188 C 1.695312 8.640625 2.265625 7.3125 3.402344 6.28125 C 4.539062 5.25 6.082031 4.617188 8.03125 4.382812 L 8.03125 1.101562 L 10.246094 1.101562 L 10.246094 4.347656 C 12.382812 4.40625 14.414062 4.875 16.34375 5.734375 L 15.398438 8.304688 C 13.652344 7.5625 11.9375 7.128906 10.246094 6.996094 L 10.246094 14.699219 C 12.046875 15.359375 13.386719 15.976562 14.265625 16.5625 C 15.152344 17.148438 15.8125 17.816406 16.226562 18.570312 C 16.640625 19.3125 16.851562 20.214844 16.851562 21.273438 M 13.773438 21.511719 C 13.773438 20.632812 13.507812 19.9375 12.976562 19.429688 C 12.453125 18.90625 11.539062 18.398438 10.246094 17.910156 L 10.246094 24.757812 C 12.601562 24.367188 13.773438 23.285156 13.773438 21.511719 M 4.789062 10.207031 C 4.789062 11.09375 5.03125 11.816406 5.515625 12.363281 C 6 12.910156 6.839844 13.414062 8.03125 13.875 L 8.03125 7.0625 C 6.976562 7.257812 6.167969 7.632812 5.617188 8.179688 C 5.066406 8.726562 4.789062 9.40625 4.789062 10.207031 "/><path fill-rule="evenodd" fill="rgb(100%, 100%, 100%)" fill-opacity="1" d="M 17.917969 1.101562 L 31.09375 1.101562 L 31.09375 31.644531 L 17.917969 31.644531 Z M 17.917969 1.101562 "/></g></svg>
