<svg width="64" height="64" viewBox="0 0 64 64" version="1.1"><defs><linearGradient id="linear-pattern-0" gradientUnits="userSpaceOnUse" x1="0" y1="0" x2="0" y2="1" gradientTransform="matrix(60, 0, 0, 56, 0, 4)"><stop offset="0" stop-color="#0288cf" stop-opacity="1"/><stop offset="1" stop-color="#01486e" stop-opacity="1"/></linearGradient></defs><path fill="url(#linear-pattern-0)" fill-opacity="1" d="M 36.21875 2.050781 L 62.027344 27.605469 C 64.402344 29.957031 64.417969 33.785156 62.058594 36.15625 L 36.460938 61.917969 C 34.105469 64.289062 30.269531 64.304688 27.894531 61.949219 L 2.085938 36.394531 C -0.289062 34.042969 -0.304688 30.214844 2.050781 27.84375 L 27.652344 2.082031 C 30.007812 -0.289062 33.84375 -0.304688 36.21875 2.050781 Z M 36.21875 2.050781 " /><g transform="matrix(1.0075098,0,0,1.0032698,16.221436,16.077397)"><path fill-rule="evenodd" fill="rgb(100%, 100%, 100%)" fill-opacity="1" d="M 0.527344 6.390625 C 2.242188 4.671875 4.429688 4.445312 6.890625 5.117188 C 9.644531 9.460938 10.320312 15.3125 13.257812 18.21875 C 16.945312 21.164062 22.554688 18.574219 22.289062 14.773438 L 17.53125 2.496094 C 19.554688 1.066406 19.875 0.269531 22.777344 0.921875 C 25.949219 6.554688 25.316406 15.703125 32.710938 15.898438 C 33.121094 17.46875 32.789062 18.773438 32.082031 19.941406 C 30.101562 20.90625 26.3125 19.5 24.59375 18.296875 C 22.796875 22.632812 17.546875 24.617188 13.679688 23.6875 L 17.25 32.59375 C 14.445312 33.039062 11.707031 33.179688 9.273438 31.84375 Z M 0.527344 6.390625 "/></g></svg>
