<svg width="64" height="64" viewBox="0 0 64 64" version="1.1"><defs><linearGradient id="linear-pattern-0" gradientUnits="userSpaceOnUse" x1="0" y1="0" x2="0" y2="1" gradientTransform="matrix(60, 0, 0, 56, 0, 4)"><stop offset="0" stop-color="#008a97" stop-opacity="1"/><stop offset="1" stop-color="#00545c" stop-opacity="1"/></linearGradient></defs><path fill="url(#linear-pattern-0)" fill-opacity="1" d="M 36.21875 2.050781 L 62.027344 27.605469 C 64.402344 29.957031 64.417969 33.785156 62.058594 36.15625 L 36.460938 61.917969 C 34.105469 64.289062 30.269531 64.304688 27.894531 61.949219 L 2.085938 36.394531 C -0.289062 34.042969 -0.304688 30.214844 2.050781 27.84375 L 27.652344 2.082031 C 30.007812 -0.289062 33.84375 -0.304688 36.21875 2.050781 Z M 36.21875 2.050781 " /><g transform="matrix(1.0075098,0,0,1.0032698,16.221436,16.077397)"><path fill-rule="nonzero" fill="rgb(100%, 100%, 100%)" fill-opacity="1" d="M 14.828125 1.515625 C 14.566406 1.515625 14.359375 1.730469 14.359375 2 C 14.359375 2.269531 14.566406 2.484375 14.828125 2.484375 L 17.632812 2.484375 C 17.890625 2.484375 18.097656 2.269531 18.097656 2 C 18.097656 1.730469 17.890625 1.515625 17.632812 1.515625 Z M 12.339844 2.027344 C 12.28125 2.027344 12.21875 2.039062 12.15625 2.066406 L 9.566406 3.179688 C 9.328125 3.28125 9.214844 3.5625 9.3125 3.8125 C 9.414062 4.0625 9.6875 4.179688 9.921875 4.078125 L 12.515625 2.960938 C 12.753906 2.859375 12.867188 2.578125 12.769531 2.328125 C 12.695312 2.140625 12.523438 2.03125 12.339844 2.027344 Z M 20.117188 2.027344 C 19.9375 2.03125 19.761719 2.140625 19.6875 2.328125 C 19.585938 2.578125 19.703125 2.859375 19.941406 2.960938 L 22.53125 4.078125 C 22.773438 4.179688 23.042969 4.0625 23.140625 3.8125 C 23.242188 3.5625 23.128906 3.28125 22.890625 3.179688 L 20.296875 2.066406 C 20.238281 2.039062 20.179688 2.027344 20.117188 2.027344 Z M 7.632812 4.605469 C 7.515625 4.605469 7.398438 4.652344 7.304688 4.75 L 5.320312 6.804688 C 5.140625 6.996094 5.140625 7.304688 5.320312 7.492188 C 5.503906 7.6875 5.796875 7.6875 5.984375 7.492188 L 7.96875 5.433594 C 8.148438 5.242188 8.148438 4.9375 7.96875 4.75 C 7.875 4.652344 7.753906 4.605469 7.632812 4.605469 Z M 24.820312 4.605469 C 24.703125 4.605469 24.578125 4.652344 24.488281 4.75 C 24.304688 4.9375 24.304688 5.242188 24.488281 5.433594 L 26.472656 7.492188 C 26.65625 7.6875 26.953125 7.6875 27.132812 7.492188 C 27.316406 7.304688 27.316406 6.996094 27.132812 6.804688 L 25.152344 4.75 C 25.0625 4.652344 24.941406 4.605469 24.820312 4.605469 Z M 15.292969 7.335938 C 11.140625 7.335938 7.816406 10.523438 7.816406 15.101562 C 7.816406 19.953125 10.855469 19.28125 11.929688 18.203125 C 12.40625 17.726562 11.351562 18.1875 10.734375 17.726562 C 8.507812 16.070312 10.113281 9.277344 14.359375 9.277344 L 14.359375 24.804688 C 14.359375 25.5 14.898438 25.773438 15.292969 25.773438 C 20.398438 25.773438 21.835938 18.011719 21.835938 13.160156 C 21.835938 9.277344 21.1875 7.335938 20.621094 7.335938 L 19.3125 7.335938 C 18.519531 7.335938 19.96875 8.351562 19.96875 13.160156 C 19.96875 18.984375 18.546875 22.867188 16.226562 23.640625 L 16.226562 9.277344 C 16.226562 8.308594 16.226562 7.335938 15.292969 7.335938 Z M 4.242188 8.855469 C 4.054688 8.859375 3.886719 8.96875 3.8125 9.15625 L 2.738281 11.84375 C 2.640625 12.09375 2.75 12.375 2.992188 12.480469 C 3.230469 12.582031 3.503906 12.464844 3.601562 12.21875 L 4.675781 9.527344 C 4.773438 9.277344 4.664062 8.996094 4.421875 8.890625 C 4.363281 8.867188 4.300781 8.855469 4.242188 8.855469 Z M 28.21875 8.855469 C 28.15625 8.855469 28.09375 8.867188 28.035156 8.894531 C 27.796875 8.996094 27.679688 9.28125 27.78125 9.527344 L 28.851562 12.21875 C 28.953125 12.464844 29.226562 12.582031 29.464844 12.480469 C 29.703125 12.375 29.816406 12.09375 29.71875 11.847656 L 28.644531 9.15625 C 28.570312 8.96875 28.398438 8.859375 28.21875 8.855469 Z M 2.675781 14.132812 C 2.414062 14.132812 2.207031 14.347656 2.207031 14.617188 L 2.207031 17.527344 C 2.207031 17.796875 2.414062 18.011719 2.675781 18.011719 C 2.933594 18.011719 3.140625 17.796875 3.140625 17.527344 L 3.140625 14.617188 C 3.140625 14.347656 2.933594 14.132812 2.675781 14.132812 Z M 29.78125 14.132812 C 29.523438 14.132812 29.3125 14.347656 29.3125 14.617188 L 29.3125 17.527344 C 29.3125 17.796875 29.523438 18.011719 29.78125 18.011719 C 30.039062 18.011719 30.25 17.796875 30.25 17.527344 L 30.25 14.617188 C 30.25 14.347656 30.039062 14.132812 29.78125 14.132812 Z M 3.171875 19.625 C 3.113281 19.625 3.050781 19.640625 2.992188 19.664062 C 2.75 19.765625 2.640625 20.046875 2.738281 20.296875 L 3.8125 22.988281 C 3.914062 23.234375 4.183594 23.351562 4.421875 23.25 C 4.660156 23.148438 4.773438 22.867188 4.675781 22.617188 L 3.601562 19.929688 C 3.527344 19.742188 3.355469 19.625 3.171875 19.625 Z M 29.28125 19.625 C 29.101562 19.625 28.929688 19.742188 28.855469 19.929688 L 27.78125 22.617188 C 27.679688 22.867188 27.796875 23.148438 28.035156 23.25 C 28.273438 23.351562 28.546875 23.234375 28.644531 22.988281 L 29.71875 20.296875 C 29.816406 20.046875 29.703125 19.765625 29.46875 19.664062 C 29.40625 19.640625 29.34375 19.625 29.28125 19.625 Z M 5.652344 24.507812 C 5.53125 24.507812 5.414062 24.554688 5.320312 24.648438 C 5.140625 24.835938 5.140625 25.148438 5.320312 25.335938 L 7.304688 27.394531 C 7.488281 27.585938 7.785156 27.585938 7.96875 27.394531 C 8.148438 27.203125 8.148438 26.898438 7.96875 26.710938 L 5.984375 24.648438 C 5.890625 24.554688 5.773438 24.507812 5.652344 24.507812 Z M 26.804688 24.507812 C 26.6875 24.507812 26.566406 24.554688 26.476562 24.648438 L 24.492188 26.710938 C 24.304688 26.898438 24.304688 27.203125 24.492188 27.394531 C 24.671875 27.585938 24.96875 27.585938 25.152344 27.394531 L 27.132812 25.335938 C 27.320312 25.148438 27.320312 24.835938 27.132812 24.648438 C 27.042969 24.554688 26.921875 24.507812 26.804688 24.507812 Z M 9.742188 28.03125 C 9.5625 28.03125 9.390625 28.140625 9.3125 28.328125 C 9.21875 28.578125 9.328125 28.859375 9.566406 28.960938 L 12.160156 30.078125 C 12.398438 30.179688 12.671875 30.0625 12.769531 29.816406 C 12.867188 29.566406 12.753906 29.28125 12.515625 29.179688 L 9.925781 28.066406 C 9.867188 28.039062 9.804688 28.03125 9.742188 28.03125 Z M 22.714844 28.03125 C 22.65625 28.03125 22.59375 28.039062 22.53125 28.066406 L 19.941406 29.179688 C 19.703125 29.28125 19.589844 29.566406 19.6875 29.816406 C 19.789062 30.0625 20.058594 30.179688 20.296875 30.078125 L 22.890625 28.960938 C 23.128906 28.859375 23.242188 28.578125 23.140625 28.328125 C 23.070312 28.140625 22.898438 28.03125 22.714844 28.03125 Z M 14.828125 29.65625 C 14.570312 29.65625 14.359375 29.875 14.359375 30.140625 C 14.359375 30.414062 14.570312 30.628906 14.828125 30.628906 L 17.632812 30.628906 C 17.890625 30.628906 18.097656 30.414062 18.097656 30.140625 C 18.097656 29.875 17.890625 29.65625 17.632812 29.65625 Z M 14.828125 29.65625 "/></g></svg>
