<svg width="64" height="64" viewBox="0 0 64 64" version="1.1"><defs><linearGradient id="linear-pattern-0" gradientUnits="userSpaceOnUse" x1="0" y1="0" x2="0" y2="1" gradientTransform="matrix(60, 0, 0, 56, 0, 4)"><stop offset="0" stop-color="#ec7700" stop-opacity="1"/><stop offset="1" stop-color="#773c00" stop-opacity="1"/></linearGradient></defs><path fill="url(#linear-pattern-0)" fill-opacity="1" d="M 36.21875 2.050781 L 62.027344 27.605469 C 64.402344 29.957031 64.417969 33.785156 62.058594 36.15625 L 36.460938 61.917969 C 34.105469 64.289062 30.269531 64.304688 27.894531 61.949219 L 2.085938 36.394531 C -0.289062 34.042969 -0.304688 30.214844 2.050781 27.84375 L 27.652344 2.082031 C 30.007812 -0.289062 33.84375 -0.304688 36.21875 2.050781 Z M 36.21875 2.050781 " /><g transform="matrix(1.0075098,0,0,1.0032698,16.221436,16.077397)"><path fill-rule="nonzero" fill="rgb(100%, 100%, 100%)" fill-opacity="1" d="M 7.007812 3.78125 C 4.542969 3.78125 2.515625 5.796875 2.515625 8.25 L 2.515625 18.046875 C 2.515625 20.503906 4.542969 22.519531 7.007812 22.519531 L 25.046875 22.519531 C 27.515625 22.519531 29.539062 20.503906 29.539062 18.046875 L 29.539062 8.25 C 29.539062 5.796875 27.515625 3.78125 25.046875 3.78125 Z M 7.367188 5.96875 L 24.691406 5.96875 C 26.101562 5.96875 27.230469 7.085938 27.230469 8.484375 L 27.230469 17.8125 C 27.230469 19.21875 26.101562 20.34375 24.691406 20.34375 L 7.367188 20.34375 C 5.957031 20.34375 4.828125 19.21875 4.828125 17.8125 L 4.828125 8.484375 C 4.828125 7.085938 5.953125 5.96875 7.367188 5.96875 M 21.675781 20.609375 C 22.144531 20.609375 22.523438 20.984375 22.523438 21.453125 C 22.523438 21.921875 22.144531 22.296875 21.675781 22.296875 C 21.207031 22.296875 20.828125 21.921875 20.828125 21.453125 C 20.828125 20.984375 21.207031 20.609375 21.675781 20.609375 "/><path fill-rule="evenodd" fill="rgb(100%, 100%, 100%)" fill-opacity="1" d="M 14.59375 23.703125 L 17.140625 23.703125 C 17.695312 23.703125 18.148438 24.148438 18.148438 24.703125 L 18.148438 26.875 C 18.148438 27.429688 17.695312 27.882812 17.140625 27.882812 L 14.59375 27.882812 C 14.039062 27.882812 13.585938 27.429688 13.585938 26.875 L 13.585938 24.703125 C 13.585938 24.148438 14.039062 23.703125 14.59375 23.703125 Z M 14.59375 23.703125 "/><path fill-rule="evenodd" fill="rgb(100%, 100%, 100%)" fill-opacity="1" d="M 9.289062 26.945312 L 22.371094 26.945312 C 22.773438 26.945312 23.097656 27.269531 23.097656 27.667969 C 23.097656 28.070312 22.773438 28.390625 22.371094 28.390625 L 9.289062 28.390625 C 8.882812 28.390625 8.5625 28.070312 8.5625 27.667969 C 8.5625 27.269531 8.882812 26.945312 9.289062 26.945312 Z M 9.289062 26.945312 "/><path fill-rule="nonzero" fill="rgb(100%, 100%, 100%)" fill-opacity="1" stroke-width="2.13" stroke-linecap="butt" stroke-linejoin="miter" stroke="rgb(100%, 100%, 100%)" stroke-opacity="1" stroke-miterlimit="4" d="M 224.824499 163.997676 C 212.701299 164.602051 203.071523 174.617413 203.071523 186.920767 C 203.071523 199.569478 213.30316 209.843858 225.985231 209.843858 C 238.624312 209.843858 248.98492 199.569478 248.98492 186.920767 C 248.98492 174.228886 238.624312 163.997676 225.985231 163.997676 C 225.598321 163.997676 225.21141 163.911336 224.824499 163.997676 Z M 290.470339 211.268456 C 286.773193 211.268456 282.646146 211.872832 278.132188 213.124752 C 265.278157 218.434621 239.183183 258.366559 228.650616 248.912402 C 195.935171 205.138364 174.053225 248.308027 168.120595 283.145945 L 343.864008 283.145945 C 327.699741 250.293832 320.99329 211.268456 290.470339 211.268456 Z M 290.470339 211.268456 " transform="matrix(0.090864, 0, 0, 0.090486, -7.233141, -7.077775)"/><path fill-rule="nonzero" fill="rgb(100%, 100%, 100%)" fill-opacity="1" d="M 7.261719 5.492188 C 5.648438 5.492188 4.355469 6.769531 4.355469 8.359375 L 4.355469 17.773438 C 4.355469 19.363281 5.648438 20.703125 7.261719 20.640625 L 11.210938 20.492188 C 17 17.226562 15.171875 11.921875 19.738281 5.492188 Z M 7.261719 5.492188 "/></g></svg>
