<svg width="64" height="64" viewBox="0 0 64 64" version="1.1"><defs><linearGradient id="linear-pattern-0" gradientUnits="userSpaceOnUse" x1="0" y1="0" x2="0" y2="1" gradientTransform="matrix(60, 0, 0, 56, 0, 4)"><stop offset="0" stop-color="#00983a" stop-opacity="1"/><stop offset="1" stop-color="#004a1c" stop-opacity="1"/></linearGradient></defs><path fill="url(#linear-pattern-0)" fill-opacity="1" d="M 36.21875 2.050781 L 62.027344 27.605469 C 64.402344 29.957031 64.417969 33.785156 62.058594 36.15625 L 36.460938 61.917969 C 34.105469 64.289062 30.269531 64.304688 27.894531 61.949219 L 2.085938 36.394531 C -0.289062 34.042969 -0.304688 30.214844 2.050781 27.84375 L 27.652344 2.082031 C 30.007812 -0.289062 33.84375 -0.304688 36.21875 2.050781 Z M 36.21875 2.050781 " /><g transform="matrix(1.0075098,0,0,1.0032698,16.221436,16.077397)"><path fill-rule="nonzero" fill="rgb(100%, 100%, 100%)" fill-opacity="1" d="M 18.273438 5.210938 C 17.804688 5.210938 17.429688 5.609375 17.429688 6.109375 L 17.429688 7.152344 C 13.179688 7.914062 9.851562 11.449219 9.132812 15.960938 L 8.148438 15.960938 C 7.679688 15.960938 7.304688 16.359375 7.304688 16.859375 L 7.304688 18.648438 C 7.304688 19.144531 7.679688 19.546875 8.148438 19.546875 L 9.132812 19.546875 C 9.851562 24.054688 13.179688 27.589844 17.429688 28.351562 L 17.429688 29.398438 C 17.429688 29.898438 17.804688 30.296875 18.273438 30.296875 L 19.960938 30.296875 C 20.429688 30.296875 20.804688 29.898438 20.804688 29.398438 L 20.804688 28.351562 C 25.054688 27.589844 28.382812 24.054688 29.101562 19.546875 L 30.085938 19.546875 C 30.554688 19.546875 30.929688 19.144531 30.929688 18.648438 L 30.929688 16.859375 C 30.929688 16.359375 30.554688 15.960938 30.085938 15.960938 L 29.101562 15.960938 C 28.382812 11.449219 25.054688 7.914062 20.804688 7.152344 L 20.804688 6.109375 C 20.804688 5.609375 20.429688 5.210938 19.960938 5.210938 Z M 20.804688 10.8125 C 23.179688 11.46875 25.039062 13.4375 25.652344 15.960938 L 20.804688 15.960938 Z M 17.429688 10.816406 L 17.429688 15.960938 L 12.582031 15.960938 C 13.195312 13.4375 15.054688 11.46875 17.429688 10.816406 Z M 12.585938 19.546875 L 17.429688 19.546875 L 17.429688 24.695312 C 15.054688 24.039062 13.195312 22.070312 12.585938 19.546875 Z M 20.804688 19.546875 L 25.65625 19.546875 C 25.039062 22.070312 23.183594 24.039062 20.804688 24.6875 Z M 20.804688 19.546875 "/><path fill-rule="nonzero" fill="rgb(100%, 100%, 100%)" fill-opacity="1" d="M 1.390625 10.308594 L 1.390625 12.632812 L 5.324219 12.632812 C 5.761719 12.632812 6.109375 12.375 6.109375 12.054688 L 6.109375 10.890625 C 6.109375 10.570312 5.761719 10.308594 5.324219 10.308594 Z M 1.390625 21.9375 L 1.390625 24.265625 L 5.324219 24.265625 C 5.761719 24.265625 6.109375 24.007812 6.109375 23.683594 L 6.109375 22.523438 C 6.109375 22.199219 5.761719 21.9375 5.324219 21.9375 Z M 1.390625 21.9375 "/></g></svg>
