<svg width="64" height="64" viewBox="0 0 64 64" version="1.1"><defs><linearGradient id="linear-pattern-0" gradientUnits="userSpaceOnUse" x1="0" y1="0" x2="0" y2="1" gradientTransform="matrix(60, 0, 0, 56, 0, 4)"><stop offset="0" stop-color="#8900e4" stop-opacity="1"/><stop offset="1" stop-color="#42006e" stop-opacity="1"/></linearGradient></defs><path fill="url(#linear-pattern-0)" fill-opacity="1" d="M 36.21875 2.050781 L 62.027344 27.605469 C 64.402344 29.957031 64.417969 33.785156 62.058594 36.15625 L 36.460938 61.917969 C 34.105469 64.289062 30.269531 64.304688 27.894531 61.949219 L 2.085938 36.394531 C -0.289062 34.042969 -0.304688 30.214844 2.050781 27.84375 L 27.652344 2.082031 C 30.007812 -0.289062 33.84375 -0.304688 36.21875 2.050781 Z M 36.21875 2.050781 " /><g transform="matrix(1.0075098,0,0,1.0032698,16.221436,16.077397)"><path fill-rule="nonzero" fill="rgb(100%, 100%, 100%)" fill-opacity="1" d="M 22.285156 28.800781 C 22.691406 28.800781 23.070312 28.589844 23.285156 28.242188 C 23.5 27.898438 23.523438 27.46875 23.347656 27.101562 L 12.09375 3.867188 C 11.898438 3.457031 11.484375 3.199219 11.027344 3.199219 L 1.179688 3.199219 C 0.773438 3.199219 0.398438 3.410156 0.179688 3.753906 C -0.0351562 4.101562 -0.0625 4.53125 0.117188 4.898438 L 11.375 28.132812 C 11.570312 28.542969 11.984375 28.800781 12.4375 28.800781 Z M 22.285156 28.800781 "/></g></svg>
