<svg width="64" height="64" viewBox="0 0 64 64" version="1.1"><defs><linearGradient id="linear-pattern-0" gradientUnits="userSpaceOnUse" x1="0" y1="0" x2="0" y2="1" gradientTransform="matrix(60, 0, 0, 56, 0, 4)"><stop offset="0" stop-color="#ec7700" stop-opacity="1"/><stop offset="1" stop-color="#773c00" stop-opacity="1"/></linearGradient></defs><path fill="url(#linear-pattern-0)" fill-opacity="1" d="M 36.21875 2.050781 L 62.027344 27.605469 C 64.402344 29.957031 64.417969 33.785156 62.058594 36.15625 L 36.460938 61.917969 C 34.105469 64.289062 30.269531 64.304688 27.894531 61.949219 L 2.085938 36.394531 C -0.289062 34.042969 -0.304688 30.214844 2.050781 27.84375 L 27.652344 2.082031 C 30.007812 -0.289062 33.84375 -0.304688 36.21875 2.050781 Z M 36.21875 2.050781 " /><g transform="matrix(1.0075098,0,0,1.0032698,16.221436,16.077397)"><path fill-rule="nonzero" fill="rgb(100%, 100%, 100%)" fill-opacity="1" d="M 23.25 3.460938 C 22.433594 3.460938 21.773438 4.125 21.773438 4.933594 L 21.773438 27.238281 C 21.773438 28.050781 22.433594 28.710938 23.25 28.710938 C 24.0625 28.710938 24.726562 28.050781 24.726562 27.238281 L 24.726562 4.933594 C 24.726562 4.125 24.0625 3.460938 23.25 3.460938 M 8.804688 5.671875 C 7.992188 5.671875 7.328125 6.328125 7.328125 7.140625 L 7.328125 24.296875 C 7.328125 25.109375 7.992188 25.769531 8.804688 25.769531 C 9.625 25.769531 10.28125 25.109375 10.28125 24.296875 L 10.28125 7.140625 C 10.28125 6.328125 9.625 5.671875 8.804688 5.671875 M 18.492188 7.753906 C 17.675781 7.753906 17.015625 8.414062 17.015625 9.226562 L 17.015625 23.398438 C 17.015625 24.210938 17.675781 24.867188 18.492188 24.867188 C 19.304688 24.867188 19.96875 24.210938 19.96875 23.398438 L 19.96875 9.226562 C 19.96875 8.414062 19.304688 7.753906 18.492188 7.753906 M 4.046875 10.816406 C 3.234375 10.816406 2.570312 11.476562 2.570312 12.289062 L 2.570312 18.171875 C 2.570312 18.984375 3.234375 19.640625 4.046875 19.640625 C 4.863281 19.640625 5.527344 18.984375 5.527344 18.171875 L 5.527344 12.289062 C 5.527344 11.476562 4.863281 10.816406 4.046875 10.816406 M 13.566406 10.816406 C 12.75 10.816406 12.089844 11.476562 12.089844 12.289062 L 12.089844 21.765625 C 12.089844 22.578125 12.75 23.234375 13.566406 23.234375 C 14.382812 23.234375 15.042969 22.578125 15.042969 21.765625 L 15.042969 12.289062 C 15.042969 11.476562 14.382812 10.816406 13.566406 10.816406 M 28.007812 13.757812 C 27.195312 13.757812 26.53125 14.417969 26.53125 15.230469 L 26.53125 23.398438 C 26.53125 24.210938 27.195312 24.867188 28.007812 24.867188 C 28.820312 24.867188 29.484375 24.210938 29.484375 23.398438 L 29.484375 15.230469 C 29.484375 14.417969 28.820312 13.757812 28.007812 13.757812 "/></g></svg>
