<svg width="64" height="64" viewBox="0 0 64 64" version="1.1"><defs><linearGradient id="linear-pattern-0" gradientUnits="userSpaceOnUse" x1="0" y1="0" x2="0" y2="1" gradientTransform="matrix(60, 0, 0, 56, 0, 4)"><stop offset="0" stop-color="#c10000" stop-opacity="1"/><stop offset="1" stop-color="#5f0000" stop-opacity="1"/></linearGradient></defs><path fill="url(#linear-pattern-0)" fill-opacity="1" d="M 36.21875 2.050781 L 62.027344 27.605469 C 64.402344 29.957031 64.417969 33.785156 62.058594 36.15625 L 36.460938 61.917969 C 34.105469 64.289062 30.269531 64.304688 27.894531 61.949219 L 2.085938 36.394531 C -0.289062 34.042969 -0.304688 30.214844 2.050781 27.84375 L 27.652344 2.082031 C 30.007812 -0.289062 33.84375 -0.304688 36.21875 2.050781 Z M 36.21875 2.050781 " /><g transform="matrix(1.0075098,0,0,1.0032698,16.221436,16.077397)"><path fill-rule="nonzero" fill="rgb(100%, 100%, 100%)" fill-opacity="1" d="M 17.78125 1.613281 L 17.78125 10.382812 C 18.601562 10.53125 19.378906 10.871094 20.054688 11.378906 L 25.949219 5.175781 C 23.671875 3.078125 20.796875 1.828125 17.78125 1.613281 Z M 15.9375 1.648438 C 12.921875 1.851562 10.050781 3.09375 7.765625 5.179688 L 13.671875 11.394531 C 14.351562 10.890625 15.125 10.554688 15.9375 10.410156 Z M 27.25 6.546875 L 21.359375 12.75 C 21.84375 13.460938 22.164062 14.28125 22.304688 15.148438 L 30.636719 15.148438 C 30.433594 11.96875 29.242188 8.945312 27.25 6.546875 Z M 6.46875 6.546875 C 4.484375 8.953125 3.304688 11.972656 3.109375 15.148438 L 11.4375 15.148438 C 11.578125 14.289062 11.898438 13.476562 12.375 12.765625 Z M 3.109375 17.085938 C 3.304688 20.261719 4.484375 23.28125 6.46875 25.683594 L 12.375 19.46875 C 11.898438 18.757812 11.578125 17.945312 11.4375 17.085938 Z M 22.28125 17.085938 C 22.140625 17.945312 21.820312 18.757812 21.34375 19.46875 L 27.25 25.683594 C 29.230469 23.28125 30.410156 20.261719 30.601562 17.085938 Z M 13.671875 20.835938 L 7.765625 27.054688 C 10.050781 29.140625 12.921875 30.382812 15.9375 30.585938 L 15.9375 21.820312 C 15.125 21.675781 14.351562 21.339844 13.671875 20.835938 Z M 20.039062 20.835938 C 19.367188 21.339844 18.59375 21.675781 17.78125 21.820312 L 17.78125 30.585938 C 20.796875 30.382812 23.664062 29.140625 25.945312 27.054688 Z M 20.039062 20.835938 "/></g></svg>
