<svg width="64" height="64" viewBox="0 0 64 64" version="1.1"><defs><linearGradient id="linear-pattern-0" gradientUnits="userSpaceOnUse" x1="0" y1="0" x2="0" y2="1" gradientTransform="matrix(60, 0, 0, 56, 0, 4)"><stop offset="0" stop-color="#6926fc" stop-opacity="1"/><stop offset="1" stop-color="#3702ab" stop-opacity="1"/></linearGradient></defs><path fill="url(#linear-pattern-0)" fill-opacity="1" d="M 36.21875 2.050781 L 62.027344 27.605469 C 64.402344 29.957031 64.417969 33.785156 62.058594 36.15625 L 36.460938 61.917969 C 34.105469 64.289062 30.269531 64.304688 27.894531 61.949219 L 2.085938 36.394531 C -0.289062 34.042969 -0.304688 30.214844 2.050781 27.84375 L 27.652344 2.082031 C 30.007812 -0.289062 33.84375 -0.304688 36.21875 2.050781 Z M 36.21875 2.050781 " /><g transform="matrix(1.0075098,0,0,1.0032698,16.221436,16.077397)"><path fill-rule="nonzero" fill="rgb(100%, 100%, 100%)" fill-opacity="1" d="M 7.5 3.4375 C 8.980469 2.859375 10.652344 3.59375 11.234375 5.066406 L 18.8125 24.375 C 19.390625 25.851562 18.65625 27.519531 17.171875 28.09375 C 15.6875 28.675781 14.015625 27.945312 13.4375 26.46875 L 5.863281 7.160156 C 5.28125 5.679688 6.015625 4.015625 7.5 3.4375 Z M 7.5 3.4375 "/><path fill-rule="nonzero" fill="rgb(100%, 100%, 100%)" fill-opacity="1" d="M 23.191406 3.8125 C 22.007812 3.765625 20.882812 4.484375 20.46875 5.671875 L 13.730469 24.667969 C 13.214844 26.125 13.96875 27.71875 15.414062 28.234375 C 16.863281 28.753906 18.445312 28 18.960938 26.539062 L 20.125 23.269531 C 19.507812 22.9375 19.136719 22.285156 19.164062 21.589844 C 19.1875 21.109375 19.390625 20.664062 19.738281 20.335938 C 19.609375 20.0625 19.546875 19.765625 19.554688 19.464844 C 19.585938 18.835938 19.929688 18.265625 20.476562 17.953125 C 20.617188 17.023438 21.4375 16.351562 22.375 16.390625 C 22.4375 16.394531 22.492188 16.398438 22.554688 16.40625 L 25.695312 7.546875 C 26.210938 6.085938 25.460938 4.492188 24.011719 3.976562 C 23.742188 3.875 23.464844 3.828125 23.191406 3.8125 Z M 23.191406 3.8125 "/></g></svg>
