<svg width="64" height="64" viewBox="0 0 64 64" version="1.1"><defs><linearGradient id="linear-pattern-0" gradientUnits="userSpaceOnUse" x1="0" y1="0" x2="0" y2="1" gradientTransform="matrix(60, 0, 0, 56, 0, 4)"><stop offset="0" stop-color="#6926fc" stop-opacity="1"/><stop offset="1" stop-color="#3702ab" stop-opacity="1"/></linearGradient></defs><path fill="url(#linear-pattern-0)" fill-opacity="1" d="M 36.21875 2.050781 L 62.027344 27.605469 C 64.402344 29.957031 64.417969 33.785156 62.058594 36.15625 L 36.460938 61.917969 C 34.105469 64.289062 30.269531 64.304688 27.894531 61.949219 L 2.085938 36.394531 C -0.289062 34.042969 -0.304688 30.214844 2.050781 27.84375 L 27.652344 2.082031 C 30.007812 -0.289062 33.84375 -0.304688 36.21875 2.050781 Z M 36.21875 2.050781 " /><g transform="matrix(1.0075098,0,0,1.0032698,16.221436,16.077397)"><path fill-rule="nonzero" fill="rgb(100%, 100%, 100%)" fill-opacity="1" d="M 2.242188 3.929688 C 1.902344 3.964844 1.632812 4.269531 1.632812 4.609375 L 1.632812 17.050781 C 1.632812 17.414062 1.949219 17.734375 2.316406 17.734375 L 8.5625 17.734375 L 8.5625 20.03125 L 3.9375 20.03125 L 3.9375 22.332031 L 12.347656 22.332031 L 12.347656 15.433594 L 4.453125 15.433594 C 4.207031 15.433594 3.976562 15.210938 3.976562 14.960938 L 3.976562 6.703125 C 3.96875 6.484375 4.125 6.273438 4.335938 6.234375 C 4.367188 6.226562 4.414062 6.226562 4.445312 6.234375 L 17.296875 6.234375 C 17.53125 6.234375 17.765625 6.453125 17.765625 6.703125 L 17.765625 10.007812 L 20.109375 10.007812 L 20.109375 4.609375 C 20.109375 4.25 19.785156 3.929688 19.421875 3.929688 M 2.242188 3.929688 "/><path fill-rule="nonzero" fill="rgb(100%, 100%, 100%)" fill-opacity="1" d="M 13.796875 10.828125 C 13.460938 10.863281 13.171875 11.179688 13.171875 11.515625 L 13.171875 23.945312 C 13.171875 24.304688 13.507812 24.632812 13.867188 24.632812 L 20.105469 24.632812 L 20.105469 28.078125 L 24.722656 28.078125 L 24.722656 24.632812 L 30.960938 24.632812 C 31.324219 24.632812 31.65625 24.304688 31.65625 23.945312 L 31.65625 11.515625 C 31.65625 11.152344 31.320312 10.828125 30.960938 10.828125 M 15.890625 13.128906 C 15.917969 13.125 15.945312 13.125 15.976562 13.128906 L 28.847656 13.128906 C 29.09375 13.128906 29.3125 13.351562 29.3125 13.59375 L 29.3125 21.875 C 29.3125 22.113281 29.09375 22.332031 28.847656 22.332031 L 15.976562 22.332031 C 15.734375 22.332031 15.511719 22.113281 15.511719 21.875 L 15.511719 13.59375 C 15.507812 13.375 15.679688 13.167969 15.890625 13.128906 M 15.484375 26.929688 L 15.484375 29.230469 L 29.34375 29.230469 L 29.34375 26.929688 M 15.484375 26.929688 "/></g></svg>
