<svg width="64" height="64" viewBox="0 0 64 64" version="1.1"><defs><linearGradient id="linear-pattern-0" gradientUnits="userSpaceOnUse" x1="0" y1="0" x2="0" y2="1" gradientTransform="matrix(60, 0, 0, 56, 0, 4)"><stop offset="0" stop-color="#c10000" stop-opacity="1"/><stop offset="1" stop-color="#5f0000" stop-opacity="1"/></linearGradient></defs><path fill="url(#linear-pattern-0)" fill-opacity="1" d="M 36.21875 2.050781 L 62.027344 27.605469 C 64.402344 29.957031 64.417969 33.785156 62.058594 36.15625 L 36.460938 61.917969 C 34.105469 64.289062 30.269531 64.304688 27.894531 61.949219 L 2.085938 36.394531 C -0.289062 34.042969 -0.304688 30.214844 2.050781 27.84375 L 27.652344 2.082031 C 30.007812 -0.289062 33.84375 -0.304688 36.21875 2.050781 Z M 36.21875 2.050781 " /><g transform="matrix(1.0075098,0,0,1.0032698,16.221436,16.077397)"><path fill-rule="evenodd" fill="rgb(100%, 100%, 100%)" fill-opacity="1" d="M 9.414062 8.332031 L 5.972656 2.59375 C 5.738281 2.203125 5.667969 1.734375 5.777344 1.296875 C 5.886719 0.855469 6.171875 0.480469 6.5625 0.246094 C 6.945312 0.0078125 7.417969 -0.0585938 7.859375 0.0507812 C 8.296875 0.160156 8.679688 0.4375 8.90625 0.835938 L 12.410156 6.671875 L 13.898438 5.84375 C 14.210938 5.671875 14.601562 5.671875 14.917969 5.84375 C 15.234375 6.019531 15.429688 6.34375 15.429688 6.695312 L 15.429688 13.304688 C 15.429688 13.65625 15.234375 13.976562 14.917969 14.15625 C 14.601562 14.328125 14.210938 14.328125 13.898438 14.15625 L 7.9375 10.851562 C 7.625 10.671875 7.429688 10.351562 7.429688 10 C 7.429688 9.648438 7.625 9.324219 7.9375 9.148438 Z M 19.699219 26.046875 L 16.257812 20.308594 C 16.023438 19.921875 15.953125 19.449219 16.0625 19.007812 C 16.171875 18.570312 16.457031 18.195312 16.84375 17.960938 C 17.234375 17.726562 17.703125 17.65625 18.140625 17.765625 C 18.582031 17.875 18.96875 18.15625 19.195312 18.546875 L 22.695312 24.382812 L 24.179688 23.5625 C 24.496094 23.382812 24.886719 23.382812 25.203125 23.5625 C 25.519531 23.734375 25.714844 24.058594 25.714844 24.410156 L 25.714844 31.015625 C 25.714844 31.367188 25.515625 31.691406 25.203125 31.867188 C 24.886719 32.046875 24.5 32.046875 24.179688 31.867188 L 21.203125 30.21875 L 18.226562 28.5625 C 17.90625 28.390625 17.714844 28.0625 17.714844 27.714844 C 17.714844 27.359375 17.910156 27.039062 18.226562 26.863281 Z M 19.699219 26.046875 "/></g></svg>
