<svg width="64" height="64" viewBox="0 0 64 64" version="1.1"><defs><linearGradient id="linear-pattern-0" gradientUnits="userSpaceOnUse" x1="0" y1="0" x2="0" y2="1" gradientTransform="matrix(60, 0, 0, 56, 0, 4)"><stop offset="0" stop-color="#aaaa00" stop-opacity="1"/><stop offset="1" stop-color="#5c5c00" stop-opacity="1"/></linearGradient></defs><path fill="url(#linear-pattern-0)" fill-opacity="1" d="M 36.21875 2.050781 L 62.027344 27.605469 C 64.402344 29.957031 64.417969 33.785156 62.058594 36.15625 L 36.460938 61.917969 C 34.105469 64.289062 30.269531 64.304688 27.894531 61.949219 L 2.085938 36.394531 C -0.289062 34.042969 -0.304688 30.214844 2.050781 27.84375 L 27.652344 2.082031 C 30.007812 -0.289062 33.84375 -0.304688 36.21875 2.050781 Z M 36.21875 2.050781 " /><g transform="matrix(1.0075098,0,0,1.0032698,16.221436,16.077397)"><path fill-rule="nonzero" fill="rgb(100%, 100%, 100%)" fill-opacity="1" d="M 16.960938 27.46875 C 16.488281 27.296875 15.742188 27 15.3125 26.804688 C 14.875 26.605469 13.835938 26.304688 13.003906 26.132812 C 12.171875 25.953125 11.179688 25.664062 10.789062 25.476562 C 9.84375 25.011719 8.519531 23.6875 7.984375 22.671875 C 7.691406 22.117188 7.375 21.730469 7.023438 21.496094 C 6.726562 21.304688 6.375 20.925781 6.238281 20.648438 C 5.972656 20.136719 5.976562 20.136719 4.609375 19.953125 C 3.84375 19.855469 3.09375 19.300781 2.785156 18.605469 C 2.429688 17.816406 2.539062 17.5 3.335938 16.914062 C 3.699219 16.648438 3.996094 16.359375 3.996094 16.269531 C 3.996094 15.921875 5.0625 13.945312 5.523438 13.433594 C 5.929688 12.988281 6.09375 12.898438 6.507812 12.898438 C 6.804688 12.898438 7.140625 13 7.34375 13.160156 L 7.679688 13.421875 L 7.9375 13.070312 C 8.171875 12.75 8.179688 12.671875 8.015625 12.289062 C 7.804688 11.78125 7.898438 11.152344 8.230469 10.851562 C 8.359375 10.734375 8.894531 10.4375 9.421875 10.1875 C 11.25 9.3125 11.375 9.148438 12.140625 6.554688 C 12.695312 4.679688 13.265625 3.515625 13.84375 3.085938 C 15.375 1.945312 18.597656 1.125 19.890625 1.554688 C 20.578125 1.773438 21.171875 2.46875 21.539062 3.46875 C 21.804688 4.210938 21.859375 4.578125 21.855469 5.886719 C 21.851562 8.011719 21.613281 9.039062 20.855469 10.167969 C 20.476562 10.742188 20.28125 11.15625 20.332031 11.289062 C 20.378906 11.410156 20.476562 11.980469 20.546875 12.558594 C 20.761719 14.25 21.515625 15.789062 22.414062 16.375 C 22.738281 16.585938 22.765625 16.582031 23.15625 16.253906 C 23.683594 15.8125 24.0625 15.1875 24.3125 14.359375 C 24.609375 13.355469 25.378906 12.976562 25.957031 13.554688 C 26.449219 14.046875 26.304688 14.421875 25.242188 15.445312 C 24.34375 16.304688 23.929688 16.980469 24.15625 17.207031 C 24.316406 17.367188 26.078125 17.007812 26.800781 16.664062 C 27.203125 16.476562 27.648438 16.320312 27.792969 16.320312 C 28.148438 16.320312 28.46875 16.664062 28.46875 17.046875 C 28.46875 17.5 27.996094 17.769531 27.203125 17.769531 C 26.828125 17.769531 25.910156 17.949219 25.164062 18.171875 C 23.394531 18.695312 22.5 18.765625 20.804688 18.507812 C 20.046875 18.390625 19.023438 18.296875 18.53125 18.296875 C 17.683594 18.296875 17.625 18.277344 17.546875 17.976562 C 17.40625 17.429688 17.570312 17.34375 18.542969 17.441406 C 19.117188 17.5 19.625 17.472656 19.96875 17.371094 L 20.507812 17.210938 L 19.96875 16.203125 C 19.410156 15.15625 18.875 14.476562 18.605469 14.476562 C 18.515625 14.476562 18.378906 14.757812 18.289062 15.101562 C 18.203125 15.445312 17.871094 16.28125 17.550781 16.960938 C 17.070312 17.96875 16.78125 18.371094 15.960938 19.191406 C 14.800781 20.347656 14.789062 20.289062 16.355469 20.882812 C 17.484375 21.3125 17.800781 21.492188 18.460938 22.109375 C 19.054688 22.65625 19.34375 23.15625 19.34375 23.617188 C 19.34375 23.945312 19.34375 23.945312 19.835938 23.75 C 20.109375 23.640625 20.515625 23.460938 20.734375 23.347656 C 20.953125 23.238281 21.28125 23.164062 21.460938 23.1875 C 21.945312 23.257812 22 23.992188 21.554688 24.28125 C 20.953125 24.679688 19.097656 25.265625 18.0625 25.398438 C 17.492188 25.46875 16.921875 25.570312 16.796875 25.617188 C 16.242188 25.828125 16.664062 26.179688 18.046875 26.660156 C 18.710938 26.890625 18.953125 27.257812 18.679688 27.589844 C 18.453125 27.859375 17.953125 27.824219 16.960938 27.46875 Z M 18.414062 27.265625 C 18.414062 27.199219 18.039062 27.023438 17.585938 26.867188 C 17.125 26.71875 16.617188 26.5 16.460938 26.390625 C 16.140625 26.164062 16.074219 25.652344 16.335938 25.4375 C 16.429688 25.359375 17.1875 25.179688 18.027344 25.039062 C 19.679688 24.765625 21.671875 23.992188 21.554688 23.667969 C 21.480469 23.46875 21.46875 23.46875 20.46875 23.890625 C 19.507812 24.289062 18.917969 24.328125 18.953125 23.996094 C 19.015625 23.398438 18.90625 23.121094 18.390625 22.5625 C 17.820312 21.953125 17.152344 21.554688 15.96875 21.125 C 15.1875 20.84375 14.449219 20.335938 14.449219 20.070312 C 14.449219 19.96875 14.617188 19.796875 14.820312 19.691406 C 15.976562 19.097656 17.238281 17.222656 17.894531 15.136719 C 18.09375 14.5 18.324219 14 18.429688 13.980469 C 18.796875 13.910156 19.59375 14.757812 20.195312 15.851562 C 20.523438 16.457031 20.796875 17.074219 20.796875 17.21875 C 20.796875 17.605469 20.054688 17.808594 18.871094 17.75 C 18.140625 17.710938 17.890625 17.742188 17.890625 17.867188 C 17.890625 17.992188 18.226562 18.035156 19.179688 18.039062 C 19.886719 18.039062 20.734375 18.101562 21.0625 18.175781 C 22.140625 18.425781 23.203125 18.351562 24.726562 17.921875 C 25.515625 17.695312 26.578125 17.46875 27.085938 17.410156 C 27.882812 17.320312 28.007812 17.273438 28.007812 17.046875 C 28.007812 16.660156 27.632812 16.65625 26.851562 17.027344 C 26.46875 17.210938 25.6875 17.429688 25.117188 17.507812 C 24.214844 17.640625 24.042969 17.632812 23.867188 17.460938 C 23.691406 17.28125 23.6875 17.171875 23.828125 16.6875 C 23.953125 16.269531 24.230469 15.894531 24.917969 15.242188 C 25.625 14.570312 25.835938 14.285156 25.800781 14.054688 C 25.738281 13.621094 25.128906 13.566406 24.84375 13.96875 C 24.726562 14.132812 24.632812 14.378906 24.632812 14.511719 C 24.632812 14.875 24.148438 15.742188 23.621094 16.328125 C 22.984375 17.03125 22.492188 17.039062 21.800781 16.355469 C 21.046875 15.605469 20.269531 13.890625 20.269531 12.96875 C 20.269531 12.742188 20.179688 12.210938 20.070312 11.789062 L 19.867188 11.019531 L 20.535156 9.984375 C 21.332031 8.75 21.492188 8.066406 21.515625 5.914062 C 21.523438 4.75 21.46875 4.234375 21.277344 3.6875 C 20.957031 2.773438 20.261719 2.003906 19.585938 1.824219 C 18.492188 1.53125 15.507812 2.34375 14.195312 3.285156 C 13.539062 3.761719 12.914062 5.019531 12.390625 6.953125 C 12.179688 7.710938 11.832031 8.625 11.609375 8.988281 C 11.25 9.578125 11.0625 9.726562 9.953125 10.289062 C 9.257812 10.636719 8.585938 11.023438 8.460938 11.140625 C 8.179688 11.410156 8.160156 12.144531 8.429688 12.367188 C 8.539062 12.460938 8.628906 12.585938 8.628906 12.65625 C 8.628906 12.761719 8.160156 13.460938 7.816406 13.867188 C 7.757812 13.9375 7.5 13.804688 7.242188 13.570312 C 6.640625 13.046875 6.382812 13.054688 5.847656 13.585938 C 5.46875 13.960938 4.261719 16.210938 4.261719 16.539062 C 4.261719 16.601562 3.96875 16.882812 3.601562 17.152344 C 2.859375 17.703125 2.785156 17.976562 3.203125 18.660156 C 3.5625 19.25 4.171875 19.585938 5.046875 19.683594 C 6.117188 19.804688 6.171875 19.828125 6.484375 20.386719 C 6.640625 20.664062 7.007812 21.054688 7.296875 21.242188 C 7.621094 21.453125 7.960938 21.84375 8.148438 22.21875 C 8.660156 23.210938 9.230469 23.910156 10.046875 24.554688 C 10.875 25.203125 11.742188 25.527344 13.523438 25.871094 C 14.140625 25.988281 15.105469 26.296875 15.667969 26.546875 C 16.230469 26.796875 16.914062 27.085938 17.1875 27.1875 C 17.773438 27.398438 18.414062 27.4375 18.414062 27.265625 Z M 18.414062 27.265625 "/><path fill-rule="nonzero" fill="rgb(100%, 100%, 100%)" fill-opacity="1" d="M 18.953125 1.671875 C 17.242188 1.769531 15.523438 2.289062 14.101562 3.242188 C 13.046875 4.136719 12.761719 5.589844 12.285156 6.828125 C 11.902344 7.953125 11.601562 9.296875 10.445312 9.867188 C 9.75 10.332031 8.878906 10.589844 8.304688 11.203125 C 8.015625 11.65625 8.148438 12.242188 8.460938 12.636719 C 8.285156 13.007812 8.042969 13.476562 7.714844 13.679688 C 7.203125 13.492188 6.65625 12.8125 6.082031 13.238281 C 5.273438 13.984375 4.78125 15.039062 4.324219 16.027344 C 4.109375 16.867188 3.101562 17.15625 2.847656 17.953125 C 2.96875 19.09375 4.132812 19.726562 5.175781 19.820312 C 5.679688 19.875 6.226562 20.023438 6.457031 20.519531 C 7.15625 21.289062 7.929688 22.007812 8.441406 22.929688 C 9.328125 24.199219 10.554688 25.273438 12.09375 25.640625 C 13.828125 26.054688 15.511719 26.625 17.171875 27.273438 C 17.539062 27.359375 18.054688 27.65625 18.371094 27.332031 C 18.382812 26.84375 17.695312 26.851562 17.390625 26.648438 C 17.007812 26.46875 16.289062 26.308594 16.332031 25.777344 C 16.4375 25.28125 17.070312 25.484375 17.414062 25.304688 C 18.816406 24.925781 20.367188 24.765625 21.570312 23.90625 C 21.820312 23.617188 21.398438 23.320312 21.125 23.515625 C 20.472656 23.6875 19.804688 24.109375 19.121094 23.992188 C 19.148438 23.09375 18.460938 22.421875 17.789062 21.917969 C 16.847656 21.148438 15.488281 21.046875 14.648438 20.148438 C 14.492188 19.898438 14.988281 19.804688 15.109375 19.65625 C 16.863281 18.40625 17.558594 16.257812 18.367188 14.351562 C 18.417969 14.144531 18.605469 13.992188 18.765625 14.222656 C 19.605469 15.0625 20.3125 16.125 20.640625 17.257812 C 20.199219 17.644531 19.507812 17.578125 18.949219 17.644531 C 18.609375 17.695312 18.015625 17.414062 17.882812 17.84375 C 18.015625 18.210938 18.601562 18.0625 18.929688 18.148438 C 20.632812 18.21875 22.34375 18.632812 24.035156 18.210938 C 25.304688 17.875 26.609375 17.675781 27.882812 17.351562 C 28.328125 17.226562 28.0625 16.601562 27.664062 16.671875 C 26.460938 16.929688 25.285156 17.523438 24.023438 17.421875 C 23.75 17.089844 24.007812 16.519531 24.25 16.21875 C 24.726562 15.484375 25.539062 14.972656 25.894531 14.171875 C 25.976562 13.601562 25.046875 13.390625 24.792969 13.894531 C 24.414062 14.460938 24.390625 15.203125 23.914062 15.734375 C 23.59375 16.242188 22.976562 16.945312 22.3125 16.5625 C 21.226562 15.8125 20.679688 14.429688 20.4375 13.164062 C 20.320312 12.445312 20.203125 11.726562 20.007812 11.03125 C 20.890625 9.78125 21.636719 8.359375 21.617188 6.796875 C 21.601562 5.4375 21.796875 3.90625 20.90625 2.761719 C 20.46875 2.128906 19.773438 1.570312 18.953125 1.671875 Z M 18.953125 1.671875 "/></g></svg>
