<svg width="64" height="64" viewBox="0 0 64 64" version="1.1"><defs><linearGradient id="linear-pattern-0" gradientUnits="userSpaceOnUse" x1="0" y1="0" x2="0" y2="1" gradientTransform="matrix(60, 0, 0, 56, 0, 4)"><stop offset="0" stop-color="#c10000" stop-opacity="1"/><stop offset="1" stop-color="#5f0000" stop-opacity="1"/></linearGradient></defs><path fill="url(#linear-pattern-0)" fill-opacity="1" d="M 36.21875 2.050781 L 62.027344 27.605469 C 64.402344 29.957031 64.417969 33.785156 62.058594 36.15625 L 36.460938 61.917969 C 34.105469 64.289062 30.269531 64.304688 27.894531 61.949219 L 2.085938 36.394531 C -0.289062 34.042969 -0.304688 30.214844 2.050781 27.84375 L 27.652344 2.082031 C 30.007812 -0.289062 33.84375 -0.304688 36.21875 2.050781 Z M 36.21875 2.050781 " /><g transform="matrix(1.0075098,0,0,1.0032698,16.221436,16.077397)"><path fill-rule="nonzero" fill="rgb(100%, 100%, 100%)" fill-opacity="1" d="M 4.160156 3.664062 C 3.140625 3.679688 2.191406 4.179688 1.601562 5.007812 C 1.007812 5.835938 0.84375 6.898438 1.15625 7.867188 L 7.121094 27.136719 C 7.539062 28.484375 8.789062 29.398438 10.203125 29.394531 C 11.609375 29.390625 12.851562 28.460938 13.261719 27.113281 L 16 18.039062 L 18.734375 27.113281 C 19.140625 28.46875 20.382812 29.394531 21.796875 29.398438 C 23.210938 29.40625 24.460938 28.484375 24.878906 27.136719 L 30.839844 7.867188 C 31.222656 6.757812 30.972656 5.53125 30.1875 4.660156 C 29.398438 3.792969 28.199219 3.421875 27.0625 3.695312 C 25.921875 3.964844 25.015625 4.835938 24.707031 5.96875 L 21.851562 15.199219 L 19.074219 5.992188 C 18.664062 4.636719 17.414062 3.710938 16 3.710938 C 14.585938 3.710938 13.335938 4.636719 12.925781 5.992188 L 10.148438 15.199219 L 7.292969 5.96875 C 6.886719 4.582031 5.605469 3.640625 4.160156 3.664062 Z M 4.160156 3.664062 "/></g></svg>
