<svg width="64" height="64" viewBox="0 0 64 64" version="1.1"><defs><linearGradient id="linear-pattern-0" gradientUnits="userSpaceOnUse" x1="0" y1="0" x2="0" y2="1" gradientTransform="matrix(60, 0, 0, 56, 0, 4)"><stop offset="0" stop-color="#0288cf" stop-opacity="1"/><stop offset="1" stop-color="#01486e" stop-opacity="1"/></linearGradient></defs><path fill="url(#linear-pattern-0)" fill-opacity="1" d="M 36.21875 2.050781 L 62.027344 27.605469 C 64.402344 29.957031 64.417969 33.785156 62.058594 36.15625 L 36.460938 61.917969 C 34.105469 64.289062 30.269531 64.304688 27.894531 61.949219 L 2.085938 36.394531 C -0.289062 34.042969 -0.304688 30.214844 2.050781 27.84375 L 27.652344 2.082031 C 30.007812 -0.289062 33.84375 -0.304688 36.21875 2.050781 Z M 36.21875 2.050781 " /><g transform="matrix(1.0075098,0,0,1.0032698,16.221436,16.077397)"><path fill-rule="nonzero" fill="rgb(100%, 100%, 100%)" fill-opacity="1" d="M 2.660156 3.1875 L 2.660156 4.574219 L 30.433594 4.574219 L 30.433594 3.1875 Z M 2.660156 19.78125 L 2.660156 21.167969 L 30.433594 21.167969 L 30.433594 19.78125 Z M 2.660156 19.78125 "/><path fill-rule="nonzero" fill="rgb(100%, 100%, 100%)" fill-opacity="1" d="M 2.660156 3.1875 L 2.660156 5.957031 L 15.007812 14.253906 L 30.433594 8.722656 L 30.433594 3.1875 Z M 2.660156 19.78125 L 2.660156 25.316406 L 18.085938 30.84375 L 30.433594 22.550781 L 30.433594 19.78125 Z M 2.660156 19.78125 "/><path fill-rule="nonzero" fill="rgb(100%, 100%, 100%)" fill-opacity="1" d="M 4.203125 7.335938 L 4.203125 10.105469 L 11.917969 10.105469 L 11.917969 7.335938 Z M 21.175781 10.105469 L 21.175781 11.484375 L 27.347656 11.484375 L 27.347656 10.105469 Z M 4.203125 11.484375 L 4.203125 12.871094 L 8.828125 12.871094 L 8.828125 11.484375 Z M 21.175781 12.871094 L 21.175781 14.253906 L 25.804688 14.253906 L 25.804688 12.871094 Z M 15.007812 23.929688 L 15.007812 26.695312 L 22.71875 26.695312 L 22.71875 23.929688 Z M 4.203125 26.695312 L 4.203125 28.078125 L 10.375 28.078125 L 10.375 26.695312 Z M 15.007812 28.078125 L 15.007812 29.464844 L 19.632812 29.464844 L 19.632812 28.078125 Z M 4.203125 29.464844 L 4.203125 30.84375 L 8.828125 30.84375 L 8.828125 29.464844 Z M 4.203125 29.464844 "/></g></svg>
