<svg width="64" height="64" viewBox="0 0 64 64" version="1.1"><defs><linearGradient id="linear-pattern-0" gradientUnits="userSpaceOnUse" x1="0" y1="0" x2="0" y2="1" gradientTransform="matrix(60, 0, 0, 56, 0, 4)"><stop offset="0" stop-color="#aaaa00" stop-opacity="1"/><stop offset="1" stop-color="#5c5c00" stop-opacity="1"/></linearGradient></defs><path fill="url(#linear-pattern-0)" fill-opacity="1" d="M 36.21875 2.050781 L 62.027344 27.605469 C 64.402344 29.957031 64.417969 33.785156 62.058594 36.15625 L 36.460938 61.917969 C 34.105469 64.289062 30.269531 64.304688 27.894531 61.949219 L 2.085938 36.394531 C -0.289062 34.042969 -0.304688 30.214844 2.050781 27.84375 L 27.652344 2.082031 C 30.007812 -0.289062 33.84375 -0.304688 36.21875 2.050781 Z M 36.21875 2.050781 " /><g transform="matrix(1.0075098,0,0,1.0032698,16.221436,16.077397)"><path fill-rule="nonzero" fill="rgb(100%, 100%, 100%)" fill-opacity="1" d="M 5.894531 5.601562 L 5.894531 8.078125 L 10.863281 10.550781 L 10.863281 11.375 L 15.832031 11.375 L 15.832031 10.550781 L 10.863281 8.078125 L 33.363281 8.078125 C 32.992188 7.21875 32.5625 6.390625 32.078125 5.601562 Z M 5.894531 5.601562 "/><path fill-rule="nonzero" fill="rgb(100%, 100%, 100%)" fill-opacity="1" d="M 15.832031 19.621094 L 15.832031 20.445312 L 20.796875 22.917969 L -1.699219 22.917969 C -1.332031 23.777344 -0.898438 24.601562 -0.417969 25.390625 L 25.769531 25.390625 L 25.769531 22.917969 L 20.800781 20.445312 L 20.800781 19.621094 Z M 15.832031 19.621094 "/><path fill-rule="nonzero" fill="rgb(100%, 100%, 100%)" fill-opacity="1" d="M 10.863281 10.550781 L 10.863281 20.445312 L 20.800781 20.445312 L 20.800781 10.550781 M 13.347656 13.023438 L 18.316406 13.023438 L 18.316406 17.972656 L 13.347656 17.972656 "/></g></svg>
