<svg width="64" height="64" viewBox="0 0 64 64" version="1.1"><defs><linearGradient id="linear-pattern-0" gradientUnits="userSpaceOnUse" x1="0" y1="0" x2="0" y2="1" gradientTransform="matrix(60, 0, 0, 56, 0, 4)"><stop offset="0" stop-color="#7795ab" stop-opacity="1"/><stop offset="1" stop-color="#3b4f5f" stop-opacity="1"/></linearGradient></defs><path fill="url(#linear-pattern-0)" fill-opacity="1" d="M 36.21875 2.050781 L 62.027344 27.605469 C 64.402344 29.957031 64.417969 33.785156 62.058594 36.15625 L 36.460938 61.917969 C 34.105469 64.289062 30.269531 64.304688 27.894531 61.949219 L 2.085938 36.394531 C -0.289062 34.042969 -0.304688 30.214844 2.050781 27.84375 L 27.652344 2.082031 C 30.007812 -0.289062 33.84375 -0.304688 36.21875 2.050781 Z M 36.21875 2.050781 " /><g transform="matrix(1.0075098,0,0,1.0032698,16.221436,16.077397)"><path fill-rule="nonzero" fill="rgb(100%, 100%, 100%)" fill-opacity="1" d="M 9.828125 13.140625 C 9.546875 13.140625 9.304688 13.296875 9.148438 13.5 C 8.992188 13.699219 8.898438 13.941406 8.820312 14.210938 C 8.527344 15.464844 8.453125 16.640625 8.195312 17.878906 C 8.125 18.109375 8.046875 18.28125 7.976562 18.375 C 7.90625 18.464844 7.882812 18.472656 7.828125 18.472656 C 7.722656 18.472656 7.640625 18.414062 7.515625 18.210938 C 7.386719 18.007812 7.265625 17.6875 7.140625 17.351562 C 7.015625 17.015625 6.886719 16.671875 6.703125 16.378906 C 6.515625 16.085938 6.226562 15.804688 5.828125 15.804688 L 0.515625 15.804688 C 0.492188 16.027344 0.503906 16.25 0.492188 16.472656 L 5.828125 16.472656 C 5.929688 16.472656 6.007812 16.527344 6.140625 16.734375 C 6.265625 16.9375 6.390625 17.257812 6.515625 17.59375 C 6.640625 17.925781 6.765625 18.273438 6.949219 18.566406 C 7.132812 18.859375 7.429688 19.140625 7.824219 19.140625 C 8.101562 19.140625 8.347656 18.976562 8.503906 18.78125 C 8.65625 18.578125 8.753906 18.335938 8.832031 18.066406 C 9.125 16.8125 9.199219 15.640625 9.460938 14.398438 C 9.523438 14.171875 9.605469 13.996094 9.675781 13.90625 C 9.746094 13.8125 9.769531 13.804688 9.828125 13.804688 C 9.882812 13.804688 9.929688 13.824219 10.019531 13.921875 C 10.109375 14.023438 10.210938 14.203125 10.3125 14.433594 C 10.753906 15.671875 10.96875 16.90625 11.390625 18.101562 C 11.5 18.367188 11.625 18.609375 11.796875 18.800781 C 11.96875 18.992188 12.210938 19.140625 12.492188 19.140625 C 12.773438 19.140625 13.015625 18.980469 13.171875 18.78125 C 13.324219 18.582031 13.421875 18.339844 13.5 18.070312 C 13.789062 16.8125 13.867188 15.640625 14.125 14.402344 C 14.191406 14.171875 14.273438 14 14.34375 13.90625 C 14.414062 13.8125 14.4375 13.808594 14.492188 13.808594 C 14.546875 13.808594 14.597656 13.828125 14.6875 13.925781 C 14.777344 14.027344 14.882812 14.203125 14.976562 14.4375 C 15.421875 15.675781 15.636719 16.910156 16.054688 18.101562 C 16.171875 18.371094 16.296875 18.609375 16.464844 18.804688 C 16.632812 18.992188 16.878906 19.140625 17.15625 19.140625 C 17.4375 19.140625 17.683594 18.984375 17.835938 18.78125 C 17.992188 18.585938 18.085938 18.34375 18.167969 18.070312 C 18.460938 16.816406 18.535156 15.640625 18.792969 14.40625 C 18.859375 14.175781 18.9375 14 19.007812 13.90625 C 19.078125 13.820312 19.101562 13.8125 19.160156 13.8125 C 19.21875 13.8125 19.265625 13.828125 19.351562 13.929688 C 19.445312 14.03125 19.546875 14.207031 19.644531 14.4375 C 20.089844 15.679688 20.304688 16.914062 20.726562 18.105469 C 20.835938 18.375 20.960938 18.613281 21.132812 18.804688 C 21.304688 18.996094 21.546875 19.144531 21.828125 19.144531 C 22.105469 19.144531 22.351562 18.984375 22.507812 18.785156 C 22.660156 18.585938 22.757812 18.34375 22.835938 18.070312 C 23.125 16.820312 23.203125 15.644531 23.460938 14.40625 C 23.527344 14.179688 23.609375 14 23.679688 13.910156 C 23.75 13.820312 23.773438 13.8125 23.828125 13.8125 C 23.929688 13.8125 24.015625 13.871094 24.152344 14.078125 C 24.285156 14.28125 24.417969 14.601562 24.550781 14.9375 C 24.6875 15.273438 24.820312 15.617188 25.011719 15.910156 C 25.203125 16.203125 25.496094 16.476562 25.890625 16.476562 L 31.15625 16.476562 C 31.15625 16.257812 31.152344 16.03125 31.140625 15.8125 L 25.890625 15.8125 C 25.789062 15.8125 25.699219 15.75 25.5625 15.546875 C 25.429688 15.339844 25.296875 15.023438 25.164062 14.6875 C 25.03125 14.351562 24.898438 14.007812 24.703125 13.710938 C 24.515625 13.421875 24.21875 13.144531 23.820312 13.144531 C 23.539062 13.144531 23.296875 13.304688 23.140625 13.503906 C 22.984375 13.703125 22.890625 13.945312 22.8125 14.21875 C 22.519531 15.46875 22.445312 16.644531 22.183594 17.882812 C 22.117188 18.113281 22.039062 18.289062 21.96875 18.378906 C 21.898438 18.46875 21.875 18.476562 21.816406 18.476562 C 21.761719 18.476562 21.710938 18.460938 21.625 18.359375 C 21.53125 18.257812 21.429688 18.078125 21.332031 17.851562 C 20.890625 16.609375 20.671875 15.375 20.25 14.183594 C 20.140625 13.914062 20.015625 13.675781 19.84375 13.484375 C 19.671875 13.292969 19.429688 13.140625 19.152344 13.140625 C 18.871094 13.140625 18.625 13.304688 18.472656 13.5 C 18.320312 13.703125 18.222656 13.945312 18.140625 14.21875 C 17.851562 15.46875 17.773438 16.640625 17.515625 17.882812 C 17.453125 18.109375 17.367188 18.285156 17.300781 18.375 C 17.230469 18.46875 17.203125 18.476562 17.148438 18.476562 C 17.09375 18.476562 17.046875 18.460938 16.953125 18.359375 C 16.867188 18.257812 16.761719 18.078125 16.664062 17.847656 C 16.21875 16.609375 16.007812 15.375 15.585938 14.179688 C 15.472656 13.914062 15.347656 13.671875 15.179688 13.480469 C 15.007812 13.289062 14.765625 13.140625 14.484375 13.140625 C 14.203125 13.140625 13.960938 13.300781 13.804688 13.5 C 13.648438 13.703125 13.554688 13.945312 13.476562 14.214844 C 13.183594 15.46875 13.109375 16.640625 12.851562 17.882812 C 12.78125 18.109375 12.703125 18.28125 12.632812 18.375 C 12.5625 18.46875 12.539062 18.476562 12.484375 18.476562 C 12.425781 18.476562 12.378906 18.457031 12.289062 18.355469 C 12.199219 18.253906 12.09375 18.078125 12 17.84375 C 11.554688 16.605469 11.339844 15.375 10.917969 14.179688 C 10.804688 13.910156 10.679688 13.671875 10.507812 13.476562 C 10.339844 13.289062 10.097656 13.140625 9.816406 13.140625 Z M 9.828125 13.140625 "/></g></svg>
