<svg width="64" height="64" viewBox="0 0 64 64" version="1.1"><defs><linearGradient id="linear-pattern-0" gradientUnits="userSpaceOnUse" x1="0" y1="0" x2="0" y2="1" gradientTransform="matrix(60, 0, 0, 56, 0, 4)"><stop offset="0" stop-color="#8900e4" stop-opacity="1"/><stop offset="1" stop-color="#42006e" stop-opacity="1"/></linearGradient></defs><path fill="url(#linear-pattern-0)" fill-opacity="1" d="M 36.21875 2.050781 L 62.027344 27.605469 C 64.402344 29.957031 64.417969 33.785156 62.058594 36.15625 L 36.460938 61.917969 C 34.105469 64.289062 30.269531 64.304688 27.894531 61.949219 L 2.085938 36.394531 C -0.289062 34.042969 -0.304688 30.214844 2.050781 27.84375 L 27.652344 2.082031 C 30.007812 -0.289062 33.84375 -0.304688 36.21875 2.050781 Z M 36.21875 2.050781 " /><g transform="matrix(1.0075098,0,0,1.0032698,16.221436,16.077397)"><path fill-rule="nonzero" fill="rgb(100%, 100%, 100%)" fill-opacity="1" d="M 10.664062 9.335938 L 10.664062 16 C 10.664062 16.734375 10.070312 17.335938 9.335938 17.335938 C 8.597656 17.335938 8 16.734375 8 16 L 8 9.335938 C 8.007812 6.828125 10.347656 5.335938 12.664062 5.335938 C 14.171875 5.335938 15.257812 5.789062 16 6.445312 C 16.742188 5.789062 17.828125 5.335938 19.335938 5.335938 C 21.652344 5.335938 23.992188 6.828125 24 9.332031 L 24 16 C 24 16.734375 23.402344 17.335938 22.664062 17.335938 C 21.929688 17.335938 21.335938 16.734375 21.335938 16 L 21.335938 9.332031 C 21.253906 8.320312 20.210938 8 19.335938 8 C 18.46875 8 17.421875 8.328125 17.335938 9.332031 L 17.335938 13.335938 C 17.335938 14.070312 16.734375 14.664062 16 14.664062 C 15.265625 14.664062 14.664062 14.070312 14.664062 13.335938 L 14.664062 9.335938 C 14.585938 8.320312 13.539062 8 12.664062 8 C 11.804688 8 10.757812 8.328125 10.664062 9.335938 Z M 10.664062 9.335938 "/><path fill-rule="nonzero" fill="rgb(100%, 100%, 100%)" fill-opacity="1" d="M 21.335938 1.335938 L 10.664062 1.335938 C 5.429688 1.335938 1.445312 5.367188 1.335938 10.652344 L 1.335938 17.335938 C 1.335938 24.152344 6.078125 30.664062 13.335938 30.664062 L 20.640625 30.664062 C 22.496094 30.664062 24 29.164062 24 27.304688 C 24 25.484375 22.488281 24.046875 20.664062 24 C 20.289062 23.992188 19.84375 23.996094 19.351562 24 C 16.582031 24.03125 12.359375 24.074219 11.046875 21.726562 C 17.078125 22.835938 30.664062 24.664062 30.664062 14.664062 L 30.664062 10.664062 C 30.542969 5.382812 26.578125 1.335938 21.335938 1.335938 Z M 4 17.335938 L 4 10.652344 C 4.15625 6.820312 6.851562 4 10.664062 4 L 21.335938 4 C 25.15625 4 27.835938 6.835938 28 10.664062 L 28 14.664062 C 28 22.664062 13.792969 19.742188 9.65625 18.707031 C 8.828125 18.5 8 19.148438 8 20 C 8 21.445312 8.367188 22.679688 9.148438 23.671875 C 11.378906 26.523438 15.859375 26.5625 19.359375 26.601562 C 19.8125 26.601562 20.25 26.609375 20.660156 26.617188 C 21.035156 26.625 21.335938 26.929688 21.335938 27.304688 C 21.335938 27.6875 21.023438 28 20.640625 28 L 13.335938 28 C 7.539062 28 4 22.6875 4 17.335938 Z M 4 17.335938 "/></g></svg>
