<svg width="64" height="64" viewBox="0 0 64 64" version="1.1"><defs><linearGradient id="linear-pattern-0" gradientUnits="userSpaceOnUse" x1="0" y1="0" x2="0" y2="1" gradientTransform="matrix(60, 0, 0, 56, 0, 4)"><stop offset="0" stop-color="#8900e4" stop-opacity="1"/><stop offset="1" stop-color="#42006e" stop-opacity="1"/></linearGradient></defs><path fill="url(#linear-pattern-0)" fill-opacity="1" d="M 36.21875 2.050781 L 62.027344 27.605469 C 64.402344 29.957031 64.417969 33.785156 62.058594 36.15625 L 36.460938 61.917969 C 34.105469 64.289062 30.269531 64.304688 27.894531 61.949219 L 2.085938 36.394531 C -0.289062 34.042969 -0.304688 30.214844 2.050781 27.84375 L 27.652344 2.082031 C 30.007812 -0.289062 33.84375 -0.304688 36.21875 2.050781 Z M 36.21875 2.050781 " /><g transform="matrix(1.0075098,0,0,1.0032698,16.221436,16.077397)"><path fill-rule="nonzero" fill="rgb(100%, 100%, 100%)" fill-opacity="1" d="M 27.523438 4.03125 C 27.679688 3.445312 28.078125 2.953125 28.601562 2.667969 C 29.136719 2.371094 29.761719 2.304688 30.339844 2.46875 C 30.929688 2.632812 31.421875 3.023438 31.710938 3.546875 C 32.007812 4.078125 32.078125 4.695312 31.910156 5.273438 L 25.464844 27.710938 C 24.769531 30.128906 23.289062 30.265625 22.15625 28.019531 L 16 15.789062 L 9.84375 28.019531 C 8.710938 30.265625 7.230469 30.128906 6.535156 27.710938 L 0.0898438 5.273438 C -0.078125 4.695312 -0.0078125 4.078125 0.289062 3.546875 C 0.578125 3.023438 1.070312 2.632812 1.660156 2.46875 C 2.238281 2.304688 2.863281 2.371094 3.398438 2.667969 C 3.921875 2.953125 4.320312 3.445312 4.476562 4.03125 L 8.96875 19.609375 L 13.953125 9.699219 C 15.082031 7.453125 16.917969 7.453125 18.046875 9.699219 L 23.03125 19.609375 Z M 27.523438 4.03125 "/></g></svg>
