<svg width="64" height="64" viewBox="0 0 64 64" version="1.1"><defs><linearGradient id="linear-pattern-0" gradientUnits="userSpaceOnUse" x1="0" y1="0" x2="0" y2="1" gradientTransform="matrix(60, 0, 0, 56, 0, 4)"><stop offset="0" stop-color="#3067ff" stop-opacity="1"/><stop offset="1" stop-color="#002ca6" stop-opacity="1"/></linearGradient></defs><path fill="url(#linear-pattern-0)" fill-opacity="1" d="M 36.21875 2.050781 L 62.027344 27.605469 C 64.402344 29.957031 64.417969 33.785156 62.058594 36.15625 L 36.460938 61.917969 C 34.105469 64.289062 30.269531 64.304688 27.894531 61.949219 L 2.085938 36.394531 C -0.289062 34.042969 -0.304688 30.214844 2.050781 27.84375 L 27.652344 2.082031 C 30.007812 -0.289062 33.84375 -0.304688 36.21875 2.050781 Z M 36.21875 2.050781 " /><g transform="matrix(1.0075098,0,0,1.0032698,16.221436,16.077397)"><path fill-rule="evenodd" fill="rgb(100%, 100%, 100%)" fill-opacity="1" d="M -0.0625 25 L 31.9375 25 L 31.9375 29 L -0.0625 29 Z M -0.0625 25 "/><path fill-rule="evenodd" fill="rgb(100%, 100%, 100%)" fill-opacity="1" d="M 6.085938 19.46875 L 3.511719 19.46875 L 0 3.078125 L 2.882812 3.078125 L 4.820312 12.726562 C 4.992188 13.632812 5.085938 14.15625 5.101562 14.296875 C 5.148438 13.949219 5.257812 13.429688 5.429688 12.726562 L 7.84375 3.078125 L 10.230469 3.078125 L 12.6875 12.703125 C 12.84375 13.265625 12.953125 13.785156 13.015625 14.269531 C 13.078125 13.820312 13.171875 13.304688 13.296875 12.726562 L 15.242188 3.078125 L 18.070312 3.078125 L 14.535156 19.46875 L 11.960938 19.46875 L 9.316406 9.332031 C 9.144531 8.722656 9.039062 8.214844 8.992188 7.8125 C 8.941406 8.1875 8.839844 8.683594 8.683594 9.308594 Z M 26.242188 19.75 C 24.742188 19.75 23.453125 19.367188 22.367188 18.609375 C 21.28125 17.855469 20.515625 16.820312 20.0625 15.511719 L 22.660156 14.554688 C 23 15.316406 23.492188 15.929688 24.132812 16.390625 C 24.773438 16.851562 25.507812 17.078125 26.335938 17.078125 C 27.195312 17.078125 27.875 16.882812 28.382812 16.492188 C 28.890625 16.101562 29.144531 15.539062 29.144531 14.808594 C 29.144531 14.511719 29.074219 14.234375 28.933594 13.976562 C 28.792969 13.71875 28.632812 13.507812 28.453125 13.335938 C 28.273438 13.164062 28.003906 12.992188 27.648438 12.820312 C 27.289062 12.648438 26.984375 12.511719 26.734375 12.410156 C 26.484375 12.308594 26.117188 12.179688 25.632812 12.023438 C 25.007812 11.804688 24.53125 11.632812 24.195312 11.507812 C 23.859375 11.382812 23.429688 11.175781 22.90625 10.890625 C 22.382812 10.601562 21.984375 10.304688 21.710938 10.007812 C 21.4375 9.714844 21.195312 9.320312 20.984375 8.828125 C 20.773438 8.335938 20.671875 7.792969 20.671875 7.199219 C 20.671875 5.953125 21.15625 4.90625 22.121094 4.0625 C 23.085938 3.21875 24.398438 2.800781 26.054688 2.800781 C 27.429688 2.800781 28.566406 3.125 29.472656 3.773438 C 30.375 4.417969 30.984375 5.265625 31.296875 6.3125 L 28.769531 7.15625 C 28.269531 6.03125 27.304688 5.46875 25.867188 5.46875 C 25.132812 5.46875 24.558594 5.621094 24.148438 5.925781 C 23.734375 6.230469 23.523438 6.664062 23.523438 7.226562 C 23.523438 7.601562 23.6875 7.933594 24.007812 8.230469 C 24.328125 8.527344 24.671875 8.75 25.035156 8.898438 C 25.402344 9.046875 25.945312 9.238281 26.664062 9.472656 C 27.132812 9.644531 27.484375 9.773438 27.726562 9.859375 C 27.96875 9.945312 28.308594 10.085938 28.746094 10.289062 C 29.183594 10.492188 29.527344 10.679688 29.773438 10.839844 C 30.023438 11.003906 30.3125 11.226562 30.632812 11.507812 C 30.949219 11.789062 31.195312 12.082031 31.367188 12.386719 C 31.539062 12.6875 31.6875 13.046875 31.8125 13.460938 C 31.9375 13.875 32 14.328125 32 14.808594 C 32 16.335938 31.457031 17.542969 30.375 18.425781 C 29.289062 19.304688 27.914062 19.75 26.242188 19.75 Z M 26.242188 19.75 "/></g></svg>
