<svg width="64" height="64" viewBox="0 0 64 64" version="1.1"><defs><linearGradient id="linear-pattern-0" gradientUnits="userSpaceOnUse" x1="0" y1="0" x2="0" y2="1" gradientTransform="matrix(60, 0, 0, 56, 0, 4)"><stop offset="0" stop-color="#00983a" stop-opacity="1"/><stop offset="1" stop-color="#004a1c" stop-opacity="1"/></linearGradient></defs><path fill="url(#linear-pattern-0)" fill-opacity="1" d="M 36.21875 2.050781 L 62.027344 27.605469 C 64.402344 29.957031 64.417969 33.785156 62.058594 36.15625 L 36.460938 61.917969 C 34.105469 64.289062 30.269531 64.304688 27.894531 61.949219 L 2.085938 36.394531 C -0.289062 34.042969 -0.304688 30.214844 2.050781 27.84375 L 27.652344 2.082031 C 30.007812 -0.289062 33.84375 -0.304688 36.21875 2.050781 Z M 36.21875 2.050781 " /><g transform="matrix(1.0075098,0,0,1.0032698,16.221436,16.077397)"><path fill-rule="evenodd" fill="rgb(100%, 100%, 100%)" fill-opacity="1" d="M 16.085938 0 C 15.398438 -0.015625 14.714844 0.152344 14.117188 0.484375 L 3.023438 6.667969 C 1.859375 7.320312 1.140625 8.515625 1.140625 9.820312 L 1.140625 22.179688 C 1.140625 23.480469 1.859375 24.679688 3.023438 25.332031 L 14.117188 31.511719 C 15.28125 32.164062 16.71875 32.164062 17.882812 31.511719 L 28.972656 25.332031 C 30.140625 24.679688 30.859375 23.480469 30.859375 22.179688 L 30.859375 9.820312 C 30.859375 8.515625 30.140625 7.316406 28.972656 6.664062 L 17.882812 0.484375 C 17.335938 0.179688 16.71875 0.015625 16.089844 0 Z M 20.328125 6.859375 C 18.613281 6.859375 17.070312 7.734375 15.984375 9.0625 C 14.90625 7.734375 13.359375 6.859375 11.640625 6.859375 C 8.367188 6.859375 5.714844 9.882812 5.714844 13.609375 C 5.714844 14.613281 5.867188 15.578125 6.140625 16.5 C 6.140625 16.5 6.390625 17.328125 6.605469 17.789062 C 9.105469 23.636719 15.984375 27.429688 15.984375 27.429688 C 15.984375 27.429688 22.867188 23.636719 25.363281 17.789062 C 27.859375 11.9375 25.6875 17.007812 25.828125 16.5 C 26.089844 15.574219 26.257812 14.613281 26.257812 13.609375 C 26.257812 9.882812 23.601562 6.859375 20.328125 6.859375 Z M 20.328125 6.859375 "/></g></svg>
