<svg width="64" height="64" viewBox="0 0 64 64" version="1.1"><defs><linearGradient id="linear-pattern-0" gradientUnits="userSpaceOnUse" x1="0" y1="0" x2="0" y2="1" gradientTransform="matrix(60, 0, 0, 56, 0, 4)"><stop offset="0" stop-color="#d00068" stop-opacity="1"/><stop offset="1" stop-color="#6e0037" stop-opacity="1"/></linearGradient></defs><path fill="url(#linear-pattern-0)" fill-opacity="1" d="M 36.21875 2.050781 L 62.027344 27.605469 C 64.402344 29.957031 64.417969 33.785156 62.058594 36.15625 L 36.460938 61.917969 C 34.105469 64.289062 30.269531 64.304688 27.894531 61.949219 L 2.085938 36.394531 C -0.289062 34.042969 -0.304688 30.214844 2.050781 27.84375 L 27.652344 2.082031 C 30.007812 -0.289062 33.84375 -0.304688 36.21875 2.050781 Z M 36.21875 2.050781 " /><g transform="matrix(1.0075098,0,0,1.0032698,16.221436,16.077397)"><path fill-rule="nonzero" fill="rgb(100%, 100%, 100%)" fill-opacity="1" d="M 7.886719 3.140625 C 6.148438 3.140625 4.742188 4.539062 4.742188 6.261719 C 4.746094 7.300781 5.269531 8.273438 6.140625 8.851562 L 6.003906 9.382812 C 3.914062 9.382812 2.226562 11.058594 2.226562 13.132812 L 2.226562 14.382812 L 13.554688 14.382812 L 13.554688 13.132812 C 13.554688 11.058594 11.867188 9.382812 9.78125 9.382812 L 9.644531 8.851562 C 10.515625 8.273438 11.039062 7.300781 11.039062 6.261719 C 11.039062 4.539062 9.632812 3.140625 7.894531 3.140625 Z M 24.242188 3.140625 C 22.507812 3.140625 21.101562 4.539062 21.101562 6.261719 C 21.101562 7.300781 21.625 8.273438 22.496094 8.851562 L 22.359375 9.382812 C 20.273438 9.382812 18.585938 11.058594 18.585938 13.132812 L 18.585938 14.382812 L 29.910156 14.382812 L 29.910156 13.132812 C 29.910156 11.058594 28.226562 9.382812 26.136719 9.382812 L 26 8.851562 C 26.871094 8.273438 27.394531 7.300781 27.398438 6.261719 C 27.398438 4.539062 25.992188 3.140625 24.25 3.140625 Z M 7.886719 19.382812 C 6.148438 19.382812 4.742188 20.78125 4.742188 22.503906 C 4.746094 23.542969 5.269531 24.515625 6.140625 25.09375 L 6.003906 25.625 C 3.914062 25.625 2.226562 27.300781 2.226562 29.375 L 2.226562 30.625 L 13.554688 30.625 L 13.554688 29.375 C 13.554688 27.300781 11.867188 25.625 9.78125 25.625 L 9.644531 25.09375 C 10.515625 24.515625 11.039062 23.542969 11.039062 22.503906 C 11.039062 20.78125 9.632812 19.382812 7.894531 19.382812 Z M 24.242188 19.382812 C 22.507812 19.382812 21.101562 20.78125 21.101562 22.503906 C 21.101562 23.542969 21.625 24.515625 22.496094 25.09375 L 22.359375 25.625 C 20.273438 25.625 18.585938 27.300781 18.585938 29.375 L 18.585938 30.625 L 29.910156 30.625 L 29.910156 29.375 C 29.910156 27.300781 28.226562 25.625 26.136719 25.625 L 26 25.09375 C 26.871094 24.515625 27.394531 23.542969 27.398438 22.503906 C 27.398438 20.78125 25.992188 19.382812 24.25 19.382812 Z M 24.242188 19.382812 "/></g></svg>
