<svg width="64" height="64" viewBox="0 0 64 64" version="1.1"><defs><linearGradient id="linear-pattern-0" gradientUnits="userSpaceOnUse" x1="0" y1="0" x2="0" y2="1" gradientTransform="matrix(60, 0, 0, 56, 0, 4)"><stop offset="0" stop-color="#ec7700" stop-opacity="1"/><stop offset="1" stop-color="#773c00" stop-opacity="1"/></linearGradient></defs><path fill="url(#linear-pattern-0)" fill-opacity="1" d="M 36.21875 2.050781 L 62.027344 27.605469 C 64.402344 29.957031 64.417969 33.785156 62.058594 36.15625 L 36.460938 61.917969 C 34.105469 64.289062 30.269531 64.304688 27.894531 61.949219 L 2.085938 36.394531 C -0.289062 34.042969 -0.304688 30.214844 2.050781 27.84375 L 27.652344 2.082031 C 30.007812 -0.289062 33.84375 -0.304688 36.21875 2.050781 Z M 36.21875 2.050781 " /><g transform="matrix(1.0075098,0,0,1.0032698,16.221436,16.077397)"><path fill-rule="evenodd" fill="rgb(100%, 100%, 100%)" fill-opacity="1" d="M 27.8125 21.714844 L 23.238281 26.285156 L 28.222656 31.421875 C 28.398438 31.320312 28.566406 31.203125 28.710938 31.058594 L 30.953125 28.820312 C 32.007812 28.011719 32 26.398438 32 26.3125 L 32 25.601562 Z M 17.140625 26.285156 L 17.140625 21.714844 L 21.714844 17.140625 L 21.714844 21.714844 L 27.8125 21.714844 L 23.238281 26.285156 Z M 12.953125 17.140625 L 17.140625 21.714844 L 21.714844 17.140625 L 17.523438 12.570312 L 11.429688 12.570312 L 11.429688 8 L 3.777344 0.578125 C 3.601562 0.679688 3.433594 0.796875 3.289062 0.941406 L 1.046875 3.179688 C -0.0078125 3.988281 0 5.601562 0 5.6875 L 0 6.398438 L 6.859375 12.570312 L 6.859375 17.140625 Z M 12.953125 17.140625 "/></g></svg>
