<svg width="64" height="64" viewBox="0 0 64 64" version="1.1"><defs><linearGradient id="linear-pattern-0" gradientUnits="userSpaceOnUse" x1="0" y1="0" x2="0" y2="1" gradientTransform="matrix(60, 0, 0, 56, 0, 4)"><stop offset="0" stop-color="#6926fc" stop-opacity="1"/><stop offset="1" stop-color="#3702ab" stop-opacity="1"/></linearGradient></defs><path fill="url(#linear-pattern-0)" fill-opacity="1" d="M 36.21875 2.050781 L 62.027344 27.605469 C 64.402344 29.957031 64.417969 33.785156 62.058594 36.15625 L 36.460938 61.917969 C 34.105469 64.289062 30.269531 64.304688 27.894531 61.949219 L 2.085938 36.394531 C -0.289062 34.042969 -0.304688 30.214844 2.050781 27.84375 L 27.652344 2.082031 C 30.007812 -0.289062 33.84375 -0.304688 36.21875 2.050781 Z M 36.21875 2.050781 " /><g transform="matrix(1.0075098,0,0,1.0032698,16.221436,16.077397)"><path fill-rule="nonzero" fill="rgb(100%, 100%, 100%)" fill-opacity="1" d="M 16 0 C 14.65625 0 13.5625 0.742188 12.835938 1.757812 C 12.363281 1.554688 11.890625 1.335938 11.335938 1.335938 C 9.835938 1.335938 8.566406 2.1875 7.882812 3.414062 C 7.699219 3.386719 7.53125 3.335938 7.335938 3.335938 C 5.132812 3.335938 3.335938 5.132812 3.335938 7.335938 C 3.335938 7.433594 3.359375 7.523438 3.367188 7.621094 C 1.8125 8.171875 0.664062 9.59375 0.664062 11.335938 C 0.664062 12.046875 0.902344 12.683594 1.230469 13.257812 C 0.515625 13.980469 0 14.90625 0 16 C 0 17.242188 0.636719 18.277344 1.519531 19.007812 C 1.433594 19.328125 1.335938 19.648438 1.335938 20 C 1.335938 21.734375 2.476562 23.164062 4.03125 23.710938 C 4.023438 23.8125 4 23.898438 4 24 C 4 26.199219 5.800781 28 8 28 L 8.007812 28 C 8.714844 29.15625 9.890625 30 11.335938 30 C 11.742188 30 12.09375 29.84375 12.460938 29.722656 C 13.109375 31.054688 14.421875 32 16 32 C 17.578125 32 18.890625 31.054688 19.539062 29.722656 C 19.90625 29.84375 20.257812 30 20.664062 30 C 22.109375 30 23.285156 29.15625 23.992188 28 L 24 28 C 26.199219 28 28 26.199219 28 24 C 28 23.898438 27.976562 23.8125 27.96875 23.710938 C 29.523438 23.164062 30.664062 21.738281 30.664062 20 C 30.664062 19.648438 30.566406 19.328125 30.480469 19.007812 C 31.363281 18.277344 32 17.242188 32 16 C 32 14.90625 31.484375 13.980469 30.769531 13.257812 C 31.097656 12.683594 31.335938 12.046875 31.335938 11.335938 C 31.335938 9.835938 30.476562 8.566406 29.25 7.882812 C 29.28125 7.699219 29.335938 7.53125 29.335938 7.335938 C 29.335938 5.132812 27.53125 3.335938 25.335938 3.335938 C 25.132812 3.335938 24.96875 3.386719 24.78125 3.414062 C 24.101562 2.1875 22.828125 1.335938 21.335938 1.335938 C 20.597656 1.335938 19.949219 1.585938 19.363281 1.929688 C 18.664062 0.789062 17.4375 0 16 0 Z M 16 1.335938 C 17.15625 1.335938 18.117188 2.066406 18.492188 3.085938 L 18.835938 4.007812 L 19.566406 3.351562 C 20.046875 2.914062 20.679688 2.667969 21.335938 2.664062 C 22.4375 2.664062 23.421875 3.347656 23.8125 4.378906 L 24.03125 4.941406 L 24.613281 4.78125 C 24.867188 4.710938 25.101562 4.664062 25.335938 4.664062 C 26.8125 4.664062 28 5.851562 28 7.335938 C 28 7.566406 27.953125 7.800781 27.886719 8.054688 L 27.726562 8.636719 L 28.289062 8.851562 C 29.320312 9.242188 30 10.234375 30 11.335938 C 30 11.933594 29.796875 12.480469 29.449219 12.929688 L 29.046875 13.46875 L 29.585938 13.867188 C 30.242188 14.359375 30.664062 15.121094 30.664062 16 C 30.664062 16.953125 30.164062 17.773438 29.414062 18.25 L 28.953125 18.542969 L 29.148438 19.054688 C 29.265625 19.355469 29.335938 19.671875 29.335938 20 C 29.335938 21.292969 28.40625 22.398438 27.132812 22.617188 L 26.445312 22.742188 L 26.59375 23.421875 C 26.640625 23.613281 26.664062 23.808594 26.664062 24 C 26.664062 25.480469 25.480469 26.664062 24 26.664062 C 24.007812 26.664062 23.9375 26.65625 23.78125 26.644531 L 23.308594 26.605469 L 23.117188 27.046875 C 22.703125 28.027344 21.734375 28.667969 20.664062 28.664062 C 20.242188 28.664062 19.84375 28.5625 19.476562 28.371094 L 18.765625 28.011719 L 18.535156 28.769531 C 18.203125 29.867188 17.203125 30.664062 16 30.664062 C 14.796875 30.664062 13.796875 29.867188 13.464844 28.769531 L 13.234375 28.015625 L 12.523438 28.371094 C 12.15625 28.5625 11.75 28.664062 11.335938 28.664062 C 10.265625 28.667969 9.296875 28.027344 8.882812 27.046875 L 8.695312 26.605469 L 8.21875 26.644531 C 8.148438 26.648438 8.070312 26.65625 8 26.664062 C 6.519531 26.664062 5.335938 25.480469 5.335938 24 C 5.335938 23.804688 5.359375 23.613281 5.402344 23.421875 L 5.554688 22.742188 L 4.867188 22.617188 C 3.59375 22.398438 2.664062 21.292969 2.664062 20 C 2.664062 19.671875 2.734375 19.355469 2.847656 19.054688 L 3.046875 18.542969 L 2.585938 18.25 C 1.804688 17.765625 1.335938 16.914062 1.335938 16 C 1.335938 15.121094 1.757812 14.359375 2.414062 13.867188 L 2.953125 13.46875 L 2.546875 12.929688 C 2.195312 12.476562 2 11.914062 2 11.335938 C 2 10.042969 2.925781 8.9375 4.199219 8.71875 L 4.890625 8.59375 L 4.734375 7.914062 C 4.691406 7.726562 4.667969 7.527344 4.664062 7.335938 C 4.664062 5.851562 5.851562 4.664062 7.335938 4.664062 C 7.566406 4.664062 7.800781 4.710938 8.054688 4.78125 L 8.636719 4.941406 L 8.851562 4.378906 C 9.242188 3.347656 10.234375 2.664062 11.335938 2.664062 C 11.828125 2.664062 12.292969 2.8125 12.699219 3.058594 L 13.3125 3.429688 L 13.640625 2.792969 C 14.085938 1.929688 14.964844 1.335938 16 1.335938 Z M 11.335938 10 C 11.335938 10 11.664062 12 8.664062 12 C 7.535156 12.007812 5.335938 12.234375 5.335938 12.664062 C 5.335938 14.625 6.898438 15.304688 9.195312 15.328125 C 10.328125 19.828125 13.148438 26 16 26 C 18.855469 26 21.6875 19.796875 22.816406 15.292969 C 22.996094 15.320312 23.164062 15.335938 23.335938 15.335938 C 25.707031 15.335938 27.335938 14.664062 27.335938 12.664062 C 27.335938 12.234375 25.132812 12 24 12 C 23.765625 12 23.554688 12.007812 23.335938 12.015625 L 23.335938 12 C 20.75 12 20.664062 10 20.664062 10 C 20.664062 10 18.664062 13.335938 16 10 C 13.335938 13.335938 11.335938 10 11.335938 10 Z M 12 14.679688 C 12.007812 15.042969 12.304688 15.335938 12.664062 15.335938 C 13.03125 15.332031 13.328125 15.039062 13.328125 14.679688 C 13.730469 14.710938 14 14.84375 14 15.335938 C 14 16.070312 13.40625 16.664062 12.664062 16.664062 C 11.929688 16.664062 11.335938 16.070312 11.335938 15.335938 C 11.335938 14.84375 11.601562 14.710938 12 14.679688 Z M 18.671875 14.679688 C 18.679688 15.042969 18.96875 15.335938 19.335938 15.335938 C 19.695312 15.332031 19.992188 15.039062 20 14.679688 C 20.398438 14.710938 20.664062 14.84375 20.664062 15.335938 C 20.664062 16.070312 20.070312 16.664062 19.335938 16.664062 C 18.59375 16.664062 18 16.070312 18 15.335938 C 18 14.84375 18.269531 14.710938 18.671875 14.679688 Z M 15.335938 22 L 16.664062 22 C 17.035156 22 17.335938 22.296875 17.335938 22.664062 C 17.335938 23.035156 17.035156 23.335938 16.664062 23.335938 L 15.335938 23.335938 C 14.964844 23.335938 14.664062 23.035156 14.664062 22.664062 C 14.664062 22.296875 14.964844 22 15.335938 22 Z M 15.335938 22 "/></g></svg>
