<svg width="64" height="64" viewBox="0 0 64 64" version="1.1"><defs><linearGradient id="linear-pattern-0" gradientUnits="userSpaceOnUse" x1="0" y1="0" x2="0" y2="1" gradientTransform="matrix(60, 0, 0, 56, 0, 4)"><stop offset="0" stop-color="#0288cf" stop-opacity="1"/><stop offset="1" stop-color="#01486e" stop-opacity="1"/></linearGradient></defs><path fill="url(#linear-pattern-0)" fill-opacity="1" d="M 36.21875 2.050781 L 62.027344 27.605469 C 64.402344 29.957031 64.417969 33.785156 62.058594 36.15625 L 36.460938 61.917969 C 34.105469 64.289062 30.269531 64.304688 27.894531 61.949219 L 2.085938 36.394531 C -0.289062 34.042969 -0.304688 30.214844 2.050781 27.84375 L 27.652344 2.082031 C 30.007812 -0.289062 33.84375 -0.304688 36.21875 2.050781 Z M 36.21875 2.050781 " /><g transform="matrix(1.0075098,0,0,1.0032698,16.221436,16.077397)"><path fill-rule="evenodd" fill="rgb(100%, 100%, 100%)" fill-opacity="1" d="M 16 0 C 14.5625 0 13.394531 1.164062 13.394531 2.601562 C 13.398438 3.609375 13.976562 4.523438 14.882812 4.953125 L 14.882812 6.472656 L 12.15625 4.652344 C 11.820312 4.421875 11.390625 4.390625 11.03125 4.570312 C 10.667969 4.746094 10.429688 5.101562 10.40625 5.507812 C 10.382812 5.90625 10.578125 6.292969 10.914062 6.507812 L 14.882812 9.15625 L 14.882812 14.066406 L 10.632812 11.609375 L 10.324219 6.851562 C 10.28125 6.234375 9.75 5.769531 9.140625 5.8125 C 8.523438 5.851562 8.054688 6.382812 8.09375 6.996094 L 8.304688 10.265625 L 6.992188 9.507812 C 7.074219 8.507812 6.570312 7.550781 5.703125 7.046875 C 5.101562 6.703125 4.390625 6.609375 3.726562 6.785156 C 3.058594 6.96875 2.488281 7.402344 2.144531 8 C 1.796875 8.597656 1.703125 9.3125 1.882812 9.976562 C 2.0625 10.644531 2.5 11.210938 3.09375 11.558594 C 3.96875 12.0625 5.050781 12.015625 5.875 11.445312 L 7.1875 12.203125 L 4.25 13.65625 C 3.695312 13.929688 3.46875 14.601562 3.742188 15.152344 C 4.015625 15.703125 4.6875 15.929688 5.242188 15.65625 L 9.515625 13.546875 L 13.765625 16 L 9.523438 18.449219 L 5.246094 16.335938 C 4.890625 16.160156 4.464844 16.1875 4.132812 16.40625 C 3.800781 16.632812 3.609375 17.011719 3.640625 17.410156 C 3.664062 17.808594 3.898438 18.164062 4.257812 18.335938 L 7.195312 19.792969 L 5.875 20.554688 C 5.050781 19.984375 3.96875 19.9375 3.09375 20.441406 C 2.5 20.789062 2.0625 21.355469 1.882812 22.023438 C 1.703125 22.6875 1.796875 23.402344 2.144531 24 C 2.488281 24.597656 3.058594 25.03125 3.726562 25.214844 C 4.390625 25.390625 5.101562 25.296875 5.703125 24.953125 C 6.570312 24.449219 7.074219 23.492188 6.992188 22.492188 L 8.3125 21.726562 L 8.101562 25 C 8.0625 25.617188 8.53125 26.148438 9.144531 26.1875 C 9.757812 26.226562 10.292969 25.757812 10.328125 25.144531 L 10.640625 20.386719 L 14.882812 17.933594 L 14.882812 22.835938 L 10.914062 25.484375 C 10.578125 25.699219 10.382812 26.085938 10.40625 26.484375 C 10.429688 26.890625 10.667969 27.246094 11.03125 27.421875 C 11.390625 27.601562 11.820312 27.570312 12.15625 27.335938 L 14.882812 25.515625 L 14.882812 27.046875 C 13.976562 27.476562 13.398438 28.390625 13.394531 29.398438 C 13.394531 30.835938 14.5625 32 16 32 C 17.4375 32 18.601562 30.835938 18.601562 29.398438 C 18.601562 28.390625 18.023438 27.476562 17.117188 27.046875 L 17.117188 25.515625 L 19.84375 27.335938 C 20.179688 27.570312 20.605469 27.601562 20.96875 27.421875 C 21.328125 27.246094 21.570312 26.890625 21.59375 26.484375 C 21.617188 26.085938 21.421875 25.699219 21.085938 25.484375 L 17.117188 22.835938 L 17.117188 17.933594 L 21.359375 20.386719 L 21.667969 25.144531 C 21.707031 25.757812 22.238281 26.226562 22.851562 26.1875 C 23.46875 26.148438 23.9375 25.617188 23.898438 25 L 23.6875 21.726562 L 25.007812 22.492188 C 24.925781 23.492188 25.429688 24.449219 26.296875 24.953125 C 27.546875 25.671875 29.136719 25.246094 29.855469 24 C 30.578125 22.753906 30.148438 21.164062 28.90625 20.441406 C 28.03125 19.9375 26.949219 19.984375 26.125 20.554688 L 24.804688 19.792969 L 27.742188 18.335938 C 28.101562 18.164062 28.335938 17.808594 28.359375 17.410156 C 28.390625 17.011719 28.195312 16.632812 27.867188 16.40625 C 27.53125 16.1875 27.109375 16.160156 26.75 16.335938 L 22.476562 18.449219 L 18.234375 16 L 22.484375 13.546875 L 26.761719 15.65625 C 27.117188 15.84375 27.554688 15.824219 27.890625 15.601562 C 28.230469 15.382812 28.421875 14.992188 28.390625 14.585938 C 28.359375 14.183594 28.117188 13.828125 27.75 13.65625 L 24.8125 12.203125 L 26.125 11.445312 C 26.949219 12.015625 28.03125 12.0625 28.90625 11.558594 C 30.148438 10.835938 30.578125 9.246094 29.855469 8 C 29.136719 6.753906 27.546875 6.328125 26.296875 7.046875 C 25.429688 7.550781 24.925781 8.507812 25.007812 9.507812 L 23.695312 10.265625 L 23.90625 6.996094 C 23.945312 6.589844 23.757812 6.195312 23.421875 5.960938 C 23.085938 5.734375 22.648438 5.703125 22.285156 5.890625 C 21.921875 6.074219 21.6875 6.445312 21.679688 6.851562 L 21.367188 11.609375 L 17.117188 14.066406 L 17.117188 9.15625 L 21.085938 6.507812 C 21.421875 6.292969 21.617188 5.90625 21.59375 5.507812 C 21.570312 5.101562 21.328125 4.746094 20.96875 4.570312 C 20.605469 4.390625 20.179688 4.421875 19.84375 4.652344 L 17.117188 6.472656 L 17.117188 4.953125 C 18.023438 4.523438 18.601562 3.609375 18.601562 2.601562 C 18.601562 1.164062 17.4375 0 16 0 Z M 16 0 "/></g></svg>
