<svg width="64" height="64" viewBox="0 0 64 64" version="1.1"><defs><linearGradient id="linear-pattern-0" gradientUnits="userSpaceOnUse" x1="0" y1="0" x2="0" y2="1" gradientTransform="matrix(60, 0, 0, 56, 0, 4)"><stop offset="0" stop-color="#3067ff" stop-opacity="1"/><stop offset="1" stop-color="#002ca6" stop-opacity="1"/></linearGradient></defs><path fill="url(#linear-pattern-0)" fill-opacity="1" d="M 36.21875 2.050781 L 62.027344 27.605469 C 64.402344 29.957031 64.417969 33.785156 62.058594 36.15625 L 36.460938 61.917969 C 34.105469 64.289062 30.269531 64.304688 27.894531 61.949219 L 2.085938 36.394531 C -0.289062 34.042969 -0.304688 30.214844 2.050781 27.84375 L 27.652344 2.082031 C 30.007812 -0.289062 33.84375 -0.304688 36.21875 2.050781 Z M 36.21875 2.050781 " /><g transform="matrix(1.0075098,0,0,1.0032698,16.221436,16.077397)"><path fill-rule="nonzero" fill="rgb(100%, 100%, 100%)" fill-opacity="1" d="M 16.152344 0.746094 C 7.804688 0.746094 1.03125 7.390625 1.03125 15.59375 C 1.03125 20.539062 3.511719 24.894531 7.296875 27.59375 C 7.15625 28.164062 6.980469 28.765625 6.703125 29.382812 C 5.757812 31.507812 4.8125 31.507812 4.8125 31.507812 C 4.8125 31.507812 7.648438 31.507812 9.539062 30.445312 C 9.9375 30.21875 10.285156 29.851562 10.601562 29.414062 C 12.324219 30.085938 14.191406 30.445312 16.152344 30.445312 C 24.5 30.445312 31.273438 23.796875 31.273438 15.59375 C 31.273438 7.390625 24.5 0.746094 16.152344 0.746094 M 10.984375 6.046875 L 16.152344 11.882812 L 21.320312 6.046875 L 24.65625 9.796875 L 19.488281 15.59375 L 24.65625 21.429688 L 21.320312 25.140625 L 16.152344 19.34375 L 10.984375 25.140625 L 7.648438 21.429688 L 12.8125 15.59375 L 7.648438 9.796875 Z M 10.984375 6.046875 "/></g></svg>
