<svg width="64" height="64" viewBox="0 0 64 64" version="1.1"><defs><linearGradient id="linear-pattern-0" gradientUnits="userSpaceOnUse" x1="0" y1="0" x2="0" y2="1" gradientTransform="matrix(60, 0, 0, 56, 0, 4)"><stop offset="0" stop-color="#aaaa00" stop-opacity="1"/><stop offset="1" stop-color="#5c5c00" stop-opacity="1"/></linearGradient></defs><path fill="url(#linear-pattern-0)" fill-opacity="1" d="M 36.21875 2.050781 L 62.027344 27.605469 C 64.402344 29.957031 64.417969 33.785156 62.058594 36.15625 L 36.460938 61.917969 C 34.105469 64.289062 30.269531 64.304688 27.894531 61.949219 L 2.085938 36.394531 C -0.289062 34.042969 -0.304688 30.214844 2.050781 27.84375 L 27.652344 2.082031 C 30.007812 -0.289062 33.84375 -0.304688 36.21875 2.050781 Z M 36.21875 2.050781 " /><g transform="matrix(1.0075098,0,0,1.0032698,16.221436,16.077397)"><path fill-rule="nonzero" fill="rgb(100%, 100%, 100%)" fill-opacity="1" d="M 19.144531 8.664062 L 19.144531 11.992188 L 14.71875 11.992188 C 13.664062 11.992188 12.765625 12.28125 12.109375 12.886719 C 11.445312 13.5 11.132812 14.402344 11.132812 15.460938 L 11.132812 19.859375 C 11.117188 19.992188 11.109375 20.117188 11.109375 20.242188 C 11.109375 20.910156 11.308594 21.542969 11.6875 22.089844 C 12.070312 22.640625 12.617188 23.03125 13.257812 23.203125 C 13.628906 23.304688 14.101562 23.335938 14.734375 23.335938 L 17.027344 23.335938 C 18.171875 23.335938 19.109375 23.078125 19.765625 22.488281 C 20.421875 21.894531 20.734375 21.007812 20.734375 19.949219 L 20.734375 8.664062 Z M 0.078125 11.992188 L 4.507812 17.691406 L 0 23.335938 L 2.078125 23.335938 L 5.523438 18.976562 L 8.929688 23.335938 L 11 23.335938 L 6.539062 17.671875 L 10.914062 11.992188 L 8.851562 11.992188 L 5.523438 16.359375 L 2.140625 11.992188 Z M 22.515625 11.992188 L 22.515625 13.601562 L 28.6875 13.601562 C 29.34375 13.601562 29.753906 13.753906 30.007812 14 C 30.257812 14.242188 30.414062 14.632812 30.414062 15.265625 L 30.414062 15.441406 L 25.6875 15.441406 C 24.757812 15.441406 23.945312 15.734375 23.363281 16.332031 C 22.78125 16.914062 22.496094 17.726562 22.496094 18.65625 L 22.496094 20.203125 C 22.496094 20.988281 22.738281 21.695312 23.21875 22.242188 C 23.824219 22.96875 24.714844 23.335938 25.75 23.335938 L 28.867188 23.335938 C 29.820312 23.335938 30.636719 23.046875 31.1875 22.433594 C 31.738281 21.832031 32 21.007812 32 20.046875 L 32 15.382812 C 32 14.328125 31.703125 13.441406 31.058594 12.847656 C 30.414062 12.253906 29.496094 11.992188 28.375 11.992188 Z M 14.695312 13.617188 L 19.144531 13.617188 L 19.144531 19.910156 C 19.144531 20.5 18.992188 20.882812 18.703125 21.164062 C 18.417969 21.449219 17.945312 21.652344 17.242188 21.734375 L 17.015625 21.734375 C 16.9375 21.75 16.882812 21.75 16.871094 21.75 L 14.71875 21.75 C 13.871094 21.75 13.359375 21.570312 13.121094 21.34375 C 12.898438 21.117188 12.71875 20.617188 12.71875 19.773438 L 12.71875 15.5 C 12.71875 14.726562 12.964844 14.246094 13.515625 13.871094 C 13.742188 13.726562 14.128906 13.617188 14.695312 13.617188 Z M 25.648438 17.03125 L 30.390625 17.03125 L 30.390625 20.203125 C 30.390625 20.804688 30.25 21.164062 30.03125 21.390625 C 29.8125 21.609375 29.46875 21.75 28.882812 21.75 L 25.710938 21.75 C 25.6875 21.75 25.59375 21.742188 25.464844 21.71875 L 25.460938 21.71875 C 24.941406 21.628906 24.613281 21.449219 24.40625 21.210938 C 24.199219 20.976562 24.082031 20.65625 24.082031 20.164062 L 24.082031 18.632812 C 24.082031 18.117188 24.203125 17.78125 24.398438 17.546875 C 24.597656 17.308594 24.898438 17.140625 25.394531 17.0625 C 25.554688 17.039062 25.679688 17.03125 25.648438 17.03125 Z M 25.648438 17.03125 "/></g></svg>
