<svg width="64" height="64" viewBox="0 0 64 64" version="1.1"><defs><linearGradient id="linear-pattern-0" gradientUnits="userSpaceOnUse" x1="0" y1="0" x2="0" y2="1" gradientTransform="matrix(60, 0, 0, 56, 0, 4)"><stop offset="0" stop-color="#aaaa00" stop-opacity="1"/><stop offset="1" stop-color="#5c5c00" stop-opacity="1"/></linearGradient></defs><path fill="url(#linear-pattern-0)" fill-opacity="1" d="M 36.21875 2.050781 L 62.027344 27.605469 C 64.402344 29.957031 64.417969 33.785156 62.058594 36.15625 L 36.460938 61.917969 C 34.105469 64.289062 30.269531 64.304688 27.894531 61.949219 L 2.085938 36.394531 C -0.289062 34.042969 -0.304688 30.214844 2.050781 27.84375 L 27.652344 2.082031 C 30.007812 -0.289062 33.84375 -0.304688 36.21875 2.050781 Z M 36.21875 2.050781 " /><g transform="matrix(1.0075098,0,0,1.0032698,16.221436,16.077397)"><path fill-rule="evenodd" fill="rgb(100%, 100%, 100%)" fill-opacity="1" d="M 16.027344 1.679688 C 8.039062 1.679688 1.5625 8.132812 1.5625 16.085938 C 1.5625 24.039062 8.039062 30.492188 16.027344 30.492188 C 24.015625 30.492188 30.492188 24.039062 30.492188 16.085938 C 30.492188 8.132812 24.015625 1.679688 16.027344 1.679688 Z M 11.390625 4.851562 L 13.574219 4.851562 L 15.351562 7.457031 L 17.125 4.851562 L 19.320312 4.851562 L 16.613281 8.808594 L 19.429688 12.933594 L 17.25 12.933594 L 15.351562 10.171875 L 13.46875 12.933594 L 11.28125 12.933594 L 14.09375 8.808594 Z M 9.710938 16.777344 L 11.3125 16.777344 L 11.3125 18.144531 L 10.15625 18.144531 C 9.859375 18.144531 9.65625 18.199219 9.539062 18.308594 C 9.421875 18.414062 9.359375 18.597656 9.359375 18.863281 L 9.359375 19.316406 L 11.148438 19.316406 L 11.148438 20.808594 L 9.359375 20.808594 L 9.359375 25.84375 L 7.265625 25.84375 L 7.265625 20.808594 L 6.226562 20.808594 L 6.226562 19.316406 L 7.265625 19.316406 L 7.265625 18.863281 C 7.265625 18.148438 7.464844 17.625 7.867188 17.289062 C 8.261719 16.945312 8.878906 16.777344 9.710938 16.777344 Z M 17.9375 17.5625 L 20.398438 17.5625 C 21.773438 17.5625 22.796875 17.65625 23.46875 17.851562 C 24.140625 18.046875 24.722656 18.375 25.203125 18.84375 C 25.625 19.25 25.945312 19.71875 26.148438 20.25 C 26.355469 20.78125 26.457031 21.382812 26.457031 22.054688 C 26.457031 22.738281 26.355469 23.34375 26.148438 23.878906 C 25.941406 24.414062 25.625 24.882812 25.203125 25.289062 C 24.71875 25.753906 24.132812 26.085938 23.457031 26.28125 C 22.777344 26.476562 21.757812 26.574219 20.398438 26.574219 L 17.9375 26.574219 Z M 20.273438 19.316406 L 20.273438 24.816406 L 21.109375 24.816406 C 22.0625 24.816406 22.789062 24.578125 23.296875 24.109375 C 23.796875 23.636719 24.046875 22.953125 24.046875 22.054688 C 24.046875 21.164062 23.796875 20.484375 23.300781 20.015625 C 22.796875 19.546875 22.070312 19.316406 21.109375 19.316406 Z M 20.273438 19.316406 "/></g></svg>
