<svg width="64" height="64" viewBox="0 0 64 64" version="1.1"><defs><linearGradient id="linear-pattern-0" gradientUnits="userSpaceOnUse" x1="0" y1="0" x2="0" y2="1" gradientTransform="matrix(60, 0, 0, 56, 0, 4)"><stop offset="0" stop-color="#6926fc" stop-opacity="1"/><stop offset="1" stop-color="#3702ab" stop-opacity="1"/></linearGradient></defs><path fill="url(#linear-pattern-0)" fill-opacity="1" d="M 36.21875 2.050781 L 62.027344 27.605469 C 64.402344 29.957031 64.417969 33.785156 62.058594 36.15625 L 36.460938 61.917969 C 34.105469 64.289062 30.269531 64.304688 27.894531 61.949219 L 2.085938 36.394531 C -0.289062 34.042969 -0.304688 30.214844 2.050781 27.84375 L 27.652344 2.082031 C 30.007812 -0.289062 33.84375 -0.304688 36.21875 2.050781 Z M 36.21875 2.050781 " /><g transform="matrix(1.0075098,0,0,1.0032698,16.221436,16.077397)"><path fill-rule="nonzero" fill="rgb(100%, 100%, 100%)" fill-opacity="1" d="M 11.453125 0.0117188 C 10.945312 0.0546875 10.757812 0.132812 10.566406 0.375 C 10.359375 0.636719 10.1875 0.695312 9.4375 0.765625 C 8.867188 0.820312 8.46875 0.921875 8.316406 1.058594 C 8.023438 1.320312 7.746094 1.953125 7.746094 2.367188 C 7.746094 2.664062 7.773438 2.675781 8.226562 2.601562 C 8.488281 2.5625 8.898438 2.59375 9.148438 2.671875 C 9.507812 2.796875 9.5625 2.851562 9.445312 2.992188 C 9.367188 3.09375 9.082031 3.066406 8.773438 3.066406 C 8.148438 3.066406 8.085938 3.242188 8.515625 3.746094 L 8.796875 4.070312 L 9.277344 3.8125 C 9.828125 3.519531 10.210938 3.589844 10.597656 3.804688 C 10.742188 3.890625 11.40625 3.988281 12.070312 4.023438 C 13.195312 4.085938 12.898438 4.113281 13.171875 4.429688 C 13.34375 4.640625 13.589844 4.925781 13.585938 5.164062 C 13.585938 5.960938 13.027344 7.375 11.371094 9.34375 C 10.53125 10.34375 10.367188 12.171875 10.367188 12.652344 C 10.367188 12.800781 10.3125 12.949219 10.25 12.992188 C 10.132812 13.0625 10.054688 12.605469 9.9375 11.101562 C 9.828125 9.609375 9.546875 8.773438 8.90625 8.109375 C 8.527344 7.722656 8.179688 7.492188 7.828125 7.398438 C 7.214844 7.234375 7.179688 7.109375 7.675781 6.898438 C 7.878906 6.816406 8.046875 6.699219 8.046875 6.640625 C 8.046875 6.492188 7.484375 6.371094 7.125 6.441406 C 6.75 6.511719 6.742188 6.445312 7.078125 6.09375 C 7.734375 5.394531 6.617188 5.554688 5.460938 6.328125 C 4.421875 7.015625 3.789062 7.730469 3.691406 8.242188 C 3.632812 8.570312 3.4375 8.851562 3 9.253906 C 2.191406 10 2.007812 10.375 2.113281 11.070312 C 2.265625 12.082031 2.382812 12.164062 2.851562 11.601562 C 3.148438 11.25 3.835938 10.886719 3.960938 11.011719 C 4.085938 11.132812 3.765625 11.574219 3.398438 11.792969 C 2.929688 12.070312 2.933594 12.265625 3.414062 12.429688 C 3.867188 12.589844 3.953125 12.546875 4.207031 12.039062 C 4.503906 11.453125 4.851562 11.117188 5.34375 10.960938 C 5.585938 10.882812 6.039062 10.578125 6.355469 10.285156 C 6.671875 9.992188 6.992188 9.753906 7.066406 9.753906 C 7.316406 9.753906 7.78125 10.335938 7.90625 10.8125 C 7.976562 11.070312 8.09375 12.101562 8.164062 13.109375 C 8.394531 16.203125 8.703125 16.644531 9.832031 19.097656 C 10.191406 19.886719 10.488281 20.609375 10.488281 20.703125 C 10.488281 20.835938 9.542969 20.898438 8.828125 20.960938 C 7.128906 21.109375 6.414062 21.6875 6.292969 23.015625 C 6.25 23.492188 6.289062 23.773438 6.453125 24.085938 C 6.792969 24.726562 6.992188 24.714844 6.90625 24.054688 C 6.828125 23.492188 7.03125 23.132812 7.183594 23.5625 C 7.296875 23.882812 7.726562 24.335938 7.921875 24.335938 C 8.109375 24.335938 8.113281 24.320312 7.960938 23.914062 C 7.828125 23.5625 7.910156 23.527344 8.25 23.785156 C 8.578125 24.03125 8.6875 23.914062 8.601562 23.398438 C 8.472656 22.582031 9.773438 21.871094 11.320312 22.332031 C 12.074219 22.554688 12.28125 22.574219 12.613281 22.453125 C 13.25 22.226562 14.148438 22.28125 14.5625 22.628906 C 14.976562 22.976562 14.640625 23.894531 14.351562 24.3125 C 14.054688 24.734375 13.59375 24.910156 12.433594 25.054688 C 11.847656 25.125 11.238281 25.265625 11.078125 25.371094 C 10.761719 25.578125 10.507812 26.046875 10.507812 26.421875 C 10.507812 26.742188 10.652344 26.722656 10.972656 26.351562 C 11.117188 26.1875 11.347656 26.050781 11.484375 26.050781 C 11.789062 26.050781 11.789062 26.117188 11.484375 26.503906 C 11.265625 26.78125 11.140625 27.515625 11.3125 27.515625 C 11.347656 27.515625 11.5625 27.324219 11.78125 27.085938 C 12.003906 26.851562 12.304688 26.660156 12.445312 26.660156 C 12.75 26.660156 12.765625 26.753906 12.519531 27.078125 C 12.335938 27.324219 12.265625 28.132812 12.429688 28.125 C 12.484375 28.121094 12.632812 27.945312 12.769531 27.726562 C 13 27.359375 13.289062 27.171875 14.257812 26.765625 C 14.46875 26.671875 15.285156 25.921875 16.070312 25.09375 C 17.46875 23.609375 17.453125 23.578125 17.414062 23.074219 L 17.367188 22.5625 L 18.789062 22.414062 C 20.046875 21.964844 20.710938 21.929688 21.441406 22.308594 C 22.414062 22.8125 23.328125 23.679688 23.195312 24.5 C 23.097656 25.101562 22.765625 26.246094 21.929688 26.328125 C 19.9375 26.289062 17.164062 27.570312 17.476562 29.421875 C 17.734375 30.671875 19.351562 31.5 20.96875 31.867188 C 21.480469 31.984375 22.164062 32.023438 23.015625 31.984375 C 25.164062 31.898438 26.539062 31.785156 27.6875 30.601562 C 28.109375 30.171875 28.648438 29.140625 28.847656 28.636719 L 29.914062 29.21875 L 29.914062 26.417969 L 27.132812 27.640625 L 28.589844 28.480469 C 28.417969 28.621094 28.191406 28.96875 27.9375 29.234375 C 26.808594 30.402344 26.03125 30.398438 24.621094 30.585938 C 23.460938 30.742188 22.191406 30.578125 21.402344 30.230469 C 20.753906 29.945312 20.253906 29.324219 20.253906 28.863281 C 20.253906 28.429688 20.769531 28.03125 21.394531 28.011719 C 23.082031 27.953125 23.398438 27.804688 23.398438 27.804688 C 24.613281 27.429688 25.765625 25.320312 25.765625 23.988281 C 25.765625 23.648438 25.820312 23.234375 25.882812 23.0625 C 25.980469 22.804688 25.921875 22.585938 25.578125 21.867188 C 25.296875 21.273438 25.183594 21.171875 25.234375 20.972656 C 25.296875 20.726562 25.179688 20.546875 24.59375 19.949219 C 23.953125 19.304688 23.890625 19 24.023438 18.78125 C 24.109375 18.652344 24.179688 18.515625 24.179688 18.484375 C 24.179688 18.445312 23.859375 18.257812 23.472656 18.066406 C 23.085938 17.867188 22.632812 17.601562 22.46875 17.46875 C 22.207031 17.253906 22.1875 17.195312 22.335938 17.019531 C 22.421875 16.910156 22.46875 16.789062 22.429688 16.75 C 22.390625 16.710938 21.929688 16.597656 21.40625 16.5 C 20.230469 16.273438 20.046875 16.179688 20 15.757812 C 19.976562 15.570312 19.914062 15.421875 19.863281 15.429688 C 19.8125 15.4375 19.226562 15.542969 18.5625 15.664062 C 17.257812 15.902344 16.964844 15.867188 16.964844 15.484375 C 16.964844 15.167969 16.96875 15.164062 16.148438 15.601562 C 14.820312 16.3125 13.738281 15.878906 14.070312 14.757812 C 14.15625 14.476562 14.382812 14.015625 14.578125 13.730469 C 15.355469 12.597656 16.839844 12.238281 19.566406 12.109375 C 21.085938 12.042969 21.769531 11.976562 22.21875 11.773438 C 22.921875 11.453125 24.535156 10.335938 24.835938 9.773438 C 24.96875 9.535156 25.109375 9.339844 25.164062 9.339844 C 25.421875 9.339844 25.75 8.820312 25.75 8.414062 C 25.75 7.859375 26 7.902344 26.148438 8.476562 C 26.296875 9.046875 26.546875 8.765625 26.53125 8.046875 C 26.515625 7.441406 26.609375 7.371094 26.882812 7.78125 C 27.179688 8.21875 27.273438 7.925781 27.105469 7.101562 C 26.945312 6.3125 25.882812 4.375 25.445312 3.820312 C 25.304688 3.640625 24.203125 3.46875 24.015625 3.429688 C 23.757812 3.375 23.417969 3.160156 23.046875 2.546875 C 22.769531 2.082031 22.410156 1.652344 22.210938 1.546875 C 21.894531 1.382812 21.804688 1.382812 21.320312 1.570312 C 20.738281 1.792969 20.6875 1.882812 20.988281 2.132812 C 21.234375 2.335938 21.644531 3.265625 21.644531 3.617188 C 21.644531 3.867188 21.640625 3.867188 21.390625 3.640625 C 21.25 3.515625 20.855469 3.21875 20.757812 2.976562 C 20.582031 2.566406 20.566406 2.558594 20.398438 2.785156 C 20.089844 3.203125 20.175781 3.78125 20.59375 4.078125 C 21 4.367188 21.367188 5.007812 21.507812 5.667969 C 21.554688 5.90625 21.695312 6.265625 21.828125 6.476562 C 22.304688 7.265625 22.210938 9.101562 21.476562 9.453125 C 21.21875 9.574219 20.398438 9.683594 19.132812 9.765625 C 16.21875 9.945312 14.890625 10.324219 13.496094 11.695312 C 12.828125 12.351562 12.78125 12.378906 12.859375 12.046875 C 12.992188 11.507812 13.046875 10.796875 14.25 9.21875 C 15.804688 7.1875 16 6.699219 16 5.246094 C 15.996094 4.003906 15.429688 2.585938 14.109375 1.519531 C 13.839844 1.332031 13.648438 1.132812 13.683594 1.070312 C 13.71875 1.011719 13.972656 0.964844 14.242188 0.964844 C 14.816406 0.964844 14.828125 0.773438 14.273438 0.453125 C 13.8125 0.179688 12.28125 -0.0546875 11.453125 0.0117188 Z M 11.453125 0.0117188 "/></g></svg>
