<svg width="64" height="64" viewBox="0 0 64 64" version="1.1"><defs><linearGradient id="linear-pattern-0" gradientUnits="userSpaceOnUse" x1="0" y1="0" x2="0" y2="1" gradientTransform="matrix(60, 0, 0, 56, 0, 4)"><stop offset="0" stop-color="#008a97" stop-opacity="1"/><stop offset="1" stop-color="#00545c" stop-opacity="1"/></linearGradient></defs><path fill="url(#linear-pattern-0)" fill-opacity="1" d="M 36.21875 2.050781 L 62.027344 27.605469 C 64.402344 29.957031 64.417969 33.785156 62.058594 36.15625 L 36.460938 61.917969 C 34.105469 64.289062 30.269531 64.304688 27.894531 61.949219 L 2.085938 36.394531 C -0.289062 34.042969 -0.304688 30.214844 2.050781 27.84375 L 27.652344 2.082031 C 30.007812 -0.289062 33.84375 -0.304688 36.21875 2.050781 Z M 36.21875 2.050781 " /><g transform="matrix(1.0075098,0,0,1.0032698,16.221436,16.077397)"><path fill-rule="evenodd" fill="rgb(100%, 100%, 100%)" fill-opacity="1" d="M 15.003906 0.460938 C 14.605469 0.867188 13.859375 1.757812 13.421875 2.378906 C 11.183594 5.546875 9.867188 8.484375 9.367188 11.414062 C 9.046875 13.265625 9.078125 14.800781 9.453125 16.679688 C 9.550781 17.15625 9.640625 17.59375 9.648438 17.652344 C 9.65625 17.710938 9.40625 18.03125 9.082031 18.371094 C 8.429688 19.054688 8.414062 19.097656 8.1875 20.789062 C 7.929688 22.710938 8.109375 25.203125 8.65625 27.375 C 9.007812 28.765625 9.25 28.738281 10.234375 27.207031 C 10.554688 26.710938 10.90625 26.164062 11.023438 25.988281 C 11.789062 24.796875 12.234375 24.164062 12.308594 24.164062 C 12.351562 24.164062 12.5 24.398438 12.632812 24.679688 C 12.8125 25.058594 12.945312 25.226562 13.140625 25.320312 C 13.289062 25.382812 14.226562 25.445312 15.230469 25.457031 L 17.050781 25.476562 L 17.390625 25.054688 C 17.570312 24.828125 17.804688 24.515625 17.898438 24.367188 C 18.03125 24.164062 18.078125 24.132812 18.128906 24.242188 C 18.355469 24.742188 20.75 28.398438 20.886719 28.457031 C 20.980469 28.5 21.113281 28.476562 21.183594 28.40625 C 21.257812 28.339844 21.460938 27.578125 21.644531 26.710938 C 22.234375 23.921875 22.304688 21.976562 21.898438 19.820312 C 21.730469 18.921875 21.71875 18.898438 21.144531 18.3125 L 20.5625 17.726562 L 20.835938 16.519531 C 21.46875 13.75 21.183594 11.039062 19.898438 7.699219 C 19.277344 6.078125 18.601562 4.792969 17.382812 2.890625 C 16.871094 2.09375 15.390625 0.25 15.265625 0.246094 C 15.234375 0.246094 15.136719 0.328125 15.003906 0.460938 M 13.914062 8.25 C 14.476562 7.695312 15.03125 7.539062 15.710938 7.734375 C 16.800781 8.039062 17.277344 9.195312 16.796875 10.34375 C 16.632812 10.742188 16.527344 10.859375 16.121094 11.132812 C 16 11.210938 15.539062 11.277344 15.09375 11.273438 C 14.324219 11.265625 14.273438 11.25 13.890625 10.867188 C 13.417969 10.390625 13.28125 9.929688 13.382812 9.207031 C 13.441406 8.78125 13.523438 8.632812 13.914062 8.25 M 12.984375 26.59375 C 12.710938 26.859375 12.378906 27.6875 12.375 28.296875 C 12.375 29.03125 12.703125 29.640625 13.710938 30.761719 C 14.84375 32.023438 15.171875 32.125 15.789062 31.390625 C 15.921875 31.234375 16.328125 30.777344 16.6875 30.382812 C 17.597656 29.390625 17.816406 28.644531 17.5 27.632812 C 17.335938 27.125 16.648438 26.234375 16.453125 26.277344 C 16.210938 26.332031 16.109375 26.789062 16.1875 27.390625 C 16.289062 28.09375 16.105469 28.601562 15.460938 29.367188 L 15.007812 29.898438 L 14.542969 29.320312 C 14.199219 28.898438 13.976562 28.46875 13.695312 27.691406 C 13.492188 27.109375 13.277344 26.59375 13.226562 26.542969 C 13.160156 26.476562 13.074219 26.503906 12.984375 26.59375 "/></g></svg>
