<svg width="64" height="64" viewBox="0 0 64 64" version="1.1"><defs><linearGradient id="linear-pattern-0" gradientUnits="userSpaceOnUse" x1="0" y1="0" x2="0" y2="1" gradientTransform="matrix(60, 0, 0, 56, 0, 4)"><stop offset="0" stop-color="#6926fc" stop-opacity="1"/><stop offset="1" stop-color="#3702ab" stop-opacity="1"/></linearGradient></defs><path fill="url(#linear-pattern-0)" fill-opacity="1" d="M 36.21875 2.050781 L 62.027344 27.605469 C 64.402344 29.957031 64.417969 33.785156 62.058594 36.15625 L 36.460938 61.917969 C 34.105469 64.289062 30.269531 64.304688 27.894531 61.949219 L 2.085938 36.394531 C -0.289062 34.042969 -0.304688 30.214844 2.050781 27.84375 L 27.652344 2.082031 C 30.007812 -0.289062 33.84375 -0.304688 36.21875 2.050781 Z M 36.21875 2.050781 " /><g transform="matrix(1.0075098,0,0,1.0032698,16.221436,16.077397)"><path fill-rule="nonzero" fill="rgb(100%, 100%, 100%)" fill-opacity="1" d="M 29.394531 5.140625 C 28.363281 5.15625 27.203125 5.289062 26.335938 5.621094 C 24.722656 6.238281 23.171875 7.9375 21.238281 10.800781 C 20.109375 12.46875 19.261719 13.476562 18.492188 14.03125 C 17.722656 14.585938 17.03125 14.761719 15.941406 14.757812 C 14.851562 14.753906 14.210938 14.585938 13.382812 13.941406 C 12.554688 13.296875 11.570312 12.101562 10.152344 10.078125 C 8.8125 8.164062 7.824219 6.953125 6.679688 6.1875 C 5.535156 5.421875 4.28125 5.195312 2.675781 5.175781 C 1.914062 5.164062 1.445312 5.164062 1.050781 5.230469 C 0.851562 5.265625 0.652344 5.308594 0.433594 5.484375 C 0.214844 5.660156 0.078125 6.007812 0.078125 6.230469 C 0.078125 6.492188 0.25 6.828125 0.457031 6.988281 C 0.664062 7.148438 0.851562 7.199219 1.050781 7.246094 C 1.453125 7.34375 1.953125 7.382812 2.738281 7.429688 C 4.203125 7.515625 4.929688 7.664062 5.734375 8.265625 C 6.539062 8.867188 7.46875 10.042969 8.980469 12.210938 C 10.304688 14.109375 11.488281 15.238281 12.65625 15.960938 C 11.492188 16.679688 10.3125 17.796875 9.011719 19.664062 C 7.515625 21.8125 6.507812 23.046875 5.636719 23.691406 C 4.765625 24.335938 4.027344 24.492188 2.691406 24.492188 C 1.816406 24.492188 1.25 24.503906 0.734375 24.707031 C 0.476562 24.808594 0.148438 25.027344 0.0390625 25.414062 C -0.0703125 25.800781 0.0703125 26.117188 0.207031 26.339844 C 0.453125 26.734375 0.691406 26.734375 0.875 26.777344 C 1.058594 26.820312 1.242188 26.839844 1.441406 26.851562 C 1.84375 26.875 2.320312 26.851562 2.832031 26.8125 C 3.851562 26.726562 4.929688 26.574219 5.679688 26.261719 C 7.1875 25.632812 8.484375 24.289062 10.140625 21.867188 C 11.5 19.882812 12.484375 18.679688 13.335938 18.019531 C 14.1875 17.359375 14.882812 17.167969 15.988281 17.167969 C 17.09375 17.167969 17.789062 17.359375 18.640625 18.019531 C 19.492188 18.679688 20.476562 19.882812 21.835938 21.867188 C 23.460938 24.242188 24.804688 25.664062 26.269531 26.277344 C 26.960938 26.566406 27.953125 26.695312 28.933594 26.777344 C 29.425781 26.816406 29.898438 26.835938 30.300781 26.820312 C 30.5 26.8125 30.6875 26.804688 30.863281 26.773438 C 31.039062 26.742188 31.195312 26.734375 31.433594 26.566406 C 31.675781 26.398438 31.988281 26.191406 32 25.675781 C 32.007812 25.417969 31.875 25.164062 31.738281 25.019531 C 31.601562 24.875 31.460938 24.804688 31.328125 24.75 C 30.796875 24.523438 30.183594 24.492188 29.285156 24.492188 C 27.9375 24.492188 27.1875 24.339844 26.332031 23.707031 C 25.476562 23.074219 24.492188 21.867188 23.035156 19.761719 C 21.519531 17.570312 20.558594 16.621094 19.449219 16.015625 C 19.554688 15.945312 19.628906 15.886719 19.746094 15.8125 C 20.492188 15.335938 21.390625 14.40625 22.023438 13.539062 C 22.597656 12.75 23.632812 11.320312 24.328125 10.351562 C 24.980469 9.445312 26.054688 8.328125 26.390625 8.09375 C 26.792969 7.8125 26.984375 7.707031 27.324219 7.621094 C 27.664062 7.535156 28.183594 7.480469 29.097656 7.429688 C 29.941406 7.382812 30.476562 7.34375 30.890625 7.25 C 31.101562 7.203125 31.289062 7.15625 31.5 7 C 31.710938 6.84375 31.898438 6.496094 31.898438 6.230469 C 31.898438 6.007812 31.796875 5.792969 31.6875 5.664062 C 31.578125 5.535156 31.464844 5.46875 31.363281 5.414062 C 31.164062 5.308594 30.984375 5.265625 30.78125 5.230469 C 30.382812 5.15625 29.910156 5.132812 29.394531 5.140625 Z M 29.394531 5.140625 "/></g></svg>
