<svg width="64" height="64" viewBox="0 0 64 64" version="1.1"><defs><linearGradient id="linear-pattern-0" gradientUnits="userSpaceOnUse" x1="0" y1="0" x2="0" y2="1" gradientTransform="matrix(60, 0, 0, 56, 0, 4)"><stop offset="0" stop-color="#00983a" stop-opacity="1"/><stop offset="1" stop-color="#004a1c" stop-opacity="1"/></linearGradient></defs><path fill="url(#linear-pattern-0)" fill-opacity="1" d="M 36.21875 2.050781 L 62.027344 27.605469 C 64.402344 29.957031 64.417969 33.785156 62.058594 36.15625 L 36.460938 61.917969 C 34.105469 64.289062 30.269531 64.304688 27.894531 61.949219 L 2.085938 36.394531 C -0.289062 34.042969 -0.304688 30.214844 2.050781 27.84375 L 27.652344 2.082031 C 30.007812 -0.289062 33.84375 -0.304688 36.21875 2.050781 Z M 36.21875 2.050781 " /><g transform="matrix(1.0075098,0,0,1.0032698,16.221436,16.077397)"><path fill-rule="nonzero" fill="rgb(100%, 100%, 100%)" fill-opacity="1" d="M 29.875 1.769531 C 29.875 1.769531 29.734375 1.746094 29.382812 1.800781 C 28.484375 1.945312 26.210938 2.632812 21.386719 5.65625 C 18.359375 7.554688 16.738281 9.832031 15.855469 11.851562 C 14.089844 10.117188 11.75 9.785156 10.003906 10.417969 C 8.6875 10.894531 7.746094 12.570312 7.804688 13.539062 C 2.296875 16.296875 0.6875 17.15625 0.6875 17.15625 C 0.6875 17.15625 7.21875 15.109375 8.28125 15.597656 C 8.601562 15.875 8.898438 16.304688 9.1875 16.660156 L 9.203125 16.675781 C 9.195312 17.023438 9.210938 17.351562 9.210938 17.671875 C 9.226562 21.320312 12.179688 24.945312 16.109375 26.273438 C 19.496094 27.28125 20.515625 30.070312 20.921875 31.40625 C 21.109375 32.023438 20.800781 29.613281 20.269531 26.453125 C 22.28125 27.257812 23.359375 29.0625 23.890625 30.070312 C 24.359375 30.953125 22.492188 25.570312 20.304688 20.324219 C 20.992188 20.039062 21.53125 19.746094 22.167969 19.496094 L 21.402344 19.109375 L 22.515625 19.367188 C 23.109375 19.164062 23.820312 19.007812 24.828125 18.929688 L 23.320312 18.0625 L 26.570312 18.820312 C 27.167969 18.75 27.757812 18.617188 28.3125 18.46875 L 26.664062 17.515625 L 29.359375 18.148438 C 30.726562 17.675781 31.695312 17.15625 31.695312 17.15625 C 31.695312 17.15625 32.726562 17.625 28.226562 15.375 C 26.59375 14.5625 24.605469 14.101562 22.734375 13.84375 C 22.914062 13.125 23.039062 12.476562 23.242188 11.878906 L 21.429688 12.390625 L 23.425781 11.433594 C 23.632812 10.992188 23.917969 10.570312 24.363281 10.148438 C 25 9.546875 25.273438 9.054688 25.601562 8.375 L 23.710938 8.625 L 26.023438 7.503906 C 26.335938 6.890625 26.75 6.125 27.421875 5.101562 L 25.757812 5.148438 L 27.9375 4.347656 C 28.449219 3.613281 29.082031 2.757812 29.867188 1.765625 Z M 29.875 1.769531 "/></g></svg>
