<svg width="64" height="64" viewBox="0 0 64 64" version="1.1"><defs><linearGradient id="linear-pattern-0" gradientUnits="userSpaceOnUse" x1="0" y1="0" x2="0" y2="1" gradientTransform="matrix(60, 0, 0, 56, 0, 4)"><stop offset="0" stop-color="#ec7700" stop-opacity="1"/><stop offset="1" stop-color="#773c00" stop-opacity="1"/></linearGradient></defs><path fill="url(#linear-pattern-0)" fill-opacity="1" d="M 36.21875 2.050781 L 62.027344 27.605469 C 64.402344 29.957031 64.417969 33.785156 62.058594 36.15625 L 36.460938 61.917969 C 34.105469 64.289062 30.269531 64.304688 27.894531 61.949219 L 2.085938 36.394531 C -0.289062 34.042969 -0.304688 30.214844 2.050781 27.84375 L 27.652344 2.082031 C 30.007812 -0.289062 33.84375 -0.304688 36.21875 2.050781 Z M 36.21875 2.050781 " /><g transform="matrix(1.0075098,0,0,1.0032698,16.221436,16.077397)"><path fill-rule="evenodd" fill="rgb(100%, 100%, 100%)" fill-opacity="1" d="M 7.125 3.414062 C 6.5 3.429688 5.757812 3.484375 4.929688 3.59375 C 3.71875 3.742188 3.5625 3.820312 3.5625 4.328125 C 3.5625 4.820312 3.71875 4.914062 4.710938 5.023438 C 5.359375 5.09375 6.050781 5.351562 6.304688 5.613281 C 7.074219 6.398438 10.011719 11.367188 11.683594 14.726562 L 13.273438 17.914062 L 13.273438 22.210938 C 13.273438 26.382812 13.253906 26.515625 12.710938 26.898438 C 12.402344 27.109375 11.726562 27.402344 11.214844 27.539062 C 10.539062 27.722656 10.28125 27.921875 10.28125 28.277344 C 10.28125 28.742188 10.480469 28.765625 15.011719 28.765625 C 19.546875 28.765625 19.742188 28.742188 19.742188 28.277344 C 19.742188 27.921875 19.484375 27.722656 18.808594 27.539062 C 18.296875 27.402344 17.625 27.109375 17.3125 26.898438 C 16.773438 26.515625 16.757812 26.382812 16.757812 22.296875 L 16.757812 18.078125 L 18.085938 15.546875 C 18.820312 14.15625 20.21875 11.453125 21.1875 9.53125 C 22.164062 7.617188 23.171875 5.855469 23.425781 5.625 C 23.679688 5.398438 24.324219 5.0625 24.859375 4.875 C 25.539062 4.648438 25.867188 4.375 25.921875 4.007812 C 26 3.480469 25.953125 3.476562 22.109375 3.476562 C 18.292969 3.476562 18.21875 3.484375 18.296875 3.992188 C 18.351562 4.34375 18.683594 4.621094 19.320312 4.835938 C 19.847656 5.015625 20.351562 5.242188 20.445312 5.332031 C 20.640625 5.53125 15.945312 14.753906 15.648438 14.753906 C 15.542969 14.753906 14.636719 13.164062 13.632812 11.214844 C 11.679688 7.402344 9.78125 4.234375 9.144531 3.707031 C 8.882812 3.484375 8.164062 3.386719 7.125 3.414062 M 29.851562 19.3125 L 27.742188 25.285156 L 29.101562 25.285156 L 29.539062 23.867188 L 31.71875 23.867188 L 32.15625 25.285156 L 33.515625 25.285156 L 31.398438 19.3125 L 29.851562 19.3125 M 18.15625 19.335938 L 18.15625 25.285156 L 19.421875 25.285156 L 19.421875 23.171875 L 19.960938 23.171875 C 20.703125 23.171875 21.277344 23 21.679688 22.65625 C 22.085938 22.320312 22.277344 21.835938 22.277344 21.195312 C 22.277344 20.578125 22.089844 20.109375 21.710938 19.796875 C 21.335938 19.488281 20.789062 19.335938 20.0625 19.335938 L 18.15625 19.335938 M 23.421875 19.335938 L 23.421875 25.285156 L 24.691406 25.285156 L 24.691406 23.171875 L 25.226562 23.171875 C 25.96875 23.171875 26.546875 23 26.949219 22.65625 C 27.351562 22.320312 27.546875 21.835938 27.546875 21.195312 C 27.546875 20.578125 27.359375 20.109375 26.980469 19.796875 C 26.601562 19.488281 26.054688 19.335938 25.328125 19.335938 L 23.421875 19.335938 M 30.628906 20.234375 C 30.648438 20.328125 30.6875 20.460938 30.734375 20.625 C 30.789062 20.796875 31.011719 21.53125 31.414062 22.8125 L 29.855469 22.8125 C 30.28125 21.441406 30.539062 20.578125 30.628906 20.234375 M 19.421875 20.367188 L 20 20.367188 C 20.34375 20.367188 20.59375 20.441406 20.753906 20.582031 C 20.917969 20.726562 21 20.9375 21 21.234375 C 21 21.527344 20.90625 21.753906 20.710938 21.90625 C 20.519531 22.058594 20.226562 22.132812 19.835938 22.132812 L 19.421875 22.132812 L 19.421875 20.367188 M 24.691406 20.367188 L 25.265625 20.367188 C 25.609375 20.367188 25.859375 20.441406 26.019531 20.582031 C 26.1875 20.726562 26.269531 20.9375 26.269531 21.234375 C 26.269531 21.527344 26.175781 21.753906 25.984375 21.90625 C 25.789062 22.058594 25.492188 22.132812 25.101562 22.132812 L 24.691406 22.132812 L 24.691406 20.367188 "/></g></svg>
