<svg width="64" height="64" viewBox="0 0 64 64" version="1.1"><defs><linearGradient id="linear-pattern-0" gradientUnits="userSpaceOnUse" x1="0" y1="0" x2="0" y2="1" gradientTransform="matrix(60, 0, 0, 56, 0, 4)"><stop offset="0" stop-color="#6926fc" stop-opacity="1"/><stop offset="1" stop-color="#3702ab" stop-opacity="1"/></linearGradient></defs><path fill="url(#linear-pattern-0)" fill-opacity="1" d="M 36.21875 2.050781 L 62.027344 27.605469 C 64.402344 29.957031 64.417969 33.785156 62.058594 36.15625 L 36.460938 61.917969 C 34.105469 64.289062 30.269531 64.304688 27.894531 61.949219 L 2.085938 36.394531 C -0.289062 34.042969 -0.304688 30.214844 2.050781 27.84375 L 27.652344 2.082031 C 30.007812 -0.289062 33.84375 -0.304688 36.21875 2.050781 Z M 36.21875 2.050781 " /><g transform="matrix(1.0075098,0,0,1.0032698,16.221436,16.077397)"><path fill-rule="evenodd" fill="rgb(100%, 100%, 100%)" fill-opacity="1" d="M 1.257812 7.359375 C 3.117188 -0.25 11.757812 0.226562 18.414062 0.726562 C 25.316406 1.851562 31.960938 4.113281 31.039062 11.375 C 30.304688 16.703125 24.578125 21.140625 20.292969 21.414062 C 18.71875 24.273438 14.542969 31.03125 10.929688 31.671875 C 12.554688 28.597656 15.902344 26.648438 12.757812 21.371094 C 3.828125 19.910156 -0.835938 16.875 1.257812 7.359375 Z M 1.257812 7.359375 "/></g></svg>
