<svg width="64" height="64" viewBox="0 0 64 64" version="1.1"><defs><linearGradient id="linear-pattern-0" gradientUnits="userSpaceOnUse" x1="0" y1="0" x2="0" y2="1" gradientTransform="matrix(60, 0, 0, 56, 0, 4)"><stop offset="0" stop-color="#00a07f" stop-opacity="1"/><stop offset="1" stop-color="#005241" stop-opacity="1"/></linearGradient></defs><path fill="url(#linear-pattern-0)" fill-opacity="1" d="M 36.21875 2.050781 L 62.027344 27.605469 C 64.402344 29.957031 64.417969 33.785156 62.058594 36.15625 L 36.460938 61.917969 C 34.105469 64.289062 30.269531 64.304688 27.894531 61.949219 L 2.085938 36.394531 C -0.289062 34.042969 -0.304688 30.214844 2.050781 27.84375 L 27.652344 2.082031 C 30.007812 -0.289062 33.84375 -0.304688 36.21875 2.050781 Z M 36.21875 2.050781 " /><g transform="matrix(1.0075098,0,0,1.0032698,16.221436,16.077397)"><path fill-rule="nonzero" fill="rgb(100%, 100%, 100%)" fill-opacity="1" d="M 10.945312 2.792969 C 12.214844 4.066406 12.203125 5.078125 12.203125 6.609375 L 12.203125 9.773438 C 7.765625 11.257812 4.59375 15.25 4.59375 19.960938 C 4.59375 24 6.945312 27.523438 10.421875 29.378906 L 21.636719 29.378906 C 25.109375 27.523438 27.460938 24 27.460938 19.960938 C 27.460938 15.261719 24.277344 11.273438 19.84375 9.773438 L 19.84375 6.609375 C 19.84375 5.085938 19.832031 4.070312 21.101562 2.792969 Z M 17.460938 13.234375 C 18.25 13.234375 18.886719 13.867188 18.886719 14.65625 C 18.886719 15.441406 18.25 16.078125 17.460938 16.078125 C 16.671875 16.078125 16.03125 15.4375 16.03125 14.65625 C 16.03125 13.867188 16.671875 13.234375 17.460938 13.234375 Z M 15.3125 17.503906 C 15.976562 17.503906 16.507812 18.039062 16.507812 18.6875 C 16.507812 19.34375 15.976562 19.875 15.3125 19.875 C 14.65625 19.875 14.125 19.34375 14.125 18.6875 C 14.125 18.03125 14.65625 17.503906 15.3125 17.503906 Z M 17.9375 20.820312 C 18.460938 20.820312 18.886719 21.25 18.886719 21.773438 C 18.886719 22.296875 18.460938 22.71875 17.9375 22.71875 C 17.410156 22.71875 16.984375 22.296875 16.984375 21.773438 C 16.984375 21.25 17.410156 20.820312 17.9375 20.820312 Z M 16.742188 24.148438 C 17.140625 24.148438 17.460938 24.460938 17.460938 24.855469 C 17.460938 25.25 17.140625 25.570312 16.742188 25.570312 C 16.351562 25.570312 16.03125 25.25 16.03125 24.855469 C 16.03125 24.460938 16.351562 24.148438 16.742188 24.148438 Z M 18.414062 26.515625 C 18.679688 26.515625 18.886719 26.726562 18.886719 26.992188 C 18.886719 27.253906 18.679688 27.464844 18.414062 27.464844 C 18.148438 27.464844 17.9375 27.25 17.9375 26.992188 C 17.9375 26.726562 18.148438 26.515625 18.414062 26.515625 Z M 18.414062 26.515625 "/></g></svg>
