<svg width="64" height="64" viewBox="0 0 64 64" version="1.1"><defs><linearGradient id="linear-pattern-0" gradientUnits="userSpaceOnUse" x1="0" y1="0" x2="0" y2="1" gradientTransform="matrix(60, 0, 0, 56, 0, 4)"><stop offset="0" stop-color="#c10000" stop-opacity="1"/><stop offset="1" stop-color="#5f0000" stop-opacity="1"/></linearGradient></defs><path fill="url(#linear-pattern-0)" fill-opacity="1" d="M 36.21875 2.050781 L 62.027344 27.605469 C 64.402344 29.957031 64.417969 33.785156 62.058594 36.15625 L 36.460938 61.917969 C 34.105469 64.289062 30.269531 64.304688 27.894531 61.949219 L 2.085938 36.394531 C -0.289062 34.042969 -0.304688 30.214844 2.050781 27.84375 L 27.652344 2.082031 C 30.007812 -0.289062 33.84375 -0.304688 36.21875 2.050781 Z M 36.21875 2.050781 " /><g transform="matrix(1.0075098,0,0,1.0032698,16.221436,16.077397)"><path fill-rule="nonzero" fill="rgb(100%, 100%, 100%)" fill-opacity="1" d="M 9.984375 2.027344 C 5.652344 2.027344 2.140625 5.59375 2.140625 9.992188 C 2.140625 14.390625 5.652344 17.953125 9.984375 17.953125 C 11.417969 17.953125 12.824219 17.546875 14.050781 16.789062 L 17.074219 20.226562 C 17.1875 20.34375 17.378906 20.34375 17.496094 20.226562 C 17.496094 20.226562 18.039062 19.816406 18.832031 19.011719 C 19.625 18.207031 20.027344 17.652344 20.027344 17.652344 C 20.140625 17.535156 20.140625 17.34375 20.027344 17.226562 L 16.65625 14.15625 C 17.414062 12.90625 17.820312 11.464844 17.820312 9.992188 C 17.828125 5.597656 14.3125 2.03125 9.984375 2.03125 M 20.015625 3.203125 C 20.015625 3.203125 18.695312 5.285156 18.46875 5.648438 C 19.148438 6.832031 19.4375 8.375 19.4375 8.375 L 20.484375 6.5 L 24.492188 8.03125 C 22.351562 13.699219 22.421875 19.574219 22.421875 19.574219 L 19.417969 22.625 C 19.417969 22.625 13.632812 22.554688 8.058594 24.730469 L 6.546875 20.65625 L 8.394531 19.59375 C 8.394531 19.59375 6.878906 19.296875 5.710938 18.605469 C 5.355469 18.839844 3.304688 20.183594 3.304688 20.183594 L 6.324219 29.328125 C 6.324219 29.328125 10.585938 24.949219 21.179688 25.914062 L 25.664062 21.367188 C 24.710938 10.601562 29.023438 6.269531 29.023438 6.269531 M 9.976562 5.441406 C 12.453125 5.441406 14.460938 7.476562 14.460938 9.992188 C 14.460938 12.503906 12.453125 14.539062 9.976562 14.539062 C 7.503906 14.539062 5.5 12.503906 5.5 9.992188 C 5.5 7.476562 7.503906 5.441406 9.976562 5.441406 Z M 9.976562 5.441406 "/></g></svg>
