<svg width="64" height="64" viewBox="0 0 64 64" version="1.1"><defs><linearGradient id="linear-pattern-0" gradientUnits="userSpaceOnUse" x1="0" y1="0" x2="0" y2="1" gradientTransform="matrix(60, 0, 0, 56, 0, 4)"><stop offset="0" stop-color="#c10000" stop-opacity="1"/><stop offset="1" stop-color="#5f0000" stop-opacity="1"/></linearGradient></defs><path fill="url(#linear-pattern-0)" fill-opacity="1" d="M 36.21875 2.050781 L 62.027344 27.605469 C 64.402344 29.957031 64.417969 33.785156 62.058594 36.15625 L 36.460938 61.917969 C 34.105469 64.289062 30.269531 64.304688 27.894531 61.949219 L 2.085938 36.394531 C -0.289062 34.042969 -0.304688 30.214844 2.050781 27.84375 L 27.652344 2.082031 C 30.007812 -0.289062 33.84375 -0.304688 36.21875 2.050781 Z M 36.21875 2.050781 " /><g transform="matrix(1.0075098,0,0,1.0032698,16.221436,16.077397)"><path fill-rule="nonzero" fill="rgb(100%, 100%, 100%)" fill-opacity="1" d="M 8 13.335938 C 8.804688 15.992188 14.640625 16.625 16 16 C 22 6 27.335938 18.664062 28.546875 24.8125 C 30.296875 22.316406 31.335938 19.28125 31.335938 16 C 31.335938 11.539062 29.4375 7.53125 26.398438 4.726562 C 16.570312 -1.226562 8 5.335938 8 13.335938 "/><path fill-rule="nonzero" fill="rgb(100%, 100%, 100%)" fill-opacity="1" d="M 2.773438 8.25 C 1.4375 10.523438 0.664062 13.171875 0.664062 16 C 0.664062 20.46875 2.578125 24.492188 5.625 27.292969 C 7.804688 28.296875 10.21875 28.757812 12.792969 28.476562 C 18.554688 27.851562 22.632812 23.226562 21.792969 17.039062 C 21.734375 16.875 21.660156 16.71875 21.605469 16.578125 C 20.476562 14.992188 17.382812 14.753906 16.039062 15.976562 C 16.046875 15.972656 16.023438 15.972656 16.019531 15.976562 C 16.015625 15.976562 16.007812 15.992188 16 15.996094 C 15.507812 17.859375 10.851562 19.503906 7.0625 17.746094 C 4.085938 16.039062 2.304688 12.390625 2.769531 8.246094 "/></g></svg>
