<svg width="64" height="64" viewBox="0 0 64 64" version="1.1"><defs><linearGradient id="linear-pattern-0" gradientUnits="userSpaceOnUse" x1="0" y1="0" x2="0" y2="1" gradientTransform="matrix(60, 0, 0, 56, 0, 4)"><stop offset="0" stop-color="#7795ab" stop-opacity="1"/><stop offset="1" stop-color="#3b4f5f" stop-opacity="1"/></linearGradient></defs><path fill="url(#linear-pattern-0)" fill-opacity="1" d="M 36.21875 2.050781 L 62.027344 27.605469 C 64.402344 29.957031 64.417969 33.785156 62.058594 36.15625 L 36.460938 61.917969 C 34.105469 64.289062 30.269531 64.304688 27.894531 61.949219 L 2.085938 36.394531 C -0.289062 34.042969 -0.304688 30.214844 2.050781 27.84375 L 27.652344 2.082031 C 30.007812 -0.289062 33.84375 -0.304688 36.21875 2.050781 Z M 36.21875 2.050781 " /><g transform="matrix(1.0075098,0,0,1.0032698,16.221436,16.077397)"><path fill-rule="nonzero" fill="rgb(100%, 100%, 100%)" fill-opacity="1" d="M 12.4375 1.828125 C 11.417969 1.828125 10.59375 2.617188 10.59375 3.589844 L 10.59375 14.738281 L 11.75 14.738281 L 11.75 4.175781 L 20.96875 4.175781 L 20.96875 14.738281 L 22.125 14.738281 L 22.125 3.589844 C 22.125 2.617188 21.304688 1.828125 20.28125 1.828125 Z M 15.78125 5.9375 L 15.78125 6.886719 C 15.5 6.953125 15.226562 7.070312 14.984375 7.226562 L 14.320312 6.554688 L 13.507812 7.382812 L 14.164062 8.054688 C 14.007812 8.304688 13.898438 8.582031 13.835938 8.871094 L 12.898438 8.871094 L 12.898438 10.046875 L 13.835938 10.046875 C 13.898438 10.335938 14.011719 10.609375 14.167969 10.859375 L 13.507812 11.53125 L 14.320312 12.359375 L 14.984375 11.6875 C 15.226562 11.847656 15.5 11.960938 15.78125 12.03125 L 15.78125 12.976562 L 16.9375 12.976562 L 16.9375 12.03125 C 17.21875 11.960938 17.492188 11.847656 17.738281 11.6875 L 18.398438 12.359375 L 19.210938 11.53125 L 18.554688 10.863281 C 18.710938 10.609375 18.820312 10.335938 18.886719 10.046875 L 19.820312 10.046875 L 19.820312 8.871094 L 18.886719 8.871094 C 18.820312 8.582031 18.707031 8.304688 18.554688 8.054688 L 19.210938 7.382812 L 18.398438 6.554688 L 17.742188 7.222656 C 17.492188 7.066406 17.21875 6.953125 16.9375 6.886719 L 16.9375 5.9375 Z M 3.101562 6.523438 C 2.464844 6.523438 1.949219 7.046875 1.949219 7.695312 C 1.949219 8.117188 2.171875 8.503906 2.523438 8.710938 L 2.523438 17.792969 C 2.152344 18.300781 1.949219 18.914062 1.949219 19.546875 C 1.949219 21.171875 3.242188 22.484375 4.832031 22.484375 L 4.832031 28.203125 C 9.445312 30.597656 23.277344 30.597656 27.890625 28.167969 L 27.890625 22.484375 C 29.480469 22.484375 30.773438 21.171875 30.773438 19.546875 C 30.769531 18.914062 30.566406 18.300781 30.195312 17.792969 L 30.195312 8.710938 C 30.550781 8.503906 30.769531 8.117188 30.773438 7.695312 C 30.773438 7.046875 30.253906 6.523438 29.617188 6.523438 C 28.980469 6.523438 28.464844 7.046875 28.464844 7.695312 C 28.46875 8.117188 28.6875 8.5 29.039062 8.710938 L 29.039062 16.863281 C 28.679688 16.703125 28.285156 16.617188 27.890625 16.617188 L 27.890625 14.148438 C 27.890625 12.523438 26.601562 11.21875 25.007812 11.21875 L 23.277344 11.21875 L 23.277344 13.5625 C 23.914062 13.5625 24.429688 14.085938 24.429688 14.738281 C 24.429688 15.390625 23.914062 15.914062 23.277344 15.914062 L 9.445312 15.914062 C 8.804688 15.914062 8.289062 15.390625 8.289062 14.738281 C 8.289062 14.085938 8.804688 13.5625 9.445312 13.5625 L 9.445312 11.21875 L 7.710938 11.21875 C 6.117188 11.21875 4.832031 12.523438 4.832031 14.148438 L 4.832031 16.617188 C 4.433594 16.617188 4.039062 16.703125 3.679688 16.863281 L 3.679688 8.710938 C 4.03125 8.5 4.253906 8.117188 4.253906 7.695312 C 4.253906 7.046875 3.738281 6.523438 3.101562 6.523438 M 16.359375 7.992188 C 17.15625 7.992188 17.800781 8.648438 17.800781 9.457031 C 17.800781 10.265625 17.15625 10.921875 16.359375 10.921875 C 15.5625 10.921875 14.917969 10.265625 14.917969 9.457031 C 14.917969 8.648438 15.5625 7.992188 16.359375 7.992188 M 11.75 18.257812 C 13.339844 18.257812 14.632812 19.570312 14.632812 21.195312 C 14.632812 22.8125 13.339844 24.125 11.75 24.125 C 10.15625 24.125 8.867188 22.8125 8.867188 21.195312 C 8.867188 19.570312 10.15625 18.257812 11.75 18.257812 Z M 20.96875 18.257812 C 22.5625 18.257812 23.851562 19.570312 23.851562 21.195312 C 23.851562 22.8125 22.5625 24.125 20.96875 24.125 C 19.378906 24.125 18.089844 22.8125 18.089844 21.195312 C 18.089844 19.570312 19.378906 18.257812 20.96875 18.257812 Z M 20.96875 18.257812 "/></g></svg>
