<svg width="64" height="64" viewBox="0 0 64 64" version="1.1"><defs><linearGradient id="linear-pattern-0" gradientUnits="userSpaceOnUse" x1="0" y1="0" x2="0" y2="1" gradientTransform="matrix(60, 0, 0, 56, 0, 4)"><stop offset="0" stop-color="#008a97" stop-opacity="1"/><stop offset="1" stop-color="#00545c" stop-opacity="1"/></linearGradient></defs><path fill="url(#linear-pattern-0)" fill-opacity="1" d="M 36.21875 2.050781 L 62.027344 27.605469 C 64.402344 29.957031 64.417969 33.785156 62.058594 36.15625 L 36.460938 61.917969 C 34.105469 64.289062 30.269531 64.304688 27.894531 61.949219 L 2.085938 36.394531 C -0.289062 34.042969 -0.304688 30.214844 2.050781 27.84375 L 27.652344 2.082031 C 30.007812 -0.289062 33.84375 -0.304688 36.21875 2.050781 Z M 36.21875 2.050781 " /><g transform="matrix(1.0075098,0,0,1.0032698,16.221436,16.077397)"><path fill-rule="nonzero" fill="rgb(100%, 100%, 100%)" fill-opacity="1" d="M 1.4375 7.605469 L 1.4375 13.554688 L 9.816406 13.554688 L 1.4375 21.886719 L 1.4375 29.023438 L 24.117188 29.023438 C 28.53125 29.023438 31 23.648438 31.015625 18.316406 C 31.035156 12.9375 28.570312 7.605469 24.117188 7.605469 Z M 19.183594 13.554688 L 23.128906 13.554688 C 24.117188 13.554688 25.101562 14.746094 25.101562 17.125 L 25.101562 19.507812 C 25.101562 21.886719 24.117188 23.078125 23.128906 23.078125 L 20.171875 23.078125 L 20.171875 19.507812 L 15.242188 19.507812 L 15.242188 23.078125 L 9.324219 23.078125 Z M 19.183594 13.554688 "/></g></svg>
