<svg width="64" height="64" viewBox="0 0 64 64" version="1.1"><defs><linearGradient id="linear-pattern-0" gradientUnits="userSpaceOnUse" x1="0" y1="0" x2="0" y2="1" gradientTransform="matrix(60, 0, 0, 56, 0, 4)"><stop offset="0" stop-color="#8900e4" stop-opacity="1"/><stop offset="1" stop-color="#42006e" stop-opacity="1"/></linearGradient></defs><path fill="url(#linear-pattern-0)" fill-opacity="1" d="M 36.21875 2.050781 L 62.027344 27.605469 C 64.402344 29.957031 64.417969 33.785156 62.058594 36.15625 L 36.460938 61.917969 C 34.105469 64.289062 30.269531 64.304688 27.894531 61.949219 L 2.085938 36.394531 C -0.289062 34.042969 -0.304688 30.214844 2.050781 27.84375 L 27.652344 2.082031 C 30.007812 -0.289062 33.84375 -0.304688 36.21875 2.050781 Z M 36.21875 2.050781 " /><g transform="matrix(1.0075098,0,0,1.0032698,16.221436,16.077397)"><path fill-rule="nonzero" fill="rgb(100%, 100%, 100%)" fill-opacity="1" d="M 2.585938 2.578125 L 2.585938 14.160156 L 5.914062 14.160156 L 5.914062 5.886719 L 14.222656 5.886719 L 14.222656 2.578125 Z M 17.546875 2.578125 L 17.546875 5.886719 L 25.851562 5.886719 L 25.851562 14.160156 L 29.179688 14.160156 L 29.179688 2.578125 Z M 2.585938 17.46875 L 2.585938 29.054688 L 14.222656 29.054688 L 14.222656 25.742188 L 5.914062 25.742188 L 5.914062 17.46875 Z M 25.851562 17.46875 L 25.851562 25.742188 L 17.546875 25.742188 L 17.546875 29.054688 L 29.179688 29.054688 L 29.179688 17.46875 Z M 25.851562 17.46875 "/><path fill-rule="nonzero" fill="rgb(100%, 100%, 100%)" fill-opacity="1" d="M 7.320312 8.234375 L 7.320312 14.160156 L 12.320312 14.160156 L 12.320312 8.234375 Z M 8.570312 9.71875 L 11.070312 9.71875 L 11.070312 12.679688 L 8.570312 12.679688 Z M 8.570312 9.71875 "/><path fill-rule="nonzero" fill="rgb(100%, 100%, 100%)" fill-opacity="1" d="M 13.304688 8.234375 L 13.304688 14.160156 L 18.304688 14.160156 L 18.304688 8.234375 Z M 14.550781 9.71875 L 17.054688 9.71875 L 17.054688 12.679688 L 14.550781 12.679688 Z M 14.550781 9.71875 "/><path fill-rule="nonzero" fill="rgb(100%, 100%, 100%)" fill-opacity="1" d="M 19.34375 8.234375 L 19.34375 14.160156 L 24.34375 14.160156 L 24.34375 8.234375 Z M 20.59375 9.71875 L 23.09375 9.71875 L 23.09375 12.679688 L 20.59375 12.679688 Z M 20.59375 9.71875 "/><path fill-rule="nonzero" fill="rgb(100%, 100%, 100%)" fill-opacity="1" d="M 13.390625 17.4375 L 13.390625 23.367188 L 18.390625 23.367188 L 18.390625 17.4375 Z M 14.644531 18.921875 L 17.144531 18.921875 L 17.144531 21.882812 L 14.644531 21.882812 Z M 14.644531 18.921875 "/><path fill-rule="nonzero" fill="rgb(100%, 100%, 100%)" fill-opacity="1" d="M 7.539062 17.4375 L 7.539062 23.367188 L 12.539062 23.367188 L 12.539062 17.4375 Z M 8.789062 18.921875 L 11.285156 18.921875 L 11.285156 21.882812 L 8.789062 21.882812 Z M 8.789062 18.921875 "/><path fill-rule="nonzero" fill="rgb(100%, 100%, 100%)" fill-opacity="1" d="M 19.296875 17.4375 L 19.296875 23.367188 L 24.296875 23.367188 L 24.296875 17.4375 Z M 20.546875 18.921875 L 23.046875 18.921875 L 23.046875 21.882812 L 20.546875 21.882812 Z M 20.546875 18.921875 "/></g></svg>
