<svg width="64" height="64" viewBox="0 0 64 64" version="1.1"><defs><linearGradient id="linear-pattern-0" gradientUnits="userSpaceOnUse" x1="0" y1="0" x2="0" y2="1" gradientTransform="matrix(60, 0, 0, 56, 0, 4)"><stop offset="0" stop-color="#a67e50" stop-opacity="1"/><stop offset="1" stop-color="#644c30" stop-opacity="1"/></linearGradient></defs><path fill="url(#linear-pattern-0)" fill-opacity="1" d="M 36.21875 2.050781 L 62.027344 27.605469 C 64.402344 29.957031 64.417969 33.785156 62.058594 36.15625 L 36.460938 61.917969 C 34.105469 64.289062 30.269531 64.304688 27.894531 61.949219 L 2.085938 36.394531 C -0.289062 34.042969 -0.304688 30.214844 2.050781 27.84375 L 27.652344 2.082031 C 30.007812 -0.289062 33.84375 -0.304688 36.21875 2.050781 Z M 36.21875 2.050781 " /><g transform="matrix(1.0075098,0,0,1.0032698,16.221436,16.077397)"><path fill-rule="evenodd" fill="rgb(100%, 100%, 100%)" fill-opacity="1" d="M 6.117188 8.199219 L 16 2.5 L 25.882812 8.140625 L 16 13.882812 Z M 12.34375 27.324219 L 5.03125 22.820312 L 5.03125 21.4375 L 9.941406 18.171875 L 5.328125 15.328125 L 5.328125 13.609375 L 12.34375 17.9375 L 12.34375 19.316406 L 7.394531 22.554688 L 12.34375 25.605469 Z M 16 0.199219 L 29.898438 7.992188 L 29.898438 24.039062 L 16 32.0625 L 2.101562 24.039062 L 2.101562 8.1875 Z M 26.78125 14.75 L 26.78125 22.601562 L 25.265625 23.535156 L 25.265625 19.5 C 25.265625 19.328125 25.273438 19.117188 25.289062 18.867188 C 25.203125 19.183594 25.121094 19.4375 25.054688 19.632812 L 23.148438 24.976562 L 21.226562 21.988281 C 21.164062 21.882812 21.085938 21.722656 20.992188 21.515625 C 21.007812 21.746094 21.015625 21.945312 21.015625 22.117188 L 21.015625 26.15625 L 19.5 27.09375 L 19.5 19.238281 L 21.039062 18.289062 L 22.96875 21.429688 C 23.027344 21.539062 23.09375 21.675781 23.171875 21.84375 C 23.242188 21.585938 23.3125 21.359375 23.371094 21.179688 L 25.335938 15.640625 Z M 26.78125 14.75 "/></g></svg>
