<svg xmlns="http://www.w3.org/2000/svg" xmlns:xlink="http://www.w3.org/1999/xlink" width="16" height="16" viewBox="0 0 16 16" version="1.1"><defs><linearGradient id="linear0" x1="0%" x2="100%" y1="0%" y2="100%"><stop offset="0%" style="stop-color:#e5ff00; stop-opacity:1"/><stop offset="50%" style="stop-color:#0073ff; stop-opacity:1"/><stop offset="100%" style="stop-color:#ff0000; stop-opacity:1"/></linearGradient></defs><g id="surface1"><path style=" stroke:none;fill-rule:nonzero;fill:url(#linear0);fill-opacity:1;" d="M 8 0 C 6.339844 0 5 1.339844 5 3 L 5 8 C 5 9.660156 6.339844 11 8 11 C 9.660156 11 11 9.660156 11 8 L 11 3 C 11 1.339844 9.660156 0 8 0 Z M 2 7 L 2 8 C 2 10.96875 4.160156 13.429688 7 13.910156 L 7 16 L 9 16 L 9 13.910156 C 11.839844 13.429688 14 10.96875 14 8 L 14 7 L 12 7 L 12 8 C 12 10.230469 10.230469 12 8 12 C 5.769531 12 4 10.230469 4 8 L 4 7 Z M 2 7 "/></g></svg>
