<svg xmlns="http://www.w3.org/2000/svg" xmlns:xlink="http://www.w3.org/1999/xlink" width="16" height="16" viewBox="0 0 16 16" version="1.1"><defs><linearGradient id="linear0" x1="0%" x2="0%" y1="0%" y2="100%"><stop offset="0%" style="stop-color:#00b54e; stop-opacity:1"/><stop offset="50%" style="stop-color:#ffd000; stop-opacity:1"/><stop offset="100%" style="stop-color:#ff00bb; stop-opacity:1"/></linearGradient></defs><g id="surface1"><path style=" stroke:none;fill-rule:nonzero;fill:url(#linear0);fill-opacity:1;" d="M 6.5 1 C 3.460938 1 1 3.460938 1 6.5 C 1 9.539062 3.460938 12 6.5 12 C 7.613281 12 8.699219 11.660156 9.617188 11.03125 L 13.277344 14.691406 C 13.46875 14.890625 13.726562 15 14 15 C 14.550781 15 15 14.550781 15 14 C 15 13.730469 14.890625 13.472656 14.695312 13.28125 L 11.027344 9.613281 C 11.660156 8.699219 11.996094 7.613281 12 6.5 C 12 3.460938 9.539062 1 6.5 1 Z M 6.5 3 C 8.433594 3 10 4.566406 10 6.5 C 10 8.433594 8.433594 10 6.5 10 C 4.566406 10 3 8.433594 3 6.5 C 3 4.566406 4.566406 3 6.5 3 Z M 6.5 3 "/></g></svg>
