<svg xmlns="http://www.w3.org/2000/svg" xmlns:xlink="http://www.w3.org/1999/xlink" width="16" height="16" viewBox="0 0 16 16" version="1.1"><defs><linearGradient id="linear0" x1="0%" x2="0%" y1="0%" y2="100%"><stop offset="0%" style="stop-color:#ffd000; stop-opacity:1"/><stop offset="50%" style="stop-color:#24dbdb; stop-opacity:1"/><stop offset="100%" style="stop-color:#0073ff; stop-opacity:1"/></linearGradient></defs><g id="surface1"><path style=" stroke:none;fill-rule:nonzero;fill:url(#linear0);fill-opacity:1;" d="M 2 2 C 1 2 1 3 1 3 L 1 13 C 1 14 2 14 2 14 L 9 14 L 9 12.582031 L 9.582031 12 L 3 12 L 3 9.5 L 5.5 6.5625 L 8.8125 10.3125 L 10.9375 8.25 L 12.136719 9.445312 L 14 7.582031 L 15 8.582031 L 15 3 C 15 2 14 2 14 2 Z M 14 8.996094 L 10 12.996094 L 10 14.996094 L 12 14.996094 L 16 10.996094 Z M 14 8.996094 "/></g></svg>
