<svg xmlns="http://www.w3.org/2000/svg" xmlns:xlink="http://www.w3.org/1999/xlink" width="16" height="16" viewBox="0 0 16 16" version="1.1"><defs><linearGradient id="linear0" x1="0%" x2="0%" y1="0%" y2="100%"><stop offset="0%" style="stop-color:#00b54e; stop-opacity:1"/><stop offset="50%" style="stop-color:#0073ff; stop-opacity:1"/><stop offset="100%" style="stop-color:#ffd000; stop-opacity:1"/></linearGradient></defs><g id="surface1"><path style=" stroke:none;fill-rule:nonzero;fill:url(#linear0);fill-opacity:1;" d="M 11 1 L 10.425781 2.613281 L 8.878906 1.878906 L 9.613281 3.425781 L 8 4 L 9.613281 4.574219 L 8.878906 6.121094 L 10.425781 5.386719 L 11 7 L 11.574219 5.386719 L 13.121094 6.121094 L 12.386719 4.574219 L 14 4 L 12.386719 3.425781 L 13.121094 1.878906 L 11.574219 2.613281 Z M 6 2 C 5.792969 2.664062 5.511719 3.3125 5.210938 3.949219 C 3.671875 7.097656 1.261719 9.253906 1.027344 11.242188 C 1.019531 11.273438 1.003906 11.304688 1 11.332031 L 1.019531 11.339844 C 1.015625 11.410156 1 11.476562 1 11.546875 C 1 14.003906 3.238281 16 6 16 C 8.761719 16 11 14.003906 11 11.546875 C 11 11.476562 10.984375 11.410156 10.980469 11.339844 L 11 11.332031 C 10.996094 11.304688 10.980469 11.273438 10.972656 11.242188 C 10.738281 9.253906 8.328125 7.097656 6.789062 3.945312 C 6.488281 3.3125 6.207031 2.664062 6 2 Z M 6 2 "/></g></svg>
