<svg xmlns="http://www.w3.org/2000/svg" xmlns:xlink="http://www.w3.org/1999/xlink" width="16" height="16" viewBox="0 0 16 16" version="1.1"><defs><linearGradient id="linear0" x1="0%" x2="100%" y1="0%" y2="100%"><stop offset="0%" style="stop-color:#ff0000; stop-opacity:1"/><stop offset="50%" style="stop-color:#ffd000; stop-opacity:1"/><stop offset="100%" style="stop-color:#ff00bb; stop-opacity:1"/></linearGradient></defs><g id="surface1"><path style=" stroke:none;fill-rule:nonzero;fill:url(#linear0);fill-opacity:1;" d="M 10 0 L 10 6.101562 C 9.777344 6.148438 9.558594 6.210938 9.34375 6.289062 C 9.304688 6.300781 9.269531 6.3125 9.234375 6.328125 C 8.8125 6.488281 8.414062 6.703125 8.054688 6.96875 C 8.023438 6.988281 7.996094 7.011719 7.964844 7.035156 C 7.789062 7.167969 7.625 7.3125 7.46875 7.46875 C 7.304688 7.628906 7.15625 7.800781 7.019531 7.984375 C 7 8.007812 6.984375 8.035156 6.964844 8.0625 C 6.84375 8.226562 6.730469 8.402344 6.628906 8.585938 C 6.617188 8.601562 6.609375 8.621094 6.601562 8.640625 C 6.488281 8.84375 6.390625 9.058594 6.308594 9.28125 C 6.308594 9.28125 6.308594 9.285156 6.304688 9.285156 L 6.304688 9.296875 C 6.222656 9.523438 6.15625 9.757812 6.109375 9.992188 C 6.105469 9.996094 6.105469 9.996094 6.105469 10 L 0 10 L 0 12 L 6.101562 12 C 6.15625 12.269531 6.238281 12.53125 6.335938 12.785156 C 6.347656 12.8125 6.355469 12.839844 6.367188 12.867188 C 6.460938 13.097656 6.570312 13.320312 6.695312 13.535156 C 6.726562 13.585938 6.753906 13.628906 6.785156 13.675781 C 6.914062 13.882812 7.058594 14.078125 7.214844 14.265625 C 7.238281 14.289062 7.261719 14.3125 7.285156 14.339844 C 7.441406 14.511719 7.609375 14.671875 7.785156 14.824219 C 7.8125 14.84375 7.835938 14.867188 7.863281 14.890625 C 8.054688 15.042969 8.253906 15.179688 8.460938 15.300781 C 8.507812 15.328125 8.554688 15.355469 8.601562 15.378906 C 8.8125 15.496094 9.03125 15.597656 9.253906 15.683594 C 9.296875 15.699219 9.34375 15.710938 9.386719 15.726562 C 9.617188 15.808594 9.855469 15.871094 10.09375 15.917969 C 10.109375 15.917969 10.121094 15.921875 10.136719 15.921875 C 10.421875 15.972656 10.710938 16 11 16 C 11.167969 16 11.335938 15.992188 11.5 15.972656 C 11.667969 15.957031 11.832031 15.933594 11.996094 15.902344 C 12.007812 15.898438 12.019531 15.894531 12.035156 15.890625 C 12.339844 15.824219 12.636719 15.734375 12.921875 15.613281 C 12.929688 15.609375 12.941406 15.609375 12.949219 15.605469 L 12.964844 15.597656 C 13.242188 15.476562 13.507812 15.332031 13.757812 15.167969 C 13.773438 15.15625 13.792969 15.148438 13.808594 15.136719 C 14.054688 14.964844 14.289062 14.773438 14.5 14.5625 C 14.515625 14.546875 14.53125 14.535156 14.546875 14.519531 C 14.75 14.3125 14.933594 14.09375 15.09375 13.855469 C 15.117188 13.820312 15.144531 13.792969 15.167969 13.757812 C 15.320312 13.523438 15.453125 13.277344 15.5625 13.023438 C 15.582031 12.980469 15.605469 12.9375 15.625 12.894531 C 15.730469 12.628906 15.816406 12.355469 15.875 12.078125 C 15.886719 12.023438 15.902344 11.972656 15.910156 11.921875 C 15.925781 11.84375 15.9375 11.769531 15.949219 11.691406 C 15.960938 11.605469 15.972656 11.519531 15.980469 11.433594 C 15.992188 11.289062 16 11.144531 16 11 C 15.996094 10.734375 15.976562 10.472656 15.933594 10.210938 C 15.925781 10.167969 15.921875 10.125 15.910156 10.082031 C 15.863281 9.832031 15.800781 9.589844 15.714844 9.351562 C 15.703125 9.316406 15.691406 9.285156 15.675781 9.25 C 15.589844 9.007812 15.480469 8.773438 15.355469 8.546875 C 15.34375 8.53125 15.335938 8.515625 15.328125 8.5 C 15.195312 8.273438 15.042969 8.054688 14.878906 7.851562 C 14.875 7.847656 14.871094 7.839844 14.867188 7.835938 C 14.699219 7.632812 14.515625 7.445312 14.316406 7.269531 C 14.296875 7.25 14.273438 7.230469 14.25 7.210938 C 14.054688 7.039062 13.839844 6.882812 13.617188 6.742188 C 13.605469 6.738281 13.59375 6.730469 13.578125 6.726562 C 13.09375 6.429688 12.5625 6.222656 12.003906 6.109375 C 12.003906 6.105469 12.003906 6.105469 12 6.105469 L 12 0 Z M 10 0 "/></g></svg>
