<svg xmlns="http://www.w3.org/2000/svg" xmlns:xlink="http://www.w3.org/1999/xlink" width="16" height="16" viewBox="0 0 16 16" version="1.1"><defs><linearGradient id="linear0" x1="0%" x2="0%" y1="0%" y2="100%"><stop offset="0%" style="stop-color:#00b54e; stop-opacity:1"/><stop offset="50%" style="stop-color:#ffd000; stop-opacity:1"/><stop offset="100%" style="stop-color:#ff00bb; stop-opacity:1"/></linearGradient></defs><g id="surface1"><path style=" stroke:none;fill-rule:nonzero;fill:url(#linear0);fill-opacity:1;" d="M 4 0 L 4 6.105469 C 3.996094 6.105469 3.996094 6.105469 3.992188 6.109375 C 3.4375 6.222656 2.90625 6.429688 2.421875 6.726562 C 2.40625 6.730469 2.394531 6.738281 2.382812 6.742188 C 2.160156 6.882812 1.945312 7.039062 1.75 7.210938 C 1.726562 7.230469 1.703125 7.25 1.679688 7.269531 C 1.484375 7.445312 1.300781 7.632812 1.132812 7.835938 C 1.128906 7.839844 1.125 7.847656 1.121094 7.851562 C 0.957031 8.054688 0.804688 8.273438 0.671875 8.5 C 0.664062 8.515625 0.65625 8.53125 0.648438 8.546875 C 0.519531 8.773438 0.410156 9.007812 0.320312 9.25 C 0.308594 9.285156 0.296875 9.316406 0.285156 9.351562 C 0.199219 9.589844 0.136719 9.832031 0.0859375 10.082031 C 0.078125 10.125 0.0742188 10.167969 0.0703125 10.210938 C 0.0234375 10.472656 0 10.734375 0 11 C 0 11.144531 0.0078125 11.289062 0.0234375 11.433594 C 0.0273438 11.519531 0.0390625 11.605469 0.0546875 11.691406 C 0.0625 11.769531 0.0742188 11.84375 0.0859375 11.921875 C 0.0976562 11.972656 0.113281 12.023438 0.125 12.078125 C 0.183594 12.355469 0.269531 12.628906 0.375 12.894531 C 0.394531 12.9375 0.417969 12.980469 0.4375 13.023438 C 0.546875 13.277344 0.679688 13.523438 0.832031 13.757812 C 0.855469 13.792969 0.882812 13.820312 0.90625 13.855469 C 1.066406 14.09375 1.25 14.3125 1.453125 14.519531 C 1.46875 14.535156 1.484375 14.546875 1.5 14.5625 C 1.710938 14.773438 1.945312 14.964844 2.191406 15.136719 C 2.207031 15.148438 2.226562 15.15625 2.242188 15.167969 C 2.492188 15.332031 2.757812 15.476562 3.039062 15.597656 L 3.054688 15.605469 C 3.058594 15.609375 3.070312 15.609375 3.078125 15.613281 C 3.363281 15.734375 3.660156 15.824219 3.964844 15.890625 C 3.980469 15.894531 3.992188 15.898438 4.007812 15.902344 C 4.167969 15.933594 4.332031 15.957031 4.5 15.972656 C 4.667969 15.992188 4.832031 16 5 16 C 5.289062 16 5.578125 15.972656 5.863281 15.921875 C 5.878906 15.921875 5.890625 15.917969 5.90625 15.917969 C 6.144531 15.871094 6.382812 15.808594 6.613281 15.726562 C 6.65625 15.710938 6.703125 15.699219 6.746094 15.683594 C 6.96875 15.597656 7.1875 15.496094 7.398438 15.378906 C 7.445312 15.355469 7.492188 15.328125 7.539062 15.300781 C 7.746094 15.179688 7.945312 15.042969 8.136719 14.890625 C 8.164062 14.867188 8.1875 14.84375 8.214844 14.824219 C 8.390625 14.671875 8.558594 14.511719 8.714844 14.339844 C 8.738281 14.3125 8.761719 14.289062 8.785156 14.265625 C 8.941406 14.078125 9.085938 13.882812 9.214844 13.675781 C 9.246094 13.628906 9.273438 13.582031 9.304688 13.535156 C 9.429688 13.320312 9.539062 13.097656 9.632812 12.867188 C 9.644531 12.839844 9.652344 12.8125 9.664062 12.785156 C 9.761719 12.53125 9.84375 12.269531 9.898438 12 L 16 12 L 16 10 L 9.894531 10 C 9.894531 9.996094 9.894531 9.996094 9.890625 9.992188 C 9.84375 9.757812 9.777344 9.523438 9.695312 9.296875 L 9.695312 9.285156 C 9.691406 9.285156 9.691406 9.28125 9.691406 9.28125 C 9.609375 9.058594 9.511719 8.84375 9.398438 8.640625 C 9.390625 8.621094 9.382812 8.601562 9.371094 8.585938 C 9.269531 8.402344 9.15625 8.226562 9.035156 8.0625 C 9.015625 8.035156 9 8.007812 8.980469 7.984375 C 8.84375 7.800781 8.695312 7.628906 8.53125 7.46875 C 8.375 7.3125 8.210938 7.167969 8.035156 7.035156 C 8.003906 7.011719 7.976562 6.988281 7.945312 6.96875 C 7.585938 6.703125 7.1875 6.488281 6.765625 6.328125 C 6.730469 6.3125 6.695312 6.300781 6.65625 6.289062 C 6.441406 6.210938 6.222656 6.148438 6 6.101562 L 6 0 Z M 4 0 "/></g></svg>
