<svg xmlns="http://www.w3.org/2000/svg" xmlns:xlink="http://www.w3.org/1999/xlink" width="16" height="16" viewBox="0 0 16 16" version="1.1"><defs><linearGradient id="linear0" x1="0%" x2="100%" y1="0%" y2="100%"><stop offset="0%" style="stop-color:#e5ff00; stop-opacity:1"/><stop offset="50%" style="stop-color:#0073ff; stop-opacity:1"/><stop offset="100%" style="stop-color:#ff0000; stop-opacity:1"/></linearGradient></defs><g id="surface1"><path style=" stroke:none;fill-rule:nonzero;fill:rgb(32.156864%,58.039218%,88.627452%);fill-opacity:1;" d="M 14 1.996094 C 7.386719 1.996094 2.019531 7.351562 2 13.964844 L 2 14.027344 C 2 14.570312 2.4375 14.996094 2.96875 14.996094 L 6 14.996094 C 6.554688 14.996094 7 14.550781 7 13.996094 L 7 11.996094 C 7 11.441406 6.554688 10.996094 6 10.996094 L 5.53125 10.996094 C 6.4375 8.4375 8.445312 6.429688 11 5.527344 L 11 5.996094 C 11 6.550781 11.449219 6.996094 12 6.996094 L 14 6.996094 C 14.554688 6.996094 15 6.550781 15 5.996094 L 15 2.996094 C 15 2.441406 14.578125 1.996094 14.03125 1.996094 Z M 14 1.996094 "/></g></svg>
