<svg xmlns="http://www.w3.org/2000/svg" xmlns:xlink="http://www.w3.org/1999/xlink" width="16" height="16" viewBox="0 0 16 16" version="1.1"><defs><linearGradient id="linear0" x1="0%" x2="100%" y1="0%" y2="100%"><stop offset="0%" style="stop-color:#e5ff00; stop-opacity:1"/><stop offset="50%" style="stop-color:#0073ff; stop-opacity:1"/><stop offset="100%" style="stop-color:#ff0000; stop-opacity:1"/></linearGradient></defs><g id="surface1"><path style=" stroke:none;fill-rule:nonzero;fill:rgb(99.215686%,73.725492%,29.411766%);fill-opacity:1;" d="M 15 10 C 15 12.761719 12.761719 15 10 15 C 7.238281 15 5 12.761719 5 10 C 5 7.238281 7.238281 5 10 5 C 12.761719 5 15 7.238281 15 10 Z M 15 10 "/><path style=" stroke:none;fill-rule:nonzero;fill:rgb(32.156864%,58.039218%,88.627452%);fill-opacity:1;" d="M 11 10 C 11 12.761719 8.761719 15 6 15 C 3.238281 15 1 12.761719 1 10 C 1 7.238281 3.238281 5 6 5 C 8.761719 5 11 7.238281 11 10 Z M 11 10 "/><path style=" stroke:none;fill-rule:nonzero;fill:rgb(30.980393%,93.725491%,25.882354%);fill-opacity:1;" d="M 13 6 C 13 8.761719 10.761719 11 8 11 C 5.238281 11 3 8.761719 3 6 C 3 3.238281 5.238281 1 8 1 C 10.761719 1 13 3.238281 13 6 Z M 13 6 "/></g></svg>
