<svg xmlns="http://www.w3.org/2000/svg" xmlns:xlink="http://www.w3.org/1999/xlink" width="16" height="16" viewBox="0 0 16 16" version="1.1"><defs><linearGradient id="linear0" x1="0%" x2="0%" y1="0%" y2="100%"><stop offset="0%" style="stop-color:#ffd000; stop-opacity:1"/><stop offset="50%" style="stop-color:#24dbdb; stop-opacity:1"/><stop offset="100%" style="stop-color:#0073ff; stop-opacity:1"/></linearGradient></defs><g id="surface1"><path style=" stroke:none;fill-rule:nonzero;fill:url(#linear0);fill-opacity:1;" d="M 2 1 C 0.890625 1 0 1.890625 0 3 L 0 13 C 0 14.109375 0.890625 15 2 15 L 6.105469 15 C 6.042969 14.757812 6 14.507812 6 14.246094 L 6 14 L 2 14 C 1.445312 14 1 13.554688 1 13 L 1 5 C 1 4.445312 1.445312 4 2 4 L 13 4 C 13.554688 4 14 4.445312 14 5 L 14 7 L 15 7 L 15 3 C 15 1.890625 14.109375 1 13 1 Z M 2 1 "/><path style=" stroke:none;fill-rule:nonzero;fill:rgb(23.921569%,68.235296%,91.37255%);fill-opacity:1;" d="M 9 8 C 7.890625 8 7 8.890625 7 10 L 7 14 C 7 15.109375 7.890625 16 9 16 L 14 16 C 15.109375 16 16 15.109375 16 14 L 16 10 C 16 8.890625 15.109375 8 14 8 Z M 9 10 L 14 10 C 14.554688 10 15 10.445312 15 11 L 15 14 C 15 14.554688 14.554688 15 14 15 L 9 15 C 8.445312 15 8 14.554688 8 14 L 8 11 C 8 10.445312 8.445312 10 9 10 Z M 9 10 "/></g></svg>
