<svg xmlns="http://www.w3.org/2000/svg" xmlns:xlink="http://www.w3.org/1999/xlink" width="16" height="16" viewBox="0 0 16 16" version="1.1"><defs><linearGradient id="linear0" x1="0%" x2="0%" y1="0%" y2="100%"><stop offset="0%" style="stop-color:#00b54e; stop-opacity:1"/><stop offset="50%" style="stop-color:#ffd000; stop-opacity:1"/><stop offset="100%" style="stop-color:#ff00bb; stop-opacity:1"/></linearGradient></defs><g id="surface1"><path style=" stroke:none;fill-rule:nonzero;fill:url(#linear0);fill-opacity:1;" d="M 2 1 C 0.890625 1 0 1.890625 0 3 L 0 13 C 0 14.109375 0.890625 15 2 15 L 12 15 C 13.109375 15 14 14.109375 14 13 L 14 9.992188 L 12 10 L 12 13 L 2 13 L 2 3 L 12 3 L 12 6 L 14 5.992188 L 14 3 C 14 1.890625 13.109375 1 12 1 Z M 7.789062 4 L 3.789062 8 L 7.789062 12.042969 L 9.175781 10.65625 L 7.539062 9.023438 L 15 9 L 15 7 L 7.539062 7.023438 L 9.175781 5.386719 Z M 7.789062 4 "/></g></svg>
