<svg xmlns="http://www.w3.org/2000/svg" xmlns:xlink="http://www.w3.org/1999/xlink" width="16" height="16" viewBox="0 0 16 16" version="1.1"><defs><linearGradient id="linear0" x1="0%" x2="0%" y1="0%" y2="100%"><stop offset="0%" style="stop-color:#00b54e; stop-opacity:1"/><stop offset="50%" style="stop-color:#ffd000; stop-opacity:1"/><stop offset="100%" style="stop-color:#ff00bb; stop-opacity:1"/></linearGradient></defs><g id="surface1"><path style=" stroke:none;fill-rule:nonzero;fill:url(#linear0);fill-opacity:1;" d="M 8 3 L 13 3 L 13 13 L 8 13 Z M 3 3 L 13 3 L 13 9 L 11 7 L 7.65625 10.34375 L 6.3125 9 L 6.28125 9 L 3 12.28125 Z M 2 2 L 2 14 L 14 14 L 14 2 Z M 6 4 C 4.894531 4 4 4.894531 4 6 C 4 7.105469 4.894531 8 6 8 C 7.105469 8 8 7.105469 8 6 C 8 4.894531 7.105469 4 6 4 Z M 6 4 "/></g></svg>
