<svg xmlns="http://www.w3.org/2000/svg" xmlns:xlink="http://www.w3.org/1999/xlink" width="16" height="16" viewBox="0 0 16 16" version="1.1"><defs><linearGradient id="linear0" x1="0%" x2="0%" y1="0%" y2="100%"><stop offset="0%" style="stop-color:#ffd000; stop-opacity:1"/><stop offset="50%" style="stop-color:#24dbdb; stop-opacity:1"/><stop offset="100%" style="stop-color:#0073ff; stop-opacity:1"/></linearGradient></defs><g id="surface1"><path style=" stroke:none;fill-rule:nonzero;fill:rgb(66.274512%,66.274512%,66.274512%);fill-opacity:1;" d="M 8 1 C 7.792969 1.664062 7.511719 2.3125 7.210938 2.945312 C 5.671875 6.097656 3.261719 8.253906 3.027344 10.242188 C 3.019531 10.273438 3.003906 10.304688 3 10.332031 L 3.019531 10.339844 C 3.015625 10.410156 3 10.476562 3 10.546875 C 3 13.003906 5.238281 15 8 15 C 10.761719 15 13 13.003906 13 10.546875 C 13 10.476562 12.984375 10.410156 12.980469 10.339844 L 13 10.332031 C 12.996094 10.304688 12.980469 10.273438 12.972656 10.242188 C 12.738281 8.253906 10.328125 6.097656 8.789062 2.945312 C 8.488281 2.3125 8.207031 1.664062 8 1 Z M 8 1 "/></g></svg>
