<svg xmlns="http://www.w3.org/2000/svg" xmlns:xlink="http://www.w3.org/1999/xlink" width="16" height="16" viewBox="0 0 16 16" version="1.1"><defs><linearGradient id="linear0" x1="0%" x2="0%" y1="0%" y2="100%"><stop offset="0%" style="stop-color:#00b54e; stop-opacity:1"/><stop offset="50%" style="stop-color:#ffd000; stop-opacity:1"/><stop offset="100%" style="stop-color:#ff00bb; stop-opacity:1"/></linearGradient></defs><g id="surface1"><use xlink:href="#surface5" mask="url(#mask0)"/><path style=" stroke:none;fill-rule:nonzero;fill:url(#linear0);fill-opacity:1;" d="M 4 2 C 2.894531 2 2 2.894531 2 4 C 2 5.105469 2.894531 6 4 6 C 4.355469 6 4.707031 5.902344 5.015625 5.71875 L 10.28125 10.984375 C 10.097656 11.292969 10 11.644531 10 12 C 10 13.105469 10.894531 14 12 14 C 13.105469 14 14 13.105469 14 12 C 14 10.894531 13.105469 10 12 10 C 11.644531 10 11.292969 10.097656 10.984375 10.28125 L 5.71875 5.015625 C 5.902344 4.707031 6 4.355469 6 4 C 6 2.894531 5.105469 2 4 2 Z M 4 2 "/></g></svg>
