<svg xmlns="http://www.w3.org/2000/svg" xmlns:xlink="http://www.w3.org/1999/xlink" width="16" height="16" viewBox="0 0 16 16" version="1.1"><defs><linearGradient id="linear0" x1="0%" x2="0%" y1="0%" y2="100%"><stop offset="0%" style="stop-color:#00b54e; stop-opacity:1"/><stop offset="50%" style="stop-color:#ffd000; stop-opacity:1"/><stop offset="100%" style="stop-color:#ff00bb; stop-opacity:1"/></linearGradient></defs><g id="surface1"><path style=" stroke:none;fill-rule:nonzero;fill:url(#linear0);fill-opacity:1;" d="M 10 1 C 9 1 9 2 9 2 L 7 2 L 7 13 L 6 13 C 6 12 5 12 5 12 L 1 12 C 0 12 0 13 0 13 L 0 14 C 0 15 1 15 1 15 L 5 15 C 6 15 6 14 6 14 L 8 14 L 8 3 L 9 3 C 9 4 10 4 10 4 L 14 4 C 15 4 15 3 15 3 L 15 2 C 15 1 14 1 14 1 Z M 10 1 "/></g></svg>
