<svg xmlns="http://www.w3.org/2000/svg" xmlns:xlink="http://www.w3.org/1999/xlink" width="16" height="16" viewBox="0 0 16 16" version="1.1"><defs><linearGradient id="linear0" x1="0%" x2="0%" y1="0%" y2="100%"><stop offset="0%" style="stop-color:#00b54e; stop-opacity:1"/><stop offset="50%" style="stop-color:#0073ff; stop-opacity:1"/><stop offset="100%" style="stop-color:#ffd000; stop-opacity:1"/></linearGradient></defs><g id="surface1"><path style=" stroke:none;fill-rule:nonzero;fill:url(#linear0);fill-opacity:1;" d="M 7 0 L 7 2 L 9 2 L 9 0 Z M 3.050781 1.636719 L 2.703125 1.984375 L 2.6875 1.96875 L 1.96875 2.6875 L 1.984375 2.703125 L 1.636719 3.050781 L 3.050781 4.464844 L 4.464844 3.050781 Z M 12.949219 1.636719 L 11.535156 3.050781 L 12.949219 4.464844 L 14.363281 3.050781 L 14.015625 2.703125 L 14.03125 2.6875 L 13.3125 1.96875 L 13.296875 1.984375 Z M 8 3 C 5.238281 3 3 5.238281 3 8 C 3 10.761719 5.238281 13 8 13 C 10.761719 13 13 10.761719 13 8 C 13 5.238281 10.761719 3 8 3 Z M 8 5 L 8 11 C 6.34375 11 5 9.65625 5 8 C 5 6.34375 6.34375 5 8 5 Z M 0 7 L 0 9 L 2 9 L 2 7 Z M 14 7 L 14 9 L 16 9 L 16 7 Z M 3.050781 11.535156 L 1.636719 12.949219 L 1.984375 13.296875 L 1.96875 13.3125 L 2.6875 14.03125 L 2.703125 14.015625 L 3.050781 14.363281 L 4.464844 12.949219 Z M 12.949219 11.535156 L 11.535156 12.949219 L 12.949219 14.363281 L 13.296875 14.015625 L 13.3125 14.03125 L 14.03125 13.3125 L 14.015625 13.296875 L 14.363281 12.949219 Z M 7 14 L 7 16 L 9 16 L 9 14 Z M 7 14 "/></g></svg>
