<svg xmlns="http://www.w3.org/2000/svg" xmlns:xlink="http://www.w3.org/1999/xlink" width="16" height="16" viewBox="0 0 16 16" version="1.1"><defs><linearGradient id="linear0" x1="0%" x2="100%" y1="0%" y2="100%"><stop offset="0%" style="stop-color:#e5ff00; stop-opacity:1"/><stop offset="50%" style="stop-color:#0073ff; stop-opacity:1"/><stop offset="100%" style="stop-color:#ff0000; stop-opacity:1"/></linearGradient></defs><g id="surface1"><path style="fill:none;stroke-width:2;stroke-linecap:butt;stroke-linejoin:miter;stroke:url(#linear0);stroke-opacity:1;stroke-miterlimit:4;" d="M 13 3 L 6 3 C 6 3 4 3 4 5.5 C 4 8 6 8 6 8 L 10 8 C 10 8 12 8 12 10.5 C 12 13 10 13.019531 10 13.019531 L 3 12.980469 "/><path style=" stroke:none;fill-rule:nonzero;fill:url(#linear0);fill-opacity:1;" d="M 15 3 C 15 4.65625 13.65625 6 12 6 C 10.34375 6 9 4.65625 9 3 C 9 1.34375 10.34375 0 12 0 C 13.65625 0 15 1.34375 15 3 Z M 15 3 "/><path style=" stroke:none;fill-rule:nonzero;fill:url(#linear0);fill-opacity:1;" d="M 7 13 C 7 14.65625 5.65625 16 4 16 C 2.34375 16 1 14.65625 1 13 C 1 11.34375 2.34375 10 4 10 C 5.65625 10 7 11.34375 7 13 Z M 7 13 "/></g></svg>
