<svg xmlns="http://www.w3.org/2000/svg" xmlns:xlink="http://www.w3.org/1999/xlink" width="16" height="16" viewBox="0 0 16 16" version="1.1"><defs><linearGradient id="linear0" x1="0%" x2="100%" y1="0%" y2="100%"><stop offset="0%" style="stop-color:#ff0000; stop-opacity:1"/><stop offset="50%" style="stop-color:#ffd000; stop-opacity:1"/><stop offset="100%" style="stop-color:#ff00bb; stop-opacity:1"/></linearGradient></defs><g id="surface1"><path style=" stroke:none;fill-rule:nonzero;fill:url(#linear0);fill-opacity:1;" d="M 2.96875 2 C 2.96875 2 1 2 1 4 L 1 10 C 1 11.109375 1.890625 12 3 12 L 8 12 L 10 15.003906 L 12 12 L 13 12 C 13 12 15 12 15 10 L 15 4 C 15 2 13 2 13 2 Z M 5 4 L 6.414062 4 L 8 5.585938 L 9.585938 4 L 11 4 L 11 5.414062 L 9.414062 7 L 11 8.585938 L 11 10 L 9.585938 10 L 8 8.414062 L 6.414062 10 L 5 10 L 5 8.585938 L 6.585938 7 L 5 5.414062 Z M 5 4 "/></g></svg>
