<svg xmlns="http://www.w3.org/2000/svg" xmlns:xlink="http://www.w3.org/1999/xlink" width="16" height="16" viewBox="0 0 16 16" version="1.1"><defs><linearGradient id="linear0" x1="0%" x2="100%" y1="0%" y2="100%"><stop offset="0%" style="stop-color:#e5ff00; stop-opacity:1"/><stop offset="50%" style="stop-color:#0073ff; stop-opacity:1"/><stop offset="100%" style="stop-color:#ff0000; stop-opacity:1"/></linearGradient></defs><g id="surface1"><path style=" stroke:none;fill-rule:nonzero;fill:url(#linear0);fill-opacity:1;" d="M 4 1 L 4 5 L 12 5 L 12 1 Z M 5 2 L 11 2 L 11 4 L 5 4 Z M 6 6 L 6 7 L 7 7 L 7 9 L 6 9 L 6 10 L 10 10 L 10 9 L 9 9 L 9 7 L 10 7 L 10 6 Z M 4 11 L 4 15 L 12 15 L 12 11 Z M 5 12 L 11 12 L 11 14 L 5 14 Z M 5 12 "/></g></svg>
