<svg xmlns="http://www.w3.org/2000/svg" xmlns:xlink="http://www.w3.org/1999/xlink" width="16" height="16" viewBox="0 0 16 16" version="1.1"><defs><linearGradient id="linear0" x1="0%" x2="0%" y1="0%" y2="100%"><stop offset="0%" style="stop-color:#ffd000; stop-opacity:1"/><stop offset="50%" style="stop-color:#24dbdb; stop-opacity:1"/><stop offset="100%" style="stop-color:#0073ff; stop-opacity:1"/></linearGradient></defs><g id="surface1"><path style=" stroke:none;fill-rule:nonzero;fill:url(#linear0);fill-opacity:1;" d="M 1 4 L 1 12 L 5 12 L 5 4 Z M 11 4 L 11 12 L 15 12 L 15 4 Z M 2 5 L 4 5 L 4 11 L 2 11 Z M 12 5 L 14 5 L 14 11 L 12 11 Z M 6 6 L 6 10 L 7 10 L 7 9 L 9 9 L 9 10 L 10 10 L 10 6 L 9 6 L 9 7 L 7 7 L 7 6 Z M 6 6 "/></g></svg>
