<svg xmlns="http://www.w3.org/2000/svg" xmlns:xlink="http://www.w3.org/1999/xlink" width="16" height="16" viewBox="0 0 16 16" version="1.1"><defs><linearGradient id="linear0" x1="0%" x2="0%" y1="0%" y2="100%"><stop offset="0%" style="stop-color:#00b54e; stop-opacity:1"/><stop offset="50%" style="stop-color:#ffd000; stop-opacity:1"/><stop offset="100%" style="stop-color:#ff00bb; stop-opacity:1"/></linearGradient></defs><g id="surface1"><path style=" stroke:none;fill-rule:nonzero;fill:url(#linear0);fill-opacity:1;" d="M 2.84375 0.00390625 L 2.84375 0.0078125 C 2.5625 0.0507812 2 0.238281 2 0.9375 L 2 13.0625 C 2 13.996094 3 14 3 14 L 10.5 14 C 8.566406 14 7 12.429688 7 10.5 C 7 8.566406 8.566406 7 10.5 7 C 12.332031 6.996094 13.851562 8.410156 13.988281 10.234375 C 13.992188 8.03125 13.992188 5.390625 13.988281 3.734375 L 9.992188 0.00390625 L 3 0.00390625 C 3 0.00390625 2.9375 -0.0117188 2.84375 0.00390625 Z M 10.519531 7.789062 C 9.023438 7.789062 7.800781 9.015625 7.800781 10.511719 C 7.800781 12.003906 9.023438 13.230469 10.519531 13.230469 C 11.007812 13.230469 11.464844 13.082031 11.863281 12.855469 C 11.902344 12.933594 11.953125 13.007812 12.019531 13.074219 L 13.863281 14.886719 C 14.15625 15.179688 14.632812 15.179688 14.925781 14.886719 C 15.21875 14.589844 15.21875 14.117188 14.925781 13.824219 L 13.082031 12.011719 C 13.019531 11.945312 12.945312 11.890625 12.863281 11.855469 C 13.089844 11.457031 13.238281 10.996094 13.238281 10.511719 C 13.238281 9.015625 12.015625 7.789062 10.519531 7.789062 Z M 10.519531 8.789062 C 11.476562 8.789062 12.238281 9.554688 12.238281 10.511719 C 12.238281 11.464844 11.476562 12.230469 10.519531 12.230469 C 9.5625 12.230469 8.800781 11.464844 8.800781 10.511719 C 8.800781 9.554688 9.5625 8.789062 10.519531 8.789062 Z M 10.519531 8.789062 "/></g></svg>
