<svg xmlns="http://www.w3.org/2000/svg" xmlns:xlink="http://www.w3.org/1999/xlink" width="16" height="16" viewBox="0 0 16 16" version="1.1"><defs><linearGradient id="linear0" x1="0%" x2="0%" y1="0%" y2="100%"><stop offset="0%" style="stop-color:#ffd000; stop-opacity:1"/><stop offset="50%" style="stop-color:#24dbdb; stop-opacity:1"/><stop offset="100%" style="stop-color:#0073ff; stop-opacity:1"/></linearGradient></defs><g id="surface1"><path style=" stroke:none;fill-rule:nonzero;fill:url(#linear0);fill-opacity:1;" d="M 2.84375 1.007812 C 2.5625 1.050781 2 1.242188 2 1.941406 L 2 14.070312 C 2 15 3 15.003906 3 15.003906 L 12.988281 15.003906 C 13.988281 15.003906 13.988281 14.070312 13.988281 14.070312 C 14.007812 14.027344 13.996094 7.117188 13.988281 4.742188 L 9.992188 1.007812 L 3 1.007812 C 3 1.007812 2.9375 0.992188 2.84375 1.007812 Z M 7 5.003906 L 9 5.003906 L 9 7.003906 L 11 7.003906 L 11 9.003906 L 9 9.003906 L 9 11.003906 L 7 11.003906 L 7 9.003906 L 5 9.003906 L 5 7.003906 L 7 7.003906 Z M 7 5.003906 "/></g></svg>
