<svg xmlns="http://www.w3.org/2000/svg" xmlns:xlink="http://www.w3.org/1999/xlink" width="16" height="16" viewBox="0 0 16 16" version="1.1"><defs><linearGradient id="linear0" x1="0%" x2="0%" y1="0%" y2="100%"><stop offset="0%" style="stop-color:#ffd000; stop-opacity:1"/><stop offset="50%" style="stop-color:#24dbdb; stop-opacity:1"/><stop offset="100%" style="stop-color:#0073ff; stop-opacity:1"/></linearGradient></defs><g id="surface1"><path style=" stroke:none;fill-rule:nonzero;fill:url(#linear0);fill-opacity:1;" d="M 3 1.003906 C 3 1.003906 2 1.003906 2 2.003906 L 2 4.753906 L 4 5.910156 L 4 3.003906 L 12 3.003906 L 12 11.980469 L 0 4.992188 L 0 11.992188 L 12 11.992188 L 12 13.003906 L 2 13.003906 L 2 14.003906 C 2 15.003906 3 15.003906 3 15.003906 L 13 15.003906 C 13 15.003906 14 15.003906 14 14.003906 L 14 2.003906 C 14 1.003906 13 1.003906 13 1.003906 Z M 2 8.046875 L 5.117188 10.023438 L 2 10.023438 Z M 2 8.046875 "/></g></svg>
