<svg xmlns="http://www.w3.org/2000/svg" xmlns:xlink="http://www.w3.org/1999/xlink" width="16" height="16" viewBox="0 0 16 16" version="1.1"><defs><linearGradient id="linear0" x1="0%" x2="0%" y1="0%" y2="100%"><stop offset="0%" style="stop-color:#ffd000; stop-opacity:1"/><stop offset="50%" style="stop-color:#24dbdb; stop-opacity:1"/><stop offset="100%" style="stop-color:#0073ff; stop-opacity:1"/></linearGradient></defs><g id="surface1"><path style=" stroke:none;fill-rule:nonzero;fill:url(#linear0);fill-opacity:1;" d="M 3 1.011719 C 3 1.011719 2 1.011719 2 2.011719 L 2 14.011719 C 2 15.011719 3 15.011719 3 15.011719 L 13 15.011719 C 13 15.011719 14 15.011719 14 14.011719 L 14 10.011719 C 14 7.007812 11 7.007812 11 7.007812 L 10 7.003906 L 10 5.003906 L 5.5 8.003906 L 10 11.003906 L 10 9.003906 L 11 9.007812 C 11 9.007812 12 9.007812 12 10.011719 L 12 13.011719 L 4 13.011719 L 4 3.011719 L 12 3.011719 L 12 6.007812 L 14 6.003906 L 14 2.007812 C 14 1.007812 13 1.007812 13 1.007812 L 3 1.007812 Z M 3 1.011719 "/></g></svg>
