<svg xmlns="http://www.w3.org/2000/svg" xmlns:xlink="http://www.w3.org/1999/xlink" width="16" height="16" viewBox="0 0 16 16" version="1.1"><defs><linearGradient id="linear0" x1="0%" x2="0%" y1="0%" y2="100%"><stop offset="0%" style="stop-color:#00b54e; stop-opacity:1"/><stop offset="50%" style="stop-color:#ffd000; stop-opacity:1"/><stop offset="100%" style="stop-color:#ff00bb; stop-opacity:1"/></linearGradient></defs><g id="surface1"><path style=" stroke:none;fill-rule:nonzero;fill:rgb(15.294118%,68.235296%,37.64706%);fill-opacity:1;" d="M 4.5 2 C 3.671875 2 3 2.671875 3 3.5 C 3 4.136719 3.402344 4.699219 4 4.910156 L 4 11 C 4 12.105469 4.894531 13 6 13 L 7 13 L 7 14 L 9 12.5 L 7 11 L 7 12 L 6 12 C 5.449219 12 5 11.550781 5 11 L 5 4.910156 C 5.597656 4.699219 6 4.136719 6 3.5 C 6 2.671875 5.328125 2 4.5 2 Z M 4.5 3 C 4.777344 3 5 3.222656 5 3.5 C 5 3.777344 4.777344 4 4.5 4 C 4.222656 4 4 3.777344 4 3.5 C 4 3.222656 4.222656 3 4.5 3 Z M 4.5 3 "/></g></svg>
