<svg xmlns="http://www.w3.org/2000/svg" xmlns:xlink="http://www.w3.org/1999/xlink" width="16" height="16" viewBox="0 0 16 16" version="1.1"><defs><linearGradient id="linear0" x1="0%" x2="100%" y1="0%" y2="100%"><stop offset="0%" style="stop-color:#ff0000; stop-opacity:1"/><stop offset="50%" style="stop-color:#ffd000; stop-opacity:1"/><stop offset="100%" style="stop-color:#ff00bb; stop-opacity:1"/></linearGradient></defs><g id="surface1"><path style=" stroke:none;fill-rule:nonzero;fill:rgb(23.921569%,68.235296%,91.37255%);fill-opacity:1;" d="M 9 2 L 7 3.5 L 9 5 L 9 4 L 10 4 C 10.550781 4 11 4.449219 11 5 L 11 11.089844 C 10.402344 11.300781 10 11.863281 10 12.5 C 10 13.328125 10.671875 14 11.5 14 C 12.328125 14 13 13.328125 13 12.5 C 13 11.863281 12.597656 11.300781 12 11.089844 L 12 5 C 12 3.894531 11.105469 3 10 3 L 9 3 Z M 11.5 12 C 11.777344 12 12 12.222656 12 12.5 C 12 12.777344 11.777344 13 11.5 13 C 11.222656 13 11 12.777344 11 12.5 C 11 12.222656 11.222656 12 11.5 12 Z M 11.5 12 "/></g></svg>
