<svg xmlns="http://www.w3.org/2000/svg" xmlns:xlink="http://www.w3.org/1999/xlink" width="16" height="16" viewBox="0 0 16 16" version="1.1"><defs><linearGradient id="linear0" x1="0%" x2="0%" y1="0%" y2="100%"><stop offset="0%" style="stop-color:#00b54e; stop-opacity:1"/><stop offset="50%" style="stop-color:#0073ff; stop-opacity:1"/><stop offset="100%" style="stop-color:#ffd000; stop-opacity:1"/></linearGradient></defs><g id="surface1"><path style=" stroke:none;fill-rule:nonzero;fill:url(#linear0);fill-opacity:1;" d="M 1 2 L 1 4 L 7 4 L 7 2 Z M 9 2 L 9 4 L 15 4 L 15 2 Z M 1 5 L 1 7 L 7 7 L 7 5 Z M 9 5 L 9 7 L 15 7 L 15 5 Z M 1 8 L 1 10 L 7 10 L 7 8 Z M 9 8 L 9 10 L 15 10 L 15 8 Z M 1 11 L 1 13 L 7 13 L 7 11 Z M 9 11 L 9 13 L 15 13 L 15 11 Z M 9 11 "/></g></svg>
