<svg xmlns="http://www.w3.org/2000/svg" xmlns:xlink="http://www.w3.org/1999/xlink" width="16" height="16" viewBox="0 0 16 16" version="1.1"><defs><linearGradient id="linear0" x1="0%" x2="0%" y1="0%" y2="100%"><stop offset="0%" style="stop-color:#00b54e; stop-opacity:1"/><stop offset="50%" style="stop-color:#ffd000; stop-opacity:1"/><stop offset="100%" style="stop-color:#ff00bb; stop-opacity:1"/></linearGradient></defs><g id="surface1"><path style=" stroke:none;fill-rule:nonzero;fill:url(#linear0);fill-opacity:1;" d="M 11 0 L 11 1.554688 C 10.636719 1.574219 10.277344 1.597656 9.886719 1.632812 C 8.605469 1.753906 7.222656 1.960938 6 2.363281 L 6 2 L 2 2 L 2 6 L 2.128906 6 C 1.558594 7.355469 1.207031 8.933594 0.964844 10.390625 C 0.929688 10.605469 0.910156 10.792969 0.878906 11 L 0 11 L 0 15.011719 L 4 15.011719 L 4 13.457031 C 4.363281 13.4375 4.722656 13.417969 5.113281 13.378906 C 6.394531 13.257812 7.777344 13.050781 9 12.648438 L 9 13.011719 L 13 13.011719 L 13 9.011719 L 12.871094 9.011719 C 13.441406 7.65625 13.792969 6.078125 14.035156 4.621094 C 14.070312 4.40625 14.089844 4.21875 14.121094 4.011719 L 15 4.011719 L 15 0 Z M 11 2.554688 L 11 4.011719 L 13.109375 4.011719 C 13.089844 4.164062 13.074219 4.300781 13.050781 4.460938 C 12.789062 6.027344 12.351562 7.714844 11.742188 9.011719 L 9 9.011719 L 9 11.5625 C 7.835938 11.984375 6.371094 12.253906 5.019531 12.386719 C 4.660156 12.417969 4.335938 12.4375 4 12.457031 L 4 11 L 1.890625 11 C 1.910156 10.847656 1.925781 10.710938 1.953125 10.554688 C 2.210938 8.984375 2.648438 7.296875 3.257812 6 L 6 6 L 6 3.449219 C 7.164062 3.023438 8.628906 2.757812 9.980469 2.628906 C 10.339844 2.59375 10.664062 2.574219 11 2.554688 Z M 11 2.554688 "/></g></svg>
