<svg xmlns="http://www.w3.org/2000/svg" xmlns:xlink="http://www.w3.org/1999/xlink" width="16" height="16" viewBox="0 0 16 16" version="1.1"><defs><linearGradient id="linear0" x1="0%" x2="0%" y1="0%" y2="100%"><stop offset="0%" style="stop-color:#ffd000; stop-opacity:1"/><stop offset="50%" style="stop-color:#24dbdb; stop-opacity:1"/><stop offset="100%" style="stop-color:#0073ff; stop-opacity:1"/></linearGradient></defs><g id="surface1"><path style=" stroke:none;fill-rule:nonzero;fill:url(#linear0);fill-opacity:1;" d="M 8 1 C 4.132812 1 1 4.132812 1 8 C 1 11.867188 4.132812 15 8 15 C 11.867188 15 15 11.867188 15 8 C 15 4.132812 11.867188 1 8 1 Z M 8 3 C 10.761719 3 13 5.238281 13 8 C 13 10.761719 10.761719 13 8 13 C 5.238281 13 3 10.761719 3 8 C 3 5.238281 5.238281 3 8 3 Z M 8 3 "/></g></svg>
