<svg xmlns="http://www.w3.org/2000/svg" xmlns:xlink="http://www.w3.org/1999/xlink" width="16" height="16" viewBox="0 0 16 16" version="1.1"><defs><linearGradient id="linear0" x1="0%" x2="0%" y1="0%" y2="100%"><stop offset="0%" style="stop-color:#00b54e; stop-opacity:1"/><stop offset="50%" style="stop-color:#0073ff; stop-opacity:1"/><stop offset="100%" style="stop-color:#ffd000; stop-opacity:1"/></linearGradient></defs><g id="surface1"><path style=" stroke:none;fill-rule:nonzero;fill:url(#linear0);fill-opacity:1;" d="M 8 1 C 4.132812 1 1 4.132812 1 8 C 1 11.867188 4.132812 15 8 15 C 11.867188 15 15 11.867188 15 8 C 15 4.132812 11.867188 1 8 1 Z M 8 5 C 9.65625 5 11 6.34375 11 8 C 11 9.65625 9.65625 11 8 11 C 6.34375 11 5 9.65625 5 8 C 5 6.34375 6.34375 5 8 5 Z M 8 7 C 7.449219 7 7 7.449219 7 8 C 7 8.550781 7.449219 9 8 9 C 8.550781 9 9 8.550781 9 8 C 9 7.449219 8.550781 7 8 7 Z M 8 7 "/></g></svg>
