<svg xmlns="http://www.w3.org/2000/svg" xmlns:xlink="http://www.w3.org/1999/xlink" width="16" height="16" viewBox="0 0 16 16" version="1.1"><defs><linearGradient id="linear0" x1="0%" x2="0%" y1="0%" y2="100%"><stop offset="0%" style="stop-color:#00b54e; stop-opacity:1"/><stop offset="50%" style="stop-color:#0073ff; stop-opacity:1"/><stop offset="100%" style="stop-color:#ffd000; stop-opacity:1"/></linearGradient></defs><g id="surface1"><path style=" stroke:none;fill-rule:nonzero;fill:url(#linear0);fill-opacity:1;" d="M 3.222656 4.222656 L 7 8 L 3.222656 11.777344 C 3.222656 11.777344 2.722656 12.277344 3.222656 12.777344 C 3.722656 13.277344 4.222656 12.777344 4.222656 12.777344 L 8 9 L 11.777344 12.777344 C 11.777344 12.777344 12.277344 13.277344 12.777344 12.777344 C 13.277344 12.277344 12.777344 11.777344 12.777344 11.777344 L 9 8 L 12.777344 4.222656 C 12.777344 4.222656 13.277344 3.722656 12.777344 3.222656 C 12.277344 2.722656 11.777344 3.222656 11.777344 3.222656 L 8 7 L 4.222656 3.222656 C 4.222656 3.222656 3.722656 2.722656 3.222656 3.222656 C 2.722656 3.722656 3.222656 4.222656 3.222656 4.222656 Z M 3.222656 4.222656 "/></g></svg>
