<svg xmlns="http://www.w3.org/2000/svg" xmlns:xlink="http://www.w3.org/1999/xlink" width="16" height="16" viewBox="0 0 16 16" version="1.1"><defs><linearGradient id="linear0" x1="0%" x2="0%" y1="0%" y2="100%"><stop offset="0%" style="stop-color:#00b54e; stop-opacity:1"/><stop offset="50%" style="stop-color:#0073ff; stop-opacity:1"/><stop offset="100%" style="stop-color:#ffd000; stop-opacity:1"/></linearGradient></defs><g id="surface1"><path style=" stroke:none;fill-rule:nonzero;fill:url(#linear0);fill-opacity:1;" d="M 3 1 C 2 1 2 2 2 2 L 2 14 C 2 14 2 15 3 15 L 13 15 C 13 15 14 15 14 14 L 14 2 C 14 2 14 1 13 1 Z M 8 3 C 10.210938 3 12 4.789062 12 7 C 12 9.210938 10.210938 11 8 11 L 4 11 L 4 7 C 4 4.789062 5.789062 3 8 3 Z M 8 5 C 6.894531 5 6 5.894531 6 7 C 6 8.105469 6.894531 9 8 9 C 9.105469 9 10 8.105469 10 7 C 10 5.894531 9.105469 5 8 5 Z M 8 5 "/></g></svg>
