<svg xmlns="http://www.w3.org/2000/svg" xmlns:xlink="http://www.w3.org/1999/xlink" width="16" height="16" viewBox="0 0 16 16" version="1.1"><defs><linearGradient id="linear0" x1="0%" x2="0%" y1="0%" y2="100%"><stop offset="0%" style="stop-color:#00b54e; stop-opacity:1"/><stop offset="50%" style="stop-color:#0073ff; stop-opacity:1"/><stop offset="100%" style="stop-color:#ffd000; stop-opacity:1"/></linearGradient></defs><g id="surface1"><path style=" stroke:none;fill-rule:nonzero;fill:url(#linear0);fill-opacity:1;" d="M 8 0 C 6.894531 0 6 0.894531 6 2 L 3 2 C 2.445312 2 2 2.445312 2 3 L 2 14 C 2 14.554688 2.445312 15 3 15 L 13 15 C 13.554688 15 14 14.554688 14 14 L 14 3 C 14 2.445312 13.554688 2 13 2 L 10 2 C 10 0.894531 9.105469 0 8 0 Z M 8 1 C 8.550781 1 9 1.449219 9 2 C 9 2.550781 8.550781 3 8 3 C 7.449219 3 7 2.550781 7 2 C 7 1.449219 7.449219 1 8 1 Z M 4 4 L 5 4 L 5 5 L 11 5 L 11 4 L 12 4 L 12 13 L 4 13 Z M 4 4 "/></g></svg>
