<svg xmlns="http://www.w3.org/2000/svg" xmlns:xlink="http://www.w3.org/1999/xlink" width="16" height="16" viewBox="0 0 16 16" version="1.1"><defs><linearGradient id="linear0" x1="0%" x2="0%" y1="0%" y2="100%"><stop offset="0%" style="stop-color:#ffd000; stop-opacity:1"/><stop offset="50%" style="stop-color:#24dbdb; stop-opacity:1"/><stop offset="100%" style="stop-color:#0073ff; stop-opacity:1"/></linearGradient></defs><g id="surface1"><path style=" stroke:none;fill-rule:nonzero;fill:url(#linear0);fill-opacity:1;" d="M 6.5 1 C 3.460938 1 1 3.460938 1 6.5 C 1.003906 7.714844 1.40625 8.890625 2.148438 9.851562 L 3.578125 8.421875 C 3.203125 7.851562 3 7.183594 3 6.5 C 3 4.566406 4.566406 3 6.5 3 C 7.183594 3 7.851562 3.203125 8.421875 3.578125 L 9.851562 2.148438 C 8.894531 1.40625 7.714844 1 6.5 1 Z M 11.679688 8.320312 L 8.316406 11.6875 C 8.777344 11.527344 9.214844 11.304688 9.617188 11.03125 L 13.277344 14.691406 C 13.46875 14.890625 13.726562 15 14 15 C 14.550781 15 15 14.550781 15 14 C 15 13.730469 14.890625 13.472656 14.695312 13.28125 L 11.027344 9.613281 C 11.300781 9.214844 11.519531 8.777344 11.679688 8.320312 Z M 11.679688 8.320312 "/><path style=" stroke:none;fill-rule:nonzero;fill:url(#linear0);fill-opacity:1;" d="M 2 11.320312 L 2 14 L 4.671875 14 L 11.421875 7.25 L 8.75 4.570312 Z M 13.789062 4.890625 C 14.070312 4.609375 14.070312 4.160156 13.789062 3.878906 L 12.121094 2.210938 C 11.828125 1.929688 11.390625 1.929688 11.109375 2.210938 L 9.710938 3.609375 L 12.378906 6.289062 Z M 13.789062 4.890625 "/></g></svg>
