<svg xmlns="http://www.w3.org/2000/svg" xmlns:xlink="http://www.w3.org/1999/xlink" width="16" height="16" viewBox="0 0 16 16" version="1.1"><defs><linearGradient id="linear0" x1="0%" x2="0%" y1="0%" y2="100%"><stop offset="0%" style="stop-color:#00b54e; stop-opacity:1"/><stop offset="50%" style="stop-color:#0073ff; stop-opacity:1"/><stop offset="100%" style="stop-color:#ffd000; stop-opacity:1"/></linearGradient></defs><g id="surface1"><path style=" stroke:none;fill-rule:nonzero;fill:url(#linear0);fill-opacity:1;" d="M 1 1 L 1 15 L 15 15 L 15 1 Z M 3 3 L 5 3 L 5 5 L 3 5 Z M 6 3 L 7.28125 3 L 6 4.28125 Z M 8.71875 3 L 10 3 L 10 4.28125 L 6 8.28125 L 6 5.71875 Z M 11 3 L 13 3 L 13 5 L 11 5 Z M 10 5.71875 L 10 8.28125 L 6 12.28125 L 6 9.71875 Z M 3 7 L 5 7 L 5 9 L 3 9 Z M 11 7 L 13 7 L 13 9 L 11 9 Z M 10 9.71875 L 10 13 L 6.71875 13 Z M 3 11 L 5 11 L 5 13 L 3 13 Z M 11 11 L 13 11 L 13 13 L 11 13 Z M 11 11 "/></g></svg>
