<svg xmlns="http://www.w3.org/2000/svg" xmlns:xlink="http://www.w3.org/1999/xlink" width="16" height="16" viewBox="0 0 16 16" version="1.1"><defs><linearGradient id="linear0" x1="0%" x2="100%" y1="0%" y2="100%"><stop offset="0%" style="stop-color:#ff0000; stop-opacity:1"/><stop offset="50%" style="stop-color:#ffd000; stop-opacity:1"/><stop offset="100%" style="stop-color:#ff00bb; stop-opacity:1"/></linearGradient></defs><g id="surface1"><path style=" stroke:none;fill-rule:nonzero;fill:url(#linear0);fill-opacity:1;" d="M 6 0.992188 C 5 0.992188 5 1.992188 5 1.992188 L 2 1.992188 C 2 1.992188 1 1.996094 1 2.996094 L 1 3.996094 L 14 3.992188 L 14 2.996094 C 14 1.996094 13 1.992188 13 1.992188 L 10 1.992188 C 10 1.992188 10 0.992188 9 0.992188 Z M 2 4.996094 L 2 13.996094 C 2 14.519531 2.476562 14.996094 3 14.996094 L 12 14.996094 C 12.523438 14.996094 13 14.519531 13 13.996094 L 13 4.996094 Z M 2 4.996094 "/></g></svg>
