<svg xmlns="http://www.w3.org/2000/svg" xmlns:xlink="http://www.w3.org/1999/xlink" width="16" height="16" viewBox="0 0 16 16" version="1.1"><defs><linearGradient id="linear0" x1="0%" x2="0%" y1="0%" y2="100%"><stop offset="0%" style="stop-color:#00b54e; stop-opacity:1"/><stop offset="50%" style="stop-color:#0073ff; stop-opacity:1"/><stop offset="100%" style="stop-color:#ffd000; stop-opacity:1"/></linearGradient></defs><g id="surface1"><path style=" stroke:none;fill-rule:nonzero;fill:url(#linear0);fill-opacity:1;" d="M 1 1.003906 L 1 15.003906 L 15 15.003906 L 15 1.003906 Z M 3 3.003906 L 13 3.003906 L 13 7.003906 L 9.722656 7.003906 C 9.550781 6.710938 9.3125 6.46875 9.023438 6.292969 C 9.007812 6.285156 8.992188 6.277344 8.976562 6.265625 C 8.855469 6.199219 8.730469 6.144531 8.597656 6.101562 C 8.558594 6.089844 8.523438 6.078125 8.484375 6.070312 C 8.328125 6.03125 8.167969 6.003906 8 6.003906 C 7.832031 6.003906 7.671875 6.03125 7.515625 6.070312 C 7.480469 6.078125 7.441406 6.089844 7.402344 6.101562 C 7.269531 6.144531 7.144531 6.199219 7.023438 6.265625 C 7.007812 6.277344 6.992188 6.285156 6.976562 6.292969 C 6.6875 6.46875 6.449219 6.710938 6.277344 7.003906 L 3 7.003906 Z M 3 9.003906 L 6.277344 9.003906 C 6.449219 9.296875 6.6875 9.539062 6.976562 9.714844 C 6.992188 9.722656 7.007812 9.734375 7.023438 9.742188 C 7.144531 9.808594 7.269531 9.863281 7.402344 9.90625 C 7.441406 9.917969 7.476562 9.929688 7.515625 9.9375 C 7.671875 9.976562 7.832031 10.003906 8 10.003906 C 8.167969 10.003906 8.328125 9.976562 8.484375 9.9375 C 8.519531 9.929688 8.558594 9.917969 8.597656 9.90625 C 8.730469 9.863281 8.855469 9.808594 8.976562 9.742188 C 8.992188 9.734375 9.007812 9.722656 9.023438 9.714844 C 9.3125 9.539062 9.550781 9.296875 9.722656 9.003906 L 13 9.003906 L 13 13.003906 L 3 13.003906 Z M 3 9.003906 "/></g></svg>
