<svg xmlns="http://www.w3.org/2000/svg" xmlns:xlink="http://www.w3.org/1999/xlink" width="16" height="16" viewBox="0 0 16 16" version="1.1"><defs><linearGradient id="linear0" x1="0%" x2="0%" y1="0%" y2="100%"><stop offset="0%" style="stop-color:#00b54e; stop-opacity:1"/><stop offset="50%" style="stop-color:#ffd000; stop-opacity:1"/><stop offset="100%" style="stop-color:#ff00bb; stop-opacity:1"/></linearGradient></defs><g id="surface1"><path style=" stroke:none;fill-rule:nonzero;fill:url(#linear0);fill-opacity:1;" d="M 2 0 C 0.890625 0 0 0.890625 0 2 L 0 14 C 0 15.109375 0.890625 16 2 16 L 14 16 C 15.109375 16 16 15.109375 16 14 L 16 2 C 16 0.890625 15.109375 0 14 0 Z M 3 3 L 4 3 L 4 4.5 C 4 5.195312 4.128906 5.578125 4.265625 5.75 C 4.402344 5.921875 4.582031 6 5 6 C 5.417969 6 5.597656 5.921875 5.734375 5.75 C 5.871094 5.578125 6 5.195312 6 4.5 L 6 3 L 7 3 L 7 4.5 C 7 5.304688 6.878906 5.921875 6.515625 6.375 C 6.152344 6.828125 5.582031 7 5 7 C 4.417969 7 3.847656 6.828125 3.484375 6.375 C 3.121094 5.921875 3 5.304688 3 4.5 Z M 11 3 L 12 3 L 12 7 L 11 7 Z M 6 10 L 7 10 L 9 12.5 L 9 10 L 10 10 L 10 14 L 9 14 L 7 11.5 L 7 14 L 6 14 Z M 6 10 "/></g></svg>
