<svg xmlns="http://www.w3.org/2000/svg" xmlns:xlink="http://www.w3.org/1999/xlink" width="16" height="16" viewBox="0 0 16 16" version="1.1"><defs><linearGradient id="linear0" x1="0%" x2="0%" y1="0%" y2="100%"><stop offset="0%" style="stop-color:#00b54e; stop-opacity:1"/><stop offset="50%" style="stop-color:#0073ff; stop-opacity:1"/><stop offset="100%" style="stop-color:#ffd000; stop-opacity:1"/></linearGradient></defs><g id="surface1"><path style=" stroke:none;fill-rule:nonzero;fill:url(#linear0);fill-opacity:1;" d="M 2 0 C 0.890625 0 0 0.890625 0 2 L 0 14 C 0 15.109375 0.890625 16 2 16 L 14 16 C 15.109375 16 16 15.109375 16 14 L 16 2 C 16 0.890625 15.109375 0 14 0 Z M 7 2 L 8 2 L 8 8.980469 C 9.8125 8.902344 10.722656 8.375 11.261719 7.488281 C 11.851562 6.523438 12 4.980469 12 3 L 13 3 C 13 5.019531 12.898438 6.726562 12.113281 8.011719 C 11.386719 9.199219 10.050781 9.882812 8 9.980469 L 8 13 L 13 13 L 13 14 L 2 14 L 2 13 L 7 13 L 7 9.980469 C 4.949219 9.882812 3.613281 9.199219 2.886719 8.011719 C 2.101562 6.726562 2 5.019531 2 3 L 3 3 C 3 4.980469 3.148438 6.523438 3.738281 7.488281 C 4.28125 8.375 5.1875 8.902344 7 8.980469 Z M 7 2 "/></g></svg>
