<svg xmlns="http://www.w3.org/2000/svg" xmlns:xlink="http://www.w3.org/1999/xlink" width="16" height="16" viewBox="0 0 16 16" version="1.1"><defs><filter id="alpha" filterUnits="objectBoundingBox" x="0%" y="0%" width="100%" height="100%"> <feColorMatrix type="matrix" in="SourceGraphic" values="0 0 0 0 1 0 0 0 0 1 0 0 0 0 1 0 0 0 1 0"/></filter><mask id="mask0"> <g filter="url(#alpha)"><rect x="0" y="0" width="16" height="16" style="fill:rgb(0%,0%,0%);fill-opacity:0.3;stroke:none;"/> </g></mask><clipPath id="clip1"> <rect x="0" y="0" width="16" height="16"/></clipPath><g id="surface5" clip-path="url(#clip1)"><path style=" stroke:none;fill-rule:nonzero;fill:rgb(93.333334%,93.333334%,93.333334%);fill-opacity:1;" d="M 2 0 C 0.890625 0 0 0.890625 0 2 L 0 14 C 0 15.109375 0.890625 16 2 16 L 14 16 C 15.109375 16 16 15.109375 16 14 L 16 2 C 16 0.890625 15.109375 0 14 0 Z M 11.613281 2 C 11.796875 2 11.976562 2.070312 12.117188 2.210938 L 13.785156 3.882812 C 14.070312 4.164062 14.070312 4.613281 13.785156 4.894531 L 12.382812 6.289062 L 9.710938 3.617188 L 11.105469 2.210938 C 11.246094 2.070312 11.429688 2 11.613281 2 Z M 8.75 4.578125 L 11.421875 7.25 L 4.671875 14 L 2 14 L 2 11.328125 Z M 8.75 4.578125 "/></g></defs><g id="surface1"><use xlink:href="#surface5" mask="url(#mask0)"/></g></svg>
