<svg xmlns="http://www.w3.org/2000/svg" xmlns:xlink="http://www.w3.org/1999/xlink" width="16" height="16" viewBox="0 0 16 16" version="1.1"><defs><linearGradient id="linear0" x1="0%" x2="0%" y1="0%" y2="100%"><stop offset="0%" style="stop-color:#ffd000; stop-opacity:1"/><stop offset="50%" style="stop-color:#24dbdb; stop-opacity:1"/><stop offset="100%" style="stop-color:#0073ff; stop-opacity:1"/></linearGradient></defs><g id="surface1"><path style=" stroke:none;fill-rule:nonzero;fill:url(#linear0);fill-opacity:1;" d="M 8 0 C 3.582031 0 0 3.582031 0 8 C 0 12.417969 3.582031 16 8 16 C 12.417969 16 16 12.417969 16 8 C 16 3.582031 12.417969 0 8 0 Z M 7 2 L 10 4 L 7 6 L 7 5.171875 C 5.800781 5.597656 5 6.730469 5 8 C 5 9.027344 5.527344 9.984375 6.398438 10.53125 L 5.445312 11.167969 C 5.152344 11.363281 5.003906 11.675781 5.003906 11.988281 C 3.746094 11.046875 3.003906 9.570312 3 8 C 3 5.625 4.671875 3.578125 7 3.101562 Z M 10.996094 4.011719 C 12.253906 4.953125 12.996094 6.429688 13 8 C 13 10.375 11.328125 12.421875 9 12.898438 L 9 14 L 6 12 L 9 10 L 9 10.824219 C 10.199219 10.402344 11 9.269531 11 8 C 11 6.972656 10.472656 6.015625 9.601562 5.46875 L 10.554688 4.832031 C 10.847656 4.636719 10.996094 4.324219 10.996094 4.011719 Z M 10.996094 4.011719 "/></g></svg>
