<svg xmlns="http://www.w3.org/2000/svg" xmlns:xlink="http://www.w3.org/1999/xlink" width="16" height="16" viewBox="0 0 16 16" version="1.1"><defs><linearGradient id="linear0" x1="0%" x2="100%" y1="0%" y2="100%"><stop offset="0%" style="stop-color:#ff0000; stop-opacity:1"/><stop offset="50%" style="stop-color:#ffd000; stop-opacity:1"/><stop offset="100%" style="stop-color:#ff00bb; stop-opacity:1"/></linearGradient></defs><g id="surface1"><path style=" stroke:none;fill-rule:nonzero;fill:url(#linear0);fill-opacity:1;" d="M 2 0 C 0.890625 0 0 0.890625 0 2 L 0 14 C 0 15.109375 0.890625 16 2 16 L 14 16 C 15.109375 16 16 15.109375 16 14 L 16 2 C 16 0.890625 15.109375 0 14 0 Z M 10.800781 2.054688 L 11.671875 2.753906 C 11.640625 2.808594 11.613281 2.855469 11.59375 2.898438 C 11.582031 2.9375 11.574219 3.003906 11.574219 3.089844 C 11.574219 3.203125 11.613281 3.335938 11.6875 3.480469 C 12.199219 3.875 12.503906 4.34375 12.832031 4.847656 C 12.917969 5.035156 13.019531 5.21875 13.03125 5.414062 C 13.066406 5.867188 12.886719 6.25 12.589844 6.554688 C 12.292969 6.863281 11.46875 7.015625 10.71875 7.015625 C 10.519531 7.015625 10.222656 6.988281 10 6.933594 L 10 10.640625 C 10.191406 10.585938 10.460938 10.519531 10.640625 10.433594 C 10.832031 10.347656 11.027344 10.253906 11.226562 10.148438 L 11.640625 11.210938 C 11.386719 11.328125 11.128906 11.433594 10.863281 11.527344 C 10.609375 11.613281 10.265625 11.6875 10 11.75 L 10 15 L 9 15 L 9 11.9375 C 8.695312 11.980469 7.171875 12.050781 6.898438 12.050781 C 5.914062 12.050781 5.058594 11.90625 4.332031 11.621094 C 3.601562 11.328125 3.03125 10.894531 2.617188 10.320312 C 2.214844 9.753906 2 8.9375 2 8.082031 C 2.027344 7.484375 2.246094 7.035156 2.542969 6.652344 C 3.144531 5.886719 3.863281 5.519531 4.679688 5.214844 C 5.027344 5.121094 5.433594 5.09375 5.902344 5.0625 C 6.375 5.019531 6.949219 5 7.613281 5 L 9 5 C 8.96875 4.503906 8.785156 3.699219 8.5 3.46875 C 8.226562 3.234375 7.871094 3.117188 7.4375 3.117188 C 7.023438 3.117188 6.714844 3.199219 6.503906 3.355469 C 6.289062 3.503906 6.183594 3.710938 6.183594 3.972656 C 6.183594 3.972656 6.203125 4.179688 6.203125 4.214844 L 5.074219 4.355469 C 5.054688 4.261719 5.042969 3.863281 5.042969 3.863281 C 5.042969 3.28125 5.25 2.835938 5.660156 2.53125 C 6.074219 2.226562 6.636719 2.074219 7.355469 2.074219 C 8.457031 2.074219 9.21875 2.515625 9.640625 3.40625 C 9.925781 2.917969 10.3125 2.46875 10.800781 2.054688 Z M 10.703125 3.671875 C 10.4375 3.992188 10.183594 4.304688 10.109375 4.609375 C 10.035156 4.914062 10 4.847656 10 5.210938 L 10 5.90625 C 10.171875 5.941406 10.441406 5.96875 10.65625 5.96875 C 11.003906 5.96875 11.546875 5.910156 11.6875 5.792969 C 11.816406 5.609375 11.855469 5.457031 11.84375 5.320312 C 11.792969 5.042969 11.683594 4.816406 11.539062 4.605469 C 11.320312 4.214844 10.976562 3.949219 10.703125 3.671875 Z M 7.722656 6 C 6.984375 6 6.390625 6.019531 5.949219 6.0625 C 5.515625 6.105469 5.160156 6.175781 4.886719 6.269531 C 4.621094 6.355469 4.382812 6.46875 4.171875 6.59375 C 3.585938 7.066406 3.324219 7.480469 3.269531 7.929688 C 3.246094 8.234375 3.1875 8.496094 3.230469 8.71875 C 3.433594 9.730469 4.007812 10.078125 4.777344 10.546875 C 5.335938 10.800781 6.085938 10.925781 7.027344 10.925781 C 7.3125 10.925781 8.734375 10.878906 9 10.847656 L 9 6 Z M 7.722656 6 "/></g></svg>
