<svg xmlns="http://www.w3.org/2000/svg" xmlns:xlink="http://www.w3.org/1999/xlink" width="16" height="16" viewBox="0 0 16 16" version="1.1"><defs><linearGradient id="linear0" x1="0%" x2="100%" y1="0%" y2="100%"><stop offset="0%" style="stop-color:#ff0000; stop-opacity:1"/><stop offset="50%" style="stop-color:#ffd000; stop-opacity:1"/><stop offset="100%" style="stop-color:#ff00bb; stop-opacity:1"/></linearGradient></defs><g id="surface1"><path style=" stroke:none;fill-rule:nonzero;fill:url(#linear0);fill-opacity:1;" d="M 4 1 L 4 4 L 1 4 L 1 6 L 4 6 L 4 10 L 1 10 L 1 12 L 4 12 L 4 15 L 6 15 L 6 12 L 10 12 L 10 15 L 12 15 L 12 12 L 15 12 L 15 10 L 12 10 L 12 6 L 15 6 L 15 4 L 12 4 L 12 1 L 10 1 L 10 4 L 6 4 L 6 1 Z M 6 6 L 10 6 L 10 10 L 6 10 Z M 6 6 "/></g></svg>
