<svg xmlns="http://www.w3.org/2000/svg" xmlns:xlink="http://www.w3.org/1999/xlink" width="16" height="16" viewBox="0 0 16 16" version="1.1"><defs><linearGradient id="linear0" x1="0%" x2="0%" y1="0%" y2="100%"><stop offset="0%" style="stop-color:#ffd000; stop-opacity:1"/><stop offset="50%" style="stop-color:#24dbdb; stop-opacity:1"/><stop offset="100%" style="stop-color:#0073ff; stop-opacity:1"/></linearGradient></defs><g id="surface1"><path style=" stroke:none;fill-rule:nonzero;fill:url(#linear0);fill-opacity:1;" d="M 3.890625 2 C 3.445312 2 3.054688 2.292969 2.929688 2.722656 L 0.0429688 12.722656 C -0.0429688 13.023438 0.015625 13.351562 0.203125 13.601562 C 0.394531 13.851562 0.691406 14 1.003906 14 L 2.171875 14 C 2.617188 14 3.011719 13.699219 3.132812 13.265625 L 3.765625 11 L 5.242188 11 L 5.875 13.265625 C 5.996094 13.699219 6.390625 14 6.835938 14 L 8.003906 14 C 8.179688 14 8.351562 13.953125 8.503906 13.863281 C 8.65625 13.953125 8.828125 14 9.003906 14 L 10.003906 14 C 10.246094 14 10.480469 13.910156 10.664062 13.75 C 11.089844 13.90625 11.539062 14 12 14 C 12.003906 14 12.003906 14 12.003906 14 C 14.203125 14 16.003906 12.199219 16.003906 10 C 16.003906 7.800781 14.203125 6 12.003906 6 C 12.003906 6 12.003906 6 12 6 C 11.65625 6 11.332031 6.097656 11.003906 6.1875 L 11.003906 3 C 11.003906 2.449219 10.554688 2 10.003906 2 L 9.003906 2 C 8.453125 2 8.003906 2.449219 8.003906 3 L 8.003906 9.085938 L 6.328125 2.742188 C 6.210938 2.304688 5.8125 2 5.359375 2 Z M 4.554688 5 L 5.503906 9 L 3.503906 9 Z M 12.003906 8 C 13.109375 8 14.003906 8.894531 14.003906 10 C 14.003906 11.105469 13.109375 12 12.003906 12 C 10.898438 12 10.003906 11.105469 10.003906 10 C 10.003906 8.894531 10.898438 8 12.003906 8 Z M 12.003906 8 "/></g></svg>
