<svg xmlns="http://www.w3.org/2000/svg" xmlns:xlink="http://www.w3.org/1999/xlink" width="16" height="16" viewBox="0 0 16 16" version="1.1"><defs><linearGradient id="linear0" x1="0%" x2="0%" y1="0%" y2="100%"><stop offset="0%" style="stop-color:#00b54e; stop-opacity:1"/><stop offset="50%" style="stop-color:#ffd000; stop-opacity:1"/><stop offset="100%" style="stop-color:#ff00bb; stop-opacity:1"/></linearGradient></defs><g id="surface1"><path style=" stroke:none;fill-rule:nonzero;fill:rgb(94.901961%,47.450981%,20.784314%);fill-opacity:1;" d="M 4 3 L 6 3 L 6 13 L 4 13 Z M 4 3 "/><path style=" stroke:none;fill-rule:nonzero;fill:rgb(1.568628%,53.725493%,41.568628%);fill-opacity:1;" d="M 8 3 L 10 3 L 10 13 L 8 13 Z M 8 3 "/><path style=" stroke:none;fill-rule:nonzero;fill:rgb(22.745098%,32.549021%,60.784316%);fill-opacity:1;" d="M 12 3 L 14 3 L 14 13 L 12 13 Z M 12 3 "/><path style=" stroke:none;fill-rule:nonzero;fill:rgb(99.215686%,82.352942%,52.156866%);fill-opacity:1;" d="M 2 3 L 4 3 L 4 13 L 2 13 Z M 2 3 "/><path style=" stroke:none;fill-rule:nonzero;fill:rgb(11.372549%,60.000002%,95.294118%);fill-opacity:1;" d="M 10 3 L 12 3 L 12 13 L 10 13 Z M 10 3 "/><path style=" stroke:none;fill-rule:nonzero;fill:rgb(49.803922%,80.000001%,45.490196%);fill-opacity:1;" d="M 6 3 L 8 3 L 8 13 L 6 13 Z M 6 3 "/></g></svg>
