<svg xmlns="http://www.w3.org/2000/svg" xmlns:xlink="http://www.w3.org/1999/xlink" width="16" height="16" viewBox="0 0 16 16" version="1.1"><defs><linearGradient id="linear0" x1="0%" x2="0%" y1="0%" y2="100%"><stop offset="0%" style="stop-color:#ffd000; stop-opacity:1"/><stop offset="50%" style="stop-color:#24dbdb; stop-opacity:1"/><stop offset="100%" style="stop-color:#0073ff; stop-opacity:1"/></linearGradient></defs><g id="surface1"><path style=" stroke:none;fill-rule:nonzero;fill:url(#linear0);fill-opacity:1;" d="M 8 2 C 4.6875 2 2 4.6875 2 8 C 2 11.3125 4.6875 14 8 14 C 11.3125 14 14 11.3125 14 8 C 14 4.6875 11.3125 2 8 2 M 8 3 C 9.199219 3 10.261719 3.453125 11.125 4.15625 L 8 7.28125 L 4.875 4.15625 C 5.738281 3.453125 6.800781 3 8 3 M 4.15625 4.875 L 7.28125 8 L 4.15625 11.125 C 3.453125 10.261719 3 9.199219 3 8 C 3 6.800781 3.453125 5.738281 4.15625 4.875 M 11.84375 4.875 C 12.546875 5.738281 13 6.800781 13 8 C 13 9.199219 12.546875 10.261719 11.84375 11.125 L 8.71875 8 Z M 8 8.71875 L 11.125 11.84375 C 10.261719 12.546875 9.199219 13 8 13 C 6.800781 13 5.738281 12.546875 4.875 11.84375 Z M 8 8.71875 "/></g></svg>
