<svg xmlns="http://www.w3.org/2000/svg" xmlns:xlink="http://www.w3.org/1999/xlink" width="16" height="16" viewBox="0 0 16 16" version="1.1"><defs><linearGradient id="linear0" x1="0%" x2="100%" y1="0%" y2="100%"><stop offset="0%" style="stop-color:#e5ff00; stop-opacity:1"/><stop offset="50%" style="stop-color:#0073ff; stop-opacity:1"/><stop offset="100%" style="stop-color:#ff0000; stop-opacity:1"/></linearGradient></defs><g id="surface1"><path style=" stroke:none;fill-rule:nonzero;fill:url(#linear0);fill-opacity:1;" d="M 6.5 1 C 6 1 6 1.5 6 1.5 L 6 9.5 C 6 10 6.5 10 6.5 10 L 15.5 10 C 15.5 10 16 10 16 9.5 L 16 1.5 C 16 1 15.5 1 15.5 1 Z M 8 4 L 14 4 L 14 7.996094 L 8 7.996094 Z M 1.519531 6 C 1.519531 6 1 6 1 6.5 L 1 14.5 C 1 15 1.5 15 1.5 15 L 10.5 15 C 10.5 15 11 14.976562 11 14.5 L 11 11 L 9 11 L 9 13 L 3 13 L 3 9 L 5 9 L 5 6 Z M 1.519531 6 "/></g></svg>
