<svg xmlns="http://www.w3.org/2000/svg" xmlns:xlink="http://www.w3.org/1999/xlink" width="16" height="16" viewBox="0 0 16 16" version="1.1"><defs><linearGradient id="linear0" x1="0%" x2="100%" y1="0%" y2="100%"><stop offset="0%" style="stop-color:#e5ff00; stop-opacity:1"/><stop offset="50%" style="stop-color:#0073ff; stop-opacity:1"/><stop offset="100%" style="stop-color:#ff0000; stop-opacity:1"/></linearGradient></defs><g id="surface1"><path style=" stroke:none;fill-rule:nonzero;fill:url(#linear0);fill-opacity:1;" d="M 7.09375 2.046875 C 3.535156 2.046875 4.363281 5.292969 2.542969 6.273438 C 2.480469 6.308594 2.445312 6.339844 2.390625 6.375 C 3.589844 5.660156 5.070312 5.066406 6.640625 4.660156 C 7.972656 4.316406 9.320312 4.125 10.566406 4.101562 C 10.597656 4.101562 10.628906 4.101562 10.664062 4.101562 C 9.460938 3.761719 9.332031 2.046875 7.09375 2.046875 Z M 10.96875 5 C 9.722656 5.027344 8.371094 5.21875 7.042969 5.558594 C 2.65625 6.6875 -0.472656 9.144531 0.0585938 11.042969 C 0.363281 12.128906 1.835938 12.84375 4.03125 12.972656 C 4.027344 12.964844 4.027344 12.960938 4.027344 12.949219 C 3.90625 11.925781 4.558594 11.03125 5.324219 10.425781 C 6.085938 9.820312 7.070312 9.378906 8.171875 9.144531 C 9.277344 8.910156 10.308594 8.921875 11.171875 9.183594 C 11.984375 9.425781 12.746094 9.960938 12.9375 10.875 C 15.132812 9.644531 16.273438 8.160156 15.945312 6.957031 C 15.59375 5.699219 13.683594 4.949219 10.96875 5 Z M 9.664062 10 C 9.222656 9.996094 8.753906 10.042969 8.285156 10.140625 C 6.355469 10.550781 4.886719 11.714844 5.007812 12.742188 C 5.125 13.769531 6.785156 14.265625 8.714844 13.855469 C 10.644531 13.445312 12.113281 12.285156 11.992188 11.257812 C 11.90625 10.511719 10.988281 10.015625 9.664062 10 Z M 9.664062 10 "/></g></svg>
