<svg xmlns="http://www.w3.org/2000/svg" xmlns:xlink="http://www.w3.org/1999/xlink" width="16" height="16" viewBox="0 0 16 16" version="1.1"><defs><linearGradient id="linear0" x1="0%" x2="100%" y1="0%" y2="100%"><stop offset="0%" style="stop-color:#e5ff00; stop-opacity:1"/><stop offset="50%" style="stop-color:#0073ff; stop-opacity:1"/><stop offset="100%" style="stop-color:#ff0000; stop-opacity:1"/></linearGradient></defs><g id="surface1"><path style=" stroke:none;fill-rule:nonzero;fill:url(#linear0);fill-opacity:1;" d="M 1 3 L 1 14 C 1 14 1 15 2 15 L 14 15 C 14 15 15 15 15 14 L 15 5 C 15 4 14 4 14 4 L 9 4 L 7 2 L 2 2 C 2 2 1 2 1 3 Z M 7 6 L 9 6 L 9 8 L 11 8 L 11 10 L 9 10 L 9 12 L 7 12 L 7 10 L 5 10 L 5 8 L 7 8 Z M 7 6 "/></g></svg>
