<svg xmlns="http://www.w3.org/2000/svg" xmlns:xlink="http://www.w3.org/1999/xlink" width="16" height="16" viewBox="0 0 16 16" version="1.1"><defs><linearGradient id="linear0" x1="0%" x2="100%" y1="0%" y2="100%"><stop offset="0%" style="stop-color:#e5ff00; stop-opacity:1"/><stop offset="50%" style="stop-color:#0073ff; stop-opacity:1"/><stop offset="100%" style="stop-color:#ff0000; stop-opacity:1"/></linearGradient></defs><g id="surface1"><use xlink:href="#surface5" mask="url(#mask0)"/><path style=" stroke:none;fill-rule:nonzero;fill:url(#linear0);fill-opacity:1;" d="M 7.003906 5 L 9.003906 5 L 9.003906 8 L 10.753906 8 L 8.003906 11 L 5.253906 8 L 7.003906 8 Z M 7.003906 5 "/><path style=" stroke:none;fill-rule:nonzero;fill:url(#linear0);fill-opacity:1;" d="M 3 1 C 1.890625 1 1 1.890625 1 3 L 1 13 C 1 14.109375 1.890625 15 3 15 L 13 15 C 14.109375 15 15 14.109375 15 13 L 15 3 C 15 1.890625 14.109375 1 13 1 Z M 3 3 L 13 3 L 13 13 L 3 13 Z M 3 3 "/><use xlink:href="#surface8" mask="url(#mask1)"/></g></svg>
