<svg xmlns="http://www.w3.org/2000/svg" xmlns:xlink="http://www.w3.org/1999/xlink" width="16" height="16" viewBox="0 0 16 16" version="1.1"><defs><linearGradient id="linear0" x1="0%" x2="0%" y1="0%" y2="100%"><stop offset="0%" style="stop-color:#00b54e; stop-opacity:1"/><stop offset="50%" style="stop-color:#ffd000; stop-opacity:1"/><stop offset="100%" style="stop-color:#ff00bb; stop-opacity:1"/></linearGradient></defs><g id="surface1"><path style=" stroke:none;fill-rule:nonzero;fill:url(#linear0);fill-opacity:1;" d="M 8 2 C 5.789062 2 4 3.789062 4 6 C 4 8.210938 5.789062 10 8 10 C 10.210938 10 12 8.210938 12 6 C 12 3.789062 10.210938 2 8 2 Z M 8 4 C 9.105469 4 10 4.894531 10 6 C 10 7.105469 9.105469 8 8 8 C 6.894531 8 6 7.105469 6 6 C 6 4.894531 6.894531 4 8 4 Z M 8 11 C 5.277344 11.003906 2.707031 11.6875 1 12.867188 L 1 15 L 15 15 L 15 12.859375 C 13.289062 11.683594 10.71875 11 8 11 Z M 8 11 "/></g></svg>
