<svg xmlns="http://www.w3.org/2000/svg" xmlns:xlink="http://www.w3.org/1999/xlink" width="16" height="16" viewBox="0 0 16 16" version="1.1"><defs><linearGradient id="linear0" x1="0%" x2="0%" y1="0%" y2="100%"><stop offset="0%" style="stop-color:#00b54e; stop-opacity:1"/><stop offset="50%" style="stop-color:#ffd000; stop-opacity:1"/><stop offset="100%" style="stop-color:#ff00bb; stop-opacity:1"/></linearGradient></defs><g id="surface1"><path style=" stroke:none;fill-rule:nonzero;fill:url(#linear0);fill-opacity:1;" d="M 0 10.058594 L 3.007812 11.792969 C 3.003906 11.863281 3 11.929688 3 12 C 3 13.65625 4.34375 15 6 15 C 7.65625 15 9 13.65625 9 12 C 9 11.90625 8.992188 11.8125 8.984375 11.71875 L 13.359375 8.886719 C 14.910156 8.492188 15.996094 7.097656 16 5.5 C 16 3.566406 14.433594 2 12.5 2 C 10.78125 2 9.320312 3.246094 9.046875 4.941406 L 6.570312 9.054688 C 6.382812 9.019531 6.191406 9 6 9 C 5.546875 9 5.101562 9.105469 4.695312 9.300781 L 0 6.59375 M 12.5 3 C 13.882812 3 15 4.121094 15 5.5 C 15 6.878906 13.882812 8 12.5 8 C 11.117188 8 10 6.878906 10 5.5 C 10 4.121094 11.117188 3 12.5 3 Z M 12.5 4 C 11.671875 4 11 4.671875 11 5.5 C 11 6.328125 11.671875 7 12.5 7 C 13.328125 7 14 6.328125 14 5.5 C 14 4.671875 13.328125 4 12.5 4 Z M 6 10 C 7.105469 10 8 10.894531 8 12 C 8 13.105469 7.105469 14 6 14 C 5.046875 14 4.226562 13.324219 4.039062 12.390625 L 4.746094 12.796875 C 5.464844 13.210938 6.378906 12.96875 6.792969 12.246094 C 7.210938 11.527344 6.964844 10.613281 6.246094 10.199219 L 5.90625 10.003906 C 5.9375 10.003906 5.96875 10 6 10 Z M 6 10 "/></g></svg>
