<svg xmlns="http://www.w3.org/2000/svg" xmlns:xlink="http://www.w3.org/1999/xlink" width="16" height="16" viewBox="0 0 16 16" version="1.1"><defs><linearGradient id="linear0" x1="0%" x2="0%" y1="0%" y2="100%"><stop offset="0%" style="stop-color:#ffd000; stop-opacity:1"/><stop offset="50%" style="stop-color:#24dbdb; stop-opacity:1"/><stop offset="100%" style="stop-color:#0073ff; stop-opacity:1"/></linearGradient></defs><g id="surface1"><path style=" stroke:none;fill-rule:nonzero;fill:url(#linear0);fill-opacity:1;" d="M 5 8 C 5 9.105469 4.105469 10 3 10 C 1.894531 10 1 9.105469 1 8 C 1 6.894531 1.894531 6 3 6 C 4.105469 6 5 6.894531 5 8 Z M 5 8 "/><path style=" stroke:none;fill-rule:nonzero;fill:url(#linear0);fill-opacity:1;" d="M 10 8 C 10 9.105469 9.105469 10 8 10 C 6.894531 10 6 9.105469 6 8 C 6 6.894531 6.894531 6 8 6 C 9.105469 6 10 6.894531 10 8 Z M 10 8 "/><path style=" stroke:none;fill-rule:nonzero;fill:url(#linear0);fill-opacity:1;" d="M 15 8 C 15 9.105469 14.105469 10 13 10 C 11.894531 10 11 9.105469 11 8 C 11 6.894531 11.894531 6 13 6 C 14.105469 6 15 6.894531 15 8 Z M 15 8 "/></g></svg>
