<svg xmlns="http://www.w3.org/2000/svg" xmlns:xlink="http://www.w3.org/1999/xlink" width="16" height="16" viewBox="0 0 16 16" version="1.1"><defs><linearGradient id="linear0" x1="0%" x2="100%" y1="0%" y2="100%"><stop offset="0%" style="stop-color:#ff0000; stop-opacity:1"/><stop offset="50%" style="stop-color:#ffd000; stop-opacity:1"/><stop offset="100%" style="stop-color:#ff00bb; stop-opacity:1"/></linearGradient></defs><g id="surface1"><path style=" stroke:none;fill-rule:nonzero;fill:url(#linear0);fill-opacity:1;" d="M 4.042969 0 C 3.882812 0 3.722656 0.0195312 3.554688 0.0625 C 2.496094 0.316406 2.003906 1.398438 2 3.472656 C 2 4.117188 2.011719 4.289062 2.078125 4.660156 C 2.359375 6.164062 2.832031 7.515625 3.253906 8.011719 C 3.34375 8.113281 3.460938 8.199219 3.460938 8.199219 L 6.113281 7.496094 C 6.257812 7.359375 6.425781 6.707031 6.535156 5.863281 C 6.605469 5.328125 6.613281 4.117188 6.554688 3.691406 C 6.359375 2.3125 5.921875 1.21875 5.3125 0.597656 C 4.925781 0.199219 4.511719 0.00390625 4.042969 0 Z M 10.890625 4.003906 C 10.523438 4.015625 10.464844 4.027344 10.261719 4.132812 C 9.605469 4.460938 9.109375 5.160156 8.769531 6.246094 C 8.402344 7.398438 8.316406 8.46875 8.472656 9.847656 C 8.558594 10.609375 8.734375 11.308594 8.882812 11.464844 L 11.507812 12.1875 C 11.507812 12.1875 11.742188 12.003906 11.878906 11.792969 C 12.398438 10.984375 12.941406 9.007812 12.992188 7.734375 C 13.015625 7.230469 12.96875 6.5 12.882812 5.996094 C 12.738281 5.136719 12.355469 4.453125 11.875 4.203125 C 11.550781 4.03125 11.332031 3.988281 10.890625 4.003906 Z M 6.21875 8.121094 L 3.699219 8.933594 C 3.613281 9.019531 3.804688 10.050781 4.007812 10.570312 C 4.273438 11.253906 4.753906 11.800781 5.234375 11.960938 C 5.320312 11.988281 5.5 12.003906 5.679688 12 C 5.921875 11.992188 6.007812 11.972656 6.175781 11.890625 C 6.890625 11.523438 7.183594 10.535156 6.882812 9.472656 C 6.78125 9.109375 6.464844 8.425781 6.316406 8.242188 Z M 8.796875 12.128906 C 8.714844 12.132812 8.660156 12.226562 8.484375 12.554688 C 8.160156 13.167969 8 13.746094 8 14.285156 C 8 15.113281 8.414062 15.78125 9.039062 15.953125 C 9.859375 16.183594 10.667969 15.53125 11.0625 14.320312 C 11.207031 13.882812 11.359375 13.003906 11.308594 12.917969 Z M 8.796875 12.128906 "/></g></svg>
