<svg xmlns="http://www.w3.org/2000/svg" xmlns:xlink="http://www.w3.org/1999/xlink" width="16" height="16" viewBox="0 0 16 16" version="1.1"><defs><linearGradient id="linear0" x1="0%" x2="0%" y1="0%" y2="100%"><stop offset="0%" style="stop-color:#00b54e; stop-opacity:1"/><stop offset="50%" style="stop-color:#ffd000; stop-opacity:1"/><stop offset="100%" style="stop-color:#ff00bb; stop-opacity:1"/></linearGradient></defs><g id="surface1"><path style=" stroke:none;fill-rule:nonzero;fill:url(#linear0);fill-opacity:1;" d="M 2.839844 1.007812 C 2.558594 1.050781 1.996094 1.238281 1.996094 1.9375 L 1.996094 14.066406 C 1.996094 15 2.996094 15 2.996094 15 L 12.984375 15 C 13.984375 15 13.984375 14.066406 13.984375 14.066406 C 14.003906 14.023438 13.992188 7.113281 13.984375 4.738281 L 9.992188 1.007812 L 2.996094 1.007812 C 2.996094 1.007812 2.933594 0.992188 2.839844 1.007812 Z M 8.996094 5 L 8.296875 7.101562 L 10.996094 8 L 6.996094 11 L 7.695312 8.898438 L 4.996094 8 Z M 8.996094 5 "/></g></svg>
