<svg xmlns="http://www.w3.org/2000/svg" xmlns:xlink="http://www.w3.org/1999/xlink" width="16" height="16" viewBox="0 0 16 16" version="1.1"><defs><linearGradient id="linear0" x1="0%" x2="100%" y1="0%" y2="100%"><stop offset="0%" style="stop-color:#e5ff00; stop-opacity:1"/><stop offset="50%" style="stop-color:#0073ff; stop-opacity:1"/><stop offset="100%" style="stop-color:#ff0000; stop-opacity:1"/></linearGradient></defs><g id="surface1"><path style=" stroke:none;fill-rule:nonzero;fill:url(#linear0);fill-opacity:1;" d="M 4.5 0 C 2.183594 0 1.644531 2.554688 1.53125 6 L 0 6 L 0 10 L 4 10 L 4 6 L 2.546875 6 C 2.65625 3.128906 3.070312 1 4.5 1 C 6.195312 1 7.113281 3.117188 7.394531 6 L 6 6 L 6 10 L 7.648438 10 C 8.078125 13.480469 9.3125 15.996094 11.5 16 C 14.003906 16 14.1875 13.460938 14.425781 10 L 16 10 L 16 6 L 12 6 L 12 10 L 13.425781 10 C 13.21875 12.898438 13.066406 15 11.5 15 C 9.824219 14.996094 8.988281 12.921875 8.644531 10 L 10 10 L 10 6 L 8.386719 6 C 8.023438 2.554688 6.710938 0 4.5 0 Z M 4.5 0 "/></g></svg>
