<svg xmlns="http://www.w3.org/2000/svg" xmlns:xlink="http://www.w3.org/1999/xlink" width="16" height="16" viewBox="0 0 16 16" version="1.1"><defs><linearGradient id="linear0" x1="0%" x2="100%" y1="0%" y2="100%"><stop offset="0%" style="stop-color:#ff0000; stop-opacity:1"/><stop offset="50%" style="stop-color:#ffd000; stop-opacity:1"/><stop offset="100%" style="stop-color:#ff00bb; stop-opacity:1"/></linearGradient></defs><g id="surface1"><path style=" stroke:none;fill-rule:nonzero;fill:url(#linear0);fill-opacity:1;" d="M 2.339844 0.9375 L 0.933594 2.34375 L 5.625 7.039062 C 4.863281 7.125 4.191406 7.464844 3.746094 7.96875 C 3.230469 8.554688 2.988281 9.28125 2.996094 10 C 3.003906 10.71875 3.265625 11.453125 3.777344 12.03125 C 4.289062 12.609375 5.085938 13 5.996094 13 L 11.589844 13 L 13.652344 15.0625 L 15.058594 13.65625 Z M 6.402344 3 L 8.402344 5 L 9.996094 5 C 10.425781 5 10.996094 5.613281 10.996094 6 L 10.996094 7 L 10.402344 7 L 12.996094 9.59375 L 12.996094 6 C 12.996094 4.367188 11.675781 3 9.996094 3 Z M 5.996094 9 L 7.589844 9 L 9.589844 11 L 5.996094 11 C 5.597656 11 5.429688 10.890625 5.277344 10.71875 C 5.125 10.546875 5 10.28125 4.996094 10 C 4.992188 9.71875 5.101562 9.445312 5.246094 9.28125 C 5.390625 9.117188 5.574219 9 5.996094 9 Z M 5.996094 9 "/></g></svg>
