<svg xmlns="http://www.w3.org/2000/svg" xmlns:xlink="http://www.w3.org/1999/xlink" width="16" height="16" viewBox="0 0 16 16" version="1.1"><defs><linearGradient id="linear0" x1="0%" x2="0%" y1="0%" y2="100%"><stop offset="0%" style="stop-color:#00b54e; stop-opacity:1"/><stop offset="50%" style="stop-color:#ffd000; stop-opacity:1"/><stop offset="100%" style="stop-color:#ff00bb; stop-opacity:1"/></linearGradient></defs><g id="surface1"><path style=" stroke:none;fill-rule:nonzero;fill:url(#linear0);fill-opacity:1;" d="M 5 1.003906 L 5 3.003906 L 1 3.003906 L 1 4.003906 L 5 4.003906 L 5 6.003906 L 11 6.003906 L 11 4.003906 L 15 4.003906 L 15 3.003906 L 11 3.003906 L 11 1.003906 Z M 6 7.003906 L 8 10.003906 L 10 7.003906 Z M 1 10.003906 L 1 15.003906 L 6 15.003906 L 6 13.003906 L 7 13.003906 L 7 12.003906 L 6 12.003906 L 6 10.003906 Z M 10 10.003906 L 10 12.003906 L 9 12.003906 L 9 13.003906 L 10 13.003906 L 10 15.003906 L 15 15.003906 L 15 10.003906 Z M 10 10.003906 "/></g></svg>
