<svg xmlns="http://www.w3.org/2000/svg" xmlns:xlink="http://www.w3.org/1999/xlink" width="16" height="16" viewBox="0 0 16 16" version="1.1"><defs><linearGradient id="linear0" x1="0%" x2="0%" y1="0%" y2="100%"><stop offset="0%" style="stop-color:#00b54e; stop-opacity:1"/><stop offset="50%" style="stop-color:#0073ff; stop-opacity:1"/><stop offset="100%" style="stop-color:#ffd000; stop-opacity:1"/></linearGradient></defs><g id="surface1"><path style=" stroke:none;fill-rule:nonzero;fill:url(#linear0);fill-opacity:1;" d="M 8 1 L 8 7 L 2 7 L 2 8 L 8 8 L 8 14 L 9 14 L 9 8 L 15 8 L 15 7 L 9 7 L 9 1 Z M 8 1 "/><path style=" stroke:none;fill-rule:nonzero;fill:url(#linear0);fill-opacity:0.501961;" d="M 14 2 L 14 7 L 9 7 L 9 2 Z M 8 2 L 8 7 L 3 7 L 3 2 Z M 14 8 L 14 13 L 9 13 L 9 8 Z M 8 8 L 8 13 L 3 13 L 3 8 Z M 8 8 "/></g></svg>
