<svg xmlns="http://www.w3.org/2000/svg" xmlns:xlink="http://www.w3.org/1999/xlink" width="16" height="16" viewBox="0 0 16 16" version="1.1"><defs><linearGradient id="linear0" x1="0%" x2="0%" y1="0%" y2="100%"><stop offset="0%" style="stop-color:#ffd000; stop-opacity:1"/><stop offset="50%" style="stop-color:#24dbdb; stop-opacity:1"/><stop offset="100%" style="stop-color:#0073ff; stop-opacity:1"/></linearGradient></defs><g id="surface1"><path style=" stroke:none;fill-rule:nonzero;fill:url(#linear0);fill-opacity:1;" d="M 11.546875 3 L 9 10 L 10 10 L 10.726562 8 L 13.269531 8 L 14 10 L 15 10 L 12.453125 3 Z M 12 4.5 L 12.90625 7 L 11.09375 7 Z M 9 3 L 9 4 L 5 4 L 5 3 Z M 3 3 L 3 7 L 0 5 Z M 8 6 L 8 7 L 5 7 L 5 6 Z M 7 9 L 7 10 L 5 10 L 5 9 Z M 3 9 L 3 13 L 0 11 Z M 15 12 L 15 13 L 5 13 L 5 12 Z M 15 12 "/></g></svg>
