<svg xmlns="http://www.w3.org/2000/svg" xmlns:xlink="http://www.w3.org/1999/xlink" width="16" height="16" viewBox="0 0 16 16" version="1.1"><defs><linearGradient id="linear0" x1="0%" x2="0%" y1="0%" y2="100%"><stop offset="0%" style="stop-color:#00b54e; stop-opacity:1"/><stop offset="50%" style="stop-color:#ffd000; stop-opacity:1"/><stop offset="100%" style="stop-color:#ff00bb; stop-opacity:1"/></linearGradient></defs><g id="surface1"><path style=" stroke:none;fill-rule:nonzero;fill:url(#linear0);fill-opacity:1;" d="M 4 3 L 4 5 L 9 5 C 9.429688 5 10 5.613281 10 6 L 10 7 L 5 7 C 4.082031 7 3.265625 7.382812 2.75 7.96875 C 2.234375 8.554688 1.992188 9.28125 2 10 C 2.007812 10.71875 2.269531 11.453125 2.78125 12.03125 C 3.292969 12.609375 4.089844 13 5 13 L 14 13 L 14 6 C 14 4.367188 12.679688 3 11 3 Z M 7 9 L 10 9 L 10 11 L 7 11 C 6.601562 11 6.433594 10.890625 6.28125 10.71875 C 6.128906 10.546875 6.003906 10.28125 6 10 C 5.996094 9.71875 6.105469 9.445312 6.25 9.28125 C 6.394531 9.117188 6.578125 9 7 9 Z M 7 9 "/></g></svg>
