<svg xmlns="http://www.w3.org/2000/svg" xmlns:xlink="http://www.w3.org/1999/xlink" width="16" height="16" viewBox="0 0 16 16" version="1.1"><defs><linearGradient id="linear0" x1="0%" x2="0%" y1="0%" y2="100%"><stop offset="0%" style="stop-color:#ffd000; stop-opacity:1"/><stop offset="50%" style="stop-color:#24dbdb; stop-opacity:1"/><stop offset="100%" style="stop-color:#0073ff; stop-opacity:1"/></linearGradient></defs><g id="surface1"><path style=" stroke:none;fill-rule:nonzero;fill:url(#linear0);fill-opacity:1;" d="M 1 1.003906 L 1 6.003906 L 6 6.003906 L 6 4.003906 L 7 4.003906 L 7 3.003906 L 6 3.003906 L 6 1.003906 Z M 10 1.003906 L 10 3.003906 L 9 3.003906 L 9 4.003906 L 10 4.003906 L 10 6.003906 L 15 6.003906 L 15 1.003906 Z M 6 7.003906 L 8 10.003906 L 10 7.003906 Z M 1 10.003906 L 1 15.003906 L 6 15.003906 L 6 13.003906 L 10 13.003906 L 10 15.003906 L 15 15.003906 L 15 10.003906 L 10 10.003906 L 10 12.003906 L 6 12.003906 L 6 10.003906 Z M 1 10.003906 "/></g></svg>
