<svg xmlns="http://www.w3.org/2000/svg" xmlns:xlink="http://www.w3.org/1999/xlink" width="16" height="16" viewBox="0 0 16 16" version="1.1"><defs><linearGradient id="linear0" x1="0%" x2="0%" y1="0%" y2="100%"><stop offset="0%" style="stop-color:#00b54e; stop-opacity:1"/><stop offset="50%" style="stop-color:#ffd000; stop-opacity:1"/><stop offset="100%" style="stop-color:#ff00bb; stop-opacity:1"/></linearGradient></defs><g id="surface1"><path style=" stroke:none;fill-rule:nonzero;fill:url(#linear0);fill-opacity:1;" d="M 6 0 L 6 2 L 12 2 C 12.429688 2 13 2.613281 13 3 L 13 4 L 8 4 C 7.082031 4 6.265625 4.382812 5.75 4.96875 C 5.234375 5.554688 4.992188 6.28125 5 7 C 5.007812 7.71875 5.269531 8.453125 5.78125 9.03125 C 6.292969 9.609375 7.089844 10 8 10 L 15 10 L 15 3 C 15 1.367188 13.679688 0 12 0 Z M 8 6 L 13 6 L 13 8 L 8 8 C 7.601562 8 7.433594 7.890625 7.28125 7.71875 C 7.128906 7.546875 7.003906 7.28125 7 7 C 6.996094 6.71875 7.105469 6.445312 7.25 6.28125 C 7.394531 6.117188 7.578125 6 8 6 Z M 4 9 L 0 12 L 4 15 L 4 12.984375 L 14.9375 12.984375 L 14.9375 10.984375 L 4 10.984375 Z M 4 9 "/></g></svg>
