<svg xmlns="http://www.w3.org/2000/svg" xmlns:xlink="http://www.w3.org/1999/xlink" width="16" height="16" viewBox="0 0 16 16" version="1.1"><defs><linearGradient id="linear0" x1="0%" x2="100%" y1="0%" y2="100%"><stop offset="0%" style="stop-color:#ff0000; stop-opacity:1"/><stop offset="50%" style="stop-color:#ffd000; stop-opacity:1"/><stop offset="100%" style="stop-color:#ff00bb; stop-opacity:1"/></linearGradient></defs><g id="surface1"><path style=" stroke:none;fill-rule:nonzero;fill:url(#linear0);fill-opacity:1;" d="M 1 0.980469 L 1 5.980469 L 6 5.980469 L 6 3.980469 L 10 3.980469 L 10 5.980469 L 15 5.980469 L 15 0.980469 L 10 0.980469 L 10 2.980469 L 6 2.980469 L 6 0.980469 Z M 6 6.980469 L 8 9.980469 L 10 6.980469 Z M 1 9.980469 L 1 14.980469 L 6 14.980469 L 6 12.980469 L 7 12.980469 L 7 11.980469 L 6 11.980469 L 6 9.980469 Z M 10 9.980469 L 10 11.980469 L 9 11.980469 L 9 12.980469 L 10 12.980469 L 10 14.980469 L 15 14.980469 L 15 9.980469 Z M 10 9.980469 "/></g></svg>
