<svg xmlns="http://www.w3.org/2000/svg" xmlns:xlink="http://www.w3.org/1999/xlink" width="16" height="16" viewBox="0 0 16 16" version="1.1"><defs><linearGradient id="linear0" x1="0%" x2="100%" y1="0%" y2="100%"><stop offset="0%" style="stop-color:#ff0000; stop-opacity:1"/><stop offset="50%" style="stop-color:#ffd000; stop-opacity:1"/><stop offset="100%" style="stop-color:#ff00bb; stop-opacity:1"/></linearGradient></defs><g id="surface1"><path style=" stroke:none;fill-rule:nonzero;fill:url(#linear0);fill-opacity:1;" d="M 7 2 C 5.894531 2 5 2.894531 5 4 L 5 7 L 3 7 L 3 8 L 5 8 L 5 14 L 6 14 L 6 8 L 8 8 L 8 7 L 6 7 L 6 4 C 6 3.449219 6.449219 3 7 3 L 9 3 L 9 2 Z M 9.464844 9.757812 L 8.757812 10.464844 L 10.171875 11.878906 L 8.757812 13.292969 L 9.464844 14 L 10.878906 12.585938 L 12.292969 14 L 13 13.292969 L 11.585938 11.878906 L 13 10.464844 L 12.292969 9.757812 L 10.878906 11.171875 Z M 9.464844 9.757812 "/></g></svg>
