<svg xmlns="http://www.w3.org/2000/svg" xmlns:xlink="http://www.w3.org/1999/xlink" width="16" height="16" viewBox="0 0 16 16" version="1.1"><defs><linearGradient id="linear0" x1="0%" x2="100%" y1="0%" y2="100%"><stop offset="0%" style="stop-color:#ff0000; stop-opacity:1"/><stop offset="50%" style="stop-color:#ffd000; stop-opacity:1"/><stop offset="100%" style="stop-color:#ff00bb; stop-opacity:1"/></linearGradient></defs><g id="surface1"><path style=" stroke:none;fill-rule:nonzero;fill:url(#linear0);fill-opacity:1;" d="M 4 2 L 4 3 L 3 3 L 3 4 L 4 4 L 4 6 L 3 6 L 3 7 L 4 7 L 4 8 L 5 8 L 5 7 L 7 7 L 7 8 L 8 8 L 8 7 L 9 7 L 9 6 L 8 6 L 8 4 L 9 4 L 9 3 L 8 3 L 8 2 L 7 2 L 7 3 L 5 3 L 5 2 Z M 10 2 L 10 3 L 12 3 L 12 7 L 13 7 L 13 2 Z M 5 4 L 7 4 L 7 6 L 5 6 Z M 9 8 L 9 9 L 8 9 L 8 10 L 9 10 L 9 12 L 8 12 L 8 13 L 9 13 L 9 14 L 10 14 L 10 13 L 12 13 L 12 14 L 13 14 L 13 13 L 14 13 L 14 12 L 13 12 L 13 10 L 14 10 L 14 9 L 13 9 L 13 8 L 12 8 L 12 9 L 10 9 L 10 8 Z M 3 9 L 3 14 L 7 14 L 7 13 L 4 13 L 4 9 Z M 10 10 L 12 10 L 12 12 L 10 12 Z M 10 10 "/></g></svg>
