<svg xmlns="http://www.w3.org/2000/svg" xmlns:xlink="http://www.w3.org/1999/xlink" width="16" height="16" viewBox="0 0 16 16" version="1.1"><defs><linearGradient id="linear0" x1="0%" x2="100%" y1="0%" y2="100%"><stop offset="0%" style="stop-color:#ff0000; stop-opacity:1"/><stop offset="50%" style="stop-color:#ffd000; stop-opacity:1"/><stop offset="100%" style="stop-color:#ff00bb; stop-opacity:1"/></linearGradient></defs><g id="surface1"><path style=" stroke:none;fill-rule:nonzero;fill:url(#linear0);fill-opacity:1;" d="M 2 1.003906 L 2 2.003906 L 1 2.003906 L 1 4.003906 L 2 4.003906 L 2 7.003906 L 1 7.003906 L 1 9.003906 L 2 9.003906 L 2 12.003906 L 1 12.003906 L 1 14.003906 L 2 14.003906 L 2 15.003906 L 4 15.003906 L 4 14.003906 L 7 14.003906 L 7 15.003906 L 9 15.003906 L 9 14.003906 L 12 14.003906 L 12 15.003906 L 14 15.003906 L 14 14.003906 L 15 14.003906 L 15 12.003906 L 14 12.003906 L 14 9.003906 L 15 9.003906 L 15 7.003906 L 14 7.003906 L 14 4.003906 L 15 4.003906 L 15 2.003906 L 14 2.003906 L 14 1.003906 L 12 1.003906 L 12 2.003906 L 9 2.003906 L 9 1.003906 L 7 1.003906 L 7 2.003906 L 4 2.003906 L 4 1.003906 Z M 4 4.003906 L 7 4.003906 L 7 7.003906 L 4 7.003906 Z M 9 4.003906 L 12 4.003906 L 12 7.003906 L 9 7.003906 Z M 4 9.003906 L 7 9.003906 L 7 12.003906 L 4 12.003906 Z M 9 9.003906 L 12 9.003906 L 12 12.003906 L 9 12.003906 Z M 9 9.003906 "/></g></svg>
