<svg xmlns="http://www.w3.org/2000/svg" xmlns:xlink="http://www.w3.org/1999/xlink" width="16" height="16" viewBox="0 0 16 16" version="1.1"><defs><linearGradient id="linear0" x1="0%" x2="100%" y1="0%" y2="100%"><stop offset="0%" style="stop-color:#e5ff00; stop-opacity:1"/><stop offset="50%" style="stop-color:#0073ff; stop-opacity:1"/><stop offset="100%" style="stop-color:#ff0000; stop-opacity:1"/></linearGradient></defs><g id="surface1"><path style=" stroke:none;fill-rule:nonzero;fill:url(#linear0);fill-opacity:1;" d="M 2 2 C 2 2 1 2 1 3 L 1 14 C 1 14 1 15 2 15 L 10 15 L 10 10 L 15 10 L 15 5 C 15 4 14 4 14 4 L 9 4 L 7 2 Z M 2 2 "/><path style=" stroke:none;fill-rule:nonzero;fill:url(#linear0);fill-opacity:1;" d="M 11 11 L 11 12 C 11 12.28125 11.101562 12.539062 11.28125 12.71875 L 12.058594 13.5 L 11.28125 14.28125 C 11.101562 14.460938 11 14.71875 11 15 L 11 16 L 12 16 C 12.28125 16 12.539062 15.898438 12.71875 15.71875 L 13.5 14.941406 L 14.28125 15.71875 C 14.460938 15.898438 14.71875 16 15 16 L 16 16 L 16 15 C 16 14.71875 15.898438 14.460938 15.71875 14.28125 L 14.941406 13.5 L 15.71875 12.71875 C 15.898438 12.539062 16 12.28125 16 12 L 16 11 L 15 11 C 14.71875 11 14.460938 11.101562 14.28125 11.28125 L 13.5 12.058594 L 12.71875 11.28125 C 12.539062 11.101562 12.28125 11 12 11 Z M 11 11 "/></g></svg>
