<svg xmlns="http://www.w3.org/2000/svg" xmlns:xlink="http://www.w3.org/1999/xlink" width="16" height="16" viewBox="0 0 16 16" version="1.1"><defs><linearGradient id="linear0" x1="0%" x2="100%" y1="0%" y2="100%"><stop offset="0%" style="stop-color:#e5ff00; stop-opacity:1"/><stop offset="50%" style="stop-color:#0073ff; stop-opacity:1"/><stop offset="100%" style="stop-color:#ff0000; stop-opacity:1"/></linearGradient></defs><g id="surface1"><path style=" stroke:none;fill-rule:nonzero;fill:url(#linear0);fill-opacity:1;" d="M 7 1 L 2 15 L 4.5 15 L 5.5625 12 L 10.4375 12 L 11.5 15 L 14.28125 15 L 9 1 Z M 14 1 C 13.449219 1 13 1.449219 13 2 C 13 2.550781 13.449219 3 14 3 C 14.550781 3 15 2.550781 15 2 C 15 1.449219 14.550781 1 14 1 Z M 14 4 C 13.449219 4 13 4.449219 13 5 C 13 5.550781 13.449219 6 14 6 C 14.550781 6 15 5.550781 15 5 C 15 4.449219 14.550781 4 14 4 Z M 8 5 L 9.75 10 L 6.25 10 Z M 14 7 C 13.449219 7 13 7.449219 13 8 C 13 8.550781 13.449219 9 14 9 C 14.550781 9 15 8.550781 15 8 C 15 7.449219 14.550781 7 14 7 Z M 14 7 "/></g></svg>
