<svg xmlns="http://www.w3.org/2000/svg" xmlns:xlink="http://www.w3.org/1999/xlink" width="16" height="16" viewBox="0 0 16 16" version="1.1"><defs><linearGradient id="linear0" x1="0%" x2="0%" y1="0%" y2="100%"><stop offset="0%" style="stop-color:#00b54e; stop-opacity:1"/><stop offset="50%" style="stop-color:#ffd000; stop-opacity:1"/><stop offset="100%" style="stop-color:#ff00bb; stop-opacity:1"/></linearGradient></defs><g id="surface1"><path style=" stroke:none;fill-rule:nonzero;fill:url(#linear0);fill-opacity:1;" d="M 6 0 L 6 2 C 2.6875 2 0 4.6875 0 8 C 0 10.621094 1.683594 12.847656 4.027344 13.660156 L 4.027344 11.457031 C 2.820312 10.769531 2 9.488281 2 8 C 2 5.789062 3.789062 4 6 4 L 6 6 L 10 3 Z M 11 2.347656 L 11 4.554688 C 12.191406 5.246094 13 6.523438 13 8 C 13 10.210938 11.210938 12 9 12 L 9 10 L 5 13 L 9 16 L 9 14 C 12.3125 14 15 11.3125 15 8 C 15 5.386719 13.328125 3.171875 11 2.347656 Z M 11 2.347656 "/></g></svg>
