<svg xmlns="http://www.w3.org/2000/svg" xmlns:xlink="http://www.w3.org/1999/xlink" width="16" height="16" viewBox="0 0 16 16" version="1.1"><defs><linearGradient id="linear0" x1="0%" x2="0%" y1="0%" y2="100%"><stop offset="0%" style="stop-color:#ffd000; stop-opacity:1"/><stop offset="50%" style="stop-color:#24dbdb; stop-opacity:1"/><stop offset="100%" style="stop-color:#0073ff; stop-opacity:1"/></linearGradient></defs><g id="surface1"><path style=" stroke:none;fill-rule:nonzero;fill:url(#linear0);fill-opacity:1;" d="M 8 1 C 4.132812 1 1 3.351562 1 6.25 C 1 9.105469 4.214844 11.929688 8 12 L 8 15 C 15 11 15 8.230469 15 6.25 C 15 3.351562 11.867188 1 8 1 Z M 4 4 L 7 4 L 7 7 C 7 8 6 9 5 9 L 5 8 C 5 8 6 8 6 7 L 4 7 Z M 9 4 L 12 4 L 12 7 C 12 8 11 9 10 9 L 10 8 C 10 8 11 8 11 7 L 9 7 Z M 9 4 "/></g></svg>
