<svg xmlns="http://www.w3.org/2000/svg" xmlns:xlink="http://www.w3.org/1999/xlink" width="16" height="16" viewBox="0 0 16 16" version="1.1"><defs><linearGradient id="linear0" x1="0%" x2="0%" y1="0%" y2="100%"><stop offset="0%" style="stop-color:#00b54e; stop-opacity:1"/><stop offset="50%" style="stop-color:#ffd000; stop-opacity:1"/><stop offset="100%" style="stop-color:#ff00bb; stop-opacity:1"/></linearGradient></defs><g id="surface1"><path style=" stroke:none;fill-rule:nonzero;fill:url(#linear0);fill-opacity:1;" d="M 2.96875 2 C 2.96875 2 1 2 1 4 L 1 10 C 1 11.109375 1.890625 12 3 12 L 8 12 L 10 15.003906 L 12 12 L 13 12 C 13 12 15 12 15 10 L 15 4 C 15 2 13 2 13 2 Z M 5 4 L 7 4 L 9 6.65625 L 9 4 L 11 4 L 11 10 L 9 10 L 7 7.320312 L 7 10 L 5 10 Z M 5 4 "/></g></svg>
