<svg xmlns="http://www.w3.org/2000/svg" xmlns:xlink="http://www.w3.org/1999/xlink" width="16" height="16" viewBox="0 0 16 16" version="1.1"><defs><linearGradient id="linear0" x1="0%" x2="0%" y1="0%" y2="100%"><stop offset="0%" style="stop-color:#00b54e; stop-opacity:1"/><stop offset="50%" style="stop-color:#ffd000; stop-opacity:1"/><stop offset="100%" style="stop-color:#ff00bb; stop-opacity:1"/></linearGradient></defs><g id="surface1"><path style=" stroke:none;fill-rule:nonzero;fill:url(#linear0);fill-opacity:1;" d="M 11.078125 1 C 9.265625 1 7.796875 2.582031 7.796875 4.53125 C 7.796875 4.808594 7.824219 5.082031 7.882812 5.339844 C 5.152344 5.191406 2.730469 3.785156 1.113281 1.648438 C 0.832031 2.167969 0.671875 2.777344 0.671875 3.421875 C 0.671875 4.648438 1.25 5.730469 2.128906 6.367188 C 1.589844 6.347656 1.085938 6.1875 0.640625 5.921875 C 0.640625 5.9375 0.640625 5.953125 0.640625 5.96875 C 0.640625 7.679688 1.773438 9.109375 3.273438 9.433594 C 3 9.515625 2.710938 9.554688 2.410156 9.554688 C 2.199219 9.554688 1.992188 9.535156 1.792969 9.492188 C 2.210938 10.898438 3.421875 11.917969 4.859375 11.949219 C 3.734375 12.894531 2.320312 13.460938 0.78125 13.460938 C 0.519531 13.460938 0.257812 13.445312 0 13.410156 C 1.453125 14.414062 3.175781 15 5.03125 15 C 11.070312 15 14.371094 9.613281 14.371094 4.945312 C 14.371094 4.789062 14.371094 4.636719 14.363281 4.484375 C 15.003906 3.988281 15.558594 3.363281 16 2.65625 C 15.410156 2.9375 14.777344 3.128906 14.113281 3.210938 C 14.792969 2.777344 15.3125 2.082031 15.558594 1.257812 C 14.925781 1.664062 14.222656 1.957031 13.472656 2.117188 C 12.875 1.429688 12.023438 1 11.078125 1 Z M 11.078125 1 "/></g></svg>
