<svg xmlns="http://www.w3.org/2000/svg" xmlns:xlink="http://www.w3.org/1999/xlink" width="16" height="16" viewBox="0 0 16 16" version="1.1"><defs><linearGradient id="linear0" x1="0%" x2="0%" y1="0%" y2="100%"><stop offset="0%" style="stop-color:#ffd000; stop-opacity:1"/><stop offset="50%" style="stop-color:#24dbdb; stop-opacity:1"/><stop offset="100%" style="stop-color:#0073ff; stop-opacity:1"/></linearGradient></defs><g id="surface1"><path style=" stroke:none;fill-rule:nonzero;fill:url(#linear0);fill-opacity:1;" d="M 3 0 L 3 2 L 5 2 L 5 0 Z M 0 3 L 0 5 L 11 5 L 11 16 L 13 16 L 13 4.003906 C 13 4.003906 13 3.003906 12 3.003906 Z M 3 6 L 3 12.003906 C 3 13.003906 4 13.003906 4 13.003906 L 5.5 13.003906 L 10 13 L 10 11 L 5 11 L 5 6 Z M 14 11 L 14 13 L 16 13 L 16 11 Z M 14 11 "/></g></svg>
