<svg xmlns="http://www.w3.org/2000/svg" xmlns:xlink="http://www.w3.org/1999/xlink" width="16" height="16" viewBox="0 0 16 16" version="1.1"><defs><linearGradient id="linear0" x1="0%" x2="0%" y1="0%" y2="100%"><stop offset="0%" style="stop-color:#00b54e; stop-opacity:1"/><stop offset="50%" style="stop-color:#0073ff; stop-opacity:1"/><stop offset="100%" style="stop-color:#ffd000; stop-opacity:1"/></linearGradient></defs><g id="surface1"><path style=" stroke:none;fill-rule:nonzero;fill:url(#linear0);fill-opacity:1;" d="M 2 1 C 0.96875 1.0625 1 2 1 2 L 1 14 C 1 14 0.96875 14.9375 2 15 L 14 15 C 15 15 15 14 15 14 L 15 2 C 15 2 15 1 14 1 L 11 1 L 11 3 L 13 3 L 13 10 L 10.003906 10 C 10.003906 11.109375 9.113281 12 8.003906 12 C 6.894531 12 6.003906 11.109375 6.003906 10 L 3.003906 10 L 3.003906 3 L 5.003906 3 L 5.003906 1 Z M 6 1 L 6 5 L 4 5 L 8 10 L 12 5 L 10 5 L 10 1 Z M 6 1 "/></g></svg>
