<svg xmlns="http://www.w3.org/2000/svg" xmlns:xlink="http://www.w3.org/1999/xlink" width="16" height="16" viewBox="0 0 16 16" version="1.1"><defs><filter id="alpha" filterUnits="objectBoundingBox" x="0%" y="0%" width="100%" height="100%"> <feColorMatrix type="matrix" in="SourceGraphic" values="0 0 0 0 1 0 0 0 0 1 0 0 0 0 1 0 0 0 1 0"/></filter><mask id="mask0"> <g filter="url(#alpha)"><rect x="0" y="0" width="16" height="16" style="fill:rgb(0%,0%,0%);fill-opacity:0.3;stroke:none;"/> </g></mask><clipPath id="clip1"> <rect x="0" y="0" width="16" height="16"/></clipPath><g id="surface5" clip-path="url(#clip1)"><path style=" stroke:none;fill-rule:nonzero;fill:rgb(93.333334%,93.333334%,93.333334%);fill-opacity:1;" d="M 5 4 C 4.449219 4 4 4.449219 4 5 C 4 5.265625 4.105469 5.519531 4.292969 5.707031 L 6.585938 8 L 4.292969 10.292969 C 4.105469 10.480469 4 10.734375 4 11 C 4 11.550781 4.449219 12 5 12 C 5.265625 12 5.519531 11.894531 5.707031 11.707031 L 8 9.414062 L 10.292969 11.707031 C 10.480469 11.894531 10.734375 12 11 12 C 11.550781 12 12 11.550781 12 11 C 12 10.734375 11.894531 10.480469 11.707031 10.292969 L 9.414062 8 L 11.707031 5.707031 C 11.894531 5.519531 12 5.265625 12 5 C 12 4.449219 11.550781 4 11 4 C 10.734375 4 10.480469 4.105469 10.292969 4.292969 L 8 6.585938 L 5.707031 4.292969 C 5.519531 4.105469 5.265625 4 5 4 Z M 5 4 "/></g></defs><g id="surface1"><use xlink:href="#surface5" mask="url(#mask0)"/></g></svg>
