<svg xmlns="http://www.w3.org/2000/svg" xmlns:xlink="http://www.w3.org/1999/xlink" width="16" height="16" viewBox="0 0 16 16" version="1.1"><defs><linearGradient id="linear0" x1="0%" x2="0%" y1="0%" y2="100%"><stop offset="0%" style="stop-color:#00b54e; stop-opacity:1"/><stop offset="50%" style="stop-color:#ffd000; stop-opacity:1"/><stop offset="100%" style="stop-color:#ff00bb; stop-opacity:1"/></linearGradient></defs><g id="surface1"><path style=" stroke:none;fill-rule:nonzero;fill:url(#linear0);fill-opacity:1;" d="M 3 0.00390625 C 2 0.00390625 2 1.003906 2 1.003906 L 2 9 C 2 10 3 10 3 10 L 13 10 C 13 10 14 10 14 9 L 14 1.003906 C 14 0.00390625 13 0.00390625 13 0.00390625 Z M 6 3.5 L 9 6.5 L 10.5 5 L 12 6.5 L 12 8 L 4 8 L 4 5.5 Z M 5 12 L 8 16 L 11 12 Z M 5 12 "/></g></svg>
