<svg xmlns="http://www.w3.org/2000/svg" xmlns:xlink="http://www.w3.org/1999/xlink" width="16" height="16" viewBox="0 0 16 16" version="1.1"><defs><linearGradient id="linear0" x1="0%" x2="100%" y1="0%" y2="100%"><stop offset="0%" style="stop-color:#e5ff00; stop-opacity:1"/><stop offset="50%" style="stop-color:#0073ff; stop-opacity:1"/><stop offset="100%" style="stop-color:#ff0000; stop-opacity:1"/></linearGradient></defs><g id="surface1"><path style=" stroke:none;fill-rule:nonzero;fill:url(#linear0);fill-opacity:1;" d="M 8 1 C 4.132812 1 1 4.132812 1 8 C 1 11.863281 4.132812 15 8 15 C 11.867188 15 15 11.863281 15 8 C 15 4.132812 11.867188 1 8 1 Z M 5 5 C 5.554688 5 6 5.453125 6 6 C 6 6.550781 5.554688 7 5 7 C 4.445312 7 4 6.550781 4 6 C 4 5.453125 4.445312 5 5 5 Z M 11 5 C 11.554688 5 12 5.453125 12 6 C 12 6.550781 11.554688 7 11 7 C 10.445312 7 10 6.550781 10 6 C 10 5.453125 10.445312 5 11 5 Z M 4.007812 10 L 11.992188 10 C 11.050781 11.257812 9.570312 12 8 12 C 6.429688 12 4.949219 11.257812 4.007812 10 Z M 4.007812 10 "/></g></svg>
