<svg xmlns="http://www.w3.org/2000/svg" xmlns:xlink="http://www.w3.org/1999/xlink" width="16" height="16" viewBox="0 0 16 16" version="1.1"><defs><linearGradient id="linear0" x1="0%" x2="0%" y1="0%" y2="100%"><stop offset="0%" style="stop-color:#00b54e; stop-opacity:1"/><stop offset="50%" style="stop-color:#0073ff; stop-opacity:1"/><stop offset="100%" style="stop-color:#ffd000; stop-opacity:1"/></linearGradient></defs><g id="surface1"><path style=" stroke:none;fill-rule:nonzero;fill:url(#linear0);fill-opacity:1;" d="M 2 1 L 2 2 L 1 2 L 1 3 L 2 3 L 2 13 L 1 13 L 1 14 L 2 14 L 2 15 L 3 15 L 3 14 L 13 14 L 13 15 L 14 15 L 14 14 L 15 14 L 15 13 L 14 13 L 14 3 L 15 3 L 15 2 L 14 2 L 14 1 L 13 1 L 13 2 L 3 2 L 3 1 Z M 3 3 L 13 3 L 13 13 L 3 13 Z M 4 4 L 4 6 L 7 6 L 7 12 L 9 12 L 9 6 L 12 6 L 12 4 Z M 4 4 "/></g></svg>
