<svg xmlns="http://www.w3.org/2000/svg" xmlns:xlink="http://www.w3.org/1999/xlink" width="16" height="16" viewBox="0 0 16 16" version="1.1"><defs><linearGradient id="linear0" x1="0%" x2="0%" y1="0%" y2="100%"><stop offset="0%" style="stop-color:#ffd000; stop-opacity:1"/><stop offset="50%" style="stop-color:#24dbdb; stop-opacity:1"/><stop offset="100%" style="stop-color:#0073ff; stop-opacity:1"/></linearGradient></defs><g id="surface1"><path style=" stroke:none;fill-rule:nonzero;fill:url(#linear0);fill-opacity:1;" d="M 5 2 C 4.417969 2 3.90625 2.3125 3.644531 2.765625 C 3.378906 3.214844 3.296875 3.753906 3.28125 4.359375 C 3.246094 5.574219 3.507812 7.082031 3.757812 8.582031 C 4.007812 10.082031 4.246094 11.574219 4.21875 12.609375 C 4.203125 13.132812 4.113281 13.527344 3.992188 13.730469 C 3.875 13.9375 3.792969 14 3.5 14 C 3.386719 14 3.300781 13.96875 3.179688 13.855469 C 3.058594 13.738281 2.917969 13.542969 2.796875 13.273438 C 2.550781 12.742188 2.367188 11.960938 2.242188 11.175781 C 2 9.597656 2 8 2 8 L 1 8 C 1 8 1 9.652344 1.257812 11.324219 C 1.382812 12.164062 1.574219 13.007812 1.890625 13.691406 C 2.050781 14.035156 2.238281 14.347656 2.5 14.589844 C 2.761719 14.828125 3.113281 15 3.5 15 C 4.082031 15 4.59375 14.6875 4.855469 14.234375 C 5.121094 13.785156 5.203125 13.242188 5.21875 12.640625 C 5.253906 11.425781 4.992188 9.917969 4.742188 8.417969 C 4.492188 6.917969 4.253906 5.425781 4.28125 4.390625 C 4.296875 3.871094 4.386719 3.472656 4.507812 3.269531 C 4.625 3.0625 4.707031 3 5 3 C 5.34375 3 5.527344 3.082031 5.675781 3.21875 C 5.824219 3.351562 5.949219 3.566406 6.03125 3.882812 C 6.203125 4.511719 6.1875 5.480469 6.125 6.46875 C 6.0625 7.457031 5.960938 8.464844 6.046875 9.300781 C 6.09375 9.722656 6.179688 10.105469 6.40625 10.4375 C 6.632812 10.769531 7.054688 11 7.5 11 C 8.292969 11 8.878906 10.496094 9.125 9.910156 C 9.371094 9.320312 9.40625 8.660156 9.4375 8.027344 C 9.46875 7.390625 9.492188 6.785156 9.597656 6.417969 C 9.648438 6.234375 9.714844 6.125 9.769531 6.074219 C 9.820312 6.023438 9.855469 6 10 6 C 10.375 6 10.601562 6.121094 10.804688 6.324219 C 11.003906 6.523438 11.164062 6.832031 11.273438 7.15625 C 11.492188 7.8125 11.5 8.5 11.5 8.5 C 11.5 8.777344 11.722656 9 12 9 L 15 9 L 15 8 L 12.414062 8 C 12.398438 7.707031 12.421875 7.433594 12.226562 6.84375 C 12.085938 6.417969 11.871094 5.976562 11.511719 5.613281 C 11.148438 5.253906 10.625 5 10 5 C 9.644531 5 9.304688 5.132812 9.074219 5.355469 C 8.84375 5.578125 8.71875 5.859375 8.636719 6.144531 C 8.476562 6.714844 8.46875 7.359375 8.4375 7.972656 C 8.40625 8.589844 8.347656 9.179688 8.203125 9.527344 C 8.058594 9.875 7.957031 10 7.5 10 C 7.320312 10 7.304688 9.980469 7.230469 9.871094 C 7.15625 9.765625 7.078125 9.527344 7.042969 9.199219 C 6.976562 8.535156 7.0625 7.542969 7.125 6.53125 C 7.1875 5.519531 7.234375 4.488281 6.996094 3.617188 C 6.878906 3.183594 6.683594 2.773438 6.34375 2.46875 C 6.003906 2.167969 5.53125 2 5 2 Z M 5 2 "/></g></svg>
