<svg xmlns="http://www.w3.org/2000/svg" xmlns:xlink="http://www.w3.org/1999/xlink" width="16" height="16" viewBox="0 0 16 16" version="1.1"><defs><filter id="alpha" filterUnits="objectBoundingBox" x="0%" y="0%" width="100%" height="100%"> <feColorMatrix type="matrix" in="SourceGraphic" values="0 0 0 0 1 0 0 0 0 1 0 0 0 0 1 0 0 0 1 0"/></filter><mask id="mask0"> <g filter="url(#alpha)"><rect x="0" y="0" width="16" height="16" style="fill:rgb(0%,0%,0%);fill-opacity:0.3;stroke:none;"/> </g></mask><clipPath id="clip1"> <rect x="0" y="0" width="16" height="16"/></clipPath><g id="surface5" clip-path="url(#clip1)"><path style=" stroke:none;fill-rule:nonzero;fill:rgb(93.333334%,93.333334%,93.333334%);fill-opacity:1;" d="M 4 1 L 4 4 L 1 4 L 1 6 L 4 6 L 4 10 L 1 10 L 1 12 L 4 12 L 4 15 L 6 15 L 6 12 L 10 12 L 10 15 L 12 15 L 12 12 L 15 12 L 15 10 L 12 10 L 12 6 L 15 6 L 15 4 L 12 4 L 12 1 L 10 1 L 10 4 L 6 4 L 6 1 Z M 6 6 L 10 6 L 10 10 L 6 10 Z M 6 6 "/></g></defs><g id="surface1"><use xlink:href="#surface5" mask="url(#mask0)"/></g></svg>
