<svg xmlns="http://www.w3.org/2000/svg" xmlns:xlink="http://www.w3.org/1999/xlink" width="16" height="16" viewBox="0 0 16 16" version="1.1"><defs><linearGradient id="linear0" x1="0%" x2="0%" y1="0%" y2="100%"><stop offset="0%" style="stop-color:#00b54e; stop-opacity:1"/><stop offset="50%" style="stop-color:#0073ff; stop-opacity:1"/><stop offset="100%" style="stop-color:#ffd000; stop-opacity:1"/></linearGradient></defs><g id="surface1"><path style=" stroke:none;fill-rule:nonzero;fill:url(#linear0);fill-opacity:1;" d="M 1 1 L 1 3 L 15 3 L 15 1 Z M 1 5.003906 L 1 7.003906 L 15 7.003906 L 15 5.003906 Z M 1 9.003906 L 1 11.003906 L 7 11.003906 L 7 9.003906 Z M 11 9.003906 L 11 11.003906 L 9 11.003906 L 9 13.003906 L 11 13.003906 L 11 15.003906 L 13 15.003906 L 13 13.003906 L 15 13.003906 L 15 11.003906 L 13 11.003906 L 13 9.003906 Z M 1 13 L 1 15 L 7 15 L 7 13 Z M 1 13 "/></g></svg>
