<svg xmlns="http://www.w3.org/2000/svg" xmlns:xlink="http://www.w3.org/1999/xlink" width="16" height="16" viewBox="0 0 16 16" version="1.1"><defs><linearGradient id="linear0" x1="0%" x2="0%" y1="0%" y2="100%"><stop offset="0%" style="stop-color:#00b54e; stop-opacity:1"/><stop offset="50%" style="stop-color:#ffd000; stop-opacity:1"/><stop offset="100%" style="stop-color:#ff00bb; stop-opacity:1"/></linearGradient></defs><g id="surface1"><path style=" stroke:none;fill-rule:nonzero;fill:url(#linear0);fill-opacity:1;" d="M 1 1.015625 L 1 15.015625 L 15 15.015625 L 15 1.015625 Z M 4.433594 6.851562 L 6.757812 6.851562 C 6.8125 6.851562 6.847656 6.875 6.859375 6.921875 L 8.90625 13.011719 C 8.917969 13.039062 8.914062 13.070312 8.894531 13.105469 C 8.875 13.136719 8.84375 13.152344 8.800781 13.152344 L 6.90625 13.152344 C 6.886719 13.152344 6.863281 13.144531 6.839844 13.128906 C 6.820312 13.113281 6.808594 13.089844 6.804688 13.066406 L 6.367188 11.667969 L 4.777344 11.667969 C 4.722656 11.902344 4.660156 12.136719 4.59375 12.375 C 4.53125 12.605469 4.46875 12.835938 4.414062 13.066406 C 4.402344 13.121094 4.367188 13.152344 4.304688 13.152344 L 2.507812 13.152344 C 2.464844 13.152344 2.433594 13.136719 2.414062 13.105469 C 2.398438 13.074219 2.394531 13.042969 2.40625 13.011719 L 4.332031 6.921875 C 4.34375 6.875 4.378906 6.851562 4.433594 6.851562 Z M 5.523438 8.476562 C 5.519531 8.503906 5.511719 8.542969 5.5 8.585938 C 5.492188 8.628906 5.484375 8.664062 5.476562 8.695312 C 5.453125 8.804688 5.425781 8.90625 5.402344 9.007812 C 5.378906 9.097656 5.351562 9.1875 5.320312 9.273438 L 5.328125 9.273438 C 5.285156 9.457031 5.246094 9.613281 5.207031 9.742188 C 5.167969 9.871094 5.125 10.027344 5.078125 10.207031 L 6.054688 10.207031 C 6.007812 10.054688 5.960938 9.898438 5.914062 9.742188 C 5.871094 9.582031 5.828125 9.425781 5.777344 9.273438 C 5.746094 9.175781 5.707031 9.070312 5.664062 8.960938 C 5.625 8.847656 5.59375 8.738281 5.5625 8.632812 L 5.570312 8.640625 C 5.558594 8.597656 5.550781 8.574219 5.542969 8.566406 C 5.542969 8.554688 5.546875 8.546875 5.554688 8.546875 L 5.542969 8.539062 C 5.542969 8.527344 5.539062 8.507812 5.523438 8.476562 Z M 10.679688 11.75 C 11.066406 11.75 11.378906 12.0625 11.378906 12.449219 C 11.382812 12.636719 11.308594 12.8125 11.175781 12.945312 C 11.042969 13.078125 10.867188 13.152344 10.679688 13.152344 C 10.292969 13.148438 9.980469 12.835938 9.980469 12.449219 C 9.980469 12.0625 10.292969 11.75 10.679688 11.75 Z M 12.902344 11.75 C 13.285156 11.75 13.597656 12.0625 13.597656 12.449219 C 13.601562 12.835938 13.289062 13.148438 12.902344 13.152344 C 12.714844 13.152344 12.535156 13.078125 12.402344 12.945312 C 12.273438 12.8125 12.199219 12.636719 12.199219 12.449219 C 12.199219 12.0625 12.511719 11.75 12.902344 11.75 Z M 12.902344 11.75 "/></g></svg>
