<svg xmlns="http://www.w3.org/2000/svg" xmlns:xlink="http://www.w3.org/1999/xlink" width="16" height="16" viewBox="0 0 16 16" version="1.1"><defs><linearGradient id="linear0" x1="0%" x2="0%" y1="0%" y2="100%"><stop offset="0%" style="stop-color:#00b54e; stop-opacity:1"/><stop offset="50%" style="stop-color:#0073ff; stop-opacity:1"/><stop offset="100%" style="stop-color:#ffd000; stop-opacity:1"/></linearGradient></defs><g id="surface1"><path style=" stroke:none;fill-rule:nonzero;fill:url(#linear0);fill-opacity:1;" d="M 2 2.003906 C 1 2.003906 1 3.003906 1 3.003906 L 1 7.003906 L 3 7.003906 L 3 4.003906 L 6 4.003906 L 6 2.003906 Z M 10 2.003906 L 10 4.003906 L 13 4.003906 L 13 7.003906 L 15 7.003906 L 15 3.003906 C 15 2.003906 14 2.003906 14 2.003906 Z M 4.992188 5 L 4.992188 11 L 10.988281 11 L 10.988281 5 Z M 1 9.003906 L 1 13.003906 C 1 14.003906 2 14.003906 2 14.003906 L 6 14.003906 L 6 12.003906 L 3 12.003906 L 3 9.003906 Z M 13 9.003906 L 13 12.003906 L 10 12.003906 L 10 14.003906 L 14 14.003906 C 14 14.003906 15 14.003906 15 13.003906 L 15 9.003906 Z M 13 9.003906 "/></g></svg>
