<svg xmlns="http://www.w3.org/2000/svg" xmlns:xlink="http://www.w3.org/1999/xlink" width="16" height="16" viewBox="0 0 16 16" version="1.1"><defs><linearGradient id="linear0" x1="0%" x2="0%" y1="0%" y2="100%"><stop offset="0%" style="stop-color:#00b54e; stop-opacity:1"/><stop offset="50%" style="stop-color:#ffd000; stop-opacity:1"/><stop offset="100%" style="stop-color:#ff00bb; stop-opacity:1"/></linearGradient></defs><g id="surface1"><path style=" stroke:none;fill-rule:nonzero;fill:url(#linear0);fill-opacity:1;" d="M 3.5 1 C 2.132812 1 1 2.132812 1 3.5 C 1 4.265625 1.429688 4.882812 2 5.351562 L 2 11 C 2 12.644531 3.355469 14 5 14 C 5 14.5625 5.464844 15.015625 6.03125 15 C 6.234375 14.992188 6.433594 14.921875 6.601562 14.800781 L 8.601562 13.300781 C 9.132812 12.902344 9.132812 12.101562 8.601562 11.703125 L 6.601562 10.203125 C 5.945312 9.710938 5.011719 10.171875 5 10.984375 L 5 5.351562 C 5.570312 4.882812 6 4.265625 6 3.5 C 6 2.132812 4.867188 1 3.5 1 Z M 9.96875 1 C 9.765625 1.007812 9.566406 1.074219 9.398438 1.199219 L 7.398438 2.699219 C 6.867188 3.097656 6.867188 3.898438 7.398438 4.296875 L 9.398438 5.796875 C 10.054688 6.289062 10.988281 5.832031 11 5.015625 L 11 10.652344 C 10.429688 11.117188 10 11.734375 10 12.5 C 10 13.867188 11.132812 15 12.5 15 C 13.867188 15 15 13.867188 15 12.5 C 15 11.734375 14.570312 11.117188 14 10.652344 L 14 5 C 14 3.355469 12.644531 2 11 2 C 11 1.4375 10.535156 0.984375 9.96875 1 Z M 9.96875 1 "/></g></svg>
