<svg xmlns="http://www.w3.org/2000/svg" xmlns:xlink="http://www.w3.org/1999/xlink" width="16" height="16" viewBox="0 0 16 16" version="1.1"><defs><linearGradient id="linear0" x1="0%" x2="0%" y1="0%" y2="100%"><stop offset="0%" style="stop-color:#00b54e; stop-opacity:1"/><stop offset="50%" style="stop-color:#0073ff; stop-opacity:1"/><stop offset="100%" style="stop-color:#ffd000; stop-opacity:1"/></linearGradient></defs><g id="surface1"><path style=" stroke:none;fill-rule:nonzero;fill:url(#linear0);fill-opacity:1;" d="M 3.898438 0 C 1.140625 0 0 2.238281 0 5 L 0 11 C 0 13.761719 1.140625 16 3.898438 16 C 6.660156 16 7.5 13.761719 7.5 11 L 7.5 5 C 7.5 2.238281 6.660156 0 3.898438 0 Z M 3.898438 1 C 6.109375 1 6.5 2.789062 6.5 5 L 6.5 11 C 6.5 13.210938 6.109375 15 3.898438 15 C 1.691406 15 1 13.210938 1 11 L 1 5 C 1 2.789062 1.691406 1 3.898438 1 Z M 15 4 L 15 5 L 16 5 L 16 4 Z M 9 7 L 9 16 L 10 16 L 10 10 C 10 8.894531 10.894531 8 12 8 C 13.105469 8 13 8.894531 13 10 L 14 10 C 14 8.34375 13.65625 7 12 7 C 11.261719 7 10.550781 7.273438 10 7.765625 L 10 7 Z M 15 7 L 15 16 L 16 16 L 16 7 Z M 15 7 "/></g></svg>
