<svg xmlns="http://www.w3.org/2000/svg" xmlns:xlink="http://www.w3.org/1999/xlink" width="16" height="16" viewBox="0 0 16 16" version="1.1"><defs><linearGradient id="linear0" x1="0%" x2="0%" y1="0%" y2="100%"><stop offset="0%" style="stop-color:#00b54e; stop-opacity:1"/><stop offset="50%" style="stop-color:#ffd000; stop-opacity:1"/><stop offset="100%" style="stop-color:#ff00bb; stop-opacity:1"/></linearGradient></defs><g id="surface1"><path style=" stroke:none;fill-rule:nonzero;fill:url(#linear0);fill-opacity:1;" d="M 8 -0.09375 L 8 0 C 7.691406 0.00390625 7.386719 0.0234375 7.078125 0.0585938 C 7.027344 0.0625 6.972656 0.0703125 6.917969 0.0742188 L 6.914062 0.078125 C 3.519531 0.53125 1.015625 3.03125 1 5.976562 L 1 13.976562 C 1 15.082031 4.132812 15.976562 8 15.976562 C 11.867188 15.976562 15 15.082031 15 13.976562 L 15 5.976562 C 14.996094 3.554688 13.296875 1.371094 10.6875 0.441406 L 10.683594 0.441406 C 10.667969 0.433594 10.648438 0.429688 10.628906 0.421875 C 10.503906 0.378906 10.371094 0.339844 10.238281 0.304688 C 10.148438 0.277344 10.054688 0.25 9.960938 0.226562 C 9.832031 0.195312 9.707031 0.167969 9.578125 0.140625 C 9.476562 0.121094 9.375 0.101562 9.273438 0.0859375 C 9.152344 0.0664062 9.027344 0.0507812 8.90625 0.0390625 C 8.796875 0.0234375 8.6875 0.0117188 8.578125 0.00390625 C 8.386719 -0.0351562 8.195312 -0.0703125 8 -0.0976562 Z M 10.113281 1.328125 C 12.460938 2.0625 14.011719 3.9375 14 6.023438 C 14 7.128906 11.3125 8.023438 8 8.023438 C 4.6875 8.023438 2 7.128906 2 6.023438 C 2 3.988281 3.484375 2.15625 5.75 1.390625 C 4.726562 2.878906 4.191406 4.820312 4.039062 6.523438 C 5.132812 6.847656 6.542969 7.023438 8 7.023438 C 8.296875 4.53125 9.191406 2.78125 10.113281 1.351562 Z M 2 7.523438 C 3.261719 8.429688 5.539062 8.988281 8 8.988281 C 10.460938 8.988281 12.738281 8.433594 14 7.527344 L 14 13.988281 C 14 14.539062 11.3125 14.988281 8 14.988281 C 4.6875 14.988281 2 14.539062 2 13.988281 Z M 2 7.523438 "/></g></svg>
