<svg xmlns="http://www.w3.org/2000/svg" xmlns:xlink="http://www.w3.org/1999/xlink" width="16" height="16" viewBox="0 0 16 16" version="1.1"><defs><linearGradient id="linear0" x1="0%" x2="100%" y1="0%" y2="100%"><stop offset="0%" style="stop-color:#e5ff00; stop-opacity:1"/><stop offset="50%" style="stop-color:#0073ff; stop-opacity:1"/><stop offset="100%" style="stop-color:#ff0000; stop-opacity:1"/></linearGradient></defs><g id="surface1"><path style=" stroke:none;fill-rule:nonzero;fill:url(#linear0);fill-opacity:1;" d="M 15 0 L 15 2.40625 L 11 6.078125 L 11 8 L 8 8 L 8 1 L 7 1 L 7 8 L 0 8 L 0 9 L 7 9 L 7 12.242188 L 4 14.996094 L 4 15 L 0 15 L 0 16 L 4.382812 16 L 7 13.597656 L 7 16 L 8 16 L 8 12.683594 L 12 9.007812 L 12 9 L 15 9 L 15 8 L 12 8 L 12 6.515625 L 16 2.84375 L 16 0 Z M 8 9 L 10.53125 9 L 8 11.324219 Z M 8 9 "/></g></svg>
