<svg xmlns="http://www.w3.org/2000/svg" xmlns:xlink="http://www.w3.org/1999/xlink" width="16" height="16" viewBox="0 0 16 16" version="1.1"><defs><linearGradient id="linear0" x1="0%" x2="0%" y1="0%" y2="100%"><stop offset="0%" style="stop-color:#00b54e; stop-opacity:1"/><stop offset="50%" style="stop-color:#ffd000; stop-opacity:1"/><stop offset="100%" style="stop-color:#ff00bb; stop-opacity:1"/></linearGradient></defs><g id="surface1"><path style=" stroke:none;fill-rule:nonzero;fill:url(#linear0);fill-opacity:1;" d="M 8 1 C 4.132812 1 1 4.132812 1 8 C 1 11.867188 4.132812 15 8 15 C 11.867188 15 15 11.867188 15 8 C 15 4.132812 11.867188 1 8 1 Z M 8 3 C 10.761719 3 13 5.238281 13 8 C 13 10.761719 10.761719 13 8 13 C 5.238281 13 3 10.761719 3 8 C 3 5.238281 5.238281 3 8 3 Z M 8.09375 4 C 5.886719 4 4.09375 5.789062 4.09375 8 C 4.09375 10.210938 5.886719 12 8.09375 12 C 10.304688 12 12.09375 10.210938 12.09375 8 C 12.09375 5.925781 10.507812 4.195312 8.4375 4.015625 C 8 4 8.09375 4 8.09375 4 Z M 8.09375 5 C 9.753906 5 11.09375 6.34375 11.09375 8 C 11.09375 9.65625 9.753906 11 8.09375 11 C 6.4375 11 5.09375 9.65625 5.09375 8 C 5.09375 6.34375 6.4375 5 8.09375 5 Z M 8.09375 6 C 6.988281 6 6.09375 6.890625 6.09375 8 C 6.09375 9.109375 6.988281 10 8.09375 10 C 9.203125 10 10.09375 9.109375 10.09375 8 C 10.09375 7.796875 10.058594 7.601562 10 7.414062 C 9.84375 7.757812 9.5 8 9.09375 8 C 8.542969 8 8.09375 7.554688 8.09375 7 C 8.09375 6.59375 8.335938 6.253906 8.679688 6.09375 C 8.492188 6.039062 8.300781 6 8.09375 6 Z M 8.09375 6 "/></g></svg>
