<svg xmlns="http://www.w3.org/2000/svg" xmlns:xlink="http://www.w3.org/1999/xlink" width="16" height="16" viewBox="0 0 16 16" version="1.1"><defs><linearGradient id="linear0" x1="0%" x2="0%" y1="0%" y2="100%"><stop offset="0%" style="stop-color:#00b54e; stop-opacity:1"/><stop offset="50%" style="stop-color:#ffd000; stop-opacity:1"/><stop offset="100%" style="stop-color:#ff00bb; stop-opacity:1"/></linearGradient></defs><g id="surface1"><path style=" stroke:none;fill-rule:nonzero;fill:rgb(32.156864%,58.039218%,88.627452%);fill-opacity:1;" d="M 3 1 C 1.890625 1 1 1.890625 1 3 L 1 13 C 1 14.109375 1.890625 15 3 15 L 13 15 C 14.109375 15 15 14.109375 15 13 L 15 3 C 15 1.890625 14.109375 1 13 1 Z M 8 4 C 9.105469 4 10 4.894531 10 6 C 10 7.105469 9.105469 8 8 8 C 6.894531 8 6 7.105469 6 6 C 6 4.894531 6.894531 4 8 4 Z M 8 9 C 12 8.996094 12 11.667969 12 11.667969 L 12 12 L 4 12 L 4 11.667969 C 4 11.667969 4 9.003906 8 9 Z M 8 9 "/></g></svg>
