<svg xmlns="http://www.w3.org/2000/svg" xmlns:xlink="http://www.w3.org/1999/xlink" width="16" height="16" viewBox="0 0 16 16" version="1.1"><defs><linearGradient id="linear0" x1="0%" x2="0%" y1="0%" y2="100%"><stop offset="0%" style="stop-color:#ffd000; stop-opacity:1"/><stop offset="50%" style="stop-color:#24dbdb; stop-opacity:1"/><stop offset="100%" style="stop-color:#0073ff; stop-opacity:1"/></linearGradient></defs><g id="surface1"><path style=" stroke:none;fill-rule:nonzero;fill:url(#linear0);fill-opacity:1;" d="M 2 2 C 0.890625 2 0 2.890625 0 4 L 0 12 C 0 13.109375 0.890625 14 2 14 L 8 14 L 8 9 L 2 6 L 2 4 L 8 7 L 14 4 L 14 6 L 12 7 L 15 7 C 15.363281 7 15.703125 7.109375 16 7.28125 L 16 4 C 16 2.890625 15.109375 2 14 2 Z M 10 8 C 9.445312 8 9 8.445312 9 9 L 9 14 C 9 14.554688 9.445312 15 10 15 L 15 15 C 15.554688 15 16 14.554688 16 14 L 16 9 C 16 8.445312 15.554688 8 15 8 Z M 10 9 L 11 9 L 11 10 L 12 10 L 12 11 L 13 11 L 13 10 L 14 10 L 14 9 L 15 9 L 15 14 L 14 14 L 14 11 L 13 11 L 13 12 L 12 12 L 12 11 L 11 11 L 11 14 L 10 14 Z M 10 9 "/></g></svg>
