<svg xmlns="http://www.w3.org/2000/svg" xmlns:xlink="http://www.w3.org/1999/xlink" width="16" height="16" viewBox="0 0 16 16" version="1.1"><defs><linearGradient id="linear0" x1="0%" x2="0%" y1="0%" y2="100%"><stop offset="0%" style="stop-color:#00b54e; stop-opacity:1"/><stop offset="50%" style="stop-color:#ffd000; stop-opacity:1"/><stop offset="100%" style="stop-color:#ff00bb; stop-opacity:1"/></linearGradient></defs><g id="surface1"><path style=" stroke:none;fill-rule:nonzero;fill:url(#linear0);fill-opacity:1;" d="M 3 1 L 3 3 L 13 3 L 13 1 Z M 2 3 C 0.890625 3 0 3.890625 0 5 L 0 13 C 0 14.109375 0.890625 15 2 15 L 8 15 L 8 10 L 2 7 Z M 14 3 L 14 7 L 12 8 L 15 8 C 15.363281 8 15.703125 8.109375 16 8.28125 L 16 5 C 16 3.890625 15.109375 3 14 3 Z M 3 5 L 3 7 L 13 7 L 13 5 Z M 10 9 C 9.445312 9 9 9.445312 9 10 L 9 15 C 9 15.554688 9.445312 16 10 16 L 15 16 C 15.554688 16 16 15.554688 16 15 L 16 10 C 16 9.445312 15.554688 9 15 9 Z M 10 10 L 11 10 L 11 11 L 12 11 L 12 12 L 13 12 L 13 11 L 14 11 L 14 10 L 15 10 L 15 15 L 14 15 L 14 12 L 13 12 L 13 13 L 12 13 L 12 12 L 11 12 L 11 15 L 10 15 Z M 10 10 "/></g></svg>
