<svg xmlns="http://www.w3.org/2000/svg" xmlns:xlink="http://www.w3.org/1999/xlink" width="16" height="16" viewBox="0 0 16 16" version="1.1"><defs><linearGradient id="linear0" x1="0%" x2="100%" y1="0%" y2="100%"><stop offset="0%" style="stop-color:#e5ff00; stop-opacity:1"/><stop offset="50%" style="stop-color:#0073ff; stop-opacity:1"/><stop offset="100%" style="stop-color:#ff0000; stop-opacity:1"/></linearGradient></defs><g id="surface1"><path style=" stroke:none;fill-rule:nonzero;fill:url(#linear0);fill-opacity:1;" d="M 2 1 C 2 1 1 1 1 2 L 1 13 C 1 13 1 14 2 14 L 14 14 C 14 14 15 14 15 13 L 15 4 C 15 3 14 3 14 3 L 9 3 L 7 1 Z M 8 4 C 10.210938 4 12 5.789062 12 8 L 12 8.5 C 12 9.328125 11.328125 10 10.5 10 C 10.058594 10 9.636719 9.804688 9.351562 9.464844 C 8.996094 9.792969 8.523438 10 8 10 C 6.894531 10 6 9.105469 6 8 C 6 6.894531 6.894531 6 8 6 C 9.105469 6 10 6.894531 10 8 L 10 8.5 C 10 8.777344 10.222656 9 10.5 9 C 10.777344 9 11 8.777344 11 8.5 L 11 8 C 11 6.34375 9.65625 5 8 5 C 6.34375 5 5 6.34375 5 8 C 5 9.65625 6.34375 11 8 11 L 10.5 11 C 10.5 11 11 11 11 11.5 C 10.96875 12 10.5 12 10.5 12 L 8 12 C 5.789062 12 4 10.210938 4 8 C 4 5.789062 5.789062 4 8 4 Z M 8 7 C 7.449219 7 7 7.449219 7 8 C 7 8.550781 7.449219 9 8 9 C 8.550781 9 9 8.550781 9 8 C 9 7.449219 8.550781 7 8 7 Z M 8 7 "/></g></svg>
