<svg xmlns="http://www.w3.org/2000/svg" xmlns:xlink="http://www.w3.org/1999/xlink" width="16" height="16" viewBox="0 0 16 16" version="1.1"><defs><linearGradient id="linear0" x1="0%" x2="100%" y1="0%" y2="100%"><stop offset="0%" style="stop-color:#ff0000; stop-opacity:1"/><stop offset="50%" style="stop-color:#ffd000; stop-opacity:1"/><stop offset="100%" style="stop-color:#ff00bb; stop-opacity:1"/></linearGradient></defs><g id="surface1"><path style=" stroke:none;fill-rule:nonzero;fill:url(#linear0);fill-opacity:1;" d="M 7 3 L 2 7 L 7 11 L 7 8 L 14 8 L 14 6 L 7 6 Z M 12 9 C 11.449219 9 11 9.449219 11 10 C 11 10.550781 11.449219 11 12 11 C 12.550781 11 13 10.550781 13 10 C 13 9.449219 12.550781 9 12 9 Z M 10.679688 12 C 10.25 12.378906 10 12.925781 10 13.5 L 10 14 L 14 14 L 14 13.5 C 14 12.925781 13.75 12.378906 13.320312 12 Z M 10.679688 12 "/></g></svg>
