<svg xmlns="http://www.w3.org/2000/svg" xmlns:xlink="http://www.w3.org/1999/xlink" width="16" height="16" viewBox="0 0 16 16" version="1.1"><defs><linearGradient id="linear0" x1="0%" x2="100%" y1="0%" y2="100%"><stop offset="0%" style="stop-color:#ff0000; stop-opacity:1"/><stop offset="50%" style="stop-color:#ffd000; stop-opacity:1"/><stop offset="100%" style="stop-color:#ff00bb; stop-opacity:1"/></linearGradient></defs><g id="surface1"><path style=" stroke:none;fill-rule:nonzero;fill:url(#linear0);fill-opacity:1;" d="M 2 2 C 0.890625 2 0 2.890625 0 4 L 0 12 C 0 13.109375 0.890625 14 2 14 L 13 14 C 11.355469 14 10 12.644531 10 11 C 10 9.355469 11.355469 8 13 8 C 14.644531 8 16 9.355469 16 11 L 16 4 C 16 2.890625 15.109375 2 14 2 Z M 2 4 L 8 7 L 14 4 L 14 6 L 8 9 L 2 6 Z M 13 9 C 11.894531 9 11 9.894531 11 11 C 11 12.105469 11.894531 13 13 13 C 14.105469 13 15 12.105469 15 11 C 15 9.894531 14.105469 9 13 9 Z M 13 9 "/></g></svg>
