<svg xmlns="http://www.w3.org/2000/svg" xmlns:xlink="http://www.w3.org/1999/xlink" width="16" height="16" viewBox="0 0 16 16" version="1.1"><defs><linearGradient id="linear0" x1="0%" x2="0%" y1="0%" y2="100%"><stop offset="0%" style="stop-color:#00b54e; stop-opacity:1"/><stop offset="50%" style="stop-color:#ffd000; stop-opacity:1"/><stop offset="100%" style="stop-color:#ff00bb; stop-opacity:1"/></linearGradient></defs><g id="surface1"><path style=" stroke:none;fill-rule:nonzero;fill:url(#linear0);fill-opacity:1;" d="M 2.007812 2.003906 C 0.898438 2.003906 0.0078125 2.894531 0.0078125 4.003906 L 0.0078125 12.003906 C 0.0078125 13.113281 0.898438 14.003906 2.007812 14.003906 L 9.9375 14.003906 C 9.9375 13.984375 9.9375 13.960938 9.9375 13.941406 L 9.9375 10.941406 C 9.9375 10.390625 10.382812 9.941406 10.9375 9.941406 L 10.9375 9.441406 C 10.9375 8.074219 12.066406 6.941406 13.4375 6.941406 C 14.804688 6.941406 15.9375 8.074219 15.9375 9.441406 L 15.9375 9.941406 C 15.960938 9.941406 15.984375 9.941406 16.003906 9.945312 L 16.003906 4.003906 C 16.003906 2.894531 15.113281 2.003906 14.003906 2.003906 Z M 2.007812 4.003906 L 8.007812 7.003906 L 14.003906 4.003906 L 14.003906 6.003906 L 8.007812 9.003906 L 2.007812 6.003906 Z M 13.4375 7.941406 C 12.605469 7.941406 11.9375 8.613281 11.9375 9.441406 L 11.9375 10.941406 L 10.9375 10.941406 L 10.9375 13.941406 L 15.9375 13.941406 L 15.9375 10.941406 L 14.9375 10.941406 L 14.9375 9.441406 C 14.9375 8.613281 14.265625 7.941406 13.4375 7.941406 Z M 13.4375 8.941406 C 13.710938 8.941406 13.9375 9.164062 13.9375 9.441406 L 13.9375 10.941406 L 12.9375 10.941406 L 12.9375 9.441406 C 12.9375 9.164062 13.160156 8.941406 13.4375 8.941406 Z M 13.4375 8.941406 "/></g></svg>
