<svg xmlns="http://www.w3.org/2000/svg" xmlns:xlink="http://www.w3.org/1999/xlink" width="16" height="16" viewBox="0 0 16 16" version="1.1"><defs><linearGradient id="linear0" x1="0%" x2="100%" y1="0%" y2="100%"><stop offset="0%" style="stop-color:#e5ff00; stop-opacity:1"/><stop offset="50%" style="stop-color:#0073ff; stop-opacity:1"/><stop offset="100%" style="stop-color:#ff0000; stop-opacity:1"/></linearGradient></defs><g id="surface1"><path style=" stroke:none;fill-rule:nonzero;fill:url(#linear0);fill-opacity:1;" d="M 2 2 C 0.890625 2 0 2.890625 0 4 L 0 12 C 0 13.109375 0.890625 14 2 14 L 14 14 C 15.109375 14 16 13.109375 16 12 L 16 4 C 16 2.890625 15.109375 2 14 2 Z M 7 4.996094 L 9 4.996094 L 9 6.996094 L 11 6.996094 L 11 8.996094 L 9 8.996094 L 9 10.996094 L 7 10.996094 L 7 8.996094 L 5 8.996094 L 5 6.996094 L 7 6.996094 Z M 7 4.996094 "/></g></svg>
