<svg xmlns="http://www.w3.org/2000/svg" xmlns:xlink="http://www.w3.org/1999/xlink" width="16" height="16" viewBox="0 0 16 16" version="1.1"><defs><linearGradient id="linear0" x1="0%" x2="100%" y1="0%" y2="100%"><stop offset="0%" style="stop-color:#ff0000; stop-opacity:1"/><stop offset="50%" style="stop-color:#ffd000; stop-opacity:1"/><stop offset="100%" style="stop-color:#ff00bb; stop-opacity:1"/></linearGradient></defs><g id="surface1"><path style=" stroke:none;fill-rule:nonzero;fill:url(#linear0);fill-opacity:1;" d="M 2 2 C 0.890625 2 0 2.890625 0 4 L 0 12 C 0 13.109375 0.890625 14 2 14 L 9.601562 14 L 9.601562 8.199219 L 8 9 L 2 6 L 2 4 L 8 7 L 14 4 L 14 6 L 12.5625 6.71875 C 12.660156 6.761719 12.753906 6.816406 12.839844 6.882812 L 16 9.25 L 16 4 C 16 2.890625 15.109375 2 14 2 Z M 11 8 L 11 14 L 12 14 L 12 12 L 16 11 L 12 8 Z M 11 8 "/></g></svg>
