<svg xmlns="http://www.w3.org/2000/svg" xmlns:xlink="http://www.w3.org/1999/xlink" width="16" height="16" viewBox="0 0 16 16" version="1.1"><defs><linearGradient id="linear0" x1="0%" x2="0%" y1="0%" y2="100%"><stop offset="0%" style="stop-color:#00b54e; stop-opacity:1"/><stop offset="50%" style="stop-color:#ffd000; stop-opacity:1"/><stop offset="100%" style="stop-color:#ff00bb; stop-opacity:1"/></linearGradient></defs><g id="surface1"><path style=" stroke:none;fill-rule:nonzero;fill:url(#linear0);fill-opacity:1;" d="M 3 2 C 2.449219 2 2 2.449219 2 3 C 2 3.550781 2.449219 4 3 4 C 3.550781 4 4 3.550781 4 3 C 4 2.449219 3.550781 2 3 2 Z M 5 2 L 5 3 L 13 3 L 13 2 Z M 5 4 L 5 5 L 11 5 L 11 4 Z M 10 7 L 10 10 L 7 10 L 7 11 L 10 11 L 10 14 L 11 14 L 11 11 L 14 11 L 14 10 L 11 10 L 11 7 Z M 3 8 C 2.449219 8 2 8.449219 2 9 C 2 9.550781 2.449219 10 3 10 C 3.550781 10 4 9.550781 4 9 C 4 8.449219 3.550781 8 3 8 Z M 3 8 "/></g></svg>
