<svg xmlns="http://www.w3.org/2000/svg" xmlns:xlink="http://www.w3.org/1999/xlink" width="16" height="16" viewBox="0 0 16 16" version="1.1"><defs><linearGradient id="linear0" x1="0%" x2="100%" y1="0%" y2="100%"><stop offset="0%" style="stop-color:#ff0000; stop-opacity:1"/><stop offset="50%" style="stop-color:#ffd000; stop-opacity:1"/><stop offset="100%" style="stop-color:#ff00bb; stop-opacity:1"/></linearGradient></defs><g id="surface1"><path style=" stroke:none;fill-rule:nonzero;fill:url(#linear0);fill-opacity:1;" d="M 13 2 C 12.449219 2 12 2.449219 12 3 C 12 3.550781 12.449219 4 13 4 C 13.550781 4 14 3.550781 14 3 C 14 2.449219 13.550781 2 13 2 Z M 7 3 C 5.34375 3 4 4.34375 4 6 C 4 7.65625 5.34375 9 7 9 C 8.65625 9 10 7.65625 10 6 C 10 4.34375 8.65625 3 7 3 Z M 13 5 C 12.449219 5 12 5.449219 12 6 C 12 6.550781 12.449219 7 13 7 C 13.550781 7 14 6.550781 14 6 C 14 5.449219 13.550781 5 13 5 Z M 13 8 C 12.449219 8 12 8.449219 12 9 C 12 9.550781 12.449219 10 13 10 C 13.550781 10 14 9.550781 14 9 C 14 8.449219 13.550781 8 13 8 Z M 7 10 C 1 10.003906 1 14 1 14 L 1 15 L 13 15 L 13 14 C 13 14 13 9.996094 7 10 Z M 7 10 "/></g></svg>
