<svg xmlns="http://www.w3.org/2000/svg" xmlns:xlink="http://www.w3.org/1999/xlink" width="16" height="16" viewBox="0 0 16 16" version="1.1"><defs><linearGradient id="linear0" x1="0%" x2="100%" y1="0%" y2="100%"><stop offset="0%" style="stop-color:#e5ff00; stop-opacity:1"/><stop offset="50%" style="stop-color:#0073ff; stop-opacity:1"/><stop offset="100%" style="stop-color:#ff0000; stop-opacity:1"/></linearGradient></defs><g id="surface1"><path style=" stroke:none;fill-rule:nonzero;fill:url(#linear0);fill-opacity:1;" d="M 1 1 C 0.449219 1 0 1.449219 0 2 L 0 6 C 0 6.550781 0.449219 7 1 7 L 6 7 L 6 9 L 1 9 C 0.449219 9 0 9.449219 0 10 L 0 14 C 0 14.550781 0.449219 15 1 15 L 8 15 C 8.550781 15 9 14.550781 9 14 L 9 11 L 14 11 C 14.550781 11 15 10.550781 15 10 L 15 6 C 15 5.449219 14.550781 5 14 5 L 9 5 L 9 2 C 9 1.449219 8.550781 1 8 1 Z M 1 1 "/></g></svg>
