<svg xmlns="http://www.w3.org/2000/svg" xmlns:xlink="http://www.w3.org/1999/xlink" width="16" height="16" viewBox="0 0 16 16" version="1.1"><defs><linearGradient id="linear0" x1="0%" x2="100%" y1="0%" y2="100%"><stop offset="0%" style="stop-color:#ff0000; stop-opacity:1"/><stop offset="50%" style="stop-color:#ffd000; stop-opacity:1"/><stop offset="100%" style="stop-color:#ff00bb; stop-opacity:1"/></linearGradient></defs><g id="surface1"><path style=" stroke:none;fill-rule:nonzero;fill:url(#linear0);fill-opacity:1;" d="M 2 2 L 2 3 L 7 3 L 7 2 Z M 9 2 L 9 3 L 14 3 L 14 2 Z M 2 5 L 2 6 L 7 6 L 7 5 Z M 9 5 L 9 6 L 14 6 L 14 5 Z M 5 11 C 5 12.109375 5.890625 13 7 13 L 12 13 L 12 14 L 14 12.5 L 12 11 L 12 12 L 7 12 C 6.445312 12 6 11.554688 6 11 Z M 5 11 "/><path style=" stroke:none;fill-rule:nonzero;fill:rgb(23.921569%,68.235296%,91.37255%);fill-opacity:1;" d="M 7 7 L 5 8.5 L 7 10 L 7 9 L 12 9 C 12.554688 9 13 9.445312 13 10 L 14 10 C 14 8.890625 13.109375 8 12 8 L 7 8 Z M 7 7 "/></g></svg>
