<svg xmlns="http://www.w3.org/2000/svg" xmlns:xlink="http://www.w3.org/1999/xlink" width="16" height="16" viewBox="0 0 16 16" version="1.1"><defs><linearGradient id="linear0" x1="0%" x2="100%" y1="0%" y2="100%"><stop offset="0%" style="stop-color:#e5ff00; stop-opacity:1"/><stop offset="50%" style="stop-color:#0073ff; stop-opacity:1"/><stop offset="100%" style="stop-color:#ff0000; stop-opacity:1"/></linearGradient></defs><g id="surface1"><path style=" stroke:none;fill-rule:nonzero;fill:url(#linear0);fill-opacity:1;" d="M 2 2 C 2 2 1 2 1 3 L 1 12 C 1 13 2 13 2 13 L 4 13 L 5 14 L 11 14 L 12 13 L 14 13 C 14 13 15 13.128906 15 12 L 15 3 C 15 2 14 2 14 2 Z M 3 4 L 13 4 L 13 11 L 11 11 L 10 12 L 6 12 L 5 11 L 3 11 Z M 3 4 "/><path style=" stroke:none;fill-rule:nonzero;fill:url(#linear0);fill-opacity:1;" d="M 5 6 L 7 6 L 7 9 L 5 9 Z M 5 6 "/><path style=" stroke:none;fill-rule:nonzero;fill:url(#linear0);fill-opacity:1;" d="M 9 6 L 11 6 L 11 9 L 9 9 Z M 9 6 "/></g></svg>
