<svg xmlns="http://www.w3.org/2000/svg" xmlns:xlink="http://www.w3.org/1999/xlink" width="16" height="16" viewBox="0 0 16 16" version="1.1"><defs><linearGradient id="linear0" x1="0%" x2="100%" y1="0%" y2="100%"><stop offset="0%" style="stop-color:#e5ff00; stop-opacity:1"/><stop offset="50%" style="stop-color:#0073ff; stop-opacity:1"/><stop offset="100%" style="stop-color:#ff0000; stop-opacity:1"/></linearGradient></defs><g id="surface1"><path style=" stroke:none;fill-rule:nonzero;fill:url(#linear0);fill-opacity:1;" d="M 0 1 L 0 15 C 3.472656 15 6.949219 15 10.421875 15 L 10.292969 14.875 C 9.902344 14.484375 9.902344 13.851562 10.292969 13.457031 L 10.75 13 L 1 13 L 1 12 L 10.75 12 L 10.292969 11.542969 C 9.902344 11.148438 9.902344 10.515625 10.292969 10.125 L 10.421875 10 L 9 10 L 9 9 L 15 9 L 15 9.015625 C 15.320312 8.960938 15.644531 9.066406 15.875 9.292969 L 16 9.421875 L 16 1.003906 C 10.667969 1.007812 5.332031 0.996094 0 1 Z M 6 3 L 6 9.996094 L 1 10 L 1 3.003906 Z M 9 3 L 15 3 L 15 4 L 9 4 Z M 9 6 L 15 6 L 15 7 L 9 7 Z M 11.832031 10 L 11 10.832031 L 12.667969 12.5 L 11 14.167969 L 11.832031 15 L 13.5 13.332031 L 15.167969 15 L 16 14.167969 L 14.332031 12.5 L 16 10.832031 L 15.167969 10 L 13.5 11.667969 Z M 11.832031 10 "/></g></svg>
