<svg xmlns="http://www.w3.org/2000/svg" xmlns:xlink="http://www.w3.org/1999/xlink" width="16" height="16" viewBox="0 0 16 16" version="1.1"><defs><linearGradient id="linear0" x1="0%" x2="100%" y1="0%" y2="100%"><stop offset="0%" style="stop-color:#ff0000; stop-opacity:1"/><stop offset="50%" style="stop-color:#ffd000; stop-opacity:1"/><stop offset="100%" style="stop-color:#ff00bb; stop-opacity:1"/></linearGradient></defs><g id="surface1"><path style=" stroke:none;fill-rule:nonzero;fill:url(#linear0);fill-opacity:1;" d="M 14.53125 2.007812 C 14.390625 2.011719 14.261719 2.078125 14.171875 2.1875 C 14.082031 2.296875 14.042969 2.441406 14.0625 2.578125 C 14.285156 4.199219 14.019531 6.363281 13.015625 8.0625 C 12.363281 9.160156 11.421875 10.074219 10.074219 10.589844 L 10.074219 8.992188 L 5.070312 8.992188 L 5.070312 10.65625 C 3.640625 10.171875 2.671875 9.253906 2.023438 8.132812 C 1.0625 6.46875 0.851562 4.339844 1.097656 2.71875 C 1.128906 2.539062 1.058594 2.359375 0.921875 2.242188 C 0.78125 2.128906 0.589844 2.101562 0.421875 2.167969 C 0.253906 2.234375 0.132812 2.386719 0.109375 2.5625 C -0.171875 4.394531 0.0507812 6.710938 1.15625 8.632812 C 1.953125 10.007812 3.246094 11.152344 5.070312 11.691406 L 5.070312 13.996094 L 10.074219 13.996094 L 10.074219 11.621094 C 11.8125 11.046875 13.074219 9.921875 13.875 8.570312 C 15.027344 6.625 15.304688 4.277344 15.054688 2.445312 C 15.023438 2.183594 14.792969 1.992188 14.53125 2.007812 Z M 14.53125 2.007812 "/></g></svg>
