<svg xmlns="http://www.w3.org/2000/svg" xmlns:xlink="http://www.w3.org/1999/xlink" width="16" height="16" viewBox="0 0 16 16" version="1.1"><defs><linearGradient id="linear0" x1="0%" x2="0%" y1="0%" y2="100%"><stop offset="0%" style="stop-color:#00b54e; stop-opacity:1"/><stop offset="50%" style="stop-color:#ffd000; stop-opacity:1"/><stop offset="100%" style="stop-color:#ff00bb; stop-opacity:1"/></linearGradient></defs><g id="surface1"><path style=" stroke:none;fill-rule:nonzero;fill:url(#linear0);fill-opacity:1;" d="M 15.496094 0.996094 C 15.238281 1 15.027344 1.199219 15.007812 1.457031 C 14.617188 5.589844 12.769531 8.257812 9.90625 10.40625 L 7.578125 8.082031 C 7.457031 7.460938 7.304688 6.820312 7.078125 6.160156 C 6.625 4.839844 5.9375 3.554688 4.875 2.59375 C 3.808594 1.628906 2.355469 1.003906 0.5 1.003906 C 0.320312 1 0.152344 1.097656 0.0625 1.25 C -0.03125 1.40625 -0.03125 1.601562 0.0625 1.757812 C 0.152344 1.910156 0.320312 2.007812 0.5 2.003906 C 2.136719 2.003906 3.304688 2.523438 4.203125 3.335938 C 5.097656 4.144531 5.714844 5.269531 6.132812 6.484375 C 6.398438 7.257812 6.558594 8.050781 6.683594 8.820312 L 4 11.503906 L 7.5 15.003906 L 11 11.503906 L 10.648438 11.152344 C 13.617188 8.855469 15.59375 5.898438 16.003906 1.550781 C 16.019531 1.40625 15.972656 1.265625 15.875 1.160156 C 15.777344 1.050781 15.640625 0.992188 15.496094 0.996094 Z M 15.496094 0.996094 "/></g></svg>
