<svg xmlns="http://www.w3.org/2000/svg" xmlns:xlink="http://www.w3.org/1999/xlink" width="16" height="16" viewBox="0 0 16 16" version="1.1"><defs><linearGradient id="linear0" x1="0%" x2="0%" y1="0%" y2="100%"><stop offset="0%" style="stop-color:#00b54e; stop-opacity:1"/><stop offset="50%" style="stop-color:#0073ff; stop-opacity:1"/><stop offset="100%" style="stop-color:#ffd000; stop-opacity:1"/></linearGradient></defs><g id="surface1"><path style=" stroke:none;fill-rule:nonzero;fill:url(#linear0);fill-opacity:1;" d="M 0 0 L 0 5 L 1.5 3.5 L 3.5 5.5 L 2 7 L 7 7 L 7 2 L 5.5 3.5 L 3.5 1.5 L 5 0 Z M 11 0 L 12.5 1.5 L 10.5 3.5 L 9 2 L 9 7 L 14 7 L 12.5 5.5 L 14.5 3.5 L 16 5 L 16 0 Z M 2 9 L 3.5 10.5 L 1.5 12.5 L 0 11 L 0 16 L 5 16 L 3.5 14.5 L 5.5 12.5 L 7 14 L 7 9 Z M 9 9 L 9 14 L 10.5 12.5 L 12.5 14.5 L 11 16 L 16 16 L 16 11 L 14.5 12.5 L 12.5 10.5 L 14 9 Z M 9 9 "/></g></svg>
