<svg xmlns="http://www.w3.org/2000/svg" xmlns:xlink="http://www.w3.org/1999/xlink" width="16" height="16" viewBox="0 0 16 16" version="1.1"><defs><linearGradient id="linear0" x1="0%" x2="0%" y1="0%" y2="100%"><stop offset="0%" style="stop-color:#00b54e; stop-opacity:1"/><stop offset="50%" style="stop-color:#ffd000; stop-opacity:1"/><stop offset="100%" style="stop-color:#ff00bb; stop-opacity:1"/></linearGradient></defs><g id="surface1"><path style=" stroke:none;fill-rule:nonzero;fill:url(#linear0);fill-opacity:1;" d="M 3 1 C 1.890625 1 1 1.890625 1 3 L 1 5 L 3 5 L 3 3 L 5 3 L 5 1 Z M 11 1 L 11 3 L 13 3 L 13 5 L 15 5 L 15 3 C 15 1.890625 14.109375 1 13 1 Z M 6 4 C 4.894531 4 4 4.894531 4 6 C 4 7.105469 4.894531 8 6 8 C 7.105469 8 8 7.105469 8 6 C 8 4.894531 7.105469 4 6 4 Z M 9 4 L 9 8 L 12 8 L 12 4 Z M 5 9 L 5 12 L 7 12 L 7 9 Z M 10.5 9 L 9 12 L 12 12 Z M 1 11 L 1 13 C 1 14.109375 1.890625 15 3 15 L 5 15 L 5 13 L 3 13 L 3 11 Z M 13 11 L 13 13 L 11 13 L 11 15 L 13 15 C 14.109375 15 15 14.109375 15 13 L 15 11 Z M 13 11 "/></g></svg>
