<svg xmlns="http://www.w3.org/2000/svg" xmlns:xlink="http://www.w3.org/1999/xlink" width="16" height="16" viewBox="0 0 16 16" version="1.1"><defs><linearGradient id="linear0" x1="0%" x2="0%" y1="0%" y2="100%"><stop offset="0%" style="stop-color:#00b54e; stop-opacity:1"/><stop offset="50%" style="stop-color:#0073ff; stop-opacity:1"/><stop offset="100%" style="stop-color:#ffd000; stop-opacity:1"/></linearGradient></defs><g id="surface1"><path style=" stroke:none;fill-rule:nonzero;fill:url(#linear0);fill-opacity:1;" d="M 2 2 L 2 4.996094 L 1.007812 4.996094 L 1.007812 5.007812 L 2 5.007812 L 2 14 L 14 14 L 14 13 L 3 13 L 3 5.007812 L 7.46875 5.007812 L 4.46875 8.007812 L 3.007812 8.007812 L 3.007812 9.007812 L 4.882812 9.007812 L 9.007812 4.882812 L 11.128906 7.007812 L 11.136719 7 L 11.140625 7.007812 L 13.96875 4.179688 C 13.96875 4.183594 13.261719 3.46875 13.261719 3.46875 L 11.136719 5.59375 L 9.007812 3.46875 L 9.007812 3.472656 L 9.003906 3.46875 L 7.476562 4.996094 L 3 4.996094 L 3 2 Z M 7.601562 9 L 5.601562 11 L 3.007812 11 L 3.007812 12 L 6.007812 12 L 6.007812 11.992188 L 6.015625 12 L 8.015625 10 L 9.605469 10 L 11.605469 12 L 14.003906 12 L 14.003906 11 L 12.019531 11 L 10.019531 9 Z M 7.601562 9 "/></g></svg>
