<svg xmlns="http://www.w3.org/2000/svg" xmlns:xlink="http://www.w3.org/1999/xlink" width="16" height="16" viewBox="0 0 16 16" version="1.1"><defs><linearGradient id="linear0" x1="0%" x2="0%" y1="0%" y2="100%"><stop offset="0%" style="stop-color:#00b54e; stop-opacity:1"/><stop offset="50%" style="stop-color:#ffd000; stop-opacity:1"/><stop offset="100%" style="stop-color:#ff00bb; stop-opacity:1"/></linearGradient></defs><g id="surface1"><path style=" stroke:none;fill-rule:nonzero;fill:url(#linear0);fill-opacity:1;" d="M 7.5 2 C 7.222656 2 7 2.222656 7 2.5 C 7 2.777344 7.222656 3 7.5 3 C 7.777344 3 8 2.777344 8 2.5 C 8 2.222656 7.777344 2 7.5 2 Z M 2.5 3 C 2.222656 3 2 3.222656 2 3.5 C 2 3.777344 2.222656 4 2.5 4 C 2.777344 4 3 3.777344 3 3.5 C 3 3.222656 2.777344 3 2.5 3 Z M 7 3 C 5.097656 3 3.414062 3.878906 2.3125 5.25 L 5.445312 7.753906 C 5.808594 7.296875 6.367188 7 7 7 Z M 7 4.5 C 7 4.777344 7.222656 5 7.5 5 C 7.777344 5 8 4.777344 8 4.5 C 8 4.222656 7.777344 4 7.5 4 C 7.222656 4 7 4.222656 7 4.5 Z M 7 6.5 C 7 6.777344 7.222656 7 7.5 7 C 7.777344 7 8 6.777344 8 6.5 C 8 6.222656 7.777344 6 7.5 6 C 7.222656 6 7 6.222656 7 6.5 Z M 10.707031 3.0625 L 8.058594 7.304688 C 8.578125 7.632812 8.929688 8.1875 8.984375 8.835938 L 13.96875 8.417969 C 13.785156 6.152344 12.53125 4.203125 10.707031 3.0625 Z M 3.5 8 C 3.222656 8 3 8.222656 3 8.5 C 3 8.777344 3.222656 9 3.5 9 C 3.777344 9 4 8.777344 4 8.5 C 4 8.222656 3.777344 8 3.5 8 Z M 5.5 8 C 5.222656 8 5 8.222656 5 8.5 C 5 8.777344 5.222656 9 5.5 9 C 5.777344 9 6 8.777344 6 8.5 C 6 8.222656 5.777344 8 5.5 8 Z M 7.5 8 C 7.222656 8 7 8.222656 7 8.5 C 7 8.777344 7.222656 9 7.5 9 C 7.777344 9 8 8.777344 8 8.5 C 8 8.222656 7.777344 8 7.5 8 Z M 7.5 10 C 7.222656 10 7 10.222656 7 10.5 C 7 10.777344 7.222656 11 7.5 11 C 7.777344 11 8 10.777344 8 10.5 C 8 10.222656 7.777344 10 7.5 10 Z M 9.5 10 C 9.222656 10 9 10.222656 9 10.5 C 9 10.777344 9.222656 11 9.5 11 C 9.777344 11 10 10.777344 10 10.5 C 10 10.222656 9.777344 10 9.5 10 Z M 5.585938 10.417969 L 3.460938 12.539062 C 4.363281 13.441406 5.613281 14 7 14 L 7 11 C 6.445312 11 5.945312 10.777344 5.585938 10.417969 Z M 7 12.5 C 7 12.777344 7.222656 13 7.5 13 C 7.777344 13 8 12.777344 8 12.5 C 8 12.222656 7.777344 12 7.5 12 C 7.222656 12 7 12.222656 7 12.5 Z M 11.5 12 C 11.222656 12 11 12.222656 11 12.5 C 11 12.777344 11.222656 13 11.5 13 C 11.777344 13 12 12.777344 12 12.5 C 12 12.222656 11.777344 12 11.5 12 Z M 11.5 12 "/></g></svg>
