<svg xmlns="http://www.w3.org/2000/svg" xmlns:xlink="http://www.w3.org/1999/xlink" width="16" height="16" viewBox="0 0 16 16" version="1.1"><defs><linearGradient id="linear0" x1="0%" x2="0%" y1="0%" y2="100%"><stop offset="0%" style="stop-color:#00b54e; stop-opacity:1"/><stop offset="50%" style="stop-color:#ffd000; stop-opacity:1"/><stop offset="100%" style="stop-color:#ff00bb; stop-opacity:1"/></linearGradient></defs><g id="surface1"><path style=" stroke:none;fill-rule:nonzero;fill:url(#linear0);fill-opacity:1;" d="M 9 13 L 13 13 L 13 6 L 10 6 L 10 3 L 6 3 L 6 2 L 11 2 L 14 5 L 14 14 L 9 14 Z M 9 13 "/><path style=" stroke:none;fill-rule:nonzero;fill:url(#linear0);fill-opacity:1;" d="M 5.003906 2.03125 C 4.441406 3.992188 3.300781 5.703125 2.183594 7.386719 C 1.542969 8.394531 0.8125 9.539062 1.050781 10.792969 C 1.308594 12.554688 2.941406 13.925781 4.695312 14.019531 C 6.496094 14.183594 8.351562 13.015625 8.851562 11.257812 C 9.117188 10.433594 9.019531 9.570312 8.636719 8.804688 C 7.867188 7.257812 6.746094 5.917969 5.964844 4.375 C 5.574219 3.625 5.246094 2.839844 5.003906 2.03125 Z M 7.769531 8.253906 C 8.167969 8.917969 8.511719 9.667969 8.421875 10.460938 C 8.320312 12.042969 6.910156 13.347656 5.355469 13.46875 C 4.523438 13.554688 3.664062 13.328125 2.980469 12.84375 C 4.804688 13.289062 6.878906 12.285156 7.582031 10.527344 C 7.886719 9.8125 7.925781 9.011719 7.769531 8.253906 Z M 7.769531 8.253906 "/></g></svg>
