<svg xmlns="http://www.w3.org/2000/svg" xmlns:xlink="http://www.w3.org/1999/xlink" width="16" height="16" viewBox="0 0 16 16" version="1.1"><defs><linearGradient id="linear0" x1="0%" x2="100%" y1="0%" y2="100%"><stop offset="0%" style="stop-color:#ff0000; stop-opacity:1"/><stop offset="50%" style="stop-color:#ffd000; stop-opacity:1"/><stop offset="100%" style="stop-color:#ff00bb; stop-opacity:1"/></linearGradient></defs><g id="surface1"><path style=" stroke:none;fill-rule:nonzero;fill:url(#linear0);fill-opacity:1;" d="M 2.5 1 C 1.667969 1 1 1.667969 1 2.5 L 1 13.5 C 1 14.332031 1.667969 15 2.5 15 L 13.5 15 C 14.332031 15 15 14.332031 15 13.5 L 15 2.5 C 15 1.667969 14.332031 1 13.5 1 Z M 11.5 3 C 12.328125 3 13 3.671875 13 4.5 C 13 5.328125 12.328125 6 11.5 6 C 10.671875 6 10 5.328125 10 4.5 C 10 3.671875 10.671875 3 11.5 3 Z M 4.5 10 C 5.328125 10 6 10.671875 6 11.5 C 6 12.328125 5.328125 13 4.5 13 C 3.671875 13 3 12.328125 3 11.5 C 3 10.671875 3.671875 10 4.5 10 Z M 4.5 10 "/></g></svg>
