<svg xmlns="http://www.w3.org/2000/svg" xmlns:xlink="http://www.w3.org/1999/xlink" width="16" height="16" viewBox="0 0 16 16" version="1.1"><defs><linearGradient id="linear0" x1="0%" x2="0%" y1="0%" y2="100%"><stop offset="0%" style="stop-color:#00b54e; stop-opacity:1"/><stop offset="50%" style="stop-color:#ffd000; stop-opacity:1"/><stop offset="100%" style="stop-color:#ff00bb; stop-opacity:1"/></linearGradient></defs><g id="surface1"><path style=" stroke:none;fill-rule:nonzero;fill:url(#linear0);fill-opacity:1;" d="M 6.980469 0 C 6.753906 0.00390625 6.535156 0.0859375 6.359375 0.230469 L 0.359375 5.230469 C -0.210938 5.707031 -0.0820312 6.625 0.605469 6.917969 L 4.363281 8.53125 L 3.023438 14.789062 C 2.820312 15.730469 3.898438 16.34375 4.613281 15.789062 L 10.539062 11.179688 L 14.605469 12.921875 C 15.84375 13.453125 16.589844 11.59375 15.394531 11.078125 L 12.347656 9.773438 L 13.613281 8.789062 C 14.746094 7.984375 13.449219 6.3125 12.386719 7.210938 L 10.246094 8.875 L 6.664062 7.339844 L 7.976562 1.210938 C 8.113281 0.578125 7.625 0 6.980469 0 Z M 5.414062 3.621094 L 4.789062 6.535156 L 2.894531 5.722656 Z M 6.238281 9.335938 L 8.445312 10.277344 L 5.550781 12.523438 Z M 6.238281 9.335938 "/></g></svg>
