<svg xmlns="http://www.w3.org/2000/svg" xmlns:xlink="http://www.w3.org/1999/xlink" width="16" height="16" viewBox="0 0 16 16" version="1.1"><defs><linearGradient id="linear0" x1="0%" x2="0%" y1="0%" y2="100%"><stop offset="0%" style="stop-color:#00b54e; stop-opacity:1"/><stop offset="50%" style="stop-color:#ffd000; stop-opacity:1"/><stop offset="100%" style="stop-color:#ff00bb; stop-opacity:1"/></linearGradient></defs><g id="surface1"><path style=" stroke:none;fill-rule:nonzero;fill:url(#linear0);fill-opacity:1;" d="M 4.5 4 C 2.015625 4 0 6.015625 0 8.5 C 0 10.984375 2.015625 13 4.5 13 C 6.40625 12.996094 8.101562 11.796875 8.734375 10 L 12 9.996094 L 12 11.996094 L 15 11.996094 L 15 9.992188 L 16 9.996094 L 16 6.996094 L 8.734375 7 C 8.101562 5.203125 6.40625 4.003906 4.5 4 Z M 4.5 7 C 5.328125 7 6 7.671875 6 8.5 C 6 9.328125 5.328125 10 4.5 10 C 3.671875 10 3 9.328125 3 8.5 C 3 7.671875 3.671875 7 4.5 7 Z M 4.5 7 "/></g></svg>
