<svg xmlns="http://www.w3.org/2000/svg" xmlns:xlink="http://www.w3.org/1999/xlink" width="16" height="16" viewBox="0 0 16 16" version="1.1"><defs><linearGradient id="linear0" x1="0%" x2="100%" y1="0%" y2="100%"><stop offset="0%" style="stop-color:#e5ff00; stop-opacity:1"/><stop offset="50%" style="stop-color:#0073ff; stop-opacity:1"/><stop offset="100%" style="stop-color:#ff0000; stop-opacity:1"/></linearGradient></defs><g id="surface1"><path style=" stroke:none;fill-rule:nonzero;fill:url(#linear0);fill-opacity:1;" d="M 12 0.00390625 C 10.34375 0.00390625 9 1.347656 9 3.003906 C 9 3.234375 9.042969 3.445312 9.09375 3.660156 L 5.875 5.660156 C 5.363281 5.25 4.710938 5.003906 4 5.003906 C 2.34375 5.003906 1 6.347656 1 8.003906 C 1 9.660156 2.34375 11.003906 4 11.003906 C 4.710938 11.003906 5.363281 10.757812 5.875 10.347656 L 9.09375 12.347656 C 9.042969 12.5625 9 12.773438 9 13.003906 C 9 14.660156 10.34375 16.003906 12 16.003906 C 13.65625 16.003906 15 14.660156 15 13.003906 C 15 11.347656 13.65625 10.003906 12 10.003906 C 11.289062 10.003906 10.636719 10.25 10.125 10.660156 L 6.90625 8.660156 C 6.957031 8.445312 7 8.234375 7 8.003906 C 7 7.773438 6.957031 7.5625 6.90625 7.347656 L 10.125 5.347656 C 10.636719 5.757812 11.289062 6.003906 12 6.003906 C 13.65625 6.003906 15 4.660156 15 3.003906 C 15 1.347656 13.65625 0.00390625 12 0.00390625 Z M 12 0.00390625 "/></g></svg>
