<svg xmlns="http://www.w3.org/2000/svg" xmlns:xlink="http://www.w3.org/1999/xlink" width="16" height="16" viewBox="0 0 16 16" version="1.1"><defs><linearGradient id="linear0" x1="0%" x2="100%" y1="0%" y2="100%"><stop offset="0%" style="stop-color:#ff0000; stop-opacity:1"/><stop offset="50%" style="stop-color:#ffd000; stop-opacity:1"/><stop offset="100%" style="stop-color:#ff00bb; stop-opacity:1"/></linearGradient></defs><g id="surface1"><path style=" stroke:none;fill-rule:nonzero;fill:url(#linear0);fill-opacity:1;" d="M 1 1 L 1 3 L 15 3 L 15 1 Z M 9 5 L 9 15 L 11 15 L 11 12 L 13 12 L 13 15 L 15 15 L 15 5 Z M 1 5.003906 L 1 7.003906 L 7 7.003906 L 7 5.003906 Z M 11 7 L 13 7 L 13 10 L 11 10 Z M 1 9.003906 L 1 11.003906 L 7 11.003906 L 7 9.003906 Z M 1 13 L 1 15 L 7 15 L 7 13 Z M 1 13 "/></g></svg>
