<svg xmlns="http://www.w3.org/2000/svg" xmlns:xlink="http://www.w3.org/1999/xlink" width="16" height="16" viewBox="0 0 16 16" version="1.1"><defs><linearGradient id="linear0" x1="0%" x2="0%" y1="0%" y2="100%"><stop offset="0%" style="stop-color:#00b54e; stop-opacity:1"/><stop offset="50%" style="stop-color:#ffd000; stop-opacity:1"/><stop offset="100%" style="stop-color:#ff00bb; stop-opacity:1"/></linearGradient></defs><g id="surface1"><path style=" stroke:none;fill-rule:nonzero;fill:url(#linear0);fill-opacity:1;" d="M 6.5 1 C 5.699219 1 5 1.648438 5 2.449219 L 5 4 L 1.964844 4 C 1.429688 4 1 4.328125 1 4.859375 L 1 8 L 2.449219 8 C 3.25 8 4 8.699219 4 9.5 C 4 10.300781 3.25 11 2.449219 11 L 1 11 L 1 14.03125 C 1 14.566406 1.429688 15 1.964844 15 L 5 15 L 5 14.03125 C 5 13.230469 5.015625 12.039062 6.5 12 C 7.984375 11.960938 8 13.292969 8 14.03125 L 8 15 L 11.140625 15 C 11.671875 15 12 14.566406 12 14.03125 L 12 11 L 13.550781 11 C 14.355469 11 15 10.300781 15 9.5 C 15 8.699219 14.347656 8.125 13.550781 8 L 12 8 L 12 4.859375 C 12 4.328125 11.671875 4 11.140625 4 L 8 4 L 8 2.449219 C 8 1.648438 7.300781 1 6.5 1 Z M 6.5 1 "/></g></svg>
