<svg xmlns="http://www.w3.org/2000/svg" xmlns:xlink="http://www.w3.org/1999/xlink" width="16" height="16" viewBox="0 0 16 16" version="1.1"><defs><linearGradient id="linear0" x1="0%" x2="100%" y1="0%" y2="100%"><stop offset="0%" style="stop-color:#ff0000; stop-opacity:1"/><stop offset="50%" style="stop-color:#ffd000; stop-opacity:1"/><stop offset="100%" style="stop-color:#ff00bb; stop-opacity:1"/></linearGradient></defs><g id="surface1"><path style=" stroke:none;fill-rule:nonzero;fill:url(#linear0);fill-opacity:1;" d="M 4 0 L 4 3 L 12 3 L 12 0 Z M 2 4 C 1.5 4 1 4.5 1 5 L 1 8 L 15 8 L 15 5 C 15 4.5 14.5 4 14 4 Z M 1 9 L 1 12 C 1 12 1 13 2 13 L 7 13 L 7 15 L 9 15 L 9 13 L 14 13 C 15 13 15 12 15 12 L 15 9 Z M 3 10 L 4 10 L 4 11 L 3 11 Z M 3 10 "/></g></svg>
