<svg xmlns="http://www.w3.org/2000/svg" xmlns:xlink="http://www.w3.org/1999/xlink" width="16" height="16" viewBox="0 0 16 16" version="1.1"><defs><linearGradient id="linear0" x1="0%" x2="0%" y1="0%" y2="100%"><stop offset="0%" style="stop-color:#00b54e; stop-opacity:1"/><stop offset="50%" style="stop-color:#ffd000; stop-opacity:1"/><stop offset="100%" style="stop-color:#ff00bb; stop-opacity:1"/></linearGradient></defs><g id="surface1"><path style=" stroke:none;fill-rule:nonzero;fill:url(#linear0);fill-opacity:1;" d="M 2 1 C 1 1 1 2 1 2 L 1 14 C 1 15 2 15 2 15 L 9 15 L 9 13 L 3 13 L 3 6 L 13 6 L 13 9 L 15 9 L 15 2 C 15 1 14 1 14 1 Z M 12 9 L 11.425781 10.613281 L 9.878906 9.878906 L 10.613281 11.425781 L 9.003906 12 L 10.617188 12.574219 L 9.882812 14.121094 L 11.429688 13.386719 L 12 15 L 12.566406 13.386719 L 14.121094 14.121094 L 13.390625 12.574219 L 15 12 L 13.390625 11.425781 L 14.121094 9.878906 L 12.566406 10.613281 Z M 12 9 "/></g></svg>
