<svg xmlns="http://www.w3.org/2000/svg" xmlns:xlink="http://www.w3.org/1999/xlink" width="16" height="16" viewBox="0 0 16 16" version="1.1"><defs><linearGradient id="linear0" x1="0%" x2="100%" y1="0%" y2="100%"><stop offset="0%" style="stop-color:#ff0000; stop-opacity:1"/><stop offset="50%" style="stop-color:#ffd000; stop-opacity:1"/><stop offset="100%" style="stop-color:#ff00bb; stop-opacity:1"/></linearGradient></defs><g id="surface1"><path style=" stroke:none;fill-rule:nonzero;fill:url(#linear0);fill-opacity:1;" d="M 3 1.003906 C 3 1.003906 2 1.003906 2 2.003906 L 2 11.003906 C 2 11.003906 2 12.003906 3 12.003906 L 4 12.003906 L 4 3.003906 L 12 3.003906 L 12 2.003906 C 12 1.003906 11 1.003906 11 1.003906 Z M 6 4.003906 C 6 4.003906 5 4.003906 5 5.003906 L 5 15.003906 C 5 16.003906 6 16.003906 6 16.003906 L 14 16.003906 C 14 16.003906 15 16.003906 15 15 L 15 5.003906 C 15 4.003906 14 4.003906 14 4.003906 Z M 7 6.003906 L 13 6.003906 L 13 14.003906 L 7 14.003906 Z M 7 6.003906 "/></g></svg>
