<svg xmlns="http://www.w3.org/2000/svg" xmlns:xlink="http://www.w3.org/1999/xlink" width="16" height="16" viewBox="0 0 16 16" version="1.1"><defs><linearGradient id="linear0" x1="0%" x2="100%" y1="0%" y2="100%"><stop offset="0%" style="stop-color:#ff0000; stop-opacity:1"/><stop offset="50%" style="stop-color:#ffd000; stop-opacity:1"/><stop offset="100%" style="stop-color:#ff00bb; stop-opacity:1"/></linearGradient></defs><g id="surface1"><path style=" stroke:none;fill-rule:nonzero;fill:url(#linear0);fill-opacity:1;" d="M 3.003906 1 C 0.753906 1 1.003906 3 1.003906 3 L 1.003906 15 L 7 15 L 7 13 L 3.003906 13 L 3.003906 3 L 13.003906 3 L 13.003906 7 L 15 7 L 15.003906 3 C 15.003906 1 13.003906 1 13.003906 1 Z M 4.003906 4 L 4.003906 6 L 6.003906 6 L 6.003906 4 Z M 7.003906 4 L 7.003906 6 L 9.003906 6 L 9.003906 4 Z M 10.003906 4 L 10.003906 6 L 12.003906 6 L 12.003906 4 Z M 4.003906 7 L 4.003906 9 L 6.003906 9 L 6.003906 7 Z M 11 9 L 11 11 L 9 11 L 9 13 L 11 13 L 11 15 L 13 15 L 13 13 L 15 13 L 15 11 L 13 11 L 13 9 Z M 4.003906 10 L 4.003906 12 L 6.003906 12 L 6.003906 10 Z M 4.003906 10 "/></g></svg>
