<svg xmlns="http://www.w3.org/2000/svg" xmlns:xlink="http://www.w3.org/1999/xlink" width="16" height="16" viewBox="0 0 16 16" version="1.1"><defs><linearGradient id="linear0" x1="0%" x2="100%" y1="0%" y2="100%"><stop offset="0%" style="stop-color:#e5ff00; stop-opacity:1"/><stop offset="50%" style="stop-color:#0073ff; stop-opacity:1"/><stop offset="100%" style="stop-color:#ff0000; stop-opacity:1"/></linearGradient></defs><g id="surface1"><path style=" stroke:none;fill-rule:nonzero;fill:url(#linear0);fill-opacity:1;" d="M 6 2 C 4.34375 2 3 3.34375 3 5 C 3 6.65625 4.34375 8 6 8 C 7.65625 8 9 6.65625 9 5 C 9 3.34375 7.65625 2 6 2 Z M 11 3.953125 C 10.613281 3.953125 10.246094 4.039062 9.914062 4.1875 C 9.96875 4.453125 10 4.722656 10 5 C 10 6.101562 9.546875 7.105469 8.816406 7.828125 C 9.277344 8.535156 10.078125 9.003906 11 9.003906 C 12.433594 9.003906 13.59375 7.875 13.59375 6.476562 C 13.59375 5.082031 12.433594 3.953125 11 3.953125 Z M 6 10 C 0 10.003906 0 14.003906 0 14.003906 L 0 15.003906 C 0.878906 15.007812 13.515625 15 10 15 C 9.449219 15 9 14.550781 9 14 L 9 12 C 9 11.449219 9.449219 11 10 11 L 10.15625 11 C 9.265625 10.425781 7.957031 10 6 10 Z M 12 10 L 12 12 L 10 12 L 10 14 L 12 14 L 12 16 L 14 16 L 14 14 L 16 14 L 16 12 L 14 12 L 14 10 Z M 12 10 "/></g></svg>
