<svg xmlns="http://www.w3.org/2000/svg" xmlns:xlink="http://www.w3.org/1999/xlink" width="16" height="16" viewBox="0 0 16 16" version="1.1"><defs><linearGradient id="linear0" x1="0%" x2="0%" y1="0%" y2="100%"><stop offset="0%" style="stop-color:#ffd000; stop-opacity:1"/><stop offset="50%" style="stop-color:#24dbdb; stop-opacity:1"/><stop offset="100%" style="stop-color:#0073ff; stop-opacity:1"/></linearGradient></defs><g id="surface1"><path style=" stroke:none;fill-rule:nonzero;fill:url(#linear0);fill-opacity:1;" d="M 12.613281 0.203125 C 12.472656 0.210938 12.339844 0.277344 12.25 0.386719 C 12.160156 0.496094 12.121094 0.640625 12.140625 0.78125 L 12.425781 2.867188 L 11.390625 3.902344 L 11.085938 1.671875 C 11.054688 1.410156 10.828125 1.21875 10.5625 1.234375 C 10.421875 1.238281 10.292969 1.304688 10.203125 1.414062 C 10.113281 1.523438 10.074219 1.667969 10.09375 1.804688 L 10.5 4.789062 L 8.789062 6.5 L 6.5 6.5 L 6.5 7.90625 L 5.269531 8.257812 L 5.007812 6.335938 C 4.976562 6.074219 4.75 5.882812 4.488281 5.898438 C 4.347656 5.902344 4.214844 5.96875 4.125 6.078125 C 4.035156 6.1875 3.996094 6.328125 4.015625 6.46875 L 4.296875 8.535156 L 2.609375 9.015625 L 2.371094 7.25 C 2.339844 6.992188 2.113281 6.800781 1.851562 6.8125 C 1.707031 6.820312 1.578125 6.886719 1.488281 6.996094 C 1.398438 7.105469 1.359375 7.246094 1.378906 7.386719 L 1.640625 9.296875 L 0.863281 9.515625 C 0.683594 9.558594 0.542969 9.695312 0.496094 9.875 C 0.449219 10.054688 0.5 10.242188 0.636719 10.367188 C 0.769531 10.496094 0.960938 10.535156 1.136719 10.480469 L 1.773438 10.296875 L 2.160156 13.128906 L 0.648438 14.644531 C 0.515625 14.769531 0.464844 14.957031 0.507812 15.132812 C 0.554688 15.304688 0.691406 15.445312 0.867188 15.488281 C 1.042969 15.535156 1.226562 15.480469 1.351562 15.351562 L 2.328125 14.375 L 2.425781 15.089844 C 2.441406 15.273438 2.558594 15.433594 2.726562 15.503906 C 2.894531 15.578125 3.089844 15.550781 3.234375 15.4375 C 3.378906 15.324219 3.449219 15.136719 3.414062 14.957031 L 3.21875 13.488281 L 4.761719 11.941406 L 5.0625 14.171875 C 5.082031 14.355469 5.199219 14.515625 5.367188 14.585938 C 5.535156 14.65625 5.730469 14.632812 5.875 14.515625 C 6.015625 14.402344 6.085938 14.21875 6.054688 14.039062 L 5.648438 11.054688 L 7.203125 9.5 L 9.5 9.5 L 9.5 8.089844 L 10.894531 7.691406 L 11.140625 9.507812 C 11.179688 9.78125 11.429688 9.976562 11.703125 9.9375 C 11.976562 9.902344 12.167969 9.652344 12.132812 9.375 L 11.863281 7.414062 L 13 7.089844 L 13.1875 8.484375 C 13.207031 8.667969 13.324219 8.824219 13.492188 8.898438 C 13.660156 8.96875 13.855469 8.941406 14 8.828125 C 14.140625 8.714844 14.210938 8.53125 14.179688 8.351562 L 13.96875 6.8125 L 15.136719 6.476562 C 15.378906 6.414062 15.535156 6.175781 15.5 5.925781 C 15.464844 5.675781 15.25 5.492188 14.996094 5.496094 C 14.949219 5.496094 14.90625 5.503906 14.863281 5.515625 L 13.835938 5.8125 L 13.484375 3.21875 L 15.355469 1.351562 C 15.5 1.207031 15.542969 0.988281 15.464844 0.800781 C 15.382812 0.609375 15.195312 0.488281 14.988281 0.492188 C 14.859375 0.496094 14.738281 0.550781 14.644531 0.644531 L 13.3125 1.976562 L 13.136719 0.644531 C 13.101562 0.382812 12.875 0.191406 12.613281 0.203125 Z M 12.59375 4.109375 L 12.863281 6.089844 L 11.730469 6.414062 L 11.558594 5.148438 Z M 10.671875 6.035156 L 10.757812 6.691406 L 9.71875 6.988281 Z M 6.28125 9.007812 L 5.480469 9.8125 L 5.40625 9.257812 Z M 4.433594 9.539062 L 4.59375 10.699219 L 3.046875 12.242188 L 2.746094 10.015625 Z M 4.433594 9.539062 "/></g></svg>
