<svg xmlns="http://www.w3.org/2000/svg" xmlns:xlink="http://www.w3.org/1999/xlink" width="16" height="16" viewBox="0 0 16 16" version="1.1"><defs><linearGradient id="linear0" x1="0%" x2="0%" y1="0%" y2="100%"><stop offset="0%" style="stop-color:#ffd000; stop-opacity:1"/><stop offset="50%" style="stop-color:#24dbdb; stop-opacity:1"/><stop offset="100%" style="stop-color:#0073ff; stop-opacity:1"/></linearGradient></defs><g id="surface1"><path style=" stroke:none;fill-rule:nonzero;fill:url(#linear0);fill-opacity:1;" d="M 8 2 C 5.230469 2 3 4.230469 3 7 L 3 14 L 7 14 L 7 7 C 7 6.445312 7.445312 6 8 6 C 8.554688 6 9 6.445312 9 7 L 9 14 L 13 14 L 13 7 C 13 4.230469 10.769531 2 8 2 Z M 8 3 C 10.214844 3 12 4.785156 12 7 L 12 13 L 10 13 L 10 7 C 10 5.890625 9.109375 5 8 5 C 6.890625 5 6 5.890625 6 7 L 6 13 L 4 13 L 4 7 C 4 4.785156 5.785156 3 8 3 Z M 8 3 "/></g></svg>
