<svg xmlns="http://www.w3.org/2000/svg" xmlns:xlink="http://www.w3.org/1999/xlink" width="16" height="16" viewBox="0 0 16 16" version="1.1"><defs><linearGradient id="linear0" x1="0%" x2="100%" y1="0%" y2="100%"><stop offset="0%" style="stop-color:#ff0000; stop-opacity:1"/><stop offset="50%" style="stop-color:#ffd000; stop-opacity:1"/><stop offset="100%" style="stop-color:#ff00bb; stop-opacity:1"/></linearGradient></defs><g id="surface1"><path style=" stroke:none;fill-rule:nonzero;fill:url(#linear0);fill-opacity:1;" d="M 6.242188 2 L 2 6.242188 L 2.007812 6.25 L 2 6.25 L 2 14 L 6 14 L 6 8.65625 L 8.65625 6 L 14 6 L 14 2 Z M 6.65625 3 L 13 3 L 13 5 L 8.242188 5 L 5 8.242188 L 5 13 L 3 13 L 3 6.65625 Z M 8 8 L 8 14 L 12 14 L 12 12 L 14 12 L 14 8 Z M 9 9 L 13 9 L 13 11 L 11 11 L 11 13 L 9 13 Z M 9 9 "/></g></svg>
