<svg xmlns="http://www.w3.org/2000/svg" xmlns:xlink="http://www.w3.org/1999/xlink" width="16" height="16" viewBox="0 0 16 16" version="1.1"><defs><linearGradient id="linear0" x1="0%" x2="0%" y1="0%" y2="100%"><stop offset="0%" style="stop-color:#ffd000; stop-opacity:1"/><stop offset="50%" style="stop-color:#24dbdb; stop-opacity:1"/><stop offset="100%" style="stop-color:#0073ff; stop-opacity:1"/></linearGradient></defs><g id="surface1"><path style=" stroke:none;fill-rule:nonzero;fill:url(#linear0);fill-opacity:1;" d="M 8 4 C 5.789062 4 4 5.789062 4 8 C 4 10.210938 5.789062 12 8 12 C 10.210938 12 12 10.210938 12 8 C 12 5.789062 10.210938 4 8 4 Z M 8 5 C 9.65625 5 11 6.34375 11 8 C 11 9.65625 9.65625 11 8 11 C 6.34375 11 5 9.65625 5 8 C 5 6.34375 6.34375 5 8 5 Z M 3 6 L 3 10 L 0 8 Z M 8 16 L 10 13 L 6 13 Z M 8 0 L 10 3 L 6 3 Z M 13 6 L 13 10 L 16 8 Z M 13 6 "/></g></svg>
