<svg xmlns="http://www.w3.org/2000/svg" xmlns:xlink="http://www.w3.org/1999/xlink" width="16" height="16" viewBox="0 0 16 16" version="1.1"><defs><linearGradient id="linear0" x1="0%" x2="0%" y1="0%" y2="100%"><stop offset="0%" style="stop-color:#00b54e; stop-opacity:1"/><stop offset="50%" style="stop-color:#ffd000; stop-opacity:1"/><stop offset="100%" style="stop-color:#ff00bb; stop-opacity:1"/></linearGradient></defs><g id="surface1"><path style=" stroke:none;fill-rule:nonzero;fill:url(#linear0);fill-opacity:1;" d="M 4 2.003906 C 4 2.003906 2 2.003906 2 4.003906 L 2 11.003906 C 2 12.003906 1 12.003906 1 12.003906 L 0 12.003906 L 0 14.003906 L 16 14.003906 L 16 12.003906 L 15 12.003906 C 15 12.003906 14 12.003906 14 11.003906 L 14 4.003906 C 14 4.003906 14 2.003906 12 2.003906 Z M 6.585938 5.175781 L 8 6.589844 L 9.414062 5.175781 L 10.828125 6.589844 L 9.414062 8.003906 L 10.828125 9.417969 L 9.414062 10.832031 L 8 9.417969 L 6.585938 10.832031 L 5.171875 9.417969 L 6.585938 8.003906 L 5.171875 6.589844 Z M 6.585938 5.175781 "/></g></svg>
