<svg xmlns="http://www.w3.org/2000/svg" xmlns:xlink="http://www.w3.org/1999/xlink" width="16" height="16" viewBox="0 0 16 16" version="1.1"><defs><linearGradient id="linear0" x1="0%" x2="0%" y1="0%" y2="100%"><stop offset="0%" style="stop-color:#00b54e; stop-opacity:1"/><stop offset="50%" style="stop-color:#0073ff; stop-opacity:1"/><stop offset="100%" style="stop-color:#ffd000; stop-opacity:1"/></linearGradient></defs><g id="surface1"><path style=" stroke:none;fill-rule:nonzero;fill:url(#linear0);fill-opacity:1;" d="M 4 1 C 4 1 2 1 2 3 L 2 8 L 9 15 L 16 8 L 9 1 Z M 8 3 C 10.214844 3 12 4.785156 12 7 C 12 9.214844 10.214844 11 8 11 C 5.785156 11 4 9.214844 4 7 C 4 4.785156 5.785156 3 8 3 Z M 8 4 C 6.339844 4 5 5.339844 5 7 C 5 8.660156 6.339844 10 8 10 C 9.660156 10 11 8.660156 11 7 C 11 5.339844 9.660156 4 8 4 Z M 7 5 L 8 5 L 8 7 L 9 7 L 9 8 L 7 8 Z M 7 5 "/></g></svg>
