<svg xmlns="http://www.w3.org/2000/svg" xmlns:xlink="http://www.w3.org/1999/xlink" width="16" height="16" viewBox="0 0 16 16" version="1.1"><defs><linearGradient id="linear0" x1="0%" x2="100%" y1="0%" y2="100%"><stop offset="0%" style="stop-color:#e5ff00; stop-opacity:1"/><stop offset="50%" style="stop-color:#0073ff; stop-opacity:1"/><stop offset="100%" style="stop-color:#ff0000; stop-opacity:1"/></linearGradient></defs><g id="surface1"><path style=" stroke:none;fill-rule:nonzero;fill:url(#linear0);fill-opacity:1;" d="M 13.050781 4.007812 L 8.082031 10.957031 L 9.050781 11.214844 L 10.3125 9.484375 L 13.652344 10.378906 L 13.878906 12.511719 L 14.84375 12.769531 L 14.019531 4.265625 Z M 13.148438 5.585938 L 13.542969 9.3125 L 10.941406 8.617188 Z M 13.148438 5.585938 "/><path style=" stroke:none;fill-rule:nonzero;fill:url(#linear0);fill-opacity:1;" d="M 7 1 L 7 12 L 0 12 L 0 13 L 7.5 13 L 15 15 L 15 14 L 8 12 L 8 1 Z M 3 3 L 0 11 L 1 11 L 1.769531 9 L 5.230469 9 L 6 11 L 7 11 L 4 3 Z M 3.5 4.5 L 4.84375 8 L 2.15625 8 Z M 3.5 4.5 "/></g></svg>
