<svg xmlns="http://www.w3.org/2000/svg" xmlns:xlink="http://www.w3.org/1999/xlink" width="16" height="16" viewBox="0 0 16 16" version="1.1"><defs><linearGradient id="linear0" x1="0%" x2="100%" y1="0%" y2="100%"><stop offset="0%" style="stop-color:#ff0000; stop-opacity:1"/><stop offset="50%" style="stop-color:#ffd000; stop-opacity:1"/><stop offset="100%" style="stop-color:#ff00bb; stop-opacity:1"/></linearGradient></defs><g id="surface1"><path style=" stroke:none;fill-rule:nonzero;fill:url(#linear0);fill-opacity:1;" d="M 0 9 L 0 10 L 7 10 L 7 16 L 16 16 L 16 15 L 8 15 L 8 9 Z M 12 5 L 9 13 L 10 13 L 10.769531 11 L 14.230469 11 L 15 13 L 16 13 L 13 5 Z M 12.5 6.5 L 13.847656 10 L 11.152344 10 Z M 3 0 L 0 8 L 1 8 L 1.769531 6 L 5.230469 6 L 6 8 L 7 8 L 4 0 Z M 3.5 1.5 L 4.84375 5 L 2.15625 5 Z M 3.5 1.5 "/></g></svg>
