<svg xmlns="http://www.w3.org/2000/svg" xmlns:xlink="http://www.w3.org/1999/xlink" width="16" height="16" viewBox="0 0 16 16" version="1.1"><defs><linearGradient id="linear0" x1="0%" x2="0%" y1="0%" y2="100%"><stop offset="0%" style="stop-color:#00b54e; stop-opacity:1"/><stop offset="50%" style="stop-color:#0073ff; stop-opacity:1"/><stop offset="100%" style="stop-color:#ffd000; stop-opacity:1"/></linearGradient></defs><g id="surface1"><path style=" stroke:none;fill-rule:nonzero;fill:url(#linear0);fill-opacity:1;" d="M 4.515625 0 C 4.375 0 4.246094 0.0585938 4.148438 0.160156 L 0.136719 4.476562 C 0.0195312 4.601562 -0.0273438 4.777344 0.015625 4.941406 L 2.558594 14.703125 C 2.609375 14.890625 2.761719 15.035156 2.957031 15.066406 C 3.148438 15.101562 3.34375 15.019531 3.457031 14.859375 L 7.941406 8.277344 L 13.507812 15.796875 C 13.628906 15.960938 13.835938 16.035156 14.03125 15.984375 C 14.226562 15.933594 14.375 15.773438 14.40625 15.574219 L 15.996094 4.644531 C 16.027344 4.414062 15.894531 4.1875 15.675781 4.105469 L 4.691406 0.03125 C 4.636719 0.0117188 4.574219 0 4.515625 0 Z M 4.65625 1.085938 L 14.945312 4.902344 L 13.589844 14.230469 L 8.324219 7.113281 C 8.230469 6.984375 8.074219 6.90625 7.914062 6.910156 C 7.75 6.914062 7.601562 6.996094 7.507812 7.128906 L 3.246094 13.386719 L 1.050781 4.957031 Z M 4.65625 1.085938 "/></g></svg>
