<svg xmlns="http://www.w3.org/2000/svg" xmlns:xlink="http://www.w3.org/1999/xlink" width="16" height="16" viewBox="0 0 16 16" version="1.1"><defs><linearGradient id="linear0" x1="0%" x2="0%" y1="0%" y2="100%"><stop offset="0%" style="stop-color:#00b54e; stop-opacity:1"/><stop offset="50%" style="stop-color:#ffd000; stop-opacity:1"/><stop offset="100%" style="stop-color:#ff00bb; stop-opacity:1"/></linearGradient></defs><g id="surface1"><path style=" stroke:none;fill-rule:nonzero;fill:url(#linear0);fill-opacity:1;" d="M 6.726562 1.601562 C 6.628906 1.59375 6.519531 1.605469 6.410156 1.628906 C 5.585938 1.785156 4.820312 2.027344 4.054688 2.417969 C 3.773438 2.550781 3.597656 2.835938 3.710938 3.117188 C 3.824219 3.402344 4.167969 3.546875 4.472656 3.441406 C 5.257812 3.101562 6.058594 2.835938 6.820312 2.644531 C 7.027344 2.585938 7.183594 2.425781 7.222656 2.226562 C 7.261719 2.03125 7.179688 1.832031 7.007812 1.703125 C 6.925781 1.640625 6.828125 1.613281 6.726562 1.601562 Z M 9.457031 1.601562 C 9.355469 1.613281 9.261719 1.640625 9.175781 1.703125 C 9.003906 1.832031 8.921875 2.03125 8.960938 2.226562 C 9.003906 2.425781 9.15625 2.585938 9.363281 2.644531 C 10.125 2.835938 10.929688 3.101562 11.710938 3.441406 C 12.019531 3.546875 12.359375 3.402344 12.472656 3.117188 C 12.589844 2.835938 12.414062 2.550781 12.128906 2.417969 C 11.363281 2.027344 10.601562 1.785156 9.777344 1.628906 C 9.667969 1.605469 9.558594 1.59375 9.457031 1.601562 Z M 14.550781 3.789062 C 14.476562 3.785156 14.398438 3.792969 14.320312 3.820312 C 14.015625 3.925781 13.855469 4.238281 13.96875 4.515625 C 14.335938 5.234375 14.628906 5.972656 14.835938 6.667969 C 14.902344 6.859375 15.078125 7 15.292969 7.035156 C 15.507812 7.070312 15.726562 6.996094 15.863281 6.839844 C 16.003906 6.6875 15.996094 6.496094 15.949219 6.289062 C 15.78125 5.535156 15.511719 4.835938 15.085938 4.136719 C 14.976562 3.941406 14.777344 3.800781 14.550781 3.789062 Z M 1.574219 4.292969 C 1.355469 4.3125 1.210938 4.453125 1.089844 4.628906 C 0.625 5.269531 0.277344 5.941406 0.0351562 6.710938 C -0.0625 6.988281 0.0351562 7.304688 0.332031 7.429688 C 0.632812 7.554688 0.984375 7.4375 1.121094 7.164062 C 1.414062 6.417969 1.777344 5.710938 2.167969 5.078125 C 2.265625 4.902344 2.253906 4.691406 2.128906 4.523438 C 2.003906 4.359375 1.789062 4.269531 1.574219 4.292969 Z M 15.433594 8.519531 C 15.203125 8.515625 14.980469 8.632812 14.878906 8.835938 C 14.585938 9.582031 14.222656 10.289062 13.832031 10.917969 C 13.730469 11.097656 13.746094 11.308594 13.871094 11.472656 C 13.996094 11.640625 14.207031 11.726562 14.425781 11.707031 C 14.640625 11.683594 14.785156 11.546875 14.910156 11.371094 C 15.371094 10.726562 15.722656 10.058594 15.960938 9.289062 C 16.0625 9.011719 15.964844 8.695312 15.664062 8.570312 C 15.589844 8.539062 15.511719 8.523438 15.433594 8.519531 Z M 0.703125 8.964844 C 0.488281 8.929688 0.269531 9.003906 0.132812 9.15625 C -0.00390625 9.3125 0.00390625 9.503906 0.0507812 9.707031 C 0.21875 10.464844 0.488281 11.164062 0.914062 11.863281 C 1.058594 12.125 1.367188 12.285156 1.675781 12.179688 C 1.984375 12.074219 2.144531 11.761719 2.03125 11.480469 C 1.660156 10.765625 1.371094 10.027344 1.160156 9.328125 C 1.097656 9.140625 0.917969 9 0.703125 8.964844 Z M 4.054688 12.523438 C 3.824219 12.535156 3.609375 12.667969 3.523438 12.878906 C 3.410156 13.164062 3.585938 13.449219 3.871094 13.582031 C 4.636719 13.972656 5.398438 14.214844 6.222656 14.371094 C 6.445312 14.414062 6.652344 14.421875 6.824219 14.292969 C 6.992188 14.167969 7.074219 13.96875 7.035156 13.769531 C 6.996094 13.574219 6.84375 13.414062 6.636719 13.355469 C 5.871094 13.164062 5.070312 12.894531 4.285156 12.558594 C 4.210938 12.53125 4.132812 12.523438 4.054688 12.523438 Z M 11.757812 12.523438 C 11.683594 12.523438 11.605469 12.53125 11.527344 12.558594 C 10.742188 12.894531 9.941406 13.164062 9.175781 13.355469 C 8.96875 13.414062 8.816406 13.574219 8.777344 13.769531 C 8.738281 13.96875 8.820312 14.167969 8.988281 14.292969 C 9.160156 14.421875 9.367188 14.414062 9.589844 14.371094 C 10.414062 14.214844 11.179688 13.972656 11.941406 13.582031 C 12.226562 13.449219 12.402344 13.164062 12.289062 12.878906 C 12.203125 12.667969 11.988281 12.535156 11.757812 12.523438 Z M 11.757812 12.523438 "/></g></svg>
