<svg xmlns="http://www.w3.org/2000/svg" xmlns:xlink="http://www.w3.org/1999/xlink" width="16" height="16" viewBox="0 0 16 16" version="1.1"><defs><linearGradient id="linear0" x1="0%" x2="100%" y1="0%" y2="100%"><stop offset="0%" style="stop-color:#e5ff00; stop-opacity:1"/><stop offset="50%" style="stop-color:#0073ff; stop-opacity:1"/><stop offset="100%" style="stop-color:#ff0000; stop-opacity:1"/></linearGradient></defs><g id="surface1"><path style=" stroke:none;fill-rule:nonzero;fill:url(#linear0);fill-opacity:1;" d="M 4.769531 2 C 2.152344 2 0 3.984375 0 6.476562 L 0 9.523438 C 0 12.015625 2.152344 14 4.769531 14 L 11.230469 14 C 13.847656 14 16 12.015625 16 9.523438 L 16 6.476562 C 16 3.984375 13.847656 2 11.230469 2 Z M 4.769531 3 L 11.230469 3 C 13.347656 3 15 4.5625 15 6.476562 L 15 9.523438 C 15 11.4375 13.347656 13 11.230469 13 L 4.769531 13 C 2.652344 13 1 11.4375 1 9.523438 L 1 6.476562 C 1 4.5625 2.652344 3 4.769531 3 Z M 4.769531 3 "/></g></svg>
