<svg xmlns="http://www.w3.org/2000/svg" xmlns:xlink="http://www.w3.org/1999/xlink" width="16" height="16" viewBox="0 0 16 16" version="1.1"><defs><linearGradient id="linear0" x1="0%" x2="0%" y1="0%" y2="100%"><stop offset="0%" style="stop-color:#00b54e; stop-opacity:1"/><stop offset="50%" style="stop-color:#0073ff; stop-opacity:1"/><stop offset="100%" style="stop-color:#ffd000; stop-opacity:1"/></linearGradient></defs><g id="surface1"><path style=" stroke:none;fill-rule:nonzero;fill:url(#linear0);fill-opacity:1;" d="M 2 2 L 2 3 L 13 3 L 13 8 L 14 8 L 14 2 Z M 2 5 L 2 6 L 9 6 L 9 9 L 10 9 L 10 5 Z M 11.007812 9.015625 L 11.007812 11.007812 L 9.007812 11.007812 L 9.007812 12.003906 L 11.007812 12.003906 L 11.007812 14 L 14.011719 11.503906 Z M 4 10.992188 L 4 12.019531 L 5 12.019531 L 5 10.992188 Z M 6.015625 10.992188 L 6.015625 12.019531 L 7.988281 12.019531 L 7.988281 10.992188 Z M 6.015625 10.992188 "/><use xlink:href="#surface5" mask="url(#mask0)"/></g></svg>
