<svg xmlns="http://www.w3.org/2000/svg" xmlns:xlink="http://www.w3.org/1999/xlink" width="16" height="16" viewBox="0 0 16 16" version="1.1"><defs><linearGradient id="linear0" x1="0%" x2="100%" y1="0%" y2="100%"><stop offset="0%" style="stop-color:#e5ff00; stop-opacity:1"/><stop offset="50%" style="stop-color:#0073ff; stop-opacity:1"/><stop offset="100%" style="stop-color:#ff0000; stop-opacity:1"/></linearGradient></defs><g id="surface1"><path style=" stroke:none;fill-rule:nonzero;fill:url(#linear0);fill-opacity:1;" d="M 11.449219 15.476562 C 10.070312 16.066406 8.707031 16.160156 7.566406 15.742188 C 6.992188 15.53125 1.917969 13.394531 1.539062 13.117188 C 1.21875 12.886719 1.078125 12.652344 1.03125 12.292969 C 0.925781 11.445312 1.683594 10.832031 2.527344 11.078125 C 3.347656 11.378906 5.082031 11.753906 5.082031 11.753906 L 3.035156 8.078125 C 1.152344 4.699219 0.988281 4.386719 1 4.164062 C 1.03125 3.632812 1.421875 3.242188 1.949219 3.21875 C 2.457031 3.191406 2.53125 3.289062 3.941406 5.789062 C 5.125 7.890625 5.226562 8.046875 5.390625 8.082031 C 5.617188 8.132812 5.691406 8.089844 5.738281 7.863281 C 5.773438 7.699219 5.613281 7.390625 4.171875 4.835938 C 2.628906 2.101562 2.570312 1.980469 2.578125 1.699219 C 2.59375 0.898438 3.527344 0.507812 4.15625 1.039062 C 4.269531 1.132812 4.882812 2.167969 5.914062 3.992188 C 7.4375 6.699219 7.503906 6.800781 7.660156 6.796875 C 7.855469 6.789062 7.980469 6.644531 7.972656 6.433594 C 7.972656 6.339844 7.390625 5.253906 6.539062 3.734375 C 5.445312 1.792969 5.105469 1.144531 5.105469 0.992188 C 5.097656 0.671875 5.304688 0.335938 5.613281 0.152344 C 6.039062 -0.046875 6.5 -0.0703125 6.675781 0.199219 L 8.289062 3.0625 C 9.328125 4.910156 9.949219 5.953125 10.039062 6.011719 C 10.191406 6.109375 10.449219 5.992188 10.496094 5.800781 C 10.519531 5.710938 10.234375 5.15625 9.429688 3.726562 C 8.203125 1.554688 8.085938 1.339844 8.328125 0.882812 C 8.875 0.234375 9.59375 0.203125 9.941406 0.6875 L 12.359375 5.023438 C 13.074219 6.679688 14.554688 8.21875 14.902344 9.992188 C 15.207031 11.546875 14.808594 12.863281 13.695312 13.976562 C 13.21875 14.453125 12.109375 15.195312 11.449219 15.476562 Z M 11.449219 15.476562 "/></g></svg>
