<svg xmlns="http://www.w3.org/2000/svg" xmlns:xlink="http://www.w3.org/1999/xlink" width="16" height="16" viewBox="0 0 16 16" version="1.1"><defs><linearGradient id="linear0" x1="0%" x2="100%" y1="0%" y2="100%"><stop offset="0%" style="stop-color:#ff0000; stop-opacity:1"/><stop offset="50%" style="stop-color:#ffd000; stop-opacity:1"/><stop offset="100%" style="stop-color:#ff00bb; stop-opacity:1"/></linearGradient></defs><g id="surface1"><path style=" stroke:none;fill-rule:nonzero;fill:url(#linear0);fill-opacity:1;" d="M 2.015625 2 L 2.015625 4.0625 L 12.03125 4.0625 L 12.03125 8.046875 L 13.96875 8.046875 L 13.96875 2 Z M 2 6.003906 L 2 7.035156 L 9.007812 7.035156 L 9.007812 9.03125 L 9.976562 9.03125 L 9.976562 6.003906 Z M 10.996094 9.015625 L 10.996094 11.007812 L 8.992188 11.007812 L 8.992188 12.003906 L 10.996094 12.003906 L 10.996094 14 L 14 11.507812 Z M 3.984375 10.992188 L 3.984375 12.023438 L 4.988281 12.023438 L 4.988281 10.992188 Z M 6.007812 10.992188 L 6.007812 12.023438 L 7.976562 12.023438 L 7.976562 10.992188 Z M 6.007812 10.992188 "/></g></svg>
