<svg xmlns="http://www.w3.org/2000/svg" xmlns:xlink="http://www.w3.org/1999/xlink" width="16" height="16" viewBox="0 0 16 16" version="1.1"><defs><linearGradient id="linear0" x1="0%" x2="0%" y1="0%" y2="100%"><stop offset="0%" style="stop-color:#ffd000; stop-opacity:1"/><stop offset="50%" style="stop-color:#24dbdb; stop-opacity:1"/><stop offset="100%" style="stop-color:#0073ff; stop-opacity:1"/></linearGradient></defs><g id="surface1"><path style=" stroke:none;fill-rule:nonzero;fill:url(#linear0);fill-opacity:1;" d="M 2.058594 3 L 4.203125 4.632812 L 2 6.308594 L 2 6.34375 L 4.179688 8 L 4.226562 8 L 6.40625 6.34375 L 4.203125 4.664062 L 6.394531 3 Z M 6.464844 3 L 8.609375 4.632812 L 10.753906 3 Z M 10.917969 3 L 13 4.585938 L 13 3 Z M 8.65625 4.664062 L 6.453125 6.34375 L 8.632812 8 L 10.835938 6.328125 Z M 10.835938 6.328125 L 13 7.96875 L 13 4.679688 Z M 11.007812 9.015625 L 11.007812 11.007812 L 9.007812 11.007812 L 9.007812 12.003906 L 11.007812 12.003906 L 11.007812 14 L 14.011719 11.503906 Z M 4 10.992188 L 4 12.019531 L 5 12.019531 L 5 10.992188 Z M 6.015625 10.992188 L 6.015625 12.019531 L 7.988281 12.019531 L 7.988281 10.992188 Z M 6.015625 10.992188 "/></g></svg>
