<svg xmlns="http://www.w3.org/2000/svg" xmlns:xlink="http://www.w3.org/1999/xlink" width="16" height="16" viewBox="0 0 16 16" version="1.1"><defs><linearGradient id="linear0" x1="0%" x2="100%" y1="0%" y2="100%"><stop offset="0%" style="stop-color:#ff0000; stop-opacity:1"/><stop offset="50%" style="stop-color:#ffd000; stop-opacity:1"/><stop offset="100%" style="stop-color:#ff00bb; stop-opacity:1"/></linearGradient></defs><g id="surface1"><path style=" stroke:none;fill-rule:nonzero;fill:url(#linear0);fill-opacity:1;" d="M 0.800781 2 C 0.359375 2 0 2.359375 0 2.800781 L 0 13.199219 C 0 13.640625 0.359375 14 0.800781 14 L 4 14 L 4 14.199219 C 4 14.640625 4.359375 15 4.800781 15 L 11.199219 15 C 11.640625 15 12 14.640625 12 14.199219 L 12 14 L 15.199219 14 C 15.640625 14 16 13.640625 16 13.199219 L 16 2.800781 C 16 2.359375 15.640625 2 15.199219 2 Z M 2 4 L 14 4 L 14 12 L 2 12 Z M 2 4 "/></g></svg>
