<svg xmlns="http://www.w3.org/2000/svg" xmlns:xlink="http://www.w3.org/1999/xlink" width="16" height="16" viewBox="0 0 16 16" version="1.1"><defs><linearGradient id="linear0" x1="0%" x2="0%" y1="0%" y2="100%"><stop offset="0%" style="stop-color:#00b54e; stop-opacity:1"/><stop offset="50%" style="stop-color:#ffd000; stop-opacity:1"/><stop offset="100%" style="stop-color:#ff00bb; stop-opacity:1"/></linearGradient></defs><g id="surface1"><path style=" stroke:none;fill-rule:nonzero;fill:url(#linear0);fill-opacity:1;" d="M 3.5 11 C 2.671875 11 2 11.671875 2 12.5 C 2 13.328125 2.671875 14 3.5 14 C 4.328125 14 5 13.328125 5 12.5 C 5 11.671875 4.328125 11 3.5 11 Z M 3.488281 12 C 3.492188 12 3.496094 12 3.5 12 C 3.777344 12 4 12.222656 4 12.5 C 4 12.777344 3.777344 13 3.5 13 C 3.222656 13 3 12.777344 3 12.5 C 3 12.226562 3.214844 12.007812 3.488281 12 Z M 3.488281 12 "/><path style=" stroke:none;fill-rule:nonzero;fill:url(#linear0);fill-opacity:1;" d="M 11.5 11 C 10.671875 11 10 11.671875 10 12.5 C 10 13.328125 10.671875 14 11.5 14 C 12.328125 14 13 13.328125 13 12.5 C 13 11.671875 12.328125 11 11.5 11 Z M 11.488281 12 C 11.492188 12 11.496094 12 11.5 12 C 11.777344 12 12 12.222656 12 12.5 C 12 12.777344 11.777344 13 11.5 13 C 11.222656 13 11 12.777344 11 12.5 C 11 12.226562 11.214844 12.007812 11.488281 12 Z M 11.488281 12 "/><path style=" stroke:none;fill-rule:nonzero;fill:url(#linear0);fill-opacity:1;" d="M 7.5 2 C 6.671875 2 6 2.671875 6 3.5 C 6 4.328125 6.671875 5 7.5 5 C 8.328125 5 9 4.328125 9 3.5 C 9 2.671875 8.328125 2 7.5 2 Z M 7.488281 3 C 7.492188 3 7.496094 3 7.5 3 C 7.777344 3 8 3.222656 8 3.5 C 8 3.777344 7.777344 4 7.5 4 C 7.222656 4 7 3.777344 7 3.5 C 7 3.226562 7.214844 3.007812 7.488281 3 Z M 7.488281 3 "/><path style=" stroke:none;fill-rule:nonzero;fill:url(#linear0);fill-opacity:1;" d="M 7 4 L 7 7 L 5 7 C 4.984375 7 4.96875 7 4.953125 7 C 3.867188 7.027344 3 7.914062 3 9 L 3 12 L 4 12 L 4 9 C 4 8.449219 4.449219 8 5 8 L 10 8 C 10.550781 8 11 8.449219 11 9 L 11 12 L 12 12 L 12 9 C 12 7.914062 11.132812 7.027344 10.046875 7 C 10.03125 7 10.015625 7 10 7 L 8 7 L 8 4 Z M 7 4 "/></g></svg>
