<svg xmlns="http://www.w3.org/2000/svg" xmlns:xlink="http://www.w3.org/1999/xlink" width="16" height="16" viewBox="0 0 16 16" version="1.1"><defs><linearGradient id="linear0" x1="0%" x2="0%" y1="0%" y2="100%"><stop offset="0%" style="stop-color:#ffd000; stop-opacity:1"/><stop offset="50%" style="stop-color:#24dbdb; stop-opacity:1"/><stop offset="100%" style="stop-color:#0073ff; stop-opacity:1"/></linearGradient></defs><g id="surface1"><path style=" stroke:none;fill-rule:nonzero;fill:url(#linear0);fill-opacity:1;" d="M 3 1 C 0.75 1 1 3 1 3 L 1 9 L 3 9 L 3 6 L 7 6 L 7 4 L 3 4 L 3 3 L 13 3 L 13 7 L 7 7 L 7 9 L 15 9 L 15 3 C 15 1 13 1 13 1 Z M 1.859375 10 C 0.894531 10 1.003906 10.859375 1.003906 10.859375 L 1.003906 16 L 7 16 L 7 10.859375 C 7 10 6.140625 10 6.140625 10 Z M 12 10 L 12 12 L 10 12 L 10 14 L 12 14 L 12 16 L 14 16 L 14 14 L 16 14 L 16 12 L 14 12 L 14 10 Z M 12 10 "/></g></svg>
