<svg xmlns="http://www.w3.org/2000/svg" xmlns:xlink="http://www.w3.org/1999/xlink" width="16" height="16" viewBox="0 0 16 16" version="1.1"><defs><linearGradient id="linear0" x1="0%" x2="100%" y1="0%" y2="100%"><stop offset="0%" style="stop-color:#e5ff00; stop-opacity:1"/><stop offset="50%" style="stop-color:#0073ff; stop-opacity:1"/><stop offset="100%" style="stop-color:#ff0000; stop-opacity:1"/></linearGradient></defs><g id="surface1"><path style=" stroke:none;fill-rule:nonzero;fill:url(#linear0);fill-opacity:1;" d="M 1.375 1 C 1.167969 1 1 1.167969 1 1.375 L 1 3.625 C 1 3.832031 1.167969 4 1.375 4 L 3.625 4 C 3.832031 4 4 3.832031 4 3.625 L 4 1.375 C 4 1.167969 3.832031 1 3.625 1 Z M 5 2 L 5 4 L 15 4 L 15 2 Z M 1.375 5 C 1.167969 5 1 5.167969 1 5.375 L 1 7.625 C 1 7.832031 1.167969 8 1.375 8 L 3.625 8 C 3.832031 8 4 7.832031 4 7.625 L 4 5.375 C 4 5.167969 3.832031 5 3.625 5 Z M 5 6 L 5 8 L 15 8 L 15 6 Z M 1.375 9 C 1.167969 9 1 9.167969 1 9.375 L 1 11.625 C 1 11.832031 1.167969 12 1.375 12 L 3.625 12 C 3.832031 12 4 11.832031 4 11.625 L 4 9.375 C 4 9.167969 3.832031 9 3.625 9 Z M 5 10 L 5 12 L 10 12 L 10 10 Z M 13 11 L 13 13 L 11 13 L 11 14 L 13 14 L 13 16 L 14 16 L 14 14 L 16 14 L 16 13 L 14 13 L 14 11 Z M 1.375 13 C 1.167969 13 1 13.167969 1 13.375 L 1 15.625 C 1 15.832031 1.167969 16 1.375 16 L 3.625 16 C 3.832031 16 4 15.832031 4 15.625 L 4 13.375 C 4 13.167969 3.832031 13 3.625 13 Z M 5 14 L 5 16 L 10 16 L 10 14 Z M 5 14 "/></g></svg>
