<svg xmlns="http://www.w3.org/2000/svg" xmlns:xlink="http://www.w3.org/1999/xlink" width="16" height="16" viewBox="0 0 16 16" version="1.1"><defs><linearGradient id="linear0" x1="0%" x2="0%" y1="0%" y2="100%"><stop offset="0%" style="stop-color:#00b54e; stop-opacity:1"/><stop offset="50%" style="stop-color:#ffd000; stop-opacity:1"/><stop offset="100%" style="stop-color:#ff00bb; stop-opacity:1"/></linearGradient></defs><g id="surface1"><path style=" stroke:none;fill-rule:nonzero;fill:url(#linear0);fill-opacity:1;" d="M 4.09375 2 C 3.308594 2.019531 2.71875 2.144531 2.28125 2.34375 L 2.53125 3.25 C 2.742188 3.175781 3.535156 2.9375 4 2.9375 L 4.0625 2.9375 C 4.710938 2.964844 4.75 3.195312 4.75 3.75 L 4.75 3.96875 L 4.40625 4.03125 C 2.839844 4.257812 2 4.453125 2 5.65625 C 2 6.492188 2.617188 7 3.5 7 C 4.109375 7 4.496094 6.753906 4.90625 6.40625 L 5 7 L 6 7 L 6 3.53125 C 6 2.503906 5.28125 2 4.1875 2 Z M 10.5 4 L 10.28125 4.1875 L 7 7.5 L 7.71875 8.1875 L 10 5.90625 L 10 14 L 11 14 L 11 5.90625 L 13.28125 8.1875 L 14 7.5 L 10.71875 4.1875 Z M 4.75 4.6875 L 4.75 5.8125 C 4.414062 6.039062 4.15625 6.1875 3.71875 6.1875 C 3.328125 6.1875 3.125 5.941406 3.125 5.59375 C 3.125 4.9375 3.703125 4.820312 4.40625 4.71875 Z M 2 9 L 2 10 L 4.375 10 L 2 13.316406 L 2 14 L 6 14 L 6 13 L 4 13 L 6 10 L 6 9 Z M 2 9 "/></g></svg>
