<svg xmlns="http://www.w3.org/2000/svg" xmlns:xlink="http://www.w3.org/1999/xlink" width="16" height="16" viewBox="0 0 16 16" version="1.1"><defs><filter id="alpha" filterUnits="objectBoundingBox" x="0%" y="0%" width="100%" height="100%"> <feColorMatrix type="matrix" in="SourceGraphic" values="0 0 0 0 1 0 0 0 0 1 0 0 0 0 1 0 0 0 1 0"/></filter><mask id="mask0"> <g filter="url(#alpha)"><rect x="0" y="0" width="16" height="16" style="fill:rgb(0%,0%,0%);fill-opacity:0.3;stroke:none;"/> </g></mask><clipPath id="clip1"> <rect x="0" y="0" width="16" height="16"/></clipPath><g id="surface5" clip-path="url(#clip1)"><path style=" stroke:none;fill-rule:nonzero;fill:rgb(93.333334%,93.333334%,93.333334%);fill-opacity:1;" d="M 3 0 C 2.445312 0 2 0.445312 2 1 L 2 7 L 13 7 C 14.089844 7 15 7.910156 15 9 L 15 15 C 15 15.363281 14.890625 15.703125 14.71875 16 L 15 16 C 15.554688 16 16 15.554688 16 15 L 16 1 C 16 0.445312 15.554688 0 15 0 Z M 4 2 L 11 2 L 11 3 L 4 3 Z M 12 2 L 14 2 L 14 3 L 12 3 Z M 4 4 L 8 4 L 8 5 L 4 5 Z M 1 8 C 0.445312 8 0 8.445312 0 9 L 0 15 C 0 15.554688 0.445312 16 1 16 L 13 16 C 13.554688 16 14 15.554688 14 15 L 14 9 C 14 8.445312 13.554688 8 13 8 Z M 10 11 L 12 11 L 12 13 L 10 13 Z M 1 14 L 2 14 L 2 15 L 1 15 Z M 3 14 L 4 14 L 4 15 L 3 15 Z M 5 14 L 6 14 L 6 15 L 5 15 Z M 7 14 L 8 14 L 8 15 L 7 15 Z M 7 14 "/></g></defs><g id="surface1"><use xlink:href="#surface5" mask="url(#mask0)"/></g></svg>
