<svg xmlns="http://www.w3.org/2000/svg" xmlns:xlink="http://www.w3.org/1999/xlink" width="16" height="16" viewBox="0 0 16 16" version="1.1"><defs><linearGradient id="linear0" x1="0%" x2="100%" y1="0%" y2="100%"><stop offset="0%" style="stop-color:#ff0000; stop-opacity:1"/><stop offset="50%" style="stop-color:#ffd000; stop-opacity:1"/><stop offset="100%" style="stop-color:#ff00bb; stop-opacity:1"/></linearGradient></defs><g id="surface1"><path style=" stroke:none;fill-rule:nonzero;fill:url(#linear0);fill-opacity:1;" d="M 0 1 L 0 14.996094 C 3 14.996094 6 14.996094 9 15 L 9 9 L 16 9 L 16 1.003906 C 10.667969 1.007812 5.332031 0.996094 0 1 Z M 9 3 L 15 3 L 15 4 L 9 4 Z M 3.5 4 C 4.332031 4 5 4.667969 5 5.5 L 5 7 L 6 7 L 6 10 L 1 10 L 1 7 L 2 7 L 2 5.5 C 2 4.667969 2.667969 4 3.5 4 Z M 3.5 5 C 3.222656 5 3 5.222656 3 5.5 L 3 7 L 4 7 L 4 5.5 C 4 5.222656 3.777344 5 3.5 5 Z M 9 6 L 15 6 L 15 7 L 9 7 Z M 12 10 L 12 10.585938 L 11.585938 10.171875 L 10.171875 11.585938 L 10.585938 12 L 10 12 L 10 14 L 10.585938 14 L 10.171875 14.414062 L 11.585938 15.828125 L 12 15.414062 L 12 16 L 14 16 L 14 15.414062 L 14.414062 15.828125 L 15.828125 14.414062 L 15.414062 14 L 16 14 L 16 12 L 15.414062 12 L 15.828125 11.585938 L 14.414062 10.171875 L 14 10.585938 L 14 10 Z M 13 12 C 13.550781 12 14 12.449219 14 13 C 14 13.550781 13.550781 14 13 14 C 12.449219 14 12 13.550781 12 13 C 12 12.449219 12.449219 12 13 12 Z M 13 12 "/></g></svg>
