<svg xmlns="http://www.w3.org/2000/svg" xmlns:xlink="http://www.w3.org/1999/xlink" width="16" height="16" viewBox="0 0 16 16" version="1.1"><defs><linearGradient id="linear0" x1="0%" x2="0%" y1="0%" y2="100%"><stop offset="0%" style="stop-color:#00b54e; stop-opacity:1"/><stop offset="50%" style="stop-color:#0073ff; stop-opacity:1"/><stop offset="100%" style="stop-color:#ffd000; stop-opacity:1"/></linearGradient></defs><g id="surface1"><path style=" stroke:none;fill-rule:nonzero;fill:url(#linear0);fill-opacity:1;" d="M 8 1 L 0 5 L 2 5 L 2 7 L 3 7 L 3 13 L 2 13 L 2 15 L 10 15 L 10 13 L 9 13 L 9 7 L 11 7 L 11 10 L 13 10 L 13 7 L 14 7 L 14 5 L 16 5 Z M 5 7 L 7 7 L 7 13 L 5 13 Z M 11 11 L 11 11.707031 L 12.792969 13.5 L 11 15.292969 L 11 16 L 11.707031 16 L 13.5 14.207031 L 15.292969 16 L 16 16 L 16 15.292969 L 14.207031 13.5 L 16 11.707031 L 16 11 L 15.292969 11 L 13.5 12.792969 L 11.707031 11 Z M 11 11 "/></g></svg>
