<svg xmlns="http://www.w3.org/2000/svg" xmlns:xlink="http://www.w3.org/1999/xlink" width="16" height="16" viewBox="0 0 16 16" version="1.1"><defs><linearGradient id="linear0" x1="0%" x2="100%" y1="0%" y2="100%"><stop offset="0%" style="stop-color:#e5ff00; stop-opacity:1"/><stop offset="50%" style="stop-color:#0073ff; stop-opacity:1"/><stop offset="100%" style="stop-color:#ff0000; stop-opacity:1"/></linearGradient></defs><g id="surface1"><path style=" stroke:none;fill-rule:nonzero;fill:url(#linear0);fill-opacity:1;" d="M 3 0 C 2.445312 0 2 0.445312 2 1 L 2 7 L 13 7 C 14.089844 7 15 7.910156 15 9 L 15 10 L 16 10 L 16 1 C 16 0.445312 15.554688 0 15 0 Z M 4 2 L 11 2 L 11 3 L 4 3 Z M 12 2 L 14 2 L 14 3 L 12 3 Z M 4 4 L 8 4 L 8 5 L 4 5 Z M 1 8 C 0.445312 8 0 8.445312 0 9 L 0 15 C 0 15.554688 0.445312 16 1 16 L 10 16 L 10 10 L 14 10 L 14 9 C 14 8.445312 13.554688 8 13 8 Z M 11 11 L 11 11.707031 L 12.792969 13.5 L 11 15.292969 L 11 16 L 11.707031 16 L 13.5 14.207031 L 15.292969 16 L 16 16 L 16 15.292969 L 14.207031 13.5 L 16 11.707031 L 16 11 L 15.292969 11 L 13.5 12.792969 L 11.707031 11 Z M 1 14 L 2 14 L 2 15 L 1 15 Z M 3 14 L 4 14 L 4 15 L 3 15 Z M 5 14 L 6 14 L 6 15 L 5 15 Z M 7 14 L 8 14 L 8 15 L 7 15 Z M 7 14 "/></g></svg>
