<svg xmlns="http://www.w3.org/2000/svg" xmlns:xlink="http://www.w3.org/1999/xlink" width="16" height="16" viewBox="0 0 16 16" version="1.1"><defs><linearGradient id="linear0" x1="0%" x2="0%" y1="0%" y2="100%"><stop offset="0%" style="stop-color:#00b54e; stop-opacity:1"/><stop offset="50%" style="stop-color:#ffd000; stop-opacity:1"/><stop offset="100%" style="stop-color:#ff00bb; stop-opacity:1"/></linearGradient></defs><g id="surface1"><path style=" stroke:none;fill-rule:nonzero;fill:url(#linear0);fill-opacity:1;" d="M 6 2 C 4.34375 2 3 3.34375 3 5 C 3 6.65625 4.34375 8 6 8 C 7.65625 8 9 6.65625 9 5 C 9 3.34375 7.65625 2 6 2 Z M 10.996094 3.945312 L 11 3.949219 C 10.613281 3.949219 10.246094 4.039062 9.914062 4.1875 C 9.96875 4.449219 10 4.71875 10 5 C 10 6.101562 9.546875 7.101562 8.816406 7.828125 C 9.277344 8.527344 10.074219 9 10.996094 9 C 12.429688 9 13.589844 7.867188 13.589844 6.472656 C 13.589844 5.078125 12.429688 3.945312 10.996094 3.945312 Z M 6 9.996094 C 0 10 0 14 0 14 L 0 15 L 12 15 L 12 14 C 12 14 12 9.988281 6 10 Z M 11 10 C 10.804688 10 10.628906 10.011719 10.449219 10.019531 C 11.144531 10.421875 11.675781 10.898438 12.050781 11.398438 C 12.992188 12.660156 13 14 13 14 L 16 14 L 16 13 C 16 13 16 10 11 10 Z M 11 10 "/></g></svg>
