<svg xmlns="http://www.w3.org/2000/svg" xmlns:xlink="http://www.w3.org/1999/xlink" width="16" height="16" viewBox="0 0 16 16" version="1.1"><defs><linearGradient id="linear0" x1="0%" x2="100%" y1="0%" y2="100%"><stop offset="0%" style="stop-color:#ff0000; stop-opacity:1"/><stop offset="50%" style="stop-color:#ffd000; stop-opacity:1"/><stop offset="100%" style="stop-color:#ff00bb; stop-opacity:1"/></linearGradient></defs><g id="surface1"><path style=" stroke:none;fill-rule:nonzero;fill:url(#linear0);fill-opacity:1;" d="M 3 0 C 2.445312 0 2 0.445312 2 1 L 2 7 L 13 7 C 14.089844 7 15 7.910156 15 9 L 15 15 C 15 15.363281 14.890625 15.703125 14.71875 16 L 15 16 C 15.554688 16 16 15.554688 16 15 L 16 1 C 16 0.445312 15.554688 0 15 0 Z M 4 2 L 11 2 L 11 3 L 4 3 Z M 12 2 L 14 2 L 14 3 L 12 3 Z M 4 4 L 8 4 L 8 5 L 4 5 Z M 1 8 C 0.445312 8 0 8.445312 0 9 L 0 15 C 0 15.554688 0.445312 16 1 16 L 13 16 C 13.554688 16 14 15.554688 14 15 L 14 9 C 14 8.445312 13.554688 8 13 8 Z M 3.96875 9.539062 C 4.085938 9.539062 4.203125 9.5625 4.316406 9.609375 C 4.769531 9.785156 5.023438 10.238281 5.089844 10.746094 C 5.121094 10.996094 5.085938 11.203125 5.054688 11.375 C 5.039062 11.449219 5.035156 11.453125 5.023438 11.503906 C 5.027344 11.503906 5.042969 11.503906 5.039062 11.507812 C 5.035156 11.511719 5.191406 11.292969 5.34375 11.074219 C 5.421875 10.964844 5.503906 10.851562 5.625 10.746094 C 5.746094 10.636719 5.929688 10.5 6.195312 10.511719 C 6.417969 10.519531 6.523438 10.613281 6.601562 10.675781 C 6.683594 10.742188 6.742188 10.804688 6.796875 10.871094 C 6.914062 10.996094 7.023438 11.132812 7.125 11.234375 C 7.207031 11.324219 7.230469 11.375 7.332031 11.347656 C 7.425781 11.265625 7.460938 11.222656 7.492188 11.171875 C 7.578125 11.0625 7.65625 10.914062 7.769531 10.824219 C 7.898438 10.746094 8.164062 10.75 8.285156 10.8125 C 8.40625 10.878906 8.4375 10.933594 8.46875 10.972656 C 8.523438 11.046875 8.542969 11.089844 8.578125 11.148438 C 8.644531 11.269531 8.742188 11.445312 8.925781 11.726562 C 9.078125 11.957031 9.011719 12.269531 8.78125 12.421875 C 8.546875 12.570312 8.238281 12.507812 8.085938 12.273438 C 8.03125 12.1875 8.023438 12.167969 7.976562 12.097656 C 7.9375 12.136719 7.929688 12.167969 7.878906 12.207031 C 7.617188 12.410156 7.226562 12.441406 6.96875 12.34375 C 6.710938 12.242188 6.546875 12.078125 6.402344 11.929688 C 6.300781 11.824219 6.230469 11.738281 6.15625 11.65625 C 6.042969 11.820312 5.894531 12.390625 5.007812 12.5 C 4.117188 12.609375 4.007812 11.984375 4 11.542969 C 4.023438 11.433594 4.035156 11.300781 4.070312 11.1875 C 4.09375 11.0625 4.105469 10.90625 4.101562 10.875 C 4.066406 10.613281 3.964844 10.542969 3.949219 10.535156 C 3.933594 10.53125 3.878906 10.496094 3.695312 10.6875 C 3.5625 10.824219 3.445312 11.039062 3.296875 11.292969 C 3.195312 11.546875 3.023438 11.8125 2.992188 12.109375 C 2.933594 12.378906 2.601562 12.5625 2.328125 12.5 C 2.058594 12.441406 1.957031 12.160156 2.015625 11.890625 L 2.109375 11.492188 L 2.128906 11.441406 C 2.210938 11.265625 2.289062 11.039062 2.429688 10.796875 C 2.5625 10.5625 2.710938 10.269531 2.96875 10 C 3.246094 9.710938 3.609375 9.535156 3.96875 9.539062 Z M 2.007812 13 L 9.007812 13 L 9.007812 14 L 2.007812 14 Z M 10.003906 13 L 12.003906 13 L 12.003906 14 L 10.003906 14 Z M 10.003906 13 "/></g></svg>
