<svg xmlns="http://www.w3.org/2000/svg" xmlns:xlink="http://www.w3.org/1999/xlink" width="16" height="16" viewBox="0 0 16 16" version="1.1"><defs><linearGradient id="linear0" x1="0%" x2="0%" y1="0%" y2="100%"><stop offset="0%" style="stop-color:#ffd000; stop-opacity:1"/><stop offset="50%" style="stop-color:#24dbdb; stop-opacity:1"/><stop offset="100%" style="stop-color:#0073ff; stop-opacity:1"/></linearGradient></defs><g id="surface1"><path style=" stroke:none;fill-rule:nonzero;fill:url(#linear0);fill-opacity:1;" d="M 5 2.003906 L 4 3.003906 L 3 3.003906 C 1 3.003906 1 5.003906 1 5.003906 L 1 12.003906 C 1 14.003906 3 14.003906 3 14.003906 L 13 14.003906 C 15 14.003906 15 12.003906 15 12.003906 L 15 5.003906 C 15 3.003906 13 3.003906 13 3.003906 L 12 3.003906 L 11 2.003906 Z M 8 5.003906 C 9.65625 5.003906 11 6.347656 11 8.003906 C 11 9.660156 9.65625 11.003906 8 11.003906 C 6.34375 11.003906 5 9.660156 5 8.003906 C 5 6.347656 6.34375 5.003906 8 5.003906 Z M 8 5.003906 "/></g></svg>
