<svg xmlns="http://www.w3.org/2000/svg" xmlns:xlink="http://www.w3.org/1999/xlink" width="16" height="16" viewBox="0 0 16 16" version="1.1"><defs><filter id="alpha" filterUnits="objectBoundingBox" x="0%" y="0%" width="100%" height="100%"> <feColorMatrix type="matrix" in="SourceGraphic" values="0 0 0 0 1 0 0 0 0 1 0 0 0 0 1 0 0 0 1 0"/></filter><mask id="mask0"> <g filter="url(#alpha)"><rect x="0" y="0" width="16" height="16" style="fill:rgb(0%,0%,0%);fill-opacity:0.3;stroke:none;"/> </g></mask><clipPath id="clip1"> <rect x="0" y="0" width="16" height="16"/></clipPath><g id="surface5" clip-path="url(#clip1)"><path style=" stroke:none;fill-rule:nonzero;fill:rgb(93.333334%,93.333334%,93.333334%);fill-opacity:1;" d="M 1 2 C 0.445312 2 0 2.445312 0 3 L 0 4 L 16 4 L 16 3 C 16 2.445312 15.554688 2 15 2 Z M 0 6 L 0 12 C 0 12.554688 0.445312 13 1 13 L 15 13 C 15.554688 13 16 12.554688 16 12 L 16 6 Z M 1 11 L 5 11 L 5 12 L 1 12 Z M 6 11 L 8 11 L 8 12 L 6 12 Z M 6 11 "/></g></defs><g id="surface1"><use xlink:href="#surface5" mask="url(#mask0)"/></g></svg>
