<svg xmlns="http://www.w3.org/2000/svg" xmlns:xlink="http://www.w3.org/1999/xlink" width="16" height="16" viewBox="0 0 16 16" version="1.1"><defs><linearGradient id="linear0" x1="0%" x2="0%" y1="0%" y2="100%"><stop offset="0%" style="stop-color:#00b54e; stop-opacity:1"/><stop offset="50%" style="stop-color:#ffd000; stop-opacity:1"/><stop offset="100%" style="stop-color:#ff00bb; stop-opacity:1"/></linearGradient></defs><g id="surface1"><path style=" stroke:none;fill-rule:nonzero;fill:url(#linear0);fill-opacity:1;" d="M 4 2.003906 L 4 5.003906 L 1 5.003906 L 1 7.003906 L 5 7.003906 C 6 7.003906 6 6.003906 6 6.003906 L 6 2.003906 Z M 10 2.003906 L 10 6.003906 C 10 6.003906 10 7.003906 11 7.003906 L 15 7.003906 L 15 5.003906 L 12 5.003906 L 12 2.003906 Z M 1 9.003906 L 1 11.003906 L 4 11.003906 L 4 14.003906 L 6 14.003906 L 6 10.003906 C 6 10.003906 6 9.003906 5 9.003906 Z M 11 9.003906 C 11 9.003906 10 9.003906 10 10.003906 L 10 14.003906 L 12 14.003906 L 12 11.003906 L 15 11.003906 L 15 9.003906 Z M 11 9.003906 "/></g></svg>
