<svg xmlns="http://www.w3.org/2000/svg" xmlns:xlink="http://www.w3.org/1999/xlink" width="16" height="16" viewBox="0 0 16 16" version="1.1"><defs><linearGradient id="linear0" x1="0%" x2="100%" y1="0%" y2="100%"><stop offset="0%" style="stop-color:#e5ff00; stop-opacity:1"/><stop offset="50%" style="stop-color:#0073ff; stop-opacity:1"/><stop offset="100%" style="stop-color:#ff0000; stop-opacity:1"/></linearGradient></defs><g id="surface1"><path style=" stroke:none;fill-rule:nonzero;fill:url(#linear0);fill-opacity:1;" d="M 8.527344 0.132812 L 8.496094 0.164062 C 8.097656 0.5625 7.871094 1.09375 7.867188 1.65625 C 7.867188 2.179688 8.054688 2.671875 8.398438 3.054688 L 5.054688 6.398438 C 4.671875 6.054688 4.179688 5.867188 3.65625 5.871094 C 3.09375 5.875 2.5625 6.097656 2.160156 6.496094 L 2.132812 6.527344 C 1.957031 6.699219 1.957031 6.984375 2.128906 7.15625 L 4.71875 9.746094 L 0.390625 14.074219 L 0 16 L 1.925781 15.605469 L 6.253906 11.28125 L 8.84375 13.871094 C 8.929688 13.957031 9.042969 14 9.15625 14 C 9.273438 14 9.386719 13.953125 9.472656 13.867188 L 9.503906 13.839844 C 9.902344 13.4375 10.125 12.90625 10.128906 12.34375 C 10.132812 11.820312 9.945312 11.328125 9.601562 10.941406 L 12.941406 7.601562 C 13.328125 7.945312 13.820312 8.132812 14.34375 8.128906 C 14.90625 8.125 15.4375 7.902344 15.839844 7.503906 L 15.867188 7.472656 C 15.953125 7.386719 16 7.273438 16 7.15625 C 16 7.042969 15.957031 6.929688 15.871094 6.84375 L 9.15625 0.128906 C 9.070312 0.0429688 8.957031 0 8.84375 0 C 8.726562 0 8.613281 0.046875 8.527344 0.132812 Z M 8.527344 0.132812 "/></g></svg>
