<svg xmlns="http://www.w3.org/2000/svg" xmlns:xlink="http://www.w3.org/1999/xlink" width="16" height="16" viewBox="0 0 16 16" version="1.1"><defs><linearGradient id="linear0" x1="0%" x2="100%" y1="0%" y2="100%"><stop offset="0%" style="stop-color:#ff0000; stop-opacity:1"/><stop offset="50%" style="stop-color:#ffd000; stop-opacity:1"/><stop offset="100%" style="stop-color:#ff00bb; stop-opacity:1"/></linearGradient></defs><g id="surface1"><path style=" stroke:none;fill-rule:nonzero;fill:url(#linear0);fill-opacity:1;" d="M 2 1 C 2 1 1.921875 1.003906 1.820312 1.023438 C 1.613281 1.054688 1.460938 1.125 1.34375 1.226562 C 1.324219 1.242188 1.300781 1.261719 1.28125 1.28125 C 1.261719 1.300781 1.242188 1.324219 1.226562 1.34375 C 1.125 1.460938 1.054688 1.613281 1.023438 1.820312 C 1.003906 1.921875 1 2 1 2 L 1 14 C 1 15 2 15 2 15 L 14 15 C 14 15 15 15 15 14 L 15 2 C 15 2 14.996094 1.921875 14.976562 1.820312 C 14.945312 1.613281 14.875 1.460938 14.773438 1.34375 C 14.757812 1.324219 14.738281 1.300781 14.71875 1.28125 C 14.699219 1.261719 14.675781 1.242188 14.65625 1.226562 C 14.539062 1.125 14.386719 1.054688 14.183594 1.023438 C 14.074219 1.003906 14 1 14 1 Z M 3 6 L 13 6 L 13 13 L 3 13 Z M 8 7 L 8 9 L 5 9 L 5 10 L 8 10 L 8 12 L 11 9.5 Z M 8 7 "/></g></svg>
