<svg xmlns="http://www.w3.org/2000/svg" xmlns:xlink="http://www.w3.org/1999/xlink" width="16" height="16" viewBox="0 0 16 16" version="1.1"><defs><linearGradient id="linear0" x1="0%" x2="0%" y1="0%" y2="100%"><stop offset="0%" style="stop-color:#00b54e; stop-opacity:1"/><stop offset="50%" style="stop-color:#ffd000; stop-opacity:1"/><stop offset="100%" style="stop-color:#ff00bb; stop-opacity:1"/></linearGradient></defs><g id="surface1"><path style=" stroke:none;fill-rule:nonzero;fill:url(#linear0);fill-opacity:1;" d="M 3.1875 2 C 2.523438 2 2 2.550781 2 3.21875 L 2 7 L 4 7 L 4 4 L 7 4 L 7 2 Z M 9 2 L 9 4 L 12 4 L 12 7 L 14 7 L 14 3.21875 C 14 2.550781 13.476562 2 12.8125 2 Z M 7 5 L 7 11 L 9 11 L 9 5 Z M 6 6 L 4 8 L 6 10 Z M 10 6 L 10 10 L 12 8 Z M 2 9 L 2 12.78125 C 2 13.453125 2.523438 14 3.1875 14 L 7 14 L 7 12 L 4 12 L 4 9 Z M 12 9 L 12 12 L 9 12 L 9 14 L 12.8125 14 C 13.476562 14 14 13.453125 14 12.78125 L 14 9 Z M 12 9 "/></g></svg>
