<?xml version="1.0" encoding="UTF-8" standalone="no"?>
<svg
   width="64"
   height="64"
   version="1.1"
   id="svg125"
   sodipodi:docname="text-x-tex.svg"
   inkscape:version="1.1 (1:1.1+202106031931+af4d65493e)"
   xmlns:inkscape="http://www.inkscape.org/namespaces/inkscape"
   xmlns:sodipodi="http://sodipodi.sourceforge.net/DTD/sodipodi-0.dtd"
   xmlns:xlink="http://www.w3.org/1999/xlink"
   xmlns="http://www.w3.org/2000/svg"
   xmlns:svg="http://www.w3.org/2000/svg"
   xmlns:rdf="http://www.w3.org/1999/02/22-rdf-syntax-ns#"
   xmlns:cc="http://creativecommons.org/ns#"
   xmlns:dc="http://purl.org/dc/elements/1.1/">
  <metadata
     id="metadata129">
    <rdf:RDF>
      <cc:Work
         rdf:about="">
        <dc:format>image/svg+xml</dc:format>
        <dc:type
           rdf:resource="http://purl.org/dc/dcmitype/StillImage" />
      </cc:Work>
    </rdf:RDF>
  </metadata>
  <sodipodi:namedview
     pagecolor="#ffffff"
     bordercolor="#666666"
     borderopacity="1"
     objecttolerance="10"
     gridtolerance="10"
     guidetolerance="10"
     inkscape:pageopacity="0"
     inkscape:pageshadow="2"
     inkscape:window-width="1567"
     inkscape:window-height="750"
     id="namedview127"
     showgrid="false"
     inkscape:zoom="12.578125"
     inkscape:cx="32.119255"
     inkscape:cy="33.351553"
     inkscape:window-x="183"
     inkscape:window-y="294"
     inkscape:window-maximized="0"
     inkscape:current-layer="g121"
     inkscape:document-rotation="0"
     inkscape:pagecheckerboard="0" />
  <defs
     id="defs47">
    <inkscape:path-effect
       effect="powerclip"
       id="path-effect379"
       is_visible="true"
       lpeversion="1"
       inverse="true"
       flatten="false"
       hide_clip="false"
       message="Use fill-rule evenodd on &lt;b&gt;fill and stroke&lt;/b&gt; dialog if no flatten result after convert clip to paths." />
    <linearGradient
       id="linearGradient6721-3"
       x1="7.9373"
       x2="7.9373"
       y1="15.346"
       y2="16.933"
       gradientUnits="userSpaceOnUse"
       xlink:href="#linearGradient6261" />
    <linearGradient
       id="linearGradient6261">
      <stop
         offset="0"
         id="stop3" />
      <stop
         stop-opacity="0"
         offset="1"
         id="stop5" />
    </linearGradient>
    <radialGradient
       id="radialGradient6723-5"
       cx="35"
       cy="4"
       r="3.7275"
       gradientTransform="matrix(1.696 0 0 1.0731 -24.361 -.29238)"
       gradientUnits="userSpaceOnUse"
       xlink:href="#linearGradient6261" />
    <linearGradient
       id="linearGradient6725-3"
       x1="43"
       x2="46.748"
       y1="12"
       y2="8.2517"
       gradientUnits="userSpaceOnUse"
       xlink:href="#linearGradient6261" />
    <radialGradient
       id="radialGradient6727-5"
       cx="52"
       cy="22"
       r="5.2061"
       gradientTransform="matrix(.96042 0 0 1.3331 2.0581 -7.3283)"
       gradientUnits="userSpaceOnUse"
       xlink:href="#linearGradient6261" />
    <linearGradient
       id="linearGradient6729-6"
       x1="5.8207"
       x2="5.8207"
       y1="1.0583"
       gradientUnits="userSpaceOnUse"
       xlink:href="#linearGradient6261" />
    <radialGradient
       id="radialGradient6731-2"
       cx="3.1749"
       cy="1.3229"
       r=".79373"
       gradientTransform="matrix(-2.1078e-8 -1.3333 1.6667 -2.6348e-8 .97012 5.2916)"
       gradientUnits="userSpaceOnUse"
       xlink:href="#linearGradient6261" />
    <linearGradient
       id="linearGradient6733-9"
       x1="13.758"
       x2="15.081"
       y1="10.583"
       y2="10.583"
       gradientUnits="userSpaceOnUse"
       xlink:href="#linearGradient6261" />
    <linearGradient
       id="linearGradient6735-1"
       x1="3.1749"
       x2="1.852"
       y1="8.4665"
       y2="8.4665"
       gradientUnits="userSpaceOnUse"
       xlink:href="#linearGradient6261" />
    <radialGradient
       id="radialGradient6737-2"
       cx="13.758"
       cy="15.346"
       r=".79373"
       gradientTransform="matrix(5.1718e-7 2 -1.6667 4.3098e-7 39.334 -12.171)"
       gradientUnits="userSpaceOnUse"
       xlink:href="#linearGradient6261" />
    <radialGradient
       id="radialGradient6739-7"
       cx="3.1749"
       cy="15.346"
       r=".79373"
       gradientTransform="matrix(-1.6667 -1.37e-6 1.644e-6 -2 8.4665 46.037)"
       gradientUnits="userSpaceOnUse"
       xlink:href="#linearGradient6261" />
    <linearGradient
       id="linearGradient6741-0"
       x1="7.9373"
       x2="7.9373"
       y1="15.346"
       y2="16.668"
       gradientUnits="userSpaceOnUse"
       xlink:href="#linearGradient6261" />
    <radialGradient
       id="radialGradient6743-9"
       cx="35"
       cy="4"
       r="3.7275"
       gradientTransform="matrix(1.6115 -1.9122e-7 9.5496e-8 .80482 -21.403 .78072)"
       gradientUnits="userSpaceOnUse"
       xlink:href="#linearGradient6261" />
    <linearGradient
       id="linearGradient6745-3"
       x1="43"
       x2="46.004"
       y1="12"
       y2="8.9965"
       gradientUnits="userSpaceOnUse"
       xlink:href="#linearGradient6261" />
    <radialGradient
       id="radialGradient6747-6"
       cx="52"
       cy="22"
       r="5.2061"
       gradientTransform="matrix(.76834 -9.6042e-8 1.534e-7 1.2272 12.047 -4.9986)"
       gradientUnits="userSpaceOnUse"
       xlink:href="#linearGradient6261" />
    <linearGradient
       id="linearGradient6749-0"
       x1="5.8207"
       x2="5.8207"
       y1="1.0583"
       y2=".26458"
       gradientUnits="userSpaceOnUse"
       xlink:href="#linearGradient6261" />
    <radialGradient
       id="radialGradient6751-6"
       cx="3.1749"
       cy="1.3229"
       r=".79373"
       gradientTransform="matrix(-7.442e-8 -1 1.3333 -9.9226e-8 1.4111 4.2333)"
       gradientUnits="userSpaceOnUse"
       xlink:href="#linearGradient6261" />
    <linearGradient
       id="linearGradient6753-2"
       x1="13.758"
       x2="14.816"
       y1="10.583"
       y2="10.583"
       gradientUnits="userSpaceOnUse"
       xlink:href="#linearGradient6261" />
    <linearGradient
       id="linearGradient6755-6"
       x1="3.1749"
       x2="2.1166"
       y1="8.4665"
       y2="8.4665"
       gradientUnits="userSpaceOnUse"
       xlink:href="#linearGradient6261" />
    <radialGradient
       id="radialGradient6757-1"
       cx="13.758"
       cy="15.346"
       r=".79373"
       gradientTransform="matrix(0 1.6667 -1.3333 0 34.219 -7.5846)"
       gradientUnits="userSpaceOnUse"
       xlink:href="#linearGradient6261" />
    <radialGradient
       id="radialGradient6759-8"
       cx="3.1749"
       cy="15.346"
       r=".79373"
       gradientTransform="matrix(-1.3333 0 0 -1.6667 7.4082 40.921)"
       gradientUnits="userSpaceOnUse"
       xlink:href="#linearGradient6261" />
    <linearGradient
       id="linearGradient6761-7"
       x1="21.039"
       x2="21.039"
       y1="2"
       y2="62"
       gradientTransform="matrix(.26458 0 0 .26458 0 -.26458)"
       gradientUnits="userSpaceOnUse">
      <stop
         stop-color="#ff5b59"
         offset="0"
         id="stop27" />
      <stop
         stop-color="#ff983d"
         offset="1"
         id="stop29" />
    </linearGradient>
    <radialGradient
       id="radialGradient6763-2"
       cx="40"
       cy="12"
       r="8"
       gradientTransform="matrix(1.5 0 0 -2 -14 40)"
       gradientUnits="userSpaceOnUse"
       xlink:href="#linearGradient6261" />
    <radialGradient
       id="radialGradient6765-3"
       cx="10.583"
       cy="4.2333"
       r="2.1166"
       gradientTransform="matrix(-2 3.1236e-7 -3.1236e-7 -2 31.749 12.7)"
       gradientUnits="userSpaceOnUse"
       xlink:href="#linearGradient6261" />
    <radialGradient
       id="radialGradient6767-7"
       cx="40"
       cy="12"
       r="8"
       gradientTransform="matrix(0 -1.5 2 0 16 70)"
       gradientUnits="userSpaceOnUse"
       xlink:href="#linearGradient6261" />
    <linearGradient
       id="linearGradient7282"
       x1="10.583"
       x2="6.3499"
       y1="3.1749"
       y2="3.1749"
       gradientTransform="matrix(1 0 0 .66667 0 1.4111)"
       gradientUnits="userSpaceOnUse"
       xlink:href="#linearGradient6261" />
    <linearGradient
       id="linearGradient7284"
       x1="10.583"
       x2="8.7311"
       y1="3.0426"
       y2="3.0426"
       gradientTransform="matrix(1 0 0 .66667 0 1.4111)"
       gradientUnits="userSpaceOnUse"
       xlink:href="#linearGradient6261" />
    <radialGradient
       id="radialGradient6773-5"
       cx="10.583"
       cy="4.2333"
       r="2.1166"
       gradientTransform="matrix(-.875 -1.6564e-7 1.6631e-7 -.87849 19.843 7.9521)"
       gradientUnits="userSpaceOnUse"
       xlink:href="#linearGradient6261" />
    <radialGradient
       id="radialGradient6775-9"
       cx="40"
       cy="12"
       r="8"
       gradientTransform="matrix(0 -1.3078 .87983 0 29.442 62.311)"
       gradientUnits="userSpaceOnUse"
       xlink:href="#linearGradient6261" />
    <linearGradient
       id="linearGradient7286"
       x1="10.583"
       x2="6.3499"
       y1="3.1749"
       y2="3.1749"
       gradientTransform="matrix(1 0 0 .66667 -14.816 9.3484)"
       gradientUnits="userSpaceOnUse"
       xlink:href="#linearGradient6261" />
    <linearGradient
       id="linearGradient7288"
       x1="10.583"
       x2="8.7237"
       y1="3.0426"
       y2="3.0426"
       gradientTransform="matrix(1 0 0 .66667 -14.816 9.3484)"
       gradientUnits="userSpaceOnUse"
       xlink:href="#linearGradient6261" />
    <radialGradient
       id="radialGradient6781-2"
       cx="40"
       cy="12"
       r="8"
       gradientTransform="matrix(1.4336 0 0 -.87849 -11.344 26.542)"
       gradientUnits="userSpaceOnUse"
       xlink:href="#linearGradient6261" />
    <linearGradient
       id="linearGradient7290"
       x1="40"
       x2="46"
       y1="17"
       y2="11"
       gradientTransform="matrix(.26458 0 0 .26458 -1.6667e-7 -.26458)"
       gradientUnits="userSpaceOnUse">
      <stop
         stop-color="#fefefe"
         offset="0"
         id="stop42" />
      <stop
         stop-color="#e9e9e9"
         offset="1"
         id="stop44" />
    </linearGradient>
    <clipPath
       clipPathUnits="userSpaceOnUse"
       id="clipPath375">
      <path
         d="m 3.665341,1.219379 c -0.2531701,0 -0.4569933,0.2091037 -0.4569933,0.4688332 V 14.815114 c 0,0.259739 0.2038232,0.468835 0.4569933,0.468835 h 9.596549 c 0.25318,0 0.456993,-0.209104 0.456993,-0.468835 V 5.6725323 c 0,-0.2344169 -0.139155,-0.6115936 -0.456993,-0.937649 L 10.291467,1.6875034 C 9.9857202,1.2905865 9.6059779,1.2186703 9.3774984,1.2186703 Z"
         fill="url(#linearGradient6761-7)"
         stroke-width="0.231438"
         id="path377"
         style="display:none;fill:#333333" />
      <path
         id="lpe_path-effect379"
         style="fill:#333333"
         class="powerclip"
         d="M -2.61876,-4.73622 H 19.55156 V 21.1389 H -2.61876 Z m 6.284101,5.955599 c -0.2531701,0 -0.4569933,0.2091037 -0.4569933,0.4688332 V 14.815114 c 0,0.259739 0.2038232,0.468835 0.4569933,0.468835 h 9.596549 c 0.25318,0 0.456993,-0.209104 0.456993,-0.468835 V 5.6725323 c 0,-0.2344169 -0.139155,-0.6115936 -0.456993,-0.937649 L 10.291467,1.6875034 C 9.9857202,1.2905865 9.6059779,1.2186703 9.3774984,1.2186703 Z" />
    </clipPath>
  </defs>
  <g
     transform="matrix(3.7796 0 0 3.7796 -.021092 1.0245)"
     id="g121">
    <path
       d="m 2.9104,0.26458 c -0.29315,0 -0.52916,0.23601 -0.52916,0.52916 v 14.816 c 0,0.29316 0.23601,0.52916 0.52916,0.52916 h 11.112 c 0.29316,0 0.52916,-0.23601 0.52916,-0.52916 v -10.319 c 0,-0.26458 -0.16113,-0.69029 -0.52916,-1.0583 L 10.5829,0.79294 C 10.22887,0.34495 9.78916,0.26378 9.5246,0.26378 Z"
       fill="url(#linearGradient6761-7)"
       stroke-width="0.26458"
       id="path93"
       style="fill:#ffffff"
       clip-path="url(#clipPath375)"
       inkscape:path-effect="#path-effect379"
       inkscape:original-d="m 2.9104,0.26458 c -0.29315,0 -0.52916,0.23601 -0.52916,0.52916 v 14.816 c 0,0.29316 0.23601,0.52916 0.52916,0.52916 h 11.112 c 0.29316,0 0.52916,-0.23601 0.52916,-0.52916 v -10.319 c 0,-0.26458 -0.16113,-0.69029 -0.52916,-1.0583 L 10.5829,0.79294 C 10.22887,0.34495 9.78916,0.26378 9.5246,0.26378 Z"
       transform="matrix(1,0,0,0.88113981,0,1.0428615)" />
    <path
       d="m 3.665341,2.1173049 c -0.25317,0 -0.456993,0.1842496 -0.456993,0.4131075 V 14.097048 c 0,0.228866 0.203823,0.41311 0.456993,0.41311 h 9.596549 c 0.25318,0 0.456993,-0.18425 0.456993,-0.41311 V 6.0411555 c 0,-0.206554 -0.139155,-0.5388995 -0.456993,-0.8261997 L 10.291467,2.529788 C 9.98572,2.1800487 9.605978,2.1166804 9.377498,2.1166804 Z"
       fill="url(#linearGradient6761-7)"
       stroke-width="0.217248"
       id="path93-3-3"
       style="opacity:0.5;fill:#333333" />
    <path
       fill="#ffffff"
       d="M 9.613767,11.072841 C 9.522031,11.73273 9.514486,11.833617 8.6105197,11.833617 H 7.837599 c -0.2224084,0 -0.2329779,-0.02792 -0.2329779,-0.218152 V 10.355054 H 8.129946 c 0.525325,0 0.4691044,0.253562 0.4691044,0.720235 H 8.7949231 V 9.4123052 H 8.5990504 c 0,0.4588579 0.056221,0.6464198 -0.4691043,0.6464198 H 7.6046211 V 8.6884103 c 0,-0.1866693 0.010571,-0.2145804 0.232978,-0.2145804 h 0.7614513 c 0.8617489,0 0.9620464,0.3400706 1.0400809,1.0711088 H 9.7841799 V 8.1943486 H 7.4114771 L 7.2537258,7.121819 H 3.9080406 l -0.07195,1.2229481 H 4.008113 C 4.080075,7.4288394 4.104133,7.4431643 4.9676809,7.4431643 h 0.3074138 c 0.10637,0.016532 0.1614709,0.083734 0.1614709,0.2110081 v 2.8352766 c 0,0.199844 -0.016866,0.260801 -0.4859706,0.260801 H 4.7925025 v 0.325039 c 0.2671601,-0.0052 0.5455646,-0.01052 0.8187964,-0.01052 0.2723324,0 0.5516361,0.0053 0.8185714,0.01052 V 10.75025 H 6.2744767 c -0.4621352,0 -0.4787742,-0.06096 -0.4787742,-0.260801 V 7.6541724 c 0,-0.1221364 0,-0.1884532 0.1002969,-0.2110081 h 0.305615 c 0.802619,0 0.9232347,-0.013507 0.9946773,0.7511843 H 6.7860499 v 0.2794813 c 0.3944431,0 0.4576351,0 0.4576351,0.2485136 v 2.8609675 c 0,0.248542 -0.062292,0.248542 -0.4576351,0.248542 v 0.323788 h 2.99813 v -1.080374 c 0.1520134,-5.23e-4 0.4069721,-0.01019 0.5420431,2.2e-5 v -0.323252 c -0.17226,-0.0165 -0.222183,-0.127275 -0.222183,-0.216367 0,-0.07145 0.02721,-0.110751 0.05532,-0.15005 l 0.890758,-1.2908247 0.968793,1.4138567 c 0.04386,0.0612 0.04386,0.0777 0.04386,0.09423 0,0.04354 -0.04992,0.138662 -0.244896,0.15005 v 0.322359 c 0.178331,-0.01049 0.484846,0 0.668349,0 0.144151,0 0.388373,-0.01049 0.523526,0 V 10.75293 c -0.356662,0 -0.412883,-0.02702 -0.523526,-0.183075 L 11.261734,8.7913439 12.085702,7.6085867 c 0.08253,-0.1161143 0.250294,-0.2058719 0.707255,-0.2118961 V 7.1139961 c -0.127509,0.010494 -0.339122,0.010494 -0.472703,0.010494 -0.183503,0 -0.411984,0 -0.550736,-0.010494 v 0.2826945 c 0.178331,0.016518 0.160972,0.049565 0.160972,0.1386554 0,0.066098 -0.121393,0.2439629 -0.160972,0.2988853 l -0.579747,0.854179 c 0,0 -0.742362,-1.1365455 -0.742362,-1.1530643 0,-0.049798 -0.121186,-0.1386554 0.119439,-0.1386554 V 7.1139961 c -0.178333,0.010494 -0.450665,0.010494 -0.6341692,0.010494 -0.1441495,0 -0.4225535,0 -0.5570332,-0.010494 v 0.2826945 c 0.30584,0 0.5113822,0.040191 0.6343934,0.2118961 l 0.968793,1.3886298 -0.968793,1.4051725 c -0.2390502,0.34364 -0.600886,0.349648 -0.7072549,0.349648 v 0.323252 c 0.083456,-0.0069 0.2017562,-0.0047 0.3109829,-0.0025 z"
       id="path42"
       style="stroke-width:0.0334466;fill:#ffffff" />
  </g>
</svg>
