<?xml version="1.0" encoding="UTF-8" standalone="no"?>
<svg
   width="64"
   height="64"
   version="1.1"
   viewBox="0 0 64 64"
   id="svg24"
   sodipodi:docname="application-x-compressed-tar.svg"
   inkscape:version="1.2.2 (b0a8486541, 2022-12-01)"
   xmlns:inkscape="http://www.inkscape.org/namespaces/inkscape"
   xmlns:sodipodi="http://sodipodi.sourceforge.net/DTD/sodipodi-0.dtd"
   xmlns="http://www.w3.org/2000/svg"
   xmlns:svg="http://www.w3.org/2000/svg"
   xmlns:rdf="http://www.w3.org/1999/02/22-rdf-syntax-ns#"
   xmlns:cc="http://creativecommons.org/ns#"
   xmlns:dc="http://purl.org/dc/elements/1.1/">
  <sodipodi:namedview
     id="namedview26"
     pagecolor="#ffffff"
     bordercolor="#666666"
     borderopacity="1.0"
     inkscape:showpageshadow="2"
     inkscape:pageopacity="0.0"
     inkscape:pagecheckerboard="0"
     inkscape:deskcolor="#d1d1d1"
     showgrid="false"
     inkscape:zoom="14.109375"
     inkscape:cx="18.994463"
     inkscape:cy="32.035437"
     inkscape:window-width="1920"
     inkscape:window-height="1007"
     inkscape:window-x="0"
     inkscape:window-y="0"
     inkscape:window-maximized="1"
     inkscape:current-layer="g16" />
  <metadata
     id="metadata2">
    <rdf:RDF>
      <cc:Work
         rdf:about="">
        <dc:format>image/svg+xml</dc:format>
        <dc:type
           rdf:resource="http://purl.org/dc/dcmitype/StillImage" />
        <dc:title />
      </cc:Work>
    </rdf:RDF>
  </metadata>
  <defs
     id="defs9">
    <linearGradient
       id="a"
       x1="49.571"
       x2="51.714"
       y1="52.714"
       y2="54.857"
       gradientTransform="matrix(2.3333,0,0,2.3333,-68.667,-72.001)"
       gradientUnits="userSpaceOnUse">
      <stop
         offset="0"
         id="stop4" />
      <stop
         stop-opacity="0"
         offset="1"
         id="stop6" />
    </linearGradient>
  </defs>
  <style
     id="current-color-scheme">      .ColorScheme-Text {
  color:#31363b;
  stop-color:#31363b;
  }
  .ColorScheme-ButtonHover {
  color:#93cee9;
  stop-color:#93cee9;
  }
  .ColorScheme-ButtonFocus{
  color:#3daee9;
  stop-color:#3daee9;
  }
  .ColorScheme-PositiveText {
  color:#27ae60;
  }
  .ColorScheme-NeutralText {
  color:#f67400;
  }
  .ColorScheme-NegativeText {
  color:#ff2a2a;
  }</style>
  <g
     transform="scale(1)"
     id="g16">
    <rect
       x="8"
       y="4"
       width="48"
       height="56"
       ry="5"
       fill="currentColor"
       style="paint-order:stroke fill markers"
       id="rect12"
       class="ColorScheme-NegativeText" />
    <rect
       x="8"
       y="4"
       width="48"
       height="56"
       ry="5"
       fill="currentColor"
       style="paint-order:stroke fill markers;opacity:0.6"
       id="rect302"
       class="ColorScheme-Highlight" />
    <path
       d="m56 46-14 14h9c2.77 0 5-2.23 5-5z"
       fill="url(#a)"
       fill-rule="evenodd"
       opacity=".15"
       stroke-width="8.8191"
       style="paint-order:stroke fill markers"
       id="path14" />
  </g>
  <g
     transform="matrix(3.7796 0 0 3.7796 -101.04 4.424)"
     fill="#fff"
     id="g22">
    <path
       d="m34.671 7.0315v1.7198c0 0.07329 0.059 0.13229 0.13229 0.13229h0.79374c0.07329 0 0.13229-0.059 0.13229-0.13229v-1.7198zm0.26458 1.0583h0.52916v0.52916h-0.52916z"
       color="#000000"
       id="path18" />
    <path
       d="m35.2-0.11215v0.52916h0.52916v-0.52916zm0 0.52916h-0.52916v0.52916h0.52916zm0 0.52916v0.52916h0.52916v-0.52916zm0 0.52916h-0.52916v0.52916h0.52916zm0 0.52916v0.52916h0.52916v-0.52916zm0 0.52916h-0.52916v0.52916h0.52916zm0 0.52916v0.52916h0.52916v-0.52916zm0 0.52916h-0.52916v0.52916h0.52916zm0 0.52916v0.52916h0.52916v-0.52916zm0 0.52916h-0.52916v0.52916h0.52916zm0 0.52916v0.52916h0.52916v-0.52916zm0 0.52916h-0.52916v0.52916h0.52916zm0 0.52916v0.52916h0.52916v-0.52916z"
       color="#000000"
       id="path20" />
  </g>
</svg>
