
<svg xmlns="http://www.w3.org/2000/svg" xmlns:xlink="http://www.w3.org/1999/xlink" width="16px" height="16px" viewBox="0 0 16 16" version="1.1">
<g id="surface1">
<path style=" stroke:none;fill-rule:nonzero;fill:#aaaaaa;fill-opacity:1;" d="M 12 0 C 10.339844 0 9 1.351562 9 3 C 9 3.230469 9.039062 3.441406 9.089844 3.660156 L 5.871094 5.660156 C 5.359375 5.25 4.710938 5 4 5 C 2.339844 5 1 6.351562 1 8 C 1 9.660156 2.339844 11 4 11 C 4.710938 11 5.359375 10.761719 5.878906 10.351562 L 9.089844 12.351562 C 9.039062 12.558594 9 12.769531 9 13 C 9 14.660156 10.339844 16 12 16 C 13.660156 16 15 14.660156 15 13 C 15 11.351562 13.660156 10 12 10 C 11.289062 10 10.640625 10.25 10.128906 10.660156 L 6.910156 8.660156 C 6.960938 8.441406 7 8.230469 7 8 C 7 7.769531 6.960938 7.558594 6.910156 7.351562 L 10.128906 5.351562 C 10.640625 5.761719 11.289062 6 12 6 C 13.660156 6 15 4.660156 15 3 C 15 1.351562 13.660156 0 12 0 Z M 12 0 "/>
</g>
</svg>
