
<svg xmlns="http://www.w3.org/2000/svg" xmlns:xlink="http://www.w3.org/1999/xlink" width="16px" height="16px" viewBox="0 0 16 16" version="1.1">
<g id="surface1">
<path style=" stroke:none;fill-rule:nonzero;fill:#aaaaaa;fill-opacity:1;" d="M 6 1 C 5.445312 1 5 1.445312 5 2 L 5 3 L 9 3 L 13 7 L 13 13 L 14 13 C 14.554688 13 15 12.554688 15 12 L 15 5 L 11 1 Z M 6 1 "/>
<path style=" stroke:none;fill-rule:nonzero;fill:#aaaaaa;fill-opacity:1;" d="M 3 4 C 2.445312 4 2 4.445312 2 5 L 2 15 C 2 15.554688 2.445312 16 3 16 L 11 16 C 11.554688 16 12 15.554688 12 15 L 12 8 L 8 4 Z M 3 4 "/>
</g>
</svg>
