
<svg xmlns="http://www.w3.org/2000/svg" xmlns:xlink="http://www.w3.org/1999/xlink" width="16px" height="16px" viewBox="0 0 16 16" version="1.1">
<g id="surface1">
<path style=" stroke:none;fill-rule:nonzero;fill:#aaaaaa;fill-opacity:1;" d="M 6.25 1 L 6.101562 2.839844 C 5.515625 3.054688 4.96875 3.371094 4.488281 3.769531 L 2.808594 2.980469 L 1.058594 6.019531 L 2.578125 7.070312 C 2.527344 7.378906 2.5 7.6875 2.5 8 C 2.5 8.3125 2.527344 8.621094 2.578125 8.929688 L 1.058594 9.980469 L 2.808594 13.019531 L 4.480469 12.230469 C 4.964844 12.625 5.511719 12.9375 6.101562 13.148438 L 6.25 15 L 9.75 15 L 9.898438 13.160156 C 10.484375 12.945312 11.03125 12.628906 11.511719 12.230469 L 13.191406 13.019531 L 14.941406 9.980469 L 13.421875 8.929688 C 13.472656 8.621094 13.5 8.3125 13.5 8 C 13.5 7.6875 13.472656 7.378906 13.421875 7.070312 L 14.941406 6.019531 L 13.191406 2.980469 L 11.519531 3.769531 C 11.035156 3.375 10.488281 3.0625 9.898438 2.851562 L 9.75 1 Z M 8 6 C 9.105469 6 10 6.894531 10 8 C 10 9.105469 9.105469 10 8 10 C 6.894531 10 6 9.105469 6 8 C 6 6.894531 6.894531 6 8 6 Z M 8 6 "/>
</g>
</svg>
