
<svg xmlns="http://www.w3.org/2000/svg" xmlns:xlink="http://www.w3.org/1999/xlink" width="16px" height="16px" viewBox="0 0 16 16" version="1.1">
<g id="surface1">
<path style=" stroke:none;fill-rule:nonzero;fill:#aaaaaa;fill-opacity:1;" d="M 5 1 L 5 9.191406 C 4.679688 9.078125 4.359375 9 4 9 C 2.339844 9 1 10.351562 1 12 C 1 13.660156 2.339844 15 4 15 C 5.660156 15 7 13.660156 7 12 L 7 5 L 13 5 L 13 9.191406 C 12.679688 9.078125 12.359375 9 12 9 C 10.339844 9 9 10.351562 9 12 C 9 13.660156 10.339844 15 12 15 C 13.660156 15 15 13.660156 15 12 L 15 1 Z M 5 1 "/>
</g>
</svg>
