<?xml version="1.0" encoding="UTF-8" standalone="no"?>
<svg
   width="64"
   height="64"
   version="1.1"
   viewBox="0 0 16.933 16.933"
   id="svg7"
   sodipodi:docname="financial-schedule.svg"
   inkscape:version="1.4 (e7c3feb100, 2024-10-09)"
   xmlns:inkscape="http://www.inkscape.org/namespaces/inkscape"
   xmlns:sodipodi="http://sodipodi.sourceforge.net/DTD/sodipodi-0.dtd"
   xmlns="http://www.w3.org/2000/svg"
   xmlns:svg="http://www.w3.org/2000/svg"
   xmlns:rdf="http://www.w3.org/1999/02/22-rdf-syntax-ns#"
   xmlns:cc="http://creativecommons.org/ns#"
   xmlns:dc="http://purl.org/dc/elements/1.1/">
  <sodipodi:namedview
     id="namedview7"
     pagecolor="#9c4444"
     bordercolor="#000000"
     borderopacity="0.25"
     inkscape:showpageshadow="2"
     inkscape:pageopacity="0.0"
     inkscape:pagecheckerboard="0"
     inkscape:deskcolor="#d1d1d1"
     inkscape:zoom="6.15625"
     inkscape:cx="15.756345"
     inkscape:cy="29.563452"
     inkscape:window-width="1226"
     inkscape:window-height="669"
     inkscape:window-x="124"
     inkscape:window-y="132"
     inkscape:window-maximized="0"
     inkscape:current-layer="svg7"
     showgrid="false" />
  <defs
     id="defs2">
    <rect
       x="67.489848"
       y="35.60533"
       width="15.337563"
       height="22.51269"
       id="rect3808" />
    <filter
       style="color-interpolation-filters:sRGB;"
       inkscape:label="Blur"
       id="filter1283"
       x="-0.082344266"
       y="-0.082344266"
       width="1.1646885"
       height="1.1646885">
      <feGaussianBlur
         stdDeviation="0.5 0.5"
         result="blur"
         id="feGaussianBlur1281" />
    </filter>
  </defs>
  <metadata
     id="metadata2">
    <rdf:RDF>
      <cc:Work
         rdf:about="">
        <dc:format>image/svg+xml</dc:format>
        <dc:type
           rdf:resource="http://purl.org/dc/dcmitype/StillImage" />
      </cc:Work>
    </rdf:RDF>
  </metadata>
  <path
     id="path51393"
     style="fill:#f9f9f9;fill-opacity:1;stroke:none;stroke-width:0.432187;stroke-dasharray:none;stroke-opacity:0.3"
     d="M 12.125022,4.4756845 C 10.501307,4.4729545 9.5223978,5.3861767 9.1275582,7.2714031 8.922369,8.2511227 8.9247779,9.990403 9.1326282,10.76183 c 0.2941374,1.091712 0.9206268,1.792748 1.7464798,1.955822 0.672074,0.13272 1.49411,-0.12465 1.909395,-0.597635 0.52226,-0.594819 0.773081,-1.640736 0.629711,-2.6243632 C 13.321276,8.8305202 13.100869,8.3748788 12.693121,7.999033 12.3463,7.679345 12.029986,7.5677345 11.477592,7.5693763 10.966498,7.5709129 10.608458,7.7481034 10.219854,8.1923356 L 9.8965568,8.561215 V 8.2421384 c 0,-0.4782154 0.1807252,-1.3294896 0.3671912,-1.729597 0.206163,-0.4423724 0.537533,-0.7808291 0.938661,-0.9597623 0.365055,-0.1628418 1.162566,-0.230244 1.528697,-0.1291515 l 0.258298,0.070905 V 5.0268937 c 0,-0.55182 0.0024,-0.5497397 -0.864376,-0.5512092 z m -6.4372444,0.00677 c -0.057605,2.838e-4 -0.1167075,0.00211 -0.1772639,0.00507 C 5.0019605,4.512142 4.8534417,4.5486895 4.5017922,4.7373761 4.2750149,4.8590549 3.9681069,5.0621281 3.8189006,5.1881308 L 3.5470949,5.4168865 3.7741617,5.7705722 c 0.1248,0.1944804 0.2474069,0.3536849 0.272651,0.3536849 0.025245,0 0.1594725,-0.093492 0.2979736,-0.2076527 0.3959984,-0.326416 0.7922258,-0.4769295 1.2636444,-0.478615 0.7649888,-0.00274 1.1381043,0.4214077 1.1353386,1.2906565 -0.00312,0.9910604 -0.185631,1.2903743 -2.4749535,4.0686491 l -0.7630824,0.926841 v 0.464265 0.464263 h 2.2335351 2.233536 V 12.136912 11.621998 H 6.3174896 c -0.9570903,0 -1.6457705,-0.02655 -1.6325238,-0.06247 0.012585,-0.03416 0.4253607,-0.53249 0.9167122,-1.107484 C 7.4292354,8.3133881 7.7415305,7.7116729 7.684961,6.4408013 7.661373,5.9109418 7.6270299,5.7587461 7.4578925,5.4489632 7.0895865,4.7743949 6.5518605,4.4781821 5.6877776,4.4824478 Z M 0.64164093,6.5387116 C 0.53434668,6.5377994 0.41983068,6.5925451 0.30737058,6.7050025 L 0.13854663,6.8738263 v 1.7118712 c 0,1.6277915 0.00639,1.7203355 0.1418115,1.8925125 0.21920745,0.278676 0.54731325,0.233609 0.7191888,-0.09876 0.14655297,-0.283408 0.14655297,-3.2796149 0,-3.563022 -0.0946098,-0.1829543 -0.219954,-0.2765639 -0.357906,-0.2777154 z m 15.73689007,0 c -0.10728,-9.122e-4 -0.221806,0.053831 -0.334273,0.1662909 l -0.168813,0.1688238 v 1.7118712 c 0,1.6277975 0.0072,1.7203355 0.142665,1.8925125 0.219211,0.278678 0.547311,0.233609 0.719187,-0.09876 0.14655,-0.283409 0.14655,-3.2796135 0,-3.563022 C 16.64268,6.6334733 16.516485,6.5398637 16.378531,6.5387116 Z m -5.059642,1.9220569 c 0.49935,0 0.796003,0.1715717 1.011255,0.5841296 0.121155,0.2322235 0.143505,0.3976335 0.143505,1.0652759 0,0.737395 -0.01275,0.8116 -0.188238,1.110016 -0.13056,0.222097 -0.278727,0.363391 -0.485358,0.463422 -0.338814,0.16401 -0.676028,0.180505 -0.975803,0.04728 -0.759167,-0.337421 -1.1598182,-1.8199296 -0.702321,-2.5982073 0.265927,-0.4523859 0.657126,-0.671918 1.19696,-0.671918 z" />
  <text
     xml:space="preserve"
     transform="scale(0.26457812)"
     id="text3806"
     style="fill:#999999;stroke-width:2;font-size:6.66666667px;white-space:pre;shape-inside:url(#rect3808)" />
</svg>
