<?xml version="1.0" encoding="UTF-8" standalone="no"?>
<svg
   width="64"
   height="64"
   version="1.1"
   viewBox="0 0 16.933 16.933"
   id="svg7"
   sodipodi:docname="preferences-git.svg"
   inkscape:version="1.4 (e7c3feb100, 2024-10-09)"
   xmlns:inkscape="http://www.inkscape.org/namespaces/inkscape"
   xmlns:sodipodi="http://sodipodi.sourceforge.net/DTD/sodipodi-0.dtd"
   xmlns="http://www.w3.org/2000/svg"
   xmlns:svg="http://www.w3.org/2000/svg"
   xmlns:rdf="http://www.w3.org/1999/02/22-rdf-syntax-ns#"
   xmlns:cc="http://creativecommons.org/ns#"
   xmlns:dc="http://purl.org/dc/elements/1.1/">
  <sodipodi:namedview
     id="namedview7"
     pagecolor="#9c4444"
     bordercolor="#000000"
     borderopacity="0.25"
     inkscape:showpageshadow="2"
     inkscape:pageopacity="0.0"
     inkscape:pagecheckerboard="0"
     inkscape:deskcolor="#d1d1d1"
     inkscape:zoom="6.15625"
     inkscape:cx="15.756345"
     inkscape:cy="29.563452"
     inkscape:window-width="1226"
     inkscape:window-height="669"
     inkscape:window-x="124"
     inkscape:window-y="132"
     inkscape:window-maximized="0"
     inkscape:current-layer="svg7"
     showgrid="false" />
  <defs
     id="defs2">
    <rect
       x="67.489848"
       y="35.60533"
       width="15.337563"
       height="22.51269"
       id="rect3808" />
    <filter
       style="color-interpolation-filters:sRGB;"
       inkscape:label="Blur"
       id="filter1283"
       x="-0.082344266"
       y="-0.082344266"
       width="1.1646885"
       height="1.1646885">
      <feGaussianBlur
         stdDeviation="0.5 0.5"
         result="blur"
         id="feGaussianBlur1281" />
    </filter>
  </defs>
  <metadata
     id="metadata2">
    <rdf:RDF>
      <cc:Work
         rdf:about="">
        <dc:format>image/svg+xml</dc:format>
        <dc:type
           rdf:resource="http://purl.org/dc/dcmitype/StillImage" />
      </cc:Work>
    </rdf:RDF>
  </metadata>
  <path
     d="m 8.4533545,0.37034769 c -0.2627286,0 -0.521478,0.099528 -0.7205175,0.29855145 L 6.1166418,2.285107 11.454857,7.6193501 c 0.179167,-0.075687 0.370237,-0.1154445 0.56527,-0.1154445 0.843921,0 1.528619,0.6846881 1.528619,1.5286161 0,0.8439209 -0.684698,1.5286183 -1.528619,1.5286183 -0.843925,0 -1.528614,-0.6846974 -1.528614,-1.5286183 0,-0.1870698 0.03595,-0.3702298 0.103484,-0.5413816 L 8.5051092,6.4012229 v 4.2673911 c 0.5851677,0.23089 0.9673225,0.792169 0.9673225,1.42113 0,0.843928 -0.6846891,1.528615 -1.5286152,1.528615 -0.8439276,0 -1.5286156,-0.684687 -1.5286156,-1.528615 0,-0.668768 0.4339041,-1.257924 1.0708269,-1.456963 V 5.3821511 L 5.2528158,3.148931 0.59929091,7.8024502 c -0.3980778,0.3980977 -0.3980778,1.0429678 0,1.4410417 L 7.732837,16.377038 c 0.3980951,0.398095 1.0429614,0.398095 1.4410391,0 L 16.307424,9.2434919 c 0.394109,-0.3980527 0.394109,-1.0429612 0,-1.4410417 L 9.1738761,0.66890679 C 8.9748711,0.46984869 8.7160839,0.37035444 8.4533545,0.37035444 Z m 0,0"
     id="path1-7"
     style="fill:#f9f9f9;stroke:none;stroke-width:1.02937;stroke-dasharray:none;stroke-opacity:0.3" />
  <text
     xml:space="preserve"
     transform="scale(0.26457812)"
     id="text3806"
     style="font-size:6.66667px;white-space:pre;shape-inside:url(#rect3808);display:inline;fill:#999999;stroke-width:2" />
</svg>
