<?xml version="1.0" encoding="UTF-8" standalone="no"?>
<svg
   width="64"
   height="64"
   version="1.1"
   viewBox="0 0 16.933 16.933"
   id="svg7"
   sodipodi:docname="preferences-plugin.svg"
   inkscape:version="1.4 (e7c3feb100, 2024-10-09)"
   xmlns:inkscape="http://www.inkscape.org/namespaces/inkscape"
   xmlns:sodipodi="http://sodipodi.sourceforge.net/DTD/sodipodi-0.dtd"
   xmlns="http://www.w3.org/2000/svg"
   xmlns:svg="http://www.w3.org/2000/svg"
   xmlns:rdf="http://www.w3.org/1999/02/22-rdf-syntax-ns#"
   xmlns:cc="http://creativecommons.org/ns#"
   xmlns:dc="http://purl.org/dc/elements/1.1/">
  <sodipodi:namedview
     id="namedview7"
     pagecolor="#9c4444"
     bordercolor="#000000"
     borderopacity="0.25"
     inkscape:showpageshadow="2"
     inkscape:pageopacity="0.0"
     inkscape:pagecheckerboard="0"
     inkscape:deskcolor="#d1d1d1"
     inkscape:zoom="6.15625"
     inkscape:cx="15.756345"
     inkscape:cy="29.563452"
     inkscape:window-width="1226"
     inkscape:window-height="669"
     inkscape:window-x="124"
     inkscape:window-y="132"
     inkscape:window-maximized="0"
     inkscape:current-layer="svg7"
     showgrid="false" />
  <defs
     id="defs2">
    <rect
       x="67.489848"
       y="35.60533"
       width="15.337563"
       height="22.51269"
       id="rect3808" />
    <filter
       style="color-interpolation-filters:sRGB;"
       inkscape:label="Blur"
       id="filter1283"
       x="-0.082344266"
       y="-0.082344266"
       width="1.1646885"
       height="1.1646885">
      <feGaussianBlur
         stdDeviation="0.5 0.5"
         result="blur"
         id="feGaussianBlur1281" />
    </filter>
  </defs>
  <metadata
     id="metadata2">
    <rdf:RDF>
      <cc:Work
         rdf:about="">
        <dc:format>image/svg+xml</dc:format>
        <dc:type
           rdf:resource="http://purl.org/dc/dcmitype/StillImage" />
      </cc:Work>
    </rdf:RDF>
  </metadata>
  <path
     style="fill:#f9f9f9;fill-opacity:1;stroke:none;stroke-width:0.0606725;stroke-dashoffset:2.2;stroke-opacity:0.3"
     d="M 1.5211464,16.313893 C 1.2395675,16.165453 1.0604247,15.982049 0.93808623,15.716977 0.83589123,15.49555 0.82596123,15.284234 0.82474473,13.305242 L 0.82344773,11.1362 1.0813066,11.1376 c 0.1742311,9.6e-4 0.3562434,0.05928 0.5612197,0.179842 0.9241451,0.543545 1.2707985,0.610236 1.705814,0.328167 0.5557414,-0.360307 0.8405381,-1.078215 0.8011,-2.0193463 C 4.1128196,8.7523995 3.7993812,8.1433197 3.2375973,7.8543514 2.8416455,7.6506826 2.5071711,7.7215635 1.8304146,8.1525555 1.4572712,8.3901925 1.1632746,8.4889398 0.97190688,8.4409092 L 0.82344738,8.4036499 V 6.7029622 c 0,-1.8461383 0.00606,-1.8845569 0.35579322,-2.2612999 C 1.5264933,4.0676091 1.5132785,4.0696212 3.7579199,4.0490004 L 5.8126404,4.0301329 5.7873527,3.680581 C 5.7669533,3.3985473 5.7070736,3.2386185 5.477351,2.8526055 5.0141613,2.0742847 5.0164481,1.7196127 5.4876948,1.2483642 5.9030898,0.83296905 6.3341808,0.67778325 7.0727106,0.67778325 c 0.7385298,0 1.1696208,0.1551858 1.5850158,0.57058095 0.471248,0.4712485 0.4735353,0.8259205 0.010345,1.6042413 -0.2307766,0.3877863 -0.289558,0.5453484 -0.3102696,0.8316837 l -0.025552,0.3532587 h 1.7557822 c 1.977936,0 2.222703,0.036299 2.545758,0.3775407 0.358775,0.3789735 0.352047,0.3336018 0.384828,2.5954129 l 0.03035,2.0932019 0.14448,0.020437 c 0.265494,0.037548 0.519041,-0.048291 1.028703,-0.3482658 0.278174,-0.1637229 0.599043,-0.3151785 0.713045,-0.3365657 0.430347,-0.080733 0.993478,0.3356538 1.24383,0.9197027 0.500313,1.1671834 0.03139,2.7141504 -0.908019,2.9956054 -0.228237,0.06837 -0.269292,0.05954 -0.686336,-0.147945 -0.243985,-0.12138 -0.566242,-0.290232 -0.716148,-0.375252 -0.203785,-0.115575 -0.341556,-0.150084 -0.546052,-0.136695 l -0.273498,0.01797 -0.03035,1.941521 c -0.03266,2.090101 -0.03888,2.130652 -0.373439,2.434972 -0.334593,0.304345 -0.450748,0.325627 -1.777422,0.325627 H 9.6209565 v -0.232412 c 0,-0.135134 0.066921,-0.357312 0.159918,-0.530886 0.087956,-0.164158 0.2381205,-0.445662 0.3336995,-0.625555 0.522229,-0.982916 -0.2293839,-1.892238 -1.6463952,-1.991853 -1.0851737,-0.07628 -2.0643111,0.486825 -2.1661055,1.245753 -0.039819,0.296884 0.043589,0.558103 0.3254613,1.019299 0.2530554,0.414045 0.3898671,0.80901 0.3427029,0.989366 -0.032821,0.12552 -0.048936,0.12627 -2.6500332,0.12387 -2.2658587,-0.0021 -2.6414325,-0.01534 -2.7990271,-0.09839 z"
     id="path1-7" />
  <text
     xml:space="preserve"
     transform="scale(0.26457812)"
     id="text3806"
     style="font-size:6.66667px;white-space:pre;shape-inside:url(#rect3808);display:inline;fill:#999999;stroke-width:2" />
</svg>
