<?xml version="1.0" encoding="UTF-8" standalone="no"?>
<svg
   width="64"
   height="64"
   version="1.1"
   viewBox="0 0 16.933 16.933"
   id="svg7"
   sodipodi:docname="preferences-online-accounts.svg"
   inkscape:version="1.4 (e7c3feb100, 2024-10-09)"
   xmlns:inkscape="http://www.inkscape.org/namespaces/inkscape"
   xmlns:sodipodi="http://sodipodi.sourceforge.net/DTD/sodipodi-0.dtd"
   xmlns="http://www.w3.org/2000/svg"
   xmlns:svg="http://www.w3.org/2000/svg"
   xmlns:rdf="http://www.w3.org/1999/02/22-rdf-syntax-ns#"
   xmlns:cc="http://creativecommons.org/ns#"
   xmlns:dc="http://purl.org/dc/elements/1.1/">
  <sodipodi:namedview
     id="namedview7"
     pagecolor="#9c4444"
     bordercolor="#000000"
     borderopacity="0.25"
     inkscape:showpageshadow="2"
     inkscape:pageopacity="0.0"
     inkscape:pagecheckerboard="0"
     inkscape:deskcolor="#d1d1d1"
     inkscape:zoom="6.15625"
     inkscape:cx="15.756345"
     inkscape:cy="29.563452"
     inkscape:window-width="1226"
     inkscape:window-height="669"
     inkscape:window-x="124"
     inkscape:window-y="132"
     inkscape:window-maximized="0"
     inkscape:current-layer="svg7"
     showgrid="false" />
  <defs
     id="defs2">
    <rect
       x="67.489848"
       y="35.60533"
       width="15.337563"
       height="22.51269"
       id="rect3808" />
    <filter
       style="color-interpolation-filters:sRGB;"
       inkscape:label="Blur"
       id="filter1283"
       x="-0.082344266"
       y="-0.082344266"
       width="1.1646885"
       height="1.1646885">
      <feGaussianBlur
         stdDeviation="0.5 0.5"
         result="blur"
         id="feGaussianBlur1281" />
    </filter>
  </defs>
  <metadata
     id="metadata2">
    <rdf:RDF>
      <cc:Work
         rdf:about="">
        <dc:format>image/svg+xml</dc:format>
        <dc:type
           rdf:resource="http://purl.org/dc/dcmitype/StillImage" />
      </cc:Work>
    </rdf:RDF>
  </metadata>
  <path
     d="m 8.5279243,0.6840295 c -4.3840397,0 -7.93800768,3.5364886 -7.93800768,7.8989601 0,4.3624694 3.55396798,7.8989584 7.93800768,7.8989584 4.3840347,0 7.9380067,-3.536489 7.9380067,-7.8989584 0,-4.3624714 -3.553972,-7.8989601 -7.9380067,-7.8989601 z M 7.9609234,2.8703493 c 0.075864,-0.00789 0.1715302,0.00452 0.24808,0 0.009,0.036126 -0.055248,0.164604 -0.141741,0.3526337 -0.5509657,1.1976627 -0.5822205,2.6002926 -0.07089,3.3500054 0.092535,0.135927 0.1771853,0.2652898 0.1771853,0.2821071 0,0.016807 -0.099778,0.035184 -0.2126325,0.035184 -0.2648781,0 -0.5155416,-0.1606424 -1.0276886,-0.5642001 C 6.705731,6.1468061 6.4099492,5.9962299 6.2953562,5.9734385 6.115427,5.9376581 6.0674662,5.9533514 5.8346593,6.1850154 5.6180834,6.4005007 5.5511788,6.5166916 5.5511788,6.7139644 c 0,0.7480769 0.8925486,1.3427547 2.5515039,1.6926342 C 10.3556,8.881744 10.91098,9.3083439 10.97312,10.487128 c 0.07802,1.47821 -0.71283,2.592855 -2.4451905,3.455793 -0.2067607,0.10302 -0.3385149,0.143025 -0.4252636,0.17631 -0.038571,-0.0034 -0.067935,0.0035 -0.106254,0 -0.014565,-0.04569 -0.035584,-0.151718 -0.035584,-0.352633 0,-0.785133 -0.3109985,-1.593276 -0.7796121,-2.045266 C 7.0554229,11.600006 6.7032019,11.342917 6.4015835,11.157124 6.099971,10.971341 5.7960799,10.755522 5.7282661,10.663442 5.6158856,10.51064 5.6065412,10.416767 5.6926874,10.134493 5.8500274,9.6189503 6.0373303,9.3318121 6.4014278,9.0060707 6.5923277,8.8352955 6.7843876,8.6920859 6.8266921,8.6886995 6.8691185,8.6853859 6.5827283,8.5997782 6.1533796,8.5123852 5.7240272,8.4248417 5.0960278,8.2414479 4.7712848,8.1245092 4.177544,7.9107316 3.37592,7.4619448 3.0702706,7.1371408 3.0574058,7.1233636 3.0462697,7.1141052 3.0346919,7.1019559 3.4725655,5.3663734 4.7013697,3.943884 6.3303731,3.258266 6.6712007,3.1148077 7.02259,3.0163889 7.3934995,2.9408943 c 0.1847287,-0.037567 0.37623,-0.051228 0.5669988,-0.070525 z m 5.3156296,2.6447399 c 0.13317,0.081921 0.636069,1.1645894 0.779625,1.6926338 0.18533,0.6817822 0.171917,1.8616162 0,2.5389529 -0.06546,0.2577751 -0.14928,0.4989311 -0.177183,0.5289481 -0.02786,0.03003 -0.129045,-0.14278 -0.248077,-0.352634 -0.119015,-0.2098167 -0.499131,-0.655668 -0.815054,-0.9873684 -0.911893,-0.9575 -1.05529,-1.4574476 -0.673311,-2.2215822 0.192615,-0.3853463 1.03092,-1.2622542 1.134,-1.1989502 z"
     fill="#333333"
     id="path2-0"
     style="fill:#f9f9f9;fill-opacity:1;stroke:none;stroke-width:0.48021;stroke-dasharray:none;stroke-opacity:0.3" />
  <text
     xml:space="preserve"
     transform="scale(0.26457812)"
     id="text3806"
     style="font-size:6.66667px;white-space:pre;shape-inside:url(#rect3808);display:inline;fill:#999999;stroke-width:2" />
</svg>
