<?xml version="1.0" encoding="UTF-8" standalone="no"?>
<svg
   width="64"
   height="64"
   version="1.1"
   viewBox="0 0 16.933 16.933"
   id="svg7"
   sodipodi:docname="preferences-system-network-sharing.svg"
   inkscape:version="1.4 (e7c3feb100, 2024-10-09)"
   xmlns:inkscape="http://www.inkscape.org/namespaces/inkscape"
   xmlns:sodipodi="http://sodipodi.sourceforge.net/DTD/sodipodi-0.dtd"
   xmlns="http://www.w3.org/2000/svg"
   xmlns:svg="http://www.w3.org/2000/svg"
   xmlns:rdf="http://www.w3.org/1999/02/22-rdf-syntax-ns#"
   xmlns:cc="http://creativecommons.org/ns#"
   xmlns:dc="http://purl.org/dc/elements/1.1/">
  <sodipodi:namedview
     id="namedview7"
     pagecolor="#9c4444"
     bordercolor="#000000"
     borderopacity="0.25"
     inkscape:showpageshadow="2"
     inkscape:pageopacity="0.0"
     inkscape:pagecheckerboard="0"
     inkscape:deskcolor="#d1d1d1"
     inkscape:zoom="6.15625"
     inkscape:cx="15.756345"
     inkscape:cy="29.563452"
     inkscape:window-width="1226"
     inkscape:window-height="669"
     inkscape:window-x="124"
     inkscape:window-y="132"
     inkscape:window-maximized="0"
     inkscape:current-layer="svg7"
     showgrid="false" />
  <defs
     id="defs2">
    <rect
       x="67.489848"
       y="35.60533"
       width="15.337563"
       height="22.51269"
       id="rect3808" />
    <filter
       style="color-interpolation-filters:sRGB;"
       inkscape:label="Blur"
       id="filter1283"
       x="-0.082344266"
       y="-0.082344266"
       width="1.1646885"
       height="1.1646885">
      <feGaussianBlur
         stdDeviation="0.5 0.5"
         result="blur"
         id="feGaussianBlur1281" />
    </filter>
  </defs>
  <metadata
     id="metadata2">
    <rdf:RDF>
      <cc:Work
         rdf:about="">
        <dc:format>image/svg+xml</dc:format>
        <dc:type
           rdf:resource="http://purl.org/dc/dcmitype/StillImage" />
      </cc:Work>
    </rdf:RDF>
  </metadata>
  <path
     style="fill:#f9f9f9;fill-opacity:1;stroke-width:1.41802"
     d="M 12.555067,0.87874488 A 2.8360533,2.8360531 0 0 0 10.232763,2.2940064 2.8360533,2.8360531 0 0 0 9.9585706,4.469543 L 6.2044157,6.6381306 A 2.8360533,2.8360531 0 0 0 4.1808932,5.7880227 2.8360533,2.8360531 0 0 0 1.3448387,8.6240772 2.8360533,2.8360531 0 0 0 4.1808932,11.460125 2.8360533,2.8360531 0 0 0 6.2027158,10.60988 l 3.7541553,2.168588 a 2.8360533,2.8360531 0 0 0 0.2750989,2.175253 2.8360533,2.8360531 0 0 0 3.874761,1.038705 2.8360533,2.8360531 0 0 0 1.038707,-3.874758 2.8360533,2.8360531 0 0 0 -3.874764,-1.037287 2.8360533,2.8360531 0 0 0 -0.605498,0.469366 L 6.9102401,9.3822968 A 2.8360533,2.8360531 0 0 0 7.0165894,8.6236515 2.8360533,2.8360531 0 0 0 6.9130733,7.8650075 L 10.66723,5.6978372 a 2.8360533,2.8360531 0 0 0 0.603372,0.4693663 2.8360533,2.8360531 0 0 0 3.874756,-1.0372854 2.8360533,2.8360531 0 0 0 -1.0387,-3.874758 2.8360533,2.8360531 0 0 0 -1.552029,-0.37648587 z"
     id="path4" />
  <text
     xml:space="preserve"
     transform="scale(0.26457812)"
     id="text3806"
     style="font-size:6.66667px;white-space:pre;shape-inside:url(#rect3808);display:inline;fill:#999999;stroke-width:2" />
</svg>
