<?xml version="1.0" encoding="UTF-8" standalone="no"?>
<svg
   width="64"
   height="64"
   version="1.1"
   viewBox="0 0 16.933 16.933"
   id="svg7"
   sodipodi:docname="preferences-releasenotes.svg"
   inkscape:version="1.4 (e7c3feb100, 2024-10-09)"
   xmlns:inkscape="http://www.inkscape.org/namespaces/inkscape"
   xmlns:sodipodi="http://sodipodi.sourceforge.net/DTD/sodipodi-0.dtd"
   xmlns="http://www.w3.org/2000/svg"
   xmlns:svg="http://www.w3.org/2000/svg"
   xmlns:rdf="http://www.w3.org/1999/02/22-rdf-syntax-ns#"
   xmlns:cc="http://creativecommons.org/ns#"
   xmlns:dc="http://purl.org/dc/elements/1.1/">
  <sodipodi:namedview
     id="namedview7"
     pagecolor="#9c4444"
     bordercolor="#000000"
     borderopacity="0.25"
     inkscape:showpageshadow="2"
     inkscape:pageopacity="0.0"
     inkscape:pagecheckerboard="0"
     inkscape:deskcolor="#d1d1d1"
     inkscape:zoom="6.15625"
     inkscape:cx="15.756345"
     inkscape:cy="29.563452"
     inkscape:window-width="1226"
     inkscape:window-height="669"
     inkscape:window-x="124"
     inkscape:window-y="132"
     inkscape:window-maximized="0"
     inkscape:current-layer="svg7"
     showgrid="false" />
  <defs
     id="defs2">
    <rect
       x="67.489848"
       y="35.60533"
       width="15.337563"
       height="22.51269"
       id="rect3808" />
    <filter
       style="color-interpolation-filters:sRGB;"
       inkscape:label="Blur"
       id="filter1283"
       x="-0.082344266"
       y="-0.082344266"
       width="1.1646885"
       height="1.1646885">
      <feGaussianBlur
         stdDeviation="0.5 0.5"
         result="blur"
         id="feGaussianBlur1281" />
    </filter>
  </defs>
  <metadata
     id="metadata2">
    <rdf:RDF>
      <cc:Work
         rdf:about="">
        <dc:format>image/svg+xml</dc:format>
        <dc:type
           rdf:resource="http://purl.org/dc/dcmitype/StillImage" />
      </cc:Work>
    </rdf:RDF>
  </metadata>
  <path
     style="fill:#f9f9f9;stroke-width:0.0858044"
     d="M 2.1350298,15.171989 C 2.0681463,15.047024 2.1120078,14.675519 2.308805,13.70009 L 2.5720394,12.395338 2.1907917,12.001003 C 1.0588035,10.830163 0.54864722,9.7826002 0.44510687,8.4163899 0.23102432,5.5915074 2.5153263,3.0058246 6.0558258,2.0654212 6.8042585,1.8666279 7.0613754,1.8418918 8.4392339,1.8361242 c 1.3263715,-0.00558 1.6515791,0.020499 2.3029681,0.1845012 2.722905,0.6855379 4.791117,2.3364031 5.52674,4.4114868 0.966996,2.727768 -0.666768,5.7462628 -3.853877,7.1202988 -1.323706,0.570679 -1.905206,0.689214 -3.6061717,0.735078 -1.3244883,0.03573 -1.633593,0.01717 -2.4244788,-0.144705 L 5.4779631,13.957147 4.0195109,14.64815 c -0.8021478,0.380052 -1.5341814,0.691004 -1.6267394,0.691004 -0.092559,0 -0.2085423,-0.07521 -0.2577417,-0.167148 z M 8.5893899,11.48191 C 9.0544851,10.96142 8.8404944,10.150876 8.1804783,9.9330511 7.1259944,9.5850406 6.4435829,11.063261 7.3859957,11.654039 7.7839094,11.903485 8.2755141,11.833165 8.5893899,11.481901 Z M 11.22821,8.3457732 12.556442,7.0154638 11.206899,5.665921 9.8573562,4.3163782 9.341352,4.8269964 C 9.0575517,5.1078363 8.8253508,5.3766708 8.8253508,5.4244063 c 0,0.047742 0.3370475,0.4254089 0.7489956,0.8392739 L 10.323342,7.0161621 9.5743464,7.7686437 c -0.4119481,0.4138645 -0.7489956,0.7892095 -0.7489956,0.8341 0,0.085128 0.9464652,1.073339 1.0279985,1.073339 0.025658,0 0.6443317,-0.5986391 1.3748607,-1.3303095 z M 6.2825634,8.3827974 C 6.4649636,8.2393179 6.5086431,8.132775 6.5086431,7.8312994 6.5086431,7.5298251 6.4649586,7.4232816 6.2825634,7.2798022 5.5670094,6.7169475 4.6819719,7.6803985 5.3051837,8.343777 5.5588352,8.613775 5.9681453,8.6301162 6.2825634,8.3827995 Z M 7.3495236,5.1971205 c 0.056641,-0.056629 0.1029585,-0.2226611 0.1029585,-0.3689573 0,-0.3368188 -0.135102,-0.471921 -0.4719208,-0.471921 -0.3368193,0 -0.4719224,0.1351035 -0.4719224,0.471921 0,0.3368193 0.1351035,0.4719218 0.4719224,0.4719218 0.146304,0 0.3123271,-0.046335 0.3689577,-0.1029645 z"
     id="path3-6" />
  <text
     xml:space="preserve"
     transform="scale(0.26457812)"
     id="text3806"
     style="font-size:6.66667px;white-space:pre;shape-inside:url(#rect3808);display:inline;fill:#999999;stroke-width:2" />
</svg>
