<?xml version="1.0" encoding="UTF-8" standalone="no"?>
<svg
   width="64"
   height="64"
   version="1.1"
   viewBox="0 0 16.933 16.933"
   id="svg7"
   sodipodi:docname="preferences-system-startup.svg"
   inkscape:version="1.4 (e7c3feb100, 2024-10-09)"
   xmlns:inkscape="http://www.inkscape.org/namespaces/inkscape"
   xmlns:sodipodi="http://sodipodi.sourceforge.net/DTD/sodipodi-0.dtd"
   xmlns="http://www.w3.org/2000/svg"
   xmlns:svg="http://www.w3.org/2000/svg"
   xmlns:rdf="http://www.w3.org/1999/02/22-rdf-syntax-ns#"
   xmlns:cc="http://creativecommons.org/ns#"
   xmlns:dc="http://purl.org/dc/elements/1.1/">
  <sodipodi:namedview
     id="namedview7"
     pagecolor="#9c4444"
     bordercolor="#000000"
     borderopacity="0.25"
     inkscape:showpageshadow="2"
     inkscape:pageopacity="0.0"
     inkscape:pagecheckerboard="0"
     inkscape:deskcolor="#d1d1d1"
     inkscape:zoom="6.15625"
     inkscape:cx="15.756345"
     inkscape:cy="29.563452"
     inkscape:window-width="1226"
     inkscape:window-height="669"
     inkscape:window-x="124"
     inkscape:window-y="132"
     inkscape:window-maximized="0"
     inkscape:current-layer="svg7"
     showgrid="false" />
  <defs
     id="defs2">
    <rect
       x="67.489848"
       y="35.60533"
       width="15.337563"
       height="22.51269"
       id="rect3808" />
    <filter
       style="color-interpolation-filters:sRGB;"
       inkscape:label="Blur"
       id="filter1283"
       x="-0.082344266"
       y="-0.082344266"
       width="1.1646885"
       height="1.1646885">
      <feGaussianBlur
         stdDeviation="0.5 0.5"
         result="blur"
         id="feGaussianBlur1281" />
    </filter>
  </defs>
  <metadata
     id="metadata2">
    <rdf:RDF>
      <cc:Work
         rdf:about="">
        <dc:format>image/svg+xml</dc:format>
        <dc:type
           rdf:resource="http://purl.org/dc/dcmitype/StillImage" />
      </cc:Work>
    </rdf:RDF>
  </metadata>
  <g
     id="g30"
     transform="matrix(1.0293712,0,0,1.0293712,-0.65106799,-3.4659534)"
     style="fill:#f9f9f9;fill-opacity:1">
    <path
       d="m 389.571,519.798 h 5 v 1 h -5 z m 0,6 h 4 v 1 h -4 z m 0,2 h 4 v 1 h -4 z m 0,2 h 3 v 1 h -3 z m 0,-8 h 4 v 1 h -4 z m 0,2 h 3 v 1 h -3 z m 0,8 h 5 v 1 h -5 z m 0,2 h 3 v 1 h -3 z"
       fill="url(#n)"
       transform="matrix(2,0,0,1,-773.143,-515.798)"
       id="path21"
       style="fill:#f9f9f9;fill-opacity:1" />
    <path
       d="M 2,4 H 5 V 5 H 2 Z M 2,6 H 5 V 7 H 2 Z M 2,8 H 5 V 9 H 2 Z m 0,2 h 3 v 1 H 2 Z m 0,2 h 3 v 1 H 2 Z m 0,2 h 3 v 1 H 2 Z m 0,2 h 3 v 1 H 2 Z m 0,2 h 3 v 1 H 2 Z"
       fill="#11d116"
       id="path30"
       style="fill:#f9f9f9;fill-opacity:1" />
  </g>
  <text
     xml:space="preserve"
     transform="scale(0.26457812)"
     id="text3806"
     style="font-size:6.66667px;white-space:pre;shape-inside:url(#rect3808);display:inline;fill:#999999;stroke-width:2" />
</svg>
