<?xml version="1.0" encoding="UTF-8" standalone="no"?>
<svg
   width="64"
   height="64"
   version="1.1"
   viewBox="0 0 16.933 16.933"
   id="svg7"
   sodipodi:docname="preferences-devices-drive-optical-check.svg"
   inkscape:version="1.4 (e7c3feb100, 2024-10-09)"
   xmlns:inkscape="http://www.inkscape.org/namespaces/inkscape"
   xmlns:sodipodi="http://sodipodi.sourceforge.net/DTD/sodipodi-0.dtd"
   xmlns="http://www.w3.org/2000/svg"
   xmlns:svg="http://www.w3.org/2000/svg"
   xmlns:rdf="http://www.w3.org/1999/02/22-rdf-syntax-ns#"
   xmlns:cc="http://creativecommons.org/ns#"
   xmlns:dc="http://purl.org/dc/elements/1.1/">
  <sodipodi:namedview
     id="namedview7"
     pagecolor="#9c4444"
     bordercolor="#000000"
     borderopacity="0.25"
     inkscape:showpageshadow="2"
     inkscape:pageopacity="0.0"
     inkscape:pagecheckerboard="0"
     inkscape:deskcolor="#d1d1d1"
     inkscape:zoom="6.15625"
     inkscape:cx="15.756345"
     inkscape:cy="29.563452"
     inkscape:window-width="1226"
     inkscape:window-height="669"
     inkscape:window-x="124"
     inkscape:window-y="132"
     inkscape:window-maximized="0"
     inkscape:current-layer="svg7"
     showgrid="false" />
  <defs
     id="defs2">
    <rect
       x="67.489848"
       y="35.60533"
       width="15.337563"
       height="22.51269"
       id="rect3808" />
    <filter
       style="color-interpolation-filters:sRGB;"
       inkscape:label="Blur"
       id="filter1283"
       x="-0.082344266"
       y="-0.082344266"
       width="1.1646885"
       height="1.1646885">
      <feGaussianBlur
         stdDeviation="0.5 0.5"
         result="blur"
         id="feGaussianBlur1281" />
    </filter>
  </defs>
  <metadata
     id="metadata2">
    <rdf:RDF>
      <cc:Work
         rdf:about="">
        <dc:format>image/svg+xml</dc:format>
        <dc:type
           rdf:resource="http://purl.org/dc/dcmitype/StillImage" />
      </cc:Work>
    </rdf:RDF>
  </metadata>
  <path
     fill="#f5f7fa"
     d="m 8.5271461,16.665749 c -4.5077851,0 -8.16206548,-3.599626 -8.16206548,-8.0399858 0,-4.4403651 3.65428038,-8.03999057 8.16206548,-8.03999057 4.5077799,0 8.1620619,3.59962547 8.1620619,8.03999057 0,4.4403598 -3.654282,8.0399858 -8.1620619,8.0399858 z m 0,-14.2933163 c -3.5060553,0 -6.3482725,2.7997147 -6.3482725,6.2533305 0,0.2466853 0.2030158,0.4466635 0.4534483,0.4466635 0.2504318,0 0.4534466,-0.1999737 0.4534466,-0.4466635 0,-2.9602445 2.4361878,-5.3599964 5.4413776,-5.3599964 0.2504315,0 0.4534476,-0.1999801 0.4534476,-0.4466635 0,-0.2466885 -0.2030167,-0.4466706 -0.4534476,-0.4466706 z m 0,9.8266553 c 2.0034589,0 3.6275839,-1.599835 3.6275839,-3.5733248 0,-1.973495 -1.624125,-3.5733321 -3.6275839,-3.5733321 -2.00346,0 -3.6275845,1.5998371 -3.6275845,3.5733321 0,1.9734898 1.6241245,3.5733248 3.6275845,3.5733248 z m 0,-0.893332 c -1.5025951,0 -2.7206887,-1.199872 -2.7206887,-2.6799928 0,-1.4801232 1.2180936,-2.6800002 2.7206887,-2.6800002 1.5025939,0 2.7206869,1.199877 2.7206869,2.6800002 0,1.4801208 -1.218093,2.6799928 -2.7206869,2.6799928 z m 0,-0.893332 c 1.0017279,0 1.8137909,-0.7999136 1.8137909,-1.7866608 0,-0.9867509 -0.812063,-1.786667 -1.8137909,-1.786667 -1.0017315,0 -1.813791,0.7999161 -1.813791,1.786667 0,0.9867472 0.8120595,1.7866608 1.813791,1.7866608 z"
     id="path42"
     style="fill:#f9f9f9;fill-opacity:1;stroke:none;stroke-width:0.528231;stroke-dasharray:none;stroke-opacity:0.3" />
  <text
     xml:space="preserve"
     transform="scale(0.26457812)"
     id="text3806"
     style="font-size:6.66667px;white-space:pre;shape-inside:url(#rect3808);display:inline;fill:#999999;stroke-width:2" />
</svg>
