<?xml version="1.0" encoding="UTF-8" standalone="no"?>
<svg
   width="64"
   height="64"
   version="1.1"
   viewBox="0 0 16.933 16.933"
   id="svg7"
   sodipodi:docname="preferences-desktop-effects.svg"
   inkscape:version="1.4 (e7c3feb100, 2024-10-09)"
   xmlns:inkscape="http://www.inkscape.org/namespaces/inkscape"
   xmlns:sodipodi="http://sodipodi.sourceforge.net/DTD/sodipodi-0.dtd"
   xmlns="http://www.w3.org/2000/svg"
   xmlns:svg="http://www.w3.org/2000/svg"
   xmlns:rdf="http://www.w3.org/1999/02/22-rdf-syntax-ns#"
   xmlns:cc="http://creativecommons.org/ns#"
   xmlns:dc="http://purl.org/dc/elements/1.1/">
  <sodipodi:namedview
     id="namedview7"
     pagecolor="#9c4444"
     bordercolor="#000000"
     borderopacity="0.25"
     inkscape:showpageshadow="2"
     inkscape:pageopacity="0.0"
     inkscape:pagecheckerboard="0"
     inkscape:deskcolor="#d1d1d1"
     inkscape:zoom="6.15625"
     inkscape:cx="15.756345"
     inkscape:cy="27.126904"
     inkscape:window-width="1226"
     inkscape:window-height="669"
     inkscape:window-x="35"
     inkscape:window-y="32"
     inkscape:window-maximized="0"
     inkscape:current-layer="svg7"
     showgrid="false" />
  <defs
     id="defs2">
    <filter
       style="color-interpolation-filters:sRGB;"
       inkscape:label="Blur"
       id="filter1283"
       x="-0.082344266"
       y="-0.082344266"
       width="1.1646885"
       height="1.1646885">
      <feGaussianBlur
         stdDeviation="0.5 0.5"
         result="blur"
         id="feGaussianBlur1281" />
    </filter>
  </defs>
  <metadata
     id="metadata2">
    <rdf:RDF>
      <cc:Work
         rdf:about="">
        <dc:format>image/svg+xml</dc:format>
        <dc:type
           rdf:resource="http://purl.org/dc/dcmitype/StillImage" />
      </cc:Work>
    </rdf:RDF>
  </metadata>
  <path
     d="M 11.958956,6.0627662 14.935301,3.0864199 13.848377,1.9994947 10.872028,4.9758406 Z M 16.49966,3.0864199 q 0,0.2742697 -0.182859,0.4571176 L 3.2533918,16.606952 q -0.1828469,0.182861 -0.4571172,0.182861 -0.274272,0 -0.4571189,-0.182861 L 0.32783611,14.595634 q -0.1828473,-0.182858 -0.1828473,-0.457115 0,-0.27427 0.1828473,-0.45712 L 13.39126,0.6179819 q 0.182857,-0.1828473 0.457117,-0.1828473 0.274271,0 0.457118,0.1828473 l 2.01132,2.0113179 q 0.182859,0.1828497 0.182859,0.4571201 z M 2.7759605,1.1563654 3.7714615,1.4611105 2.7759605,1.7658574 2.4712154,2.7613565 2.1664699,1.7658574 1.1709694,1.4611105 2.1664699,1.1563654 2.4712154,0.1608635 Z M 6.3313228,2.8019911 8.3223254,3.411481 6.3313228,4.0209722 5.7218329,6.0119755 5.1123424,4.0209722 3.1213385,3.411481 5.1123424,2.8019911 5.7218329,0.81098735 Z M 15.77843,7.6576 16.773929,7.9623455 15.77843,8.2670918 15.473684,9.2625922 15.168938,8.2670918 14.173441,7.9623455 15.168938,7.6576 15.473684,6.662099 Z M 9.2771963,1.1563654 10.272696,1.4611105 9.2771963,1.7658574 8.9724496,2.7613565 8.6677037,1.7658574 7.6722031,1.4611105 8.6677037,1.1563654 8.9724496,0.1608635 Z"
     id="path1-3-3"
     style="overflow:hidden;fill:#f9f9f9;fill-opacity:1;stroke-width:0.0177768" />
</svg>
