<?xml version="1.0" encoding="UTF-8" standalone="no"?>
<svg
   width="64"
   height="64"
   version="1.1"
   viewBox="0 0 16.933 16.933"
   id="svg7"
   sodipodi:docname="preferences-desktop-keyboard.svg"
   inkscape:version="1.4 (e7c3feb100, 2024-10-09)"
   xmlns:inkscape="http://www.inkscape.org/namespaces/inkscape"
   xmlns:sodipodi="http://sodipodi.sourceforge.net/DTD/sodipodi-0.dtd"
   xmlns="http://www.w3.org/2000/svg"
   xmlns:svg="http://www.w3.org/2000/svg"
   xmlns:rdf="http://www.w3.org/1999/02/22-rdf-syntax-ns#"
   xmlns:cc="http://creativecommons.org/ns#"
   xmlns:dc="http://purl.org/dc/elements/1.1/">
  <sodipodi:namedview
     id="namedview7"
     pagecolor="#9c4444"
     bordercolor="#000000"
     borderopacity="0.25"
     inkscape:showpageshadow="2"
     inkscape:pageopacity="0.0"
     inkscape:pagecheckerboard="0"
     inkscape:deskcolor="#d1d1d1"
     inkscape:zoom="6.15625"
     inkscape:cx="15.756345"
     inkscape:cy="27.126904"
     inkscape:window-width="1226"
     inkscape:window-height="669"
     inkscape:window-x="35"
     inkscape:window-y="32"
     inkscape:window-maximized="0"
     inkscape:current-layer="svg7"
     showgrid="false" />
  <defs
     id="defs2">
    <filter
       style="color-interpolation-filters:sRGB;"
       inkscape:label="Blur"
       id="filter1283"
       x="-0.082344266"
       y="-0.082344266"
       width="1.1646885"
       height="1.1646885">
      <feGaussianBlur
         stdDeviation="0.5 0.5"
         result="blur"
         id="feGaussianBlur1281" />
    </filter>
  </defs>
  <metadata
     id="metadata2">
    <rdf:RDF>
      <cc:Work
         rdf:about="">
        <dc:format>image/svg+xml</dc:format>
        <dc:type
           rdf:resource="http://purl.org/dc/dcmitype/StillImage" />
      </cc:Work>
    </rdf:RDF>
  </metadata>
  <path
     style="color:#444444;fill:#f9f9f9;fill-opacity:1;stroke:none;stroke-width:0.48021;stroke-dasharray:none;stroke-opacity:0.3"
     class="ColorScheme-Text"
     d="m 2.6897424,2.3537229 c 0,0 -2.09062215,0 -2.09062215,2.0906227 v 8.3624884 c 0,2.090623 2.09062215,2.090623 2.09062215,2.090623 H 14.188165 c 0,0 2.090622,0 2.090622,-2.090623 V 4.4443456 c 0,-2.0906227 -2.090622,-2.0906227 -2.090622,-2.0906227 z m 0.2613281,2.0906227 h 1.5679669 c 0.1447755,0 0.2613266,0.116553 0.2613266,0.2613281 v 1.5679665 c 0,0.1447755 -0.1165515,0.2613274 -0.2613266,0.2613274 H 2.9510705 c -0.144774,0 -0.2613281,-0.116553 -0.2613281,-0.2613274 V 4.7056737 c 0,-0.144774 0.116553,-0.2613281 0.2613281,-0.2613281 z m 3.1359334,0 h 1.5679664 c 0.1447755,0 0.2613276,0.116553 0.2613276,0.2613281 v 1.5679665 c 0,0.1447755 -0.116553,0.2613274 -0.2613276,0.2613274 H 6.0870039 c -0.144777,0 -0.261328,-0.116553 -0.261328,-0.2613274 V 4.7056737 c 0,-0.144774 0.116553,-0.2613281 0.261328,-0.2613281 z m 3.1359329,0 h 1.5679662 c 0.14478,0 0.261327,0.116553 0.261327,0.2613281 v 1.5679665 c 0,0.1447755 -0.11655,0.2613274 -0.261327,0.2613274 H 9.2229368 c -0.1447755,0 -0.261327,-0.116553 -0.261327,-0.2613274 V 4.7056737 c 0,-0.144774 0.11655,-0.2613281 0.261327,-0.2613281 z m 3.1359332,0 h 1.567966 c 0.14478,0 0.261329,0.116553 0.261329,0.2613281 v 1.5679665 c 0,0.1447755 -0.11655,0.2613274 -0.261329,0.2613274 H 12.35887 c -0.144795,0 -0.261327,-0.116553 -0.261327,-0.2613274 V 4.7056737 c 0,-0.144774 0.11655,-0.2613281 0.261327,-0.2613281 z M 2.9510705,7.5802791 h 1.5679669 c 0.1447755,0 0.2613266,0.1165515 0.2613266,0.2613274 v 1.567967 c 0,0.144777 -0.1165515,0.2613276 -0.2613266,0.2613276 H 2.9510705 c -0.144774,0 -0.2613281,-0.116553 -0.2613281,-0.2613276 v -1.567967 c 0,-0.1447755 0.116553,-0.2613274 0.2613281,-0.2613274 z m 3.1359334,0 h 1.5679664 c 0.1447755,0 0.2613276,0.1165515 0.2613276,0.2613274 v 1.567967 c 0,0.144777 -0.116553,0.2613276 -0.2613276,0.2613276 H 6.0870039 c -0.144777,0 -0.261328,-0.116553 -0.261328,-0.2613276 v -1.567967 c 0,-0.1447755 0.116553,-0.2613274 0.261328,-0.2613274 z m 3.1359329,0 h 1.5679662 c 0.14478,0 0.261327,0.1165515 0.261327,0.2613274 v 1.567967 c 0,0.144777 -0.11655,0.2613276 -0.261327,0.2613276 H 9.2229368 c -0.1447755,0 -0.261327,-0.116553 -0.261327,-0.2613276 v -1.567967 c 0,-0.1447755 0.11655,-0.2613274 0.261327,-0.2613274 z m 3.1359332,0 h 1.567966 c 0.14478,0 0.261329,0.1165515 0.261329,0.2613274 v 1.567967 c 0,0.144777 -0.11655,0.2613276 -0.261329,0.2613276 H 12.35887 c -0.144795,0 -0.261327,-0.116553 -0.261327,-0.2613276 v -1.567967 c 0,-0.1447755 0.11655,-0.2613274 0.261327,-0.2613274 z M 5.0416925,10.716212 h 6.7945235 c 0.14478,0 0.261327,0.11655 0.261327,0.261327 v 1.567968 c 0,0.14478 -0.11655,0.261327 -0.261327,0.261327 H 5.0416925 c -0.1447755,0 -0.2613285,-0.116535 -0.2613285,-0.261327 v -1.567968 c 0,-0.14478 0.116553,-0.261327 0.2613285,-0.261327 z"
     id="path5" />
</svg>
