<?xml version="1.0" encoding="UTF-8" standalone="no"?>
<svg
   width="64"
   height="64"
   version="1.1"
   viewBox="0 0 16.933 16.933"
   id="svg7"
   sodipodi:docname="preferences-system-services.svg"
   inkscape:version="1.4 (e7c3feb100, 2024-10-09)"
   xmlns:inkscape="http://www.inkscape.org/namespaces/inkscape"
   xmlns:sodipodi="http://sodipodi.sourceforge.net/DTD/sodipodi-0.dtd"
   xmlns="http://www.w3.org/2000/svg"
   xmlns:svg="http://www.w3.org/2000/svg"
   xmlns:rdf="http://www.w3.org/1999/02/22-rdf-syntax-ns#"
   xmlns:cc="http://creativecommons.org/ns#"
   xmlns:dc="http://purl.org/dc/elements/1.1/">
  <sodipodi:namedview
     id="namedview7"
     pagecolor="#9c4444"
     bordercolor="#000000"
     borderopacity="0.25"
     inkscape:showpageshadow="2"
     inkscape:pageopacity="0.0"
     inkscape:pagecheckerboard="0"
     inkscape:deskcolor="#d1d1d1"
     inkscape:zoom="6.15625"
     inkscape:cx="15.756345"
     inkscape:cy="29.563452"
     inkscape:window-width="1226"
     inkscape:window-height="669"
     inkscape:window-x="124"
     inkscape:window-y="132"
     inkscape:window-maximized="0"
     inkscape:current-layer="svg7"
     showgrid="false" />
  <defs
     id="defs2">
    <rect
       x="67.489848"
       y="35.60533"
       width="15.337563"
       height="22.51269"
       id="rect3808" />
    <filter
       style="color-interpolation-filters:sRGB;"
       inkscape:label="Blur"
       id="filter1283"
       x="-0.082344266"
       y="-0.082344266"
       width="1.1646885"
       height="1.1646885">
      <feGaussianBlur
         stdDeviation="0.5 0.5"
         result="blur"
         id="feGaussianBlur1281" />
    </filter>
  </defs>
  <metadata
     id="metadata2">
    <rdf:RDF>
      <cc:Work
         rdf:about="">
        <dc:format>image/svg+xml</dc:format>
        <dc:type
           rdf:resource="http://purl.org/dc/dcmitype/StillImage" />
      </cc:Work>
    </rdf:RDF>
  </metadata>
  <path
     id="path12"
     style="fill:#f9f9f9;fill-opacity:1;stroke-width:0.0709125;stroke-opacity:0.6"
     d="M 8.4826992,1.7139952 C 8.0178109,1.7216512 7.5195681,2.079703 7.4305365,2.5248603 l -0.04519,0.2285083 H 8.4664992 9.5476515 L 9.5024616,2.5248603 C 9.4424442,2.2247739 9.0699516,1.8478332 8.7342292,1.7472486 8.6531862,1.7229672 8.5687893,1.7125771 8.4826992,1.7139952 Z M 8.4664962,3.981177 c -1.5203846,0 -3.0404966,0.521856 -4.3160843,1.5654546 C 2.8130478,6.6407737 1.8722262,8.4306001 1.7510745,10.110837 l -0.042633,0.584914 h 6.7580568 6.7580567 l -0.04263,-0.584914 C 15.060772,8.4306001 14.119949,6.6407737 12.782582,5.5466316 11.506996,4.503033 9.986883,3.981177 8.466499,3.981177 Z m 0,7.920213 c -6.9828278,0 -7.0384874,0.0011 -7.29437,0.146655 -0.51577107,0.29329 -0.53895867,0.369007 -0.56359782,1.856206 l -0.022167,1.329273 H 8.4664981 16.346638 l -0.02217,-1.329273 C 16.299838,12.417052 16.276633,12.341335 15.76087,12.048045 15.504988,11.90256 15.449327,11.90139 8.4664962,11.90139 Z" />
  <text
     xml:space="preserve"
     transform="scale(0.26457812)"
     id="text3806"
     style="font-size:6.66667px;white-space:pre;shape-inside:url(#rect3808);display:inline;fill:#999999;stroke-width:2" />
</svg>
