<?xml version="1.0" encoding="UTF-8" standalone="no"?>
<svg
   width="64"
   height="64"
   version="1.1"
   viewBox="0 0 16.933 16.933"
   id="svg7"
   sodipodi:docname="preferences-desktop-filetype-association.svg"
   inkscape:version="1.4 (e7c3feb100, 2024-10-09)"
   xmlns:inkscape="http://www.inkscape.org/namespaces/inkscape"
   xmlns:sodipodi="http://sodipodi.sourceforge.net/DTD/sodipodi-0.dtd"
   xmlns="http://www.w3.org/2000/svg"
   xmlns:svg="http://www.w3.org/2000/svg"
   xmlns:rdf="http://www.w3.org/1999/02/22-rdf-syntax-ns#"
   xmlns:cc="http://creativecommons.org/ns#"
   xmlns:dc="http://purl.org/dc/elements/1.1/">
  <sodipodi:namedview
     id="namedview7"
     pagecolor="#9c4444"
     bordercolor="#000000"
     borderopacity="0.25"
     inkscape:showpageshadow="2"
     inkscape:pageopacity="0.0"
     inkscape:pagecheckerboard="0"
     inkscape:deskcolor="#d1d1d1"
     inkscape:zoom="6.15625"
     inkscape:cx="15.756345"
     inkscape:cy="27.126904"
     inkscape:window-width="1226"
     inkscape:window-height="669"
     inkscape:window-x="35"
     inkscape:window-y="32"
     inkscape:window-maximized="0"
     inkscape:current-layer="svg7"
     showgrid="false" />
  <defs
     id="defs2">
    <filter
       style="color-interpolation-filters:sRGB;"
       inkscape:label="Blur"
       id="filter1283"
       x="-0.082344266"
       y="-0.082344266"
       width="1.1646885"
       height="1.1646885">
      <feGaussianBlur
         stdDeviation="0.5 0.5"
         result="blur"
         id="feGaussianBlur1281" />
    </filter>
  </defs>
  <metadata
     id="metadata2">
    <rdf:RDF>
      <cc:Work
         rdf:about="">
        <dc:format>image/svg+xml</dc:format>
        <dc:type
           rdf:resource="http://purl.org/dc/dcmitype/StillImage" />
      </cc:Work>
    </rdf:RDF>
  </metadata>
  <g
     fill="#474341"
     id="g8536"
     transform="matrix(0.68219241,0,0,0.68219242,-137.44564,-169.19835)"
     style="fill:#f9f9f9;fill-opacity:1">
    <path
       d="m 211.956,248.995 a 2.993,2.993 0 0 0 -2.953,2.54 v 0.46 h 5.11 l 6.89,6.89 c 0.004,2.702 -0.003,5.403 0,8.104 a 2.997,2.997 0 0 0 2.953,-2.994 v -7.5 a 3,3 0 0 0 -0.826,-2.068 l -4.453,-4.453 c -0.565,-0.581 -1.411,-0.979 -2.221,-0.979 z"
       id="path8532"
       style="fill:#f9f9f9;fill-opacity:1" />
    <path
       d="m 206.946,253.99 a 2.993,2.993 0 0 0 -2.953,2.54 v 12.92 a 2.993,2.993 0 0 0 2.953,2.54 h 9 a 3,3 0 0 0 3,-3 v -7.5 a 3,3 0 0 0 -0.826,-2.068 l -4.453,-4.453 c -0.565,-0.58 -1.411,-0.979 -2.221,-0.979 z"
       id="path8534"
       style="fill:#f9f9f9;fill-opacity:1" />
  </g>
</svg>
