<?xml version="1.0" encoding="UTF-8" standalone="no"?>
<svg
   width="64"
   height="64"
   version="1.1"
   viewBox="0 0 16.933 16.933"
   id="svg7"
   sodipodi:docname="preferences-security-kerberos.svg"
   inkscape:version="1.4 (e7c3feb100, 2024-10-09)"
   xmlns:inkscape="http://www.inkscape.org/namespaces/inkscape"
   xmlns:sodipodi="http://sodipodi.sourceforge.net/DTD/sodipodi-0.dtd"
   xmlns="http://www.w3.org/2000/svg"
   xmlns:svg="http://www.w3.org/2000/svg"
   xmlns:rdf="http://www.w3.org/1999/02/22-rdf-syntax-ns#"
   xmlns:cc="http://creativecommons.org/ns#"
   xmlns:dc="http://purl.org/dc/elements/1.1/">
  <sodipodi:namedview
     id="namedview7"
     pagecolor="#9c4444"
     bordercolor="#000000"
     borderopacity="0.25"
     inkscape:showpageshadow="2"
     inkscape:pageopacity="0.0"
     inkscape:pagecheckerboard="0"
     inkscape:deskcolor="#d1d1d1"
     inkscape:zoom="6.15625"
     inkscape:cx="15.756345"
     inkscape:cy="29.563452"
     inkscape:window-width="1226"
     inkscape:window-height="669"
     inkscape:window-x="124"
     inkscape:window-y="132"
     inkscape:window-maximized="0"
     inkscape:current-layer="svg7"
     showgrid="false" />
  <defs
     id="defs2">
    <rect
       x="67.489848"
       y="35.60533"
       width="15.337563"
       height="22.51269"
       id="rect3808" />
    <filter
       style="color-interpolation-filters:sRGB;"
       inkscape:label="Blur"
       id="filter1283"
       x="-0.082344266"
       y="-0.082344266"
       width="1.1646885"
       height="1.1646885">
      <feGaussianBlur
         stdDeviation="0.5 0.5"
         result="blur"
         id="feGaussianBlur1281" />
    </filter>
  </defs>
  <metadata
     id="metadata2">
    <rdf:RDF>
      <cc:Work
         rdf:about="">
        <dc:format>image/svg+xml</dc:format>
        <dc:type
           rdf:resource="http://purl.org/dc/dcmitype/StillImage" />
      </cc:Work>
    </rdf:RDF>
  </metadata>
  <path
     d="M 11.915599,1.1649161 9.6509844,3.4295335 7.3863643,4.5618403 6.2540573,5.6941471 0.5925135,6.8264603 v 2.2646168 l 1.1323066,1.1323069 v 1.132306 l 1.1323103,1.132308 v 1.132307 l 1.1323099,1.132312 h 7.9261587 l 1.132306,1.132311 3.396935,-3.39693 -1.132309,-1.132308 -1.132312,-5.6615429 -2.26462,2.26462 -2.2646146,1.13231 L 8.5186745,10.223384 3.2489086,11.278695 2.8571464,10.88693 V 10.019587 L 7.9457411,9.0005096 9.191281,7.7549699 11.455898,6.6226568 13.315153,4.7634058 13.047954,3.4295494 10.783336,5.694163 8.5187195,6.8264798 7.3864125,7.9587835 2.1166469,9.0140912 1.7248876,8.6223326 V 7.7549827 L 6.8134759,6.7359055 8.0590194,5.4903659 10.323636,4.358062 12.182892,2.4988085 Z"
     fill="#232629"
     id="path13"
     style="fill:#f9f9f9;stroke-width:1.13231" />
  <text
     xml:space="preserve"
     transform="scale(0.26457812)"
     id="text3806"
     style="font-size:6.66667px;white-space:pre;shape-inside:url(#rect3808);display:inline;fill:#999999;stroke-width:2" />
</svg>
