<?xml version="1.0" encoding="UTF-8" standalone="no"?>
<svg
   width="64"
   height="64"
   version="1.1"
   viewBox="0 0 16.933 16.933"
   id="svg7"
   sodipodi:docname="preferences-system-performance.svg"
   inkscape:version="1.4 (e7c3feb100, 2024-10-09)"
   xmlns:inkscape="http://www.inkscape.org/namespaces/inkscape"
   xmlns:sodipodi="http://sodipodi.sourceforge.net/DTD/sodipodi-0.dtd"
   xmlns="http://www.w3.org/2000/svg"
   xmlns:svg="http://www.w3.org/2000/svg"
   xmlns:rdf="http://www.w3.org/1999/02/22-rdf-syntax-ns#"
   xmlns:cc="http://creativecommons.org/ns#"
   xmlns:dc="http://purl.org/dc/elements/1.1/">
  <sodipodi:namedview
     id="namedview7"
     pagecolor="#9c4444"
     bordercolor="#000000"
     borderopacity="0.25"
     inkscape:showpageshadow="2"
     inkscape:pageopacity="0.0"
     inkscape:pagecheckerboard="0"
     inkscape:deskcolor="#d1d1d1"
     inkscape:zoom="6.15625"
     inkscape:cx="15.756345"
     inkscape:cy="29.563452"
     inkscape:window-width="1226"
     inkscape:window-height="669"
     inkscape:window-x="124"
     inkscape:window-y="132"
     inkscape:window-maximized="0"
     inkscape:current-layer="svg7"
     showgrid="false" />
  <defs
     id="defs2">
    <rect
       x="67.489848"
       y="35.60533"
       width="15.337563"
       height="22.51269"
       id="rect3808" />
    <filter
       style="color-interpolation-filters:sRGB;"
       inkscape:label="Blur"
       id="filter1283"
       x="-0.082344266"
       y="-0.082344266"
       width="1.1646885"
       height="1.1646885">
      <feGaussianBlur
         stdDeviation="0.5 0.5"
         result="blur"
         id="feGaussianBlur1281" />
    </filter>
  </defs>
  <metadata
     id="metadata2">
    <rdf:RDF>
      <cc:Work
         rdf:about="">
        <dc:format>image/svg+xml</dc:format>
        <dc:type
           rdf:resource="http://purl.org/dc/dcmitype/StillImage" />
      </cc:Work>
    </rdf:RDF>
  </metadata>
  <path
     id="path72"
     style="fill:#f9f9f9;fill-opacity:1;stroke:none;stroke-width:0.528231;stroke-dasharray:none;stroke-dashoffset:2.2;stroke-opacity:0.3"
     d="m 8.3898371,1.1103716 c -5.0432196,0 -5.0641042,7.395e-4 -5.2245279,0.1269 -0.3605139,0.2835852 -0.3414918,-0.142119 -0.3414918,7.2982438 0,4.1060126 0.023511,6.8851886 0.057775,6.9753166 0.076793,0.201981 0.2933463,0.395089 0.5168813,0.461172 0.103116,0.0305 2.3561851,0.0503 5.1285793,0.04436 4.746976,-0.0102 4.952017,-0.01534 5.115169,-0.12585 0.365628,-0.247808 0.345618,0.173895 0.345618,-7.3508576 0,-6.2739941 -0.0087,-6.9101601 -0.09905,-7.0630163 C 13.66049,1.0901543 13.96097,1.1103728 8.389831,1.1103728 Z M 0.21568012,2.3236505 V 3.0819497 3.8412809 H 1.0038991 1.7931494 V 3.0819497 2.3236505 H 1.0038991 Z m 14.74298888,0 v 0.7582992 0.7593312 h 0.81917 0.819169 V 3.0819497 2.3236505 H 15.777839 Z M 5.5547266,2.9302901 H 5.9189161 6.2820743 V 3.8712002 4.8110786 H 5.9189161 5.5547266 V 3.8712002 Z m 2.4874272,0 H 8.4063442 8.7705335 V 5.4486695 7.9660161 H 8.4465806 c -0.1779717,0 -0.3419415,-0.017987 -0.3641899,-0.040235 -0.022245,-0.022245 -0.040236,-1.1547615 -0.040236,-2.5173477 z m 2.5482982,0 h 0.33324 0.33427 v 1.8807885 1.8818203 h -0.33427 -0.33324 V 4.8110786 Z M 0.21568012,5.1143981 v 0.759331 0.7582991 H 1.0038991 1.7931494 V 5.8737291 5.1143981 H 1.0038991 Z m 14.74298888,0 v 0.759331 0.7582991 h 0.81917 0.819169 V 5.8737291 5.1143981 H 15.777839 Z M 5.5547266,5.4187494 h 0.3652215 0.3652216 l -0.016516,0.9553541 -0.016516,0.955354 -0.3053833,0.017533 C 5.7786396,7.3568205 5.6218001,7.3459905 5.5980563,7.3222375 5.5743123,7.2984935 5.5547253,6.8599783 5.5547253,6.348313 Z m 5.0357254,1.8807885 h 0.33324 0.33427 V 8.2394166 9.180327 h -0.33427 -0.33324 V 8.2394166 Z M 5.5547266,7.9061777 H 5.9189161 6.2820743 V 9.7869662 11.667754 H 5.9189161 5.5547266 V 9.7869662 Z M 0.21568012,7.9660167 V 8.6943966 9.4227764 H 1.0038991 1.7931494 V 8.694396 7.9660161 H 1.0038991 Z m 14.74298888,0 v 0.7283799 0.7283798 h 0.81917 0.819169 V 8.694396 7.9660161 H 15.777839 Z M 8.7705335,8.5066265 v 2.5204395 2.521473 H 8.405312 8.0411227 l 0.01546,-2.502901 0.01546,-2.5029017 0.3487143,-0.017533 z m 1.8199185,1.2803397 h 0.33324 0.33427 v 2.2140248 2.215059 h -0.33427 -0.33324 V 12.000991 Z M 0.21568012,10.757795 v 0.758298 0.758297 H 1.0038991 1.7931494 V 11.516093 10.757795 H 1.0038991 Z m 14.74298888,0 v 0.758298 0.758297 h 0.81917 0.819169 V 11.516093 10.757795 H 15.777839 Z M 0.21568012,13.548539 v 0.7583 0.758301 H 1.0038991 1.7931494 v -0.758301 -0.7583 H 1.0038991 Z m 14.74298888,0 v 0.7583 0.758301 h 0.81917 0.819169 v -0.758301 -0.7583 h -0.819169 z" />
  <text
     xml:space="preserve"
     transform="scale(0.26457812)"
     id="text3806"
     style="font-size:6.66667px;white-space:pre;shape-inside:url(#rect3808);display:inline;fill:#999999;stroke-width:2" />
</svg>
