<?xml version="1.0" encoding="UTF-8" standalone="no"?>
<svg
   width="64"
   height="64"
   version="1.1"
   viewBox="0 0 16.933 16.933"
   id="svg7"
   sodipodi:docname="preferences-document.svg"
   inkscape:version="1.4 (e7c3feb100, 2024-10-09)"
   xmlns:inkscape="http://www.inkscape.org/namespaces/inkscape"
   xmlns:sodipodi="http://sodipodi.sourceforge.net/DTD/sodipodi-0.dtd"
   xmlns="http://www.w3.org/2000/svg"
   xmlns:svg="http://www.w3.org/2000/svg"
   xmlns:rdf="http://www.w3.org/1999/02/22-rdf-syntax-ns#"
   xmlns:cc="http://creativecommons.org/ns#"
   xmlns:dc="http://purl.org/dc/elements/1.1/">
  <sodipodi:namedview
     id="namedview7"
     pagecolor="#9c4444"
     bordercolor="#000000"
     borderopacity="0.25"
     inkscape:showpageshadow="2"
     inkscape:pageopacity="0.0"
     inkscape:pagecheckerboard="0"
     inkscape:deskcolor="#d1d1d1"
     inkscape:zoom="6.15625"
     inkscape:cx="15.756345"
     inkscape:cy="29.563452"
     inkscape:window-width="1226"
     inkscape:window-height="669"
     inkscape:window-x="124"
     inkscape:window-y="132"
     inkscape:window-maximized="0"
     inkscape:current-layer="svg7"
     showgrid="false" />
  <defs
     id="defs2">
    <rect
       x="67.489848"
       y="35.60533"
       width="15.337563"
       height="22.51269"
       id="rect3808" />
    <filter
       style="color-interpolation-filters:sRGB;"
       inkscape:label="Blur"
       id="filter1283"
       x="-0.082344266"
       y="-0.082344266"
       width="1.1646885"
       height="1.1646885">
      <feGaussianBlur
         stdDeviation="0.5 0.5"
         result="blur"
         id="feGaussianBlur1281" />
    </filter>
  </defs>
  <metadata
     id="metadata2">
    <rdf:RDF>
      <cc:Work
         rdf:about="">
        <dc:format>image/svg+xml</dc:format>
        <dc:type
           rdf:resource="http://purl.org/dc/dcmitype/StillImage" />
      </cc:Work>
    </rdf:RDF>
  </metadata>
  <path
     id="path102"
     style="fill:#f9f9f9;fill-opacity:1;stroke:none;stroke-width:0.528231;stroke-dasharray:none;stroke-dashoffset:2.2;stroke-opacity:0.3"
     d="m 6.3022635,0.40890464 c -3.837981,0 -3.7060047,-0.01251 -3.9297462,0.36625365 -0.090422,0.1530903 -0.099047,0.83865041 -0.099047,7.73052551 0,8.3509832 -0.026819,7.7960862 0.3817289,8.0451902 0.1890484,0.11529 0.3489283,0.11844 5.9766399,0.11865 6.3001059,2.47e-4 5.9742879,0.01797 6.2562279,-0.34046 0.12627,-0.160545 0.125865,-0.179185 0.125865,-5.431899 V 5.6272483 H 12.723554 C 10.155567,5.6271427 10.111608,5.620002 9.9028863,5.2021872 9.8075129,5.0112862 9.796712,4.7582908 9.7966127,2.6992845 V 0.40890464 Z m 4.2227495,0.092853 V 2.4609553 c 0,2.1385238 0.011,2.2206575 0.348715,2.4038601 0.13674,0.07419 0.507758,0.090844 2.099508,0.092853 l 1.933407,0.00201 -1.033764,-1.0770906 C 13.303941,3.2903001 12.317825,2.2868095 11.681549,1.653112 Z M 5.1250934,8.2364107 H 8.6431922 12.16232 V 8.6913898 9.1463694 H 8.6431917 5.1250925 V 8.6913898 Z m 0,1.6981781 H 8.6431922 12.16232 v 0.4859302 0.484898 H 8.6431917 5.1250925 v -0.484898 z m 0,1.7600772 H 8.6431922 12.16232 v 0.4849 0.48593 H 8.6431917 5.1250925 v -0.48593 z m 0,1.75905 h 2.2140294 2.2150605 v 0.485929 0.484898 H 7.3391228 5.1250925 v -0.484898 z" />
  <text
     xml:space="preserve"
     transform="scale(0.26457812)"
     id="text3806"
     style="font-size:6.66667px;white-space:pre;shape-inside:url(#rect3808);display:inline;fill:#999999;stroke-width:2" />
</svg>
