<?xml version="1.0" encoding="UTF-8" standalone="no"?>
<svg
   width="64"
   height="64"
   version="1.1"
   viewBox="0 0 16.933 16.933"
   id="svg7"
   sodipodi:docname="preferences-system-time.svg"
   inkscape:version="1.4 (e7c3feb100, 2024-10-09)"
   xmlns:inkscape="http://www.inkscape.org/namespaces/inkscape"
   xmlns:sodipodi="http://sodipodi.sourceforge.net/DTD/sodipodi-0.dtd"
   xmlns="http://www.w3.org/2000/svg"
   xmlns:svg="http://www.w3.org/2000/svg"
   xmlns:rdf="http://www.w3.org/1999/02/22-rdf-syntax-ns#"
   xmlns:cc="http://creativecommons.org/ns#"
   xmlns:dc="http://purl.org/dc/elements/1.1/">
  <sodipodi:namedview
     id="namedview7"
     pagecolor="#9c4444"
     bordercolor="#000000"
     borderopacity="0.25"
     inkscape:showpageshadow="2"
     inkscape:pageopacity="0.0"
     inkscape:pagecheckerboard="0"
     inkscape:deskcolor="#d1d1d1"
     inkscape:zoom="6.15625"
     inkscape:cx="15.756345"
     inkscape:cy="29.563452"
     inkscape:window-width="1226"
     inkscape:window-height="669"
     inkscape:window-x="124"
     inkscape:window-y="132"
     inkscape:window-maximized="0"
     inkscape:current-layer="svg7"
     showgrid="false" />
  <defs
     id="defs2">
    <rect
       x="67.489848"
       y="35.60533"
       width="15.337563"
       height="22.51269"
       id="rect3808" />
    <filter
       style="color-interpolation-filters:sRGB;"
       inkscape:label="Blur"
       id="filter1283"
       x="-0.082344266"
       y="-0.082344266"
       width="1.1646885"
       height="1.1646885">
      <feGaussianBlur
         stdDeviation="0.5 0.5"
         result="blur"
         id="feGaussianBlur1281" />
    </filter>
  </defs>
  <metadata
     id="metadata2">
    <rdf:RDF>
      <cc:Work
         rdf:about="">
        <dc:format>image/svg+xml</dc:format>
        <dc:type
           rdf:resource="http://purl.org/dc/dcmitype/StillImage" />
      </cc:Work>
    </rdf:RDF>
  </metadata>
  <path
     id="path11"
     style="fill:#f9f9f9;stroke-width:0.0242421;stroke-opacity:0.6"
     d="M 8.4201611,0.40006889 C 7.6030493,0.41303789 6.7801235,0.54942029 5.9790565,0.81429644 2.1948557,2.0655742 -0.11673352,5.9048577 0.53849183,9.8523979 0.89072363,11.97449 2.0327416,13.822616 3.7796794,15.097763 c 1.1636404,0.849381 2.6379714,1.39891 4.0673728,1.516186 0.139206,0.0114 0.4287434,0.02197 0.6434711,0.0238 3.9971547,0.03453 7.4202757,-2.844552 8.0666517,-6.7842483 0.14973,-0.9125711 0.14973,-1.7552961 0,-2.6658089 C 16.280717,5.5065672 15.501901,3.9867756 14.294245,2.7753507 12.806893,1.2833568 10.818746,0.45779819 8.7697004,0.40233854 8.6532779,0.39918854 8.5368913,0.39821354 8.4201611,0.40005854 Z M 8.3305046,1.5462871 c 1.3409534,-0.040812 2.6137134,0.2773742 3.7405314,0.9362673 0.573764,0.3355023 1.00101,0.6726885 1.493487,1.1779947 1.024217,1.0508897 1.664259,2.3506913 1.896371,3.8472077 0.0457,0.2947335 0.05447,0.4445245 0.05447,1.0123042 0,0.7641959 -0.03672,1.079616 -0.200862,1.728406 -0.231791,0.916138 -0.621312,1.72519 -1.206366,2.509195 -0.28983,0.388389 -0.946029,1.041957 -1.34709,1.341414 -0.940878,0.702518 -2.023266,1.154585 -3.1844469,1.330068 -0.386633,0.05844 -1.2987716,0.08446 -1.6807421,0.04767 C 6.5961697,15.351603 5.3791085,14.876997 4.3107983,14.079786 3.9224104,13.789956 3.2688407,13.133757 2.9693824,12.732693 2.263253,11.786981 1.8202754,10.723019 1.6359106,9.5323648 1.5904199,9.2385774 1.581763,9.0860199 1.581437,8.520061 1.58111,7.9527831 1.5896711,7.8033625 1.6347758,7.5145662 1.8410549,6.1937916 2.3416915,5.0635227 3.1702544,4.0532142 3.2679707,3.9340638 3.5009923,3.6870945 3.6877549,3.505072 4.9461857,2.2785823 6.5547508,1.6003312 8.3305046,1.5462871 Z M 7.9911806,3.3076048 V 6.4841049 9.6594702 H 10.293831 12.59648 V 9.3802923 9.102249 H 10.573009 8.5484017 V 6.2049267 3.3076048 H 8.2692233 Z" />
  <text
     xml:space="preserve"
     transform="scale(0.26457812)"
     id="text3806"
     style="font-size:6.66667px;white-space:pre;shape-inside:url(#rect3808);display:inline;fill:#999999;stroke-width:2" />
</svg>
