<?xml version="1.0" encoding="UTF-8" standalone="no"?>
<svg
   width="64"
   height="64"
   version="1.1"
   viewBox="0 0 16.933 16.933"
   id="svg7"
   sodipodi:docname="preferences-security-firewall.svg"
   inkscape:version="1.4 (e7c3feb100, 2024-10-09)"
   xmlns:inkscape="http://www.inkscape.org/namespaces/inkscape"
   xmlns:sodipodi="http://sodipodi.sourceforge.net/DTD/sodipodi-0.dtd"
   xmlns="http://www.w3.org/2000/svg"
   xmlns:svg="http://www.w3.org/2000/svg"
   xmlns:rdf="http://www.w3.org/1999/02/22-rdf-syntax-ns#"
   xmlns:cc="http://creativecommons.org/ns#"
   xmlns:dc="http://purl.org/dc/elements/1.1/">
  <sodipodi:namedview
     id="namedview7"
     pagecolor="#9c4444"
     bordercolor="#000000"
     borderopacity="0.25"
     inkscape:showpageshadow="2"
     inkscape:pageopacity="0.0"
     inkscape:pagecheckerboard="0"
     inkscape:deskcolor="#d1d1d1"
     inkscape:zoom="6.15625"
     inkscape:cx="15.756345"
     inkscape:cy="29.563452"
     inkscape:window-width="1226"
     inkscape:window-height="669"
     inkscape:window-x="124"
     inkscape:window-y="132"
     inkscape:window-maximized="0"
     inkscape:current-layer="svg7"
     showgrid="false" />
  <defs
     id="defs2">
    <rect
       x="67.489848"
       y="35.60533"
       width="15.337563"
       height="22.51269"
       id="rect3808" />
    <filter
       style="color-interpolation-filters:sRGB;"
       inkscape:label="Blur"
       id="filter1283"
       x="-0.082344266"
       y="-0.082344266"
       width="1.1646885"
       height="1.1646885">
      <feGaussianBlur
         stdDeviation="0.5 0.5"
         result="blur"
         id="feGaussianBlur1281" />
    </filter>
  </defs>
  <metadata
     id="metadata2">
    <rdf:RDF>
      <cc:Work
         rdf:about="">
        <dc:format>image/svg+xml</dc:format>
        <dc:type
           rdf:resource="http://purl.org/dc/dcmitype/StillImage" />
      </cc:Work>
    </rdf:RDF>
  </metadata>
  <path
     style="fill:#f9f9f9;fill-opacity:1;stroke:none;stroke-width:0.48021;stroke-dasharray:none;stroke-dashoffset:2.2;stroke-opacity:0.3"
     d="M 8.2640102,16.728161 C 7.5164108,16.449116 6.4456424,15.781097 5.7286471,15.146431 3.3055075,13.001522 1.9421365,8.9186166 2.0566006,4.1497048 2.0877094,2.8535575 2.1361043,2.5959013 2.3721761,2.4695595 2.6812979,2.3041222 8.3531986,0.4283824 8.5387423,0.4302298 c 0.1159215,0.001135 1.5002467,0.4405593 3.1835797,1.0105157 3.50795,1.1877502 3.192827,0.9935017 3.2565,2.0073696 0.06048,0.9630331 -0.0087,3.0048525 -0.13329,3.9298329 -0.267913,1.9902262 -0.692211,3.459865 -1.42522,4.936535 -0.943335,1.900382 -2.262549,3.252648 -4.011347,4.111853 -0.7705612,0.378585 -0.8694579,0.404656 -1.1449578,0.301825 z M 9.157133,10.343636 C 10.146634,8.9867439 10.99829,7.7883501 11.0497,7.6805383 11.187562,7.3914418 11.171987,7.0708044 11.012332,6.9111462 10.815697,6.7145097 10.532421,6.6615561 9.6753632,6.6612174 L 8.8970077,6.6609096 9.3100684,5.5439838 C 9.80122,4.2159016 9.8371501,4.026102 9.6355735,3.8245263 9.4967821,3.6857346 9.4760401,3.6824403 8.74091,3.6824403 c -0.8439186,0 -1.0372678,0.054177 -1.2666621,0.3549297 -0.1779624,0.2333206 -1.4606542,4.0005706 -1.4606542,4.2899235 0,0.1667784 0.03756,0.2549941 0.1612281,0.3786616 l 0.1612281,0.1612281 h 0.7137594 0.7137595 l -0.324924,1.9143688 c -0.1787068,1.052903 -0.3119109,1.94828 -0.2960071,1.989722 0.015906,0.04144 0.070875,0.06729 0.1221615,0.05739 0.051284,-0.0098 0.9028368,-1.128143 1.8923373,-2.485034 z"
     id="path83" />
  <text
     xml:space="preserve"
     transform="scale(0.26457812)"
     id="text3806"
     style="font-size:6.66667px;white-space:pre;shape-inside:url(#rect3808);display:inline;fill:#999999;stroke-width:2" />
</svg>
