<?xml version="1.0" encoding="UTF-8" standalone="no"?>
<svg
   width="64"
   height="64"
   version="1.1"
   viewBox="0 0 16.933 16.933"
   id="svg7"
   sodipodi:docname="preferences-desktop-theme-global.svg"
   inkscape:version="1.4 (e7c3feb100, 2024-10-09)"
   xmlns:inkscape="http://www.inkscape.org/namespaces/inkscape"
   xmlns:sodipodi="http://sodipodi.sourceforge.net/DTD/sodipodi-0.dtd"
   xmlns="http://www.w3.org/2000/svg"
   xmlns:svg="http://www.w3.org/2000/svg"
   xmlns:rdf="http://www.w3.org/1999/02/22-rdf-syntax-ns#"
   xmlns:cc="http://creativecommons.org/ns#"
   xmlns:dc="http://purl.org/dc/elements/1.1/">
  <sodipodi:namedview
     id="namedview7"
     pagecolor="#9c4444"
     bordercolor="#000000"
     borderopacity="0.25"
     inkscape:showpageshadow="2"
     inkscape:pageopacity="0.0"
     inkscape:pagecheckerboard="0"
     inkscape:deskcolor="#d1d1d1"
     inkscape:zoom="6.15625"
     inkscape:cx="15.756345"
     inkscape:cy="29.563452"
     inkscape:window-width="1226"
     inkscape:window-height="669"
     inkscape:window-x="124"
     inkscape:window-y="132"
     inkscape:window-maximized="0"
     inkscape:current-layer="svg7"
     showgrid="false" />
  <defs
     id="defs2">
    <rect
       x="67.489848"
       y="35.60533"
       width="15.337563"
       height="22.51269"
       id="rect3808" />
    <filter
       style="color-interpolation-filters:sRGB;"
       inkscape:label="Blur"
       id="filter1283"
       x="-0.082344266"
       y="-0.082344266"
       width="1.1646885"
       height="1.1646885">
      <feGaussianBlur
         stdDeviation="0.5 0.5"
         result="blur"
         id="feGaussianBlur1281" />
    </filter>
  </defs>
  <metadata
     id="metadata2">
    <rdf:RDF>
      <cc:Work
         rdf:about="">
        <dc:format>image/svg+xml</dc:format>
        <dc:type
           rdf:resource="http://purl.org/dc/dcmitype/StillImage" />
      </cc:Work>
    </rdf:RDF>
  </metadata>
  <path
     d="m 1.2509066,0.31102213 v 0.004035 3.18281427 3.1828146 3.182816 1.054256 2.128564 0.525123 0.529128 a 1.9769109,2.1245496 0 0 0 1.9731822,2.120552 H 2.7056161 l 0.033562,0.0042 h 1.4808171 2.9616355 2.9616353 2.961646 2.961632 V 13.042454 H 13.104912 10.143274 8.2633441 L 9.8933621,12.032283 12.455888,10.440792 15.022142,8.8493845 13.541324,6.0954873 10.975067,7.6868946 8.4125455,9.2783035 6.789985,10.284457 7.7262223,8.5407229 9.2070388,5.7868264 10.687857,3.0289204 8.114143,1.433506 6.6333251,4.1914113 5.1525065,6.9453073 4.2125428,8.6970583 V 6.6767272 3.4939126 0.31109668 Z M 3.2240888,13.038275 c 0.2611002,0 0.5110142,0.11223 0.6975134,0.308662 0.186501,0.196416 0.2872099,0.468999 0.2872099,0.749601 0,0.280604 -0.1044405,0.549177 -0.2872099,0.749607 -0.1827735,0.200423 -0.4364132,0.30866 -0.6975134,0.30866 -0.2611006,0 -0.5110138,-0.11226 -0.6975151,-0.30866 -0.186501,-0.196416 -0.2872104,-0.469003 -0.2872104,-0.749607 0,-0.280602 0.104442,-0.549171 0.2872104,-0.749601 0.1827715,-0.200419 0.4364145,-0.308662 0.6975151,-0.308662 z"
     fill="#bebebe"
     id="path2-3"
     style="fill:#f9f9f9;fill-opacity:1;stroke:none;stroke-width:0.502343;stroke-dasharray:none;stroke-opacity:0.3" />
  <text
     xml:space="preserve"
     transform="scale(0.26457812)"
     id="text3806"
     style="font-size:6.66667px;white-space:pre;shape-inside:url(#rect3808);display:inline;fill:#999999;stroke-width:2" />
</svg>
