<?xml version="1.0" encoding="UTF-8" standalone="no"?>
<svg
   width="64"
   height="64"
   version="1.1"
   viewBox="0 0 16.933 16.933"
   id="svg7"
   sodipodi:docname="preferences-system-network-proxy.svg"
   inkscape:version="1.4 (e7c3feb100, 2024-10-09)"
   xmlns:inkscape="http://www.inkscape.org/namespaces/inkscape"
   xmlns:sodipodi="http://sodipodi.sourceforge.net/DTD/sodipodi-0.dtd"
   xmlns="http://www.w3.org/2000/svg"
   xmlns:svg="http://www.w3.org/2000/svg"
   xmlns:rdf="http://www.w3.org/1999/02/22-rdf-syntax-ns#"
   xmlns:cc="http://creativecommons.org/ns#"
   xmlns:dc="http://purl.org/dc/elements/1.1/">
  <sodipodi:namedview
     id="namedview7"
     pagecolor="#9c4444"
     bordercolor="#000000"
     borderopacity="0.25"
     inkscape:showpageshadow="2"
     inkscape:pageopacity="0.0"
     inkscape:pagecheckerboard="0"
     inkscape:deskcolor="#d1d1d1"
     inkscape:zoom="6.15625"
     inkscape:cx="15.756345"
     inkscape:cy="29.563452"
     inkscape:window-width="1226"
     inkscape:window-height="669"
     inkscape:window-x="124"
     inkscape:window-y="132"
     inkscape:window-maximized="0"
     inkscape:current-layer="svg7"
     showgrid="false" />
  <defs
     id="defs2">
    <rect
       x="67.489848"
       y="35.60533"
       width="15.337563"
       height="22.51269"
       id="rect3808" />
    <filter
       style="color-interpolation-filters:sRGB;"
       inkscape:label="Blur"
       id="filter1283"
       x="-0.082344266"
       y="-0.082344266"
       width="1.1646885"
       height="1.1646885">
      <feGaussianBlur
         stdDeviation="0.5 0.5"
         result="blur"
         id="feGaussianBlur1281" />
    </filter>
  </defs>
  <metadata
     id="metadata2">
    <rdf:RDF>
      <cc:Work
         rdf:about="">
        <dc:format>image/svg+xml</dc:format>
        <dc:type
           rdf:resource="http://purl.org/dc/dcmitype/StillImage" />
      </cc:Work>
    </rdf:RDF>
  </metadata>
  <path
     d="m 5.4501074,2.4560919 c -0.3099034,0 -0.5594199,0.2495166 -0.5594199,0.55942 v 1.1367413 c 0,0.309904 0.2495165,0.55942 0.5594199,0.55942 h 6.0327866 c 0.309901,0 0.559419,-0.249516 0.559419,-0.55942 V 3.0155119 c 0,-0.3099034 -0.249518,-0.55942 -0.559419,-0.55942 z m 0.5101911,0.6757792 c 0.012225,-0.0024 0.022873,0 0.035803,0 h 1.36946 c 0.103431,0 0.187965,0.080061 0.187965,0.1834899 v 0.5325678 c 0,0.103431 -0.084534,0.187965 -0.187965,0.187965 H 5.9961014 c -0.103431,0 -0.187965,-0.084534 -0.187965,-0.187965 V 3.315361 c 0,-0.090502 0.066691,-0.1667518 0.1521621,-0.1834899 z M 5.4501074,5.7096783 c -0.3099034,0 -0.5594199,0.2495164 -0.5594199,0.55942 v 1.1367414 c 0,0.3099038 0.2495165,0.5594198 0.5594199,0.5594198 h 6.0327866 c 0.309901,0 0.559419,-0.249516 0.559419,-0.5594198 V 6.2690983 c 0,-0.3099036 -0.249518,-0.55942 -0.559419,-0.55942 z m 0.5101911,0.6757792 c 0.012225,-0.0024 0.022873,0 0.035803,0 h 1.36946 c 0.103431,0 0.187965,0.080061 0.187965,0.1834899 v 0.5325677 c 0,0.103431 -0.084534,0.1879651 -0.187965,0.1879651 H 5.9961014 c -0.103431,0 -0.187965,-0.084534 -0.187965,-0.1879651 V 6.5689474 c 0,-0.090501 0.066691,-0.1667517 0.1521621,-0.1834899 z M 2.890202,7.1149413 0.04387312,8.4664998 2.890202,9.8180581 V 9.1109515 h 1.1233152 c 0.1632725,0 0.2953737,-0.1321005 0.2953737,-0.2953738 V 8.1174219 c 0,-0.1632725 -0.1321005,-0.2953739 -0.2953737,-0.2953739 H 2.890202 Z m 11.152598,0 V 7.822048 h -1.118843 c -0.163267,0 -0.295372,0.1321005 -0.295372,0.2953739 v 0.6981558 c 0,0.1632724 0.132105,0.2953738 0.295372,0.2953738 H 14.0428 V 9.8180581 L 16.889126,8.4664998 Z M 5.4501074,8.9677401 c -0.3099034,0 -0.5594199,0.2495164 -0.5594199,0.5594197 v 1.1367412 c 0,0.309905 0.2495165,0.559419 0.5594199,0.559419 h 6.0327866 c 0.309901,0 0.559419,-0.249514 0.559419,-0.559419 V 9.5271598 c 0,-0.3099033 -0.249518,-0.5594197 -0.559419,-0.5594197 z m 0.5101911,0.6757792 c 0.012225,-0.0024 0.022873,0 0.035803,0 h 1.36946 c 0.103431,0 0.187965,0.080061 0.187965,0.1834898 v 0.5325679 c 0,0.103434 -0.084534,0.187964 -0.187965,0.187964 H 5.9961014 c -0.103431,0 -0.187965,-0.08454 -0.187965,-0.187964 V 9.8270091 c 0,-0.090501 0.066691,-0.1667516 0.1521621,-0.1834898 z M 5.4501074,12.221327 c -0.3099034,0 -0.5594199,0.249515 -0.5594199,0.559418 v 1.136743 c 0,0.309903 0.2495165,0.559419 0.5594199,0.559419 h 6.0327866 c 0.309901,0 0.559419,-0.249516 0.559419,-0.559419 v -1.136743 c 0,-0.309903 -0.249518,-0.559418 -0.559419,-0.559418 z m 0.5101911,0.675782 c 0.012225,-0.0023 0.022873,0 0.035803,0 h 1.36946 c 0.103431,0 0.187965,0.08004 0.187965,0.183486 v 0.532569 c 0,0.10344 -0.084534,0.187965 -0.187965,0.187965 H 5.9961014 c -0.103431,0 -0.187965,-0.08452 -0.187965,-0.187965 v -0.532569 c 0,-0.09051 0.066691,-0.166751 0.1521621,-0.183486 z"
     fill="url(#a)"
     id="path2"
     style="fill:#f9f9f9;fill-opacity:1;stroke-width:0.143211" />
  <text
     xml:space="preserve"
     transform="scale(0.26457812)"
     id="text3806"
     style="font-size:6.66667px;white-space:pre;shape-inside:url(#rect3808);display:inline;fill:#999999;stroke-width:2" />
</svg>
