<?xml version="1.0" encoding="UTF-8" standalone="no"?>
<svg
   width="64"
   height="64"
   version="1.1"
   viewBox="0 0 16.933 16.933"
   id="svg7"
   sodipodi:docname="preferences-gtk-config.svg"
   inkscape:version="1.4 (e7c3feb100, 2024-10-09)"
   xmlns:inkscape="http://www.inkscape.org/namespaces/inkscape"
   xmlns:sodipodi="http://sodipodi.sourceforge.net/DTD/sodipodi-0.dtd"
   xmlns="http://www.w3.org/2000/svg"
   xmlns:svg="http://www.w3.org/2000/svg"
   xmlns:rdf="http://www.w3.org/1999/02/22-rdf-syntax-ns#"
   xmlns:cc="http://creativecommons.org/ns#"
   xmlns:dc="http://purl.org/dc/elements/1.1/">
  <sodipodi:namedview
     id="namedview7"
     pagecolor="#9c4444"
     bordercolor="#000000"
     borderopacity="0.25"
     inkscape:showpageshadow="2"
     inkscape:pageopacity="0.0"
     inkscape:pagecheckerboard="0"
     inkscape:deskcolor="#d1d1d1"
     inkscape:zoom="6.15625"
     inkscape:cx="15.756345"
     inkscape:cy="29.563452"
     inkscape:window-width="1226"
     inkscape:window-height="669"
     inkscape:window-x="124"
     inkscape:window-y="132"
     inkscape:window-maximized="0"
     inkscape:current-layer="svg7"
     showgrid="false" />
  <defs
     id="defs2">
    <rect
       x="67.489848"
       y="35.60533"
       width="15.337563"
       height="22.51269"
       id="rect3808" />
    <filter
       style="color-interpolation-filters:sRGB;"
       inkscape:label="Blur"
       id="filter1283"
       x="-0.082344266"
       y="-0.082344266"
       width="1.1646885"
       height="1.1646885">
      <feGaussianBlur
         stdDeviation="0.5 0.5"
         result="blur"
         id="feGaussianBlur1281" />
    </filter>
  </defs>
  <metadata
     id="metadata2">
    <rdf:RDF>
      <cc:Work
         rdf:about="">
        <dc:format>image/svg+xml</dc:format>
        <dc:type
           rdf:resource="http://purl.org/dc/dcmitype/StillImage" />
      </cc:Work>
    </rdf:RDF>
  </metadata>
  <path
     id="path15571"
     style="fill:#f9f9f9;stroke:none;stroke-width:0.48021;stroke-dasharray:none;stroke-opacity:0.3"
     d="m 13.453297,0.64622144 c -1.026102,0.018225 -2.015718,0.65589526 -2.50234,1.66853906 -0.569846,1.1858274 -0.478198,2.4286359 0.205401,2.7940307 0.193744,0.10356 0.291207,0.123897 0.483961,0.098481 0.945125,-0.12462 2.287701,-1.3534488 2.903765,-2.6580339 0.182865,-0.3871947 0.199753,-0.4639025 0.200712,-0.8994542 l 0.0018,-0.4764574 -0.22041,-0.20540191 C 14.368824,0.82100804 14.224476,0.74466164 14.023504,0.70155794 13.833906,0.66089369 13.643272,0.64284599 13.453254,0.64622189 Z M 8.5986815,1.3768518 c -0.7265359,0.017134 -1.164141,0.552499 -1.2108399,1.4809587 -0.012771,0.253857 0.00447,0.5949577 0.038455,0.7587676 C 7.5125635,4.032121 7.7614003,4.5330312 7.9674706,4.706428 8.3209204,5.0038362 8.667049,4.8217245 9.0179284,4.1539996 9.4234771,3.3822388 9.555817,2.3171904 9.3068039,1.829862 9.1329184,1.4895579 8.9437202,1.3687126 8.598683,1.3768518 Z M 5.3113114,2.0849737 C 5.2135555,2.0830597 5.108324,2.0994937 4.996174,2.1328122 4.3833794,2.3147926 4.0628776,2.8651078 4.1773796,3.5387373 4.2865436,4.1809648 4.7942224,4.9565197 5.2334647,5.1528781 5.3285113,5.1953673 5.4792113,5.218162 5.5682989,5.2035249 6.192958,5.1008979 6.4566985,3.4856415 5.9969225,2.5783167 5.8332922,2.255409 5.6045767,2.0907774 5.3113114,2.0849766 Z M 2.9740424,4.5845005 C 2.6655223,4.5833479 2.3356225,4.7412901 2.1496205,5.0150001 2.042906,5.1720421 2.025614,5.2544313 2.043638,5.5120915 2.0611565,5.76255 2.104649,5.878644 2.2753016,6.1264219 c 0.2332367,0.3386507 0.6518097,0.6824144 0.9754251,0.8009747 0.116283,0.0426 0.2551298,0.079484 0.3085719,0.081599 0.177474,0.00695 0.4033376,-0.1525568 0.4642641,-0.3273303 C 4.2341722,6.077512 3.8790689,5.0023243 3.3660887,4.689546 3.2502262,4.6189014 3.1142798,4.585023 2.9740424,4.5845005 Z m 6.3862209,1.41249 C 8.3103716,6.0134377 7.1323711,6.2716122 6.1301057,6.7670143 4.3080806,7.667607 3.3426982,9.076047 3.4514383,10.674337 c 0.046029,0.676533 0.2107806,1.242855 0.5749381,1.979927 0.8975714,1.816734 2.5678482,3.197848 4.272174,3.532164 0.3727869,0.07313 1.0203651,0.0648 1.3271415,-0.01687 1.3883821,-0.369662 2.6727431,-1.731359 2.9891161,-3.169193 0.05796,-0.263485 0.05463,-0.326607 -0.02627,-0.497092 -0.265427,-0.55935 -1.642251,-0.627986 -2.585815,-0.129435 -0.4161469,0.219879 -0.4905961,0.342637 -0.4980292,0.818794 -0.01029,0.659501 -0.2527073,0.958827 -0.7728375,0.954791 -0.5305071,-0.0042 -1.1015232,-0.323817 -1.2961875,-0.72594 -0.2329736,-0.481257 -0.098358,-0.92012 0.4314379,-1.410617 0.1766549,-0.163551 0.9251082,-0.69687 1.6629123,-1.185517 1.634567,-1.0825712 2.212514,-1.5935502 2.530478,-2.2369083 0.183563,-0.3714146 0.202512,-0.4496709 0.20165,-0.8441175 -0.0011,-0.500846 -0.09863,-0.7376352 -0.43988,-1.0664024 C 11.332339,6.2058975 10.410155,5.9805415 9.3602623,5.9969934 Z" />
  <text
     xml:space="preserve"
     transform="scale(0.26457812)"
     id="text3806"
     style="font-size:6.66667px;white-space:pre;shape-inside:url(#rect3808);display:inline;fill:#999999;stroke-width:2" />
</svg>
