<?xml version="1.0" encoding="UTF-8" standalone="no"?>
<svg
   width="64"
   height="64"
   version="1.1"
   viewBox="0 0 16.933 16.933"
   id="svg7"
   sodipodi:docname="preferences-desktop-notification-bell.svg"
   inkscape:version="1.4 (e7c3feb100, 2024-10-09)"
   xmlns:inkscape="http://www.inkscape.org/namespaces/inkscape"
   xmlns:sodipodi="http://sodipodi.sourceforge.net/DTD/sodipodi-0.dtd"
   xmlns="http://www.w3.org/2000/svg"
   xmlns:svg="http://www.w3.org/2000/svg"
   xmlns:rdf="http://www.w3.org/1999/02/22-rdf-syntax-ns#"
   xmlns:cc="http://creativecommons.org/ns#"
   xmlns:dc="http://purl.org/dc/elements/1.1/">
  <sodipodi:namedview
     id="namedview7"
     pagecolor="#9c4444"
     bordercolor="#000000"
     borderopacity="0.25"
     inkscape:showpageshadow="2"
     inkscape:pageopacity="0.0"
     inkscape:pagecheckerboard="0"
     inkscape:deskcolor="#d1d1d1"
     inkscape:zoom="6.15625"
     inkscape:cx="15.756345"
     inkscape:cy="27.126904"
     inkscape:window-width="1226"
     inkscape:window-height="669"
     inkscape:window-x="35"
     inkscape:window-y="32"
     inkscape:window-maximized="0"
     inkscape:current-layer="svg7"
     showgrid="false" />
  <defs
     id="defs2">
    <filter
       style="color-interpolation-filters:sRGB;"
       inkscape:label="Blur"
       id="filter1283"
       x="-0.082344266"
       y="-0.082344266"
       width="1.1646885"
       height="1.1646885">
      <feGaussianBlur
         stdDeviation="0.5 0.5"
         result="blur"
         id="feGaussianBlur1281" />
    </filter>
  </defs>
  <metadata
     id="metadata2">
    <rdf:RDF>
      <cc:Work
         rdf:about="">
        <dc:format>image/svg+xml</dc:format>
        <dc:type
           rdf:resource="http://purl.org/dc/dcmitype/StillImage" />
      </cc:Work>
    </rdf:RDF>
  </metadata>
  <g
     id="g9"
     transform="matrix(0.57524271,0,0,0.57524271,-0.73738362,-0.69123412)"
     style="fill:#f9f9f9;fill-opacity:1">
    <circle
       cx="15.999998"
       cy="26.5"
       r="3.5"
       fill="url(#a)"
       id="circle7"
       style="fill:#f9f9f9;fill-opacity:1" />
    <path
       d="M 16,2 C 14.015625,2 12.5,3.5468495 12.5,5.4765625 12.499783,5.6433105 12.514159,5.83564 12.542969,6 8.9283778,7.227326 8.004303,10.528186 8,14.263672 8,19.144046 4,23.047849 2,25 v 1 H 16 30 V 25 C 28,23.04785 24,19.144046 24,14.263672 23.9957,10.528186 23.071621,7.227326 19.457031,6 19.485841,5.83564 19.50022,5.6433105 19.5,5.4765625 19.5,3.5468495 17.984375,2 16,2 Z"
       fill="url(#b)"
       id="path7"
       style="fill:#f9f9f9;fill-opacity:1" />
  </g>
</svg>
