<?xml version="1.0" encoding="UTF-8" standalone="no"?>
<svg
   width="64"
   height="64"
   version="1.1"
   viewBox="0 0 16.933 16.933"
   id="svg7"
   sodipodi:docname="preferences-system-network.svg"
   inkscape:version="1.4 (e7c3feb100, 2024-10-09)"
   xmlns:inkscape="http://www.inkscape.org/namespaces/inkscape"
   xmlns:sodipodi="http://sodipodi.sourceforge.net/DTD/sodipodi-0.dtd"
   xmlns="http://www.w3.org/2000/svg"
   xmlns:svg="http://www.w3.org/2000/svg"
   xmlns:rdf="http://www.w3.org/1999/02/22-rdf-syntax-ns#"
   xmlns:cc="http://creativecommons.org/ns#"
   xmlns:dc="http://purl.org/dc/elements/1.1/">
  <sodipodi:namedview
     id="namedview7"
     pagecolor="#9c4444"
     bordercolor="#000000"
     borderopacity="0.25"
     inkscape:showpageshadow="2"
     inkscape:pageopacity="0.0"
     inkscape:pagecheckerboard="0"
     inkscape:deskcolor="#d1d1d1"
     inkscape:zoom="6.15625"
     inkscape:cx="15.756345"
     inkscape:cy="29.563452"
     inkscape:window-width="1226"
     inkscape:window-height="669"
     inkscape:window-x="124"
     inkscape:window-y="132"
     inkscape:window-maximized="0"
     inkscape:current-layer="svg7"
     showgrid="false" />
  <defs
     id="defs2">
    <rect
       x="67.489848"
       y="35.60533"
       width="15.337563"
       height="22.51269"
       id="rect3808" />
    <filter
       style="color-interpolation-filters:sRGB;"
       inkscape:label="Blur"
       id="filter1283"
       x="-0.082344266"
       y="-0.082344266"
       width="1.1646885"
       height="1.1646885">
      <feGaussianBlur
         stdDeviation="0.5 0.5"
         result="blur"
         id="feGaussianBlur1281" />
    </filter>
  </defs>
  <metadata
     id="metadata2">
    <rdf:RDF>
      <cc:Work
         rdf:about="">
        <dc:format>image/svg+xml</dc:format>
        <dc:type
           rdf:resource="http://purl.org/dc/dcmitype/StillImage" />
      </cc:Work>
    </rdf:RDF>
  </metadata>
  <path
     style="fill:#f9f9f9;fill-opacity:1;stroke:none;stroke-width:0.475407;stroke-dasharray:none;stroke-dashoffset:2.2;stroke-opacity:0.3"
     d="M 2.9216665,14.164269 C 2.2189738,13.999263 1.366983,13.264164 1.0041861,12.509877 0.7078278,11.893724 0.62331615,11.504538 0.6236469,10.757461 0.6238803,10.227057 0.6480459,10.02416 0.750486,9.6926591 1.1510737,8.396287 2.0603962,7.5201569 3.1935969,7.3387294 c 0.3177964,-0.05088 0.4612338,-0.046988 0.7917774,0.02151 0.2220184,0.046003 0.4466736,0.1008 0.4992309,0.1217685 0.085908,0.034275 0.095556,-0.00331 0.095556,-0.3724526 0,-1.2339057 0.4976061,-2.4412672 1.3651635,-3.3123469 C 6.6768927,3.0626725 7.3790014,2.7234914 8.2901259,2.664463 10.42985,2.5258345 12.251279,4.4256848 12.42374,6.9760492 c 0.0198,0.2928201 0.04152,0.5324013 0.04823,0.5324013 0.0067,0 0.11976,-0.040322 0.251165,-0.089603 0.358791,-0.134547 1.134435,-0.1205655 1.545058,0.027853 0.94814,0.3427083 1.719588,1.2444594 2.000813,2.3387602 0.137895,0.5365743 0.147525,1.3943773 0.02148,1.9150323 -0.278906,1.152222 -1.108365,2.113429 -2.083724,2.414689 -0.346086,0.10689 -0.493044,0.109575 -5.7144418,0.104235 -3.0031974,-0.0031 -5.4521769,-0.02733 -5.5706727,-0.05514 z"
     id="path99" />
  <text
     xml:space="preserve"
     transform="scale(0.26457812)"
     id="text3806"
     style="font-size:6.66667px;white-space:pre;shape-inside:url(#rect3808);display:inline;fill:#999999;stroke-width:2" />
</svg>
