<?xml version="1.0" encoding="UTF-8" standalone="no"?>
<svg
   width="64"
   height="64"
   version="1.1"
   viewBox="0 0 16.933 16.933"
   id="svg7"
   sodipodi:docname="preferences-desktop-display-color.svg"
   inkscape:version="1.4 (e7c3feb100, 2024-10-09)"
   xmlns:inkscape="http://www.inkscape.org/namespaces/inkscape"
   xmlns:sodipodi="http://sodipodi.sourceforge.net/DTD/sodipodi-0.dtd"
   xmlns="http://www.w3.org/2000/svg"
   xmlns:svg="http://www.w3.org/2000/svg"
   xmlns:rdf="http://www.w3.org/1999/02/22-rdf-syntax-ns#"
   xmlns:cc="http://creativecommons.org/ns#"
   xmlns:dc="http://purl.org/dc/elements/1.1/">
  <sodipodi:namedview
     id="namedview7"
     pagecolor="#9c4444"
     bordercolor="#000000"
     borderopacity="0.25"
     inkscape:showpageshadow="2"
     inkscape:pageopacity="0.0"
     inkscape:pagecheckerboard="0"
     inkscape:deskcolor="#d1d1d1"
     inkscape:zoom="6.15625"
     inkscape:cx="15.756345"
     inkscape:cy="27.126904"
     inkscape:window-width="1226"
     inkscape:window-height="669"
     inkscape:window-x="35"
     inkscape:window-y="32"
     inkscape:window-maximized="0"
     inkscape:current-layer="svg7"
     showgrid="false" />
  <defs
     id="defs2">
    <filter
       style="color-interpolation-filters:sRGB;"
       inkscape:label="Blur"
       id="filter1283"
       x="-0.082344266"
       y="-0.082344266"
       width="1.1646885"
       height="1.1646885">
      <feGaussianBlur
         stdDeviation="0.5 0.5"
         result="blur"
         id="feGaussianBlur1281" />
    </filter>
    <clipPath
       clipPathUnits="userSpaceOnUse"
       id="clipath_lpe_path-effect1303-2-1">
      <path
         style="color:#000000;display:block;opacity:0.85;fill:#f5f7fa;-inkscape-stroke:none"
         d="m 24.149464,39.847234 c 1.129182,1.129183 1.129024,2.947446 -3.54e-4,4.076824 L 11.920405,56.152763 c -1.129378,1.129378 -2.9476414,1.129536 -4.0768237,3.54e-4 -1.1291824,-1.129183 -1.1290247,-2.947446 3.535e-4,-4.076825 L 20.072639,39.847588 c 1.129379,-1.129378 2.947642,-1.129536 4.076825,-3.54e-4 z"
         id="path11" />
    </clipPath>
    <inkscape:path-effect
       effect="powerclip"
       id="path-effect1303-2-1"
       is_visible="true"
       lpeversion="1"
       inverse="true"
       flatten="false"
       hide_clip="false"
       message="" />
  </defs>
  <metadata
     id="metadata2">
    <rdf:RDF>
      <cc:Work
         rdf:about="">
        <dc:format>image/svg+xml</dc:format>
        <dc:type
           rdf:resource="http://purl.org/dc/dcmitype/StillImage" />
      </cc:Work>
    </rdf:RDF>
  </metadata>
  <path
     id="path8"
     style="fill:#f9f9f9;stroke-width:0.0644659"
     d="M 12.691043,1.0210388 C 12.280081,1.0280189 11.8676,1.1329684 11.46246,1.3357417 11.290732,1.4216925 10.533263,2.1252796 9.4339421,3.2193107 L 7.6798201,4.9649064 7.2705508,4.5726901 C 6.8267545,4.1465349 6.5320088,4.018806 6.1760654,4.0990847 5.5097619,4.24936 5.1756394,4.9239092 5.4792226,5.5067229 5.654599,5.8434076 11.257323,11.421128 11.543074,11.543445 c 0.299661,0.128272 0.494556,0.122617 0.812338,-0.0217 0.344442,-0.156429 0.541816,-0.473957 0.541816,-0.872023 0,-0.38418 -0.06145,-0.499543 -0.505385,-0.9549619 L 12.029856,9.3234692 13.781653,7.567022 C 15.680661,5.6626449 15.786212,5.5220019 15.942719,4.6804332 16.040895,4.1525153 15.92983,3.506375 15.651269,2.9813456 15.331739,2.3790984 14.502188,1.5753281 13.909549,1.293885 13.511299,1.1047567 13.102005,1.0140587 12.691043,1.0210388 Z M 6.1357583,7.6887173 5.8257059,7.9685397 C 4.854966,8.8437794 3.3246846,10.415369 3.2189398,10.645843 3.1435556,10.810145 3.1005221,11.055541 3.0995696,11.322532 l -0.00155,0.419347 -0.9363585,0.97899 c -0.5150023,0.538634 -0.9794583,1.081849 -1.0316995,1.20688 -0.29269511,0.700518 0.055397,1.549456 0.7712554,1.882793 0.1916063,0.08922 0.4480416,0.152333 0.620105,0.152701 0.5257894,0.0011 0.8456402,-0.222241 1.8579896,-1.299895 l 0.9208561,-0.980541 0.4301977,-0.007 c 0.3056849,-0.0047 0.50423,-0.04637 0.6875414,-0.144174 0.1418245,-0.07567 0.8463395,-0.728069 1.5657653,-1.450271 L 9.292093,10.768314 9.015371,10.524148 C 8.8632439,10.389976 8.1530965,9.6973391 7.4372037,8.9847367 Z M 5.5753386,10.62879 c 0.2944009,-0.0049 0.5632589,0.165516 0.7061446,0.458103 0.2221397,0.454875 0.1667271,0.532293 -1.7494711,2.443213 -1.6896918,1.685039 -1.7350537,1.724784 -1.9843359,1.720792 -0.5111359,-0.0082 -0.8030361,-0.275931 -0.8030361,-0.736375 0,-0.379923 0.1243647,-0.529937 1.9099233,-2.299814 1.3455762,-1.33376 1.5708324,-1.531055 1.7936539,-1.572741 0.042821,-0.008 0.085064,-0.01248 0.1271213,-0.01318 z" />
</svg>
