<?xml version="1.0" encoding="UTF-8" standalone="no"?>
<svg
   width="64"
   height="64"
   version="1.1"
   viewBox="0 0 16.933 16.933"
   id="svg7"
   sodipodi:docname="preferences-desktop-gaming.svg"
   inkscape:version="1.4 (e7c3feb100, 2024-10-09)"
   xmlns:inkscape="http://www.inkscape.org/namespaces/inkscape"
   xmlns:sodipodi="http://sodipodi.sourceforge.net/DTD/sodipodi-0.dtd"
   xmlns="http://www.w3.org/2000/svg"
   xmlns:svg="http://www.w3.org/2000/svg"
   xmlns:rdf="http://www.w3.org/1999/02/22-rdf-syntax-ns#"
   xmlns:cc="http://creativecommons.org/ns#"
   xmlns:dc="http://purl.org/dc/elements/1.1/">
  <sodipodi:namedview
     id="namedview7"
     pagecolor="#9c4444"
     bordercolor="#000000"
     borderopacity="0.25"
     inkscape:showpageshadow="2"
     inkscape:pageopacity="0.0"
     inkscape:pagecheckerboard="0"
     inkscape:deskcolor="#d1d1d1"
     inkscape:zoom="6.15625"
     inkscape:cx="15.756345"
     inkscape:cy="27.126904"
     inkscape:window-width="1226"
     inkscape:window-height="669"
     inkscape:window-x="35"
     inkscape:window-y="32"
     inkscape:window-maximized="0"
     inkscape:current-layer="svg7"
     showgrid="false" />
  <defs
     id="defs2">
    <filter
       style="color-interpolation-filters:sRGB;"
       inkscape:label="Blur"
       id="filter1283"
       x="-0.082344266"
       y="-0.082344266"
       width="1.1646885"
       height="1.1646885">
      <feGaussianBlur
         stdDeviation="0.5 0.5"
         result="blur"
         id="feGaussianBlur1281" />
    </filter>
  </defs>
  <metadata
     id="metadata2">
    <rdf:RDF>
      <cc:Work
         rdf:about="">
        <dc:format>image/svg+xml</dc:format>
        <dc:type
           rdf:resource="http://purl.org/dc/dcmitype/StillImage" />
      </cc:Work>
    </rdf:RDF>
  </metadata>
  <path
     id="path1"
     style="fill:#f9f9f9;fill-opacity:1;stroke:none;stroke-width:0.522948;stroke-dasharray:none;stroke-dashoffset:2.2;stroke-opacity:0.3"
     d="m 12.999939,1.7610412 c -0.274797,-1.146e-4 -0.568943,0.110538 -0.937076,0.3262392 -0.876027,0.5132803 -2.021706,0.7553512 -3.5950296,0.7553512 -1.5731709,0 -2.7570691,-0.247222 -3.627879,-0.7575412 C 4.1416788,1.6758929 3.7247997,1.6704692 3.1387755,2.0656019 1.6342549,3.0794962 0.50035874,6.3302212 0.16772144,10.578093 c -0.19947225,2.54726 -0.013155,3.890192 0.64587885,4.645958 0.31785181,0.364374 1.09813561,0.302597 1.80189671,-0.14451 0.5965662,-0.379006 1.3073715,-1.215328 2.1565863,-2.537559 0.7673847,-1.194823 1.6955865,-1.58835 3.7482963,-1.591713 2.0486264,-0.0035 2.8537164,0.384411 3.7986554,1.836927 1.585378,2.436965 3.050767,3.285369 3.910311,2.263863 0.476181,-0.565906 0.56334,-1.112664 0.540784,-3.389227 C 16.72903,7.5263429 15.64803,3.7642096 14.090278,2.3283169 13.675404,1.9458973 13.353277,1.7614019 12.999939,1.7612537 Z M 4.0999311,4.1978698 H 5.0501404 6.0003508 V 5.012338 5.8268066 H 6.8148196 7.6292844 V 6.8448904 7.8629705 H 6.8148196 6.0003508 V 8.7453086 9.6276475 H 5.139909 c -0.4727058,0 -0.898263,-0.042369 -0.9480242,-0.091938 -0.049737,-0.04974 -0.091941,-0.4447596 -0.091941,-0.8801496 V 7.8629705 H 3.2854638 2.4709951 V 6.8448904 5.8268066 H 3.2854638 4.0999311 V 5.012338 Z m 7.7461869,0 c 0.857217,0 1.224318,0.9497761 0.606471,1.5676335 -0.39293,0.3928855 -0.751541,0.4237674 -1.1385,0.096347 C 10.642891,5.2939039 10.99323,4.1978869 11.846118,4.1978869 Z m -1.648637,1.7405944 c 0.214046,1.5e-4 0.429565,0.085464 0.5999,0.2736596 0.265525,0.2934046 0.294207,0.965157 0.05473,1.2786271 C 10.383484,8.1042488 9.2582152,7.70963 9.2582152,6.9324494 c 0,-0.5898492 0.4683534,-0.9943239 0.9392608,-0.9940015 z m 3.365145,0.033049 c 0.246737,0.00459 0.486248,0.086214 0.626178,0.240824 0.265512,0.2934045 0.294192,0.9651526 0.05472,1.2786262 -0.49846,0.6525356 -1.593903,0.2157852 -1.593903,-0.6349344 0,-0.2578599 0.10329,-0.5373544 0.247398,-0.667774 0.164703,-0.149058 0.418901,-0.2212526 0.665588,-0.2167556 z M 11.905233,7.727428 c 0.759966,0 1.129744,0.8061057 0.669963,1.4625385 -0.157196,0.2243846 -0.348866,0.3021326 -0.74441,0.3021326 -0.455386,0 -0.56106,-0.059271 -0.744399,-0.4138161 -0.361489,-0.6990599 0.03306,-1.3508754 0.818846,-1.3508754 z" />
</svg>
