<svg width="64" height="64" viewBox="0 0 64 64" version="1.1"><defs><linearGradient id="linear-pattern-0" gradientUnits="userSpaceOnUse" x1="0" y1="0" x2="0" y2="1" gradientTransform="matrix(60, 0, 0, 56, 0, 4)"><stop offset="0" stop-color="#7795ab" stop-opacity="1"/><stop offset="1" stop-color="#3b4f5f" stop-opacity="1"/></linearGradient></defs><path fill="url(#linear-pattern-0)" fill-opacity="1" d="M 36.21875 2.050781 L 62.027344 27.605469 C 64.402344 29.957031 64.417969 33.785156 62.058594 36.15625 L 36.460938 61.917969 C 34.105469 64.289062 30.269531 64.304688 27.894531 61.949219 L 2.085938 36.394531 C -0.289062 34.042969 -0.304688 30.214844 2.050781 27.84375 L 27.652344 2.082031 C 30.007812 -0.289062 33.84375 -0.304688 36.21875 2.050781 Z M 36.21875 2.050781 " /><g transform="matrix(1.0075098,0,0,1.0032698,16.221436,16.077397)"><path fill-rule="nonzero" fill="rgb(100%, 100%, 100%)" fill-opacity="1" d="M 14.5 2.003906 C 12.574219 2.003906 11 3.578125 11 5.503906 C 11 5.59375 11.023438 5.679688 11.03125 5.765625 C 8.433594 7.035156 6.164062 8.914062 4.546875 11.183594 C 4.214844 11.078125 3.867188 11.003906 3.5 11.003906 C 1.570312 11.003906 0 12.578125 0 14.503906 C 0 15.921875 0.851562 17.136719 2.0625 17.6875 C 1.792969 20.914062 2.941406 23.757812 5.074219 25.796875 C 5.023438 26.023438 5 26.261719 5 26.503906 C 5 28.429688 6.570312 30.003906 8.5 30.003906 C 9.5625 30.003906 10.507812 29.515625 11.148438 28.765625 C 11.882812 28.898438 12.640625 28.992188 13.4375 29 C 15.90625 29.035156 18.359375 28.453125 20.59375 27.429688 C 21.140625 27.789062 21.796875 28.003906 22.5 28.003906 C 24.429688 28.003906 26 26.429688 26 24.503906 C 26 24.226562 25.957031 23.957031 25.894531 23.695312 C 27.820312 21.714844 29.21875 19.3125 29.757812 16.6875 C 29.828125 16.351562 29.875 16.023438 29.90625 15.695312 C 31.136719 15.152344 32 13.925781 32 12.5 C 32 10.570312 30.429688 9 28.5 9 C 28.476562 9 28.453125 9.007812 28.433594 9.007812 C 26.515625 6.015625 22.960938 4.0625 18.566406 4 C 18.265625 3.992188 17.96875 4.023438 17.671875 4.039062 C 17.117188 2.835938 15.90625 1.996094 14.5 1.996094 Z M 14.5 2.996094 C 15.890625 2.996094 17.007812 4.109375 17.007812 5.503906 C 17.007812 6.894531 15.890625 8.011719 14.5 8.011719 C 13.109375 8.011719 11.992188 6.898438 11.992188 5.503906 C 11.992188 4.113281 13.109375 2.996094 14.5 2.996094 Z M 18.023438 6.648438 C 21.476562 6.695312 24.210938 8.136719 25.785156 10.328125 C 25.304688 10.929688 25 11.679688 25 12.503906 C 25 13.96875 25.910156 15.21875 27.1875 15.742188 C 27.164062 16.042969 27.125 16.34375 27.0625 16.65625 C 26.6875 18.476562 25.773438 20.179688 24.5 21.636719 C 23.929688 21.242188 23.242188 21.003906 22.5 21.003906 C 20.578125 21.003906 19 22.578125 19 24.503906 C 19 24.804688 19.054688 25.085938 19.125 25.367188 C 17.507812 26.007812 15.765625 26.382812 13.980469 26.355469 C 13.273438 26.34375 12.605469 26.257812 11.960938 26.132812 C 11.773438 24.382812 10.296875 23 8.5 23 C 7.890625 23 7.328125 23.171875 6.828125 23.445312 C 5.429688 21.9375 4.695312 19.945312 4.796875 17.746094 C 6.085938 17.226562 7 15.96875 7 14.5 C 7 13.84375 6.804688 13.234375 6.488281 12.710938 C 7.796875 10.71875 9.75 9.0625 12.039062 7.984375 C 12.671875 8.609375 13.539062 9 14.5 9 C 16.019531 9 17.308594 8.015625 17.789062 6.65625 C 17.867188 6.652344 17.945312 6.648438 18.023438 6.648438 Z M 28.5 9.996094 C 29.890625 9.996094 31.007812 11.109375 31.007812 12.503906 C 31.007812 13.894531 29.894531 15.011719 28.5 15.011719 C 27.109375 15.011719 25.992188 13.898438 25.992188 12.503906 C 25.992188 11.113281 27.109375 9.996094 28.5 9.996094 Z M 3.5 11.996094 C 4.890625 11.996094 6.007812 13.109375 6.007812 14.503906 C 6.007812 15.894531 4.890625 17.011719 3.5 17.011719 C 2.109375 17.011719 0.992188 15.898438 0.992188 14.503906 C 0.992188 13.113281 2.109375 11.996094 3.5 11.996094 Z M 22.5 21.996094 C 23.890625 21.996094 25.007812 23.109375 25.007812 24.503906 C 25.007812 25.894531 23.894531 27.011719 22.5 27.011719 C 21.109375 27.011719 19.992188 25.898438 19.992188 24.503906 C 19.992188 23.113281 21.109375 21.996094 22.5 21.996094 Z M 8.5 23.996094 C 9.890625 23.996094 11.007812 25.109375 11.007812 26.503906 C 11.007812 27.894531 9.890625 29.011719 8.5 29.011719 C 7.109375 29.011719 5.992188 27.898438 5.992188 26.503906 C 5.992188 25.113281 7.109375 23.996094 8.5 23.996094 Z M 8.5 23.996094 "/></g></svg>
