<svg width="64" height="64" viewBox="0 0 64 64" version="1.1"><defs><linearGradient id="linear-pattern-0" gradientUnits="userSpaceOnUse" x1="0" y1="0" x2="0" y2="1" gradientTransform="matrix(60, 0, 0, 56, 0, 4)"><stop offset="0" stop-color="#0288cf" stop-opacity="1"/><stop offset="1" stop-color="#01486e" stop-opacity="1"/></linearGradient></defs><path fill="url(#linear-pattern-0)" fill-opacity="1" d="M 36.21875 2.050781 L 62.027344 27.605469 C 64.402344 29.957031 64.417969 33.785156 62.058594 36.15625 L 36.460938 61.917969 C 34.105469 64.289062 30.269531 64.304688 27.894531 61.949219 L 2.085938 36.394531 C -0.289062 34.042969 -0.304688 30.214844 2.050781 27.84375 L 27.652344 2.082031 C 30.007812 -0.289062 33.84375 -0.304688 36.21875 2.050781 Z M 36.21875 2.050781 " /><g transform="matrix(1.0075098,0,0,1.0032698,16.221436,16.077397)"><path fill-rule="nonzero" fill="rgb(100%, 100%, 100%)" fill-opacity="1" d="M 12.574219 0 C 9.347656 0 6.121094 1.226562 3.675781 3.679688 C -1.21875 8.582031 -1.226562 16.613281 3.664062 21.515625 C 7.808594 25.671875 14.210938 26.222656 19.039062 23.335938 L 27.101562 31.25 C 28.03125 32.1875 30.089844 32.34375 31.195312 31.15625 C 32.304688 29.976562 32.25 28.109375 31.125 26.980469 L 23.28125 19.210938 C 26.261719 14.355469 25.65625 7.875 21.46875 3.679688 C 19.023438 1.226562 15.796875 0 12.570312 0 M 12.570312 3.429688 C 14.898438 3.429688 17.234375 4.324219 19.023438 6.117188 C 22.609375 9.703125 22.609375 15.441406 19.023438 19.027344 C 15.441406 22.609375 9.695312 22.609375 6.113281 19.027344 C 2.527344 15.445312 2.527344 9.703125 6.113281 6.117188 C 7.90625 4.324219 10.238281 3.429688 12.570312 3.429688 M 9.84375 4.570312 C 9.203125 4.789062 8.582031 5.085938 8 5.46875 L 8 9.140625 L 11.429688 9.140625 L 11.429688 4.570312 Z M 12.570312 4.570312 L 12.570312 5.714844 L 13.710938 5.714844 L 13.710938 9.140625 L 14.859375 9.140625 L 14.859375 4.570312 Z M 16 4.847656 L 16 9.140625 L 19.429688 9.140625 L 19.429688 7.65625 C 19.164062 7.289062 18.875 6.929688 18.542969 6.601562 C 18.460938 6.515625 18.371094 6.445312 18.285156 6.367188 L 18.285156 8 L 17.140625 8 L 17.140625 5.714844 L 17.492188 5.714844 C 17.015625 5.371094 16.515625 5.082031 16 4.847656 Z M 9.140625 5.714844 L 10.285156 5.714844 L 10.285156 8 L 9.140625 8 Z M 6.855469 6.367188 C 6.769531 6.445312 6.679688 6.515625 6.597656 6.601562 C 6.265625 6.929688 5.976562 7.285156 5.710938 7.648438 L 5.710938 9.140625 L 6.855469 9.140625 Z M 4.570312 10.285156 L 4.570312 14.859375 L 8 14.859375 L 8 10.285156 Z M 9.140625 10.285156 L 9.140625 11.429688 L 10.285156 11.429688 L 10.285156 14.859375 L 11.429688 14.859375 L 11.429688 10.285156 M 12.570312 10.285156 L 12.570312 14.859375 L 16 14.859375 L 16 10.285156 Z M 17.164062 10.285156 L 17.164062 11.429688 L 18.308594 11.429688 L 18.308594 14.859375 L 19.453125 14.859375 L 19.453125 10.285156 Z M 5.710938 11.429688 L 6.855469 11.429688 L 6.855469 13.714844 L 5.710938 13.714844 Z M 13.710938 11.429688 L 14.859375 11.429688 L 14.859375 13.714844 L 13.710938 13.714844 Z M 4.84375 16 C 5.023438 16.390625 5.226562 16.773438 5.464844 17.140625 L 5.710938 17.140625 L 5.710938 17.492188 C 5.976562 17.859375 6.265625 18.210938 6.597656 18.542969 C 6.679688 18.625 6.769531 18.695312 6.855469 18.773438 L 6.855469 16 Z M 8 16 L 8 19.675781 C 8.585938 20.054688 9.203125 20.351562 9.84375 20.570312 L 11.429688 20.570312 L 11.429688 16 Z M 12.570312 16 L 12.570312 17.140625 L 13.710938 17.140625 L 13.710938 20.570312 L 14.859375 20.570312 L 14.859375 16 Z M 16 16 L 16 20.296875 C 16.515625 20.0625 17.015625 19.773438 17.488281 19.429688 L 17.140625 19.429688 L 17.140625 17.140625 L 18.285156 17.140625 L 18.285156 18.773438 C 18.371094 18.695312 18.460938 18.625 18.542969 18.542969 C 18.875 18.210938 19.164062 17.855469 19.429688 17.488281 L 19.429688 16 Z M 9.140625 17.140625 L 10.285156 17.140625 L 10.285156 19.429688 L 9.140625 19.429688 Z M 9.140625 17.140625 "/></g></svg>
