<svg width="64" height="64" viewBox="0 0 64 64" version="1.1"><defs><linearGradient id="linear-pattern-0" gradientUnits="userSpaceOnUse" x1="0" y1="0" x2="0" y2="1" gradientTransform="matrix(60, 0, 0, 56, 0, 4)"><stop offset="0" stop-color="#00983a" stop-opacity="1"/><stop offset="1" stop-color="#004a1c" stop-opacity="1"/></linearGradient></defs><path fill="url(#linear-pattern-0)" fill-opacity="1" d="M 36.21875 2.050781 L 62.027344 27.605469 C 64.402344 29.957031 64.417969 33.785156 62.058594 36.15625 L 36.460938 61.917969 C 34.105469 64.289062 30.269531 64.304688 27.894531 61.949219 L 2.085938 36.394531 C -0.289062 34.042969 -0.304688 30.214844 2.050781 27.84375 L 27.652344 2.082031 C 30.007812 -0.289062 33.84375 -0.304688 36.21875 2.050781 Z M 36.21875 2.050781 " /><g transform="matrix(1.0075098,0,0,1.0032698,16.221436,16.077397)"><path fill-rule="nonzero" fill="rgb(100%, 100%, 100%)" fill-opacity="1" d="M 16.019531 0 C 12.242188 0.0078125 8.546875 1.730469 6.269531 4.921875 C 2.730469 9.90625 4.015625 16.65625 9.066406 20.171875 L 9.066406 30.664062 L 10.796875 30.664062 L 10.796875 32 L 21.226562 32 L 21.226562 30.664062 L 22.9375 30.664062 L 22.9375 20.171875 C 24.023438 19.414062 24.976562 18.496094 25.734375 17.429688 C 29.34375 12.328125 27.9375 5.375 22.5625 1.921875 C 20.554688 0.628906 18.277344 0 16.007812 0 M 15.992188 2.03125 C 17.84375 2.03125 19.710938 2.539062 21.367188 3.601562 C 25.769531 6.4375 26.925781 12.09375 23.953125 16.28125 C 23.265625 17.25 22.390625 18.089844 21.375 18.75 L 21.199219 21.335938 L 10.773438 21.335938 L 10.617188 18.75 C 6.203125 15.914062 5.054688 10.257812 8.039062 6.066406 C 9.898438 3.445312 12.914062 2.027344 15.992188 2.039062 M 10.78125 22.671875 L 21.207031 22.671875 L 21.207031 25.335938 L 10.78125 25.335938 M 10.78125 26.667969 L 21.207031 26.667969 L 21.207031 28.953125 L 10.78125 28.953125 "/></g></svg>
