<svg width="64" height="64" viewBox="0 0 64 64" version="1.1"><defs><linearGradient id="linear-pattern-0" gradientUnits="userSpaceOnUse" x1="0" y1="0" x2="0" y2="1" gradientTransform="matrix(60, 0, 0, 56, 0, 4)"><stop offset="0" stop-color="#c10000" stop-opacity="1"/><stop offset="1" stop-color="#5f0000" stop-opacity="1"/></linearGradient></defs><path fill="url(#linear-pattern-0)" fill-opacity="1" d="M 36.21875 2.050781 L 62.027344 27.605469 C 64.402344 29.957031 64.417969 33.785156 62.058594 36.15625 L 36.460938 61.917969 C 34.105469 64.289062 30.269531 64.304688 27.894531 61.949219 L 2.085938 36.394531 C -0.289062 34.042969 -0.304688 30.214844 2.050781 27.84375 L 27.652344 2.082031 C 30.007812 -0.289062 33.84375 -0.304688 36.21875 2.050781 Z M 36.21875 2.050781 " /><g transform="matrix(1.0075098,0,0,1.0032698,16.221436,16.077397)"><path fill-rule="evenodd" fill="rgb(100%, 100%, 100%)" fill-opacity="1" d="M 7.351562 26.117188 C 6.328125 26.117188 5.390625 25.925781 4.539062 25.546875 C 3.695312 25.164062 2.992188 24.648438 2.445312 24.007812 C 1.898438 23.363281 1.4375 22.605469 1.0625 21.726562 C 0.6875 20.851562 0.421875 19.941406 0.25 18.992188 C 0.0859375 18.039062 0 17.042969 0 16 C 0 14.210938 0.242188 12.578125 0.726562 11.09375 C 1.210938 9.613281 2.023438 8.375 3.15625 7.378906 C 4.296875 6.382812 5.691406 5.882812 7.351562 5.882812 C 9.828125 5.882812 11.609375 7.039062 12.6875 9.347656 L 10.5625 10.492188 C 10.15625 9.730469 9.707031 9.140625 9.222656 8.734375 C 8.738281 8.324219 8.113281 8.117188 7.351562 8.117188 C 6.492188 8.117188 5.738281 8.355469 5.085938 8.832031 C 4.433594 9.304688 3.925781 9.9375 3.5625 10.71875 C 3.199219 11.5 2.929688 12.335938 2.75 13.21875 C 2.578125 14.101562 2.488281 15.03125 2.488281 16 C 2.488281 17.398438 2.648438 18.671875 2.976562 19.8125 C 3.304688 20.960938 3.84375 21.925781 4.597656 22.707031 C 5.351562 23.492188 6.269531 23.882812 7.351562 23.882812 C 8.839844 23.882812 9.976562 23.054688 10.757812 21.394531 L 12.914062 22.203125 C 12.429688 23.359375 11.726562 24.300781 10.800781 25.027344 C 9.878906 25.753906 8.726562 26.117188 7.351562 26.117188 Z M 20.429688 25.78125 L 18.195312 25.78125 L 19.03125 20.273438 L 15.734375 20.273438 L 16.097656 18.179688 L 19.339844 18.179688 L 20.066406 13.457031 L 16.90625 13.457031 L 17.242188 11.390625 L 20.375 11.390625 L 21.15625 6.21875 L 23.390625 6.21875 L 22.609375 11.390625 L 26.4375 11.390625 L 27.25 6.21875 L 29.457031 6.21875 L 28.648438 11.390625 L 32 11.390625 L 31.664062 13.457031 L 28.335938 13.457031 L 27.609375 18.179688 L 30.796875 18.179688 L 30.492188 20.273438 L 27.304688 20.273438 L 26.46875 25.78125 L 24.257812 25.78125 L 25.097656 20.273438 L 21.265625 20.273438 Z M 22.304688 13.457031 L 21.578125 18.179688 L 25.40625 18.179688 L 26.132812 13.457031 Z M 22.304688 13.457031 "/></g></svg>
