<svg width="64" height="64" viewBox="0 0 64 64" version="1.1"><defs><linearGradient id="linear-pattern-0" gradientUnits="userSpaceOnUse" x1="0" y1="0" x2="0" y2="1" gradientTransform="matrix(60, 0, 0, 56, 0, 4)"><stop offset="0" stop-color="#3067ff" stop-opacity="1"/><stop offset="1" stop-color="#002ca6" stop-opacity="1"/></linearGradient></defs><path fill="url(#linear-pattern-0)" fill-opacity="1" d="M 36.21875 2.050781 L 62.027344 27.605469 C 64.402344 29.957031 64.417969 33.785156 62.058594 36.15625 L 36.460938 61.917969 C 34.105469 64.289062 30.269531 64.304688 27.894531 61.949219 L 2.085938 36.394531 C -0.289062 34.042969 -0.304688 30.214844 2.050781 27.84375 L 27.652344 2.082031 C 30.007812 -0.289062 33.84375 -0.304688 36.21875 2.050781 Z M 36.21875 2.050781 " /><g transform="matrix(1.0075098,0,0,1.0032698,16.221436,16.077397)"><path fill-rule="nonzero" fill="rgb(100%, 100%, 100%)" fill-opacity="1" d="M 22.710938 9.289062 C 23.492188 10.066406 23.492188 11.328125 22.710938 12.105469 L 12.105469 22.710938 C 11.328125 23.492188 10.066406 23.492188 9.289062 22.710938 C 8.507812 21.9375 8.507812 20.671875 9.289062 19.898438 L 19.898438 9.289062 C 20.671875 8.507812 21.933594 8.507812 22.710938 9.289062 Z M 10.527344 27.136719 C 8.96875 28.699219 6.425781 28.699219 4.863281 27.136719 C 3.304688 25.578125 3.304688 23.035156 4.863281 21.472656 L 12.382812 13.960938 C 9.859375 13.351562 7.085938 14.03125 5.117188 16 L 2.253906 18.863281 C -0.75 21.867188 -0.75 26.742188 2.253906 29.746094 C 5.257812 32.75 10.132812 32.75 13.140625 29.746094 L 16 26.882812 C 17.96875 24.914062 18.648438 22.140625 18.039062 19.617188 Z M 18.863281 2.253906 L 16 5.117188 C 14.03125 7.085938 13.347656 9.851562 13.960938 12.375 L 21.476562 4.863281 C 23.035156 3.304688 25.578125 3.304688 27.136719 4.863281 C 28.699219 6.425781 28.699219 8.96875 27.136719 10.527344 L 19.625 18.039062 C 22.148438 18.652344 24.914062 17.96875 26.882812 16 L 29.746094 13.136719 C 32.75 10.132812 32.75 5.257812 29.746094 2.253906 C 26.742188 -0.75 21.867188 -0.75 18.863281 2.253906 Z M 18.863281 2.253906 "/></g></svg>
