<svg width="64" height="64" viewBox="0 0 64 64" version="1.1"><defs><linearGradient id="linear-pattern-0" gradientUnits="userSpaceOnUse" x1="0" y1="0" x2="0" y2="1" gradientTransform="matrix(60, 0, 0, 56, 0, 4)"><stop offset="0" stop-color="#00983a" stop-opacity="1"/><stop offset="1" stop-color="#004a1c" stop-opacity="1"/></linearGradient></defs><path fill="url(#linear-pattern-0)" fill-opacity="1" d="M 36.21875 2.050781 L 62.027344 27.605469 C 64.402344 29.957031 64.417969 33.785156 62.058594 36.15625 L 36.460938 61.917969 C 34.105469 64.289062 30.269531 64.304688 27.894531 61.949219 L 2.085938 36.394531 C -0.289062 34.042969 -0.304688 30.214844 2.050781 27.84375 L 27.652344 2.082031 C 30.007812 -0.289062 33.84375 -0.304688 36.21875 2.050781 Z M 36.21875 2.050781 " /><g transform="matrix(1.0075098,0,0,1.0032698,16.221436,16.077397)"><path fill-rule="evenodd" fill="rgb(100%, 100%, 100%)" fill-opacity="1" d="M 6.109375 1.601562 C 6.109375 1.601562 7.945312 7.527344 6.824219 11.328125 C 5.703125 15.125 0 19.40625 0 19.40625 C 0 19.40625 7.453125 19.8125 10.285156 21.621094 C 13.117188 23.429688 15.992188 30.398438 15.992188 30.398438 C 15.992188 30.398438 19.816406 22.71875 21.414062 21.621094 C 23.015625 20.523438 32 19.398438 32 19.398438 C 32 19.398438 25.429688 13.210938 24.871094 11.488281 C 24.3125 9.761719 25.894531 1.601562 25.894531 1.601562 C 25.894531 1.601562 19.980469 5.601562 15.828125 5.601562 C 11.671875 5.601562 6.109375 1.601562 6.109375 1.601562 Z M 20.53125 9.0625 C 20.4375 10.164062 20.214844 10.953125 20.8125 12.800781 C 21.476562 14.851562 22.15625 15.25 22.960938 16.203125 C 23.058594 16.320312 23.179688 16.4375 23.28125 16.554688 C 23.101562 16.59375 22.90625 16.617188 22.734375 16.664062 C 21.503906 16.960938 20.65625 16.964844 19 18.101562 C 17.339844 19.242188 17.03125 20.0625 16.34375 21.085938 C 16.257812 21.21875 16.179688 21.367188 16.09375 21.503906 C 15.242188 20.257812 14.183594 19.046875 12.585938 18.023438 C 11.347656 17.234375 10.121094 16.796875 8.914062 16.460938 C 9.71875 15.339844 10.457031 14.089844 10.914062 12.535156 C 11.273438 11.328125 11.320312 10.203125 11.367188 9.085938 C 12.710938 9.53125 14.179688 9.867188 15.828125 9.867188 C 17.554688 9.867188 19.117188 9.535156 20.53125 9.0625 Z M 20.53125 9.0625 "/></g></svg>
