<svg width="64" height="64" viewBox="0 0 64 64" version="1.1"><defs><linearGradient id="linear-pattern-0" gradientUnits="userSpaceOnUse" x1="0" y1="0" x2="0" y2="1" gradientTransform="matrix(60, 0, 0, 56, 0, 4)"><stop offset="0" stop-color="#7795ab" stop-opacity="1"/><stop offset="1" stop-color="#3b4f5f" stop-opacity="1"/></linearGradient></defs><path fill="url(#linear-pattern-0)" fill-opacity="1" d="M 36.21875 2.050781 L 62.027344 27.605469 C 64.402344 29.957031 64.417969 33.785156 62.058594 36.15625 L 36.460938 61.917969 C 34.105469 64.289062 30.269531 64.304688 27.894531 61.949219 L 2.085938 36.394531 C -0.289062 34.042969 -0.304688 30.214844 2.050781 27.84375 L 27.652344 2.082031 C 30.007812 -0.289062 33.84375 -0.304688 36.21875 2.050781 Z M 36.21875 2.050781 " /><g transform="matrix(1.0075098,0,0,1.0032698,16.221436,16.077397)"><path fill-rule="nonzero" fill="rgb(100%, 100%, 100%)" fill-opacity="1" d="M 6.75 25.542969 C 6.75 26.710938 7.0625 27.546875 7.6875 28.074219 C 8.332031 28.601562 9.273438 28.882812 10.503906 28.90625 L 10.503906 31.304688 C 8.4375 31.28125 6.835938 30.773438 5.710938 29.8125 C 4.570312 28.835938 4.007812 27.472656 4.007812 25.710938 L 4.007812 20.523438 C 4.007812 19.335938 3.667969 18.492188 2.976562 17.988281 C 2.296875 17.476562 1.296875 17.21875 0 17.21875 L 0 14.796875 C 1.40625 14.773438 2.429688 14.507812 3.058594 13.980469 C 3.695312 13.453125 4.007812 12.644531 4.007812 11.546875 L 4.007812 6.304688 C 4.007812 4.53125 4.59375 3.15625 5.765625 2.171875 C 6.9375 1.195312 8.523438 0.703125 10.507812 0.703125 L 10.507812 3.085938 C 7.996094 3.15625 6.75 4.289062 6.75 6.492188 L 6.75 11.546875 C 6.75 14 5.53125 15.449219 3.109375 15.894531 L 3.109375 16.109375 C 5.53125 16.546875 6.75 18 6.75 20.460938 L 6.75 25.542969 "/><path fill-rule="nonzero" fill="rgb(100%, 100%, 100%)" fill-opacity="1" d="M 28.859375 15.890625 C 26.433594 15.445312 25.210938 13.996094 25.210938 11.539062 L 25.210938 6.484375 C 25.210938 4.28125 23.980469 3.152344 21.507812 3.082031 L 21.507812 0.695312 C 23.515625 0.695312 25.085938 1.1875 26.234375 2.1875 C 27.375 3.183594 27.953125 4.550781 27.953125 6.300781 L 27.953125 11.542969 C 27.953125 12.65625 28.273438 13.46875 28.914062 13.984375 C 29.5625 14.5 30.59375 14.773438 32 14.792969 L 32 17.210938 C 30.671875 17.210938 29.664062 17.46875 28.984375 17.984375 C 28.296875 18.488281 27.953125 19.335938 27.953125 20.523438 L 27.953125 25.710938 C 27.953125 27.453125 27.390625 28.8125 26.28125 29.78125 C 25.164062 30.769531 23.585938 31.273438 21.507812 31.296875 L 21.507812 28.898438 C 22.714844 28.875 23.640625 28.59375 24.273438 28.070312 C 24.898438 27.539062 25.210938 26.703125 25.210938 25.539062 L 25.210938 20.453125 C 25.210938 19.152344 25.515625 18.15625 26.117188 17.46875 C 26.710938 16.789062 27.628906 16.328125 28.855469 16.105469 L 28.855469 15.890625 "/></g></svg>
