<svg width="64" height="64" viewBox="0 0 64 64" version="1.1"><defs><linearGradient id="linear-pattern-0" gradientUnits="userSpaceOnUse" x1="0" y1="0" x2="0" y2="1" gradientTransform="matrix(60, 0, 0, 56, 0, 4)"><stop offset="0" stop-color="#7795ab" stop-opacity="1"/><stop offset="1" stop-color="#3b4f5f" stop-opacity="1"/></linearGradient></defs><path fill="url(#linear-pattern-0)" fill-opacity="1" d="M 36.21875 2.050781 L 62.027344 27.605469 C 64.402344 29.957031 64.417969 33.785156 62.058594 36.15625 L 36.460938 61.917969 C 34.105469 64.289062 30.269531 64.304688 27.894531 61.949219 L 2.085938 36.394531 C -0.289062 34.042969 -0.304688 30.214844 2.050781 27.84375 L 27.652344 2.082031 C 30.007812 -0.289062 33.84375 -0.304688 36.21875 2.050781 Z M 36.21875 2.050781 " /><g transform="matrix(1.0075098,0,0,1.0032698,16.221436,16.077397)"><path fill-rule="nonzero" fill="rgb(100%, 100%, 100%)" fill-opacity="1" d="M 2.078125 0 C 0.929688 0 0 0.929688 0 2.078125 L 0 17.617188 C 0 18.757812 0.933594 19.691406 2.078125 19.691406 L 4.921875 19.691406 L 4.921875 23.382812 L 8.617188 27.078125 L 12.308594 27.078125 L 12.308594 29.921875 C 12.308594 31.070312 13.242188 32 14.382812 32 L 29.921875 32 C 31.070312 32 32 31.070312 32 29.921875 L 32 14.382812 C 32 13.238281 31.070312 12.308594 29.921875 12.308594 L 19.691406 12.308594 L 19.691406 2.078125 C 19.6875 0.929688 18.761719 0 17.617188 0 Z M 2.460938 2.460938 L 17.230469 2.460938 L 17.230469 12.308594 L 14.382812 12.308594 C 13.90625 12.308594 13.46875 12.460938 13.117188 12.730469 C 12.609375 12.4375 12.148438 12.167969 11.730469 11.882812 C 12.84375 10.734375 13.777344 9.429688 14.5 8 C 14.605469 7.8125 14.65625 7.601562 14.65625 7.382812 L 16 7.382812 L 16 4.921875 L 11.078125 4.921875 L 11.078125 3.691406 L 8.617188 3.691406 L 8.617188 4.921875 L 3.691406 4.921875 L 3.691406 7.382812 L 6.308594 7.382812 C 5.980469 7.503906 5.71875 7.753906 5.585938 8.078125 C 5.453125 8.398438 5.464844 8.761719 5.617188 9.078125 C 5.617188 9.078125 6.023438 9.941406 7 11.039062 C 7.257812 11.320312 7.546875 11.640625 7.882812 11.960938 C 6.140625 13.234375 4.65625 13.808594 4.65625 13.808594 C 4.1875 13.910156 3.828125 14.273438 3.71875 14.734375 C 3.617188 15.195312 3.785156 15.679688 4.15625 15.976562 C 4.527344 16.269531 5.035156 16.324219 5.460938 16.117188 C 5.460938 16.117188 7.53125 15.34375 9.84375 13.539062 C 10.484375 14.007812 11.171875 14.492188 12 14.960938 C 12.097656 15.015625 12.203125 15.054688 12.308594 15.078125 L 12.308594 17.230469 L 7.382812 17.230469 L 6.769531 16.617188 L 6.15625 17.230469 L 2.460938 17.230469 Z M 7.15625 7.382812 L 12 7.382812 C 11.398438 8.46875 10.644531 9.46875 9.769531 10.34375 C 9.445312 10.054688 9.140625 9.746094 8.84375 9.421875 C 8.042969 8.523438 7.84375 8.078125 7.84375 8.078125 C 7.71875 7.757812 7.46875 7.507812 7.152344 7.382812 Z M 20.882812 16.382812 L 23.460938 16.382812 L 27.691406 27.84375 L 25.039062 27.84375 L 24.191406 25.382812 L 20.117188 25.382812 L 19.269531 27.84375 L 16.617188 27.84375 Z M 22.117188 19.539062 L 20.730469 23.578125 L 23.578125 23.578125 L 22.191406 19.539062 Z M 8.617188 19.691406 L 12.308594 19.691406 L 12.308594 23.382812 L 8.617188 23.382812 Z M 8.617188 19.691406 "/></g></svg>
