<svg width="64" height="64" viewBox="0 0 64 64" version="1.1"><defs><linearGradient id="linear-pattern-0" gradientUnits="userSpaceOnUse" x1="0" y1="0" x2="0" y2="1" gradientTransform="matrix(60, 0, 0, 56, 0, 4)"><stop offset="0" stop-color="#7795ab" stop-opacity="1"/><stop offset="1" stop-color="#3b4f5f" stop-opacity="1"/></linearGradient></defs><path fill="url(#linear-pattern-0)" fill-opacity="1" d="M 36.21875 2.050781 L 62.027344 27.605469 C 64.402344 29.957031 64.417969 33.785156 62.058594 36.15625 L 36.460938 61.917969 C 34.105469 64.289062 30.269531 64.304688 27.894531 61.949219 L 2.085938 36.394531 C -0.289062 34.042969 -0.304688 30.214844 2.050781 27.84375 L 27.652344 2.082031 C 30.007812 -0.289062 33.84375 -0.304688 36.21875 2.050781 Z M 36.21875 2.050781 " /><g transform="matrix(1.0075098,0,0,1.0032698,16.221436,16.077397)"><path fill-rule="nonzero" fill="rgb(100%, 100%, 100%)" fill-opacity="1" d="M 15.992188 0 C 14.789062 0 13.785156 0.683594 13.320312 1.644531 C 12.410156 1.027344 11.132812 0.90625 10.101562 1.476562 C 9.070312 2.039062 8.523438 3.113281 8.625 4.15625 C 7.519531 4.148438 6.359375 4.578125 5.769531 5.539062 C 5.171875 6.515625 5.292969 7.703125 5.960938 8.5625 C 4.933594 8.992188 4.210938 9.945312 4.210938 11.070312 C 4.210938 12.191406 4.933594 13.148438 5.960938 13.578125 C 5.300781 14.4375 5.171875 15.617188 5.769531 16.597656 C 6.359375 17.558594 7.519531 18.078125 8.625 17.984375 C 8.523438 19.03125 9.070312 20.105469 10.101562 20.664062 C 10.371094 20.808594 10.65625 20.890625 10.945312 20.945312 L 10.945312 32 L 16 26.945312 L 21.054688 32 L 21.054688 20.96875 C 21.34375 20.9375 21.628906 20.859375 21.898438 20.664062 C 22.929688 20.101562 23.476562 19.027344 23.375 17.984375 C 24.480469 17.992188 25.640625 17.558594 26.230469 16.597656 C 26.828125 15.625 26.707031 14.4375 26.039062 13.578125 C 27.066406 13.148438 27.789062 12.191406 27.789062 11.070312 C 27.789062 9.945312 27.066406 8.992188 26.039062 8.5625 C 26.699219 7.703125 26.828125 6.523438 26.230469 5.539062 C 25.640625 4.578125 24.480469 4.0625 23.375 4.15625 C 23.476562 3.109375 22.929688 2.035156 21.898438 1.476562 C 20.859375 0.914062 19.589844 1.03125 18.679688 1.644531 C 18.214844 0.683594 17.210938 0 16.007812 0 L 15.988281 0 Z M 15.992188 4.101562 C 20.054688 4.101562 23.359375 7.195312 23.359375 11.015625 C 23.359375 14.839844 20.0625 17.929688 15.992188 17.929688 C 11.929688 17.929688 8.625 14.835938 8.625 11.015625 C 8.625 7.195312 11.921875 4.101562 15.992188 4.101562 Z M 15.992188 5.484375 C 12.742188 5.484375 10.101562 7.960938 10.101562 11.015625 C 10.101562 14.074219 12.742188 16.546875 15.992188 16.546875 C 19.242188 16.546875 21.882812 14.074219 21.882812 11.015625 C 21.882812 7.960938 19.242188 5.484375 15.992188 5.484375 Z M 15.992188 5.484375 "/></g></svg>
