<svg width="64" height="64" viewBox="0 0 64 64" version="1.1"><defs><linearGradient id="linear-pattern-0" gradientUnits="userSpaceOnUse" x1="0" y1="0" x2="0" y2="1" gradientTransform="matrix(60, 0, 0, 56, 0, 4)"><stop offset="0" stop-color="#3067ff" stop-opacity="1"/><stop offset="1" stop-color="#002ca6" stop-opacity="1"/></linearGradient></defs><path fill="url(#linear-pattern-0)" fill-opacity="1" d="M 36.21875 2.050781 L 62.027344 27.605469 C 64.402344 29.957031 64.417969 33.785156 62.058594 36.15625 L 36.460938 61.917969 C 34.105469 64.289062 30.269531 64.304688 27.894531 61.949219 L 2.085938 36.394531 C -0.289062 34.042969 -0.304688 30.214844 2.050781 27.84375 L 27.652344 2.082031 C 30.007812 -0.289062 33.84375 -0.304688 36.21875 2.050781 Z M 36.21875 2.050781 " /><g transform="matrix(1.0075098,0,0,1.0032698,16.221436,16.077397)"><path fill-rule="evenodd" fill="rgb(100%, 100%, 100%)" fill-opacity="1" d="M 16.332031 32 C 11.4375 32 7.523438 30.636719 4.574219 27.914062 C 1.628906 25.1875 0.15625 21.390625 0.15625 16.53125 C 0.15625 11.757812 1.746094 7.808594 4.929688 4.6875 C 8.109375 1.5625 12.046875 0 16.726562 0 C 21.238281 0 24.882812 1.273438 27.667969 3.820312 C 30.453125 6.371094 31.84375 9.515625 31.84375 13.257812 C 31.84375 16.5 30.945312 19.179688 29.148438 21.304688 C 27.351562 23.425781 25.113281 24.484375 22.429688 24.484375 C 21.695312 24.484375 20.972656 24.296875 20.265625 23.914062 C 19.558594 23.53125 19.085938 22.953125 18.851562 22.1875 C 17.9375 23.71875 16.476562 24.484375 14.476562 24.484375 C 12.589844 24.484375 11.054688 23.792969 9.878906 22.40625 C 8.699219 21.023438 8.109375 19.195312 8.109375 16.929688 C 8.109375 14.570312 8.882812 12.457031 10.429688 10.585938 C 11.976562 8.714844 13.945312 7.78125 16.332031 7.78125 C 18.070312 7.78125 19.277344 8.382812 19.953125 9.59375 L 20.179688 8.351562 L 24.554688 8.351562 L 23.09375 16.21875 C 22.710938 18.136719 22.519531 19.3125 22.519531 19.757812 C 22.519531 20.257812 22.769531 20.507812 23.273438 20.507812 C 24.390625 20.507812 25.375 19.851562 26.234375 18.539062 C 27.085938 17.230469 27.515625 15.5 27.515625 13.347656 C 27.515625 10.726562 26.617188 8.566406 24.820312 6.875 C 23.019531 5.179688 20.398438 4.332031 16.953125 4.332031 C 13.355469 4.332031 10.421875 5.480469 8.15625 7.78125 C 5.886719 10.078125 4.75 13.007812 4.75 16.574219 C 4.75 20.109375 5.804688 22.84375 7.914062 24.773438 C 10.015625 26.703125 12.882812 27.667969 16.507812 27.667969 C 18.246094 27.667969 20.265625 27.390625 22.5625 26.828125 L 21.28125 31.648438 C 19.453125 31.882812 17.804688 32 16.332031 32 Z M 15.007812 20.15625 C 16.125 20.15625 17.039062 19.640625 17.746094 18.609375 C 18.453125 17.578125 18.804688 16.441406 18.804688 15.203125 C 18.804688 14.234375 18.601562 13.472656 18.1875 12.929688 C 17.773438 12.382812 17.1875 12.109375 16.421875 12.109375 C 15.300781 12.109375 14.386719 12.589844 13.679688 13.546875 C 12.972656 14.503906 12.617188 15.664062 12.617188 17.015625 C 12.617188 17.960938 12.832031 18.71875 13.257812 19.292969 C 13.6875 19.867188 14.269531 20.15625 15.007812 20.15625 Z M 15.007812 20.15625 "/></g></svg>
