<svg width="64" height="64" viewBox="0 0 64 64" version="1.1"><defs><linearGradient id="linear-pattern-0" gradientUnits="userSpaceOnUse" x1="0" y1="0" x2="0" y2="1" gradientTransform="matrix(60, 0, 0, 56, 0, 4)"><stop offset="0" stop-color="#0288cf" stop-opacity="1"/><stop offset="1" stop-color="#01486e" stop-opacity="1"/></linearGradient></defs><path fill="url(#linear-pattern-0)" fill-opacity="1" d="M 36.21875 2.050781 L 62.027344 27.605469 C 64.402344 29.957031 64.417969 33.785156 62.058594 36.15625 L 36.460938 61.917969 C 34.105469 64.289062 30.269531 64.304688 27.894531 61.949219 L 2.085938 36.394531 C -0.289062 34.042969 -0.304688 30.214844 2.050781 27.84375 L 27.652344 2.082031 C 30.007812 -0.289062 33.84375 -0.304688 36.21875 2.050781 Z M 36.21875 2.050781 " /><g transform="matrix(1.0075098,0,0,1.0032698,16.221436,16.077397)"><path fill-rule="nonzero" fill="rgb(100%, 100%, 100%)" fill-opacity="1" d="M 13.84375 0 C 6.65625 0 1.066406 6.050781 1.066406 13.164062 C 1.066406 20.28125 6.117188 25.601562 13.304688 25.601562 C 22.367188 25.015625 24.164062 11.976562 16.261719 13.507812 C 16.167969 13.816406 18.476562 14.710938 18.644531 16.335938 C 18.96875 19.523438 16.445312 21.445312 13.292969 20.84375 C 10.992188 20.398438 8.210938 18.453125 7.671875 16.511719 C 7.171875 14.71875 7.421875 12.566406 7.949219 11.136719 C 10.453125 4.390625 19.289062 2.601562 22.398438 2.6875 C 19.964844 0.851562 17.285156 0.00390625 13.84375 0 Z M 18.695312 6.398438 C 9.632812 6.984375 7.835938 20.023438 15.738281 18.492188 C 15.832031 18.183594 13.523438 17.289062 13.355469 15.664062 C 13.03125 12.476562 15.554688 10.554688 18.707031 11.15625 C 21.007812 11.601562 23.789062 13.546875 24.328125 15.488281 C 24.828125 17.28125 24.578125 19.433594 24.050781 20.863281 C 21.546875 27.609375 12.710938 29.398438 9.601562 29.3125 C 12.035156 31.148438 14.714844 31.996094 18.15625 32 C 25.34375 32 30.933594 25.949219 30.933594 18.835938 C 30.933594 11.71875 25.882812 6.398438 18.695312 6.398438 Z M 18.695312 6.398438 "/></g></svg>
