<svg width="64" height="64" viewBox="0 0 64 64" version="1.1"><defs><linearGradient id="linear-pattern-0" gradientUnits="userSpaceOnUse" x1="0" y1="0" x2="0" y2="1" gradientTransform="matrix(60, 0, 0, 56, 0, 4)"><stop offset="0" stop-color="#c10000" stop-opacity="1"/><stop offset="1" stop-color="#5f0000" stop-opacity="1"/></linearGradient></defs><path fill="url(#linear-pattern-0)" fill-opacity="1" d="M 36.21875 2.050781 L 62.027344 27.605469 C 64.402344 29.957031 64.417969 33.785156 62.058594 36.15625 L 36.460938 61.917969 C 34.105469 64.289062 30.269531 64.304688 27.894531 61.949219 L 2.085938 36.394531 C -0.289062 34.042969 -0.304688 30.214844 2.050781 27.84375 L 27.652344 2.082031 C 30.007812 -0.289062 33.84375 -0.304688 36.21875 2.050781 Z M 36.21875 2.050781 " /><g transform="matrix(1.0075098,0,0,1.0032698,16.221436,16.077397)"><path fill-rule="nonzero" fill="rgb(100%, 100%, 100%)" fill-opacity="1" d="M 9.570312 1.34375 C 6.816406 1.34375 4.589844 2.347656 2.898438 4.351562 C 0.96875 6.640625 0 9.734375 0 13.648438 C 0 16.5625 0.558594 19.097656 1.6875 21.242188 C 3.402344 24.4375 6.035156 26.03125 9.570312 26.03125 C 10.335938 29.441406 12.445312 31.234375 17.402344 30.484375 L 17.402344 28.007812 C 15.09375 28.222656 14.59375 26.953125 14.414062 24.710938 L 14.414062 24.5625 C 15.109375 24.117188 15.738281 23.570312 16.304688 22.890625 C 18.148438 20.679688 19.070312 17.589844 19.070312 13.648438 C 19.070312 10.710938 18.484375 8.1875 17.3125 6.039062 C 15.578125 2.914062 13 1.34375 9.570312 1.34375 Z M 28.148438 2.335938 L 24.664062 2.429688 L 23.507812 7.890625 L 21.03125 7.890625 L 21.03125 11.984375 L 23.308594 11.984375 L 23.308594 19.8125 C 23.308594 21.957031 23.613281 23.460938 24.207031 24.320312 C 24.953125 25.464844 26.539062 26.03125 28.976562 26.03125 C 29.789062 26.03125 30.792969 25.917969 32 25.664062 L 32 21.773438 C 31.164062 21.820312 30.546875 21.847656 30.128906 21.847656 C 29.449219 21.847656 28.96875 21.734375 28.679688 21.5 C 28.328125 21.21875 28.148438 20.496094 28.148438 19.351562 L 28.148438 11.984375 L 31.742188 11.984375 L 31.742188 7.890625 L 28.148438 7.890625 Z M 9.570312 5.929688 C 12.265625 5.929688 13.609375 8.511719 13.609375 13.6875 C 13.609375 18.863281 12.265625 21.460938 9.570312 21.460938 C 6.835938 21.460938 5.464844 18.851562 5.464844 13.648438 C 5.464844 13.441406 5.464844 13.234375 5.464844 13.027344 C 5.59375 8.296875 6.96875 5.929688 9.570312 5.929688 Z M 9.570312 5.929688 "/></g></svg>
