<svg width="64" height="64" viewBox="0 0 64 64" version="1.1"><defs><linearGradient id="linear-pattern-0" gradientUnits="userSpaceOnUse" x1="0" y1="0" x2="0" y2="1" gradientTransform="matrix(60, 0, 0, 56, 0, 4)"><stop offset="0" stop-color="#c10000" stop-opacity="1"/><stop offset="1" stop-color="#5f0000" stop-opacity="1"/></linearGradient></defs><path fill="url(#linear-pattern-0)" fill-opacity="1" d="M 36.21875 2.050781 L 62.027344 27.605469 C 64.402344 29.957031 64.417969 33.785156 62.058594 36.15625 L 36.460938 61.917969 C 34.105469 64.289062 30.269531 64.304688 27.894531 61.949219 L 2.085938 36.394531 C -0.289062 34.042969 -0.304688 30.214844 2.050781 27.84375 L 27.652344 2.082031 C 30.007812 -0.289062 33.84375 -0.304688 36.21875 2.050781 Z M 36.21875 2.050781 " /><g transform="matrix(1.0075098,0,0,1.0032698,16.221436,16.077397)"><path fill-rule="nonzero" fill="rgb(100%, 100%, 100%)" fill-opacity="1" d="M 17.984375 2 L 12.382812 6 L 7.988281 6 C 5.472656 6.03125 3.628906 5.9375 2.125 6.769531 C 1.34375 7.210938 0.75 7.921875 0.449219 8.765625 C 0.121094 9.640625 0 10.6875 0 12 L 0 24 C 0 25.316406 0.121094 26.359375 0.449219 27.234375 C 0.75 28.078125 1.34375 28.789062 2.125 29.230469 C 3.632812 30.0625 5.472656 29.96875 7.988281 30 L 23.996094 30 C 26.511719 29.96875 28.351562 30.0625 29.859375 29.230469 C 30.640625 28.789062 31.234375 28.078125 31.535156 27.234375 C 31.867188 26.359375 31.984375 25.3125 31.984375 24 L 31.984375 12 C 31.984375 10.683594 31.867188 9.640625 31.535156 8.765625 C 31.203125 7.886719 30.613281 7.1875 29.859375 6.769531 C 28.351562 5.9375 26.511719 6.03125 23.996094 6 L 23.585938 6 Z M 7.976562 8 L 23.984375 8 C 26.5 8.03125 28.164062 8.117188 28.894531 8.523438 C 29.257812 8.722656 29.46875 8.949219 29.664062 9.46875 C 29.859375 9.988281 29.984375 10.816406 29.984375 12 L 29.984375 24 C 29.984375 25.183594 29.859375 26.011719 29.664062 26.53125 C 29.46875 27.050781 29.257812 27.273438 28.894531 27.476562 C 28.164062 27.882812 26.5 27.96875 23.984375 28 L 7.976562 28 C 5.460938 27.96875 3.796875 27.882812 3.066406 27.476562 C 2.703125 27.277344 2.492188 27.050781 2.296875 26.53125 C 2.101562 26.011719 1.976562 25.183594 1.976562 24 L 1.976562 12 C 1.976562 10.816406 2.101562 9.988281 2.296875 9.46875 C 2.492188 8.949219 2.703125 8.726562 3.070312 8.523438 C 3.804688 8.117188 5.460938 8.03125 7.976562 8 Z M 7.976562 8 "/></g></svg>
