<svg width="64" height="64" viewBox="0 0 64 64" version="1.1"><defs><linearGradient id="linear-pattern-0" gradientUnits="userSpaceOnUse" x1="0" y1="0" x2="0" y2="1" gradientTransform="matrix(60, 0, 0, 56, 0, 4)"><stop offset="0" stop-color="#c10000" stop-opacity="1"/><stop offset="1" stop-color="#5f0000" stop-opacity="1"/></linearGradient></defs><path fill="url(#linear-pattern-0)" fill-opacity="1" d="M 36.21875 2.050781 L 62.027344 27.605469 C 64.402344 29.957031 64.417969 33.785156 62.058594 36.15625 L 36.460938 61.917969 C 34.105469 64.289062 30.269531 64.304688 27.894531 61.949219 L 2.085938 36.394531 C -0.289062 34.042969 -0.304688 30.214844 2.050781 27.84375 L 27.652344 2.082031 C 30.007812 -0.289062 33.84375 -0.304688 36.21875 2.050781 Z M 36.21875 2.050781 " /><g transform="matrix(1.0075098,0,0,1.0032698,16.221436,16.077397)"><path fill-rule="nonzero" fill="rgb(100%, 100%, 100%)" fill-opacity="1" d="M 5.492188 0 C -1.828125 7.320312 -1.828125 19.1875 5.492188 26.507812 C 12.8125 33.828125 24.679688 33.828125 32 26.507812 L 29.054688 23.5625 C 23.359375 29.257812 14.132812 29.257812 8.4375 23.5625 C 2.742188 17.871094 2.742188 8.640625 8.4375 2.945312 Z M 9.871094 4.527344 C 8.195312 6.507812 7.183594 8.964844 6.96875 11.550781 L 16.890625 11.550781 Z M 6.953125 13.632812 C 7.171875 16.21875 8.191406 18.671875 9.871094 20.65625 L 16.890625 13.632812 Z M 18.367188 15.105469 L 11.34375 22.125 C 13.328125 23.800781 15.78125 24.816406 18.367188 25.03125 Z M 20.449219 15.105469 L 20.449219 25.046875 C 23.039062 24.828125 25.492188 23.804688 27.46875 22.125 Z M 20.449219 15.105469 "/></g></svg>
