<svg width="64" height="64" viewBox="0 0 64 64" version="1.1"><defs><linearGradient id="linear-pattern-0" gradientUnits="userSpaceOnUse" x1="0" y1="0" x2="0" y2="1" gradientTransform="matrix(60, 0, 0, 56, 0, 4)"><stop offset="0" stop-color="#0288cf" stop-opacity="1"/><stop offset="1" stop-color="#01486e" stop-opacity="1"/></linearGradient></defs><path fill="url(#linear-pattern-0)" fill-opacity="1" d="M 36.21875 2.050781 L 62.027344 27.605469 C 64.402344 29.957031 64.417969 33.785156 62.058594 36.15625 L 36.460938 61.917969 C 34.105469 64.289062 30.269531 64.304688 27.894531 61.949219 L 2.085938 36.394531 C -0.289062 34.042969 -0.304688 30.214844 2.050781 27.84375 L 27.652344 2.082031 C 30.007812 -0.289062 33.84375 -0.304688 36.21875 2.050781 Z M 36.21875 2.050781 " /><g transform="matrix(1.0075098,0,0,1.0032698,16.221436,16.077397)"><path fill-rule="nonzero" fill="rgb(100%, 100%, 100%)" fill-opacity="1" d="M 11.242188 20.28125 L 22.078125 20.28125 L 19.398438 5.863281 Z M 1 31 L 1.390625 28.867188 L 3.960938 28.867188 L 19.671875 1 L 22.96875 1 L 28.140625 28.867188 L 31 28.867188 L 30.609375 31 L 19.96875 31 L 20.359375 28.867188 L 23.613281 28.867188 L 22.429688 22.429688 L 10.027344 22.429688 L 6.40625 28.867188 L 9.621094 28.867188 L 9.230469 31 Z M 1 31 "/></g></svg>
