<svg width="64" height="64" viewBox="0 0 64 64" version="1.1"><defs><linearGradient id="linear-pattern-0" gradientUnits="userSpaceOnUse" x1="0" y1="0" x2="0" y2="1" gradientTransform="matrix(60, 0, 0, 56, 0, 4)"><stop offset="0" stop-color="#7795ab" stop-opacity="1"/><stop offset="1" stop-color="#3b4f5f" stop-opacity="1"/></linearGradient></defs><path fill="url(#linear-pattern-0)" fill-opacity="1" d="M 36.21875 2.050781 L 62.027344 27.605469 C 64.402344 29.957031 64.417969 33.785156 62.058594 36.15625 L 36.460938 61.917969 C 34.105469 64.289062 30.269531 64.304688 27.894531 61.949219 L 2.085938 36.394531 C -0.289062 34.042969 -0.304688 30.214844 2.050781 27.84375 L 27.652344 2.082031 C 30.007812 -0.289062 33.84375 -0.304688 36.21875 2.050781 Z M 36.21875 2.050781 " /><g transform="matrix(1.0075098,0,0,1.0032698,16.221436,16.077397)"><path fill-rule="evenodd" fill="rgb(100%, 100%, 100%)" fill-opacity="1" d="M 16 3.335938 C 7.164062 3.335938 0 8.109375 0 14 C 0 18.640625 4.789062 22.582031 11 24.046875 L 11 20.515625 C 7.777344 19.0625 5.335938 16.6875 5.335938 14 C 5.335938 9.582031 11.007812 6 18 6 C 24.992188 6 30.664062 9.585938 30.664062 14 C 30.664062 17.453125 27.386719 20.59375 22.523438 21.710938 C 22.914062 22.355469 23.304688 23 23.695312 23.625 C 28.753906 21.828125 32 18.085938 32 14 C 32 8.109375 24.835938 3.335938 16 3.335938 Z M 16 12.671875 L 18.664062 12.671875 C 20.132812 12.671875 21.328125 13.867188 21.328125 15.335938 C 21.328125 16.8125 20.132812 18 18.664062 18 L 16 18 L 16 12.664062 Z M 12 8.671875 L 12 28.664062 L 16 28.664062 L 16 22 L 17.335938 22 L 21.335938 28.664062 L 25.335938 28.664062 L 21.335938 22 L 21.039062 21.539062 C 23.539062 20.582031 25.328125 18.179688 25.328125 15.335938 C 25.328125 11.65625 22.34375 8.671875 18.664062 8.671875 Z M 12 8.671875 "/></g></svg>
