<svg width="64" height="64" viewBox="0 0 64 64" version="1.1"><defs><linearGradient id="linear-pattern-0" gradientUnits="userSpaceOnUse" x1="0" y1="0" x2="0" y2="1" gradientTransform="matrix(60, 0, 0, 56, 0, 4)"><stop offset="0" stop-color="#00983a" stop-opacity="1"/><stop offset="1" stop-color="#004a1c" stop-opacity="1"/></linearGradient></defs><path fill="url(#linear-pattern-0)" fill-opacity="1" d="M 36.21875 2.050781 L 62.027344 27.605469 C 64.402344 29.957031 64.417969 33.785156 62.058594 36.15625 L 36.460938 61.917969 C 34.105469 64.289062 30.269531 64.304688 27.894531 61.949219 L 2.085938 36.394531 C -0.289062 34.042969 -0.304688 30.214844 2.050781 27.84375 L 27.652344 2.082031 C 30.007812 -0.289062 33.84375 -0.304688 36.21875 2.050781 Z M 36.21875 2.050781 " /><g transform="matrix(1.0075098,0,0,1.0032698,16.221436,16.077397)"><path fill-rule="nonzero" fill="rgb(100%, 100%, 100%)" fill-opacity="1" d="M 20.203125 6.53125 L 24.492188 7.390625 L 25.414062 10.289062 L 27.296875 8.054688 L 32 9.085938 L 27.789062 13.992188 L 30.167969 21.296875 L 25.109375 20.78125 L 24.207031 16.820312 L 21.917969 20.078125 L 17.976562 18.804688 L 21.929688 12.960938 M 8.261719 10.476562 L 13.171875 11.167969 L 14.628906 14.347656 L 16.460938 11.601562 L 21.40625 12.257812 L 16.875 19.015625 L 15.765625 25.46875 L 11.175781 24.710938 L 11.960938 18.914062 M 4.875 22.359375 L 0 10.574219 L 3.929688 8.652344 L 4.023438 8.523438 L 7.191406 16.53125 L 9.492188 15.242188 L 11.199219 18.914062 "/></g></svg>
