<svg width="64" height="64" viewBox="0 0 64 64" version="1.1"><defs><linearGradient id="linear-pattern-0" gradientUnits="userSpaceOnUse" x1="0" y1="0" x2="0" y2="1" gradientTransform="matrix(60, 0, 0, 56, 0, 4)"><stop offset="0" stop-color="#3067ff" stop-opacity="1"/><stop offset="1" stop-color="#002ca6" stop-opacity="1"/></linearGradient></defs><path fill="url(#linear-pattern-0)" fill-opacity="1" d="M 36.21875 2.050781 L 62.027344 27.605469 C 64.402344 29.957031 64.417969 33.785156 62.058594 36.15625 L 36.460938 61.917969 C 34.105469 64.289062 30.269531 64.304688 27.894531 61.949219 L 2.085938 36.394531 C -0.289062 34.042969 -0.304688 30.214844 2.050781 27.84375 L 27.652344 2.082031 C 30.007812 -0.289062 33.84375 -0.304688 36.21875 2.050781 Z M 36.21875 2.050781 " /><g transform="matrix(1.0075098,0,0,1.0032698,16.221436,16.077397)"><path fill-rule="nonzero" fill="rgb(100%, 100%, 100%)" fill-opacity="1" d="M 9.765625 19.609375 L 9.765625 12.390625 L 16.011719 8.789062 L 22.257812 12.390625 L 22.257812 19.609375 L 16.011719 23.214844 Z M 9.765625 19.609375 "/><path fill-rule="nonzero" fill="rgb(100%, 100%, 100%)" fill-opacity="1" d="M 29.523438 9.402344 L 24.109375 12.523438 L 24.03125 19.414062 L 29.472656 22.65625 Z M 29.523438 9.402344 "/><path fill-rule="nonzero" fill="rgb(100%, 100%, 100%)" fill-opacity="1" d="M 2.5 22.597656 L 7.910156 19.476562 L 7.992188 12.589844 L 2.550781 9.34375 Z M 2.5 22.597656 "/><path fill-rule="nonzero" fill="rgb(100%, 100%, 100%)" fill-opacity="1" d="M 14.96875 31 L 14.96875 24.75 L 9.046875 21.238281 L 3.515625 24.328125 Z M 14.96875 31 "/><path fill-rule="nonzero" fill="rgb(100%, 100%, 100%)" fill-opacity="1" d="M 28.480469 24.402344 L 23.070312 21.277344 L 17.066406 24.648438 L 16.976562 30.984375 Z M 28.480469 24.402344 "/><path fill-rule="nonzero" fill="rgb(100%, 100%, 100%)" fill-opacity="1" d="M 3.539062 7.597656 L 8.953125 10.722656 L 14.953125 7.351562 L 15.046875 1.015625 Z M 3.539062 7.597656 "/><path fill-rule="nonzero" fill="rgb(100%, 100%, 100%)" fill-opacity="1" d="M 17.054688 1 L 17.054688 7.25 L 22.976562 10.761719 L 28.507812 7.671875 Z M 17.054688 1 "/></g></svg>
