<svg xmlns="http://www.w3.org/2000/svg" xmlns:xlink="http://www.w3.org/1999/xlink" width="64" height="64" viewBox="0 0 64 64" version="1.1"><defs><linearGradient id="linear0" x1="0%" x2="0%" y1="0%" y2="100%"><stop offset="0%" style="stop-color:#00b54e; stop-opacity:1"/><stop offset="50%" style="stop-color:#ffd000; stop-opacity:1"/><stop offset="100%" style="stop-color:#ff00bb; stop-opacity:1"/></linearGradient></defs><g id="surface1"><path style=" stroke:none;fill-rule:nonzero;fill:url(#linear0);" d="M 24.503906 1.953125 C 14.976562 3.988281 8.835938 13.570312 8.835938 13.570312 C 8.835938 14.859375 10.234375 15.894531 11.972656 15.894531 L 15.101562 15.894531 L 17.746094 27.109375 L 8.847656 39.125 C 8.847656 41.414062 11.0625 43.277344 13.988281 43.675781 L 18.246094 48.410156 L 8.847656 57.703125 L 8.847656 62.355469 L 27.648438 62.355469 C 27.648438 62.355469 27.648438 57.703125 21.378906 57.703125 L 29.433594 49.738281 L 30.773438 50.730469 L 30.773438 62.347656 L 49.574219 62.347656 C 49.574219 62.347656 49.574219 57.699219 43.308594 57.699219 L 43.308594 50.730469 L 33.90625 43.761719 C 34.746094 43.761719 35.542969 43.640625 36.269531 43.417969 L 37.042969 43.761719 L 52.707031 36.792969 L 51.453125 35.867188 L 58.976562 32.152344 L 52.707031 27.503906 L 49.574219 29.828125 L 46.4375 27.503906 L 44.355469 30.59375 L 43.308594 29.816406 L 40.175781 32.140625 C 40.175781 29.5625 37.382812 27.492188 33.90625 27.492188 L 30.773438 27.492188 C 30.773438 27.492188 33.90625 27.492188 33.90625 25.171875 L 33.90625 22.847656 L 40.175781 22.847656 L 33.90625 15.878906 L 37.042969 15.878906 C 38.777344 15.878906 40.175781 14.84375 40.175781 13.554688 C 40.175781 12.265625 38.777344 11.230469 37.042969 11.230469 L 36.90625 11.230469 C 36.996094 10.847656 37.042969 10.457031 37.042969 10.070312 C 37.042969 5.585938 31.429688 1.945312 24.507812 1.945312 Z M 24.503906 1.953125 "/></g></svg>
