<svg xmlns="http://www.w3.org/2000/svg" xmlns:xlink="http://www.w3.org/1999/xlink" width="64" height="64" viewBox="0 0 64 64" version="1.1"><defs><linearGradient id="linear0" x1="100%" x2="0%" y1="100%" y2="0%"><stop offset="0%" style="stop-color:#00b54e; stop-opacity:1"/><stop offset="100%" style="stop-color:#ff0000; stop-opacity:1"/></linearGradient></defs><g id="surface1"><path style=" stroke:none;fill-rule:nonzero;fill:url(#linear0);" d="M 15.363281 61.964844 L 21.328125 61.964844 L 21.328125 56.742188 L 15.363281 56.742188 Z M 30.273438 33.242188 C 35.222656 33.242188 39.191406 29.746094 39.191406 25.410156 L 39.222656 9.746094 C 39.222656 5.414062 35.222656 1.914062 30.273438 1.914062 C 25.328125 1.914062 21.328125 5.414062 21.328125 9.746094 L 21.328125 25.410156 C 21.328125 29.746094 25.328125 33.242188 30.273438 33.242188 Z M 27.292969 61.964844 L 33.253906 61.964844 L 33.253906 56.742188 L 27.292969 56.742188 Z M 39.222656 61.964844 L 45.1875 61.964844 L 45.1875 56.742188 L 39.222656 56.742188 Z M 51.148438 25.410156 L 46.082031 25.410156 C 46.082031 33.242188 38.507812 38.722656 30.273438 38.722656 C 22.042969 38.722656 14.46875 33.242188 14.46875 25.410156 L 9.402344 25.410156 C 9.402344 34.320312 17.507812 41.679688 27.292969 42.957031 L 27.292969 51.523438 L 33.253906 51.523438 L 33.253906 42.957031 C 43.042969 41.679688 51.148438 34.320312 51.148438 25.410156 Z M 51.148438 25.410156 "/></g></svg>
