<svg xmlns="http://www.w3.org/2000/svg" xmlns:xlink="http://www.w3.org/1999/xlink" width="64" height="64" viewBox="0 0 64 64" version="1.1"><defs><linearGradient id="linear0" x1="0%" x2="100%" y1="0%" y2="100%"><stop offset="0%" style="stop-color:#e5ff00; stop-opacity:1"/><stop offset="50%" style="stop-color:#0073ff; stop-opacity:1"/><stop offset="100%" style="stop-color:#ff0000; stop-opacity:1"/></linearGradient></defs><g id="surface1"><path style=" stroke:none;fill-rule:nonzero;fill:url(#linear0);fill-opacity:1;" d="M 33.347656 11.6875 L 4.074219 46.773438 C 4.074219 47.992188 5.105469 48.726562 6.324219 48.972656 C 17.585938 51.164062 24.339844 51.164062 33.347656 51.164062 C 42.355469 51.164062 49.113281 51.164062 60.363281 48.972656 C 61.59375 48.726562 62.621094 47.992188 62.621094 46.773438 C 62.621094 45.5625 61.613281 44.585938 60.363281 44.585938 L 60.363281 38.007812 C 60.363281 23.464844 48.273438 11.6875 33.347656 11.6875 Z M 33.347656 11.6875 "/><path style=" stroke:none;fill-rule:nonzero;fill:url(#linear0);fill-opacity:1;" d="M 24.339844 10.367188 C 12.695312 13.289062 4.074219 23.574219 4.074219 35.8125 L 19.835938 35.8125 C 22.332031 35.8125 24.339844 33.855469 24.339844 31.425781 Z M 37.851562 10.367188 L 37.851562 31.445312 C 37.851562 33.878906 39.855469 35.832031 42.355469 35.832031 L 58.117188 35.832031 C 58.117188 23.574219 49.492188 13.242188 37.851562 10.394531 "/><path style=" stroke:none;fill-rule:nonzero;fill:url(#linear0);fill-opacity:1;" d="M 31.097656 16.078125 L 31.097656 38.007812 L 40.101562 38.007812 L 40.101562 17.585938 C 37.289062 16.609375 34.265625 16.078125 31.097656 16.078125 M 28.148438 16.222656 C 25.214844 16.535156 22.402344 17.328125 19.835938 18.480469 L 19.835938 38.023438 L 28.847656 38.023438 L 28.847656 16.222656 C 28.613281 16.246094 28.367188 16.199219 28.136719 16.222656 M 42.367188 18.480469 L 42.367188 37.996094 L 57.707031 37.996094 C 56.1875 29.316406 50.335938 22.054688 42.367188 18.480469 M 17.597656 19.578125 C 10.773438 23.441406 5.867188 30.148438 4.496094 37.996094 L 17.597656 37.996094 "/><path style=" stroke:none;fill-rule:nonzero;fill:url(#linear0);fill-opacity:1;" d="M 31.097656 9.5 C 16.164062 9.5 4.074219 21.273438 4.074219 35.8125 L 4.074219 42.390625 C 8.578125 46.773438 53.613281 46.773438 58.117188 42.390625 L 58.117188 35.8125 C 58.117188 21.273438 46.023438 9.5 31.097656 9.5 "/><path style=" stroke:none;fill-rule:nonzero;fill:url(#linear0);fill-opacity:1;" d="M 4.074219 42.390625 L 58.117188 42.390625 C 59.363281 42.390625 60.363281 43.367188 60.363281 44.585938 C 60.363281 45.796875 59.332031 46.539062 58.117188 46.773438 C 46.851562 48.972656 40.101562 48.972656 31.097656 48.972656 C 22.089844 48.972656 15.335938 48.972656 4.074219 46.773438 C 2.855469 46.539062 1.824219 45.796875 1.824219 44.585938 C 1.824219 43.367188 2.824219 42.390625 4.074219 42.390625 Z M 4.074219 42.390625 "/></g></svg>
