<svg xmlns="http://www.w3.org/2000/svg" xmlns:xlink="http://www.w3.org/1999/xlink" width="64" height="64" viewBox="0 0 64 64" version="1.1"><defs><linearGradient id="linear0" x1="0%" x2="100%" y1="0%" y2="100%"><stop offset="0%" style="stop-color:#6a00ff; stop-opacity:1"/><stop offset="50%" style="stop-color:#e0dd02; stop-opacity:1"/><stop offset="100%" style="stop-color:#00b54e; stop-opacity:1"/></linearGradient></defs><g id="surface1"><path style=" stroke:none;fill-rule:nonzero;fill:url(#linear0);" d="M 16.609375 10.152344 C 13.679688 10.152344 10.90625 10.460938 8.742188 11.035156 L 8.730469 11.027344 L 8.730469 52.472656 C 10.332031 52.785156 12.5 53.03125 15.394531 53.03125 C 20.652344 53.03125 24.945312 51.101562 27.640625 47.285156 C 30.214844 43.667969 31.863281 38.039062 31.863281 30.535156 C 31.863281 23.339844 30.253906 18.347656 27.640625 15.03125 C 25.152344 11.78125 21.664062 10.152344 16.609375 10.152344 Z M 17.046875 16.171875 C 23.226562 16.171875 26.679688 21.476562 26.632812 30.789062 C 26.632812 41.421875 22.875 46.941406 16.515625 46.941406 L 16.398438 46.941406 L 16.398438 46.917969 C 15.402344 46.917969 14.351562 46.917969 13.675781 46.738281 L 13.675781 16.609375 C 14.355469 16.351562 15.480469 16.171875 17.050781 16.171875 Z M 46.890625 20.835938 C 43.539062 20.835938 41.339844 23.761719 40.472656 26.171875 L 40.347656 26.171875 L 40.101562 21.527344 L 35.625 21.527344 C 35.753906 24.199219 35.792969 27.1875 35.792969 30.753906 L 35.792969 52.519531 L 40.921875 52.519531 L 40.921875 34.316406 C 40.921875 33.429688 40.964844 32.472656 41.132812 31.78125 C 41.671875 29.421875 43.082031 27.1875 45.109375 27.1875 C 47.878906 27.1875 48.957031 30.5625 48.957031 35.019531 L 48.957031 52.519531 L 54.050781 52.519531 L 54.050781 34.125 C 54.050781 24.328125 50.40625 20.835938 46.890625 20.835938 Z M 46.890625 20.835938 "/></g></svg>
