<svg xmlns="http://www.w3.org/2000/svg" xmlns:xlink="http://www.w3.org/1999/xlink" width="64" height="64" viewBox="0 0 64 64" version="1.1"><defs><linearGradient id="linear0" x1="0%" x2="0%" y1="0%" y2="100%"><stop offset="0%" style="stop-color:#24dbdb; stop-opacity:1"/><stop offset="100%" style="stop-color:#174475; stop-opacity:1"/></linearGradient></defs><g id="surface1"><path style=" stroke:none;fill-rule:nonzero;fill:url(#linear0);" d="M 9.871094 10.984375 L 9.871094 53.070312 L 15.148438 53.070312 L 15.148438 35.21875 L 25.78125 35.21875 L 25.78125 28.90625 L 15.148438 28.90625 L 15.148438 17.296875 L 26.558594 17.296875 L 26.558594 10.984375 M 9.871094 10.984375 "/><path style=" stroke:none;fill-rule:nonzero;fill:url(#linear0);" d="M 51.070312 22.65625 L 48.925781 36.136719 C 48.414062 39.703125 47.976562 43.007812 47.660156 46.320312 L 47.578125 46.320312 C 47.140625 43.007812 46.632812 39.703125 46.027344 36.136719 L 43.613281 22.65625 L 39.636719 22.65625 L 37.136719 36.519531 C 36.582031 39.644531 35.941406 43.007812 35.542969 46.316406 L 35.46875 46.316406 C 35.105469 43.007812 34.671875 39.699219 34.234375 36.453125 L 32.207031 22.65625 L 27.210938 22.65625 L 32.921875 53.054688 L 37.492188 53.054688 L 39.953125 40.695312 C 40.507812 37.703125 41.019531 34.699219 41.417969 30.949219 L 41.503906 30.949219 C 41.941406 34.632812 42.375 37.503906 42.96875 40.695312 L 45.273438 53.054688 L 49.796875 53.054688 L 55.875 22.65625 M 51.066406 22.65625 "/></g></svg>
