<svg xmlns="http://www.w3.org/2000/svg" xmlns:xlink="http://www.w3.org/1999/xlink" width="64" height="64" viewBox="0 0 64 64" version="1.1"><defs><linearGradient id="linear0" x1="0%" x2="0%" y1="0%" y2="100%"><stop offset="0%" style="stop-color:#24dbdb; stop-opacity:1"/><stop offset="100%" style="stop-color:#174475; stop-opacity:1"/></linearGradient></defs><g id="surface1"><path style=" stroke:none;fill-rule:nonzero;fill:url(#linear0);" d="M 27.417969 61.433594 C 29.351562 60.9375 32.941406 58.882812 35.402344 56.867188 L 39.878906 53.199219 L 40.789062 55.414062 C 41.960938 58.289062 46.347656 61.449219 49.160156 61.449219 C 54.722656 61.449219 61.207031 57.25 61.207031 53.640625 C 61.207031 51.867188 60.714844 51.546875 57.9375 51.546875 C 51.632812 51.546875 50.570312 47.164062 53.902344 34.957031 C 55.773438 28.074219 56.074219 25.753906 55.207031 24.78125 C 53.503906 22.882812 49.007812 20.941406 46.308594 20.941406 C 44.09375 20.941406 43.769531 21.496094 42.296875 27.917969 C 39.539062 39.835938 38.945312 41.480469 36.363281 44.339844 C 31.671875 49.511719 25.113281 51.195312 20.726562 48.34375 C 12.605469 43.0625 14.417969 25.746094 23.835938 18.527344 C 28.355469 15.0625 33.132812 13.738281 41.074219 13.738281 C 48.648438 13.738281 52.75 14.894531 57.582031 18.398438 C 60.621094 20.601562 61.324219 20.808594 61.804688 19.632812 C 62.714844 17.433594 61.375 12.429688 59.007812 9.191406 C 55.238281 4.039062 50.570312 2.484375 38.925781 2.484375 C 29.777344 2.484375 28.203125 2.730469 23.304688 4.96875 C 8.855469 11.566406 0.09375 28.332031 2.894531 44.039062 C 5.324219 57.664062 15.121094 64.609375 27.417969 61.433594 Z M 27.417969 61.433594 "/></g></svg>
