<svg xmlns="http://www.w3.org/2000/svg" xmlns:xlink="http://www.w3.org/1999/xlink" width="64" height="64" viewBox="0 0 64 64" version="1.1"><defs><linearGradient id="linear0" x1="0%" x2="0%" y1="0%" y2="100%"><stop offset="0%" style="stop-color:#ff0000; stop-opacity:1"/><stop offset="50%" style="stop-color:#ffd000; stop-opacity:1"/><stop offset="100%" style="stop-color:#0073ff; stop-opacity:1"/></linearGradient></defs><g id="surface1"><path style=" stroke:none;fill-rule:nonzero;fill:url(#linear0);" d="M 30.308594 3.679688 C 17.867188 3.679688 7.777344 12.085938 7.777344 22.460938 C 7.777344 27.902344 10.609375 33.078125 15.539062 36.640625 L 17.480469 49.59375 L 16.542969 49.59375 C 15.847656 49.59375 15.289062 50.054688 15.289062 50.640625 C 15.289062 51.214844 15.847656 51.679688 16.542969 51.679688 L 17.796875 51.679688 L 20.296875 62.113281 L 40.324219 62.113281 L 42.820312 51.679688 L 44.074219 51.679688 C 44.761719 51.679688 45.320312 51.214844 45.320312 50.640625 C 45.320312 50.054688 44.761719 49.59375 44.074219 49.59375 L 43.136719 49.59375 L 45.070312 36.640625 C 50 33.078125 52.832031 27.902344 52.832031 22.460938 C 52.832031 12.085938 42.746094 3.679688 30.308594 3.679688 Z M 42.375 38.308594 L 40.878906 49.59375 L 35.316406 49.59375 L 35.316406 40.726562 C 37.8125 40.261719 40.203125 39.441406 42.375 38.308594 Z M 18.296875 38.332031 C 20.449219 39.460938 22.820312 40.269531 25.304688 40.726562 L 25.304688 49.59375 L 19.984375 49.59375 Z M 27.804688 41.09375 C 28.632812 41.183594 29.472656 41.234375 30.308594 41.246094 C 31.136719 41.234375 31.976562 41.183594 32.8125 41.09375 L 32.8125 49.59375 L 27.804688 49.59375 Z M 27.804688 41.09375 "/><path style=" stroke:none;fill-rule:nonzero;fill:url(#linear0);" d="M 12.789062 32.894531 L 15.289062 49.59375 L 17.796875 51.679688 L 17.796875 49.59375 L 15.289062 32.894531 Z M 40.324219 32.894531 L 37.8125 51.679688 L 40.324219 49.59375 L 42.820312 32.894531 Z M 22.796875 37.066406 L 22.796875 53.769531 L 25.304688 53.769531 L 25.304688 37.066406 Z M 30.308594 37.066406 L 30.308594 53.769531 L 32.8125 53.769531 L 32.8125 37.066406 Z M 30.308594 37.066406 "/><path style=" stroke:none;fill-rule:nonzero;fill:url(#linear0);" d="M 32.8125 2.0625 L 32.8125 38.640625 C 35.488281 38.136719 38.03125 37.230469 40.324219 35.964844 L 40.324219 4.753906 C 38.03125 3.488281 35.488281 2.570312 32.8125 2.0625 Z M 22.796875 2.105469 C 20.121094 2.613281 17.574219 3.519531 15.289062 4.785156 L 15.289062 35.964844 C 17.574219 37.230469 20.121094 38.140625 22.796875 38.640625 Z M 22.796875 2.105469 "/></g></svg>
