<svg xmlns="http://www.w3.org/2000/svg" xmlns:xlink="http://www.w3.org/1999/xlink" width="64" height="64" viewBox="0 0 64 64" version="1.1"><defs><linearGradient id="linear0" x1="0%" x2="100%" y1="0%" y2="100%"><stop offset="0%" style="stop-color:#ff0000; stop-opacity:1"/><stop offset="50%" style="stop-color:#ffd000; stop-opacity:1"/><stop offset="100%" style="stop-color:#ff00bb; stop-opacity:1"/></linearGradient></defs><g id="surface1"><path style=" stroke:none;fill-rule:nonzero;fill:url(#linear0);fill-opacity:1;" d="M 32.136719 4.210938 L 1.90625 58.488281 C 1.90625 61.226562 3.976562 63.425781 6.5625 63.425781 L 57.71875 63.425781 C 60.292969 63.425781 62.375 61.226562 62.375 58.488281 L 62.375 51.085938 C 62.375 43.050781 55.636719 36.164062 45.929688 33.082031 C 48.917969 30.015625 50.746094 25.949219 50.746094 21.480469 C 50.746094 11.945312 42.414062 4.210938 32.136719 4.210938 Z M 32.136719 4.210938 "/><path style=" stroke:none;fill-rule:nonzero;fill:url(#linear0);fill-opacity:1;" d="M 16.292969 30.53125 C 19.570312 35.464844 25.441406 38.753906 32.144531 38.753906 C 38.199219 38.753906 43.589844 36.058594 46.984375 31.890625 C 42.691406 29.988281 37.601562 28.882812 32.144531 28.882812 Z M 16.292969 30.53125 "/><path style=" stroke:none;fill-rule:nonzero;fill:url(#linear0);" d="M 22.835938 14.078125 L 22.835938 19.015625 L 27.492188 19.015625 L 27.492188 14.078125 Z M 36.792969 14.078125 L 36.792969 19.015625 L 41.445312 19.015625 L 41.445312 14.078125 Z M 29.816406 19.015625 L 29.816406 23.949219 L 34.46875 23.949219 L 34.46875 19.015625 Z M 25.160156 26.417969 L 25.160156 31.351562 L 39.117188 31.351562 L 39.117188 26.417969 Z M 25.160156 26.417969 "/><path style=" stroke:none;fill-rule:nonzero;fill:url(#linear0);" d="M 29.816406 1.746094 C 19.539062 1.746094 11.207031 9.472656 11.207031 19.015625 C 11.207031 28.558594 19.539062 36.285156 29.816406 36.285156 C 40.085938 36.285156 48.421875 28.558594 48.421875 19.015625 C 48.421875 9.472656 40.085938 1.746094 29.816406 1.746094 Z M 29.816406 1.746094 "/></g></svg>
