<svg xmlns="http://www.w3.org/2000/svg" xmlns:xlink="http://www.w3.org/1999/xlink" width="64" height="64" viewBox="0 0 64 64" version="1.1"><defs><linearGradient id="linear0" x1="0%" x2="100%" y1="0%" y2="100%"><stop offset="0%" style="stop-color:#e5ff00; stop-opacity:1"/><stop offset="50%" style="stop-color:#0073ff; stop-opacity:1"/><stop offset="100%" style="stop-color:#ff0000; stop-opacity:1"/></linearGradient></defs><g id="surface1"><path style=" stroke:none;fill-rule:nonzero;fill:url(#linear0);" d="M 58.089844 43.34375 C 58.089844 56.476562 47.429688 63.050781 34.101562 63.050781 C 20.765625 63.050781 10.105469 56.484375 10.105469 43.34375 C 10.105469 28.019531 22.980469 1.742188 34.101562 1.742188 C 45.222656 1.742188 58.089844 28.019531 58.089844 43.34375 Z M 58.089844 43.34375 "/><path style=" stroke:none;fill-rule:nonzero;fill:url(#linear0);" d="M 34.101562 3.933594 C 24.6875 3.933594 12.777344 28.015625 12.777344 43.339844 C 12.777344 54.285156 21.230469 60.851562 34.101562 60.851562 C 38.40625 60.851562 42.195312 60.109375 45.355469 58.722656 C 49.546875 53.503906 52.757812 47.589844 52.757812 41.152344 C 54.285156 44.003906 53.554688 48.84375 51.9375 53.847656 C 54.179688 51.058594 55.421875 47.523438 55.421875 43.339844 C 55.421875 28.015625 43.507812 3.933594 34.101562 3.933594 Z M 30.101562 8.308594 C 30.101562 8.308594 28.765625 15.824219 28.765625 19.253906 C 28.765625 23.699219 31.433594 30.203125 31.433594 32.394531 C 31.433594 35.640625 27.433594 41.152344 27.433594 41.152344 C 27.433594 41.152344 28.765625 37.285156 28.765625 32.394531 C 28.765625 30.203125 26.105469 24.484375 26.105469 19.253906 C 26.105469 15.535156 30.101562 8.308594 30.101562 8.308594 Z M 39.433594 8.308594 C 39.433594 8.308594 47.429688 17.691406 47.429688 28.015625 C 47.429688 32.394531 46.472656 35.878906 44.761719 38.964844 L 44.761719 28.015625 C 44.761719 20.078125 42.09375 14.878906 39.433594 8.308594 Z M 20.765625 21.449219 L 20.765625 28.015625 C 20.765625 32.394531 19.992188 36.28125 18.101562 41.152344 L 18.101562 32.394531 C 18.101562 28.671875 20.765625 21.449219 20.765625 21.449219 Z M 20.765625 21.449219 "/><path style=" stroke:none;fill-rule:nonzero;fill:rgb(65.882355%,65.882355%,65.882355%);fill-opacity:1;" d="M 22.109375 45.53125 C 19.890625 45.53125 18.101562 47.492188 18.101562 49.910156 C 19.554688 47.71875 21 47.71875 22.109375 47.71875 C 23.214844 47.71875 24.570312 47.71875 26.105469 49.910156 C 26.105469 47.492188 24.316406 45.53125 22.109375 45.53125 Z M 43.429688 45.53125 C 41.21875 45.53125 39.433594 47.492188 39.433594 49.910156 C 40.878906 47.71875 42.324219 47.71875 43.429688 47.71875 C 44.539062 47.71875 45.898438 47.71875 47.429688 49.910156 C 47.429688 47.492188 45.636719 45.53125 43.429688 45.53125 Z M 30.101562 52.097656 C 29.363281 52.097656 28.765625 52.589844 28.765625 53.195312 C 28.765625 55.011719 30.546875 56.476562 32.769531 56.476562 C 34.980469 56.476562 36.765625 55.011719 36.765625 53.195312 C 36.765625 52.589844 36.171875 52.097656 35.429688 52.097656 C 34.695312 52.097656 34.101562 52.589844 34.101562 53.195312 C 34.101562 53.800781 33.5 54.285156 32.769531 54.285156 C 32.027344 54.285156 31.433594 53.800781 31.433594 53.195312 C 31.433594 52.589844 30.832031 52.097656 30.101562 52.097656 Z M 30.101562 52.097656 "/></g></svg>
