<svg xmlns="http://www.w3.org/2000/svg" xmlns:xlink="http://www.w3.org/1999/xlink" width="64" height="64" viewBox="0 0 64 64" version="1.1"><defs><linearGradient id="linear0" x1="0%" x2="0%" y1="0%" y2="100%"><stop offset="0%" style="stop-color:#ffd000; stop-opacity:1"/><stop offset="50%" style="stop-color:#24dbdb; stop-opacity:1"/><stop offset="100%" style="stop-color:#0073ff; stop-opacity:1"/></linearGradient></defs><g id="surface1"><path style=" stroke:none;fill-rule:evenodd;fill:url(#linear0);" d="M 32.515625 1.925781 C 25.859375 1.925781 18.429688 4.917969 16.863281 14.878906 C 16.710938 15.941406 17.335938 16.5 17.910156 16.65625 L 24.703125 17.542969 C 25.328125 17.507812 25.792969 16.75 25.914062 15.988281 C 26.496094 12.5625 28.875 10.902344 31.542969 10.902344 C 32.976562 10.902344 34.613281 11.546875 35.472656 13.105469 C 36.445312 14.835938 36.3125 17.234375 36.3125 19.246094 L 36.3125 20.332031 C 32.253906 20.890625 26.953125 21.246094 23.152344 23.273438 C 18.773438 25.558594 15.691406 30.25 15.691406 37.125 C 15.691406 45.921875 20.28125 50.320312 26.167969 50.320312 C 31.148438 50.320312 33.863281 48.902344 37.703125 44.160156 C 38.984375 46.390625 39.402344 47.472656 41.71875 49.808594 C 42.242188 50.140625 42.90625 50.105469 43.367188 49.609375 L 43.394531 49.625 C 44.796875 48.125 47.324219 45.449219 48.753906 44.011719 C 49.320312 43.433594 49.238281 42.515625 48.78125 41.753906 C 47.496094 39.613281 46.136719 37.871094 46.136719 33.902344 L 46.136719 20.714844 C 46.136719 15.121094 46.464844 9.988281 43.0625 6.140625 C 40.375 3.019531 35.917969 1.925781 32.515625 1.925781 M 36.3125 27.128906 L 36.3125 28.957031 C 36.3125 32.253906 36.386719 35.011719 35.003906 37.941406 C 33.890625 40.324219 32.132812 41.792969 30.160156 41.792969 C 27.472656 41.792969 25.914062 39.308594 25.914062 35.652344 C 25.914062 28.433594 31.25 27.128906 36.3125 27.128906 "/><path style=" stroke:none;fill-rule:evenodd;fill:url(#linear0);" d="M 58.015625 46.066406 C 55.917969 46.101562 53.4375 46.671875 51.554688 48.269531 C 50.980469 48.761719 51.074219 49.445312 51.722656 49.34375 C 53.839844 49.035156 58.550781 48.359375 59.390625 49.652344 C 60.230469 50.953125 58.453125 56.332031 57.660156 58.722656 C 57.421875 59.445312 57.9375 59.738281 58.476562 59.183594 C 62.003906 55.625 62.917969 48.144531 62.191406 47.0625 C 61.839844 46.53125 60.113281 46.039062 58.015625 46.066406 "/><path style=" stroke:none;fill-rule:evenodd;fill:url(#linear0);" d="M 2.964844 47.496094 C 2.449219 47.460938 2.191406 48.167969 2.683594 48.722656 C 10.511719 57.277344 20.863281 62.421875 32.359375 62.421875 C 40.566406 62.421875 50.085938 59.300781 56.65625 53.433594 C 57.75 52.460938 56.816406 51.007812 55.699219 51.585938 C 48.335938 55.367188 40.332031 57.183594 33.050781 57.183594 C 22.257812 57.183594 11.808594 53.601562 3.363281 47.65625 C 3.21875 47.5625 3.085938 47.507812 2.964844 47.496094 "/></g></svg>
