<svg xmlns="http://www.w3.org/2000/svg" xmlns:xlink="http://www.w3.org/1999/xlink" width="64" height="64" viewBox="0 0 64 64" version="1.1"><defs><linearGradient id="linear0" x1="0%" x2="100%" y1="0%" y2="100%"><stop offset="0%" style="stop-color:#e5ff00; stop-opacity:1"/><stop offset="50%" style="stop-color:#0073ff; stop-opacity:1"/><stop offset="100%" style="stop-color:#ff0000; stop-opacity:1"/></linearGradient></defs><g id="surface1"><path style=" stroke:none;fill-rule:nonzero;fill:url(#linear0);" d="M 21.746094 11.875 C 17.089844 11.875 12.207031 12.804688 7.511719 14.375 L 7.511719 30.105469 C 5.878906 29.164062 4.289062 28.125 2.71875 26.992188 C 2.535156 26.855469 2.359375 26.804688 2.207031 26.832031 C 1.757812 26.90625 1.550781 27.59375 2.023438 28.125 C 3.742188 30.078125 5.570312 31.792969 7.5 33.3125 L 7.5 56.730469 L 17.082031 56.730469 L 17.082031 38.902344 C 20.132812 40.125 23.332031 40.957031 26.664062 41.394531 L 26.664062 56.730469 L 36.242188 56.730469 L 36.242188 41.496094 C 39.464844 41.058594 42.703125 40.085938 45.824219 38.707031 L 45.824219 56.761719 L 55.40625 56.761719 L 55.40625 32.714844 C 55.886719 32.3125 56.359375 31.894531 56.820312 31.472656 L 56.820312 31.464844 C 57.941406 30.421875 56.984375 28.871094 55.832031 29.476562 C 55.675781 29.566406 55.507812 29.636719 55.347656 29.726562 C 55.28125 28.324219 55.148438 26.984375 54.945312 25.683594 C 57.066406 25.429688 59.386719 25.394531 59.964844 26.527344 C 60.828125 28.214844 59.003906 35.207031 58.199219 38.320312 C 57.953125 39.269531 58.476562 39.648438 59.03125 38.933594 C 62.652344 34.292969 63.574219 24.558594 62.828125 23.164062 C 62.484375 22.507812 60.933594 21.894531 58.976562 21.855469 C 57.542969 21.835938 55.910156 22.121094 54.378906 22.910156 C 52.667969 16.304688 48.703125 11.882812 41.613281 11.882812 C 38.128906 11.882812 34.777344 13.25 31.6875 15.976562 C 28.777344 13.382812 25.578125 11.882812 21.746094 11.882812 Z M 20.929688 21.855469 C 25.160156 21.855469 26.714844 28.015625 26.675781 33.503906 L 26.675781 36.519531 C 23.359375 36.148438 20.183594 35.445312 17.09375 34.445312 L 17.09375 22.921875 C 17.09375 22.921875 19.007812 21.886719 20.929688 21.886719 Z M 40.085938 21.855469 C 44.320312 21.855469 45.835938 26.839844 45.835938 33.503906 L 45.835938 34.066406 C 42.617188 35.257812 39.394531 36.140625 36.253906 36.558594 L 36.253906 32.839844 C 36.207031 30.097656 36.324219 27.257812 35.652344 24.363281 C 35.652344 24.363281 38.066406 21.863281 40.09375 21.863281 Z M 40.085938 21.855469 "/><path style=" stroke:none;fill-rule:nonzero;fill:url(#linear0);" d="M 53.171875 23.601562 C 52.773438 23.902344 52.390625 24.222656 52.03125 24.609375 C 51.429688 25.253906 51.53125 26.144531 52.195312 26.023438 C 52.519531 25.957031 52.984375 25.882812 53.40625 25.808594 C 53.34375 25.058594 53.273438 24.320312 53.171875 23.59375 Z M 5.65625 28.835938 L 5.65625 31.605469 C 8.601562 34.25 11.800781 36.367188 15.230469 37.96875 L 15.230469 33.628906 C 11.898438 32.386719 8.695312 30.785156 5.65625 28.8125 Z M 53.554688 30.566406 C 50.433594 32.128906 47.191406 33.53125 43.972656 34.605469 L 43.972656 39.394531 C 47.34375 38.097656 50.601562 36.300781 53.554688 34.109375 Z M 24.8125 36.125 L 24.8125 41.015625 C 27.304688 41.460938 29.855469 41.695312 32.476562 41.695312 C 33.109375 41.695312 33.75 41.664062 34.394531 41.621094 L 34.394531 36.628906 C 33.75 36.675781 33.109375 36.710938 32.476562 36.710938 C 29.855469 36.710938 27.304688 36.515625 24.8125 36.132812 Z M 24.8125 36.125 "/><path style=" stroke:none;fill-rule:nonzero;fill:url(#linear0);" d="M 24.8125 31.085938 C 24.847656 25.621094 23.304688 19.4375 19.066406 19.4375 C 17.152344 19.4375 15.230469 20.476562 15.230469 20.476562 L 15.230469 54.394531 L 5.65625 54.394531 L 5.65625 11.992188 C 10.347656 10.414062 15.230469 9.5 19.890625 9.5 C 23.71875 9.5 26.941406 10.976562 29.832031 13.585938 C 32.917969 10.867188 36.269531 9.5 39.753906 9.5 C 49.757812 9.5 53.554688 18.328125 53.554688 29.601562 L 53.554688 54.394531 L 43.972656 54.394531 L 43.972656 31.121094 C 43.972656 24.464844 42.46875 19.476562 38.222656 19.476562 C 36.195312 19.476562 33.777344 21.964844 33.777344 21.964844 C 34.457031 24.835938 34.339844 27.703125 34.382812 30.449219 L 34.382812 54.394531 L 24.808594 54.394531 Z M 24.8125 31.085938 "/></g></svg>
