<svg xmlns="http://www.w3.org/2000/svg" xmlns:xlink="http://www.w3.org/1999/xlink" width="64" height="64" viewBox="0 0 64 64" version="1.1"><defs><linearGradient id="linear0" x1="0%" x2="0%" y1="0%" y2="100%"><stop offset="0%" style="stop-color:#00b54e; stop-opacity:1"/><stop offset="50%" style="stop-color:#ffd000; stop-opacity:1"/><stop offset="100%" style="stop-color:#ff00bb; stop-opacity:1"/></linearGradient></defs><g id="surface1"><path style=" stroke:none;fill-rule:nonzero;fill:url(#linear0);" d="M 21.09375 1.554688 L 21.105469 1.566406 C 20.542969 1.589844 20.210938 2.183594 20.503906 2.640625 L 22.824219 6.488281 C 18.230469 9.128906 15.492188 13.453125 15.492188 18.074219 L 49.816406 18.074219 C 49.804688 13.453125 47.070312 9.132812 42.476562 6.496094 L 44.808594 2.640625 C 45.097656 2.171875 44.753906 1.570312 44.183594 1.566406 C 43.910156 1.5625 43.660156 1.703125 43.523438 1.933594 L 41.171875 5.8125 C 38.578125 4.582031 35.632812 3.917969 32.640625 3.914062 C 29.648438 3.914062 26.710938 4.578125 24.117188 5.800781 L 21.769531 1.921875 C 21.632812 1.683594 21.375 1.542969 21.09375 1.554688 Z M 24.066406 10.988281 C 24.746094 10.988281 25.296875 11.515625 25.296875 12.167969 C 25.296875 12.820312 24.746094 13.347656 24.066406 13.347656 C 23.386719 13.347656 22.84375 12.820312 22.84375 12.167969 C 22.84375 11.515625 23.386719 10.988281 24.066406 10.988281 Z M 41.230469 10.988281 C 41.910156 10.988281 42.457031 11.515625 42.457031 12.167969 C 42.457031 12.820312 41.910156 13.347656 41.230469 13.347656 C 40.554688 13.347656 40.007812 12.820312 40.007812 12.167969 C 40.007812 11.515625 40.554688 10.988281 41.230469 10.988281 Z M 9.355469 20.417969 C 7.320312 20.417969 5.675781 21.996094 5.675781 23.960938 L 5.675781 40.460938 C 5.675781 42.425781 7.320312 44 9.355469 44 C 11.394531 44 13.03125 42.425781 13.03125 40.460938 L 13.03125 23.960938 C 13.03125 21.996094 11.394531 20.417969 9.355469 20.417969 Z M 15.488281 20.417969 L 15.488281 46.359375 C 15.488281 48.972656 17.671875 51.074219 20.390625 51.074219 L 22.84375 51.074219 L 22.84375 59.332031 C 22.84375 61.285156 24.484375 62.863281 26.519531 62.863281 C 28.5625 62.863281 30.199219 61.285156 30.199219 59.332031 L 30.199219 51.074219 L 35.105469 51.074219 L 35.105469 59.332031 C 35.105469 61.285156 36.742188 62.863281 38.78125 62.863281 C 40.816406 62.863281 42.457031 61.285156 42.457031 59.332031 L 42.457031 51.074219 L 44.910156 51.074219 C 47.628906 51.074219 49.8125 48.972656 49.8125 46.359375 L 49.8125 20.417969 Z M 55.949219 20.417969 C 53.90625 20.417969 52.265625 21.996094 52.265625 23.960938 L 52.265625 40.460938 C 52.265625 42.425781 53.90625 44 55.949219 44 C 57.980469 44 59.621094 42.425781 59.621094 40.460938 L 59.621094 23.960938 C 59.621094 21.996094 57.980469 20.417969 55.949219 20.417969 Z M 27.746094 25.140625 L 27.746094 32.210938 L 37.554688 32.210938 L 37.554688 25.140625 L 47.363281 35.746094 L 37.554688 46.359375 L 37.554688 39.28125 L 27.746094 39.28125 L 27.746094 46.359375 L 17.941406 35.746094 Z M 27.746094 25.140625 "/></g></svg>
