<svg xmlns="http://www.w3.org/2000/svg" xmlns:xlink="http://www.w3.org/1999/xlink" width="64" height="64" viewBox="0 0 64 64" version="1.1"><defs><linearGradient id="linear0" x1="0%" x2="0%" y1="0%" y2="100%"><stop offset="0%" style="stop-color:#ff0000; stop-opacity:1"/><stop offset="50%" style="stop-color:#ffd000; stop-opacity:1"/><stop offset="100%" style="stop-color:#0073ff; stop-opacity:1"/></linearGradient></defs><g id="surface1"><path style=" stroke:none;fill-rule:evenodd;fill:url(#linear0);" d="M 58.792969 24.574219 L 58.792969 39.472656 C 58.792969 41.582031 57.125 43.285156 55.054688 43.285156 C 52.996094 43.285156 51.320312 41.578125 51.320312 39.472656 L 51.320312 24.574219 C 51.320312 22.472656 52.980469 20.761719 55.054688 20.761719 C 57.125 20.761719 58.792969 22.476562 58.792969 24.574219 Z M 9.925781 20.761719 C 7.863281 20.761719 6.195312 22.476562 6.195312 24.574219 L 6.195312 39.464844 C 6.195312 41.574219 7.863281 43.285156 9.925781 43.285156 C 12.007812 43.285156 13.667969 41.574219 13.667969 39.464844 L 13.667969 24.574219 C 13.675781 23.574219 13.289062 22.605469 12.585938 21.886719 C 11.882812 21.175781 10.925781 20.769531 9.925781 20.761719 Z M 15.917969 48.082031 C 15.917969 49.707031 17.234375 51.011719 18.839844 51.011719 L 22.179688 51.011719 L 22.179688 59.308594 C 22.179688 61.410156 23.855469 63.113281 25.914062 63.113281 C 27.988281 63.113281 29.65625 61.410156 29.65625 59.308594 L 29.65625 51.011719 L 35.476562 51.011719 L 35.476562 59.308594 C 35.476562 61.410156 37.15625 63.113281 39.21875 63.113281 C 41.289062 63.113281 42.957031 61.410156 42.957031 59.308594 L 42.957031 51.011719 L 46.296875 51.011719 C 47.070312 51.011719 47.8125 50.707031 48.359375 50.15625 C 48.90625 49.609375 49.210938 48.867188 49.210938 48.089844 L 49.210938 20.875 L 15.917969 20.875 Z M 49.128906 18.460938 L 15.847656 18.460938 C 16.28125 13.390625 19.710938 9.066406 24.605469 6.78125 L 21.53125 2.304688 C 21.34375 2.035156 21.386719 1.683594 21.621094 1.515625 C 21.863281 1.363281 22.207031 1.4375 22.398438 1.699219 L 25.585938 6.355469 C 27.785156 5.492188 30.132812 5.050781 32.496094 5.058594 C 34.855469 5.054688 37.203125 5.496094 39.402344 6.355469 L 42.589844 1.703125 C 42.78125 1.4375 43.125 1.363281 43.367188 1.515625 C 43.597656 1.683594 43.644531 2.035156 43.460938 2.296875 L 40.382812 6.78125 C 45.269531 9.066406 48.710938 13.390625 49.136719 18.460938 Z M 27.320312 11.984375 C 27.316406 11.496094 27.125 11.023438 26.777344 10.679688 C 26.429688 10.335938 25.960938 10.140625 25.476562 10.144531 C 24.460938 10.140625 23.636719 10.964844 23.628906 11.976562 C 23.628906 13.007812 24.453125 13.835938 25.476562 13.835938 C 26.496094 13.835938 27.320312 13.007812 27.320312 11.976562 Z M 41.585938 11.984375 C 41.585938 11.496094 41.394531 11.023438 41.046875 10.679688 C 40.699219 10.335938 40.230469 10.140625 39.746094 10.144531 C 39 10.144531 38.328125 10.597656 38.039062 11.289062 C 37.757812 11.976562 37.917969 12.773438 38.445312 13.304688 C 38.96875 13.832031 39.769531 13.984375 40.449219 13.695312 C 41.140625 13.402344 41.585938 12.730469 41.582031 11.976562 Z M 41.585938 11.984375 "/></g></svg>
