<svg xmlns="http://www.w3.org/2000/svg" xmlns:xlink="http://www.w3.org/1999/xlink" width="64" height="64" viewBox="0 0 64 64" version="1.1"><defs><linearGradient id="linear0" x1="0%" x2="100%" y1="0%" y2="100%"><stop offset="0%" style="stop-color:#00b54e; stop-opacity:1"/><stop offset="100%" style="stop-color:#0073ff; stop-opacity:1"/></linearGradient></defs><g id="surface1"><path style=" stroke:none;fill-rule:nonzero;fill:url(#linear0);" d="M 19.445312 16.925781 L 54.644531 16.925781 C 59.265625 16.925781 63.015625 20.757812 63.015625 25.484375 L 63.015625 39.660156 C 63.015625 44.386719 59.265625 48.226562 54.644531 48.226562 L 19.445312 48.226562 C 14.824219 48.226562 11.074219 44.386719 11.074219 39.660156 L 11.074219 25.484375 C 11.074219 20.757812 14.824219 16.925781 19.445312 16.925781 Z M 19.445312 16.925781 "/><path style=" stroke:none;fill-rule:nonzero;fill:url(#linear0);" d="M 20.636719 16.925781 C 14.195312 16.945312 7.761719 16.964844 1.328125 16.980469 C 0.621094 17 -0.722656 16.953125 0.722656 18.421875 C 7.6875 25.6875 13.886719 25.882812 20.390625 28.914062 C 20.472656 24.914062 20.554688 20.921875 20.636719 16.925781 Z M 20.636719 16.925781 "/></g></svg>
