<svg xmlns="http://www.w3.org/2000/svg" xmlns:xlink="http://www.w3.org/1999/xlink" width="64" height="64" viewBox="0 0 64 64" version="1.1"><defs><linearGradient id="linear0" x1="0%" x2="100%" y1="0%" y2="100%"><stop offset="0%" style="stop-color:#e5ff00; stop-opacity:1"/><stop offset="50%" style="stop-color:#0073ff; stop-opacity:1"/><stop offset="100%" style="stop-color:#ff0000; stop-opacity:1"/></linearGradient></defs><g id="surface1"><path style=" stroke:none;fill-rule:nonzero;fill:url(#linear0);" d="M 60.710938 63.003906 C 61.667969 63.003906 62.445312 62.054688 62.445312 60.875 L 62.445312 24.761719 C 62.445312 23.582031 61.667969 22.632812 60.710938 22.632812 L 50.300781 22.632812 L 50.300781 52.375 C 50.300781 53.554688 49.519531 54.503906 48.566406 54.503906 L 31.210938 54.503906 C 30.253906 54.503906 29.480469 53.554688 29.480469 52.375 L 29.480469 22.632812 L 19.070312 22.632812 C 18.105469 22.632812 17.332031 23.582031 17.332031 24.761719 L 17.332031 60.875 C 17.332031 62.054688 18.105469 63.003906 19.070312 63.003906 Z M 60.710938 63.003906 "/><path style=" stroke:none;fill-rule:nonzero;fill:url(#linear0);" d="M 13.855469 22.675781 L 13.855469 41.796875 L 29.472656 22.675781 Z M 13.855469 22.675781 "/><path style=" stroke:none;fill-rule:nonzero;fill:url(#linear0);" d="M 3.445312 1.417969 C 2.480469 1.417969 1.707031 2.359375 1.707031 3.539062 L 1.707031 39.652344 C 1.707031 40.832031 2.480469 41.78125 3.445312 41.78125 L 13.855469 41.78125 L 13.855469 12.039062 C 13.855469 10.859375 14.628906 9.910156 15.59375 9.910156 L 32.945312 9.910156 C 33.90625 9.910156 34.679688 10.859375 34.679688 12.039062 L 34.679688 41.78125 L 45.085938 41.78125 C 46.050781 41.78125 46.824219 40.832031 46.824219 39.652344 L 46.824219 3.539062 C 46.824219 2.359375 46.050781 1.417969 45.085938 1.417969 Z M 3.445312 1.417969 "/></g></svg>
