<svg xmlns="http://www.w3.org/2000/svg" xmlns:xlink="http://www.w3.org/1999/xlink" width="64" height="64" viewBox="0 0 64 64" version="1.1"><defs><linearGradient id="linear0" x1="100%" x2="0%" y1="100%" y2="0%"><stop offset="0%" style="stop-color:#00b54e; stop-opacity:1"/><stop offset="100%" style="stop-color:#ff0000; stop-opacity:1"/></linearGradient></defs><g id="surface1"><path style=" stroke:none;fill-rule:nonzero;fill:url(#linear0);" d="M 55.910156 1.878906 C 52.023438 1.878906 48.875 4.703125 48.875 8.183594 C 48.875 11.660156 52.023438 14.488281 55.910156 14.488281 C 59.792969 14.488281 62.949219 11.660156 62.949219 8.183594 C 62.949219 4.703125 59.792969 1.878906 55.910156 1.878906 Z M 15.082031 9.441406 C 13.722656 9.464844 12.574219 10.351562 12.347656 11.550781 L 9.683594 25.875 L 1.882812 32.863281 C 1.285156 33.394531 0.984375 34.140625 1.070312 34.894531 C 1.152344 35.644531 1.609375 36.324219 2.3125 36.746094 L 9.6875 41.160156 L 12.34375 60.199219 C 12.492188 61.265625 13.386719 62.132812 14.554688 62.351562 C 15.734375 62.574219 16.9375 62.105469 17.550781 61.179688 L 24.929688 50.1875 L 45.429688 54.773438 C 46.523438 55.019531 47.679688 54.65625 48.363281 53.847656 C 49.046875 53.042969 49.121094 51.945312 48.550781 51.066406 L 38.082031 34.671875 L 48.550781 18.285156 C 49.125 17.390625 49.035156 16.285156 48.332031 15.476562 C 47.625 14.667969 46.445312 14.320312 45.34375 14.601562 L 27.242188 19.238281 L 17.15625 10.214844 C 16.621094 9.726562 15.882812 9.464844 15.121094 9.476562 Z M 17.003906 17.214844 L 24.40625 23.84375 C 25.132812 24.492188 26.191406 24.734375 27.175781 24.488281 L 40.238281 21.15625 L 32.410156 33.4375 C 31.917969 34.214844 31.917969 35.164062 32.410156 35.941406 L 40.410156 48.449219 L 24.273438 44.839844 C 23.070312 44.570312 21.8125 45.039062 21.179688 45.996094 L 16.925781 52.351562 L 15.121094 39.414062 C 15.019531 38.683594 14.566406 38.035156 13.882812 37.628906 L 8.3125 34.296875 L 14.335938 28.90625 C 14.75 28.53125 15.023438 28.050781 15.121094 27.53125 Z M 17.003906 17.214844 "/></g></svg>
