<svg xmlns="http://www.w3.org/2000/svg" xmlns:xlink="http://www.w3.org/1999/xlink" width="64" height="64" viewBox="0 0 64 64" version="1.1"><defs><linearGradient id="linear0" x1="0%" x2="100%" y1="0%" y2="100%"><stop offset="0%" style="stop-color:#6a00ff; stop-opacity:1"/><stop offset="50%" style="stop-color:#e0dd02; stop-opacity:1"/><stop offset="100%" style="stop-color:#00b54e; stop-opacity:1"/></linearGradient></defs><g id="surface1"><path style=" stroke:none;fill-rule:nonzero;fill:url(#linear0);" d="M 28.242188 2.082031 L 22.816406 15.472656 C 10.007812 17.910156 1.277344 25.203125 1.277344 33.464844 C 1.277344 38.433594 4.464844 43.207031 10.144531 46.734375 L 3.824219 62.339844 L 17.816406 62.339844 L 21.933594 51.285156 C 25.109375 51.953125 28.457031 52.292969 31.820312 52.292969 C 48.695312 52.292969 62.363281 43.863281 62.363281 33.464844 C 62.359375 28.878906 59.644531 24.453125 54.71875 21.011719 C 54.726562 20.976562 54.726562 20.941406 54.726562 20.910156 C 54.726562 18.832031 53.019531 17.140625 50.910156 17.140625 C 48.804688 17.140625 47.089844 18.832031 47.089844 20.910156 C 47.089844 22.992188 48.804688 24.675781 50.910156 24.675781 C 51.707031 24.675781 52.476562 24.429688 53.128906 23.976562 C 55.828125 26.425781 57.273438 29.28125 57.273438 32.207031 C 57.273438 40.527344 45.878906 47.273438 31.820312 47.273438 C 29.0625 47.273438 26.320312 47.011719 23.710938 46.492188 L 31.820312 24.675781 L 39.039062 44.09375 C 43.113281 43.320312 46.652344 41.949219 49.289062 40.222656 C 49.617188 40.007812 49.90625 39.792969 50.199219 39.566406 L 34.367188 2.082031 Z M 21.632812 18.40625 L 12.15625 41.769531 C 8.414062 39.082031 6.367188 35.699219 6.367188 32.207031 C 6.367188 26.222656 12.355469 20.800781 21.632812 18.40625 Z M 54.265625 49.191406 C 50.914062 51.179688 46.957031 52.699219 42.589844 53.65625 L 45.820312 62.339844 L 59.820312 62.339844 Z M 54.265625 49.191406 "/></g></svg>
