<svg xmlns="http://www.w3.org/2000/svg" xmlns:xlink="http://www.w3.org/1999/xlink" width="64" height="64" viewBox="0 0 64 64" version="1.1"><defs><linearGradient id="linear0" x1="0%" x2="100%" y1="0%" y2="100%"><stop offset="0%" style="stop-color:#ff0000; stop-opacity:1"/><stop offset="100%" style="stop-color:#6a00ff; stop-opacity:1"/></linearGradient></defs><g id="surface1"><path style=" stroke:none;fill-rule:nonzero;fill:url(#linear0);" d="M 26.316406 1.089844 C 25.691406 1.089844 25.296875 1.582031 25.183594 2.191406 L 23.960938 9.027344 C 20.875 10.03125 18.023438 11.621094 15.5625 13.695312 L 8.902344 11.320312 C 8.308594 11.109375 7.664062 11.191406 7.34375 11.722656 L 1.6875 21.253906 C 1.375 21.773438 1.558594 22.441406 2.105469 22.746094 L 7.597656 27.207031 C 7.269531 28.738281 7.066406 30.304688 7.066406 31.882812 C 7.066406 33.460938 7.269531 35.042969 7.597656 36.597656 L 2.109375 41.046875 C 1.570312 41.351562 1.378906 42.027344 1.699219 42.550781 L 7.359375 52.078125 C 7.671875 52.597656 8.316406 52.6875 8.90625 52.476562 L 15.597656 50.097656 C 18.050781 52.152344 20.886719 53.730469 23.960938 54.730469 L 25.1875 61.574219 C 25.296875 62.175781 25.691406 62.667969 26.316406 62.667969 L 37.644531 62.667969 C 38.265625 62.667969 38.777344 62.179688 38.777344 61.574219 L 39.996094 54.730469 C 43.082031 53.726562 45.9375 52.140625 48.390625 50.066406 L 55.058594 52.4375 C 55.605469 52.746094 56.292969 52.566406 56.613281 52.039062 L 62.269531 42.515625 C 62.585938 41.984375 62.339844 41.40625 61.855469 41.011719 L 56.367188 36.5625 C 56.699219 35.023438 56.886719 33.453125 56.890625 31.882812 C 56.902344 30.308594 56.738281 28.738281 56.425781 27.195312 L 61.867188 22.785156 C 62.347656 22.398438 62.589844 21.808594 62.28125 21.285156 L 56.621094 11.757812 C 56.304688 11.230469 55.609375 11.050781 55.074219 11.351562 L 48.429688 13.71875 C 45.964844 11.609375 43.09375 10 39.992188 8.984375 L 38.777344 2.191406 C 38.777344 1.578125 38.265625 1.089844 37.644531 1.089844 Z M 26.316406 1.089844 "/><path style=" stroke:none;fill-rule:nonzero;fill:rgb(97.254902%,97.254902%,97.254902%);fill-opacity:1;" d="M 28.203125 17.304688 C 27.578125 17.304688 27.074219 17.796875 27.074219 18.410156 L 27.074219 37.101562 L 20.277344 37.101562 L 31.597656 50.296875 L 42.925781 37.101562 L 36.128906 37.101562 L 36.128906 18.410156 C 36.128906 17.796875 35.625 17.304688 34.992188 17.304688 Z M 28.203125 17.304688 "/></g></svg>
