<svg xmlns="http://www.w3.org/2000/svg" xmlns:xlink="http://www.w3.org/1999/xlink" width="64" height="64" viewBox="0 0 64 64" version="1.1"><defs><linearGradient id="linear0" x1="0%" x2="0%" y1="0%" y2="100%"><stop offset="0%" style="stop-color:#ff0000; stop-opacity:1"/><stop offset="50%" style="stop-color:#ffd000; stop-opacity:1"/><stop offset="100%" style="stop-color:#0073ff; stop-opacity:1"/></linearGradient></defs><g id="surface1"><path style=" stroke:none;fill-rule:evenodd;fill:url(#linear0);" d="M 32.242188 2.386719 C 29.519531 8.976562 27.871094 13.28125 24.835938 19.667969 C 26.699219 21.613281 28.980469 23.878906 32.6875 26.433594 C 28.707031 24.820312 25.984375 23.199219 23.945312 21.507812 C 20.0625 29.5 13.980469 40.875 1.628906 62.742188 C 11.335938 57.21875 18.863281 53.8125 25.875 52.515625 C 25.570312 51.242188 25.398438 49.859375 25.417969 48.421875 L 25.425781 48.117188 C 25.574219 41.984375 28.8125 37.273438 32.644531 37.59375 C 36.476562 37.910156 39.457031 43.144531 39.300781 49.269531 C 39.273438 50.425781 39.140625 51.535156 38.910156 52.5625 C 45.84375 53.902344 53.289062 57.296875 62.863281 62.742188 C 60.976562 59.316406 59.289062 56.230469 57.683594 53.289062 C 55.148438 51.355469 52.5 48.832031 47.109375 46.105469 C 50.816406 47.054688 53.464844 48.152344 55.539062 49.375 C 39.175781 19.347656 37.851562 15.363281 32.242188 2.386719 Z M 32.242188 2.386719 "/></g></svg>
