<svg xmlns="http://www.w3.org/2000/svg" xmlns:xlink="http://www.w3.org/1999/xlink" width="64" height="64" viewBox="0 0 64 64" version="1.1"><defs><linearGradient id="linear0" x1="0%" x2="100%" y1="0%" y2="100%"><stop offset="0%" style="stop-color:#00b54e; stop-opacity:1"/><stop offset="100%" style="stop-color:#0073ff; stop-opacity:1"/></linearGradient></defs><g id="surface1"><path style=" stroke:none;fill-rule:nonzero;fill:url(#linear0);" d="M 38.945312 62.390625 L 62.28125 52.996094 L 55.132812 47.980469 C 55.847656 45.511719 56.234375 42.929688 56.234375 40.164062 C 56.234375 27.164062 47.644531 16.589844 37.042969 16.589844 C 34.964844 16.589844 32.960938 17.066406 31.085938 17.816406 C 38.78125 20.882812 44.375 29.710938 44.375 40.164062 C 44.375 40.230469 44.375 40.265625 44.375 40.339844 L 33.941406 32.980469 L 38.945312 62.390625 M 27.324219 48.445312 C 29.398438 48.445312 31.402344 47.964844 33.277344 47.222656 C 25.578125 44.15625 19.988281 35.328125 19.988281 24.875 C 19.988281 24.804688 19.988281 24.765625 19.988281 24.707031 L 30.417969 32.050781 L 25.414062 2.648438 L 2.078125 12.046875 L 9.21875 17.0625 C 8.503906 19.519531 8.128906 22.113281 8.128906 24.875 C 8.128906 37.878906 16.707031 48.449219 27.320312 48.449219 "/></g></svg>
