<svg xmlns="http://www.w3.org/2000/svg" xmlns:xlink="http://www.w3.org/1999/xlink" width="64" height="64" viewBox="0 0 64 64" version="1.1"><defs><linearGradient id="linear0" x1="0%" x2="100%" y1="0%" y2="100%"><stop offset="0%" style="stop-color:#ff0000; stop-opacity:1"/><stop offset="50%" style="stop-color:#ffd000; stop-opacity:1"/><stop offset="100%" style="stop-color:#ff00bb; stop-opacity:1"/></linearGradient></defs><g id="surface1"><path style=" stroke:none;fill-rule:evenodd;fill:url(#linear0);" d="M 12.65625 10.226562 C 0.789062 10.226562 0.734375 24.09375 0.734375 24.09375 L 0.734375 39.859375 C 0.734375 42.824219 2.617188 46.773438 4.441406 48.753906 C 7.664062 52.242188 9.898438 51.746094 9.898438 51.746094 C 9.898438 51.746094 9.929688 52.722656 10.839844 55.683594 C 11.753906 58.648438 14.4375 60.648438 17.179688 60.648438 C 19.910156 60.648438 20.878906 59.628906 20.878906 59.628906 L 20.878906 55.683594 C 20.878906 55.683594 19.9375 55.722656 18.117188 54.738281 C 16.289062 53.746094 16.292969 51.746094 16.292969 51.746094 C 16.292969 51.746094 19.015625 50.773438 21.753906 47.804688 C 24.492188 44.84375 24.511719 39.859375 24.511719 39.859375 L 24.511719 25.035156 C 24.511719 25.035156 24.523438 10.226562 12.65625 10.226562 M 30.730469 12.261719 L 27.96875 20.144531 L 26.144531 20.144531 L 26.144531 24.09375 L 27.96875 24.09375 L 27.96875 44.882812 C 27.96875 44.882812 27.980469 49.777344 32.542969 49.777344 C 37.101562 49.777344 38.007812 47.804688 38.007812 47.804688 L 38.007812 44 C 37.917969 44.28125 37.554688 44.882812 36.1875 44.882812 C 34.359375 44.882812 33.488281 42.910156 33.488281 42.910156 L 33.488281 24.09375 L 38.007812 24.09375 L 38.007812 20.148438 L 33.488281 20.148438 L 33.488281 12.273438 L 30.730469 12.273438 M 13.222656 15.191406 C 17.785156 15.191406 17.804688 20.085938 17.804688 20.085938 L 17.804688 39.859375 C 17.804688 39.859375 17.785156 46.789062 13.222656 46.789062 C 8.660156 46.789062 8.644531 39.859375 8.644531 39.859375 L 8.644531 21.097656 C 8.644531 21.097656 8.660156 15.191406 13.222656 15.191406 "/><path style=" stroke:none;fill-rule:nonzero;fill:url(#linear0);" d="M 56.886719 40.242188 L 49.765625 40.242188 L 49.765625 39.183594 C 49.765625 38.019531 49.984375 36.980469 50.414062 36.074219 C 50.851562 35.164062 51.761719 34.011719 53.15625 32.613281 L 54.417969 31.367188 C 55.164062 30.621094 55.714844 29.929688 56.066406 29.269531 C 56.414062 28.613281 56.589844 27.957031 56.589844 27.300781 C 56.589844 26.300781 56.277344 25.519531 55.640625 24.957031 C 55.011719 24.386719 54.125 24.109375 52.996094 24.109375 C 51.929688 24.109375 50.785156 24.347656 49.546875 24.828125 C 48.3125 25.304688 47.019531 26.011719 45.679688 26.953125 L 45.679688 20.230469 C 47.265625 19.632812 48.722656 19.183594 50.039062 18.90625 C 51.355469 18.617188 52.625 18.476562 53.847656 18.476562 C 57.054688 18.476562 59.507812 19.183594 61.1875 20.609375 C 62.871094 22.03125 63.714844 24.097656 63.714844 26.832031 C 63.714844 28.226562 63.457031 29.480469 62.945312 30.589844 C 62.433594 31.691406 61.558594 32.882812 60.320312 34.15625 L 59.058594 35.371094 C 58.164062 36.265625 57.582031 36.96875 57.300781 37.507812 C 57.023438 38.039062 56.886719 38.625 56.886719 39.277344 Z M 49.765625 43.40625 L 56.886719 43.40625 L 56.886719 51.035156 L 49.765625 51.035156 Z M 42.898438 10.3125 "/></g></svg>
