<svg xmlns="http://www.w3.org/2000/svg" xmlns:xlink="http://www.w3.org/1999/xlink" width="64" height="64" viewBox="0 0 64 64" version="1.1"><defs><linearGradient id="linear0" x1="100%" x2="0%" y1="100%" y2="0%"><stop offset="0%" style="stop-color:#00b54e; stop-opacity:1"/><stop offset="100%" style="stop-color:#ff0000; stop-opacity:1"/></linearGradient></defs><g id="surface1"><path style=" stroke:none;fill-rule:nonzero;fill:url(#linear0);" d="M 31.730469 1.707031 L 28.070312 9.40625 L 29.046875 11.445312 C 23.140625 11.808594 24.300781 12.910156 24.300781 12.910156 C 24.300781 12.910156 17.496094 14.066406 17.496094 14.929688 L 17.496094 15 C 16.128906 15.609375 14.789062 16.453125 13.503906 17.367188 C -3.621094 38.425781 14.703125 43.296875 10.640625 55.523438 C 9.761719 58.179688 6.074219 62.691406 6.074219 62.691406 C 6.074219 62.691406 13.5 63.539062 16.570312 55.578125 C 19.050781 49.144531 10.640625 36.203125 16.910156 30.414062 C 25.796875 22.207031 32.394531 39.117188 29.613281 41.464844 C 26.777344 43.8125 27.484375 44.449219 27.484375 44.449219 L 31.691406 52.222656 L 35.871094 44.449219 C 35.871094 44.449219 36.597656 43.8125 33.773438 41.464844 C 30.964844 39.117188 37.578125 22.1875 46.449219 30.414062 C 52.742188 36.222656 44.308594 49.144531 46.8125 55.578125 C 49.878906 63.527344 57.308594 62.691406 57.308594 62.691406 C 57.308594 62.691406 53.644531 58.144531 52.738281 55.523438 C 48.675781 43.320312 66.945312 38.441406 49.835938 17.367188 C 48.554688 16.484375 47.210938 15.628906 45.875 15.023438 L 45.875 14.945312 C 45.875 14.066406 39.082031 12.929688 39.082031 12.929688 C 39.082031 12.929688 40.25 11.832031 34.3125 11.460938 L 35.277344 9.425781 L 31.632812 1.722656 "/></g></svg>
