<svg xmlns="http://www.w3.org/2000/svg" xmlns:xlink="http://www.w3.org/1999/xlink" width="64" height="64" viewBox="0 0 64 64" version="1.1"><defs><linearGradient id="linear0" x1="0%" x2="100%" y1="0%" y2="100%"><stop offset="0%" style="stop-color:#00b54e; stop-opacity:1"/><stop offset="100%" style="stop-color:#0073ff; stop-opacity:1"/></linearGradient></defs><g id="surface1"><path style=" stroke:none;fill-rule:nonzero;fill:url(#linear0);" d="M 31.832031 1.445312 C 31.121094 1.445312 30.441406 1.800781 30.035156 2.390625 L 6.042969 37.496094 C 5.425781 38.402344 5.566406 39.632812 6.375 40.367188 L 30.371094 62.304688 C 31.203125 63.0625 32.460938 63.0625 33.289062 62.304688 L 57.28125 40.367188 C 58.09375 39.632812 58.238281 38.402344 57.617188 37.496094 L 33.625 2.390625 C 33.210938 1.800781 32.542969 1.445312 31.828125 1.445312 Z M 29.652344 10.703125 L 29.652344 30.246094 C 27.386719 30.835938 25.464844 32.308594 24.285156 34.347656 L 26.945312 34.347656 C 28.183594 32.957031 29.957031 32.15625 31.816406 32.15625 C 32.554688 32.15625 33.289062 32.289062 33.996094 32.542969 L 33.996094 10.691406 L 51.660156 36.578125 L 40.257812 36.578125 C 39.667969 34.296875 38.199219 32.367188 36.171875 31.175781 L 36.171875 33.859375 C 37.558594 35.105469 38.351562 36.882812 38.355469 38.75 C 38.351562 39.496094 38.222656 40.238281 37.972656 40.9375 L 50.164062 40.9375 L 34 55.726562 L 34 47.234375 C 36.269531 46.644531 38.191406 45.175781 39.367188 43.136719 L 36.710938 43.136719 C 35.46875 44.527344 33.695312 45.328125 31.839844 45.328125 C 31.097656 45.328125 30.363281 45.195312 29.664062 44.945312 L 29.664062 55.734375 L 13.5 40.949219 L 23.421875 40.949219 C 24.011719 43.234375 25.476562 45.160156 27.5 46.347656 L 27.5 43.667969 C 26.113281 42.421875 25.324219 40.644531 25.324219 38.78125 C 25.324219 38.027344 25.457031 37.289062 25.703125 36.585938 L 12.003906 36.585938 L 29.675781 10.703125 Z M 29.652344 10.703125 "/></g></svg>
