<svg xmlns="http://www.w3.org/2000/svg" xmlns:xlink="http://www.w3.org/1999/xlink" width="64" height="64" viewBox="0 0 64 64" version="1.1"><defs><linearGradient id="linear0" x1="0%" x2="100%" y1="0%" y2="100%"><stop offset="0%" style="stop-color:#6a00ff; stop-opacity:1"/><stop offset="50%" style="stop-color:#e0dd02; stop-opacity:1"/><stop offset="100%" style="stop-color:#00b54e; stop-opacity:1"/></linearGradient></defs><g id="surface1"><path style=" stroke:none;fill-rule:nonzero;fill:url(#linear0);" d="M 26.246094 1.851562 C 21.996094 1.851562 18.554688 4.21875 18.554688 7.132812 C 18.675781 8.222656 19.371094 9.597656 19.734375 10.070312 C 21.511719 12.421875 21.511719 13.882812 21.070312 14.769531 L 6.71875 14.769531 C 4.105469 14.769531 1.988281 16.867188 1.988281 19.46875 L 1.988281 31.359375 C 2.878906 31.800781 4.355469 31.800781 6.71875 30.042969 C 7.199219 29.671875 8.582031 28.988281 9.679688 28.863281 C 12.621094 28.863281 15.003906 32.285156 15.003906 36.5 C 15.003906 40.714844 12.621094 44.128906 9.679688 44.128906 C 8.78125 44.113281 7.40625 43.316406 6.71875 42.957031 C 4.355469 41.191406 2.878906 41.191406 1.988281 41.640625 L 1.988281 57.054688 C 1.988281 59.65625 4.105469 61.75 6.71875 61.75 L 25.800781 61.75 C 26.246094 60.875 26.246094 59.398438 24.472656 57.054688 C 24.105469 56.582031 23.40625 55.207031 23.285156 54.117188 C 23.285156 51.203125 26.726562 48.832031 30.976562 48.832031 C 35.222656 48.832031 38.671875 51.203125 38.671875 54.117188 C 38.65625 55.015625 37.839844 56.375 37.484375 57.054688 C 35.707031 59.398438 35.707031 60.875 36.148438 61.75 L 44.582031 61.75 C 47.207031 61.75 49.320312 59.65625 49.320312 57.054688 L 49.320312 43.988281 C 50.203125 43.546875 51.683594 43.546875 54.050781 45.308594 C 54.726562 45.664062 56.105469 46.464844 57 46.480469 C 59.945312 46.480469 62.328125 43.070312 62.328125 38.851562 C 62.328125 34.632812 59.945312 31.214844 57 31.214844 C 55.910156 31.339844 54.519531 32.023438 54.050781 32.390625 C 51.683594 34.152344 50.203125 34.152344 49.320312 33.707031 L 49.320312 19.46875 C 49.320312 16.867188 47.207031 14.769531 44.582031 14.769531 L 31.417969 14.769531 C 30.976562 13.894531 30.976562 12.421875 32.753906 10.070312 C 33.117188 9.390625 33.917969 8.03125 33.933594 7.132812 C 33.933594 4.21875 30.492188 1.851562 26.246094 1.851562 "/></g></svg>
