<svg xmlns="http://www.w3.org/2000/svg" xmlns:xlink="http://www.w3.org/1999/xlink" width="64" height="64" viewBox="0 0 64 64" version="1.1"><defs><linearGradient id="linear0" x1="0%" x2="0%" y1="0%" y2="100%"><stop offset="0%" style="stop-color:#24dbdb; stop-opacity:1"/><stop offset="100%" style="stop-color:#174475; stop-opacity:1"/></linearGradient></defs><g id="surface1"><path style=" stroke:none;fill-rule:nonzero;fill:url(#linear0);" d="M 2.628906 14.902344 C 1.933594 14.902344 1.375 15.53125 1.375 16.316406 L 1.375 27.652344 C 1.375 28.433594 1.933594 29.066406 2.628906 29.066406 L 18.269531 29.066406 C 17.230469 31.214844 16.679688 33.660156 16.675781 36.148438 C 16.675781 43.972656 21.941406 50.3125 28.441406 50.3125 C 34.480469 50.308594 39.535156 44.800781 40.144531 37.566406 L 48.449219 37.566406 L 62.566406 50.3125 L 62.566406 44.644531 L 46.089844 29.066406 L 43.738281 29.066406 C 46.242188 29.066406 48.253906 26.878906 48.414062 24.101562 C 49.351562 24.046875 50.089844 23.117188 50.089844 21.984375 C 50.089844 20.847656 49.351562 19.921875 48.414062 19.863281 C 48.253906 17.089844 46.242188 14.902344 43.738281 14.902344 L 2.628906 14.902344 M 20.207031 30.714844 L 20.207031 34.730469 L 19.109375 34.730469 C 19.261719 33.324219 19.632812 31.960938 20.207031 30.714844 M 19.117188 37.566406 L 25.601562 37.566406 L 21.007812 43.09375 C 19.980469 41.484375 19.324219 39.578125 19.117188 37.566406 M 31.28125 37.566406 L 37.773438 37.566406 C 37.558594 39.578125 36.902344 41.484375 35.871094 43.085938 L 31.28125 37.566406 M 27.265625 39.566406 L 27.265625 47.378906 C 25.59375 47.125 24.007812 46.332031 22.675781 45.085938 L 27.265625 39.566406 M 29.617188 39.566406 L 34.210938 45.097656 C 32.875 46.335938 31.289062 47.125 29.617188 47.375 Z M 29.617188 39.566406 "/></g></svg>
