<svg xmlns="http://www.w3.org/2000/svg" xmlns:xlink="http://www.w3.org/1999/xlink" width="64" height="64" viewBox="0 0 64 64" version="1.1"><defs><linearGradient id="linear0" x1="0%" x2="0%" y1="0%" y2="100%"><stop offset="0%" style="stop-color:#00b54e; stop-opacity:1"/><stop offset="50%" style="stop-color:#0073ff; stop-opacity:1"/><stop offset="100%" style="stop-color:#ffd000; stop-opacity:1"/></linearGradient></defs><g id="surface1"><path style="fill-rule:nonzero;fill:url(#linear0);stroke-width:1;stroke-linecap:butt;stroke-linejoin:miter;stroke:url(#linear0);stroke-miterlimit:4;" d="M 970.421532 228.353074 L 967.484341 230.055625 C 963.392531 232.401362 960.86047 236.222644 960.536367 240.724946 C 960.313545 243.392276 963.716635 262.30951 974.087956 316.091207 C 981.684138 355.552557 988.125701 389.017144 988.368779 390.341351 C 988.854935 393.065432 991.265456 396.77321 993.716491 398.475761 C 997.92984 401.407933 994.58752 401.332264 1118.47619 401.199843 L 1236.713301 401.048505 L 1239.630235 399.383789 C 1243.539736 397.132638 1245.889489 393.557281 1246.801031 388.544214 C 1247.20616 386.255228 1253.627467 352.86631 1261.081854 314.369738 C 1271.210097 261.874413 1274.552417 243.411193 1274.309339 240.724946 C 1273.944722 236.222644 1271.453174 232.401362 1267.381621 230.055625 L 1264.44443 228.353074 Z M 1027.828414 265.601108 C 1028.598161 265.544357 1029.347651 265.771364 1030.623809 266.225377 C 1032.143046 266.75506 1034.026899 268.098183 1034.816902 269.157549 C 1036.255112 271.106024 1036.295625 271.74921 1036.49819 313.348208 C 1036.660242 359.033328 1036.660242 359.033328 1033.014075 361.454734 C 1028.760212 364.235568 1023.432757 362.854609 1021.184287 358.352308 C 1020.090436 356.157909 1019.989154 352.582551 1019.989154 314.369738 C 1019.989154 267.454997 1019.786589 269.157549 1025.114045 266.54697 C 1026.369947 265.941619 1027.119437 265.620026 1027.828414 265.601108 Z M 1073.62833 265.601108 C 1074.37782 265.544357 1075.147566 265.771364 1076.423725 266.225377 C 1077.942961 266.75506 1079.806558 268.098183 1080.596561 269.157549 C 1082.014515 271.106024 1082.055028 271.74921 1082.237336 313.348208 C 1082.439901 359.033328 1082.439901 359.033328 1078.753221 361.454734 C 1074.519615 364.235568 1069.212416 362.854609 1066.963946 358.352308 C 1065.849839 356.157909 1065.748556 352.582551 1065.748556 314.369738 C 1065.748556 267.454997 1065.566248 269.157549 1070.873447 266.54697 C 1072.109093 265.941619 1072.858583 265.620026 1073.62833 265.601108 Z M 1116.612593 265.601108 C 1117.341827 265.544357 1118.13183 265.771364 1119.387732 266.225377 C 1120.906969 266.75506 1122.811078 268.098183 1123.601081 269.157549 C 1125.019035 271.106024 1125.059548 271.74921 1125.2216 313.348208 C 1125.444421 359.033328 1125.444421 359.033328 1121.777997 361.454734 C 1117.544392 364.235568 1112.196679 362.854609 1109.968466 358.352308 C 1108.854359 356.157909 1108.73282 352.582551 1108.73282 314.369738 C 1108.73282 267.454997 1108.550512 269.157549 1113.877968 266.54697 C 1115.093357 265.941619 1115.863103 265.620026 1116.612593 265.601108 Z M 1161.703532 265.601108 C 1162.453022 265.544357 1163.222768 265.771364 1164.47867 266.225377 C 1165.997907 266.75506 1167.861504 268.098183 1168.671763 269.157549 C 1170.089717 271.106024 1170.13023 271.74921 1170.332795 313.348208 C 1170.53536 359.033328 1170.53536 359.033328 1166.868936 361.454734 C 1162.594817 364.235568 1157.267361 362.854609 1155.039148 358.352308 C 1153.904785 356.157909 1153.844015 352.582551 1153.844015 314.369738 C 1153.844015 267.454997 1153.64145 269.157549 1158.989163 266.54697 C 1160.204552 265.941619 1160.933785 265.620026 1161.703532 265.601108 Z M 1206.753957 265.601108 C 1207.523704 265.544357 1208.273194 265.771364 1209.529096 266.225377 C 1211.048332 266.75506 1212.952442 268.098183 1213.742445 269.157549 C 1215.180656 271.106024 1215.200912 271.74921 1215.403477 313.348208 C 1215.606042 359.033328 1215.585785 359.033328 1211.919361 361.454734 C 1207.665499 364.235568 1202.338043 362.854609 1200.130086 358.352308 C 1199.01598 356.157909 1198.914697 352.582551 1198.914697 314.369738 C 1198.914697 267.454997 1198.732389 269.157549 1204.039588 266.54697 C 1205.275234 265.941619 1206.024724 265.620026 1206.753957 265.601108 Z M 1206.753957 265.601108 " transform="matrix(0.192839,0,0,0.206492,-183.518383,-20.703773)"/><path style="fill-rule:nonzero;fill:url(#linear0);stroke-width:1;stroke-linecap:butt;stroke-linejoin:miter;stroke:url(#linear0);stroke-miterlimit:4;" d="M 1011.319378 219.08363 C 1011.542199 218.743119 1013.871695 204.763283 1016.565808 188.059366 C 1020.272745 164.77225 1021.791981 156.827012 1023.108653 154.027261 C 1025.276097 149.241201 1030.785861 143.793037 1035.789213 141.466218 C 1039.739228 139.612329 1040.022819 139.593411 1056.572368 139.366405 L 1073.304226 139.139398 L 1074.499358 141.636473 C 1075.978082 144.757816 1079.603993 147.841326 1083.067852 148.843939 C 1086.774789 149.960056 1148.820407 149.960056 1152.527344 148.843939 C 1155.970946 147.841326 1159.63737 144.757816 1161.116094 141.636473 L 1162.270713 139.139398 L 1195.106478 139.593411 L 1199.259057 141.617556 C 1204.485231 144.190299 1209.610122 149.279035 1211.777566 154.027261 C 1213.094238 156.827012 1214.613474 164.77225 1218.340667 188.059366 C 1221.014524 204.763283 1223.384533 218.743119 1223.62761 219.064712 C 1224.255561 220.10516 1238.435102 219.840319 1238.860488 218.780954 C 1239.407413 217.30541 1229.583017 156.732426 1227.942242 151.492352 C 1224.802487 141.4473 1217.003739 132.575118 1206.895753 127.580968 C 1199.866752 124.100197 1198.144951 123.835355 1179.8736 123.381342 L 1162.594817 122.965163 L 1161.865584 120.524839 C 1160.974298 117.289992 1156.274794 112.712022 1152.709652 111.671574 C 1148.658355 110.441954 1086.936841 110.441954 1082.845031 111.671574 C 1079.320402 112.712022 1074.620897 117.289992 1073.709356 120.524839 L 1073.000378 122.965163 L 1057.07878 123.381342 C 1048.348235 123.627266 1039.15179 124.232617 1036.660242 124.648796 C 1022.865575 127.22154 1009.962193 139.423156 1006.235 153.55433 C 1004.958841 158.20797 995.68137 217.816175 996.045987 218.780954 C 996.43086 219.840319 1010.67117 220.10516 1011.319378 219.064712 Z M 1011.319378 219.08363 " transform="matrix(0.192839,0,0,0.206492,-183.518383,-20.703773)"/><path style="fill-rule:evenodd;fill:url(#linear0);stroke-width:4.4;stroke-linecap:butt;stroke-linejoin:miter;stroke:url(#linear0);stroke-miterlimit:4;" d="M 1117.78747 112.844442 C 1084.262985 112.844442 1084.161702 112.86336 1081.46759 114.414573 C 1078.267065 116.230627 1076.484494 118.443944 1075.167823 122.227391 L 1074.236024 124.970389 L 1072.514223 124.970389 L 1072.514223 137.096337 L 1074.175255 137.096337 L 1075.370387 139.215067 C 1077.416292 143.017431 1078.996298 144.719982 1081.771437 146.082023 C 1084.323754 147.444064 1086.005043 147.462981 1117.78747 147.462981 C 1149.61041 147.462981 1151.271441 147.444064 1153.844015 146.082023 C 1156.598897 144.719982 1158.13839 143.017431 1160.245065 139.215067 L 1161.440198 137.096337 L 1162.412509 137.096337 L 1162.412509 124.970389 L 1161.379428 124.970389 L 1160.427373 122.227391 C 1159.130958 118.443944 1157.328131 116.230627 1154.127606 114.414573 C 1151.45375 112.86336 1151.352467 112.844442 1117.78747 112.844442 Z M 1117.78747 112.844442 " transform="matrix(0.192839,0,0,0.206492,-183.518383,-20.703773)"/></g></svg>
