<svg xmlns="http://www.w3.org/2000/svg" xmlns:xlink="http://www.w3.org/1999/xlink" width="64" height="64" viewBox="0 0 64 64" version="1.1"><defs><linearGradient id="linear0" x1="0%" x2="0%" y1="0%" y2="100%"><stop offset="0%" style="stop-color:#ff0000; stop-opacity:1"/><stop offset="50%" style="stop-color:#ffd000; stop-opacity:1"/><stop offset="100%" style="stop-color:#0073ff; stop-opacity:1"/></linearGradient></defs><g id="surface1"><path style=" stroke:none;fill-rule:nonzero;fill:url(#linear0);" d="M 24.785156 49.976562 L 47.980469 37.585938 L 47.824219 14.285156 L 24.785156 26.214844 Z M 24.785156 49.976562 "/><path style=" stroke:none;fill-rule:nonzero;fill:url(#linear0);" d="M 24.785156 50.023438 L 1.597656 37.640625 L 1.753906 14.335938 L 24.785156 26.257812 Z M 24.785156 50.023438 "/><path style=" stroke:none;fill-rule:nonzero;fill:url(#linear0);" d="M 1.691406 14.394531 L 24.898438 2.183594 L 47.902344 14.398438 L 24.777344 26.382812 Z M 1.691406 14.394531 "/><path style=" stroke:none;fill-rule:nonzero;fill:url(#linear0);" d="M 62.980469 46.71875 C 62.980469 55.265625 55.65625 62.191406 46.613281 62.191406 C 37.570312 62.191406 30.242188 55.265625 30.242188 46.71875 C 30.242188 38.175781 37.570312 31.246094 46.613281 31.246094 C 55.65625 31.246094 62.980469 38.175781 62.980469 46.71875 Z M 62.980469 46.71875 "/><path style=" stroke:none;fill-rule:nonzero;fill:url(#linear0);" d="M 46.613281 40.414062 C 42.929688 40.414062 39.945312 43.234375 39.945312 46.71875 C 39.945312 50.203125 42.929688 53.023438 46.613281 53.023438 C 50.300781 53.023438 53.285156 50.203125 53.285156 46.71875 C 53.285156 43.234375 50.300781 40.414062 46.613281 40.414062 Z M 46.613281 43.28125 C 48.621094 43.28125 50.25 44.824219 50.25 46.71875 C 50.25 48.617188 48.621094 50.15625 46.613281 50.15625 C 45.648438 50.160156 44.722656 49.800781 44.039062 49.15625 C 43.359375 48.503906 42.972656 47.632812 42.972656 46.71875 C 42.972656 44.820312 44.605469 43.28125 46.613281 43.28125 Z M 46.613281 43.28125 "/><path style=" stroke:none;fill-rule:nonzero;fill:url(#linear0);" d="M 45.402344 37.839844 L 47.828125 37.839844 L 47.828125 41.851562 L 45.402344 41.851562 Z M 45.402344 51.589844 L 47.828125 51.589844 L 47.828125 55.605469 L 45.402344 55.605469 Z M 56.011719 45.574219 L 56.011719 47.867188 L 51.769531 47.867188 L 51.769531 45.574219 Z M 41.460938 45.574219 L 41.460938 47.867188 L 37.21875 47.867188 L 37.21875 45.574219 Z M 54.117188 52.195312 L 52.402344 53.8125 L 49.402344 50.976562 L 51.113281 49.355469 Z M 43.828125 42.472656 L 42.113281 44.089844 L 39.109375 41.25 L 40.828125 39.628906 Z M 40.828125 53.8125 L 39.109375 52.191406 L 42.113281 49.355469 L 43.828125 50.976562 Z M 51.113281 44.089844 L 49.402344 42.46875 L 52.402344 39.628906 L 54.117188 41.25 Z M 51.113281 44.089844 "/></g></svg>
