<svg xmlns="http://www.w3.org/2000/svg" xmlns:xlink="http://www.w3.org/1999/xlink" width="64" height="64" viewBox="0 0 64 64" version="1.1"><defs><linearGradient id="linear0" x1="0%" x2="0%" y1="0%" y2="100%"><stop offset="0%" style="stop-color:#00b54e; stop-opacity:1"/><stop offset="50%" style="stop-color:#ffd000; stop-opacity:1"/><stop offset="100%" style="stop-color:#ff00bb; stop-opacity:1"/></linearGradient></defs><g id="surface1"><path style=" stroke:none;fill-rule:nonzero;fill:url(#linear0);" d="M 20.59375 1.925781 L 16.566406 6.296875 C 16.566406 8.707031 18.367188 10.667969 20.59375 10.667969 C 21.316406 10.664062 22.011719 10.445312 22.632812 10.046875 L 25.234375 12.867188 L 6.496094 32.539062 C 6.496094 43.449219 14.585938 52.214844 24.648438 52.214844 L 24.648438 63.144531 L 34.730469 52.214844 L 40.785156 52.214844 C 50.84375 52.214844 58.9375 43.449219 58.9375 32.539062 C 58.9375 21.632812 50.84375 12.867188 40.785156 12.867188 L 40.195312 12.867188 L 42.792969 10.046875 C 43.40625 10.445312 44.113281 10.664062 44.832031 10.667969 C 47.050781 10.667969 48.863281 8.71875 48.863281 6.296875 C 48.863281 3.878906 47.058594 1.925781 44.832031 1.925781 L 40.796875 6.296875 C 40.808594 7.078125 41 7.832031 41.375 8.503906 L 37.355469 12.851562 L 28.105469 12.851562 L 24.09375 8.503906 C 24.460938 7.839844 24.652344 7.078125 24.664062 6.296875 C 24.664062 3.894531 22.859375 1.925781 20.628906 1.925781 Z M 20.59375 1.925781 "/><path style=" stroke:none;fill-rule:nonzero;fill:rgb(40.000001%,40.000001%,40.000001%);fill-opacity:1;" d="M 22.617188 15.042969 C 14.785156 15.042969 8.496094 21.863281 8.496094 30.34375 C 8.496094 35.152344 10.511719 39.414062 13.683594 42.207031 C 11.695312 39.5625 10.511719 36.203125 10.511719 32.527344 C 10.511719 24.046875 16.808594 17.226562 24.632812 17.226562 L 40.765625 17.226562 C 44.152344 17.226562 47.257812 18.515625 49.699219 20.660156 C 47.117188 17.226562 43.183594 15.042969 38.746094 15.042969 Z M 21.605469 21.601562 L 16.566406 27.0625 C 16.566406 30.082031 18.824219 32.527344 21.605469 32.527344 C 24.390625 32.527344 26.644531 30.082031 26.644531 27.0625 C 26.644531 24.046875 24.390625 21.601562 21.605469 21.601562 Z M 43.792969 21.601562 L 38.746094 27.0625 C 38.746094 30.082031 41.007812 32.527344 43.792969 32.527344 C 46.574219 32.527344 48.832031 30.082031 48.832031 27.0625 C 48.832031 24.046875 46.574219 21.601562 43.792969 21.601562 Z M 24.632812 34.71875 C 24.632812 39.546875 28.238281 43.460938 32.695312 43.460938 C 37.15625 43.460938 40.765625 39.546875 40.765625 34.71875 L 36.730469 34.71875 L 32.695312 39.085938 C 30.480469 39.085938 28.667969 37.128906 28.667969 34.71875 Z M 24.632812 34.71875 "/></g></svg>
