<svg xmlns="http://www.w3.org/2000/svg" xmlns:xlink="http://www.w3.org/1999/xlink" width="64" height="64" viewBox="0 0 64 64" version="1.1"><defs><linearGradient id="linear0" x1="0%" x2="0%" y1="0%" y2="100%"><stop offset="0%" style="stop-color:#00b6c7; stop-opacity:1"/><stop offset="50%" style="stop-color:#ff0000; stop-opacity:1"/><stop offset="100%" style="stop-color:#6a00ff; stop-opacity:1"/></linearGradient></defs><g id="surface1"><path style=" stroke:none;fill-rule:nonzero;fill:url(#linear0);" d="M 19.800781 1.929688 L 19.800781 42.683594 L 24.3125 42.683594 L 26.21875 38.640625 C 28.097656 41.015625 30.523438 42.683594 33.347656 42.683594 C 42.378906 42.683594 44.632812 35.492188 44.632812 27.105469 C 44.632812 18.46875 40.730469 11.523438 34.476562 11.523438 C 32.527344 11.523438 30.582031 12.683594 28.832031 14.402344 L 28.832031 1.929688 Z M 32.21875 18.710938 C 34.097656 18.710938 35.605469 20.851562 35.605469 23.507812 L 35.605469 30.699219 C 35.605469 33.355469 34.097656 35.492188 32.21875 35.492188 C 30.34375 35.492188 28.832031 33.355469 28.832031 30.699219 L 28.832031 23.507812 C 28.832031 20.851562 30.34375 18.710938 32.21875 18.710938 Z M 8.511719 21.109375 C 4.769531 21.109375 1.738281 24.332031 1.738281 28.304688 C 1.738281 32.273438 4.769531 35.492188 8.511719 35.492188 C 12.25 35.492188 15.285156 32.273438 15.285156 28.304688 C 15.285156 24.332031 12.25 21.109375 8.511719 21.109375 Z M 49.152344 23.507812 L 55.925781 34.296875 L 62.699219 23.507812 Z M 31.085938 47.480469 C 27.347656 47.480469 24.3125 50.699219 24.3125 54.675781 C 24.3125 58.644531 27.347656 61.867188 31.085938 61.867188 C 34.832031 61.867188 37.859375 58.644531 37.859375 54.675781 C 37.859375 50.699219 34.832031 47.480469 31.085938 47.480469 Z M 31.085938 47.480469 "/></g></svg>
