<svg xmlns="http://www.w3.org/2000/svg" xmlns:xlink="http://www.w3.org/1999/xlink" width="64" height="64" viewBox="0 0 64 64" version="1.1"><defs><linearGradient id="linear0" x1="0%" x2="0%" y1="0%" y2="100%"><stop offset="0%" style="stop-color:#00b54e; stop-opacity:1"/><stop offset="50%" style="stop-color:#ffd000; stop-opacity:1"/><stop offset="100%" style="stop-color:#ff00bb; stop-opacity:1"/></linearGradient></defs><g id="surface1"><path style=" stroke:none;fill-rule:nonzero;fill:url(#linear0);" d="M 15.734375 32.3125 L 8.933594 39.085938 L 2.089844 32.3125 L 8.933594 25.535156 Z M 32.296875 15.910156 L 44.003906 27.496094 L 50.84375 20.722656 L 39.140625 9.183594 L 32.296875 2.410156 L 25.453125 9.183594 L 13.796875 20.726562 L 20.640625 27.503906 Z M 55.660156 25.539062 L 48.859375 32.3125 L 55.707031 39.085938 L 62.5 32.3125 Z M 32.296875 48.707031 L 20.589844 37.125 L 13.796875 43.898438 L 25.5 55.484375 L 32.296875 62.210938 L 39.140625 55.433594 L 50.84375 43.847656 L 44.003906 37.125 Z M 32.296875 39.082031 L 39.140625 32.3125 L 32.296875 25.535156 L 25.453125 32.3125 Z M 32.296875 39.082031 "/></g></svg>
