<svg xmlns="http://www.w3.org/2000/svg" xmlns:xlink="http://www.w3.org/1999/xlink" width="64" height="64" viewBox="0 0 64 64" version="1.1"><defs><linearGradient id="linear0" x1="0%" x2="0%" y1="0%" y2="100%"><stop offset="0%" style="stop-color:#ffd000; stop-opacity:1"/><stop offset="50%" style="stop-color:#24dbdb; stop-opacity:1"/><stop offset="100%" style="stop-color:#0073ff; stop-opacity:1"/></linearGradient></defs><g id="surface1"><path style=" stroke:none;fill-rule:nonzero;fill:url(#linear0);" d="M 54.507812 2.34375 L 46.652344 9.5 C 43.90625 12.007812 41.417969 14.273438 36.179688 14.273438 C 30.941406 14.273438 30.941406 11.890625 28.324219 11.890625 C 25.710938 11.890625 25.710938 11.890625 20.472656 16.65625 C 22.457031 14.273438 20.472656 14.273438 20.472656 14.273438 C 20.472656 14.273438 18.574219 15.75 17.855469 16.65625 C 16.710938 18.101562 15.230469 21.429688 15.230469 21.429688 C 15.230469 21.429688 2.140625 26.203125 2.140625 40.515625 C 2.140625 45.277344 7.375 52.4375 7.375 52.4375 C 7.375 52.4375 10 45.277344 17.855469 45.277344 C 17.855469 45.277344 25.710938 45.277344 25.710938 50.054688 C 25.710938 53.324219 23.085938 59.59375 23.085938 59.59375 C 23.085938 59.59375 23.085938 61.980469 30.941406 61.980469 C 38.796875 61.980469 38.796875 59.59375 38.796875 59.59375 C 41.648438 55.402344 41.417969 52.4375 44.035156 45.277344 C 44.035156 45.277344 46.652344 45.277344 46.652344 42.898438 C 44.035156 44.050781 44.035156 42.898438 44.035156 42.898438 C 44.035156 42.898438 45.378906 42.898438 49.273438 40.515625 C 50.492188 39.761719 51.890625 38.121094 51.890625 38.121094 C 51.890625 38.121094 48.117188 39.019531 46.652344 38.121094 C 46.652344 33.359375 44.035156 28.585938 44.035156 28.585938 C 44.035156 28.585938 46.652344 30.964844 49.273438 30.964844 C 51.890625 30.964844 54.507812 28.585938 54.507812 28.585938 L 49.273438 28.585938 C 47.320312 28.585938 44.035156 26.203125 44.035156 26.203125 C 44.035156 26.203125 49.273438 26.203125 54.507812 23.8125 C 56.253906 23.019531 57.128906 19.046875 57.128906 19.046875 C 57.128906 19.046875 54.507812 21.429688 51.890625 21.429688 L 46.652344 21.429688 C 46.652344 21.429688 49.273438 21.429688 57.128906 16.65625 C 61.03125 14.28125 62.359375 4.734375 62.359375 4.734375 C 62.359375 4.734375 57.128906 11.890625 51.890625 14.273438 C 46.652344 16.65625 44.035156 16.65625 44.035156 16.65625 C 44.035156 16.65625 46.652344 16.65625 51.890625 9.5 C 53.949219 6.691406 54.507812 2.34375 54.507812 2.34375 Z M 54.507812 2.34375 "/><path style=" stroke:none;fill-rule:nonzero;fill:rgb(40.000001%,40.000001%,40.000001%);fill-opacity:1;" d="M 30.941406 25.007812 C 30.941406 28.296875 28.601562 30.964844 25.710938 30.964844 C 22.816406 30.964844 20.472656 28.296875 20.472656 25.007812 C 20.472656 21.714844 22.816406 19.046875 25.710938 19.046875 C 28.601562 19.046875 30.941406 21.714844 30.941406 25.007812 Z M 30.941406 25.007812 "/><path style=" stroke:none;fill-rule:nonzero;fill:rgb(40.000001%,40.000001%,40.000001%);fill-opacity:1;" d="M 11.304688 23.8125 C 12.035156 23.8125 12.617188 24.351562 12.617188 25.007812 L 12.617188 27.390625 C 12.617188 28.054688 12.035156 28.585938 11.304688 28.585938 C 10.582031 28.585938 10 28.054688 10 27.390625 L 10 25.007812 C 10 24.351562 10.582031 23.8125 11.304688 23.8125 Z M 11.304688 23.8125 "/></g></svg>
