<svg xmlns="http://www.w3.org/2000/svg" xmlns:xlink="http://www.w3.org/1999/xlink" width="64" height="64" viewBox="0 0 64 64" version="1.1"><defs><linearGradient id="linear0" x1="0%" x2="100%" y1="0%" y2="100%"><stop offset="0%" style="stop-color:#ff0000; stop-opacity:1"/><stop offset="50%" style="stop-color:#ffd000; stop-opacity:1"/><stop offset="100%" style="stop-color:#ff00bb; stop-opacity:1"/></linearGradient></defs><g id="surface1"><path style=" stroke:none;fill-rule:nonzero;fill:url(#linear0);" d="M 30.765625 1.59375 C 30.101562 1.613281 29.476562 1.933594 29.042969 2.472656 L 4.289062 32.101562 C 3.773438 32.734375 2.5 35.042969 1.890625 38.039062 C 1.429688 39.457031 1.203125 40.949219 1.21875 42.457031 C 1.21875 50.421875 7.425781 53.613281 7.425781 53.613281 C 7.523438 53.667969 7.625 53.726562 7.726562 53.769531 L 36.449219 62.925781 C 37.386719 63.210938 38.390625 62.863281 38.992188 62.042969 L 62.402344 31.777344 C 62.988281 31.007812 63.101562 29.941406 62.703125 29.042969 C 62.703125 29.042969 61.796875 26.796875 62.777344 24.226562 C 63.105469 23.378906 62.988281 22.402344 62.457031 21.671875 C 61.933594 20.9375 61.085938 20.566406 60.234375 20.699219 C 59.386719 20.839844 58.675781 21.449219 58.363281 22.300781 C 57.136719 25.523438 57.496094 27.972656 57.914062 29.53125 L 36.300781 57.464844 L 9.222656 48.875 L 9.070312 48.796875 C 8.628906 48.617188 6.007812 47.351562 6.007812 42.457031 C 6.007812 40.523438 6.390625 39.503906 6.753906 38.917969 C 7.046875 38.414062 7.496094 38.046875 8.023438 37.875 C 8.546875 37.695312 9.148438 37.695312 9.59375 37.714844 L 9.671875 37.714844 L 34.65625 45.425781 C 35.628906 45.679688 36.648438 45.304688 37.273438 44.457031 L 62.625 13.074219 C 63.175781 12.347656 63.363281 11.382812 63.074219 10.5 C 62.777344 9.609375 62.070312 8.9375 61.203125 8.734375 L 31.4375 1.59375 C 31.214844 1.539062 30.988281 1.585938 30.769531 1.59375 Z M 30.089844 11.789062 C 30.351562 11.78125 30.59375 11.808594 30.835938 11.867188 L 48.644531 16.523438 C 49.617188 16.773438 49.984375 17.457031 49.464844 18.128906 L 47.519531 20.621094 C 46.988281 21.289062 45.734375 21.59375 44.753906 21.339844 L 27.027344 16.6875 C 26.046875 16.433594 25.683594 15.664062 26.203125 14.996094 L 28.074219 12.59375 C 28.46875 12.089844 29.308594 11.808594 30.09375 11.789062 Z M 30.089844 11.789062 "/></g></svg>
