<svg xmlns="http://www.w3.org/2000/svg" xmlns:xlink="http://www.w3.org/1999/xlink" width="64" height="64" viewBox="0 0 64 64" version="1.1"><defs><linearGradient id="linear0" x1="0%" x2="100%" y1="0%" y2="100%"><stop offset="0%" style="stop-color:#e5ff00; stop-opacity:1"/><stop offset="50%" style="stop-color:#0073ff; stop-opacity:1"/><stop offset="100%" style="stop-color:#ff0000; stop-opacity:1"/></linearGradient></defs><g id="surface1"><path style=" stroke:none;fill-rule:nonzero;fill:url(#linear0);" d="M 54.054688 2.207031 C 48.761719 0.890625 42.367188 2.671875 38.457031 6.550781 C 34.75 10.222656 34.894531 14.152344 37.089844 17.988281 C 37.398438 18.539062 37.996094 19.640625 36.484375 21.148438 C 34.289062 23.3125 31.390625 26.050781 28.328125 28.890625 C 24.164062 32.644531 20.59375 35.035156 20.472656 35.15625 C 17.960938 37.644531 17.882812 41.597656 20.292969 43.988281 C 22.710938 46.378906 26.695312 46.304688 29.207031 43.816406 C 33.4375 37.941406 37.992188 33.347656 43.160156 28.195312 C 44.765625 26.601562 46.175781 27.15625 46.8125 27.503906 C 50.597656 29.527344 54.464844 29.574219 58.082031 25.996094 C 61.992188 22.117188 63.792969 15.789062 62.464844 10.546875 L 53.0625 19.863281 C 53.0625 19.863281 50.257812 19.863281 47.457031 17.082031 C 44.652344 14.300781 44.652344 11.527344 44.652344 11.527344 Z M 46.371094 36.238281 C 46.101562 36 45.757812 35.851562 45.382812 35.8125 L 40.53125 35.253906 C 40.382812 34.757812 40.214844 34.277344 40.023438 33.796875 C 37.199219 36.695312 34.546875 39.765625 32.027344 42.925781 C 30.222656 46.507812 25.613281 48.433594 21.808594 46.984375 C 16.878906 45.394531 15.242188 38.558594 18.5 34.726562 C 22.617188 31.414062 26.738281 28.078125 30.585938 24.453125 C 30.105469 24.261719 29.621094 24.097656 29.140625 23.949219 L 28.582031 19.191406 C 28.484375 18.347656 27.808594 17.660156 26.847656 17.660156 L 21.742188 17.660156 C 20.78125 17.660156 20.125 18.363281 20.003906 19.203125 L 19.3125 23.957031 C 16.808594 24.925781 16.148438 25.230469 16.15625 25.230469 L 12.371094 22.257812 C 11.695312 21.734375 10.730469 21.722656 10.054688 22.394531 L 6.4375 25.96875 C 5.761719 26.644531 5.800781 27.582031 6.3125 28.269531 L 9.214844 32.132812 C 8.675781 33.136719 8.242188 34.191406 7.925781 35.261719 L 3.164062 35.804688 C 2.316406 35.90625 1.617188 36.585938 1.617188 37.527344 L 1.609375 42.589844 C 1.609375 43.542969 2.316406 44.1875 3.160156 44.308594 L 7.9375 44.988281 C 8.265625 46.0625 8.703125 47.117188 9.246094 48.125 L 6.253906 51.867188 C 5.726562 52.53125 5.710938 53.5 6.386719 54.167969 L 9.996094 57.75 C 10.679688 58.421875 11.632812 58.386719 12.324219 57.871094 L 16.21875 54.988281 C 17.210938 55.511719 18.25 55.929688 19.308594 56.25 L 20.003906 61.03125 C 20.125 61.871094 20.773438 62.566406 21.734375 62.566406 L 26.847656 62.566406 C 27.804688 62.566406 28.484375 61.871094 28.582031 61.027344 L 29.128906 56.242188 C 30.210938 55.925781 31.261719 55.5 32.265625 54.964844 L 36.160156 57.847656 C 36.851562 58.359375 37.808594 58.390625 38.488281 57.722656 L 42.09375 54.144531 C 42.78125 53.46875 42.765625 52.515625 42.226562 51.84375 L 39.222656 48.082031 C 39.765625 47.09375 40.195312 46.0625 40.515625 45.007812 L 45.382812 44.308594 C 46.226562 44.1875 46.929688 43.539062 46.929688 42.589844 L 46.929688 37.527344 C 46.929688 37.050781 46.761719 36.644531 46.480469 36.347656 C 46.449219 36.3125 46.40625 36.273438 46.371094 36.238281 Z M 27.308594 37.035156 C 27.808594 37.527344 28.117188 38.203125 28.117188 38.953125 C 28.117188 40.453125 26.886719 41.671875 25.382812 41.671875 C 23.867188 41.671875 22.640625 40.453125 22.640625 38.953125 C 22.640625 37.457031 23.867188 36.238281 25.382812 36.238281 C 26.136719 36.238281 26.824219 36.550781 27.308594 37.035156 "/></g></svg>
