<svg xmlns="http://www.w3.org/2000/svg" xmlns:xlink="http://www.w3.org/1999/xlink" width="64" height="64" viewBox="0 0 64 64" version="1.1"><defs><linearGradient id="linear0" x1="0%" x2="0%" y1="0%" y2="100%"><stop offset="0%" style="stop-color:#24dbdb; stop-opacity:1"/><stop offset="100%" style="stop-color:#174475; stop-opacity:1"/></linearGradient></defs><g id="surface1"><path style=" stroke:none;fill-rule:nonzero;fill:url(#linear0);" d="M 17.472656 2.410156 L 1.628906 44.613281 L 8.941406 53.65625 L 16.253906 50.640625 L 23.566406 35.570312 L 21.128906 23.515625 L 24.492188 17.300781 L 23.578125 23.515625 L 26.015625 34.0625 L 43.078125 17.484375 L 52.828125 17.484375 L 55.269531 14.46875 L 47.957031 5.429688 L 35.765625 2.410156 L 23.578125 2.410156 L 28.457031 5.429688 L 26.015625 6.933594 Z M 45.507812 20.496094 L 40.628906 23.515625 L 47.941406 26.527344 L 50.378906 41.601562 L 62.570312 35.570312 L 57.691406 20.496094 Z M 38.191406 26.527344 L 21.128906 47.628906 L 18.691406 59.6875 L 30.878906 59.6875 L 38.191406 56.667969 L 47.941406 44.613281 L 47.941406 41.601562 L 45.453125 29.570312 Z M 62.570312 38.582031 L 51.597656 44.613281 L 43.066406 56.667969 L 47.941406 62.699219 L 60.128906 56.667969 L 62.570312 47.628906 Z M 62.570312 38.582031 "/></g></svg>
