<svg xmlns="http://www.w3.org/2000/svg" xmlns:xlink="http://www.w3.org/1999/xlink" width="64" height="64" viewBox="0 0 64 64" version="1.1"><defs><linearGradient id="linear0" x1="0%" x2="0%" y1="0%" y2="100%"><stop offset="0%" style="stop-color:#00b54e; stop-opacity:1"/><stop offset="50%" style="stop-color:#ffd000; stop-opacity:1"/><stop offset="100%" style="stop-color:#ff00bb; stop-opacity:1"/></linearGradient></defs><g id="surface1"><path style=" stroke:none;fill-rule:nonzero;fill:url(#linear0);" d="M 32.261719 1.695312 C 29.703125 1.695312 27.625 4.742188 27.625 8.503906 C 27.625 13.609375 29.945312 17.015625 32.261719 22.125 C 34.578125 17.015625 36.894531 13.609375 36.894531 8.503906 C 36.894531 4.742188 34.824219 1.695312 32.261719 1.695312 Z M 25.308594 15.308594 C 11.390625 15.308594 2.117188 24.453125 2.117188 32.335938 C 2.117188 40.214844 11.390625 49.359375 25.308594 49.359375 L 25.308594 46.925781 C 15.660156 44.917969 9.074219 39.015625 9.074219 32.335938 C 9.074219 25.65625 15.660156 19.75 25.308594 17.753906 Z M 39.214844 15.308594 L 39.214844 17.753906 C 48.859375 19.75 55.449219 25.65625 55.449219 32.335938 C 55.449219 39.015625 48.859375 44.917969 39.214844 46.925781 L 39.214844 49.359375 C 53.128906 49.359375 62.402344 40.214844 62.402344 32.335938 C 62.402344 24.453125 53.128906 15.308594 39.214844 15.308594 Z M 25.308594 25.527344 C 18.347656 25.527344 13.710938 29.566406 13.710938 32.335938 C 13.710938 35.109375 18.347656 39.140625 25.308594 39.140625 L 25.308594 36.589844 C 22.390625 35.632812 20.664062 33.941406 20.664062 32.335938 C 20.664062 30.730469 22.390625 29.046875 25.308594 28.082031 Z M 32.261719 25.527344 C 29.703125 25.527344 27.625 28.574219 27.625 32.335938 C 27.625 36.101562 29.703125 39.140625 32.261719 39.140625 C 34.824219 39.140625 36.894531 36.101562 36.894531 32.335938 C 36.894531 28.574219 34.824219 25.527344 32.261719 25.527344 Z M 39.214844 25.527344 L 39.214844 28.078125 C 42.132812 29.039062 43.859375 30.730469 43.855469 32.335938 C 43.855469 33.941406 42.128906 35.632812 39.214844 36.589844 L 39.214844 39.140625 C 46.175781 39.140625 50.808594 35.109375 50.8125 32.335938 C 50.816406 29.566406 46.175781 25.527344 39.214844 25.527344 Z M 32.261719 42.554688 C 29.945312 47.65625 27.625 51.0625 27.625 56.167969 C 27.625 59.929688 29.703125 62.984375 32.261719 62.984375 C 34.824219 62.984375 36.894531 59.929688 36.894531 56.167969 C 36.894531 51.0625 34.578125 47.65625 32.261719 42.554688 Z M 32.261719 42.554688 "/></g></svg>
