<svg xmlns="http://www.w3.org/2000/svg" xmlns:xlink="http://www.w3.org/1999/xlink" width="64" height="64" viewBox="0 0 64 64" version="1.1"><defs><linearGradient id="linear0" x1="0%" x2="100%" y1="0%" y2="100%"><stop offset="0%" style="stop-color:#ff0000; stop-opacity:1"/><stop offset="50%" style="stop-color:#ffd000; stop-opacity:1"/><stop offset="100%" style="stop-color:#ff00bb; stop-opacity:1"/></linearGradient></defs><g id="surface1"><path style=" stroke:none;fill-rule:nonzero;fill:url(#linear0);" d="M 30.125 1.484375 C 29.058594 1.484375 28.195312 2.339844 28.195312 3.410156 L 28.195312 12.511719 C 29.441406 12.277344 30.734375 12.085938 32.046875 12.085938 C 33.390625 12.085938 34.621094 12.265625 35.894531 12.511719 L 35.894531 3.410156 C 35.894531 2.351562 35.035156 1.484375 33.964844 1.484375 M 13.015625 8.539062 C 12.523438 8.539062 12.003906 8.804688 11.625 9.183594 L 8.953125 11.851562 C 8.199219 12.605469 8.199219 13.878906 8.953125 14.636719 L 15.390625 21.070312 C 16.851562 18.9375 18.699219 17.074219 20.84375 15.613281 C 18.808594 13.585938 16.4375 11.210938 14.410156 9.183594 C 14.03125 8.808594 13.507812 8.539062 13.015625 8.539062 M 51.078125 8.648438 C 50.566406 8.648438 50.0625 8.804688 49.6875 9.183594 L 43.25 15.613281 C 45.390625 17.074219 47.242188 18.929688 48.707031 21.058594 C 50.734375 19.035156 53.113281 16.660156 55.140625 14.628906 C 55.511719 14.25 55.785156 13.730469 55.785156 13.246094 C 55.785156 12.75 55.523438 12.230469 55.140625 11.851562 L 52.46875 9.183594 C 52.09375 8.808594 51.589844 8.648438 51.078125 8.648438 M 3.183594 28.414062 C 2.125 28.414062 1.257812 29.273438 1.257812 30.34375 L 1.257812 34.1875 C 1.257812 35.25 2.113281 36.117188 3.183594 36.117188 L 12.289062 36.117188 C 12.0625 34.882812 11.863281 33.566406 11.863281 32.269531 C 11.863281 30.933594 12.046875 29.6875 12.289062 28.425781 Z M 51.808594 28.414062 C 52.058594 29.683594 52.238281 30.929688 52.238281 32.261719 C 52.238281 33.558594 52.046875 34.878906 51.808594 36.105469 L 60.917969 36.105469 C 61.980469 36.105469 62.84375 35.25 62.84375 34.1875 L 62.84375 30.339844 C 62.84375 29.273438 61.988281 28.414062 60.917969 28.414062 M 15.394531 43.457031 L 8.957031 49.890625 C 8.199219 50.644531 8.199219 51.917969 8.957031 52.675781 L 11.628906 55.34375 C 12.378906 56.09375 13.550781 56.09375 14.300781 55.34375 C 16.371094 53.308594 18.792969 50.945312 20.84375 48.914062 C 18.699219 47.464844 16.851562 45.582031 15.390625 43.457031 M 48.59375 43.457031 C 47.140625 45.558594 45.367188 47.46875 43.25 48.914062 L 49.6875 55.34375 C 50.433594 56.09375 51.710938 56.09375 52.464844 55.34375 L 55.136719 52.675781 C 55.894531 51.917969 55.894531 50.753906 55.136719 50 C 53.085938 47.917969 50.65625 45.535156 48.59375 43.464844 Z M 28.195312 52.011719 L 28.195312 61.117188 C 28.195312 62.175781 29.054688 63.039062 30.125 63.039062 L 33.972656 63.039062 C 35.035156 63.039062 35.898438 62.183594 35.898438 61.117188 L 35.898438 52.011719 C 34.621094 52.261719 33.394531 52.4375 32.050781 52.4375 C 30.742188 52.4375 29.441406 52.238281 28.199219 52.011719 Z M 28.195312 52.011719 "/><path style=" stroke:none;fill-rule:nonzero;fill:url(#linear0);" d="M 32.003906 11.78125 C 20.660156 11.78125 11.480469 21.058594 11.480469 32.292969 C 11.480469 43.527344 20.660156 52.734375 32.003906 52.734375 C 43.34375 52.734375 52.597656 43.539062 52.597656 32.292969 C 52.597656 21.058594 43.328125 11.78125 32.003906 11.78125 Z M 32.003906 19.382812 C 39.085938 19.382812 44.800781 25.125 44.800781 32.292969 C 44.800781 39.46875 39.085938 45.125 32.003906 45.125 C 24.925781 45.125 19.203125 39.476562 19.203125 32.292969 C 19.203125 25.125 24.925781 19.382812 32.003906 19.382812 Z M 32.003906 19.382812 "/></g></svg>
