<svg xmlns="http://www.w3.org/2000/svg" xmlns:xlink="http://www.w3.org/1999/xlink" width="64" height="64" viewBox="0 0 64 64" version="1.1"><defs><linearGradient id="linear0" x1="0%" x2="0%" y1="0%" y2="100%"><stop offset="0%" style="stop-color:#00b6c7; stop-opacity:1"/><stop offset="50%" style="stop-color:#ff0000; stop-opacity:1"/><stop offset="100%" style="stop-color:#6a00ff; stop-opacity:1"/></linearGradient></defs><g id="surface1"><path style=" stroke:none;fill-rule:nonzero;fill:url(#linear0);" d="M 11.140625 8.941406 C 5.746094 8.941406 1.398438 13.28125 1.398438 18.660156 L 1.398438 42.980469 C 1.398438 48.363281 5.746094 52.699219 11.140625 52.699219 L 13.578125 52.699219 L 13.578125 58.773438 C 13.578125 61.6875 16.824219 63.417969 19.257812 61.808594 L 33.070312 52.699219 L 47.691406 52.699219 C 53.085938 52.699219 57.433594 48.363281 57.433594 42.980469 L 57.433594 39.332031 C 57.433594 37.316406 55.796875 35.6875 53.777344 35.6875 C 51.765625 35.6875 50.125 37.316406 50.125 39.332031 L 50.125 40.542969 C 50.125 43.234375 47.957031 45.40625 45.253906 45.40625 L 30.636719 45.40625 L 20.882812 52.09375 L 20.882812 45.40625 L 13.578125 45.40625 C 10.875 45.40625 8.707031 43.234375 8.707031 40.542969 L 8.707031 21.101562 C 8.707031 18.398438 10.875 16.234375 13.578125 16.234375 L 14.796875 16.234375 C 16.816406 16.234375 18.449219 14.605469 18.449219 12.585938 C 18.449219 10.574219 16.816406 8.941406 14.796875 8.941406 Z M 11.140625 8.941406 "/><path style=" stroke:none;fill-rule:nonzero;fill:url(#linear0);fill-opacity:1;" d="M 27.433594 2.175781 C 26.453125 3.0625 25.835938 4.339844 25.835938 5.765625 L 25.835938 22.789062 C 25.835938 25.480469 28.011719 27.644531 30.714844 27.644531 L 57.511719 27.644531 C 60.210938 27.644531 62.390625 25.480469 62.390625 22.789062 L 62.390625 5.765625 C 62.390625 4.339844 61.777344 3.0625 60.792969 2.175781 Z M 27.433594 2.175781 "/><path style=" stroke:none;fill-rule:nonzero;fill:url(#linear0);fill-opacity:1;" d="M 29.996094 3.625 C 28.722656 3.625 27.574219 4.105469 26.710938 4.890625 L 43.390625 18.207031 L 60.082031 4.890625 C 59.214844 4.105469 58.058594 3.625 56.796875 3.625 Z M 29.996094 3.625 "/></g></svg>
