<svg xmlns="http://www.w3.org/2000/svg" xmlns:xlink="http://www.w3.org/1999/xlink" width="64" height="64" viewBox="0 0 64 64" version="1.1"><defs><linearGradient id="linear0" x1="100%" x2="0%" y1="100%" y2="0%"><stop offset="0%" style="stop-color:#00b54e; stop-opacity:1"/><stop offset="100%" style="stop-color:#ff0000; stop-opacity:1"/></linearGradient></defs><g id="surface1"><path style=" stroke:none;fill-rule:nonzero;fill:url(#linear0);" d="M 17.160156 1.828125 C 8.726562 1.828125 1.875 9.480469 1.875 22.988281 C 1.875 36.316406 8.511719 44.15625 17.160156 44.15625 C 24.175781 44.15625 28.082031 36.691406 28.082031 30.285156 C 28.082031 29.089844 27.78125 29.039062 27.046875 29.039062 C 26.492188 29.039062 25.941406 29.039062 25.894531 30.054688 C 25.894531 37.949219 21.089844 41.128906 18.253906 41.128906 C 9.515625 41.128906 8.425781 32.058594 8.425781 22.988281 C 8.425781 13.917969 9.515625 4.851562 18.253906 4.851562 C 21.53125 4.851562 25.894531 9.382812 25.894531 15.972656 C 25.894531 16.949219 26.191406 16.949219 26.917969 16.949219 C 28.039062 16.949219 28.082031 16.816406 28.082031 15.265625 L 28.082031 3.503906 C 28.082031 2.371094 28.078125 1.828125 27.304688 1.828125 C 26.917969 1.828125 26.824219 1.988281 26.445312 2.335938 L 23.714844 4.851562 C 21.738281 2.457031 20.003906 1.828125 17.160156 1.828125 Z M 39 22.988281 C 34.636719 22.988281 32.449219 22.988281 32.449219 26.019531 C 32.449219 30.117188 33.796875 32.828125 35.261719 35.335938 C 32.398438 36.300781 30.265625 39.886719 30.265625 44.15625 C 30.265625 49.160156 33.195312 53.226562 36.816406 53.226562 C 40.441406 53.226562 43.371094 49.160156 43.371094 44.15625 C 43.371094 33.574219 34.636719 28.886719 34.636719 26.769531 C 34.636719 26.019531 35.070312 26.019531 36.816406 26.019531 C 36.816406 27.683594 37.796875 29.039062 39 29.039062 C 40.210938 29.039062 41.1875 27.683594 41.1875 26.019531 C 41.1875 24.34375 40.210938 22.988281 39 22.988281 Z M 54.292969 22.988281 C 50.355469 22.988281 47.738281 27.222656 47.738281 35.992188 L 47.738281 60.78125 C 47.738281 61.621094 48.226562 62.296875 48.828125 62.296875 C 49.4375 62.296875 49.921875 61.621094 49.921875 60.78125 L 49.921875 49.445312 C 50.714844 51.207031 53.199219 53.226562 55.378906 53.226562 C 58.65625 53.226562 63.027344 51.710938 63.027344 44.15625 C 63.027344 39.921875 60.292969 37.503906 59.207031 36.59375 C 60.292969 35.6875 61.933594 33.875 61.933594 30.550781 C 61.933594 26.019531 59.097656 22.988281 54.292969 22.988281 Z M 54.292969 26.019531 C 56.910156 26.019531 58.65625 27.824219 58.65625 30.550781 C 58.65625 32.058594 57.566406 35.085938 55.378906 35.085938 L 53.199219 35.085938 C 52.589844 35.085938 52.105469 35.761719 52.105469 36.59375 C 52.105469 37.433594 52.589844 38.105469 53.199219 38.105469 L 55.378906 38.105469 C 57.566406 38.105469 58.65625 41.128906 58.65625 44.15625 C 58.65625 47.175781 58.003906 50.195312 55.378906 50.195312 C 53.199219 50.195312 49.921875 47.175781 49.921875 42.640625 L 49.921875 36.59375 C 49.921875 29.039062 52.105469 26.019531 54.292969 26.019531 Z M 36.816406 38.105469 C 37.988281 40.222656 39 42.039062 39 45.664062 C 39 49 38.566406 50.195312 37.695312 50.195312 C 36.484375 50.195312 34.636719 48.691406 34.636719 44.15625 C 34.636719 40.816406 35.609375 38.105469 36.816406 38.105469 Z M 36.816406 38.105469 "/></g></svg>
