<svg xmlns="http://www.w3.org/2000/svg" xmlns:xlink="http://www.w3.org/1999/xlink" width="64" height="64" viewBox="0 0 64 64" version="1.1"><defs><linearGradient id="linear0" x1="0%" x2="0%" y1="0%" y2="100%"><stop offset="0%" style="stop-color:#ff0000; stop-opacity:1"/><stop offset="50%" style="stop-color:#ffd000; stop-opacity:1"/><stop offset="100%" style="stop-color:#0073ff; stop-opacity:1"/></linearGradient></defs><g id="surface1"><path style=" stroke:none;fill-rule:nonzero;fill:url(#linear0);" d="M 2.800781 22.667969 C 2.667969 23.109375 2.546875 23.554688 2.433594 24 L 61.597656 24 C 61.464844 23.550781 61.324219 23.109375 61.175781 22.667969 C 58.667969 20 5.332031 20 2.800781 22.667969 Z M 2.800781 22.667969 "/><path style=" stroke:none;fill-rule:nonzero;fill:url(#linear0);" d="M 29.210938 50.417969 L 36.417969 34.324219 L 26.761719 34.324219 L 26.761719 32.261719 L 38.800781 32.261719 L 38.800781 34.0625 L 31.695312 50.421875 L 29.210938 50.421875 Z M 29.210938 50.417969 "/><path style=" stroke:none;fill-rule:nonzero;fill:url(#linear0);" d="M 21.332031 16 C 21.332031 17.472656 20.140625 18.667969 18.667969 18.667969 C 17.195312 18.667969 16 17.472656 16 16 C 16 14.527344 17.195312 13.332031 18.667969 13.332031 C 20.140625 13.332031 21.332031 14.527344 21.332031 16 Z M 21.332031 16 "/><path style=" stroke:none;fill-rule:nonzero;fill:url(#linear0);" d="M 28 16 C 28 17.472656 26.804688 18.667969 25.332031 18.667969 C 23.859375 18.667969 22.667969 17.472656 22.667969 16 C 22.667969 14.527344 23.859375 13.332031 25.332031 13.332031 C 26.804688 13.332031 28 14.527344 28 16 Z M 28 16 "/><path style=" stroke:none;fill-rule:nonzero;fill:url(#linear0);" d="M 18.667969 14.667969 L 25.332031 14.667969 C 26.070312 14.667969 26.667969 15.261719 26.667969 16 C 26.667969 16.738281 26.070312 17.332031 25.332031 17.332031 L 18.667969 17.332031 C 17.929688 17.332031 17.332031 16.738281 17.332031 16 C 17.332031 15.261719 17.929688 14.667969 18.667969 14.667969 Z M 18.667969 14.667969 "/><path style=" stroke:none;fill-rule:nonzero;fill:url(#linear0);" d="M 41.332031 16 C 41.332031 17.472656 40.140625 18.667969 38.667969 18.667969 C 37.195312 18.667969 36 17.472656 36 16 C 36 14.527344 37.195312 13.332031 38.667969 13.332031 C 40.140625 13.332031 41.332031 14.527344 41.332031 16 Z M 41.332031 16 "/><path style=" stroke:none;fill-rule:nonzero;fill:url(#linear0);" d="M 48 16 C 48 17.472656 46.804688 18.667969 45.332031 18.667969 C 43.859375 18.667969 42.667969 17.472656 42.667969 16 C 42.667969 14.527344 43.859375 13.332031 45.332031 13.332031 C 46.804688 13.332031 48 14.527344 48 16 Z M 48 16 "/><path style=" stroke:none;fill-rule:nonzero;fill:url(#linear0);" d="M 38.667969 14.667969 L 45.332031 14.667969 C 46.070312 14.667969 46.667969 15.261719 46.667969 16 C 46.667969 16.738281 46.070312 17.332031 45.332031 17.332031 L 38.667969 17.332031 C 37.929688 17.332031 37.332031 16.738281 37.332031 16 C 37.332031 15.261719 37.929688 14.667969 38.667969 14.667969 Z M 38.667969 14.667969 "/></g></svg>
