<svg xmlns="http://www.w3.org/2000/svg" xmlns:xlink="http://www.w3.org/1999/xlink" width="64" height="64" viewBox="0 0 64 64" version="1.1"><defs><linearGradient id="linear0" x1="0%" x2="0%" y1="0%" y2="100%"><stop offset="0%" style="stop-color:#00b54e; stop-opacity:1"/><stop offset="50%" style="stop-color:#ffd000; stop-opacity:1"/><stop offset="100%" style="stop-color:#ff00bb; stop-opacity:1"/></linearGradient></defs><g id="surface1"><path style=" stroke:none;fill-rule:nonzero;fill:url(#linear0);" d="M 2.800781 22.667969 C 2.667969 23.109375 2.546875 23.554688 2.433594 24 L 61.597656 24 C 61.464844 23.550781 61.324219 23.109375 61.175781 22.667969 C 58.667969 20 5.332031 20 2.800781 22.667969 Z M 2.800781 22.667969 "/><path style=" stroke:none;fill-rule:nonzero;fill:url(#linear0);" d="M 31.289062 50.417969 L 19.609375 50.417969 L 19.609375 48.480469 L 24.09375 43.75 C 24.730469 43.078125 25.304688 42.464844 25.808594 41.910156 C 26.3125 41.355469 26.738281 40.8125 27.089844 40.285156 C 27.449219 39.753906 27.722656 39.222656 27.910156 38.695312 C 28.097656 38.15625 28.191406 37.570312 28.191406 36.941406 C 28.191406 36.453125 28.117188 36.023438 27.972656 35.648438 C 27.828125 35.277344 27.617188 34.960938 27.347656 34.707031 C 27.082031 34.441406 26.765625 34.242188 26.398438 34.109375 C 26.03125 33.976562 25.621094 33.910156 25.167969 33.910156 C 24.355469 33.910156 23.621094 34.074219 22.964844 34.394531 C 22.316406 34.710938 21.699219 35.117188 21.109375 35.613281 L 19.800781 34.136719 C 20.144531 33.835938 20.507812 33.558594 20.902344 33.300781 C 21.296875 33.039062 21.71875 32.808594 22.167969 32.621094 C 22.621094 32.429688 23.101562 32.28125 23.605469 32.171875 C 24.105469 32.054688 24.636719 32 25.191406 32 C 26.011719 32 26.75 32.109375 27.40625 32.332031 C 28.074219 32.558594 28.636719 32.878906 29.097656 33.300781 C 29.558594 33.714844 29.914062 34.226562 30.160156 34.828125 C 30.417969 35.425781 30.546875 36.101562 30.546875 36.855469 C 30.546875 37.558594 30.429688 38.230469 30.199219 38.867188 C 29.976562 39.503906 29.667969 40.132812 29.265625 40.753906 C 28.871094 41.367188 28.398438 41.984375 27.84375 42.605469 C 27.296875 43.222656 26.703125 43.871094 26.0625 44.542969 L 22.464844 48.253906 L 22.464844 48.355469 L 31.289062 48.355469 Z M 31.289062 50.417969 "/><path style=" stroke:none;fill-rule:nonzero;fill:url(#linear0);" d="M 41.941406 50.417969 L 39.683594 50.417969 L 39.683594 39.078125 C 39.683594 38.722656 39.683594 38.34375 39.683594 37.9375 C 39.691406 37.53125 39.703125 37.128906 39.710938 36.730469 C 39.726562 36.328125 39.742188 35.941406 39.75 35.578125 C 39.765625 35.203125 39.777344 34.875 39.785156 34.597656 C 39.640625 34.746094 39.511719 34.871094 39.402344 34.980469 C 39.292969 35.089844 39.175781 35.191406 39.058594 35.289062 C 38.945312 35.390625 38.828125 35.496094 38.699219 35.613281 C 38.570312 35.722656 38.414062 35.847656 38.234375 36 L 36.339844 37.5 L 35.109375 35.972656 L 40.015625 32.261719 L 41.9375 32.261719 L 41.9375 50.417969 Z M 41.941406 50.417969 "/><path style=" stroke:none;fill-rule:nonzero;fill:url(#linear0);" d="M 21.332031 16 C 21.332031 17.472656 20.140625 18.667969 18.667969 18.667969 C 17.195312 18.667969 16 17.472656 16 16 C 16 14.527344 17.195312 13.332031 18.667969 13.332031 C 20.140625 13.332031 21.332031 14.527344 21.332031 16 Z M 21.332031 16 "/><path style=" stroke:none;fill-rule:nonzero;fill:url(#linear0);" d="M 28 16 C 28 17.472656 26.804688 18.667969 25.332031 18.667969 C 23.859375 18.667969 22.667969 17.472656 22.667969 16 C 22.667969 14.527344 23.859375 13.332031 25.332031 13.332031 C 26.804688 13.332031 28 14.527344 28 16 Z M 28 16 "/><path style=" stroke:none;fill-rule:nonzero;fill:url(#linear0);" d="M 18.667969 14.667969 L 25.332031 14.667969 C 26.070312 14.667969 26.667969 15.261719 26.667969 16 C 26.667969 16.738281 26.070312 17.332031 25.332031 17.332031 L 18.667969 17.332031 C 17.929688 17.332031 17.332031 16.738281 17.332031 16 C 17.332031 15.261719 17.929688 14.667969 18.667969 14.667969 Z M 18.667969 14.667969 "/><path style=" stroke:none;fill-rule:nonzero;fill:url(#linear0);" d="M 41.332031 16 C 41.332031 17.472656 40.140625 18.667969 38.667969 18.667969 C 37.195312 18.667969 36 17.472656 36 16 C 36 14.527344 37.195312 13.332031 38.667969 13.332031 C 40.140625 13.332031 41.332031 14.527344 41.332031 16 Z M 41.332031 16 "/><path style=" stroke:none;fill-rule:nonzero;fill:url(#linear0);" d="M 48 16 C 48 17.472656 46.804688 18.667969 45.332031 18.667969 C 43.859375 18.667969 42.667969 17.472656 42.667969 16 C 42.667969 14.527344 43.859375 13.332031 45.332031 13.332031 C 46.804688 13.332031 48 14.527344 48 16 Z M 48 16 "/><path style=" stroke:none;fill-rule:nonzero;fill:url(#linear0);" d="M 38.667969 14.667969 L 45.332031 14.667969 C 46.070312 14.667969 46.667969 15.261719 46.667969 16 C 46.667969 16.738281 46.070312 17.332031 45.332031 17.332031 L 38.667969 17.332031 C 37.929688 17.332031 37.332031 16.738281 37.332031 16 C 37.332031 15.261719 37.929688 14.667969 38.667969 14.667969 Z M 38.667969 14.667969 "/></g></svg>
