<svg xmlns="http://www.w3.org/2000/svg" xmlns:xlink="http://www.w3.org/1999/xlink" width="64" height="64" viewBox="0 0 64 64" version="1.1"><defs><linearGradient id="linear0" x1="0%" x2="0%" y1="0%" y2="100%"><stop offset="0%" style="stop-color:#00b54e; stop-opacity:1"/><stop offset="50%" style="stop-color:#0073ff; stop-opacity:1"/><stop offset="100%" style="stop-color:#ffd000; stop-opacity:1"/></linearGradient></defs><g id="surface1"><path style=" stroke:none;fill-rule:nonzero;fill:url(#linear0);" d="M 2.800781 22.667969 C 2.667969 23.109375 2.546875 23.554688 2.433594 24 L 61.597656 24 C 61.464844 23.550781 61.324219 23.109375 61.175781 22.667969 C 58.667969 20 5.332031 20 2.800781 22.667969 Z M 2.800781 22.667969 "/><path style=" stroke:none;fill-rule:nonzero;fill:url(#linear0);" d="M 30.695312 36.507812 C 30.695312 37.113281 30.597656 37.664062 30.398438 38.160156 C 30.203125 38.65625 29.925781 39.085938 29.566406 39.449219 C 29.214844 39.816406 28.792969 40.117188 28.300781 40.359375 C 27.804688 40.589844 27.253906 40.753906 26.648438 40.855469 L 26.648438 40.929688 C 28.160156 41.113281 29.308594 41.578125 30.09375 42.332031 C 30.878906 43.078125 31.269531 44.050781 31.269531 45.25 C 31.269531 46.046875 31.128906 46.777344 30.847656 47.4375 C 30.574219 48.101562 30.15625 48.671875 29.59375 49.152344 C 29.027344 49.632812 28.316406 50.003906 27.453125 50.269531 C 26.589844 50.535156 25.570312 50.667969 24.390625 50.667969 C 23.460938 50.667969 22.582031 50.597656 21.753906 50.457031 C 20.933594 50.3125 20.160156 50.058594 19.433594 49.6875 L 19.433594 47.574219 C 20.175781 47.957031 20.980469 48.25 21.84375 48.457031 C 22.714844 48.664062 23.546875 48.765625 24.339844 48.765625 C 25.125 48.765625 25.804688 48.683594 26.375 48.519531 C 26.949219 48.351562 27.417969 48.117188 27.785156 47.8125 C 28.160156 47.503906 28.433594 47.128906 28.605469 46.679688 C 28.785156 46.234375 28.875 45.730469 28.875 45.175781 C 28.875 44.613281 28.757812 44.132812 28.527344 43.738281 C 28.304688 43.332031 27.984375 43 27.566406 42.742188 C 27.148438 42.476562 26.636719 42.28125 26.03125 42.160156 C 25.433594 42.035156 24.753906 41.972656 23.996094 41.972656 L 22.292969 41.972656 L 22.292969 40.097656 L 23.996094 40.097656 C 24.6875 40.097656 25.300781 40.015625 25.839844 39.847656 C 26.378906 39.683594 26.824219 39.449219 27.183594 39.140625 C 27.550781 38.835938 27.828125 38.472656 28.015625 38.050781 C 28.203125 37.628906 28.296875 37.164062 28.296875 36.660156 C 28.296875 36.226562 28.222656 35.84375 28.066406 35.503906 C 27.914062 35.164062 27.695312 34.878906 27.414062 34.644531 C 27.132812 34.40625 26.796875 34.222656 26.402344 34.097656 C 26.011719 33.976562 25.574219 33.914062 25.097656 33.914062 C 24.183594 33.914062 23.375 34.054688 22.675781 34.335938 C 21.984375 34.609375 21.324219 34.96875 20.691406 35.417969 L 19.511719 33.863281 C 19.835938 33.609375 20.195312 33.367188 20.589844 33.144531 C 20.992188 32.921875 21.425781 32.726562 21.894531 32.558594 C 22.367188 32.386719 22.863281 32.25 23.394531 32.148438 C 23.933594 32.050781 24.5 32 25.097656 32 C 26.019531 32 26.828125 32.113281 27.519531 32.335938 C 28.21875 32.558594 28.804688 32.871094 29.273438 33.277344 C 29.742188 33.675781 30.097656 34.152344 30.335938 34.707031 C 30.578125 35.253906 30.695312 35.855469 30.695312 36.507812 Z M 30.695312 36.507812 "/><path style=" stroke:none;fill-rule:nonzero;fill:url(#linear0);" d="M 41.941406 50.417969 L 39.683594 50.417969 L 39.683594 39.078125 C 39.683594 38.722656 39.683594 38.339844 39.683594 37.9375 C 39.691406 37.53125 39.703125 37.128906 39.710938 36.730469 C 39.726562 36.324219 39.742188 35.941406 39.75 35.574219 C 39.765625 35.203125 39.777344 34.875 39.785156 34.59375 C 39.640625 34.742188 39.511719 34.871094 39.402344 34.980469 C 39.292969 35.085938 39.175781 35.191406 39.058594 35.289062 C 38.945312 35.390625 38.828125 35.496094 38.699219 35.613281 C 38.570312 35.71875 38.414062 35.847656 38.234375 35.996094 L 36.339844 37.5 L 35.109375 35.972656 L 40.015625 32.261719 L 41.9375 32.261719 L 41.9375 50.417969 Z M 41.941406 50.417969 "/><path style=" stroke:none;fill-rule:nonzero;fill:url(#linear0);" d="M 21.332031 16 C 21.332031 17.472656 20.140625 18.667969 18.667969 18.667969 C 17.195312 18.667969 16 17.472656 16 16 C 16 14.527344 17.195312 13.332031 18.667969 13.332031 C 20.140625 13.332031 21.332031 14.527344 21.332031 16 Z M 21.332031 16 "/><path style=" stroke:none;fill-rule:nonzero;fill:url(#linear0);" d="M 28 16 C 28 17.472656 26.804688 18.667969 25.332031 18.667969 C 23.859375 18.667969 22.667969 17.472656 22.667969 16 C 22.667969 14.527344 23.859375 13.332031 25.332031 13.332031 C 26.804688 13.332031 28 14.527344 28 16 Z M 28 16 "/><path style=" stroke:none;fill-rule:nonzero;fill:url(#linear0);" d="M 18.667969 14.667969 L 25.332031 14.667969 C 26.070312 14.667969 26.667969 15.261719 26.667969 16 C 26.667969 16.738281 26.070312 17.332031 25.332031 17.332031 L 18.667969 17.332031 C 17.929688 17.332031 17.332031 16.738281 17.332031 16 C 17.332031 15.261719 17.929688 14.667969 18.667969 14.667969 Z M 18.667969 14.667969 "/><path style=" stroke:none;fill-rule:nonzero;fill:url(#linear0);" d="M 41.332031 16 C 41.332031 17.472656 40.140625 18.667969 38.667969 18.667969 C 37.195312 18.667969 36 17.472656 36 16 C 36 14.527344 37.195312 13.332031 38.667969 13.332031 C 40.140625 13.332031 41.332031 14.527344 41.332031 16 Z M 41.332031 16 "/><path style=" stroke:none;fill-rule:nonzero;fill:url(#linear0);" d="M 48 16 C 48 17.472656 46.804688 18.667969 45.332031 18.667969 C 43.859375 18.667969 42.667969 17.472656 42.667969 16 C 42.667969 14.527344 43.859375 13.332031 45.332031 13.332031 C 46.804688 13.332031 48 14.527344 48 16 Z M 48 16 "/><path style=" stroke:none;fill-rule:nonzero;fill:url(#linear0);" d="M 38.667969 14.667969 L 45.332031 14.667969 C 46.070312 14.667969 46.667969 15.261719 46.667969 16 C 46.667969 16.738281 46.070312 17.332031 45.332031 17.332031 L 38.667969 17.332031 C 37.929688 17.332031 37.332031 16.738281 37.332031 16 C 37.332031 15.261719 37.929688 14.667969 38.667969 14.667969 Z M 38.667969 14.667969 "/></g></svg>
