<svg xmlns="http://www.w3.org/2000/svg" xmlns:xlink="http://www.w3.org/1999/xlink" width="64" height="64" viewBox="0 0 64 64" version="1.1"><defs><linearGradient id="linear0" x1="0%" x2="0%" y1="0%" y2="100%"><stop offset="0%" style="stop-color:#00b54e; stop-opacity:1"/><stop offset="50%" style="stop-color:#ffd000; stop-opacity:1"/><stop offset="100%" style="stop-color:#ff00bb; stop-opacity:1"/></linearGradient></defs><g id="surface1"><path style=" stroke:none;fill-rule:nonzero;fill:url(#linear0);" d="M 2.800781 22.667969 C 2.667969 23.109375 2.546875 23.554688 2.433594 24 L 61.597656 24 C 61.464844 23.550781 61.324219 23.109375 61.175781 22.667969 C 58.667969 20 5.332031 20 2.800781 22.667969 Z M 2.800781 22.667969 "/><path style=" stroke:none;fill-rule:nonzero;fill:url(#linear0);" d="M 32.847656 31.976562 C 33.566406 31.976562 34.238281 32.070312 34.871094 32.25 C 35.511719 32.433594 36.070312 32.707031 36.550781 33.070312 C 37.035156 33.433594 37.417969 33.890625 37.703125 34.4375 C 37.984375 34.980469 38.125 35.621094 38.125 36.347656 C 38.125 36.902344 38.039062 37.40625 37.867188 37.851562 C 37.695312 38.300781 37.460938 38.703125 37.164062 39.070312 C 36.863281 39.425781 36.511719 39.75 36.101562 40.039062 C 35.691406 40.320312 35.246094 40.578125 34.769531 40.808594 C 35.265625 41.0625 35.746094 41.351562 36.214844 41.664062 C 36.695312 41.980469 37.117188 42.335938 37.484375 42.730469 C 37.859375 43.121094 38.15625 43.558594 38.378906 44.046875 C 38.609375 44.535156 38.726562 45.082031 38.726562 45.683594 C 38.726562 46.445312 38.578125 47.136719 38.289062 47.761719 C 38.007812 48.371094 37.605469 48.894531 37.085938 49.324219 C 36.574219 49.753906 35.953125 50.085938 35.226562 50.320312 C 34.511719 50.550781 33.714844 50.667969 32.847656 50.667969 C 31.90625 50.667969 31.070312 50.554688 30.335938 50.332031 C 29.609375 50.109375 28.996094 49.789062 28.492188 49.375 C 27.996094 48.953125 27.617188 48.441406 27.351562 47.835938 C 27.09375 47.230469 26.964844 46.546875 26.964844 45.785156 C 26.964844 45.164062 27.0625 44.605469 27.25 44.109375 C 27.445312 43.613281 27.707031 43.164062 28.03125 42.769531 C 28.355469 42.371094 28.738281 42.019531 29.183594 41.710938 C 29.625 41.40625 30.09375 41.136719 30.589844 40.90625 C 30.171875 40.648438 29.78125 40.371094 29.410156 40.070312 C 29.042969 39.765625 28.726562 39.425781 28.453125 39.054688 C 28.1875 38.679688 27.972656 38.269531 27.8125 37.824219 C 27.65625 37.371094 27.582031 36.867188 27.582031 36.320312 C 27.582031 35.601562 27.722656 34.972656 28.003906 34.433594 C 28.292969 33.886719 28.683594 33.429688 29.167969 33.066406 C 29.65625 32.703125 30.214844 32.429688 30.847656 32.25 C 31.488281 32.066406 32.152344 31.976562 32.847656 31.976562 Z M 29.261719 45.8125 C 29.261719 46.25 29.328125 46.65625 29.464844 47.03125 C 29.601562 47.394531 29.816406 47.707031 30.105469 47.972656 C 30.394531 48.230469 30.761719 48.433594 31.207031 48.582031 C 31.648438 48.722656 32.179688 48.792969 32.792969 48.792969 C 33.390625 48.792969 33.917969 48.722656 34.367188 48.582031 C 34.832031 48.433594 35.214844 48.226562 35.519531 47.960938 C 35.828125 47.6875 36.058594 47.359375 36.214844 46.980469 C 36.367188 46.597656 36.441406 46.175781 36.441406 45.710938 C 36.441406 45.28125 36.359375 44.894531 36.1875 44.546875 C 36.023438 44.199219 35.785156 43.875 35.46875 43.578125 C 35.160156 43.277344 34.789062 42.996094 34.355469 42.730469 C 33.921875 42.46875 33.433594 42.207031 32.894531 41.949219 L 32.511719 41.777344 C 31.433594 42.273438 30.625 42.84375 30.078125 43.488281 C 29.53125 44.128906 29.257812 44.902344 29.257812 45.8125 Z M 32.820312 33.863281 C 31.917969 33.863281 31.195312 34.082031 30.65625 34.523438 C 30.128906 34.960938 29.863281 35.597656 29.863281 36.433594 C 29.863281 36.90625 29.9375 37.3125 30.082031 37.652344 C 30.234375 37.992188 30.441406 38.292969 30.707031 38.558594 C 30.972656 38.824219 31.289062 39.066406 31.65625 39.28125 C 32.03125 39.488281 32.4375 39.691406 32.871094 39.886719 C 33.28125 39.707031 33.667969 39.507812 34.023438 39.292969 C 34.390625 39.078125 34.707031 38.832031 34.972656 38.558594 C 35.246094 38.285156 35.460938 37.976562 35.613281 37.628906 C 35.765625 37.28125 35.84375 36.882812 35.84375 36.4375 C 35.84375 35.601562 35.574219 34.964844 35.035156 34.523438 C 34.5 34.085938 33.761719 33.867188 32.820312 33.867188 Z M 32.820312 33.863281 "/><path style=" stroke:none;fill-rule:nonzero;fill:url(#linear0);" d="M 21.332031 16 C 21.332031 17.472656 20.140625 18.667969 18.667969 18.667969 C 17.195312 18.667969 16 17.472656 16 16 C 16 14.527344 17.195312 13.332031 18.667969 13.332031 C 20.140625 13.332031 21.332031 14.527344 21.332031 16 Z M 21.332031 16 "/><path style=" stroke:none;fill-rule:nonzero;fill:url(#linear0);" d="M 28 16 C 28 17.472656 26.804688 18.667969 25.332031 18.667969 C 23.859375 18.667969 22.667969 17.472656 22.667969 16 C 22.667969 14.527344 23.859375 13.332031 25.332031 13.332031 C 26.804688 13.332031 28 14.527344 28 16 Z M 28 16 "/><path style=" stroke:none;fill-rule:nonzero;fill:url(#linear0);" d="M 18.667969 14.667969 L 25.332031 14.667969 C 26.070312 14.667969 26.667969 15.261719 26.667969 16 C 26.667969 16.738281 26.070312 17.332031 25.332031 17.332031 L 18.667969 17.332031 C 17.929688 17.332031 17.332031 16.738281 17.332031 16 C 17.332031 15.261719 17.929688 14.667969 18.667969 14.667969 Z M 18.667969 14.667969 "/><path style=" stroke:none;fill-rule:nonzero;fill:url(#linear0);" d="M 41.332031 16 C 41.332031 17.472656 40.140625 18.667969 38.667969 18.667969 C 37.195312 18.667969 36 17.472656 36 16 C 36 14.527344 37.195312 13.332031 38.667969 13.332031 C 40.140625 13.332031 41.332031 14.527344 41.332031 16 Z M 41.332031 16 "/><path style=" stroke:none;fill-rule:nonzero;fill:url(#linear0);" d="M 48 16 C 48 17.472656 46.804688 18.667969 45.332031 18.667969 C 43.859375 18.667969 42.667969 17.472656 42.667969 16 C 42.667969 14.527344 43.859375 13.332031 45.332031 13.332031 C 46.804688 13.332031 48 14.527344 48 16 Z M 48 16 "/><path style=" stroke:none;fill-rule:nonzero;fill:url(#linear0);" d="M 38.667969 14.667969 L 45.332031 14.667969 C 46.070312 14.667969 46.667969 15.261719 46.667969 16 C 46.667969 16.738281 46.070312 17.332031 45.332031 17.332031 L 38.667969 17.332031 C 37.929688 17.332031 37.332031 16.738281 37.332031 16 C 37.332031 15.261719 37.929688 14.667969 38.667969 14.667969 Z M 38.667969 14.667969 "/></g></svg>
