<svg xmlns="http://www.w3.org/2000/svg" xmlns:xlink="http://www.w3.org/1999/xlink" width="64" height="64" viewBox="0 0 64 64" version="1.1"><defs><linearGradient id="linear0" x1="0%" x2="100%" y1="0%" y2="100%"><stop offset="0%" style="stop-color:#ff0000; stop-opacity:1"/><stop offset="50%" style="stop-color:#ffd000; stop-opacity:1"/><stop offset="100%" style="stop-color:#ff00bb; stop-opacity:1"/></linearGradient></defs><g id="surface1"><path style=" stroke:none;fill-rule:nonzero;fill:url(#linear0);" d="M 2.800781 22.667969 C 2.667969 23.109375 2.546875 23.554688 2.433594 24 L 61.597656 24 C 61.464844 23.550781 61.324219 23.109375 61.175781 22.667969 C 58.667969 20 5.332031 20 2.800781 22.667969 Z M 2.800781 22.667969 "/><path style=" stroke:none;fill-rule:nonzero;fill:url(#linear0);" d="M 27.496094 50.417969 L 25.242188 50.417969 L 25.242188 39.078125 C 25.242188 38.722656 25.242188 38.34375 25.242188 37.9375 C 25.25 37.53125 25.257812 37.128906 25.265625 36.730469 C 25.285156 36.328125 25.296875 35.941406 25.304688 35.578125 C 25.320312 35.203125 25.332031 34.875 25.34375 34.597656 C 25.195312 34.746094 25.070312 34.871094 24.957031 34.980469 C 24.847656 35.089844 24.730469 35.191406 24.613281 35.289062 C 24.5 35.390625 24.382812 35.496094 24.253906 35.613281 C 24.125 35.722656 23.972656 35.847656 23.792969 36 L 21.894531 37.5 L 20.667969 35.972656 L 25.570312 32.261719 L 27.492188 32.261719 L 27.492188 50.417969 Z M 27.496094 50.417969 "/><path style=" stroke:none;fill-rule:nonzero;fill:url(#linear0);" d="M 41.941406 50.417969 L 39.6875 50.417969 L 39.6875 39.078125 C 39.6875 38.722656 39.6875 38.34375 39.6875 37.9375 C 39.695312 37.53125 39.703125 37.128906 39.714844 36.730469 C 39.730469 36.328125 39.742188 35.941406 39.75 35.578125 C 39.769531 35.203125 39.78125 34.875 39.789062 34.597656 C 39.644531 34.746094 39.515625 34.871094 39.40625 34.980469 C 39.292969 35.089844 39.179688 35.191406 39.058594 35.289062 C 38.949219 35.390625 38.828125 35.496094 38.699219 35.613281 C 38.574219 35.722656 38.417969 35.847656 38.238281 36 L 36.34375 37.5 L 35.113281 35.972656 L 40.019531 32.261719 L 41.941406 32.261719 Z M 41.941406 50.417969 "/><path style=" stroke:none;fill-rule:nonzero;fill:url(#linear0);" d="M 21.332031 16 C 21.332031 17.472656 20.140625 18.667969 18.667969 18.667969 C 17.195312 18.667969 16 17.472656 16 16 C 16 14.527344 17.195312 13.332031 18.667969 13.332031 C 20.140625 13.332031 21.332031 14.527344 21.332031 16 Z M 21.332031 16 "/><path style=" stroke:none;fill-rule:nonzero;fill:url(#linear0);" d="M 28 16 C 28 17.472656 26.804688 18.667969 25.332031 18.667969 C 23.859375 18.667969 22.667969 17.472656 22.667969 16 C 22.667969 14.527344 23.859375 13.332031 25.332031 13.332031 C 26.804688 13.332031 28 14.527344 28 16 Z M 28 16 "/><path style=" stroke:none;fill-rule:nonzero;fill:url(#linear0);" d="M 18.667969 14.667969 L 25.332031 14.667969 C 26.070312 14.667969 26.667969 15.261719 26.667969 16 C 26.667969 16.738281 26.070312 17.332031 25.332031 17.332031 L 18.667969 17.332031 C 17.929688 17.332031 17.332031 16.738281 17.332031 16 C 17.332031 15.261719 17.929688 14.667969 18.667969 14.667969 Z M 18.667969 14.667969 "/><path style=" stroke:none;fill-rule:nonzero;fill:url(#linear0);" d="M 41.332031 16 C 41.332031 17.472656 40.140625 18.667969 38.667969 18.667969 C 37.195312 18.667969 36 17.472656 36 16 C 36 14.527344 37.195312 13.332031 38.667969 13.332031 C 40.140625 13.332031 41.332031 14.527344 41.332031 16 Z M 41.332031 16 "/><path style=" stroke:none;fill-rule:nonzero;fill:url(#linear0);" d="M 48 16 C 48 17.472656 46.804688 18.667969 45.332031 18.667969 C 43.859375 18.667969 42.667969 17.472656 42.667969 16 C 42.667969 14.527344 43.859375 13.332031 45.332031 13.332031 C 46.804688 13.332031 48 14.527344 48 16 Z M 48 16 "/><path style=" stroke:none;fill-rule:nonzero;fill:url(#linear0);" d="M 38.667969 14.667969 L 45.332031 14.667969 C 46.070312 14.667969 46.667969 15.261719 46.667969 16 C 46.667969 16.738281 46.070312 17.332031 45.332031 17.332031 L 38.667969 17.332031 C 37.929688 17.332031 37.332031 16.738281 37.332031 16 C 37.332031 15.261719 37.929688 14.667969 38.667969 14.667969 Z M 38.667969 14.667969 "/></g></svg>
