<svg xmlns="http://www.w3.org/2000/svg" xmlns:xlink="http://www.w3.org/1999/xlink" width="64" height="64" viewBox="0 0 64 64" version="1.1"><defs><linearGradient id="linear0" x1="0%" x2="0%" y1="0%" y2="100%"><stop offset="0%" style="stop-color:#24dbdb; stop-opacity:1"/><stop offset="100%" style="stop-color:#174475; stop-opacity:1"/></linearGradient></defs><g id="surface1"><path style=" stroke:none;fill-rule:nonzero;fill:url(#linear0);" d="M 2.800781 22.667969 C 2.667969 23.109375 2.546875 23.554688 2.433594 24 L 61.597656 24 C 61.464844 23.550781 61.324219 23.109375 61.175781 22.667969 C 58.667969 20 5.332031 20 2.800781 22.667969 Z M 2.800781 22.667969 "/><path style=" stroke:none;fill-rule:nonzero;fill:url(#linear0);" d="M 39.535156 46.347656 L 36.8125 46.347656 L 36.8125 50.421875 L 34.558594 50.421875 L 34.558594 46.347656 L 25.914062 46.347656 L 25.914062 44.375 L 34.40625 32.164062 L 36.8125 32.164062 L 36.8125 44.289062 L 39.535156 44.289062 Z M 34.554688 44.289062 L 34.554688 39.867188 C 34.554688 39.402344 34.558594 38.917969 34.566406 38.414062 C 34.582031 37.898438 34.601562 37.402344 34.617188 36.921875 C 34.632812 36.433594 34.652344 35.980469 34.667969 35.558594 C 34.695312 35.136719 34.710938 34.785156 34.71875 34.5 L 34.605469 34.5 C 34.546875 34.667969 34.46875 34.851562 34.375 35.0625 C 34.289062 35.257812 34.191406 35.460938 34.078125 35.667969 C 33.976562 35.867188 33.871094 36.0625 33.757812 36.253906 C 33.648438 36.445312 33.546875 36.605469 33.453125 36.738281 L 28.1875 44.289062 Z M 34.554688 44.289062 "/><path style=" stroke:none;fill-rule:nonzero;fill:url(#linear0);" d="M 21.332031 16 C 21.332031 17.472656 20.140625 18.667969 18.667969 18.667969 C 17.195312 18.667969 16 17.472656 16 16 C 16 14.527344 17.195312 13.332031 18.667969 13.332031 C 20.140625 13.332031 21.332031 14.527344 21.332031 16 Z M 21.332031 16 "/><path style=" stroke:none;fill-rule:nonzero;fill:url(#linear0);" d="M 28 16 C 28 17.472656 26.804688 18.667969 25.332031 18.667969 C 23.859375 18.667969 22.667969 17.472656 22.667969 16 C 22.667969 14.527344 23.859375 13.332031 25.332031 13.332031 C 26.804688 13.332031 28 14.527344 28 16 Z M 28 16 "/><path style=" stroke:none;fill-rule:nonzero;fill:url(#linear0);" d="M 18.667969 14.667969 L 25.332031 14.667969 C 26.070312 14.667969 26.667969 15.261719 26.667969 16 C 26.667969 16.738281 26.070312 17.332031 25.332031 17.332031 L 18.667969 17.332031 C 17.929688 17.332031 17.332031 16.738281 17.332031 16 C 17.332031 15.261719 17.929688 14.667969 18.667969 14.667969 Z M 18.667969 14.667969 "/><path style=" stroke:none;fill-rule:nonzero;fill:url(#linear0);" d="M 41.332031 16 C 41.332031 17.472656 40.140625 18.667969 38.667969 18.667969 C 37.195312 18.667969 36 17.472656 36 16 C 36 14.527344 37.195312 13.332031 38.667969 13.332031 C 40.140625 13.332031 41.332031 14.527344 41.332031 16 Z M 41.332031 16 "/><path style=" stroke:none;fill-rule:nonzero;fill:url(#linear0);" d="M 48 16 C 48 17.472656 46.804688 18.667969 45.332031 18.667969 C 43.859375 18.667969 42.667969 17.472656 42.667969 16 C 42.667969 14.527344 43.859375 13.332031 45.332031 13.332031 C 46.804688 13.332031 48 14.527344 48 16 Z M 48 16 "/><path style=" stroke:none;fill-rule:nonzero;fill:url(#linear0);" d="M 38.667969 14.667969 L 45.332031 14.667969 C 46.070312 14.667969 46.667969 15.261719 46.667969 16 C 46.667969 16.738281 46.070312 17.332031 45.332031 17.332031 L 38.667969 17.332031 C 37.929688 17.332031 37.332031 16.738281 37.332031 16 C 37.332031 15.261719 37.929688 14.667969 38.667969 14.667969 Z M 38.667969 14.667969 "/></g></svg>
