<svg xmlns="http://www.w3.org/2000/svg" xmlns:xlink="http://www.w3.org/1999/xlink" width="64" height="64" viewBox="0 0 64 64" version="1.1"><defs><linearGradient id="linear0" x1="0%" x2="100%" y1="0%" y2="100%"><stop offset="0%" style="stop-color:#ae00ff; stop-opacity:1"/><stop offset="100%" style="stop-color:#0084ff; stop-opacity:1"/></linearGradient></defs><g id="surface1"><path style=" stroke:none;fill-rule:nonzero;fill:url(#linear0);" d="M 2.800781 22.667969 C 2.667969 23.109375 2.546875 23.554688 2.433594 24 L 61.597656 24 C 61.464844 23.550781 61.324219 23.109375 61.175781 22.667969 C 58.667969 20 5.332031 20 2.800781 22.667969 Z M 2.800781 22.667969 "/><path style=" stroke:none;fill-rule:nonzero;fill:url(#linear0);" d="M 31.289062 50.417969 L 19.609375 50.417969 L 19.609375 48.480469 L 24.09375 43.746094 C 24.730469 43.078125 25.304688 42.464844 25.808594 41.910156 C 26.3125 41.355469 26.738281 40.8125 27.089844 40.28125 C 27.449219 39.753906 27.722656 39.222656 27.910156 38.691406 C 28.097656 38.152344 28.191406 37.570312 28.191406 36.941406 C 28.191406 36.453125 28.117188 36.023438 27.972656 35.648438 C 27.828125 35.277344 27.617188 34.960938 27.347656 34.703125 C 27.082031 34.441406 26.765625 34.242188 26.398438 34.109375 C 26.03125 33.976562 25.621094 33.910156 25.167969 33.910156 C 24.355469 33.910156 23.621094 34.070312 22.964844 34.394531 C 22.316406 34.710938 21.699219 35.113281 21.109375 35.613281 L 19.800781 34.132812 C 20.144531 33.835938 20.507812 33.558594 20.902344 33.300781 C 21.296875 33.035156 21.71875 32.808594 22.167969 32.617188 C 22.621094 32.425781 23.101562 32.277344 23.605469 32.171875 C 24.105469 32.054688 24.636719 31.996094 25.191406 31.996094 C 26.011719 31.996094 26.75 32.109375 27.40625 32.332031 C 28.074219 32.554688 28.636719 32.878906 29.097656 33.300781 C 29.558594 33.714844 29.914062 34.222656 30.160156 34.828125 C 30.417969 35.425781 30.546875 36.097656 30.546875 36.851562 C 30.546875 37.554688 30.429688 38.226562 30.199219 38.863281 C 29.976562 39.5 29.667969 40.128906 29.265625 40.753906 C 28.871094 41.363281 28.398438 41.980469 27.84375 42.601562 C 27.296875 43.222656 26.703125 43.867188 26.0625 44.539062 L 22.464844 48.253906 L 22.464844 48.351562 L 31.289062 48.351562 Z M 31.289062 50.417969 "/><path style=" stroke:none;fill-rule:nonzero;fill:url(#linear0);" d="M 39.8125 39.277344 C 40.660156 39.277344 41.445312 39.390625 42.167969 39.625 C 42.902344 39.847656 43.539062 40.183594 44.078125 40.628906 C 44.625 41.078125 45.050781 41.632812 45.359375 42.296875 C 45.667969 42.957031 45.820312 43.722656 45.820312 44.59375 C 45.820312 45.535156 45.675781 46.386719 45.382812 47.140625 C 45.09375 47.890625 44.664062 48.53125 44.089844 49.050781 C 43.519531 49.574219 42.808594 49.976562 41.964844 50.257812 C 41.128906 50.53125 40.164062 50.667969 39.070312 50.667969 C 38.636719 50.667969 38.203125 50.644531 37.777344 50.605469 C 37.359375 50.5625 36.953125 50.5 36.558594 50.417969 C 36.175781 50.34375 35.808594 50.246094 35.460938 50.121094 C 35.109375 49.996094 34.792969 49.851562 34.511719 49.6875 L 34.511719 47.550781 C 34.792969 47.742188 35.121094 47.910156 35.496094 48.058594 C 35.882812 48.207031 36.28125 48.332031 36.699219 48.433594 C 37.117188 48.53125 37.539062 48.609375 37.957031 48.667969 C 38.382812 48.71875 38.777344 48.742188 39.132812 48.742188 C 39.808594 48.742188 40.410156 48.667969 40.941406 48.519531 C 41.46875 48.363281 41.917969 48.121094 42.285156 47.800781 C 42.652344 47.476562 42.933594 47.070312 43.128906 46.582031 C 43.328125 46.09375 43.425781 45.515625 43.425781 44.84375 C 43.425781 43.660156 43.050781 42.757812 42.296875 42.136719 C 41.546875 41.507812 40.453125 41.191406 39.019531 41.191406 C 38.789062 41.191406 38.535156 41.203125 38.261719 41.230469 C 38 41.246094 37.730469 41.269531 37.457031 41.304688 C 37.191406 41.335938 36.9375 41.375 36.6875 41.414062 C 36.449219 41.449219 36.238281 41.480469 36.058594 41.515625 L 34.90625 40.808594 L 35.613281 32.261719 L 44.449219 32.261719 L 44.449219 34.324219 L 37.640625 34.324219 L 37.140625 39.527344 C 37.414062 39.476562 37.773438 39.421875 38.214844 39.367188 C 38.667969 39.308594 39.203125 39.277344 39.816406 39.277344 Z M 39.8125 39.277344 "/><path style=" stroke:none;fill-rule:nonzero;fill:url(#linear0);" d="M 21.332031 16 C 21.332031 17.472656 20.140625 18.667969 18.667969 18.667969 C 17.195312 18.667969 16 17.472656 16 16 C 16 14.527344 17.195312 13.332031 18.667969 13.332031 C 20.140625 13.332031 21.332031 14.527344 21.332031 16 Z M 21.332031 16 "/><path style=" stroke:none;fill-rule:nonzero;fill:url(#linear0);" d="M 28 16 C 28 17.472656 26.804688 18.667969 25.332031 18.667969 C 23.859375 18.667969 22.667969 17.472656 22.667969 16 C 22.667969 14.527344 23.859375 13.332031 25.332031 13.332031 C 26.804688 13.332031 28 14.527344 28 16 Z M 28 16 "/><path style=" stroke:none;fill-rule:nonzero;fill:url(#linear0);" d="M 18.667969 14.667969 L 25.332031 14.667969 C 26.070312 14.667969 26.667969 15.261719 26.667969 16 C 26.667969 16.738281 26.070312 17.332031 25.332031 17.332031 L 18.667969 17.332031 C 17.929688 17.332031 17.332031 16.738281 17.332031 16 C 17.332031 15.261719 17.929688 14.667969 18.667969 14.667969 Z M 18.667969 14.667969 "/><path style=" stroke:none;fill-rule:nonzero;fill:url(#linear0);" d="M 41.332031 16 C 41.332031 17.472656 40.140625 18.667969 38.667969 18.667969 C 37.195312 18.667969 36 17.472656 36 16 C 36 14.527344 37.195312 13.332031 38.667969 13.332031 C 40.140625 13.332031 41.332031 14.527344 41.332031 16 Z M 41.332031 16 "/><path style=" stroke:none;fill-rule:nonzero;fill:url(#linear0);" d="M 48 16 C 48 17.472656 46.804688 18.667969 45.332031 18.667969 C 43.859375 18.667969 42.667969 17.472656 42.667969 16 C 42.667969 14.527344 43.859375 13.332031 45.332031 13.332031 C 46.804688 13.332031 48 14.527344 48 16 Z M 48 16 "/><path style=" stroke:none;fill-rule:nonzero;fill:url(#linear0);" d="M 38.667969 14.667969 L 45.332031 14.667969 C 46.070312 14.667969 46.667969 15.261719 46.667969 16 C 46.667969 16.738281 46.070312 17.332031 45.332031 17.332031 L 38.667969 17.332031 C 37.929688 17.332031 37.332031 16.738281 37.332031 16 C 37.332031 15.261719 37.929688 14.667969 38.667969 14.667969 Z M 38.667969 14.667969 "/></g></svg>
