<svg xmlns="http://www.w3.org/2000/svg" xmlns:xlink="http://www.w3.org/1999/xlink" width="64" height="64" viewBox="0 0 64 64" version="1.1"><defs><linearGradient id="linear0" x1="0%" x2="100%" y1="0%" y2="100%"><stop offset="0%" style="stop-color:#00b54e; stop-opacity:1"/><stop offset="100%" style="stop-color:#0073ff; stop-opacity:1"/></linearGradient></defs><g id="surface1"><path style=" stroke:none;fill-rule:nonzero;fill:url(#linear0);" d="M 1.492188 1.894531 L 1.492188 45.035156 L 21.148438 60.261719 L 21.148438 14.582031 M 5.855469 1.894531 L 23.335938 14.582031 L 32.070312 14.582031 L 49.550781 1.894531 C 40.8125 1.894531 36.445312 3.210938 27.703125 12.046875 C 18.972656 3.425781 14.59375 1.894531 5.855469 1.894531 M 53.921875 1.894531 L 34.257812 14.582031 L 34.257812 31.242188 C 34.769531 30.214844 35.410156 29.261719 36.167969 28.382812 C 40.929688 22.859375 48.617188 22.859375 53.378906 28.382812 C 53.5625 28.601562 53.75 28.796875 53.921875 29.015625 M 23.335938 17.117188 L 23.335938 62.804688 L 32.070312 62.804688 L 32.070312 17.117188 M 34.257812 45.511719 L 34.257812 60.265625 L 44.296875 52.496094 C 41.34375 52.363281 38.421875 50.996094 36.167969 48.363281 C 35.410156 47.496094 34.769531 46.53125 34.257812 45.511719 "/><path style=" stroke:none;fill-rule:nonzero;fill:url(#linear0);" d="M 55.894531 53.734375 L 58.214844 51.035156 L 63.339844 56.984375 L 61.015625 59.679688 "/><path style=" stroke:none;fill-rule:nonzero;fill:url(#linear0);" d="M 50.976562 47.222656 L 52.609375 45.320312 L 57.726562 51.273438 L 56.097656 53.164062 "/><path style=" stroke:none;fill-rule:nonzero;fill:url(#linear0);" d="M 37.964844 30.214844 C 34.097656 34.695312 34.097656 42.011719 37.964844 46.5 C 41.824219 50.988281 48.121094 50.988281 51.984375 46.5 C 55.847656 42.011719 55.847656 34.703125 51.984375 30.214844 C 48.121094 25.722656 41.824219 25.722656 37.96875 30.214844 Z M 39.429688 31.914062 C 42.5 28.34375 47.449219 28.34375 50.519531 31.914062 L 51.246094 31.058594 L 50.519531 31.914062 C 53.59375 35.484375 53.59375 41.230469 50.519531 44.796875 C 47.449219 48.375 42.5 48.375 39.429688 44.796875 C 36.347656 41.230469 36.347656 35.484375 39.429688 31.914062 Z M 39.429688 31.914062 "/></g></svg>
