<svg xmlns="http://www.w3.org/2000/svg" xmlns:xlink="http://www.w3.org/1999/xlink" width="64" height="64" viewBox="0 0 64 64" version="1.1"><defs><linearGradient id="linear0" x1="0%" x2="0%" y1="0%" y2="100%"><stop offset="0%" style="stop-color:#00b54e; stop-opacity:1"/><stop offset="50%" style="stop-color:#ffd000; stop-opacity:1"/><stop offset="100%" style="stop-color:#ff00bb; stop-opacity:1"/></linearGradient></defs><g id="surface1"><path style=" stroke:none;fill-rule:nonzero;fill:url(#linear0);" d="M 42.421875 2.789062 C 39.472656 2.789062 37.105469 5.121094 37.105469 8.015625 L 37.105469 15.863281 C 37.105469 18.765625 39.472656 21.09375 42.421875 21.09375 L 45.074219 21.09375 C 41.066406 32.246094 32.484375 40.679688 21.171875 44.632812 L 21.171875 42.019531 C 21.171875 39.117188 18.808594 36.789062 15.859375 36.789062 L 7.890625 36.789062 C 4.949219 36.789062 2.582031 39.117188 2.582031 42.019531 L 2.582031 55.09375 C 2.582031 57.996094 4.949219 60.328125 7.890625 60.328125 C 37.230469 60.328125 61.007812 36.910156 61.007812 8.015625 C 61.007812 5.121094 58.644531 2.789062 55.695312 2.789062 Z M 42.421875 2.789062 "/></g></svg>
