<svg xmlns="http://www.w3.org/2000/svg" xmlns:xlink="http://www.w3.org/1999/xlink" width="64" height="64" viewBox="0 0 64 64" version="1.1"><defs><linearGradient id="linear0" x1="100%" x2="0%" y1="100%" y2="0%"><stop offset="0%" style="stop-color:#00b54e; stop-opacity:1"/><stop offset="100%" style="stop-color:#ff0000; stop-opacity:1"/></linearGradient></defs><g id="surface1"><path style=" stroke:none;fill-rule:nonzero;fill:url(#linear0);" d="M 1.621094 29.164062 L 1.621094 33.171875 L 8.28125 35.839844 L 9.148438 38.925781 L 4.777344 44.21875 L 7.0625 48.039062 L 13.996094 47.03125 L 16.351562 49.292969 L 15.304688 55.96875 L 19.28125 58.171875 L 24.773438 53.964844 L 27.976562 54.792969 L 30.746094 61.203125 L 32.832031 61.203125 L 32.832031 59.199219 C 48.921875 59.199219 61.96875 46.636719 61.96875 31.148438 C 61.96875 15.660156 48.921875 3.09375 32.832031 3.09375 Z M 32.847656 7.125 C 46.648438 7.125 57.832031 17.886719 57.832031 31.171875 C 57.832031 44.457031 46.648438 55.214844 32.847656 55.214844 L 32.847656 49.203125 C 43.195312 49.203125 51.585938 41.125 51.585938 31.171875 C 51.585938 21.207031 43.195312 13.140625 32.847656 13.140625 Z M 32.847656 17.140625 C 40.90625 17.140625 47.421875 23.414062 47.421875 31.171875 C 47.421875 38.925781 40.90625 45.195312 32.847656 45.195312 L 32.847656 39.183594 C 28.25 39.183594 24.527344 35.597656 24.527344 31.171875 C 24.527344 26.738281 28.25 23.152344 32.847656 23.152344 Z M 32.847656 23.152344 L 32.847656 39.183594 C 37.445312 39.183594 41.175781 35.597656 41.175781 31.171875 C 41.175781 26.738281 37.445312 23.152344 32.847656 23.152344 Z M 32.847656 23.152344 "/><path style=" stroke:none;fill-rule:nonzero;fill:url(#linear0);" d="M 30.570312 1.914062 L 27.796875 8.320312 L 24.597656 9.15625 L 19.101562 4.949219 L 15.125 7.148438 L 16.175781 13.824219 L 13.820312 16.089844 L 6.886719 15.082031 L 4.597656 18.902344 L 8.972656 24.195312 L 8.101562 27.277344 L 1.445312 29.941406 L 1.445312 33.953125 L 8.101562 36.617188 L 8.972656 39.707031 L 4.597656 44.996094 L 6.886719 48.824219 L 13.820312 47.8125 L 16.175781 50.074219 L 15.125 56.746094 L 19.101562 58.949219 L 24.597656 54.746094 L 27.796875 55.574219 L 30.570312 61.984375 L 32.65625 61.984375 L 32.65625 39.941406 C 28.058594 39.941406 24.320312 36.355469 24.320312 31.929688 C 24.320312 27.5 28.058594 23.914062 32.65625 23.914062 L 32.65625 1.871094 L 30.570312 1.871094 Z M 30.570312 1.914062 "/></g></svg>
