<svg xmlns="http://www.w3.org/2000/svg" xmlns:xlink="http://www.w3.org/1999/xlink" width="64" height="64" viewBox="0 0 64 64" version="1.1"><defs><linearGradient id="linear0" x1="0%" x2="0%" y1="0%" y2="100%"><stop offset="0%" style="stop-color:#00b6c7; stop-opacity:1"/><stop offset="50%" style="stop-color:#ff0000; stop-opacity:1"/><stop offset="100%" style="stop-color:#6a00ff; stop-opacity:1"/></linearGradient></defs><g id="surface1"><path style=" stroke:none;fill-rule:nonzero;fill:url(#linear0);" d="M 36.746094 1.875 L 36.746094 4.46875 C 42.078125 6.484375 45.632812 11.882812 45.632812 17.933594 L 34.53125 32.875 C 35.902344 33.726562 36.746094 35.304688 36.746094 36.996094 L 37.546875 37.496094 C 40.078125 34.160156 43.855469 32.226562 47.851562 32.226562 C 55.203125 32.226562 61.179688 38.632812 61.179688 46.523438 C 61.167969 47.421875 61.066406 48.324219 60.898438 49.195312 L 62.453125 50.160156 C 63.074219 48.21875 63.390625 46.171875 63.40625 44.128906 C 63.398438 35.144531 57.5625 27.402344 49.386719 25.496094 C 49.835938 23.796875 50.070312 22.0625 50.070312 20.300781 C 50.070312 11.605469 44.582031 4.023438 36.742188 1.832031 Z M 27.867188 1.949219 C 20.042969 4.113281 14.558594 11.667969 14.535156 20.316406 L 15.226562 25.558594 C 7.054688 27.449219 1.234375 35.1875 1.207031 44.152344 C 1.222656 46.195312 1.542969 48.21875 2.160156 50.175781 L 3.714844 49.210938 C 3.546875 48.328125 3.445312 47.4375 3.433594 46.542969 C 3.433594 38.652344 9.410156 32.246094 16.761719 32.246094 C 20.757812 32.246094 24.558594 34.179688 27.066406 37.507812 L 27.863281 37.019531 C 27.878906 35.347656 28.71875 33.808594 30.078125 32.949219 L 30.078125 31.980469 C 23.679688 30.824219 18.996094 24.902344 18.972656 17.949219 C 19.011719 11.914062 22.570312 6.582031 27.863281 4.554688 Z M 32.304688 17.933594 L 21.800781 21.675781 C 22.28125 23.222656 23.046875 24.632812 24.046875 25.824219 C 26.394531 23.816406 29.3125 22.703125 32.304688 22.703125 C 35.304688 22.703125 38.242188 23.792969 40.597656 25.792969 L 42.835938 21.628906 C 39.796875 19.21875 36.105469 17.914062 32.304688 17.933594 Z M 16.757812 34.613281 L 14.535156 37 C 14.535156 44.527344 18.667969 51.34375 25.089844 54.417969 C 26.074219 53.210938 26.84375 51.792969 27.304688 50.21875 C 22.289062 48.042969 18.976562 42.835938 18.957031 37.019531 C 18.960938 36.316406 19.015625 35.613281 19.113281 34.921875 C 18.339844 34.738281 17.546875 34.640625 16.738281 34.640625 Z M 32.304688 34.613281 C 31.082031 34.613281 30.082031 35.679688 30.082031 37 C 30.082031 38.3125 31.082031 39.382812 32.304688 39.382812 C 33.535156 39.382812 34.53125 38.3125 34.53125 37 C 34.53125 35.679688 33.535156 34.613281 32.304688 34.613281 Z M 47.859375 34.613281 L 45.632812 37 C 45.621094 42.816406 42.328125 48.03125 37.28125 50.203125 C 37.75 51.765625 38.523438 53.175781 39.503906 54.390625 C 45.925781 51.34375 50.058594 44.527344 50.058594 37 C 50.050781 36.273438 50.011719 35.554688 49.933594 34.835938 C 49.25 34.695312 48.550781 34.613281 47.832031 34.613281 Z M 30.082031 46.53125 C 30.082031 54.417969 16.757812 60.828125 16.757812 60.828125 L 8.179688 57.441406 L 7.003906 58.179688 C 10.269531 61.398438 14.53125 63.207031 18.976562 63.226562 C 24.085938 63.226562 28.925781 60.875 32.304688 56.769531 C 35.679688 60.875 40.523438 63.226562 45.632812 63.226562 C 50.078125 63.214844 54.339844 61.410156 57.605469 58.179688 L 56.429688 57.441406 C 54.027344 59.617188 51.007812 60.828125 47.851562 60.828125 C 40.496094 60.828125 34.523438 54.417969 34.523438 46.53125 C 34.546875 44.867188 34.847656 43.21875 35.398438 41.667969 L 34.46875 41.09375 C 33.816406 41.507812 33.066406 41.742188 32.296875 41.761719 Z M 30.082031 46.53125 "/></g></svg>
