<svg xmlns="http://www.w3.org/2000/svg" xmlns:xlink="http://www.w3.org/1999/xlink" width="64" height="64" viewBox="0 0 64 64" version="1.1"><defs><linearGradient id="linear0" x1="0%" x2="0%" y1="0%" y2="100%"><stop offset="0%" style="stop-color:#00b54e; stop-opacity:1"/><stop offset="50%" style="stop-color:#0073ff; stop-opacity:1"/><stop offset="100%" style="stop-color:#ffd000; stop-opacity:1"/></linearGradient></defs><g id="surface1"><path style=" stroke:none;fill-rule:nonzero;fill:url(#linear0);" d="M 32.222656 1.507812 C 15.375 1.507812 1.675781 15.125 1.675781 31.875 C 1.675781 35.53125 2.339844 39.15625 3.632812 42.578125 C 3.875 43.277344 4.476562 43.785156 5.207031 43.914062 C 5.941406 44.039062 6.683594 43.761719 7.148438 43.1875 C 7.601562 42.613281 7.726562 41.835938 7.445312 41.15625 C 6.324219 38.191406 5.742188 35.039062 5.742188 31.875 C 5.742188 17.316406 17.574219 5.558594 32.222656 5.558594 C 39.339844 5.558594 46.0625 8.496094 51.027344 13.507812 L 45.773438 22.902344 L 41.496094 20.0625 C 40.621094 19.484375 39.4375 19.667969 38.777344 20.488281 L 31.519531 29.507812 L 26.757812 27.929688 C 25.75 27.59375 24.660156 28.085938 24.238281 29.054688 L 19.089844 40.984375 L 15.019531 38.285156 C 14.503906 37.945312 13.859375 37.859375 13.265625 38.046875 C 12.675781 38.234375 12.203125 38.683594 11.984375 39.257812 L 8.253906 49.113281 C 7.996094 49.789062 8.121094 50.554688 8.582031 51.117188 C 14.382812 58.152344 23.0625 62.238281 32.222656 62.238281 C 49.066406 62.238281 62.769531 48.625 62.769531 31.875 C 62.769531 27.394531 61.773438 22.972656 59.847656 18.921875 C 59.550781 18.257812 58.90625 17.796875 58.175781 17.734375 C 57.4375 17.667969 56.730469 18.007812 56.3125 18.609375 C 55.902344 19.210938 55.839844 19.996094 56.167969 20.648438 C 57.832031 24.15625 58.699219 28 58.699219 31.875 C 58.699219 46.433594 46.863281 58.191406 32.222656 58.191406 C 24.660156 58.191406 17.539062 54.902344 12.535156 49.316406 L 14.894531 43.066406 L 18.871094 45.707031 C 19.375 46.035156 20.003906 46.132812 20.582031 45.957031 C 21.160156 45.792969 21.640625 45.375 21.875 44.820312 L 27.25 32.359375 L 31.578125 33.796875 C 32.382812 34.0625 33.28125 33.800781 33.8125 33.136719 L 40.789062 24.464844 L 45.351562 27.488281 C 45.820312 27.800781 46.398438 27.902344 46.957031 27.773438 C 47.507812 27.632812 47.980469 27.28125 48.253906 26.785156 L 55.363281 14.085938 C 55.785156 13.339844 55.683594 12.410156 55.109375 11.765625 C 49.316406 5.246094 40.976562 1.507812 32.222656 1.507812 Z M 30.179688 7.582031 L 30.179688 13.652344 L 34.257812 13.652344 L 34.257812 7.582031 Z M 7.78125 29.855469 L 7.78125 33.898438 L 13.890625 33.898438 L 13.890625 29.855469 Z M 50.554688 29.855469 L 50.554688 33.898438 L 56.664062 33.898438 L 56.664062 29.855469 Z M 30.179688 50.09375 L 30.179688 56.167969 L 34.257812 56.167969 L 34.257812 50.09375 Z M 30.179688 50.09375 "/></g></svg>
