<svg xmlns="http://www.w3.org/2000/svg" xmlns:xlink="http://www.w3.org/1999/xlink" width="64" height="64" viewBox="0 0 64 64" version="1.1"><defs><linearGradient id="linear0" x1="0%" x2="0%" y1="0%" y2="100%"><stop offset="0%" style="stop-color:#00b54e; stop-opacity:1"/><stop offset="50%" style="stop-color:#ffd000; stop-opacity:1"/><stop offset="100%" style="stop-color:#ff00bb; stop-opacity:1"/></linearGradient></defs><g id="surface1"><path style=" stroke:none;fill-rule:nonzero;fill:url(#linear0);" d="M 32.253906 2.359375 C 15.40625 2.359375 1.742188 15.839844 1.742188 32.46875 C 1.746094 39.773438 4.4375 46.828125 9.328125 52.316406 C 8.992188 56.484375 6.628906 57.738281 4.292969 60.070312 C 9.328125 60.070312 13.269531 58.96875 15.347656 57.511719 C 20.359375 60.816406 26.234375 62.570312 32.253906 62.578125 C 49.101562 62.578125 62.765625 49.09375 62.765625 32.46875 C 62.765625 15.839844 49.101562 2.359375 32.253906 2.359375 Z M 32.253906 2.359375 "/><path style=" stroke:none;fill-rule:nonzero;fill:rgb(86.274511%,86.274511%,86.274511%);fill-opacity:1;" d="M 17 24.941406 C 14.1875 24.941406 11.921875 27.191406 11.921875 29.957031 C 11.921875 32.734375 14.1875 34.980469 17 34.980469 C 19.808594 34.980469 22.085938 32.734375 22.085938 29.957031 C 22.085938 27.191406 19.808594 24.941406 17 24.941406 Z M 42.433594 24.941406 C 39.625 24.941406 37.34375 27.191406 37.34375 29.957031 C 37.34375 32.734375 39.625 34.980469 42.433594 34.980469 C 45.238281 34.980469 47.511719 32.734375 47.511719 29.957031 C 47.511719 27.191406 45.238281 24.941406 42.433594 24.941406 Z M 42.433594 24.941406 "/></g></svg>
