<svg xmlns="http://www.w3.org/2000/svg" xmlns:xlink="http://www.w3.org/1999/xlink" width="64" height="64" viewBox="0 0 64 64" version="1.1"><defs><linearGradient id="linear0" x1="0%" x2="0%" y1="0%" y2="100%"><stop offset="0%" style="stop-color:#00b6c7; stop-opacity:1"/><stop offset="50%" style="stop-color:#ff0000; stop-opacity:1"/><stop offset="100%" style="stop-color:#6a00ff; stop-opacity:1"/></linearGradient></defs><g id="surface1"><path style=" stroke:none;fill-rule:nonzero;fill:url(#linear0);" d="M 32 1.328125 C 29.707031 1.328125 27.480469 1.585938 25.332031 2.0625 L 25.332031 16.488281 C 19.035156 19.484375 14.667969 25.886719 14.667969 33.332031 C 14.667969 40.773438 19.035156 47.179688 25.332031 50.179688 L 31.996094 62.671875 C 35.253906 62.671875 38.390625 62.15625 41.332031 61.21875 L 41.332031 50.179688 C 47.628906 47.183594 51.996094 40.78125 51.996094 33.335938 C 51.996094 25.894531 47.628906 19.488281 41.332031 16.488281 L 41.332031 2.777344 C 39.953125 2.339844 38.539062 1.988281 37.085938 1.746094 L 37.082031 1.746094 C 35.425781 1.46875 33.734375 1.328125 32 1.328125 Z M 32 1.328125 "/><path style=" stroke:none;fill-rule:nonzero;fill:rgb(86.666667%,86.666667%,86.666667%);fill-opacity:1;" d="M 32 25.332031 C 30.527344 25.332031 29.332031 26.527344 29.332031 28 C 29.332031 29.472656 30.527344 30.667969 32 30.667969 C 33.472656 30.667969 34.667969 29.472656 34.667969 28 C 34.667969 26.527344 33.472656 25.332031 32 25.332031 Z M 32 33.332031 C 31.265625 33.332031 30.667969 33.933594 30.667969 34.667969 C 30.667969 35.402344 31.265625 36 32 36 C 32.734375 36 33.332031 35.402344 33.332031 34.667969 C 33.332031 33.933594 32.734375 33.332031 32 33.332031 Z M 32 33.332031 "/></g></svg>
