<svg xmlns="http://www.w3.org/2000/svg" xmlns:xlink="http://www.w3.org/1999/xlink" width="64" height="64" viewBox="0 0 64 64" version="1.1"><defs><linearGradient id="linear0" x1="0%" x2="100%" y1="0%" y2="100%"><stop offset="0%" style="stop-color:#00b54e; stop-opacity:1"/><stop offset="100%" style="stop-color:#0073ff; stop-opacity:1"/></linearGradient></defs><g id="surface1"><path style=" stroke:none;fill-rule:nonzero;fill:url(#linear0);" d="M 1.332031 32 C 1.332031 33.359375 1.410156 34.691406 1.585938 36 L 62.417969 36 C 62.589844 34.6875 62.667969 33.359375 62.667969 32 Z M 2.085938 38.707031 C 2.28125 39.59375 2.519531 40.476562 2.792969 41.332031 C 2.519531 40.476562 2.289062 39.597656 2.085938 38.707031 Z M 2.792969 41.332031 C 3.234375 42.714844 3.792969 44.042969 4.417969 45.332031 L 59.589844 45.332031 C 60.214844 44.042969 60.773438 42.714844 61.214844 41.332031 Z M 61.210938 41.332031 C 61.484375 40.476562 61.71875 39.59375 61.917969 38.707031 C 61.714844 39.597656 61.484375 40.476562 61.210938 41.332031 Z M 7.664062 50.664062 C 8.765625 52.097656 9.996094 53.449219 11.328125 54.664062 L 52.664062 54.664062 C 53.996094 53.449219 55.226562 52.097656 56.328125 50.664062 Z M 7.664062 50.664062 "/></g></svg>
