<svg xmlns="http://www.w3.org/2000/svg" xmlns:xlink="http://www.w3.org/1999/xlink" width="64" height="64" viewBox="0 0 64 64" version="1.1"><defs><linearGradient id="linear0" x1="0%" x2="0%" y1="0%" y2="100%"><stop offset="0%" style="stop-color:#ffd000; stop-opacity:1"/><stop offset="50%" style="stop-color:#24dbdb; stop-opacity:1"/><stop offset="100%" style="stop-color:#0073ff; stop-opacity:1"/></linearGradient></defs><g id="surface1"><path style=" stroke:none;fill-rule:nonzero;fill:url(#linear0);" d="M 14.9375 2.089844 C 7.5 2.089844 1.539062 6.496094 1.539062 11.960938 L 1.539062 43.992188 C 1.539062 49.457031 7.5 53.859375 14.9375 53.859375 L 34.519531 53.859375 L 57.351562 63.28125 L 53.316406 53.292969 C 58.621094 51.976562 62.425781 48.351562 62.425781 43.992188 L 62.425781 11.960938 C 62.425781 6.496094 56.464844 2.089844 49.035156 2.089844 Z M 16.757812 11.511719 L 26.910156 11.511719 L 26.910156 13.871094 L 49.738281 13.871094 C 51.289062 13.871094 52.277344 14.859375 52.277344 16.222656 L 52.277344 39.773438 C 52.277344 41.175781 51.289062 42.128906 49.738281 42.128906 L 14.226562 42.128906 C 12.734375 42.128906 11.683594 41.210938 11.683594 39.773438 L 11.683594 16.222656 C 11.683594 14.804688 12.507812 13.871094 14.226562 13.871094 L 16.757812 13.871094 Z M 47.203125 16.222656 C 45.808594 16.222656 44.667969 17.28125 44.667969 18.578125 C 44.667969 19.875 45.808594 20.933594 47.203125 20.933594 C 48.597656 20.933594 49.738281 19.875 49.738281 18.578125 C 49.738281 17.28125 48.597656 16.222656 47.203125 16.222656 Z M 31.984375 18.578125 C 26.375 18.578125 21.835938 22.792969 21.835938 28 C 21.835938 33.207031 26.375 37.421875 31.984375 37.421875 C 37.589844 37.421875 42.128906 33.207031 42.128906 28 C 42.128906 22.792969 37.589844 18.578125 31.984375 18.578125 Z M 31.984375 18.578125 "/></g></svg>
