<svg xmlns="http://www.w3.org/2000/svg" xmlns:xlink="http://www.w3.org/1999/xlink" width="64" height="64" viewBox="0 0 64 64" version="1.1"><defs><linearGradient id="linear0" x1="0%" x2="100%" y1="0%" y2="100%"><stop offset="0%" style="stop-color:#ae00ff; stop-opacity:1"/><stop offset="100%" style="stop-color:#0084ff; stop-opacity:1"/></linearGradient></defs><g id="surface1"><path style=" stroke:none;fill-rule:nonzero;fill:url(#linear0);" d="M 32.101562 1.886719 C 31.402344 1.886719 30.722656 1.902344 30.039062 1.953125 L 30.039062 6.042969 C 30.710938 5.992188 31.414062 5.984375 32.101562 5.984375 C 32.792969 5.984375 33.492188 5.996094 34.164062 6.042969 L 34.164062 1.953125 C 33.484375 1.902344 32.800781 1.886719 32.101562 1.886719 Z M 28.097656 2.140625 C 27.347656 2.238281 26.578125 2.375 25.835938 2.527344 C 25.226562 2.652344 24.632812 2.816406 24.03125 2.976562 L 24.871094 7.007812 C 26.195312 6.640625 27.539062 6.339844 28.9375 6.175781 L 28.097656 2.144531 Z M 36.101562 2.140625 L 35.265625 6.171875 C 36.664062 6.332031 38.007812 6.640625 39.332031 7.003906 L 40.167969 2.972656 C 39.570312 2.816406 38.972656 2.648438 38.363281 2.527344 C 37.628906 2.375 36.859375 2.238281 36.101562 2.140625 Z M 22.222656 3.550781 C 21.484375 3.796875 20.746094 4.019531 20.027344 4.316406 C 19.457031 4.558594 18.90625 4.8125 18.351562 5.085938 L 19.964844 8.863281 C 21.191406 8.246094 22.445312 7.753906 23.773438 7.328125 Z M 41.976562 3.550781 L 40.429688 7.328125 C 41.753906 7.753906 43.007812 8.246094 44.238281 8.863281 L 45.847656 5.085938 C 45.300781 4.8125 44.742188 4.558594 44.171875 4.316406 C 43.457031 4.019531 42.714844 3.796875 41.976562 3.550781 Z M 16.675781 5.984375 C 16.03125 6.351562 15.417969 6.722656 14.804688 7.136719 C 14.273438 7.492188 13.761719 7.898438 13.257812 8.289062 L 15.515625 11.679688 C 16.589844 10.84375 17.742188 10.046875 18.933594 9.375 L 16.675781 5.988281 Z M 47.53125 5.984375 L 45.269531 9.375 C 46.464844 10.039062 47.617188 10.84375 48.6875 11.675781 L 50.949219 8.289062 C 50.441406 7.898438 49.933594 7.492188 49.402344 7.136719 C 48.789062 6.722656 48.171875 6.351562 47.53125 5.984375 Z M 32.101562 8.03125 C 18.414062 8.03125 7.316406 19.03125 7.316406 32.597656 C 7.316406 46.171875 18.414062 57.167969 32.101562 57.167969 C 45.789062 57.167969 56.886719 46.171875 56.886719 32.597656 C 56.886719 19.03125 45.789062 8.03125 32.101562 8.03125 Z M 11.769531 9.566406 C 11.253906 10.015625 10.707031 10.425781 10.222656 10.910156 C 9.734375 11.390625 9.320312 11.933594 8.863281 12.445312 L 11.703125 15.261719 C 12.601562 14.222656 13.5625 13.269531 14.609375 12.382812 Z M 52.433594 9.566406 L 49.59375 12.382812 C 50.640625 13.269531 51.601562 14.222656 52.5 15.261719 L 55.339844 12.445312 C 54.886719 11.933594 54.464844 11.390625 53.984375 10.910156 C 53.5 10.425781 52.949219 10.015625 52.433594 9.566406 Z M 32.101562 10.082031 C 44.652344 10.082031 54.820312 20.164062 54.820312 32.597656 C 54.820312 45.039062 44.652344 55.125 32.101562 55.125 C 19.554688 55.125 9.382812 45.039062 9.382812 32.597656 C 9.382812 20.164062 19.554688 10.082031 32.101562 10.082031 Z M 32.101562 12.125 C 20.695312 12.125 11.449219 21.292969 11.449219 32.597656 C 11.449219 43.910156 20.695312 53.078125 32.101562 53.078125 C 43.511719 53.078125 52.753906 43.910156 52.753906 32.597656 C 52.753906 21.292969 43.511719 12.125 32.101562 12.125 Z M 7.578125 13.917969 C 7.183594 14.421875 6.773438 14.921875 6.410156 15.453125 C 5.996094 16.0625 5.617188 16.671875 5.246094 17.304688 L 8.671875 19.546875 C 9.34375 18.363281 10.148438 17.21875 10.992188 16.160156 L 7.574219 13.917969 Z M 56.628906 13.917969 L 53.207031 16.160156 C 54.050781 17.21875 54.859375 18.363281 55.535156 19.546875 L 58.953125 17.304688 C 58.582031 16.671875 58.207031 16.0625 57.789062 15.453125 C 57.429688 14.921875 57.019531 14.421875 56.628906 13.917969 Z M 32.101562 14.171875 C 42.371094 14.171875 50.6875 22.425781 50.6875 32.597656 C 50.6875 42.777344 42.371094 51.027344 32.101562 51.027344 C 21.835938 51.027344 13.511719 42.773438 13.511719 32.597656 C 13.511719 22.425781 21.835938 14.171875 32.101562 14.171875 Z M 32.101562 16.21875 C 22.976562 16.21875 15.578125 23.554688 15.578125 32.597656 C 15.578125 41.644531 22.976562 48.980469 32.101562 48.980469 C 41.226562 48.980469 48.628906 41.644531 48.628906 32.597656 C 48.628906 23.554688 41.226562 16.21875 32.101562 16.21875 Z M 32.101562 18.265625 C 40.085938 18.265625 46.5625 24.6875 46.5625 32.597656 C 46.5625 40.519531 40.085938 46.933594 32.101562 46.933594 C 24.117188 46.933594 17.644531 40.519531 17.644531 32.597656 C 17.644531 24.6875 24.117188 18.265625 32.101562 18.265625 Z M 4.347656 18.972656 C 4.070312 19.519531 3.8125 20.070312 3.570312 20.636719 C 3.273438 21.34375 3.046875 22.078125 2.796875 22.816406 L 6.605469 24.347656 C 7.035156 23.035156 7.535156 21.789062 8.15625 20.574219 L 4.347656 18.976562 Z M 59.855469 18.972656 L 56.046875 20.570312 C 56.671875 21.789062 57.164062 23.035156 57.597656 24.347656 L 61.402344 22.808594 C 61.15625 22.078125 60.933594 21.34375 60.628906 20.636719 C 60.386719 20.070312 60.128906 19.519531 59.855469 18.972656 Z M 32.101562 20.316406 C 31.398438 20.316406 30.699219 20.394531 30.035156 20.507812 L 30.035156 44.695312 C 30.699219 44.808594 31.398438 44.886719 32.101562 44.886719 C 32.800781 44.886719 33.496094 44.808594 34.164062 44.695312 L 34.164062 20.507812 C 33.496094 20.394531 32.800781 20.316406 32.101562 20.316406 Z M 27.96875 21.082031 C 27.25 21.335938 26.554688 21.605469 25.902344 21.980469 L 25.902344 43.222656 C 26.554688 43.597656 27.25 43.863281 27.96875 44.121094 Z M 36.230469 21.082031 L 36.230469 44.117188 C 36.957031 43.863281 37.636719 43.53125 38.296875 43.15625 L 38.296875 22.042969 C 37.636719 21.667969 36.957031 21.335938 36.230469 21.078125 Z M 23.835938 23.449219 C 23.046875 24.152344 22.363281 24.941406 21.773438 25.816406 L 21.773438 39.382812 C 22.363281 40.257812 23.046875 41.046875 23.835938 41.75 Z M 40.363281 23.515625 L 40.363281 41.683594 C 41.136719 41.003906 41.851562 40.242188 42.425781 39.382812 L 42.425781 25.816406 C 41.851562 24.957031 41.136719 24.195312 40.363281 23.515625 Z M 2.214844 24.601562 C 2.054688 25.195312 1.890625 25.785156 1.765625 26.390625 C 1.613281 27.121094 1.472656 27.882812 1.375 28.632812 L 5.441406 29.460938 C 5.605469 28.078125 5.914062 26.746094 6.28125 25.429688 Z M 61.988281 24.601562 L 57.917969 25.429688 C 58.289062 26.746094 58.59375 28.078125 58.757812 29.460938 L 62.824219 28.632812 C 62.726562 27.882812 62.585938 27.121094 62.4375 26.390625 C 62.3125 25.785156 62.140625 25.195312 61.984375 24.601562 Z M 20.285156 28.953125 C 19.921875 30.105469 19.703125 31.328125 19.703125 32.597656 C 19.703125 33.871094 19.921875 35.09375 20.285156 36.246094 L 20.285156 28.949219 Z M 43.90625 28.953125 L 43.90625 36.246094 C 44.269531 35.09375 44.488281 33.871094 44.488281 32.597656 C 44.488281 31.328125 44.269531 30.105469 43.90625 28.953125 Z M 1.179688 30.546875 C 1.132812 31.230469 1.117188 31.90625 1.117188 32.597656 C 1.117188 33.292969 1.132812 33.96875 1.179688 34.644531 L 5.308594 34.644531 C 5.257812 33.976562 5.242188 33.28125 5.242188 32.597656 C 5.242188 31.914062 5.261719 31.21875 5.308594 30.546875 Z M 58.882812 30.546875 C 58.9375 31.21875 58.949219 31.914062 58.949219 32.597656 C 58.949219 33.28125 58.929688 33.976562 58.882812 34.644531 L 63.015625 34.644531 C 63.058594 33.96875 63.074219 33.292969 63.074219 32.597656 C 63.074219 31.90625 63.058594 31.230469 63.015625 30.546875 Z M 5.4375 35.734375 L 1.371094 36.566406 C 1.46875 37.308594 1.609375 38.074219 1.757812 38.804688 C 1.886719 39.410156 2.054688 40 2.214844 40.597656 L 6.28125 39.765625 C 5.910156 38.453125 5.605469 37.117188 5.441406 35.734375 Z M 58.753906 35.734375 C 58.589844 37.117188 58.28125 38.453125 57.914062 39.765625 L 61.984375 40.597656 C 62.140625 40 62.3125 39.410156 62.4375 38.804688 C 62.585938 38.078125 62.726562 37.308594 62.824219 36.566406 L 58.757812 35.734375 Z M 6.601562 40.851562 L 2.792969 42.390625 C 3.042969 43.121094 3.269531 43.855469 3.566406 44.5625 C 3.808594 45.128906 4.066406 45.679688 4.34375 46.226562 L 8.152344 44.628906 C 7.53125 43.414062 7.03125 42.171875 6.601562 40.855469 Z M 57.597656 40.851562 C 57.164062 42.164062 56.667969 43.410156 56.042969 44.628906 L 59.851562 46.226562 C 60.128906 45.679688 60.386719 45.128906 60.628906 44.5625 C 60.929688 43.855469 61.152344 43.121094 61.402344 42.382812 Z M 8.667969 45.648438 L 5.246094 47.886719 C 5.617188 48.527344 5.996094 49.136719 6.410156 49.746094 C 6.769531 50.273438 7.179688 50.777344 7.574219 51.28125 L 10.992188 49.039062 C 10.148438 47.980469 9.34375 46.832031 8.671875 45.648438 Z M 55.53125 45.648438 C 54.855469 46.835938 54.046875 47.980469 53.203125 49.039062 L 56.625 51.28125 C 57.015625 50.777344 57.425781 50.273438 57.785156 49.746094 C 58.207031 49.136719 58.578125 48.527344 58.949219 47.886719 Z M 11.699219 49.9375 L 8.859375 52.753906 C 9.308594 53.265625 9.730469 53.808594 10.214844 54.289062 C 10.703125 54.769531 11.246094 55.183594 11.765625 55.632812 L 14.605469 52.816406 C 13.558594 51.925781 12.597656 50.976562 11.699219 49.9375 Z M 52.492188 49.9375 C 51.59375 50.976562 50.636719 51.925781 49.585938 52.816406 L 52.425781 55.632812 C 52.945312 55.183594 53.488281 54.769531 53.976562 54.289062 C 54.460938 53.808594 54.882812 53.265625 55.332031 52.753906 Z M 15.507812 53.519531 L 13.246094 56.910156 C 13.757812 57.300781 14.261719 57.703125 14.800781 58.0625 C 15.414062 58.476562 16.027344 58.847656 16.671875 59.214844 L 18.925781 55.828125 C 17.734375 55.160156 16.578125 54.359375 15.507812 53.523438 Z M 48.679688 53.519531 C 47.609375 54.355469 46.453125 55.160156 45.261719 55.824219 L 47.515625 59.214844 C 48.160156 58.847656 48.773438 58.476562 49.386719 58.0625 C 49.925781 57.703125 50.429688 57.296875 50.941406 56.910156 Z M 19.957031 56.335938 L 18.34375 60.109375 C 18.894531 60.386719 19.449219 60.640625 20.023438 60.882812 C 20.738281 61.179688 21.476562 61.402344 22.21875 61.648438 L 23.765625 57.871094 C 22.441406 57.445312 21.1875 56.953125 19.960938 56.335938 Z M 44.226562 56.335938 C 43 56.953125 41.742188 57.445312 40.414062 57.871094 L 41.96875 61.648438 C 42.707031 61.402344 43.445312 61.179688 44.164062 60.882812 C 44.734375 60.640625 45.285156 60.386719 45.839844 60.109375 Z M 24.859375 58.191406 L 24.023438 62.222656 C 24.621094 62.382812 25.21875 62.546875 25.832031 62.671875 C 26.566406 62.824219 27.335938 62.957031 28.089844 63.054688 L 28.925781 59.023438 C 27.53125 58.859375 26.1875 58.558594 24.859375 58.195312 Z M 39.320312 58.191406 C 37.996094 58.558594 36.652344 58.859375 35.253906 59.023438 L 36.09375 63.054688 C 36.84375 62.957031 37.613281 62.816406 38.355469 62.667969 C 38.964844 62.546875 39.558594 62.378906 40.160156 62.222656 Z M 30.027344 59.148438 L 30.027344 63.246094 C 30.710938 63.292969 31.394531 63.308594 32.089844 63.308594 C 32.792969 63.308594 33.46875 63.292969 34.15625 63.246094 L 34.15625 59.148438 C 33.484375 59.203125 32.78125 59.214844 32.089844 59.214844 C 31.398438 59.214844 30.699219 59.203125 30.027344 59.148438 Z M 30.027344 59.148438 "/><path style=" stroke:none;fill-rule:nonzero;fill:url(#linear0);" d="M 32.308594 14.019531 C 22.53125 14.019531 14.605469 22.054688 14.605469 31.96875 C 14.605469 41.878906 22.53125 49.917969 32.308594 49.917969 C 42.082031 49.917969 50.011719 41.878906 50.011719 31.96875 C 50.011719 22.054688 42.082031 14.019531 32.308594 14.019531 Z M 32.308594 15.515625 C 41.269531 15.515625 48.535156 22.878906 48.535156 31.96875 C 48.535156 41.058594 41.269531 48.421875 32.308594 48.421875 C 23.34375 48.421875 16.078125 41.058594 16.078125 31.96875 C 16.078125 22.878906 23.34375 15.515625 32.308594 15.515625 Z M 32.308594 17.011719 C 24.160156 17.011719 17.554688 23.707031 17.554688 31.96875 C 17.554688 40.230469 24.160156 46.925781 32.308594 46.925781 C 40.453125 46.925781 47.058594 40.230469 47.058594 31.96875 C 47.058594 23.707031 40.453125 17.011719 32.308594 17.011719 Z M 32.308594 18.507812 C 39.640625 18.507812 45.585938 24.535156 45.585938 31.96875 C 45.585938 39.40625 39.636719 45.429688 32.308594 45.429688 C 24.972656 45.429688 19.03125 39.402344 19.03125 31.96875 C 19.03125 24.53125 24.976562 18.507812 32.308594 18.507812 Z M 32.308594 20 C 25.789062 20 20.503906 25.359375 20.503906 31.96875 C 20.503906 38.578125 25.789062 43.9375 32.308594 43.9375 C 38.824219 43.9375 44.109375 38.578125 44.109375 31.96875 C 44.109375 25.359375 38.824219 20 32.308594 20 Z M 32.308594 21.5 C 38.011719 21.5 42.632812 26.183594 42.632812 31.96875 C 42.632812 37.753906 38.011719 42.4375 32.308594 42.4375 C 26.601562 42.4375 21.980469 37.753906 21.980469 31.96875 C 21.980469 26.183594 26.601562 21.5 32.308594 21.5 Z M 32.308594 21.5 "/><path style=" stroke:none;fill-rule:nonzero;fill:url(#linear0);" d="M 21.289062 12.527344 C 20.828125 12.792969 20.390625 13.066406 19.949219 13.367188 C 19.570312 13.625 19.207031 13.921875 18.84375 14.207031 L 20.460938 16.683594 C 21.226562 16.074219 22.050781 15.492188 22.902344 15 Z M 44.152344 47.253906 C 43.390625 47.867188 42.5625 48.449219 41.710938 48.9375 L 43.324219 51.417969 C 43.785156 51.144531 44.222656 50.871094 44.664062 50.574219 C 45.042969 50.3125 45.40625 50.015625 45.769531 49.730469 Z M 44.152344 47.253906 "/><path style=" stroke:none;fill-rule:nonzero;fill:url(#linear0);" d="M 49.824219 18.320312 L 47.382812 19.957031 C 47.984375 20.734375 48.5625 21.570312 49.042969 22.433594 L 51.484375 20.796875 C 51.222656 20.328125 50.953125 19.886719 50.65625 19.441406 C 50.398438 19.054688 50.105469 18.6875 49.824219 18.320312 Z M 15.574219 41.503906 L 13.125 43.136719 C 13.394531 43.605469 13.664062 44.050781 13.957031 44.496094 C 14.214844 44.882812 14.507812 45.25 14.789062 45.617188 L 17.230469 43.980469 C 16.632812 43.203125 16.050781 42.367188 15.574219 41.503906 Z M 15.574219 41.503906 "/><path style=" stroke:none;fill-rule:nonzero;fill:url(#linear0);" d="M 10.960938 26.117188 C 10.847656 26.550781 10.726562 26.984375 10.636719 27.429688 C 10.53125 27.964844 10.433594 28.519531 10.359375 29.0625 L 13.265625 29.671875 C 13.382812 28.660156 13.601562 27.6875 13.867188 26.726562 Z M 51.347656 34.257812 C 51.230469 35.269531 51.007812 36.242188 50.75 37.199219 L 53.652344 37.804688 C 53.765625 37.371094 53.886719 36.941406 53.976562 36.5 C 54.082031 35.964844 54.179688 35.410156 54.253906 34.859375 L 51.351562 34.257812 Z M 51.347656 34.257812 "/><path style=" stroke:none;fill-rule:nonzero;fill:url(#linear0);" d="M 35.167969 9.722656 L 34.566406 12.664062 C 35.566406 12.785156 36.527344 13.007812 37.472656 13.269531 L 38.074219 10.324219 C 37.644531 10.210938 37.21875 10.089844 36.78125 9.996094 C 36.253906 9.890625 35.703125 9.792969 35.167969 9.714844 Z M 27.144531 50.667969 L 26.546875 53.613281 C 26.972656 53.726562 27.398438 53.847656 27.835938 53.941406 C 28.363281 54.046875 28.910156 54.144531 29.449219 54.21875 L 30.046875 51.277344 C 29.046875 51.15625 28.089844 50.933594 27.144531 50.667969 Z M 27.144531 50.667969 "/><path style=" stroke:none;fill-rule:nonzero;fill:url(#linear0);" d="M 14.792969 18.320312 C 14.519531 18.6875 14.222656 19.054688 13.964844 19.441406 C 13.671875 19.886719 13.398438 20.328125 13.136719 20.796875 L 15.578125 22.433594 C 16.0625 21.566406 16.636719 20.734375 17.238281 19.957031 Z M 49.050781 41.503906 C 48.570312 42.371094 47.992188 43.203125 47.390625 43.980469 L 49.832031 45.617188 C 50.113281 45.25 50.40625 44.882812 50.667969 44.496094 C 50.960938 44.050781 51.230469 43.605469 51.496094 43.136719 Z M 49.050781 41.503906 "/><path style=" stroke:none;fill-rule:nonzero;fill:url(#linear0);" d="M 43.324219 12.527344 L 41.710938 15 C 42.566406 15.488281 43.390625 16.074219 44.152344 16.683594 L 45.769531 14.207031 C 45.40625 13.921875 45.042969 13.625 44.664062 13.363281 C 44.222656 13.066406 43.785156 12.792969 43.324219 12.519531 Z M 20.460938 47.253906 L 18.84375 49.734375 C 19.207031 50.019531 19.570312 50.3125 19.949219 50.574219 C 20.390625 50.871094 20.828125 51.148438 21.289062 51.417969 L 22.902344 48.941406 C 22.046875 48.449219 21.226562 47.867188 20.460938 47.257812 Z M 20.460938 47.253906 "/><path style=" stroke:none;fill-rule:nonzero;fill:url(#linear0);" d="M 53.652344 26.117188 L 50.75 26.726562 C 51.011719 27.6875 51.230469 28.660156 51.347656 29.671875 L 54.25 29.0625 C 54.179688 28.519531 54.082031 27.964844 53.972656 27.429688 C 53.882812 26.984375 53.765625 26.550781 53.648438 26.117188 Z M 13.269531 34.257812 L 10.363281 34.859375 C 10.433594 35.410156 10.53125 35.964844 10.640625 36.5 C 10.730469 36.941406 10.847656 37.371094 10.964844 37.804688 L 13.871094 37.199219 C 13.605469 36.242188 13.386719 35.269531 13.269531 34.257812 Z M 13.269531 34.257812 "/><path style=" stroke:none;fill-rule:nonzero;fill:url(#linear0);" d="M 29.445312 9.722656 C 28.90625 9.792969 28.355469 9.890625 27.828125 10 C 27.394531 10.09375 26.96875 10.210938 26.542969 10.332031 L 27.136719 13.273438 C 28.085938 13.007812 29.042969 12.785156 30.042969 12.664062 Z M 37.46875 50.667969 C 36.523438 50.933594 35.5625 51.152344 34.5625 51.269531 L 35.160156 54.214844 C 35.699219 54.144531 36.25 54.046875 36.777344 53.9375 C 37.214844 53.84375 37.640625 53.726562 38.070312 53.605469 L 37.46875 50.664062 Z M 37.46875 50.667969 "/><path style=" stroke:none;fill-rule:nonzero;fill:url(#linear0);" d="M 17.785156 15.140625 C 17.417969 15.46875 17.023438 15.773438 16.679688 16.125 C 16.332031 16.472656 16.035156 16.871094 15.710938 17.246094 L 17.738281 19.300781 C 18.382812 18.542969 19.066406 17.851562 19.8125 17.195312 Z M 46.878906 44.636719 C 46.234375 45.394531 45.550781 46.085938 44.800781 46.742188 L 46.828125 48.796875 C 47.195312 48.46875 47.589844 48.164062 47.9375 47.8125 C 48.28125 47.464844 48.578125 47.066406 48.902344 46.691406 Z M 46.878906 44.636719 "/><path style=" stroke:none;fill-rule:nonzero;fill:url(#linear0);" d="M 46.828125 15.140625 L 44.800781 17.195312 C 45.550781 17.851562 46.234375 18.542969 46.878906 19.300781 L 48.902344 17.246094 C 48.578125 16.871094 48.28125 16.472656 47.9375 16.125 C 47.589844 15.773438 47.195312 15.46875 46.828125 15.140625 Z M 17.738281 44.636719 L 15.710938 46.691406 C 16.035156 47.066406 16.332031 47.464844 16.679688 47.8125 C 17.023438 48.164062 17.417969 48.46875 17.785156 48.796875 L 19.8125 46.742188 C 19.066406 46.085938 18.382812 45.394531 17.738281 44.636719 Z M 17.738281 44.636719 "/><path style=" stroke:none;fill-rule:nonzero;fill:url(#linear0);" d="M 10.222656 30.472656 C 10.191406 30.96875 10.179688 31.464844 10.179688 31.96875 C 10.179688 32.472656 10.191406 32.96875 10.222656 33.460938 L 13.175781 33.460938 C 13.136719 32.976562 13.125 32.46875 13.125 31.96875 C 13.125 31.46875 13.140625 30.960938 13.175781 30.472656 Z M 51.4375 30.472656 C 51.476562 30.960938 51.484375 31.46875 51.484375 31.96875 C 51.484375 32.46875 51.476562 32.976562 51.4375 33.460938 L 54.390625 33.460938 C 54.421875 32.96875 54.4375 32.472656 54.4375 31.96875 C 54.4375 31.464844 54.421875 30.96875 54.390625 30.472656 Z M 51.4375 30.472656 "/><path style=" stroke:none;fill-rule:nonzero;fill:url(#linear0);" d="M 32.308594 9.53125 C 31.808594 9.53125 31.320312 9.546875 30.832031 9.582031 L 30.832031 12.570312 C 31.3125 12.535156 31.816406 12.527344 32.308594 12.527344 C 32.800781 12.527344 33.300781 12.535156 33.78125 12.570312 L 33.78125 9.582031 C 33.292969 9.546875 32.804688 9.53125 32.308594 9.53125 Z M 30.832031 51.367188 L 30.832031 54.355469 C 31.320312 54.390625 31.808594 54.40625 32.308594 54.40625 C 32.804688 54.40625 33.292969 54.390625 33.78125 54.355469 L 33.78125 51.367188 C 33.300781 51.402344 32.800781 51.410156 32.308594 51.410156 C 31.816406 51.410156 31.3125 51.402344 30.832031 51.367188 Z M 30.832031 51.367188 "/><path style=" stroke:none;fill-rule:nonzero;fill:url(#linear0);" d="M 12.488281 22.011719 C 12.289062 22.410156 12.101562 22.816406 11.933594 23.230469 C 11.71875 23.742188 11.554688 24.28125 11.378906 24.816406 L 14.097656 25.9375 C 14.40625 24.980469 14.761719 24.070312 15.207031 23.183594 Z M 50.515625 38 C 50.210938 38.957031 49.859375 39.871094 49.410156 40.757812 L 52.132812 41.925781 C 52.328125 41.527344 52.511719 41.121094 52.6875 40.710938 C 52.902344 40.195312 53.0625 39.65625 53.238281 39.121094 Z M 50.515625 38 "/><path style=" stroke:none;fill-rule:nonzero;fill:url(#linear15);" d="M 39.359375 10.75 L 38.253906 13.507812 C 39.203125 13.816406 40.101562 14.175781 40.972656 14.628906 L 42.128906 11.871094 C 41.734375 11.671875 41.335938 11.484375 40.925781 11.3125 C 40.421875 11.09375 39.886719 10.925781 39.359375 10.75 Z M 23.640625 49.308594 L 22.488281 52.070312 C 22.882812 52.265625 23.277344 52.453125 23.6875 52.628906 C 24.195312 52.847656 24.726562 53.011719 25.253906 53.191406 L 26.359375 50.429688 C 25.414062 50.117188 24.519531 49.765625 23.640625 49.308594 Z M 23.640625 49.308594 "/><path style=" stroke:none;fill-rule:nonzero;fill:url(#linear16);" d="M 52.132812 22.011719 L 49.410156 23.183594 C 49.859375 24.066406 50.210938 24.980469 50.515625 25.9375 L 53.238281 24.816406 C 53.0625 24.28125 52.902344 23.742188 52.6875 23.226562 C 52.511719 22.816406 52.328125 22.410156 52.132812 22.011719 Z M 14.097656 38 L 11.378906 39.121094 C 11.554688 39.65625 11.71875 40.195312 11.933594 40.710938 C 12.101562 41.121094 12.289062 41.527344 12.488281 41.929688 L 15.207031 40.757812 C 14.761719 39.871094 14.40625 38.960938 14.097656 38.003906 Z M 14.097656 38 "/><path style=" stroke:none;fill-rule:nonzero;fill:url(#linear17);" d="M 25.253906 10.75 C 24.726562 10.925781 24.195312 11.09375 23.683594 11.3125 C 23.277344 11.484375 22.882812 11.671875 22.488281 11.871094 L 23.636719 14.628906 C 24.515625 14.175781 25.414062 13.816406 26.359375 13.507812 Z M 40.972656 49.308594 C 40.101562 49.765625 39.203125 50.117188 38.253906 50.429688 L 39.359375 53.191406 C 39.886719 53.011719 40.421875 52.847656 40.929688 52.628906 C 41.335938 52.453125 41.734375 52.265625 42.128906 52.070312 L 40.976562 49.308594 Z M 40.972656 49.308594 "/></g></svg>
