<svg xmlns="http://www.w3.org/2000/svg" xmlns:xlink="http://www.w3.org/1999/xlink" width="64" height="64" viewBox="0 0 64 64" version="1.1"><defs><linearGradient id="linear0" x1="0%" x2="0%" y1="0%" y2="100%"><stop offset="0%" style="stop-color:#00b54e; stop-opacity:1"/><stop offset="50%" style="stop-color:#ffd000; stop-opacity:1"/><stop offset="100%" style="stop-color:#ff00bb; stop-opacity:1"/></linearGradient></defs><g id="surface1"><path style=" stroke:none;fill-rule:nonzero;fill:url(#linear0);" d="M 35.304688 2.40625 C 36.542969 2.40625 37.550781 3.636719 37.550781 5.152344 C 37.550781 6.671875 36.542969 7.902344 35.304688 7.902344 L 41.972656 7.902344 C 51.875 7.902344 55.480469 16.152344 55.480469 29.890625 C 55.480469 43.632812 46.515625 57.371094 28.550781 57.371094 L 25.195312 57.371094 C 21.851562 57.371094 21.851562 60.097656 21.851562 62.832031 L 28.550781 62.832031 C 50.996094 62.832031 62.207031 46.386719 62.207031 29.890625 C 62.207031 13.402344 55.386719 2.40625 41.972656 2.40625 Z M 3.910156 2.410156 C 2.667969 2.410156 1.667969 3.636719 1.667969 5.160156 C 1.667969 6.679688 2.667969 7.910156 3.910156 7.910156 L 15.121094 7.910156 L 15.121094 60.125 C 15.121094 61.644531 16.121094 62.875 17.363281 62.875 C 18.605469 62.875 19.605469 61.644531 19.605469 60.125 L 19.605469 7.910156 L 30.820312 7.910156 C 32.058594 7.910156 33.058594 6.679688 33.058594 5.160156 C 33.058594 3.636719 32.058594 2.410156 30.820312 2.410156 Z M 3.910156 2.410156 "/></g></svg>
