<svg xmlns="http://www.w3.org/2000/svg" xmlns:xlink="http://www.w3.org/1999/xlink" width="64" height="64" viewBox="0 0 64 64" version="1.1"><defs><linearGradient id="linear0" x1="0%" x2="100%" y1="0%" y2="100%"><stop offset="0%" style="stop-color:#6a00ff; stop-opacity:1"/><stop offset="50%" style="stop-color:#e0dd02; stop-opacity:1"/><stop offset="100%" style="stop-color:#00b54e; stop-opacity:1"/></linearGradient></defs><g id="surface1"><path style=" stroke:none;fill-rule:nonzero;fill:url(#linear0);" d="M 60.664062 23.09375 C 60.664062 28.789062 56.386719 33.402344 51.113281 33.402344 C 45.84375 33.402344 41.566406 28.789062 41.566406 23.09375 C 41.566406 17.398438 45.84375 12.773438 51.113281 12.773438 C 56.386719 12.773438 60.664062 17.398438 60.664062 23.09375 Z M 60.664062 23.09375 "/><path style=" stroke:none;fill-rule:nonzero;fill:url(#linear0);" d="M 10.410156 10.027344 C 9.785156 10.054688 9.28125 10.621094 9.28125 11.308594 C 9.28125 12.023438 9.808594 12.601562 10.472656 12.601562 L 12.859375 12.601562 C 13.523438 12.601562 14.054688 12.023438 14.054688 11.308594 C 14.054688 10.597656 13.523438 10.027344 12.859375 10.027344 L 10.472656 10.027344 C 10.453125 10.027344 10.429688 10.015625 10.410156 10.027344 Z M 19.964844 10.027344 C 19.328125 10.054688 18.832031 10.621094 18.832031 11.308594 C 18.832031 12.023438 19.363281 12.601562 20.019531 12.601562 L 22.410156 12.601562 C 23.070312 12.601562 23.597656 12.023438 23.597656 11.308594 C 23.597656 10.597656 23.070312 10.027344 22.410156 10.027344 L 20.019531 10.027344 C 20 10.027344 19.988281 10.015625 19.964844 10.027344 Z M 29.507812 10.027344 C 28.882812 10.054688 28.378906 10.621094 28.378906 11.308594 C 28.378906 12.023438 28.910156 12.601562 29.574219 12.601562 L 31.957031 12.601562 C 32.621094 12.601562 33.15625 12.023438 33.15625 11.308594 C 33.15625 10.597656 32.621094 10.027344 31.957031 10.027344 L 29.574219 10.027344 C 29.550781 10.027344 29.53125 10.015625 29.507812 10.027344 Z M 21.230469 15.179688 C 18.578125 15.179688 16.453125 17.480469 16.453125 20.335938 L 16.453125 29.359375 C 16.453125 30.070312 16.984375 30.648438 17.652344 30.648438 C 18.308594 30.648438 18.839844 30.070312 18.839844 29.359375 C 18.839844 29.355469 18.839844 29.355469 18.839844 29.355469 C 18.839844 29.355469 18.839844 29.347656 18.839844 29.347656 C 18.839844 29.347656 18.839844 29.347656 18.839844 29.339844 C 18.839844 29.339844 18.839844 29.332031 18.839844 29.332031 C 18.839844 29.332031 18.839844 29.332031 18.839844 29.324219 C 18.839844 29.324219 18.839844 29.316406 18.839844 29.316406 C 18.839844 29.316406 18.839844 29.316406 18.839844 29.308594 C 18.839844 29.304688 18.839844 29.304688 18.839844 29.304688 C 18.839844 29.304688 18.839844 29.304688 18.839844 29.292969 L 18.839844 25.503906 L 23.617188 25.503906 L 23.617188 29.367188 C 23.617188 30.078125 24.144531 30.660156 24.808594 30.660156 C 25.46875 30.660156 26 30.078125 26 29.367188 C 26 29.367188 26 29.363281 26 29.363281 C 26 29.355469 26 29.355469 26 29.355469 C 26 29.355469 26 29.347656 26 29.347656 C 26 29.347656 26 29.347656 26 29.339844 C 26 29.339844 26 29.332031 26 29.332031 C 26 29.332031 26 29.332031 26 29.324219 C 26 29.324219 26 29.316406 26 29.316406 C 26 29.316406 26 29.316406 26 29.308594 C 26 29.304688 26 29.304688 26 29.304688 L 26 20.355469 C 26 17.492188 23.875 15.199219 21.230469 15.199219 Z M 21.230469 17.757812 C 22.550781 17.757812 23.617188 18.90625 23.617188 20.335938 L 23.617188 22.910156 L 18.839844 22.910156 L 18.839844 20.335938 C 18.839844 18.90625 19.910156 17.757812 21.230469 17.757812 Z M 21.230469 17.757812 "/><path style=" stroke:none;fill-rule:nonzero;fill:url(#linear0);" d="M 1.457031 46.515625 L 1.457031 51.671875 C 1.457031 54.535156 3.585938 56.824219 6.238281 56.824219 L 58.75 56.824219 C 61.402344 56.824219 63.527344 54.53125 63.527344 51.671875 L 63.527344 46.515625 L 32.492188 46.515625 L 32.492188 49.09375 C 32.492188 51.957031 30.363281 54.25 27.71875 54.25 L 13.394531 54.25 C 10.75 54.25 8.621094 51.957031 8.621094 49.09375 L 8.621094 46.515625 Z M 1.457031 46.515625 "/><path style=" stroke:none;fill-rule:nonzero;fill:url(#linear0);" d="M 15.308594 38.5625 C 13.992188 38.5625 12.921875 39.710938 12.921875 41.140625 C 12.921875 42.566406 13.992188 43.714844 15.308594 43.714844 C 16.628906 43.714844 17.699219 42.566406 17.699219 41.140625 C 17.699219 39.710938 16.628906 38.5625 15.308594 38.5625 Z M 22.46875 38.5625 C 21.15625 38.5625 20.085938 39.710938 20.085938 41.140625 C 20.085938 42.566406 21.15625 43.714844 22.46875 43.714844 C 23.789062 43.714844 24.859375 42.566406 24.859375 41.140625 C 24.859375 39.710938 23.789062 38.5625 22.46875 38.5625 Z M 29.628906 38.5625 C 28.316406 38.5625 27.246094 39.710938 27.246094 41.140625 C 27.246094 42.566406 28.316406 43.714844 29.628906 43.714844 C 30.953125 43.714844 32.023438 42.566406 32.023438 41.140625 C 32.023438 39.710938 30.953125 38.5625 29.628906 38.5625 Z M 29.628906 38.5625 "/></g></svg>
