<svg xmlns="http://www.w3.org/2000/svg" xmlns:xlink="http://www.w3.org/1999/xlink" width="64" height="64" viewBox="0 0 64 64" version="1.1"><defs><linearGradient id="linear0" x1="0%" x2="0%" y1="0%" y2="100%"><stop offset="0%" style="stop-color:#00b6c7; stop-opacity:1"/><stop offset="50%" style="stop-color:#ff0000; stop-opacity:1"/><stop offset="100%" style="stop-color:#6a00ff; stop-opacity:1"/></linearGradient></defs><g id="surface1"><path style=" stroke:none;fill-rule:nonzero;fill:url(#linear0);" d="M 25.285156 0.851562 C 23.878906 0.851562 22.808594 1.472656 22.136719 2.332031 C 21.457031 3.171875 21.191406 4.226562 21.199219 5.136719 C 21.257812 7.050781 22.351562 8.679688 23.925781 9.941406 L 6.824219 26.125 C 3.480469 35.363281 5.238281 45.917969 12.351562 53.757812 C 16.214844 57.980469 21.945312 61.265625 28.523438 62.109375 C 32.070312 62.558594 34.128906 62.585938 37.453125 61.957031 C 44.15625 60.691406 49.917969 57.097656 53.535156 52.5 C 60.222656 44.246094 61.335938 33.421875 57.195312 24.203125 C 56.640625 23.101562 56.152344 21.867188 55.066406 21.023438 C 54.34375 20.617188 53.382812 20.476562 52.515625 20.433594 C 53.078125 19.507812 52.757812 18.4375 51.914062 17.699219 C 49.355469 14.347656 45.683594 11.363281 41.195312 9.71875 C 42.628906 8.484375 43.691406 6.945312 43.75 5.136719 C 43.757812 4.222656 43.410156 3.171875 42.726562 2.328125 C 42.054688 1.472656 40.980469 0.851562 39.578125 0.851562 C 39.109375 0.851562 38.652344 0.914062 38.21875 1.148438 C 37.78125 1.378906 37.359375 1.820312 37.363281 2.328125 C 37.421875 2.511719 37.375 2.652344 37.363281 2.847656 C 37.363281 3.40625 38 3.882812 38.726562 3.882812 C 39.429688 3.882812 40 3.410156 40 2.847656 C 40 2.285156 39.429688 1.820312 38.726562 1.8125 C 38.96875 1.679688 39.3125 1.597656 39.578125 1.589844 C 40.613281 1.589844 41.324219 2.078125 41.878906 2.769531 C 42.429688 3.460938 42.738281 4.378906 42.726562 5.132812 C 42.695312 6.824219 41.722656 8.265625 40.261719 9.421875 C 39.75 9.257812 39.261719 9.097656 38.730469 8.976562 C 36.359375 8.4375 33.941406 8.292969 31.496094 8.3125 C 29.199219 8.382812 26.988281 8.851562 24.859375 9.570312 C 23.300781 8.382812 22.179688 6.898438 22.136719 5.132812 C 22.128906 4.378906 22.433594 3.460938 22.992188 2.769531 C 23.546875 2.078125 24.269531 1.589844 25.285156 1.589844 C 25.554688 1.597656 25.894531 1.679688 26.140625 1.8125 C 25.4375 1.820312 24.945312 2.273438 24.945312 2.847656 C 24.945312 3.40625 25.519531 3.882812 26.222656 3.882812 C 26.949219 3.882812 27.5 3.410156 27.5 2.847656 C 27.488281 2.652344 27.449219 2.511719 27.5 2.328125 C 27.519531 1.820312 27.171875 1.378906 26.734375 1.148438 C 26.332031 0.914062 25.78125 0.851562 25.320312 0.851562 M 24.882812 14.960938 C 28.632812 20.273438 36.140625 26.675781 33.816406 30.257812 C 29.21875 37.347656 20.601562 36.933594 16.375 30.257812 C 14.414062 27.15625 21.082031 20.367188 24.882812 14.960938 M 44.203125 31.8125 C 46.859375 35.597656 52.152344 40.117188 50.496094 42.671875 C 47.222656 47.71875 41.082031 47.433594 38.074219 42.671875 C 36.675781 40.460938 41.496094 35.652344 44.203125 31.8125 M 25.988281 46.066406 C 27.871094 48.785156 31.148438 51.832031 30.476562 53.824219 C 27.660156 57.15625 24.179688 57.003906 21.628906 53.824219 C 21.066406 52.105469 24.035156 48.8125 25.988281 46.066406 "/></g></svg>
