<svg xmlns="http://www.w3.org/2000/svg" xmlns:xlink="http://www.w3.org/1999/xlink" width="64" height="64" viewBox="0 0 64 64" version="1.1"><defs><linearGradient id="linear0" x1="0%" x2="0%" y1="0%" y2="100%"><stop offset="0%" style="stop-color:#00b54e; stop-opacity:1"/><stop offset="50%" style="stop-color:#0073ff; stop-opacity:1"/><stop offset="100%" style="stop-color:#ffd000; stop-opacity:1"/></linearGradient></defs><g id="surface1"><path style=" stroke:none;fill-rule:nonzero;fill:url(#linear0);" d="M 17.011719 1.890625 C 15.109375 1.890625 11.28125 7.964844 11.28125 7.964844 L 11.285156 7.964844 L 3.648438 19.601562 L 29.960938 19.601562 L 29.960938 1.890625 Z M 34.632812 1.890625 L 34.632812 19.601562 L 60.941406 19.601562 L 53.304688 7.964844 C 53.304688 7.964844 49.476562 1.890625 47.574219 1.890625 Z M 4.792969 24.660156 C 4.566406 24.65625 4.347656 24.65625 4.121094 24.671875 C 2.785156 24.738281 1.84375 25.113281 1.84375 26.644531 L 1.84375 59.03125 C 1.84375 61.078125 3.460938 62.75 5.511719 62.75 L 59.070312 62.75 C 61.136719 62.75 62.828125 61.078125 62.828125 59.03125 L 62.828125 26.644531 C 62.828125 24.597656 61.144531 24.671875 59.070312 24.671875 L 5.511719 24.671875 C 5.25 24.671875 5.019531 24.667969 4.789062 24.660156 Z M 46.378906 29.722656 L 49.898438 32.25 L 25.230469 56.289062 L 13.484375 46.292969 L 15.835938 42.371094 L 25.230469 49.960938 Z M 46.378906 29.722656 "/></g></svg>
