<svg xmlns="http://www.w3.org/2000/svg" xmlns:xlink="http://www.w3.org/1999/xlink" width="64" height="64" viewBox="0 0 64 64" version="1.1"><defs><linearGradient id="linear0" x1="0%" x2="100%" y1="0%" y2="100%"><stop offset="0%" style="stop-color:#6a00ff; stop-opacity:1"/><stop offset="50%" style="stop-color:#e0dd02; stop-opacity:1"/><stop offset="100%" style="stop-color:#00b54e; stop-opacity:1"/></linearGradient></defs><g id="surface1"><path style=" stroke:none;fill-rule:nonzero;fill:url(#linear0);" d="M 50.527344 2.65625 L 43.664062 4.140625 C 44.726562 8.121094 48.386719 10.1875 52.492188 11.914062 L 59.28125 10.441406 C 59.171875 5.820312 53.648438 4.296875 50.527344 2.65625 Z M 36.8125 5.621094 L 29.953125 7.105469 C 30.5625 10.1875 34.464844 12.578125 38.777344 14.878906 L 45.640625 13.398438 C 43.726562 10.472656 42.011719 7.476562 36.8125 5.621094 Z M 23.089844 8.585938 L 16.234375 10.066406 C 17.285156 14.019531 20.144531 16.671875 25.058594 17.839844 L 31.925781 16.359375 C 30.722656 13.476562 27.589844 10.914062 23.089844 8.585938 Z M 9.445312 11.542969 L 4.492188 12.65625 C 3.929688 12.761719 3.410156 12.992188 2.953125 13.328125 C 4.640625 16.078125 5.582031 19.003906 11.34375 20.796875 L 18.207031 19.316406 C 18.46875 16.109375 15.65625 13.496094 9.445312 11.542969 Z M 11.5625 22.800781 L 2.21875 32.28125 L 2.21875 58.410156 C 2.21875 60.980469 4.148438 63.078125 6.527344 63.078125 L 58.628906 63.078125 C 61.007812 63.078125 62.9375 60.980469 62.9375 58.410156 L 62.9375 32.28125 L 60.601562 22.800781 L 53.59375 22.800781 L 48.921875 25.167969 L 46.59375 22.800781 L 39.585938 22.800781 L 34.914062 25.167969 L 32.589844 22.800781 L 25.578125 22.800781 L 20.898438 25.167969 L 18.570312 22.800781 Z M 11.5625 22.800781 "/><path style=" stroke:none;fill-rule:nonzero;fill:rgb(93.333334%,93.333334%,93.333334%);fill-opacity:1;" d="M 56.308594 1.484375 C 56.019531 1.484375 55.730469 1.515625 55.4375 1.566406 L 50.511719 2.632812 L 50.511719 2.640625 L 59.3125 10.421875 L 61.59375 9.933594 L 60.609375 5.21875 C 60.140625 3.027344 58.320312 1.488281 56.308594 1.484375 Z M 43.664062 4.128906 L 36.8125 5.613281 L 45.613281 13.398438 L 52.460938 11.914062 Z M 29.96875 7.097656 L 23.113281 8.578125 L 31.914062 16.359375 L 38.761719 14.878906 Z M 16.261719 10.0625 L 9.417969 11.554688 L 18.210938 19.332031 L 25.0625 17.851562 Z M 2.945312 13.316406 C 1.578125 14.335938 0.839844 16.195312 1.234375 18.085938 L 1.269531 18.234375 L 2.230469 22.796875 L 11.371094 20.8125 Z M 2.21875 22.800781 L 2.21875 32.28125 L 4.554688 32.28125 L 11.5625 22.800781 Z M 18.570312 22.800781 L 11.5625 32.28125 L 18.570312 32.28125 L 25.570312 22.800781 Z M 32.578125 22.800781 L 25.570312 32.28125 L 32.578125 32.28125 L 39.578125 22.800781 Z M 46.585938 22.800781 L 39.578125 32.28125 L 46.585938 32.28125 L 53.589844 22.800781 Z M 60.59375 22.800781 L 53.59375 32.28125 L 62.9375 32.28125 L 62.9375 22.800781 Z M 27.90625 37.015625 L 41.914062 46.496094 L 27.90625 55.96875 Z M 27.90625 37.015625 "/></g></svg>
