<svg xmlns="http://www.w3.org/2000/svg" xmlns:xlink="http://www.w3.org/1999/xlink" width="64" height="64" viewBox="0 0 64 64" version="1.1"><defs><linearGradient id="linear0" x1="0%" x2="100%" y1="0%" y2="100%"><stop offset="0%" style="stop-color:#ae00ff; stop-opacity:1"/><stop offset="100%" style="stop-color:#0084ff; stop-opacity:1"/></linearGradient></defs><g id="surface1"><path style=" stroke:none;fill-rule:nonzero;fill:url(#linear0);" d="M 1.125 0.949219 L 1.125 29.105469 L 29.382812 29.105469 L 29.382812 0.949219 Z M 35.035156 0.949219 L 35.035156 29.105469 L 63.292969 29.105469 L 63.292969 0.949219 Z M 6.777344 6.578125 L 23.730469 6.578125 L 23.730469 23.46875 L 6.777344 23.46875 Z M 40.6875 6.578125 L 57.640625 6.578125 L 57.640625 23.46875 L 40.6875 23.46875 Z M 1.125 34.730469 L 1.125 62.886719 L 29.382812 62.886719 L 29.382812 34.730469 Z M 35.035156 34.730469 L 35.035156 40.367188 L 40.6875 40.367188 L 40.6875 34.730469 Z M 40.6875 40.367188 L 40.6875 45.996094 L 46.339844 45.996094 L 46.339844 40.367188 Z M 46.339844 40.367188 L 51.992188 40.367188 L 51.992188 34.730469 L 46.339844 34.730469 Z M 51.992188 40.367188 L 51.992188 45.996094 L 57.640625 45.996094 L 57.640625 40.367188 Z M 57.640625 40.367188 L 63.292969 40.367188 L 63.292969 34.730469 L 57.640625 34.730469 Z M 57.640625 45.996094 L 57.640625 51.621094 L 63.292969 51.621094 L 63.292969 45.996094 Z M 57.640625 51.621094 L 51.992188 51.621094 L 51.992188 57.257812 L 57.640625 57.257812 Z M 57.640625 57.257812 L 57.640625 62.886719 L 63.292969 62.886719 L 63.292969 57.257812 Z M 51.992188 57.257812 L 46.339844 57.257812 L 46.339844 62.886719 L 51.992188 62.886719 Z M 46.339844 57.257812 L 46.339844 51.621094 L 40.6875 51.621094 L 40.6875 57.257812 Z M 40.6875 57.257812 L 35.035156 57.257812 L 35.035156 62.886719 L 40.6875 62.886719 Z M 40.6875 51.621094 L 40.6875 45.996094 L 35.035156 45.996094 L 35.035156 51.621094 Z M 46.339844 51.621094 L 51.992188 51.621094 L 51.992188 45.996094 L 46.339844 45.996094 Z M 6.777344 40.367188 L 23.730469 40.367188 L 23.730469 57.257812 L 6.777344 57.257812 Z M 6.777344 40.367188 "/></g></svg>
