<svg xmlns="http://www.w3.org/2000/svg" xmlns:xlink="http://www.w3.org/1999/xlink" width="64" height="64" viewBox="0 0 64 64" version="1.1"><defs><linearGradient id="linear0" x1="0%" x2="0%" y1="0%" y2="100%"><stop offset="0%" style="stop-color:#24dbdb; stop-opacity:1"/><stop offset="100%" style="stop-color:#174475; stop-opacity:1"/></linearGradient></defs><g id="surface1"><path style=" stroke:none;fill-rule:nonzero;fill:url(#linear0);" d="M 6.410156 1.382812 C 6.410156 1.382812 11.550781 3.765625 11.550781 6.148438 C 11.550781 9.722656 3.835938 9.722656 3.835938 14.488281 C 3.835938 16.867188 8.980469 20.441406 11.550781 20.441406 C 11.550781 20.441406 8.980469 18.058594 8.980469 15.675781 C 8.980469 12.105469 16.699219 12.105469 16.699219 7.339844 C 16.699219 4.960938 11.550781 1.382812 6.410156 1.382812 Z M 21.84375 1.382812 C 21.84375 1.382812 26.988281 3.765625 26.988281 6.148438 C 26.988281 9.722656 19.273438 9.722656 19.273438 14.488281 C 19.273438 16.867188 24.417969 20.441406 26.988281 20.441406 C 26.988281 20.441406 24.417969 18.058594 24.417969 15.675781 C 24.417969 12.105469 32.132812 12.105469 32.132812 7.339844 C 32.132812 4.960938 26.988281 1.382812 21.84375 1.382812 Z M 37.277344 1.382812 C 37.277344 1.382812 42.417969 3.765625 42.417969 6.148438 C 42.417969 9.722656 34.703125 9.722656 34.703125 14.488281 C 34.703125 16.867188 39.847656 20.441406 42.417969 20.441406 C 42.417969 20.441406 39.847656 18.058594 39.847656 15.675781 C 39.847656 12.105469 47.5625 12.105469 47.5625 7.339844 C 47.5625 4.960938 42.417969 1.382812 37.277344 1.382812 Z M 3.835938 25.203125 C 2.414062 25.203125 1.265625 26.269531 1.265625 27.589844 L 1.265625 53.789062 C 1.265625 59.070312 5.851562 63.320312 11.550781 63.320312 L 39.847656 63.320312 C 45.546875 63.320312 50.136719 59.070312 50.136719 53.789062 L 52.710938 53.789062 C 58.410156 53.789062 63 49.539062 63 44.261719 L 63 41.882812 C 63 36.601562 58.410156 32.351562 52.710938 32.351562 L 50.136719 32.351562 L 50.136719 27.589844 C 50.136719 26.269531 48.992188 25.203125 47.5625 25.203125 Z M 50.136719 37.117188 L 52.710938 37.117188 C 55.5625 37.117188 57.855469 39.238281 57.855469 41.882812 L 57.855469 44.261719 C 57.855469 46.902344 55.5625 49.027344 52.710938 49.027344 L 50.136719 49.027344 Z M 50.136719 37.117188 "/></g></svg>
