<svg xmlns="http://www.w3.org/2000/svg" xmlns:xlink="http://www.w3.org/1999/xlink" width="64" height="64" viewBox="0 0 64 64" version="1.1"><defs><linearGradient id="linear0" x1="0%" x2="0%" y1="0%" y2="100%"><stop offset="0%" style="stop-color:#ffd000; stop-opacity:1"/><stop offset="50%" style="stop-color:#24dbdb; stop-opacity:1"/><stop offset="100%" style="stop-color:#0073ff; stop-opacity:1"/></linearGradient></defs><g id="surface1"><path style=" stroke:none;fill-rule:nonzero;fill:url(#linear0);" d="M 32.449219 1.238281 C 22.933594 1.238281 15.214844 8.898438 15.214844 18.347656 C 15.214844 18.875 15.238281 19.394531 15.28125 19.910156 C 17.476562 18.902344 19.921875 18.347656 22.496094 18.347656 C 23.699219 18.347656 24.886719 18.472656 26.023438 18.703125 C 26.015625 18.585938 26.003906 18.464844 26.003906 18.347656 C 26.003906 14.8125 28.890625 11.945312 32.449219 11.945312 C 36.011719 11.945312 38.894531 14.8125 38.894531 18.347656 C 38.894531 18.464844 38.886719 18.585938 38.878906 18.703125 C 40.015625 18.472656 41.195312 18.347656 42.398438 18.347656 C 44.972656 18.347656 47.425781 18.902344 49.617188 19.910156 C 49.664062 19.394531 49.6875 18.875 49.6875 18.347656 C 49.6875 8.898438 41.96875 1.238281 32.449219 1.238281 Z M 31.570312 20.5625 C 22.613281 20.496094 15.230469 30.359375 17.976562 38.886719 C 20.082031 47.128906 30.296875 52.179688 38.066406 48.296875 C 39.445312 47.652344 41.019531 46.71875 41.871094 45.566406 C 39.0625 42.980469 41.878906 45.582031 39.015625 42.992188 C 33.472656 48.070312 23.007812 44.875 21.796875 37.316406 C 20.554688 31.761719 24.410156 25.496094 30.230469 24.777344 C 33.425781 24.210938 36.863281 25.15625 39.214844 27.394531 C 38.066406 28.542969 36.917969 29.675781 35.753906 30.8125 C 39.632812 31.609375 43.109375 32.257812 47.414062 33.058594 C 45.058594 21.644531 45.660156 24.828125 44.96875 21.570312 C 43.875 22.511719 44.03125 22.261719 41.796875 24.484375 C 39.203125 21.695312 35.300781 20.472656 31.570312 20.5625 Z M 53.621094 29.207031 C 53.277344 32.964844 51.703125 36.375 49.304688 39.039062 C 51.40625 40.09375 52.847656 42.253906 52.847656 44.746094 C 52.847656 48.28125 49.96875 51.144531 46.410156 51.144531 C 45.109375 51.144531 43.886719 50.765625 42.878906 50.101562 C 41.714844 53.613281 39.441406 56.628906 36.460938 58.722656 C 39.269531 60.695312 42.699219 61.855469 46.410156 61.855469 C 55.925781 61.855469 63.644531 54.195312 63.644531 44.746094 C 63.644531 37.851562 59.539062 31.914062 53.621094 29.207031 Z M 11.058594 30.535156 C 5.140625 33.242188 1.035156 39.183594 1.035156 46.074219 C 1.035156 55.527344 8.753906 63.183594 18.269531 63.183594 C 21.976562 63.183594 25.410156 62.023438 28.21875 60.050781 C 25.238281 57.957031 22.964844 54.945312 21.800781 51.429688 C 20.792969 52.09375 19.570312 52.472656 18.269531 52.472656 C 14.710938 52.472656 11.832031 49.609375 11.832031 46.074219 C 11.832031 43.582031 13.273438 41.421875 15.375 40.371094 C 12.976562 37.710938 11.402344 34.296875 11.058594 30.535156 Z M 11.058594 30.535156 "/></g></svg>
