<svg xmlns="http://www.w3.org/2000/svg" xmlns:xlink="http://www.w3.org/1999/xlink" width="64" height="64" viewBox="0 0 64 64" version="1.1"><defs><linearGradient id="linear0" x1="100%" x2="0%" y1="100%" y2="0%"><stop offset="0%" style="stop-color:#00b54e; stop-opacity:1"/><stop offset="100%" style="stop-color:#ff0000; stop-opacity:1"/></linearGradient></defs><g id="surface1"><path style=" stroke:none;fill-rule:nonzero;fill:url(#linear0);" d="M 9.984375 17.242188 C 9.984375 15.253906 9.980469 13.308594 9.992188 11.363281 C 9.980469 9.304688 10.660156 7.300781 11.90625 5.703125 C 13.691406 3.375 16.039062 1.996094 18.847656 1.464844 C 21.507812 0.972656 24.027344 1.421875 26.414062 2.679688 C 28.496094 3.777344 30.164062 5.363281 31.214844 7.578125 C 31.773438 8.753906 32.058594 10 32.058594 11.3125 C 32.050781 13.144531 32.050781 14.96875 32.050781 16.800781 L 32.050781 17.21875 C 32.496094 17.253906 32.917969 17.25 33.324219 17.332031 C 35.71875 17.796875 37.0625 19.277344 37.449219 21.769531 C 37.457031 21.828125 37.457031 21.882812 37.457031 21.941406 L 37.457031 28.785156 C 37.457031 28.84375 37.449219 28.902344 37.449219 28.90625 C 30.300781 32.460938 26.539062 38.304688 26.1875 46.589844 L 25.878906 46.589844 C 20.121094 46.589844 14.367188 46.632812 8.609375 46.566406 C 6.261719 46.539062 4.492188 45.167969 4.109375 42.511719 C 4.074219 42.265625 4.054688 42.011719 4.050781 41.753906 C 4.050781 35.253906 4.039062 28.761719 4.054688 22.257812 C 4.066406 19.761719 5.40625 17.9375 7.746094 17.40625 C 8.367188 17.265625 9.015625 17.300781 9.660156 17.25 C 9.757812 17.253906 9.851562 17.25 9.984375 17.25 Z M 27.878906 17.242188 C 27.824219 15.429688 27.84375 13.65625 27.703125 11.894531 C 27.558594 9.984375 26.753906 8.351562 25.382812 7.050781 C 23.332031 5.097656 20.421875 4.609375 18.066406 5.917969 C 15.484375 7.351562 14.300781 9.738281 14.136719 12.707031 C 14.0625 14.101562 14.125 15.511719 14.125 16.914062 L 14.125 17.242188 Z M 23.183594 37.546875 L 23.183594 37.097656 C 23.183594 35.132812 23.183594 33.164062 23.179688 31.191406 C 23.179688 30.984375 23.226562 30.832031 23.390625 30.695312 C 24.21875 30.019531 24.664062 29.121094 24.800781 28.035156 C 25.136719 25.40625 22.710938 23.109375 20.246094 23.757812 C 18.71875 24.164062 17.738281 25.195312 17.417969 26.785156 C 17.097656 28.382812 17.59375 29.726562 18.835938 30.746094 C 18.988281 30.851562 19.070312 31.042969 19.058594 31.230469 C 19.054688 33.203125 19.054688 35.171875 19.054688 37.136719 L 19.054688 37.539062 C 20.453125 37.546875 21.792969 37.546875 23.183594 37.546875 Z M 23.183594 37.546875 "/><path style=" stroke:none;fill-rule:nonzero;fill:url(#linear0);" d="M 44.402344 30.1875 C 53.078125 30.269531 59.980469 37.453125 59.976562 46.464844 C 59.996094 50.785156 58.351562 54.933594 55.414062 57.984375 C 52.484375 61.035156 48.503906 62.734375 44.359375 62.707031 C 40.21875 62.71875 36.25 61.003906 33.332031 57.953125 C 30.410156 54.894531 28.78125 50.746094 28.804688 46.433594 C 28.816406 37.382812 35.765625 30.253906 44.402344 30.1875 Z M 40.035156 56.6875 C 41.464844 56.6875 42.828125 56.683594 44.195312 56.695312 C 44.453125 56.695312 44.558594 56.605469 44.652344 56.367188 C 46.6875 51.113281 48.734375 45.863281 50.78125 40.617188 L 51.605469 38.480469 C 51.527344 38.46875 51.484375 38.449219 51.441406 38.449219 C 50.152344 38.445312 48.867188 38.457031 47.578125 38.445312 C 47.335938 38.4375 47.308594 38.59375 47.257812 38.753906 L 45.359375 44.378906 C 45.074219 45.226562 44.785156 46.066406 44.476562 46.980469 C 44.398438 46.78125 44.355469 46.652344 44.304688 46.527344 C 43.386719 43.9375 42.464844 41.347656 41.550781 38.753906 C 41.472656 38.519531 41.363281 38.445312 41.125 38.445312 C 39.898438 38.460938 38.660156 38.449219 37.425781 38.449219 C 37.335938 38.449219 37.238281 38.460938 37.109375 38.46875 C 37.160156 38.609375 37.195312 38.714844 37.230469 38.824219 L 38.089844 41.113281 C 39.355469 44.488281 40.617188 47.851562 41.890625 51.226562 C 42.011719 51.542969 42.039062 51.8125 41.890625 52.140625 C 41.609375 52.730469 41.386719 53.355469 41.144531 53.953125 C 40.773438 54.84375 40.417969 55.742188 40.035156 56.6875 Z M 40.035156 56.6875 "/></g></svg>
