<svg xmlns="http://www.w3.org/2000/svg" xmlns:xlink="http://www.w3.org/1999/xlink" width="64" height="64" viewBox="0 0 64 64" version="1.1"><defs><linearGradient id="linear0" x1="0%" x2="0%" y1="0%" y2="100%"><stop offset="0%" style="stop-color:#ff0000; stop-opacity:1"/><stop offset="50%" style="stop-color:#ffd000; stop-opacity:1"/><stop offset="100%" style="stop-color:#0073ff; stop-opacity:1"/></linearGradient></defs><g id="surface1"><path style=" stroke:none;fill-rule:nonzero;fill:url(#linear0);" d="M 30.109375 6.9375 C 19.84375 7.839844 11.25 15.324219 8.671875 25.609375 L 1.796875 31.808594 C 1.796875 35.261719 4.515625 38.066406 7.867188 38.066406 C 8.128906 38.066406 8.390625 38.042969 8.652344 38 C 9.984375 43.324219 12.980469 48.046875 17.175781 51.4375 L 18.425781 49.800781 C 14.5625 46.660156 11.820312 42.28125 10.628906 37.363281 C 12.652344 36.296875 13.929688 34.15625 13.933594 31.808594 C 13.9375 29.464844 12.652344 27.304688 10.625 26.238281 C 12.933594 16.828125 20.742188 9.941406 30.109375 9.035156 L 30.109375 13.042969 C 30.109375 14.738281 31.972656 15.722656 33.3125 14.738281 L 40.390625 9.527344 C 41.515625 8.695312 41.515625 6.964844 40.390625 6.132812 L 33.3125 0.917969 Z M 47.121094 12.136719 L 45.871094 13.777344 C 49.730469 16.933594 52.46875 21.320312 53.652344 26.246094 C 51.621094 27.308594 50.335938 29.464844 50.335938 31.808594 C 50.335938 34.15625 51.621094 36.300781 53.644531 37.367188 C 51.335938 46.777344 43.53125 53.671875 34.15625 54.582031 L 34.15625 50.574219 C 34.15625 49.789062 33.734375 49.074219 33.058594 48.714844 C 32.382812 48.359375 31.570312 48.417969 30.960938 48.871094 L 23.878906 54.085938 C 22.75 54.917969 22.75 56.644531 23.878906 57.476562 L 30.960938 62.691406 C 32.296875 63.679688 34.15625 62.695312 34.15625 61 L 34.15625 56.683594 C 44.425781 55.78125 53.019531 48.289062 55.601562 38 C 55.867188 38.042969 56.136719 38.066406 56.402344 38.066406 C 59.753906 38.066406 62.46875 35.261719 62.46875 31.808594 C 62.46875 28.351562 59.753906 25.554688 56.402344 25.554688 C 56.144531 25.554688 55.882812 25.574219 55.628906 25.609375 C 54.308594 20.277344 51.316406 15.542969 47.121094 12.136719 Z M 32.132812 19.296875 C 25.433594 19.296875 20.003906 24.898438 20.003906 31.808594 C 20.003906 38.71875 25.433594 44.320312 32.132812 44.320312 C 38.835938 44.320312 44.269531 38.71875 44.269531 31.808594 C 44.269531 24.898438 38.835938 19.296875 32.132812 19.296875 Z M 32.132812 21.382812 C 37.714844 21.382812 42.246094 26.050781 42.246094 31.808594 C 42.246094 37.566406 37.714844 42.234375 32.132812 42.234375 C 26.550781 42.234375 22.023438 37.566406 22.023438 31.808594 C 22.023438 26.050781 26.550781 21.382812 32.132812 21.382812 Z M 32.132812 27.640625 L 28.089844 31.808594 C 28.089844 34.113281 29.902344 35.980469 32.132812 35.980469 C 34.367188 35.980469 36.179688 34.113281 36.179688 31.808594 C 36.179688 29.503906 34.367188 27.640625 32.132812 27.640625 Z M 32.132812 27.640625 "/></g></svg>
