<svg xmlns="http://www.w3.org/2000/svg" xmlns:xlink="http://www.w3.org/1999/xlink" width="64" height="64" viewBox="0 0 64 64" version="1.1"><defs><linearGradient id="linear0" x1="0%" x2="100%" y1="0%" y2="100%"><stop offset="0%" style="stop-color:#ae00ff; stop-opacity:1"/><stop offset="100%" style="stop-color:#0084ff; stop-opacity:1"/></linearGradient></defs><g id="surface1"><path style=" stroke:none;fill-rule:nonzero;fill:url(#linear0);" d="M 22.917969 0.015625 C 19.277344 0.183594 15.554688 1.371094 13.144531 3.515625 C 10.046875 6.269531 8.992188 10.214844 10.660156 12.8125 C 11.371094 13.917969 13.9375 16.175781 15.085938 16.703125 C 15.5625 16.921875 15.441406 17.140625 14.242188 18.207031 C 13.472656 18.890625 12.839844 19.582031 12.839844 19.742188 C 12.839844 20.140625 13.816406 20.109375 15.707031 19.644531 C 17.511719 19.203125 17.683594 19.257812 17.683594 20.339844 C 17.683594 20.824219 18.296875 21.785156 19.308594 22.890625 L 20.9375 24.664062 L 20.945312 27.527344 C 20.953125 30.011719 20.835938 30.597656 20.066406 31.953125 C 18.953125 33.917969 17.707031 34.941406 14.554688 36.476562 C 11.113281 38.152344 9.378906 39.480469 9.378906 40.4375 C 9.378906 41.492188 10.65625 42.382812 14.539062 44.035156 C 18.410156 45.683594 20.867188 47.410156 22.027344 49.28125 C 23.304688 51.34375 23.160156 52.304688 21.296875 54.261719 C 17.765625 57.972656 17.683594 58.128906 17.683594 61.21875 L 17.683594 64 L 34.984375 64 L 34.984375 60.929688 C 34.984375 57.941406 34.957031 57.820312 33.871094 56.476562 C 32.945312 55.332031 32.730469 54.757812 32.617188 53.148438 C 32.441406 50.582031 33.078125 49.277344 35.710938 46.8125 C 38 44.667969 39.136719 43.101562 39.136719 42.105469 C 39.136719 41.753906 38.800781 40.789062 38.378906 39.964844 C 37.675781 38.566406 37.660156 38.429688 38.195312 37.992188 C 39.648438 36.800781 42.15625 39.613281 41.816406 42.0625 C 41.621094 43.476562 40.675781 44.476562 38.179688 45.894531 C 37.371094 46.355469 36.792969 46.855469 36.902344 47 C 37.199219 47.390625 40.082031 47.320312 42.125 46.871094 C 46.738281 45.867188 52.445312 42.4375 54.175781 39.636719 C 55.925781 36.800781 56.871094 33.683594 57.050781 30.222656 C 57.234375 26.53125 56.867188 24.617188 55.542969 22.378906 C 54.050781 19.851562 50.539062 18.632812 44.777344 18.625 C 40.792969 18.621094 38.496094 19.265625 36.019531 21.089844 C 33.894531 22.652344 32.527344 24.761719 31.324219 28.332031 C 30.191406 31.710938 29.917969 32.234375 29.308594 32.234375 C 29.039062 32.234375 28.640625 31.8125 28.4375 31.300781 C 27.894531 29.953125 27.390625 24.007812 27.382812 18.820312 C 27.375 15.367188 27.25 14.144531 26.847656 13.5 C 26.574219 13.066406 26.480469 12.871094 26.53125 12.78125 C 26.417969 12.667969 23.8125 11.859375 23.8125 11.859375 L 35.230469 9.820312 C 35.277344 7.191406 34.285156 4.585938 32.199219 2.640625 C 30.117188 0.707031 26.558594 -0.148438 22.917969 0.0195312 Z M 22.917969 0.015625 "/></g></svg>
