<svg xmlns="http://www.w3.org/2000/svg" xmlns:xlink="http://www.w3.org/1999/xlink" width="64" height="64" viewBox="0 0 64 64" version="1.1"><defs><linearGradient id="linear0" x1="0%" x2="100%" y1="0%" y2="100%"><stop offset="0%" style="stop-color:#e5ff00; stop-opacity:1"/><stop offset="50%" style="stop-color:#0073ff; stop-opacity:1"/><stop offset="100%" style="stop-color:#ff0000; stop-opacity:1"/></linearGradient></defs><g id="surface1"><path style=" stroke:none;fill-rule:nonzero;fill:url(#linear0);" d="M 1.570312 1.46875 L 1.578125 1.476562 C 1.558594 5.8125 2.644531 10.621094 5.078125 15.695312 L 19.792969 15.695312 C 19.792969 15.695312 19.789062 15.695312 19.789062 15.703125 C 19.789062 16.542969 14.417969 18.070312 6.414062 18.070312 C 7.695312 20.347656 9.238281 22.859375 11.085938 25.179688 L 29.550781 25.179688 L 29.542969 25.1875 C 29.542969 26.59375 22.074219 27.558594 13.121094 27.558594 C 15.113281 29.796875 17.738281 32.390625 20.3125 34.667969 L 38.773438 34.667969 C 38.773438 35.582031 32.339844 37.035156 22.074219 37.035156 C 28.816406 43.578125 36.199219 47.421875 47.613281 48.890625 C 50.46875 49.257812 56.484375 50.375 61.683594 63.109375 L 63.070312 63.109375 C 59.324219 48.890625 50.652344 37.035156 40.71875 25.1875 C 37.671875 21.777344 34.425781 18.574219 31.125 15.707031 C 21.308594 7.171875 10.707031 1.484375 1.472656 1.484375 Z M 1.570312 1.46875 "/></g></svg>
