<svg xmlns="http://www.w3.org/2000/svg" xmlns:xlink="http://www.w3.org/1999/xlink" width="64" height="64" viewBox="0 0 64 64" version="1.1"><defs><linearGradient id="linear0" x1="0%" x2="0%" y1="0%" y2="100%"><stop offset="0%" style="stop-color:#00b54e; stop-opacity:1"/><stop offset="50%" style="stop-color:#ffd000; stop-opacity:1"/><stop offset="100%" style="stop-color:#ff00bb; stop-opacity:1"/></linearGradient></defs><g id="surface1"><path style=" stroke:none;fill-rule:nonzero;fill:url(#linear0);" d="M 6.460938 1.539062 L 6.460938 15.519531 L 11.546875 15.519531 L 11.546875 6.199219 L 16.640625 6.199219 L 16.640625 1.539062 Z M 16.640625 6.199219 L 16.640625 10.863281 L 52.269531 10.863281 L 52.269531 6.199219 Z M 52.269531 6.199219 L 57.359375 6.199219 L 57.359375 15.519531 L 62.445312 15.519531 L 62.445312 1.539062 L 52.269531 1.539062 Z M 57.359375 15.519531 L 42.085938 15.519531 L 42.085938 20.179688 L 52.269531 20.179688 L 52.269531 29.496094 L 57.359375 29.496094 L 57.359375 34.160156 L 62.445312 34.160156 L 62.445312 20.179688 L 57.359375 20.179688 Z M 57.359375 34.160156 L 52.269531 34.160156 L 52.269531 38.820312 L 57.359375 38.820312 Z M 52.269531 38.820312 L 37 38.820312 L 37 34.160156 L 31.90625 34.160156 L 31.90625 38.820312 L 16.640625 38.820312 L 16.640625 43.476562 L 21.730469 43.476562 L 21.730469 48.136719 L 26.816406 48.136719 L 26.816406 43.476562 L 52.269531 43.476562 Z M 21.730469 48.136719 L 16.640625 48.136719 L 16.640625 57.457031 L 11.546875 57.457031 L 11.546875 62.117188 L 21.730469 62.117188 Z M 16.640625 38.820312 L 16.640625 34.160156 L 11.546875 34.160156 L 11.546875 38.820312 Z M 11.546875 34.160156 L 11.546875 29.496094 L 16.640625 29.496094 L 16.640625 20.179688 L 26.816406 20.179688 L 26.816406 15.519531 L 11.546875 15.519531 L 11.546875 20.179688 L 6.460938 20.179688 L 6.460938 24.839844 L 1.371094 24.839844 L 1.371094 29.496094 L 6.460938 29.496094 L 6.460938 34.160156 Z M 6.460938 34.160156 L 1.371094 34.160156 L 1.371094 38.820312 L 6.460938 38.820312 Z M 6.460938 20.179688 L 6.460938 15.519531 L 1.371094 15.519531 L 1.371094 20.179688 Z M 26.816406 20.179688 L 26.816406 29.496094 L 31.90625 29.496094 L 31.90625 20.179688 Z M 26.816406 29.496094 L 16.640625 29.496094 L 16.640625 34.160156 L 26.816406 34.160156 Z M 52.269531 34.160156 L 52.269531 29.496094 L 42.085938 29.496094 L 42.085938 34.160156 Z M 42.085938 29.496094 L 42.085938 20.179688 L 37 20.179688 L 37 29.496094 Z M 57.359375 48.136719 L 57.359375 52.800781 L 52.269531 52.800781 L 52.269531 62.117188 L 57.359375 62.117188 L 57.359375 57.457031 L 62.445312 57.457031 L 62.445312 48.136719 Z M 31.90625 52.800781 L 31.90625 62.117188 L 37 62.117188 L 37 52.800781 Z M 31.90625 52.800781 "/></g></svg>
