<svg xmlns="http://www.w3.org/2000/svg" xmlns:xlink="http://www.w3.org/1999/xlink" width="64" height="64" viewBox="0 0 64 64" version="1.1"><defs><linearGradient id="linear0" x1="0%" x2="0%" y1="0%" y2="100%"><stop offset="0%" style="stop-color:#00b54e; stop-opacity:1"/><stop offset="50%" style="stop-color:#0073ff; stop-opacity:1"/><stop offset="100%" style="stop-color:#ffd000; stop-opacity:1"/></linearGradient></defs><g id="surface1"><path style="fill:none;stroke-width:18.084999;stroke-linecap:round;stroke-linejoin:round;stroke:url(#linear0);stroke-miterlimit:4;" d="M 315.832303 131.094921 L 316.796231 374.499267 C 316.840719 382.181032 310.627097 388.452619 302.93051 388.508284 L 204.209548 388.860828 C 196.498131 388.916493 190.25485 382.719127 190.210361 374.981697 L 189.246434 131.595906 C 189.231604 123.91414 195.445226 117.642554 203.112154 117.642554 L 301.877605 117.215789 C 309.559363 117.178679 315.817474 123.394601 315.832303 131.094921 Z M 315.832303 131.094921 " transform="matrix(0.263408,0,0,0.210523,-34.970147,-21.051607)"/><path style=" stroke:none;fill-rule:nonzero;fill:url(#linear0);" d="M 43.796875 33.113281 C 43.808594 32.585938 43.28125 32.148438 42.617188 32.148438 L 21.1875 31.941406 C 20.523438 31.9375 19.980469 32.355469 19.976562 32.882812 L 19.636719 55.828125 C 19.628906 56.355469 20.15625 56.785156 20.8125 56.789062 L 42.25 56.992188 C 42.90625 57 43.445312 56.582031 43.449219 56.050781 Z M 27.019531 39.613281 L 36.554688 39.703125 L 36.519531 41.605469 L 26.996094 41.519531 Z M 26.960938 43.417969 L 36.496094 43.515625 L 36.464844 45.414062 L 26.941406 45.324219 Z M 26.90625 47.230469 L 36.441406 47.3125 L 36.40625 49.222656 L 26.882812 49.132812 Z M 26.90625 47.230469 "/></g></svg>
