<svg xmlns="http://www.w3.org/2000/svg" xmlns:xlink="http://www.w3.org/1999/xlink" width="64" height="64" viewBox="0 0 64 64" version="1.1"><defs><linearGradient id="linear0" x1="0%" x2="0%" y1="0%" y2="100%"><stop offset="0%" style="stop-color:#00b54e; stop-opacity:1"/><stop offset="50%" style="stop-color:#ffd000; stop-opacity:1"/><stop offset="100%" style="stop-color:#ff00bb; stop-opacity:1"/></linearGradient></defs><g id="surface1"><path style=" stroke:none;fill-rule:nonzero;fill:url(#linear0);" d="M 19.863281 61.6875 C 16.933594 60.410156 16.089844 59.90625 16.015625 59.394531 C 15.96875 59.027344 16.355469 57.023438 16.878906 54.945312 C 18.152344 49.875 18.140625 49.605469 16.457031 48.054688 L 15.085938 46.792969 L 10.289062 48.007812 C 5.777344 49.144531 5.460938 49.1875 4.984375 48.679688 C 4.300781 47.960938 1.515625 40.917969 1.640625 40.238281 C 1.703125 39.925781 3.386719 38.699219 5.492188 37.417969 C 10.527344 34.359375 10.214844 34.710938 10.023438 32.328125 L 9.867188 30.320312 C 7.285156 28.351562 1.589844 24.539062 1.589844 24.539062 C 1.589844 24.539062 4.808594 16.289062 5.292969 16.101562 C 5.550781 16.003906 7.871094 16.445312 10.453125 17.085938 L 15.144531 18.253906 L 16.636719 16.75 L 18.117188 15.25 L 17.023438 10.890625 C 16.417969 8.496094 15.96875 6.171875 16.015625 5.726562 C 16.105469 5.003906 16.550781 4.726562 20.015625 3.265625 C 22.167969 2.359375 24.1875 1.65625 24.511719 1.699219 C 24.898438 1.75 25.957031 3.179688 27.558594 5.839844 C 28.914062 8.074219 30.191406 9.988281 30.40625 10.089844 C 30.621094 10.199219 31.515625 10.226562 32.390625 10.152344 L 33.992188 10.019531 L 34.191406 7.46875 C 34.296875 6.0625 34.386719 4.109375 34.390625 3.128906 C 34.390625 2.140625 34.523438 1.261719 34.6875 1.160156 C 34.96875 0.980469 57.816406 13.796875 58.710938 14.625 C 59.054688 14.945312 59.011719 15.121094 58.449219 15.652344 C 57.527344 16.511719 35.550781 28.878906 34.941406 28.878906 C 34.203125 28.878906 34.078125 28.203125 34.078125 24.117188 L 34.078125 20.335938 L 31.804688 20.492188 C 27.136719 20.820312 23.492188 23.214844 21.507812 27.25 C 20.554688 29.207031 20.488281 29.542969 20.488281 32.632812 C 20.488281 35.609375 20.570312 36.097656 21.367188 37.71875 C 22.574219 40.179688 24.613281 42.191406 27.136719 43.386719 C 29.0625 44.304688 29.496094 44.382812 32.355469 44.382812 C 35.097656 44.382812 35.707031 44.28125 37.273438 43.550781 C 40.949219 41.816406 43.75 38.089844 44.257812 34.253906 C 44.378906 33.335938 44.664062 32.511719 44.886719 32.421875 C 45.113281 32.335938 47.234375 32.722656 49.609375 33.277344 C 53.769531 34.246094 54.066406 34.367188 58.410156 36.96875 C 60.875 38.457031 62.957031 39.835938 63.039062 40.046875 C 63.117188 40.265625 62.433594 42.304688 61.519531 44.601562 C 60.023438 48.34375 59.769531 48.78125 59.039062 48.867188 C 58.59375 48.917969 56.273438 48.464844 53.882812 47.859375 L 49.546875 46.757812 L 46.515625 49.773438 L 47.667969 54.53125 C 48.304688 57.140625 48.753906 59.464844 48.664062 59.699219 C 48.472656 60.195312 41.167969 63.335938 40.1875 63.335938 C 39.644531 63.335938 38.992188 62.484375 37.03125 59.1875 L 34.546875 55.035156 L 32.488281 54.941406 C 30.058594 54.832031 30.394531 54.53125 27.390625 59.515625 C 25.585938 62.503906 25.03125 63.191406 24.390625 63.242188 C 23.960938 63.285156 21.925781 62.582031 19.863281 61.679688 Z M 19.863281 61.6875 "/></g></svg>
