<svg xmlns="http://www.w3.org/2000/svg" xmlns:xlink="http://www.w3.org/1999/xlink" width="64" height="64" viewBox="0 0 64 64" version="1.1"><defs><linearGradient id="linear0" x1="0%" x2="100%" y1="0%" y2="100%"><stop offset="0%" style="stop-color:#ae00ff; stop-opacity:1"/><stop offset="100%" style="stop-color:#0084ff; stop-opacity:1"/></linearGradient></defs><g id="surface1"><path style=" stroke:none;fill-rule:nonzero;fill:url(#linear0);" d="M 21.488281 1.683594 C 20.21875 1.683594 19.242188 1.714844 18.117188 2.054688 C 17.554688 2.226562 16.90625 2.507812 16.332031 3.042969 C 15.753906 3.585938 15.375 4.394531 15.324219 5.054688 C 15.214844 6.378906 15.746094 7.019531 16.097656 7.5625 C 16.449219 8.105469 16.804688 8.554688 17.113281 8.992188 C 17.121094 9.003906 17.128906 9.011719 17.136719 9.023438 C 18.511719 10.894531 18.761719 14.15625 18.84375 17.582031 C 18.84375 18.578125 18.816406 19.957031 20.003906 21.371094 C 21.214844 22.808594 23.433594 23.453125 25.648438 23.453125 L 39.53125 23.453125 C 41.882812 23.453125 44.1875 22.679688 45.375 21.207031 C 46.558594 19.730469 46.539062 18.285156 46.539062 17.25 C 46.539062 17.242188 46.539062 17.234375 46.539062 17.226562 C 46.503906 13.925781 46.609375 11.21875 48.25 9.125 L 48.257812 9.121094 C 48.640625 8.628906 49.03125 8.144531 49.398438 7.542969 C 49.761719 6.933594 50.269531 6.164062 50.035156 4.863281 C 49.800781 3.5625 48.335938 2.417969 47.226562 2.074219 C 46.121094 1.726562 45.125 1.683594 43.886719 1.683594 Z M 23.023438 7.113281 L 42.402344 7.113281 C 40.214844 10.566406 40.183594 14.242188 40.21875 17.273438 L 40.214844 17.25 C 40.214844 17.613281 40.171875 17.859375 40.140625 18.007812 C 40.046875 18.011719 39.96875 18.019531 39.53125 18.019531 L 25.648438 18.019531 C 25.332031 18.019531 25.332031 18.015625 25.21875 18.011719 C 25.199219 17.878906 25.167969 17.78125 25.167969 17.523438 C 25.167969 17.507812 25.167969 17.488281 25.167969 17.464844 C 25.097656 14.355469 25.070312 10.5625 23.023438 7.113281 Z M 12.328125 9.941406 C 9.878906 9.941406 7.324219 10.542969 5.246094 12.042969 C 3.167969 13.542969 1.800781 15.992188 1.800781 18.789062 L 1.800781 54.644531 C 1.800781 54.675781 1.800781 54.699219 1.800781 54.730469 C 1.890625 57.398438 3.324219 59.789062 5.476562 61.285156 C 7.628906 62.785156 10.347656 63.464844 13.117188 63.464844 L 13.125 63.464844 L 53.152344 63.410156 C 55.945312 63.410156 58.664062 62.75 60.625 61.113281 C 62.585938 59.480469 63.453125 57.101562 63.453125 54.589844 L 63.453125 18.789062 C 63.453125 16.445312 62.558594 14.164062 60.691406 12.5 C 58.828125 10.839844 56.09375 9.941406 53.152344 9.941406 C 51.3125 9.941406 49.828125 11.222656 49.828125 12.800781 C 49.828125 14.378906 51.3125 15.65625 53.152344 15.65625 C 54.636719 15.65625 55.386719 16.007812 55.902344 16.46875 C 56.421875 16.929688 56.796875 17.636719 56.796875 18.789062 L 56.796875 54.589844 C 56.796875 56.066406 56.402344 56.667969 55.984375 57.015625 C 55.570312 57.363281 54.800781 57.6875 53.152344 57.6875 L 53.148438 57.6875 L 13.117188 57.746094 C 11.625 57.746094 10.417969 57.367188 9.671875 56.847656 C 8.925781 56.328125 8.496094 55.734375 8.457031 54.558594 L 8.457031 18.789062 C 8.457031 17.414062 8.898438 16.875 9.527344 16.417969 C 10.160156 15.96875 11.203125 15.65625 12.328125 15.65625 C 14.167969 15.65625 15.660156 14.378906 15.660156 12.800781 C 15.660156 11.222656 14.167969 9.941406 12.328125 9.941406 Z M 12.328125 9.941406 "/></g></svg>
