<svg xmlns="http://www.w3.org/2000/svg" xmlns:xlink="http://www.w3.org/1999/xlink" width="64" height="64" viewBox="0 0 64 64" version="1.1"><defs><linearGradient id="linear0" x1="0%" x2="0%" y1="0%" y2="100%"><stop offset="0%" style="stop-color:#24dbdb; stop-opacity:1"/><stop offset="100%" style="stop-color:#174475; stop-opacity:1"/></linearGradient></defs><g id="surface1"><path style=" stroke:none;fill-rule:nonzero;fill:url(#linear0);" d="M 41.128906 62.066406 C 39.195312 61.070312 38.332031 59.644531 37.726562 56.453125 C 37.15625 53.460938 37.769531 51.066406 40.617188 45.03125 C 44.179688 37.484375 44.339844 34.53125 41.328125 31.144531 C 37.738281 27.109375 36.558594 23.683594 37.347656 19.65625 C 37.964844 16.507812 38.613281 15.394531 40.34375 14.511719 C 42.507812 13.410156 44.398438 13.238281 47.414062 13.871094 C 51.171875 14.660156 53.550781 15.980469 56.835938 19.101562 C 59.222656 21.375 59.753906 22.105469 60.261719 23.859375 C 61.339844 27.574219 60.625 30.617188 57.242188 36.613281 C 54.714844 41.105469 53.570312 44.410156 52.285156 50.890625 C 50.527344 59.800781 48.832031 62.488281 44.789062 62.800781 C 43.28125 62.914062 42.441406 62.742188 41.128906 62.066406 M 16.75 61.230469 C 14.035156 60.023438 12.714844 57.042969 11.417969 49.175781 C 10.179688 41.679688 9.746094 40.246094 6.894531 34.15625 C 3.929688 27.832031 3.332031 25.054688 4.269531 21.804688 C 4.800781 19.914062 5.285156 19.222656 7.671875 16.902344 C 10.917969 13.742188 14.0625 12.050781 17.777344 11.472656 C 21.992188 10.824219 24.621094 11.65625 26.542969 14.242188 C 27.226562 15.171875 27.335938 15.839844 27.335938 19.34375 C 27.335938 24.089844 26.871094 25.257812 23.550781 28.863281 C 19.894531 32.84375 19.910156 35.863281 23.621094 44.488281 C 26.097656 50.261719 26.558594 53.265625 25.5 56.882812 C 24.332031 60.917969 20.414062 62.859375 16.75 61.230469 M 60.042969 20.574219 C 59.1875 18.972656 59.828125 17.527344 61.40625 17.527344 C 62.378906 17.527344 62.867188 18.605469 62.46875 19.886719 C 61.988281 21.414062 60.683594 21.78125 60.042969 20.574219 M 3.054688 18.410156 C 2.808594 18.308594 2.480469 17.621094 2.339844 16.867188 C 2.144531 15.796875 2.230469 15.40625 2.78125 15.007812 C 3.167969 14.730469 3.597656 14.5 3.753906 14.5 C 4.347656 14.5 5.222656 15.730469 5.222656 16.578125 C 5.222656 17.074219 4.949219 17.742188 4.628906 18.0625 C 4.003906 18.679688 3.828125 18.722656 3.054688 18.410156 M 57.082031 17.453125 C 56.265625 16.628906 56.535156 14.582031 57.546875 13.917969 C 59.625 12.558594 61.035156 15.324219 59.160156 17.082031 C 58.164062 18.015625 57.730469 18.09375 57.082031 17.453125 M 5.628906 14.265625 C 4.707031 13.089844 4.636719 12.273438 5.371094 11.273438 C 5.808594 10.675781 6.089844 10.613281 6.945312 10.921875 C 8.359375 11.421875 8.910156 13.058594 8.082031 14.324219 C 7.296875 15.523438 6.601562 15.503906 5.628906 14.265625 M 53.09375 14.570312 C 52.1875 13.566406 52.324219 11.96875 53.402344 10.894531 C 55.03125 9.253906 56.628906 9.871094 56.628906 12.132812 C 56.628906 14.722656 54.542969 16.167969 53.09375 14.570312 M 39.605469 12.015625 C 38.839844 9.980469 39.527344 6.972656 41.136719 5.367188 C 42.433594 4.066406 44.789062 3.871094 45.800781 4.988281 C 47.230469 6.570312 45.972656 11.289062 43.828125 12.394531 C 43.195312 12.722656 42.066406 12.992188 41.332031 12.992188 C 40.230469 12.992188 39.914062 12.804688 39.605469 12.015625 M 47.765625 12.148438 C 46.28125 10.027344 47.953125 6.183594 50.367188 6.183594 C 51.308594 6.183594 52.472656 7.601562 52.460938 8.734375 C 52.460938 9.304688 52.128906 10.492188 51.722656 11.382812 C 51.066406 12.828125 50.863281 12.992188 49.675781 12.992188 C 48.738281 12.992188 48.1875 12.742188 47.765625 12.148438 M 8.792969 11.300781 C 8.09375 9.640625 8.101562 9.195312 8.835938 8.160156 C 9.582031 7.085938 10.546875 7.089844 11.53125 8.164062 C 13.339844 10.136719 12.753906 12.609375 10.484375 12.609375 C 9.535156 12.609375 9.25 12.382812 8.792969 11.300781 M 21.96875 10.359375 C 20.089844 9.507812 19.226562 8.054688 18.929688 5.246094 C 18.765625 3.550781 18.851562 3.132812 19.535156 2.449219 C 20.496094 1.488281 21.484375 1.433594 23.179688 2.238281 C 24.839844 3.027344 25.78125 5.019531 25.796875 7.773438 C 25.8125 10.847656 24.695312 11.589844 21.96875 10.359375 M 13.964844 10.21875 C 13.199219 9.292969 12.667969 6.082031 13.109375 4.960938 C 13.617188 3.660156 15.097656 3.234375 16.335938 4.046875 C 18.15625 5.234375 18.558594 9.472656 16.945312 10.339844 C 15.945312 10.871094 14.460938 10.8125 13.964844 10.21875 "/></g></svg>
