<svg xmlns="http://www.w3.org/2000/svg" xmlns:xlink="http://www.w3.org/1999/xlink" width="64" height="64" viewBox="0 0 64 64" version="1.1"><defs><linearGradient id="linear0" x1="0%" x2="100%" y1="0%" y2="100%"><stop offset="0%" style="stop-color:#ff0000; stop-opacity:1"/><stop offset="100%" style="stop-color:#6a00ff; stop-opacity:1"/></linearGradient></defs><g id="surface1"><path style=" stroke:none;fill-rule:nonzero;fill:url(#linear0);" d="M 6.34375 2.839844 C 4.402344 2.839844 2.828125 3.992188 2.828125 5.414062 L 2.828125 25.964844 C 2.828125 27.386719 4.402344 28.539062 6.34375 28.539062 L 9.847656 28.539062 C 19.527344 28.539062 27.386719 22.78125 27.386719 15.6875 C 27.386719 8.597656 19.527344 2.839844 9.847656 2.839844 Z M 9.847656 7.980469 C 15.671875 7.980469 20.367188 11.421875 20.367188 15.6875 C 20.367188 19.957031 15.671875 23.398438 9.847656 23.398438 Z M 9.847656 7.980469 "/><path style=" stroke:none;fill-rule:nonzero;fill:url(#linear0);" d="M 48.429688 33.671875 C 40.679688 33.671875 34.394531 39.425781 34.394531 46.523438 C 34.414062 52.371094 38.738281 57.46875 44.914062 58.9375 L 44.914062 59.367188 C 44.914062 60.789062 46.488281 61.933594 48.429688 61.933594 C 50.371094 61.933594 51.933594 60.789062 51.933594 59.367188 L 51.933594 58.9375 C 58.117188 57.46875 62.441406 52.371094 62.453125 46.523438 C 62.453125 39.425781 56.175781 33.671875 48.429688 33.671875 Z M 48.429688 38.816406 C 52.300781 38.816406 55.4375 42.261719 55.4375 46.523438 C 55.4375 49.277344 54.101562 51.824219 51.933594 53.199219 L 51.933594 51.664062 C 51.933594 50.242188 50.371094 49.097656 48.429688 49.097656 C 46.488281 49.097656 44.914062 50.242188 44.914062 51.664062 L 44.914062 53.199219 C 42.746094 51.824219 41.410156 49.277344 41.410156 46.523438 C 41.410156 42.261719 44.554688 38.816406 48.429688 38.816406 Z M 48.429688 38.816406 "/></g></svg>
