<svg xmlns="http://www.w3.org/2000/svg" xmlns:xlink="http://www.w3.org/1999/xlink" width="64" height="64" viewBox="0 0 64 64" version="1.1"><defs><linearGradient id="linear0" x1="0%" x2="0%" y1="0%" y2="100%"><stop offset="0%" style="stop-color:#00b54e; stop-opacity:1"/><stop offset="50%" style="stop-color:#0073ff; stop-opacity:1"/><stop offset="100%" style="stop-color:#ffd000; stop-opacity:1"/></linearGradient></defs><g id="surface1"><path style=" stroke:none;fill-rule:nonzero;fill:url(#linear0);" d="M 47.667969 1.933594 C 45.332031 1.953125 43.28125 2.285156 41.882812 2.601562 C 41.703125 2.640625 41.570312 2.675781 41.414062 2.71875 C 45.582031 4.207031 48.644531 6.816406 50.761719 9.417969 C 52.355469 11.363281 53.429688 13.304688 54.074219 14.785156 C 54.390625 15.523438 54.605469 16.144531 54.722656 16.613281 C 54.78125 16.847656 54.820312 17.035156 54.835938 17.222656 C 54.839844 17.3125 54.851562 17.394531 54.820312 17.53125 C 54.8125 17.542969 54.808594 17.5625 54.800781 17.574219 C 54.882812 20.058594 54.222656 21.730469 54.132812 24.179688 C 54.078125 25.953125 54.539062 27.980469 54.652344 30.148438 C 54.765625 32.242188 54.511719 34.507812 53.046875 36.734375 C 53.0625 36.746094 53.070312 36.761719 53.082031 36.777344 C 53.359375 37.109375 53.628906 37.410156 53.859375 37.71875 C 57.753906 31.960938 60.535156 25.535156 62.015625 20.074219 C 62.78125 17.210938 63.195312 14.621094 63.226562 12.546875 C 63.261719 10.472656 62.878906 8.933594 62.28125 8.207031 C 58.09375 3.089844 52.328125 1.890625 47.667969 1.933594 M 33.566406 2.6875 C 30.160156 2.761719 27.648438 3.789062 25.738281 5.304688 C 23.707031 6.921875 22.363281 9.121094 21.484375 11.363281 C 20.3125 14.320312 19.964844 17.285156 19.871094 18.96875 C 20.078125 18.839844 20.308594 18.699219 20.5625 18.566406 C 21.589844 18.015625 22.953125 17.457031 24.390625 17.140625 C 25.117188 16.980469 25.859375 16.882812 26.585938 16.882812 C 27.316406 16.882812 28.035156 16.988281 28.707031 17.234375 C 30.046875 17.730469 31.15625 18.871094 31.574219 20.710938 C 33.636719 29.871094 30.964844 33.121094 29.925781 35.792969 C 29.382812 37.1875 28.914062 38.394531 28.769531 39.367188 C 29.105469 39.175781 29.429688 39.058594 29.742188 39.03125 C 30.34375 38.980469 30.832031 39.179688 31.15625 39.308594 C 31.164062 39.308594 31.164062 39.308594 31.167969 39.308594 C 32.035156 39.664062 32.6875 40.433594 33.03125 41.316406 C 33.226562 41.832031 33.328125 42.402344 33.246094 42.960938 C 33.207031 44.433594 33.1875 45.886719 33.1875 47.300781 C 33.421875 48.660156 33.546875 50.320312 33.5 51.90625 C 33.460938 53.160156 33.421875 54.273438 33.433594 55.257812 C 33.484375 55.867188 33.542969 56.433594 33.601562 56.933594 C 33.730469 58.007812 33.902344 58.820312 34.042969 59.164062 C 34.421875 60.074219 34.984375 61.3125 36.074219 62.183594 C 37.164062 63.0625 38.769531 63.625 41.484375 63.078125 C 43.792969 62.605469 45.28125 61.925781 46.285156 60.925781 C 47.296875 59.921875 47.882812 58.550781 48.238281 56.542969 C 48.777344 53.566406 49.828125 45.160156 49.984375 43.339844 C 49.984375 43.339844 49.984375 43.339844 49.984375 43.335938 C 49.914062 42.097656 50.097656 41.1875 50.472656 40.519531 C 50.859375 39.847656 51.433594 39.453125 51.949219 39.234375 C 52.429688 39.027344 52.839844 38.945312 53.085938 38.871094 C 52.941406 38.582031 52.617188 38.160156 52.125 37.558594 C 51.523438 36.839844 50.792969 35.886719 50.210938 34.535156 C 50.125 34.339844 49.824219 33.8125 49.425781 33.132812 C 49.027344 32.453125 48.539062 31.605469 48.019531 30.652344 C 46.984375 28.753906 45.863281 26.441406 45.28125 24.230469 C 44.707031 22.011719 44.648438 19.796875 46.03125 18.28125 C 47.328125 16.863281 49.730469 16.320312 53.476562 16.773438 C 53.375 16.398438 53.214844 15.90625 52.941406 15.273438 C 52.328125 13.890625 51.308594 12.042969 49.796875 10.191406 C 46.773438 6.5 41.847656 2.800781 34.265625 2.691406 C 34.03125 2.6875 33.792969 2.6875 33.566406 2.691406 M 14.238281 2.808594 C 13.859375 2.808594 13.476562 2.816406 13.097656 2.84375 C 10.039062 3.007812 7.097656 3.871094 4.992188 6.007812 C 2.890625 8.140625 1.542969 11.601562 1.84375 17.226562 C 1.898438 18.339844 2.378906 21.273438 3.207031 24.796875 C 4.027344 28.320312 5.199219 32.46875 6.605469 36.132812 C 8.019531 39.800781 9.699219 42.992188 11.402344 44.578125 C 12.253906 45.367188 13.058594 45.742188 13.84375 45.710938 C 14.632812 45.679688 15.503906 45.238281 16.488281 44.105469 C 19.015625 41.1875 21.257812 38.871094 22.019531 38.09375 C 19.460938 36.15625 17.902344 32.863281 18.429688 29.253906 C 18.429688 29.25 18.429688 29.25 18.429688 29.25 C 18.742188 27.121094 18.785156 25.144531 18.742188 23.585938 C 18.710938 22.140625 18.617188 21.128906 18.605469 20.535156 C 18.601562 20.492188 18.59375 20.449219 18.59375 20.40625 L 18.59375 20.375 C 18.59375 20.371094 18.59375 20.359375 18.59375 20.351562 C 18.585938 20.058594 18.523438 15.507812 20.335938 10.914062 C 21.226562 8.667969 22.574219 6.390625 24.632812 4.636719 C 22.808594 4.03125 18.574219 2.800781 14.238281 2.808594 M 50.957031 17.808594 C 48.871094 17.84375 47.628906 18.367188 46.953125 19.101562 C 45.992188 20.15625 45.949219 21.882812 46.472656 23.925781 C 47.011719 25.964844 48.085938 28.207031 49.097656 30.070312 C 49.609375 31 50.101562 31.847656 50.5 32.523438 C 50.898438 33.195312 51.179688 33.6875 51.335938 34.050781 C 51.617188 34.683594 51.921875 35.214844 52.242188 35.675781 C 53.320312 33.84375 53.511719 32.050781 53.417969 30.214844 C 53.3125 28.191406 52.832031 26.144531 52.890625 24.144531 C 52.988281 21.652344 53.558594 20.046875 53.558594 17.988281 C 52.761719 17.878906 52.035156 17.820312 51.390625 17.808594 C 51.238281 17.808594 51.101562 17.808594 50.957031 17.808594 M 26.582031 18.109375 C 25.964844 18.109375 25.308594 18.195312 24.660156 18.339844 C 23.355469 18.628906 22.078125 19.15625 21.140625 19.652344 C 20.671875 19.902344 20.289062 20.144531 20.046875 20.335938 C 19.945312 20.417969 19.882812 20.480469 19.835938 20.523438 C 19.84375 20.949219 19.945312 22.035156 19.980469 23.558594 C 20.015625 25.164062 19.976562 27.207031 19.648438 29.421875 C 18.898438 34.5625 22.9375 38.84375 27.65625 38.644531 C 27.886719 37.597656 28.316406 36.515625 28.769531 35.351562 C 29.9375 32.34375 32.371094 29.882812 30.367188 20.984375 C 30.023438 19.464844 29.269531 18.746094 28.269531 18.378906 C 27.769531 18.195312 27.195312 18.109375 26.582031 18.109375 M 50.1875 18.871094 C 50.390625 18.871094 50.578125 18.902344 50.746094 18.941406 C 50.917969 18.976562 51.066406 19.03125 51.207031 19.117188 C 51.332031 19.203125 51.433594 19.339844 51.472656 19.511719 L 51.484375 19.511719 C 51.484375 19.519531 51.484375 19.523438 51.484375 19.527344 C 51.484375 19.527344 51.484375 19.527344 51.484375 19.535156 C 51.484375 19.535156 51.476562 19.535156 51.476562 19.535156 C 51.511719 19.722656 51.464844 19.886719 51.378906 20.03125 C 51.304688 20.199219 51.1875 20.351562 51.035156 20.503906 C 50.734375 20.796875 50.304688 21.070312 49.796875 21.136719 L 49.785156 21.136719 C 49.277344 21.1875 48.824219 21.023438 48.488281 20.804688 C 48.324219 20.695312 48.1875 20.574219 48.078125 20.445312 C 47.972656 20.320312 47.886719 20.207031 47.847656 20.054688 L 47.847656 20.027344 C 47.816406 19.839844 47.894531 19.667969 48 19.542969 C 48.105469 19.421875 48.234375 19.335938 48.390625 19.25 C 48.695312 19.089844 49.09375 18.96875 49.542969 18.90625 C 49.765625 18.875 49.984375 18.863281 50.1875 18.871094 M 26.695312 19.207031 C 26.914062 19.203125 27.140625 19.214844 27.382812 19.246094 C 27.863281 19.308594 28.289062 19.433594 28.640625 19.621094 C 28.816406 19.714844 28.984375 19.8125 29.121094 19.984375 C 29.265625 20.144531 29.390625 20.417969 29.339844 20.710938 L 29.339844 20.734375 C 29.285156 20.992188 29.175781 21.136719 29.046875 21.285156 C 28.914062 21.441406 28.761719 21.578125 28.5625 21.707031 C 28.175781 21.964844 27.648438 22.15625 27.042969 22.078125 C 26.441406 21.996094 25.976562 21.6875 25.636719 21.347656 C 25.476562 21.179688 25.335938 21 25.234375 20.804688 C 25.144531 20.621094 25.058594 20.429688 25.105469 20.132812 L 25.101562 20.132812 C 25.101562 20.125 25.105469 20.117188 25.105469 20.105469 C 25.105469 20.101562 25.105469 20.089844 25.105469 20.085938 L 25.117188 20.085938 C 25.175781 19.8125 25.34375 19.613281 25.515625 19.503906 C 25.691406 19.378906 25.871094 19.320312 26.066406 19.277344 C 26.261719 19.234375 26.46875 19.214844 26.695312 19.207031 M 53.800781 39.917969 C 53.71875 39.957031 53.644531 39.984375 53.570312 40.011719 C 53.175781 40.140625 52.789062 40.214844 52.4375 40.359375 C 52.082031 40.515625 51.785156 40.71875 51.550781 41.125 C 51.335938 41.503906 51.164062 42.109375 51.207031 43.070312 C 51.222656 43.148438 51.238281 43.226562 51.222656 43.304688 C 51.230469 43.328125 51.25 43.355469 51.316406 43.410156 C 51.410156 43.492188 51.621094 43.597656 51.910156 43.6875 C 52.480469 43.855469 53.359375 43.949219 54.332031 43.945312 C 56.277344 43.925781 58.632812 43.515625 59.953125 42.929688 C 61.671875 42.167969 63.046875 41.085938 63.441406 40.507812 C 63.464844 40.480469 63.449219 40.488281 63.464844 40.464844 C 63.285156 40.449219 62.992188 40.4375 62.496094 40.535156 C 62.496094 40.535156 62.496094 40.535156 62.492188 40.535156 C 58.417969 41.34375 56.160156 41.101562 54.847656 40.578125 C 54.363281 40.390625 54.046875 40.15625 53.800781 39.917969 M 29.84375 40.261719 C 29.582031 40.28125 29.25 40.390625 28.765625 40.910156 C 28.734375 40.949219 28.695312 40.980469 28.660156 41.007812 C 27.683594 42.078125 27.289062 42.757812 26.542969 43.324219 C 25.765625 43.914062 24.738281 44.234375 22.542969 44.667969 C 21.496094 44.875 20.898438 45.144531 20.695312 45.300781 C 20.625 45.363281 20.632812 45.363281 20.640625 45.355469 C 20.683594 45.433594 20.9375 45.671875 21.289062 45.855469 C 21.648438 46.042969 22.089844 46.199219 22.457031 46.28125 C 22.457031 46.28125 22.464844 46.28125 22.464844 46.28125 C 23.449219 46.515625 25.050781 46.792969 26.757812 46.515625 C 28.464844 46.234375 30.269531 45.425781 31.765625 43.414062 C 31.894531 43.246094 31.96875 43.058594 32.015625 42.859375 C 32.015625 42.683594 32.015625 42.511719 32.023438 42.332031 C 32.023438 42.3125 32.023438 42.300781 32.023438 42.28125 C 31.996094 42.113281 31.957031 41.9375 31.882812 41.757812 C 31.65625 41.15625 31.164062 40.632812 30.707031 40.449219 C 30.707031 40.445312 30.707031 40.449219 30.699219 40.449219 C 30.382812 40.320312 30.113281 40.234375 29.84375 40.257812 "/></g></svg>
