<svg xmlns="http://www.w3.org/2000/svg" xmlns:xlink="http://www.w3.org/1999/xlink" width="64" height="64" viewBox="0 0 64 64" version="1.1"><defs><linearGradient id="linear0" x1="0%" x2="100%" y1="0%" y2="100%"><stop offset="0%" style="stop-color:#6a00ff; stop-opacity:1"/><stop offset="50%" style="stop-color:#e0dd02; stop-opacity:1"/><stop offset="100%" style="stop-color:#00b54e; stop-opacity:1"/></linearGradient></defs><g id="surface1"><path style=" stroke:none;fill-rule:nonzero;fill:url(#linear0);" d="M 57.648438 32.078125 C 57.648438 37.152344 56.976562 41.621094 55.632812 45.476562 C 54.28125 49.3125 52.441406 52.523438 50.09375 55.117188 C 47.753906 57.714844 44.980469 59.667969 41.773438 61 C 38.605469 62.324219 35.160156 62.992188 31.476562 62.992188 L 9.726562 62.992188 L 9.726562 2.078125 L 29.183594 2.078125 C 33.355469 2.078125 37.179688 2.671875 40.671875 3.847656 C 44.15625 5.03125 47.15625 6.847656 49.671875 9.300781 C 52.1875 11.75 54.152344 14.859375 55.550781 18.636719 C 56.945312 22.414062 57.648438 26.890625 57.648438 32.082031 M 46.316406 32.082031 C 46.316406 28.535156 45.882812 25.492188 45.019531 22.960938 C 44.175781 20.421875 42.996094 18.347656 41.46875 16.734375 C 39.949219 15.09375 38.109375 13.878906 35.976562 13.105469 C 33.867188 12.324219 31.527344 11.9375 28.957031 11.9375 L 20.984375 11.9375 L 20.984375 53.136719 L 30.527344 53.136719 C 32.785156 53.136719 34.871094 52.6875 36.78125 51.789062 C 38.710938 50.898438 40.378906 49.574219 41.773438 47.816406 C 43.203125 46.027344 44.3125 43.824219 45.101562 41.203125 C 45.914062 38.578125 46.320312 35.542969 46.320312 32.082031 "/></g></svg>
