<svg xmlns="http://www.w3.org/2000/svg" xmlns:xlink="http://www.w3.org/1999/xlink" width="64" height="64" viewBox="0 0 64 64" version="1.1"><defs><linearGradient id="linear0" x1="0%" x2="100%" y1="0%" y2="100%"><stop offset="0%" style="stop-color:#e5ff00; stop-opacity:1"/><stop offset="50%" style="stop-color:#0073ff; stop-opacity:1"/><stop offset="100%" style="stop-color:#ff0000; stop-opacity:1"/></linearGradient></defs><g id="surface1"><path style=" stroke:none;fill-rule:nonzero;fill:url(#linear0);" d="M 1.152344 62.945312 C 1.152344 62.734375 30.691406 4.683594 31.6875 2.945312 L 32.367188 1.742188 L 33.113281 3.097656 C 33.53125 3.84375 36.535156 9.765625 39.8125 16.265625 C 43.085938 22.757812 49.679688 35.808594 54.46875 45.273438 C 61.1875 58.554688 63.085938 62.542969 62.773438 62.746094 C 62.546875 62.890625 59.851562 63.007812 56.789062 63.019531 L 51.210938 63.023438 L 49.574219 61.300781 C 45.449219 56.980469 38.234375 53.0625 30.175781 50.761719 L 26.566406 49.734375 L 31.074219 49.5 C 35.320312 49.285156 40.101562 49.429688 42.710938 49.863281 C 43.589844 50 43.863281 49.941406 43.863281 49.613281 C 43.863281 48.792969 32.800781 27.914062 32.367188 27.914062 C 32.054688 27.914062 29.820312 31.929688 21.152344 48.109375 C 16.894531 56.050781 13.386719 62.582031 13.355469 62.621094 C 13.226562 62.78125 1.152344 63.097656 1.152344 62.9375 Z M 1.152344 62.945312 "/></g></svg>
