<svg xmlns="http://www.w3.org/2000/svg" xmlns:xlink="http://www.w3.org/1999/xlink" width="64" height="64" viewBox="0 0 64 64" version="1.1"><defs><linearGradient id="linear0" x1="100%" x2="0%" y1="100%" y2="0%"><stop offset="0%" style="stop-color:#00b54e; stop-opacity:1"/><stop offset="100%" style="stop-color:#ff0000; stop-opacity:1"/></linearGradient></defs><g id="surface1"><path style=" stroke:none;fill-rule:nonzero;fill:url(#linear0);" d="M 30.191406 1.714844 C 26.441406 1.800781 26.695312 2.472656 25.113281 5.675781 C 22.554688 10.835938 20.761719 18.316406 21.132812 22.746094 C 21.519531 27.46875 22.796875 30.542969 25.261719 32.847656 C 28.21875 35.636719 31.832031 35.277344 34.875 32.027344 C 37.613281 29.105469 38.625 26.085938 38.871094 19.46875 C 39.015625 15.28125 39.101562 14.785156 39.410156 15.496094 C 40.625 18.28125 40.949219 24.824219 40.101562 28.0625 C 39.402344 30.742188 37.65625 34.019531 36.253906 35.308594 C 34.398438 37 32.398438 37.769531 29.652344 37.902344 C 27.8125 37.992188 27.089844 37.957031 25.667969 37.488281 C 22.027344 36.285156 17.523438 32.828125 14.941406 29.433594 C 11.277344 24.617188 7.628906 14.820312 6.695312 7.03125 C 6.515625 5.527344 6.265625 4.164062 6.152344 4.03125 C 5.5 3.285156 2.960938 6.417969 2.171875 8.953125 C 1.648438 10.582031 1.617188 11.351562 1.617188 25.757812 L 1.617188 40.917969 L 2.308594 41.328125 C 3.28125 41.957031 7.519531 43.222656 10.984375 43.917969 C 13.609375 44.457031 14.667969 44.609375 20.878906 44.609375 C 27.097656 44.59375 28.265625 44.445312 30.648438 43.917969 C 34.542969 43.074219 37.449219 41.691406 39.867188 39.277344 C 43.265625 35.886719 44.523438 32.449219 44.535156 27.121094 C 44.546875 23.578125 44.03125 20.75 42.601562 17.964844 C 42.085938 16.945312 41.589844 16.113281 41.640625 16.050781 C 41.957031 15.734375 45.507812 19.941406 46.324219 21.644531 C 51.417969 32.347656 48.976562 41.074219 38.476562 49.785156 C 33.824219 53.640625 25.765625 58.941406 21.15625 61.253906 C 19.539062 62.050781 19.238281 62.351562 19.632812 62.757812 C 19.738281 62.851562 27.769531 62.933594 37.507812 62.878906 L 55.238281 62.757812 L 56.757812 62.066406 C 59.8125 60.613281 61.753906 58.464844 62.660156 55.511719 C 63.199219 53.820312 63.214844 53.046875 63.214844 32.292969 C 63.214844 10.488281 63.171875 8.601562 62.25 8.25 C 62.039062 8.171875 59.96875 8.398438 57.710938 8.789062 C 55.210938 9.226562 51.683594 9.589844 48.632812 9.753906 C 43.308594 10.019531 40.628906 10.53125 37.492188 11.796875 C 34.582031 12.984375 32.890625 13.929688 31.308594 15.214844 C 29.882812 16.371094 29.695312 16.527344 29.238281 18.363281 C 28.613281 20.90625 28.21875 22.03125 27.171875 23.414062 C 26.390625 24.421875 25.628906 24.917969 25.636719 24.371094 C 25.683594 23.394531 26.570312 20.332031 27.433594 18.628906 C 29.992188 13.582031 33.316406 9.976562 39.820312 5.113281 C 41.808594 3.597656 43.527344 2.292969 43.527344 2.09375 C 43.527344 1.796875 42.070312 1.683594 35.546875 1.683594 C 33.214844 1.683594 31.429688 1.652344 30.175781 1.683594 M 35.53125 14.539062 C 35.957031 14.539062 35.960938 14.953125 35.402344 19.054688 C 34.804688 23.363281 33.25 26.820312 31.273438 28.886719 C 29.878906 30.351562 28.371094 30.738281 27.292969 29.976562 C 26.679688 29.550781 25.917969 28.09375 25.917969 27.382812 C 25.917969 27.035156 26.054688 27.023438 26.464844 27.253906 C 27.304688 27.695312 27.644531 27.585938 28.664062 26.707031 C 30.371094 25.210938 32.152344 20.925781 33.070312 16.050781 C 33.167969 15.480469 34.742188 14.523438 35.53125 14.523438 "/></g></svg>
