<svg xmlns="http://www.w3.org/2000/svg" xmlns:xlink="http://www.w3.org/1999/xlink" width="64" height="64" viewBox="0 0 64 64" version="1.1"><defs><linearGradient id="linear0" x1="0%" x2="100%" y1="0%" y2="100%"><stop offset="0%" style="stop-color:#ff0000; stop-opacity:1"/><stop offset="50%" style="stop-color:#ffd000; stop-opacity:1"/><stop offset="100%" style="stop-color:#ff00bb; stop-opacity:1"/></linearGradient></defs><g id="surface1"><path style=" stroke:none;fill-rule:nonzero;fill:url(#linear0);" d="M 11.148438 1.777344 C 5.867188 1.777344 4.550781 4.035156 1.910156 7.421875 C 5.6875 5.703125 8.074219 5.105469 11.414062 6.292969 C 13.929688 7.1875 21.285156 13.101562 29.222656 20.859375 C 19.980469 35.089844 7.878906 55.617188 4.550781 62.730469 L 16.433594 62.730469 C 22.179688 47.285156 28.03125 34.472656 33.160156 24.816406 C 44.023438 36.03125 54.707031 49.722656 54.707031 58.21875 C 54.707031 59.46875 55.882812 60.472656 57.34375 60.472656 L 59.984375 60.472656 C 61.449219 60.472656 62.625 59.46875 62.625 58.21875 C 62.625 50.210938 50.175781 32 36.726562 18.402344 C 38.453125 15.441406 40.074219 12.863281 41.503906 10.808594 L 44.148438 10.808594 C 45.753906 10.808594 46.785156 11.691406 46.785156 13.066406 L 52.066406 8.554688 C 52.066406 8.554688 50.46875 6.292969 46.785156 6.292969 L 40.1875 6.292969 C 39.382812 6.292969 36.683594 9.816406 33.175781 14.945312 C 24.996094 7.292969 16.808594 1.777344 11.148438 1.777344 Z M 11.148438 1.777344 "/></g></svg>
