<svg xmlns="http://www.w3.org/2000/svg" xmlns:xlink="http://www.w3.org/1999/xlink" width="64" height="64" viewBox="0 0 64 64" version="1.1"><defs><linearGradient id="linear0" x1="0%" x2="100%" y1="0%" y2="100%"><stop offset="0%" style="stop-color:#00b54e; stop-opacity:1"/><stop offset="100%" style="stop-color:#0073ff; stop-opacity:1"/></linearGradient></defs><g id="surface1"><path style=" stroke:none;fill-rule:nonzero;fill:url(#linear0);" d="M 35.222656 1.230469 C 33.441406 1.273438 31.667969 1.589844 29.949219 2.222656 C 27.6875 3.050781 37.050781 3.652344 40.386719 4.519531 C 45.09375 5.746094 48.386719 8.429688 51.359375 12.003906 C 54.195312 15.414062 54.820312 19.34375 54.496094 23.59375 C 54.160156 28.027344 54.445312 32.546875 53.003906 36.824219 C 51.195312 42.191406 47.621094 47.085938 42.25 49.585938 C 37.042969 52.015625 30.84375 52.035156 25.738281 49.136719 C 23.519531 47.871094 19.972656 42.394531 19.929688 43.757812 C 19.765625 49.367188 26.402344 52.550781 31.53125 54.679688 C 35.507812 56.328125 39.570312 54.675781 43.464844 54.363281 C 47.265625 54.050781 50.453125 52.101562 53.175781 49.601562 C 57.113281 45.980469 60.214844 41.640625 61.78125 36.496094 C 64.398438 27.898438 61.445312 18.726562 55.878906 11.949219 C 50.933594 5.914062 42.957031 1.046875 35.222656 1.238281 Z M 32.859375 8.636719 C 29.988281 8.6875 27.113281 9.472656 24.332031 9.742188 C 18.566406 10.300781 15.03125 15.125 11.300781 18.851562 C 7.3125 22.84375 6.910156 28.464844 5.726562 33.546875 C 5.011719 36.621094 -1.804688 39.339844 2.785156 42 C 5.378906 43.503906 10.65625 45.3125 8.351562 48.976562 C 5.050781 54.222656 11.1875 52.203125 14.203125 53.5 C 17.683594 55 16.207031 60.65625 19.464844 60.132812 C 23.460938 59.492188 26.855469 61.726562 30.667969 62.011719 C 33.710938 62.246094 37.171875 63.242188 39.796875 61.734375 C 40.792969 61.15625 34.371094 61.503906 32.320312 60.546875 C 28.558594 58.789062 23.527344 59.292969 20.746094 55.878906 C 17.734375 52.179688 13.101562 48.363281 14.03125 43.15625 C 14.796875 38.839844 13.867188 34.492188 14.859375 30.207031 C 16.523438 23.007812 22.832031 17.515625 30.089844 15.855469 C 33.367188 15.105469 36.945312 13.53125 40.242188 15.433594 C 43.78125 17.476562 47.023438 19.9375 48.96875 23.503906 C 51.253906 27.6875 49.0625 20.457031 48.554688 18.910156 C 47.050781 14.335938 42.441406 11.652344 38 9.625 C 36.300781 8.851562 34.582031 8.613281 32.855469 8.640625 M 35.503906 19.253906 C 31.769531 19.253906 27.082031 20.535156 25.167969 22.667969 C 22.609375 25.515625 21.042969 26.496094 20.761719 29.742188 C 20.496094 32.984375 21.039062 37.191406 22.679688 40.5625 C 24.320312 43.929688 27.996094 46.085938 31.398438 47.003906 C 34.800781 47.921875 37.945312 47.757812 40.910156 46.527344 C 43.871094 45.300781 45.210938 42.113281 46.882812 40.003906 C 48.5625 37.890625 48.015625 36.15625 47.941406 33.390625 C 47.863281 30.625 46.921875 26.5625 45.382812 23.914062 C 43.847656 21.273438 42.375 20.902344 38.789062 19.699219 C 37.894531 19.398438 36.753906 19.253906 35.507812 19.253906 Z M 34.390625 25.671875 C 36.882812 25.84375 39.460938 27.203125 40.726562 29.464844 C 42.753906 33.082031 39.304688 39.113281 36.695312 40.292969 C 34.082031 41.46875 34.609375 40.742188 32.609375 40.46875 C 30.605469 40.203125 28.3125 38.222656 27.578125 35.457031 C 26.851562 32.695312 27.253906 28.824219 30.289062 26.683594 C 31.425781 25.878906 32.894531 25.5625 34.390625 25.671875 Z M 34.390625 25.671875 "/></g></svg>
