<svg xmlns="http://www.w3.org/2000/svg" xmlns:xlink="http://www.w3.org/1999/xlink" width="64" height="64" viewBox="0 0 64 64" version="1.1"><defs><linearGradient id="linear0" x1="0%" x2="100%" y1="0%" y2="100%"><stop offset="0%" style="stop-color:#6a00ff; stop-opacity:1"/><stop offset="50%" style="stop-color:#e0dd02; stop-opacity:1"/><stop offset="100%" style="stop-color:#00b54e; stop-opacity:1"/></linearGradient></defs><g id="surface1"><path style=" stroke:none;fill-rule:nonzero;fill:url(#linear0);" d="M 12.039062 8.59375 C 15.609375 8.59375 16.5625 9.707031 16.5625 13.351562 C 16.5625 18.125 14.296875 22.890625 14.296875 30.039062 C 14.296875 37.1875 14.296875 49.101562 21.089844 61.015625 C 12.039062 51.488281 2.984375 37.1875 2.984375 22.890625 C 2.984375 15.738281 5.25 8.59375 12.039062 8.59375 Z M 12.039062 8.59375 "/><path style=" stroke:none;fill-rule:nonzero;fill:url(#linear0);" d="M 43.714844 3.824219 C 48.238281 3.824219 50.503906 6.210938 50.503906 8.59375 C 50.503906 15.75 34.664062 18.128906 30.136719 20.511719 C 25.609375 22.898438 16.5625 27.664062 15.429688 41.957031 C 14.296875 22.898438 23.351562 3.835938 43.714844 3.835938 Z M 43.714844 3.824219 "/><path style=" stroke:none;fill-rule:nonzero;fill:url(#linear0);" d="M 16.5625 40.523438 C 16.5625 35.757812 21.089844 30.039062 30.136719 30.039062 C 43.714844 30.039062 55.027344 39.570312 61.816406 49.105469 C 54.75 45.316406 45.976562 41.953125 39.191406 41.953125 C 27.875 41.953125 24.449219 44.339844 21.089844 44.339844 C 18.824219 44.339844 16.5625 44.339844 16.5625 40.523438 Z M 16.5625 40.523438 "/></g></svg>
