<svg xmlns="http://www.w3.org/2000/svg" xmlns:xlink="http://www.w3.org/1999/xlink" width="64" height="64" viewBox="0 0 64 64" version="1.1"><defs><linearGradient id="linear0" x1="0%" x2="100%" y1="0%" y2="100%"><stop offset="0%" style="stop-color:#00b54e; stop-opacity:1"/><stop offset="100%" style="stop-color:#0073ff; stop-opacity:1"/></linearGradient></defs><g id="surface1"><path style=" stroke:none;fill-rule:nonzero;fill:url(#linear0);" d="M 25.277344 1.5 C 21.332031 2.636719 17.332031 6.238281 17.332031 10.976562 C 17.332031 14.71875 19.351562 17.398438 25.277344 20.453125 C 25.289062 20.453125 25.292969 20.449219 25.300781 20.449219 C 31.183594 28.8125 28.003906 36.394531 27.929688 41.777344 C 27.929688 51.253906 19.984375 52.4375 14.683594 53.621094 C 9.382812 54.808594 1.4375 53.621094 1.4375 58.359375 C 1.4375 60.730469 4.085938 63.097656 9.382812 63.097656 L 19.984375 63.097656 L 12.03125 58.359375 L 9.382812 60.730469 C 6.738281 60.730469 4.085938 60.730469 4.085938 58.359375 C 4.085938 56.558594 8.035156 56.847656 12.085938 56.445312 C 16.140625 56.042969 25.277344 55.992188 30.578125 48.886719 C 30.578125 51.257812 27.929688 55.996094 27.929688 55.996094 L 27.929688 58.363281 C 40.191406 61.441406 49.996094 62.9375 54.417969 58.363281 C 56.515625 58.820312 59.453125 59.199219 62.367188 57.621094 L 62.367188 55.996094 C 62.066406 54.464844 54.417969 53.625 54.417969 53.625 L 46.46875 53.625 C 43.824219 53.625 46.46875 48.886719 46.46875 48.886719 L 46.425781 48.867188 C 48.082031 47.886719 49.125 46.355469 49.125 44.152344 C 49.125 37.042969 43.828125 34.671875 43.828125 32.304688 C 43.828125 29.933594 44.546875 30.601562 51.773438 27.566406 C 57.074219 25.195312 54.425781 20.457031 51.773438 18.089844 C 51.773438 16.488281 51.4375 14.625 50.625 12.851562 C 54.417969 7.167969 48.226562 3.777344 43.816406 1.5 L 44.738281 7.308594 L 27.992188 10.246094 C 24.46875 9.222656 22.617188 8.414062 22.617188 6.242188 C 22.617188 3.5625 25.261719 1.5 25.261719 1.5 Z M 25.277344 1.5 "/></g></svg>
