<svg xmlns="http://www.w3.org/2000/svg" xmlns:xlink="http://www.w3.org/1999/xlink" width="64" height="64" viewBox="0 0 64 64" version="1.1"><defs><linearGradient id="linear0" x1="0%" x2="0%" y1="0%" y2="100%"><stop offset="0%" style="stop-color:#00b54e; stop-opacity:1"/><stop offset="50%" style="stop-color:#ffd000; stop-opacity:1"/><stop offset="100%" style="stop-color:#ff00bb; stop-opacity:1"/></linearGradient></defs><g id="surface1"><path style=" stroke:none;fill-rule:nonzero;fill:url(#linear0);" d="M 18.796875 23.320312 C 14.734375 31.183594 23.648438 67.855469 44.425781 47.578125 L 45.996094 45.941406 C 63.605469 26.417969 28.554688 18.003906 20.457031 21.757812 Z M 18.796875 23.320312 "/><path style=" stroke:none;fill-rule:nonzero;fill:url(#linear0);" d="M 2.699219 1.511719 C 2.339844 1.539062 2.007812 1.738281 1.816406 2.039062 C 1.621094 2.34375 1.582031 2.722656 1.71875 3.054688 C 3.035156 6.558594 6.050781 9.878906 8.855469 12.535156 L 61.441406 62.335938 C 61.738281 62.625 62.164062 62.726562 62.558594 62.617188 C 62.960938 62.5 63.261719 62.1875 63.359375 61.792969 C 63.449219 61.394531 63.328125 60.980469 63.023438 60.699219 L 10.4375 10.898438 C 7.738281 8.34375 4.929688 5.128906 3.855469 2.269531 C 3.6875 1.789062 3.210938 1.480469 2.691406 1.519531 Z M 2.699219 1.511719 "/></g></svg>
