<svg xmlns="http://www.w3.org/2000/svg" xmlns:xlink="http://www.w3.org/1999/xlink" width="64" height="64" viewBox="0 0 64 64" version="1.1"><defs><linearGradient id="linear0" x1="0%" x2="100%" y1="0%" y2="100%"><stop offset="0%" style="stop-color:#ff0000; stop-opacity:1"/><stop offset="100%" style="stop-color:#6a00ff; stop-opacity:1"/></linearGradient></defs><g id="surface1"><path style=" stroke:none;fill-rule:nonzero;fill:url(#linear0);" d="M 52.40625 1.5625 C 48.898438 1.5625 46.054688 4.324219 46.054688 7.730469 C 46.054688 11.140625 48.898438 13.902344 52.40625 13.902344 C 55.914062 13.902344 58.757812 11.140625 58.757812 7.730469 C 58.757812 4.324219 55.914062 1.5625 52.40625 1.5625 Z M 37.585938 7.730469 C 33.847656 7.730469 30.15625 8.554688 26.777344 10.109375 L 31.023438 17.257812 C 33.101562 16.40625 35.332031 15.957031 37.585938 15.960938 C 46.117188 15.960938 53.304688 22.136719 54.371094 30.351562 L 62.886719 30.351562 C 62.390625 24.679688 59.890625 19.347656 55.8125 15.261719 C 54.738281 15.71875 53.578125 15.957031 52.40625 15.960938 C 48.0625 15.960938 44.417969 12.761719 43.980469 8.558594 C 41.894531 8.023438 39.746094 7.734375 37.585938 7.730469 Z M 23.101562 12.148438 C 18.210938 15.445312 14.671875 20.3125 13.097656 25.886719 C 15.1875 27.441406 16.417969 29.851562 16.417969 32.410156 C 16.417969 34.953125 15.195312 37.355469 13.117188 38.90625 C 14.6875 44.484375 18.226562 49.347656 23.109375 52.648438 L 27.363281 45.496094 C 23.140625 42.394531 20.652344 37.550781 20.652344 32.410156 C 20.648438 27.265625 23.136719 22.417969 27.359375 19.3125 Z M 34.410156 18.011719 L 29.121094 23.152344 L 24.886719 30.351562 L 27.003906 34.464844 L 27.003906 36.523438 L 28.0625 39.605469 L 25.945312 42.691406 L 29.121094 42.691406 L 29.121094 40.632812 L 31.238281 38.574219 L 31.238281 36.523438 L 35.46875 36.523438 L 38.648438 35.492188 L 39.707031 36.523438 L 39.707031 37.550781 L 35.46875 42.691406 L 39.707031 42.691406 L 39.707031 40.632812 L 41.824219 38.574219 L 42.882812 39.605469 L 41.824219 41.664062 L 39.707031 44.746094 L 43.941406 44.746094 L 43.941406 40.632812 L 46.054688 38.574219 L 43.941406 36.523438 L 43.941406 33.433594 L 48.171875 30.351562 L 50.289062 30.351562 L 50.289062 26.242188 L 48.171875 27.269531 L 46.054688 30.351562 L 42.882812 32.410156 L 35.46875 28.292969 L 37.585938 25.210938 L 36.527344 20.84375 L 37.585938 18.011719 L 34.410156 21.101562 Z M 7.953125 26.242188 C 4.441406 26.242188 1.597656 29.003906 1.597656 32.410156 C 1.597656 35.816406 4.441406 38.574219 7.953125 38.574219 C 11.457031 38.574219 14.300781 35.816406 14.300781 32.410156 C 14.300781 29.003906 11.457031 26.242188 7.953125 26.242188 Z M 54.375 34.464844 C 53.3125 42.6875 46.117188 48.851562 37.585938 48.855469 C 35.332031 48.863281 33.097656 48.421875 31.019531 47.566406 L 26.777344 54.710938 C 30.15625 56.261719 33.851562 57.085938 37.585938 57.085938 C 39.75 57.082031 41.902344 56.792969 43.996094 56.253906 C 44.429688 52.054688 48.066406 48.863281 52.40625 48.855469 C 53.585938 48.855469 54.753906 49.109375 55.832031 49.574219 C 59.910156 45.480469 62.40625 40.140625 62.894531 34.464844 Z M 52.40625 50.914062 C 48.902344 50.914062 46.058594 53.675781 46.058594 57.082031 C 46.058594 60.492188 48.902344 63.253906 52.40625 63.253906 C 55.914062 63.253906 58.761719 60.492188 58.761719 57.082031 C 58.761719 53.675781 55.914062 50.914062 52.40625 50.914062 Z M 52.40625 50.914062 "/></g></svg>
