<svg xmlns="http://www.w3.org/2000/svg" xmlns:xlink="http://www.w3.org/1999/xlink" width="64" height="64" viewBox="0 0 64 64" version="1.1"><defs><linearGradient id="linear0" x1="0%" x2="0%" y1="0%" y2="100%"><stop offset="0%" style="stop-color:#00b6c7; stop-opacity:1"/><stop offset="50%" style="stop-color:#ff0000; stop-opacity:1"/><stop offset="100%" style="stop-color:#6a00ff; stop-opacity:1"/></linearGradient></defs><g id="surface1"><path style=" stroke:none;fill-rule:nonzero;fill:url(#linear0);" d="M 32.214844 63.359375 C 20.257812 63.359375 10.539062 53.613281 10.539062 41.621094 C 10.539062 35.039062 13.476562 28.875 18.589844 24.722656 C 19.757812 23.773438 21.46875 23.773438 22.636719 24.722656 C 25.382812 26.957031 28.695312 28.136719 32.214844 28.136719 C 35.738281 28.136719 39.050781 26.957031 41.796875 24.722656 C 42.964844 23.773438 44.675781 23.773438 45.84375 24.722656 C 50.957031 28.875 53.890625 35.03125 53.890625 41.621094 C 53.890625 53.613281 44.164062 63.359375 32.214844 63.359375 M 20.929688 31.027344 C 18.316406 33.902344 16.847656 37.65625 16.847656 41.636719 C 16.847656 50.253906 23.742188 57.265625 32.214844 57.265625 C 40.691406 57.265625 47.582031 50.253906 47.582031 41.636719 C 47.582031 37.65625 46.117188 33.902344 43.503906 31.027344 C 40.125 33.101562 36.207031 34.222656 32.214844 34.222656 C 28.234375 34.222656 24.316406 33.101562 20.929688 31.027344 "/><path style=" stroke:none;fill-rule:nonzero;fill:url(#linear0);" d="M 27.046875 24.945312 L 27.035156 24.945312 C 24.898438 24.945312 23.160156 23.269531 23.152344 21.203125 C 23.152344 19.136719 24.894531 17.457031 27.035156 17.453125 C 29.175781 17.453125 30.921875 19.128906 30.921875 21.191406 C 30.921875 23.269531 29.179688 24.945312 27.046875 24.945312 Z M 27.046875 24.945312 "/><path style=" stroke:none;fill-rule:nonzero;fill:url(#linear0);" d="M 31.566406 16.519531 C 29.78125 16.519531 28.339844 15.113281 28.328125 13.394531 C 28.328125 12.558594 28.667969 11.777344 29.277344 11.183594 C 29.886719 10.59375 30.699219 10.269531 31.566406 10.269531 C 33.347656 10.269531 34.800781 11.667969 34.800781 13.386719 C 34.800781 14.226562 34.464844 15.007812 33.855469 15.597656 C 33.246094 16.1875 32.433594 16.515625 31.570312 16.519531 "/><path style=" stroke:none;fill-rule:nonzero;fill:url(#linear0);" d="M 38.6875 22.445312 C 36.726562 22.445312 35.125 20.910156 35.125 19.019531 C 35.121094 17.121094 36.722656 15.582031 38.679688 15.582031 C 40.648438 15.582031 42.238281 17.121094 42.238281 19.011719 C 42.246094 20.910156 40.652344 22.445312 38.6875 22.453125 "/><path style=" stroke:none;fill-rule:nonzero;fill:url(#linear0);" d="M 29.949219 6.523438 C 28.519531 6.523438 27.359375 5.402344 27.359375 4.027344 C 27.359375 3.355469 27.628906 2.734375 28.117188 2.261719 C 28.605469 1.789062 29.253906 1.523438 29.941406 1.523438 C 31.371094 1.523438 32.53125 2.644531 32.539062 4.023438 C 32.539062 5.402344 31.378906 6.523438 29.949219 6.523438 "/><path style=" stroke:none;fill-rule:nonzero;fill:url(#linear0);" d="M 37.714844 10.894531 C 36.109375 10.894531 34.800781 9.632812 34.800781 8.089844 C 34.800781 6.53125 36.109375 5.273438 37.714844 5.273438 C 39.320312 5.273438 40.621094 6.53125 40.625 8.082031 C 40.625 8.832031 40.328125 9.539062 39.777344 10.070312 C 39.226562 10.597656 38.496094 10.894531 37.71875 10.894531 "/></g></svg>
