<svg xmlns="http://www.w3.org/2000/svg" xmlns:xlink="http://www.w3.org/1999/xlink" width="64" height="64" viewBox="0 0 64 64" version="1.1"><defs><linearGradient id="linear0" x1="0%" x2="100%" y1="0%" y2="100%"><stop offset="0%" style="stop-color:#00b54e; stop-opacity:1"/><stop offset="100%" style="stop-color:#0073ff; stop-opacity:1"/></linearGradient></defs><g id="surface1"><path style=" stroke:none;fill-rule:nonzero;fill:url(#linear0);" d="M 35.847656 6.605469 L 46.777344 6.605469 L 46.777344 18.394531 L 41.3125 39.617188 L 44.042969 56.128906 L 46.777344 63.203125 L 63.171875 63.203125 C 63.171875 63.203125 57.710938 60.84375 57.710938 56.128906 C 57.710938 46.691406 63.171875 44.332031 63.171875 37.261719 C 63.171875 27.828125 57.710938 18.394531 57.710938 13.679688 L 57.710938 6.605469 C 57.710938 4.242188 54.820312 1.890625 52.242188 1.890625 C 49.515625 1.890625 46.777344 4.242188 46.777344 4.242188 Z M 35.847656 6.605469 "/><path style=" stroke:none;fill-rule:nonzero;fill:url(#linear0);" d="M 1.335938 63.28125 L 6.808594 58.5625 L 6.808594 32.617188 C 6.808594 25.542969 13.351562 18.46875 20.464844 18.46875 C 31.402344 18.46875 39.601562 23.1875 39.601562 23.1875 C 39.601562 23.1875 42.332031 25.542969 42.332031 32.617188 C 42.332031 34.980469 36.859375 37.335938 36.859375 37.335938 L 34.132812 44.410156 L 34.132812 37.335938 L 28.664062 37.335938 L 20.464844 53.84375 L 15.003906 63.28125 Z M 1.335938 63.28125 "/><path style=" stroke:none;fill-rule:nonzero;fill:url(#linear0);" d="M 35.132812 46.75 C 32.394531 46.75 32.394531 49.109375 32.394531 49.109375 L 26.933594 53.828125 L 32.394531 53.828125 L 35.132812 56.183594 L 32.394531 58.542969 L 29.664062 63.261719 L 37.863281 63.261719 C 37.863281 63.261719 40.589844 60.902344 40.589844 58.542969 C 40.589844 56.183594 37.863281 51.464844 37.863281 51.464844 L 37.863281 49.109375 C 37.863281 49.109375 37.863281 46.75 35.132812 46.75 Z M 35.132812 46.75 "/></g></svg>
