<svg xmlns="http://www.w3.org/2000/svg" xmlns:xlink="http://www.w3.org/1999/xlink" width="64" height="64" viewBox="0 0 64 64" version="1.1"><defs><linearGradient id="linear0" x1="0%" x2="0%" y1="0%" y2="100%"><stop offset="0%" style="stop-color:#24dbdb; stop-opacity:1"/><stop offset="100%" style="stop-color:#174475; stop-opacity:1"/></linearGradient></defs><g id="surface1"><path style=" stroke:none;fill-rule:nonzero;fill:url(#linear0);" d="M 33.132812 1.960938 C 28.5625 1.972656 24.058594 3.058594 19.957031 5.121094 L 21.894531 8.53125 L 18.445312 10.558594 L 16.5 7.128906 C 11.179688 10.785156 7.152344 16.082031 5.023438 22.242188 L 13.671875 22.242188 C 17.40625 14.796875 24.914062 10.101562 33.125 10.070312 C 33.421875 10.074219 33.714844 10.082031 34.007812 10.101562 L 33.996094 10.070312 C 35.445312 7.539062 36.902344 5 38.335938 2.488281 C 36.617188 2.160156 34.867188 1.988281 33.117188 1.96875 Z M 42.105469 3.988281 L 38.617188 10.070312 L 42.105469 16.15625 L 49.078125 16.15625 L 52.566406 10.070312 L 49.078125 3.988281 Z M 55.738281 12.589844 L 51.429688 20.089844 C 53.800781 23.734375 55.0625 28.007812 55.0625 32.382812 C 55.035156 36.726562 53.757812 40.96875 51.394531 44.585938 L 55.714844 52.113281 C 59.925781 47.144531 62.441406 40.929688 62.890625 34.386719 L 59.046875 34.386719 L 59.046875 30.332031 L 62.949219 30.332031 C 62.496094 23.769531 59.964844 17.539062 55.738281 12.566406 Z M 4.710938 26.296875 L 1.222656 32.382812 L 4.710938 38.464844 L 11.6875 38.464844 L 15.175781 32.382812 L 11.6875 26.296875 Z M 5.019531 42.523438 C 7.148438 48.679688 11.179688 53.980469 16.496094 57.628906 L 18.441406 54.199219 L 21.886719 56.230469 L 19.953125 59.636719 C 24.050781 61.703125 28.558594 62.785156 33.128906 62.796875 C 34.878906 62.78125 36.632812 62.601562 38.351562 62.273438 L 34.007812 54.6875 C 34.023438 54.660156 34.035156 54.628906 34.054688 54.605469 C 33.75 54.640625 33.445312 54.667969 33.136719 54.6875 C 24.929688 54.65625 17.417969 49.960938 13.6875 42.523438 Z M 42.09375 48.605469 L 38.601562 54.6875 L 42.09375 60.773438 L 49.070312 60.773438 L 52.558594 54.6875 L 49.070312 48.605469 Z M 42.09375 48.605469 "/></g></svg>
