<svg xmlns="http://www.w3.org/2000/svg" xmlns:xlink="http://www.w3.org/1999/xlink" width="64" height="64" viewBox="0 0 64 64" version="1.1"><defs><linearGradient id="linear0" x1="0%" x2="100%" y1="0%" y2="100%"><stop offset="0%" style="stop-color:#00b54e; stop-opacity:1"/><stop offset="100%" style="stop-color:#0073ff; stop-opacity:1"/></linearGradient></defs><g id="surface1"><path style=" stroke:none;fill-rule:nonzero;fill:url(#linear0);" d="M 32.207031 1.359375 C 14.945312 1.359375 0.941406 15 0.941406 31.824219 C 0.941406 48.644531 14.945312 62.285156 32.207031 62.285156 C 49.476562 62.285156 63.480469 48.644531 63.480469 31.824219 C 63.480469 15 49.476562 1.359375 32.207031 1.359375 Z M 32.207031 3.894531 C 45.335938 3.894531 56.410156 12.496094 59.804688 24.230469 C 56.875 30.113281 52.722656 35.402344 47.652344 39.671875 C 45.222656 41.726562 42.5625 43.554688 39.625 44.839844 C 36.691406 46.132812 33.46875 46.859375 30.253906 46.683594 C 27.832031 46.554688 25.449219 45.890625 23.332031 44.75 C 28.941406 41.792969 33.996094 37.847656 38.140625 33.121094 C 40.851562 30.023438 43.230469 26.5 44.140625 22.523438 C 44.605469 20.53125 44.683594 18.453125 44.25 16.457031 C 43.828125 14.457031 42.878906 12.558594 41.445312 11.074219 C 40.046875 9.617188 38.210938 8.59375 36.230469 8.058594 C 34.261719 7.539062 32.171875 7.492188 30.160156 7.851562 C 26.136719 8.566406 22.550781 10.84375 19.667969 13.667969 C 14.589844 18.652344 11.453125 25.683594 12.03125 32.679688 C 12.316406 36.183594 13.519531 39.613281 15.582031 42.496094 C 16.042969 43.136719 16.546875 43.746094 17.089844 44.332031 C 14.089844 45.355469 10.972656 46.085938 7.824219 46.496094 C 5.113281 42.226562 3.542969 37.207031 3.542969 31.824219 C 3.542969 16.398438 16.378906 3.894531 32.207031 3.894531 Z M 32.394531 9.539062 C 34.40625 9.539062 36.433594 10.136719 38.046875 11.320312 C 39.492188 12.386719 40.558594 13.894531 41.171875 15.566406 C 41.785156 17.234375 41.933594 19.050781 41.730469 20.800781 C 41.316406 24.3125 39.496094 27.535156 37.296875 30.351562 C 33.40625 35.335938 28.230469 39.328125 22.476562 42.117188 C 21.886719 42.402344 21.289062 42.679688 20.6875 42.933594 C 19.433594 41.871094 18.367188 40.601562 17.546875 39.195312 C 15.835938 36.246094 15.269531 32.742188 15.601562 29.375 C 15.933594 26.003906 17.121094 22.75 18.71875 19.742188 C 20.5625 16.257812 23.089844 12.953125 26.621094 11.054688 C 28.382812 10.105469 30.371094 9.53125 32.394531 9.539062 Z M 60.617188 28.082031 C 60.785156 29.304688 60.878906 30.554688 60.878906 31.824219 C 60.878906 47.246094 48.039062 59.75 32.207031 59.75 C 23.316406 59.75 15.375 55.808594 10.117188 49.613281 C 13.363281 48.902344 16.53125 47.871094 19.574219 46.554688 C 20.90625 47.542969 22.378906 48.355469 23.9375 48.933594 C 28.433594 50.613281 33.535156 50.371094 38.085938 48.839844 C 42.648438 47.300781 46.683594 44.542969 50.199219 41.339844 C 54.386719 37.519531 57.925781 33.023438 60.617188 28.082031 Z M 60.617188 28.082031 "/></g></svg>
