<svg xmlns="http://www.w3.org/2000/svg" xmlns:xlink="http://www.w3.org/1999/xlink" width="64" height="64" viewBox="0 0 64 64" version="1.1"><defs><linearGradient id="linear0" x1="0%" x2="100%" y1="0%" y2="100%"><stop offset="0%" style="stop-color:#ae00ff; stop-opacity:1"/><stop offset="100%" style="stop-color:#0084ff; stop-opacity:1"/></linearGradient></defs><g id="surface1"><path style=" stroke:none;fill-rule:nonzero;fill:url(#linear0);" d="M 7.886719 1.601562 C 7.945312 3.136719 8.816406 5.472656 10.246094 7.832031 C 8.964844 6.847656 7.625 5.667969 6.300781 4.214844 C 7.335938 7.074219 9.449219 9.703125 11.894531 11.652344 C 10.507812 10.917969 9.050781 9.828125 7.558594 8.207031 C 9.679688 12.53125 13.105469 14.933594 17.164062 16.097656 C 14.964844 16.160156 13.253906 15.109375 10.59375 13.253906 C 12.496094 16.300781 15.3125 18.300781 18.164062 19.523438 C 16.363281 19.21875 14.519531 18.609375 12.90625 17.398438 C 14.851562 20.449219 19.058594 22.277344 22.859375 23.28125 C 20.8125 23.578125 18.359375 23.277344 16.753906 21.90625 C 18.191406 24.871094 21.878906 26.625 25.484375 27.183594 C 23.292969 27.796875 21.382812 27.441406 20.226562 26.78125 C 21.0625 28.21875 24.273438 29.71875 28.511719 30.160156 C 25.996094 30.929688 23.472656 31.222656 21.253906 30.738281 C 24.050781 32.390625 28.011719 32.644531 31.429688 32.289062 C 29.792969 33.699219 27.859375 34.09375 26.011719 34.039062 C 27.054688 34.871094 30.226562 35.132812 33.382812 34.902344 C 31.894531 36.34375 30.140625 37 28.515625 37.007812 C 29.082031 37.453125 32.058594 37.632812 35.046875 37.351562 C 33.476562 38.71875 31.667969 39.78125 29.710938 40.238281 C 30.675781 40.5 34.308594 39.890625 37.253906 38.761719 C 36.042969 40.457031 34.683594 41.167969 32.296875 41.570312 C 32.757812 41.9375 34.574219 42.035156 36.582031 41.71875 C 33.5625 50.625 24.796875 52.320312 17.902344 52.320312 C 17.902344 52.320312 23.550781 54.871094 29.191406 52.320312 C 29.191406 52.320312 26.367188 54.871094 17.902344 57.429688 C 17.902344 57.429688 26.367188 57.429688 29.191406 54.871094 C 29.191406 54.871094 26.367188 59.980469 23.550781 62.535156 C 43.308594 49.761719 46.132812 36.992188 46.132812 29.328125 C 46.132812 29.328125 46.132812 26.777344 48.957031 26.777344 C 51.773438 26.777344 51.773438 24.21875 57.421875 24.21875 C 54.597656 21.667969 43.308594 21.667969 40.484375 29.328125 C 32.015625 24.21875 15.078125 11.449219 15.078125 6.339844 C 15.078125 6.933594 15.148438 7.53125 15.265625 8.144531 C 11.441406 6.25 9.425781 4.96875 7.890625 1.601562 Z M 7.886719 1.601562 "/></g></svg>
