<svg xmlns="http://www.w3.org/2000/svg" xmlns:xlink="http://www.w3.org/1999/xlink" width="64" height="64" viewBox="0 0 64 64" version="1.1"><defs><linearGradient id="linear0" x1="0%" x2="0%" y1="0%" y2="100%"><stop offset="0%" style="stop-color:#00b54e; stop-opacity:1"/><stop offset="50%" style="stop-color:#0073ff; stop-opacity:1"/><stop offset="100%" style="stop-color:#ffd000; stop-opacity:1"/></linearGradient></defs><g id="surface1"><path style=" stroke:none;fill-rule:nonzero;fill:url(#linear0);" d="M 29.089844 1.097656 C 29.175781 1.121094 30.039062 2.070312 30.039062 2.070312 C 32.050781 4.355469 30.085938 6.90625 30.085938 6.90625 C 29.59375 7.613281 28.929688 9.085938 28.929688 9.085938 C 28.054688 11.070312 29.0625 12.648438 29.175781 12.8125 C 30.15625 12.664062 31.167969 12.597656 32.191406 12.605469 C 33.171875 12.617188 34.125 12.703125 35.058594 12.859375 C 33.324219 11.265625 33.199219 8.964844 33.199219 8.964844 C 33.132812 8.675781 33.140625 6.785156 33.144531 6.785156 C 33.226562 4.625 32.191406 3.511719 32.191406 3.511719 C 31.007812 1.921875 29.070312 1.085938 29.070312 1.085938 Z M 38.742188 1.710938 C 38.816406 1.761719 39.34375 2.929688 39.34375 2.929688 C 40.5625 5.730469 37.90625 7.539062 37.90625 7.539062 C 37.222656 8.0625 36.132812 9.265625 36.132812 9.265625 C 34.6875 10.878906 35.167969 12.679688 35.222656 12.886719 C 36.203125 13.050781 37.175781 13.300781 38.152344 13.625 C 39.082031 13.9375 39.96875 14.316406 40.8125 14.753906 C 39.65625 12.707031 40.246094 10.476562 40.246094 10.476562 C 40.277344 10.175781 40.863281 8.375 40.867188 8.375 C 41.605469 6.351562 40.960938 4.980469 40.960938 4.980469 C 40.328125 3.101562 38.75 1.707031 38.75 1.707031 Z M 19.738281 3.503906 C 19.832031 3.5 20.945312 4.136719 20.945312 4.136719 C 23.570312 5.675781 22.476562 8.726562 22.476562 8.726562 C 22.230469 9.550781 22.054688 11.175781 22.054688 11.175781 C 21.835938 13.332031 23.277344 14.507812 23.4375 14.652344 C 24.324219 14.207031 25.261719 13.828125 26.246094 13.523438 C 27.179688 13.226562 28.117188 13.007812 29.054688 12.867188 C 26.917969 11.898438 26.082031 9.738281 26.082031 9.738281 C 25.925781 9.484375 25.355469 7.6875 25.359375 7.6875 C 24.773438 5.609375 23.445312 4.886719 23.445312 4.886719 C 21.835938 3.738281 19.734375 3.539062 19.734375 3.539062 Z M 47.824219 5.285156 C 47.878906 5.355469 48.019531 6.628906 48.019531 6.628906 C 48.320312 9.65625 45.234375 10.582031 45.234375 10.582031 C 44.425781 10.867188 43.023438 11.671875 43.023438 11.671875 C 41.152344 12.757812 41.046875 14.632812 41.03125 14.839844 C 41.914062 15.296875 42.777344 15.84375 43.597656 16.457031 C 44.382812 17.039062 45.109375 17.675781 45.769531 18.351562 C 45.296875 16.046875 46.546875 14.089844 46.546875 14.089844 C 46.664062 13.820312 47.777344 12.292969 47.777344 12.292969 C 49.105469 10.597656 48.917969 9.105469 48.917969 9.105469 C 48.894531 7.121094 47.828125 5.300781 47.828125 5.300781 Z M 12.972656 8.558594 C 12.226562 8.59375 11.714844 8.707031 11.714844 8.707031 C 11.800781 8.675781 13.050781 8.9375 13.050781 8.9375 C 16 9.589844 15.917969 12.828125 15.917969 12.828125 C 15.941406 13.6875 16.261719 15.277344 16.261719 15.277344 C 16.71875 17.394531 18.457031 18.074219 18.644531 18.132812 C 19.351562 17.441406 20.128906 16.789062 20.957031 16.195312 C 21.757812 15.625 22.585938 15.121094 23.441406 14.695312 C 21.105469 14.4375 19.648438 12.644531 19.648438 12.644531 C 19.425781 12.445312 18.328125 10.914062 18.328125 10.914062 C 17.136719 9.121094 15.644531 8.835938 15.644531 8.835938 C 14.699219 8.539062 13.714844 8.511719 12.976562 8.550781 Z M 55.410156 11.476562 C 55.4375 11.566406 55.179688 12.820312 55.179688 12.820312 C 54.53125 15.78125 51.308594 15.703125 51.308594 15.703125 C 50.449219 15.71875 48.867188 16.046875 48.867188 16.046875 C 46.753906 16.5 46.078125 18.25 46.015625 18.433594 C 46.710938 19.144531 47.359375 19.921875 47.949219 20.761719 C 48.519531 21.5625 49.019531 22.394531 49.441406 23.25 C 49.703125 20.902344 51.492188 19.441406 51.492188 19.441406 C 51.683594 19.21875 53.210938 18.117188 53.210938 18.117188 C 54.996094 16.917969 55.28125 15.425781 55.28125 15.425781 C 55.867188 13.53125 55.414062 11.472656 55.414062 11.472656 Z M 9.695312 15.078125 C 9.527344 15.074219 9.433594 15.089844 9.433594 15.089844 C 7.460938 15.113281 5.640625 16.1875 5.640625 16.1875 C 5.714844 16.128906 6.980469 15.984375 6.980469 15.984375 C 9.996094 15.679688 10.921875 18.78125 10.921875 18.78125 C 11.203125 19.59375 12.003906 21.003906 12.003906 21.003906 C 13.089844 22.882812 14.953125 22.992188 15.160156 23 C 15.617188 22.113281 16.160156 21.25 16.769531 20.429688 C 17.355469 19.636719 17.984375 18.910156 18.660156 18.242188 C 16.363281 18.71875 14.417969 17.464844 14.417969 17.464844 C 14.144531 17.347656 12.625 16.234375 12.625 16.234375 C 11.359375 15.230469 10.207031 15.089844 9.695312 15.074219 Z M 60.53125 19.671875 C 60.539062 19.757812 59.902344 20.878906 59.902344 20.878906 C 58.371094 23.511719 55.332031 22.417969 55.332031 22.417969 C 54.511719 22.167969 52.890625 21.992188 52.890625 21.992188 C 50.738281 21.769531 49.570312 23.222656 49.425781 23.378906 C 49.867188 24.273438 50.246094 25.210938 50.550781 26.195312 C 50.847656 27.140625 51.0625 28.078125 51.203125 29.015625 C 52.171875 26.878906 54.324219 26.03125 54.324219 26.03125 C 54.574219 25.882812 56.367188 25.308594 56.367188 25.308594 C 58.4375 24.71875 59.152344 23.386719 59.152344 23.386719 C 60.296875 21.769531 60.5 19.660156 60.5 19.660156 Z M 6.207031 22.753906 C 5.617188 22.828125 5.273438 22.984375 5.273438 22.984375 C 3.402344 23.621094 2.015625 25.210938 2.015625 25.210938 C 2.0625 25.132812 3.226562 24.601562 3.226562 24.601562 C 6.015625 23.382812 7.820312 26.050781 7.820312 26.050781 C 8.339844 26.734375 9.535156 27.828125 9.535156 27.828125 C 11.148438 29.28125 12.9375 28.800781 13.144531 28.746094 C 13.3125 27.761719 13.554688 26.78125 13.878906 25.804688 C 14.191406 24.867188 14.570312 23.980469 15.003906 23.128906 C 12.96875 24.292969 10.742188 23.695312 10.742188 23.695312 C 10.449219 23.671875 8.652344 23.082031 8.652344 23.078125 C 7.644531 22.707031 6.800781 22.679688 6.210938 22.75 Z M 53.5625 28.558594 C 52.277344 28.476562 51.367188 29.070312 51.246094 29.15625 C 51.394531 30.140625 51.460938 31.152344 51.449219 32.179688 C 51.441406 33.164062 51.355469 34.125 51.203125 35.058594 C 52.785156 33.320312 55.078125 33.191406 55.078125 33.191406 C 55.367188 33.128906 57.246094 33.132812 57.246094 33.136719 C 59.402344 33.214844 60.507812 32.175781 60.507812 32.175781 C 62.09375 30.992188 62.925781 29.050781 62.925781 29.050781 C 62.902344 29.136719 61.960938 30.003906 61.960938 30.003906 C 59.683594 32.023438 57.140625 30.050781 57.140625 30.050781 C 56.433594 29.558594 54.964844 28.890625 54.964844 28.890625 C 54.472656 28.671875 54.003906 28.570312 53.578125 28.542969 Z M 13.179688 28.878906 C 11.597656 30.613281 9.304688 30.746094 9.304688 30.746094 C 9.015625 30.808594 7.132812 30.804688 7.132812 30.800781 C 4.980469 30.71875 3.871094 31.753906 3.871094 31.753906 C 2.292969 32.941406 1.453125 34.886719 1.453125 34.886719 C 1.480469 34.796875 2.425781 33.929688 2.425781 33.929688 C 4.699219 31.910156 7.242188 33.882812 7.242188 33.882812 C 7.949219 34.375 9.414062 35.046875 9.414062 35.046875 C 11.390625 35.925781 12.960938 34.90625 13.125 34.796875 C 12.976562 33.808594 12.910156 32.792969 12.921875 31.773438 C 12.929688 30.785156 13.015625 29.824219 13.167969 28.890625 Z M 13.15625 34.921875 C 12.191406 37.066406 10.042969 37.910156 10.042969 37.910156 C 9.789062 38.0625 8 38.636719 8 38.636719 C 5.929688 39.222656 5.210938 40.558594 5.210938 40.558594 C 4.070312 42.175781 3.867188 44.28125 3.867188 44.28125 C 3.863281 44.1875 4.496094 43.070312 4.496094 43.070312 C 6.027344 40.4375 9.066406 41.53125 9.066406 41.53125 C 9.890625 41.777344 11.503906 41.960938 11.503906 41.960938 C 13.65625 42.179688 14.824219 40.730469 14.96875 40.570312 C 14.527344 39.679688 14.148438 38.734375 13.84375 37.75 C 13.554688 36.808594 13.332031 35.871094 13.191406 34.933594 Z M 52.519531 35.101562 C 51.839844 35.042969 51.339844 35.175781 51.242188 35.203125 C 51.078125 36.1875 50.835938 37.167969 50.507812 38.148438 C 50.195312 39.082031 49.816406 39.972656 49.382812 40.820312 C 51.421875 39.65625 53.648438 40.25 53.648438 40.25 C 53.941406 40.28125 55.738281 40.871094 55.738281 40.871094 C 57.753906 41.613281 59.121094 40.964844 59.121094 40.964844 C 60.992188 40.335938 62.378906 38.746094 62.378906 38.746094 C 62.328125 38.820312 61.164062 39.351562 61.164062 39.351562 C 58.375 40.570312 56.574219 37.902344 56.574219 37.902344 C 56.054688 37.222656 54.855469 36.121094 54.855469 36.121094 C 54.050781 35.398438 53.195312 35.160156 52.519531 35.105469 Z M 15.003906 40.695312 C 14.742188 43.039062 12.960938 44.503906 12.960938 44.503906 C 12.761719 44.722656 11.238281 45.828125 11.238281 45.828125 C 9.457031 47.027344 9.167969 48.523438 9.167969 48.523438 C 8.578125 50.417969 9.035156 52.476562 9.035156 52.476562 C 9.003906 52.386719 9.261719 51.132812 9.261719 51.132812 C 9.910156 48.164062 13.136719 48.25 13.136719 48.25 C 13.996094 48.234375 15.574219 47.90625 15.574219 47.90625 C 17.6875 47.449219 18.363281 45.703125 18.421875 45.519531 C 17.730469 44.804688 17.082031 44.03125 16.492188 43.191406 C 15.925781 42.386719 15.425781 41.558594 14.996094 40.699219 Z M 49.238281 40.945312 C 48.777344 41.828125 48.234375 42.695312 47.625 43.515625 C 47.042969 44.308594 46.410156 45.035156 45.738281 45.699219 C 48.035156 45.222656 49.980469 46.480469 49.980469 46.480469 C 50.25 46.597656 51.769531 47.710938 51.769531 47.710938 C 53.457031 49.046875 54.949219 48.859375 54.949219 48.859375 C 56.921875 48.835938 58.742188 47.761719 58.742188 47.761719 C 58.667969 47.820312 57.402344 47.964844 57.402344 47.964844 C 54.386719 48.261719 53.464844 45.164062 53.464844 45.164062 C 53.179688 44.355469 52.382812 42.945312 52.382812 42.945312 C 51.292969 41.066406 49.429688 40.957031 49.222656 40.949219 Z M 18.488281 45.617188 C 18.964844 47.921875 17.710938 49.875 17.710938 49.875 C 17.59375 50.148438 16.488281 51.675781 16.480469 51.671875 C 15.15625 53.367188 15.339844 54.859375 15.339844 54.859375 C 15.367188 56.84375 16.433594 58.667969 16.433594 58.667969 C 16.375 58.597656 16.234375 57.320312 16.234375 57.320312 C 15.933594 54.296875 19.019531 53.371094 19.019531 53.371094 C 19.832031 53.089844 21.238281 52.285156 21.238281 52.285156 C 23.105469 51.195312 23.210938 49.320312 23.222656 49.113281 C 22.339844 48.652344 21.476562 48.109375 20.65625 47.5 C 19.871094 46.910156 19.144531 46.28125 18.488281 45.601562 Z M 45.753906 45.816406 C 45.042969 46.515625 44.265625 47.164062 43.4375 47.757812 C 42.636719 48.324219 41.8125 48.832031 40.957031 49.261719 C 43.292969 49.519531 44.75 51.3125 44.75 51.3125 C 44.96875 51.507812 46.066406 53.039062 46.066406 53.039062 C 47.261719 54.832031 48.75 55.117188 48.75 55.117188 C 50.636719 55.710938 52.6875 55.25 52.6875 55.25 C 52.605469 55.285156 51.351562 55.023438 51.351562 55.023438 C 48.398438 54.371094 48.480469 51.132812 48.480469 51.132812 C 48.464844 50.273438 48.136719 48.683594 48.136719 48.683594 C 47.683594 46.566406 45.941406 45.886719 45.757812 45.828125 Z M 23.410156 49.191406 C 24.570312 51.238281 23.976562 53.472656 23.976562 53.472656 C 23.953125 53.769531 23.363281 55.570312 23.359375 55.570312 C 22.621094 57.59375 23.265625 58.96875 23.265625 58.96875 C 23.894531 60.84375 25.476562 62.238281 25.476562 62.238281 C 25.402344 62.191406 24.875 61.019531 24.875 61.019531 C 23.660156 58.222656 26.3125 56.410156 26.3125 56.410156 C 26.996094 55.890625 28.085938 54.6875 28.085938 54.6875 C 29.53125 53.070312 29.054688 51.269531 29 51.066406 C 28.019531 50.898438 27.039062 50.652344 26.070312 50.324219 C 25.136719 50.011719 24.246094 49.632812 23.402344 49.195312 Z M 40.792969 49.320312 C 39.902344 49.765625 38.96875 50.144531 37.984375 50.449219 C 37.046875 50.746094 36.109375 50.964844 35.175781 51.101562 C 37.308594 52.074219 38.148438 54.234375 38.148438 54.234375 C 38.296875 54.484375 38.871094 56.285156 38.867188 56.285156 C 39.457031 58.367188 40.785156 59.085938 40.785156 59.085938 C 42.394531 60.230469 44.496094 60.4375 44.496094 60.4375 C 44.40625 60.441406 43.289062 59.804688 43.289062 59.804688 C 40.664062 58.265625 41.753906 55.214844 41.753906 55.214844 C 42.003906 54.390625 42.179688 52.765625 42.179688 52.765625 C 42.398438 50.605469 40.957031 49.433594 40.796875 49.289062 Z M 29.148438 51.085938 C 30.882812 52.671875 31.007812 54.972656 31.007812 54.972656 C 31.078125 55.265625 31.070312 57.152344 31.0625 57.152344 C 30.988281 59.316406 32.019531 60.425781 32.019531 60.425781 C 33.199219 62.019531 35.136719 62.855469 35.136719 62.855469 C 35.046875 62.832031 34.1875 61.882812 34.1875 61.882812 C 32.171875 59.597656 34.140625 57.042969 34.140625 57.042969 C 34.628906 56.335938 35.292969 54.863281 35.292969 54.863281 C 36.171875 52.882812 35.15625 51.304688 35.046875 51.140625 C 34.0625 51.285156 33.054688 51.355469 32.035156 51.34375 C 31.050781 51.335938 30.09375 51.25 29.160156 51.09375 Z M 29.148438 51.085938 "/></g></svg>
