<svg xmlns="http://www.w3.org/2000/svg" xmlns:xlink="http://www.w3.org/1999/xlink" width="64" height="64" viewBox="0 0 64 64" version="1.1"><defs><linearGradient id="linear0" x1="0%" x2="100%" y1="0%" y2="100%"><stop offset="0%" style="stop-color:#6a00ff; stop-opacity:1"/><stop offset="50%" style="stop-color:#e0dd02; stop-opacity:1"/><stop offset="100%" style="stop-color:#00b54e; stop-opacity:1"/></linearGradient></defs><g id="surface1"><path style=" stroke:none;fill-rule:nonzero;fill:url(#linear0);" d="M 54.003906 32.472656 L 32.207031 12.464844 L 10.390625 32.484375 L 10.390625 61.085938 C 10.390625 61.824219 10.964844 62.410156 11.679688 62.410156 L 25.316406 62.410156 L 25.316406 40.484375 C 25.316406 39.738281 25.726562 39.136719 26.4375 39.140625 L 38.117188 39.316406 C 38.832031 39.332031 39.410156 39.828125 39.398438 40.570312 L 39.082031 62.410156 L 52.722656 62.410156 C 53.433594 62.410156 54.003906 61.824219 54.003906 61.085938 Z M 54.003906 32.472656 "/><path style=" stroke:none;fill-rule:nonzero;fill:url(#linear0);" d="M 32.078125 1.519531 L 1.140625 29.902344 L 4.398438 33.714844 L 32.207031 8.203125 L 60.003906 33.714844 L 63.257812 29.902344 L 32.324219 1.519531 L 32.207031 1.664062 Z M 32.078125 1.519531 "/><path style=" stroke:none;fill-rule:nonzero;fill:url(#linear0);" d="M 54.503906 6.121094 L 46.667969 6.121094 L 46.734375 10.933594 L 54.503906 18.214844 Z M 54.503906 6.121094 "/></g></svg>
