<svg xmlns="http://www.w3.org/2000/svg" xmlns:xlink="http://www.w3.org/1999/xlink" width="64" height="64" viewBox="0 0 64 64" version="1.1"><defs><linearGradient id="linear0" x1="0%" x2="0%" y1="0%" y2="100%"><stop offset="0%" style="stop-color:#00b54e; stop-opacity:1"/><stop offset="50%" style="stop-color:#0073ff; stop-opacity:1"/><stop offset="100%" style="stop-color:#ffd000; stop-opacity:1"/></linearGradient></defs><g id="surface1"><path style=" stroke:none;fill-rule:evenodd;fill:url(#linear0);" d="M 1.175781 1.964844 L 1.175781 45.660156 C 1.175781 50.300781 2.824219 54.363281 6 57.644531 C 8.71875 60.429688 11.976562 62.246094 15.648438 62.652344 L 45.683594 62.652344 C 50.289062 62.652344 54.308594 60.871094 57.585938 57.414062 L 57.613281 57.414062 C 60.390625 54.453125 62.011719 50.898438 62.40625 46.902344 L 62.40625 42.039062 L 62.386719 23.027344 C 62.386719 19.246094 61.03125 15.894531 58.472656 13.210938 C 55.910156 10.523438 52.71875 9.140625 49.128906 9.140625 C 45.597656 9.140625 42.515625 10.5 40.027344 12.992188 C 37.539062 10.5 34.484375 9.140625 30.960938 9.140625 C 27.367188 9.140625 24.183594 10.523438 21.625 13.210938 C 19.058594 15.894531 17.714844 19.246094 17.714844 23.027344 L 17.714844 42.15625 L 26.0625 42.15625 L 26.0625 23.027344 C 26.0625 21.574219 26.527344 20.453125 27.523438 19.40625 C 28.527344 18.363281 29.585938 17.878906 30.960938 17.878906 C 32.363281 17.878906 33.410156 18.351562 34.417969 19.40625 C 35.410156 20.453125 35.867188 21.574219 35.867188 23.027344 L 35.867188 42.15625 L 44.21875 42.15625 L 44.21875 23.027344 C 44.21875 21.574219 44.679688 20.453125 45.683594 19.40625 C 46.679688 18.351562 47.71875 17.878906 49.128906 17.878906 C 50.503906 17.878906 51.574219 18.363281 52.570312 19.40625 C 53.570312 20.453125 54.011719 21.574219 54.011719 23.027344 L 54.0625 45.378906 C 54.0625 45.660156 54.042969 45.933594 54.011719 46.214844 C 54.011719 46.21875 54.023438 46.238281 54.011719 46.253906 C 54.007812 46.363281 53.988281 46.472656 53.972656 46.570312 C 53.941406 46.792969 53.890625 47.011719 53.835938 47.234375 C 52.878906 51.136719 48.953125 54.152344 44.085938 54.152344 L 26.039062 54.082031 L 26.039062 54.085938 L 17.121094 54.046875 C 12.789062 54.046875 9.085938 49.679688 9.085938 44.058594 L 9.085938 1.964844 L 1.175781 1.964844 "/></g></svg>
