<svg xmlns="http://www.w3.org/2000/svg" xmlns:xlink="http://www.w3.org/1999/xlink" width="64" height="64" viewBox="0 0 64 64" version="1.1"><defs><linearGradient id="linear0" x1="0%" x2="0%" y1="0%" y2="100%"><stop offset="0%" style="stop-color:#00b54e; stop-opacity:1"/><stop offset="50%" style="stop-color:#0073ff; stop-opacity:1"/><stop offset="100%" style="stop-color:#ffd000; stop-opacity:1"/></linearGradient></defs><g id="surface1"><path style=" stroke:none;fill-rule:nonzero;fill:url(#linear0);" d="M 32.191406 1.878906 C 21.984375 1.890625 12.441406 6.941406 6.707031 15.367188 C 8.023438 21.925781 10.195312 26.671875 12.332031 30.019531 C 12.804688 30.757812 13.261719 31.410156 13.710938 32.015625 C 14.0625 22.078125 22.230469 14.203125 32.191406 14.195312 C 33.191406 14.199219 34.191406 14.289062 35.179688 14.457031 C 37.066406 13.757812 40.058594 12.902344 44.230469 12.71875 C 45.121094 12.683594 46.054688 12.671875 47.042969 12.703125 C 49.882812 12.789062 53.144531 13.21875 56.761719 14.109375 C 50.941406 6.417969 41.847656 1.894531 32.191406 1.878906 Z M 46.921875 16.804688 C 46.039062 16.78125 45.203125 16.789062 44.414062 16.824219 C 43.539062 16.859375 42.742188 16.933594 41.992188 17.023438 C 47.398438 20.390625 50.691406 26.300781 50.699219 32.664062 C 50.699219 36.929688 49.214844 41.066406 46.496094 44.367188 C 46.15625 46.34375 45.402344 49.351562 43.480469 53.039062 C 41.882812 56.09375 39.492188 59.570312 36.011719 63.175781 C 51.441406 61.253906 63.027344 48.175781 63.039062 32.664062 C 63.03125 28.023438 61.96875 23.457031 59.933594 19.285156 C 54.851562 17.570312 50.496094 16.90625 46.921875 16.804688 Z M 3.792969 20.710938 C 2.183594 24.492188 1.351562 28.554688 1.339844 32.664062 C 1.34375 48.769531 13.796875 62.148438 29.894531 63.347656 C 34.941406 58.921875 37.984375 54.664062 39.828125 51.140625 C 40.226562 50.371094 40.5625 49.648438 40.859375 48.964844 C 38.191406 50.378906 35.214844 51.121094 32.191406 51.125 C 24.484375 51.121094 17.585938 46.355469 14.875 39.15625 C 13.324219 37.875 11.089844 35.722656 8.863281 32.226562 C 7.007812 29.316406 5.1875 25.519531 3.792969 20.710938 Z M 19.847656 26.503906 L 19.847656 35.738281 C 19.847656 36.976562 20.261719 38.019531 20.890625 38.769531 C 21.519531 39.515625 22.3125 39.984375 23.070312 40.285156 C 24.574219 40.882812 26.019531 40.867188 26.019531 40.867188 C 26.019531 40.867188 27.46875 40.882812 28.972656 40.285156 C 29.726562 39.984375 30.527344 39.515625 31.148438 38.769531 C 31.777344 38.019531 32.191406 36.976562 32.191406 35.738281 L 32.191406 26.503906 L 28.078125 26.503906 L 28.078125 35.738281 C 28.078125 37.535156 27.5 38.136719 26.992188 38.476562 C 26.488281 38.816406 26.019531 38.816406 26.019531 38.816406 C 26.019531 38.816406 25.558594 38.8125 25.050781 38.476562 C 24.539062 38.136719 23.964844 37.535156 23.964844 35.738281 L 23.964844 26.503906 Z M 36.304688 26.503906 L 36.304688 40.867188 L 45.558594 40.867188 L 45.558594 38.816406 L 40.417969 38.816406 L 40.417969 34.714844 L 44.53125 34.714844 L 44.53125 32.664062 L 40.417969 32.664062 L 40.417969 28.554688 L 45.558594 28.554688 L 45.558594 26.503906 Z M 36.304688 26.503906 "/></g></svg>
