<svg xmlns="http://www.w3.org/2000/svg" xmlns:xlink="http://www.w3.org/1999/xlink" width="64" height="64" viewBox="0 0 64 64" version="1.1"><defs><linearGradient id="linear0" x1="100%" x2="0%" y1="100%" y2="0%"><stop offset="0%" style="stop-color:#00b54e; stop-opacity:1"/><stop offset="100%" style="stop-color:#ff0000; stop-opacity:1"/></linearGradient></defs><g id="surface1"><path style=" stroke:none;fill-rule:nonzero;fill:url(#linear0);" d="M 63.261719 8.417969 C 60.601562 12.402344 54.664062 9.699219 53.707031 13.179688 C 51.871094 14.332031 51.820312 16.035156 53.796875 18.433594 C 56.601562 21.839844 55.488281 24.527344 46.605469 24.527344 C 41.050781 24.527344 37.042969 19.15625 27.726562 19.15625 C 22.085938 19.15625 17.460938 27.617188 14.804688 35.03125 C 13.964844 33.988281 13.019531 32.824219 12.574219 32.207031 C 11.914062 31.382812 11.8125 31.121094 11.773438 30.527344 C 11.742188 30.039062 11.621094 29.875 11.492188 29.898438 C 11.363281 29.925781 11.230469 30.140625 11.179688 30.425781 C 11.074219 30.988281 11.179688 31.691406 11.453125 32.285156 C 12.160156 33.808594 13.167969 35.175781 14.304688 36.527344 C 13.757812 38.195312 13.273438 39.804688 12.957031 41.175781 C 12.835938 42.109375 12.636719 43.046875 12.621094 43.980469 C 12.566406 44.050781 12.496094 44.074219 12.445312 44.160156 L 10.828125 46.203125 C 10.144531 47.199219 9.554688 47.667969 8.492188 47.234375 C 6.652344 46.320312 4.871094 45.628906 3.101562 45.449219 C 2.464844 45.386719 1.832031 45.585938 1.398438 45.984375 C 0.957031 46.390625 0.878906 47.023438 1.753906 46.699219 C 2.261719 46.394531 2.546875 46.46875 3.554688 46.910156 C 4.539062 47.277344 6.664062 48.132812 8.1875 48.910156 C 9.613281 49.640625 10.835938 49.535156 11.90625 48.34375 L 13.34375 46.457031 C 13.589844 46.816406 13.890625 47.179688 14.308594 47.539062 C 15.339844 48.382812 16.597656 48.644531 18.316406 49.171875 C 18.191406 49.414062 18.078125 49.695312 18.003906 50.027344 C 16.457031 50.09375 15.363281 50.75 14.660156 52.609375 C 14.550781 53.027344 14.398438 54.070312 15.75 54.070312 L 18.441406 54.070312 C 19.207031 54.070312 19.648438 53.574219 19.996094 52.382812 C 20.617188 50.507812 20.234375 51.417969 20.824219 50.085938 C 21.042969 50.179688 21.21875 50.226562 21.457031 50.332031 C 22.164062 50.652344 25.132812 50.46875 26.617188 49.207031 L 26.617188 50.570312 C 25.285156 51.386719 24.652344 52.300781 24.945312 53.570312 C 24.988281 53.71875 25.101562 54.070312 25.507812 54.070312 L 28.398438 54.070312 C 29.515625 54.070312 29.949219 53.886719 29.949219 53.257812 L 29.949219 48.695312 C 29.949219 47.113281 29.949219 45.355469 31.351562 44.304688 C 32.9375 43.316406 36.015625 41.765625 39.550781 41.039062 C 40.121094 43.335938 39.050781 45.378906 38.238281 47.753906 C 36.695312 47.800781 35.566406 48.546875 35.007812 50.226562 C 34.875 50.671875 34.625 51.382812 35.8125 51.382812 L 38.507812 51.382812 C 39.1875 51.382812 39.710938 50.90625 40.058594 49.960938 C 41.476562 46.328125 44.496094 43.9375 46.371094 41.101562 C 49.5 42.097656 51.78125 44.796875 55.4375 49.710938 C 56.148438 50.699219 55.6875 51.199219 55.28125 51.921875 C 54.761719 52.847656 54.699219 54.054688 56.402344 54.070312 L 59.210938 54.085938 C 59.882812 54.09375 60.46875 53.703125 60.113281 52.925781 C 57.441406 47.082031 55.664062 42.125 53.707031 35.359375 C 52.449219 31.015625 54.40625 29.160156 56.679688 24.632812 C 57.734375 21.746094 56.777344 19.941406 56.320312 19.296875 C 55.238281 17.644531 53.320312 15.671875 55.058594 15.097656 C 58.648438 14.9375 58.988281 12.816406 61.371094 12.296875 C 61.832031 12.222656 62.796875 9.699219 63.261719 8.417969 Z M 63.261719 8.417969 "/></g></svg>
