<svg xmlns="http://www.w3.org/2000/svg" xmlns:xlink="http://www.w3.org/1999/xlink" width="64" height="64" viewBox="0 0 64 64" version="1.1"><defs><linearGradient id="linear0" x1="0%" x2="0%" y1="0%" y2="100%"><stop offset="0%" style="stop-color:#00b54e; stop-opacity:1"/><stop offset="50%" style="stop-color:#ffd000; stop-opacity:1"/><stop offset="100%" style="stop-color:#ff00bb; stop-opacity:1"/></linearGradient></defs><g id="surface1"><path style=" stroke:none;fill-rule:nonzero;fill:url(#linear0);" d="M 25.582031 2.027344 L 1.117188 57.300781 C 2.085938 60.089844 5.023438 62.722656 7.125 62.722656 C 9.4375 62.722656 10.414062 61.183594 10.703125 60.554688 L 25.582031 28.039062 L 39.441406 60.554688 C 39.71875 61.203125 40.730469 62.722656 43.042969 62.722656 C 45.140625 62.722656 47.945312 59.851562 49.023438 57.300781 L 40.042969 36.710938 L 41.816406 32.375 L 53.8125 60.554688 C 54.085938 61.203125 55.074219 62.722656 57.386719 62.722656 C 59.484375 62.722656 62.425781 59.730469 63.394531 57.300781 L 41.816406 7.230469 L 34.480469 23.707031 Z M 21.132812 42.347656 L 14.460938 57.300781 C 15.507812 60.070312 18.183594 62.722656 21.132812 62.722656 Z M 21.132812 42.347656 "/></g></svg>
