<svg xmlns="http://www.w3.org/2000/svg" xmlns:xlink="http://www.w3.org/1999/xlink" width="64" height="64" viewBox="0 0 64 64" version="1.1"><defs><linearGradient id="linear0" x1="0%" x2="100%" y1="0%" y2="100%"><stop offset="0%" style="stop-color:#e5ff00; stop-opacity:1"/><stop offset="50%" style="stop-color:#0073ff; stop-opacity:1"/><stop offset="100%" style="stop-color:#ff0000; stop-opacity:1"/></linearGradient></defs><g id="surface1"><path style=" stroke:none;fill-rule:nonzero;fill:url(#linear0);" d="M 44.0625 25.414062 L 42.164062 31.980469 L 36.464844 31.980469 L 40.640625 35.921875 L 38.363281 42.925781 L 44.0625 38.550781 L 49.765625 42.925781 L 47.484375 35.921875 L 51.664062 31.980469 L 45.964844 31.980469 Z M 2.257812 31.980469 L 2.257812 40.738281 L 9.859375 40.738281 L 9.859375 31.980469 Z M 13.660156 31.980469 L 13.660156 40.738281 L 21.261719 40.738281 L 21.261719 31.980469 Z M 25.0625 31.980469 L 25.0625 40.738281 L 32.664062 40.738281 L 32.664062 31.980469 Z M 55.464844 31.980469 L 55.464844 40.738281 L 63.066406 40.738281 L 63.066406 31.980469 Z M 55.464844 31.980469 "/></g></svg>
