<svg xmlns="http://www.w3.org/2000/svg" xmlns:xlink="http://www.w3.org/1999/xlink" width="64" height="64" viewBox="0 0 64 64" version="1.1"><defs><linearGradient id="linear0" x1="0%" x2="0%" y1="0%" y2="100%"><stop offset="0%" style="stop-color:#00b54e; stop-opacity:1"/><stop offset="50%" style="stop-color:#0073ff; stop-opacity:1"/><stop offset="100%" style="stop-color:#ffd000; stop-opacity:1"/></linearGradient></defs><g id="surface1"><path style=" stroke:none;fill-rule:nonzero;fill:url(#linear0);" d="M 51.628906 27.570312 C 51.691406 29.234375 51.128906 30.039062 50.628906 31.472656 L 49.71875 31.914062 C 48.976562 33.328125 49.792969 32.8125 49.261719 33.933594 C 48.097656 34.949219 45.734375 37.097656 44.984375 37.296875 C 44.4375 37.289062 45.359375 36.65625 45.476562 36.40625 C 43.925781 37.457031 44.234375 37.976562 41.855469 38.613281 L 41.789062 38.464844 C 35.929688 41.160156 27.792969 35.816406 27.894531 28.515625 C 27.839844 28.980469 27.722656 28.863281 27.589844 29.050781 C 27.292969 25.296875 29.367188 21.527344 32.859375 19.980469 C 36.28125 18.324219 40.289062 19.007812 42.734375 21.246094 C 41.394531 19.519531 38.710938 17.6875 35.539062 17.859375 C 32.429688 17.902344 29.519531 19.839844 28.550781 21.941406 C 26.960938 22.925781 26.777344 25.722656 26.082031 26.242188 C 25.148438 32.964844 27.839844 35.863281 32.386719 39.277344 C 33.101562 39.75 32.585938 39.824219 32.683594 40.183594 C 31.175781 39.492188 29.785156 38.441406 28.648438 37.160156 C 29.253906 38.027344 29.902344 38.871094 30.75 39.535156 C 29.324219 39.0625 27.417969 36.148438 26.859375 36.03125 C 29.316406 40.335938 36.832031 43.59375 40.765625 41.976562 C 38.945312 42.042969 36.632812 42.015625 34.589844 41.273438 C 33.730469 40.84375 32.558594 39.941406 32.769531 39.777344 C 38.136719 41.742188 43.6875 41.261719 48.328125 37.613281 C 49.507812 36.714844 50.796875 35.183594 51.175781 35.160156 C 50.613281 35.988281 51.273438 35.5625 50.839844 36.289062 C 52.015625 34.433594 50.328125 35.535156 52.058594 33.082031 L 52.691406 33.9375 C 52.453125 32.398438 54.65625 30.519531 54.425781 28.078125 C 54.933594 27.332031 54.992188 28.882812 54.457031 30.59375 C 55.203125 28.695312 54.65625 28.386719 54.84375 26.816406 C 55.046875 27.34375 55.320312 27.902344 55.457031 28.46875 C 54.972656 26.621094 55.949219 25.363281 56.195312 24.296875 C 55.960938 24.183594 55.449219 25.105469 55.332031 22.929688 C 55.359375 21.988281 55.605469 22.441406 55.695312 22.203125 C 55.507812 22.097656 55.015625 21.375 54.714844 19.980469 C 54.929688 19.65625 55.300781 20.832031 55.59375 20.875 C 55.402344 19.773438 55.070312 18.929688 55.058594 18.082031 C 54.183594 16.304688 54.753906 18.324219 54.042969 17.316406 C 53.117188 14.484375 54.8125 16.660156 54.929688 15.375 C 56.335938 17.371094 57.136719 20.460938 57.5 21.734375 C 57.222656 20.179688 56.769531 18.667969 56.210938 17.203125 C 56.640625 17.382812 55.527344 13.996094 56.769531 16.234375 C 55.445312 11.457031 51.09375 6.984375 47.085938 4.894531 C 47.574219 5.324219 48.195312 5.878906 47.972656 5.964844 C 45.976562 4.804688 46.332031 4.710938 46.042969 4.222656 C 44.421875 3.582031 44.3125 4.273438 43.246094 4.222656 C 40.179688 2.632812 39.597656 2.804688 36.777344 1.8125 L 36.90625 2.398438 C 34.878906 1.734375 34.550781 2.644531 32.359375 2.398438 C 32.222656 2.296875 33.058594 2.03125 33.746094 1.933594 C 31.785156 2.1875 31.878906 1.558594 29.960938 2.003906 C 30.433594 1.675781 30.933594 1.460938 31.433594 1.1875 C 29.839844 1.28125 27.621094 2.101562 28.308594 1.351562 C 25.707031 2.496094 21.074219 4.085938 18.480469 6.472656 L 18.394531 5.9375 C 17.203125 7.34375 13.207031 10.117188 12.890625 11.929688 L 12.574219 12.003906 C 11.957031 13.03125 11.546875 14.191406 11.058594 15.246094 C 10.253906 16.597656 9.878906 15.765625 9.984375 15.976562 C 8.398438 19.140625 7.601562 21.800781 6.921875 23.976562 C 7.410156 24.691406 6.925781 28.269531 7.113281 31.132812 C 6.320312 45.28125 17.257812 59.011719 29.207031 62.183594 C 30.960938 62.800781 33.5625 62.773438 35.785156 62.839844 C 33.167969 62.105469 32.828125 62.453125 30.285156 61.585938 C 28.445312 60.734375 28.039062 59.765625 26.742188 58.664062 L 27.253906 59.550781 C 24.707031 58.667969 25.777344 58.457031 23.699219 57.8125 L 24.246094 57.113281 C 23.417969 57.046875 22.054688 55.746094 21.679688 55.019531 L 20.773438 55.058594 C 19.683594 53.742188 19.105469 52.796875 19.152344 52.058594 L 18.859375 52.570312 C 18.523438 52.015625 14.859375 47.644531 16.757812 48.664062 C 16.410156 48.351562 15.9375 48.152344 15.421875 47.238281 L 15.816406 46.804688 C 14.898438 45.648438 14.128906 44.167969 14.1875 43.679688 C 14.675781 44.324219 15.015625 44.445312 15.351562 44.5625 C 13.035156 38.933594 12.90625 44.25 11.152344 38.828125 L 11.527344 38.808594 C 11.242188 38.382812 11.070312 37.929688 10.839844 37.484375 L 11 35.910156 C 9.335938 34.023438 10.535156 27.894531 10.773438 24.523438 C 10.945312 23.160156 12.167969 21.703125 13.097656 19.414062 L 12.535156 19.320312 C 13.613281 17.472656 18.722656 11.890625 21.085938 12.171875 C 22.234375 10.765625 20.859375 12.171875 20.632812 11.8125 C 23.152344 9.261719 23.941406 10.011719 25.636719 9.554688 C 27.46875 8.488281 24.070312 9.96875 24.933594 9.148438 C 28.101562 8.355469 27.183594 7.347656 31.308594 6.945312 C 31.738281 7.1875 30.292969 7.320312 29.9375 7.632812 C 32.574219 6.375 38.28125 6.660156 41.996094 8.339844 C 46.292969 10.308594 51.125 16.121094 51.316406 21.605469 L 51.53125 21.660156 C 51.425781 23.835938 51.875 26.355469 51.09375 28.664062 L 51.628906 27.574219 "/></g></svg>
