<svg xmlns="http://www.w3.org/2000/svg" xmlns:xlink="http://www.w3.org/1999/xlink" width="64" height="64" viewBox="0 0 64 64" version="1.1"><defs><linearGradient id="linear0" x1="0%" x2="100%" y1="0%" y2="100%"><stop offset="0%" style="stop-color:#6a00ff; stop-opacity:1"/><stop offset="50%" style="stop-color:#e0dd02; stop-opacity:1"/><stop offset="100%" style="stop-color:#00b54e; stop-opacity:1"/></linearGradient></defs><g id="surface1"><path style=" stroke:none;fill-rule:nonzero;fill:url(#linear0);" d="M 31.734375 1.707031 C 21.449219 1.714844 11.867188 7 6.277344 15.75 C 8.433594 14.949219 11.730469 14.015625 13.515625 14.015625 C 18.816406 14.015625 16.898438 22.21875 14.527344 29.195312 C 19.589844 20.167969 27.683594 14.015625 31.734375 14.015625 C 37.8125 14.015625 37.8125 18.113281 35.179688 28.988281 C 38.957031 22.21875 47.039062 14.015625 51.984375 14.015625 C 64.132812 14.015625 49.929688 43.664062 52.992188 44.78125 C 54.722656 45.40625 57.738281 41.144531 61.304688 39.375 C 61.832031 37.113281 62.105469 34.796875 62.105469 32.472656 C 62.117188 15.480469 48.511719 1.707031 31.734375 1.707031 Z M 5.699219 16.707031 C 2.875 21.46875 1.375 26.917969 1.363281 32.476562 C 1.359375 35.292969 1.75 38.09375 2.507812 40.804688 C 4.730469 31.796875 7.847656 21.714844 5.699219 16.710938 Z M 26.027344 23.066406 C 22.613281 23.054688 14.675781 35.433594 8.152344 51.839844 C 13.914062 59.046875 22.578125 63.238281 31.730469 63.238281 C 43.269531 63.234375 53.804688 56.589844 58.917969 46.113281 C 55.535156 49.804688 51.59375 52.980469 47.929688 52.980469 C 35.78125 52.980469 49.957031 24.269531 46.917969 23.242188 C 43.539062 22.105469 32.355469 38.625 30.71875 50.933594 C 29.707031 52.195312 28.371094 52.980469 25.65625 52.980469 C 22.945312 52.980469 21.609375 51.683594 20.597656 50.421875 C 22.910156 40.675781 28.320312 24.292969 26.667969 23.242188 C 26.480469 23.121094 26.261719 23.066406 26.027344 23.0625 Z M 26.027344 23.066406 "/></g></svg>
