<svg xmlns="http://www.w3.org/2000/svg" xmlns:xlink="http://www.w3.org/1999/xlink" width="64" height="64" viewBox="0 0 64 64" version="1.1"><defs><linearGradient id="linear0" x1="0%" x2="0%" y1="0%" y2="100%"><stop offset="0%" style="stop-color:#ff0000; stop-opacity:1"/><stop offset="50%" style="stop-color:#ffd000; stop-opacity:1"/><stop offset="100%" style="stop-color:#0073ff; stop-opacity:1"/></linearGradient></defs><g id="surface1"><path style=" stroke:none;fill-rule:nonzero;fill:url(#linear0);" d="M 31.835938 1.691406 C 14.988281 1.691406 1.332031 15.292969 1.332031 32.066406 C 1.332031 48.847656 14.988281 62.449219 31.835938 62.449219 C 48.6875 62.449219 62.34375 48.847656 62.34375 32.066406 C 62.34375 15.292969 48.6875 1.691406 31.835938 1.691406 Z M 31.835938 3.71875 C 47.5625 3.71875 60.308594 16.410156 60.308594 32.066406 C 60.308594 47.730469 47.5625 60.421875 31.835938 60.421875 C 16.113281 60.421875 3.363281 47.730469 3.363281 32.066406 C 3.363281 16.410156 16.113281 3.71875 31.835938 3.71875 Z M 31.835938 5.738281 C 17.234375 5.738281 5.398438 17.527344 5.398438 32.066406 C 5.398438 46.605469 17.234375 58.394531 31.835938 58.394531 C 46.4375 58.394531 58.277344 46.605469 58.277344 32.066406 C 58.277344 17.527344 46.4375 5.738281 31.835938 5.738281 Z M 17.601562 23.964844 L 21.667969 23.964844 L 27.769531 40.167969 L 23.703125 40.167969 L 22.34375 36.121094 L 16.917969 36.121094 L 15.566406 40.167969 L 11.5 40.167969 Z M 29.804688 23.964844 L 33.871094 23.964844 L 33.871094 40.167969 L 29.804688 40.167969 Z M 35.90625 23.964844 L 39.972656 23.964844 L 43.023438 28.828125 L 46.074219 23.964844 L 50.140625 23.964844 L 45.058594 32.066406 L 50.140625 40.167969 L 46.074219 40.167969 L 43.023438 35.308594 L 39.972656 40.167969 L 35.90625 40.167969 L 40.988281 32.066406 Z M 19.632812 28.019531 L 17.601562 34.09375 L 21.667969 34.09375 Z M 19.632812 28.019531 "/></g></svg>
