<svg xmlns="http://www.w3.org/2000/svg" xmlns:xlink="http://www.w3.org/1999/xlink" width="64" height="64" viewBox="0 0 64 64" version="1.1"><defs><linearGradient id="linear0" x1="0%" x2="0%" y1="0%" y2="100%"><stop offset="0%" style="stop-color:#ffd000; stop-opacity:1"/><stop offset="50%" style="stop-color:#24dbdb; stop-opacity:1"/><stop offset="100%" style="stop-color:#0073ff; stop-opacity:1"/></linearGradient></defs><g id="surface1"><path style=" stroke:none;fill-rule:nonzero;fill:url(#linear0);" d="M 4.300781 61.664062 L 7.964844 61.664062 C 8.664062 60.683594 9.539062 60.199219 10.578125 60.199219 C 11.277344 60.199219 12.851562 60.441406 15.289062 60.929688 C 22.972656 62.152344 29.085938 62.769531 33.617188 62.769531 C 51.417969 62.28125 61.027344 56.644531 62.414062 45.875 C 62.414062 41.464844 59.800781 37.300781 54.554688 33.382812 C 50.371094 30.445312 43.394531 27.261719 33.617188 23.832031 C 22.800781 19.664062 17.394531 15.996094 17.394531 12.8125 C 18.089844 8.648438 22.453125 6.445312 30.476562 6.199219 C 41.292969 6.445312 48.632812 10.609375 52.472656 18.683594 L 57.703125 18.683594 L 55.082031 3.640625 L 52.472656 3.640625 C 51.769531 3.878906 51.597656 3.996094 51.9375 3.996094 C 51.1875 4.410156 50.28125 4.671875 49.332031 4.738281 C 48.976562 4.738281 47.757812 4.488281 45.652344 4 C 39.382812 2.777344 33.789062 2.160156 28.902344 2.160156 C 11.804688 2.898438 2.734375 8.039062 1.679688 17.59375 C 3.773438 26.65625 11.628906 32.773438 25.253906 35.957031 C 36.761719 39.144531 43.21875 43.675781 44.613281 49.554688 C 43.914062 55.421875 38.847656 58.484375 29.4375 58.742188 C 18.261719 58.742188 10.578125 54.085938 6.398438 44.777344 L 1.160156 44.777344 L 4.300781 61.671875 "/></g></svg>
