<svg xmlns="http://www.w3.org/2000/svg" xmlns:xlink="http://www.w3.org/1999/xlink" width="64" height="64" viewBox="0 0 64 64" version="1.1"><defs><linearGradient id="linear0" x1="0%" x2="0%" y1="0%" y2="100%"><stop offset="0%" style="stop-color:#00b54e; stop-opacity:1"/><stop offset="50%" style="stop-color:#0073ff; stop-opacity:1"/><stop offset="100%" style="stop-color:#ffd000; stop-opacity:1"/></linearGradient></defs><g id="surface1"><path style=" stroke:none;fill-rule:nonzero;fill:url(#linear0);" d="M 55.933594 35.003906 C 55.933594 50.4375 43.679688 62.945312 28.574219 62.945312 C 13.46875 62.945312 1.21875 50.4375 1.21875 35.003906 C 1.21875 31.148438 1.765625 27.371094 3.367188 24.132812 C 9.496094 11.722656 30.859375 10.75 35.421875 2.410156 C 35.421875 10.5625 29.464844 14.738281 24.933594 17.28125 C 21.519531 19.199219 17.195312 23.355469 18.78125 25.695312 C 19.765625 27.148438 24.429688 22.230469 28.832031 20.402344 C 40.230469 15.683594 46.019531 9.398438 47.960938 2.410156 C 49.242188 3.75 50.238281 8.183594 50.238281 12.890625 C 50.238281 19.289062 48.855469 28.03125 43.542969 34.683594 C 37.699219 41.992188 28.578125 43.054688 28.578125 45.949219 C 28.578125 49.875 42.84375 44.316406 47.863281 36.570312 C 54.023438 27.042969 56.246094 24.453125 62.773438 24.761719 C 59.5 27.539062 55.9375 31.109375 55.9375 35 Z M 55.933594 35.003906 "/></g></svg>
