<svg xmlns="http://www.w3.org/2000/svg" xmlns:xlink="http://www.w3.org/1999/xlink" width="64" height="64" viewBox="0 0 64 64" version="1.1"><defs><linearGradient id="linear0" x1="0%" x2="0%" y1="0%" y2="100%"><stop offset="0%" style="stop-color:#ff0000; stop-opacity:1"/><stop offset="50%" style="stop-color:#ffd000; stop-opacity:1"/><stop offset="100%" style="stop-color:#0073ff; stop-opacity:1"/></linearGradient></defs><g id="surface1"><path style=" stroke:none;fill-rule:evenodd;fill:url(#linear0);" d="M 9.085938 1.378906 L 54.894531 1.378906 C 59.195312 1.378906 62.671875 5.648438 62.671875 10.929688 L 62.671875 52.90625 C 62.671875 58.183594 59.195312 62.453125 54.894531 62.453125 L 9.085938 62.453125 C 4.785156 62.453125 1.308594 58.183594 1.308594 52.90625 L 1.308594 10.929688 C 1.308594 5.648438 4.785156 1.378906 9.085938 1.378906 Z M 9.085938 8.546875 C 8.003906 8.546875 7.140625 9.605469 7.140625 10.929688 L 7.140625 52.90625 C 7.140625 54.230469 8.003906 55.292969 9.085938 55.292969 L 17.777344 55.292969 C 18.308594 55.292969 18.75 54.769531 18.75 54.101562 L 18.75 52.851562 C 18.75 52.199219 18.308594 51.652344 17.777344 51.652344 L 14.40625 51.652344 C 13.082031 51.652344 12.003906 50.332031 12.003906 48.707031 C 12.003906 47.085938 13.082031 45.757812 14.40625 45.757812 L 48.617188 45.757812 C 49.941406 45.757812 51.019531 47.085938 51.019531 48.707031 C 51.019531 50.332031 49.941406 51.652344 48.617188 51.652344 L 46.691406 51.652344 C 46.160156 51.652344 45.71875 52.199219 45.71875 52.851562 L 45.71875 54.101562 C 45.71875 54.769531 46.160156 55.292969 46.691406 55.292969 L 54.894531 55.292969 C 55.972656 55.292969 56.839844 54.230469 56.839844 52.90625 L 56.839844 10.929688 C 56.839844 9.605469 55.972656 8.546875 54.894531 8.546875 Z M 39.945312 52.851562 C 39.945312 52.199219 39.503906 51.652344 38.972656 51.652344 L 36.101562 51.652344 C 35.550781 51.652344 35.125 52.199219 35.125 52.851562 L 35.125 54.101562 C 35.125 54.769531 35.550781 55.292969 36.101562 55.292969 L 38.972656 55.292969 C 39.503906 55.292969 39.945312 54.769531 39.945312 54.101562 Z M 29.335938 52.851562 C 29.335938 52.199219 28.898438 51.652344 28.367188 51.652344 L 25.496094 51.652344 C 24.964844 51.652344 24.523438 52.199219 24.523438 52.851562 L 24.523438 54.101562 C 24.523438 54.769531 24.964844 55.292969 25.496094 55.292969 L 28.367188 55.292969 C 28.898438 55.292969 29.335938 54.769531 29.335938 54.101562 Z M 29.335938 52.851562 "/></g></svg>
