<svg xmlns="http://www.w3.org/2000/svg" xmlns:xlink="http://www.w3.org/1999/xlink" width="64" height="64" viewBox="0 0 64 64" version="1.1"><defs><linearGradient id="linear0" x1="0%" x2="100%" y1="0%" y2="100%"><stop offset="0%" style="stop-color:#ae00ff; stop-opacity:1"/><stop offset="100%" style="stop-color:#0084ff; stop-opacity:1"/></linearGradient></defs><g id="surface1"><path style=" stroke:none;fill-rule:nonzero;fill:url(#linear0);" d="M 62.902344 32.4375 C 62.902344 49.429688 49.070312 63.199219 31.984375 63.199219 C 14.90625 63.199219 1.070312 49.429688 1.070312 32.4375 C 1.070312 15.4375 14.90625 1.671875 31.984375 1.671875 L 62.902344 1.671875 Z M 62.902344 32.4375 "/><path style=" stroke:none;fill-rule:nonzero;fill:url(#linear0);fill-opacity:1;" d="M 44.519531 8.371094 L 44.519531 22.871094 C 41.105469 19.289062 36.136719 17.003906 30.585938 17.003906 C 20.320312 17.003906 12.007812 24.722656 12.007812 34.261719 C 12.007812 43.792969 20.320312 51.519531 30.585938 51.519531 C 40.847656 51.519531 49.167969 43.792969 49.167969 34.261719 L 49.167969 8.371094 Z M 44.519531 8.371094 "/></g></svg>
