<svg xmlns="http://www.w3.org/2000/svg" xmlns:xlink="http://www.w3.org/1999/xlink" width="64" height="64" viewBox="0 0 64 64" version="1.1"><defs><linearGradient id="linear0" x1="0%" x2="100%" y1="0%" y2="100%"><stop offset="0%" style="stop-color:#e5ff00; stop-opacity:1"/><stop offset="50%" style="stop-color:#0073ff; stop-opacity:1"/><stop offset="100%" style="stop-color:#ff0000; stop-opacity:1"/></linearGradient></defs><g id="surface1"><path style=" stroke:none;fill-rule:nonzero;fill:url(#linear0);" d="M 54.871094 2.136719 C 51.695312 2.140625 48.867188 4.140625 47.808594 7.132812 L 2.351562 7.132812 L 2.351562 12.125 C 11.632812 16.917969 18.179688 24.511719 19.144531 28.625 C 20.453125 34.214844 18.4375 40.765625 13.214844 47.894531 C 12.171875 47.371094 11.019531 47.09375 9.851562 47.09375 C 5.710938 47.09375 2.351562 50.449219 2.351562 54.585938 C 2.351562 58.722656 5.710938 62.078125 9.851562 62.078125 C 13.027344 62.074219 15.855469 60.074219 16.917969 57.082031 L 37.363281 57.082031 L 37.363281 62.078125 L 52.371094 62.078125 L 52.371094 47.09375 L 37.363281 47.09375 L 37.363281 52.089844 L 16.917969 52.089844 C 16.859375 51.925781 16.800781 51.765625 16.730469 51.609375 C 23.253906 43.21875 26.226562 35.375 24.488281 27.816406 C 23.019531 21.429688 18.5625 16.445312 12.199219 12.125 L 47.808594 12.125 C 48.867188 15.117188 51.695312 17.117188 54.871094 17.121094 C 59.015625 17.121094 62.375 13.765625 62.375 9.628906 C 62.375 5.492188 59.015625 2.136719 54.871094 2.136719 Z M 54.871094 7.132812 C 56.253906 7.132812 57.371094 8.25 57.371094 9.628906 C 57.371094 11.007812 56.253906 12.125 54.871094 12.125 C 53.488281 12.125 52.371094 11.007812 52.371094 9.628906 C 52.371094 8.25 53.488281 7.132812 54.871094 7.132812 Z M 9.851562 52.089844 C 11.109375 52.09375 12.164062 53.023438 12.324219 54.265625 C 12.335938 54.3125 12.339844 54.363281 12.34375 54.410156 C 12.347656 54.445312 12.347656 54.472656 12.355469 54.507812 C 12.355469 54.53125 12.355469 54.5625 12.355469 54.585938 C 12.355469 55.964844 11.234375 57.082031 9.851562 57.082031 C 8.636719 57.082031 7.601562 56.210938 7.390625 55.015625 C 7.390625 55.011719 7.390625 55.011719 7.390625 55.003906 C 7.367188 54.867188 7.351562 54.726562 7.351562 54.585938 C 7.351562 54.503906 7.351562 54.414062 7.363281 54.332031 C 7.492188 53.054688 8.566406 52.089844 9.851562 52.089844 Z M 42.367188 52.089844 L 47.367188 52.089844 L 47.367188 57.082031 L 42.367188 57.082031 Z M 42.367188 52.089844 "/></g></svg>
