<svg xmlns="http://www.w3.org/2000/svg" xmlns:xlink="http://www.w3.org/1999/xlink" width="64" height="64" viewBox="0 0 64 64" version="1.1"><defs><linearGradient id="linear0" x1="0%" x2="0%" y1="0%" y2="100%"><stop offset="0%" style="stop-color:#00b6c7; stop-opacity:1"/><stop offset="50%" style="stop-color:#ff0000; stop-opacity:1"/><stop offset="100%" style="stop-color:#6a00ff; stop-opacity:1"/></linearGradient></defs><g id="surface1"><path style=" stroke:none;fill-rule:nonzero;fill:url(#linear0);" d="M 30.570312 1.777344 C 29.234375 1.777344 28.160156 2.816406 28.160156 4.105469 L 28.160156 6.546875 C 15.847656 7.5 6.464844 15.484375 6.445312 25.027344 C 6.464844 34.5625 15.847656 42.550781 28.160156 43.503906 L 28.160156 45.945312 C 28.160156 47.230469 29.234375 48.269531 30.570312 48.269531 C 31.910156 48.269531 32.984375 47.230469 32.984375 45.945312 L 32.984375 38.972656 C 32.984375 37.679688 31.910156 36.648438 30.570312 36.648438 C 21.246094 36.648438 13.683594 31.441406 13.683594 25.027344 C 13.683594 18.605469 21.246094 13.402344 30.570312 13.402344 C 31.910156 13.402344 32.984375 12.367188 32.984375 11.078125 L 32.984375 4.105469 C 32.984375 2.816406 31.910156 1.777344 30.570312 1.777344 Z M 30.570312 1.777344 "/><path style=" stroke:none;fill-rule:nonzero;fill:url(#linear0);" d="M 33.042969 20.535156 C 34.371094 20.535156 35.441406 21.480469 35.441406 22.652344 L 35.441406 24.871094 C 47.679688 25.742188 57.003906 33.007812 57.015625 41.695312 C 57.003906 50.378906 47.679688 57.648438 35.441406 58.519531 L 35.441406 60.742188 C 35.441406 61.914062 34.371094 62.855469 33.042969 62.855469 C 31.714844 62.855469 30.644531 61.914062 30.644531 60.742188 L 30.644531 54.390625 C 30.644531 53.21875 31.714844 52.273438 33.042969 52.273438 C 42.308594 52.273438 49.828125 47.539062 49.828125 41.695312 C 49.828125 35.847656 42.308594 31.113281 33.042969 31.113281 C 31.714844 31.113281 30.644531 30.167969 30.644531 28.996094 L 30.644531 22.652344 C 30.644531 21.480469 31.714844 20.535156 33.042969 20.535156 Z M 33.042969 20.535156 "/></g></svg>
