<svg xmlns="http://www.w3.org/2000/svg" xmlns:xlink="http://www.w3.org/1999/xlink" width="64" height="64" viewBox="0 0 64 64" version="1.1"><defs><linearGradient id="linear0" x1="0%" x2="100%" y1="0%" y2="100%"><stop offset="0%" style="stop-color:#ff0000; stop-opacity:1"/><stop offset="50%" style="stop-color:#ffd000; stop-opacity:1"/><stop offset="100%" style="stop-color:#ff00bb; stop-opacity:1"/></linearGradient></defs><g id="surface1"><path style=" stroke:none;fill-rule:nonzero;fill:url(#linear0);" d="M 59.148438 2.136719 C 38.253906 2.136719 4.820312 20.820312 4.820312 32.5 C 4.820312 44.179688 38.253906 62.867188 59.148438 62.867188 C 59.917969 62.867188 60.542969 62.34375 60.542969 61.699219 C 60.542969 61.050781 59.917969 60.527344 59.148438 60.527344 C 49.796875 60.527344 18.753906 46.515625 15.964844 37.171875 L 15.964844 27.828125 C 18.753906 18.488281 49.796875 4.472656 59.148438 4.472656 C 59.917969 4.472656 60.542969 3.953125 60.542969 3.304688 C 60.542969 2.65625 59.917969 2.136719 59.148438 2.136719 Z M 56.363281 9.144531 C 41.039062 9.144531 18.753906 24.324219 18.753906 28.996094 L 18.753906 36.003906 C 18.753906 40.675781 41.039062 55.859375 56.363281 55.859375 C 57.136719 55.859375 57.757812 55.335938 57.757812 54.691406 C 57.757812 54.046875 57.136719 53.523438 56.363281 53.523438 C 49.949219 53.523438 27.109375 44.179688 24.320312 34.839844 L 24.320312 30.164062 C 27.109375 20.820312 49.949219 11.480469 56.363281 11.480469 C 57.136719 11.480469 57.757812 10.957031 57.757812 10.3125 C 57.757812 9.667969 57.136719 9.144531 56.363281 9.144531 Z M 50.789062 16.148438 C 41.039062 16.148438 27.109375 26.949219 27.109375 32.5 C 27.109375 38.054688 41.039062 48.851562 50.789062 48.851562 C 51.5625 48.851562 52.183594 48.332031 52.183594 47.683594 C 52.183594 47.035156 51.5625 46.515625 50.789062 46.515625 C 47.707031 46.515625 32.679688 39.511719 32.679688 32.5 C 32.679688 25.492188 47.707031 18.488281 50.789062 18.488281 C 51.5625 18.488281 52.183594 17.964844 52.183594 17.316406 C 52.183594 16.671875 51.5625 16.148438 50.789062 16.148438 Z M 50.789062 16.148438 "/></g></svg>
