<svg xmlns="http://www.w3.org/2000/svg" xmlns:xlink="http://www.w3.org/1999/xlink" width="64" height="64" viewBox="0 0 64 64" version="1.1"><defs><linearGradient id="linear0" x1="0%" x2="100%" y1="0%" y2="100%"><stop offset="0%" style="stop-color:#e5ff00; stop-opacity:1"/><stop offset="50%" style="stop-color:#0073ff; stop-opacity:1"/><stop offset="100%" style="stop-color:#ff0000; stop-opacity:1"/></linearGradient></defs><g id="surface1"><path style=" stroke:none;fill-rule:nonzero;fill:url(#linear0);" d="M 6.972656 1.625 C 4.28125 1.691406 2.128906 3.960938 2.128906 6.726562 C 2.132812 9.542969 4.355469 11.832031 7.097656 11.832031 L 31.921875 11.832031 C 42.890625 11.832031 51.785156 20.960938 51.785156 32.230469 C 51.785156 43.5 42.890625 52.636719 31.921875 52.636719 L 7.097656 52.636719 C 4.355469 52.636719 2.128906 54.925781 2.128906 57.742188 C 2.128906 60.5625 4.355469 62.84375 7.097656 62.84375 L 31.921875 62.84375 C 48.375 62.84375 61.714844 49.136719 61.714844 32.230469 C 61.714844 15.328125 48.375 1.625 31.921875 1.625 L 7.097656 1.625 C 7.054688 1.625 7.015625 1.625 6.972656 1.625 Z M 7.097656 27.132812 C 4.34375 27.132812 2.132812 29.40625 2.132812 32.230469 C 2.132812 35.0625 4.34375 37.335938 7.097656 37.335938 L 31.921875 37.335938 C 34.675781 37.335938 36.890625 35.0625 36.890625 32.230469 C 36.890625 29.40625 34.675781 27.132812 31.921875 27.132812 Z M 7.097656 27.132812 "/></g></svg>
