<svg xmlns="http://www.w3.org/2000/svg" xmlns:xlink="http://www.w3.org/1999/xlink" width="64" height="64" viewBox="0 0 64 64" version="1.1"><defs><linearGradient id="linear0" x1="0%" x2="100%" y1="0%" y2="100%"><stop offset="0%" style="stop-color:#ae00ff; stop-opacity:1"/><stop offset="100%" style="stop-color:#0084ff; stop-opacity:1"/></linearGradient></defs><g id="surface1"><path style=" stroke:none;fill-rule:nonzero;fill:url(#linear0);" d="M 33.007812 21.671875 C 33.007812 21.671875 31.773438 26.703125 30.691406 28.730469 C 30.21875 29.617188 29.75 29.785156 28.886719 29.675781 C 28.441406 30.5625 27.996094 31.453125 27.554688 32.339844 C 27.109375 30.5625 26.785156 28.785156 26.339844 27.007812 C 25.894531 28.785156 25.332031 30.5625 24.886719 32.339844 L 23.074219 30.527344 C 22.339844 29.671875 21.59375 30.9375 20.886719 31.007812 L 18.339844 28.339844 L 15.554688 31.007812 L 14.339844 28.339844 L 10.339844 32.339844 L 1.007812 32.339844 C 1.007812 33.238281 1.054688 34.125 1.132812 35.003906 L 10.339844 35.003906 L 14.339844 39.003906 L 15.554688 36.335938 L 18.339844 39.003906 L 20.886719 36.335938 C 21.59375 36.40625 22.339844 37.667969 23.074219 36.816406 L 24.886719 35.003906 C 25.332031 36.78125 25.894531 38.558594 26.339844 40.335938 C 26.785156 38.558594 27.109375 36.78125 27.554688 35.003906 C 27.996094 35.890625 28.441406 36.78125 28.886719 37.667969 C 29.75 37.558594 30.21875 37.726562 30.691406 38.613281 C 31.773438 40.636719 33.007812 45.671875 33.007812 45.671875 C 33.007812 45.671875 34.570312 40.875 35.554688 39.003906 C 36.433594 39.121094 36.882812 39.019531 37.21875 38.003906 L 38.21875 35.003906 L 40.886719 37.003906 L 43.554688 35.003906 L 46.339844 41.410156 L 48.886719 36.339844 L 51.554688 39.003906 L 52.886719 35.003906 L 55.554688 37.671875 L 58.351562 35.003906 L 62.21875 35.003906 C 62.292969 34.128906 62.339844 33.242188 62.339844 32.34375 L 58.351562 32.34375 L 55.554688 29.675781 L 52.886719 32.34375 L 51.554688 28.34375 L 48.886719 31.011719 L 46.339844 25.941406 L 43.554688 32.34375 L 40.886719 30.34375 L 38.21875 32.34375 L 37.21875 29.34375 C 36.882812 28.328125 36.433594 28.226562 35.554688 28.34375 C 34.570312 26.472656 33.007812 21.675781 33.007812 21.675781 Z M 33.007812 21.671875 "/><path style=" stroke:none;fill-rule:nonzero;fill:url(#linear0);" d="M 31.671875 1.671875 C 48.609375 1.671875 62.339844 15.402344 62.339844 32.339844 C 62.339844 49.277344 48.609375 63.003906 31.671875 63.003906 C 14.734375 63.003906 1.007812 49.277344 1.007812 32.339844 C 1.007812 15.402344 14.734375 1.671875 31.671875 1.671875 Z M 31.671875 1.671875 "/><path style=" stroke:none;fill-rule:nonzero;fill:rgb(86.666667%,86.666667%,86.666667%);fill-opacity:1;" d="M 31.671875 20.339844 C 31.671875 20.339844 30.441406 25.371094 29.359375 27.398438 C 28.886719 28.285156 28.417969 28.453125 27.554688 28.339844 C 27.109375 29.230469 26.664062 30.117188 26.21875 31.007812 C 25.777344 29.230469 25.449219 27.453125 25.007812 25.675781 C 24.5625 27.453125 23.996094 29.230469 23.554688 31.007812 L 21.742188 29.191406 C 21.007812 28.339844 20.261719 29.601562 19.554688 29.675781 L 17.007812 27.007812 L 14.21875 29.675781 L 13.007812 27.007812 L 9.007812 31.003906 L 1.042969 31.003906 C 1.023438 31.449219 1.007812 31.890625 1.007812 32.339844 C 1.007812 32.785156 1.023438 33.230469 1.042969 33.671875 L 9.007812 33.671875 L 13.007812 37.667969 L 14.21875 35.003906 L 17.007812 37.667969 L 19.554688 35.003906 C 20.261719 35.074219 21.007812 36.335938 21.742188 35.484375 L 23.554688 33.667969 C 23.996094 35.445312 24.5625 37.226562 25.007812 39.003906 C 25.449219 37.226562 25.777344 35.445312 26.21875 33.667969 C 26.664062 34.558594 27.109375 35.445312 27.554688 36.335938 C 28.417969 36.226562 28.886719 36.390625 29.359375 37.277344 C 30.441406 39.304688 31.671875 44.339844 31.671875 44.339844 C 31.671875 44.339844 33.234375 39.539062 34.21875 37.671875 C 35.101562 37.789062 35.546875 37.6875 35.886719 36.671875 L 36.886719 33.671875 L 39.554688 35.671875 L 42.21875 33.671875 L 45.007812 40.074219 L 47.554688 35.003906 L 50.21875 37.671875 L 51.554688 33.671875 L 54.21875 36.339844 L 57.019531 33.671875 L 62.304688 33.671875 C 62.324219 33.230469 62.339844 32.789062 62.339844 32.339844 C 62.339844 31.894531 62.324219 31.453125 62.304688 31.011719 L 57.019531 31.011719 L 54.21875 28.34375 L 51.554688 31.011719 L 50.21875 27.011719 L 47.554688 29.675781 L 45.007812 24.605469 L 42.21875 31.011719 L 39.554688 29.011719 L 36.886719 31.011719 L 35.886719 28.011719 C 35.546875 26.992188 35.101562 26.894531 34.21875 27.011719 C 33.234375 25.136719 31.671875 20.34375 31.671875 20.34375 Z M 31.671875 20.339844 "/></g></svg>
