<svg xmlns="http://www.w3.org/2000/svg" xmlns:xlink="http://www.w3.org/1999/xlink" width="64" height="64" viewBox="0 0 64 64" version="1.1"><defs><linearGradient id="linear0" x1="0%" x2="100%" y1="0%" y2="100%"><stop offset="0%" style="stop-color:#6a00ff; stop-opacity:1"/><stop offset="50%" style="stop-color:#e0dd02; stop-opacity:1"/><stop offset="100%" style="stop-color:#00b54e; stop-opacity:1"/></linearGradient></defs><g id="surface1"><path style=" stroke:none;fill-rule:nonzero;fill:url(#linear0);" d="M 9.683594 1.445312 C 8.878906 1.445312 8.226562 1.957031 8.226562 2.585938 L 8.226562 2.667969 C 8.226562 3.300781 8.878906 3.804688 9.683594 3.804688 L 55 3.804688 C 55.800781 3.804688 56.449219 3.300781 56.449219 2.667969 L 56.449219 2.585938 C 56.449219 1.957031 55.800781 1.445312 55 1.445312 Z M 15.707031 6.167969 C 14.902344 6.167969 14.253906 6.679688 14.253906 7.308594 L 14.253906 7.390625 C 14.253906 8.023438 14.902344 8.53125 15.707031 8.53125 L 48.96875 8.53125 C 49.773438 8.53125 50.425781 8.023438 50.425781 7.390625 L 50.425781 7.308594 C 50.425781 6.679688 49.773438 6.167969 48.96875 6.167969 Z M 21.792969 10.890625 C 20.957031 10.890625 20.28125 11.417969 20.28125 12.070312 C 20.28125 12.730469 20.957031 13.257812 21.792969 13.257812 L 42.890625 13.257812 C 43.722656 13.257812 44.394531 12.730469 44.394531 12.070312 C 44.394531 11.417969 43.722656 10.890625 42.890625 10.890625 Z M 8.226562 20.34375 L 8.226562 27.425781 L 23.300781 27.425781 L 23.296875 20.34375 Z M 41.382812 20.34375 L 41.382812 27.425781 L 56.453125 27.425781 L 56.449219 20.34375 Z M 8.226562 29.789062 L 8.226562 43.957031 C 8.222656 54.394531 19.023438 62.855469 32.339844 62.855469 C 45.65625 62.855469 56.449219 54.394531 56.449219 43.957031 L 56.449219 29.789062 L 41.382812 29.789062 L 41.382812 43.957031 C 41.382812 47.875 37.332031 51.042969 32.339844 51.042969 C 27.34375 51.042969 23.296875 47.875 23.296875 43.957031 L 23.296875 29.789062 Z M 8.226562 29.789062 "/></g></svg>
