<svg xmlns="http://www.w3.org/2000/svg" xmlns:xlink="http://www.w3.org/1999/xlink" width="64" height="64" viewBox="0 0 64 64" version="1.1"><defs><linearGradient id="linear0" x1="100%" x2="0%" y1="100%" y2="0%"><stop offset="0%" style="stop-color:#00b54e; stop-opacity:1"/><stop offset="100%" style="stop-color:#ff0000; stop-opacity:1"/></linearGradient></defs><g id="surface1"><path style=" stroke:none;fill-rule:nonzero;fill:url(#linear0);" d="M 32.152344 1.417969 C 25.402344 1.429688 19.175781 5.335938 15.855469 11.617188 C 7.71875 12.800781 1.648438 20.226562 1.648438 29.007812 C 1.648438 38.707031 9 46.566406 18.070312 46.566406 L 49.75 46.566406 C 56.898438 46.566406 62.652344 40.410156 62.652344 32.773438 C 62.652344 25.496094 57.441406 19.578125 50.777344 19.023438 C 49.613281 8.96875 41.625 1.410156 32.152344 1.417969 Z M 32.152344 1.417969 "/><path style=" stroke:none;fill-rule:nonzero;fill:url(#linear0);" d="M 38.117188 48.960938 L 44.390625 55.902344 L 44.390625 62.839844 L 59.019531 54.910156 Z M 8.851562 52.929688 L 8.851562 58.878906 L 15.125 58.878906 L 15.125 52.929688 Z M 19.304688 52.929688 L 19.304688 58.878906 L 25.574219 58.878906 L 25.574219 52.929688 Z M 29.757812 52.929688 L 29.757812 58.878906 L 36.027344 58.878906 L 36.027344 52.929688 Z M 29.757812 52.929688 "/></g></svg>
