<svg xmlns="http://www.w3.org/2000/svg" xmlns:xlink="http://www.w3.org/1999/xlink" width="64" height="64" viewBox="0 0 64 64" version="1.1"><defs><linearGradient id="linear0" x1="0%" x2="0%" y1="0%" y2="100%"><stop offset="0%" style="stop-color:#00b54e; stop-opacity:1"/><stop offset="50%" style="stop-color:#ffd000; stop-opacity:1"/><stop offset="100%" style="stop-color:#ff00bb; stop-opacity:1"/></linearGradient></defs><g id="surface1"><path style=" stroke:none;fill-rule:evenodd;fill:url(#linear0);" d="M 21.707031 32.730469 L 21.597656 32.730469 C 21.597656 37.882812 26.375 42.0625 32.265625 42.0625 C 38.15625 42.0625 42.933594 37.882812 42.933594 32.730469 L 42.824219 32.730469 C 42.894531 32.292969 42.933594 31.851562 42.933594 31.394531 L 21.597656 31.394531 C 21.597656 31.851562 21.636719 32.292969 21.707031 32.730469 Z M 48.296875 32.0625 C 48.273438 32.28125 48.265625 32.503906 48.265625 32.730469 C 48.265625 37.140625 51.851562 40.730469 56.265625 40.730469 C 60.679688 40.730469 64.265625 37.140625 64.265625 32.730469 C 64.265625 32.503906 64.257812 32.28125 64.234375 32.0625 C 64.257812 31.84375 64.265625 31.621094 64.265625 31.394531 C 64.265625 26.984375 60.679688 23.394531 56.265625 23.394531 C 51.851562 23.394531 48.265625 26.984375 48.265625 31.394531 C 48.265625 31.621094 48.273438 31.84375 48.296875 32.0625 Z M 0.296875 32.0625 C 0.273438 32.28125 0.265625 32.503906 0.265625 32.730469 C 0.265625 37.140625 3.851562 40.730469 8.265625 40.730469 C 12.679688 40.730469 16.265625 37.140625 16.265625 32.730469 C 16.265625 32.503906 16.257812 32.28125 16.234375 32.0625 C 16.257812 31.84375 16.265625 31.621094 16.265625 31.394531 C 16.265625 26.984375 12.679688 23.394531 8.265625 23.394531 C 3.851562 23.394531 0.265625 26.984375 0.265625 31.394531 C 0.265625 31.621094 0.273438 31.84375 0.296875 32.0625 Z M 0.296875 32.0625 "/></g></svg>
