<svg xmlns="http://www.w3.org/2000/svg" xmlns:xlink="http://www.w3.org/1999/xlink" width="64" height="64" viewBox="0 0 64 64" version="1.1"><defs><linearGradient id="linear0" x1="0%" x2="0%" y1="0%" y2="100%"><stop offset="0%" style="stop-color:#00b6c7; stop-opacity:1"/><stop offset="50%" style="stop-color:#ff0000; stop-opacity:1"/><stop offset="100%" style="stop-color:#6a00ff; stop-opacity:1"/></linearGradient></defs><g id="surface1"><path style=" stroke:none;fill-rule:nonzero;fill:url(#linear0);" d="M 1.386719 6.082031 L 1.386719 11.589844 L 11.710938 11.589844 L 11.710938 6.082031 Z M 1.386719 14.339844 L 1.386719 19.839844 L 11.710938 19.839844 L 11.710938 14.339844 Z M 29.769531 14.339844 L 29.769531 20.117188 C 28.160156 20.472656 26.625 21.15625 25.253906 22.128906 L 21.410156 18.027344 L 17.769531 21.90625 L 21.617188 26.007812 C 20.707031 27.46875 20.070312 29.101562 19.738281 30.816406 L 14.296875 30.816406 L 14.296875 36.324219 L 19.710938 36.324219 C 20.046875 38.042969 20.6875 39.675781 21.597656 41.136719 L 17.753906 45.234375 L 21.390625 49.113281 L 25.234375 45.015625 C 26.609375 45.984375 28.140625 46.664062 29.75 47.015625 L 29.75 52.820312 L 34.914062 52.820312 L 34.914062 47.042969 C 36.523438 46.691406 38.054688 46.003906 39.425781 45.035156 L 43.269531 49.136719 L 46.910156 45.257812 L 43.0625 41.15625 C 43.96875 39.691406 44.605469 38.058594 44.9375 36.339844 L 50.382812 36.339844 L 50.382812 30.839844 L 44.964844 30.839844 C 44.632812 29.121094 43.992188 27.484375 43.082031 26.023438 L 46.925781 21.925781 L 43.289062 18.046875 L 39.445312 22.144531 C 38.070312 21.179688 36.539062 20.496094 34.929688 20.144531 L 34.929688 14.339844 Z M 40.085938 14.339844 L 40.085938 17.558594 L 43.109375 14.339844 Z M 43.46875 14.339844 L 48.628906 19.839844 L 50.40625 19.839844 L 50.40625 14.339844 Z M 1.414062 22.59375 L 1.414062 28.09375 L 11.738281 28.09375 L 11.738281 22.59375 Z M 14.316406 22.59375 L 14.316406 28.09375 L 18.082031 28.09375 C 18.242188 27.625 18.417969 27.160156 18.621094 26.703125 L 14.777344 22.601562 Z M 49.917969 22.59375 L 46.074219 26.691406 C 46.277344 27.148438 46.457031 27.605469 46.617188 28.085938 L 50.382812 28.085938 L 50.382812 22.582031 Z M 52.9375 22.59375 L 52.9375 28.09375 L 63.257812 28.09375 L 63.257812 22.59375 Z M 32.296875 25.347656 C 36.570312 25.347656 40.035156 29.039062 40.035156 33.601562 C 40.035156 38.15625 36.570312 41.851562 32.296875 41.851562 C 28.019531 41.851562 24.554688 38.15625 24.554688 33.601562 C 24.554688 29.039062 28.019531 25.347656 32.296875 25.347656 Z M 1.335938 30.847656 L 1.335938 36.347656 L 11.660156 36.347656 L 11.660156 30.847656 Z M 52.9375 30.847656 L 52.9375 36.347656 L 63.257812 36.347656 L 63.257812 30.847656 Z M 1.335938 39.101562 L 1.335938 44.605469 L 11.660156 44.605469 L 11.660156 39.101562 Z M 14.238281 39.101562 L 14.238281 44.605469 L 14.679688 44.605469 L 18.523438 40.503906 C 18.324219 40.046875 18.140625 39.589844 17.980469 39.113281 Z M 46.488281 39.101562 C 46.324219 39.574219 46.148438 40.039062 45.949219 40.492188 L 49.792969 44.59375 L 50.238281 44.59375 L 50.238281 39.09375 Z M 52.832031 39.101562 L 52.832031 44.605469 L 63.15625 44.605469 L 63.15625 39.101562 Z M 1.234375 47.355469 L 1.234375 52.859375 L 11.554688 52.859375 L 11.554688 47.355469 Z M 14.132812 47.355469 L 14.132812 52.859375 L 21.074219 52.859375 L 15.910156 47.355469 Z M 48.445312 47.355469 L 43.289062 52.859375 L 50.226562 52.859375 L 50.226562 47.355469 Z M 52.808594 47.355469 L 52.808594 52.859375 L 63.128906 52.859375 L 63.128906 47.355469 Z M 24.425781 49.632812 L 21.410156 52.851562 L 24.425781 52.851562 Z M 39.90625 49.632812 L 39.90625 52.851562 L 42.929688 52.851562 Z M 1.207031 55.601562 L 1.207031 61.109375 L 11.53125 61.109375 L 11.53125 55.601562 Z M 14.109375 55.601562 L 14.109375 61.109375 L 24.425781 61.109375 L 24.425781 55.601562 Z M 27.007812 55.601562 L 27.007812 61.109375 L 37.328125 61.109375 L 37.328125 55.601562 Z M 39.90625 55.601562 L 39.90625 61.109375 L 50.226562 61.109375 L 50.226562 55.601562 Z M 52.808594 55.601562 L 52.808594 61.109375 L 63.128906 61.109375 L 63.128906 55.601562 Z M 52.808594 55.601562 "/></g></svg>
