<svg xmlns="http://www.w3.org/2000/svg" xmlns:xlink="http://www.w3.org/1999/xlink" width="64" height="64" viewBox="0 0 64 64" version="1.1"><defs><linearGradient id="linear0" x1="0%" x2="100%" y1="0%" y2="100%"><stop offset="0%" style="stop-color:#ae00ff; stop-opacity:1"/><stop offset="100%" style="stop-color:#0084ff; stop-opacity:1"/></linearGradient></defs><g id="surface1"><path style=" stroke:none;fill-rule:nonzero;fill:url(#linear0);" d="M 36.039062 33.496094 C 36.039062 36.0625 33.949219 38.136719 31.382812 38.136719 C 28.808594 38.136719 26.726562 36.0625 26.726562 33.496094 C 26.726562 30.933594 28.808594 28.859375 31.382812 28.859375 C 33.949219 28.859375 36.039062 30.933594 36.039062 33.496094 Z M 36.039062 33.496094 "/><path style=" stroke:none;fill-rule:nonzero;fill:url(#linear0);" d="M 32.40625 1.371094 L 32.40625 20.5625 L 39.175781 20.5625 Z M 20.804688 25.359375 L 1.460938 32.078125 L 20.804688 32.078125 Z M 44.007812 32.078125 L 44.007812 38.800781 L 63.34375 32.078125 Z M 25.636719 43.597656 L 32.40625 62.792969 L 32.40625 43.597656 Z M 25.636719 43.597656 "/><path style=" stroke:none;fill-rule:nonzero;fill:url(#linear0);" d="M 9.679688 9.277344 L 16.910156 22.433594 C 15.089844 25.40625 14.113281 28.859375 14.121094 32.382812 C 14.121094 35.902344 15.097656 39.351562 16.925781 42.316406 L 9.679688 55.488281 L 22.316406 47.960938 C 25.171875 49.859375 28.484375 50.871094 31.875 50.867188 C 35.253906 50.863281 38.566406 49.847656 41.417969 47.949219 L 54.070312 55.488281 L 46.835938 42.332031 C 48.660156 39.359375 49.632812 35.910156 49.625 32.382812 C 49.621094 28.863281 48.648438 25.414062 46.820312 22.449219 L 54.070312 9.273438 L 41.429688 16.804688 C 38.574219 14.90625 35.261719 13.890625 31.875 13.894531 C 28.492188 13.898438 25.179688 14.914062 22.332031 16.816406 Z M 31.875 20.828125 C 38 20.828125 42.972656 26.003906 42.972656 32.382812 C 42.972656 38.761719 38 43.9375 31.875 43.9375 C 25.746094 43.9375 20.777344 38.761719 20.777344 32.382812 C 20.777344 26.003906 25.746094 20.828125 31.875 20.828125 Z M 31.875 20.828125 "/></g></svg>
