<svg xmlns="http://www.w3.org/2000/svg" xmlns:xlink="http://www.w3.org/1999/xlink" width="64" height="64" viewBox="0 0 64 64" version="1.1"><defs><linearGradient id="linear0" x1="0%" x2="100%" y1="0%" y2="100%"><stop offset="0%" style="stop-color:#e5ff00; stop-opacity:1"/><stop offset="50%" style="stop-color:#0073ff; stop-opacity:1"/><stop offset="100%" style="stop-color:#ff0000; stop-opacity:1"/></linearGradient></defs><g id="surface1"><path style=" stroke:none;fill-rule:nonzero;fill:url(#linear0);" d="M 32.015625 1.636719 L 32.015625 20.511719 L 34.371094 18.859375 Z M 10.347656 10.621094 L 23.683594 23.96875 L 24.183594 21.136719 Z M 53.683594 10.621094 L 40.347656 23.96875 L 43.179688 24.46875 Z M 18.582031 29.949219 L 1.371094 32.3125 L 20.226562 32.3125 Z M 43.800781 32.3125 L 45.445312 34.667969 L 62.65625 32.3125 Z M 20.851562 40.144531 L 10.347656 53.996094 L 23.683594 40.648438 Z M 40.34375 40.648438 L 39.84375 43.480469 L 53.683594 53.996094 Z M 32.015625 44.105469 L 29.65625 45.757812 L 32.015625 62.976562 Z M 32.015625 44.105469 "/><path style=" stroke:none;fill-rule:nonzero;fill:url(#linear0);" d="M 41.402344 32.164062 C 41.402344 37.25 37.261719 41.367188 32.140625 41.367188 C 27.027344 41.367188 22.882812 37.25 22.882812 32.164062 C 22.882812 27.078125 27.03125 22.957031 32.140625 22.957031 C 37.261719 22.957031 41.402344 27.082031 41.402344 32.164062 "/><path style=" stroke:none;fill-rule:nonzero;fill:url(#linear0);" d="M 23.34375 2.628906 L 28.300781 21.261719 L 30.175781 19.011719 Z M 39.449219 2.632812 L 34.492188 21.261719 L 37.238281 20.257812 Z M 15.839844 5.757812 L 25.414062 22.464844 L 26.652344 19.800781 Z M 46.949219 5.761719 L 37.378906 22.464844 L 40.285156 22.214844 Z M 4.457031 17.238281 L 21.039062 26.878906 L 20.785156 23.953125 Z M 58.339844 17.238281 L 41.761719 26.878906 L 44.40625 28.128906 Z M 1.355469 24.792969 L 19.839844 29.789062 L 18.84375 27.023438 Z M 61.449219 24.792969 L 42.953125 29.789062 L 45.191406 31.679688 Z M 17.605469 34.140625 L 1.351562 41.023438 L 19.839844 36.03125 Z M 42.957031 36.03125 L 43.953125 38.796875 L 61.449219 41.023438 Z M 18.390625 37.691406 L 4.457031 48.585938 L 21.039062 38.9375 Z M 41.761719 38.9375 L 42.011719 41.867188 L 58.335938 48.585938 Z M 25.414062 43.351562 L 22.511719 43.601562 L 15.847656 60.054688 Z M 37.378906 43.351562 L 36.144531 46.015625 L 46.949219 60.0625 Z M 28.300781 44.554688 L 25.554688 45.558594 L 23.347656 63.191406 Z M 34.5 44.554688 L 32.617188 46.808594 L 39.449219 63.195312 Z M 34.5 44.554688 "/></g></svg>
