<svg xmlns="http://www.w3.org/2000/svg" xmlns:xlink="http://www.w3.org/1999/xlink" width="64" height="64" viewBox="0 0 64 64" version="1.1"><defs><linearGradient id="linear0" x1="0%" x2="0%" y1="0%" y2="100%"><stop offset="0%" style="stop-color:#00b54e; stop-opacity:1"/><stop offset="50%" style="stop-color:#0073ff; stop-opacity:1"/><stop offset="100%" style="stop-color:#ffd000; stop-opacity:1"/></linearGradient></defs><g id="surface1"><path style=" stroke:none;fill-rule:nonzero;fill:url(#linear0);" d="M 17.691406 2.210938 L 17.691406 9.484375 L 30.347656 9.484375 L 30.347656 2.210938 Z M 17.691406 12.933594 L 17.691406 20.203125 L 30.347656 20.203125 L 30.347656 12.933594 Z M 1.609375 23.65625 L 1.609375 30.925781 L 14.265625 30.925781 L 14.265625 23.65625 Z M 17.691406 23.65625 L 17.691406 30.925781 L 30.347656 30.925781 L 30.347656 23.65625 Z M 49.855469 23.65625 L 49.855469 30.925781 L 62.511719 30.925781 L 62.511719 23.65625 Z M 1.609375 34.371094 L 1.609375 41.640625 L 14.265625 41.640625 L 14.265625 34.371094 Z M 17.691406 34.371094 L 17.691406 41.640625 L 30.347656 41.640625 L 30.347656 34.371094 Z M 33.773438 34.371094 L 33.773438 41.640625 L 46.429688 41.640625 L 46.429688 34.371094 Z M 49.855469 34.371094 L 49.855469 41.640625 L 62.511719 41.640625 L 62.511719 34.371094 Z M 1.609375 45.09375 L 1.609375 52.367188 L 14.265625 52.367188 L 14.265625 45.09375 Z M 17.691406 45.09375 L 17.691406 52.367188 L 30.347656 52.367188 L 30.347656 45.09375 Z M 33.773438 45.09375 L 33.773438 52.367188 L 46.429688 52.367188 L 46.429688 45.09375 Z M 49.855469 45.09375 L 49.855469 52.367188 L 62.511719 52.367188 L 62.511719 45.09375 Z M 1.609375 55.816406 L 1.609375 63.082031 L 14.265625 63.082031 L 14.265625 55.816406 Z M 17.691406 55.816406 L 17.691406 63.082031 L 30.347656 63.082031 L 30.347656 55.816406 Z M 33.761719 55.816406 L 33.761719 63.082031 L 46.429688 63.082031 L 46.429688 55.816406 Z M 49.84375 55.816406 L 49.84375 63.082031 L 62.5 63.082031 L 62.5 55.816406 Z M 49.84375 55.816406 "/></g></svg>
