<svg xmlns="http://www.w3.org/2000/svg" xmlns:xlink="http://www.w3.org/1999/xlink" width="64" height="64" viewBox="0 0 64 64" version="1.1"><defs><linearGradient id="linear0" x1="0%" x2="0%" y1="0%" y2="100%"><stop offset="0%" style="stop-color:#00b54e; stop-opacity:1"/><stop offset="50%" style="stop-color:#ffd000; stop-opacity:1"/><stop offset="100%" style="stop-color:#ff00bb; stop-opacity:1"/></linearGradient></defs><g id="surface1"><path style=" stroke:none;fill-rule:nonzero;fill:url(#linear0);" d="M 28.214844 55.8125 C 28.109375 55.714844 27.5625 55.597656 26.984375 55.550781 C 24.828125 55.378906 22.164062 53.074219 15.40625 45.554688 C 8.679688 38.066406 5.589844 35.570312 1.636719 34.425781 C 1.175781 34.292969 1.683594 33.734375 4.75 30.980469 C 8.898438 27.242188 11.703125 24.53125 18.582031 17.609375 C 24.046875 12.113281 24.796875 11.445312 25.121094 11.78125 C 25.25 11.90625 26.074219 12.984375 26.957031 14.171875 C 29.183594 17.164062 30.910156 17.972656 33.03125 17 C 34.824219 16.183594 38.722656 11.632812 39.808594 9.089844 C 40.191406 8.199219 40.441406 8.222656 41.097656 9.210938 C 42.011719 10.574219 46.8125 16.074219 49.953125 19.351562 C 51.589844 21.058594 55.125 24.429688 57.8125 26.835938 C 60.492188 29.242188 62.679688 31.3125 62.679688 31.445312 C 62.679688 31.566406 61.949219 31.875 61.0625 32.121094 C 57.191406 33.207031 53.578125 36.03125 43.78125 45.605469 C 36.144531 53.070312 32.652344 55.625 29.753906 55.871094 C 29.007812 55.929688 28.324219 55.902344 28.21875 55.8125 M 33.722656 41.960938 C 35.617188 41.460938 35.914062 41.277344 38.457031 39.039062 C 41.097656 36.714844 43.566406 33.71875 45.769531 30.160156 C 46.8125 28.484375 46.761719 27.914062 45.554688 27.660156 C 45.128906 27.570312 43.386719 26.949219 41.703125 26.28125 C 35.425781 23.796875 33.410156 23.542969 30.464844 24.855469 C 28.289062 25.824219 23.199219 28.585938 21.550781 29.703125 C 20.863281 30.160156 19.878906 30.675781 19.363281 30.839844 C 18.839844 31.003906 18.355469 31.28125 18.28125 31.453125 C 18.097656 31.878906 21.421875 36.71875 23.066406 38.417969 C 24.660156 40.0625 26.914062 41.613281 28.433594 42.105469 C 30.003906 42.613281 31.410156 42.574219 33.722656 41.957031 "/></g></svg>
