<svg xmlns="http://www.w3.org/2000/svg" xmlns:xlink="http://www.w3.org/1999/xlink" width="64" height="64" viewBox="0 0 64 64" version="1.1"><defs><linearGradient id="linear0" x1="0%" x2="0%" y1="0%" y2="100%"><stop offset="0%" style="stop-color:#ffd000; stop-opacity:1"/><stop offset="50%" style="stop-color:#24dbdb; stop-opacity:1"/><stop offset="100%" style="stop-color:#0073ff; stop-opacity:1"/></linearGradient></defs><g id="surface1"><path style=" stroke:none;fill-rule:nonzero;fill:url(#linear0);" d="M 15.863281 1.96875 C 8.183594 1.96875 1.976562 10.085938 1.976562 20.136719 L 1.976562 44.363281 C 1.976562 54.417969 8.183594 62.53125 15.863281 62.53125 L 48.269531 62.53125 C 55.957031 62.53125 62.15625 54.417969 62.15625 44.363281 L 62.15625 20.136719 C 62.15625 10.085938 55.957031 1.96875 48.269531 1.96875 Z M 15.863281 11.054688 L 48.269531 11.054688 C 51.71875 11.054688 54.566406 14.324219 55.125 18.65625 C 53.785156 17.671875 52.25 17.109375 50.585938 17.109375 L 13.550781 17.109375 C 11.902344 17.109375 10.355469 17.671875 9.015625 18.65625 C 9.554688 14.324219 12.394531 11.054688 15.863281 11.054688 Z M 13.550781 23.164062 L 50.585938 23.164062 C 52.46875 23.164062 54.078125 24.632812 54.796875 26.742188 L 43.640625 41.335938 L 8.921875 29.222656 C 8.921875 25.863281 10.988281 23.164062 13.550781 23.164062 Z M 13.550781 23.164062 "/></g></svg>
