<svg xmlns="http://www.w3.org/2000/svg" xmlns:xlink="http://www.w3.org/1999/xlink" width="64" height="64" viewBox="0 0 64 64" version="1.1"><defs><linearGradient id="linear0" x1="0%" x2="0%" y1="0%" y2="100%"><stop offset="0%" style="stop-color:#00b54e; stop-opacity:1"/><stop offset="50%" style="stop-color:#0073ff; stop-opacity:1"/><stop offset="100%" style="stop-color:#ffd000; stop-opacity:1"/></linearGradient></defs><g id="surface1"><path style="fill:none;stroke-width:10;stroke-linecap:square;stroke-linejoin:round;stroke:url(#linear0);stroke-miterlimit:4;" d="M 399.881148 250.532776 C 399.881148 331.199178 334.497148 396.560745 253.836332 396.560745 C 173.214045 396.560745 107.849309 331.199178 107.849309 250.532776 C 107.849309 169.866373 173.214045 104.504806 253.836332 104.504806 C 334.497148 104.504806 399.881148 169.866373 399.881148 250.532776 Z M 399.881148 250.532776 L 399.881148 250.532776 M 399.881148 250.532776 L 399.881148 250.532776 M 399.881148 250.532776 L 399.881148 250.532776 M 399.881148 250.532776 L 399.881148 250.532776 M 399.881148 250.532776 L 399.881148 250.532776 M 399.881148 250.532776 L 399.881148 250.532776 M 399.881148 250.532776 L 399.881148 250.532776 M 399.881148 250.532776 " transform="matrix(0.202768,0,0,0.200866,-19.118437,-17.932852)"/><path style=" stroke:none;fill-rule:evenodd;fill:url(#linear0);" d="M 32.347656 3.386719 C 16.082031 3.386719 2.894531 16.449219 2.894531 32.558594 C 2.894531 48.675781 16.082031 61.734375 32.347656 61.734375 C 48.613281 61.734375 61.800781 48.675781 61.800781 32.558594 C 61.800781 16.449219 48.613281 3.386719 32.347656 3.386719 Z M 23.316406 14.207031 C 25.386719 14.207031 27.070312 16.882812 27.070312 20.175781 C 27.070312 23.472656 25.386719 26.136719 23.316406 26.136719 C 21.242188 26.136719 19.566406 23.472656 19.566406 20.175781 C 19.566406 16.882812 21.242188 14.207031 23.316406 14.207031 Z M 43.207031 14.207031 C 45.28125 14.207031 46.957031 16.882812 46.957031 20.175781 C 46.957031 23.472656 45.28125 26.136719 43.207031 26.136719 C 41.136719 26.136719 39.457031 23.472656 39.457031 20.175781 C 39.457031 16.882812 41.136719 14.207031 43.207031 14.207031 Z M 49.078125 40.714844 L 49.847656 41.742188 C 45.039062 45.296875 40.464844 48.75 34.988281 49.621094 C 29.507812 50.492188 23.246094 48.691406 15.289062 42.058594 L 16.117188 41.070312 C 23.917969 47.570312 29.730469 49.15625 34.78125 48.355469 C 39.835938 47.546875 44.261719 44.265625 49.078125 40.714844 Z M 49.078125 40.714844 "/></g></svg>
