<svg xmlns="http://www.w3.org/2000/svg" xmlns:xlink="http://www.w3.org/1999/xlink" width="64" height="64" viewBox="0 0 64 64" version="1.1"><defs><linearGradient id="linear0" x1="0%" x2="100%" y1="0%" y2="100%"><stop offset="0%" style="stop-color:#00b54e; stop-opacity:1"/><stop offset="100%" style="stop-color:#0073ff; stop-opacity:1"/></linearGradient></defs><g id="surface1"><path style=" stroke:none;fill-rule:nonzero;fill:url(#linear0);" d="M 26.402344 1.910156 L 26.402344 11.644531 L 36.195312 11.644531 L 36.195312 1.910156 Z M 53.324219 23.804688 L 53.324219 28.667969 L 58.21875 28.667969 L 58.21875 23.804688 Z M 58.21875 28.667969 L 58.21875 33.535156 L 63.113281 33.535156 L 63.113281 28.667969 Z M 58.21875 33.535156 L 53.324219 33.535156 L 53.324219 38.394531 L 58.21875 38.394531 Z M 53.324219 33.535156 L 53.324219 28.667969 L 48.429688 28.667969 L 48.429688 33.535156 Z M 6.828125 26.234375 L 1.933594 35.96875 L 11.71875 35.96875 Z M 26.402344 48.128906 L 26.402344 62.71875 L 31.300781 62.71875 L 31.300781 48.128906 Z M 33.746094 52.992188 L 33.746094 57.859375 L 38.640625 57.859375 L 38.640625 52.992188 Z M 33.746094 52.992188 "/></g></svg>
