<svg xmlns="http://www.w3.org/2000/svg" xmlns:xlink="http://www.w3.org/1999/xlink" width="64" height="64" viewBox="0 0 64 64" version="1.1"><defs><linearGradient id="linear0" x1="0%" x2="100%" y1="0%" y2="100%"><stop offset="0%" style="stop-color:#6a00ff; stop-opacity:1"/><stop offset="50%" style="stop-color:#e0dd02; stop-opacity:1"/><stop offset="100%" style="stop-color:#00b54e; stop-opacity:1"/></linearGradient></defs><g id="surface1"><path style=" stroke:none;fill-rule:nonzero;fill:url(#linear0);" d="M 32.816406 1.988281 C 16.234375 1.988281 2.808594 15.460938 2.808594 32.074219 C 2.808594 38.476562 4.800781 44.414062 8.207031 49.296875 L 1.59375 62.886719 L 1.417969 63.234375 L 1.757812 63.046875 L 14.257812 55.707031 C 19.359375 59.738281 25.800781 62.160156 32.816406 62.160156 C 49.386719 62.160156 62.835938 48.683594 62.835938 32.074219 C 62.835938 15.460938 49.386719 1.988281 32.816406 1.988281 Z M 55.925781 22.648438 C 56.042969 22.660156 55.847656 22.914062 55.46875 23.375 C 53.644531 25.578125 37.011719 44.050781 36.855469 44.050781 C 36.765625 44.050781 34.628906 41.839844 32.117188 39.136719 L 27.550781 34.222656 L 21.613281 37.734375 C 18.34375 39.660156 14.367188 41.984375 12.785156 42.890625 L 9.902344 44.539062 L 11.375 42.867188 C 18 35.34375 29.273438 22.785156 29.398438 22.785156 C 29.476562 22.785156 31.613281 25.003906 34.132812 27.714844 L 38.722656 32.640625 L 44.792969 29.046875 C 48.132812 27.066406 52.109375 24.734375 53.621094 23.867188 C 55.105469 23.015625 55.773438 22.628906 55.925781 22.648438 Z M 55.925781 22.648438 "/></g></svg>
