<svg xmlns="http://www.w3.org/2000/svg" xmlns:xlink="http://www.w3.org/1999/xlink" width="64" height="64" viewBox="0 0 64 64" version="1.1"><defs><linearGradient id="linear0" x1="0%" x2="0%" y1="0%" y2="100%"><stop offset="0%" style="stop-color:#ffd000; stop-opacity:1"/><stop offset="50%" style="stop-color:#24dbdb; stop-opacity:1"/><stop offset="100%" style="stop-color:#0073ff; stop-opacity:1"/></linearGradient></defs><g id="surface1"><path style=" stroke:none;fill-rule:nonzero;fill:url(#linear0);" d="M 3.996094 1.144531 C 2.117188 1.253906 1.148438 3.421875 2.277344 4.9375 L 7.6875 12.203125 C 6.953125 13.039062 6.496094 14.121094 6.496094 15.332031 L 6.496094 22.425781 C 6.496094 25.042969 8.589844 27.152344 11.195312 27.152344 L 53.484375 27.152344 C 56.085938 27.152344 58.1875 25.042969 58.1875 22.425781 L 58.1875 15.332031 C 58.1875 14.121094 57.730469 13.03125 56.992188 12.199219 L 62.402344 4.9375 C 63.53125 3.421875 62.566406 1.257812 60.6875 1.144531 C 59.890625 1.101562 59.136719 1.46875 58.65625 2.113281 L 52.335938 10.597656 L 12.34375 10.597656 L 6.019531 2.113281 C 5.542969 1.46875 4.789062 1.097656 3.996094 1.144531 Z M 20.59375 15.332031 C 23.1875 15.332031 25.289062 17.445312 25.289062 20.058594 C 25.289062 22.671875 23.1875 24.789062 20.59375 24.789062 C 17.996094 24.789062 15.894531 22.671875 15.894531 20.058594 C 15.894531 17.445312 17.996094 15.332031 20.59375 15.332031 Z M 44.085938 15.332031 C 46.679688 15.332031 48.785156 17.445312 48.785156 20.058594 C 48.785156 22.671875 46.679688 24.789062 44.085938 24.789062 C 41.492188 24.789062 39.386719 22.671875 39.386719 20.058594 C 39.386719 17.445312 41.492188 15.332031 44.085938 15.332031 Z M 11.195312 29.515625 C 8.589844 29.515625 6.496094 31.625 6.496094 34.246094 L 6.496094 57.890625 C 6.496094 60.511719 8.589844 62.621094 11.195312 62.621094 L 53.488281 62.621094 C 56.089844 62.621094 58.1875 60.511719 58.1875 57.890625 L 58.1875 34.246094 C 58.1875 31.625 56.089844 29.515625 53.488281 29.515625 Z M 11.195312 29.515625 "/></g></svg>
