<svg xmlns="http://www.w3.org/2000/svg" xmlns:xlink="http://www.w3.org/1999/xlink" width="64" height="64" viewBox="0 0 64 64" version="1.1"><defs><linearGradient id="linear0" x1="100%" x2="0%" y1="100%" y2="0%"><stop offset="0%" style="stop-color:#00b54e; stop-opacity:1"/><stop offset="100%" style="stop-color:#ff0000; stop-opacity:1"/></linearGradient></defs><g id="surface1"><path style=" stroke:none;fill-rule:nonzero;fill:url(#linear0);" d="M 32.234375 1.597656 C 15.320312 1.597656 1.605469 15.265625 1.59375 32.105469 L 1.59375 55.6875 C 1.597656 59.507812 4.695312 62.597656 8.53125 62.597656 L 32.234375 62.597656 C 49.152344 62.589844 62.882812 48.941406 62.882812 32.105469 C 62.882812 15.25 49.160156 1.597656 32.234375 1.597656 M 41.210938 8.867188 C 42.414062 8.867188 43.332031 8.9375 44.449219 9.226562 C 46.074219 9.648438 47.320312 11.019531 47.320312 12.5625 C 47.320312 14.429688 46 15.777344 43.964844 15.777344 C 42.996094 15.777344 42.632812 15.539062 41.210938 15.539062 C 37.023438 15.539062 33.679688 19 33.675781 23.164062 L 33.675781 29.714844 C 33.675781 30.3125 34.152344 30.785156 34.75 30.785156 L 39.660156 30.785156 C 41.515625 30.785156 43.003906 32.152344 43.007812 34.003906 C 43.007812 35.855469 41.515625 37.34375 39.660156 37.34375 L 33.675781 37.34375 L 33.675781 44.964844 C 33.675781 52.871094 27.25 59.382812 19.308594 59.382812 C 18.101562 59.382812 17.1875 59.191406 16.078125 58.902344 C 14.453125 58.480469 13.085938 57.113281 13.085938 55.566406 C 13.085938 53.707031 14.519531 52.351562 16.550781 52.351562 C 17.519531 52.351562 17.890625 52.59375 19.308594 52.59375 C 23.492188 52.59375 26.84375 49.253906 26.855469 45.085938 L 26.855469 38.414062 C 26.855469 37.828125 26.367188 37.34375 25.769531 37.34375 L 20.742188 37.34375 C 18.886719 37.34375 17.394531 35.976562 17.394531 34.125 C 17.394531 32.257812 18.980469 30.785156 20.863281 30.785156 L 26.855469 30.785156 L 26.855469 23.164062 C 26.855469 15.257812 33.273438 8.867188 41.214844 8.867188 "/></g></svg>
