<svg xmlns="http://www.w3.org/2000/svg" xmlns:xlink="http://www.w3.org/1999/xlink" width="64" height="64" viewBox="0 0 64 64" version="1.1"><defs><linearGradient id="linear0" x1="0%" x2="100%" y1="0%" y2="100%"><stop offset="0%" style="stop-color:#6a00ff; stop-opacity:1"/><stop offset="50%" style="stop-color:#e0dd02; stop-opacity:1"/><stop offset="100%" style="stop-color:#00b54e; stop-opacity:1"/></linearGradient></defs><g id="surface1"><path style=" stroke:none;fill-rule:evenodd;fill:url(#linear0);" d="M 24.730469 8.542969 C 17.226562 8.542969 15.816406 21.5 8.015625 21.5 C 3.566406 21.5 3.566406 16.3125 1.335938 16.3125 C 1.335938 24.082031 9.136719 29.273438 15.816406 29.273438 C 26.960938 29.273438 25.847656 21.5 32.527344 21.5 C 39.214844 21.5 38.101562 29.273438 49.242188 29.273438 C 55.925781 29.273438 63.726562 24.082031 63.726562 16.3125 C 61.496094 16.3125 61.496094 21.5 57.042969 21.5 C 49.242188 21.5 47.835938 8.542969 40.328125 8.542969 C 36.984375 8.542969 36.984375 11.132812 32.527344 11.132812 C 28.078125 11.132812 28.078125 8.542969 24.730469 8.542969 Z M 32.527344 34.449219 C 30.179688 34.449219 25.847656 34.449219 25.847656 37.039062 C 25.847656 43.519531 30.304688 55.175781 32.527344 55.175781 C 34.757812 55.175781 39.214844 43.519531 39.214844 37.039062 C 39.214844 34.449219 34.882812 34.449219 32.527344 34.449219 Z M 32.527344 34.449219 "/></g></svg>
