<svg xmlns="http://www.w3.org/2000/svg" xmlns:xlink="http://www.w3.org/1999/xlink" width="64" height="64" viewBox="0 0 64 64" version="1.1"><defs><linearGradient id="linear0" x1="0%" x2="0%" y1="0%" y2="100%"><stop offset="0%" style="stop-color:#00b54e; stop-opacity:1"/><stop offset="50%" style="stop-color:#ffd000; stop-opacity:1"/><stop offset="100%" style="stop-color:#ff00bb; stop-opacity:1"/></linearGradient></defs><g id="surface1"><path style=" stroke:none;fill-rule:nonzero;fill:url(#linear0);" d="M 42.945312 61.324219 C 43.511719 59.890625 43.585938 57.351562 43.09375 55.917969 C 42.410156 53.867188 41.703125 52.859375 39.59375 50.863281 C 37.296875 48.6875 35.921875 47.050781 34.964844 45.3125 C 34.207031 43.945312 33.449219 41.914062 33.265625 40.730469 C 33.160156 40.097656 33.070312 39.949219 32.816406 39.949219 C 32.546875 39.949219 32.425781 40.195312 32.101562 41.367188 C 31.097656 45.039062 29.722656 47.121094 26.101562 50.488281 C 24.285156 52.1875 23.921875 52.613281 23.230469 53.863281 C 22.804688 54.65625 22.335938 55.714844 22.191406 56.214844 C 21.710938 57.914062 21.929688 60.398438 22.695312 62.015625 C 22.910156 62.457031 22.570312 62.335938 20.886719 61.351562 C 18.945312 60.207031 15.863281 57.492188 14.621094 55.839844 C 12.148438 52.515625 10.980469 49.03125 10.980469 44.957031 C 10.992188 40.019531 12.667969 36.011719 16.363281 32.117188 C 24.890625 23.140625 28.785156 12.644531 27.226562 2.824219 C 27.136719 2.226562 27.09375 1.71875 27.132812 1.679688 C 27.222656 1.601562 29.253906 4.785156 30.222656 6.519531 C 32.730469 11.03125 34.964844 17.484375 35.6875 22.292969 C 35.871094 23.496094 35.9375 23.671875 36.226562 23.671875 C 36.460938 23.671875 36.582031 23.546875 36.617188 23.285156 C 36.757812 22.292969 37.433594 20.238281 38.382812 18.066406 C 38.953125 16.757812 39.617188 15.207031 39.828125 14.613281 C 40.179688 13.652344 40.386719 11.917969 40.414062 12.03125 C 40.414062 12.03125 40.417969 12.003906 40.414062 12.03125 C 40.71875 16.722656 42.160156 21.535156 44.195312 25.378906 C 45.320312 27.453125 47.476562 30.453125 48.773438 31.734375 C 53.558594 36.835938 55.664062 43.714844 53.898438 49.730469 C 53.640625 50.554688 53.1875 51.792969 52.878906 52.484375 C 51.734375 55.09375 49.113281 58.210938 46.5 60.074219 C 45.171875 61.035156 42.894531 62.40625 42.621094 62.425781 C 42.554688 62.4375 42.699219 61.9375 42.945312 61.324219 Z M 42.945312 61.324219 "/></g></svg>
