<svg xmlns="http://www.w3.org/2000/svg" xmlns:xlink="http://www.w3.org/1999/xlink" width="64" height="64" viewBox="0 0 64 64" version="1.1"><defs><linearGradient id="linear0" x1="0%" x2="100%" y1="0%" y2="100%"><stop offset="0%" style="stop-color:#00b54e; stop-opacity:1"/><stop offset="100%" style="stop-color:#0073ff; stop-opacity:1"/></linearGradient></defs><g id="surface1"><path style=" stroke:none;fill-rule:nonzero;fill:url(#linear0);" d="M 10.71875 2.132812 L 10.71875 10.8125 L 15.109375 10.8125 L 15.109375 6.476562 L 19.519531 6.488281 L 19.519531 2.140625 M 37.121094 2.140625 L 37.121094 6.488281 L 41.519531 6.488281 L 41.519531 10.828125 L 45.917969 10.828125 L 45.917969 2.140625 M 15.109375 15.164062 L 15.109375 23.839844 L 19.511719 23.839844 L 19.511719 15.164062 M 28.308594 15.164062 L 28.308594 23.839844 L 32.699219 23.839844 L 32.699219 15.164062 M 6.3125 19.5 L 6.3125 23.839844 L 10.707031 23.839844 L 10.707031 19.5 M 6.3125 28.1875 L 6.3125 41.199219 L 15.101562 41.199219 L 15.101562 49.886719 L 19.5 49.886719 L 19.5 28.167969 L 6.3125 28.167969 M 15.101562 49.886719 L 10.707031 49.886719 L 10.707031 62.90625 L 23.894531 62.90625 L 23.894531 54.230469 L 19.5 54.230469 L 19.5 58.574219 L 15.101562 58.574219 M 23.894531 54.230469 L 28.316406 54.261719 L 28.316406 58.609375 L 32.691406 58.574219 L 32.71875 49.921875 L 23.921875 49.921875 M 32.71875 58.609375 L 32.71875 62.949219 L 41.519531 62.949219 L 41.484375 58.574219 L 45.917969 58.609375 L 45.917969 54.261719 L 54.71875 54.261719 L 54.71875 49.921875 L 59.121094 49.921875 L 59.121094 32.546875 L 50.320312 32.546875 L 50.320312 28.203125 L 37.128906 28.203125 L 37.121094 32.546875 L 45.917969 32.546875 L 45.917969 36.890625 L 37.121094 36.890625 L 37.121094 54.261719 L 41.476562 54.214844 L 41.476562 58.554688 M 10.683594 32.511719 L 15.082031 32.511719 L 15.082031 36.855469 L 10.683594 36.855469 M 50.320312 36.890625 L 54.71875 36.890625 L 54.683594 45.535156 L 50.320312 45.574219 L 50.320312 49.921875 L 41.519531 49.921875 L 41.519531 45.574219 L 45.917969 45.574219 L 45.917969 41.234375 L 50.285156 41.1875 "/></g></svg>
