<svg xmlns="http://www.w3.org/2000/svg" xmlns:xlink="http://www.w3.org/1999/xlink" width="64" height="64" viewBox="0 0 64 64" version="1.1"><defs><linearGradient id="linear0" x1="0%" x2="0%" y1="0%" y2="100%"><stop offset="0%" style="stop-color:#ffd000; stop-opacity:1"/><stop offset="50%" style="stop-color:#24dbdb; stop-opacity:1"/><stop offset="100%" style="stop-color:#0073ff; stop-opacity:1"/></linearGradient></defs><g id="surface1"><path style=" stroke:none;fill-rule:nonzero;fill:url(#linear0);" d="M 11.15625 63.636719 C 10.34375 62.765625 11.519531 61.855469 11.898438 60.402344 C 13.234375 55.242188 16.703125 50.429688 21.996094 46.394531 C 23.332031 45.375 27.023438 43.285156 30.191406 41.746094 C 36.65625 38.613281 38.652344 36.96875 40.449219 33.292969 L 42.863281 25.332031 C 43.203125 26.257812 51.71875 22.613281 55.347656 19.882812 C 58.363281 17.617188 60.625 16.046875 62.570312 11.175781 C 62.570312 11.175781 62.707031 13.882812 62.507812 15.210938 C 61.382812 22.6875 59.035156 31.28125 56.171875 36.980469 C 51.96875 45.335938 47.226562 48.949219 39.03125 50.035156 C 31.210938 51.074219 26.230469 52.429688 21.445312 54.808594 C 16.742188 57.148438 12.945312 60.304688 11.800781 62.820312 C 11.351562 63.796875 11.539062 64.257812 11.15625 63.636719 Z M 11.15625 63.636719 "/><use xlink:href="#surface16"/><path style=" stroke:none;fill-rule:nonzero;fill:url(#linear0);" d="M 8.734375 60.292969 C 4.148438 53.390625 1.378906 46.445312 1.378906 41.820312 C 1.378906 39.03125 2.269531 36.457031 4.027344 34.117188 C 9.972656 26.214844 13.746094 16.519531 13.820312 8.996094 C 13.835938 7.152344 13.894531 5.644531 13.953125 5.644531 C 14.007812 5.644531 14.9375 7.023438 16.015625 8.707031 C 22.039062 18.101562 24.382812 27.34375 22.378906 33.808594 C 21.625 36.234375 20.976562 37.28125 16.835938 42.730469 C 11.84375 49.308594 9.746094 56.515625 11.117188 62.410156 C 11.304688 63.230469 11.414062 63.945312 11.359375 64 C 11.308594 64.050781 10.128906 62.382812 8.734375 60.292969 Z M 8.734375 60.292969 "/></g></svg>
