<svg xmlns="http://www.w3.org/2000/svg" xmlns:xlink="http://www.w3.org/1999/xlink" width="64" height="64" viewBox="0 0 64 64" version="1.1"><defs><linearGradient id="linear0" x1="0%" x2="0%" y1="0%" y2="100%"><stop offset="0%" style="stop-color:#ffd000; stop-opacity:1"/><stop offset="50%" style="stop-color:#24dbdb; stop-opacity:1"/><stop offset="100%" style="stop-color:#0073ff; stop-opacity:1"/></linearGradient></defs><g id="surface1"><path style=" stroke:none;fill-rule:nonzero;fill:url(#linear0);" d="M 30.105469 31.21875 C 30.105469 40.023438 23.660156 47.160156 15.707031 47.160156 C 7.757812 47.160156 1.308594 40.023438 1.308594 31.21875 C 1.308594 22.414062 7.757812 15.277344 15.707031 15.277344 C 23.660156 15.277344 30.105469 22.414062 30.105469 31.21875 Z M 30.105469 31.21875 "/><path style=" stroke:none;fill-rule:nonzero;fill:url(#linear0);" d="M 63.222656 31.21875 C 63.222656 40.023438 56.773438 47.160156 48.824219 47.160156 C 40.871094 47.160156 34.425781 40.023438 34.425781 31.21875 C 34.425781 22.414062 40.871094 15.277344 48.824219 15.277344 C 56.773438 15.277344 63.222656 22.414062 63.222656 31.21875 Z M 63.222656 31.21875 "/></g></svg>
