<svg xmlns="http://www.w3.org/2000/svg" xmlns:xlink="http://www.w3.org/1999/xlink" width="64" height="64" viewBox="0 0 64 64" version="1.1"><defs><linearGradient id="linear0" x1="0%" x2="0%" y1="0%" y2="100%"><stop offset="0%" style="stop-color:#00b6c7; stop-opacity:1"/><stop offset="50%" style="stop-color:#ff0000; stop-opacity:1"/><stop offset="100%" style="stop-color:#6a00ff; stop-opacity:1"/></linearGradient></defs><g id="surface1"><path style=" stroke:none;fill-rule:nonzero;fill:url(#linear0);" d="M 51.355469 1.417969 C 45.648438 1.542969 39.945312 1.609375 34.234375 1.722656 C 25.65625 21.339844 16.894531 40.894531 8.519531 60.574219 C 8.308594 62 10.285156 62.398438 11.503906 62.394531 C 20.222656 62.859375 28.96875 62.804688 37.683594 63.101562 C 38.917969 62.808594 38.636719 61.320312 37.789062 60.773438 C 35.597656 58.253906 32.253906 56.363281 31.109375 53.242188 C 30.925781 50.886719 33.46875 49.402344 35.03125 47.828125 C 36.921875 46.113281 39.464844 44.855469 40.894531 42.769531 C 41.835938 40.519531 39.886719 38.40625 38.824219 36.511719 C 37.53125 34.527344 35.464844 32.363281 36.148438 29.917969 C 37.347656 27.410156 40.355469 26.222656 42.429688 24.371094 C 50.59375 20.144531 44.523438 16.457031 42.496094 10.789062 C 42.625 8.425781 45.40625 7.210938 47.371094 6.054688 C 50.546875 4.445312 53.992188 3.210938 57.085938 1.484375 C 55.179688 1.429688 53.265625 1.378906 51.355469 1.417969 "/></g></svg>
