<svg xmlns="http://www.w3.org/2000/svg" xmlns:xlink="http://www.w3.org/1999/xlink" width="64" height="64" viewBox="0 0 64 64" version="1.1"><defs><linearGradient id="linear0" x1="0%" x2="100%" y1="0%" y2="100%"><stop offset="0%" style="stop-color:#ff0000; stop-opacity:1"/><stop offset="100%" style="stop-color:#6a00ff; stop-opacity:1"/></linearGradient></defs><g id="surface1"><path style=" stroke:none;fill-rule:nonzero;fill:url(#linear0);" d="M 21.660156 2.125 C 19.925781 2.183594 18.269531 3.65625 17.609375 5.710938 L 1.871094 54.878906 C 0.804688 57.71875 1.949219 61.550781 4.222656 62.746094 C 6.496094 63.945312 9.433594 62.261719 10.238281 59.285156 L 12.875 50.632812 L 31.058594 50.632812 L 33.433594 58.253906 C 34.242188 61.246094 37.210938 62.945312 39.492188 61.714844 C 41.765625 60.492188 42.882812 56.59375 41.769531 53.761719 L 25.96875 5.667969 C 25.261719 3.527344 23.472656 2.058594 21.660156 2.125 M 48.527344 19.640625 C 47.269531 19.6875 46.046875 20.75 45.570312 22.242188 L 40.742188 37.359375 C 46.414062 54.878906 40.742188 37.457031 46.410156 54.792969 L 55.320312 54.792969 L 57.054688 60.3125 C 57.640625 62.480469 59.78125 63.714844 61.433594 62.832031 C 63.085938 61.9375 63.878906 59.109375 63.070312 57.058594 L 51.648438 22.230469 C 51.140625 20.6875 49.84375 19.589844 48.527344 19.640625 M 21.855469 21.125 L 27.195312 38.226562 L 16.636719 38.226562 Z M 48.65625 33.40625 L 52.519531 45.808594 L 44.886719 45.808594 Z M 48.65625 33.40625 "/></g></svg>
