<svg xmlns="http://www.w3.org/2000/svg" xmlns:xlink="http://www.w3.org/1999/xlink" width="64" height="64" viewBox="0 0 64 64" version="1.1"><defs><linearGradient id="linear0" x1="100%" x2="0%" y1="100%" y2="0%"><stop offset="0%" style="stop-color:#00b54e; stop-opacity:1"/><stop offset="100%" style="stop-color:#ff0000; stop-opacity:1"/></linearGradient></defs><g id="surface1"><path style=" stroke:none;fill-rule:nonzero;fill:url(#linear0);" d="M 52.5 1.890625 C 51.917969 1.929688 51.402344 2.175781 51.039062 2.648438 L 51.011719 2.671875 L 48.261719 6.316406 L 48.199219 6.386719 L 48.261719 6.460938 L 60.042969 21.933594 L 60.105469 22.011719 L 60.164062 21.933594 L 62.921875 18.3125 C 62.933594 18.292969 62.9375 18.277344 62.945312 18.265625 C 63.605469 17.363281 63.671875 15.886719 63.273438 14.238281 C 62.867188 12.585938 61.992188 10.738281 60.726562 9.078125 L 58.058594 5.5625 C 56.308594 3.269531 54.292969 1.9375 52.753906 1.890625 C 52.667969 1.890625 52.578125 1.890625 52.5 1.890625 M 1.460938 4.675781 L 1.460938 10.84375 L 42.550781 10.84375 C 43.648438 9.386719 44.746094 7.929688 45.839844 6.46875 C 45.925781 5.804688 46.636719 5.886719 46.71875 5.429688 C 46.925781 5.203125 47.117188 4.949219 47.3125 4.675781 L 1.460938 4.675781 M 46.792969 8.230469 L 46.730469 8.308594 L 43.816406 12.144531 L 43.761719 12.222656 L 43.816406 12.308594 L 55.597656 27.773438 L 55.664062 27.851562 L 55.722656 27.773438 L 58.636719 23.9375 L 58.695312 23.863281 L 58.636719 23.78125 L 46.800781 8.230469 M 42.082031 14.425781 L 42.015625 14.5 L 24.246094 37.871094 L 22.046875 40.742188 L 21.496094 41.476562 L 21.472656 41.488281 L 21.472656 41.515625 L 17.03125 59.789062 L 17.027344 59.792969 C 16.863281 60.78125 17.113281 61.871094 17.640625 62.527344 L 17.648438 62.53125 C 18.140625 63.019531 18.785156 63.136719 19.347656 62.84375 L 19.355469 62.84375 L 33.453125 56.996094 L 33.460938 56.992188 L 33.484375 56.964844 L 33.9375 56.359375 L 36.066406 53.578125 L 53.921875 30.132812 L 53.976562 30.054688 L 53.921875 29.96875 L 42.136719 14.503906 L 42.082031 14.429688 M 1.460938 17.023438 L 1.460938 23.191406 L 33.171875 23.191406 C 34.738281 21.128906 36.308594 19.078125 37.878906 17.023438 L 1.460938 17.023438 M 1.460938 29.371094 L 1.460938 35.550781 L 23.785156 35.550781 C 25.335938 33.488281 26.890625 31.425781 28.453125 29.371094 L 1.460938 29.371094 M 1.460938 41.730469 L 1.460938 47.898438 L 18.261719 47.898438 C 18.785156 45.851562 19.304688 43.796875 19.742188 41.730469 L 1.460938 41.730469 M 47.335938 41.730469 C 45.765625 43.78125 44.199219 45.835938 42.636719 47.898438 L 48.464844 47.898438 L 48.464844 41.730469 L 47.335938 41.730469 M 24.652344 44.117188 L 24.664062 44.117188 C 24.675781 44.117188 24.691406 44.117188 24.707031 44.117188 C 24.707031 44.117188 24.707031 44.117188 24.710938 44.117188 L 24.71875 44.117188 C 24.871094 44.117188 25.019531 44.210938 25.128906 44.355469 L 26.144531 45.679688 L 29.960938 45.417969 C 29.960938 45.417969 29.964844 45.417969 29.964844 45.417969 C 30.113281 45.414062 30.273438 45.484375 30.382812 45.617188 C 30.511719 45.769531 30.589844 46 30.582031 46.238281 L 30.386719 51.714844 L 31.128906 52.6875 C 31.273438 52.875 31.34375 53.160156 31.289062 53.433594 C 31.230469 53.691406 31.0625 53.90625 30.863281 53.980469 L 24.214844 56.320312 C 24.015625 56.394531 23.789062 56.320312 23.640625 56.132812 L 22.351562 54.4375 C 22.203125 54.242188 22.136719 53.945312 22.199219 53.675781 L 24.144531 44.6875 C 24.210938 44.390625 24.414062 44.152344 24.652344 44.117188 M 1.460938 54.070312 L 1.460938 60.246094 L 15.5 60.246094 C 15.804688 58.160156 16.234375 56.105469 16.714844 54.070312 L 1.460938 54.070312 "/></g></svg>
