<svg xmlns="http://www.w3.org/2000/svg" xmlns:xlink="http://www.w3.org/1999/xlink" width="64" height="64" viewBox="0 0 64 64" version="1.1"><defs><linearGradient id="linear0" x1="0%" x2="0%" y1="0%" y2="100%"><stop offset="0%" style="stop-color:#ff0000; stop-opacity:1"/><stop offset="50%" style="stop-color:#ffd000; stop-opacity:1"/><stop offset="100%" style="stop-color:#0073ff; stop-opacity:1"/></linearGradient></defs><g id="surface1"><path style=" stroke:none;fill-rule:nonzero;fill:url(#linear0);" d="M 41.492188 8.929688 C 41.40625 8.933594 41.328125 8.972656 41.257812 9.03125 L 33.230469 15.398438 C 33.164062 15.46875 33.109375 15.5625 33.089844 15.660156 C 33.042969 15.820312 33.078125 16 33.183594 16.128906 C 33.210938 16.160156 33.246094 16.199219 33.28125 16.230469 C 33.308594 16.253906 33.34375 16.265625 33.378906 16.28125 L 44.589844 20.371094 L 31.734375 28.296875 C 31.714844 28.3125 31.699219 28.328125 31.6875 28.34375 C 31.492188 28.511719 31.449219 28.804688 31.589844 29.019531 C 31.613281 29.0625 31.644531 29.097656 31.6875 29.125 C 31.742188 29.171875 31.808594 29.210938 31.878906 29.230469 L 39.464844 30.988281 L 33.90625 35.394531 C 33.765625 35.503906 33.683594 35.671875 33.714844 35.855469 C 33.742188 36.046875 33.878906 36.222656 34.058594 36.269531 L 43.769531 39.433594 L 30.8125 46.988281 C 30.78125 47.003906 30.746094 47.023438 30.71875 47.042969 C 30.546875 47.222656 30.519531 47.515625 30.671875 47.714844 C 30.746094 47.804688 30.847656 47.859375 30.964844 47.871094 L 41.976562 50.5625 L 38.355469 54.601562 C 38.203125 54.773438 38.183594 55.03125 38.304688 55.222656 C 38.394531 55.355469 38.542969 55.433594 38.691406 55.433594 L 62.617188 55.433594 C 62.703125 55.4375 62.789062 55.421875 62.863281 55.382812 C 63 55.296875 63.089844 55.140625 63.101562 54.96875 L 63.101562 9.449219 C 63.089844 9.351562 63.0625 9.265625 63.003906 9.1875 C 62.964844 9.101562 62.894531 9.027344 62.8125 8.976562 C 62.753906 8.945312 62.6875 8.933594 62.617188 8.929688 L 41.546875 8.929688 C 41.527344 8.929688 41.511719 8.929688 41.492188 8.929688 Z M 1.480469 8.976562 C 1.421875 9.019531 1.371094 9.070312 1.328125 9.140625 C 1.269531 9.226562 1.234375 9.332031 1.234375 9.449219 L 1.1875 55.015625 C 1.183594 55.15625 1.238281 55.285156 1.328125 55.382812 C 1.421875 55.480469 1.542969 55.542969 1.671875 55.535156 L 28.300781 55.535156 C 28.351562 55.53125 28.402344 55.507812 28.445312 55.488281 C 28.503906 55.464844 28.546875 55.425781 28.59375 55.382812 L 31.394531 52.84375 C 31.574219 52.664062 31.59375 52.375 31.445312 52.171875 C 31.417969 52.128906 31.386719 52.097656 31.347656 52.070312 C 31.300781 52.039062 31.257812 52.023438 31.203125 52.015625 L 17.765625 48.957031 L 32.648438 40.675781 C 32.832031 40.589844 32.953125 40.417969 32.941406 40.207031 C 32.933594 40 32.789062 39.800781 32.605469 39.742188 L 22.796875 36.066406 L 27.527344 32.695312 C 27.589844 32.660156 27.640625 32.605469 27.675781 32.539062 C 27.746094 32.414062 27.769531 32.269531 27.71875 32.128906 C 27.675781 31.988281 27.5625 31.871094 27.433594 31.816406 L 19.890625 28.609375 L 33.039062 21.71875 C 33.234375 21.617188 33.335938 21.378906 33.28125 21.144531 C 33.25 20.984375 33.136719 20.847656 32.992188 20.789062 L 22.9375 17.003906 L 32.070312 9.863281 C 32.265625 9.695312 32.304688 9.402344 32.171875 9.1875 C 32.078125 9.054688 31.933594 8.976562 31.78125 8.976562 L 1.671875 8.976562 C 1.605469 8.964844 1.542969 8.964844 1.480469 8.976562 Z M 1.480469 8.976562 "/></g></svg>
