<svg xmlns="http://www.w3.org/2000/svg" xmlns:xlink="http://www.w3.org/1999/xlink" width="64" height="64" viewBox="0 0 64 64" version="1.1"><defs><linearGradient id="linear0" x1="0%" x2="100%" y1="0%" y2="100%"><stop offset="0%" style="stop-color:#ae00ff; stop-opacity:1"/><stop offset="100%" style="stop-color:#0084ff; stop-opacity:1"/></linearGradient></defs><g id="surface1"><path style=" stroke:none;fill-rule:nonzero;fill:url(#linear0);" d="M 8.71875 5.761719 C 6.378906 5.761719 4.488281 7.691406 4.488281 10.074219 L 4.488281 10.667969 C 3.179688 11.433594 2.375 12.855469 2.367188 14.390625 C 2.375 15.929688 3.179688 17.351562 4.488281 18.117188 L 4.488281 18.710938 C 4.488281 21.09375 6.378906 23.023438 8.71875 23.023438 C 9.464844 23.023438 10.195312 22.8125 10.839844 22.433594 C 11.476562 22.8125 12.210938 23.023438 12.953125 23.023438 C 15.292969 23.023438 17.191406 21.09375 17.191406 18.710938 L 17.191406 18.117188 C 18.492188 17.351562 19.296875 15.929688 19.304688 14.390625 C 19.304688 12.851562 18.5 11.425781 17.191406 10.65625 L 17.191406 10.074219 C 17.191406 7.691406 15.292969 5.761719 12.953125 5.761719 C 12.214844 5.761719 11.484375 5.964844 10.847656 6.34375 C 10.199219 5.964844 9.46875 5.761719 8.71875 5.761719 Z M 10.703125 10.074219 C 12.972656 10.074219 14.808594 12.054688 14.808594 14.5 C 14.808594 16.941406 12.972656 18.917969 10.703125 18.917969 C 8.441406 18.917969 6.605469 16.941406 6.605469 14.5 C 6.605469 12.054688 8.441406 10.074219 10.703125 10.074219 Z M 10.703125 10.074219 "/><path style=" stroke:none;fill-rule:nonzero;fill:url(#linear0);" d="M 53.425781 2.734375 L 43.902344 9.207031 L 47.078125 9.207031 L 47.078125 19.992188 L 51.3125 19.992188 L 51.3125 9.207031 L 55.546875 9.207031 L 55.546875 19.992188 L 59.777344 19.992188 L 59.777344 9.207031 L 62.953125 9.207031 Z M 53.425781 2.734375 "/><path style=" stroke:none;fill-rule:nonzero;fill:url(#linear0);" d="M 53.84375 42.964844 C 51.503906 42.964844 49.613281 45.378906 49.613281 48.355469 C 49.613281 50.277344 50.417969 52.054688 51.726562 53.023438 C 51.726562 56.992188 45.378906 53.769531 45.378906 60.230469 L 62.3125 60.230469 C 62.3125 53.769531 55.964844 56.992188 55.964844 53.023438 C 57.265625 52.054688 58.078125 50.277344 58.078125 48.355469 C 58.078125 45.378906 56.179688 42.964844 53.84375 42.964844 Z M 53.84375 42.964844 "/><path style=" stroke:none;fill-rule:nonzero;fill:url(#linear0);" d="M 10.542969 43.265625 C 9.371094 43.265625 8.425781 45.195312 8.425781 47.585938 L 8.425781 49.742188 L 2.078125 51.898438 C 1.519531 52.085938 1.015625 52.382812 1.015625 52.980469 C 1.015625 53.574219 1.488281 54.058594 2.078125 54.058594 L 8.425781 54.058594 L 8.425781 58.371094 L 7.367188 58.371094 C 6.777344 58.371094 6.304688 58.859375 6.304688 59.453125 C 6.304688 60.054688 6.777344 60.535156 7.367188 60.535156 L 13.71875 60.535156 C 14.304688 60.535156 14.777344 60.054688 14.777344 59.453125 C 14.777344 58.859375 14.304688 58.371094 13.71875 58.371094 L 12.65625 58.371094 L 12.65625 54.058594 L 19.007812 54.058594 C 19.597656 54.058594 20.066406 53.574219 20.066406 52.980469 C 20.066406 52.382812 19.566406 52.085938 19.007812 51.898438 L 12.65625 49.742188 L 12.65625 47.585938 C 12.65625 45.195312 11.714844 43.265625 10.542969 43.265625 Z M 10.542969 43.265625 "/></g></svg>
