<svg xmlns="http://www.w3.org/2000/svg" xmlns:xlink="http://www.w3.org/1999/xlink" width="64" height="64" viewBox="0 0 64 64" version="1.1"><defs><linearGradient id="linear0" x1="0%" x2="100%" y1="0%" y2="100%"><stop offset="0%" style="stop-color:#00b54e; stop-opacity:1"/><stop offset="100%" style="stop-color:#0073ff; stop-opacity:1"/></linearGradient></defs><g id="surface1"><path style=" stroke:none;fill-rule:evenodd;fill:url(#linear0);" d="M 58.671875 34.199219 C 58.667969 34.199219 58.660156 34.199219 58.65625 34.199219 C 58.648438 34.199219 58.648438 34.199219 58.640625 34.199219 C 56.242188 34.199219 52.683594 32.863281 50.871094 31.269531 C 50.820312 31.222656 50.761719 31.171875 50.707031 31.113281 C 50.316406 30.757812 49.882812 30.296875 49.429688 29.792969 C 48.878906 29.160156 48.28125 28.449219 47.667969 27.714844 C 45.179688 24.726562 42.832031 21.914062 40.796875 21.914062 C 39.347656 21.914062 37.683594 22.675781 36.070312 23.410156 C 34.730469 24.023438 33.34375 24.65625 32.4375 24.65625 C 31.542969 24.65625 30.152344 24.023438 28.8125 23.410156 C 27.203125 22.675781 25.535156 21.914062 24.085938 21.914062 C 22.054688 21.914062 19.703125 24.726562 17.214844 27.714844 C 16.746094 28.273438 16.296875 28.816406 15.863281 29.316406 C 15.277344 30 14.730469 30.597656 14.234375 31.0625 C 14.160156 31.136719 14.082031 31.207031 14.011719 31.269531 C 13.195312 31.988281 12.015625 32.660156 10.746094 33.175781 C 9.21875 33.796875 7.550781 34.199219 6.246094 34.199219 C 5.351562 34.199219 4.996094 34 4.90625 33.941406 C 4.296875 33.519531 3.710938 33.304688 3.15625 33.304688 C 2.375 33.304688 1.710938 33.761719 1.433594 34.515625 C 1.082031 35.429688 1.375 36.5625 2.203125 37.539062 C 4.589844 40.347656 9.78125 42.058594 16.605469 42.335938 C 17.261719 42.363281 17.929688 42.378906 18.625 42.378906 C 18.679688 42.378906 18.726562 42.378906 18.789062 42.378906 C 23.855469 42.316406 28.410156 39.308594 31.007812 36.484375 C 31.542969 35.90625 32.234375 35.875 32.371094 35.875 L 32.375 35.875 L 32.398438 35.890625 L 32.496094 35.875 L 32.511719 35.875 C 32.648438 35.875 33.335938 35.90625 33.875 36.484375 C 36.433594 39.261719 40.898438 42.226562 45.875 42.371094 C 46.011719 42.378906 46.136719 42.378906 46.265625 42.378906 C 47.519531 42.378906 48.726562 42.335938 49.878906 42.242188 C 55.910156 41.777344 60.484375 40.125 62.679688 37.539062 C 63.511719 36.5625 63.804688 35.429688 63.457031 34.515625 C 63.175781 33.773438 62.511719 33.304688 61.726562 33.304688 C 61.171875 33.304688 60.585938 33.519531 59.980469 33.941406 C 59.886719 34 59.539062 34.199219 58.671875 34.199219 Z M 46.265625 45.625 C 45.597656 45.625 44.941406 45.578125 44.273438 45.5 L 44.273438 50.511719 C 44.273438 52.09375 45.765625 52.949219 47.832031 52.949219 C 49.890625 52.949219 54.570312 53.371094 56.441406 49.660156 C 57.40625 47.757812 58.027344 45.628906 58.394531 43.839844 C 55.121094 45.003906 51.011719 45.625 46.265625 45.625 Z M 52.632812 28.707031 C 53.925781 29.839844 56.769531 30.914062 58.546875 30.957031 C 58.351562 25.652344 58.128906 19.660156 58.128906 17.679688 C 58.128906 13.96875 58.222656 10.636719 57.195312 10.636719 C 54.570312 10.636719 55.226562 23.5 51.949219 26.679688 C 51.746094 26.882812 51.539062 27.097656 51.320312 27.332031 C 51.816406 27.898438 52.269531 28.386719 52.632812 28.707031 Z M 7.074219 30.894531 C 8.828125 30.640625 11.125 29.699219 12.246094 28.707031 C 12.695312 28.3125 13.285156 27.664062 13.910156 26.933594 C 13.828125 26.847656 13.746094 26.757812 13.664062 26.679688 C 10.382812 23.5 11.046875 10.636719 8.421875 10.636719 C 7.390625 10.636719 7.480469 13.96875 7.480469 17.679688 C 7.480469 19.65625 7.269531 25.601562 7.074219 30.894531 Z M 18.625 45.625 C 14.246094 45.625 10.417969 45.101562 7.273438 44.109375 C 7.65625 45.835938 8.257812 47.851562 9.167969 49.660156 C 11.046875 53.371094 15.722656 52.949219 17.789062 52.949219 C 19.84375 52.949219 21.347656 52.09375 21.347656 50.511719 L 21.347656 45.390625 C 20.433594 45.546875 19.53125 45.625 18.625 45.625 Z M 18.625 45.625 "/></g></svg>
