<svg xmlns="http://www.w3.org/2000/svg" xmlns:xlink="http://www.w3.org/1999/xlink" width="64" height="64" viewBox="0 0 64 64" version="1.1"><defs><linearGradient id="linear0" x1="0%" x2="0%" y1="0%" y2="100%"><stop offset="0%" style="stop-color:#24dbdb; stop-opacity:1"/><stop offset="100%" style="stop-color:#174475; stop-opacity:1"/></linearGradient></defs><g id="surface1"><path style=" stroke:none;fill-rule:nonzero;fill:url(#linear0);" d="M 51.984375 28.316406 C 52.046875 29.976562 51.480469 30.773438 50.96875 32.207031 L 50.054688 32.640625 C 49.300781 34.050781 50.128906 33.53125 49.59375 34.652344 C 48.417969 35.660156 46.035156 37.800781 45.277344 37.996094 C 44.722656 37.984375 45.652344 37.355469 45.78125 37.113281 C 44.207031 38.15625 44.519531 38.679688 42.125 39.3125 L 42.050781 39.152344 C 36.140625 41.847656 27.929688 36.523438 28.039062 29.261719 C 27.976562 29.722656 27.859375 29.605469 27.730469 29.796875 C 27.421875 26.054688 29.511719 22.304688 33.042969 20.765625 C 36.492188 19.125 40.539062 19.796875 43.007812 22.023438 C 41.652344 20.308594 38.945312 18.488281 35.742188 18.652344 C 32.613281 18.703125 29.671875 20.628906 28.699219 22.722656 C 27.089844 23.695312 26.902344 26.484375 26.203125 26.996094 C 25.257812 33.683594 27.976562 36.570312 32.570312 39.972656 C 33.285156 40.441406 32.769531 40.515625 32.867188 40.871094 C 31.339844 40.183594 29.941406 39.144531 28.792969 37.863281 C 29.40625 38.726562 30.0625 39.566406 30.917969 40.222656 C 29.46875 39.75 27.550781 36.855469 26.988281 36.738281 C 29.46875 41.027344 37.054688 44.261719 41.019531 42.65625 C 39.183594 42.71875 36.847656 42.6875 34.789062 41.953125 C 33.917969 41.519531 32.742188 40.632812 32.953125 40.464844 C 38.371094 42.421875 43.964844 41.949219 48.648438 38.3125 C 49.84375 37.414062 51.148438 35.894531 51.523438 35.871094 C 50.957031 36.703125 51.621094 36.269531 51.1875 36.992188 C 52.371094 35.148438 50.667969 36.242188 52.414062 33.800781 L 53.054688 34.65625 C 52.816406 33.125 55.03125 31.253906 54.804688 28.828125 C 55.320312 28.085938 55.371094 29.628906 54.832031 31.339844 C 55.582031 29.4375 55.03125 29.136719 55.21875 27.566406 C 55.429688 28.09375 55.707031 28.65625 55.84375 29.210938 C 55.359375 27.378906 56.347656 26.125 56.589844 25.058594 C 56.347656 24.957031 55.839844 25.871094 55.722656 23.710938 C 55.742188 22.761719 55.992188 23.210938 56.089844 22.980469 C 55.894531 22.875 55.394531 22.152344 55.089844 20.765625 C 55.308594 20.445312 55.679688 21.613281 55.984375 21.660156 C 55.792969 20.5625 55.457031 19.722656 55.445312 18.886719 C 54.558594 17.105469 55.128906 19.117188 54.417969 18.121094 C 53.484375 15.300781 55.195312 17.46875 55.308594 16.1875 C 56.730469 18.171875 57.53125 21.246094 57.910156 22.519531 C 57.625 20.960938 57.164062 19.460938 56.609375 18.003906 C 57.039062 18.179688 55.917969 14.8125 57.164062 17.046875 C 55.828125 12.28125 51.433594 7.839844 47.394531 5.75 C 47.894531 6.1875 48.507812 6.738281 48.285156 6.824219 C 46.277344 5.671875 46.632812 5.578125 46.339844 5.085938 C 44.710938 4.445312 44.59375 5.144531 43.519531 5.09375 C 40.425781 3.511719 39.839844 3.679688 36.996094 2.691406 L 37.128906 3.277344 C 35.078125 2.613281 34.746094 3.515625 32.535156 3.277344 C 32.402344 3.171875 33.242188 2.910156 33.9375 2.8125 C 31.957031 3.0625 32.054688 2.4375 30.117188 2.882812 C 30.597656 2.558594 31.097656 2.34375 31.605469 2.070312 C 30 2.164062 27.761719 2.972656 28.449219 2.238281 C 25.820312 3.367188 21.152344 4.960938 18.527344 7.332031 L 18.453125 6.796875 C 17.246094 8.1875 13.214844 10.949219 12.894531 12.757812 L 12.574219 12.832031 C 11.945312 13.851562 11.546875 15.011719 11.042969 16.058594 C 10.230469 17.40625 9.847656 16.578125 9.96875 16.789062 C 8.351562 19.9375 7.554688 22.578125 6.867188 24.75 C 7.359375 25.457031 6.875 29.015625 7.0625 31.867188 C 6.253906 45.949219 17.296875 59.605469 29.359375 62.765625 C 31.121094 63.378906 33.753906 63.351562 35.988281 63.410156 C 33.355469 62.6875 33.015625 63.03125 30.441406 62.164062 C 28.589844 61.316406 28.1875 60.355469 26.863281 59.257812 L 27.382812 60.144531 C 24.8125 59.261719 25.894531 59.058594 23.796875 58.414062 L 24.347656 57.714844 C 23.519531 57.65625 22.140625 56.351562 21.765625 55.632812 L 20.847656 55.675781 C 19.75 54.367188 19.164062 53.417969 19.207031 52.691406 L 18.914062 53.199219 C 18.582031 52.648438 14.875 48.292969 16.796875 49.308594 C 16.445312 48.992188 15.960938 48.796875 15.449219 47.890625 L 15.847656 47.464844 C 14.917969 46.3125 14.140625 44.839844 14.199219 44.347656 C 14.691406 44.992188 15.039062 45.113281 15.375 45.21875 C 13.035156 39.628906 12.90625 44.917969 11.140625 39.527344 L 11.515625 39.496094 C 11.230469 39.078125 11.046875 38.628906 10.820312 38.179688 L 10.988281 36.617188 C 9.304688 34.746094 10.511719 28.640625 10.757812 25.289062 C 10.925781 23.929688 12.164062 22.480469 13.097656 20.207031 L 12.53125 20.113281 C 13.621094 18.273438 18.777344 12.714844 21.160156 13 C 22.3125 11.59375 20.933594 13 20.703125 12.640625 C 23.246094 10.105469 24.042969 10.851562 25.753906 10.390625 C 27.597656 9.332031 24.167969 10.808594 25.042969 9.988281 C 28.238281 9.203125 27.308594 8.191406 31.480469 7.800781 C 31.914062 8.039062 30.457031 8.167969 30.089844 8.484375 C 32.75 7.230469 38.511719 7.511719 42.253906 9.179688 C 46.597656 11.140625 51.476562 16.929688 51.667969 22.378906 L 51.882812 22.441406 C 51.773438 24.609375 52.230469 27.113281 51.4375 29.410156 L 51.972656 28.328125 "/></g></svg>
