<svg xmlns="http://www.w3.org/2000/svg" xmlns:xlink="http://www.w3.org/1999/xlink" width="64" height="64" viewBox="0 0 64 64" version="1.1"><defs><linearGradient id="linear0" x1="0%" x2="0%" y1="0%" y2="100%"><stop offset="0%" style="stop-color:#00b54e; stop-opacity:1"/><stop offset="50%" style="stop-color:#ffd000; stop-opacity:1"/><stop offset="100%" style="stop-color:#ff00bb; stop-opacity:1"/></linearGradient></defs><g id="surface1"><path style=" stroke:none;fill-rule:nonzero;fill:url(#linear0);" d="M 20.601562 2.21875 L 17.589844 5.140625 C 17.589844 6.757812 18.933594 8.066406 20.601562 8.066406 C 20.601562 8.066406 21.917969 9.761719 22.28125 9.703125 C 11.070312 13.539062 3.554688 23.8125 3.515625 35.433594 C 3.546875 50.097656 15.488281 62.148438 30.640625 62.730469 C 30.980469 62.777344 31.335938 62.804688 31.6875 62.804688 C 32.046875 62.804688 32.394531 62.777344 32.738281 62.730469 C 47.832031 62.183594 59.863281 50.15625 59.863281 35.433594 C 59.835938 23.894531 52.328125 13.597656 41.101562 9.703125 L 40.71875 9.09375 L 41.773438 8.070312 L 42.777344 8.070312 C 44.441406 8.070312 45.792969 6.761719 45.792969 5.144531 C 45.792969 3.53125 44.441406 2.222656 42.777344 2.222656 L 39.765625 5.144531 L 23.691406 5.144531 C 23.691406 3.53125 22.339844 2.222656 20.675781 2.222656 Z M 43.105469 14.769531 C 45.3125 15.933594 47.34375 17.425781 49.070312 19.195312 L 43.707031 19.757812 C 43.707031 18.097656 43.5 16.40625 43.097656 14.765625 Z M 20.199219 14.816406 L 19.03125 21.601562 C 17.179688 20.898438 15.613281 20.074219 14.269531 19.207031 C 16 17.453125 18.007812 15.96875 20.195312 14.816406 Z M 51.542969 22.246094 C 53.855469 25.5625 55.242188 29.421875 55.5625 33.398438 L 45.652344 33.398438 C 45.636719 30.84375 45.542969 28.230469 45.078125 25.402344 C 47.628906 24.496094 49.761719 23.394531 51.527344 22.226562 Z M 11.761719 22.257812 C 13.542969 23.410156 15.660156 24.519531 18.210938 25.417969 L 17.636719 33.40625 L 7.726562 33.40625 C 8.070312 29.414062 9.460938 25.59375 11.769531 22.257812 Z M 7.722656 37.308594 L 17.648438 37.308594 L 18.535156 45.167969 C 18.535156 45.167969 11.804688 48.421875 11.746094 48.460938 C 9.433594 45.144531 8.046875 41.304688 7.707031 37.308594 Z M 45.695312 37.308594 L 55.621094 37.308594 L 51.585938 48.460938 L 44.789062 45.167969 C 45.304688 42.476562 45.589844 39.785156 45.679688 37.308594 Z M 19.375 48.96875 C 19.1875 48.800781 23.152344 57.195312 23.152344 57.195312 C 23.101562 57.289062 16.726562 54.015625 14.230469 51.5 C 15.683594 50.582031 17.363281 49.703125 19.375 48.96875 Z M 43.890625 48.96875 C 45.914062 49.699219 47.582031 50.578125 49.03125 51.5 L 40.109375 57.195312 C 41.164062 55.679688 42.027344 54.015625 42.679688 52.421875 C 43.136719 51.3125 43.535156 50.15625 43.875 48.96875 Z M 43.890625 48.96875 "/></g></svg>
