<svg xmlns="http://www.w3.org/2000/svg" xmlns:xlink="http://www.w3.org/1999/xlink" width="64" height="64" viewBox="0 0 64 64" version="1.1"><defs><linearGradient id="linear0" x1="0%" x2="0%" y1="0%" y2="100%"><stop offset="0%" style="stop-color:#00b6c7; stop-opacity:1"/><stop offset="50%" style="stop-color:#ff0000; stop-opacity:1"/><stop offset="100%" style="stop-color:#6a00ff; stop-opacity:1"/></linearGradient></defs><g id="surface1"><path style=" stroke:none;fill-rule:nonzero;fill:url(#linear0);" d="M 31.597656 0.664062 C 26.695312 0.542969 22.382812 2.28125 19.253906 5.730469 C 16.328125 8.953125 14.324219 13.5625 12.53125 19.390625 C 6.429688 22.324219 1.882812 26.949219 0.925781 34.445312 C 0.734375 35.945312 1.808594 37.316406 3.328125 37.507812 C 4.847656 37.699219 6.230469 36.632812 6.425781 35.136719 C 7.226562 28.875 10.105469 26.28125 15.890625 23.792969 C 16.644531 23.464844 17.214844 22.828125 17.445312 22.042969 C 19.230469 15.957031 21.203125 11.792969 23.386719 9.386719 C 25.570312 6.980469 27.800781 6.046875 31.476562 6.144531 C 31.496094 6.144531 31.523438 6.144531 31.542969 6.144531 C 35.285156 6.152344 37.832031 7.496094 40.140625 10.21875 C 42.449219 12.941406 44.320312 17.171875 45.699219 22.476562 C 45.933594 23.375 46.613281 24.101562 47.507812 24.398438 C 55.113281 26.902344 56.550781 30.460938 57.0625 33.703125 C 53.964844 34.027344 51.449219 35.570312 49.914062 37.5625 C 48.34375 39.597656 47.585938 41.925781 47.03125 44.074219 C 46.25 46.917969 45.476562 47.308594 43.992188 48.074219 C 42.503906 48.839844 39.859375 49.617188 37.839844 52.273438 C 37.820312 52.296875 37.804688 52.324219 37.785156 52.347656 C 35.449219 55.664062 33.292969 57.144531 31.738281 57.265625 C 30.179688 57.382812 27.984375 56.425781 24.933594 52.300781 L 24.96875 52.347656 C 22.605469 49.003906 19.421875 47.792969 17.523438 46.957031 C 16.578125 46.535156 15.972656 46.191406 15.652344 45.886719 C 15.328125 45.582031 15.125 45.328125 14.972656 44.421875 L 14.96875 44.40625 C 14.574219 42.015625 13.601562 40.261719 12.667969 39.132812 C 11.730469 38 10.613281 37.355469 10.613281 37.355469 C 9.265625 36.632812 7.582031 37.125 6.847656 38.453125 C 6.113281 39.78125 6.613281 41.445312 7.957031 42.171875 C 7.957031 42.171875 8 42.152344 8.382812 42.609375 C 8.757812 43.0625 9.257812 43.851562 9.496094 45.296875 C 9.496094 45.300781 9.496094 45.304688 9.496094 45.3125 C 9.8125 47.171875 10.675781 48.769531 11.8125 49.847656 C 12.945312 50.917969 14.183594 51.480469 15.257812 51.960938 C 17.40625 52.910156 18.980469 53.445312 20.417969 55.484375 C 20.429688 55.5 20.441406 55.519531 20.453125 55.539062 C 24.046875 60.390625 27.976562 63.046875 32.164062 62.726562 C 36.328125 62.410156 39.523438 59.441406 42.273438 55.566406 L 42.285156 55.554688 C 43.199219 54.359375 44.433594 54.03125 46.554688 52.933594 C 48.691406 51.832031 51.269531 49.585938 52.386719 45.507812 C 52.390625 45.492188 52.394531 45.476562 52.398438 45.460938 C 52.871094 43.609375 53.507812 41.949219 54.324219 40.886719 C 55.140625 39.828125 55.957031 39.242188 57.746094 39.097656 C 57.753906 39.097656 57.761719 39.097656 57.769531 39.097656 C 59.046875 38.980469 60.472656 38.726562 61.605469 37.480469 C 62.742188 36.242188 62.820312 34.601562 62.648438 33.335938 C 62.03125 28.894531 58.90625 23.128906 50.640625 19.851562 C 49.179688 14.667969 47.285156 10.109375 44.390625 6.699219 C 41.257812 3.003906 36.835938 0.691406 31.597656 0.664062 Z M 25.382812 12.652344 C 22.699219 12.652344 20.53125 14.796875 20.53125 17.449219 C 20.53125 20.097656 22.699219 22.25 25.382812 22.25 C 28.0625 22.25 30.238281 20.097656 30.238281 17.449219 C 30.238281 14.796875 28.0625 12.652344 25.382812 12.652344 Z M 37.320312 12.652344 C 34.640625 12.652344 32.46875 14.796875 32.46875 17.449219 C 32.46875 20.097656 34.640625 22.25 37.320312 22.25 C 40.003906 22.25 42.175781 20.097656 42.175781 17.449219 C 42.175781 14.796875 40.003906 12.652344 37.320312 12.652344 Z M 37.320312 12.652344 "/></g></svg>
