<svg xmlns="http://www.w3.org/2000/svg" xmlns:xlink="http://www.w3.org/1999/xlink" width="64" height="64" viewBox="0 0 64 64" version="1.1"><defs><linearGradient id="linear0" x1="0%" x2="100%" y1="0%" y2="100%"><stop offset="0%" style="stop-color:#e5ff00; stop-opacity:1"/><stop offset="50%" style="stop-color:#0073ff; stop-opacity:1"/><stop offset="100%" style="stop-color:#ff0000; stop-opacity:1"/></linearGradient></defs><g id="surface1"><path style=" stroke:none;fill-rule:nonzero;fill:url(#linear0);" d="M 17.519531 1.394531 C 14.8125 1.394531 12.628906 3.492188 12.628906 6.101562 L 12.628906 57.835938 C 12.628906 60.441406 14.8125 62.535156 17.519531 62.535156 L 46.878906 62.535156 C 49.589844 62.535156 51.773438 60.441406 51.773438 57.835938 L 51.773438 6.101562 C 51.773438 3.492188 49.589844 1.394531 46.878906 1.394531 Z M 18.742188 6.101562 L 45.652344 6.101562 C 46.332031 6.101562 46.878906 6.625 46.878906 7.273438 L 46.878906 33.140625 C 46.878906 33.796875 46.332031 34.320312 45.652344 34.320312 L 18.742188 34.320312 C 18.070312 34.320312 17.519531 33.796875 17.519531 33.140625 L 17.519531 7.273438 C 17.519531 6.625 18.070312 6.101562 18.742188 6.101562 Z M 32.199219 39.019531 C 37.601562 39.019531 41.988281 43.234375 41.988281 48.429688 C 41.988281 53.621094 37.601562 57.835938 32.199219 57.835938 C 26.792969 57.835938 22.414062 53.621094 22.414062 48.429688 C 22.414062 43.234375 26.792969 39.019531 32.199219 39.019531 Z M 32.199219 41.375 C 28.144531 41.375 24.859375 44.53125 24.859375 48.429688 C 24.859375 52.324219 28.144531 55.480469 32.199219 55.480469 C 36.253906 55.480469 39.539062 52.324219 39.539062 48.429688 C 39.539062 44.53125 36.253906 41.375 32.199219 41.375 Z M 32.199219 41.375 "/></g></svg>
