<svg xmlns="http://www.w3.org/2000/svg" xmlns:xlink="http://www.w3.org/1999/xlink" width="64" height="64" viewBox="0 0 64 64" version="1.1"><defs><linearGradient id="linear0" x1="0%" x2="0%" y1="0%" y2="100%"><stop offset="0%" style="stop-color:#00b54e; stop-opacity:1"/><stop offset="50%" style="stop-color:#0073ff; stop-opacity:1"/><stop offset="100%" style="stop-color:#ffd000; stop-opacity:1"/></linearGradient></defs><g id="surface1"><path style=" stroke:none;fill-rule:evenodd;fill:url(#linear0);" d="M 21.582031 5.070312 C 22.023438 5.082031 22.472656 5.09375 22.976562 5.121094 C 24.453125 5.375 25.839844 5.9375 27.261719 6.355469 C 29.464844 7.0625 31.578125 8.277344 32.492188 10.125 C 32.722656 10.535156 33.714844 11.867188 34.230469 12.46875 C 35.203125 13.402344 36.425781 14.160156 37.667969 14.835938 C 39.199219 15.585938 40.445312 16.578125 41.949219 18.234375 C 43.476562 19.957031 43.605469 21.457031 44.363281 23.398438 C 45.53125 24.421875 46.449219 23.019531 46.160156 22.035156 C 45.441406 19.65625 44.160156 17.511719 44.339844 14.988281 C 44.777344 11.667969 46.4375 7.226562 51.226562 6.972656 C 52.292969 6.972656 52.597656 7.117188 53.796875 8.007812 C 54.59375 8.609375 55.132812 8.816406 56.445312 9.089844 C 58.023438 9.40625 59.695312 9.183594 61.167969 9.75 C 61.875 10.09375 62.722656 11.128906 62.914062 11.878906 C 63.0625 12.496094 62.695312 13.109375 61.945312 13.441406 C 60.4375 14.027344 57.878906 13.589844 57.550781 15.320312 C 58.0625 17.152344 59.449219 18.417969 59.371094 20.246094 C 59.476562 22.242188 59.164062 23.894531 58.996094 25.851562 C 58.78125 28.253906 56.675781 29.523438 55.21875 31.527344 C 53.023438 33.835938 49.128906 36.25 45.382812 35.308594 C 44.078125 34.957031 43.566406 35.019531 43.078125 35.589844 C 42.746094 35.980469 42.703125 36.34375 42.886719 37.203125 C 43.121094 38.261719 43.117188 40.257812 42.886719 41.375 C 42.722656 42.210938 42.59375 43.476562 42.59375 44.179688 C 42.59375 44.761719 42.453125 45.488281 42.273438 46.085938 C 42.152344 46.476562 42.132812 46.878906 42.089844 48.203125 C 42.054688 49.09375 42 49.972656 41.949219 50.144531 C 41.804688 50.753906 41.835938 51.242188 42.167969 53.125 C 42.308594 53.925781 42.796875 55.382812 43.132812 55.996094 C 43.3125 56.332031 43.777344 57.109375 44.175781 57.742188 C 44.210938 57.796875 44.234375 57.832031 44.257812 57.875 C 44.085938 57.863281 43.890625 57.863281 43.71875 57.847656 C 42.386719 57.785156 41.136719 57.695312 39.882812 57.609375 C 40.28125 57.628906 40.675781 57.648438 41.066406 57.675781 C 40.871094 56.882812 40.675781 56.039062 40.636719 55.445312 C 40.601562 54.890625 40.507812 54.253906 40.398438 53.808594 C 40.292969 53.414062 40.191406 52.75 40.152344 52.332031 C 40.058594 51.355469 39.96875 51.074219 39.402344 50.078125 C 39.148438 49.628906 38.855469 49.035156 38.753906 48.757812 C 38.585938 48.269531 38.585938 48.171875 38.605469 46.746094 C 38.609375 45.445312 38.574219 45.183594 38.441406 44.492188 C 38.160156 43.128906 38.042969 42.71875 37.503906 41.824219 C 36.773438 40.597656 36.710938 40.410156 36.644531 39.300781 C 36.5625 38.007812 36.304688 37.335938 35.765625 36.871094 C 35.457031 36.613281 35.1875 36.476562 34.6875 36.429688 C 34.523438 36.417969 34.320312 36.429688 34.097656 36.429688 C 33.152344 36.429688 32.726562 36.539062 32.4375 36.851562 C 32.167969 37.148438 32.132812 37.511719 32.351562 38.308594 C 32.457031 38.667969 32.582031 39.316406 32.621094 39.746094 C 32.722656 40.683594 32.917969 41.222656 33.429688 41.976562 C 34.082031 42.921875 34.097656 43.011719 34.097656 44.605469 C 34.097656 45.882812 34.082031 46.011719 33.933594 46.390625 C 33.84375 46.613281 33.675781 46.925781 33.535156 47.074219 C 33.234375 47.417969 32.328125 48.054688 31.363281 48.621094 C 30.4375 49.167969 29.375 50.019531 28.738281 50.714844 C 28.0625 51.457031 27.09375 52.1875 26.96875 53.148438 C 26.96875 53.851562 27.457031 54.734375 28.175781 55.316406 C 28.539062 55.609375 28.792969 55.753906 29.511719 56.042969 C 30.511719 56.445312 30.886719 56.703125 30.964844 57.035156 C 30.988281 57.167969 30.929688 57.257812 30.886719 57.367188 C 29.105469 57.367188 27.433594 57.390625 25.839844 57.4375 C 25.53125 57.246094 25.285156 57.003906 25.089844 56.660156 C 24.820312 56.191406 24.613281 55.953125 24.34375 55.976562 C 24.074219 55.996094 23.757812 56.28125 23.355469 56.792969 C 23.074219 57.136719 22.816406 57.390625 22.546875 57.570312 C 21.941406 57.59375 21.328125 57.621094 20.75 57.652344 C 20.425781 57.398438 20.195312 56.960938 20.082031 56.300781 C 20.007812 55.917969 20.015625 55.742188 20.105469 55.289062 C 20.324219 54.269531 20.621094 53.863281 21.503906 53.261719 C 21.800781 53.054688 22.121094 52.785156 22.226562 52.660156 C 22.488281 52.332031 22.578125 51.894531 22.460938 51.472656 C 22.332031 50.953125 21.722656 50.039062 21.019531 49.265625 C 20.390625 48.566406 20.054688 48.128906 19.542969 47.320312 C 19.351562 47.015625 19.066406 46.71875 18.632812 46.34375 C 18.285156 46.054688 17.898438 45.640625 17.769531 45.445312 L 17.554688 45.089844 L 17.554688 43.082031 C 17.566406 41.644531 17.464844 40.261719 17.242188 38.835938 C 17.046875 37.136719 16.316406 35.800781 15.304688 34.332031 C 14.734375 33.355469 14.464844 33.074219 13.96875 33.074219 C 13.308594 33.074219 12.910156 33.679688 12.710938 34.949219 C 12.484375 36.203125 11.746094 37.269531 11.292969 38.46875 C 11.007812 39.316406 10.808594 39.695312 10.164062 40.757812 C 9.554688 41.777344 9.03125 42.898438 8.878906 43.589844 C 8.796875 43.953125 8.773438 44.457031 8.773438 45.503906 C 8.773438 47.0625 8.707031 47.679688 8.476562 48.472656 C 8.296875 49.070312 8.21875 50.800781 8.289062 51.960938 C 8.328125 52.636719 8.347656 52.726562 8.796875 53.808594 C 9.457031 55.410156 9.601562 55.875 9.730469 56.683594 C 9.855469 57.457031 9.941406 57.652344 10.378906 58.429688 C 10.445312 58.535156 10.46875 58.636719 10.507812 58.742188 C 8.925781 58.996094 7.503906 59.269531 6.167969 59.554688 C 6.132812 59.496094 6.085938 59.4375 6.0625 59.378906 C 5.898438 58.757812 6.132812 58.128906 6.085938 57.5 C 5.976562 57.363281 6.234375 56.359375 6.652344 55.292969 C 7.320312 53.59375 7.371094 53.324219 7.027344 52.179688 C 6.964844 51.984375 6.875 51.316406 6.835938 50.695312 C 6.769531 49.511719 6.707031 49.21875 6.332031 48.445312 C 5.996094 47.757812 5.898438 47.449219 5.847656 46.746094 C 5.792969 45.921875 5.914062 45.445312 6.273438 44.734375 C 6.640625 44.03125 6.679688 43.71875 6.515625 42.972656 C 6.335938 42.15625 6.335938 40.261719 6.515625 39.65625 C 6.695312 39.050781 6.785156 36.867188 6.761719 34.070312 L 6.386719 30.648438 C 5.808594 28.789062 5.457031 28.125 4.996094 28.125 C 4.570312 28.125 4.171875 28.703125 3.890625 29.738281 C 3.722656 30.707031 3.8125 31.699219 3.597656 32.660156 C 3.324219 33.984375 3.761719 35.304688 4.585938 36.457031 C 5.085938 37.164062 5.246094 37.675781 5.125 38.042969 C 5.023438 38.339844 4.660156 38.667969 4.371094 38.730469 C 4.25 38.757812 4.097656 38.714844 3.917969 38.640625 C 3.703125 38.546875 3.472656 38.324219 2.714844 37.382812 C 2.195312 36.746094 1.695312 36.066406 1.617188 35.878906 C 0.898438 33.304688 0.871094 31.402344 1.261719 28.859375 C 1.261719 27.203125 1.542969 26.585938 2.929688 25.351562 C 5.515625 22.6875 7.015625 20.351562 8.503906 17.222656 C 9.015625 16.515625 9.765625 15.667969 10.320312 15.140625 C 11.203125 14.328125 11.726562 13.53125 12.195312 12.316406 C 12.890625 10.875 13.480469 9.175781 14.507812 7.921875 C 15.46875 7.035156 16.367188 6.054688 17.78125 5.601562 C 19.109375 5.082031 20.25 5.035156 21.582031 5.070312 M 23.023438 35.683594 C 22.921875 35.683594 22.820312 35.738281 22.707031 35.8125 C 22.382812 36.027344 22.300781 36.269531 22.121094 37.890625 C 22.023438 38.734375 21.902344 39.796875 21.828125 40.246094 C 21.484375 42.257812 21.429688 42.886719 21.523438 43.5625 C 21.582031 43.914062 21.632812 44.632812 21.664062 45.15625 C 21.753906 46.613281 22.007812 47.269531 22.976562 48.644531 C 23.269531 49.0625 23.628906 49.605469 23.773438 49.855469 C 24.074219 50.363281 24.382812 50.695312 24.691406 50.832031 C 24.992188 50.957031 25.390625 50.9375 25.789062 50.765625 C 26.328125 50.53125 27.328125 49.898438 27.800781 49.480469 C 28.304688 49.042969 28.523438 48.808594 29.113281 47.933594 C 29.78125 46.953125 29.863281 46.746094 29.863281 46.300781 C 29.863281 45.726562 29.613281 45.296875 28.929688 44.753906 C 28.625 44.519531 27.980469 43.996094 27.507812 43.582031 C 26.519531 42.742188 26.492188 42.703125 26.238281 41.511719 C 26.019531 40.429688 26.015625 40.410156 25.089844 39.300781 C 24.761719 38.90625 24.601562 38.546875 24.207031 37.316406 C 23.84375 36.179688 23.679688 35.894531 23.375 35.769531 C 23.230469 35.710938 23.128906 35.679688 23.023438 35.683594 "/></g></svg>
