<svg xmlns="http://www.w3.org/2000/svg" xmlns:xlink="http://www.w3.org/1999/xlink" width="64" height="64" viewBox="0 0 64 64" version="1.1"><defs><linearGradient id="linear0" x1="0%" x2="0%" y1="0%" y2="100%"><stop offset="0%" style="stop-color:#00b54e; stop-opacity:1"/><stop offset="50%" style="stop-color:#0073ff; stop-opacity:1"/><stop offset="100%" style="stop-color:#ffd000; stop-opacity:1"/></linearGradient></defs><g id="surface1"><path style=" stroke:none;fill-rule:nonzero;fill:url(#linear0);" d="M 6.386719 1.921875 C 3.578125 1.921875 1.3125 4.164062 1.3125 6.953125 L 1.3125 17.019531 L 6.386719 17.019531 L 6.386719 6.953125 L 16.53125 6.953125 L 16.53125 1.921875 Z M 46.964844 1.921875 L 46.964844 6.953125 L 57.109375 6.953125 L 57.109375 17.019531 L 62.183594 17.019531 L 62.183594 6.953125 C 62.183594 4.164062 59.917969 1.921875 57.109375 1.921875 Z M 1.3125 47.222656 L 1.3125 57.289062 C 1.3125 60.078125 3.578125 62.320312 6.386719 62.320312 L 16.53125 62.320312 L 16.53125 57.289062 L 6.386719 57.289062 L 6.386719 47.222656 Z M 36.820312 47.222656 L 36.820312 52.253906 L 41.890625 52.253906 L 41.890625 47.222656 Z M 46.964844 47.222656 L 46.964844 52.253906 L 52.035156 52.253906 L 52.035156 47.222656 Z M 57.109375 47.222656 L 57.109375 57.289062 L 46.964844 57.289062 L 46.964844 62.320312 L 57.109375 62.320312 C 59.917969 62.320312 62.183594 60.078125 62.183594 57.289062 L 62.183594 47.222656 Z M 57.109375 47.222656 "/><path style=" stroke:none;fill-rule:nonzero;fill:url(#linear0);" d="M 9.773438 13.59375 L 9.773438 16.816406 L 12.882812 16.816406 L 12.882812 24.871094 L 9.773438 24.871094 L 9.773438 28.097656 L 22.230469 28.097656 L 22.230469 21.652344 L 19.121094 21.652344 L 19.121094 24.871094 L 16 24.871094 L 16 16.816406 L 19.121094 16.816406 L 19.121094 13.59375 Z M 25.347656 13.59375 L 25.347656 16.816406 L 28.46875 16.816406 L 28.46875 13.59375 Z M 31.578125 13.59375 L 31.578125 16.816406 L 34.695312 16.816406 L 34.695312 13.59375 Z M 31.578125 13.59375 "/><path style=" stroke:none;fill-rule:nonzero;fill:url(#linear0);" d="M 41.238281 26.609375 L 41.238281 28.21875 L 50.585938 28.21875 L 50.585938 26.609375 Z M 41.238281 29.835938 L 41.238281 31.445312 L 50.585938 31.445312 L 50.585938 29.835938 Z M 41.238281 33.054688 L 41.238281 34.671875 L 50.585938 34.671875 L 50.585938 33.054688 Z M 25.65625 37.890625 L 25.65625 39.503906 L 50.585938 39.503906 L 50.585938 37.890625 Z M 25.65625 41.117188 L 25.65625 42.726562 L 38.121094 42.726562 L 38.121094 41.117188 Z M 25.65625 44.339844 L 25.65625 45.949219 L 38.121094 45.949219 L 38.121094 44.339844 Z M 25.65625 44.339844 "/></g></svg>
