<svg xmlns="http://www.w3.org/2000/svg" xmlns:xlink="http://www.w3.org/1999/xlink" width="64" height="64" viewBox="0 0 64 64" version="1.1"><defs><linearGradient id="linear0" x1="0%" x2="0%" y1="0%" y2="100%"><stop offset="0%" style="stop-color:#24dbdb; stop-opacity:1"/><stop offset="100%" style="stop-color:#174475; stop-opacity:1"/></linearGradient></defs><g id="surface1"><path style=" stroke:none;fill-rule:nonzero;fill:url(#linear0);" d="M 32.394531 2.617188 C 28.515625 2.617188 25.371094 5.960938 25.371094 10.089844 C 25.371094 14.214844 28.515625 17.558594 32.394531 17.558594 C 36.269531 17.558594 39.414062 14.214844 39.414062 10.089844 C 39.414062 5.960938 36.269531 2.617188 32.394531 2.617188 Z M 11.332031 25.03125 L 32.394531 62.398438 L 53.453125 25.03125 Z M 8.992188 42.46875 C 5.113281 42.46875 1.972656 45.820312 1.972656 49.945312 C 1.972656 54.074219 5.113281 57.417969 8.992188 57.417969 C 12.871094 57.417969 16.011719 54.074219 16.011719 49.945312 C 16.011719 45.820312 12.871094 42.46875 8.992188 42.46875 Z M 55.792969 42.46875 C 51.917969 42.46875 48.773438 45.820312 48.773438 49.945312 C 48.773438 54.074219 51.917969 57.417969 55.792969 57.417969 C 59.667969 57.417969 62.8125 54.074219 62.8125 49.945312 C 62.8125 45.820312 59.667969 42.46875 55.792969 42.46875 Z M 55.792969 42.46875 "/></g></svg>
