<svg xmlns="http://www.w3.org/2000/svg" xmlns:xlink="http://www.w3.org/1999/xlink" width="64" height="64" viewBox="0 0 64 64" version="1.1"><defs><linearGradient id="linear0" x1="0%" x2="100%" y1="0%" y2="100%"><stop offset="0%" style="stop-color:#00b54e; stop-opacity:1"/><stop offset="100%" style="stop-color:#0073ff; stop-opacity:1"/></linearGradient></defs><g id="surface1"><path style=" stroke:none;fill-rule:nonzero;fill:url(#linear0);" d="M 1.253906 1.820312 L 19.722656 1.820312 L 19.722656 20.175781 L 1.253906 20.175781 Z M 1.253906 1.820312 "/><path style=" stroke:none;fill-rule:nonzero;fill:url(#linear0);" d="M 35.128906 1.820312 L 53.597656 1.820312 L 53.597656 20.175781 L 35.128906 20.175781 Z M 35.128906 1.820312 "/><path style=" stroke:none;fill-rule:nonzero;fill:url(#linear0);" d="M 1.253906 23.238281 L 19.722656 23.238281 L 19.722656 41.582031 L 1.253906 41.582031 Z M 1.253906 23.238281 "/><path style=" stroke:none;fill-rule:nonzero;fill:url(#linear0);" d="M 22.800781 23.238281 L 41.285156 23.238281 L 41.285156 41.582031 L 22.800781 41.582031 Z M 22.800781 23.238281 "/><path style=" stroke:none;fill-rule:nonzero;fill:url(#linear0);" d="M 44.359375 23.238281 L 62.84375 23.238281 L 62.84375 41.582031 L 44.359375 41.582031 Z M 44.359375 23.238281 "/><path style=" stroke:none;fill-rule:nonzero;fill:url(#linear0);" d="M 1.253906 44.640625 L 19.722656 44.640625 L 19.722656 62.996094 L 1.253906 62.996094 Z M 1.253906 44.640625 "/><path style=" stroke:none;fill-rule:nonzero;fill:url(#linear0);" d="M 22.800781 44.640625 L 41.285156 44.640625 L 41.285156 62.996094 L 22.800781 62.996094 Z M 22.800781 44.640625 "/><path style=" stroke:none;fill-rule:nonzero;fill:url(#linear0);" d="M 44.359375 44.640625 L 62.84375 44.640625 L 62.84375 62.996094 L 44.359375 62.996094 Z M 44.359375 44.640625 "/></g></svg>
