<svg xmlns="http://www.w3.org/2000/svg" xmlns:xlink="http://www.w3.org/1999/xlink" width="64" height="64" viewBox="0 0 64 64" version="1.1"><defs><linearGradient id="linear0" x1="0%" x2="0%" y1="0%" y2="100%"><stop offset="0%" style="stop-color:#ffd000; stop-opacity:1"/><stop offset="50%" style="stop-color:#24dbdb; stop-opacity:1"/><stop offset="100%" style="stop-color:#0073ff; stop-opacity:1"/></linearGradient></defs><g id="surface1"><path style=" stroke:none;fill-rule:nonzero;fill:url(#linear0);" d="M 5.773438 1.214844 L 1.054688 12.964844 L 1.054688 52.902344 L 17.566406 52.902344 L 17.566406 62.300781 L 27.003906 62.300781 L 36.429688 52.902344 L 45.871094 52.902344 L 62.382812 36.453125 L 62.382812 1.214844 Z M 10.488281 5.917969 L 57.664062 5.917969 L 57.664062 36.453125 L 48.226562 45.855469 L 31.714844 45.855469 L 24.636719 52.902344 L 24.636719 45.855469 L 10.488281 45.855469 Z M 10.488281 5.917969 "/><path style=" stroke:none;fill-rule:nonzero;fill:url(#linear0);" d="M 31.28125 8.269531 C 29.109375 8.269531 26.644531 8.855469 24.03125 10.105469 C 16.675781 13.621094 16.496094 20.894531 17.566406 36.453125 C 17.820312 39.757812 15.957031 42.21875 13.210938 45.855469 L 15.207031 48.199219 L 17.398438 45.855469 C 17.71875 45.25 18.066406 44.65625 18.464844 44.09375 C 20.027344 41.898438 20.042969 41.777344 20.042969 40.320312 C 20.089844 37.617188 20.179688 36.460938 21.105469 35.46875 C 20.628906 34.882812 20.054688 34.238281 20.027344 33.535156 C 19.980469 32.285156 20.8125 31.644531 21.902344 30.816406 C 21.011719 29.808594 19.921875 28.664062 19.921875 26.355469 C 19.921875 23.445312 21.339844 21.078125 23.136719 21.078125 C 24.925781 21.078125 27.195312 23.046875 27.195312 25.964844 C 27.195312 26.574219 27.046875 27.191406 26.863281 27.777344 C 28.078125 27.53125 29.425781 27.382812 30.800781 27.636719 C 30.664062 27.125 30.601562 26.609375 30.601562 26.078125 C 30.601562 22.902344 32.910156 20.003906 35.765625 20.015625 C 38.613281 20.019531 40.925781 22.90625 40.925781 26.078125 C 40.925781 27.847656 40.195312 29.507812 38.945312 30.597656 C 39.90625 31.035156 40.601562 31.597656 40.527344 32.546875 C 40.449219 33.652344 39.949219 34.875 39.5625 35.515625 C 40.292969 36.414062 40.601562 37.710938 42.128906 39.960938 C 43.519531 41.957031 43.945312 43.601562 44.765625 45.859375 L 49.644531 47.03125 L 52.859375 41.246094 C 50.882812 38.527344 49.285156 35.679688 48.492188 31.65625 C 46.753906 22.847656 49.425781 20.445312 43.726562 13.015625 C 40.710938 9.09375 35.082031 8.257812 31.28125 8.269531 M 35.589844 23.824219 C 34.109375 23.828125 32.910156 25.1875 32.910156 26.875 C 32.910156 27.539062 33.101562 28.179688 33.449219 28.710938 C 33.925781 28.988281 34.386719 29.210938 34.886719 29.347656 C 35.378906 29.492188 35.875 29.648438 36.402344 29.785156 C 37.523438 29.382812 38.28125 28.199219 38.285156 26.875 C 38.285156 25.1875 37.078125 23.824219 35.589844 23.824219 Z M 23.242188 23.976562 C 23.179688 23.976562 23.101562 23.976562 23.039062 23.980469 C 21.929688 24.09375 21.1875 25.546875 21.371094 27.226562 C 21.511719 28.496094 22.148438 29.582031 22.980469 29.933594 C 23.628906 29.390625 24.464844 28.679688 25.285156 28.242188 C 25.390625 27.789062 25.417969 27.300781 25.371094 26.808594 C 25.203125 25.246094 24.289062 24.027344 23.253906 23.976562 Z M 23.242188 23.976562 "/></g></svg>
