<svg xmlns="http://www.w3.org/2000/svg" xmlns:xlink="http://www.w3.org/1999/xlink" width="64" height="64" viewBox="0 0 64 64" version="1.1"><defs><linearGradient id="linear0" x1="0%" x2="100%" y1="0%" y2="100%"><stop offset="0%" style="stop-color:#e5ff00; stop-opacity:1"/><stop offset="50%" style="stop-color:#0073ff; stop-opacity:1"/><stop offset="100%" style="stop-color:#ff0000; stop-opacity:1"/></linearGradient></defs><g id="surface1"><path style=" stroke:none;fill-rule:nonzero;fill:url(#linear0);" d="M 33.007812 1.339844 C 21.121094 1.339844 10.671875 9.0625 7.585938 20.34375 C 5.59375 27.636719 6.214844 35.464844 10.441406 41.125 C 11.484375 42.523438 13.484375 42.824219 14.910156 41.800781 C 16.335938 40.773438 16.644531 38.8125 15.597656 37.417969 C 12.941406 33.859375 12.171875 27.796875 13.761719 21.972656 C 16.101562 13.402344 23.921875 7.613281 33.007812 7.613281 C 41.460938 7.613281 48.25 11.929688 50.960938 20.042969 C 53.332031 28.824219 51.023438 33.753906 47.21875 37.441406 C 45.023438 39.570312 42.449219 39.960938 39.410156 39.359375 C 36.363281 38.757812 33.121094 36.941406 31.023438 34.980469 C 30.226562 34.238281 29.09375 33.949219 28.03125 34.21875 C 26.964844 34.480469 26.113281 35.265625 25.777344 36.289062 L 18.722656 57.714844 C 18.414062 58.648438 18.570312 59.671875 19.148438 60.480469 C 19.722656 61.285156 20.644531 61.777344 21.644531 61.816406 L 44.605469 62.648438 C 45.75 62.6875 46.828125 62.125 47.433594 61.171875 C 48.039062 60.21875 48.078125 59.023438 47.539062 58.03125 C 46.265625 55.695312 46.644531 52.464844 46.992188 51.203125 C 47.453125 49.53125 46.449219 47.808594 44.746094 47.355469 C 43.042969 46.902344 41.285156 47.890625 40.820312 49.5625 C 40.414062 51.042969 40.050781 53.488281 40.421875 56.21875 L 26.105469 55.703125 L 30.515625 42.304688 C 32.824219 43.734375 35.335938 44.949219 38.144531 45.507812 C 42.648438 46.394531 47.863281 45.636719 51.710938 41.902344 C 56.867188 36.90625 60.007812 28.886719 57.125 18.328125 C 57.113281 18.28125 57.09375 18.226562 57.078125 18.175781 C 53.570312 7.5625 43.859375 1.339844 33.007812 1.339844 Z M 33.007812 1.339844 "/></g></svg>
