<svg xmlns="http://www.w3.org/2000/svg" xmlns:xlink="http://www.w3.org/1999/xlink" width="64" height="64" viewBox="0 0 64 64" version="1.1"><defs><linearGradient id="linear0" x1="0%" x2="0%" y1="0%" y2="100%"><stop offset="0%" style="stop-color:#ffd000; stop-opacity:1"/><stop offset="50%" style="stop-color:#24dbdb; stop-opacity:1"/><stop offset="100%" style="stop-color:#0073ff; stop-opacity:1"/></linearGradient></defs><g id="surface1"><path style=" stroke:none;fill-rule:nonzero;fill:url(#linear0);" d="M 11.992188 3.101562 C 11.992188 3.101562 0.894531 10.082031 0.894531 18.226562 C 0.894531 21.019531 3.195312 24.042969 6.441406 24.042969 C 11.324219 24.042969 15.1875 21.28125 19.484375 18.757812 C 13.621094 22.949219 9.769531 30.003906 9.769531 38.003906 C 9.769531 50.847656 19.703125 61.261719 31.960938 61.261719 C 44.214844 61.261719 54.148438 50.847656 54.148438 38.003906 C 54.148438 30.003906 50.296875 22.949219 44.433594 18.757812 C 48.730469 21.28125 52.597656 24.042969 57.476562 24.042969 C 60.722656 24.042969 63.023438 21.019531 63.023438 18.226562 C 63.023438 10.082031 51.929688 3.101562 51.929688 3.101562 C 51.929688 3.101562 59.003906 17.0625 55.257812 17.0625 C 51.40625 17.0625 43.054688 7.757812 31.960938 7.757812 C 20.867188 7.757812 12.515625 17.0625 8.664062 17.0625 C 4.917969 17.0625 11.992188 3.101562 11.992188 3.101562 Z M 11.992188 3.101562 "/><path style=" stroke:none;fill-rule:nonzero;fill:url(#linear0);fill-opacity:1;" d="M 28.917969 22.503906 C 27.859375 22.671875 26.824219 22.960938 25.828125 23.355469 C 25.269531 23.742188 24.878906 24.296875 24.847656 25.144531 C 25.832031 25.777344 27.082031 24.152344 28.003906 23.597656 C 28.304688 23.304688 28.628906 22.867188 28.917969 22.503906 Z M 32.191406 22.53125 C 30.386719 22.898438 33.242188 23.035156 32.191406 22.53125 Z M 35.628906 22.964844 C 34.929688 23.179688 35.414062 24.460938 35.617188 23.324219 C 35.785156 23.277344 36.191406 23.226562 36.167969 23.152344 C 36.035156 23.101562 35.898438 23.050781 35.765625 23.003906 L 35.753906 22.996094 L 35.742188 22.996094 C 35.703125 22.980469 35.664062 22.972656 35.628906 22.964844 Z M 37.597656 23.742188 C 36.808594 23.90625 34.847656 24.554688 34.902344 24.546875 C 35.253906 24.488281 34.191406 24.546875 33.835938 24.5625 C 34.425781 23.871094 32.300781 23.789062 31.765625 24.40625 C 30.726562 24.578125 30.769531 26.464844 31.808594 26.03125 C 31.929688 25.453125 32.394531 24.160156 32.535156 25.445312 C 33.691406 25.789062 31.722656 27.105469 31.0625 26.464844 C 30.28125 26.804688 29.609375 27.96875 29.359375 28.433594 C 27.835938 29.207031 30.019531 30.539062 30.179688 28.710938 C 30.96875 27.722656 32.617188 30.257812 31.71875 28.648438 C 31.496094 27.488281 32.777344 30.71875 33.210938 28.90625 C 33.421875 28.25 33.824219 27.929688 34.210938 28.171875 C 35.183594 27.902344 34.828125 29.757812 33.882812 28.847656 C 32.695312 29.292969 34.1875 30.101562 34.390625 30.074219 C 33.816406 31.261719 31.695312 30.882812 31.164062 29.890625 C 29.402344 29.324219 27.882812 31.261719 27.613281 32.886719 C 27.132812 34.71875 28.644531 35.980469 30.3125 35.527344 C 32.023438 36.089844 31.257812 38.730469 31.566406 40.203125 C 31.429688 41.566406 32.757812 43.8125 33.882812 41.890625 C 34.414062 40.636719 35.25 39.390625 35.136719 37.941406 C 34.769531 36.554688 37.792969 34.894531 35.585938 34.152344 C 35.0625 33.53125 33.988281 31.886719 34.519531 31.589844 C 34.984375 32.75 35.929688 34.929688 37.261719 33.269531 C 38.445312 32.421875 35.507812 31.148438 36.5 31.203125 C 37.640625 31.898438 39.398438 31.769531 39.632812 33.597656 C 39.875 34.324219 40.324219 35.304688 40.484375 34.007812 C 40.75 32.089844 42.644531 32.378906 43.097656 34.011719 C 43.6875 35.3125 44.964844 34.398438 44.164062 33.332031 C 43.464844 32.296875 45.175781 33.167969 45.101562 31.910156 C 45.128906 31.839844 45.128906 31.78125 45.15625 31.71875 C 43.683594 28.1875 40.988281 25.347656 37.597656 23.742188 Z M 23.765625 24.386719 C 23.550781 24.511719 23.332031 24.636719 23.121094 24.769531 C 22.859375 25.09375 22.859375 25.398438 23.367188 24.738281 C 23.417969 24.492188 23.953125 24.726562 23.765625 24.386719 Z M 28.417969 24.644531 C 26.71875 24.691406 29.195312 25.542969 28.417969 24.644531 Z M 22.367188 25.324219 C 21.503906 25.972656 20.71875 26.707031 20.011719 27.527344 C 20.015625 27.550781 20.003906 27.570312 20.011719 27.589844 C 20.078125 28.195312 20.4375 29.109375 19.558594 28.390625 C 19.445312 28.460938 19.199219 28.664062 19.011719 28.8125 C 18.511719 29.535156 18.078125 30.296875 17.703125 31.09375 C 17.855469 31.054688 17.960938 31.039062 18.171875 30.964844 C 19.230469 30.550781 19.265625 32.289062 19.621094 30.847656 C 20.070312 29.207031 21.933594 28.933594 22.5625 27.421875 C 22.832031 26.78125 23.820312 28.695312 23.765625 27.167969 C 23.488281 26.421875 22.804688 25.957031 22.367188 25.324219 Z M 29.628906 25.851562 C 28.878906 26.613281 30.386719 27.886719 29.960938 26.441406 C 29.851562 26.246094 29.679688 26.082031 29.628906 25.851562 Z M 29.148438 26.652344 C 28.5625 27.144531 29.71875 27.203125 29.148438 26.652344 Z M 36.03125 27.902344 C 36.480469 28.535156 36.734375 30.40625 35.859375 28.875 C 35.597656 28.554688 35.476562 27.976562 36.03125 27.902344 Z M 31.058594 28.703125 C 30.378906 29.246094 31.5625 29.707031 31.058594 28.703125 Z M 30.269531 29.203125 C 30.132812 29.429688 30.5625 29.320312 30.269531 29.203125 Z M 31.625 29.519531 C 31.253906 30.035156 32.398438 29.902344 31.625 29.519531 Z M 17.429688 31.671875 C 17.222656 32.167969 17.035156 32.675781 16.882812 33.1875 C 17.015625 33.378906 17.164062 33.5625 17.359375 33.742188 C 17.9375 34.019531 18.832031 35.347656 19.339844 35.464844 C 18.796875 36.777344 19.101562 38.417969 20.085938 39.460938 C 20.9375 41.242188 20.261719 43.367188 21.121094 45.164062 C 21.246094 46.066406 22.824219 46.976562 22.015625 45.464844 C 21.792969 43.679688 23.328125 42.464844 23.910156 40.933594 C 24.582031 39.785156 25.910156 37.609375 24.078125 36.882812 C 22.347656 36.40625 22.050781 34.183594 20.019531 34.425781 C 19.785156 34.65625 19.613281 34.925781 19.464844 35.207031 C 18.839844 34.476562 18.125 33.691406 18.21875 32.648438 C 17.921875 32.179688 17.664062 31.890625 17.429688 31.671875 Z M 19.230469 32.320312 C 18.347656 32.800781 20.789062 32.945312 19.414062 32.367188 C 19.351562 32.355469 19.292969 32.335938 19.230469 32.320312 Z M 42.945312 34.761719 C 42.71875 35.546875 44.414062 36.835938 43.460938 35.398438 Z M 40.683594 34.804688 C 40.0625 35.34375 41.183594 35.578125 40.683594 34.804688 Z M 45.472656 35.277344 C 44.089844 35.421875 44.695312 38.507812 45.941406 36.773438 C 46.148438 36.285156 45.917969 35.757812 45.773438 35.289062 C 45.664062 35.265625 45.5625 35.265625 45.472656 35.277344 Z M 42.890625 35.589844 C 42.554688 36.78125 44.765625 38.507812 44.953125 37.9375 C 43.925781 37.527344 43.71875 36.242188 42.890625 35.589844 Z M 36.28125 38.867188 C 35.386719 39.246094 35.398438 42.050781 36.261719 40.273438 C 36.363281 39.871094 36.761719 39.152344 36.28125 38.867188 Z M 46.289062 39.558594 C 45.273438 40.28125 43.597656 42.171875 45.160156 42.90625 C 45.355469 42.847656 45.511719 42.753906 45.640625 42.644531 C 45.957031 41.636719 46.175781 40.605469 46.289062 39.558594 Z M 23.394531 45.253906 C 22.878906 45.496094 23.917969 45.507812 23.394531 45.253906 Z M 22.863281 45.378906 C 22.320312 45.796875 23.328125 45.828125 22.863281 45.378906 Z M 23.8125 48.15625 C 23.28125 49.113281 22.367188 50.054688 21.347656 49.488281 C 21.40625 49.558594 21.480469 49.625 21.539062 49.691406 L 21.5625 49.714844 C 24.285156 52.070312 27.730469 53.363281 31.289062 53.363281 C 35.394531 53.359375 39.324219 51.628906 42.164062 48.585938 C 42.160156 48.507812 42.15625 48.429688 42.167969 48.375 C 40.3125 48.429688 38.382812 48.511719 36.667969 49.332031 C 36.933594 47.976562 34.550781 48.703125 33.734375 48.96875 C 32.371094 49.199219 30.980469 49.039062 29.617188 49.257812 C 28.128906 50.097656 26.230469 49.972656 24.648438 49.613281 C 24.171875 49.261719 24.117188 48.621094 23.8125 48.15625 Z M 23.8125 48.15625 "/></g></svg>
