<svg xmlns="http://www.w3.org/2000/svg" xmlns:xlink="http://www.w3.org/1999/xlink" width="64" height="64" viewBox="0 0 64 64" version="1.1"><defs><linearGradient id="linear0" x1="0%" x2="0%" y1="0%" y2="100%"><stop offset="0%" style="stop-color:#00b54e; stop-opacity:1"/><stop offset="50%" style="stop-color:#0073ff; stop-opacity:1"/><stop offset="100%" style="stop-color:#ffd000; stop-opacity:1"/></linearGradient></defs><g id="surface1"><path style=" stroke:none;fill-rule:nonzero;fill:url(#linear0);" d="M 26.792969 3.902344 C 26.796875 3.902344 19.996094 25.425781 19.996094 25.425781 C 17.113281 30.835938 8.644531 28.589844 8.644531 37.570312 L 31.484375 37.570312 C 28.195312 41.8125 20.746094 40.371094 20.746094 48.785156 L 57.035156 48.785156 C 57.035156 39.8125 48.566406 42.054688 45.683594 36.648438 C 44.757812 34.894531 46.234375 33.417969 47.140625 31.953125 C 52.683594 23.027344 48.566406 15.148438 38.886719 15.148438 C 38.339844 15.148438 37.804688 15.195312 37.289062 15.261719 C 38.5625 8.824219 34.414062 3.925781 26.792969 3.925781 Z M 18.320312 55.523438 L 8.644531 58.886719 L 18.320312 62.253906 L 55.582031 62.253906 C 55.582031 62.253906 56.945312 61.710938 56.945312 58.910156 C 56.945312 56.195312 55.414062 55.542969 55.414062 55.542969 L 18.152344 55.542969 Z M 18.320312 55.523438 "/><path style=" stroke:none;fill-rule:nonzero;fill:url(#linear0);" d="M 16.144531 18.488281 C 17.300781 19.804688 18.53125 21.429688 17.605469 23.183594 C 14.71875 28.589844 6.257812 26.34375 6.257812 35.324219 L 42.550781 35.324219 C 42.550781 26.34375 34.078125 28.589844 31.199219 23.183594 C 30.269531 21.429688 31.746094 19.949219 32.652344 18.488281 C 38.199219 9.558594 34.078125 1.65625 24.402344 1.65625 C 14.734375 1.65625 10.757812 12.34375 16.152344 18.488281 Z M 16.144531 18.488281 "/></g></svg>
