<svg xmlns="http://www.w3.org/2000/svg" xmlns:xlink="http://www.w3.org/1999/xlink" width="64" height="64" viewBox="0 0 64 64" version="1.1"><defs><linearGradient id="linear0" x1="0%" x2="100%" y1="0%" y2="100%"><stop offset="0%" style="stop-color:#ff0000; stop-opacity:1"/><stop offset="50%" style="stop-color:#ffd000; stop-opacity:1"/><stop offset="100%" style="stop-color:#ff00bb; stop-opacity:1"/></linearGradient></defs><g id="surface1"><path style=" stroke:none;fill-rule:nonzero;fill:url(#linear0);" d="M 32.476562 1.921875 L 30.296875 6.269531 L 30.296875 14.964844 L 32.476562 19.316406 L 34.65625 14.964844 L 34.65625 6.269531 Z M 17.214844 12.792969 L 1.953125 16.054688 L 3.042969 17.140625 L 5.222656 17.140625 L 12.855469 23.664062 L 17.214844 23.664062 L 19.394531 25.835938 L 19.394531 30.183594 L 10.675781 49.75 L 19.394531 62.800781 L 21.578125 60.625 L 15.035156 49.75 L 23.757812 30.183594 L 23.757812 19.316406 Z M 47.742188 12.792969 L 41.195312 19.316406 L 41.195312 30.183594 L 49.921875 49.75 L 43.382812 60.625 L 45.5625 62.800781 L 54.28125 49.75 L 45.5625 30.183594 L 45.5625 25.835938 L 47.742188 23.664062 L 52.101562 23.664062 L 59.730469 17.140625 L 61.910156 17.140625 L 63 16.054688 Z M 23.757812 43.230469 L 21.578125 46.488281 L 28.117188 51.925781 L 32.476562 58.449219 L 36.835938 51.925781 L 43.382812 46.488281 L 41.195312 43.230469 L 32.476562 45.402344 Z M 23.757812 43.230469 "/></g></svg>
