<svg xmlns="http://www.w3.org/2000/svg" xmlns:xlink="http://www.w3.org/1999/xlink" width="64" height="64" viewBox="0 0 64 64" version="1.1"><defs><linearGradient id="linear0" x1="0%" x2="0%" y1="0%" y2="100%"><stop offset="0%" style="stop-color:#24dbdb; stop-opacity:1"/><stop offset="100%" style="stop-color:#174475; stop-opacity:1"/></linearGradient></defs><g id="surface1"><path style=" stroke:none;fill-rule:evenodd;fill:url(#linear0);" d="M 63.3125 32.121094 C 63.3125 49.078125 49.410156 62.824219 32.269531 62.824219 C 15.125 62.824219 1.222656 49.078125 1.222656 32.121094 C 1.222656 15.164062 15.125 1.417969 32.269531 1.417969 C 49.410156 1.417969 63.3125 15.164062 63.3125 32.121094 "/><path style=" stroke:none;fill-rule:nonzero;fill:url(#linear0);" d="M 16.890625 50.863281 C 16.734375 50.746094 16.507812 50.460938 16.382812 50.226562 L 16.160156 49.8125 L 16.160156 13.914062 L 16.414062 13.414062 C 16.574219 13.113281 16.8125 12.832031 17.023438 12.714844 L 17.371094 12.515625 L 17.785156 12.96875 C 18.015625 13.214844 21.929688 17.46875 26.480469 22.40625 C 31.035156 27.351562 34.839844 31.496094 34.9375 31.617188 C 35.113281 31.835938 35.027344 31.933594 26.277344 41.433594 C 21.421875 46.703125 17.382812 51.035156 17.300781 51.050781 C 17.226562 51.066406 17.039062 50.980469 16.882812 50.863281 M 22.546875 47.933594 C 23.707031 46.683594 27.261719 42.828125 30.457031 39.359375 C 33.65625 35.894531 36.304688 33.09375 36.347656 33.144531 C 36.753906 33.550781 41.539062 38.78125 41.527344 38.796875 C 41.515625 38.804688 37.574219 40.9375 32.769531 43.539062 C 27.957031 46.144531 23.683594 48.460938 23.261719 48.695312 C 22.835938 48.925781 22.035156 49.363281 21.472656 49.664062 L 20.449219 50.203125 L 22.546875 47.933594 M 40.191406 34.886719 L 37.371094 31.835938 L 38.363281 30.761719 C 38.910156 30.167969 40.183594 28.789062 41.191406 27.695312 L 43.023438 25.703125 L 43.34375 25.890625 C 43.511719 25.996094 45.265625 26.949219 47.230469 28.015625 C 52.582031 30.921875 52.699219 31.003906 52.699219 31.859375 C 52.699219 32.367188 52.523438 32.644531 51.957031 33.046875 C 51.570312 33.320312 43.519531 37.746094 43.160156 37.882812 C 43.0625 37.921875 42.054688 36.898438 40.191406 34.886719 M 28.824219 22.542969 C 24.777344 18.140625 21.265625 14.3125 21.015625 14.035156 L 20.558594 13.539062 L 20.964844 13.742188 C 21.792969 14.160156 41.304688 24.800781 41.382812 24.871094 C 41.453125 24.949219 36.460938 30.453125 36.265625 30.519531 C 36.21875 30.539062 32.867188 26.949219 28.824219 22.542969 "/></g></svg>
