<svg xmlns="http://www.w3.org/2000/svg" xmlns:xlink="http://www.w3.org/1999/xlink" width="64" height="64" viewBox="0 0 64 64" version="1.1"><defs><linearGradient id="linear0" x1="0%" x2="0%" y1="0%" y2="100%"><stop offset="0%" style="stop-color:#ffd000; stop-opacity:1"/><stop offset="50%" style="stop-color:#24dbdb; stop-opacity:1"/><stop offset="100%" style="stop-color:#0073ff; stop-opacity:1"/></linearGradient></defs><g id="surface1"><path style=" stroke:none;fill-rule:nonzero;fill:url(#linear0);" d="M 5.929688 54.945312 C 3.65625 54.316406 2.085938 52.636719 1.46875 50.140625 C 1.144531 48.832031 1.015625 46.566406 1.144531 44.601562 C 1.433594 40.441406 3.117188 22.398438 3.289062 21.648438 C 3.957031 18.675781 5.339844 16.164062 7.472656 14.050781 C 9.71875 11.824219 12.207031 10.574219 15.484375 10.019531 C 16.957031 9.769531 17.515625 9.761719 32.125 9.761719 C 46.742188 9.761719 47.304688 9.769531 48.777344 10.019531 C 52.050781 10.574219 54.480469 11.789062 56.730469 13.992188 C 59.113281 16.34375 60.71875 19.46875 61.140625 22.597656 C 61.296875 23.800781 62.925781 41.953125 63.109375 44.558594 C 63.246094 46.566406 63.117188 48.824219 62.785156 50.140625 C 62.160156 52.660156 60.585938 54.339844 58.273438 54.949219 C 56.808594 55.339844 55.453125 55.136719 53.722656 54.257812 C 51.53125 53.152344 50.214844 51.902344 44.761719 45.761719 L 40.292969 40.738281 L 23.964844 40.738281 L 19.496094 45.761719 C 14.039062 51.910156 12.726562 53.152344 10.535156 54.257812 C 8.808594 55.136719 7.386719 55.34375 5.929688 54.945312 M 19.636719 33.214844 C 22.5 32.429688 24.859375 29.945312 25.59375 26.957031 C 25.871094 25.859375 25.863281 23.859375 25.582031 22.789062 C 24.796875 19.71875 22.464844 17.339844 19.457031 16.535156 C 18.511719 16.28125 16.480469 16.28125 15.535156 16.535156 C 12.523438 17.339844 10.1875 19.71875 9.40625 22.789062 C 9.125 23.878906 9.121094 25.875 9.386719 26.957031 C 10.003906 29.402344 11.65625 31.503906 13.765625 32.558594 C 14.402344 32.875 15.226562 33.191406 15.59375 33.261719 C 15.964844 33.339844 16.378906 33.429688 16.511719 33.460938 C 16.953125 33.566406 18.949219 33.40625 19.636719 33.214844 M 15.777344 30.972656 C 15.75 30.878906 15.707031 29.902344 15.691406 28.789062 L 15.660156 26.765625 L 13.574219 26.703125 L 11.496094 26.636719 L 11.460938 24.941406 C 11.433594 23.667969 11.464844 23.21875 11.585938 23.144531 C 11.671875 23.089844 12.640625 23.039062 13.726562 23.039062 L 15.722656 23.039062 L 15.722656 20.976562 C 15.722656 19.542969 15.765625 18.871094 15.871094 18.765625 C 16.066406 18.558594 18.921875 18.558594 19.128906 18.765625 C 19.230469 18.871094 19.273438 19.542969 19.273438 20.976562 L 19.273438 23.039062 L 21.261719 23.039062 C 22.351562 23.039062 23.320312 23.089844 23.410156 23.144531 C 23.527344 23.21875 23.554688 23.667969 23.53125 24.941406 L 23.492188 26.636719 L 21.414062 26.703125 L 19.328125 26.765625 L 19.273438 28.910156 L 19.207031 31.066406 L 17.519531 31.097656 C 16.238281 31.125 15.824219 31.097656 15.777344 30.972656 M 47.894531 32.375 C 49.527344 31.554688 49.59375 28.996094 47.996094 28.027344 C 47.261719 27.585938 46.253906 27.585938 45.511719 28.027344 C 43.925781 28.992188 43.980469 31.539062 45.609375 32.367188 C 46.308594 32.726562 47.179688 32.726562 47.894531 32.375 M 42.253906 27.316406 C 43.460938 26.996094 44.328125 25.539062 44.015625 24.347656 C 43.699219 23.167969 42.765625 22.40625 41.632812 22.40625 C 39.847656 22.40625 38.695312 24.351562 39.484375 26.027344 C 39.757812 26.625 40.226562 27.027344 40.925781 27.289062 C 41.488281 27.492188 41.5625 27.492188 42.253906 27.316406 M 53.175781 26.984375 C 53.960938 26.484375 54.324219 25.734375 54.257812 24.714844 C 54.21875 24.070312 54.148438 23.847656 53.835938 23.453125 C 53.304688 22.773438 52.640625 22.410156 51.90625 22.40625 C 49.707031 22.398438 48.628906 25.042969 50.179688 26.640625 C 51.03125 27.523438 52.121094 27.648438 53.175781 26.984375 M 48.101562 21.675781 C 48.777344 21.1875 49.140625 20.484375 49.140625 19.660156 C 49.144531 18.535156 48.695312 17.792969 47.738281 17.328125 C 46.738281 16.855469 45.550781 17.1875 44.808594 18.136719 C 44.308594 18.792969 44.214844 19.957031 44.597656 20.734375 C 44.875 21.292969 45.492188 21.847656 46.042969 22.027344 C 46.632812 22.230469 47.5625 22.0625 48.101562 21.675781 "/></g></svg>
