<svg xmlns="http://www.w3.org/2000/svg" xmlns:xlink="http://www.w3.org/1999/xlink" width="64" height="64" viewBox="0 0 64 64" version="1.1"><defs><linearGradient id="linear0" x1="0%" x2="0%" y1="0%" y2="100%"><stop offset="0%" style="stop-color:#ffd000; stop-opacity:1"/><stop offset="50%" style="stop-color:#24dbdb; stop-opacity:1"/><stop offset="100%" style="stop-color:#0073ff; stop-opacity:1"/></linearGradient></defs><g id="surface1"><path style=" stroke:none;fill-rule:nonzero;fill:url(#linear0);" d="M 6.375 1.300781 C 3.585938 1.300781 1.34375 3.789062 1.34375 6.878906 L 1.34375 40.363281 C 1.34375 43.457031 3.585938 45.941406 6.375 45.941406 L 41.570312 45.941406 C 44.355469 45.941406 46.601562 43.457031 46.601562 40.363281 L 46.601562 6.878906 C 46.601562 3.789062 44.355469 1.300781 41.570312 1.300781 Z M 6.375 6.878906 L 41.570312 6.878906 L 41.570312 40.363281 L 6.375 40.363281 Z M 49.117188 9.667969 L 49.117188 43.148438 C 49.117188 46.25 46.871094 48.730469 44.085938 48.730469 L 8.890625 48.730469 C 8.890625 51.820312 11.136719 54.3125 13.917969 54.3125 L 49.117188 54.3125 C 51.898438 54.3125 54.140625 51.820312 54.140625 48.730469 L 54.140625 15.25 C 54.140625 12.160156 51.898438 9.667969 49.117188 9.667969 Z M 56.65625 18.042969 L 56.65625 51.523438 C 56.65625 54.617188 54.414062 57.109375 51.632812 57.109375 L 16.433594 57.109375 C 16.433594 60.199219 18.671875 62.679688 21.464844 62.679688 L 56.65625 62.679688 C 59.4375 62.679688 61.683594 60.199219 61.683594 57.109375 L 61.683594 23.617188 C 61.683594 20.53125 59.4375 18.042969 56.65625 18.042969 Z M 56.65625 18.042969 "/></g></svg>
