<svg xmlns="http://www.w3.org/2000/svg" xmlns:xlink="http://www.w3.org/1999/xlink" width="64" height="64" viewBox="0 0 64 64" version="1.1"><defs><linearGradient id="linear0" x1="0%" x2="100%" y1="0%" y2="100%"><stop offset="0%" style="stop-color:#e5ff00; stop-opacity:1"/><stop offset="50%" style="stop-color:#0073ff; stop-opacity:1"/><stop offset="100%" style="stop-color:#ff0000; stop-opacity:1"/></linearGradient></defs><g id="surface1"><path style=" stroke:none;fill-rule:evenodd;fill:url(#linear0);" d="M 32.300781 1.125 C 42.613281 1.332031 50.476562 6.515625 54.015625 11.152344 L 31.71875 27.292969 L 24.789062 1.847656 C 27.40625 1.292969 29.914062 1.078125 32.300781 1.125 M 23.195312 7.507812 L 29.800781 32.679688 L 54.605469 46.742188 C 50.015625 55.871094 40.453125 62.148438 29.398438 62.148438 C 13.875 62.148438 1.289062 49.765625 1.289062 34.484375 C 1.289062 21.308594 10.65625 10.285156 23.195312 7.507812 M 55.984375 14.953125 C 65.730469 26.574219 63.1875 39.507812 58.757812 46.273438 L 33.671875 31.074219 L 55.984375 14.957031 "/></g></svg>
