<svg xmlns="http://www.w3.org/2000/svg" xmlns:xlink="http://www.w3.org/1999/xlink" width="64" height="64" viewBox="0 0 64 64" version="1.1"><defs><linearGradient id="linear0" x1="0%" x2="0%" y1="0%" y2="100%"><stop offset="0%" style="stop-color:#ffd000; stop-opacity:1"/><stop offset="50%" style="stop-color:#24dbdb; stop-opacity:1"/><stop offset="100%" style="stop-color:#0073ff; stop-opacity:1"/></linearGradient></defs><g id="surface1"><path style=" stroke:none;fill-rule:nonzero;fill:url(#linear0);" d="M 20.636719 1.96875 L 2 36.664062 L 8.449219 40.675781 L 15.902344 26.777344 L 18.457031 26.042969 L 20.320312 22.570312 L 19.640625 19.824219 L 27.09375 5.925781 Z M 43.9375 1.96875 L 37.484375 5.976562 L 44.945312 19.875 L 44.257812 22.625 L 46.125 26.09375 L 48.675781 26.832031 L 56.132812 40.730469 L 62.578125 36.722656 L 55.125 22.820312 L 56.742188 21.816406 L 55.8125 20.078125 L 57.421875 19.074219 L 55.558594 15.605469 L 53.945312 16.609375 L 51.390625 15.875 Z M 32.269531 14.324219 C 30.203125 14.328125 28.148438 14.746094 26.230469 15.558594 L 24.570312 18.648438 C 26.902344 17.128906 29.5625 16.316406 32.269531 16.316406 C 34.988281 16.328125 37.65625 17.132812 39.980469 18.648438 L 38.304688 15.515625 C 36.386719 14.714844 34.335938 14.308594 32.269531 14.304688 Z M 32.269531 24.351562 C 28.148438 24.351562 24.8125 27.9375 24.8125 32.375 C 24.8125 36.804688 28.148438 40.398438 32.269531 40.398438 C 36.390625 40.398438 39.722656 36.804688 39.722656 32.375 C 39.722656 27.9375 36.390625 24.351562 32.269531 24.351562 Z M 17.375 32.050781 L 15.71875 35.140625 C 16.355469 39.574219 18.5 43.582031 21.738281 46.414062 L 25.058594 46.414062 C 20.304688 43.582031 17.359375 38.210938 17.359375 32.375 C 17.363281 32.269531 17.367188 32.160156 17.375 32.054688 Z M 47.199219 32.066406 C 47.203125 32.167969 47.207031 32.269531 47.210938 32.367188 C 47.203125 38.207031 44.246094 43.601562 39.476562 46.40625 L 42.808594 46.40625 C 46.054688 43.601562 48.214844 39.589844 48.847656 35.15625 Z M 13.648438 50.414062 L 13.648438 58.4375 L 30.421875 58.4375 L 30.421875 62.449219 L 34.152344 62.449219 L 34.152344 60.441406 L 36.015625 60.441406 L 36.015625 58.4375 L 50.925781 58.4375 L 50.925781 50.414062 Z M 13.648438 50.414062 "/><path style=" stroke:none;fill-rule:nonzero;fill:url(#linear0);" d="M 32.445312 19.707031 C 30.753906 19.714844 29.074219 20.054688 27.496094 20.71875 L 26.136719 23.246094 C 28.039062 22.003906 30.214844 21.347656 32.445312 21.34375 C 34.671875 21.34375 36.859375 22 38.765625 23.246094 L 37.390625 20.683594 C 35.8125 20.03125 34.136719 19.695312 32.445312 19.695312 Z M 20.242188 34.203125 L 18.882812 36.730469 C 19.40625 40.355469 21.164062 43.640625 23.816406 45.945312 L 26.535156 45.945312 C 22.644531 43.640625 20.230469 39.242188 20.230469 34.46875 C 20.230469 34.382812 20.234375 34.296875 20.238281 34.207031 Z M 44.675781 34.214844 C 44.679688 34.300781 44.683594 34.382812 44.683594 34.464844 C 44.679688 39.242188 42.25 43.644531 38.347656 45.945312 L 41.082031 45.945312 C 43.734375 43.644531 45.5 40.363281 46.027344 36.746094 L 44.667969 34.21875 Z M 44.675781 34.214844 "/></g></svg>
