<svg xmlns="http://www.w3.org/2000/svg" xmlns:xlink="http://www.w3.org/1999/xlink" width="64" height="64" viewBox="0 0 64 64" version="1.1"><defs><linearGradient id="linear0" x1="0%" x2="0%" y1="0%" y2="100%"><stop offset="0%" style="stop-color:#24dbdb; stop-opacity:1"/><stop offset="100%" style="stop-color:#174475; stop-opacity:1"/></linearGradient></defs><g id="surface1"><path style=" stroke:none;fill-rule:nonzero;fill:url(#linear0);" d="M 32.652344 1.394531 C 18.570312 1.394531 7.140625 12.472656 7.140625 26.121094 C 7.148438 35.699219 12.839844 44.417969 21.664062 48.375 L 22.085938 46.738281 C 14.027344 42.863281 8.84375 34.882812 8.84375 26.132812 C 8.84375 13.394531 19.5 3.054688 32.648438 3.054688 C 45.792969 3.054688 56.453125 13.394531 56.453125 26.132812 C 56.441406 34.953125 51.265625 42.949219 43.203125 46.738281 L 43.621094 48.367188 C 52.449219 44.296875 58.148438 35.640625 58.148438 26.113281 C 58.148438 12.46875 46.71875 1.386719 32.636719 1.386719 Z M 32.652344 7.988281 C 22.3125 7.988281 13.945312 16.101562 13.945312 26.121094 C 13.953125 32.648438 17.585938 38.613281 23.367188 41.828125 L 23.792969 40.164062 C 18.777344 37.199219 15.667969 31.90625 15.648438 26.136719 C 15.648438 17.039062 23.265625 9.652344 32.652344 9.652344 C 42.039062 9.652344 49.65625 17.039062 49.65625 26.136719 C 49.648438 31.90625 46.527344 37.210938 41.515625 40.183594 L 41.941406 41.847656 C 47.722656 38.648438 51.34375 32.683594 51.363281 26.136719 C 51.363281 16.113281 42.996094 8.003906 32.65625 8.003906 Z M 32.652344 14.582031 C 26.070312 14.582031 20.75 19.742188 20.75 26.121094 C 20.75 29.710938 22.449219 32.894531 25.097656 35.003906 L 25.558594 33.207031 C 23.636719 31.414062 22.429688 28.90625 22.429688 26.121094 C 22.429688 20.664062 27.007812 16.230469 32.632812 16.230469 C 38.261719 16.230469 42.835938 20.664062 42.835938 26.121094 C 42.835938 28.90625 41.632812 31.414062 39.707031 33.207031 L 40.167969 35.003906 C 42.824219 32.894531 44.523438 29.699219 44.523438 26.121094 C 44.523438 19.742188 39.199219 14.582031 32.621094 14.582031 Z M 32.652344 22.824219 C 30.777344 22.824219 29.246094 24.296875 29.246094 26.121094 C 29.253906 27.011719 29.625 27.867188 30.285156 28.492188 L 21.855469 61.296875 C 24.828125 62 27.871094 62.363281 30.933594 62.378906 C 35.101562 62.363281 39.25 61.703125 43.191406 60.417969 L 35 28.441406 C 35.664062 27.816406 36.039062 26.957031 36.039062 26.066406 C 36.039062 24.25 34.515625 22.765625 32.636719 22.765625 Z M 32.652344 32.714844 L 34.777344 40.953125 L 30.527344 40.953125 Z M 31.0625 42.605469 L 34.226562 42.605469 L 32.640625 44.449219 L 31.058594 42.605469 Z M 29.8125 43.722656 L 31.546875 45.734375 L 28.328125 49.476562 L 29.816406 43.722656 Z M 35.488281 43.722656 L 36.972656 49.476562 L 33.761719 45.734375 L 35.496094 43.722656 Z M 32.652344 47.019531 L 35.929688 50.84375 L 29.367188 50.84375 Z M 30.101562 52.492188 L 35.199219 52.492188 L 32.652344 54.335938 Z M 27.5 52.664062 L 31.222656 55.367188 L 25.765625 59.324219 L 27.480469 52.648438 Z M 37.785156 52.664062 L 39.503906 59.34375 L 34.046875 55.382812 L 37.769531 52.679688 Z M 32.632812 56.40625 L 38.585938 60.726562 L 26.683594 60.726562 Z M 32.632812 56.40625 "/></g></svg>
