<svg xmlns="http://www.w3.org/2000/svg" xmlns:xlink="http://www.w3.org/1999/xlink" width="64" height="64" viewBox="0 0 64 64" version="1.1"><defs><linearGradient id="linear0" x1="0%" x2="0%" y1="0%" y2="100%"><stop offset="0%" style="stop-color:#00b54e; stop-opacity:1"/><stop offset="50%" style="stop-color:#0073ff; stop-opacity:1"/><stop offset="100%" style="stop-color:#ffd000; stop-opacity:1"/></linearGradient></defs><g id="surface1"><path style=" stroke:none;fill-rule:nonzero;fill:url(#linear0);" d="M 8.136719 9.433594 L 8.136719 14.226562 L 18.855469 14.226562 L 18.855469 9.433594 Z M 60.109375 10.125 L 2.296875 54.28125 L 3.546875 56.324219 L 61.351562 12.167969 Z M 60.109375 10.125 "/><path style=" stroke:none;fill-rule:nonzero;fill:url(#linear0);" d="M 8.136719 2.234375 L 8.136719 7.03125 L 18.855469 7.03125 L 18.855469 2.234375 Z M 56.082031 6.394531 L 42.90625 29.746094 L 36.730469 19.285156 L 22.960938 44.171875 L 16.800781 34.339844 L 2.34375 59.542969 L 4.199219 60.878906 L 16.878906 38.777344 L 23.070312 48.664062 L 36.796875 23.871094 L 42.953125 34.304688 L 56.222656 10.761719 L 61.253906 18.375 L 63.03125 16.90625 Z M 56.082031 6.394531 "/><path style=" stroke:none;fill-rule:nonzero;fill:url(#linear0);" d="M 8.136719 16.621094 L 8.136719 21.414062 L 18.855469 21.414062 L 18.855469 16.621094 Z M 51.023438 33.40625 L 51.023438 62.179688 L 57.449219 62.179688 L 57.449219 33.40625 Z M 40.296875 42.996094 L 40.296875 62.179688 L 46.734375 62.179688 L 46.734375 42.996094 Z M 29.578125 50.195312 L 29.578125 62.179688 L 36.011719 62.179688 L 36.011719 50.195312 Z M 29.578125 50.195312 "/><path style=" stroke:none;fill-rule:nonzero;fill:url(#linear0);" d="M 21 2.234375 L 21 7.03125 L 31.726562 7.03125 L 31.726562 2.234375 Z M 21 9.433594 L 21 14.226562 L 31.726562 14.226562 L 31.726562 9.433594 Z M 21 16.621094 L 21 21.414062 L 31.726562 21.414062 L 31.726562 16.621094 Z M 21 16.621094 "/></g></svg>
