<svg xmlns="http://www.w3.org/2000/svg" xmlns:xlink="http://www.w3.org/1999/xlink" width="64" height="64" viewBox="0 0 64 64" version="1.1"><defs><linearGradient id="linear0" x1="100%" x2="0%" y1="100%" y2="0%"><stop offset="0%" style="stop-color:#00b54e; stop-opacity:1"/><stop offset="100%" style="stop-color:#ff0000; stop-opacity:1"/></linearGradient></defs><g id="surface1"><path style=" stroke:none;fill-rule:nonzero;fill:url(#linear0);" d="M 5.480469 7.242188 C 3.855469 7.242188 2.546875 8.445312 2.546875 9.941406 L 2.546875 14.4375 L 53.40625 14.4375 L 53.40625 9.941406 C 53.40625 8.445312 52.097656 7.242188 50.46875 7.242188 Z M 5.480469 7.242188 "/><path style=" stroke:none;fill-rule:nonzero;fill:url(#linear0);" d="M 62.429688 11.371094 C 62.429688 13.632812 60.808594 15.460938 58.816406 15.460938 C 56.816406 15.460938 55.203125 13.632812 55.203125 11.371094 C 55.203125 9.113281 56.816406 7.285156 58.816406 7.285156 C 60.808594 7.285156 62.429688 9.113281 62.429688 11.371094 Z M 62.429688 11.371094 "/><path style=" stroke:none;fill-rule:nonzero;fill:url(#linear0);" d="M 48.199219 19.074219 L 59.410156 19.074219 L 59.410156 58.660156 L 48.199219 58.660156 Z M 48.199219 19.074219 "/><path style=" stroke:none;fill-rule:nonzero;fill:url(#linear0);" d="M 33.984375 19.019531 L 41.457031 19.019531 L 41.457031 58.597656 L 33.984375 58.597656 L 30.246094 38.808594 Z M 33.984375 19.019531 "/><path style=" stroke:none;fill-rule:nonzero;fill:url(#linear0);" d="M 16.644531 17.257812 L 24.117188 17.257812 L 24.117188 56.839844 L 16.644531 56.839844 L 12.90625 37.050781 Z M 16.644531 17.257812 "/><path style=" stroke:none;fill-rule:nonzero;fill:url(#linear0);" d="M 5.457031 16.535156 C 3.910156 16.535156 2.65625 17.738281 2.65625 19.234375 L 2.65625 53.414062 C 2.65625 54.914062 3.910156 56.113281 5.457031 56.113281 L 10.132812 56.113281 L 10.132812 16.535156 Z M 5.457031 16.535156 "/></g></svg>
