<svg xmlns="http://www.w3.org/2000/svg" xmlns:xlink="http://www.w3.org/1999/xlink" width="64" height="64" viewBox="0 0 64 64" version="1.1"><defs><linearGradient id="linear0" x1="0%" x2="100%" y1="0%" y2="100%"><stop offset="0%" style="stop-color:#e5ff00; stop-opacity:1"/><stop offset="50%" style="stop-color:#0073ff; stop-opacity:1"/><stop offset="100%" style="stop-color:#ff0000; stop-opacity:1"/></linearGradient></defs><g id="surface1"><path style=" stroke:none;fill-rule:nonzero;fill:url(#linear0);" d="M 31.726562 1.011719 C 28.324219 1.011719 25.5625 3.964844 25.5625 7.609375 C 25.5625 7.777344 25.574219 7.941406 25.585938 8.109375 L 13.726562 14.222656 C 12.5625 12.816406 10.890625 12.011719 9.132812 12.007812 C 5.730469 12.007812 2.972656 14.960938 2.972656 18.605469 C 2.976562 21.398438 4.621094 23.886719 7.082031 24.820312 L 7.082031 38.78125 C 4.621094 39.714844 2.976562 42.203125 2.972656 45 C 2.972656 48.640625 5.730469 51.597656 9.132812 51.597656 C 10.75 51.597656 12.304688 50.914062 13.460938 49.699219 L 25.5625 56.011719 C 25.574219 59.648438 28.332031 62.59375 31.726562 62.59375 C 35.121094 62.59375 37.878906 59.648438 37.890625 56.011719 L 50 49.699219 C 51.148438 50.914062 52.703125 51.59375 54.320312 51.597656 C 57.722656 51.597656 60.480469 48.640625 60.480469 45 C 60.476562 42.207031 58.828125 39.71875 56.371094 38.785156 L 56.371094 24.824219 C 58.832031 23.890625 60.476562 21.402344 60.480469 18.605469 C 60.480469 14.960938 57.722656 12.007812 54.320312 12.007812 C 52.5625 12.011719 50.886719 12.816406 49.722656 14.222656 L 37.863281 8.105469 C 37.878906 7.941406 37.886719 7.773438 37.890625 7.609375 C 37.890625 3.964844 35.132812 1.011719 31.726562 1.011719 Z M 26.085938 12.898438 L 11.191406 37.984375 L 11.191406 24.824219 C 13.648438 23.886719 15.292969 21.402344 15.292969 18.605469 C 15.292969 18.523438 15.289062 18.441406 15.289062 18.355469 Z M 37.367188 12.898438 L 48.167969 18.359375 C 48.164062 18.441406 48.160156 18.523438 48.160156 18.605469 C 48.160156 21.398438 49.808594 23.886719 52.265625 24.820312 L 52.265625 37.984375 Z M 30.230469 14 C 30.71875 14.136719 31.222656 14.203125 31.726562 14.207031 C 32.230469 14.203125 32.734375 14.140625 33.222656 14.007812 L 49.273438 41.210938 C 48.960938 41.703125 48.703125 42.238281 48.515625 42.796875 L 14.9375 42.796875 C 14.75 42.238281 14.492188 41.707031 14.171875 41.21875 Z M 17.878906 47.199219 L 45.574219 47.199219 L 36.664062 52.058594 C 35.5 50.386719 33.671875 49.402344 31.726562 49.398438 C 29.777344 49.402344 27.949219 50.386719 26.785156 52.058594 Z M 17.878906 47.199219 "/></g></svg>
