<svg xmlns="http://www.w3.org/2000/svg" xmlns:xlink="http://www.w3.org/1999/xlink" width="64" height="64" viewBox="0 0 64 64" version="1.1"><defs><linearGradient id="linear0" x1="0%" x2="100%" y1="0%" y2="100%"><stop offset="0%" style="stop-color:#ff0000; stop-opacity:1"/><stop offset="100%" style="stop-color:#6a00ff; stop-opacity:1"/></linearGradient></defs><g id="surface1"><path style=" stroke:none;fill-rule:nonzero;fill:url(#linear0);" d="M 42.472656 1.953125 L 42.472656 11.039062 L 29.550781 24.023438 C 28.855469 23.628906 28.058594 23.363281 27.195312 23.363281 C 24.5625 23.363281 22.421875 25.542969 22.421875 28.195312 C 22.421875 29.058594 22.683594 29.835938 23.078125 30.535156 L 10.15625 43.519531 L 1.113281 43.519531 L 1.113281 54.40625 L 11.945312 54.40625 L 11.945312 45.316406 L 23.855469 33.347656 C 19.234375 42.324219 19.585938 53.484375 25.707031 62.351562 L 27.703125 60.910156 C 21.75 52.292969 21.796875 41.332031 26.894531 32.929688 C 27 32.941406 27.097656 32.992188 27.195312 32.992188 C 29.835938 32.992188 32 30.847656 32 28.195312 C 32 27.816406 31.902344 27.40625 31.824219 27.054688 C 32.558594 26.40625 33.328125 25.800781 34.152344 25.222656 C 42.386719 19.484375 53.207031 19.105469 61.8125 24.269531 L 63.070312 22.101562 C 58.347656 19.277344 53.0625 17.964844 47.792969 18.144531 C 43.636719 18.289062 39.523438 19.394531 35.761719 21.382812 L 44.269531 12.839844 L 53.308594 12.839844 L 53.308594 1.953125 Z M 44.980469 4.472656 L 50.800781 4.472656 L 50.800781 10.316406 L 44.980469 10.316406 Z M 3.621094 46.039062 L 9.441406 46.039062 L 9.441406 51.890625 L 3.621094 51.890625 Z M 3.621094 46.039062 "/></g></svg>
