<svg xmlns="http://www.w3.org/2000/svg" xmlns:xlink="http://www.w3.org/1999/xlink" width="64" height="64" viewBox="0 0 64 64" version="1.1"><defs><linearGradient id="linear0" x1="0%" x2="100%" y1="0%" y2="100%"><stop offset="0%" style="stop-color:#ae00ff; stop-opacity:1"/><stop offset="100%" style="stop-color:#0084ff; stop-opacity:1"/></linearGradient></defs><g id="surface1"><path style=" stroke:none;fill-rule:nonzero;fill:url(#linear0);" d="M 1.519531 30.4375 L 62.617188 30.4375 C 63.097656 30.4375 63.484375 30.871094 63.484375 31.402344 L 63.484375 32.691406 C 63.484375 33.222656 63.097656 33.65625 62.617188 33.65625 L 1.519531 33.65625 C 1.042969 33.65625 0.652344 33.222656 0.652344 32.691406 L 0.652344 31.402344 C 0.652344 30.871094 1.042969 30.4375 1.519531 30.4375 Z M 1.519531 30.4375 "/><path style=" stroke:none;fill-rule:nonzero;fill:url(#linear0);" d="M 11.984375 19.746094 C 9.785156 19.746094 8.015625 24.011719 8.015625 29.320312 L 8.015625 34.101562 C 8.015625 39.40625 9.785156 43.675781 11.984375 43.675781 L 13.96875 43.675781 L 15.953125 41.28125 L 17.9375 43.675781 L 21.90625 41.28125 L 23.890625 41.28125 L 25.871094 38.886719 L 27.859375 41.28125 L 31.828125 41.28125 L 33.808594 38.886719 L 35.792969 41.28125 L 41.746094 41.28125 L 45.71875 43.675781 L 47.703125 41.28125 L 49.683594 43.675781 L 51.667969 43.675781 C 53.867188 43.675781 55.636719 39.40625 55.636719 34.101562 L 55.636719 29.320312 C 55.636719 24.011719 53.867188 19.746094 51.667969 19.746094 L 49.683594 19.746094 L 47.703125 22.140625 L 45.71875 19.746094 L 41.746094 22.140625 L 35.792969 22.140625 L 33.808594 24.53125 L 31.828125 22.140625 L 27.859375 22.140625 L 25.871094 24.53125 L 23.890625 22.140625 L 21.90625 22.140625 L 17.9375 19.746094 L 15.953125 22.140625 L 13.96875 19.746094 Z M 11.984375 19.746094 "/></g></svg>
