<svg xmlns="http://www.w3.org/2000/svg" xmlns:xlink="http://www.w3.org/1999/xlink" width="64" height="64" viewBox="0 0 64 64" version="1.1"><defs><linearGradient id="linear0" x1="0%" x2="0%" y1="0%" y2="100%"><stop offset="0%" style="stop-color:#ffd000; stop-opacity:1"/><stop offset="50%" style="stop-color:#24dbdb; stop-opacity:1"/><stop offset="100%" style="stop-color:#0073ff; stop-opacity:1"/></linearGradient></defs><g id="surface1"><path style=" stroke:none;fill-rule:nonzero;fill:url(#linear0);" d="M 34.804688 2.328125 C 24.917969 2.328125 16.246094 8.011719 11.378906 16.460938 L 7.492188 11.449219 C 7.457031 11.421875 7.40625 11.414062 7.363281 11.398438 C 6.804688 10.765625 5.617188 11.148438 5.464844 12.003906 L 1.492188 36.832031 C 1.355469 37.53125 1.957031 38.285156 2.613281 38.273438 L 7.578125 36.921875 C 9.734375 51.011719 21.136719 61.804688 34.804688 61.804688 C 50 61.804688 62.414062 48.472656 62.414062 32.089844 C 62.414062 15.707031 50 2.328125 34.804688 2.328125 Z M 38.164062 11.351562 C 39.617188 11.367188 41.140625 11.667969 42.742188 12.179688 C 51.121094 15.621094 57.0625 21.828125 57.0625 32.089844 C 57.0625 45.371094 47.121094 56.078125 34.804688 56.078125 C 23.554688 56.078125 14.328125 47.148438 12.796875 35.484375 L 25.140625 32.085938 C 25.941406 32.058594 26.480469 30.875 26 30.183594 L 20.996094 26.132812 C 21.105469 25.683594 19.441406 24.441406 26.128906 16.777344 C 29.28125 13.164062 33.507812 11.292969 38.164062 11.339844 "/></g></svg>
