<svg xmlns="http://www.w3.org/2000/svg" xmlns:xlink="http://www.w3.org/1999/xlink" width="64" height="64" viewBox="0 0 64 64" version="1.1"><defs><linearGradient id="linear0" x1="0%" x2="100%" y1="0%" y2="100%"><stop offset="0%" style="stop-color:#ff0000; stop-opacity:1"/><stop offset="50%" style="stop-color:#ffd000; stop-opacity:1"/><stop offset="100%" style="stop-color:#ff00bb; stop-opacity:1"/></linearGradient></defs><g id="surface1"><path style=" stroke:none;fill-rule:nonzero;fill:url(#linear0);" d="M 32.097656 11.78125 C 21.9375 11.78125 11.773438 17.277344 7.957031 26.894531 C 6.519531 30.519531 1.605469 33.515625 1.605469 35.136719 C 1.605469 36.898438 5.621094 37.59375 8.113281 38.738281 C 11.773438 47.503906 23.839844 52.992188 33.113281 52.992188 C 42.515625 52.992188 54.964844 47.503906 57.507812 36.507812 C 57.507812 36.507812 62.589844 36.507812 62.589844 35.136719 C 62.589844 33.761719 59.5625 34.3125 58.371094 31.015625 C 52.425781 14.53125 35.449219 11.839844 32.203125 11.78125 Z M 40.816406 16.316406 C 42.230469 17.054688 54.964844 25.519531 55.070312 34.039062 C 54.996094 40.933594 44.828125 50.246094 33.167969 50.246094 C 28.03125 50.246094 21.730469 48.652344 16.800781 45.191406 C 11.871094 41.730469 9.304688 37.199219 9.253906 33.265625 C 9.1875 28.019531 11.371094 23.597656 15.910156 19.996094 C 17.429688 18.792969 19.113281 17.226562 20.867188 16.371094 C 18.304688 19.175781 16.878906 22.964844 16.851562 26.921875 C 16.851562 35.273438 23.101562 42.03125 30.824219 42.03125 C 38.550781 42.03125 44.804688 35.273438 44.804688 26.921875 C 44.800781 22.964844 43.367188 19.175781 40.816406 16.34375 Z M 40.816406 16.316406 "/></g></svg>
