<svg xmlns="http://www.w3.org/2000/svg" xmlns:xlink="http://www.w3.org/1999/xlink" width="64" height="64" viewBox="0 0 64 64" version="1.1"><defs><linearGradient id="linear0" x1="0%" x2="0%" y1="0%" y2="100%"><stop offset="0%" style="stop-color:#00b54e; stop-opacity:1"/><stop offset="50%" style="stop-color:#0073ff; stop-opacity:1"/><stop offset="100%" style="stop-color:#ffd000; stop-opacity:1"/></linearGradient></defs><g id="surface1"><path style=" stroke:none;fill-rule:nonzero;fill:url(#linear0);" d="M 2.265625 50.851562 L 16.964844 38.773438 C 19.042969 41.929688 21.773438 44.621094 24.964844 46.671875 L 12.726562 61.167969 C 11.367188 62.777344 9.015625 62.886719 7.507812 61.398438 L 2.035156 56 C 0.527344 54.515625 0.636719 52.203125 2.265625 50.855469 "/><path style=" stroke:none;fill-rule:nonzero;fill:url(#linear0);" d="M 16.460938 24.257812 C 16.460938 11.597656 26.863281 1.332031 39.691406 1.332031 C 52.523438 1.332031 62.925781 11.597656 62.925781 24.257812 C 62.925781 36.910156 52.523438 47.171875 39.691406 47.171875 C 26.863281 47.171875 16.460938 36.910156 16.460938 24.257812 M 39.691406 41.441406 C 49.296875 41.441406 57.117188 33.734375 57.117188 24.257812 C 57.117188 14.777344 49.296875 7.066406 39.691406 7.066406 C 30.089844 7.066406 22.269531 14.773438 22.269531 24.257812 C 22.269531 33.730469 30.078125 41.441406 39.691406 41.441406 "/></g></svg>
