<svg xmlns="http://www.w3.org/2000/svg" xmlns:xlink="http://www.w3.org/1999/xlink" width="64" height="64" viewBox="0 0 64 64" version="1.1"><defs><linearGradient id="linear0" x1="0%" x2="100%" y1="0%" y2="100%"><stop offset="0%" style="stop-color:#ff0000; stop-opacity:1"/><stop offset="50%" style="stop-color:#ffd000; stop-opacity:1"/><stop offset="100%" style="stop-color:#ff00bb; stop-opacity:1"/></linearGradient></defs><g id="surface1"><path style=" stroke:none;fill-rule:nonzero;fill:url(#linear0);" d="M 31.988281 2 C 23.171875 2 16.007812 9.164062 16.007812 17.980469 C 16.007812 26.796875 23.171875 33.960938 31.988281 33.960938 C 40.804688 33.960938 47.96875 26.796875 47.96875 17.980469 C 47.96875 9.164062 40.804688 2 31.988281 2 Z M 31.988281 6.210938 C 38.5 6.210938 43.757812 11.46875 43.757812 17.980469 C 43.757812 24.488281 38.5 29.75 31.988281 29.75 C 25.480469 29.75 20.222656 24.488281 20.222656 17.980469 C 20.222656 11.46875 25.480469 6.210938 31.988281 6.210938 Z M 31.988281 6.210938 "/><use xlink:href="#surface16"/><path style=" stroke:none;fill-rule:nonzero;fill:url(#linear0);" d="M 15.980469 30.015625 C 7.164062 30.015625 0 37.179688 0 45.996094 C 0 54.8125 7.164062 61.976562 15.980469 61.976562 C 24.796875 61.976562 31.960938 54.8125 31.960938 45.996094 C 31.960938 37.179688 24.796875 30.015625 15.980469 30.015625 Z M 15.980469 34.226562 C 22.488281 34.226562 27.75 39.484375 27.75 45.996094 C 27.75 52.503906 22.488281 57.761719 15.980469 57.761719 C 9.472656 57.761719 4.210938 52.503906 4.210938 45.996094 C 4.210938 39.484375 9.472656 34.226562 15.980469 34.226562 Z M 15.980469 34.226562 "/><path style=" stroke:none;fill-rule:nonzero;fill:url(#linear0);" d="M 64 45.996094 C 64 54.835938 56.835938 62 47.996094 62 C 39.15625 62 31.988281 54.835938 31.988281 45.996094 C 31.988281 37.15625 39.15625 29.988281 47.996094 29.988281 C 56.835938 29.988281 64 37.15625 64 45.996094 Z M 64 45.996094 "/></g></svg>
