<svg xmlns="http://www.w3.org/2000/svg" xmlns:xlink="http://www.w3.org/1999/xlink" width="64" height="64" viewBox="0 0 64 64" version="1.1"><defs><linearGradient id="linear0" x1="0%" x2="100%" y1="0%" y2="100%"><stop offset="0%" style="stop-color:#00b54e; stop-opacity:1"/><stop offset="100%" style="stop-color:#0073ff; stop-opacity:1"/></linearGradient></defs><g id="surface1"><path style=" stroke:none;fill-rule:nonzero;fill:url(#linear0);" d="M 6.476562 2.757812 C 3.921875 2.757812 1.863281 4.714844 1.863281 7.144531 L 1.863281 15.925781 C 1.863281 18.359375 3.921875 20.3125 6.476562 20.3125 L 15.703125 20.3125 C 18.257812 20.3125 20.316406 18.359375 20.316406 15.925781 L 20.316406 11.535156 L 43.386719 11.535156 L 43.386719 15.925781 C 43.386719 18.359375 45.445312 20.3125 48.003906 20.3125 L 57.230469 20.3125 C 59.785156 20.3125 61.84375 18.359375 61.84375 15.925781 L 61.84375 7.144531 C 61.84375 4.714844 59.785156 2.757812 57.230469 2.757812 Z M 15.933594 24.703125 C 14.65625 24.703125 13.625 25.683594 13.625 26.898438 L 13.625 31.285156 C 13.625 32.503906 14.65625 33.484375 15.933594 33.484375 L 20.550781 33.484375 C 21.828125 33.484375 22.851562 32.503906 22.851562 31.285156 L 22.851562 26.898438 C 22.851562 25.683594 21.828125 24.703125 20.550781 24.703125 Z M 29.777344 24.703125 C 28.5 24.703125 27.46875 25.683594 27.46875 26.898438 L 27.46875 31.285156 C 27.46875 32.503906 28.5 33.484375 29.777344 33.484375 L 34.390625 33.484375 C 35.667969 33.484375 36.699219 32.503906 36.699219 31.285156 L 36.699219 26.898438 C 36.699219 25.683594 35.667969 24.703125 34.390625 24.703125 Z M 43.617188 24.703125 C 42.339844 24.703125 41.3125 25.683594 41.3125 26.898438 L 41.3125 31.285156 C 41.3125 32.503906 42.339844 33.484375 43.617188 33.484375 L 48.230469 33.484375 C 49.507812 33.484375 50.539062 32.503906 50.539062 31.285156 L 50.539062 26.898438 C 50.539062 25.683594 49.507812 24.703125 48.230469 24.703125 Z M 15.933594 37.871094 C 14.65625 37.871094 13.625 38.851562 13.625 40.066406 L 13.625 44.453125 C 13.625 45.671875 14.65625 46.652344 15.933594 46.652344 L 20.550781 46.652344 C 21.828125 46.652344 22.851562 45.671875 22.851562 44.453125 L 22.851562 40.066406 C 22.851562 38.851562 21.828125 37.871094 20.550781 37.871094 Z M 29.777344 37.871094 C 28.5 37.871094 27.46875 38.851562 27.46875 40.066406 L 27.46875 44.453125 C 27.46875 45.671875 28.5 46.652344 29.777344 46.652344 L 34.390625 46.652344 C 35.667969 46.652344 36.699219 45.671875 36.699219 44.453125 L 36.699219 40.066406 C 36.699219 38.851562 35.667969 37.871094 34.390625 37.871094 Z M 43.617188 37.871094 C 42.339844 37.871094 41.3125 38.851562 41.3125 40.066406 L 41.3125 44.453125 C 41.3125 45.671875 42.339844 46.652344 43.617188 46.652344 L 48.230469 46.652344 C 49.507812 46.652344 50.539062 45.671875 50.539062 44.453125 L 50.539062 40.066406 C 50.539062 38.851562 49.507812 37.871094 48.230469 37.871094 Z M 15.933594 51.039062 C 14.65625 51.039062 13.625 52.023438 13.625 53.234375 L 13.625 57.625 C 13.625 58.839844 14.65625 59.820312 15.933594 59.820312 L 20.550781 59.820312 C 21.828125 59.820312 22.851562 58.839844 22.851562 57.625 L 22.851562 53.234375 C 22.851562 52.023438 21.828125 51.039062 20.550781 51.039062 Z M 29.777344 51.039062 C 28.5 51.039062 27.46875 52.023438 27.46875 53.234375 L 27.46875 57.625 C 27.46875 58.839844 28.5 59.820312 29.777344 59.820312 L 34.390625 59.820312 C 35.667969 59.820312 36.699219 58.839844 36.699219 57.625 L 36.699219 53.234375 C 36.699219 52.023438 35.667969 51.039062 34.390625 51.039062 Z M 43.617188 51.039062 C 42.339844 51.039062 41.3125 52.023438 41.3125 53.234375 L 41.3125 57.625 C 41.3125 58.839844 42.339844 59.820312 43.617188 59.820312 L 48.230469 59.820312 C 49.507812 59.820312 50.539062 58.839844 50.539062 57.625 L 50.539062 53.234375 C 50.539062 52.023438 49.507812 51.039062 48.230469 51.039062 Z M 43.617188 51.039062 "/></g></svg>
