<svg xmlns="http://www.w3.org/2000/svg" xmlns:xlink="http://www.w3.org/1999/xlink" width="64" height="64" viewBox="0 0 64 64" version="1.1"><defs><linearGradient id="linear0" x1="0%" x2="0%" y1="0%" y2="100%"><stop offset="0%" style="stop-color:#00b54e; stop-opacity:1"/><stop offset="50%" style="stop-color:#ffd000; stop-opacity:1"/><stop offset="100%" style="stop-color:#ff00bb; stop-opacity:1"/></linearGradient></defs><g id="surface1"><path style=" stroke:none;fill-rule:nonzero;fill:url(#linear0);" d="M 47.34375 23.964844 L 38.652344 28.582031 L 38.652344 40.117188 L 47.34375 44.734375 L 49.519531 43.578125 L 49.519531 25.121094 Z M 47.34375 23.964844 "/><path style=" stroke:none;fill-rule:nonzero;fill:url(#linear0);" d="M 14.738281 23.964844 L 23.4375 19.347656 L 23.4375 7.8125 L 14.738281 3.195312 L 6.046875 7.8125 L 6.046875 19.347656 Z M 14.738281 23.964844 "/><path style=" stroke:none;fill-rule:nonzero;fill:url(#linear0);" d="M 47.34375 44.734375 L 56.042969 40.117188 L 56.042969 28.582031 L 47.34375 23.964844 L 38.652344 28.582031 L 38.652344 40.117188 Z M 47.34375 44.734375 "/><path style=" stroke:none;fill-rule:nonzero;fill:url(#linear0);" d="M 20.949219 44.1875 C 20.546875 44.1875 20.175781 44.421875 19.992188 44.800781 C 19.808594 45.179688 19.832031 45.632812 20.054688 45.984375 L 23.359375 51.222656 C 19.949219 53.71875 17.710938 57.894531 17.710938 62.648438 L 43.796875 62.648438 C 43.796875 57.917969 41.554688 53.738281 38.140625 51.222656 L 41.445312 45.984375 C 41.675781 45.632812 41.699219 45.164062 41.503906 44.789062 C 41.3125 44.402344 40.929688 44.171875 40.523438 44.1875 C 40.167969 44.191406 39.835938 44.386719 39.644531 44.714844 L 36.25 50.085938 C 34.582031 49.261719 32.726562 48.789062 30.753906 48.789062 C 28.773438 48.789062 26.925781 49.261719 25.253906 50.085938 L 21.863281 44.714844 C 21.660156 44.382812 21.316406 44.179688 20.949219 44.1875 Z M 25.289062 55.71875 C 25.890625 55.71875 26.378906 56.238281 26.378906 56.875 C 26.378906 57.511719 25.890625 58.03125 25.289062 58.03125 C 24.691406 58.03125 24.207031 57.511719 24.207031 56.875 C 24.207031 56.238281 24.691406 55.71875 25.289062 55.71875 Z M 36.160156 55.71875 C 36.757812 55.71875 37.25 56.238281 37.25 56.875 C 37.25 57.511719 36.757812 58.03125 36.160156 58.03125 C 35.5625 58.03125 35.070312 57.511719 35.070312 56.875 C 35.070312 56.238281 35.5625 55.71875 36.160156 55.71875 Z M 36.160156 55.71875 "/><path style=" stroke:none;fill-rule:nonzero;fill:url(#linear0);" d="M 56.042969 19.347656 L 62.5625 15.886719 L 62.5625 6.65625 L 56.042969 3.195312 L 49.519531 6.65625 L 49.519531 15.886719 Z M 56.042969 19.347656 "/><path style=" stroke:none;fill-rule:nonzero;fill:url(#linear0);" d="M 8.21875 45.890625 L 14.738281 42.429688 L 14.738281 33.191406 L 8.21875 29.730469 L 1.695312 33.191406 L 1.695312 42.429688 Z M 8.21875 45.890625 "/></g></svg>
