<svg xmlns="http://www.w3.org/2000/svg" xmlns:xlink="http://www.w3.org/1999/xlink" width="64" height="64" viewBox="0 0 64 64" version="1.1"><defs><linearGradient id="linear0" x1="0%" x2="100%" y1="0%" y2="100%"><stop offset="0%" style="stop-color:#ae00ff; stop-opacity:1"/><stop offset="100%" style="stop-color:#0084ff; stop-opacity:1"/></linearGradient></defs><g id="surface1"><path style=" stroke:none;fill-rule:nonzero;fill:url(#linear0);" d="M 39.40625 1.554688 C 39.40625 1.554688 44.09375 2.558594 44.582031 6.582031 C 45.316406 12.667969 36.171875 13.183594 36.171875 16.796875 C 36.171875 20.414062 43.550781 22.046875 43.273438 25.898438 C 43.007812 29.511719 35.816406 31.289062 35.816406 31.289062 C 48.191406 29.4375 52.074219 23.917969 52.496094 19.25 C 52.914062 14.582031 47.167969 11.214844 47.167969 11.214844 C 48.464844 2.359375 39.40625 1.554688 39.40625 1.554688 M 39.023438 2.792969 C 39.023438 2.792969 40.613281 3.652344 39.988281 5.324219 C 39.359375 6.992188 37.207031 7.113281 30.851562 7.234375 C 25.464844 7.34375 17.644531 7.929688 12.5 12.828125 C 7.109375 17.964844 7.96875 26.371094 19.929688 29.734375 C 19.929688 29.734375 7.015625 31.734375 7.257812 38.210938 C 7.5 44.652344 15.8125 46.199219 28.746094 46.441406 C 41.867188 46.6875 46.835938 47.859375 46.835938 50.652344 C 46.835938 52.914062 42.859375 54.183594 36.816406 54.382812 C 30.46875 54.582031 26 53.753906 25.960938 52.160156 C 25.902344 50.015625 32 51.074219 32 51.074219 C 32 51.074219 29.746094 50.175781 26.789062 50.296875 C 24.675781 50.375 23.214844 51.339844 23.171875 52.570312 C 23.105469 54.382812 24.902344 55.90625 29.804688 56.636719 C 37.367188 57.761719 47.175781 57.683594 53.523438 54.183594 C 58.261719 51.574219 58.808594 47.382812 57.089844 44.707031 C 53.464844 39.054688 42.441406 37.488281 34.539062 37.261719 C 27.667969 37.066406 18.914062 36.640625 18.914062 34.417969 C 18.914062 31.386719 28.6875 33.132812 28.5625 29.398438 C 28.453125 26.058594 19.332031 25.945312 20.601562 17.675781 C 21.1875 13.84375 26.4375 11.757812 31.039062 10.84375 C 35.644531 9.925781 41.496094 8.125 41.609375 5.851562 C 41.71875 3.574219 39.015625 2.792969 39.015625 2.792969 Z M 31.53125 15.539062 C 30.820312 15.554688 29.777344 16.753906 29.949219 17.976562 C 30.125 19.195312 31.417969 20.296875 32.15625 19.957031 C 32.730469 19.6875 31.664062 18.988281 31.726562 17.761719 C 31.792969 16.371094 32.433594 15.519531 31.527344 15.539062 Z M 26.5625 16.808594 C 25.875 16.960938 25.121094 18.339844 25.570312 19.492188 C 26.015625 20.652344 27.539062 21.488281 28.179688 21.007812 C 28.683594 20.632812 27.484375 20.15625 27.261719 18.941406 C 27.007812 17.570312 27.441406 16.609375 26.5625 16.808594 Z M 32.121094 23.558594 C 31.761719 23.546875 31.433594 23.59375 31.203125 23.730469 C 30.480469 24.15625 32.339844 24.601562 32.789062 25.890625 C 33.289062 27.347656 32.734375 28.402344 34.039062 28.140625 C 35.070312 27.9375 36.066406 26.421875 35.289062 25.207031 C 34.699219 24.289062 33.222656 23.609375 32.125 23.558594 Z M 14.140625 47.9375 C 10.210938 47.769531 4.941406 48.421875 4.746094 53.070312 C 4.71875 53.796875 5.054688 62.550781 30.40625 62.550781 C 55.757812 62.550781 58.886719 51.917969 58.886719 51.917969 C 58.886719 51.917969 56.5625 60.035156 31.546875 59.410156 C 19.253906 59.105469 13.164062 56.378906 13.164062 52.875 C 13.164062 48.679688 18.359375 48.4375 18.359375 48.4375 C 18.359375 48.4375 16.488281 48.050781 14.132812 47.945312 Z M 14.140625 47.9375 "/></g></svg>
