<svg xmlns="http://www.w3.org/2000/svg" xmlns:xlink="http://www.w3.org/1999/xlink" width="64" height="64" viewBox="0 0 64 64" version="1.1"><defs><linearGradient id="linear0" x1="0%" x2="0%" y1="0%" y2="100%"><stop offset="0%" style="stop-color:#00b54e; stop-opacity:1"/><stop offset="50%" style="stop-color:#ffd000; stop-opacity:1"/><stop offset="100%" style="stop-color:#ff00bb; stop-opacity:1"/></linearGradient></defs><g id="surface1"><path style=" stroke:none;fill-rule:nonzero;fill:url(#linear0);" d="M 31.199219 2.050781 C 22.929688 2.050781 15.421875 5.035156 9.722656 9.9375 L 3.953125 4.417969 L 3.953125 18.621094 L 18.816406 18.621094 L 13.21875 13.273438 C 18.023438 9.246094 24.292969 6.785156 31.199219 6.785156 C 38.113281 6.785156 44.382812 9.246094 49.1875 13.273438 L 43.585938 18.621094 L 58.453125 18.621094 L 58.453125 4.417969 L 52.703125 9.910156 C 47.007812 5.035156 39.476562 2.050781 31.199219 2.050781 Z M 31.210938 16.257812 L 23.777344 23.355469 L 28.730469 23.355469 L 28.726562 30.457031 L 21.292969 30.457031 L 21.292969 25.726562 L 13.859375 32.828125 L 21.292969 39.929688 L 21.292969 35.195312 L 28.726562 35.195312 L 28.726562 42.296875 L 23.773438 42.296875 L 31.199219 49.398438 L 38.632812 42.296875 L 33.679688 42.296875 L 33.679688 35.195312 L 41.113281 35.195312 L 41.113281 39.929688 L 48.542969 32.828125 L 41.113281 25.726562 L 41.113281 30.457031 L 33.679688 30.457031 L 33.679688 23.355469 L 38.632812 23.351562 Z M 3.957031 47.035156 L 3.957031 61.234375 L 9.707031 55.742188 C 15.402344 60.621094 22.933594 63.605469 31.210938 63.605469 C 39.480469 63.605469 46.988281 60.621094 52.6875 55.71875 L 58.457031 61.234375 L 58.457031 47.035156 L 43.59375 47.035156 L 49.191406 52.382812 C 44.386719 56.40625 38.117188 58.871094 31.210938 58.871094 C 24.296875 58.871094 18.027344 56.40625 13.222656 52.382812 L 18.824219 47.035156 Z M 3.957031 47.035156 "/></g></svg>
