<svg xmlns="http://www.w3.org/2000/svg" xmlns:xlink="http://www.w3.org/1999/xlink" width="64" height="64" viewBox="0 0 64 64" version="1.1"><defs><linearGradient id="linear0" x1="0%" x2="0%" y1="0%" y2="100%"><stop offset="0%" style="stop-color:#ffd000; stop-opacity:1"/><stop offset="50%" style="stop-color:#24dbdb; stop-opacity:1"/><stop offset="100%" style="stop-color:#0073ff; stop-opacity:1"/></linearGradient></defs><g id="surface1"><path style=" stroke:none;fill-rule:nonzero;fill:url(#linear0);" d="M 11.9375 2.089844 C 10.066406 2.089844 8.550781 3.773438 8.550781 5.859375 C 8.550781 7.941406 10.066406 9.628906 11.9375 9.628906 C 13.808594 9.628906 15.324219 7.941406 15.324219 5.859375 C 15.324219 3.773438 13.808594 2.089844 11.9375 2.089844 Z M 32.261719 2.089844 C 30.390625 2.089844 28.875 3.773438 28.875 5.859375 C 28.875 7.941406 30.390625 9.628906 32.261719 9.628906 C 34.132812 9.628906 35.648438 7.941406 35.648438 5.859375 C 35.648438 3.773438 34.132812 2.089844 32.261719 2.089844 Z M 52.589844 2.089844 C 50.71875 2.089844 49.203125 3.773438 49.203125 5.859375 C 49.203125 7.941406 50.71875 9.628906 52.589844 9.628906 C 54.460938 9.628906 55.976562 7.941406 55.976562 5.859375 C 55.976562 3.773438 54.460938 2.089844 52.589844 2.089844 Z M 11.9375 17.175781 C 9.128906 17.175781 6.855469 19.703125 6.855469 22.832031 C 6.855469 25.957031 9.128906 28.484375 11.9375 28.484375 C 14.742188 28.484375 17.019531 25.957031 17.019531 22.832031 C 17.019531 19.703125 14.742188 17.175781 11.9375 17.175781 Z M 32.261719 17.175781 C 29.457031 17.175781 27.183594 19.703125 27.183594 22.832031 C 27.183594 25.957031 29.457031 28.484375 32.261719 28.484375 C 35.070312 28.484375 37.339844 25.957031 37.339844 22.832031 C 37.339844 19.703125 35.070312 17.175781 32.261719 17.175781 Z M 52.589844 17.175781 C 49.78125 17.175781 47.503906 19.703125 47.503906 22.832031 C 47.503906 25.957031 49.78125 28.484375 52.589844 28.484375 C 55.394531 28.484375 57.667969 25.957031 57.667969 22.832031 C 57.667969 19.703125 55.394531 17.175781 52.589844 17.175781 Z M 11.9375 32.257812 C 8.195312 32.257812 5.164062 35.636719 5.164062 39.800781 C 5.164062 43.96875 8.195312 47.339844 11.9375 47.339844 C 15.679688 47.339844 18.714844 43.96875 18.714844 39.800781 C 18.714844 35.636719 15.679688 32.257812 11.9375 32.257812 Z M 32.261719 32.257812 C 28.519531 32.257812 25.484375 35.636719 25.484375 39.800781 C 25.484375 43.96875 28.519531 47.339844 32.261719 47.339844 C 36.003906 47.339844 39.039062 43.96875 39.039062 39.800781 C 39.039062 35.636719 36.003906 32.257812 32.261719 32.257812 Z M 52.589844 32.257812 C 48.847656 32.257812 45.8125 35.636719 45.8125 39.800781 C 45.8125 43.96875 48.847656 47.339844 52.589844 47.339844 C 56.332031 47.339844 59.359375 43.96875 59.359375 39.800781 C 59.359375 35.636719 56.332031 32.257812 52.589844 32.257812 Z M 11.9375 51.117188 C 6.761719 51.160156 2.445312 55.527344 1.910156 61.257812 C 2.15625 61.957031 2.765625 62.445312 3.484375 62.445312 L 22.117188 62.445312 C 22.117188 56.195312 17.566406 51.128906 11.953125 51.128906 Z M 22.097656 62.425781 L 42.425781 62.425781 C 42.425781 56.179688 37.875 51.117188 32.261719 51.117188 C 26.648438 51.117188 22.097656 56.179688 22.097656 62.425781 Z M 42.425781 62.425781 L 61.058594 62.425781 C 61.824219 62.425781 62.460938 61.859375 62.671875 61.078125 C 62.058594 55.398438 57.722656 51.121094 52.578125 51.125 C 46.964844 51.125 42.417969 56.1875 42.417969 62.441406 Z M 42.425781 62.425781 "/></g></svg>
