<svg xmlns="http://www.w3.org/2000/svg" xmlns:xlink="http://www.w3.org/1999/xlink" width="64" height="64" viewBox="0 0 64 64" version="1.1"><defs><linearGradient id="linear0" x1="0%" x2="100%" y1="0%" y2="100%"><stop offset="0%" style="stop-color:#e5ff00; stop-opacity:1"/><stop offset="50%" style="stop-color:#0073ff; stop-opacity:1"/><stop offset="100%" style="stop-color:#ff0000; stop-opacity:1"/></linearGradient></defs><g id="surface1"><path style=" stroke:none;fill-rule:nonzero;fill:url(#linear0);" d="M 39.117188 2.191406 C 36.941406 4.546875 32.59375 9.253906 32.59375 16.3125 L 32.59375 21.019531 L 31.507812 21.019531 L 32.59375 23.371094 L 32.59375 25.726562 L 28.242188 25.726562 L 28.242188 23.371094 L 29.332031 21.019531 L 22.808594 21.019531 L 23.894531 23.371094 L 23.894531 25.726562 L 19.542969 25.726562 L 19.542969 24.550781 C 19.542969 23.894531 19.058594 23.371094 18.457031 23.371094 C 17.855469 23.371094 17.371094 23.894531 17.371094 24.550781 L 17.371094 25.726562 L 13.019531 25.726562 C 13.019531 24.421875 12.050781 23.371094 10.84375 23.371094 C 9.640625 23.371094 8.671875 24.421875 8.671875 25.726562 L 6.496094 25.726562 L 4.320312 24.550781 L 4.320312 31.609375 L 6.496094 30.429688 L 8.671875 30.429688 C 8.671875 31.738281 9.640625 32.785156 10.84375 32.785156 C 12.050781 32.785156 13.019531 31.738281 13.019531 30.429688 L 17.371094 30.429688 L 17.371094 31.609375 C 17.371094 32.257812 17.855469 32.785156 18.457031 32.785156 C 19.058594 32.785156 19.542969 32.257812 19.542969 31.609375 L 19.542969 30.429688 L 23.894531 30.429688 L 23.894531 42.199219 C 26.070312 40.550781 28.242188 37.488281 28.242188 30.429688 L 32.59375 30.429688 L 32.59375 35.140625 L 31.507812 36.3125 L 32.59375 37.488281 L 32.59375 39.84375 C 32.59375 44.546875 30.417969 46.902344 28.242188 49.257812 L 30.417969 53.960938 C 32.59375 51.613281 36.941406 46.902344 36.941406 39.84375 L 36.941406 37.488281 L 38.03125 36.3125 L 36.941406 35.140625 L 36.941406 23.371094 L 38.03125 21.019531 L 36.941406 21.019531 L 36.941406 16.3125 C 36.941406 11.605469 39.117188 9.253906 41.292969 6.902344 Z M 38.03125 21.019531 L 39.117188 23.371094 L 39.117188 42.199219 L 38.03125 43.375 L 39.117188 44.546875 L 39.117188 49.257812 C 39.117188 53.960938 36.941406 56.316406 34.769531 58.671875 L 36.941406 63.375 C 39.117188 61.023438 43.46875 56.316406 43.46875 49.257812 L 43.46875 44.546875 L 44.550781 43.375 L 43.46875 42.199219 L 43.46875 30.429688 L 58.6875 30.429688 C 57.167969 28.078125 54.335938 25.726562 47.8125 25.726562 L 43.46875 25.726562 L 43.46875 21.019531 C 43.46875 19.71875 44.4375 18.664062 45.636719 18.664062 C 46.839844 18.664062 47.8125 19.71875 47.8125 21.019531 L 47.8125 22.195312 C 47.8125 22.847656 48.300781 23.371094 48.898438 23.371094 C 49.503906 23.371094 49.988281 22.847656 49.988281 22.195312 L 49.988281 21.019531 C 49.988281 18.421875 48.042969 16.3125 45.636719 16.3125 C 41.292969 16.3125 41.292969 21.019531 38.03125 21.019531 Z M 38.03125 21.019531 "/></g></svg>
