<svg xmlns="http://www.w3.org/2000/svg" xmlns:xlink="http://www.w3.org/1999/xlink" width="64" height="64" viewBox="0 0 64 64" version="1.1"><defs><linearGradient id="linear0" x1="0%" x2="0%" y1="0%" y2="100%"><stop offset="0%" style="stop-color:#ff0000; stop-opacity:1"/><stop offset="50%" style="stop-color:#ffd000; stop-opacity:1"/><stop offset="100%" style="stop-color:#0073ff; stop-opacity:1"/></linearGradient></defs><g id="surface1"><path style=" stroke:none;fill-rule:nonzero;fill:url(#linear0);" d="M 20.554688 12.230469 C 20.125 12.230469 19.730469 12.460938 19.472656 12.757812 C 19.21875 13.050781 19.050781 13.40625 18.90625 13.820312 C 18.617188 14.644531 18.4375 15.71875 18.304688 16.992188 C 18.039062 19.542969 17.972656 22.878906 17.886719 26.210938 C 17.804688 29.542969 17.703125 32.867188 17.378906 35.308594 C 17.21875 36.527344 16.996094 37.53125 16.734375 38.160156 C 16.601562 38.472656 16.460938 38.683594 16.355469 38.785156 C 16.253906 38.890625 16.21875 38.894531 16.152344 38.894531 C 16.035156 38.894531 16.03125 38.886719 15.96875 38.820312 C 15.90625 38.753906 15.8125 38.589844 15.742188 38.339844 C 15.601562 37.835938 15.542969 37.027344 15.503906 36.195312 C 15.460938 35.363281 15.433594 34.507812 15.246094 33.769531 C 15.152344 33.402344 15.015625 33.046875 14.753906 32.746094 C 14.492188 32.441406 14.0625 32.230469 13.621094 32.230469 C 12.863281 32.230469 12.269531 32.765625 11.992188 33.332031 C 11.714844 33.894531 11.609375 34.527344 11.511719 35.125 C 11.417969 35.722656 11.34375 36.296875 11.238281 36.640625 C 11.199219 36.769531 11.167969 36.820312 11.144531 36.863281 C 11.085938 36.855469 11.027344 36.851562 10.980469 36.800781 C 10.90625 36.71875 10.808594 36.539062 10.710938 36.304688 C 10.613281 36.070312 10.519531 35.785156 10.316406 35.496094 C 10.113281 35.203125 9.695312 34.894531 9.222656 34.894531 L 1.933594 34.894531 C 1.957031 35.339844 1.984375 35.785156 2.023438 36.230469 L 9.214844 36.230469 C 9.210938 36.234375 9.203125 36.230469 9.21875 36.253906 C 9.277344 36.335938 9.371094 36.554688 9.480469 36.816406 C 9.59375 37.082031 9.722656 37.402344 9.996094 37.699219 C 10.265625 37.996094 10.722656 38.230469 11.222656 38.230469 C 11.582031 38.230469 11.9375 38.027344 12.136719 37.785156 C 12.335938 37.546875 12.4375 37.289062 12.515625 37.023438 C 12.675781 36.492188 12.742188 35.898438 12.832031 35.332031 C 12.921875 34.761719 13.035156 34.226562 13.1875 33.917969 C 13.339844 33.605469 13.382812 33.5625 13.621094 33.5625 C 13.714844 33.5625 13.691406 33.554688 13.746094 33.617188 C 13.796875 33.679688 13.886719 33.847656 13.953125 34.101562 C 14.085938 34.613281 14.132812 35.425781 14.171875 36.261719 C 14.214844 37.097656 14.246094 37.953125 14.457031 38.699219 C 14.566406 39.074219 14.714844 39.429688 14.996094 39.730469 C 15.273438 40.027344 15.707031 40.230469 16.152344 40.230469 C 16.589844 40.230469 17.003906 40.023438 17.292969 39.738281 C 17.585938 39.449219 17.789062 39.089844 17.964844 38.675781 C 18.3125 37.84375 18.535156 36.761719 18.703125 35.480469 C 19.039062 32.921875 19.136719 29.582031 19.222656 26.246094 C 19.304688 22.910156 19.375 19.582031 19.628906 17.128906 C 19.757812 15.90625 19.941406 14.894531 20.164062 14.261719 C 20.277344 13.941406 20.398438 13.726562 20.480469 13.628906 C 20.523438 13.582031 20.511719 13.601562 20.519531 13.597656 C 20.535156 13.617188 20.550781 13.628906 20.597656 13.710938 C 20.722656 13.925781 20.878906 14.339844 21.011719 14.886719 C 21.285156 15.988281 21.496094 17.632812 21.660156 19.617188 C 21.988281 23.582031 22.125 28.910156 22.257812 34.246094 C 22.390625 39.578125 22.519531 44.914062 22.839844 48.949219 C 23 50.964844 23.207031 52.648438 23.5 53.882812 C 23.648438 54.5 23.808594 55.003906 24.042969 55.410156 C 24.273438 55.820312 24.667969 56.230469 25.222656 56.230469 C 25.496094 56.230469 25.753906 56.097656 25.925781 55.941406 C 26.09375 55.785156 26.203125 55.613281 26.292969 55.425781 C 26.472656 55.046875 26.585938 54.597656 26.683594 54.046875 C 26.882812 52.945312 26.996094 51.445312 27.066406 49.648438 C 27.203125 46.058594 27.152344 41.308594 27.136719 36.558594 C 27.125 31.8125 27.144531 27.070312 27.417969 23.550781 C 27.550781 21.789062 27.753906 20.332031 28.023438 19.375 C 28.15625 18.898438 28.316406 18.546875 28.4375 18.371094 C 28.558594 18.195312 28.570312 18.230469 28.554688 18.230469 C 28.515625 18.230469 28.5 18.175781 28.601562 18.324219 C 28.703125 18.46875 28.839844 18.777344 28.957031 19.203125 C 29.195312 20.050781 29.378906 21.355469 29.503906 22.925781 C 29.761719 26.074219 29.816406 30.320312 29.886719 34.574219 C 29.957031 38.824219 30.042969 43.082031 30.371094 46.316406 C 30.539062 47.933594 30.757812 49.292969 31.097656 50.3125 C 31.269531 50.824219 31.464844 51.253906 31.75 51.601562 C 32.035156 51.949219 32.46875 52.230469 32.957031 52.230469 C 33.40625 52.230469 33.820312 51.96875 34.074219 51.644531 C 34.328125 51.324219 34.488281 50.941406 34.621094 50.492188 C 34.890625 49.59375 35.039062 48.421875 35.128906 47.019531 C 35.308594 44.222656 35.246094 40.550781 35.203125 36.886719 C 35.160156 33.222656 35.136719 29.566406 35.382812 26.871094 C 35.507812 25.527344 35.703125 24.417969 35.960938 23.71875 C 36.089844 23.371094 36.230469 23.132812 36.339844 23.015625 C 36.449219 22.898438 36.484375 22.894531 36.554688 22.894531 C 36.574219 22.894531 36.558594 22.875 36.628906 22.949219 C 36.703125 23.027344 36.816406 23.210938 36.917969 23.488281 C 37.121094 24.042969 37.285156 24.945312 37.394531 26.042969 C 37.609375 28.242188 37.628906 31.234375 37.667969 34.238281 C 37.703125 37.238281 37.753906 40.25 38.058594 42.566406 C 38.210938 43.722656 38.421875 44.707031 38.765625 45.472656 C 38.9375 45.855469 39.148438 46.191406 39.441406 46.457031 C 39.738281 46.71875 40.136719 46.894531 40.554688 46.894531 C 40.917969 46.894531 41.273438 46.746094 41.527344 46.523438 C 41.785156 46.300781 41.964844 46.019531 42.109375 45.707031 C 42.402344 45.085938 42.574219 44.3125 42.699219 43.40625 C 42.957031 41.589844 43.019531 39.25 43.09375 36.917969 C 43.171875 34.585938 43.261719 32.265625 43.539062 30.589844 C 43.679688 29.75 43.871094 29.074219 44.082031 28.675781 C 44.292969 28.28125 44.402344 28.230469 44.554688 28.230469 C 44.78125 28.230469 44.863281 28.277344 45.035156 28.550781 C 45.207031 28.820312 45.371094 29.320312 45.480469 29.964844 C 45.695312 31.246094 45.714844 33.066406 45.738281 34.902344 C 45.765625 36.738281 45.792969 38.59375 46.097656 40.070312 C 46.246094 40.808594 46.460938 41.460938 46.84375 41.988281 C 47.226562 42.515625 47.851562 42.894531 48.554688 42.894531 C 49.15625 42.894531 49.714844 42.621094 50.074219 42.210938 C 50.4375 41.800781 50.644531 41.292969 50.792969 40.730469 C 51.082031 39.613281 51.125 38.253906 51.148438 36.910156 C 51.171875 35.570312 51.175781 34.246094 51.3125 33.332031 C 51.382812 32.878906 51.496094 32.527344 51.589844 32.367188 C 51.6875 32.207031 51.667969 32.230469 51.757812 32.230469 C 51.925781 32.230469 51.957031 32.25 52.046875 32.347656 C 52.136719 32.449219 52.25 32.664062 52.332031 32.976562 C 52.496094 33.605469 52.546875 34.582031 52.578125 35.578125 C 52.609375 36.574219 52.621094 37.59375 52.816406 38.457031 C 52.910156 38.886719 53.050781 39.289062 53.324219 39.632812 C 53.601562 39.976562 54.066406 40.230469 54.554688 40.230469 C 54.953125 40.230469 55.34375 40.070312 55.613281 39.824219 C 55.882812 39.574219 56.042969 39.273438 56.15625 38.960938 C 56.386719 38.339844 56.457031 37.636719 56.535156 36.96875 C 56.609375 36.300781 56.6875 35.660156 56.816406 35.277344 C 56.882812 35.085938 56.960938 34.96875 56.996094 34.929688 C 57.035156 34.890625 57.015625 34.894531 57.089844 34.894531 C 57.285156 34.894531 57.269531 34.902344 57.394531 35.148438 C 57.515625 35.398438 57.621094 35.855469 57.71875 36.355469 C 57.816406 36.851562 57.902344 37.390625 58.144531 37.890625 C 58.382812 38.390625 58.933594 38.894531 59.621094 38.894531 C 60.191406 38.894531 60.703125 38.542969 60.933594 38.144531 C 61.160156 37.75 61.222656 37.347656 61.273438 36.992188 C 61.324219 36.660156 61.363281 36.378906 61.402344 36.230469 L 63.089844 36.230469 C 63.121094 35.785156 63.140625 35.339844 63.152344 34.894531 L 61.222656 34.894531 C 60.945312 34.894531 60.644531 35.023438 60.464844 35.207031 C 60.28125 35.394531 60.199219 35.59375 60.140625 35.773438 C 60.023438 36.136719 60 36.484375 59.953125 36.796875 C 59.90625 37.109375 59.835938 37.375 59.777344 37.480469 C 59.71875 37.582031 59.785156 37.5625 59.621094 37.5625 C 59.445312 37.5625 59.464844 37.566406 59.347656 37.316406 C 59.226562 37.066406 59.125 36.601562 59.027344 36.101562 C 58.929688 35.601562 58.835938 35.058594 58.589844 34.558594 C 58.339844 34.054688 57.785156 33.5625 57.089844 33.5625 C 56.695312 33.5625 56.308594 33.730469 56.054688 33.984375 C 55.800781 34.238281 55.660156 34.539062 55.554688 34.847656 C 55.347656 35.464844 55.285156 36.15625 55.207031 36.820312 C 55.132812 37.484375 55.046875 38.121094 54.90625 38.496094 C 54.835938 38.6875 54.757812 38.796875 54.710938 38.839844 C 54.664062 38.886719 54.65625 38.894531 54.554688 38.894531 C 54.433594 38.894531 54.441406 38.894531 54.367188 38.800781 C 54.292969 38.710938 54.1875 38.484375 54.117188 38.164062 C 53.972656 37.523438 53.941406 36.539062 53.910156 35.535156 C 53.878906 34.53125 53.851562 33.507812 53.621094 32.636719 C 53.503906 32.203125 53.34375 31.792969 53.035156 31.457031 C 52.730469 31.117188 52.253906 30.894531 51.753906 30.894531 C 51.199219 30.898438 50.703125 31.257812 50.449219 31.679688 C 50.195312 32.101562 50.078125 32.589844 49.996094 33.132812 C 49.832031 34.222656 49.839844 35.566406 49.816406 36.886719 C 49.792969 38.210938 49.730469 39.515625 49.5 40.394531 C 49.386719 40.835938 49.226562 41.15625 49.074219 41.328125 C 48.921875 41.5 48.8125 41.5625 48.554688 41.5625 C 48.257812 41.5625 48.121094 41.480469 47.921875 41.207031 C 47.722656 40.929688 47.53125 40.4375 47.402344 39.800781 C 47.140625 38.53125 47.097656 36.714844 47.074219 34.886719 C 47.046875 33.054688 47.042969 31.210938 46.792969 29.742188 C 46.671875 29.007812 46.496094 28.367188 46.160156 27.835938 C 45.828125 27.308594 45.230469 26.894531 44.554688 26.894531 C 43.820312 26.894531 43.234375 27.425781 42.902344 28.050781 C 42.574219 28.675781 42.375 29.457031 42.222656 30.371094 C 41.921875 32.195312 41.839844 34.539062 41.761719 36.871094 C 41.6875 39.207031 41.621094 41.535156 41.378906 43.21875 C 41.261719 44.0625 41.089844 44.746094 40.902344 45.144531 C 40.808594 45.34375 40.714844 45.464844 40.65625 45.515625 C 40.597656 45.566406 40.597656 45.5625 40.554688 45.5625 C 40.472656 45.5625 40.429688 45.550781 40.332031 45.464844 C 40.234375 45.375 40.105469 45.195312 39.980469 44.921875 C 39.734375 44.375 39.527344 43.484375 39.382812 42.390625 C 39.097656 40.207031 39.039062 37.21875 39 34.222656 C 38.964844 31.222656 38.945312 28.214844 38.71875 25.910156 C 38.605469 24.761719 38.445312 23.789062 38.167969 23.027344 C 38.027344 22.648438 37.863281 22.320312 37.605469 22.042969 C 37.351562 21.769531 36.964844 21.5625 36.554688 21.5625 C 36.097656 21.5625 35.664062 21.789062 35.371094 22.101562 C 35.074219 22.414062 34.875 22.804688 34.707031 23.257812 C 34.375 24.164062 34.183594 25.347656 34.054688 26.75 C 33.800781 29.558594 33.828125 33.234375 33.871094 36.902344 C 33.914062 40.574219 33.972656 44.234375 33.796875 46.933594 C 33.710938 48.285156 33.558594 49.402344 33.347656 50.109375 C 33.242188 50.464844 33.117188 50.710938 33.027344 50.816406 C 32.941406 50.925781 32.960938 50.894531 32.957031 50.894531 C 32.929688 50.894531 32.90625 50.90625 32.785156 50.757812 C 32.664062 50.609375 32.503906 50.3125 32.363281 49.890625 C 32.085938 49.050781 31.859375 47.753906 31.699219 46.183594 C 31.378906 43.042969 31.289062 38.796875 31.21875 34.550781 C 31.148438 30.300781 31.097656 26.046875 30.835938 22.820312 C 30.707031 21.207031 30.527344 19.855469 30.242188 18.84375 C 30.101562 18.339844 29.941406 17.914062 29.695312 17.5625 C 29.449219 17.210938 29.042969 16.894531 28.554688 16.894531 C 28.042969 16.894531 27.609375 17.226562 27.34375 17.605469 C 27.078125 17.988281 26.898438 18.457031 26.738281 19.015625 C 26.425781 20.136719 26.226562 21.644531 26.089844 23.449219 C 25.8125 27.054688 25.792969 31.808594 25.804688 36.5625 C 25.820312 41.316406 25.867188 46.066406 25.730469 49.597656 C 25.664062 51.367188 25.546875 52.832031 25.371094 53.808594 C 25.304688 54.1875 25.226562 54.410156 25.152344 54.613281 C 25.039062 54.382812 24.914062 54.058594 24.796875 53.574219 C 24.535156 52.472656 24.328125 50.824219 24.167969 48.839844 C 23.855469 44.875 23.722656 39.542969 23.589844 34.210938 C 23.460938 28.878906 23.328125 23.542969 22.992188 19.507812 C 22.824219 17.492188 22.613281 15.804688 22.308594 14.566406 C 22.15625 13.949219 21.988281 13.445312 21.746094 13.035156 C 21.507812 12.625 21.109375 12.230469 20.554688 12.230469 Z M 20.554688 12.230469 "/></g></svg>
