<svg xmlns="http://www.w3.org/2000/svg" xmlns:xlink="http://www.w3.org/1999/xlink" width="64" height="64" viewBox="0 0 64 64" version="1.1"><defs><linearGradient id="linear0" x1="100%" x2="0%" y1="100%" y2="0%"><stop offset="0%" style="stop-color:#00b54e; stop-opacity:1"/><stop offset="100%" style="stop-color:#ff0000; stop-opacity:1"/></linearGradient></defs><g id="surface1"><path style=" stroke:none;fill-rule:nonzero;fill:url(#linear0);" d="M 8.523438 1.203125 C 5.601562 1.203125 3.234375 3.382812 3.234375 6.074219 C 3.234375 8.761719 5.601562 10.941406 8.523438 10.941406 C 10.40625 10.933594 12.136719 10.007812 13.082031 8.507812 L 18.089844 8.507812 L 43.777344 29.796875 C 44.265625 30.199219 44.894531 30.417969 45.550781 30.417969 L 51.546875 30.417969 C 52.460938 31.875 54.171875 32.855469 56.125 32.855469 C 59.050781 32.855469 61.417969 30.671875 61.417969 27.984375 C 61.417969 25.292969 59.050781 23.117188 56.125 23.117188 C 54.171875 23.117188 52.460938 24.09375 51.546875 25.550781 L 46.5625 25.550781 L 20.875 4.261719 C 20.386719 3.859375 19.757812 3.636719 19.101562 3.636719 L 13.101562 3.636719 C 12.15625 2.132812 10.414062 1.203125 8.523438 1.203125 Z M 8.523438 1.203125 "/><path style=" stroke:none;fill-rule:nonzero;fill:url(#linear0);" d="M 10.742188 30.96875 C 7.9375 30.96875 5.664062 33.101562 5.664062 35.730469 C 5.664062 38.363281 7.9375 40.492188 10.742188 40.492188 C 12.542969 40.488281 14.210938 39.582031 15.113281 38.113281 L 19.921875 38.113281 L 44.578125 58.9375 C 45.042969 59.332031 45.648438 59.546875 46.277344 59.546875 L 52.03125 59.546875 C 52.910156 60.972656 54.550781 61.929688 56.429688 61.929688 C 59.234375 61.929688 61.507812 59.796875 61.507812 57.167969 C 61.507812 54.535156 59.234375 52.402344 56.429688 52.402344 C 54.550781 52.402344 52.910156 53.359375 52.03125 54.785156 L 47.25 54.785156 L 22.59375 33.960938 C 22.128906 33.566406 21.519531 33.351562 20.894531 33.351562 L 15.132812 33.351562 C 14.226562 31.878906 12.554688 30.96875 10.742188 30.96875 Z M 10.742188 30.96875 "/></g></svg>
