<svg xmlns="http://www.w3.org/2000/svg" xmlns:xlink="http://www.w3.org/1999/xlink" width="64" height="64" viewBox="0 0 64 64" version="1.1"><defs><linearGradient id="linear0" x1="0%" x2="100%" y1="0%" y2="100%"><stop offset="0%" style="stop-color:#6a00ff; stop-opacity:1"/><stop offset="50%" style="stop-color:#e0dd02; stop-opacity:1"/><stop offset="100%" style="stop-color:#00b54e; stop-opacity:1"/></linearGradient></defs><g id="surface1"><path style=" stroke:none;fill-rule:nonzero;fill:url(#linear0);" d="M 32.359375 1.515625 L 5.394531 17.707031 L 5.394531 46.054688 L 32.359375 62.246094 L 59.324219 46.054688 L 59.324219 17.707031 Z M 32.359375 6.253906 L 55.175781 19.734375 L 55.175781 44.03125 L 32.359375 57.511719 L 9.542969 44.03125 L 9.542969 19.734375 Z M 13.695312 19.734375 L 20.953125 21.761719 L 30.285156 31.882812 L 20.953125 42.003906 L 13.695312 44.03125 L 24.066406 44.03125 L 32.359375 35.929688 L 40.65625 44.03125 L 51.027344 44.03125 L 43.769531 42.003906 L 34.433594 31.882812 L 43.769531 21.761719 L 51.027344 19.734375 L 40.65625 19.734375 L 32.359375 27.832031 L 24.066406 19.734375 Z M 13.695312 19.734375 "/></g></svg>
