<svg xmlns="http://www.w3.org/2000/svg" xmlns:xlink="http://www.w3.org/1999/xlink" width="64" height="64" viewBox="0 0 64 64" version="1.1"><defs><linearGradient id="linear0" x1="0%" x2="100%" y1="0%" y2="100%"><stop offset="0%" style="stop-color:#e5ff00; stop-opacity:1"/><stop offset="50%" style="stop-color:#0073ff; stop-opacity:1"/><stop offset="100%" style="stop-color:#ff0000; stop-opacity:1"/></linearGradient></defs><g id="surface1"><path style=" stroke:none;fill-rule:nonzero;fill:url(#linear0);" d="M 32.816406 1.253906 C 24.234375 1.363281 15.878906 5.160156 10.109375 11.980469 L 10.078125 11.980469 L 24.382812 28.871094 L 34.523438 1.167969 C 33.953125 1.144531 33.382812 1.136719 32.808594 1.144531 Z M 38.523438 2.546875 L 31.269531 23.632812 L 59.800781 18.757812 C 55.582031 10.507812 47.761719 4.429688 38.5 2.652344 Z M 6.976562 14.847656 C 2.054688 22.703125 0.765625 32.609375 3.902344 41.722656 L 25.402344 37.609375 L 6.894531 14.871094 Z M 3.902344 41.722656 L 3.886719 41.730469 L 3.902344 41.730469 Z M 60.761719 22.890625 C 60.761719 22.890625 60.765625 22.894531 60.765625 22.898438 L 60.785156 22.894531 Z M 60.765625 22.898438 L 39.265625 27.011719 L 57.773438 49.753906 C 62.71875 41.898438 63.984375 31.996094 60.847656 22.878906 Z M 40.273438 35.714844 L 30.125 63.417969 C 39.308594 63.820312 48.40625 59.984375 54.636719 52.710938 L 54.667969 52.710938 L 40.347656 35.820312 Z M 33.421875 41.007812 L 4.890625 45.886719 C 9.128906 54.15625 16.945312 60.234375 26.1875 61.988281 L 33.460938 40.90625 Z M 33.421875 41.007812 "/></g></svg>
