<svg xmlns="http://www.w3.org/2000/svg" xmlns:xlink="http://www.w3.org/1999/xlink" width="64" height="64" viewBox="0 0 64 64" version="1.1"><defs><linearGradient id="linear0" x1="0%" x2="100%" y1="0%" y2="100%"><stop offset="0%" style="stop-color:#6a00ff; stop-opacity:1"/><stop offset="50%" style="stop-color:#e0dd02; stop-opacity:1"/><stop offset="100%" style="stop-color:#00b54e; stop-opacity:1"/></linearGradient></defs><g id="surface1"><path style=" stroke:none;fill-rule:nonzero;fill:url(#linear0);" d="M 42.84375 1.570312 C 33.058594 1.570312 25.125 9.957031 25.125 20.308594 C 25.125 30.652344 33.058594 39.039062 42.84375 39.039062 C 52.628906 39.039062 60.558594 30.652344 60.558594 20.308594 C 60.558594 9.957031 52.628906 1.570312 42.84375 1.570312 Z M 22.9375 21 C 16.359375 23.058594 11.847656 29.445312 11.839844 36.699219 C 11.839844 45.753906 18.777344 53.09375 27.34375 53.09375 C 34.203125 53.089844 40.246094 48.316406 42.199219 41.359375 C 31.714844 40.992188 23.292969 32.09375 22.9375 21.007812 Z M 9.890625 39.917969 C 5.722656 41.710938 2.988281 45.992188 2.984375 50.75 C 2.984375 57.21875 7.941406 62.460938 14.054688 62.460938 C 18.566406 62.457031 22.625 59.5625 24.316406 55.136719 C 16.949219 53.789062 11.179688 47.691406 9.890625 39.910156 Z M 9.890625 39.917969 "/></g></svg>
