<svg xmlns="http://www.w3.org/2000/svg" xmlns:xlink="http://www.w3.org/1999/xlink" width="64" height="64" viewBox="0 0 64 64" version="1.1"><defs><linearGradient id="linear0" x1="0%" x2="100%" y1="0%" y2="100%"><stop offset="0%" style="stop-color:#ae00ff; stop-opacity:1"/><stop offset="100%" style="stop-color:#0084ff; stop-opacity:1"/></linearGradient></defs><g id="surface1"><path style=" stroke:none;fill-rule:nonzero;fill:url(#linear0);" d="M 29.175781 1.253906 C 27.796875 1.253906 26.691406 2.304688 26.691406 3.601562 L 26.691406 43.464844 C 22.566406 43.464844 19.234375 40.320312 19.234375 36.429688 L 19.234375 17.671875 C 19.234375 16.375 18.121094 15.328125 16.75 15.328125 L 9.296875 15.328125 C 7.921875 15.328125 6.8125 16.375 6.8125 17.671875 C 6.8125 18.964844 7.921875 20.015625 9.296875 20.015625 C 10.667969 20.015625 11.78125 21.066406 11.78125 22.363281 L 11.78125 34.082031 C 11.78125 41.871094 18.441406 48.15625 26.691406 48.15625 L 26.691406 59.875 C 26.691406 61.175781 27.796875 62.222656 29.175781 62.222656 L 34.144531 62.222656 C 35.519531 62.222656 36.628906 61.175781 36.628906 59.875 L 36.628906 48.15625 C 44.878906 48.15625 51.542969 41.871094 51.542969 34.082031 L 51.542969 22.363281 C 51.542969 21.066406 52.65625 20.015625 54.027344 20.015625 C 55.398438 20.015625 56.511719 18.964844 56.511719 17.671875 C 56.511719 16.375 55.398438 15.328125 54.027344 15.328125 L 46.574219 15.328125 C 45.203125 15.328125 44.085938 16.375 44.085938 17.671875 L 44.085938 36.429688 C 44.085938 40.320312 40.753906 43.464844 36.628906 43.464844 L 36.628906 3.601562 C 36.628906 2.304688 35.519531 1.253906 34.144531 1.253906 Z M 29.175781 1.253906 "/></g></svg>
