<svg xmlns="http://www.w3.org/2000/svg" xmlns:xlink="http://www.w3.org/1999/xlink" width="64" height="64" viewBox="0 0 64 64" version="1.1"><defs><linearGradient id="linear0" x1="0%" x2="100%" y1="0%" y2="100%"><stop offset="0%" style="stop-color:#ff0000; stop-opacity:1"/><stop offset="100%" style="stop-color:#6a00ff; stop-opacity:1"/></linearGradient></defs><g id="surface1"><path style=" stroke:none;fill-rule:nonzero;fill:url(#linear0);" d="M 3.320312 1.457031 L 3.320312 18.019531 L 18.71875 18.019531 L 18.71875 1.457031 Z M 44.386719 1.457031 L 44.386719 18.019531 L 59.789062 18.019531 L 59.789062 1.457031 Z M 3.320312 23.539062 L 3.320312 40.101562 L 18.71875 40.101562 L 18.71875 23.539062 Z M 44.386719 23.539062 L 44.386719 40.101562 L 59.789062 40.101562 L 59.789062 23.539062 Z M 26.832031 26.296875 L 26.832031 37.335938 L 36.6875 37.335938 L 36.6875 26.296875 Z M 3.320312 45.617188 L 3.320312 62.179688 L 18.71875 62.179688 L 18.71875 45.617188 Z M 44.386719 45.617188 L 44.386719 62.179688 L 59.789062 62.179688 L 59.789062 45.617188 Z M 44.386719 45.617188 "/></g></svg>
