<svg xmlns="http://www.w3.org/2000/svg" xmlns:xlink="http://www.w3.org/1999/xlink" width="64" height="64" viewBox="0 0 64 64" version="1.1"><defs><linearGradient id="linear0" x1="0%" x2="0%" y1="0%" y2="100%"><stop offset="0%" style="stop-color:#ff0000; stop-opacity:1"/><stop offset="50%" style="stop-color:#ffd000; stop-opacity:1"/><stop offset="100%" style="stop-color:#0073ff; stop-opacity:1"/></linearGradient></defs><g id="surface1"><path style=" stroke:none;fill-rule:nonzero;fill:url(#linear0);" d="M 32.285156 20.972656 C 32.285156 20.972656 31.050781 26.015625 29.964844 28.039062 C 29.488281 28.925781 29.023438 29.09375 28.164062 28.984375 C 27.71875 29.871094 27.273438 30.757812 26.832031 31.648438 C 26.386719 29.875 26.0625 28.089844 25.617188 26.316406 C 25.171875 28.089844 24.605469 29.875 24.164062 31.648438 L 22.351562 29.835938 C 21.617188 28.980469 20.871094 30.246094 20.164062 30.316406 L 17.617188 27.652344 L 14.832031 30.316406 L 13.617188 27.652344 L 9.617188 31.652344 L 1.65625 31.652344 C 1.636719 32.09375 1.625 32.539062 1.625 32.984375 C 1.625 33.429688 1.636719 33.875 1.65625 34.316406 L 9.617188 34.316406 L 13.617188 38.316406 L 14.832031 35.652344 L 17.617188 38.316406 L 20.164062 35.652344 C 20.871094 35.722656 21.617188 36.984375 22.351562 36.132812 L 24.164062 34.320312 C 24.605469 36.09375 25.171875 37.878906 25.617188 39.652344 C 26.0625 37.878906 26.386719 36.09375 26.832031 34.320312 C 27.273438 35.207031 27.71875 36.09375 28.164062 36.984375 C 29.027344 36.875 29.496094 37.042969 29.964844 37.929688 C 31.042969 39.957031 32.285156 44.996094 32.285156 44.996094 C 32.285156 44.996094 33.84375 40.195312 34.832031 38.328125 C 35.710938 38.445312 36.15625 38.34375 36.496094 37.328125 L 37.496094 34.328125 L 40.164062 36.328125 L 42.832031 34.328125 L 45.617188 40.730469 L 48.164062 35.660156 L 50.832031 38.328125 L 52.164062 34.328125 L 54.832031 36.996094 L 57.628906 34.328125 L 62.910156 34.328125 C 62.929688 33.886719 62.945312 33.445312 62.945312 32.996094 C 62.945312 32.550781 62.929688 32.109375 62.910156 31.667969 L 57.628906 31.667969 L 54.832031 29 L 52.164062 31.667969 L 50.832031 27.667969 L 48.164062 30.332031 L 45.617188 25.265625 L 42.832031 31.667969 L 40.164062 29.667969 L 37.496094 31.667969 L 36.496094 28.667969 C 36.15625 27.652344 35.710938 27.550781 34.832031 27.667969 C 33.847656 25.800781 32.285156 21 32.285156 21 Z M 32.285156 20.972656 "/></g></svg>
