<svg xmlns="http://www.w3.org/2000/svg" xmlns:xlink="http://www.w3.org/1999/xlink" width="64" height="64" viewBox="0 0 64 64" version="1.1"><defs><linearGradient id="linear0" x1="100%" x2="0%" y1="100%" y2="0%"><stop offset="0%" style="stop-color:#00b54e; stop-opacity:1"/><stop offset="100%" style="stop-color:#ff0000; stop-opacity:1"/></linearGradient></defs><g id="surface1"><path style=" stroke:none;fill-rule:nonzero;fill:url(#linear0);" d="M 32.6875 56.679688 C 23.441406 56.679688 15.945312 59.046875 15.945312 61.960938 C 15.953125 62.316406 16.074219 62.675781 16.304688 63.019531 L 49.09375 63.019531 C 49.316406 62.675781 49.429688 62.316406 49.429688 61.960938 C 49.429688 59.046875 41.933594 56.679688 32.6875 56.679688 Z M 51.15625 28.699219 C 51.15625 28.699219 56.542969 33.894531 57.222656 46.636719 C 57.222656 46.636719 58.101562 59.023438 53.25 46.679688 L 49.648438 36.398438 Z M 14.21875 28.699219 C 14.21875 28.699219 8.832031 33.894531 8.152344 46.636719 C 8.152344 46.636719 7.273438 59.023438 12.125 46.679688 L 15.726562 36.398438 Z M 14.21875 28.699219 "/><path style=" stroke:none;fill-rule:nonzero;fill:url(#linear0);" d="M 32.6875 2.167969 C 43.25 2.167969 51.820312 11.253906 51.820312 22.453125 L 51.820312 42.734375 C 51.820312 53.9375 43.25 63.019531 32.6875 63.019531 C 22.125 63.019531 13.554688 53.9375 13.554688 42.734375 L 13.554688 22.453125 C 13.554688 11.253906 22.125 2.167969 32.6875 2.167969 Z M 32.6875 2.167969 "/></g></svg>
