<svg xmlns="http://www.w3.org/2000/svg" xmlns:xlink="http://www.w3.org/1999/xlink" width="64" height="64" viewBox="0 0 64 64" version="1.1"><defs><linearGradient id="linear0" x1="0%" x2="100%" y1="0%" y2="100%"><stop offset="0%" style="stop-color:#ff0000; stop-opacity:1"/><stop offset="100%" style="stop-color:#6a00ff; stop-opacity:1"/></linearGradient></defs><g id="surface1"><path style=" stroke:none;fill-rule:nonzero;fill:url(#linear0);" d="M 34.992188 1.03125 C 29.183594 1.03125 24.394531 6.15625 24.394531 12.371094 C 24.394531 15.007812 25.304688 17.425781 26.734375 19.351562 L 25.410156 18.226562 L 23.867188 20.285156 C 21.488281 23.472656 20.605469 26.4375 20.46875 28.957031 C 20.332031 31.488281 20.785156 33.375 20.769531 34.929688 C 20.761719 36.492188 20.53125 37.835938 18.964844 40.019531 C 17.390625 42.207031 14.351562 45.097656 8.890625 48.859375 L 7.117188 50.109375 L 8.023438 52.167969 L 11.789062 60.480469 L 12.964844 63.066406 L 15.226562 61.574219 C 19.246094 58.953125 26.671875 56.160156 32.015625 48.414062 C 35.148438 51.253906 37.527344 54.449219 40.238281 59.675781 L 41.332031 61.777344 L 43.371094 60.761719 L 51.972656 56.449219 L 54.5 55.199219 L 52.953125 52.691406 C 48.09375 44.714844 46.3125 41.847656 42.730469 36.957031 C 47.460938 36.214844 49.964844 33.917969 51.933594 32.757812 L 54.3125 31.382812 L 52.726562 29.003906 L 47.59375 21.332031 L 46.390625 19.515625 L 44.539062 20.527344 C 42.308594 21.75 40.402344 22.511719 38.730469 22.945312 C 42.71875 21.320312 45.59375 17.1875 45.59375 12.371094 C 45.59375 6.15625 40.808594 1.03125 34.992188 1.03125 Z M 34.992188 6.199219 C 38.195312 6.199219 40.730469 8.953125 40.730469 12.371094 C 40.730469 15.800781 38.195312 18.507812 34.992188 18.507812 C 31.796875 18.507812 29.261719 15.800781 29.261719 12.371094 C 29.261719 8.953125 31.796875 6.199219 34.992188 6.199219 Z M 26.507812 25.535156 C 28.203125 26.738281 30.125 27.898438 32.691406 28.359375 C 35.957031 28.9375 40.015625 28.097656 44.730469 25.894531 L 47.292969 29.726562 C 45.234375 31.1875 43.355469 32.398438 38.125 31.992188 L 32.542969 31.546875 L 36.050781 36.226562 C 41.980469 44.027344 43.132812 45.988281 47.40625 53.058594 L 43.222656 55.113281 C 40.289062 49.835938 37.414062 45.785156 33.148438 42.523438 L 30.960938 40.871094 L 29.640625 43.332031 C 25.839844 50.460938 20.109375 52.921875 15.039062 55.796875 L 13.230469 51.886719 C 17.757812 48.589844 20.917969 45.742188 22.769531 43.167969 C 24.886719 40.230469 25.582031 37.386719 25.601562 35.015625 C 25.621094 32.648438 25.210938 30.847656 25.300781 29.242188 C 25.363281 28.136719 25.777344 26.9375 26.507812 25.535156 Z M 26.507812 25.535156 "/></g></svg>
