<svg xmlns="http://www.w3.org/2000/svg" xmlns:xlink="http://www.w3.org/1999/xlink" width="64" height="64" viewBox="0 0 64 64" version="1.1"><defs><linearGradient id="linear0" x1="0%" x2="100%" y1="0%" y2="100%"><stop offset="0%" style="stop-color:#e5ff00; stop-opacity:1"/><stop offset="50%" style="stop-color:#0073ff; stop-opacity:1"/><stop offset="100%" style="stop-color:#ff0000; stop-opacity:1"/></linearGradient></defs><g id="surface1"><path style=" stroke:none;fill-rule:nonzero;fill:url(#linear0);" d="M 9.363281 1.765625 C 9.527344 3.417969 9.332031 5.109375 9.238281 6.5625 C 6.867188 6.808594 5.246094 6.765625 3.1875 6.867188 C 3.132812 8.425781 3.324219 9.472656 3.410156 10.960938 C 5.53125 10.910156 7.253906 10.675781 9.117188 10.542969 C 9.035156 12.332031 8.972656 14.207031 8.984375 16.441406 C 4.21875 19.339844 2.027344 23.175781 2.019531 28.246094 C 2.019531 33.535156 6.460938 35.527344 10.003906 34.003906 C 10.921875 33.613281 11.480469 33.1875 12.023438 32.777344 C 12.234375 33.15625 12.277344 33.601562 12.410156 34.003906 C 13.558594 33 15.03125 32.53125 16.203125 31.949219 L 16.335938 31.539062 C 16.355469 30.640625 15.730469 29.882812 15.445312 29.066406 C 17.746094 25.820312 19.285156 22.085938 20.367188 18.5 C 23.605469 18.972656 26.671875 20.960938 26.183594 25.082031 C 25.652344 29.714844 20.777344 31.25 17.328125 32.085938 C 17.449219 33.855469 18.324219 35.273438 18.976562 36.75 C 24.859375 35.394531 30.203125 30.5625 30.355469 24.957031 C 30.492188 20.363281 28.59375 17.835938 24.792969 15.894531 C 23.417969 15.191406 22.289062 15.03125 21.375 14.792969 C 21.445312 14.0625 21.90625 13.546875 22.140625 13.011719 C 22.613281 12.296875 22.203125 12.191406 21.886719 11.640625 L 18.730469 10.953125 C 18.378906 10.839844 18.050781 11.039062 17.839844 11.230469 C 17.515625 12.164062 17.585938 13.226562 17.460938 14.257812 C 15.585938 14.378906 14.015625 14.683594 12.65625 15.074219 C 12.664062 13.757812 12.671875 12.285156 12.777344 10.410156 C 15.042969 10.230469 20.015625 8.894531 23.03125 8.214844 C 22.710938 6.824219 22.507812 5.566406 22.183594 4.179688 C 18.949219 5.308594 15.773438 5.996094 13.0625 6.363281 C 13.03125 4.761719 13.574219 3.738281 13.914062 2.449219 C 13.824219 2.125 13.519531 1.96875 13.289062 1.902344 L 10.121094 1.496094 C 9.804688 1.308594 9.546875 1.589844 9.363281 1.769531 Z M 16.316406 18.226562 C 15.777344 20.617188 14.71875 22.632812 13.785156 24.671875 C 13.15625 22.835938 12.996094 20.78125 12.777344 19.046875 C 14.152344 18.621094 15.300781 18.34375 16.316406 18.226562 Z M 9.238281 20.832031 C 9.546875 23.542969 10.101562 26.320312 10.753906 28.644531 C 9.25 30.191406 7.027344 31.464844 6.070312 29.882812 C 3.875 26.25 7.203125 22.902344 9.238281 20.820312 Z M 9.238281 20.832031 "/><path style=" stroke:none;fill-rule:nonzero;fill:url(#linear0);" d="M 26.785156 39.335938 C 28.371094 39.335938 29.722656 39.980469 30.828125 41.269531 C 31.929688 42.554688 32.472656 44.152344 32.472656 46.046875 C 32.472656 47.550781 32.03125 48.890625 31.136719 50.078125 C 31.753906 50.382812 32.265625 50.699219 32.859375 51.027344 C 34.519531 51.902344 35.25 51.515625 36.183594 51.28125 L 36.183594 43.3125 L 32.527344 43.3125 L 32.527344 39.34375 L 50.78125 39.34375 L 50.78125 43.3125 L 47.132812 43.3125 L 47.132812 63.214844 L 43.488281 63.214844 L 43.488281 43.3125 L 39.832031 43.3125 L 39.832031 63.214844 L 36.1875 63.214844 L 36.1875 55.660156 C 35.722656 55.792969 35.621094 55.878906 35.039062 55.878906 C 34.808594 55.878906 34.550781 55.84375 34.269531 55.792969 C 34.296875 56.011719 34.269531 56.316406 34.269531 56.695312 C 34.269531 58.972656 33.738281 60.332031 32.660156 61.558594 C 31.605469 62.796875 30.09375 63.214844 28.125 63.214844 C 26.925781 63.214844 25.710938 63.003906 24.476562 62.179688 C 23.226562 61.359375 22.167969 60.375 21.269531 59.261719 C 19.8125 57.4375 18.890625 55.679688 18.148438 53.40625 L 18.148438 52.90625 L 21.164062 50.777344 L 21.519531 51.515625 C 24.039062 56.613281 26.292969 59.164062 28.261719 59.164062 C 29.03125 59.164062 29.574219 58.984375 29.878906 58.621094 C 30.203125 58.238281 30.375 57.59375 30.375 56.691406 C 30.375 55.566406 30.078125 54.675781 29.492188 54.023438 C 28.933594 53.363281 28.15625 53.039062 27.175781 53.039062 C 26.289062 53.039062 25.695312 53.128906 25.421875 53.328125 L 24.71875 53.738281 L 23.101562 49.296875 C 23.753906 49.296875 24.421875 49.300781 25.070312 49.300781 C 26.167969 49.265625 27.007812 48.96875 27.597656 48.398438 C 28.207031 47.796875 28.519531 46.984375 28.542969 45.96875 C 28.542969 45.253906 28.398438 44.746094 28.121094 44.453125 C 27.859375 44.144531 27.410156 43.976562 26.75 43.953125 C 25.300781 43.953125 24.039062 44.832031 22.992188 46.582031 L 22.574219 47.320312 L 19.617188 44.734375 L 19.617188 44.320312 C 19.617188 43.421875 20.425781 42.371094 22.039062 41.152344 C 23.679688 39.921875 25.253906 39.300781 26.785156 39.300781 "/><path style=" stroke:none;fill-rule:nonzero;fill:url(#linear0);" d="M 53.832031 26.695312 L 43.761719 26.695312 L 41.289062 34.160156 L 34.695312 34.160156 L 45.320312 3.40625 L 52.398438 3.40625 L 62.898438 34.160156 L 56.488281 34.160156 M 48.824219 10.664062 L 45.320312 20.976562 L 52.347656 20.976562 "/></g></svg>
