<svg xmlns="http://www.w3.org/2000/svg" xmlns:xlink="http://www.w3.org/1999/xlink" width="64" height="64" viewBox="0 0 64 64" version="1.1"><defs><linearGradient id="linear0" x1="100%" x2="0%" y1="100%" y2="0%"><stop offset="0%" style="stop-color:#00b54e; stop-opacity:1"/><stop offset="100%" style="stop-color:#ff0000; stop-opacity:1"/></linearGradient></defs><g id="surface1"><path style=" stroke:none;fill-rule:nonzero;fill:url(#linear0);" d="M 6.792969 1.289062 C 5.1875 1.289062 3.886719 2.804688 3.886719 4.671875 C 3.886719 6.535156 5.1875 8.050781 6.792969 8.050781 C 8.398438 8.050781 9.695312 6.535156 9.695312 4.671875 C 9.695312 2.804688 8.398438 1.289062 6.792969 1.289062 Z M 59.070312 1.289062 C 57.472656 1.289062 56.167969 2.804688 56.167969 4.671875 C 56.167969 6.535156 57.472656 8.050781 59.070312 8.050781 C 60.675781 8.050781 61.980469 6.535156 61.980469 4.671875 C 61.980469 2.804688 60.675781 1.289062 59.070312 1.289062 Z M 6.792969 14.808594 C 5.1875 14.808594 3.886719 16.328125 3.886719 18.1875 C 3.886719 20.054688 5.1875 21.574219 6.792969 21.574219 C 8.398438 21.574219 9.695312 20.054688 9.695312 18.1875 C 9.695312 16.328125 8.398438 14.808594 6.792969 14.808594 Z M 59.070312 14.808594 C 57.472656 14.808594 56.167969 16.328125 56.167969 18.1875 C 56.167969 20.054688 57.472656 21.574219 59.070312 21.574219 C 60.675781 21.574219 61.980469 20.054688 61.980469 18.1875 C 61.980469 16.328125 60.675781 14.808594 59.070312 14.808594 Z M 6.792969 28.328125 C 5.1875 28.328125 3.886719 29.839844 3.886719 31.707031 C 3.886719 33.574219 5.1875 35.09375 6.792969 35.09375 C 8.398438 35.09375 9.695312 33.574219 9.695312 31.707031 C 9.695312 29.839844 8.398438 28.328125 6.792969 28.328125 Z M 59.070312 28.328125 C 57.472656 28.328125 56.167969 29.839844 56.167969 31.707031 C 56.167969 33.574219 57.472656 35.09375 59.070312 35.09375 C 60.675781 35.09375 61.980469 33.574219 61.980469 31.707031 C 61.980469 29.839844 60.675781 28.328125 59.070312 28.328125 Z M 6.792969 41.851562 C 5.1875 41.851562 3.886719 43.363281 3.886719 45.230469 C 3.886719 47.097656 5.1875 48.613281 6.792969 48.613281 C 8.398438 48.613281 9.695312 47.097656 9.695312 45.230469 C 9.695312 43.363281 8.398438 41.851562 6.792969 41.851562 Z M 59.070312 41.851562 C 57.472656 41.851562 56.167969 43.363281 56.167969 45.230469 C 56.167969 47.097656 57.472656 48.613281 59.070312 48.613281 C 60.675781 48.613281 61.980469 47.097656 61.980469 45.230469 C 61.980469 43.363281 60.675781 41.851562 59.070312 41.851562 Z M 6.792969 55.371094 C 5.1875 55.371094 3.886719 56.882812 3.886719 58.75 C 3.886719 60.617188 5.1875 62.128906 6.792969 62.128906 C 8.398438 62.128906 9.695312 60.617188 9.695312 58.75 C 9.695312 56.882812 8.398438 55.371094 6.792969 55.371094 Z M 59.070312 55.371094 C 57.472656 55.371094 56.167969 56.882812 56.167969 58.75 C 56.167969 60.617188 57.472656 62.128906 59.070312 62.128906 C 60.675781 62.128906 61.980469 60.617188 61.980469 58.75 C 61.980469 56.882812 60.675781 55.371094 59.070312 55.371094 Z M 59.070312 55.371094 "/><path style=" stroke:none;fill-rule:nonzero;fill:url(#linear0);" d="M 17.574219 7.855469 C 15.71875 7.855469 14.226562 9.042969 14.226562 10.515625 C 14.226562 11.992188 15.71875 13.179688 17.574219 13.179688 L 51.0625 13.179688 C 52.917969 13.179688 54.414062 11.992188 54.414062 10.515625 C 54.414062 9.042969 52.917969 7.855469 51.0625 7.855469 Z M 17.574219 18.5 C 15.71875 18.5 14.226562 19.691406 14.226562 21.164062 C 14.226562 22.640625 15.71875 23.832031 17.574219 23.832031 L 51.0625 23.832031 C 52.917969 23.832031 54.414062 22.640625 54.414062 21.164062 C 54.414062 19.691406 52.917969 18.5 51.0625 18.5 Z M 17.574219 29.152344 C 15.71875 29.152344 14.226562 30.339844 14.226562 31.816406 C 14.226562 33.292969 15.71875 34.476562 17.574219 34.476562 L 51.0625 34.476562 C 52.917969 34.476562 54.414062 33.292969 54.414062 31.816406 C 54.414062 30.339844 52.917969 29.152344 51.0625 29.152344 Z M 17.574219 39.804688 C 15.71875 39.804688 14.226562 40.992188 14.226562 42.46875 C 14.226562 43.941406 15.71875 45.128906 17.574219 45.128906 L 51.0625 45.128906 C 52.917969 45.128906 54.414062 43.941406 54.414062 42.46875 C 54.414062 40.992188 52.917969 39.804688 51.0625 39.804688 Z M 17.574219 50.453125 C 15.71875 50.453125 14.226562 51.644531 14.226562 53.121094 C 14.226562 54.589844 15.71875 55.78125 17.574219 55.78125 L 51.0625 55.78125 C 52.917969 55.78125 54.414062 54.589844 54.414062 53.121094 C 54.414062 51.644531 52.917969 50.453125 51.0625 50.453125 Z M 17.574219 50.453125 "/><path style=" stroke:none;fill-rule:nonzero;fill:url(#linear0);" d="M 19.113281 41.828125 C 18.828125 41.832031 18.542969 41.851562 18.265625 41.886719 C 18.320312 42.382812 18.003906 42.847656 17.523438 42.976562 C 17.046875 43.089844 16.550781 42.847656 16.355469 42.394531 C 15.828125 42.621094 15.320312 42.910156 14.863281 43.261719 C 15.15625 43.660156 15.113281 44.214844 14.761719 44.566406 C 14.40625 44.902344 13.859375 44.933594 13.460938 44.644531 C 13.109375 45.109375 12.816406 45.613281 12.585938 46.152344 C 12.835938 46.253906 13.03125 46.449219 13.132812 46.699219 C 13.210938 46.894531 13.222656 47.113281 13.167969 47.320312 C 13.027344 47.796875 12.566406 48.09375 12.074219 48.039062 C 12.039062 48.328125 12.015625 48.621094 12.015625 48.910156 C 12.015625 49.199219 12.039062 49.492188 12.074219 49.78125 C 12.179688 49.765625 12.289062 49.757812 12.394531 49.777344 C 12.554688 49.804688 12.699219 49.875 12.824219 49.976562 C 12.988281 50.113281 13.109375 50.296875 13.167969 50.503906 C 13.292969 50.984375 13.050781 51.488281 12.589844 51.691406 C 12.816406 52.21875 13.113281 52.714844 13.464844 53.171875 C 13.675781 53.011719 13.9375 52.941406 14.203125 52.972656 C 14.410156 53.007812 14.609375 53.105469 14.757812 53.253906 C 15.113281 53.609375 15.15625 54.164062 14.863281 54.566406 C 15.320312 54.910156 15.828125 55.199219 16.355469 55.425781 C 16.46875 55.144531 16.707031 54.933594 16.992188 54.84375 C 17.164062 54.796875 17.347656 54.796875 17.523438 54.84375 C 17.730469 54.898438 17.914062 55.015625 18.050781 55.1875 C 18.21875 55.394531 18.292969 55.667969 18.265625 55.933594 C 18.550781 55.96875 18.828125 55.992188 19.113281 55.992188 C 19.40625 55.992188 19.699219 55.96875 19.988281 55.933594 C 19.9375 55.441406 20.238281 54.988281 20.707031 54.84375 C 20.917969 54.789062 21.136719 54.800781 21.339844 54.878906 C 21.582031 54.980469 21.78125 55.175781 21.878906 55.425781 C 22.421875 55.195312 22.925781 54.902344 23.398438 54.546875 C 23.105469 54.15625 23.140625 53.609375 23.472656 53.253906 C 23.628906 53.105469 23.820312 53.007812 24.03125 52.972656 C 24.292969 52.941406 24.5625 53.011719 24.769531 53.171875 C 25.128906 52.710938 25.417969 52.199219 25.652344 51.660156 C 25.199219 51.464844 24.953125 50.980469 25.066406 50.5 C 25.164062 50.148438 25.4375 49.875 25.789062 49.789062 C 25.914062 49.765625 26.039062 49.765625 26.160156 49.789062 C 26.199219 49.496094 26.222656 49.199219 26.222656 48.910156 C 26.222656 48.621094 26.203125 48.328125 26.167969 48.039062 C 25.675781 48.097656 25.210938 47.796875 25.066406 47.320312 C 24.953125 46.835938 25.203125 46.34375 25.664062 46.152344 C 25.4375 45.613281 25.140625 45.105469 24.78125 44.644531 C 24.390625 44.9375 23.835938 44.910156 23.472656 44.566406 C 23.136719 44.210938 23.097656 43.660156 23.398438 43.261719 C 22.933594 42.90625 22.421875 42.617188 21.886719 42.382812 C 21.691406 42.839844 21.195312 43.09375 20.707031 42.976562 C 20.234375 42.835938 19.929688 42.371094 19.996094 41.878906 C 19.703125 41.84375 19.40625 41.828125 19.113281 41.828125 Z M 19.113281 45.875 C 20.796875 45.875 22.160156 47.234375 22.160156 48.910156 C 22.160156 50.589844 20.796875 51.945312 19.113281 51.945312 C 17.433594 51.945312 16.070312 50.589844 16.070312 48.910156 C 16.070312 47.234375 17.433594 45.875 19.113281 45.875 Z M 19.113281 45.875 "/><path style=" stroke:none;fill-rule:nonzero;fill:url(#linear0);" d="M 41.289062 9.558594 C 40.820312 9.5625 40.351562 9.59375 39.882812 9.652344 L 39.90625 9.746094 C 40.195312 10.820312 39.554688 11.929688 38.472656 12.210938 C 37.390625 12.503906 36.277344 11.863281 35.996094 10.785156 L 35.96875 10.675781 C 35.105469 11.0625 34.292969 11.542969 33.53125 12.101562 L 33.589844 12.160156 C 34.378906 12.953125 34.378906 14.222656 33.589844 15.015625 C 32.796875 15.804688 31.519531 15.804688 30.730469 15.015625 L 30.667969 14.957031 C 30.109375 15.710938 29.628906 16.523438 29.242188 17.382812 L 29.34375 17.410156 C 29.890625 17.554688 30.324219 17.910156 30.582031 18.359375 C 30.84375 18.808594 30.925781 19.355469 30.78125 19.890625 C 30.492188 20.96875 29.378906 21.609375 28.304688 21.316406 L 28.214844 21.292969 C 28.152344 21.761719 28.117188 22.230469 28.113281 22.699219 C 28.117188 23.167969 28.152344 23.636719 28.214844 24.097656 L 28.304688 24.074219 C 28.441406 24.039062 28.578125 24.015625 28.714844 24.007812 C 29.117188 23.984375 29.511719 24.078125 29.847656 24.273438 C 30.300781 24.535156 30.644531 24.96875 30.789062 25.507812 C 31.078125 26.585938 30.4375 27.691406 29.355469 27.972656 L 29.253906 28.003906 C 29.640625 28.855469 30.117188 29.675781 30.679688 30.429688 L 30.742188 30.367188 C 31.132812 29.972656 31.65625 29.777344 32.179688 29.777344 C 32.699219 29.78125 33.214844 29.976562 33.605469 30.367188 C 34.398438 31.164062 34.398438 32.433594 33.605469 33.226562 L 33.546875 33.285156 C 34.308594 33.84375 35.125 34.316406 35.984375 34.707031 L 36.007812 34.601562 C 36.265625 33.660156 37.152344 33.046875 38.101562 33.109375 C 38.238281 33.113281 38.371094 33.136719 38.507812 33.171875 C 39.042969 33.316406 39.476562 33.660156 39.738281 34.109375 C 40 34.554688 40.089844 35.105469 39.941406 35.652344 L 39.917969 35.738281 C 40.386719 35.796875 40.855469 35.835938 41.324219 35.839844 C 41.796875 35.835938 42.265625 35.796875 42.730469 35.738281 L 42.707031 35.652344 C 42.414062 34.570312 43.0625 33.464844 44.144531 33.183594 C 44.277344 33.148438 44.40625 33.125 44.542969 33.113281 C 44.941406 33.089844 45.339844 33.183594 45.679688 33.378906 C 46.125 33.636719 46.480469 34.066406 46.628906 34.613281 L 46.652344 34.714844 C 47.515625 34.328125 48.332031 33.855469 49.09375 33.292969 L 49.03125 33.230469 C 48.242188 32.445312 48.242188 31.167969 49.03125 30.378906 C 49.425781 29.988281 49.941406 29.789062 50.464844 29.789062 C 50.984375 29.789062 51.507812 29.984375 51.90625 30.378906 L 51.964844 30.441406 C 52.523438 29.679688 53 28.871094 53.390625 28.011719 L 53.285156 27.984375 C 52.203125 27.695312 51.558594 26.585938 51.851562 25.515625 C 52.105469 24.570312 52.988281 23.960938 53.921875 24.019531 C 54.058594 24.027344 54.195312 24.050781 54.332031 24.085938 L 54.421875 24.109375 C 54.480469 23.648438 54.511719 23.179688 54.523438 22.703125 C 54.523438 22.234375 54.492188 21.769531 54.4375 21.300781 L 54.332031 21.328125 C 53.25 21.621094 52.136719 20.980469 51.851562 19.902344 C 51.558594 18.820312 52.207031 17.714844 53.289062 17.429688 L 53.398438 17.398438 C 53.015625 16.539062 52.546875 15.714844 51.988281 14.953125 L 51.90625 15.035156 C 51.113281 15.828125 49.835938 15.828125 49.042969 15.035156 C 48.253906 14.246094 48.253906 12.972656 49.042969 12.183594 L 49.128906 12.101562 C 48.359375 11.546875 47.539062 11.074219 46.671875 10.695312 L 46.640625 10.808594 C 46.351562 11.886719 45.238281 12.527344 44.167969 12.238281 C 43.085938 11.945312 42.4375 10.835938 42.730469 9.769531 L 42.765625 9.65625 C 42.296875 9.605469 41.820312 9.582031 41.351562 9.582031 Z M 41.289062 17.648438 C 44.089844 17.648438 46.363281 19.914062 46.363281 22.703125 C 46.363281 25.496094 44.089844 27.765625 41.289062 27.765625 C 38.488281 27.765625 36.210938 25.496094 36.210938 22.703125 C 36.210938 19.914062 38.488281 17.648438 41.289062 17.648438 Z M 41.289062 17.648438 "/></g></svg>
