<svg xmlns="http://www.w3.org/2000/svg" xmlns:xlink="http://www.w3.org/1999/xlink" width="64" height="64" viewBox="0 0 64 64" version="1.1"><defs><linearGradient id="linear0" x1="0%" x2="0%" y1="0%" y2="100%"><stop offset="0%" style="stop-color:#00b54e; stop-opacity:1"/><stop offset="50%" style="stop-color:#0073ff; stop-opacity:1"/><stop offset="100%" style="stop-color:#ffd000; stop-opacity:1"/></linearGradient></defs><g id="surface1"><path style=" stroke:none;fill-rule:nonzero;fill:url(#linear0);" d="M 2.851562 44.59375 L 60.5625 44.59375 L 60.5625 49.546875 L 2.851562 49.546875 Z M 2.851562 44.59375 "/><path style=" stroke:none;fill-rule:nonzero;fill:url(#linear0);" d="M 4.871094 14.265625 C 2.925781 14.265625 1.386719 15.300781 1.386719 16.59375 L 1.386719 20.875 L 32.191406 21.695312 L 63.003906 20.875 L 63.003906 16.59375 C 63.003906 15.304688 61.464844 14.265625 59.519531 14.265625 Z M 4.871094 14.265625 "/><path style=" stroke:none;fill-rule:nonzero;fill:url(#linear0);" d="M 3.617188 24.636719 L 3.617188 38.671875 C 3.617188 39.132812 4.371094 39.5 5.296875 39.5 L 8.660156 39.5 C 9.59375 39.5 10.339844 39.132812 10.339844 38.671875 L 10.339844 24.636719 Z M 13.699219 24.636719 L 13.699219 38.671875 C 13.699219 39.132812 14.449219 39.5 15.378906 39.5 L 18.738281 39.5 C 19.671875 39.5 20.417969 39.132812 20.417969 38.671875 L 20.417969 24.636719 Z M 33.863281 24.636719 L 33.863281 38.671875 C 33.863281 39.132812 34.617188 39.5 35.542969 39.5 L 38.90625 39.5 C 39.835938 39.5 40.585938 39.132812 40.585938 38.671875 L 40.585938 24.636719 Z M 43.945312 24.636719 L 43.945312 38.671875 C 43.945312 39.132812 44.695312 39.5 45.625 39.5 L 48.984375 39.5 C 49.917969 39.5 50.664062 39.132812 50.664062 38.671875 L 50.664062 24.636719 Z M 54.027344 24.636719 L 54.027344 38.671875 C 54.027344 39.132812 54.777344 39.5 55.707031 39.5 L 59.066406 39.5 C 60 39.5 60.746094 39.132812 60.746094 38.671875 L 60.746094 24.636719 Z M 54.027344 24.636719 "/></g></svg>
