<svg xmlns="http://www.w3.org/2000/svg" xmlns:xlink="http://www.w3.org/1999/xlink" width="64" height="64" viewBox="0 0 64 64" version="1.1"><defs><linearGradient id="linear0" x1="0%" x2="100%" y1="0%" y2="100%"><stop offset="0%" style="stop-color:#00b54e; stop-opacity:1"/><stop offset="100%" style="stop-color:#0073ff; stop-opacity:1"/></linearGradient></defs><g id="surface1"><path style=" stroke:none;fill-rule:nonzero;fill:url(#linear0);" d="M 54.53125 2.113281 L 37.339844 38.078125 C 33.839844 34.664062 27.863281 32.414062 21.066406 32.417969 C 10.304688 32.425781 1.542969 38.082031 1.542969 45.046875 C 1.542969 47.417969 2.574219 49.625 4.332031 51.519531 L 4.332031 62.722656 L 21.066406 57.671875 C 31.84375 57.671875 40.585938 52.015625 40.585938 45.046875 L 50.910156 22.847656 C 55.183594 26.960938 57.320312 30.683594 57.320312 36.203125 C 57.320312 42.445312 49.800781 46.535156 43.375 47.523438 C 43.179688 48.320312 42.597656 49.355469 42.242188 50.097656 C 51.679688 48.679688 62.894531 43.585938 62.894531 33.679688 C 62.894531 22.3125 53.527344 17.207031 57.320312 9.054688 L 60.105469 2.113281 Z M 21.066406 37.46875 C 28.765625 37.46875 35.003906 40.863281 35.003906 45.046875 C 35.003906 49.230469 28.765625 52.621094 21.066406 52.621094 L 9.90625 55.90625 L 9.90625 49.546875 C 8.175781 48.289062 7.121094 46.738281 7.121094 45.046875 C 7.121094 40.863281 13.363281 37.46875 21.066406 37.46875 Z M 21.066406 37.46875 "/></g></svg>
