<svg xmlns="http://www.w3.org/2000/svg" xmlns:xlink="http://www.w3.org/1999/xlink" width="64" height="64" viewBox="0 0 64 64" version="1.1"><defs><linearGradient id="linear0" x1="0%" x2="100%" y1="0%" y2="100%"><stop offset="0%" style="stop-color:#e5ff00; stop-opacity:1"/><stop offset="50%" style="stop-color:#0073ff; stop-opacity:1"/><stop offset="100%" style="stop-color:#ff0000; stop-opacity:1"/></linearGradient></defs><g id="surface1"><path style=" stroke:none;fill-rule:nonzero;fill:url(#linear0);" d="M 53.734375 2.078125 C 53.109375 2.117188 52.46875 2.292969 51.882812 2.644531 L 37.808594 10.972656 C 35.921875 12.089844 35.234375 14.460938 36.261719 16.285156 C 37.285156 18.109375 39.632812 18.679688 41.527344 17.5625 L 55.59375 9.234375 C 57.476562 8.117188 58.167969 5.75 57.144531 3.921875 C 56.4375 2.671875 55.101562 2.007812 53.734375 2.078125 M 21.691406 5.292969 C 21.199219 5.300781 20.523438 5.492188 19.863281 6.511719 L 10.785156 20.460938 L 4.914062 24.074219 C 2.589844 25.585938 2.570312 27.183594 2.570312 27.207031 L 2.570312 39.03125 C 2.5625 39.121094 2.675781 40.738281 4.90625 41.648438 L 10.785156 44.054688 L 19.886719 58.058594 C 20.601562 59.285156 21.234375 59.222656 21.808594 59.222656 L 26.824219 59.222656 C 27.953125 59.222656 28.863281 57.855469 28.863281 56.972656 L 28.863281 7.164062 C 28.863281 6.882812 28.738281 5.300781 27.179688 5.300781 L 21.890625 5.300781 C 21.828125 5.300781 21.757812 5.292969 21.691406 5.292969 M 42.644531 28.382812 C 40.460938 28.382812 38.710938 30.085938 38.710938 32.1875 C 38.710938 34.296875 40.460938 36 42.644531 36 L 58.890625 36 C 61.066406 36 62.824219 34.296875 62.824219 32.1875 C 62.824219 30.085938 61.066406 28.382812 58.890625 28.382812 Z M 39.296875 46.492188 C 38.0625 46.546875 36.902344 47.199219 36.261719 48.339844 C 35.234375 50.164062 35.921875 52.535156 37.808594 53.652344 L 51.882812 61.980469 C 53.765625 63.09375 56.117188 62.523438 57.144531 60.703125 C 58.175781 58.875 57.476562 56.5 55.59375 55.390625 L 41.527344 47.0625 C 40.8125 46.644531 40.042969 46.457031 39.296875 46.492188 "/></g></svg>
