<svg xmlns="http://www.w3.org/2000/svg" xmlns:xlink="http://www.w3.org/1999/xlink" width="64" height="64" viewBox="0 0 64 64" version="1.1"><defs><linearGradient id="linear0" x1="0%" x2="0%" y1="0%" y2="100%"><stop offset="0%" style="stop-color:#ffd000; stop-opacity:1"/><stop offset="50%" style="stop-color:#24dbdb; stop-opacity:1"/><stop offset="100%" style="stop-color:#0073ff; stop-opacity:1"/></linearGradient></defs><g id="surface1"><path style=" stroke:none;fill-rule:nonzero;fill:url(#linear0);" d="M 32.183594 1.792969 C 28.316406 1.792969 25.1875 5.222656 25.1875 9.460938 C 25.191406 10.832031 25.53125 12.183594 26.175781 13.367188 L 22.949219 17.609375 C 22.175781 17.296875 21.355469 17.128906 20.527344 17.125 C 16.664062 17.125 13.53125 20.5625 13.53125 24.796875 C 13.535156 26.171875 13.875 27.523438 14.519531 28.703125 L 11.292969 32.949219 C 10.515625 32.628906 9.695312 32.46875 8.867188 32.460938 C 5.007812 32.460938 1.875 35.894531 1.875 40.128906 C 1.875 44.363281 5.007812 47.796875 8.867188 47.796875 C 12.734375 47.796875 15.863281 44.363281 15.863281 40.128906 C 15.859375 38.753906 15.519531 37.402344 14.875 36.222656 L 18.097656 31.980469 C 18.875 32.300781 19.699219 32.460938 20.527344 32.460938 C 21.355469 32.457031 22.175781 32.296875 22.949219 31.976562 L 26.179688 36.222656 C 25.53125 37.402344 25.195312 38.753906 25.1875 40.128906 C 25.191406 41.507812 25.53125 42.855469 26.175781 44.035156 L 22.949219 48.285156 C 22.175781 47.964844 21.355469 47.800781 20.527344 47.796875 C 16.664062 47.796875 13.53125 51.230469 13.53125 55.464844 C 13.53125 59.703125 16.664062 63.132812 20.527344 63.132812 C 24.386719 63.132812 27.519531 59.703125 27.519531 55.464844 C 27.515625 54.085938 27.171875 52.738281 26.527344 51.558594 L 29.753906 47.320312 C 30.53125 47.632812 31.355469 47.796875 32.183594 47.796875 C 33.007812 47.796875 33.832031 47.628906 34.609375 47.316406 L 37.832031 51.558594 C 37.191406 52.738281 36.847656 54.085938 36.84375 55.464844 C 36.84375 59.703125 39.976562 63.132812 43.835938 63.132812 C 47.703125 63.132812 50.832031 59.703125 50.832031 55.464844 C 50.832031 51.230469 47.703125 47.796875 43.835938 47.796875 C 43.007812 47.800781 42.1875 47.960938 41.414062 48.28125 L 38.1875 44.035156 C 38.828125 42.855469 39.171875 41.507812 39.171875 40.128906 C 39.171875 35.894531 36.042969 32.460938 32.183594 32.460938 C 31.355469 32.460938 30.53125 32.628906 29.753906 32.949219 L 26.527344 28.703125 C 27.171875 27.523438 27.515625 26.171875 27.519531 24.796875 C 27.515625 23.417969 27.171875 22.070312 26.527344 20.882812 L 29.753906 16.648438 C 30.53125 16.964844 31.355469 17.125 32.183594 17.125 C 33.007812 17.125 33.832031 16.960938 34.609375 16.644531 L 37.832031 20.882812 C 37.191406 22.066406 36.847656 23.417969 36.84375 24.796875 C 36.84375 29.027344 39.976562 32.460938 43.835938 32.460938 C 44.664062 32.457031 45.484375 32.296875 46.261719 31.976562 L 49.488281 36.222656 C 48.84375 37.402344 48.503906 38.753906 48.5 40.128906 C 48.5 44.363281 51.632812 47.796875 55.496094 47.796875 C 59.355469 47.796875 62.488281 44.363281 62.488281 40.128906 C 62.488281 35.894531 59.355469 32.460938 55.496094 32.460938 C 54.664062 32.460938 53.847656 32.628906 53.070312 32.941406 L 49.84375 28.703125 C 50.488281 27.523438 50.828125 26.171875 50.832031 24.796875 C 50.832031 20.5625 47.703125 17.125 43.835938 17.125 C 43.011719 17.128906 42.1875 17.296875 41.417969 17.609375 L 38.1875 13.367188 C 38.828125 12.183594 39.171875 10.832031 39.171875 9.460938 C 39.171875 5.222656 36.042969 1.792969 32.183594 1.792969 "/></g></svg>
