<svg xmlns="http://www.w3.org/2000/svg" xmlns:xlink="http://www.w3.org/1999/xlink" width="64" height="64" viewBox="0 0 64 64" version="1.1"><defs><linearGradient id="linear0" x1="0%" x2="100%" y1="0%" y2="100%"><stop offset="0%" style="stop-color:#ff0000; stop-opacity:1"/><stop offset="100%" style="stop-color:#6a00ff; stop-opacity:1"/></linearGradient></defs><g id="surface1"><path style=" stroke:none;fill-rule:nonzero;fill:url(#linear0);" d="M 32.550781 1.773438 C 30.8125 1.773438 29.101562 1.925781 27.4375 2.207031 C 27.40625 2.210938 27.367188 2.210938 27.339844 2.210938 C 25.066406 2.472656 22.6875 3.128906 20.273438 4.332031 C 9.449219 9.066406 1.875 19.863281 1.875 32.410156 C 1.875 49.320312 15.625 63.054688 32.550781 63.054688 C 49.484375 63.054688 63.230469 49.320312 63.230469 32.410156 C 63.230469 15.503906 49.484375 1.773438 32.550781 1.773438 M 23.25 9.648438 C 23.25 9.648438 22.328125 12.410156 24.1875 16.089844 C 26.039062 19.765625 28.808594 20.679688 26.984375 26.210938 L 25.15625 31.742188 C 25.15625 31.742188 29.746094 27.125 30.664062 24.363281 C 31.582031 21.597656 30.640625 15.152344 30.640625 15.152344 C 30.640625 15.152344 38.019531 20.65625 37.105469 23.421875 L 36.195312 26.179688 C 36.195312 26.179688 39.878906 24.328125 40.789062 21.566406 C 41.703125 18.800781 42.65625 25.246094 41.738281 28.003906 C 41.28125 29.390625 41.277344 29.390625 41.394531 29.039062 L 40.816406 30.773438 C 40.816406 30.773438 44.507812 28.914062 45.417969 26.148438 C 46.328125 23.386719 47.242188 20.625 47.242188 20.625 C 47.242188 20.625 49.097656 24.304688 48.179688 27.066406 C 47.273438 29.832031 50.945312 27.980469 51.863281 25.207031 C 52.777344 22.453125 53.699219 19.691406 53.699219 19.691406 C 53.699219 19.691406 53.839844 19.835938 54.039062 20.050781 C 56.214844 23.722656 57.480469 27.941406 57.480469 32.386719 C 57.480469 45.789062 45.972656 57.277344 32.550781 57.277344 C 19.132812 57.277344 7.632812 45.789062 7.632812 32.386719 C 7.632812 32.296875 7.632812 32.210938 7.632812 32.125 C 9.910156 28.140625 10.285156 23.027344 10.355469 21.347656 C 10.425781 21.207031 10.503906 21.074219 10.570312 20.945312 C 11.445312 21.859375 14.878906 25.664062 14.085938 28.078125 L 13.175781 30.851562 C 13.175781 30.851562 16.851562 29 17.761719 26.242188 C 18.679688 23.472656 16.824219 19.800781 17.734375 17.035156 C 18.648438 14.269531 23.25 9.648438 23.25 9.648438 M 32.550781 27.625 C 29.914062 27.625 27.765625 29.78125 27.765625 32.410156 C 27.765625 35.046875 29.914062 37.195312 32.550781 37.195312 C 35.199219 37.195312 37.351562 35.046875 37.351562 32.410156 C 37.351562 29.78125 35.199219 27.625 32.550781 27.625 M 32.550781 29.539062 C 34.175781 29.539062 35.429688 30.792969 35.429688 32.410156 C 35.429688 34.035156 34.175781 35.28125 32.550781 35.28125 C 30.933594 35.28125 29.679688 34.035156 29.679688 32.410156 C 29.679688 30.792969 30.933594 29.539062 32.550781 29.539062 "/></g></svg>
