<svg xmlns="http://www.w3.org/2000/svg" xmlns:xlink="http://www.w3.org/1999/xlink" width="64" height="64" viewBox="0 0 64 64" version="1.1"><defs><linearGradient id="linear0" x1="0%" x2="100%" y1="0%" y2="100%"><stop offset="0%" style="stop-color:#00b54e; stop-opacity:1"/><stop offset="100%" style="stop-color:#0073ff; stop-opacity:1"/></linearGradient></defs><g id="surface1"><path style=" stroke:none;fill-rule:nonzero;fill:url(#linear0);" d="M 9.230469 2.027344 C 9.148438 2.027344 9.066406 2.058594 9.011719 2.113281 L 6.753906 4.335938 C 6.636719 4.457031 6.636719 4.644531 6.753906 4.757812 L 9.894531 7.851562 L 9.023438 8.710938 C 8.828125 8.910156 8.792969 9.207031 8.9375 9.441406 L 14.492188 18.4375 C 13.566406 20 12.824219 21.664062 12.289062 23.417969 L 2.054688 25.515625 C 1.773438 25.570312 1.578125 25.816406 1.578125 26.09375 L 1.578125 32.597656 C 1.578125 32.875 1.761719 33.105469 2.035156 33.175781 L 11.980469 35.5625 C 12.488281 37.59375 13.273438 39.515625 14.289062 41.300781 L 8.53125 49.933594 C 8.378906 50.167969 8.410156 50.480469 8.613281 50.683594 L 13.289062 55.277344 C 13.488281 55.46875 13.792969 55.507812 14.027344 55.367188 L 23.003906 50.007812 C 24.699219 50.980469 26.527344 51.75 28.453125 52.28125 L 30.539062 62.128906 C 30.59375 62.402344 30.839844 62.605469 31.128906 62.605469 L 37.742188 62.605469 C 38.019531 62.605469 38.261719 62.40625 38.328125 62.144531 L 40.753906 52.378906 C 42.800781 51.847656 44.75 51.054688 46.5625 50.023438 L 55.234375 55.609375 C 55.472656 55.765625 55.789062 55.738281 55.992188 55.539062 L 57.203125 54.347656 L 60.253906 57.34375 C 60.367188 57.460938 60.5625 57.460938 60.679688 57.34375 L 62.949219 55.125 C 63.0625 55.007812 63.0625 54.816406 62.949219 54.703125 L 59.890625 51.699219 L 60.667969 50.9375 C 60.867188 50.742188 60.902344 50.441406 60.753906 50.210938 L 55.292969 41.359375 C 55.902344 40.304688 56.421875 39.191406 56.855469 38.027344 C 56.890625 37.957031 56.890625 37.855469 56.851562 37.785156 C 56.8125 37.710938 56.738281 37.660156 56.660156 37.636719 L 53.828125 36.871094 C 50.945312 44.335938 43.636719 49.652344 35.070312 49.652344 C 24.066406 49.652344 14.996094 40.742188 14.996094 29.800781 C 14.996094 21.449219 20.363281 14.25 27.84375 11.363281 L 27.207031 8.53125 C 27.1875 8.445312 27.140625 8.378906 27.0625 8.335938 C 26.988281 8.292969 26.886719 8.28125 26.804688 8.3125 C 25.628906 8.734375 24.503906 9.238281 23.433594 9.824219 C 23.421875 9.8125 23.40625 9.796875 23.386719 9.785156 L 14.453125 4.039062 C 14.21875 3.886719 13.902344 3.910156 13.699219 4.113281 L 12.589844 5.207031 L 9.441406 2.113281 C 9.386719 2.058594 9.308594 2.027344 9.230469 2.027344 M 35.070312 12.746094 C 25.582031 12.746094 17.757812 20.4375 17.757812 29.8125 C 17.757812 39.242188 25.574219 46.929688 35.070312 46.929688 C 44.628906 46.929688 52.390625 39.242188 52.390625 29.8125 C 52.390625 20.4375 44.636719 12.746094 35.070312 12.746094 M 28.882812 21.292969 C 28.917969 21.292969 28.949219 21.292969 28.988281 21.292969 C 29.234375 21.296875 29.480469 21.363281 29.691406 21.484375 L 35.875 24.949219 C 35.886719 24.953125 35.902344 24.960938 35.910156 24.964844 L 42.015625 28.5625 C 42.46875 28.828125 42.75 29.316406 42.75 29.839844 C 42.75 30.359375 42.46875 30.847656 42.015625 31.109375 L 35.910156 34.707031 C 35.902344 34.714844 35.886719 34.71875 35.875 34.730469 L 29.691406 38.191406 C 29.238281 38.449219 28.683594 38.441406 28.226562 38.1875 C 27.785156 37.921875 27.5 37.441406 27.488281 36.925781 L 27.402344 29.851562 C 27.402344 29.839844 27.402344 29.835938 27.402344 29.824219 L 27.488281 22.753906 C 27.5 21.976562 28.105469 21.339844 28.882812 21.292969 "/></g></svg>
