<svg xmlns="http://www.w3.org/2000/svg" xmlns:xlink="http://www.w3.org/1999/xlink" width="64" height="64" viewBox="0 0 64 64" version="1.1"><defs><linearGradient id="linear0" x1="0%" x2="100%" y1="0%" y2="100%"><stop offset="0%" style="stop-color:#ae00ff; stop-opacity:1"/><stop offset="100%" style="stop-color:#0084ff; stop-opacity:1"/></linearGradient></defs><g id="surface1"><path style=" stroke:none;fill-rule:nonzero;fill:url(#linear0);" d="M 32.167969 2.007812 C 27.59375 2.007812 23.859375 5.683594 23.859375 10.183594 C 23.859375 14.675781 27.59375 18.273438 32.167969 18.273438 C 36.746094 18.273438 40.480469 14.675781 40.480469 10.183594 C 40.480469 5.683594 36.746094 2.007812 32.167969 2.007812 M 32.167969 23.664062 C 27.59375 23.664062 23.859375 27.34375 23.859375 31.835938 C 23.859375 36.335938 27.59375 39.925781 32.167969 39.925781 C 36.746094 39.925781 40.480469 36.335938 40.480469 31.835938 C 40.480469 27.34375 36.746094 23.664062 32.167969 23.664062 M 10.148438 45.316406 C 5.574219 45.316406 1.84375 48.996094 1.84375 53.492188 C 1.84375 57.992188 5.574219 61.671875 10.148438 61.671875 C 14.71875 61.671875 18.367188 57.992188 18.367188 53.492188 C 18.367188 48.996094 14.71875 45.316406 10.148438 45.316406 M 32.167969 45.316406 C 27.59375 45.316406 23.859375 48.996094 23.859375 53.492188 C 23.859375 57.992188 27.59375 61.671875 32.167969 61.671875 C 36.746094 61.671875 40.480469 57.992188 40.480469 53.492188 C 40.480469 48.996094 36.746094 45.316406 32.167969 45.316406 M 54.1875 45.316406 C 49.617188 45.316406 45.964844 48.996094 45.964844 53.492188 C 45.964844 57.992188 49.617188 61.671875 54.1875 61.671875 C 58.761719 61.671875 62.496094 57.992188 62.496094 53.492188 C 62.496094 48.996094 58.761719 45.316406 54.1875 45.316406 "/></g></svg>
