<svg xmlns="http://www.w3.org/2000/svg" xmlns:xlink="http://www.w3.org/1999/xlink" width="64" height="64" viewBox="0 0 64 64" version="1.1"><defs><linearGradient id="linear0" x1="0%" x2="0%" y1="0%" y2="100%"><stop offset="0%" style="stop-color:#ff0000; stop-opacity:1"/><stop offset="50%" style="stop-color:#ffd000; stop-opacity:1"/><stop offset="100%" style="stop-color:#0073ff; stop-opacity:1"/></linearGradient></defs><g id="surface1"><path style=" stroke:none;fill-rule:nonzero;fill:url(#linear0);" d="M 30.027344 49.316406 C 30.027344 57.0625 23.78125 63.339844 16.058594 63.339844 C 8.328125 63.339844 2.082031 57.0625 2.082031 49.316406 C 2.082031 41.578125 8.328125 35.296875 16.058594 35.296875 C 23.78125 35.296875 30.027344 41.578125 30.027344 49.316406 "/><path style=" stroke:none;fill-rule:nonzero;fill:url(#linear0);" d="M 63.070312 49.316406 C 63.070312 57.0625 56.816406 63.339844 49.09375 63.339844 C 41.371094 63.339844 35.113281 57.0625 35.113281 49.316406 C 35.113281 41.578125 41.371094 35.296875 49.09375 35.296875 C 56.816406 35.296875 63.070312 41.578125 63.070312 49.316406 "/><path style=" stroke:none;fill-rule:nonzero;fill:url(#linear0);" d="M 30.027344 16.179688 C 30.027344 23.925781 23.78125 30.199219 16.058594 30.199219 C 8.328125 30.199219 2.082031 23.925781 2.082031 16.179688 C 2.082031 8.433594 8.328125 2.160156 16.058594 2.160156 C 23.78125 2.160156 30.027344 8.433594 30.027344 16.179688 "/><path style=" stroke:none;fill-rule:nonzero;fill:url(#linear0);" d="M 63.070312 16.179688 C 63.070312 23.925781 56.816406 30.199219 49.09375 30.199219 C 41.371094 30.199219 35.113281 23.925781 35.113281 16.179688 C 35.113281 8.433594 41.371094 2.160156 49.09375 2.160156 C 56.816406 2.160156 63.070312 8.433594 63.070312 16.179688 "/></g></svg>
