<svg xmlns="http://www.w3.org/2000/svg" xmlns:xlink="http://www.w3.org/1999/xlink" width="64" height="64" viewBox="0 0 64 64" version="1.1"><defs><linearGradient id="linear0" x1="0%" x2="100%" y1="0%" y2="100%"><stop offset="0%" style="stop-color:#6a00ff; stop-opacity:1"/><stop offset="50%" style="stop-color:#e0dd02; stop-opacity:1"/><stop offset="100%" style="stop-color:#00b54e; stop-opacity:1"/></linearGradient></defs><g id="surface1"><path style=" stroke:none;fill-rule:nonzero;fill:url(#linear0);" d="M 32 1.160156 C 14.945312 1.160156 1.125 15.054688 1.125 32.1875 C 1.125 49.324219 14.945312 63.214844 32 63.214844 C 49.054688 63.214844 62.882812 49.324219 62.882812 32.1875 C 62.882812 15.054688 49.054688 1.160156 32 1.160156 Z M 32 13.09375 C 42.496094 13.09375 51.003906 21.644531 51.003906 32.1875 C 51.003906 42.730469 42.496094 51.28125 32 51.28125 C 21.503906 51.28125 13 42.730469 13 32.1875 C 13 21.644531 21.503906 13.09375 32 13.09375 Z M 32 13.09375 "/><path style=" stroke:none;fill-rule:nonzero;fill:url(#linear0);" d="M 30.746094 32.636719 L 39.582031 32.636719 L 39.582031 35.535156 L 30.746094 35.535156 Z M 30.746094 32.636719 "/><path style=" stroke:none;fill-rule:nonzero;fill:url(#linear0);" d="M 21.152344 28.5625 L 26.308594 33.644531 L 21.152344 38.722656 L 18.941406 36.542969 L 21.890625 33.644531 L 18.941406 30.742188 Z M 21.152344 28.5625 "/></g></svg>
