<svg xmlns="http://www.w3.org/2000/svg" xmlns:xlink="http://www.w3.org/1999/xlink" width="64" height="64" viewBox="0 0 64 64" version="1.1"><defs><linearGradient id="linear0" x1="0%" x2="100%" y1="0%" y2="100%"><stop offset="0%" style="stop-color:#00b54e; stop-opacity:1"/><stop offset="100%" style="stop-color:#0073ff; stop-opacity:1"/></linearGradient></defs><g id="surface1"><path style=" stroke:none;fill-rule:nonzero;fill:url(#linear0);" d="M 32.035156 6.277344 C 28.28125 6.277344 25.050781 8.597656 23.59375 11.941406 L 7.355469 11.941406 C 6.109375 11.941406 5.097656 12.867188 5.097656 14.023438 L 5.097656 17.890625 C 5.097656 19.046875 6.109375 19.980469 7.355469 19.980469 L 23.59375 19.980469 C 25.058594 23.316406 28.289062 25.636719 32.035156 25.636719 C 35.789062 25.636719 39.019531 23.316406 40.488281 19.980469 L 56.722656 19.980469 C 57.980469 19.980469 58.984375 19.046875 58.984375 17.890625 L 58.984375 14.023438 C 58.984375 12.863281 57.980469 11.941406 56.722656 11.941406 L 40.488281 11.941406 C 39.027344 8.597656 35.789062 6.277344 32.035156 6.277344 M 32.035156 12.375 C 32.097656 12.375 32.15625 12.375 32.214844 12.382812 C 32.222656 12.382812 32.226562 12.382812 32.242188 12.382812 C 34.042969 12.492188 35.472656 14.050781 35.472656 15.957031 C 35.472656 17.941406 33.933594 19.539062 32.035156 19.539062 C 31.980469 19.539062 31.925781 19.539062 31.863281 19.539062 C 30.046875 19.441406 28.605469 17.871094 28.605469 15.957031 C 28.605469 14.050781 30.035156 12.492188 31.839844 12.382812 C 31.90625 12.375 31.96875 12.375 32.035156 12.375 M 14.34375 20.972656 C 13.863281 20.957031 13.417969 21.21875 13.167969 21.636719 L 1.097656 41.941406 L 1.054688 41.941406 C 1.027344 42.308594 1.011719 42.6875 1.011719 43.070312 C 1.011719 50.75 6.976562 56.972656 14.34375 56.972656 C 21.707031 56.972656 27.675781 50.75 27.675781 43.070312 C 27.675781 42.753906 27.652344 42.433594 27.636719 42.121094 L 27.648438 42.117188 L 27.636719 42.09375 C 27.636719 42.046875 27.628906 41.992188 27.628906 41.941406 L 27.542969 41.941406 L 15.476562 21.636719 C 15.230469 21.230469 14.804688 20.980469 14.34375 20.972656 M 49.839844 21.0625 C 49.363281 21.054688 48.921875 21.316406 48.667969 21.738281 L 36.605469 42.03125 L 36.554688 42.03125 C 36.523438 42.410156 36.511719 42.785156 36.511719 43.164062 C 36.511719 50.847656 42.484375 57.070312 49.839844 57.070312 C 57.207031 57.070312 63.171875 50.847656 63.171875 43.164062 C 63.171875 42.847656 63.160156 42.527344 63.144531 42.210938 L 63.148438 42.210938 L 63.144531 42.195312 C 63.132812 42.144531 63.132812 42.089844 63.128906 42.03125 L 63.039062 42.03125 L 50.984375 21.738281 C 50.738281 21.328125 50.304688 21.070312 49.847656 21.0625 M 14.324219 25.078125 L 24.339844 41.941406 L 4.304688 41.941406 Z M 49.832031 25.179688 L 59.84375 42.03125 L 39.808594 42.03125 Z M 49.832031 25.179688 "/></g></svg>
