<svg xmlns="http://www.w3.org/2000/svg" xmlns:xlink="http://www.w3.org/1999/xlink" width="64" height="64" viewBox="0 0 64 64" version="1.1"><defs><linearGradient id="linear0" x1="0%" x2="100%" y1="0%" y2="100%"><stop offset="0%" style="stop-color:#ff0000; stop-opacity:1"/><stop offset="100%" style="stop-color:#6a00ff; stop-opacity:1"/></linearGradient></defs><g id="surface1"><path style=" stroke:none;fill-rule:nonzero;fill:url(#linear0);" d="M 10.390625 2.277344 L 10.390625 14.199219 L 1.320312 14.199219 L 1.320312 25.03125 L 10.390625 25.03125 L 10.390625 41.046875 L 1.320312 41.046875 L 1.320312 51.882812 L 18.292969 51.882812 L 18.292969 62.511719 L 26.605469 62.511719 L 26.605469 51.882812 L 36.523438 51.882812 L 36.523438 62.511719 L 44.839844 62.511719 L 44.839844 51.882812 L 62.414062 51.882812 L 62.414062 41.046875 L 53.246094 41.046875 L 53.246094 25.03125 L 62.414062 25.03125 L 62.414062 14.199219 L 53.246094 14.199219 L 53.246094 2.277344 L 45.523438 2.277344 L 45.523438 14.199219 L 35.8125 14.199219 L 35.8125 2.277344 L 28.097656 2.277344 L 28.097656 14.199219 L 18.117188 14.199219 L 18.117188 2.277344 Z M 18.117188 25.03125 L 28.097656 25.03125 L 28.097656 41.046875 L 18.117188 41.046875 Z M 35.8125 25.03125 L 45.523438 25.03125 L 45.523438 41.046875 L 35.8125 41.046875 Z M 35.8125 25.03125 "/></g></svg>
