<svg xmlns="http://www.w3.org/2000/svg" xmlns:xlink="http://www.w3.org/1999/xlink" width="64" height="64" viewBox="0 0 64 64" version="1.1"><defs><linearGradient id="linear0" x1="0%" x2="0%" y1="0%" y2="100%"><stop offset="0%" style="stop-color:#00b54e; stop-opacity:1"/><stop offset="50%" style="stop-color:#0073ff; stop-opacity:1"/><stop offset="100%" style="stop-color:#ffd000; stop-opacity:1"/></linearGradient></defs><g id="surface1"><path style=" stroke:none;fill-rule:nonzero;fill:url(#linear0);" d="M 2.449219 1.015625 C 1.746094 1.105469 1.199219 1.847656 1.199219 2.675781 L 1.199219 32.847656 C 1.199219 33.730469 1.855469 34.503906 2.597656 34.503906 L 15.414062 34.503906 L 15.414062 40.085938 L 5.9375 40.085938 L 5.9375 45.664062 L 23.195312 45.664062 L 23.195312 28.925781 L 6.976562 28.925781 C 6.484375 28.925781 6.011719 28.382812 6.011719 27.78125 L 6.011719 7.742188 C 6 7.222656 6.3125 6.710938 6.75 6.613281 C 6.808594 6.601562 6.902344 6.601562 6.972656 6.613281 L 33.351562 6.613281 C 33.839844 6.613281 34.3125 7.140625 34.3125 7.742188 L 34.3125 15.765625 L 39.125 15.765625 L 39.125 2.675781 C 39.125 1.808594 38.460938 1.015625 37.714844 1.015625 "/><path style=" stroke:none;fill-rule:nonzero;fill:url(#linear0);" d="M 26.171875 17.757812 C 25.476562 17.84375 24.894531 18.609375 24.894531 19.421875 L 24.894531 49.578125 C 24.894531 50.445312 25.578125 51.242188 26.316406 51.242188 L 39.109375 51.242188 L 39.109375 59.589844 L 48.597656 59.589844 L 48.597656 51.242188 L 61.410156 51.242188 C 62.148438 51.242188 62.820312 50.445312 62.820312 49.578125 L 62.820312 19.421875 C 62.820312 18.550781 62.136719 17.757812 61.410156 17.757812 M 30.46875 23.335938 C 30.523438 23.320312 30.578125 23.320312 30.640625 23.335938 L 57.0625 23.335938 C 57.5625 23.335938 58.015625 23.867188 58.015625 24.460938 L 58.015625 44.550781 C 58.015625 45.121094 57.5625 45.652344 57.0625 45.652344 L 30.640625 45.652344 C 30.140625 45.652344 29.691406 45.121094 29.691406 44.550781 L 29.691406 24.460938 C 29.679688 23.933594 30.03125 23.429688 30.46875 23.335938 M 29.636719 56.804688 L 29.636719 62.382812 L 58.082031 62.382812 L 58.082031 56.804688 "/></g></svg>
