<svg xmlns="http://www.w3.org/2000/svg" xmlns:xlink="http://www.w3.org/1999/xlink" width="64" height="64" viewBox="0 0 64 64" version="1.1"><defs><linearGradient id="linear0" x1="100%" x2="0%" y1="100%" y2="0%"><stop offset="0%" style="stop-color:#00b54e; stop-opacity:1"/><stop offset="100%" style="stop-color:#ff0000; stop-opacity:1"/></linearGradient></defs><g id="surface1"><path style=" stroke:none;fill-rule:evenodd;fill:url(#linear0);" d="M 49.71875 1.648438 C 49.113281 1.644531 48.625 2.148438 48.617188 2.765625 L 48.527344 21.074219 L 46.6875 21.074219 L 46.78125 2.875 C 46.785156 2.261719 46.292969 1.761719 45.683594 1.761719 C 45.078125 1.753906 44.589844 2.253906 44.582031 2.871094 L 44.492188 21.074219 L 42.597656 21.074219 L 42.683594 2.871094 C 42.6875 2.253906 42.195312 1.753906 41.589844 1.753906 C 40.976562 1.746094 40.492188 2.25 40.488281 2.863281 L 40.402344 21.074219 L 38.5 21.074219 L 38.59375 3.078125 C 38.597656 2.460938 38.109375 1.960938 37.496094 1.960938 C 36.890625 1.957031 36.398438 2.460938 36.386719 3.078125 C 36.339844 11.871094 36.339844 11.855469 36.316406 21.632812 L 36.316406 25.332031 L 36.332031 25.332031 C 36.457031 27.121094 37.863281 28.578125 39.734375 28.964844 L 39.984375 63.351562 L 47.757812 63.351562 L 47.621094 28.917969 C 49.378906 28.46875 50.6875 27.042969 50.804688 25.332031 L 50.816406 25.332031 L 50.816406 21.074219 C 50.660156 15.15625 50.785156 8.832031 50.816406 2.777344 C 50.820312 2.15625 50.324219 1.648438 49.71875 1.648438 M 22.921875 5.0625 C 17.578125 5.074219 13.105469 10.539062 12.867188 17.398438 C 12.683594 22.738281 15.121094 27.378906 18.722656 29.328125 L 18.765625 63.347656 L 26.828125 63.347656 L 27.035156 28.957031 C 30.207031 26.917969 32.460938 22.800781 32.628906 17.980469 C 32.871094 11.007812 28.636719 5.214844 23.175781 5.054688 C 23.09375 5.054688 23.003906 5.054688 22.921875 5.054688 "/></g></svg>
