<svg xmlns="http://www.w3.org/2000/svg" xmlns:xlink="http://www.w3.org/1999/xlink" width="64" height="64" viewBox="0 0 64 64" version="1.1"><defs><linearGradient id="linear0" x1="0%" x2="100%" y1="0%" y2="100%"><stop offset="0%" style="stop-color:#ff0000; stop-opacity:1"/><stop offset="100%" style="stop-color:#6a00ff; stop-opacity:1"/></linearGradient></defs><g id="surface1"><path style=" stroke:none;fill-rule:nonzero;fill:url(#linear0);" d="M 17.476562 1.824219 C 16.6875 1.855469 15.910156 2.1875 15.328125 2.933594 C 13.574219 5.210938 13.085938 7.664062 13.839844 10.390625 C 14.574219 13.070312 16.644531 15.144531 15.59375 18.023438 C 14.441406 21.179688 19.699219 22.523438 20.84375 19.398438 C 21.710938 17.011719 21.476562 14.699219 20.527344 12.378906 C 19.472656 9.800781 18.078125 8.0625 20.027344 5.546875 C 21.519531 3.617188 19.492188 1.738281 17.476562 1.824219 M 27.277344 1.824219 C 26.480469 1.855469 25.699219 2.1875 25.125 2.933594 C 23.371094 5.210938 22.875 7.664062 23.628906 10.390625 C 24.363281 13.070312 26.441406 15.144531 25.386719 18.023438 C 24.238281 21.179688 29.492188 22.523438 30.636719 19.398438 C 31.503906 17.011719 31.265625 14.699219 30.316406 12.378906 C 29.261719 9.800781 27.871094 8.0625 29.820312 5.546875 C 31.3125 3.617188 29.285156 1.738281 27.277344 1.824219 M 37.070312 1.824219 C 36.277344 1.855469 35.480469 2.1875 34.910156 2.933594 C 33.148438 5.210938 32.671875 7.664062 33.421875 10.390625 C 34.160156 13.070312 36.234375 15.144531 35.183594 18.023438 C 34.03125 21.179688 39.285156 22.523438 40.429688 19.398438 C 41.300781 17.011719 41.058594 14.699219 40.113281 12.378906 C 39.054688 9.800781 37.671875 8.0625 39.613281 5.546875 C 41.105469 3.617188 39.082031 1.738281 37.070312 1.824219 M 1.621094 24.390625 C 1.621094 38.859375 1.621094 62.0625 26.664062 62.0625 C 38.351562 62.0625 44.589844 57.007812 47.914062 50.144531 C 58.652344 49.714844 63.027344 45.15625 63.027344 39.589844 C 63.027344 34.71875 59.675781 30.632812 51.675781 29.386719 C 51.707031 27.640625 51.707031 25.96875 51.707031 24.390625 L 1.621094 24.390625 M 10.203125 28.089844 C 11.5625 28.089844 12.914062 28.925781 12.914062 30.59375 C 12.898438 37.671875 14.441406 44.425781 18.664062 50.347656 C 20.636719 53.113281 15.914062 55.695312 13.964844 52.957031 C 9.242188 46.332031 7.453125 38.511719 7.472656 30.59375 C 7.472656 28.925781 8.84375 28.089844 10.203125 28.089844 M 51.492188 34.0625 C 55.675781 35.046875 56.628906 37.089844 56.582031 39.699219 C 56.53125 42.679688 55.367188 44.703125 49.695312 45.429688 C 50.753906 41.777344 51.253906 37.867188 51.492188 34.0625 "/></g></svg>
