<svg xmlns="http://www.w3.org/2000/svg" xmlns:xlink="http://www.w3.org/1999/xlink" width="64" height="64" viewBox="0 0 64 64" version="1.1"><defs><linearGradient id="linear0" x1="0%" x2="0%" y1="0%" y2="100%"><stop offset="0%" style="stop-color:#ff0000; stop-opacity:1"/><stop offset="50%" style="stop-color:#ffd000; stop-opacity:1"/><stop offset="100%" style="stop-color:#0073ff; stop-opacity:1"/></linearGradient></defs><g id="surface1"><path style=" stroke:none;fill-rule:nonzero;fill:url(#linear0);" d="M 32.46875 1.746094 C 21.402344 1.746094 11.671875 7.613281 6.335938 16.414062 L 6.335938 48.414062 C 11.722656 57.214844 21.402344 63.082031 32.46875 63.082031 C 43.535156 63.082031 53.269531 57.214844 58.601562 48.414062 L 58.601562 16.414062 C 53.21875 7.613281 43.535156 1.746094 32.46875 1.746094 Z M 32.46875 1.746094 "/><path style=" stroke:none;fill-rule:nonzero;fill:url(#linear0);" d="M 6.398438 18.78125 C 3.546875 23.4375 1.894531 28.914062 1.894531 34.78125 C 1.894531 40.648438 3.546875 46.128906 6.398438 50.78125 L 58.667969 50.78125 C 61.519531 46.128906 63.171875 40.648438 63.171875 34.78125 C 63.171875 28.914062 61.519531 23.4375 58.667969 18.78125 Z M 6.398438 18.78125 "/></g></svg>
