<svg xmlns="http://www.w3.org/2000/svg" xmlns:xlink="http://www.w3.org/1999/xlink" width="64" height="64" viewBox="0 0 64 64" version="1.1"><defs><linearGradient id="linear0" x1="0%" x2="0%" y1="0%" y2="100%"><stop offset="0%" style="stop-color:#00b54e; stop-opacity:1"/><stop offset="50%" style="stop-color:#0073ff; stop-opacity:1"/><stop offset="100%" style="stop-color:#ffd000; stop-opacity:1"/></linearGradient></defs><g id="surface1"><path style=" stroke:none;fill-rule:nonzero;fill:url(#linear0);" d="M 13.089844 1.976562 C 12.398438 2.015625 11.976562 2.722656 12.28125 3.328125 C 14.464844 7.789062 14.21875 9.710938 14.605469 13.085938 C 14.671875 13.675781 15.28125 14.054688 15.859375 13.871094 C 19.292969 12.808594 20.855469 12.140625 23.269531 11.898438 C 21.644531 13.367188 20.632812 15.292969 20.632812 17.546875 C 20.632812 23.332031 23.324219 24.855469 27.621094 25.246094 L 26.449219 27.3125 L 18.816406 23.199219 C 18.636719 23.101562 18.433594 23.058594 18.230469 23.058594 L 10.476562 23.058594 L 6 15.449219 C 5.78125 15.0625 5.355469 14.828125 4.902344 14.847656 C 3.988281 14.878906 3.441406 15.847656 3.90625 16.609375 L 8.734375 24.808594 C 8.949219 25.175781 9.351562 25.402344 9.785156 25.402344 L 17.921875 25.402344 L 25.738281 29.613281 L 25.460938 32.429688 L 17.027344 32.429688 C 16.886719 32.429688 16.746094 32.449219 16.613281 32.496094 L 10.800781 34.550781 L 4.695312 27.019531 C 4.472656 26.734375 4.125 26.5625 3.757812 26.554688 C 2.734375 26.542969 2.160156 27.691406 2.804688 28.464844 L 9.441406 36.660156 C 9.761719 37.0625 10.3125 37.210938 10.800781 37.039062 L 17.242188 34.765625 L 25.660156 34.765625 L 26.128906 36.703125 L 15.386719 40.703125 C 15.105469 40.804688 14.875 41.011719 14.742188 41.273438 L 8.820312 52.75 L 2.996094 57.273438 C 1.738281 58.25 3.25 60.082031 4.503906 59.105469 L 10.539062 54.421875 C 10.675781 54.3125 10.785156 54.179688 10.863281 54.027344 L 16.6875 42.71875 L 27.105469 38.847656 L 20.027344 50.578125 C 20.027344 57.371094 25.164062 62.875 31.496094 62.875 C 37.828125 62.875 42.960938 57.371094 42.960938 50.578125 C 42.957031 45.53125 40.078125 40.996094 35.699219 39.148438 L 35.699219 39.144531 C 35.757812 39.046875 35.816406 38.945312 35.875 38.839844 L 46.308594 42.71875 L 52.140625 54.027344 C 52.214844 54.179688 52.328125 54.3125 52.464844 54.421875 L 58.5 59.105469 C 59.753906 60.082031 61.265625 58.25 60.007812 57.273438 L 54.179688 52.75 L 48.261719 41.273438 C 48.128906 41.011719 47.902344 40.808594 47.621094 40.703125 L 36.859375 36.699219 C 37.058594 36.085938 37.222656 35.4375 37.332031 34.769531 L 45.765625 34.769531 L 52.203125 37.042969 C 52.691406 37.214844 53.242188 37.066406 53.566406 36.664062 L 60.203125 28.464844 C 60.859375 27.683594 60.25 26.515625 59.210938 26.558594 C 58.851562 26.578125 58.519531 26.746094 58.308594 27.023438 L 52.207031 34.550781 L 46.390625 32.5 C 46.257812 32.453125 46.117188 32.429688 45.980469 32.429688 L 37.53125 32.429688 C 37.527344 31.480469 37.433594 30.535156 37.246094 29.628906 L 45.085938 25.402344 L 53.222656 25.402344 C 53.65625 25.402344 54.050781 25.175781 54.269531 24.8125 L 59.097656 16.613281 C 59.574219 15.832031 58.992188 14.84375 58.054688 14.847656 C 57.617188 14.847656 57.214844 15.078125 57 15.449219 L 52.519531 23.058594 L 44.773438 23.058594 C 44.566406 23.058594 44.367188 23.105469 44.1875 23.207031 L 36.554688 27.324219 C 36.230469 26.546875 35.832031 25.851562 35.371094 25.253906 C 39.660156 24.859375 42.359375 23.335938 42.359375 17.558594 C 42.359375 15.296875 41.34375 13.375 39.722656 11.90625 C 42.136719 12.144531 43.703125 12.8125 47.132812 13.878906 C 47.714844 14.058594 48.320312 13.679688 48.390625 13.089844 C 48.769531 9.722656 48.527344 7.792969 50.714844 3.332031 C 51.042969 2.6875 50.519531 1.929688 49.78125 1.984375 C 49.425781 2.003906 49.117188 2.214844 48.96875 2.527344 C 46.941406 6.660156 46.839844 9.0625 46.597656 11.75 C 42.953125 10.578125 40.933594 9.828125 36.496094 9.945312 C 36.4375 9.925781 36.378906 9.894531 36.324219 9.875 L 36.324219 5.492188 C 36.324219 4.847656 35.785156 4.320312 35.117188 4.320312 L 33.910156 4.320312 L 33.910156 9.214844 L 29.082031 9.214844 L 29.082031 4.320312 L 27.875 4.320312 C 27.207031 4.320312 26.667969 4.847656 26.667969 5.492188 L 26.667969 9.875 C 26.605469 9.898438 26.546875 9.925781 26.488281 9.945312 C 22.0625 9.828125 20.039062 10.578125 16.398438 11.75 C 16.152344 9.066406 16.046875 6.660156 14.027344 2.527344 C 13.859375 2.175781 13.488281 1.960938 13.089844 1.984375 Z M 13.089844 1.976562 "/></g></svg>
