<svg xmlns="http://www.w3.org/2000/svg" xmlns:xlink="http://www.w3.org/1999/xlink" width="64" height="64" viewBox="0 0 64 64" version="1.1"><defs><linearGradient id="linear0" x1="0%" x2="0%" y1="0%" y2="100%"><stop offset="0%" style="stop-color:#00b54e; stop-opacity:1"/><stop offset="50%" style="stop-color:#ffd000; stop-opacity:1"/><stop offset="100%" style="stop-color:#ff00bb; stop-opacity:1"/></linearGradient></defs><g id="surface1"><path style=" stroke:none;fill-rule:nonzero;fill:url(#linear0);" d="M 24.890625 20.53125 L 28.609375 20.53125 L 28.609375 39.703125 L 39.925781 39.703125 L 39.925781 43.375 L 24.878906 43.375 Z M 24.828125 1.699219 L 24.828125 5.34375 L 5.242188 5.34375 L 5.242188 16.421875 L 1.5 16.421875 L 1.5 1.6875 Z M 40.046875 1.699219 L 40.046875 5.34375 L 59.628906 5.34375 L 59.628906 16.421875 L 63.375 16.421875 L 63.375 1.6875 Z M 24.828125 62.242188 L 24.828125 58.601562 L 5.242188 58.601562 L 5.242188 47.515625 L 1.5 47.515625 L 1.5 62.25 Z M 40.046875 62.242188 L 40.046875 58.601562 L 59.628906 58.601562 L 59.628906 47.515625 L 63.375 47.515625 L 63.375 62.25 Z M 40.046875 62.242188 "/></g></svg>
