<svg xmlns="http://www.w3.org/2000/svg" xmlns:xlink="http://www.w3.org/1999/xlink" width="64" height="64" viewBox="0 0 64 64" version="1.1"><defs><linearGradient id="linear0" x1="100%" x2="0%" y1="100%" y2="0%"><stop offset="0%" style="stop-color:#00b54e; stop-opacity:1"/><stop offset="100%" style="stop-color:#ff0000; stop-opacity:1"/></linearGradient></defs><g id="surface1"><path style=" stroke:none;fill-rule:nonzero;fill:url(#linear0);" d="M 44.042969 1.28125 C 41.925781 1.28125 40.21875 3.890625 40.21875 7.136719 C 40.21875 10.382812 41.925781 12.992188 44.042969 12.992188 L 50.117188 12.992188 L 36.402344 34.011719 L 27.652344 20.605469 C 26.160156 18.320312 23.753906 18.320312 22.261719 20.605469 L 1.136719 52.984375 C 2.160156 56.78125 3.441406 60.363281 4.941406 63.703125 L 24.960938 33.019531 L 33.710938 46.429688 C 35.207031 48.710938 37.609375 48.710938 39.097656 46.429688 L 55.492188 21.308594 L 55.492188 30.621094 C 55.492188 33.859375 57.195312 36.476562 59.308594 36.476562 C 61.425781 36.476562 63.128906 33.859375 63.128906 30.621094 L 63.128906 7.195312 C 63.128906 3.953125 61.425781 1.339844 59.308594 1.339844 L 44.023438 1.339844 Z M 44.042969 1.28125 "/></g></svg>
