<svg xmlns="http://www.w3.org/2000/svg" xmlns:xlink="http://www.w3.org/1999/xlink" width="64" height="64" viewBox="0 0 64 64" version="1.1"><defs><linearGradient id="linear0" x1="0%" x2="0%" y1="0%" y2="100%"><stop offset="0%" style="stop-color:#00b54e; stop-opacity:1"/><stop offset="50%" style="stop-color:#ffd000; stop-opacity:1"/><stop offset="100%" style="stop-color:#ff00bb; stop-opacity:1"/></linearGradient></defs><g id="surface1"><path style=" stroke:none;fill-rule:nonzero;fill:url(#linear0);" d="M 23.972656 53.03125 C 23.914062 52.945312 23.917969 52.894531 24.007812 52.71875 C 24.058594 52.613281 24.101562 52.566406 24.175781 52.539062 C 24.339844 52.460938 24.476562 52.328125 24.59375 52.164062 C 24.707031 52.003906 24.839844 51.867188 24.992188 51.773438 C 25.097656 51.691406 25.195312 51.589844 25.273438 51.46875 C 25.34375 51.359375 25.433594 51.265625 25.535156 51.183594 C 25.597656 51.140625 25.652344 51.097656 25.652344 51.082031 C 25.652344 51.070312 25.714844 50.996094 25.789062 50.933594 C 25.835938 50.886719 25.882812 50.84375 25.921875 50.785156 C 25.921875 50.734375 26.152344 50.425781 26.210938 50.382812 C 26.25 50.359375 26.285156 50.316406 26.308594 50.273438 C 26.386719 50.097656 26.488281 49.953125 26.605469 49.839844 C 26.675781 49.75 26.734375 49.644531 26.765625 49.527344 C 26.800781 49.425781 26.851562 49.332031 26.90625 49.25 C 26.960938 49.222656 27.039062 49.042969 27.070312 48.890625 C 27.097656 48.789062 27.136719 48.695312 27.179688 48.605469 C 27.296875 48.355469 27.371094 48.058594 27.382812 47.753906 C 27.382812 47.601562 27.382812 47.59375 27.566406 47.339844 L 27.785156 47.050781 C 27.847656 46.972656 27.90625 46.890625 27.96875 46.820312 C 28.023438 46.753906 28.070312 46.679688 28.113281 46.609375 C 28.113281 46.59375 28.09375 46.558594 28.058594 46.535156 C 28.007812 46.484375 28.003906 46.464844 28.015625 46.347656 L 28.03125 46.210938 L 27.953125 46.230469 C 27.914062 46.246094 27.875 46.277344 27.847656 46.304688 C 27.789062 46.363281 27.773438 46.363281 27.65625 46.28125 C 27.570312 46.230469 27.542969 46.203125 27.542969 46.144531 C 27.542969 46.042969 27.644531 45.914062 27.730469 45.882812 C 27.785156 45.855469 27.824219 45.804688 27.855469 45.746094 C 27.890625 45.675781 27.9375 45.617188 27.957031 45.617188 C 27.980469 45.617188 28.015625 45.574219 28.046875 45.523438 C 28.074219 45.464844 28.121094 45.421875 28.171875 45.386719 C 28.328125 45.3125 28.371094 45.09375 28.238281 45.039062 C 28.148438 44.992188 28.136719 44.871094 28.222656 44.8125 C 28.332031 44.695312 28.433594 44.582031 28.527344 44.449219 C 28.613281 44.3125 28.71875 44.199219 28.835938 44.109375 C 28.871094 44.101562 28.898438 44.066406 28.898438 44.046875 C 28.914062 43.972656 28.847656 43.972656 28.792969 44.050781 C 28.769531 44.082031 28.734375 44.117188 28.71875 44.117188 C 28.707031 44.117188 28.667969 44.152344 28.640625 44.191406 C 28.613281 44.242188 28.566406 44.269531 28.546875 44.269531 C 28.488281 44.292969 28.445312 44.328125 28.398438 44.371094 C 28.113281 44.644531 28.085938 44.660156 28.03125 44.640625 C 27.984375 44.625 27.9375 44.644531 27.851562 44.71875 C 27.722656 44.828125 27.648438 44.828125 27.648438 44.71875 C 27.648438 44.667969 27.769531 44.539062 28.019531 44.320312 C 28.085938 44.261719 28.152344 44.191406 28.214844 44.109375 C 28.28125 44.03125 28.355469 43.953125 28.429688 43.871094 C 28.507812 43.800781 28.578125 43.710938 28.644531 43.625 C 28.707031 43.53125 28.796875 43.457031 28.886719 43.429688 C 28.980469 43.402344 29.042969 43.359375 29.066406 43.292969 C 29.210938 43.03125 29.390625 42.808594 29.597656 42.632812 C 29.820312 42.421875 30.027344 42.191406 30.210938 41.929688 C 30.28125 41.859375 30.351562 41.792969 30.429688 41.734375 C 30.515625 41.675781 30.59375 41.589844 30.648438 41.488281 C 30.6875 41.417969 30.738281 41.359375 30.800781 41.308594 C 31.03125 41.089844 31.242188 40.835938 31.433594 40.5625 C 31.433594 40.519531 31.8125 40.054688 31.839844 40.054688 C 31.996094 39.894531 32.136719 39.714844 32.253906 39.511719 C 32.34375 39.347656 32.378906 39.300781 32.472656 39.25 C 32.578125 39.15625 32.667969 39.027344 32.726562 38.875 C 32.734375 38.839844 32.78125 38.78125 32.832031 38.753906 C 32.875 38.722656 32.914062 38.679688 32.9375 38.621094 C 32.976562 38.542969 33.023438 38.484375 33.078125 38.433594 C 33.132812 38.375 33.1875 38.308594 33.230469 38.230469 C 33.308594 38.085938 33.402344 37.960938 33.515625 37.863281 C 33.582031 37.789062 33.640625 37.703125 33.691406 37.601562 C 33.730469 37.5 33.792969 37.414062 33.871094 37.347656 C 33.933594 37.289062 33.984375 37.222656 34.027344 37.144531 C 34.0625 37.070312 34.101562 37 34.144531 36.933594 C 34.285156 36.796875 34.414062 36.628906 34.53125 36.449219 C 34.621094 36.269531 34.734375 36.117188 34.875 36 C 34.929688 35.949219 34.980469 35.890625 35.019531 35.820312 C 35.035156 35.761719 35.0625 35.71875 35.097656 35.675781 C 35.34375 35.371094 35.613281 35.101562 35.898438 34.878906 C 35.957031 34.84375 36.007812 34.792969 36.046875 34.734375 C 36.085938 34.675781 36.136719 34.625 36.160156 34.625 C 36.183594 34.625 36.210938 34.574219 36.246094 34.523438 C 36.289062 34.421875 36.460938 34.277344 36.539062 34.277344 C 36.585938 34.246094 36.625 34.210938 36.660156 34.167969 C 36.707031 34.109375 36.769531 34.050781 36.832031 34.007812 C 36.871094 33.988281 36.90625 33.945312 36.921875 33.902344 C 36.9375 33.851562 36.964844 33.804688 37 33.769531 C 37.121094 33.640625 37.082031 33.421875 36.945312 33.503906 C 36.796875 33.539062 36.652344 33.554688 36.507812 33.539062 C 36.34375 33.523438 36.183594 33.539062 36.03125 33.597656 C 35.851562 33.675781 35.671875 33.726562 35.488281 33.75 C 35.371094 33.761719 35.316406 33.792969 35.269531 33.84375 C 35.214844 33.921875 35.082031 33.957031 34.675781 34.023438 C 34.515625 34.050781 34.351562 34.089844 34.195312 34.132812 C 33.898438 34.21875 33.601562 34.277344 33.308594 34.3125 C 32.714844 34.386719 32.472656 34.449219 32.382812 34.539062 C 32.183594 34.617188 31.96875 34.652344 31.75 34.640625 C 31.421875 34.640625 31.226562 34.59375 31.160156 34.5 C 31.046875 34.394531 30.921875 34.3125 30.789062 34.261719 C 30.746094 34.25 30.707031 34.203125 30.683594 34.148438 C 30.480469 33.894531 30.332031 33.589844 30.222656 33.257812 C 30.222656 33.226562 30.207031 33.175781 30.179688 33.148438 C 30.046875 32.800781 29.964844 32.417969 29.945312 32.023438 C 29.925781 31.902344 29.894531 31.785156 29.855469 31.671875 C 29.820312 31.582031 29.800781 31.488281 29.78125 31.386719 C 29.78125 31.277344 29.855469 31.054688 29.921875 30.945312 C 29.949219 30.910156 29.964844 30.867188 29.976562 30.824219 C 29.976562 30.734375 30.132812 30.484375 30.210938 30.4375 C 30.257812 30.410156 30.300781 30.367188 30.300781 30.351562 C 30.464844 30.097656 30.648438 29.867188 30.851562 29.65625 C 30.890625 29.636719 30.917969 29.59375 30.941406 29.542969 C 30.960938 29.460938 31.128906 29.296875 31.199219 29.296875 C 31.257812 29.265625 31.308594 29.214844 31.359375 29.15625 C 31.40625 29.09375 31.460938 29.050781 31.523438 29.011719 C 31.542969 29.011719 31.574219 28.960938 31.601562 28.917969 C 31.730469 28.738281 31.886719 28.601562 32.058594 28.511719 C 32.148438 28.457031 32.234375 28.382812 32.3125 28.304688 C 32.441406 28.152344 32.585938 28.035156 32.742188 27.949219 C 32.855469 27.882812 32.953125 27.78125 33.039062 27.664062 C 33.109375 27.570312 33.1875 27.476562 33.277344 27.40625 C 33.328125 27.363281 33.375 27.316406 33.40625 27.253906 C 33.445312 27.203125 33.492188 27.160156 33.546875 27.128906 C 33.601562 27.09375 33.652344 27.050781 33.652344 27.027344 C 33.652344 26.976562 33.761719 26.773438 33.804688 26.761719 C 33.910156 26.660156 34.011719 26.542969 34.101562 26.421875 C 34.214844 26.28125 34.324219 26.144531 34.449219 26.023438 C 34.53125 25.933594 34.609375 25.832031 34.675781 25.71875 C 34.722656 25.632812 34.785156 25.558594 34.851562 25.5 C 34.914062 25.457031 34.972656 25.398438 35.023438 25.335938 C 35.070312 25.277344 35.125 25.21875 35.1875 25.175781 C 35.199219 25.175781 35.21875 25.132812 35.238281 25.074219 C 35.277344 24.972656 35.386719 24.835938 35.601562 24.652344 C 35.664062 24.601562 35.710938 24.53125 35.746094 24.445312 C 35.769531 24.386719 35.800781 24.347656 35.835938 24.347656 C 35.863281 24.347656 35.929688 24.277344 36 24.195312 C 36.042969 24.125 36.09375 24.066406 36.15625 24.015625 C 36.175781 24 36.199219 23.972656 36.210938 23.945312 C 36.289062 23.777344 36.402344 23.640625 36.535156 23.554688 C 36.660156 23.472656 36.6875 23.4375 36.796875 23.25 C 36.921875 23.054688 37.074219 22.886719 37.234375 22.757812 C 37.300781 22.707031 37.359375 22.632812 37.402344 22.546875 C 37.425781 22.488281 37.464844 22.4375 37.515625 22.410156 C 37.558594 22.378906 37.597656 22.335938 37.625 22.277344 C 37.652344 22.226562 37.691406 22.183594 37.734375 22.15625 C 37.8125 22.089844 37.882812 22.011719 37.949219 21.921875 C 38.023438 21.820312 38.101562 21.734375 38.191406 21.648438 C 38.296875 21.554688 38.394531 21.445312 38.488281 21.328125 C 38.578125 21.199219 38.683594 21.089844 38.800781 21.003906 C 38.878906 20.96875 38.929688 20.925781 38.929688 20.910156 C 38.929688 20.859375 39.199219 20.527344 39.265625 20.476562 C 39.308594 20.445312 39.355469 20.410156 39.386719 20.359375 C 39.429688 20.316406 39.46875 20.28125 39.515625 20.25 C 39.625 20.1875 39.703125 20.105469 39.703125 20.039062 C 39.703125 20.003906 39.71875 19.96875 39.753906 19.953125 C 39.800781 19.933594 39.847656 19.894531 39.882812 19.851562 C 39.9375 19.789062 40 19.730469 40.058594 19.679688 C 40.117188 19.636719 40.160156 19.578125 40.199219 19.511719 C 40.210938 19.46875 40.261719 19.417969 40.3125 19.390625 C 40.382812 19.34375 40.453125 19.296875 40.511719 19.230469 C 40.574219 19.164062 40.648438 19.113281 40.71875 19.078125 C 40.804688 19.046875 40.875 18.992188 40.9375 18.917969 C 40.976562 18.867188 41.015625 18.832031 41.054688 18.796875 C 41.105469 18.765625 41.15625 18.730469 41.203125 18.695312 C 41.246094 18.652344 41.300781 18.621094 41.363281 18.601562 C 41.453125 18.570312 41.535156 18.527344 41.621094 18.46875 C 41.734375 18.398438 41.851562 18.332031 41.96875 18.273438 C 42.050781 18.230469 42.128906 18.171875 42.203125 18.105469 L 42.433594 17.855469 C 42.492188 17.789062 42.554688 17.730469 42.628906 17.695312 C 42.695312 17.652344 42.757812 17.601562 42.8125 17.527344 C 42.859375 17.476562 42.902344 17.433594 42.953125 17.390625 C 42.964844 17.390625 42.980469 17.355469 42.996094 17.316406 C 43.015625 17.273438 43.066406 17.222656 43.144531 17.1875 C 43.222656 17.152344 43.273438 17.109375 43.292969 17.058594 C 43.328125 16.964844 43.417969 16.914062 43.445312 16.96875 C 43.472656 17.035156 43.445312 17.128906 43.390625 17.171875 C 43.359375 17.195312 43.328125 17.222656 43.304688 17.261719 C 43.261719 17.324219 43.265625 17.457031 43.3125 17.457031 C 43.378906 17.457031 43.472656 17.355469 43.472656 17.296875 C 43.472656 17.261719 43.5 17.203125 43.539062 17.171875 C 43.585938 17.136719 43.625 17.09375 43.664062 17.050781 C 43.730469 16.957031 43.792969 16.949219 43.792969 17.050781 C 43.792969 17.085938 43.8125 17.160156 43.847656 17.214844 L 43.898438 17.324219 L 44.003906 17.246094 C 44.078125 17.1875 44.167969 17.160156 44.257812 17.167969 C 44.441406 17.167969 44.492188 17.214844 44.457031 17.363281 C 44.414062 17.5625 44.433594 17.59375 44.546875 17.484375 C 44.601562 17.433594 44.636719 17.425781 44.765625 17.449219 C 44.898438 17.46875 44.910156 17.476562 44.921875 17.550781 C 44.921875 17.621094 44.90625 17.660156 44.839844 17.730469 C 44.714844 17.855469 44.597656 18 44.496094 18.15625 C 44.464844 18.203125 44.429688 18.246094 44.390625 18.28125 C 44.179688 18.492188 44.140625 18.550781 44.140625 18.601562 C 44.140625 18.621094 44.171875 18.6875 44.210938 18.738281 C 44.324219 18.839844 44.300781 18.949219 44.160156 19.042969 C 44.09375 19.097656 44.039062 19.164062 43.988281 19.246094 C 43.953125 19.296875 43.910156 19.34375 43.863281 19.382812 C 43.796875 19.417969 43.742188 19.492188 43.742188 19.5625 C 43.742188 19.648438 43.8125 19.636719 43.847656 19.546875 C 43.871094 19.484375 44 19.394531 44.222656 19.265625 C 44.265625 19.25 44.304688 19.214844 44.335938 19.171875 C 44.351562 19.136719 44.386719 19.113281 44.441406 19.113281 C 44.496094 19.113281 44.546875 19.085938 44.601562 19.019531 C 44.6875 18.917969 44.777344 18.898438 44.800781 18.976562 C 44.808594 19.019531 44.691406 19.171875 44.429688 19.460938 C 44.226562 19.6875 44.210938 19.714844 44.210938 19.742188 C 44.167969 19.808594 44.105469 19.859375 44.042969 19.894531 C 43.941406 19.96875 43.859375 20.046875 43.851562 20.085938 C 43.820312 20.207031 43.652344 20.386719 43.527344 20.4375 C 43.382812 20.496094 43.351562 20.539062 43.289062 20.785156 C 43.238281 20.976562 43.183594 21.039062 42.996094 21.128906 C 42.945312 21.148438 42.902344 21.191406 42.867188 21.242188 C 42.835938 21.292969 42.796875 21.328125 42.746094 21.359375 C 42.667969 21.425781 42.59375 21.503906 42.53125 21.597656 C 42.476562 21.675781 42.410156 21.75 42.34375 21.808594 C 42.285156 21.84375 42.242188 21.902344 42.207031 21.96875 C 42.152344 22.046875 42.085938 22.113281 42.011719 22.15625 C 41.941406 22.183594 41.890625 22.25 41.867188 22.335938 C 41.832031 22.4375 41.8125 22.464844 41.753906 22.464844 C 41.703125 22.464844 41.570312 22.597656 41.570312 22.664062 C 41.488281 22.859375 41.371094 23.03125 41.222656 23.167969 C 41.164062 23.210938 41.128906 23.257812 41.128906 23.300781 C 41.128906 23.363281 40.972656 23.574219 40.921875 23.574219 C 40.859375 23.574219 40.710938 23.648438 40.710938 23.683594 C 40.636719 23.835938 40.546875 23.964844 40.433594 24.058594 C 40.394531 24.089844 40.355469 24.132812 40.339844 24.191406 C 40.3125 24.253906 40.273438 24.296875 40.214844 24.328125 C 40.148438 24.371094 40.082031 24.445312 40.039062 24.523438 C 39.929688 24.691406 39.929688 24.691406 39.96875 24.8125 C 40.003906 24.914062 39.914062 25.160156 39.785156 25.296875 C 39.753906 25.335938 39.722656 25.378906 39.703125 25.429688 C 39.703125 25.449219 39.679688 25.472656 39.65625 25.484375 C 39.628906 25.492188 39.585938 25.550781 39.546875 25.625 C 39.472656 25.761719 39.382812 25.882812 39.289062 25.992188 C 39.191406 26.09375 39.113281 26.21875 39.046875 26.347656 C 38.972656 26.507812 38.875 26.644531 38.75 26.753906 C 38.6875 26.8125 38.640625 26.890625 38.601562 26.984375 C 38.578125 27.050781 38.539062 27.101562 38.492188 27.136719 C 38.433594 27.195312 38.382812 27.265625 38.347656 27.347656 C 38.246094 27.519531 38.140625 27.679688 38.023438 27.839844 C 37.851562 28.058594 37.691406 28.289062 37.554688 28.542969 C 37.496094 28.621094 37.445312 28.703125 37.390625 28.78125 C 37.320312 28.902344 37.308594 29.0625 37.375 29.09375 C 37.425781 29.113281 37.480469 29.144531 37.535156 29.171875 C 37.632812 29.230469 37.648438 29.230469 37.714844 29.1875 C 37.90625 29.105469 38.105469 29.054688 38.308594 29.042969 C 38.53125 29.027344 38.761719 28.96875 38.972656 28.875 C 39.109375 28.796875 39.59375 28.753906 40.421875 28.753906 C 41.15625 28.753906 41.308594 28.773438 41.386719 28.890625 C 41.441406 28.949219 41.503906 29 41.566406 29.027344 C 41.742188 29.113281 42.046875 29.417969 42.046875 29.519531 C 42.214844 29.917969 42.335938 30.351562 42.410156 30.792969 C 42.410156 30.832031 42.4375 30.925781 42.476562 31.011719 C 42.53125 31.148438 42.53125 31.183594 42.515625 31.300781 C 42.5 31.378906 42.464844 31.460938 42.425781 31.53125 C 42.394531 31.574219 42.363281 31.632812 42.347656 31.699219 C 42.335938 31.75 42.316406 31.792969 42.292969 31.835938 C 42.257812 31.902344 42.230469 31.972656 42.214844 32.054688 C 42.195312 32.15625 42.15625 32.257812 42.109375 32.335938 C 42.058594 32.410156 42.011719 32.496094 41.972656 32.589844 C 41.921875 32.726562 41.894531 32.769531 41.675781 33.054688 C 41.625 33.105469 41.585938 33.175781 41.554688 33.257812 C 41.507812 33.355469 41.453125 33.453125 41.378906 33.53125 C 41.300781 33.632812 41.230469 33.75 41.167969 33.863281 C 41.128906 33.929688 41.082031 33.988281 41.066406 33.988281 C 41.042969 33.988281 40.996094 34.046875 40.949219 34.117188 C 40.90625 34.183594 40.847656 34.242188 40.789062 34.277344 C 40.730469 34.304688 40.699219 34.347656 40.660156 34.449219 C 40.609375 34.574219 40.53125 34.675781 40.441406 34.753906 C 40.375 34.8125 40.304688 34.886719 40.238281 34.957031 C 40.207031 34.992188 40.171875 35.03125 40.132812 35.050781 C 40.070312 35.101562 40.015625 35.175781 39.96875 35.246094 C 39.921875 35.335938 39.859375 35.398438 39.792969 35.441406 C 39.734375 35.480469 39.703125 35.523438 39.703125 35.558594 C 39.703125 35.59375 39.683594 35.617188 39.667969 35.617188 C 39.625 35.617188 39.546875 35.710938 39.507812 35.804688 C 39.472656 35.855469 39.425781 35.898438 39.378906 35.921875 C 39.300781 35.972656 39.226562 36.035156 39.152344 36.101562 C 39.085938 36.167969 39.019531 36.230469 38.953125 36.289062 C 38.917969 36.320312 38.890625 36.363281 38.875 36.414062 C 38.867188 36.449219 38.828125 36.484375 38.789062 36.507812 C 38.738281 36.542969 38.695312 36.578125 38.648438 36.628906 C 38.589844 36.695312 38.519531 36.746094 38.449219 36.789062 C 38.363281 36.839844 38.3125 36.898438 38.292969 36.957031 C 38.269531 37.015625 38.230469 37.066406 38.1875 37.085938 C 38.125 37.121094 38.066406 37.167969 38.023438 37.222656 C 37.96875 37.289062 37.910156 37.332031 37.84375 37.363281 C 37.8125 37.363281 37.777344 37.375 37.75 37.398438 C 37.570312 37.621094 37.367188 37.824219 37.15625 38 C 37.023438 38.101562 36.945312 38.1875 36.933594 38.230469 C 36.894531 38.308594 36.835938 38.375 36.777344 38.425781 C 36.707031 38.476562 36.648438 38.535156 36.585938 38.605469 C 36.539062 38.664062 36.484375 38.707031 36.421875 38.746094 C 36.371094 38.78125 36.316406 38.832031 36.316406 38.859375 C 36.316406 38.875 36.277344 38.941406 36.226562 39 C 36.171875 39.0625 36.109375 39.128906 36.054688 39.199219 C 36.003906 39.265625 35.949219 39.324219 35.878906 39.367188 C 35.835938 39.398438 35.785156 39.453125 35.773438 39.492188 C 35.703125 39.636719 35.59375 39.757812 35.476562 39.839844 C 35.417969 39.890625 35.359375 39.953125 35.316406 40.027344 C 35.164062 40.273438 34.984375 40.488281 34.777344 40.65625 C 34.734375 40.683594 34.695312 40.730469 34.671875 40.785156 C 34.636719 40.882812 33.988281 41.691406 33.871094 41.800781 C 33.808594 41.859375 33.761719 41.921875 33.722656 42.011719 C 33.597656 42.226562 33.464844 42.429688 33.3125 42.613281 L 32.742188 43.359375 C 32.675781 43.457031 32.597656 43.554688 32.511719 43.632812 C 32.457031 43.632812 32.25 43.878906 32.1875 44.039062 C 32.148438 44.101562 32.109375 44.175781 32.097656 44.175781 C 32.035156 44.21875 31.980469 44.277344 31.929688 44.34375 C 31.785156 44.523438 31.628906 44.691406 31.460938 44.84375 C 31.394531 44.972656 31.308594 45.089844 31.214844 45.191406 C 31.140625 45.289062 31.0625 45.386719 30.992188 45.488281 C 30.941406 45.550781 30.882812 45.609375 30.828125 45.652344 C 30.765625 45.703125 30.722656 45.769531 30.695312 45.847656 C 30.648438 45.957031 30.585938 46.050781 30.515625 46.125 C 30.464844 46.167969 30.414062 46.21875 30.371094 46.269531 C 30.242188 46.433594 30.113281 46.59375 29.988281 46.761719 C 29.917969 46.855469 29.84375 46.957031 29.78125 47.066406 C 29.726562 47.160156 29.660156 47.246094 29.582031 47.320312 C 29.382812 47.535156 29.207031 47.765625 29.042969 48.019531 C 29.003906 48.078125 28.964844 48.121094 28.914062 48.160156 C 28.863281 48.210938 28.820312 48.261719 28.820312 48.28125 C 28.71875 48.460938 28.597656 48.613281 28.457031 48.746094 C 28.40625 48.78125 28.367188 48.847656 28.351562 48.917969 C 28.316406 49.054688 28.238281 49.179688 28.171875 49.199219 C 28.03125 49.339844 27.902344 49.496094 27.777344 49.664062 C 27.667969 49.824219 27.542969 49.976562 27.414062 50.105469 C 27.398438 50.105469 27.375 50.148438 27.355469 50.207031 C 27.320312 50.28125 27.269531 50.332031 27.214844 50.359375 C 27.152344 50.394531 27.101562 50.4375 27.050781 50.496094 C 27.011719 50.546875 26.957031 50.597656 26.902344 50.628906 C 26.828125 50.664062 26.792969 50.699219 26.792969 50.742188 C 26.792969 50.816406 26.65625 50.96875 26.59375 50.96875 C 26.566406 50.96875 26.53125 50.996094 26.503906 51.03125 C 26.429688 51.113281 26.351562 51.191406 26.269531 51.257812 C 26.183594 51.328125 26.105469 51.410156 26.042969 51.511719 C 25.988281 51.597656 25.914062 51.664062 25.835938 51.707031 C 25.753906 51.757812 25.679688 51.816406 25.609375 51.878906 C 25.5625 51.929688 25.511719 51.972656 25.457031 52.011719 C 25.414062 52.039062 25.375 52.082031 25.351562 52.140625 C 25.316406 52.199219 25.277344 52.25 25.222656 52.269531 C 25.160156 52.308594 25.105469 52.359375 25.046875 52.417969 C 24.992188 52.472656 24.925781 52.519531 24.859375 52.539062 C 24.773438 52.566406 24.730469 52.613281 24.707031 52.667969 C 24.652344 52.742188 24.589844 52.808594 24.515625 52.84375 C 24.445312 52.886719 24.371094 52.9375 24.304688 52.988281 C 24.25 53.023438 24.191406 53.046875 24.132812 53.0625 C 24.042969 53.082031 24.011719 53.074219 23.980469 53.023438 Z M 43.675781 19.765625 C 43.683594 19.738281 43.683594 19.707031 43.675781 19.691406 C 43.65625 19.679688 43.5625 19.730469 43.5625 19.773438 C 43.5625 19.84375 43.652344 19.832031 43.675781 19.773438 Z M 2.042969 47.636719 C 1.96875 47.609375 1.90625 47.550781 1.859375 47.484375 C 1.761719 47.363281 1.746094 47.324219 1.746094 47.203125 C 1.746094 47.078125 1.734375 47.066406 1.65625 47.007812 C 1.566406 46.949219 1.5625 46.949219 1.523438 47 C 1.488281 47.066406 1.460938 47.128906 1.449219 47.210938 C 1.421875 47.347656 1.410156 47.347656 1.332031 47.355469 C 1.277344 47.363281 1.226562 47.382812 1.179688 47.425781 C 1.101562 47.5 1.070312 47.5 1.019531 47.398438 C 0.980469 47.324219 0.878906 47.320312 0.816406 47.390625 C 0.789062 47.417969 0.753906 47.449219 0.714844 47.464844 C 0.6875 47.464844 0.632812 47.484375 0.597656 47.492188 C 0.558594 47.507812 0.546875 47.492188 0.527344 47.417969 C 0.503906 47.363281 0.464844 47.320312 0.417969 47.296875 C 0.347656 47.261719 0.339844 47.230469 0.347656 47.070312 C 0.359375 46.941406 0.398438 46.832031 0.558594 46.558594 C 0.648438 46.421875 0.695312 46.296875 0.695312 46.238281 C 0.695312 46.1875 0.726562 46.109375 0.792969 46.023438 C 0.851562 45.957031 0.890625 45.855469 0.890625 45.8125 C 0.890625 45.785156 0.929688 45.675781 0.980469 45.59375 C 1.019531 45.523438 1.058594 45.441406 1.085938 45.355469 C 1.128906 45.234375 1.179688 45.109375 1.230469 44.992188 L 1.363281 44.691406 C 1.421875 44.550781 1.488281 44.429688 1.5625 44.3125 C 1.628906 44.226562 1.683594 44.125 1.683594 44.089844 C 1.683594 44.050781 1.691406 44.023438 1.699219 44.003906 C 1.730469 43.929688 1.757812 43.855469 1.777344 43.785156 C 1.820312 43.660156 1.875 43.546875 1.941406 43.4375 C 2.046875 43.285156 2.132812 43.097656 2.1875 42.902344 C 2.214844 42.820312 2.253906 42.75 2.300781 42.691406 C 2.34375 42.640625 2.371094 42.574219 2.394531 42.511719 C 2.40625 42.453125 2.421875 42.410156 2.449219 42.367188 C 2.496094 42.285156 2.539062 42.199219 2.566406 42.105469 C 2.617188 41.980469 2.675781 41.867188 2.742188 41.765625 C 2.8125 41.664062 2.871094 41.546875 2.894531 41.417969 C 2.921875 41.292969 2.964844 41.179688 3.019531 41.078125 C 3.066406 40.996094 3.105469 40.910156 3.132812 40.816406 C 3.183594 40.648438 3.261719 40.488281 3.355469 40.351562 C 3.390625 40.300781 3.414062 40.25 3.429688 40.1875 C 3.472656 40.054688 3.523438 39.925781 3.582031 39.800781 C 3.632812 39.699219 3.671875 39.59375 3.703125 39.476562 C 3.703125 39.441406 3.730469 39.351562 3.777344 39.289062 C 3.820312 39.195312 3.859375 39.09375 3.882812 38.984375 C 3.90625 38.902344 3.9375 38.832031 3.984375 38.773438 C 4.035156 38.730469 4.085938 38.605469 4.234375 38.203125 C 4.269531 38.113281 4.3125 38.035156 4.363281 37.960938 C 4.402344 37.90625 4.4375 37.832031 4.453125 37.761719 L 4.480469 37.570312 C 4.503906 37.484375 4.539062 37.414062 4.582031 37.347656 C 4.671875 37.203125 4.738281 37.027344 4.738281 36.933594 C 4.746094 36.898438 4.753906 36.863281 4.773438 36.839844 C 4.84375 36.703125 4.90625 36.558594 4.945312 36.398438 C 4.96875 36.332031 5.003906 36.277344 5.042969 36.226562 C 5.136719 36.082031 5.199219 35.914062 5.21875 35.726562 C 5.238281 35.632812 5.269531 35.535156 5.320312 35.457031 C 5.355469 35.414062 5.382812 35.355469 5.40625 35.296875 C 5.40625 35.226562 5.574219 34.804688 5.640625 34.71875 C 5.679688 34.652344 5.707031 34.582031 5.722656 34.507812 C 5.742188 34.4375 5.757812 34.371094 5.769531 34.363281 C 5.859375 34.125 5.949219 33.878906 6.042969 33.632812 C 6.058594 33.582031 6.082031 33.53125 6.105469 33.488281 C 6.148438 33.40625 6.175781 33.320312 6.199219 33.226562 C 6.210938 33.148438 6.238281 33.074219 6.277344 33.015625 C 6.371094 32.886719 6.441406 32.742188 6.480469 32.574219 C 6.519531 32.410156 6.589844 32.265625 6.679688 32.140625 C 6.714844 32.082031 6.742188 32.023438 6.757812 31.960938 C 6.757812 31.886719 6.816406 31.808594 7.003906 31.597656 C 7.089844 31.511719 7.15625 31.394531 7.207031 31.273438 C 7.234375 31.171875 7.289062 31.082031 7.359375 31.019531 C 7.425781 30.960938 7.453125 30.902344 7.496094 30.714844 C 7.542969 30.554688 7.570312 30.476562 7.621094 30.453125 C 7.703125 30.34375 7.765625 30.214844 7.800781 30.0625 C 7.800781 30.019531 7.972656 29.679688 8.011719 29.664062 C 8.035156 29.65625 8.046875 29.628906 8.046875 29.597656 C 8.046875 29.554688 8.078125 29.453125 8.214844 29.136719 C 8.253906 29.042969 8.28125 28.949219 8.308594 28.847656 C 8.335938 28.722656 8.375 28.605469 8.414062 28.492188 C 8.460938 28.375 8.492188 28.257812 8.527344 28.136719 C 8.542969 28.0625 8.570312 27.992188 8.609375 27.925781 C 8.671875 27.796875 8.722656 27.652344 8.757812 27.5 C 8.796875 27.339844 8.839844 27.1875 8.890625 27.035156 C 8.90625 26.921875 8.933594 26.839844 8.957031 26.839844 C 8.96875 26.839844 8.992188 26.796875 9.011719 26.730469 C 9.023438 26.660156 9.046875 26.59375 9.0625 26.527344 C 9.09375 26.449219 9.101562 26.371094 9.101562 26.289062 C 9.109375 26.1875 9.125 26.085938 9.152344 25.992188 C 9.175781 25.929688 9.210938 25.78125 9.214844 25.6875 C 9.21875 25.585938 9.242188 25.5 9.253906 25.5 C 9.28125 25.5 9.398438 25.1875 9.398438 25.109375 C 9.398438 24.988281 9.554688 24.429688 9.605469 24.378906 C 9.753906 24.21875 9.851562 24.074219 9.875 23.972656 C 9.886719 23.90625 9.914062 23.851562 9.953125 23.8125 C 9.992188 23.785156 10.027344 23.742188 10.046875 23.683594 C 10.066406 23.625 10.085938 23.582031 10.121094 23.539062 C 10.167969 23.472656 10.199219 23.40625 10.226562 23.335938 C 10.292969 23.191406 10.367188 23.046875 10.441406 22.914062 C 10.5 22.808594 10.550781 22.699219 10.585938 22.574219 C 10.585938 22.539062 10.613281 22.464844 10.648438 22.414062 C 10.675781 22.378906 10.699219 22.335938 10.714844 22.285156 C 10.714844 22.265625 10.730469 22.21875 10.753906 22.175781 C 10.792969 22.113281 10.820312 22.039062 10.84375 21.96875 C 10.859375 21.894531 10.886719 21.828125 10.925781 21.777344 C 11.035156 21.589844 11.117188 21.386719 11.179688 21.175781 C 11.179688 21.164062 11.21875 21.070312 11.273438 20.976562 C 11.328125 20.886719 11.367188 20.78125 11.378906 20.671875 C 11.390625 20.589844 11.414062 20.519531 11.425781 20.511719 C 11.492188 20.394531 11.542969 20.265625 11.570312 20.121094 C 11.570312 20.097656 11.597656 20.039062 11.625 19.996094 C 11.726562 19.832031 11.8125 19.648438 11.871094 19.453125 C 11.878906 19.425781 11.910156 19.375 11.949219 19.34375 C 12 19.308594 12.058594 19.207031 12.125 19.035156 C 12.195312 18.859375 12.292969 18.695312 12.410156 18.5625 C 12.601562 18.332031 12.777344 18.085938 12.945312 17.824219 C 12.980469 17.765625 13.019531 17.722656 13.070312 17.703125 C 13.164062 17.671875 13.203125 17.628906 13.203125 17.535156 C 13.203125 17.46875 13.214844 17.464844 13.308594 17.441406 C 13.398438 17.425781 13.449219 17.390625 13.527344 17.289062 C 13.65625 17.109375 13.652344 17.027344 13.5 16.898438 C 13.355469 16.769531 13.332031 16.660156 13.445312 16.601562 C 13.546875 16.558594 13.683594 16.558594 13.742188 16.601562 C 13.820312 16.652344 13.886719 16.578125 13.960938 16.390625 C 13.992188 16.289062 14.03125 16.195312 14.078125 16.101562 C 14.117188 16.035156 14.144531 15.964844 14.167969 15.890625 C 14.195312 15.796875 14.238281 15.710938 14.296875 15.632812 C 14.363281 15.542969 14.414062 15.433594 14.457031 15.328125 C 14.519531 15.144531 14.648438 14.972656 14.710938 14.972656 C 14.769531 14.972656 14.789062 15.085938 14.75 15.234375 C 14.640625 15.609375 14.640625 15.703125 14.714844 15.703125 C 14.765625 15.703125 14.921875 15.492188 14.9375 15.398438 C 14.960938 15.296875 15.011719 15.261719 15.0625 15.320312 C 15.117188 15.382812 15.105469 15.457031 15.023438 15.515625 C 14.949219 15.558594 14.9375 15.582031 14.933594 15.710938 C 14.925781 15.828125 14.933594 15.863281 14.960938 15.863281 C 15.011719 15.863281 15.125 15.679688 15.125 15.601562 C 15.125 15.574219 15.144531 15.523438 15.171875 15.484375 C 15.203125 15.441406 15.222656 15.398438 15.234375 15.347656 C 15.253906 15.296875 15.269531 15.253906 15.292969 15.21875 C 15.332031 15.152344 15.398438 15.144531 15.398438 15.183594 C 15.398438 15.195312 15.4375 15.238281 15.488281 15.289062 L 15.570312 15.363281 L 15.621094 15.289062 C 15.664062 15.238281 15.710938 15.203125 15.765625 15.175781 C 15.824219 15.152344 15.871094 15.125 15.917969 15.082031 C 15.972656 15.007812 16.007812 15.039062 16.03125 15.1875 C 16.046875 15.339844 16.0625 15.347656 16.164062 15.238281 C 16.199219 15.203125 16.242188 15.175781 16.285156 15.160156 C 16.335938 15.152344 16.386719 15.144531 16.433594 15.125 C 16.578125 15.066406 16.601562 15.125 16.535156 15.328125 C 16.503906 15.398438 16.472656 15.464844 16.425781 15.523438 C 16.382812 15.585938 16.335938 15.667969 16.308594 15.753906 C 16.277344 15.832031 16.238281 15.914062 16.191406 15.992188 C 16.113281 16.078125 16.058594 16.1875 16.019531 16.3125 C 15.945312 16.535156 15.945312 16.523438 16.078125 16.660156 C 16.148438 16.71875 16.152344 16.695312 16 17.027344 C 15.957031 17.121094 15.917969 17.214844 15.878906 17.3125 C 15.855469 17.390625 15.816406 17.464844 15.773438 17.519531 C 15.714844 17.585938 15.699219 17.679688 15.726562 17.722656 C 15.761719 17.761719 15.839844 17.6875 15.851562 17.59375 C 15.863281 17.535156 15.890625 17.484375 15.921875 17.441406 C 15.960938 17.390625 15.996094 17.339844 16.023438 17.28125 C 16.039062 17.230469 16.0625 17.1875 16.089844 17.144531 C 16.128906 17.109375 16.164062 17.058594 16.199219 17.007812 C 16.230469 16.933594 16.28125 16.882812 16.308594 16.882812 C 16.335938 16.882812 16.40625 16.820312 16.464844 16.746094 C 16.523438 16.660156 16.589844 16.601562 16.613281 16.601562 C 16.679688 16.601562 16.667969 16.710938 16.582031 16.824219 C 16.488281 16.964844 16.40625 17.121094 16.332031 17.289062 C 16.316406 17.339844 16.285156 17.382812 16.257812 17.425781 C 16.214844 17.492188 16.1875 17.558594 16.1875 17.585938 C 16.1875 17.613281 16.148438 17.679688 16.097656 17.738281 C 16.050781 17.789062 16.011719 17.859375 15.996094 17.941406 C 15.992188 17.984375 15.972656 18.035156 15.960938 18.035156 C 15.917969 18.035156 15.917969 18.144531 15.960938 18.214844 C 15.992188 18.257812 16.019531 18.332031 16.019531 18.367188 C 16.019531 18.453125 16.039062 18.503906 16.121094 18.542969 C 16.238281 18.601562 16.1875 18.757812 16.019531 18.832031 C 15.960938 18.851562 15.933594 18.890625 15.933594 18.941406 C 15.933594 19.054688 15.804688 19.324219 15.753906 19.316406 C 15.726562 19.316406 15.707031 19.308594 15.675781 19.300781 C 15.636719 19.296875 15.625 19.324219 15.621094 19.445312 C 15.609375 19.535156 15.582031 19.628906 15.539062 19.691406 C 15.378906 19.941406 15.234375 20.199219 15.101562 20.46875 C 15.054688 20.5625 15.023438 20.664062 15.003906 20.765625 C 14.984375 20.867188 14.949219 20.960938 14.898438 21.046875 C 14.867188 21.105469 14.84375 21.171875 14.832031 21.234375 C 14.804688 21.359375 14.777344 21.472656 14.738281 21.589844 C 14.703125 21.714844 14.675781 21.835938 14.648438 21.960938 C 14.632812 22.03125 14.601562 22.097656 14.5625 22.148438 C 14.523438 22.199219 14.480469 22.335938 14.441406 22.597656 C 14.429688 22.667969 14.414062 22.734375 14.378906 22.792969 C 14.363281 22.828125 14.34375 22.863281 14.335938 22.910156 L 14.261719 23.03125 C 14.222656 23.089844 14.1875 23.15625 14.171875 23.226562 C 14.117188 23.445312 14.03125 23.652344 13.925781 23.835938 C 13.890625 23.878906 13.871094 23.945312 13.871094 23.980469 C 13.871094 24 13.859375 24.039062 13.847656 24.046875 C 13.773438 24.175781 13.722656 24.320312 13.695312 24.472656 C 13.695312 24.507812 13.640625 24.632812 13.566406 24.753906 C 13.511719 24.847656 13.460938 24.957031 13.429688 25.074219 C 13.421875 25.136719 13.40625 25.183594 13.394531 25.183594 C 13.382812 25.183594 13.367188 25.238281 13.34375 25.289062 C 13.320312 25.363281 13.28125 25.429688 13.230469 25.472656 C 13.183594 25.507812 13.152344 25.566406 13.125 25.667969 C 13.101562 25.761719 13.070312 25.863281 13.03125 25.941406 C 12.996094 25.992188 12.976562 26.050781 12.953125 26.109375 C 12.953125 26.125 12.925781 26.175781 12.890625 26.226562 C 12.863281 26.261719 12.839844 26.3125 12.828125 26.363281 C 12.828125 26.433594 12.609375 26.839844 12.566406 26.863281 C 12.550781 26.871094 12.523438 26.933594 12.503906 27.007812 C 12.488281 27.058594 12.460938 27.117188 12.425781 27.160156 C 12.386719 27.222656 12.359375 27.304688 12.335938 27.382812 C 12.304688 27.476562 12.269531 27.570312 12.230469 27.660156 C 12.195312 27.773438 12.175781 27.890625 12.167969 28.011719 C 12.136719 28.304688 12.050781 28.578125 11.933594 28.824219 C 11.878906 28.949219 11.832031 29.085938 11.792969 29.214844 C 11.792969 29.230469 11.765625 29.289062 11.734375 29.339844 C 11.699219 29.382812 11.675781 29.441406 11.671875 29.503906 C 11.671875 29.546875 11.632812 29.621094 11.582031 29.6875 C 11.546875 29.722656 11.519531 29.773438 11.496094 29.824219 C 11.496094 29.84375 11.476562 29.894531 11.449219 29.933594 C 11.414062 29.996094 11.386719 30.078125 11.378906 30.15625 C 11.367188 30.238281 11.339844 30.308594 11.296875 30.367188 C 11.195312 30.503906 11.113281 30.664062 11.050781 30.835938 C 11.015625 30.917969 10.972656 30.988281 10.914062 31.046875 C 10.855469 31.113281 10.804688 31.199219 10.765625 31.300781 C 10.746094 31.386719 10.714844 31.46875 10.496094 31.785156 C 10.453125 31.84375 10.414062 31.910156 10.382812 31.980469 C 10.378906 32.023438 10.34375 32.082031 10.300781 32.113281 C 10.253906 32.140625 10.222656 32.183594 10.199219 32.234375 C 10.183594 32.277344 10.160156 32.316406 10.132812 32.34375 C 10.054688 32.445312 9.980469 32.554688 9.914062 32.667969 C 9.851562 32.800781 9.773438 32.910156 9.683594 32.996094 C 9.625 33.015625 9.5 33.21875 9.5 33.292969 C 9.5 33.355469 9.445312 33.429688 9.339844 33.496094 C 9.257812 33.546875 9.101562 33.851562 9.101562 33.945312 C 9.101562 34.046875 9.011719 34.242188 8.917969 34.328125 C 8.863281 34.378906 8.824219 34.457031 8.8125 34.550781 C 8.773438 34.675781 8.71875 34.796875 8.644531 34.890625 C 8.566406 35 8.503906 35.125 8.449219 35.253906 C 8.410156 35.363281 8.363281 35.464844 8.320312 35.566406 C 8.28125 35.636719 8.253906 35.710938 8.226562 35.789062 C 8.214844 35.839844 8.195312 35.882812 8.175781 35.929688 C 8.140625 35.972656 8.113281 36.023438 8.089844 36.074219 C 8.066406 36.125 8.039062 36.167969 8.007812 36.210938 C 7.9375 36.304688 7.882812 36.40625 7.84375 36.515625 C 7.800781 36.636719 7.738281 36.753906 7.664062 36.847656 C 7.609375 36.90625 7.570312 36.992188 7.554688 37.085938 C 7.515625 37.28125 7.4375 37.457031 7.324219 37.59375 C 7.285156 37.636719 7.25 37.6875 7.25 37.710938 C 7.230469 37.796875 7.191406 37.875 7.152344 37.957031 C 7.050781 38.136719 6.953125 38.324219 6.859375 38.511719 C 6.792969 38.636719 6.746094 38.765625 6.714844 38.902344 C 6.714844 38.933594 6.601562 39.128906 6.523438 39.25 C 6.457031 39.339844 6.410156 39.441406 6.410156 39.511719 C 6.410156 39.535156 6.363281 39.648438 6.285156 39.746094 C 6.214844 39.832031 6.160156 39.933594 6.109375 40.035156 C 6.054688 40.222656 5.980469 40.394531 5.886719 40.554688 C 5.839844 40.628906 5.800781 40.714844 5.78125 40.808594 C 5.78125 40.835938 5.730469 40.917969 5.679688 40.980469 C 5.59375 41.078125 5.527344 41.199219 5.484375 41.328125 C 5.460938 41.386719 5.4375 41.453125 5.414062 41.511719 C 5.394531 41.582031 5.359375 41.648438 5.308594 41.691406 C 5.265625 41.734375 5.230469 41.800781 5.214844 41.875 C 5.148438 42.121094 5.074219 42.292969 5.023438 42.320312 C 4.960938 42.378906 4.917969 42.46875 4.882812 42.554688 C 4.824219 42.757812 4.734375 42.945312 4.621094 43.105469 C 4.515625 43.21875 4.570312 43.410156 4.726562 43.410156 C 4.789062 43.410156 4.824219 43.394531 4.867188 43.3125 C 4.917969 43.210938 4.917969 43.210938 5.082031 43.234375 C 5.152344 43.25 5.226562 43.257812 5.296875 43.257812 L 5.679688 43.234375 L 6.019531 43.210938 L 6.085938 43.3125 C 6.121094 43.371094 6.164062 43.410156 6.175781 43.410156 C 6.1875 43.410156 6.210938 43.363281 6.234375 43.308594 C 6.273438 43.199219 6.285156 43.191406 6.40625 43.191406 C 6.519531 43.191406 6.546875 43.207031 6.574219 43.269531 C 6.617188 43.359375 6.675781 43.371094 6.707031 43.300781 C 6.746094 43.25 6.792969 43.207031 6.847656 43.175781 C 6.953125 43.105469 7.011719 43.097656 7.199219 43.097656 C 7.277344 43.105469 7.359375 43.097656 7.4375 43.066406 C 7.453125 43.03125 7.632812 42.996094 7.742188 42.996094 C 7.800781 42.996094 7.855469 42.988281 7.90625 42.964844 C 7.972656 42.929688 7.996094 42.9375 8.066406 42.988281 C 8.179688 43.074219 8.21875 43.074219 8.359375 42.988281 C 8.464844 42.921875 8.542969 42.945312 8.570312 43.046875 C 8.59375 43.117188 8.953125 43.117188 9.007812 43.039062 C 9.050781 42.988281 9.058594 42.988281 9.097656 43.039062 C 9.136719 43.082031 9.191406 43.097656 9.328125 43.097656 C 9.421875 43.097656 9.546875 43.109375 9.585938 43.140625 C 9.640625 43.167969 9.679688 43.175781 9.714844 43.15625 C 9.753906 43.132812 9.796875 43.125 9.839844 43.140625 L 10.054688 43.183594 L 10.414062 43.25 C 10.53125 43.285156 10.640625 43.308594 10.757812 43.320312 C 10.84375 43.320312 10.933594 43.328125 11.015625 43.351562 C 11.257812 43.410156 12.476562 43.414062 15.453125 43.410156 L 17.378906 43.402344 L 17.488281 43.3125 C 17.578125 43.242188 17.652344 43.21875 17.835938 43.207031 C 18.269531 43.167969 18.878906 43.15625 18.96875 43.191406 C 19.066406 43.234375 19.066406 43.3125 18.96875 43.410156 C 18.929688 43.445312 18.898438 43.496094 18.910156 43.507812 C 18.917969 43.523438 18.976562 43.582031 19.046875 43.617188 C 19.152344 43.683594 19.175781 43.683594 19.332031 43.660156 C 19.503906 43.632812 19.683594 43.660156 19.757812 43.734375 C 19.804688 43.792969 19.789062 43.871094 19.726562 43.90625 C 19.492188 44.054688 19.441406 44.089844 19.441406 44.160156 C 19.441406 44.210938 19.464844 44.253906 19.507812 44.277344 C 19.558594 44.3125 19.570312 44.335938 19.566406 44.445312 C 19.558594 44.550781 19.566406 44.558594 19.65625 44.582031 C 19.816406 44.609375 19.816406 44.609375 19.796875 44.8125 L 19.777344 45 L 19.882812 45.066406 C 20.019531 45.132812 20.140625 45.296875 20.125 45.378906 C 20.121094 45.429688 20.085938 45.441406 19.917969 45.449219 C 19.699219 45.472656 19.636719 45.515625 19.636719 45.652344 C 19.636719 45.710938 19.628906 45.746094 19.597656 45.746094 C 19.578125 45.746094 19.558594 45.710938 19.558594 45.644531 C 19.558594 45.523438 19.507812 45.488281 19.296875 45.488281 C 19.140625 45.488281 19.125 45.492188 19.078125 45.582031 C 19.035156 45.652344 19 45.675781 18.90625 45.683594 C 18.800781 45.695312 18.78125 45.710938 18.730469 45.796875 C 18.710938 45.847656 18.691406 45.890625 18.683594 45.949219 C 18.691406 45.972656 18.753906 45.984375 18.832031 45.984375 C 18.921875 45.984375 18.984375 45.992188 19.015625 46.035156 C 19.089844 46.132812 19.136719 46.109375 19.179688 45.972656 C 19.21875 45.828125 19.261719 45.789062 19.359375 45.820312 C 19.460938 45.855469 19.519531 45.957031 19.519531 46.09375 C 19.519531 46.203125 19.527344 46.230469 19.570312 46.261719 C 19.609375 46.28125 19.636719 46.320312 19.632812 46.347656 C 19.628906 46.390625 19.59375 46.398438 19.488281 46.398438 C 19.382812 46.398438 19.335938 46.414062 19.3125 46.449219 C 19.285156 46.492188 19.230469 46.515625 18.945312 46.558594 C 18.867188 46.574219 18.828125 46.558594 18.691406 46.429688 C 18.625 46.378906 18.625 46.378906 18.53125 46.464844 C 18.441406 46.535156 18.394531 46.558594 18.257812 46.558594 C 18.0625 46.566406 17.988281 46.535156 17.972656 46.429688 C 17.953125 46.355469 17.882812 46.289062 17.804688 46.289062 C 17.765625 46.304688 17.726562 46.328125 17.695312 46.363281 C 17.648438 46.414062 17.589844 46.429688 17.480469 46.429688 L 17.121094 46.449219 C 17.03125 46.464844 16.941406 46.457031 16.851562 46.433594 C 16.710938 46.371094 16.554688 46.355469 16.410156 46.40625 C 16.328125 46.441406 16.230469 46.441406 16.148438 46.414062 C 16.023438 46.378906 15.957031 46.378906 15.546875 46.441406 C 15.285156 46.472656 15.023438 46.492188 14.753906 46.492188 C 14.464844 46.5 14.171875 46.515625 13.882812 46.542969 C 13.785156 46.558594 13.679688 46.566406 13.578125 46.558594 C 13.523438 46.550781 13.472656 46.558594 13.417969 46.585938 C 13.351562 46.617188 13.28125 46.636719 13.214844 46.644531 C 13.152344 46.660156 13.09375 46.679688 13.035156 46.703125 C 12.96875 46.730469 12.9375 46.730469 12.878906 46.703125 C 12.8125 46.675781 12.734375 46.667969 12.660156 46.679688 C 12.433594 46.71875 12.265625 46.636719 12.265625 46.472656 C 12.265625 46.371094 12.296875 46.332031 12.425781 46.304688 C 12.476562 46.296875 12.527344 46.277344 12.566406 46.238281 C 12.667969 46.152344 12.5 45.984375 12.355469 46.015625 C 12.285156 46.03125 12.246094 46.015625 12.191406 45.972656 C 12.128906 45.90625 12.089844 45.898438 11.960938 45.898438 C 11.890625 45.898438 11.816406 45.914062 11.742188 45.957031 C 11.703125 45.992188 11.675781 45.992188 11.625 45.972656 C 11.574219 45.941406 11.507812 45.941406 11.378906 45.972656 C 11.3125 45.984375 11.242188 45.992188 11.167969 45.984375 C 11.101562 45.980469 11.039062 45.992188 10.976562 46.023438 C 10.808594 46.09375 10.699219 46.09375 10.570312 46 C 10.507812 45.964844 10.480469 45.964844 10.421875 45.992188 C 10.339844 46.042969 10.277344 46.035156 10.210938 45.972656 C 10.160156 45.921875 10.105469 45.914062 9.625 45.921875 C 9.371094 45.921875 9.125 45.933594 8.878906 45.964844 C 8.71875 45.992188 8.648438 45.992188 8.628906 45.972656 C 8.609375 45.949219 8.589844 45.933594 8.558594 45.933594 C 8.464844 45.957031 8.382812 46.015625 8.308594 46.101562 C 8.265625 46.160156 8.257812 46.160156 8.183594 46.101562 C 8.101562 46.03125 8.101562 46.03125 8.039062 46.09375 C 7.996094 46.136719 7.929688 46.167969 7.761719 46.167969 C 7.644531 46.175781 7.519531 46.195312 7.402344 46.21875 C 7.328125 46.246094 7.25 46.261719 7.179688 46.269531 C 7.121094 46.269531 7.066406 46.296875 7.027344 46.339844 C 6.976562 46.414062 6.9375 46.414062 6.769531 46.414062 C 6.539062 46.414062 6.46875 46.433594 6.46875 46.507812 C 6.460938 46.550781 6.449219 46.59375 6.429688 46.628906 C 6.394531 46.695312 6.378906 46.695312 6.289062 46.679688 C 6.199219 46.660156 6.117188 46.617188 6.042969 46.558594 C 5.898438 46.441406 5.898438 46.441406 5.8125 46.5 C 5.742188 46.542969 5.710938 46.542969 5.667969 46.515625 C 5.617188 46.492188 5.566406 46.476562 5.515625 46.476562 C 5.464844 46.476562 5.417969 46.464844 5.371094 46.433594 C 5.316406 46.414062 5.296875 46.414062 5.257812 46.457031 C 5.210938 46.515625 5.210938 46.515625 5.160156 46.457031 C 5.113281 46.40625 5.101562 46.414062 5.019531 46.484375 C 4.890625 46.59375 4.671875 46.585938 4.578125 46.472656 L 4.519531 46.40625 L 4.464844 46.472656 C 4.425781 46.507812 4.386719 46.542969 4.375 46.542969 C 4.335938 46.558594 4.308594 46.578125 4.28125 46.609375 C 4.207031 46.675781 4.101562 46.6875 4.078125 46.625 C 4.054688 46.535156 3.984375 46.574219 3.917969 46.703125 C 3.84375 46.847656 3.808594 46.855469 3.792969 46.769531 C 3.777344 46.667969 3.714844 46.652344 3.613281 46.710938 C 3.542969 46.761719 3.535156 46.769531 3.558594 46.863281 C 3.613281 47.078125 3.613281 47.09375 3.535156 47.152344 C 3.46875 47.203125 3.457031 47.222656 3.457031 47.347656 C 3.457031 47.5 3.414062 47.59375 3.351562 47.59375 C 3.3125 47.59375 3.300781 47.558594 3.308594 47.40625 C 3.3125 47.289062 3.183594 47.117188 3.089844 47.117188 C 3.039062 47.117188 3.003906 47.085938 2.960938 47.007812 C 2.925781 46.941406 2.882812 46.890625 2.863281 46.890625 C 2.808594 46.890625 2.765625 47.027344 2.753906 47.21875 C 2.734375 47.367188 2.730469 47.367188 2.652344 47.367188 C 2.585938 47.367188 2.5625 47.390625 2.535156 47.46875 C 2.480469 47.59375 2.460938 47.609375 2.359375 47.558594 C 2.28125 47.519531 2.265625 47.519531 2.199219 47.585938 C 2.175781 47.617188 2.148438 47.636719 2.121094 47.660156 Z M 1.777344 46.347656 C 1.777344 46.339844 1.777344 46.328125 1.773438 46.328125 C 1.769531 46.320312 1.757812 46.320312 1.75 46.320312 C 1.738281 46.320312 1.730469 46.339844 1.730469 46.371094 C 1.730469 46.398438 1.738281 46.414062 1.75 46.398438 C 1.769531 46.382812 1.777344 46.363281 1.777344 46.347656 Z M 12.878906 46.21875 C 12.914062 46.195312 12.914062 46.1875 12.878906 46.160156 C 12.863281 46.144531 12.839844 46.136719 12.824219 46.132812 C 12.800781 46.132812 12.777344 46.144531 12.757812 46.160156 C 12.722656 46.1875 12.722656 46.195312 12.757812 46.21875 C 12.773438 46.230469 12.796875 46.246094 12.816406 46.246094 C 12.839844 46.246094 12.855469 46.238281 12.878906 46.21875 Z M 19.332031 44.140625 C 19.332031 44.066406 19.203125 44.066406 19.179688 44.132812 C 19.167969 44.160156 19.179688 44.199219 19.195312 44.210938 C 19.234375 44.25 19.332031 44.199219 19.332031 44.140625 Z M 15.023438 20.171875 C 15.050781 20.128906 15.054688 19.953125 15.027344 19.953125 C 14.984375 19.953125 14.925781 20.054688 14.925781 20.128906 C 14.925781 20.214844 14.972656 20.238281 15.023438 20.171875 Z M 15.210938 19.6875 C 15.203125 19.664062 15.183594 19.636719 15.171875 19.636719 C 15.144531 19.636719 15.117188 19.757812 15.140625 19.800781 C 15.164062 19.851562 15.222656 19.75 15.210938 19.6875 Z M 15.644531 18.875 C 15.714844 18.722656 15.734375 18.628906 15.695312 18.601562 C 15.636719 18.554688 15.570312 18.621094 15.519531 18.773438 C 15.417969 19.046875 15.519531 19.136719 15.644531 18.875 Z M 15.695312 17.882812 C 15.710938 17.839844 15.710938 17.8125 15.695312 17.796875 C 15.660156 17.773438 15.617188 17.839844 15.617188 17.90625 C 15.617188 17.960938 15.660156 17.957031 15.695312 17.882812 Z M 14.632812 15.828125 C 14.632812 15.730469 14.570312 15.78125 14.558594 15.882812 C 14.550781 15.972656 14.558594 15.972656 14.589844 15.933594 C 14.613281 15.90625 14.632812 15.871094 14.632812 15.828125 Z M 19.300781 46.59375 C 19.292969 46.566406 19.292969 46.535156 19.300781 46.523438 C 19.320312 46.5 19.414062 46.578125 19.414062 46.617188 C 19.414062 46.660156 19.320312 46.644531 19.300781 46.59375 Z M 53.136719 45.667969 C 53.113281 45.636719 53.109375 45.582031 53.117188 45.523438 C 53.128906 45.429688 53.140625 45.339844 53.152344 45.246094 C 53.164062 45.109375 53.15625 45.082031 53.128906 45.082031 C 53.046875 45.082031 53.011719 45.125 52.988281 45.234375 C 52.957031 45.371094 52.855469 45.542969 52.820312 45.515625 C 52.804688 45.507812 52.789062 45.441406 52.777344 45.363281 C 52.765625 45.246094 52.761719 45.238281 52.722656 45.285156 C 52.675781 45.347656 52.613281 45.3125 52.613281 45.210938 C 52.613281 44.992188 52.464844 44.964844 52.386719 45.175781 C 52.363281 45.246094 52.289062 45.304688 52.078125 45.449219 C 52.0625 45.464844 52.039062 45.449219 52.023438 45.4375 C 52 45.40625 52.003906 45.347656 52.042969 45.226562 C 52.121094 44.964844 52.191406 44.703125 52.246094 44.4375 C 52.246094 44.414062 52.222656 44.378906 52.195312 44.347656 C 52.128906 44.277344 52.152344 44.203125 52.21875 44.261719 C 52.289062 44.304688 52.359375 44.226562 52.40625 44.015625 C 52.425781 43.945312 52.445312 43.878906 52.476562 43.8125 C 52.492188 43.742188 52.496094 43.660156 52.492188 43.589844 C 52.488281 43.480469 52.492188 43.378906 52.507812 43.351562 C 52.582031 43.234375 52.609375 42.691406 52.542969 42.632812 C 52.496094 42.597656 52.425781 42.691406 52.386719 42.84375 C 52.363281 42.9375 52.324219 43.023438 52.273438 43.097656 C 52.195312 43.191406 52.167969 43.378906 52.21875 43.445312 C 52.246094 43.507812 52.261719 43.582031 52.261719 43.65625 C 52.273438 43.800781 52.269531 43.84375 52.234375 43.902344 C 52.183594 43.972656 52 43.988281 51.949219 43.914062 C 51.910156 43.84375 51.882812 43.851562 51.828125 43.914062 C 51.71875 44.039062 51.707031 43.863281 51.785156 43.597656 C 51.820312 43.480469 51.820312 43.453125 51.785156 43.414062 C 51.730469 43.34375 51.742188 43.277344 51.816406 43.234375 C 51.855469 43.210938 51.882812 43.160156 51.886719 43.109375 C 51.898438 43.046875 51.910156 42.980469 51.925781 42.921875 C 51.984375 42.742188 51.984375 42.699219 51.914062 42.574219 C 51.847656 42.453125 51.855469 42.367188 51.925781 42.367188 C 51.960938 42.367188 51.992188 42.351562 52.027344 42.328125 C 52.054688 42.316406 52.089844 42.316406 52.117188 42.328125 C 52.15625 42.367188 52.171875 42.367188 52.207031 42.328125 C 52.238281 42.300781 52.273438 42.03125 52.25 41.960938 C 52.222656 41.867188 52.101562 41.929688 51.9375 42.132812 C 51.886719 42.183594 51.835938 42.21875 51.777344 42.25 C 51.691406 42.292969 51.675781 42.292969 51.664062 42.25 C 51.648438 42.191406 51.757812 42.023438 51.84375 42.003906 C 51.882812 41.988281 51.914062 41.929688 51.949219 41.84375 C 51.984375 41.757812 52.027344 41.683594 52.050781 41.683594 C 52.082031 41.664062 52.09375 41.625 52.09375 41.539062 C 52.09375 41.46875 52.117188 41.402344 52.132812 41.359375 C 52.15625 41.316406 52.167969 41.273438 52.171875 41.222656 C 52.171875 41.164062 52.195312 41.089844 52.21875 41.046875 C 52.285156 40.960938 52.347656 40.867188 52.390625 40.757812 C 52.390625 40.742188 52.417969 40.683594 52.457031 40.628906 C 52.546875 40.496094 52.535156 40.375 52.429688 40.375 C 52.347656 40.367188 52.261719 40.339844 52.183594 40.289062 C 52.144531 40.265625 52.105469 40.25 52.0625 40.242188 C 51.992188 40.230469 51.933594 40.199219 51.871094 40.171875 C 51.78125 40.128906 51.6875 40.089844 51.589844 40.070312 C 51.507812 40.046875 51.421875 40.019531 51.34375 39.96875 C 51.265625 39.925781 51.183594 39.890625 51.097656 39.859375 C 50.890625 39.800781 50.695312 39.679688 50.539062 39.496094 C 50.503906 39.441406 50.464844 39.398438 50.417969 39.375 C 50.289062 39.324219 50.164062 39.257812 50.046875 39.179688 C 49.984375 39.128906 49.925781 39.054688 49.878906 38.96875 C 49.828125 38.867188 49.773438 38.796875 49.71875 38.773438 C 49.65625 38.738281 49.59375 38.6875 49.550781 38.621094 C 49.503906 38.550781 49.449219 38.5 49.425781 38.5 C 49.375 38.5 49.242188 38.359375 49.203125 38.246094 C 49.144531 38.152344 49.085938 38.058594 49.015625 37.96875 C 48.957031 37.890625 48.898438 37.796875 48.855469 37.703125 C 48.84375 37.664062 48.828125 37.636719 48.816406 37.636719 C 48.789062 37.636719 48.691406 37.515625 48.601562 37.367188 C 48.554688 37.28125 48.503906 37.203125 48.453125 37.128906 C 48.40625 37.058594 48.375 36.984375 48.375 36.941406 C 48.367188 36.90625 48.355469 36.871094 48.339844 36.839844 C 48.261719 36.71875 48.195312 36.578125 48.148438 36.433594 C 48.148438 36.40625 48.109375 36.332031 48.066406 36.289062 C 47.960938 36.136719 47.882812 35.972656 47.824219 35.78125 C 47.796875 35.695312 47.757812 35.609375 47.714844 35.535156 C 47.609375 35.371094 47.578125 35.277344 47.578125 35.144531 C 47.578125 35.039062 47.527344 34.878906 47.421875 34.703125 C 47.394531 34.660156 47.371094 34.601562 47.363281 34.550781 C 47.332031 34.429688 47.300781 34.3125 47.261719 34.203125 C 47.222656 34.089844 47.183594 33.964844 47.15625 33.84375 C 47.136719 33.769531 47.109375 33.699219 47.074219 33.632812 C 46.980469 33.457031 46.929688 33.039062 46.890625 32.121094 C 46.863281 31.757812 46.886719 31.386719 46.957031 31.03125 C 46.980469 30.945312 46.992188 30.859375 47.003906 30.765625 C 47.015625 30.632812 47.046875 30.511719 47.085938 30.394531 C 47.132812 30.28125 47.164062 30.15625 47.195312 30.035156 C 47.199219 29.945312 47.214844 29.867188 47.238281 29.789062 C 47.261719 29.714844 47.277344 29.636719 47.28125 29.5625 C 47.3125 29.351562 47.390625 29.070312 47.445312 28.992188 C 47.46875 28.960938 47.480469 28.925781 47.484375 28.882812 C 47.484375 28.851562 47.507812 28.738281 47.535156 28.644531 C 47.5625 28.527344 47.585938 28.410156 47.597656 28.296875 C 47.613281 28.109375 47.667969 27.941406 47.746094 27.789062 C 47.777344 27.730469 47.796875 27.671875 47.816406 27.609375 C 47.84375 27.5 47.882812 27.390625 47.921875 27.289062 C 47.960938 27.203125 47.988281 27.109375 48.003906 27.015625 C 48.003906 26.976562 48.039062 26.898438 48.070312 26.839844 C 48.160156 26.703125 48.234375 26.535156 48.273438 26.363281 C 48.273438 26.304688 48.394531 25.980469 48.425781 25.949219 C 48.464844 25.882812 48.496094 25.8125 48.523438 25.730469 C 48.585938 25.550781 48.671875 25.378906 48.777344 25.226562 C 48.828125 25.144531 48.871094 25.058594 48.910156 24.964844 C 48.960938 24.863281 49.011719 24.769531 49.066406 24.683594 C 49.113281 24.625 49.144531 24.558594 49.175781 24.488281 C 49.246094 24.3125 49.351562 24.167969 49.480469 24.050781 C 49.511719 24.046875 49.539062 23.996094 49.550781 23.949219 C 49.582031 23.871094 49.628906 23.804688 49.675781 23.75 C 50.070312 23.257812 50.265625 23.023438 50.328125 22.988281 C 50.484375 22.863281 50.625 22.726562 50.757812 22.566406 C 50.8125 22.503906 50.917969 22.429688 50.992188 22.378906 C 51.058594 22.34375 51.125 22.300781 51.195312 22.257812 C 51.246094 22.214844 51.292969 22.175781 51.355469 22.15625 C 51.421875 22.125 51.484375 22.074219 51.535156 22.019531 C 51.574219 21.953125 51.628906 21.910156 51.691406 21.886719 C 51.867188 21.835938 52.039062 21.765625 52.207031 21.675781 C 52.320312 21.625 52.441406 21.589844 52.558594 21.570312 C 52.6875 21.539062 52.8125 21.503906 52.929688 21.453125 C 53.605469 21.226562 54.304688 21.148438 55.003906 21.226562 C 55.296875 21.265625 55.585938 21.34375 55.867188 21.460938 C 55.886719 21.480469 56.042969 21.53125 56.195312 21.589844 C 56.308594 21.621094 56.414062 21.664062 56.519531 21.726562 C 56.566406 21.765625 56.617188 21.792969 56.664062 21.808594 C 56.75 21.835938 56.824219 21.894531 56.878906 21.980469 C 56.921875 22.046875 56.980469 22.105469 57.046875 22.140625 C 57.113281 22.175781 57.175781 22.226562 57.226562 22.285156 C 57.277344 22.351562 57.332031 22.394531 57.386719 22.429688 C 57.433594 22.445312 57.484375 22.515625 57.542969 22.65625 C 57.59375 22.761719 57.679688 22.902344 57.730469 22.953125 C 57.800781 23.039062 57.863281 23.140625 57.898438 23.257812 C 57.9375 23.355469 57.980469 23.453125 58.046875 23.539062 C 58.109375 23.609375 58.152344 23.710938 58.183594 23.8125 C 58.242188 24.046875 58.292969 24.082031 58.328125 23.914062 L 58.390625 23.609375 C 58.421875 23.488281 58.445312 23.355469 58.457031 23.226562 C 58.460938 23.148438 58.472656 23.058594 58.496094 22.980469 C 58.519531 22.894531 58.535156 22.800781 58.546875 22.699219 C 58.5625 22.480469 58.574219 22.453125 58.691406 22.277344 C 58.734375 22.21875 58.78125 22.148438 58.8125 22.070312 C 58.8125 22.011719 58.941406 21.664062 59.003906 21.5625 C 59.054688 21.46875 59.058594 21.429688 59.050781 21.308594 C 59.03125 21.128906 59.058594 21.027344 59.144531 21.054688 C 59.21875 21.082031 59.304688 20.980469 59.441406 20.730469 C 59.523438 20.535156 59.640625 20.367188 59.78125 20.242188 C 59.832031 20.199219 59.871094 20.136719 59.894531 20.0625 C 59.921875 19.976562 59.96875 19.910156 60.035156 19.875 C 60.140625 19.800781 60.207031 19.6875 60.195312 19.5625 C 60.195312 19.511719 60.203125 19.46875 60.21875 19.425781 C 60.257812 19.367188 60.351562 19.367188 60.386719 19.425781 C 60.429688 19.492188 60.429688 19.945312 60.386719 20.078125 C 60.363281 20.164062 60.363281 20.1875 60.398438 20.238281 C 60.429688 20.28125 60.453125 20.28125 60.488281 20.257812 C 60.566406 20.140625 60.621094 20.003906 60.636719 19.851562 C 60.636719 19.800781 60.660156 19.730469 60.695312 19.6875 C 60.789062 19.5625 60.875 19.417969 60.941406 19.265625 C 61.007812 19.136719 61.085938 19.019531 61.175781 18.917969 C 61.214844 18.890625 61.28125 18.992188 61.28125 19.070312 C 61.28125 19.113281 61.253906 19.214844 61.226562 19.28125 C 61.1875 19.425781 61.160156 19.707031 61.1875 19.75 C 61.199219 19.757812 61.230469 19.738281 61.269531 19.699219 C 61.367188 19.613281 61.410156 19.621094 61.445312 19.730469 C 61.476562 19.851562 61.515625 19.851562 61.5625 19.742188 C 61.601562 19.679688 61.601562 19.648438 61.578125 19.585938 C 61.5625 19.542969 61.539062 19.511719 61.527344 19.511719 C 61.453125 19.519531 61.425781 19.503906 61.425781 19.445312 C 61.425781 19.34375 61.484375 19.300781 61.542969 19.382812 C 61.621094 19.46875 61.65625 19.460938 61.742188 19.28125 C 61.839844 19.09375 61.902344 19.078125 61.96875 19.238281 C 62.035156 19.382812 62.132812 19.382812 62.195312 19.246094 C 62.222656 19.179688 62.261719 19.128906 62.3125 19.097656 C 62.546875 19 62.546875 19 62.578125 19.046875 C 62.601562 19.097656 62.613281 19.15625 62.613281 19.214844 C 62.613281 19.351562 62.65625 19.351562 62.742188 19.207031 C 62.78125 19.144531 62.832031 19.09375 62.855469 19.09375 C 62.894531 19.085938 62.933594 19.070312 62.964844 19.042969 C 63.042969 18.992188 63.09375 18.984375 63.117188 19.035156 C 63.140625 19.078125 63.082031 19.296875 63.03125 19.382812 C 63.011719 19.410156 62.992188 19.445312 62.984375 19.484375 C 62.984375 19.554688 62.765625 20.054688 62.675781 20.207031 C 62.597656 20.324219 62.539062 20.453125 62.511719 20.589844 C 62.511719 20.632812 62.546875 20.664062 62.609375 20.679688 C 62.738281 20.722656 62.742188 20.832031 62.628906 20.996094 C 62.535156 21.140625 62.460938 21.300781 62.410156 21.472656 C 62.410156 21.496094 62.378906 21.546875 62.339844 21.589844 C 62.28125 21.632812 62.265625 21.671875 62.273438 21.742188 C 62.28125 21.878906 62.371094 21.851562 62.394531 21.699219 C 62.410156 21.613281 62.480469 21.503906 62.640625 21.277344 C 62.71875 21.171875 62.804688 21.070312 62.894531 20.976562 C 62.910156 20.976562 62.964844 20.910156 63.023438 20.808594 C 63.148438 20.582031 63.207031 20.535156 63.230469 20.539062 C 63.246094 20.570312 63.25 20.597656 63.25 20.628906 C 63.207031 20.785156 63.140625 20.929688 63.050781 21.054688 C 63.023438 21.113281 62.992188 21.183594 62.976562 21.25 C 62.949219 21.335938 62.914062 21.425781 62.875 21.503906 C 62.84375 21.554688 62.820312 21.613281 62.808594 21.675781 C 62.808594 21.714844 62.777344 21.769531 62.738281 21.808594 C 62.628906 21.929688 62.539062 22.074219 62.46875 22.242188 C 62.46875 22.257812 62.5 22.320312 62.539062 22.378906 C 62.574219 22.421875 62.597656 22.472656 62.613281 22.53125 C 62.613281 22.554688 62.640625 22.605469 62.675781 22.648438 C 62.78125 22.761719 62.726562 22.988281 62.585938 22.988281 C 62.535156 22.988281 62.496094 23.023438 62.394531 23.175781 C 62.25 23.40625 62.195312 23.554688 62.195312 23.660156 C 62.1875 23.75 62.171875 23.828125 62.15625 23.90625 C 62.132812 24 62.121094 24.109375 62.132812 24.210938 C 62.148438 24.34375 62.144531 24.347656 61.996094 24.558594 C 61.914062 24.675781 61.828125 24.792969 61.75 24.90625 C 61.703125 24.992188 61.640625 25.074219 61.574219 25.144531 C 61.523438 25.195312 61.472656 25.261719 61.4375 25.335938 C 61.421875 25.390625 61.394531 25.441406 61.359375 25.480469 C 61.292969 25.558594 61.238281 25.652344 61.199219 25.753906 C 61.140625 25.871094 61.082031 25.980469 61.011719 26.074219 C 60.953125 26.144531 60.90625 26.230469 60.875 26.332031 C 60.824219 26.457031 60.773438 26.574219 60.714844 26.6875 C 60.675781 26.773438 60.636719 26.871094 60.605469 26.964844 C 60.546875 27.128906 60.46875 27.273438 60.363281 27.398438 C 60.300781 27.476562 60.253906 27.5625 60.214844 27.660156 C 60.167969 27.761719 60.113281 27.855469 60.046875 27.925781 C 59.96875 28.035156 59.921875 28.109375 59.921875 28.164062 C 59.921875 28.265625 59.808594 28.5 59.738281 28.535156 C 59.640625 28.644531 59.5625 28.78125 59.523438 28.941406 C 59.515625 28.984375 59.484375 29.027344 59.453125 29.054688 C 59.347656 29.195312 59.261719 29.351562 59.210938 29.542969 C 59.207031 29.585938 59.195312 29.628906 59.179688 29.664062 C 59.148438 29.730469 59.132812 29.792969 59.121094 29.867188 C 59.109375 29.945312 59.082031 30.027344 59.050781 30.089844 C 58.933594 30.324219 58.835938 30.578125 58.765625 30.835938 C 58.765625 30.875 58.734375 30.925781 58.714844 30.960938 C 58.617188 31.070312 58.558594 31.207031 58.519531 31.359375 C 58.519531 31.425781 58.410156 31.714844 58.34375 31.835938 C 58.304688 31.917969 58.277344 32.003906 58.253906 32.089844 C 58.238281 32.183594 58.203125 32.269531 58.171875 32.351562 C 58.148438 32.386719 58.132812 32.429688 58.125 32.472656 C 58.109375 32.53125 58.085938 32.582031 58.054688 32.625 C 57.945312 32.820312 57.863281 33.03125 57.800781 33.261719 C 57.777344 33.351562 57.738281 33.4375 57.695312 33.503906 C 57.640625 33.574219 57.605469 33.667969 57.59375 33.761719 C 57.566406 33.972656 57.492188 34.175781 57.394531 34.347656 C 57.347656 34.429688 57.316406 34.515625 57.285156 34.601562 C 57.21875 34.847656 57.125 35.074219 57.019531 35.289062 C 56.945312 35.4375 56.890625 35.59375 56.84375 35.753906 C 56.777344 35.984375 56.699219 36.210938 56.609375 36.425781 L 56.222656 37.382812 C 56.164062 37.527344 56.113281 37.679688 56.074219 37.839844 C 56.054688 37.917969 56.035156 37.992188 56.003906 38.058594 C 55.894531 38.347656 55.804688 38.644531 55.730469 38.949219 C 55.691406 39.113281 55.640625 39.28125 55.582031 39.441406 C 55.570312 39.496094 55.550781 39.554688 55.535156 39.605469 C 55.492188 39.792969 55.441406 39.976562 55.378906 40.15625 C 55.335938 40.292969 55.304688 40.433594 55.285156 40.585938 C 55.265625 40.773438 55.226562 40.960938 55.175781 41.140625 C 55.15625 41.234375 55.121094 41.328125 55.089844 41.425781 C 55.054688 41.511719 55.027344 41.597656 55.015625 41.691406 C 55.015625 41.726562 54.980469 41.800781 54.941406 41.84375 C 54.886719 41.894531 54.871094 41.953125 54.871094 42.023438 C 54.871094 42.132812 54.8125 42.367188 54.792969 42.367188 C 54.78125 42.367188 54.757812 42.410156 54.742188 42.472656 C 54.695312 42.648438 54.640625 42.820312 54.578125 42.988281 C 54.527344 43.140625 54.496094 43.308594 54.484375 43.464844 C 54.460938 43.597656 54.429688 43.726562 54.378906 43.835938 C 54.328125 43.945312 54.292969 44.046875 54.265625 44.160156 C 54.210938 44.40625 54.113281 44.640625 53.984375 44.835938 C 53.957031 44.847656 53.929688 44.878906 53.929688 44.894531 C 53.929688 44.914062 53.90625 44.914062 53.878906 44.914062 C 53.839844 44.914062 53.835938 44.898438 53.835938 44.742188 C 53.835938 44.652344 53.847656 44.558594 53.855469 44.550781 C 53.875 44.539062 53.878906 44.488281 53.878906 44.445312 C 53.878906 44.371094 53.875 44.34375 53.839844 44.34375 C 53.777344 44.34375 53.726562 44.40625 53.726562 44.488281 C 53.71875 44.566406 53.699219 44.640625 53.679688 44.710938 C 53.648438 44.777344 53.628906 44.84375 53.609375 44.914062 C 53.601562 44.964844 53.582031 45.023438 53.554688 45.074219 C 53.539062 45.125 53.519531 45.183594 53.515625 45.238281 C 53.515625 45.277344 53.480469 45.339844 53.449219 45.390625 C 53.414062 45.441406 53.386719 45.507812 53.386719 45.535156 C 53.386719 45.601562 53.292969 45.71875 53.226562 45.71875 C 53.195312 45.71875 53.164062 45.695312 53.140625 45.667969 Z M 52.90625 45.074219 C 52.90625 45.03125 52.878906 45 52.867188 45 C 52.84375 45 52.820312 45.03125 52.816406 45.074219 C 52.816406 45.132812 52.820312 45.140625 52.867188 45.140625 C 52.902344 45.140625 52.917969 45.132812 52.90625 45.074219 Z M 53.273438 44.753906 C 53.320312 44.703125 53.316406 44.601562 53.273438 44.601562 C 53.234375 44.601562 53.214844 44.675781 53.214844 44.742188 C 53.214844 44.796875 53.234375 44.804688 53.273438 44.753906 Z M 53.996094 43.835938 C 53.996094 43.8125 53.984375 43.8125 53.976562 43.820312 C 53.957031 43.835938 53.945312 43.851562 53.945312 43.863281 C 53.945312 43.886719 53.957031 43.894531 53.976562 43.878906 C 53.984375 43.871094 53.996094 43.84375 53.996094 43.835938 Z M 52.832031 41.9375 C 52.878906 41.894531 52.871094 41.859375 52.816406 41.859375 C 52.789062 41.859375 52.761719 41.859375 52.761719 41.871094 C 52.761719 41.894531 52.753906 41.917969 52.75 41.929688 C 52.726562 41.988281 52.789062 42.003906 52.832031 41.945312 Z M 53.929688 36.253906 C 53.96875 36.144531 54.015625 36.042969 54.0625 35.949219 C 54.097656 35.90625 54.121094 35.855469 54.121094 35.828125 C 54.148438 35.675781 54.1875 35.53125 54.242188 35.390625 C 54.265625 35.335938 54.28125 35.269531 54.292969 35.210938 C 54.320312 35.101562 54.359375 35 54.40625 34.90625 C 54.472656 34.785156 54.488281 34.726562 54.488281 34.609375 C 54.488281 34.515625 54.511719 34.429688 54.546875 34.347656 C 54.566406 34.292969 54.585938 34.234375 54.589844 34.175781 C 54.589844 34.152344 54.617188 34.097656 54.644531 34.046875 C 54.695312 33.953125 54.734375 33.851562 54.761719 33.742188 C 54.792969 33.652344 54.820312 33.558594 54.851562 33.480469 C 54.871094 33.421875 54.886719 33.371094 54.890625 33.3125 C 54.929688 33.132812 54.988281 32.953125 55.058594 32.785156 C 55.167969 32.554688 55.238281 32.300781 55.277344 32.03125 C 55.289062 31.902344 55.328125 31.777344 55.382812 31.675781 C 55.433594 31.589844 55.472656 31.496094 55.496094 31.394531 C 55.511719 31.285156 55.542969 31.183594 55.574219 31.082031 C 55.609375 30.988281 55.640625 30.894531 55.664062 30.792969 C 55.679688 30.707031 55.714844 30.628906 55.75 30.546875 C 55.804688 30.425781 55.847656 30.292969 55.882812 30.164062 C 55.917969 30.035156 55.957031 29.902344 55.996094 29.773438 C 56.015625 29.707031 56.035156 29.644531 56.042969 29.578125 C 56.042969 29.546875 56.078125 29.425781 56.117188 29.296875 L 56.210938 29.003906 C 56.234375 28.933594 56.257812 28.859375 56.269531 28.78125 C 56.285156 28.6875 56.320312 28.601562 56.371094 28.519531 C 56.414062 28.457031 56.449219 28.375 56.464844 28.289062 C 56.503906 28.101562 56.554688 27.917969 56.609375 27.746094 C 56.625 27.695312 56.636719 27.644531 56.648438 27.59375 C 56.664062 27.519531 56.6875 27.457031 56.722656 27.40625 C 56.753906 27.355469 56.785156 27.289062 56.785156 27.261719 C 56.785156 27.230469 56.792969 27.195312 56.804688 27.195312 C 56.824219 27.179688 56.84375 27.121094 56.863281 27.050781 C 56.902344 26.941406 56.960938 26.839844 57.035156 26.753906 C 57.117188 26.652344 57.1875 26.527344 57.238281 26.398438 C 57.285156 26.269531 57.355469 26.152344 57.433594 26.050781 C 57.542969 25.914062 57.570312 25.839844 57.59375 25.703125 C 57.617188 25.59375 57.652344 25.5 57.683594 25.480469 C 57.757812 25.355469 57.820312 25.226562 57.867188 25.082031 C 58.015625 24.710938 58.015625 24.695312 57.867188 24.59375 C 57.820312 24.558594 57.769531 24.507812 57.730469 24.449219 C 57.695312 24.40625 57.660156 24.363281 57.644531 24.363281 C 57.589844 24.328125 57.53125 24.285156 57.484375 24.234375 C 57.246094 24.046875 57.191406 24.023438 57.0625 24.066406 C 56.890625 24.132812 56.664062 24.117188 56.566406 24.039062 C 56.527344 24 56.492188 23.964844 56.492188 23.945312 C 56.492188 23.878906 56.410156 23.785156 56.371094 23.785156 C 56.339844 23.785156 56.300781 23.753906 56.28125 23.703125 C 56.234375 23.617188 56.171875 23.601562 56.125 23.660156 C 56.078125 23.726562 56.085938 24.277344 56.128906 24.328125 C 56.152344 24.347656 56.164062 24.386719 56.167969 24.421875 C 56.183594 24.496094 56.207031 24.566406 56.242188 24.640625 C 56.320312 24.804688 56.320312 24.8125 56.289062 24.988281 C 56.234375 25.277344 56.234375 25.269531 55.945312 25.226562 C 55.816406 25.203125 55.691406 25.175781 55.5625 25.136719 C 55.40625 25.082031 55.265625 25.082031 55.222656 25.136719 C 55.160156 25.1875 55.09375 25.21875 55.019531 25.238281 C 54.953125 25.253906 54.886719 25.277344 54.824219 25.3125 C 54.675781 25.398438 54.515625 25.464844 54.359375 25.507812 C 54.308594 25.523438 54.265625 25.535156 54.222656 25.566406 C 53.996094 25.726562 53.761719 25.863281 53.519531 25.972656 C 53.324219 26.007812 53.128906 26.078125 52.949219 26.179688 C 52.894531 26.226562 52.832031 26.253906 52.773438 26.269531 C 52.695312 26.28125 52.644531 26.320312 52.535156 26.449219 C 52.46875 26.527344 52.402344 26.601562 52.335938 26.667969 C 52.273438 26.730469 52.230469 26.820312 52.195312 26.90625 C 52.15625 26.984375 52.105469 27.058594 52.042969 27.117188 C 52.003906 27.144531 51.972656 27.1875 51.945312 27.238281 C 51.898438 27.316406 51.855469 27.382812 51.804688 27.449219 C 51.636719 27.6875 51.492188 27.949219 51.371094 28.222656 C 51.289062 28.425781 51.1875 28.613281 51.070312 28.78125 C 51.042969 28.824219 51.027344 28.867188 51.015625 28.925781 C 51.015625 28.953125 51.003906 28.992188 50.992188 29.003906 C 50.941406 29.105469 50.898438 29.207031 50.859375 29.308594 C 50.800781 29.441406 50.753906 29.570312 50.695312 29.691406 C 50.664062 29.75 50.644531 29.824219 50.640625 29.890625 C 50.625 30.019531 50.601562 30.140625 50.5625 30.257812 C 50.523438 30.417969 50.488281 30.570312 50.457031 30.730469 C 50.4375 30.816406 50.417969 30.886719 50.378906 30.960938 C 50.339844 31.019531 50.304688 31.171875 50.242188 31.597656 C 50.199219 31.851562 50.199219 32.113281 50.230469 32.371094 C 50.269531 32.777344 50.320312 33.003906 50.394531 33.140625 C 50.421875 33.175781 50.445312 33.226562 50.449219 33.277344 C 50.449219 33.308594 50.484375 33.421875 50.535156 33.523438 C 50.578125 33.625 50.613281 33.734375 50.632812 33.851562 C 50.644531 33.953125 50.683594 34.023438 50.808594 34.191406 C 50.878906 34.285156 50.949219 34.378906 51.007812 34.488281 C 51.066406 34.574219 51.125 34.660156 51.199219 34.742188 L 51.546875 35.160156 C 51.660156 35.3125 51.796875 35.441406 51.949219 35.53125 C 52 35.582031 52.054688 35.625 52.113281 35.660156 C 52.15625 35.695312 52.195312 35.746094 52.21875 35.804688 C 52.25 35.871094 52.300781 35.914062 52.40625 35.964844 C 52.496094 36.007812 52.574219 36.050781 52.660156 36.101562 C 52.8125 36.203125 52.96875 36.277344 53.136719 36.3125 C 53.21875 36.332031 53.296875 36.371094 53.375 36.414062 C 53.539062 36.515625 53.699219 36.550781 53.785156 36.507812 C 53.839844 36.484375 53.875 36.425781 53.929688 36.253906 Z M 62.199219 23.132812 C 62.25 23.066406 62.261719 23.023438 62.261719 22.914062 C 62.261719 22.75 62.226562 22.71875 62.144531 22.828125 C 62.066406 22.914062 62.042969 23.210938 62.109375 23.210938 C 62.144531 23.199219 62.171875 23.167969 62.199219 23.132812 Z M 62.234375 21.996094 C 62.234375 21.980469 62.222656 21.972656 62.214844 21.980469 C 62.199219 21.996094 62.1875 22.019531 62.1875 22.039062 C 62.1875 22.054688 62.199219 22.054688 62.214844 22.046875 C 62.226562 22.03125 62.234375 22.019531 62.234375 21.996094 Z M 61.082031 19.984375 C 61.160156 19.773438 61.070312 19.824219 60.980469 20.046875 C 60.953125 20.113281 60.953125 20.113281 60.996094 20.113281 C 61.023438 20.113281 61.058594 20.046875 61.082031 19.984375 Z M 19.675781 44.34375 C 19.671875 44.335938 19.671875 44.328125 19.671875 44.3125 C 19.675781 44.304688 19.675781 44.300781 19.6875 44.292969 C 19.710938 44.269531 19.785156 44.300781 19.785156 44.34375 C 19.785156 44.378906 19.695312 44.378906 19.675781 44.34375 Z M 51.507812 43.011719 C 51.507812 42.960938 51.558594 42.964844 51.574219 43.023438 C 51.574219 43.046875 51.5625 43.0625 51.546875 43.0625 C 51.523438 43.0625 51.507812 43.039062 51.507812 43.011719 Z M 51.460938 42.402344 C 51.472656 42.328125 51.507812 42.320312 51.550781 42.351562 C 51.597656 42.394531 51.5625 42.453125 51.5 42.453125 C 51.46875 42.453125 51.457031 42.4375 51.460938 42.402344 Z M 51.578125 41.722656 C 51.511719 41.632812 51.507812 41.480469 51.570312 41.328125 C 51.597656 41.257812 51.625 41.242188 51.675781 41.25 C 51.726562 41.25 51.738281 41.277344 51.753906 41.378906 C 51.769531 41.453125 51.765625 41.527344 51.738281 41.589844 C 51.71875 41.632812 51.707031 41.675781 51.703125 41.726562 C 51.703125 41.800781 51.636719 41.800781 51.578125 41.722656 Z M 21.863281 40.851562 C 21.84375 40.722656 21.832031 40.585938 21.832031 40.445312 C 21.832031 40.230469 21.796875 40.019531 21.738281 39.816406 C 21.703125 39.699219 21.667969 39.585938 21.648438 39.460938 C 21.636719 39.390625 21.609375 39.332031 21.570312 39.28125 C 21.484375 39.15625 21.433594 39.003906 21.410156 38.847656 C 21.402344 38.679688 21.355469 38.519531 21.277344 38.390625 C 21.253906 38.347656 21.234375 38.308594 21.214844 38.257812 C 21.144531 38.050781 21.070312 37.832031 20.996094 37.609375 C 20.96875 37.527344 20.929688 37.449219 20.886719 37.367188 C 20.835938 37.289062 20.835938 37.21875 20.890625 37.117188 C 20.917969 37.078125 20.941406 37.027344 20.949219 36.976562 C 20.953125 36.921875 20.96875 36.855469 20.992188 36.796875 C 21.027344 36.695312 21.046875 36.59375 21.066406 36.484375 C 21.117188 36.179688 21.183594 35.890625 21.265625 35.609375 C 21.324219 35.464844 21.378906 35.117188 21.402344 34.710938 C 21.410156 34.414062 21.46875 34.117188 21.5625 33.851562 L 21.617188 33.515625 C 21.675781 33.242188 21.71875 32.960938 21.753906 32.667969 C 21.785156 32.320312 21.855469 31.972656 21.960938 31.648438 C 21.972656 31.4375 22.015625 31.234375 22.089844 31.054688 C 22.128906 30.976562 22.15625 30.886719 22.179688 30.800781 C 22.195312 30.714844 22.230469 30.632812 22.269531 30.5625 C 22.324219 30.445312 22.375 30.324219 22.417969 30.199219 C 22.476562 30.0625 22.535156 29.925781 22.609375 29.808594 C 22.652344 29.738281 22.691406 29.65625 22.714844 29.578125 C 22.761719 29.445312 22.816406 29.316406 22.878906 29.199219 C 22.933594 29.105469 22.980469 29 23.019531 28.890625 C 23.019531 28.816406 23.140625 28.554688 23.207031 28.5 C 23.257812 28.417969 23.304688 28.332031 23.335938 28.238281 C 23.390625 28.101562 23.464844 27.96875 23.550781 27.867188 C 23.617188 27.789062 23.667969 27.695312 23.699219 27.585938 C 23.710938 27.515625 23.738281 27.441406 23.773438 27.382812 C 23.800781 27.332031 23.816406 27.28125 23.828125 27.230469 C 23.828125 27.171875 23.878906 26.984375 23.925781 26.882812 C 23.945312 26.832031 23.992188 26.8125 24.0625 26.796875 C 24.214844 26.769531 24.230469 26.710938 24.175781 26.457031 C 24.121094 26.226562 24.121094 26.078125 24.1875 26.035156 L 24.269531 25.984375 C 24.292969 25.972656 24.320312 25.921875 24.328125 25.878906 C 24.339844 25.820312 24.355469 25.769531 24.378906 25.726562 C 24.40625 25.675781 24.421875 25.617188 24.421875 25.550781 C 24.421875 25.429688 24.460938 25.378906 24.496094 25.464844 C 24.539062 25.550781 24.578125 25.464844 24.5625 25.320312 C 24.535156 25.03125 24.5 24.914062 24.433594 24.847656 L 24.367188 24.777344 L 24.417969 24.644531 C 24.445312 24.574219 24.464844 24.5 24.484375 24.421875 C 24.507812 24.320312 24.546875 24.226562 24.589844 24.140625 C 24.625 24.074219 24.652344 24 24.671875 23.929688 C 24.671875 23.855469 24.734375 23.652344 24.851562 23.40625 C 24.890625 23.320312 24.929688 23.226562 24.964844 23.132812 C 24.964844 23.109375 25.097656 22.707031 25.136719 22.625 C 25.15625 22.589844 25.160156 22.554688 25.167969 22.515625 C 25.183594 22.4375 25.207031 22.351562 25.234375 22.269531 L 25.375 21.851562 C 25.414062 21.722656 25.460938 21.597656 25.523438 21.476562 C 25.558594 21.410156 25.585938 21.335938 25.609375 21.265625 L 25.691406 21.011719 C 25.738281 20.902344 25.769531 20.785156 25.796875 20.671875 C 25.796875 20.597656 25.832031 20.535156 25.867188 20.511719 C 25.925781 20.453125 26.011719 20.199219 26.050781 19.941406 C 26.066406 19.84375 26.09375 19.75 26.132812 19.671875 C 26.269531 19.359375 26.378906 19.035156 26.46875 18.695312 C 26.46875 18.664062 26.515625 18.585938 26.566406 18.5 C 26.613281 18.425781 26.65625 18.339844 26.675781 18.246094 C 26.714844 18.058594 26.777344 17.875 26.863281 17.710938 C 26.933594 17.585938 27.136719 17.6875 27.136719 17.832031 C 27.136719 17.90625 27.308594 18.253906 27.335938 18.253906 C 27.347656 18.253906 27.371094 18.222656 27.382812 18.1875 C 27.398438 18.152344 27.433594 18.128906 27.464844 18.136719 C 27.523438 18.144531 27.523438 18.171875 27.53125 18.441406 C 27.550781 18.859375 27.609375 18.917969 27.695312 18.585938 C 27.746094 18.347656 27.789062 18.28125 27.847656 18.375 C 27.898438 18.460938 27.878906 18.542969 27.816406 18.585938 C 27.75 18.605469 27.730469 18.707031 27.773438 18.796875 C 27.8125 18.859375 27.875 18.816406 27.902344 18.679688 C 27.914062 18.628906 27.929688 18.578125 27.957031 18.542969 C 27.96875 18.527344 28.019531 18.570312 28.0625 18.621094 C 28.097656 18.671875 28.132812 18.707031 28.175781 18.738281 C 28.1875 18.738281 28.226562 18.679688 28.253906 18.605469 C 28.382812 18.347656 28.617188 18.1875 28.617188 18.375 C 28.617188 18.417969 28.605469 18.460938 28.589844 18.503906 C 28.515625 18.679688 28.460938 18.867188 28.429688 19.0625 C 28.417969 19.179688 28.429688 19.238281 28.457031 19.289062 C 28.511719 19.394531 28.507812 19.417969 28.445312 19.390625 C 28.40625 19.375 28.390625 19.390625 28.359375 19.484375 C 28.339844 19.554688 28.320312 19.621094 28.320312 19.691406 C 28.316406 19.75 28.304688 19.800781 28.28125 19.851562 C 28.226562 19.941406 28.25 20.113281 28.320312 20.1875 C 28.359375 20.238281 28.378906 20.285156 28.378906 20.445312 C 28.378906 20.640625 28.398438 20.714844 28.429688 20.582031 C 28.445312 20.539062 28.46875 20.503906 28.496094 20.476562 C 28.5625 20.394531 28.558594 20.25 28.484375 20.1875 C 28.390625 20.113281 28.378906 19.976562 28.449219 19.816406 C 28.515625 19.65625 28.585938 19.628906 28.714844 19.707031 C 28.785156 19.765625 28.792969 19.765625 28.835938 19.707031 C 28.851562 19.6875 28.882812 19.664062 28.910156 19.664062 C 28.941406 19.664062 28.941406 19.773438 28.910156 19.867188 C 28.863281 19.976562 28.84375 20.179688 28.871094 20.25 C 28.882812 20.308594 28.882812 20.34375 28.851562 20.417969 C 28.832031 20.476562 28.8125 20.535156 28.8125 20.597656 C 28.8125 20.648438 28.804688 20.699219 28.78125 20.75 C 28.757812 20.800781 28.765625 20.835938 28.820312 20.976562 L 28.886719 21.128906 L 28.804688 21.179688 C 28.753906 21.199219 28.695312 21.214844 28.640625 21.199219 C 28.515625 21.179688 28.457031 21.34375 28.515625 21.554688 C 28.539062 21.621094 28.558594 21.632812 28.625 21.632812 C 28.707031 21.632812 28.8125 21.539062 28.8125 21.460938 C 28.8125 21.445312 28.84375 21.394531 28.875 21.34375 C 28.949219 21.222656 29.027344 21.234375 29.019531 21.367188 C 29.015625 21.480469 28.972656 21.546875 28.890625 21.546875 C 28.851562 21.546875 28.832031 21.570312 28.808594 21.632812 C 28.796875 21.699219 28.769531 21.734375 28.734375 21.734375 C 28.683594 21.734375 28.617188 21.84375 28.617188 21.9375 C 28.617188 22.019531 28.691406 22.046875 28.722656 21.980469 C 28.769531 21.910156 28.820312 21.910156 28.808594 22.003906 C 28.808594 22.046875 28.78125 22.070312 28.742188 22.082031 C 28.679688 22.105469 28.652344 22.15625 28.636719 22.292969 C 28.617188 22.367188 28.605469 22.371094 28.574219 22.359375 C 28.476562 22.308594 28.421875 22.308594 28.382812 22.359375 C 28.351562 22.417969 28.34375 22.472656 28.355469 22.835938 C 28.359375 23.058594 28.371094 23.277344 28.394531 23.503906 C 28.421875 23.742188 28.421875 23.75 28.351562 23.949219 C 28.304688 24.074219 28.269531 24.199219 28.238281 24.328125 C 28.203125 24.472656 28.164062 24.625 28.125 24.769531 C 28.09375 24.878906 28.070312 24.988281 28.046875 25.09375 C 27.984375 25.421875 27.886719 25.726562 27.746094 26.007812 C 27.695312 26.117188 27.644531 26.230469 27.605469 26.347656 C 27.578125 26.433594 27.542969 26.515625 27.511719 26.59375 C 27.421875 26.71875 27.34375 26.855469 27.28125 27 C 27.265625 27.042969 27.230469 27.078125 27.195312 27.109375 C 27.117188 27.171875 27.046875 27.246094 26.984375 27.324219 C 26.894531 27.417969 26.832031 27.550781 26.800781 27.6875 C 26.75 27.867188 26.699219 28.042969 26.648438 28.214844 C 26.585938 28.433594 26.53125 28.652344 26.488281 28.875 C 26.453125 29.042969 26.414062 29.214844 26.375 29.382812 C 26.328125 29.527344 26.324219 29.59375 26.347656 29.65625 C 26.367188 29.742188 26.363281 29.816406 26.289062 30.0625 C 26.261719 30.199219 26.21875 30.332031 26.160156 30.453125 C 26.113281 30.539062 26.078125 30.648438 26.0625 30.757812 C 26.015625 31.097656 25.910156 31.425781 25.753906 31.714844 C 25.753906 31.734375 25.738281 31.765625 25.71875 31.785156 C 25.6875 31.851562 25.660156 31.921875 25.640625 31.996094 C 25.613281 32.113281 25.570312 32.21875 25.519531 32.316406 C 25.46875 32.402344 25.429688 32.496094 25.394531 32.605469 C 25.363281 32.71875 25.316406 32.835938 25.265625 32.953125 C 25.226562 33.046875 25.195312 33.140625 25.171875 33.25 C 25.148438 33.328125 25.128906 33.40625 25.085938 33.488281 C 25.046875 33.582031 25.007812 33.683594 24.980469 33.785156 C 24.953125 33.878906 24.914062 33.964844 24.863281 34.039062 C 24.824219 34.089844 24.792969 34.140625 24.792969 34.167969 C 24.785156 34.210938 24.769531 34.253906 24.746094 34.292969 C 24.714844 34.355469 24.691406 34.421875 24.671875 34.5 C 24.644531 34.59375 24.613281 34.683594 24.566406 34.761719 C 24.539062 34.804688 24.515625 34.863281 24.5 34.921875 C 24.417969 35.238281 24.300781 35.542969 24.152344 35.820312 L 24.042969 36.09375 C 23.984375 36.210938 23.933594 36.328125 23.894531 36.449219 C 23.886719 36.507812 23.875 36.550781 23.855469 36.550781 C 23.816406 36.550781 23.710938 36.820312 23.699219 36.957031 C 23.683594 37.101562 23.578125 37.339844 23.527344 37.367188 C 23.511719 37.367188 23.472656 37.457031 23.4375 37.550781 C 23.386719 37.738281 23.3125 37.917969 23.214844 38.078125 C 23.179688 38.128906 23.15625 38.179688 23.140625 38.238281 C 23.125 38.316406 23.097656 38.382812 23.0625 38.449219 C 23.035156 38.507812 23.011719 38.570312 22.996094 38.644531 C 22.996094 38.664062 22.984375 38.6875 22.96875 38.703125 C 22.9375 38.765625 22.921875 38.832031 22.910156 38.902344 C 22.894531 39.019531 22.867188 39.136719 22.828125 39.246094 C 22.789062 39.347656 22.753906 39.449219 22.726562 39.546875 C 22.691406 39.679688 22.644531 39.808594 22.582031 39.925781 C 22.53125 40.019531 22.492188 40.121094 22.457031 40.222656 C 22.398438 40.453125 22.308594 40.664062 22.191406 40.84375 C 22.144531 40.902344 21.894531 40.910156 21.863281 40.84375 Z M 24.679688 27.273438 C 24.695312 27.230469 24.679688 27.195312 24.640625 27.195312 C 24.628906 27.195312 24.617188 27.222656 24.617188 27.261719 C 24.617188 27.332031 24.65625 27.347656 24.679688 27.273438 Z M 24.8125 26.796875 C 24.898438 26.542969 24.875 26.476562 24.757812 26.660156 C 24.71875 26.71875 24.695312 26.789062 24.695312 26.863281 C 24.695312 27.019531 24.746094 27.007812 24.8125 26.796875 Z M 24.851562 26.320312 C 24.914062 26.28125 24.9375 26.246094 24.953125 26.152344 C 24.96875 26.015625 24.953125 25.980469 24.878906 25.980469 C 24.800781 25.980469 24.773438 26.023438 24.730469 26.167969 C 24.679688 26.371094 24.703125 26.398438 24.851562 26.320312 Z M 24.605469 26.007812 C 24.632812 25.949219 24.589844 25.789062 24.550781 25.789062 C 24.523438 25.789062 24.496094 25.941406 24.511719 26.015625 C 24.527344 26.085938 24.5625 26.085938 24.605469 26.007812 Z M 29.042969 22.082031 C 29.003906 22.039062 29.003906 21.9375 29.042969 21.808594 C 29.070312 21.683594 29.082031 21.675781 29.15625 21.777344 C 29.199219 21.835938 29.210938 21.886719 29.210938 21.980469 C 29.199219 22.082031 29.1875 22.105469 29.132812 22.113281 C 29.097656 22.113281 29.054688 22.105469 29.042969 22.082031 Z M 13.78125 15.585938 C 13.722656 15.441406 13.769531 15.304688 13.871094 15.304688 C 13.914062 15.304688 13.925781 15.328125 13.949219 15.429688 C 13.992188 15.683594 13.851562 15.8125 13.773438 15.585938 Z M 13.78125 15.585938 "/></g></svg>
