<svg xmlns="http://www.w3.org/2000/svg" xmlns:xlink="http://www.w3.org/1999/xlink" width="64" height="64" viewBox="0 0 64 64" version="1.1"><defs><linearGradient id="linear0" x1="0%" x2="100%" y1="0%" y2="100%"><stop offset="0%" style="stop-color:#6a00ff; stop-opacity:1"/><stop offset="50%" style="stop-color:#e0dd02; stop-opacity:1"/><stop offset="100%" style="stop-color:#00b54e; stop-opacity:1"/></linearGradient></defs><g id="surface1"><path style=" stroke:none;fill-rule:nonzero;fill:url(#linear0);" d="M 0.976562 2.074219 L 0.976562 46.027344 C 0.976562 55.152344 8.425781 62.503906 17.683594 62.503906 L 62.234375 62.503906 L 62.234375 51.511719 C 62.234375 48.488281 59.746094 46.027344 56.671875 46.027344 L 23.257812 46.027344 C 20.179688 46.027344 17.683594 43.5625 17.683594 40.53125 L 17.683594 7.570312 C 17.683594 4.535156 15.1875 2.074219 12.113281 2.074219 Z M 0.976562 2.074219 "/><path style=" stroke:none;fill-rule:nonzero;fill:url(#linear0);" d="M 25.914062 6.097656 C 24.902344 7.097656 24.285156 8.472656 24.285156 9.984375 L 24.285156 31.960938 C 24.285156 33.480469 25.523438 34.703125 27.066406 34.703125 L 49.347656 34.703125 C 50.886719 34.703125 52.273438 34.09375 53.285156 33.09375 L 43.773438 15.480469 Z M 25.914062 6.097656 "/><path style=" stroke:none;fill-rule:nonzero;fill:url(#linear0);" d="M 29.855469 4.488281 C 28.3125 4.488281 26.925781 5.109375 25.914062 6.097656 L 53.285156 33.09375 C 54.289062 32.097656 54.917969 30.730469 54.917969 29.207031 L 54.917969 7.242188 C 54.917969 5.71875 53.667969 4.488281 52.128906 4.488281 Z M 29.855469 4.488281 "/></g></svg>
