<svg xmlns="http://www.w3.org/2000/svg" xmlns:xlink="http://www.w3.org/1999/xlink" width="64" height="64" viewBox="0 0 64 64" version="1.1"><defs><linearGradient id="linear0" x1="0%" x2="0%" y1="0%" y2="100%"><stop offset="0%" style="stop-color:#24dbdb; stop-opacity:1"/><stop offset="100%" style="stop-color:#174475; stop-opacity:1"/></linearGradient></defs><g id="surface1"><path style=" stroke:none;fill-rule:nonzero;fill:url(#linear0);" d="M 25.4375 62.964844 C 13.070312 62.101562 4.054688 59.0625 2.078125 55.082031 C -0.0390625 50.800781 5.050781 46.898438 15.449219 44.824219 C 16.921875 44.527344 18.15625 44.324219 18.199219 44.359375 C 18.242188 44.402344 17.472656 44.644531 16.492188 44.890625 C 10.339844 46.449219 7.503906 49.710938 9.695312 52.707031 C 11.699219 55.445312 18.644531 57.484375 27.6875 57.980469 L 30.257812 58.121094 L 30.101562 57.21875 C 29.851562 55.800781 28.808594 52.5 27.816406 49.980469 C 26.449219 46.519531 24.257812 42.4375 21.085938 37.421875 C 17.648438 31.988281 14.972656 26.929688 14.34375 24.691406 C 13.644531 22.21875 13.683594 18.011719 14.433594 15.332031 C 15.335938 12.097656 16.863281 9.519531 19.347656 7.054688 C 23.96875 2.480469 30.667969 0.75 37 2.503906 C 40.300781 3.410156 42.65625 4.757812 44.984375 7.054688 C 48.191406 10.238281 49.867188 13.640625 50.421875 18.089844 C 50.726562 20.574219 50.480469 23.199219 49.722656 25.515625 C 48.992188 27.769531 46.75 31.984375 43.8125 36.652344 C 39.621094 43.304688 37.972656 46.390625 36.253906 50.769531 C 35.683594 52.242188 34.117188 57.472656 34.117188 57.929688 C 34.117188 58.191406 38.414062 57.914062 41.925781 57.433594 C 48.820312 56.488281 53.347656 54.671875 54.652344 52.324219 C 56.324219 49.328125 53.808594 46.640625 47.675781 44.882812 C 45.210938 44.179688 45.554688 44.15625 48.898438 44.828125 C 56.070312 46.257812 60.886719 48.621094 62.246094 51.375 C 64.65625 56.277344 57.730469 60.59375 44.640625 62.351562 C 38.660156 63.15625 31.496094 63.378906 25.4375 62.964844 M 34.410156 18.214844 C 36.671875 17.410156 38.183594 15.65625 38.691406 13.246094 C 38.886719 12.34375 38.867188 11.886719 38.585938 10.851562 C 37.730469 7.699219 34.894531 5.703125 31.628906 5.949219 C 29.082031 6.144531 27.214844 7.320312 26.089844 9.4375 C 25.527344 10.507812 25.4375 10.917969 25.4375 12.265625 C 25.4375 13.613281 25.527344 14.023438 26.101562 15.105469 C 27.652344 18.042969 31.167969 19.355469 34.410156 18.214844 "/></g></svg>
