<svg xmlns="http://www.w3.org/2000/svg" xmlns:xlink="http://www.w3.org/1999/xlink" width="64" height="64" viewBox="0 0 64 64" version="1.1"><defs><linearGradient id="linear0" x1="0%" x2="100%" y1="0%" y2="100%"><stop offset="0%" style="stop-color:#ae00ff; stop-opacity:1"/><stop offset="100%" style="stop-color:#0084ff; stop-opacity:1"/></linearGradient></defs><g id="surface1"><path style=" stroke:none;fill-rule:nonzero;fill:url(#linear0);" d="M 32.101562 1.191406 C 18.511719 1.191406 7.5 12.765625 7.5 27.019531 C 7.5 40.152344 16.835938 50.96875 28.933594 52.601562 L 28.933594 57.480469 L 25.695312 57.480469 C 24.914062 57.480469 24.285156 58.132812 24.285156 58.953125 L 24.285156 61.671875 C 24.285156 62.488281 24.914062 63.144531 25.695312 63.144531 L 38.539062 63.144531 C 39.320312 63.144531 39.953125 62.488281 39.953125 61.671875 L 39.953125 58.953125 C 39.953125 58.132812 39.320312 57.480469 38.539062 57.480469 L 35.304688 57.480469 L 35.304688 52.601562 C 47.386719 50.953125 56.734375 40.136719 56.734375 27.019531 C 56.734375 12.765625 45.6875 1.191406 32.101562 1.191406 Z M 33.019531 7.773438 C 35.492188 7.773438 37.59375 8.449219 39.355469 9.808594 C 41.328125 11.308594 42.320312 13.332031 42.320312 15.820312 C 42.320312 18.09375 41.53125 20.039062 39.953125 21.683594 C 38.476562 22.863281 36.988281 24.050781 35.503906 25.234375 C 33.910156 26.542969 33.121094 27.945312 33.121094 29.40625 C 33.121094 29.828125 33.195312 30.425781 33.378906 31.234375 C 33.5625 32.035156 33.667969 32.648438 33.667969 33.070312 C 33.667969 35.148438 32.703125 36.183594 30.789062 36.183594 C 29.863281 36.183594 29.058594 35.761719 28.371094 34.945312 C 27.679688 34.128906 27.347656 33.234375 27.347656 32.253906 C 27.347656 30.722656 28.097656 28.992188 29.632812 27.089844 C 31.039062 25.433594 32.460938 23.777344 33.871094 22.105469 C 35.402344 20.011719 36.15625 17.9375 36.15625 15.894531 C 36.15625 14.550781 35.753906 13.402344 34.945312 12.425781 C 34.085938 11.398438 33.019531 10.871094 31.742188 10.871094 C 29.792969 10.871094 28.339844 11.726562 27.367188 13.433594 C 28.660156 14.691406 29.304688 15.800781 29.304688 16.777344 C 29.304688 17.847656 28.957031 18.714844 28.234375 19.359375 C 27.527344 20.011719 26.652344 20.316406 25.609375 20.316406 C 24.617188 20.316406 23.726562 19.847656 22.96875 18.863281 C 22.265625 17.945312 21.914062 16.941406 21.914062 15.894531 C 21.914062 13.277344 23.191406 11.21875 25.746094 9.703125 C 27.863281 8.429688 30.300781 7.773438 33.019531 7.773438 Z M 30.738281 38.605469 C 31.796875 38.605469 32.703125 38.953125 33.449219 39.597656 C 34.25 40.277344 34.652344 41.152344 34.652344 42.230469 C 34.652344 43.402344 34.289062 44.347656 33.566406 45.101562 C 32.855469 45.851562 31.964844 46.230469 30.855469 46.230469 C 29.917969 46.230469 29.074219 45.867188 28.351562 45.136719 C 27.625 44.398438 27.261719 43.546875 27.261719 42.570312 C 27.261719 41.519531 27.597656 40.617188 28.253906 39.828125 C 28.921875 39.027344 29.746094 38.605469 30.738281 38.605469 Z M 1.453125 58.472656 L 1.453125 62.152344 L 23.039062 62.152344 C 23.039062 62.125 23.039062 62.105469 23.039062 62.082031 L 23.039062 59.003906 C 23.039062 58.824219 23.058594 58.644531 23.085938 58.472656 Z M 41.148438 58.472656 C 41.179688 58.644531 41.199219 58.824219 41.199219 59.003906 L 41.199219 62.082031 C 41.199219 62.105469 41.199219 62.125 41.199219 62.152344 L 62.78125 62.152344 L 62.78125 58.472656 Z M 41.148438 58.472656 "/></g></svg>
