<svg xmlns="http://www.w3.org/2000/svg" xmlns:xlink="http://www.w3.org/1999/xlink" width="64" height="64" viewBox="0 0 64 64" version="1.1"><defs><linearGradient id="linear0" x1="0%" x2="0%" y1="0%" y2="100%"><stop offset="0%" style="stop-color:#00b6c7; stop-opacity:1"/><stop offset="50%" style="stop-color:#ff0000; stop-opacity:1"/><stop offset="100%" style="stop-color:#6a00ff; stop-opacity:1"/></linearGradient></defs><g id="surface1"><path style=" stroke:none;fill-rule:nonzero;fill:url(#linear0);" d="M 32.1875 2.410156 C 30.949219 2.410156 29.953125 3.441406 29.953125 4.726562 L 29.953125 21.199219 C 27.019531 18.078125 22.996094 16.3125 18.792969 16.308594 C 10.164062 16.308594 3.167969 23.566406 3.167969 32.519531 L 3.167969 33.152344 C 1.789062 33.976562 0.9375 35.503906 0.9375 37.15625 C 0.9375 39.710938 2.9375 41.785156 5.402344 41.785156 C 7.867188 41.785156 9.863281 39.710938 9.863281 37.15625 C 9.863281 35.5 9.011719 33.972656 7.632812 33.148438 L 7.632812 32.519531 C 7.632812 26.125 12.628906 20.9375 18.792969 20.9375 C 24.957031 20.9375 29.953125 26.125 29.953125 32.519531 L 29.953125 60.316406 C 29.953125 61.597656 30.949219 62.636719 32.1875 62.636719 C 33.421875 62.636719 34.417969 61.597656 34.417969 60.316406 L 34.417969 43.84375 C 37.351562 46.96875 41.375 48.726562 45.574219 48.734375 C 54.203125 48.734375 61.203125 41.476562 61.203125 32.519531 L 61.203125 31.894531 C 62.582031 31.066406 63.433594 29.542969 63.433594 27.890625 C 63.433594 25.328125 61.433594 23.257812 58.96875 23.257812 C 56.503906 23.257812 54.507812 25.328125 54.507812 27.890625 C 54.507812 29.542969 55.359375 31.070312 56.734375 31.898438 L 56.734375 32.519531 C 56.734375 38.917969 51.738281 44.101562 45.574219 44.101562 C 39.417969 44.101562 34.417969 38.917969 34.417969 32.519531 L 34.417969 4.726562 C 34.417969 3.441406 33.421875 2.410156 32.1875 2.410156 Z M 32.1875 2.410156 "/></g></svg>
