<svg xmlns="http://www.w3.org/2000/svg" xmlns:xlink="http://www.w3.org/1999/xlink" width="64" height="64" viewBox="0 0 64 64" version="1.1"><defs><linearGradient id="linear0" x1="0%" x2="0%" y1="0%" y2="100%"><stop offset="0%" style="stop-color:#00b54e; stop-opacity:1"/><stop offset="50%" style="stop-color:#ffd000; stop-opacity:1"/><stop offset="100%" style="stop-color:#ff00bb; stop-opacity:1"/></linearGradient></defs><g id="surface1"><path style=" stroke:none;fill-rule:nonzero;fill:url(#linear0);" d="M 26.015625 25.289062 L 26.007812 25.289062 C 24.015625 25.289062 22.390625 23.730469 22.390625 21.8125 C 22.386719 19.886719 24.011719 18.324219 26.007812 18.324219 C 28.007812 18.324219 29.625 19.882812 29.625 21.800781 C 29.625 23.722656 28.007812 25.285156 26.015625 25.289062 Z M 26.015625 25.289062 "/><path style=" stroke:none;fill-rule:nonzero;fill:url(#linear0);" d="M 35.785156 22.734375 C 33.925781 22.734375 32.410156 21.277344 32.410156 19.492188 C 32.410156 17.691406 33.917969 16.238281 35.785156 16.238281 C 37.644531 16.238281 39.160156 17.691406 39.164062 19.476562 C 39.164062 21.273438 37.652344 22.734375 35.789062 22.734375 Z M 35.785156 22.734375 "/><path style=" stroke:none;fill-rule:nonzero;fill:url(#linear0);" d="M 33.003906 13.457031 C 33.003906 15.050781 31.65625 16.355469 29.988281 16.355469 C 28.324219 16.355469 26.96875 15.050781 26.96875 13.457031 C 26.96875 11.851562 28.324219 10.550781 29.988281 10.550781 C 31.65625 10.550781 33.003906 11.851562 33.003906 13.457031 Z M 33.003906 13.457031 "/><path style=" stroke:none;fill-rule:nonzero;fill:url(#linear0);" d="M 37.589844 8.582031 C 37.589844 10.050781 36.347656 11.246094 34.816406 11.246094 C 33.28125 11.246094 32.035156 10.050781 32.035156 8.582031 C 32.035156 7.105469 33.28125 5.902344 34.816406 5.902344 C 36.347656 5.902344 37.589844 7.105469 37.589844 8.582031 Z M 37.589844 8.582031 "/><path style=" stroke:none;fill-rule:nonzero;fill:url(#linear0);" d="M 31.316406 3.816406 C 31.316406 5.097656 30.234375 6.140625 28.902344 6.140625 C 27.574219 6.140625 26.492188 5.097656 26.492188 3.816406 C 26.492188 2.535156 27.574219 1.496094 28.902344 1.496094 C 30.234375 1.496094 31.316406 2.535156 31.316406 3.816406 Z M 31.316406 3.816406 "/><path style=" stroke:none;fill-rule:nonzero;fill:url(#linear0);" d="M 15.929688 28.425781 C 12.808594 32.320312 10.273438 36.699219 10.273438 42.007812 C 10.273438 53.507812 19.339844 62.996094 30.585938 62.996094 C 41.832031 62.996094 50.902344 53.507812 50.902344 42.007812 C 50.902344 36.699219 48.359375 32.457031 45.066406 28.425781 C 43.832031 27.179688 42.042969 27.363281 40.746094 28.160156 C 36.9375 30.054688 34.882812 30.8125 30.585938 30.792969 C 26.429688 30.777344 24.242188 30.125 20.441406 28.128906 C 19.136719 27.363281 17.167969 27.179688 15.929688 28.425781 Z M 18.640625 31.660156 C 22.582031 33.75 26.097656 34.820312 30.585938 34.820312 C 35.082031 34.820312 38.589844 33.75 42.53125 31.660156 C 44.6875 34.578125 46.71875 38.199219 46.71875 42.007812 C 46.71875 51.433594 39.496094 58.96875 30.585938 58.96875 C 21.679688 58.96875 14.160156 51.433594 14.160156 42.007812 C 14.160156 38.203125 16.484375 34.582031 18.640625 31.660156 Z M 18.640625 31.660156 "/></g></svg>
