<svg xmlns="http://www.w3.org/2000/svg" xmlns:xlink="http://www.w3.org/1999/xlink" width="64" height="64" viewBox="0 0 64 64" version="1.1"><defs><linearGradient id="linear0" x1="0%" x2="100%" y1="0%" y2="100%"><stop offset="0%" style="stop-color:#6a00ff; stop-opacity:1"/><stop offset="50%" style="stop-color:#e0dd02; stop-opacity:1"/><stop offset="100%" style="stop-color:#00b54e; stop-opacity:1"/></linearGradient></defs><g id="surface1"><use xlink:href="#surface16"/><path style=" stroke:none;fill-rule:nonzero;fill:url(#linear0);" d="M 14.125 0 C 11.839844 0 10 1.839844 10 4.125 L 10 51.871094 C 10 54.15625 11.839844 55.996094 14.125 55.996094 L 49.871094 55.996094 C 52.15625 55.996094 53.996094 54.15625 53.996094 51.871094 L 53.996094 4.125 C 53.996094 1.839844 52.15625 0 49.871094 0 Z M 26 8 L 37.996094 8 L 33.996094 12.25 L 33.996094 16 L 45.996094 16 L 45.996094 24.621094 L 38.621094 31.996094 L 33.996094 31.996094 L 33.996094 47.996094 L 29.996094 51.996094 L 29.996094 31.996094 L 27.375 31.996094 L 16.25 20.375 L 30 16.5 L 30 12.25 Z M 33.996094 20 L 33.996094 27.996094 L 36.996094 27.996094 L 41.996094 23 L 41.996094 20 Z M 29.996094 20.5 L 23.75 22.375 L 29 27.996094 L 29.996094 27.996094 Z M 29.996094 20.5 "/></g></svg>
