<svg xmlns="http://www.w3.org/2000/svg" xmlns:xlink="http://www.w3.org/1999/xlink" width="64" height="64" viewBox="0 0 64 64" version="1.1"><defs><linearGradient id="linear0" x1="0%" x2="0%" y1="0%" y2="100%"><stop offset="0%" style="stop-color:#ff0000; stop-opacity:1"/><stop offset="50%" style="stop-color:#ffd000; stop-opacity:1"/><stop offset="100%" style="stop-color:#0073ff; stop-opacity:1"/></linearGradient></defs><g id="surface1"><path style=" stroke:none;fill-rule:nonzero;fill:url(#linear0);" d="M 29.257812 50.015625 C 27.566406 43.480469 26.140625 38.078125 26.101562 38.011719 C 26.054688 37.945312 20.511719 36.546875 13.773438 34.90625 C 7.027344 33.261719 1.570312 31.890625 1.628906 31.855469 C 1.726562 31.796875 25.890625 25.851562 26.03125 25.851562 C 26.054688 25.851562 27.460938 20.453125 29.152344 13.851562 C 30.835938 7.25 32.242188 1.851562 32.28125 1.851562 C 32.3125 1.851562 33.714844 7.246094 35.40625 13.828125 L 38.464844 25.800781 L 41.992188 26.65625 C 43.933594 27.128906 49.25 28.40625 53.808594 29.507812 C 58.363281 30.609375 62.296875 31.542969 62.550781 31.589844 C 62.796875 31.632812 63 31.703125 63 31.753906 C 63 31.789062 61.109375 32.289062 58.796875 32.859375 C 46.359375 35.925781 38.566406 37.871094 38.507812 37.933594 C 38.488281 37.953125 37.128906 43.320312 35.484375 49.855469 C 33.839844 56.390625 32.457031 61.773438 32.421875 61.816406 C 32.371094 61.863281 30.949219 56.550781 29.257812 50.015625 M 33.925781 35.304688 C 36.804688 33.945312 36.875 29.925781 34.03125 28.507812 C 33.410156 28.195312 33.203125 28.160156 32.289062 28.160156 C 31.398438 28.160156 31.152344 28.203125 30.558594 28.492188 C 28.476562 29.484375 27.78125 32.054688 29.074219 33.96875 C 29.523438 34.640625 30.34375 35.257812 31.113281 35.5 C 31.855469 35.738281 33.203125 35.640625 33.925781 35.304688 M 5.453125 57.984375 C 5.550781 57.839844 8.367188 53.253906 11.707031 47.800781 C 15.050781 42.355469 17.867188 37.871094 17.957031 37.828125 C 18.097656 37.777344 24.519531 39.273438 24.632812 39.378906 C 24.675781 39.429688 26.34375 45.878906 26.320312 45.90625 C 26.304688 45.917969 21.5625 48.699219 15.78125 52.09375 C 9.523438 55.761719 5.34375 58.148438 5.445312 57.984375 M 48.757812 51.996094 C 43.089844 48.699219 38.414062 45.964844 38.378906 45.921875 C 38.320312 45.867188 39.859375 39.464844 39.960938 39.347656 C 39.984375 39.324219 41.488281 38.945312 43.300781 38.5 C 45.851562 37.875 46.640625 37.71875 46.742188 37.828125 C 46.8125 37.90625 49.589844 42.367188 52.898438 47.726562 C 56.210938 53.09375 59.003906 57.605469 59.101562 57.742188 C 59.195312 57.894531 59.230469 58.007812 59.175781 58.007812 C 59.117188 58 54.429688 55.300781 48.761719 51.996094 M 11.660156 15.886719 C 8.226562 10.296875 5.4375 5.703125 5.460938 5.6875 C 5.53125 5.621094 26.039062 17.679688 26.160156 17.851562 C 26.234375 17.960938 25.992188 19.109375 25.457031 21.214844 L 24.636719 24.410156 L 17.90625 26.054688 L 11.660156 15.886719 M 43.148438 25.179688 L 39.917969 24.394531 L 39.078125 21.097656 L 38.234375 17.800781 L 38.496094 17.636719 C 39.535156 16.976562 58.957031 5.542969 58.984375 5.574219 C 59.070312 5.65625 46.65625 25.914062 46.519531 25.929688 C 46.4375 25.945312 44.917969 25.609375 43.148438 25.179688 "/></g></svg>
