<svg xmlns="http://www.w3.org/2000/svg" xmlns:xlink="http://www.w3.org/1999/xlink" width="64" height="64" viewBox="0 0 64 64" version="1.1"><defs><linearGradient id="linear0" x1="0%" x2="100%" y1="0%" y2="100%"><stop offset="0%" style="stop-color:#ff0000; stop-opacity:1"/><stop offset="100%" style="stop-color:#6a00ff; stop-opacity:1"/></linearGradient></defs><g id="surface1"><path style=" stroke:none;fill-rule:nonzero;fill:url(#linear0);" d="M 18.539062 43.382812 L 18.539062 47.402344 L 0 47.402344 L 17.011719 28.652344 L 64 28.652344 L 49.429688 47.402344 L 43.988281 47.402344 L 43.988281 43.382812 L 47.457031 43.382812 L 55.789062 32.667969 L 18.792969 32.667969 L 9.066406 43.382812 Z M 18.539062 43.382812 "/><path style=" stroke:none;fill-rule:nonzero;fill:url(#linear0);" d="M 18.539062 16.597656 L 18.539062 42.046875 L 22.554688 42.046875 L 22.554688 26.0625 L 29.660156 42.046875 L 32.867188 42.046875 L 39.96875 26.0625 L 39.96875 42.046875 L 43.988281 42.046875 L 43.988281 16.597656 L 39.78125 16.597656 L 31.265625 35.757812 L 22.746094 16.597656 Z M 18.539062 16.597656 "/></g></svg>
