<svg xmlns="http://www.w3.org/2000/svg" xmlns:xlink="http://www.w3.org/1999/xlink" width="64" height="64" viewBox="0 0 64 64" version="1.1"><defs><linearGradient id="linear0" x1="0%" x2="0%" y1="0%" y2="100%"><stop offset="0%" style="stop-color:#00b54e; stop-opacity:1"/><stop offset="50%" style="stop-color:#ffd000; stop-opacity:1"/><stop offset="100%" style="stop-color:#ff00bb; stop-opacity:1"/></linearGradient></defs><g id="surface1"><path style=" stroke:none;fill-rule:nonzero;fill:url(#linear0);" d="M 3.953125 4.796875 L 3.953125 11.613281 L 11.074219 11.613281 L 11.074219 38.878906 L 3.953125 38.878906 L 3.953125 59.328125 L 46.683594 59.328125 L 46.683594 52.511719 L 32.441406 52.511719 L 32.441406 45.695312 L 53.804688 45.695312 L 53.804688 59.328125 L 60.925781 59.328125 L 60.925781 38.878906 L 25.320312 38.878906 L 25.320312 52.511719 L 11.074219 52.511719 L 11.074219 45.695312 L 18.199219 45.695312 L 18.199219 32.0625 L 32.441406 32.0625 L 32.441406 11.613281 L 53.804688 11.613281 L 53.804688 25.246094 L 46.683594 25.246094 L 46.683594 18.429688 L 39.5625 18.429688 L 39.5625 32.0625 L 60.925781 32.0625 L 60.925781 4.796875 L 25.320312 4.796875 L 25.320312 25.246094 L 18.199219 25.246094 L 18.199219 4.796875 Z M 3.953125 4.796875 "/></g></svg>
