<svg xmlns="http://www.w3.org/2000/svg" xmlns:xlink="http://www.w3.org/1999/xlink" width="64" height="64" viewBox="0 0 64 64" version="1.1"><defs><linearGradient id="linear0" x1="0%" x2="100%" y1="0%" y2="100%"><stop offset="0%" style="stop-color:#ae00ff; stop-opacity:1"/><stop offset="100%" style="stop-color:#0084ff; stop-opacity:1"/></linearGradient></defs><g id="surface1"><path style=" stroke:none;fill-rule:nonzero;fill:url(#linear0);" d="M 9.753906 0.875 C 9.589844 0.847656 9.425781 0.871094 9.265625 0.933594 C 6.175781 2.164062 14.507812 15.980469 13.90625 19.292969 C 11.792969 16.601562 10.460938 11.390625 9.175781 11.878906 C 6.421875 13.175781 11.492188 20.339844 10.476562 21.011719 C 8.84375 22.089844 3.09375 9.996094 0.878906 11.710938 C -0.480469 12.769531 3.703125 20.402344 13.316406 25.015625 C 10.164062 25.59375 6.945312 27.054688 4.925781 29.835938 C 11.503906 32.824219 14.921875 33.703125 19.554688 31.523438 C 19.765625 35.375 21.582031 39.53125 24.628906 42.773438 C 17.015625 56.929688 22.21875 62.203125 28.332031 60.894531 C 29.101562 62.476562 30.835938 63.503906 32.75 63.503906 C 34.648438 63.503906 36.367188 62.496094 37.144531 60.941406 C 42.640625 60.554688 46.730469 54.355469 39.902344 41.671875 C 42.058594 37.921875 43.53125 33.832031 43.632812 30.238281 C 48.1875 32.324219 51.601562 31.4375 58.105469 28.480469 C 56.390625 26.125 53.808594 24.722656 51.144531 24 C 60.203125 19.78125 64.164062 12.527344 62.90625 11.539062 C 60.894531 9.960938 55.671875 21.09375 54.1875 20.101562 C 53.261719 19.484375 57.871094 12.886719 55.371094 11.695312 C 54.117188 11.210938 52.8125 16.871094 50.613281 19.082031 C 50.582031 19.117188 50.550781 19.136719 50.515625 19.171875 C 50.628906 15.195312 58.160156 2.441406 55.203125 1.261719 C 52.601562 0.226562 50.019531 11.359375 48.535156 16.664062 C 47.992188 18.601562 47.132812 18.5625 47.132812 18.5625 C 47.417969 15.265625 47.238281 5.941406 44.652344 6.015625 C 42.664062 6.074219 44.488281 15.265625 45.300781 19.726562 L 41.605469 23.808594 C 39.785156 21.722656 36.660156 20.40625 31.734375 20.40625 C 27.617188 20.40625 24.679688 21.523438 22.699219 23.277344 L 19.179688 19.394531 C 19.984375 14.933594 21.808594 5.746094 19.820312 5.683594 C 17.242188 5.613281 17.054688 14.933594 17.347656 18.230469 C 17.347656 18.230469 16.480469 18.269531 15.941406 16.332031 C 14.542969 11.359375 12.191406 1.261719 9.761719 0.871094 Z M 9.753906 0.875 "/></g></svg>
