<svg xmlns="http://www.w3.org/2000/svg" xmlns:xlink="http://www.w3.org/1999/xlink" width="64" height="64" viewBox="0 0 64 64" version="1.1"><defs><linearGradient id="linear0" x1="0%" x2="0%" y1="0%" y2="100%"><stop offset="0%" style="stop-color:#00b54e; stop-opacity:1"/><stop offset="50%" style="stop-color:#ffd000; stop-opacity:1"/><stop offset="100%" style="stop-color:#ff00bb; stop-opacity:1"/></linearGradient></defs><g id="surface1"><path style=" stroke:none;fill-rule:nonzero;fill:url(#linear0);" d="M 32.515625 5.261719 C 15.441406 5.261719 5.375 15.257812 3.058594 17.601562 C 0.785156 19.796875 4.148438 23.171875 6.328125 20.902344 C 8.640625 18.570312 17.136719 9.96875 32.539062 9.96875 C 47.9375 9.96875 56.429688 18.582031 58.746094 20.902344 C 60.925781 23.1875 64.289062 19.804688 62.019531 17.601562 C 59.707031 15.269531 49.703125 5.261719 32.5625 5.261719 Z M 32.515625 14.625 C 24.835938 14.625 18.597656 20.925781 18.597656 28.675781 C 18.597656 36.421875 24.835938 42.722656 32.515625 42.722656 C 40.191406 42.722656 46.429688 36.421875 46.429688 28.675781 C 46.429688 20.925781 40.191406 14.625 32.515625 14.625 Z M 34.832031 16.96875 C 35.472656 16.96875 36.054688 17.230469 36.472656 17.652344 L 41.113281 22.335938 L 37.84375 25.636719 L 33.203125 20.953125 C 32.785156 20.53125 32.523438 19.945312 32.523438 19.300781 C 32.523438 18.007812 33.5625 16.957031 34.84375 16.957031 Z M 4.679688 35.699219 C 2.921875 35.789062 1.457031 38.109375 3.160156 39.746094 C 5.472656 42.078125 15.476562 52.085938 32.617188 52.085938 C 49.6875 52.085938 59.753906 42.089844 62.074219 39.746094 C 64.34375 37.550781 60.984375 34.175781 58.804688 36.445312 C 56.492188 38.777344 47.996094 47.378906 32.59375 47.378906 C 17.191406 47.378906 8.703125 38.765625 6.382812 36.445312 C 5.839844 35.875 5.222656 35.65625 4.632812 35.6875 Z M 4.679688 35.699219 "/></g></svg>
