<svg xmlns="http://www.w3.org/2000/svg" xmlns:xlink="http://www.w3.org/1999/xlink" width="64" height="64" viewBox="0 0 64 64" version="1.1"><defs><linearGradient id="linear0" x1="0%" x2="100%" y1="0%" y2="100%"><stop offset="0%" style="stop-color:#00b54e; stop-opacity:1"/><stop offset="100%" style="stop-color:#0073ff; stop-opacity:1"/></linearGradient></defs><g id="surface1"><path style=" stroke:none;fill-rule:nonzero;fill:url(#linear0);" d="M 7.082031 2.820312 C 4.820312 2.820312 2.984375 4.632812 2.984375 6.867188 C 2.984375 9.101562 4.820312 10.914062 7.082031 10.914062 C 9.34375 10.914062 11.175781 9.101562 11.175781 6.867188 C 11.175781 4.632812 9.34375 2.820312 7.082031 2.820312 Z M 56.234375 2.820312 C 53.972656 2.820312 52.140625 4.632812 52.140625 6.867188 C 52.140625 9.101562 53.972656 10.914062 56.234375 10.914062 C 58.496094 10.914062 60.332031 9.101562 60.332031 6.867188 C 60.332031 4.632812 58.496094 2.820312 56.234375 2.820312 Z M 7.082031 5.519531 C 7.835938 5.519531 8.445312 6.121094 8.445312 6.867188 C 8.445312 7.613281 7.835938 8.214844 7.082031 8.214844 C 6.328125 8.214844 5.714844 7.613281 5.714844 6.867188 C 5.714844 6.121094 6.328125 5.519531 7.082031 5.519531 Z M 56.234375 5.519531 C 56.988281 5.519531 57.601562 6.121094 57.601562 6.867188 C 57.601562 7.613281 56.988281 8.214844 56.234375 8.214844 C 55.480469 8.214844 54.871094 7.613281 54.871094 6.867188 C 54.871094 6.121094 55.480469 5.519531 56.234375 5.519531 Z M 12.828125 10.636719 L 10.894531 12.542969 L 25.914062 27.386719 L 27.847656 25.480469 Z M 50.492188 10.636719 L 35.472656 25.480469 L 37.402344 27.386719 L 52.421875 12.542969 Z M 5.71875 13.609375 L 5.71875 48.695312 L 8.449219 48.707031 L 8.449219 13.621094 Z M 54.871094 13.609375 L 54.871094 48.695312 L 57.601562 48.707031 L 57.601562 13.621094 Z M 31.660156 27.109375 C 29.398438 27.109375 27.566406 28.921875 27.566406 31.15625 C 27.566406 33.394531 29.398438 35.207031 31.660156 35.207031 C 33.921875 35.207031 35.757812 33.394531 35.757812 31.15625 C 35.757812 28.921875 33.921875 27.109375 31.660156 27.109375 Z M 31.660156 29.808594 C 32.414062 29.808594 33.027344 30.414062 33.027344 31.15625 C 33.027344 31.902344 32.414062 32.507812 31.660156 32.507812 C 30.90625 32.507812 30.296875 31.902344 30.296875 31.15625 C 30.296875 30.414062 30.90625 29.808594 31.660156 29.808594 Z M 25.917969 34.925781 L 10.898438 49.769531 L 12.828125 51.679688 L 27.847656 36.835938 Z M 37.40625 34.925781 L 35.472656 36.835938 L 50.492188 51.679688 L 52.425781 49.769531 Z M 7.082031 51.398438 C 4.820312 51.398438 2.984375 53.210938 2.984375 55.449219 C 2.984375 57.683594 4.820312 59.496094 7.082031 59.496094 C 9.34375 59.496094 11.179688 57.683594 11.179688 55.449219 C 11.179688 53.210938 9.34375 51.398438 7.082031 51.398438 Z M 56.238281 51.398438 C 53.972656 51.398438 52.140625 53.210938 52.140625 55.449219 C 52.140625 57.683594 53.972656 59.496094 56.238281 59.496094 C 58.5 59.496094 60.332031 57.683594 60.332031 55.449219 C 60.332031 53.210938 58.5 51.398438 56.238281 51.398438 Z M 7.082031 54.097656 C 7.835938 54.097656 8.449219 54.703125 8.449219 55.449219 C 8.449219 56.191406 7.835938 56.796875 7.082031 56.796875 C 6.328125 56.796875 5.714844 56.191406 5.714844 55.449219 C 5.714844 54.703125 6.328125 54.097656 7.082031 54.097656 Z M 56.238281 54.097656 C 56.992188 54.097656 57.601562 54.703125 57.601562 55.449219 C 57.601562 56.191406 56.992188 56.796875 56.238281 56.796875 C 55.484375 56.796875 54.871094 56.191406 54.871094 55.449219 C 54.871094 54.703125 55.484375 54.097656 56.238281 54.097656 Z M 56.238281 54.097656 "/></g></svg>
