<svg xmlns="http://www.w3.org/2000/svg" xmlns:xlink="http://www.w3.org/1999/xlink" width="64" height="64" viewBox="0 0 64 64" version="1.1"><defs><linearGradient id="linear0" x1="0%" x2="100%" y1="0%" y2="100%"><stop offset="0%" style="stop-color:#6a00ff; stop-opacity:1"/><stop offset="50%" style="stop-color:#e0dd02; stop-opacity:1"/><stop offset="100%" style="stop-color:#00b54e; stop-opacity:1"/></linearGradient></defs><g id="surface1"><path style=" stroke:none;fill-rule:nonzero;fill:url(#linear0);" d="M 44.789062 3.125 C 36.117188 3.125 29.101562 9.695312 29.101562 17.820312 C 29.101562 25.941406 36.117188 32.515625 44.789062 32.515625 C 46.648438 32.507812 48.507812 32.191406 50.234375 31.578125 C 51.289062 32.1875 52.496094 32.511719 53.75 32.515625 C 57.46875 32.515625 60.472656 29.699219 60.472656 26.214844 C 60.46875 25.058594 60.125 23.929688 59.480469 22.941406 C 60.132812 21.304688 60.472656 19.5625 60.472656 17.820312 C 60.472656 9.695312 53.460938 3.125 44.789062 3.125 Z M 44.789062 7.324219 C 50.972656 7.324219 55.992188 12.027344 55.992188 17.820312 C 55.988281 18.617188 55.886719 19.414062 55.6875 20.191406 C 55.058594 20.011719 54.40625 19.921875 53.75 19.921875 C 50.03125 19.921875 47.027344 22.734375 47.027344 26.21875 C 47.03125 26.832031 47.128906 27.445312 47.316406 28.035156 C 46.488281 28.21875 45.640625 28.3125 44.785156 28.316406 C 38.601562 28.316406 33.582031 23.617188 33.582031 17.820312 C 33.582031 12.027344 38.601562 7.324219 44.785156 7.324219 Z M 10.503906 22.019531 L 4.523438 47.207031 L 22.449219 47.207031 L 16.464844 22.019531 Z M 33.585938 40.910156 L 33.585938 61.902344 L 55.992188 61.902344 L 55.992188 40.910156 Z M 33.585938 40.910156 "/></g></svg>
