<svg xmlns="http://www.w3.org/2000/svg" xmlns:xlink="http://www.w3.org/1999/xlink" width="64" height="64" viewBox="0 0 64 64" version="1.1"><defs><linearGradient id="linear0" x1="0%" x2="100%" y1="0%" y2="100%"><stop offset="0%" style="stop-color:#ff0000; stop-opacity:1"/><stop offset="50%" style="stop-color:#ffd000; stop-opacity:1"/><stop offset="100%" style="stop-color:#ff00bb; stop-opacity:1"/></linearGradient></defs><g id="surface1"><path style=" stroke:none;fill-rule:nonzero;fill:url(#linear0);" d="M 18.9375 29.164062 L 18.9375 45.164062 L 6.136719 45.164062 C 11.703125 54.265625 21.601562 59.832031 32.269531 59.832031 C 42.933594 59.828125 52.824219 54.261719 58.386719 45.164062 L 45.605469 45.164062 L 45.605469 29.164062 L 32.269531 42.496094 Z M 18.9375 29.164062 "/><path style=" stroke:none;fill-rule:nonzero;fill:url(#linear0);" d="M 32.460938 3.992188 C 15.523438 3.992188 1.785156 17.722656 1.792969 34.660156 C 1.796875 37.832031 2.308594 40.980469 3.285156 43.992188 L 12.460938 43.992188 L 12.460938 18.660156 L 32.460938 38.660156 L 52.460938 18.660156 L 52.460938 43.992188 L 61.660156 43.992188 C 62.628906 40.976562 63.128906 37.828125 63.128906 34.660156 C 63.132812 17.722656 49.398438 3.992188 32.460938 3.992188 Z M 32.460938 3.992188 "/></g></svg>
