<svg xmlns="http://www.w3.org/2000/svg" xmlns:xlink="http://www.w3.org/1999/xlink" width="64" height="64" viewBox="0 0 64 64" version="1.1"><defs><linearGradient id="linear0" x1="0%" x2="100%" y1="0%" y2="100%"><stop offset="0%" style="stop-color:#ff0000; stop-opacity:1"/><stop offset="100%" style="stop-color:#6a00ff; stop-opacity:1"/></linearGradient></defs><g id="surface1"><path style=" stroke:none;fill-rule:nonzero;fill:url(#linear0);" d="M 2.605469 20.753906 C 4.902344 15.484375 9.699219 12.519531 13.328125 14.121094 C 16.949219 15.726562 18.03125 21.304688 15.742188 26.570312 C 13.457031 31.839844 12.757812 34.351562 5.867188 31.542969 C 2.199219 30.039062 0.320312 26.023438 2.605469 20.753906 Z M 2.605469 20.753906 "/><path style=" stroke:none;fill-rule:nonzero;fill:url(#linear0);" d="M 62.34375 20.972656 C 60.058594 15.707031 55.257812 12.734375 51.628906 14.339844 C 48.007812 15.953125 46.921875 21.523438 49.214844 26.789062 C 51.503906 32.054688 52.203125 34.566406 59.082031 31.757812 C 62.761719 30.261719 64.640625 26.238281 62.34375 20.972656 Z M 62.34375 20.972656 "/><path style=" stroke:none;fill-rule:nonzero;fill:url(#linear0);" d="M 32.042969 5.566406 C 19.703125 5.566406 9.691406 17.246094 9.691406 31.65625 C 9.707031 35.460938 12.304688 45.300781 13.691406 48.746094 L 51.019531 48.746094 C 52.402344 45.300781 54.378906 35.460938 54.390625 31.65625 C 54.390625 17.246094 44.386719 5.566406 32.042969 5.566406 Z M 37.730469 24.0625 C 38.660156 24.0625 39.410156 25.5 39.410156 27.269531 C 39.410156 29.046875 38.660156 30.484375 37.730469 30.484375 C 36.804688 30.484375 36.054688 29.046875 36.054688 27.269531 C 36.054688 25.5 36.804688 24.0625 37.730469 24.0625 Z M 25.667969 24.148438 C 26.566406 24.109375 27.351562 25.523438 27.421875 27.316406 C 27.492188 29.097656 26.820312 30.570312 25.917969 30.613281 C 25.023438 30.640625 24.230469 29.226562 24.160156 27.445312 C 24.089844 25.652344 24.769531 24.179688 25.667969 24.148438 Z M 31.933594 33.90625 C 34.074219 33.90625 35.820312 34.761719 35.820312 35.820312 C 35.820312 36.878906 34.085938 37.738281 31.933594 37.738281 C 29.796875 37.738281 28.058594 36.878906 28.058594 35.820312 C 28.058594 34.761719 29.796875 33.90625 31.933594 33.90625 Z M 31.933594 33.90625 "/><path style=" stroke:none;fill-rule:evenodd;fill:url(#linear0);" d="M 15 40.578125 C 13.921875 41.816406 12.9375 43.863281 13.257812 47.125 C 14.121094 55.894531 23.414062 59.597656 33.25 59.515625 C 41.519531 59.449219 50.949219 55.453125 51.070312 47.558594 C 51.128906 43.457031 50.402344 41.664062 49.4375 40.578125 Z M 18.335938 47.1875 L 46.316406 47.367188 C 38.859375 54.757812 23.710938 53.082031 18.335938 47.1875 Z M 18.335938 47.1875 "/></g></svg>
