<svg xmlns="http://www.w3.org/2000/svg" xmlns:xlink="http://www.w3.org/1999/xlink" width="64" height="64" viewBox="0 0 64 64" version="1.1"><defs><linearGradient id="linear0" x1="0%" x2="100%" y1="0%" y2="100%"><stop offset="0%" style="stop-color:#e5ff00; stop-opacity:1"/><stop offset="50%" style="stop-color:#0073ff; stop-opacity:1"/><stop offset="100%" style="stop-color:#ff0000; stop-opacity:1"/></linearGradient></defs><g id="surface1"><path style=" stroke:none;fill-rule:nonzero;fill:url(#linear0);" d="M 31.78125 56.601562 C 30.367188 56.601562 29.234375 57.285156 29.234375 58.125 L 29.234375 62.695312 L 31.78125 62.695312 L 31.78125 58.632812 L 34.324219 58.632812 L 34.324219 62.695312 L 36.871094 62.695312 L 36.871094 58.632812 L 39.417969 58.632812 L 39.417969 62.695312 L 41.964844 62.695312 L 41.964844 58.125 C 41.964844 57.285156 40.832031 56.601562 39.417969 56.601562 Z M 52.152344 56.601562 C 50.738281 56.601562 49.605469 57.285156 49.605469 58.125 L 49.605469 61.171875 C 49.605469 62.015625 50.738281 62.695312 52.152344 62.695312 L 59.792969 62.695312 C 61.203125 62.695312 62.339844 62.015625 62.339844 61.171875 L 62.339844 58.125 C 62.339844 57.285156 61.203125 56.601562 59.792969 56.601562 Z M 45.785156 58.632812 C 45.078125 58.632812 44.511719 59.085938 44.511719 59.648438 C 44.511719 60.214844 45.078125 60.664062 45.785156 60.664062 C 46.492188 60.664062 47.058594 60.214844 47.058594 59.648438 C 47.058594 59.085938 46.492188 58.632812 45.785156 58.632812 Z M 52.152344 58.632812 L 59.792969 58.632812 L 59.792969 60.664062 L 52.152344 60.664062 Z M 52.152344 58.632812 "/><path style=" stroke:none;fill-rule:nonzero;fill:url(#linear0);" d="M 1.21875 1.761719 L 1.21875 11.917969 C 1.21875 15.289062 4.632812 18.011719 8.859375 18.011719 L 44.511719 18.011719 C 48.742188 18.011719 52.152344 15.289062 52.152344 11.917969 L 52.152344 1.761719 Z M 1.21875 1.761719 "/><path style=" stroke:none;fill-rule:nonzero;fill:url(#linear0);" d="M 11.40625 9.886719 L 11.40625 11.917969 L 21.59375 11.917969 L 21.59375 9.886719 Z M 31.78125 9.886719 L 31.78125 11.917969 L 41.964844 11.917969 L 41.964844 9.886719 Z M 31.78125 9.886719 "/></g></svg>
