<svg xmlns="http://www.w3.org/2000/svg" xmlns:xlink="http://www.w3.org/1999/xlink" width="64" height="64" viewBox="0 0 64 64" version="1.1"><defs><linearGradient id="linear0" x1="0%" x2="0%" y1="0%" y2="100%"><stop offset="0%" style="stop-color:#00b54e; stop-opacity:1"/><stop offset="50%" style="stop-color:#0073ff; stop-opacity:1"/><stop offset="100%" style="stop-color:#ffd000; stop-opacity:1"/></linearGradient></defs><g id="surface1"><path style="fill-rule:evenodd;fill:url(#linear0);stroke-width:2.824;stroke-linecap:butt;stroke-linejoin:miter;stroke:url(#linear0);stroke-miterlimit:4;" d="M 338.059416 220.949563 C 336.677625 221.01511 335.225575 221.342842 333.515902 221.998308 C 320.424026 226.870601 331.127045 255.929569 331.970171 259.68757 C 332.743036 263.161537 326.138548 262.790107 324.873859 261.260687 C 322.086858 257.874116 312.929571 227.569764 302.109451 232.96643 C 286.956599 241.334538 301.196064 267.46576 298.174862 268.317865 C 292.5306 271.464099 292.905323 279.154894 288.38523 285.403664 C 280.937615 296.044053 225.314705 280.378429 207.304593 279.285987 C 194.142456 278.499428 181.565823 289.336457 180.371394 287.959979 C 164.328576 271.944774 130.181965 248.238774 94.864345 234.692488 C 80.367258 229.92944 51.092042 216.252061 68.938214 225.428577 C 75.402181 228.684055 81.093283 231.43701 94.981446 239.280747 C 117.136929 249.768193 177.748335 289.904527 174.001108 295.781867 C 162.689164 311.687828 155.38207 332.313141 159.972424 364.911622 C 160.81555 370.657869 142.969379 380.599094 144.234068 389.251238 C 145.334816 395.84959 164.188055 382.718433 166.24903 385.296597 C 167.53714 389.97225 156.201776 413.503459 160.74529 415.18582 C 164.117795 416.190867 193.627212 387.219295 195.313464 387.678121 C 243.933743 402.404244 307.144788 391.30503 308.386057 390.846204 C 308.292376 390.605867 353.891452 412.279924 357.872882 409.70176 C 367.873295 398.88658 338.902542 383.592386 343.703677 377.496558 C 345.834913 374.328475 378.997877 389.469726 380.613869 385.296597 C 383.002727 378.152023 365.250236 363.120016 362.556916 358.641002 C 360.238319 354.577117 359.769916 347.825823 365.718639 343.69639 C 371.690783 339.52326 432.676912 316.254237 430.124114 298.18524 C 425.721121 265.411969 352.743864 263.227084 351.596275 260.430431 C 351.057611 259.250593 354.242755 220.44704 338.106256 220.949563 Z M 414.034455 242.711016 C 412.816606 243.257237 407.94521 268.492656 410.287228 269.628796 C 412.418463 271.201913 416.02517 244.15304 414.081295 242.754713 C 414.057875 242.711016 414.081295 242.711016 414.034455 242.711016 Z M 432.044568 246.141285 C 429.280987 246.119436 414.573119 269.56325 417.969044 272.075867 C 420.07686 273.648984 433.145316 247.124483 432.255349 246.206831 C 432.185089 246.184982 432.114828 246.141285 432.044568 246.141285 Z M 432.044568 246.141285 " transform="matrix(0.16679,0,0,0.178785,-9.310703,-12.256412)"/><path style=" stroke:none;fill-rule:evenodd;fill:url(#linear0);" d="M 36.6875 5.476562 L 18.535156 14.179688 L 16.304688 15.253906 L 15.738281 15.523438 L 8.542969 25.195312 C 8.140625 25.722656 8.085938 26.421875 8.410156 26.953125 C 8.652344 27.34375 9.070312 27.589844 9.546875 27.617188 L 21.21875 28.355469 L 21.6875 28.132812 L 23.851562 27.09375 L 42.066406 18.355469 L 36.6875 5.476562 M 21.335938 20.667969 C 21.390625 20.785156 21.394531 20.917969 21.347656 21.035156 L 20.015625 24.316406 L 20.367188 25.152344 C 20.425781 25.296875 20.40625 25.457031 20.324219 25.582031 C 20.242188 25.707031 20.101562 25.769531 19.960938 25.757812 L 14.550781 25.152344 C 14.40625 25.136719 14.285156 25.042969 14.222656 24.902344 L 13.632812 23.492188 C 13.574219 23.351562 13.59375 23.1875 13.679688 23.0625 L 17.039062 18.238281 C 17.121094 18.113281 17.261719 18.046875 17.398438 18.0625 C 17.542969 18.082031 17.667969 18.175781 17.726562 18.3125 L 18.199219 19.449219 L 21.101562 20.460938 C 21.199219 20.496094 21.285156 20.570312 21.335938 20.667969 "/><path style=" stroke:none;fill-rule:evenodd;fill:url(#linear0);" d="M 47.273438 1.117188 C 46.785156 0.902344 46.308594 0.871094 45.890625 1.0625 L 45.871094 1.066406 L 43.054688 2.425781 L 48.4375 15.304688 L 51.210938 13.96875 L 51.253906 13.953125 C 51.257812 13.953125 51.265625 13.945312 51.269531 13.941406 C 52.589844 13.285156 52.726562 10.566406 51.585938 7.816406 L 50.363281 4.894531 C 49.570312 3 48.378906 1.601562 47.273438 1.117188 "/><path style=" stroke:none;fill-rule:evenodd;fill:url(#linear0);" d="M 41.503906 3.167969 L 46.878906 16.054688 L 43.902344 17.476562 L 38.527344 4.597656 Z M 41.503906 3.167969 "/></g></svg>
