<svg xmlns="http://www.w3.org/2000/svg" xmlns:xlink="http://www.w3.org/1999/xlink" width="64" height="64" viewBox="0 0 64 64" version="1.1"><defs><linearGradient id="linear0" x1="0%" x2="0%" y1="0%" y2="100%"><stop offset="0%" style="stop-color:#ffd000; stop-opacity:1"/><stop offset="50%" style="stop-color:#24dbdb; stop-opacity:1"/><stop offset="100%" style="stop-color:#0073ff; stop-opacity:1"/></linearGradient></defs><g id="surface1"><path style=" stroke:none;fill-rule:nonzero;fill:url(#linear0);" d="M 15.316406 48.742188 L 15.316406 58.335938 C 15.316406 60.988281 25.675781 63.136719 38.449219 63.136719 C 51.222656 63.136719 61.574219 60.988281 61.574219 58.335938 L 61.574219 48.742188 Z M 15.316406 48.742188 "/><path style=" stroke:none;fill-rule:nonzero;fill:url(#linear0);" d="M 61.121094 14.816406 L 61.121094 6.371094 C 61.121094 4.039062 50.878906 2.148438 38.230469 2.148438 C 25.59375 2.148438 15.34375 4.039062 15.34375 6.371094 L 15.34375 14.816406 Z M 61.121094 14.816406 "/><path style=" stroke:none;fill-rule:nonzero;fill:url(#linear0);" d="M 12.15625 19.109375 L 0.667969 44.757812 L 9.859375 44.757812 L 12.15625 38.34375 L 21.339844 38.34375 L 23.636719 44.757812 L 32.820312 44.757812 L 21.339844 19.109375 Z M 16.746094 25.523438 L 19.042969 31.9375 L 14.449219 31.9375 Z M 16.746094 25.523438 "/></g></svg>
