<svg xmlns="http://www.w3.org/2000/svg" xmlns:xlink="http://www.w3.org/1999/xlink" width="64" height="64" viewBox="0 0 64 64" version="1.1"><defs><linearGradient id="linear0" x1="0%" x2="0%" y1="0%" y2="100%"><stop offset="0%" style="stop-color:#24dbdb; stop-opacity:1"/><stop offset="100%" style="stop-color:#174475; stop-opacity:1"/></linearGradient></defs><g id="surface1"><path style=" stroke:none;fill-rule:nonzero;fill:url(#linear0);" d="M 20.648438 8.589844 C 18.625 8.589844 17.527344 9.691406 16.21875 11.253906 L 2.933594 27.234375 C 1.640625 28.792969 0.722656 30.164062 0.722656 32.558594 C 0.722656 34.957031 1.640625 36.316406 2.933594 37.886719 L 16.21875 53.867188 C 17.519531 55.425781 18.4375 56.527344 20.648438 56.527344 C 22.863281 56.527344 23.769531 55.425781 25.078125 53.867188 L 31.71875 45.875 L 38.363281 53.867188 C 39.65625 55.425781 40.574219 56.527344 42.792969 56.527344 C 45.003906 56.527344 45.914062 55.425781 47.21875 53.867188 L 60.5 37.886719 C 61.800781 36.324219 62.71875 35.222656 62.71875 32.558594 C 62.71875 29.894531 61.800781 28.804688 60.5 27.234375 L 47.21875 11.253906 C 45.921875 9.691406 44.808594 8.589844 42.792969 8.589844 C 40.777344 8.589844 39.671875 9.691406 38.363281 11.253906 L 31.71875 19.242188 L 25.078125 11.253906 C 23.777344 9.691406 22.664062 8.589844 20.648438 8.589844 Z M 20.648438 8.589844 "/></g></svg>
