<svg xmlns="http://www.w3.org/2000/svg" xmlns:xlink="http://www.w3.org/1999/xlink" width="64" height="64" viewBox="0 0 64 64" version="1.1"><defs><linearGradient id="linear0" x1="0%" x2="0%" y1="0%" y2="100%"><stop offset="0%" style="stop-color:#00b6c7; stop-opacity:1"/><stop offset="50%" style="stop-color:#ff0000; stop-opacity:1"/><stop offset="100%" style="stop-color:#6a00ff; stop-opacity:1"/></linearGradient></defs><g id="surface1"><path style=" stroke:none;fill-rule:nonzero;fill:url(#linear0);" d="M 4.523438 4.191406 C 3.25 4.191406 2.226562 5.332031 2.226562 6.746094 L 2.226562 57.902344 C 2.226562 59.316406 3.25 60.457031 4.523438 60.457031 L 22.914062 60.457031 C 26.730469 60.457031 29.808594 57.03125 29.808594 52.785156 L 29.808594 39.996094 L 28.660156 39.996094 C 28.023438 39.996094 27.511719 39.425781 27.511719 38.71875 C 27.511719 38.007812 28.023438 37.4375 28.660156 37.4375 L 29.808594 37.4375 C 32.339844 37.4375 34.40625 35.148438 34.40625 32.324219 C 34.40625 29.496094 32.351562 27.207031 29.808594 27.207031 L 28.660156 27.207031 C 28.023438 27.207031 27.511719 26.636719 27.511719 25.929688 C 27.511719 25.222656 28.023438 24.652344 28.660156 24.652344 L 29.808594 24.652344 L 29.808594 11.863281 C 29.808594 7.617188 26.730469 4.191406 22.914062 4.191406 Z M 41.304688 4.191406 C 37.488281 4.191406 34.40625 7.617188 34.40625 11.863281 L 34.40625 26.621094 C 35.257812 27.46875 35.921875 28.542969 36.308594 29.765625 L 39 29.765625 L 39 19.535156 C 39 18.117188 40.023438 16.976562 41.296875 16.976562 C 42.570312 16.976562 43.597656 18.117188 43.597656 19.535156 L 43.597656 45.113281 C 43.597656 46.527344 42.570312 47.667969 41.296875 47.667969 C 40.023438 47.667969 39 46.527344 39 45.113281 L 39 34.882812 L 36.308594 34.882812 C 35.921875 36.105469 35.253906 37.179688 34.40625 38.027344 L 34.40625 52.785156 C 34.40625 57.03125 37.488281 60.457031 41.304688 60.457031 L 59.691406 60.457031 C 60.964844 60.457031 61.992188 59.316406 61.992188 57.902344 L 61.992188 6.746094 C 61.992188 5.332031 60.964844 4.191406 59.691406 4.191406 Z M 16.019531 9.304688 C 17.292969 9.304688 18.316406 10.445312 18.316406 11.863281 L 18.316406 52.785156 C 18.316406 54.203125 17.292969 55.34375 16.019531 55.34375 C 14.746094 55.34375 13.71875 54.203125 13.71875 52.785156 L 13.71875 11.863281 C 13.71875 10.445312 14.746094 9.304688 16.019531 9.304688 Z M 48.199219 9.304688 C 49.472656 9.304688 50.496094 10.445312 50.496094 11.863281 L 50.496094 52.785156 C 50.496094 54.203125 49.472656 55.34375 48.199219 55.34375 C 46.925781 55.34375 45.902344 54.203125 45.902344 52.785156 L 45.902344 11.863281 C 45.902344 10.445312 46.925781 9.304688 48.199219 9.304688 Z M 9.121094 16.976562 C 10.394531 16.976562 11.421875 18.117188 11.421875 19.535156 L 11.421875 45.113281 C 11.421875 46.527344 10.394531 47.667969 9.121094 47.667969 C 7.847656 47.667969 6.824219 46.527344 6.824219 45.113281 L 6.824219 19.535156 C 6.824219 18.117188 7.847656 16.976562 9.121094 16.976562 Z M 22.914062 16.976562 C 24.1875 16.976562 25.210938 18.117188 25.210938 19.535156 L 25.210938 29.765625 L 29.808594 29.765625 C 31.082031 29.765625 32.109375 30.90625 32.109375 32.324219 C 32.109375 33.742188 31.082031 34.882812 29.808594 34.882812 L 25.210938 34.882812 L 25.210938 45.113281 C 25.210938 46.527344 24.1875 47.667969 22.914062 47.667969 C 21.640625 47.667969 20.613281 46.527344 20.613281 45.113281 L 20.613281 19.535156 C 20.613281 18.117188 21.640625 16.976562 22.914062 16.976562 Z M 55.09375 16.976562 C 56.367188 16.976562 57.394531 18.117188 57.394531 19.535156 L 57.394531 45.113281 C 57.394531 46.527344 56.367188 47.667969 55.09375 47.667969 C 53.820312 47.667969 52.796875 46.527344 52.796875 45.113281 L 52.796875 19.535156 C 52.796875 18.117188 53.820312 16.976562 55.09375 16.976562 Z M 55.09375 16.976562 "/></g></svg>
