<svg xmlns="http://www.w3.org/2000/svg" xmlns:xlink="http://www.w3.org/1999/xlink" width="64" height="64" viewBox="0 0 64 64" version="1.1"><defs><linearGradient id="linear0" x1="0%" x2="100%" y1="0%" y2="100%"><stop offset="0%" style="stop-color:#00b54e; stop-opacity:1"/><stop offset="100%" style="stop-color:#0073ff; stop-opacity:1"/></linearGradient></defs><g id="surface1"><path style=" stroke:none;fill-rule:nonzero;fill:url(#linear0);" d="M 10.710938 6.078125 C 5.253906 6.078125 0.859375 11.113281 0.859375 17.367188 L 0.859375 35.433594 C 0.859375 41.695312 5.253906 46.726562 10.710938 46.726562 L 34.359375 46.726562 L 34.359375 60.273438 L 44.214844 46.726562 L 54.070312 46.726562 C 59.53125 46.726562 63.917969 41.695312 63.917969 35.433594 L 63.917969 17.367188 C 63.917969 11.113281 59.53125 6.078125 54.070312 6.078125 M 44.953125 10.59375 C 46.691406 10.59375 47.128906 11.589844 47.664062 17.296875 C 48.128906 22.292969 48.945312 27.863281 49.324219 28.308594 C 49.609375 28.632812 49.777344 28.632812 50.003906 28.308594 C 50.441406 27.671875 52.867188 20.589844 53.820312 17.15625 C 54.808594 13.621094 55.785156 12.03125 57.457031 11.160156 C 58.796875 10.460938 59.589844 10.453125 60.042969 11.089844 C 60.519531 11.75 59.613281 14.917969 57.582031 20.191406 C 53.242188 31.40625 48.757812 38.136719 43.542969 41.144531 C 41.613281 42.253906 39.65625 42.566406 39.65625 41.78125 C 39.65625 40.785156 40.542969 38.519531 41.269531 37.679688 C 41.699219 37.175781 42.703125 36.316406 43.609375 35.777344 C 44.496094 35.234375 45.300781 34.671875 45.394531 34.503906 C 45.488281 34.335938 45.015625 33.015625 44.277344 31.53125 C 42.785156 28.53125 41.8125 26.179688 40.953125 22.996094 C 40.28125 20.578125 40.136719 16.195312 40.644531 14.109375 C 41.164062 11.976562 42.867188 10.574219 44.960938 10.574219 M 23.878906 10.722656 C 24.683594 10.597656 25.386719 10.953125 25.976562 11.710938 C 27.171875 13.257812 27.179688 14.207031 26.105469 18.070312 C 25.5625 19.929688 25.117188 21.6875 25.117188 21.882812 C 25.117188 22.765625 26.078125 21.949219 29.308594 18.277344 C 33.078125 13.984375 33.875 13.460938 35.34375 14.324219 C 36.765625 15.167969 36.8125 16.277344 36.140625 23.214844 C 35.566406 29.203125 35.554688 29.300781 36.019531 32.394531 C 36.632812 36.578125 36.65625 36.609375 35.886719 37.265625 C 34.390625 38.511719 32.355469 38.226562 30.835938 36.550781 C 29.058594 34.601562 28.894531 33.859375 28.875 24.917969 C 28.875 24.167969 27.835938 25.15625 24.617188 28.871094 C 22.621094 31.160156 20.628906 33.214844 20.242188 33.445312 C 19.113281 34.140625 18.050781 33.984375 17.09375 33.023438 C 15.855469 31.746094 15.761719 30.242188 16.796875 26.601562 C 17.242188 24.992188 17.601562 23.511719 17.535156 23.425781 C 17.25 23.09375 16.371094 24.035156 13.101562 28.152344 C 9.382812 32.816406 8.589844 33.585938 7.191406 33.585938 C 5.410156 33.585938 4.292969 31.242188 4.664062 28.222656 C 5.035156 25.066406 7.96875 16.261719 9.589844 13.332031 C 10.914062 10.925781 13.609375 10.148438 14.824219 11.851562 C 15.472656 12.761719 15.25 14.246094 14.023438 18.277344 C 12.871094 22.109375 13.125 22.464844 15.203125 19.753906 C 16.027344 18.671875 17.675781 16.597656 18.78125 15.167969 C 20.878906 12.445312 22.527344 10.945312 23.894531 10.722656 M 23.886719 10.722656 "/></g></svg>
