<svg xmlns="http://www.w3.org/2000/svg" xmlns:xlink="http://www.w3.org/1999/xlink" width="64" height="64" viewBox="0 0 64 64" version="1.1"><defs><linearGradient id="linear0" x1="0%" x2="100%" y1="0%" y2="100%"><stop offset="0%" style="stop-color:#ff0000; stop-opacity:1"/><stop offset="100%" style="stop-color:#6a00ff; stop-opacity:1"/></linearGradient></defs><g id="surface1"><path style=" stroke:none;fill-rule:nonzero;fill:url(#linear0);" d="M 6.015625 17.894531 C 5.71875 17.894531 5.449219 18.457031 5.449219 19.117188 L 5.449219 27.582031 L 1.488281 27.582031 C 1.175781 27.582031 0.925781 28.125 0.925781 28.804688 L 0.925781 40.894531 C 0.925781 41.574219 1.175781 42.117188 1.488281 42.117188 L 62.578125 42.117188 C 62.890625 42.117188 63.144531 41.574219 63.144531 40.894531 L 63.144531 28.804688 C 63.144531 28.125 62.890625 27.582031 62.578125 27.582031 L 26.941406 27.582031 L 26.941406 19.117188 C 26.949219 18.453125 26.664062 17.894531 26.378906 17.894531 Z M 6.015625 17.894531 "/></g></svg>
