<svg xmlns="http://www.w3.org/2000/svg" xmlns:xlink="http://www.w3.org/1999/xlink" width="64" height="64" viewBox="0 0 64 64" version="1.1"><defs><linearGradient id="linear0" x1="0%" x2="100%" y1="0%" y2="100%"><stop offset="0%" style="stop-color:#e5ff00; stop-opacity:1"/><stop offset="50%" style="stop-color:#0073ff; stop-opacity:1"/><stop offset="100%" style="stop-color:#ff0000; stop-opacity:1"/></linearGradient></defs><g id="surface1"><path style=" stroke:none;fill-rule:nonzero;fill:url(#linear0);" d="M 7.90625 2.222656 C 4.523438 2.222656 1.761719 5.410156 1.761719 9.3125 L 1.761719 53.207031 C 1.761719 58.742188 5.667969 63.242188 10.472656 63.242188 L 58.574219 63.242188 C 59.023438 63.242188 59.457031 63.148438 59.855469 62.984375 C 60.761719 62.917969 61.457031 62.207031 61.871094 61.410156 C 62.136719 60.886719 62.320312 60.296875 62.421875 59.65625 C 62.429688 59.605469 62.4375 59.550781 62.445312 59.492188 C 62.457031 59.394531 62.476562 59.296875 62.484375 59.195312 C 62.5 59.046875 62.507812 58.894531 62.511719 58.75 C 62.511719 58.730469 62.511719 58.714844 62.511719 58.699219 C 62.515625 58.617188 62.519531 58.539062 62.519531 58.453125 L 62.519531 25.144531 L 62.511719 25.144531 L 62.511719 11.863281 C 62.511719 9.4375 60.824219 7.4375 58.734375 7.335938 C 57.988281 4.390625 55.625 2.222656 52.835938 2.222656 Z M 7.90625 4.890625 L 52.835938 4.890625 C 54.980469 4.890625 56.667969 6.839844 56.667969 9.3125 L 56.667969 53.207031 L 56.679688 53.207031 L 56.679688 58.453125 C 56.679688 59.214844 56.789062 59.929688 57 60.574219 L 10.472656 60.574219 C 6.910156 60.574219 4.074219 57.3125 4.074219 53.207031 L 4.074219 9.3125 C 4.074219 6.839844 5.765625 4.890625 7.90625 4.890625 Z M 9.589844 9.261719 C 8.667969 9.261719 7.925781 10.695312 7.925781 12.46875 L 7.925781 25.898438 C 7.925781 27.671875 8.667969 29.105469 9.589844 29.105469 L 23.765625 29.105469 C 24.691406 29.105469 25.429688 27.671875 25.429688 25.898438 L 25.429688 12.46875 C 25.429688 10.695312 24.691406 9.261719 23.765625 9.261719 Z M 33.769531 9.261719 C 32.84375 9.261719 32.101562 10.152344 32.101562 11.253906 C 32.101562 12.359375 32.84375 13.242188 33.769531 13.242188 L 51.390625 13.242188 C 52.3125 13.242188 53.054688 12.359375 53.054688 11.253906 C 53.054688 10.152344 52.3125 9.261719 51.390625 9.261719 Z M 58.980469 10.050781 C 59.691406 10.253906 60.199219 10.96875 60.199219 11.863281 L 60.199219 58.679688 C 60.199219 58.699219 60.199219 58.714844 60.199219 58.738281 C 60.191406 58.832031 60.183594 58.925781 60.167969 59.011719 C 60.160156 59.058594 60.15625 59.105469 60.148438 59.152344 C 60.050781 59.628906 59.808594 60.023438 59.460938 60.273438 C 59.429688 60.238281 59.378906 60.160156 59.320312 60.046875 C 59.148438 59.71875 58.992188 59.132812 58.992188 58.453125 L 58.992188 25.144531 L 58.980469 25.144531 Z M 33.769531 17.195312 C 32.84375 17.195312 32.101562 18.082031 32.101562 19.179688 C 32.101562 20.285156 32.84375 21.175781 33.769531 21.175781 L 51.390625 21.175781 C 52.3125 21.175781 53.054688 20.285156 53.054688 19.179688 C 53.054688 18.082031 52.3125 17.195312 51.390625 17.195312 Z M 33.769531 25.125 C 32.84375 25.125 32.101562 26.007812 32.101562 27.113281 C 32.101562 28.210938 32.84375 29.105469 33.769531 29.105469 L 51.390625 29.105469 C 52.3125 29.105469 53.054688 28.210938 53.054688 27.113281 C 53.054688 26.007812 52.3125 25.125 51.390625 25.125 Z M 9.621094 35.378906 C 8.683594 35.378906 7.925781 36.265625 7.925781 37.363281 C 7.925781 38.472656 8.683594 39.363281 9.621094 39.363281 L 51.359375 39.363281 C 52.296875 39.363281 53.054688 38.472656 53.054688 37.363281 C 53.054688 36.265625 52.296875 35.378906 51.359375 35.378906 Z M 9.65625 44.066406 C 8.699219 44.066406 7.925781 44.953125 7.925781 46.058594 C 7.925781 47.164062 8.699219 48.050781 9.65625 48.050781 L 23.703125 48.050781 C 24.660156 48.050781 25.429688 47.164062 25.429688 46.058594 C 25.429688 44.953125 24.660156 44.066406 23.703125 44.066406 Z M 33.769531 44.066406 C 32.84375 44.066406 32.101562 44.953125 32.101562 46.058594 C 32.101562 47.164062 32.84375 48.050781 33.769531 48.050781 L 51.390625 48.050781 C 52.3125 48.050781 53.054688 47.164062 53.054688 46.058594 C 53.054688 44.953125 52.3125 44.066406 51.390625 44.066406 Z M 9.65625 52.757812 C 8.699219 52.757812 7.925781 53.648438 7.925781 54.746094 C 7.925781 55.851562 8.699219 56.738281 9.65625 56.738281 L 23.703125 56.738281 C 24.660156 56.738281 25.429688 55.851562 25.429688 54.746094 C 25.429688 53.648438 24.660156 52.757812 23.703125 52.757812 Z M 33.769531 52.757812 C 32.84375 52.757812 32.101562 53.648438 32.101562 54.746094 C 32.101562 55.851562 32.84375 56.738281 33.769531 56.738281 L 51.390625 56.738281 C 52.3125 56.738281 53.054688 55.851562 53.054688 54.746094 C 53.054688 53.648438 52.3125 52.757812 51.390625 52.757812 Z M 33.769531 52.757812 "/></g></svg>
