<svg xmlns="http://www.w3.org/2000/svg" xmlns:xlink="http://www.w3.org/1999/xlink" width="64" height="64" viewBox="0 0 64 64" version="1.1"><defs><linearGradient id="linear0" x1="100%" x2="0%" y1="100%" y2="0%"><stop offset="0%" style="stop-color:#00b54e; stop-opacity:1"/><stop offset="100%" style="stop-color:#ff0000; stop-opacity:1"/></linearGradient></defs><g id="surface1"><path style=" stroke:none;fill-rule:nonzero;fill:url(#linear0);" d="M 12.300781 6.492188 C 10.5625 7.90625 9.402344 11.660156 9.402344 15.867188 C 9.402344 16.558594 9.4375 17.242188 9.496094 17.917969 C 9.316406 18.046875 9.132812 18.175781 8.953125 18.308594 C 7.824219 17.445312 6.449219 16.980469 5.039062 16.976562 C 4.4375 16.976562 3.84375 17.054688 3.265625 17.222656 C 4.136719 18.335938 4.71875 19.722656 4.933594 21.222656 C 3.621094 22.3125 2.324219 23.484375 1.054688 24.726562 C 3.894531 26.621094 6.832031 28.242188 9.839844 29.59375 C 9.550781 30.496094 9.402344 31.484375 9.402344 32.484375 C 9.402344 34.886719 10.257812 37.105469 11.632812 38.28125 C 11.988281 34.96875 14.304688 32.488281 17.042969 32.484375 C 17.042969 32.484375 18.882812 32.882812 19.480469 33.054688 C 19.015625 33.472656 18.746094 34.074219 18.746094 34.699219 C 18.746094 35.925781 19.734375 36.917969 20.957031 36.917969 C 22.179688 36.917969 23.171875 35.925781 23.171875 34.699219 C 23.171875 34.378906 23.097656 34.0625 22.960938 33.769531 C 25.230469 34.199219 27.515625 34.472656 29.804688 34.59375 L 29.804688 36.917969 C 29.804688 38.140625 30.792969 39.132812 32.019531 39.132812 C 33.238281 39.132812 34.226562 38.140625 34.226562 36.917969 L 34.226562 34.546875 C 36.515625 34.445312 38.796875 34.1875 41.066406 33.777344 C 40.933594 34.066406 40.863281 34.382812 40.863281 34.699219 C 40.863281 35.925781 41.855469 36.917969 43.078125 36.917969 C 44.296875 36.917969 45.285156 35.925781 45.285156 34.699219 C 45.285156 34.074219 45.015625 33.472656 44.550781 33.054688 C 45.238281 32.765625 46.988281 32.484375 46.988281 32.484375 C 49.730469 32.488281 52.046875 34.96875 52.398438 38.28125 C 53.777344 37.105469 54.628906 34.890625 54.632812 32.488281 C 54.632812 31.492188 54.488281 30.511719 54.203125 29.613281 C 57.210938 28.261719 60.140625 26.628906 62.984375 24.730469 C 61.699219 23.53125 60.398438 22.40625 59.078125 21.363281 C 59.28125 19.816406 59.867188 18.367188 60.773438 17.222656 C 60.191406 17.054688 59.601562 16.976562 59 16.976562 C 57.597656 16.980469 56.238281 17.4375 55.113281 18.289062 C 54.917969 18.160156 54.726562 18.039062 54.535156 17.917969 C 54.597656 17.242188 54.628906 16.558594 54.632812 15.867188 C 54.628906 11.660156 53.472656 7.90625 51.738281 6.492188 C 52.203125 7.320312 52.449219 8.261719 52.449219 9.21875 C 52.449219 11.613281 50.933594 13.734375 48.691406 14.484375 C 43.265625 11.789062 37.6875 10.394531 32.089844 10.328125 C 26.464844 10.386719 20.863281 11.792969 15.40625 14.503906 C 13.132812 13.78125 11.582031 11.640625 11.582031 9.21875 C 11.582031 8.261719 11.832031 7.320312 12.296875 6.492188 Z M 27.855469 14.757812 L 36.183594 14.757812 C 36.351562 15.46875 36.4375 16.21875 36.441406 16.976562 C 36.441406 20.644531 34.460938 23.625 32.019531 23.625 C 29.574219 23.625 27.59375 20.644531 27.59375 16.976562 C 27.597656 16.21875 27.683594 15.46875 27.855469 14.757812 Z M 40.632812 15.023438 C 41.570312 15.359375 42.503906 15.746094 43.429688 16.171875 C 43.921875 17.140625 44.171875 18.160156 44.179688 19.1875 C 44.179688 24.085938 38.738281 28.054688 32.019531 28.054688 C 25.300781 28.054688 19.851562 24.085938 19.851562 19.1875 C 19.859375 18.195312 20.097656 17.207031 20.550781 16.273438 C 21.492188 15.84375 22.4375 15.460938 23.386719 15.125 C 23.25 15.742188 23.175781 16.371094 23.171875 17.003906 C 23.171875 21.882812 27.132812 25.835938 32.019531 25.835938 C 36.90625 25.835938 40.867188 21.882812 40.867188 17.003906 C 40.863281 16.335938 40.785156 15.675781 40.632812 15.023438 Z M 44.960938 16.796875 C 48.902344 18.632812 52.722656 21.3125 56.347656 24.777344 C 55.753906 25.148438 55.152344 25.503906 54.550781 25.835938 L 49.714844 25.835938 L 48.0625 29.144531 C 42.890625 31.3125 37.5 32.4375 32.074219 32.484375 C 26.632812 32.480469 21.230469 31.390625 16.027344 29.25 L 14.324219 25.835938 L 9.40625 25.835938 C 8.832031 25.496094 8.253906 25.148438 7.6875 24.777344 C 11.308594 21.351562 15.121094 18.707031 19.042969 16.894531 C 18.851562 17.648438 18.753906 18.417969 18.75 19.1875 C 18.75 25.308594 24.6875 30.269531 32.019531 30.269531 C 39.347656 30.269531 45.289062 25.308594 45.289062 19.1875 C 45.285156 18.386719 45.175781 17.582031 44.960938 16.796875 Z M 22.066406 39.132812 C 22.066406 39.132812 20.960938 46.277344 20.960938 46.886719 L 20.960938 49.105469 C 20.960938 49.714844 21.453125 50.214844 22.066406 50.214844 C 22.675781 50.214844 23.171875 49.714844 23.171875 49.105469 L 23.171875 46.886719 C 23.171875 46.277344 22.066406 39.132812 22.066406 39.132812 Z M 41.972656 39.132812 C 41.972656 39.132812 40.867188 46.277344 40.867188 46.886719 L 40.867188 49.105469 C 40.867188 49.714844 41.363281 50.214844 41.972656 50.214844 C 42.582031 50.214844 43.078125 49.714844 43.078125 49.105469 L 43.078125 46.886719 C 43.078125 46.277344 41.972656 39.132812 41.972656 39.132812 Z M 32.019531 41.347656 C 32.019531 41.347656 29.808594 49.105469 29.808594 53.535156 L 29.808594 54.644531 C 29.808594 55.867188 30.796875 56.859375 32.019531 56.859375 C 33.242188 56.859375 34.234375 55.867188 34.234375 54.644531 L 34.234375 53.535156 C 34.234375 49.105469 32.019531 41.347656 32.019531 41.347656 Z M 32.019531 41.347656 "/></g></svg>
