<svg xmlns="http://www.w3.org/2000/svg" xmlns:xlink="http://www.w3.org/1999/xlink" width="64" height="64" viewBox="0 0 64 64" version="1.1"><defs><linearGradient id="linear0" x1="0%" x2="0%" y1="0%" y2="100%"><stop offset="0%" style="stop-color:#ff0000; stop-opacity:1"/><stop offset="50%" style="stop-color:#ffd000; stop-opacity:1"/><stop offset="100%" style="stop-color:#0073ff; stop-opacity:1"/></linearGradient></defs><g id="surface1"><path style=" stroke:none;fill-rule:nonzero;fill:url(#linear0);" d="M 4.425781 2.0625 C 3.152344 2.0625 1.890625 3.347656 1.890625 4.613281 L 1.890625 60.660156 C 1.890625 61.9375 3.144531 63.207031 4.425781 63.207031 C 5.683594 63.207031 6.234375 62.65625 6.953125 61.9375 L 32.25 36.457031 L 57.554688 61.9375 C 58.265625 62.65625 58.8125 63.207031 60.082031 63.207031 C 61.34375 63.207031 62.609375 61.933594 62.609375 60.660156 L 62.609375 4.613281 C 62.609375 3.335938 61.359375 2.0625 60.082031 2.0625 C 58.828125 2.0625 58.261719 2.621094 57.554688 3.339844 L 32.25 28.8125 L 6.953125 3.339844 C 6.234375 2.613281 5.695312 2.0625 4.425781 2.0625 Z M 6.953125 10.984375 L 28.457031 32.636719 L 6.953125 54.292969 Z M 57.554688 10.984375 L 57.554688 54.292969 L 36.046875 32.636719 Z M 57.554688 10.984375 "/></g></svg>
