<svg xmlns="http://www.w3.org/2000/svg" xmlns:xlink="http://www.w3.org/1999/xlink" width="64" height="64" viewBox="0 0 64 64" version="1.1"><defs><linearGradient id="linear0" x1="0%" x2="100%" y1="0%" y2="100%"><stop offset="0%" style="stop-color:#6a00ff; stop-opacity:1"/><stop offset="50%" style="stop-color:#e0dd02; stop-opacity:1"/><stop offset="100%" style="stop-color:#00b54e; stop-opacity:1"/></linearGradient></defs><g id="surface1"><path style=" stroke:none;fill-rule:nonzero;fill:url(#linear0);" d="M 5.085938 2.089844 C 3.054688 2.089844 1.398438 3.855469 1.410156 6.03125 L 1.410156 58.957031 C 1.402344 61.128906 3.054688 62.898438 5.085938 62.898438 L 59.167969 62.898438 C 60.140625 62.898438 61.078125 62.480469 61.769531 61.738281 C 62.457031 61.007812 62.851562 60 62.84375 58.957031 L 62.84375 6.03125 C 62.851562 3.855469 61.199219 2.089844 59.167969 2.089844 L 5.085938 2.089844 M 8.773438 9.953125 L 28.449219 9.953125 L 28.449219 28.21875 L 8.773438 28.21875 Z M 35.8125 9.953125 L 55.488281 9.953125 L 55.488281 28.21875 L 35.8125 28.21875 Z M 8.773438 36.078125 L 28.449219 36.078125 L 28.449219 55.03125 L 8.773438 55.03125 Z M 35.8125 36.078125 L 55.488281 36.078125 L 55.488281 55.03125 L 35.8125 55.03125 Z M 35.8125 36.078125 "/></g></svg>
