<svg xmlns="http://www.w3.org/2000/svg" xmlns:xlink="http://www.w3.org/1999/xlink" width="64" height="64" viewBox="0 0 64 64" version="1.1"><defs><linearGradient id="linear0" x1="0%" x2="0%" y1="0%" y2="100%"><stop offset="0%" style="stop-color:#00b6c7; stop-opacity:1"/><stop offset="50%" style="stop-color:#ff0000; stop-opacity:1"/><stop offset="100%" style="stop-color:#6a00ff; stop-opacity:1"/></linearGradient></defs><g id="surface1"><path style=" stroke:none;fill-rule:nonzero;fill:url(#linear0);" d="M 35.691406 1.972656 C 32.683594 2.070312 29.398438 3.320312 25.820312 6.917969 C 15.257812 3.136719 11.402344 8.625 6.976562 13.320312 C 13.292969 10.414062 19.625 7.789062 26.898438 11.957031 C 30.519531 7.886719 34.925781 4.316406 45.757812 4.820312 C 43.0625 3.703125 39.882812 2.042969 36.292969 1.972656 C 36.097656 1.96875 35.894531 1.96875 35.691406 1.972656 Z M 54.054688 15.023438 C 46.113281 15.027344 37.160156 16.734375 29.8125 29.191406 C 23.292969 29.152344 18.492188 30.4375 14.792969 32.558594 C 7.742188 36.617188 4.714844 43.726562 1.492188 50.554688 C 10.277344 42.050781 19.292969 33.992188 33.414062 36.492188 C 37.171875 27.675781 43.566406 20.855469 61.566406 15.238281 C 59.242188 15.195312 56.703125 15.023438 54.054688 15.023438 Z M 39.308594 39.769531 C 36.886719 39.769531 34.902344 41.882812 34.902344 44.449219 L 34.902344 58.128906 C 34.902344 60.691406 36.886719 62.800781 39.308594 62.800781 L 57.914062 62.800781 C 60.335938 62.800781 62.335938 60.691406 62.335938 58.128906 L 62.335938 44.449219 C 62.335938 41.882812 60.335938 39.769531 57.914062 39.769531 Z M 39.308594 42.671875 L 57.914062 42.671875 C 58.867188 42.671875 59.59375 43.441406 59.59375 44.449219 L 59.59375 58.128906 C 59.59375 59.136719 58.867188 59.90625 57.914062 59.90625 L 39.308594 59.90625 C 38.359375 59.90625 37.648438 59.136719 37.648438 58.128906 L 37.648438 44.449219 C 37.648438 43.441406 38.359375 42.671875 39.308594 42.671875 Z M 39.308594 42.671875 "/></g></svg>
