<svg xmlns="http://www.w3.org/2000/svg" xmlns:xlink="http://www.w3.org/1999/xlink" width="64" height="64" viewBox="0 0 64 64" version="1.1"><defs><linearGradient id="linear0" x1="0%" x2="0%" y1="0%" y2="100%"><stop offset="0%" style="stop-color:#00b6c7; stop-opacity:1"/><stop offset="50%" style="stop-color:#ff0000; stop-opacity:1"/><stop offset="100%" style="stop-color:#6a00ff; stop-opacity:1"/></linearGradient></defs><g id="surface1"><path style=" stroke:none;fill-rule:nonzero;fill:url(#linear0);" d="M 5.933594 44.105469 L 58.550781 44.105469 L 58.550781 46.464844 L 32.238281 59.421875 L 5.929688 46.464844 Z M 5.933594 44.105469 "/><path style=" stroke:none;fill-rule:nonzero;fill:url(#linear0);" d="M 10.71875 27.609375 L 53.765625 27.609375 L 53.765625 34.695312 L 51.378906 35.859375 L 53.765625 37.042969 L 53.765625 60.597656 L 10.71875 60.597656 L 10.71875 37.042969 L 13.105469 35.859375 L 10.71875 34.695312 Z M 10.71875 27.609375 "/><path style=" stroke:none;fill-rule:nonzero;fill:url(#linear0);" d="M 20.273438 1.703125 C 18.953125 1.703125 18.53125 2.917969 17.894531 4.054688 L 5.929688 25.261719 L 32.238281 27.617188 L 58.550781 25.261719 L 46.589844 4.066406 C 45.949219 2.917969 45.519531 1.703125 44.203125 1.703125 C 43.570312 1.703125 42.960938 1.949219 42.511719 2.390625 L 33.929688 10.4375 C 33.476562 10.875 32.875 11.121094 32.238281 11.121094 C 31.605469 11.121094 30.996094 10.875 30.550781 10.4375 L 21.96875 2.390625 C 21.523438 1.949219 20.914062 1.703125 20.273438 1.703125 Z M 20.273438 1.703125 "/><path style=" stroke:none;fill-rule:nonzero;fill:url(#linear0);fill-opacity:1;" d="M 3.539062 25.261719 L 60.945312 25.261719 C 62.265625 25.261719 63.335938 26.316406 63.335938 27.617188 C 63.335938 28.917969 62.265625 29.96875 60.945312 29.96875 L 3.542969 29.96875 C 2.222656 29.96875 1.152344 28.917969 1.152344 27.617188 C 1.152344 26.316406 2.222656 25.261719 3.542969 25.261719 Z M 3.539062 25.261719 "/><path style=" stroke:none;fill-rule:nonzero;fill:url(#linear0);" d="M 10.71875 34.695312 L 10.71875 37.042969 L 15.496094 37.042969 C 15.496094 40.941406 18.714844 44.105469 22.675781 44.105469 C 26.640625 44.105469 29.851562 40.941406 29.851562 37.042969 L 34.632812 37.042969 C 34.632812 40.941406 37.84375 44.105469 41.804688 44.105469 C 45.769531 44.105469 48.988281 40.941406 48.988281 37.042969 L 53.765625 37.042969 L 53.765625 34.695312 Z M 10.71875 34.695312 "/><path style=" stroke:none;fill-rule:nonzero;fill:url(#linear0);" d="M 58.550781 46.464844 L 34.632812 53.53125 L 32.238281 58.242188 L 32.238281 60.597656 L 34.632812 62.957031 L 58.550781 62.957031 Z M 58.550781 46.464844 "/><path style=" stroke:none;fill-rule:nonzero;fill:url(#linear0);fill-opacity:1;" d="M 5.933594 46.464844 L 29.851562 53.53125 L 34.632812 62.957031 L 5.929688 62.957031 Z M 5.933594 46.464844 "/></g></svg>
