<svg xmlns="http://www.w3.org/2000/svg" xmlns:xlink="http://www.w3.org/1999/xlink" width="64" height="64" viewBox="0 0 64 64" version="1.1"><defs><linearGradient id="linear0" x1="0%" x2="0%" y1="0%" y2="100%"><stop offset="0%" style="stop-color:#ffd000; stop-opacity:1"/><stop offset="50%" style="stop-color:#24dbdb; stop-opacity:1"/><stop offset="100%" style="stop-color:#0073ff; stop-opacity:1"/></linearGradient></defs><g id="surface1"><path style=" stroke:none;fill-rule:nonzero;fill:url(#linear0);" d="M 55.980469 53.203125 L 59.445312 53.203125 C 60.402344 53.203125 61.171875 54.292969 61.171875 55.636719 L 61.171875 60.496094 C 61.171875 61.839844 60.402344 62.929688 59.445312 62.929688 L 55.980469 62.929688 C 55.023438 62.929688 54.25 61.839844 54.25 60.496094 L 54.25 55.636719 C 54.25 54.292969 55.023438 53.203125 55.980469 53.203125 Z M 31.746094 53.203125 L 51.367188 53.203125 C 52.324219 53.203125 53.097656 54.292969 53.097656 55.636719 L 53.097656 60.496094 C 53.097656 61.839844 52.324219 62.929688 51.367188 62.929688 L 31.746094 62.929688 C 30.785156 62.929688 30.015625 61.839844 30.015625 60.496094 L 30.015625 55.636719 C 30.015625 54.292969 30.785156 53.203125 31.746094 53.203125 Z M 23.667969 53.203125 L 27.132812 53.203125 C 28.089844 53.203125 28.859375 54.292969 28.859375 55.636719 L 28.859375 60.496094 C 28.859375 61.839844 28.089844 62.929688 27.132812 62.929688 L 23.667969 62.929688 C 22.710938 62.929688 21.941406 61.839844 21.941406 60.496094 L 21.941406 55.636719 C 21.941406 54.292969 22.710938 53.203125 23.667969 53.203125 Z M 15.59375 53.203125 L 19.050781 53.203125 C 20.007812 53.203125 20.785156 54.292969 20.785156 55.636719 L 20.785156 60.496094 C 20.785156 61.839844 20.007812 62.929688 19.050781 62.929688 L 15.59375 62.929688 C 14.628906 62.929688 13.859375 61.839844 13.859375 60.496094 L 13.859375 55.636719 C 13.859375 54.292969 14.628906 53.203125 15.59375 53.203125 Z M 2.898438 53.203125 L 10.972656 53.203125 C 11.933594 53.203125 12.703125 54.292969 12.703125 55.636719 L 12.703125 60.496094 C 12.703125 61.839844 11.933594 62.929688 10.972656 62.929688 L 2.898438 62.929688 C 1.933594 62.929688 1.164062 61.839844 1.164062 60.496094 L 1.164062 55.636719 C 1.164062 54.292969 1.933594 53.203125 2.898438 53.203125 Z M 59.425781 34.644531 L 59.445312 34.644531 C 60.402344 34.644531 61.171875 35.722656 61.171875 37.070312 L 61.171875 49.90625 C 61.171875 51.25 60.402344 52.332031 59.445312 52.332031 L 59.425781 52.332031 C 58.460938 52.332031 57.691406 51.25 57.691406 49.90625 L 57.691406 37.070312 C 57.691406 35.722656 58.460938 34.644531 59.425781 34.644531 Z M 55.980469 30.527344 L 59.445312 30.527344 C 60.402344 30.527344 61.171875 31.617188 61.171875 32.953125 L 61.171875 37.820312 C 61.171875 39.164062 60.402344 40.246094 59.445312 40.246094 L 55.980469 40.246094 C 55.023438 40.246094 54.253906 39.164062 54.253906 37.820312 L 54.253906 32.953125 C 54.253906 31.617188 55.023438 30.527344 55.980469 30.527344 Z M 51.367188 41.871094 L 54.824219 41.871094 C 55.789062 41.871094 56.558594 42.949219 56.558594 44.296875 L 56.558594 49.15625 C 56.558594 50.5 55.789062 51.585938 54.824219 51.585938 L 51.367188 51.585938 C 50.410156 51.585938 49.632812 50.5 49.632812 49.15625 L 49.632812 44.296875 C 49.632812 42.949219 50.410156 41.871094 51.367188 41.871094 Z M 43.285156 41.871094 L 46.75 41.871094 C 47.707031 41.871094 48.480469 42.949219 48.480469 44.296875 L 48.480469 49.15625 C 48.480469 50.5 47.707031 51.585938 46.75 51.585938 L 43.285156 51.585938 C 42.328125 51.585938 41.558594 50.5 41.558594 49.15625 L 41.558594 44.296875 C 41.558594 42.949219 42.328125 41.871094 43.285156 41.871094 Z M 2.898438 41.871094 L 6.359375 41.871094 C 7.316406 41.871094 8.089844 42.949219 8.089844 44.296875 L 8.089844 49.15625 C 8.089844 50.5 7.316406 51.585938 6.359375 51.585938 L 2.898438 51.585938 C 1.941406 51.585938 1.164062 50.5 1.164062 49.15625 L 1.164062 44.296875 C 1.164062 42.949219 1.941406 41.871094 2.898438 41.871094 Z M 35.210938 41.871094 L 38.671875 41.871094 C 39.628906 41.871094 40.402344 42.949219 40.402344 44.296875 L 40.402344 49.15625 C 40.402344 50.5 39.628906 51.585938 38.671875 51.585938 L 35.210938 51.585938 C 34.25 51.585938 33.480469 50.5 33.480469 49.15625 L 33.480469 44.296875 C 33.480469 42.949219 34.25 41.871094 35.210938 41.871094 Z M 27.132812 41.871094 L 30.589844 41.871094 C 31.546875 41.871094 32.324219 42.949219 32.324219 44.296875 L 32.324219 49.15625 C 32.324219 50.5 31.546875 51.585938 30.589844 51.585938 L 27.132812 51.585938 C 26.175781 51.585938 25.398438 50.5 25.398438 49.15625 L 25.398438 44.296875 C 25.398438 42.949219 26.175781 41.871094 27.132812 41.871094 Z M 19.050781 41.871094 L 22.515625 41.871094 C 23.472656 41.871094 24.246094 42.949219 24.246094 44.296875 L 24.246094 49.15625 C 24.246094 50.5 23.472656 51.585938 22.515625 51.585938 L 19.050781 51.585938 C 18.09375 51.585938 17.320312 50.5 17.320312 49.15625 L 17.320312 44.296875 C 17.320312 42.949219 18.09375 41.871094 19.050781 41.871094 Z M 10.972656 41.871094 L 14.4375 41.871094 C 15.394531 41.871094 16.171875 42.949219 16.171875 44.296875 L 16.171875 49.15625 C 16.171875 50.5 15.394531 51.585938 14.4375 51.585938 L 10.972656 51.585938 C 10.015625 51.585938 9.246094 50.5 9.246094 49.15625 L 9.246094 44.296875 C 9.246094 42.949219 10.015625 41.871094 10.972656 41.871094 Z M 47.902344 30.527344 L 51.367188 30.527344 C 52.324219 30.527344 53.097656 31.617188 53.097656 32.953125 L 53.097656 37.820312 C 53.097656 39.164062 52.324219 40.246094 51.367188 40.246094 L 47.902344 40.246094 C 46.945312 40.246094 46.175781 39.164062 46.175781 37.820312 L 46.175781 32.953125 C 46.175781 31.617188 46.945312 30.527344 47.902344 30.527344 Z M 39.828125 30.527344 L 43.285156 30.527344 C 44.242188 30.527344 45.019531 31.617188 45.019531 32.953125 L 45.019531 37.820312 C 45.019531 39.164062 44.242188 40.246094 43.285156 40.246094 L 39.828125 40.246094 C 38.871094 40.246094 38.09375 39.164062 38.09375 37.820312 L 38.09375 32.953125 C 38.09375 31.617188 38.871094 30.527344 39.828125 30.527344 Z M 31.746094 30.527344 L 35.210938 30.527344 C 36.167969 30.527344 36.9375 31.617188 36.9375 32.953125 L 36.9375 37.820312 C 36.9375 39.164062 36.167969 40.246094 35.210938 40.246094 L 31.746094 40.246094 C 30.789062 40.246094 30.015625 39.164062 30.015625 37.820312 L 30.015625 32.953125 C 30.015625 31.617188 30.789062 30.527344 31.746094 30.527344 Z M 23.667969 30.527344 L 27.132812 30.527344 C 28.089844 30.527344 28.863281 31.617188 28.863281 32.953125 L 28.863281 37.820312 C 28.863281 39.164062 28.089844 40.246094 27.132812 40.246094 L 23.667969 40.246094 C 22.710938 40.246094 21.941406 39.164062 21.941406 37.820312 L 21.941406 32.953125 C 21.941406 31.617188 22.710938 30.527344 23.667969 30.527344 Z M 15.59375 30.527344 L 19.050781 30.527344 C 20.007812 30.527344 20.785156 31.617188 20.785156 32.953125 L 20.785156 37.820312 C 20.785156 39.164062 20.007812 40.246094 19.050781 40.246094 L 15.59375 40.246094 C 14.628906 40.246094 13.859375 39.164062 13.859375 37.820312 L 13.859375 32.953125 C 13.859375 31.617188 14.628906 30.527344 15.59375 30.527344 Z M 2.898438 30.527344 L 10.972656 30.527344 C 11.933594 30.527344 12.703125 31.617188 12.703125 32.953125 L 12.703125 37.820312 C 12.703125 39.164062 11.933594 40.246094 10.972656 40.246094 L 2.898438 40.246094 C 1.933594 40.246094 1.164062 39.164062 1.164062 37.820312 L 1.164062 32.953125 C 1.164062 31.617188 1.933594 30.527344 2.898438 30.527344 Z M 51.367188 19.140625 L 59.445312 19.140625 C 60.402344 19.140625 61.171875 20.230469 61.171875 21.566406 L 61.171875 26.433594 C 61.171875 27.773438 60.402344 28.859375 59.445312 28.859375 L 51.367188 28.859375 C 50.410156 28.859375 49.632812 27.773438 49.632812 26.433594 L 49.632812 21.566406 C 49.632812 20.230469 50.410156 19.140625 51.367188 19.140625 Z M 43.285156 19.140625 L 46.75 19.140625 C 47.707031 19.140625 48.480469 20.230469 48.480469 21.566406 L 48.480469 26.433594 C 48.480469 27.773438 47.707031 28.859375 46.75 28.859375 L 43.285156 28.859375 C 42.328125 28.859375 41.558594 27.773438 41.558594 26.433594 L 41.558594 21.566406 C 41.558594 20.230469 42.328125 19.140625 43.285156 19.140625 Z M 2.898438 19.140625 L 6.359375 19.140625 C 7.316406 19.140625 8.089844 20.230469 8.089844 21.566406 L 8.089844 26.433594 C 8.089844 27.773438 7.316406 28.859375 6.359375 28.859375 L 2.898438 28.859375 C 1.941406 28.859375 1.164062 27.773438 1.164062 26.433594 L 1.164062 21.566406 C 1.164062 20.230469 1.941406 19.140625 2.898438 19.140625 Z M 35.210938 19.140625 L 38.671875 19.140625 C 39.628906 19.140625 40.402344 20.230469 40.402344 21.566406 L 40.402344 26.433594 C 40.402344 27.773438 39.628906 28.859375 38.671875 28.859375 L 35.210938 28.859375 C 34.25 28.859375 33.480469 27.773438 33.480469 26.433594 L 33.480469 21.566406 C 33.480469 20.230469 34.25 19.140625 35.210938 19.140625 Z M 27.132812 19.140625 L 30.589844 19.140625 C 31.546875 19.140625 32.324219 20.230469 32.324219 21.566406 L 32.324219 26.433594 C 32.324219 27.773438 31.546875 28.859375 30.589844 28.859375 L 27.132812 28.859375 C 26.175781 28.859375 25.398438 27.773438 25.398438 26.433594 L 25.398438 21.566406 C 25.398438 20.230469 26.175781 19.140625 27.132812 19.140625 Z M 19.050781 19.140625 L 22.515625 19.140625 C 23.472656 19.140625 24.246094 20.230469 24.246094 21.566406 L 24.246094 26.433594 C 24.246094 27.773438 23.472656 28.859375 22.515625 28.859375 L 19.050781 28.859375 C 18.09375 28.859375 17.320312 27.773438 17.320312 26.433594 L 17.320312 21.566406 C 17.320312 20.230469 18.09375 19.140625 19.050781 19.140625 Z M 10.972656 19.140625 L 14.4375 19.140625 C 15.394531 19.140625 16.171875 20.230469 16.171875 21.566406 L 16.171875 26.433594 C 16.171875 27.773438 15.394531 28.859375 14.4375 28.859375 L 10.972656 28.859375 C 10.015625 28.859375 9.246094 27.773438 9.246094 26.433594 L 9.246094 21.566406 C 9.246094 20.230469 10.015625 19.140625 10.972656 19.140625 Z M 55.980469 11.085938 L 59.445312 11.085938 C 60.402344 11.085938 61.171875 12.175781 61.171875 13.519531 C 61.171875 14.867188 60.402344 15.945312 59.445312 15.945312 L 55.980469 15.945312 C 55.023438 15.945312 54.25 14.867188 54.25 13.519531 C 54.25 12.175781 55.023438 11.085938 55.980469 11.085938 Z M 47.902344 11.085938 L 51.367188 11.085938 C 52.324219 11.085938 53.097656 12.175781 53.097656 13.519531 C 53.097656 14.867188 52.324219 15.945312 51.367188 15.945312 L 47.902344 15.945312 C 46.945312 15.945312 46.175781 14.867188 46.175781 13.519531 C 46.175781 12.175781 46.945312 11.085938 47.902344 11.085938 Z M 35.210938 11.085938 L 38.671875 11.085938 C 39.628906 11.085938 40.402344 12.175781 40.402344 13.519531 C 40.402344 14.867188 39.628906 15.945312 38.671875 15.945312 L 35.210938 15.945312 C 34.25 15.945312 33.480469 14.867188 33.480469 13.519531 C 33.480469 12.175781 34.25 11.085938 35.210938 11.085938 Z M 27.132812 11.085938 L 30.589844 11.085938 C 31.546875 11.085938 32.324219 12.175781 32.324219 13.519531 C 32.324219 14.867188 31.546875 15.945312 30.589844 15.945312 L 27.132812 15.945312 C 26.175781 15.945312 25.398438 14.867188 25.398438 13.519531 C 25.398438 12.175781 26.175781 11.085938 27.132812 11.085938 Z M 19.050781 11.085938 L 22.515625 11.085938 C 23.472656 11.085938 24.246094 12.175781 24.246094 13.519531 C 24.246094 14.867188 23.472656 15.945312 22.515625 15.945312 L 19.050781 15.945312 C 18.09375 15.945312 17.320312 14.867188 17.320312 13.519531 C 17.320312 12.175781 18.09375 11.085938 19.050781 11.085938 Z M 10.972656 11.085938 L 14.4375 11.085938 C 15.394531 11.085938 16.171875 12.175781 16.171875 13.519531 C 16.171875 14.867188 15.394531 15.945312 14.4375 15.945312 L 10.972656 15.945312 C 10.015625 15.945312 9.246094 14.867188 9.246094 13.519531 C 9.246094 12.175781 10.015625 11.085938 10.972656 11.085938 Z M 2.964844 11.085938 L 6.285156 11.085938 C 7.289062 11.085938 8.089844 12.175781 8.089844 13.519531 C 8.089844 14.867188 7.289062 15.945312 6.285156 15.945312 L 2.964844 15.945312 C 1.96875 15.945312 1.164062 14.867188 1.164062 13.519531 C 1.164062 12.175781 1.96875 11.085938 2.964844 11.085938 Z M 2.964844 11.085938 "/><path style=" stroke:none;fill-rule:nonzero;fill:url(#linear0);" d="M 55.980469 53.203125 L 59.445312 53.203125 C 60.402344 53.203125 61.171875 54.292969 61.171875 55.636719 L 61.171875 59.6875 C 61.171875 61.03125 60.402344 62.121094 59.445312 62.121094 L 55.980469 62.121094 C 55.023438 62.121094 54.25 61.03125 54.25 59.6875 L 54.25 55.636719 C 54.25 54.292969 55.023438 53.203125 55.980469 53.203125 Z M 31.746094 53.203125 L 51.367188 53.203125 C 52.324219 53.203125 53.097656 54.292969 53.097656 55.636719 L 53.097656 59.6875 C 53.097656 61.03125 52.324219 62.121094 51.367188 62.121094 L 31.746094 62.121094 C 30.785156 62.121094 30.015625 61.03125 30.015625 59.6875 L 30.015625 55.636719 C 30.015625 54.292969 30.785156 53.203125 31.746094 53.203125 Z M 23.667969 53.203125 L 27.132812 53.203125 C 28.089844 53.203125 28.859375 54.292969 28.859375 55.636719 L 28.859375 59.6875 C 28.859375 61.03125 28.089844 62.121094 27.132812 62.121094 L 23.667969 62.121094 C 22.710938 62.121094 21.941406 61.03125 21.941406 59.6875 L 21.941406 55.636719 C 21.941406 54.292969 22.710938 53.203125 23.667969 53.203125 Z M 15.59375 53.203125 L 19.050781 53.203125 C 20.007812 53.203125 20.785156 54.292969 20.785156 55.636719 L 20.785156 59.6875 C 20.785156 61.03125 20.007812 62.121094 19.050781 62.121094 L 15.59375 62.121094 C 14.628906 62.121094 13.859375 61.03125 13.859375 59.6875 L 13.859375 55.636719 C 13.859375 54.292969 14.628906 53.203125 15.59375 53.203125 Z M 2.898438 53.203125 L 10.972656 53.203125 C 11.933594 53.203125 12.703125 54.292969 12.703125 55.636719 L 12.703125 59.6875 C 12.703125 61.03125 11.933594 62.121094 10.972656 62.121094 L 2.898438 62.121094 C 1.933594 62.121094 1.164062 61.03125 1.164062 59.6875 L 1.164062 55.636719 C 1.164062 54.292969 1.933594 53.203125 2.898438 53.203125 Z M 59.425781 33.894531 L 59.445312 33.894531 C 60.402344 33.894531 61.171875 34.980469 61.171875 36.324219 L 61.171875 49.15625 C 61.171875 50.5 60.402344 51.585938 59.445312 51.585938 L 59.425781 51.585938 C 58.460938 51.585938 57.691406 50.5 57.691406 49.15625 L 57.691406 36.324219 C 57.691406 34.980469 58.460938 33.894531 59.425781 33.894531 Z M 55.980469 30.527344 L 59.445312 30.527344 C 60.402344 30.527344 61.171875 31.617188 61.171875 32.953125 L 61.171875 37.003906 C 61.171875 38.351562 60.402344 39.4375 59.445312 39.4375 L 55.980469 39.4375 C 55.023438 39.4375 54.253906 38.351562 54.253906 37.003906 L 54.253906 32.953125 C 54.253906 31.617188 55.023438 30.527344 55.980469 30.527344 Z M 51.367188 41.871094 L 54.824219 41.871094 C 55.789062 41.871094 56.558594 42.949219 56.558594 44.296875 L 56.558594 48.347656 C 56.558594 49.691406 55.789062 50.777344 54.824219 50.777344 L 51.367188 50.777344 C 50.410156 50.777344 49.632812 49.691406 49.632812 48.347656 L 49.632812 44.296875 C 49.632812 42.949219 50.410156 41.871094 51.367188 41.871094 Z M 43.285156 41.871094 L 46.75 41.871094 C 47.707031 41.871094 48.480469 42.949219 48.480469 44.296875 L 48.480469 48.347656 C 48.480469 49.691406 47.707031 50.777344 46.75 50.777344 L 43.285156 50.777344 C 42.328125 50.777344 41.558594 49.691406 41.558594 48.347656 L 41.558594 44.296875 C 41.558594 42.949219 42.328125 41.871094 43.285156 41.871094 Z M 2.898438 41.871094 L 6.359375 41.871094 C 7.316406 41.871094 8.089844 42.949219 8.089844 44.296875 L 8.089844 48.347656 C 8.089844 49.691406 7.316406 50.777344 6.359375 50.777344 L 2.898438 50.777344 C 1.941406 50.777344 1.164062 49.691406 1.164062 48.347656 L 1.164062 44.296875 C 1.164062 42.949219 1.941406 41.871094 2.898438 41.871094 Z M 35.210938 41.871094 L 38.671875 41.871094 C 39.628906 41.871094 40.402344 42.949219 40.402344 44.296875 L 40.402344 48.347656 C 40.402344 49.691406 39.628906 50.777344 38.671875 50.777344 L 35.210938 50.777344 C 34.25 50.777344 33.480469 49.691406 33.480469 48.347656 L 33.480469 44.296875 C 33.480469 42.949219 34.25 41.871094 35.210938 41.871094 Z M 27.132812 41.871094 L 30.589844 41.871094 C 31.546875 41.871094 32.324219 42.949219 32.324219 44.296875 L 32.324219 48.347656 C 32.324219 49.691406 31.546875 50.777344 30.589844 50.777344 L 27.132812 50.777344 C 26.175781 50.777344 25.398438 49.691406 25.398438 48.347656 L 25.398438 44.296875 C 25.398438 42.949219 26.175781 41.871094 27.132812 41.871094 Z M 19.050781 41.871094 L 22.515625 41.871094 C 23.472656 41.871094 24.246094 42.949219 24.246094 44.296875 L 24.246094 48.347656 C 24.246094 49.691406 23.472656 50.777344 22.515625 50.777344 L 19.050781 50.777344 C 18.09375 50.777344 17.320312 49.691406 17.320312 48.347656 L 17.320312 44.296875 C 17.320312 42.949219 18.09375 41.871094 19.050781 41.871094 Z M 10.972656 41.871094 L 14.4375 41.871094 C 15.394531 41.871094 16.171875 42.949219 16.171875 44.296875 L 16.171875 48.347656 C 16.171875 49.691406 15.394531 50.777344 14.4375 50.777344 L 10.972656 50.777344 C 10.015625 50.777344 9.246094 49.691406 9.246094 48.347656 L 9.246094 44.296875 C 9.246094 42.949219 10.015625 41.871094 10.972656 41.871094 Z M 47.902344 30.527344 L 51.367188 30.527344 C 52.324219 30.527344 53.097656 31.617188 53.097656 32.953125 L 53.097656 37.003906 C 53.097656 38.351562 52.324219 39.4375 51.367188 39.4375 L 47.902344 39.4375 C 46.945312 39.4375 46.175781 38.351562 46.175781 37.003906 L 46.175781 32.953125 C 46.175781 31.617188 46.945312 30.527344 47.902344 30.527344 Z M 39.828125 30.527344 L 43.285156 30.527344 C 44.242188 30.527344 45.019531 31.617188 45.019531 32.953125 L 45.019531 37.003906 C 45.019531 38.351562 44.242188 39.4375 43.285156 39.4375 L 39.828125 39.4375 C 38.871094 39.4375 38.09375 38.351562 38.09375 37.003906 L 38.09375 32.953125 C 38.09375 31.617188 38.871094 30.527344 39.828125 30.527344 Z M 31.746094 30.527344 L 35.210938 30.527344 C 36.167969 30.527344 36.9375 31.617188 36.9375 32.953125 L 36.9375 37.003906 C 36.9375 38.351562 36.167969 39.4375 35.210938 39.4375 L 31.746094 39.4375 C 30.789062 39.4375 30.015625 38.351562 30.015625 37.003906 L 30.015625 32.953125 C 30.015625 31.617188 30.789062 30.527344 31.746094 30.527344 Z M 23.667969 30.527344 L 27.132812 30.527344 C 28.089844 30.527344 28.863281 31.617188 28.863281 32.953125 L 28.863281 37.003906 C 28.863281 38.351562 28.089844 39.4375 27.132812 39.4375 L 23.667969 39.4375 C 22.710938 39.4375 21.941406 38.351562 21.941406 37.003906 L 21.941406 32.953125 C 21.941406 31.617188 22.710938 30.527344 23.667969 30.527344 Z M 15.59375 30.527344 L 19.050781 30.527344 C 20.007812 30.527344 20.785156 31.617188 20.785156 32.953125 L 20.785156 37.003906 C 20.785156 38.351562 20.007812 39.4375 19.050781 39.4375 L 15.59375 39.4375 C 14.628906 39.4375 13.859375 38.351562 13.859375 37.003906 L 13.859375 32.953125 C 13.859375 31.617188 14.628906 30.527344 15.59375 30.527344 Z M 2.898438 30.527344 L 10.972656 30.527344 C 11.933594 30.527344 12.703125 31.617188 12.703125 32.953125 L 12.703125 37.003906 C 12.703125 38.351562 11.933594 39.4375 10.972656 39.4375 L 2.898438 39.4375 C 1.933594 39.4375 1.164062 38.351562 1.164062 37.003906 L 1.164062 32.953125 C 1.164062 31.617188 1.933594 30.527344 2.898438 30.527344 Z M 51.367188 19.140625 L 59.445312 19.140625 C 60.402344 19.140625 61.171875 20.222656 61.171875 21.566406 L 61.171875 25.617188 C 61.171875 26.964844 60.402344 28.050781 59.445312 28.050781 L 51.367188 28.050781 C 50.410156 28.050781 49.632812 26.964844 49.632812 25.617188 L 49.632812 21.566406 C 49.632812 20.230469 50.410156 19.140625 51.367188 19.140625 Z M 43.285156 19.140625 L 46.75 19.140625 C 47.707031 19.140625 48.480469 20.222656 48.480469 21.566406 L 48.480469 25.617188 C 48.480469 26.964844 47.707031 28.050781 46.75 28.050781 L 43.285156 28.050781 C 42.328125 28.050781 41.558594 26.964844 41.558594 25.617188 L 41.558594 21.566406 C 41.558594 20.230469 42.328125 19.140625 43.285156 19.140625 Z M 2.898438 19.140625 L 6.359375 19.140625 C 7.316406 19.140625 8.089844 20.222656 8.089844 21.566406 L 8.089844 25.617188 C 8.089844 26.964844 7.316406 28.050781 6.359375 28.050781 L 2.898438 28.050781 C 1.941406 28.050781 1.164062 26.964844 1.164062 25.617188 L 1.164062 21.566406 C 1.164062 20.230469 1.941406 19.140625 2.898438 19.140625 Z M 35.210938 19.140625 L 38.671875 19.140625 C 39.628906 19.140625 40.402344 20.222656 40.402344 21.566406 L 40.402344 25.617188 C 40.402344 26.964844 39.628906 28.050781 38.671875 28.050781 L 35.210938 28.050781 C 34.25 28.050781 33.480469 26.964844 33.480469 25.617188 L 33.480469 21.566406 C 33.480469 20.230469 34.25 19.140625 35.210938 19.140625 Z M 27.132812 19.140625 L 30.589844 19.140625 C 31.546875 19.140625 32.324219 20.222656 32.324219 21.566406 L 32.324219 25.617188 C 32.324219 26.964844 31.546875 28.050781 30.589844 28.050781 L 27.132812 28.050781 C 26.175781 28.050781 25.398438 26.964844 25.398438 25.617188 L 25.398438 21.566406 C 25.398438 20.230469 26.175781 19.140625 27.132812 19.140625 Z M 19.050781 19.140625 L 22.515625 19.140625 C 23.472656 19.140625 24.246094 20.222656 24.246094 21.566406 L 24.246094 25.617188 C 24.246094 26.964844 23.472656 28.050781 22.515625 28.050781 L 19.050781 28.050781 C 18.09375 28.050781 17.320312 26.964844 17.320312 25.617188 L 17.320312 21.566406 C 17.320312 20.230469 18.09375 19.140625 19.050781 19.140625 Z M 10.972656 19.140625 L 14.4375 19.140625 C 15.394531 19.140625 16.171875 20.222656 16.171875 21.566406 L 16.171875 25.617188 C 16.171875 26.964844 15.394531 28.050781 14.4375 28.050781 L 10.972656 28.050781 C 10.015625 28.050781 9.246094 26.964844 9.246094 25.617188 L 9.246094 21.566406 C 9.246094 20.230469 10.015625 19.140625 10.972656 19.140625 Z M 55.980469 11.085938 L 59.445312 11.085938 C 60.402344 11.085938 61.171875 11.988281 61.171875 13.113281 C 61.171875 14.238281 60.402344 15.136719 59.445312 15.136719 L 55.980469 15.136719 C 55.023438 15.136719 54.25 14.238281 54.25 13.113281 C 54.25 11.992188 55.023438 11.085938 55.980469 11.085938 Z M 47.902344 11.085938 L 51.367188 11.085938 C 52.324219 11.085938 53.097656 11.988281 53.097656 13.113281 C 53.097656 14.238281 52.324219 15.136719 51.367188 15.136719 L 47.902344 15.136719 C 46.945312 15.136719 46.175781 14.238281 46.175781 13.113281 C 46.175781 11.992188 46.945312 11.085938 47.902344 11.085938 Z M 35.210938 11.085938 L 38.671875 11.085938 C 39.628906 11.085938 40.402344 11.988281 40.402344 13.113281 C 40.402344 14.238281 39.628906 15.136719 38.671875 15.136719 L 35.210938 15.136719 C 34.25 15.136719 33.480469 14.238281 33.480469 13.113281 C 33.480469 11.992188 34.25 11.085938 35.210938 11.085938 Z M 27.132812 11.085938 L 30.589844 11.085938 C 31.546875 11.085938 32.324219 11.988281 32.324219 13.113281 C 32.324219 14.238281 31.546875 15.136719 30.589844 15.136719 L 27.132812 15.136719 C 26.175781 15.136719 25.398438 14.238281 25.398438 13.113281 C 25.398438 11.992188 26.175781 11.085938 27.132812 11.085938 Z M 19.050781 11.085938 L 22.515625 11.085938 C 23.472656 11.085938 24.246094 11.988281 24.246094 13.113281 C 24.246094 14.238281 23.472656 15.136719 22.515625 15.136719 L 19.050781 15.136719 C 18.09375 15.136719 17.320312 14.238281 17.320312 13.113281 C 17.320312 11.992188 18.09375 11.085938 19.050781 11.085938 Z M 10.972656 11.085938 L 14.4375 11.085938 C 15.394531 11.085938 16.171875 11.988281 16.171875 13.113281 C 16.171875 14.238281 15.394531 15.136719 14.4375 15.136719 L 10.972656 15.136719 C 10.015625 15.136719 9.246094 14.238281 9.246094 13.113281 C 9.246094 11.992188 10.015625 11.085938 10.972656 11.085938 Z M 2.898438 11.085938 L 6.359375 11.085938 C 7.316406 11.085938 8.089844 11.988281 8.089844 13.113281 C 8.089844 14.238281 7.316406 15.136719 6.359375 15.136719 L 2.898438 15.136719 C 1.941406 15.136719 1.164062 14.238281 1.164062 13.113281 C 1.164062 11.992188 1.941406 11.085938 2.898438 11.085938 Z M 2.898438 11.085938 "/><path style=" stroke:none;fill-rule:nonzero;fill:url(#linear0);" d="M 53.078125 1.304688 C 53.726562 1.304688 54.25 2.042969 54.25 2.953125 C 54.25 3.867188 53.726562 4.609375 53.078125 4.609375 C 52.421875 4.609375 51.894531 3.867188 51.894531 2.953125 C 51.894531 2.042969 52.421875 1.304688 53.078125 1.304688 Z M 53.078125 1.304688 "/><path style=" stroke:none;fill-rule:nonzero;fill:url(#linear0);" d="M 57.714844 1.371094 C 58.351562 1.371094 58.867188 2.09375 58.867188 2.988281 C 58.867188 3.886719 58.351562 4.609375 57.714844 4.609375 C 57.074219 4.609375 56.558594 3.886719 56.558594 2.988281 C 56.558594 2.09375 57.074219 1.371094 57.714844 1.371094 Z M 57.714844 1.371094 "/><path style=" stroke:none;fill-rule:nonzero;fill:url(#linear0);" d="M 50.1875 37.839844 L 50.1875 13.53125 C 50.1875 9.953125 48.125 7.050781 45.574219 7.050781 L 34.046875 7.039062 C 32.824219 7.039062 31.652344 7.714844 30.785156 8.933594 C 29.921875 10.148438 29.4375 11.800781 29.4375 13.511719 L 29.449219 23.230469 "/><path style=" stroke:none;fill-rule:nonzero;fill:url(#linear0);" d="M 39.320312 28.308594 L 58.824219 28.308594 C 61.078125 28.308594 62.90625 30.566406 62.90625 33.347656 L 62.90625 57.066406 C 62.90625 59.847656 61.078125 62.105469 58.824219 62.105469 L 39.320312 62.105469 C 37.066406 62.105469 35.234375 59.847656 35.234375 57.066406 L 35.234375 33.347656 C 35.234375 30.566406 37.066406 28.308594 39.320312 28.308594 Z M 39.320312 28.308594 "/><path style=" stroke:none;fill-rule:nonzero;fill:url(#linear0);" d="M 27.015625 18.664062 L 30.710938 18.664062 C 31.472656 18.664062 32.085938 19.523438 32.085938 20.589844 L 32.085938 24.953125 C 32.085938 26.019531 31.472656 26.886719 30.710938 26.886719 L 27.015625 26.886719 C 26.253906 26.886719 25.636719 26.019531 25.636719 24.953125 L 25.636719 20.589844 C 25.636719 19.523438 26.253906 18.664062 27.015625 18.664062 Z M 27.015625 18.664062 "/><path style=" stroke:none;fill-rule:nonzero;fill:url(#linear0);" d="M 49.0625 54.828125 C 51.949219 54.828125 53.742188 52.460938 53.832031 48.890625 L 50.773438 48.890625 C 50.652344 50.421875 49.996094 51.265625 49.101562 51.265625 C 47.949219 51.265625 47.195312 49.890625 47.195312 47.324219 C 47.195312 44.773438 47.957031 43.410156 49.101562 43.410156 C 50.035156 43.410156 50.644531 44.300781 50.773438 45.785156 L 53.832031 45.785156 C 53.757812 42.226562 51.910156 39.910156 49.054688 39.910156 C 45.820312 39.910156 43.863281 42.9375 43.863281 47.375 C 43.863281 51.789062 45.804688 54.828125 49.0625 54.828125 Z M 47.742188 34.027344 L 44.996094 34.027344 L 44.996094 34.152344 L 47.894531 38.363281 L 50.246094 38.363281 L 53.136719 34.152344 L 53.136719 34.027344 L 50.398438 34.027344 L 49.066406 36.207031 Z M 47.742188 34.027344 "/></g></svg>
