<!-- Generator: Gravit.io --><svg xmlns="http://www.w3.org/2000/svg" xmlns:xlink="http://www.w3.org/1999/xlink" width="64" height="64" viewBox="0 0 64 64" version="1.1"><defs><linearGradient id="linear0" x1="0%" x2="0%" y1="0%" y2="100%"><stop offset="0%" style="stop-color:#00b54e; stop-opacity:1"/><stop offset="50%" style="stop-color:#0073ff; stop-opacity:1"/><stop offset="100%" style="stop-color:#ffd000; stop-opacity:1"/></linearGradient></defs><g id="surface1"><path style=" stroke:none;fill-rule:evenodd;fill:url(#linear0);" d="M 10.316406 47.199219 C 10.316406 43.941406 12.816406 41.289062 15.894531 41.289062 C 18.972656 41.289062 21.46875 43.941406 21.46875 47.199219 C 21.46875 50.460938 18.972656 53.113281 15.894531 53.113281 C 12.816406 53.113281 10.316406 50.460938 10.316406 47.199219 Z M 10.539062 56.0625 C 11.953125 56.0625 13.105469 57.390625 13.105469 59.019531 C 13.105469 60.652344 12.019531 61.96875 10.679688 61.957031 L 10.386719 61.976562 C 10.355469 61.976562 10.339844 61.976562 10.316406 61.976562 C 8.101562 61.976562 5.960938 61.042969 4.398438 59.375 C 2.824219 57.71875 1.949219 55.460938 1.949219 53.113281 C 1.949219 51.476562 3.195312 50.152344 4.734375 50.152344 C 6.277344 50.152344 7.527344 51.476562 7.527344 53.113281 C 7.527344 53.890625 7.816406 54.636719 8.332031 55.191406 C 8.847656 55.742188 9.546875 56.050781 10.285156 56.0625 Z M 7.527344 41.289062 C 7.527344 42.917969 6.277344 44.246094 4.734375 44.246094 C 3.195312 44.246094 1.949219 42.917969 1.949219 41.289062 L 1.949219 8.789062 C 1.949219 4.71875 5.074219 1.402344 8.917969 1.402344 L 56.335938 1.402344 C 60.179688 1.402344 63.304688 4.71875 63.304688 8.789062 L 63.304688 17.652344 C 63.304688 19.289062 62.058594 20.609375 60.519531 20.609375 C 58.976562 20.609375 57.726562 19.289062 57.726562 17.652344 L 57.726562 11.742188 C 57.726562 9.304688 55.847656 7.3125 53.542969 7.3125 L 11.710938 7.3125 C 9.40625 7.3125 7.527344 9.304688 7.527344 11.742188 Z M 57.726562 32.429688 C 57.726562 30.800781 58.976562 29.472656 60.519531 29.472656 C 62.058594 29.472656 63.304688 30.800781 63.304688 32.429688 L 63.304688 54.589844 C 63.304688 58.660156 60.179688 61.976562 56.335938 61.976562 L 21.46875 61.976562 C 19.929688 61.976562 18.679688 60.652344 18.679688 59.019531 C 18.679688 57.390625 19.929688 56.0625 21.46875 56.0625 L 53.542969 56.0625 C 55.847656 56.0625 57.726562 54.074219 57.726562 51.636719 Z M 15.292969 33.179688 C 14.140625 33.207031 13.183594 32.238281 13.164062 31.011719 C 13.136719 29.789062 14.054688 28.769531 15.207031 28.75 L 15.847656 28.738281 C 15.863281 28.738281 15.878906 28.738281 15.894531 28.738281 C 20.046875 28.738281 24.066406 30.296875 27.214844 33.164062 C 30.378906 36.019531 32.472656 39.976562 33.117188 44.320312 C 33.289062 45.527344 32.507812 46.660156 31.371094 46.855469 C 30.230469 47.042969 29.164062 46.222656 28.988281 45.015625 C 28.484375 41.71875 26.910156 38.707031 24.507812 36.535156 C 22.109375 34.363281 19.074219 33.164062 15.917969 33.164062 Z M 15.367188 24.300781 C 14.207031 24.320312 13.257812 23.339844 13.25 22.113281 C 13.238281 20.894531 14.164062 19.886719 15.316406 19.871094 L 15.863281 19.871094 C 15.878906 19.871094 15.878906 19.871094 15.894531 19.871094 C 22.320312 19.871094 28.511719 22.414062 33.269531 26.992188 C 38.023438 31.570312 40.980469 37.882812 41.582031 44.65625 C 41.6875 45.875 40.84375 46.953125 39.6875 47.070312 C 38.535156 47.183594 37.519531 46.285156 37.410156 45.078125 C 36.921875 39.386719 34.445312 34.117188 30.457031 30.273438 C 26.476562 26.429688 21.292969 24.300781 15.90625 24.300781 Z M 15.367188 24.300781 "/></g></svg>
