<svg xmlns="http://www.w3.org/2000/svg" xmlns:xlink="http://www.w3.org/1999/xlink" width="64" height="64" viewBox="0 0 64 64" version="1.1"><defs><linearGradient id="linear0" x1="0%" x2="100%" y1="0%" y2="100%"><stop offset="0%" style="stop-color:#6a00ff; stop-opacity:1"/><stop offset="50%" style="stop-color:#e0dd02; stop-opacity:1"/><stop offset="100%" style="stop-color:#00b54e; stop-opacity:1"/></linearGradient></defs><g id="surface1"><path style=" stroke:none;fill-rule:nonzero;fill:url(#linear0);" d="M 51.546875 21.429688 C 51.546875 26.046875 47.695312 29.789062 42.9375 29.789062 C 38.175781 29.789062 34.324219 26.046875 34.324219 21.429688 C 34.324219 16.808594 38.175781 13.066406 42.9375 13.066406 C 47.695312 13.066406 51.546875 16.808594 51.546875 21.429688 Z M 51.546875 21.429688 "/><path style="fill:none;stroke-width:17.915001;stroke-linecap:butt;stroke-linejoin:miter;stroke:url(#linear0);stroke-miterlimit:4;" d="M 153.598811 153.241169 L 361.410334 153.241169 C 368.43652 153.241169 374.124384 158.188641 374.124384 164.248464 L 374.124384 344.399522 C 374.124384 350.49255 368.43652 355.440021 361.410334 355.440021 L 153.598811 355.440021 C 146.554038 355.440021 140.866173 350.49255 140.866173 344.399522 L 140.866173 164.248464 C 140.866173 158.188641 146.554038 153.241169 153.598811 153.241169 Z M 153.598811 153.241169 " transform="matrix(0.210151,0,0,0.235284,-22.364937,-27.87165)"/><path style=" stroke:none;fill-rule:nonzero;fill:url(#linear0);" d="M 51.804688 37.441406 C 49.984375 37.414062 48.261719 38.117188 46.769531 39.804688 L 36.058594 51.824219 L 48.894531 51.824219 C 49.632812 50.226562 50.644531 49.386719 52.21875 48.710938 L 52.21875 37.472656 C 52.082031 37.464844 51.945312 37.441406 51.804688 37.441406 Z M 51.804688 37.441406 "/><path style=" stroke:none;fill-rule:nonzero;fill:url(#linear0);" d="M 21.199219 19.140625 C 21.183594 16.773438 20.703125 14.289062 19.882812 11.832031 L 13.988281 11.832031 C 13.457031 13.238281 12.566406 14.757812 10.984375 15.707031 L 10.984375 39.582031 C 18.46875 36.824219 21.242188 24.96875 21.195312 19.140625 Z M 21.199219 19.140625 "/><path style=" stroke:none;fill-rule:nonzero;fill:url(#linear0);" d="M 62.574219 8.183594 C 62.574219 11.566406 59.746094 14.320312 56.257812 14.320312 C 52.761719 14.320312 49.933594 11.566406 49.933594 8.183594 C 49.933594 4.796875 52.761719 2.054688 56.257812 2.054688 C 59.746094 2.054688 62.574219 4.796875 62.574219 8.183594 Z M 62.574219 8.183594 "/><path style=" stroke:none;fill-rule:nonzero;fill:url(#linear0);" d="M 13.558594 8.183594 C 13.558594 11.566406 10.726562 14.320312 7.238281 14.320312 C 3.75 14.320312 0.921875 11.566406 0.921875 8.183594 C 0.921875 4.796875 3.75 2.054688 7.238281 2.054688 C 10.726562 2.054688 13.558594 4.796875 13.558594 8.183594 Z M 13.558594 8.183594 "/><path style=" stroke:none;fill-rule:nonzero;fill:url(#linear0);" d="M 62.574219 55.757812 C 62.574219 59.136719 59.746094 61.890625 56.257812 61.890625 C 52.761719 61.890625 49.933594 59.136719 49.933594 55.757812 C 49.933594 52.367188 52.761719 49.625 56.257812 49.625 C 59.746094 49.625 62.574219 52.367188 62.574219 55.757812 Z M 62.574219 55.757812 "/><path style=" stroke:none;fill-rule:nonzero;fill:url(#linear0);" d="M 13.558594 55.757812 C 13.558594 59.136719 10.726562 61.890625 7.238281 61.890625 C 3.75 61.890625 0.921875 59.136719 0.921875 55.757812 C 0.921875 52.367188 3.75 49.625 7.238281 49.625 C 10.726562 49.625 13.558594 52.367188 13.558594 55.757812 Z M 13.558594 55.757812 "/></g></svg>
