<svg xmlns="http://www.w3.org/2000/svg" xmlns:xlink="http://www.w3.org/1999/xlink" width="64" height="64" viewBox="0 0 64 64" version="1.1"><defs><linearGradient id="linear0" x1="0%" x2="100%" y1="0%" y2="100%"><stop offset="0%" style="stop-color:#ae00ff; stop-opacity:1"/><stop offset="100%" style="stop-color:#0084ff; stop-opacity:1"/></linearGradient></defs><g id="surface1"><path style=" stroke:none;fill-rule:nonzero;fill:url(#linear0);" d="M 39.453125 2.082031 C 30.113281 2.089844 21.230469 5.625 14.773438 11.472656 C 2.6875 22.515625 2.34375 39.621094 13.964844 51.039062 C 17.3125 54.308594 21.460938 56.90625 26.121094 58.636719 L 29.28125 51.214844 C 23.007812 48.695312 18.234375 44.109375 16.019531 38.519531 C 12.558594 29.679688 16.097656 19.957031 24.808594 14.308594 L 40.074219 31.609375 C 40.074219 31.613281 60.835938 7.988281 60.835938 7.988281 C 54.652344 4.011719 46.996094 2.082031 39.382812 2.082031 Z M 54.699219 49.328125 C 53.511719 50.027344 52.253906 50.640625 50.960938 51.160156 L 54.144531 58.601562 C 56.207031 57.835938 58.183594 56.898438 60.027344 55.808594 Z M 46.625 52.515625 C 45.265625 52.828125 43.882812 53.042969 42.476562 53.15625 L 42.476562 61.050781 C 44.964844 60.90625 47.410156 60.535156 49.785156 59.941406 Z M 33.710938 52.527344 L 30.550781 59.949219 C 32.925781 60.546875 35.394531 60.917969 37.863281 61.066406 L 37.863281 53.171875 C 36.457031 53.058594 35.070312 52.84375 33.710938 52.53125 Z M 33.710938 52.527344 "/></g></svg>
