<svg xmlns="http://www.w3.org/2000/svg" xmlns:xlink="http://www.w3.org/1999/xlink" width="64" height="64" viewBox="0 0 64 64" version="1.1"><defs><linearGradient id="linear0" x1="0%" x2="0%" y1="0%" y2="100%"><stop offset="0%" style="stop-color:#00b6c7; stop-opacity:1"/><stop offset="50%" style="stop-color:#ff0000; stop-opacity:1"/><stop offset="100%" style="stop-color:#6a00ff; stop-opacity:1"/></linearGradient></defs><g id="surface1"><path style=" stroke:none;fill-rule:nonzero;fill:url(#linear0);" d="M 32.128906 2.390625 C 15.527344 2.390625 2.058594 15.796875 2.058594 32.3125 C 2.058594 48.828125 15.527344 62.234375 32.128906 62.234375 C 48.726562 62.234375 62.199219 48.828125 62.199219 32.3125 C 62.199219 15.796875 48.726562 2.390625 32.128906 2.390625 Z M 32.128906 8.375 C 44.636719 8.375 54.980469 17.910156 56.183594 30.316406 C 46.21875 30.277344 40.226562 24.332031 32.128906 24.332031 C 24.128906 24.332031 18.132812 30.277344 8.269531 30.316406 C 9.316406 17.929688 19.71875 8.375 32.128906 8.375 Z M 16.089844 38.296875 C 20.097656 38.296875 22.105469 38.296875 24.109375 40.289062 C 26.113281 42.285156 28.117188 44.28125 28.117188 50.265625 C 28.117188 52.917969 27.660156 54.671875 26.480469 55.550781 C 18.441406 53.609375 11.96875 47.691406 9.34375 39.871094 C 10.417969 38.304688 12.390625 38.285156 16.097656 38.285156 Z M 48.164062 38.296875 C 51.875 38.296875 53.859375 38.316406 54.921875 39.890625 C 52.292969 47.6875 45.820312 53.613281 37.761719 55.546875 C 36.585938 54.660156 36.128906 52.914062 36.128906 50.261719 C 36.128906 44.277344 38.132812 42.285156 40.136719 40.289062 C 42.144531 38.292969 44.148438 38.292969 48.15625 38.292969 Z M 48.164062 38.296875 "/></g></svg>
