<svg xmlns="http://www.w3.org/2000/svg" xmlns:xlink="http://www.w3.org/1999/xlink" width="64" height="64" viewBox="0 0 64 64" version="1.1"><defs><linearGradient id="linear0" x1="0%" x2="0%" y1="0%" y2="100%"><stop offset="0%" style="stop-color:#00b54e; stop-opacity:1"/><stop offset="50%" style="stop-color:#0073ff; stop-opacity:1"/><stop offset="100%" style="stop-color:#ffd000; stop-opacity:1"/></linearGradient></defs><g id="surface1"><path style=" stroke:none;fill-rule:nonzero;fill:url(#linear0);" d="M 21.851562 1.421875 C 21.753906 1.425781 21.664062 1.433594 21.578125 1.449219 C 20.640625 1.601562 20.164062 2.597656 19.484375 3.53125 C 18.714844 14.464844 17.625 24.472656 16.851562 35.417969 C 20.085938 35.164062 24.53125 35.210938 29.097656 35.152344 C 34.058594 35.078125 38.894531 34.726562 41.265625 33.835938 C 46.144531 32.003906 49.917969 27.359375 53.066406 20.464844 C 43.394531 14.359375 32.984375 7.105469 24.050781 2.15625 C 23.277344 1.824219 22.503906 1.402344 21.851562 1.421875 Z M 17.640625 5.894531 C 11.855469 17.222656 6.742188 26.496094 0.90625 38.03125 C 0.792969 41.132812 1.386719 42.921875 2.140625 44.046875 C 2.898438 45.1875 3.578125 45.484375 4.59375 45.414062 C 6.054688 44.910156 7.894531 43.5625 9.792969 41.859375 C 10.515625 41.191406 15.128906 37.042969 15.523438 36.125 C 16.25 25.867188 16.910156 16.207031 17.640625 5.894531 Z M 34.152344 6.429688 C 41.195312 10.960938 47.921875 15.515625 54.050781 19.277344 C 55.882812 20.398438 59.355469 21.726562 61.980469 22.539062 C 59.484375 19.917969 56.628906 17.660156 53.453125 16.035156 Z M 29.671875 10.660156 C 30.382812 10.644531 31.085938 10.847656 31.785156 11.273438 C 33.175781 12.113281 34.472656 13.800781 35.667969 16.339844 C 36.785156 18.710938 37.203125 20.90625 36.933594 22.929688 C 36.667969 24.9375 35.734375 26.453125 34.148438 27.464844 C 33.722656 27.734375 33.269531 27.960938 32.789062 28.140625 L 31.214844 28.554688 L 30.339844 26.703125 C 30.878906 26.675781 31.394531 26.582031 31.898438 26.429688 C 32.386719 26.28125 32.851562 26.066406 33.269531 25.796875 C 34.386719 25.082031 35.035156 24.085938 35.195312 22.808594 C 35.359375 21.519531 35.054688 19.933594 34.269531 18.035156 C 34.21875 18.824219 34.015625 19.523438 33.664062 20.160156 C 33.304688 20.785156 32.824219 21.289062 32.222656 21.675781 C 30.96875 22.476562 29.757812 22.664062 28.601562 22.222656 C 27.4375 21.773438 26.488281 20.761719 25.746094 19.183594 C 25.015625 17.632812 24.808594 16.152344 25.132812 14.730469 C 25.453125 13.308594 26.253906 12.199219 27.523438 11.386719 C 28.242188 10.925781 28.960938 10.675781 29.671875 10.660156 Z M 29.511719 12.578125 C 29.101562 12.589844 28.691406 12.730469 28.273438 13 C 27.511719 13.484375 27.054688 14.1875 26.910156 15.105469 C 26.757812 16.019531 26.941406 17.007812 27.453125 18.085938 C 27.964844 19.175781 28.589844 19.894531 29.332031 20.230469 L 31.582031 20.015625 C 32.34375 19.523438 32.796875 18.832031 32.949219 17.925781 C 33.097656 17.015625 32.921875 16.011719 32.410156 14.925781 C 31.898438 13.839844 31.273438 13.132812 30.53125 12.796875 C 30.253906 12.664062 29.972656 12.589844 29.695312 12.578125 C 29.636719 12.578125 29.570312 12.578125 29.511719 12.578125 Z M 14.484375 18.285156 C 14.628906 18.28125 14.75 18.324219 14.839844 18.417969 C 15.136719 18.710938 15.117188 19.464844 14.773438 20.695312 C 14.53125 21.558594 14.191406 22.398438 13.765625 23.222656 C 13.332031 24.035156 12.847656 24.777344 12.300781 25.425781 C 12.777344 25.175781 13.074219 25.257812 13.1875 25.671875 C 13.300781 26.089844 13.21875 26.796875 12.9375 27.792969 C 12.511719 29.324219 11.890625 30.75 11.097656 32.078125 C 10.296875 33.398438 9.382812 34.515625 8.34375 35.417969 C 7.996094 35.714844 7.65625 35.964844 7.3125 36.15625 C 6.984375 36.34375 6.65625 36.484375 6.332031 36.566406 L 6.902344 34.542969 C 7.121094 34.609375 7.386719 34.574219 7.707031 34.425781 C 8.035156 34.28125 8.402344 34.035156 8.800781 33.679688 C 9.507812 33.070312 10.113281 32.34375 10.625 31.507812 C 11.140625 30.667969 11.539062 29.753906 11.816406 28.765625 C 12.074219 27.847656 12.097656 27.28125 11.898438 27.074219 C 11.703125 26.851562 11.304688 26.996094 10.691406 27.527344 L 9.71875 28.371094 L 10.199219 26.640625 L 11.207031 25.765625 C 11.761719 25.292969 12.25 24.722656 12.652344 24.054688 C 13.066406 23.382812 13.375 22.664062 13.59375 21.890625 C 13.8125 21.089844 13.832031 20.621094 13.644531 20.453125 C 13.464844 20.289062 13.097656 20.449219 12.53125 20.933594 C 12.226562 21.199219 11.875 21.542969 11.484375 21.972656 C 11.101562 22.40625 10.660156 22.9375 10.167969 23.5625 L 10.691406 21.699219 C 11.175781 21.105469 11.617188 20.597656 12.023438 20.160156 C 12.429688 19.730469 12.792969 19.363281 13.125 19.082031 C 13.710938 18.566406 14.164062 18.308594 14.484375 18.285156 Z M 54.601562 21.265625 C 51.496094 28.085938 47.53125 33.265625 42.453125 35.425781 L 43.226562 61.382812 C 44.554688 60.613281 44.800781 60.152344 45.382812 58.703125 L 62.695312 25.789062 C 62.933594 25.148438 62.957031 24.734375 62.570312 24.460938 C 59.722656 23.632812 57.269531 22.625 54.601562 21.265625 Z M 41.542969 25.8125 L 42.144531 27.089844 L 32.109375 32.191406 L 31.503906 30.921875 Z M 56.261719 30.601562 L 55.574219 32.46875 C 54.808594 33.527344 53.773438 34.953125 52.472656 36.738281 C 51.160156 38.53125 50.328125 39.679688 49.972656 40.1875 C 49.308594 41.144531 48.796875 41.929688 48.449219 42.539062 C 48.085938 43.164062 47.808594 43.738281 47.613281 44.273438 C 47.292969 45.148438 47.191406 45.789062 47.304688 46.210938 C 47.421875 46.621094 47.734375 46.714844 48.246094 46.496094 C 48.609375 46.34375 49.039062 46.066406 49.535156 45.644531 C 50.03125 45.238281 50.601562 44.691406 51.242188 44.003906 L 50.402344 46.242188 C 49.800781 46.796875 49.265625 47.253906 48.792969 47.609375 C 48.316406 47.964844 47.910156 48.21875 47.570312 48.363281 C 46.683594 48.730469 46.136719 48.609375 45.921875 47.980469 C 45.707031 47.355469 45.867188 46.332031 46.398438 44.90625 C 46.648438 44.230469 46.957031 43.566406 47.3125 42.902344 C 47.667969 42.246094 48.171875 41.433594 48.828125 40.46875 C 49 40.214844 49.527344 39.46875 50.417969 38.238281 L 54.175781 33.0625 L 50.125 34.773438 L 50.820312 32.902344 Z M 41.089844 35.941406 C 38.289062 36.808594 33.789062 36.992188 29.105469 37.058594 C 25.136719 37.097656 19.695312 36.769531 16.488281 37.375 C 14.617188 39.242188 12.601562 41.246094 10.625 43.015625 C 8.871094 44.535156 7.074219 46.117188 4.855469 46.847656 C 4.582031 46.867188 4.539062 46.839844 4.269531 46.808594 C 5.089844 47.570312 5.949219 48.035156 6.886719 48.582031 L 38.453125 61.6875 C 38.625 61.722656 40.367188 62.394531 41.796875 61.699219 Z M 25.921875 43.175781 C 26.058594 43.167969 26.203125 43.167969 26.34375 43.175781 C 26.503906 43.179688 26.652344 43.195312 26.8125 43.207031 C 28.054688 43.347656 29.042969 43.839844 29.777344 44.691406 C 30.308594 45.292969 30.527344 45.910156 30.425781 46.542969 C 30.328125 47.167969 29.917969 47.738281 29.222656 48.25 C 30.300781 48 31.308594 48 32.238281 48.246094 C 33.171875 48.484375 33.929688 48.941406 34.519531 49.621094 C 35.414062 50.652344 35.667969 51.625 35.289062 52.546875 C 34.917969 53.472656 33.945312 54.285156 32.351562 54.984375 C 30.765625 55.675781 29.304688 55.9375 27.96875 55.761719 C 26.640625 55.582031 25.539062 54.980469 24.640625 53.945312 C 24.054688 53.265625 23.820312 52.582031 23.941406 51.878906 C 24.058594 51.179688 24.519531 50.539062 25.320312 49.96875 L 25.320312 49.960938 C 24.351562 50.175781 23.453125 50.175781 22.613281 49.960938 C 21.789062 49.742188 21.109375 49.328125 20.578125 48.722656 C 19.84375 47.875 19.667969 47.023438 20.054688 46.171875 C 20.453125 45.316406 21.367188 44.578125 22.789062 43.949219 C 23.890625 43.472656 24.933594 43.207031 25.921875 43.175781 Z M 25.582031 44.65625 C 25.003906 44.667969 24.40625 44.824219 23.777344 45.09375 C 22.933594 45.464844 22.417969 45.894531 22.214844 46.414062 C 22.023438 46.921875 22.160156 47.460938 22.636719 48.011719 C 23.117188 48.558594 23.714844 48.886719 24.445312 48.992188 C 25.179688 49.097656 25.976562 48.964844 26.8125 48.59375 C 27.65625 48.230469 28.171875 47.792969 28.371094 47.273438 C 28.582031 46.757812 28.449219 46.222656 27.96875 45.675781 C 27.496094 45.121094 26.875 44.792969 26.136719 44.695312 C 25.953125 44.667969 25.765625 44.652344 25.582031 44.65625 Z M 29.820312 49.261719 C 29.171875 49.261719 28.5 49.421875 27.800781 49.726562 C 26.875 50.136719 26.300781 50.632812 26.082031 51.230469 C 25.867188 51.828125 26.039062 52.441406 26.597656 53.082031 C 27.152344 53.726562 27.859375 54.117188 28.703125 54.25 C 29.550781 54.382812 30.433594 54.246094 31.363281 53.839844 C 32.292969 53.433594 32.863281 52.929688 33.082031 52.332031 C 33.300781 51.730469 33.128906 51.105469 32.574219 50.46875 C 32.019531 49.828125 31.316406 49.445312 30.460938 49.3125 C 30.253906 49.277344 30.039062 49.261719 29.820312 49.261719 Z M 29.820312 49.261719 "/></g></svg>
