<svg xmlns="http://www.w3.org/2000/svg" xmlns:xlink="http://www.w3.org/1999/xlink" width="64" height="64" viewBox="0 0 64 64" version="1.1"><defs><linearGradient id="linear0" x1="0%" x2="0%" y1="0%" y2="100%"><stop offset="0%" style="stop-color:#ff0000; stop-opacity:1"/><stop offset="50%" style="stop-color:#ffd000; stop-opacity:1"/><stop offset="100%" style="stop-color:#0073ff; stop-opacity:1"/></linearGradient></defs><g id="surface1"><path style=" stroke:none;fill-rule:nonzero;fill:url(#linear0);" d="M 38.890625 2.734375 L 35.671875 6.335938 C 34.53125 6.171875 33.378906 6.085938 32.222656 6.074219 C 31.070312 6.085938 29.917969 6.175781 28.777344 6.339844 L 25.566406 2.746094 C 23.730469 3.164062 21.9375 3.757812 20.210938 4.511719 L 19.691406 9.339844 C 17.652344 10.457031 15.769531 11.84375 14.085938 13.464844 L 9.425781 12.480469 C 8.1875 13.917969 7.082031 15.472656 6.125 17.117188 L 8.496094 21.34375 C 7.496094 23.464844 6.773438 25.710938 6.351562 28.023438 L 1.984375 30.03125 C 1.894531 30.976562 1.847656 31.929688 1.84375 32.882812 C 1.851562 33.835938 1.90625 34.789062 2 35.742188 L 6.347656 37.734375 C 6.769531 40.050781 7.488281 42.304688 8.492188 44.429688 L 6.128906 48.644531 C 7.089844 50.289062 8.199219 51.839844 9.441406 53.277344 L 14.113281 52.292969 C 15.785156 53.921875 17.660156 55.320312 19.691406 56.449219 L 20.214844 61.28125 C 21.9375 62.03125 23.726562 62.613281 25.554688 63.027344 L 28.773438 59.425781 C 29.917969 59.589844 31.070312 59.675781 32.222656 59.6875 C 33.375 59.675781 34.527344 59.585938 35.667969 59.421875 L 38.878906 63.015625 C 40.714844 62.597656 42.507812 62.003906 44.234375 61.25 L 44.753906 56.425781 C 46.792969 55.304688 48.675781 53.917969 50.359375 52.296875 L 55.023438 53.28125 C 56.261719 51.84375 57.363281 50.289062 58.320312 48.644531 L 55.953125 44.417969 C 56.953125 42.296875 57.671875 40.050781 58.097656 37.738281 L 62.460938 35.730469 C 62.550781 34.785156 62.597656 33.832031 62.601562 32.882812 C 62.59375 31.925781 62.542969 30.972656 62.445312 30.023438 L 58.101562 28.027344 C 57.679688 25.710938 56.957031 23.457031 55.957031 21.332031 L 58.316406 17.117188 C 57.355469 15.472656 56.25 13.921875 55.007812 12.484375 L 50.335938 13.46875 C 48.664062 11.839844 46.785156 10.445312 44.753906 9.3125 L 44.230469 4.480469 C 42.507812 3.730469 40.722656 3.148438 38.890625 2.734375 Z M 32.222656 10.199219 C 44.527344 10.199219 54.5 20.355469 54.5 32.882812 C 54.5 45.40625 44.527344 55.5625 32.222656 55.5625 C 19.917969 55.5625 9.945312 45.40625 9.945312 32.882812 C 9.945312 20.355469 19.917969 10.199219 32.222656 10.199219 Z M 32.222656 14.324219 C 30.777344 17.925781 29.902344 20.285156 28.296875 23.777344 C 29.285156 24.835938 30.492188 26.074219 32.453125 27.464844 C 30.339844 26.582031 28.902344 25.695312 27.828125 24.777344 C 25.773438 29.144531 22.554688 35.375 16.019531 47.316406 C 21.15625 44.300781 25.132812 42.421875 28.839844 41.714844 C 28.679688 41.015625 28.59375 40.261719 28.601562 39.476562 L 28.605469 39.308594 C 28.683594 35.957031 30.394531 33.382812 32.421875 33.5625 C 34.453125 33.738281 36.03125 36.59375 35.945312 39.941406 C 35.933594 40.570312 35.859375 41.179688 35.742188 41.738281 C 39.410156 42.472656 43.355469 44.339844 48.425781 47.316406 C 47.425781 45.445312 46.527344 43.742188 45.675781 42.136719 C 44.332031 41.082031 42.9375 39.699219 40.078125 38.207031 C 42.039062 38.726562 43.445312 39.328125 44.539062 40 C 35.894531 23.605469 35.179688 21.40625 32.222656 14.324219 Z M 32.222656 14.324219 "/></g></svg>
