<svg xmlns="http://www.w3.org/2000/svg" xmlns:xlink="http://www.w3.org/1999/xlink" width="64" height="64" viewBox="0 0 64 64" version="1.1"><defs><linearGradient id="linear0" x1="0%" x2="0%" y1="0%" y2="100%"><stop offset="0%" style="stop-color:#ffd000; stop-opacity:1"/><stop offset="50%" style="stop-color:#24dbdb; stop-opacity:1"/><stop offset="100%" style="stop-color:#0073ff; stop-opacity:1"/></linearGradient></defs><g id="surface1"><path style=" stroke:none;fill-rule:nonzero;fill:url(#linear0);" d="M 15.070312 1.582031 C 11.945312 1.582031 9.554688 3.992188 9.554688 6.992188 L 9.554688 44.902344 C 9.554688 61.035156 20.589844 63.082031 31.628906 63.082031 C 42.667969 63.082031 53.699219 61.035156 53.699219 44.902344 L 53.699219 6.992188 C 53.699219 3.992188 51.308594 1.582031 48.183594 1.582031 Z M 20.246094 9.273438 L 43.011719 9.273438 C 45.1875 9.273438 46.804688 11.25 46.804688 12.796875 L 46.804688 33.929688 C 46.804688 35.78125 44.765625 37.453125 43.011719 37.453125 L 20.246094 37.453125 C 17.664062 37.453125 16.449219 35.480469 16.449219 33.929688 L 16.449219 12.796875 C 16.449219 11.25 18.144531 9.273438 20.246094 9.273438 Z M 27.488281 43.863281 L 35.765625 43.863281 L 35.765625 59.234375 L 27.488281 59.234375 Z M 15.628906 46.421875 L 21.152344 46.421875 L 21.152344 56.671875 C 21.152344 61.070312 12.871094 46.421875 15.628906 46.421875 Z M 42.667969 46.421875 L 48.183594 46.421875 C 50.941406 46.421875 42.667969 61.070312 42.667969 56.671875 Z M 42.667969 46.421875 "/></g></svg>
