<svg xmlns="http://www.w3.org/2000/svg" xmlns:xlink="http://www.w3.org/1999/xlink" width="64" height="64" viewBox="0 0 64 64" version="1.1"><defs><linearGradient id="linear0" x1="0%" x2="0%" y1="0%" y2="100%"><stop offset="0%" style="stop-color:#24dbdb; stop-opacity:1"/><stop offset="100%" style="stop-color:#174475; stop-opacity:1"/></linearGradient></defs><g id="surface1"><path style=" stroke:none;fill-rule:nonzero;fill:url(#linear0);" d="M 7.996094 1.535156 C 7.996094 8.023438 13.691406 13.25 20.765625 13.25 L 38.652344 13.25 C 41.480469 13.25 43.757812 15.339844 43.757812 17.9375 C 43.757812 20.535156 41.480469 22.625 38.652344 22.625 L 34.816406 22.625 C 24.910156 22.625 17.601562 30.117188 15.660156 39.027344 L 10.546875 62.464844 C 17.625 62.464844 25.992188 57.148438 27.152344 50.746094 C 28.429688 43.714844 32.261719 34.34375 37.375 34.34375 L 41.203125 34.34375 C 51.113281 34.34375 59.085938 27.023438 59.085938 17.9375 C 59.085938 8.851562 51.113281 1.535156 41.203125 1.535156 Z M 7.996094 1.535156 "/></g></svg>
