<svg xmlns="http://www.w3.org/2000/svg" xmlns:xlink="http://www.w3.org/1999/xlink" width="64" height="64" viewBox="0 0 64 64" version="1.1"><defs><linearGradient id="linear0" x1="0%" x2="100%" y1="0%" y2="100%"><stop offset="0%" style="stop-color:#ff0000; stop-opacity:1"/><stop offset="100%" style="stop-color:#6a00ff; stop-opacity:1"/></linearGradient></defs><g id="surface1"><path style=" stroke:none;fill-rule:nonzero;fill:url(#linear0);" d="M 15.613281 1.121094 C 14.070312 1.828125 12.582031 2.652344 11.175781 3.582031 C 11.496094 4.820312 11.835938 6.109375 12.066406 6.953125 C 12.640625 8.84375 14.316406 14.140625 15.09375 14.230469 C 15.605469 14.292969 14.679688 7.046875 14.816406 4.648438 C 14.875 3.5625 15.175781 2.34375 15.617188 1.121094 Z M 26.050781 2.707031 C 25.378906 2.660156 24.75 3.4375 24.710938 5.441406 C 24.640625 9.335938 22.316406 12.84375 20.464844 16.03125 C 18.625 19.195312 20.433594 20.167969 22.671875 17.816406 C 25.082031 15.285156 27.476562 9.714844 27.714844 6.160156 C 27.851562 4.207031 26.914062 2.785156 26.050781 2.726562 Z M 3.5625 10.449219 C 2.570312 11.640625 1.660156 12.902344 0.839844 14.230469 C 2.382812 16.367188 3.585938 18.75 3.46875 21.816406 C 3.28125 27.066406 -0.691406 33.234375 2.527344 38.296875 C 4.554688 41.472656 18.992188 49.503906 30.3125 49.347656 C 30.519531 49.347656 30.402344 49.257812 30.046875 49.105469 C 27.09375 47.820312 7.261719 41.777344 6.085938 37.734375 C 5.820312 36.804688 5.910156 36.027344 8.394531 36.070312 C 15.703125 36.210938 13.320312 42.464844 25.742188 42.113281 C 28.460938 41.992188 31.253906 40.9375 32.929688 39.019531 C 34.945312 36.882812 35.925781 34.257812 37.265625 33.246094 C 44 28.167969 43.515625 29.171875 46.117188 27.691406 C 51.234375 24.792969 48.011719 20.65625 46.117188 22.824219 C 43.851562 25.417969 39.972656 23.4375 34.769531 23.359375 C 30.914062 22.960938 23.652344 25.496094 19.773438 28.03125 C 13.554688 32.09375 14.421875 27.515625 13.363281 23.589844 C 13.289062 24.125 12.6875 28.292969 13.363281 30.976562 C 10.453125 32.03125 9.921875 32.105469 7.484375 32.046875 C 6.632812 32.046875 4.761719 32.226562 4.804688 29.816406 C 4.851562 27.558594 5.304688 25.804688 5.617188 23.941406 C 5.804688 22.785156 5.957031 21.5625 5.910156 20.140625 C 5.808594 16.847656 4.613281 13.683594 3.542969 10.464844 Z M 44.277344 14.230469 C 36.285156 14.171875 25.167969 16.613281 26.636719 19.3125 C 27.0625 20.105469 27.773438 20.445312 28.683594 20.472656 C 31.285156 20.546875 35.519531 18.15625 39.253906 17.191406 C 41.972656 16.488281 46.085938 16.839844 48.882812 16.90625 C 50.984375 16.96875 52.335938 16.871094 51.808594 16.078125 C 50.949219 14.808594 47.957031 14.261719 44.324219 14.230469 Z M 62.800781 37.429688 C 61.839844 38.4375 60.9375 39.460938 60.242188 40.285156 C 51.867188 50.324219 45.984375 62.5625 13.644531 53.835938 C 5.117188 51.515625 1.765625 50.921875 9.367188 55.238281 C 32.300781 68.273438 48.617188 61.828125 56.703125 53.652344 C 59.9375 48.964844 62.082031 43.441406 62.773438 37.476562 Z M 62.800781 37.429688 "/></g></svg>
