<svg xmlns="http://www.w3.org/2000/svg" xmlns:xlink="http://www.w3.org/1999/xlink" width="64" height="64" viewBox="0 0 64 64" version="1.1"><defs><linearGradient id="linear0" x1="0%" x2="0%" y1="0%" y2="100%"><stop offset="0%" style="stop-color:#ff0000; stop-opacity:1"/><stop offset="50%" style="stop-color:#ffd000; stop-opacity:1"/><stop offset="100%" style="stop-color:#0073ff; stop-opacity:1"/></linearGradient></defs><g id="surface1"><path style=" stroke:none;fill-rule:nonzero;fill:url(#linear0);" d="M 22.316406 1.878906 C 21.597656 2.492188 20.894531 3.113281 20.21875 3.757812 C 20.960938 3.546875 21.984375 3.4375 23.242188 3.75 C 24.601562 4.09375 27.878906 5.167969 31.109375 6.34375 C 31.378906 6.660156 31.492188 7.019531 31.257812 7.421875 C 30.480469 8.707031 30.429688 9.234375 31.746094 9.308594 C 33.0625 9.378906 33.855469 7.824219 35.457031 8.449219 C 37.058594 9.074219 35.5625 11.113281 37.179688 11.472656 C 38.804688 11.824219 39.484375 11.601562 40.445312 11.921875 C 41.414062 12.246094 44.847656 14.554688 44.425781 15.597656 C 44.007812 16.632812 40.957031 13.808594 39.917969 14.28125 C 38.890625 14.761719 37.167969 15.457031 38.441406 16.058594 C 39.703125 16.664062 43.660156 16.882812 45.191406 18.300781 C 46.078125 19.121094 46.578125 19.734375 47.027344 19.957031 C 47.027344 19.972656 47.027344 19.984375 47.027344 19.996094 C 47.027344 19.996094 51.136719 21.175781 51.230469 21.941406 C 51.300781 22.46875 52.394531 24.191406 53.195312 25.589844 C 53.367188 26.058594 53.457031 26.695312 52.996094 27.441406 C 52.703125 27.796875 52.371094 28.183594 52 28.546875 C 51.316406 29.125 50.558594 29.566406 50.199219 29.652344 C 49.675781 29.769531 48.046875 29.117188 48.046875 29.117188 L 48.046875 29.125 L 45.53125 28.019531 C 45.53125 28.019531 46.28125 30.316406 48.707031 31.320312 C 51.136719 32.328125 50.328125 34.367188 48.585938 36.347656 C 46.835938 38.332031 42.636719 39.640625 42.636719 39.640625 C 42.636719 39.640625 41.828125 34.570312 41.289062 33.503906 C 40.75 32.4375 39.59375 31.332031 39.339844 30.621094 C 39.085938 29.914062 41.644531 25.726562 41.445312 24.328125 C 41.25 22.929688 39.113281 18.652344 34.449219 18.042969 C 34.449219 18.042969 34.34375 11.96875 30.875 12.121094 C 30.875 12.121094 34.042969 15.414062 30.289062 18.847656 C 28.992188 20.039062 28.195312 20.617188 27.710938 20.886719 C 25.636719 20.011719 23.242188 20.359375 23.242188 20.359375 C 23.242188 20.359375 24.457031 20.949219 26.304688 21.402344 C 28.148438 21.851562 27.515625 25.445312 27.515625 25.445312 C 28.378906 26.363281 29.367188 25.90625 29.367188 25.90625 C 31.054688 24.828125 30.363281 22.753906 28.839844 21.542969 C 29.800781 20.738281 31.5625 19.480469 33.054688 19.691406 C 35.226562 19.984375 37.917969 21.695312 38.625 24.339844 C 39.34375 26.980469 36.96875 28.929688 34.117188 29.117188 C 31.273438 29.304688 20.707031 27.84375 20.707031 27.84375 C 20.707031 27.84375 21.605469 28.40625 21.214844 29.253906 C 20.832031 30.101562 20.113281 31.105469 20.113281 31.105469 C 20.113281 31.105469 22.765625 29.511719 29.007812 30.042969 C 35.253906 30.5625 37.378906 31.554688 39.59375 34.976562 C 41.8125 38.394531 39.828125 43.128906 38.472656 44.269531 C 37.113281 45.40625 31.441406 45.441406 30.71875 46.609375 C 29.992188 47.785156 31.761719 49.085938 32 49.96875 C 32.234375 50.851562 30.929688 51.476562 30.929688 51.476562 C 30.929688 51.476562 34.476562 50.457031 36.960938 50.773438 C 39.453125 51.089844 43.976562 53.25 43.976562 53.25 C 43.976562 53.25 43.015625 53.546875 43.285156 54.082031 C 43.554688 54.613281 44.132812 55.160156 43.773438 55.664062 C 43.414062 56.164062 42.453125 56.453125 42.453125 56.453125 C 42.453125 56.453125 43.992188 56.726562 45.027344 55.738281 C 46.054688 54.757812 44.191406 54.472656 44.859375 53.992188 C 45.53125 53.507812 46.765625 53.753906 46.765625 53.753906 C 46.765625 53.753906 45.84375 53.519531 44.414062 51.882812 C 42.980469 50.242188 42.425781 49.34375 40.238281 49.222656 C 38.046875 49.097656 35.527344 49.132812 35.527344 49.132812 C 35.527344 49.132812 33.402344 48.316406 34.433594 47.328125 C 35.46875 46.347656 42.710938 46.0625 42.710938 46.0625 C 42.710938 46.0625 40.609375 44.902344 40.6875 44.042969 C 40.761719 43.179688 42.46875 41.546875 45.390625 40.5 C 48.316406 39.449219 50.679688 37.671875 50.988281 34.050781 C 51.175781 31.933594 51.679688 30.800781 52.46875 29.964844 C 52.738281 29.8125 53.515625 29.378906 53.894531 29.367188 C 54.121094 29.363281 54.234375 29.585938 54.304688 29.816406 C 54.40625 31.207031 54.480469 32.671875 54.542969 33.273438 C 54.664062 34.351562 55.90625 37.472656 54.609375 39.902344 C 54.074219 40.90625 53.675781 41.566406 53.328125 42.128906 C 53.328125 42.140625 53.316406 42.152344 53.316406 42.152344 C 53.253906 42.253906 53.171875 42.382812 53.113281 42.472656 C 52.992188 42.632812 52.828125 42.796875 52.609375 42.859375 C 52.132812 43.003906 51.152344 42.53125 51.128906 42.515625 C 50.398438 42.171875 49.691406 41.894531 49.230469 41.855469 C 47.601562 41.722656 47.628906 41.878906 47.644531 42.316406 C 47.675781 42.898438 48.347656 42.738281 50.539062 44.183594 C 51.570312 44.867188 52.058594 46.675781 52.292969 48.402344 C 52.339844 49.671875 52.328125 50.902344 52.085938 51.578125 C 51.78125 52.414062 50.933594 54.191406 50.179688 55.703125 C 50.1875 55.691406 50.230469 55.515625 50.230469 55.515625 C 50.230469 55.515625 48.664062 58.351562 46.683594 58.246094 C 44.707031 58.132812 48.269531 58.824219 48.742188 59.574219 C 48.597656 60.261719 48.304688 61.082031 47.730469 61.726562 C 47.515625 61.96875 47.359375 62.214844 47.214844 62.460938 L 49.175781 62.675781 C 49.519531 61.996094 49.855469 61.332031 50.203125 60.789062 C 51.210938 59.226562 53.332031 54.699219 54.121094 53.128906 C 54.902344 51.554688 54.945312 46.191406 55.378906 43.707031 C 55.8125 41.222656 56.363281 39.828125 56.71875 38.234375 C 57.078125 36.640625 57.328125 28.59375 55.492188 24.726562 C 53.660156 20.867188 51.421875 19.132812 51.421875 19.132812 C 51.421875 19.132812 44.527344 11.046875 41.253906 8.714844 C 38.40625 6.679688 29.492188 2.398438 22.316406 1.878906 M 25.535156 6.5625 C 24.46875 6.628906 22.628906 7.496094 21.226562 7.421875 C 20.222656 7.363281 18.800781 6.992188 17.363281 6.6875 C 17.039062 7.050781 16.722656 7.410156 16.410156 7.785156 C 18.050781 8.144531 20.296875 8.886719 22.039062 8.847656 C 24.238281 8.792969 26.863281 7.734375 26.304688 6.835938 C 26.164062 6.609375 25.894531 6.546875 25.535156 6.5625 M 24.164062 11.273438 C 22.972656 11.332031 20.90625 12.097656 20.085938 13.242188 L 19.679688 13.816406 C 18.320312 13.800781 16.988281 13.980469 15.878906 14.566406 C 12.914062 16.132812 14.285156 18.46875 14.285156 18.46875 C 14.285156 18.46875 16.4375 15.460938 19.625 14.949219 C 22.808594 14.433594 26.160156 15.84375 26.160156 15.84375 C 28.109375 15.082031 27.800781 14.894531 25.625 14.597656 C 24.753906 14.484375 23.496094 14.195312 22.097656 14.003906 C 21.925781 13.589844 21.695312 12.726562 22.65625 12.523438 C 23.945312 12.246094 25.535156 11.992188 24.957031 11.441406 C 24.851562 11.335938 24.652344 11.289062 24.394531 11.273438 C 24.320312 11.273438 24.242188 11.273438 24.164062 11.273438 M 11.917969 14.21875 C 10.972656 15.875 10.167969 17.582031 9.476562 19.332031 C 10.152344 19.339844 10.484375 18.78125 10.519531 18.429688 C 10.558594 17.914062 10.359375 16.519531 11.648438 16.242188 C 12.929688 15.972656 14.605469 14.84375 14.605469 14.84375 C 14.605469 14.84375 13.125 14.761719 11.917969 14.21875 M 18.28125 20.199219 C 17.679688 20.222656 16.820312 20.585938 15.953125 20.988281 C 14.3125 21.761719 9.726562 27.570312 9.890625 29.3125 C 10.050781 31.058594 9.457031 34.320312 10.574219 35.945312 C 11.691406 37.570312 13.804688 38.5625 15.628906 39.351562 C 17.449219 40.152344 19.695312 39.578125 21.917969 39.351562 C 24.140625 39.136719 22.074219 37.460938 20.535156 37.023438 C 19 36.59375 18.875 38.144531 16.6875 38.019531 C 14.496094 37.898438 11.980469 34.121094 12.371094 29.628906 C 12.753906 25.144531 19.082031 21.171875 19.082031 21.171875 C 19.140625 20.488281 18.859375 20.222656 18.398438 20.203125 C 18.351562 20.199219 18.320312 20.199219 18.28125 20.203125 M 27.464844 33.980469 C 27.441406 33.976562 27.417969 33.980469 27.402344 33.988281 C 26.992188 34.039062 26.882812 34.917969 27.226562 36.1875 C 27.699219 37.945312 27.777344 40.730469 27.042969 41.90625 C 26.3125 43.078125 23.207031 46.191406 19.484375 45.636719 C 15.757812 45.082031 14.582031 44.148438 13.726562 43.058594 C 12.878906 41.964844 11.019531 41.695312 10.621094 42.710938 C 10.429688 43.179688 10.574219 43.71875 10.84375 44.222656 C 11.128906 46.753906 12.175781 54.496094 17.210938 55 C 23.109375 55.59375 28.328125 54.425781 31.15625 56.183594 C 33.984375 57.933594 30.570312 59.199219 30.570312 59.199219 C 30.570312 59.199219 30.070312 61.03125 32.832031 59.726562 C 35.597656 58.410156 33.332031 60 33.632812 59.929688 C 33.9375 59.855469 33.65625 59.925781 33.65625 59.925781 C 33.65625 59.917969 33.667969 59.917969 33.667969 59.917969 C 33.757812 59.890625 36.046875 59.265625 37.339844 59.324219 C 38.640625 59.382812 40.980469 60.292969 40.980469 60.292969 C 40.980469 60.292969 40.121094 58.652344 37.828125 58.453125 C 36.539062 58.339844 35.078125 58.453125 34.015625 58.582031 C 34.0625 57.613281 33.894531 56.351562 33.003906 55.890625 C 31.582031 55.144531 29.480469 54.496094 28.542969 53.90625 C 27.605469 53.320312 20.765625 54.082031 18.976562 53.722656 C 15.234375 52.957031 15.71875 50.316406 14.40625 48.25 C 14.175781 47.886719 13.980469 47.457031 13.828125 47 C 13.894531 47.023438 13.941406 47.042969 14.015625 47.066406 C 15.847656 47.691406 19.539062 48.585938 22.742188 47.902344 C 25.945312 47.214844 29.097656 43.574219 29.207031 42.367188 C 29.3125 41.152344 30.269531 37.402344 31.351562 35.730469 C 31.351562 35.730469 28.878906 35.242188 28.015625 34.328125 C 27.800781 34.105469 27.621094 33.988281 27.464844 33.980469 "/></g></svg>
