<svg xmlns="http://www.w3.org/2000/svg" xmlns:xlink="http://www.w3.org/1999/xlink" width="64" height="64" viewBox="0 0 64 64" version="1.1"><defs><linearGradient id="linear0" x1="0%" x2="100%" y1="0%" y2="100%"><stop offset="0%" style="stop-color:#00b54e; stop-opacity:1"/><stop offset="100%" style="stop-color:#0073ff; stop-opacity:1"/></linearGradient></defs><g id="surface1"><path style=" stroke:none;fill-rule:nonzero;fill:url(#linear0);" d="M 29.175781 34.804688 L 35.960938 34.804688 L 34.28125 26.199219 L 29.175781 34.804688 M 22.644531 41.371094 L 22.890625 40.089844 L 24.511719 40.089844 L 34.453125 23.257812 L 36.53125 23.257812 L 39.804688 40.089844 L 41.609375 40.089844 L 41.367188 41.371094 L 34.636719 41.371094 L 34.882812 40.089844 L 36.945312 40.089844 L 36.1875 36.109375 L 28.40625 36.109375 L 26.0625 40.089844 L 28.09375 40.089844 L 27.851562 41.371094 L 22.644531 41.371094 "/><path style=" stroke:none;fill-rule:nonzero;fill:url(#linear0);" d="M 32.128906 1.640625 C 27.773438 1.640625 23.636719 2.515625 19.871094 4.089844 L 43.4375 24.890625 L 43.4375 3.71875 C 39.925781 2.386719 36.117188 1.640625 32.128906 1.640625 Z M 46.917969 5.265625 L 46.917969 40.835938 L 62.222656 40.835938 C 63.019531 38.136719 63.445312 35.269531 63.445312 32.316406 C 63.445312 20.613281 56.757812 10.4375 46.917969 5.265625 Z M 16.496094 5.742188 C 7.125 11.046875 0.8125 20.957031 0.8125 32.316406 C 0.8125 35.535156 1.3125 38.644531 2.253906 41.558594 L 29.847656 17.511719 Z M 17.339844 32.984375 L 3.613281 44.9375 C 6.457031 51.089844 11.285156 56.191406 17.339844 59.371094 Z M 20.820312 44.246094 L 20.820312 60.914062 C 24.332031 62.246094 28.140625 62.992188 32.128906 62.992188 C 45.101562 62.992188 56.21875 55.257812 60.976562 44.246094 Z M 20.820312 44.246094 "/></g></svg>
