<svg xmlns="http://www.w3.org/2000/svg" xmlns:xlink="http://www.w3.org/1999/xlink" width="64" height="64" viewBox="0 0 64 64" version="1.1"><defs><linearGradient id="linear0" x1="0%" x2="100%" y1="0%" y2="100%"><stop offset="0%" style="stop-color:#ae00ff; stop-opacity:1"/><stop offset="100%" style="stop-color:#0084ff; stop-opacity:1"/></linearGradient></defs><g id="surface1"><path style=" stroke:none;fill-rule:evenodd;fill:url(#linear0);" d="M 48.8125 13.230469 L 44.117188 17.527344 C 46.414062 20.125 49.453125 26.332031 49.511719 28.371094 C 42.554688 28.371094 38.347656 33.082031 38.355469 39.957031 C 38.359375 46.824219 43.433594 51.8125 50.382812 51.8125 C 57.335938 51.8125 63.367188 46.269531 63.367188 39.402344 C 63.296875 27.324219 55.90625 17.945312 48.8125 13.230469 M 13.886719 13.242188 C 6.933594 13.242188 0.902344 18.777344 0.902344 25.648438 C 0.96875 37.722656 8.363281 47.105469 15.457031 51.816406 L 20.15625 47.535156 C 17.855469 44.9375 14.8125 38.71875 14.761719 36.683594 C 21.71875 36.679688 25.921875 31.964844 25.921875 25.101562 C 25.914062 18.230469 20.839844 13.230469 13.894531 13.242188 M 31.234375 28.710938 C 29.234375 28.710938 27.617188 30.417969 27.617188 32.523438 C 27.617188 34.640625 29.234375 36.34375 31.234375 36.34375 C 33.234375 36.34375 34.859375 34.640625 34.859375 32.523438 L 34.859375 32.519531 C 34.851562 30.414062 33.234375 28.710938 31.234375 28.710938 "/></g></svg>
