<svg xmlns="http://www.w3.org/2000/svg" xmlns:xlink="http://www.w3.org/1999/xlink" width="64" height="64" viewBox="0 0 64 64" version="1.1"><defs><linearGradient id="linear0" x1="0%" x2="100%" y1="0%" y2="100%"><stop offset="0%" style="stop-color:#e5ff00; stop-opacity:1"/><stop offset="50%" style="stop-color:#0073ff; stop-opacity:1"/><stop offset="100%" style="stop-color:#ff0000; stop-opacity:1"/></linearGradient></defs><g id="surface1"><path style=" stroke:none;fill-rule:nonzero;fill:url(#linear0);" d="M 30.640625 25.167969 C 30.640625 29.460938 27.0625 32.941406 22.648438 32.941406 C 18.238281 32.941406 14.660156 29.460938 14.660156 25.167969 C 14.660156 20.875 18.238281 17.398438 22.648438 17.398438 C 27.0625 17.398438 30.640625 20.875 30.640625 25.167969 Z M 30.640625 25.167969 "/><path style=" stroke:none;fill-rule:nonzero;fill:url(#linear0);" d="M 0.867188 31.960938 C 0.867188 36.164062 1.699219 40.164062 3.359375 43.953125 C 5.019531 47.742188 7.21875 51.035156 9.957031 53.839844 C 12.699219 56.640625 16.019531 58.847656 19.921875 60.453125 C 23.824219 62.058594 27.851562 62.863281 32 62.863281 C 36.148438 62.863281 40.175781 62.058594 44.074219 60.453125 C 47.980469 58.847656 51.296875 56.640625 54.042969 53.839844 C 56.78125 51.035156 58.980469 47.742188 60.640625 43.953125 C 62.300781 40.164062 63.128906 36.164062 63.128906 31.960938 C 63.128906 27.757812 62.300781 23.761719 60.640625 19.972656 C 58.980469 16.183594 56.78125 12.886719 54.042969 10.082031 C 51.296875 7.28125 48 5.097656 44.140625 3.53125 C 40.28125 1.96875 36.234375 1.144531 32 1.0625 C 27.765625 1.0625 23.738281 1.886719 19.921875 3.53125 C 16.105469 5.179688 12.78125 7.363281 9.957031 10.082031 C 7.136719 12.800781 4.9375 16.101562 3.359375 19.972656 C 1.78125 23.847656 0.949219 27.84375 0.867188 31.960938 Z M 8.652344 31.960938 C 8.652344 27.757812 9.691406 23.886719 11.761719 20.34375 C 13.839844 16.796875 16.6875 14 20.296875 11.941406 C 23.902344 9.875 27.808594 8.828125 32 8.785156 C 36.191406 8.746094 40.09375 9.796875 43.703125 11.941406 C 47.3125 14.082031 50.160156 16.882812 52.234375 20.34375 C 54.308594 23.804688 55.347656 27.679688 55.347656 31.960938 C 55.347656 36.246094 54.308594 40.140625 52.234375 43.644531 C 50.160156 47.144531 47.3125 49.949219 43.703125 52.046875 C 40.09375 54.152344 36.191406 55.179688 32 55.136719 C 27.808594 55.097656 23.902344 54.066406 20.296875 52.046875 C 16.6875 50.03125 13.839844 47.230469 11.761719 43.644531 C 9.691406 40.058594 8.652344 36.164062 8.652344 31.960938 Z M 8.652344 31.960938 "/></g></svg>
