<svg xmlns="http://www.w3.org/2000/svg" xmlns:xlink="http://www.w3.org/1999/xlink" width="64" height="64" viewBox="0 0 64 64" version="1.1"><defs><linearGradient id="linear0" x1="0%" x2="100%" y1="0%" y2="100%"><stop offset="0%" style="stop-color:#ae00ff; stop-opacity:1"/><stop offset="100%" style="stop-color:#0084ff; stop-opacity:1"/></linearGradient></defs><g id="surface1"><path style=" stroke:none;fill-rule:nonzero;fill:url(#linear0);" d="M 1.511719 22.675781 L 62.605469 22.675781 L 62.605469 57.414062 L 55.554688 63.203125 L 8.5625 63.203125 L 1.511719 57.414062 Z M 1.511719 22.675781 "/><path style=" stroke:none;fill-rule:nonzero;fill:url(#linear0);" d="M 19.023438 1.320312 L 44.851562 1.320312 L 47.4375 11.085938 L 16.441406 11.085938 Z M 19.023438 1.320312 "/><path style=" stroke:none;fill-rule:nonzero;fill:url(#linear0);" d="M 18.910156 1.074219 L 11.035156 9.089844 L 11.035156 22.457031 L 18.910156 22.457031 Z M 45.164062 1.074219 L 45.164062 22.457031 L 53.042969 22.457031 L 53.042969 9.089844 Z M 45.164062 1.074219 "/><path style=" stroke:none;fill-rule:nonzero;fill:rgb(97.254902%,97.254902%,97.254902%);fill-opacity:1;" d="M 23.722656 28.167969 L 23.722656 58.039062 L 33.078125 58.039062 L 33.078125 49.503906 L 35.417969 49.503906 C 41.894531 49.503906 47.105469 44.746094 47.105469 38.839844 C 47.105469 32.925781 41.894531 28.167969 35.417969 28.167969 Z M 33.078125 36.703125 L 35.417969 36.703125 C 36.710938 36.703125 37.757812 37.65625 37.757812 38.839844 C 37.757812 40.019531 36.710938 40.96875 35.417969 40.96875 L 33.078125 40.96875 Z M 33.078125 36.703125 "/></g></svg>
