<svg xmlns="http://www.w3.org/2000/svg" xmlns:xlink="http://www.w3.org/1999/xlink" width="64" height="64" viewBox="0 0 64 64" version="1.1"><defs><linearGradient id="linear0" x1="100%" x2="0%" y1="100%" y2="0%"><stop offset="0%" style="stop-color:#00b54e; stop-opacity:1"/><stop offset="100%" style="stop-color:#ff0000; stop-opacity:1"/></linearGradient></defs><g id="surface1"><path style=" stroke:none;fill-rule:nonzero;fill:url(#linear0);" d="M 27.976562 55.332031 C 27.597656 55.460938 27.21875 55.59375 26.84375 55.707031 C 27.21875 55.59375 27.613281 55.460938 27.976562 55.332031 "/><path style=" stroke:none;fill-rule:nonzero;fill:url(#linear0);" d="M 32.867188 1.976562 C 30.183594 1.976562 27.761719 3.050781 26.011719 4.804688 C 24.253906 6.550781 23.167969 8.976562 23.167969 11.636719 C 23.167969 14.304688 24.253906 16.726562 26.011719 18.472656 C 27.761719 20.21875 30.183594 21.304688 32.867188 21.304688 C 35.539062 21.304688 37.964844 20.21875 39.726562 18.472656 C 41.484375 16.726562 42.566406 14.304688 42.566406 11.636719 C 42.566406 8.976562 41.484375 6.550781 39.726562 4.804688 C 37.964844 3.050781 35.539062 1.976562 32.867188 1.976562 M 32.785156 24.570312 C 32.074219 24.609375 22.78125 24.664062 21.96875 30.335938 C 21.914062 30.726562 21.886719 31.203125 21.886719 31.746094 C 21.886719 39.460938 27.019531 61.835938 27.019531 61.835938 C 27.019531 61.835938 27.273438 63.621094 29.40625 63.621094 L 36.253906 63.621094 C 38.398438 63.621094 38.636719 61.847656 38.636719 61.835938 C 38.636719 61.835938 43.765625 39.460938 43.765625 31.746094 C 43.765625 31.203125 43.746094 30.726562 43.691406 30.335938 C 42.882812 24.664062 33.585938 24.570312 32.875 24.570312 L 32.785156 24.570312 "/></g></svg>
