<svg xmlns="http://www.w3.org/2000/svg" xmlns:xlink="http://www.w3.org/1999/xlink" width="64" height="64" viewBox="0 0 64 64" version="1.1"><defs><linearGradient id="linear0" x1="0%" x2="100%" y1="0%" y2="100%"><stop offset="0%" style="stop-color:#00b54e; stop-opacity:1"/><stop offset="100%" style="stop-color:#0073ff; stop-opacity:1"/></linearGradient></defs><g id="surface1"><use xlink:href="#surface16"/><path style=" stroke:none;fill-rule:nonzero;fill:url(#linear0);" d="M 15.976562 4 C 10.945312 4.058594 7.261719 3.878906 4.246094 5.539062 C 2.691406 6.429688 1.503906 7.84375 0.898438 9.53125 C 0.238281 11.285156 0 13.371094 0 16 L 0 48 C 0 50.632812 0.238281 52.714844 0.898438 54.46875 C 1.554688 56.222656 2.742188 57.628906 4.246094 58.460938 C 7.261719 60.125 10.945312 59.941406 15.976562 60 L 48.023438 60 C 53.054688 59.941406 56.738281 60.121094 59.753906 58.460938 C 61.308594 57.570312 62.5 56.15625 63.105469 54.46875 C 63.761719 52.714844 64 50.628906 64 48 L 64 16 C 64 13.367188 63.761719 11.285156 63.101562 9.53125 C 62.496094 7.84375 61.308594 6.429688 59.753906 5.539062 C 56.738281 3.875 53.054688 4.058594 48.023438 4 Z M 16 8 L 48 8 C 53.035156 8.058594 56.347656 8.238281 57.8125 9.046875 C 58.546875 9.449219 58.972656 9.894531 59.359375 10.9375 C 59.746094 11.976562 60 13.632812 60 16 L 60 48 C 60 50.367188 59.746094 52.023438 59.359375 53.0625 C 58.96875 54.105469 58.546875 54.546875 57.8125 54.953125 C 56.347656 55.761719 53.035156 55.941406 48 56 L 16 56 C 10.964844 55.941406 7.640625 55.761719 6.179688 54.953125 C 5.449219 54.550781 5.03125 54.105469 4.640625 53.0625 C 4.253906 52.023438 4 50.367188 4 48 L 4 16 C 4 13.632812 4.253906 11.976562 4.640625 10.9375 C 5.03125 9.894531 5.449219 9.453125 6.179688 9.046875 C 7.644531 8.238281 10.964844 8.058594 16 8 Z M 16 8 "/><path style=" stroke:none;fill-rule:nonzero;fill:rgb(99.215686%,78.823531%,16.862746%);fill-opacity:1;" d="M 32 12 C 26.460938 12 22 16.460938 22 22 L 22 32 L 17 32 C 17 38.667969 17 45.332031 17 52 C 27 52 37 52 47 52 L 47 32 C 45.332031 32 43.667969 32 42 32 L 42 22 C 42 16.460938 37.539062 12 32 12 Z M 32 14.5 C 36.15625 14.5 39.5 18.402344 39.5 23.253906 L 39.5 32 L 24.5 32 L 24.5 23.253906 C 24.5 18.402344 27.84375 14.5 32 14.5 Z M 32 14.5 "/></g></svg>
