<svg xmlns="http://www.w3.org/2000/svg" xmlns:xlink="http://www.w3.org/1999/xlink" width="64" height="64" viewBox="0 0 64 64" version="1.1"><defs><linearGradient id="linear0" x1="0%" x2="100%" y1="0%" y2="100%"><stop offset="0%" style="stop-color:#6a00ff; stop-opacity:1"/><stop offset="50%" style="stop-color:#e0dd02; stop-opacity:1"/><stop offset="100%" style="stop-color:#00b54e; stop-opacity:1"/></linearGradient></defs><g id="surface1"><path style=" stroke:none;fill-rule:nonzero;fill:url(#linear0);" d="M 4.945312 1.769531 C 2.886719 1.769531 1.203125 3.644531 1.203125 5.941406 L 1.203125 12.320312 L 63.550781 12.320312 L 63.550781 5.941406 C 63.550781 3.644531 61.886719 1.769531 59.816406 1.769531 L 4.945312 1.769531 M 43.597656 4.546875 C 44.976562 4.546875 46.097656 5.804688 46.097656 7.335938 C 46.097656 8.875 44.976562 10.113281 43.597656 10.113281 C 42.222656 10.113281 41.109375 8.875 41.109375 7.335938 C 41.109375 5.804688 42.222656 4.546875 43.597656 4.546875 M 50.457031 4.546875 C 51.835938 4.546875 52.953125 5.804688 52.953125 7.335938 C 52.953125 8.875 51.835938 10.113281 50.457031 10.113281 C 49.085938 10.113281 47.972656 8.875 47.972656 7.335938 C 47.972656 5.804688 49.085938 4.546875 50.457031 4.546875 M 57.3125 4.546875 C 58.695312 4.546875 59.8125 5.804688 59.8125 7.335938 C 59.8125 8.875 58.695312 10.113281 57.3125 10.113281 C 55.941406 10.113281 54.824219 8.875 54.824219 7.335938 C 54.824219 5.804688 55.941406 4.546875 57.3125 4.546875 "/><path style=" stroke:none;fill-rule:nonzero;fill:url(#linear0);" d="M 1.203125 16.019531 L 1.203125 58.804688 C 1.203125 61.109375 2.886719 62.984375 4.945312 62.984375 L 59.816406 62.984375 C 61.875 62.984375 63.550781 61.109375 63.550781 58.804688 L 63.550781 16.019531 L 1.203125 16.019531 "/></g></svg>
