<svg xmlns="http://www.w3.org/2000/svg" xmlns:xlink="http://www.w3.org/1999/xlink" width="64" height="64" viewBox="0 0 64 64" version="1.1"><defs><linearGradient id="linear0" x1="0%" x2="0%" y1="0%" y2="100%"><stop offset="0%" style="stop-color:#24dbdb; stop-opacity:1"/><stop offset="100%" style="stop-color:#174475; stop-opacity:1"/></linearGradient></defs><g id="surface1"><use xlink:href="#surface16"/><path style=" stroke:none;fill-rule:nonzero;fill:url(#linear0);" d="M 15.976562 4 C 10.945312 4.058594 7.261719 3.878906 4.246094 5.539062 C 2.691406 6.429688 1.503906 7.84375 0.898438 9.53125 C 0.238281 11.285156 0 13.371094 0 16 L 0 48 C 0 50.632812 0.238281 52.714844 0.898438 54.46875 C 1.554688 56.222656 2.742188 57.628906 4.246094 58.460938 C 7.261719 60.125 10.945312 59.941406 15.976562 60 L 48.023438 60 C 53.054688 59.941406 56.738281 60.121094 59.753906 58.460938 C 61.308594 57.570312 62.5 56.15625 63.105469 54.46875 C 63.761719 52.714844 64 50.628906 64 48 L 64 16 C 64 13.367188 63.761719 11.285156 63.101562 9.53125 C 62.496094 7.84375 61.308594 6.429688 59.753906 5.539062 C 56.738281 3.875 53.054688 4.058594 48.023438 4 Z M 16 8 L 48 8 C 53.035156 8.058594 56.347656 8.238281 57.8125 9.046875 C 58.546875 9.449219 58.972656 9.894531 59.359375 10.9375 C 59.746094 11.976562 60 13.632812 60 16 L 60 48 C 60 50.367188 59.746094 52.023438 59.359375 53.0625 C 58.96875 54.105469 58.546875 54.546875 57.8125 54.953125 C 56.347656 55.761719 53.035156 55.941406 48 56 L 16 56 C 10.964844 55.941406 7.640625 55.761719 6.179688 54.953125 C 5.449219 54.550781 5.03125 54.105469 4.640625 53.0625 C 4.253906 52.023438 4 50.367188 4 48 L 4 16 C 4 13.632812 4.253906 11.976562 4.640625 10.9375 C 5.03125 9.894531 5.449219 9.453125 6.179688 9.046875 C 7.644531 8.238281 10.964844 8.058594 16 8 Z M 16 8 "/><path style=" stroke:none;fill-rule:evenodd;fill:rgb(91.764706%,70.19608%,1.960784%);fill-opacity:1;" d="M 33.132812 41.671875 L 30.1875 41.671875 L 28.664062 37.289062 L 20.953125 37.289062 L 19.394531 41.671875 L 16.457031 41.671875 L 23.347656 22.601562 L 26.265625 22.601562 Z M 21.824219 34.78125 L 27.792969 34.78125 L 25.476562 28.296875 C 25.148438 27.40625 24.929688 26.6875 24.820312 26.140625 C 24.65625 26.796875 24.441406 27.515625 24.167969 28.296875 Z M 41.414062 42 C 39.652344 42 38.25 41.351562 37.203125 40.050781 C 36.160156 38.753906 35.636719 36.96875 35.636719 34.695312 C 35.636719 32.445312 36.167969 30.671875 37.230469 29.371094 C 38.292969 28.074219 39.6875 27.425781 41.414062 27.425781 C 42.777344 27.425781 43.875 27.859375 44.710938 28.730469 L 44.710938 23.308594 L 47.542969 22 L 47.542969 41.671875 L 44.710938 41.671875 L 44.710938 40.691406 C 43.929688 41.5625 42.832031 42 41.414062 42 Z M 41.824219 39.328125 C 43.097656 39.328125 44.058594 38.800781 44.710938 37.746094 L 44.710938 31.621094 C 44.457031 31.203125 44.078125 30.84375 43.578125 30.542969 C 43.082031 30.242188 42.496094 30.09375 41.824219 30.09375 C 40.753906 30.09375 39.925781 30.492188 39.34375 31.292969 C 38.761719 32.09375 38.472656 33.226562 38.472656 34.695312 C 38.472656 36.078125 38.773438 37.195312 39.371094 38.046875 C 39.96875 38.902344 40.785156 39.328125 41.824219 39.328125 Z M 41.824219 39.328125 "/><path style=" stroke:none;fill-rule:evenodd;fill:rgb(92.941177%,19.215687%,27.450982%);fill-opacity:1;" d="M 46.097656 18.539062 C 45.992188 18.433594 45.886719 18.324219 45.78125 18.21875 C 42.128906 14.566406 37.148438 12.492188 32 12.492188 C 26.8125 12.492188 21.871094 14.566406 18.21875 18.21875 C 14.523438 21.871094 12.492188 26.851562 12.492188 32 C 12.492188 35.753906 13.554688 39.375 15.539062 42.476562 L 46.03125 18.59375 Z M 47.691406 20.441406 C 50.148438 23.773438 51.507812 27.832031 51.507812 32 C 51.507812 37.1875 49.433594 42.128906 45.78125 45.78125 C 42.128906 49.476562 37.148438 51.507812 32 51.507812 C 26.8125 51.507812 21.871094 49.476562 18.21875 45.78125 C 17.796875 45.363281 17.390625 44.929688 17.015625 44.476562 L 47.566406 20.542969 Z M 10 32 C 10 26.1875 12.324219 20.585938 16.433594 16.433594 C 20.542969 12.324219 26.148438 10 32 10 C 37.8125 10 43.414062 12.324219 47.566406 16.433594 C 51.675781 20.585938 54 26.1875 54 32 C 54 37.851562 51.675781 43.457031 47.566406 47.566406 C 43.414062 51.675781 37.8125 54 32 54 C 26.148438 54 20.542969 51.675781 16.433594 47.566406 C 12.324219 43.457031 10 37.851562 10 32 Z M 10 32 "/></g></svg>
