<svg xmlns="http://www.w3.org/2000/svg" xmlns:xlink="http://www.w3.org/1999/xlink" width="64" height="64" viewBox="0 0 64 64" version="1.1"><defs><linearGradient id="linear0" x1="0%" x2="100%" y1="0%" y2="100%"><stop offset="0%" style="stop-color:#00b54e; stop-opacity:1"/><stop offset="100%" style="stop-color:#0073ff; stop-opacity:1"/></linearGradient></defs><g id="surface1"><path style=" stroke:none;fill-rule:nonzero;fill:url(#linear0);" d="M 31.515625 1.824219 C 22.851562 1.824219 15.875 8.40625 15.875 16.585938 L 15.875 22.371094 C 15.875 23.261719 15.960938 24.132812 16.113281 24.980469 C 16.121094 24.980469 16.113281 24.980469 16.113281 24.980469 C 15.96875 25.109375 15.824219 25.234375 15.679688 25.359375 C 15.535156 25.488281 15.394531 25.617188 15.25 25.75 C 15.117188 25.882812 14.972656 26.015625 14.835938 26.148438 C 14.824219 26.160156 14.816406 26.171875 14.804688 26.183594 C 14.128906 26.851562 13.503906 27.558594 12.921875 28.296875 C 12.804688 28.445312 12.691406 28.597656 12.578125 28.753906 C 12.46875 28.902344 12.355469 29.054688 12.246094 29.207031 C 12.242188 29.21875 12.230469 29.234375 12.21875 29.253906 C 12.128906 29.386719 12.03125 29.519531 11.945312 29.652344 C 11.929688 29.667969 11.917969 29.691406 11.90625 29.710938 C 11.59375 30.179688 11.304688 30.667969 11.03125 31.160156 C 10.9375 31.328125 10.84375 31.492188 10.761719 31.664062 C 10.582031 32 10.417969 32.34375 10.261719 32.695312 C 10.226562 32.777344 10.1875 32.851562 10.152344 32.933594 C 10.113281 33.03125 10.066406 33.125 10.027344 33.222656 C 10.027344 33.222656 10.027344 33.230469 10.027344 33.230469 C 10.011719 33.269531 9.988281 33.320312 9.96875 33.363281 C 9.84375 33.675781 9.726562 33.984375 9.617188 34.300781 C 9.5625 34.453125 9.511719 34.597656 9.460938 34.75 C 9.429688 34.835938 9.40625 34.917969 9.378906 35 C 9.339844 35.132812 9.300781 35.265625 9.261719 35.398438 C 9.203125 35.582031 9.152344 35.769531 9.105469 35.957031 C 9.054688 36.140625 9.011719 36.316406 8.972656 36.5 C 8.964844 36.511719 8.964844 36.53125 8.960938 36.546875 C 8.917969 36.722656 8.878906 36.894531 8.847656 37.066406 C 8.839844 37.085938 8.839844 37.105469 8.835938 37.121094 C 8.800781 37.289062 8.773438 37.457031 8.742188 37.628906 C 8.738281 37.65625 8.730469 37.683594 8.726562 37.710938 C 8.714844 37.777344 8.703125 37.839844 8.691406 37.902344 C 8.675781 38.015625 8.660156 38.136719 8.640625 38.25 C 8.589844 38.605469 8.546875 38.964844 8.511719 39.328125 C 8.503906 39.382812 8.503906 39.441406 8.5 39.492188 C 8.492188 39.511719 8.492188 39.527344 8.492188 39.542969 C 8.449219 40.09375 8.425781 40.65625 8.425781 41.21875 C 8.425781 41.78125 8.449219 42.34375 8.492188 42.898438 C 8.539062 43.449219 8.609375 43.996094 8.691406 44.539062 C 8.722656 44.722656 8.753906 44.902344 8.785156 45.078125 C 8.851562 45.4375 8.929688 45.789062 9.015625 46.136719 C 9.101562 46.492188 9.199219 46.84375 9.300781 47.1875 C 9.402344 47.527344 9.515625 47.871094 9.636719 48.207031 C 9.761719 48.546875 9.890625 48.878906 10.027344 49.210938 C 10.09375 49.378906 10.167969 49.542969 10.242188 49.703125 C 10.386719 50.03125 10.539062 50.347656 10.703125 50.667969 C 10.863281 50.984375 11.03125 51.304688 11.214844 51.605469 C 11.480469 52.074219 11.765625 52.523438 12.066406 52.96875 C 12.464844 53.558594 12.894531 54.132812 13.347656 54.679688 C 13.527344 54.894531 13.707031 55.097656 13.890625 55.300781 C 13.945312 55.363281 14.003906 55.421875 14.054688 55.480469 C 15.023438 56.539062 16.097656 57.503906 17.261719 58.367188 C 17.550781 58.582031 17.847656 58.789062 18.148438 58.992188 C 18.601562 59.300781 19.0625 59.585938 19.539062 59.863281 C 19.699219 59.949219 19.859375 60.039062 20.023438 60.128906 C 20.023438 60.128906 20.023438 60.128906 20.027344 60.128906 C 20.347656 60.300781 20.675781 60.472656 21.003906 60.632812 C 21.339844 60.789062 21.667969 60.941406 22.011719 61.085938 C 22.015625 61.09375 22.015625 61.085938 22.015625 61.085938 C 22.1875 61.164062 22.355469 61.238281 22.527344 61.300781 C 22.527344 61.300781 22.53125 61.300781 22.53125 61.300781 C 23.566406 61.714844 24.640625 62.0625 25.746094 62.332031 C 26.117188 62.417969 26.492188 62.496094 26.867188 62.570312 C 27.242188 62.648438 27.621094 62.710938 28 62.765625 C 28.574219 62.84375 29.152344 62.914062 29.738281 62.953125 C 29.738281 62.953125 29.738281 62.953125 29.746094 62.953125 C 30.328125 62.996094 30.921875 63.019531 31.515625 63.019531 C 32.515625 63.019531 33.492188 62.960938 34.457031 62.84375 C 34.652344 62.820312 34.84375 62.792969 35.039062 62.765625 C 35.382812 62.710938 35.734375 62.652344 36.082031 62.589844 C 36.144531 62.578125 36.207031 62.558594 36.269531 62.554688 C 36.578125 62.492188 36.882812 62.425781 37.179688 62.351562 C 38.136719 62.128906 39.074219 61.84375 39.984375 61.503906 C 40.507812 61.3125 41.023438 61.097656 41.527344 60.867188 C 41.527344 60.867188 41.527344 60.863281 41.535156 60.863281 C 41.613281 60.824219 41.699219 60.789062 41.777344 60.746094 C 41.921875 60.679688 42.0625 60.617188 42.203125 60.546875 C 42.476562 60.414062 42.75 60.273438 43.011719 60.128906 C 43.335938 59.949219 43.652344 59.769531 43.964844 59.585938 C 44.277344 59.386719 44.582031 59.195312 44.886719 58.992188 C 45.03125 58.894531 45.1875 58.789062 45.332031 58.6875 C 45.332031 58.6875 45.332031 58.6875 45.339844 58.679688 C 45.488281 58.582031 45.628906 58.472656 45.777344 58.367188 C 46.503906 57.824219 47.195312 57.25 47.847656 56.632812 C 48.371094 56.140625 48.867188 55.621094 49.335938 55.085938 C 49.574219 54.816406 49.804688 54.539062 50.023438 54.261719 C 51.574219 52.300781 52.785156 50.089844 53.574219 47.699219 C 53.6875 47.355469 53.789062 47.011719 53.886719 46.664062 C 54.359375 44.925781 54.613281 43.101562 54.613281 41.21875 C 54.613281 40.902344 54.601562 40.59375 54.589844 40.28125 C 54.585938 40.222656 54.585938 40.160156 54.578125 40.101562 C 54.574219 40.007812 54.566406 39.921875 54.5625 39.832031 C 54.554688 39.722656 54.550781 39.621094 54.539062 39.511719 C 54.527344 39.375 54.515625 39.25 54.503906 39.121094 C 54.5 39.074219 54.492188 39.035156 54.492188 38.988281 C 54.476562 38.867188 54.460938 38.746094 54.449219 38.621094 C 54.4375 38.5625 54.429688 38.5 54.425781 38.441406 C 54.410156 38.320312 54.390625 38.203125 54.367188 38.078125 C 54.351562 37.957031 54.335938 37.832031 54.3125 37.710938 C 54.304688 37.683594 54.300781 37.65625 54.296875 37.628906 C 54.273438 37.492188 54.25 37.351562 54.222656 37.210938 C 54.191406 37.082031 54.171875 36.953125 54.140625 36.832031 C 54.109375 36.6875 54.078125 36.542969 54.046875 36.402344 C 54.011719 36.269531 53.976562 36.132812 53.941406 36 C 53.9375 35.980469 53.929688 35.949219 53.925781 35.929688 C 53.910156 35.875 53.898438 35.824219 53.886719 35.773438 C 53.847656 35.648438 53.8125 35.519531 53.777344 35.398438 C 53.738281 35.265625 53.699219 35.132812 53.660156 35 C 53.628906 34.910156 53.601562 34.832031 53.574219 34.746094 C 53.574219 34.738281 53.566406 34.738281 53.566406 34.730469 C 53.511719 34.5625 53.453125 34.394531 53.398438 34.234375 C 53.339844 34.070312 53.285156 33.914062 53.222656 33.753906 C 53.214844 33.75 53.210938 33.738281 53.210938 33.726562 C 53.1875 33.675781 53.164062 33.617188 53.140625 33.5625 C 53.097656 33.449219 53.050781 33.335938 53.003906 33.222656 C 52.9375 33.0625 52.871094 32.898438 52.796875 32.738281 C 52.722656 32.570312 52.648438 32.40625 52.570312 32.25 C 52.558594 32.222656 52.546875 32.199219 52.535156 32.175781 C 52.472656 32.039062 52.402344 31.90625 52.335938 31.769531 C 52.226562 31.566406 52.121094 31.359375 52.007812 31.15625 C 51.984375 31.113281 51.960938 31.074219 51.9375 31.03125 C 51.871094 30.914062 51.800781 30.789062 51.734375 30.679688 C 51.726562 30.667969 51.726562 30.660156 51.722656 30.65625 C 51.664062 30.5625 51.609375 30.464844 51.550781 30.367188 C 51.507812 30.300781 51.46875 30.230469 51.425781 30.167969 C 51.371094 30.082031 51.320312 30 51.269531 29.917969 C 51.21875 29.84375 51.164062 29.769531 51.113281 29.6875 C 51.101562 29.675781 51.09375 29.660156 51.085938 29.644531 C 50.988281 29.5 50.894531 29.359375 50.792969 29.214844 C 50.707031 29.089844 50.613281 28.96875 50.523438 28.847656 C 50.5 28.8125 50.484375 28.78125 50.460938 28.746094 C 50.421875 28.699219 50.382812 28.652344 50.347656 28.601562 C 50.269531 28.496094 50.1875 28.394531 50.109375 28.292969 C 49.882812 28.003906 49.648438 27.71875 49.410156 27.449219 C 49.398438 27.429688 49.394531 27.417969 49.382812 27.410156 C 49.367188 27.386719 49.347656 27.371094 49.335938 27.355469 C 49.222656 27.226562 49.109375 27.097656 48.996094 26.972656 C 48.992188 26.96875 48.984375 26.957031 48.980469 26.953125 C 48.855469 26.816406 48.730469 26.691406 48.597656 26.554688 C 48.570312 26.527344 48.535156 26.484375 48.503906 26.457031 C 48.398438 26.351562 48.296875 26.246094 48.195312 26.144531 C 48.148438 26.101562 48.109375 26.058594 48.066406 26.015625 C 47.96875 25.921875 47.871094 25.835938 47.78125 25.75 C 47.640625 25.617188 47.496094 25.488281 47.355469 25.359375 C 47.253906 25.269531 47.144531 25.175781 47.042969 25.089844 C 47.003906 25.046875 46.957031 25.011719 46.914062 24.980469 C 47.070312 24.132812 47.15625 23.261719 47.15625 22.371094 L 47.15625 16.585938 C 47.15625 8.40625 40.183594 1.824219 31.515625 1.824219 M 31.515625 8.828125 C 36.742188 8.828125 40.953125 12.796875 40.953125 17.734375 L 40.953125 21.222656 C 40.953125 21.253906 40.949219 21.289062 40.949219 21.320312 C 38.070312 20.101562 34.878906 19.421875 31.515625 19.421875 C 28.15625 19.421875 24.96875 20.097656 22.082031 21.320312 C 22.082031 21.289062 22.082031 21.253906 22.082031 21.222656 L 22.082031 17.734375 C 22.082031 12.796875 26.285156 8.828125 31.515625 8.828125 M 31.515625 26.046875 C 40.394531 26.046875 47.589844 32.84375 47.589844 41.21875 C 47.589844 49.597656 40.394531 56.390625 31.515625 56.390625 C 22.640625 56.390625 15.4375 49.597656 15.4375 41.21875 C 15.4375 32.84375 22.640625 26.046875 31.515625 26.046875 M 31.515625 30.464844 C 25.222656 30.464844 20.125 35.28125 20.125 41.21875 C 20.125 47.160156 25.222656 51.972656 31.515625 51.972656 C 37.808594 51.972656 42.910156 47.160156 42.910156 41.21875 C 42.910156 35.28125 37.808594 30.464844 31.515625 30.464844 M 31.515625 35.238281 C 33.292969 35.238281 34.742188 36.597656 34.742188 38.28125 C 34.742188 39.230469 34.277344 40.089844 33.550781 40.648438 C 33.554688 40.667969 33.554688 40.6875 33.554688 40.710938 L 33.554688 45.871094 C 33.554688 46.9375 32.648438 47.796875 31.515625 47.796875 C 30.386719 47.796875 29.476562 46.9375 29.476562 45.871094 L 29.476562 40.710938 C 29.476562 40.6875 29.484375 40.667969 29.484375 40.648438 C 28.757812 40.089844 28.289062 39.230469 28.289062 38.28125 C 28.289062 36.597656 29.734375 35.238281 31.515625 35.238281 "/></g></svg>
