<svg xmlns="http://www.w3.org/2000/svg" xmlns:xlink="http://www.w3.org/1999/xlink" width="64" height="64" viewBox="0 0 64 64" version="1.1"><defs><linearGradient id="linear0" x1="0%" x2="0%" y1="0%" y2="100%"><stop offset="0%" style="stop-color:#00b6c7; stop-opacity:1"/><stop offset="50%" style="stop-color:#ff0000; stop-opacity:1"/><stop offset="100%" style="stop-color:#6a00ff; stop-opacity:1"/></linearGradient></defs><g id="surface1"><path style=" stroke:none;fill-rule:nonzero;fill:url(#linear0);" d="M 15.761719 9.714844 C 24.648438 19.003906 41.40625 18.492188 55.222656 21.949219 C 40.753906 28.820312 26.363281 31.207031 10.722656 30.074219 Z M 15.761719 9.714844 "/><path style=" stroke:none;fill-rule:nonzero;fill:url(#linear0);" d="M 14.101562 7.355469 C 25.25 14.464844 40.613281 12.789062 54.957031 13.191406 C 42.789062 22.953125 28.765625 28.390625 13.277344 30.636719 Z M 14.101562 7.355469 "/><path style=" stroke:none;fill-rule:evenodd;fill:url(#linear0);" d="M 12.457031 0.984375 C 13.683594 0.984375 14.671875 1.738281 14.671875 2.671875 L 14.671875 61.464844 C 14.671875 62.394531 13.683594 63.148438 12.457031 63.148438 C 11.234375 63.148438 10.246094 62.394531 10.246094 61.464844 L 10.246094 2.671875 C 10.246094 1.738281 11.234375 0.984375 12.457031 0.984375 Z M 12.457031 0.984375 "/></g></svg>
