<svg xmlns="http://www.w3.org/2000/svg" xmlns:xlink="http://www.w3.org/1999/xlink" width="64" height="64" viewBox="0 0 64 64" version="1.1"><defs><linearGradient id="linear0" x1="0%" x2="100%" y1="0%" y2="100%"><stop offset="0%" style="stop-color:#6a00ff; stop-opacity:1"/><stop offset="50%" style="stop-color:#e0dd02; stop-opacity:1"/><stop offset="100%" style="stop-color:#00b54e; stop-opacity:1"/></linearGradient></defs><g id="surface1"><path style=" stroke:none;fill-rule:nonzero;fill:url(#linear0);" d="M 23.402344 16.460938 C 22.28125 16.460938 21.382812 17.332031 21.382812 18.40625 L 21.382812 22.996094 C 19.695312 23.410156 18.09375 24.054688 16.632812 24.898438 L 13.265625 21.652344 C 12.480469 20.886719 11.207031 20.886719 10.421875 21.652344 L 7.117188 24.839844 C 6.324219 25.597656 6.324219 26.820312 7.117188 27.574219 L 10.480469 30.828125 C 9.609375 32.234375 8.941406 33.777344 8.511719 35.40625 L 3.75 35.40625 C 2.632812 35.40625 1.738281 36.273438 1.738281 37.351562 L 1.738281 41.859375 C 1.738281 42.9375 2.632812 43.800781 3.75 43.800781 L 8.511719 43.800781 C 8.941406 45.429688 9.609375 46.980469 10.480469 48.386719 L 7.117188 51.632812 C 6.324219 52.394531 6.324219 53.617188 7.117188 54.375 L 10.421875 57.554688 C 11.207031 58.320312 12.480469 58.320312 13.265625 57.554688 L 16.632812 54.3125 C 18.09375 55.152344 19.695312 55.804688 21.382812 56.214844 L 21.382812 60.808594 C 21.382812 61.882812 22.28125 62.746094 23.402344 62.746094 L 28.082031 62.746094 C 29.1875 62.746094 30.089844 61.882812 30.089844 60.808594 L 30.089844 56.214844 C 31.785156 55.804688 33.386719 55.152344 34.84375 54.3125 L 38.207031 57.554688 C 39.003906 58.320312 40.265625 58.320312 41.050781 57.554688 L 44.359375 54.375 C 45.144531 53.617188 45.144531 52.390625 44.359375 51.632812 L 40.992188 48.386719 C 41.867188 46.980469 42.535156 45.429688 42.960938 43.800781 L 47.730469 43.800781 C 48.839844 43.800781 49.738281 42.9375 49.738281 41.859375 L 49.738281 37.351562 C 49.738281 36.273438 48.839844 35.40625 47.730469 35.40625 L 42.960938 35.40625 C 42.535156 33.777344 41.867188 32.234375 40.992188 30.828125 L 44.359375 27.574219 C 45.144531 26.820312 45.144531 25.597656 44.359375 24.839844 L 41.050781 21.652344 C 40.265625 20.886719 38.992188 20.886719 38.207031 21.652344 L 34.84375 24.898438 C 33.386719 24.054688 31.785156 23.410156 30.089844 22.996094 L 30.089844 18.40625 C 30.089844 17.332031 29.1875 16.460938 28.082031 16.460938 Z M 25.742188 31.699219 C 30.273438 31.699219 33.941406 35.234375 33.941406 39.605469 C 33.941406 43.972656 30.273438 47.515625 25.742188 47.515625 C 21.207031 47.515625 17.535156 43.976562 17.535156 39.605469 C 17.535156 35.234375 21.199219 31.699219 25.742188 31.699219 Z M 25.742188 31.699219 "/><path style=" stroke:none;fill-rule:nonzero;fill:url(#linear0);" d="M 27.0625 44.652344 C 27.699219 44.359375 32.773438 39.6875 38.351562 34.28125 C 48.359375 24.550781 48.503906 24.441406 50.417969 24.179688 C 55.09375 23.5625 58.308594 20.726562 59.234375 16.414062 C 59.527344 15.046875 59.148438 12.4375 58.664062 12.4375 C 58.488281 12.4375 57.042969 13.652344 55.449219 15.136719 C 53.855469 16.617188 52.328125 17.832031 52.050781 17.832031 C 50.796875 17.832031 47.570312 14.636719 47.570312 13.398438 C 47.570312 13.035156 48.875 11.332031 50.472656 9.597656 C 53.203125 6.640625 53.324219 6.441406 52.484375 6.210938 C 49.277344 5.300781 45.300781 6.542969 43.019531 9.164062 C 41.347656 11.074219 40.667969 12.746094 40.667969 14.949219 L 40.667969 16.722656 L 30.277344 27.011719 L 19.878906 37.304688 L 19.6875 39.328125 C 19.523438 41.011719 19.644531 41.570312 20.394531 42.671875 C 21.953125 44.964844 24.648438 45.757812 27.0625 44.652344 Z M 23.667969 42.527344 C 21.417969 41.664062 21.417969 38.59375 23.660156 37.644531 C 24.796875 37.164062 25.109375 37.171875 26.070312 37.671875 C 28.460938 38.917969 27.625 42.613281 24.886719 42.875 C 24.742188 42.882812 24.191406 42.730469 23.667969 42.527344 Z M 23.667969 42.527344 "/><path style=" stroke:none;fill-rule:nonzero;fill:url(#linear0);" d="M 61.460938 40.386719 L 62.28125 39.507812 L 60.003906 36.050781 C 58.109375 33.1875 57.457031 32.5 56.191406 32.015625 C 55.339844 31.699219 53.296875 30.191406 51.636719 28.671875 L 48.625 25.90625 L 47.605469 26.929688 L 46.59375 27.957031 L 49.539062 30.933594 C 51.160156 32.578125 52.667969 34.476562 52.886719 35.175781 C 53.285156 36.382812 55.242188 38 59.265625 40.429688 L 60.644531 41.261719 L 61.46875 40.386719 Z M 61.460938 40.386719 "/><path style=" stroke:none;fill-rule:nonzero;fill:url(#linear0);" d="M 34.65625 18.777344 C 34.992188 18.371094 33.90625 17.078125 29.632812 12.8125 C 25.261719 8.453125 24.273438 7.269531 24.664062 6.886719 C 25.046875 6.496094 25.730469 6.972656 28.105469 9.28125 C 36.898438 17.820312 36.121094 17.207031 37.019531 16.394531 C 37.808594 15.671875 37.804688 15.667969 32.429688 10.25 C 29.472656 7.265625 27.050781 4.683594 27.050781 4.511719 C 27.050781 3.675781 28.578125 4.851562 33.347656 9.359375 C 36.203125 12.070312 38.78125 14.277344 39.078125 14.277344 C 39.371094 14.277344 39.714844 14.011719 39.839844 13.6875 C 39.996094 13.273438 38.441406 11.503906 34.859375 8 C 31.996094 5.195312 29.273438 2.691406 28.828125 2.433594 C 27.074219 1.441406 24.289062 2.167969 23.050781 3.953125 C 22.722656 4.425781 22.453125 5.589844 22.453125 6.527344 C 22.453125 8.21875 22.527344 8.320312 27.890625 13.769531 C 30.886719 16.808594 33.539062 19.296875 33.78125 19.296875 C 34.03125 19.296875 34.429688 19.0625 34.65625 18.777344 Z M 34.65625 18.777344 "/></g></svg>
