<svg xmlns="http://www.w3.org/2000/svg" xmlns:xlink="http://www.w3.org/1999/xlink" width="64" height="64" viewBox="0 0 64 64" version="1.1"><defs><linearGradient id="linear0" x1="0%" x2="100%" y1="0%" y2="100%"><stop offset="0%" style="stop-color:#6a00ff; stop-opacity:1"/><stop offset="50%" style="stop-color:#e0dd02; stop-opacity:1"/><stop offset="100%" style="stop-color:#00b54e; stop-opacity:1"/></linearGradient></defs><g id="surface1"><path style="fill-rule:evenodd;fill:url(#linear0);stroke-width:1;stroke-linecap:butt;stroke-linejoin:miter;stroke:url(#linear0);stroke-miterlimit:4;" d="M 1106.193034 720.756656 C 1052.18649 730.039631 1011.069286 777.084568 1011.069286 833.748514 C 1011.069286 897.049157 1062.377579 948.378544 1125.724225 948.378544 C 1182.38751 948.378544 1229.399356 907.277231 1238.697946 853.259562 C 1223.587737 890.601481 1187.036805 916.959247 1144.259138 916.959247 C 1088.073237 916.959247 1042.472784 871.405466 1042.472784 815.182566 C 1042.472784 772.443081 1068.853383 735.836239 1106.234546 720.777659 Z M 1106.193034 720.756656 " transform="matrix(0.188201,0,0,0.185992,-188.983036,-113.102124)"/><path style="fill-rule:evenodd;fill:url(#linear0);stroke-width:1;stroke-linecap:butt;stroke-linejoin:miter;stroke:url(#linear0);stroke-miterlimit:4;" d="M 261.605663 150.362931 L 239.708313 155.949518 L 231.862628 177.203748 L 219.803519 158.07074 L 197.158961 157.188648 L 211.625741 139.756818 L 205.502785 117.977533 L 226.48688 126.357412 L 245.312375 113.75609 L 243.838714 136.354461 Z M 261.605663 150.362931 " transform="matrix(0.188201,0,0,0.185992,-24.917929,-14.478079)"/><path style="fill-rule:evenodd;fill:url(#linear0);stroke-width:1;stroke-linecap:butt;stroke-linejoin:miter;stroke:url(#linear0);stroke-miterlimit:4;" d="M 261.637461 150.370761 L 239.6986 155.936345 L 231.87367 177.169573 L 219.773049 158.057568 L 197.170002 157.175475 L 211.636782 139.764648 L 205.472315 117.985362 L 226.518678 126.365242 L 245.323416 113.784921 L 243.870512 136.341289 Z M 261.637461 150.370761 " transform="matrix(0.188201,0,0,0.185992,7.591712,-7.90141)"/><path style="fill-rule:evenodd;fill:url(#linear0);stroke-width:1;stroke-linecap:butt;stroke-linejoin:miter;stroke:url(#linear0);stroke-miterlimit:4;" d="M 261.638904 150.373886 L 239.700043 155.960472 L 231.854357 177.151696 L 219.774492 158.060692 L 197.171446 157.199602 L 211.638226 139.74677 L 205.494514 117.988487 L 226.520121 126.368366 L 245.283348 113.767044 L 243.871955 136.344413 Z M 261.638904 150.373886 " transform="matrix(0.188201,0,0,0.185992,-6.09606,-19.737929)"/><path style="fill-rule:evenodd;fill:url(#linear0);stroke-width:1;stroke-linecap:butt;stroke-linejoin:miter;stroke:url(#linear0);stroke-miterlimit:4;" d="M 261.637248 150.371974 L 239.698386 155.937558 L 231.894212 177.212791 L 219.793591 158.058781 L 197.169789 157.176688 L 211.615813 139.744859 L 205.472102 117.986575 L 226.476953 126.345453 L 245.323203 113.765132 L 243.849543 136.363504 Z M 261.637248 150.371974 " transform="matrix(0.188201,0,0,0.185992,13.482377,9.758521)"/><path style="fill-rule:evenodd;fill:url(#linear0);stroke-width:1;stroke-linecap:butt;stroke-linejoin:miter;stroke:url(#linear0);stroke-miterlimit:4;" d="M 261.604219 150.361892 L 239.686114 155.96948 L 231.861184 177.181706 L 219.781319 158.027696 L 197.178272 157.166606 L 211.624297 139.776781 L 205.501341 117.976493 L 226.485436 126.356373 L 245.331686 113.797055 L 243.858026 136.374424 Z M 261.604219 150.361892 " transform="matrix(0.188201,0,0,0.185992,-11.230157,-0.763042)"/></g></svg>
