<svg xmlns="http://www.w3.org/2000/svg" xmlns:xlink="http://www.w3.org/1999/xlink" width="64" height="64" viewBox="0 0 64 64" version="1.1"><defs><linearGradient id="linear0" x1="0%" x2="100%" y1="0%" y2="100%"><stop offset="0%" style="stop-color:#ff0000; stop-opacity:1"/><stop offset="100%" style="stop-color:#6a00ff; stop-opacity:1"/></linearGradient></defs><g id="surface1"><path style=" stroke:none;fill-rule:nonzero;fill:url(#linear0);" d="M 12.414062 5.769531 C 7.039062 5.769531 2.632812 11.503906 2.632812 18.492188 L 2.632812 46.363281 C 2.632812 53.347656 7.039062 59.089844 12.414062 59.089844 L 51.710938 59.089844 C 57.082031 59.089844 61.496094 53.347656 61.496094 46.363281 L 61.496094 18.492188 C 61.496094 11.503906 57.082031 5.769531 51.710938 5.769531 Z M 12.414062 5.769531 "/><path style=" stroke:none;fill-rule:nonzero;fill:url(#linear0);" d="M 15.660156 13.804688 C 12.464844 14.027344 10.441406 17.734375 10.628906 20.960938 C 10.792969 30.652344 10.476562 39.867188 10.703125 48.261719 C 21.351562 37.132812 33.84375 24.097656 43.347656 13.800781 C 34.117188 13.800781 24.890625 13.792969 15.660156 13.804688 "/></g></svg>
