<svg xmlns="http://www.w3.org/2000/svg" xmlns:xlink="http://www.w3.org/1999/xlink" width="64" height="64" viewBox="0 0 64 64" version="1.1"><defs><linearGradient id="linear0" x1="0%" x2="0%" y1="0%" y2="100%"><stop offset="0%" style="stop-color:#ffd000; stop-opacity:1"/><stop offset="50%" style="stop-color:#24dbdb; stop-opacity:1"/><stop offset="100%" style="stop-color:#0073ff; stop-opacity:1"/></linearGradient></defs><g id="surface1"><path style=" stroke:none;fill-rule:nonzero;fill:url(#linear0);" d="M 31.996094 2.113281 L 23.664062 6.402344 C 19.085938 8.75 12.226562 11.679688 8.40625 12.898438 C 0.484375 15.417969 0.429688 15.589844 3.023438 25.605469 C 6.585938 39.371094 16.089844 53.355469 26.125 59.601562 C 31.835938 63.15625 33.128906 63.152344 38.128906 59.570312 C 49.25 51.59375 57.542969 38.707031 61.167969 23.820312 C 62.269531 19.273438 63.085938 15.460938 62.964844 15.335938 C 62.832031 15.214844 57.921875 13.257812 52.0625 10.96875 C 46.195312 8.675781 39.289062 5.734375 36.710938 4.441406 L 31.996094 2.113281 M 30.40625 18.253906 L 34.019531 18.253906 C 38.292969 18.253906 41.746094 21.609375 41.746094 25.800781 L 41.746094 31.140625 L 44.109375 31.140625 L 44.109375 46.121094 L 20.347656 46.121094 L 20.347656 31.140625 L 22.6875 31.140625 L 22.6875 25.800781 C 22.6875 21.609375 26.128906 18.253906 30.40625 18.253906 M 29.855469 22.0625 C 27.730469 22.0625 26.039062 23.726562 26.039062 25.800781 L 26.039062 31.140625 L 38.386719 31.140625 L 38.386719 25.800781 C 38.386719 23.726562 36.6875 22.0625 34.570312 22.0625 Z M 29.855469 22.0625 "/></g></svg>
