<svg xmlns="http://www.w3.org/2000/svg" xmlns:xlink="http://www.w3.org/1999/xlink" width="64" height="64" viewBox="0 0 64 64" version="1.1"><defs><linearGradient id="linear0" x1="0%" x2="100%" y1="0%" y2="100%"><stop offset="0%" style="stop-color:#ae00ff; stop-opacity:1"/><stop offset="100%" style="stop-color:#0084ff; stop-opacity:1"/></linearGradient></defs><g id="surface1"><path style=" stroke:none;fill-rule:nonzero;fill:url(#linear0);" d="M 48.640625 9.613281 C 48.050781 9.613281 47.582031 10.089844 47.582031 10.679688 L 47.582031 13.195312 C 46.699219 13.421875 45.859375 13.773438 45.097656 14.238281 L 43.332031 12.457031 C 42.921875 12.042969 42.257812 12.042969 41.847656 12.457031 L 40.117188 14.203125 C 39.707031 14.621094 39.707031 15.289062 40.117188 15.703125 L 41.875 17.484375 C 41.414062 18.253906 41.066406 19.097656 40.839844 19.988281 L 38.351562 19.988281 C 37.765625 19.988281 37.300781 20.46875 37.300781 21.054688 L 37.300781 23.527344 C 37.300781 24.109375 37.765625 24.589844 38.351562 24.589844 L 40.839844 24.589844 C 41.066406 25.484375 41.414062 26.328125 41.875 27.09375 L 40.117188 28.875 C 39.707031 29.289062 39.707031 29.957031 40.117188 30.378906 L 41.847656 32.125 C 42.257812 32.535156 42.921875 32.535156 43.332031 32.125 L 45.097656 30.34375 C 45.859375 30.808594 46.699219 31.160156 47.582031 31.386719 L 47.582031 33.898438 C 47.582031 34.492188 48.050781 34.960938 48.640625 34.960938 L 51.085938 34.960938 C 51.671875 34.960938 52.140625 34.492188 52.140625 33.898438 L 52.140625 31.386719 C 53.027344 31.160156 53.863281 30.808594 54.628906 30.34375 L 56.394531 32.125 C 56.808594 32.535156 57.46875 32.535156 57.878906 32.125 L 59.613281 30.378906 C 60.023438 29.957031 60.023438 29.289062 59.613281 28.875 L 57.847656 27.09375 C 58.308594 26.328125 58.660156 25.484375 58.882812 24.589844 L 61.378906 24.589844 C 61.957031 24.589844 62.429688 24.109375 62.429688 23.527344 L 62.429688 21.054688 C 62.429688 20.46875 61.957031 19.988281 61.378906 19.988281 L 58.882812 19.988281 C 58.660156 19.097656 58.308594 18.253906 57.847656 17.484375 L 59.613281 15.703125 C 60.023438 15.289062 60.023438 14.621094 59.613281 14.203125 L 57.878906 12.457031 C 57.46875 12.042969 56.808594 12.042969 56.394531 12.457031 L 54.628906 14.238281 C 53.863281 13.773438 53.027344 13.421875 52.140625 13.195312 L 52.140625 10.679688 C 52.140625 10.089844 51.671875 9.613281 51.085938 9.613281 Z M 49.863281 17.960938 C 52.238281 17.960938 54.160156 19.902344 54.160156 22.289062 C 54.160156 24.679688 52.238281 26.621094 49.863281 26.621094 C 47.488281 26.621094 45.566406 24.683594 45.566406 22.289062 C 45.566406 19.902344 47.488281 17.960938 49.863281 17.960938 Z M 49.863281 17.960938 "/><path style=" stroke:none;fill-rule:evenodd;fill:url(#linear0);" d="M 22.886719 1.453125 C 15.566406 1.453125 9.601562 7.527344 9.601562 15.09375 C 9.601562 22.65625 15.566406 28.804688 22.886719 28.804688 C 30.214844 28.804688 36.167969 22.65625 36.167969 15.09375 C 36.167969 7.527344 30.214844 1.453125 22.886719 1.453125 M 11.671875 32.269531 C 5.015625 32.921875 -0.675781 42.429688 1.320312 53.425781 L 2.816406 61.898438 L 42.957031 61.898438 L 44.523438 53.425781 C 47.191406 38.769531 36.070312 26.738281 27.386719 34.851562 C 23.089844 38.855469 22.683594 38.855469 18.386719 34.851562 C 16.214844 32.820312 13.894531 32.054688 11.667969 32.269531 "/></g></svg>
