<svg xmlns="http://www.w3.org/2000/svg" xmlns:xlink="http://www.w3.org/1999/xlink" width="64" height="64" viewBox="0 0 64 64" version="1.1"><defs><linearGradient id="linear0" x1="0%" x2="100%" y1="0%" y2="100%"><stop offset="0%" style="stop-color:#e5ff00; stop-opacity:1"/><stop offset="50%" style="stop-color:#0073ff; stop-opacity:1"/><stop offset="100%" style="stop-color:#ff0000; stop-opacity:1"/></linearGradient></defs><g id="surface1"><path style=" stroke:none;fill-rule:nonzero;fill:url(#linear0);" d="M 14.554688 3.039062 C 11.316406 3.039062 8.714844 5.03125 8.714844 7.5 L 8.714844 62.492188 L 23.304688 62.492188 L 23.304688 46.144531 C 26.753906 49.230469 29.140625 50.601562 34.972656 50.597656 C 45.1875 50.597656 55.398438 39.953125 55.398438 26.820312 C 55.398438 13.6875 45.1875 3.039062 34.972656 3.039062 C 30.859375 3.039062 26.75 4.414062 23.304688 7.5 C 23.304688 5.03125 20.703125 3.039062 17.46875 3.039062 Z M 32.058594 17.902344 C 36.863281 17.859375 40.8125 21.898438 40.8125 26.820312 C 40.8125 31.746094 36.890625 35.738281 32.058594 35.738281 C 27.222656 35.738281 23.304688 31.71875 23.304688 26.820312 C 23.304688 21.925781 27.25 17.945312 32.058594 17.902344 Z M 32.058594 17.902344 "/></g></svg>
