<svg xmlns="http://www.w3.org/2000/svg" xmlns:xlink="http://www.w3.org/1999/xlink" width="64" height="64" viewBox="0 0 64 64" version="1.1"><defs><linearGradient id="linear0" x1="0%" x2="100%" y1="0%" y2="100%"><stop offset="0%" style="stop-color:#e5ff00; stop-opacity:1"/><stop offset="50%" style="stop-color:#0073ff; stop-opacity:1"/><stop offset="100%" style="stop-color:#ff0000; stop-opacity:1"/></linearGradient></defs><g id="surface1"><path style=" stroke:none;fill-rule:nonzero;fill:url(#linear0);" d="M 4.96875 48.484375 L 43.417969 63.019531 C 42.488281 57.5625 36.773438 55.351562 42.128906 45.636719 C 47.566406 46.070312 63.785156 44.75 63.121094 34.472656 C 63.226562 28.101562 58.699219 27.316406 52.371094 27.253906 L 43.816406 18.152344 C 47.242188 16.386719 53.382812 15.375 52.984375 12.535156 C 52.410156 10.113281 46.390625 10.761719 40.261719 10.585938 C 38.738281 6.953125 30.167969 4.867188 17.835938 9.730469 C 18.066406 9.574219 16.328125 8.984375 16.605469 8.824219 C 20.703125 6.390625 30.777344 3.589844 27.734375 1.824219 C 26.921875 0.261719 21.511719 -0.144531 16.074219 6.46875 C 13.355469 4.113281 10.710938 6.40625 11.808594 8.265625 C 2.558594 8.242188 0.0585938 14.554688 1.59375 14.933594 C 4.398438 18.769531 11.183594 12.703125 12.855469 10.734375 L 14.945312 12.3125 C 11.929688 16.753906 6.976562 18.585938 7.464844 27.742188 C 6.414062 30.125 7.839844 32.035156 8.835938 34.039062 C 9.996094 37.726562 6.652344 43.648438 4.890625 48.796875 Z M 4.96875 48.484375 "/></g></svg>
