<svg xmlns="http://www.w3.org/2000/svg" xmlns:xlink="http://www.w3.org/1999/xlink" width="64" height="64" viewBox="0 0 64 64" version="1.1"><defs><linearGradient id="linear0" x1="0%" x2="0%" y1="0%" y2="100%"><stop offset="0%" style="stop-color:#ff0000; stop-opacity:1"/><stop offset="50%" style="stop-color:#ffd000; stop-opacity:1"/><stop offset="100%" style="stop-color:#0073ff; stop-opacity:1"/></linearGradient></defs><g id="surface1"><path style=" stroke:none;fill-rule:nonzero;fill:url(#linear0);" d="M 61.785156 1.574219 L 43.730469 16.667969 L 42.265625 20.308594 C 41.984375 20.199219 41.691406 20.144531 41.398438 20.144531 C 40.113281 20.144531 39.066406 21.179688 39.066406 22.460938 C 39.066406 23.742188 40.113281 24.785156 41.398438 24.785156 C 42.6875 24.785156 43.730469 23.742188 43.730469 22.460938 C 43.730469 22.171875 43.671875 21.875 43.554688 21.605469 L 47.214844 20.144531 L 62.363281 2.140625 Z M 20.3125 3.886719 C 10.992188 3.886719 4.003906 10.859375 4.003906 20.144531 C 4.003906 23.976562 4.910156 27.898438 6.496094 31.738281 C 4.902344 35.566406 4.003906 39.511719 4.003906 43.367188 C 4.003906 46.644531 4.886719 49.609375 6.425781 52.101562 L 7.980469 50.257812 C 6.925781 48.257812 6.339844 45.933594 6.339844 43.359375 C 6.339844 40.546875 6.894531 37.621094 7.894531 34.691406 C 9.464844 37.742188 11.4375 40.691406 13.742188 43.40625 L 15.277344 41.589844 C 12.726562 38.484375 10.609375 35.136719 9.070312 31.707031 C 11.210938 26.917969 14.484375 22.277344 18.488281 18.277344 C 22.5 14.285156 27.15625 11.035156 31.980469 8.898438 C 35.429688 10.425781 38.78125 12.519531 41.90625 15.050781 L 43.726562 13.527344 C 41 11.253906 38.039062 9.28125 34.992188 7.726562 C 37.902344 6.738281 40.835938 6.191406 43.65625 6.191406 C 46.242188 6.191406 48.574219 6.769531 50.574219 7.820312 L 52.425781 6.277344 C 49.9375 4.746094 46.929688 3.859375 43.644531 3.859375 C 39.796875 3.859375 35.835938 4.765625 31.988281 6.347656 C 28.148438 4.765625 24.191406 3.859375 20.34375 3.859375 Z M 20.3125 6.214844 C 23.132812 6.214844 26.042969 6.765625 28.960938 7.753906 C 20.222656 12.21875 12.34375 20.039062 7.875 28.746094 C 6.875 25.847656 6.3125 22.917969 6.3125 20.128906 C 6.3125 12.003906 12.136719 6.199219 20.292969 6.199219 Z M 57.59375 11.390625 L 56.042969 13.230469 C 57.09375 15.230469 57.679688 17.574219 57.679688 20.128906 C 57.679688 21.355469 57.5625 22.59375 57.363281 23.847656 C 57.988281 24.851562 58.582031 25.867188 59.121094 26.90625 C 59.691406 24.636719 60.007812 22.363281 60.007812 20.128906 C 60.007812 16.859375 59.128906 13.882812 57.589844 11.378906 Z M 31.964844 15.5 C 22.957031 15.5 15.65625 22.78125 15.65625 31.757812 C 15.65625 34.792969 16.507812 37.773438 18.121094 40.351562 L 18.292969 40.28125 C 18.636719 38.5625 19.800781 37.105469 21.417969 36.613281 C 20.699219 35.089844 20.316406 33.4375 20.304688 31.757812 C 20.304688 25.347656 25.523438 20.152344 31.957031 20.152344 C 33.640625 20.152344 35.296875 20.515625 36.828125 21.222656 C 37.332031 19.632812 38.78125 18.476562 40.484375 18.152344 L 40.558594 17.964844 C 37.972656 16.359375 34.992188 15.5 31.9375 15.5 Z M 50.207031 20.050781 L 48.679688 21.863281 C 51.21875 24.949219 53.316406 28.296875 54.832031 31.710938 C 52.699219 36.492188 49.425781 41.160156 45.445312 45.15625 C 38.195312 52.375 28.742188 57.300781 20.28125 57.300781 C 17.695312 57.300781 15.363281 56.71875 13.355469 55.667969 L 11.503906 57.214844 C 14.003906 58.742188 17.007812 59.628906 20.292969 59.628906 C 34.066406 59.628906 49.179688 48.132812 55.945312 34.777344 C 56.941406 37.710938 57.496094 40.636719 57.496094 43.441406 C 57.496094 51.570312 51.671875 57.375 43.519531 57.375 C 41.734375 57.375 39.910156 57.152344 38.039062 56.738281 C 37.050781 57.316406 36.039062 57.847656 35.035156 58.34375 C 37.855469 59.214844 40.71875 59.703125 43.519531 59.703125 C 52.835938 59.703125 59.824219 52.734375 59.824219 43.441406 C 59.824219 35.503906 55.984375 27.113281 50.113281 20.214844 Z M 45.800781 23.164062 L 45.625 23.238281 C 45.285156 24.945312 44.144531 26.398438 42.542969 26.90625 C 43.25 28.429688 43.613281 30.082031 43.613281 31.757812 C 43.613281 38.171875 38.402344 43.367188 31.964844 43.367188 C 30.28125 43.359375 28.621094 42.980469 27.09375 42.261719 C 26.585938 43.878906 25.128906 45.023438 23.410156 45.378906 L 23.339844 45.546875 C 25.925781 47.15625 28.917969 48.003906 31.964844 48.003906 C 40.972656 48.003906 48.277344 40.726562 48.277344 31.75 C 48.277344 28.714844 47.417969 25.742188 45.800781 23.164062 Z M 31.964844 24.792969 C 28.097656 24.792969 24.96875 27.90625 24.96875 31.757812 C 24.96875 35.605469 28.097656 38.722656 31.964844 38.722656 C 35.820312 38.722656 38.957031 35.605469 38.957031 31.757812 C 38.957031 27.90625 35.820312 24.792969 31.964844 24.792969 Z M 22.644531 38.722656 C 21.359375 38.722656 20.3125 39.757812 20.3125 41.046875 C 20.3125 41.335938 20.371094 41.628906 20.476562 41.90625 L 16.820312 43.363281 L 1.679688 61.367188 L 2.257812 61.945312 L 20.316406 46.851562 L 21.785156 43.203125 C 22.058594 43.308594 22.351562 43.367188 22.644531 43.367188 C 23.9375 43.367188 24.976562 42.335938 24.976562 41.046875 C 24.976562 39.765625 23.9375 38.726562 22.644531 38.726562 Z M 22.074219 48.40625 L 20.253906 49.921875 C 22.132812 51.492188 24.097656 52.898438 26.144531 54.148438 C 27.148438 53.890625 28.152344 53.566406 29.152344 53.179688 C 26.710938 51.84375 24.308594 50.230469 22.074219 48.394531 Z M 22.074219 48.40625 "/></g></svg>
