<svg xmlns="http://www.w3.org/2000/svg" xmlns:xlink="http://www.w3.org/1999/xlink" width="64" height="64" viewBox="0 0 64 64" version="1.1"><defs><linearGradient id="linear0" x1="0%" x2="100%" y1="0%" y2="100%"><stop offset="0%" style="stop-color:#00b54e; stop-opacity:1"/><stop offset="100%" style="stop-color:#0073ff; stop-opacity:1"/></linearGradient></defs><g id="surface1"><path style=" stroke:none;fill-rule:nonzero;fill:url(#linear0);" d="M 28.792969 1.402344 C 27.386719 1.402344 26.242188 2.535156 26.242188 3.957031 L 26.242188 10.003906 C 24.097656 10.546875 22.078125 11.394531 20.226562 12.511719 L 15.960938 8.234375 C 14.972656 7.230469 13.363281 7.230469 12.363281 8.234375 L 8.175781 12.429688 C 7.183594 13.429688 7.183594 15.042969 8.175781 16.042969 L 12.441406 20.3125 C 11.335938 22.171875 10.488281 24.203125 9.945312 26.359375 L 3.921875 26.359375 C 2.503906 26.359375 1.371094 27.492188 1.371094 28.910156 L 1.371094 34.855469 C 1.371094 36.269531 2.503906 37.410156 3.921875 37.410156 L 9.945312 37.410156 C 10.488281 39.5625 11.335938 41.589844 12.441406 43.445312 L 8.175781 47.722656 C 7.183594 48.722656 7.183594 50.335938 8.175781 51.332031 L 12.363281 55.53125 C 13.363281 56.53125 14.972656 56.53125 15.960938 55.53125 L 20.226562 51.257812 C 22.078125 52.363281 24.097656 53.21875 26.242188 53.753906 L 26.242188 59.8125 C 26.242188 61.222656 27.386719 62.363281 28.792969 62.363281 L 34.722656 62.363281 C 36.132812 62.363281 37.269531 61.222656 37.269531 59.8125 L 37.269531 53.753906 C 39.410156 53.21875 41.4375 52.363281 43.285156 51.257812 L 47.550781 55.53125 C 48.546875 56.53125 50.148438 56.53125 51.148438 55.53125 L 55.332031 51.332031 C 56.332031 50.328125 56.332031 48.722656 55.332031 47.722656 L 51.070312 43.445312 C 52.175781 41.589844 53.027344 39.5625 53.566406 37.410156 L 59.597656 37.410156 C 61.003906 37.410156 62.140625 36.269531 62.140625 34.855469 L 62.140625 28.910156 C 62.140625 27.492188 61.003906 26.359375 59.597656 26.359375 L 53.566406 26.359375 C 53.027344 24.203125 52.175781 22.171875 51.070312 20.3125 L 55.332031 16.042969 C 56.332031 15.039062 56.332031 13.429688 55.332031 12.429688 L 51.148438 8.234375 C 50.148438 7.230469 48.546875 7.230469 47.550781 8.234375 L 43.285156 12.511719 C 41.4375 11.394531 39.410156 10.546875 37.269531 10.003906 L 37.269531 3.957031 C 37.269531 2.535156 36.132812 1.402344 34.722656 1.402344 Z M 31.753906 21.460938 C 37.492188 21.460938 42.140625 26.125 42.140625 31.882812 C 42.140625 37.636719 37.492188 42.300781 31.753906 42.300781 C 26.023438 42.300781 21.367188 37.636719 21.367188 31.882812 C 21.367188 26.125 26.011719 21.460938 31.753906 21.460938 Z M 31.753906 21.460938 "/></g></svg>
