<svg xmlns="http://www.w3.org/2000/svg" xmlns:xlink="http://www.w3.org/1999/xlink" width="64" height="64" viewBox="0 0 64 64" version="1.1"><defs><linearGradient id="linear0" x1="0%" x2="100%" y1="0%" y2="100%"><stop offset="0%" style="stop-color:#6a00ff; stop-opacity:1"/><stop offset="50%" style="stop-color:#e0dd02; stop-opacity:1"/><stop offset="100%" style="stop-color:#00b54e; stop-opacity:1"/></linearGradient></defs><g id="surface1"><path style=" stroke:none;fill-rule:nonzero;fill:url(#linear0);" d="M 34.898438 0.648438 C 32.992188 0.648438 31.527344 0.933594 30.921875 1.558594 C 29.960938 2.542969 27.746094 9.902344 24.992188 21.132812 C 22.992188 29.226562 24.378906 33.9375 25.746094 36.464844 C 27.480469 39.6875 28.832031 41.632812 26.085938 48.074219 C 24.09375 52.738281 22.058594 53.632812 20.175781 53.851562 C 15.625 52.832031 12.191406 52.800781 11.742188 53.9375 C 11.128906 55.5 16.324219 58.65625 23.328125 61.003906 C 30.335938 63.34375 36.53125 63.976562 37.140625 62.421875 C 37.589844 61.273438 34.910156 59.269531 30.6875 57.359375 C 28.839844 55.585938 27.171875 54.355469 28.640625 48.875 C 31.515625 38.148438 35.886719 41.839844 41.054688 35.175781 C 45.429688 29.523438 46.585938 25.179688 49.125 18.5625 C 51.8125 11.542969 52.996094 8.292969 52.644531 7.652344 C 50.304688 3.332031 40.617188 0.667969 34.898438 0.65625 M 35.296875 2.128906 C 37.421875 2.144531 40.132812 2.578125 42.332031 3.304688 C 47.035156 4.859375 51.285156 7.046875 51.042969 8.351562 C 50.410156 11.664062 49.035156 14.363281 48.683594 15.292969 C 44.082031 11.171875 38.164062 23.484375 28.679688 13.296875 C 28.679688 13.296875 30.496094 6.8125 31.746094 3.125 C 31.980469 2.417969 33.414062 2.117188 35.296875 2.128906 "/></g></svg>
