<svg xmlns="http://www.w3.org/2000/svg" xmlns:xlink="http://www.w3.org/1999/xlink" width="64" height="64" viewBox="0 0 64 64" version="1.1"><defs><linearGradient id="linear0" x1="0%" x2="0%" y1="0%" y2="100%"><stop offset="0%" style="stop-color:#00b54e; stop-opacity:1"/><stop offset="50%" style="stop-color:#0073ff; stop-opacity:1"/><stop offset="100%" style="stop-color:#ffd000; stop-opacity:1"/></linearGradient></defs><g id="surface1"><path style=" stroke:none;fill-rule:nonzero;fill:url(#linear0);" d="M 32.800781 4.910156 L 56.3125 4.910156 C 58.917969 4.910156 61.015625 6.890625 61.015625 9.351562 L 61.015625 31.5625 L 32.800781 58.210938 L 9.292969 58.210938 C 6.6875 58.210938 4.589844 56.230469 4.589844 53.769531 L 4.589844 31.5625 Z M 32.800781 4.910156 "/><path style=" stroke:none;fill-rule:nonzero;fill:url(#linear0);fill-opacity:1;" d="M 8.207031 4.527344 C 5.578125 4.527344 3.460938 6.621094 3.460938 9.21875 L 3.460938 32.667969 L 31.9375 32.667969 L 31.9375 4.527344 Z M 31.9375 32.667969 L 31.9375 60.8125 L 55.671875 60.8125 C 58.300781 60.8125 60.417969 58.71875 60.417969 56.121094 L 60.417969 32.667969 Z M 31.9375 32.667969 "/></g></svg>
