<svg xmlns="http://www.w3.org/2000/svg" xmlns:xlink="http://www.w3.org/1999/xlink" width="64" height="64" viewBox="0 0 64 64" version="1.1"><defs><linearGradient id="linear0" x1="0%" x2="0%" y1="0%" y2="100%"><stop offset="0%" style="stop-color:#00b54e; stop-opacity:1"/><stop offset="50%" style="stop-color:#ffd000; stop-opacity:1"/><stop offset="100%" style="stop-color:#ff00bb; stop-opacity:1"/></linearGradient></defs><g id="surface1"><path style=" stroke:none;fill-rule:nonzero;fill:url(#linear0);" d="M 9.980469 4.042969 C 6.003906 4.042969 2.777344 8.695312 2.777344 14.429688 L 2.777344 24.8125 L 17.183594 15.914062 L 17.183594 14.429688 C 17.183594 8.695312 13.957031 4.042969 9.980469 4.042969 Z M 25.417969 4.042969 C 23.359375 4.042969 21.300781 7.011719 21.300781 9.976562 L 21.300781 51.519531 C 21.300781 57.453125 23.359375 60.417969 27.472656 60.417969 L 43.9375 60.417969 C 54.230469 60.417969 60.402344 48.550781 60.402344 36.683594 L 60.402344 27.78125 C 60.402344 15.914062 52.171875 4.042969 41.882812 4.042969 Z M 33.648438 18.878906 L 39.824219 18.878906 C 43.292969 18.878906 45.996094 24.8125 45.996094 32.230469 C 45.996094 41.164062 42.910156 45.582031 39.824219 45.582031 L 33.648438 45.582031 Z M 17.183594 21.847656 L 2.777344 30.75 L 2.777344 50.035156 C 2.777344 55.769531 6.003906 60.417969 9.980469 60.417969 C 13.957031 60.417969 17.183594 55.769531 17.183594 50.035156 Z M 17.183594 21.847656 "/></g></svg>
