<svg xmlns="http://www.w3.org/2000/svg" xmlns:xlink="http://www.w3.org/1999/xlink" width="64" height="64" viewBox="0 0 64 64" version="1.1"><defs><linearGradient id="linear0" x1="0%" x2="0%" y1="0%" y2="100%"><stop offset="0%" style="stop-color:#ff0000; stop-opacity:1"/><stop offset="50%" style="stop-color:#ffd000; stop-opacity:1"/><stop offset="100%" style="stop-color:#0073ff; stop-opacity:1"/></linearGradient></defs><g id="surface1"><path style=" stroke:none;fill-rule:nonzero;fill:url(#linear0);" d="M 31.390625 3.511719 C 29.074219 3.511719 26.785156 3.925781 24.558594 4.71875 C 22.328125 5.503906 20.339844 6.570312 18.574219 7.9375 C 16.804688 9.308594 15.371094 11.03125 14.28125 13.101562 C 13.199219 15.171875 12.65625 17.414062 12.65625 19.804688 C 12.65625 23.5625 13.90625 26.789062 16.429688 29.53125 C 17.527344 30.710938 18.441406 31.757812 19.164062 32.683594 C 19.878906 33.59375 20.574219 34.777344 21.304688 36.167969 C 22.027344 37.542969 22.433594 38.800781 22.546875 39.992188 L 27.230469 44.28125 L 35.550781 44.28125 L 40.171875 39.992188 C 40.277344 38.800781 40.746094 37.542969 41.472656 36.167969 C 42.207031 34.777344 42.894531 33.597656 43.617188 32.683594 C 44.34375 31.757812 45.253906 30.710938 46.351562 29.53125 C 48.863281 26.789062 50.128906 23.5625 50.128906 19.804688 C 50.128906 17.402344 49.582031 15.171875 48.503906 13.101562 C 47.410156 11.03125 45.980469 9.3125 44.207031 7.9375 C 42.441406 6.570312 40.453125 5.503906 38.222656 4.71875 C 35.996094 3.929688 33.710938 3.511719 31.394531 3.511719 "/><path style=" stroke:none;fill-rule:nonzero;fill:url(#linear0);" d="M 39.164062 40.027344 C 40.125 40.820312 40.613281 41.984375 40.613281 43.519531 C 40.613281 44.570312 40.359375 45.464844 39.839844 46.230469 C 40.359375 46.996094 40.613281 47.890625 40.613281 48.941406 C 40.613281 50.425781 40.152344 51.5625 39.21875 52.378906 C 39.488281 53.039062 39.625 53.703125 39.625 54.378906 C 39.625 55.683594 39.292969 56.679688 38.636719 57.398438 C 37.988281 58.101562 37.199219 58.457031 36.25 58.457031 C 35.835938 59.703125 35.214844 60.6875 34.378906 61.425781 C 33.546875 62.164062 32.652344 62.527344 31.683594 62.527344 C 30.699219 62.527344 29.804688 62.15625 28.984375 61.425781 C 28.152344 60.6875 27.535156 59.703125 27.121094 58.457031 C 26.164062 58.457031 25.363281 58.101562 24.71875 57.398438 C 24.0625 56.6875 23.738281 55.683594 23.738281 54.378906 C 23.738281 53.703125 23.863281 53.039062 24.136719 52.378906 C 23.207031 51.570312 22.734375 50.425781 22.734375 48.941406 C 22.734375 47.890625 23 46.996094 23.511719 46.230469 C 22.984375 45.464844 22.734375 44.570312 22.734375 43.519531 C 22.734375 41.992188 23.222656 40.828125 24.199219 40.027344 "/><path style=" stroke:none;fill-rule:nonzero;fill:rgb(77.64706%,79.215688%,79.215688%);fill-opacity:1;" d="M 29.59375 14.273438 L 29.59375 21.425781 L 22.789062 21.425781 L 22.789062 25.003906 L 29.59375 25.003906 L 29.59375 32.160156 L 33 32.160156 L 33 25.003906 L 39.804688 25.003906 L 39.804688 21.425781 L 33 21.425781 L 33 14.273438 Z M 29.59375 14.273438 "/></g></svg>
