<svg xmlns="http://www.w3.org/2000/svg" xmlns:xlink="http://www.w3.org/1999/xlink" width="64" height="64" viewBox="0 0 64 64" version="1.1"><defs><linearGradient id="linear0" x1="0%" x2="0%" y1="0%" y2="100%"><stop offset="0%" style="stop-color:#00b54e; stop-opacity:1"/><stop offset="50%" style="stop-color:#ffd000; stop-opacity:1"/><stop offset="100%" style="stop-color:#ff00bb; stop-opacity:1"/></linearGradient></defs><g id="surface1"><path style=" stroke:none;fill-rule:nonzero;fill:url(#linear0);" d="M 5.5 52.351562 L 59.992188 52.351562 C 60.992188 52.351562 61.8125 53.453125 61.8125 54.796875 L 61.8125 59.671875 C 61.8125 61.027344 60.992188 62.117188 59.992188 62.117188 L 5.5 62.117188 C 4.5 62.117188 3.679688 61.027344 3.679688 59.671875 L 3.679688 54.796875 C 3.679688 53.453125 4.5 52.351562 5.5 52.351562 Z M 5.5 52.351562 "/><path style=" stroke:none;fill-rule:nonzero;fill:url(#linear0);" d="M 5.5 27.964844 L 59.992188 27.964844 C 60.992188 27.964844 61.8125 29.050781 61.8125 30.394531 L 61.8125 35.285156 C 61.8125 36.628906 60.992188 37.714844 59.992188 37.714844 L 5.5 37.714844 C 4.5 37.714844 3.679688 36.628906 3.679688 35.285156 L 3.679688 30.394531 C 3.679688 29.050781 4.5 27.964844 5.5 27.964844 Z M 5.5 27.964844 "/><path style=" stroke:none;fill-rule:nonzero;fill:url(#linear0);" d="M 5.5 3.5625 L 59.992188 3.5625 C 60.992188 3.5625 61.8125 4.648438 61.8125 6.007812 L 61.8125 10.882812 C 61.8125 12.226562 60.992188 13.324219 59.992188 13.324219 L 5.5 13.324219 C 4.5 13.324219 3.679688 12.226562 3.679688 10.882812 L 3.679688 6.007812 C 3.679688 4.648438 4.5 3.5625 5.5 3.5625 Z M 5.5 3.5625 "/></g></svg>
