<svg xmlns="http://www.w3.org/2000/svg" xmlns:xlink="http://www.w3.org/1999/xlink" width="64" height="64" viewBox="0 0 64 64" version="1.1"><defs><linearGradient id="linear0" x1="100%" x2="0%" y1="100%" y2="0%"><stop offset="0%" style="stop-color:#00b54e; stop-opacity:1"/><stop offset="100%" style="stop-color:#ff0000; stop-opacity:1"/></linearGradient></defs><g id="surface1"><path style=" stroke:none;fill-rule:nonzero;fill:url(#linear0);" d="M 10.203125 6.945312 C 7.832031 6.945312 5.910156 8.839844 5.910156 11.183594 C 5.910156 13.523438 7.832031 15.421875 10.203125 15.421875 L 17.332031 15.421875 L 24.421875 28.136719 L 10.203125 28.136719 C 7.832031 28.136719 5.910156 30.03125 5.910156 32.375 C 5.910156 34.714844 7.832031 36.613281 10.203125 36.613281 L 24.421875 36.613281 L 17.332031 49.328125 L 10.203125 49.328125 C 7.832031 49.328125 5.910156 51.222656 5.910156 53.566406 C 5.910156 55.90625 7.832031 57.804688 10.203125 57.804688 L 19.871094 57.804688 C 21.4375 57.804688 22.878906 56.960938 23.632812 55.605469 L 31.683594 41.164062 L 39.734375 55.605469 C 40.488281 56.960938 41.929688 57.804688 43.496094 57.804688 L 53.164062 57.804688 C 55.535156 57.804688 57.457031 55.90625 57.457031 53.566406 C 57.457031 51.222656 55.535156 49.328125 53.164062 49.328125 L 46.035156 49.328125 L 38.945312 36.613281 L 53.160156 36.613281 C 55.535156 36.613281 57.457031 34.714844 57.457031 32.375 C 57.457031 30.03125 55.535156 28.136719 53.160156 28.136719 L 38.945312 28.136719 L 46.035156 15.421875 L 53.164062 15.421875 C 55.535156 15.421875 57.457031 13.523438 57.457031 11.183594 C 57.457031 8.839844 55.535156 6.945312 53.164062 6.945312 L 43.496094 6.945312 C 41.929688 6.945312 40.488281 7.785156 39.734375 9.140625 L 31.683594 23.582031 L 23.632812 9.140625 C 22.878906 7.785156 21.4375 6.945312 19.871094 6.945312 Z M 10.203125 6.945312 "/><path style=" stroke:none;fill-rule:nonzero;fill:url(#linear0);" d="M 8.3125 4.359375 C 5.746094 4.359375 3.667969 6.449219 3.667969 9.023438 C 3.667969 11.597656 5.746094 13.683594 8.3125 13.683594 C 10.875 13.683594 12.957031 11.597656 12.957031 9.023438 C 12.957031 6.449219 10.875 4.359375 8.3125 4.359375 Z M 54.75 4.359375 C 52.1875 4.359375 50.105469 6.449219 50.105469 9.023438 C 50.105469 11.597656 52.1875 13.683594 54.75 13.683594 C 57.316406 13.683594 59.394531 11.597656 59.394531 9.023438 C 59.394531 6.449219 57.316406 4.359375 54.75 4.359375 Z M 8.3125 6.691406 C 9.59375 6.691406 10.632812 7.734375 10.632812 9.023438 C 10.632812 10.308594 9.59375 11.351562 8.3125 11.351562 C 7.03125 11.351562 5.988281 10.308594 5.988281 9.023438 C 5.988281 7.734375 7.03125 6.691406 8.3125 6.691406 Z M 54.75 6.691406 C 56.03125 6.691406 57.070312 7.734375 57.070312 9.023438 C 57.070312 10.308594 56.03125 11.351562 54.75 11.351562 C 53.46875 11.351562 52.429688 10.308594 52.429688 9.023438 C 52.429688 7.734375 53.46875 6.691406 54.75 6.691406 Z M 8.3125 27.667969 C 5.746094 27.667969 3.667969 29.753906 3.667969 32.328125 C 3.667969 34.90625 5.746094 36.992188 8.3125 36.992188 C 10.875 36.992188 12.957031 34.90625 12.957031 32.328125 C 12.957031 29.753906 10.875 27.667969 8.3125 27.667969 Z M 54.75 27.667969 C 52.1875 27.667969 50.105469 29.753906 50.105469 32.328125 C 50.105469 34.90625 52.1875 36.992188 54.75 36.992188 C 57.316406 36.992188 59.394531 34.90625 59.394531 32.328125 C 59.394531 29.753906 57.316406 27.667969 54.75 27.667969 Z M 8.3125 30 C 9.59375 30 10.632812 31.042969 10.632812 32.328125 C 10.632812 33.617188 9.59375 34.660156 8.3125 34.660156 C 7.03125 34.660156 5.988281 33.617188 5.988281 32.328125 C 5.988281 31.042969 7.03125 30 8.3125 30 Z M 54.75 30 C 56.03125 30 57.074219 31.042969 57.070312 32.328125 C 57.070312 33.617188 56.03125 34.660156 54.75 34.660156 C 53.46875 34.660156 52.429688 33.617188 52.429688 32.328125 C 52.429688 31.042969 53.46875 30 54.75 30 Z M 8.3125 50.976562 C 5.746094 50.976562 3.667969 53.0625 3.667969 55.636719 C 3.667969 58.210938 5.746094 60.300781 8.3125 60.300781 C 10.875 60.300781 12.957031 58.210938 12.957031 55.636719 C 12.957031 53.0625 10.875 50.976562 8.3125 50.976562 Z M 54.75 50.976562 C 52.1875 50.976562 50.105469 53.0625 50.105469 55.636719 C 50.105469 58.210938 52.1875 60.300781 54.75 60.300781 C 57.316406 60.300781 59.394531 58.210938 59.394531 55.636719 C 59.394531 53.0625 57.316406 50.976562 54.75 50.976562 Z M 8.3125 53.308594 C 9.59375 53.308594 10.632812 54.351562 10.632812 55.636719 C 10.632812 56.925781 9.59375 57.96875 8.3125 57.96875 C 7.03125 57.96875 5.988281 56.925781 5.988281 55.636719 C 5.988281 54.351562 7.03125 53.308594 8.3125 53.308594 Z M 54.75 53.308594 C 56.03125 53.308594 57.070312 54.351562 57.070312 55.636719 C 57.074219 56.925781 56.03125 57.96875 54.75 57.96875 C 53.46875 57.96875 52.429688 56.925781 52.429688 55.636719 C 52.429688 54.351562 53.46875 53.308594 54.75 53.308594 Z M 54.75 53.308594 "/></g></svg>
