<svg xmlns="http://www.w3.org/2000/svg" xmlns:xlink="http://www.w3.org/1999/xlink" width="64" height="64" viewBox="0 0 64 64" version="1.1"><defs><linearGradient id="linear0" x1="100%" x2="0%" y1="100%" y2="0%"><stop offset="0%" style="stop-color:#00b54e; stop-opacity:1"/><stop offset="100%" style="stop-color:#ff0000; stop-opacity:1"/></linearGradient></defs><g id="surface1"><path style=" stroke:none;fill-rule:evenodd;fill:url(#linear0);" d="M 13.210938 8.554688 C 1.441406 8.554688 1.386719 22.308594 1.386719 22.308594 L 1.386719 37.949219 C 1.386719 40.886719 3.253906 44.804688 5.066406 46.769531 C 8.257812 50.230469 10.472656 49.738281 10.472656 49.738281 C 10.472656 49.738281 10.507812 50.707031 11.40625 53.640625 C 12.3125 56.585938 14.976562 58.570312 17.695312 58.570312 C 20.402344 58.570312 21.363281 57.554688 21.363281 57.554688 L 21.363281 53.640625 C 21.363281 53.640625 20.429688 53.679688 18.625 52.703125 C 16.8125 51.71875 16.816406 49.738281 16.816406 49.738281 C 16.816406 49.738281 19.515625 48.773438 22.230469 45.828125 C 24.945312 42.890625 24.96875 37.949219 24.96875 37.949219 L 24.96875 23.242188 C 24.96875 23.242188 24.976562 8.554688 13.210938 8.554688 M 31.132812 10.574219 L 28.390625 18.390625 L 26.585938 18.390625 L 26.585938 22.308594 L 28.390625 22.308594 L 28.390625 42.929688 C 28.390625 42.929688 28.40625 47.785156 32.929688 47.785156 C 37.453125 47.785156 38.351562 45.828125 38.351562 45.828125 L 38.351562 42.054688 C 38.257812 42.332031 37.902344 42.929688 36.542969 42.929688 C 34.730469 42.929688 33.867188 40.972656 33.867188 40.972656 L 33.867188 22.308594 L 38.351562 22.308594 L 38.351562 18.394531 L 33.867188 18.394531 L 33.867188 10.582031 L 31.132812 10.582031 M 13.769531 13.476562 C 18.292969 13.476562 18.316406 18.332031 18.316406 18.332031 L 18.316406 37.949219 C 18.316406 37.949219 18.292969 44.820312 13.769531 44.820312 C 9.246094 44.820312 9.230469 37.949219 9.230469 37.949219 L 9.230469 19.335938 C 9.230469 19.335938 9.246094 13.476562 13.769531 13.476562 "/><path style=" stroke:none;fill-rule:nonzero;fill:url(#linear0);" d="M 61.5 13.269531 C 55.957031 35.324219 35.878906 34.339844 50.242188 53.851562 C 61.757812 48.921875 64.261719 42.742188 62.742188 27.710938 Z M 61.5 13.269531 "/></g></svg>
