<svg xmlns="http://www.w3.org/2000/svg" xmlns:xlink="http://www.w3.org/1999/xlink" width="64" height="64" viewBox="0 0 64 64" version="1.1"><defs><linearGradient id="linear0" x1="0%" x2="0%" y1="0%" y2="100%"><stop offset="0%" style="stop-color:#00b54e; stop-opacity:1"/><stop offset="50%" style="stop-color:#ffd000; stop-opacity:1"/><stop offset="100%" style="stop-color:#ff00bb; stop-opacity:1"/></linearGradient></defs><g id="surface1"><path style=" stroke:none;fill-rule:nonzero;fill:url(#linear0);" d="M 32.777344 1.007812 C 16.691406 1.007812 3.652344 13.582031 3.652344 29.09375 C 3.652344 44.601562 16.691406 57.175781 32.777344 57.175781 L 32.777344 49.152344 C 21.289062 49.152344 11.976562 40.171875 11.976562 29.09375 C 11.976562 18.011719 21.289062 9.03125 32.777344 9.03125 C 44.265625 9.03125 53.578125 18.011719 53.578125 29.09375 C 53.574219 35.84375 50.046875 42.140625 44.199219 45.84375 L 52.089844 50.074219 C 58.316406 44.75 61.890625 37.117188 61.898438 29.09375 C 61.898438 13.582031 48.859375 1.007812 32.777344 1.007812 Z M 34.855469 43.132812 L 34.855469 63.195312 L 53.578125 53.164062 Z M 34.855469 43.132812 "/></g></svg>
