<svg xmlns="http://www.w3.org/2000/svg" xmlns:xlink="http://www.w3.org/1999/xlink" width="64" height="64" viewBox="0 0 64 64" version="1.1"><defs><linearGradient id="linear0" x1="0%" x2="0%" y1="0%" y2="100%"><stop offset="0%" style="stop-color:#24dbdb; stop-opacity:1"/><stop offset="100%" style="stop-color:#174475; stop-opacity:1"/></linearGradient></defs><g id="surface1"><path style=" stroke:none;fill-rule:nonzero;fill:url(#linear0);" d="M 18.035156 1.289062 C 8.871094 1.289062 1.457031 10.945312 1.457031 22.878906 C 1.457031 34.8125 8.871094 44.46875 18.035156 44.46875 C 22.492188 44.445312 26.78125 42.085938 29.882812 37.925781 L 29.882812 59.886719 C 29.882812 61.585938 30.941406 62.972656 32.25 62.972656 C 33.558594 62.972656 34.621094 61.585938 34.621094 59.886719 L 34.621094 22.878906 C 34.621094 10.945312 27.207031 1.289062 18.035156 1.289062 Z M 37.222656 1.308594 C 36.8125 1.25 36.394531 1.34375 36.011719 1.566406 C 34.824219 2.273438 34.292969 4.097656 34.839844 5.636719 L 46.679688 39.5625 C 47.523438 41.972656 50.136719 41.972656 50.992188 39.5625 L 62.832031 5.636719 C 63.378906 4.082031 62.851562 2.242188 61.660156 1.566406 C 60.46875 0.863281 59.054688 1.542969 58.53125 3.097656 L 48.847656 30.851562 L 39.15625 3.097656 C 38.894531 2.351562 38.417969 1.777344 37.832031 1.488281 C 37.636719 1.394531 37.441406 1.335938 37.234375 1.308594 Z M 18.035156 7.445312 C 24.578125 7.445312 29.882812 14.355469 29.882812 22.867188 C 29.882812 31.378906 24.578125 38.285156 18.035156 38.285156 C 11.5 38.285156 6.195312 31.378906 6.195312 22.867188 C 6.195312 14.355469 11.5 7.445312 18.035156 7.445312 Z M 18.035156 7.445312 "/></g></svg>
