<svg xmlns="http://www.w3.org/2000/svg" xmlns:xlink="http://www.w3.org/1999/xlink" width="64" height="64" viewBox="0 0 64 64" version="1.1"><defs><linearGradient id="linear0" x1="0%" x2="100%" y1="0%" y2="100%"><stop offset="0%" style="stop-color:#e5ff00; stop-opacity:1"/><stop offset="50%" style="stop-color:#0073ff; stop-opacity:1"/><stop offset="100%" style="stop-color:#ff0000; stop-opacity:1"/></linearGradient></defs><g id="surface1"><path style=" stroke:none;fill-rule:nonzero;fill:url(#linear0);" d="M 20.222656 9.410156 C 13.597656 14.242188 13.578125 22.09375 20.191406 26.914062 L 23.347656 24.617188 C 18.425781 21.039062 18.449219 15.296875 23.371094 11.707031 L 20.222656 9.410156 M 41.085938 11.6875 C 46 15.265625 46.039062 21.054688 41.121094 24.644531 L 44.269531 26.941406 C 50.894531 22.113281 50.855469 14.214844 44.242188 9.394531 Z M 41.085938 11.6875 "/><path style=" stroke:none;fill-rule:nonzero;fill:url(#linear0);" d="M 10.328125 2.203125 C -1.757812 11.011719 -1.792969 25.332031 10.273438 34.125 L 16.015625 29.9375 C 7.058594 23.40625 7.097656 12.925781 16.070312 6.390625 L 10.328125 2.203125 M 48.382812 6.351562 C 57.347656 12.882812 57.410156 23.433594 48.433594 29.976562 L 54.1875 34.167969 C 66.265625 25.359375 66.195312 10.957031 54.128906 2.160156 L 48.382812 6.351562 "/><path style="fill:none;stroke-width:21.375;stroke-linecap:round;stroke-linejoin:miter;stroke:url(#linear0);stroke-miterlimit:4;" d="M 261.873836 212.139898 L 261.983158 481.778898 " transform="matrix(0.21439,0,0,0.158603,-22.65482,-15.517174)"/></g></svg>
