<svg xmlns="http://www.w3.org/2000/svg" xmlns:xlink="http://www.w3.org/1999/xlink" width="64" height="64" viewBox="0 0 64 64" version="1.1"><defs><linearGradient id="linear0" x1="0%" x2="0%" y1="0%" y2="100%"><stop offset="0%" style="stop-color:#00b54e; stop-opacity:1"/><stop offset="50%" style="stop-color:#ffd000; stop-opacity:1"/><stop offset="100%" style="stop-color:#ff00bb; stop-opacity:1"/></linearGradient></defs><g id="surface1"><path style=" stroke:none;fill-rule:nonzero;fill:url(#linear0);" d="M 32.542969 25.265625 L 32.542969 33.109375 C 40.074219 33.109375 44.675781 34.480469 48.792969 36.25 L 48.828125 36.25 L 48.828125 36.265625 L 52.023438 37.789062 C 52.0625 37.546875 52.09375 37.304688 52.09375 37.039062 L 51.765625 36.816406 L 50.320312 36.011719 L 50.320312 29.164062 C 45.730469 26.707031 39.433594 25.265625 32.542969 25.265625 Z M 32.542969 25.265625 "/><path style=" stroke:none;fill-rule:nonzero;fill:url(#linear0);" d="M 30.769531 4.855469 L 32.542969 1.71875 L 34.320312 4.855469 Z M 30.769531 4.855469 "/><path style=" stroke:none;fill-rule:nonzero;fill:url(#linear0);" d="M 12.992188 41.746094 C 12.988281 38.207031 16.957031 37.355469 20.085938 36.652344 L 21.9375 47.722656 Z M 12.992188 41.746094 "/><path style=" stroke:none;fill-rule:nonzero;fill:url(#linear0);" d="M 52.09375 37.039062 C 52.101562 40.574219 48.132812 41.425781 45.003906 42.128906 L 43.148438 31.0625 "/><path style=" stroke:none;fill-rule:nonzero;fill:url(#linear0);" d="M 32.542969 3.285156 C 32.917969 3.832031 37.875 6.425781 37.875 11.136719 L 37.875 31.542969 L 42.351562 61.882812 C 44.582031 61.398438 46.738281 60.753906 48.804688 59.964844 L 43.210938 31.53125 L 43.207031 31.53125 L 43.207031 11.136719 C 43.160156 7.964844 39.589844 4.742188 32.542969 3.285156 Z M 32.542969 3.285156 C 32.167969 3.832031 27.210938 6.425781 27.210938 11.136719 L 27.210938 31.542969 L 22.734375 61.882812 C 25.878906 62.566406 29.160156 62.9375 32.542969 62.9375 Z M 32.542969 3.285156 C 25.8125 3.289062 20.105469 6.425781 20.121094 11.136719 L 20.105469 11.136719 C 19.121094 11.136719 18.324219 11.835938 18.324219 12.703125 C 18.324219 13.574219 19.121094 14.273438 20.105469 14.273438 L 20.105469 31.53125 L 20.101562 31.53125 L 20.105469 31.542969 C 20.105469 32.816406 15.109375 50.644531 12.898438 58.496094 C 14 59.03125 15.128906 59.515625 16.285156 59.960938 L 21.882812 31.542969 L 21.882812 12.703125 C 21.882812 9.5625 25.503906 4.738281 32.542969 3.285156 Z M 32.542969 3.285156 "/><path style=" stroke:none;fill-rule:nonzero;fill:url(#linear0);" d="M 38.765625 15.058594 C 37.292969 15.058594 36.101562 16.113281 36.101562 17.414062 L 36.101562 25.265625 L 41.433594 25.265625 L 41.433594 17.414062 C 41.433594 16.113281 40.234375 15.058594 38.765625 15.058594 Z M 20.105469 15.847656 L 20.105469 23.691406 L 23.65625 23.691406 L 23.65625 15.847656 Z M 25.4375 15.847656 L 25.4375 23.691406 L 28.988281 23.691406 L 28.988281 15.847656 Z M 25.4375 15.847656 "/><path style=" stroke:none;fill-rule:nonzero;fill:url(#linear0);" d="M 52.09375 37.039062 L 52.09375 29.972656 C 47.601562 26.085938 39.652344 23.691406 30.769531 23.691406 L 30.769531 31.542969 C 41.433594 31.542969 46.253906 34.265625 52.09375 37.039062 Z M 52.09375 37.039062 "/><path style=" stroke:none;fill-rule:nonzero;fill:url(#linear0);" d="M 12.992188 41.746094 L 12.992188 48.8125 C 17.488281 52.695312 25.4375 55.089844 34.320312 55.089844 L 34.320312 47.238281 C 23.65625 47.238281 18.835938 44.515625 12.992188 41.746094 Z M 12.992188 41.746094 "/></g></svg>
