<svg xmlns="http://www.w3.org/2000/svg" xmlns:xlink="http://www.w3.org/1999/xlink" width="64" height="64" viewBox="0 0 64 64" version="1.1"><defs><linearGradient id="linear0" x1="0%" x2="100%" y1="0%" y2="100%"><stop offset="0%" style="stop-color:#00b54e; stop-opacity:1"/><stop offset="100%" style="stop-color:#0073ff; stop-opacity:1"/></linearGradient></defs><g id="surface1"><path style=" stroke:none;fill-rule:nonzero;fill:url(#linear0);" d="M 19.488281 3.046875 C 14.453125 3.046875 10.371094 7.058594 10.371094 12.007812 C 10.371094 16.960938 14.453125 20.96875 19.488281 20.96875 C 24.527344 20.96875 28.609375 16.960938 28.609375 12.007812 C 28.609375 7.058594 24.527344 3.046875 19.488281 3.046875 Z M 30.886719 3.046875 C 29.625 3.046875 28.609375 4.046875 28.609375 5.289062 C 28.609375 6.53125 29.625 7.527344 30.886719 7.527344 L 44.566406 7.527344 C 45.828125 7.527344 46.84375 6.53125 46.84375 5.289062 C 46.84375 4.046875 45.828125 3.046875 44.566406 3.046875 Z M 37.726562 9.769531 C 36.464844 9.769531 35.445312 10.769531 35.445312 12.007812 C 35.445312 13.25 36.464844 14.25 37.726562 14.25 L 51.402344 14.25 C 52.667969 14.25 53.683594 13.25 53.683594 12.007812 C 53.683594 10.769531 52.667969 9.769531 51.402344 9.769531 Z M 42.285156 16.488281 C 41.023438 16.488281 40.007812 17.488281 40.007812 18.730469 C 40.007812 19.96875 41.023438 20.96875 42.285156 20.96875 L 55.960938 20.96875 C 57.226562 20.96875 58.242188 19.96875 58.242188 18.730469 C 58.242188 17.488281 57.226562 16.488281 55.960938 16.488281 Z M 12.652344 23.210938 C 11.386719 23.210938 10.371094 24.210938 10.371094 25.449219 C 10.371094 26.691406 11.386719 27.691406 12.652344 27.691406 L 26.328125 27.691406 C 27.589844 27.691406 28.609375 26.691406 28.609375 25.449219 C 28.609375 24.210938 27.589844 23.210938 26.328125 23.210938 Z M 44.566406 23.210938 C 43.300781 23.210938 42.285156 24.210938 42.285156 25.449219 C 42.285156 26.691406 43.300781 27.691406 44.566406 27.691406 L 58.242188 27.691406 C 59.503906 27.691406 60.523438 26.691406 60.523438 25.449219 C 60.523438 24.210938 59.503906 23.210938 58.242188 23.210938 Z M 12.652344 29.929688 C 11.386719 29.929688 10.371094 30.929688 10.371094 32.171875 C 10.371094 33.410156 11.386719 34.410156 12.652344 34.410156 L 26.328125 34.410156 C 27.589844 34.410156 28.609375 33.410156 28.609375 32.171875 C 28.609375 30.929688 27.589844 29.929688 26.328125 29.929688 Z M 40.007812 29.929688 C 38.742188 29.929688 37.726562 30.929688 37.726562 32.171875 C 37.726562 33.410156 38.742188 34.410156 40.007812 34.410156 L 53.683594 34.410156 C 54.945312 34.410156 55.960938 33.410156 55.960938 32.171875 C 55.960938 30.929688 54.945312 29.929688 53.683594 29.929688 Z M 12.652344 36.652344 C 11.386719 36.652344 10.371094 37.648438 10.371094 38.890625 C 10.371094 40.132812 11.386719 41.132812 12.652344 41.132812 L 26.328125 41.132812 C 27.589844 41.132812 28.609375 40.132812 28.609375 38.890625 C 28.609375 37.648438 27.589844 36.652344 26.328125 36.652344 Z M 33.167969 36.652344 C 31.90625 36.652344 30.886719 37.648438 30.886719 38.890625 C 30.886719 40.132812 31.90625 41.132812 33.167969 41.132812 L 46.84375 41.132812 C 48.105469 41.132812 49.125 40.132812 49.125 38.890625 C 49.125 37.648438 48.105469 36.652344 46.84375 36.652344 Z M 12.652344 43.371094 C 11.386719 43.371094 10.371094 44.371094 10.371094 45.609375 C 10.371094 46.851562 11.386719 47.851562 12.652344 47.851562 L 26.328125 47.851562 C 27.589844 47.851562 28.609375 46.851562 28.609375 45.609375 C 28.609375 44.371094 27.589844 43.371094 26.328125 43.371094 Z M 37.726562 43.371094 C 36.464844 43.371094 35.445312 44.371094 35.445312 45.609375 C 35.445312 46.851562 36.464844 47.851562 37.726562 47.851562 L 51.402344 47.851562 C 52.667969 47.851562 53.683594 46.851562 53.683594 45.609375 C 53.683594 44.371094 52.667969 43.371094 51.402344 43.371094 Z M 12.652344 50.089844 C 11.386719 50.089844 10.371094 51.089844 10.371094 52.332031 C 10.371094 53.574219 11.386719 54.570312 12.652344 54.570312 L 26.328125 54.570312 C 27.589844 54.570312 28.609375 53.574219 28.609375 52.332031 C 28.609375 51.089844 27.589844 50.089844 26.328125 50.089844 Z M 42.285156 50.089844 C 41.023438 50.089844 40.007812 51.089844 40.007812 52.332031 C 40.007812 53.574219 41.023438 54.570312 42.285156 54.570312 L 55.960938 54.570312 C 57.226562 54.570312 58.242188 53.574219 58.242188 52.332031 C 58.242188 51.089844 57.226562 50.089844 55.960938 50.089844 Z M 12.652344 56.8125 C 11.386719 56.8125 10.371094 57.8125 10.371094 59.050781 C 10.371094 60.292969 11.386719 61.292969 12.652344 61.292969 L 26.328125 61.292969 C 27.589844 61.292969 28.609375 60.292969 28.609375 59.050781 C 28.609375 57.8125 27.589844 56.8125 26.328125 56.8125 Z M 44.566406 56.8125 C 43.300781 56.8125 42.285156 57.8125 42.285156 59.050781 C 42.285156 60.292969 43.300781 61.292969 44.566406 61.292969 L 58.242188 61.292969 C 59.503906 61.292969 60.523438 60.292969 60.523438 59.050781 C 60.523438 57.8125 59.503906 56.8125 58.242188 56.8125 Z M 44.566406 56.8125 "/></g></svg>
