<svg xmlns="http://www.w3.org/2000/svg" xmlns:xlink="http://www.w3.org/1999/xlink" width="64" height="64" viewBox="0 0 64 64" version="1.1"><defs><linearGradient id="linear0" x1="0%" x2="100%" y1="0%" y2="100%"><stop offset="0%" style="stop-color:#ff0000; stop-opacity:1"/><stop offset="100%" style="stop-color:#6a00ff; stop-opacity:1"/></linearGradient></defs><g id="surface1"><path style=" stroke:none;fill-rule:nonzero;fill:url(#linear0);" d="M 33.207031 1.820312 C 32.261719 1.792969 31.3125 1.8125 30.367188 1.867188 C 22.769531 2.328125 15.089844 5.484375 9.316406 11.894531 C 9.3125 11.898438 9.3125 11.898438 9.308594 11.898438 C 3.574219 18.277344 1.398438 25.898438 1.472656 32.835938 C 1.546875 39.769531 3.753906 46.0625 7.085938 50.390625 C 8.074219 51.671875 9.914062 51.910156 11.195312 50.925781 C 12.476562 49.9375 12.710938 48.105469 11.726562 46.824219 C 9.355469 43.738281 7.390625 38.457031 7.332031 32.769531 C 7.265625 27.082031 8.980469 21.027344 13.667969 15.8125 L 13.671875 15.808594 C 22.992188 5.46875 39.035156 5.96875 47.242188 12.566406 C 48.5 13.578125 50.347656 13.382812 51.359375 12.121094 C 52.375 10.863281 52.175781 9.023438 50.914062 8.007812 C 46.15625 4.183594 39.808594 1.996094 33.207031 1.820312 Z M 55.253906 13.511719 C 54.679688 13.527344 54.125 13.714844 53.652344 14.042969 C 52.328125 14.980469 52.019531 16.804688 52.949219 18.121094 C 58.300781 25.683594 60.4375 38.855469 50.972656 49.386719 C 46.339844 54.527344 40.082031 56.863281 33.832031 57.125 C 27.578125 57.386719 21.421875 55.453125 17.5 52.394531 C 16.226562 51.398438 14.386719 51.625 13.390625 52.898438 C 12.394531 54.171875 12.617188 56.011719 13.894531 57.007812 C 19.152344 61.109375 26.503906 63.289062 34.070312 62.976562 C 41.644531 62.65625 49.523438 59.734375 55.328125 53.296875 C 55.328125 53.296875 55.328125 53.296875 55.328125 53.292969 C 66.710938 40.632812 64.527344 24.347656 57.730469 14.746094 C 57.199219 13.996094 56.347656 13.535156 55.421875 13.511719 C 55.367188 13.507812 55.308594 13.507812 55.253906 13.511719 Z M 20.222656 14.253906 C 19.238281 14.261719 18.328125 14.785156 17.832031 15.632812 C 17.050781 16.964844 17.5 18.667969 18.832031 19.445312 L 29.070312 25.425781 L 18.859375 31.238281 C 17.519531 32 17.050781 33.703125 17.816406 35.039062 C 18.582031 36.378906 20.285156 36.84375 21.625 36.078125 L 32.296875 30 L 32.242188 30.035156 C 33.128906 29.554688 33.863281 29.097656 34.546875 28.433594 C 35.222656 27.769531 35.941406 26.660156 35.894531 25.324219 C 35.84375 23.988281 35.121094 23.039062 34.488281 22.421875 C 33.851562 21.808594 33.171875 21.371094 32.40625 20.917969 C 32.398438 20.917969 32.398438 20.917969 32.398438 20.914062 L 21.648438 14.636719 C 21.214844 14.382812 20.722656 14.253906 20.222656 14.253906 Z M 44.527344 28.785156 C 44.058594 28.792969 43.601562 28.914062 43.195312 29.148438 L 32.519531 35.226562 L 32.574219 35.195312 C 31.695312 35.671875 30.953125 36.128906 30.269531 36.792969 C 29.59375 37.460938 28.875 38.570312 28.921875 39.90625 C 28.972656 41.238281 29.695312 42.195312 30.332031 42.8125 C 30.96875 43.421875 31.640625 43.859375 32.414062 44.3125 C 32.414062 44.3125 32.417969 44.3125 32.417969 44.3125 L 43.167969 50.589844 C 44.5 51.371094 46.207031 50.921875 46.984375 49.59375 C 47.765625 48.265625 47.316406 46.558594 45.988281 45.78125 L 35.75 39.800781 L 45.957031 33.988281 C 47.300781 33.226562 47.765625 31.523438 47 30.1875 C 46.5 29.304688 45.546875 28.765625 44.527344 28.785156 Z M 44.527344 28.785156 "/></g></svg>
