<svg xmlns="http://www.w3.org/2000/svg" xmlns:xlink="http://www.w3.org/1999/xlink" width="64" height="64" viewBox="0 0 64 64" version="1.1"><defs><linearGradient id="linear0" x1="0%" x2="100%" y1="0%" y2="100%"><stop offset="0%" style="stop-color:#e5ff00; stop-opacity:1"/><stop offset="50%" style="stop-color:#0073ff; stop-opacity:1"/><stop offset="100%" style="stop-color:#ff0000; stop-opacity:1"/></linearGradient></defs><g id="surface1"><path style=" stroke:none;fill-rule:nonzero;fill:url(#linear0);" d="M 3.835938 4.140625 L 3.835938 11.152344 L 28.378906 11.152344 C 33.332031 11.152344 37.304688 15.851562 37.304688 21.671875 C 37.304688 27.488281 33.332031 32.1875 28.378906 32.1875 L 24.476562 32.1875 L 39.535156 60.234375 L 46.226562 60.234375 L 34.246094 37.9375 C 39.980469 35.34375 43.996094 29.054688 43.996094 21.671875 C 43.996094 11.945312 37.035156 4.140625 28.378906 4.140625 Z M 3.835938 13.488281 L 3.835938 60.234375 L 10.53125 60.234375 L 10.53125 20.5 L 27.261719 20.5 C 27.882812 20.5 28.378906 21.023438 28.378906 21.671875 C 28.378906 22.316406 27.882812 22.839844 27.261719 22.839844 L 12.761719 22.839844 L 12.761719 60.234375 L 19.453125 60.234375 L 19.453125 39.457031 L 30.609375 60.234375 L 37.304688 60.234375 L 20.996094 29.851562 L 28.378906 29.851562 C 32.082031 29.851562 35.070312 26.203125 35.070312 21.671875 C 35.070312 17.136719 32.082031 13.488281 28.378906 13.488281 Z M 48.457031 29.851562 L 48.457031 36.863281 L 41.765625 36.863281 L 41.765625 41.539062 L 48.457031 41.539062 L 48.457031 48.550781 L 52.921875 48.550781 L 52.921875 41.539062 L 59.613281 41.539062 L 59.613281 36.863281 L 52.921875 36.863281 L 52.921875 29.851562 Z M 48.457031 29.851562 "/></g></svg>
