<svg xmlns="http://www.w3.org/2000/svg" xmlns:xlink="http://www.w3.org/1999/xlink" width="64" height="64" viewBox="0 0 64 64" version="1.1"><defs><linearGradient id="linear0" x1="0%" x2="100%" y1="0%" y2="100%"><stop offset="0%" style="stop-color:#ae00ff; stop-opacity:1"/><stop offset="100%" style="stop-color:#0084ff; stop-opacity:1"/></linearGradient></defs><g id="surface1"><path style=" stroke:none;fill-rule:nonzero;fill:url(#linear0);" d="M 31.425781 6.773438 C 20.40625 6.773438 11.472656 16.796875 11.472656 29.167969 C 11.488281 35.296875 13.742188 41.148438 17.710938 45.359375 C 18.953125 44.734375 20.378906 43.929688 21.890625 42.980469 C 23.246094 42.144531 24.703125 41.167969 26.175781 40.152344 C 23.5 37.28125 21.976562 33.320312 21.953125 29.167969 C 21.953125 20.703125 28.066406 13.84375 35.605469 13.84375 C 40.71875 13.839844 45.402344 17.042969 47.746094 22.140625 C 48.457031 21.375 49.085938 20.652344 49.613281 20 C 46.394531 11.953125 39.265625 6.773438 31.402344 6.777344 Z M 59.78125 11.488281 C 57.34375 11.488281 53.710938 12.78125 49.445312 14.929688 C 49.789062 15.476562 50.109375 16.039062 50.414062 16.617188 C 51.203125 16.355469 51.890625 16.199219 52.433594 16.199219 C 52.695312 16.199219 52.925781 16.308594 53.109375 16.484375 C 53.335938 16.699219 53.484375 17.015625 53.484375 17.378906 C 53.484375 23.269531 20.929688 49.199219 13.578125 49.199219 C 12.800781 49.203125 12.226562 49.046875 11.875 48.753906 C 11.511719 48.453125 11.386719 48.003906 11.546875 47.433594 C 11.753906 46.683594 12.589844 45.507812 13.878906 44.0625 C 13.464844 43.449219 13.074219 42.820312 12.710938 42.167969 C 6.957031 47.945312 3.089844 53.128906 3.089844 56.265625 C 3.089844 56.917969 3.328125 57.503906 3.707031 57.933594 C 4.085938 58.359375 4.613281 58.621094 5.191406 58.621094 C 13.59375 58.621094 61.902344 20.90625 61.902344 13.835938 C 61.902344 13.0625 61.566406 12.382812 61.058594 11.949219 C 60.707031 11.65625 60.273438 11.476562 59.800781 11.476562 Z M 42.558594 18.792969 C 36.675781 22.402344 30.25 26.972656 24.328125 31.78125 C 24.457031 32.472656 24.652344 33.140625 24.878906 33.796875 C 30.992188 28.679688 38.09375 23.402344 43.761719 19.957031 C 43.386719 19.539062 42.988281 19.148438 42.566406 18.792969 Z M 51.359375 29.519531 C 50.636719 30.171875 49.859375 30.84375 49.089844 31.515625 C 48.054688 38.964844 42.34375 44.464844 35.625 44.480469 C 34.878906 44.472656 34.136719 44.398438 33.398438 44.257812 C 30.566406 46.402344 27.769531 48.429688 25.039062 50.339844 C 27.089844 51.132812 29.238281 51.542969 31.40625 51.5625 C 42.285156 51.550781 51.152344 41.753906 51.335938 29.542969 Z M 51.359375 29.519531 "/></g></svg>
