<svg xmlns="http://www.w3.org/2000/svg" xmlns:xlink="http://www.w3.org/1999/xlink" width="64" height="64" viewBox="0 0 64 64" version="1.1"><defs><linearGradient id="linear0" x1="0%" x2="0%" y1="0%" y2="100%"><stop offset="0%" style="stop-color:#24dbdb; stop-opacity:1"/><stop offset="100%" style="stop-color:#174475; stop-opacity:1"/></linearGradient></defs><g id="surface1"><path style=" stroke:none;fill-rule:nonzero;fill:url(#linear0);" d="M 28.523438 1.851562 C 23.773438 1.851562 19.140625 2.96875 15.324219 5.195312 C 11.503906 7.417969 8.214844 11.199219 8.214844 16.0625 C 8.214844 18.804688 9.363281 21.421875 11.0625 23.242188 C 12.761719 25.070312 14.847656 26.195312 17.074219 27.117188 C 21.503906 28.957031 26.660156 29.9375 31.613281 31.171875 C 36.570312 32.410156 41.242188 33.910156 44.289062 35.960938 C 47.332031 38.011719 48.878906 40.097656 48.878906 44.476562 C 48.878906 47.183594 47.617188 49.507812 45.128906 51.414062 C 42.648438 53.320312 38.917969 54.628906 34.652344 54.628906 C 24.253906 54.628906 19.625 48.140625 19.625 48.140625 C 18.28125 46.347656 15.734375 45.980469 13.9375 47.324219 C 12.144531 48.667969 11.777344 51.210938 13.121094 53.003906 C 13.121094 53.003906 20.679688 62.738281 34.648438 62.738281 C 40.539062 62.738281 45.9375 61.003906 50.085938 57.832031 C 54.226562 54.660156 56.988281 49.878906 56.988281 44.484375 C 56.988281 37.671875 53.460938 32.398438 48.867188 29.277344 C 44.269531 26.152344 38.792969 24.609375 33.59375 23.3125 C 28.394531 22.015625 23.398438 20.964844 20.230469 19.636719 C 18.632812 18.972656 17.546875 18.25 17.027344 17.691406 C 16.503906 17.140625 16.382812 16.90625 16.382812 16.09375 C 16.382812 14.851562 17.175781 13.566406 19.445312 12.242188 C 21.71875 10.921875 25.171875 10.007812 28.585938 10.007812 C 31.96875 10.007812 34.351562 10.835938 35.898438 11.613281 C 37.441406 12.378906 37.886719 12.875 37.886719 12.875 C 39.46875 14.449219 42.027344 14.449219 43.613281 12.875 C 45.1875 11.292969 45.1875 8.738281 43.613281 7.15625 C 43.613281 7.15625 42.023438 5.621094 39.507812 4.367188 C 36.996094 3.109375 33.296875 1.910156 28.542969 1.910156 Z M 28.523438 1.851562 "/></g></svg>
