<svg xmlns="http://www.w3.org/2000/svg" xmlns:xlink="http://www.w3.org/1999/xlink" width="64" height="64" viewBox="0 0 64 64" version="1.1"><defs><linearGradient id="linear0" x1="0%" x2="0%" y1="0%" y2="100%"><stop offset="0%" style="stop-color:#00b54e; stop-opacity:1"/><stop offset="50%" style="stop-color:#ffd000; stop-opacity:1"/><stop offset="100%" style="stop-color:#ff00bb; stop-opacity:1"/></linearGradient></defs><g id="surface1"><path style=" stroke:none;fill-rule:nonzero;fill:url(#linear0);" d="M 53.191406 4.21875 L 48.65625 8.570312 C 44.433594 5.984375 39.609375 4.5 34.644531 4.253906 C 26.714844 3.871094 18.960938 6.675781 13.164062 12.03125 C 3.363281 21.082031 1.007812 35.542969 7.449219 47.171875 C 13.890625 58.800781 27.496094 64.640625 40.496094 61.351562 C 53.496094 58.066406 62.589844 46.492188 62.589844 33.234375 L 50.910156 33.234375 L 32.460938 15.003906 L 19.011719 28.34375 L 12.628906 22.039062 C 16.757812 14.625 24.648438 10.015625 33.214844 10.015625 C 37.074219 10.027344 40.875 10.972656 44.269531 12.777344 L 39.089844 17.753906 L 55.738281 19.691406 L 53.191406 4.210938 Z M 29.714844 20.511719 L 42.601562 33.242188 L 23.960938 33.242188 L 20.394531 29.722656 Z M 10.34375 28.003906 L 21.464844 38.988281 L 21.464844 39.046875 L 21.527344 39.046875 L 38.511719 55.835938 C 36.777344 56.242188 35 56.453125 33.214844 56.464844 C 20.238281 56.464844 9.714844 46.066406 9.714844 33.242188 C 9.722656 31.476562 9.933594 29.71875 10.34375 28.003906 Z M 29.832031 39.046875 L 55.945312 39.046875 C 54.324219 45.234375 50.191406 50.484375 44.53125 53.566406 Z M 29.832031 39.046875 "/><path style=" stroke:none;fill-rule:nonzero;fill:url(#linear0);" d="M 32.683594 2.324219 C 24.753906 1.941406 17.007812 4.746094 11.203125 10.101562 C 1.402344 19.148438 -0.953125 33.613281 5.488281 45.242188 C 11.929688 56.871094 25.535156 62.714844 38.535156 59.429688 C 51.539062 56.140625 60.628906 44.566406 60.628906 31.308594 L 54.757812 31.308594 C 54.757812 44.132812 44.234375 54.53125 31.253906 54.53125 C 18.277344 54.53125 7.753906 44.132812 7.753906 31.308594 C 7.753906 18.488281 18.277344 8.089844 31.253906 8.089844 C 35.742188 8.097656 40.128906 9.371094 43.902344 11.765625 L 47.082031 6.855469 C 42.765625 4.128906 37.800781 2.566406 32.683594 2.324219 "/><path style=" stroke:none;fill-rule:nonzero;fill:url(#linear0);" d="M 19.503906 31.308594 L 59.652344 31.308594 L 59.652344 37.113281 L 19.503906 37.113281 Z M 19.503906 31.308594 "/><path style=" stroke:none;fill-rule:nonzero;fill:url(#linear0);" d="M 10.367188 19.816406 L 43.601562 52.65625 L 39.449219 56.757812 L 6.210938 23.921875 Z M 10.367188 19.816406 "/><path style=" stroke:none;fill-rule:nonzero;fill:url(#linear0);" d="M 30.5 13.078125 L 16.675781 26.800781 L 18.058594 28.167969 L 27.765625 18.578125 L 45.742188 36.339844 L 49.898438 32.238281 Z M 30.5 13.078125 "/><path style=" stroke:none;fill-rule:nonzero;fill:url(#linear0);" d="M 51.230469 2.285156 L 53.777344 17.761719 L 37.132812 15.828125 Z M 51.230469 2.285156 "/></g></svg>
