<svg xmlns="http://www.w3.org/2000/svg" xmlns:xlink="http://www.w3.org/1999/xlink" width="64" height="64" viewBox="0 0 64 64" version="1.1"><defs><linearGradient id="linear0" x1="0%" x2="100%" y1="0%" y2="100%"><stop offset="0%" style="stop-color:#e5ff00; stop-opacity:1"/><stop offset="50%" style="stop-color:#0073ff; stop-opacity:1"/><stop offset="100%" style="stop-color:#ff0000; stop-opacity:1"/></linearGradient></defs><g id="surface1"><path style=" stroke:none;fill-rule:nonzero;fill:url(#linear0);" d="M 46.164062 2.546875 L 29.566406 18.625 L 46.164062 34.699219 L 62.753906 18.625 Z M 1.125 11.734375 L 1.125 34.699219 L 24.828125 34.699219 L 24.828125 11.734375 Z M 1.125 39.292969 L 1.125 62.257812 L 24.828125 62.257812 L 24.828125 39.292969 Z M 29.566406 39.292969 L 29.566406 62.257812 L 53.277344 62.257812 L 53.277344 39.292969 Z M 29.566406 39.292969 "/><path style=" stroke:none;fill-rule:nonzero;fill:url(#linear0);" d="M 35.996094 25.824219 L 31.644531 25.824219 L 31.644531 27.253906 L 34.542969 30.113281 L 34.542969 32.976562 L 33.09375 34.402344 L 30.191406 34.402344 L 27.292969 31.542969 L 25.839844 31.542969 L 25.839844 35.832031 L 28.742188 38.691406 L 34.542969 38.691406 L 42.648438 46.425781 C 43.175781 46.945312 43.902344 47.265625 44.699219 47.265625 C 46.289062 47.265625 47.59375 45.984375 47.59375 44.40625 C 47.59375 43.613281 47.273438 42.902344 46.746094 42.390625 L 38.902344 34.398438 L 38.902344 28.675781 Z M 35.996094 25.824219 "/></g></svg>
