<svg xmlns="http://www.w3.org/2000/svg" xmlns:xlink="http://www.w3.org/1999/xlink" width="64" height="64" viewBox="0 0 64 64" version="1.1"><defs><linearGradient id="linear0" x1="0%" x2="0%" y1="0%" y2="100%"><stop offset="0%" style="stop-color:#ff0000; stop-opacity:1"/><stop offset="50%" style="stop-color:#ffd000; stop-opacity:1"/><stop offset="100%" style="stop-color:#0073ff; stop-opacity:1"/></linearGradient></defs><g id="surface1"><path style=" stroke:none;fill-rule:nonzero;fill:url(#linear0);" d="M 29.300781 4.039062 C 39.300781 4.039062 49.503906 15.386719 54.4375 23.320312 L 56.949219 12.59375 C 56.988281 12.566406 57.035156 12.558594 57.078125 12.546875 C 57.640625 11.953125 58.84375 12.3125 59 13.113281 L 63.023438 36.402344 C 63.164062 37.054688 62.558594 37.761719 61.886719 37.753906 L 55.574219 36.230469 C 53.394531 49.441406 43.136719 59.824219 29.300781 59.824219 C 13.917969 59.824219 1.347656 47.316406 1.347656 31.953125 C 1.347656 16.585938 13.917969 4.039062 29.300781 4.039062 Z M 25.894531 12.5 C 24.429688 12.515625 22.851562 12.703125 21.265625 13.277344 C 12.742188 16.410156 6.765625 22.328125 6.765625 31.953125 C 6.765625 44.410156 17.089844 54.453125 29.566406 54.453125 C 40.953125 54.453125 54.019531 47.164062 55.558594 36.226562 L 39.34375 31.949219 C 38.53125 31.921875 37.984375 30.8125 38.472656 30.164062 L 47.921875 28.667969 C 47.8125 28.246094 41.492188 20.726562 38.082031 17.589844 C 34.285156 14.09375 30.742188 12.828125 25.894531 12.492188 "/><path style=" stroke:none;fill-rule:nonzero;fill:url(#linear0);" d="M 25.042969 18.949219 C 24.460938 18.949219 23.996094 19.398438 23.996094 19.964844 L 23.996094 22.378906 C 23.109375 22.597656 22.277344 22.929688 21.511719 23.378906 L 19.757812 21.671875 C 19.347656 21.269531 18.683594 21.269531 18.269531 21.671875 L 16.542969 23.347656 C 16.132812 23.742188 16.132812 24.386719 16.542969 24.789062 L 18.300781 26.492188 C 17.847656 27.238281 17.5 28.046875 17.269531 28.90625 L 14.785156 28.90625 C 14.203125 28.90625 13.738281 29.355469 13.738281 29.921875 L 13.738281 32.292969 C 13.738281 32.863281 14.203125 33.3125 14.785156 33.3125 L 17.269531 33.3125 C 17.5 34.171875 17.847656 34.984375 18.300781 35.722656 L 16.542969 37.433594 C 16.132812 37.828125 16.132812 38.472656 16.542969 38.867188 L 18.269531 40.546875 C 18.683594 40.949219 19.347656 40.949219 19.757812 40.546875 L 21.511719 38.839844 C 22.277344 39.285156 23.109375 39.617188 23.996094 39.839844 L 23.996094 42.253906 C 23.996094 42.820312 24.460938 43.273438 25.042969 43.273438 L 27.484375 43.273438 C 28.066406 43.273438 28.539062 42.820312 28.539062 42.253906 L 28.539062 39.839844 C 29.421875 39.617188 30.257812 39.285156 31.015625 38.839844 L 32.777344 40.546875 C 33.1875 40.949219 33.851562 40.949219 34.261719 40.546875 L 35.988281 38.867188 C 36.394531 38.472656 36.394531 37.828125 35.988281 37.433594 L 34.226562 35.722656 C 34.6875 34.984375 35.03125 34.171875 35.257812 33.3125 L 37.742188 33.3125 C 38.324219 33.3125 38.796875 32.863281 38.796875 32.292969 L 38.796875 29.921875 C 38.796875 29.355469 38.324219 28.90625 37.742188 28.90625 L 35.257812 28.90625 C 35.03125 28.046875 34.6875 27.238281 34.226562 26.492188 L 35.988281 24.789062 C 36.394531 24.386719 36.394531 23.742188 35.988281 23.347656 L 34.261719 21.671875 C 33.84375 21.269531 33.1875 21.269531 32.777344 21.671875 L 31.015625 23.378906 C 30.257812 22.929688 29.421875 22.597656 28.539062 22.378906 L 28.539062 19.964844 C 28.539062 19.398438 28.066406 18.949219 27.484375 18.949219 Z M 26.261719 26.953125 C 28.632812 26.953125 30.542969 28.816406 30.542969 31.109375 C 30.542969 33.40625 28.632812 35.269531 26.261719 35.269531 C 23.894531 35.269531 21.984375 33.410156 21.984375 31.109375 C 21.984375 28.816406 23.894531 26.953125 26.261719 26.953125 Z M 26.261719 26.953125 "/></g></svg>
