<svg xmlns="http://www.w3.org/2000/svg" xmlns:xlink="http://www.w3.org/1999/xlink" width="64" height="64" viewBox="0 0 64 64" version="1.1"><defs><linearGradient id="linear0" x1="0%" x2="100%" y1="0%" y2="100%"><stop offset="0%" style="stop-color:#ae00ff; stop-opacity:1"/><stop offset="100%" style="stop-color:#0084ff; stop-opacity:1"/></linearGradient></defs><g id="surface1"><path style=" stroke:none;fill-rule:nonzero;fill:url(#linear0);" d="M 7.792969 4.832031 C 5.753906 4.832031 4.105469 6.503906 4.105469 8.570312 C 4.105469 10.632812 5.753906 12.304688 7.792969 12.304688 C 9.828125 12.304688 11.480469 10.632812 11.480469 8.570312 C 11.480469 6.503906 9.828125 4.832031 7.792969 4.832031 Z M 15.167969 12.304688 C 13.132812 12.304688 11.480469 13.976562 11.480469 16.042969 C 11.480469 18.105469 13.132812 19.777344 15.167969 19.777344 C 17.207031 19.777344 18.859375 18.105469 18.859375 16.042969 C 18.859375 13.976562 17.207031 12.304688 15.167969 12.304688 Z M 22.546875 19.777344 C 20.511719 19.777344 18.859375 21.449219 18.859375 23.515625 C 18.859375 25.578125 20.511719 27.25 22.546875 27.25 C 24.585938 27.25 26.234375 25.578125 26.234375 23.515625 C 26.234375 21.449219 24.585938 19.777344 22.546875 19.777344 Z M 39.761719 37.214844 C 37.722656 37.214844 36.070312 38.886719 36.070312 40.949219 C 36.070312 43.011719 37.722656 44.6875 39.761719 44.6875 C 41.796875 44.6875 43.449219 43.011719 43.449219 40.949219 C 43.449219 38.886719 41.796875 37.214844 39.761719 37.214844 Z M 54.515625 37.214844 C 52.476562 37.214844 50.828125 38.886719 50.828125 40.949219 C 50.828125 43.011719 52.476562 44.6875 54.515625 44.6875 C 56.550781 44.6875 58.203125 43.011719 58.203125 40.949219 C 58.203125 38.886719 56.550781 37.214844 54.515625 37.214844 Z M 15.167969 38.457031 L 7.644531 45.78125 C 6.910156 46.496094 6.566406 47.46875 6.566406 48.421875 C 6.566406 50.480469 8.21875 52.15625 10.253906 52.15625 L 13.941406 52.15625 L 11.484375 57.140625 L 18.859375 57.140625 L 16.402344 52.15625 L 20.089844 52.15625 C 22.125 52.15625 23.777344 50.480469 23.777344 48.421875 C 23.777344 47.464844 23.433594 46.492188 22.699219 45.78125 Z M 47.136719 44.6875 C 45.101562 44.6875 43.449219 46.359375 43.449219 48.421875 C 43.449219 50.484375 45.101562 52.15625 47.136719 52.15625 C 49.175781 52.15625 50.828125 50.484375 50.828125 48.421875 C 50.828125 46.359375 49.175781 44.6875 47.136719 44.6875 Z M 39.761719 52.15625 C 37.722656 52.15625 36.070312 53.832031 36.070312 55.894531 C 36.070312 57.957031 37.722656 59.628906 39.761719 59.628906 C 41.796875 59.628906 43.449219 57.957031 43.449219 55.894531 C 43.449219 53.832031 41.796875 52.15625 39.761719 52.15625 Z M 54.515625 52.15625 C 52.476562 52.15625 50.828125 53.832031 50.828125 55.894531 C 50.828125 57.957031 52.476562 59.628906 54.515625 59.628906 C 56.550781 59.628906 58.203125 57.957031 58.203125 55.894531 C 58.203125 53.832031 56.550781 52.15625 54.515625 52.15625 Z M 54.515625 52.15625 "/><path style=" stroke:none;fill-rule:nonzero;fill:url(#linear0);" d="M 40.382812 5.359375 C 36.960938 5.359375 34.183594 7.640625 34.183594 10.449219 C 34.183594 18.449219 46.578125 27.175781 46.578125 27.175781 C 46.578125 27.175781 58.96875 18.449219 58.96875 10.449219 C 58.96875 7.640625 56.191406 5.359375 52.773438 5.359375 C 49.351562 5.359375 46.578125 7.640625 46.578125 10.449219 C 46.578125 7.640625 43.800781 5.359375 40.382812 5.359375 Z M 40.382812 5.359375 "/></g></svg>
