<svg xmlns="http://www.w3.org/2000/svg" xmlns:xlink="http://www.w3.org/1999/xlink" width="64" height="64" viewBox="0 0 64 64" version="1.1"><defs><linearGradient id="linear0" x1="0%" x2="0%" y1="0%" y2="100%"><stop offset="0%" style="stop-color:#24dbdb; stop-opacity:1"/><stop offset="100%" style="stop-color:#174475; stop-opacity:1"/></linearGradient></defs><g id="surface1"><path style=" stroke:none;fill-rule:nonzero;fill:url(#linear0);" d="M 49.738281 1.917969 C 49.191406 1.917969 48.652344 1.949219 48.125 2.007812 C 48.03125 2.019531 47.941406 2.046875 47.855469 2.058594 C 47.804688 2.0625 47.753906 2.0625 47.707031 2.074219 C 47.585938 2.097656 47.453125 2.113281 47.328125 2.136719 C 47.148438 2.167969 46.976562 2.210938 46.804688 2.25 C 46.457031 2.328125 46.105469 2.414062 45.769531 2.515625 C 45.5625 2.582031 45.351562 2.648438 45.148438 2.722656 C 45.078125 2.75 45.003906 2.769531 44.929688 2.804688 C 44.488281 2.972656 44.0625 3.175781 43.644531 3.386719 C 43.617188 3.394531 43.601562 3.40625 43.574219 3.417969 C 43.484375 3.464844 43.386719 3.511719 43.292969 3.558594 C 43.144531 3.636719 43.007812 3.730469 42.863281 3.8125 C 42.699219 3.90625 42.546875 4.007812 42.386719 4.113281 C 42.359375 4.128906 42.324219 4.15625 42.292969 4.171875 C 42.105469 4.300781 41.914062 4.414062 41.738281 4.550781 C 41.714844 4.566406 41.703125 4.585938 41.6875 4.601562 C 41.484375 4.753906 41.277344 4.910156 41.089844 5.074219 C 41.042969 5.105469 41.007812 5.136719 40.96875 5.171875 C 40.875 5.257812 40.785156 5.347656 40.6875 5.4375 C 40.632812 5.488281 40.578125 5.53125 40.527344 5.582031 C 40.441406 5.660156 40.367188 5.738281 40.292969 5.816406 C 40.144531 5.964844 40 6.109375 39.863281 6.253906 C 39.851562 6.261719 39.847656 6.265625 39.839844 6.277344 C 39.71875 6.410156 39.597656 6.542969 39.480469 6.683594 C 39.320312 6.871094 39.160156 7.0625 39.023438 7.257812 C 39.011719 7.261719 39.011719 7.273438 39 7.285156 C 37.347656 9.5 36.367188 12.246094 36.367188 15.214844 C 36.367188 16.171875 36.472656 17.121094 36.664062 18.019531 C 36.664062 18.027344 36.664062 18.035156 36.664062 18.039062 C 36.71875 18.289062 36.789062 18.535156 36.855469 18.78125 C 36.945312 19.082031 37.054688 19.375 37.160156 19.667969 C 37.175781 19.71875 37.1875 19.757812 37.207031 19.804688 C 37.246094 19.925781 37.285156 20.050781 37.335938 20.171875 C 37.339844 20.171875 37.347656 20.171875 37.347656 20.171875 C 37.621094 20.839844 37.960938 21.488281 38.335938 22.097656 C 37.96875 22.167969 37.59375 22.1875 37.207031 22.15625 C 37.179688 22.15625 37.152344 22.144531 37.125 22.144531 C 36.960938 22.128906 36.789062 22.117188 36.621094 22.078125 C 34.234375 21.582031 32.714844 19.273438 33.222656 16.902344 C 33.492188 15.625 34.296875 14.609375 35.351562 14.011719 C 35.519531 12.140625 36.105469 10.332031 36.984375 8.675781 C 36.421875 8.472656 35.839844 8.296875 35.242188 8.167969 C 34.34375 7.980469 33.449219 7.886719 32.566406 7.882812 C 26.40625 7.84375 20.855469 12.113281 19.527344 18.335938 C 19.203125 19.847656 19.160156 21.316406 19.351562 22.757812 L 2.136719 33.894531 C 1.449219 34.335938 -0.0546875 39.929688 1.070312 41.652344 C 2.191406 43.355469 7.945312 44.269531 8.632812 43.820312 L 9.757812 43.097656 L 13.441406 43.871094 C 14.175781 44.023438 14.90625 43.601562 15.0625 42.878906 L 15.835938 39.210938 L 19.480469 39.972656 C 20.210938 40.128906 20.945312 39.683594 21.101562 38.960938 L 21.875 35.3125 L 25.519531 36.074219 C 26.246094 36.226562 26.980469 35.789062 27.136719 35.066406 L 27.515625 33.257812 C 28.226562 33.546875 28.988281 33.777344 29.757812 33.941406 C 36.917969 35.449219 43.957031 30.90625 45.46875 23.785156 C 46.535156 18.769531 44.566406 13.824219 40.820312 10.808594 C 40.3125 11.839844 39.984375 12.945312 39.832031 14.078125 C 41.367188 15.015625 42.226562 16.859375 41.835938 18.722656 C 41.703125 19.316406 41.445312 19.859375 41.117188 20.332031 C 41.03125 20.414062 40.972656 20.5 40.929688 20.578125 C 40.917969 20.589844 40.914062 20.59375 40.90625 20.601562 C 40.769531 20.769531 40.605469 20.921875 40.429688 21.070312 C 40.050781 20.46875 39.714844 19.832031 39.449219 19.160156 C 39.105469 18.28125 38.886719 17.351562 38.78125 16.382812 C 38.773438 16.304688 38.757812 16.222656 38.753906 16.144531 C 38.746094 16.085938 38.738281 16.019531 38.730469 15.953125 C 38.714844 15.707031 38.703125 15.46875 38.703125 15.214844 C 38.703125 12.492188 39.714844 9.996094 41.367188 8.078125 C 41.550781 7.871094 41.738281 7.667969 41.925781 7.476562 C 41.953125 7.457031 41.96875 7.433594 41.996094 7.414062 C 42.183594 7.226562 42.386719 7.039062 42.59375 6.859375 C 42.636719 6.824219 42.683594 6.785156 42.722656 6.75 C 43.09375 6.445312 43.484375 6.171875 43.902344 5.914062 C 44.015625 5.835938 44.140625 5.761719 44.261719 5.691406 C 44.277344 5.683594 44.285156 5.683594 44.292969 5.679688 C 44.414062 5.605469 44.539062 5.539062 44.660156 5.472656 C 44.722656 5.4375 44.789062 5.410156 44.847656 5.375 C 45.035156 5.285156 45.214844 5.203125 45.410156 5.121094 C 45.417969 5.117188 45.4375 5.109375 45.457031 5.105469 C 45.480469 5.097656 45.507812 5.085938 45.535156 5.074219 C 46.003906 4.886719 46.480469 4.714844 46.976562 4.585938 C 47.046875 4.566406 47.117188 4.558594 47.183594 4.539062 C 47.652344 4.429688 48.128906 4.347656 48.613281 4.300781 C 48.773438 4.289062 48.929688 4.265625 49.089844 4.25 C 49.304688 4.238281 49.519531 4.238281 49.738281 4.238281 C 55.832031 4.238281 60.769531 9.15625 60.769531 15.214844 C 60.769531 15.410156 60.761719 15.613281 60.75 15.816406 C 60.75 15.886719 60.742188 15.976562 60.738281 16.050781 C 60.730469 16.085938 60.726562 16.113281 60.71875 16.144531 C 60.703125 16.386719 60.675781 16.621094 60.636719 16.859375 C 60.632812 16.894531 60.632812 16.929688 60.625 16.96875 C 60.613281 17.035156 60.59375 17.101562 60.578125 17.175781 C 60.523438 17.476562 60.46875 17.800781 60.390625 18.101562 C 60.378906 18.144531 60.363281 18.179688 60.355469 18.214844 C 60.3125 18.359375 60.257812 18.496094 60.207031 18.644531 C 60.152344 18.820312 60.085938 19 60.019531 19.179688 C 59.882812 19.527344 59.730469 19.871094 59.558594 20.199219 C 59.492188 20.335938 59.425781 20.46875 59.351562 20.601562 C 58.785156 21.601562 58.046875 22.507812 57.195312 23.285156 L 57.195312 23.296875 C 56.324219 24.097656 55.328125 24.753906 54.222656 25.242188 C 54.398438 26.019531 54.515625 26.8125 54.558594 27.613281 C 55.492188 27.253906 56.371094 26.78125 57.195312 26.234375 C 57.195312 26.234375 57.207031 26.238281 57.207031 26.234375 C 57.652344 25.9375 58.078125 25.621094 58.484375 25.273438 C 58.582031 25.1875 58.675781 25.109375 58.761719 25.023438 C 58.867188 24.921875 58.964844 24.835938 59.070312 24.738281 C 59.109375 24.699219 59.136719 24.648438 59.179688 24.605469 C 59.335938 24.457031 59.480469 24.308594 59.621094 24.152344 C 59.796875 23.96875 59.960938 23.789062 60.121094 23.597656 C 60.132812 23.585938 60.136719 23.566406 60.148438 23.546875 C 60.230469 23.457031 60.296875 23.34375 60.367188 23.246094 C 60.457031 23.136719 60.558594 23.039062 60.636719 22.917969 C 60.671875 22.882812 60.695312 22.847656 60.71875 22.808594 C 60.847656 22.628906 60.972656 22.445312 61.085938 22.253906 C 61.09375 22.242188 61.09375 22.234375 61.097656 22.226562 C 61.242188 22.007812 61.375 21.789062 61.5 21.558594 C 61.515625 21.53125 61.527344 21.492188 61.546875 21.464844 C 61.785156 21.027344 61.996094 20.5625 62.1875 20.089844 C 62.242188 19.953125 62.289062 19.816406 62.34375 19.679688 C 62.386719 19.5625 62.429688 19.453125 62.46875 19.328125 C 62.472656 19.3125 62.476562 19.289062 62.484375 19.269531 C 62.558594 19.03125 62.625 18.789062 62.691406 18.546875 C 62.714844 18.457031 62.734375 18.375 62.753906 18.289062 C 62.769531 18.25 62.78125 18.207031 62.785156 18.167969 C 62.835938 17.953125 62.878906 17.734375 62.914062 17.515625 C 62.949219 17.3125 62.984375 17.109375 63.011719 16.902344 C 63.039062 16.695312 63.054688 16.480469 63.070312 16.265625 C 63.078125 16.199219 63.085938 16.132812 63.085938 16.0625 C 63.105469 15.777344 63.121094 15.5 63.121094 15.214844 C 63.121094 7.871094 57.125 1.917969 49.75 1.917969 M 47.613281 18.496094 C 47.707031 19.011719 47.761719 19.519531 47.792969 20.046875 C 48.828125 29.75 38.707031 38.265625 29.269531 35.925781 C 29.097656 36.1875 28.886719 36.429688 28.664062 36.660156 C 28.683594 36.683594 28.707031 36.707031 28.730469 36.738281 L 19.417969 54.945312 C 19.046875 55.667969 20.574219 61.246094 22.402344 62.175781 C 24.238281 63.097656 29.675781 61.035156 30.046875 60.308594 L 30.667969 59.109375 L 34.242188 57.957031 C 34.949219 57.726562 35.375 56.972656 35.148438 56.265625 L 33.972656 52.714844 L 37.496094 51.578125 C 38.203125 51.347656 38.632812 50.59375 38.402344 49.886719 L 37.242188 46.335938 L 40.769531 45.203125 C 41.480469 44.972656 41.890625 44.230469 41.65625 43.527344 L 41.089844 41.773438 C 41.839844 41.667969 42.625 41.492188 43.375 41.25 C 50.335938 39 54.140625 31.554688 51.875 24.636719 C 51.050781 22.128906 49.539062 20.046875 47.613281 18.496094 M 20.292969 26.183594 C 20.683594 27.097656 21.171875 27.957031 21.753906 28.765625 L 7.171875 38.25 C 6.488281 38.691406 5.535156 38.496094 5.085938 37.808594 C 4.640625 37.121094 4.851562 36.183594 5.535156 35.738281 L 20.292969 26.183594 M 31.285156 39.230469 C 32.082031 39.828125 32.933594 40.324219 33.839844 40.730469 L 25.980469 56.1875 C 25.609375 56.910156 24.691406 57.222656 23.960938 56.851562 C 23.234375 56.484375 22.925781 55.570312 23.300781 54.84375 L 31.285156 39.230469 "/></g></svg>
