<svg xmlns="http://www.w3.org/2000/svg" xmlns:xlink="http://www.w3.org/1999/xlink" width="64" height="64" viewBox="0 0 64 64" version="1.1"><defs><linearGradient id="linear0" x1="0%" x2="0%" y1="0%" y2="100%"><stop offset="0%" style="stop-color:#ff0000; stop-opacity:1"/><stop offset="50%" style="stop-color:#ffd000; stop-opacity:1"/><stop offset="100%" style="stop-color:#0073ff; stop-opacity:1"/></linearGradient></defs><g id="surface1"><path style=" stroke:none;fill-rule:nonzero;fill:url(#linear0);" d="M 7.0625 38.933594 C 5.671875 38.933594 4.542969 40.226562 4.542969 41.820312 C 4.542969 43.410156 5.671875 44.699219 7.0625 44.699219 C 8.453125 44.699219 9.582031 43.410156 9.582031 41.820312 C 9.582031 40.226562 8.453125 38.933594 7.0625 38.933594 Z M 19.664062 38.933594 C 18.273438 38.933594 17.144531 40.226562 17.144531 41.820312 C 17.144531 43.410156 18.273438 44.699219 19.664062 44.699219 C 21.054688 44.699219 22.1875 43.410156 22.1875 41.820312 C 22.1875 40.226562 21.054688 38.933594 19.664062 38.933594 Z M 32.269531 38.933594 C 30.871094 38.933594 29.746094 40.226562 29.746094 41.820312 C 29.746094 43.410156 30.871094 44.699219 32.269531 44.699219 C 33.660156 44.699219 34.789062 43.410156 34.789062 41.820312 C 34.789062 40.226562 33.660156 38.933594 32.269531 38.933594 Z M 44.867188 38.933594 C 43.476562 38.933594 42.351562 40.226562 42.351562 41.820312 C 42.351562 43.410156 43.476562 44.699219 44.867188 44.699219 C 46.261719 44.699219 47.386719 43.410156 47.386719 41.820312 C 47.386719 40.226562 46.261719 38.933594 44.867188 38.933594 Z M 57.46875 38.933594 C 56.078125 38.933594 54.949219 40.226562 54.949219 41.820312 C 54.949219 43.410156 56.078125 44.699219 57.46875 44.699219 C 58.859375 44.699219 59.988281 43.410156 59.988281 41.820312 C 59.988281 40.226562 58.859375 38.933594 57.46875 38.933594 Z M 12.101562 50.460938 C 10.710938 50.460938 9.582031 51.75 9.582031 53.339844 C 9.582031 54.933594 10.710938 56.226562 12.101562 56.226562 C 13.496094 56.226562 14.625 54.933594 14.625 53.339844 C 14.625 51.75 13.496094 50.460938 12.101562 50.460938 Z M 24.707031 50.460938 C 23.316406 50.460938 22.1875 51.75 22.1875 53.339844 C 22.1875 54.933594 23.316406 56.226562 24.707031 56.226562 C 26.097656 56.226562 27.226562 54.933594 27.226562 53.339844 C 27.226562 51.75 26.097656 50.460938 24.707031 50.460938 Z M 37.308594 50.460938 C 35.914062 50.460938 34.789062 51.75 34.789062 53.339844 C 34.789062 54.933594 35.914062 56.226562 37.308594 56.226562 C 38.699219 56.226562 39.824219 54.933594 39.824219 53.339844 C 39.824219 51.75 38.699219 50.460938 37.308594 50.460938 Z M 49.90625 50.460938 C 48.515625 50.460938 47.386719 51.75 47.386719 53.339844 C 47.386719 54.933594 48.515625 56.226562 49.90625 56.226562 C 51.304688 56.226562 52.429688 54.933594 52.429688 53.339844 C 52.429688 51.75 51.304688 50.460938 49.90625 50.460938 Z M 49.90625 50.460938 "/><path style=" stroke:none;fill-rule:nonzero;fill:url(#linear0);" d="M 39.488281 10.5 C 37.652344 10.480469 36.101562 11.71875 34.773438 13.644531 C 33.859375 14.976562 32.988281 16.730469 32.128906 18.863281 C 31.277344 16.738281 30.40625 14.992188 29.488281 13.660156 C 28.164062 11.746094 26.613281 10.507812 24.78125 10.507812 C 22.945312 10.507812 21.355469 11.707031 19.886719 13.605469 C 18.773438 15.042969 17.675781 16.960938 16.546875 19.363281 C 15.433594 16.988281 14.34375 15.113281 13.242188 13.691406 C 11.769531 11.789062 10.179688 10.589844 8.34375 10.589844 C 6.507812 10.589844 4.957031 11.828125 3.636719 13.746094 C 2.722656 15.0625 1.863281 16.792969 1.015625 18.894531 L 1.015625 25.660156 C 1.863281 27.761719 2.722656 29.492188 3.636719 30.8125 C 4.957031 32.730469 6.507812 33.96875 8.34375 33.96875 C 10.179688 33.96875 11.769531 32.761719 13.242188 30.863281 C 14.34375 29.441406 15.433594 27.554688 16.546875 25.191406 C 17.675781 27.589844 18.773438 29.503906 19.886719 30.949219 C 21.355469 32.839844 22.945312 34.050781 24.78125 34.046875 C 26.613281 34.046875 28.164062 32.804688 29.488281 30.890625 C 30.40625 29.5625 31.277344 27.816406 32.128906 25.695312 C 32.988281 27.828125 33.859375 29.574219 34.773438 30.902344 C 36.101562 32.828125 37.652344 34.070312 39.488281 34.046875 C 41.320312 34.027344 42.890625 32.800781 44.351562 30.886719 C 45.429688 29.464844 46.511719 27.449219 47.609375 25.125 C 48.75 27.554688 49.855469 29.492188 50.984375 30.945312 C 52.453125 32.839844 54.042969 34.050781 55.878906 34.050781 C 57.710938 34.050781 59.261719 32.808594 60.585938 30.890625 C 61.496094 29.574219 62.363281 27.84375 63.203125 25.742188 L 63.203125 18.800781 C 62.363281 16.703125 61.496094 14.972656 60.585938 13.652344 C 59.261719 11.738281 57.710938 10.5 55.878906 10.5 C 54.042969 10.5 52.453125 11.707031 50.984375 13.601562 C 49.855469 15.054688 48.75 16.996094 47.609375 19.425781 C 46.511719 17.101562 45.429688 15.078125 44.351562 13.660156 C 42.890625 11.746094 41.320312 10.519531 39.488281 10.496094 Z M 39.464844 12.847656 C 40.160156 12.855469 41.183594 13.429688 42.4375 15.070312 C 43.621094 16.625 44.9375 19.085938 46.320312 22.277344 C 44.9375 25.464844 43.621094 27.929688 42.4375 29.480469 C 41.183594 31.125 40.160156 31.695312 39.464844 31.699219 C 38.773438 31.707031 37.863281 31.203125 36.753906 29.589844 C 35.6875 28.042969 34.546875 25.574219 33.394531 22.277344 C 34.550781 18.976562 35.6875 16.507812 36.753906 14.957031 C 37.863281 13.34375 38.773438 12.835938 39.464844 12.847656 Z M 55.878906 12.847656 C 56.589844 12.847656 57.5 13.367188 58.605469 14.976562 C 59.679688 16.523438 60.816406 18.988281 61.949219 22.277344 C 60.816406 25.566406 59.679688 28.03125 58.605469 29.578125 C 57.5 31.183594 56.589844 31.707031 55.878906 31.707031 C 55.171875 31.707031 54.148438 31.152344 52.890625 29.523438 C 51.6875 27.980469 50.351562 25.507812 48.953125 22.269531 C 50.351562 19.039062 51.6875 16.570312 52.890625 15.023438 C 54.148438 13.402344 55.171875 12.84375 55.878906 12.84375 Z M 24.785156 12.851562 C 25.492188 12.851562 26.402344 13.367188 27.515625 14.976562 C 28.582031 16.519531 29.714844 19 30.855469 22.273438 C 29.714844 25.546875 28.582031 28.027344 27.515625 29.574219 C 26.402344 31.179688 25.492188 31.699219 24.785156 31.699219 C 24.078125 31.699219 23.054688 31.144531 21.800781 29.519531 C 20.601562 27.976562 19.269531 25.507812 17.867188 22.269531 C 19.265625 19.039062 20.601562 16.570312 21.800781 15.023438 C 23.054688 13.402344 24.078125 12.847656 24.785156 12.847656 Z M 8.351562 12.933594 C 9.058594 12.933594 10.082031 13.484375 11.339844 15.105469 C 12.527344 16.640625 13.851562 19.09375 15.238281 22.28125 C 13.851562 25.464844 12.527344 27.910156 11.339844 29.445312 C 10.082031 31.066406 9.058594 31.621094 8.351562 31.621094 C 7.644531 31.621094 6.730469 31.101562 5.625 29.496094 C 4.566406 27.960938 3.4375 25.523438 2.308594 22.277344 C 3.4375 19.039062 4.558594 16.597656 5.625 15.0625 C 6.730469 13.457031 7.644531 12.941406 8.351562 12.941406 Z M 8.351562 12.933594 "/></g></svg>
