<svg xmlns="http://www.w3.org/2000/svg" xmlns:xlink="http://www.w3.org/1999/xlink" width="64" height="64" viewBox="0 0 64 64" version="1.1"><defs><linearGradient id="linear0" x1="0%" x2="0%" y1="0%" y2="100%"><stop offset="0%" style="stop-color:#ffd000; stop-opacity:1"/><stop offset="50%" style="stop-color:#24dbdb; stop-opacity:1"/><stop offset="100%" style="stop-color:#0073ff; stop-opacity:1"/></linearGradient></defs><g id="surface1"><path style=" stroke:none;fill-rule:nonzero;fill:url(#linear0);" d="M 46.65625 1.429688 C 37.828125 1.429688 30.65625 8.949219 30.65625 18.199219 C 30.660156 21.492188 31.582031 24.707031 33.320312 27.449219 L 33.320312 40.914062 C 30.542969 41.664062 28.199219 43.542969 26.757812 46.140625 L 1.367188 46.140625 C 3.035156 50.289062 5.421875 54.082031 8.40625 57.316406 L 26.757812 57.316406 C 28.664062 60.78125 32.171875 62.902344 35.988281 62.902344 C 41.878906 62.902344 46.65625 57.90625 46.65625 51.726562 C 46.652344 48.878906 45.597656 46.113281 43.71875 44.046875 L 53.667969 33.257812 C 59.164062 30.460938 62.65625 24.625 62.683594 18.199219 C 62.683594 8.949219 55.511719 1.429688 46.683594 1.429688 Z M 46.65625 7.023438 C 52.546875 7.023438 57.324219 12.019531 57.324219 18.199219 C 57.324219 24.371094 52.546875 29.375 46.65625 29.375 C 40.761719 29.375 35.988281 24.371094 35.988281 18.199219 C 35.988281 12.019531 40.761719 7.023438 46.65625 7.023438 Z M 46.65625 12.609375 C 43.71875 12.609375 41.320312 15.109375 41.320312 18.199219 C 41.320312 21.285156 43.707031 23.785156 46.65625 23.785156 C 49.605469 23.785156 51.988281 21.285156 51.988281 18.199219 C 51.988281 15.109375 49.605469 12.609375 46.65625 12.609375 Z M 35.988281 43.347656 C 40.414062 43.347656 43.988281 47.089844 43.988281 51.726562 C 43.988281 56.367188 40.414062 60.109375 35.988281 60.109375 C 33.714844 60.105469 31.558594 59.09375 30.039062 57.316406 L 35.988281 57.316406 C 38.949219 57.316406 41.320312 54.824219 41.320312 51.726562 C 41.320312 48.632812 38.945312 46.140625 35.988281 46.140625 L 30.039062 46.140625 C 31.554688 44.363281 33.71875 43.347656 35.988281 43.347656 Z M 35.988281 43.347656 "/></g></svg>
