<svg xmlns="http://www.w3.org/2000/svg" xmlns:xlink="http://www.w3.org/1999/xlink" width="64" height="64" viewBox="0 0 64 64" version="1.1"><defs><linearGradient id="linear0" x1="0%" x2="100%" y1="0%" y2="100%"><stop offset="0%" style="stop-color:#e5ff00; stop-opacity:1"/><stop offset="50%" style="stop-color:#0073ff; stop-opacity:1"/><stop offset="100%" style="stop-color:#ff0000; stop-opacity:1"/></linearGradient></defs><g id="surface1"><path style=" stroke:none;fill-rule:nonzero;fill:url(#linear0);" d="M 13.542969 2.355469 C 7.03125 2.355469 1.742188 7.800781 1.742188 14.507812 C 1.757812 20.269531 5.707031 25.226562 11.183594 26.394531 L 11.183594 63.101562 L 30.070312 53.378906 L 30.070312 63.101562 L 53.675781 50.945312 L 53.675781 26.394531 C 59.152344 25.242188 63.09375 20.269531 63.121094 14.507812 C 63.121094 7.800781 57.832031 2.355469 51.316406 2.355469 C 47.585938 2.363281 44.070312 4.195312 41.847656 7.289062 C 39.621094 4.25 36.136719 2.453125 32.429688 2.453125 C 28.75 2.464844 25.253906 4.253906 23.035156 7.289062 C 20.8125 4.175781 17.300781 2.355469 13.542969 2.355469 Z M 13.542969 9.644531 C 16.144531 9.644531 18.269531 11.824219 18.269531 14.507812 C 18.269531 17.195312 16.152344 19.367188 13.542969 19.367188 C 10.9375 19.367188 8.824219 17.195312 8.824219 14.507812 C 8.824219 11.824219 10.9375 9.644531 13.542969 9.644531 Z M 51.316406 9.644531 C 53.914062 9.644531 56.035156 11.824219 56.035156 14.507812 C 56.035156 17.195312 53.925781 19.367188 51.316406 19.367188 C 48.710938 19.367188 46.59375 17.195312 46.59375 14.507812 C 46.59375 11.824219 48.710938 9.644531 51.316406 9.644531 Z M 32.429688 9.742188 C 35.027344 9.742188 37.148438 11.914062 37.148438 14.601562 C 37.148438 17.289062 35.039062 19.464844 32.429688 19.464844 C 29.824219 19.464844 27.710938 17.289062 27.710938 14.601562 C 27.710938 11.914062 29.824219 9.742188 32.429688 9.742188 Z M 22.941406 21.796875 C 24.660156 24.195312 27.164062 25.855469 30 26.464844 L 30.027344 43.675781 L 15.886719 50.945312 L 15.886719 26.394531 C 18.699219 25.796875 21.199219 24.167969 22.921875 21.796875 Z M 41.894531 21.796875 C 43.625 24.160156 46.121094 25.785156 48.933594 26.394531 L 48.933594 43.675781 L 34.769531 50.96875 L 34.710938 26.414062 C 37.59375 25.824219 40.140625 24.148438 41.890625 21.726562 Z M 41.894531 21.796875 "/></g></svg>
