<svg xmlns="http://www.w3.org/2000/svg" xmlns:xlink="http://www.w3.org/1999/xlink" width="64" height="64" viewBox="0 0 64 64" version="1.1"><defs><linearGradient id="linear0" x1="0%" x2="100%" y1="0%" y2="100%"><stop offset="0%" style="stop-color:#e5ff00; stop-opacity:1"/><stop offset="50%" style="stop-color:#0073ff; stop-opacity:1"/><stop offset="100%" style="stop-color:#ff0000; stop-opacity:1"/></linearGradient></defs><g id="surface1"><path style=" stroke:none;fill-rule:nonzero;fill:url(#linear0);" d="M 43.824219 1.707031 L 41.761719 5.4375 C 40.578125 4.972656 39.363281 4.59375 38.132812 4.3125 L 42.128906 12.65625 C 48.585938 16.414062 52.585938 23.519531 52.589844 31.230469 C 52.574219 38.59375 48.90625 45.425781 42.894531 49.292969 L 39.039062 57.902344 C 39.953125 57.644531 40.851562 57.328125 41.730469 56.96875 L 43.792969 60.691406 C 46.316406 59.605469 48.691406 58.171875 50.851562 56.425781 L 48.804688 52.722656 C 50.269531 51.484375 51.609375 50.089844 52.800781 48.554688 L 56.347656 50.691406 C 58.019531 48.433594 59.394531 45.960938 60.4375 43.324219 L 56.867188 41.171875 C 57.558594 39.339844 58.0625 37.429688 58.371094 35.484375 L 62.496094 35.484375 C 62.683594 34.074219 62.785156 32.648438 62.789062 31.230469 C 62.789062 29.804688 62.691406 28.382812 62.511719 26.976562 L 58.390625 26.976562 C 58.097656 25.015625 57.601562 23.097656 56.917969 21.25 L 60.492188 19.097656 C 59.453125 16.460938 58.078125 13.984375 56.40625 11.726562 L 52.839844 13.878906 C 51.648438 12.335938 50.300781 10.933594 48.828125 9.691406 L 50.882812 5.96875 C 48.726562 4.226562 46.351562 2.792969 43.824219 1.707031 Z M 20.597656 1.761719 C 18.074219 2.851562 15.699219 4.285156 13.539062 6.03125 L 15.585938 9.734375 C 14.117188 10.96875 12.777344 12.367188 11.589844 13.902344 L 8.039062 11.769531 C 6.367188 14.019531 4.992188 16.496094 3.949219 19.128906 L 7.523438 21.28125 C 6.828125 23.121094 6.324219 25.023438 6.015625 26.976562 L 1.890625 26.976562 C 1.703125 28.382812 1.605469 29.804688 1.601562 31.230469 C 1.605469 32.648438 1.703125 34.074219 1.890625 35.484375 L 6.015625 35.484375 C 6.324219 37.429688 6.828125 39.339844 7.523438 41.171875 L 3.949219 43.324219 C 4.992188 45.960938 6.367188 48.433594 8.039062 50.691406 L 11.589844 48.550781 C 12.777344 50.089844 14.117188 51.484375 15.585938 52.722656 L 13.539062 56.425781 C 15.699219 58.171875 18.074219 59.605469 20.597656 60.691406 L 22.660156 56.96875 C 23.539062 57.328125 24.433594 57.644531 25.347656 57.902344 L 21.492188 49.292969 C 15.484375 45.425781 11.816406 38.59375 11.796875 31.230469 C 11.808594 23.527344 15.800781 16.433594 22.246094 12.679688 L 26.238281 4.347656 C 25.023438 4.640625 23.824219 5.019531 22.660156 5.492188 Z M 28.117188 9.949219 L 17.917969 31.230469 L 28.117188 54.03125 L 28.117188 46.121094 C 28.117188 46.121094 26.683594 45.449219 26.074219 43.996094 C 25.179688 41.851562 26.992188 41.867188 26.074219 37.613281 C 28.117188 39.0625 28.117188 41.867188 28.117188 41.867188 C 28.117188 41.867188 28.859375 40.808594 28.859375 39.738281 C 32.195312 41.867188 32.191406 43.164062 32.191406 46.121094 C 32.191406 47.359375 29.394531 50.382812 29.394531 50.382812 L 30.15625 54.636719 L 28.945312 55.894531 L 32.191406 63.144531 L 35.484375 55.789062 C 34.597656 57.046875 33.167969 58.890625 32.191406 58.890625 C 30.882812 58.890625 30.15625 56.765625 30.15625 56.765625 L 32.191406 54.636719 L 31.367188 50.382812 C 31.367188 50.382812 34.234375 48.25 34.234375 46.121094 C 34.234375 43.164062 32.191406 41.867188 35.53125 39.738281 C 35.53125 40.808594 36.273438 41.867188 36.273438 41.867188 C 36.273438 41.867188 36.273438 39.0625 38.3125 37.613281 C 37.394531 41.867188 39.25 41.867188 38.3125 43.996094 C 37.914062 44.90625 36.273438 46.121094 36.273438 46.121094 L 36.273438 54.03125 L 46.472656 31.230469 L 36.273438 9.949219 L 36.273438 12.078125 C 36.273438 12.078125 35.023438 12.078125 34.234375 14.207031 C 35.292969 13.277344 36.273438 13.179688 36.273438 13.179688 L 38.3125 24.84375 C 38.3125 24.84375 37.105469 25.621094 36.273438 28.125 C 37.058594 26.976562 38.3125 26.976562 38.3125 26.976562 C 38.3125 26.976562 40.355469 28.179688 40.355469 31.230469 C 40.355469 33.355469 36.273438 33.355469 36.273438 33.355469 C 36.273438 33.355469 36.273438 31.847656 38.3125 30.5625 C 36.273438 31.226562 34.234375 33.355469 34.234375 33.355469 C 34.234375 33.355469 31.3125 30.835938 31.367188 29.101562 C 31.449219 26.375 36.273438 24.84375 36.273438 22.714844 C 36.273438 20.589844 34.234375 20.589844 32.867188 19.742188 C 34.234375 18.460938 34.234375 17.464844 34.234375 17.464844 C 34.234375 17.464844 32.414062 19.121094 31.417969 18.460938 C 30.421875 17.800781 30.15625 16.332031 30.953125 14.207031 C 29.410156 16.332031 30.15625 18.460938 30.15625 18.460938 C 30.15625 18.460938 29.402344 19.238281 29.480469 20.589844 C 28.757812 21.6875 28.117188 22.101562 29.121094 23.527344 C 29.121094 23.527344 30.15625 21.21875 32.191406 21.152344 C 33.035156 21.121094 34.234375 21.890625 34.234375 22.714844 C 34.234375 24.84375 28.996094 24.84375 28.996094 29.101562 C 28.996094 31.230469 30.15625 33.355469 30.15625 33.355469 C 30.15625 33.355469 28.117188 31.226562 26.074219 30.667969 C 28.117188 31.765625 28.117188 33.355469 28.117188 33.355469 C 28.117188 33.355469 24.035156 33.355469 24.035156 31.230469 C 24.035156 28.074219 26.074219 26.976562 26.074219 26.976562 C 26.074219 26.976562 27.136719 26.976562 28.117188 27.859375 C 27.246094 25.707031 26.074219 24.84375 26.074219 24.84375 L 28.117188 13.234375 C 28.117188 13.234375 29.105469 13.003906 30.15625 14.207031 C 29.40625 12.078125 28.117188 12.078125 28.117188 12.078125 Z M 28.117188 9.949219 "/></g></svg>
