<svg xmlns="http://www.w3.org/2000/svg" xmlns:xlink="http://www.w3.org/1999/xlink" width="64" height="64" viewBox="0 0 64 64" version="1.1"><defs><linearGradient id="linear0" x1="0%" x2="0%" y1="0%" y2="100%"><stop offset="0%" style="stop-color:#ffd000; stop-opacity:1"/><stop offset="50%" style="stop-color:#24dbdb; stop-opacity:1"/><stop offset="100%" style="stop-color:#0073ff; stop-opacity:1"/></linearGradient></defs><g id="surface1"><path style=" stroke:none;fill-rule:nonzero;fill:url(#linear0);" d="M 48.4375 9.582031 L 48.457031 15.058594 C 49.902344 15.054688 51.929688 15.738281 53.917969 19.910156 C 55.910156 24.074219 57.640625 31.855469 57.59375 45.195312 C 57.59375 45.199219 57.59375 45.207031 57.59375 45.210938 C 57.59375 46.125 57.394531 46.839844 57.128906 47.222656 C 56.863281 47.601562 56.5 47.929688 55.34375 47.941406 C 51.847656 47.757812 49.972656 46.609375 46.867188 45.238281 C 43.738281 43.859375 39.554688 42.472656 32.472656 42.472656 C 11.75 42.472656 6.65625 45.210938 2.773438 45.210938 L 2.773438 50.691406 C 8.09375 50.691406 12.070312 47.949219 32.472656 47.949219 C 39.097656 47.949219 42.410156 49.113281 45.289062 50.378906 C 48.167969 51.644531 50.886719 53.230469 55.226562 53.421875 C 55.257812 53.425781 55.289062 53.425781 55.316406 53.425781 C 57.539062 53.425781 59.476562 52.398438 60.640625 50.726562 C 61.800781 49.058594 62.167969 47.054688 62.171875 45.21875 L 62.171875 45.207031 C 62.234375 31.320312 60.511719 22.664062 57.898438 17.265625 C 55.273438 11.785156 51.523438 9.648438 48.464844 9.675781 Z M 16.453125 15.058594 L 7.3125 26.019531 L 9.597656 28.757812 L 16.453125 20.539062 L 23.308594 28.757812 L 25.59375 26.019531 Z M 41.585938 15.058594 L 32.445312 26.019531 L 34.730469 28.757812 L 41.585938 20.539062 L 48.4375 28.757812 L 50.722656 26.019531 Z M 11.882812 31.496094 L 11.882812 36.976562 L 18.738281 36.976562 L 21.023438 34.238281 L 18.738281 31.496094 Z M 37.015625 31.496094 L 37.015625 36.976562 L 43.871094 36.976562 L 46.152344 34.238281 L 43.871094 31.496094 Z M 37.015625 31.496094 "/></g></svg>
