<svg xmlns="http://www.w3.org/2000/svg" xmlns:xlink="http://www.w3.org/1999/xlink" width="64" height="64" viewBox="0 0 64 64" version="1.1"><defs><linearGradient id="linear0" x1="0%" x2="100%" y1="0%" y2="100%"><stop offset="0%" style="stop-color:#e5ff00; stop-opacity:1"/><stop offset="50%" style="stop-color:#0073ff; stop-opacity:1"/><stop offset="100%" style="stop-color:#ff0000; stop-opacity:1"/></linearGradient></defs><g id="surface1"><path style=" stroke:none;fill-rule:nonzero;fill:url(#linear0);" d="M 40.195312 1.042969 L 39.640625 3.085938 C 37.121094 2.410156 34.523438 2.074219 31.917969 2.066406 C 29.320312 2.085938 26.71875 2.4375 24.203125 3.117188 L 23.652344 1.078125 C 12.628906 4.023438 4.03125 12.558594 1.050781 23.53125 L 3.105469 24.074219 C 2.417969 26.578125 2.0625 29.160156 2.046875 31.746094 C 2.066406 34.328125 2.417969 36.914062 3.105469 39.410156 L 1.050781 39.957031 C 4.011719 50.910156 12.605469 59.445312 23.652344 62.414062 L 24.203125 60.367188 C 26.71875 61.050781 29.320312 61.402344 31.917969 61.421875 C 34.523438 61.402344 37.121094 61.050781 39.640625 60.367188 L 40.191406 62.414062 C 51.214844 59.464844 59.804688 50.929688 62.792969 39.957031 L 60.734375 39.410156 C 61.421875 36.914062 61.777344 34.328125 61.789062 31.746094 C 61.789062 29.160156 61.445312 26.578125 60.769531 24.074219 L 62.828125 23.527344 C 59.859375 12.574219 51.25 4.015625 40.222656 1.074219 Z M 31.917969 6.292969 C 46.058594 6.292969 57.507812 17.671875 57.507812 31.714844 C 57.507812 45.757812 46.058594 57.132812 31.917969 57.132812 C 17.785156 57.132812 6.332031 45.757812 6.332031 31.714844 C 6.332031 17.671875 17.785156 6.292969 31.917969 6.292969 Z M 33.003906 12.628906 C 24.476562 12.628906 19.144531 16.863281 19.144531 23.222656 C 19.144531 35.929688 36.203125 33.8125 36.203125 41.011719 C 36.203125 42.285156 35.328125 44.421875 30.875 44.402344 C 26.414062 44.382812 22.34375 40.167969 22.34375 40.167969 L 17.011719 46.519531 C 19.144531 48.636719 24.476562 52.875 31.9375 52.875 C 40.46875 52.875 46.867188 46.519531 46.867188 39.109375 C 46.867188 26.398438 29.808594 27.457031 29.808594 22.160156 C 29.808594 21.101562 30.875 18.980469 34.070312 18.980469 C 36.203125 18.980469 38.332031 20.042969 40.46875 21.628906 L 44.730469 16.863281 C 42.597656 14.746094 38.332031 12.628906 33.003906 12.628906 Z M 33.003906 12.628906 "/></g></svg>
