<svg xmlns="http://www.w3.org/2000/svg" xmlns:xlink="http://www.w3.org/1999/xlink" width="64" height="64" viewBox="0 0 64 64" version="1.1"><defs><linearGradient id="linear0" x1="0%" x2="0%" y1="0%" y2="100%"><stop offset="0%" style="stop-color:#ff0000; stop-opacity:1"/><stop offset="50%" style="stop-color:#ffd000; stop-opacity:1"/><stop offset="100%" style="stop-color:#0073ff; stop-opacity:1"/></linearGradient></defs><g id="surface1"><path style=" stroke:none;fill-rule:nonzero;fill:url(#linear0);" d="M 10.542969 38.296875 C 5.855469 40.238281 6.714844 41.433594 6.714844 42.175781 C 6.714844 42.925781 10.417969 43.074219 10.417969 43.074219 C 10.417969 43.074219 7.089844 45.457031 5.613281 46.945312 C 4.128906 48.4375 1.539062 51.125 4.007812 51.425781 C 6.46875 51.722656 9.183594 51.425781 9.183594 51.425781 C 9.183594 51.425781 5.980469 54.257812 4.25 55.746094 C 2.523438 57.242188 1.164062 59.773438 1.539062 60.664062 C 1.90625 61.566406 4.621094 62.753906 7.707031 62.160156 C 10.789062 61.566406 18.804688 56.492188 22.382812 55.449219 C 25.960938 54.40625 42.488281 48.734375 47.175781 44.710938 C 51.871094 40.683594 55.199219 35.023438 55.199219 25.925781 C 55.199219 16.832031 56.3125 10.71875 58.035156 8.78125 C 59.761719 6.839844 61.859375 5.046875 62.601562 3.410156 C 63.339844 1.765625 62.476562 1.171875 60.871094 1.765625 C 59.265625 2.367188 54.828125 3.855469 51.742188 3.707031 C 48.660156 3.558594 44.34375 2.960938 41.132812 5.796875 C 37.929688 8.632812 36.078125 10.269531 32.625 16.980469 C 29.171875 23.6875 26.582031 27.859375 24.484375 30.097656 C 22.382812 32.332031 12.117188 37.648438 10.542969 38.296875 Z M 10.542969 38.296875 "/></g></svg>
