<svg xmlns="http://www.w3.org/2000/svg" xmlns:xlink="http://www.w3.org/1999/xlink" width="64" height="64" viewBox="0 0 64 64" version="1.1"><defs><linearGradient id="linear0" x1="0%" x2="100%" y1="0%" y2="100%"><stop offset="0%" style="stop-color:#ae00ff; stop-opacity:1"/><stop offset="100%" style="stop-color:#0084ff; stop-opacity:1"/></linearGradient></defs><g id="surface1"><path style=" stroke:none;fill-rule:nonzero;fill:url(#linear0);" d="M 29.8125 22.632812 L 29.808594 9.066406 C 29.808594 9.066406 17.261719 9.226562 7.726562 9.226562 C 4.648438 9.226562 1.925781 16.683594 1.855469 22.308594 C 12.082031 22.308594 29.8125 22.632812 29.8125 22.632812 Z M 1.871094 43.367188 L 1.855469 57.035156 C 1.855469 57.035156 15.378906 56.875 24.914062 56.875 C 27.992188 56.875 30.714844 49.417969 30.789062 43.789062 C 20.5625 43.789062 1.871094 43.367188 1.871094 43.367188 Z M 1.804688 26.203125 C 11.34375 26.203125 16.417969 26.480469 24.890625 26.480469 C 28.679688 26.480469 30.753906 34.277344 30.753906 39.699219 C 23.796875 39.699219 18.871094 39.296875 8.492188 39.296875 C 3.675781 39.296875 1.804688 29.800781 1.804688 26.203125 Z M 35.113281 9.164062 L 63.335938 9.164062 L 63.335938 22.453125 L 35.101562 22.453125 Z M 35.0625 43.402344 L 63.285156 43.402344 L 63.285156 56.691406 L 35.058594 56.691406 Z M 34.925781 26.246094 L 56.234375 26.246094 L 56.234375 39.535156 L 34.917969 39.535156 Z M 34.925781 26.246094 "/></g></svg>
