<svg xmlns="http://www.w3.org/2000/svg" xmlns:xlink="http://www.w3.org/1999/xlink" width="64" height="64" viewBox="0 0 64 64" version="1.1"><defs><linearGradient id="linear0" x1="0%" x2="0%" y1="0%" y2="100%"><stop offset="0%" style="stop-color:#00b54e; stop-opacity:1"/><stop offset="50%" style="stop-color:#0073ff; stop-opacity:1"/><stop offset="100%" style="stop-color:#ffd000; stop-opacity:1"/></linearGradient></defs><g id="surface1"><path style=" stroke:none;fill-rule:nonzero;fill:url(#linear0);" d="M 10.277344 14.175781 L 9.1875 15.304688 C 8.414062 16.089844 7.539062 16.144531 6.421875 15.75 C 5.875 15.5625 5.257812 14.992188 4.753906 15.472656 C 4.28125 15.921875 4.960938 16.292969 5.457031 16.484375 C 7.445312 17.277344 8.554688 18.417969 8.101562 20.808594 C 7.625 23.1875 5.964844 22.910156 4.523438 23.164062 C 3.441406 23.351562 2.421875 23.339844 1.878906 23.832031 C 0.804688 24.816406 1.804688 25.921875 2.566406 25.847656 C 6.070312 25.558594 9 28.167969 7.40625 31.570312 L 5.679688 35.289062 L 7.527344 35.398438 L 1.183594 49.535156 L 16.941406 51.558594 L 21.777344 34.714844 C 22.105469 33.5625 23.660156 32.859375 24.878906 32.800781 L 32.363281 32.457031 C 33.910156 32.394531 35.652344 31.035156 35.914062 29.539062 L 36.371094 26.964844 C 36.566406 25.902344 36.949219 25.847656 39.324219 25.847656 L 50.054688 25.847656 L 51.242188 23.515625 L 61.898438 23.515625 C 62.433594 23.507812 62.488281 23.175781 62.699219 22.703125 L 63.15625 21.691406 L 63.15625 15.410156 L 62.113281 14.167969 L 36.132812 14.167969 L 35.597656 16.5 L 28.449219 16.5 L 27.824219 14.167969 L 10.113281 14.167969 M 27.964844 25.449219 L 31.613281 25.449219 C 35.757812 25.449219 35.828125 31.945312 31.613281 31.945312 L 27.964844 31.945312 C 24.125 31.945312 23.554688 25.449219 27.964844 25.449219 M 28.925781 25.652344 C 24.730469 25.632812 25.441406 31.84375 28.925781 31.773438 C 27.351562 29.695312 27.277344 27.640625 28.925781 25.652344 "/></g></svg>
