<svg xmlns="http://www.w3.org/2000/svg" xmlns:xlink="http://www.w3.org/1999/xlink" width="64" height="64" viewBox="0 0 64 64" version="1.1"><defs><linearGradient id="linear0" x1="0%" x2="0%" y1="0%" y2="100%"><stop offset="0%" style="stop-color:#00b54e; stop-opacity:1"/><stop offset="50%" style="stop-color:#ffd000; stop-opacity:1"/><stop offset="100%" style="stop-color:#ff00bb; stop-opacity:1"/></linearGradient></defs><g id="surface1"><path style=" stroke:none;fill-rule:nonzero;fill:url(#linear0);" d="M 41.644531 40.441406 C 29.832031 40.441406 27.46875 63.15625 13.296875 63.15625 C 6.207031 63.15625 1.484375 58.109375 1.484375 48.015625 C 1.484375 27.820312 20.902344 27.96875 36.917969 32.871094 C 36.917969 22.773438 15.65625 20.246094 15.65625 10.148438 C 15.65625 5.105469 20.183594 2.578125 25.105469 2.578125 C 41.644531 2.578125 44.007812 25.292969 44.007812 32.871094 C 47.351562 35.390625 65.265625 48.015625 58.179688 55.585938 C 54.78125 59.414062 45.140625 40.441406 41.644531 40.441406 Z M 41.644531 40.441406 "/><path style=" stroke:none;fill-rule:nonzero;fill:url(#linear0);" d="M 47.5 28.371094 C 46.515625 -5.605469 83.269531 22.714844 47.5 28.371094 "/></g></svg>
