<svg xmlns="http://www.w3.org/2000/svg" xmlns:xlink="http://www.w3.org/1999/xlink" width="64" height="64" viewBox="0 0 64 64" version="1.1"><defs><linearGradient id="linear0" x1="0%" x2="100%" y1="0%" y2="100%"><stop offset="0%" style="stop-color:#ff0000; stop-opacity:1"/><stop offset="50%" style="stop-color:#ffd000; stop-opacity:1"/><stop offset="100%" style="stop-color:#ff00bb; stop-opacity:1"/></linearGradient></defs><g id="surface1"><path style=" stroke:none;fill-rule:nonzero;fill:url(#linear0);" d="M 21.601562 4.589844 C 16.648438 4.589844 12.636719 10.453125 12.636719 17.6875 C 12.640625 21.449219 13.75 25.027344 15.683594 27.511719 L 3.671875 27.511719 L 3.671875 30.785156 L 14.878906 30.785156 L 10.394531 40.605469 L 10.394531 50.429688 L 14.878906 50.429688 L 11.761719 54.980469 C 12.484375 56.128906 13.210938 57.253906 13.9375 58.351562 L 19.363281 50.429688 L 23.84375 50.429688 L 23.84375 60.253906 L 28.328125 60.253906 L 28.328125 50.429688 L 30.570312 50.429688 L 30.570312 37.332031 L 29.449219 32.421875 L 35.050781 24.234375 L 30.570312 17.6875 C 30.570312 10.453125 26.554688 4.589844 21.605469 4.589844 Z M 35.050781 24.234375 L 35.050781 47.15625 C 35.050781 48.902344 35.691406 50.625 36.625 51.902344 L 32.816406 60.253906 L 37.296875 60.253906 L 40.277344 53.703125 L 47.742188 53.703125 L 48.761719 55.949219 C 50.042969 53.949219 51.292969 51.855469 52.527344 49.730469 C 52.527344 49.726562 52.53125 49.726562 52.53125 49.722656 C 52.808594 48.914062 52.96875 48.039062 52.96875 47.160156 L 52.96875 43.882812 L 58.054688 38.90625 C 58.386719 38.167969 58.71875 37.421875 59.027344 36.675781 L 52.976562 30.78125 L 52.976562 25.871094 C 52.976562 19.519531 49.480469 14.410156 45.132812 14.410156 L 45.132812 10.675781 C 45.824219 10.09375 46.25 9.015625 46.253906 7.851562 C 46.253906 6.042969 45.25 4.578125 44.011719 4.578125 C 42.773438 4.578125 41.769531 6.042969 41.769531 7.851562 C 41.773438 9.015625 42.199219 10.09375 42.890625 10.675781 L 42.890625 14.410156 C 40.6875 14.410156 38.699219 15.726562 37.289062 17.847656 L 37.28125 17.898438 L 37.28125 11.121094 L 35.046875 11.121094 Z M 21.601562 7.863281 C 24.195312 7.863281 26.558594 10.042969 27.675781 13.464844 L 26.089844 11.148438 L 25.40625 12.148438 C 24.613281 11.511719 23.695312 11.148438 22.71875 11.148438 C 19.625 11.148438 17.113281 14.816406 17.113281 19.335938 L 17.113281 24.964844 C 15.699219 23.113281 14.882812 20.472656 14.875 17.695312 C 14.875 12.273438 17.882812 7.875 21.597656 7.875 Z M 29.761719 23.058594 L 30.554688 24.21875 L 28.3125 27.492188 L 28.3125 26.324219 C 28.90625 25.347656 29.390625 24.246094 29.761719 23.058594 Z M 53.070312 35.695312 L 55.308594 37.332031 L 53.070312 38.96875 Z M 53.070312 35.695312 "/></g></svg>
