<svg xmlns="http://www.w3.org/2000/svg" xmlns:xlink="http://www.w3.org/1999/xlink" width="64" height="64" viewBox="0 0 64 64" version="1.1"><defs><linearGradient id="linear0" x1="0%" x2="100%" y1="0%" y2="100%"><stop offset="0%" style="stop-color:#ff0000; stop-opacity:1"/><stop offset="100%" style="stop-color:#6a00ff; stop-opacity:1"/></linearGradient></defs><g id="surface1"><path style=" stroke:none;fill-rule:nonzero;fill:url(#linear0);" d="M 29.3125 3.023438 C 29.050781 3.027344 28.789062 3.035156 28.527344 3.046875 C 27.675781 4.421875 27.199219 6.296875 27.199219 8.253906 C 27.199219 12.296875 29.195312 15.574219 31.65625 15.574219 C 34.117188 15.574219 36.113281 12.296875 36.113281 8.253906 C 36.113281 6.519531 35.738281 4.84375 35.054688 3.523438 C 33.160156 3.199219 31.238281 3.035156 29.3125 3.023438 Z M 15.144531 6.023438 C 13.128906 6.90625 11.214844 7.976562 9.425781 9.21875 C 9.386719 9.59375 9.367188 9.96875 9.367188 10.34375 C 9.367188 19.007812 19.347656 26.03125 31.65625 26.03125 C 42.558594 26.03125 51.855469 20.476562 53.636719 12.90625 C 52.335938 11.617188 50.921875 10.4375 49.410156 9.375 C 49.457031 9.699219 49.480469 10.019531 49.484375 10.34375 C 49.484375 16.699219 41.503906 21.847656 31.65625 21.847656 C 21.808594 21.847656 13.824219 16.699219 13.824219 10.34375 C 13.832031 8.863281 14.277344 7.394531 15.144531 6.023438 Z M 20.511719 28.121094 C 19.28125 28.121094 18.285156 30.929688 18.285156 34.398438 C 18.285156 37.863281 19.28125 40.671875 20.511719 40.671875 C 21.742188 40.671875 22.742188 37.863281 22.742188 34.398438 C 22.742188 30.929688 21.742188 28.121094 20.511719 28.121094 Z M 42.796875 28.121094 C 41.566406 28.121094 40.570312 30.929688 40.570312 34.398438 C 40.570312 37.863281 41.566406 40.671875 42.796875 40.671875 C 44.03125 40.671875 45.027344 37.863281 45.027344 34.398438 C 45.027344 30.929688 44.03125 28.121094 42.796875 28.121094 Z M 11.597656 42.765625 C 7.90625 42.765625 4.910156 43.699219 4.910156 44.855469 C 4.910156 46.011719 7.90625 46.945312 11.597656 46.945312 C 15.289062 46.945312 18.285156 46.011719 18.285156 44.855469 C 18.285156 43.699219 15.289062 42.765625 11.597656 42.765625 Z M 51.714844 42.765625 C 48.019531 42.765625 45.027344 43.699219 45.027344 44.855469 C 45.027344 46.011719 48.019531 46.945312 51.714844 46.945312 C 55.40625 46.945312 58.398438 46.011719 58.398438 44.855469 C 58.398438 43.699219 55.40625 42.765625 51.714844 42.765625 Z M 20.511719 49.039062 C 18.746094 49.039062 16.820312 50.597656 16.242188 52.265625 L 16.242188 52.269531 C 16.132812 52.585938 16.054688 52.90625 16.054688 53.222656 C 16.054688 53.457031 16.089844 53.679688 16.144531 53.902344 C 16.164062 53.972656 16.191406 54.039062 16.214844 54.109375 C 16.253906 54.21875 16.300781 54.324219 16.351562 54.429688 C 16.492188 54.738281 16.679688 55.035156 16.921875 55.3125 C 19.359375 58.101562 26.472656 59.496094 31.65625 59.496094 C 37.65625 59.496094 45.4375 57.808594 46.96875 54.4375 C 47.015625 54.332031 47.0625 54.226562 47.097656 54.117188 C 47.125 54.042969 47.152344 53.96875 47.167969 53.890625 C 47.222656 53.675781 47.257812 53.453125 47.257812 53.222656 C 47.257812 51.25 45.027344 49.039062 42.796875 49.039062 C 38.339844 49.039062 36.355469 51.128906 31.65625 51.128906 C 26.957031 51.128906 24.96875 49.039062 20.511719 49.039062 Z M 20.511719 49.039062 "/></g></svg>
