<svg xmlns="http://www.w3.org/2000/svg" xmlns:xlink="http://www.w3.org/1999/xlink" width="64" height="64" viewBox="0 0 64 64" version="1.1"><defs><linearGradient id="linear0" x1="0%" x2="100%" y1="0%" y2="100%"><stop offset="0%" style="stop-color:#00b54e; stop-opacity:1"/><stop offset="100%" style="stop-color:#0073ff; stop-opacity:1"/></linearGradient></defs><g id="surface1"><path style=" stroke:none;fill-rule:nonzero;fill:url(#linear0);" d="M 29.3125 1.796875 L 23.675781 22.050781 L 29.3125 16.988281 L 34.953125 16.988281 L 40.59375 22.050781 L 34.953125 1.796875 L 34.953125 11.921875 L 29.3125 11.921875 Z M 20.859375 14.453125 L 15.21875 19.515625 C 20.859375 19.515625 20.859375 22.050781 20.859375 22.050781 Z M 43.40625 14.453125 L 43.40625 22.050781 C 43.40625 22.050781 43.40625 19.515625 49.046875 19.515625 Z M 15.21875 22.050781 C 9.578125 22.050781 9.578125 27.113281 9.578125 27.113281 L 9.578125 42.304688 L 12.398438 34.707031 L 12.398438 27.113281 C 12.398438 27.113281 12.398438 24.578125 15.21875 24.578125 C 18.039062 24.578125 20.859375 27.113281 20.859375 27.113281 C 20.859375 27.113281 20.859375 22.050781 15.21875 22.050781 Z M 49.046875 22.050781 C 43.40625 22.050781 43.40625 27.113281 43.40625 27.113281 C 43.40625 27.113281 46.226562 24.578125 49.046875 24.578125 C 51.867188 24.578125 51.867188 27.113281 51.867188 27.113281 L 51.867188 34.707031 L 54.6875 42.304688 L 54.6875 27.113281 C 54.6875 27.113281 54.6875 22.050781 49.046875 22.050781 Z M 26.492188 24.578125 L 23.675781 34.707031 L 29.3125 32.175781 L 34.953125 32.175781 L 40.59375 34.707031 L 37.773438 24.578125 L 37.773438 29.644531 L 26.492188 29.644531 Z M 15.21875 34.707031 L 15.21875 42.304688 L 9.578125 44.832031 L 9.578125 47.367188 L 18.039062 44.832031 L 18.039062 34.707031 Z M 46.226562 34.707031 L 46.226562 44.832031 L 54.6875 47.367188 L 54.6875 44.832031 L 49.046875 42.304688 L 49.046875 34.707031 Z M 6.761719 39.769531 L 3.941406 42.304688 L 3.941406 44.832031 L 1.121094 47.367188 L 1.121094 52.429688 L 6.761719 49.898438 Z M 57.507812 39.769531 L 57.507812 49.898438 L 63.140625 52.429688 L 63.140625 47.367188 L 60.324219 44.832031 L 60.324219 42.304688 Z M 26.492188 42.304688 L 20.859375 49.898438 L 26.492188 60.023438 L 23.675781 49.898438 L 26.492188 44.832031 L 37.773438 44.832031 L 40.59375 49.898438 L 37.773438 60.023438 L 43.40625 49.898438 L 37.773438 42.304688 Z M 32.132812 47.367188 C 29.019531 47.367188 26.492188 49.066406 26.492188 51.164062 C 26.492188 53.261719 29.019531 54.960938 32.132812 54.960938 C 35.246094 54.960938 37.773438 53.261719 37.773438 51.164062 C 37.773438 49.066406 35.246094 47.367188 32.132812 47.367188 Z M 9.578125 49.898438 L 1.121094 54.960938 L 3.941406 60.023438 C 3.941406 60.023438 6.761719 52.429688 12.398438 52.429688 C 18.039062 52.429688 23.675781 60.023438 23.675781 60.023438 L 18.039062 49.898438 Z M 46.226562 49.898438 L 40.59375 60.023438 C 40.59375 60.023438 46.226562 52.429688 51.867188 52.429688 C 57.507812 52.429688 60.324219 60.023438 60.324219 60.023438 L 63.140625 54.960938 L 54.6875 49.898438 Z M 13.808594 57.492188 C 11.472656 57.492188 9.578125 58.628906 9.578125 60.023438 C 9.578125 61.421875 11.472656 62.558594 13.808594 62.558594 C 16.140625 62.558594 18.039062 61.421875 18.039062 60.023438 C 18.039062 58.628906 16.140625 57.492188 13.808594 57.492188 Z M 50.457031 57.492188 C 48.125 57.492188 46.226562 58.628906 46.226562 60.023438 C 46.226562 61.421875 48.125 62.558594 50.457031 62.558594 C 52.792969 62.558594 54.6875 61.421875 54.6875 60.023438 C 54.6875 58.628906 52.792969 57.492188 50.457031 57.492188 Z M 50.457031 57.492188 "/></g></svg>
