<svg xmlns="http://www.w3.org/2000/svg" xmlns:xlink="http://www.w3.org/1999/xlink" width="64" height="64" viewBox="0 0 64 64" version="1.1"><defs><linearGradient id="linear0" x1="0%" x2="100%" y1="0%" y2="100%"><stop offset="0%" style="stop-color:#6a00ff; stop-opacity:1"/><stop offset="50%" style="stop-color:#e0dd02; stop-opacity:1"/><stop offset="100%" style="stop-color:#00b54e; stop-opacity:1"/></linearGradient></defs><g id="surface1"><path style=" stroke:none;fill-rule:nonzero;fill:url(#linear0);" d="M 19.597656 1.351562 L 19.597656 14.179688 L 28.160156 9.050781 L 23.882812 1.351562 Z M 41.011719 1.351562 L 36.730469 9.050781 L 45.292969 14.179688 L 45.292969 1.351562 Z M 41.011719 1.351562 "/><path style=" stroke:none;fill-rule:nonzero;fill:url(#linear0);" d="M 33.15625 37.695312 C 26.0625 37.695312 20.308594 43.441406 20.308594 50.527344 C 20.308594 57.605469 26.0625 63.355469 33.15625 63.355469 C 40.25 63.355469 46.003906 57.605469 46.003906 50.527344 C 46.003906 43.441406 40.25 37.695312 33.15625 37.695312 Z M 33.15625 45.394531 C 35.519531 45.394531 37.433594 47.113281 37.433594 49.242188 C 37.433594 51.367188 35.519531 53.089844 33.15625 53.089844 C 30.789062 53.089844 28.871094 51.367188 28.871094 49.242188 C 28.871094 47.113281 30.789062 45.394531 33.15625 45.394531 Z M 33.15625 45.394531 "/><path style=" stroke:none;fill-rule:nonzero;fill:url(#linear0);" d="M 27.917969 28.703125 L 36.480469 28.703125 L 40.765625 23.570312 L 38.621094 18.433594 L 34.34375 15.875 L 34.34375 18.433594 L 36.480469 18.433594 L 32.199219 23.570312 L 27.917969 18.433594 L 30.058594 18.433594 L 30.058594 15.875 L 25.773438 18.433594 L 23.632812 23.570312 Z M 27.917969 28.703125 "/><path style=" stroke:none;fill-rule:nonzero;fill:url(#linear0);" d="M 19.597656 1.351562 L 17.457031 9.050781 L 19.597656 14.179688 L 23.882812 14.179688 Z M 45.292969 1.351562 L 41.011719 14.179688 L 45.292969 14.179688 L 47.433594 9.050781 Z M 45.292969 1.351562 "/><path style=" stroke:none;fill-rule:nonzero;fill:url(#linear0);" d="M 13.171875 29.574219 L 19.597656 21.878906 L 32.445312 16.746094 L 45.292969 21.878906 L 51.71875 29.574219 L 53.859375 27.003906 L 49.578125 21.878906 L 45.292969 11.609375 L 32.445312 6.484375 L 19.597656 11.609375 L 15.3125 21.878906 L 11.035156 27.003906 Z M 13.171875 29.574219 "/><path style=" stroke:none;fill-rule:nonzero;fill:url(#linear0);" d="M 21.738281 16.746094 L 19.597656 21.878906 L 32.445312 16.746094 Z M 32.445312 16.746094 L 45.292969 21.878906 L 43.15625 16.746094 Z M 32.445312 16.746094 "/></g></svg>
