<svg xmlns="http://www.w3.org/2000/svg" xmlns:xlink="http://www.w3.org/1999/xlink" width="64" height="64" viewBox="0 0 64 64" version="1.1"><defs><linearGradient id="linear0" x1="100%" x2="0%" y1="100%" y2="0%"><stop offset="0%" style="stop-color:#00b54e; stop-opacity:1"/><stop offset="100%" style="stop-color:#ff0000; stop-opacity:1"/></linearGradient></defs><g id="surface1"><path style=" stroke:none;fill-rule:nonzero;fill:url(#linear0);" d="M 40.679688 1.421875 C 37.1875 1.429688 33.820312 2.667969 31.230469 4.910156 C 28.707031 2.941406 25.554688 1.867188 22.300781 1.863281 C 14.488281 1.863281 8.152344 7.925781 8.152344 15.402344 C 8.15625 18.148438 9.035156 20.832031 10.667969 23.089844 C 5.21875 25.105469 1.628906 30.125 1.628906 35.71875 C 1.636719 43.195312 7.96875 49.25 15.78125 49.25 C 16.910156 49.25 18.039062 49.121094 19.140625 48.863281 C 19.105469 49.230469 19.085938 49.59375 19.085938 49.964844 C 19.085938 57.441406 25.417969 63.503906 33.230469 63.503906 C 41.050781 63.507812 47.386719 57.445312 47.390625 49.964844 C 47.382812 49.5 47.347656 49.035156 47.292969 48.574219 C 47.75 48.621094 48.210938 48.640625 48.675781 48.640625 C 56.488281 48.644531 62.832031 42.585938 62.832031 35.101562 C 62.832031 29.101562 58.695312 23.8125 52.679688 22.117188 C 54.078125 19.972656 54.824219 17.496094 54.832031 14.96875 C 54.835938 7.488281 48.496094 1.421875 40.679688 1.421875 Z M 32.824219 16.429688 C 33.453125 16.421875 36.652344 20.4375 37.226562 20.667969 C 37.804688 20.890625 43.039062 20.121094 43.484375 20.539062 C 43.929688 20.960938 43.222656 25.972656 43.464844 26.523438 C 43.714844 27.074219 47.972656 30.058594 47.976562 30.660156 C 47.980469 31.257812 43.777344 34.324219 43.542969 34.878906 C 43.304688 35.433594 44.117188 40.4375 43.679688 40.863281 C 43.238281 41.289062 38 40.605469 37.425781 40.863281 C 36.847656 41.09375 33.714844 45.175781 33.09375 45.183594 C 32.46875 45.1875 29.273438 41.164062 28.691406 40.9375 C 28.113281 40.714844 22.882812 41.484375 22.4375 41.0625 C 21.992188 40.644531 22.695312 35.640625 22.453125 35.089844 C 22.207031 34.535156 17.945312 31.542969 17.941406 30.941406 C 17.9375 30.34375 22.144531 27.28125 22.378906 26.726562 C 22.613281 26.171875 21.808594 21.175781 22.25 20.746094 C 22.6875 20.320312 27.917969 20.996094 28.492188 20.761719 C 29.070312 20.527344 32.199219 16.453125 32.824219 16.449219 Z M 33.511719 24.636719 C 30.058594 24.636719 27.261719 27.3125 27.261719 30.617188 C 27.269531 33.917969 30.0625 36.59375 33.511719 36.59375 C 36.964844 36.597656 39.765625 33.925781 39.765625 30.617188 C 39.765625 29.03125 39.109375 27.507812 37.933594 26.382812 C 36.761719 25.261719 35.167969 24.632812 33.511719 24.636719 Z M 33.511719 24.636719 "/></g></svg>
