<svg xmlns="http://www.w3.org/2000/svg" xmlns:xlink="http://www.w3.org/1999/xlink" width="64" height="64" viewBox="0 0 64 64" version="1.1"><defs><linearGradient id="linear0" x1="0%" x2="0%" y1="0%" y2="100%"><stop offset="0%" style="stop-color:#ff0000; stop-opacity:1"/><stop offset="50%" style="stop-color:#ffd000; stop-opacity:1"/><stop offset="100%" style="stop-color:#0073ff; stop-opacity:1"/></linearGradient></defs><g id="surface1"><path style=" stroke:none;fill-rule:nonzero;fill:url(#linear0);" d="M 13.804688 15.238281 L 13.804688 43 L 21.070312 50.570312 L 21.070312 15.238281 Z M 13.804688 15.238281 "/><path style=" stroke:none;fill-rule:nonzero;fill:url(#linear0);" d="M 36.613281 3.933594 C 27.648438 3.933594 9.71875 3.933594 9.71875 8.890625 C 9.71875 10.542969 9.71875 13.847656 12.707031 13.847656 C 15.695312 13.847656 12.707031 10.542969 18.683594 10.542969 C 20.277344 10.542969 21.671875 10.542969 24.660156 12.195312 L 24.660156 53.5 L 30.636719 60.109375 L 30.636719 12.195312 C 33.625 10.542969 36.671875 10.542969 39.601562 10.542969 C 45.578125 10.542969 54.542969 13.847656 54.542969 18.804688 C 54.542969 22.242188 51.554688 25.742188 45.578125 27.066406 L 45.578125 30.371094 C 50.058594 32.019531 54.542969 36.976562 54.542969 41.933594 C 54.542969 48.574219 45.578125 55.152344 33.625 60.109375 C 48.566406 58.398438 60.519531 50.195312 60.519531 41.933594 C 60.519531 35.722656 54.542969 30.371094 50.058594 28.71875 C 56.035156 27.066406 60.519531 22.339844 60.519531 17.152344 C 60.519531 8.890625 48.566406 3.933594 36.613281 3.933594 Z M 36.613281 23.761719 C 33.625 27.066406 33.625 28.71875 33.625 28.71875 C 33.625 28.71875 33.625 30.371094 36.613281 33.671875 C 36.613281 33.671875 39.601562 30.371094 42.589844 30.371094 L 42.589844 27.066406 C 39.601562 27.066406 36.613281 23.761719 36.613281 23.761719 Z M 36.613281 23.761719 "/></g></svg>
