<svg xmlns="http://www.w3.org/2000/svg" xmlns:xlink="http://www.w3.org/1999/xlink" width="64" height="64" viewBox="0 0 64 64" version="1.1"><defs><linearGradient id="linear0" x1="0%" x2="100%" y1="0%" y2="100%"><stop offset="0%" style="stop-color:#6a00ff; stop-opacity:1"/><stop offset="50%" style="stop-color:#e0dd02; stop-opacity:1"/><stop offset="100%" style="stop-color:#00b54e; stop-opacity:1"/></linearGradient></defs><g id="surface1"><path style=" stroke:none;fill-rule:nonzero;fill:url(#linear0);" d="M 32.960938 3.484375 C 17.347656 3.484375 17.347656 15.785156 17.347656 15.785156 L 17.347656 17.835938 C 17.347656 17.835938 3.96875 30.136719 3.96875 42.4375 C 3.96875 48.589844 6.199219 50.636719 8.429688 50.636719 C 10.660156 50.636719 15.117188 50.636719 15.117188 48.589844 C 15.117188 46.539062 12.890625 44.488281 12.890625 44.488281 L 14.003906 44.488281 C 14.621094 44.488281 15.117188 44.03125 15.117188 43.460938 C 15.117188 42.894531 14.621094 42.4375 14.003906 42.4375 L 12.890625 42.4375 C 12.890625 42.4375 12.890625 34.238281 17.347656 28.085938 L 17.347656 40.386719 C 17.347656 46.539062 24.039062 50.636719 24.039062 50.636719 L 24.039062 54.738281 C 24.039062 54.738281 17.347656 56.789062 17.347656 58.839844 C 17.347656 60.890625 19.578125 60.890625 21.808594 60.890625 C 28.5 60.890625 30.730469 58.839844 30.730469 58.839844 L 30.730469 52.6875 C 30.730469 52.6875 30.730469 50.636719 32.960938 50.636719 C 35.191406 50.636719 35.191406 52.6875 35.191406 52.6875 L 35.191406 58.839844 C 35.191406 58.839844 37.421875 60.890625 44.113281 60.890625 C 46.339844 60.890625 48.570312 60.890625 48.570312 58.839844 C 48.570312 56.789062 41.882812 54.738281 41.882812 54.738281 L 41.882812 50.636719 C 41.882812 50.636719 48.570312 46.539062 48.570312 40.386719 L 48.570312 28.085938 C 53.03125 34.238281 53.03125 42.4375 53.03125 42.4375 L 51.917969 42.4375 C 51.300781 42.4375 50.800781 42.894531 50.800781 43.460938 C 50.800781 44.03125 51.300781 44.488281 51.917969 44.488281 L 53.03125 44.488281 C 53.03125 44.488281 50.800781 46.539062 50.800781 48.589844 C 50.800781 50.636719 55.261719 50.636719 57.492188 50.636719 C 59.722656 50.636719 61.953125 48.589844 61.953125 42.4375 C 61.953125 30.136719 48.570312 17.835938 48.570312 17.835938 L 48.570312 15.785156 C 48.570312 15.785156 48.570312 3.484375 32.960938 3.484375 Z M 32.960938 3.484375 "/></g></svg>
