<svg xmlns="http://www.w3.org/2000/svg" xmlns:xlink="http://www.w3.org/1999/xlink" width="64" height="64" viewBox="0 0 64 64" version="1.1"><defs><linearGradient id="linear0" x1="0%" x2="100%" y1="0%" y2="100%"><stop offset="0%" style="stop-color:#ff0000; stop-opacity:1"/><stop offset="100%" style="stop-color:#6a00ff; stop-opacity:1"/></linearGradient></defs><g id="surface1"><path style=" stroke:none;fill-rule:nonzero;fill:url(#linear0);" d="M 3.761719 3 L 3.761719 61.085938 L 61.289062 61.085938 L 61.289062 3 Z M 6.15625 5.421875 L 58.890625 5.421875 L 58.890625 58.667969 L 6.15625 58.667969 Z M 10.949219 10.261719 L 13.347656 12.679688 L 13.347656 41.726562 L 10.949219 44.144531 L 34.921875 44.144531 L 37.316406 36.882812 L 32.523438 39.304688 L 18.140625 39.304688 L 18.140625 12.679688 L 20.539062 10.261719 Z M 42.113281 17.523438 C 31.515625 17.523438 22.9375 24.976562 22.9375 35.675781 C 22.9375 36.085938 22.972656 36.480469 22.996094 36.882812 L 27.789062 36.882812 C 27.757812 36.484375 27.730469 36.082031 27.730469 35.675781 C 27.730469 27.664062 34.179688 21.152344 42.113281 21.152344 C 46.929688 21.152344 51.4375 23.597656 54.097656 27.640625 L 54.097656 23.574219 C 51.699219 20.0625 46.472656 17.523438 42.113281 17.523438 Z M 54.097656 43.660156 C 51.4375 47.726562 46.929688 50.148438 42.113281 50.148438 C 38.46875 50.148438 35.160156 48.769531 32.621094 46.515625 L 26.554688 46.515625 C 30.03125 51.042969 35.6875 53.777344 42.085938 53.777344 C 46.449219 53.777344 51.675781 51.507812 54.074219 47.726562 L 54.074219 43.660156 Z M 54.097656 43.660156 "/></g></svg>
