<svg xmlns="http://www.w3.org/2000/svg" xmlns:xlink="http://www.w3.org/1999/xlink" width="64" height="64" viewBox="0 0 64 64" version="1.1"><defs><linearGradient id="linear0" x1="0%" x2="100%" y1="0%" y2="100%"><stop offset="0%" style="stop-color:#ff0000; stop-opacity:1"/><stop offset="50%" style="stop-color:#ffd000; stop-opacity:1"/><stop offset="100%" style="stop-color:#ff00bb; stop-opacity:1"/></linearGradient></defs><g id="surface1"><path style=" stroke:none;fill-rule:nonzero;fill:url(#linear0);" d="M 40.28125 63.484375 L 44.003906 53.128906 L 40.28125 47.949219 L 47.734375 50.539062 L 40.28125 42.773438 L 47.734375 45.363281 L 44.003906 40.183594 L 47.734375 37.597656 L 44.003906 37.597656 L 47.734375 32.417969 L 40.28125 35.007812 L 44.003906 29.828125 L 40.28125 32.417969 L 40.28125 27.242188 L 36.554688 27.242188 L 40.28125 22.0625 L 32.824219 27.242188 L 32.824219 16.886719 L 21.644531 47.949219 L 17.921875 50.539062 L 17.921875 47.949219 L 14.191406 50.539062 L 14.191406 47.949219 L 10.464844 50.539062 L 14.191406 45.363281 L 10.464844 47.949219 C 10.464844 47.949219 21.644531 1.351562 29.101562 1.351562 C 32.824219 1.351562 55.1875 11.703125 55.1875 35.007812 C 55.1875 53.128906 40.28125 63.484375 40.28125 63.484375 Z M 40.28125 63.484375 "/></g></svg>
