<svg xmlns="http://www.w3.org/2000/svg" xmlns:xlink="http://www.w3.org/1999/xlink" width="64" height="64" viewBox="0 0 64 64" version="1.1"><defs><linearGradient id="linear0" x1="0%" x2="100%" y1="0%" y2="100%"><stop offset="0%" style="stop-color:#e5ff00; stop-opacity:1"/><stop offset="50%" style="stop-color:#0073ff; stop-opacity:1"/><stop offset="100%" style="stop-color:#ff0000; stop-opacity:1"/></linearGradient></defs><g id="surface1"><path style=" stroke:none;fill-rule:nonzero;fill:url(#linear0);" d="M 32.269531 1.421875 C 15.375 1.421875 1.679688 15.203125 1.679688 32.207031 C 1.679688 49.207031 15.375 62.988281 32.269531 62.988281 C 49.164062 62.988281 62.859375 49.207031 62.859375 32.207031 C 62.859375 15.203125 49.164062 1.421875 32.269531 1.421875 Z M 32.269531 5.527344 C 46.914062 5.527344 58.78125 17.472656 58.78125 32.207031 C 58.78125 46.9375 46.914062 58.882812 32.269531 58.882812 C 17.625 58.882812 5.757812 46.9375 5.757812 32.207031 C 5.757812 17.472656 17.625 5.527344 32.269531 5.527344 Z M 49.910156 21.945312 L 46.542969 26.046875 L 47.335938 27.777344 L 40.425781 32.867188 L 40.425781 31.65625 L 44.503906 24 L 42.464844 24 L 43.585938 22.460938 C 38.878906 22.460938 35.023438 23.96875 33.78125 26.050781 L 29.253906 26.050781 C 27.574219 24.097656 23.109375 24 19.011719 24 C 14.914062 24 11.960938 24.59375 9.835938 26.050781 C 9.835938 30.160156 10.855469 35.964844 13.367188 37.339844 C 15.707031 38.628906 20.910156 39.027344 26.152344 36.136719 C 27.292969 35.511719 28.105469 32.160156 29.085938 30.042969 C 29.410156 28.355469 33.085938 28.308594 33.472656 29.910156 C 34.230469 32.125 35.652344 35.226562 36.691406 35.453125 C 45.808594 37.46875 50.601562 36.644531 52.910156 33.667969 C 54.667969 31.390625 54.683594 26.792969 54.71875 23.058594 C 53.28125 22.359375 51.617188 22.09375 49.929688 21.949219 Z M 44.464844 43.085938 C 42.203125 46.511719 38.386719 48.5625 34.308594 48.585938 L 34.308594 50.632812 C 39.082031 50.628906 43.523438 48.234375 46.175781 44.230469 L 44.46875 43.085938 Z M 44.464844 43.085938 "/></g></svg>
