<svg xmlns="http://www.w3.org/2000/svg" xmlns:xlink="http://www.w3.org/1999/xlink" width="64" height="64" viewBox="0 0 64 64" version="1.1"><defs><linearGradient id="linear0" x1="100%" x2="0%" y1="100%" y2="0%"><stop offset="0%" style="stop-color:#00b54e; stop-opacity:1"/><stop offset="100%" style="stop-color:#ff0000; stop-opacity:1"/></linearGradient></defs><g id="surface1"><path style=" stroke:none;fill-rule:nonzero;fill:url(#linear0);" d="M 1.222656 1.527344 L 1.222656 4.203125 L 32.019531 36.3125 L 62.8125 4.203125 L 62.8125 1.527344 L 32.019531 22.933594 Z M 11.257812 23.253906 C 5.390625 24.617188 1.222656 30.046875 1.222656 36.3125 C 1.222656 43.699219 6.964844 49.691406 14.054688 49.691406 C 20.0625 49.691406 25.265625 45.347656 26.578125 39.230469 C 24.664062 40.800781 22.292969 41.65625 19.851562 41.660156 C 13.832031 41.660156 8.949219 36.566406 8.949219 30.285156 C 8.953125 27.742188 9.78125 25.273438 11.292969 23.277344 Z M 52.832031 23.253906 C 54.339844 25.253906 55.15625 27.722656 55.164062 30.261719 C 55.164062 36.546875 50.28125 41.636719 44.253906 41.636719 C 41.8125 41.628906 39.445312 40.769531 37.53125 39.195312 C 38.839844 45.304688 44.046875 49.65625 50.050781 49.65625 C 57.140625 49.65625 62.882812 43.664062 62.882812 36.273438 C 62.882812 30.007812 58.714844 24.582031 52.851562 23.214844 Z M 32.070312 41.664062 L 26.9375 55.042969 L 32.070312 63.070312 L 37.203125 55.042969 Z M 32.070312 41.664062 "/></g></svg>
