<svg xmlns="http://www.w3.org/2000/svg" xmlns:xlink="http://www.w3.org/1999/xlink" width="64" height="64" viewBox="0 0 64 64" version="1.1"><defs><linearGradient id="linear0" x1="100%" x2="0%" y1="100%" y2="0%"><stop offset="0%" style="stop-color:#00b54e; stop-opacity:1"/><stop offset="100%" style="stop-color:#ff0000; stop-opacity:1"/></linearGradient></defs><g id="surface1"><path style=" stroke:none;fill-rule:nonzero;fill:url(#linear0);" d="M 1.6875 35.386719 L 1.6875 52.375 C 1.6875 53.941406 2.824219 55.210938 4.234375 55.210938 L 9.332031 55.210938 C 10.746094 55.210938 11.878906 53.941406 11.878906 52.375 L 11.878906 35.386719 Z M 52.652344 35.386719 L 52.652344 52.375 C 52.652344 53.941406 53.789062 55.210938 55.199219 55.210938 L 60.296875 55.210938 C 61.710938 55.210938 62.84375 53.941406 62.84375 52.375 L 62.84375 35.386719 Z M 52.652344 35.386719 "/><path style=" stroke:none;fill-rule:nonzero;fill:url(#linear0);" d="M 9.332031 24.066406 C 9.332031 24.066406 11.878906 7.082031 24.621094 7.082031 L 39.910156 7.082031 C 52.652344 7.082031 55.199219 24.066406 55.199219 24.066406 Z M 9.332031 24.066406 "/><path style=" stroke:none;fill-rule:nonzero;fill:url(#linear0);" d="M 5.539062 35.082031 L 5.539062 43.574219 L 15.738281 49.242188 L 15.738281 54.90625 L 23.382812 57.734375 L 43.761719 57.734375 L 51.40625 54.90625 L 51.40625 49.242188 L 61.605469 43.574219 L 61.605469 35.082031 L 51.40625 37.917969 L 15.738281 37.917969 Z M 5.539062 35.082031 "/><path style=" stroke:none;fill-rule:nonzero;fill:url(#linear0);" d="M 17.148438 25.714844 L 17.148438 34.210938 L 22.25 37.039062 L 42.625 37.039062 L 47.726562 34.210938 L 47.726562 25.714844 Z M 1.859375 28.546875 L 1.859375 35.621094 L 4.40625 37.039062 L 4.40625 34.210938 L 9.503906 34.210938 L 9.503906 31.375 Z M 63.015625 28.546875 L 55.371094 31.375 L 55.371094 34.210938 L 60.46875 34.210938 L 60.46875 37.039062 L 63.015625 35.621094 Z M 63.015625 28.546875 "/></g></svg>
