<svg xmlns="http://www.w3.org/2000/svg" xmlns:xlink="http://www.w3.org/1999/xlink" width="64" height="64" viewBox="0 0 64 64" version="1.1"><defs><linearGradient id="linear0" x1="0%" x2="100%" y1="0%" y2="100%"><stop offset="0%" style="stop-color:#e5ff00; stop-opacity:1"/><stop offset="50%" style="stop-color:#0073ff; stop-opacity:1"/><stop offset="100%" style="stop-color:#ff0000; stop-opacity:1"/></linearGradient></defs><g id="surface1"><path style=" stroke:none;fill-rule:nonzero;fill:url(#linear0);" d="M 31.890625 1.328125 C 29.558594 1.335938 12 8.792969 10.355469 10.476562 C 8.714844 12.15625 1.515625 30.011719 1.527344 32.382812 C 1.539062 34.75 8.886719 52.558594 10.550781 54.222656 C 12.207031 55.890625 29.808594 63.191406 32.144531 63.179688 C 34.476562 63.167969 52.03125 55.710938 53.675781 54.03125 C 55.320312 52.347656 62.515625 34.492188 62.507812 32.125 C 62.496094 29.753906 55.144531 11.949219 53.488281 10.28125 C 51.828125 8.613281 34.222656 1.3125 31.890625 1.328125 Z M 31.761719 10.667969 L 53.804688 32.058594 L 32.207031 54.921875 L 10.164062 33.597656 L 31.761719 10.660156 Z M 32.019531 19.882812 C 25.28125 19.882812 19.820312 25.417969 19.820312 32.25 C 19.820312 39.085938 25.28125 44.621094 32.019531 44.621094 C 38.75 44.621094 44.210938 39.085938 44.210938 32.25 C 44.210938 25.417969 38.75 19.882812 32.019531 19.882812 Z M 32.019531 19.882812 "/></g></svg>
