<svg xmlns="http://www.w3.org/2000/svg" xmlns:xlink="http://www.w3.org/1999/xlink" width="64" height="64" viewBox="0 0 64 64" version="1.1"><defs><linearGradient id="linear0" x1="0%" x2="100%" y1="0%" y2="100%"><stop offset="0%" style="stop-color:#00b54e; stop-opacity:1"/><stop offset="100%" style="stop-color:#0073ff; stop-opacity:1"/></linearGradient></defs><g id="surface1"><path style=" stroke:none;fill-rule:nonzero;fill:url(#linear0);" d="M 16.183594 0.867188 C 14.980469 0.859375 13.609375 1.019531 12.679688 1.34375 C 9.636719 3.222656 8.496094 3.625 9.714844 5.789062 C 9.867188 5.933594 10.667969 7.789062 11.085938 7.851562 C 11.628906 7.921875 12.363281 8.363281 13.367188 9.203125 C 14.730469 10.371094 14.855469 10.414062 15.519531 10.179688 C 15.886719 10.03125 16.542969 9.929688 16.988281 9.929688 L 17.773438 9.929688 L 17.175781 10.753906 C 15.359375 11.242188 15.707031 14.320312 16.589844 15.875 L 16.808594 17.15625 C 16.335938 17.207031 15.839844 18.289062 15.882812 18.988281 C 15.945312 20.320312 16.78125 20.703125 16.480469 20.8125 C 15.511719 21.167969 13.335938 20.761719 10.703125 20.460938 C 9.589844 19.53125 9.09375 18.820312 8.386719 18.554688 C 7.382812 18.15625 6.839844 18.378906 6.152344 18.695312 C 5.773438 18.855469 7.027344 19.671875 6.722656 19.796875 C 6.304688 19.957031 4.597656 17.882812 4.417969 18.136719 C 4.167969 18.480469 3.519531 18.84375 5.570312 21.34375 C 6.117188 21.757812 7.117188 22.214844 7.507812 22.304688 C 7.925781 22.382812 8.8125 22.34375 8.949219 22.421875 C 9.765625 22.898438 13.65625 24.03125 17.9375 24.472656 C 20.171875 24.714844 19.992188 24.453125 20.964844 23.0625 C 21.410156 22.445312 21.980469 21.597656 22.058594 21.382812 C 22.183594 21.082031 22.878906 19.636719 23.511719 19.566406 C 24.300781 19.484375 24.945312 21.011719 25.503906 21.566406 C 26.894531 23.324219 27.667969 25.261719 27.542969 26.554688 C 27.707031 27.128906 27.515625 27.453125 25.703125 29.582031 C 22.804688 32.113281 21.585938 35.058594 20.515625 35.578125 C 18.730469 38.683594 19.933594 40.078125 19.097656 42.066406 C 18.625 43.125 18.550781 43.640625 18.730469 43.792969 C 19.148438 44.140625 19.097656 44.714844 18.488281 46.613281 C 18.207031 47.5 17.917969 49.199219 17.84375 50.335938 C 17.429688 52.367188 17.132812 54.808594 17.042969 56.542969 C 17.191406 56.824219 17.539062 57.15625 17.65625 57.5625 C 17.589844 57.691406 17.566406 57.765625 17.503906 57.84375 C 17.042969 58.375 15.136719 58.824219 14.804688 59.023438 C 13.488281 59.621094 12.003906 60.441406 12.4375 61.488281 C 12.917969 62.214844 13.425781 62.953125 15.03125 62.953125 L 18.667969 62.023438 L 20.136719 61.53125 C 20.949219 61.265625 22.089844 60.824219 22.644531 60.507812 C 22.898438 60.378906 23.230469 60.226562 23.542969 60.082031 L 23.566406 60.082031 C 23.671875 60.03125 23.773438 59.996094 23.859375 59.953125 C 24.175781 59.804688 24.480469 59.683594 24.734375 59.589844 C 25.292969 59.378906 25.738281 59.105469 25.6875 58.992188 L 25.671875 58.984375 L 25.699219 58.984375 C 25.699219 58.984375 25.6875 58.984375 25.671875 58.972656 C 25.621094 58.871094 25.394531 58.628906 25.074219 58.367188 C 25.027344 58.308594 25 58.265625 24.976562 58.199219 L 26.632812 57.109375 C 26.320312 57.277344 26.472656 56.410156 26.179688 56.558594 C 25.027344 57.207031 24.457031 57.050781 24.332031 57.050781 C 23.871094 57.050781 23.914062 55.90625 24.246094 55.441406 C 24.40625 55.1875 25.128906 54.59375 25.191406 54.320312 C 25.246094 54.085938 25.457031 53.039062 25.664062 52.027344 C 25.875 51.027344 26.003906 49.9375 25.929688 49.613281 C 25.851562 49.277344 25.902344 48.957031 26.027344 48.863281 C 26.460938 48.652344 27.425781 46.792969 27.425781 46.203125 C 27.425781 45.902344 27.328125 45.605469 27.160156 45.535156 C 27.007812 45.476562 27.132812 45.089844 27.453125 44.617188 C 27.910156 43.960938 27.957031 43.59375 27.792969 42.3125 L 27.640625 40.820312 L 29.019531 39.707031 C 29.792969 39.082031 30.628906 38.585938 30.898438 38.585938 C 31.175781 38.585938 31.914062 39.253906 32.847656 40.453125 C 33.6875 41.496094 34.835938 42.738281 35.449219 43.21875 C 36.460938 44.070312 36.597656 44.140625 37.929688 44.140625 C 39.074219 44.140625 39.691406 43.96875 41.566406 43.125 C 43.035156 42.460938 44.753906 41.925781 46.722656 41.519531 C 48.304688 41.1875 49.796875 40.753906 50.027344 40.542969 C 50.269531 40.351562 50.660156 39.753906 50.902344 39.21875 C 51.160156 38.683594 51.5 38.1875 51.664062 38.105469 C 52.234375 37.804688 53.339844 37.9375 53.792969 38.339844 C 54.3125 38.804688 54.347656 40.421875 54.5 40.761719 C 54.871094 41.957031 55.46875 43.316406 56.832031 43.25 C 57.8125 43.066406 58.808594 42.84375 59.226562 41.570312 L 59.058594 38.472656 L 58.859375 37.1875 C 58.757812 36.488281 58.488281 35.480469 58.261719 34.949219 C 58.058594 34.414062 57.816406 33.585938 57.71875 33.066406 C 57.628906 32.574219 57.398438 32.167969 57.246094 32.167969 C 57.050781 32.167969 56.222656 32.511719 55.359375 32.9375 C 52.785156 34.199219 52.519531 34.289062 49.972656 34.519531 C 46.957031 34.792969 43.84375 35.289062 43.164062 35.589844 C 42.40625 35.9375 40.828125 35.996094 40.828125 35.671875 C 40.828125 35.539062 40.617188 35.378906 40.351562 35.328125 C 39.984375 35.246094 39.804688 34.863281 39.59375 33.710938 C 39.273438 32.046875 39.414062 31.1875 40.324219 29.34375 C 41.375 27.222656 40.886719 24.042969 39.464844 24.042969 C 38.996094 24.042969 38.960938 23.964844 39.097656 23.335938 C 39.226562 22.757812 39.148438 22.507812 38.628906 22.054688 C 38.195312 21.671875 38.042969 21.347656 38.121094 20.960938 C 38.222656 20.601562 38.148438 20.410156 37.945312 20.410156 C 37.75 20.410156 37.679688 20.253906 37.777344 20.0625 C 37.972656 19.660156 36.992188 18.277344 36.511719 18.277344 C 36.117188 18.277344 35.574219 17.378906 35.574219 16.753906 C 35.574219 16.539062 35.332031 16.171875 35.039062 15.980469 C 34.761719 15.773438 34.523438 15.527344 34.523438 15.429688 C 34.523438 15.316406 34.179688 14.597656 33.761719 13.824219 C 33.34375 13.03125 32.949219 11.941406 32.863281 11.40625 C 32.683594 10.257812 32.890625 10.042969 34.792969 9.398438 C 35.4375 9.167969 36.414062 8.785156 36.941406 8.5 L 37.921875 8.015625 L 38.660156 8.925781 C 39.078125 9.417969 40.148438 10.226562 41.0625 10.757812 C 41.960938 11.265625 43.113281 12.125 43.582031 12.679688 C 44.367188 13.558594 44.457031 13.769531 44.320312 14.671875 C 44.191406 15.5625 44.269531 15.8125 45.03125 16.773438 C 45.828125 17.78125 46.347656 18.117188 46.347656 17.628906 C 46.347656 17.53125 46.980469 17.796875 47.742188 18.277344 C 48.488281 18.742188 49.210938 19.09375 49.339844 19.0625 C 49.503906 19.027344 49.703125 18.722656 49.84375 18.398438 C 50.023438 17.953125 49.945312 17.460938 49.503906 16.390625 C 49.1875 15.597656 48.765625 14.816406 48.605469 14.640625 C 48.402344 14.472656 47.742188 13.550781 47.136719 12.609375 C 46.515625 11.675781 45.402344 10.144531 44.613281 9.253906 C 43.84375 8.332031 43.300781 7.457031 43.375 7.28125 C 43.5625 6.898438 40.851562 4.617188 39.417969 3.96875 C 38.367188 3.476562 37.011719 3.476562 34 3.953125 C 32.164062 4.253906 28.324219 4.742188 25.859375 5.023438 C 24.605469 5.160156 23.351562 5.425781 23.046875 5.578125 C 22.566406 5.808594 22.425781 5.832031 22.425781 5.617188 C 22.425781 5.46875 22.0625 5.144531 21.640625 4.914062 C 21.195312 4.679688 20.4375 3.84375 19.933594 3.035156 C 19.425781 2.234375 18.675781 1.429688 18.324219 1.238281 C 17.90625 1.015625 17.082031 0.902344 16.15625 0.894531 "/></g></svg>
