<svg xmlns="http://www.w3.org/2000/svg" xmlns:xlink="http://www.w3.org/1999/xlink" width="64" height="64" viewBox="0 0 64 64" version="1.1"><defs><linearGradient id="linear0" x1="0%" x2="100%" y1="0%" y2="100%"><stop offset="0%" style="stop-color:#6a00ff; stop-opacity:1"/><stop offset="50%" style="stop-color:#e0dd02; stop-opacity:1"/><stop offset="100%" style="stop-color:#00b54e; stop-opacity:1"/></linearGradient></defs><g id="surface1"><path style=" stroke:none;fill-rule:nonzero;fill:url(#linear0);" d="M 11.085938 16.828125 C 9.167969 16.828125 7.554688 18.148438 5.957031 19.332031 C 4.753906 20.226562 3.625 21.0625 2.40625 21.417969 C 2.339844 21.6875 2.277344 21.953125 2.21875 22.222656 C 3.695312 21.902344 4.988281 20.945312 6.292969 19.980469 C 7.886719 18.800781 9.371094 17.707031 11.085938 17.707031 C 12.796875 17.707031 14.40625 18.800781 16.003906 19.980469 C 17.597656 21.160156 19.210938 22.34375 21.128906 22.34375 C 23.046875 22.34375 24.707031 21.160156 26.292969 19.980469 C 27.886719 18.800781 29.496094 17.707031 31.210938 17.707031 C 32.925781 17.707031 34.414062 18.800781 36.019531 19.980469 C 37.601562 21.160156 39.183594 22.34375 41.101562 22.34375 C 43.019531 22.34375 44.632812 21.160156 46.226562 19.980469 C 47.816406 18.800781 49.472656 17.707031 51.1875 17.707031 C 52.898438 17.707031 54.34375 18.800781 55.9375 19.980469 C 57.53125 21.160156 59.148438 22.34375 61.066406 22.34375 C 61.3125 22.34375 61.550781 22.296875 61.792969 22.261719 C 61.738281 22.019531 61.683594 21.769531 61.625 21.527344 C 61.4375 21.554688 61.253906 21.601562 61.066406 21.601562 C 59.351562 21.601562 57.90625 20.515625 56.3125 19.332031 C 54.71875 18.148438 53.105469 16.828125 51.1875 16.828125 C 49.269531 16.828125 47.609375 18.148438 46.019531 19.332031 C 44.429688 20.515625 42.820312 21.601562 41.105469 21.601562 C 39.390625 21.601562 37.941406 20.515625 36.351562 19.332031 C 34.761719 18.148438 33.140625 16.828125 31.214844 16.828125 C 29.300781 16.828125 27.519531 18.148438 25.921875 19.332031 C 24.332031 20.515625 22.847656 21.601562 21.128906 21.601562 C 19.414062 21.601562 17.804688 20.515625 16.210938 19.332031 C 14.621094 18.148438 13.003906 16.828125 11.085938 16.828125 Z M 12 22.988281 C 10.355469 22.988281 8.921875 24.125 7.585938 25.304688 C 6.234375 26.488281 4.992188 27.574219 3.585938 27.574219 C 2.867188 27.574219 2.171875 27.273438 1.496094 26.839844 C 1.46875 27.117188 1.457031 27.390625 1.4375 27.667969 C 2.109375 28.042969 2.832031 28.316406 3.585938 28.316406 C 5.230469 28.316406 6.621094 27.136719 7.957031 25.953125 C 9.304688 24.761719 10.589844 23.679688 12 23.679688 C 13.414062 23.679688 14.660156 24.773438 16 25.953125 C 17.359375 27.136719 18.769531 28.316406 20.421875 28.316406 C 22.066406 28.316406 23.449219 27.136719 24.792969 25.953125 C 26.144531 24.761719 27.425781 23.679688 28.835938 23.679688 C 30.246094 23.679688 31.496094 24.773438 32.835938 25.953125 C 34.183594 27.136719 35.605469 28.316406 37.253906 28.316406 C 38.902344 28.316406 40.289062 27.136719 41.625 25.953125 C 42.976562 24.761719 44.261719 23.679688 45.667969 23.679688 C 47.074219 23.679688 48.328125 24.773438 49.667969 25.953125 C 51.015625 27.136719 52.433594 28.316406 54.085938 28.316406 C 55.734375 28.316406 57.121094 27.136719 58.460938 25.953125 C 59.675781 24.882812 60.839844 23.910156 62.082031 23.726562 C 62.042969 23.492188 61.996094 23.265625 61.953125 23.035156 C 60.535156 23.246094 59.273438 24.257812 58.082031 25.304688 C 56.734375 26.488281 55.488281 27.574219 54.082031 27.574219 C 52.671875 27.574219 51.378906 26.488281 50.042969 25.304688 C 48.691406 24.125 47.3125 22.988281 45.667969 22.988281 C 44.023438 22.988281 42.589844 24.125 41.25 25.304688 C 39.902344 26.488281 38.65625 27.574219 37.25 27.574219 C 35.84375 27.574219 34.550781 26.488281 33.210938 25.304688 C 31.863281 24.125 30.488281 22.988281 28.835938 22.988281 C 27.191406 22.988281 25.761719 24.125 24.417969 25.304688 C 23.070312 26.488281 21.824219 27.574219 20.417969 27.574219 C 19.011719 27.574219 17.714844 26.488281 16.378906 25.304688 C 15.03125 24.125 13.65625 22.988281 12.007812 22.988281 Z M 3.210938 28.964844 C 2.519531 28.964844 1.921875 29.25 1.347656 29.691406 C 1.34375 29.914062 1.332031 30.136719 1.332031 30.359375 C 1.332031 30.460938 1.339844 30.566406 1.339844 30.675781 C 1.957031 30.097656 2.570312 29.660156 3.207031 29.660156 C 4.261719 29.660156 5.234375 30.746094 6.292969 31.925781 C 7.308594 33.0625 8.511719 34.199219 9.792969 34.289062 C 9.84375 34.296875 9.90625 34.289062 9.957031 34.289062 C 11.246094 34.199219 12.441406 33.0625 13.457031 31.925781 C 14.515625 30.746094 15.53125 29.660156 16.585938 29.660156 C 17.636719 29.660156 18.613281 30.746094 19.667969 31.925781 C 20.726562 33.109375 21.773438 34.289062 23.128906 34.289062 C 24.488281 34.289062 25.570312 33.109375 26.628906 31.925781 C 27.683594 30.746094 28.703125 29.660156 29.753906 29.660156 C 30.804688 29.660156 31.785156 30.746094 32.839844 31.925781 C 33.898438 33.109375 35.148438 34.289062 36.507812 34.289062 C 37.863281 34.289062 38.910156 33.109375 39.964844 31.925781 C 41.023438 30.746094 42.082031 29.660156 43.132812 29.660156 C 44.183594 29.660156 45.160156 30.746094 46.21875 31.925781 C 47.273438 33.109375 48.316406 34.289062 49.6875 34.289062 C 51.042969 34.289062 52.128906 33.109375 53.1875 31.925781 C 54.242188 30.746094 55.261719 29.660156 56.3125 29.660156 C 57.363281 29.660156 58.339844 30.746094 59.398438 31.925781 C 60.296875 32.933594 61.339844 33.933594 62.46875 34.207031 C 62.492188 33.957031 62.515625 33.707031 62.535156 33.453125 C 61.625 33.179688 60.65625 32.265625 59.769531 31.277344 C 58.714844 30.097656 57.667969 28.960938 56.3125 28.960938 C 54.949219 28.960938 53.871094 30.09375 52.8125 31.277344 C 51.753906 32.464844 50.738281 33.546875 49.6875 33.546875 C 48.632812 33.546875 47.65625 32.460938 46.597656 31.277344 C 45.542969 30.097656 44.496094 28.960938 43.140625 28.960938 C 41.777344 28.960938 40.699219 30.09375 39.640625 31.277344 C 38.582031 32.464844 37.554688 33.546875 36.515625 33.546875 C 35.460938 33.546875 34.269531 32.460938 33.210938 31.277344 C 32.15625 30.097656 31.117188 28.960938 29.753906 28.960938 C 28.398438 28.960938 27.351562 30.09375 26.292969 31.277344 C 25.238281 32.464844 24.179688 33.546875 23.128906 33.546875 C 22.074219 33.546875 21.101562 32.460938 20.042969 31.277344 C 18.984375 30.097656 17.945312 28.960938 16.585938 28.960938 C 15.230469 28.960938 14.183594 30.09375 13.125 31.277344 C 12.113281 32.414062 10.964844 33.460938 9.957031 33.546875 C 9.910156 33.546875 9.839844 33.554688 9.792969 33.546875 C 8.785156 33.460938 7.71875 32.414062 6.707031 31.277344 C 5.652344 30.097656 4.566406 28.960938 3.207031 28.960938 Z M 2.246094 35.324219 C 2.042969 35.324219 1.855469 35.371094 1.675781 35.429688 C 1.707031 35.675781 1.746094 35.914062 1.785156 36.152344 C 1.929688 36.089844 2.078125 36.050781 2.246094 36.050781 C 2.664062 36.050781 3 36.253906 3.347656 36.609375 C 3.691406 36.960938 4.019531 37.464844 4.355469 37.980469 C 4.691406 38.503906 5.039062 39.042969 5.457031 39.46875 C 5.875 39.890625 6.386719 40.210938 7 40.210938 C 7.613281 40.210938 8.128906 39.890625 8.546875 39.46875 C 8.964844 39.042969 9.308594 38.503906 9.644531 37.980469 C 9.980469 37.464844 10.308594 36.960938 10.652344 36.609375 C 11 36.253906 11.335938 36.050781 11.753906 36.050781 C 12.171875 36.050781 12.511719 36.253906 12.855469 36.609375 C 13.203125 36.960938 13.53125 37.464844 13.867188 37.980469 C 14.203125 38.503906 14.546875 39.042969 14.964844 39.46875 C 15.382812 39.890625 15.894531 40.210938 16.507812 40.210938 C 17.125 40.210938 17.636719 39.890625 18.054688 39.46875 C 18.472656 39.042969 18.816406 38.503906 19.152344 37.980469 C 19.488281 37.464844 19.816406 36.960938 20.164062 36.609375 C 20.507812 36.253906 20.847656 36.050781 21.265625 36.050781 C 21.679688 36.050781 22.023438 36.253906 22.367188 36.609375 C 22.714844 36.960938 23.039062 37.464844 23.375 37.980469 C 23.710938 38.503906 24.058594 39.042969 24.476562 39.46875 C 24.890625 39.890625 25.402344 40.210938 26.019531 40.210938 C 26.632812 40.210938 27.148438 39.890625 27.566406 39.46875 C 27.984375 39.042969 28.328125 38.503906 28.664062 37.980469 C 29 37.464844 29.328125 36.960938 29.671875 36.609375 C 30.015625 36.253906 30.355469 36.050781 30.773438 36.050781 C 31.191406 36.050781 31.53125 36.253906 31.878906 36.609375 C 32.222656 36.960938 32.550781 37.464844 32.886719 37.980469 C 33.222656 38.503906 33.566406 39.042969 33.984375 39.46875 C 34.402344 39.890625 34.914062 40.210938 35.53125 40.210938 C 36.144531 40.210938 36.65625 39.890625 37.074219 39.46875 C 37.492188 39.042969 37.835938 38.503906 38.171875 37.980469 C 38.507812 37.464844 38.835938 36.960938 39.179688 36.609375 C 39.527344 36.253906 39.867188 36.050781 40.285156 36.050781 C 40.703125 36.050781 41.042969 36.253906 41.386719 36.609375 C 41.730469 36.960938 42.0625 37.464844 42.398438 37.980469 C 42.734375 38.503906 43.074219 39.042969 43.492188 39.46875 C 43.910156 39.890625 44.425781 40.210938 45.039062 40.210938 C 45.65625 40.210938 46.167969 39.890625 46.585938 39.46875 C 47 39.042969 47.347656 38.503906 47.683594 37.980469 C 48.019531 37.464844 48.347656 36.960938 48.691406 36.609375 C 49.039062 36.253906 49.378906 36.050781 49.792969 36.050781 C 50.210938 36.050781 50.550781 36.253906 50.894531 36.609375 C 51.242188 36.960938 51.570312 37.464844 51.90625 37.980469 C 52.242188 38.503906 52.585938 39.042969 53.003906 39.46875 C 53.421875 39.890625 53.933594 40.210938 54.550781 40.210938 C 55.164062 40.210938 55.675781 39.890625 56.09375 39.46875 C 56.511719 39.042969 56.855469 38.503906 57.191406 37.980469 C 57.527344 37.464844 57.855469 36.960938 58.203125 36.609375 C 58.546875 36.253906 58.886719 36.050781 59.304688 36.050781 C 59.722656 36.050781 60.058594 36.253906 60.40625 36.609375 C 60.75 36.960938 61.078125 37.464844 61.414062 37.980469 C 61.53125 38.160156 61.652344 38.335938 61.769531 38.515625 C 61.839844 38.207031 61.90625 37.894531 61.964844 37.582031 C 61.960938 37.574219 61.953125 37.570312 61.945312 37.554688 C 61.609375 37.035156 61.265625 36.496094 60.847656 36.074219 C 60.429688 35.648438 59.917969 35.328125 59.304688 35.328125 C 58.6875 35.328125 58.175781 35.648438 57.757812 36.074219 C 57.339844 36.5 56.996094 37.039062 56.660156 37.554688 C 56.324219 38.078125 55.996094 38.578125 55.652344 38.929688 C 55.304688 39.28125 54.964844 39.484375 54.550781 39.484375 C 54.132812 39.484375 53.792969 39.28125 53.449219 38.929688 C 53.101562 38.578125 52.773438 38.078125 52.4375 37.554688 C 52.101562 37.035156 51.757812 36.496094 51.339844 36.074219 C 50.921875 35.648438 50.410156 35.328125 49.792969 35.328125 C 49.179688 35.328125 48.664062 35.648438 48.246094 36.074219 C 47.832031 36.5 47.488281 37.039062 47.152344 37.554688 C 46.816406 38.078125 46.488281 38.578125 46.140625 38.929688 C 45.796875 39.28125 45.457031 39.484375 45.039062 39.484375 C 44.621094 39.484375 44.285156 39.28125 43.9375 38.929688 C 43.59375 38.578125 43.265625 38.078125 42.929688 37.554688 C 42.59375 37.035156 42.246094 36.496094 41.828125 36.074219 C 41.410156 35.648438 40.898438 35.328125 40.285156 35.328125 C 39.671875 35.328125 39.15625 35.648438 38.738281 36.074219 C 38.320312 36.5 37.976562 37.039062 37.640625 37.554688 C 37.304688 38.078125 36.976562 38.578125 36.632812 38.929688 C 36.285156 39.28125 35.949219 39.484375 35.53125 39.484375 C 35.113281 39.484375 34.773438 39.28125 34.425781 38.929688 C 34.082031 38.578125 33.753906 38.078125 33.417969 37.554688 C 33.082031 37.035156 32.738281 36.496094 32.320312 36.074219 C 31.902344 35.648438 31.386719 35.328125 30.773438 35.328125 C 30.160156 35.328125 29.648438 35.648438 29.230469 36.074219 C 28.8125 36.5 28.464844 37.039062 28.128906 37.554688 C 27.792969 38.078125 27.46875 38.578125 27.121094 38.929688 C 26.777344 39.28125 26.4375 39.484375 26.019531 39.484375 C 25.601562 39.484375 25.261719 39.28125 24.917969 38.929688 C 24.570312 38.578125 24.246094 38.078125 23.910156 37.554688 C 23.574219 37.035156 23.226562 36.496094 22.8125 36.074219 C 22.394531 35.648438 21.878906 35.328125 21.265625 35.328125 C 20.648438 35.328125 20.136719 35.648438 19.71875 36.074219 C 19.300781 36.5 18.957031 37.039062 18.621094 37.554688 C 18.285156 38.078125 17.957031 38.578125 17.609375 38.929688 C 17.265625 39.28125 16.925781 39.484375 16.507812 39.484375 C 16.09375 39.484375 15.753906 39.28125 15.40625 38.929688 C 15.0625 38.578125 14.734375 38.078125 14.398438 37.554688 C 14.0625 37.035156 13.71875 36.496094 13.300781 36.074219 C 12.882812 35.648438 12.371094 35.328125 11.753906 35.328125 C 11.140625 35.328125 10.628906 35.648438 10.210938 36.074219 C 9.792969 36.5 9.449219 37.039062 9.113281 37.554688 C 8.777344 38.078125 8.445312 38.578125 8.101562 38.929688 C 7.757812 39.28125 7.417969 39.484375 7 39.484375 C 6.582031 39.484375 6.242188 39.28125 5.898438 38.929688 C 5.554688 38.578125 5.222656 38.078125 4.886719 37.554688 C 4.550781 37.035156 4.210938 36.496094 3.792969 36.074219 C 3.375 35.648438 2.859375 35.328125 2.246094 35.328125 Z M 6.472656 41.550781 C 6.210938 41.550781 5.972656 41.652344 5.792969 41.820312 C 5.617188 41.984375 5.492188 42.207031 5.398438 42.445312 C 5.210938 42.921875 5.125 43.492188 5.035156 44.050781 C 4.945312 44.605469 4.855469 45.148438 4.710938 45.503906 C 4.679688 45.585938 4.640625 45.621094 4.605469 45.679688 C 4.703125 45.898438 4.800781 46.117188 4.90625 46.328125 C 5.054688 46.171875 5.167969 45.984375 5.253906 45.769531 C 5.441406 45.292969 5.527344 44.71875 5.617188 44.164062 C 5.707031 43.605469 5.796875 43.066406 5.941406 42.707031 C 6.011719 42.527344 6.09375 42.398438 6.175781 42.324219 C 6.257812 42.246094 6.339844 42.210938 6.472656 42.210938 C 6.609375 42.210938 6.6875 42.246094 6.769531 42.324219 C 6.851562 42.398438 6.933594 42.527344 7.003906 42.707031 C 7.148438 43.066406 7.238281 43.605469 7.328125 44.164062 C 7.417969 44.71875 7.503906 45.292969 7.691406 45.769531 C 7.785156 46.007812 7.910156 46.226562 8.089844 46.394531 C 8.265625 46.558594 8.503906 46.660156 8.765625 46.660156 C 9.023438 46.660156 9.265625 46.558594 9.441406 46.394531 C 9.621094 46.230469 9.742188 46.007812 9.835938 45.769531 C 10.023438 45.292969 10.113281 44.71875 10.203125 44.164062 C 10.292969 43.605469 10.382812 43.066406 10.523438 42.707031 C 10.597656 42.527344 10.675781 42.398438 10.761719 42.324219 C 10.84375 42.246094 10.921875 42.210938 11.058594 42.210938 C 11.191406 42.210938 11.273438 42.246094 11.355469 42.324219 C 11.4375 42.398438 11.515625 42.527344 11.589844 42.707031 C 11.730469 43.066406 11.824219 43.605469 11.910156 44.164062 C 12 44.71875 12.089844 45.292969 12.277344 45.769531 C 12.375 46.007812 12.492188 46.226562 12.671875 46.394531 C 12.851562 46.558594 13.089844 46.660156 13.347656 46.660156 C 13.609375 46.660156 13.847656 46.558594 14.027344 46.394531 C 14.207031 46.230469 14.328125 46.007812 14.421875 45.769531 C 14.613281 45.292969 14.699219 44.71875 14.785156 44.164062 C 14.875 43.605469 14.964844 43.066406 15.109375 42.707031 C 15.179688 42.527344 15.265625 42.398438 15.347656 42.324219 C 15.429688 42.246094 15.507812 42.210938 15.640625 42.210938 C 15.777344 42.210938 15.855469 42.246094 15.9375 42.324219 C 16.019531 42.398438 16.101562 42.527344 16.171875 42.707031 C 16.316406 43.066406 16.410156 43.605469 16.5 44.164062 C 16.589844 44.71875 16.675781 45.292969 16.863281 45.769531 C 16.957031 46.007812 17.078125 46.226562 17.257812 46.394531 C 17.4375 46.558594 17.671875 46.660156 17.933594 46.660156 C 18.191406 46.660156 18.433594 46.558594 18.609375 46.394531 C 18.789062 46.230469 18.910156 46.007812 19.007812 45.769531 C 19.195312 45.292969 19.28125 44.71875 19.371094 44.164062 C 19.460938 43.605469 19.554688 43.066406 19.695312 42.707031 C 19.765625 42.527344 19.847656 42.398438 19.929688 42.324219 C 20.011719 42.246094 20.089844 42.210938 20.226562 42.210938 C 20.359375 42.210938 20.441406 42.246094 20.523438 42.324219 C 20.605469 42.398438 20.683594 42.527344 20.757812 42.707031 C 20.898438 43.066406 20.992188 43.605469 21.082031 44.164062 C 21.171875 44.71875 21.257812 45.292969 21.445312 45.769531 C 21.542969 46.007812 21.664062 46.226562 21.84375 46.394531 C 22.019531 46.558594 22.261719 46.660156 22.519531 46.660156 C 22.78125 46.660156 23.015625 46.558594 23.195312 46.394531 C 23.375 46.230469 23.496094 46.007812 23.589844 45.769531 C 23.78125 45.292969 23.867188 44.71875 23.953125 44.164062 C 24.042969 43.605469 24.136719 43.066406 24.28125 42.707031 C 24.351562 42.527344 24.433594 42.398438 24.515625 42.324219 C 24.597656 42.246094 24.675781 42.210938 24.8125 42.210938 C 24.945312 42.210938 25.023438 42.246094 25.105469 42.324219 C 25.1875 42.398438 25.273438 42.527344 25.34375 42.707031 C 25.488281 43.066406 25.578125 43.605469 25.667969 44.164062 C 25.757812 44.71875 25.84375 45.292969 26.03125 45.769531 C 26.125 46.007812 26.246094 46.226562 26.425781 46.394531 C 26.605469 46.558594 26.84375 46.660156 27.105469 46.660156 C 27.363281 46.660156 27.601562 46.558594 27.78125 46.394531 C 27.960938 46.230469 28.078125 46.007812 28.175781 45.769531 C 28.363281 45.292969 28.453125 44.71875 28.542969 44.164062 C 28.628906 43.605469 28.722656 43.066406 28.863281 42.707031 C 28.933594 42.527344 29.015625 42.398438 29.097656 42.324219 C 29.179688 42.246094 29.261719 42.210938 29.394531 42.210938 C 29.53125 42.210938 29.609375 42.246094 29.691406 42.324219 C 29.777344 42.398438 29.855469 42.527344 29.929688 42.707031 C 30.070312 43.066406 30.160156 43.605469 30.25 44.164062 C 30.339844 44.71875 30.429688 45.292969 30.617188 45.769531 C 30.710938 46.007812 30.832031 46.226562 31.011719 46.394531 C 31.1875 46.558594 31.429688 46.660156 31.6875 46.660156 C 31.949219 46.660156 32.1875 46.558594 32.367188 46.394531 C 32.542969 46.230469 32.667969 46.007812 32.761719 45.769531 C 32.949219 45.292969 33.035156 44.71875 33.125 44.164062 C 33.214844 43.605469 33.304688 43.066406 33.449219 42.707031 C 33.519531 42.527344 33.601562 42.398438 33.683594 42.324219 C 33.765625 42.246094 33.84375 42.210938 33.980469 42.210938 C 34.113281 42.210938 34.195312 42.246094 34.277344 42.324219 C 34.359375 42.398438 34.441406 42.527344 34.511719 42.707031 C 34.65625 43.066406 34.746094 43.605469 34.835938 44.164062 C 34.925781 44.71875 35.011719 45.292969 35.203125 45.769531 C 35.296875 46.007812 35.417969 46.226562 35.597656 46.394531 C 35.777344 46.558594 36.011719 46.660156 36.273438 46.660156 C 36.53125 46.660156 36.769531 46.558594 36.949219 46.394531 C 37.128906 46.230469 37.25 46.007812 37.34375 45.769531 C 37.535156 45.292969 37.621094 44.71875 37.710938 44.164062 C 37.796875 43.605469 37.890625 43.066406 38.035156 42.707031 C 38.105469 42.527344 38.1875 42.398438 38.269531 42.324219 C 38.351562 42.246094 38.429688 42.210938 38.5625 42.210938 C 38.699219 42.210938 38.777344 42.246094 38.863281 42.324219 C 38.945312 42.398438 39.023438 42.527344 39.097656 42.707031 C 39.238281 43.066406 39.332031 43.605469 39.421875 44.164062 C 39.511719 44.71875 39.597656 45.292969 39.785156 45.769531 C 39.878906 46.007812 40.003906 46.226562 40.179688 46.394531 C 40.359375 46.558594 40.597656 46.660156 40.859375 46.660156 C 41.117188 46.660156 41.355469 46.558594 41.535156 46.394531 C 41.710938 46.230469 41.835938 46.007812 41.929688 45.769531 C 42.117188 45.292969 42.203125 44.71875 42.292969 44.164062 C 42.382812 43.605469 42.476562 43.066406 42.617188 42.707031 C 42.6875 42.527344 42.769531 42.398438 42.851562 42.324219 C 42.9375 42.246094 43.015625 42.210938 43.152344 42.210938 C 43.285156 42.210938 43.363281 42.246094 43.445312 42.324219 C 43.527344 42.398438 43.609375 42.527344 43.683594 42.707031 C 43.824219 43.066406 43.914062 43.605469 44.003906 44.164062 C 44.09375 44.71875 44.179688 45.292969 44.371094 45.769531 C 44.464844 46.007812 44.585938 46.226562 44.765625 46.394531 C 44.945312 46.558594 45.183594 46.660156 45.441406 46.660156 C 45.703125 46.660156 45.9375 46.558594 46.117188 46.394531 C 46.296875 46.230469 46.417969 46.007812 46.511719 45.769531 C 46.703125 45.292969 46.789062 44.71875 46.878906 44.164062 C 46.964844 43.605469 47.058594 43.066406 47.203125 42.707031 C 47.273438 42.527344 47.355469 42.398438 47.4375 42.324219 C 47.519531 42.246094 47.601562 42.210938 47.734375 42.210938 C 47.871094 42.210938 47.949219 42.246094 48.03125 42.324219 C 48.113281 42.398438 48.195312 42.527344 48.265625 42.707031 C 48.410156 43.066406 48.5 43.605469 48.589844 44.164062 C 48.679688 44.71875 48.765625 45.292969 48.953125 45.769531 C 49.046875 46.007812 49.171875 46.226562 49.347656 46.394531 C 49.527344 46.558594 49.765625 46.660156 50.027344 46.660156 C 50.285156 46.660156 50.523438 46.558594 50.703125 46.394531 C 50.882812 46.230469 51.003906 46.007812 51.097656 45.769531 C 51.285156 45.292969 51.375 44.71875 51.464844 44.164062 C 51.554688 43.605469 51.644531 43.066406 51.785156 42.707031 C 51.855469 42.527344 51.9375 42.398438 52.019531 42.324219 C 52.105469 42.246094 52.183594 42.210938 52.320312 42.210938 C 52.453125 42.210938 52.535156 42.246094 52.617188 42.324219 C 52.699219 42.398438 52.777344 42.527344 52.851562 42.707031 C 52.992188 43.066406 53.085938 43.605469 53.171875 44.164062 C 53.261719 44.71875 53.351562 45.292969 53.539062 45.769531 C 53.632812 46.007812 53.753906 46.226562 53.933594 46.394531 C 54.113281 46.558594 54.351562 46.660156 54.609375 46.660156 C 54.871094 46.660156 55.109375 46.558594 55.289062 46.394531 C 55.464844 46.230469 55.589844 46.007812 55.683594 45.769531 C 55.875 45.292969 55.957031 44.71875 56.046875 44.164062 C 56.136719 43.605469 56.226562 43.066406 56.371094 42.707031 C 56.441406 42.527344 56.523438 42.398438 56.609375 42.324219 C 56.691406 42.246094 56.769531 42.210938 56.902344 42.210938 C 57.039062 42.210938 57.117188 42.246094 57.199219 42.324219 C 57.28125 42.398438 57.363281 42.527344 57.433594 42.707031 C 57.578125 43.066406 57.671875 43.605469 57.761719 44.164062 C 57.847656 44.71875 57.9375 45.292969 58.125 45.769531 C 58.21875 46.007812 58.339844 46.226562 58.519531 46.394531 C 58.644531 46.511719 58.804688 46.578125 58.972656 46.617188 C 59.074219 46.410156 59.167969 46.1875 59.269531 45.972656 C 59.238281 45.976562 59.226562 46.003906 59.195312 46.003906 C 59.058594 46.003906 58.984375 45.96875 58.898438 45.890625 C 58.816406 45.8125 58.738281 45.683594 58.664062 45.503906 C 58.523438 45.144531 58.429688 44.605469 58.339844 44.050781 C 58.25 43.492188 58.164062 42.921875 57.976562 42.445312 C 57.882812 42.207031 57.757812 41.984375 57.578125 41.820312 C 57.402344 41.652344 57.164062 41.550781 56.902344 41.550781 C 56.644531 41.550781 56.40625 41.652344 56.226562 41.820312 C 56.050781 41.984375 55.925781 42.207031 55.832031 42.445312 C 55.644531 42.921875 55.558594 43.492188 55.46875 44.050781 C 55.378906 44.605469 55.285156 45.144531 55.144531 45.503906 C 55.070312 45.683594 54.992188 45.8125 54.90625 45.890625 C 54.824219 45.96875 54.746094 46.003906 54.609375 46.003906 C 54.476562 46.003906 54.394531 45.96875 54.3125 45.890625 C 54.230469 45.8125 54.152344 45.683594 54.078125 45.503906 C 53.9375 45.144531 53.84375 44.605469 53.757812 44.050781 C 53.667969 43.492188 53.578125 42.921875 53.390625 42.445312 C 53.296875 42.207031 53.175781 41.984375 52.996094 41.820312 C 52.816406 41.652344 52.578125 41.550781 52.320312 41.550781 C 52.058594 41.550781 51.820312 41.652344 51.640625 41.820312 C 51.460938 41.984375 51.34375 42.207031 51.246094 42.445312 C 51.058594 42.921875 50.96875 43.492188 50.882812 44.050781 C 50.792969 44.605469 50.703125 45.144531 50.558594 45.503906 C 50.488281 45.683594 50.40625 45.8125 50.324219 45.890625 C 50.242188 45.96875 50.160156 46.003906 50.027344 46.003906 C 49.890625 46.003906 49.8125 45.96875 49.730469 45.890625 C 49.648438 45.8125 49.566406 45.683594 49.496094 45.503906 C 49.351562 45.144531 49.261719 44.605469 49.171875 44.050781 C 49.082031 43.492188 48.992188 42.921875 48.804688 42.445312 C 48.710938 42.207031 48.589844 41.984375 48.410156 41.820312 C 48.234375 41.652344 47.996094 41.550781 47.734375 41.550781 C 47.476562 41.550781 47.234375 41.652344 47.058594 41.820312 C 46.878906 41.984375 46.757812 42.207031 46.660156 42.445312 C 46.472656 42.921875 46.386719 43.492188 46.296875 44.050781 C 46.207031 44.605469 46.117188 45.144531 45.976562 45.503906 C 45.902344 45.683594 45.820312 45.8125 45.738281 45.890625 C 45.65625 45.96875 45.578125 46.003906 45.441406 46.003906 C 45.308594 46.003906 45.226562 45.96875 45.144531 45.890625 C 45.0625 45.8125 44.984375 45.683594 44.910156 45.503906 C 44.769531 45.144531 44.675781 44.605469 44.585938 44.050781 C 44.496094 43.492188 44.410156 42.921875 44.222656 42.445312 C 44.125 42.207031 44.003906 41.984375 43.824219 41.820312 C 43.648438 41.652344 43.410156 41.550781 43.152344 41.550781 C 42.890625 41.550781 42.652344 41.652344 42.472656 41.820312 C 42.292969 41.984375 42.171875 42.207031 42.078125 42.445312 C 41.886719 42.921875 41.800781 43.492188 41.714844 44.050781 C 41.625 44.605469 41.53125 45.144531 41.386719 45.503906 C 41.316406 45.683594 41.234375 45.8125 41.152344 45.890625 C 41.070312 45.96875 40.992188 46.003906 40.859375 46.003906 C 40.722656 46.003906 40.644531 45.96875 40.5625 45.890625 C 40.480469 45.8125 40.398438 45.683594 40.328125 45.503906 C 40.183594 45.144531 40.089844 44.605469 40 44.050781 C 39.910156 43.492188 39.824219 42.921875 39.636719 42.445312 C 39.542969 42.207031 39.421875 41.984375 39.242188 41.820312 C 39.0625 41.652344 38.824219 41.550781 38.5625 41.550781 C 38.304688 41.550781 38.066406 41.652344 37.890625 41.820312 C 37.710938 41.984375 37.589844 42.207031 37.492188 42.445312 C 37.304688 42.921875 37.21875 43.492188 37.128906 44.050781 C 37.039062 44.605469 36.945312 45.144531 36.804688 45.503906 C 36.734375 45.683594 36.652344 45.8125 36.570312 45.890625 C 36.488281 45.96875 36.40625 46.003906 36.273438 46.003906 C 36.136719 46.003906 36.058594 45.96875 35.976562 45.890625 C 35.894531 45.8125 35.8125 45.683594 35.738281 45.503906 C 35.597656 45.144531 35.507812 44.605469 35.417969 44.050781 C 35.328125 43.492188 35.242188 42.921875 35.054688 42.445312 C 34.957031 42.207031 34.835938 41.984375 34.65625 41.820312 C 34.480469 41.652344 34.238281 41.550781 33.980469 41.550781 C 33.71875 41.550781 33.480469 41.652344 33.300781 41.820312 C 33.125 41.984375 33.003906 42.207031 32.910156 42.445312 C 32.71875 42.921875 32.632812 43.492188 32.542969 44.050781 C 32.453125 44.605469 32.363281 45.144531 32.21875 45.503906 C 32.148438 45.683594 32.066406 45.8125 31.984375 45.890625 C 31.902344 45.96875 31.824219 46.003906 31.6875 46.003906 C 31.554688 46.003906 31.472656 45.96875 31.390625 45.890625 C 31.308594 45.8125 31.226562 45.683594 31.15625 45.503906 C 31.011719 45.144531 30.921875 44.605469 30.832031 44.050781 C 30.742188 43.492188 30.65625 42.921875 30.464844 42.445312 C 30.371094 42.207031 30.253906 41.984375 30.074219 41.820312 C 29.894531 41.652344 29.65625 41.550781 29.394531 41.550781 C 29.136719 41.550781 28.898438 41.652344 28.71875 41.820312 C 28.539062 41.984375 28.417969 42.207031 28.324219 42.445312 C 28.132812 42.921875 28.046875 43.492188 27.957031 44.050781 C 27.871094 44.605469 27.777344 45.144531 27.636719 45.503906 C 27.566406 45.683594 27.484375 45.8125 27.402344 45.890625 C 27.320312 45.96875 27.238281 46.003906 27.105469 46.003906 C 26.96875 46.003906 26.890625 45.96875 26.808594 45.890625 C 26.722656 45.8125 26.644531 45.683594 26.570312 45.503906 C 26.429688 45.144531 26.335938 44.605469 26.246094 44.050781 C 26.15625 43.492188 26.070312 42.921875 25.882812 42.445312 C 25.789062 42.207031 25.664062 41.984375 25.488281 41.820312 C 25.308594 41.652344 25.070312 41.550781 24.8125 41.550781 C 24.550781 41.550781 24.3125 41.652344 24.132812 41.820312 C 23.957031 41.984375 23.832031 42.207031 23.738281 42.445312 C 23.550781 42.921875 23.464844 43.492188 23.375 44.050781 C 23.285156 44.605469 23.191406 45.144531 23.050781 45.503906 C 22.980469 45.683594 22.898438 45.8125 22.816406 45.890625 C 22.730469 45.96875 22.65625 46.003906 22.519531 46.003906 C 22.386719 46.003906 22.304688 45.96875 22.222656 45.890625 C 22.140625 45.8125 22.058594 45.683594 21.988281 45.503906 C 21.84375 45.144531 21.753906 44.605469 21.664062 44.050781 C 21.574219 43.492188 21.488281 42.921875 21.296875 42.445312 C 21.203125 42.207031 21.082031 41.984375 20.902344 41.820312 C 20.722656 41.652344 20.484375 41.550781 20.226562 41.550781 C 19.964844 41.550781 19.730469 41.652344 19.550781 41.820312 C 19.371094 41.984375 19.25 42.207031 19.15625 42.445312 C 18.964844 42.921875 18.878906 43.492188 18.789062 44.050781 C 18.703125 44.605469 18.609375 45.144531 18.464844 45.503906 C 18.394531 45.683594 18.3125 45.8125 18.230469 45.890625 C 18.148438 45.96875 18.066406 46.003906 17.933594 46.003906 C 17.796875 46.003906 17.722656 45.96875 17.636719 45.890625 C 17.554688 45.8125 17.472656 45.683594 17.402344 45.503906 C 17.257812 45.144531 17.167969 44.605469 17.078125 44.050781 C 16.988281 43.492188 16.902344 42.921875 16.714844 42.445312 C 16.621094 42.207031 16.496094 41.984375 16.320312 41.820312 C 16.140625 41.652344 15.902344 41.550781 15.640625 41.550781 C 15.382812 41.550781 15.144531 41.652344 14.964844 41.820312 C 14.789062 41.984375 14.664062 42.207031 14.570312 42.445312 C 14.382812 42.921875 14.296875 43.492188 14.207031 44.050781 C 14.117188 44.605469 14.023438 45.144531 13.882812 45.503906 C 13.8125 45.683594 13.730469 45.8125 13.648438 45.890625 C 13.5625 45.96875 13.484375 46.003906 13.347656 46.003906 C 13.214844 46.003906 13.132812 45.96875 13.050781 45.890625 C 12.96875 45.8125 12.890625 45.683594 12.816406 45.503906 C 12.675781 45.144531 12.585938 44.605469 12.496094 44.050781 C 12.40625 43.492188 12.320312 42.921875 12.128906 42.445312 C 12.035156 42.207031 11.914062 41.984375 11.734375 41.820312 C 11.554688 41.652344 11.316406 41.550781 11.058594 41.550781 C 10.796875 41.550781 10.558594 41.652344 10.378906 41.820312 C 10.203125 41.984375 10.082031 42.207031 9.988281 42.445312 C 9.796875 42.921875 9.710938 43.492188 9.621094 44.050781 C 9.53125 44.605469 9.441406 45.144531 9.296875 45.503906 C 9.226562 45.683594 9.144531 45.8125 9.0625 45.890625 C 8.980469 45.96875 8.898438 46.003906 8.765625 46.003906 C 8.628906 46.003906 8.550781 45.96875 8.46875 45.890625 C 8.386719 45.8125 8.304688 45.683594 8.234375 45.503906 C 8.089844 45.144531 8 44.605469 7.910156 44.050781 C 7.820312 43.492188 7.730469 42.921875 7.542969 42.445312 C 7.449219 42.207031 7.328125 41.984375 7.148438 41.820312 C 6.96875 41.652344 6.734375 41.550781 6.472656 41.550781 Z M 60.90625 41.75 C 60.875 41.777344 60.832031 41.789062 60.800781 41.820312 C 60.625 41.984375 60.5 42.207031 60.40625 42.445312 C 60.21875 42.921875 60.132812 43.492188 60.042969 44.050781 C 60.03125 44.117188 60.015625 44.183594 60.007812 44.253906 C 60.335938 43.4375 60.636719 42.601562 60.90625 41.75 Z M 60.90625 41.75 "/></g></svg>
