<svg xmlns="http://www.w3.org/2000/svg" xmlns:xlink="http://www.w3.org/1999/xlink" width="64" height="64" viewBox="0 0 64 64" version="1.1"><defs><linearGradient id="linear0" x1="0%" x2="100%" y1="0%" y2="100%"><stop offset="0%" style="stop-color:#e5ff00; stop-opacity:1"/><stop offset="50%" style="stop-color:#0073ff; stop-opacity:1"/><stop offset="100%" style="stop-color:#ff0000; stop-opacity:1"/></linearGradient></defs><g id="surface1"><path style=" stroke:none;fill-rule:nonzero;fill:url(#linear0);" d="M 32.71875 5.910156 C 22.496094 6.175781 12.195312 11.148438 6.394531 19.550781 C 2.433594 25.421875 1.769531 32.847656 2.609375 39.683594 C 4.445312 50.539062 13.707031 59.40625 24.550781 61.644531 C 32.378906 63.347656 40.789062 62.539062 48.171875 59.472656 C 55.121094 56.355469 60.335938 49.871094 61.765625 42.480469 C 63.5 35.269531 63.769531 27.199219 59.742188 20.640625 C 54.359375 11.273438 43.523438 5.789062 32.71875 5.910156 Z M 32.71875 5.910156 "/><path style=" stroke:none;fill-rule:nonzero;fill:url(#linear0);" d="M 16.582031 1.234375 L 16.582031 1.238281 C 12.410156 1.300781 8.726562 3.746094 6.519531 6.722656 C 4.96875 8.882812 3.929688 11.382812 3.785156 13.945312 C 3.8125 16.125 4.359375 18.332031 5.441406 20.296875 C 7.082031 22.511719 9.609375 24.390625 12.605469 24.96875 C 15.085938 25.363281 17.730469 25.023438 19.890625 23.851562 C 25.222656 21.257812 28.039062 15.71875 27.683594 10.496094 C 27.507812 8.050781 26.785156 5.359375 24.453125 3.792969 C 22.449219 2.40625 19.964844 1.550781 17.445312 1.277344 C 17.15625 1.257812 16.867188 1.246094 16.582031 1.234375 Z M 49.320312 3.230469 C 47.484375 3.3125 45.5625 3.695312 44.203125 4.882812 C 42.296875 6.507812 41.558594 8.890625 41.011719 11.125 C 40.214844 14.386719 41.453125 17.921875 44.117188 20.230469 C 46.359375 22.300781 49.683594 23.558594 52.910156 22.996094 C 55.34375 22.578125 57.769531 21.441406 59.09375 19.507812 C 60.453125 17.0625 60.625 14.171875 60.035156 11.519531 C 59.550781 9.800781 58.707031 8.140625 57.523438 6.710938 C 57.273438 6.402344 57.003906 6.105469 56.714844 5.820312 C 55.285156 4.394531 53.246094 3.554688 51.136719 3.335938 C 50.53125 3.253906 49.921875 3.261719 49.320312 3.230469 Z M 49.320312 3.230469 "/></g></svg>
