<svg xmlns="http://www.w3.org/2000/svg" xmlns:xlink="http://www.w3.org/1999/xlink" width="64" height="64" viewBox="0 0 64 64" version="1.1"><defs><linearGradient id="linear0" x1="0%" x2="100%" y1="0%" y2="100%"><stop offset="0%" style="stop-color:#00b54e; stop-opacity:1"/><stop offset="100%" style="stop-color:#0073ff; stop-opacity:1"/></linearGradient></defs><g id="surface1"><path style=" stroke:none;fill-rule:nonzero;fill:url(#linear0);" d="M 32.0625 2.375 C 25.480469 2.382812 19.886719 7.472656 18.902344 14.351562 C 18.117188 14.195312 17.316406 14.117188 16.515625 14.113281 C 9.15625 14.113281 3.191406 20.417969 3.191406 28.195312 C 3.199219 34.171875 6.777344 39.492188 12.113281 41.46875 C 12.089844 41.738281 12.078125 42.007812 12.074219 42.277344 C 12.074219 47.464844 16.050781 51.667969 20.957031 51.667969 C 20.957031 54.015625 23.179688 56.363281 23.179688 56.363281 C 16.515625 56.363281 16.515625 61.054688 16.515625 61.054688 L 29.84375 61.054688 C 29.84375 61.054688 27.621094 56.363281 27.621094 54.015625 C 27.621094 50.707031 28.113281 48.464844 28.632812 46.988281 C 28.710938 46.839844 28.789062 46.691406 28.863281 46.542969 C 29.910156 46.824219 30.984375 46.96875 32.0625 46.972656 C 33.140625 46.96875 34.210938 46.824219 35.253906 46.546875 C 35.332031 46.691406 35.410156 46.835938 35.488281 46.976562 C 36.011719 48.457031 36.503906 50.699219 36.503906 54.015625 C 36.503906 56.363281 34.285156 61.054688 34.285156 61.054688 L 47.609375 61.054688 C 47.609375 61.054688 47.609375 56.363281 40.945312 56.363281 C 40.945312 56.363281 43.167969 54.015625 43.167969 51.667969 C 48.074219 51.667969 52.050781 47.464844 52.050781 42.277344 C 52.050781 42.007812 52.035156 41.742188 52.011719 41.472656 C 57.351562 39.496094 60.929688 34.175781 60.933594 28.195312 C 60.933594 20.417969 54.96875 14.113281 47.609375 14.113281 C 46.808594 14.113281 46.011719 14.191406 45.222656 14.347656 C 44.234375 7.46875 38.644531 2.382812 32.0625 2.375 Z M 32.0625 2.375 "/></g></svg>
