<svg xmlns="http://www.w3.org/2000/svg" xmlns:xlink="http://www.w3.org/1999/xlink" width="64" height="64" viewBox="0 0 64 64" version="1.1"><defs><linearGradient id="linear0" x1="0%" x2="100%" y1="0%" y2="100%"><stop offset="0%" style="stop-color:#e5ff00; stop-opacity:1"/><stop offset="50%" style="stop-color:#0073ff; stop-opacity:1"/><stop offset="100%" style="stop-color:#ff0000; stop-opacity:1"/></linearGradient></defs><g id="surface1"><path style=" stroke:none;fill-rule:nonzero;fill:url(#linear0);" d="M 27.589844 6.671875 L 25.277344 14.867188 L 35.675781 20.71875 C 38.425781 19.28125 38.402344 17.464844 46.074219 17.207031 C 47.960938 19.738281 48.476562 20.554688 49.539062 25.402344 L 55.316406 27.746094 L 57.628906 16.035156 L 50.695312 18.378906 L 50.695312 11.355469 L 41.453125 13.695312 L 39.144531 6.671875 L 32.210938 13.695312 Z M 22.96875 16.035156 C 20.65625 16.035156 16.035156 20.71875 16.035156 20.71875 C 17.375 23.554688 14.855469 24.511719 13.726562 25.402344 C 10.097656 28.261719 7.277344 29.992188 4.484375 32.429688 C 4.507812 33.710938 4.484375 34.769531 6.792969 34.769531 C 7.4375 34.746094 8.578125 33.5625 9.105469 33.597656 C 9.988281 33.527344 9.210938 35.785156 9.105469 37.113281 L 6.792969 37.113281 C 6 37.894531 8.585938 41.746094 9.105469 44.136719 L 12.570312 44.136719 C 12.765625 45.109375 13.789062 46.828125 14.882812 47.648438 C 15.507812 47.113281 15.539062 47.121094 16.035156 46.476562 C 18.625 49.242188 24.445312 46.671875 25.277344 46.476562 C 25.167969 48.332031 21.996094 50.597656 21.8125 51.160156 C 21.648438 51.785156 22.675781 53.226562 21.8125 54.671875 C 18.347656 59.097656 24.125 57.015625 24.125 57.015625 C 24.125 57.015625 24.730469 60.527344 26.433594 60.527344 C 27.589844 60.527344 29.53125 58.164062 32.210938 53.503906 C 32.183594 56.03125 35.539062 59.378906 37.988281 60.527344 C 38.90625 59.027344 39.546875 58 39.144531 53.503906 C 40.84375 55.703125 49.539062 57.015625 49.539062 57.015625 C 49.539062 57.015625 47.925781 53.152344 46.074219 49.992188 C 50.511719 50.566406 52.519531 53.761719 55.316406 55.84375 C 56.085938 47.296875 53.308594 43.292969 49.539062 39.453125 C 52.453125 39.644531 55.847656 41.222656 59.9375 39.453125 C 54.96875 26.035156 49.679688 26.855469 43.765625 30.085938 C 43.035156 29.738281 42.863281 29.484375 42.609375 27.746094 C 40.863281 28.34375 39.144531 28.914062 39.144531 28.914062 C 39.144531 26.199219 42.378906 21.28125 46.074219 21.890625 C 45.019531 15.335938 36.140625 22.390625 35.675781 23.0625 C 31.472656 20.722656 25.277344 16.035156 22.96875 16.035156 Z M 27.589844 27.746094 L 24.125 30.085938 C 22.703125 30.890625 23.410156 32.710938 21.8125 33.597656 C 20.402344 34.386719 19.226562 33.59375 18.347656 32.429688 L 16.035156 32.429688 C 16.808594 31.085938 17.914062 29.96875 18.347656 28.914062 L 18.347656 27.746094 Z M 11.414062 46.476562 C 9.726562 46.410156 8.597656 48.523438 9.105469 49.992188 L 10.261719 49.992188 C 9.777344 51.023438 9.949219 51.628906 10.261719 52.800781 C 11.632812 52.855469 12.238281 52.402344 13.03125 51.863281 L 13.03125 53.503906 C 13.070312 54.757812 13.421875 55.304688 13.726562 55.84375 C 15.273438 54.871094 16.035156 54.320312 17.191406 52.332031 C 17.257812 52.847656 17.335938 53.128906 18.347656 53.503906 L 19.503906 49.992188 C 18.683594 49.378906 17.222656 49.148438 16.035156 48.820312 C 13.726562 49.03125 12.894531 48.117188 11.414062 46.476562 Z M 11.414062 46.476562 "/></g></svg>
