<svg xmlns="http://www.w3.org/2000/svg" xmlns:xlink="http://www.w3.org/1999/xlink" width="64" height="64" viewBox="0 0 64 64" version="1.1"><defs><linearGradient id="linear0" x1="0%" x2="100%" y1="0%" y2="100%"><stop offset="0%" style="stop-color:#ae00ff; stop-opacity:1"/><stop offset="100%" style="stop-color:#0084ff; stop-opacity:1"/></linearGradient></defs><g id="surface1"><path style=" stroke:none;fill-rule:nonzero;fill:url(#linear0);" d="M 5.390625 5.152344 L 5.390625 19.925781 C 5.390625 21.09375 6.460938 22.035156 7.789062 22.035156 L 38.992188 22.035156 C 40.320312 22.035156 41.390625 21.09375 41.390625 19.925781 L 41.390625 5.152344 Z M 5.390625 5.152344 "/><path style=" stroke:none;fill-rule:nonzero;fill:url(#linear0);" d="M 30.554688 6.246094 L 30.554688 18.90625 C 30.554688 20.074219 31.621094 21.015625 32.953125 21.015625 L 49.75 21.015625 C 51.078125 21.015625 52.152344 20.074219 52.152344 18.90625 L 52.152344 6.246094 Z M 44.953125 8.355469 L 47.351562 8.355469 C 48.679688 8.355469 49.75 9.300781 49.75 10.46875 L 49.75 16.800781 C 49.75 17.96875 48.679688 18.90625 47.351562 18.90625 L 44.953125 18.90625 C 43.625 18.90625 42.550781 17.96875 42.550781 16.800781 L 42.550781 10.46875 C 42.550781 9.300781 43.625 8.355469 44.953125 8.355469 Z M 44.953125 8.355469 "/><path style=" stroke:none;fill-rule:nonzero;fill:url(#linear0);" d="M 27.390625 30.0625 L 27.390625 35.300781 L 31.277344 35.300781 L 35.171875 37.914062 L 35.171875 32.679688 L 31.277344 30.0625 Z M 39.070312 32.679688 L 39.070312 37.914062 L 35.171875 43.148438 L 42.957031 40.535156 L 42.957031 35.300781 Z M 19.605469 35.300781 L 15.710938 37.914062 L 19.605469 43.148438 L 15.710938 45.769531 L 19.605469 48.382812 L 27.390625 45.769531 L 23.496094 37.914062 Z M 42.957031 43.148438 L 35.171875 48.382812 L 31.277344 48.382812 L 23.496094 51.003906 L 23.496094 56.242188 L 19.605469 58.859375 L 11.824219 61.476562 L 50.738281 61.476562 L 42.957031 58.859375 L 39.070312 56.242188 L 39.070312 53.621094 L 41.148438 48.382812 L 42.957031 48.382812 Z M 42.957031 43.148438 "/></g></svg>
