<svg xmlns="http://www.w3.org/2000/svg" xmlns:xlink="http://www.w3.org/1999/xlink" width="64" height="64" viewBox="0 0 64 64" version="1.1"><defs><linearGradient id="linear0" x1="0%" x2="100%" y1="0%" y2="100%"><stop offset="0%" style="stop-color:#ff0000; stop-opacity:1"/><stop offset="50%" style="stop-color:#ffd000; stop-opacity:1"/><stop offset="100%" style="stop-color:#ff00bb; stop-opacity:1"/></linearGradient></defs><g id="surface1"><path style=" stroke:none;fill-rule:nonzero;fill:url(#linear0);" d="M 35.078125 1.679688 L 35.078125 9.546875 L 29.742188 9.546875 L 29.742188 1.679688 C 28.851562 1.75 27.960938 1.863281 27.078125 2.015625 L 27.078125 9.546875 L 21.742188 9.546875 L 21.742188 3.480469 C 20.835938 3.820312 19.945312 4.199219 19.078125 4.625 L 19.078125 9.542969 L 13.742188 9.542969 L 13.742188 7.902344 C 12.082031 9.179688 10.550781 10.621094 9.183594 12.210938 L 11.078125 12.210938 C 11.078125 20.210938 9.742188 24.210938 9.742188 32.210938 C 9.742188 40.210938 11.078125 44.210938 11.078125 52.210938 L 9.210938 52.210938 C 10.570312 53.789062 12.089844 55.222656 13.742188 56.492188 L 13.742188 54.878906 L 19.078125 54.878906 L 19.078125 59.785156 C 19.945312 60.207031 20.835938 60.585938 21.742188 60.921875 L 21.742188 54.882812 L 27.078125 54.882812 L 27.078125 62.390625 C 27.960938 62.550781 28.847656 62.671875 29.742188 62.753906 L 29.742188 54.886719 L 35.078125 54.886719 L 35.078125 62.753906 C 35.96875 62.679688 36.859375 62.566406 37.742188 62.417969 L 37.742188 54.882812 L 43.078125 54.882812 L 43.078125 60.949219 C 43.984375 60.613281 44.871094 60.230469 45.742188 59.808594 L 45.742188 54.886719 L 51.078125 54.886719 L 51.078125 56.527344 C 52.738281 55.253906 54.269531 53.808594 55.636719 52.222656 L 53.742188 52.222656 C 53.742188 44.222656 55.078125 40.222656 55.078125 32.222656 C 55.078125 24.222656 53.742188 20.222656 53.742188 12.222656 L 55.609375 12.222656 C 54.25 10.644531 52.730469 9.210938 51.078125 7.941406 L 51.078125 9.554688 L 45.742188 9.554688 L 45.742188 4.648438 C 44.871094 4.226562 43.984375 3.847656 43.078125 3.507812 L 43.078125 9.550781 L 37.742188 9.550781 L 37.742188 2.042969 C 36.859375 1.882812 35.96875 1.761719 35.078125 1.679688 Z M 13.742188 12.210938 L 19.078125 12.210938 C 19.078125 22.878906 15.078125 24.210938 15.078125 32.210938 C 15.078125 40.210938 19.078125 41.546875 19.078125 52.210938 L 13.742188 52.210938 C 13.742188 44.210938 12.410156 40.210938 12.410156 32.210938 C 12.410156 24.210938 13.742188 20.210938 13.742188 12.210938 Z M 21.742188 12.210938 L 27.078125 12.210938 C 27.078125 15.546875 25.078125 18.210938 23.742188 19.546875 L 24.410156 20.210938 L 27.078125 18.878906 C 28.410156 17.546875 29.742188 14.878906 29.742188 12.210938 L 35.078125 12.210938 C 35.078125 14.878906 36.410156 17.546875 37.742188 18.878906 L 40.410156 20.210938 L 41.078125 19.546875 C 39.742188 18.210938 37.742188 15.546875 37.742188 12.210938 L 43.078125 12.210938 C 43.078125 22.878906 47.078125 24.210938 47.078125 32.210938 C 47.078125 40.210938 43.078125 41.546875 43.078125 52.210938 L 37.742188 52.210938 C 37.742188 48.878906 39.742188 46.210938 41.078125 44.878906 L 40.410156 44.210938 L 37.742188 45.546875 C 36.410156 46.878906 35.078125 49.546875 35.078125 52.210938 L 29.742188 52.210938 C 29.742188 49.546875 28.410156 46.878906 27.078125 45.546875 L 24.410156 44.210938 L 23.742188 44.878906 C 25.078125 46.210938 27.078125 48.878906 27.078125 52.210938 L 21.742188 52.210938 C 21.742188 41.546875 17.742188 40.210938 17.742188 32.210938 C 17.742188 24.210938 21.742188 22.878906 21.742188 12.210938 Z M 45.742188 12.210938 L 51.078125 12.210938 C 51.078125 20.210938 52.410156 24.210938 52.410156 32.210938 C 52.410156 40.210938 51.078125 44.210938 51.078125 52.210938 L 45.742188 52.210938 C 45.742188 41.546875 49.742188 40.210938 49.742188 32.210938 C 49.742188 24.210938 45.742188 22.878906 45.742188 12.210938 Z M 5.742188 17.105469 C 3.132812 21.699219 1.757812 26.890625 1.742188 32.171875 C 1.757812 37.453125 3.132812 42.644531 5.742188 47.238281 Z M 59.078125 17.140625 L 59.078125 47.273438 C 61.683594 42.679688 63.0625 37.488281 63.078125 32.207031 C 63.0625 26.921875 61.683594 21.734375 59.078125 17.140625 Z M 59.078125 17.140625 "/></g></svg>
