<svg xmlns="http://www.w3.org/2000/svg" xmlns:xlink="http://www.w3.org/1999/xlink" width="64" height="64" viewBox="0 0 64 64" version="1.1"><defs><linearGradient id="linear0" x1="0%" x2="0%" y1="0%" y2="100%"><stop offset="0%" style="stop-color:#24dbdb; stop-opacity:1"/><stop offset="100%" style="stop-color:#174475; stop-opacity:1"/></linearGradient></defs><g id="surface1"><path style=" stroke:none;fill-rule:nonzero;fill:url(#linear0);" d="M 16.976562 48.019531 L 19.011719 37.59375 L 16.976562 32.375 C 16.976562 32.375 12.921875 29.617188 12.921875 27.164062 C 12.921875 21.945312 19.011719 19.179688 19.011719 14.121094 C 19.011719 6.296875 12.921875 3.691406 12.921875 3.691406 C 12.921875 3.691406 14.949219 8.902344 14.949219 14.121094 C 14.949219 20.277344 4.792969 16.726562 4.792969 27.164062 C 4.792969 37.59375 16.976562 48.019531 16.976562 48.019531 Z M 16.976562 48.019531 "/><path style=" stroke:none;fill-rule:nonzero;fill:url(#linear0);" d="M 29.160156 8.902344 L 27.132812 19.339844 L 25.105469 19.339844 L 21.042969 14.121094 L 23.070312 27.164062 L 33.226562 29.769531 L 43.378906 27.164062 L 45.40625 14.121094 L 41.34375 19.339844 L 39.316406 19.339844 L 37.289062 8.902344 L 35.253906 19.339844 L 31.195312 19.339844 Z M 29.160156 8.902344 "/><path style=" stroke:none;fill-rule:nonzero;fill:url(#linear0);" d="M 49.472656 48.019531 L 47.4375 37.59375 L 49.472656 32.375 C 49.472656 32.375 53.527344 29.617188 53.527344 27.164062 C 53.527344 21.945312 47.4375 19.179688 47.4375 14.121094 C 47.4375 6.296875 53.527344 3.691406 53.527344 3.691406 C 53.527344 3.691406 51.5 8.902344 51.5 14.121094 C 51.5 20.277344 61.65625 16.726562 61.65625 27.164062 C 61.65625 37.59375 49.472656 48.019531 49.472656 48.019531 Z M 49.472656 48.019531 "/><path style=" stroke:none;fill-rule:nonzero;fill:url(#linear0);" d="M 25.105469 19.339844 L 23.070312 29.769531 C 23.070312 29.769531 23.070312 34.988281 33.226562 34.988281 C 43.378906 34.988281 43.378906 29.769531 43.378906 29.769531 L 41.34375 19.339844 Z M 25.105469 19.339844 "/><path style=" stroke:none;fill-rule:nonzero;fill:url(#linear0);" d="M 21.042969 40.195312 C 21.042969 40.195312 21.042969 50.632812 25.105469 50.632812 C 31.195312 50.632812 31.195312 48.019531 31.195312 48.019531 Z M 45.40625 40.195312 L 35.253906 48.019531 C 35.253906 48.019531 35.253906 50.632812 41.34375 50.632812 C 45.40625 50.632812 45.40625 40.195312 45.40625 40.195312 Z M 33.226562 53.238281 L 31.195312 55.84375 L 35.253906 55.84375 Z M 33.226562 53.238281 "/><path style=" stroke:none;fill-rule:nonzero;fill:url(#linear0);" d="M 31.195312 21.945312 C 30.070312 21.945312 29.160156 23.113281 29.160156 24.550781 C 29.160156 27.164062 31.195312 29.769531 33.226562 32.375 C 35.253906 29.769531 37.289062 27.164062 37.289062 24.550781 C 37.289062 23.113281 36.378906 21.945312 35.253906 21.945312 C 34.136719 21.945312 33.226562 23.113281 33.226562 24.550781 C 33.226562 23.113281 32.316406 21.945312 31.195312 21.945312 Z M 31.195312 21.945312 "/></g></svg>
