<svg xmlns="http://www.w3.org/2000/svg" xmlns:xlink="http://www.w3.org/1999/xlink" width="64" height="64" viewBox="0 0 64 64" version="1.1"><defs><linearGradient id="linear0" x1="0%" x2="0%" y1="0%" y2="100%"><stop offset="0%" style="stop-color:#00b54e; stop-opacity:1"/><stop offset="50%" style="stop-color:#0073ff; stop-opacity:1"/><stop offset="100%" style="stop-color:#ffd000; stop-opacity:1"/></linearGradient></defs><g id="surface1"><path style=" stroke:none;fill-rule:nonzero;fill:url(#linear0);" d="M 25.046875 6.261719 C 31.390625 13.292969 28.054688 17.96875 21.378906 20.316406 C 24.703125 20.53125 25.121094 21.511719 26.453125 22.660156 C 30.128906 19.773438 33.863281 19.660156 38.0625 22.660156 C 40.046875 20.859375 43.417969 20.179688 44.726562 20.316406 C 41.101562 18.378906 36.789062 18.039062 35.285156 11.769531 C 37.925781 12.671875 40.507812 12.808594 42.253906 12.164062 C 38.65625 12.3125 36.433594 10.992188 34.71875 9.527344 L 34.71875 6.261719 Z M 25.046875 6.261719 "/><path style=" stroke:none;fill-rule:nonzero;fill:url(#linear0);" d="M 8.039062 29.6875 C 4.699219 32.03125 4.699219 34.375 4.699219 39.054688 L 8.039062 39.054688 L 10.875 31.28125 Z M 54.734375 29.6875 L 51.898438 31.28125 L 54.734375 39.054688 L 58.074219 39.054688 C 58.074219 34.375 58.074219 32.03125 54.734375 29.6875 Z M 54.734375 29.6875 "/><path style=" stroke:none;fill-rule:nonzero;fill:url(#linear0);" d="M 60.941406 35.847656 C 61.46875 44.601562 58.566406 52.066406 53.289062 58.652344 C 59.785156 52.914062 63.511719 46.472656 60.941406 35.847656 Z M 48.265625 38.980469 C 48.746094 47.578125 45.519531 55.25 42.480469 62.957031 C 48.140625 56.113281 50.140625 49.953125 48.265625 38.980469 Z M 4.796875 44.671875 C 5.71875 50.746094 4.6875 57.484375 13.605469 60.867188 C 8.976562 56.289062 6.1875 50.820312 4.796875 44.671875 Z M 18.339844 45.597656 C 15.328125 58.785156 23.382812 63.496094 25.320312 62.730469 C 20.140625 59.292969 18.285156 53.203125 18.339844 45.597656 Z M 18.339844 45.597656 "/><path style=" stroke:none;fill-rule:nonzero;fill:url(#linear0);" d="M 10.875 31.28125 C 9.273438 32.664062 8.039062 34.476562 8.039062 36.71875 L 8.039062 39.054688 L 24.714844 39.054688 Z M 51.910156 31.28125 L 38.0625 39.054688 L 54.742188 39.054688 L 54.742188 36.71875 C 54.742188 34.476562 53.515625 32.664062 51.910156 31.28125 Z M 61.410156 40.808594 C 58.914062 43.996094 54 45.535156 49.078125 46.910156 L 49.78125 48.734375 L 43.351562 50.207031 L 41.847656 47.996094 C 36.085938 48.722656 29.121094 48.273438 22.476562 48.140625 L 22.113281 50.503906 L 14.960938 49.378906 L 16.613281 47.210938 C 11.511719 45.988281 5.519531 44.195312 1.367188 41.40625 C 1.367188 48.429688 8.039062 57.800781 31.390625 57.800781 L 31.40625 54.9375 L 38.414062 54.101562 L 39.125 57.21875 C 56.609375 55.632812 61.289062 45.898438 61.410156 40.808594 Z M 61.410156 40.808594 "/><path style=" stroke:none;fill-rule:nonzero;fill:url(#linear0);" d="M 61.410156 40.828125 C 60.214844 42.347656 58.324219 43.519531 56.328125 44.449219 C 54.582031 48.550781 52.191406 52.417969 48.070312 55.460938 C 59.082031 52.152344 61.3125 45.007812 61.410156 40.828125 Z M 1.367188 41.40625 L 1.367188 42.96875 C 1.367188 46.085938 4.425781 51.472656 11.375 54.375 C 8.976562 51.890625 6.859375 49.398438 5.609375 46.550781 C 8.992188 47.191406 12.449219 47.65625 15.976562 48.03125 L 16.582031 47.210938 C 11.480469 45.988281 5.519531 44.195312 1.367188 41.40625 Z M 1.367188 41.40625 "/><path style=" stroke:none;fill-rule:nonzero;fill:url(#linear0);" d="M 29.871094 22.726562 C 28.230469 23.914062 26.988281 25.058594 26.089844 26.179688 L 28.554688 27.265625 C 29.6875 26.261719 30.929688 25.265625 32.6875 24.359375 Z M 14.003906 24.613281 C 13.378906 25.242188 12.925781 25.839844 12.636719 26.394531 L 13.886719 26.769531 C 14.292969 26.25 14.753906 25.734375 15.472656 25.222656 Z M 12.476562 26.777344 C 12.117188 27.632812 12.054688 28.40625 12.183594 29.089844 C 12.703125 28.429688 13.105469 27.765625 13.582031 27.113281 Z M 25.574219 26.96875 C 24.378906 28.714844 23.894531 30.320312 23.8125 31.808594 C 25.234375 30.53125 26.414062 29.222656 27.761719 27.9375 Z M 25.574219 26.96875 "/><path style=" stroke:none;fill-rule:nonzero;fill:url(#linear0);" d="M 41.0625 12.257812 C 40.554688 11.9375 40.449219 15.550781 38.0625 17.96875 C 39.78125 18 41.378906 18.644531 42.558594 17.675781 C 45.53125 22.289062 51.226562 21.761719 54.734375 22.660156 C 54.507812 21.042969 52.925781 20.1875 50.921875 17.476562 C 59.042969 17.839844 59.964844 15.054688 63.15625 13.488281 C 58.410156 12.097656 56.171875 8.59375 50.574219 9.355469 C 52.449219 7.570312 53.308594 3.808594 50.640625 1.574219 C 48.199219 3.335938 46.097656 3.34375 42.773438 8.074219 C 41.582031 7.148438 41.179688 5.765625 41.128906 4.1875 C 37.925781 7.480469 38.753906 10.007812 41.0625 12.257812 Z M 41.0625 12.257812 "/></g></svg>
