<svg xmlns="http://www.w3.org/2000/svg" xmlns:xlink="http://www.w3.org/1999/xlink" width="64" height="64" viewBox="0 0 64 64" version="1.1"><defs><linearGradient id="linear0" x1="0%" x2="100%" y1="0%" y2="100%"><stop offset="0%" style="stop-color:#ff0000; stop-opacity:1"/><stop offset="100%" style="stop-color:#6a00ff; stop-opacity:1"/></linearGradient></defs><g id="surface1"><path style=" stroke:none;fill-rule:nonzero;fill:url(#linear0);" d="M 8.4375 62.730469 C 6.4375 62.109375 6.25 62.09375 4.628906 60.09375 C 1.484375 56.207031 0.847656 51.691406 2.898438 47.488281 C 3.878906 45.46875 4.839844 44.632812 6.214844 44.613281 C 7.148438 44.597656 7.351562 44.707031 7.671875 45.429688 C 8.316406 46.871094 7.851562 47.308594 5.625 47.382812 C 3.882812 47.4375 3.6875 47.503906 3.214844 48.261719 C 2.117188 50 2.324219 54.234375 3.632812 56.632812 C 5.015625 59.183594 6.238281 60.304688 8.964844 61.175781 C 10.570312 61.703125 12.699219 61.949219 13.679688 61.363281 C 14.234375 61.027344 15.441406 59.488281 15.980469 57.65625 C 16.882812 54.59375 16.234375 54.578125 18.15625 52.207031 C 20.179688 49.703125 20.351562 49.84375 22.1875 48.785156 L 22.511719 48.597656 L 23.585938 45.109375 C 24.179688 43.183594 24.753906 41.34375 24.859375 41 C 24.96875 40.664062 25.402344 39.226562 25.824219 37.796875 C 26.246094 36.367188 26.675781 34.933594 26.789062 34.585938 C 27.3125 32.953125 28.308594 29.640625 28.472656 28.953125 C 28.984375 26.894531 31.695312 18.214844 32.378906 16.472656 C 33.574219 13.414062 35.527344 11.148438 38.574219 9.277344 C 39.964844 8.425781 41.304688 7.445312 41.523438 7.105469 C 41.957031 6.484375 41.953125 6.484375 40.113281 6.261719 C 34.539062 5.601562 29.992188 7.679688 26.476562 12.492188 C 24.289062 15.484375 22.640625 19.742188 21.957031 24.164062 C 21.78125 25.296875 21.476562 26.394531 21.285156 26.601562 C 20.976562 26.925781 20.949219 26.636719 21.089844 24.363281 C 21.257812 21.597656 21.882812 18.734375 22.761719 16.769531 C 25.132812 11.414062 28.734375 7.617188 33.15625 5.78125 C 34.542969 5.203125 35.367188 5.078125 37.847656 5.074219 C 39.703125 5.0625 41.292969 5.21875 41.976562 5.476562 L 43.113281 5.894531 L 45.59375 4.347656 C 46.964844 3.492188 49.109375 2.371094 50.363281 1.851562 C 52.285156 1.050781 52.992188 0.90625 55.03125 0.902344 C 59.675781 0.894531 62.402344 3.277344 63.039062 7.90625 C 63.265625 9.507812 63.121094 11.640625 62.765625 12.109375 C 62.421875 12.539062 62.089844 11.726562 62.191406 10.722656 C 62.34375 9.199219 61.9375 6.457031 61.382812 5.304688 C 60.339844 3.148438 57.992188 2.007812 55.015625 2.230469 C 51.359375 2.5 49.5625 3.464844 44.820312 7.742188 C 41.257812 10.949219 40.496094 11.820312 40.496094 12.566406 C 40.496094 12.878906 41.132812 15.21875 41.917969 17.765625 C 42.699219 20.3125 44.152344 25.050781 45.140625 28.316406 C 52.460938 52.414062 52.339844 52.101562 54.007812 53.71875 C 54.433594 54.132812 55.371094 54.65625 56.089844 54.886719 C 57.164062 55.226562 57.433594 55.449219 57.617188 56.132812 C 58.082031 57.90625 58.292969 57.867188 49.527344 57.867188 C 45.105469 57.867188 41.320312 57.78125 41.097656 57.679688 C 40.847656 57.558594 40.71875 57.113281 40.71875 56.359375 L 40.71875 55.21875 L 42.488281 54.90625 C 44.820312 54.488281 45.632812 53.988281 45.730469 52.894531 C 45.808594 52.046875 43.128906 42.25 42.464844 40.878906 C 42.191406 40.332031 41.90625 40.195312 41.003906 40.195312 C 40.042969 40.195312 39.789062 40.339844 39.128906 41.246094 C 37.953125 42.871094 36.082031 43.671875 32.566406 44.042969 C 30.980469 44.207031 30.039062 43.589844 29.03125 41.730469 C 28.664062 41.066406 28.304688 40.515625 28.222656 40.511719 C 27.925781 40.488281 25.738281 49.070312 25.46875 51.25 C 25.324219 52.480469 25.371094 52.734375 25.902344 53.398438 C 26.550781 54.226562 27.675781 54.714844 29.609375 55.011719 C 30.800781 55.1875 30.882812 55.261719 31.105469 56.28125 C 31.515625 58.160156 32.589844 57.730469 25.820312 57.730469 C 22.257812 57.730469 19.480469 57.855469 19.089844 58.042969 C 18.730469 58.210938 18.683594 58.128906 18.199219 58.660156 C 16.421875 60.609375 16.425781 60.601562 15.644531 61.050781 C 13.871094 62.058594 13.902344 62.242188 11.832031 62.742188 C 10.078125 63.167969 10.0625 63.183594 8.441406 62.679688 Z M 34.976562 41.34375 C 36.414062 39.351562 36.984375 37.328125 36.457031 36.082031 C 36.027344 35.058594 35.671875 34.917969 34.777344 35.382812 C 33.539062 36.03125 32.148438 39.089844 32.527344 40.332031 C 32.722656 40.980469 33.34375 41.246094 33.722656 40.847656 C 33.941406 40.621094 34.078125 40.621094 34.1875 40.847656 C 34.273438 41.027344 34.175781 41.238281 33.96875 41.316406 C 33.761719 41.398438 33.433594 41.527344 33.242188 41.609375 C 33.042969 41.683594 32.585938 41.28125 32.183594 40.664062 C 31.507812 39.621094 31.464844 39.601562 31.210938 40.199219 C 30.867188 41.019531 30.878906 42.171875 31.210938 42.628906 C 31.375 42.828125 32.007812 42.988281 32.628906 42.988281 C 33.691406 42.988281 33.832031 42.894531 34.949219 41.34375 Z M 38.050781 39.886719 C 38.707031 38.984375 39.492188 37.875 39.785156 37.421875 C 40.085938 36.96875 40.488281 36.597656 40.691406 36.597656 C 41.167969 36.597656 41.144531 36.066406 40.582031 34.28125 C 40.328125 33.460938 39.132812 29.609375 37.929688 25.746094 C 36.722656 21.855469 35.59375 18.527344 35.425781 18.339844 C 35.09375 17.988281 34.925781 18.480469 31.691406 29.140625 C 31.183594 30.816406 30.488281 33.125 30.140625 34.246094 C 29.800781 35.382812 29.519531 36.433594 29.519531 36.589844 C 29.519531 36.742188 29.980469 36.914062 30.542969 36.964844 C 31.332031 37.035156 31.617188 37.214844 31.800781 37.742188 C 31.929688 38.117188 32.089844 38.421875 32.160156 38.414062 C 32.230469 38.402344 32.605469 37.75 33.007812 36.964844 C 34.320312 34.359375 36.273438 33.886719 36.988281 36.011719 C 37.304688 36.980469 37.078125 38.164062 36.105469 40.617188 C 35.792969 41.410156 35.535156 42.132812 35.535156 42.226562 C 35.535156 42.695312 37.003906 41.335938 38.066406 39.882812 Z M 38.050781 39.886719 "/></g></svg>
