<svg xmlns="http://www.w3.org/2000/svg" xmlns:xlink="http://www.w3.org/1999/xlink" width="64" height="64" viewBox="0 0 64 64" version="1.1"><defs><linearGradient id="linear0" x1="0%" x2="0%" y1="0%" y2="100%"><stop offset="0%" style="stop-color:#00b54e; stop-opacity:1"/><stop offset="50%" style="stop-color:#0073ff; stop-opacity:1"/><stop offset="100%" style="stop-color:#ffd000; stop-opacity:1"/></linearGradient></defs><g id="surface1"><path style=" stroke:none;fill-rule:nonzero;fill:url(#linear0);" d="M 31.824219 26.988281 L 0.949219 42.804688 C 1.09375 43.195312 1.257812 43.570312 1.40625 43.953125 C 4.917969 49.734375 9.832031 53.339844 15.28125 53.339844 C 26.308594 53.339844 29.066406 40.160156 34.582031 40.160156 C 40.097656 40.160156 42.851562 53.339844 53.886719 53.339844 C 55.335938 53.339844 56.742188 53.074219 58.097656 52.59375 C 59.835938 49.601562 61.390625 46.335938 62.703125 42.804688 Z M 34.582031 53.339844 L 29.066406 62.121094 L 40.09375 62.121094 Z M 34.582031 53.339844 "/><path style=" stroke:none;fill-rule:nonzero;fill:url(#linear0);" d="M 16.007812 2.910156 C 9.546875 2.910156 4.308594 8.804688 4.308594 16.074219 C 4.308594 23.34375 9.546875 29.234375 16.007812 29.234375 C 22.46875 29.234375 27.707031 23.34375 27.707031 16.074219 C 27.707031 8.804688 22.46875 2.910156 16.007812 2.910156 Z M 48.769531 2.910156 C 42.304688 2.910156 37.066406 8.804688 37.066406 16.074219 C 37.066406 23.34375 42.304688 29.234375 48.769531 29.234375 C 55.230469 29.234375 60.46875 23.34375 60.46875 16.074219 C 60.46875 8.804688 55.230469 2.910156 48.769531 2.910156 Z M 48.769531 2.910156 "/></g></svg>
