<svg xmlns="http://www.w3.org/2000/svg" xmlns:xlink="http://www.w3.org/1999/xlink" width="64" height="64" viewBox="0 0 64 64" version="1.1"><defs><linearGradient id="linear0" x1="0%" x2="0%" y1="0%" y2="100%"><stop offset="0%" style="stop-color:#24dbdb; stop-opacity:1"/><stop offset="100%" style="stop-color:#174475; stop-opacity:1"/></linearGradient></defs><g id="surface1"><path style=" stroke:none;fill-rule:nonzero;fill:url(#linear0);" d="M 32.257812 2.804688 L 32.257812 15.144531 L 12.710938 15.144531 L 12.710938 25.015625 L 2.9375 25.015625 L 2.9375 39.820312 L 7.824219 39.820312 L 7.824219 29.949219 L 12.710938 29.949219 L 12.710938 52.160156 L 22.484375 52.160156 L 22.484375 57.09375 L 12.710938 57.09375 L 12.710938 62.03125 L 27.371094 62.03125 L 27.371094 52.160156 L 51.800781 52.160156 L 51.800781 49.691406 L 56.6875 49.691406 L 56.6875 59.5625 L 61.574219 59.5625 L 61.574219 44.757812 L 51.800781 44.757812 L 51.800781 37.351562 L 61.574219 37.351562 L 61.574219 22.546875 L 56.6875 22.546875 L 56.6875 32.417969 L 51.800781 32.417969 L 51.800781 2.804688 M 32.257812 2.804688 "/></g></svg>
