<svg xmlns="http://www.w3.org/2000/svg" xmlns:xlink="http://www.w3.org/1999/xlink" width="64" height="64" viewBox="0 0 64 64" version="1.1"><defs><linearGradient id="linear0" x1="0%" x2="100%" y1="0%" y2="100%"><stop offset="0%" style="stop-color:#ff0000; stop-opacity:1"/><stop offset="100%" style="stop-color:#6a00ff; stop-opacity:1"/></linearGradient></defs><g id="surface1"><path style=" stroke:none;fill-rule:nonzero;fill:url(#linear0);" d="M 12.421875 13.015625 C 7.933594 18.003906 5.433594 24.5625 5.421875 31.378906 C 5.421875 46.296875 17.125 58.394531 31.5625 58.394531 L 31.5625 52.605469 C 20.21875 52.605469 11.023438 43.101562 11.023438 31.378906 C 11.035156 26.027344 13.003906 20.871094 16.53125 16.953125 Z M 12.421875 13.015625 "/><path style=" stroke:none;fill-rule:nonzero;fill:url(#linear0);" d="M 50.6875 13.023438 L 46.597656 16.949219 C 50.125 20.871094 52.09375 26.027344 52.101562 31.378906 C 52.101562 43.101562 42.90625 52.605469 31.5625 52.605469 L 31.5625 58.394531 C 45.996094 58.394531 57.703125 46.296875 57.703125 31.378906 C 57.683594 24.566406 55.183594 18.011719 50.6875 13.023438 Z M 50.6875 13.023438 "/><path style=" stroke:none;fill-rule:nonzero;fill:url(#linear0);" d="M 22.222656 60.320312 C 22.222656 60.320312 22.222656 56.460938 25.960938 56.460938 L 27.824219 56.460938 C 29.695312 54.53125 25.960938 52.605469 25.960938 52.605469 L 24.09375 52.605469 L 24.09375 50.671875 L 22.222656 50.671875 C 22.222656 50.671875 20.359375 50.671875 22.222656 48.746094 C 24.09375 46.816406 25.960938 48.746094 25.960938 48.746094 L 31.5625 48.746094 L 29.695312 50.671875 L 33.425781 48.746094 L 33.425781 50.671875 L 37.164062 48.746094 L 37.164062 50.671875 L 39.027344 48.746094 L 39.027344 50.671875 L 40.898438 47.636719 L 40.898438 50.671875 C 40.898438 50.671875 35.296875 56.460938 31.5625 57.625 L 33.425781 58.394531 L 31.5625 60.320312 C 31.5625 60.320312 31.085938 58.394531 29.695312 58.394531 C 24.09375 58.394531 22.222656 60.320312 22.222656 60.320312 Z M 22.222656 60.320312 "/><path style=" stroke:none;fill-rule:nonzero;fill:url(#linear0);" d="M 31.5625 4.363281 C 24.296875 4.375 17.363281 7.507812 12.421875 13.015625 L 16.53125 16.953125 C 20.410156 12.628906 25.855469 10.164062 31.5625 10.152344 C 37.273438 10.160156 42.71875 12.625 46.597656 16.949219 L 50.6875 13.023438 C 45.753906 7.511719 38.824219 4.382812 31.5625 4.363281 Z M 31.5625 4.363281 "/><path style=" stroke:none;fill-rule:nonzero;fill:url(#linear0);" d="M 11.023438 21.730469 C 12.109375 23.664062 12.894531 21.84375 12.894531 23.664062 C 12.894531 25.589844 11.023438 27.519531 11.023438 27.519531 C 11.023438 27.519531 14.070312 27.382812 14.757812 25.589844 C 15.496094 23.664062 14.757812 21.730469 14.757812 21.730469 L 16.625 21.730469 L 18.496094 19.800781 L 20.359375 19.800781 L 18.496094 17.875 L 20.359375 15.941406 L 20.359375 14.015625 L 18.496094 15.941406 L 16.625 14.015625 L 16.625 10.152344 L 18.496094 10.152344 L 16.625 6.296875 C 16.625 6.296875 14.757812 7.320312 12.894531 9.253906 C 11.023438 8.226562 7.292969 12.085938 7.292969 12.085938 L 7.292969 15.941406 C 7.292969 15.941406 6.300781 17.875 5.421875 17.875 C 4.539062 17.875 3.554688 15.941406 3.554688 15.941406 L 3.554688 17.875 C 3.554688 18.851562 5.421875 19.800781 5.421875 19.800781 L 3.554688 19.800781 C 3.554688 19.800781 3.554688 20.917969 5.421875 21.730469 C 3.554688 22.742188 3.554688 27.519531 3.554688 27.519531 L 5.421875 25.589844 C 7.292969 23.664062 9.15625 25.589844 11.023438 21.730469 Z M 11.023438 21.730469 "/><path style=" stroke:none;fill-rule:nonzero;fill:url(#linear0);" d="M 52.101562 29.453125 L 48.363281 25.589844 L 50.230469 25.589844 L 48.363281 21.730469 L 46.5 19.800781 L 44.628906 19.800781 L 44.628906 17.875 L 42.761719 17.875 L 42.761719 15.941406 L 39.027344 14.015625 L 40.898438 12.085938 L 39.027344 12.085938 L 42.761719 10.152344 L 42.761719 4.363281 L 44.628906 8.226562 L 44.628906 4.363281 L 50.230469 10.152344 L 50.230469 6.296875 L 52.101562 10.152344 L 53.964844 8.226562 L 53.964844 10.152344 L 55.832031 10.152344 L 55.832031 14.015625 L 57.703125 12.085938 L 57.703125 21.730469 L 59.566406 21.730469 L 59.566406 27.519531 L 55.832031 27.519531 L 57.703125 25.589844 L 55.832031 25.589844 L 56.632812 23.664062 L 52.101562 19.800781 L 53.964844 23.664062 L 52.101562 23.664062 L 53.964844 25.589844 L 52.101562 25.589844 L 52.101562 27.519531 L 53.964844 27.519531 Z M 52.101562 29.453125 "/></g></svg>
