<svg xmlns="http://www.w3.org/2000/svg" xmlns:xlink="http://www.w3.org/1999/xlink" width="64" height="64" viewBox="0 0 64 64" version="1.1"><defs><linearGradient id="linear0" x1="0%" x2="0%" y1="0%" y2="100%"><stop offset="0%" style="stop-color:#00b54e; stop-opacity:1"/><stop offset="50%" style="stop-color:#ffd000; stop-opacity:1"/><stop offset="100%" style="stop-color:#ff00bb; stop-opacity:1"/></linearGradient></defs><g id="surface1"><path style=" stroke:none;fill-rule:nonzero;fill:url(#linear0);" d="M 32.347656 5.082031 C 18.699219 5.082031 7.542969 17.554688 7.542969 32.804688 C 7.542969 48.0625 18.703125 60.527344 32.347656 60.527344 C 45.996094 60.527344 57.144531 48.058594 57.144531 32.804688 C 57.144531 17.550781 45.992188 5.082031 32.347656 5.082031 Z M 32.347656 14.6875 C 41.351562 14.6875 48.554688 22.742188 48.554688 32.808594 C 48.554688 42.875 41.351562 50.925781 32.347656 50.925781 C 23.34375 50.925781 16.136719 42.875 16.136719 32.808594 C 16.136719 22.742188 23.339844 14.6875 32.347656 14.6875 Z M 32.347656 14.6875 "/><path style=" stroke:none;fill-rule:nonzero;fill:url(#linear0);" d="M 1.34375 28.1875 L 63.347656 28.1875 L 63.347656 37.429688 L 1.34375 37.429688 M 1.34375 28.1875 "/></g></svg>
