<svg xmlns="http://www.w3.org/2000/svg" xmlns:xlink="http://www.w3.org/1999/xlink" width="64" height="64" viewBox="0 0 64 64" version="1.1"><defs><linearGradient id="linear0" x1="0%" x2="100%" y1="0%" y2="100%"><stop offset="0%" style="stop-color:#6a00ff; stop-opacity:1"/><stop offset="50%" style="stop-color:#e0dd02; stop-opacity:1"/><stop offset="100%" style="stop-color:#00b54e; stop-opacity:1"/></linearGradient></defs><g id="surface1"><path style=" stroke:none;fill-rule:nonzero;fill:url(#linear0);" d="M 4.546875 3.886719 L 4.546875 11.308594 L 7.742188 11.308594 L 7.742188 14.863281 C 9.222656 13.660156 11.300781 12.484375 14.136719 11.832031 L 14.136719 20.777344 L 7.191406 26.148438 L 4.546875 26.148438 L 4.546875 32.402344 L 14.136719 45.9375 L 17.332031 48.414062 L 7.742188 34.875 L 7.742188 28.625 L 10.390625 28.625 L 17.332031 23.25 L 17.332031 13.78125 L 23.726562 13.78125 L 23.726562 53.359375 L 20.527344 58.308594 L 33.316406 58.308594 L 37.148438 55.339844 L 36.511719 54.597656 L 36.511719 21.203125 C 36.511719 16.257812 42.90625 8.835938 55.691406 6.363281 L 9.339844 6.363281 C 6.144531 6.363281 4.546875 3.886719 4.546875 3.886719 Z M 46.652344 26.148438 L 49.300781 28.199219 L 49.300781 26.148438 Z M 46.652344 26.148438 "/></g></svg>
