<svg xmlns="http://www.w3.org/2000/svg" xmlns:xlink="http://www.w3.org/1999/xlink" width="64" height="64" viewBox="0 0 64 64" version="1.1"><defs><linearGradient id="linear0" x1="0%" x2="0%" y1="0%" y2="100%"><stop offset="0%" style="stop-color:#00b54e; stop-opacity:1"/><stop offset="50%" style="stop-color:#0073ff; stop-opacity:1"/><stop offset="100%" style="stop-color:#ffd000; stop-opacity:1"/></linearGradient></defs><g id="surface1"><path style=" stroke:none;fill-rule:nonzero;fill:url(#linear0);" d="M 33.230469 3.886719 C 19.5625 3.886719 8.484375 14.328125 8.484375 27.207031 C 8.488281 29.464844 8.84375 31.710938 9.535156 33.875 C 7.363281 34.316406 5.078125 35.433594 3.792969 37.839844 C 1.859375 41.476562 2.875 45.8125 3.871094 49.476562 C 4.867188 53.136719 6.199219 56.121094 6.199219 56.121094 C 6.5 56.941406 7.261719 57.539062 8.171875 57.667969 C 9.085938 57.792969 9.996094 57.433594 10.539062 56.730469 C 11.082031 56.027344 11.164062 55.097656 10.75 54.320312 C 10.75 54.320312 9.546875 51.589844 8.652344 48.324219 C 7.761719 45.0625 7.535156 41.214844 8.207031 39.953125 C 8.867188 38.707031 9.996094 38.394531 11.472656 38.351562 C 13.410156 41.71875 16.199219 44.585938 19.589844 46.699219 L 16.003906 56.820312 C 15.570312 58.042969 16.273438 59.363281 17.570312 59.773438 C 18.867188 60.179688 20.269531 59.519531 20.703125 58.292969 L 24.042969 48.875 C 26.964844 49.980469 30.078125 50.550781 33.222656 50.554688 L 33.222656 57.550781 C 33.222656 58.839844 34.332031 59.882812 35.699219 59.882812 C 37.066406 59.882812 38.171875 58.839844 38.171875 57.550781 L 38.171875 50.066406 C 42.253906 49.277344 46.058594 47.527344 49.234375 44.980469 C 49.300781 45.011719 49.367188 45.03125 49.433594 45.0625 C 50.519531 45.578125 51.554688 46.214844 52.203125 46.8125 C 52.851562 47.410156 53.023438 47.835938 53.023438 48.222656 C 53.023438 48.5 52.761719 49.210938 52.03125 50.066406 C 51.296875 50.921875 50.191406 51.859375 49.035156 52.679688 C 46.757812 54.320312 44.433594 55.476562 44.433594 55.476562 C 43.222656 56.078125 42.761719 57.492188 43.398438 58.632812 C 44.035156 59.769531 45.535156 60.207031 46.746094 59.605469 C 46.746094 59.605469 49.367188 58.304688 52.039062 56.386719 C 53.375 55.425781 54.738281 54.304688 55.851562 53.007812 C 56.972656 51.699219 57.949219 50.160156 57.949219 48.226562 C 57.949219 46.285156 56.898438 44.65625 55.679688 43.515625 C 54.785156 42.671875 53.769531 42.046875 52.757812 41.492188 C 56.117188 37.417969 57.941406 32.40625 57.953125 27.246094 C 57.953125 14.367188 46.875 3.925781 33.210938 3.925781 Z M 33.230469 3.886719 "/></g></svg>
