<svg xmlns="http://www.w3.org/2000/svg" xmlns:xlink="http://www.w3.org/1999/xlink" width="64" height="64" viewBox="0 0 64 64" version="1.1"><defs><linearGradient id="linear0" x1="0%" x2="100%" y1="0%" y2="100%"><stop offset="0%" style="stop-color:#6a00ff; stop-opacity:1"/><stop offset="50%" style="stop-color:#e0dd02; stop-opacity:1"/><stop offset="100%" style="stop-color:#00b54e; stop-opacity:1"/></linearGradient></defs><g id="surface1"><path style=" stroke:none;fill-rule:nonzero;fill:url(#linear0);" d="M 31.851562 3.953125 C 31.054688 3.953125 30.296875 4.003906 29.535156 4.046875 L 29.535156 15.144531 L 20.261719 24.097656 L 20.226562 24.289062 C 25.410156 25.171875 27.214844 26.867188 27.214844 30.8125 C 27.214844 34.59375 22.289062 35.152344 17.949219 35.242188 L 17.941406 35.285156 L 8.308594 46.441406 C 12.421875 54.039062 19.808594 59.90625 31.851562 59.90625 C 52.71875 59.90625 59.675781 42.328125 59.675781 28.574219 C 59.675781 15.144531 50.402344 3.953125 31.851562 3.953125 Z M 27.214844 4.238281 C 11.777344 5.964844 4.03125 16.320312 4.03125 28.574219 C 4.03125 33.4375 4.921875 38.765625 6.96875 43.640625 L 15.621094 35.285156 C 11.757812 35.285156 8.667969 33.046875 8.667969 26.335938 C 8.667969 24.097656 14.484375 24.097656 17.941406 24.097656 L 27.214844 15.144531 Z M 45.765625 24.097656 C 49.21875 24.097656 55.039062 24.097656 55.039062 26.335938 C 55.039062 33.046875 51.945312 35.285156 48.082031 35.285156 C 43.445312 35.285156 36.488281 35.285156 36.488281 30.8125 C 36.488281 26.335938 38.808594 24.097656 45.765625 24.097656 Z M 45.765625 24.097656 "/></g></svg>
