<svg xmlns="http://www.w3.org/2000/svg" xmlns:xlink="http://www.w3.org/1999/xlink" width="64" height="64" viewBox="0 0 64 64" version="1.1"><defs><linearGradient id="linear0" x1="100%" x2="0%" y1="100%" y2="0%"><stop offset="0%" style="stop-color:#00b54e; stop-opacity:1"/><stop offset="100%" style="stop-color:#ff0000; stop-opacity:1"/></linearGradient></defs><g id="surface1"><path style=" stroke:none;fill-rule:nonzero;fill:url(#linear0);" d="M 32.347656 2.132812 C 25.042969 2.144531 18.011719 4.957031 12.65625 10.007812 L 39.585938 10.007812 L 36.117188 2.429688 C 34.871094 2.246094 33.609375 2.148438 32.347656 2.132812 Z M 38.441406 2.828125 L 50.347656 28.871094 L 55.992188 14.546875 C 51.78125 8.554688 45.523438 4.375 38.441406 2.828125 Z M 10.75 11.976562 C 9.160156 13.769531 7.796875 15.75 6.683594 17.882812 L 24.886719 17.882812 C 27.171875 16.597656 29.738281 15.917969 32.347656 15.914062 C 34.96875 15.914062 37.550781 16.589844 39.84375 17.882812 L 43.1875 17.882812 L 40.484375 11.976562 Z M 57.175781 16.414062 L 46.84375 43.046875 L 60.804688 37.390625 C 61.183594 35.503906 61.378906 33.585938 61.390625 31.660156 C 61.375 26.28125 59.921875 21.007812 57.175781 16.410156 Z M 5.765625 19.847656 C 4.417969 22.964844 3.605469 26.296875 3.375 29.691406 L 16.996094 29.691406 C 17.46875 25.882812 19.296875 22.382812 22.128906 19.847656 Z M 42.574219 19.847656 L 45.898438 23.785156 L 44.085938 19.847656 Z M 3.40625 33.628906 C 3.628906 37.023438 4.425781 40.351562 5.765625 43.472656 L 22.125 43.472656 C 19.292969 40.933594 17.472656 37.433594 17 33.628906 Z M 60.335938 39.539062 L 34.40625 50.058594 L 47.992188 56.5 C 54.019531 52.585938 58.414062 46.542969 60.332031 39.539062 Z M 20.769531 45.710938 L 25.488281 60.320312 C 27.730469 60.882812 30.035156 61.175781 32.347656 61.1875 C 37.109375 61.183594 41.800781 59.984375 46 57.703125 Z M 7.792969 47.40625 C 8.625 48.71875 9.554688 49.960938 10.578125 51.121094 C 11.050781 51.667969 11.546875 52.199219 12.058594 52.710938 C 12.101562 52.75 12.144531 52.789062 12.183594 52.828125 C 13.597656 54.214844 15.144531 55.453125 16.804688 56.523438 C 17.0625 56.691406 17.320312 56.855469 17.582031 57.011719 C 18.09375 57.328125 18.621094 57.625 19.152344 57.90625 C 19.179688 57.921875 19.207031 57.9375 19.238281 57.949219 C 19.484375 58.085938 19.738281 58.214844 19.988281 58.34375 C 20.296875 58.484375 20.609375 58.613281 20.917969 58.746094 C 21.078125 58.816406 21.234375 58.882812 21.394531 58.949219 C 22.011719 59.203125 22.628906 59.449219 23.265625 59.660156 L 19.945312 49.375 L 19.308594 47.40625 Z M 7.792969 47.40625 "/></g></svg>
