<svg xmlns="http://www.w3.org/2000/svg" xmlns:xlink="http://www.w3.org/1999/xlink" width="64" height="64" viewBox="0 0 64 64" version="1.1"><defs><linearGradient id="linear0" x1="0%" x2="0%" y1="0%" y2="100%"><stop offset="0%" style="stop-color:#24dbdb; stop-opacity:1"/><stop offset="100%" style="stop-color:#174475; stop-opacity:1"/></linearGradient></defs><g id="surface1"><path style=" stroke:none;fill-rule:nonzero;fill:url(#linear0);" d="M 32.230469 1.75 C 15.402344 1.75 1.765625 15.371094 1.765625 32.167969 C 1.765625 48.972656 15.402344 62.589844 32.230469 62.589844 C 49.054688 62.589844 62.695312 48.972656 62.695312 32.167969 C 62.695312 15.371094 49.054688 1.75 32.230469 1.75 M 32.230469 7.832031 C 36.292969 7.832031 37.257812 8.859375 39.632812 10.507812 C 39.714844 12.402344 37.523438 13.632812 37.648438 15.464844 C 38.773438 17.625 37.722656 14.695312 39.003906 14.28125 C 41.652344 11.714844 42.621094 17.074219 42.804688 19.15625 C 42.9375 20.707031 42.398438 22.859375 43.238281 24.035156 C 44.742188 26.140625 43.667969 29.472656 41.921875 31.25 C 41.210938 34.304688 40.453125 37.304688 38.082031 39.476562 C 37.4375 40.917969 40.113281 42.519531 37.929688 43.933594 C 35.5 45.832031 35.0625 50.191406 31.496094 50.21875 C 30.453125 50.625 27.4375 51.296875 30.140625 51.902344 C 32.070312 50.996094 34.574219 51.78125 35.320312 49.308594 C 36.175781 47.585938 36.761719 45.742188 38.894531 44.882812 C 41.695312 42.726562 37.691406 40.152344 39.953125 38.125 C 42.25 38.761719 43.335938 41.269531 45.585938 42.078125 C 46.726562 42.53125 47.6875 43.539062 47.785156 44.761719 C 45.699219 45.265625 43.230469 44.042969 41.570312 46.03125 C 40.835938 45.519531 38.964844 43.84375 40.3125 45.792969 C 40.816406 48.710938 42.503906 46.761719 44.007812 46.113281 C 45.359375 46.136719 46.710938 46.160156 48.0625 46.1875 C 48.601562 45.347656 49.34375 44.496094 48.351562 43.660156 C 47.230469 41.488281 51.097656 44.183594 51.894531 44.695312 C 53.582031 45.519531 54.855469 47.410156 54.898438 49.25 C 49.535156 56.359375 41.140625 60.558594 32.230469 60.558594 C 31.699219 60.558594 31.167969 60.523438 30.640625 60.484375 C 31.441406 57.941406 33.742188 55.125 34.070312 52.582031 C 33.914062 52.539062 33.773438 52.511719 33.640625 52.507812 C 31.644531 52.457031 31.992188 56.808594 30.214844 58.011719 C 29.871094 59.296875 29.035156 60.066406 28.128906 60.230469 C 27.71875 60.179688 27.316406 60.113281 26.90625 60.042969 C 26.316406 59.785156 25.769531 59.265625 25.402344 58.4375 C 24.15625 57.421875 23.019531 53.722656 21.84375 53.835938 C 21.765625 53.84375 21.683594 53.867188 21.605469 53.910156 C 21.9375 55.453125 25.539062 59.378906 22.863281 58.941406 C 15.925781 56.527344 10.199219 51.535156 6.867188 45 C 7.5625 44.671875 9.007812 45.964844 9.914062 45.792969 C 12.285156 49.488281 14.902344 53.238281 18.824219 55.421875 C 20.054688 56.449219 21.484375 56.640625 19.945312 54.949219 C 17.003906 52.398438 22.238281 53.089844 23.8125 52.046875 C 26.035156 50.582031 27.851562 48.734375 29.203125 46.527344 C 30.988281 46.445312 33.558594 44.144531 30.179688 44.480469 C 27.910156 45.488281 24.4375 39.355469 27.953125 40.851562 C 28.882812 39.761719 29.074219 43.304688 31.394531 42.472656 C 33.175781 42.972656 35.546875 38.789062 32.742188 40.90625 C 31.589844 41.304688 28.710938 42.222656 29.476562 39.910156 C 30.636719 39.683594 34.402344 39.535156 33.585938 38.667969 C 31.273438 38.835938 29.441406 37.914062 27.363281 39.402344 C 25.589844 36.910156 29.761719 38.875 30.628906 37.277344 C 31.90625 37.277344 35.863281 35.296875 32.082031 35.523438 C 30.128906 35.398438 29.566406 33.664062 31.910156 33.753906 C 32.164062 32.570312 32.058594 28.832031 30.980469 31.832031 C 30.632812 33.773438 28.015625 34.550781 29.328125 31.972656 C 28.300781 32.863281 28.238281 30.539062 27.246094 31.933594 C 27.328125 33.480469 29.328125 35.777344 27.457031 36.296875 C 27.566406 34.761719 27.355469 32.519531 26.28125 35.226562 C 25.023438 38.148438 24.890625 34.824219 24.832031 33.53125 C 27.609375 34.542969 25.285156 28.953125 23.082031 29.945312 C 21.867188 27.742188 25.089844 27.953125 26.136719 29.183594 C 27.300781 29.144531 28.628906 29.59375 29.679688 29.179688 C 30.988281 28.660156 33.550781 26.683594 30.613281 26.71875 C 28.542969 26.171875 27.019531 24.375 24.769531 24.765625 C 24.207031 23.835938 24.082031 21.941406 24.488281 20.726562 C 24.195312 19.363281 24.191406 17.121094 22.523438 17.050781 C 21.417969 15.535156 22.410156 14.113281 23.507812 16.261719 C 24.445312 16.9375 25.074219 20.640625 26.050781 19.53125 C 24.949219 17.753906 23.601562 15.171875 23.273438 13.449219 C 24.828125 10.972656 29.039062 12.53125 30.300781 11.171875 C 28.242188 10.308594 25.042969 11.109375 23.523438 11.304688 C 25.269531 8.890625 29.296875 7.824219 32.226562 7.824219 M 37.761719 26.542969 C 36.476562 26.621094 35.222656 27.351562 34.421875 26.609375 C 33.789062 28.324219 38.253906 31.667969 37.71875 28.742188 C 39.023438 28.554688 42.28125 26.371094 39.046875 26.761719 C 38.625 26.5625 38.191406 26.519531 37.761719 26.542969 Z M 35.773438 31.265625 C 35.378906 32.132812 37.359375 33.855469 35.667969 34.050781 C 35.457031 35.167969 38.753906 34.230469 36.453125 35.53125 C 34.761719 37.082031 37.269531 35.941406 37.328125 36.300781 C 35.296875 37.933594 36.898438 38.554688 37.964844 36.679688 C 38.511719 35.71875 40.910156 32.78125 38.34375 32.96875 C 37.113281 35.628906 37.40625 31.261719 35.773438 31.261719 Z M 35.773438 31.265625 "/></g></svg>
