<svg xmlns="http://www.w3.org/2000/svg" xmlns:xlink="http://www.w3.org/1999/xlink" width="64" height="64" viewBox="0 0 64 64" version="1.1"><defs><linearGradient id="linear0" x1="0%" x2="0%" y1="0%" y2="100%"><stop offset="0%" style="stop-color:#00b54e; stop-opacity:1"/><stop offset="50%" style="stop-color:#ffd000; stop-opacity:1"/><stop offset="100%" style="stop-color:#ff00bb; stop-opacity:1"/></linearGradient></defs><g id="surface1"><path style=" stroke:none;fill-rule:nonzero;fill:url(#linear0);" d="M 7.078125 13.304688 L 55.644531 1.65625 C 56.535156 1.4375 57.460938 1.914062 57.695312 2.714844 C 57.9375 3.519531 57.40625 4.339844 56.507812 4.554688 L 7.941406 16.199219 C 7.050781 16.417969 6.128906 15.941406 5.890625 15.140625 C 5.648438 14.34375 6.179688 13.515625 7.078125 13.304688 Z M 7.078125 13.304688 "/><path style=" stroke:none;fill-rule:nonzero;fill:url(#linear0);" d="M 7.078125 16.199219 L 55.644531 27.84375 C 56.535156 28.0625 57.460938 27.585938 57.695312 26.785156 C 57.9375 25.984375 57.40625 25.160156 56.507812 24.949219 L 7.941406 13.300781 C 7.050781 13.082031 6.128906 13.5625 5.890625 14.359375 C 5.648438 15.164062 6.179688 15.984375 7.078125 16.199219 Z M 7.078125 16.199219 "/><path style=" stroke:none;fill-rule:nonzero;fill:url(#linear0);" d="M 7.078125 36.59375 L 55.644531 24.941406 C 56.535156 24.726562 57.460938 25.199219 57.695312 26.003906 C 57.9375 26.800781 57.40625 27.628906 56.507812 27.839844 L 7.941406 39.488281 C 7.050781 39.703125 6.128906 39.230469 5.890625 38.425781 C 5.648438 37.628906 6.179688 36.804688 7.078125 36.59375 Z M 7.078125 36.59375 "/><path style=" stroke:none;fill-rule:nonzero;fill:url(#linear0);" d="M 7.078125 39.480469 L 55.644531 51.132812 C 56.542969 51.347656 57.460938 50.875 57.703125 50.070312 C 57.9375 49.269531 57.40625 48.449219 56.515625 48.230469 L 7.941406 36.585938 C 7.050781 36.371094 6.128906 36.84375 5.890625 37.648438 C 5.648438 38.445312 6.179688 39.269531 7.078125 39.480469 Z M 7.078125 39.480469 "/><path style=" stroke:none;fill-rule:nonzero;fill:url(#linear0);" d="M 7.078125 59.875 L 55.644531 48.230469 C 56.535156 48.015625 57.460938 48.488281 57.695312 49.292969 C 57.9375 50.089844 57.40625 50.910156 56.507812 51.125 L 7.941406 62.777344 C 7.050781 62.988281 6.128906 62.511719 5.890625 61.714844 C 5.648438 60.914062 6.179688 60.09375 7.078125 59.875 Z M 7.078125 59.875 "/></g></svg>
