<svg xmlns="http://www.w3.org/2000/svg" xmlns:xlink="http://www.w3.org/1999/xlink" width="64" height="64" viewBox="0 0 64 64" version="1.1"><defs><linearGradient id="linear0" x1="0%" x2="100%" y1="0%" y2="100%"><stop offset="0%" style="stop-color:#6a00ff; stop-opacity:1"/><stop offset="50%" style="stop-color:#e0dd02; stop-opacity:1"/><stop offset="100%" style="stop-color:#00b54e; stop-opacity:1"/></linearGradient></defs><g id="surface1"><path style=" stroke:none;fill-rule:nonzero;fill:url(#linear0);" d="M 21.105469 12.371094 C 20.078125 12.371094 19.25 13.191406 19.25 14.214844 L 19.25 18.59375 C 17.707031 18.984375 16.238281 19.59375 14.898438 20.398438 L 11.808594 17.308594 C 11.085938 16.585938 9.917969 16.585938 9.199219 17.308594 L 6.167969 20.339844 C 5.4375 21.066406 5.4375 22.230469 6.167969 22.949219 L 9.253906 26.039062 C 8.453125 27.382812 7.839844 28.851562 7.445312 30.402344 L 3.078125 30.402344 C 2.050781 30.402344 1.234375 31.226562 1.234375 32.25 L 1.234375 36.550781 C 1.234375 37.566406 2.050781 38.398438 3.078125 38.398438 L 7.445312 38.398438 C 7.839844 39.949219 8.453125 41.417969 9.253906 42.753906 L 6.167969 45.847656 C 5.4375 46.570312 5.4375 47.738281 6.167969 48.457031 L 9.199219 51.492188 C 9.917969 52.214844 11.085938 52.214844 11.808594 51.492188 L 14.898438 48.402344 C 16.238281 49.203125 17.707031 49.816406 19.25 50.207031 L 19.25 54.582031 C 19.25 55.601562 20.078125 56.429688 21.105469 56.429688 L 25.394531 56.429688 C 26.421875 56.429688 27.242188 55.601562 27.242188 54.582031 L 27.242188 50.207031 C 28.800781 49.816406 30.269531 49.203125 31.605469 48.402344 L 34.691406 51.492188 C 35.414062 52.214844 36.578125 52.214844 37.300781 51.492188 L 40.332031 48.457031 C 41.054688 47.734375 41.054688 46.570312 40.332031 45.847656 L 37.246094 42.753906 C 38.046875 41.417969 38.660156 39.949219 39.050781 38.398438 L 43.425781 38.398438 C 44.441406 38.398438 45.269531 37.566406 45.269531 36.550781 L 45.269531 32.25 C 45.269531 31.226562 44.441406 30.402344 43.425781 30.402344 L 39.050781 30.402344 C 38.660156 28.851562 38.046875 27.382812 37.246094 26.039062 L 40.332031 22.949219 C 41.054688 22.230469 41.054688 21.0625 40.332031 20.339844 L 37.300781 17.308594 C 36.578125 16.585938 35.410156 16.585938 34.691406 17.308594 L 31.605469 20.398438 C 30.269531 19.59375 28.800781 18.984375 27.242188 18.59375 L 27.242188 14.214844 C 27.242188 13.191406 26.421875 12.371094 25.394531 12.371094 Z M 23.253906 26.875 C 27.40625 26.875 30.777344 30.242188 30.777344 34.40625 C 30.777344 38.558594 27.40625 41.929688 23.253906 41.929688 C 19.09375 41.929688 15.726562 38.558594 15.726562 34.40625 C 15.726562 30.242188 19.09375 26.875 23.253906 26.875 Z M 23.253906 26.875 "/><path style=" stroke:none;fill-rule:nonzero;fill:url(#linear0);" d="M 59.476562 51.648438 C 59.6875 51.027344 59.855469 44.519531 59.835938 37.175781 C 59.804688 23.972656 59.816406 23.800781 60.886719 22.34375 C 63.46875 18.800781 63.65625 14.753906 61.386719 11.257812 C 60.667969 10.152344 58.6875 8.660156 58.375 8.988281 C 58.261719 9.101562 58.140625 10.886719 58.101562 12.9375 C 58.0625 14.996094 57.894531 16.832031 57.714844 17.015625 C 56.914062 17.859375 52.714844 17.902344 51.890625 17.074219 C 51.652344 16.832031 51.359375 14.820312 51.234375 12.597656 C 51.027344 8.792969 50.964844 8.578125 50.273438 8.984375 C 47.609375 10.53125 45.878906 14.023438 46.152344 17.308594 C 46.351562 19.695312 47.03125 21.269531 48.488281 22.738281 L 49.667969 23.914062 L 49.832031 37.75 L 49.988281 51.578125 L 51.210938 53.058594 C 52.230469 54.289062 52.675781 54.582031 53.882812 54.816406 C 56.398438 55.296875 58.671875 54.011719 59.476562 51.648438 Z M 55.886719 52.519531 C 53.871094 53.453125 51.828125 51.40625 52.644531 49.273438 C 53.054688 48.1875 53.261719 47.980469 54.203125 47.667969 C 56.574219 46.890625 58.492188 49.925781 56.902344 51.925781 C 56.8125 52.03125 56.363281 52.296875 55.886719 52.519531 Z M 55.886719 52.519531 "/></g></svg>
