<svg xmlns="http://www.w3.org/2000/svg" xmlns:xlink="http://www.w3.org/1999/xlink" width="64" height="64" viewBox="0 0 64 64" version="1.1"><defs><linearGradient id="linear0" x1="0%" x2="100%" y1="0%" y2="100%"><stop offset="0%" style="stop-color:#ff0000; stop-opacity:1"/><stop offset="50%" style="stop-color:#ffd000; stop-opacity:1"/><stop offset="100%" style="stop-color:#ff00bb; stop-opacity:1"/></linearGradient></defs><g id="surface1"><path style=" stroke:none;fill-rule:nonzero;fill:url(#linear0);" d="M 32.035156 11.003906 C 26.886719 11.003906 22.722656 14.679688 21.335938 19.601562 C 19.769531 18.734375 18.066406 18.117188 16.167969 18.117188 C 9.914062 18.117188 4.832031 23.425781 4.832031 29.96875 C 4.832031 31.347656 5.203125 32.605469 5.613281 33.828125 C 2.5 35.648438 0.300781 39.019531 0.300781 43.019531 C 0.300781 48.898438 4.871094 53.683594 10.5 53.683594 L 53.566406 53.683594 C 59.199219 53.683594 63.765625 48.894531 63.765625 43.019531 C 63.765625 39.019531 61.5625 35.648438 58.453125 33.828125 C 58.863281 32.605469 59.234375 31.347656 59.234375 29.96875 C 59.234375 23.425781 54.148438 18.117188 47.894531 18.117188 C 46 18.117188 44.300781 18.734375 42.726562 19.601562 C 41.347656 14.679688 37.175781 11.003906 32.027344 11.003906 "/></g></svg>
