<svg xmlns="http://www.w3.org/2000/svg" xmlns:xlink="http://www.w3.org/1999/xlink" width="64" height="64" viewBox="0 0 64 64" version="1.1"><defs><linearGradient id="linear0" x1="0%" x2="100%" y1="0%" y2="100%"><stop offset="0%" style="stop-color:#ff0000; stop-opacity:1"/><stop offset="50%" style="stop-color:#ffd000; stop-opacity:1"/><stop offset="100%" style="stop-color:#ff00bb; stop-opacity:1"/></linearGradient></defs><g id="surface1"><path style=" stroke:none;fill-rule:nonzero;fill:url(#linear0);" d="M 10.300781 7.246094 C 7.839844 7.246094 5.550781 7.964844 3.984375 9.5625 C 2.414062 11.160156 1.773438 13.382812 1.773438 15.707031 L 1.71875 46.730469 C 1.71875 46.734375 1.71875 46.734375 1.71875 46.734375 C 1.71875 49.03125 2.378906 51.273438 3.828125 53.042969 C 5.277344 54.808594 7.574219 55.980469 10.171875 56.058594 C 11.585938 56.101562 12.769531 54.996094 12.816406 53.59375 C 12.859375 52.191406 11.742188 51.019531 10.324219 50.976562 C 9.074219 50.941406 8.394531 50.53125 7.824219 49.839844 C 7.253906 49.148438 6.863281 48.058594 6.863281 46.738281 L 6.863281 46.734375 L 6.917969 15.710938 C 6.917969 15.710938 6.917969 15.710938 6.917969 15.707031 C 6.917969 14.261719 7.261719 13.523438 7.667969 13.105469 C 8.085938 12.683594 8.773438 12.328125 10.300781 12.328125 L 54.160156 12.328125 C 55.367188 12.328125 56.160156 12.675781 56.679688 13.171875 C 57.203125 13.664062 57.578125 14.390625 57.578125 15.707031 L 57.578125 46.734375 C 57.578125 48.359375 57.1875 49.453125 56.714844 50.035156 C 56.242188 50.613281 55.664062 50.976562 54.160156 50.976562 L 18.214844 50.976562 C 16.796875 50.976562 15.644531 52.109375 15.644531 53.519531 C 15.644531 54.921875 16.796875 56.058594 18.214844 56.058594 L 54.160156 56.058594 C 56.816406 56.058594 59.238281 55.039062 60.714844 53.230469 C 62.195312 51.417969 62.722656 49.121094 62.722656 46.734375 L 62.722656 15.707031 C 62.722656 13.273438 61.847656 11.035156 60.246094 9.511719 C 58.648438 7.988281 56.445312 7.246094 54.160156 7.246094 Z M 38.484375 19.214844 C 37.941406 19.210938 37.410156 19.398438 36.996094 19.746094 C 36.027344 20.546875 35.902344 21.972656 36.710938 22.929688 L 41.914062 29.070312 L 36.710938 35.210938 C 35.902344 36.167969 36.027344 37.59375 36.996094 38.394531 C 37.960938 39.199219 39.402344 39.074219 40.210938 38.113281 L 44.898438 32.589844 L 49.585938 38.113281 C 50.398438 39.074219 51.835938 39.199219 52.804688 38.394531 C 53.773438 37.597656 53.898438 36.167969 53.089844 35.210938 L 47.882812 29.070312 L 53.089844 22.929688 C 53.898438 21.972656 53.773438 20.542969 52.804688 19.746094 C 52.371094 19.386719 51.824219 19.199219 51.265625 19.214844 C 50.617188 19.238281 50.003906 19.53125 49.585938 20.023438 L 44.898438 25.550781 L 40.210938 20.023438 C 39.78125 19.519531 39.148438 19.21875 38.484375 19.214844 Z M 12.449219 19.457031 C 11.183594 19.457031 10.164062 20.464844 10.164062 21.714844 C 10.160156 22.960938 11.183594 23.976562 12.449219 23.976562 L 17.050781 23.976562 L 17.050781 36.90625 C 17.050781 38.152344 18.074219 39.164062 19.335938 39.164062 C 20.597656 39.164062 21.621094 38.152344 21.621094 36.90625 L 21.621094 23.976562 L 26.402344 23.976562 C 27.667969 23.976562 28.6875 22.960938 28.6875 21.714844 C 28.6875 20.464844 27.667969 19.457031 26.402344 19.457031 Z M 26.300781 26.875 C 25.039062 26.875 24.015625 27.890625 24.015625 29.136719 L 24.015625 44.320312 C 24.015625 45.570312 25.039062 46.585938 26.300781 46.585938 L 35.667969 46.585938 C 36.933594 46.585938 37.953125 45.570312 37.953125 44.320312 C 37.953125 43.074219 36.933594 42.0625 35.667969 42.0625 L 28.582031 42.0625 L 28.582031 38.9375 L 33.277344 38.9375 C 34.542969 38.9375 35.5625 37.925781 35.5625 36.675781 C 35.5625 35.425781 34.542969 34.417969 33.277344 34.417969 L 28.582031 34.417969 L 28.582031 31.394531 L 35.667969 31.394531 C 36.933594 31.394531 37.957031 30.386719 37.957031 29.136719 C 37.957031 27.886719 36.933594 26.875 35.667969 26.875 Z M 26.300781 26.875 "/></g></svg>
