<svg xmlns="http://www.w3.org/2000/svg" xmlns:xlink="http://www.w3.org/1999/xlink" width="64" height="64" viewBox="0 0 64 64" version="1.1"><defs><linearGradient id="linear0" x1="0%" x2="100%" y1="0%" y2="100%"><stop offset="0%" style="stop-color:#00b54e; stop-opacity:1"/><stop offset="100%" style="stop-color:#0073ff; stop-opacity:1"/></linearGradient></defs><g id="surface1"><path style=" stroke:none;fill-rule:nonzero;fill:url(#linear0);" d="M 13.292969 3.898438 C 13.292969 3.898438 8.550781 6.25 8.550781 10.957031 L 8.550781 53.304688 C 8.550781 58.011719 3.808594 60.363281 3.808594 60.363281 L 6.652344 60.363281 C 6.652344 60.363281 9.734375 58.011719 10.207031 55.660156 L 14.949219 55.660156 C 14.476562 58.011719 10.921875 60.363281 10.921875 60.363281 L 13.292969 60.363281 C 13.292969 60.363281 18.035156 58.011719 18.035156 53.304688 L 18.035156 46.246094 L 25.269531 46.246094 C 25.191406 45.867188 25.148438 45.472656 25.148438 45.070312 C 25.148438 43.753906 25.601562 42.53125 26.359375 41.542969 L 18.035156 41.542969 L 18.035156 25.074219 L 20.40625 25.074219 L 20.40625 20.367188 L 18.035156 20.367188 L 18.035156 10.957031 C 18.035156 6.25 22.777344 3.898438 22.777344 3.898438 Z M 51.234375 3.898438 C 51.234375 3.898438 46.492188 6.25 46.492188 10.957031 L 46.492188 20.367188 L 44.117188 20.367188 L 44.117188 25.074219 L 46.492188 25.074219 L 46.492188 41.542969 L 37.003906 41.542969 L 37.003906 46.246094 L 46.492188 46.246094 L 46.492188 53.304688 C 46.492188 58.011719 41.746094 60.363281 41.746094 60.363281 L 44.589844 60.363281 C 44.589844 60.363281 47.675781 58.011719 48.148438 55.660156 L 52.890625 55.660156 C 52.417969 58.011719 48.863281 60.363281 48.863281 60.363281 L 51.234375 60.363281 C 51.234375 60.363281 55.976562 58.011719 55.976562 53.304688 L 55.976562 10.957031 C 55.976562 6.25 60.71875 3.898438 60.71875 3.898438 Z M 13.292969 6.25 L 17.441406 6.25 C 17.441406 6.25 15.664062 8.601562 15.664062 10.957031 L 10.921875 10.957031 C 10.921875 8.132812 13.292969 6.25 13.292969 6.25 Z M 51.234375 6.25 L 55.382812 6.25 C 55.382812 6.25 53.605469 8.601562 53.605469 10.957031 L 48.863281 10.957031 C 48.863281 8.132812 51.234375 6.25 51.234375 6.25 Z M 10.921875 13.308594 L 15.664062 13.308594 L 15.664062 18.015625 L 10.921875 18.015625 Z M 32.261719 13.308594 C 27.023438 13.308594 22.777344 17.523438 22.777344 22.71875 L 29.890625 22.71875 C 29.890625 21.421875 30.953125 20.367188 32.261719 20.367188 C 33.574219 20.367188 34.632812 21.421875 34.632812 22.71875 C 34.632812 25.074219 32.261719 26.25 27.519531 28.601562 L 27.519531 36.835938 L 34.632812 36.835938 L 34.632812 32.132812 C 39.375 29.777344 41.742188 27.007812 41.746094 22.71875 C 41.746094 17.523438 37.5 13.308594 32.261719 13.308594 Z M 48.863281 13.308594 L 53.605469 13.308594 L 53.605469 18.015625 L 48.863281 18.015625 Z M 10.921875 20.367188 L 15.664062 20.367188 L 15.664062 25.074219 L 10.921875 25.074219 Z M 48.863281 20.367188 L 53.605469 20.367188 L 53.605469 25.074219 L 48.863281 25.074219 Z M 10.921875 27.425781 L 15.664062 27.425781 L 15.664062 32.132812 L 10.921875 32.132812 Z M 48.863281 27.425781 L 53.605469 27.425781 L 53.605469 32.132812 L 48.863281 32.132812 Z M 10.921875 34.484375 L 15.664062 34.484375 L 15.664062 39.191406 L 10.921875 39.191406 Z M 48.863281 34.484375 L 53.605469 34.484375 L 53.605469 39.191406 L 48.863281 39.191406 Z M 10.921875 41.542969 L 15.664062 41.542969 L 15.664062 46.246094 L 10.921875 46.246094 Z M 31.078125 41.542969 C 29.113281 41.542969 27.519531 43.121094 27.519531 45.070312 C 27.519531 47.019531 29.113281 48.601562 31.078125 48.601562 C 33.042969 48.601562 34.632812 47.019531 34.632812 45.070312 C 34.632812 43.121094 33.042969 41.542969 31.078125 41.542969 Z M 48.863281 41.542969 L 53.605469 41.542969 L 53.605469 46.246094 L 48.863281 46.246094 Z M 10.921875 48.601562 L 15.664062 48.601562 L 15.664062 53.304688 L 10.921875 53.304688 Z M 48.863281 48.601562 L 53.605469 48.601562 L 53.605469 53.304688 L 48.863281 53.304688 Z M 48.863281 48.601562 "/></g></svg>
