<svg xmlns="http://www.w3.org/2000/svg" xmlns:xlink="http://www.w3.org/1999/xlink" width="64" height="64" viewBox="0 0 64 64" version="1.1"><defs><linearGradient id="linear0" x1="0%" x2="100%" y1="0%" y2="100%"><stop offset="0%" style="stop-color:#ff0000; stop-opacity:1"/><stop offset="50%" style="stop-color:#ffd000; stop-opacity:1"/><stop offset="100%" style="stop-color:#ff00bb; stop-opacity:1"/></linearGradient></defs><g id="surface1"><path style=" stroke:none;fill-rule:nonzero;fill:url(#linear0);" d="M 19.675781 3.5 L 19.675781 20.257812 L 2.714844 20.257812 L 2.714844 22.652344 L 19.675781 22.652344 L 19.675781 41.804688 L 2.714844 41.804688 L 2.714844 44.195312 L 19.675781 44.195312 L 19.675781 60.953125 L 22.097656 60.953125 L 22.097656 44.195312 L 41.480469 44.195312 L 41.480469 60.953125 L 43.902344 60.953125 L 43.902344 44.195312 L 60.863281 44.195312 L 60.863281 41.804688 L 43.902344 41.804688 L 43.902344 22.652344 L 60.863281 22.652344 L 60.863281 20.257812 L 43.902344 20.257812 L 43.902344 3.5 L 41.480469 3.5 L 41.480469 20.257812 L 22.097656 20.257812 L 22.097656 3.5 Z M 5.96875 5.070312 L 4.300781 6.71875 L 9.527344 11.878906 L 4.300781 17.039062 L 5.96875 18.6875 L 11.195312 13.527344 L 16.417969 18.6875 L 18.085938 17.039062 L 12.859375 11.878906 L 18.085938 6.71875 L 16.417969 5.070312 L 11.195312 10.234375 Z M 22.097656 22.652344 L 41.480469 22.652344 L 41.480469 41.804688 L 22.097656 41.804688 Z M 31.789062 25.046875 C 27.773438 25.046875 24.519531 28.261719 24.519531 32.226562 C 24.519531 36.195312 27.773438 39.410156 31.789062 39.410156 C 35.804688 39.410156 39.058594 36.195312 39.058594 32.226562 C 39.058594 28.261719 35.804688 25.046875 31.789062 25.046875 Z M 31.789062 27.441406 C 34.464844 27.441406 36.636719 29.582031 36.636719 32.226562 C 36.636719 34.871094 34.464844 37.015625 31.789062 37.015625 C 29.113281 37.015625 26.941406 34.871094 26.941406 32.226562 C 26.941406 29.582031 29.113281 27.441406 31.789062 27.441406 Z M 5.96875 45.765625 L 4.300781 47.414062 L 9.527344 52.574219 L 4.300781 57.738281 L 5.96875 59.382812 L 11.195312 54.222656 L 16.417969 59.382812 L 18.085938 57.738281 L 12.859375 52.574219 L 18.085938 47.414062 L 16.417969 45.765625 L 11.195312 50.929688 Z M 53.597656 46.589844 C 49.582031 46.589844 46.328125 49.804688 46.328125 53.773438 C 46.328125 57.738281 49.582031 60.953125 53.597656 60.953125 C 57.609375 60.953125 60.863281 57.738281 60.863281 53.773438 C 60.863281 49.804688 57.609375 46.589844 53.597656 46.589844 Z M 53.597656 48.984375 C 56.273438 48.984375 58.441406 51.125 58.441406 53.773438 C 58.441406 56.417969 56.273438 58.558594 53.597656 58.558594 C 50.917969 58.558594 48.75 56.417969 48.75 53.773438 C 48.75 51.125 50.917969 48.984375 53.597656 48.984375 Z M 53.597656 48.984375 "/></g></svg>
