<svg xmlns="http://www.w3.org/2000/svg" xmlns:xlink="http://www.w3.org/1999/xlink" width="64" height="64" viewBox="0 0 64 64" version="1.1"><defs><linearGradient id="linear0" x1="0%" x2="0%" y1="0%" y2="100%"><stop offset="0%" style="stop-color:#24dbdb; stop-opacity:1"/><stop offset="100%" style="stop-color:#174475; stop-opacity:1"/></linearGradient></defs><g id="surface1"><path style=" stroke:none;fill-rule:nonzero;fill:url(#linear0);" d="M 32.164062 1.675781 C 15.414062 1.675781 1.75 15.292969 1.75 31.976562 C 1.75 48.667969 15.414062 62.285156 32.164062 62.285156 C 48.914062 62.285156 62.582031 48.667969 62.582031 31.976562 C 62.582031 15.292969 48.914062 1.675781 32.164062 1.675781 M 32.164062 9.328125 C 44.777344 9.328125 54.875 19.433594 54.875 31.957031 C 54.875 44.484375 44.734375 54.585938 32.164062 54.585938 C 19.589844 54.585938 9.453125 44.484375 9.453125 31.957031 C 9.453125 19.433594 19.589844 9.328125 32.164062 9.328125 "/><path style=" stroke:none;fill-rule:nonzero;fill:url(#linear0);" d="M 32.347656 10.535156 C 23.699219 10.429688 15.375 16.125 12.257812 24.21875 C 9.097656 32.027344 11.167969 41.574219 17.269531 47.371094 C 23.179688 53.300781 32.671875 55.136719 40.417969 51.882812 C 48.265625 48.785156 53.792969 40.710938 53.773438 32.371094 C 53.96875 24.203125 49.042969 16.183594 41.605469 12.660156 C 38.714844 11.265625 35.5 10.535156 32.285156 10.535156 M 32.285156 11.445312 C 33.609375 11.378906 33.71875 11.171875 32.875 12.4375 C 30.988281 15.269531 32.226562 19.019531 32.660156 22.214844 C 32.925781 23.890625 30.097656 21.761719 29.277344 21.226562 C 27.230469 19.574219 25.050781 17.015625 25.792969 14.183594 C 26.867188 11.773438 29.988281 11.429688 32.28125 11.449219 M 35.59375 11.847656 C 40.910156 12.480469 45.804688 15.640625 48.925781 19.945312 C 46.421875 18.480469 43.625 20.535156 42.269531 22.621094 C 41.105469 23.910156 40.539062 26.699219 40.105469 27.558594 C 38.804688 25.1875 36.355469 23.542969 33.699219 23.140625 C 33.257812 19.886719 32.257812 16.425781 33.4375 13.207031 C 33.804688 12.363281 34.664062 11.796875 35.582031 11.832031 M 25.9375 12.445312 C 23.738281 14.378906 24.828125 17.691406 26.410156 19.621094 C 27.277344 21.128906 29.761719 22.53125 30.453125 23.199219 C 27.8125 23.707031 25.476562 25.535156 24.292969 27.945312 C 21.058594 27.359375 17.441406 27.253906 14.761719 25.132812 C 12.953125 23.445312 14.847656 21.09375 15.933594 19.605469 C 18.4375 16.273438 21.957031 13.671875 25.960938 12.445312 M 47.003906 20.3125 C 49.625 20.417969 50.964844 23.140625 51.671875 25.34375 C 51.878906 26.09375 52.835938 27.0625 51.328125 26.40625 C 48.339844 25.109375 45.144531 27.429688 42.410156 28.738281 C 41.09375 29.878906 40.6875 29.195312 41.066406 27.769531 C 41.632812 24.785156 43.226562 21.554688 46.230469 20.421875 L 46.617188 20.339844 L 47 20.304688 M 32.117188 23.882812 C 36.113281 23.726562 39.996094 27.003906 40.226562 31.039062 C 40.945312 35.496094 37.207031 39.902344 32.726562 40.050781 C 27.828125 40.464844 23.332031 35.632812 24.230469 30.773438 C 24.71875 26.925781 28.230469 23.824219 32.132812 23.867188 Z M 13.136719 24.242188 C 14.082031 26.867188 17.171875 27.496094 19.582031 28.070312 C 20.851562 28.683594 25.132812 27.996094 22.890625 29.980469 C 20.769531 32.21875 17.59375 34.035156 14.417969 33.425781 C 12.003906 32.808594 11.664062 29.886719 12.066406 27.835938 C 12.3125 26.613281 12.671875 25.410156 13.140625 24.238281 M 50.070312 27.035156 C 52.152344 26.914062 52.820312 29.214844 52.742188 30.898438 C 53.011719 35.488281 51.722656 40.179688 48.992188 43.90625 C 49.597656 41.058594 46.757812 39.027344 44.324219 38.417969 C 42.738281 37.726562 39.90625 38.078125 38.949219 37.945312 C 40.777344 35.957031 41.554688 33.125 41.074219 30.464844 C 43.90625 29.023438 46.773438 27.152344 50.046875 27.015625 M 23.457031 30.808594 C 23.074219 33.5625 24.125 36.429688 26.128906 38.347656 C 24.625 41.273438 23.433594 44.675781 20.621094 46.628906 C 18.890625 47.714844 17.273438 46.003906 16.316406 44.699219 C 13.484375 41.179688 11.820312 36.722656 11.804688 32.1875 C 13.003906 34.84375 16.488281 34.785156 18.804688 33.84375 C 20.550781 33.195312 22.171875 32.164062 23.433594 30.804688 M 40.574219 38.835938 C 43.292969 38.828125 46.566406 39.453125 47.980469 42.035156 C 48.851562 44.328125 47.019531 46.546875 45.304688 47.886719 C 44.378906 48.519531 43.371094 50.203125 43.445312 47.863281 C 43.554688 44.472656 40.097656 42.367188 37.878906 40.035156 C 36.1875 39.015625 40.058594 38.929688 40.574219 38.835938 M 26.746094 39.046875 C 28.734375 41.648438 29.539062 45.339844 28.453125 48.480469 C 27.671875 50.984375 24.683594 50.984375 22.695312 50.144531 C 21.679688 49.558594 19.539062 48.382812 19.460938 47.828125 C 22.234375 47.546875 23.707031 44.765625 24.96875 42.605469 C 25.609375 41.441406 26.171875 40.234375 26.746094 39.046875 M 36.445312 39.890625 C 38.71875 42.261719 41.570312 44.464844 42.507812 47.769531 C 42.976562 49.878906 40.652344 50.816406 39.042969 51.3125 C 34.875 52.78125 30.207031 52.898438 26 51.476562 C 28.90625 51.1875 29.980469 47.878906 29.824219 45.371094 C 30.003906 43.648438 28.8125 41.046875 28.65625 40.109375 C 31.105469 41.253906 34.054688 41.136719 36.425781 39.882812 "/></g></svg>
