<svg xmlns="http://www.w3.org/2000/svg" xmlns:xlink="http://www.w3.org/1999/xlink" width="64" height="64" viewBox="0 0 64 64" version="1.1"><defs><linearGradient id="linear0" x1="0%" x2="100%" y1="0%" y2="100%"><stop offset="0%" style="stop-color:#00b54e; stop-opacity:1"/><stop offset="100%" style="stop-color:#0073ff; stop-opacity:1"/></linearGradient></defs><g id="surface1"><path style=" stroke:none;fill-rule:nonzero;fill:url(#linear0);" d="M 24.125 22.390625 L 17.1875 24.714844 C 14.871094 31.6875 12.300781 36.175781 3.304688 40.992188 C 14.476562 40.992188 17.1875 38.664062 21.808594 31.6875 Z M 38.011719 22.390625 L 40.320312 31.6875 C 44.953125 38.664062 47.65625 40.992188 58.835938 40.992188 C 49.835938 36.175781 47.265625 31.6875 44.953125 24.714844 Z M 38.011719 22.390625 "/><path style=" stroke:none;fill-rule:nonzero;fill:url(#linear0);" d="M 7.546875 2.078125 C 4.976562 2.078125 2.917969 4.15625 2.917969 6.734375 L 2.917969 13.707031 C 3.050781 20.796875 8.171875 25.328125 14.492188 25.328125 L 21.433594 25.328125 L 21.433594 41.609375 C 21.433594 53.230469 30.683594 62.53125 39.941406 62.53125 C 46.882812 62.53125 50.355469 57.882812 52.667969 57.882812 C 53.824219 57.882812 54.289062 60.203125 56.136719 60.203125 C 57.296875 60.203125 58.449219 59.742188 58.449219 57.882812 C 58.449219 56.714844 56.136719 55.671875 56.136719 55.085938 C 56.136719 52.765625 56.136719 50.90625 53.824219 50.90625 C 51.507812 50.90625 53.824219 55.558594 49.195312 55.558594 C 43.414062 55.558594 39.941406 51.300781 39.941406 43.929688 L 39.941406 25.328125 L 53.824219 25.328125 C 56.398438 25.328125 58.449219 23.257812 58.449219 20.679688 L 58.449219 13.707031 C 58.601562 6.703125 53.199219 2.078125 46.882812 2.078125 Z M 7.546875 2.078125 "/><path style=" stroke:none;fill-rule:nonzero;fill:rgb(86.274511%,86.274511%,86.274511%);fill-opacity:1;" d="M 20.730469 8.027344 C 19.570312 8.027344 18.394531 8.945312 18.414062 11.511719 C 18.4375 14.578125 21.125 17.324219 23.042969 17.324219 C 24.203125 17.324219 25.355469 16.40625 25.355469 13.835938 C 25.355469 10.347656 22.648438 8.027344 20.730469 8.027344 Z M 39.238281 8.027344 C 37.324219 8.027344 34.613281 10.347656 34.613281 13.835938 C 34.613281 16.398438 35.765625 17.324219 36.925781 17.324219 C 38.84375 17.324219 41.53125 14.578125 41.558594 11.511719 C 41.570312 8.953125 40.398438 8.027344 39.238281 8.027344 Z M 39.238281 8.027344 "/></g></svg>
