<svg xmlns="http://www.w3.org/2000/svg" xmlns:xlink="http://www.w3.org/1999/xlink" width="64" height="64" viewBox="0 0 64 64" version="1.1"><defs><linearGradient id="linear0" x1="0%" x2="100%" y1="0%" y2="100%"><stop offset="0%" style="stop-color:#00b54e; stop-opacity:1"/><stop offset="100%" style="stop-color:#0073ff; stop-opacity:1"/></linearGradient></defs><g id="surface1"><path style=" stroke:none;fill-rule:nonzero;fill:url(#linear0);" d="M 13.070312 6.640625 C 11.726562 6.640625 10.644531 8.085938 10.644531 9.878906 C 10.644531 11.675781 11.726562 13.121094 13.070312 13.121094 L 17.925781 13.121094 L 17.925781 35.796875 C 17.925781 37.589844 19.011719 39.035156 20.355469 39.035156 C 21.699219 39.035156 22.78125 37.589844 22.78125 35.796875 L 22.78125 13.121094 L 25.648438 13.121094 C 25.164062 14.929688 25.074219 16.941406 25.460938 18.886719 C 26.3125 23.128906 29.226562 26.078125 32.503906 26.078125 C 33.613281 26.078125 34.5625 27.042969 34.851562 28.472656 C 35.136719 29.90625 34.679688 31.375 33.71875 32.101562 C 32.753906 32.84375 31.570312 32.636719 30.78125 31.589844 C 29.832031 30.328125 28.304688 30.328125 27.355469 31.589844 C 26.410156 32.855469 26.410156 34.894531 27.355469 36.15625 C 28.515625 37.707031 30.003906 38.644531 31.554688 38.917969 C 33.109375 39.191406 34.710938 38.800781 36.144531 37.703125 C 38.984375 35.511719 40.394531 30.996094 39.542969 26.753906 C 38.695312 22.511719 35.78125 19.5625 32.503906 19.5625 C 31.394531 19.5625 30.445312 18.597656 30.15625 17.164062 C 29.867188 15.734375 30.328125 14.261719 31.289062 13.535156 C 32.25 12.796875 33.433594 13.003906 34.226562 14.050781 C 35.175781 15.3125 36.703125 15.3125 37.648438 14.050781 C 38.597656 12.78125 38.597656 10.746094 37.648438 9.480469 C 36.488281 7.933594 35.003906 6.996094 33.449219 6.722656 C 33.132812 6.664062 32.5 6.625 32.5 6.625 Z M 13.070312 6.640625 "/><path style=" stroke:none;fill-rule:nonzero;fill:url(#linear0);" d="M 49.496094 4.410156 C 48.222656 4.410156 47.203125 5.664062 47.203125 7.226562 L 47.203125 10.039062 C 47.203125 11.601562 48.222656 12.855469 49.496094 12.855469 C 50.765625 12.855469 51.789062 11.601562 51.789062 10.039062 L 51.789062 7.226562 C 51.789062 5.664062 50.765625 4.410156 49.496094 4.410156 Z M 49.496094 18.488281 C 48.222656 18.488281 47.203125 19.742188 47.203125 21.300781 L 47.203125 24.117188 C 47.203125 25.675781 48.222656 26.933594 49.496094 26.933594 C 50.765625 26.933594 51.789062 25.675781 51.789062 24.117188 L 51.789062 21.300781 C 51.789062 19.742188 50.765625 18.488281 49.496094 18.488281 Z M 49.496094 32.5625 C 48.222656 32.5625 47.203125 33.820312 47.203125 35.378906 L 47.203125 38.195312 C 47.203125 39.753906 48.222656 41.011719 49.496094 41.011719 C 50.765625 41.011719 51.789062 39.753906 51.789062 38.195312 L 51.789062 35.378906 C 51.789062 33.820312 50.765625 32.5625 49.496094 32.5625 Z M 17.378906 43.824219 C 16.109375 43.824219 15.085938 45.082031 15.085938 46.640625 C 15.085938 48.199219 16.109375 49.457031 17.378906 49.457031 L 19.675781 49.457031 C 20.945312 49.457031 21.96875 48.199219 21.96875 46.640625 C 21.96875 45.082031 20.945312 43.824219 19.675781 43.824219 Z M 28.851562 43.824219 C 27.578125 43.824219 26.554688 45.082031 26.554688 46.640625 C 26.554688 48.199219 27.578125 49.457031 28.851562 49.457031 L 31.144531 49.457031 C 32.414062 49.457031 33.4375 48.199219 33.4375 46.640625 C 33.4375 45.082031 32.414062 43.824219 31.144531 43.824219 Z M 40.320312 43.824219 C 39.046875 43.824219 38.027344 45.082031 38.027344 46.640625 C 38.027344 48.199219 39.046875 49.457031 40.320312 49.457031 L 42.613281 49.457031 C 43.882812 49.457031 44.90625 48.199219 44.90625 46.640625 C 44.90625 45.082031 43.882812 43.824219 42.613281 43.824219 Z M 56.378906 43.824219 C 55.105469 43.824219 54.082031 45.082031 54.082031 46.640625 C 54.082031 48.199219 55.105469 49.457031 56.378906 49.457031 L 58.671875 49.457031 C 59.941406 49.457031 60.964844 48.199219 60.964844 46.640625 C 60.964844 45.082031 59.941406 43.824219 58.671875 43.824219 Z M 49.496094 52.269531 C 48.222656 52.269531 47.203125 53.527344 47.203125 55.085938 L 47.203125 57.902344 C 47.203125 59.460938 48.222656 60.71875 49.496094 60.71875 C 50.765625 60.71875 51.789062 59.460938 51.789062 57.902344 L 51.789062 55.085938 C 51.789062 53.527344 50.765625 52.269531 49.496094 52.269531 Z M 49.496094 52.269531 "/></g></svg>
