<svg xmlns="http://www.w3.org/2000/svg" xmlns:xlink="http://www.w3.org/1999/xlink" width="64" height="64" viewBox="0 0 64 64" version="1.1"><defs><linearGradient id="linear0" x1="0%" x2="100%" y1="0%" y2="100%"><stop offset="0%" style="stop-color:#e5ff00; stop-opacity:1"/><stop offset="50%" style="stop-color:#0073ff; stop-opacity:1"/><stop offset="100%" style="stop-color:#ff0000; stop-opacity:1"/></linearGradient></defs><g id="surface1"><path style=" stroke:none;fill-rule:nonzero;fill:url(#linear0);" d="M 56.664062 3.425781 C 53.347656 3.386719 43.890625 4.3125 37.257812 15.226562 C 33.519531 21.347656 36.472656 27.578125 39.503906 29.234375 L 45.929688 18.695312 C 49.429688 12.949219 54.359375 9.257812 54.359375 9.257812 C 54.359375 9.257812 53.460938 15.160156 49.96875 20.902344 L 43.546875 31.445312 C 46.582031 33.101562 53.960938 32.039062 57.464844 26.296875 C 65.636719 12.882812 57.859375 3.535156 57.859375 3.535156 C 57.859375 3.535156 57.425781 3.476562 56.660156 3.46875 Z M 26.070312 21.101562 C 9.722656 21.101562 5.054688 32.152344 5.054688 32.152344 C 5.054688 32.152344 9.722656 43.199219 26.070312 43.199219 C 33.519531 43.199219 37.746094 37.675781 37.746094 34.359375 L 24.902344 34.359375 C 17.898438 34.359375 12.058594 32.152344 12.058594 32.152344 C 12.058594 32.152344 17.898438 29.941406 24.902344 29.941406 L 37.746094 29.941406 C 37.746094 26.625 33.078125 21.101562 26.070312 21.101562 Z M 46.410156 32.152344 C 45.238281 32.195312 44.210938 32.441406 43.445312 32.851562 L 49.867188 43.394531 C 53.371094 49.136719 54.257812 55.039062 54.257812 55.039062 C 54.257812 55.039062 49.332031 51.347656 45.828125 45.601562 L 39.40625 35.0625 C 36.371094 36.722656 33.425781 42.953125 37.15625 49.070312 C 45.328125 62.484375 57.753906 60.78125 57.753906 60.78125 C 57.753906 60.78125 65.53125 51.414062 57.355469 38.023438 C 54.742188 33.714844 49.929688 32.035156 46.402344 32.167969 Z M 46.410156 32.152344 "/></g></svg>
