<svg xmlns="http://www.w3.org/2000/svg" xmlns:xlink="http://www.w3.org/1999/xlink" width="64" height="64" viewBox="0 0 64 64" version="1.1"><defs><linearGradient id="linear0" x1="0%" x2="100%" y1="0%" y2="100%"><stop offset="0%" style="stop-color:#00b54e; stop-opacity:1"/><stop offset="100%" style="stop-color:#0073ff; stop-opacity:1"/></linearGradient></defs><g id="surface1"><path style=" stroke:none;fill-rule:nonzero;fill:url(#linear0);" d="M 29.15625 5.132812 C 28.089844 5.132812 27.234375 6.035156 27.234375 7.15625 L 27.234375 12.023438 C 25.160156 12.589844 23.171875 13.460938 21.324219 14.605469 L 18.054688 11.164062 C 17.300781 10.371094 16.085938 10.371094 15.335938 11.164062 L 9.902344 16.886719 C 9.148438 17.679688 9.148438 18.960938 9.902344 19.753906 L 13.167969 23.195312 C 12.082031 25.140625 11.257812 27.234375 10.71875 29.421875 L 6.101562 29.421875 C 5.035156 29.421875 4.179688 30.324219 4.179688 31.445312 L 4.179688 39.539062 C 4.179688 40.660156 5.035156 41.5625 6.101562 41.5625 L 10.71875 41.5625 C 11.257812 43.75 12.082031 45.84375 13.167969 47.789062 L 9.902344 51.234375 C 9.148438 52.027344 9.148438 53.304688 9.902344 54.097656 L 15.335938 59.824219 C 16.085938 60.617188 17.300781 60.617188 18.054688 59.824219 L 21.324219 56.378906 C 23.171875 57.523438 25.160156 58.394531 27.234375 58.960938 L 38.761719 58.960938 C 40.835938 58.394531 42.824219 57.523438 44.671875 56.378906 L 47.9375 59.824219 C 48.691406 60.617188 49.90625 60.617188 50.660156 59.824219 L 56.09375 54.097656 C 56.847656 53.304688 56.847656 52.027344 56.09375 51.234375 L 52.824219 47.789062 C 53.914062 45.84375 54.738281 43.75 55.273438 41.5625 L 59.894531 41.5625 C 60.957031 41.5625 61.816406 40.660156 61.816406 39.539062 L 61.816406 31.445312 C 61.816406 30.324219 60.957031 29.421875 59.894531 29.421875 L 55.316406 29.421875 C 54.777344 27.222656 53.949219 25.117188 52.855469 23.164062 L 56.09375 19.753906 C 56.847656 18.960938 56.847656 17.679688 56.09375 16.886719 L 50.660156 11.164062 C 49.90625 10.371094 48.691406 10.371094 47.9375 11.164062 L 44.703125 14.574219 C 42.847656 13.421875 40.847656 12.546875 38.761719 11.980469 L 38.761719 7.160156 C 38.761719 6.039062 37.902344 5.132812 36.839844 5.132812 Z M 32.996094 19.300781 C 41.484375 19.300781 48.367188 26.550781 48.367188 35.492188 C 48.367188 44.433594 41.484375 51.683594 32.996094 51.683594 C 24.507812 51.683594 17.628906 44.433594 17.628906 35.492188 C 17.628906 26.550781 24.507812 19.300781 32.996094 19.300781 Z M 32.996094 19.300781 "/><path style=" stroke:none;fill-rule:nonzero;fill:url(#linear0);" d="M 32.140625 25 L 25.191406 29.78125 L 25.191406 57.261719 C 25.191406 59.652344 26.925781 63.238281 32.140625 63.238281 C 37.351562 63.238281 39.089844 59.652344 39.089844 57.261719 L 39.089844 29.78125 Z M 32.140625 25 "/><path style=" stroke:none;fill-rule:nonzero;fill:url(#linear0);" d="M 42.082031 23.074219 C 42.082031 28.183594 37.5 32.324219 31.851562 32.324219 C 26.203125 32.324219 21.625 28.183594 21.625 23.074219 C 21.625 17.964844 26.203125 13.824219 31.851562 13.824219 C 37.5 13.824219 42.082031 17.964844 42.082031 23.074219 Z M 42.082031 23.074219 "/></g></svg>
