<svg xmlns="http://www.w3.org/2000/svg" xmlns:xlink="http://www.w3.org/1999/xlink" width="64" height="64" viewBox="0 0 64 64" version="1.1"><defs><linearGradient id="linear0" x1="0%" x2="0%" y1="0%" y2="100%"><stop offset="0%" style="stop-color:#00b54e; stop-opacity:1"/><stop offset="50%" style="stop-color:#ffd000; stop-opacity:1"/><stop offset="100%" style="stop-color:#ff00bb; stop-opacity:1"/></linearGradient></defs><g id="surface1"><path style=" stroke:none;fill-rule:evenodd;fill:url(#linear0);" d="M 47.828125 23.1875 C 54.675781 30.492188 54.675781 42.339844 47.828125 49.652344 C 40.980469 56.957031 29.878906 56.957031 23.03125 49.652344 C 16.179688 42.339844 16.179688 30.492188 23.03125 23.1875 C 29.878906 15.878906 40.980469 15.878906 47.828125 23.1875 Z M 47.828125 23.1875 "/><path style=" stroke:none;fill-rule:nonzero;fill:url(#linear0);" d="M 2.554688 45.035156 L 22.835938 23.398438 C 24.082031 22.0625 26.109375 22.0625 27.359375 23.398438 L 28 24.082031 C 29.25 25.417969 29.25 27.574219 28 28.910156 L 7.722656 50.546875 C 6.476562 51.878906 4.453125 51.878906 3.203125 50.546875 L 2.554688 49.859375 C 1.3125 48.527344 1.3125 46.367188 2.554688 45.035156 Z M 2.554688 45.035156 "/><path style=" stroke:none;fill-rule:nonzero;fill:url(#linear0);" d="M 45.433594 4.585938 L 52.871094 34.210938 C 53.324219 36.011719 52.292969 37.871094 50.574219 38.363281 L 49.75 38.601562 C 48.03125 39.089844 46.265625 38.03125 45.8125 36.226562 L 38.375 6.605469 C 37.925781 4.804688 38.953125 2.945312 40.675781 2.449219 L 41.496094 2.21875 C 43.21875 1.722656 44.984375 2.789062 45.433594 4.585938 Z M 45.433594 4.585938 "/><path style=" stroke:none;fill-rule:nonzero;fill:url(#linear0);" d="M 59.007812 62.445312 L 31.375 54.542969 C 29.648438 54.046875 28.617188 52.1875 29.074219 50.386719 L 29.324219 49.382812 C 29.777344 47.578125 31.539062 46.519531 33.265625 47.007812 L 60.902344 54.910156 C 62.621094 55.40625 63.652344 57.265625 63.199219 59.066406 L 62.945312 60.070312 C 62.496094 61.875 60.730469 62.933594 59.007812 62.445312 Z M 59.007812 62.445312 "/></g></svg>
