<svg xmlns="http://www.w3.org/2000/svg" xmlns:xlink="http://www.w3.org/1999/xlink" width="64" height="64" viewBox="0 0 64 64" version="1.1"><defs><linearGradient id="linear0" x1="0%" x2="100%" y1="0%" y2="100%"><stop offset="0%" style="stop-color:#ff0000; stop-opacity:1"/><stop offset="100%" style="stop-color:#6a00ff; stop-opacity:1"/></linearGradient></defs><g id="surface1"><path style=" stroke:none;fill-rule:nonzero;fill:url(#linear0);" d="M 32.105469 3.15625 C 16.503906 3.15625 3.859375 16.214844 3.859375 32.324219 C 3.859375 48.433594 16.503906 61.492188 32.105469 61.492188 C 47.707031 61.492188 60.355469 48.433594 60.355469 32.324219 C 60.355469 16.214844 47.707031 3.15625 32.105469 3.15625 Z M 32.105469 7.046875 C 45.628906 7.046875 56.589844 18.363281 56.589844 32.324219 C 56.589844 46.285156 45.628906 57.601562 32.105469 57.601562 C 18.585938 57.601562 7.625 46.285156 7.625 32.324219 C 7.625 18.363281 18.585938 7.046875 32.105469 7.046875 Z M 20.808594 24.546875 L 20.808594 40.101562 L 35.871094 40.101562 L 45.289062 32.324219 L 35.871094 24.546875 Z M 20.808594 24.546875 "/></g></svg>
