<svg xmlns="http://www.w3.org/2000/svg" xmlns:xlink="http://www.w3.org/1999/xlink" width="64" height="64" viewBox="0 0 64 64" version="1.1"><defs><linearGradient id="linear0" x1="0%" x2="0%" y1="0%" y2="100%"><stop offset="0%" style="stop-color:#24dbdb; stop-opacity:1"/><stop offset="100%" style="stop-color:#174475; stop-opacity:1"/></linearGradient></defs><g id="surface1"><path style=" stroke:none;fill-rule:nonzero;fill:url(#linear0);" d="M 28.15625 4.9375 C 27.132812 4.9375 26.308594 5.769531 26.308594 6.796875 L 26.308594 19.363281 L 17.480469 10.476562 C 16.757812 9.75 15.589844 9.75 14.863281 10.476562 L 9.636719 15.738281 C 8.914062 16.464844 8.914062 17.644531 9.636719 18.371094 L 18.46875 27.257812 L 5.980469 27.257812 C 4.957031 27.257812 4.132812 28.085938 4.132812 29.117188 L 4.132812 36.554688 C 4.132812 37.585938 4.957031 38.414062 5.980469 38.414062 L 18.46875 38.414062 L 9.636719 47.300781 C 8.914062 48.027344 8.914062 49.203125 9.636719 49.933594 L 14.863281 55.191406 C 15.589844 55.921875 16.757812 55.921875 17.480469 55.191406 L 26.308594 46.308594 L 26.308594 58.871094 C 26.308594 59.902344 27.132812 60.730469 28.15625 60.730469 L 35.550781 60.730469 C 36.574219 60.730469 37.398438 59.902344 37.398438 58.871094 L 37.398438 46.308594 L 46.226562 55.191406 C 46.949219 55.921875 48.117188 55.921875 48.84375 55.191406 L 54.070312 49.933594 C 54.792969 49.203125 54.792969 48.027344 54.070312 47.300781 L 45.242188 38.414062 L 57.726562 38.414062 C 58.75 38.414062 59.574219 37.585938 59.574219 36.554688 L 59.574219 29.117188 C 59.574219 28.085938 58.75 27.257812 57.726562 27.257812 L 45.242188 27.257812 L 54.070312 18.371094 C 54.792969 17.644531 54.792969 16.464844 54.070312 15.738281 L 48.84375 10.476562 C 48.117188 9.75 46.949219 9.75 46.226562 10.476562 L 37.398438 19.363281 L 37.398438 6.796875 C 37.398438 5.769531 36.574219 4.9375 35.550781 4.9375 Z M 28.15625 4.9375 "/><path style=" stroke:none;fill-rule:nonzero;fill:url(#linear0);" d="M 22.980469 31.8125 C 22.980469 33.945312 24.3125 34.347656 25.648438 34.347656 C 23.9375 31.269531 25.683594 28.144531 28.3125 27.011719 L 28.3125 42.347656 L 32.3125 42.347656 L 39.648438 25.011719 L 37.648438 25.011719 L 32.3125 38.347656 L 32.3125 25.011719 L 30.980469 25.011719 C 26.980469 25.011719 22.980469 28.480469 22.980469 31.8125 Z M 22.980469 31.8125 "/></g></svg>
