<svg xmlns="http://www.w3.org/2000/svg" xmlns:xlink="http://www.w3.org/1999/xlink" width="64" height="64" viewBox="0 0 64 64" version="1.1"><defs><linearGradient id="linear0" x1="0%" x2="0%" y1="0%" y2="100%"><stop offset="0%" style="stop-color:#00b54e; stop-opacity:1"/><stop offset="50%" style="stop-color:#0073ff; stop-opacity:1"/><stop offset="100%" style="stop-color:#ffd000; stop-opacity:1"/></linearGradient></defs><g id="surface1"><path style=" stroke:none;fill-rule:nonzero;fill:url(#linear0);" d="M 19.230469 2.261719 C 14.960938 2.316406 11.832031 2.140625 9.273438 3.746094 C 7.996094 4.546875 6.988281 5.90625 6.425781 7.597656 C 5.867188 9.292969 5.664062 11.304688 5.664062 13.839844 L 5.664062 37.011719 C 5.664062 39.546875 5.867188 41.558594 6.425781 43.253906 C 6.988281 44.945312 7.996094 46.304688 9.273438 47.105469 C 11.832031 48.710938 14.960938 48.542969 19.230469 48.597656 L 26.046875 48.597656 L 26.046875 50.527344 C 26.046875 56.320312 24.347656 56.320312 20.949219 56.320312 L 19.253906 56.320312 L 19.253906 60.179688 L 46.429688 60.179688 L 46.429688 56.320312 L 44.734375 56.320312 C 41.335938 56.320312 39.636719 56.320312 39.636719 50.527344 L 39.636719 48.597656 L 46.449219 48.597656 C 50.722656 48.542969 53.851562 48.710938 56.410156 47.105469 C 57.6875 46.304688 58.695312 44.945312 59.257812 43.253906 C 59.816406 41.558594 60.019531 39.546875 60.019531 37.011719 L 60.019531 13.839844 C 60.019531 11.304688 59.816406 9.292969 59.257812 7.597656 C 58.695312 5.90625 57.6875 4.546875 56.410156 3.746094 C 53.851562 2.140625 50.722656 2.316406 46.449219 2.261719 Z M 19.253906 6.121094 L 46.429688 6.121094 C 50.707031 6.175781 53.519531 6.351562 54.765625 7.132812 C 55.390625 7.523438 55.746094 7.953125 56.078125 8.957031 C 56.410156 9.960938 56.625 11.554688 56.625 13.839844 L 56.625 37.011719 C 56.625 39.296875 56.410156 40.890625 56.078125 41.894531 C 55.746094 42.898438 55.390625 43.335938 54.765625 43.726562 C 53.519531 44.507812 50.707031 44.675781 46.429688 44.730469 L 19.253906 44.730469 C 14.976562 44.675781 12.15625 44.507812 10.910156 43.726562 C 10.289062 43.335938 9.9375 42.898438 9.605469 41.894531 C 9.273438 40.890625 9.058594 39.296875 9.058594 37.011719 L 9.058594 13.839844 C 9.058594 11.554688 9.273438 9.960938 9.605469 8.957031 C 9.9375 7.953125 10.289062 7.523438 10.910156 7.132812 C 12.15625 6.351562 14.976562 6.175781 19.253906 6.121094 Z M 19.253906 6.121094 "/><path style=" stroke:none;fill-rule:nonzero;fill:url(#linear0);" d="M 29.132812 18.34375 L 15.59375 18.34375 C 13.277344 18.34375 11.394531 20.21875 11.394531 22.527344 L 11.394531 54.488281 C 11.394531 56.792969 13.277344 58.671875 15.59375 58.671875 L 29.132812 58.671875 C 31.449219 58.671875 33.332031 56.792969 33.332031 54.488281 L 33.332031 22.527344 C 33.332031 20.21875 31.449219 18.34375 29.132812 18.34375 Z M 20.695312 54.058594 C 20.695312 54.019531 20.734375 53.980469 20.773438 53.980469 L 23.953125 53.980469 C 23.996094 53.980469 24.03125 54.019531 24.03125 54.058594 L 24.03125 55.136719 C 24.03125 55.179688 23.996094 55.214844 23.953125 55.214844 L 20.773438 55.214844 C 20.734375 55.214844 20.695312 55.179688 20.695312 55.136719 Z M 24.03125 52.1875 C 24.03125 52.230469 23.996094 52.269531 23.953125 52.269531 L 20.773438 52.269531 C 20.734375 52.269531 20.695312 52.230469 20.695312 52.1875 L 20.695312 51.109375 C 20.695312 51.070312 20.734375 51.035156 20.773438 51.035156 L 23.953125 51.035156 C 23.996094 51.035156 24.03125 51.070312 24.03125 51.109375 Z M 24.03125 49.238281 C 24.03125 49.28125 23.996094 49.320312 23.953125 49.320312 L 20.773438 49.320312 C 20.730469 49.320312 20.695312 49.28125 20.695312 49.238281 L 20.695312 48.160156 C 20.695312 48.121094 20.734375 48.085938 20.773438 48.085938 L 23.953125 48.085938 C 23.996094 48.085938 24.03125 48.121094 24.03125 48.160156 Z M 22.363281 46.027344 C 21.296875 46.027344 20.433594 45.167969 20.433594 44.105469 C 20.433594 43.042969 21.296875 42.183594 22.363281 42.183594 C 23.429688 42.183594 24.292969 43.042969 24.292969 44.105469 C 24.292969 45.167969 23.429688 46.027344 22.363281 46.027344 Z M 15.59375 21.203125 L 29.132812 21.203125 C 29.921875 21.203125 30.566406 21.84375 30.566406 22.628906 L 30.566406 40.367188 L 14.160156 40.367188 L 14.160156 22.628906 C 14.160156 21.84375 14.804688 21.203125 15.59375 21.203125 Z M 18.832031 43.230469 L 18.832031 44.980469 L 15.371094 44.980469 L 14.273438 43.230469 Z M 18.175781 52.1875 C 18.175781 52.230469 18.136719 52.269531 18.097656 52.269531 L 14.917969 52.269531 C 14.875 52.269531 14.839844 52.230469 14.839844 52.1875 L 14.839844 51.109375 C 14.839844 51.070312 14.875 51.035156 14.917969 51.035156 L 18.097656 51.035156 C 18.140625 51.035156 18.175781 51.070312 18.175781 51.109375 Z M 18.175781 49.238281 C 18.175781 49.28125 18.140625 49.320312 18.097656 49.320312 L 14.917969 49.320312 C 14.875 49.320312 14.839844 49.28125 14.839844 49.238281 L 14.839844 48.160156 C 14.839844 48.121094 14.875 48.085938 14.917969 48.085938 L 18.097656 48.085938 C 18.136719 48.085938 18.175781 48.121094 18.175781 48.160156 Z M 14.839844 55.136719 L 14.839844 54.058594 C 14.839844 54.019531 14.875 53.980469 14.917969 53.980469 L 18.097656 53.980469 C 18.136719 53.980469 18.175781 54.019531 18.175781 54.058594 L 18.175781 55.136719 C 18.175781 55.179688 18.136719 55.214844 18.097656 55.214844 L 14.917969 55.214844 C 14.875 55.214844 14.839844 55.179688 14.839844 55.136719 Z M 30.453125 43.230469 L 29.351562 44.980469 L 25.894531 44.980469 L 25.894531 43.230469 Z M 29.886719 52.1875 C 29.886719 52.230469 29.851562 52.269531 29.808594 52.269531 L 26.632812 52.269531 C 26.589844 52.269531 26.550781 52.230469 26.550781 52.1875 L 26.550781 51.109375 C 26.550781 51.070312 26.585938 51.035156 26.632812 51.035156 L 29.808594 51.035156 C 29.855469 51.035156 29.886719 51.070312 29.886719 51.109375 Z M 29.886719 49.238281 C 29.886719 49.28125 29.855469 49.320312 29.808594 49.320312 L 26.632812 49.320312 C 26.585938 49.320312 26.550781 49.28125 26.550781 49.238281 L 26.550781 48.160156 C 26.550781 48.121094 26.589844 48.085938 26.632812 48.085938 L 29.808594 48.085938 C 29.851562 48.085938 29.886719 48.121094 29.886719 48.160156 Z M 26.550781 55.136719 L 26.550781 54.058594 C 26.550781 54.019531 26.589844 53.980469 26.632812 53.980469 L 29.808594 53.980469 C 29.851562 53.980469 29.886719 54.019531 29.886719 54.058594 L 29.886719 55.136719 C 29.886719 55.179688 29.851562 55.214844 29.808594 55.214844 L 26.632812 55.214844 C 26.589844 55.214844 26.550781 55.179688 26.550781 55.136719 Z M 26.550781 55.136719 "/></g></svg>
