<svg xmlns="http://www.w3.org/2000/svg" xmlns:xlink="http://www.w3.org/1999/xlink" width="64" height="64" viewBox="0 0 64 64" version="1.1"><defs><linearGradient id="linear0" x1="0%" x2="0%" y1="0%" y2="100%"><stop offset="0%" style="stop-color:#00b54e; stop-opacity:1"/><stop offset="50%" style="stop-color:#0073ff; stop-opacity:1"/><stop offset="100%" style="stop-color:#ffd000; stop-opacity:1"/></linearGradient></defs><g id="surface1"><path style=" stroke:none;fill-rule:nonzero;fill:url(#linear0);" d="M 31.457031 3.273438 C 15.800781 3.273438 3.109375 16.210938 3.109375 32.164062 C 3.109375 48.121094 15.800781 61.054688 31.457031 61.054688 C 47.109375 61.054688 59.800781 48.121094 59.800781 32.164062 C 59.800781 16.210938 47.109375 3.273438 31.457031 3.273438 Z M 31.457031 7.128906 C 45.023438 7.128906 56.023438 18.335938 56.023438 32.164062 C 56.023438 45.992188 45.023438 57.203125 31.457031 57.203125 C 17.886719 57.203125 6.886719 45.992188 6.886719 32.164062 C 6.886719 18.335938 17.886719 7.128906 31.457031 7.128906 Z M 14.445312 18.683594 L 27.675781 53.351562 L 35.234375 53.351562 L 48.464844 18.683594 L 40.90625 18.683594 L 31.402344 43.582031 L 22.007812 18.683594 Z M 14.445312 18.683594 "/></g></svg>
