<svg xmlns="http://www.w3.org/2000/svg" xmlns:xlink="http://www.w3.org/1999/xlink" width="64" height="64" viewBox="0 0 64 64" version="1.1"><defs><linearGradient id="linear0" x1="0%" x2="100%" y1="0%" y2="100%"><stop offset="0%" style="stop-color:#e5ff00; stop-opacity:1"/><stop offset="50%" style="stop-color:#0073ff; stop-opacity:1"/><stop offset="100%" style="stop-color:#ff0000; stop-opacity:1"/></linearGradient></defs><g id="surface1"><path style=" stroke:none;fill-rule:evenodd;fill:url(#linear0);" d="M 0 17.65625 L 4.058594 35.023438 L 6.695312 46.34375 L 12.585938 46.34375 L 15.222656 35.023438 L 15.464844 34.007812 L 19.285156 17.65625 L 13.382812 17.65625 L 9.640625 33.714844 L 5.898438 17.65625 Z M 21.015625 17.65625 L 15.394531 45.78125 L 15.285156 46.34375 L 21.128906 46.34375 L 24.152344 31.207031 L 27.679688 46.34375 L 33.566406 46.34375 L 37.09375 31.207031 L 40.121094 46.34375 L 45.964844 46.34375 L 45.851562 45.78125 L 40.230469 17.65625 L 34.363281 17.65625 L 30.625 33.714844 L 26.878906 17.65625 Z M 52.535156 24.121094 C 53.226562 24.289062 53.34375 24.136719 54.125 24.523438 C 56.304688 25.617188 58.269531 27.21875 58.269531 32 C 58.269531 36.78125 56.304688 38.382812 54.125 39.476562 C 53.34375 39.863281 53.226562 39.710938 52.535156 39.878906 Z M 46.808594 17.65625 L 46.808594 46.34375 L 49.671875 46.34375 C 49.671875 46.34375 53.132812 46.382812 56.683594 44.609375 C 60.230469 42.832031 64 38.695312 64 32 C 64 25.304688 60.230469 21.167969 56.683594 19.390625 C 53.132812 17.617188 49.671875 17.65625 49.671875 17.65625 Z M 46.808594 17.65625 "/></g></svg>
