<svg xmlns="http://www.w3.org/2000/svg" xmlns:xlink="http://www.w3.org/1999/xlink" width="64" height="64" viewBox="0 0 64 64" version="1.1"><defs><linearGradient id="linear0" x1="0%" x2="100%" y1="0%" y2="100%"><stop offset="0%" style="stop-color:#00b54e; stop-opacity:1"/><stop offset="100%" style="stop-color:#0073ff; stop-opacity:1"/></linearGradient></defs><g id="surface1"><path style=" stroke:none;fill-rule:nonzero;fill:url(#linear0);" d="M 38.480469 5.914062 C 32.800781 5.914062 27.988281 10.207031 26.050781 16.285156 C 24.507812 14.847656 22.621094 14.0625 20.679688 14.0625 C 15.761719 14.054688 11.777344 18.925781 11.777344 24.925781 L 11.777344 25.496094 C 6.632812 27.265625 2.878906 33 2.878906 39.859375 C 2.878906 48.136719 8.335938 54.796875 15.117188 54.796875 L 24.015625 54.796875 C 24.632812 54.796875 25.128906 54.1875 25.128906 53.441406 C 25.128906 52.691406 24.632812 52.082031 24.015625 52.082031 L 15.117188 52.082031 C 9.53125 52.082031 5.101562 46.679688 5.101562 39.859375 C 5.101562 34.210938 8.175781 29.558594 12.382812 28.113281 L 14.003906 27.554688 L 14.003906 24.925781 C 14.003906 20.394531 16.964844 16.777344 20.675781 16.777344 C 22.132812 16.777344 23.546875 17.367188 24.703125 18.441406 L 27.054688 20.628906 L 28.125 17.269531 C 29.738281 12.210938 33.71875 8.628906 38.480469 8.628906 C 44.683594 8.628906 49.609375 14.640625 49.609375 22.207031 L 49.609375 27.554688 L 51.230469 28.113281 C 55.4375 29.558594 58.507812 34.210938 58.507812 39.859375 C 58.507812 46.679688 54.082031 52.082031 48.496094 52.082031 C 47.878906 52.082031 47.382812 52.691406 47.382812 53.441406 C 47.382812 54.191406 47.878906 54.800781 48.496094 54.796875 C 55.238281 54.75 60.734375 48.105469 60.734375 39.859375 C 60.734375 33.003906 56.976562 27.265625 51.832031 25.496094 L 51.832031 22.210938 C 51.832031 13.183594 45.878906 5.914062 38.480469 5.914062 Z M 29.582031 22.207031 C 28.347656 22.207031 27.355469 23.417969 27.355469 24.925781 L 27.355469 57.511719 C 27.355469 59.015625 28.347656 60.230469 29.582031 60.230469 L 42.933594 60.230469 C 44.164062 60.230469 45.15625 59.015625 45.15625 57.511719 L 45.15625 24.925781 C 45.15625 23.417969 44.164062 22.207031 42.933594 22.207031 Z M 30.691406 24.925781 L 41.820312 24.925781 C 42.4375 24.925781 42.933594 25.53125 42.933594 26.28125 L 42.933594 56.15625 C 42.933594 56.90625 42.4375 57.511719 41.820312 57.511719 L 30.691406 57.511719 C 30.078125 57.511719 29.582031 56.90625 29.582031 56.15625 L 29.582031 26.28125 C 29.582031 25.53125 30.078125 24.925781 30.691406 24.925781 Z M 37.367188 27.640625 C 36.753906 27.640625 36.257812 28.246094 36.257812 28.996094 C 36.257812 29.75 36.753906 30.355469 37.367188 30.355469 L 39.59375 30.355469 C 40.210938 30.355469 40.707031 29.75 40.707031 28.996094 C 40.707031 28.246094 40.210938 27.640625 39.59375 27.640625 Z M 32.917969 41.21875 C 32.300781 41.21875 31.804688 41.824219 31.804688 42.578125 C 31.804688 43.328125 32.300781 43.933594 32.917969 43.933594 L 39.59375 43.933594 C 40.210938 43.933594 40.707031 43.328125 40.707031 42.578125 C 40.707031 41.824219 40.210938 41.21875 39.59375 41.21875 Z M 32.917969 46.648438 C 32.300781 46.648438 31.804688 47.253906 31.804688 48.007812 C 31.804688 48.761719 32.300781 49.367188 32.917969 49.367188 L 39.59375 49.367188 C 40.210938 49.367188 40.707031 48.761719 40.707031 48.007812 C 40.707031 47.253906 40.210938 46.648438 39.59375 46.648438 Z M 32.917969 52.082031 C 32.300781 52.082031 31.804688 52.6875 31.804688 53.4375 C 31.804688 54.191406 32.300781 54.796875 32.917969 54.796875 L 39.59375 54.796875 C 40.210938 54.796875 40.707031 54.191406 40.707031 53.4375 C 40.707031 52.6875 40.210938 52.082031 39.59375 52.082031 Z M 32.917969 52.082031 "/></g></svg>
