<svg xmlns="http://www.w3.org/2000/svg" xmlns:xlink="http://www.w3.org/1999/xlink" width="64" height="64" viewBox="0 0 64 64" version="1.1"><defs><linearGradient id="linear0" x1="0%" x2="0%" y1="0%" y2="100%"><stop offset="0%" style="stop-color:#ffd000; stop-opacity:1"/><stop offset="50%" style="stop-color:#24dbdb; stop-opacity:1"/><stop offset="100%" style="stop-color:#0073ff; stop-opacity:1"/></linearGradient></defs><g id="surface1"><path style=" stroke:none;fill-rule:nonzero;fill:url(#linear0);" d="M 16.957031 58.292969 L 59.683594 58.292969 L 59.683594 61.265625 L 16.957031 61.265625 Z M 16.957031 58.292969 "/><path style=" stroke:none;fill-rule:nonzero;fill:url(#linear0);" d="M 7.800781 16.664062 C 9.484375 16.664062 10.851562 17.996094 10.851562 19.632812 L 10.851562 31.535156 C 10.851562 33.171875 9.484375 34.503906 7.800781 34.503906 C 6.113281 34.503906 4.742188 33.171875 4.742188 31.535156 L 4.742188 19.632812 C 4.742188 17.996094 6.113281 16.664062 7.800781 16.664062 Z M 7.800781 16.664062 "/><path style=" stroke:none;fill-rule:nonzero;fill:url(#linear0);" d="M 38.320312 4.773438 C 36.628906 4.773438 35.269531 6.097656 35.269531 7.742188 C 35.269531 9.390625 36.628906 10.714844 38.320312 10.714844 C 40.011719 10.714844 41.371094 9.390625 41.371094 7.742188 C 41.371094 6.097656 40.011719 4.773438 38.320312 4.773438 Z M 20.007812 22.613281 C 18.316406 22.613281 16.957031 23.9375 16.957031 25.585938 C 16.957031 27.230469 18.316406 28.554688 20.007812 28.554688 C 21.699219 28.554688 23.054688 27.230469 23.054688 25.585938 C 23.054688 23.9375 21.699219 22.613281 20.007812 22.613281 Z M 56.632812 22.613281 C 54.945312 22.613281 53.585938 23.9375 53.585938 25.585938 C 53.585938 27.230469 54.945312 28.554688 56.632812 28.554688 C 58.324219 28.554688 59.683594 27.230469 59.683594 25.585938 C 59.683594 23.9375 58.324219 22.613281 56.632812 22.613281 Z M 38.320312 40.453125 C 36.628906 40.453125 35.269531 41.777344 35.269531 43.425781 C 35.269531 45.070312 36.628906 46.394531 38.320312 46.394531 C 40.011719 46.394531 41.371094 45.070312 41.371094 43.425781 C 41.371094 41.777344 40.011719 40.453125 38.320312 40.453125 Z M 38.320312 40.453125 "/><path style=" stroke:none;fill-rule:nonzero;fill:url(#linear0);" d="M 29.164062 8.632812 C 28.324219 8.632812 27.636719 9.304688 27.636719 10.121094 C 27.636719 10.941406 28.324219 11.613281 29.164062 11.613281 C 30.003906 11.613281 30.691406 10.941406 30.691406 10.121094 C 30.691406 9.304688 30.003906 8.632812 29.164062 8.632812 Z M 47.476562 8.632812 C 46.636719 8.632812 45.949219 9.304688 45.949219 10.121094 C 45.949219 10.941406 46.636719 11.613281 47.476562 11.613281 C 48.316406 11.613281 49.007812 10.941406 49.007812 10.121094 C 49.007812 9.304688 48.316406 8.632812 47.476562 8.632812 Z M 22.449219 15.175781 C 21.609375 15.175781 20.917969 15.84375 20.917969 16.664062 C 20.917969 17.484375 21.609375 18.152344 22.449219 18.152344 C 23.289062 18.152344 23.976562 17.484375 23.976562 16.664062 C 23.976562 15.84375 23.289062 15.175781 22.449219 15.175781 Z M 54.191406 15.175781 C 53.351562 15.175781 52.664062 15.84375 52.664062 16.664062 C 52.664062 17.484375 53.351562 18.152344 54.191406 18.152344 C 55.03125 18.152344 55.722656 17.484375 55.722656 16.664062 C 55.722656 15.84375 55.03125 15.175781 54.191406 15.175781 Z M 22.449219 33.015625 C 21.609375 33.015625 20.917969 33.683594 20.917969 34.503906 C 20.917969 35.324219 21.609375 35.992188 22.449219 35.992188 C 23.289062 35.992188 23.976562 35.324219 23.976562 34.503906 C 23.976562 33.683594 23.289062 33.015625 22.449219 33.015625 Z M 54.191406 33.015625 C 53.351562 33.015625 52.664062 33.683594 52.664062 34.503906 C 52.664062 35.324219 53.351562 35.992188 54.191406 35.992188 C 55.03125 35.992188 55.722656 35.324219 55.722656 34.503906 C 55.722656 33.683594 55.03125 33.015625 54.191406 33.015625 Z M 29.164062 39.558594 C 28.324219 39.558594 27.636719 40.226562 27.636719 41.046875 C 27.636719 41.867188 28.324219 42.535156 29.164062 42.535156 C 30.003906 42.535156 30.691406 41.867188 30.691406 41.046875 C 30.691406 40.226562 30.003906 39.558594 29.164062 39.558594 Z M 47.476562 39.558594 C 46.636719 39.558594 45.949219 40.226562 45.949219 41.046875 C 45.949219 41.867188 46.636719 42.535156 47.476562 42.535156 C 48.316406 42.535156 49.007812 41.867188 49.007812 41.046875 C 49.007812 40.226562 48.316406 39.558594 47.476562 39.558594 Z M 47.476562 39.558594 "/><path style=" stroke:none;fill-rule:nonzero;fill:url(#linear0);" d="M 30.390625 19.632812 C 30.039062 19.679688 29.71875 19.824219 29.476562 20.0625 L 26.425781 23.03125 C 25.988281 23.457031 25.855469 24.101562 26.097656 24.660156 C 26.328125 25.21875 26.894531 25.574219 27.507812 25.574219 L 29.03125 25.574219 C 29.03125 30.480469 33.152344 34.496094 38.1875 34.496094 L 42.765625 34.496094 C 43.613281 34.496094 44.292969 33.832031 44.292969 33.007812 C 44.292969 32.1875 43.613281 31.523438 42.765625 31.523438 L 38.1875 31.523438 C 34.796875 31.523438 32.089844 28.875 32.089844 25.574219 L 33.609375 25.574219 C 34.226562 25.574219 34.789062 25.21875 35.019531 24.660156 C 35.261719 24.101562 35.128906 23.457031 34.691406 23.03125 L 31.640625 20.0625 C 31.308594 19.738281 30.855469 19.582031 30.390625 19.632812 Z M 30.390625 19.632812 "/><path style=" stroke:none;fill-rule:nonzero;fill:url(#linear0);" d="M 46.253906 28.554688 C 46.601562 28.519531 46.921875 28.371094 47.164062 28.136719 L 50.214844 25.15625 C 50.652344 24.730469 50.785156 24.09375 50.542969 23.535156 C 50.3125 22.980469 49.75 22.621094 49.132812 22.621094 L 47.609375 22.621094 C 47.609375 17.710938 43.488281 13.703125 38.453125 13.703125 L 33.875 13.703125 C 33.027344 13.703125 32.347656 14.363281 32.347656 15.183594 C 32.347656 16.011719 33.027344 16.671875 33.875 16.671875 L 38.453125 16.671875 C 41.84375 16.671875 44.554688 19.3125 44.554688 22.621094 L 43.03125 22.621094 C 42.414062 22.621094 41.851562 22.980469 41.621094 23.535156 C 41.378906 24.09375 41.511719 24.730469 41.949219 25.15625 L 45 28.136719 C 45.332031 28.449219 45.785156 28.605469 46.253906 28.554688 Z M 46.253906 28.554688 "/></g></svg>
