<svg xmlns="http://www.w3.org/2000/svg" xmlns:xlink="http://www.w3.org/1999/xlink" width="64" height="64" viewBox="0 0 64 64" version="1.1"><defs><linearGradient id="linear0" x1="0%" x2="100%" y1="0%" y2="100%"><stop offset="0%" style="stop-color:#ff0000; stop-opacity:1"/><stop offset="50%" style="stop-color:#ffd000; stop-opacity:1"/><stop offset="100%" style="stop-color:#ff00bb; stop-opacity:1"/></linearGradient></defs><g id="surface1"><path style=" stroke:none;fill-rule:nonzero;fill:url(#linear0);" d="M 31.753906 3.515625 L 31.753906 43.726562 C 31.753906 47.890625 27.851562 51.265625 23.042969 51.265625 C 18.230469 51.265625 14.328125 47.890625 14.328125 43.726562 C 14.328125 39.5625 18.230469 36.1875 23.042969 36.1875 C 24.03125 36.191406 25.011719 36.339844 25.945312 36.628906 L 25.945312 26.320312 C 24.984375 26.199219 24.011719 26.136719 23.042969 26.132812 C 11.816406 26.132812 2.714844 34.011719 2.714844 43.726562 C 2.714844 53.441406 11.816406 61.320312 23.042969 61.320312 C 34.269531 61.320312 43.367188 53.441406 43.367188 43.726562 L 43.367188 18.59375 C 46.273438 26.132812 60.792969 26.132812 60.792969 26.132812 L 60.792969 16.082031 C 60.792969 16.082031 43.367188 16.082031 43.367188 3.515625 Z M 31.753906 3.515625 "/></g></svg>
