<svg xmlns="http://www.w3.org/2000/svg" xmlns:xlink="http://www.w3.org/1999/xlink" width="64" height="64" viewBox="0 0 64 64" version="1.1"><defs><linearGradient id="linear0" x1="0%" x2="0%" y1="0%" y2="100%"><stop offset="0%" style="stop-color:#00b6c7; stop-opacity:1"/><stop offset="50%" style="stop-color:#ff0000; stop-opacity:1"/><stop offset="100%" style="stop-color:#6a00ff; stop-opacity:1"/></linearGradient></defs><g id="surface1"><path style=" stroke:none;fill-rule:nonzero;fill:url(#linear0);" d="M 2.351562 3.75 L 2.351562 8.890625 L 13.355469 8.890625 L 13.355469 3.75 Z M 26.558594 3.75 L 26.558594 8.890625 L 35.363281 8.890625 L 35.363281 3.75 Z M 48.570312 3.75 L 48.570312 8.890625 L 59.574219 8.890625 L 59.574219 3.75 Z M 2.789062 14.03125 L 3.714844 19.175781 L 14.609375 19.175781 L 13.761719 14.03125 Z M 25.898438 14.03125 L 24.714844 19.175781 L 37.082031 19.175781 L 35.898438 14.03125 Z M 48.128906 14.03125 L 47.28125 19.175781 L 58.175781 19.175781 L 59.101562 14.03125 Z M 4.550781 24.316406 L 5.480469 29.460938 L 16.199219 29.460938 L 15.351562 24.316406 Z M 23.480469 24.316406 L 22.292969 29.460938 L 29.90625 29.460938 L 30.851562 24.316406 Z M 30.851562 24.316406 L 31.792969 29.460938 L 39.410156 29.460938 L 38.222656 24.316406 Z M 46.347656 24.316406 L 45.5 29.460938 L 56.21875 29.460938 L 57.148438 24.316406 Z M 6.511719 34.601562 L 7.4375 39.742188 L 18.003906 39.742188 L 17.15625 34.601562 Z M 21.210938 34.601562 L 20.03125 39.742188 L 28.128906 39.742188 L 29.070312 34.601562 Z M 32.832031 34.601562 L 33.773438 39.742188 L 41.875 39.742188 L 40.691406 34.601562 Z M 44.738281 34.601562 L 43.894531 39.742188 L 54.457031 39.742188 L 55.386719 34.601562 Z M 8.425781 44.886719 L 9.355469 50.027344 L 26.300781 50.027344 L 27.242188 44.886719 Z M 34.835938 44.886719 L 35.777344 50.027344 L 52.726562 50.027344 L 53.652344 44.886719 Z M 10.40625 55.167969 L 11.335938 60.3125 L 24.539062 60.3125 L 25.480469 55.167969 Z M 36.816406 55.167969 L 37.757812 60.3125 L 50.964844 60.3125 L 51.894531 55.167969 Z M 36.816406 55.167969 "/></g></svg>
