<svg xmlns="http://www.w3.org/2000/svg" xmlns:xlink="http://www.w3.org/1999/xlink" width="64" height="64" viewBox="0 0 64 64" version="1.1"><defs><linearGradient id="linear0" x1="0%" x2="100%" y1="0%" y2="100%"><stop offset="0%" style="stop-color:#ff0000; stop-opacity:1"/><stop offset="50%" style="stop-color:#ffd000; stop-opacity:1"/><stop offset="100%" style="stop-color:#ff00bb; stop-opacity:1"/></linearGradient></defs><g id="surface1"><path style=" stroke:none;fill-rule:nonzero;fill:url(#linear0);" d="M 30.308594 0.996094 C 30.300781 0.996094 30.273438 1.074219 30.25 1.160156 C 30.160156 1.496094 29.789062 2.757812 29.496094 3.679688 C 28.46875 6.925781 27.292969 9.863281 26.171875 12 C 25.492188 13.265625 24.964844 14.097656 24.246094 14.957031 C 23.890625 15.371094 23.808594 15.484375 23.730469 15.648438 C 23.605469 15.894531 23.675781 16.007812 23.964844 15.96875 C 24.21875 15.941406 24.859375 15.730469 26.417969 15.144531 C 27.78125 14.636719 27.976562 14.566406 27.976562 14.605469 C 27.976562 14.679688 28.285156 15.765625 28.433594 16.179688 C 29.476562 19.359375 31.152344 21.621094 33.691406 23.316406 C 34.777344 24.035156 35.808594 24.554688 37.742188 25.339844 C 40.574219 26.496094 41.113281 26.742188 42.003906 27.292969 C 42.398438 27.539062 42.902344 27.917969 42.902344 27.964844 C 42.902344 27.988281 42.566406 28.332031 42.164062 28.734375 L 41.421875 29.476562 L 40.597656 28.644531 C 40.0625 28.125 39.738281 27.824219 39.71875 27.835938 C 39.671875 27.847656 39.144531 29.695312 37.996094 34 C 37.992188 34.023438 38 34.050781 38.042969 34.050781 C 38.097656 34.050781 43.839844 32.515625 44.214844 32.398438 C 44.230469 32.386719 44.261719 32.371094 44.261719 32.347656 C 44.261719 32.324219 43.898438 31.941406 43.449219 31.492188 C 42.988281 31.046875 42.625 30.65625 42.625 30.644531 C 42.625 30.59375 44.089844 29.148438 44.136719 29.148438 C 44.179688 29.148438 44.5625 29.589844 44.925781 30.070312 C 46.757812 32.410156 47.910156 35.25 48.21875 38.179688 C 48.304688 38.976562 48.304688 39.082031 48.257812 39.105469 C 48.203125 39.15625 46.183594 39.140625 46.152344 39.09375 C 46.113281 39.070312 46.113281 38.753906 46.113281 37.894531 C 46.113281 36.757812 46.113281 36.742188 46.042969 36.753906 C 45.957031 36.78125 40.464844 39.925781 40.464844 39.953125 C 40.464844 39.972656 40.488281 39.992188 40.527344 40.027344 C 40.699219 40.128906 46.058594 43.183594 46.082031 43.183594 C 46.101562 43.183594 46.113281 42.664062 46.113281 41.996094 L 46.121094 40.8125 L 48.28125 40.8125 L 48.28125 41.070312 C 48.253906 41.640625 48.105469 42.707031 47.921875 43.476562 C 47.421875 45.785156 46.40625 47.957031 44.96875 49.8125 C 44.703125 50.152344 44.21875 50.738281 44.164062 50.777344 C 44.125 50.808594 42.625 49.332031 42.625 49.273438 C 42.625 49.261719 42.992188 48.871094 43.453125 48.421875 C 43.976562 47.917969 44.273438 47.605469 44.25 47.566406 C 44.199219 47.519531 38.042969 45.871094 38.011719 45.902344 C 37.992188 45.925781 39.648438 52.078125 39.695312 52.117188 C 39.71875 52.152344 40.039062 51.835938 40.546875 51.320312 C 41.007812 50.875 41.386719 50.496094 41.414062 50.496094 C 41.488281 50.496094 42.941406 51.960938 42.910156 52.011719 C 42.886719 52.0625 42.289062 52.578125 41.878906 52.875 C 40.046875 54.28125 37.878906 55.28125 35.589844 55.785156 C 34.828125 55.949219 33.742188 56.105469 33.179688 56.140625 L 32.902344 56.144531 L 32.902344 53.992188 L 34.09375 53.980469 C 34.894531 53.980469 35.289062 53.960938 35.289062 53.941406 C 35.289062 53.871094 32.089844 48.347656 32.050781 48.347656 C 32.015625 48.347656 28.824219 53.882812 28.824219 53.941406 C 28.824219 53.957031 29.210938 53.972656 30.011719 53.980469 L 31.210938 53.992188 L 31.210938 56.144531 L 30.929688 56.140625 C 30.378906 56.105469 29.300781 55.949219 28.535156 55.785156 C 26.242188 55.28125 24.078125 54.285156 22.226562 52.875 C 21.828125 52.578125 21.21875 52.0625 21.203125 52.011719 C 21.179688 51.953125 22.625 50.496094 22.695312 50.496094 C 22.726562 50.496094 23.117188 50.871094 23.566406 51.320312 C 24.082031 51.84375 24.402344 52.152344 24.421875 52.117188 C 24.480469 52.074219 26.136719 45.925781 26.117188 45.902344 C 26.074219 45.886719 19.921875 47.53125 19.867188 47.566406 C 19.851562 47.59375 20.148438 47.910156 20.664062 48.421875 C 21.117188 48.871094 21.492188 49.261719 21.492188 49.273438 C 21.492188 49.332031 20 50.808594 19.953125 50.777344 C 19.890625 50.734375 19.410156 50.152344 19.148438 49.8125 C 17.722656 47.957031 16.695312 45.789062 16.183594 43.476562 C 16.011719 42.707031 15.863281 41.65625 15.84375 41.070312 L 15.832031 40.8125 L 17.984375 40.8125 L 17.996094 41.996094 C 18.007812 42.664062 18.023438 43.183594 18.035156 43.183594 C 18.039062 43.183594 23.40625 40.128906 23.589844 40.027344 C 23.605469 39.992188 23.640625 39.960938 23.640625 39.953125 C 23.640625 39.933594 18.160156 36.796875 18.050781 36.753906 C 18.007812 36.742188 18.007812 36.757812 18.007812 37.894531 C 18.007812 38.761719 17.988281 39.070312 17.964844 39.09375 C 17.933594 39.144531 15.910156 39.144531 15.847656 39.105469 C 15.808594 39.082031 15.8125 38.976562 15.894531 38.179688 C 16.207031 35.261719 17.359375 32.410156 19.1875 30.070312 C 19.550781 29.589844 19.941406 29.148438 19.988281 29.148438 C 20.023438 29.148438 21.488281 30.605469 21.488281 30.644531 C 21.488281 30.664062 21.117188 31.046875 20.664062 31.492188 C 20.214844 31.941406 19.851562 32.324219 19.851562 32.347656 C 19.851562 32.351562 19.875 32.375 19.902344 32.398438 C 20.277344 32.515625 26.03125 34.050781 26.074219 34.050781 C 26.117188 34.050781 26.136719 34.039062 26.121094 34 C 24.953125 29.699219 24.445312 27.851562 24.40625 27.835938 C 24.378906 27.828125 24.046875 28.132812 23.527344 28.644531 L 22.703125 29.476562 L 19.691406 26.476562 C 18.039062 24.832031 16.660156 23.484375 16.636719 23.484375 C 16.5625 23.484375 15.367188 24.703125 14.898438 25.246094 C 11.292969 29.453125 9.402344 34.542969 9.40625 40.003906 C 9.40625 45.367188 11.34375 50.574219 14.804688 54.605469 C 19 59.476562 24.902344 62.308594 31.335938 62.542969 L 31.316406 62.535156 C 33.089844 62.59375 35.078125 62.40625 36.835938 62.03125 C 40.144531 61.320312 43.214844 59.894531 45.914062 57.824219 C 50.699219 54.148438 53.835938 48.636719 54.542969 42.675781 C 55.34375 35.816406 53.050781 29.066406 48.21875 24.164062 C 47.421875 23.34375 46.640625 22.707031 45.65625 22.066406 C 44.46875 21.292969 43.105469 20.617188 40.996094 19.78125 C 38.28125 18.703125 37.207031 18.136719 36.320312 17.292969 C 35.441406 16.457031 34.78125 15.28125 34.355469 13.769531 C 34.242188 13.363281 34.25 13.375 34.503906 13.398438 C 34.78125 13.425781 35.339844 13.542969 35.605469 13.640625 C 36.277344 13.871094 36.628906 14.097656 37.332031 14.777344 C 37.769531 15.195312 37.917969 15.296875 38.007812 15.242188 C 38.296875 15.046875 37.121094 12.632812 34.46875 8.007812 C 33.167969 5.734375 30.359375 0.996094 30.308594 0.996094 M 32.074219 32.457031 C 31.488281 32.457031 31.222656 32.460938 30.960938 32.507812 C 28.371094 32.902344 26.191406 34.546875 25.132812 36.902344 C 24.84375 37.539062 24.660156 38.191406 24.535156 38.964844 C 24.457031 39.484375 24.464844 40.582031 24.554688 41.125 C 24.808594 42.726562 25.503906 44.109375 26.617188 45.253906 C 27.269531 45.925781 27.898438 46.375 28.726562 46.785156 C 29.625 47.214844 30.414062 47.4375 31.578125 47.550781 L 31.585938 47.554688 C 31.652344 47.566406 31.949219 47.566406 32.238281 47.554688 C 33.402344 47.542969 34.378906 47.304688 35.414062 46.796875 C 36.234375 46.390625 36.855469 45.925781 37.519531 45.265625 C 38.125 44.632812 38.535156 44.054688 38.917969 43.261719 C 39.246094 42.578125 39.460938 41.898438 39.585938 41.125 C 39.671875 40.582031 39.675781 39.480469 39.597656 38.957031 C 39.484375 38.191406 39.292969 37.539062 39 36.902344 C 37.945312 34.542969 35.769531 32.902344 33.179688 32.507812 C 32.914062 32.460938 32.648438 32.457031 32.074219 32.457031 "/></g></svg>
