<svg xmlns="http://www.w3.org/2000/svg" xmlns:xlink="http://www.w3.org/1999/xlink" width="64" height="64" viewBox="0 0 64 64" version="1.1"><defs><linearGradient id="linear0" x1="0%" x2="100%" y1="0%" y2="100%"><stop offset="0%" style="stop-color:#00b54e; stop-opacity:1"/><stop offset="100%" style="stop-color:#0073ff; stop-opacity:1"/></linearGradient></defs><g id="surface1"><path style=" stroke:none;fill-rule:nonzero;fill:url(#linear0);fill-opacity:1;" d="M 62.167969 47.277344 C 58.765625 38.777344 57.800781 29.734375 57.589844 23.644531 C 57.359375 16.808594 54.453125 10.507812 49.625 6.359375 C 41.976562 -0.214844 32.902344 -0.0234375 32 0.0078125 C 31.089844 -0.03125 22.019531 -0.214844 14.375 6.359375 C 9.546875 10.507812 6.644531 16.808594 6.410156 23.644531 C 6.199219 29.734375 5.234375 38.777344 1.832031 47.277344 C 1.714844 47.570312 1.722656 47.898438 1.851562 48.183594 C 2.011719 48.539062 5.785156 56.597656 20.398438 57 L 20.398438 62.835938 C 20.398438 63.480469 20.917969 64 21.558594 64 C 22.203125 64 22.722656 63.480469 22.722656 62.835938 L 22.722656 57.019531 L 22.835938 57.019531 C 22.929688 57.082031 23.023438 57.144531 23.117188 57.210938 L 24.203125 57.9375 C 24.640625 58.234375 25.070312 58.554688 25.5 58.871094 C 27.363281 60.246094 29.289062 61.671875 32 61.671875 C 34.710938 61.671875 36.636719 60.246094 38.5 58.871094 C 38.929688 58.554688 39.359375 58.234375 39.796875 57.9375 L 40.882812 57.210938 C 40.976562 57.144531 41.070312 57.082031 41.164062 57.019531 L 41.339844 57.019531 L 41.339844 62.835938 C 41.339844 63.480469 41.859375 64 42.503906 64 C 43.144531 64 43.667969 63.480469 43.667969 62.835938 L 43.667969 57 C 58.226562 56.578125 61.992188 48.535156 62.148438 48.183594 C 62.277344 47.898438 62.285156 47.570312 62.167969 47.277344 Z M 44.898438 51.285156 C 43.898438 52.230469 42.804688 53.058594 41.667969 53.855469 C 40.984375 54.339844 40.285156 54.808594 39.585938 55.273438 L 38.492188 56.011719 C 38.027344 56.328125 37.570312 56.664062 37.117188 57 C 35.484375 58.207031 33.941406 59.347656 32 59.347656 C 30.058594 59.347656 28.515625 58.207031 26.882812 57 C 26.429688 56.664062 25.972656 56.328125 25.507812 56.011719 L 24.414062 55.273438 C 23.722656 54.8125 23.03125 54.347656 22.351562 53.871094 C 21.207031 53.070312 20.105469 52.234375 19.101562 51.285156 C 13.964844 46.40625 13.445312 35.019531 13.390625 29.542969 C 15.605469 30.089844 19.179688 30.449219 22.421875 30.25 C 27.230469 29.949219 33.632812 28.417969 37.824219 22.980469 C 39.527344 25.070312 43.464844 28.667969 50.613281 29.058594 C 50.585938 34.320312 50.191406 46.257812 44.898438 51.285156 Z M 44.898438 51.285156 "/></g></svg>
