<svg xmlns="http://www.w3.org/2000/svg" xmlns:xlink="http://www.w3.org/1999/xlink" width="64" height="64" viewBox="0 0 64 64" version="1.1"><defs><linearGradient id="linear0" x1="0%" x2="100%" y1="0%" y2="100%"><stop offset="0%" style="stop-color:#e5ff00; stop-opacity:1"/><stop offset="50%" style="stop-color:#0073ff; stop-opacity:1"/><stop offset="100%" style="stop-color:#ff0000; stop-opacity:1"/></linearGradient></defs><g id="surface1"><path style=" stroke:none;fill-rule:nonzero;fill:url(#linear0);" d="M 3.164062 3.976562 L 3.164062 9.628906 L 24.9375 9.628906 L 24.9375 3.976562 Z M 29.777344 3.976562 L 29.777344 6.804688 L 33.40625 6.804688 L 43.082031 32.238281 L 32.195312 57.671875 L 29.777344 57.671875 L 29.777344 60.496094 L 39.453125 60.496094 L 39.453125 57.671875 L 35.824219 57.671875 L 44.777344 36.757812 L 52.761719 57.671875 L 49.132812 57.671875 L 49.132812 60.496094 L 61.230469 60.496094 L 61.230469 57.671875 L 58.808594 57.671875 L 48.164062 29.410156 L 57.601562 6.804688 L 61.230469 6.804688 L 61.230469 3.976562 L 49.132812 3.976562 L 49.132812 6.804688 L 53.972656 6.804688 L 46.289062 24.757812 L 39.453125 6.804688 L 44.292969 6.804688 L 44.292969 3.976562 Z M 3.164062 12.457031 L 3.164062 18.109375 L 32.414062 18.109375 L 30.265625 12.457031 Z M 3.164062 20.933594 L 3.164062 26.585938 L 35.640625 26.585938 L 33.492188 20.933594 Z M 3.164062 29.410156 L 3.164062 35.0625 L 36.464844 35.0625 L 37.734375 32.09375 L 36.714844 29.410156 Z M 3.164062 37.890625 L 3.164062 43.542969 L 32.835938 43.542969 L 35.253906 37.890625 Z M 3.164062 46.367188 L 3.164062 52.019531 L 29.207031 52.019531 L 31.625 46.367188 Z M 3.164062 54.84375 L 3.164062 60.496094 L 24.9375 60.496094 L 24.9375 54.84375 Z M 3.164062 54.84375 "/></g></svg>
