<svg xmlns="http://www.w3.org/2000/svg" xmlns:xlink="http://www.w3.org/1999/xlink" width="64" height="64" viewBox="0 0 64 64" version="1.1"><defs><linearGradient id="linear0" x1="0%" x2="0%" y1="0%" y2="100%"><stop offset="0%" style="stop-color:#00b54e; stop-opacity:1"/><stop offset="50%" style="stop-color:#ffd000; stop-opacity:1"/><stop offset="100%" style="stop-color:#ff00bb; stop-opacity:1"/></linearGradient></defs><g id="surface1"><path style="fill-rule:evenodd;fill:url(#linear0);stroke-width:4.449;stroke-linecap:butt;stroke-linejoin:miter;stroke:url(#linear0);stroke-miterlimit:4;" d="M 210.809736 107.186399 C 208.660232 107.251154 206.252788 107.81236 203.630394 108.848431 C 182.99516 116.532631 199.847268 162.270889 201.17996 168.185133 C 202.405177 173.624511 192.00158 173.063305 190.024036 170.688973 C 185.660544 165.335935 171.194385 117.590288 154.148821 126.116297 C 130.246341 139.304629 152.773139 180.466902 148.001241 181.805162 C 139.123791 186.748088 139.661167 198.878763 132.567805 208.721446 C 124.270721 220.593104 78.163869 211.743323 41.751279 204.944101 C 37.624232 220.657858 32.400938 236.911236 32.400938 253.941668 C 32.400938 302.852896 45.534405 349.476132 75.47699 383.493826 C 119.821249 383.191639 162.897301 375.226836 164.058033 374.773554 C 163.864578 374.385027 235.743978 408.553815 241.999033 404.474282 C 257.754894 387.400681 212.120933 363.376763 219.708681 353.749929 C 223.061906 348.720663 275.273349 372.615071 277.874248 366.096452 C 281.614384 354.807585 253.627848 331.085856 249.41482 324.070785 C 245.739169 317.595336 244.965348 307.126693 254.380174 300.564904 C 263.773504 294.0247 359.83482 257.244147 355.815248 228.816924 C 348.850857 177.164423 233.95989 173.775604 232.089822 169.437053 C 231.27301 167.559173 236.281354 106.344591 210.809736 107.186399 Z M 330.429611 141.463112 C 328.538048 142.283335 320.842825 182.02101 324.561466 183.834136 C 327.871702 186.316391 333.653866 143.751104 330.623066 141.527866 C 330.558581 141.463112 330.494096 141.441527 330.429611 141.463112 Z M 358.846048 146.902489 C 354.504051 146.81615 331.353897 183.790966 336.663171 187.719405 C 339.973407 190.180076 360.587146 148.435012 359.189969 147.031998 C 359.103989 146.945659 358.975018 146.902489 358.846048 146.902489 Z M 358.846048 146.902489 " transform="matrix(0.181728,0,0,0.180972,-14.466283,-14.155549)"/></g></svg>
