<svg xmlns="http://www.w3.org/2000/svg" xmlns:xlink="http://www.w3.org/1999/xlink" width="64" height="64" viewBox="0 0 64 64" version="1.1"><defs><linearGradient id="linear0" x1="0%" x2="100%" y1="0%" y2="100%"><stop offset="0%" style="stop-color:#ae00ff; stop-opacity:1"/><stop offset="100%" style="stop-color:#0084ff; stop-opacity:1"/></linearGradient></defs><g id="surface1"><path style=" stroke:none;fill-rule:nonzero;fill:url(#linear0);" d="M 15.179688 8.613281 C 13.964844 8.609375 12.644531 8.734375 11.355469 9.730469 C 10.484375 10.414062 10.179688 11.488281 10.183594 12.597656 C 10.191406 13.703125 10.601562 14.945312 11.597656 15.789062 L 29.003906 30.554688 C 29.941406 31.351562 31.101562 31.71875 32.242188 31.71875 C 33.390625 31.71875 34.535156 31.351562 35.464844 30.554688 L 52.871094 15.789062 C 53.867188 14.945312 54.28125 13.703125 54.285156 12.597656 C 54.292969 11.488281 53.988281 10.414062 53.117188 9.730469 C 51.835938 8.742188 50.523438 8.570312 49.269531 8.613281 C 37.378906 8.992188 27.667969 8.679688 15.179688 8.613281 Z M 15.167969 11.007812 C 27.621094 11.070312 37.363281 11.386719 49.324219 11.007812 C 50.421875 10.976562 50.957031 11.007812 51.820312 11.675781 C 51.816406 11.671875 52.078125 12.078125 52.078125 12.574219 C 52.078125 13.078125 51.910156 13.5625 51.511719 13.902344 L 34.105469 28.671875 C 33.628906 29.074219 32.945312 29.324219 32.242188 29.324219 C 31.539062 29.324219 30.84375 29.074219 30.363281 28.671875 L 12.960938 13.902344 C 12.5625 13.5625 12.390625 13.078125 12.390625 12.574219 C 12.390625 12.078125 12.660156 11.671875 12.652344 11.675781 C 13.496094 11.019531 14.035156 11.003906 15.167969 11.007812 Z M 58.027344 16.277344 C 57.8125 16.296875 57.609375 16.378906 57.441406 16.519531 L 35.074219 35.511719 C 33.5625 36.792969 30.859375 36.792969 29.347656 35.511719 L 7.015625 16.574219 C 6.765625 16.367188 6.449219 16.285156 6.132812 16.351562 C 3.523438 16.871094 1.566406 19.367188 1.566406 22.332031 L 1.566406 49.359375 C 1.566406 52.710938 4.085938 55.4375 7.171875 55.4375 L 57.613281 55.4375 C 60.699219 55.4375 63.199219 52.710938 63.199219 49.359375 L 63.199219 22.332031 C 63.199219 19.21875 61.050781 16.617188 58.25 16.277344 C 58.175781 16.265625 58.097656 16.265625 58.027344 16.277344 Z M 58.371094 18.78125 C 59.871094 19.167969 60.992188 20.570312 60.992188 22.332031 L 60.992188 49.359375 C 60.992188 51.417969 59.507812 53.042969 57.613281 53.042969 L 7.171875 53.042969 C 5.273438 53.042969 3.773438 51.417969 3.773438 49.359375 L 3.773438 22.332031 C 3.773438 20.671875 4.753906 19.332031 6.121094 18.859375 L 27.988281 37.398438 C 30.398438 39.445312 34.019531 39.445312 36.433594 37.398438 Z M 58.371094 18.78125 "/></g></svg>
