<svg xmlns="http://www.w3.org/2000/svg" xmlns:xlink="http://www.w3.org/1999/xlink" width="64" height="64" viewBox="0 0 64 64" version="1.1"><defs><linearGradient id="linear0" x1="0%" x2="0%" y1="0%" y2="100%"><stop offset="0%" style="stop-color:#00b54e; stop-opacity:1"/><stop offset="50%" style="stop-color:#ffd000; stop-opacity:1"/><stop offset="100%" style="stop-color:#ff00bb; stop-opacity:1"/></linearGradient></defs><g id="surface1"><path style=" stroke:none;fill-rule:nonzero;fill:url(#linear0);" d="M 32.234375 1.847656 C 15.53125 1.847656 2.03125 15.476562 2.03125 32.261719 C 2.03125 49.042969 15.53125 62.675781 32.234375 62.675781 C 48.933594 62.675781 62.5 49.042969 62.5 32.261719 C 62.5 15.476562 48.933594 1.847656 32.234375 1.847656 Z M 21.519531 13.085938 C 22.585938 13.042969 23.523438 13.183594 23.925781 13.496094 C 26.039062 15.15625 27.136719 17.996094 26.558594 20.320312 C 25.980469 22.636719 28.519531 24.085938 30.832031 22.203125 C 33.140625 20.316406 39.394531 16.347656 43.007812 14.027344 C 46.617188 11.703125 50.839844 15.070312 45.644531 18.550781 C 40.445312 22.039062 30.121094 29.671875 27.375 31.847656 C 24.632812 34.023438 22.488281 33.484375 20.46875 32.609375 C 18.449219 31.746094 18.886719 29.132812 20.46875 28.558594 C 22.058594 27.96875 24.074219 25.980469 22.34375 24.671875 C 20.609375 23.367188 18.914062 23.308594 16.609375 20.554688 C 14.300781 17.796875 15.597656 16.210938 16.898438 14.613281 C 17.671875 13.65625 19.761719 13.152344 21.519531 13.085938 Z M 46.339844 29.378906 C 50.480469 28.953125 49.90625 32.34375 45.644531 33.558594 C 41.773438 34.648438 39.886719 34.859375 37.617188 35.734375 C 35.554688 36.53125 36.03125 37.214844 37.617188 38.140625 C 40.15625 39.625 44.023438 41.375 46.695312 43.082031 C 49.367188 44.789062 48.332031 47.207031 45.171875 48.667969 C 42.011719 50.140625 32.71875 51.859375 29.304688 51.324219 C 25.636719 50.746094 24.464844 47.621094 29.304688 47.914062 C 33.027344 48.132812 33.492188 47.710938 35.917969 46.730469 C 38.351562 45.757812 37.304688 44.554688 34.460938 42.316406 C 33.363281 41.460938 30.617188 40.429688 29.015625 39.496094 C 27.894531 38.839844 26.441406 35.214844 31.296875 33.261719 C 36.160156 31.308594 41.5 29.878906 46.339844 29.378906 Z M 46.339844 29.378906 "/></g></svg>
