<svg xmlns="http://www.w3.org/2000/svg" xmlns:xlink="http://www.w3.org/1999/xlink" width="64" height="64" viewBox="0 0 64 64" version="1.1"><defs><linearGradient id="linear0" x1="0%" x2="100%" y1="0%" y2="100%"><stop offset="0%" style="stop-color:#00b54e; stop-opacity:1"/><stop offset="100%" style="stop-color:#0073ff; stop-opacity:1"/></linearGradient></defs><g id="surface1"><path style="fill:none;stroke-width:0.1;stroke-linecap:butt;stroke-linejoin:miter;stroke:url(#linear0);stroke-miterlimit:4;" d="M 255.992301 -68.557298 L 255.992301 580.563337 " transform="matrix(0.181728,0,0,0.180972,-14.466283,-14.155549)"/><path style=" stroke:none;fill-rule:evenodd;fill:url(#linear0);" d="M 22.464844 16.0625 C 17.15625 16.0625 12.828125 20.375 12.828125 25.664062 L 12.828125 29.085938 L 9.253906 29.085938 C 3.945312 29.085938 -0.386719 33.394531 -0.386719 38.683594 C -0.386719 43.96875 3.945312 48.285156 9.253906 48.285156 L 22.464844 48.285156 C 27.46875 48.285156 31.589844 44.460938 32.054688 39.597656 C 32.523438 44.460938 36.644531 48.285156 41.648438 48.285156 L 54.855469 48.285156 C 60.167969 48.285156 64.5 43.96875 64.5 38.683594 C 64.5 33.394531 60.167969 29.085938 54.855469 29.085938 L 51.285156 29.085938 L 51.285156 25.664062 C 51.285156 20.375 46.957031 16.0625 41.648438 16.0625 C 36.644531 16.0625 32.515625 19.890625 32.054688 24.753906 C 31.589844 19.890625 27.46875 16.0625 22.464844 16.0625 "/></g></svg>
