<svg xmlns="http://www.w3.org/2000/svg" xmlns:xlink="http://www.w3.org/1999/xlink" width="64" height="64" viewBox="0 0 64 64" version="1.1"><defs><linearGradient id="linear0" x1="0%" x2="100%" y1="0%" y2="100%"><stop offset="0%" style="stop-color:#00b54e; stop-opacity:1"/><stop offset="100%" style="stop-color:#0073ff; stop-opacity:1"/></linearGradient></defs><g id="surface1"><path style=" stroke:none;fill-rule:nonzero;fill:url(#linear0);" d="M 24.878906 3.660156 C 22.835938 3.660156 21.191406 5.230469 21.191406 7.179688 L 21.191406 29.476562 L 23.496094 29.476562 L 23.496094 8.351562 L 41.941406 8.351562 L 41.941406 29.476562 L 44.25 29.476562 L 44.25 7.179688 C 44.25 5.230469 42.605469 3.660156 40.558594 3.660156 Z M 31.566406 11.875 L 31.566406 13.773438 C 31 13.90625 30.457031 14.136719 29.964844 14.449219 L 28.644531 13.109375 L 27.015625 14.769531 L 28.328125 16.105469 C 28.019531 16.609375 27.796875 17.164062 27.667969 17.742188 L 25.800781 17.742188 L 25.800781 20.089844 L 27.667969 20.089844 C 27.796875 20.667969 28.023438 21.21875 28.335938 21.71875 L 27.015625 23.0625 L 28.644531 24.722656 L 29.964844 23.378906 C 30.457031 23.695312 31 23.925781 31.566406 24.058594 L 31.566406 25.957031 L 33.871094 25.957031 L 33.871094 24.058594 C 34.441406 23.925781 34.980469 23.695312 35.476562 23.378906 L 36.792969 24.722656 L 38.425781 23.0625 L 37.109375 21.726562 C 37.417969 21.222656 37.644531 20.667969 37.773438 20.089844 L 39.636719 20.089844 L 39.636719 17.742188 L 37.773438 17.742188 C 37.640625 17.164062 37.414062 16.613281 37.105469 16.109375 L 38.425781 14.769531 L 36.792969 13.109375 L 35.480469 14.445312 C 34.984375 14.132812 34.441406 13.902344 33.871094 13.773438 L 33.871094 11.875 Z M 6.203125 13.046875 C 4.929688 13.046875 3.898438 14.097656 3.898438 15.394531 C 3.898438 16.230469 4.339844 17.007812 5.050781 17.425781 L 5.050781 35.585938 C 4.304688 36.601562 3.898438 37.832031 3.898438 39.097656 C 3.898438 42.339844 6.480469 44.964844 9.664062 44.964844 L 9.664062 56.402344 C 18.886719 61.195312 46.554688 61.195312 55.777344 56.335938 L 55.777344 44.964844 C 58.960938 44.964844 61.542969 42.339844 61.542969 39.097656 C 61.539062 37.832031 61.132812 36.601562 60.386719 35.585938 L 60.386719 17.425781 C 61.101562 17.007812 61.539062 16.230469 61.542969 15.394531 C 61.542969 14.097656 60.507812 13.046875 59.234375 13.046875 C 57.960938 13.046875 56.929688 14.097656 56.929688 15.394531 C 56.933594 16.230469 57.371094 17.003906 58.082031 17.421875 L 58.082031 33.726562 C 57.355469 33.402344 56.570312 33.234375 55.777344 33.230469 L 55.777344 28.300781 C 55.777344 25.050781 53.207031 22.433594 50.011719 22.433594 L 46.554688 22.433594 L 46.554688 27.128906 C 47.832031 27.128906 48.859375 28.175781 48.859375 29.476562 C 48.859375 30.777344 47.832031 31.824219 46.554688 31.824219 L 18.886719 31.824219 C 17.609375 31.824219 16.578125 30.777344 16.578125 29.476562 C 16.578125 28.175781 17.609375 27.128906 18.886719 27.128906 L 18.886719 22.433594 L 15.425781 22.433594 C 12.234375 22.433594 9.664062 25.050781 9.664062 28.300781 L 9.664062 33.230469 C 8.867188 33.234375 8.082031 33.402344 7.355469 33.726562 L 7.355469 17.421875 C 8.066406 17.003906 8.507812 16.230469 8.507812 15.394531 C 8.507812 14.097656 7.476562 13.046875 6.203125 13.046875 M 32.71875 15.980469 C 34.3125 15.980469 35.601562 17.296875 35.601562 18.914062 C 35.601562 20.535156 34.3125 21.847656 32.71875 21.847656 C 31.128906 21.847656 29.835938 20.535156 29.835938 18.914062 C 29.835938 17.296875 31.128906 15.980469 32.71875 15.980469 M 23.496094 36.519531 C 26.679688 36.519531 29.261719 39.144531 29.261719 42.386719 C 29.261719 45.628906 26.679688 48.253906 23.496094 48.253906 C 20.3125 48.253906 17.734375 45.628906 17.734375 42.386719 C 17.734375 39.144531 20.3125 36.519531 23.496094 36.519531 Z M 41.941406 36.519531 C 45.125 36.519531 47.707031 39.144531 47.707031 42.386719 C 47.707031 45.628906 45.125 48.253906 41.941406 48.253906 C 38.757812 48.253906 36.179688 45.628906 36.179688 42.386719 C 36.179688 39.144531 38.757812 36.519531 41.941406 36.519531 Z M 41.941406 36.519531 "/></g></svg>
