<?xml version="1.0" encoding="UTF-8" standalone="no"?>
<svg
   width="64"
   height="64"
   version="1.1"
   id="svg73"
   sodipodi:docname="system-software-install.svg"
   inkscape:version="1.3.2 (091e20ef0f, 2023-11-25)"
   xmlns:inkscape="http://www.inkscape.org/namespaces/inkscape"
   xmlns:sodipodi="http://sodipodi.sourceforge.net/DTD/sodipodi-0.dtd"
   xmlns:xlink="http://www.w3.org/1999/xlink"
   xmlns="http://www.w3.org/2000/svg"
   xmlns:svg="http://www.w3.org/2000/svg"
   xmlns:rdf="http://www.w3.org/1999/02/22-rdf-syntax-ns#"
   xmlns:cc="http://creativecommons.org/ns#"
   xmlns:dc="http://purl.org/dc/elements/1.1/">
  <metadata
     id="metadata77">
    <rdf:RDF>
      <cc:Work
         rdf:about="">
        <dc:format>image/svg+xml</dc:format>
        <dc:type
           rdf:resource="http://purl.org/dc/dcmitype/StillImage" />
      </cc:Work>
    </rdf:RDF>
  </metadata>
  <sodipodi:namedview
     pagecolor="#f5f7fa"
     bordercolor="#666666"
     borderopacity="1"
     objecttolerance="10"
     gridtolerance="10"
     guidetolerance="10"
     inkscape:pageopacity="0"
     inkscape:pageshadow="2"
     inkscape:window-width="1377"
     inkscape:window-height="886"
     id="namedview75"
     showgrid="false"
     inkscape:zoom="4.4470387"
     inkscape:cx="30.35728"
     inkscape:cy="48.459214"
     inkscape:window-x="55"
     inkscape:window-y="98"
     inkscape:window-maximized="0"
     inkscape:current-layer="g877"
     inkscape:document-rotation="0"
     inkscape:pagecheckerboard="0"
     inkscape:showpageshadow="2"
     inkscape:deskcolor="#d1d1d1" />
  <defs
     id="defs29">
    <linearGradient
       id="linearGradient5"
       inkscape:collect="always">
      <stop
         style="stop-color:#984859;stop-opacity:1;"
         offset="0"
         id="stop5" />
      <stop
         style="stop-color:#bf7384;stop-opacity:1;"
         offset="1"
         id="stop6" />
    </linearGradient>
    <inkscape:path-effect
       effect="powerclip"
       id="path-effect1980"
       is_visible="true"
       lpeversion="1"
       inverse="true"
       flatten="false"
       hide_clip="false"
       message="Use fill-rule evenodd on &lt;b&gt;fill and stroke&lt;/b&gt; dialog if no flatten result after convert clip to paths." />
    <clipPath
       clipPathUnits="userSpaceOnUse"
       id="clipPath1976">
      <rect
         x="9.6784649"
         y="9.925169"
         width="43.343258"
         height="44.613056"
         rx="8.6689987"
         ry="8.9229689"
         fill="url(#linearGradient862)"
         stroke-width="2.96772"
         id="rect1978"
         style="display:none;fill:#333333;fill-opacity:1"
         d="m 18.347464,9.925169 h 26.00526 c 4.802625,0 8.668999,3.979644 8.668999,8.922969 v 26.767118 c 0,4.943325 -3.866374,8.922969 -8.668999,8.922969 h -26.00526 c -4.802626,0 -8.6689991,-3.979644 -8.6689991,-8.922969 V 18.848138 c 0,-4.943325 3.8663731,-8.922969 8.6689991,-8.922969 z" />
      <path
         id="lpe_path-effect1980"
         style="fill:#333333;fill-opacity:1"
         class="powerclip"
         d="M 2.0757722,2.2464043 H 60.623896 V 62.216811 H 2.0757722 Z M 18.347464,9.925169 c -4.802626,0 -8.6689991,3.979644 -8.6689991,8.922969 v 26.767118 c 0,4.943325 3.8663731,8.922969 8.6689991,8.922969 h 26.00526 c 4.802625,0 8.668999,-3.979644 8.668999,-8.922969 V 18.848138 c 0,-4.943325 -3.866374,-8.922969 -8.668999,-8.922969 z" />
    </clipPath>
    <linearGradient
       inkscape:collect="always"
       xlink:href="#linearGradient5"
       id="linearGradient6"
       x1="33.785751"
       y1="12.971354"
       x2="33.375801"
       y2="52.289253"
       gradientUnits="userSpaceOnUse"
       gradientTransform="matrix(1.1,0,0,1.1,-3.1845928,-3.2341119)" />
    <linearGradient
       id="d"
       y1="1050.34"
       y2="1038.36"
       gradientUnits="userSpaceOnUse"
       x2="0"
       gradientTransform="matrix(-2.5774727,0,0,2.5806818,51.999856,-2661.7402)">
      <stop
         stop-color="#c61423"
         id="stop7" />
      <stop
         offset="1"
         stop-color="#dc2b41"
         id="stop8" />
    </linearGradient>
  </defs>
  <g
     id="g877"
     transform="matrix(1.1,0,0,1.1,-3.1845928,-3.2065454)">
    <path
       d="m 18.347203,7.2464043 c -6.244452,0 -11.2714308,5.1741617 -11.2714308,11.6016437 v 26.767119 c 0,6.427394 5.0268918,11.601644 11.2714308,11.601644 h 26.005262 c 6.244452,0 11.271431,-5.174161 11.271431,-11.601644 V 18.848048 c 0,-6.427393 -5.026893,-11.6016437 -11.271431,-11.6016437 z"
       fill="url(#linearGradient910)"
       stroke-width="3.32418"
       id="path33"
       style="fill:#4d4d4d;fill-opacity:1"
       clip-path="url(#clipPath1976)"
       inkscape:path-effect="#path-effect1980"
       inkscape:original-d="m 18.347203,7.2464043 c -6.244452,0 -11.2714308,5.1741617 -11.2714308,11.6016437 v 26.767119 c 0,6.427394 5.0268918,11.601644 11.2714308,11.601644 h 26.005262 c 6.244452,0 11.271431,-5.174161 11.271431,-11.601644 V 18.848048 c 0,-6.427393 -5.026893,-11.6016437 -11.271431,-11.6016437 z"
       transform="matrix(1.089,0,0,1.089,-2.2940414,-2.7591018)" />
    <rect
       x="8.245779"
       y="8.0493994"
       width="47.200809"
       height="48.583622"
       rx="9.511797"
       ry="9.6776171"
       fill="url(#linearGradient862)"
       stroke-width="3.23184"
       id="rect35-7"
       style="opacity:1;fill:#f9f9f9;fill-opacity:1" />
    <rect
       x="10.60582"
       y="10.47858"
       width="42.480732"
       height="43.725258"
       rx="9.0337515"
       ry="8.819849"
       fill="url(#linearGradient862)"
       stroke-width="2.90867"
       id="rect35-7-3"
       style="fill:url(#linearGradient6)" />
    <path
       id="path27-6"
       style="fill:#000000;fill-opacity:1;stroke:none;stroke-width:0.890999;stroke-dasharray:none;stroke-dashoffset:2.2;stroke-opacity:0.3;opacity:0.2"
       d="m 36.72998,23.98746 c -0.336166,0.0035 -0.674538,0.05808 -0.866636,0.140958 -0.226312,0.09765 -1.672067,1.491084 -5.135431,4.949227 -5.304145,5.296146 -5.161536,5.128321 -5.161536,6.085599 0,0.937495 -0.12375,0.791484 5.081486,6.005549 2.734556,2.739196 4.870379,4.818323 5.044939,4.909202 0.166494,0.08668 0.449937,0.185511 0.629965,0.221017 0.387268,0.07637 0.748797,0.03908 1.233827,-0.128801 0.303694,-0.105017 1.044388,-0.811332 5.175458,-4.933547 5.328815,-5.31739 5.169289,-5.128096 5.168494,-6.116919 -7.64e-4,-0.956532 0.120032,-0.813503 -5.098884,-6.033398 -5.254948,-5.255934 -5.080604,-5.109116 -6.071682,-5.098887 z m -9.533003,0.118338 c -0.403645,-0.01012 -0.819993,0.0616 -1.099828,0.207093 -0.475932,0.247453 -9.832636,9.654639 -10.004606,10.058555 -0.187008,0.439163 -0.190421,1.244366 -0.0069,1.733274 0.130093,0.34669 0.708876,0.955879 4.843071,5.102365 2.582582,2.590265 4.813943,4.78446 4.957929,4.874396 0.143983,0.08996 0.410803,0.210581 0.59168,0.269743 0.426536,0.139487 1.114582,0.09051 1.57491,-0.113122 0.244357,-0.108097 0.727725,-0.515983 1.472239,-1.244268 l 1.106816,-1.082416 -3.654493,-3.668419 c -4.09387,-4.107442 -3.953492,-3.927509 -3.948592,-5.044939 0.0021,-0.458673 0.04323,-0.669743 0.184465,-0.944947 0.123216,-0.240094 1.347784,-1.523633 3.798931,-3.979915 l 3.617937,-3.62491 -1.164216,-1.146814 c -1.008639,-0.99339 -1.219775,-1.166512 -1.587094,-1.287773 -0.202338,-0.0668 -0.439986,-0.101805 -0.682173,-0.107899 z" />
    <path
       id="path27"
       style="fill:#f9f9f9;fill-opacity:1;stroke:none;stroke-width:0.890999;stroke-dasharray:none;stroke-dashoffset:2.2;stroke-opacity:0.3"
       d="m 36.72998,22.169278 c -0.336166,0.0035 -0.674538,0.05808 -0.866636,0.140958 -0.226312,0.09765 -1.672067,1.491084 -5.135431,4.949227 -5.304145,5.296146 -5.161536,5.128321 -5.161536,6.085599 0,0.937495 -0.12375,0.791484 5.081486,6.005549 2.734556,2.739196 4.870379,4.818323 5.044939,4.909202 0.166494,0.08668 0.449937,0.185511 0.629965,0.221017 0.387268,0.07637 0.748797,0.03908 1.233827,-0.128801 0.303694,-0.105017 1.044388,-0.811332 5.175458,-4.933547 5.328815,-5.31739 5.169289,-5.128096 5.168494,-6.116919 -7.64e-4,-0.956532 0.120032,-0.813503 -5.098884,-6.033398 -5.254948,-5.255934 -5.080604,-5.109116 -6.071682,-5.098887 z m -9.533003,0.118338 c -0.403645,-0.01012 -0.819993,0.0616 -1.099828,0.207093 -0.475932,0.247453 -9.832636,9.654639 -10.004606,10.058555 -0.187008,0.439163 -0.190421,1.244366 -0.0069,1.733274 0.130093,0.34669 0.708876,0.955879 4.843071,5.102365 2.582582,2.590265 4.813943,4.78446 4.957929,4.874396 0.143983,0.08996 0.410803,0.210581 0.59168,0.269743 0.426536,0.139487 1.114582,0.09051 1.57491,-0.113122 0.244357,-0.108097 0.727725,-0.515983 1.472239,-1.244268 l 1.106816,-1.082416 -3.654493,-3.668419 c -4.09387,-4.107442 -3.953492,-3.927509 -3.948592,-5.044939 0.0021,-0.458673 0.04323,-0.669743 0.184465,-0.944947 0.123216,-0.240094 1.347784,-1.523633 3.798931,-3.979915 l 3.617937,-3.62491 -1.164216,-1.146814 c -1.008639,-0.99339 -1.219775,-1.166512 -1.587094,-1.287773 -0.202338,-0.0668 -0.439986,-0.101805 -0.682173,-0.107899 z" />
    <path
       style="fill:#f5f7fa;stroke-width:0.204426;fill-opacity:1"
       d=""
       id="path3" />
  </g>
</svg>
