<?xml version="1.0" encoding="UTF-8" standalone="no"?>
<svg
   width="64"
   version="1.1"
   height="64"
   id="svg17"
   sodipodi:docname="org.kde.dolphin_su.svg"
   inkscape:version="1.4 (unknown)"
   xmlns:inkscape="http://www.inkscape.org/namespaces/inkscape"
   xmlns:sodipodi="http://sodipodi.sourceforge.net/DTD/sodipodi-0.dtd"
   xmlns:xlink="http://www.w3.org/1999/xlink"
   xmlns="http://www.w3.org/2000/svg"
   xmlns:svg="http://www.w3.org/2000/svg"
   xmlns:rdf="http://www.w3.org/1999/02/22-rdf-syntax-ns#"
   xmlns:cc="http://creativecommons.org/ns#"
   xmlns:dc="http://purl.org/dc/elements/1.1/">
  <sodipodi:namedview
     pagecolor="#ffffff"
     bordercolor="#666666"
     borderopacity="1"
     objecttolerance="10"
     gridtolerance="10"
     guidetolerance="10"
     inkscape:pageopacity="0"
     inkscape:pageshadow="2"
     inkscape:window-width="1920"
     inkscape:window-height="996"
     id="namedview19"
     showgrid="false"
     inkscape:zoom="6.9384852"
     inkscape:cx="23.13185"
     inkscape:cy="59.306893"
     inkscape:window-x="0"
     inkscape:window-y="0"
     inkscape:window-maximized="1"
     inkscape:current-layer="layer1"
     inkscape:document-rotation="0"
     inkscape:showpageshadow="2"
     inkscape:pagecheckerboard="0"
     inkscape:deskcolor="#d1d1d1">
    <inkscape:grid
       type="xygrid"
       id="grid931"
       originx="0"
       originy="0"
       spacingy="1"
       spacingx="1"
       units="px"
       visible="false" />
  </sodipodi:namedview>
  <defs
     id="defs5455">
    <linearGradient
       inkscape:collect="always"
       id="linearGradient4">
      <stop
         style="stop-color:#c83771;stop-opacity:1"
         offset="0"
         id="stop3" />
      <stop
         style="stop-color:#ff5555;stop-opacity:1"
         offset="1"
         id="stop4" />
    </linearGradient>
    <clipPath
       clipPathUnits="userSpaceOnUse"
       id="clipPath79425-9-5-3">
      <rect
         style="opacity:0.5;fill:#000000;fill-opacity:1;stroke:none;stroke-width:0.855869;stroke-dasharray:none;stroke-opacity:1;paint-order:stroke fill markers"
         id="rect79427-1-9-6"
         width="26.417742"
         height="29.037542"
         x="-16.227774"
         y="-6.4845476" />
    </clipPath>
    <clipPath
       clipPathUnits="userSpaceOnUse"
       id="clipPath79425-9-5-5">
      <rect
         style="opacity:0.5;fill:#000000;fill-opacity:1;stroke:none;stroke-width:0.855869;stroke-dasharray:none;stroke-opacity:1;paint-order:stroke fill markers"
         id="rect79427-1-9-62"
         width="26.417742"
         height="29.037542"
         x="-16.227774"
         y="-6.4845476" />
    </clipPath>
    <linearGradient
       inkscape:collect="always"
       xlink:href="#linearGradient4"
       id="linearGradient1419-3"
       x1="0.52915627"
       y1="5.0269842"
       x2="16.403845"
       y2="5.0269842"
       gradientUnits="userSpaceOnUse"
       gradientTransform="matrix(3.779602,0,0,4.3934934,384.57143,478.68641)" />
    <clipPath
       clipPathUnits="userSpaceOnUse"
       id="clipPath79425-9-5-5-6">
      <rect
         style="opacity:0.5;fill:#000000;fill-opacity:1;stroke:none;stroke-width:0.855869;stroke-dasharray:none;stroke-opacity:1;paint-order:stroke fill markers"
         id="rect79427-1-9-62-7"
         width="26.417742"
         height="29.037542"
         x="-16.227774"
         y="-6.4845476" />
    </clipPath>
    <linearGradient
       inkscape:collect="always"
       xlink:href="#linearGradient4"
       id="linearGradient1662-5"
       gradientUnits="userSpaceOnUse"
       gradientTransform="matrix(3.7757185,0,0,4.4355339,384.57656,477.99693)"
       x1="9.3259869"
       y1="14.831515"
       x2="9.3259869"
       y2="4.269978" />
  </defs>
  <metadata
     id="metadata5458">
    <rdf:RDF>
      <cc:Work
         rdf:about="">
        <dc:format>image/svg+xml</dc:format>
        <dc:type
           rdf:resource="http://purl.org/dc/dcmitype/StillImage" />
      </cc:Work>
    </rdf:RDF>
  </metadata>
  <g
     inkscape:label="Capa 1"
     inkscape:groupmode="layer"
     id="layer1"
     transform="translate(-384.57143,-483.798)">
    <g
       id="g1"
       transform="translate(-1.6201835e-6,-3)">
      <path
         id="path32082-9-2"
         style="fill:url(#linearGradient1419-3);fill-opacity:1;stroke:none;stroke-width:5.45466;stroke-linecap:round;stroke-linejoin:round;stroke-opacity:0.03"
         d="m 394.07143,493.798 c -4,0 -7.5,3.56834 -7.5,8.32618 v 5.9473 c 0,0 2,-5.9473 5,-5.9473 h 8 12 6 24 c 3,0 5,2.3789 5,5.9473 v 0 0 -5.9473 c 0,-4.75784 -3.5,-8.32618 -7.5,-8.32618 h -23.57114 -5.92886 -9 z"
         sodipodi:nodetypes="sccsccccccccccccs" />
      <rect
         x="410.57166"
         y="494.98724"
         width="12"
         height="2.3789105"
         ry="1.1646185"
         stroke-width="3.6451"
         style="fill:#222638;fill-opacity:1;paint-order:stroke markers fill"
         id="rect12-5-9-3-9-9"
         rx="1.0248643" />
      <path
         d="m 418.30476,498.55583 h -3.46666 -4.33334 -16.93333 c -2,0 -3,1.18942 -3,3.56835 v 0 0 h 52 v 0 0 c 0,-2.37893 -1,-3.56835 -3,-3.56835 z"
         style="fill:#222638;fill-opacity:1;stroke-width:2.49355;paint-order:markers stroke fill"
         id="path8-7-2-9-6-1-7-5-1"
         sodipodi:nodetypes="cccccccccccc"
         opacity="0.6" />
      <path
         style="display:inline;fill:#4f4f4f;fill-opacity:1;stroke:none;stroke-width:2.74813;stroke-linecap:round;stroke-linejoin:round;stroke-opacity:0.03"
         d="m -14.026297,2.5011118 6.1666725,4.13e-5 H -3.014907 0.06809547 L 7.9884881,2.5011118 C 9.3097749,2.5157128 10.189967,3.444358 10.189967,4.874457 l -2.06e-4,11.759984 c 0.0082,1.415373 -0.872618,2.358956 -2.6343739,2.358956 H -14.02563 c -1.321306,0 -2.202145,-0.943583 -2.202145,-2.358956 V 4.874457 c 0,-1.4240071 0.880591,-2.3733452 2.201478,-2.3733452 z"
         id="path1611-1-8-0-7-2-3"
         clip-path="url(#clipPath79425-9-5-5-6)"
         transform="matrix(2.271201,0,0,2.5029336,423.42797,495.49245)"
         sodipodi:nodetypes="cccccccssccc" />
      <path
         d="m 418.57143,501.75255 h -4 -5 -18.00001 c -3,0 -4.99999,2.33587 -4.99999,5.83964 v 30.36622 c 0,3.50376 1.99999,5.83959 4.99999,5.83959 h 50.00001 c 3,0 5,-2.33583 5,-5.83959 v -30.36622 c 0,-3.50377 -2,-5.83964 -5,-5.83964 z"
         style="fill:url(#linearGradient1662-5);fill-opacity:1;stroke-width:4.09136;paint-order:markers stroke fill"
         id="path8-7-2-9-6-1-9-2"
         sodipodi:nodetypes="ccccsssssscc"
         opacity="0.6" />
      <path
         d="m 386.57143,522.75591 17.1,20.52317 h -10e-6 0.65001 l -17.75,-21.22526 v 0 0 z"
         id="path2653-4-7"
         style="fill:#bac8df;fill-opacity:1;stroke-width:0.512663"
         sodipodi:nodetypes="cccccccc" />
      <path
         d="m 386.57143,529.29088 11.48548,14.03015 -1e-5,0.0113 0.64953,-0.006 v 0.006 L 386.57657,528.588 v 0 0 z"
         id="path2653-4-3-0"
         style="fill:#bac8df;fill-opacity:1;stroke-width:0.351818"
         sodipodi:nodetypes="ccccccccc" />
    </g>
    <path
       id="path1-6"
       style="font-variation-settings:normal;display:inline;vector-effect:none;fill:#ffffff;fill-opacity:0.4;stroke-width:0.882154;stroke-linecap:butt;stroke-linejoin:miter;stroke-miterlimit:4;stroke-dasharray:none;stroke-dashoffset:0;stroke-opacity:1;-inkscape-stroke:none;stop-color:#000000"
       d="m 425.1909,520.29724 c -2.81948,0.0145 -6.31091,0.63729 -10.55664,2.43035 -9.70454,4.09842 -12.3399,11.37544 -19.42383,17.29357 l 33.17578,0.0152 c 0.40751,-6.05964 4.20506,-7.86039 10.11719,-13.15333 0,0 3.74379,-2.57416 2.9082,-4.99746 -0.88465,-2.56558 -7.73537,0.54886 -8.5,0.16718 -1.58132,-0.78933 -4.09566,-1.77416 -7.7207,-1.75549 z m 15.43945,2.33459 c -1.7727,1.80819 -3.9733,3.55794 -6.96484,5.70272 -2.91756,2.09173 -7.93093,5.06781 -8.16407,4.75428 -0.0635,-0.0853 5.14292,-3.18231 7.65821,-4.98988 2.71178,-1.94877 5.07909,-3.67174 7.4707,-5.46712 z m -21.48047,9.07388 c 0.75939,0 1.375,0.58795 1.375,1.31321 0,0.72525 -0.61561,1.3132 -1.375,1.3132 -0.75939,0 -1.375,-0.58795 -1.375,-1.3132 0,-0.72526 0.61561,-1.31321 1.375,-1.31321 z"
       sodipodi:nodetypes="cscccsccccscscsssss" />
  </g>
</svg>
