<svg xmlns="http://www.w3.org/2000/svg" width="16" height="16" version="1.1"><defs><linearGradient id="linear0" x1="0%" x2="0%" y1="0%" y2="100%"><stop offset="0%" style="stop-color:#00b54e; stop-opacity:1"/><stop offset="50%" style="stop-color:#ffd000; stop-opacity:1"/><stop offset="100%" style="stop-color:#ff00bb; stop-opacity:1"/></linearGradient></defs>
 <path fill="url(#linear0)"  d="M 6 1 C 5.446 1 5 1.446 5 2 L 5 3 L 9 3 L 13 7 L 13 13 L 14 13 C 14.554 13 15 12.554 15 12 L 15 5 L 11 1 L 6 1 z"/>
 <path fill="url(#linear0)"  d="M 3 4 C 2.446 4 2 4.446 2 5 L 2 15 C 2 15.554 2.446 16 3 16 L 11 16 C 11.554 16 12 15.554 12 15 L 12 8 L 8 4 L 3 4 z"/>
</svg>
