/* XPM */
static char * bottom_right_inactive_xpm[] = {
"16 16 3 1",
" 	c None",
".	c #0A4ABA s inactive_color_1",
"+	c #ffffff s inactive_text_color",
"            ...+",
"            ...+",
"            ...+",
"            ...+",
"            ...+",
"            ...+",
"            ...+",
"            ...+",
"            ...+",
"            ...+",
"            ...+",
"            ...+",
"...............+",
"...............+",
"...............+",
"++++++++++++++++"};
