/* XPM */
static char * bottom_left_inactive_xpm[] = {
"13 13 3 1",
" 	c None",
".	c #0A4ABA s inactive_color_1",
"+	c #ffffff s inactive_text_color",
"+...         ",
"+...         ",
"+...         ",
"+...         ",
"+...         ",
"+...         ",
"+...         ",
"+...         ",
"+...         ",
"+............",
"+............",
"+............",
"+++++++++++++"};
