/* XPM */
static char * close_active_xpm[] = {
"20 22 4 1",
" 	c None",
".	c #FFFFFF s active_text_color",
"+	c #ff7b53",
"@	c #FFFFFF",
"                    ",
"                    ",
"  ................  ",
" .++++++++++++++++. ",
".++++++++++++++++++.",
".++++++++++++++++++.",
".++++++++++++++++++.",
".++++@@++++++@@++++.",
".++++@@@++++@@@++++.",
".+++++@@@++@@@+++++.",
".++++++@@@@@@++++++.",
".+++++++@@@@+++++++.",
".+++++++@@@@+++++++.",
".++++++@@@@@@++++++.",
".+++++@@@++@@@+++++.",
".++++@@@++++@@@++++.",
".++++@@++++++@@++++.",
".++++++++++++++++++.",
".++++++++++++++++++.",
".++++++++++++++++++.",
" .++++++++++++++++. ",
"  ................  "};
