/* XPM */
static char * title_inactive_xpm[] = {
"5 30 3 1",
" 	c None",
".	c #0A4ABA s inactive_color_1",
"+	c #ffffff s inactive_text_color",
"+++++",
".....",
".....",
".....",
".....",
".....",
".....",
".....",
".....",
".....",
".....",
".....",
".....",
".....",
".....",
".....",
".....",
".....",
".....",
".....",
".....",
".....",
".....",
".....",
".....",
".....",
".....",
".....",
".....",
"....."}:
