/* XPM */
static char * top_right_active_xpm[] = {
"8 30 3 1",
" 	c None",
".	c #0A4ABA s active_color_1",
"+	c #ffffff s active_text_color",
"++++    ",
"....++  ",
"......+ ",
"......+ ",
".......+",
".......+",
".......+",
".......+",
".......+",
".......+",
".......+",
".......+",
".......+",
".......+",
".......+",
".......+",
".......+",
".......+",
".......+",
".......+",
".......+",
".......+",
".......+",
".......+",
".......+",
".......+",
".......+",
".......+",
".......+",
".......+"};
