<?xml version="1.0" encoding="UTF-8" standalone="no"?>
<svg
   xmlns:dc="http://purl.org/dc/elements/1.1/"
   xmlns:cc="http://creativecommons.org/ns#"
   xmlns:rdf="http://www.w3.org/1999/02/22-rdf-syntax-ns#"
   xmlns:svg="http://www.w3.org/2000/svg"
   xmlns="http://www.w3.org/2000/svg"
   xmlns:xlink="http://www.w3.org/1999/xlink"
   xmlns:sodipodi="http://sodipodi.sourceforge.net/DTD/sodipodi-0.dtd"
   xmlns:inkscape="http://www.inkscape.org/namespaces/inkscape"
   width="47.285591"
   height="47.28569"
   version="1.1"
   viewBox="0 0 12.510734 12.51076"
   id="svg12"
   sodipodi:docname="aptana.svg"
   inkscape:version="1.0.1 (3bc2e813f5, 2020-09-07)">
  <style
     id="style899"></style>
  <metadata
     id="metadata74">
    <rdf:RDF>
      <cc:Work
         rdf:about="">
        <dc:format>image/svg+xml</dc:format>
        <dc:type
           rdf:resource="http://purl.org/dc/dcmitype/StillImage" />
      </cc:Work>
    </rdf:RDF>
  </metadata>
  <defs
     id="defs16">
    <linearGradient
       id="c"
       y1="523.79999"
       x1="403.57001"
       y2="536.79999"
       x2="416.57001"
       gradientUnits="userSpaceOnUse"
       gradientTransform="matrix(0.34526714,0,0,0.34526706,-134.80427,-174.63325)">
      <stop
         stop-color="#292c2f"
         id="stop1568" />
      <stop
         offset="1"
         stop-opacity="0"
         id="stop1570" />
    </linearGradient>
    <linearGradient
       xlink:href="#b-2"
       id="linearGradient4189"
       x1="14.369"
       y1="22.521999"
       x2="26.521999"
       y2="22.521999"
       gradientUnits="userSpaceOnUse" />
    <linearGradient
       x1="36"
       gradientUnits="userSpaceOnUse"
       x2="14"
       y2="12"
       y1="44"
       id="b-2">
      <stop
         style="stop-color:#bfc9c9;stop-opacity:1"
         stop-color="#536161"
         id="stop1579" />
      <stop
         style="stop-color:#fbfbfb;stop-opacity:1"
         stop-color="#f4f5f5"
         offset="1"
         id="stop1581" />
    </linearGradient>
    <linearGradient
       xlink:href="#b-2"
       id="linearGradient4428"
       gradientUnits="userSpaceOnUse"
       x1="31.586"
       y1="36.345001"
       x2="1.2029999"
       y2="6.723" />
    <linearGradient
       xlink:href="#b-2"
       id="linearGradient4189-3"
       x1="14.369"
       y1="22.521999"
       x2="26.521999"
       y2="22.521999"
       gradientUnits="userSpaceOnUse"
       gradientTransform="translate(20.841982,61.553822)" />
    <linearGradient
       xlink:href="#b-2"
       id="linearGradient4428-5"
       gradientUnits="userSpaceOnUse"
       x1="31.586"
       y1="36.345001"
       x2="1.2029999"
       y2="6.723"
       gradientTransform="translate(20.841982,61.553822)" />
    <linearGradient
       xlink:href="#b-2"
       id="linearGradient4189-3-3"
       x1="14.369"
       y1="22.521999"
       x2="26.521999"
       y2="22.521999"
       gradientUnits="userSpaceOnUse"
       gradientTransform="translate(4.376802,4.4211693)" />
    <linearGradient
       xlink:href="#b-2"
       id="linearGradient4428-5-5"
       gradientUnits="userSpaceOnUse"
       x1="31.586"
       y1="36.345001"
       x2="1.2029999"
       y2="6.723"
       gradientTransform="translate(4.376802,4.4211693)" />
    <linearGradient
       inkscape:collect="always"
       xlink:href="#linearGradient14"
       id="linearGradient15"
       x1="-9.6850061"
       y1="45.161198"
       x2="11.98815"
       y2="21.735205"
       gradientUnits="userSpaceOnUse"
       gradientTransform="scale(0.26457813)" />
    <linearGradient
       id="linearGradient14"
       inkscape:collect="always">
      <stop
         style="stop-color:#ff9900;stop-opacity:0.34509805;"
         offset="0"
         id="stop12" />
      <stop
         style="stop-color:#ffb685;stop-opacity:0.81568629;"
         offset="1"
         id="stop13" />
    </linearGradient>
    <filter
       id="filter2917-3"
       x="-0.96181148"
       y="-0.66745996"
       width="2.9236228"
       height="2.3349199"
       color-interpolation-filters="sRGB">
      <feGaussianBlur
         stdDeviation="0.2871969"
         id="feGaussianBlur732-5" />
    </filter>
    <filter
       id="filter1"
       x="-0.96181148"
       y="-0.66745996"
       width="2.9236228"
       height="2.3349199"
       color-interpolation-filters="sRGB">
      <feGaussianBlur
         stdDeviation="0.2871969"
         id="feGaussianBlur1" />
    </filter>
    <filter
       id="filter2"
       x="-0.96181148"
       y="-0.66745996"
       width="2.9236228"
       height="2.3349199"
       color-interpolation-filters="sRGB">
      <feGaussianBlur
         stdDeviation="0.2871969"
         id="feGaussianBlur2" />
    </filter>
    <linearGradient
       id="_lgradient_20"
       x1="-0.29991642"
       y1="-0.26140401"
       x2="0.96725708"
       y2="0.86616999"
       gradientTransform="matrix(15.137397,0,0,16.82717,0.89780187,0.05291536)"
       gradientUnits="userSpaceOnUse">
      <stop
         offset="34.94098066785295%"
         stop-opacity="1"
         style="stop-color:rgb(178,229,107)"
         id="stop1" />
      <stop
         offset="53.84922244785295%"
         stop-opacity="1"
         style="stop-color:rgb(194,233,100)"
         id="stop2" />
      <stop
         offset="90.40515655585295%"
         stop-opacity="1"
         style="stop-color:rgb(236,244,81)"
         id="stop3" />
      <stop
         offset="100%"
         stop-opacity="1"
         style="stop-color:rgb(250,247,75)"
         id="stop4" />
    </linearGradient>
    <linearGradient
       id="b-2-5"
       y1="35.825909"
       y2="-4.1468086"
       gradientUnits="userSpaceOnUse"
       x2="1.525889"
       gradientTransform="matrix(0.18808708,0,0,0.18779368,2.9505234,2.8105876)"
       x1="0.19073613">
      <stop
         stop-color="#d35400"
         id="stop7-9-6"
         offset="0"
         style="stop-color:#ff9e5e;stop-opacity:1;" />
      <stop
         offset="1"
         stop-color="#f67400"
         stop-opacity=".941"
         id="stop9-1-2" />
    </linearGradient>
    <linearGradient
       id="linearGradient4308">
      <stop
         style="stop-color:#884d2c;stop-opacity:1"
         offset="0"
         id="stop363" />
      <stop
         style="stop-color:#ffc169;stop-opacity:1"
         offset="1"
         id="stop365" />
    </linearGradient>
    <linearGradient
       id="linearGradient4513">
      <stop
         style="stop-color:#000000;stop-opacity:1;"
         offset="0"
         id="stop353" />
      <stop
         style="stop-color:#000000;stop-opacity:0;"
         offset="1"
         id="stop355" />
    </linearGradient>
    <linearGradient
       id="linearGradient4325">
      <stop
         offset="0"
         style="stop-color:#2a2c2f;stop-opacity:1"
         id="stop358" />
      <stop
         offset="1"
         style="stop-color:#424649;stop-opacity:1"
         id="stop360" />
    </linearGradient>
    <linearGradient
       id="a"
       gradientUnits="userSpaceOnUse"
       x1="25"
       x2="25"
       y1="6"
       y2="26">
      <stop
         offset="0"
         id="stop1047" />
      <stop
         offset="1"
         stop-color="#292c2f"
         id="stop1049" />
    </linearGradient>
    <linearGradient
       inkscape:collect="always"
       xlink:href="#linearGradient4308"
       id="linearGradient907"
       x1="-12.025727"
       y1="6.1170783"
       x2="-0.085100174"
       y2="6.1170783"
       gradientUnits="userSpaceOnUse" />
  </defs>
  <sodipodi:namedview
     id="namedview14"
     pagecolor="#000000"
     bordercolor="#666666"
     borderopacity="1.0"
     inkscape:showpageshadow="2"
     inkscape:pageopacity="0.0"
     inkscape:pagecheckerboard="0"
     inkscape:deskcolor="#d1d1d1"
     showgrid="false"
     inkscape:zoom="11.044844"
     inkscape:cx="50.550642"
     inkscape:cy="22.846922"
     inkscape:window-width="1920"
     inkscape:window-height="988"
     inkscape:window-x="0"
     inkscape:window-y="0"
     inkscape:window-maximized="1"
     inkscape:current-layer="svg12"
     inkscape:document-rotation="0">
    <inkscape:grid
       type="xygrid"
       id="grid244"
       originx="9.9594769"
       originy="-31.57929"
       spacingy="1"
       spacingx="1"
       units="px"
       visible="false" />
  </sodipodi:namedview>
  <rect
     x="-12.194976"
     y="0.32004508"
     width="11.940627"
     height="11.936014"
     rx="1.6121091"
     shape-rendering="crispEdges"
     id="rect5-6-7-3"
     ry="1.7735944"
     transform="matrix(0.00523883,-0.99998628,0.999988,0.00489859,0,0)"
     style="fill:#ffe0cc;fill-opacity:0.0980392;stroke:url(#linearGradient907);stroke-width:0.5291563;stroke-miterlimit:4;stroke-dasharray:none;stroke-opacity:1" />
  <rect
     x="-3.7202365"
     y="4.8851409"
     width="7.912631"
     height="7.912384"
     rx="1.612043"
     shape-rendering="crispEdges"
     id="rect5-6-6-6-6"
     style="fill:#ffc299;fill-opacity:0.101961;stroke:url(#linearGradient15);stroke-width:0.39686725;stroke-opacity:1;stroke-miterlimit:4;stroke-dasharray:none"
     ry="1.7735215"
     transform="matrix(0.72612649,-0.68756114,0.6879775,0.72573202,0,0)" />
  <path
     style="fill:#ffe0cc;fill-opacity:0.9;fill-rule:nonzero;stroke:none;stroke-width:2.88395;stroke-miterlimit:4;stroke-dasharray:none;stroke-opacity:0.502732"
     d="m 6.1593937,2.5406659 c -0.206655,0.00769 -0.319952,0.076903 -0.393983,0.2259207 -0.04749,0.095621 -0.08623,0.2548088 -0.08625,0.3539359 -1.63e-4,0.3636548 -0.3675,0.6956225 -0.770212,0.6956225 -0.197592,0 -0.306068,-0.054279 -0.706191,-0.3539375 -0.182123,-0.1363956 -0.297292,-0.1012064 -0.579872,0.1769673 -0.268465,0.2643294 -0.274986,0.3907798 -0.0373,0.7061937 0.09824,0.1303825 0.197597,0.3043302 0.220947,0.3867878 0.05771,0.2038665 -0.0369,0.5770352 -0.188667,0.7429206 -0.124391,0.1359678 -0.432942,0.242075 -0.702294,0.242075 -0.256137,0 -0.34837,0.1456826 -0.34837,0.5492545 0,0.314245 0.01188,0.3569841 0.119647,0.4285017 0.06585,0.043736 0.256368,0.099069 0.423496,0.1230037 0.167135,0.023942 0.35982,0.080549 0.427946,0.125767 0.143843,0.095478 0.31077,0.4373352 0.312198,0.6399748 0.0011,0.1471084 -0.112022,0.4071043 -0.22872,0.525322 -0.127203,0.1288435 -0.220497,0.3633105 -0.186979,0.4702419 0.04291,0.1369928 0.333566,0.4300718 0.484146,0.4880512 0.08624,0.033225 0.149104,0.023664 0.232623,-0.035614 0.244762,-0.1736646 0.663405,-0.362286 0.804704,-0.362286 0.213019,0 0.56637,0.1880529 0.643862,0.3427975 0.03648,0.072882 0.08196,0.2424446 0.101277,0.3767622 0.04684,0.325756 0.12122,0.4793888 0.24542,0.5058575 0.05646,0.011967 0.147127,0.032053 0.201454,0.044534 v 0 c 0.05432,0.012821 0.176474,0.012821 0.271575,0 0.248,-0.033307 0.380157,-0.2180521 0.421833,-0.5899137 0.03806,-0.3400004 0.0696,-0.394707 0.319975,-0.5548095 0.254238,-0.1625807 0.453273,-0.1942919 0.648868,-0.1035136 0.162178,0.075275 0.2276,0.1142263 0.49362,0.2915918 0.194912,0.1299881 0.316172,0.1082456 0.541463,-0.097928 0.338785,-0.3100273 0.345869,-0.4444307 0.0423,-0.7985939 C 8.5989767,7.7490825 8.5954777,7.3340001 8.8796097,7.0154509 8.9884067,6.8934748 9.0860447,6.8511344 9.4082937,6.7867414 9.8948217,6.6895244 9.9739202,6.610086 9.9753602,6.2152052 9.9767602,5.8208078 9.9140907,5.7564148 9.4572667,5.6848697 9.0225737,5.6167997 8.8831887,5.5187848 8.7304637,5.1745652 8.6034857,4.8883546 8.6386737,4.7205313 8.9096607,4.3275603 9.0486337,4.1260589 9.1176497,3.9788656 9.1016627,3.916866 9.0659427,3.7785059 8.6159947,3.365931 8.5006447,3.365931 c -0.05342,0 -0.195691,0.076644 -0.316107,0.1697316 C 7.8524327,3.7924949 7.6543447,3.8505069 7.3703967,3.774402 7.0367217,3.685022 6.9181887,3.5439248 6.8339197,3.1366767 6.7371297,2.6689691 6.6746247,2.584887 6.3993027,2.5534609 c -0.09175,-0.010541 -0.170968,-0.014816 -0.23986,-0.012261 z"
     id="path22-6" />
  <path
     style="fill:#e3811c;fill-opacity:1;fill-rule:nonzero;stroke:none;stroke-width:2.88395;stroke-miterlimit:4;stroke-dasharray:none;stroke-opacity:0.502732"
     d="m 6.2712567,4.8195169 a 1.4246371,1.4246371 0 0 1 1.424638,1.424636 1.4246371,1.4246371 0 0 1 -1.424638,1.4246372 1.4246371,1.4246371 0 0 1 -1.424637,-1.4246372 1.4246371,1.4246371 0 0 1 1.424637,-1.424636 z"
     id="path24-2" />
</svg>
