<?xml version="1.0" encoding="UTF-8" standalone="no"?>
<svg
   xmlns:dc="http://purl.org/dc/elements/1.1/"
   xmlns:cc="http://creativecommons.org/ns#"
   xmlns:rdf="http://www.w3.org/1999/02/22-rdf-syntax-ns#"
   xmlns:svg="http://www.w3.org/2000/svg"
   xmlns="http://www.w3.org/2000/svg"
   xmlns:xlink="http://www.w3.org/1999/xlink"
   xmlns:sodipodi="http://sodipodi.sourceforge.net/DTD/sodipodi-0.dtd"
   xmlns:inkscape="http://www.inkscape.org/namespaces/inkscape"
   width="47.285591"
   height="47.28569"
   version="1.1"
   viewBox="0 0 12.510734 12.51076"
   id="svg12"
   sodipodi:docname="blender.svg"
   inkscape:version="1.0.1 (3bc2e813f5, 2020-09-07)">
  <style
     id="style899"></style>
  <metadata
     id="metadata74">
    <rdf:RDF>
      <cc:Work
         rdf:about="">
        <dc:format>image/svg+xml</dc:format>
        <dc:type
           rdf:resource="http://purl.org/dc/dcmitype/StillImage" />
      </cc:Work>
    </rdf:RDF>
  </metadata>
  <defs
     id="defs16">
    <linearGradient
       id="c"
       y1="523.79999"
       x1="403.57001"
       y2="536.79999"
       x2="416.57001"
       gradientUnits="userSpaceOnUse"
       gradientTransform="matrix(0.34526714,0,0,0.34526706,-134.80427,-174.63325)">
      <stop
         stop-color="#292c2f"
         id="stop1568" />
      <stop
         offset="1"
         stop-opacity="0"
         id="stop1570" />
    </linearGradient>
    <linearGradient
       xlink:href="#b-2"
       id="linearGradient4189"
       x1="14.369"
       y1="22.521999"
       x2="26.521999"
       y2="22.521999"
       gradientUnits="userSpaceOnUse" />
    <linearGradient
       x1="36"
       gradientUnits="userSpaceOnUse"
       x2="14"
       y2="12"
       y1="44"
       id="b-2">
      <stop
         style="stop-color:#bfc9c9;stop-opacity:1"
         stop-color="#536161"
         id="stop1579" />
      <stop
         style="stop-color:#fbfbfb;stop-opacity:1"
         stop-color="#f4f5f5"
         offset="1"
         id="stop1581" />
    </linearGradient>
    <linearGradient
       xlink:href="#b-2"
       id="linearGradient4428"
       gradientUnits="userSpaceOnUse"
       x1="31.586"
       y1="36.345001"
       x2="1.2029999"
       y2="6.723" />
    <linearGradient
       xlink:href="#b-2"
       id="linearGradient4189-3"
       x1="14.369"
       y1="22.521999"
       x2="26.521999"
       y2="22.521999"
       gradientUnits="userSpaceOnUse"
       gradientTransform="translate(20.841982,61.553822)" />
    <linearGradient
       xlink:href="#b-2"
       id="linearGradient4428-5"
       gradientUnits="userSpaceOnUse"
       x1="31.586"
       y1="36.345001"
       x2="1.2029999"
       y2="6.723"
       gradientTransform="translate(20.841982,61.553822)" />
    <linearGradient
       xlink:href="#b-2"
       id="linearGradient4189-3-3"
       x1="14.369"
       y1="22.521999"
       x2="26.521999"
       y2="22.521999"
       gradientUnits="userSpaceOnUse"
       gradientTransform="translate(4.376802,4.4211693)" />
    <linearGradient
       xlink:href="#b-2"
       id="linearGradient4428-5-5"
       gradientUnits="userSpaceOnUse"
       x1="31.586"
       y1="36.345001"
       x2="1.2029999"
       y2="6.723"
       gradientTransform="translate(4.376802,4.4211693)" />
    <linearGradient
       inkscape:collect="always"
       xlink:href="#linearGradient14"
       id="linearGradient15"
       x1="-9.6850061"
       y1="45.161198"
       x2="11.98815"
       y2="21.735205"
       gradientUnits="userSpaceOnUse"
       gradientTransform="scale(0.26457813)" />
    <linearGradient
       id="linearGradient14"
       inkscape:collect="always">
      <stop
         style="stop-color:#ff9900;stop-opacity:0.34509805;"
         offset="0"
         id="stop12" />
      <stop
         style="stop-color:#ffb685;stop-opacity:0.81568629;"
         offset="1"
         id="stop13" />
    </linearGradient>
    <filter
       id="filter2917-3"
       x="-0.96181148"
       y="-0.66745996"
       width="2.9236228"
       height="2.3349199"
       color-interpolation-filters="sRGB">
      <feGaussianBlur
         stdDeviation="0.2871969"
         id="feGaussianBlur732-5" />
    </filter>
    <filter
       id="filter1"
       x="-0.96181148"
       y="-0.66745996"
       width="2.9236228"
       height="2.3349199"
       color-interpolation-filters="sRGB">
      <feGaussianBlur
         stdDeviation="0.2871969"
         id="feGaussianBlur1" />
    </filter>
    <filter
       id="filter2"
       x="-0.96181148"
       y="-0.66745996"
       width="2.9236228"
       height="2.3349199"
       color-interpolation-filters="sRGB">
      <feGaussianBlur
         stdDeviation="0.2871969"
         id="feGaussianBlur2" />
    </filter>
    <linearGradient
       id="_lgradient_20"
       x1="-0.29991642"
       y1="-0.26140401"
       x2="0.96725708"
       y2="0.86616999"
       gradientTransform="matrix(15.137397,0,0,16.82717,0.89780187,0.05291536)"
       gradientUnits="userSpaceOnUse">
      <stop
         offset="34.94098066785295%"
         stop-opacity="1"
         style="stop-color:rgb(178,229,107)"
         id="stop1" />
      <stop
         offset="53.84922244785295%"
         stop-opacity="1"
         style="stop-color:rgb(194,233,100)"
         id="stop2" />
      <stop
         offset="90.40515655585295%"
         stop-opacity="1"
         style="stop-color:rgb(236,244,81)"
         id="stop3" />
      <stop
         offset="100%"
         stop-opacity="1"
         style="stop-color:rgb(250,247,75)"
         id="stop4" />
    </linearGradient>
    <linearGradient
       id="b-2-5"
       y1="35.825909"
       y2="-4.1468086"
       gradientUnits="userSpaceOnUse"
       x2="1.525889"
       gradientTransform="matrix(0.18808708,0,0,0.18779368,2.9505234,2.8105876)"
       x1="0.19073613">
      <stop
         stop-color="#d35400"
         id="stop7-9-6"
         offset="0"
         style="stop-color:#ff9e5e;stop-opacity:1;" />
      <stop
         offset="1"
         stop-color="#f67400"
         stop-opacity=".941"
         id="stop9-1-2" />
    </linearGradient>
    <linearGradient
       id="linearGradient4308">
      <stop
         style="stop-color:#884d2c;stop-opacity:1"
         offset="0"
         id="stop363" />
      <stop
         style="stop-color:#ffc169;stop-opacity:1"
         offset="1"
         id="stop365" />
    </linearGradient>
    <linearGradient
       id="linearGradient4513">
      <stop
         style="stop-color:#000000;stop-opacity:1;"
         offset="0"
         id="stop353" />
      <stop
         style="stop-color:#000000;stop-opacity:0;"
         offset="1"
         id="stop355" />
    </linearGradient>
    <linearGradient
       id="linearGradient4325">
      <stop
         offset="0"
         style="stop-color:#2a2c2f;stop-opacity:1"
         id="stop358" />
      <stop
         offset="1"
         style="stop-color:#424649;stop-opacity:1"
         id="stop360" />
    </linearGradient>
    <linearGradient
       id="a"
       gradientUnits="userSpaceOnUse"
       x1="25"
       x2="25"
       y1="6"
       y2="26">
      <stop
         offset="0"
         id="stop1047" />
      <stop
         offset="1"
         stop-color="#292c2f"
         id="stop1049" />
    </linearGradient>
    <linearGradient
       inkscape:collect="always"
       xlink:href="#linearGradient4308"
       id="linearGradient907"
       x1="-12.025727"
       y1="6.1170783"
       x2="-0.085100174"
       y2="6.1170783"
       gradientUnits="userSpaceOnUse" />
    <linearGradient
       id="_lgradient_26"
       x1="-0.0057864031"
       y1="0.32593939"
       x2="0.73961222"
       y2="0.31372461"
       gradientTransform="matrix(15.746281,0,0,14.918678,0.31890458,0.88545489)"
       gradientUnits="userSpaceOnUse">
      <stop
         offset="0%"
         stop-opacity="1"
         style="stop-color:rgb(255,224,49)"
         id="stop1-3" />
      <stop
         offset="98.69565217391305%"
         stop-opacity="1"
         style="stop-color:rgb(252,82,82)"
         id="stop2-6" />
    </linearGradient>
  </defs>
  <sodipodi:namedview
     id="namedview14"
     pagecolor="#000000"
     bordercolor="#666666"
     borderopacity="1.0"
     inkscape:showpageshadow="2"
     inkscape:pageopacity="0.0"
     inkscape:pagecheckerboard="0"
     inkscape:deskcolor="#d1d1d1"
     showgrid="false"
     inkscape:zoom="8"
     inkscape:cx="26.913436"
     inkscape:cy="29.734082"
     inkscape:window-width="1920"
     inkscape:window-height="988"
     inkscape:window-x="0"
     inkscape:window-y="0"
     inkscape:window-maximized="1"
     inkscape:current-layer="svg12"
     inkscape:document-rotation="0">
    <inkscape:grid
       type="xygrid"
       id="grid244"
       originx="9.9594769"
       originy="-31.57929"
       spacingy="1"
       spacingx="1"
       units="px"
       visible="false" />
  </sodipodi:namedview>
  <rect
     x="-12.194976"
     y="0.32004508"
     width="11.940627"
     height="11.936014"
     rx="1.6121091"
     shape-rendering="crispEdges"
     id="rect5-6-7-3"
     ry="1.7735944"
     transform="matrix(0.00523883,-0.99998628,0.999988,0.00489859,0,0)"
     style="fill:#ffe0cc;fill-opacity:0.0980392;stroke:url(#linearGradient907);stroke-width:0.5291563;stroke-miterlimit:4;stroke-dasharray:none;stroke-opacity:1" />
  <rect
     x="-3.7202365"
     y="4.8851409"
     width="7.912631"
     height="7.912384"
     rx="1.612043"
     shape-rendering="crispEdges"
     id="rect5-6-6-6-6"
     style="fill:#ffc299;fill-opacity:0.101961;stroke:url(#linearGradient15);stroke-width:0.39686725;stroke-opacity:1;stroke-miterlimit:4;stroke-dasharray:none"
     ry="1.7735215"
     transform="matrix(0.72612649,-0.68756114,0.6879775,0.72573202,0,0)" />
  <path
     d="M 6.7119098,4.1991608 Z M 5.6263079,4.6816134 v 0 L 3.7125406,4.6937977 C 3.5512011,4.6949284 3.4190995,4.564782 3.4177777,4.4034436 L 3.4172473,4.344223 C 3.4159345,4.1828862 3.5456712,4.0510798 3.7070119,4.0500493 l 2.7388256,-0.017491 c 0.019677,-2.993e-4 0.038793,0.00177 0.057452,0.00527 L 5.6867103,3.406751 C 5.5502062,3.3013938 5.52508,3.1049333 5.6305847,2.9684245 l 0.020856,-0.027182 c 0.1055025,-0.13651 0.301966,-0.1616376 0.4384755,-0.056133 l 1.9716511,1.5237804 c 0.2794856,0.1196103 0.5366321,0.2919747 0.7560147,0.5107715 0.4511096,0.4525793 0.7053174,1.0653224 0.7053174,1.7045209 0,0.6391951 -0.2542078,1.2519386 -0.7053174,1.7045182 -0.4525805,0.45111 -1.0653248,0.7053199 -1.7045221,0.7053199 -0.6347873,0 -1.2460636,-0.2512702 -1.4874887,-0.4919593 C 5.5106634,8.4275933 5.5099285,8.241124 5.6237522,8.1259207 v 0 c 0.1138782,-0.1152025 0.2997597,-0.1157878 0.4146685,-0.00152 0.1326872,0.1320998 0.5940838,0.3216545 1.0745827,0.3216545 0.4834374,0 0.9463024,-0.1924933 1.2886757,-0.5333975 0.3409043,-0.3423908 0.5333976,-0.8052572 0.5333976,-1.288694 0,-0.4834379 -0.1924933,-0.946304 -0.5333976,-1.2886768 C 8.0593023,4.9943746 7.5964366,4.8018814 7.1129981,4.8018814 c -0.4834366,0 -0.9463027,0.1924932 -1.2886761,0.5333969 -0.3409042,0.3423728 -0.5333973,0.8052389 -0.5333973,1.2886758 0,0.2145349 0.038203,0.4261305 0.038203,0.4261305 0.040557,0.1110878 -0.050253,0.2467149 -0.2027789,0.3027001 v 0 c -0.1525169,0.05599 -0.3197364,-0.017753 -0.3732236,-0.1645693 0,0 -0.049958,-0.2806584 -0.049958,-0.5642555 0,-0.1268097 0.00999,-0.2527402 0.029535,-0.3764643 L 3.5163228,7.219033 C 3.3594245,7.3442873 3.1412161,7.3334139 3.0292474,7.1948473 v 0 C 2.9172996,7.0563245 2.9531535,6.8413465 3.1092055,6.7151242 Z m 0.5316325,1.9425688 c 0,-0.2527434 0.1013913,-0.4966656 0.2791899,-0.6759341 0.1792697,-0.1777996 0.4231899,-0.279186 0.675929,-0.279186 0.2527403,0 0.4966646,0.1013864 0.6759332,0.279186 0.1777992,0.1792685 0.2791857,0.4231907 0.2791857,0.6759341 0,0.2527387 -0.1013865,0.4966591 -0.2791857,0.6759297 C 7.6097239,7.4779093 7.3657996,7.5793008 7.1130593,7.5793008 6.8603202,7.5793008 6.6164,7.4779093 6.4371303,7.3001119 6.2593317,7.1208413 6.1579404,6.8769209 6.1579404,6.6241822 Z m -0.4408249,0 c 0,-0.3702931 0.146944,-0.7258945 0.4084996,-0.9874501 0.2615542,-0.2615554 0.617152,-0.4084936 0.9874442,-0.4084936 0.3702923,0 0.7258931,0.1469382 0.9874499,0.4084936 0.2615558,0.2615556 0.4084942,0.617157 0.4084942,0.9874501 0,0.3702892 -0.1469384,0.7258908 -0.4084942,0.987445 -0.2615568,0.261556 -0.6171576,0.4084975 -0.9874499,0.4084975 -0.3702922,0 -0.72589,-0.1469415 -0.9874442,-0.4084975 C 5.8640595,7.350073 5.7171155,6.9944714 5.7171155,6.6241822 Z"
     fill-rule="evenodd"
     fill="url(#_lgradient_26)"
     id="path2"
     style="isolation:isolate;fill:url(#_lgradient_26);stroke-width:0.35277"
     sodipodi:nodetypes="cccccccccccccccccccscscsscscscscscsscsccssccscscscscsssssssscs" />
</svg>
