<?xml version="1.0" encoding="UTF-8" standalone="no"?>
<svg
   xmlns:dc="http://purl.org/dc/elements/1.1/"
   xmlns:cc="http://creativecommons.org/ns#"
   xmlns:rdf="http://www.w3.org/1999/02/22-rdf-syntax-ns#"
   xmlns:svg="http://www.w3.org/2000/svg"
   xmlns="http://www.w3.org/2000/svg"
   xmlns:xlink="http://www.w3.org/1999/xlink"
   xmlns:sodipodi="http://sodipodi.sourceforge.net/DTD/sodipodi-0.dtd"
   xmlns:inkscape="http://www.inkscape.org/namespaces/inkscape"
   width="47.285591"
   height="47.28569"
   version="1.1"
   viewBox="0 0 12.510734 12.51076"
   id="svg12"
   sodipodi:docname="brave-beta.svg"
   inkscape:version="1.0.1 (3bc2e813f5, 2020-09-07)">
  <style
     id="style876"></style>
  <metadata
     id="metadata51">
    <rdf:RDF>
      <cc:Work
         rdf:about="">
        <dc:format>image/svg+xml</dc:format>
        <dc:type
           rdf:resource="http://purl.org/dc/dcmitype/StillImage" />
      </cc:Work>
    </rdf:RDF>
  </metadata>
  <defs
     id="defs16">
    <linearGradient
       id="c"
       y1="523.79999"
       x1="403.57001"
       y2="536.79999"
       x2="416.57001"
       gradientUnits="userSpaceOnUse"
       gradientTransform="matrix(0.34526714,0,0,0.34526706,-134.80427,-174.63325)">
      <stop
         stop-color="#292c2f"
         id="stop1568" />
      <stop
         offset="1"
         stop-opacity="0"
         id="stop1570" />
    </linearGradient>
    <linearGradient
       xlink:href="#b-2"
       id="linearGradient4189"
       x1="14.369"
       y1="22.521999"
       x2="26.521999"
       y2="22.521999"
       gradientUnits="userSpaceOnUse" />
    <linearGradient
       x1="36"
       gradientUnits="userSpaceOnUse"
       x2="14"
       y2="12"
       y1="44"
       id="b-2">
      <stop
         style="stop-color:#bfc9c9;stop-opacity:1"
         stop-color="#536161"
         id="stop1579" />
      <stop
         style="stop-color:#fbfbfb;stop-opacity:1"
         stop-color="#f4f5f5"
         offset="1"
         id="stop1581" />
    </linearGradient>
    <linearGradient
       xlink:href="#b-2"
       id="linearGradient4428"
       gradientUnits="userSpaceOnUse"
       x1="31.586"
       y1="36.345001"
       x2="1.2029999"
       y2="6.723" />
    <linearGradient
       xlink:href="#b-2"
       id="linearGradient4189-3"
       x1="14.369"
       y1="22.521999"
       x2="26.521999"
       y2="22.521999"
       gradientUnits="userSpaceOnUse"
       gradientTransform="translate(20.841982,61.553822)" />
    <linearGradient
       xlink:href="#b-2"
       id="linearGradient4428-5"
       gradientUnits="userSpaceOnUse"
       x1="31.586"
       y1="36.345001"
       x2="1.2029999"
       y2="6.723"
       gradientTransform="translate(20.841982,61.553822)" />
    <linearGradient
       xlink:href="#b-2"
       id="linearGradient4189-3-3"
       x1="14.369"
       y1="22.521999"
       x2="26.521999"
       y2="22.521999"
       gradientUnits="userSpaceOnUse"
       gradientTransform="translate(4.376802,4.4211693)" />
    <linearGradient
       xlink:href="#b-2"
       id="linearGradient4428-5-5"
       gradientUnits="userSpaceOnUse"
       x1="31.586"
       y1="36.345001"
       x2="1.2029999"
       y2="6.723"
       gradientTransform="translate(4.376802,4.4211693)" />
    <linearGradient
       id="linearGradient11"
       inkscape:collect="always">
      <stop
         style="stop-color:#d35f8d;stop-opacity:1"
         offset="0"
         id="stop4-3" />
      <stop
         style="stop-color:#c83771;stop-opacity:1"
         offset="1"
         id="stop11" />
    </linearGradient>
    <filter
       id="filter2917-3"
       x="-0.96181148"
       y="-0.66745996"
       width="2.9236228"
       height="2.3349199"
       color-interpolation-filters="sRGB">
      <feGaussianBlur
         stdDeviation="0.2871969"
         id="feGaussianBlur732-5" />
    </filter>
    <filter
       id="filter1"
       x="-0.96181148"
       y="-0.66745996"
       width="2.9236228"
       height="2.3349199"
       color-interpolation-filters="sRGB">
      <feGaussianBlur
         stdDeviation="0.2871969"
         id="feGaussianBlur1" />
    </filter>
    <filter
       id="filter2"
       x="-0.96181148"
       y="-0.66745996"
       width="2.9236228"
       height="2.3349199"
       color-interpolation-filters="sRGB">
      <feGaussianBlur
         stdDeviation="0.2871969"
         id="feGaussianBlur2" />
    </filter>
    <linearGradient
       inkscape:collect="always"
       xlink:href="#linearGradient11"
       id="linearGradient2"
       x1="-3.8211522"
       y1="8.6008863"
       x2="4.2804661"
       y2="8.6008863"
       gradientUnits="userSpaceOnUse" />
    <linearGradient
       id="b-3"
       gradientTransform="matrix(0.77019253,0,0,0.57051057,-35.963383,-17.968177)"
       gradientUnits="userSpaceOnUse"
       x1="17.444"
       x2="17.444"
       y1="35.000999"
       y2="3.8">
      <stop
         offset="0"
         stop-color="#c0392b"
         id="stop7" />
      <stop
         offset="1"
         stop-color="#e74c3c"
         id="stop9" />
    </linearGradient>
    <linearGradient
       id="d"
       gradientUnits="userSpaceOnUse"
       x1="46"
       x2="46"
       y1="30.881001"
       y2="17.377001"
       gradientTransform="matrix(0.61538461,0,0,0.61538461,-62.055423,-33.482141)">
      <stop
         offset="0"
         stop-color="#eff1f1"
         id="stop272" />
      <stop
         offset="1"
         stop-color="#fcfcfc"
         id="stop274" />
    </linearGradient>
    <linearGradient
       id="a">
      <stop
         offset="0"
         stop-color="#4d4d4d"
         id="stop266" />
      <stop
         offset="1"
         stop-color="#536161"
         id="stop268" />
    </linearGradient>
    <linearGradient
       inkscape:collect="always"
       xlink:href="#linearGradient11"
       id="linearGradient884"
       x1="-12.025727"
       y1="6.1170783"
       x2="-0.085100174"
       y2="6.1170783"
       gradientUnits="userSpaceOnUse" />
    <linearGradient
       id="linearGradient952"
       x1="72.526001"
       x2="72.526001"
       y1="6.9745998"
       y2="56.936001"
       gradientTransform="matrix(0.7,0,0,0.7,-108.96574,-31.00336)"
       gradientUnits="userSpaceOnUse">
      <stop
         stop-color="#f2b52d"
         offset="0"
         id="stop12395" />
      <stop
         stop-color="#f54c44"
         offset="1"
         id="stop12397" />
    </linearGradient>
    <filter
       id="filter1014-7"
       x="-0.059999999"
       y="-0.059999999"
       width="1.12"
       height="1.12"
       color-interpolation-filters="sRGB">
      <feGaussianBlur
         stdDeviation="0.75"
         id="feGaussianBlur12392-5" />
    </filter>
    <linearGradient
       id="d-7-3"
       x1="24"
       x2="24"
       y1="32.602001"
       y2="15.721"
       gradientTransform="matrix(2.1693088,0,0,2.1835846,-10.974116,-11.026187)"
       gradientUnits="userSpaceOnUse">
      <stop
         stop-color="#eff1f1"
         offset="0"
         id="stop12380-5" />
      <stop
         stop-color="#fcfcfc"
         offset="1"
         id="stop12382-6" />
    </linearGradient>
    <linearGradient
       id="e-2-2"
       x1="24"
       x2="24"
       y1="34"
       y2="14"
       gradientTransform="matrix(2.1693088,0,0,2.1835846,-10.974116,-11.026187)"
       gradientUnits="userSpaceOnUse"
       xlink:href="#a" />
    <linearGradient
       id="g-0-2"
       x1="24"
       x2="24"
       y1="31.214001"
       y2="17.219999"
       gradientTransform="matrix(2.1693088,0,0,2.1835846,-10.974116,-11.026187)"
       gradientUnits="userSpaceOnUse"
       xlink:href="#a" />
    <linearGradient
       id="linearGradient7013-3"
       x1="34.102001"
       x2="34.102001"
       y1="25.742001"
       y2="61.487"
       gradientUnits="userSpaceOnUse"
       gradientTransform="matrix(0.62221705,0,0,0.62177119,11.870328,-56.871672)">
      <stop
         stop-color="#fff"
         offset="0"
         id="stop3-6" />
      <stop
         stop-color="#ffcdd6"
         offset="1"
         id="stop4-7" />
    </linearGradient>
    <clipPath
       id="a-5">
      <circle
         cx="8.467"
         cy="288.53"
         r="6.8790002"
         fill="#d86eb0"
         stroke-opacity="0.039"
         stroke-width="0.491"
         style="paint-order:stroke markers fill"
         id="circle2" />
    </clipPath>
    <filter
       id="filter4273-6"
       x="-5.7142748e-05"
       y="-0.057706129"
       width="1.0001143"
       height="1.1154124"
       color-interpolation-filters="sRGB">
      <feGaussianBlur
         stdDeviation="0.001 1.094"
         id="feGaussianBlur14-2" />
    </filter>
    <linearGradient
       id="b-9"
       x2="0"
       y1="33"
       y2="7.3098998"
       gradientTransform="matrix(0.32410822,0,0,0.32410832,11.62155,0.925688)"
       gradientUnits="userSpaceOnUse">
      <stop
         stop-color="#fcdbd4"
         offset="0"
         id="stop9-1" />
      <stop
         stop-color="#fff"
         offset="1"
         id="stop11-2" />
    </linearGradient>
    <linearGradient
       inkscape:collect="always"
       xlink:href="#b-9"
       id="linearGradient914"
       x1="3.3075602"
       y1="6.3486185"
       x2="9.127614"
       y2="6.3486185"
       gradientUnits="userSpaceOnUse" />
  </defs>
  <sodipodi:namedview
     id="namedview14"
     pagecolor="#000000"
     bordercolor="#666666"
     borderopacity="1.0"
     inkscape:showpageshadow="2"
     inkscape:pageopacity="0.0"
     inkscape:pagecheckerboard="0"
     inkscape:deskcolor="#d1d1d1"
     showgrid="false"
     inkscape:zoom="8.5924197"
     inkscape:cx="13.958977"
     inkscape:cy="26.014031"
     inkscape:window-width="1920"
     inkscape:window-height="988"
     inkscape:window-x="0"
     inkscape:window-y="0"
     inkscape:window-maximized="1"
     inkscape:current-layer="svg12"
     inkscape:document-rotation="0">
    <inkscape:grid
       type="xygrid"
       id="grid244"
       originx="9.9594769"
       originy="-31.57929"
       spacingy="1"
       spacingx="1"
       units="px"
       visible="false" />
  </sodipodi:namedview>
  <rect
     x="-12.194976"
     y="0.32004508"
     width="11.940627"
     height="11.936014"
     rx="1.6121091"
     shape-rendering="crispEdges"
     id="rect5-6-7-3"
     ry="1.7735944"
     transform="matrix(0.00523883,-0.99998628,0.999988,0.00489859,0,0)"
     style="fill:#c83771;fill-opacity:0.15;stroke:url(#linearGradient884);stroke-width:0.529156;stroke-miterlimit:4;stroke-dasharray:none;stroke-opacity:1" />
  <rect
     x="-3.7202365"
     y="4.8851409"
     width="7.912631"
     height="7.912384"
     rx="1.612043"
     shape-rendering="crispEdges"
     id="rect5-6-6-6-6"
     style="fill:#c83770;fill-opacity:0.13419913;stroke:url(#linearGradient2);stroke-width:0.396867;stroke-miterlimit:4;stroke-dasharray:none;stroke-opacity:1"
     ry="1.7735215"
     transform="matrix(0.72612649,-0.68756114,0.6879775,0.72573202,0,0)" />
  <path
     d="m 25,9.25 c -0.875,0 -3.9375,3.5 -4.375,3.5 h -2.1875 c -0.875,0 -3.9375,3.0625 -3.9375,3.9375 v 2.625 c 0,0.4375 -3.4808,3.5 -3.5,4.375 -0.0192,0.875 6.125,21.438 7,22.312 0.875,0.874 10.5,8.75 13.125,8.75 h 1.75 c 2.625,0 12.25,-7.875 13.125,-8.75 0.875,-0.875 7.0175,-21.438 7,-22.312 -0.01925,-0.86975 -3.5,-3.9375 -3.5,-4.375 v -2.625 C 49.5,15.8125 46.4375,12.75 45.5625,12.75 H 43.375 c -0.4375,0 -3.5,-3.5 -4.375,-3.5 z m 7,6.1113 c 0.875,0 1.7395,0.29892 2.625,0.88867 2.625,1.75 6.125,-0.875 7,-0.875 0.875,0 6.125,6.3752 6.125,8.75 0,1.75 -6.5625,5.775 -6.5625,7 0,0.875 1.3125,1.2973 1.3125,3.1523 0,1.2232 -1.75,3.4102 -3.5,3.4102 -1.75,0 -6.1285,-3.4347 -6.125,-4.2852 v -0.52734 c 0,-1.05 3.9375,-2.373 3.9375,-4.375 0,-1.75 -1.3125,-2.3975 -1.3125,-4.375 0,-1.701 3.5,-2.1875 6.125,-2.625 0.875,0 -2.625,-2.8791 -7.4375,0.23242 -1.218,0.7875 1.3125,3.9011 0.875,6.7676 -0.65625,0.6125 -1.8585,0.91992 -3.0625,0.91992 -1.2022,0 -2.4062,-0.30742 -3.0625,-0.91992 -0.4375,-2.8665 2.093,-5.9801 0.875,-6.7676 C 25,18.62085 21.5,21.49993 22.375,21.49993 c 2.625,0.4375 6.125,0.924 6.125,2.625 0,1.9775 -1.3125,2.625 -1.3125,4.375 0,2.002 3.9375,3.325 3.9375,4.375 v 0.52734 c 0.0035,0.8505 -4.375,4.2852 -6.125,4.2852 -1.75,0 -3.5,-2.1869 -3.5,-3.4102 0,-1.8568 1.3125,-2.2773 1.3125,-3.1523 0,-1.225 -6.5625,-5.25 -6.5625,-7 0,-2.3748 5.25,-8.75 6.125,-8.75 0.875,0 4.375,2.625 7,0.875 C 30.2605,15.66022 31.1285,15.3613 32,15.3613 Z m 0,20.84 c 1.75,0 5.6875,2.7113 5.6875,3.2363 0,0.525 -3.9375,4.8125 -5.6875,4.8125 -1.75,0 -5.6875,-4.2875 -5.6875,-4.8125 0,-0.525 3.9375,-3.2363 5.6875,-3.2363 z"
     fill="#f50f2d"
     filter="url(#filter4273)"
     id="path21-0"
     transform="matrix(0.13857244,0,0,0.1354903,1.7832687,2.0128325)"
     style="stroke-width:1.35163;filter:url(#filter4273-6)" />
  <path
     d="m 5.2475788,3.2661177 c -0.1212503,0 -0.5456283,0.4742163 -0.6062541,0.4742163 H 4.3381981 c -0.1212508,0 -0.5456289,0.4149396 -0.5456289,0.5334934 v 0.355662 c 0,0.059283 -0.4823431,0.4742164 -0.4850028,0.5927707 -0.00267,0.1185542 0.848756,2.904642 0.9700063,3.0230605 0.1212503,0.1184183 1.4550106,1.1855411 1.8187625,1.1855411 h 0.2425019 c 0.3637533,0 1.6975139,-1.0669863 1.818765,-1.1855411 C 8.2788524,8.1267662 9.1300334,5.3406783 9.1276089,5.2222601 9.1249422,5.1044174 8.6426052,4.6887672 8.6426052,4.6294894 v -0.355662 c 0,-0.1185538 -0.424378,-0.5334934 -0.5456281,-0.5334934 H 7.7938487 c -0.060628,0 -0.4850037,-0.4742163 -0.606255,-0.4742163 z m 0.9700078,0.8280227 c 0.1212505,0 0.2410464,0.040498 0.3637522,0.1204052 0.3637532,0.2371076 0.8487566,-0.1185532 0.970008,-0.1185532 0.1212513,0 0.8487563,0.8637783 0.8487563,1.1855406 0,0.2371081 -0.909381,0.7824569 -0.909381,0.948432 0,0.118555 0.181876,0.1757716 0.181876,0.4271065 0,0.1657315 -0.2425027,0.4620491 -0.4850044,0.4620491 -0.2425017,0 -0.8492408,-0.4653684 -0.8487566,-0.5806026 V 6.467066 c 0,-0.1422652 0.5456293,-0.321519 0.5456293,-0.5927716 0,-0.237107 -0.181876,-0.3248381 -0.181876,-0.5927688 0,-0.2304704 0.4850033,-0.2963859 0.8487564,-0.3556629 0.1212513,0 -0.3637531,-0.3900901 -1.0306326,0.031493 C 6.3519325,5.0640541 6.7025904,5.485917 6.6419644,5.8743002 6.5510294,5.9572902 6.3844276,5.998941 6.2175866,5.998941 6.0509951,5.998941 5.8841533,5.957294 5.7932087,5.8743007 5.7325798,5.4859169 6.0832408,5.0640539 5.9144594,4.9573561 5.2475788,4.5357787 4.7625762,4.9258655 4.8838277,4.9258655 c 0.3637511,0.059286 0.8487556,0.1251923 0.8487556,0.3556624 0,0.2679312 -0.181876,0.3556623 -0.181876,0.5927692 0,0.2712525 0.5456279,0.4505061 0.5456279,0.5927714 v 0.071449 C 6.0968054,6.6537518 5.4900822,7.11912 5.2475788,7.11912 c -0.2425007,0 -0.4850026,-0.2963031 -0.4850026,-0.4620486 0,-0.2515794 0.1818759,-0.3085519 0.1818759,-0.4271071 0,-0.1659751 -0.9093812,-0.7113239 -0.9093812,-0.9484319 0,-0.3217622 0.7275053,-1.1855403 0.8487568,-1.1855403 0.1212504,0 0.6062545,0.3556607 0.9700058,0.118553 0.1227063,-0.079903 0.2429873,-0.1204059 0.3637531,-0.1204047 z m 0,2.8236188 c 0.2425018,0 0.788131,0.3673556 0.788131,0.4384875 0,0.071132 -0.5456292,0.6520477 -0.788131,0.6520477 -0.2425018,0 -0.7881311,-0.5809166 -0.7881311,-0.6520477 0,-0.071133 0.5456293,-0.4384875 0.7881311,-0.4384875 z"
     id="path23-9"
     style="fill:url(#linearGradient914);fill-opacity:1;stroke-width:0.185205" />
</svg>
