<?xml version="1.0" encoding="UTF-8" standalone="no"?>
<svg
   xmlns:dc="http://purl.org/dc/elements/1.1/"
   xmlns:cc="http://creativecommons.org/ns#"
   xmlns:rdf="http://www.w3.org/1999/02/22-rdf-syntax-ns#"
   xmlns:svg="http://www.w3.org/2000/svg"
   xmlns="http://www.w3.org/2000/svg"
   xmlns:xlink="http://www.w3.org/1999/xlink"
   xmlns:sodipodi="http://sodipodi.sourceforge.net/DTD/sodipodi-0.dtd"
   xmlns:inkscape="http://www.inkscape.org/namespaces/inkscape"
   width="47.285591"
   height="47.28569"
   version="1.1"
   viewBox="0 0 12.510734 12.51076"
   id="svg12"
   sodipodi:docname="calligrakrita.svg"
   inkscape:version="1.0.1 (3bc2e813f5, 2020-09-07)">
  <style
     id="style877"></style>
  <metadata
     id="metadata52">
    <rdf:RDF>
      <cc:Work
         rdf:about="">
        <dc:format>image/svg+xml</dc:format>
        <dc:type
           rdf:resource="http://purl.org/dc/dcmitype/StillImage" />
      </cc:Work>
    </rdf:RDF>
  </metadata>
  <defs
     id="defs16">
    <linearGradient
       id="linearGradient887"
       inkscape:collect="always">
      <stop
         style="stop-color:#ffff37;stop-opacity:0.83492823"
         offset="0"
         id="stop883" />
      <stop
         style="stop-color:#ff50ff;stop-opacity:0.94258373"
         offset="1"
         id="stop885" />
    </linearGradient>
    <linearGradient
       id="linearGradient924"
       inkscape:collect="always">
      <stop
         style="stop-color:#ffff37;stop-opacity:0.56277055"
         offset="0"
         id="stop920" />
      <stop
         style="stop-color:#ff50ff;stop-opacity:0.64502162"
         offset="1"
         id="stop922" />
    </linearGradient>
    <linearGradient
       id="linearGradient918"
       inkscape:collect="always">
      <stop
         style="stop-color:#ffff37;stop-opacity:0.48917753"
         offset="0"
         id="stop914" />
      <stop
         style="stop-color:#ff50ff;stop-opacity:0.69696969"
         offset="1"
         id="stop916" />
    </linearGradient>
    <linearGradient
       id="c"
       y1="523.79999"
       x1="403.57001"
       y2="536.79999"
       x2="416.57001"
       gradientUnits="userSpaceOnUse"
       gradientTransform="matrix(0.34526714,0,0,0.34526706,-134.80427,-174.63325)">
      <stop
         stop-color="#292c2f"
         id="stop1568" />
      <stop
         offset="1"
         stop-opacity="0"
         id="stop1570" />
    </linearGradient>
    <linearGradient
       xlink:href="#b-2"
       id="linearGradient4189"
       x1="14.369"
       y1="22.521999"
       x2="26.521999"
       y2="22.521999"
       gradientUnits="userSpaceOnUse" />
    <linearGradient
       x1="36"
       gradientUnits="userSpaceOnUse"
       x2="14"
       y2="12"
       y1="44"
       id="b-2">
      <stop
         style="stop-color:#bfc9c9;stop-opacity:1"
         stop-color="#536161"
         id="stop1579" />
      <stop
         style="stop-color:#fbfbfb;stop-opacity:1"
         stop-color="#f4f5f5"
         offset="1"
         id="stop1581" />
    </linearGradient>
    <linearGradient
       xlink:href="#b-2"
       id="linearGradient4428"
       gradientUnits="userSpaceOnUse"
       x1="31.586"
       y1="36.345001"
       x2="1.2029999"
       y2="6.723" />
    <linearGradient
       xlink:href="#b-2"
       id="linearGradient4189-3"
       x1="14.369"
       y1="22.521999"
       x2="26.521999"
       y2="22.521999"
       gradientUnits="userSpaceOnUse"
       gradientTransform="translate(20.841982,61.553822)" />
    <linearGradient
       xlink:href="#b-2"
       id="linearGradient4428-5"
       gradientUnits="userSpaceOnUse"
       x1="31.586"
       y1="36.345001"
       x2="1.2029999"
       y2="6.723"
       gradientTransform="translate(20.841982,61.553822)" />
    <linearGradient
       xlink:href="#b-2"
       id="linearGradient4189-3-3"
       x1="14.369"
       y1="22.521999"
       x2="26.521999"
       y2="22.521999"
       gradientUnits="userSpaceOnUse"
       gradientTransform="translate(4.376802,4.4211693)" />
    <linearGradient
       xlink:href="#b-2"
       id="linearGradient4428-5-5"
       gradientUnits="userSpaceOnUse"
       x1="31.586"
       y1="36.345001"
       x2="1.2029999"
       y2="6.723"
       gradientTransform="translate(4.376802,4.4211693)" />
    <linearGradient
       inkscape:collect="always"
       xlink:href="#linearGradient924"
       id="linearGradient15"
       x1="-9.6850061"
       y1="45.161198"
       x2="11.98815"
       y2="21.735205"
       gradientUnits="userSpaceOnUse"
       gradientTransform="scale(0.26457813)" />
    <filter
       id="filter2917-3"
       x="-0.96181148"
       y="-0.66745996"
       width="2.9236228"
       height="2.3349199"
       color-interpolation-filters="sRGB">
      <feGaussianBlur
         stdDeviation="0.2871969"
         id="feGaussianBlur732-5" />
    </filter>
    <filter
       id="filter1"
       x="-0.96181148"
       y="-0.66745996"
       width="2.9236228"
       height="2.3349199"
       color-interpolation-filters="sRGB">
      <feGaussianBlur
         stdDeviation="0.2871969"
         id="feGaussianBlur1" />
    </filter>
    <filter
       id="filter2"
       x="-0.96181148"
       y="-0.66745996"
       width="2.9236228"
       height="2.3349199"
       color-interpolation-filters="sRGB">
      <feGaussianBlur
         stdDeviation="0.2871969"
         id="feGaussianBlur2" />
    </filter>
    <linearGradient
       id="b">
      <stop
         offset="0"
         stop-color="#292c2f"
         id="stop255" />
      <stop
         offset="1"
         stop-opacity="0"
         id="stop257" />
    </linearGradient>
    <linearGradient
       id="a"
       gradientUnits="userSpaceOnUse"
       x1="7.7857151"
       x2="7.7857151"
       y1="12.285715"
       y2="3.2857151"
       gradientTransform="matrix(0.84339338,0,0,0.84339338,-26.541494,-13.13825)">
      <stop
         offset="0"
         stop-color="#eff0f1"
         id="stop250" />
      <stop
         offset="1"
         stop-color="#fcfcfc"
         id="stop252" />
    </linearGradient>
    <linearGradient
       inkscape:collect="always"
       xlink:href="#linearGradient918"
       id="linearGradient893"
       x1="-12.025727"
       y1="6.1170783"
       x2="-0.085100174"
       y2="6.1170783"
       gradientUnits="userSpaceOnUse" />
    <linearGradient
       id="_lgradient_19"
       x1="0"
       y1="0.5"
       x2="1"
       y2="0.5"
       gradientTransform="matrix(2.1869101,-11.204662,10.108321,1.9731305,31.964679,13.927586)"
       gradientUnits="userSpaceOnUse">
      <stop
         offset="0%"
         stop-opacity="1"
         style="stop-color:rgb(117,127,154)"
         id="stop1" />
      <stop
         offset="98.69565217391305%"
         stop-opacity="1"
         style="stop-color:rgb(215,221,232)"
         id="stop2" />
    </linearGradient>
    <linearGradient
       inkscape:collect="always"
       xlink:href="#linearGradient887"
       id="linearGradient881"
       x1="9.6567163"
       y1="23.12331"
       x2="35.656975"
       y2="23.12331"
       gradientUnits="userSpaceOnUse" />
  </defs>
  <sodipodi:namedview
     id="namedview14"
     pagecolor="#000000"
     bordercolor="#666666"
     borderopacity="1.0"
     inkscape:showpageshadow="2"
     inkscape:pageopacity="0.0"
     inkscape:pagecheckerboard="0"
     inkscape:deskcolor="#d1d1d1"
     showgrid="false"
     inkscape:zoom="10.83591"
     inkscape:cx="-4.3677027"
     inkscape:cy="27.74306"
     inkscape:window-width="1920"
     inkscape:window-height="988"
     inkscape:window-x="0"
     inkscape:window-y="0"
     inkscape:window-maximized="1"
     inkscape:current-layer="svg12"
     inkscape:document-rotation="0">
    <inkscape:grid
       type="xygrid"
       id="grid244"
       originx="9.9594769"
       originy="-31.57929"
       spacingy="1"
       spacingx="1"
       units="px"
       visible="false" />
  </sodipodi:namedview>
  <rect
     x="-12.194976"
     y="0.32004508"
     width="11.940627"
     height="11.936014"
     rx="1.6121091"
     shape-rendering="crispEdges"
     id="rect5-6-7-3"
     ry="1.7735944"
     transform="matrix(0.00523883,-0.99998628,0.999988,0.00489859,0,0)"
     style="fill:#80b3ff;fill-opacity:0.15;stroke:url(#linearGradient893);stroke-width:0.5291563;stroke-miterlimit:4;stroke-dasharray:none;stroke-opacity:1" />
  <rect
     x="-3.7202365"
     y="4.8851409"
     width="7.912631"
     height="7.912384"
     rx="1.612043"
     shape-rendering="crispEdges"
     id="rect5-6-6-6-6"
     style="fill:#80b3ff;fill-opacity:0.122146;stroke:url(#linearGradient15);stroke-width:0.39686725;stroke-opacity:1;stroke-miterlimit:4;stroke-dasharray:none"
     ry="1.7735215"
     transform="matrix(0.72612649,-0.68756114,0.6879775,0.72573202,0,0)" />
  <g
     id="g1"
     transform="matrix(0,0.24422355,-0.24422355,0,11.802682,0.73934656)"
     style="stroke-width:1.08333">
    <path
       d="m 25.882506,27.474589 c -0.558528,0.130555 -0.535774,0.308794 -0.977289,0.147351 -0.304461,-0.111055 -2.630716,-2.670786 -2.630716,-2.670786 -0.07418,-0.352678 0.178782,-0.768195 0.558545,-1.061279 0.361335,-0.315835 0.821275,-0.487565 1.160956,-0.353222 0,0 2.151799,2.704388 2.208685,3.018596 0.08347,0.455608 -0.09044,0.40197 -0.320181,0.91934 z"
       fill="url(#_lgradient_19)"
       id="path2-6"
       style="isolation:isolate;fill:url(#_lgradient_19);stroke-width:1.44445" />
    <path
       d="m 23.703623,25.041625 c -1.898805,1.167992 -4.536556,-1.78775 -5.555028,-3.519715 -1.047733,-1.78125 -5.06747,-7.883446 -5.369756,-8.287576 -0.301756,-0.403593 -0.514123,-0.871119 -0.109975,-1.216217 0.415516,-0.331546 0.844037,-0.04277 1.193461,0.322341 0.348877,0.364585 5.723508,5.349173 7.31407,6.68185 1.547214,1.295849 4.027858,4.381084 2.527228,6.019317 z m 1.609525,6.900184 c 2.138801,-0.69343 3.022375,-2.48119 2.52723,-3.99374 -0.385184,-1.176121 -1.31861,-1.566174 -2.090047,-1.184795 -0.765482,0.378686 -0.942637,0.972979 -0.861377,1.613861 0.165781,1.306135 1.673982,2.494736 0.424194,3.564674 z m -7.173223,-18.66793 v 0 c -0.543373,0.248654 -1.18642,0.0095 -1.435075,-0.533609 v 0 c -0.248667,-0.543374 -0.0096,-1.186418 0.533612,-1.435087 v 0 c 1.243303,-0.573152 2.569494,-0.942623 3.92601,-1.097564 4.494306,-0.5135817 8.949063,1.343516 11.733608,4.907639 1.47463,1.881481 2.403714,4.142176 2.674584,6.515547 0.513585,4.494303 -1.343515,8.949045 -4.907634,11.733599 -1.881486,1.474673 -4.136762,2.403189 -6.515547,2.674597 C 19.655177,36.552581 15.200427,34.695483 12.41587,31.131364 10.941245,29.249878 10.012697,26.994604 9.7412834,24.615812 9.3940256,21.57988 10.123212,18.51416 11.799907,15.961464 v 0 c 0.331549,-0.4984 1.006017,-0.63654 1.505506,-0.308255 v 0 c 0.499484,0.328302 0.636002,1.001689 0.304999,1.502793 v 0 c -1.397702,2.127978 -2.006078,4.678506 -1.716245,7.213858 0.22537,1.975194 0.996813,3.855585 2.228731,5.426633 2.324081,2.968228 6.034479,4.518157 9.780634,4.089604 1.980615,-0.22641 3.855576,-0.996793 5.426639,-2.228702 2.968203,-2.324087 4.51813,-6.03449 4.089615,-9.780636 -0.225371,-1.975197 -0.99681,-3.855584 -2.22873,-5.426645 -2.324082,-2.968205 -6.034483,-4.518132 -9.780631,-4.089614 -1.130073,0.128937 -2.234691,0.435019 -3.2705,0.913379 z"
       fill-rule="evenodd"
       id="path5"
       style="isolation:isolate;fill:url(#linearGradient881);fill-opacity:1.0;stroke-width:1.44445" />
  </g>
</svg>
