<?xml version="1.0" encoding="UTF-8" standalone="no"?>
<svg
   xmlns:dc="http://purl.org/dc/elements/1.1/"
   xmlns:cc="http://creativecommons.org/ns#"
   xmlns:rdf="http://www.w3.org/1999/02/22-rdf-syntax-ns#"
   xmlns:svg="http://www.w3.org/2000/svg"
   xmlns="http://www.w3.org/2000/svg"
   xmlns:xlink="http://www.w3.org/1999/xlink"
   xmlns:sodipodi="http://sodipodi.sourceforge.net/DTD/sodipodi-0.dtd"
   xmlns:inkscape="http://www.inkscape.org/namespaces/inkscape"
   width="47.285591"
   height="47.28569"
   version="1.1"
   viewBox="0 0 12.510734 12.51076"
   id="svg12"
   sodipodi:docname="flatpak-discover.svg"
   inkscape:version="1.0.1 (3bc2e813f5, 2020-09-07)">
  <style
     id="style890"></style>
  <metadata
     id="metadata65">
    <rdf:RDF>
      <cc:Work
         rdf:about="">
        <dc:format>image/svg+xml</dc:format>
        <dc:type
           rdf:resource="http://purl.org/dc/dcmitype/StillImage" />
      </cc:Work>
    </rdf:RDF>
  </metadata>
  <defs
     id="defs16">
    <linearGradient
       id="linearGradient25"
       inkscape:collect="always">
      <stop
         style="stop-color:#c59fff;stop-opacity:0.46305421;"
         offset="0"
         id="stop24" />
      <stop
         style="stop-color:#00ccff;stop-opacity:1"
         offset="1"
         id="stop25" />
    </linearGradient>
    <linearGradient
       id="linearGradient23"
       inkscape:collect="always">
      <stop
         style="stop-color:#9955ff;stop-opacity:0.20073892;"
         offset="0"
         id="stop22" />
      <stop
         style="stop-color:#00ccff;stop-opacity:0.40024629;"
         offset="1"
         id="stop23" />
    </linearGradient>
    <linearGradient
       id="linearGradient21"
       inkscape:collect="always">
      <stop
         style="stop-color:#9955ff;stop-opacity:0.07635468;"
         offset="0"
         id="stop20" />
      <stop
         style="stop-color:#00ccff;stop-opacity:1"
         offset="1"
         id="stop21" />
    </linearGradient>
    <linearGradient
       id="c"
       y1="523.79999"
       x1="403.57001"
       y2="536.79999"
       x2="416.57001"
       gradientUnits="userSpaceOnUse"
       gradientTransform="matrix(0.34526714,0,0,0.34526706,-134.80427,-174.63325)">
      <stop
         stop-color="#292c2f"
         id="stop1568" />
      <stop
         offset="1"
         stop-opacity="0"
         id="stop1570" />
    </linearGradient>
    <linearGradient
       xlink:href="#b-2"
       id="linearGradient4189"
       x1="14.369"
       y1="22.521999"
       x2="26.521999"
       y2="22.521999"
       gradientUnits="userSpaceOnUse" />
    <linearGradient
       x1="36"
       gradientUnits="userSpaceOnUse"
       x2="14"
       y2="12"
       y1="44"
       id="b-2">
      <stop
         style="stop-color:#bfc9c9;stop-opacity:1"
         stop-color="#536161"
         id="stop1579" />
      <stop
         style="stop-color:#fbfbfb;stop-opacity:1"
         stop-color="#f4f5f5"
         offset="1"
         id="stop1581" />
    </linearGradient>
    <linearGradient
       xlink:href="#b-2"
       id="linearGradient4428"
       gradientUnits="userSpaceOnUse"
       x1="31.586"
       y1="36.345001"
       x2="1.2029999"
       y2="6.723" />
    <linearGradient
       xlink:href="#b-2"
       id="linearGradient4189-3"
       x1="14.369"
       y1="22.521999"
       x2="26.521999"
       y2="22.521999"
       gradientUnits="userSpaceOnUse"
       gradientTransform="translate(20.841982,61.553822)" />
    <linearGradient
       xlink:href="#b-2"
       id="linearGradient4428-5"
       gradientUnits="userSpaceOnUse"
       x1="31.586"
       y1="36.345001"
       x2="1.2029999"
       y2="6.723"
       gradientTransform="translate(20.841982,61.553822)" />
    <linearGradient
       xlink:href="#b-2"
       id="linearGradient4189-3-3"
       x1="14.369"
       y1="22.521999"
       x2="26.521999"
       y2="22.521999"
       gradientUnits="userSpaceOnUse"
       gradientTransform="translate(4.376802,4.4211693)" />
    <linearGradient
       xlink:href="#b-2"
       id="linearGradient4428-5-5"
       gradientUnits="userSpaceOnUse"
       x1="31.586"
       y1="36.345001"
       x2="1.2029999"
       y2="6.723"
       gradientTransform="translate(4.376802,4.4211693)" />
    <linearGradient
       inkscape:collect="always"
       xlink:href="#linearGradient14"
       id="linearGradient15"
       x1="-9.6850061"
       y1="45.161198"
       x2="11.98815"
       y2="21.735205"
       gradientUnits="userSpaceOnUse"
       gradientTransform="scale(0.26457813)" />
    <linearGradient
       id="linearGradient14"
       inkscape:collect="always">
      <stop
         style="stop-color:#9955ff;stop-opacity:0.45197046;"
         offset="0"
         id="stop12" />
      <stop
         style="stop-color:#00ccff;stop-opacity:1"
         offset="1"
         id="stop13" />
    </linearGradient>
    <filter
       id="filter2917-3"
       x="-0.96181148"
       y="-0.66745996"
       width="2.9236228"
       height="2.3349199"
       color-interpolation-filters="sRGB">
      <feGaussianBlur
         stdDeviation="0.2871969"
         id="feGaussianBlur732-5" />
    </filter>
    <filter
       id="filter1"
       x="-0.96181148"
       y="-0.66745996"
       width="2.9236228"
       height="2.3349199"
       color-interpolation-filters="sRGB">
      <feGaussianBlur
         stdDeviation="0.2871969"
         id="feGaussianBlur1" />
    </filter>
    <filter
       id="filter2"
       x="-0.96181148"
       y="-0.66745996"
       width="2.9236228"
       height="2.3349199"
       color-interpolation-filters="sRGB">
      <feGaussianBlur
         stdDeviation="0.2871969"
         id="feGaussianBlur2" />
    </filter>
    <linearGradient
       id="paint1_linear"
       x1="129.64301"
       y1="194"
       x2="129.64301"
       y2="101.419"
       gradientUnits="userSpaceOnUse"
       gradientTransform="matrix(0.26457813,0,0,0.26457813,1.9011988e-6,2.9054041e-7)">
      <stop
         stop-color="#FDA700"
         id="stop7" />
      <stop
         offset="1"
         stop-color="#FFDE00"
         id="stop8" />
    </linearGradient>
    <linearGradient
       id="paint2_linear"
       x1="159.10699"
       y1="142.106"
       x2="159.10699"
       y2="62"
       gradientUnits="userSpaceOnUse"
       gradientTransform="matrix(0.26457813,0,0,0.26457805,1.8988476e-6,3.0912507e-7)">
      <stop
         stop-color="#FDA700"
         id="stop9" />
      <stop
         offset="1"
         stop-color="#FFDE00"
         id="stop10" />
    </linearGradient>
    <linearGradient
       id="paint3_linear"
       x1="98.821404"
       y1="191"
       x2="98.821404"
       y2="99.071297"
       gradientUnits="userSpaceOnUse"
       gradientTransform="matrix(0.26457813,0,0,0.26457813,1.9011988e-6,2.9054041e-7)">
      <stop
         stop-color="#FDA700"
         id="stop11-3" />
      <stop
         offset="1"
         stop-color="#FFDE00"
         id="stop12-6" />
    </linearGradient>
    <linearGradient
       id="paint4_linear"
       x1="129.64301"
       y1="142.14301"
       x2="129.64301"
       y2="62"
       gradientUnits="userSpaceOnUse"
       gradientTransform="matrix(0.26457813,0,0,0.26457813,1.9011988e-6,2.9054041e-7)">
      <stop
         stop-color="#FDA700"
         id="stop13-7" />
      <stop
         offset="1"
         stop-color="#FFDE00"
         id="stop14" />
    </linearGradient>
    <linearGradient
       inkscape:collect="always"
       xlink:href="#linearGradient14"
       id="linearGradient2"
       x1="5.9196277"
       y1="5.241127"
       x2="10.899876"
       y2="5.2770019"
       gradientUnits="userSpaceOnUse" />
    <linearGradient
       inkscape:collect="always"
       xlink:href="#linearGradient14"
       id="linearGradient4"
       x1="3.5985398"
       y1="6.7022543"
       x2="6.1221876"
       y2="6.7022529"
       gradientUnits="userSpaceOnUse" />
    <linearGradient
       inkscape:collect="always"
       xlink:href="#linearGradient14"
       id="linearGradient6"
       x1="3.588109"
       y1="6.8577003"
       x2="11.043022"
       y2="6.875638"
       gradientUnits="userSpaceOnUse" />
    <linearGradient
       inkscape:collect="always"
       xlink:href="#linearGradient23"
       id="linearGradient16"
       x1="3.4662509"
       y1="6.7022529"
       x2="6.1221876"
       y2="6.7022529"
       gradientUnits="userSpaceOnUse" />
    <linearGradient
       inkscape:collect="always"
       xlink:href="#linearGradient25"
       id="linearGradient18"
       x1="5.9196277"
       y1="5.241127"
       x2="10.899876"
       y2="5.2770019"
       gradientUnits="userSpaceOnUse" />
    <linearGradient
       inkscape:collect="always"
       xlink:href="#linearGradient21"
       id="linearGradient20"
       x1="3.588109"
       y1="6.8577003"
       x2="11.043022"
       y2="6.875638"
       gradientUnits="userSpaceOnUse" />
    <linearGradient
       inkscape:collect="always"
       xlink:href="#linearGradient14"
       id="linearGradient898"
       x1="-12.025727"
       y1="6.1170783"
       x2="-0.085100174"
       y2="6.1170783"
       gradientUnits="userSpaceOnUse" />
  </defs>
  <sodipodi:namedview
     id="namedview14"
     pagecolor="#000000"
     bordercolor="#666666"
     borderopacity="1.0"
     inkscape:showpageshadow="2"
     inkscape:pageopacity="0.0"
     inkscape:pagecheckerboard="0"
     inkscape:deskcolor="#d1d1d1"
     showgrid="false"
     inkscape:zoom="12.522228"
     inkscape:cx="26.485358"
     inkscape:cy="24.87548"
     inkscape:window-width="1920"
     inkscape:window-height="988"
     inkscape:window-x="0"
     inkscape:window-y="0"
     inkscape:window-maximized="1"
     inkscape:current-layer="svg12"
     inkscape:document-rotation="0">
    <inkscape:grid
       type="xygrid"
       id="grid244"
       originx="9.9594769"
       originy="-31.57929"
       spacingy="1"
       spacingx="1"
       units="px"
       visible="false" />
  </sodipodi:namedview>
  <rect
     x="-12.194976"
     y="0.32004508"
     width="11.940627"
     height="11.936014"
     rx="1.6121091"
     shape-rendering="crispEdges"
     id="rect5-6-7-3"
     ry="1.7735944"
     transform="matrix(0.00523883,-0.99998628,0.999988,0.00489859,0,0)"
     style="fill:#80b3ff;fill-opacity:0.15;stroke:url(#linearGradient898);stroke-width:0.5291563;stroke-miterlimit:4;stroke-dasharray:none;stroke-opacity:1" />
  <rect
     x="-3.7202365"
     y="4.8851409"
     width="7.912631"
     height="7.912384"
     rx="1.612043"
     shape-rendering="crispEdges"
     id="rect5-6-6-6-6"
     style="fill:#80b3ff;fill-opacity:0.122146;stroke:url(#linearGradient15);stroke-width:0.39686725;stroke-opacity:1;stroke-miterlimit:4;stroke-dasharray:none"
     ry="1.7735215"
     transform="matrix(0.72612649,-0.68756114,0.6879775,0.72573202,0,0)" />
  <path
     d="m 3.505808,4.8387085 c -7.301e-4,0.011932 -0.00116,0.023952 -0.00125,0.035889 V 7.318023 c 7.36e-5,0.2552256 0.1405834,0.4910273 0.3686167,0.6186158 l 2.1688387,1.2139058 c 0.2280837,0.1276879 0.5091322,0.1276879 0.7372646,0 L 8.9481091,7.9366456 C 9.1762416,7.8090095 9.3167413,7.5730647 9.316692,7.3177438 V 4.8746051 c -3.538e-4,-0.00902 -8.389e-4,-0.017998 -0.00162,-0.026996"
     stroke="url(#paint1_linear)"
     stroke-width="0.1"
     id="path2"
     style="opacity:0.540839;fill:url(#linearGradient20);stroke:url(#linearGradient6);stroke-opacity:0.1" />
  <path
     d="m 6.2956937,3.0414294 v 4.377e-4 c -0.00581,8.07e-5 -0.011454,2.279e-4 -0.017256,4.369e-4 V 6.855103 C 6.4077433,6.8556249 6.5348772,6.822823 6.6471683,6.759985 L 8.8176325,5.5317004 C 8.9227218,5.4721435 9.0112445,5.3880683 9.0752063,5.2869486 9.139218,5.185782 9.1767474,5.0707613 9.1845387,4.9519796 9.1777271,4.8321981 9.1406487,4.7159544 9.0765872,4.6137213 9.0125753,4.5114792 8.9235614,4.426475 8.8176323,4.3663463 L 6.6471641,3.1380881 C 6.5401013,3.0775204 6.4192781,3.0442798 6.2956937,3.0414294 Z"
     fill="url(#paint2_linear)"
     id="path3"
     style="fill:url(#paint2_linear);stroke-width:0.264578" />
  <path
     d="m 3.3642491,4.806314 c -5.219e-4,0.00783 -7.454e-4,0.015677 -9.882e-4,0.023503 7.638e-4,-0.00784 0.00171,-0.015677 0.00275,-0.023503 z m -0.00123,0.029821 c -4.05e-5,0.00202 -2.245e-4,0.00394 -2.428e-4,0.00581 v 2.4260976 c 7.7e-5,0.2534226 0.1519293,0.4876529 0.398204,0.6143373 l 2.3421526,1.2051976 c 0.1267413,0.06527 0.2567339,0.097021 0.3982196,0.095116 V 6.7307496 C 6.3615452,6.7309835 6.2241034,6.6980429 6.1028858,6.6352482 L 3.7587762,5.4156803 C 3.6447624,5.3560746 3.5489247,5.2719523 3.4798589,5.1708331 3.4107841,5.0697139 3.3706484,4.9546934 3.3630234,4.8361309 Z"
     fill="url(#paint3_linear)"
     id="path4"
     style="fill:url(#linearGradient16);fill-opacity:1;stroke:url(#linearGradient4);stroke-width:0.164578" />
  <path
     d="m 6.2957926,3.0414294 v 3.149e-4 c -0.1353215,-0.00326 -0.2689662,0.03004 -0.3862378,0.096249 L 3.7390378,4.3663272 C 3.6339617,4.4259274 3.5455292,4.5100074 3.4815622,4.6111315 3.417591,4.7122613 3.3800868,4.8272854 3.3723534,4.9460286 c 0.00679,0.1197829 0.043824,0.2359923 0.1078319,0.3382063 0.06401,0.1022634 0.1529705,0.1872419 0.2588563,0.2473702 L 5.909557,6.759935 C 6.0216992,6.823442 6.1489339,6.85686 6.2784364,6.85686 6.4079387,6.85686 6.535172,6.823437 6.647315,6.759935 L 8.8178291,5.5316053 C 8.922871,5.4720482 9.0113429,5.3879252 9.0753052,5.286806 9.1392666,5.1856853 9.1767957,5.0706661 9.184489,4.9519319 9.1777239,4.8321658 9.1406967,4.7159306 9.0766861,4.6137116 9.0126741,4.5114788 8.9237098,4.4264654 8.8178291,4.3663273 L 6.6473124,3.1379928 C 6.5402505,3.0774446 6.4193768,3.0442388 6.2957926,3.0414294 Z"
     stroke="url(#paint4_linear)"
     stroke-width="0.3"
     id="path5"
     style="fill:url(#linearGradient18);stroke:url(#linearGradient2);stroke-opacity:1" />
</svg>
