<?xml version="1.0" encoding="UTF-8" standalone="no"?>
<svg
   xmlns:dc="http://purl.org/dc/elements/1.1/"
   xmlns:cc="http://creativecommons.org/ns#"
   xmlns:rdf="http://www.w3.org/1999/02/22-rdf-syntax-ns#"
   xmlns:svg="http://www.w3.org/2000/svg"
   xmlns="http://www.w3.org/2000/svg"
   xmlns:xlink="http://www.w3.org/1999/xlink"
   xmlns:sodipodi="http://sodipodi.sourceforge.net/DTD/sodipodi-0.dtd"
   xmlns:inkscape="http://www.inkscape.org/namespaces/inkscape"
   width="47.285591"
   height="47.28569"
   version="1.1"
   viewBox="0 0 12.510734 12.51076"
   id="svg12"
   sodipodi:docname="gcompris-qt.svg"
   inkscape:version="1.0.1 (3bc2e813f5, 2020-09-07)">
  <style
     id="style891"></style>
  <metadata
     id="metadata66">
    <rdf:RDF>
      <cc:Work
         rdf:about="">
        <dc:format>image/svg+xml</dc:format>
        <dc:type
           rdf:resource="http://purl.org/dc/dcmitype/StillImage" />
      </cc:Work>
    </rdf:RDF>
  </metadata>
  <defs
     id="defs16">
    <linearGradient
       id="c"
       y1="523.79999"
       x1="403.57001"
       y2="536.79999"
       x2="416.57001"
       gradientUnits="userSpaceOnUse"
       gradientTransform="matrix(0.34526714,0,0,0.34526706,-134.80427,-174.63325)">
      <stop
         stop-color="#292c2f"
         id="stop1568" />
      <stop
         offset="1"
         stop-opacity="0"
         id="stop1570" />
    </linearGradient>
    <linearGradient
       xlink:href="#b-2"
       id="linearGradient4189"
       x1="14.369"
       y1="22.521999"
       x2="26.521999"
       y2="22.521999"
       gradientUnits="userSpaceOnUse" />
    <linearGradient
       x1="36"
       gradientUnits="userSpaceOnUse"
       x2="14"
       y2="12"
       y1="44"
       id="b-2">
      <stop
         style="stop-color:#bfc9c9;stop-opacity:1"
         stop-color="#536161"
         id="stop1579" />
      <stop
         style="stop-color:#fbfbfb;stop-opacity:1"
         stop-color="#f4f5f5"
         offset="1"
         id="stop1581" />
    </linearGradient>
    <linearGradient
       xlink:href="#b-2"
       id="linearGradient4428"
       gradientUnits="userSpaceOnUse"
       x1="31.586"
       y1="36.345001"
       x2="1.2029999"
       y2="6.723" />
    <linearGradient
       xlink:href="#b-2"
       id="linearGradient4189-3"
       x1="14.369"
       y1="22.521999"
       x2="26.521999"
       y2="22.521999"
       gradientUnits="userSpaceOnUse"
       gradientTransform="translate(20.841982,61.553822)" />
    <linearGradient
       xlink:href="#b-2"
       id="linearGradient4428-5"
       gradientUnits="userSpaceOnUse"
       x1="31.586"
       y1="36.345001"
       x2="1.2029999"
       y2="6.723"
       gradientTransform="translate(20.841982,61.553822)" />
    <linearGradient
       xlink:href="#b-2"
       id="linearGradient4189-3-3"
       x1="14.369"
       y1="22.521999"
       x2="26.521999"
       y2="22.521999"
       gradientUnits="userSpaceOnUse"
       gradientTransform="translate(4.376802,4.4211693)" />
    <linearGradient
       xlink:href="#b-2"
       id="linearGradient4428-5-5"
       gradientUnits="userSpaceOnUse"
       x1="31.586"
       y1="36.345001"
       x2="1.2029999"
       y2="6.723"
       gradientTransform="translate(4.376802,4.4211693)" />
    <linearGradient
       inkscape:collect="always"
       xlink:href="#linearGradient14"
       id="linearGradient15"
       x1="-9.6850061"
       y1="45.161198"
       x2="11.98815"
       y2="21.735205"
       gradientUnits="userSpaceOnUse"
       gradientTransform="scale(0.26457813)" />
    <linearGradient
       id="linearGradient14"
       inkscape:collect="always">
      <stop
         style="stop-color:#ff9900;stop-opacity:0.34509805;"
         offset="0"
         id="stop12" />
      <stop
         style="stop-color:#ffb685;stop-opacity:0.81568629;"
         offset="1"
         id="stop13" />
    </linearGradient>
    <filter
       id="filter2917-3"
       x="-0.96181148"
       y="-0.66745996"
       width="2.9236228"
       height="2.3349199"
       color-interpolation-filters="sRGB">
      <feGaussianBlur
         stdDeviation="0.2871969"
         id="feGaussianBlur732-5" />
    </filter>
    <filter
       id="filter1"
       x="-0.96181148"
       y="-0.66745996"
       width="2.9236228"
       height="2.3349199"
       color-interpolation-filters="sRGB">
      <feGaussianBlur
         stdDeviation="0.2871969"
         id="feGaussianBlur1" />
    </filter>
    <filter
       id="filter2"
       x="-0.96181148"
       y="-0.66745996"
       width="2.9236228"
       height="2.3349199"
       color-interpolation-filters="sRGB">
      <feGaussianBlur
         stdDeviation="0.2871969"
         id="feGaussianBlur2" />
    </filter>
    <linearGradient
       id="_lgradient_20"
       x1="-0.29991642"
       y1="-0.26140401"
       x2="0.96725708"
       y2="0.86616999"
       gradientTransform="matrix(15.137397,0,0,16.82717,0.89780187,0.05291536)"
       gradientUnits="userSpaceOnUse">
      <stop
         offset="34.94098066785295%"
         stop-opacity="1"
         style="stop-color:rgb(178,229,107)"
         id="stop1" />
      <stop
         offset="53.84922244785295%"
         stop-opacity="1"
         style="stop-color:rgb(194,233,100)"
         id="stop2" />
      <stop
         offset="90.40515655585295%"
         stop-opacity="1"
         style="stop-color:rgb(236,244,81)"
         id="stop3" />
      <stop
         offset="100%"
         stop-opacity="1"
         style="stop-color:rgb(250,247,75)"
         id="stop4" />
    </linearGradient>
    <linearGradient
       id="b-2-5"
       y1="35.825909"
       y2="-4.1468086"
       gradientUnits="userSpaceOnUse"
       x2="1.525889"
       gradientTransform="matrix(0.18808708,0,0,0.18779368,2.9505234,2.8105876)"
       x1="0.19073613">
      <stop
         stop-color="#d35400"
         id="stop7-9-6"
         offset="0"
         style="stop-color:#ff9e5e;stop-opacity:1;" />
      <stop
         offset="1"
         stop-color="#f67400"
         stop-opacity=".941"
         id="stop9-1-2" />
    </linearGradient>
    <linearGradient
       gradientUnits="userSpaceOnUse"
       y2="563.45239"
       x2="448.15787"
       y1="615.15955"
       x1="448.15787"
       id="linearGradient4249"
       xlink:href="#linearGradient4243"
       gradientTransform="matrix(1.5014116,0,0,1.5014116,-210.22776,-286.30954)" />
    <linearGradient
       id="linearGradient4243">
      <stop
         id="stop4245"
         offset="0"
         style="stop-color:#cf5e19;stop-opacity:1" />
      <stop
         id="stop4247"
         offset="1"
         style="stop-color:#e77936;stop-opacity:0;" />
    </linearGradient>
    <linearGradient
       xlink:href="#linearGradient9138"
       id="linearGradient9167"
       x1="451.07458"
       y1="614.4151"
       x2="451.07458"
       y2="555.28333"
       gradientUnits="userSpaceOnUse"
       gradientTransform="matrix(1.5014116,0,0,1.5014116,-213.37456,-288.36078)" />
    <linearGradient
       id="linearGradient9138">
      <stop
         style="stop-color:#000000;stop-opacity:0.25120774"
         offset="0"
         id="stop9140" />
      <stop
         style="stop-color:#ffffff;stop-opacity:0;"
         offset="1"
         id="stop9142" />
    </linearGradient>
    <linearGradient
       inkscape:collect="always"
       xlink:href="#linearGradient14"
       id="linearGradient899"
       x1="-12.025727"
       y1="6.1170783"
       x2="-0.085100174"
       y2="6.1170783"
       gradientUnits="userSpaceOnUse" />
  </defs>
  <sodipodi:namedview
     id="namedview14"
     pagecolor="#000000"
     bordercolor="#666666"
     borderopacity="1.0"
     inkscape:showpageshadow="2"
     inkscape:pageopacity="0.0"
     inkscape:pagecheckerboard="0"
     inkscape:deskcolor="#d1d1d1"
     showgrid="false"
     inkscape:zoom="8.8545525"
     inkscape:cx="9.8631925"
     inkscape:cy="24.84624"
     inkscape:window-width="1920"
     inkscape:window-height="988"
     inkscape:window-x="0"
     inkscape:window-y="0"
     inkscape:window-maximized="1"
     inkscape:current-layer="svg12"
     inkscape:document-rotation="0">
    <inkscape:grid
       type="xygrid"
       id="grid244"
       originx="9.9594769"
       originy="-31.57929"
       spacingy="1"
       spacingx="1"
       units="px"
       visible="false" />
  </sodipodi:namedview>
  <rect
     x="-12.194976"
     y="0.32004508"
     width="11.940627"
     height="11.936014"
     rx="1.6121091"
     shape-rendering="crispEdges"
     id="rect5-6-7-3"
     ry="1.7735944"
     transform="matrix(0.00523883,-0.99998628,0.999988,0.00489859,0,0)"
     style="fill:#ffe0cc;fill-opacity:0.0980392;stroke:url(#linearGradient899);stroke-width:0.5291563;stroke-miterlimit:4;stroke-dasharray:none;stroke-opacity:1" />
  <rect
     x="-3.7202365"
     y="4.8851409"
     width="7.912631"
     height="7.912384"
     rx="1.612043"
     shape-rendering="crispEdges"
     id="rect5-6-6-6-6"
     style="fill:#ffc299;fill-opacity:0.101961;stroke:url(#linearGradient15);stroke-width:0.39686725;stroke-opacity:1;stroke-miterlimit:4;stroke-dasharray:none"
     ry="1.7735215"
     transform="matrix(0.72612649,-0.68756114,0.6879775,0.72573202,0,0)" />
  <g
     id="g894"
     style="display:inline;stroke-width:1.50146"
     transform="matrix(0.10606118,0,0,0.10606118,-41.732222,-55.845557)">
    <path
       id="path4182"
       d="m 430.20198,558.64 c -4.77759,5.457 -7.41717,12.45963 -7.43048,19.7125 0,16.57366 13.43561,30.00927 30.00928,30.00927 7.25529,-0.008 14.26224,-2.64309 19.72384,-7.41913 l -3.52237,-3.52237 c -4.5208,3.851 -10.2628,5.9705 -16.20147,5.98029 -13.83366,0 -25.04808,-11.21439 -25.04808,-25.04806 10e-4,-5.94196 2.11626,-11.68971 5.96519,-16.21659 z"
       style="color:#000000;clip-rule:nonzero;display:inline;overflow:visible;visibility:visible;opacity:1;isolation:auto;mix-blend-mode:normal;color-interpolation:sRGB;color-interpolation-filters:linearRGB;solid-color:#000000;solid-opacity:1;fill:#e77936;fill-opacity:1;fill-rule:nonzero;stroke:none;stroke-width:3.00281;stroke-linecap:butt;stroke-linejoin:miter;stroke-miterlimit:4;stroke-dasharray:none;stroke-dashoffset:0;stroke-opacity:1;marker:none;color-rendering:auto;image-rendering:auto;shape-rendering:auto;text-rendering:auto;enable-background:accumulate" />
    <rect
       transform="rotate(-45)"
       style="color:#000000;clip-rule:nonzero;display:inline;overflow:visible;visibility:visible;opacity:1;isolation:auto;mix-blend-mode:normal;color-interpolation:sRGB;color-interpolation-filters:linearRGB;solid-color:#000000;solid-opacity:1;fill:#e77936;fill-opacity:1;fill-rule:nonzero;stroke:none;stroke-width:3.00281;stroke-linecap:butt;stroke-linejoin:miter;stroke-miterlimit:4;stroke-dasharray:none;stroke-dashoffset:0;stroke-opacity:1;marker:none;color-rendering:auto;image-rendering:auto;shape-rendering:auto;text-rendering:auto;enable-background:accumulate"
       id="rect4180-3"
       width="4.7278013"
       height="60.744595"
       x="-91.247795"
       y="698.65808"
       rx="3.019978e-07"
       ry="3.019978e-07" />
    <ellipse
       style="color:#000000;clip-rule:nonzero;display:inline;overflow:visible;visibility:visible;opacity:1;isolation:auto;mix-blend-mode:normal;color-interpolation:sRGB;color-interpolation-filters:linearRGB;solid-color:#000000;solid-opacity:1;fill:#e77935;fill-opacity:1;fill-rule:nonzero;stroke:none;stroke-width:28.448;stroke-linecap:butt;stroke-linejoin:miter;stroke-miterlimit:4;stroke-dasharray:none;stroke-dashoffset:0;stroke-opacity:1;marker:none;color-rendering:auto;image-rendering:auto;shape-rendering:auto;text-rendering:auto;enable-background:accumulate"
       id="path4848"
       cx="452.65173"
       cy="578.35254"
       rx="21.236917"
       ry="21.236921" />
    <path
       id="rect5297"
       d="m 472.14161,615.07415 h -19.36082 -19.36082 c 0,-3.87217 9.68041,-5.80825 19.36082,-5.80825 9.68041,0 19.36082,1.93608 19.36082,5.80825 z"
       style="color:#000000;clip-rule:nonzero;display:inline;overflow:visible;visibility:visible;opacity:1;isolation:auto;mix-blend-mode:normal;color-interpolation:sRGB;color-interpolation-filters:linearRGB;solid-color:#000000;solid-opacity:1;fill:#e77936;fill-opacity:1;fill-rule:nonzero;stroke:none;stroke-width:3.00281;stroke-linecap:butt;stroke-linejoin:miter;stroke-miterlimit:4;stroke-dasharray:none;stroke-dashoffset:0;stroke-opacity:1;marker:none;color-rendering:auto;image-rendering:auto;shape-rendering:auto;text-rendering:auto;enable-background:accumulate" />
    <path
       style="color:#000000;clip-rule:nonzero;display:inline;overflow:visible;visibility:visible;opacity:1;isolation:auto;mix-blend-mode:normal;color-interpolation:sRGB;color-interpolation-filters:linearRGB;solid-color:#000000;solid-opacity:1;fill:#ffa061;fill-opacity:1;fill-rule:nonzero;stroke:none;stroke-width:3.00281;stroke-linecap:butt;stroke-linejoin:miter;stroke-miterlimit:4;stroke-dasharray:none;stroke-dashoffset:0;stroke-opacity:1;marker:none;color-rendering:auto;image-rendering:auto;shape-rendering:auto;text-rendering:auto;enable-background:accumulate"
       d="m 432.84723,555.20553 -3.34375,3.34179 0.42187,0.42188 c -4.59936,5.40832 -7.14125,12.27392 -7.1543,19.38281 0,15.92294 12.40327,28.94305 28.07422,29.94141 v 1.02148 c -8.99132,0.24204 -17.42578,2.14702 -17.42578,5.75977 h 19.36133 19.36133 c 0,-3.61275 -8.43446,-5.51773 -17.42578,-5.75977 v -1.02539 c 6.41499,-0.42157 12.53912,-2.89117 17.45898,-7.07031 l 0.28125,0.28125 3.34375,-3.34375 -6.56836,-6.56836 a 21.236917,21.236921 0 0 0 4.65625,-13.23633 21.236917,21.236921 0 0 0 -21.23633,-21.23633 21.236917,21.236921 0 0 0 -13.25,4.64454 z m 0.58593,7.27148 2.63868,2.63867 a 21.236917,21.236921 0 0 0 -4.65625,13.23633 21.236917,21.236921 0 0 0 21.23632,21.23828 21.236917,21.236921 0 0 0 13.25,-4.64453 l 2.74024,2.74024 c -4.46822,3.67496 -10.06708,5.70529 -15.86133,5.71484 -13.83366,0 -25.04883,-11.21516 -25.04883,-25.04883 9.8e-4,-5.79715 2.02871,-11.40098 5.70117,-15.875 z"
       id="rect5300-3" />
    <path
       d="m 460.96035,569.23567 c 0,0 -3.24925,-3.15097 -8.81079,-3.15755 -5.56153,-0.007 -11.13101,6.70068 -11.13774,12.36549 -0.007,5.6648 3.23857,12.17269 11.8432,12.18287 8.60465,0.009 12.5975,-4.49595 11.14085,-14.98806 l -10.6024,3.34438 1.99129,2.10041 1.25961,-0.3132 c 0,0 2.09558,2.62508 -1.05296,3.04097 -3.14853,0.41587 -5.9808,-0.4267 -6.39579,-4.41355 -0.41503,-3.98685 2.73638,-6.81552 6.40723,-5.23763 z"
       id="path8810-6-7-0-4-9-8"
       style="display:inline;opacity:1;fill:#ffffff;fill-opacity:1;fill-rule:evenodd;stroke:none;stroke-width:28.448;stroke-linecap:butt;stroke-linejoin:miter;stroke-miterlimit:4;stroke-dasharray:none;stroke-opacity:1" />
    <path
       d="m 460.96035,569.23567 c 0,0 -3.24925,-3.15097 -8.81079,-3.15755 -5.56153,-0.007 -11.13101,6.70068 -11.13774,12.36549 -0.007,5.6648 3.23857,12.17269 11.8432,12.18287 8.60465,0.009 12.5975,-4.49595 11.14085,-14.98806 l -10.6024,3.34437 1.99129,2.10042 1.25961,-0.3132 c 0,0 2.09558,2.62507 -1.05296,3.04096 -3.14853,0.41588 -5.9808,-0.4267 -6.39579,-4.41355 -0.41503,-3.98684 2.73638,-6.81551 6.40723,-5.23762 z"
       id="path8810-6-7-0-4-9-8-6"
       style="display:inline;opacity:1;fill:url(#linearGradient9167);fill-opacity:1;fill-rule:evenodd;stroke:none;stroke-width:28.448;stroke-linecap:butt;stroke-linejoin:miter;stroke-miterlimit:4;stroke-dasharray:none;stroke-opacity:1" />
  </g>
  <path
     inkscape:connector-curvature="0"
     style="fill:#3788de;fill-opacity:1;fill-rule:evenodd;stroke:none;stroke-width:0.174532px;stroke-linecap:butt;stroke-linejoin:miter;stroke-opacity:1"
     d="m 8.8719379,10.581158 c 0.012409,0.10281 0.6327236,0.919284 0.7253128,0.96579 0.09259,0.04651 1.2430533,-0.123015 1.3152343,-0.187246 0.07218,-0.06423 0.609737,-1.131155 0.564266,-1.253805 -0.04547,-0.1226503 -0.6462,-0.8542607 -0.757683,-0.8945824 -0.111482,-0.040322 -1.2205992,0.00181 -1.3345752,0.07884 -0.113977,0.077025 -0.5249634,1.1881944 -0.5125549,1.2910034 z"
     id="path19848-2"
     sodipodi:nodetypes="zzzzzzz" />
  <path
     style="color:#000000;display:inline;overflow:visible;visibility:visible;fill:#ffffff;fill-opacity:1;fill-rule:nonzero;stroke:none;stroke-width:0.174532;stroke-linecap:round;stroke-linejoin:round;stroke-miterlimit:4;stroke-dasharray:none;stroke-dashoffset:0;stroke-opacity:1;marker:none;enable-background:accumulate"
     d="m 10.53461,9.7829412 c -0.212755,-0.017449 -0.33682,-0.2766187 -0.124041,-0.2594663 0.212779,0.017151 0.336797,0.2769152 0.124041,0.2594663 z"
     id="path4146-37"
     inkscape:connector-curvature="0"
     sodipodi:nodetypes="zzz" />
  <path
     style="color:#000000;display:inline;overflow:visible;visibility:visible;fill:#ffffff;fill-opacity:1;fill-rule:nonzero;stroke:none;stroke-width:0.174532;stroke-linecap:round;stroke-linejoin:round;stroke-miterlimit:4;stroke-dasharray:none;stroke-dashoffset:0;stroke-opacity:1;marker:none;enable-background:accumulate"
     d="M 9.494531,9.8687759 C 9.5121473,10.081877 9.277195,10.246871 9.2592837,10.033796 9.2413714,9.8207208 9.4769159,9.6556747 9.494531,9.8687759 Z"
     id="path4146-3-59"
     inkscape:connector-curvature="0"
     sodipodi:nodetypes="zzz" />
  <path
     style="color:#000000;display:inline;overflow:visible;visibility:visible;fill:#ffffff;fill-opacity:1;fill-rule:nonzero;stroke:none;stroke-width:0.174532;stroke-linecap:round;stroke-linejoin:round;stroke-miterlimit:4;stroke-dasharray:none;stroke-dashoffset:0;stroke-opacity:1;marker:none;enable-background:accumulate"
     d="m 9.2542279,10.390384 c 0.017615,0.213101 -0.2173361,0.378095 -0.2352485,0.16502 -0.017912,-0.213076 0.2176322,-0.378122 0.2352485,-0.16502 z"
     id="path4146-3-6-2"
     inkscape:connector-curvature="0"
     sodipodi:nodetypes="zzz" />
  <path
     style="color:#000000;display:inline;overflow:visible;visibility:visible;fill:#ffffff;fill-opacity:1;fill-rule:nonzero;stroke:none;stroke-width:0.174532;stroke-linecap:round;stroke-linejoin:round;stroke-miterlimit:4;stroke-dasharray:none;stroke-dashoffset:0;stroke-opacity:1;marker:none;enable-background:accumulate"
     d="m 9.8264451,10.3216 c 0.017616,0.213101 -0.217335,0.378096 -0.2352474,0.16502 -0.017912,-0.213075 0.2176322,-0.378121 0.2352474,-0.16502 z"
     id="path4146-3-7-2"
     inkscape:connector-curvature="0"
     sodipodi:nodetypes="zzz" />
  <path
     style="color:#000000;display:inline;overflow:visible;visibility:visible;fill:#ffffff;fill-opacity:1;fill-rule:nonzero;stroke:none;stroke-width:0.174532;stroke-linecap:round;stroke-linejoin:round;stroke-miterlimit:4;stroke-dasharray:none;stroke-dashoffset:0;stroke-opacity:1;marker:none;enable-background:accumulate"
     d="m 9.5803916,10.848938 c 0.017615,0.213101 -0.2173361,0.378095 -0.2352484,0.165019 -0.017912,-0.213076 0.2176332,-0.378122 0.2352484,-0.165019 z"
     id="path4146-3-5-8"
     inkscape:connector-curvature="0"
     sodipodi:nodetypes="zzz" />
  <path
     style="color:#000000;display:inline;overflow:visible;visibility:visible;fill:#ffffff;fill-opacity:1;fill-rule:nonzero;stroke:none;stroke-width:0.174532;stroke-linecap:round;stroke-linejoin:round;stroke-miterlimit:4;stroke-dasharray:none;stroke-dashoffset:0;stroke-opacity:1;marker:none;enable-background:accumulate"
     d="m 10.832663,10.872322 c -0.01875,0.213006 -0.278245,0.335661 -0.259794,0.122631 0.01845,-0.213029 0.278541,-0.335635 0.259794,-0.122631 z"
     id="path4146-3-56-97"
     inkscape:connector-curvature="0"
     sodipodi:nodetypes="zzz" />
  <path
     style="color:#000000;display:inline;overflow:visible;visibility:visible;fill:#ffffff;fill-opacity:1;fill-rule:nonzero;stroke:none;stroke-width:0.174532;stroke-linecap:round;stroke-linejoin:round;stroke-miterlimit:4;stroke-dasharray:none;stroke-dashoffset:0;stroke-opacity:1;marker:none;enable-background:accumulate"
     d="m 10.455829,10.360992 c -0.03104,0.211557 -0.297207,0.318932 -0.266456,0.107334 0.03075,-0.2116 0.297502,-0.318891 0.266456,-0.107334 z"
     id="path4146-3-56-9-3"
     inkscape:connector-curvature="0"
     sodipodi:nodetypes="zzz" />
</svg>
