<?xml version="1.0" encoding="UTF-8" standalone="no"?>
<svg
   xmlns:dc="http://purl.org/dc/elements/1.1/"
   xmlns:cc="http://creativecommons.org/ns#"
   xmlns:rdf="http://www.w3.org/1999/02/22-rdf-syntax-ns#"
   xmlns:svg="http://www.w3.org/2000/svg"
   xmlns="http://www.w3.org/2000/svg"
   xmlns:xlink="http://www.w3.org/1999/xlink"
   xmlns:sodipodi="http://sodipodi.sourceforge.net/DTD/sodipodi-0.dtd"
   xmlns:inkscape="http://www.inkscape.org/namespaces/inkscape"
   width="47.285591"
   height="47.28569"
   version="1.1"
   viewBox="0 0 12.510734 12.51076"
   id="svg12"
   sodipodi:docname="jupyter.svg"
   inkscape:version="1.0.1 (3bc2e813f5, 2020-09-07)">
  <style
     id="style902"></style>
  <metadata
     id="metadata77">
    <rdf:RDF>
      <cc:Work
         rdf:about="">
        <dc:format>image/svg+xml</dc:format>
        <dc:type
           rdf:resource="http://purl.org/dc/dcmitype/StillImage" />
      </cc:Work>
    </rdf:RDF>
  </metadata>
  <defs
     id="defs16">
    <linearGradient
       id="c"
       y1="523.79999"
       x1="403.57001"
       y2="536.79999"
       x2="416.57001"
       gradientUnits="userSpaceOnUse"
       gradientTransform="matrix(0.34526714,0,0,0.34526706,-134.80427,-174.63325)">
      <stop
         stop-color="#292c2f"
         id="stop1568" />
      <stop
         offset="1"
         stop-opacity="0"
         id="stop1570" />
    </linearGradient>
    <linearGradient
       xlink:href="#b-2"
       id="linearGradient4189"
       x1="14.369"
       y1="22.521999"
       x2="26.521999"
       y2="22.521999"
       gradientUnits="userSpaceOnUse" />
    <linearGradient
       x1="36"
       gradientUnits="userSpaceOnUse"
       x2="14"
       y2="12"
       y1="44"
       id="b-2">
      <stop
         style="stop-color:#bfc9c9;stop-opacity:1"
         stop-color="#536161"
         id="stop1579" />
      <stop
         style="stop-color:#fbfbfb;stop-opacity:1"
         stop-color="#f4f5f5"
         offset="1"
         id="stop1581" />
    </linearGradient>
    <linearGradient
       xlink:href="#b-2"
       id="linearGradient4428"
       gradientUnits="userSpaceOnUse"
       x1="31.586"
       y1="36.345001"
       x2="1.2029999"
       y2="6.723" />
    <linearGradient
       xlink:href="#b-2"
       id="linearGradient4189-3"
       x1="14.369"
       y1="22.521999"
       x2="26.521999"
       y2="22.521999"
       gradientUnits="userSpaceOnUse"
       gradientTransform="translate(20.841982,61.553822)" />
    <linearGradient
       xlink:href="#b-2"
       id="linearGradient4428-5"
       gradientUnits="userSpaceOnUse"
       x1="31.586"
       y1="36.345001"
       x2="1.2029999"
       y2="6.723"
       gradientTransform="translate(20.841982,61.553822)" />
    <linearGradient
       xlink:href="#b-2"
       id="linearGradient4189-3-3"
       x1="14.369"
       y1="22.521999"
       x2="26.521999"
       y2="22.521999"
       gradientUnits="userSpaceOnUse"
       gradientTransform="translate(4.376802,4.4211693)" />
    <linearGradient
       xlink:href="#b-2"
       id="linearGradient4428-5-5"
       gradientUnits="userSpaceOnUse"
       x1="31.586"
       y1="36.345001"
       x2="1.2029999"
       y2="6.723"
       gradientTransform="translate(4.376802,4.4211693)" />
    <linearGradient
       inkscape:collect="always"
       xlink:href="#linearGradient14"
       id="linearGradient15"
       x1="-9.6850061"
       y1="45.161198"
       x2="11.98815"
       y2="21.735205"
       gradientUnits="userSpaceOnUse"
       gradientTransform="scale(0.26457813)" />
    <linearGradient
       id="linearGradient14"
       inkscape:collect="always">
      <stop
         style="stop-color:#9955ff;stop-opacity:0.45197046;"
         offset="0"
         id="stop12" />
      <stop
         style="stop-color:#00ccff;stop-opacity:1"
         offset="1"
         id="stop13" />
    </linearGradient>
    <filter
       id="filter1823"
       x="-0.0098629938"
       y="-0.027566286"
       width="1.019726"
       height="1.0551326"
       color-interpolation-filters="sRGB">
      <feGaussianBlur
         stdDeviation="0.15015586"
         id="feGaussianBlur2" />
    </filter>
    <filter
       id="filter1"
       x="-0.094081327"
       y="-0.093198478"
       width="1.1881626"
       height="1.186397"
       color-interpolation-filters="sRGB">
      <feGaussianBlur
         stdDeviation="0.17090543"
         id="feGaussianBlur1" />
    </filter>
    <filter
       id="filter3"
       x="-0.094081327"
       y="-0.093198478"
       width="1.1881626"
       height="1.186397"
       color-interpolation-filters="sRGB">
      <feGaussianBlur
         stdDeviation="0.17090543"
         id="feGaussianBlur3" />
    </filter>
    <filter
       id="filter4"
       x="-0.094081327"
       y="-0.093198478"
       width="1.1881626"
       height="1.186397"
       color-interpolation-filters="sRGB">
      <feGaussianBlur
         stdDeviation="0.17090543"
         id="feGaussianBlur4" />
    </filter>
    <filter
       id="filter5"
       x="-0.094081327"
       y="-0.093198478"
       width="1.1881626"
       height="1.186397"
       color-interpolation-filters="sRGB">
      <feGaussianBlur
         stdDeviation="0.17090543"
         id="feGaussianBlur5" />
    </filter>
    <filter
       id="filter3393"
       x="-0.58427984"
       y="-0.33101305"
       width="2.1685596"
       height="1.662026"
       color-interpolation-filters="sRGB">
      <feGaussianBlur
         stdDeviation="0.19991353"
         id="feGaussianBlur6" />
    </filter>
    <filter
       id="filter7"
       x="-0.58427984"
       y="-0.33101305"
       width="2.1685596"
       height="1.662026"
       color-interpolation-filters="sRGB">
      <feGaussianBlur
         stdDeviation="0.19991353"
         id="feGaussianBlur7" />
    </filter>
    <filter
       id="filter8"
       x="-0.58427984"
       y="-0.33101305"
       width="2.1685596"
       height="1.662026"
       color-interpolation-filters="sRGB">
      <feGaussianBlur
         stdDeviation="0.19991353"
         id="feGaussianBlur8" />
    </filter>
    <filter
       id="filter9"
       x="-0.58427984"
       y="-0.33101305"
       width="2.1685596"
       height="1.662026"
       color-interpolation-filters="sRGB">
      <feGaussianBlur
         stdDeviation="0.19991353"
         id="feGaussianBlur9" />
    </filter>
    <filter
       id="filter10"
       x="-0.58427984"
       y="-0.33101305"
       width="2.1685596"
       height="1.662026"
       color-interpolation-filters="sRGB">
      <feGaussianBlur
         stdDeviation="0.19991353"
         id="feGaussianBlur10" />
    </filter>
    <filter
       id="filter11"
       x="-0.58427984"
       y="-0.33101305"
       width="2.1685596"
       height="1.662026"
       color-interpolation-filters="sRGB">
      <feGaussianBlur
         stdDeviation="0.19991353"
         id="feGaussianBlur11" />
    </filter>
    <filter
       id="filter12"
       x="-0.58427984"
       y="-0.33101305"
       width="2.1685596"
       height="1.662026"
       color-interpolation-filters="sRGB">
      <feGaussianBlur
         stdDeviation="0.19991353"
         id="feGaussianBlur12" />
    </filter>
    <filter
       id="filter13"
       x="-0.00097520457"
       y="-0.00096699828"
       width="1.0019504"
       height="1.0019341"
       color-interpolation-filters="sRGB">
      <feGaussianBlur
         stdDeviation="0.0023955525"
         id="feGaussianBlur13" />
    </filter>
    <filter
       id="filter15"
       x="-0.00027069115"
       y="-0.00026841846"
       width="1.0005414"
       height="1.0005368"
       color-interpolation-filters="sRGB">
      <feGaussianBlur
         stdDeviation="0.00083816689"
         id="feGaussianBlur15" />
    </filter>
    <linearGradient
       inkscape:collect="always"
       xlink:href="#linearGradient14"
       id="linearGradient910"
       x1="-12.025727"
       y1="6.1170783"
       x2="-0.085100174"
       y2="6.1170783"
       gradientUnits="userSpaceOnUse" />
  </defs>
  <sodipodi:namedview
     id="namedview14"
     pagecolor="#000000"
     bordercolor="#666666"
     borderopacity="1.0"
     inkscape:showpageshadow="2"
     inkscape:pageopacity="0.0"
     inkscape:pagecheckerboard="0"
     inkscape:deskcolor="#d1d1d1"
     showgrid="false"
     inkscape:zoom="8.8545525"
     inkscape:cx="20.71065"
     inkscape:cy="16.860183"
     inkscape:window-width="1920"
     inkscape:window-height="988"
     inkscape:window-x="0"
     inkscape:window-y="0"
     inkscape:window-maximized="1"
     inkscape:current-layer="svg12"
     showguides="false"
     inkscape:document-rotation="0">
    <inkscape:grid
       type="xygrid"
       id="grid244"
       originx="9.9594769"
       originy="-31.57929"
       spacingy="1"
       spacingx="1"
       units="px"
       visible="false" />
  </sodipodi:namedview>
  <rect
     x="-12.194976"
     y="0.32004508"
     width="11.940627"
     height="11.936014"
     rx="1.6121091"
     shape-rendering="crispEdges"
     id="rect5-6-7-3"
     ry="1.7735944"
     transform="matrix(0.00523883,-0.99998628,0.999988,0.00489859,0,0)"
     style="fill:#80b3ff;fill-opacity:0.15;stroke:url(#linearGradient910);stroke-width:0.5291563;stroke-miterlimit:4;stroke-dasharray:none;stroke-opacity:1" />
  <rect
     x="-3.7202365"
     y="4.8851409"
     width="7.912631"
     height="7.912384"
     rx="1.612043"
     shape-rendering="crispEdges"
     id="rect5-6-6-6-6"
     style="fill:#80b3ff;fill-opacity:0.122146;stroke:url(#linearGradient15);stroke-width:0.39686725;stroke-opacity:1;stroke-miterlimit:4;stroke-dasharray:none"
     ry="1.7735215"
     transform="matrix(0.72612649,-0.68756114,0.6879775,0.72573202,0,0)" />
  <path
     id="use6"
     d="M 18.265,7.134 C 10.415,7.134 3.56,4.258 0,0 c 1.325,3.82 3.796,7.13 7.07,9.473 3.274,2.343 7.187,3.6 11.2,3.6 4.013,0 7.927,-1.258 11.2,-3.6 C 32.743,7.131 35.213,3.82 36.538,0 32.97,4.258 26.115,7.134 18.265,7.134 Z"
     style="opacity:0.153;fill:#2e3440;stroke-width:1.53225;filter:url(#filter1823)"
     transform="matrix(0.142959,0,0,0.14420252,3.8421032,7.0718099)" />
  <path
     id="use7"
     d="m 18.273,5.94 c 7.85,0 14.706,2.877 18.265,7.134 C 35.213,9.254 32.742,5.944 29.468,3.601 26.194,1.258 22.282,0 18.27,0 14.258,0 10.343,1.258 7.07,3.6 3.797,5.942 1.325,9.253 0,13.073 3.567,8.825 10.423,5.94 18.273,5.94 Z"
     style="opacity:0.153;fill:#2e3440;stroke-width:1.53225;filter:url(#filter1823)"
     transform="matrix(0.142959,0,0,0.14420252,3.8406737,3.2504439)" />
  <path
     id="use10"
     d="m 9.1902889,3.0574488 c 0.0047,0.1046579 -0.02203,0.2082606 -0.07629,0.2976181 -0.0542,0.089361 -0.133918,0.1609148 -0.228866,0.2050613 -0.09493,0.044153 -0.201044,0.059278 -0.304258,0.043262 A 0.52773621,0.52332961 0 0 1 8.3039143,3.4702368 0.53491632,0.53044973 0 0 1 8.1475679,3.2057222 C 8.1227919,3.1042602 8.1286306,2.9974608 8.1646073,2.8988464 A 0.5331212,0.52866958 0 0 1 8.3491208,2.6533793 0.52594083,0.52154924 0 0 1 8.6390239,2.5517395 c 0.140004,-0.00574 0.276799,0.043966 0.380178,0.1388438 0.103393,0.094883 0.164795,0.2267753 0.170889,0.3666848 z"
     style="opacity:1;fill:#bbd7ff;fill-opacity:0.992157;stroke-width:0.220012" />
  <path
     id="use11"
     d="m 6.3561866,8.0026407 c -1.1222272,0 -2.1022126,-0.4147255 -2.6111455,-1.0287405 0.1894189,0.5508534 0.5426713,1.0281649 1.0107167,1.3660308 0.4680479,0.3378638 1.027446,0.5191293 1.6011517,0.5191293 0.5736808,0 1.1332179,-0.1814085 1.6011326,-0.5191293 C 8.425946,8.0022093 8.779056,7.5247536 8.9684664,6.9739002 8.4583944,7.5879152 7.478409,8.0026407 6.3561866,8.0026407 Z"
     style="fill:#d08770;stroke-width:0.220012" />
  <path
     id="use12"
     d="m 6.355907,4.0090984 c 1.1222207,0 2.1023449,0.4148687 2.6111359,1.0287387 C 8.7776242,4.4869865 8.4243674,4.009674 7.9563264,3.6718075 7.4882799,3.333942 6.9290166,3.152535 6.3554599,3.152535 c -0.573542,0 -1.1332261,0.181407 -1.6011317,0.5191283 C 4.2864226,4.0093864 3.9330284,4.48684 3.7436076,5.0376932 4.2535417,4.4251226 5.2336701,4.0090984 6.355907,4.0090984 Z"
     style="fill:#d08770;stroke-width:0.220012" />
  <g
     id="g1"
     transform="matrix(0.23442238,0,0,0.23646146,-1.6564301,-1.0959403)"
     style="fill:#bbd7ff;fill-opacity:0.993151;stroke-width:1.12378">
    <path
       d="M 3.997,9.7557 Q 3.9214,9.7557 3.86405,9.745272 3.806698,9.737452 3.764987,9.727024 v -0.32847 q 0.041711,0.010428 0.088635,0.018248 0.044318,0.00782 0.096456,0.00782 0.06778,0 0.12252,-0.026069 Q 4.12995,9.372484 4.161233,9.29949 4.192516,9.226497 4.192516,9.09094 v -1.744 h 0.39364 v 1.7414 q 0,0.23984 -0.0756,0.38582 -0.072993,0.14859 -0.20595,0.21377 -0.13295,0.06778 -0.30762,0.06778 z"
       id="path14"
       style="opacity:0.33882;fill:#bbd7ff;fill-opacity:0.993151;stroke-width:0.297322;filter:url(#filter3393)"
       transform="matrix(3.7544147,0,0,3.7452306,2.2294045,-1.2277374)" />
    <path
       d="M 6.3302,7.7848 V 9.2082 H 6.03301 L 5.980872,9.02572 H 5.960017 q -0.06778,0.10949 -0.1877,0.15902 -0.11731,0.049531 -0.25026,0.049531 -0.22941,0 -0.36757,-0.12252 -0.13817,-0.12513 -0.13817,-0.39886 v -0.92806 h 0.38843 v 0.8316 q 0,0.1512 0.054745,0.22941 0.054745,0.078207 0.17466,0.078207 0.17727,0 0.24244,-0.11992 0.065173,-0.12252 0.065173,-0.34933 v -0.66998 z"
       id="path15"
       style="opacity:0.33882;fill:#bbd7ff;fill-opacity:0.993151;stroke-width:0.297322;filter:url(#filter3393)"
       transform="matrix(3.7535426,0,0,3.7775978,2.2325797,-1.4564962)" />
    <path
       d="m 7.5294,7.7588 q 0.23984,0 0.38843,0.1877 0.14859,0.18509 0.14859,0.54745 0,0.36236 -0.15381,0.55266 -0.15381,0.1877 -0.39364,0.1877 -0.15381,0 -0.24505,-0.054745 Q 7.182678,9.122213 7.12533,9.051825 H 7.104475 q 0.020855,0.10949 0.020855,0.20855 v 0.57352 H 6.7369 v -2.049 h 0.31544 l 0.054745,0.18509 H 7.125333 Q 7.182685,7.883957 7.279143,7.821395 7.375599,7.758829 7.529403,7.758829 Z M 7.40427,8.06902 q -0.1512,0 -0.21377,0.093849 -0.059959,0.093849 -0.065173,0.28676 V 8.49134 q 0,0.20595 0.059959,0.31804 0.062566,0.10949 0.22419,0.10949 0.13295,0 0.19552,-0.10949 0.065173,-0.1121 0.065173,-0.32065 0,-0.41971 -0.2659,-0.41971 z"
       id="path16"
       style="opacity:0.33882;fill:#bbd7ff;fill-opacity:0.993151;stroke-width:0.297322;filter:url(#filter3393)"
       transform="matrix(3.7544147,0,0,3.7452306,2.2294045,-1.2277374)" />
    <path
       d="m 8.1316,7.7848 h 0.42493 l 0.26851,0.80032 q 0.020855,0.057352 0.031283,0.11992 0.010428,0.059959 0.015642,0.12774 h 0.00782 Q 8.887605,8.765 8.90064,8.70504 8.916281,8.642474 8.93453,8.58512 L 9.19783,7.7848 H 9.61494 L 9.01274,9.3907 Q 8.931926,9.61229 8.77551,9.72178 8.6217,9.83388 8.41836,9.83388 8.353187,9.83388 8.30366,9.82606 8.256736,9.82085 8.220239,9.813025 v -0.30762 q 0.028676,0.00521 0.06778,0.010428 0.041711,0.00521 0.086028,0.00521 0.12252,0 0.19291,-0.0756 0.072993,-0.072994 0.10688,-0.17727 L 8.697299,9.197787 Z"
       id="path17"
       style="opacity:0.33882;fill:#bbd7ff;fill-opacity:0.993151;stroke-width:0.297322;filter:url(#filter3393)"
       transform="matrix(3.7544147,0,0,3.7452306,2.2294045,-1.2277374)" />
    <path
       d="m 10.418,8.9241 q 0.06517,0 0.12513,-0.013034 0.05996,-0.013035 0.11992,-0.031283 v 0.28937 q -0.06257,0.026069 -0.15642,0.044318 -0.09124,0.020855 -0.20073,0.020855 -0.12774,0 -0.22941,-0.041711 Q 9.977427,9.150905 9.91747,9.049235 9.860118,8.944955 9.860118,8.762475 v -0.68562 h -0.18509 v -0.16424 l 0.21377,-0.13035 0.1121,-0.29979 h 0.24766 v 0.3024 h 0.39886 v 0.29197 h -0.39886 v 0.68562 q 0,0.080814 0.04692,0.12252 0.04692,0.039104 0.12252,0.039104 z"
       id="path18"
       style="opacity:0.33882;fill:#bbd7ff;fill-opacity:0.993151;stroke-width:0.297322;filter:url(#filter3393)"
       transform="matrix(3.7535426,0,0,3.7775978,2.2325797,-1.4564962)" />
    <path
       d="m 11.536,7.7588 q 0.29458,0 0.46664,0.16945 0.17206,0.16684 0.17206,0.47706 v 0.1877 h -0.91763 q 0.0052,0.16424 0.09646,0.25808 0.09385,0.093849 0.25808,0.093849 0.13817,0 0.25026,-0.026069 0.1121,-0.028676 0.23202,-0.086028 v 0.29979 q -0.10428,0.052138 -0.22159,0.0756 -0.1147,0.026069 -0.27894,0.026069 -0.21377,0 -0.378,-0.078207 -0.16424,-0.080814 -0.25808,-0.24244 -0.09385,-0.16163 -0.09385,-0.40668 0,-0.25026 0.08342,-0.4145 0.08603,-0.16684 0.23723,-0.25026 0.1512,-0.083421 0.35193,-0.083421 z m 0.0026,0.27633 q -0.1121,0 -0.1877,0.072994 -0.07299,0.072993 -0.08603,0.2268 h 0.54484 Q 11.80711,8.204574 11.74193,8.121154 11.67676,8.035126 11.53859,8.035126 Z"
       id="path19"
       style="opacity:0.33882;fill:#bbd7ff;fill-opacity:0.993151;stroke-width:0.297322;filter:url(#filter3393)"
       transform="matrix(3.7535426,0,0,3.7775978,2.2325797,-1.4564962)" />
    <path
       d="m 13.285,7.7588 q 0.02868,0 0.06778,0.00261 0.0391,0.00261 0.06257,0.00782 L 13.38667,8.1342 Q 13.36842,8.12899 13.33192,8.12638 13.29803,8.12117 13.27196,8.12117 q -0.09906,0 -0.1903,0.036497 -0.09124,0.03389 -0.14859,0.1121 -0.05475,0.078207 -0.05475,0.21377 v 0.72472 h -0.38843 v -1.4234 h 0.29458 l 0.05735,0.23984 h 0.01825 q 0.06257,-0.10949 0.17206,-0.1877 Q 13.14162,7.75879 13.285,7.75879 Z"
       id="path20"
       style="opacity:0.33882;fill:#bbd7ff;fill-opacity:0.993151;stroke-width:0.297322;filter:url(#filter3393)"
       transform="matrix(3.7535426,0,0,3.7775978,2.2325797,-1.4564962)" />
    <path
       d="m 16.770809,34.928568 q -0.283782,0 -0.499033,-0.03939 -0.215291,-0.02966 -0.371857,-0.06899 v -1.24083 q 0.156566,0.03938 0.332695,0.069 0.166357,0.02965 0.362078,0.02965 0.254409,0 0.459878,-0.09844 0.215288,-0.09841 0.332699,-0.374217 0.117332,-0.27574 0.117332,-0.787823 V 25.82939 h 1.477538 v 6.578298 q 0,0.90603 -0.283768,1.457473 -0.273988,0.561312 -0.773034,0.807543 -0.499048,0.256042 -1.15466,0.256042 z"
       id="path21"
       style="fill:#bbd7ff;fill-opacity:0.993151;stroke-width:1.11959" />
    <path
       d="m 25.528558,27.483675 v 5.377028 H 24.41305 l -0.195701,-0.689336 h -0.07827 q -0.254434,0.413609 -0.704539,0.60071 -0.44033,0.187125 -0.93937,0.187125 -0.861105,0 -1.379689,-0.462839 -0.51862,-0.472679 -0.51862,-1.506733 v -3.505843 h 1.457989 v 3.141467 q 0,0.571169 0.205472,0.866594 0.205494,0.295448 0.655613,0.295448 0.665386,0 0.910014,-0.453005 0.244646,-0.462832 0.244646,-1.319627 v -2.530925 z"
       id="path22"
       style="fill:#bbd7ff;fill-opacity:0.993151;stroke-width:1.11959" />
    <path
       d="m 30.029425,27.385081 q 0.90026,0 1.458001,0.709067 0.557739,0.699185 0.557739,2.068038 0,1.368844 -0.577343,2.087726 -0.577327,0.709043 -1.47754,0.709043 -0.577331,0 -0.919797,-0.206802 -0.342479,-0.216644 -0.557749,-0.482535 h -0.07826 q 0.07826,0.413595 0.07826,0.7878 v 2.166549 h -1.457991 v -7.7403 h 1.184027 l 0.205476,0.699181 h 0.06857 q 0.215284,-0.324976 0.577339,-0.561305 0.362056,-0.236346 0.939348,-0.236346 z m -0.469673,1.171893 q -0.567541,0 -0.802391,0.354511 -0.225054,0.354527 -0.244625,1.083277 v 0.15756 q 0,0.777989 0.225055,1.201431 0.234859,0.413612 0.84151,0.413612 0.499032,0 0.733874,-0.413612 0.244638,-0.42347 0.244638,-1.211294 0,-1.585485 -0.998061,-1.585485 z"
       id="path23"
       style="fill:#bbd7ff;fill-opacity:0.993151;stroke-width:1.11959" />
    <path
       d="m 32.289798,27.483675 h 1.595022 l 1.007891,3.023291 q 0.07812,0.216643 0.117321,0.452994 0.03908,0.226519 0.05869,0.482562 h 0.0293 q 0.02921,-0.256039 0.07814,-0.482562 0.05862,-0.236345 0.127219,-0.452994 l 0.988295,-3.023291 h 1.565716 l -2.260367,6.066444 q -0.303314,0.837076 -0.890476,1.250693 -0.57727,0.423468 -1.340524,0.423468 -0.244671,0 -0.430562,-0.02963 -0.176116,-0.01971 -0.313102,-0.04925 v -1.162069 q 0.107679,0.01973 0.254396,0.03938 0.156599,0.01973 0.322921,0.01973 0.459884,0 0.724117,-0.285587 0.273976,-0.275731 0.40113,-0.669649 l 0.0877,-0.265895 z"
       id="path24"
       style="fill:#bbd7ff;fill-opacity:0.993151;stroke-width:1.11959" />
    <path
       d="m 40.871562,31.787126 q 0.244621,0 0.469665,-0.0493 0.225066,-0.04924 0.450098,-0.1181 v 1.093114 q -0.234855,0.09844 -0.587036,0.167431 -0.342545,0.07877 -0.753512,0.07877 -0.47946,0 -0.861069,-0.157572 -0.371749,-0.15756 -0.596857,-0.541619 -0.215365,-0.393924 -0.215365,-1.083269 V 28.58657 h -0.694647 v -0.620462 l 0.802393,-0.492406 0.420749,-1.132483 h 0.929541 v 1.142358 h 1.497129 v 1.10292 h -1.497129 v 2.589998 q 0,0.305297 0.176152,0.462834 0.176091,0.147757 0.459888,0.147757 z"
       id="path25"
       style="fill:#bbd7ff;fill-opacity:0.993151;stroke-width:1.11959" />
    <path
       d="m 45.067919,27.385081 q 1.105774,0 1.751656,0.640123 0.645893,0.630241 0.645893,1.802133 v 0.709046 h -3.444454 q 0.01964,0.620442 0.362004,0.974937 0.352434,0.354515 0.968755,0.354515 0.518726,0 0.939407,-0.09842 0.420776,-0.108425 0.87089,-0.324988 V 32.5749 q -0.39141,0.196958 -0.831671,0.285588 -0.430636,0.09842 -1.047102,0.09842 -0.802365,0 -1.418862,-0.29546 -0.61654,-0.305266 -0.968694,-0.915836 -0.352227,-0.610574 -0.352227,-1.536265 0,-0.945381 0.313095,-1.565802 0.322913,-0.630277 0.890435,-0.945403 0.567551,-0.31511 1.32091,-0.31511 z m 0.01257,1.04386 q -0.420759,0 -0.70455,0.275748 -0.273979,0.275738 -0.322931,0.856761 h 2.045103 Q 46.08557,29.069042 45.843734,28.753897 45.599046,28.42892 45.080426,28.42892 Z"
       id="path26"
       style="fill:#bbd7ff;fill-opacity:0.993151;stroke-width:1.11959" />
    <path
       d="m 51.636688,27.385081 q 0.107779,0 0.254436,0.01035 0.146785,0.01035 0.234759,0.0296 l -0.107766,1.378701 q -0.06903,-0.01972 -0.205555,-0.0296 -0.127241,-0.01972 -0.225055,-0.01972 -0.37188,0 -0.714296,0.137882 -0.342536,0.128031 -0.557798,0.423464 -0.20546,0.295395 -0.20546,0.807495 v 2.737572 H 48.65197 v -5.37708 h 1.105782 l 0.21529,0.906027 h 0.06898 q 0.23491,-0.413611 0.645835,-0.709064 0.411006,-0.295431 0.949178,-0.295431 z"
       id="path27"
       style="fill:#bbd7ff;fill-opacity:0.993151;stroke-width:1.11959" />
  </g>
  <path
     id="use10-6"
     d="m 4.0844227,9.1561938 c 0.0047,0.1046579 -0.02203,0.2082606 -0.07629,0.2976181 -0.0542,0.089361 -0.133918,0.1609148 -0.228866,0.2050613 -0.09493,0.044153 -0.201044,0.059278 -0.304258,0.043262 A 0.52773621,0.52332961 0 0 1 3.1980481,9.5689818 0.53491632,0.53044973 0 0 1 3.0417017,9.3044672 C 3.0169257,9.2030052 3.0227644,9.0962058 3.0587411,8.9975914 A 0.5331212,0.52866958 0 0 1 3.2432546,8.7521243 0.52594083,0.52154924 0 0 1 3.5331577,8.6504845 c 0.140004,-0.00574 0.276799,0.043966 0.380178,0.1388438 0.103393,0.094883 0.164795,0.2267753 0.170889,0.3666848 z"
     style="fill:#bbd7ff;fill-opacity:0.992157;stroke-width:0.220012" />
</svg>
