<?xml version="1.0" encoding="UTF-8" standalone="no"?>
<svg
   xmlns:dc="http://purl.org/dc/elements/1.1/"
   xmlns:cc="http://creativecommons.org/ns#"
   xmlns:rdf="http://www.w3.org/1999/02/22-rdf-syntax-ns#"
   xmlns:svg="http://www.w3.org/2000/svg"
   xmlns="http://www.w3.org/2000/svg"
   xmlns:xlink="http://www.w3.org/1999/xlink"
   xmlns:sodipodi="http://sodipodi.sourceforge.net/DTD/sodipodi-0.dtd"
   xmlns:inkscape="http://www.inkscape.org/namespaces/inkscape"
   width="47.285591"
   height="47.28569"
   version="1.1"
   viewBox="0 0 12.510734 12.51076"
   id="svg12"
   sodipodi:docname="kapptemplate.svg"
   inkscape:version="1.0.1 (3bc2e813f5, 2020-09-07)">
  <style
     id="style873"></style>
  <metadata
     id="metadata48">
    <rdf:RDF>
      <cc:Work
         rdf:about="">
        <dc:format>image/svg+xml</dc:format>
        <dc:type
           rdf:resource="http://purl.org/dc/dcmitype/StillImage" />
      </cc:Work>
    </rdf:RDF>
  </metadata>
  <defs
     id="defs16">
    <linearGradient
       id="c"
       y1="523.79999"
       x1="403.57001"
       y2="536.79999"
       x2="416.57001"
       gradientUnits="userSpaceOnUse"
       gradientTransform="matrix(0.09135013,0,0,0.09135011,-37.518309,-48.056186)">
      <stop
         stop-color="#292c2f"
         id="stop1568" />
      <stop
         offset="1"
         stop-opacity="0"
         id="stop1570" />
    </linearGradient>
    <linearGradient
       xlink:href="#b-2"
       id="linearGradient4189"
       x1="14.369"
       y1="22.521999"
       x2="26.521999"
       y2="22.521999"
       gradientUnits="userSpaceOnUse" />
    <linearGradient
       x1="36"
       gradientUnits="userSpaceOnUse"
       x2="14"
       y2="12"
       y1="44"
       id="b-2">
      <stop
         style="stop-color:#bfc9c9;stop-opacity:1"
         stop-color="#536161"
         id="stop1579" />
      <stop
         style="stop-color:#fbfbfb;stop-opacity:1"
         stop-color="#f4f5f5"
         offset="1"
         id="stop1581" />
    </linearGradient>
    <linearGradient
       xlink:href="#b-2"
       id="linearGradient4428"
       gradientUnits="userSpaceOnUse"
       x1="31.586"
       y1="36.345001"
       x2="1.2029999"
       y2="6.723" />
    <linearGradient
       xlink:href="#b-2"
       id="linearGradient4189-3"
       x1="14.369"
       y1="22.521999"
       x2="26.521999"
       y2="22.521999"
       gradientUnits="userSpaceOnUse"
       gradientTransform="translate(20.841982,61.553822)" />
    <linearGradient
       xlink:href="#b-2"
       id="linearGradient4428-5"
       gradientUnits="userSpaceOnUse"
       x1="31.586"
       y1="36.345001"
       x2="1.2029999"
       y2="6.723"
       gradientTransform="translate(20.841982,61.553822)" />
    <linearGradient
       xlink:href="#b-2"
       id="linearGradient4189-3-3"
       x1="14.369"
       y1="22.521999"
       x2="26.521999"
       y2="22.521999"
       gradientUnits="userSpaceOnUse"
       gradientTransform="translate(4.376802,4.4211693)" />
    <linearGradient
       xlink:href="#b-2"
       id="linearGradient4428-5-5"
       gradientUnits="userSpaceOnUse"
       x1="31.586"
       y1="36.345001"
       x2="1.2029999"
       y2="6.723"
       gradientTransform="translate(4.376802,4.4211693)" />
    <linearGradient
       inkscape:collect="always"
       xlink:href="#linearGradient14"
       id="linearGradient15"
       x1="-9.6850061"
       y1="45.161198"
       x2="11.98815"
       y2="21.735205"
       gradientUnits="userSpaceOnUse"
       gradientTransform="scale(0.26457813)" />
    <linearGradient
       id="linearGradient14"
       inkscape:collect="always">
      <stop
         style="stop-color:#37c871;stop-opacity:1"
         offset="0"
         id="stop12" />
      <stop
         style="stop-color:#00ccff;stop-opacity:1"
         offset="1"
         id="stop13" />
    </linearGradient>
    <filter
       id="filter2917-3"
       x="-0.96181148"
       y="-0.66745996"
       width="2.9236228"
       height="2.3349199"
       color-interpolation-filters="sRGB">
      <feGaussianBlur
         stdDeviation="0.2871969"
         id="feGaussianBlur732-5" />
    </filter>
    <filter
       id="filter1"
       x="-0.96181148"
       y="-0.66745996"
       width="2.9236228"
       height="2.3349199"
       color-interpolation-filters="sRGB">
      <feGaussianBlur
         stdDeviation="0.2871969"
         id="feGaussianBlur1" />
    </filter>
    <filter
       id="filter2"
       x="-0.96181148"
       y="-0.66745996"
       width="2.9236228"
       height="2.3349199"
       color-interpolation-filters="sRGB">
      <feGaussianBlur
         stdDeviation="0.2871969"
         id="feGaussianBlur2" />
    </filter>
    <linearGradient
       id="a"
       gradientUnits="userSpaceOnUse"
       x1="45"
       x2="0"
       y1="45"
       y2="3"
       gradientTransform="matrix(1.049854,0,0,1.0499253,88.091637,-7.7170607)">
      <stop
         offset="0"
         stop-color="#b0b8b8"
         id="stop2" />
      <stop
         offset="1"
         stop-color="#eff1f1"
         id="stop4" />
    </linearGradient>
    <linearGradient
       id="e"
       gradientUnits="userSpaceOnUse"
       x1="4"
       x2="4"
       y1="3"
       y2="45"
       gradientTransform="matrix(1.049854,0,0,1.0499253,88.091637,-7.7170607)">
      <stop
         offset="0"
         stop-color="#292c2f"
         id="stop12-3" />
      <stop
         offset="1"
         stop-opacity="0"
         id="stop14" />
    </linearGradient>
    <linearGradient
       id="b"
       gradientUnits="userSpaceOnUse"
       x1="4"
       x2="4"
       y1="45"
       y2="3"
       gradientTransform="matrix(1.049854,0,0,1.0499253,88.091637,-7.7170607)">
      <stop
         offset="0"
         stop-color="#197cf1"
         id="stop7" />
      <stop
         offset="1"
         stop-color="#21c9fb"
         id="stop9" />
    </linearGradient>
    <linearGradient
       id="f"
       gradientUnits="userSpaceOnUse"
       x1="4"
       x2="4"
       y1="45"
       y2="3"
       gradientTransform="matrix(1.049854,0,0,1.0499253,88.091637,-7.7170607)">
      <stop
         offset="0"
         stop-color="#7cbaf8"
         id="stop17" />
      <stop
         offset="1"
         stop-color="#f4fcff"
         id="stop19" />
    </linearGradient>
    <linearGradient
       inkscape:collect="always"
       xlink:href="#linearGradient14"
       id="linearGradient881"
       x1="-12.025727"
       y1="6.1170783"
       x2="-0.085100174"
       y2="6.1170783"
       gradientUnits="userSpaceOnUse" />
  </defs>
  <sodipodi:namedview
     id="namedview14"
     pagecolor="#000000"
     bordercolor="#666666"
     borderopacity="1.0"
     inkscape:showpageshadow="2"
     inkscape:pageopacity="0.0"
     inkscape:pagecheckerboard="0"
     inkscape:deskcolor="#d1d1d1"
     showgrid="false"
     inkscape:zoom="7.5172018"
     inkscape:cx="23.845543"
     inkscape:cy="30.292724"
     inkscape:window-width="1920"
     inkscape:window-height="988"
     inkscape:window-x="0"
     inkscape:window-y="0"
     inkscape:window-maximized="1"
     inkscape:current-layer="svg12"
     inkscape:document-rotation="0">
    <inkscape:grid
       type="xygrid"
       id="grid244"
       originx="9.9594769"
       originy="-31.57929"
       spacingy="1"
       spacingx="1"
       units="px"
       visible="false" />
  </sodipodi:namedview>
  <rect
     x="-12.194976"
     y="0.32004508"
     width="11.940627"
     height="11.936014"
     rx="1.6121091"
     shape-rendering="crispEdges"
     id="rect5-6-7-3"
     ry="1.7735944"
     transform="matrix(0.00523883,-0.99998628,0.999988,0.00489859,0,0)"
     style="fill:#80b3ff;fill-opacity:0.15;stroke:url(#linearGradient881);stroke-width:0.5291563;stroke-miterlimit:4;stroke-dasharray:none;stroke-opacity:1" />
  <rect
     x="-3.7202365"
     y="4.8851409"
     width="7.912631"
     height="7.912384"
     rx="1.612043"
     shape-rendering="crispEdges"
     id="rect5-6-6-6-6"
     style="fill:#80b3ff;fill-opacity:0.122146;stroke:url(#linearGradient15);stroke-width:0.39686725;stroke-opacity:1;stroke-miterlimit:4;stroke-dasharray:none"
     ry="1.7735215"
     transform="matrix(0.72612649,-0.68756114,0.6879775,0.72573202,0,0)" />
  <path
     style="fill:#aaeeff;fill-opacity:1;stroke-width:0.277777"
     d="m 6.2553697,2.8158781 a 3.4390483,3.4392817 0 0 0 -0.3525006,0.017151 l -0.077376,0.533087 A 2.9231921,2.9233903 0 0 0 5.1892666,3.5380781 L 4.8453625,3.1184973 a 3.4390483,3.4392817 0 0 0 -0.6018336,0.350809 l 0.189148,0.4986953 A 2.9231921,2.9233903 0 0 0 3.9684059,4.4323023 L 3.4697381,4.2431502 A 3.4390483,3.4392817 0 0 0 3.1258393,4.8450286 L 3.536377,5.188954 A 2.9231921,2.9233903 0 0 0 3.4353477,5.4984882 2.9231921,2.9233903 0 0 0 3.366597,5.8252249 l -0.5330576,0.077345 a 3.4390483,3.4392817 0 0 0 0,0.6964524 L 3.366597,6.6850153 A 2.9231921,2.9233903 0 0 0 3.5385429,7.3212824 L 3.1189816,7.6652099 A 3.4390483,3.4392817 0 0 0 3.4697641,8.2670876 L 3.9684327,8.0779207 A 2.9231921,2.9233903 0 0 0 4.4327035,8.5422285 L 4.2435554,9.0409264 a 3.4390483,3.4392817 0 0 0 0.6087126,0.349086 l 0.337018,-0.417867 a 2.9231921,2.9233903 0 0 0 0.3095147,0.1031689 2.9231921,2.9233903 0 0 0 0.3267105,0.068827 l 0.077377,0.5330834 a 3.4390483,3.4392817 0 0 0 0.696406,0 l 0.085973,-0.533086 A 2.9231921,2.9233903 0 0 0 7.32149,8.9721744 L 7.6602361,9.3934836 A 3.4390483,3.4392817 0 0 0 8.2701207,9.0409505 L 8.0780865,8.5422501 A 2.9231921,2.9233903 0 0 0 8.5423568,8.0779449 L 9.0410196,8.2671148 A 3.4390483,3.4392817 0 0 0 9.3900734,7.658348 L 8.9722177,7.3213047 a 2.9231921,2.9233903 0 0 0 0.1031698,-0.309533 2.9231921,2.9233903 0 0 0 0.068783,-0.3267364 l 0.5330521,-0.085998 a 3.4390483,3.4392817 0 0 0 0,-0.6964528 L 9.1441715,5.8252372 A 2.9231921,2.9233903 0 0 0 8.9722188,5.18897 L 9.3935009,4.8450353 A 3.4390483,3.4392817 0 0 0 9.0409981,4.2431672 L 8.5423357,4.4323298 A 2.9231921,2.9233903 0 0 0 8.0780678,3.9680296 L 8.2672133,3.4693352 A 3.4390483,3.4392817 0 0 0 7.6653847,3.1253919 L 7.3214796,3.5359558 A 2.9231921,2.9233903 0 0 0 7.0119652,3.4349413 2.9231921,2.9233903 0 0 0 6.6852559,3.3661475 L 6.5992803,2.833071 A 3.4390483,3.4392817 0 0 0 6.2553752,2.8159488 Z M 6.2338789,3.8476619 A 2.4073343,2.4074987 0 0 1 6.8744019,3.9336565 2.4073343,2.4074987 0 0 1 8.5767298,6.874252 2.4073343,2.4074987 0 0 1 5.6363441,8.5766832 2.4073343,2.4074987 0 0 1 3.9340152,5.6360991 2.4073343,2.4074987 0 0 1 6.233879,3.8476787 Z"
     id="path24-1" />
  <path
     style="fill:#aaeeff;fill-opacity:1;stroke-width:0.277779"
     d="M 5.3383707,4.6679123 V 7.8428499 L 7.5782727,6.2553812 Z"
     id="path32-9" />
</svg>
