<?xml version="1.0" encoding="UTF-8" standalone="no"?>
<svg
   xmlns:dc="http://purl.org/dc/elements/1.1/"
   xmlns:cc="http://creativecommons.org/ns#"
   xmlns:rdf="http://www.w3.org/1999/02/22-rdf-syntax-ns#"
   xmlns:svg="http://www.w3.org/2000/svg"
   xmlns="http://www.w3.org/2000/svg"
   xmlns:xlink="http://www.w3.org/1999/xlink"
   xmlns:sodipodi="http://sodipodi.sourceforge.net/DTD/sodipodi-0.dtd"
   xmlns:inkscape="http://www.inkscape.org/namespaces/inkscape"
   width="47.285591"
   height="47.28569"
   version="1.1"
   viewBox="0 0 12.510734 12.51076"
   id="svg12"
   sodipodi:docname="karbon.svg"
   inkscape:version="1.0.1 (3bc2e813f5, 2020-09-07)">
  <style
     id="style873"></style>
  <metadata
     id="metadata48">
    <rdf:RDF>
      <cc:Work
         rdf:about="">
        <dc:format>image/svg+xml</dc:format>
        <dc:type
           rdf:resource="http://purl.org/dc/dcmitype/StillImage" />
      </cc:Work>
    </rdf:RDF>
  </metadata>
  <defs
     id="defs16">
    <linearGradient
       id="linearGradient895"
       inkscape:collect="always">
      <stop
         style="stop-color:#bc5fd3;stop-opacity:1"
         offset="0"
         id="stop891" />
      <stop
         style="stop-color:#2a7fff;stop-opacity:1"
         offset="1"
         id="stop893" />
    </linearGradient>
    <linearGradient
       id="c"
       y1="523.79999"
       x1="403.57001"
       y2="536.79999"
       x2="416.57001"
       gradientUnits="userSpaceOnUse"
       gradientTransform="matrix(0.34526714,0,0,0.34526706,-134.80427,-174.63325)">
      <stop
         stop-color="#292c2f"
         id="stop1568" />
      <stop
         offset="1"
         stop-opacity="0"
         id="stop1570" />
    </linearGradient>
    <linearGradient
       xlink:href="#b-2"
       id="linearGradient4189"
       x1="14.369"
       y1="22.521999"
       x2="26.521999"
       y2="22.521999"
       gradientUnits="userSpaceOnUse" />
    <linearGradient
       x1="36"
       gradientUnits="userSpaceOnUse"
       x2="14"
       y2="12"
       y1="44"
       id="b-2">
      <stop
         style="stop-color:#bfc9c9;stop-opacity:1"
         stop-color="#536161"
         id="stop1579" />
      <stop
         style="stop-color:#fbfbfb;stop-opacity:1"
         stop-color="#f4f5f5"
         offset="1"
         id="stop1581" />
    </linearGradient>
    <linearGradient
       xlink:href="#b-2"
       id="linearGradient4428"
       gradientUnits="userSpaceOnUse"
       x1="31.586"
       y1="36.345001"
       x2="1.2029999"
       y2="6.723" />
    <linearGradient
       xlink:href="#b-2"
       id="linearGradient4189-3"
       x1="14.369"
       y1="22.521999"
       x2="26.521999"
       y2="22.521999"
       gradientUnits="userSpaceOnUse"
       gradientTransform="translate(20.841982,61.553822)" />
    <linearGradient
       xlink:href="#b-2"
       id="linearGradient4428-5"
       gradientUnits="userSpaceOnUse"
       x1="31.586"
       y1="36.345001"
       x2="1.2029999"
       y2="6.723"
       gradientTransform="translate(20.841982,61.553822)" />
    <linearGradient
       xlink:href="#b-2"
       id="linearGradient4189-3-3"
       x1="14.369"
       y1="22.521999"
       x2="26.521999"
       y2="22.521999"
       gradientUnits="userSpaceOnUse"
       gradientTransform="translate(4.376802,4.4211693)" />
    <linearGradient
       xlink:href="#b-2"
       id="linearGradient4428-5-5"
       gradientUnits="userSpaceOnUse"
       x1="31.586"
       y1="36.345001"
       x2="1.2029999"
       y2="6.723"
       gradientTransform="translate(4.376802,4.4211693)" />
    <filter
       id="d-7"
       x="-0.035999998"
       y="-0.036000062"
       width="1.072"
       height="1.0720001"
       color-interpolation-filters="sRGB">
      <feGaussianBlur
         stdDeviation="9"
         id="feGaussianBlur238-5" />
    </filter>
    <linearGradient
       id="paint1_linear_41_121"
       x1="11.9599"
       y1="21"
       x2="11.9599"
       y2="3"
       gradientUnits="userSpaceOnUse"
       gradientTransform="scale(0.26457819)">
      <stop
         stop-color="#FD4C00"
         id="stop5" />
      <stop
         offset="1"
         stop-color="#FFB800"
         id="stop6" />
    </linearGradient>
    <linearGradient
       inkscape:collect="always"
       xlink:href="#linearGradient895"
       id="linearGradient2"
       x1="-3.8211522"
       y1="8.6008863"
       x2="4.2804661"
       y2="8.6008863"
       gradientUnits="userSpaceOnUse" />
    <linearGradient
       id="a-1-2-2"
       y1="510.79999"
       y2="527.14001"
       gradientUnits="userSpaceOnUse"
       x2="0"
       gradientTransform="matrix(1.2378066,0,0,1.231,-93.270747,-117.26405)">
      <stop
         stop-color="#7cbaf8"
         id="stop2-2-7-7" />
      <stop
         offset="1"
         stop-color="#f4fcff"
         id="stop4-70-0-0" />
    </linearGradient>
    <linearGradient
       id="c-93"
       y1="503.79999"
       x1="400.57001"
       y2="519.79999"
       x2="416.57001"
       gradientUnits="userSpaceOnUse"
       gradientTransform="matrix(1.2378066,0,0,1.231,-89.070362,-114.83858)">
      <stop
         stop-color="#292c2f"
         id="stop12-6" />
      <stop
         offset="1"
         stop-opacity="0"
         id="stop14-0" />
    </linearGradient>
    <linearGradient
       id="b-6"
       y1="542.79999"
       x1="408.57001"
       y2="521.79999"
       x2="387.57001"
       gradientUnits="userSpaceOnUse"
       gradientTransform="matrix(1.2378066,0,0,1.231,-473.64035,-614.6386)">
      <stop
         stop-color="#197cf1"
         id="stop7-2" />
      <stop
         offset="1"
         stop-color="#20bcfa"
         id="stop9-6" />
    </linearGradient>
    <linearGradient
       id="linearGradient1"
       inkscape:collect="always">
      <stop
         style="stop-color:#ffcc00;stop-opacity:1"
         offset="0"
         id="stop1" />
      <stop
         style="stop-color:#ff00ff;stop-opacity:1"
         offset="1"
         id="stop5-3" />
    </linearGradient>
    <linearGradient
       inkscape:collect="always"
       xlink:href="#linearGradient1"
       id="linearGradient9"
       gradientUnits="userSpaceOnUse"
       x1="10"
       y1="187.5005"
       x2="365"
       y2="187.5005" />
    <linearGradient
       id="paint1_linear_11_144"
       x1="14.3397"
       y1="54.185299"
       x2="107.499"
       y2="115.118"
       gradientUnits="userSpaceOnUse"
       gradientTransform="scale(0.26457815)">
      <stop
         stop-color="#FD5900"
         id="stop4" />
      <stop
         offset="1"
         stop-color="#FFDE00"
         id="stop5-36" />
    </linearGradient>
    <linearGradient
       inkscape:collect="always"
       xlink:href="#linearGradient895"
       id="linearGradient881"
       x1="-12.025727"
       y1="6.1170783"
       x2="-0.085100174"
       y2="6.1170783"
       gradientUnits="userSpaceOnUse" />
    <linearGradient
       id="_lgradient_46"
       x1="0.26445037"
       y1="0.17469302"
       x2="0.53260309"
       y2="0.52864116"
       gradientTransform="matrix(16.580234,0,0,16.580234,0.17638503,0.17638527)"
       gradientUnits="userSpaceOnUse"
       xlink:href="#linearGradient895">
      <stop
         offset="0"
         stop-opacity="1"
         style="stop-color:#24ed85;stop-opacity:1;"
         id="stop1-3" />
      <stop
         offset="0.72168338"
         stop-opacity="1"
         style="stop-color:rgb(245,32,250)"
         id="stop2" />
    </linearGradient>
    <linearGradient
       inkscape:collect="always"
       xlink:href="#linearGradient895"
       id="linearGradient923"
       x1="3.1529801"
       y1="6.2302847"
       x2="9.5028944"
       y2="6.2302847"
       gradientUnits="userSpaceOnUse" />
  </defs>
  <sodipodi:namedview
     id="namedview14"
     pagecolor="#000000"
     bordercolor="#666666"
     borderopacity="1.0"
     inkscape:showpageshadow="2"
     inkscape:pageopacity="0.0"
     inkscape:pagecheckerboard="0"
     inkscape:deskcolor="#d1d1d1"
     showgrid="false"
     inkscape:zoom="6.5048905"
     inkscape:cx="46.275345"
     inkscape:cy="25.833272"
     inkscape:window-width="1920"
     inkscape:window-height="988"
     inkscape:window-x="0"
     inkscape:window-y="0"
     inkscape:window-maximized="1"
     inkscape:current-layer="svg12"
     inkscape:document-rotation="0"
     showguides="false">
    <inkscape:grid
       type="xygrid"
       id="grid244"
       originx="9.9594769"
       originy="-31.57929"
       spacingy="1"
       spacingx="1"
       units="px"
       visible="false" />
    <sodipodi:guide
       position="0.17008498,12.340676"
       orientation="0,45.999886"
       id="guide883" />
    <sodipodi:guide
       position="12.340649,12.340676"
       orientation="45.999989,0"
       id="guide885" />
    <sodipodi:guide
       position="12.340649,0.17008456"
       orientation="0,-45.999886"
       id="guide887" />
    <sodipodi:guide
       position="0.17008498,0.17008456"
       orientation="-45.999989,0"
       id="guide889" />
  </sodipodi:namedview>
  <rect
     x="-12.194976"
     y="0.32004508"
     width="11.940627"
     height="11.936014"
     rx="1.6121091"
     shape-rendering="crispEdges"
     id="rect5-6-7-3"
     ry="1.7735944"
     transform="matrix(0.00523883,-0.99998628,0.999988,0.00489859,0,0)"
     style="fill:#80b3ff;fill-opacity:0.1;stroke:url(#linearGradient881);stroke-width:0.5291563;stroke-miterlimit:4;stroke-dasharray:none;stroke-opacity:1" />
  <rect
     x="-3.7202365"
     y="4.8851409"
     width="7.912631"
     height="7.912384"
     rx="1.612043"
     shape-rendering="crispEdges"
     id="rect5-6-6-6-6"
     style="fill:#5599ff;fill-opacity:0.07;stroke:url(#linearGradient2);stroke-width:0.39686725;stroke-opacity:1;stroke-miterlimit:4;stroke-dasharray:none"
     ry="1.7735215"
     transform="matrix(0.72612649,-0.68756114,0.6879775,0.72573202,0,0)" />
  <path
     d="M 7.6907861,7.864364 C 7.0910621,7.7566865 6.2832781,7.5491672 5.8816111,7.2331597 c -0.02119,0.00422 -0.04338,0.00597 -0.06593,0.00597 -0.238596,0 -0.432334,-0.1937388 -0.432334,-0.432332 0,-0.203736 0.141051,-0.374642 0.331142,-0.4192259 0.158606,-0.2471096 0.455428,-0.4382811 0.534465,-0.7419937 -0.164962,-0.032021 -0.289124,-0.1776616 -0.289124,-0.3519451 0,-0.1132171 0.05214,-0.2141392 0.13362,-0.2803398 -0.366266,-0.4581365 -1.234719,-0.6153972 -1.863763,-0.6676824 6.9e-4,0.00363 8.16e-4,0.00745 8.16e-4,0.011217 0,0.1591519 -0.129161,0.2883111 -0.288318,0.2883111 -0.159013,0 -0.28817,-0.1291592 -0.28817,-0.2883111 0,-0.1590172 0.129157,-0.2881758 0.28817,-0.2881758 0.151323,0 0.275617,0.1168644 0.286696,0.2653437 0.611749,0.03999 1.539369,0.17685 1.960489,0.6248536 0.04012,-0.016752 0.08446,-0.025535 0.130643,-0.025535 0.198874,0 0.360315,0.1614482 0.360315,0.3603213 0,0.1733381 -0.122801,0.318304 -0.286554,0.3514045 -0.07644,0.2993898 -0.362209,0.4912369 -0.521772,0.7333425 0.212119,0.027425 0.376002,0.20887 0.376002,0.4284136 0,0.1742834 -0.103361,0.324519 -0.252509,0.3919356 0.362889,0.2875006 1.124196,0.4111202 1.715008,0.463 0.06686,-0.2435919 0.290199,-0.4226041 0.555001,-0.4226041 0.318171,0 0.576486,0.2581827 0.576486,0.5763518 0,0.3181693 -0.258315,0.5764875 -0.576486,0.5764875 -0.301685,0 -0.5496,-0.2323785 -0.57473,-0.52758 z m 0.06904,0.7032144 v 0 c 0.09472,-0.059714 0.220352,-0.031481 0.28034,0.062823 v 0 c 0.05999,0.094302 0.03187,0.2192742 -0.06285,0.2789891 v 0 c -0.50798,0.3242494 -1.099742,0.4958317 -1.702304,0.4958317 -0.841696,0 -1.649613,-0.3350578 -2.24542,-0.9295136 -0.594469,-0.595809 -0.92953,-1.4037289 -0.92953,-2.2454246 0,-0.4512458 0.09592,-0.8970876 0.282365,-1.3091541 v 0 c 0.04624,-0.101463 0.166465,-0.1464523 0.268194,-0.1006507 v 0 c 0.101729,0.045797 0.146856,0.1660426 0.10066,0.2681812 v 0 c -0.162127,0.3580244 -0.245891,0.748474 -0.245891,1.1416254 0,0.7336132 0.291828,1.438854 0.81063,1.9590026 0.520145,0.5187981 1.225391,0.8106225 1.958997,0.8106225 0.525555,0 1.041652,-0.1499662 1.484788,-0.432332 z M 4.7010771,3.9524388 v 0 c -0.0924,0.063364 -0.218998,0.040127 -0.282362,-0.052018 v 0 c -0.06336,-0.092139 -0.04038,-0.2183276 0.05134,-0.2816909 v 0 c 0.530958,-0.3674825 1.160539,-0.5633829 1.804987,-0.5633829 0.841697,0 1.649614,0.3350569 2.245421,0.929513 0.594453,0.595807 0.929513,1.4037266 0.929513,2.2454222 0,0.279664 -0.0365,0.5593288 -0.109433,0.8295363 v 0 c -0.02907,0.1080825 -0.140513,0.1722568 -0.248595,0.1432101 v 0 C 8.9838581,7.1739856 8.9196911,7.0625241 8.9487401,6.9544415 v 0 c 0.06351,-0.2364322 0.09592,-0.4796183 0.09592,-0.7241558 0,-0.7336131 -0.291823,-1.4388538 -0.810623,-1.9590027 -0.520147,-0.5187975 -1.225393,-0.8106214 -1.959002,-0.8106214 -0.562028,0 -1.111902,0.1715818 -1.573962,0.491777 z"
     fill-rule="evenodd"
     fill="url(#_lgradient_46)"
     id="path2"
     style="isolation:isolate;fill:url(#linearGradient923);fill-opacity:1;stroke-width:0.35277" />
</svg>
