<?xml version="1.0" encoding="UTF-8" standalone="no"?>
<svg
   xmlns:dc="http://purl.org/dc/elements/1.1/"
   xmlns:cc="http://creativecommons.org/ns#"
   xmlns:rdf="http://www.w3.org/1999/02/22-rdf-syntax-ns#"
   xmlns:svg="http://www.w3.org/2000/svg"
   xmlns="http://www.w3.org/2000/svg"
   xmlns:xlink="http://www.w3.org/1999/xlink"
   xmlns:sodipodi="http://sodipodi.sourceforge.net/DTD/sodipodi-0.dtd"
   xmlns:inkscape="http://www.inkscape.org/namespaces/inkscape"
   width="47.285591"
   height="47.28569"
   version="1.1"
   viewBox="0 0 12.510734 12.51076"
   id="svg12"
   sodipodi:docname="kblogger.svg"
   inkscape:version="1.0.1 (3bc2e813f5, 2020-09-07)">
  <style
     id="style866"></style>
  <metadata
     id="metadata41">
    <rdf:RDF>
      <cc:Work
         rdf:about="">
        <dc:format>image/svg+xml</dc:format>
        <dc:type
           rdf:resource="http://purl.org/dc/dcmitype/StillImage" />
      </cc:Work>
    </rdf:RDF>
  </metadata>
  <defs
     id="defs16">
    <linearGradient
       id="linearGradient3"
       inkscape:collect="always">
      <stop
         style="stop-color:#9955ff;stop-opacity:0.45197046;"
         offset="0"
         id="stop2" />
      <stop
         style="stop-color:#d2f6ff;stop-opacity:1;"
         offset="1"
         id="stop3" />
    </linearGradient>
    <linearGradient
       id="c"
       y1="523.79999"
       x1="403.57001"
       y2="536.79999"
       x2="416.57001"
       gradientUnits="userSpaceOnUse"
       gradientTransform="matrix(0.34526714,0,0,0.34526706,-134.80427,-174.63325)">
      <stop
         stop-color="#292c2f"
         id="stop1568" />
      <stop
         offset="1"
         stop-opacity="0"
         id="stop1570" />
    </linearGradient>
    <linearGradient
       xlink:href="#b-2"
       id="linearGradient4189"
       x1="14.369"
       y1="22.521999"
       x2="26.521999"
       y2="22.521999"
       gradientUnits="userSpaceOnUse" />
    <linearGradient
       x1="36"
       gradientUnits="userSpaceOnUse"
       x2="14"
       y2="12"
       y1="44"
       id="b-2">
      <stop
         style="stop-color:#bfc9c9;stop-opacity:1"
         stop-color="#536161"
         id="stop1579" />
      <stop
         style="stop-color:#fbfbfb;stop-opacity:1"
         stop-color="#f4f5f5"
         offset="1"
         id="stop1581" />
    </linearGradient>
    <linearGradient
       xlink:href="#b-2"
       id="linearGradient4428"
       gradientUnits="userSpaceOnUse"
       x1="31.586"
       y1="36.345001"
       x2="1.2029999"
       y2="6.723" />
    <linearGradient
       xlink:href="#b-2"
       id="linearGradient4189-3"
       x1="14.369"
       y1="22.521999"
       x2="26.521999"
       y2="22.521999"
       gradientUnits="userSpaceOnUse"
       gradientTransform="translate(20.841982,61.553822)" />
    <linearGradient
       xlink:href="#b-2"
       id="linearGradient4428-5"
       gradientUnits="userSpaceOnUse"
       x1="31.586"
       y1="36.345001"
       x2="1.2029999"
       y2="6.723"
       gradientTransform="translate(20.841982,61.553822)" />
    <linearGradient
       xlink:href="#b-2"
       id="linearGradient4189-3-3"
       x1="14.369"
       y1="22.521999"
       x2="26.521999"
       y2="22.521999"
       gradientUnits="userSpaceOnUse"
       gradientTransform="translate(4.376802,4.4211693)" />
    <linearGradient
       xlink:href="#b-2"
       id="linearGradient4428-5-5"
       gradientUnits="userSpaceOnUse"
       x1="31.586"
       y1="36.345001"
       x2="1.2029999"
       y2="6.723"
       gradientTransform="translate(4.376802,4.4211693)" />
    <linearGradient
       inkscape:collect="always"
       xlink:href="#linearGradient14"
       id="linearGradient15"
       x1="-9.6850061"
       y1="45.161198"
       x2="11.98815"
       y2="21.735205"
       gradientUnits="userSpaceOnUse"
       gradientTransform="scale(0.26457813)" />
    <linearGradient
       id="linearGradient14"
       inkscape:collect="always">
      <stop
         style="stop-color:#9955ff;stop-opacity:0.45197046;"
         offset="0"
         id="stop12" />
      <stop
         style="stop-color:#00ccff;stop-opacity:1"
         offset="1"
         id="stop13" />
    </linearGradient>
    <filter
       id="filter2917-3"
       x="-0.96181148"
       y="-0.66745996"
       width="2.9236228"
       height="2.3349199"
       color-interpolation-filters="sRGB">
      <feGaussianBlur
         stdDeviation="0.2871969"
         id="feGaussianBlur732-5" />
    </filter>
    <filter
       id="filter1"
       x="-0.96181148"
       y="-0.66745996"
       width="2.9236228"
       height="2.3349199"
       color-interpolation-filters="sRGB">
      <feGaussianBlur
         stdDeviation="0.2871969"
         id="feGaussianBlur1" />
    </filter>
    <filter
       id="filter2"
       x="-0.96181148"
       y="-0.66745996"
       width="2.9236228"
       height="2.3349199"
       color-interpolation-filters="sRGB">
      <feGaussianBlur
         stdDeviation="0.2871969"
         id="feGaussianBlur2" />
    </filter>
    <linearGradient
       inkscape:collect="always"
       xlink:href="#linearGradient3"
       id="linearGradient2"
       x1="10.419127"
       y1="6.1263051"
       x2="3.2463543"
       y2="6.2785101"
       gradientUnits="userSpaceOnUse" />
    <linearGradient
       inkscape:collect="always"
       xlink:href="#linearGradient14"
       id="linearGradient874"
       x1="-12.025727"
       y1="6.1170783"
       x2="-0.085100174"
       y2="6.1170783"
       gradientUnits="userSpaceOnUse" />
  </defs>
  <sodipodi:namedview
     id="namedview14"
     pagecolor="#000000"
     bordercolor="#666666"
     borderopacity="1.0"
     inkscape:showpageshadow="2"
     inkscape:pageopacity="0.0"
     inkscape:pagecheckerboard="0"
     inkscape:deskcolor="#d1d1d1"
     showgrid="false"
     inkscape:zoom="6.2611141"
     inkscape:cx="27.488941"
     inkscape:cy="58.624189"
     inkscape:window-width="1920"
     inkscape:window-height="988"
     inkscape:window-x="0"
     inkscape:window-y="0"
     inkscape:window-maximized="1"
     inkscape:current-layer="svg12"
     inkscape:document-rotation="0">
    <inkscape:grid
       type="xygrid"
       id="grid244"
       originx="9.9594769"
       originy="-31.57929"
       spacingy="1"
       spacingx="1"
       units="px"
       visible="false" />
  </sodipodi:namedview>
  <rect
     x="-12.194976"
     y="0.32004508"
     width="11.940627"
     height="11.936014"
     rx="1.6121091"
     shape-rendering="crispEdges"
     id="rect5-6-7-3"
     ry="1.7735944"
     transform="matrix(0.00523883,-0.99998628,0.999988,0.00489859,0,0)"
     style="fill:#80b3ff;fill-opacity:0.15;stroke:url(#linearGradient874);stroke-width:0.5291563;stroke-miterlimit:4;stroke-dasharray:none;stroke-opacity:1" />
  <rect
     x="-3.7202365"
     y="4.8851409"
     width="7.912631"
     height="7.912384"
     rx="1.612043"
     shape-rendering="crispEdges"
     id="rect5-6-6-6-6"
     style="fill:#80b3ff;fill-opacity:0.122146;stroke:url(#linearGradient15);stroke-width:0.39686725;stroke-opacity:1;stroke-miterlimit:4;stroke-dasharray:none"
     ry="1.7735215"
     transform="matrix(0.72612649,-0.68756114,0.6879775,0.72573202,0,0)" />
  <path
     id="rect943-3"
     style="fill:url(#linearGradient2);fill-opacity:0.83166;stroke-width:2.19212;stroke-linecap:square;stroke-linejoin:round"
     d="m 3.4938631,3.9006666 c -0.1446704,0 -0.2612139,0.1031149 -0.2612139,0.2311253 0,0.1280077 0.1165435,0.2308691 0.2612139,0.2308691 h 3.1899167 c 0.1446718,0 0.2609268,-0.1028614 0.2609268,-0.2308691 0,-0.1280104 -0.116255,-0.2311253 -0.2609268,-0.2311253 z m 0,1.0822993 c -0.1446704,0 -0.2612139,0.1031147 -0.2612139,0.2311246 0,0.1280091 0.1165435,0.231123 0.2612139,0.231123 h 2.1894993 c 0.1446733,0 0.2612145,-0.1031139 0.2612145,-0.231123 0,-0.1280099 -0.1165412,-0.2311246 -0.2612145,-0.2311246 z m 3.2894097,0 c -0.1446715,0 -0.2612107,0.1031147 -0.2612107,0.2311246 0,0.1280091 0.1165392,0.231123 0.2612107,0.231123 h 1.4996174 c 0.1446811,0 0.2609322,-0.1031139 0.2609322,-0.231123 0,-0.1280099 -0.1162511,-0.2311246 -0.2609322,-0.2311246 z M 3.4938631,6.0652653 c -0.1446704,0 -0.2612139,0.1031144 -0.2612139,0.2311244 0,0.1280087 0.1165435,0.231123 0.2612139,0.231123 h 2.8094156 c 0.1446809,0 0.260931,-0.1031143 0.260931,-0.231123 0,-0.12801 -0.1162501,-0.2311244 -0.260931,-0.2311244 z m 0,1.0822987 c -0.1446704,0 -0.2612139,0.1031151 -0.2612139,0.2311247 0,0.1280081 0.1165435,0.2311234 0.2612139,0.2311234 h 3.9130617 c 0.1446712,0 0.2612143,-0.1031153 0.2612143,-0.2311234 0,-0.1280096 -0.1165431,-0.2311247 -0.2612143,-0.2311247 z m 4.9214994,0 c -0.1446711,0 -0.2609272,0.1031151 -0.2609272,0.2311247 0,0.1280081 0.1162561,0.2311234 0.2609272,0.2311234 h 0.705942 c 0.1446739,0 0.2612208,-0.1031153 0.2612208,-0.2311234 0,-0.1280096 -0.1165469,-0.2311247 -0.2612208,-0.2311247 z M 3.4938631,8.229863 c -0.1446704,0 -0.2612139,0.1031154 -0.2612139,0.2311238 0,0.1280095 0.1165435,0.2311247 0.2612139,0.2311247 h 2.8094156 c 0.1446809,0 0.260931,-0.1031152 0.260931,-0.2311247 0,-0.1280084 -0.1162501,-0.2311238 -0.260931,-0.2311238 z m 3.6916966,0 c -0.1446655,0 -0.2612101,0.1031154 -0.2612101,0.2311238 2e-6,0.1280095 0.1165446,0.2311247 0.2612101,0.2311247 h 1.9563922 c 0.1446677,0 0.2612075,-0.1031152 0.2612075,-0.2311247 0,-0.1280084 -0.1165398,-0.2311238 -0.2612075,-0.2311238 z" />
  <g
     id="path1377-5"
     style="fill:#00aad4;fill-opacity:1;stroke-width:1.40005"
     transform="matrix(0.33988272,-0.32074297,0.33988272,0.32074297,-4.3665166,11.824885)">
    <path
       id="path1390-6"
       style="color:#000000;font-style:normal;font-variant:normal;font-weight:normal;font-stretch:normal;font-size:medium;line-height:normal;font-family:sans-serif;font-variant-ligatures:normal;font-variant-position:normal;font-variant-caps:normal;font-variant-numeric:normal;font-variant-alternates:normal;font-variant-east-asian:normal;font-feature-settings:normal;font-variation-settings:normal;text-indent:0;text-align:start;text-decoration:none;text-decoration-line:none;text-decoration-style:solid;text-decoration-color:#000000;letter-spacing:normal;word-spacing:normal;text-transform:none;writing-mode:lr-tb;direction:ltr;text-orientation:mixed;dominant-baseline:auto;baseline-shift:baseline;text-anchor:start;white-space:normal;shape-padding:0;shape-margin:0;inline-size:0;clip-rule:nonzero;display:inline;overflow:visible;visibility:visible;isolation:auto;mix-blend-mode:normal;color-interpolation:sRGB;color-interpolation-filters:linearRGB;solid-color:#000000;solid-opacity:1;vector-effect:none;fill:#00bfee;fill-opacity:1;fill-rule:nonzero;stroke:none;stroke-width:2.64565;stroke-linecap:round;stroke-linejoin:round;stroke-miterlimit:4;stroke-dasharray:none;stroke-dashoffset:0;stroke-opacity:1;color-rendering:auto;image-rendering:auto;shape-rendering:auto;text-rendering:auto;enable-background:accumulate;stop-color:#000000;stop-opacity:1"
       d="m 89.652344,12.320312 c -0.521396,8.92e-4 -0.943546,0.423916 -0.94336,0.945313 v 3.535156 c -1.86e-4,0.521397 0.421964,0.944421 0.94336,0.945313 h 5.005859 c 0.522159,1.86e-4 0.945499,-0.423154 0.945313,-0.945313 v -3.535156 c 1.86e-4,-0.522159 -0.423154,-0.945499 -0.945313,-0.945313 z m 0,7.254885 c -0.521396,8.92e-4 -0.943546,0.423916 -0.94336,0.945312 V 39.50835 c -1.86e-4,0.521396 0.421964,0.94442 0.94336,0.945312 h 5.005859 c 0.522159,1.86e-4 0.945498,-0.423153 0.945313,-0.945312 V 20.520509 c 1.85e-4,-0.522158 -0.423154,-0.945498 -0.945313,-0.945312 z m 0.0293,22.803709 c -0.701889,-9.47e-4 -1.159809,0.736577 -0.847657,1.365235 l 2.125,4.246093 c 0.323326,0.650989 1.229864,0.708461 1.632813,0.103516 l 2.826172,-4.246094 c 0.416906,-0.626032 -0.02911,-1.464549 -0.78125,-1.46875 z"
       transform="scale(0.26458333)"
       sodipodi:nodetypes="ccccccccccccccccccccccccc" />
  </g>
</svg>
