<?xml version="1.0" encoding="UTF-8" standalone="no"?>
<svg
   xmlns:dc="http://purl.org/dc/elements/1.1/"
   xmlns:cc="http://creativecommons.org/ns#"
   xmlns:rdf="http://www.w3.org/1999/02/22-rdf-syntax-ns#"
   xmlns:svg="http://www.w3.org/2000/svg"
   xmlns="http://www.w3.org/2000/svg"
   xmlns:xlink="http://www.w3.org/1999/xlink"
   xmlns:sodipodi="http://sodipodi.sourceforge.net/DTD/sodipodi-0.dtd"
   xmlns:inkscape="http://www.inkscape.org/namespaces/inkscape"
   width="47.285591"
   height="47.28569"
   version="1.1"
   viewBox="0 0 12.510734 12.51076"
   id="svg12"
   sodipodi:docname="keepass.svg"
   inkscape:version="1.0.1 (3bc2e813f5, 2020-09-07)">
  <style
     id="style878"></style>
  <metadata
     id="metadata53">
    <rdf:RDF>
      <cc:Work
         rdf:about="">
        <dc:format>image/svg+xml</dc:format>
        <dc:type
           rdf:resource="http://purl.org/dc/dcmitype/StillImage" />
      </cc:Work>
    </rdf:RDF>
  </metadata>
  <defs
     id="defs16">
    <linearGradient
       id="c"
       y1="523.79999"
       x1="403.57001"
       y2="536.79999"
       x2="416.57001"
       gradientUnits="userSpaceOnUse"
       gradientTransform="matrix(0.09135013,0,0,0.09135011,-37.518309,-48.056186)">
      <stop
         stop-color="#292c2f"
         id="stop1568" />
      <stop
         offset="1"
         stop-opacity="0"
         id="stop1570" />
    </linearGradient>
    <linearGradient
       xlink:href="#b-2"
       id="linearGradient4189"
       x1="14.369"
       y1="22.521999"
       x2="26.521999"
       y2="22.521999"
       gradientUnits="userSpaceOnUse" />
    <linearGradient
       x1="36"
       gradientUnits="userSpaceOnUse"
       x2="14"
       y2="12"
       y1="44"
       id="b-2">
      <stop
         style="stop-color:#bfc9c9;stop-opacity:1"
         stop-color="#536161"
         id="stop1579" />
      <stop
         style="stop-color:#fbfbfb;stop-opacity:1"
         stop-color="#f4f5f5"
         offset="1"
         id="stop1581" />
    </linearGradient>
    <linearGradient
       xlink:href="#b-2"
       id="linearGradient4428"
       gradientUnits="userSpaceOnUse"
       x1="31.586"
       y1="36.345001"
       x2="1.2029999"
       y2="6.723" />
    <linearGradient
       xlink:href="#b-2"
       id="linearGradient4189-3"
       x1="14.369"
       y1="22.521999"
       x2="26.521999"
       y2="22.521999"
       gradientUnits="userSpaceOnUse"
       gradientTransform="translate(20.841982,61.553822)" />
    <linearGradient
       xlink:href="#b-2"
       id="linearGradient4428-5"
       gradientUnits="userSpaceOnUse"
       x1="31.586"
       y1="36.345001"
       x2="1.2029999"
       y2="6.723"
       gradientTransform="translate(20.841982,61.553822)" />
    <linearGradient
       xlink:href="#b-2"
       id="linearGradient4189-3-3"
       x1="14.369"
       y1="22.521999"
       x2="26.521999"
       y2="22.521999"
       gradientUnits="userSpaceOnUse"
       gradientTransform="translate(4.376802,4.4211693)" />
    <linearGradient
       xlink:href="#b-2"
       id="linearGradient4428-5-5"
       gradientUnits="userSpaceOnUse"
       x1="31.586"
       y1="36.345001"
       x2="1.2029999"
       y2="6.723"
       gradientTransform="translate(4.376802,4.4211693)" />
    <linearGradient
       inkscape:collect="always"
       xlink:href="#linearGradient14"
       id="linearGradient15"
       x1="-9.6850061"
       y1="45.161198"
       x2="11.98815"
       y2="21.735205"
       gradientUnits="userSpaceOnUse"
       gradientTransform="scale(0.26457813)" />
    <linearGradient
       id="linearGradient14"
       inkscape:collect="always">
      <stop
         style="stop-color:#37c871;stop-opacity:1"
         offset="0"
         id="stop12" />
      <stop
         style="stop-color:#00d455;stop-opacity:1"
         offset="1"
         id="stop13" />
    </linearGradient>
    <filter
       id="filter2917-3"
       x="-0.96181148"
       y="-0.66745996"
       width="2.9236228"
       height="2.3349199"
       color-interpolation-filters="sRGB">
      <feGaussianBlur
         stdDeviation="0.2871969"
         id="feGaussianBlur732-5" />
    </filter>
    <filter
       id="filter1"
       x="-0.96181148"
       y="-0.66745996"
       width="2.9236228"
       height="2.3349199"
       color-interpolation-filters="sRGB">
      <feGaussianBlur
         stdDeviation="0.2871969"
         id="feGaussianBlur1" />
    </filter>
    <filter
       id="filter2"
       x="-0.96181148"
       y="-0.66745996"
       width="2.9236228"
       height="2.3349199"
       color-interpolation-filters="sRGB">
      <feGaussianBlur
         stdDeviation="0.2871969"
         id="feGaussianBlur2" />
    </filter>
    <linearGradient
       id="a"
       gradientUnits="userSpaceOnUse"
       x1="45"
       x2="0"
       y1="45"
       y2="3"
       gradientTransform="matrix(1.049854,0,0,1.0499253,88.091637,-7.7170607)">
      <stop
         offset="0"
         stop-color="#b0b8b8"
         id="stop2" />
      <stop
         offset="1"
         stop-color="#eff1f1"
         id="stop4" />
    </linearGradient>
    <linearGradient
       id="e"
       gradientUnits="userSpaceOnUse"
       x1="4"
       x2="4"
       y1="3"
       y2="45"
       gradientTransform="matrix(1.049854,0,0,1.0499253,88.091637,-7.7170607)">
      <stop
         offset="0"
         stop-color="#292c2f"
         id="stop12-3" />
      <stop
         offset="1"
         stop-opacity="0"
         id="stop14" />
    </linearGradient>
    <linearGradient
       id="b"
       gradientUnits="userSpaceOnUse"
       x1="4"
       x2="4"
       y1="45"
       y2="3"
       gradientTransform="matrix(1.049854,0,0,1.0499253,88.091637,-7.7170607)">
      <stop
         offset="0"
         stop-color="#197cf1"
         id="stop7" />
      <stop
         offset="1"
         stop-color="#21c9fb"
         id="stop9" />
    </linearGradient>
    <linearGradient
       id="f"
       gradientUnits="userSpaceOnUse"
       x1="4"
       x2="4"
       y1="45"
       y2="3"
       gradientTransform="matrix(1.049854,0,0,1.0499253,88.091637,-7.7170607)">
      <stop
         offset="0"
         stop-color="#7cbaf8"
         id="stop17" />
      <stop
         offset="1"
         stop-color="#f4fcff"
         id="stop19" />
    </linearGradient>
    <linearGradient
       inkscape:collect="always"
       xlink:href="#linearGradient4153"
       id="linearGradient1468"
       gradientUnits="userSpaceOnUse"
       gradientTransform="matrix(0.27780703,0,0,0.27780705,5.1862783,7.3389551)"
       x1="11.663"
       y1="13.65"
       x2="9.6639996"
       y2="5.8860002" />
    <linearGradient
       id="linearGradient4153">
      <stop
         style="stop-color:#bf4231;stop-opacity:1"
         offset="0"
         id="stop4155" />
      <stop
         style="stop-color:#e05e4c;stop-opacity:1"
         offset="1"
         id="stop4157" />
    </linearGradient>
    <linearGradient
       inkscape:collect="always"
       xlink:href="#linearGradient14"
       id="linearGradient886"
       x1="-12.025727"
       y1="6.1170783"
       x2="-0.085100174"
       y2="6.1170783"
       gradientUnits="userSpaceOnUse" />
  </defs>
  <sodipodi:namedview
     id="namedview14"
     pagecolor="#000000"
     bordercolor="#666666"
     borderopacity="1.0"
     inkscape:showpageshadow="2"
     inkscape:pageopacity="0.0"
     inkscape:pagecheckerboard="0"
     inkscape:deskcolor="#d1d1d1"
     showgrid="false"
     inkscape:zoom="6.2611141"
     inkscape:cx="23.845543"
     inkscape:cy="44.12109"
     inkscape:window-width="1920"
     inkscape:window-height="988"
     inkscape:window-x="0"
     inkscape:window-y="0"
     inkscape:window-maximized="1"
     inkscape:current-layer="svg12"
     inkscape:document-rotation="0">
    <inkscape:grid
       type="xygrid"
       id="grid244"
       originx="9.9594769"
       originy="-31.57929"
       spacingy="1"
       spacingx="1"
       units="px"
       visible="false" />
  </sodipodi:namedview>
  <rect
     x="-12.194976"
     y="0.32004508"
     width="11.940627"
     height="11.936014"
     rx="1.6121091"
     shape-rendering="crispEdges"
     id="rect5-6-7-3"
     ry="1.7735944"
     transform="matrix(0.00523883,-0.99998628,0.999988,0.00489859,0,0)"
     style="fill:#80b3ff;fill-opacity:0.15;stroke:url(#linearGradient886);stroke-width:0.5291563;stroke-miterlimit:4;stroke-dasharray:none;stroke-opacity:1" />
  <rect
     x="-3.7202365"
     y="4.8851409"
     width="7.912631"
     height="7.912384"
     rx="1.612043"
     shape-rendering="crispEdges"
     id="rect5-6-6-6-6"
     style="fill:#80b3ff;fill-opacity:0.122146;stroke:url(#linearGradient15);stroke-width:0.39686725;stroke-opacity:1;stroke-miterlimit:4;stroke-dasharray:none"
     ry="1.7735215"
     transform="matrix(0.72612649,-0.68756114,0.6879775,0.72573202,0,0)" />
  <path
     style="opacity:0.15;fill:#000000;fill-opacity:1;stroke:none;stroke-width:2.77807;stroke-miterlimit:4;stroke-dasharray:none;stroke-opacity:0.392157"
     d="M 5.9808198,2.9234912 A 0.32947467,0.32287508 0 0 0 5.6513447,3.2463656 0.32947467,0.32287508 0 0 0 5.9808198,3.5692402 0.32947467,0.32287508 0 0 0 6.3102945,3.2463656 0.32947467,0.32287508 0 0 0 5.9808198,2.9234912 Z M 7.079069,3.138741 A 0.32947467,0.32287508 0 0 0 6.749594,3.4616157 0.32947467,0.32287508 0 0 0 7.079069,3.784491 0.32947467,0.32287508 0 0 0 7.4085432,3.4616157 0.32947467,0.32287508 0 0 0 7.079069,3.138741 Z M 5.3218706,3.5692402 A 0.32947467,0.32287508 0 0 0 4.9923958,3.8921152 0.32947467,0.32287508 0 0 0 5.3218706,4.2149903 0.32947467,0.32287508 0 0 0 5.6513447,3.8921152 0.32947467,0.32287508 0 0 0 5.3218706,3.5692402 Z M 7.9576681,3.784491 A 0.32947467,0.32287508 0 0 0 7.6281931,4.1073655 0.32947467,0.32287508 0 0 0 7.9576681,4.4302407 0.32947467,0.32287508 0 0 0 8.2871426,4.1073655 0.32947467,0.32287508 0 0 0 7.9576681,3.784491 Z M 5.7611702,4.4302407 A 0.32947467,0.32287508 0 0 0 5.4316955,4.7531156 0.32947467,0.32287508 0 0 0 5.7611702,5.0759904 0.32947467,0.32287508 0 0 0 6.0906447,4.7531156 0.32947467,0.32287508 0 0 0 5.7611702,4.4302407 Z M 8.6166175,4.645491 A 0.32947467,0.32287508 0 0 0 8.2871426,4.9683656 0.32947467,0.32287508 0 0 0 8.6166175,5.2912408 0.32947467,0.32287508 0 0 0 8.9460916,4.9683656 0.32947467,0.32287508 0 0 0 8.6166175,4.645491 Z M 6.4201195,5.2912408 A 0.32947467,0.32287508 0 0 0 6.0906447,5.6141164 0.32947467,0.32287508 0 0 0 6.4201195,5.9369906 0.32947467,0.32287508 0 0 0 6.749594,5.6141164 0.32947467,0.32287508 0 0 0 6.4201195,5.2912408 Z M 8.8362672,5.5064911 A 0.32947467,0.32287508 0 0 0 8.5067924,5.8293664 0.32947467,0.32287508 0 0 0 8.8362672,6.1522409 0.32947467,0.32287508 0 0 0 9.1657416,5.8293664 0.32947467,0.32287508 0 0 0 8.8362672,5.5064911 Z M 5.7611702,5.9369906 A 0.32947467,0.32287508 0 0 0 5.4316955,6.2598657 0.32947467,0.32287508 0 0 0 5.7611702,6.582741 0.32947467,0.32287508 0 0 0 6.0906447,6.2598657 0.32947467,0.32287508 0 0 0 5.7611702,5.9369906 Z m 1.5375486,0 A 0.32947467,0.32287508 0 0 0 6.9692437,6.2598657 0.32947467,0.32287508 0 0 0 7.2987188,6.582741 0.32947467,0.32287508 0 0 0 7.6281931,6.2598657 0.32947467,0.32287508 0 0 0 7.2987188,5.9369906 Z M 8.1773177,6.3674912 A 0.32947467,0.32287508 0 0 0 7.8478427,6.6903657 0.32947467,0.32287508 0 0 0 8.1773177,7.013241 0.32947467,0.32287508 0 0 0 8.5067924,6.6903657 0.32947467,0.32287508 0 0 0 8.1773177,6.3674912 Z M 5.1022207,6.582741 A 0.32947467,0.32287508 0 0 0 4.7727457,6.9056166 0.32947467,0.32287508 0 0 0 5.1022207,7.228491 0.32947467,0.32287508 0 0 0 5.4316955,6.9056166 0.32947467,0.32287508 0 0 0 5.1022207,6.582741 Z M 4.4432713,7.228491 A 0.32947467,0.32287508 0 0 0 4.1137964,7.5513666 0.32947467,0.32287508 0 0 0 4.4432713,7.8742411 0.32947467,0.32287508 0 0 0 4.7727457,7.5513666 0.32947467,0.32287508 0 0 0 4.4432713,7.228491 Z M 3.7843225,7.8742411 A 0.32947467,0.32287508 0 0 0 3.4548478,8.1971168 0.32947467,0.32287508 0 0 0 3.7843225,8.5199919 0.32947467,0.32287508 0 0 0 4.1137964,8.1971168 0.32947467,0.32287508 0 0 0 3.7843225,7.8742411 Z M 4.4432713,8.5199919 A 0.32947467,0.32287508 0 0 0 4.1137964,8.8428668 0.32947467,0.32287508 0 0 0 4.4432713,9.1657405 0.32947467,0.32287508 0 0 0 4.7727457,8.8428668 0.32947467,0.32287508 0 0 0 4.4432713,8.5199919 Z"
     id="path4342-73-3" />
  <path
     style="fill:#ffffff;fill-opacity:1;stroke:none;stroke-width:2.77807;stroke-miterlimit:4;stroke-dasharray:none;stroke-opacity:0.392157"
     d="M 5.8709947,2.8158653 A 0.32947467,0.32287508 0 0 0 5.5415204,3.138741 0.32947467,0.32287508 0 0 0 5.8709947,3.4616157 0.32947467,0.32287508 0 0 0 6.2004696,3.138741 0.32947467,0.32287508 0 0 0 5.8709947,2.8158653 Z m 1.098249,0.2152498 A 0.32947467,0.32287508 0 0 0 6.6397692,3.3539902 0.32947467,0.32287508 0 0 0 6.9692437,3.6768653 0.32947467,0.32287508 0 0 0 7.2987188,3.3539902 0.32947467,0.32287508 0 0 0 6.9692437,3.0311151 Z M 5.2120458,3.4616157 A 0.32947467,0.32287508 0 0 0 4.8825712,3.784491 0.32947467,0.32287508 0 0 0 5.2120458,4.1073655 0.32947467,0.32287508 0 0 0 5.5415204,3.784491 0.32947467,0.32287508 0 0 0 5.2120458,3.4616157 Z M 7.8478427,3.6768653 A 0.32947467,0.32287508 0 0 0 7.5183685,3.9997408 0.32947467,0.32287508 0 0 0 7.8478427,4.3226157 0.32947467,0.32287508 0 0 0 8.1773177,3.9997408 0.32947467,0.32287508 0 0 0 7.8478427,3.6768653 Z M 5.6513447,4.3226157 A 0.32947467,0.32287508 0 0 0 5.3218706,4.645491 0.32947467,0.32287508 0 0 0 5.6513447,4.9683656 0.32947467,0.32287508 0 0 0 5.9808198,4.645491 0.32947467,0.32287508 0 0 0 5.6513447,4.3226157 Z M 8.5067924,4.5378655 A 0.32947467,0.32287508 0 0 0 8.1773177,4.860741 0.32947467,0.32287508 0 0 0 8.5067924,5.1836156 0.32947467,0.32287508 0 0 0 8.8362672,4.860741 0.32947467,0.32287508 0 0 0 8.5067924,4.5378655 Z M 6.3102945,5.1836156 A 0.32947467,0.32287508 0 0 0 5.9808198,5.5064911 0.32947467,0.32287508 0 0 0 6.3102945,5.8293664 0.32947467,0.32287508 0 0 0 6.6397692,5.5064911 0.32947467,0.32287508 0 0 0 6.3102945,5.1836156 Z M 8.7264421,5.3988665 A 0.32947467,0.32287508 0 0 0 8.3969677,5.721741 0.32947467,0.32287508 0 0 0 8.7264421,6.0446157 0.32947467,0.32287508 0 0 0 9.0559168,5.721741 0.32947467,0.32287508 0 0 0 8.7264421,5.3988665 Z M 5.6513447,5.8293664 A 0.32947467,0.32287508 0 0 0 5.3218706,6.1522409 0.32947467,0.32287508 0 0 0 5.6513447,6.4751159 0.32947467,0.32287508 0 0 0 5.9808198,6.1522409 0.32947467,0.32287508 0 0 0 5.6513447,5.8293664 Z m 1.5375488,0 A 0.32947467,0.32287508 0 0 0 6.8594191,6.1522409 0.32947467,0.32287508 0 0 0 7.1888935,6.4751159 0.32947467,0.32287508 0 0 0 7.5183685,6.1522409 0.32947467,0.32287508 0 0 0 7.1888935,5.8293664 Z M 8.0674926,6.2598657 A 0.32947467,0.32287508 0 0 0 7.7380182,6.582741 0.32947467,0.32287508 0 0 0 8.0674926,6.9056166 0.32947467,0.32287508 0 0 0 8.3969677,6.582741 0.32947467,0.32287508 0 0 0 8.0674926,6.2598657 Z M 4.9923958,6.4751159 A 0.32947467,0.32287508 0 0 0 4.6629212,6.7979909 0.32947467,0.32287508 0 0 0 4.9923958,7.1208667 0.32947467,0.32287508 0 0 0 5.3218706,6.7979909 0.32947467,0.32287508 0 0 0 4.9923958,6.4751159 Z M 4.3334468,7.1208667 A 0.32947467,0.32287508 0 0 0 4.0039722,7.4437409 0.32947467,0.32287508 0 0 0 4.3334468,7.7666169 0.32947467,0.32287508 0 0 0 4.6629212,7.4437409 0.32947467,0.32287508 0 0 0 4.3334468,7.1208667 Z M 3.6744974,7.7666169 A 0.32947467,0.32287508 0 0 0 3.3450226,8.0894912 0.32947467,0.32287508 0 0 0 3.6744974,8.4123667 0.32947467,0.32287508 0 0 0 4.0039722,8.0894912 0.32947467,0.32287508 0 0 0 3.6744974,7.7666169 Z M 4.3334468,8.4123667 A 0.32947467,0.32287508 0 0 0 4.0039722,8.735242 0.32947467,0.32287508 0 0 0 4.3334468,9.0581179 0.32947467,0.32287508 0 0 0 4.6629212,8.735242 0.32947467,0.32287508 0 0 0 4.3334468,8.4123667 Z"
     id="path4342-6" />
  <path
     style="fill:url(#linearGradient1468);fill-opacity:1;stroke:none;stroke-width:0.555614;stroke-linecap:round;stroke-linejoin:round;stroke-miterlimit:4;stroke-dasharray:none;stroke-opacity:1"
     d="M 5.7082278,7.4271075 6.3294906,8.0359265 5.7082278,8.6447457 6.0188594,8.9491563 6.6401222,8.3403351 7.2613851,8.9491563 7.5720187,8.6447457 6.9507547,8.0359265 7.5720187,7.4271075 7.2613851,7.1226978 6.6401222,7.7315166 6.0188594,7.1226978 Z"
     id="rect4146-3"
     inkscape:transform-center-x="-0.80405661"
     inkscape:transform-center-y="-5.358067" />
</svg>
