<?xml version="1.0" encoding="UTF-8" standalone="no"?>
<svg
   xmlns:dc="http://purl.org/dc/elements/1.1/"
   xmlns:cc="http://creativecommons.org/ns#"
   xmlns:rdf="http://www.w3.org/1999/02/22-rdf-syntax-ns#"
   xmlns:svg="http://www.w3.org/2000/svg"
   xmlns="http://www.w3.org/2000/svg"
   xmlns:xlink="http://www.w3.org/1999/xlink"
   xmlns:sodipodi="http://sodipodi.sourceforge.net/DTD/sodipodi-0.dtd"
   xmlns:inkscape="http://www.inkscape.org/namespaces/inkscape"
   width="47.285591"
   height="47.28569"
   version="1.1"
   viewBox="0 0 12.510734 12.51076"
   id="svg12"
   sodipodi:docname="ktorrent.svg"
   inkscape:version="1.0.1 (3bc2e813f5, 2020-09-07)">
  <style
     id="style870"></style>
  <metadata
     id="metadata45">
    <rdf:RDF>
      <cc:Work
         rdf:about="">
        <dc:format>image/svg+xml</dc:format>
        <dc:type
           rdf:resource="http://purl.org/dc/dcmitype/StillImage" />
      </cc:Work>
    </rdf:RDF>
  </metadata>
  <defs
     id="defs16">
    <linearGradient
       id="c"
       y1="523.79999"
       x1="403.57001"
       y2="536.79999"
       x2="416.57001"
       gradientUnits="userSpaceOnUse"
       gradientTransform="matrix(0.34526714,0,0,0.34526706,-134.80427,-174.63325)">
      <stop
         stop-color="#292c2f"
         id="stop1568" />
      <stop
         offset="1"
         stop-opacity="0"
         id="stop1570" />
    </linearGradient>
    <linearGradient
       xlink:href="#b-2"
       id="linearGradient4189"
       x1="14.369"
       y1="22.521999"
       x2="26.521999"
       y2="22.521999"
       gradientUnits="userSpaceOnUse" />
    <linearGradient
       x1="36"
       gradientUnits="userSpaceOnUse"
       x2="14"
       y2="12"
       y1="44"
       id="b-2">
      <stop
         style="stop-color:#bfc9c9;stop-opacity:1"
         stop-color="#536161"
         id="stop1579" />
      <stop
         style="stop-color:#fbfbfb;stop-opacity:1"
         stop-color="#f4f5f5"
         offset="1"
         id="stop1581" />
    </linearGradient>
    <linearGradient
       xlink:href="#b-2"
       id="linearGradient4428"
       gradientUnits="userSpaceOnUse"
       x1="31.586"
       y1="36.345001"
       x2="1.2029999"
       y2="6.723" />
    <linearGradient
       xlink:href="#b-2"
       id="linearGradient4189-3"
       x1="14.369"
       y1="22.521999"
       x2="26.521999"
       y2="22.521999"
       gradientUnits="userSpaceOnUse"
       gradientTransform="translate(20.841982,61.553822)" />
    <linearGradient
       xlink:href="#b-2"
       id="linearGradient4428-5"
       gradientUnits="userSpaceOnUse"
       x1="31.586"
       y1="36.345001"
       x2="1.2029999"
       y2="6.723"
       gradientTransform="translate(20.841982,61.553822)" />
    <linearGradient
       xlink:href="#b-2"
       id="linearGradient4189-3-3"
       x1="14.369"
       y1="22.521999"
       x2="26.521999"
       y2="22.521999"
       gradientUnits="userSpaceOnUse"
       gradientTransform="translate(4.376802,4.4211693)" />
    <linearGradient
       xlink:href="#b-2"
       id="linearGradient4428-5-5"
       gradientUnits="userSpaceOnUse"
       x1="31.586"
       y1="36.345001"
       x2="1.2029999"
       y2="6.723"
       gradientTransform="translate(4.376802,4.4211693)" />
    <linearGradient
       id="linearGradient11"
       inkscape:collect="always">
      <stop
         style="stop-color:#80b3ff;stop-opacity:0.73275864;"
         offset="0"
         id="stop4-3" />
      <stop
         style="stop-color:#2a7fff;stop-opacity:1"
         offset="1"
         id="stop11" />
    </linearGradient>
    <filter
       id="d-7"
       x="-0.035999998"
       y="-0.036000062"
       width="1.072"
       height="1.0720001"
       color-interpolation-filters="sRGB">
      <feGaussianBlur
         stdDeviation="9"
         id="feGaussianBlur238-5" />
    </filter>
    <linearGradient
       id="paint1_linear_41_121"
       x1="11.9599"
       y1="21"
       x2="11.9599"
       y2="3"
       gradientUnits="userSpaceOnUse"
       gradientTransform="scale(0.26457819)">
      <stop
         stop-color="#FD4C00"
         id="stop5" />
      <stop
         offset="1"
         stop-color="#FFB800"
         id="stop6" />
    </linearGradient>
    <linearGradient
       inkscape:collect="always"
       xlink:href="#linearGradient11"
       id="linearGradient2"
       x1="-3.8211522"
       y1="8.6008863"
       x2="4.2804661"
       y2="8.6008863"
       gradientUnits="userSpaceOnUse" />
    <linearGradient
       id="a-1-2-2"
       y1="510.79999"
       y2="527.14001"
       gradientUnits="userSpaceOnUse"
       x2="0"
       gradientTransform="matrix(1.2378066,0,0,1.231,-93.743196,-117.7339)">
      <stop
         stop-color="#7cbaf8"
         id="stop2-2-7-7" />
      <stop
         offset="1"
         stop-color="#f4fcff"
         id="stop4-70-0-0" />
    </linearGradient>
    <linearGradient
       id="c-93"
       y1="503.79999"
       x1="400.57001"
       y2="519.79999"
       x2="416.57001"
       gradientUnits="userSpaceOnUse"
       gradientTransform="matrix(1.2378066,0,0,1.231,-90.06499,-115.82773)">
      <stop
         stop-color="#292c2f"
         id="stop12-6" />
      <stop
         offset="1"
         stop-opacity="0"
         id="stop14-0" />
    </linearGradient>
    <linearGradient
       id="b-6"
       y1="542.79999"
       x1="408.57001"
       y2="521.79999"
       x2="387.57001"
       gradientUnits="userSpaceOnUse"
       gradientTransform="matrix(1.2378066,0,0,1.231,-474.63498,-615.62775)">
      <stop
         stop-color="#197cf1"
         id="stop7-2" />
      <stop
         offset="1"
         stop-color="#20bcfa"
         id="stop9-6" />
    </linearGradient>
    <linearGradient
       inkscape:collect="always"
       xlink:href="#linearGradient11"
       id="linearGradient878"
       x1="-12.025727"
       y1="6.1170783"
       x2="-0.085100174"
       y2="6.1170783"
       gradientUnits="userSpaceOnUse" />
    <linearGradient
       inkscape:collect="always"
       xlink:href="#a-1-2-2"
       id="linearGradient886"
       x1="404.57001"
       y1="516.97498"
       x2="412.17001"
       y2="516.97498"
       gradientUnits="userSpaceOnUse" />
  </defs>
  <sodipodi:namedview
     id="namedview14"
     pagecolor="#000000"
     bordercolor="#666666"
     borderopacity="1.0"
     inkscape:showpageshadow="2"
     inkscape:pageopacity="0.0"
     inkscape:pagecheckerboard="0"
     inkscape:deskcolor="#d1d1d1"
     showgrid="false"
     inkscape:zoom="8.8545525"
     inkscape:cx="10.378029"
     inkscape:cy="42.812342"
     inkscape:window-width="1920"
     inkscape:window-height="988"
     inkscape:window-x="0"
     inkscape:window-y="0"
     inkscape:window-maximized="1"
     inkscape:current-layer="svg12"
     inkscape:document-rotation="0">
    <inkscape:grid
       type="xygrid"
       id="grid244"
       originx="9.9594769"
       originy="-31.57929"
       spacingy="1"
       spacingx="1"
       units="px"
       visible="false" />
  </sodipodi:namedview>
  <rect
     x="-12.194976"
     y="0.32004508"
     width="11.940627"
     height="11.936014"
     rx="1.6121091"
     shape-rendering="crispEdges"
     id="rect5-6-7-3"
     ry="1.7735944"
     transform="matrix(0.00523883,-0.99998628,0.999988,0.00489859,0,0)"
     style="fill:#80b3ff;fill-opacity:0.13;stroke:url(#linearGradient878);stroke-width:0.5291563;stroke-miterlimit:4;stroke-dasharray:none;stroke-opacity:1" />
  <rect
     x="-3.7202365"
     y="4.8851409"
     width="7.912631"
     height="7.912384"
     rx="1.612043"
     shape-rendering="crispEdges"
     id="rect5-6-6-6-6"
     style="fill:#5599ff;fill-opacity:0.1;stroke:url(#linearGradient2);stroke-width:0.39686725;stroke-opacity:1;stroke-miterlimit:4;stroke-dasharray:none"
     ry="1.7735215"
     transform="matrix(0.72612649,-0.68756114,0.6879775,0.72573202,0,0)" />
  <g
     transform="matrix(0.17100365,0,0,0.17194917,-63.592136,-83.679289)"
     id="g29-6-8-1"
     style="stroke-width:1.23447">
    <path
       stroke-opacity="0.55"
       stroke-width="3.45629"
       d="m 404.57,510.8 v 12.35 h 7.6 V 510.8 Z"
       transform="matrix(2.10526,0,0,2.10526,-451.16,-571.57)"
       id="path19-1-7-8"
       style="fill:url(#linearGradient886);stroke-width:3.45636253;stroke-miterlimit:4;stroke-dasharray:none;fill-opacity:1.0" />
    <g
       fill-rule="evenodd"
       id="g27-8-9-7"
       style="stroke-width:1.23447">
      <path
         opacity="0.2"
         fill="url(#c)"
         d="m 400.57,527.8 v -24 l 16,16 v 11 l -16,-3"
         id="path21-7-2-9"
         style="fill:url(#c-93);stroke-width:1.23447" />
      <path
         d="M 25.5,14 C 24.672,14 24,14.672 24,15.5 24,16.328 24.672,17 25.5,17 26.328,17 27,16.328 27,15.5 27,14.672 26.328,14 25.5,14 M 43,23 c -0.552,0 -1,0.448 -1,1 0,0.552 0.448,1 1,1 0.552,0 1,-0.448 1,-1 0,-0.552 -0.448,-1 -1,-1 M 7.5,17 C 6.672,17 6,17.672 6,18.5 6,19.328 6.672,20 7.5,20 8.328,20 9,19.328 9,18.5 9,17.672 8.328,17 7.5,17 m 11.775,1.1 c -0.067,0.008 -0.132,0.027 -0.195,0.055 -0.506,0.222 -0.677,0.944 -0.012,2.461 0.666,1.517 1.615,2.568 2.121,2.346 0.506,-0.222 0.376,-1.631 -0.289,-3.148 -0.582,-1.328 -1.153,-1.771 -1.625,-1.713 m -5.988,0.635 c -0.395,-0.034 -0.937,0.359 -0.445,0.918 0.655,0.746 1,2.074 0.416,2.34 -0.587,0.266 -0.544,-0.99 -0.596,-1.658 -0.051,-0.668 -1.677,-1.07 -2.277,-0.242 -0.6,0.828 0.004,1.72 0.598,1.9 0.594,0.181 0.686,0.861 1.039,1.568 0.354,0.707 2.076,0.53 2.496,0 0.42,-0.53 0.681,-1.515 -0.137,-2.424 -0.818,-0.909 -0.57,-1.753 -0.791,-2.217 -0.055,-0.116 -0.171,-0.174 -0.303,-0.186 m 19.494,0.078 c -0.531,-0.125 -0.75,0.875 -0.875,1.813 -0.125,0.938 -0.594,1.906 -0.188,2.094 0.563,0.25 0.85,-1.288 1.486,-1.863 0.636,-0.576 0.107,-1.918 -0.424,-2.043 m -16.781,0.188 c -0.552,0 -1,0.448 -1,1 0,0.552 0.448,1 1,1 0.552,0 1,-0.448 1,-1 0,-0.552 -0.448,-1 -1,-1 m 12.152,0.236 c -0.65,0.048 -1.297,1.157 -1.615,1.926 -0.364,0.878 0.076,2.59 -0.781,3.232 -0.857,0.643 -1.484,0.661 -1.912,0.404 -0.428,-0.257 0.367,-0.224 -0.111,-1.203 -0.479,-0.979 -1.624,-0.673 -1.924,0.09 -0.3,0.763 0.322,0.728 0.107,1.178 -0.214,0.45 -2.036,0.936 -2.443,-0.414 -0.407,-1.35 -1.853,-2.819 -2.303,-2.455 -0.45,0.364 0.054,1.706 1.232,2.777 1.178,1.071 -0.302,1.648 -1.326,0.842 -1.024,-0.807 -2.228,0.613 -3.16,1.563 -0.933,0.949 -1.766,1.014 -2.43,0.445 -0.663,-0.568 -0.08,-2.114 -0.846,-3.668 -0.765,-1.554 -2.286,-0.78 -2.5,0.27 -0.214,1.05 1.92,1.757 1.506,2.34 -0.414,0.583 -2.069,0.451 -2.557,-0.648 -0.487,-1.099 -1.549,-0.743 -1.57,0.156 -0.021,0.9 0.822,0.272 1.48,0.93 l 17,17 17,-17 c 2,-2 -0.29,-1.143 -0.762,-0.693 -0.471,0.45 -1.928,0.815 -2.1,0.322 -0.171,-0.493 1.632,-1.32 2.146,-1.877 0.514,-0.557 1.017,-2.139 0.186,-2.719 -0.831,-0.58 -2.01,0.467 -2.521,1.238 -0.514,0.771 -0.068,2.736 -0.754,3.336 -0.686,0.6 -1.063,0.235 -1.191,-0.279 -0.129,-0.514 1.48,-1.237 0.805,-2.516 -0.676,-1.279 -1.924,-0.699 -2.502,-0.1 -0.578,0.6 0.348,1.524 0.563,2.467 0.214,0.943 -1.979,0.919 -2.836,0.576 -0.857,-0.343 -1.136,-2.498 -1.5,-2.627 -0.364,-0.129 -1.292,0.714 -2.471,0.35 -1.178,-0.364 -0.2,-1.09 0.164,-1.947 0.364,-0.857 0.939,-2.922 0.203,-3.246 -0.092,-0.041 -0.185,-0.056 -0.277,-0.049 m 10.348,-1.236 c -0.828,0 -1.5,0.672 -1.5,1.5 0,0.828 0.672,1.5 1.5,1.5 0.828,0 1.5,-0.672 1.5,-1.5 0,-0.828 -0.672,-1.5 -1.5,-1.5 m -34.5,4 c -0.552,0 -1,0.448 -1,1 0,0.552 0.448,1 1,1 0.552,0 1,-0.448 1,-1 0,-0.552 -0.448,-1 -1,-1"
         transform="translate(384.57,499.8)"
         id="path23-9-0-2"
         style="fill:#2a7fff;stroke-width:1.23447" />
      <path
         fill="#0c69cf"
         d="m 391.57,526.8 17,17 17,-17 c 0,0 -1,0 -2,1 -1,1 -15,15 -15,15 0,0 -14,-14 -15,-15 -1,-1 -2,-1 -2,-1"
         id="path25-2-2-0"
         style="stroke-width:1.23447" />
    </g>
  </g>
</svg>
