<?xml version="1.0" encoding="UTF-8" standalone="no"?>
<svg
   xmlns:dc="http://purl.org/dc/elements/1.1/"
   xmlns:cc="http://creativecommons.org/ns#"
   xmlns:rdf="http://www.w3.org/1999/02/22-rdf-syntax-ns#"
   xmlns:svg="http://www.w3.org/2000/svg"
   xmlns="http://www.w3.org/2000/svg"
   xmlns:xlink="http://www.w3.org/1999/xlink"
   xmlns:sodipodi="http://sodipodi.sourceforge.net/DTD/sodipodi-0.dtd"
   xmlns:inkscape="http://www.inkscape.org/namespaces/inkscape"
   width="47.285591"
   height="47.28569"
   version="1.1"
   viewBox="0 0 12.510734 12.51076"
   id="svg12"
   sodipodi:docname="lftp-icon.svg"
   inkscape:version="1.0.1 (3bc2e813f5, 2020-09-07)">
  <style
     id="style873"></style>
  <metadata
     id="metadata48">
    <rdf:RDF>
      <cc:Work
         rdf:about="">
        <dc:format>image/svg+xml</dc:format>
        <dc:type
           rdf:resource="http://purl.org/dc/dcmitype/StillImage" />
      </cc:Work>
    </rdf:RDF>
  </metadata>
  <defs
     id="defs16">
    <linearGradient
       id="c"
       y1="523.79999"
       x1="403.57001"
       y2="536.79999"
       x2="416.57001"
       gradientUnits="userSpaceOnUse"
       gradientTransform="matrix(0.34526714,0,0,0.34526706,-134.80427,-174.63325)">
      <stop
         stop-color="#292c2f"
         id="stop1568" />
      <stop
         offset="1"
         stop-opacity="0"
         id="stop1570" />
    </linearGradient>
    <linearGradient
       xlink:href="#b-2"
       id="linearGradient4189"
       x1="14.369"
       y1="22.521999"
       x2="26.521999"
       y2="22.521999"
       gradientUnits="userSpaceOnUse" />
    <linearGradient
       x1="36"
       gradientUnits="userSpaceOnUse"
       x2="14"
       y2="12"
       y1="44"
       id="b-2">
      <stop
         style="stop-color:#bfc9c9;stop-opacity:1"
         stop-color="#536161"
         id="stop1579" />
      <stop
         style="stop-color:#fbfbfb;stop-opacity:1"
         stop-color="#f4f5f5"
         offset="1"
         id="stop1581" />
    </linearGradient>
    <linearGradient
       xlink:href="#b-2"
       id="linearGradient4428"
       gradientUnits="userSpaceOnUse"
       x1="31.586"
       y1="36.345001"
       x2="1.2029999"
       y2="6.723" />
    <linearGradient
       xlink:href="#b-2"
       id="linearGradient4189-3"
       x1="14.369"
       y1="22.521999"
       x2="26.521999"
       y2="22.521999"
       gradientUnits="userSpaceOnUse"
       gradientTransform="translate(20.841982,61.553822)" />
    <linearGradient
       xlink:href="#b-2"
       id="linearGradient4428-5"
       gradientUnits="userSpaceOnUse"
       x1="31.586"
       y1="36.345001"
       x2="1.2029999"
       y2="6.723"
       gradientTransform="translate(20.841982,61.553822)" />
    <linearGradient
       xlink:href="#b-2"
       id="linearGradient4189-3-3"
       x1="14.369"
       y1="22.521999"
       x2="26.521999"
       y2="22.521999"
       gradientUnits="userSpaceOnUse"
       gradientTransform="translate(4.376802,4.4211693)" />
    <linearGradient
       xlink:href="#b-2"
       id="linearGradient4428-5-5"
       gradientUnits="userSpaceOnUse"
       x1="31.586"
       y1="36.345001"
       x2="1.2029999"
       y2="6.723"
       gradientTransform="translate(4.376802,4.4211693)" />
    <linearGradient
       inkscape:collect="always"
       xlink:href="#linearGradient14"
       id="linearGradient15"
       x1="-9.6850061"
       y1="45.161198"
       x2="11.98815"
       y2="21.735205"
       gradientUnits="userSpaceOnUse"
       gradientTransform="scale(0.26457813)" />
    <linearGradient
       id="linearGradient14"
       inkscape:collect="always">
      <stop
         style="stop-color:#9955ff;stop-opacity:0.45197046;"
         offset="0"
         id="stop12" />
      <stop
         style="stop-color:#00ccff;stop-opacity:1"
         offset="1"
         id="stop13" />
    </linearGradient>
    <filter
       id="filter2917-3"
       x="-0.96181148"
       y="-0.66745996"
       width="2.9236228"
       height="2.3349199"
       color-interpolation-filters="sRGB">
      <feGaussianBlur
         stdDeviation="0.2871969"
         id="feGaussianBlur732-5" />
    </filter>
    <filter
       id="filter1"
       x="-0.96181148"
       y="-0.66745996"
       width="2.9236228"
       height="2.3349199"
       color-interpolation-filters="sRGB">
      <feGaussianBlur
         stdDeviation="0.2871969"
         id="feGaussianBlur1" />
    </filter>
    <filter
       id="filter2"
       x="-0.96181148"
       y="-0.66745996"
       width="2.9236228"
       height="2.3349199"
       color-interpolation-filters="sRGB">
      <feGaussianBlur
         stdDeviation="0.2871969"
         id="feGaussianBlur2" />
    </filter>
    <linearGradient
       id="paint0_linear_41_179"
       x1="23.746078"
       y1="14.465105"
       x2="11.473581"
       y2="33.905251"
       gradientUnits="userSpaceOnUse"
       gradientTransform="matrix(0.95454532,0,0,0.94465669,-10.454545,-9.33503)">
      <stop
         stop-color="#DC18FC"
         id="stop2"
         style="stop-color:#00ccff;stop-opacity:1" />
      <stop
         offset="1"
         stop-color="#8E1EFF"
         id="stop3" />
    </linearGradient>
    <linearGradient
       id="paint1_linear_41_179"
       x1="18.5"
       y1="4"
       x2="18.5"
       y2="20"
       gradientUnits="userSpaceOnUse"
       gradientTransform="translate(-11.232969,-11.084938)">
      <stop
         stop-color="#DC18FC"
         id="stop4" />
      <stop
         offset="1"
         stop-color="#8E1EFF"
         id="stop5" />
    </linearGradient>
    <linearGradient
       inkscape:collect="always"
       xlink:href="#linearGradient14"
       id="linearGradient881"
       x1="-12.025727"
       y1="6.1170783"
       x2="-0.085100174"
       y2="6.1170783"
       gradientUnits="userSpaceOnUse" />
  </defs>
  <sodipodi:namedview
     id="namedview14"
     pagecolor="#000000"
     bordercolor="#666666"
     borderopacity="1.0"
     inkscape:showpageshadow="2"
     inkscape:pageopacity="0.0"
     inkscape:pagecheckerboard="0"
     inkscape:deskcolor="#d1d1d1"
     showgrid="false"
     inkscape:zoom="6.2611141"
     inkscape:cx="23.845543"
     inkscape:cy="54.335026"
     inkscape:window-width="1920"
     inkscape:window-height="988"
     inkscape:window-x="0"
     inkscape:window-y="0"
     inkscape:window-maximized="1"
     inkscape:current-layer="svg12"
     inkscape:document-rotation="0">
    <inkscape:grid
       type="xygrid"
       id="grid244"
       originx="9.9594769"
       originy="-31.57929"
       spacingy="1"
       spacingx="1"
       units="px"
       visible="false" />
  </sodipodi:namedview>
  <rect
     x="-12.194976"
     y="0.32004508"
     width="11.940627"
     height="11.936014"
     rx="1.6121091"
     shape-rendering="crispEdges"
     id="rect5-6-7-3"
     ry="1.7735944"
     transform="matrix(0.00523883,-0.99998628,0.999988,0.00489859,0,0)"
     style="fill:#80b3ff;fill-opacity:0.15;stroke:url(#linearGradient881);stroke-width:0.5291563;stroke-miterlimit:4;stroke-dasharray:none;stroke-opacity:1" />
  <rect
     x="-3.7202365"
     y="4.8851409"
     width="7.912631"
     height="7.912384"
     rx="1.612043"
     shape-rendering="crispEdges"
     id="rect5-6-6-6-6"
     style="fill:#80b3ff;fill-opacity:0.122146;stroke:url(#linearGradient15);stroke-width:0.42332506;stroke-opacity:1;stroke-miterlimit:4;stroke-dasharray:none"
     ry="1.7735215"
     transform="matrix(0.72612649,-0.68756114,0.6879775,0.72573202,0,0)" />
  <path
     style="opacity:0.2;stroke-width:0.0717432"
     d="M 4.1907333,5.1711826 V 7.4538092 H 4.523814 V 6.4266273 H 5.4120277 V 6.0842277 H 4.523814 V 5.5135802 H 5.4120277 V 5.1711826 H 4.523814 Z m 1.4433481,0 v 0.3423976 h 0.4441078 v 1.940229 h 0.3330803 v -1.940229 h 0.444107 V 5.1711826 Z m 1.4433486,0 V 7.4538092 H 7.410511 V 6.4266273 H 8.2987248 V 5.1711826 H 7.410511 Z M 7.410511,5.5135802 H 7.9656442 V 6.0842277 H 7.410511 Z"
     id="path1-6" />
  <path
     style="fill:#ffffff;stroke-width:0.0717432"
     d="M 4.1907333,5.0570477 V 5.3994474 5.9701038 6.3124915 7.3396723 H 4.523814 V 6.3124915 H 5.4120277 V 5.9701038 H 4.523814 V 5.3994474 H 5.4120277 V 5.0570477 H 4.523814 Z m 1.4433481,0 V 5.3994474 H 6.0781892 V 7.3396723 H 6.4112695 V 5.3994474 h 0.444107 V 5.0570477 Z m 1.4433486,0 V 5.3994474 5.9701038 6.3124915 7.3396723 H 7.410511 V 6.3124915 H 7.9656442 8.2987248 V 5.9701038 5.3994474 5.0570477 H 7.9656442 7.410511 Z M 7.410511,5.3994474 H 7.9656442 V 5.9701038 H 7.410511 Z"
     id="path2-7" />
  <path
     style="opacity:0.2;stroke-width:0.0717432"
     d="M 7.8760861,3.459152 A 0.2379308,0.23492695 0 0 0 7.6325638,3.694101 V 4.0298074 H 3.7219056 c -0.1708581,0 -0.3083599,0.1526865 -0.3083599,0.3423917 0,0.1896893 0.1375045,0.3423945 0.3083599,0.3423945 H 7.6325638 V 5.0503041 A 0.2379308,0.23492695 0 0 0 7.9894986,5.2538177 L 8.584099,4.9147707 9.1789157,4.5757216 a 0.2379308,0.23492695 0 0 0 0,-0.4070421 L 8.584099,3.8296314 7.9894986,3.4905814 A 0.2379308,0.23492695 0 0 0 7.8760914,3.4591669 Z M 4.5023456,7.3396129 A 0.2379308,0.23492695 0 0 0 4.3889374,7.370968 L 3.7943359,7.7100607 3.1995186,8.0491136 a 0.2379308,0.23492695 0 0 0 0,0.4070293 L 3.7943359,8.7951969 4.3889363,9.134245 A 0.2379308,0.23492695 0 0 0 4.7458699,8.9307352 V 8.5950279 h 3.9106584 c 0.1708587,0 0.3083602,-0.1526866 0.3083602,-0.3423927 0,-0.1896853 -0.1375045,-0.3423927 -0.3083602,-0.3423927 H 4.7458677 V 7.574547 A 0.2379308,0.23492695 0 0 0 4.5023458,7.3396049 Z"
     id="path3" />
  <rect
     style="fill:#c83771;stroke-width:0.0717432"
     width="5.5513396"
     height="0.68478656"
     x="3.4135447"
     y="3.9157453"
     rx="0.19687104"
     ry="0.21788554"
     id="rect3" />
  <path
     style="fill:#c83771;stroke-width:0.0717432"
     d="M 7.8760472,3.3451489 A 0.2379308,0.23492695 0 0 0 7.6325638,3.5800524 v 1.3562 a 0.2379308,0.23492695 0 0 0 0.3568607,0.203475 L 8.5841916,4.8006785 9.1789592,4.4616244 a 0.2379308,0.23492695 0 0 0 0,-0.406949 L 8.5841916,3.7156274 7.9894245,3.3765724 A 0.2379308,0.23492695 0 0 0 7.8760428,3.3451935 Z"
     id="path4" />
  <rect
     style="fill:#3f92f7;stroke-width:0.0717432"
     width="5.5513396"
     height="0.68478656"
     x="-8.9648829"
     y="7.7962003"
     rx="0.19687104"
     ry="0.21788554"
     transform="scale(-1,1)"
     id="rect4" />
  <path
     style="fill:#3f92f7;stroke-width:0.0717432"
     d="M 4.5023848,7.2256049 A 0.2379308,0.23492695 0 0 1 4.7458676,7.4605103 V 8.8167144 A 0.2379308,0.23492695 0 0 1 4.3890071,9.0201874 L 3.7942398,8.6811403 3.1994717,8.3420824 a 0.2379308,0.23492695 0 0 1 0,-0.406946 L 3.7942398,7.5960843 4.3890071,7.2570333 a 0.2379308,0.23492695 0 0 1 0.1133816,-0.031356 z"
     id="path5" />
  <path
     style="opacity:0.2;fill:#ffffff;stroke-width:0.0717432"
     d="M 7.8760861,3.3450865 A 0.2379308,0.23492695 0 0 0 7.6325638,3.5800404 v 0.1142013 a 0.2379308,0.23492695 0 0 1 0.2435223,-0.234947 0.2379308,0.23492695 0 0 1 0.113407,0.031394 l 0.5946006,0.339055 0.5948161,0.3390549 A 0.2379308,0.23492695 0 0 1 9.2907967,4.3157282 0.2379308,0.23492695 0 0 0 9.1789098,4.0546982 L 8.584098,3.7155729 7.9894974,3.3765288 A 0.2379308,0.23492695 0 0 0 7.8760903,3.3451241 Z M 3.7219056,3.9157439 c -0.1708581,0 -0.3083599,0.1526886 -0.3083599,0.3423867 0,0.019662 0.00231,0.038411 0.00516,0.057111 C 3.4430968,4.1529994 3.5685784,4.0299128 3.7218576,4.0299128 H 7.6325015 V 3.9157083 Z m 0.78044,3.3097986 A 0.2379308,0.23492695 0 0 0 4.3889374,7.2569868 L 3.7943349,7.5960367 3.1995175,7.9350828 A 0.2379308,0.23492695 0 0 0 3.0876282,8.1950029 0.2379308,0.23492695 0 0 1 3.1995175,8.0492424 L 3.7943353,7.7101855 4.388936,7.3711344 A 0.2379308,0.23492695 0 0 1 4.502344,7.3397694 0.2379308,0.23492695 0 0 1 4.7458661,7.5747193 V 7.4605262 A 0.2379308,0.23492695 0 0 0 4.5023452,7.2255603 Z m 0.243522,0.5706554 v 0.1142042 h 3.9106585 c 0.1532777,0 0.2787593,0.1231162 0.3031556,0.2853292 0.00297,-0.01864 0.00514,-0.03746 0.00514,-0.057111 0,-0.1896912 -0.1375025,-0.3423936 -0.3083589,-0.3423936 z"
     id="path6" />
</svg>
