<?xml version="1.0" encoding="UTF-8" standalone="no"?>
<svg
   xmlns:dc="http://purl.org/dc/elements/1.1/"
   xmlns:cc="http://creativecommons.org/ns#"
   xmlns:rdf="http://www.w3.org/1999/02/22-rdf-syntax-ns#"
   xmlns:svg="http://www.w3.org/2000/svg"
   xmlns="http://www.w3.org/2000/svg"
   xmlns:xlink="http://www.w3.org/1999/xlink"
   xmlns:sodipodi="http://sodipodi.sourceforge.net/DTD/sodipodi-0.dtd"
   xmlns:inkscape="http://www.inkscape.org/namespaces/inkscape"
   width="47.285591"
   height="47.28569"
   version="1.1"
   viewBox="0 0 12.510734 12.51076"
   id="svg12"
   sodipodi:docname="libreoffice-math.svg"
   inkscape:version="1.0.1 (3bc2e813f5, 2020-09-07)">
  <style
     id="style872"></style>
  <metadata
     id="metadata47">
    <rdf:RDF>
      <cc:Work
         rdf:about="">
        <dc:format>image/svg+xml</dc:format>
        <dc:type
           rdf:resource="http://purl.org/dc/dcmitype/StillImage" />
      </cc:Work>
    </rdf:RDF>
  </metadata>
  <defs
     id="defs16">
    <linearGradient
       id="linearGradient870"
       inkscape:collect="always">
      <stop
         style="stop-color:#c6a0ff;stop-opacity:0.77056277"
         offset="0"
         id="stop866" />
      <stop
         style="stop-color:#74e3ff;stop-opacity:1"
         offset="1"
         id="stop868" />
    </linearGradient>
    <linearGradient
       id="c"
       y1="523.79999"
       x1="403.57001"
       y2="536.79999"
       x2="416.57001"
       gradientUnits="userSpaceOnUse"
       gradientTransform="matrix(0.34526714,0,0,0.34526706,-134.80427,-174.63325)">
      <stop
         stop-color="#292c2f"
         id="stop1568" />
      <stop
         offset="1"
         stop-opacity="0"
         id="stop1570" />
    </linearGradient>
    <linearGradient
       xlink:href="#b-2"
       id="linearGradient4189"
       x1="14.369"
       y1="22.521999"
       x2="26.521999"
       y2="22.521999"
       gradientUnits="userSpaceOnUse" />
    <linearGradient
       x1="36"
       gradientUnits="userSpaceOnUse"
       x2="14"
       y2="12"
       y1="44"
       id="b-2">
      <stop
         style="stop-color:#bfc9c9;stop-opacity:1"
         stop-color="#536161"
         id="stop1579" />
      <stop
         style="stop-color:#fbfbfb;stop-opacity:1"
         stop-color="#f4f5f5"
         offset="1"
         id="stop1581" />
    </linearGradient>
    <linearGradient
       xlink:href="#b-2"
       id="linearGradient4428"
       gradientUnits="userSpaceOnUse"
       x1="31.586"
       y1="36.345001"
       x2="1.2029999"
       y2="6.723" />
    <linearGradient
       xlink:href="#b-2"
       id="linearGradient4189-3"
       x1="14.369"
       y1="22.521999"
       x2="26.521999"
       y2="22.521999"
       gradientUnits="userSpaceOnUse"
       gradientTransform="translate(20.841982,61.553822)" />
    <linearGradient
       xlink:href="#b-2"
       id="linearGradient4428-5"
       gradientUnits="userSpaceOnUse"
       x1="31.586"
       y1="36.345001"
       x2="1.2029999"
       y2="6.723"
       gradientTransform="translate(20.841982,61.553822)" />
    <linearGradient
       xlink:href="#b-2"
       id="linearGradient4189-3-3"
       x1="14.369"
       y1="22.521999"
       x2="26.521999"
       y2="22.521999"
       gradientUnits="userSpaceOnUse"
       gradientTransform="translate(4.376802,4.4211693)" />
    <linearGradient
       xlink:href="#b-2"
       id="linearGradient4428-5-5"
       gradientUnits="userSpaceOnUse"
       x1="31.586"
       y1="36.345001"
       x2="1.2029999"
       y2="6.723"
       gradientTransform="translate(4.376802,4.4211693)" />
    <linearGradient
       inkscape:collect="always"
       xlink:href="#linearGradient14"
       id="linearGradient15"
       x1="-9.6850061"
       y1="45.161198"
       x2="11.98815"
       y2="21.735205"
       gradientUnits="userSpaceOnUse"
       gradientTransform="scale(0.26457813)" />
    <linearGradient
       id="linearGradient14"
       inkscape:collect="always">
      <stop
         style="stop-color:#9955ff;stop-opacity:0.45197046;"
         offset="0"
         id="stop12" />
      <stop
         style="stop-color:#00ccff;stop-opacity:1"
         offset="1"
         id="stop13" />
    </linearGradient>
    <filter
       id="filter2917-3"
       x="-0.96181148"
       y="-0.66745996"
       width="2.9236228"
       height="2.3349199"
       color-interpolation-filters="sRGB">
      <feGaussianBlur
         stdDeviation="0.2871969"
         id="feGaussianBlur732-5" />
    </filter>
    <filter
       id="filter1"
       x="-0.96181148"
       y="-0.66745996"
       width="2.9236228"
       height="2.3349199"
       color-interpolation-filters="sRGB">
      <feGaussianBlur
         stdDeviation="0.2871969"
         id="feGaussianBlur1" />
    </filter>
    <filter
       id="filter2"
       x="-0.96181148"
       y="-0.66745996"
       width="2.9236228"
       height="2.3349199"
       color-interpolation-filters="sRGB">
      <feGaussianBlur
         stdDeviation="0.2871969"
         id="feGaussianBlur2" />
    </filter>
    <linearGradient
       id="paint0_linear_41_156"
       x1="19.6236"
       y1="2.9365201"
       x2="19.6236"
       y2="21.062599"
       gradientUnits="userSpaceOnUse"
       gradientTransform="scale(0.26457819)">
      <stop
         stop-color="#00FFE0"
         id="stop2" />
      <stop
         offset="1"
         stop-color="#078AA7"
         id="stop3" />
    </linearGradient>
    <linearGradient
       id="paint1_linear_41_156"
       x1="9.0495195"
       y1="1"
       x2="9.0495195"
       y2="23"
       gradientUnits="userSpaceOnUse"
       gradientTransform="scale(0.26457819)">
      <stop
         stop-color="#00FFE0"
         id="stop4" />
      <stop
         offset="1"
         stop-color="#078AA7"
         id="stop5" />
    </linearGradient>
    <linearGradient
       inkscape:collect="always"
       xlink:href="#linearGradient14"
       id="linearGradient880"
       x1="-12.025727"
       y1="6.1170783"
       x2="-0.085100174"
       y2="6.1170783"
       gradientUnits="userSpaceOnUse" />
    <linearGradient
       inkscape:collect="always"
       xlink:href="#linearGradient870"
       id="linearGradient888"
       x1="3.3450227"
       y1="6.2553868"
       x2="7.4196262"
       y2="6.2553868"
       gradientUnits="userSpaceOnUse" />
    <linearGradient
       inkscape:collect="always"
       xlink:href="#linearGradient14"
       id="linearGradient904"
       x1="5.8714967"
       y1="6.3080325"
       x2="9.165741"
       y2="6.2552633"
       gradientUnits="userSpaceOnUse" />
  </defs>
  <sodipodi:namedview
     id="namedview14"
     pagecolor="#000000"
     bordercolor="#666666"
     borderopacity="1.0"
     inkscape:showpageshadow="2"
     inkscape:pageopacity="0.0"
     inkscape:pagecheckerboard="0"
     inkscape:deskcolor="#d1d1d1"
     showgrid="false"
     inkscape:zoom="9.0252824"
     inkscape:cx="8.672525"
     inkscape:cy="54.335026"
     inkscape:window-width="1920"
     inkscape:window-height="988"
     inkscape:window-x="0"
     inkscape:window-y="0"
     inkscape:window-maximized="1"
     inkscape:current-layer="svg12"
     inkscape:document-rotation="0">
    <inkscape:grid
       type="xygrid"
       id="grid244"
       originx="9.9594769"
       originy="-31.57929"
       spacingy="1"
       spacingx="1"
       units="px"
       visible="false" />
  </sodipodi:namedview>
  <rect
     x="-12.194976"
     y="0.32004508"
     width="11.940627"
     height="11.936014"
     rx="1.6121091"
     shape-rendering="crispEdges"
     id="rect5-6-7-3"
     ry="1.7735944"
     transform="matrix(0.00523883,-0.99998628,0.999988,0.00489859,0,0)"
     style="fill:#80b3ff;fill-opacity:0.0981735;stroke:url(#linearGradient880);stroke-width:0.5291563;stroke-miterlimit:4;stroke-dasharray:none;stroke-opacity:1" />
  <rect
     x="-3.7202365"
     y="4.8851409"
     width="7.912631"
     height="7.912384"
     rx="1.612043"
     shape-rendering="crispEdges"
     id="rect5-6-6-6-6"
     style="fill:#80b3ff;fill-opacity:0.122146;stroke:url(#linearGradient15);stroke-width:0.42332506;stroke-opacity:1;stroke-miterlimit:4;stroke-dasharray:none"
     ry="1.7735215"
     transform="matrix(0.72612649,-0.68756114,0.6879775,0.72573202,0,0)" />
  <path
     opacity="1.0"
     d="M 8.8747266,3.8573827 H 7.7106457 v 4.795764 h 1.1640809 c 0.077194,0 0.1512032,-0.02807 0.2057945,-0.07805 0.054562,-0.04995 0.08522,-0.117711 0.08522,-0.18838 v -4.262901 c 0,-0.07066 -0.030658,-0.13843 -0.08522,-0.188396 -0.054589,-0.04996 -0.1286035,-0.07804 -0.2057945,-0.07804 z"
     id="path1"
     style="opacity:1;fill:url(#linearGradient904);fill-opacity:1;stroke-width:0.264579" />
  <path
     fill-rule="evenodd"
     clip-rule="evenodd"
     d="m 7.2534523,3.3463707 -3.6581492,0.478511 c -0.06937,0.009 -0.1331438,0.0407 -0.1790685,0.08916 -0.045928,0.04845 -0.071212,0.110454 -0.071212,0.174606 v 4.333496 c 0,0.06416 0.025286,0.126151 0.071212,0.174622 0.045929,0.04844 0.1094057,0.08011 0.1787796,0.08916 l 3.6587269,0.478489 c 0.02061,0.0027 0.041613,0.0013 0.061587,-0.0041 0.020001,-0.0054 0.038468,-0.01468 0.054183,-0.02717 0.015719,-0.01252 0.028326,-0.02797 0.036989,-0.04532 0.00865,-0.01733 0.013091,-0.03619 0.013126,-0.05524 v -5.554296 c 0,-0.0191 -0.00447,-0.03797 -0.013153,-0.05534 -0.00868,-0.01737 -0.021302,-0.03283 -0.037044,-0.04534 -0.015783,-0.01251 -0.034279,-0.02177 -0.054306,-0.02715 -0.020001,-0.0054 -0.041039,-0.0068 -0.061668,-0.0041 z m -1.7240212,1.903614 c -0.1585409,0 -0.2978404,0.09622 -0.3413867,0.235749 l -2.9e-6,6e-6 -0.3550501,1.13767 -0.1079462,-0.197667 h -8.4e-6 C 4.6648932,6.3155997 4.541948,6.2460417 4.4074692,6.2460417 H 4.2120176 c -0.1276876,0 -0.2311979,0.09477 -0.2311979,0.211662 0,0.116891 0.1035113,0.211663 0.2311979,0.211663 H 4.341124 l 0.2017024,0.369325 v 0 c 0.1448222,0.265133 0.5699977,0.228939 0.6589598,-0.05607 v -2.6e-5 l 0.408616,-1.309291 h 0.7775903 c 0.1277079,0 0.2311977,-0.09476 0.2311977,-0.211663 0,-0.116898 -0.1034862,-0.211662 -0.2311977,-0.211662 z m 0.3420656,1.058048 c -0.090278,-0.08266 -0.2366798,-0.08266 -0.3269653,0 -0.090284,0.08265 -0.090284,0.216689 0,0.299343 l 0.2445144,0.22386 -0.2445144,0.223833 c -0.090284,0.08265 -0.090284,0.216689 0,0.299344 0.090281,0.08265 0.2366827,0.08265 0.3269653,0 l 0.2445202,-0.22386 0.2444921,0.22386 c 0.090278,0.08265 0.2366885,0.08265 0.3269712,0 0.090278,-0.08265 0.090278,-0.21669 0,-0.299344 l -0.2445209,-0.223833 0.2445209,-0.22386 c 0.090278,-0.08265 0.090278,-0.216689 0,-0.299343 -0.090278,-0.08266 -0.2366891,-0.08266 -0.3269712,0 l -0.2444921,0.223859 z"
     id="path2"
     style="fill:url(#linearGradient888);fill-opacity:1.0;stroke-width:0.26457814;stroke-miterlimit:4;stroke-dasharray:none" />
</svg>
