<?xml version="1.0" encoding="UTF-8" standalone="no"?>
<svg
   xmlns:dc="http://purl.org/dc/elements/1.1/"
   xmlns:cc="http://creativecommons.org/ns#"
   xmlns:rdf="http://www.w3.org/1999/02/22-rdf-syntax-ns#"
   xmlns:svg="http://www.w3.org/2000/svg"
   xmlns="http://www.w3.org/2000/svg"
   xmlns:xlink="http://www.w3.org/1999/xlink"
   xmlns:sodipodi="http://sodipodi.sourceforge.net/DTD/sodipodi-0.dtd"
   xmlns:inkscape="http://www.inkscape.org/namespaces/inkscape"
   width="47.285591"
   height="47.28569"
   version="1.1"
   viewBox="0 0 12.510734 12.51076"
   id="svg12"
   sodipodi:docname="libreoffice-draw.svg"
   inkscape:version="1.0.1 (3bc2e813f5, 2020-09-07)">
  <style
     id="style887"></style>
  <metadata
     id="metadata62">
    <rdf:RDF>
      <cc:Work
         rdf:about="">
        <dc:format>image/svg+xml</dc:format>
        <dc:type
           rdf:resource="http://purl.org/dc/dcmitype/StillImage" />
      </cc:Work>
    </rdf:RDF>
  </metadata>
  <defs
     id="defs16">
    <linearGradient
       id="c"
       y1="523.79999"
       x1="403.57001"
       y2="536.79999"
       x2="416.57001"
       gradientUnits="userSpaceOnUse"
       gradientTransform="matrix(0.34526714,0,0,0.34526706,-134.80427,-174.63325)">
      <stop
         stop-color="#292c2f"
         id="stop1568" />
      <stop
         offset="1"
         stop-opacity="0"
         id="stop1570" />
    </linearGradient>
    <linearGradient
       xlink:href="#b-2"
       id="linearGradient4189"
       x1="14.369"
       y1="22.521999"
       x2="26.521999"
       y2="22.521999"
       gradientUnits="userSpaceOnUse" />
    <linearGradient
       x1="36"
       gradientUnits="userSpaceOnUse"
       x2="14"
       y2="12"
       y1="44"
       id="b-2">
      <stop
         style="stop-color:#bfc9c9;stop-opacity:1"
         stop-color="#536161"
         id="stop1579" />
      <stop
         style="stop-color:#fbfbfb;stop-opacity:1"
         stop-color="#f4f5f5"
         offset="1"
         id="stop1581" />
    </linearGradient>
    <linearGradient
       xlink:href="#b-2"
       id="linearGradient4428"
       gradientUnits="userSpaceOnUse"
       x1="31.586"
       y1="36.345001"
       x2="1.2029999"
       y2="6.723" />
    <linearGradient
       xlink:href="#b-2"
       id="linearGradient4189-3"
       x1="14.369"
       y1="22.521999"
       x2="26.521999"
       y2="22.521999"
       gradientUnits="userSpaceOnUse"
       gradientTransform="translate(20.841982,61.553822)" />
    <linearGradient
       xlink:href="#b-2"
       id="linearGradient4428-5"
       gradientUnits="userSpaceOnUse"
       x1="31.586"
       y1="36.345001"
       x2="1.2029999"
       y2="6.723"
       gradientTransform="translate(20.841982,61.553822)" />
    <linearGradient
       xlink:href="#b-2"
       id="linearGradient4189-3-3"
       x1="14.369"
       y1="22.521999"
       x2="26.521999"
       y2="22.521999"
       gradientUnits="userSpaceOnUse"
       gradientTransform="translate(4.376802,4.4211693)" />
    <linearGradient
       xlink:href="#b-2"
       id="linearGradient4428-5-5"
       gradientUnits="userSpaceOnUse"
       x1="31.586"
       y1="36.345001"
       x2="1.2029999"
       y2="6.723"
       gradientTransform="translate(4.376802,4.4211693)" />
    <linearGradient
       inkscape:collect="always"
       xlink:href="#linearGradient14"
       id="linearGradient15"
       x1="-9.6850061"
       y1="45.161198"
       x2="11.98815"
       y2="21.735205"
       gradientUnits="userSpaceOnUse"
       gradientTransform="scale(0.26457813)" />
    <linearGradient
       id="linearGradient14"
       inkscape:collect="always">
      <stop
         style="stop-color:#ff9900;stop-opacity:0.34509805;"
         offset="0"
         id="stop12" />
      <stop
         style="stop-color:#ffb685;stop-opacity:0.81568629;"
         offset="1"
         id="stop13" />
    </linearGradient>
    <filter
       id="filter2917-3"
       x="-0.96181148"
       y="-0.66745996"
       width="2.9236228"
       height="2.3349199"
       color-interpolation-filters="sRGB">
      <feGaussianBlur
         stdDeviation="0.2871969"
         id="feGaussianBlur732-5" />
    </filter>
    <filter
       id="filter1"
       x="-0.96181148"
       y="-0.66745996"
       width="2.9236228"
       height="2.3349199"
       color-interpolation-filters="sRGB">
      <feGaussianBlur
         stdDeviation="0.2871969"
         id="feGaussianBlur1" />
    </filter>
    <filter
       id="filter2"
       x="-0.96181148"
       y="-0.66745996"
       width="2.9236228"
       height="2.3349199"
       color-interpolation-filters="sRGB">
      <feGaussianBlur
         stdDeviation="0.2871969"
         id="feGaussianBlur2" />
    </filter>
    <linearGradient
       id="_lgradient_20"
       x1="-0.29991642"
       y1="-0.26140401"
       x2="0.96725708"
       y2="0.86616999"
       gradientTransform="matrix(15.137397,0,0,16.82717,0.89780187,0.05291536)"
       gradientUnits="userSpaceOnUse">
      <stop
         offset="34.94098066785295%"
         stop-opacity="1"
         style="stop-color:rgb(178,229,107)"
         id="stop1" />
      <stop
         offset="53.84922244785295%"
         stop-opacity="1"
         style="stop-color:rgb(194,233,100)"
         id="stop2" />
      <stop
         offset="90.40515655585295%"
         stop-opacity="1"
         style="stop-color:rgb(236,244,81)"
         id="stop3" />
      <stop
         offset="100%"
         stop-opacity="1"
         style="stop-color:rgb(250,247,75)"
         id="stop4" />
    </linearGradient>
    <linearGradient
       id="paint1_linear_19_153"
       x1="64"
       y1="120"
       x2="64"
       y2="8"
       gradientUnits="userSpaceOnUse"
       gradientTransform="translate(26.9062,40.0312)">
      <stop
         stop-color="#FF00B8"
         id="stop9" />
      <stop
         offset="1"
         stop-color="#FAFF00"
         id="stop10" />
    </linearGradient>
    <linearGradient
       inkscape:collect="always"
       xlink:href="#paint1_linear_19_153"
       id="linearGradient1"
       gradientUnits="userSpaceOnUse"
       gradientTransform="scale(0.2645782)"
       x1="64"
       y1="120"
       x2="64"
       y2="8" />
    <linearGradient
       inkscape:collect="always"
       xlink:href="#paint1_linear_19_153"
       id="linearGradient2"
       gradientUnits="userSpaceOnUse"
       gradientTransform="scale(0.2645782)"
       x1="64"
       y1="120"
       x2="64"
       y2="8" />
    <linearGradient
       inkscape:collect="always"
       xlink:href="#paint1_linear_19_153"
       id="linearGradient3"
       gradientUnits="userSpaceOnUse"
       gradientTransform="scale(0.2645782)"
       x1="64"
       y1="120"
       x2="64"
       y2="8" />
    <filter
       id="g-2"
       x="-0.036000002"
       y="-0.036000002"
       width="1.072"
       height="1.072"
       color-interpolation-filters="sRGB">
      <feGaussianBlur
         stdDeviation="0.72"
         id="feGaussianBlur232-7" />
    </filter>
    <linearGradient
       id="a-6"
       x1="32"
       x2="32"
       y1="8"
       y2="56"
       gradientTransform="matrix(0.51197725,0,0,0.51197725,-34.811977,46.950697)"
       gradientUnits="userSpaceOnUse">
      <stop
         stop-color="#bc3b22"
         offset="0"
         id="stop222" />
      <stop
         stop-color="#e05d3e"
         offset="1"
         id="stop224" />
    </linearGradient>
    <filter
       id="filter1127-3"
       x="-0.061878592"
       y="-0.058231782"
       width="1.1237572"
       height="1.1164635"
       color-interpolation-filters="sRGB">
      <feGaussianBlur
         stdDeviation="0.48526995"
         id="feGaussianBlur244-6" />
    </filter>
    <linearGradient
       inkscape:collect="always"
       xlink:href="#linearGradient14"
       id="linearGradient895"
       x1="-12.025727"
       y1="6.1170783"
       x2="-0.085100174"
       y2="6.1170783"
       gradientUnits="userSpaceOnUse" />
  </defs>
  <sodipodi:namedview
     id="namedview14"
     pagecolor="#000000"
     bordercolor="#666666"
     borderopacity="1.0"
     inkscape:showpageshadow="2"
     inkscape:pageopacity="0.0"
     inkscape:pagecheckerboard="0"
     inkscape:deskcolor="#d1d1d1"
     showgrid="false"
     inkscape:zoom="8.8545525"
     inkscape:cx="13.930989"
     inkscape:cy="42.269969"
     inkscape:window-width="1920"
     inkscape:window-height="988"
     inkscape:window-x="0"
     inkscape:window-y="0"
     inkscape:window-maximized="1"
     inkscape:current-layer="svg12"
     inkscape:document-rotation="0">
    <inkscape:grid
       type="xygrid"
       id="grid244"
       originx="9.9594769"
       originy="-31.57929"
       spacingy="1"
       spacingx="1"
       units="px"
       visible="false" />
  </sodipodi:namedview>
  <rect
     x="-12.194976"
     y="0.32004508"
     width="11.940627"
     height="11.936014"
     rx="1.6121091"
     shape-rendering="crispEdges"
     id="rect5-6-7-3"
     ry="1.7735944"
     transform="matrix(0.00523883,-0.99998628,0.999988,0.00489859,0,0)"
     style="fill:#ffe0cc;fill-opacity:0.0980392;stroke:url(#linearGradient895);stroke-width:0.5291563;stroke-miterlimit:4;stroke-dasharray:none;stroke-opacity:1" />
  <rect
     x="-3.7202365"
     y="4.8851409"
     width="7.912631"
     height="7.912384"
     rx="1.612043"
     shape-rendering="crispEdges"
     id="rect5-6-6-6-6"
     style="fill:#ffc299;fill-opacity:0.101961;stroke:url(#linearGradient15);stroke-width:0.42332506;stroke-opacity:1;stroke-miterlimit:4;stroke-dasharray:none"
     ry="1.7735215"
     transform="matrix(0.72612649,-0.68756114,0.6879775,0.72573202,0,0)" />
  <path
     d="M 8.8831041,7.8428498 H 7.752638 c -0.156214,0 -0.2826197,-0.118338 -0.2826197,-0.264588 V 4.4033366 c 0,-0.1462492 0.1264016,-0.2645806 0.2826197,-0.2645806 h 1.1304661 c 0.15623,0 0.2826374,0.1183376 0.2826374,0.2645806 v 3.1749252 c 0,0.1462493 -0.1264002,0.264588 -0.2826374,0.264588 z"
     fill="url(#paint1_linear_19_153)"
     id="path2"
     style="fill:url(#linearGradient1);stroke-width:0.264578" />
  <path
     d="M 6.6221727,7.8428498 H 5.4917074 c -0.1562157,0 -0.2826214,-0.118338 -0.2826214,-0.264588 V 5.4616434 c 0,-0.1462495 0.1264029,-0.26458 0.2826214,-0.26458 h 1.1304653 c 0.1562157,0 0.2826212,0.1183416 0.2826212,0.26458 v 2.1166184 c 0,0.1462493 -0.1264019,0.264588 -0.2826212,0.264588 z"
     fill="url(#paint2_linear_19_153)"
     id="path3"
     style="fill:url(#linearGradient2);stroke-width:0.264578" />
  <path
     d="M 4.3612414,7.8428498 H 3.2307756 c -0.1562155,0 -0.2826202,-0.118338 -0.2826202,-0.264588 V 6.5199504 c 0,-0.1462494 0.1264012,-0.2645781 0.2826202,-0.2645781 h 1.1304658 c 0.1562156,0 0.2826211,0.1183156 0.2826211,0.2645781 v 1.0583114 c 0,0.1462493 -0.1264016,0.264588 -0.2826211,0.264588 z"
     fill="url(#paint3_linear_19_153)"
     id="path4"
     style="fill:url(#linearGradient3);stroke-width:0.264578" />
  <path
     d="M 8.8831041,7.8428498 H 7.752638 c -0.156214,0 -0.2826197,-0.118338 -0.2826197,-0.264588 V 4.4033366 c 0,-0.1462492 0.1264016,-0.2645806 0.2826197,-0.2645806 h 1.1304661 c 0.15623,0 0.2826374,0.1183376 0.2826374,0.2645806 v 3.1749252 c 0,0.1462493 -0.1264002,0.264588 -0.2826374,0.264588 z"
     stroke="url(#paint4_linear_19_153)"
     stroke-width="0.199999"
     id="path5"
     style="fill:#ff7519;fill-opacity:1;stroke:none" />
  <path
     d="M 6.6221727,7.8428498 H 5.4917074 c -0.1562157,0 -0.2826214,-0.118338 -0.2826214,-0.264588 V 5.4616434 c 0,-0.1462495 0.1264029,-0.26458 0.2826214,-0.26458 h 1.1304653 c 0.1562157,0 0.2826212,0.1183416 0.2826212,0.26458 v 2.1166184 c 0,0.1462493 -0.1264019,0.264588 -0.2826212,0.264588 z"
     stroke="url(#paint5_linear_19_153)"
     stroke-width="0.199999"
     id="path6"
     style="fill:#ff8838;fill-opacity:1;stroke:none" />
  <path
     d="M 4.3612414,7.8428498 H 3.2307756 c -0.1562155,0 -0.2826202,-0.118338 -0.2826202,-0.264588 V 6.5199504 c 0,-0.1462494 0.1264012,-0.2645781 0.2826202,-0.2645781 h 1.1304658 c 0.1562156,0 0.2826211,0.1183156 0.2826211,0.2645781 v 1.0583114 c 0,0.1462493 -0.1264016,0.264588 -0.2826211,0.264588 z"
     stroke="url(#paint6_linear_19_153)"
     stroke-width="0.199999"
     id="path7"
     style="fill:#ffb380;fill-opacity:1;stroke:none" />
  <circle
     transform="matrix(0.0616697,0,0,0.0616697,8.3773001,8.3593601)"
     cx="32"
     cy="32"
     r="24"
     filter="url(#g)"
     opacity="0.15"
     style="fill-rule:evenodd;stroke-width:2.19648;paint-order:stroke fill markers;filter:url(#g-2)"
     id="circle262-6" />
  <circle
     cx="10.35073"
     cy="10.332787"
     r="1.4800699"
     style="fill:#ff7519;fill-opacity:1;fill-rule:evenodd;stroke-width:0.180613;paint-order:stroke fill markers"
     id="circle264-1" />
  <path
     d="m 107.32595,-9.847966 v 12.204 h 1.8486 q 3.1615,0 4.8226,-1.5673 1.6745,-1.5673 1.6745,-4.5546 0,-2.9739 -1.6611,-4.5278 -1.6611,-1.5539 -4.836,-1.5539 z m -5.1575,-3.8982 h 5.4388 q 4.5546,0 6.7784,0.6564 2.2371,0.64301 3.8313,2.1969 1.4066,1.353 2.0898,3.1213 0.6832,1.7683 0.6832,4.0054 0,2.2639 -0.6832,4.0456 -0.6832,1.7683 -2.0898,3.1213 -1.6075,1.5539 -3.858,2.2103 -2.2505,0.64301 -6.7516,0.64301 h -5.4388 z"
     stroke-width="1.50651"
     id="path268-8"
     style="font-variant-ligatures:normal;font-variant-caps:normal;font-variant-numeric:normal;font-feature-settings:normal;opacity:0.25;filter:url(#filter1127-3)"
     transform="matrix(0.08222612,0,0,0.08222611,1.3100502,10.640804)" />
  <path
     d="m 10.135049,9.8310455 v 1.0034865 h 0.152003 q 0.259958,0 0.396543,-0.128874 0.137689,-0.128871 0.137689,-0.374505 0,-0.244534 -0.136586,-0.3723054 Q 10.548112,9.8310781 10.287052,9.8310781 Z M 9.7109687,9.5105098 h 0.4472123 q 0.374506,0 0.55736,0.053976 0.18395,0.052868 0.315032,0.1806429 0.11566,0.1112522 0.171838,0.2566523 0.05618,0.1454 0.05618,0.329353 0,0.186148 -0.05618,0.332651 -0.05618,0.145395 -0.171838,0.25665 -0.132178,0.127769 -0.317228,0.181741 -0.18505,0.05291 -0.555157,0.05291 H 9.7109763 Z"
     fill="#ffffff"
     stroke-width="0.123876"
     id="path272-7"
     style="font-variant-ligatures:normal;font-variant-caps:normal;font-variant-numeric:normal;font-feature-settings:normal" />
</svg>
