<?xml version="1.0" encoding="UTF-8" standalone="no"?>
<svg
   xmlns:dc="http://purl.org/dc/elements/1.1/"
   xmlns:cc="http://creativecommons.org/ns#"
   xmlns:rdf="http://www.w3.org/1999/02/22-rdf-syntax-ns#"
   xmlns:svg="http://www.w3.org/2000/svg"
   xmlns="http://www.w3.org/2000/svg"
   xmlns:xlink="http://www.w3.org/1999/xlink"
   xmlns:sodipodi="http://sodipodi.sourceforge.net/DTD/sodipodi-0.dtd"
   xmlns:inkscape="http://www.inkscape.org/namespaces/inkscape"
   width="47.285591"
   height="47.28569"
   version="1.1"
   viewBox="0 0 12.510734 12.51076"
   id="svg12"
   sodipodi:docname="lutris.svg"
   inkscape:version="1.0.1 (3bc2e813f5, 2020-09-07)">
  <style
     id="style932"></style>
  <metadata
     id="metadata107">
    <rdf:RDF>
      <cc:Work
         rdf:about="">
        <dc:format>image/svg+xml</dc:format>
        <dc:type
           rdf:resource="http://purl.org/dc/dcmitype/StillImage" />
      </cc:Work>
    </rdf:RDF>
  </metadata>
  <defs
     id="defs16">
    <linearGradient
       id="c"
       y1="523.79999"
       x1="403.57001"
       y2="536.79999"
       x2="416.57001"
       gradientUnits="userSpaceOnUse"
       gradientTransform="matrix(0.34526714,0,0,0.34526706,-134.80427,-174.63325)">
      <stop
         stop-color="#292c2f"
         id="stop1568" />
      <stop
         offset="1"
         stop-opacity="0"
         id="stop1570" />
    </linearGradient>
    <linearGradient
       xlink:href="#b-2"
       id="linearGradient4189"
       x1="14.369"
       y1="22.521999"
       x2="26.521999"
       y2="22.521999"
       gradientUnits="userSpaceOnUse" />
    <linearGradient
       x1="36"
       gradientUnits="userSpaceOnUse"
       x2="14"
       y2="12"
       y1="44"
       id="b-2">
      <stop
         style="stop-color:#bfc9c9;stop-opacity:1"
         stop-color="#536161"
         id="stop1579" />
      <stop
         style="stop-color:#fbfbfb;stop-opacity:1"
         stop-color="#f4f5f5"
         offset="1"
         id="stop1581" />
    </linearGradient>
    <linearGradient
       xlink:href="#b-2"
       id="linearGradient4428"
       gradientUnits="userSpaceOnUse"
       x1="31.586"
       y1="36.345001"
       x2="1.2029999"
       y2="6.723" />
    <linearGradient
       xlink:href="#b-2"
       id="linearGradient4189-3"
       x1="14.369"
       y1="22.521999"
       x2="26.521999"
       y2="22.521999"
       gradientUnits="userSpaceOnUse"
       gradientTransform="translate(20.841982,61.553822)" />
    <linearGradient
       xlink:href="#b-2"
       id="linearGradient4428-5"
       gradientUnits="userSpaceOnUse"
       x1="31.586"
       y1="36.345001"
       x2="1.2029999"
       y2="6.723"
       gradientTransform="translate(20.841982,61.553822)" />
    <linearGradient
       xlink:href="#b-2"
       id="linearGradient4189-3-3"
       x1="14.369"
       y1="22.521999"
       x2="26.521999"
       y2="22.521999"
       gradientUnits="userSpaceOnUse"
       gradientTransform="translate(4.376802,4.4211693)" />
    <linearGradient
       xlink:href="#b-2"
       id="linearGradient4428-5-5"
       gradientUnits="userSpaceOnUse"
       x1="31.586"
       y1="36.345001"
       x2="1.2029999"
       y2="6.723"
       gradientTransform="translate(4.376802,4.4211693)" />
    <linearGradient
       inkscape:collect="always"
       xlink:href="#linearGradient14"
       id="linearGradient15"
       x1="-9.6850061"
       y1="45.161198"
       x2="11.98815"
       y2="21.735205"
       gradientUnits="userSpaceOnUse"
       gradientTransform="scale(0.26457815)" />
    <linearGradient
       id="linearGradient14"
       inkscape:collect="always">
      <stop
         style="stop-color:#ff9900;stop-opacity:0.34509805;"
         offset="0"
         id="stop12" />
      <stop
         style="stop-color:#ffb685;stop-opacity:0.81568629;"
         offset="1"
         id="stop13" />
    </linearGradient>
    <filter
       id="filter2917-3"
       x="-0.96181148"
       y="-0.66745996"
       width="2.9236228"
       height="2.3349199"
       color-interpolation-filters="sRGB">
      <feGaussianBlur
         stdDeviation="0.2871969"
         id="feGaussianBlur732-5" />
    </filter>
    <filter
       id="filter1"
       x="-0.96181148"
       y="-0.66745996"
       width="2.9236228"
       height="2.3349199"
       color-interpolation-filters="sRGB">
      <feGaussianBlur
         stdDeviation="0.2871969"
         id="feGaussianBlur1" />
    </filter>
    <filter
       id="filter2"
       x="-0.96181148"
       y="-0.66745996"
       width="2.9236228"
       height="2.3349199"
       color-interpolation-filters="sRGB">
      <feGaussianBlur
         stdDeviation="0.2871969"
         id="feGaussianBlur2" />
    </filter>
    <linearGradient
       id="_lgradient_20"
       x1="-0.29991642"
       y1="-0.26140401"
       x2="0.96725708"
       y2="0.86616999"
       gradientTransform="matrix(15.137397,0,0,16.82717,0.89780187,0.05291536)"
       gradientUnits="userSpaceOnUse">
      <stop
         offset="34.94098066785295%"
         stop-opacity="1"
         style="stop-color:rgb(178,229,107)"
         id="stop1" />
      <stop
         offset="53.84922244785295%"
         stop-opacity="1"
         style="stop-color:rgb(194,233,100)"
         id="stop2" />
      <stop
         offset="90.40515655585295%"
         stop-opacity="1"
         style="stop-color:rgb(236,244,81)"
         id="stop3" />
      <stop
         offset="100%"
         stop-opacity="1"
         style="stop-color:rgb(250,247,75)"
         id="stop4" />
    </linearGradient>
    <linearGradient
       id="paint1_linear_19_153"
       x1="64"
       y1="120"
       x2="64"
       y2="8"
       gradientUnits="userSpaceOnUse"
       gradientTransform="translate(26.9062,40.0312)">
      <stop
         stop-color="#FF00B8"
         id="stop9" />
      <stop
         offset="1"
         stop-color="#FAFF00"
         id="stop10" />
    </linearGradient>
    <filter
       id="g-2"
       x="-0.036000002"
       y="-0.036000002"
       width="1.072"
       height="1.072"
       color-interpolation-filters="sRGB">
      <feGaussianBlur
         stdDeviation="0.72"
         id="feGaussianBlur232-7" />
    </filter>
    <linearGradient
       id="a-6"
       x1="32"
       x2="32"
       y1="8"
       y2="56"
       gradientTransform="matrix(0.51197725,0,0,0.51197725,-34.811977,46.950697)"
       gradientUnits="userSpaceOnUse">
      <stop
         stop-color="#bc3b22"
         offset="0"
         id="stop222" />
      <stop
         stop-color="#e05d3e"
         offset="1"
         id="stop224" />
    </linearGradient>
    <filter
       id="filter1127-3"
       x="-0.061878592"
       y="-0.058231782"
       width="1.1237572"
       height="1.1164635"
       color-interpolation-filters="sRGB">
      <feGaussianBlur
         stdDeviation="0.48526995"
         id="feGaussianBlur244-6" />
    </filter>
    <linearGradient
       inkscape:collect="always"
       xlink:href="#linearGradient948"
       id="linearGradient950"
       x1="-359.65512"
       y1="21.769932"
       x2="-172.6371"
       y2="21.769932"
       gradientUnits="userSpaceOnUse"
       gradientTransform="matrix(0.11289566,0,0,0.11289566,46.884392,19.475378)" />
    <linearGradient
       inkscape:collect="always"
       id="linearGradient948">
      <stop
         style="stop-color:#fff0f3;stop-opacity:1"
         offset="0"
         id="stop944" />
      <stop
         id="stop960"
         offset="0.46625304"
         style="stop-color:#ffeef1;stop-opacity:1" />
      <stop
         id="stop958"
         offset="0.51055551"
         style="stop-color:#ffe0e4;stop-opacity:1" />
      <stop
         id="stop956"
         offset="0.54914147"
         style="stop-color:#ffb6c0;stop-opacity:1" />
      <stop
         id="stop954"
         offset="0.96501285"
         style="stop-color:#ffa1ae;stop-opacity:1" />
      <stop
         id="stop952"
         offset="0.9850204"
         style="stop-color:#ffa7b4;stop-opacity:1" />
      <stop
         style="stop-color:#ffb3be;stop-opacity:1"
         offset="1"
         id="stop946" />
    </linearGradient>
    <linearGradient
       inkscape:collect="always"
       xlink:href="#linearGradient864"
       id="linearGradient866"
       x1="-65.138794"
       y1="-139.32076"
       x2="35.089035"
       y2="-39.09293"
       gradientUnits="userSpaceOnUse"
       gradientTransform="matrix(3.1105562,-1.2843039,3.1105562,1.2843039,538.99771,438.64643)" />
    <linearGradient
       inkscape:collect="always"
       id="linearGradient864">
      <stop
         style="stop-color:#faf1f4;stop-opacity:1"
         offset="0"
         id="stop860" />
      <stop
         id="stop870"
         offset="0.48520815"
         style="stop-color:#ffe5e9;stop-opacity:1" />
      <stop
         id="stop868"
         offset="0.58669406"
         style="stop-color:#ffb1bc;stop-opacity:1" />
      <stop
         style="stop-color:#d2b3bb;stop-opacity:1"
         offset="1"
         id="stop862" />
    </linearGradient>
    <linearGradient
       inkscape:collect="always"
       xlink:href="#linearGradient850"
       id="linearGradient852"
       x1="-170.40649"
       y1="-177.40906"
       x2="-246.49678"
       y2="-101.31878"
       gradientUnits="userSpaceOnUse"
       gradientTransform="matrix(3.3354727,0.00618241,0.00618241,3.3354727,397.92296,1002.5273)" />
    <linearGradient
       inkscape:collect="always"
       id="linearGradient850">
      <stop
         style="stop-color:#eff1f4;stop-opacity:1"
         offset="0"
         id="stop846" />
      <stop
         style="stop-color:#fff0f2;stop-opacity:1"
         offset="1"
         id="stop848" />
    </linearGradient>
    <linearGradient
       inkscape:collect="always"
       xlink:href="#linearGradient1038"
       id="linearGradient1040"
       x1="321.65744"
       y1="-172.25456"
       x2="342.44727"
       y2="-172.25456"
       gradientUnits="userSpaceOnUse"
       gradientTransform="matrix(3.3416551,0,0,3.3292902,-492.85989,695.7349)" />
    <linearGradient
       inkscape:collect="always"
       id="linearGradient1038">
      <stop
         style="stop-color:#ff5f73;stop-opacity:1"
         offset="0"
         id="stop1034" />
      <stop
         id="stop1042"
         offset="0.14546083"
         style="stop-color:#ff95a9;stop-opacity:1" />
      <stop
         style="stop-color:#ff8da4;stop-opacity:1"
         offset="0.25454578"
         id="stop1044" />
      <stop
         id="stop1046"
         offset="0.63634312"
         style="stop-color:#ff465c;stop-opacity:1" />
      <stop
         style="stop-color:#f2465b;stop-opacity:1"
         offset="1"
         id="stop1036" />
    </linearGradient>
    <radialGradient
       inkscape:collect="always"
       xlink:href="#linearGradient980"
       id="radialGradient982"
       cx="336.2753"
       cy="-262.63675"
       fx="336.2753"
       fy="-262.63675"
       r="26.392866"
       gradientUnits="userSpaceOnUse"
       gradientTransform="matrix(4.0594876,0,0,3.5199913,-728.53957,858.12557)" />
    <linearGradient
       inkscape:collect="always"
       id="linearGradient980">
      <stop
         style="stop-color:#fffdfd;stop-opacity:1"
         offset="0"
         id="stop976" />
      <stop
         id="stop992"
         offset="0.33526921"
         style="stop-color:#ffe6e9;stop-opacity:1" />
      <stop
         id="stop990"
         offset="0.59462214"
         style="stop-color:#ffd6db;stop-opacity:1" />
      <stop
         id="stop988"
         offset="0.76555932"
         style="stop-color:#ffb7c1;stop-opacity:1" />
      <stop
         id="stop984"
         offset="0.92580974"
         style="stop-color:#ff9ca8;stop-opacity:1" />
      <stop
         style="stop-color:#ffbec7;stop-opacity:1"
         offset="1"
         id="stop978" />
    </linearGradient>
    <radialGradient
       inkscape:collect="always"
       xlink:href="#linearGradient1080"
       id="radialGradient1082"
       cx="134.98691"
       cy="-230.3808"
       fx="134.98691"
       fy="-230.3808"
       r="20.450365"
       gradientTransform="matrix(0.11028738,2.8039214e-8,0,0.02876556,2.5940831,25.385437)"
       gradientUnits="userSpaceOnUse" />
    <linearGradient
       inkscape:collect="always"
       id="linearGradient1080">
      <stop
         style="stop-color:#cc1727;stop-opacity:0.39197531"
         offset="0"
         id="stop1076" />
      <stop
         style="stop-color:#cc1727;stop-opacity:0;"
         offset="1"
         id="stop1078" />
    </linearGradient>
    <linearGradient
       inkscape:collect="always"
       xlink:href="#linearGradient14"
       id="linearGradient940"
       x1="-12.025727"
       y1="6.1170783"
       x2="-0.085100174"
       y2="6.1170783"
       gradientUnits="userSpaceOnUse" />
  </defs>
  <sodipodi:namedview
     id="namedview14"
     pagecolor="#000000"
     bordercolor="#666666"
     borderopacity="1.0"
     inkscape:showpageshadow="2"
     inkscape:pageopacity="0.0"
     inkscape:pagecheckerboard="0"
     inkscape:deskcolor="#d1d1d1"
     showgrid="false"
     inkscape:zoom="6.2611141"
     inkscape:cx="17.325779"
     inkscape:cy="49.73284"
     inkscape:window-width="1920"
     inkscape:window-height="988"
     inkscape:window-x="0"
     inkscape:window-y="0"
     inkscape:window-maximized="1"
     inkscape:current-layer="svg12"
     inkscape:document-rotation="0">
    <inkscape:grid
       type="xygrid"
       id="grid244"
       originx="9.9594769"
       originy="-31.57929"
       spacingy="1"
       spacingx="1"
       units="px"
       visible="false" />
  </sodipodi:namedview>
  <rect
     x="-12.194976"
     y="0.32004508"
     width="11.940627"
     height="11.936014"
     rx="1.6121091"
     shape-rendering="crispEdges"
     id="rect5-6-7-3"
     ry="1.7735944"
     transform="matrix(0.00523883,-0.99998628,0.999988,0.00489859,0,0)"
     style="fill:#ffe0cc;fill-opacity:0.0980392;stroke:url(#linearGradient940);stroke-width:0.5291563;stroke-miterlimit:4;stroke-dasharray:none;stroke-opacity:1" />
  <rect
     x="-3.8015616"
     y="4.9492884"
     width="8.0832729"
     height="8.0830202"
     rx="1.612043"
     shape-rendering="crispEdges"
     id="rect5-6-6-6-6"
     style="fill:#ffc299;fill-opacity:0.101961;stroke:url(#linearGradient15);stroke-width:0.42332506;stroke-opacity:1;stroke-miterlimit:4;stroke-dasharray:none"
     ry="1.7735215"
     transform="matrix(0.72612649,-0.68756114,0.68797751,0.72573201,0,0)" />
  <path
     style="fill:#000000;fill-opacity:0.0954546;stroke:#000000;stroke-width:0;stroke-linecap:round;stroke-linejoin:round;stroke-miterlimit:4;stroke-dasharray:none;stroke-opacity:0.0941176"
     d="m 6.3229986,6.0010022 v 3.37e-5 c -0.2286962,0.00111 -0.4573827,0.037995 -0.6348978,0.1062443 l -2.5231621,0.7185414 0.00111,0.5997782 c 4.441e-4,0.1493485 0.1007665,0.2193767 0.237222,0.276519 l 2.2848784,0.9568296 c 0.1759908,0.073698 0.4060746,0.1099245 0.6359803,0.1099245 0.229905,0 0.4599888,-0.03622 0.63598,-0.1099245 L 9.2449535,7.7021188 C 9.3814036,7.6449761 9.4817088,7.5749486 9.482158,7.4255998 L 9.4832357,6.9091328 6.9600728,6.1072802 C 6.7788474,6.0496873 6.5538723,6.002167 6.3251758,6.0010359 v -3.37e-5 c -3.59e-4,1.4e-6 -7.184e-4,1.56e-5 -0.00109,1.76e-5 -3.594e-4,-2e-6 -7.185e-4,-1.62e-5 -0.00111,-1.76e-5 z"
     id="path1025"
     inkscape:connector-curvature="0"
     sodipodi:nodetypes="ccsccccsccccsccccc" />
  <path
     sodipodi:nodetypes="ccsccccsccccsccccc"
     inkscape:connector-curvature="0"
     id="path940"
     d="m 6.2947213,5.8945693 v 3.36e-5 C 6.066025,5.8957178 5.8373388,5.9325972 5.6598236,6.0008475 l -2.5231621,0.7185412 0.0011,0.599778 c 4.443e-4,0.149349 0.1007665,0.219377 0.2372224,0.276519 l 2.284888,0.9568297 c 0.1759909,0.073698 0.4060745,0.1099245 0.6359799,0.1099245 0.2299054,0 0.4599891,-0.03622 0.6359802,-0.1099245 L 9.216675,7.5956857 C 9.3531297,7.5385437 9.4534347,7.4685158 9.453884,7.3191667 L 9.4549662,6.8027001 6.9318002,6.0008475 C 6.7505705,5.9432544 6.5255956,5.8957342 6.2968988,5.8946029 v -3.36e-5 c -3.593e-4,1.6e-6 -7.187e-4,1.58e-5 -0.0011,1.77e-5 -3.59e-4,-1.9e-6 -7.183e-4,-1.61e-5 -0.0011,-1.77e-5 z"
     style="fill:url(#linearGradient950);fill-opacity:1;stroke:#000000;stroke-width:0;stroke-linecap:round;stroke-linejoin:round;stroke-miterlimit:4;stroke-dasharray:none;stroke-opacity:0.0941176" />
  <path
     style="fill:#fff0f3;fill-opacity:0.436364;stroke:#000000;stroke-width:0;stroke-linecap:round;stroke-linejoin:round;stroke-miterlimit:4;stroke-dasharray:none;stroke-opacity:0.0941176"
     d="m 6.2947213,5.3329826 v 3.41e-5 C 6.066025,5.3341267 5.8373388,5.3710097 5.6598236,5.4392613 l -2.5231621,0.7185412 0.0011,0.5997778 c 4.444e-4,0.149349 0.1007667,0.2193768 0.2372224,0.276519 l 2.2848784,0.9568301 c 0.1759908,0.073698 0.4060746,0.1099234 0.6359799,0.1099234 0.2299051,0 0.4599893,-0.036219 0.6359802,-0.1099234 L 9.216675,7.0340993 C 9.3531297,6.9769573 9.4534347,6.9069296 9.453884,6.7575803 L 9.4549604,6.2411142 6.931796,5.4392616 C 6.7505705,5.381668 6.5255956,5.3341477 6.2968988,5.3330167 v -3.38e-5 c -3.593e-4,1.2e-6 -7.187e-4,1.63e-5 -0.0011,1.78e-5 -3.59e-4,-1.5e-6 -7.183e-4,-1.66e-5 -0.0011,-1.78e-5 z"
     id="path962"
     inkscape:connector-curvature="0"
     sodipodi:nodetypes="ccsccccsccccsccccc" />
  <path
     style="fill:#ff9955;fill-opacity:1;stroke:#000000;stroke-width:0;stroke-linecap:round;stroke-linejoin:round;stroke-miterlimit:4;stroke-dasharray:none;stroke-opacity:0.0941176"
     d="m 6.2947213,5.2921654 v 3.35e-5 C 6.066025,5.2933139 5.8373388,5.3301932 5.6598236,5.3984435 l -2.5231621,0.7185412 0.0011,0.5997779 c 4.402e-4,0.1493491 0.1007624,0.2193775 0.2372182,0.2765189 L 5.659858,7.950111 c 0.1759908,0.073698 0.4060746,0.1099248 0.63598,0.1099248 0.2299052,0 0.4599889,-0.03622 0.6359803,-0.1099248 L 9.216675,6.9932815 C 9.3531297,6.9361405 9.4534347,6.8661119 9.453884,6.7167626 L 9.4549604,6.2002964 6.9317988,5.3984435 C 6.7505705,5.3408509 6.5255956,5.29333 6.2968988,5.2921989 v -3.35e-5 c -3.593e-4,1.6e-6 -7.187e-4,1.56e-5 -0.0011,1.72e-5 -3.59e-4,-1.6e-6 -7.183e-4,-1.56e-5 -0.0011,-1.72e-5 z"
     id="path890"
     inkscape:connector-curvature="0"
     sodipodi:nodetypes="ccsccccsccccsccccc" />
  <path
     sodipodi:nodetypes="ccccsccccc"
     inkscape:connector-curvature="0"
     id="path936"
     d="m 3.1366615,6.1169847 0.0011,0.1486352 c 4.488e-4,0.1493486 0.100771,0.2193768 0.2372269,0.2765193 l 2.2848734,0.9568296 c 0.1759909,0.073698 0.4060746,0.1099242 0.63598,0.1099242 0.2299052,0 0.459989,-0.03622 0.6359803,-0.1099242 L 9.216675,6.5421392 C 9.3531297,6.4849962 9.4534347,6.4149688 9.453884,6.2656199 l 0.00111,-0.065322 z"
     style="fill:#000000;fill-opacity:0.113636;stroke:#000000;stroke-width:0;stroke-linecap:round;stroke-linejoin:round;stroke-miterlimit:4;stroke-dasharray:none;stroke-opacity:0.0941176" />
  <g
     id="g934"
     transform="matrix(0.0337843,0,0,0.03390977,9.6615107,7.0771371)"
     style="stroke-width:3.33547">
    <path
       sodipodi:nodetypes="sssssssss"
       inkscape:connector-curvature="0"
       id="rect858"
       d="m -187.17084,-35.32636 68.76545,-28.216783 c 10.44382,-4.285468 27.159211,-4.171352 37.649144,0 l 67.631532,26.893867 c 8.4771368,3.370958 10.4288125,15.816339 0,20.138238 l -67.631527,28.027794 c -10.428812,4.321899 -27.220329,4.321898 -37.649139,-1e-6 l -67.63153,-28.027794 c -10.42881,-4.321897 -8.36336,-15.848843 -1.13393,-18.815321 z"
       style="opacity:1;fill:url(#linearGradient866);fill-opacity:1;stroke:#000000;stroke-width:0;stroke-linecap:round;stroke-linejoin:round;stroke-miterlimit:4;stroke-dasharray:none;stroke-opacity:0.0941176" />
    <rect
       style="opacity:1;fill:#ffffff;fill-opacity:0.986364;stroke:#000000;stroke-width:0;stroke-linecap:round;stroke-linejoin:round;stroke-miterlimit:4;stroke-dasharray:none;stroke-opacity:0.0941176"
       id="rect854"
       width="113.10251"
       height="113.10251"
       x="-74.541161"
       y="-146.40219"
       rx="67.541939"
       ry="67.541939"
       transform="matrix(0.9238124,-0.38284547,0.9238124,0.38284547,0,0)" />
    <rect
       transform="matrix(0.9238124,-0.38284547,0.9238124,0.38284547,0,0)"
       ry="67.541939"
       rx="67.541939"
       y="-148.5316"
       x="-72.411736"
       height="113.10251"
       width="113.10251"
       id="rect844"
       style="opacity:1;fill:url(#linearGradient852);fill-opacity:1;stroke:#000000;stroke-width:0;stroke-linecap:round;stroke-linejoin:round;stroke-miterlimit:4;stroke-dasharray:none;stroke-opacity:0.0941176" />
  </g>
  <g
     id="g1072"
     transform="matrix(0.0337843,0,0,0.03390977,-3.9663405,11.63373)"
     style="stroke-width:3.33547">
    <g
       transform="translate(-0.95688414)"
       id="g1064"
       style="stroke-width:3.33547">
      <path
         style="opacity:1;fill:url(#linearGradient1040);fill-opacity:1;stroke:#000000;stroke-width:0;stroke-linecap:round;stroke-linejoin:round;stroke-miterlimit:4;stroke-dasharray:none;stroke-opacity:0.0941176"
         d="m 294.31664,-212.11429 h 20.78868 v 53.20014 c 0,0.94478 0.045,1.59061 -0.52979,2.07668 -5.0271,4.14913 -14.66461,3.89177 -19.31372,0.36481 -0.99095,-0.62867 -0.94517,-1.11752 -0.94517,-2.2525 z"
         id="rect1012"
         inkscape:connector-curvature="0"
         sodipodi:nodetypes="ccccccc" />
      <path
         sodipodi:nodetypes="ccccccc"
         inkscape:connector-curvature="0"
         id="path1048"
         d="m 294.31664,-212.11429 h 20.78868 v 53.20014 c 0,0.94478 0.045,1.59061 -0.52979,2.07668 -5.0271,4.14913 -14.66461,3.89177 -19.31372,0.36481 -0.99095,-0.62867 -0.94517,-1.11752 -0.94517,-2.2525 z"
         style="opacity:1;fill:#ff7f2a;fill-opacity:1;stroke:#000000;stroke-width:0;stroke-linecap:round;stroke-linejoin:round;stroke-miterlimit:4;stroke-dasharray:none;stroke-opacity:0.0941176" />
    </g>
    <g
       transform="translate(-38.283833,31.787988)"
       id="g1010"
       style="stroke-width:3.33547">
      <circle
         style="opacity:1;fill:url(#radialGradient982);fill-opacity:1;stroke:#000000;stroke-width:0;stroke-linecap:round;stroke-linejoin:round;stroke-miterlimit:4;stroke-dasharray:none;stroke-opacity:0.0941176"
         id="path974"
         cx="342.03818"
         cy="-261.53296"
         r="26.392866" />
      <circle
         r="26.392866"
         cy="-261.53296"
         cx="342.03818"
         id="circle994"
         style="opacity:1;fill:#deaa87;fill-opacity:1;stroke:#000000;stroke-width:0;stroke-linecap:round;stroke-linejoin:round;stroke-miterlimit:4;stroke-dasharray:none;stroke-opacity:0.0941176" />
    </g>
  </g>
  <ellipse
     style="opacity:0.392;fill:url(#radialGradient1082);fill-opacity:1;stroke:#000000;stroke-width:0;stroke-linecap:round;stroke-linejoin:round;stroke-miterlimit:4;stroke-dasharray:none;stroke-opacity:0.0941176"
     id="path1074"
     cx="6.7433934"
     cy="6.3377581"
     rx="1.0835701"
     ry="0.3369081" />
  <g
     id="g1112"
     transform="matrix(0.0337843,0,0,0.03390977,-4.1701518,11.108099)"
     style="stroke-width:3.33547">
    <ellipse
       ry="5.9467463"
       rx="14.098467"
       cy="-149.14613"
       cx="251.56744"
       id="path1084"
       style="opacity:1;fill:#ff9955;fill-opacity:1;stroke:#000000;stroke-width:0;stroke-linecap:round;stroke-linejoin:round;stroke-miterlimit:4;stroke-dasharray:none;stroke-opacity:0.0941176" />
    <ellipse
       style="opacity:1;fill:#ff9955;fill-opacity:1;stroke:#ff9955;stroke-width:0;stroke-linecap:round;stroke-linejoin:round;stroke-miterlimit:4;stroke-dasharray:none;stroke-opacity:1"
       id="ellipse1096"
       cx="251.56744"
       cy="-149.48022"
       rx="12.632989"
       ry="5.2640057" />
  </g>
</svg>
