<?xml version="1.0" encoding="UTF-8" standalone="no"?>
<svg
   xmlns:dc="http://purl.org/dc/elements/1.1/"
   xmlns:cc="http://creativecommons.org/ns#"
   xmlns:rdf="http://www.w3.org/1999/02/22-rdf-syntax-ns#"
   xmlns:svg="http://www.w3.org/2000/svg"
   xmlns="http://www.w3.org/2000/svg"
   xmlns:xlink="http://www.w3.org/1999/xlink"
   xmlns:sodipodi="http://sodipodi.sourceforge.net/DTD/sodipodi-0.dtd"
   xmlns:inkscape="http://www.inkscape.org/namespaces/inkscape"
   width="47.285591"
   height="47.28569"
   version="1.1"
   viewBox="0 0 12.510734 12.51076"
   id="svg12"
   sodipodi:docname="nylas.svg"
   inkscape:version="1.0.1 (3bc2e813f5, 2020-09-07)">
  <style
     id="style865"></style>
  <metadata
     id="metadata40">
    <rdf:RDF>
      <cc:Work
         rdf:about="">
        <dc:format>image/svg+xml</dc:format>
        <dc:type
           rdf:resource="http://purl.org/dc/dcmitype/StillImage" />
      </cc:Work>
    </rdf:RDF>
  </metadata>
  <defs
     id="defs16">
    <linearGradient
       id="linearGradient3"
       inkscape:collect="always">
      <stop
         style="stop-color:#c299ff;stop-opacity:1;"
         offset="0"
         id="stop2" />
      <stop
         style="stop-color:#00ccff;stop-opacity:1"
         offset="1"
         id="stop3" />
    </linearGradient>
    <linearGradient
       id="c"
       y1="523.79999"
       x1="403.57001"
       y2="536.79999"
       x2="416.57001"
       gradientUnits="userSpaceOnUse"
       gradientTransform="matrix(0.34526714,0,0,0.34526706,-134.80427,-174.63325)">
      <stop
         stop-color="#292c2f"
         id="stop1568" />
      <stop
         offset="1"
         stop-opacity="0"
         id="stop1570" />
    </linearGradient>
    <linearGradient
       xlink:href="#b-2"
       id="linearGradient4189"
       x1="14.369"
       y1="22.521999"
       x2="26.521999"
       y2="22.521999"
       gradientUnits="userSpaceOnUse" />
    <linearGradient
       x1="36"
       gradientUnits="userSpaceOnUse"
       x2="14"
       y2="12"
       y1="44"
       id="b-2">
      <stop
         style="stop-color:#bfc9c9;stop-opacity:1"
         stop-color="#536161"
         id="stop1579" />
      <stop
         style="stop-color:#fbfbfb;stop-opacity:1"
         stop-color="#f4f5f5"
         offset="1"
         id="stop1581" />
    </linearGradient>
    <linearGradient
       xlink:href="#b-2"
       id="linearGradient4428"
       gradientUnits="userSpaceOnUse"
       x1="31.586"
       y1="36.345001"
       x2="1.2029999"
       y2="6.723" />
    <linearGradient
       xlink:href="#b-2"
       id="linearGradient4189-3"
       x1="14.369"
       y1="22.521999"
       x2="26.521999"
       y2="22.521999"
       gradientUnits="userSpaceOnUse"
       gradientTransform="translate(20.841982,61.553822)" />
    <linearGradient
       xlink:href="#b-2"
       id="linearGradient4428-5"
       gradientUnits="userSpaceOnUse"
       x1="31.586"
       y1="36.345001"
       x2="1.2029999"
       y2="6.723"
       gradientTransform="translate(20.841982,61.553822)" />
    <linearGradient
       xlink:href="#b-2"
       id="linearGradient4189-3-3"
       x1="14.369"
       y1="22.521999"
       x2="26.521999"
       y2="22.521999"
       gradientUnits="userSpaceOnUse"
       gradientTransform="translate(4.376802,4.4211693)" />
    <linearGradient
       xlink:href="#b-2"
       id="linearGradient4428-5-5"
       gradientUnits="userSpaceOnUse"
       x1="31.586"
       y1="36.345001"
       x2="1.2029999"
       y2="6.723"
       gradientTransform="translate(4.376802,4.4211693)" />
    <linearGradient
       inkscape:collect="always"
       xlink:href="#linearGradient14"
       id="linearGradient15"
       x1="-9.6850061"
       y1="45.161198"
       x2="11.98815"
       y2="21.735205"
       gradientUnits="userSpaceOnUse"
       gradientTransform="scale(0.26457813)" />
    <linearGradient
       id="linearGradient14"
       inkscape:collect="always">
      <stop
         style="stop-color:#9955ff;stop-opacity:0.45197046;"
         offset="0"
         id="stop12" />
      <stop
         style="stop-color:#00ccff;stop-opacity:1"
         offset="1"
         id="stop13" />
    </linearGradient>
    <filter
       id="filter2917-3"
       x="-0.96181148"
       y="-0.66745996"
       width="2.9236228"
       height="2.3349199"
       color-interpolation-filters="sRGB">
      <feGaussianBlur
         stdDeviation="0.2871969"
         id="feGaussianBlur732-5" />
    </filter>
    <filter
       id="filter1"
       x="-0.96181148"
       y="-0.66745996"
       width="2.9236228"
       height="2.3349199"
       color-interpolation-filters="sRGB">
      <feGaussianBlur
         stdDeviation="0.2871969"
         id="feGaussianBlur1" />
    </filter>
    <filter
       id="filter2"
       x="-0.96181148"
       y="-0.66745996"
       width="2.9236228"
       height="2.3349199"
       color-interpolation-filters="sRGB">
      <feGaussianBlur
         stdDeviation="0.2871969"
         id="feGaussianBlur2" />
    </filter>
    <linearGradient
       inkscape:collect="always"
       xlink:href="#linearGradient3"
       id="linearGradient2"
       x1="2.9103594"
       y1="6.0852971"
       x2="9.2602339"
       y2="6.0852971"
       gradientUnits="userSpaceOnUse" />
    <linearGradient
       inkscape:collect="always"
       xlink:href="#linearGradient14"
       id="linearGradient873"
       x1="-12.025727"
       y1="6.1170783"
       x2="-0.085100174"
       y2="6.1170783"
       gradientUnits="userSpaceOnUse" />
  </defs>
  <sodipodi:namedview
     id="namedview14"
     pagecolor="#000000"
     bordercolor="#666666"
     borderopacity="1.0"
     inkscape:showpageshadow="2"
     inkscape:pageopacity="0.0"
     inkscape:pagecheckerboard="0"
     inkscape:deskcolor="#d1d1d1"
     showgrid="false"
     inkscape:zoom="6.2611141"
     inkscape:cx="27.488941"
     inkscape:cy="45.84691"
     inkscape:window-width="1920"
     inkscape:window-height="988"
     inkscape:window-x="0"
     inkscape:window-y="0"
     inkscape:window-maximized="1"
     inkscape:current-layer="svg12"
     inkscape:document-rotation="0">
    <inkscape:grid
       type="xygrid"
       id="grid244"
       originx="9.9594769"
       originy="-31.57929"
       spacingy="1"
       spacingx="1"
       units="px"
       visible="false" />
  </sodipodi:namedview>
  <rect
     x="-12.194976"
     y="0.32004508"
     width="11.940627"
     height="11.936014"
     rx="1.6121091"
     shape-rendering="crispEdges"
     id="rect5-6-7-3"
     ry="1.7735944"
     transform="matrix(0.00523883,-0.99998628,0.999988,0.00489859,0,0)"
     style="fill:#80b3ff;fill-opacity:0.15;stroke:url(#linearGradient873);stroke-width:0.5291563;stroke-miterlimit:4;stroke-dasharray:none;stroke-opacity:1" />
  <rect
     x="-3.7202365"
     y="4.8851409"
     width="7.912631"
     height="7.912384"
     rx="1.612043"
     shape-rendering="crispEdges"
     id="rect5-6-6-6-6"
     style="fill:#80b3ff;fill-opacity:0.122146;stroke:url(#linearGradient15);stroke-width:0.42332506;stroke-opacity:1;stroke-miterlimit:4;stroke-dasharray:none"
     ry="1.7735215"
     transform="matrix(0.72612649,-0.68756114,0.6879775,0.72573202,0,0)" />
  <path
     d="m 3.8741788,3.8741779 c -0.4397286,0 -0.7937343,0.354004 -0.7937343,0.793731 v 3.174942 c 0,0.439728 0.3540057,0.793733 0.7937343,0.793733 h 4.7624059 c 0.4397285,0 0.793734,-0.354005 0.793734,-0.793733 v -3.174942 c 0,-0.439727 -0.3540055,-0.793731 -0.793734,-0.793731 z m 0,0.396867 h 4.7624059 c 0.1940203,0 0.3470522,0.140517 0.3821394,0.324008 l -2.5493952,2.030055 c -0.121283,0.09661 -0.306596,0.09661 -0.427863,0 L 3.4920707,4.5950529 c 0.03509,-0.183493 0.1881192,-0.324008 0.3821394,-0.324008 z m -0.3968675,0.813102 1.4704329,1.171236 -1.4704329,1.171233 v -2.342431 z m 5.5561405,0 v 2.342427 l -1.4704325,-1.171235 1.4704325,-1.17123 z m -3.7710316,1.422372 0.4642947,0.369736 c 0.2900582,0.230984 0.7672239,0.230984 1.0572939,0 l 0.4642949,-0.369736 1.7703847,1.409198 c -0.03509,0.183489 -0.1881189,0.324004 -0.3821394,0.324004 H 3.8741429 c -0.1940201,0 -0.3470526,-0.14051 -0.3821395,-0.324004 l 1.7703851,-1.409198 z"
     style="color:#dedede;fill:url(#linearGradient2);stroke-width:0.264578"
     class="ColorScheme-Text"
     id="path1" />
  <path
     style="fill:#80b3ff;fill-opacity:1;fill-rule:nonzero;stroke:none;stroke-width:11.2538;stroke-miterlimit:4;stroke-dasharray:none;stroke-opacity:1"
     d="m 11.291625,11.381992 c -0.05598,-0.01982 -0.584354,-0.313493 -0.79447,-0.441561 -0.04327,-0.02638 -0.04498,-0.03821 -0.04498,-0.311675 v -0.284252 l 0.578887,0.329229 0.578887,0.329229 8.73e-4,0.115728 c 0.0017,0.239654 -0.114698,0.335701 -0.319159,0.263302 z M 9.7425236,11.23908 C 9.445665,11.06981 9.1825422,10.918303 9.1578055,10.902381 c -0.043125,-0.02775 -0.044979,-0.04042 -0.044979,-0.307127 0,-0.160547 0.00773,-0.275404 0.018352,-0.271595 0.010097,0.0038 0.2754684,0.153231 0.5897171,0.332445 l 0.5713574,0.325844 v 0.282549 c 0,0.155397 -0.0023,0.282507 -0.005,0.282446 -0.0027,-8.7e-5 -0.247881,-0.138595 -0.5447358,-0.307863 z M 9.6878596,10.48151 9.113452,10.15221 9.1131581,9.86861 c -2.94e-4,-0.155963 0.00741,-0.28062 0.016842,-0.276997 0.00945,0.0038 0.2745615,0.153498 0.5891742,0.33305 l 0.5720237,0.326462 4.4e-4,0.281943 c 2.94e-4,0.155057 -0.0062,0.28099 -0.01446,0.279852 -0.0083,-0.0012 -0.273476,-0.150272 -0.5894014,-0.33141 z m 1.8338004,0.315929 c -0.03298,-0.02019 -0.275866,-0.159256 -0.53974,-0.309067 -0.263872,-0.149807 -0.491277,-0.282861 -0.505344,-0.295663 -0.01894,-0.01726 -0.02412,-0.09369 -0.01999,-0.294711 l 0.0056,-0.271402 0.439789,0.250981 c 0.241883,0.138027 0.500508,0.285628 0.574721,0.327969 l 0.134934,0.077 v 0.276117 c 0,0.151871 -0.0067,0.275961 -0.01499,0.275781 -0.0083,0 -0.04198,-0.01685 -0.07496,-0.03701 z M 11.221805,9.894821 C 11.023902,9.780844 10.769773,9.636393 10.657078,9.573839 L 10.452177,9.46009 V 9.1758461 c 0,-0.219649 0.0057,-0.281917 0.02499,-0.274034 0.01374,0.0054 0.27237,0.152456 0.574722,0.3262719 l 0.549733,0.31606 0.0055,0.279304 c 0.0031,0.153604 -0.0015,0.279128 -0.01,0.278948 -0.0085,0 -0.177462,-0.09357 -0.375367,-0.207575 z M 9.6875496,9.750373 9.1128259,9.420547 9.113267,9.351087 C 9.115437,9.0339731 9.2748435,8.9538621 9.5756613,9.1186701 9.6598243,9.1648001 9.8552746,9.273729 10.009994,9.360789 l 0.281309,0.158285 4.41e-4,0.281937 c 2.94e-4,0.15506 -0.0063,0.281311 -0.01454,0.28056 -0.0083,-0.0012 -0.273618,-0.149796 -0.589716,-0.331203 z"
     id="path59-6-0" />
</svg>
