<?xml version="1.0" encoding="UTF-8" standalone="no"?>
<svg
   xmlns:dc="http://purl.org/dc/elements/1.1/"
   xmlns:cc="http://creativecommons.org/ns#"
   xmlns:rdf="http://www.w3.org/1999/02/22-rdf-syntax-ns#"
   xmlns:svg="http://www.w3.org/2000/svg"
   xmlns="http://www.w3.org/2000/svg"
   xmlns:xlink="http://www.w3.org/1999/xlink"
   xmlns:sodipodi="http://sodipodi.sourceforge.net/DTD/sodipodi-0.dtd"
   xmlns:inkscape="http://www.inkscape.org/namespaces/inkscape"
   width="47.285591"
   height="47.28569"
   version="1.1"
   viewBox="0 0 12.510734 12.51076"
   id="svg12"
   sodipodi:docname="gnome-weather.svg"
   inkscape:version="1.0.1 (3bc2e813f5, 2020-09-07)">
  <style
     id="style921"></style>
  <metadata
     id="metadata96">
    <rdf:RDF>
      <cc:Work
         rdf:about="">
        <dc:format>image/svg+xml</dc:format>
        <dc:type
           rdf:resource="http://purl.org/dc/dcmitype/StillImage" />
      </cc:Work>
    </rdf:RDF>
  </metadata>
  <defs
     id="defs16">
    <linearGradient
       inkscape:collect="always"
       id="linearGradient928">
      <stop
         style="stop-color:#2a7fff;stop-opacity:1;"
         offset="0"
         id="stop924" />
      <stop
         style="stop-color:#00aad4;stop-opacity:1"
         offset="1"
         id="stop926" />
    </linearGradient>
    <radialGradient
       id="radialGradient935"
       cx="58.459999"
       cy="10.178"
       r="7.2758999"
       gradientTransform="matrix(-1.2984,0.66652,-0.55127,-1.0739,84.6,2.8304)"
       gradientUnits="userSpaceOnUse">
      <stop
         stop-color="#fde34e"
         offset="0"
         id="stop931"
         style="stop-color:#2a7fff;stop-opacity:1" />
      <stop
         stop-color="#f8a621"
         offset="1"
         id="stop933"
         style="stop-color:#00aad4;stop-opacity:1" />
    </radialGradient>
    <linearGradient
       id="c"
       y1="523.79999"
       x1="403.57001"
       y2="536.79999"
       x2="416.57001"
       gradientUnits="userSpaceOnUse"
       gradientTransform="matrix(0.34526714,0,0,0.34526706,-134.80427,-174.63325)">
      <stop
         stop-color="#292c2f"
         id="stop1568" />
      <stop
         offset="1"
         stop-opacity="0"
         id="stop1570" />
    </linearGradient>
    <linearGradient
       xlink:href="#b-2"
       id="linearGradient4189"
       x1="14.369"
       y1="22.521999"
       x2="26.521999"
       y2="22.521999"
       gradientUnits="userSpaceOnUse" />
    <linearGradient
       x1="36"
       gradientUnits="userSpaceOnUse"
       x2="14"
       y2="12"
       y1="44"
       id="b-2">
      <stop
         style="stop-color:#bfc9c9;stop-opacity:1"
         stop-color="#536161"
         id="stop1579" />
      <stop
         style="stop-color:#fbfbfb;stop-opacity:1"
         stop-color="#f4f5f5"
         offset="1"
         id="stop1581" />
    </linearGradient>
    <linearGradient
       xlink:href="#b-2"
       id="linearGradient4428"
       gradientUnits="userSpaceOnUse"
       x1="31.586"
       y1="36.345001"
       x2="1.2029999"
       y2="6.723" />
    <linearGradient
       xlink:href="#b-2"
       id="linearGradient4189-3"
       x1="14.369"
       y1="22.521999"
       x2="26.521999"
       y2="22.521999"
       gradientUnits="userSpaceOnUse"
       gradientTransform="translate(20.841982,61.553822)" />
    <linearGradient
       xlink:href="#b-2"
       id="linearGradient4428-5"
       gradientUnits="userSpaceOnUse"
       x1="31.586"
       y1="36.345001"
       x2="1.2029999"
       y2="6.723"
       gradientTransform="translate(20.841982,61.553822)" />
    <linearGradient
       xlink:href="#b-2"
       id="linearGradient4189-3-3"
       x1="14.369"
       y1="22.521999"
       x2="26.521999"
       y2="22.521999"
       gradientUnits="userSpaceOnUse"
       gradientTransform="translate(4.376802,4.4211693)" />
    <linearGradient
       xlink:href="#b-2"
       id="linearGradient4428-5-5"
       gradientUnits="userSpaceOnUse"
       x1="31.586"
       y1="36.345001"
       x2="1.2029999"
       y2="6.723"
       gradientTransform="translate(4.376802,4.4211693)" />
    <filter
       id="filter2917-3"
       x="-0.96181148"
       y="-0.66745996"
       width="2.9236228"
       height="2.3349199"
       color-interpolation-filters="sRGB">
      <feGaussianBlur
         stdDeviation="0.2871969"
         id="feGaussianBlur732-5" />
    </filter>
    <filter
       id="filter1"
       x="-0.96181148"
       y="-0.66745996"
       width="2.9236228"
       height="2.3349199"
       color-interpolation-filters="sRGB">
      <feGaussianBlur
         stdDeviation="0.2871969"
         id="feGaussianBlur1" />
    </filter>
    <filter
       id="filter2"
       x="-0.96181148"
       y="-0.66745996"
       width="2.9236228"
       height="2.3349199"
       color-interpolation-filters="sRGB">
      <feGaussianBlur
         stdDeviation="0.2871969"
         id="feGaussianBlur2" />
    </filter>
    <radialGradient
       inkscape:collect="always"
       xlink:href="#radialGradient1463"
       id="radialGradient42"
       gradientUnits="userSpaceOnUse"
       gradientTransform="matrix(-2.0906869,1.0888391,-0.88765608,-1.7543423,141.64969,-11.869553)"
       cx="58.459999"
       cy="10.178"
       r="7.2758999" />
    <radialGradient
       id="radialGradient1463"
       cx="58.459999"
       cy="10.178"
       r="7.2758999"
       gradientTransform="matrix(-1.2984,0.66652,-0.55127,-1.0739,84.6,2.8304)"
       gradientUnits="userSpaceOnUse">
      <stop
         stop-color="#fde34e"
         offset="0"
         id="stop1-3" />
      <stop
         stop-color="#f8a621"
         offset="1"
         id="stop2-6" />
    </radialGradient>
    <filter
       id="filter1153"
       x="-0.049345382"
       y="-0.096110024"
       width="1.0956647"
       height="1.2107543"
       color-interpolation-filters="sRGB">
      <feGaussianBlur
         stdDeviation="0.16041279"
         id="feGaussianBlur5" />
    </filter>
    <filter
       id="filter1119"
       x="-0.44953391"
       y="-0.56045073"
       width="1.8990678"
       height="2.1209016"
       color-interpolation-filters="sRGB">
      <feGaussianBlur
         stdDeviation="0.42050151"
         id="feGaussianBlur4" />
    </filter>
    <filter
       id="filter1-7"
       x="-0.44953391"
       y="-0.56045073"
       width="1.8990678"
       height="2.1209016"
       color-interpolation-filters="sRGB">
      <feGaussianBlur
         stdDeviation="0.42050151"
         id="feGaussianBlur1-5" />
    </filter>
    <filter
       id="filter2-3"
       x="-0.44953391"
       y="-0.56045073"
       width="1.8990678"
       height="2.1209016"
       color-interpolation-filters="sRGB">
      <feGaussianBlur
         stdDeviation="0.42050151"
         id="feGaussianBlur2-5" />
    </filter>
    <filter
       id="filter3"
       x="-0.44953391"
       y="-0.56045073"
       width="1.8990678"
       height="2.1209016"
       color-interpolation-filters="sRGB">
      <feGaussianBlur
         stdDeviation="0.42050151"
         id="feGaussianBlur3" />
    </filter>
    <linearGradient
       inkscape:collect="always"
       xlink:href="#linearGradient1473"
       id="linearGradient46"
       gradientUnits="userSpaceOnUse"
       gradientTransform="matrix(1.6102016,0,0,1.6336189,-65.412182,-3.5246095)"
       x1="85.563004"
       y1="10.399"
       x2="85.563004"
       y2="6.5914998" />
    <linearGradient
       id="linearGradient1473"
       x1="85.563004"
       x2="85.563004"
       y1="10.399"
       y2="6.5914998"
       gradientTransform="translate(-23.132,-0.44226)"
       gradientUnits="userSpaceOnUse">
      <stop
         stop-color="#fafafa"
         offset="0"
         id="stop3" />
      <stop
         stop-color="#e8f3f5"
         offset="1"
         id="stop4" />
    </linearGradient>
    <filter
       id="filter6"
       x="-0.44953391"
       y="-0.56045073"
       width="1.8990678"
       height="2.1209016"
       color-interpolation-filters="sRGB">
      <feGaussianBlur
         stdDeviation="0.42050151"
         id="feGaussianBlur6" />
    </filter>
    <filter
       id="filter7"
       x="-0.44953391"
       y="-0.56045073"
       width="1.8990678"
       height="2.1209016"
       color-interpolation-filters="sRGB">
      <feGaussianBlur
         stdDeviation="0.42050151"
         id="feGaussianBlur7" />
    </filter>
    <filter
       id="filter8"
       x="-0.44953391"
       y="-0.56045073"
       width="1.8990678"
       height="2.1209016"
       color-interpolation-filters="sRGB">
      <feGaussianBlur
         stdDeviation="0.42050151"
         id="feGaussianBlur8" />
    </filter>
    <filter
       id="filter9"
       x="-0.44953391"
       y="-0.56045073"
       width="1.8990678"
       height="2.1209016"
       color-interpolation-filters="sRGB">
      <feGaussianBlur
         stdDeviation="0.42050151"
         id="feGaussianBlur9" />
    </filter>
    <filter
       id="filter1204"
       x="-0.027791709"
       y="-0.051088832"
       width="1.0555834"
       height="1.1021777"
       color-interpolation-filters="sRGB">
      <feGaussianBlur
         stdDeviation="0.15487236"
         id="feGaussianBlur10" />
    </filter>
    <linearGradient
       inkscape:collect="always"
       xlink:href="#linearGradient1181"
       id="linearGradient47"
       gradientUnits="userSpaceOnUse"
       gradientTransform="matrix(-2.5909766,0,0,2.6286547,225.6056,25.851675)"
       x1="85.792999"
       y1="10.441"
       x2="85.792999"
       y2="6.5316" />
    <linearGradient
       id="linearGradient1181"
       x1="85.792999"
       x2="85.792999"
       y1="10.441"
       y2="6.5316"
       gradientTransform="matrix(-1.6091,0,0,1.6091,136.74,25.921)"
       gradientUnits="userSpaceOnUse">
      <stop
         stop-color="#fafafa"
         offset="0"
         id="stop5" />
      <stop
         stop-color="#e8f3f5"
         offset="1"
         id="stop6" />
    </linearGradient>
    <filter
       id="filter11"
       x="-0.44953391"
       y="-0.56045073"
       width="1.8990678"
       height="2.1209016"
       color-interpolation-filters="sRGB">
      <feGaussianBlur
         stdDeviation="0.42050151"
         id="feGaussianBlur11" />
    </filter>
    <filter
       id="filter1176"
       x="-0.4444901"
       y="-0.55416244"
       width="1.8889802"
       height="2.1083248"
       color-interpolation-filters="sRGB">
      <feGaussianBlur
         stdDeviation="0.41578343"
         id="feGaussianBlur12" />
    </filter>
    <filter
       id="filter1241"
       x="-0.44984475"
       y="-0.56083822"
       width="1.8996896"
       height="2.1216764"
       color-interpolation-filters="sRGB">
      <feGaussianBlur
         stdDeviation="0.42079226"
         id="feGaussianBlur13" />
    </filter>
    <filter
       id="filter14"
       x="-0.44953391"
       y="-0.56045073"
       width="1.8990678"
       height="2.1209016"
       color-interpolation-filters="sRGB">
      <feGaussianBlur
         stdDeviation="0.42050151"
         id="feGaussianBlur14" />
    </filter>
    <linearGradient
       inkscape:collect="always"
       xlink:href="#linearGradient928"
       id="linearGradient930"
       x1="-12.459554"
       y1="6.2880522"
       x2="0.01022926"
       y2="6.2880522"
       gradientUnits="userSpaceOnUse" />
  </defs>
  <sodipodi:namedview
     id="namedview14"
     pagecolor="#000000"
     bordercolor="#666666"
     borderopacity="1.0"
     inkscape:showpageshadow="2"
     inkscape:pageopacity="0.0"
     inkscape:pagecheckerboard="0"
     inkscape:deskcolor="#d1d1d1"
     showgrid="false"
     inkscape:zoom="10.83591"
     inkscape:cx="-0.26353043"
     inkscape:cy="35.169108"
     inkscape:window-width="1920"
     inkscape:window-height="988"
     inkscape:window-x="0"
     inkscape:window-y="0"
     inkscape:window-maximized="1"
     inkscape:current-layer="svg12"
     inkscape:document-rotation="0">
    <inkscape:grid
       type="xygrid"
       id="grid244"
       originx="9.9594769"
       originy="-31.57929"
       spacingy="1"
       spacingx="1"
       units="px"
       visible="false" />
  </sodipodi:namedview>
  <rect
     x="-12.194976"
     y="0.32004508"
     width="11.940627"
     height="11.936014"
     rx="1.6121091"
     shape-rendering="crispEdges"
     id="rect5-6-7-3"
     ry="1.7735944"
     transform="matrix(0.00523883,-0.99998628,0.999988,0.00489859,0,0)"
     style="stroke-opacity:1;stroke-dasharray:none;stroke-miterlimit:4;stroke-width:0.529156;stroke:url(#linearGradient930);fill-opacity:0.1;fill:#afc6e9" />
  <rect
     x="-3.7202365"
     y="4.8851409"
     width="7.912631"
     height="7.912384"
     rx="1.612043"
     shape-rendering="crispEdges"
     id="rect5-6-6-6-6"
     style="fill:#afc6e9;fill-opacity:0.1;stroke:#2a7fff;stroke-width:0.52915633;stroke-opacity:1;stroke-miterlimit:4;stroke-dasharray:none"
     ry="1.7735215"
     transform="matrix(0.72612649,-0.68756114,0.6879775,0.72573202,0,0)" />
  <g
     transform="matrix(0.33323424,0,0,0.32845768,5.6447363,-5.5245439)"
     id="g42"
     style="stroke-width:1.62184">
    <path
       d="m 10.174,34.327 c 0,0.87223 -0.15353,1.7085 -0.43508,2.4836 -0.19571,0.5387 -0.45318,1.048 -0.76442,1.5191 -0.13037,0.19807 -0.27054,0.38935 -0.41933,0.57317 -0.47634,0.5883 -1.0424,1.1006 -1.6779,1.5164 -0.23402,0.15324 -0.47725,0.29342 -0.72907,0.41902 -0.97788,0.48939 -2.0818,0.76468 -3.2501,0.76468 -1.1683,0 -2.2722,-0.27529 -3.2501,-0.7647 -0.25184,-0.12563 -0.49536,-0.2658 -0.72938,-0.41902 -0.64355,-0.42141 -1.2164,-0.94176 -1.6966,-1.5398 -0.14907,-0.18531 -0.28896,-0.37835 -0.41933,-0.5782 -0.30292,-0.46327 -0.55385,-0.96312 -0.74569,-1.4914 -0.28151,-0.77483 -0.43477,-1.6108 -0.43477,-2.4827 0,-4.0184 3.2575,-7.2759 7.2759,-7.2759 2.0171,0 3.8423,0.82084 5.1603,2.1465 0.37982,0.38189 0.7175,0.806 1.0049,1.2645 0.27174,0.43181 0.49891,0.89448 0.67561,1.3812 0.28158,0.77511 0.4351,1.6114 0.4351,2.4836 z"
       fill="url(#radialGradient1463)"
       stroke-width="0.0460969"
       id="path28"
       style="fill:url(#radialGradient42)" />
    <g
       transform="matrix(0.78148,0,0,0.80944,-42.188,23.658)"
       fill="#f8a621"
       filter="url(#filter1153)"
       id="g32"
       style="stroke-width:1.62184">
      <path
         d="m 59.813,10.093 c 0,0 -1.3725,-0.45807 -1.3229,-1.4421 0.04961,-0.984 0.69504,-1.4467 1.2212,-1.6506 0.52618,-0.20394 -0.04677,-0.73178 0.77173,-1.1757 0.8185,-0.44386 2.4204,-0.69579 3.1103,0.50385 0,0 0.25949,0.62297 0.5635,0.35904 0.30401,-0.26392 1.5412,-0.1671 1.6114,1.0205 0,0 -0.04677,0.39588 0.23386,0.39588 0.28063,0 1.6604,0.97171 -0.02338,1.9914 z"
         stroke-width="1.64284"
         id="path29" />
      <ellipse
         transform="matrix(0.7358,0,0,0.85243,2.199,-2.3215)"
         cx="78.598999"
         cy="12.829"
         rx="1.1224999"
         ry="0.90034997"
         filter="url(#filter1119)"
         opacity="0.8"
         style="stroke-width:1.62184;paint-order:stroke fill markers"
         id="ellipse29" />
      <ellipse
         transform="matrix(0.95332,0,0,0.86082,-13.337,-4.004)"
         cx="78.598999"
         cy="12.829"
         rx="1.1224999"
         ry="0.90034997"
         filter="url(#filter1119)"
         opacity="0.8"
         style="stroke-width:1.62184;paint-order:stroke fill markers"
         id="ellipse30" />
      <ellipse
         transform="matrix(0.65952,0,0,0.76405,12.536,-1.9679)"
         cx="78.598999"
         cy="12.829"
         rx="1.1224999"
         ry="0.90034997"
         filter="url(#filter1119)"
         opacity="0.8"
         style="stroke-width:1.62184;paint-order:stroke fill markers"
         id="ellipse31" />
      <ellipse
         transform="matrix(0.55851,0,0,0.64704,21.708,0.64118)"
         cx="78.598999"
         cy="12.829"
         rx="1.1224999"
         ry="0.90034997"
         filter="url(#filter1119)"
         opacity="0.8"
         style="stroke-width:1.62184;paint-order:stroke fill markers"
         id="ellipse32" />
    </g>
    <g
       transform="translate(-55.05,21.608)"
       id="g37"
       style="stroke-width:1.62184">
      <path
         d="m 59.813,9.9755 c 0,0 -1.3725,-0.44648 -1.3229,-1.4056 0.04961,-0.9591 0.69504,-1.4101 1.2212,-1.6088 0.52618,-0.19878 -0.04677,-0.71326 0.77173,-1.1459 0.8185,-0.43263 2.4204,-0.67818 3.1103,0.4911 0,0 0.25949,0.6072 0.5635,0.34995 0.30401,-0.25724 1.5412,-0.16287 1.6114,0.99472 0,0 -0.04677,0.38586 0.23386,0.38586 0.28063,0 1.6604,0.94712 -0.02338,1.941 z"
         fill="url(#linearGradient1473)"
         id="path32"
         style="fill:url(#linearGradient46);stroke-width:1.62184" />
      <g
         fill="#ffffff"
         id="g36"
         style="stroke-width:1.62184">
        <ellipse
           transform="matrix(0.7358,0,0,0.85243,2.199,-2.3215)"
           cx="78.598999"
           cy="12.829"
           rx="1.1224999"
           ry="0.90034997"
           filter="url(#filter1119)"
           opacity="0.8"
           style="stroke-width:1.62184;paint-order:stroke fill markers"
           id="ellipse33" />
        <ellipse
           transform="matrix(0.95332,0,0,0.86082,-13.337,-4.004)"
           cx="78.598999"
           cy="12.829"
           rx="1.1224999"
           ry="0.90034997"
           filter="url(#filter1119)"
           opacity="0.8"
           style="stroke-width:1.62184;paint-order:stroke fill markers"
           id="ellipse34" />
        <ellipse
           transform="matrix(0.65952,0,0,0.76405,12.536,-1.9679)"
           cx="78.598999"
           cy="12.829"
           rx="1.1224999"
           ry="0.90034997"
           filter="url(#filter1119)"
           opacity="0.8"
           style="stroke-width:1.62184;paint-order:stroke fill markers"
           id="ellipse35" />
        <ellipse
           transform="matrix(0.55851,0,0,0.64704,21.708,0.64118)"
           cx="78.598999"
           cy="12.829"
           rx="1.1224999"
           ry="0.90034997"
           filter="url(#filter1119)"
           opacity="0.8"
           style="stroke-width:1.62184;paint-order:stroke fill markers"
           id="ellipse36" />
      </g>
    </g>
    <path
       transform="matrix(0.788,0,0,0.92833,0.93452,2.5178)"
       d="m 3.2704,42.684 c 0,0 2.2085,-0.71842 2.1287,-2.2617 C 5.319273,38.879 4.2807,38.1534 3.434,37.8335 2.58733,37.51365 3.509258,36.6858 2.1922,35.9896 c -1.317,-0.69615 -3.8947,-1.0913 -5.0048,0.79023 0,0 -0.41755,0.97704 -0.90674,0.56311 -0.48919,-0.41393 -2.48,-0.26207 -2.5928,1.6006 0,0 0.075258,0.62089 -0.3763,0.62089 -0.45156,0 -2.6717,1.524 0.037621,3.1233 z"
       fill="#f8a621"
       filter="url(#filter1204)"
       id="path37"
       style="stroke-width:1.62184" />
    <path
       d="m 3.2704,42.684 c 0,0 2.2085,-0.71842 2.1287,-2.2617 C 5.319273,38.879 4.2807,38.1534 3.434,37.8335 2.58733,37.51365 3.509258,36.6858 2.1922,35.9896 c -1.317,-0.69615 -3.8947,-1.0913 -5.0048,0.79023 0,0 -0.41755,0.97704 -0.90674,0.56311 -0.48919,-0.41393 -2.48,-0.26207 -2.5928,1.6006 0,0 0.075258,0.62089 -0.3763,0.62089 -0.45156,0 -2.6717,1.524 0.037621,3.1233 z"
       fill="url(#linearGradient1181)"
       id="path38"
       style="fill:url(#linearGradient47);stroke-width:1.62184" />
    <g
       fill="#ffffff"
       id="g41"
       style="stroke-width:1.62184">
      <ellipse
         transform="matrix(-1.184,0,0,1.3716,95.977,22.897)"
         cx="78.598999"
         cy="12.829"
         rx="1.1224999"
         ry="0.90034997"
         filter="url(#filter1119)"
         opacity="0.8"
         style="stroke-width:1.62184;paint-order:stroke fill markers"
         id="ellipse38" />
      <ellipse
         transform="matrix(-1.534,0,0,1.3851,120.98,20.19)"
         cx="78.598999"
         cy="12.829"
         rx="1.1224999"
         ry="0.90034997"
         filter="url(#filter1176)"
         opacity="0.8"
         style="stroke-width:1.62184;paint-order:stroke fill markers"
         id="ellipse39" />
      <ellipse
         transform="matrix(-1.0612,0,0,1.2294,79.344,23.466)"
         cx="78.598999"
         cy="12.829"
         rx="1.1224999"
         ry="0.90034997"
         filter="url(#filter1241)"
         opacity="0.8"
         style="stroke-width:1.62184;paint-order:stroke fill markers"
         id="ellipse40" />
      <ellipse
         transform="matrix(-0.89871,0,0,1.0412,64.586,27.664)"
         cx="78.598999"
         cy="12.829"
         rx="1.1224999"
         ry="0.90034997"
         filter="url(#filter1119)"
         opacity="0.8"
         style="stroke-width:1.62184;paint-order:stroke fill markers"
         id="ellipse41" />
    </g>
  </g>
</svg>
