<?xml version="1.0" encoding="UTF-8" standalone="no"?>
<svg
   xmlns:dc="http://purl.org/dc/elements/1.1/"
   xmlns:cc="http://creativecommons.org/ns#"
   xmlns:rdf="http://www.w3.org/1999/02/22-rdf-syntax-ns#"
   xmlns:svg="http://www.w3.org/2000/svg"
   xmlns="http://www.w3.org/2000/svg"
   xmlns:xlink="http://www.w3.org/1999/xlink"
   xmlns:sodipodi="http://sodipodi.sourceforge.net/DTD/sodipodi-0.dtd"
   xmlns:inkscape="http://www.inkscape.org/namespaces/inkscape"
   width="47.285591"
   height="47.28569"
   version="1.1"
   viewBox="0 0 12.510734 12.51076"
   id="svg12"
   sodipodi:docname="pattern-mono.svg"
   inkscape:version="1.0.1 (3bc2e813f5, 2020-09-07)">
  <style
     id="style864"></style>
  <metadata
     id="metadata39">
    <rdf:RDF>
      <cc:Work
         rdf:about="">
        <dc:format>image/svg+xml</dc:format>
        <dc:type
           rdf:resource="http://purl.org/dc/dcmitype/StillImage" />
      </cc:Work>
    </rdf:RDF>
  </metadata>
  <defs
     id="defs16">
    <linearGradient
       id="linearGradient3"
       inkscape:collect="always">
      <stop
         style="stop-color:#c199ff;stop-opacity:1;"
         offset="0"
         id="stop2" />
      <stop
         style="stop-color:#b3efff;stop-opacity:1;"
         offset="1"
         id="stop3" />
    </linearGradient>
    <linearGradient
       id="c"
       y1="523.79999"
       x1="403.57001"
       y2="536.79999"
       x2="416.57001"
       gradientUnits="userSpaceOnUse"
       gradientTransform="matrix(0.34526714,0,0,0.34526706,-134.80427,-174.63325)">
      <stop
         stop-color="#292c2f"
         id="stop1568" />
      <stop
         offset="1"
         stop-opacity="0"
         id="stop1570" />
    </linearGradient>
    <linearGradient
       xlink:href="#b-2"
       id="linearGradient4189"
       x1="14.369"
       y1="22.521999"
       x2="26.521999"
       y2="22.521999"
       gradientUnits="userSpaceOnUse" />
    <linearGradient
       x1="36"
       gradientUnits="userSpaceOnUse"
       x2="14"
       y2="12"
       y1="44"
       id="b-2">
      <stop
         style="stop-color:#bfc9c9;stop-opacity:1"
         stop-color="#536161"
         id="stop1579" />
      <stop
         style="stop-color:#fbfbfb;stop-opacity:1"
         stop-color="#f4f5f5"
         offset="1"
         id="stop1581" />
    </linearGradient>
    <linearGradient
       xlink:href="#b-2"
       id="linearGradient4428"
       gradientUnits="userSpaceOnUse"
       x1="31.586"
       y1="36.345001"
       x2="1.2029999"
       y2="6.723" />
    <linearGradient
       xlink:href="#b-2"
       id="linearGradient4189-3"
       x1="14.369"
       y1="22.521999"
       x2="26.521999"
       y2="22.521999"
       gradientUnits="userSpaceOnUse"
       gradientTransform="translate(20.841982,61.553822)" />
    <linearGradient
       xlink:href="#b-2"
       id="linearGradient4428-5"
       gradientUnits="userSpaceOnUse"
       x1="31.586"
       y1="36.345001"
       x2="1.2029999"
       y2="6.723"
       gradientTransform="translate(20.841982,61.553822)" />
    <linearGradient
       xlink:href="#b-2"
       id="linearGradient4189-3-3"
       x1="14.369"
       y1="22.521999"
       x2="26.521999"
       y2="22.521999"
       gradientUnits="userSpaceOnUse"
       gradientTransform="translate(4.376802,4.4211693)" />
    <linearGradient
       xlink:href="#b-2"
       id="linearGradient4428-5-5"
       gradientUnits="userSpaceOnUse"
       x1="31.586"
       y1="36.345001"
       x2="1.2029999"
       y2="6.723"
       gradientTransform="translate(4.376802,4.4211693)" />
    <linearGradient
       inkscape:collect="always"
       xlink:href="#linearGradient14"
       id="linearGradient15"
       x1="-9.6850061"
       y1="45.161198"
       x2="11.98815"
       y2="21.735205"
       gradientUnits="userSpaceOnUse"
       gradientTransform="scale(0.26457813)" />
    <linearGradient
       id="linearGradient14"
       inkscape:collect="always">
      <stop
         style="stop-color:#9955ff;stop-opacity:0.45197046;"
         offset="0"
         id="stop12" />
      <stop
         style="stop-color:#00ccff;stop-opacity:1"
         offset="1"
         id="stop13" />
    </linearGradient>
    <linearGradient
       id="g"
       gradientUnits="userSpaceOnUse"
       x1="6"
       x2="6"
       y1="26"
       y2="6"
       gradientTransform="translate(-33.633557,-34.7247)">
      <stop
         offset="0"
         stop-color="#7f8c8d"
         id="stop4638" />
      <stop
         offset="1"
         stop-color="#fcfcfc"
         id="stop4640" />
    </linearGradient>
    <linearGradient
       id="b"
       gradientTransform="matrix(-1.0574466,-0.28334198,0.28334198,-1.0574466,15.741055,-0.892988)"
       gradientUnits="userSpaceOnUse"
       x1="-1.7690001"
       x2="-8.75"
       y1="1.988"
       y2="14.078">
      <stop
         offset="0"
         stop-color="#babec3"
         id="stop7170" />
      <stop
         offset="1"
         stop-color="#eff0f1"
         id="stop7172" />
    </linearGradient>
    <linearGradient
       inkscape:collect="always"
       xlink:href="#linearGradient3"
       id="linearGradient2"
       x1="3.4395156"
       y1="5.8207188"
       x2="8.7310781"
       y2="5.8207188"
       gradientUnits="userSpaceOnUse" />
    <linearGradient
       inkscape:collect="always"
       xlink:href="#linearGradient14"
       id="linearGradient872"
       x1="-12.025727"
       y1="6.1170783"
       x2="-0.085100174"
       y2="6.1170783"
       gradientUnits="userSpaceOnUse" />
  </defs>
  <sodipodi:namedview
     id="namedview14"
     pagecolor="#000000"
     bordercolor="#666666"
     borderopacity="1.0"
     inkscape:showpageshadow="2"
     inkscape:pageopacity="0.0"
     inkscape:pagecheckerboard="0"
     inkscape:deskcolor="#d1d1d1"
     showgrid="false"
     inkscape:zoom="6.2611141"
     inkscape:cx="23.845543"
     inkscape:cy="54.335026"
     inkscape:window-width="1920"
     inkscape:window-height="988"
     inkscape:window-x="0"
     inkscape:window-y="0"
     inkscape:window-maximized="1"
     inkscape:current-layer="svg12"
     inkscape:document-rotation="0">
    <inkscape:grid
       type="xygrid"
       id="grid244"
       originx="9.9594769"
       originy="-31.57929"
       spacingy="1"
       spacingx="1"
       units="px"
       visible="false" />
  </sodipodi:namedview>
  <rect
     x="-12.194976"
     y="0.32004508"
     width="11.940627"
     height="11.936014"
     rx="1.6121091"
     shape-rendering="crispEdges"
     id="rect5-6-7-3"
     ry="1.7735944"
     transform="matrix(0.00523883,-0.99998628,0.999988,0.00489859,0,0)"
     style="fill:#80b3ff;fill-opacity:0.15;stroke:url(#linearGradient872);stroke-width:0.5291563;stroke-miterlimit:4;stroke-dasharray:none;stroke-opacity:1" />
  <rect
     x="-3.7202365"
     y="4.8851409"
     width="7.912631"
     height="7.912384"
     rx="1.612043"
     shape-rendering="crispEdges"
     id="rect5-6-6-6-6"
     style="fill:#80b3ff;fill-opacity:0.122146;stroke:url(#linearGradient15);stroke-width:0.42332506;stroke-opacity:1;stroke-miterlimit:4;stroke-dasharray:none"
     ry="1.7735215"
     transform="matrix(0.72612649,-0.68756114,0.6879775,0.72573202,0,0)" />
  <path
     d="m 6.4405052,3.0804707 a 2.3488763,2.3308039 0 0 0 -0.2320634,0.010285 c -0.231586,0.024063 -0.4695386,0.080208 -0.5437498,0.1278847 -0.021228,0.013575 0.128638,0.05166 0.3859014,0.098654 0.230884,0.042115 0.399333,0.080639 0.3741243,0.08535 -0.025192,0.00504 -0.388258,-0.034347 -0.806675,-0.08766 C 4.8834626,3.2214608 4.8551906,3.21983 4.804065,3.2658683 4.6975738,3.3617203 4.5439693,3.623552 4.512399,3.7633604 4.4817624,3.8989507 4.4841429,3.9148453 4.5519779,4.0530124 4.6678868,4.2881967 4.8839292,4.4595577 5.3746737,4.7059634 5.6067346,4.8223846 5.7911995,4.9233772 5.784138,4.9301606 5.7773236,4.9369406 5.5791687,4.8630696 5.3438112,4.7665082 L 4.9164413,4.5911597 3.6096007,4.9483805 v 3.4852178 c 0,0.2590307 0.2101506,0.4675641 0.4711915,0.4675641 h 0.060314 C 4.4860129,8.4693712 5.5513711,7.199234 5.5749278,7.2043783 5.5914594,7.2079421 6.206323,7.4673777 6.9413776,7.7806444 8.1970971,8.3160092 8.2807314,8.3473391 8.3146547,8.301984 8.3660183,8.2337104 8.5427146,7.8671451 8.6362462,7.6345381 L 8.7154081,7.4372184 8.5818259,7.3647651 C 8.392404,7.2618882 8.1144032,7.0327829 7.9405326,6.8359433 7.7817413,6.656396 7.4952631,6.2234298 7.4952631,6.1628828 c 0,-0.020144 0.090937,0.071356 0.202373,0.202692 0.3123995,0.3696095 1.0323767,0.9479842 1.0776075,0.8656921 0.053718,-0.097492 0.088117,-0.3857422 0.086466,-0.720047 C 8.8594129,6.1035012 8.8058769,5.7860248 8.6642828,5.3479187 L 8.5851235,5.1022088 8.1930925,4.9799486 7.7131903,4.8300891 C 7.5437942,4.7772431 7.6493391,4.7800661 7.8971815,4.8351391 8.193566,4.9007921 8.4948898,4.9562329 8.6812446,4.979615 8.8454508,4.999968 8.8814968,4.967958 8.8989337,4.7867642 8.9213268,4.5556796 8.7712393,3.9174557 8.6197531,3.5995078 8.5592025,3.472779 8.5318776,3.4454218 8.4107795,3.3904888 8.0578634,3.2300934 7.0466899,3.0785978 6.4405052,3.0804765 Z"
     id="path7182-7-1"
     style="fill:url(#linearGradient2);fill-opacity:1;fill-rule:evenodd;stroke-width:0.286884" />
</svg>
