<?xml version="1.0" encoding="UTF-8" standalone="no"?>
<svg
   xmlns:dc="http://purl.org/dc/elements/1.1/"
   xmlns:cc="http://creativecommons.org/ns#"
   xmlns:rdf="http://www.w3.org/1999/02/22-rdf-syntax-ns#"
   xmlns:svg="http://www.w3.org/2000/svg"
   xmlns="http://www.w3.org/2000/svg"
   xmlns:xlink="http://www.w3.org/1999/xlink"
   xmlns:sodipodi="http://sodipodi.sourceforge.net/DTD/sodipodi-0.dtd"
   xmlns:inkscape="http://www.inkscape.org/namespaces/inkscape"
   width="47.285591"
   height="47.28569"
   version="1.1"
   viewBox="0 0 12.510734 12.51076"
   id="svg12"
   sodipodi:docname="pattern-xfce.svg"
   inkscape:version="1.0.1 (3bc2e813f5, 2020-09-07)">
  <style
     id="style888"></style>
  <metadata
     id="metadata63">
    <rdf:RDF>
      <cc:Work
         rdf:about="">
        <dc:format>image/svg+xml</dc:format>
        <dc:type
           rdf:resource="http://purl.org/dc/dcmitype/StillImage" />
      </cc:Work>
    </rdf:RDF>
  </metadata>
  <defs
     id="defs16">
    <linearGradient
       id="c"
       y1="523.79999"
       x1="403.57001"
       y2="536.79999"
       x2="416.57001"
       gradientUnits="userSpaceOnUse"
       gradientTransform="matrix(0.34526714,0,0,0.34526706,-134.80427,-174.63325)">
      <stop
         stop-color="#292c2f"
         id="stop1568" />
      <stop
         offset="1"
         stop-opacity="0"
         id="stop1570" />
    </linearGradient>
    <linearGradient
       xlink:href="#b-2"
       id="linearGradient4189"
       x1="14.369"
       y1="22.521999"
       x2="26.521999"
       y2="22.521999"
       gradientUnits="userSpaceOnUse" />
    <linearGradient
       x1="36"
       gradientUnits="userSpaceOnUse"
       x2="14"
       y2="12"
       y1="44"
       id="b-2">
      <stop
         style="stop-color:#bfc9c9;stop-opacity:1"
         stop-color="#536161"
         id="stop1579" />
      <stop
         style="stop-color:#fbfbfb;stop-opacity:1"
         stop-color="#f4f5f5"
         offset="1"
         id="stop1581" />
    </linearGradient>
    <linearGradient
       xlink:href="#b-2"
       id="linearGradient4428"
       gradientUnits="userSpaceOnUse"
       x1="31.586"
       y1="36.345001"
       x2="1.2029999"
       y2="6.723" />
    <linearGradient
       xlink:href="#b-2"
       id="linearGradient4189-3"
       x1="14.369"
       y1="22.521999"
       x2="26.521999"
       y2="22.521999"
       gradientUnits="userSpaceOnUse"
       gradientTransform="translate(20.841982,61.553822)" />
    <linearGradient
       xlink:href="#b-2"
       id="linearGradient4428-5"
       gradientUnits="userSpaceOnUse"
       x1="31.586"
       y1="36.345001"
       x2="1.2029999"
       y2="6.723"
       gradientTransform="translate(20.841982,61.553822)" />
    <linearGradient
       xlink:href="#b-2"
       id="linearGradient4189-3-3"
       x1="14.369"
       y1="22.521999"
       x2="26.521999"
       y2="22.521999"
       gradientUnits="userSpaceOnUse"
       gradientTransform="translate(4.376802,4.4211693)" />
    <linearGradient
       xlink:href="#b-2"
       id="linearGradient4428-5-5"
       gradientUnits="userSpaceOnUse"
       x1="31.586"
       y1="36.345001"
       x2="1.2029999"
       y2="6.723"
       gradientTransform="translate(4.376802,4.4211693)" />
    <linearGradient
       inkscape:collect="always"
       xlink:href="#linearGradient14"
       id="linearGradient15"
       x1="-9.6850061"
       y1="45.161198"
       x2="11.98815"
       y2="21.735205"
       gradientUnits="userSpaceOnUse"
       gradientTransform="scale(0.26457813)" />
    <linearGradient
       id="linearGradient14"
       inkscape:collect="always">
      <stop
         style="stop-color:#80b3ff;stop-opacity:1"
         offset="0"
         id="stop12" />
      <stop
         style="stop-color:#00ccff;stop-opacity:1"
         offset="1"
         id="stop13" />
    </linearGradient>
    <filter
       id="filter2917-3"
       x="-0.96181148"
       y="-0.66745996"
       width="2.9236228"
       height="2.3349199"
       color-interpolation-filters="sRGB">
      <feGaussianBlur
         stdDeviation="0.2871969"
         id="feGaussianBlur732-5" />
    </filter>
    <filter
       id="filter1"
       x="-0.96181148"
       y="-0.66745996"
       width="2.9236228"
       height="2.3349199"
       color-interpolation-filters="sRGB">
      <feGaussianBlur
         stdDeviation="0.2871969"
         id="feGaussianBlur1" />
    </filter>
    <filter
       id="filter2"
       x="-0.96181148"
       y="-0.66745996"
       width="2.9236228"
       height="2.3349199"
       color-interpolation-filters="sRGB">
      <feGaussianBlur
         stdDeviation="0.2871969"
         id="feGaussianBlur2" />
    </filter>
    <linearGradient
       id="l"
       x1="27.447001"
       x2="25.966"
       y1="289.76001"
       y2="289.76001"
       gradientTransform="matrix(0.94283,0,0,0.9628,-16.618,11.67)"
       gradientUnits="userSpaceOnUse">
      <stop
         stop-color="#1881ce"
         offset="0"
         id="stop19" />
      <stop
         stop-color="#2980b9"
         offset="1"
         id="stop21" />
    </linearGradient>
    <linearGradient
       id="j"
       x1="10.692"
       x2="34.026001"
       y1="14.134"
       y2="29.068001"
       gradientTransform="matrix(0.24946,0,0,0.25474,0.77251,285.56)"
       gradientUnits="userSpaceOnUse">
      <stop
         stop-color="#349cd2"
         offset="0"
         id="stop7" />
      <stop
         stop-color="#2694d9"
         offset=".74017"
         id="stop9" />
      <stop
         stop-color="#0e6daa"
         offset="1"
         id="stop11-3" />
    </linearGradient>
    <linearGradient
       id="k"
       x1="21.274"
       x2="27.447001"
       y1="291.29999"
       y2="287.35001"
       gradientTransform="matrix(0.94283,0,0,0.9628,-16.618,11.67)"
       gradientUnits="userSpaceOnUse">
      <stop
         stop-color="#1d99f3"
         offset="0"
         id="stop14" />
      <stop
         stop-color="#3daee9"
         offset="1"
         id="stop16" />
    </linearGradient>
    <linearGradient
       inkscape:collect="always"
       xlink:href="#a"
       id="linearGradient923"
       gradientUnits="userSpaceOnUse"
       gradientTransform="matrix(1.9435187,0,0,1.9459197,2.9166839,2.9048307)"
       x1="14"
       y1="6.4559999"
       x2="20.740999"
       y2="13.197" />
    <linearGradient
       id="a">
      <stop
         offset="0"
         stop-color="#292c2f"
         id="stop2" />
      <stop
         offset="1"
         stop-opacity="0"
         id="stop4" />
    </linearGradient>
    <linearGradient
       inkscape:collect="always"
       xlink:href="#a"
       id="linearGradient925"
       gradientUnits="userSpaceOnUse"
       gradientTransform="matrix(1.9435187,0,0,1.9459197,2.9166839,2.9048307)"
       x1="8.6680002"
       y1="8.3280001"
       x2="12.782"
       y2="12.442" />
    <linearGradient
       inkscape:collect="always"
       xlink:href="#h"
       id="linearGradient929"
       gradientUnits="userSpaceOnUse"
       gradientTransform="matrix(1.9435187,0,0,1.9459197,2.9166839,2.9048307)"
       x1="4"
       y1="26"
       x2="4"
       y2="6" />
    <linearGradient
       id="h"
       gradientUnits="userSpaceOnUse"
       x1="4"
       x2="4"
       y1="26"
       y2="6"
       gradientTransform="translate(50.19662,-25.416805)">
      <stop
         offset="0"
         stop-color="#eff0f1"
         id="stop19-3" />
      <stop
         offset="1"
         stop-color="#fcfcfc"
         id="stop21-6" />
    </linearGradient>
    <linearGradient
       inkscape:collect="always"
       xlink:href="#b"
       id="linearGradient931"
       gradientUnits="userSpaceOnUse"
       gradientTransform="matrix(1.9056008,0,0,1.907955,65.169513,2.6324036)"
       x1="-12.271"
       y1="24.620001"
       x2="-12.271"
       y2="20.540001" />
    <linearGradient
       id="b"
       gradientTransform="matrix(0.98049,0,0,0.98049,32.031,-0.14)"
       gradientUnits="userSpaceOnUse"
       x1="-17.370001"
       x2="-17.370001"
       y1="24.620001"
       y2="20.540001">
      <stop
         offset="0"
         stop-color="#172525"
         id="stop24" />
      <stop
         offset="1"
         stop-color="#292c2f"
         id="stop26" />
    </linearGradient>
    <linearGradient
       inkscape:collect="always"
       xlink:href="#linearGradient14"
       id="linearGradient896"
       x1="-12.025727"
       y1="6.1170783"
       x2="-0.085100174"
       y2="6.1170783"
       gradientUnits="userSpaceOnUse" />
  </defs>
  <sodipodi:namedview
     id="namedview14"
     pagecolor="#000000"
     bordercolor="#666666"
     borderopacity="1.0"
     inkscape:showpageshadow="2"
     inkscape:pageopacity="0.0"
     inkscape:pagecheckerboard="0"
     inkscape:deskcolor="#d1d1d1"
     showgrid="false"
     inkscape:zoom="6.2611141"
     inkscape:cx="23.845543"
     inkscape:cy="54.335026"
     inkscape:window-width="1920"
     inkscape:window-height="988"
     inkscape:window-x="0"
     inkscape:window-y="0"
     inkscape:window-maximized="1"
     inkscape:current-layer="svg12"
     inkscape:document-rotation="0">
    <inkscape:grid
       type="xygrid"
       id="grid244"
       originx="9.9594769"
       originy="-31.57929"
       spacingy="1"
       spacingx="1"
       units="px"
       visible="false" />
  </sodipodi:namedview>
  <rect
     x="-12.194976"
     y="0.32004508"
     width="11.940627"
     height="11.936014"
     rx="1.6121091"
     shape-rendering="crispEdges"
     id="rect5-6-7-3"
     ry="1.7735944"
     transform="matrix(0.00523883,-0.99998628,0.999988,0.00489859,0,0)"
     style="fill:#80b3ff;fill-opacity:0.15;stroke:url(#linearGradient896);stroke-width:0.5291563;stroke-miterlimit:4;stroke-dasharray:none;stroke-opacity:1" />
  <rect
     x="-3.7202365"
     y="4.8851409"
     width="7.912631"
     height="7.912384"
     rx="1.612043"
     shape-rendering="crispEdges"
     id="rect5-6-6-6-6"
     style="fill:#80b3ff;fill-opacity:0.122146;stroke:url(#linearGradient15);stroke-width:0.42332506;stroke-opacity:1;stroke-miterlimit:4;stroke-dasharray:none"
     ry="1.7735215"
     transform="matrix(0.72612649,-0.68756114,0.6879775,0.72573202,0,0)" />
  <g
     id="g1"
     transform="matrix(0.18990627,0,0,0.18967195,0.91543591,0.79364979)"
     style="stroke-width:1.39411">
    <path
       d="m 25.083483,14.088224 10.52388,10.523878 h -10.52388 z"
       fill="url(#e)"
       opacity="0.2"
       id="path35-9-9"
       style="fill:url(#linearGradient923);stroke-width:1.94474" />
    <path
       d="m 17.645343,16.699664 4.64814,4.648135 v 1.869302 h -4.185 z"
       fill="url(#f)"
       opacity="0.2"
       id="path37-1-3"
       style="fill:url(#linearGradient925);stroke-width:1.94474" />
    <path
       d="m 23.535033,13.452104 c -0.45617,0.0111 -0.81189,0.149265 -0.93884,0.149265 -2.90997,0.408735 -2.03949,4.490505 -0.80491,8.316982 0.10455,0.979295 -0.91233,0.569163 -1.57635,-0.456162 -2.2334,-5.473975 -3.22245,-5.29681 -3.84602,-5.457235 -0.59706,-0.124155 -2.67282,0.96813 -2.62678,3.1806 0.009,0.637516 0.79933,3.633972 0.80631,4.56444 -2.6226,4.503055 -3.68978,8.958681 -0.40455,13.567762 3.31452,4.390061 13.17717,4.536537 14.94045,3.501453 0.67378,-0.471511 10.73871,-5.430733 13.05859,-7.354441 3.45821,-2.859744 -0.0892,-6.461643 -0.92488,-6.96384 -7.16333,-4.685807 -14.48568,-3.710699 -14.58333,-4.45284 -0.0503,-0.859319 -0.0195,-3.246159 -0.1437,-4.094319 -0.48684,-3.946455 -1.95719,-4.523985 -2.95599,-4.501665 z"
       fill="url(#h)"
       fill-rule="evenodd"
       id="path41-7-0"
       style="fill:url(#linearGradient929);stroke-width:1.94474" />
    <path
       d="m 39.602623,18.320654 a 0.21901498,0.21901498 0 0 0 -0.1353,0.0111 c -0.0697,0.03069 -0.0921,0.06417 -0.1116,0.09207 a 0.80491482,0.80491483 0 0 0 -0.0907,0.188325 c -0.0558,0.14787 -0.11445,0.355725 -0.17995,0.6138 a 26.839795,26.839795 0 0 0 -0.39756,1.941835 c -0.1227,0.722607 -0.2232,1.46196 -0.25947,2.043677 a 4.6634836,4.6634838 0 0 0 0,0.740748 1.1034447,1.1034448 0 0 0 0.0558,0.26784 c 0.0279,0.07533 0.0753,0.153447 0.166,0.203667 0.0419,0.0279 0.0963,0.05022 0.15206,0.04606 a 0.27341994,0.27341994 0 0 0 0.14925,-0.05998 0.53707487,0.53707488 0 0 0 0.1479,-0.19809 c 0.0753,-0.152057 0.1395,-0.357122 0.20646,-0.613799 0.13395,-0.511966 0.26224,-1.219233 0.36268,-1.944636 0.1005,-0.725398 0.17577,-1.470327 0.19949,-2.060407 a 5.9859438,5.9859439 0 0 0 -0.009,-0.749117 1.4591694,1.4591695 0 0 0 -0.0447,-0.26505 0.38222993,0.38222994 0 0 0 -0.12555,-0.20367 0.19529994,0.19529994 0 0 0 -0.0865,-0.0544 z m 3.80697,0.730978 a 0.35711988,0.3571199 0 0 0 -0.1479,0.0279 0.83002476,0.83002478 0 0 0 -0.22599,0.146475 4.1319888,4.1319889 0 0 0 -0.50361,0.549629 c -0.37386,0.468723 -0.81745,1.124365 -1.22341,1.809313 -0.40595,0.684942 -0.77562,1.396395 -1.00022,1.986482 -0.1116,0.294346 -0.18972,0.558003 -0.21483,0.783988 -0.025,0.227385 -0.004,0.45198 0.17717,0.5859 0.099,0.07533 0.23436,0.05443 0.31248,0.01395 a 0.7993348,0.79933482 0 0 0 0.20925,-0.166005 c 0.13665,-0.1395 0.28597,-0.341776 0.45058,-0.591475 0.32924,-0.498015 0.71844,-1.184358 1.0881,-1.887441 0.36689,-0.704471 0.71565,-1.422899 0.96117,-1.980894 0.1227,-0.279002 0.21761,-0.518942 0.27899,-0.700293 0.0321,-0.09069 0.0558,-0.1674 0.0697,-0.234359 a 0.46034985,0.46034987 0 0 0 0.012,-0.10323 c -10e-4,-0.03906 0,-0.10044 -0.0697,-0.170188 l -0.005,-0.0042 -0.009,-0.0057 a 0.26923496,0.26923496 0 0 0 -0.16041,-0.06006 z"
       id="path43-0-6"
       style="fill:#ffffff;fill-opacity:1;stroke-width:1.94474" />
    <path
       d="m 29.484703,38.376561 c -0.45477,-0.274816 3.08853,-4.405407 3.95762,-3.95761 1.26945,1.26108 -4.0176,4.056655 -3.95762,3.95761 z m -2.46496,-2.837425 c -0.0808,-0.284582 5.0778,-3.4052 5.82412,-2.68817 1.34478,0.488252 -5.7753,3.050871 -5.82412,2.68817 z"
       fill="url(#k)"
       id="path47-9-2"
       style="fill:url(#linearGradient931);stroke-width:1.94474" />
  </g>
</svg>
