<?xml version="1.0" encoding="UTF-8" standalone="no"?>
<svg
   xmlns:dc="http://purl.org/dc/elements/1.1/"
   xmlns:cc="http://creativecommons.org/ns#"
   xmlns:rdf="http://www.w3.org/1999/02/22-rdf-syntax-ns#"
   xmlns:svg="http://www.w3.org/2000/svg"
   xmlns="http://www.w3.org/2000/svg"
   xmlns:xlink="http://www.w3.org/1999/xlink"
   xmlns:sodipodi="http://sodipodi.sourceforge.net/DTD/sodipodi-0.dtd"
   xmlns:inkscape="http://www.inkscape.org/namespaces/inkscape"
   width="47.285591"
   height="47.28569"
   version="1.1"
   viewBox="0 0 12.510734 12.51076"
   id="svg12"
   sodipodi:docname="pattern-elementary.svg"
   inkscape:version="1.0.1 (3bc2e813f5, 2020-09-07)">
  <style
     id="style873"></style>
  <metadata
     id="metadata48">
    <rdf:RDF>
      <cc:Work
         rdf:about="">
        <dc:format>image/svg+xml</dc:format>
        <dc:type
           rdf:resource="http://purl.org/dc/dcmitype/StillImage" />
      </cc:Work>
    </rdf:RDF>
  </metadata>
  <defs
     id="defs16">
    <linearGradient
       id="c"
       y1="523.79999"
       x1="403.57001"
       y2="536.79999"
       x2="416.57001"
       gradientUnits="userSpaceOnUse"
       gradientTransform="matrix(0.34526714,0,0,0.34526706,-134.80427,-174.63325)">
      <stop
         stop-color="#292c2f"
         id="stop1568" />
      <stop
         offset="1"
         stop-opacity="0"
         id="stop1570" />
    </linearGradient>
    <linearGradient
       xlink:href="#b-2"
       id="linearGradient4189"
       x1="14.369"
       y1="22.521999"
       x2="26.521999"
       y2="22.521999"
       gradientUnits="userSpaceOnUse" />
    <linearGradient
       x1="36"
       gradientUnits="userSpaceOnUse"
       x2="14"
       y2="12"
       y1="44"
       id="b-2">
      <stop
         style="stop-color:#bfc9c9;stop-opacity:1"
         stop-color="#536161"
         id="stop1579" />
      <stop
         style="stop-color:#fbfbfb;stop-opacity:1"
         stop-color="#f4f5f5"
         offset="1"
         id="stop1581" />
    </linearGradient>
    <linearGradient
       xlink:href="#b-2"
       id="linearGradient4428"
       gradientUnits="userSpaceOnUse"
       x1="31.586"
       y1="36.345001"
       x2="1.2029999"
       y2="6.723" />
    <linearGradient
       xlink:href="#b-2"
       id="linearGradient4189-3"
       x1="14.369"
       y1="22.521999"
       x2="26.521999"
       y2="22.521999"
       gradientUnits="userSpaceOnUse"
       gradientTransform="translate(20.841982,61.553822)" />
    <linearGradient
       xlink:href="#b-2"
       id="linearGradient4428-5"
       gradientUnits="userSpaceOnUse"
       x1="31.586"
       y1="36.345001"
       x2="1.2029999"
       y2="6.723"
       gradientTransform="translate(20.841982,61.553822)" />
    <linearGradient
       xlink:href="#b-2"
       id="linearGradient4189-3-3"
       x1="14.369"
       y1="22.521999"
       x2="26.521999"
       y2="22.521999"
       gradientUnits="userSpaceOnUse"
       gradientTransform="translate(4.376802,4.4211693)" />
    <linearGradient
       xlink:href="#b-2"
       id="linearGradient4428-5-5"
       gradientUnits="userSpaceOnUse"
       x1="31.586"
       y1="36.345001"
       x2="1.2029999"
       y2="6.723"
       gradientTransform="translate(4.376802,4.4211693)" />
    <linearGradient
       inkscape:collect="always"
       xlink:href="#linearGradient14"
       id="linearGradient15"
       x1="-9.6850061"
       y1="45.161198"
       x2="11.98815"
       y2="21.735205"
       gradientUnits="userSpaceOnUse"
       gradientTransform="scale(0.26457813)" />
    <linearGradient
       id="linearGradient14"
       inkscape:collect="always">
      <stop
         style="stop-color:#80b3ff;stop-opacity:1"
         offset="0"
         id="stop12" />
      <stop
         style="stop-color:#00ccff;stop-opacity:1"
         offset="1"
         id="stop13" />
    </linearGradient>
    <filter
       id="filter2917-3"
       x="-0.96181148"
       y="-0.66745996"
       width="2.9236228"
       height="2.3349199"
       color-interpolation-filters="sRGB">
      <feGaussianBlur
         stdDeviation="0.2871969"
         id="feGaussianBlur732-5" />
    </filter>
    <filter
       id="filter1"
       x="-0.96181148"
       y="-0.66745996"
       width="2.9236228"
       height="2.3349199"
       color-interpolation-filters="sRGB">
      <feGaussianBlur
         stdDeviation="0.2871969"
         id="feGaussianBlur1" />
    </filter>
    <filter
       id="filter2"
       x="-0.96181148"
       y="-0.66745996"
       width="2.9236228"
       height="2.3349199"
       color-interpolation-filters="sRGB">
      <feGaussianBlur
         stdDeviation="0.2871969"
         id="feGaussianBlur2" />
    </filter>
    <linearGradient
       id="l"
       x1="27.447001"
       x2="25.966"
       y1="289.76001"
       y2="289.76001"
       gradientTransform="matrix(0.94283,0,0,0.9628,-16.618,11.67)"
       gradientUnits="userSpaceOnUse">
      <stop
         stop-color="#1881ce"
         offset="0"
         id="stop19" />
      <stop
         stop-color="#2980b9"
         offset="1"
         id="stop21" />
    </linearGradient>
    <linearGradient
       id="j"
       x1="10.692"
       x2="34.026001"
       y1="14.134"
       y2="29.068001"
       gradientTransform="matrix(0.24946,0,0,0.25474,0.77251,285.56)"
       gradientUnits="userSpaceOnUse">
      <stop
         stop-color="#349cd2"
         offset="0"
         id="stop7" />
      <stop
         stop-color="#2694d9"
         offset=".74017"
         id="stop9" />
      <stop
         stop-color="#0e6daa"
         offset="1"
         id="stop11-3" />
    </linearGradient>
    <linearGradient
       id="k"
       x1="21.274"
       x2="27.447001"
       y1="291.29999"
       y2="287.35001"
       gradientTransform="matrix(0.94283,0,0,0.9628,-16.618,11.67)"
       gradientUnits="userSpaceOnUse">
      <stop
         stop-color="#1d99f3"
         offset="0"
         id="stop14" />
      <stop
         stop-color="#3daee9"
         offset="1"
         id="stop16" />
    </linearGradient>
    <linearGradient
       inkscape:collect="always"
       xlink:href="#linearGradient14"
       id="linearGradient881"
       x1="-12.025727"
       y1="6.1170783"
       x2="-0.085100174"
       y2="6.1170783"
       gradientUnits="userSpaceOnUse" />
  </defs>
  <sodipodi:namedview
     id="namedview14"
     pagecolor="#000000"
     bordercolor="#666666"
     borderopacity="1.0"
     inkscape:showpageshadow="2"
     inkscape:pageopacity="0.0"
     inkscape:pagecheckerboard="0"
     inkscape:deskcolor="#d1d1d1"
     showgrid="false"
     inkscape:zoom="6.2611141"
     inkscape:cx="23.845543"
     inkscape:cy="54.335026"
     inkscape:window-width="1920"
     inkscape:window-height="988"
     inkscape:window-x="0"
     inkscape:window-y="0"
     inkscape:window-maximized="1"
     inkscape:current-layer="svg12"
     inkscape:document-rotation="0">
    <inkscape:grid
       type="xygrid"
       id="grid244"
       originx="9.9594769"
       originy="-31.57929"
       spacingy="1"
       spacingx="1"
       units="px"
       visible="false" />
  </sodipodi:namedview>
  <rect
     x="-12.194976"
     y="0.32004508"
     width="11.940627"
     height="11.936014"
     rx="1.6121091"
     shape-rendering="crispEdges"
     id="rect5-6-7-3"
     ry="1.7735944"
     transform="matrix(0.00523883,-0.99998628,0.999988,0.00489859,0,0)"
     style="fill:#80b3ff;fill-opacity:0.15;stroke:url(#linearGradient881);stroke-width:0.5291563;stroke-miterlimit:4;stroke-dasharray:none;stroke-opacity:1" />
  <rect
     x="-3.7202365"
     y="4.8851409"
     width="7.912631"
     height="7.912384"
     rx="1.612043"
     shape-rendering="crispEdges"
     id="rect5-6-6-6-6"
     style="fill:#80b3ff;fill-opacity:0.122146;stroke:url(#linearGradient15);stroke-width:0.42332506;stroke-opacity:1;stroke-miterlimit:4;stroke-dasharray:none"
     ry="1.7735215"
     transform="matrix(0.72612649,-0.68756114,0.6879775,0.72573202,0,0)" />
  <g
     id="g2"
     transform="matrix(0.17156262,0,0,0.17156262,1.472408,1.466591)"
     style="fill:#80b3ff;stroke-width:1.54217">
    <path
       sodipodi:type="inkscape:offset"
       inkscape:radius="1.0063621"
       inkscape:original="M 64.5 29 C 43.513177 29 26.5 46.013185 26.5 67 C 26.5 87.986865 43.513177 105 64.5 105 C 85.486815 105 102.5 87.986865 102.5 67 C 102.5 46.013185 85.486815 29 64.5 29 z M 64.5 32.166016 C 80.455873 32.166016 93.906365 42.894726 98.03125 57.53125 C 94.478488 64.859209 89.422118 71.457475 83.265625 76.789062 C 80.308118 79.350262 77.080499 81.632597 73.513672 83.240234 C 69.946846 84.847871 66.023156 85.761068 62.117188 85.537109 C 59.182552 85.368828 56.282859 84.551791 53.712891 83.126953 C 60.523772 79.436358 66.670716 74.515144 71.701172 68.623047 C 75.003059 64.755589 77.89157 60.360532 79.003906 55.398438 C 79.560075 52.917394 79.654558 50.319 79.134766 47.830078 C 78.614971 45.341159 77.46417 42.969767 75.722656 41.117188 C 74.021298 39.307333 71.787109 38.023901 69.392578 37.363281 C 66.998047 36.702666 64.449378 36.653054 62.005859 37.099609 C 57.118824 37.992719 52.755381 40.831212 49.255859 44.357422 C 43.087444 50.572877 39.275108 59.343467 39.974609 68.072266 C 40.324358 72.436661 41.786747 76.726273 44.292969 80.316406 C 44.852393 81.117732 45.46673 81.880248 46.125 82.603516 C 42.473971 83.881265 38.693418 84.79045 34.859375 85.302734 C 31.567584 79.983685 29.666016 73.714934 29.666016 67 C 29.666016 47.762081 45.262081 32.166016 64.5 32.166016 z M 64.720703 39.205078 C 67.169346 39.208378 69.636061 39.949774 71.589844 41.425781 C 73.350104 42.755598 74.653189 44.646097 75.392578 46.724609 C 76.131973 48.803122 76.322582 51.060321 76.070312 53.251953 C 75.565769 57.63523 73.355105 61.65647 70.683594 65.167969 C 65.953349 71.385524 59.664594 76.362133 52.671875 79.845703 C 51.956114 80.202273 51.230261 80.539465 50.5 80.865234 C 48.978439 79.53373 47.673773 77.955365 46.679688 76.195312 C 44.602513 72.517577 43.917315 68.147885 44.320312 63.943359 C 44.723315 59.738842 46.16719 55.686396 48.105469 51.933594 C 50.352816 47.582396 53.414839 43.4609 57.703125 41.095703 C 59.847269 39.913114 62.272055 39.201761 64.720703 39.205078 z M 99.021484 62.337891 C 99.225569 63.863274 99.333984 65.418766 99.333984 67 C 99.333984 86.237914 83.737921 101.83398 64.5 101.83398 C 53.695789 101.83398 44.039583 96.915802 37.650391 89.195312 C 41.593983 88.299621 45.449459 87.012562 49.146484 85.375 C 50.763226 86.606279 52.547337 87.616129 54.445312 88.34375 C 59.91111 90.439215 66.116819 90.13568 71.648438 88.220703 C 77.180052 86.305742 82.08512 82.868533 86.361328 78.871094 C 91.455404 74.109041 95.751783 68.496953 99.021484 62.337891 z "
       style="color:#000000;clip-rule:nonzero;display:inline;overflow:visible;visibility:visible;opacity:0.05;isolation:auto;mix-blend-mode:normal;color-interpolation:sRGB;color-interpolation-filters:linearRGB;solid-color:#000000;solid-opacity:1;fill:#80b3ff;fill-opacity:1;fill-rule:nonzero;stroke:none;stroke-width:1.54217;stroke-linecap:butt;stroke-linejoin:miter;stroke-miterlimit:4;stroke-dasharray:none;stroke-dashoffset:0;stroke-opacity:1;marker:none;color-rendering:auto;image-rendering:auto;shape-rendering:auto;text-rendering:auto;enable-background:accumulate"
       id="path3492"
       d="m 64.5,27.994141 c -21.530702,0 -39.005859,17.475165 -39.005859,39.005859 0,21.530742 17.475159,39.00586 39.005859,39.00586 21.530692,0 39.00586,-17.475118 39.00586,-39.00586 0,-21.530694 -17.475166,-39.005859 -39.00586,-39.005859 z m 0,5.177734 c 15.369973,0 28.304271,10.254373 32.429688,24.275391 -3.48279,7.058554 -8.372468,13.42749 -14.322266,18.580078 -2.907258,2.517684 -6.05894,4.740449 -9.507813,6.294922 -3.444923,1.552693 -7.214351,2.423742 -10.925781,2.210937 -2.159344,-0.123823 -4.252398,-0.726479 -6.238281,-1.570312 6.211353,-3.620144 11.858669,-8.212624 16.53125,-13.685547 3.358165,-3.933376 6.353599,-8.457019 7.519531,-13.658203 0.583653,-2.603648 0.686247,-5.344127 0.132813,-7.994141 -0.554411,-2.654667 -1.780542,-5.193623 -3.664063,-7.197266 -1.83988,-1.95721 -4.232969,-3.328346 -6.794922,-4.035156 -2.558559,-0.705868 -5.257716,-0.754375 -7.835937,-0.283203 -5.153767,0.941855 -9.679264,3.907639 -13.283203,7.539063 -6.355808,6.404276 -10.297359,15.431379 -9.570313,24.503906 0.363398,4.534711 1.881633,8.992253 4.498047,12.740234 0.286821,0.410846 0.623389,0.779715 0.935547,1.169922 -2.940948,0.945251 -5.948641,1.670198 -9.003906,2.117188 C 32.417362,79.139608 30.671875,73.28509 30.671875,67 30.671875,48.305982 45.805982,33.171875 64.5,33.171875 Z m 0.21875,7.039063 c 2.246418,0.003 4.505626,0.689443 6.263672,2.017578 1.584835,1.197289 2.784056,2.925698 3.46289,4.833984 0.680591,1.913208 0.861709,4.017777 0.625,6.074219 -0.474351,4.120988 -2.578172,7.992111 -5.1875,11.421875 -4.62668,6.081427 -10.79429,10.966343 -17.660156,14.386718 -0.476525,0.237391 -0.965786,0.457802 -1.453125,0.681641 -1.241374,-1.166762 -2.379465,-2.450181 -3.21289,-3.925781 C 45.600724,72.23813 44.935924,68.069821 45.322266,64.039062 45.709346,60.000667 47.103763,56.065934 49,52.394531 c 2.195215,-4.250263 5.156695,-8.193708 9.189453,-10.417969 2.012627,-1.110051 4.276453,-1.768676 6.529297,-1.765624 z M 98.222656,65.4375 c 0.02455,0.52365 0.105469,1.032872 0.105469,1.5625 0,18.694013 -15.134105,33.82813 -33.828125,33.82812 -9.90934,0 -18.715916,-4.351971 -24.902344,-11.134761 3.237108,-0.833588 6.415572,-1.886094 9.480469,-3.214843 1.555677,1.120447 3.21022,2.115549 5.007813,2.804687 5.733864,2.198236 12.172149,1.869012 17.892578,-0.111328 5.70961,-1.976581 10.723882,-5.503323 15.070312,-9.566406 4.414665,-4.126925 8.083232,-8.976133 11.173828,-14.167969 z"
       transform="matrix(0.47444151,0,0,0.47444151,-2.722595,-3.8747985)" />
    <path
       inkscape:connector-curvature="0"
       style="color:#000000;clip-rule:nonzero;display:inline;overflow:visible;visibility:visible;opacity:0.15;isolation:auto;mix-blend-mode:normal;color-interpolation:sRGB;color-interpolation-filters:linearRGB;solid-color:#000000;solid-opacity:1;fill:#80b3ff;fill-opacity:1;fill-rule:nonzero;stroke:none;stroke-width:0.731669;stroke-linecap:butt;stroke-linejoin:miter;stroke-miterlimit:4;stroke-dasharray:none;stroke-dashoffset:0;stroke-opacity:1;marker:none;color-rendering:auto;image-rendering:auto;shape-rendering:auto;text-rendering:auto;enable-background:accumulate"
       id="path2993-9"
       d="m 27.878882,9.8839955 c -9.957021,0 -18.028778,8.0717595 -18.028778,18.0287695 0,9.957045 8.071757,18.028792 18.028778,18.028792 9.957016,0 18.028778,-8.071747 18.028778,-18.028792 0,-9.95701 -8.071762,-18.0287695 -18.028778,-18.0287695 z m 0,1.5023935 c 7.570128,0 13.951498,5.090038 15.90852,12.034212 -1.685579,3.476689 -4.084036,6.606938 -7.004938,9.136468 -1.403161,1.215139 -2.935132,2.298408 -4.627384,3.061133 -1.692247,0.762738 -3.553597,1.195498 -5.406751,1.089244 -1.392314,-0.07985 -2.767695,-0.467698 -3.986993,-1.143702 3.231364,-1.750968 6.146967,-4.085536 8.533625,-6.880994 1.566553,-1.834881 2.937167,-3.920166 3.464905,-6.274389 0.263869,-1.177111 0.308581,-2.409885 0.06197,-3.590733 -0.246611,-1.180846 -0.792585,-2.306143 -1.618833,-3.185083 -0.807196,-0.858671 -1.86685,-1.466917 -3.002917,-1.780342 -1.136066,-0.313422 -2.345041,-0.337692 -3.504348,-0.125829 -2.318612,0.423729 -4.388705,1.771267 -6.049024,3.444247 -2.926556,2.94887 -4.735782,7.109778 -4.40391,11.25109 0.165937,2.070645 0.859847,4.105341 2.048897,5.80865 0.265416,0.380184 0.557197,0.742333 0.869514,1.085482 -1.732202,0.606218 -3.525753,1.037744 -5.344784,1.280793 C 12.25467,34.073059 11.3525,31.09861 11.3525,27.912765 c 0,-9.127264 7.39911,-16.526379 16.526378,-16.526379 z m 0.105167,3.339084 c 1.161737,0.0016 2.331374,0.353277 3.25833,1.053555 0.835138,0.630921 1.453954,1.528506 1.804751,2.514638 0.350796,0.986134 0.440829,2.057019 0.321141,3.096819 -0.239378,2.07961 -1.288478,3.986774 -2.555957,5.652774 -2.244221,2.949868 -5.227251,5.310874 -8.544888,6.963622 -0.339586,0.16917 -0.684558,0.329965 -1.031025,0.484527 -0.721888,-0.631721 -1.340622,-1.381006 -1.812261,-2.216044 -0.985503,-1.744875 -1.310487,-3.817603 -1.119291,-5.812407 0.191202,-1.994795 0.875764,-3.91736 1.795366,-5.697845 1.066231,-2.064388 2.519611,-4.019811 4.554147,-5.141959 1.017269,-0.561069 2.167946,-0.899254 3.329687,-0.89768 z m 16.272852,10.975015 c 0.09683,0.723708 0.148364,1.462087 0.148364,2.212277 0,9.127269 -7.399113,16.526396 -16.526383,16.526396 -5.125969,0 -9.707155,-2.333527 -12.738458,-5.996445 1.871011,-0.424958 3.699679,-1.035341 5.453703,-1.812269 0.767051,0.584173 1.614163,1.063283 2.514632,1.408496 2.593206,0.994178 5.537363,0.850318 8.161786,-0.05822 2.624431,-0.908545 4.951708,-2.539286 6.980519,-4.435842 2.41684,-2.259309 4.454555,-4.922282 6.005837,-7.844396 z" />
    <path
       inkscape:connector-curvature="0"
       style="color:#000000;display:inline;overflow:visible;visibility:visible;fill:#80b3ff;fill-opacity:1;fill-rule:nonzero;stroke:none;stroke-width:0.731669;marker:none;enable-background:accumulate"
       id="path2993"
       d="m 27.878882,9.4095595 c -9.957021,0 -18.028778,8.0717555 -18.028778,18.0287715 0,9.957041 8.071757,18.028784 18.028778,18.028784 9.957016,0 18.028778,-8.071743 18.028778,-18.028784 0,-9.957016 -8.071762,-18.0287715 -18.028778,-18.0287715 z m 0,1.5023915 c 7.570128,0 13.951498,5.090035 15.90852,12.034213 -1.685579,3.476687 -4.084036,6.606933 -7.004938,9.136462 -1.403161,1.21514 -2.935132,2.298407 -4.627384,3.061139 -1.692247,0.762729 -3.553597,1.195491 -5.406751,1.089237 -1.392314,-0.07985 -2.767695,-0.467698 -3.986993,-1.143701 3.231364,-1.750972 6.146967,-4.085533 8.533625,-6.880988 1.566553,-1.834884 2.937167,-3.92017 3.464905,-6.27439 0.263869,-1.177113 0.308581,-2.409887 0.06197,-3.590735 -0.246611,-1.180847 -0.792585,-2.306144 -1.618833,-3.185084 -0.807196,-0.858671 -1.86685,-1.466917 -3.002917,-1.780343 -1.136066,-0.313424 -2.345041,-0.337692 -3.504348,-0.125825 -2.318612,0.423728 -4.388705,1.771264 -6.049024,3.444245 -2.926556,2.948869 -4.735782,7.109784 -4.40391,11.251088 0.165937,2.070647 0.859847,4.105341 2.048897,5.808653 0.265416,0.38018 0.557197,0.742332 0.869514,1.085487 -1.732202,0.606213 -3.525753,1.037742 -5.344784,1.28079 C 12.25467,33.598621 11.3525,30.624173 11.3525,27.438326 c 0,-9.127265 7.39911,-16.52638 16.526378,-16.52638 z m 0.105167,3.33908 c 1.161737,0.0016 2.331374,0.353278 3.25833,1.053557 0.835138,0.63092 1.453954,1.528505 1.804751,2.514638 0.350796,0.986133 0.440829,2.057018 0.321141,3.096819 -0.239378,2.079607 -1.288478,3.986771 -2.555957,5.652771 -2.244221,2.949866 -5.227251,5.310875 -8.544888,6.963627 -0.339586,0.16917 -0.684558,0.329964 -1.031025,0.484525 -0.721888,-0.631722 -1.340622,-1.381004 -1.812261,-2.21605 -0.985503,-1.744869 -1.310487,-3.817601 -1.119291,-5.812406 0.191202,-1.99479 0.875764,-3.917357 1.795366,-5.69784 1.066231,-2.064389 2.519611,-4.019811 4.554147,-5.141959 1.017269,-0.561069 2.167946,-0.899255 3.329687,-0.897682 z M 44.256901,25.22605 c 0.09683,0.723706 0.148364,1.462077 0.148364,2.212281 0,9.127267 -7.399113,16.526385 -16.526383,16.526385 -5.125969,0 -9.707155,-2.333525 -12.738458,-5.996442 1.871011,-0.424952 3.699679,-1.035344 5.453703,-1.812268 0.767051,0.584165 1.614163,1.063282 2.514632,1.408495 2.593206,0.994178 5.537363,0.850323 8.161786,-0.05824 2.624431,-0.90853 4.951708,-2.539277 6.980519,-4.435822 2.41684,-2.259318 4.454555,-4.922291 6.005837,-7.844404 z" />
  </g>
</svg>
