<?xml version="1.0" encoding="UTF-8" standalone="no"?>
<svg
   xmlns:dc="http://purl.org/dc/elements/1.1/"
   xmlns:cc="http://creativecommons.org/ns#"
   xmlns:rdf="http://www.w3.org/1999/02/22-rdf-syntax-ns#"
   xmlns:svg="http://www.w3.org/2000/svg"
   xmlns="http://www.w3.org/2000/svg"
   xmlns:xlink="http://www.w3.org/1999/xlink"
   xmlns:sodipodi="http://sodipodi.sourceforge.net/DTD/sodipodi-0.dtd"
   xmlns:inkscape="http://www.inkscape.org/namespaces/inkscape"
   width="47.285591"
   height="47.28569"
   version="1.1"
   viewBox="0 0 12.510734 12.51076"
   id="svg12"
   sodipodi:docname="port_proton.svg"
   inkscape:version="1.0.1 (3bc2e813f5, 2020-09-07)">
  <style
     id="style860"></style>
  <metadata
     id="metadata35">
    <rdf:RDF>
      <cc:Work
         rdf:about="">
        <dc:format>image/svg+xml</dc:format>
        <dc:type
           rdf:resource="http://purl.org/dc/dcmitype/StillImage" />
      </cc:Work>
    </rdf:RDF>
  </metadata>
  <defs
     id="defs16">
    <linearGradient
       id="c"
       y1="523.79999"
       x1="403.57001"
       y2="536.79999"
       x2="416.57001"
       gradientUnits="userSpaceOnUse"
       gradientTransform="matrix(0.34526714,0,0,0.34526706,-134.80427,-174.63325)">
      <stop
         stop-color="#292c2f"
         id="stop1568" />
      <stop
         offset="1"
         stop-opacity="0"
         id="stop1570" />
    </linearGradient>
    <linearGradient
       xlink:href="#b-2"
       id="linearGradient4189"
       x1="14.369"
       y1="22.521999"
       x2="26.521999"
       y2="22.521999"
       gradientUnits="userSpaceOnUse" />
    <linearGradient
       x1="36"
       gradientUnits="userSpaceOnUse"
       x2="14"
       y2="12"
       y1="44"
       id="b-2">
      <stop
         style="stop-color:#bfc9c9;stop-opacity:1"
         stop-color="#536161"
         id="stop1579" />
      <stop
         style="stop-color:#fbfbfb;stop-opacity:1"
         stop-color="#f4f5f5"
         offset="1"
         id="stop1581" />
    </linearGradient>
    <linearGradient
       xlink:href="#b-2"
       id="linearGradient4428"
       gradientUnits="userSpaceOnUse"
       x1="31.586"
       y1="36.345001"
       x2="1.2029999"
       y2="6.723" />
    <linearGradient
       xlink:href="#b-2"
       id="linearGradient4189-3"
       x1="14.369"
       y1="22.521999"
       x2="26.521999"
       y2="22.521999"
       gradientUnits="userSpaceOnUse"
       gradientTransform="translate(20.841982,61.553822)" />
    <linearGradient
       xlink:href="#b-2"
       id="linearGradient4428-5"
       gradientUnits="userSpaceOnUse"
       x1="31.586"
       y1="36.345001"
       x2="1.2029999"
       y2="6.723"
       gradientTransform="translate(20.841982,61.553822)" />
    <linearGradient
       xlink:href="#b-2"
       id="linearGradient4189-3-3"
       x1="14.369"
       y1="22.521999"
       x2="26.521999"
       y2="22.521999"
       gradientUnits="userSpaceOnUse"
       gradientTransform="translate(4.376802,4.4211693)" />
    <linearGradient
       xlink:href="#b-2"
       id="linearGradient4428-5-5"
       gradientUnits="userSpaceOnUse"
       x1="31.586"
       y1="36.345001"
       x2="1.2029999"
       y2="6.723"
       gradientTransform="translate(4.376802,4.4211693)" />
    <linearGradient
       inkscape:collect="always"
       xlink:href="#linearGradient14"
       id="linearGradient15"
       x1="-9.6850061"
       y1="45.161198"
       x2="11.98815"
       y2="21.735205"
       gradientUnits="userSpaceOnUse"
       gradientTransform="scale(0.26457813)" />
    <linearGradient
       id="linearGradient14"
       inkscape:collect="always">
      <stop
         style="stop-color:#9955ff;stop-opacity:0.45197046;"
         offset="0"
         id="stop12" />
      <stop
         style="stop-color:#00ccff;stop-opacity:1"
         offset="1"
         id="stop13" />
    </linearGradient>
    <filter
       id="filter2917-3"
       x="-0.96181148"
       y="-0.66745996"
       width="2.9236228"
       height="2.3349199"
       color-interpolation-filters="sRGB">
      <feGaussianBlur
         stdDeviation="0.2871969"
         id="feGaussianBlur732-5" />
    </filter>
    <filter
       id="filter1"
       x="-0.96181148"
       y="-0.66745996"
       width="2.9236228"
       height="2.3349199"
       color-interpolation-filters="sRGB">
      <feGaussianBlur
         stdDeviation="0.2871969"
         id="feGaussianBlur1" />
    </filter>
    <filter
       id="filter2"
       x="-0.96181148"
       y="-0.66745996"
       width="2.9236228"
       height="2.3349199"
       color-interpolation-filters="sRGB">
      <feGaussianBlur
         stdDeviation="0.2871969"
         id="feGaussianBlur2" />
    </filter>
    <linearGradient
       inkscape:collect="always"
       xlink:href="#linearGradient14"
       id="linearGradient868"
       x1="-12.025727"
       y1="6.1170783"
       x2="-0.085100174"
       y2="6.1170783"
       gradientUnits="userSpaceOnUse" />
  </defs>
  <sodipodi:namedview
     id="namedview14"
     pagecolor="#000000"
     bordercolor="#666666"
     borderopacity="1.0"
     inkscape:showpageshadow="2"
     inkscape:pageopacity="0.0"
     inkscape:pagecheckerboard="0"
     inkscape:deskcolor="#d1d1d1"
     showgrid="false"
     inkscape:zoom="6.2611141"
     inkscape:cx="23.845543"
     inkscape:cy="54.335026"
     inkscape:window-width="1920"
     inkscape:window-height="988"
     inkscape:window-x="0"
     inkscape:window-y="0"
     inkscape:window-maximized="1"
     inkscape:current-layer="svg12"
     inkscape:document-rotation="0">
    <inkscape:grid
       type="xygrid"
       id="grid244"
       originx="9.9594769"
       originy="-31.57929"
       spacingy="1"
       spacingx="1"
       units="px"
       visible="false" />
  </sodipodi:namedview>
  <rect
     x="-12.194976"
     y="0.32004508"
     width="11.940627"
     height="11.936014"
     rx="1.6121091"
     shape-rendering="crispEdges"
     id="rect5-6-7-3"
     ry="1.7735944"
     transform="matrix(0.00523883,-0.99998628,0.999988,0.00489859,0,0)"
     style="fill:#80b3ff;fill-opacity:0.15;stroke:url(#linearGradient868);stroke-width:0.5291563;stroke-miterlimit:4;stroke-dasharray:none;stroke-opacity:1" />
  <rect
     x="-3.7202365"
     y="4.8851409"
     width="7.912631"
     height="7.912384"
     rx="1.612043"
     shape-rendering="crispEdges"
     id="rect5-6-6-6-6"
     style="fill:#80b3ff;fill-opacity:0.122146;stroke:url(#linearGradient15);stroke-width:0.42332506;stroke-opacity:1;stroke-miterlimit:4;stroke-dasharray:none"
     ry="1.7735215"
     transform="matrix(0.72612649,-0.68756114,0.6879775,0.72573202,0,0)" />
  <path
     d="M 6.3783882,2.6835763 C 6.2892857,2.6847963 6.2037324,2.7058933 6.1230128,2.7453593 6.0279037,2.7944753 5.9414295,2.8589447 5.8675254,2.9358869 5.7732456,3.0332959 5.6908786,3.140933 5.6213304,3.2551771 5.5585864,3.3584983 5.5025507,3.4643002 5.4516951,3.5735439 5.5958462,3.6336189 5.7367975,3.7038975 5.8725333,3.7810602 6.0456773,3.8783392 6.2154082,3.9832719 6.3783882,4.097648 6.541309,3.9832716 6.711324,3.8783384 6.8850606,3.7810599 7.0209214,3.7038943 7.1611077,3.6336213 7.3052654,3.5735436 7.2552451,3.4643014 7.1984803,3.3585 7.1355227,3.2551787 7.0659332,3.1409346 6.9836607,3.0332975 6.8894347,2.9358885 6.8155425,2.8589463 6.7290918,2.7946478 6.6339468,2.7453635 6.5541458,2.7054782 6.4676895,2.6844992 6.3783882,2.6835763 Z M 4.3770099,3.5482874 c -0.1044495,-0.00359 -0.2095865,0.013095 -0.3097278,0.046496 -0.082373,0.028939 -0.1579132,0.074431 -0.2207756,0.1347935 -0.060194,0.062523 -0.1060436,0.1378781 -0.1348529,0.2199457 -0.032538,0.099975 -0.04919,0.2048562 -0.046525,0.3091052 0,0.09913 0.010551,0.1963242 0.026733,0.2936618 0.021281,0.1119288 0.04919,0.2228575 0.084939,0.3304699 0.014397,0.042027 0.029873,0.084427 0.046168,0.1269717 C 3.9713254,4.9528762 4.1225714,4.9030215 4.275334,4.8597551 4.463751,4.8068891 4.6547459,4.7632501 4.848159,4.7285333 4.882889,4.5363462 4.927219,4.3449023 4.9798174,4.1570256 5.0220144,4.0046046 5.0732434,3.8539995 5.1298952,3.7056555 5.0876392,3.6889885 5.0452282,3.6747055 5.0016919,3.6597015 4.8949017,3.6241615 4.7838442,3.5961355 4.6708009,3.5751915 4.5741329,3.5575065 4.4763506,3.5485795 4.3771106,3.5485795 Z m 4.0028218,0 c -0.098488,0 -0.1959731,0.01024 -0.2935891,0.026608 -0.1121425,0.020903 -0.2232947,0.04875 -0.3311757,0.084577 -0.042135,0.015719 -0.085554,0.03001 -0.1281915,0.0459 0.057906,0.1483239 0.1079935,0.2989179 0.1503327,0.4514281 0.053693,0.1878655 0.097611,0.3792726 0.1323935,0.5715201 0.1927078,0.03429 0.3845503,0.07861 0.5729194,0.1311444 C 8.6353147,4.902916 8.7857232,4.952631 8.935044,5.009428 8.95052,4.967103 8.96634,4.924722 8.980617,4.8824564 9.016293,4.7748303 9.045146,4.663956 9.065604,4.551974 9.083458,4.454717 9.092335,4.3574824 9.092335,4.2583113 9.0952996,4.1540636 9.0788924,4.0491891 9.0459293,3.9492144 9.0180744,3.8671428 8.972132,3.791811 8.9118993,3.7292633 8.848201,3.6689364 8.773498,3.6232177 8.6902418,3.5944889 8.5900998,3.561926 8.4857922,3.5456737 8.3804242,3.5481741 Z M 5.3573741,3.8013083 c -0.052925,0.1378782 -0.099359,0.2793926 -0.1391083,0.4216401 -0.04356,0.1533018 -0.079967,0.306473 -0.1121363,0.4614359 0.1977156,-0.02881 0.3964212,-0.05203 0.5949902,-0.06525 0.1112059,-0.09716 0.2257306,-0.1905082 0.3429046,-0.2801249 0.038879,-0.031257 0.078141,-0.060066 0.1179911,-0.089901 C 6.0297113,4.1576736 5.8912197,4.073903 5.7512109,3.9951865 5.6239083,3.9223865 5.4931628,3.8570225 5.3573741,3.8013083 Z m 2.0422832,0 C 7.2647155,3.8569093 7.1330457,3.9223865 7.0056782,3.9951865 6.8657462,4.0739005 6.7281672,4.1576736 6.595614,4.2491062 c 0.03983,0.030063 0.080083,0.059289 0.1188868,0.0899 0.1162492,0.08961 0.2310583,0.1820611 0.3414638,0.2793926 0.1993692,0.01429 0.3970851,0.037866 0.5948956,0.065993 C 7.6188565,4.5294247 7.5819576,4.3762536 7.5395299,4.2229519 7.5001777,4.0807044 7.4530497,3.9391901 7.3996573,3.8013117 Z M 6.3783882,4.394092 c -0.061942,0.046499 -0.1229996,0.092171 -0.184049,0.1394071 -0.025544,0.02 -0.053689,0.041251 -0.079798,0.0629 0.08739,-0.00363 0.1756514,-0.00599 0.2638502,-0.00471 0.088368,-0.00123 0.1766822,0.00123 0.2648518,0.0054 -0.025486,-0.022065 -0.0534,-0.043325 -0.080651,-0.063603 -0.060944,-0.046956 -0.1220581,-0.093007 -0.1842039,-0.139625 z m 0,0.4453506 C 6.1866936,4.8382657 5.994816,4.8453768 5.8029437,4.8570025 5.6544246,4.9832413 5.5118493,5.1161187 5.3752421,5.2541699 5.2367861,5.3905105 5.1035574,5.5327168 4.9771264,5.6806431 4.9650364,5.8720925 4.9588744,6.063535 4.9588744,6.254966 c 0,0.1921869 0.00597,0.3834335 0.019021,0.5748416 0.1256311,0.1481462 0.2588423,0.2895598 0.3972987,0.4267173 0.1366242,0.1371574 0.2782806,0.2700342 0.4277304,0.3953578 0.1910129,0.01351 0.3829267,0.02 0.5754328,0.018807 0.1927554,0.00123 0.3846628,-0.00599 0.5755513,-0.0178 C 7.102411,7.527532 7.2450098,7.3946553 7.3824648,7.2565093 7.5199605,7.1193584 7.6533554,6.9771764 7.779911,6.8289696 7.7919413,6.6384854 7.799705,6.4471495 7.7978688,6.2549559 7.7982953,6.0635198 7.791946,5.8713261 7.7789035,5.680699 7.6532604,5.5327362 7.5199661,5.3905486 7.3823876,5.2541586 7.245004,5.1162039 7.1031874,4.9841062 6.9547095,4.8579985 6.7629267,4.8444848 6.5710483,4.8391864 6.3782634,4.8397822 Z M 5.3862061,4.8968896 C 5.2775786,4.9082576 5.1697571,4.9235026 5.062042,4.9424936 5.044145,5.0491122 5.029625,5.1574572 5.016467,5.265837 5.076722,5.203251 5.1377716,5.1414368 5.1989572,5.0796449 5.2601132,5.0187759 5.3228282,4.9578402 5.3856498,4.8975655 Z m 1.9854722,0 c 0.062677,0.060868 0.1247064,0.1211615 0.1856078,0.1820661 0.062034,0.061687 0.1224303,0.1235909 0.1826027,0.1861158 C 7.7286876,5.1567509 7.7132785,5.048477 7.69544,4.9417987 7.5877428,4.9238801 7.4798854,4.9091741 7.3713586,4.8961957 Z M 4.8038041,4.9866031 C 4.6484754,5.0183901 4.4942962,5.0553251 4.341261,5.0976616 4.1987032,5.1370086 4.0570765,5.1838286 3.9187039,5.2364446 3.9746511,5.3720603 4.0401326,5.5021987 4.1132128,5.6292538 4.1921086,5.7691497 4.2760331,5.9061043 4.3676815,6.0383505 4.3978498,5.9987075 4.427133,5.9596545 4.4577902,5.9206602 4.5476967,5.8037723 4.6409265,5.68926 4.7386792,5.5793618 4.7530221,5.3813707 4.7751264,5.1832004 4.8038041,4.9866031 Z m 3.1489783,0 c 0.030171,0.1965981 0.052329,0.3947683 0.066376,0.5936822 0.097455,0.1098744 0.1910248,0.2243924 0.2808711,0.3411434 0.030169,0.039233 0.060194,0.077873 0.08919,0.1178396 C 8.4808572,5.9070267 8.5648647,5.7699825 8.6437828,5.6292533 8.7167458,5.5021982 8.7831469,5.3720598 8.839129,5.2364442 8.6998833,5.1834609 8.559099,5.1374864 8.4154512,5.0976604 8.2626579,5.0555134 8.1081525,5.0180508 7.9527824,4.9866031 Z M 3.690253,5.330424 C 3.5807593,5.3815624 3.4747218,5.4370902 3.3713625,5.5005728 3.2565594,5.5692431 3.1488627,5.6522564 3.0512938,5.7452416 c -0.078001,0.07372 -0.1416565,0.1602317 -0.191878,0.254837 -0.039298,0.080543 -0.059272,0.1670771 -0.061006,0.2549612 0.00125,0.088879 0.022047,0.1751204 0.061006,0.2550216 0.050256,0.094612 0.1138782,0.1811262 0.191878,0.2554793 0.097568,0.093128 0.2052656,0.1761377 0.3200687,0.2446691 C 3.4747218,7.0729398 3.5807593,7.129639 3.690253,7.1794425 3.7506862,7.0356638 3.8211941,6.8959647 3.898275,6.7605397 3.9960564,6.5869443 4.1012475,6.4185384 4.2158011,6.2550389 4.1012475,6.0925339 3.9960564,5.9241112 3.898275,5.7505095 3.8211941,5.6149655 3.7506862,5.4751171 3.690253,5.330424 Z m 5.3761588,0 C 9.0070868,5.475118 8.9366846,5.6149664 8.858454,5.7505105 8.761022,5.9241121 8.6557848,6.0925345 8.5412173,6.2558382 8.6557848,6.4176167 8.7610214,6.5869449 8.858454,6.7605406 8.9366842,6.8959656 9.0071157,7.0356647 9.0664118,7.1794425 9.1759702,7.1296724 9.2831149,7.0729361 9.3865215,7.0102098 9.500935,6.9416748 9.6081743,6.8586697 9.705661,6.7655407 9.7836756,6.6911828 9.8481406,6.6046719 9.8975091,6.5100614 9.9369242,6.4301592 9.9576843,6.3439187 9.959476,6.2550398 9.9571467,6.1671548 9.9360103,6.0806234 9.8975091,6.0000786 9.8482586,5.9054723 9.7836713,5.818957 9.705661,5.7452406 9.6081743,5.6522554 9.500935,5.5692465 9.3865215,5.5005721 9.2831149,5.4370893 9.1759702,5.3813695 9.0664118,5.330424 Z M 6.3783882,5.6394446 c 0.1647169,0 0.3209701,0.06535 0.4371543,0.1795134 0.1144356,0.1160426 0.1799416,0.2726544 0.1799416,0.4360818 0,0.1642979 -0.065505,0.3207429 -0.1799416,0.4361478 -0.1161842,0.115072 -0.2724374,0.1803411 -0.4371543,0.1803411 -0.1638277,0 -0.3206502,-0.065266 -0.4369587,-0.1803411 -0.1147852,-0.1154049 -0.179936,-0.2718499 -0.179936,-0.4361478 0,-0.1634274 0.065154,-0.3200392 0.179936,-0.4360818 C 6.057738,5.7047974 6.2145605,5.6394446 6.3783882,5.6394446 Z m 0,0.2464902 c -0.098493,0 -0.1924708,0.039641 -0.2613845,0.1083579 -0.069521,0.06858 -0.1086812,0.162576 -0.1086812,0.2607471 0,0.099148 0.039233,0.1922054 0.1086812,0.2616528 0.068919,0.068435 0.1628914,0.1083808 0.2613845,0.1083808 0.099317,0 0.1927792,-0.03947 0.2622677,-0.1083808 0.068845,-0.069448 0.1086394,-0.1625049 0.1086394,-0.2616528 0,-0.098169 -0.039355,-0.1921689 -0.1086394,-0.2607471 C 6.5711682,5.9256581 6.4777055,5.8859348 6.3783882,5.8859348 Z m -1.6626403,0.105797 c -0.02134,0.02542 -0.042261,0.053394 -0.062892,0.080421 -0.046883,0.060008 -0.093298,0.1220781 -0.1401212,0.1828821 0.046585,0.061781 0.092642,0.1235793 0.1401212,0.1837581 0.020088,0.026609 0.041005,0.053933 0.062892,0.080543 -0.00359,-0.08826 -0.00533,-0.1763467 -0.00533,-0.2643025 0,-0.087886 0.00174,-0.17534 0.00533,-0.2633069 z m 3.3255713,0 c 0.00409,0.087068 0.00533,0.175423 0.00533,0.2633071 0,0.087952 0,0.1760429 -0.00533,0.2643025 0.020981,-0.025591 0.042196,-0.053581 0.06371,-0.080543 C 8.1516112,6.3786264 8.1981822,6.316822 8.2440188,6.2550415 8.1978498,6.1942385 8.1516658,6.1321662 8.1050293,6.0721606 8.0836923,6.0456626 8.0624173,6.0179896 8.0413193,5.9917366 Z m -5.490031,0.2625808 v 0.00363 z M 4.3676815,6.4718005 C 4.2760336,6.6037548 4.1921073,6.7410016 4.1132128,6.8808139 4.0401325,7.0085835 3.9747216,7.1389901 3.9187039,7.2737065 4.0570765,7.3268685 4.1987032,7.3735872 4.341261,7.4133823 4.4949306,7.4555304 4.6484754,7.4930231 4.8038041,7.5241805 4.7739933,7.3269505 4.7518874,7.129638 4.7379428,6.9307895 4.6400067,6.8206226 4.5476949,6.7063787 4.4577892,6.5903897 4.4266153,6.5511047 4.3973732,6.5114869 4.3676815,6.4718005 Z m 4.0215441,0 c -0.02904,0.039293 -0.059331,0.079613 -0.089195,0.1185892 C 8.2092654,6.7072246 8.1166156,6.8206226 8.0191593,6.9315334 8.004758,7.129638 7.9812296,7.3269505 7.9537001,7.5241805 8.109041,7.4923926 8.2626573,7.4557536 8.4154506,7.4133823 8.5590983,7.3739174 8.6998826,7.3269552 8.8391278,7.2737065 8.7833003,7.1389901 8.7167453,7.0085835 8.6437826,6.8808139 8.5648645,6.7410016 8.4808566,6.6037548 8.3892256,6.4718005 Z M 5.0170948,7.2457103 c 0.011198,0.1083204 0.026735,0.2158615 0.044452,0.3232721 0.1077566,0.017737 0.2164793,0.032324 0.3241822,0.044467 C 5.3238531,7.5533764 5.2610317,7.4933256 5.1999944,7.4325155 5.1387314,7.3704512 5.0776587,7.3087229 5.0174565,7.2460975 Z m 2.722794,0 C 7.679716,7.3082339 7.6193251,7.3701401 7.5572861,7.4321166 7.4963842,7.4930202 7.4334566,7.5530284 7.3716783,7.6138917 7.4792684,7.6018688 7.5880861,7.5872798 7.6957775,7.5682883 7.713379,7.4607768 7.7277823,7.3533248 7.7402257,7.2449441 Z M 3.8228413,7.5014691 c -0.017011,0.042027 -0.031647,0.084417 -0.045993,0.1269602 -0.035561,0.1074756 -0.063697,0.2184933 -0.084906,0.3302017 -0.017484,0.09731 -0.026735,0.1947642 -0.026735,0.2930312 -0.00359,0.1048803 0.013455,0.2100342 0.046401,0.3090981 0.029041,0.082703 0.074695,0.1581066 0.1348826,0.2208691 0.062779,0.060073 0.1384087,0.1057968 0.2207877,0.1336869 0.1001174,0.033519 0.2052663,0.050009 0.3096685,0.04697 0.099316,0 0.1969982,-0.01054 0.2936665,-0.026609 0.1130615,-0.021197 0.2240777,-0.049773 0.3309924,-0.085387 0.043561,-0.01458 0.085765,-0.03001 0.1281914,-0.04577 C 5.0730891,8.6556275 5.0220909,8.5058554 4.9797575,8.3532029 4.9268336,8.1653377 4.882983,7.9739184 4.8480697,7.7818444 4.6546627,7.7475552 4.4635847,7.7029494 4.2752032,7.6496219 4.1224881,7.6075934 3.9712424,7.5575344 3.8228299,7.5007255 Z m 5.1122027,0 c -0.1493208,0.056673 -0.2997293,0.1065656 -0.452523,0.148772 -0.1883691,0.05346 -0.3802116,0.097718 -0.5729194,0.1322462 -0.034493,0.1920448 -0.078819,0.3834629 -0.1323935,0.5713402 -0.042136,0.1527726 -0.092478,0.302449 -0.1503327,0.4514351 0.042429,0.015837 0.085843,0.031253 0.1281915,0.045775 0.107881,0.035537 0.2190332,0.064185 0.3311757,0.085423 0.097617,0.01756 0.1951016,0.02661 0.2935891,0.02661 0.1054036,0.00363 0.2096519,-0.013096 0.3097701,-0.046906 0.083276,-0.027737 0.1580729,-0.073636 0.2217716,-0.1337104 0.060187,-0.062712 0.1060427,-0.1381159 0.1339922,-0.220845 0.032473,-0.099094 0.049014,-0.2042361 0.046583,-0.309134 0,-0.0982 -0.010007,-0.1957051 -0.026732,-0.293007 C 9.0451404,7.847791 9.0160294,7.7367916 8.9802996,7.62928 8.9659576,7.5869531 8.9501932,7.5445446 8.9347247,7.5022964 Z M 5.1061295,7.8257536 c 0.032005,0.1558804 0.068623,0.309009 0.1121363,0.4614359 0.03941,0.1430751 0.086475,0.2843942 0.1391083,0.4223903 C 5.4931628,8.6537978 5.6239083,8.5877514 5.7512109,8.5158688 5.8912197,8.4368668 6.0287928,8.3531667 6.1610972,8.2617349 6.1215674,8.2316751 6.0821853,8.2023801 6.0424593,8.1720321 5.9259433,8.0823701 5.8114246,7.9890686 5.7011197,7.8917312 5.5025507,7.8772059 5.3038451,7.8550605 5.1061295,7.8257536 Z m 2.5447307,0 c -0.1978105,0.030006 -0.3955264,0.051849 -0.594226,0.06598 -0.1110751,0.097336 -0.2258842,0.1906389 -0.3421334,0.280298 -0.039233,0.030951 -0.07886,0.060077 -0.1188868,0.089703 0.1325532,0.091431 0.2701322,0.1751305 0.4100642,0.2541333 0.1273675,0.071883 0.2590373,0.1378773 0.3939791,0.1937105 C 7.4531136,8.5715815 7.4998697,8.4302625 7.5395299,8.2871875 7.5817863,8.1347606 7.6193237,7.9816319 7.6508602,7.8257536 Z m -1.5372408,0.087982 c 0.026731,0.022317 0.054112,0.042447 0.080722,0.063533 0.061053,0.046793 0.122111,0.093057 0.1840491,0.1387768 0.062151,-0.045959 0.1232603,-0.09143 0.1842032,-0.1387768 0.026732,-0.020902 0.054112,-0.040957 0.080649,-0.063533 -0.088169,0.00471 -0.1764812,0.00599 -0.2648517,0.00599 -0.088202,0 -0.1764632,-0.00123 -0.2647716,-0.00599 z M 6.3783882,8.4132481 C 6.2154082,8.5274931 6.0456773,8.6326411 5.8725333,8.729997 5.7367975,8.806866 5.5958462,8.8774233 5.4516951,8.9365838 5.5027191,9.0458341 5.5585858,9.1524817 5.6213304,9.25588 c 0.069547,0.1142441 0.1519154,0.2216602 0.246195,0.3189982 0.073902,0.077162 0.1603784,0.1415151 0.2554874,0.1905265 0.080722,0.03929 0.1662755,0.06024 0.2553754,0.061781 0.089305,-0.00176 0.1757576,-0.02322 0.2555586,-0.061781 C 6.7290918,9.7165887 6.8155425,9.6520418 6.8894347,9.5748786 6.9836608,9.4775406 7.0659332,9.3701245 7.1355227,9.2558803 7.1984799,9.1524821 7.2553338,9.0458343 7.3052654,8.9365842 7.1611077,8.8774092 7.0209214,8.80687 6.8850606,8.7299992 6.711324,8.6326431 6.541309,8.5274954 6.3783882,8.413251 Z"
     fill-rule="evenodd"
     id="path1-3"
     style="isolation:isolate;fill:#d1b3ff;fill-opacity:1;stroke-width:0.0807849" />
</svg>
