<?xml version="1.0" encoding="UTF-8" standalone="no"?>
<svg
   xmlns:dc="http://purl.org/dc/elements/1.1/"
   xmlns:cc="http://creativecommons.org/ns#"
   xmlns:rdf="http://www.w3.org/1999/02/22-rdf-syntax-ns#"
   xmlns:svg="http://www.w3.org/2000/svg"
   xmlns="http://www.w3.org/2000/svg"
   xmlns:xlink="http://www.w3.org/1999/xlink"
   xmlns:sodipodi="http://sodipodi.sourceforge.net/DTD/sodipodi-0.dtd"
   xmlns:inkscape="http://www.inkscape.org/namespaces/inkscape"
   width="47.285591"
   height="47.28569"
   version="1.1"
   viewBox="0 0 12.510734 12.51076"
   id="svg12"
   sodipodi:docname="protoncalendar.svg"
   inkscape:version="1.0.1 (3bc2e813f5, 2020-09-07)">
  <style
     id="style859"></style>
  <metadata
     id="metadata34">
    <rdf:RDF>
      <cc:Work
         rdf:about="">
        <dc:format>image/svg+xml</dc:format>
        <dc:type
           rdf:resource="http://purl.org/dc/dcmitype/StillImage" />
      </cc:Work>
    </rdf:RDF>
  </metadata>
  <defs
     id="defs16">
    <linearGradient
       id="c"
       y1="523.79999"
       x1="403.57001"
       y2="536.79999"
       x2="416.57001"
       gradientUnits="userSpaceOnUse"
       gradientTransform="matrix(0.34526714,0,0,0.34526706,-134.80427,-174.63325)">
      <stop
         stop-color="#292c2f"
         id="stop1568" />
      <stop
         offset="1"
         stop-opacity="0"
         id="stop1570" />
    </linearGradient>
    <linearGradient
       xlink:href="#b-2"
       id="linearGradient4189"
       x1="14.369"
       y1="22.521999"
       x2="26.521999"
       y2="22.521999"
       gradientUnits="userSpaceOnUse" />
    <linearGradient
       x1="36"
       gradientUnits="userSpaceOnUse"
       x2="14"
       y2="12"
       y1="44"
       id="b-2">
      <stop
         style="stop-color:#bfc9c9;stop-opacity:1"
         stop-color="#536161"
         id="stop1579" />
      <stop
         style="stop-color:#fbfbfb;stop-opacity:1"
         stop-color="#f4f5f5"
         offset="1"
         id="stop1581" />
    </linearGradient>
    <linearGradient
       xlink:href="#b-2"
       id="linearGradient4428"
       gradientUnits="userSpaceOnUse"
       x1="31.586"
       y1="36.345001"
       x2="1.2029999"
       y2="6.723" />
    <linearGradient
       xlink:href="#b-2"
       id="linearGradient4189-3"
       x1="14.369"
       y1="22.521999"
       x2="26.521999"
       y2="22.521999"
       gradientUnits="userSpaceOnUse"
       gradientTransform="translate(20.841982,61.553822)" />
    <linearGradient
       xlink:href="#b-2"
       id="linearGradient4428-5"
       gradientUnits="userSpaceOnUse"
       x1="31.586"
       y1="36.345001"
       x2="1.2029999"
       y2="6.723"
       gradientTransform="translate(20.841982,61.553822)" />
    <linearGradient
       xlink:href="#b-2"
       id="linearGradient4189-3-3"
       x1="14.369"
       y1="22.521999"
       x2="26.521999"
       y2="22.521999"
       gradientUnits="userSpaceOnUse"
       gradientTransform="translate(4.376802,4.4211693)" />
    <linearGradient
       xlink:href="#b-2"
       id="linearGradient4428-5-5"
       gradientUnits="userSpaceOnUse"
       x1="31.586"
       y1="36.345001"
       x2="1.2029999"
       y2="6.723"
       gradientTransform="translate(4.376802,4.4211693)" />
    <linearGradient
       inkscape:collect="always"
       xlink:href="#linearGradient14"
       id="linearGradient15"
       x1="-9.6850061"
       y1="45.161198"
       x2="11.98815"
       y2="21.735205"
       gradientUnits="userSpaceOnUse"
       gradientTransform="scale(0.26457813)" />
    <linearGradient
       id="linearGradient14"
       inkscape:collect="always">
      <stop
         style="stop-color:#9955ff;stop-opacity:0.45197046;"
         offset="0"
         id="stop12" />
      <stop
         style="stop-color:#ffb380;stop-opacity:1;"
         offset="1"
         id="stop13" />
    </linearGradient>
    <linearGradient
       inkscape:collect="always"
       xlink:href="#linearGradient12"
       id="linearGradient24"
       x1="5.5779462"
       y1="11.13398"
       x2="10.370274"
       y2="6.1538453"
       gradientUnits="userSpaceOnUse"
       gradientTransform="matrix(0.57325235,0,0,0.57325235,2.8221658,2.8221671)" />
    <linearGradient
       id="linearGradient12"
       inkscape:collect="always">
      <stop
         style="stop-color:#ffb380;stop-opacity:1"
         offset="0"
         id="stop10-3" />
      <stop
         style="stop-color:#8787de;stop-opacity:1"
         offset="0.40085706"
         id="stop11-6" />
      <stop
         style="stop-color:#5858d1;stop-opacity:1;"
         offset="1"
         id="stop12-7" />
    </linearGradient>
    <linearGradient
       inkscape:collect="always"
       xlink:href="#linearGradient14"
       id="linearGradient867"
       x1="-12.025727"
       y1="6.1170783"
       x2="-0.085100174"
       y2="6.1170783"
       gradientUnits="userSpaceOnUse" />
  </defs>
  <sodipodi:namedview
     id="namedview14"
     pagecolor="#000000"
     bordercolor="#666666"
     borderopacity="1.0"
     inkscape:showpageshadow="2"
     inkscape:pageopacity="0.0"
     inkscape:pagecheckerboard="0"
     inkscape:deskcolor="#d1d1d1"
     showgrid="false"
     inkscape:zoom="7.5172018"
     inkscape:cx="23.845543"
     inkscape:cy="38.371639"
     inkscape:window-width="1920"
     inkscape:window-height="988"
     inkscape:window-x="0"
     inkscape:window-y="0"
     inkscape:window-maximized="1"
     inkscape:current-layer="svg12"
     inkscape:document-rotation="0">
    <inkscape:grid
       type="xygrid"
       id="grid244"
       originx="9.9594769"
       originy="-31.57929"
       spacingy="1"
       spacingx="1"
       units="px"
       visible="false" />
  </sodipodi:namedview>
  <rect
     x="-12.194976"
     y="0.32004508"
     width="11.940627"
     height="11.936014"
     rx="1.6121091"
     shape-rendering="crispEdges"
     id="rect5-6-7-3"
     ry="1.7735944"
     transform="matrix(0.00523883,-0.99998628,0.999988,0.00489859,0,0)"
     style="fill:#80b3ff;fill-opacity:0.15;stroke:url(#linearGradient867);stroke-width:0.5291563;stroke-miterlimit:4;stroke-dasharray:none;stroke-opacity:1" />
  <rect
     x="-3.7202365"
     y="4.8851409"
     width="7.912631"
     height="7.912384"
     rx="1.612043"
     shape-rendering="crispEdges"
     id="rect5-6-6-6-6"
     style="fill:#80b3ff;fill-opacity:0.122146;stroke:url(#linearGradient15);stroke-width:0.42332506;stroke-opacity:1;stroke-miterlimit:4;stroke-dasharray:none"
     ry="1.7735215"
     transform="matrix(0.72612649,-0.68756114,0.6879775,0.72573202,0,0)" />
  <path
     class="ColorScheme-Text"
     fill-rule="evenodd"
     d="m 5.0342502,3.3450216 c -0.1119346,0 -0.2035183,0.091584 -0.2035183,0.203523 V 4.159108 c 0,0.1119378 0.091582,0.203522 0.2035183,0.203522 0.1119361,0 0.2035214,-0.091583 0.2035214,-0.203522 V 3.5485446 c 0,-0.1119371 -0.091584,-0.203523 -0.2035214,-0.203523 z m 2.4422707,0 c -0.1119495,0 -0.203534,0.091584 -0.203534,0.203523 V 4.159108 c 0,0.1119378 0.091583,0.203522 0.203534,0.203522 0.1119164,0 0.2035053,-0.091583 0.2035053,-0.203522 V 3.5485446 c 0,-0.1119371 -0.091588,-0.203523 -0.2035053,-0.203523 z M 4.016644,5.1767144 h 4.4774848 v 2.8492972 c 0,0.1119463 -0.091588,0.2035278 -0.2035337,0.2035278 H 4.2201635 c -0.1119366,0 -0.2035195,-0.09158 -0.2035195,-0.2035278 z m 0.2035195,-1.424649 c -0.3372025,0 -0.6105628,0.2733598 -0.6105628,0.6105646 v 3.6633816 c 0,0.3372127 0.2733603,0.6105727 0.6105628,0.6105727 h 4.0704316 c 0.3371963,0 0.6105669,-0.27336 0.6105669,-0.6105727 V 4.36263 c 0,-0.3372048 -0.2733706,-0.6105646 -0.6105669,-0.6105646 H 7.8835643 v 0.4070431 c 0,0.2248029 -0.182266,0.4070436 -0.4070434,0.4070436 -0.2248084,0 -0.4070618,-0.1822407 -0.4070618,-0.4070436 V 3.7520654 H 5.4412922 v 0.4070431 c 0,0.2248029 -0.1822388,0.4070436 -0.407042,0.4070436 -0.2248013,0 -0.4070397,-0.1822407 -0.4070397,-0.4070436 V 3.7520654 Z m 1.8528703,3.929007 H 4.8122276 v 0 q 0,-0.65912 0.6460333,-1.0099375 v 0 0 Q 5.5911155,6.5993737 5.6666564,6.5236257 v 0 0 q 0.075547,-0.075737 0.075547,-0.1847141 v 0 0 q 0,-0.1089659 -0.076852,-0.1780686 v 0 0 q -0.076844,-0.0691 -0.2018827,-0.0691 v 0 0 q -0.2448635,0 -0.3412523,0.2285658 v 0 L 4.8408846,6.190082 v 0 Q 4.9138205,6.0066942 5.0805414,5.8977269 v 0 0 Q 5.2472554,5.788764 5.4608648,5.788764 v 0 0 q 0.2735208,0 0.4350282,0.1541477 v 0 0 q 0.1615089,0.1541468 0.1615089,0.3959999 v 0 0 q 0,0.2179341 -0.1081055,0.3441833 v 0 0 q -0.1081063,0.126239 -0.3347369,0.253806 v 0 0 Q 5.4243953,7.0432174 5.3227994,7.1442073 v 0 0 Q 5.221207,7.2452037 5.1873435,7.372768 v 0 H 6.0730338 Z M 6.8675513,6.455854 v 0 0 q 0.070332,0.06378 0.1849423,0.06378 v 0 0 q 0.1146253,0 0.186255,-0.06378 v 0 0 q 0.071658,-0.063781 0.071658,-0.1594636 v 0 0 q 0,-0.095679 -0.07166,-0.1554762 v 0 0 Q 7.1671188,6.0811063 7.0524939,6.0811063 v 0 0 q -0.114607,0 -0.1849422,0.05981 v 0 0 q -0.070333,0.059799 -0.070333,0.1554756 v 0 0 q 0,0.095678 0.070333,0.1594621 z m -0.049498,0.8797106 v 0 0 q 0.091172,0.082388 0.2344417,0.082388 v 0 0 q 0.143279,0 0.2370502,-0.083713 v 0 0 q 0.093805,-0.08372 0.093805,-0.2139483 v 0 0 q 0,-0.1275713 -0.09509,-0.2152731 v 0 0 Q 7.1931627,6.8173063 7.0524936,6.8173063 v 0 0 q -0.1432674,0 -0.2344413,0.086374 v 0 0 q -0.091171,0.086378 -0.091171,0.2166065 v 0 0 q 0,0.1328849 0.091173,0.2152776 z m 0.7033279,0.2152772 v 0 0 Q 7.3442712,7.71297 7.0524946,7.71297 v 0 0 q -0.2917501,0 -0.4675856,-0.1621282 v 0 0 Q 6.4090714,7.3887246 6.4090714,7.1282639 v 0 0 q 0,-0.31893 0.3047826,-0.465109 v 0 0 Q 6.4846157,6.5329269 6.4846157,6.2777848 v 0 0 q 0,-0.2152779 0.1549966,-0.3521524 v 0 0 Q 6.7946079,5.788764 7.0524936,5.788764 v 0 0 q 0.2579112,0 0.4141931,0.1368677 v 0 0 Q 7.622975,6.0625069 7.622975,6.2777848 v 0 0 q 0,0.2524892 -0.2292302,0.3827172 v 0 0 Q 7.5344185,6.729603 7.6164703,6.8492 v 0 0 q 0.082058,0.1195957 0.082058,0.279063 v 0 0 q 0,0.2604616 -0.1771471,0.4225788 z"
     id="path22"
     style="color:#d5c289;isolation:isolate;fill:url(#linearGradient24);stroke-width:0.573206" />
</svg>
