<?xml version="1.0" encoding="UTF-8" standalone="no"?>
<svg
   xmlns:dc="http://purl.org/dc/elements/1.1/"
   xmlns:cc="http://creativecommons.org/ns#"
   xmlns:rdf="http://www.w3.org/1999/02/22-rdf-syntax-ns#"
   xmlns:svg="http://www.w3.org/2000/svg"
   xmlns="http://www.w3.org/2000/svg"
   xmlns:xlink="http://www.w3.org/1999/xlink"
   xmlns:sodipodi="http://sodipodi.sourceforge.net/DTD/sodipodi-0.dtd"
   xmlns:inkscape="http://www.inkscape.org/namespaces/inkscape"
   width="47.285591"
   height="47.28569"
   version="1.1"
   viewBox="0 0 12.510734 12.51076"
   id="svg12"
   sodipodi:docname="qemu.svg"
   inkscape:version="1.0.1 (3bc2e813f5, 2020-09-07)">
  <style
     id="style867"></style>
  <metadata
     id="metadata42">
    <rdf:RDF>
      <cc:Work
         rdf:about="">
        <dc:format>image/svg+xml</dc:format>
        <dc:type
           rdf:resource="http://purl.org/dc/dcmitype/StillImage" />
      </cc:Work>
    </rdf:RDF>
  </metadata>
  <defs
     id="defs16">
    <linearGradient
       id="c"
       y1="523.79999"
       x1="403.57001"
       y2="536.79999"
       x2="416.57001"
       gradientUnits="userSpaceOnUse"
       gradientTransform="matrix(0.34526714,0,0,0.34526706,-134.80427,-174.63325)">
      <stop
         stop-color="#292c2f"
         id="stop1568" />
      <stop
         offset="1"
         stop-opacity="0"
         id="stop1570" />
    </linearGradient>
    <linearGradient
       xlink:href="#b-2"
       id="linearGradient4189"
       x1="14.369"
       y1="22.521999"
       x2="26.521999"
       y2="22.521999"
       gradientUnits="userSpaceOnUse" />
    <linearGradient
       x1="36"
       gradientUnits="userSpaceOnUse"
       x2="14"
       y2="12"
       y1="44"
       id="b-2">
      <stop
         style="stop-color:#bfc9c9;stop-opacity:1"
         stop-color="#536161"
         id="stop1579" />
      <stop
         style="stop-color:#fbfbfb;stop-opacity:1"
         stop-color="#f4f5f5"
         offset="1"
         id="stop1581" />
    </linearGradient>
    <linearGradient
       xlink:href="#b-2"
       id="linearGradient4428"
       gradientUnits="userSpaceOnUse"
       x1="31.586"
       y1="36.345001"
       x2="1.2029999"
       y2="6.723" />
    <linearGradient
       xlink:href="#b-2"
       id="linearGradient4189-3"
       x1="14.369"
       y1="22.521999"
       x2="26.521999"
       y2="22.521999"
       gradientUnits="userSpaceOnUse"
       gradientTransform="translate(20.841982,61.553822)" />
    <linearGradient
       xlink:href="#b-2"
       id="linearGradient4428-5"
       gradientUnits="userSpaceOnUse"
       x1="31.586"
       y1="36.345001"
       x2="1.2029999"
       y2="6.723"
       gradientTransform="translate(20.841982,61.553822)" />
    <linearGradient
       xlink:href="#b-2"
       id="linearGradient4189-3-3"
       x1="14.369"
       y1="22.521999"
       x2="26.521999"
       y2="22.521999"
       gradientUnits="userSpaceOnUse"
       gradientTransform="translate(4.376802,4.4211693)" />
    <linearGradient
       xlink:href="#b-2"
       id="linearGradient4428-5-5"
       gradientUnits="userSpaceOnUse"
       x1="31.586"
       y1="36.345001"
       x2="1.2029999"
       y2="6.723"
       gradientTransform="translate(4.376802,4.4211693)" />
    <linearGradient
       inkscape:collect="always"
       xlink:href="#linearGradient14"
       id="linearGradient15"
       x1="-9.6850061"
       y1="45.161198"
       x2="11.98815"
       y2="21.735205"
       gradientUnits="userSpaceOnUse"
       gradientTransform="scale(0.26457813)" />
    <linearGradient
       id="linearGradient14"
       inkscape:collect="always">
      <stop
         style="stop-color:#ff9900;stop-opacity:0.34509805;"
         offset="0"
         id="stop12" />
      <stop
         style="stop-color:#ffb685;stop-opacity:0.81568629;"
         offset="1"
         id="stop13" />
    </linearGradient>
    <filter
       id="filter2917-3"
       x="-0.96181148"
       y="-0.66745996"
       width="2.9236228"
       height="2.3349199"
       color-interpolation-filters="sRGB">
      <feGaussianBlur
         stdDeviation="0.2871969"
         id="feGaussianBlur732-5" />
    </filter>
    <filter
       id="filter1"
       x="-0.96181148"
       y="-0.66745996"
       width="2.9236228"
       height="2.3349199"
       color-interpolation-filters="sRGB">
      <feGaussianBlur
         stdDeviation="0.2871969"
         id="feGaussianBlur1" />
    </filter>
    <filter
       id="filter2"
       x="-0.96181148"
       y="-0.66745996"
       width="2.9236228"
       height="2.3349199"
       color-interpolation-filters="sRGB">
      <feGaussianBlur
         stdDeviation="0.2871969"
         id="feGaussianBlur2" />
    </filter>
    <linearGradient
       id="_lgradient_20"
       x1="-0.29991642"
       y1="-0.26140401"
       x2="0.96725708"
       y2="0.86616999"
       gradientTransform="matrix(15.137397,0,0,16.82717,0.89780187,0.05291536)"
       gradientUnits="userSpaceOnUse">
      <stop
         offset="34.94098066785295%"
         stop-opacity="1"
         style="stop-color:rgb(178,229,107)"
         id="stop1" />
      <stop
         offset="53.84922244785295%"
         stop-opacity="1"
         style="stop-color:rgb(194,233,100)"
         id="stop2" />
      <stop
         offset="90.40515655585295%"
         stop-opacity="1"
         style="stop-color:rgb(236,244,81)"
         id="stop3" />
      <stop
         offset="100%"
         stop-opacity="1"
         style="stop-color:rgb(250,247,75)"
         id="stop4" />
    </linearGradient>
    <linearGradient
       inkscape:collect="always"
       xlink:href="#linearGradient14"
       id="linearGradient875"
       x1="-12.025727"
       y1="6.1170783"
       x2="-0.085100174"
       y2="6.1170783"
       gradientUnits="userSpaceOnUse" />
  </defs>
  <sodipodi:namedview
     id="namedview14"
     pagecolor="#000000"
     bordercolor="#666666"
     borderopacity="1.0"
     inkscape:showpageshadow="2"
     inkscape:pageopacity="0.0"
     inkscape:pagecheckerboard="0"
     inkscape:deskcolor="#d1d1d1"
     showgrid="false"
     inkscape:zoom="8.8545525"
     inkscape:cx="13.930989"
     inkscape:cy="20.507257"
     inkscape:window-width="1920"
     inkscape:window-height="988"
     inkscape:window-x="0"
     inkscape:window-y="0"
     inkscape:window-maximized="1"
     inkscape:current-layer="svg12"
     inkscape:document-rotation="0">
    <inkscape:grid
       type="xygrid"
       id="grid244"
       originx="9.9594769"
       originy="-31.57929"
       spacingy="1"
       spacingx="1"
       units="px"
       visible="false" />
  </sodipodi:namedview>
  <rect
     x="-12.194976"
     y="0.32004508"
     width="11.940627"
     height="11.936014"
     rx="1.6121091"
     shape-rendering="crispEdges"
     id="rect5-6-7-3"
     ry="1.7735944"
     transform="matrix(0.00523883,-0.99998628,0.999988,0.00489859,0,0)"
     style="fill:#ffe0cc;fill-opacity:0.0980392;stroke:url(#linearGradient875);stroke-width:0.5291563;stroke-miterlimit:4;stroke-dasharray:none;stroke-opacity:1" />
  <rect
     x="-3.7202365"
     y="4.8851409"
     width="7.912631"
     height="7.912384"
     rx="1.612043"
     shape-rendering="crispEdges"
     id="rect5-6-6-6-6"
     style="fill:#ffc299;fill-opacity:0.101961;stroke:url(#linearGradient15);stroke-width:0.42332506;stroke-opacity:1;stroke-miterlimit:4;stroke-dasharray:none"
     ry="1.7735215"
     transform="matrix(0.72612649,-0.68756114,0.6879775,0.72573202,0,0)" />
  <path
     style="opacity:0.2;stroke-width:0.264578"
     d="M 5.0686502,3.231658 C 5.0642679,3.3981945 4.772174,3.253928 4.7594808,3.4443164 4.4354991,3.301007 4.7841638,3.6623842 4.7517621,3.6959626 h -0.00178 l -0.024379,-0.00236 C 4.7099426,3.6880674 4.6872139,3.6787168 4.65364,3.6581634 4.5853553,3.71221 4.5370772,3.7837869 4.4966783,3.8631343 4.2266029,4.280565 4.0949701,4.628986 4.0061691,5.0687928 3.8927739,5.6303903 3.8651307,6.2866273 3.8765549,6.8403537 c 0.01217,0.1561135 0.051452,0.3036451 0.1801507,0.4022728 0.3625947,0.2959241 0.664082,0.6699414 0.9685335,1.0260811 0.5993578,0.8073231 1.1244462,1.4960289 1.466772,2.2199234 C 6.4543285,10.245347 6.4054449,9.8584884 6.3820217,9.5594345 6.1741619,8.5056103 5.7493494,7.9483784 5.7006596,6.7712444 5.6892427,6.4800616 6.0052659,5.8915765 6.3588344,5.5827175 6.8923617,5.1166511 7.2780131,5.2339949 7.9587876,5.3340229 c 0.0037,0.00105 0.00878,0.00197 0.012484,0.0023 0.022594,0.00368 0.047138,0.00817 0.069565,0.012415 0.1818876,0.016103 0.5473772,0.086328 0.612985,-0.038383 C 8.4028365,5.0981626 8.041971,5.07085 7.7364272,4.9873742 7.688059,4.9786414 7.6276642,4.9686449 7.5681675,4.963172 L 7.2691064,4.8968366 7.1941907,4.8773517 v 0.00265 L 6.1233945,4.6724751 c -0.01704,-0.015422 -0.035799,-0.030871 -0.052917,-0.042533 l 1.044637,0.1287747 v -0.00535 c 0.036826,0.00817 0.073638,0.015205 0.1105867,0.019471 v 0.00274 l 0.7384407,0.1353176 c 0.1274049,0.047216 0.2631783,0.083067 0.3906232,0.090973 0.2103663,0.030411 0.4773856,0.342407 0.5463955,0.3573912 C 8.8673418,5.0306116 8.5376515,4.8833526 8.2638002,4.7870149 7.9438584,4.6324664 7.4654108,4.6378739 7.4147727,4.2104779 7.4013022,4.1806988 7.3883372,4.1510432 7.3719653,4.1224598 L 7.2471082,3.9582403 7.251849,3.9558603 C 7.0817937,3.7564448 6.8426948,3.6108536 6.5883382,3.5553714 6.3358788,3.4687919 6.0520948,3.3830393 5.7850916,3.3486201 5.6944815,3.6136888 5.5933272,3.1385715 5.3754421,3.2795063 5.1844557,3.3019778 5.2108465,3.3518797 5.0686502,3.231658 Z m 1.3196191,0.5975114 c 0.067413,-0.00226 0.144626,0.012948 0.2220673,0.046078 C 6.8168453,3.9635844 6.9511174,4.1499576 6.91148,4.2919992 6.8718409,4.4340381 6.6717728,4.47603 6.4652647,4.3876936 6.2587562,4.2993585 6.1244848,4.1156416 6.1641216,3.9736 6.1888964,3.8848248 6.2759096,3.8328428 6.3882693,3.8291694 Z"
     id="path2" />
  <path
     style="fill:#ff944b;fill-opacity:1;stroke-width:0.264578"
     d="m 5.0686502,3.0804435 c -0.00438,0.1665366 -0.2964762,0.022273 -0.3091694,0.2126584 -0.3239817,-0.1433091 0.024683,0.218068 -0.00772,0.2516457 h -0.00177 l -0.024401,-0.00238 C 4.7099557,3.5368299 4.6872255,3.527496 4.65365,3.5069426 4.5853622,3.560993 4.5370849,3.6325701 4.4966851,3.7119174 4.2266107,4.1293481 4.0949772,4.4777723 4.006176,4.917573 3.8927812,5.4791795 3.8651387,6.1354086 3.8765627,6.6891381 3.8887314,6.8452506 3.9280173,6.9927848 4.056713,7.0914178 4.4193077,7.3873357 4.720795,7.7613516 5.0252466,8.1174967 5.6246043,8.9248149 6.1496928,9.6135201 6.4920188,10.337416 6.4543311,10.094137 6.4054483,9.7072696 6.382025,9.4082149 6.1741643,8.3543884 5.7493523,7.7971597 5.7006629,6.6200241 5.6892463,6.3288408 6.0052687,5.740357 6.3588374,5.4314967 6.8923654,4.9654311 7.278016,5.0827824 7.9587902,5.1828081 c 0.00368,9.82e-4 0.00878,0.00203 0.012489,0.00245 0.022589,0.00368 0.04714,0.00811 0.069564,0.012415 0.1818886,0.016122 0.5473783,0.086337 0.6129859,-0.038392 C 8.4028343,4.9470155 8.0419688,4.9197057 7.7364249,4.8362281 7.6880571,4.8274782 7.627662,4.8174931 7.5681651,4.8119996 L 7.2691046,4.7458176 7.1941909,4.7263246 v 0.00272 L 6.1233945,4.5212264 c -0.017036,-0.015407 -0.035803,-0.030863 -0.052917,-0.042546 l 1.0446362,0.1287794 v -0.00539 c 0.036826,0.00816 0.073639,0.015181 0.1105882,0.019484 v 0.00267 l 0.7384404,0.1353119 c 0.1274054,0.047223 0.2631791,0.08308 0.3906239,0.090984 0.2103676,0.030423 0.4773879,0.3424274 0.5463977,0.357405 C 8.8673417,4.8793722 8.5376513,4.7321174 8.2638001,4.6357805 7.9438584,4.4812518 7.4654108,4.4866607 7.4147727,4.0592636 7.4013022,4.0294844 7.3883372,3.9998288 7.3719643,3.9712465 L 7.2471072,3.8070268 7.251848,3.8046468 C 7.0817937,3.6052303 6.8426948,3.4596392 6.5883382,3.4041569 6.3358788,3.3175774 6.0520948,3.2318245 5.7850916,3.1974055 5.6944815,3.4624744 5.5933272,2.9873567 5.3754421,3.1282915 5.1844557,3.1507638 5.2108465,3.200665 5.0686502,3.0804435 Z m 1.3196191,0.5975117 c 0.067415,-0.00225 0.144626,0.012944 0.2220673,0.046079 C 6.8168453,3.8123682 6.9511174,3.998743 6.91148,4.1407842 6.8718429,4.2828239 6.6717728,4.3248147 6.4652647,4.2364796 6.2587562,4.148144 6.1244848,3.9644271 6.1641216,3.8223855 6.1888966,3.7336106 6.2759096,3.6816279 6.3882693,3.6779552 Z"
     id="path3" />
  <path
     style="opacity:0.35;fill:#ffffff;stroke-width:0.264578"
     d="M 5.0686502,3.0804435 C 5.064258,3.2469801 4.772174,3.1027165 4.7594808,3.2931019 4.5513097,3.2010169 4.6213122,3.3163039 4.6890253,3.4201066 c 0.019596,0.00522 0.039481,0.010548 0.070456,0.02422 0.012698,-0.190388 0.3047986,-0.046125 0.3091694,-0.2126591 0.1421963,0.1202218 0.1158055,0.070317 0.3067919,0.047853 0.2178851,-0.1409344 0.3190394,0.3341829 0.4096495,0.069115 0.2670032,0.034422 0.5507872,0.1201715 0.8032466,0.2067514 0.2543566,0.055483 0.4934555,0.2010747 0.6635256,0.4005073 l -0.00476,0.00237 0.1248567,0.1642197 c 0.01637,0.028578 0.029334,0.058237 0.042815,0.088015 0.050639,0.4273948 0.529086,0.4219884 0.8490279,0.5765416 0.2126186,0.074797 0.4572242,0.1816045 0.5725573,0.3786506 0.027517,0.022088 0.051039,0.038939 0.064804,0.041911 C 8.8673345,4.8793945 8.5376508,4.7321348 8.2637994,4.6358022 7.9438584,4.4812533 7.4654108,4.4866619 7.4147727,4.0592646 7.4013022,4.0294855 7.3883381,3.9998298 7.3719634,3.9712475 L 7.2471062,3.8070278 7.251847,3.8046478 C 7.0817937,3.6052303 6.8426948,3.4596392 6.5883382,3.4041569 6.3358788,3.3175775 6.0520948,3.2318245 5.7850916,3.1974055 5.6944815,3.4624744 5.5933272,2.9873567 5.3754421,3.1282915 5.1844557,3.1507638 5.2108465,3.200665 5.0686502,3.0804435 Z M 4.6503794,3.510191 C 4.5840083,3.5638917 4.536365,3.6339885 4.4966868,3.7119214 4.2266115,4.1293522 4.0949787,4.4777758 4.0061776,4.9175785 3.9115079,5.3864478 3.8785633,5.9180509 3.8762664,6.4041202 3.8847046,5.9609687 3.9214278,5.4885317 4.0061776,5.0688009 4.0949776,4.6289964 4.2266115,4.2805755 4.4966868,3.8631453 4.5370861,3.7837973 4.5853645,3.7122199 4.65365,3.6581658 c 0.033572,0.020553 0.056308,0.029899 0.071938,0.035444 l 0.024381,0.00237 h 0.00177 C 4.767514,3.6796498 4.693679,3.5858212 4.6503822,3.5101942 Z m 1.522958,0.4451064 c -0.00265,0.00643 -0.0073,0.011463 -0.00925,0.01831 -0.039635,0.1420416 0.094639,0.3257586 0.3011427,0.4140932 0.2065079,0.088333 0.4065771,0.046342 0.446215,-0.0957 0.011566,-0.041427 0.00685,-0.086583 -0.00862,-0.1320247 C 6.8504575,4.2855218 6.6615613,4.3204453 6.4652648,4.2364793 6.3196155,4.1741745 6.2114498,4.0644099 6.1733411,3.955297 Z M 6.0704788,4.6298961 c 0.017121,0.011673 0.035879,0.027115 0.052919,0.042536 l 1.0707963,0.2073383 v -0.00265 l 0.074916,0.019464 0.2990617,0.066158 c 0.05949,0.00564 0.1198917,0.015456 0.1682601,0.024203 0.2572909,0.070272 0.5530584,0.1019248 0.7901661,0.2365798 0.05783,-0.00877 0.1039218,-0.026485 0.1245618,-0.061164 -0.040563,-0.032245 -0.082646,-0.064081 -0.1257523,-0.090675 -0.02555,-0.014484 -0.051084,-0.02882 -0.077887,-0.041038 -0.00826,-0.00369 -0.016951,-0.00665 -0.025267,-0.010048 -0.022812,-0.0086 -0.04561,-0.016321 -0.06748,-0.019457 C 8.2273267,4.9932741 8.0915533,4.9573741 7.9641479,4.9101641 L 7.2257029,4.7751243 v -0.00274 c -0.036948,-0.00439 -0.073764,-0.01139 -0.1105875,-0.019494 v 0.00535 z M 5.7060157,6.7071609 c -0.00195,0.021528 -0.00606,0.044968 -0.0054,0.064161 0.04869,1.177124 0.4735017,1.7343612 0.6813624,2.7881813 0.017962,0.2293665 0.050372,0.4941758 0.081746,0.7224578 0.009,0.01857 0.019436,0.03693 0.028238,0.05551 C 6.4543268,10.094153 6.4054443,9.707285 6.3820211,9.4082326 6.1794556,8.3812402 5.7717545,7.8242608 5.7060118,6.7071652 Z"
     id="path6" />
</svg>
