<?xml version="1.0" encoding="UTF-8" standalone="no"?>
<svg
   xmlns:dc="http://purl.org/dc/elements/1.1/"
   xmlns:cc="http://creativecommons.org/ns#"
   xmlns:rdf="http://www.w3.org/1999/02/22-rdf-syntax-ns#"
   xmlns:svg="http://www.w3.org/2000/svg"
   xmlns="http://www.w3.org/2000/svg"
   xmlns:xlink="http://www.w3.org/1999/xlink"
   xmlns:sodipodi="http://sodipodi.sourceforge.net/DTD/sodipodi-0.dtd"
   xmlns:inkscape="http://www.inkscape.org/namespaces/inkscape"
   width="47.285591"
   height="47.28569"
   version="1.1"
   viewBox="0 0 12.510734 12.51076"
   id="svg12"
   sodipodi:docname="reddit-is-a-dead-bird.svg"
   inkscape:version="1.0.1 (3bc2e813f5, 2020-09-07)">
  <style
     id="style855"></style>
  <metadata
     id="metadata30">
    <rdf:RDF>
      <cc:Work
         rdf:about="">
        <dc:format>image/svg+xml</dc:format>
        <dc:type
           rdf:resource="http://purl.org/dc/dcmitype/StillImage" />
      </cc:Work>
    </rdf:RDF>
  </metadata>
  <defs
     id="defs16">
    <linearGradient
       id="c"
       y1="523.79999"
       x1="403.57001"
       y2="536.79999"
       x2="416.57001"
       gradientUnits="userSpaceOnUse"
       gradientTransform="matrix(0.34526714,0,0,0.34526706,-134.80427,-174.63325)">
      <stop
         stop-color="#292c2f"
         id="stop1568" />
      <stop
         offset="1"
         stop-opacity="0"
         id="stop1570" />
    </linearGradient>
    <linearGradient
       xlink:href="#b-2"
       id="linearGradient4189"
       x1="14.369"
       y1="22.521999"
       x2="26.521999"
       y2="22.521999"
       gradientUnits="userSpaceOnUse" />
    <linearGradient
       x1="36"
       gradientUnits="userSpaceOnUse"
       x2="14"
       y2="12"
       y1="44"
       id="b-2">
      <stop
         style="stop-color:#bfc9c9;stop-opacity:1"
         stop-color="#536161"
         id="stop1579" />
      <stop
         style="stop-color:#fbfbfb;stop-opacity:1"
         stop-color="#f4f5f5"
         offset="1"
         id="stop1581" />
    </linearGradient>
    <linearGradient
       xlink:href="#b-2"
       id="linearGradient4428"
       gradientUnits="userSpaceOnUse"
       x1="31.586"
       y1="36.345001"
       x2="1.2029999"
       y2="6.723" />
    <linearGradient
       xlink:href="#b-2"
       id="linearGradient4189-3"
       x1="14.369"
       y1="22.521999"
       x2="26.521999"
       y2="22.521999"
       gradientUnits="userSpaceOnUse"
       gradientTransform="translate(20.841982,61.553822)" />
    <linearGradient
       xlink:href="#b-2"
       id="linearGradient4428-5"
       gradientUnits="userSpaceOnUse"
       x1="31.586"
       y1="36.345001"
       x2="1.2029999"
       y2="6.723"
       gradientTransform="translate(20.841982,61.553822)" />
    <linearGradient
       xlink:href="#b-2"
       id="linearGradient4189-3-3"
       x1="14.369"
       y1="22.521999"
       x2="26.521999"
       y2="22.521999"
       gradientUnits="userSpaceOnUse"
       gradientTransform="translate(4.376802,4.4211693)" />
    <linearGradient
       xlink:href="#b-2"
       id="linearGradient4428-5-5"
       gradientUnits="userSpaceOnUse"
       x1="31.586"
       y1="36.345001"
       x2="1.2029999"
       y2="6.723"
       gradientTransform="translate(4.376802,4.4211693)" />
    <linearGradient
       inkscape:collect="always"
       xlink:href="#linearGradient14"
       id="linearGradient15"
       x1="-9.6850061"
       y1="45.161198"
       x2="11.98815"
       y2="21.735205"
       gradientUnits="userSpaceOnUse"
       gradientTransform="scale(0.26457813)" />
    <linearGradient
       id="linearGradient14"
       inkscape:collect="always">
      <stop
         style="stop-color:#ff4500;stop-opacity:1"
         offset="0"
         id="stop12" />
      <stop
         style="stop-color:#c83771;stop-opacity:1"
         offset="1"
         id="stop13" />
    </linearGradient>
    <linearGradient
       inkscape:collect="always"
       xlink:href="#linearGradient14"
       id="linearGradient863"
       x1="-12.025727"
       y1="6.1170783"
       x2="-0.085100174"
       y2="6.1170783"
       gradientUnits="userSpaceOnUse" />
  </defs>
  <sodipodi:namedview
     id="namedview14"
     pagecolor="#000000"
     bordercolor="#666666"
     borderopacity="1.0"
     inkscape:showpageshadow="2"
     inkscape:pageopacity="0.0"
     inkscape:pagecheckerboard="0"
     inkscape:deskcolor="#d1d1d1"
     showgrid="false"
     inkscape:zoom="6.2611141"
     inkscape:cx="23.845543"
     inkscape:cy="54.335026"
     inkscape:window-width="1920"
     inkscape:window-height="988"
     inkscape:window-x="0"
     inkscape:window-y="0"
     inkscape:window-maximized="1"
     inkscape:current-layer="svg12"
     inkscape:document-rotation="0">
    <inkscape:grid
       type="xygrid"
       id="grid244"
       originx="9.9594769"
       originy="-31.57929"
       spacingy="1"
       spacingx="1"
       units="px"
       visible="false" />
  </sodipodi:namedview>
  <rect
     x="-12.194976"
     y="0.32004508"
     width="11.940627"
     height="11.936014"
     rx="1.6121091"
     shape-rendering="crispEdges"
     id="rect5-6-7-3"
     ry="1.7735944"
     transform="matrix(0.00523883,-0.99998628,0.999988,0.00489859,0,0)"
     style="fill:#ff4500;fill-opacity:0.0776256;stroke:url(#linearGradient863);stroke-width:0.5291563;stroke-miterlimit:4;stroke-dasharray:none;stroke-opacity:1" />
  <rect
     x="-3.7202365"
     y="4.8851409"
     width="7.912631"
     height="7.912384"
     rx="1.612043"
     shape-rendering="crispEdges"
     id="rect5-6-6-6-6"
     style="fill:#ff4500;fill-opacity:0.06621;stroke:url(#linearGradient15);stroke-width:0.42332506;stroke-opacity:1;stroke-miterlimit:4;stroke-dasharray:none"
     ry="1.7735215"
     transform="matrix(0.72612649,-0.68756114,0.6879775,0.72573202,0,0)" />
  <path
     style="opacity:0.2;stroke-width:0.743383"
     d="m 6.6405342,2.4757128 c -0.095906,-0.00145 -0.1779717,0.06778 -0.1918304,0.161657 L 6.1210245,4.7484288 C 5.3682955,4.770499 4.6540747,4.9808117 4.115388,5.3389333 3.9726289,5.20006 3.7804574,5.1221344 3.580203,5.1219203 c -0.4221337,0 -0.7643393,0.3384109 -0.7643367,0.7558533 2.048e-4,0.2819117 0.1590399,0.5402831 0.4120251,0.670222 -0.018866,0.090984 -0.028842,0.1827111 -0.029858,0.274584 -2.2e-6,1.1479711 1.3688191,2.0785857 3.0573461,2.0785857 1.6885265,0 3.0573478,-0.9306146 3.0573455,-2.0785857 C 9.3114264,6.7309366 9.3011931,6.6394548 9.2821263,6.5487312 9.535638,6.418871 9.6948262,6.1601058 9.6948978,5.8777736 9.6949006,5.4603312 9.3526946,5.1219203 8.9305615,5.1219203 8.7296845,5.1219417 8.5368904,5.2001687 8.3938832,5.3396693 7.8846811,4.9997375 7.2166146,4.7916231 6.5054348,4.7513783 L 6.795793,2.8942339 7.7892812,3.112725 c 0.03539,0.2837544 0.2789106,0.497047 0.5680279,0.4975031 0.3165984,0 0.5732524,-0.2538004 0.5732524,-0.5668863 0,-0.3130853 -0.256654,-0.5668867 -0.5732524,-0.5668867 -0.1971756,1.65e-4 -0.3804252,0.1005367 -0.4851747,0.2657283 L 6.6800975,2.4808838 c -0.012974,-0.00282 -0.026232,-0.00504 -0.039562,-0.00504 z m -1.340574,3.4020608 c 0.3165983,0 0.5732524,0.2538014 0.5732524,0.5668865 0,0.313086 -0.2566541,0.5668866 -0.5732524,0.5668866 -0.3165988,0 -0.5732524,-0.2538006 -0.5732524,-0.5668866 0,-0.3130851 0.2566536,-0.5668865 0.5732524,-0.5668865 z m 1.9108406,0 c 0.3165992,0 0.5732529,0.2538014 0.5732529,0.5668865 0,0.313086 -0.2566537,0.5668866 -0.5732529,0.5668866 -0.3165981,0 -0.5732521,-0.2538006 -0.5732521,-0.5668866 0,-0.3130851 0.256654,-0.5668865 0.5732521,-0.5668865 z m 0.3717187,1.6939601 c 0.177783,-0.014859 0.2779684,0.1973516 0.1522702,0.3225634 0,0 -0.1251874,0.1313385 -0.3635081,0.2398957 C 7.1329615,8.2427776 6.7668628,8.343535 6.2509019,8.3349651 5.7379158,8.326323 5.3783354,8.2259582 5.1424652,8.123115 4.9065943,8.0203437 4.7811965,7.8994604 4.7811965,7.8994604 4.664184,7.7859613 4.7364841,7.5890097 4.8998776,7.5761622 c 0.00621,-5.389e-4 0.012433,-7.181e-4 0.018663,-7.181e-4 0.051742,5.891e-4 0.101027,0.021922 0.1365954,0.059068 0,0 0.054478,0.060491 0.2425874,0.1424597 0.1881111,0.081989 0.4958737,0.1700623 0.9621381,0.1786324 0.4632895,0.00786 0.7645341,-0.080052 0.9501953,-0.1646062 0.1856622,-0.08452 0.240348,-0.1505794 0.240348,-0.1505794 0.032863,-0.039567 0.080514,-0.064352 0.1321169,-0.068635 z"
     id="path2-3" />
  <path
     style="fill:#ffffff;stroke-width:0.743383"
     d="M 6.6140764,2.2867314 C 6.5181704,2.2852814 6.4361047,2.3545114 6.422246,2.4483885 L 6.0945667,4.5594478 C 5.3418377,4.5815178 4.6276169,4.7918304 4.0889302,5.149952 3.9461711,5.0110785 3.7539996,4.9331541 3.5537452,4.9329391 c -0.4221337,0 -0.7643393,0.3384108 -0.7643367,0.7558533 2.048e-4,0.2819116 0.1590399,0.5402832 0.4120251,0.6702231 -0.018867,0.090984 -0.028842,0.1827101 -0.029858,0.2745831 -2.2e-6,1.1479708 1.3688191,2.0785854 3.0573461,2.0785854 1.6885265,0 3.0573478,-0.9306146 3.0573455,-2.0785854 C 9.2849686,6.5419551 9.2747353,6.4504737 9.2556685,6.3597502 9.5091802,6.2298898 9.6683684,5.9711248 9.66844,5.6887924 9.6684428,5.2713499 9.3262368,4.9329391 8.9041037,4.9329391 8.7032267,4.9329612 8.5104326,5.0111873 8.3674254,5.1506879 7.8582233,4.8107561 7.1901568,4.6026418 6.478977,4.5623972 L 6.7693352,2.7052526 7.7628234,2.923744 c 0.03539,0.2837544 0.2789106,0.4970465 0.5680279,0.4975031 0.3165984,0 0.5732524,-0.2538002 0.5732524,-0.5668866 0,-0.3130853 -0.256654,-0.5668857 -0.5732524,-0.5668857 -0.1971756,1.64e-4 -0.3804252,0.1005355 -0.4851747,0.265727 L 6.6536397,2.2919023 c -0.012974,-0.00282 -0.026232,-0.00504 -0.039562,-0.00504 z m -1.340574,3.402061 c 0.3165983,0 0.5732524,0.2538015 0.5732524,0.5668863 0,0.3130863 -0.2566541,0.5668868 -0.5732524,0.5668868 -0.3165988,0 -0.5732524,-0.2538005 -0.5732524,-0.5668868 0,-0.3130848 0.2566536,-0.5668863 0.5732524,-0.5668863 z m 1.9108406,0 c 0.3165992,0 0.5732529,0.2538015 0.5732529,0.5668863 0,0.3130863 -0.2566537,0.5668868 -0.5732529,0.5668868 -0.3165981,0 -0.5732521,-0.2538005 -0.5732521,-0.5668868 0,-0.3130848 0.256654,-0.5668863 0.5732521,-0.5668863 z m 0.3717187,1.6939599 c 0.177783,-0.014858 0.2779684,0.1973518 0.1522702,0.3225638 0,0 -0.1251874,0.1313383 -0.3635081,0.2398952 C 7.1065037,8.0537965 6.740405,8.1545538 6.2244441,8.1459836 5.711458,8.1373572 5.3518776,8.0369769 5.1160074,7.9341337 4.8801365,7.8313623 4.7547387,7.7104791 4.7547387,7.7104791 4.6377262,7.5969808 4.7100263,7.4000284 4.8734198,7.3871809 c 0.00621,-5.388e-4 0.012433,-7.182e-4 0.018663,-7.182e-4 0.051742,5.903e-4 0.101027,0.021922 0.1365954,0.059068 0,0 0.054478,0.060491 0.2425874,0.1424589 0.1881109,0.081989 0.4958735,0.1700619 0.9621379,0.1786323 C 6.696693,7.7744819 6.9979376,7.6865699 7.1835988,7.6020156 7.3692612,7.5174956 7.423947,7.4514363 7.423947,7.4514363 7.456809,7.4118693 7.504462,7.3870843 7.5560639,7.3828033 Z"
     id="path3" />
</svg>
