<?xml version="1.0" encoding="UTF-8" standalone="no"?>
<svg
   xmlns:dc="http://purl.org/dc/elements/1.1/"
   xmlns:cc="http://creativecommons.org/ns#"
   xmlns:rdf="http://www.w3.org/1999/02/22-rdf-syntax-ns#"
   xmlns:svg="http://www.w3.org/2000/svg"
   xmlns="http://www.w3.org/2000/svg"
   xmlns:xlink="http://www.w3.org/1999/xlink"
   xmlns:sodipodi="http://sodipodi.sourceforge.net/DTD/sodipodi-0.dtd"
   xmlns:inkscape="http://www.inkscape.org/namespaces/inkscape"
   width="47.285591"
   height="47.28569"
   version="1.1"
   viewBox="0 0 12.510734 12.51076"
   id="svg12"
   sodipodi:docname="rocs.svg"
   inkscape:version="1.0.1 (3bc2e813f5, 2020-09-07)">
  <style
     id="style872"></style>
  <metadata
     id="metadata47">
    <rdf:RDF>
      <cc:Work
         rdf:about="">
        <dc:format>image/svg+xml</dc:format>
        <dc:type
           rdf:resource="http://purl.org/dc/dcmitype/StillImage" />
      </cc:Work>
    </rdf:RDF>
  </metadata>
  <defs
     id="defs16">
    <linearGradient
       id="c"
       y1="523.79999"
       x1="403.57001"
       y2="536.79999"
       x2="416.57001"
       gradientUnits="userSpaceOnUse"
       gradientTransform="matrix(0.34526714,0,0,0.34526706,-134.80427,-174.63325)">
      <stop
         stop-color="#292c2f"
         id="stop1568" />
      <stop
         offset="1"
         stop-opacity="0"
         id="stop1570" />
    </linearGradient>
    <linearGradient
       xlink:href="#b-2"
       id="linearGradient4189"
       x1="14.369"
       y1="22.521999"
       x2="26.521999"
       y2="22.521999"
       gradientUnits="userSpaceOnUse" />
    <linearGradient
       x1="36"
       gradientUnits="userSpaceOnUse"
       x2="14"
       y2="12"
       y1="44"
       id="b-2">
      <stop
         style="stop-color:#bfc9c9;stop-opacity:1"
         stop-color="#536161"
         id="stop1579" />
      <stop
         style="stop-color:#fbfbfb;stop-opacity:1"
         stop-color="#f4f5f5"
         offset="1"
         id="stop1581" />
    </linearGradient>
    <linearGradient
       xlink:href="#b-2"
       id="linearGradient4428"
       gradientUnits="userSpaceOnUse"
       x1="31.586"
       y1="36.345001"
       x2="1.2029999"
       y2="6.723" />
    <linearGradient
       xlink:href="#b-2"
       id="linearGradient4189-3"
       x1="14.369"
       y1="22.521999"
       x2="26.521999"
       y2="22.521999"
       gradientUnits="userSpaceOnUse"
       gradientTransform="translate(20.841982,61.553822)" />
    <linearGradient
       xlink:href="#b-2"
       id="linearGradient4428-5"
       gradientUnits="userSpaceOnUse"
       x1="31.586"
       y1="36.345001"
       x2="1.2029999"
       y2="6.723"
       gradientTransform="translate(20.841982,61.553822)" />
    <linearGradient
       xlink:href="#b-2"
       id="linearGradient4189-3-3"
       x1="14.369"
       y1="22.521999"
       x2="26.521999"
       y2="22.521999"
       gradientUnits="userSpaceOnUse"
       gradientTransform="translate(4.376802,4.4211693)" />
    <linearGradient
       xlink:href="#b-2"
       id="linearGradient4428-5-5"
       gradientUnits="userSpaceOnUse"
       x1="31.586"
       y1="36.345001"
       x2="1.2029999"
       y2="6.723"
       gradientTransform="translate(4.376802,4.4211693)" />
    <linearGradient
       id="linearGradient11"
       inkscape:collect="always">
      <stop
         style="stop-color:#80b3ff;stop-opacity:0.73275864;"
         offset="0"
         id="stop4-3" />
      <stop
         style="stop-color:#2a7fff;stop-opacity:1"
         offset="1"
         id="stop11" />
    </linearGradient>
    <filter
       id="d-7"
       x="-0.035999998"
       y="-0.036000062"
       width="1.072"
       height="1.0720001"
       color-interpolation-filters="sRGB">
      <feGaussianBlur
         stdDeviation="9"
         id="feGaussianBlur238-5" />
    </filter>
    <linearGradient
       id="paint1_linear_41_121"
       x1="11.9599"
       y1="21"
       x2="11.9599"
       y2="3"
       gradientUnits="userSpaceOnUse"
       gradientTransform="scale(0.26457819)">
      <stop
         stop-color="#FD4C00"
         id="stop5" />
      <stop
         offset="1"
         stop-color="#FFB800"
         id="stop6" />
    </linearGradient>
    <linearGradient
       inkscape:collect="always"
       xlink:href="#linearGradient11"
       id="linearGradient2"
       x1="-3.8211522"
       y1="8.6008863"
       x2="4.2804661"
       y2="8.6008863"
       gradientUnits="userSpaceOnUse" />
    <linearGradient
       id="a-1-2-2"
       y1="510.79999"
       y2="527.14001"
       gradientUnits="userSpaceOnUse"
       x2="0"
       gradientTransform="matrix(1.2378066,0,0,1.231,-93.270747,-117.26405)">
      <stop
         stop-color="#7cbaf8"
         id="stop2-2-7-7" />
      <stop
         offset="1"
         stop-color="#f4fcff"
         id="stop4-70-0-0" />
    </linearGradient>
    <linearGradient
       id="c-93"
       y1="503.79999"
       x1="400.57001"
       y2="519.79999"
       x2="416.57001"
       gradientUnits="userSpaceOnUse"
       gradientTransform="matrix(1.2378066,0,0,1.231,-89.070362,-114.83858)">
      <stop
         stop-color="#292c2f"
         id="stop12-6" />
      <stop
         offset="1"
         stop-opacity="0"
         id="stop14-0" />
    </linearGradient>
    <linearGradient
       id="b-6"
       y1="542.79999"
       x1="408.57001"
       y2="521.79999"
       x2="387.57001"
       gradientUnits="userSpaceOnUse"
       gradientTransform="matrix(1.2378066,0,0,1.231,-473.64035,-614.6386)">
      <stop
         stop-color="#197cf1"
         id="stop7-2" />
      <stop
         offset="1"
         stop-color="#20bcfa"
         id="stop9-6" />
    </linearGradient>
    <linearGradient
       id="linearGradient1"
       inkscape:collect="always">
      <stop
         style="stop-color:#ffcc00;stop-opacity:1"
         offset="0"
         id="stop1" />
      <stop
         style="stop-color:#ff00ff;stop-opacity:1"
         offset="1"
         id="stop5-3" />
    </linearGradient>
    <linearGradient
       inkscape:collect="always"
       xlink:href="#linearGradient1"
       id="linearGradient9"
       gradientUnits="userSpaceOnUse"
       x1="10"
       y1="187.5005"
       x2="365"
       y2="187.5005" />
    <linearGradient
       inkscape:collect="always"
       xlink:href="#linearGradient11"
       id="linearGradient880"
       x1="-12.025727"
       y1="6.1170783"
       x2="-0.085100174"
       y2="6.1170783"
       gradientUnits="userSpaceOnUse" />
  </defs>
  <sodipodi:namedview
     id="namedview14"
     pagecolor="#000000"
     bordercolor="#666666"
     borderopacity="1.0"
     inkscape:showpageshadow="2"
     inkscape:pageopacity="0.0"
     inkscape:pagecheckerboard="0"
     inkscape:deskcolor="#d1d1d1"
     showgrid="false"
     inkscape:zoom="8.8545525"
     inkscape:cx="22.744548"
     inkscape:cy="42.812342"
     inkscape:window-width="1920"
     inkscape:window-height="988"
     inkscape:window-x="0"
     inkscape:window-y="0"
     inkscape:window-maximized="1"
     inkscape:current-layer="svg12"
     inkscape:document-rotation="0">
    <inkscape:grid
       type="xygrid"
       id="grid244"
       originx="9.9594769"
       originy="-31.57929"
       spacingy="1"
       spacingx="1"
       units="px"
       visible="false" />
  </sodipodi:namedview>
  <rect
     x="-12.194976"
     y="0.32004508"
     width="11.940627"
     height="11.936014"
     rx="1.6121091"
     shape-rendering="crispEdges"
     id="rect5-6-7-3"
     ry="1.7735944"
     transform="matrix(0.00523883,-0.99998628,0.999988,0.00489859,0,0)"
     style="fill:#80b3ff;fill-opacity:0.13;stroke:url(#linearGradient880);stroke-width:0.5291563;stroke-miterlimit:4;stroke-dasharray:none;stroke-opacity:1" />
  <rect
     x="-3.7202365"
     y="4.8851409"
     width="7.912631"
     height="7.912384"
     rx="1.612043"
     shape-rendering="crispEdges"
     id="rect5-6-6-6-6"
     style="fill:#5599ff;fill-opacity:0.1;stroke:url(#linearGradient2);stroke-width:0.42332506;stroke-opacity:1;stroke-miterlimit:4;stroke-dasharray:none"
     ry="1.7735215"
     transform="matrix(0.72612649,-0.68756114,0.6879775,0.72573202,0,0)" />
  <g
     style="opacity:0.2;fill:#87aade;stroke-width:1.19488"
     transform="matrix(-0.20764429,0,0,-0.20284181,11.178661,11.255692)"
     id="g7029">
    <path
       style="fill:#87aade;fill-rule:evenodd;stroke-width:1.19488"
       transform="rotate(180,3.6377,25.345)"
       d="m -16.725,11.189 c -0.828427,0 -1.5,0.671573 -1.5,1.5 5.32e-4,0.404804 0.164654,0.792208 0.45508,1.0742 l -1.8164,3.9336 c -0.04608,-0.0047 -0.09235,-0.0073 -0.13867,-0.0078 -0.450398,0.0013 -0.876357,0.204986 -1.1602,0.55469 l -4.2422,-1.5137 c -0.01455,-0.376179 -0.170024,-0.733133 -0.43555,-1 -0.585761,-0.58564 -1.535339,-0.58564 -2.1211,0 -0.58564,0.585761 -0.58564,1.535339 0,2.1211 0.266562,0.266242 0.623552,0.422425 1,0.4375 l 1.5137,4.2383 c -0.350219,0.284263 -0.553925,0.711036 -0.55469,1.1621 h -1 l -1.123,0.13477 -3.877,0.4668 v 4.8008 l 3.873,0.46484 c 0.269904,1.044525 0.685444,2.045876 1.2344,2.9746 l -2.4102,3.0703 3.3926,3.3926 3.0703,-2.4102 c 0.928939,0.547599 1.93028,0.961823 2.9746,1.2305 l 0.46484,3.877 h 4.8008 v -0.002 l 0.46484,-3.873 c 1.04442,-0.269275 2.045766,-0.68414 2.9746,-1.2324 l 3.0705,2.41 3.0716774,-3.394 -2.4101,-3.071 -0.6992,-0.89 -0.7676,-0.768 c 0.3628794,-0.284646 0.5746426,-0.720401 0.57422,-1.1816 -4.608e-4,-0.04632 -0.00307,-0.09259 -0.00781,-0.13867 l 4.3328759,-1.8164 c 0.2824754,0.290923 0.6707018,0.455088 1.0762,0.45508 0.8284271,0 1.5,-0.671573 1.5,-1.5 0,-0.828427 -0.6715729,-1.5 -1.5,-1.5 -0.404804,5.32e-4 -0.7922082,0.164654 -1.0742,0.45508 l -4.3348759,-1.8145 c 0.0048,-0.04672 0.00741,-0.09365 0.00781,-0.14062 -2.848e-4,-0.450737 -0.203244,-0.877453 -0.55273,-1.1621 l 1.9148244,-4.2402 c 0.3754972,-0.01504 0.731672,-0.170471 0.99805,-0.43555 0.5856396,-0.585761 0.5856396,-1.535339 0,-2.1211 -0.5857612,-0.58564 -1.5353388,-0.58564 -2.1211,0 -0.2662415,0.266562 -0.4224247,0.623552 -0.4375,1 l -4.3181018,1.512 c -0.284645,-0.34949 -0.711361,-0.552453 -1.1621,-0.55274 -0.04632,4.57e-4 -0.09259,0.0031 -0.13867,0.0078 l -1.8145,-3.9336 c 0.289705,-0.28232 0.453103,-0.669683 0.45312,-1.0742 0,-0.828427 -0.671573,-1.5 -1.5,-1.5 z m 0.13867,2.9922 1.8145,3.9336 c -0.164132,0.160896 -0.289094,0.357359 -0.36524,0.57422 h -3.1758 c -0.07671,-0.217047 -0.202352,-0.413525 -0.36719,-0.57422 l 1.8145,-3.9316 c 0.04675,0.0042 0.09368,0.0061 0.14062,0.0059 0.04632,-4.57e-4 0.09259,-0.0031 0.13867,-0.0078 z m -8.8359,3.5039 4.1973,1.5 v 0.0039 c 9.08e-4,0.223212 0.05162,0.443407 0.14844,0.64453 l -2.5039,2.5039 c -0.201123,-0.09682 -0.421318,-0.147532 -0.64453,-0.14844 h -0.0039 l -1.5,-4.1973 c 0.05867,-0.0428 0.114157,-0.0898 0.16602,-0.14063 0.05083,-0.05186 0.09783,-0.107349 0.14062,-0.16602 z m 17.4752018,0 c 0.042793,0.05867 0.08979,0.114157 0.14062,0.16602 0.051795,0.05151 0.1072823,0.09916 0.16602,0.14258 l -1.9011244,4.1953 h -0.00391 c -0.2232118,9.08e-4 -0.4434074,0.05162 -0.6445304,0.14844 l -2.182977,-2.5039 c 0.09682,-0.201123 0.147532,-0.421318 0.14844,-0.64453 v -0.0039 l 4.2775018,-1.5 z M -18.31223,19.689 h 3.1738 c 0.211878,0.59928 0.778467,0.999952 1.4141,1 0.223062,-2.96e-4 0.443251,-0.05034 0.64453,-0.14648 l 2.182977,2.502 c -0.09682,0.201123 -0.147532,0.421318 -0.14844,0.64453 4.8e-5,0.635633 0.40072,1.202222 1,1.4141 v 3.1738 c -0.598589,0.211632 -0.999105,0.777201 -1,1.4121 5.69e-4,0.353204 0.12576,0.694879 0.35352,0.96484 -1.366864,2.194805 -3.44695,3.808403 -6.032577,3.812834 -5.368608,0 -7.855606,-3.635498 -7.855606,-7.777634 0.0015,-0.507322 0.05454,-1.013179 0.1582,-1.5098 1.048888,-0.01914 1.696673,-0.723562 1.697406,-1.4902 -6.17e-4,-0.22387 -0.05134,-0.444764 -0.14844,-0.64648 l 2.502,-2.502 c 0.201716,0.0971 0.42261,0.147823 0.64648,0.14844 0.634899,-8.95e-4 1.200468,-0.401411 1.4121,-1 z m 9.8390774,5.0449 4.3367759,1.8164 c -0.00474,0.04608 -0.00735,0.09235 -0.00781,0.13867 4.608e-4,0.04632 0.00307,0.09259 0.00781,0.13867 l -4.3348759,1.8145 c -0.1608975,-0.164128 -0.3573598,-0.289087 -0.57422,-0.36523 v -3.1758 c 0.2163485,-0.07698 0.4121347,-0.202602 0.57227,-0.36719 z"
       id="path7027" />
  </g>
  <g
     style="fill:#87aade;stroke-width:1.19488"
     transform="matrix(-0.20764429,0,0,-0.20284181,11.178661,11.092898)"
     id="g7033">
    <path
       style="fill:#87aade;fill-rule:evenodd;stroke-width:1.19488"
       transform="rotate(180,3.6377,25.345)"
       d="m -16.725,11.189 c -0.828427,0 -1.5,0.671573 -1.5,1.5 5.32e-4,0.404804 0.164654,0.792208 0.45508,1.0742 l -1.8164,3.9336 c -0.04608,-0.0047 -0.09235,-0.0073 -0.13867,-0.0078 -0.450398,0.0013 -0.876357,0.204986 -1.1602,0.55469 l -4.2422,-1.5137 c -0.01455,-0.376179 -0.170024,-0.733133 -0.43555,-1 -0.585761,-0.58564 -1.535339,-0.58564 -2.1211,0 -0.58564,0.585761 -0.58564,1.535339 0,2.1211 0.266562,0.266242 0.623552,0.422425 1,0.4375 l 1.5137,4.2383 c -0.350219,0.284263 -0.553925,0.711036 -0.55469,1.1621 h -1 l -1.123,0.13477 -3.877,0.4668 v 4.8008 l 3.873,0.46484 c 0.269904,1.044525 0.685444,2.045876 1.2344,2.9746 l -2.4102,3.0703 3.3926,3.3926 3.0703,-2.4102 c 0.928939,0.547599 1.93028,0.961823 2.9746,1.2305 l 0.46484,3.877 h 4.8008 v -0.002 l 0.46484,-3.873 c 1.04442,-0.269275 2.045766,-0.68414 2.9746,-1.2324 l 3.0705,2.41 3.0716774,-3.394 -2.4101,-3.071 -0.6992,-0.89 -0.7676,-0.768 c 0.3628794,-0.284646 0.5746426,-0.720401 0.57422,-1.1816 -4.608e-4,-0.04632 -0.00307,-0.09259 -0.00781,-0.13867 l 4.3328759,-1.8164 c 0.2824754,0.290923 0.6707018,0.455088 1.0762,0.45508 0.8284271,0 1.5,-0.671573 1.5,-1.5 0,-0.828427 -0.6715729,-1.5 -1.5,-1.5 -0.404804,5.32e-4 -0.7922082,0.164654 -1.0742,0.45508 l -4.3348759,-1.8145 c 0.0048,-0.04672 0.00741,-0.09365 0.00781,-0.14062 -2.848e-4,-0.450737 -0.203244,-0.877453 -0.55273,-1.1621 l 1.9148244,-4.2402 c 0.3754972,-0.01504 0.731672,-0.170471 0.99805,-0.43555 0.5856396,-0.585761 0.5856396,-1.535339 0,-2.1211 -0.5857612,-0.58564 -1.5353388,-0.58564 -2.1211,0 -0.2662415,0.266562 -0.4224247,0.623552 -0.4375,1 l -4.3181018,1.512 c -0.284645,-0.34949 -0.711361,-0.552453 -1.1621,-0.55274 -0.04632,4.57e-4 -0.09259,0.0031 -0.13867,0.0078 l -1.8145,-3.9336 c 0.289705,-0.28232 0.453103,-0.669683 0.45312,-1.0742 0,-0.828427 -0.671573,-1.5 -1.5,-1.5 z m 0.13867,2.9922 1.8145,3.9336 c -0.164132,0.160896 -0.289094,0.357359 -0.36524,0.57422 h -3.1758 c -0.07671,-0.217047 -0.202352,-0.413525 -0.36719,-0.57422 l 1.8145,-3.9316 c 0.04675,0.0042 0.09368,0.0061 0.14062,0.0059 0.04632,-4.57e-4 0.09259,-0.0031 0.13867,-0.0078 z m -8.8359,3.5039 4.1973,1.5 v 0.0039 c 9.08e-4,0.223212 0.05162,0.443407 0.14844,0.64453 l -2.5039,2.5039 c -0.201123,-0.09682 -0.421318,-0.147532 -0.64453,-0.14844 h -0.0039 l -1.5,-4.1973 c 0.05867,-0.0428 0.114157,-0.0898 0.16602,-0.14063 0.05083,-0.05186 0.09783,-0.107349 0.14062,-0.16602 z m 17.4752018,0 c 0.042793,0.05867 0.08979,0.114157 0.14062,0.16602 0.051795,0.05151 0.1072823,0.09916 0.16602,0.14258 l -1.9011244,4.1953 h -0.00391 c -0.2232118,9.08e-4 -0.4434074,0.05162 -0.6445304,0.14844 l -2.182977,-2.5039 c 0.09682,-0.201123 0.147532,-0.421318 0.14844,-0.64453 v -0.0039 l 4.2775018,-1.5 z M -18.31223,19.689 h 3.1738 c 0.211878,0.59928 0.778467,0.999952 1.4141,1 0.223062,-2.96e-4 0.443251,-0.05034 0.64453,-0.14648 l 2.182977,2.502 c -0.09682,0.201123 -0.147532,0.421318 -0.14844,0.64453 4.8e-5,0.635633 0.40072,1.202222 1,1.4141 v 3.1738 c -0.598589,0.211632 -0.999105,0.777201 -1,1.4121 5.69e-4,0.353204 0.12576,0.694879 0.35352,0.96484 -1.366864,2.194805 -3.44695,3.808403 -6.032577,3.812834 -5.368608,0 -7.855606,-3.635498 -7.855606,-7.777634 0.0015,-0.507322 0.05454,-1.013179 0.1582,-1.5098 1.048888,-0.01914 1.696673,-0.723562 1.697406,-1.4902 -6.17e-4,-0.22387 -0.05134,-0.444764 -0.14844,-0.64648 l 2.502,-2.502 c 0.201716,0.0971 0.42261,0.147823 0.64648,0.14844 0.634899,-8.95e-4 1.200468,-0.401411 1.4121,-1 z m 9.8390774,5.0449 4.3367759,1.8164 c -0.00474,0.04608 -0.00735,0.09235 -0.00781,0.13867 4.608e-4,0.04632 0.00307,0.09259 0.00781,0.13867 l -4.3348759,1.8145 c -0.1608975,-0.164128 -0.3573598,-0.289087 -0.57422,-0.36523 v -3.1758 c 0.2163485,-0.07698 0.4121347,-0.202602 0.57227,-0.36719 z"
       id="path7031" />
  </g>
</svg>
