<?xml version="1.0" encoding="UTF-8" standalone="no"?>
<svg
   xmlns:dc="http://purl.org/dc/elements/1.1/"
   xmlns:cc="http://creativecommons.org/ns#"
   xmlns:rdf="http://www.w3.org/1999/02/22-rdf-syntax-ns#"
   xmlns:svg="http://www.w3.org/2000/svg"
   xmlns="http://www.w3.org/2000/svg"
   xmlns:xlink="http://www.w3.org/1999/xlink"
   xmlns:sodipodi="http://sodipodi.sourceforge.net/DTD/sodipodi-0.dtd"
   xmlns:inkscape="http://www.inkscape.org/namespaces/inkscape"
   width="47.285591"
   height="47.28569"
   version="1.1"
   viewBox="0 0 12.510734 12.51076"
   id="svg12"
   sodipodi:docname="telepathy-kde.svg"
   inkscape:version="1.0.1 (3bc2e813f5, 2020-09-07)">
  <style
     id="style872"></style>
  <metadata
     id="metadata47">
    <rdf:RDF>
      <cc:Work
         rdf:about="">
        <dc:format>image/svg+xml</dc:format>
        <dc:type
           rdf:resource="http://purl.org/dc/dcmitype/StillImage" />
      </cc:Work>
    </rdf:RDF>
  </metadata>
  <defs
     id="defs16">
    <linearGradient
       id="linearGradient887"
       inkscape:collect="always">
      <stop
         style="stop-color:#9955ff;stop-opacity:0.75757575"
         offset="0"
         id="stop883" />
      <stop
         style="stop-color:#00ccff;stop-opacity:1"
         offset="1"
         id="stop885" />
    </linearGradient>
    <linearGradient
       id="c"
       y1="523.79999"
       x1="403.57001"
       y2="536.79999"
       x2="416.57001"
       gradientUnits="userSpaceOnUse"
       gradientTransform="matrix(0.34526714,0,0,0.34526706,-134.80427,-174.63325)">
      <stop
         stop-color="#292c2f"
         id="stop1568" />
      <stop
         offset="1"
         stop-opacity="0"
         id="stop1570" />
    </linearGradient>
    <linearGradient
       xlink:href="#b-2"
       id="linearGradient4189"
       x1="14.369"
       y1="22.521999"
       x2="26.521999"
       y2="22.521999"
       gradientUnits="userSpaceOnUse" />
    <linearGradient
       x1="36"
       gradientUnits="userSpaceOnUse"
       x2="14"
       y2="12"
       y1="44"
       id="b-2">
      <stop
         style="stop-color:#bfc9c9;stop-opacity:1"
         stop-color="#536161"
         id="stop1579" />
      <stop
         style="stop-color:#fbfbfb;stop-opacity:1"
         stop-color="#f4f5f5"
         offset="1"
         id="stop1581" />
    </linearGradient>
    <linearGradient
       xlink:href="#b-2"
       id="linearGradient4428"
       gradientUnits="userSpaceOnUse"
       x1="31.586"
       y1="36.345001"
       x2="1.2029999"
       y2="6.723" />
    <linearGradient
       xlink:href="#b-2"
       id="linearGradient4189-3"
       x1="14.369"
       y1="22.521999"
       x2="26.521999"
       y2="22.521999"
       gradientUnits="userSpaceOnUse"
       gradientTransform="translate(20.841982,61.553822)" />
    <linearGradient
       xlink:href="#b-2"
       id="linearGradient4428-5"
       gradientUnits="userSpaceOnUse"
       x1="31.586"
       y1="36.345001"
       x2="1.2029999"
       y2="6.723"
       gradientTransform="translate(20.841982,61.553822)" />
    <linearGradient
       xlink:href="#b-2"
       id="linearGradient4189-3-3"
       x1="14.369"
       y1="22.521999"
       x2="26.521999"
       y2="22.521999"
       gradientUnits="userSpaceOnUse"
       gradientTransform="translate(4.376802,4.4211693)" />
    <linearGradient
       xlink:href="#b-2"
       id="linearGradient4428-5-5"
       gradientUnits="userSpaceOnUse"
       x1="31.586"
       y1="36.345001"
       x2="1.2029999"
       y2="6.723"
       gradientTransform="translate(4.376802,4.4211693)" />
    <linearGradient
       inkscape:collect="always"
       xlink:href="#linearGradient14"
       id="linearGradient15"
       x1="-9.6850061"
       y1="45.161198"
       x2="11.98815"
       y2="21.735205"
       gradientUnits="userSpaceOnUse"
       gradientTransform="scale(0.26457813)" />
    <linearGradient
       id="linearGradient14"
       inkscape:collect="always">
      <stop
         style="stop-color:#9955ff;stop-opacity:0.7965368"
         offset="0"
         id="stop12" />
      <stop
         style="stop-color:#00ccff;stop-opacity:1"
         offset="1"
         id="stop13" />
    </linearGradient>
    <filter
       id="filter2917-3"
       x="-0.96181148"
       y="-0.66745996"
       width="2.9236228"
       height="2.3349199"
       color-interpolation-filters="sRGB">
      <feGaussianBlur
         stdDeviation="0.2871969"
         id="feGaussianBlur732-5" />
    </filter>
    <filter
       id="filter1"
       x="-0.96181148"
       y="-0.66745996"
       width="2.9236228"
       height="2.3349199"
       color-interpolation-filters="sRGB">
      <feGaussianBlur
         stdDeviation="0.2871969"
         id="feGaussianBlur1" />
    </filter>
    <filter
       id="filter2"
       x="-0.96181148"
       y="-0.66745996"
       width="2.9236228"
       height="2.3349199"
       color-interpolation-filters="sRGB">
      <feGaussianBlur
         stdDeviation="0.2871969"
         id="feGaussianBlur2" />
    </filter>
    <linearGradient
       inkscape:collect="always"
       xlink:href="#linearGradient981"
       id="linearGradient2301"
       gradientUnits="userSpaceOnUse"
       gradientTransform="matrix(0.2115561,0,0,0.14682642,-23.817291,-82.802152)"
       x1="148.6808"
       y1="601.61676"
       x2="148.6808"
       y2="626.93921" />
    <linearGradient
       inkscape:collect="always"
       id="linearGradient981">
      <stop
         style="stop-color:#020b19;stop-opacity:0.54064041;"
         offset="0"
         id="stop977" />
      <stop
         style="stop-color:#031837;stop-opacity:0.67795289;"
         offset="1"
         id="stop979" />
    </linearGradient>
    <linearGradient
       inkscape:collect="always"
       xlink:href="#linearGradient930"
       id="linearGradient2303"
       gradientUnits="userSpaceOnUse"
       gradientTransform="matrix(0.26457811,0,0,0.26457811,1.0583121,1.0583122)"
       x1="8.5"
       y1="24.099998"
       x2="32.445591"
       y2="23.833942" />
    <linearGradient
       inkscape:collect="always"
       id="linearGradient930">
      <stop
         style="stop-color:#6666ff;stop-opacity:1"
         offset="0"
         id="stop926" />
      <stop
         style="stop-color:#ccaaff;stop-opacity:1"
         offset="1"
         id="stop928" />
    </linearGradient>
    <linearGradient
       inkscape:collect="always"
       xlink:href="#linearGradient887"
       id="linearGradient880"
       x1="-12.025727"
       y1="6.1170783"
       x2="-0.085100174"
       y2="6.1170783"
       gradientUnits="userSpaceOnUse" />
    <linearGradient
       inkscape:collect="always"
       xlink:href="#linearGradient1389"
       id="linearGradient1391-3-3-3"
       x1="17.058088"
       y1="24.10211"
       x2="17.058088"
       y2="9.6445208"
       gradientUnits="userSpaceOnUse"
       gradientTransform="matrix(0.57819758,0,0,0.57806905,-2.3732263,-2.4417814)" />
    <linearGradient
       inkscape:collect="always"
       id="linearGradient1389">
      <stop
         style="stop-color:#60a0ff;stop-opacity:1;"
         offset="0"
         id="stop1385" />
      <stop
         style="stop-color:#5bbfff;stop-opacity:1"
         offset="1"
         id="stop1387" />
    </linearGradient>
  </defs>
  <sodipodi:namedview
     id="namedview14"
     pagecolor="#000000"
     bordercolor="#666666"
     borderopacity="1.0"
     inkscape:showpageshadow="2"
     inkscape:pageopacity="0.0"
     inkscape:pagecheckerboard="0"
     inkscape:deskcolor="#d1d1d1"
     showgrid="false"
     inkscape:zoom="7.5172018"
     inkscape:cx="23.845543"
     inkscape:cy="27.729381"
     inkscape:window-width="1920"
     inkscape:window-height="988"
     inkscape:window-x="0"
     inkscape:window-y="0"
     inkscape:window-maximized="1"
     inkscape:current-layer="svg12"
     inkscape:document-rotation="0">
    <inkscape:grid
       type="xygrid"
       id="grid244"
       originx="9.9594769"
       originy="-31.57929"
       spacingy="1"
       spacingx="1"
       units="px"
       visible="false" />
  </sodipodi:namedview>
  <rect
     x="-12.194976"
     y="0.32004508"
     width="11.940627"
     height="11.936014"
     rx="1.6121091"
     shape-rendering="crispEdges"
     id="rect5-6-7-3"
     ry="1.7735944"
     transform="matrix(0.00523883,-0.99998628,0.999988,0.00489859,0,0)"
     style="fill:#80b3ff;fill-opacity:0.15;stroke:url(#linearGradient880);stroke-width:0.5291563;stroke-miterlimit:4;stroke-dasharray:none;stroke-opacity:1" />
  <rect
     x="-3.7202365"
     y="4.8851409"
     width="7.912631"
     height="7.912384"
     rx="1.612043"
     shape-rendering="crispEdges"
     id="rect5-6-6-6-6"
     style="fill:#80b3ff;fill-opacity:0.122146;stroke:url(#linearGradient15);stroke-width:0.39686725;stroke-opacity:1;stroke-miterlimit:4;stroke-dasharray:none"
     ry="1.7735215"
     transform="matrix(0.72612649,-0.68756114,0.6879775,0.72573202,0,0)" />
  <path
     inkscape:connector-curvature="0"
     id="path9068-9-37-8-0-1-6-3-5-4"
     d="M 7.5724091,4.8323042 H 3.2538483 L 3.5417502,8.3080446 7.5724091,8.0183949 Z"
     style="display:inline;overflow:visible;visibility:visible;opacity:0.189845;fill:url(#linearGradient2301);fill-opacity:1;fill-rule:nonzero;stroke:none;stroke-width:0.246743;marker:none"
     sodipodi:nodetypes="ccccc" />
  <path
     d="M 8.805818,3.8677475 5.6388723,3.8532823 C 5.06307,3.8506067 5.087838,4.4126049 5.087838,4.4126049 v 0 L 3.6235416,4.4325473 C 3.3469923,4.4365397 3.0477338,4.6602804 3.0477338,5.0134965 v 2.8897452 c 0,0.3532145 0.2250044,0.5843285 0.5015108,0.5843285 h 0.3622022 v 0 0 L 4.7856031,9.3564977 5.6388723,8.4875682 h 1.7274251 c 0.2765057,0 0.5758093,-0.2260694 0.5758093,-0.5792882 V 7.3289913 l 0.027217,0.015363 h 0.8239226 v 0 l 0.01258,-6.618e-4 C 9.0937322,7.3241729 9.3816385,7.0540543 9.3816385,6.7644053 V 4.4327099 c 0,-0.2571608 -0.2879063,-0.5648019 -0.5758084,-0.5648019 z M 7.078392,7.9082909 v 0 H 4.4872542 v 0 0 H 3.9114466 v 0 0 c 0,0 -0.2844239,0 -0.2844239,-0.2896454 V 5.3014901 C 3.6257319,5.0118482 3.9402363,5.0118482 3.9402363,5.0118482 h 3.1093641 c 0.2879069,0 0.342802,0.3041252 0.342802,0.3041252 v 2.3026721 c 0,0 -0.026104,0.2896454 -0.3140116,0.2896454 z"
     id="path2-3-6-9-9-7"
     sodipodi:nodetypes="csscsssscccccssccccssscscccccccsccscccs"
     style="fill:url(#linearGradient2303);fill-opacity:1;stroke-width:0.264578" />
  <path
     d="m 4.4425792,6.0625938 c -0.2114799,0 -0.3834575,0.1730812 -0.3834575,0.3858412 0,0.2126952 0.1719776,0.3858375 0.3834575,0.3858375 0.2114811,0 0.3835205,-0.1731423 0.3835205,-0.3858375 0,-0.21276 -0.1720394,-0.3858412 -0.3835205,-0.3858412 z m 0.0026,0.2355437 z"
     id="path4-7-9-1-8"
     style="fill:#d3dae3;fill-opacity:1;stroke-width:0.0799651"
     sodipodi:nodetypes="sssssccccc" />
  <path
     d="m 5.4294231,6.0625938 c -0.2114792,0 -0.3835211,0.1730812 -0.3835211,0.3858412 0,0.2126952 0.1720419,0.3858375 0.3835211,0.3858375 0.2114778,0 0.3835206,-0.1731423 0.3835206,-0.3858375 0,-0.21276 -0.1720428,-0.3858412 -0.3835206,-0.3858412 z m 0,0.2030775 z"
     id="path6-5-1-0-4"
     style="fill:#d3dae3;fill-opacity:1;stroke-width:0.0799651"
     sodipodi:nodetypes="sssssccccc" />
  <path
     d="m 6.4162057,6.0625938 c -0.2114197,0 -0.3835216,0.1730812 -0.3835216,0.3858412 0,0.2126952 0.1721019,0.3858375 0.3835216,0.3858375 0.2114781,0 0.3835808,-0.1731423 0.3835808,-0.3858375 0,-0.21276 -0.1721031,-0.3858412 -0.3835808,-0.3858412 z m 0,0.2030775 z"
     id="path8-3-4-7-5"
     style="fill:#d3dae3;fill-opacity:1;stroke-width:0.0799651"
     sodipodi:nodetypes="sssssccccc" />
  <path
     inkscape:connector-curvature="0"
     d="m 10.41077,9.1133005 -0.367734,0.02621 v 1.4646085 l 0.367734,-0.04472 V 9.9200765 c 0.159491,0.2406865 0.287486,0.4646255 0.501225,0.6973125 l 0.380982,-0.109466 A 4.9757544,4.9746485 0 0 1 10.79775,9.8368555 c 0.144494,-0.213187 0.325735,-0.427383 0.502725,-0.618837 l -0.394728,-0.09698 A 6.2946857,6.293289 0 0 0 10.41077,9.7588715 M 9.5728124,9.4139625 a 0.02999853,0.02999188 0 0 0 -0.01625,0.0086 c -0.04325,0.04103 -0.08424,0.08199 -0.127491,0.122966 -0.01875,0.01819 5.48e-4,0.03997 0.0088,0.05499 l 0.0875,0.120964 0.06549,0.08823 c 0.0093,0.01246 0.012,0.014 0.0073,0.02297 -0.006,0.0093 -0.01075,0.01672 -0.01625,0.02621 -0.085,0.1429645 -0.0255,0.1539605 -0.207492,0.2001995 l -0.139743,0.02327 c -0.0205,0.0065 -0.0475,0.0059 -0.04899,0.03498 0,0.05746 -0.0018,0.11497 -0.0018,0.172458 -0.001,0.02677 0.02875,0.0292 0.04625,0.03378 l 0.148493,0.02576 0.111243,0.02024 c 0.015,0.0021 0.0185,-0.0019 0.022,0.01001 0.0455,0.191691 0.104993,0.14745 0.0058,0.315412 l -0.08,0.111217 c -0.0105,0.01928 -0.03,0.0382 -0.01,0.05776 0.042,0.04175 0.08225,0.08371 0.124494,0.12547 0.01875,0.0182 0.04275,-6.83e-4 0.058,-0.0088 l 0.122993,-0.08545 0.092,-0.06176 c 0.0125,-0.01052 0.01425,-0.01302 0.02375,-0.0074 0.1842396,0.112722 0.1907406,0.03154 0.2444876,0.220937 l 0.0265,0.135718 c 0.007,0.01998 0.0075,0.04619 0.03575,0.0475 h 0.179242 c 0.02675,0 0.02925,-0.03075 0.0325,-0.0475 l 0.025,-0.144465 0.018,-0.106722 c 0.0012,-0.01022 8.07e-4,-0.01553 0.0028,-0.01898 0.21599,-0.04446 0.162493,-0.10697 0.337984,-0.0071 l 0.113992,0.078 c 0.021,0.01021 0.041,0.02826 0.061,0.0091 0.04225,-0.03997 0.08425,-0.08025 0.126744,-0.119967 0.019,-0.01928 2.2e-4,-0.04122 -0.0087,-0.05597 h -0.0018 l -0.083,-0.113963 -0.05475,0.01851 c -0.014,0.0093 -0.0325,0.0057 -0.04925,-0.01572 l -0.119997,-0.154895 a 0.61796948,0.61783193 0 0 1 -0.498224,0.248434 c -0.3377346,0 -0.6137226,-0.268428 -0.6137226,-0.597338 0,-0.2339345 0.139244,-0.4363835 0.340985,-0.5343585 v -0.137459 c -0.0068,0.0039 -0.015,0.0048 -0.0205,0.0074 -0.079,0.03172 -0.08399,0.04621 -0.213237,-0.02599 l -0.113994,-0.07928 c -0.016,-0.0068 -0.03,-0.01998 -0.0445,-0.01646 m 0.391477,0.307132 a 0.55072287,0.5506005 0 0 0 -0.288032,0.4806225 c 0,0.303164 0.254238,0.551354 0.5669736,0.551354 0.193238,0 0.362729,-0.09549 0.464975,-0.240443 l -0.0055,-0.01175 c -0.119989,0.129542 -0.255232,0.213515 -0.461222,0.218015 -0.2564876,0.0043 -0.5162236,-0.217944 -0.5174736,-0.511113 -0.0022,-0.188949 0.08749,-0.3159145 0.239987,-0.4066375 v -0.07951"
     id="path28-3-2-5-5-5"
     style="fill:url(#linearGradient1391-3-3-3);fill-opacity:1;fill-rule:evenodd;stroke-width:1.19036" />
</svg>
