<?xml version="1.0" encoding="UTF-8" standalone="no"?>
<svg
   xmlns:dc="http://purl.org/dc/elements/1.1/"
   xmlns:cc="http://creativecommons.org/ns#"
   xmlns:rdf="http://www.w3.org/1999/02/22-rdf-syntax-ns#"
   xmlns:svg="http://www.w3.org/2000/svg"
   xmlns="http://www.w3.org/2000/svg"
   xmlns:xlink="http://www.w3.org/1999/xlink"
   xmlns:sodipodi="http://sodipodi.sourceforge.net/DTD/sodipodi-0.dtd"
   xmlns:inkscape="http://www.inkscape.org/namespaces/inkscape"
   width="47.285591"
   height="47.28569"
   version="1.1"
   viewBox="0 0 12.510734 12.51076"
   id="svg12"
   sodipodi:docname="terminator-preferences.svg"
   inkscape:version="1.0.1 (3bc2e813f5, 2020-09-07)">
  <style
     id="style855"></style>
  <metadata
     id="metadata30">
    <rdf:RDF>
      <cc:Work
         rdf:about="">
        <dc:format>image/svg+xml</dc:format>
        <dc:type
           rdf:resource="http://purl.org/dc/dcmitype/StillImage" />
      </cc:Work>
    </rdf:RDF>
  </metadata>
  <defs
     id="defs16">
    <linearGradient
       id="c"
       y1="523.79999"
       x1="403.57001"
       y2="536.79999"
       x2="416.57001"
       gradientUnits="userSpaceOnUse"
       gradientTransform="matrix(0.34526714,0,0,0.34526706,-134.80427,-174.63325)">
      <stop
         stop-color="#292c2f"
         id="stop1568" />
      <stop
         offset="1"
         stop-opacity="0"
         id="stop1570" />
    </linearGradient>
    <linearGradient
       xlink:href="#b-2"
       id="linearGradient4189"
       x1="14.369"
       y1="22.521999"
       x2="26.521999"
       y2="22.521999"
       gradientUnits="userSpaceOnUse" />
    <linearGradient
       x1="36"
       gradientUnits="userSpaceOnUse"
       x2="14"
       y2="12"
       y1="44"
       id="b-2">
      <stop
         style="stop-color:#bfc9c9;stop-opacity:1"
         stop-color="#536161"
         id="stop1579" />
      <stop
         style="stop-color:#fbfbfb;stop-opacity:1"
         stop-color="#f4f5f5"
         offset="1"
         id="stop1581" />
    </linearGradient>
    <linearGradient
       xlink:href="#b-2"
       id="linearGradient4428"
       gradientUnits="userSpaceOnUse"
       x1="31.586"
       y1="36.345001"
       x2="1.2029999"
       y2="6.723" />
    <linearGradient
       xlink:href="#b-2"
       id="linearGradient4189-3"
       x1="14.369"
       y1="22.521999"
       x2="26.521999"
       y2="22.521999"
       gradientUnits="userSpaceOnUse"
       gradientTransform="translate(20.841982,61.553822)" />
    <linearGradient
       xlink:href="#b-2"
       id="linearGradient4428-5"
       gradientUnits="userSpaceOnUse"
       x1="31.586"
       y1="36.345001"
       x2="1.2029999"
       y2="6.723"
       gradientTransform="translate(20.841982,61.553822)" />
    <linearGradient
       xlink:href="#b-2"
       id="linearGradient4189-3-3"
       x1="14.369"
       y1="22.521999"
       x2="26.521999"
       y2="22.521999"
       gradientUnits="userSpaceOnUse"
       gradientTransform="translate(4.376802,4.4211693)" />
    <linearGradient
       xlink:href="#b-2"
       id="linearGradient4428-5-5"
       gradientUnits="userSpaceOnUse"
       x1="31.586"
       y1="36.345001"
       x2="1.2029999"
       y2="6.723"
       gradientTransform="translate(4.376802,4.4211693)" />
    <linearGradient
       inkscape:collect="always"
       xlink:href="#linearGradient14"
       id="linearGradient15"
       x1="-9.6850061"
       y1="45.161198"
       x2="11.98815"
       y2="21.735205"
       gradientUnits="userSpaceOnUse"
       gradientTransform="scale(0.26457813)" />
    <linearGradient
       id="linearGradient14"
       inkscape:collect="always">
      <stop
         style="stop-color:#9955ff;stop-opacity:0.45197046;"
         offset="0"
         id="stop12" />
      <stop
         style="stop-color:#00ccff;stop-opacity:1"
         offset="1"
         id="stop13" />
    </linearGradient>
    <linearGradient
       inkscape:collect="always"
       xlink:href="#linearGradient14"
       id="linearGradient863"
       x1="-12.025727"
       y1="6.1170783"
       x2="-0.085100174"
       y2="6.1170783"
       gradientUnits="userSpaceOnUse" />
  </defs>
  <sodipodi:namedview
     id="namedview14"
     pagecolor="#000000"
     bordercolor="#666666"
     borderopacity="1.0"
     inkscape:showpageshadow="2"
     inkscape:pageopacity="0.0"
     inkscape:pagecheckerboard="0"
     inkscape:deskcolor="#d1d1d1"
     showgrid="false"
     inkscape:zoom="10.83591"
     inkscape:cx="23.845543"
     inkscape:cy="37.732451"
     inkscape:window-width="1920"
     inkscape:window-height="988"
     inkscape:window-x="0"
     inkscape:window-y="0"
     inkscape:window-maximized="1"
     inkscape:current-layer="svg12"
     inkscape:document-rotation="0">
    <inkscape:grid
       type="xygrid"
       id="grid244"
       originx="9.9594769"
       originy="-31.57929"
       spacingy="1"
       spacingx="1"
       units="px"
       visible="false" />
  </sodipodi:namedview>
  <rect
     x="-12.194976"
     y="0.32004508"
     width="11.940627"
     height="11.936014"
     rx="1.6121091"
     shape-rendering="crispEdges"
     id="rect5-6-7-3"
     ry="1.7735944"
     transform="matrix(0.00523883,-0.99998628,0.999988,0.00489859,0,0)"
     style="fill:#80b3ff;fill-opacity:0.15;stroke:url(#linearGradient863);stroke-width:0.5291563;stroke-miterlimit:4;stroke-dasharray:none;stroke-opacity:1" />
  <rect
     x="-3.7202365"
     y="4.8851409"
     width="7.912631"
     height="7.912384"
     rx="1.612043"
     shape-rendering="crispEdges"
     id="rect5-6-6-6-6"
     style="fill:#80b3ff;fill-opacity:0.122146;stroke:url(#linearGradient15);stroke-width:0.42332506;stroke-opacity:1;stroke-miterlimit:4;stroke-dasharray:none"
     ry="1.7735215"
     transform="matrix(0.72612649,-0.68756114,0.6879775,0.72573202,0,0)" />
  <path
     d="m 5.9805396,6.0339933 c 1.001e-4,0.058602 -0.023291,0.1148377 -0.065033,0.1562329 L 4.1471605,7.9482271 C 3.7803837,8.3097672 3.2333202,7.7659005 3.5969937,7.4012725 L 4.972439,6.0339933 3.5969937,4.666706 c -0.1515118,-0.1512106 -0.1515118,-0.3957481 0,-0.5469507 v 0 c 0.1519216,-0.1510512 0.3982484,-0.1510512 0.5501669,0 l 1.7683484,1.757988 c 0.041722,0.041414 0.065127,0.09764 0.065031,0.15625 z m -0.2221872,0 z"
     id="path4-3-9-2-3-4-0"
     style="color:#d6dbf1;fill:#99c2ff;fill-opacity:1;stroke-width:0.160811"
     sodipodi:nodetypes="ccccccsscccccccccccc"
     class="ColorScheme-Text" />
  <path
     d="m 6.439699,7.5014007 h 2.3991705 c 0.6122147,0.00239 0.6122147,0.7359622 0,0.7383163 H 6.439699 c -0.6122129,-0.00239 -0.6122129,-0.7359602 0,-0.7383163 z m 2.3991705,0.1476615 z"
     id="path8-6-7-36-2-9-3-6-5-3"
     style="color:#d6dbf1;fill:#99c2ff;fill-opacity:1;stroke-width:0.11977"
     sodipodi:nodetypes="cccccccccc"
     class="ColorScheme-Text" />
  <path
     fill-rule="evenodd"
     clip-rule="evenodd"
     d="m 10.514764,8.970594 c -0.04897,-0.02018 -0.111094,-0.02018 -0.235311,-0.02018 -0.124219,0 -0.186328,0 -0.235314,0.02018 -0.06532,0.02678 -0.1172186,0.0783 -0.1442756,0.143079 -0.01235,0.02954 -0.01719,0.06395 -0.01909,0.114125 -0.0027,0.0737 -0.04093,0.141951 -0.105322,0.178833 -0.06442,0.03683 -0.143072,0.03551 -0.208836,0.0017 -0.04475,-0.02348 -0.0772,-0.03648 -0.109203,-0.04065 -0.0701,-0.0092 -0.140991,0.0097 -0.197085,0.05239 -0.04207,0.03207 -0.07312,0.08535 -0.135232,0.192027 -0.06211,0.10668 -0.09316,0.160018 -0.100079,0.212149 -0.0092,0.0695 0.0097,0.1398154 0.05281,0.195448 0.01966,0.02543 0.04725,0.04671 0.09011,0.07345 0.06299,0.03926 0.103532,0.106126 0.103528,0.179905 -4e-6,0.07373 -0.04053,0.140628 -0.103528,0.179874 -0.04286,0.02665 -0.07047,0.04815 -0.09012,0.07347 -0.04304,0.05553 -0.06204,0.125913 -0.05281,0.195434 0.0069,0.0522 0.03796,0.105477 0.100079,0.212152 0.0621,0.106671 0.09316,0.16002 0.135232,0.192023 0.05609,0.04263 0.126987,0.06149 0.197085,0.05244 0.03202,-0.005 0.06444,-0.01728 0.109194,-0.04061 0.06578,-0.03449 0.144426,-0.03578 0.208854,0.0021 0.06443,0.03679 0.102548,0.105128 0.10533,0.178853 0.0018,0.05022 0.0067,0.08452 0.01909,0.114119 0.02707,0.06473 0.07895,0.116241 0.1442756,0.143076 0.04898,0.02019 0.111091,0.02019 0.235309,0.02019 0.124219,0 0.186331,0 0.235314,-0.02023 0.06536,-0.02676 0.117222,-0.07837 0.144272,-0.143082 0.0124,-0.02949 0.01723,-0.06395 0.0191,-0.11412 0.0031,-0.07366 0.04085,-0.141957 0.105314,-0.178848 0.06444,-0.0368 0.143082,-0.03548 0.208852,-0.0021 0.04471,0.02346 0.07722,0.03646 0.10919,0.0406 0.07011,0.0092 0.14099,-0.0096 0.197082,-0.05243 0.04208,-0.03211 0.07314,-0.08538 0.135235,-0.192047 0.06212,-0.106688 0.09317,-0.160027 0.100088,-0.212161 0.0092,-0.06948 -0.0097,-0.139827 -0.05277,-0.195442 -0.01962,-0.02546 -0.04731,-0.04668 -0.09014,-0.07347 -0.06297,-0.03931 -0.103513,-0.10612 -0.103513,-0.179887 0,-0.07373 0.04052,-0.140619 0.103513,-0.179863 0.04283,-0.02671 0.07047,-0.0481 0.09016,-0.07346 0.04305,-0.05561 0.06203,-0.125939 0.05277,-0.19545 -0.0065,-0.05227 -0.03795,-0.105598 -0.100088,-0.212272 -0.06212,-0.106697 -0.09317,-0.16003 -0.135235,-0.192049 -0.05609,-0.04269 -0.126983,-0.0615 -0.197082,-0.05241 -0.03203,0.005 -0.06447,0.01724 -0.109189,0.04065 -0.06574,0.03449 -0.144432,0.03582 -0.208853,-0.0017 -0.06448,-0.03678 -0.10255,-0.105039 -0.105339,-0.178758 -0.0022,-0.05019 -0.0062,-0.08455 -0.0191,-0.114118 -0.02709,-0.06475 -0.07894,-0.116229 -0.144273,-0.143064 z m -0.235311,1.698262 c 0.220854,0 0.399877,-0.177535 0.399877,-0.396548 0,-0.219018 -0.179023,-0.396551 -0.399877,-0.396551 -0.220855,0 -0.3998826,0.177533 -0.3998826,0.396551 0,0.219013 0.1790276,0.396548 0.3998826,0.396548 z"
     id="path1-3"
     style="fill:#ff2a2a;stroke-width:0.264578" />
</svg>
