<?xml version="1.0" encoding="UTF-8" standalone="no"?>
<svg
   xmlns:dc="http://purl.org/dc/elements/1.1/"
   xmlns:cc="http://creativecommons.org/ns#"
   xmlns:rdf="http://www.w3.org/1999/02/22-rdf-syntax-ns#"
   xmlns:svg="http://www.w3.org/2000/svg"
   xmlns="http://www.w3.org/2000/svg"
   xmlns:xlink="http://www.w3.org/1999/xlink"
   xmlns:sodipodi="http://sodipodi.sourceforge.net/DTD/sodipodi-0.dtd"
   xmlns:inkscape="http://www.inkscape.org/namespaces/inkscape"
   width="49.257294"
   height="49.257484"
   version="1.1"
   viewBox="0 0 13.032403 13.032453"
   id="svg12"
   sodipodi:docname="texstudio.svg"
   inkscape:version="1.0.1 (3bc2e813f5, 2020-09-07)">
  <style
     id="style900"></style>
  <metadata
     id="metadata75">
    <rdf:RDF>
      <cc:Work
         rdf:about="">
        <dc:format>image/svg+xml</dc:format>
        <dc:type
           rdf:resource="http://purl.org/dc/dcmitype/StillImage" />
      </cc:Work>
    </rdf:RDF>
  </metadata>
  <defs
     id="defs16">
    <linearGradient
       id="linearGradient2">
      <stop
         offset="0"
         stop-color="#fdbc4b"
         id="stop1" />
      <stop
         offset="1"
         stop-color="#fdbc4b"
         stop-opacity="0"
         id="stop2"
         style="stop-color:#fdbc4b;stop-opacity:0.55418718;" />
    </linearGradient>
    <linearGradient
       id="c"
       y1="523.79999"
       x1="403.57001"
       y2="536.79999"
       x2="416.57001"
       gradientUnits="userSpaceOnUse"
       gradientTransform="matrix(0.34526714,0,0,0.34526706,-134.80427,-174.63325)">
      <stop
         stop-color="#292c2f"
         id="stop1568" />
      <stop
         offset="1"
         stop-opacity="0"
         id="stop1570" />
    </linearGradient>
    <linearGradient
       xlink:href="#b-2"
       id="linearGradient4189"
       x1="14.369"
       y1="22.521999"
       x2="26.521999"
       y2="22.521999"
       gradientUnits="userSpaceOnUse" />
    <linearGradient
       x1="36"
       gradientUnits="userSpaceOnUse"
       x2="14"
       y2="12"
       y1="44"
       id="b-2">
      <stop
         style="stop-color:#bfc9c9;stop-opacity:1"
         stop-color="#536161"
         id="stop1579" />
      <stop
         style="stop-color:#fbfbfb;stop-opacity:1"
         stop-color="#f4f5f5"
         offset="1"
         id="stop1581" />
    </linearGradient>
    <linearGradient
       xlink:href="#b-2"
       id="linearGradient4428"
       gradientUnits="userSpaceOnUse"
       x1="31.586"
       y1="36.345001"
       x2="1.2029999"
       y2="6.723" />
    <linearGradient
       xlink:href="#b-2"
       id="linearGradient4189-3"
       x1="14.369"
       y1="22.521999"
       x2="26.521999"
       y2="22.521999"
       gradientUnits="userSpaceOnUse"
       gradientTransform="translate(20.841982,61.553822)" />
    <linearGradient
       xlink:href="#b-2"
       id="linearGradient4428-5"
       gradientUnits="userSpaceOnUse"
       x1="31.586"
       y1="36.345001"
       x2="1.2029999"
       y2="6.723"
       gradientTransform="translate(20.841982,61.553822)" />
    <linearGradient
       xlink:href="#b-2"
       id="linearGradient4189-3-3"
       x1="14.369"
       y1="22.521999"
       x2="26.521999"
       y2="22.521999"
       gradientUnits="userSpaceOnUse"
       gradientTransform="translate(4.376802,4.4211693)" />
    <linearGradient
       xlink:href="#b-2"
       id="linearGradient4428-5-5"
       gradientUnits="userSpaceOnUse"
       x1="31.586"
       y1="36.345001"
       x2="1.2029999"
       y2="6.723"
       gradientTransform="translate(4.376802,4.4211693)" />
    <linearGradient
       inkscape:collect="always"
       xlink:href="#linearGradient14"
       id="linearGradient15"
       x1="-9.6850061"
       y1="45.161198"
       x2="11.98815"
       y2="21.735205"
       gradientUnits="userSpaceOnUse"
       gradientTransform="scale(0.26457813)" />
    <linearGradient
       id="linearGradient14"
       inkscape:collect="always">
      <stop
         style="stop-color:#9955ff;stop-opacity:0.45197046;"
         offset="0"
         id="stop12" />
      <stop
         style="stop-color:#b380ff;stop-opacity:1"
         offset="1"
         id="stop13" />
    </linearGradient>
    <linearGradient
       inkscape:collect="always"
       xlink:href="#b"
       id="linearGradient1609"
       gradientUnits="userSpaceOnUse"
       gradientTransform="matrix(0.19843195,0,0,0.19843195,2.6458618,2.6463326)"
       x1="11"
       y1="4"
       x2="6"
       y2="17" />
    <linearGradient
       id="b"
       gradientUnits="userSpaceOnUse"
       x1="11"
       x2="6"
       y1="4"
       y2="17"
       gradientTransform="matrix(0.74999377,0,0,0.74999377,65.149328,-30.499979)">
      <stop
         offset="0"
         stop-color="#194d6f"
         id="stop467" />
      <stop
         offset=".230769"
         stop-color="#115c92"
         id="stop469" />
      <stop
         offset="1"
         stop-color="#9b59b6"
         id="stop471" />
    </linearGradient>
    <radialGradient
       id="c-2-0"
       cx="0"
       cy="0"
       gradientTransform="matrix(0.99215957,0,0,1.5874554,4.2333181,5.2259496)"
       gradientUnits="userSpaceOnUse"
       r="1">
      <stop
         offset="0"
         stop-color="#0c3d61"
         id="stop474-7-6" />
      <stop
         offset="1"
         stop-color="#0c3d61"
         stop-opacity=".149"
         id="stop476-0-2" />
    </radialGradient>
    <linearGradient
       id="d">
      <stop
         offset="0"
         stop-color="#fdbc4b"
         id="stop479"
         style="stop-color:#b380ff;stop-opacity:1" />
      <stop
         offset="1"
         stop-color="#fdbc4b"
         stop-opacity="0"
         id="stop481"
         style="stop-color:#ccaaff;stop-opacity:1" />
    </linearGradient>
    <linearGradient
       inkscape:collect="always"
       xlink:href="#f"
       id="linearGradient1613"
       gradientUnits="userSpaceOnUse"
       gradientTransform="matrix(0.19843195,0,0,0.19843195,2.6458618,2.6463326)"
       x1="5"
       y1="10"
       x2="15"
       y2="22" />
    <linearGradient
       id="f"
       gradientUnits="userSpaceOnUse"
       x1="5"
       x2="15"
       y1="10"
       y2="22"
       gradientTransform="matrix(0.74999377,0,0,0.74999377,65.149328,-30.499979)">
      <stop
         offset="0"
         stop-color="#3daee9"
         id="stop485" />
      <stop
         offset=".5"
         stop-color="#177ac2"
         id="stop487" />
      <stop
         offset="1"
         stop-color="#9b59b6"
         id="stop489" />
    </linearGradient>
    <linearGradient
       id="i"
       gradientUnits="userSpaceOnUse"
       x1="8"
       x2="8"
       y1="4"
       y2="14"
       gradientTransform="matrix(0.74999377,0,0,0.74999377,65.149328,-30.499979)">
      <stop
         offset="0"
         stop-color="#318bba"
         id="stop502" />
      <stop
         offset=".275862"
         stop-color="#177ac2"
         id="stop504" />
      <stop
         offset="1"
         stop-color="#9b59b6"
         id="stop506" />
    </linearGradient>
    <linearGradient
       inkscape:collect="always"
       xlink:href="#l"
       id="linearGradient1619"
       gradientUnits="userSpaceOnUse"
       gradientTransform="matrix(0.19843195,0,0,0.19843195,2.6458618,2.6463326)"
       x1="46"
       y1="50"
       x2="32"
       y2="20" />
    <linearGradient
       id="l"
       gradientUnits="userSpaceOnUse"
       x1="46"
       x2="32"
       y1="50"
       y2="20"
       gradientTransform="matrix(0.74999377,0,0,0.74999377,65.149328,-30.499979)">
      <stop
         offset="0"
         stop-color="#9b59b6"
         id="stop517" />
      <stop
         offset="1"
         stop-color="#9b59b6"
         stop-opacity="0"
         id="stop519" />
    </linearGradient>
    <linearGradient
       inkscape:collect="always"
       xlink:href="#m"
       id="linearGradient1621"
       gradientUnits="userSpaceOnUse"
       gradientTransform="matrix(0.19843195,0,0,0.19843195,2.6458618,2.6463326)"
       x1="28"
       y1="23"
       x2="30"
       y2="31" />
    <linearGradient
       id="m"
       gradientUnits="userSpaceOnUse"
       x1="28"
       x2="30"
       y1="23"
       y2="31"
       gradientTransform="matrix(0.74999377,0,0,0.74999377,65.149328,-30.499979)">
      <stop
         offset="0"
         stop-color="#11d116"
         id="stop522" />
      <stop
         offset="1"
         stop-color="#11d116"
         stop-opacity="0"
         id="stop524" />
    </linearGradient>
    <linearGradient
       inkscape:collect="always"
       xlink:href="#linearGradient14"
       id="linearGradient908"
       x1="-12.025727"
       y1="6.1170783"
       x2="-0.085100174"
       y2="6.1170783"
       gradientUnits="userSpaceOnUse" />
  </defs>
  <sodipodi:namedview
     id="namedview14"
     pagecolor="#000000"
     bordercolor="#666666"
     borderopacity="1.0"
     inkscape:showpageshadow="2"
     inkscape:pageopacity="0.0"
     inkscape:pagecheckerboard="0"
     inkscape:deskcolor="#d1d1d1"
     showgrid="false"
     inkscape:zoom="11.754207"
     inkscape:cx="-15.690931"
     inkscape:cy="30.944466"
     inkscape:window-width="1920"
     inkscape:window-height="988"
     inkscape:window-x="0"
     inkscape:window-y="0"
     inkscape:window-maximized="1"
     inkscape:current-layer="svg12"
     inkscape:document-rotation="0">
    <inkscape:grid
       type="xygrid"
       id="grid244"
       originx="10.220312"
       originy="-31.318442"
       spacingy="1"
       spacingx="1"
       units="px"
       visible="false" />
  </sodipodi:namedview>
  <rect
     x="-12.714121"
     y="0.32276484"
     width="12.459785"
     height="12.45497"
     rx="1.6121092"
     shape-rendering="crispEdges"
     id="rect5-6-7-3"
     ry="1.7735944"
     transform="matrix(0.00523883,-0.99998628,0.999988,0.00489859,0,0)"
     style="fill:#ccaaff;fill-opacity:0.1;stroke:url(#linearGradient908);stroke-width:0.529156;stroke-miterlimit:4;stroke-dasharray:none;stroke-opacity:1" />
  <rect
     x="-3.7103961"
     y="5.2538886"
     width="7.912631"
     height="7.912384"
     rx="1.612043"
     shape-rendering="crispEdges"
     id="rect5-6-6-6-6"
     style="fill:#ccaaff;fill-opacity:0.07;stroke:url(#linearGradient15);stroke-width:0.188987;stroke-opacity:1"
     ry="1.7735215"
     transform="matrix(0.72612649,-0.68756114,0.6879775,0.72573202,0,0)" />
  <path
     d="m 3.8567852,2.1581429 v 1.475835 c 0,0.06183 0.04425,0.111622 0.099216,0.111622 0.054965,0 0.099216,-0.04979 0.099216,-0.111622 v -1.475835 z"
     id="path529-3-8"
     style="fill:#80e5ff;stroke-width:0.198433;fill-opacity:1" />
  <path
     d="m 3.2048962,2.5569509 c -0.1904563,0.01371 -0.3696149,0.09555 -0.5045963,0.230596 -0.3098887,0.309951 -0.3098887,0.812426 0,1.122373 L 3.2614895,4.4711059 4.7807429,3.7455999 3.8226721,2.7875469 C 3.6599404,2.6247359 3.434522,2.5405999 3.2048962,2.5569509 Z"
     fill="url(#b)"
     id="path531-6-4"
     style="fill:url(#linearGradient1609);stroke-width:0.198433" />
  <path
     d="m 3.4599209,2.7534399 c -0.2418487,0.0062 -0.396864,0.06562 -0.5611882,0.232539 -0.1590635,0.212345 -0.2299996,0.392704 -0.2325395,0.623201 0,0.130546 0.0885,0.235636 0.1984314,0.235636 0.028281,0 0.055142,-0.0072 0.079452,-0.01974 l 0.00275,0.0028 c 0,-0.0017 0,-0.0028 0,-0.0043 0.068637,-0.03701 0.1162614,-0.118684 0.1162614,-0.214328 0,-0.186606 0.032284,-0.31781 0.1169361,-0.42161 0.1488411,-0.148859 0.2799266,-0.235717 0.4783181,-0.235717 0.3969035,0 0.494554,0.16585 0.6433974,0.314693 L 4.0211409,2.9859569 C 3.8722969,2.8370909 3.670473,2.7534099 3.4599561,2.7534099 Z"
     fill="url(#c)"
     id="path533-1-5"
     style="fill:url(#c-2-0);stroke-width:0.198433" />
  <path
     d="m 3.2048962,2.5569509 c -0.1904563,0.01371 -0.3696149,0.09555 -0.5045963,0.230596 -0.3098887,0.309951 -0.3098887,0.812426 0,1.122373 L 3.2614895,4.4711059 4.7807429,3.7455999 3.8226721,2.7875469 C 3.6599404,2.6247359 3.434522,2.5405999 3.2048962,2.5569509 Z"
     opacity="0.35"
     id="path535-2-0"
     style="opacity:1;fill:#aa87de;fill-opacity:1;stroke-width:0.198433" />
  <path
     d="m 5.021401,3.2572759 c -0.00682,1.26e-4 -0.013748,9.52e-4 -0.02051,0.0019 l -1.1440785,0.213952 c -0.2469861,0.03721 -0.4444659,0.22657 -0.4945328,0.471276 h -0.00307 l -0.2647094,1.040989 c -0.00353,0.01464 -0.00528,0.02955 -0.00538,0.04457 0,0.109594 0.088837,0.198433 0.198432,0.198433 0.013091,-4.24e-4 0.025992,-10e-4 0.038752,-0.0031 l 1.1390428,-0.284472 c 0.1986696,-0.05876 0.3552091,-0.216551 0.4088853,-0.416629 l 0.3394993,-1.020078 c 0.00407,-0.01562 0.00602,-0.03185 0.00615,-0.04804 0,-0.109594 -0.088839,-0.198432 -0.1984312,-0.198432 z"
     fill="url(#f)"
     id="path537-9-3"
     style="fill:url(#linearGradient1613);stroke-width:0.198433" />
  <path
     d="m 5.021401,3.2572759 c -0.00682,1.26e-4 -0.013748,9.52e-4 -0.02051,0.0019 l -1.1440785,0.213952 c -0.2469861,0.03721 -0.4444659,0.22657 -0.4945328,0.471276 h -0.00307 l -0.2647094,1.040989 c -0.00353,0.01464 -0.00528,0.02955 -0.00538,0.04457 0,0.109594 0.088837,0.198433 0.198432,0.198433 0.013091,-4.24e-4 0.025992,-10e-4 0.038752,-0.0031 l 1.1390428,-0.284472 c 0.1986696,-0.05876 0.3552091,-0.216551 0.4088853,-0.416629 l 0.3394993,-1.020078 c 0.00407,-0.01562 0.00602,-0.03185 0.00615,-0.04804 0,-0.109594 -0.088839,-0.198432 -0.1984312,-0.198432 z"
     opacity="0.5"
     id="path539-3-6"
     style="opacity:1;fill:#00ccff;fill-opacity:1;stroke-width:0.198433" />
  <path
     d="m 3.9916399,4.6881519 c 0.2465892,0 0.5263986,-0.199902 0.6250209,-0.446472 0.098599,-0.246573 -0.021333,-0.446472 -0.2679452,-0.446472 -0.246572,0 -0.5264009,0.199899 -0.6249999,0.446472 -0.09862,0.24657 0.021333,0.446472 0.2679242,0.446472 z"
     fill="#2c3e50"
     opacity="0.5"
     id="path541-1-1"
     style="stroke-width:0.198433" />
  <path
     d="m 3.9916399,4.6881519 c 0.2465892,0 0.5263986,-0.199902 0.6250209,-0.446472 0.098599,-0.246573 -0.021333,-0.446472 -0.2679452,-0.446472 -0.246572,0 -0.5264009,0.199899 -0.6249999,0.446472 -0.09862,0.24657 0.021333,0.446472 0.2679242,0.446472 z"
     fill="#2c3e50"
     opacity="0.5"
     id="path543-9-0"
     style="opacity:1;fill:#ffe680;fill-opacity:1;stroke-width:0.198433" />
  <path
     d="m 2.6661932,2.1581429 v 1.475835 c 0,0.06183 0.044249,0.111622 0.099216,0.111622 0.054965,0 0.099216,-0.04979 0.099216,-0.111622 v -1.475835 z"
     id="path547-7-3"
     style="fill:#80b3ff;fill-opacity:1;stroke-width:0.198433" />
  <path
     d="m 3.7575692,6.3781175 -0.1387437,0.515846 0.2805827,0.280604 H 4.107541 l 0.1073523,-0.267804 h 0.2371872 v 1.583567 l -0.3968633,0.268974 0.2806002,0.280603 H 5.52641 V 8.8414755 L 5.2458066,8.5608725 c -0.03891,-2.43e-4 -0.077686,-0.0026 -0.1162609,-0.0066 v -1.647521 h 0.3573144 l 0.267825,0.267804 H 5.9628015 L 5.8240572,6.6587235 5.543452,6.3781175 Z m 3.3473658,0 -0.073243,0.146511 0.2806057,0.280581 c 0.075998,0.01678 0.1505921,0.03937 0.2232344,0.06705 l 0.40228,0.649566 -0.5964639,0.963466 -0.2894954,0.274015 0.2805828,0.280603 H 8.0765565 L 8.1792646,8.9372005 7.949841,8.7077535 8.3110423,8.1244835 8.5831112,8.5639705 8.39709,8.7593065 8.6776658,9.0399095 H 9.4217992 L 9.4950522,8.8934065 9.214452,8.6128045 C 9.155381,8.5997845 9.0972,8.5831945 9.0400519,8.5635945 L 8.614107,7.8756675 9.1931437,6.9393065 c 0.1191009,-0.0603 0.2450001,-0.105407 0.3751228,-0.134097 L 9.4950519,6.6587235 9.2144517,6.3781175 8.3676186,6.4808265 8.5924018,6.7056115 8.2412754,7.2733875 7.9761927,6.8455305 c 0.086851,-0.02341 0.1724343,-0.05108 0.2561717,-0.08412 L 7.9517632,6.4808265 Z m -0.1724589,0.992164 -1.6277548,0.149597 0.3379459,0.33795 v 1.617696 l -0.3096466,0.27594 0.2805843,0.2806025 H 7.331289 C 7.354884,9.8280585 7.404767,9.6279805 7.4797171,9.4367715 L 7.199133,9.1561685 H 6.9851798 C 6.9225768,9.2745335 6.8700724,9.3979375 6.828226,9.5251325 6.73155,9.5122125 6.6340568,9.5051525 6.5363913,9.5042025 l -0.00103,-7.68e-4 H 6.3200431 v -0.612344 l 0.1984322,3.97e-4 c 0.031114,0.0011 0.061137,0.007 0.089509,0.01704 l 0.1810037,0.18099 H 6.9153513 V 8.4446125 L 6.6347588,8.1640075 H 6.5274123 c -0.033672,0.09523 -0.1124706,0.165056 -0.2073407,0.189126 v -0.454213 h 0.3968651 v -7.68e-4 c 0.050597,-4.49e-4 0.1010996,-0.0029 0.1515218,-0.0066 l 0.2751851,0.275166 H 7.3517618 L 7.2130249,7.6508855 Z"
     opacity="0.08"
     id="path553-5-6"
     style="stroke-width:0.198433" />
  <path
     d="m 3.7575692,6.3781175 -0.1387437,0.515846 h 0.2081156 l 0.107351,-0.267805 h 0.5177884 v 1.864172 c -0.1273129,0.0459 -0.2615331,0.06975 -0.3968633,0.07054 v 0.198432 H 5.2458066 V 8.5608705 C 5.1104763,8.5600765 4.9762582,8.5362305 4.8489442,8.4903305 V 6.6261585 H 5.3667334 L 5.474081,6.8939635 H 5.6821952 L 5.543452,6.3781175 Z m 3.3473658,0 -0.073243,0.146511 c 0.1282669,0.02827 0.2525287,0.07236 0.3701154,0.131374 l 0.5360047,0.865821 -0.5964639,0.963466 c -0.1154085,0.05715 -0.2371663,0.09983 -0.3627565,0.127513 l 0.073261,0.146502 h 0.7441207 l 0.1026892,-0.102708 c -0.1012387,-0.03995 -0.2051592,-0.07267 -0.3108238,-0.09844 l 0.4960799,-0.800316 0.4991923,0.80613 c -0.09804,0.0249 -0.1945758,0.05548 -0.2887368,0.09263 l 0.1027156,0.102708 h 0.7441101 l 0.073252,-0.146502 C 9.1056866,8.5888105 8.9996304,8.5535505 8.898175,8.5073955 L 8.3335084,7.5950645 8.912526,6.6587235 c 0.1190977,-0.0603 0.2450533,-0.105407 0.3751705,-0.134095 l -0.073245,-0.14651 h -0.744126 l -0.1027071,0.102708 c 0.09899,0.03905 0.2006074,0.07098 0.3038524,0.09651 L 8.1877997,7.3598245 7.6955885,6.5649275 c 0.086855,-0.02339 0.1724364,-0.05106 0.2561747,-0.0841 L 7.8490546,6.3781185 Z m -1.7719144,0.992164 -0.028299,0.149597 c 0.1231868,0.0066 0.2412707,0.05128 0.3379459,0.12789 v 1.827756 c -0.096211,0.07544 -0.2139656,0.12025 -0.3379459,0.126342 l 0.028299,0.149598 h 1.717664 c 0.023579,-0.204008 0.0735,-0.404087 0.1484484,-0.595296 H 6.9851798 c -0.062603,0.118365 -0.1151074,0.241769 -0.1569538,0.368964 -0.096937,-0.01294 -0.194683,-0.02002 -0.2926142,-0.02093 v -7.68e-4 H 6.0395315 v -0.892949 l 0.1984315,3.96e-4 c 0.1220192,0.0041 0.229612,0.08229 0.2705264,0.198036 h 0.1263384 v -0.644907 h -0.107346 c -0.041908,0.118504 -0.1537445,0.197936 -0.2794384,0.198432 H 6.0395315 v -0.74412 h 0.3968643 v -7.67e-4 c 0.1089787,-0.0011 0.2177425,-0.0096 0.3255544,-0.02558 l 0.1011538,0.294156 h 0.2081161 l -0.138744,-0.515847 z"
     fill="#fcfcfc"
     id="path555-0-1"
     style="stroke-width:0.198433" />
  <path
     d="m 3.7575692,6.3781175 -0.1387437,0.515846 h 0.2081156 l 0.107351,-0.267805 h 0.5177884 v 1.864172 c -0.1273129,0.0459 -0.2615331,0.06975 -0.3968633,0.07054 v 0.198432 H 5.2458066 V 8.5608705 C 5.1104763,8.5600765 4.9762582,8.5362305 4.8489442,8.4903305 V 6.6261585 H 5.3667334 L 5.474081,6.8939635 H 5.6821952 L 5.543452,6.3781175 Z m 3.3473658,0 -0.073243,0.146511 c 0.1282669,0.02827 0.2525287,0.07236 0.3701154,0.131374 l 0.5360047,0.865821 -0.5964639,0.963466 c -0.1154085,0.05715 -0.2371663,0.09983 -0.3627565,0.127513 l 0.073261,0.146502 h 0.7441207 l 0.1026892,-0.102708 c -0.1012387,-0.03995 -0.2051592,-0.07267 -0.3108238,-0.09844 l 0.4960799,-0.800316 0.4991923,0.80613 c -0.09804,0.0249 -0.1945758,0.05548 -0.2887368,0.09263 l 0.1027156,0.102708 h 0.7441101 l 0.073252,-0.146502 C 9.1056866,8.5888105 8.9996304,8.5535505 8.898175,8.5073955 L 8.3335084,7.5950645 8.912526,6.6587235 c 0.1190977,-0.0603 0.2450533,-0.105407 0.3751705,-0.134095 l -0.073245,-0.14651 h -0.744126 l -0.1027071,0.102708 c 0.09899,0.03905 0.2006074,0.07098 0.3038524,0.09651 L 8.1877997,7.3598245 7.6955885,6.5649275 c 0.086855,-0.02339 0.1724364,-0.05106 0.2561747,-0.0841 L 7.8490546,6.3781185 Z m -1.7719144,0.992164 -0.028299,0.149597 c 0.1231868,0.0066 0.2412707,0.05128 0.3379459,0.12789 v 1.827756 c -0.096211,0.07544 -0.2139656,0.12025 -0.3379459,0.126342 l 0.028299,0.149598 h 1.717664 c 0.023579,-0.204008 0.0735,-0.404087 0.1484484,-0.595296 H 6.9851798 c -0.062603,0.118365 -0.1151074,0.241769 -0.1569538,0.368964 -0.096937,-0.01294 -0.194683,-0.02002 -0.2926142,-0.02093 v -7.68e-4 H 6.0395315 v -0.892949 l 0.1984315,3.96e-4 c 0.1220192,0.0041 0.229612,0.08229 0.2705264,0.198036 h 0.1263384 v -0.644907 h -0.107346 c -0.041908,0.118504 -0.1537445,0.197936 -0.2794384,0.198432 H 6.0395315 v -0.74412 h 0.3968643 v -7.67e-4 c 0.1089787,-0.0011 0.2177425,-0.0096 0.3255544,-0.02558 l 0.1011538,0.294156 h 0.2081161 l -0.138744,-0.515847 z"
     fill="url(#l)"
     opacity="0.4"
     id="path557-3-5"
     style="fill:url(#linearGradient1619);stroke-width:0.198433" />
  <path
     d="m 3.7575692,6.3781175 -0.1387437,0.515846 h 0.2081156 l 0.107351,-0.267805 h 0.5177884 v 1.864172 c -0.1273129,0.0459 -0.2615331,0.06975 -0.3968633,0.07054 v 0.198432 H 5.2458066 V 8.5608705 C 5.1104763,8.5600765 4.9762582,8.5362305 4.8489442,8.4903305 V 6.6261585 H 5.3667334 L 5.474081,6.8939635 H 5.6821952 L 5.543452,6.3781175 Z m 3.3473658,0 -0.073243,0.146511 c 0.1282669,0.02827 0.2525287,0.07236 0.3701154,0.131374 l 0.5360047,0.865821 -0.5964639,0.963466 c -0.1154085,0.05715 -0.2371663,0.09983 -0.3627565,0.127513 l 0.073261,0.146502 h 0.7441207 l 0.1026892,-0.102708 c -0.1012387,-0.03995 -0.2051592,-0.07267 -0.3108238,-0.09844 l 0.4960799,-0.800316 0.4991923,0.80613 c -0.09804,0.0249 -0.1945758,0.05548 -0.2887368,0.09263 l 0.1027156,0.102708 h 0.7441101 l 0.073252,-0.146502 C 9.1056866,8.5888105 8.9996304,8.5535505 8.898175,8.5073955 L 8.3335084,7.5950645 8.912526,6.6587235 c 0.1190977,-0.0603 0.2450533,-0.105407 0.3751705,-0.134095 l -0.073245,-0.14651 h -0.744126 l -0.1027071,0.102708 c 0.09899,0.03905 0.2006074,0.07098 0.3038524,0.09651 L 8.1877997,7.3598245 7.6955885,6.5649275 c 0.086855,-0.02339 0.1724364,-0.05106 0.2561747,-0.0841 L 7.8490546,6.3781185 Z m -1.7719144,0.992164 -0.028299,0.149597 c 0.1231868,0.0066 0.2412707,0.05128 0.3379459,0.12789 v 1.827756 c -0.096211,0.07544 -0.2139656,0.12025 -0.3379459,0.126342 l 0.028299,0.149598 h 1.717664 c 0.023579,-0.204008 0.0735,-0.404087 0.1484484,-0.595296 H 6.9851798 c -0.062603,0.118365 -0.1151074,0.241769 -0.1569538,0.368964 -0.096937,-0.01294 -0.194683,-0.02002 -0.2926142,-0.02093 v -7.68e-4 H 6.0395315 v -0.892949 l 0.1984315,3.96e-4 c 0.1220192,0.0041 0.229612,0.08229 0.2705264,0.198036 h 0.1263384 v -0.644907 h -0.107346 c -0.041908,0.118504 -0.1537445,0.197936 -0.2794384,0.198432 H 6.0395315 v -0.74412 h 0.3968643 v -7.67e-4 c 0.1089787,-0.0011 0.2177425,-0.0096 0.3255544,-0.02558 l 0.1011538,0.294156 h 0.2081161 l -0.138744,-0.515847 z"
     fill="url(#m)"
     opacity="0.05"
     id="path559-6-5"
     style="fill:url(#linearGradient1621);stroke-width:0.198433" />
  <path
     d="M 8.578936,2.2892862 8.1703745,3.027173 H 7.5218378 V 3.3961163 H 7.8907815 V 4.2946746 L 8.7965771,2.6582298 H 10.104447 V 2.2892862 Z M 6.0460626,3.027173 V 3.3961163 H 7.1528937 V 3.027173 Z m 3.689438,0.3689433 c -0.3047767,0 -0.7378887,0.1909648 -0.7378887,0.9223593 0,0.5668778 0.3584292,0.9108792 0.7378887,0.9223567 0.2602545,0 0.5456904,-0.094986 0.6770124,-0.2973702 L 10.127295,4.7544913 C 9.9995822,4.8916677 9.8542744,4.8949092 9.7472299,4.8949092 c -0.1834452,0 -0.375653,-0.1537448 -0.3756143,-0.391963 L 10.473393,4.4475916 V 4.1339891 c 0,-0.4087904 -0.3291,-0.7378873 -0.7378924,-0.7378873 z M 6.0460626,3.7650601 V 4.1340037 H 7.1528937 V 3.7650601 Z M 9.7338357,3.7309241 C 10.01833,3.7231482 10.117205,3.9121865 10.126619,4.1339596 L 9.3536808,4.1326278 C 9.3647271,3.939083 9.4358088,3.7385998 9.7338357,3.7305977 Z M 6.7839491,4.5029089 V 4.8718542 H 7.1528937 V 5.6097405 H 7.5218378 V 4.8718573 h 0.3689437 v 0.737885 H 8.2597259 V 4.8718591 h 0.368943 V 4.5029173 Z"
     opacity="1.0"
     id="path561-1-4"
     style="opacity:1;fill:#abcdff;fill-opacity:1;stroke-width:0.198434" />
  <path
     d="m 4.2982161,3.2630919 -0.590255,0.110446 c -0.2469879,0.03721 -0.4444653,0.226571 -0.4945331,0.471278 h -0.00307 l -0.1166562,0.458474 0.1387435,0.138765 0.1267358,-0.498023 h 0.00307 c 0.050067,-0.244707 0.2475444,-0.434068 0.4945328,-0.471277 l 0.5484043,-0.102709 z"
     fill="#000018"
     opacity="0.03"
     id="path567-3-7"
     style="stroke-width:0.198433" />
  <path
     d="m 4.3524684,3.3173429 -0.565055,0.105804 c -0.246989,0.03721 -0.4444662,0.226571 -0.4945331,0.471277 h -0.00307 l -0.1224724,0.482507 0.065108,0.06513 0.1267358,-0.498024 h 0.00307 c 0.050067,-0.244712 0.2475438,-0.434073 0.4945327,-0.471282 l 0.5484041,-0.102709 z"
     fill="#000016"
     opacity="0.03"
     id="path569-2-6"
     style="stroke-width:0.198433" />
</svg>
