<?xml version="1.0" encoding="UTF-8" standalone="no"?>
<svg
   xmlns:dc="http://purl.org/dc/elements/1.1/"
   xmlns:cc="http://creativecommons.org/ns#"
   xmlns:rdf="http://www.w3.org/1999/02/22-rdf-syntax-ns#"
   xmlns:svg="http://www.w3.org/2000/svg"
   xmlns="http://www.w3.org/2000/svg"
   xmlns:xlink="http://www.w3.org/1999/xlink"
   xmlns:sodipodi="http://sodipodi.sourceforge.net/DTD/sodipodi-0.dtd"
   xmlns:inkscape="http://www.inkscape.org/namespaces/inkscape"
   width="47.285591"
   height="47.28569"
   version="1.1"
   viewBox="0 0 12.510734 12.51076"
   id="svg12"
   sodipodi:docname="tigervnc.svg"
   inkscape:version="1.0.1 (3bc2e813f5, 2020-09-07)">
  <style
     id="style909"></style>
  <metadata
     id="metadata84">
    <rdf:RDF>
      <cc:Work
         rdf:about="">
        <dc:format>image/svg+xml</dc:format>
        <dc:type
           rdf:resource="http://purl.org/dc/dcmitype/StillImage" />
      </cc:Work>
    </rdf:RDF>
  </metadata>
  <defs
     id="defs16">
    <linearGradient
       id="c"
       y1="523.79999"
       x1="403.57001"
       y2="536.79999"
       x2="416.57001"
       gradientUnits="userSpaceOnUse"
       gradientTransform="matrix(0.34526714,0,0,0.34526706,-134.80427,-174.63325)">
      <stop
         stop-color="#292c2f"
         id="stop1568" />
      <stop
         offset="1"
         stop-opacity="0"
         id="stop1570" />
    </linearGradient>
    <linearGradient
       xlink:href="#b-2"
       id="linearGradient4189"
       x1="14.369"
       y1="22.521999"
       x2="26.521999"
       y2="22.521999"
       gradientUnits="userSpaceOnUse" />
    <linearGradient
       x1="36"
       gradientUnits="userSpaceOnUse"
       x2="14"
       y2="12"
       y1="44"
       id="b-2">
      <stop
         style="stop-color:#bfc9c9;stop-opacity:1"
         stop-color="#536161"
         id="stop1579" />
      <stop
         style="stop-color:#fbfbfb;stop-opacity:1"
         stop-color="#f4f5f5"
         offset="1"
         id="stop1581" />
    </linearGradient>
    <linearGradient
       xlink:href="#b-2"
       id="linearGradient4428"
       gradientUnits="userSpaceOnUse"
       x1="31.586"
       y1="36.345001"
       x2="1.2029999"
       y2="6.723" />
    <linearGradient
       xlink:href="#b-2"
       id="linearGradient4189-3"
       x1="14.369"
       y1="22.521999"
       x2="26.521999"
       y2="22.521999"
       gradientUnits="userSpaceOnUse"
       gradientTransform="translate(20.841982,61.553822)" />
    <linearGradient
       xlink:href="#b-2"
       id="linearGradient4428-5"
       gradientUnits="userSpaceOnUse"
       x1="31.586"
       y1="36.345001"
       x2="1.2029999"
       y2="6.723"
       gradientTransform="translate(20.841982,61.553822)" />
    <linearGradient
       xlink:href="#b-2"
       id="linearGradient4189-3-3"
       x1="14.369"
       y1="22.521999"
       x2="26.521999"
       y2="22.521999"
       gradientUnits="userSpaceOnUse"
       gradientTransform="translate(4.376802,4.4211693)" />
    <linearGradient
       xlink:href="#b-2"
       id="linearGradient4428-5-5"
       gradientUnits="userSpaceOnUse"
       x1="31.586"
       y1="36.345001"
       x2="1.2029999"
       y2="6.723"
       gradientTransform="translate(4.376802,4.4211693)" />
    <linearGradient
       inkscape:collect="always"
       xlink:href="#linearGradient14"
       id="linearGradient15"
       x1="-9.6850061"
       y1="45.161198"
       x2="11.98815"
       y2="21.735205"
       gradientUnits="userSpaceOnUse"
       gradientTransform="scale(0.26457813)" />
    <linearGradient
       id="linearGradient14"
       inkscape:collect="always">
      <stop
         style="stop-color:#ff9900;stop-opacity:0.34509805;"
         offset="0"
         id="stop12" />
      <stop
         style="stop-color:#ffb685;stop-opacity:0.81568629;"
         offset="1"
         id="stop13" />
    </linearGradient>
    <filter
       id="filter2917-3"
       x="-0.96181148"
       y="-0.66745996"
       width="2.9236228"
       height="2.3349199"
       color-interpolation-filters="sRGB">
      <feGaussianBlur
         stdDeviation="0.2871969"
         id="feGaussianBlur732-5" />
    </filter>
    <filter
       id="filter1"
       x="-0.96181148"
       y="-0.66745996"
       width="2.9236228"
       height="2.3349199"
       color-interpolation-filters="sRGB">
      <feGaussianBlur
         stdDeviation="0.2871969"
         id="feGaussianBlur1" />
    </filter>
    <filter
       id="filter2"
       x="-0.96181148"
       y="-0.66745996"
       width="2.9236228"
       height="2.3349199"
       color-interpolation-filters="sRGB">
      <feGaussianBlur
         stdDeviation="0.2871969"
         id="feGaussianBlur2" />
    </filter>
    <linearGradient
       id="_lgradient_20"
       x1="-0.29991642"
       y1="-0.26140401"
       x2="0.96725708"
       y2="0.86616999"
       gradientTransform="matrix(15.137397,0,0,16.82717,0.89780187,0.05291536)"
       gradientUnits="userSpaceOnUse">
      <stop
         offset="34.94098066785295%"
         stop-opacity="1"
         style="stop-color:rgb(178,229,107)"
         id="stop1" />
      <stop
         offset="53.84922244785295%"
         stop-opacity="1"
         style="stop-color:rgb(194,233,100)"
         id="stop2" />
      <stop
         offset="90.40515655585295%"
         stop-opacity="1"
         style="stop-color:rgb(236,244,81)"
         id="stop3" />
      <stop
         offset="100%"
         stop-opacity="1"
         style="stop-color:rgb(250,247,75)"
         id="stop4" />
    </linearGradient>
    <clipPath
       clipPathUnits="userSpaceOnUse"
       id="clipPath1129-3-7-7">
      <g
         id="g1133-6-8-5">
        <rect
           ry="8.90625"
           rx="8.90625"
           y="5.0000134"
           x="4.9999976"
           height="38"
           width="38"
           id="rect1131-7-4-3"
           style="opacity:1;fill:#000000;fill-opacity:1;stroke:none;stroke-width:0.609649;stroke-linecap:round;stroke-linejoin:round;stroke-miterlimit:4;stroke-dasharray:none;stroke-dashoffset:0;stroke-opacity:1" />
      </g>
    </clipPath>
    <clipPath
       clipPathUnits="userSpaceOnUse"
       id="clipPath1123-5-5-5">
      <g
         id="g1127-3-0-6">
        <rect
           ry="8.90625"
           rx="8.90625"
           y="5.0000134"
           x="4.9999976"
           height="38"
           width="38"
           id="rect1125-5-3-2"
           style="opacity:1;fill:#000000;fill-opacity:1;stroke:none;stroke-width:0.609649;stroke-linecap:round;stroke-linejoin:round;stroke-miterlimit:4;stroke-dasharray:none;stroke-dashoffset:0;stroke-opacity:1" />
      </g>
    </clipPath>
    <clipPath
       clipPathUnits="userSpaceOnUse"
       id="clipPath1117-6-6-9">
      <g
         id="g1121-2-1-1">
        <rect
           ry="8.90625"
           rx="8.90625"
           y="5.0000134"
           x="4.9999976"
           height="38"
           width="38"
           id="rect1119-9-0-2"
           style="opacity:1;fill:#000000;fill-opacity:1;stroke:none;stroke-width:0.609649;stroke-linecap:round;stroke-linejoin:round;stroke-miterlimit:4;stroke-dasharray:none;stroke-dashoffset:0;stroke-opacity:1" />
      </g>
    </clipPath>
    <linearGradient
       id="linearGradient3250">
      <stop
         style="stop-color:#00b33b;stop-opacity:1;"
         offset="0"
         id="stop3252" />
      <stop
         style="stop-color:#faffb7;stop-opacity:1;"
         offset="1"
         id="stop3254" />
    </linearGradient>
    <clipPath
       clipPathUnits="userSpaceOnUse"
       id="clipPath1157-0-0-3">
      <g
         id="g1163-9-6-6">
        <g
           id="g1161-3-1-0">
          <rect
             ry="8.90625"
             rx="8.90625"
             y="5.0000134"
             x="4.9999976"
             height="38"
             width="38"
             id="rect1159-6-5-6"
             style="opacity:1;fill:#000000;fill-opacity:1;stroke:none;stroke-width:0.609649;stroke-linecap:round;stroke-linejoin:round;stroke-miterlimit:4;stroke-dasharray:none;stroke-dashoffset:0;stroke-opacity:1" />
        </g>
      </g>
    </clipPath>
    <clipPath
       clipPathUnits="userSpaceOnUse"
       id="clipPath1149-0-5-2">
      <g
         id="g1155-6-4-6">
        <g
           id="g1153-2-7-1">
          <rect
             ry="8.90625"
             rx="8.90625"
             y="5.0000134"
             x="4.9999976"
             height="38"
             width="38"
             id="rect1151-6-6-8"
             style="opacity:1;fill:#000000;fill-opacity:1;stroke:none;stroke-width:0.609649;stroke-linecap:round;stroke-linejoin:round;stroke-miterlimit:4;stroke-dasharray:none;stroke-dashoffset:0;stroke-opacity:1" />
        </g>
      </g>
    </clipPath>
    <clipPath
       clipPathUnits="userSpaceOnUse"
       id="clipPath1105-1-5-7">
      <g
         id="g1109-8-6-9">
        <rect
           ry="8.90625"
           rx="8.90625"
           y="5.0000134"
           x="4.9999976"
           height="38"
           width="38"
           id="rect1107-7-9-2"
           style="opacity:1;fill:#000000;fill-opacity:1;stroke:none;stroke-width:0.609649;stroke-linecap:round;stroke-linejoin:round;stroke-miterlimit:4;stroke-dasharray:none;stroke-dashoffset:0;stroke-opacity:1" />
      </g>
    </clipPath>
    <clipPath
       clipPathUnits="userSpaceOnUse"
       id="clipPath1099-9-3-0">
      <g
         id="g1103-2-7-2">
        <rect
           ry="8.90625"
           rx="8.90625"
           y="5.0000134"
           x="4.9999976"
           height="38"
           width="38"
           id="rect1101-0-4-3"
           style="opacity:1;fill:#000000;fill-opacity:1;stroke:none;stroke-width:0.609649;stroke-linecap:round;stroke-linejoin:round;stroke-miterlimit:4;stroke-dasharray:none;stroke-dashoffset:0;stroke-opacity:1" />
      </g>
    </clipPath>
    <clipPath
       clipPathUnits="userSpaceOnUse"
       id="clipPath1093-2-5-7">
      <g
         id="g1097-3-2-5">
        <rect
           ry="8.90625"
           rx="8.90625"
           y="5.0000134"
           x="4.9999976"
           height="38"
           width="38"
           id="rect1095-7-5-9"
           style="opacity:1;fill:#000000;fill-opacity:1;stroke:none;stroke-width:0.609649;stroke-linecap:round;stroke-linejoin:round;stroke-miterlimit:4;stroke-dasharray:none;stroke-dashoffset:0;stroke-opacity:1" />
      </g>
    </clipPath>
    <clipPath
       clipPathUnits="userSpaceOnUse"
       id="clipPath1081-5-4-2">
      <g
         id="g1085-9-7-2">
        <rect
           ry="8.90625"
           rx="8.90625"
           y="5.0000134"
           x="4.9999976"
           height="38"
           width="38"
           id="rect1083-2-4-8"
           style="opacity:1;fill:#000000;fill-opacity:1;stroke:none;stroke-width:0.609649;stroke-linecap:round;stroke-linejoin:round;stroke-miterlimit:4;stroke-dasharray:none;stroke-dashoffset:0;stroke-opacity:1" />
      </g>
    </clipPath>
    <clipPath
       clipPathUnits="userSpaceOnUse"
       id="clipPath1075-2-4-9">
      <g
         id="g1079-8-3-7">
        <rect
           ry="8.90625"
           rx="8.90625"
           y="5.0000134"
           x="4.9999976"
           height="38"
           width="38"
           id="rect1077-9-0-3"
           style="opacity:1;fill:#000000;fill-opacity:1;stroke:none;stroke-width:0.609649;stroke-linecap:round;stroke-linejoin:round;stroke-miterlimit:4;stroke-dasharray:none;stroke-dashoffset:0;stroke-opacity:1" />
      </g>
    </clipPath>
    <linearGradient
       inkscape:collect="always"
       xlink:href="#linearGradient14"
       id="linearGradient917"
       x1="-12.025727"
       y1="6.1170783"
       x2="-0.085100174"
       y2="6.1170783"
       gradientUnits="userSpaceOnUse" />
  </defs>
  <sodipodi:namedview
     id="namedview14"
     pagecolor="#000000"
     bordercolor="#666666"
     borderopacity="1.0"
     inkscape:showpageshadow="2"
     inkscape:pageopacity="0.0"
     inkscape:pagecheckerboard="0"
     inkscape:deskcolor="#d1d1d1"
     showgrid="false"
     inkscape:zoom="8.8545525"
     inkscape:cx="22.890042"
     inkscape:cy="23.627799"
     inkscape:window-width="1920"
     inkscape:window-height="988"
     inkscape:window-x="0"
     inkscape:window-y="0"
     inkscape:window-maximized="1"
     inkscape:current-layer="svg12"
     inkscape:document-rotation="0">
    <inkscape:grid
       type="xygrid"
       id="grid244"
       originx="9.9594769"
       originy="-31.57929"
       spacingy="1"
       spacingx="1"
       units="px"
       visible="false" />
  </sodipodi:namedview>
  <rect
     x="-12.194976"
     y="0.32004508"
     width="11.940627"
     height="11.936014"
     rx="1.6121091"
     shape-rendering="crispEdges"
     id="rect5-6-7-3"
     ry="1.7735944"
     transform="matrix(0.00523883,-0.99998628,0.999988,0.00489859,0,0)"
     style="fill:#ffe0cc;fill-opacity:0.0980392;stroke:url(#linearGradient917);stroke-width:0.5291563;stroke-miterlimit:4;stroke-dasharray:none;stroke-opacity:1" />
  <rect
     x="-3.7202365"
     y="4.8851409"
     width="7.912631"
     height="7.912384"
     rx="1.612043"
     shape-rendering="crispEdges"
     id="rect5-6-6-6-6"
     style="fill:#ffc299;fill-opacity:0.101961;stroke:url(#linearGradient15);stroke-width:0.42332506;stroke-opacity:1;stroke-miterlimit:4;stroke-dasharray:none"
     ry="1.7735215"
     transform="matrix(0.72612649,-0.68756114,0.6879775,0.72573202,0,0)" />
  <path
     sodipodi:nodetypes="ssssssssssss"
     id="path4600-7-7-9"
     d="m 11.105308,16.198554 c -1.3776089,0.787581 -1.2802662,5.121055 -1.2802662,6.706144 0,1.585089 1.7070212,3.414037 3.6578992,4.389477 1.950879,0.975439 5.121056,3.170177 7.193864,3.535967 2.072809,0.365789 5.182021,0.762062 6.15746,0.853509 0.97544,0.09145 3.971343,-0.285548 6.584215,-2.621493 3.809273,-3.405551 2.533667,-7.131521 7.254829,-9.754392 3.840792,-2.133773 2.332873,-2.858373 2.228294,-4.688394 -0.12193,-2.133773 -0.46031,-2.13968 -2.167329,-2.566435 -1.535488,-0.383872 -6.52325,-0.975439 -9.022813,-0.36579 -2.499563,0.60965 -5.352454,1.976216 -6.828074,2.560528 -5.672301,2.246095 -6.439423,-2.244644 -13.778079,1.950879 z"
     style="fill:#ffa86d;fill-opacity:1;fill-rule:evenodd;stroke:none;stroke-width:0.140576px;stroke-linecap:butt;stroke-linejoin:miter;stroke-opacity:1"
     clip-path="url(#clipPath1129-3-7-7)"
     transform="matrix(0.18453405,0,0,0.18453403,1.2990559,2.0097877)" />
  <path
     style="fill:#ffd1b3;fill-opacity:1;fill-rule:evenodd;stroke:#000000;stroke-width:0.140576px;stroke-linecap:butt;stroke-linejoin:miter;stroke-opacity:1"
     d="m 25.496694,12.786565 c 0.323346,1.000398 1.416679,0.735469 3.142719,0.186199 0.485671,-0.166751 2.060567,-0.874042 4.196657,-1.204948 2.283722,-0.353779 1.979275,-0.330393 5.047471,0.01779 2.261409,0.256638 3.873042,1.141349 4.005446,0.310555 C 42.049105,11.091422 39.869462,9.728624 37.881163,9.3990109 36.080258,9.1004655 33.094988,8.684526 29.736002,10.11947 c -1.652955,0.706133 -4.611023,1.51704 -4.239308,2.667095 z"
     id="path4602-3-8-3"
     sodipodi:nodetypes="scssssss"
     clip-path="url(#clipPath1123-5-5-5)"
     transform="matrix(0.18453405,0,0,0.18453403,1.2990559,2.0097877)" />
  <path
     id="path4604-6-6-1"
     d="m 22.231412,18.301844 c -0.73158,0.396273 -2.743423,2.255704 -3.627415,2.347151 -0.883992,0.09145 -1.249781,-0.396272 -1.981361,-0.12193 -0.731579,0.274342 -4.541889,1.463159 -4.999126,1.767984 -0.457237,0.304824 -0.609649,0.914474 -0.304824,1.188816 0.304824,0.274342 4.054169,0.518202 4.572371,0.792545 0.518202,0.274342 3.596932,1.798466 4.480924,1.767983 0.883991,-0.03048 4.145616,0.24386 5.395398,-0.274342 1.249781,-0.518202 3.383554,-3.749345 4.511406,-4.572371 1.127852,-0.823027 2.438598,-1.859431 3.688379,-2.225221 1.249782,-0.36579 2.712941,-1.341229 3.261625,-2.072808 0.548685,-0.73158 0.701097,-1.402194 0,-1.554607 -0.701097,-0.152412 -1.676536,0.762062 -2.530045,0.944957 -0.853509,0.182895 -3.596932,0.182895 -5.242986,0 -1.646053,-0.182895 -7.163381,2.072808 -7.224346,2.011843 z"
     style="fill:#000000;fill-opacity:1;fill-rule:evenodd;stroke:none;stroke-width:0.140576px;stroke-linecap:butt;stroke-linejoin:miter;stroke-opacity:1"
     clip-path="url(#clipPath1117-6-6-9)"
     transform="matrix(0.18453405,0,0,0.18453403,1.2990559,2.0097877)"
     sodipodi:nodetypes="csssssssssssssc" />
  <circle
     style="fill:#b4eac9;fill-opacity:1;stroke:none;stroke-width:0.140576;stroke-linecap:round;stroke-miterlimit:4;stroke-dasharray:none;stroke-dashoffset:0;stroke-opacity:1"
     id="path4608-1-8-9"
     cx="23.96891"
     cy="22.173117"
     r="4.8771958"
     clip-path="url(#clipPath1157-0-0-3)"
     transform="matrix(0.18453405,0,0,0.18453403,1.2990559,2.0097877)" />
  <circle
     style="fill:#000000;fill-opacity:1;stroke:#000000;stroke-width:0.140576;stroke-linecap:round;stroke-miterlimit:4;stroke-dasharray:none;stroke-dashoffset:0;stroke-opacity:1"
     id="path4610-2-8-4"
     cx="23.96891"
     cy="22.173117"
     r="1.219299"
     clip-path="url(#clipPath1149-0-5-2)"
     transform="matrix(0.18453405,0,0,0.18453403,1.2990559,2.0097877)" />
  <path
     sodipodi:nodetypes="cssssscscssssscsc"
     id="path4612-9-4-7"
     d="m 32.189183,16.174936 c -2.581732,-0.619575 -5.846929,0.03715 -7.734599,0.495084 -1.730417,0.41978 -3.35506,1.346472 -4.019017,1.988347 -0.353072,0.341319 -1.098527,0.991278 -1.494397,1.180745 -0.300082,0.143621 -0.724556,0.183493 -1.144739,0.12215 -0.545709,-0.07966 -0.964795,-0.443216 -1.15781,-1.110672 -0.245871,-0.850254 -0.469162,-1.583516 -0.145535,-2.532362 0.04524,-0.127307 -0.02129,-0.267197 -0.148608,-0.312445 -0.127307,-0.04524 -0.267198,0.02129 -0.312446,0.148608 -0.447092,1.251878 -0.478087,2.484004 -0.156216,3.45214 0.321858,0.968123 1.02643,1.684864 1.996602,1.787029 0.656787,0.06917 1.188207,-0.05795 1.646053,-0.304825 0.457859,-0.246859 0.844475,-0.603199 1.280264,-0.986864 0.87158,-0.767329 1.931504,-1.676804 4.06179,-2.251899 4.471145,-1.207008 2.438866,-1.09615 7.340083,-1.187317 0.134683,-0.0032 0.241299,-0.114894 0.238153,-0.249578 -0.0032,-0.134671 -0.114907,-0.241299 -0.249578,-0.238141 z"
     style="fill:#000000;fill-opacity:1;fill-rule:evenodd;stroke:none;stroke-width:0.562312;stroke-linecap:round;stroke-linejoin:miter;stroke-miterlimit:4;stroke-dasharray:none;stroke-opacity:1"
     clip-path="url(#clipPath1105-1-5-7)"
     transform="matrix(0.18453405,0,0,0.18453403,1.2990559,2.0097877)" />
  <path
     sodipodi:nodetypes="cccsccssssssssssssssssssssccssssssssssssssscc"
     id="path4614-3-3-8"
     d="m 36.91254,14.999861 c -0.254944,0.03816 -0.503315,0.143828 -0.765879,0.266721 -1.303284,0.787485 -2.584401,0.894442 -4.061789,0.792545 -0.922802,-0.06438 -1.90507,-0.155827 -2.770089,-0.06477 -1.707897,0.179785 -2.888215,0.906853 -2.888215,0.906853 l 0.320066,0.518202 c 0,0 1.064558,-0.654117 2.632918,-0.819222 0.773109,-0.08138 1.732539,0 2.663412,0.06478 0.930874,0.06494 1.831058,0.121113 2.556712,-0.0724 0.69878,-0.186333 1.318147,-0.545087 1.806086,-0.773487 0.24397,-0.114199 0.453287,-0.192259 0.594409,-0.213377 0.141121,-0.02112 0.181761,-0.0088 0.236239,0.04572 0.0964,0.0964 0.134854,0.175177 0.148608,0.259101 0.01374,0.08392 0.004,0.189052 -0.06858,0.342928 -0.145329,0.307751 -0.54738,0.76928 -1.265023,1.360274 -0.674955,0.555854 -1.616559,0.898782 -2.655792,1.299322 -1.039233,0.400539 -2.108826,0.949724 -3.20828,1.718443 -1.21163,0.847169 -1.289543,1.714298 -2.641404,2.92939 -0.85201,0.765818 -1.898071,1.834143 -3.15034,1.981471 -3.619501,0.425828 -4.566543,-0.431851 -6.892782,-0.978622 -1.47245,-0.346085 -2.923197,-0.808005 -4.149421,-0.918278 -0.613113,-0.05514 -1.143386,-0.11092 -1.4784,-0.213377 -0.16752,-0.05124 -0.281293,-0.114517 -0.339124,-0.167654 -0.05782,-0.05314 -0.07333,-0.08494 -0.07621,-0.167654 -0.009,-0.260637 0.05028,-0.344598 0.255297,-0.476294 0.205013,-0.131685 0.576618,-0.251213 1.06307,-0.377215 0.972927,-0.252017 2.396544,-0.560414 4.000825,-1.455538 L 16.48165,20.25428 c -1.52271,0.849619 -2.86122,1.140703 -3.856033,1.398377 -0.497401,0.128843 -0.913767,0.242494 -1.242161,0.453433 -0.328382,0.210939 -0.548526,0.579399 -0.533444,1.013542 0.008,0.230704 0.115444,0.448385 0.274343,0.594408 0.158911,0.146024 0.353072,0.234191 0.571546,0.301009 0.436972,0.133647 0.983804,0.180797 1.60033,0.236239 1.233053,0.110883 2.733632,0.237775 3.924619,0.853509 2.333506,1.206423 4.227907,2.535911 7.93688,2.09956 1.493142,-0.175664 3.255882,-1.501372 3.994253,-2.614616 0.738371,-1.113257 1.289348,-1.986433 2.243974,-2.70749 0.674382,-0.509387 1.282117,-1.211947 2.312107,-1.944233 0.899648,-0.639608 1.937442,-1.200607 2.728182,-1.851811 0.748052,-0.616038 1.207777,-1.10544 1.428872,-1.573651 0.110542,-0.234106 0.159375,-0.472491 0.12193,-0.701097 -0.03744,-0.228607 -0.157814,-0.42834 -0.320066,-0.590604 -0.204172,-0.20416 -0.499498,-0.25915 -0.754441,-0.220998 z"
     style="fill:#ffffff;fill-opacity:1;fill-rule:evenodd;stroke:none;stroke-width:0.702889;stroke-linecap:butt;stroke-linejoin:miter;stroke-miterlimit:4;stroke-dasharray:none;stroke-opacity:1"
     clip-path="url(#clipPath1099-9-3-0)"
     transform="matrix(0.18453405,0,0,0.18453403,1.2990559,2.0097877)" />
  <path
     sodipodi:nodetypes="csssssc"
     id="path4616-1-1-4"
     d="m 23.440481,4.7024662 c 0,0 -1.468683,4.1002465 -1.777153,4.8919008 -0.452348,1.160858 -2.285271,3.023922 -1.253464,3.925045 0.541406,0.472832 1.496031,-0.693586 1.824218,-1.185109 1.238466,-1.854847 0.240738,-0.442923 2.378364,-4.8175362 0.499328,-1.0218579 1.058757,-2.1795771 0.116773,-2.4476066 z"
     style="fill:#ffd1b3;fill-opacity:1;fill-rule:evenodd;stroke:#000000;stroke-width:0.140576px;stroke-linecap:butt;stroke-linejoin:miter;stroke-opacity:1"
     clip-path="url(#clipPath1093-2-5-7)"
     transform="matrix(0.18453405,0,0,0.18453403,1.2990559,2.0097877)" />
  <path
     sodipodi:nodetypes="csscc"
     id="path4620-9-4-5"
     d="m 14.686256,4.8284373 c 0,0 1.460402,5.1166488 2.408785,5.3752987 0.948408,0.25865 -1.606715,-3.5595143 -0.594847,-5.3752987 h 3.355091 z"
     style="fill:#ffd0b1;fill-opacity:1;fill-rule:evenodd;stroke:#000000;stroke-width:0.140576px;stroke-linecap:butt;stroke-linejoin:miter;stroke-opacity:1"
     clip-path="url(#clipPath1081-5-4-2)"
     transform="matrix(0.18453405,0,0,0.18453403,1.2990559,2.0097877)" />
  <path
     style="fill:#ffd1b3;fill-opacity:1;fill-rule:evenodd;stroke:#000000;stroke-width:0.140576px;stroke-linecap:butt;stroke-linejoin:miter;stroke-opacity:1"
     d="m 15.140176,36.598182 c 3.232447,1.802819 8.778953,4.023687 14.265798,2.316668 5.486846,-1.707019 8.413163,-2.804388 11.705271,-7.071934 3.292107,-4.267547 2.45354,0.5796 1.843891,2.042759 -0.60965,1.463159 -1.965821,3.078297 -4.160559,4.663385 -2.194739,1.585089 -10.868588,4.262158 -15.485098,3.535967 -5.42588,-0.853509 -10.242111,-4.145616 -10.851761,-4.755266 -0.609649,-0.609649 -1.950878,-1.463158 -1.219299,-2.316668 0.73158,-0.853509 3.050101,1.110099 3.901757,1.585089 z"
     id="path4634-4-9-0"
     sodipodi:nodetypes="sssssssss"
     clip-path="url(#clipPath1075-2-4-9)"
     transform="matrix(0.18453405,0,0,0.18453403,1.2990559,2.0097877)" />
</svg>
