<?xml version="1.0" encoding="UTF-8" standalone="no"?>
<svg
   xmlns:dc="http://purl.org/dc/elements/1.1/"
   xmlns:cc="http://creativecommons.org/ns#"
   xmlns:rdf="http://www.w3.org/1999/02/22-rdf-syntax-ns#"
   xmlns:svg="http://www.w3.org/2000/svg"
   xmlns="http://www.w3.org/2000/svg"
   xmlns:xlink="http://www.w3.org/1999/xlink"
   xmlns:sodipodi="http://sodipodi.sourceforge.net/DTD/sodipodi-0.dtd"
   xmlns:inkscape="http://www.inkscape.org/namespaces/inkscape"
   width="47.285591"
   height="47.28569"
   version="1.1"
   viewBox="0 0 12.510734 12.51076"
   id="svg12"
   sodipodi:docname="ubiquity.svg"
   inkscape:version="1.0.1 (3bc2e813f5, 2020-09-07)">
  <style
     id="style873"></style>
  <metadata
     id="metadata48">
    <rdf:RDF>
      <cc:Work
         rdf:about="">
        <dc:format>image/svg+xml</dc:format>
        <dc:type
           rdf:resource="http://purl.org/dc/dcmitype/StillImage" />
      </cc:Work>
    </rdf:RDF>
  </metadata>
  <defs
     id="defs16">
    <linearGradient
       id="c"
       y1="523.79999"
       x1="403.57001"
       y2="536.79999"
       x2="416.57001"
       gradientUnits="userSpaceOnUse"
       gradientTransform="matrix(0.34526714,0,0,0.34526706,-134.80427,-174.63325)">
      <stop
         stop-color="#292c2f"
         id="stop1568" />
      <stop
         offset="1"
         stop-opacity="0"
         id="stop1570" />
    </linearGradient>
    <linearGradient
       xlink:href="#b-2"
       id="linearGradient4189"
       x1="14.369"
       y1="22.521999"
       x2="26.521999"
       y2="22.521999"
       gradientUnits="userSpaceOnUse" />
    <linearGradient
       x1="36"
       gradientUnits="userSpaceOnUse"
       x2="14"
       y2="12"
       y1="44"
       id="b-2">
      <stop
         style="stop-color:#bfc9c9;stop-opacity:1"
         stop-color="#536161"
         id="stop1579" />
      <stop
         style="stop-color:#fbfbfb;stop-opacity:1"
         stop-color="#f4f5f5"
         offset="1"
         id="stop1581" />
    </linearGradient>
    <linearGradient
       xlink:href="#b-2"
       id="linearGradient4428"
       gradientUnits="userSpaceOnUse"
       x1="31.586"
       y1="36.345001"
       x2="1.2029999"
       y2="6.723" />
    <linearGradient
       xlink:href="#b-2"
       id="linearGradient4189-3"
       x1="14.369"
       y1="22.521999"
       x2="26.521999"
       y2="22.521999"
       gradientUnits="userSpaceOnUse"
       gradientTransform="translate(20.841982,61.553822)" />
    <linearGradient
       xlink:href="#b-2"
       id="linearGradient4428-5"
       gradientUnits="userSpaceOnUse"
       x1="31.586"
       y1="36.345001"
       x2="1.2029999"
       y2="6.723"
       gradientTransform="translate(20.841982,61.553822)" />
    <linearGradient
       xlink:href="#b-2"
       id="linearGradient4189-3-3"
       x1="14.369"
       y1="22.521999"
       x2="26.521999"
       y2="22.521999"
       gradientUnits="userSpaceOnUse"
       gradientTransform="translate(4.376802,4.4211693)" />
    <linearGradient
       xlink:href="#b-2"
       id="linearGradient4428-5-5"
       gradientUnits="userSpaceOnUse"
       x1="31.586"
       y1="36.345001"
       x2="1.2029999"
       y2="6.723"
       gradientTransform="translate(4.376802,4.4211693)" />
    <linearGradient
       id="linearGradient11"
       inkscape:collect="always">
      <stop
         style="stop-color:#ffb380;stop-opacity:1"
         offset="0"
         id="stop4-3" />
      <stop
         style="stop-color:#9955ff;stop-opacity:1"
         offset="1"
         id="stop11" />
    </linearGradient>
    <filter
       id="filter2917-3"
       x="-0.96181148"
       y="-0.66745996"
       width="2.9236228"
       height="2.3349199"
       color-interpolation-filters="sRGB">
      <feGaussianBlur
         stdDeviation="0.2871969"
         id="feGaussianBlur732-5" />
    </filter>
    <filter
       id="filter1"
       x="-0.96181148"
       y="-0.66745996"
       width="2.9236228"
       height="2.3349199"
       color-interpolation-filters="sRGB">
      <feGaussianBlur
         stdDeviation="0.2871969"
         id="feGaussianBlur1" />
    </filter>
    <filter
       id="filter2"
       x="-0.96181148"
       y="-0.66745996"
       width="2.9236228"
       height="2.3349199"
       color-interpolation-filters="sRGB">
      <feGaussianBlur
         stdDeviation="0.2871969"
         id="feGaussianBlur2" />
    </filter>
    <linearGradient
       id="c-3"
       gradientTransform="matrix(2.0428665,-6.8308524,5.7819337,2.3633129,25.219113,34.652812)"
       gradientUnits="userSpaceOnUse"
       x1="24"
       x2="24"
       y1="35"
       y2="13">
      <stop
         offset="0"
         stop-color="#23a2cd"
         id="stop253" />
      <stop
         offset=".53"
         stop-color="#00b8f5"
         id="stop255" />
      <stop
         offset="1"
         stop-color="#2ecbff"
         id="stop257" />
    </linearGradient>
    <linearGradient
       id="paint0_linear"
       x1="31.416401"
       y1="45.448299"
       x2="31.996"
       y2="2.83233"
       gradientUnits="userSpaceOnUse"
       gradientTransform="matrix(0.05929954,0,0,0.05981766,0.24861829,0.1575967)">
      <stop
         stop-color="#BAFA52"
         id="stop4" />
      <stop
         offset="1"
         stop-color="#3F8F5B"
         id="stop5" />
    </linearGradient>
    <linearGradient
       id="paint1_linear"
       x1="239.42891"
       y1="-262.77008"
       x2="428.64795"
       y2="-256.3587"
       gradientUnits="userSpaceOnUse"
       gradientTransform="matrix(0.01568937,0,0,0.01582646,2.9767132,11.903154)">
      <stop
         stop-color="#A93AFF"
         id="stop6"
         offset="0"
         style="stop-color:#8d5fd3;stop-opacity:1;" />
      <stop
         offset="1"
         stop-color="#FF81FF"
         id="stop7"
         style="stop-color:#8d5fd3;stop-opacity:1;" />
    </linearGradient>
    <linearGradient
       id="paint3_linear"
       x1="3.9952199"
       y1="54.594398"
       x2="36.6595"
       y2="54.594398"
       gradientUnits="userSpaceOnUse"
       gradientTransform="matrix(0.22412874,0,0,0.22608696,2.439678,2.095652)">
      <stop
         stop-color="#FD3A84"
         id="stop10" />
      <stop
         offset="1"
         stop-color="#FFA68D"
         id="stop11-3" />
    </linearGradient>
    <linearGradient
       inkscape:collect="always"
       xlink:href="#linearGradient11"
       id="linearGradient2"
       x1="-3.8211522"
       y1="8.6008863"
       x2="4.2804661"
       y2="8.6008863"
       gradientUnits="userSpaceOnUse" />
    <linearGradient
       inkscape:collect="always"
       xlink:href="#linearGradient11"
       id="linearGradient881"
       x1="-12.025727"
       y1="6.1170783"
       x2="-0.085100174"
       y2="6.1170783"
       gradientUnits="userSpaceOnUse" />
  </defs>
  <sodipodi:namedview
     id="namedview14"
     pagecolor="#000000"
     bordercolor="#666666"
     borderopacity="1.0"
     inkscape:showpageshadow="2"
     inkscape:pageopacity="0.0"
     inkscape:pagecheckerboard="0"
     inkscape:deskcolor="#d1d1d1"
     showgrid="false"
     inkscape:zoom="12.522228"
     inkscape:cx="13.610097"
     inkscape:cy="24.460987"
     inkscape:window-width="1920"
     inkscape:window-height="988"
     inkscape:window-x="0"
     inkscape:window-y="0"
     inkscape:window-maximized="1"
     inkscape:current-layer="svg12"
     inkscape:document-rotation="0">
    <inkscape:grid
       type="xygrid"
       id="grid244"
       originx="9.9594769"
       originy="-31.57929"
       spacingy="1"
       spacingx="1"
       units="px"
       visible="false" />
  </sodipodi:namedview>
  <rect
     x="-12.194976"
     y="0.32004508"
     width="11.940627"
     height="11.936014"
     rx="1.6121091"
     shape-rendering="crispEdges"
     id="rect5-6-7-3"
     ry="1.7735944"
     transform="matrix(0.00523883,-0.99998628,0.999988,0.00489859,0,0)"
     style="fill:#80b3ff;fill-opacity:0.15;stroke:url(#linearGradient881);stroke-width:0.5291563;stroke-miterlimit:4;stroke-dasharray:none;stroke-opacity:1" />
  <rect
     x="-3.7202365"
     y="4.8851409"
     width="7.912631"
     height="7.912384"
     rx="1.612043"
     shape-rendering="crispEdges"
     id="rect5-6-6-6-6"
     style="fill:#80b3ff;fill-opacity:0.122146;stroke:url(#linearGradient2);stroke-width:0.42332506;stroke-opacity:1;stroke-miterlimit:4;stroke-dasharray:none"
     ry="1.7735215"
     transform="matrix(0.72612649,-0.68756114,0.6879775,0.72573202,0,0)" />
  <path
     fill-rule="evenodd"
     clip-rule="evenodd"
     d="M 6.2627385,2.4190191 H 5.3625868 c -0.030347,0 -0.054949,0.02472 -0.054949,0.05521 v 0.904402 1.1e-5 0.959594 1.1e-5 0.904383 c 0,0.03054 -0.024606,0.05521 -0.05495,0.05521 H 4.5690651 c -0.049545,0 -0.073804,0.06072 -0.037984,0.09517 l 0.8163413,0.784537 0.8773333,0.843134 c 0.021254,0.02042 0.054715,0.02042 0.075968,0 l 0.8773336,-0.843158 0.816342,-0.784536 c 0.035822,-0.0344 0.011675,-0.09517 -0.037984,-0.09517 h -0.683602 c -0.03035,0 -0.05495,-0.02471 -0.05495,-0.05521 v -0.904383 -9e-6 -0.959601 -9e-6 -0.904397 c 0,-0.03054 -0.024606,-0.05521 -0.05495,-0.05521 z"
     fill="url(#paint0_linear)"
     id="path1"
     style="fill:#ffb380;fill-opacity:1;stroke-width:0.0595581" />
  <path
     d="m 8.8234691,7.4436831 c -0.119119,2.85e-4 -0.235215,0.03759 -0.3323913,0.106681 -0.097164,0.06926 -0.1706475,0.166974 -0.2103537,0.279762 H 6.3742673 v 0.386519 h 1.9064568 c 0.039696,0.112822 0.1132011,0.210533 0.2103537,0.279744 0.097178,0.06925 0.2132783,0.106443 0.3323913,0.106736 0.153034,0 0.299813,-0.06108 0.408034,-0.16985 0.108209,-0.108719 0.169016,-0.256195 0.169016,-0.409958 0,-0.153736 -0.06081,-0.301221 -0.169016,-0.409955 -0.108217,-0.108669 -0.255001,-0.169838 -0.408034,-0.169838 z"
     stroke="url(#paint2_linear)"
     id="path2"
     style="fill:#b380ff;fill-opacity:1;stroke:url(#paint1_linear);stroke-width:0.0595581" />
  <path
     fill-rule="evenodd"
     clip-rule="evenodd"
     d="m 3.8223629,8.6032271 c 0.251253,0 0.4650014,-0.16127 0.5442168,-0.386517 h 1.3479954 c 0.079217,0.225186 0.2929651,0.386517 0.5442173,0.386517 0.3186957,0 0.5770484,-0.259573 0.5770484,-0.579773 0,-0.320202 -0.2583527,-0.579771 -0.5770484,-0.579771 -0.2512522,0 -0.4650016,0.16127 -0.5442173,0.386515 H 4.3665797 c -0.079211,-0.22518 -0.2929638,-0.386515 -0.5442168,-0.386515 -0.3186953,0 -0.5770476,0.259569 -0.5770476,0.579771 0,0.3202 0.2583523,0.579773 0.5770476,0.579773 z"
     id="path3"
     style="fill:#ffccaa;fill-opacity:1;stroke-width:0.0595581" />
  <path
     d="M 4.3665797,8.2167101 V 8.0510591 H 4.2499896 l -0.038856,0.110424 z m 1.3479954,0 0.1554595,-0.0552 -0.038856,-0.110423 H 5.7145885 Z m 0,-0.386512 v 0.16565 h 0.1165877 l 0.038856,-0.110422 z m -1.3479954,0 -0.1554579,0.0552 0.038856,0.110422 h 0.1165885 z m -0.1554579,0.331307 c -0.056658,0.161027 -0.2095621,0.276073 -0.3887659,0.276073 v 0.33129 c 0.3232905,0 0.5978881,-0.207663 0.6996571,-0.496954 z m 1.5034478,-0.110421 h -1.347991 v 0.331297 H 5.714574 Z m -0.1554574,0.220846 c 0.1017723,0.289298 0.3763677,0.496962 0.6996679,0.496962 v -0.331297 c -0.1792133,0 -0.3321046,-0.115073 -0.3887655,-0.276072 z m 0.6996679,0.496962 c 0.4097481,0 0.7419188,-0.333745 0.7419188,-0.745417 H 6.6709695 c 0,0.228714 -0.1845456,0.41412 -0.4121771,0.41412 z m 0.7419201,-0.745418 c 0,-0.411679 -0.3321709,-0.745421 -0.7419187,-0.745421 v 0.331299 c 0.227631,0 0.4121766,0.185403 0.4121766,0.414122 z M 6.2587904,7.2780431 c -0.3232997,0 -0.5978871,0.207668 -0.6996683,0.496956 l 0.3109028,0.110411 c 0.05666,-0.161025 0.2095525,-0.276064 0.3887669,-0.276064 z M 4.3665787,7.9958461 H 5.714574 V 7.6645501 H 4.3665797 Z M 3.8223629,7.6093351 c 0.1792029,0 0.3321061,0.115073 0.3887661,0.276068 L 4.5220205,7.7749921 C 4.4202519,7.4857021 4.1456537,7.2780331 3.8223629,7.2780331 Z M 3.410187,8.0234541 c 0,-0.228718 0.1845379,-0.414119 0.4121759,-0.414119 v -0.331302 c -0.4097505,0 -0.7419184,0.333744 -0.7419184,0.745421 z m 0.4121759,0.414124 c -0.2276383,0 -0.4121759,-0.185407 -0.4121759,-0.414124 H 3.0804445 c 0,0.411676 0.3321679,0.745414 0.7419184,0.745414 z"
     id="path4"
     style="fill:#ff9955;fill-opacity:1;stroke-width:0.0595581" />
</svg>
