<?xml version="1.0" encoding="UTF-8" standalone="no"?>
<svg
   xmlns:dc="http://purl.org/dc/elements/1.1/"
   xmlns:cc="http://creativecommons.org/ns#"
   xmlns:rdf="http://www.w3.org/1999/02/22-rdf-syntax-ns#"
   xmlns:svg="http://www.w3.org/2000/svg"
   xmlns="http://www.w3.org/2000/svg"
   xmlns:xlink="http://www.w3.org/1999/xlink"
   xmlns:sodipodi="http://sodipodi.sourceforge.net/DTD/sodipodi-0.dtd"
   xmlns:inkscape="http://www.inkscape.org/namespaces/inkscape"
   width="47.285591"
   height="47.28569"
   version="1.1"
   viewBox="0 0 12.510734 12.51076"
   id="svg12"
   sodipodi:docname="umbrello.svg"
   inkscape:version="1.0.1 (3bc2e813f5, 2020-09-07)">
  <style
     id="style881"></style>
  <metadata
     id="metadata56">
    <rdf:RDF>
      <cc:Work
         rdf:about="">
        <dc:format>image/svg+xml</dc:format>
        <dc:type
           rdf:resource="http://purl.org/dc/dcmitype/StillImage" />
      </cc:Work>
    </rdf:RDF>
  </metadata>
  <defs
     id="defs16">
    <linearGradient
       id="linearGradient7"
       inkscape:collect="always">
      <stop
         style="stop-color:#d4aa00;stop-opacity:1"
         offset="0"
         id="stop6" />
      <stop
         style="stop-color:#a12c5b;stop-opacity:1;"
         offset="1"
         id="stop7" />
    </linearGradient>
    <linearGradient
       id="c"
       y1="523.79999"
       x1="403.57001"
       y2="536.79999"
       x2="416.57001"
       gradientUnits="userSpaceOnUse"
       gradientTransform="matrix(0.34526714,0,0,0.34526706,-134.80427,-174.63325)">
      <stop
         stop-color="#292c2f"
         id="stop1568" />
      <stop
         offset="1"
         stop-opacity="0"
         id="stop1570" />
    </linearGradient>
    <linearGradient
       xlink:href="#b-2"
       id="linearGradient4189"
       x1="14.369"
       y1="22.521999"
       x2="26.521999"
       y2="22.521999"
       gradientUnits="userSpaceOnUse" />
    <linearGradient
       x1="36"
       gradientUnits="userSpaceOnUse"
       x2="14"
       y2="12"
       y1="44"
       id="b-2">
      <stop
         style="stop-color:#bfc9c9;stop-opacity:1"
         stop-color="#536161"
         id="stop1579" />
      <stop
         style="stop-color:#fbfbfb;stop-opacity:1"
         stop-color="#f4f5f5"
         offset="1"
         id="stop1581" />
    </linearGradient>
    <linearGradient
       xlink:href="#b-2"
       id="linearGradient4428"
       gradientUnits="userSpaceOnUse"
       x1="31.586"
       y1="36.345001"
       x2="1.2029999"
       y2="6.723" />
    <linearGradient
       xlink:href="#b-2"
       id="linearGradient4189-3"
       x1="14.369"
       y1="22.521999"
       x2="26.521999"
       y2="22.521999"
       gradientUnits="userSpaceOnUse"
       gradientTransform="translate(20.841982,61.553822)" />
    <linearGradient
       xlink:href="#b-2"
       id="linearGradient4428-5"
       gradientUnits="userSpaceOnUse"
       x1="31.586"
       y1="36.345001"
       x2="1.2029999"
       y2="6.723"
       gradientTransform="translate(20.841982,61.553822)" />
    <linearGradient
       xlink:href="#b-2"
       id="linearGradient4189-3-3"
       x1="14.369"
       y1="22.521999"
       x2="26.521999"
       y2="22.521999"
       gradientUnits="userSpaceOnUse"
       gradientTransform="translate(4.376802,4.4211693)" />
    <linearGradient
       xlink:href="#b-2"
       id="linearGradient4428-5-5"
       gradientUnits="userSpaceOnUse"
       x1="31.586"
       y1="36.345001"
       x2="1.2029999"
       y2="6.723"
       gradientTransform="translate(4.376802,4.4211693)" />
    <filter
       id="filter2917-3"
       x="-0.96181148"
       y="-0.66745996"
       width="2.9236228"
       height="2.3349199"
       color-interpolation-filters="sRGB">
      <feGaussianBlur
         stdDeviation="0.2871969"
         id="feGaussianBlur732-5" />
    </filter>
    <filter
       id="filter1"
       x="-0.96181148"
       y="-0.66745996"
       width="2.9236228"
       height="2.3349199"
       color-interpolation-filters="sRGB">
      <feGaussianBlur
         stdDeviation="0.2871969"
         id="feGaussianBlur1" />
    </filter>
    <filter
       id="filter2"
       x="-0.96181148"
       y="-0.66745996"
       width="2.9236228"
       height="2.3349199"
       color-interpolation-filters="sRGB">
      <feGaussianBlur
         stdDeviation="0.2871969"
         id="feGaussianBlur2" />
    </filter>
    <linearGradient
       id="_lgradient_20"
       x1="-0.29991642"
       y1="-0.26140401"
       x2="0.96725708"
       y2="0.86616999"
       gradientTransform="matrix(15.137397,0,0,16.82717,0.89780187,0.05291536)"
       gradientUnits="userSpaceOnUse">
      <stop
         offset="34.94098066785295%"
         stop-opacity="1"
         style="stop-color:rgb(178,229,107)"
         id="stop1" />
      <stop
         offset="53.84922244785295%"
         stop-opacity="1"
         style="stop-color:rgb(194,233,100)"
         id="stop2" />
      <stop
         offset="90.40515655585295%"
         stop-opacity="1"
         style="stop-color:rgb(236,244,81)"
         id="stop3" />
      <stop
         offset="100%"
         stop-opacity="1"
         style="stop-color:rgb(250,247,75)"
         id="stop4" />
    </linearGradient>
    <linearGradient
       id="b-2-5"
       y1="35.825909"
       y2="-4.1468086"
       gradientUnits="userSpaceOnUse"
       x2="1.525889"
       gradientTransform="matrix(0.18808708,0,0,0.18779368,2.9505234,2.8105876)"
       x1="0.19073613">
      <stop
         stop-color="#d35400"
         id="stop7-9-6"
         offset="0"
         style="stop-color:#ff9e5e;stop-opacity:1;" />
      <stop
         offset="1"
         stop-color="#f67400"
         stop-opacity=".941"
         id="stop9-1-2" />
    </linearGradient>
    <linearGradient
       xlink:href="#linearGradient4288"
       id="linearGradient4294-3"
       x1="24.763212"
       y1="29.439951"
       x2="13.453149"
       y2="8.5200167"
       gradientUnits="userSpaceOnUse"
       gradientTransform="matrix(1.9090907,0,0,1.9090907,-12.360688,-12.049738)" />
    <linearGradient
       id="linearGradient4288">
      <stop
         style="stop-color:#ffa92d;stop-opacity:1;"
         offset="0"
         id="stop7-3" />
      <stop
         style="stop-color:#ffe569;stop-opacity:1"
         offset="1"
         id="stop9" />
    </linearGradient>
    <linearGradient
       xlink:href="#linearGradient4325"
       id="linearGradient4331-5"
       x1="25"
       y1="11"
       x2="32"
       y2="18"
       gradientUnits="userSpaceOnUse"
       gradientTransform="matrix(1.9090907,0,0,1.9090907,-12.360688,-12.049738)" />
    <linearGradient
       id="linearGradient4325">
      <stop
         style="stop-color:#000000;stop-opacity:1;"
         offset="0"
         id="stop2-6" />
      <stop
         style="stop-color:#000000;stop-opacity:0;"
         offset="1"
         id="stop4-7" />
    </linearGradient>
    <radialGradient
       xlink:href="#linearGradient3974"
       id="radialGradient3980-6"
       cx="26.5"
       cy="11.5"
       fx="26.5"
       fy="11.5"
       r="3.5"
       gradientUnits="userSpaceOnUse"
       gradientTransform="matrix(1.6363631,0,0,1.6363631,-4.1788666,-6.0497392)" />
    <linearGradient
       id="linearGradient3974">
      <stop
         style="stop-color:#aeaeae;stop-opacity:1;"
         offset="0"
         id="stop12-5" />
      <stop
         style="stop-color:#f2f2f2;stop-opacity:1;"
         offset="1"
         id="stop14" />
    </linearGradient>
    <radialGradient
       xlink:href="#linearGradient4145"
       id="radialGradient3972-1"
       cx="28"
       cy="11"
       fx="28"
       fy="11"
       r="2"
       gradientUnits="userSpaceOnUse"
       gradientTransform="matrix(1.9090907,0,0,1.9090907,-14.269771,-8.2315562)" />
    <linearGradient
       id="linearGradient4145">
      <stop
         offset="0"
         style="stop-color:#536161;stop-opacity:1"
         id="stop17" />
      <stop
         offset="1"
         style="stop-color:#334545;stop-opacity:1"
         id="stop19" />
    </linearGradient>
    <linearGradient
       inkscape:collect="always"
       xlink:href="#linearGradient7"
       id="linearGradient8"
       x1="-3.8211522"
       y1="8.6008863"
       x2="4.2804661"
       y2="8.6008863"
       gradientUnits="userSpaceOnUse" />
    <linearGradient
       inkscape:collect="always"
       xlink:href="#linearGradient7"
       id="linearGradient889"
       x1="-12.025727"
       y1="6.1170783"
       x2="-0.085100174"
       y2="6.1170783"
       gradientUnits="userSpaceOnUse" />
  </defs>
  <sodipodi:namedview
     id="namedview14"
     pagecolor="#000000"
     bordercolor="#666666"
     borderopacity="1.0"
     inkscape:showpageshadow="2"
     inkscape:pageopacity="0.0"
     inkscape:pagecheckerboard="0"
     inkscape:deskcolor="#d1d1d1"
     showgrid="false"
     inkscape:zoom="8.8545525"
     inkscape:cx="13.930989"
     inkscape:cy="42.269969"
     inkscape:window-width="1920"
     inkscape:window-height="988"
     inkscape:window-x="0"
     inkscape:window-y="0"
     inkscape:window-maximized="1"
     inkscape:current-layer="svg12"
     inkscape:document-rotation="0">
    <inkscape:grid
       type="xygrid"
       id="grid244"
       originx="9.9594769"
       originy="-31.57929"
       spacingy="1"
       spacingx="1"
       units="px"
       visible="false" />
  </sodipodi:namedview>
  <rect
     x="-12.194976"
     y="0.32004508"
     width="11.940627"
     height="11.936014"
     rx="1.6121091"
     shape-rendering="crispEdges"
     id="rect5-6-7-3"
     ry="1.7735944"
     transform="matrix(0.00523883,-0.99998628,0.999988,0.00489859,0,0)"
     style="fill:#ffe0cc;fill-opacity:0.0980392;stroke:url(#linearGradient889);stroke-width:0.5291563;stroke-miterlimit:4;stroke-dasharray:none;stroke-opacity:1" />
  <rect
     x="-3.7202365"
     y="4.8851409"
     width="7.912631"
     height="7.912384"
     rx="1.612043"
     shape-rendering="crispEdges"
     id="rect5-6-6-6-6"
     style="fill:#ffc299;fill-opacity:0.06621;stroke:url(#linearGradient8);stroke-width:0.42332506;stroke-opacity:1;stroke-miterlimit:4;stroke-dasharray:none"
     ry="1.7735215"
     transform="matrix(0.72612649,-0.68756114,0.6879775,0.72573202,0,0)" />
  <path
     class="ColorScheme-Text"
     d="M 6.013642,3.5508596 6.012022,3.7320151 C 5.5127103,3.7698401 5.0363548,3.8873026 4.6059705,4.1301673 3.8732076,4.5235409 3.3758481,5.6646428 3.3485038,6.4585585 c 0.00162,0.07246 -0.015456,0.1536943 0.013917,0.2205759 0.069744,0.090387 0.2361956,0.1174513 0.3099088,0.01666 0.1898322,-0.2201772 0.483888,-0.374263 0.7922113,-0.3587349 0.2881122,-0.0147 0.5544272,0.1421412 0.7224591,0.3523626 0.060638,0.079632 0.1898291,0.1007293 0.2690899,0.03464 0.095513,-0.08998 0.1799205,-0.1939007 0.2972262,-0.2627805 0.083617,-0.052558 0.1767504,-0.089584 0.2750338,-0.1075091 0.017029,0.6915899 -8.058e-4,0.9965724 0.00275,1.6881627 0.006,0.1142832 -0.023373,0.2277439 -0.1034344,0.3153361 C 5.7857748,8.5380294 5.5067768,8.6049258 5.2919805,8.5002105 5.1223586,8.4237551 5.0109983,8.2565427 5.001883,8.0817523 4.9935522,7.9953523 4.9325321,7.9065646 4.8322654,7.9005963 4.7197157,7.8863384 4.6202439,7.9862021 4.6356997,8.0901149 c -0.00673,0.3790422 0.3138716,0.7214542 0.7050218,0.7931198 0.4200806,0.088399 0.8809796,-0.1592599 1.0137409,-0.5414858 0.075297,-0.2058448 0.034871,-0.426819 0.047554,-0.6402278 0.00322,-0.5789133 -0.00863,-0.7712206 0.00908,-1.3501328 0.2306479,0.044591 0.4173058,0.1986774 0.5603711,0.3655028 0.08124,0.07328 0.2235142,0.056932 0.2841483,-0.032238 C 7.3911724,6.5178329 7.5849599,6.384447 7.8080777,6.349011 8.0961899,6.293658 8.3902458,6.400388 8.6086071,6.575161 8.6938161,6.628909 8.7572163,6.7177082 8.8531265,6.7551278 8.9767662,6.7917566 9.1269689,6.6854532 9.095264,6.5592374 9.0992866,5.8214528 8.7049196,4.712602 8.0732145,4.2786157 7.6353009,3.9732334 7.1018791,3.8004346 6.5601329,3.7474814 6.5098013,3.7386725 6.4586794,3.7419551 6.4142948,3.7295396 l -0.0036,-0.1799656 c 0.00202,-0.2747238 -0.3879801,-0.270742 -0.3963023,0 M 7.9404528,4.7213351 C 8.1857511,4.9092618 8.515868,5.5570542 8.5967189,5.9986052 8.3549751,5.8556703 8.1556381,5.8560608 7.8663377,5.8831354 7.578225,5.9022453 7.3063618,6.1363595 7.0998868,6.3230925 6.8514087,6.0969424 6.5062296,5.8572561 6.1562951,5.8819397 5.8507458,5.88944 5.561049,6.0224899 5.3414973,6.2167856 5.0082068,5.9074234 4.4850885,5.7947453 4.038852,5.9396719 3.9417568,5.9691317 3.8399076,5.9826767 3.8307928,5.8994719 3.9528555,5.3193659 4.6372689,4.6245897 4.8996203,4.4740883 5.1738614,4.3323472 5.7572184,4.1117704 6.2411035,4.1292886 6.8736004,4.0958408 7.6630354,4.4657264 7.9404473,4.7221377"
     id="path22"
     style="color:#d5c289;fill:#c83771;fill-opacity:1;stroke-width:0.264578" />
</svg>
