
<svg xmlns="http://www.w3.org/2000/svg" xmlns:xlink="http://www.w3.org/1999/xlink" width="16px" height="16px" viewBox="0 0 16 16" version="1.1">
<g id="surface1">
<path style=" stroke:none;fill-rule:nonzero;fill:#aaaaaa;fill-opacity:1;" d="M 15 8 C 15 8.550781 14.550781 9 14 9 L 12.398438 9 L 6.210938 2.808594 L 5.96875 2.058594 C 5.699219 1.011719 5.699219 1 6.5 1 C 6.929688 1 6.929688 1.011719 7.21875 1.5 L 10.898438 7 L 14 7 C 14.550781 7 15 7.441406 15 8 Z M 10.378906 9.78125 L 7.21875 14.5 C 6.949219 14.949219 6.929688 15 6.558594 15 L 6.5 15 C 5.699219 15 5.71875 14.960938 5.96875 13.96875 L 7.589844 9 L 3.089844 9 L 1.871094 10.78125 C 1.730469 10.988281 1.75 11 1.53125 11 L 1.308594 11 C 0.878906 11 1.03125 10.558594 1.03125 10.558594 L 1.308594 8 L 1.03125 5.429688 C 1.03125 5.429688 0.890625 5 1.28125 5 L 1.53125 5 C 1.738281 5 1.730469 5.011719 1.871094 5.21875 L 3.089844 7 L 7.589844 7 Z M 10.378906 9.78125 "/>
<path style=" stroke:none;fill-rule:nonzero;fill:#aaaaaa;fill-opacity:1;" d="M 15.058594 13.648438 L 2.339844 0.929688 L 0.929688 2.339844 L 13.648438 15.058594 Z M 15.058594 13.648438 "/>
</g>
</svg>
