
<svg xmlns="http://www.w3.org/2000/svg" xmlns:xlink="http://www.w3.org/1999/xlink" width="16px" height="16px" viewBox="0 0 16 16" version="1.1">
<g id="surface1">
<path style=" stroke:none;fill-rule:nonzero;fill:#aaaaaa;fill-opacity:1;" d="M 4.5 0 C 2.566406 0 1 1.566406 1 3.5 C 1 3.929688 1.078125 4.355469 1.234375 4.757812 C 2.488281 2.769531 4.582031 1.367188 7.015625 1.066406 C 6.355469 0.386719 5.449219 0 4.5 0 Z M 11.5 0 C 10.554688 0 9.648438 0.386719 8.988281 1.066406 C 11.421875 1.367188 13.511719 2.769531 14.765625 4.753906 C 14.917969 4.355469 15 3.929688 15 3.5 C 15 1.566406 13.433594 0 11.5 0 Z M 8 2 C 4.132812 2 1 5.132812 1 9 C 1 10.652344 1.582031 12.246094 2.648438 13.511719 C 2.792969 13.683594 2.945312 13.847656 3.105469 14.007812 C 2.804688 13.972656 2.507812 14.078125 2.292969 14.292969 C 1.902344 14.683594 1.902344 15.316406 2.292969 15.707031 C 2.683594 16.097656 3.316406 16.097656 3.707031 15.707031 C 3.96875 15.445312 4.066406 15.054688 3.953125 14.699219 C 4.144531 14.835938 4.339844 14.960938 4.542969 15.074219 C 4.738281 15.1875 4.933594 15.289062 5.140625 15.378906 C 5.15625 15.386719 5.175781 15.394531 5.195312 15.402344 C 5.371094 15.480469 5.550781 15.550781 5.730469 15.613281 C 5.789062 15.632812 5.84375 15.652344 5.902344 15.671875 C 6.0625 15.722656 6.226562 15.765625 6.390625 15.804688 C 6.453125 15.820312 6.519531 15.835938 6.585938 15.847656 C 6.746094 15.882812 6.90625 15.910156 7.070312 15.929688 C 7.144531 15.941406 7.21875 15.949219 7.292969 15.957031 C 7.464844 15.976562 7.640625 15.988281 7.816406 15.992188 C 7.875 15.996094 7.9375 16 8 16 C 8.234375 16 8.46875 15.988281 8.699219 15.964844 C 9.894531 15.84375 11.039062 15.414062 12.023438 14.722656 C 12.03125 14.71875 12.039062 14.714844 12.046875 14.710938 C 11.9375 15.0625 12.03125 15.445312 12.292969 15.707031 C 12.683594 16.097656 13.316406 16.097656 13.707031 15.707031 C 14.097656 15.316406 14.097656 14.683594 13.707031 14.292969 C 13.488281 14.078125 13.183594 13.972656 12.882812 14.007812 C 13.035156 13.855469 13.183594 13.695312 13.324219 13.527344 C 13.335938 13.519531 13.347656 13.507812 13.355469 13.496094 C 13.359375 13.492188 13.363281 13.484375 13.367188 13.480469 C 13.5 13.324219 13.621094 13.160156 13.738281 12.992188 C 13.757812 12.96875 13.777344 12.941406 13.796875 12.914062 C 13.902344 12.757812 14 12.597656 14.09375 12.433594 C 14.117188 12.390625 14.140625 12.347656 14.164062 12.304688 C 14.25 12.144531 14.328125 11.980469 14.398438 11.8125 C 14.421875 11.765625 14.445312 11.71875 14.464844 11.671875 C 14.527344 11.519531 14.582031 11.363281 14.632812 11.207031 C 14.65625 11.132812 14.683594 11.0625 14.703125 10.988281 C 14.746094 10.84375 14.785156 10.695312 14.816406 10.546875 C 14.835938 10.46875 14.855469 10.390625 14.871094 10.3125 C 14.898438 10.164062 14.921875 10.011719 14.9375 9.863281 C 14.949219 9.777344 14.960938 9.695312 14.96875 9.609375 C 14.988281 9.40625 15 9.203125 15 9 C 15 5.132812 11.867188 2 8 2 Z M 8 4 C 10.761719 4 13 6.238281 13 9 C 13 11.761719 10.761719 14 8 14 C 5.238281 14 3 11.761719 3 9 C 3 8.832031 3.007812 8.667969 3.027344 8.5 C 3.28125 5.945312 5.433594 4 8 4 Z M 10.488281 5.996094 C 10.359375 6 10.238281 6.054688 10.144531 6.148438 L 8 8.292969 L 6.351562 6.648438 C 6.226562 6.515625 6.042969 6.460938 5.867188 6.507812 C 5.691406 6.554688 5.554688 6.691406 5.507812 6.867188 C 5.460938 7.042969 5.515625 7.226562 5.648438 7.351562 L 7.648438 9.351562 C 7.839844 9.546875 8.160156 9.546875 8.351562 9.351562 L 10.855469 6.851562 C 11 6.710938 11.046875 6.488281 10.964844 6.300781 C 10.882812 6.109375 10.695312 5.988281 10.488281 5.996094 Z M 10.488281 5.996094 "/>
</g>
</svg>
