
<svg xmlns="http://www.w3.org/2000/svg" xmlns:xlink="http://www.w3.org/1999/xlink" width="16px" height="16px" viewBox="0 0 16 16" version="1.1">
<g id="surface1">
<path style=" stroke:none;fill-rule:nonzero;fill:rgb(10.196079%,83.92157%,67.058825%);fill-opacity:1;" d="M 16 13.5 C 16 14.328125 15.328125 15 14.5 15 C 13.671875 15 13 14.328125 13 13.5 C 13 12.671875 13.671875 12 14.5 12 C 15.328125 12 16 12.671875 16 13.5 Z M 16 13.5 "/>
<path style=" stroke:none;fill-rule:nonzero;fill:#aaaaaa;fill-opacity:1;" d="M 8 1 C 6.175781 2.726562 3 4 2 4.25 C 2 9 4.25 14.25 8 15 C 11.75 14.25 14 9 14 4.25 C 13 4 9.824219 2.726562 8 1 Z M 8 4 C 8.550781 4 9 4.449219 9 5 C 9 5.550781 8.550781 6 8 6 C 7.449219 6 7 5.550781 7 5 C 7 4.449219 7.449219 4 8 4 Z M 6 7 L 9 7 L 9 12 L 7 12 L 7 8 L 6 8 Z M 6 7 "/>
</g>
</svg>
