
<svg xmlns="http://www.w3.org/2000/svg" xmlns:xlink="http://www.w3.org/1999/xlink" width="16px" height="16px" viewBox="0 0 16 16" version="1.1">
<g id="surface1">
<path style=" stroke:none;fill-rule:nonzero;fill:rgb(10.196079%,83.92157%,67.058825%);fill-opacity:1;" d="M 8 1 C 6.175781 2.726562 3 4 2 4.25 C 2 9 4.25 14.25 8 15 C 11.75 14.25 14 9 14 4.25 C 13 4 9.824219 2.726562 8 1 Z M 5 5 L 6 5 L 8 7 L 10 5 L 11 5 L 11 6 L 9 8 L 11 10 L 11 11 L 10 11 L 8 9 L 6 11 L 5 11 L 5 10 L 7 8 L 5 6 Z M 5 5 "/>
</g>
</svg>
