
<svg xmlns="http://www.w3.org/2000/svg" xmlns:xlink="http://www.w3.org/1999/xlink" width="16px" height="16px" viewBox="0 0 16 16" version="1.1">
<g id="surface1">
<path style=" stroke:none;fill-rule:nonzero;fill:#aaaaaa;fill-opacity:1;" d="M 6 1 L 6 2 L 3 2 L 3 14 C 3 14.550781 3.445312 15 4 15 L 12 15 C 12.554688 15 13 14.550781 13 14 L 13 2 L 10 2 L 10 1 Z M 8 5 C 9.105469 5 10 5.894531 10 7 C 10 8.105469 9.105469 9 8 9 L 8 10 L 7 10 L 7 8 L 8 8 C 8.550781 8 9 7.550781 9 7 C 9 6.449219 8.550781 6 8 6 C 7.449219 6 7 6.449219 7 7 L 6 7 C 6 5.894531 6.894531 5 8 5 Z M 7 11 L 8 11 L 8 12 L 7 12 Z M 7 11 "/>
</g>
</svg>
