
<svg xmlns="http://www.w3.org/2000/svg" xmlns:xlink="http://www.w3.org/1999/xlink" width="16px" height="16px" viewBox="0 0 16 16" version="1.1">
<g id="surface1">
<path style=" stroke:none;fill-rule:nonzero;fill:#aaaaaa;fill-opacity:1;" d="M 6 1 L 6 2 L 3 2 C 3 2 3 2.449219 3 3 L 3 14 C 3 14.550781 3.449219 15 4 15 L 12 15 C 12.550781 15 13 14.550781 13 14 L 13 3 C 13 2.449219 13 2 13 2 L 10 2 L 10 1 Z M 8 5 L 8 8 L 11 8 L 8 13 L 8 10 L 5 10 Z M 8 5 "/>
<path style=" stroke:none;fill-rule:nonzero;fill:#aaaaaa;fill-opacity:1;" d="M 6 1 L 6 2 L 3 2 L 3 14 C 3 14.550781 3.445312 15 4 15 L 12 15 C 12.554688 15 13 14.550781 13 14 L 13 2 L 10 2 L 10 1 Z M 8 5 L 8 8 L 11 8 L 8 13 L 8 10 L 5 10 Z M 8 5 "/>
</g>
</svg>
