
<svg xmlns="http://www.w3.org/2000/svg" xmlns:xlink="http://www.w3.org/1999/xlink" width="16px" height="16px" viewBox="0 0 16 16" version="1.1">
<g id="surface1">
<path style=" stroke:none;fill-rule:nonzero;fill:#aaaaaa;fill-opacity:1;" d="M 8 0 C 5.785156 0 4 1.785156 4 4 L 4 5 L 6 5 L 6 4 C 6 2.890625 6.890625 2 8 2 C 9.109375 2 10 2.890625 10 4 L 10 8 L 3 8 C 2.445312 8 2 8.445312 2 9 L 2 15 C 2 15.554688 2.445312 16 3 16 L 13 16 C 13.554688 16 14 15.554688 14 15 L 14 9 C 14 8.445312 13.554688 8 13 8 L 12 8 L 12 4 C 12 1.785156 10.214844 0 8 0 Z M 8 0 "/>
</g>
</svg>
