
<svg xmlns="http://www.w3.org/2000/svg" xmlns:xlink="http://www.w3.org/1999/xlink" width="16px" height="16px" viewBox="0 0 16 16" version="1.1">
<g id="surface1">
<path style=" stroke:none;fill-rule:nonzero;fill:#aaaaaa;fill-opacity:1;" d="M 4 2 C 2.890625 2 2 2.890625 2 4 L 2 12 C 2 13.109375 2.890625 14 4 14 L 12 14 C 13.109375 14 14 13.109375 14 12 L 14 7.25 L 13 8.410156 L 13 12 C 13 12.550781 12.550781 13 12 13 L 4 13 C 3.449219 13 3 12.550781 3 12 L 3 4 C 3 3.449219 3.449219 3 4 3 L 12 3 C 12.128906 3 12.230469 3.050781 12.339844 3.089844 L 13.03125 2.28125 C 12.730469 2.101562 12.378906 2 12 2 Z M 4 2 "/>
<path style=" stroke:none;fill-rule:nonzero;fill:#aaaaaa;fill-opacity:1;" d="M 14.277344 2.371094 L 8 9.5625 L 5.75 7.308594 C 5.289062 6.859375 4.691406 6.941406 4.308594 7.308594 C 3.941406 7.691406 3.855469 8.292969 4.308594 8.75 L 8.089844 12.5 L 15.777344 3.691406 C 16.535156 2.820312 15.214844 1.296875 14.277344 2.371094 Z M 14.277344 2.371094 "/>
</g>
</svg>
