
<svg xmlns="http://www.w3.org/2000/svg" xmlns:xlink="http://www.w3.org/1999/xlink" width="16px" height="16px" viewBox="0 0 16 16" version="1.1">
<g id="surface1">
<path style=" stroke:none;fill-rule:nonzero;fill:#aaaaaa;fill-opacity:1;" d="M 4 2 C 2.890625 2 2 2.890625 2 4 L 2 12 C 2 13.109375 2.890625 14 4 14 L 12 14 C 13.109375 14 14 13.109375 14 12 L 14 4 C 14 2.890625 13.109375 2 12 2 Z M 4 3 L 12 3 C 12.550781 3 13 3.449219 13 4 L 13 12 C 13 12.550781 12.550781 13 12 13 L 4 13 C 3.449219 13 3 12.550781 3 12 L 3 4 C 3 3.449219 3.449219 3 4 3 Z M 4 3 "/>
</g>
</svg>
