
<svg xmlns="http://www.w3.org/2000/svg" xmlns:xlink="http://www.w3.org/1999/xlink" width="16px" height="16px" viewBox="0 0 16 16" version="1.1">
<g id="surface1">
<path style=" stroke:none;fill-rule:nonzero;fill:#aaaaaa;fill-opacity:1;" d="M 2 0 C 0 0 0 2 0 2 L 0 11 C 0 11 0 13 2 13 L 14 13 C 14 13 16 13 16 11 L 16 2 C 16 2 16 0 14 0 Z M 2 2 L 14 2 L 14 10 L 2 10 Z M 3 15 L 3 16 L 13 16 L 13 15 C 13 14 12 14 12 14 L 4 14 C 4 14 3 14 3 15 Z M 3 15 "/>
<path style=" stroke:none;fill-rule:nonzero;fill:#aaaaaa;fill-opacity:1;" d="M 5 3 L 5 5 L 6 5 L 6 3 Z M 10 3 L 10 5 L 11 5 L 11 3 Z M 5 7 L 5 8 L 11 8 L 11 7 Z M 11 8 L 11 9 L 12 9 L 12 8 Z M 5 8 L 4 8 L 4 9 L 5 9 Z M 5 8 "/>
</g>
</svg>
