
<svg xmlns="http://www.w3.org/2000/svg" xmlns:xlink="http://www.w3.org/1999/xlink" width="16px" height="16px" viewBox="0 0 16 16" version="1.1">
<g id="surface1">
<path style=" stroke:none;fill-rule:nonzero;fill:#aaaaaa;fill-opacity:1;" d="M 8 0 C 7.746094 0 7.488281 0.0976562 7.292969 0.292969 L 0.292969 7.292969 C -0.0976562 7.6875 -0.0976562 8.316406 0.292969 8.707031 L 7.292969 15.707031 C 7.683594 16.097656 8.316406 16.097656 8.707031 15.707031 L 15.707031 8.707031 C 16.097656 8.316406 16.097656 7.6875 15.707031 7.292969 L 8.707031 0.292969 C 8.511719 0.0976562 8.257812 0 8 0 Z M 8 4 C 9.105469 4 10 4.894531 10 6 C 10 7.105469 9.105469 8 8 8 L 8 9 L 7 9 L 7 7 L 8 7 C 8.550781 7 9 6.550781 9 6 C 9 5.449219 8.550781 5 8 5 C 7.449219 5 7 5.449219 7 6 L 6 6 C 6 4.894531 6.894531 4 8 4 Z M 7 10 L 8 10 L 8 11 L 7 11 Z M 7 10 "/>
</g>
</svg>
