
<svg xmlns="http://www.w3.org/2000/svg" xmlns:xlink="http://www.w3.org/1999/xlink" width="16px" height="16px" viewBox="0 0 16 16" version="1.1">
<g id="surface1">
<path style=" stroke:none;fill-rule:nonzero;fill:#aaaaaa;fill-opacity:1;" d="M 8 0.71875 L 5.808594 3 L 3 3 L 3 5.808594 L 0.71875 8 L 3 10.21875 L 3 13 L 5.808594 13 L 8 15.28125 L 10.21875 13 L 13 13 L 13 10.21875 L 15.28125 8 L 13 6 L 13 3 L 10.21875 3 Z M 8 4 C 10.210938 4 12 5.789062 12 8 C 12 10.210938 10.210938 12 8 12 C 5.789062 12 4 10.210938 4 8 C 4 5.789062 5.789062 4 8 4 Z M 8 5 C 6.34375 5 5 6.34375 5 8 C 5 9.65625 6.34375 11 8 11 C 9.65625 11 11 9.65625 11 8 C 11 6.34375 9.65625 5 8 5 Z M 8 5 "/>
</g>
</svg>
