
<svg xmlns="http://www.w3.org/2000/svg" xmlns:xlink="http://www.w3.org/1999/xlink" width="16px" height="16px" viewBox="0 0 16 16" version="1.1">
<g id="surface1">
<path style=" stroke:none;fill-rule:nonzero;fill:#aaaaaa;fill-opacity:1;" d="M 1 0 C -0.324219 0 -0.324219 2 1 2 L 2 2 L 2 5 L 0 5 L 0 8 L 2 8 L 2 9 L 0 9 L 0 12 L 2 12 L 2 14 C 2 15.324219 4 15.324219 4 14 L 4 1 C 4 0 3 0 3 0 Z M 5 3 L 5 5 L 14 5 L 14 13 L 8 13 L 8 11 L 5 11 L 5 13 L 6 13 L 6 15 L 16 15 L 16 3 Z M 1 6 L 2 6 L 2 7 L 1 7 Z M 6 6 L 6 10 L 7 10 L 7 6 Z M 8 6 L 8 10 L 9 10 L 9 6 Z M 10 6 L 10 10 L 11 10 L 11 6 Z M 12 6 L 12 10 L 13 10 L 13 6 Z M 1 10 L 2 10 L 2 11 L 1 11 Z M 1 10 "/>
</g>
</svg>
