
<svg xmlns="http://www.w3.org/2000/svg" xmlns:xlink="http://www.w3.org/1999/xlink" width="16px" height="16px" viewBox="0 0 16 16" version="1.1">
<g id="surface1">
<path style=" stroke:none;fill-rule:nonzero;fill:#aaaaaa;fill-opacity:1;" d="M 5.5 9 C 5.222656 9 5 9.222656 5 9.5 L 5 12 L 11 12 L 11 9.5 C 11 9.222656 10.777344 9 10.5 9 Z M 5.5 9 "/>
<path style=" stroke:none;fill-rule:nonzero;fill:#aaaaaa;fill-opacity:1;" d="M 3 12 L 3 10 L 0 11 Z M 3 12 "/>
<path style=" stroke:none;fill-rule:nonzero;fill:#aaaaaa;fill-opacity:1;" d="M 7 6 L 9 6 L 8 3 Z M 7 6 "/>
<path style=" stroke:none;fill-rule:nonzero;fill:#aaaaaa;fill-opacity:1;" d="M 13 10 L 13 12 L 16 11 Z M 13 10 "/>
<path style=" stroke:none;fill-rule:nonzero;fill:#aaaaaa;fill-opacity:1;" d="M 10.824219 6.757812 L 12.238281 8.171875 L 13.652344 5.34375 Z M 10.824219 6.757812 "/>
<path style=" stroke:none;fill-rule:nonzero;fill:#aaaaaa;fill-opacity:1;" d="M 3.761719 8.171875 L 5.175781 6.757812 L 2.347656 5.34375 Z M 3.761719 8.171875 "/>
</g>
</svg>
