
<svg xmlns="http://www.w3.org/2000/svg" xmlns:xlink="http://www.w3.org/1999/xlink" width="16px" height="16px" viewBox="0 0 16 16" version="1.1">
<g id="surface1">
<path style=" stroke:none;fill-rule:nonzero;fill:#aaaaaa;fill-opacity:1;" d="M 9 0 C 7.359375 0 6 1.351562 6 3 L 6 11 L 8 11 L 8 3 C 8 2 9 2 9 2 C 9 2 10 2 10 3 L 10 11.5 C 10 12.890625 8.890625 14 7.5 14 C 6.109375 14 5 12.890625 5 11.5 L 5 4 L 3 4 L 3 11.5 C 3 13.96875 5.03125 16 7.5 16 C 9.96875 16 12 13.96875 12 11.5 L 12 3 C 12 1.351562 10.640625 0 9 0 Z M 9 0 "/>
</g>
</svg>
