
<svg xmlns="http://www.w3.org/2000/svg" xmlns:xlink="http://www.w3.org/1999/xlink" width="16px" height="16px" viewBox="0 0 16 16" version="1.1">
<g id="surface1">
<path style=" stroke:none;fill-rule:nonzero;fill:#aaaaaa;fill-opacity:1;" d="M 10 1 L 10 3 L 12 3 C 13.660156 3 15 4.339844 15 6 L 15 10 C 15 11.660156 13.660156 13 12 13 L 4 13 C 2.339844 13 1 11.660156 1 10 L 1 6 C 1 4.339844 2.339844 3 4 3 L 5 3 L 5 5 L 4 5 C 3.445312 5 3 5.445312 3 6 L 3 10 C 3 10.554688 3.445312 11 4 11 L 12 11 C 12.554688 11 13 10.554688 13 10 L 13 6 C 13 5.445312 12.554688 5 12 5 L 10 5 L 10 7 L 6 4 Z M 10 1 "/>
</g>
</svg>
