
<svg xmlns="http://www.w3.org/2000/svg" xmlns:xlink="http://www.w3.org/1999/xlink" width="16px" height="16px" viewBox="0 0 16 16" version="1.1">
<g id="surface1">
<path style=" stroke:none;fill-rule:nonzero;fill:#aaaaaa;fill-opacity:1;" d="M 3 13 L 3 11 L 7 11 C 7.554688 11 8 10.550781 8 10 L 8 6 C 8 4.339844 9.339844 3 11 3 L 15 3 L 15 5 L 11 5 C 10.445312 5 10 5.449219 10 6 L 10 10 C 10 11.660156 8.660156 13 7 13 Z M 3 13 "/>
<path style=" stroke:none;fill-rule:nonzero;fill:#aaaaaa;fill-opacity:1;" d="M 3 3 L 3 5 L 6.621094 5 C 6.792969 4.269531 7.144531 3.617188 7.625 3.066406 C 7.421875 3.023438 7.214844 3 7 3 Z M 11.378906 11 C 11.207031 11.730469 10.855469 12.382812 10.375 12.933594 C 10.578125 12.976562 10.785156 13 11 13 L 15 13 L 15 11 Z M 11.378906 11 "/>
<path style=" stroke:none;fill-rule:nonzero;fill:#aaaaaa;fill-opacity:1;" d="M 4 1 L 4 7 L 0 4 Z M 4 1 "/>
<path style=" stroke:none;fill-rule:nonzero;fill:#aaaaaa;fill-opacity:1;" d="M 4 9 L 4 15 L 0 12 Z M 4 9 "/>
</g>
</svg>
