
<svg xmlns="http://www.w3.org/2000/svg" xmlns:xlink="http://www.w3.org/1999/xlink" width="16px" height="16px" viewBox="0 0 16 16" version="1.1">
<g id="surface1">
<path style=" stroke:none;fill-rule:nonzero;fill:#aaaaaa;fill-opacity:1;" d="M 6 1 L 6 3 L 4 3 C 2.339844 3 1 4.339844 1 6 L 1 10 C 1 11.660156 2.339844 13 4 13 L 12 13 C 13.660156 13 15 11.660156 15 10 L 15 6 C 15 4.339844 13.660156 3 12 3 L 11 3 L 11 5 L 12 5 C 12.554688 5 13 5.445312 13 6 L 13 10 C 13 10.554688 12.554688 11 12 11 L 4 11 C 3.445312 11 3 10.554688 3 10 L 3 6 C 3 5.445312 3.445312 5 4 5 L 6 5 L 6 7 L 10 4 Z M 6 1 "/>
</g>
</svg>
