
<svg xmlns="http://www.w3.org/2000/svg" xmlns:xlink="http://www.w3.org/1999/xlink" width="16px" height="16px" viewBox="0 0 16 16" version="1.1">
<g id="surface1">
<path style=" stroke:none;fill-rule:nonzero;fill:#aaaaaa;fill-opacity:1;" d="M 13 13 L 13 11 L 9 11 C 8.445312 11 8 10.550781 8 10 L 8 6 C 8 4.339844 6.660156 3 5 3 L 1 3 L 1 5 L 5 5 C 5.554688 5 6 5.449219 6 6 L 6 10 C 6 11.660156 7.339844 13 9 13 Z M 13 13 "/>
<path style=" stroke:none;fill-rule:nonzero;fill:#aaaaaa;fill-opacity:1;" d="M 13 3 L 13 5 L 9.378906 5 C 9.207031 4.269531 8.855469 3.617188 8.375 3.066406 C 8.578125 3.023438 8.785156 3 9 3 Z M 4.621094 11 C 4.792969 11.730469 5.144531 12.382812 5.625 12.933594 C 5.421875 12.976562 5.214844 13 5 13 L 1 13 L 1 11 Z M 4.621094 11 "/>
<path style=" stroke:none;fill-rule:nonzero;fill:#aaaaaa;fill-opacity:1;" d="M 12 1 L 12 7 L 16 4 Z M 12 1 "/>
<path style=" stroke:none;fill-rule:nonzero;fill:#aaaaaa;fill-opacity:1;" d="M 12 9 L 12 15 L 16 12 Z M 12 9 "/>
</g>
</svg>
