
<svg xmlns="http://www.w3.org/2000/svg" xmlns:xlink="http://www.w3.org/1999/xlink" width="16px" height="16px" viewBox="0 0 16 16" version="1.1">
<g id="surface1">
<path style=" stroke:none;fill-rule:nonzero;fill:#aaaaaa;fill-opacity:1;" d="M 4.5 8 C 2.570312 8 1 9.570312 1 11.5 C 1 13.429688 2.570312 15 4.5 15 C 6.429688 15 8 13.429688 8 11.5 C 8 9.570312 6.429688 8 4.5 8 Z M 4 9 L 5 9 L 5 14 L 4 14 L 4 10.5 L 3 10.5 L 3 10 C 4 10 4 9 4 9 Z M 4 9 "/>
<path style=" stroke:none;fill-rule:nonzero;fill:#aaaaaa;fill-opacity:1;" d="M 10 1 L 6 4 L 10 7 L 10 5 L 12 5 C 12.554688 5 13 5.445312 13 6 L 13 10 C 13 10.554688 12.554688 11 12 11 L 8.96875 11 C 8.988281 11.164062 9 11.332031 9 11.5 C 8.996094 12.011719 8.910156 12.519531 8.734375 13 L 12 13 C 13.660156 13 15 11.660156 15 10 L 15 6 C 15 4.339844 13.660156 3 12 3 L 10 3 Z M 4 3 C 2.339844 3 1 4.339844 1 6 L 1 8.675781 C 1.523438 8.03125 2.214844 7.542969 3 7.265625 L 3 6 C 3 5.445312 3.445312 5 4 5 L 5 5 L 5 3 Z M 4 3 "/>
</g>
</svg>
