
<svg xmlns="http://www.w3.org/2000/svg" xmlns:xlink="http://www.w3.org/1999/xlink" width="16px" height="16px" viewBox="0 0 16 16" version="1.1">
<g id="surface1">
<path style=" stroke:none;fill-rule:nonzero;fill:#aaaaaa;fill-opacity:1;" d="M 11.5 8 C 9.570312 8 8 9.570312 8 11.5 C 8 13.429688 9.570312 15 11.5 15 C 13.429688 15 15 13.429688 15 11.5 C 15 9.570312 13.429688 8 11.5 8 Z M 11 9 L 12 9 L 12 14 L 11 14 L 11 10.5 L 10 10.5 L 10 10 C 11 10 11 9 11 9 Z M 11 9 "/>
<path style=" stroke:none;fill-rule:nonzero;fill:#aaaaaa;fill-opacity:1;" d="M 6 1 L 6 3 L 4 3 C 2.339844 3 1 4.339844 1 6 L 1 10 C 1 11.660156 2.339844 13 4 13 L 7.265625 13 C 7.089844 12.519531 7.003906 12.011719 7 11.5 C 7 11.332031 7.011719 11.164062 7.03125 11 L 4 11 C 3.445312 11 3 10.554688 3 10 L 3 6 C 3 5.445312 3.445312 5 4 5 L 6 5 L 6 7 L 10 4 Z M 11 3 L 11 5 L 12 5 C 12.554688 5 13 5.445312 13 6 L 13 7.265625 C 13.785156 7.539062 14.476562 8.027344 15 8.671875 L 15 6 C 15 4.339844 13.660156 3 12 3 Z M 11 3 "/>
</g>
</svg>
