
<svg xmlns="http://www.w3.org/2000/svg" xmlns:xlink="http://www.w3.org/1999/xlink" width="16px" height="16px" viewBox="0 0 16 16" version="1.1">
<g id="surface1">
<path style=" stroke:none;fill-rule:nonzero;fill:#aaaaaa;fill-opacity:1;" d="M 8 0 C 6.640625 0 5.511719 0.90625 5.144531 2.144531 L 11 8 L 11 3 C 11 1.339844 9.660156 0 8 0 Z M 5 5.5 L 5 8 C 5 9.660156 6.339844 11 8 11 C 8.703125 11 9.339844 10.75 9.847656 10.351562 Z M 2 7 L 2 8 C 2 10.96875 4.160156 13.429688 7 13.910156 L 7 16 L 9 16 L 9 13.910156 C 10.132812 13.71875 11.148438 13.203125 11.972656 12.472656 L 10.5625 11.0625 C 9.871094 11.640625 8.984375 12 8 12 C 5.769531 12 4 10.230469 4 8 L 4 7 Z M 12 7 L 12 8 C 12 8.308594 11.949219 8.597656 11.882812 8.882812 L 13.449219 10.449219 C 13.792969 9.699219 14 8.878906 14 8 L 14 7 Z M 12 7 "/>
<path style=" stroke:none;fill-rule:nonzero;fill:#aaaaaa;fill-opacity:1;" d="M 2.5 1 L 15 13.5 L 13.5 15 L 1 2.5 Z M 2.5 1 "/>
<path style=" stroke:none;fill-rule:nonzero;fill:#aaaaaa;fill-opacity:1;" d="M 2.5 1 L 15 13.5 L 13.5 15 L 1 2.5 Z M 2.5 1 "/>
</g>
</svg>
