
<svg xmlns="http://www.w3.org/2000/svg" xmlns:xlink="http://www.w3.org/1999/xlink" width="16px" height="16px" viewBox="0 0 16 16" version="1.1">
<g id="surface1">
<path style=" stroke:none;fill-rule:nonzero;fill:#aaaaaa;fill-opacity:1;" d="M 4 6 C 1.789062 6 0 7.789062 0 10 C 0 12.210938 1.789062 14 4 14 C 4.242188 14 4.484375 13.980469 4.722656 13.929688 C 5.460938 15.480469 6.957031 16 10 16 C 16 16 16 14 16 6 Z M 4 8 L 4.007812 8 C 4.019531 9.601562 4.058594 10.941406 4.203125 11.988281 C 4.136719 11.988281 4.066406 12 4 12 C 2.894531 12 2 11.101562 2 10 C 2 8.898438 2.894531 8 4 8 Z M 4 8 "/>
</g>
</svg>
