
<svg xmlns="http://www.w3.org/2000/svg" xmlns:xlink="http://www.w3.org/1999/xlink" width="16px" height="16px" viewBox="0 0 16 16" version="1.1">
<g id="surface1">
<path style=" stroke:none;fill-rule:nonzero;fill:#aaaaaa;fill-opacity:1;" d="M 15 1 L 1 15 L 15 15 Z M 12 7 C 13.101562 7 14 7.898438 14 9 C 14 10.101562 13.101562 11 12 11 L 12 12 L 11 12 L 11 10 L 12 10 C 12.550781 10 13 9.550781 13 9 C 13 8.449219 12.550781 8 12 8 C 11.449219 8 11 8.449219 11 9 L 10 9 C 10 7.898438 10.898438 7 12 7 Z M 11 13 L 12 13 L 12 14 L 11 14 Z M 11 13 "/>
</g>
</svg>
