
<svg xmlns="http://www.w3.org/2000/svg" xmlns:xlink="http://www.w3.org/1999/xlink" width="16px" height="16px" viewBox="0 0 16 16" version="1.1">
<g id="surface1">
<path style=" stroke:none;fill-rule:nonzero;fill:#aaaaaa;fill-opacity:1;" d="M 8 1 C 4.949219 1 2.082031 2.074219 0 4 L 8 15 L 16 4 C 13.917969 2.074219 11.050781 1 8 1 Z M 8 4 C 9.109375 4 10 4.898438 10 6 C 10 7.109375 9.109375 8 8 8 L 8 9 L 7 9 L 7 7 L 8 7 C 8.558594 7 9 6.558594 9 6 C 9 5.449219 8.558594 5 8 5 C 7.449219 5 7 5.449219 7 6 L 6 6 C 6 4.898438 6.898438 4 8 4 Z M 7 10 L 8 10 L 8 11 L 7 11 Z M 7 10 "/>
</g>
</svg>
