
<svg xmlns="http://www.w3.org/2000/svg" xmlns:xlink="http://www.w3.org/1999/xlink" width="16px" height="16px" viewBox="0 0 16 16" version="1.1">
<g id="surface1">
<path style=" stroke:none;fill-rule:nonzero;fill:#aaaaaa;fill-opacity:1;" d="M 4.5 4 C 2.019531 4 0 6.011719 0 8.5 C 0 10.988281 2.019531 13 4.5 13 C 6.410156 13 8.101562 11.800781 8.738281 10 L 12 10 L 12 12 L 15 12 L 15 10 L 16 10 L 16 7 L 8.738281 7 C 8.101562 5.199219 6.410156 4 4.5 4 Z M 4.5 7 C 5.328125 7 6 7.671875 6 8.5 C 6 9.328125 5.328125 10 4.5 10 C 3.671875 10 3 9.328125 3 8.5 C 3 7.671875 3.671875 7 4.5 7 Z M 4.5 7 "/>
</g>
</svg>
