
<svg xmlns="http://www.w3.org/2000/svg" xmlns:xlink="http://www.w3.org/1999/xlink" width="16px" height="16px" viewBox="0 0 16 16" version="1.1">
<g id="surface1">
<path style=" stroke:none;fill-rule:nonzero;fill:#aaaaaa;fill-opacity:1;" d="M 2 2 C 2 2 1 2 1 3 L 1 12 C 1 13 2 13 2 13 L 4 13 L 5 14 L 11 14 L 12 13 L 14 13 C 14 13 15 13.128906 15 12 L 15 3 C 15 2 14 2 14 2 Z M 8 4 C 9.101562 4 10 4.894531 10 6 C 10 7.105469 9.101562 8 8 8 L 8 9 L 7 9 L 7 7 L 8 7 C 8.550781 7 9 6.550781 9 6 C 9 5.449219 8.550781 5 8 5 C 7.449219 5 7 5.449219 7 6 L 6 6 C 6 4.894531 6.898438 4 8 4 Z M 7 10 L 8 10 L 8 11 L 7 11 Z M 7 10 "/>
</g>
</svg>
