
<svg xmlns="http://www.w3.org/2000/svg" xmlns:xlink="http://www.w3.org/1999/xlink" width="16px" height="16px" viewBox="0 0 16 16" version="1.1">
<g id="surface1">
<path style=" stroke:none;fill-rule:nonzero;fill:#aaaaaa;fill-opacity:1;" d="M 2 1 C 0.890625 1 0 1.890625 0 3 L 0 13 C 0 14.109375 0.890625 15 2 15 L 14 15 C 15.109375 15 16 14.109375 16 13 L 16 3 C 16 1.890625 15.109375 1 14 1 Z M 2 3 L 6 3 C 6.664062 3.019531 7.167969 3.839844 6.878906 4.441406 L 5.503906 7.21875 C 5.855469 7.332031 6.25 7.410156 6.46875 7.660156 C 6.800781 8.019531 7 8.46875 7 9 L 7 11 C 7 12.109375 6.09375 13 5 13 L 2 13 L 2 11 L 5 11 L 5 9 L 4 9 C 3.335938 8.980469 2.835938 8.160156 3.128906 7.558594 L 4.378906 5 L 2 5 Z M 10 3 L 12 3 C 14 3 14 5 14 5 L 14 6 L 12 6 L 12 5 L 10 5 L 10 11 L 12 11 L 12 9 L 11 9 L 11 7 L 14 7 L 14 11 C 14 11 14 13 12 13 L 10 13 C 10 13 8 13 8 11 L 8 5 C 8 3 10 3 10 3 Z M 10 3 "/>
</g>
</svg>
