
<svg xmlns="http://www.w3.org/2000/svg" xmlns:xlink="http://www.w3.org/1999/xlink" width="16px" height="16px" viewBox="0 0 16 16" version="1.1">
<g id="surface1">
<path style=" stroke:none;fill-rule:nonzero;fill:#aaaaaa;fill-opacity:1;" d="M 8 1 C 8.550781 1 9 1.449219 9 2 C 9 2.03125 9 2.070312 8.988281 2.101562 C 11.28125 2.558594 13 4.570312 13 7 L 13 11.5 L 15 13.5 L 15 14 L 1 14 L 1 13.5 L 3 11.5 L 3 7 C 3 4.570312 4.71875 2.558594 7.011719 2.101562 C 7 2.070312 7 2.03125 7 2 C 7 1.449219 7.449219 1 8 1 Z M 9.730469 15 C 9.371094 15.621094 8.710938 16 8 16 C 7.289062 16 6.628906 15.621094 6.269531 15 Z M 9.730469 15 "/>
</g>
</svg>
