
<svg xmlns="http://www.w3.org/2000/svg" xmlns:xlink="http://www.w3.org/1999/xlink" width="16px" height="16px" viewBox="0 0 16 16" version="1.1">
<g id="surface1">
<path style=" stroke:none;fill-rule:nonzero;fill:#aaaaaa;fill-opacity:1;" d="M 3 0 C 1.980469 0 1.125 0.765625 1.011719 1.777344 L 0.0117188 10.777344 C -0.0507812 11.34375 0.128906 11.910156 0.511719 12.332031 C 0.890625 12.757812 1.429688 13 2 13 L 14 13 C 14.570312 13 15.109375 12.757812 15.492188 12.332031 C 15.871094 11.910156 16.050781 11.34375 15.988281 10.777344 L 14.988281 1.777344 C 14.875 0.765625 14.019531 0 13 0 Z M 9 2 L 9 9 L 11 9 L 11 11 L 5 11 L 5 9 L 7 9 L 7 4.5 L 5 5 L 5 3 Z M 9 2 "/>
<path style=" stroke:none;fill-rule:nonzero;fill:#aaaaaa;fill-opacity:1;" d="M 0 13.203125 L 0 13.75 C 0 14.960938 1.039062 16 2.25 16 L 13.75 16 C 14.960938 16 16 14.960938 16 13.75 L 16 13.203125 C 15.46875 13.6875 14.773438 14 14 14 L 2 14 C 1.226562 14 0.53125 13.6875 0 13.203125 Z M 0 13.203125 "/>
</g>
</svg>
