
<svg xmlns="http://www.w3.org/2000/svg" xmlns:xlink="http://www.w3.org/1999/xlink" width="16px" height="16px" viewBox="0 0 16 16" version="1.1">
<g id="surface1">
<path style=" stroke:none;fill-rule:nonzero;fill:rgb(10.196079%,83.92157%,67.058825%);fill-opacity:1;" d="M 12.480469 8.730469 C 12.328125 8.738281 12.191406 8.820312 12.121094 8.949219 L 9.058594 14.351562 C 8.890625 14.640625 9.101562 15 9.441406 15 L 15.558594 15 C 15.898438 15 16.109375 14.640625 15.941406 14.351562 L 12.878906 8.949219 C 12.800781 8.808594 12.640625 8.71875 12.480469 8.730469 Z M 12 10 L 13 10 L 13 12 L 12 12 Z M 12 13 L 13 13 L 13 14 L 12 14 Z M 12 13 "/>
<path style=" stroke:none;fill-rule:nonzero;fill:#aaaaaa;fill-opacity:1;" d="M 4 1 L 4 3 L 12 3 L 12 1 Z M 13.75 8.460938 L 14.519531 9.808594 C 14.789062 9.621094 15 9.320312 15 9 L 15 5 C 15 4.5 14.5 4 14 4 L 2 4 C 1.5 4 1 4.5 1 5 L 1 9 C 1 9.5 1.5 10 2 10 L 3 10 L 3 8 L 11.671875 8 C 11.898438 7.839844 12.160156 7.738281 12.433594 7.730469 C 12.96875 7.710938 13.480469 7.988281 13.75 8.460938 Z M 10.941406 9 L 4 9 L 4 14 L 8.128906 14 Z M 10.941406 9 "/>
</g>
</svg>
