
<svg xmlns="http://www.w3.org/2000/svg" xmlns:xlink="http://www.w3.org/1999/xlink" width="16px" height="16px" viewBox="0 0 16 16" version="1.1">
<g id="surface1">
<path style=" stroke:none;fill-rule:nonzero;fill:#aaaaaa;fill-opacity:1;" d="M 4 1 L 4 3 L 12 3 L 12 1 Z M 2 4 C 1.5 4 1 4.5 1 5 L 1 9 C 1 9.5 1.5 10 2 10 L 3 10 L 3 8 L 10 8 L 10 6 L 14 6 L 14 10 C 14.5 10 15 9.5 15 9 L 15 5 C 15 4.5 14.5 4 14 4 Z M 4 9 L 4 14 L 10 14 L 10 9 Z M 4 9 "/>
<path style=" stroke:none;fill-rule:nonzero;fill:rgb(10.196079%,83.92157%,67.058825%);fill-opacity:1;" d="M 11 7 L 11 11.011719 L 11.25 13 L 12.75 13 L 13 11 L 13 7 Z M 11 14 L 11 16 L 13 16 L 13 14 Z M 11 14 "/>
</g>
</svg>
