
<svg xmlns="http://www.w3.org/2000/svg" xmlns:xlink="http://www.w3.org/1999/xlink" width="16px" height="16px" viewBox="0 0 16 16" version="1.1">
<g id="surface1">
<path style=" stroke:none;fill-rule:nonzero;fill:#aaaaaa;fill-opacity:1;" d="M 8 5 C 6.339844 5 5 6.339844 5 8 C 5 9.660156 6.339844 11 8 11 C 9.660156 11 11 9.660156 11 8 C 11 6.339844 9.660156 5 8 5 Z M 8 5 "/>
<path style=" stroke:none;fill-rule:nonzero;fill:#aaaaaa;fill-opacity:1;" d="M 8 1 C 4.140625 1 1 4.140625 1 8 C 1 11.859375 4.140625 15 8 15 C 11.859375 15 15 11.859375 15 8 C 15 4.140625 11.859375 1 8 1 Z M 8 2 C 11.320312 2 14 4.679688 14 8 C 14 11.320312 11.320312 14 8 14 C 4.679688 14 2 11.320312 2 8 C 2 4.679688 4.679688 2 8 2 Z M 8 2 "/>
</g>
</svg>
