
<svg xmlns="http://www.w3.org/2000/svg" xmlns:xlink="http://www.w3.org/1999/xlink" width="16px" height="16px" viewBox="0 0 16 16" version="1.1">
<g id="surface1">
<path style=" stroke:none;fill-rule:nonzero;fill:#aaaaaa;fill-opacity:1;" d="M 7.992188 0 C 6.914062 0 5.84375 0.21875 4.851562 0.644531 C 5.449219 1.113281 5.847656 1.792969 5.960938 2.539062 C 5.992188 2.652344 6.003906 2.765625 5.996094 2.882812 C 6 2.921875 6 2.960938 6 3 C 6 4.65625 4.65625 6 3 6 C 2.960938 6 2.925781 5.996094 2.890625 5.992188 C 2.765625 6.003906 2.640625 5.992188 2.523438 5.957031 C 1.78125 5.839844 1.113281 5.445312 0.648438 4.859375 C 0.21875 5.851562 -0.00390625 6.917969 -0.0078125 8 C -0.00390625 12.417969 3.574219 16 7.992188 16 C 10.105469 15.996094 12.128906 15.160156 13.625 13.671875 C 13.019531 13.433594 12.445312 13.164062 11.925781 12.828125 C 12.109375 13.289062 11.929688 13.8125 11.5 14.0625 C 11.023438 14.339844 10.410156 14.171875 10.136719 13.695312 C 9.859375 13.21875 10.023438 12.605469 10.5 12.328125 C 10.644531 12.246094 10.808594 12.199219 10.976562 12.199219 C 11.03125 12.195312 11.082031 12.199219 11.136719 12.207031 C 10.585938 11.683594 10.171875 10.984375 10.050781 10.1875 C 9.496094 10.707031 8.761719 11 8 11 C 6.34375 11 5 9.65625 5 8 C 5 6.34375 6.34375 5 8 5 C 9.65625 5 11 6.34375 11 8 C 11 8.015625 11 8.027344 11 8.039062 C 11.128906 8.011719 11.25 7.996094 11.339844 8 C 11.527344 8.007812 11.648438 8.035156 11.777344 8.066406 C 11.789062 8.066406 11.796875 8.070312 11.808594 8.070312 L 13.085938 8.402344 C 13.03125 8.277344 13 8.136719 13 8 C 13 7.449219 13.449219 7 14 7 C 14.550781 7 15 7.449219 15 8 C 15 8.3125 14.855469 8.605469 14.605469 8.796875 L 15.90625 9.132812 C 15.960938 8.757812 15.992188 8.378906 15.996094 8 C 15.996094 3.582031 12.414062 0 7.992188 0 Z M 3 1 C 1.894531 1 1 1.894531 1 3 C 1 4.105469 1.894531 5 3 5 C 4.105469 5 5 4.105469 5 3 C 5 1.894531 4.105469 1 3 1 Z M 8 1 C 8.550781 1 9 1.449219 9 2 C 9 2.550781 8.550781 3 8 3 C 7.449219 3 7 2.550781 7 2 C 7 1.449219 7.449219 1 8 1 Z M 10.953125 1.804688 C 11.144531 1.796875 11.335938 1.839844 11.5 1.9375 C 11.730469 2.070312 11.898438 2.289062 11.964844 2.546875 C 12.035156 2.800781 12 3.074219 11.863281 3.304688 C 11.589844 3.78125 10.976562 3.945312 10.5 3.671875 C 10.023438 3.394531 9.859375 2.78125 10.136719 2.304688 C 10.304688 2.007812 10.613281 1.820312 10.953125 1.804688 Z M 13.171875 4 C 13.539062 3.992188 13.878906 4.183594 14.0625 4.5 C 14.339844 4.976562 14.171875 5.589844 13.695312 5.867188 C 13.21875 6.140625 12.605469 5.976562 12.328125 5.5 C 12.054688 5.023438 12.21875 4.410156 12.695312 4.132812 C 12.839844 4.050781 13.003906 4.003906 13.171875 4 Z M 2 7 C 2.550781 7 3 7.449219 3 8 C 3 8.550781 2.550781 9 2 9 C 1.449219 9 1 8.550781 1 8 C 1 7.449219 1.449219 7 2 7 Z M 11.308594 9 C 11.117188 8.992188 11.09375 9.097656 11.035156 9.371094 C 10.757812 11.175781 12.390625 12.175781 14.539062 12.953125 C 14.796875 13.046875 14.816406 13 14.972656 12.808594 C 15.257812 12.4375 15.425781 12.050781 15.5625 11.644531 C 15.6875 11.28125 15.789062 10.902344 15.925781 10.515625 C 16.066406 10.1875 16.015625 10.195312 15.667969 10.105469 L 11.558594 9.039062 C 11.449219 9.015625 11.371094 9.003906 11.308594 9 Z M 2.78125 10 C 3.144531 9.992188 3.488281 10.183594 3.671875 10.5 C 3.945312 10.976562 3.78125 11.589844 3.304688 11.863281 C 3.074219 12 2.800781 12.035156 2.546875 11.964844 C 2.289062 11.898438 2.070312 11.730469 1.9375 11.5 C 1.660156 11.023438 1.828125 10.410156 2.304688 10.136719 C 2.449219 10.050781 2.613281 10.003906 2.78125 10 Z M 4.953125 12.199219 C 5.144531 12.1875 5.335938 12.234375 5.5 12.328125 C 5.976562 12.605469 6.140625 13.21875 5.867188 13.695312 C 5.589844 14.171875 4.976562 14.339844 4.5 14.0625 C 4.269531 13.929688 4.101562 13.710938 4.035156 13.453125 C 3.964844 13.199219 4 12.925781 4.132812 12.695312 C 4.304688 12.402344 4.613281 12.214844 4.953125 12.199219 Z M 8 13 C 8.550781 13 9 13.449219 9 14 C 9 14.550781 8.550781 15 8 15 C 7.449219 15 7 14.550781 7 14 C 7 13.449219 7.449219 13 8 13 Z M 8 13 "/>
</g>
</svg>
