
<svg xmlns="http://www.w3.org/2000/svg" xmlns:xlink="http://www.w3.org/1999/xlink" width="16px" height="16px" viewBox="0 0 16 16" version="1.1">
<g id="surface1">
<path style=" stroke:none;fill-rule:nonzero;fill:#aaaaaa;fill-opacity:1;" d="M 8 2 C 4.6875 2 2 4.6875 2 8 L 0 8 L 3 12 L 6 8 L 4 8 C 4 5.789062 5.789062 4 8 4 C 10.210938 4 12 5.789062 12 8 C 12 10.210938 10.210938 12 8 12 C 7.449219 12 7 12.449219 7 13 C 7 13.550781 7.449219 14 8 14 C 8.03125 14 8.0625 14 8.09375 13.996094 C 11.363281 13.945312 14 11.28125 14 8 C 14 4.6875 11.3125 2 8 2 Z M 8 2 "/>
</g>
</svg>
