
<svg xmlns="http://www.w3.org/2000/svg" xmlns:xlink="http://www.w3.org/1999/xlink" width="16px" height="16px" viewBox="0 0 16 16" version="1.1">
<g id="surface1">
<path style=" stroke:none;fill-rule:nonzero;fill:#aaaaaa;fill-opacity:1;" d="M 8 0 C 6.894531 0 6 0.894531 6 2 L 2 2 C 1.445312 2 1 2.445312 1 3 L 1 14 C 1 14.554688 1.445312 15 2 15 L 11 15 L 11 12 L 4 12 L 4 11 L 11 11 L 11 9 L 4 9 L 4 8 L 11 8 L 11 6 L 4 6 L 4 5 L 12 5 L 12 6 L 15 6 L 15 3 C 15 2.445312 14.554688 2 14 2 L 10 2 C 10 0.894531 9.105469 0 8 0 Z M 8 1 C 8.550781 1 9 1.449219 9 2 C 9 2.550781 8.550781 3 8 3 C 7.449219 3 7 2.550781 7 2 C 7 1.449219 7.449219 1 8 1 Z M 8 1 "/>
<path style=" stroke:none;fill-rule:nonzero;fill:rgb(10.196079%,83.92157%,67.058825%);fill-opacity:1;" d="M 12 7 L 12 11 L 12.25 13 L 13.75 13 L 14 11 L 14 7 Z M 12 14 L 12 16 L 14 16 L 14 14 Z M 12 14 "/>
</g>
</svg>
