
<svg xmlns="http://www.w3.org/2000/svg" xmlns:xlink="http://www.w3.org/1999/xlink" width="16px" height="16px" viewBox="0 0 16 16" version="1.1">
<g id="surface1">
<path style=" stroke:none;fill-rule:nonzero;fill:#aaaaaa;fill-opacity:1;" d="M 10 1 C 11.660156 1 13 2.339844 13 4 L 13 6 L 15 6 L 12 10 L 9 6 L 11 6 L 11 4 C 11 3.445312 10.554688 3 10 3 L 6 3 C 5.445312 3 5 3.445312 5 4 L 5 12 C 5 12.554688 5.445312 13 6 13 L 9 13 L 9 15 L 6 15 C 4.339844 15 3 13.660156 3 12 L 3 4 C 3 2.339844 4.339844 1 6 1 Z M 10 1 "/>
</g>
</svg>
