
<svg xmlns="http://www.w3.org/2000/svg" xmlns:xlink="http://www.w3.org/1999/xlink" width="16px" height="16px" viewBox="0 0 16 16" version="1.1">
<g id="surface1">
<path style=" stroke:none;fill-rule:nonzero;fill:#aaaaaa;fill-opacity:1;" d="M 6 1 C 4.339844 1 3 2.339844 3 4 L 3 6 L 1 6 L 4 10 L 7 6 L 5 6 L 5 4 C 5 3.445312 5.445312 3 6 3 L 10 3 C 10.554688 3 11 3.445312 11 4 L 11 12 C 11 12.554688 10.554688 13 10 13 L 7 13 L 7 15 L 10 15 C 11.660156 15 13 13.660156 13 12 L 13 4 C 13 2.339844 11.660156 1 10 1 Z M 6 1 "/>
</g>
</svg>
