
<svg xmlns="http://www.w3.org/2000/svg" xmlns:xlink="http://www.w3.org/1999/xlink" width="16px" height="16px" viewBox="0 0 16 16" version="1.1">
<g id="surface1">
<path style=" stroke:none;fill-rule:nonzero;fill:#aaaaaa;fill-opacity:1;" d="M 10 8 C 8.691406 8 7.601562 8.859375 7.191406 10.03125 C 5.960938 10.191406 5 11.230469 5 12.5 C 5 13.878906 6.121094 15 7.5 15 L 12.5 15 C 13.878906 15 15 13.878906 15 12.5 C 15 11.230469 14.039062 10.191406 12.808594 10.03125 C 12.410156 8.859375 11.308594 8 10 8 Z M 10 8 "/>
<path style=" stroke:none;fill-rule:nonzero;fill:#aaaaaa;fill-opacity:1;" d="M 8 0 C 5.929688 0 4.171875 1.269531 3.410156 3.058594 C 1.480469 3.351562 0 4.988281 0 7 C 0 9.210938 1.789062 11 4 11 L 4.394531 11 C 4.839844 10.203125 5.617188 9.613281 6.523438 9.324219 C 7.167969 8 8.421875 7 10 7 C 11.574219 7 12.828125 7.996094 13.472656 9.320312 C 13.984375 9.484375 14.453125 9.742188 14.847656 10.078125 C 15.550781 9.441406 16 8.523438 16 7.5 C 16 5.699219 14.648438 4.230469 12.910156 4.03125 C 12.449219 1.738281 10.429688 0 8 0 Z M 8 0 "/>
</g>
</svg>
