
<svg xmlns="http://www.w3.org/2000/svg" xmlns:xlink="http://www.w3.org/1999/xlink" width="16px" height="16px" viewBox="0 0 16 16" version="1.1">
<g id="surface1">
<path style=" stroke:none;fill-rule:nonzero;fill:rgb(10.196079%,83.92157%,67.058825%);fill-opacity:1;" d="M 7 6 L 7 10 L 7.25 12 L 8.75 12 L 9 10 L 9 6 Z M 7 13 L 7 15 L 9 15 L 9 13 Z M 7 13 "/>
<path style=" stroke:none;fill-rule:nonzero;fill:#aaaaaa;fill-opacity:1;" d="M 8 0 C 5.929688 0 4.171875 1.269531 3.410156 3.058594 C 1.480469 3.351562 0 5 0 7 C 0 9.210938 1.789062 11 4 11 L 6 11 L 6 5 L 10 5 L 10 11 L 12.5 11 C 14.429688 11 16 9.429688 16 7.5 C 16 5.699219 14.648438 4.230469 12.910156 4.03125 C 12.449219 1.738281 10.429688 0 8 0 Z M 8 0 "/>
</g>
</svg>
