
<svg xmlns="http://www.w3.org/2000/svg" xmlns:xlink="http://www.w3.org/1999/xlink" width="16px" height="16px" viewBox="0 0 16 16" version="1.1">
<g id="surface1">
<path style=" stroke:none;fill-rule:nonzero;fill:#aaaaaa;fill-opacity:1;" d="M 11 9 C 9.691406 9 8.601562 9.859375 8.191406 11.03125 C 6.960938 11.191406 6 12.230469 6 13.5 C 6 14.878906 7.121094 16 8.5 16 L 13.5 16 C 14.878906 16 16 14.878906 16 13.5 C 16 12.230469 15.039062 11.191406 13.808594 11.03125 C 13.410156 9.859375 12.308594 9 11 9 Z M 11 9 "/>
<path style=" stroke:none;fill-rule:nonzero;fill:#aaaaaa;fill-opacity:1;" d="M 7 0 L 6.5 1.03125 C 6.660156 1.019531 6.828125 1 7 1 L 7.5 1 Z M 7 2 C 4.238281 2 2 4.238281 2 7 C 2 9.25 3.511719 11.121094 5.558594 11.75 C 5.78125 11.429688 6.050781 11.148438 6.371094 10.910156 C 6.398438 10.890625 6.441406 10.859375 6.46875 10.839844 C 6.539062 10.789062 6.621094 10.738281 6.699219 10.699219 C 6.960938 10.539062 7.238281 10.398438 7.53125 10.308594 C 7.601562 10.171875 7.679688 10.03125 7.761719 9.898438 C 8.230469 9.148438 8.910156 8.558594 9.730469 8.238281 C 9.730469 8.238281 9.730469 8.238281 9.738281 8.238281 C 9.898438 8.171875 10.078125 8.121094 10.25 8.089844 C 10.289062 8.078125 10.339844 8.058594 10.378906 8.058594 C 10.578125 8.019531 10.789062 8 11 8 C 11.148438 8 11.300781 8.011719 11.441406 8.039062 C 11.589844 8.050781 11.738281 8.078125 11.878906 8.121094 C 11.960938 7.761719 12 7.390625 12 7 C 12 4.238281 9.761719 2 7 2 Z M 2.058594 2.058594 L 2.410156 3.128906 C 2.628906 2.871094 2.871094 2.628906 3.128906 2.410156 Z M 11.941406 2.058594 L 10.839844 2.441406 L 10.78125 2.441406 C 10.921875 2.550781 11.058594 2.660156 11.191406 2.78125 C 11.320312 2.898438 11.449219 3.019531 11.558594 3.160156 Z M 1 6.5 L 0 7 L 1.03125 7.5 C 1.019531 7.328125 1 7.171875 1 7 C 1 6.96875 1 6.921875 1 6.839844 C 1.011719 6.730469 1.019531 6.609375 1.03125 6.5 Z M 12.96875 6.5 C 12.980469 6.671875 13 6.828125 13 7 C 13 7.03125 13 7.078125 13 7.160156 C 12.988281 7.269531 12.980469 7.390625 12.96875 7.5 L 13 7.5 L 14 7 Z M 2.441406 10.839844 L 2.058594 11.941406 L 3.160156 11.558594 L 3.21875 11.558594 C 3.078125 11.449219 2.941406 11.339844 2.808594 11.21875 C 2.679688 11.101562 2.550781 10.980469 2.441406 10.839844 Z M 2.441406 10.839844 "/>
</g>
</svg>
