
<svg xmlns="http://www.w3.org/2000/svg" xmlns:xlink="http://www.w3.org/1999/xlink" width="16px" height="16px" viewBox="0 0 16 16" version="1.1">
<g id="surface1">
<path style=" stroke:none;fill-rule:nonzero;fill:#aaaaaa;fill-opacity:1;" d="M 8 0 C 5.929688 0 4.171875 1.269531 3.410156 3.058594 C 1.480469 3.351562 0 4.988281 0 7 C 0 9.210938 1.789062 11 4 11 L 12.5 11 C 14.429688 11 16 9.429688 16 7.5 C 16 5.699219 14.648438 4.230469 12.910156 4.03125 C 12.449219 1.738281 10.429688 0 8 0 Z M 8 0 "/>
<path style=" stroke:none;fill-rule:nonzero;fill:#aaaaaa;fill-opacity:1;" d="M 2.976562 11.992188 C 2.792969 12.003906 2.632812 12.113281 2.550781 12.277344 L 1.550781 14.277344 C 1.46875 14.4375 1.476562 14.632812 1.574219 14.785156 C 1.671875 14.9375 1.847656 15.023438 2.027344 15.011719 C 2.210938 15 2.371094 14.886719 2.449219 14.722656 L 3.449219 12.722656 C 3.53125 12.5625 3.519531 12.371094 3.421875 12.222656 C 3.324219 12.070312 3.15625 11.984375 2.976562 11.992188 Z M 5.476562 11.992188 C 5.292969 12.003906 5.132812 12.113281 5.050781 12.277344 L 4.050781 14.277344 C 3.96875 14.4375 3.976562 14.632812 4.074219 14.785156 C 4.171875 14.9375 4.347656 15.023438 4.527344 15.011719 C 4.710938 15 4.871094 14.886719 4.949219 14.722656 L 5.949219 12.722656 C 6.03125 12.5625 6.019531 12.371094 5.921875 12.222656 C 5.824219 12.070312 5.65625 11.984375 5.476562 11.992188 Z M 7.976562 11.992188 C 7.792969 12.003906 7.632812 12.113281 7.550781 12.277344 L 6.550781 14.277344 C 6.46875 14.4375 6.476562 14.632812 6.574219 14.785156 C 6.671875 14.9375 6.847656 15.023438 7.027344 15.011719 C 7.210938 15 7.371094 14.886719 7.449219 14.722656 L 8.449219 12.722656 C 8.53125 12.5625 8.519531 12.371094 8.421875 12.222656 C 8.324219 12.070312 8.15625 11.984375 7.976562 11.992188 Z M 10.476562 11.992188 C 10.292969 12.003906 10.132812 12.113281 10.054688 12.277344 L 9.050781 14.277344 C 8.96875 14.4375 8.976562 14.632812 9.074219 14.785156 C 9.171875 14.9375 9.347656 15.023438 9.527344 15.011719 C 9.710938 15 9.871094 14.886719 9.949219 14.722656 L 10.945312 12.722656 C 11.027344 12.5625 11.019531 12.371094 10.921875 12.222656 C 10.824219 12.070312 10.65625 11.984375 10.476562 11.992188 Z M 12.976562 11.992188 C 12.792969 12.003906 12.632812 12.113281 12.554688 12.277344 L 11.554688 14.277344 C 11.464844 14.4375 11.46875 14.632812 11.570312 14.789062 C 11.667969 14.945312 11.84375 15.03125 12.027344 15.019531 C 12.210938 15.003906 12.371094 14.890625 12.445312 14.722656 L 13.445312 12.722656 C 13.527344 12.5625 13.519531 12.371094 13.421875 12.222656 C 13.324219 12.070312 13.15625 11.984375 12.976562 11.992188 Z M 12.976562 11.992188 "/>
</g>
</svg>
