
<svg xmlns="http://www.w3.org/2000/svg" xmlns:xlink="http://www.w3.org/1999/xlink" width="16px" height="16px" viewBox="0 0 16 16" version="1.1">
<g id="surface1">
<path style=" stroke:none;fill-rule:nonzero;fill:#aaaaaa;fill-opacity:1;" d="M 8 0 L 7.5 1.03125 C 7.671875 1.019531 7.828125 1 8 1 C 8.171875 1 8.328125 1.019531 8.5 1.03125 Z M 8 2 C 4.691406 2 2 4.679688 2 8 C 2 11.308594 4.691406 14 8 14 C 11.308594 14 14 11.308594 14 8 C 14 4.679688 11.308594 2 8 2 Z M 2.339844 2.339844 L 2.71875 3.429688 C 2.941406 3.179688 3.191406 2.929688 3.441406 2.710938 Z M 13.660156 2.339844 L 12.558594 2.710938 C 12.808594 2.929688 13.058594 3.179688 13.28125 3.429688 Z M 1.03125 7.5 L 0 8 L 1.03125 8.5 C 1.019531 8.328125 1 8.160156 1 8 C 1 7.828125 1.019531 7.660156 1.03125 7.5 Z M 14.96875 7.5 C 14.980469 7.660156 15 7.828125 15 8 C 15 8.160156 14.980469 8.328125 14.96875 8.5 L 16 8 Z M 2.71875 12.558594 L 2.339844 13.648438 L 3.441406 13.28125 C 3.191406 13.058594 2.941406 12.808594 2.71875 12.558594 Z M 13.28125 12.558594 C 13.058594 12.808594 12.808594 13.058594 12.558594 13.28125 L 13.660156 13.648438 Z M 7.5 14.960938 L 8 16 L 8.5 14.960938 C 8.328125 14.980469 8.171875 15 8 15 C 7.828125 15 7.671875 14.980469 7.5 14.960938 Z M 7.5 14.960938 "/>
</g>
</svg>
