
<svg xmlns="http://www.w3.org/2000/svg" xmlns:xlink="http://www.w3.org/1999/xlink" width="16px" height="16px" viewBox="0 0 16 16" version="1.1">
<g id="surface1">
<path style=" stroke:none;fill-rule:nonzero;fill:#aaaaaa;fill-opacity:1;" d="M 8 0 C 5.929688 0 4.171875 1.269531 3.410156 3.058594 C 1.480469 3.351562 0 4.988281 0 7 C 0 7.730469 0.199219 8.410156 0.539062 9 L 0.519531 9 C 1.078125 9.96875 2.039062 10.679688 3.171875 10.910156 L 5.5 8.578125 L 7.25 10.328125 C 7.429688 9.839844 7.691406 9.390625 8.039062 9.039062 L 10.5 6.578125 L 12.960938 9.039062 C 13.398438 9.480469 13.730469 10.050781 13.890625 10.691406 L 13.910156 10.691406 L 13.921875 10.679688 L 13.929688 10.679688 L 13.941406 10.671875 C 15.160156 10.121094 16 8.921875 16 7.5 C 16 5.699219 14.648438 4.230469 12.910156 4.03125 C 12.449219 1.738281 10.429688 0 8 0 Z M 8 0 "/>
<path style=" stroke:none;fill-rule:nonzero;fill:#aaaaaa;fill-opacity:1;" d="M 10.5 8 L 8.75 9.75 C 8.300781 10.199219 8 10.808594 8 11.5 C 8 12.871094 9.128906 14 10.5 14 C 11.871094 14 13 12.871094 13 11.5 C 13 10.808594 12.699219 10.199219 12.25 9.75 Z M 5.5 10 L 3.75 11.75 C 3.300781 12.199219 3 12.808594 3 13.5 C 3 14.871094 4.128906 16 5.5 16 C 6.871094 16 8 14.871094 8 13.5 C 8 12.808594 7.699219 12.199219 7.25 11.75 Z M 5.5 10 "/>
</g>
</svg>
