<?xml version="1.0" encoding="UTF-8" standalone="no"?>
<svg
   id="svg3297"
   height="16"
   width="16"
   version="1.0"
   sodipodi:docname="media-cdr.svg"
   inkscape:version="1.3.2 (091e20ef0f, 2023-11-25)"
   xmlns:inkscape="http://www.inkscape.org/namespaces/inkscape"
   xmlns:sodipodi="http://sodipodi.sourceforge.net/DTD/sodipodi-0.dtd"
   xmlns="http://www.w3.org/2000/svg"
   xmlns:svg="http://www.w3.org/2000/svg"
   xmlns:rdf="http://www.w3.org/1999/02/22-rdf-syntax-ns#"
   xmlns:cc="http://creativecommons.org/ns#"
   xmlns:dc="http://purl.org/dc/elements/1.1/">
  <sodipodi:namedview
     id="namedview1"
     pagecolor="#ffffff"
     bordercolor="#000000"
     borderopacity="0.25"
     inkscape:showpageshadow="2"
     inkscape:pageopacity="0.0"
     inkscape:pagecheckerboard="0"
     inkscape:deskcolor="#d1d1d1"
     inkscape:zoom="18.517359"
     inkscape:cx="7.9654988"
     inkscape:cy="6.3453973"
     inkscape:window-width="1311"
     inkscape:window-height="795"
     inkscape:window-x="107"
     inkscape:window-y="130"
     inkscape:window-maximized="0"
     inkscape:current-layer="svg3297" />
  <metadata
     id="metadata58">
    <rdf:RDF>
      <cc:Work
         rdf:about="">
        <dc:format>image/svg+xml</dc:format>
        <dc:type
           rdf:resource="http://purl.org/dc/dcmitype/StillImage" />
        <dc:title />
      </cc:Work>
    </rdf:RDF>
  </metadata>
  <defs
     id="defs3299" />
  <path
     fill="#f5f7fa"
     d="m 8.0112263,15.010196 c -3.8401879,0 -6.9532739,-3.066526 -6.9532739,-6.849276 0,-3.7827525 3.113086,-6.8492784 6.9532739,-6.8492784 3.8401827,0 6.9532717,3.0665259 6.9532717,6.8492784 0,3.78275 -3.113089,6.849276 -6.9532717,6.849276 z m 0,-3.805154 c 1.7067489,0 3.0903437,-1.3629032 3.0903437,-3.044122 0,-1.6812228 -1.3835948,-3.0441261 -3.0903437,-3.0441261 -1.70675,0 -3.090344,1.3629033 -3.090344,3.0441261 0,1.6812188 1.383594,3.044122 3.090344,3.044122 z m 0,-0.761031 c -1.2800632,0 -2.3177583,-1.0221745 -2.3177583,-2.283091 0,-1.2609189 1.0376951,-2.2830955 2.3177583,-2.2830955 1.2800612,0 2.3177577,1.0221766 2.3177577,2.2830955 0,1.2609165 -1.0376965,2.283091 -2.3177577,2.283091 z m 0,-0.7610323 c 0.8533733,0 1.5451706,-0.6814478 1.5451706,-1.5220587 0,-0.8406144 -0.6917973,-1.5220638 -1.5451706,-1.5220638 -0.8533764,0 -1.5451713,0.6814494 -1.5451713,1.5220638 0,0.8406109 0.6917949,1.5220587 1.5451713,1.5220587 z"
     id="path42"
     style="fill:#ffffff;fill-opacity:1;stroke:none;stroke-width:0.5;stroke-dasharray:none;stroke-opacity:0.3"
     sodipodi:nodetypes="ssssssssssssssssssss" />
</svg>
