<?xml version="1.0" encoding="UTF-8" standalone="no"?>
<svg
   width="64"
   height="64"
   version="1.1"
   viewBox="0 0 16.933 16.933"
   id="svg7"
   sodipodi:docname="network-wireless.svg"
   inkscape:version="1.4.2 (ebf0e940d0, 2025-05-08)"
   xmlns:inkscape="http://www.inkscape.org/namespaces/inkscape"
   xmlns:sodipodi="http://sodipodi.sourceforge.net/DTD/sodipodi-0.dtd"
   xmlns="http://www.w3.org/2000/svg"
   xmlns:svg="http://www.w3.org/2000/svg"
   xmlns:rdf="http://www.w3.org/1999/02/22-rdf-syntax-ns#"
   xmlns:cc="http://creativecommons.org/ns#"
   xmlns:dc="http://purl.org/dc/elements/1.1/">
  <sodipodi:namedview
     id="namedview7"
     pagecolor="#9c4444"
     bordercolor="#000000"
     borderopacity="0.25"
     inkscape:showpageshadow="2"
     inkscape:pageopacity="0.0"
     inkscape:pagecheckerboard="0"
     inkscape:deskcolor="#d1d1d1"
     inkscape:zoom="4.3531261"
     inkscape:cx="36.755195"
     inkscape:cy="25.958357"
     inkscape:window-width="1280"
     inkscape:window-height="669"
     inkscape:window-x="56"
     inkscape:window-y="135"
     inkscape:window-maximized="0"
     inkscape:current-layer="svg7"
     showgrid="false" />
  <defs
     id="defs2">
    <filter
       style="color-interpolation-filters:sRGB;"
       inkscape:label="Blur"
       id="filter3"
       x="-0.10843471"
       y="-0.10870992"
       width="1.2168694"
       height="1.2174198">
      <feGaussianBlur
         stdDeviation="0.5 0.5"
         result="blur"
         id="feGaussianBlur3" />
    </filter>
    <filter
       style="color-interpolation-filters:sRGB"
       inkscape:label="Blur"
       id="filter3-8"
       x="-0.10843471"
       y="-0.10870992"
       width="1.2168694"
       height="1.2174198">
      <feGaussianBlur
         stdDeviation="0.5 0.5"
         result="blur"
         id="feGaussianBlur3-7" />
    </filter>
  </defs>
  <metadata
     id="metadata2">
    <rdf:RDF>
      <cc:Work
         rdf:about="">
        <dc:format>image/svg+xml</dc:format>
        <dc:type
           rdf:resource="http://purl.org/dc/dcmitype/StillImage" />
      </cc:Work>
    </rdf:RDF>
  </metadata>
  <path
     id="path7250"
     style="fill:#ffffff;fill-opacity:1;stroke:none;stroke-width:0.105803;stroke-dasharray:none;stroke-opacity:1"
     d="M 8.62691,3.6470997 C 7.0929835,3.6284065 5.554335,3.9624321 4.1654385,4.6367929 3.1517206,5.1289901 2.2115655,5.7982734 1.4394844,6.5774716 L 1.2316034,6.7872081 2.0396323,7.5201718 2.8475376,8.2531366 3.0938784,8.0233665 C 3.2293253,7.8969928 3.3867161,7.7536219 3.4437274,7.7048044 5.8059063,5.6821398 9.1697133,5.2678162 11.956721,6.6562465 c 0.719534,0.3584584 1.295946,0.7645317 1.925346,1.3561133 L 14.140031,8.254744 14.947444,7.5215325 15.754853,6.7881975 15.52533,6.5569434 C 14.378295,5.4012971 12.952537,4.5503066 11.349404,4.064346 10.465915,3.7965341 9.5472668,3.6583147 8.62691,3.6470997 Z M 8.4924855,6.1903993 C 8.139991,6.1904211 7.7875734,6.2035448 7.5934392,6.2296009 5.9373675,6.451733 4.517893,7.1330438 3.3136324,8.2838049 3.2052345,8.3873858 3.1192715,8.4799658 3.1225691,8.4895839 c 0.00327,0.00964 0.367345,0.3451359 0.809018,0.7455781 L 4.7345457,9.9631786 4.8943211,9.8084729 C 5.6655373,9.0617674 6.7290889,8.5587606 7.8431199,8.4136527 c 0.3277067,-0.042659 0.9725439,-0.042643 1.2992273,1.44e-4 1.1142608,0.1458768 2.0545048,0.5812947 2.9021758,1.3439937 l 0.216659,0.1948963 0.04663,-0.041797 c 0.228204,-0.2039392 1.45744,-1.3164827 1.506119,-1.3631643 l 0.06282,-0.060227 -0.08397,-0.087553 C 13.464715,8.0578792 12.880704,7.5911952 12.417992,7.3012997 12.087548,7.0942725 11.47813,6.7918062 11.122969,6.6584876 10.595384,6.4604444 9.9815852,6.3083342 9.3920272,6.229493 9.1974889,6.2034757 8.8449821,6.1903933 8.4924862,6.1904146 Z m -0.046499,2.5216583 c -0.083318,8.796e-4 -0.1667516,0.00382 -0.2501752,0.00903 C 7.0417774,8.7933266 5.9905195,9.250365 5.1222353,10.057042 L 4.9786584,10.19035 5.78879,10.924796 c 0.4455443,0.403957 0.8132275,0.734872 0.8170566,0.735316 0.00383,4.38e-4 0.060879,-0.04566 0.1268789,-0.10252 0.991957,-0.854698 2.484189,-0.867864 3.4831555,-0.03066 l 0.162128,0.135911 0.09076,-0.08024 c 0.04993,-0.04414 0.416886,-0.375523 0.815448,-0.736309 l 0.72469,-0.655936 -0.165711,-0.155198 C 10.924184,9.1748995 9.6957548,8.6993023 8.4459865,8.7120576 Z m -0.019292,2.5337784 c -0.1356005,0.003 -0.2697511,0.01771 -0.399439,0.04512 -0.4121392,0.08716 -0.8252896,0.292864 -1.0930769,0.544376 l -0.066656,0.0627 0.8134702,0.738409 0.8134704,0.738527 0.4805633,-0.436913 C 9.23932,12.697803 9.6051094,12.366899 9.787881,12.20275 l 0.332288,-0.298398 -0.09955,-0.09339 C 9.6286501,11.443288 9.0143012,11.233207 8.4266945,11.245836 Z" />
</svg>
