<?xml version="1.0" encoding="UTF-8" standalone="no"?>
<svg
   width="64"
   height="64"
   version="1.1"
   viewBox="0 0 16.933 16.933"
   id="svg7"
   sodipodi:docname="phone.svg"
   inkscape:version="1.4.2 (ebf0e940d0, 2025-05-08)"
   xmlns:inkscape="http://www.inkscape.org/namespaces/inkscape"
   xmlns:sodipodi="http://sodipodi.sourceforge.net/DTD/sodipodi-0.dtd"
   xmlns="http://www.w3.org/2000/svg"
   xmlns:svg="http://www.w3.org/2000/svg"
   xmlns:rdf="http://www.w3.org/1999/02/22-rdf-syntax-ns#"
   xmlns:cc="http://creativecommons.org/ns#"
   xmlns:dc="http://purl.org/dc/elements/1.1/">
  <sodipodi:namedview
     id="namedview7"
     pagecolor="#9c4444"
     bordercolor="#000000"
     borderopacity="0.25"
     inkscape:showpageshadow="2"
     inkscape:pageopacity="0.0"
     inkscape:pagecheckerboard="0"
     inkscape:deskcolor="#d1d1d1"
     inkscape:zoom="4.3531261"
     inkscape:cx="36.755195"
     inkscape:cy="25.958357"
     inkscape:window-width="1280"
     inkscape:window-height="669"
     inkscape:window-x="56"
     inkscape:window-y="135"
     inkscape:window-maximized="0"
     inkscape:current-layer="svg7"
     showgrid="false" />
  <defs
     id="defs2">
    <filter
       style="color-interpolation-filters:sRGB;"
       inkscape:label="Blur"
       id="filter3"
       x="-0.10843471"
       y="-0.10870992"
       width="1.2168694"
       height="1.2174198">
      <feGaussianBlur
         stdDeviation="0.5 0.5"
         result="blur"
         id="feGaussianBlur3" />
    </filter>
    <filter
       style="color-interpolation-filters:sRGB"
       inkscape:label="Blur"
       id="filter3-8"
       x="-0.10843471"
       y="-0.10870992"
       width="1.2168694"
       height="1.2174198">
      <feGaussianBlur
         stdDeviation="0.5 0.5"
         result="blur"
         id="feGaussianBlur3-7" />
    </filter>
  </defs>
  <metadata
     id="metadata2">
    <rdf:RDF>
      <cc:Work
         rdf:about="">
        <dc:format>image/svg+xml</dc:format>
        <dc:type
           rdf:resource="http://purl.org/dc/dcmitype/StillImage" />
      </cc:Work>
    </rdf:RDF>
  </metadata>
  <path
     style="color:#444444;fill:#ffffff;fill-opacity:1;stroke:none;stroke-width:0.436873;stroke-dasharray:none;stroke-opacity:0.3"
     class="ColorScheme-Text"
     d="m 4.2814566,1.0164855 c -1.0566443,0 -1.0566443,1.0566438 -1.0566443,1.0566438 V 14.752861 c 0,0 0,1.056648 1.0566443,1.056648 h 8.4531554 c 1.056646,0 1.056646,-1.056648 1.056646,-1.056648 V 2.0731293 c 0,0 0,-1.0566438 -1.056646,-1.0566438 z m 1.056644,3.1699334 H 11.677969 V 12.639574 H 5.3381006 Z m 2.6416119,9.5097991 h 1.0566448 c 0,0 0.5283221,0 0.5283221,0.528322 0,0.528321 -0.5283221,0.528321 -0.5283221,0.528321 H 7.9797125 c 0,0 -0.5283221,0 -0.5283221,-0.528321 0,-0.528322 0.5283221,-0.528322 0.5283221,-0.528322 z"
     id="path5-6" />
</svg>
