/* XPM */
static char * maximize_toggled_active_xpm[] = {
"20 24 46 1",
" 	c #455D7C",
".	c #98B9E2",
"+	c #97B8E1",
"@	c #86ABD9",
"#	c #82A8D7",
"$	c #95B7E1",
"%	c #84A9D8",
"&	c #729BCD",
"*	c #48668A",
"=	c #7099CC",
"-	c #8BAFDC",
";	c #B2CCED",
">	c #7EA4D4",
",	c #9CBCE4",
"'	c #7FA5D5",
")	c #9EBDE5",
"!	c #9ABBE3",
"~	c #81A7D6",
"{	c #96B7E1",
"]	c #4E76A8",
"^	c #84A9D7",
"/	c #94B6E0",
"(	c #E1EAF6",
"_	c #85AAD8",
":	c #92B4DF",
"<	c #90B3DE",
"[	c #88ACDA",
"}	c #89AEDB",
"|	c #83A8D7",
"1	c #8BAFDB",
"2	c #80A6D6",
"3	c #8CB0DC",
"4	c #7EA5D4",
"5	c #8EB1DD",
"6	c #7CA3D3",
"7	c #8FB2DE",
"8	c #7AA1D2",
"9	c #91B3DF",
"0	c #789FD0",
"a	c #88ADDB",
"b	c #8DB1DD",
"c	c #648EC3",
"d	c #749DCF",
"e	c #7BA2D2",
"f	c #94B6E1",
"g	c #79A1D1",
"                    ",
"....................",
"++@##############@++",
"$%&**************&%$",
"%=*-;;;;;;;;;;;;-*=%",
">*@,,,,,,,,,,,,,,=*>",
"'*)!!!!!!!!!!!!!!@*'",
"~*)..............@*~",
"#*){{{]]]]]]]]{{{@*#",
"^*)///]((((((]///@*^",
"_*):::]((((((]:::@*_",
"@*)<<<](]]]](]<<<@*@",
"[*)___](]__](]___@*[",
"}*)|||](]]]](]|||@*}",
"1*)222]((((((]222@*1",
"3*)444]]]]]]]]444@*3",
"5*)66666666666666@*5",
"7*)88888888888888@*7",
"9*@00000000000000=*9",
"ab*cddddddddddddc*ba",
"6@-**************-@6",
"eebffffffffffffffbee",
"gggggggggggggggggggg",
"]]]]]]]]]]]]]]]]]]]]"};
