<?xml version="1.0" encoding="UTF-8" standalone="no"?>
<svg
   width="64"
   height="64"
   version="1.1"
   id="svg33319"
   sodipodi:docname="application-x-cd-image.svg"
   inkscape:version="1.3.2 (091e20ef0f, 2023-11-25)"
   xmlns:inkscape="http://www.inkscape.org/namespaces/inkscape"
   xmlns:sodipodi="http://sodipodi.sourceforge.net/DTD/sodipodi-0.dtd"
   xmlns:xlink="http://www.w3.org/1999/xlink"
   xmlns="http://www.w3.org/2000/svg"
   xmlns:svg="http://www.w3.org/2000/svg">
  <defs
     id="defs33323">
    <inkscape:path-effect
       effect="powerclip"
       id="path-effect865"
       is_visible="true"
       lpeversion="1"
       inverse="true"
       flatten="false"
       hide_clip="false"
       message="Use fill-rule evenodd on &lt;b&gt;fill and stroke&lt;/b&gt; dialog if no flatten result after convert clip to paths." />
    <clipPath
       clipPathUnits="userSpaceOnUse"
       id="clipPath861">
      <path
         style="display:block;fill:#4d4d4d"
         d="M 54,22 36,4 V 19.1875 C 36,20.74675 37.2555,22 38.8125,22 Z"
         id="path863" />
    </clipPath>
    <linearGradient
       id="linearGradient5"
       inkscape:collect="always">
      <stop
         style="stop-color:#984859;stop-opacity:1;"
         offset="0"
         id="stop5" />
      <stop
         style="stop-color:#bf7384;stop-opacity:1;"
         offset="1"
         id="stop6" />
    </linearGradient>
    <linearGradient
       inkscape:collect="always"
       xlink:href="#linearGradient5"
       id="linearGradient7"
       x1="27.406513"
       y1="4.3967676"
       x2="27.406511"
       y2="59.5186"
       gradientUnits="userSpaceOnUse" />
  </defs>
  <sodipodi:namedview
     id="namedview33321"
     pagecolor="#f5f7fa"
     bordercolor="#111111"
     borderopacity="1"
     inkscape:showpageshadow="0"
     inkscape:pageopacity="0"
     inkscape:pagecheckerboard="1"
     inkscape:deskcolor="#d1d1d1"
     showgrid="false"
     inkscape:zoom="6.4765626"
     inkscape:cx="32.424607"
     inkscape:cy="44.082026"
     inkscape:window-width="1489"
     inkscape:window-height="738"
     inkscape:window-x="82"
     inkscape:window-y="310"
     inkscape:window-maximized="0"
     inkscape:current-layer="svg33319" />
  <path
     style="fill:url(#linearGradient7);stroke:none;stroke-width:0.154403"
     d="M 11.917403,59.761824 C 11.179459,59.498639 10.778936,59.140209 10.405765,58.409046 10.122319,57.853682 10.11339,57.04836 10.11339,32.039792 c 0,-21.561044 0.0349,-25.8779679 0.212587,-26.2932435 0.25709,-0.6008565 0.942995,-1.2671612 1.534497,-1.4906461 0.293274,-0.1108065 4.271806,-0.1642257 12.23114,-0.1642257 h 11.796481 l 0.04389,7.9903493 c 0.049,8.920609 0.0017,8.533776 1.151006,9.410596 l 0.567032,0.432589 8.156894,0.04255 8.156894,0.04256 -0.0034,17.79098 c -0.0032,16.92671 -0.01716,17.821294 -0.286835,18.41498 -0.345901,0.761496 -1.069536,1.394733 -1.837609,1.608047 -0.381489,0.10595 -7.078004,0.157491 -19.951779,0.15356 -15.942184,-0.0049 -19.482026,-0.04317 -19.966795,-0.216062 z"
     id="path3" />
  <path
     fill="#f5f7fa"
     d="m 32.112727,52.355547 c -5.783723,0 -10.472354,-4.559066 -10.472354,-10.182961 0,-5.623898 4.688631,-10.182968 10.472354,-10.182968 5.783713,0 10.472351,4.55907 10.472351,10.182968 0,5.623895 -4.688638,10.182961 -10.472351,10.182961 z m 0,-18.103051 c -4.498451,0 -8.145164,3.545948 -8.145164,7.92009 0,0.312435 0.260479,0.565718 0.581797,0.565718 0.321319,0 0.581798,-0.253277 0.581798,-0.565718 0,-3.749266 3.125753,-6.788648 6.981569,-6.788648 0.321317,0 0.581797,-0.253283 0.581797,-0.565716 0,-0.312442 -0.260471,-0.565726 -0.581797,-0.565726 z m 0,12.445852 c 2.570541,0 4.654381,-2.026254 4.654381,-4.525763 0,-2.499508 -2.08384,-4.525766 -4.654381,-4.525766 -2.570545,0 -4.65438,2.026258 -4.65438,4.525766 0,2.499509 2.083835,4.525763 4.65438,4.525763 z m 0,-1.131443 c -1.927908,0 -3.490785,-1.519688 -3.490785,-3.39432 0,-1.874633 1.562877,-3.394325 3.490785,-3.394325 1.927904,0 3.490787,1.519693 3.490787,3.394325 0,1.874632 -1.562883,3.39432 -3.490787,3.39432 z m 0,-1.131439 c 1.285269,0 2.327187,-1.013125 2.327187,-2.262881 0,-1.249757 -1.041918,-2.262884 -2.327187,-2.262884 -1.285274,0 -2.32719,1.013127 -2.32719,2.262884 0,1.249756 1.041916,2.262881 2.32719,2.262881 z"
     id="path42-3"
     style="opacity:0.2;fill:#000000;fill-opacity:1;stroke:none;stroke-width:0.999997;stroke-dasharray:none;stroke-opacity:0.3" />
  <path
     fill="#f5f7fa"
     d="m 32.112727,50.355547 c -5.783723,0 -10.472354,-4.559066 -10.472354,-10.182961 0,-5.623898 4.688631,-10.182968 10.472354,-10.182968 5.783713,0 10.472351,4.55907 10.472351,10.182968 0,5.623895 -4.688638,10.182961 -10.472351,10.182961 z m 0,-18.103051 c -4.498451,0 -8.145164,3.545948 -8.145164,7.92009 0,0.312435 0.260479,0.565718 0.581797,0.565718 0.321319,0 0.581798,-0.253277 0.581798,-0.565718 0,-3.749266 3.125753,-6.788648 6.981569,-6.788648 0.321317,0 0.581797,-0.253283 0.581797,-0.565716 0,-0.312442 -0.260471,-0.565726 -0.581797,-0.565726 z m 0,12.445852 c 2.570541,0 4.654381,-2.026254 4.654381,-4.525763 0,-2.499508 -2.08384,-4.525766 -4.654381,-4.525766 -2.570545,0 -4.65438,2.026258 -4.65438,4.525766 0,2.499509 2.083835,4.525763 4.65438,4.525763 z m 0,-1.131443 c -1.927908,0 -3.490785,-1.519688 -3.490785,-3.39432 0,-1.874633 1.562877,-3.394325 3.490785,-3.394325 1.927904,0 3.490787,1.519693 3.490787,3.394325 0,1.874632 -1.562883,3.39432 -3.490787,3.39432 z m 0,-1.131439 c 1.285269,0 2.327187,-1.013125 2.327187,-2.262881 0,-1.249757 -1.041918,-2.262884 -2.327187,-2.262884 -1.285274,0 -2.32719,1.013127 -2.32719,2.262884 0,1.249756 1.041916,2.262881 2.32719,2.262881 z"
     id="path42"
     style="fill:#f9f9f9;fill-opacity:1;stroke:none;stroke-width:0.999997;stroke-dasharray:none;stroke-opacity:0.3" />
  <g
     aria-label="LOG"
     id="text1753"
     style="font-size:2.82217px;line-height:0;font-family:Cantarell;-inkscape-font-specification:Cantarell;letter-spacing:0.206371px;fill:none;stroke:#f5f7fa;stroke-width:0.264578"
     transform="matrix(3.7796,0,0,3.7796,-5.9345184,4.2355253)" />
  <path
     style="fill:#4d4d4d;stroke:none;stroke-width:0.154403;fill-opacity:1"
     d="m 39.590998,20.156415 c -0.690035,-0.209116 -1.228957,-0.650625 -1.541155,-1.262583 -0.287722,-0.563982 -0.299652,-0.90836 -0.26131,-7.542767 l 0.04018,-6.9518043 7.951187,7.9523603 7.951187,7.95236 -6.870367,-0.01327 c -3.778701,-0.0073 -7.050075,-0.06773 -7.269718,-0.134295 z"
     id="path4" />
</svg>
