<?xml version="1.0" encoding="UTF-8" standalone="no"?>
<svg
   width="64"
   height="64"
   version="1.1"
   id="svg33319"
   sodipodi:docname="application-acad.svg"
   inkscape:version="1.3.2 (091e20ef0f, 2023-11-25)"
   xmlns:inkscape="http://www.inkscape.org/namespaces/inkscape"
   xmlns:sodipodi="http://sodipodi.sourceforge.net/DTD/sodipodi-0.dtd"
   xmlns:xlink="http://www.w3.org/1999/xlink"
   xmlns="http://www.w3.org/2000/svg"
   xmlns:svg="http://www.w3.org/2000/svg">
  <defs
     id="defs33323">
    <inkscape:path-effect
       effect="powerclip"
       id="path-effect865"
       is_visible="true"
       lpeversion="1"
       inverse="true"
       flatten="false"
       hide_clip="false"
       message="Use fill-rule evenodd on &lt;b&gt;fill and stroke&lt;/b&gt; dialog if no flatten result after convert clip to paths." />
    <clipPath
       clipPathUnits="userSpaceOnUse"
       id="clipPath861">
      <path
         style="display:block;fill:#4d4d4d"
         d="M 54,22 36,4 V 19.1875 C 36,20.74675 37.2555,22 38.8125,22 Z"
         id="path863" />
    </clipPath>
    <linearGradient
       id="linearGradient5"
       inkscape:collect="always">
      <stop
         style="stop-color:#984859;stop-opacity:1;"
         offset="0"
         id="stop5" />
      <stop
         style="stop-color:#bf7384;stop-opacity:1;"
         offset="1"
         id="stop6" />
    </linearGradient>
    <linearGradient
       inkscape:collect="always"
       xlink:href="#linearGradient5"
       id="linearGradient7"
       x1="27.406513"
       y1="4.3967676"
       x2="27.406511"
       y2="59.5186"
       gradientUnits="userSpaceOnUse" />
  </defs>
  <sodipodi:namedview
     id="namedview33321"
     pagecolor="#f5f7fa"
     bordercolor="#111111"
     borderopacity="1"
     inkscape:showpageshadow="0"
     inkscape:pageopacity="0"
     inkscape:pagecheckerboard="1"
     inkscape:deskcolor="#d1d1d1"
     showgrid="false"
     inkscape:zoom="6.4765626"
     inkscape:cx="32.424607"
     inkscape:cy="44.082026"
     inkscape:window-width="1489"
     inkscape:window-height="738"
     inkscape:window-x="82"
     inkscape:window-y="310"
     inkscape:window-maximized="0"
     inkscape:current-layer="svg33319" />
  <path
     style="fill:url(#linearGradient7);stroke:none;stroke-width:0.154403"
     d="M 11.917403,59.761824 C 11.179459,59.498639 10.778936,59.140209 10.405765,58.409046 10.122319,57.853682 10.11339,57.04836 10.11339,32.039792 c 0,-21.561044 0.0349,-25.8779679 0.212587,-26.2932435 0.25709,-0.6008565 0.942995,-1.2671612 1.534497,-1.4906461 0.293274,-0.1108065 4.271806,-0.1642257 12.23114,-0.1642257 h 11.796481 l 0.04389,7.9903493 c 0.049,8.920609 0.0017,8.533776 1.151006,9.410596 l 0.567032,0.432589 8.156894,0.04255 8.156894,0.04256 -0.0034,17.79098 c -0.0032,16.92671 -0.01716,17.821294 -0.286835,18.41498 -0.345901,0.761496 -1.069536,1.394733 -1.837609,1.608047 -0.381489,0.10595 -7.078004,0.157491 -19.951779,0.15356 -15.942184,-0.0049 -19.482026,-0.04317 -19.966795,-0.216062 z"
     id="path3" />
  <path
     fill="#f5f7fa"
     d="m 36.279664,40.865508 c -0.713018,-0.260027 -1.215397,-0.866371 -1.215397,-1.580099 0,-0.714782 0.503588,-1.321134 1.216607,-1.580098 0.09442,-0.03474 0.152523,-0.120004 0.128306,-0.207369 -0.215467,-0.771638 -0.56653,-1.496945 -1.030172,-2.155933 -0.05326,-0.0758 -0.163422,-0.101063 -0.259061,-0.06632 -0.715437,0.254755 -1.564035,0.135802 -2.145104,-0.369496 -0.581067,-0.505291 -0.717858,-1.24218 -0.424905,-1.864323 0.03873,-0.08211 0.01103,-0.177906 -0.07626,-0.225276 -0.759014,-0.403182 -1.593084,-0.708464 -2.480419,-0.895846 -0.100478,-0.02103 -0.198531,0.02945 -0.23848,0.111588 -0.297797,0.621092 -0.996285,1.060066 -1.818251,1.060066 -0.820755,0 -1.518035,-0.437923 -1.817041,-1.057959 -0.03995,-0.08211 -0.138002,-0.132641 -0.238479,-0.111589 -0.887337,0.188435 -1.722618,0.494765 -2.480424,0.899002 -0.08716,0.04633 -0.113792,0.141063 -0.07626,0.222118 0.291744,0.622143 0.15495,1.359031 -0.426114,1.864327 -0.579855,0.504241 -1.426032,0.624246 -2.140259,0.371599 -0.09443,-0.03371 -0.202166,-0.0095 -0.255424,0.06632 -0.463644,0.660042 -0.814704,1.386402 -1.028972,2.15803 -0.02421,0.08631 0.0339,0.172628 0.128319,0.207369 0.710595,0.260027 1.212976,0.866367 1.212976,1.579044 0,0.712675 -0.499959,1.316923 -1.209344,1.577991 -0.09443,0.03474 -0.152529,0.120004 -0.128319,0.207369 0.215479,0.77163 0.56896,1.496936 1.033812,2.156979 0.05326,0.07474 0.161004,0.09893 0.255429,0.06633 0.714226,-0.251577 1.559194,-0.130522 2.137837,0.372656 0.578645,0.502137 0.716647,1.236919 0.428536,1.856955 -0.03754,0.08212 -0.0097,0.175791 0.07626,0.222141 0.759019,0.404237 1.594301,0.709519 2.481636,0.896901 0.09926,0.02112 0.198531,-0.0297 0.238479,-0.111591 0.300218,-0.616882 0.996286,-1.051649 1.814619,-1.051649 0.819545,0 1.514404,0.434767 1.814621,1.051649 0.03995,0.0821 0.138002,0.132653 0.238479,0.111591 0.887336,-0.187394 1.722617,-0.492664 2.481633,-0.896901 0.08716,-0.04632 0.113795,-0.140031 0.07625,-0.222141 -0.290534,-0.62109 -0.152522,-1.356926 0.427324,-1.861165 0.579859,-0.504244 1.427248,-0.623195 2.141472,-0.370552 0.09445,0.0337 0.202149,0.0095 0.255419,-0.06633 0.464849,-0.660034 0.81712,-1.385346 1.032602,-2.158023 0.02174,-0.08736 -0.03631,-0.172661 -0.13198,-0.20737 z m -8.338296,2.103284 c -2.336368,0 -4.236935,-1.652732 -4.236935,-3.684438 0,-2.031699 1.900567,-3.684436 4.236935,-3.684436 2.336368,0 4.236937,1.652737 4.236937,3.684436 0,2.031706 -1.900569,3.684438 -4.236937,3.684438 z m 16.937451,5.622925 c -0.0052,0.05787 -0.05899,0.101553 -0.124266,0.105897 -0.498403,0.04255 -0.944077,0.334065 -1.101003,0.777292 -0.1569,0.442148 0.02266,0.901756 0.406754,1.181232 0.0515,0.03714 0.06779,0.09938 0.03389,0.149552 -0.302566,0.443235 -0.680438,0.834069 -1.113555,1.165945 -0.05021,0.03824 -0.121755,0.03494 -0.173247,-0.0012 -0.387923,-0.275105 -0.939054,-0.341708 -1.408577,-0.125551 -0.469533,0.216139 -0.71559,0.648475 -0.672907,1.081882 0.0061,0.05788 -0.03137,0.111344 -0.09543,0.125551 -0.55866,0.123347 -1.14243,0.174657 -1.733732,0.143002 -0.06653,-0.0036 -0.116765,-0.05021 -0.123041,-0.108069 -0.05147,-0.43232 -0.386674,-0.8166 -0.893859,-0.953065 -0.508446,-0.13648 -1.034463,0.01837 -1.355858,0.350444 -0.04268,0.04477 -0.114223,0.05897 -0.171992,0.0297 -0.509697,-0.264206 -0.95914,-0.591705 -1.340787,-0.968342 -0.04393,-0.0437 -0.04016,-0.105897 0.0012,-0.150685 0.313857,-0.336248 0.390437,-0.814421 0.141869,-1.221624 -0.248591,-0.4083 -0.745717,-0.623368 -1.242864,-0.586252 -0.06527,0.0056 -0.126806,-0.02725 -0.143123,-0.08296 -0.143125,-0.486899 -0.20212,-0.994541 -0.166974,-1.508738 0.0037,-0.05788 0.05774,-0.101552 0.124297,-0.106999 0.497147,-0.04481 0.939055,-0.336316 1.09598,-0.777365 0.156931,-0.442144 -0.02143,-0.900661 -0.404244,-1.180138 -0.05023,-0.03714 -0.06779,-0.09935 -0.03389,-0.149553 0.30131,-0.442145 0.679179,-0.834068 1.11104,-1.165945 0.05023,-0.03824 0.121786,-0.03494 0.173249,0.0012 0.386674,0.275104 0.937798,0.341707 1.407327,0.125551 0.470785,-0.21614 0.716844,-0.650658 0.67291,-1.084069 -0.0061,-0.05676 0.03135,-0.111344 0.09542,-0.125552 0.558661,-0.124447 1.143686,-0.175758 1.734986,-0.145173 0.06653,0.0035 0.116763,0.0513 0.12304,0.109205 0.04898,0.434501 0.385414,0.820963 0.893859,0.957428 0.509699,0.13648 1.038228,-0.0196 1.359613,-0.354807 0.04268,-0.04365 0.114224,-0.05896 0.171995,-0.0297 0.509701,0.263103 0.959141,0.591707 1.340788,0.967252 0.04393,0.04256 0.04142,0.107 -0.0011,0.151757 -0.317625,0.337338 -0.394208,0.8166 -0.145604,1.22599 0.248562,0.409396 0.748231,0.624458 1.247886,0.585156 0.06653,-0.0056 0.129287,0.02817 0.145603,0.08404 0.14187,0.485816 0.200864,0.993461 0.164463,1.507657 z m -6.449077,1.983638 c 1.447497,0.387556 2.989146,-0.320967 3.43482,-1.579707 0.445675,-1.258739 -0.369095,-2.599361 -1.816588,-2.986917 -1.447496,-0.387558 -2.989152,0.320965 -3.434827,1.579703 -0.445674,1.258745 0.369099,2.599365 1.816595,2.986921 z"
     id="path42-3-6"
     style="fill:#000000;fill-opacity:1;stroke:none;stroke-width:0.999997;stroke-dasharray:none;stroke-opacity:0.3;opacity:0.2" />
  <path
     fill="#f5f7fa"
     d="m 36.279664,38.865508 c -0.713018,-0.260027 -1.215397,-0.866371 -1.215397,-1.580099 0,-0.714782 0.503588,-1.321134 1.216607,-1.580098 0.09442,-0.03474 0.152523,-0.120004 0.128306,-0.207369 -0.215467,-0.771638 -0.56653,-1.496945 -1.030172,-2.155933 -0.05326,-0.0758 -0.163422,-0.101063 -0.259061,-0.06632 -0.715437,0.254755 -1.564035,0.135802 -2.145104,-0.369496 -0.581067,-0.505291 -0.717858,-1.24218 -0.424905,-1.864323 0.03873,-0.08211 0.01103,-0.177906 -0.07626,-0.225276 -0.759014,-0.403182 -1.593084,-0.708464 -2.480419,-0.895846 -0.100478,-0.02103 -0.198531,0.02945 -0.23848,0.111588 -0.297797,0.621092 -0.996285,1.060066 -1.818251,1.060066 -0.820755,0 -1.518035,-0.437923 -1.817041,-1.057959 -0.03995,-0.08211 -0.138002,-0.132641 -0.238479,-0.111589 -0.887337,0.188435 -1.722618,0.494765 -2.480424,0.899002 -0.08716,0.04633 -0.113792,0.141063 -0.07626,0.222118 0.291744,0.622143 0.15495,1.359031 -0.426114,1.864327 -0.579855,0.504241 -1.426032,0.624246 -2.140259,0.371599 -0.09443,-0.03371 -0.202166,-0.0095 -0.255424,0.06632 -0.463644,0.660042 -0.814704,1.386402 -1.028972,2.15803 -0.02421,0.08631 0.0339,0.172628 0.128319,0.207369 0.710595,0.260027 1.212976,0.866367 1.212976,1.579044 0,0.712675 -0.499959,1.316923 -1.209344,1.577991 -0.09443,0.03474 -0.152529,0.120004 -0.128319,0.207369 0.215479,0.77163 0.56896,1.496936 1.033812,2.156979 0.05326,0.07474 0.161004,0.09893 0.255429,0.06633 0.714226,-0.251577 1.559194,-0.130522 2.137837,0.372656 0.578645,0.502137 0.716647,1.236919 0.428536,1.856955 -0.03754,0.08212 -0.0097,0.175791 0.07626,0.222141 0.759019,0.404237 1.594301,0.709519 2.481636,0.896901 0.09926,0.02112 0.198531,-0.0297 0.238479,-0.111591 0.300218,-0.616882 0.996286,-1.051649 1.814619,-1.051649 0.819545,0 1.514404,0.434767 1.814621,1.051649 0.03995,0.0821 0.138002,0.132653 0.238479,0.111591 0.887336,-0.187394 1.722617,-0.492664 2.481633,-0.896901 0.08716,-0.04632 0.113795,-0.140031 0.07625,-0.222141 -0.290534,-0.62109 -0.152522,-1.356926 0.427324,-1.861165 0.579859,-0.504244 1.427248,-0.623195 2.141472,-0.370552 0.09445,0.0337 0.202149,0.0095 0.255419,-0.06633 0.464849,-0.660034 0.81712,-1.385346 1.032602,-2.158023 0.02174,-0.08736 -0.03631,-0.172661 -0.13198,-0.20737 z m -8.338296,2.103284 c -2.336368,0 -4.236935,-1.652732 -4.236935,-3.684438 0,-2.031699 1.900567,-3.684436 4.236935,-3.684436 2.336368,0 4.236937,1.652737 4.236937,3.684436 0,2.031706 -1.900569,3.684438 -4.236937,3.684438 z m 16.937451,5.622925 c -0.0052,0.05787 -0.05899,0.101553 -0.124266,0.105897 -0.498403,0.04255 -0.944077,0.334065 -1.101003,0.777292 -0.1569,0.442148 0.02266,0.901756 0.406754,1.181232 0.0515,0.03714 0.06779,0.09938 0.03389,0.149552 -0.302566,0.443235 -0.680438,0.834069 -1.113555,1.165945 -0.05021,0.03824 -0.121755,0.03494 -0.173247,-0.0012 -0.387923,-0.275105 -0.939054,-0.341708 -1.408577,-0.125551 -0.469533,0.216139 -0.71559,0.648475 -0.672907,1.081882 0.0061,0.05788 -0.03137,0.111344 -0.09543,0.125551 -0.55866,0.123347 -1.14243,0.174657 -1.733732,0.143002 -0.06653,-0.0036 -0.116765,-0.05021 -0.123041,-0.108069 -0.05147,-0.43232 -0.386674,-0.8166 -0.893859,-0.953065 -0.508446,-0.13648 -1.034463,0.01837 -1.355858,0.350444 -0.04268,0.04477 -0.114223,0.05897 -0.171992,0.0297 -0.509697,-0.264206 -0.95914,-0.591705 -1.340787,-0.968342 -0.04393,-0.0437 -0.04016,-0.105897 0.0012,-0.150685 0.313857,-0.336248 0.390437,-0.814421 0.141869,-1.221624 -0.248591,-0.4083 -0.745717,-0.623368 -1.242864,-0.586252 -0.06527,0.0056 -0.126806,-0.02725 -0.143123,-0.08296 -0.143125,-0.486899 -0.20212,-0.994541 -0.166974,-1.508738 0.0037,-0.05788 0.05774,-0.101552 0.124297,-0.106999 0.497147,-0.04481 0.939055,-0.336316 1.09598,-0.777365 0.156931,-0.442144 -0.02143,-0.900661 -0.404244,-1.180138 -0.05023,-0.03714 -0.06779,-0.09935 -0.03389,-0.149553 0.30131,-0.442145 0.679179,-0.834068 1.11104,-1.165945 0.05023,-0.03824 0.121786,-0.03494 0.173249,0.0012 0.386674,0.275104 0.937798,0.341707 1.407327,0.125551 0.470785,-0.21614 0.716844,-0.650658 0.67291,-1.084069 -0.0061,-0.05676 0.03135,-0.111344 0.09542,-0.125552 0.558661,-0.124447 1.143686,-0.175758 1.734986,-0.145173 0.06653,0.0035 0.116763,0.0513 0.12304,0.109205 0.04898,0.434501 0.385414,0.820963 0.893859,0.957428 0.509699,0.13648 1.038228,-0.0196 1.359613,-0.354807 0.04268,-0.04365 0.114224,-0.05896 0.171995,-0.0297 0.509701,0.263103 0.959141,0.591707 1.340788,0.967252 0.04393,0.04256 0.04142,0.107 -0.0011,0.151757 -0.317625,0.337338 -0.394208,0.8166 -0.145604,1.22599 0.248562,0.409396 0.748231,0.624458 1.247886,0.585156 0.06653,-0.0056 0.129287,0.02817 0.145603,0.08404 0.14187,0.485816 0.200864,0.993461 0.164463,1.507657 z m -6.449077,1.983638 c 1.447497,0.387556 2.989146,-0.320967 3.43482,-1.579707 0.445675,-1.258739 -0.369095,-2.599361 -1.816588,-2.986917 -1.447496,-0.387558 -2.989152,0.320965 -3.434827,1.579703 -0.445674,1.258745 0.369099,2.599365 1.816595,2.986921 z"
     id="path42-3"
     style="fill:#f9f9f9;fill-opacity:1;stroke:none;stroke-width:0.999997;stroke-dasharray:none;stroke-opacity:0.3" />
  <g
     aria-label="LOG"
     id="text1753"
     style="font-size:2.82217px;line-height:0;font-family:Cantarell;-inkscape-font-specification:Cantarell;letter-spacing:0.206371px;fill:none;stroke:#f5f7fa;stroke-width:0.264578"
     transform="matrix(3.7796,0,0,3.7796,-5.9345184,4.2355253)" />
  <path
     style="fill:#4d4d4d;stroke:none;stroke-width:0.154403;fill-opacity:1"
     d="m 39.590998,20.156415 c -0.690035,-0.209116 -1.228957,-0.650625 -1.541155,-1.262583 -0.287722,-0.563982 -0.299652,-0.90836 -0.26131,-7.542767 l 0.04018,-6.9518043 7.951187,7.9523603 7.951187,7.95236 -6.870367,-0.01327 c -3.778701,-0.0073 -7.050075,-0.06773 -7.269718,-0.134295 z"
     id="path4" />
</svg>
