<?xml version="1.0" encoding="UTF-8" standalone="no"?>
<svg
   width="64"
   height="64"
   version="1.1"
   id="svg33319"
   sodipodi:docname="application-acad.svg"
   inkscape:version="1.3.2 (091e20ef0f, 2023-11-25)"
   xmlns:inkscape="http://www.inkscape.org/namespaces/inkscape"
   xmlns:sodipodi="http://sodipodi.sourceforge.net/DTD/sodipodi-0.dtd"
   xmlns:xlink="http://www.w3.org/1999/xlink"
   xmlns="http://www.w3.org/2000/svg"
   xmlns:svg="http://www.w3.org/2000/svg">
  <defs
     id="defs33323">
    <inkscape:path-effect
       effect="powerclip"
       id="path-effect865"
       is_visible="true"
       lpeversion="1"
       inverse="true"
       flatten="false"
       hide_clip="false"
       message="Use fill-rule evenodd on &lt;b&gt;fill and stroke&lt;/b&gt; dialog if no flatten result after convert clip to paths." />
    <clipPath
       clipPathUnits="userSpaceOnUse"
       id="clipPath861">
      <path
         style="display:block;fill:#4d4d4d"
         d="M 54,22 36,4 V 19.1875 C 36,20.74675 37.2555,22 38.8125,22 Z"
         id="path863" />
    </clipPath>
    <linearGradient
       id="linearGradient5"
       inkscape:collect="always">
      <stop
         style="stop-color:#984859;stop-opacity:1;"
         offset="0"
         id="stop5" />
      <stop
         style="stop-color:#bf7384;stop-opacity:1;"
         offset="1"
         id="stop6" />
    </linearGradient>
    <linearGradient
       inkscape:collect="always"
       xlink:href="#linearGradient5"
       id="linearGradient7"
       x1="27.406513"
       y1="4.3967676"
       x2="27.406511"
       y2="59.5186"
       gradientUnits="userSpaceOnUse" />
  </defs>
  <sodipodi:namedview
     id="namedview33321"
     pagecolor="#f5f7fa"
     bordercolor="#111111"
     borderopacity="1"
     inkscape:showpageshadow="0"
     inkscape:pageopacity="0"
     inkscape:pagecheckerboard="1"
     inkscape:deskcolor="#d1d1d1"
     showgrid="false"
     inkscape:zoom="6.4765626"
     inkscape:cx="32.424607"
     inkscape:cy="44.082026"
     inkscape:window-width="1489"
     inkscape:window-height="738"
     inkscape:window-x="82"
     inkscape:window-y="310"
     inkscape:window-maximized="0"
     inkscape:current-layer="svg33319" />
  <path
     style="fill:url(#linearGradient7);stroke:none;stroke-width:0.154403"
     d="M 11.917403,59.761824 C 11.179459,59.498639 10.778936,59.140209 10.405765,58.409046 10.122319,57.853682 10.11339,57.04836 10.11339,32.039792 c 0,-21.561044 0.0349,-25.8779679 0.212587,-26.2932435 0.25709,-0.6008565 0.942995,-1.2671612 1.534497,-1.4906461 0.293274,-0.1108065 4.271806,-0.1642257 12.23114,-0.1642257 h 11.796481 l 0.04389,7.9903493 c 0.049,8.920609 0.0017,8.533776 1.151006,9.410596 l 0.567032,0.432589 8.156894,0.04255 8.156894,0.04256 -0.0034,17.79098 c -0.0032,16.92671 -0.01716,17.821294 -0.286835,18.41498 -0.345901,0.761496 -1.069536,1.394733 -1.837609,1.608047 -0.381489,0.10595 -7.078004,0.157491 -19.951779,0.15356 -15.942184,-0.0049 -19.482026,-0.04317 -19.966795,-0.216062 z"
     id="path3" />
  <path
     fill="#fbfbfb"
     color-rendering="auto"
     color-interpolation-filters="linearRGB"
     shape-rendering="auto"
     image-rendering="auto"
     text-rendering="auto"
     color-interpolation="sRGB"
     color="#4d4d4d"
     d="M 26.5,31 A 5.5,5.5 0 0 0 21,36.5 5.5,5.5 0 0 0 21.01367,36.755859 3,3 0 0 0 21,37 3,3 0 0 0 21.341797,38.386719 5.5,5.5 0 0 0 26.5,42 5.5,5.5 0 0 0 32,36.5 5.5,5.5 0 0 0 26.5,31 M 32,36.5 A 5.5,5.5 0 0 0 32.01367,36.755859 3,3 0 0 0 32,37 3,3 0 0 0 32.3418,38.386719 5.5,5.5 0 0 0 37.5,42 5.5,5.5 0 0 0 43,36.5 5.5,5.5 0 0 0 37.5,31 5.5,5.5 0 0 0 32,36.5 M 26.5,32 A 4.5,4.5 0 0 1 31,36.5 4.5,4.5 0 0 1 26.5,41 4.5,4.5 0 0 1 23.646484,39.976562 3,3 0 0 0 24,40 3,3 0 0 0 27,37 3,3 0 0 0 24,34 3,3 0 0 0 22.527344,34.390625 4.5,4.5 0 0 1 26.5,32 m 11,0 A 4.5,4.5 0 0 1 42,36.5 4.5,4.5 0 0 1 37.5,41 4.5,4.5 0 0 1 34.646484,39.976562 3,3 0 0 0 35,40 3,3 0 0 0 38,37 3,3 0 0 0 35,34 3,3 0 0 0 33.527344,34.390625 4.5,4.5 0 0 1 37.5,32 m 3.086,12.871 C 38.501,45.584 35.34,45.999 32,46 29.24,45.999 26.574,45.714 24.545,45.2 l -0.67,0.738 c 0.928,0.282 1.997,0.505 3.125,0.679 V 50 a 3,3 0 0 0 3,3 3,3 0 0 0 2.5,-1.345703 A 3,3 0 0 0 35,53 3,3 0 0 0 38,50 v -3.543 c 1.24,-0.237 2.37,-0.551 3.3,-0.932 z M 37,46.631 V 50 a 2,2 0 0 1 -2,2 2,2 0 0 1 -2,-2 v -3.02 c 1.395,-0.039 2.747,-0.157 4,-0.349 m -9,0.129 c 1.28,0.151 2.622,0.239 4,0.24 v 3 a 2,2 0 0 1 -2,2 2,2 0 0 1 -2,-2 z"
     id="path9-5"
     style="fill:#000000;opacity:0.2" />
  <path
     fill="#fbfbfb"
     color-rendering="auto"
     color-interpolation-filters="linearRGB"
     shape-rendering="auto"
     image-rendering="auto"
     text-rendering="auto"
     color-interpolation="sRGB"
     color="#4d4d4d"
     d="M 26.5,29 A 5.5,5.5 0 0 0 21,34.5 5.5,5.5 0 0 0 21.01367,34.755859 3,3 0 0 0 21,35 3,3 0 0 0 21.341797,36.386719 5.5,5.5 0 0 0 26.5,40 5.5,5.5 0 0 0 32,34.5 5.5,5.5 0 0 0 26.5,29 M 32,34.5 A 5.5,5.5 0 0 0 32.01367,34.755859 3,3 0 0 0 32,35 3,3 0 0 0 32.3418,36.386719 5.5,5.5 0 0 0 37.5,40 5.5,5.5 0 0 0 43,34.5 5.5,5.5 0 0 0 37.5,29 5.5,5.5 0 0 0 32,34.5 M 26.5,30 A 4.5,4.5 0 0 1 31,34.5 4.5,4.5 0 0 1 26.5,39 4.5,4.5 0 0 1 23.646484,37.976562 3,3 0 0 0 24,38 3,3 0 0 0 27,35 3,3 0 0 0 24,32 3,3 0 0 0 22.527344,32.390625 4.5,4.5 0 0 1 26.5,30 m 11,0 A 4.5,4.5 0 0 1 42,34.5 4.5,4.5 0 0 1 37.5,39 4.5,4.5 0 0 1 34.646484,37.976562 3,3 0 0 0 35,38 3,3 0 0 0 38,35 3,3 0 0 0 35,32 3,3 0 0 0 33.527344,32.390625 4.5,4.5 0 0 1 37.5,30 m 3.086,12.871 C 38.501,43.584 35.34,43.999 32,44 29.24,43.999 26.574,43.714 24.545,43.2 l -0.67,0.738 c 0.928,0.282 1.997,0.505 3.125,0.679 V 48 a 3,3 0 0 0 3,3 3,3 0 0 0 2.5,-1.345703 A 3,3 0 0 0 35,51 3,3 0 0 0 38,48 v -3.543 c 1.24,-0.237 2.37,-0.551 3.3,-0.932 z M 37,44.631 V 48 a 2,2 0 0 1 -2,2 2,2 0 0 1 -2,-2 v -3.02 c 1.395,-0.039 2.747,-0.157 4,-0.349 m -9,0.129 c 1.28,0.151 2.622,0.239 4,0.24 v 3 a 2,2 0 0 1 -2,2 2,2 0 0 1 -2,-2 z"
     id="path9"
     style="fill:#f9f9f9" />
  <g
     aria-label="LOG"
     id="text1753"
     style="font-size:2.82217px;line-height:0;font-family:Cantarell;-inkscape-font-specification:Cantarell;letter-spacing:0.206371px;fill:none;stroke:#f5f7fa;stroke-width:0.264578"
     transform="matrix(3.7796,0,0,3.7796,-5.9345184,4.2355253)" />
  <path
     style="fill:#4d4d4d;stroke:none;stroke-width:0.154403;fill-opacity:1"
     d="m 39.590998,20.156415 c -0.690035,-0.209116 -1.228957,-0.650625 -1.541155,-1.262583 -0.287722,-0.563982 -0.299652,-0.90836 -0.26131,-7.542767 l 0.04018,-6.9518043 7.951187,7.9523603 7.951187,7.95236 -6.870367,-0.01327 c -3.778701,-0.0073 -7.050075,-0.06773 -7.269718,-0.134295 z"
     id="path4" />
</svg>
