<svg xmlns="http://www.w3.org/2000/svg" width="16" height="16" version="1.1"><defs><linearGradient id="linear0" x1="0%" x2="0%" y1="0%" y2="100%"><stop offset="0%" style="stop-color:#00b54e; stop-opacity:1"/><stop offset="50%" style="stop-color:#ffd000; stop-opacity:1"/><stop offset="100%" style="stop-color:#ff00bb; stop-opacity:1"/></linearGradient></defs>
 <path fill="url(#linear0)" class="ColorScheme-Highlight warning" d="M 8 1 C 6.175 2.725 3 4 2 4.25 C 2 9 4.25 14.25 8 15 C 11.75 14.25 14 9 14 4.25 C 13 4 9.825 2.725 8 1 z M 5 5 L 6 5 L 8 7 L 10 5 L 11 5 L 11 6 L 9 8 L 11 10 L 11 11 L 10 11 L 8 9 L 6 11 L 5 11 L 5 10 L 7 8 L 5 6 L 5 5 z"/>
</svg>
