<svg xmlns="http://www.w3.org/2000/svg" width="16" height="16" version="1.1"><defs><linearGradient id="linear0" x1="0%" x2="0%" y1="0%" y2="100%"><stop offset="0%" style="stop-color:#ffd000; stop-opacity:1"/><stop offset="50%" style="stop-color:#24dbdb; stop-opacity:1"/><stop offset="100%" style="stop-color:#0073ff; stop-opacity:1"/></linearGradient></defs>
 <path fill="url(#linear0)"  d="M 8,1 C 4.13,1 1,4.13 1,8 1,11.87 4.13,15 8,15 11.87,15 15,11.87 15,8 15,4.13 11.87,1 8,1 Z M 8,3.75 C 8.69,3.75 9.25,4.31 9.25,5 9.25,5.69 8.69,6.25 8,6.25 7.31,6.25 6.75,5.69 6.75,5 6.75,4.31 7.31,3.75 8,3.75 Z M 7,7 H 9 V 12 H 7 Z"/>
</svg>
