<svg xmlns="http://www.w3.org/2000/svg" width="16" height="16" version="1.1"><defs><linearGradient id="linear0" x1="0%" x2="100%" y1="0%" y2="100%"><stop offset="0%" style="stop-color:#ff0000; stop-opacity:1"/><stop offset="50%" style="stop-color:#ffd000; stop-opacity:1"/><stop offset="100%" style="stop-color:#ff00bb; stop-opacity:1"/></linearGradient></defs>
 <path fill="url(#linear0)"  d="M 9,0 C 7.36,0 6,1.35 6,3 V 11 H 8 V 3 C 8,2 9,2 9,2 9,2 10,2 10,3 V 11.5 C 10,12.89 8.89,14 7.5,14 6.11,14 5,12.89 5,11.5 V 4 H 3 V 11.5 C 3,13.97 5.03,16 7.5,16 9.97,16 12,13.97 12,11.5 V 3 C 12,1.35 10.64,0 9,0 Z"/>
</svg>
