<svg xmlns="http://www.w3.org/2000/svg" width="16" height="16" version="1.1"><defs><linearGradient id="linear0" x1="0%" x2="0%" y1="0%" y2="100%"><stop offset="0%" style="stop-color:#00b54e; stop-opacity:1"/><stop offset="50%" style="stop-color:#ffd000; stop-opacity:1"/><stop offset="100%" style="stop-color:#ff00bb; stop-opacity:1"/></linearGradient></defs>
 <path fill="url(#linear0)"  d="M 5,8 A 2,2 0 0 1 3,10 2,2 0 0 1 1,8 2,2 0 0 1 3,6 2,2 0 0 1 5,8 Z"/>
 <path fill="url(#linear0)"  d="M 10,8 A 2,2 0 0 1 8,10 2,2 0 0 1 6,8 2,2 0 0 1 8,6 2,2 0 0 1 10,8 Z"/>
 <path fill="url(#linear0)"  d="M 15,8 A 2,2 0 0 1 13,10 2,2 0 0 1 11,8 2,2 0 0 1 13,6 2,2 0 0 1 15,8 Z"/>
 <path fill="url(#linear0)"  opacity="0.3" d="M 4.5 4 C 3.4389 4 2.4756 4.384 1.7051 5 L 7.3086 5 C 6.5289 4.3726 5.5516 4 4.5 4 z M 0.75977 11 C 1.5681 12.206 2.9428 13 4.5 13 C 6.0263 13 7.4028 12.226 8.2246 11 L 0.75977 11 z M 12 11 L 12 12 L 15 12 L 15 11 L 12 11 z"/>
</svg>
