<svg xmlns="http://www.w3.org/2000/svg" width="16" height="16" version="1.1"><defs><linearGradient id="linear0" x1="0%" x2="0%" y1="0%" y2="100%"><stop offset="0%" style="stop-color:#ffd000; stop-opacity:1"/><stop offset="50%" style="stop-color:#24dbdb; stop-opacity:1"/><stop offset="100%" style="stop-color:#0073ff; stop-opacity:1"/></linearGradient></defs>
 <path fill="url(#linear0)"  d="M 4,1 V 3 H 12 V 1 Z M 2,4 C 1.5,4 1,4.5 1,5 V 9 C 1,9.5 1.5,10 2,10 H 3 V 8 H 10 V 6 H 14 V 10 C 14.5,10 15,9.5 15,9 V 5 C 15,4.5 14.5,4 14,4 Z M 4,9 V 14 H 10 V 9 Z"/>
 <path fill="url(#linear0)" class="ColorScheme-Highlight warning" d="M 11,7 V 11.01 L 11.25,13 H 12.75 L 13,11 V 7 Z M 11,14 V 16 H 13 V 14 Z"/>
</svg>
