<svg xmlns="http://www.w3.org/2000/svg" width="16" height="16" version="1.1"><defs><linearGradient id="linear0" x1="0%" x2="0%" y1="0%" y2="100%"><stop offset="0%" style="stop-color:#00b54e; stop-opacity:1"/><stop offset="50%" style="stop-color:#ffd000; stop-opacity:1"/><stop offset="100%" style="stop-color:#ff00bb; stop-opacity:1"/></linearGradient></defs>
 <path fill="url(#linear0)"  d="M 8,5 C 6.34,5 5,6.34 5,8 5,9.66 6.34,11 8,11 9.66,11 11,9.66 11,8 11,6.34 9.66,5 8,5 Z"/>
 <path fill="url(#linear0)"  d="M 8,1 C 4.14,1 1,4.14 1,8 1,11.86 4.14,15 8,15 11.86,15 15,11.86 15,8 15,4.14 11.86,1 8,1 Z M 8,2 C 11.32,2 14,4.68 14,8 14,11.32 11.32,14 8,14 4.68,14 2,11.32 2,8 2,4.68 4.68,2 8,2 Z"/>
</svg>
