<svg xmlns="http://www.w3.org/2000/svg" width="16" height="16" version="1.1"><defs><linearGradient id="linear0" x1="0%" x2="100%" y1="0%" y2="100%"><stop offset="0%" style="stop-color:#ff0000; stop-opacity:1"/><stop offset="50%" style="stop-color:#ffd000; stop-opacity:1"/><stop offset="100%" style="stop-color:#ff00bb; stop-opacity:1"/></linearGradient></defs>
 <path fill="url(#linear0)"  d="M 8,1 C 4.14,1 1,4.14 1,8 1,11.86 4.14,15 8,15 11.86,15 15,11.86 15,8 15,4.14 11.86,1 8,1 Z M 8,2 C 11.31,2 14,4.69 14,8 14,11.31 11.31,14 8,14 4.69,14 2,11.31 2,8 2,4.69 4.69,2 8,2 Z M 4,7 V 9 H 12 V 7 Z"/>
</svg>
