<svg xmlns="http://www.w3.org/2000/svg" width="16" height="16" version="1.1"><defs><linearGradient id="linear0" x1="0%" x2="0%" y1="0%" y2="100%"><stop offset="0%" style="stop-color:#ffd000; stop-opacity:1"/><stop offset="50%" style="stop-color:#24dbdb; stop-opacity:1"/><stop offset="100%" style="stop-color:#0073ff; stop-opacity:1"/></linearGradient></defs>
 <path fill="url(#linear0)" class="ColorScheme-Highlight warning" d="M 8 0 L 2 2 L 2 9 C 2 11.07 3.5795 12.489 4.9395 13.439 C 6.2995 14.389 8 15 8 15 C 8 15 9.7005 14.389 11.061 13.439 C 12.421 12.479 14 11.04 14 9 L 14 2 L 8 0 z M 7 3 L 9 3 L 9 9 L 7 9 L 7 3 z M 7 10 L 9 10 L 9 12 L 7 12 L 7 10 z"/>
</svg>
