<svg xmlns="http://www.w3.org/2000/svg" width="16" height="16" version="1.1"><defs><linearGradient id="linear0" x1="0%" x2="0%" y1="0%" y2="100%"><stop offset="0%" style="stop-color:#00b54e; stop-opacity:1"/><stop offset="50%" style="stop-color:#0073ff; stop-opacity:1"/><stop offset="100%" style="stop-color:#ffd000; stop-opacity:1"/></linearGradient></defs>
 <path fill="url(#linear0)" class="ColorScheme-Highlight warning" d="M 8,0 2,2 V 9 C 2,11.07 3.5795,12.489 4.9395,13.439 6.2995,14.389 8,15 8,15 8,15 9.7005,14.389 11.061,13.439 12.421,12.479 14,11.04 14,9 V 2 Z M 5.75,3.5098 8,5.7598 10.25,3.5098 11.49,4.75 9.2402,7 11.49,9.25 10.25,10.49 8,8.2402 5.75,10.49 4.5098,9.25 6.7598,7 4.5098,4.75 Z"/>
</svg>
