<svg xmlns="http://www.w3.org/2000/svg" width="16" height="16" version="1.1"><defs><linearGradient id="linear0" x1="0%" x2="0%" y1="0%" y2="100%"><stop offset="0%" style="stop-color:#00b54e; stop-opacity:1"/><stop offset="50%" style="stop-color:#0073ff; stop-opacity:1"/><stop offset="100%" style="stop-color:#ffd000; stop-opacity:1"/></linearGradient></defs>
 <path fill="url(#linear0)"  opacity="0.3" d="M 8,2 C 6.34,2 5,3.34 5,5 5,6.65 6.34,8 8,8 9.66,8 11,6.65 11,5 11,3.34 9.66,2 8,2 Z M 8,10 C 2,10 2,14 2,14 V 15 H 8.76 A 4.5,4.5 0 0 1 8,12.5 4.5,4.5 0 0 1 8.74,10.03 C 8.5,10.01 8.26,10 8,10 Z"/>
 <path fill="url(#linear0)"  d="M 12.5,9 C 10.57,9 9,10.57 9,12.5 9,14.43 10.57,16 12.5,16 14.43,16 16,14.43 16,12.5 16,10.57 14.43,9 12.5,9 Z M 12,10 H 13 V 12 H 15 V 13 H 12 Z"/>
</svg>
