<?xml version="1.0" encoding="UTF-8" standalone="no"?>
<svg
   width="64"
   version="1.1"
   height="64"
   id="svg15"
   sodipodi:docname="folder-reddit.svg"
   inkscape:version="1.4 (unknown)"
   xmlns:inkscape="http://www.inkscape.org/namespaces/inkscape"
   xmlns:sodipodi="http://sodipodi.sourceforge.net/DTD/sodipodi-0.dtd"
   xmlns:xlink="http://www.w3.org/1999/xlink"
   xmlns="http://www.w3.org/2000/svg"
   xmlns:svg="http://www.w3.org/2000/svg"
   xmlns:rdf="http://www.w3.org/1999/02/22-rdf-syntax-ns#"
   xmlns:cc="http://creativecommons.org/ns#"
   xmlns:dc="http://purl.org/dc/elements/1.1/">
  <sodipodi:namedview
     pagecolor="#ffffff"
     bordercolor="#666666"
     borderopacity="1"
     objecttolerance="10"
     gridtolerance="10"
     guidetolerance="10"
     inkscape:pageopacity="0"
     inkscape:pageshadow="2"
     inkscape:window-width="1920"
     inkscape:window-height="996"
     id="namedview17"
     showgrid="true"
     inkscape:zoom="4.90625"
     inkscape:cx="3.566879"
     inkscape:cy="61.452229"
     inkscape:window-x="0"
     inkscape:window-y="0"
     inkscape:window-maximized="1"
     inkscape:current-layer="layer1"
     inkscape:document-rotation="0"
     inkscape:showpageshadow="2"
     inkscape:pagecheckerboard="0"
     inkscape:deskcolor="#d1d1d1">
    <inkscape:grid
       type="xygrid"
       id="grid919"
       originx="0"
       originy="0"
       spacingy="1"
       spacingx="1"
       units="px"
       visible="true" />
  </sodipodi:namedview>
  <defs
     id="defs5455">
    <linearGradient
       inkscape:collect="always"
       id="linearGradient4">
      <stop
         style="stop-color:#ff6b6b;stop-opacity:1;"
         offset="0"
         id="stop3" />
      <stop
         style="stop-color:#c83771;stop-opacity:1"
         offset="1"
         id="stop4" />
    </linearGradient>
    <clipPath
       clipPathUnits="userSpaceOnUse"
       id="clipPath79425-9-5-3">
      <rect
         style="opacity:0.5;fill:#000000;fill-opacity:1;stroke:none;stroke-width:0.855869;stroke-dasharray:none;stroke-opacity:1;paint-order:stroke fill markers"
         id="rect79427-1-9-6"
         width="26.417742"
         height="29.037542"
         x="-16.227774"
         y="-6.4845476" />
    </clipPath>
    <clipPath
       clipPathUnits="userSpaceOnUse"
       id="clipPath79425-9-5-5">
      <rect
         style="opacity:0.5;fill:#000000;fill-opacity:1;stroke:none;stroke-width:0.855869;stroke-dasharray:none;stroke-opacity:1;paint-order:stroke fill markers"
         id="rect79427-1-9-62"
         width="26.417742"
         height="29.037542"
         x="-16.227774"
         y="-6.4845476" />
    </clipPath>
    <clipPath
       clipPathUnits="userSpaceOnUse"
       id="clipPath79425-9-5-5-6">
      <rect
         style="opacity:0.5;fill:#000000;fill-opacity:1;stroke:none;stroke-width:0.855869;stroke-dasharray:none;stroke-opacity:1;paint-order:stroke fill markers"
         id="rect79427-1-9-62-7"
         width="26.417742"
         height="29.037542"
         x="-16.227774"
         y="-6.4845476" />
    </clipPath>
    <linearGradient
       inkscape:collect="always"
       xlink:href="#linearGradient4"
       id="linearGradient1419-3-1"
       x1="0.52915627"
       y1="5.0269842"
       x2="16.403845"
       y2="5.0269842"
       gradientUnits="userSpaceOnUse"
       gradientTransform="matrix(3.779602,0,0,3.8662743,384.57143,480.49982)" />
    <clipPath
       clipPathUnits="userSpaceOnUse"
       id="clipPath79425-9-5-5-6-2">
      <rect
         style="opacity:0.5;fill:#000000;fill-opacity:1;stroke:none;stroke-width:0.855869;stroke-dasharray:none;stroke-opacity:1;paint-order:stroke fill markers"
         id="rect79427-1-9-62-7-9"
         width="26.417742"
         height="29.037542"
         x="-16.227774"
         y="-6.4845476" />
    </clipPath>
    <linearGradient
       inkscape:collect="always"
       xlink:href="#linearGradient4"
       id="linearGradient1662-5-3"
       gradientUnits="userSpaceOnUse"
       gradientTransform="matrix(3.7757185,0,0,3.9032699,384.57656,479.89307)"
       x1="9.3259869"
       y1="14.831515"
       x2="9.3259869"
       y2="4.269978" />
  </defs>
  <metadata
     id="metadata5458">
    <rdf:RDF>
      <cc:Work
         rdf:about="">
        <dc:format>image/svg+xml</dc:format>
        <dc:type
           rdf:resource="http://purl.org/dc/dcmitype/StillImage" />
      </cc:Work>
    </rdf:RDF>
  </metadata>
  <g
     inkscape:label="Capa 1"
     inkscape:groupmode="layer"
     id="layer1"
     transform="translate(-384.57143,-483.798)">
    <path
       id="path32082-9-2-1"
       style="fill:url(#linearGradient1419-3-1);fill-opacity:1;stroke:none;stroke-width:5.11693;stroke-linecap:round;stroke-linejoin:round;stroke-opacity:0.03"
       d="m 393.57143,493.798 c -4,0 -7,3.14014 -7,7.32703 v 5.2336 c 0,0 2,-5.2336 5,-5.2336 h 8 12 6 24 c 3,0 5,2.09345 5,5.2336 v 0 0 -5.2336 c 0,-4.18689 -3,-7.32703 -7,-7.32703 h -24.07114 -5.92886 -9 z"
       sodipodi:nodetypes="sccsccccccccccccs" />
    <rect
       x="410.57159"
       y="494.84464"
       width="12"
       height="2.0934412"
       ry="1.0248641"
       stroke-width="3.41941"
       style="fill:#222638;fill-opacity:1;paint-order:stroke markers fill"
       id="rect12-5-9-3-9-9-9"
       rx="1.0248643" />
    <path
       d="m 418.30476,497.98488 h -3.46666 -4.33334 -16.93333 c -2,0 -3,1.04672 -3,3.14015 v 0 0 h 52 v 0 0 c 0,-2.09343 -1,-3.14015 -3,-3.14015 z"
       style="fill:#222638;fill-opacity:1;stroke-width:2.33915;paint-order:markers stroke fill"
       id="path8-7-2-9-6-1-7-5-1-4"
       sodipodi:nodetypes="cccccccccccc"
       opacity="0.6" />
    <path
       style="display:inline;fill:#4f4f4f;fill-opacity:1;stroke:none;stroke-width:2.74813;stroke-linecap:round;stroke-linejoin:round;stroke-opacity:0.03"
       d="m -14.026297,2.5011118 6.1666725,4.13e-5 H -3.014907 0.06809547 L 7.9884881,2.5011118 C 9.3097749,2.5157128 10.189967,3.444358 10.189967,4.874457 l -2.06e-4,11.759984 c 0.0082,1.415373 -0.872618,2.358956 -2.6343739,2.358956 H -14.02563 c -1.321306,0 -2.202145,-0.943583 -2.202145,-2.358956 V 4.874457 c 0,-1.4240071 0.880591,-2.3733452 2.201478,-2.3733452 z"
       id="path1611-1-8-0-7-2"
       clip-path="url(#clipPath79425-9-5-5-6-2)"
       transform="matrix(2.271201,0,0,2.2025816,423.42797,495.2891)"
       sodipodi:nodetypes="cccccccssccc" />
    <path
       d="m 418.57143,500.798 h -4 -5 -18.00001 c -3,0 -4.99999,2.05557 -4.99999,5.13889 v 26.72227 c 0,3.08331 1.99999,5.13884 4.99999,5.13884 h 50.00001 c 3,0 5,-2.05553 5,-5.13884 v -26.72227 c 0,-3.08332 -2,-5.13889 -5,-5.13889 z"
       style="fill:url(#linearGradient1662-5-3);fill-opacity:1;stroke-width:3.83804;paint-order:markers stroke fill"
       id="path8-7-2-9-6-1-9-2-7"
       sodipodi:nodetypes="ccccsssssscc"
       opacity="0.6" />
    <path
       d="m 386.57143,519.28096 17.1,18.06042 h -10e-6 0.65001 l -17.75,-18.67826 v 0 0 z"
       id="path2653-4-7-8"
       style="fill:#bac8df;fill-opacity:1;stroke-width:0.48092"
       sodipodi:nodetypes="cccccccc" />
    <path
       d="m 386.57143,525.03173 11.48548,12.3465 -1e-5,0.0102 0.64953,-0.006 v 0.006 l -12.12986,-12.97496 v 0 0 z"
       id="path2653-4-3-0-4"
       style="fill:#bac8df;fill-opacity:1;stroke-width:0.330034"
       sodipodi:nodetypes="ccccccccc" />
    <path
       d="m 434.39303,511.4844 c 0.42174,-0.70985 1.20108,-1.1864 2.09316,-1.1864 1.33862,0 2.42598,1.07657 2.42598,2.40183 0,1.32618 -1.08736,2.40274 -2.42598,2.40274 -1.20471,0 -2.20497,-0.87056 -2.39478,-2.01059 l -2.27743,-0.50017 -0.73717,2.30924 c 1.58154,0.14701 3.04486,0.62997 4.30367,1.3534 0.41442,-0.22062 0.87927,-0.33227 1.39727,-0.33227 1.66134,0 3.04208,1.40789 3.04208,3.177 0,0.9123 -0.36764,1.74739 -0.91679,2.36554 v 0.15703 c 0,1.87444 -1.01867,3.58364 -2.87617,4.90169 -1.65586,1.14548 -3.88838,1.77456 -6.20704,1.77456 -2.3187,0 -4.55121,-0.62908 -6.21529,-1.78001 -1.84928,-1.3126 -2.86787,-3.0218 -2.86787,-4.89624 v -0.20965 c -0.5446,-0.56466 -0.91684,-1.39793 -0.91684,-2.31292 0,-1.76911 1.38079,-3.177 3.04213,-3.177 0.51154,0 0.97272,0.10983 1.38351,0.325 1.42933,-0.8478 3.26667,-1.29623 5.11229,-1.38063 l 1.11024,-3.48021 c 0.12842,-0.40389 0.54737,-0.64354 0.96545,-0.55187 z m -4.38893,5.0133 c -0.0274,0.002 -0.0551,0.002 -0.0832,0 h -0.46294 c -1.74111,0.0765 -3.4859,0.50381 -4.73918,1.39335 -0.309,0.21968 -0.7298,0.20151 -1.01863,-0.0447 -0.23197,-0.19788 -0.5125,-0.29042 -0.83798,-0.29042 -0.78484,0 -1.39181,0.70709 -1.39181,1.54309 0,0.541 0.23839,1.03481 0.59413,1.30528 0.20355,0.15434 0.32276,0.39396 0.32276,0.64725 v 0.56999 c 0,1.38064 0.81692,2.60156 2.17106,3.56189 1.40186,0.97034 3.29881,1.48052 5.26178,1.48052 1.96296,0 3.85992,-0.51018 5.25348,-1.47412 1.36244,-0.96673 2.17933,-2.18765 2.17933,-3.56829 v -0.48836 c 0,-0.22781 0.0961,-0.44567 0.26588,-0.60088 0.37774,-0.34404 0.65096,-0.85957 0.65096,-1.43328 0,-0.836 -0.60693,-1.54309 -1.39172,-1.54309 -0.32549,0 -0.60605,0.0928 -0.83801,0.29042 -0.27966,0.23783 -0.68397,0.26322 -0.9911,0.0635 -1.25517,-0.81691 -2.78905,-1.33521 -4.46229,-1.41234 z m 0.0658,6.67807 c 0.99663,-0.0227 1.73835,-0.21423 2.19584,-0.66719 0.32277,-0.31861 0.84534,-0.31861 1.16715,0 0.3218,0.31861 0.3218,0.83604 0,1.15551 -0.73527,0.72707 -1.91158,1.14738 -3.56556,1.14738 l -0.15311,-9.5e-4 c -1.57334,-0.0254 -2.70012,-0.44203 -3.4116,-1.14643 -0.32269,-0.31947 -0.32269,-0.8369 0,-1.15551 0.32181,-0.31861 0.84444,-0.31861 1.16626,0 0.48863,0.48385 1.29913,0.669 2.39845,0.669 z m 2.50026,-4.33165 c 0.45566,0 0.82514,0.36585 0.82514,0.81696 0,0.45115 -0.36948,0.81692 -0.82514,0.81692 -0.45565,0 -0.82513,-0.36577 -0.82513,-0.81692 0,-0.45111 0.36948,-0.81696 0.82513,-0.81696 z m -5.50104,0 c 0.45563,0 0.82517,0.36585 0.82517,0.81696 0,0.45115 -0.36954,0.81692 -0.82517,0.81692 -0.4557,0 -0.82517,-0.36577 -0.82517,-0.81692 0,-0.45111 0.36947,-0.81696 0.82517,-0.81696 z m 9.41685,-6.91223 c 0.4282,0 0.77569,0.34399 0.77569,0.76794 0,0.42481 -0.34749,0.76886 -0.77569,0.76886 -0.42907,0 -0.77654,-0.34405 -0.77654,-0.76886 0,-0.42395 0.34747,-0.76794 0.77654,-0.76794 z"
       id="path259-6-5"
       style="fill:#d8f0f3;fill-opacity:1;stroke-width:0.912264" />
  </g>
</svg>
