<?xml version="1.0" encoding="UTF-8" standalone="no"?>
<svg
   width="64"
   height="64"
   version="1.1"
   viewBox="0 0 16.933 16.933"
   id="svg7"
   sodipodi:docname="1password.svg"
   inkscape:version="1.4 (e7c3feb100, 2024-10-09)"
   xmlns:inkscape="http://www.inkscape.org/namespaces/inkscape"
   xmlns:sodipodi="http://sodipodi.sourceforge.net/DTD/sodipodi-0.dtd"
   xmlns="http://www.w3.org/2000/svg"
   xmlns:svg="http://www.w3.org/2000/svg"
   xmlns:rdf="http://www.w3.org/1999/02/22-rdf-syntax-ns#"
   xmlns:cc="http://creativecommons.org/ns#"
   xmlns:dc="http://purl.org/dc/elements/1.1/">
  <sodipodi:namedview
     id="namedview7"
     pagecolor="#9c4444"
     bordercolor="#000000"
     borderopacity="0.25"
     inkscape:showpageshadow="2"
     inkscape:pageopacity="0.0"
     inkscape:pagecheckerboard="0"
     inkscape:deskcolor="#d1d1d1"
     inkscape:zoom="6.15625"
     inkscape:cx="15.837563"
     inkscape:cy="29.725888"
     inkscape:window-width="1183"
     inkscape:window-height="941"
     inkscape:window-x="35"
     inkscape:window-y="32"
     inkscape:window-maximized="0"
     inkscape:current-layer="svg7"
     showgrid="false" />
  <defs
     id="defs2">
    <rect
       x="67.489848"
       y="35.60533"
       width="15.337563"
       height="22.51269"
       id="rect3808" />
    <filter
       style="color-interpolation-filters:sRGB;"
       inkscape:label="Blur"
       id="filter1283"
       x="-0.082344266"
       y="-0.082344266"
       width="1.1646885"
       height="1.1646885">
      <feGaussianBlur
         stdDeviation="0.5 0.5"
         result="blur"
         id="feGaussianBlur1281" />
    </filter>
    <filter
       style="color-interpolation-filters:sRGB;"
       inkscape:label="Blur"
       id="filter3148"
       x="-0.94955398"
       y="-0.2118907"
       width="2.899108"
       height="1.4237814">
      <feGaussianBlur
         stdDeviation="0.2 0.2"
         result="blur"
         id="feGaussianBlur3146" />
    </filter>
  </defs>
  <metadata
     id="metadata2">
    <rdf:RDF>
      <cc:Work
         rdf:about="">
        <dc:format>image/svg+xml</dc:format>
        <dc:type
           rdf:resource="http://purl.org/dc/dcmitype/StillImage" />
      </cc:Work>
    </rdf:RDF>
  </metadata>
  <g
     fill-rule="nonzero"
     id="g3"
     transform="matrix(0.4200871,0,0,0.4200871,-1.6155903,-1.615591)"
     style="fill:#f9f9f9;fill-opacity:1">
    <path
       d="m 21.724,13.756 c -0.631,0 -1.139,0.508 -1.139,1.138 v 4.613 c 0,0 1.234,1.085 1.234,1.816 0,0.732 -1.234,1.817 -1.234,1.817 v 9.966 c 0,0.63 0.508,1.138 1.139,1.138 h 4.552 c 0.631,0 1.139,-0.508 1.139,-1.138 v -4.595 l -0.012,-0.016 c 0,0 -1.286,-1.131 -1.287,-1.894 0,-0.764 1.287,-1.896 1.287,-1.896 l 0.012,-0.016 v -9.795 c 0,-0.63 -0.508,-1.138 -1.139,-1.138 z"
       fill="#2d3439"
       id="path2"
       style="fill:#f9f9f9;fill-opacity:1" />
    <path
       d="M 24,5.789 C 13.969,5.789 5.789,13.969 5.789,24 5.789,34.031 13.969,42.211 24,42.211 34.031,42.211 42.211,34.031 42.211,24 42.211,13.969 34.031,5.789 24,5.789 Z m 0,4.553 C 31.57,10.342 37.658,16.43 37.658,24 37.658,31.57 31.57,37.658 24,37.658 16.43,37.658 10.342,31.57 10.342,24 10.342,16.43 16.43,10.342 24,10.342 Z"
       fill="#0064e2"
       id="path3-3"
       style="fill:#f9f9f9;fill-opacity:1" />
  </g>
  <g
     fill="#474747"
     id="g9"
     transform="matrix(0.46959567,0,0,0.46959567,4.7471229,3.7470598)"
     style="fill:#999999;fill-opacity:1;stroke:none;stroke-width:0.58349;stroke-dasharray:none;stroke-opacity:0.3" />
  <text
     xml:space="preserve"
     transform="scale(0.26457812)"
     id="text3806"
     style="font-size:6.66667px;white-space:pre;shape-inside:url(#rect3808);display:inline;fill:#999999;stroke-width:2" />
</svg>
