<?xml version="1.0" encoding="UTF-8" standalone="no"?>
<svg
   width="64"
   height="64"
   version="1.1"
   viewBox="0 0 16.933 16.933"
   id="svg7"
   sodipodi:docname="accessories-character-map.svg"
   inkscape:version="1.4 (e7c3feb100, 2024-10-09)"
   xmlns:inkscape="http://www.inkscape.org/namespaces/inkscape"
   xmlns:sodipodi="http://sodipodi.sourceforge.net/DTD/sodipodi-0.dtd"
   xmlns="http://www.w3.org/2000/svg"
   xmlns:svg="http://www.w3.org/2000/svg"
   xmlns:rdf="http://www.w3.org/1999/02/22-rdf-syntax-ns#"
   xmlns:cc="http://creativecommons.org/ns#"
   xmlns:dc="http://purl.org/dc/elements/1.1/">
  <sodipodi:namedview
     id="namedview7"
     pagecolor="#9c4444"
     bordercolor="#000000"
     borderopacity="0.25"
     inkscape:showpageshadow="2"
     inkscape:pageopacity="0.0"
     inkscape:pagecheckerboard="0"
     inkscape:deskcolor="#d1d1d1"
     inkscape:zoom="6.15625"
     inkscape:cx="15.51269"
     inkscape:cy="29.725888"
     inkscape:window-width="1183"
     inkscape:window-height="941"
     inkscape:window-x="35"
     inkscape:window-y="32"
     inkscape:window-maximized="0"
     inkscape:current-layer="svg7"
     showgrid="false" />
  <defs
     id="defs2">
    <rect
       x="67.489848"
       y="35.60533"
       width="15.337563"
       height="22.51269"
       id="rect3808" />
    <filter
       style="color-interpolation-filters:sRGB;"
       inkscape:label="Blur"
       id="filter1283"
       x="-0.082344266"
       y="-0.082344266"
       width="1.1646885"
       height="1.1646885">
      <feGaussianBlur
         stdDeviation="0.5 0.5"
         result="blur"
         id="feGaussianBlur1281" />
    </filter>
    <filter
       style="color-interpolation-filters:sRGB;"
       inkscape:label="Blur"
       id="filter1694"
       x="-0.94955398"
       y="-0.2118907"
       width="2.899108"
       height="1.4237814">
      <feGaussianBlur
         stdDeviation="0.2 0.2"
         result="blur"
         id="feGaussianBlur1692" />
    </filter>
    <filter
       style="color-interpolation-filters:sRGB;"
       inkscape:label="Blur"
       id="filter3148"
       x="-0.94955398"
       y="-0.2118907"
       width="2.899108"
       height="1.4237814">
      <feGaussianBlur
         stdDeviation="0.2 0.2"
         result="blur"
         id="feGaussianBlur3146" />
    </filter>
    <clipPath
       clipPathUnits="userSpaceOnUse"
       id="clipPath44">
      <path
         id="path46"
         style="display:block;opacity:0.85;fill:#f2f2f2;stroke-width:4.39162"
         d="m 17.570312,8.4453125 a 6.5431988,7.4283052 9.9958727e-8 0 0 -6.535156,7.4394535 6.5431988,7.4283052 9.9958727e-8 0 0 6.552735,7.417968 6.5431988,7.4283052 9.9958727e-8 0 0 6.535156,-7.4375 6.5431988,7.4283052 9.9958727e-8 0 0 -6.552735,-7.4199215 z M 45.646484,41.177734 a 6.5431986,7.0703472 2.4665357e-6 0 0 -6.533203,7.080078 6.5431986,7.0703472 2.4665357e-6 0 0 6.550781,7.060547 6.5431986,7.0703472 2.4665357e-6 0 0 6.535157,-7.080078 6.5431986,7.0703472 2.4665357e-6 0 0 -6.552735,-7.060547 z" />
    </clipPath>
    <inkscape:path-effect
       effect="powerclip"
       id="path-effect48"
       is_visible="true"
       lpeversion="1"
       inverse="true"
       flatten="false"
       hide_clip="false"
       message="" />
  </defs>
  <metadata
     id="metadata2">
    <rdf:RDF>
      <cc:Work
         rdf:about="">
        <dc:format>image/svg+xml</dc:format>
        <dc:type
           rdf:resource="http://purl.org/dc/dcmitype/StillImage" />
      </cc:Work>
    </rdf:RDF>
  </metadata>
  <path
     style="color:#444444;fill:#f9f9f9;fill-opacity:1;stroke:none;stroke-width:0.434602;stroke-dasharray:none;stroke-opacity:0.3"
     class="ColorScheme-Text"
     d="m 3.2771314,3.0130694 c 0,0 -1.8920637,0 -1.8920637,1.8920643 v 7.5682573 c 0,1.892064 1.8920637,1.892064 1.8920637,1.892064 H 13.683486 c 0,0 1.892064,0 1.892064,-1.892064 V 4.9051337 c 0,-1.8920643 -1.892064,-1.8920643 -1.892064,-1.8920643 z M 3.5136396,4.9051337 H 4.932688 c 0.131024,0 0.2365071,0.1054823 0.2365071,0.2365086 v 1.4190471 c 0,0.131024 -0.1054823,0.2365076 -0.2365071,0.2365076 H 3.5136396 c -0.131024,0 -0.2365082,-0.1054804 -0.2365082,-0.2365076 V 5.1416423 c 0,-0.1310221 0.1054823,-0.2365086 0.2365082,-0.2365086 z m 2.8380963,0 h 1.4190473 c 0.1310221,0 0.2365084,0.1054823 0.2365084,0.2365086 v 1.4190471 c 0,0.131024 -0.1054804,0.2365076 -0.2365084,0.2365076 H 6.3517359 c -0.131024,0 -0.2365082,-0.1054804 -0.2365082,-0.2365076 V 5.1416423 c 0,-0.1310221 0.1054804,-0.2365086 0.2365082,-0.2365086 z m 2.8380963,0 H 10.60888 c 0.131029,0 0.236509,0.1054823 0.236509,0.2365086 v 1.4190471 c 0,0.131024 -0.10549,0.2365076 -0.236509,0.2365076 H 9.1898322 c -0.1310221,0 -0.236508,-0.1054804 -0.236508,-0.2365076 V 5.1416423 c 0,-0.1310221 0.1054823,-0.2365086 0.236508,-0.2365086 z m 2.8380978,0 h 1.419048 c 0.131043,0 0.236508,0.1054823 0.236508,0.2365086 v 1.4190471 c 0,0.131024 -0.105488,0.2365076 -0.236508,0.2365076 H 12.02793 c -0.131043,0 -0.236508,-0.1054804 -0.236508,-0.2365076 V 5.1416423 c 0,-0.1310221 0.105488,-0.2365086 0.236508,-0.2365086 z M 3.5136396,7.7432302 H 4.932688 c 0.131024,0 0.2365071,0.1054823 0.2365071,0.2365074 v 1.4190479 c 0,0.1310221 -0.1054823,0.236508 -0.2365071,0.236508 H 3.5136396 c -0.131024,0 -0.2365082,-0.1054823 -0.2365082,-0.236508 V 7.9797376 c 0,-0.1310259 0.1054823,-0.2365074 0.2365082,-0.2365074 z m 2.8380963,0 h 1.4190473 c 0.1310221,0 0.2365084,0.1054823 0.2365084,0.2365074 v 1.4190479 c 0,0.1310221 -0.1054804,0.236508 -0.2365084,0.236508 H 6.3517359 c -0.131024,0 -0.2365082,-0.1054823 -0.2365082,-0.236508 V 7.9797376 c 0,-0.1310259 0.1054804,-0.2365074 0.2365082,-0.2365074 z m 2.8380963,0 H 10.60888 c 0.131029,0 0.236509,0.1054823 0.236509,0.2365074 v 1.4190479 c 0,0.1310221 -0.10549,0.236508 -0.236509,0.236508 H 9.1898322 c -0.1310221,0 -0.236508,-0.1054823 -0.236508,-0.236508 V 7.9797376 c 0,-0.1310259 0.1054823,-0.2365074 0.236508,-0.2365074 z m 2.8380978,0 h 1.419048 c 0.131043,0 0.236508,0.1054823 0.236508,0.2365074 v 1.4190479 c 0,0.1310221 -0.105488,0.236508 -0.236508,0.236508 H 12.02793 c -0.131043,0 -0.236508,-0.1054823 -0.236508,-0.236508 V 7.9797376 c 0,-0.1310259 0.105488,-0.2365074 0.236508,-0.2365074 z M 5.4057031,10.581326 h 6.1492109 c 0.131024,0 0.236508,0.105477 0.236508,0.236506 v 1.419049 c 0,0.131005 -0.105488,0.23651 -0.236508,0.23651 H 5.4057031 c -0.1310221,0 -0.236508,-0.105488 -0.236508,-0.23651 v -1.419049 c 0,-0.131016 0.1054823,-0.236506 0.236508,-0.236506 z"
     id="path5" />
  <g
     fill="#474747"
     id="g9"
     transform="matrix(0.46959567,0,0,0.46959567,4.7471229,3.7470598)"
     style="fill:#999999;fill-opacity:1;stroke:none;stroke-width:0.58349;stroke-dasharray:none;stroke-opacity:0.3" />
  <text
     xml:space="preserve"
     transform="scale(0.26457812)"
     id="text3806"
     style="font-size:6.66667px;white-space:pre;shape-inside:url(#rect3808);display:inline;fill:#999999;stroke-width:2" />
</svg>
