<?xml version="1.0" encoding="UTF-8" standalone="no"?>
<svg
   width="64"
   height="64"
   version="1.1"
   viewBox="0 0 16.933 16.933"
   id="svg7"
   sodipodi:docname="codelite.svg"
   inkscape:version="1.4 (e7c3feb100, 2024-10-09)"
   xmlns:inkscape="http://www.inkscape.org/namespaces/inkscape"
   xmlns:sodipodi="http://sodipodi.sourceforge.net/DTD/sodipodi-0.dtd"
   xmlns="http://www.w3.org/2000/svg"
   xmlns:svg="http://www.w3.org/2000/svg"
   xmlns:rdf="http://www.w3.org/1999/02/22-rdf-syntax-ns#"
   xmlns:cc="http://creativecommons.org/ns#"
   xmlns:dc="http://purl.org/dc/elements/1.1/">
  <sodipodi:namedview
     id="namedview7"
     pagecolor="#9c4444"
     bordercolor="#000000"
     borderopacity="0.25"
     inkscape:showpageshadow="2"
     inkscape:pageopacity="0.0"
     inkscape:pagecheckerboard="0"
     inkscape:deskcolor="#d1d1d1"
     inkscape:zoom="6.15625"
     inkscape:cx="15.837563"
     inkscape:cy="29.725888"
     inkscape:window-width="1183"
     inkscape:window-height="941"
     inkscape:window-x="35"
     inkscape:window-y="32"
     inkscape:window-maximized="0"
     inkscape:current-layer="svg7"
     showgrid="false" />
  <defs
     id="defs2">
    <rect
       x="67.489848"
       y="35.60533"
       width="15.337563"
       height="22.51269"
       id="rect3808" />
    <filter
       style="color-interpolation-filters:sRGB;"
       inkscape:label="Blur"
       id="filter1283"
       x="-0.082344266"
       y="-0.082344266"
       width="1.1646885"
       height="1.1646885">
      <feGaussianBlur
         stdDeviation="0.5 0.5"
         result="blur"
         id="feGaussianBlur1281" />
    </filter>
    <filter
       style="color-interpolation-filters:sRGB;"
       inkscape:label="Blur"
       id="filter1694"
       x="-0.94955398"
       y="-0.2118907"
       width="2.899108"
       height="1.4237814">
      <feGaussianBlur
         stdDeviation="0.2 0.2"
         result="blur"
         id="feGaussianBlur1692" />
    </filter>
    <filter
       style="color-interpolation-filters:sRGB;"
       inkscape:label="Blur"
       id="filter3148"
       x="-0.94955398"
       y="-0.2118907"
       width="2.899108"
       height="1.4237814">
      <feGaussianBlur
         stdDeviation="0.2 0.2"
         result="blur"
         id="feGaussianBlur3146" />
    </filter>
    <clipPath
       clipPathUnits="userSpaceOnUse"
       id="clipPath44">
      <path
         id="path46"
         style="display:block;opacity:0.85;fill:#f2f2f2;stroke-width:4.39162"
         d="m 17.570312,8.4453125 a 6.5431988,7.4283052 9.9958727e-8 0 0 -6.535156,7.4394535 6.5431988,7.4283052 9.9958727e-8 0 0 6.552735,7.417968 6.5431988,7.4283052 9.9958727e-8 0 0 6.535156,-7.4375 6.5431988,7.4283052 9.9958727e-8 0 0 -6.552735,-7.4199215 z M 45.646484,41.177734 a 6.5431986,7.0703472 2.4665357e-6 0 0 -6.533203,7.080078 6.5431986,7.0703472 2.4665357e-6 0 0 6.550781,7.060547 6.5431986,7.0703472 2.4665357e-6 0 0 6.535157,-7.080078 6.5431986,7.0703472 2.4665357e-6 0 0 -6.552735,-7.060547 z" />
    </clipPath>
    <inkscape:path-effect
       effect="powerclip"
       id="path-effect48"
       is_visible="true"
       lpeversion="1"
       inverse="true"
       flatten="false"
       hide_clip="false"
       message="" />
  </defs>
  <metadata
     id="metadata2">
    <rdf:RDF>
      <cc:Work
         rdf:about="">
        <dc:format>image/svg+xml</dc:format>
        <dc:type
           rdf:resource="http://purl.org/dc/dcmitype/StillImage" />
      </cc:Work>
    </rdf:RDF>
  </metadata>
  <path
     id="path4"
     style="fill:#f9f9f9;fill-opacity:1;stroke:none;stroke-width:0.0903477;stroke-dasharray:none;stroke-opacity:1"
     d="m 5.922432,1.6084075 c -4.0731638,0 -4.1349257,9.433e-4 -4.2239569,0.089994 -0.08903,0.089032 -0.089992,0.1507935 -0.089992,4.2239565 0,4.0731639 9.434e-4,4.134924 0.089992,4.223956 0.08903,0.08904 0.1507935,0.08999 4.2239569,0.08999 4.0731639,0 4.134925,-9.44e-4 4.223956,-0.08999 0.08904,-0.08903 0.08999,-0.150793 0.08999,-4.223956 0,-4.0731634 -9.43e-4,-4.1349254 -0.08999,-4.2239565 -0.08903,-0.08903 -0.150793,-0.089994 -4.223956,-0.089994 z m 5.084195,2.5296972 -0.01277,3.0901986 -0.012,3.0909067 -0.136771,0.194157 c -0.07525,0.107032 -0.224608,0.256393 -0.331634,0.331624 l -0.194155,0.136771 -3.0909076,0.01201 -3.0901984,0.01277 v 0.780877 c 0,0.811648 0.011571,0.866453 0.2033679,0.972198 0.064357,0.03547 1.2625332,0.04702 4.1658512,0.03969 l 4.0758579,-0.01045 0.102733,-0.102752 0.102733,-0.102752 0.01292,-4.0305106 c 0.0068,-2.2167826 0.0011,-4.0767215 -0.01292,-4.1332558 -0.01387,-0.056535 -0.06502,-0.1429712 -0.114095,-0.1920301 -0.082,-0.082012 -0.152646,-0.089285 -0.878664,-0.089285 z m 2.575756,2.5296972 -0.01292,3.0377622 c -0.01292,3.0098509 -0.01349,3.0395529 -0.109839,3.2191639 -0.123405,0.230415 -0.304576,0.41158 -0.534992,0.534993 -0.179569,0.0962 -0.209764,0.09715 -3.1964875,0.109839 l -3.0150872,0.01292 v 0.785836 0.785834 l 0.1190426,0.09354 c 0.1184194,0.09316 0.1396804,0.09354 4.1949041,0.09354 4.055226,0 4.076487,-3.99e-4 4.194908,-0.09354 l 0.119054,-0.09354 V 11.004426 6.8548737 L 15.221931,6.7613386 C 15.112225,6.6750406 15.043388,6.6678035 14.34256,6.6678035 Z" />
  <g
     fill="#474747"
     id="g9"
     transform="matrix(0.46959567,0,0,0.46959567,4.7471229,3.7470598)"
     style="fill:#999999;fill-opacity:1;stroke:none;stroke-width:0.58349;stroke-dasharray:none;stroke-opacity:0.3" />
  <text
     xml:space="preserve"
     transform="scale(0.26457812)"
     id="text3806"
     style="font-size:6.66667px;white-space:pre;shape-inside:url(#rect3808);display:inline;fill:#999999;stroke-width:2" />
</svg>
