<?xml version="1.0" encoding="UTF-8" standalone="no"?>
<svg
   width="64"
   height="64"
   version="1.1"
   viewBox="0 0 16.933 16.933"
   id="svg7"
   sodipodi:docname="com.github.wwmm.easyeffects.svg"
   inkscape:version="1.4 (e7c3feb100, 2024-10-09)"
   xmlns:inkscape="http://www.inkscape.org/namespaces/inkscape"
   xmlns:sodipodi="http://sodipodi.sourceforge.net/DTD/sodipodi-0.dtd"
   xmlns="http://www.w3.org/2000/svg"
   xmlns:svg="http://www.w3.org/2000/svg"
   xmlns:rdf="http://www.w3.org/1999/02/22-rdf-syntax-ns#"
   xmlns:cc="http://creativecommons.org/ns#"
   xmlns:dc="http://purl.org/dc/elements/1.1/">
  <sodipodi:namedview
     id="namedview7"
     pagecolor="#9c4444"
     bordercolor="#000000"
     borderopacity="0.25"
     inkscape:showpageshadow="2"
     inkscape:pageopacity="0.0"
     inkscape:pagecheckerboard="0"
     inkscape:deskcolor="#d1d1d1"
     inkscape:zoom="6.15625"
     inkscape:cx="15.837563"
     inkscape:cy="29.725888"
     inkscape:window-width="1183"
     inkscape:window-height="941"
     inkscape:window-x="35"
     inkscape:window-y="32"
     inkscape:window-maximized="0"
     inkscape:current-layer="svg7"
     showgrid="false" />
  <defs
     id="defs2">
    <rect
       x="67.489848"
       y="35.60533"
       width="15.337563"
       height="22.51269"
       id="rect3808" />
    <filter
       style="color-interpolation-filters:sRGB;"
       inkscape:label="Blur"
       id="filter1283"
       x="-0.082344266"
       y="-0.082344266"
       width="1.1646885"
       height="1.1646885">
      <feGaussianBlur
         stdDeviation="0.5 0.5"
         result="blur"
         id="feGaussianBlur1281" />
    </filter>
    <filter
       style="color-interpolation-filters:sRGB;"
       inkscape:label="Blur"
       id="filter1694"
       x="-0.94955398"
       y="-0.2118907"
       width="2.899108"
       height="1.4237814">
      <feGaussianBlur
         stdDeviation="0.2 0.2"
         result="blur"
         id="feGaussianBlur1692" />
    </filter>
    <filter
       style="color-interpolation-filters:sRGB;"
       inkscape:label="Blur"
       id="filter3148"
       x="-0.94955398"
       y="-0.2118907"
       width="2.899108"
       height="1.4237814">
      <feGaussianBlur
         stdDeviation="0.2 0.2"
         result="blur"
         id="feGaussianBlur3146" />
    </filter>
    <clipPath
       clipPathUnits="userSpaceOnUse"
       id="clipPath44">
      <path
         id="path46"
         style="display:block;opacity:0.85;fill:#f2f2f2;stroke-width:4.39162"
         d="m 17.570312,8.4453125 a 6.5431988,7.4283052 9.9958727e-8 0 0 -6.535156,7.4394535 6.5431988,7.4283052 9.9958727e-8 0 0 6.552735,7.417968 6.5431988,7.4283052 9.9958727e-8 0 0 6.535156,-7.4375 6.5431988,7.4283052 9.9958727e-8 0 0 -6.552735,-7.4199215 z M 45.646484,41.177734 a 6.5431986,7.0703472 2.4665357e-6 0 0 -6.533203,7.080078 6.5431986,7.0703472 2.4665357e-6 0 0 6.550781,7.060547 6.5431986,7.0703472 2.4665357e-6 0 0 6.535157,-7.080078 6.5431986,7.0703472 2.4665357e-6 0 0 -6.552735,-7.060547 z" />
    </clipPath>
    <inkscape:path-effect
       effect="powerclip"
       id="path-effect48"
       is_visible="true"
       lpeversion="1"
       inverse="true"
       flatten="false"
       hide_clip="false"
       message="" />
  </defs>
  <metadata
     id="metadata2">
    <rdf:RDF>
      <cc:Work
         rdf:about="">
        <dc:format>image/svg+xml</dc:format>
        <dc:type
           rdf:resource="http://purl.org/dc/dcmitype/StillImage" />
      </cc:Work>
    </rdf:RDF>
  </metadata>
  <path
     d="M 10.125398,2.2085762 4.5178193,3.7254057 C 4.096735,3.8439474 3.7570842,4.3139955 3.7570842,4.7706422 V 12.00947 c -0.4272681,-0.234506 -0.9751414,-0.328828 -1.544146,-0.174206 -1.0261661,0.27935 -1.66938902,1.181817 -1.44931183,2.015222 0.21956191,0.833408 1.23129613,1.299847 2.25746353,1.020498 0.818459,-0.222652 1.3823093,-0.854022 1.4719893,-1.518376 L 4.5178223,6.5121872 9.5450593,5.101015 v 5.189073 C 9.1724227,10.15763 8.7410317,10.121551 8.2946921,10.243188 7.2685258,10.52202 6.6263348,11.424491 6.8464108,12.258409 c 0.2200778,0.833408 1.2302664,1.299334 2.2564332,1.019988 0.7287788,-0.197919 1.253459,-0.719505 1.424058,-1.300366 0.183483,-0.339136 0.266979,-0.721049 0.266979,-0.873607 0,-0.04794 0.0061,-0.161838 0.0066,-0.212345 v -0.18967 c 0.02526,-0.187089 0.116981,-0.338101 0.362328,-0.338101 0.248941,0 0.345321,0.152043 0.381913,0.338102 h 0.0087 v 0.84526 c 0,0.280381 0.16853,0.506645 0.37676,0.506645 0.207706,0 0.376761,-0.226262 0.376761,-0.506645 V 9.6880966 c 0,-0.1489505 0.139175,-0.6756926 0.250999,-0.6756926 0.111302,0 0.251004,0.5267408 0.251004,0.6756926 v 0.1695693 c 0,0.2803791 0.169575,0.5066391 0.377788,0.5066391 0.207708,0 0.376246,-0.22626 0.376246,-0.5066391 V 8.3361976 c 0,-0.1494673 0.139669,-0.3381042 0.251518,-0.3381042 0.111302,0 0.250997,0.1886377 0.250997,0.3381042 V 8.505765 c 0,0.2798632 0.16853,0.5066411 0.376242,0.5066411 0.208225,0 0.376763,-0.2267779 0.376763,-0.5066411 V 7.9980947 h 1.129762 c 0.208221,0 0.376757,-0.2262625 0.376757,-0.5061252 0,-0.2803798 -0.16853,-0.5076717 -0.376757,-0.5076717 H 14.81859 V 6.4776575 c 0,-0.2798639 -0.16853,-0.5071571 -0.376761,-0.5071571 -0.207708,0 -0.376245,0.2272932 -0.376245,0.5071571 v 0.1685357 c 0,0.1494673 -0.139669,0.3381044 -0.250998,0.3381044 -0.111834,0 -0.251516,-0.1886377 -0.251516,-0.3381044 V 5.1257558 c 0,-0.2798631 -0.16853,-0.507672 -0.376246,-0.507672 -0.208223,0 -0.377788,0.2278089 -0.377788,0.507672 v 0.1685376 c 0,0.1494673 -0.139669,0.6762076 -0.251006,0.6762076 -0.111815,0 -0.250997,-0.5267416 -0.250997,-0.6762076 V 3.4357509 c 0,-0.279863 -0.169043,-0.5076713 -0.376761,-0.5076713 -0.208223,0 -0.37676,0.2278083 -0.37676,0.5076713 V 4.280496 c -0.02576,0.1865762 -0.121125,0.3375884 -0.390675,0.3375884 -0.245332,0 -0.325218,-0.1510139 -0.350988,-0.3375884 L 10.737179,3.936722 C 10.736712,3.8867273 10.676366,3.1692876 10.660907,3.1234173 10.620713,3.0059047 10.609881,2.8806628 10.58669,2.7631509 10.552674,2.4693713 10.372281,2.2518713 10.125402,2.2085775 Z"
     fill="url(#d)"
     fill-rule="nonzero"
     id="path11"
     style="fill:#f9f9f9;fill-opacity:1;stroke-width:0.515404" />
  <text
     xml:space="preserve"
     transform="scale(0.26457812)"
     id="text3806"
     style="font-size:6.66667px;white-space:pre;shape-inside:url(#rect3808);display:inline;fill:#999999;stroke-width:2" />
</svg>
