<?xml version="1.0" encoding="UTF-8" standalone="no"?>
<svg
   width="64"
   height="64"
   version="1.1"
   viewBox="0 0 16.933 16.933"
   id="svg7"
   sodipodi:docname="com.rtosta.zapzap.svg"
   inkscape:version="1.4 (e7c3feb100, 2024-10-09)"
   xmlns:inkscape="http://www.inkscape.org/namespaces/inkscape"
   xmlns:sodipodi="http://sodipodi.sourceforge.net/DTD/sodipodi-0.dtd"
   xmlns="http://www.w3.org/2000/svg"
   xmlns:svg="http://www.w3.org/2000/svg"
   xmlns:rdf="http://www.w3.org/1999/02/22-rdf-syntax-ns#"
   xmlns:cc="http://creativecommons.org/ns#"
   xmlns:dc="http://purl.org/dc/elements/1.1/">
  <sodipodi:namedview
     id="namedview7"
     pagecolor="#9c4444"
     bordercolor="#000000"
     borderopacity="0.25"
     inkscape:showpageshadow="2"
     inkscape:pageopacity="0.0"
     inkscape:pagecheckerboard="0"
     inkscape:deskcolor="#d1d1d1"
     inkscape:zoom="6.15625"
     inkscape:cx="15.837563"
     inkscape:cy="29.725888"
     inkscape:window-width="1183"
     inkscape:window-height="941"
     inkscape:window-x="35"
     inkscape:window-y="32"
     inkscape:window-maximized="0"
     inkscape:current-layer="svg7"
     showgrid="false" />
  <defs
     id="defs2">
    <rect
       x="67.489848"
       y="35.60533"
       width="15.337563"
       height="22.51269"
       id="rect3808" />
    <filter
       style="color-interpolation-filters:sRGB;"
       inkscape:label="Blur"
       id="filter1283"
       x="-0.082344266"
       y="-0.082344266"
       width="1.1646885"
       height="1.1646885">
      <feGaussianBlur
         stdDeviation="0.5 0.5"
         result="blur"
         id="feGaussianBlur1281" />
    </filter>
    <filter
       style="color-interpolation-filters:sRGB;"
       inkscape:label="Blur"
       id="filter1694"
       x="-0.94955398"
       y="-0.2118907"
       width="2.899108"
       height="1.4237814">
      <feGaussianBlur
         stdDeviation="0.2 0.2"
         result="blur"
         id="feGaussianBlur1692" />
    </filter>
    <filter
       style="color-interpolation-filters:sRGB;"
       inkscape:label="Blur"
       id="filter3148"
       x="-0.94955398"
       y="-0.2118907"
       width="2.899108"
       height="1.4237814">
      <feGaussianBlur
         stdDeviation="0.2 0.2"
         result="blur"
         id="feGaussianBlur3146" />
    </filter>
    <clipPath
       clipPathUnits="userSpaceOnUse"
       id="clipPath44">
      <path
         id="path46"
         style="display:block;opacity:0.85;fill:#f2f2f2;stroke-width:4.39162"
         d="m 17.570312,8.4453125 a 6.5431988,7.4283052 9.9958727e-8 0 0 -6.535156,7.4394535 6.5431988,7.4283052 9.9958727e-8 0 0 6.552735,7.417968 6.5431988,7.4283052 9.9958727e-8 0 0 6.535156,-7.4375 6.5431988,7.4283052 9.9958727e-8 0 0 -6.552735,-7.4199215 z M 45.646484,41.177734 a 6.5431986,7.0703472 2.4665357e-6 0 0 -6.533203,7.080078 6.5431986,7.0703472 2.4665357e-6 0 0 6.550781,7.060547 6.5431986,7.0703472 2.4665357e-6 0 0 6.535157,-7.080078 6.5431986,7.0703472 2.4665357e-6 0 0 -6.552735,-7.060547 z" />
    </clipPath>
    <inkscape:path-effect
       effect="powerclip"
       id="path-effect48"
       is_visible="true"
       lpeversion="1"
       inverse="true"
       flatten="false"
       hide_clip="false"
       message="" />
  </defs>
  <metadata
     id="metadata2">
    <rdf:RDF>
      <cc:Work
         rdf:about="">
        <dc:format>image/svg+xml</dc:format>
        <dc:type
           rdf:resource="http://purl.org/dc/dcmitype/StillImage" />
      </cc:Work>
    </rdf:RDF>
  </metadata>
  <path
     style="fill:#f9f9f9;fill-opacity:1;stroke-width:0.0665285"
     d="M 1.8308932,15.460789 C 1.6151718,15.354009 1.4060791,15.095864 1.3302151,14.842652 1.284769,14.690975 1.3103335,14.559912 1.6035022,13.441619 1.7813859,12.763087 1.9315129,12.12809 1.93712,12.030516 1.944682,11.899017 1.9026578,11.764238 1.7747574,11.509718 1.218265,10.402307 0.99559851,9.4065826 1.0396753,8.2225584 1.0770179,7.2194261 1.27671,6.4460043 1.7398597,5.5106947 3.2249897,2.5115422 6.641349,0.89497092 10.033527,1.5862532 c 1.740489,0.3546886 3.348161,1.353465 4.428356,2.7511434 0.988282,1.2787471 1.542698,2.9737299 1.448627,4.4287845 -0.232505,3.5962949 -3.182629,6.4835939 -6.8882876,6.7415949 -1.2585797,0.08763 -2.4385236,-0.120441 -3.7674961,-0.664341 -0.1290309,-0.0528 -0.2568053,-0.02656 -1.5966905,0.328309 -0.8010392,0.212139 -1.4963522,0.385485 -1.5451402,0.385217 -0.048788,-2.7e-4 -0.1756892,-0.04353 -0.2820024,-0.09618 z m 7.2930835,-0.972918 c 1.1727073,-0.117534 2.2932553,-0.542152 3.2674523,-1.238146 0.408445,-0.291804 1.127473,-1.031907 1.421483,-1.46315 L 14.06994,11.40958 13.945965,11.37912 c -0.06821,-0.01672 -1.26118,-0.08283 -2.651078,-0.146835 -1.3899098,-0.064 -2.5320127,-0.121293 -2.5380193,-0.127291 -0.00601,-0.006 1.3706873,-0.626465 3.0593193,-1.3787932 C 13.504815,8.9738739 14.894375,8.3516672 14.904091,8.3435206 14.945853,8.3085139 14.81,7.2794448 14.713603,6.900536 14.123518,4.5810931 12.201227,2.8092221 9.7313216,2.3081183 9.1323956,2.1866059 7.7251367,2.1988077 7.1163731,2.3307899 5.9479867,2.5841027 4.8545059,3.1419759 4.0070563,3.9171043 3.7095325,4.1892384 3.2681701,4.6853094 3.2978321,4.7142411 c 0.00692,0.00675 1.19513,0.068474 2.6404675,0.1371629 1.4453377,0.068691 2.6278862,0.1369957 2.6278862,0.1517891 0,0.014801 -1.4696964,0.6827352 -3.2659914,1.484314 L 2.0342025,7.9449215 2.0586878,8.612789 c 0.059111,1.612321 0.67232,2.947442 1.890954,4.117119 1.3673933,1.312457 3.2472037,1.951115 5.1743349,1.757963 z"
     id="path6" />
  <text
     xml:space="preserve"
     transform="scale(0.26457812)"
     id="text3806"
     style="fill:#999999;stroke-width:2;font-size:6.66666667px;white-space:pre;shape-inside:url(#rect3808)" />
</svg>
