<?xml version="1.0" encoding="UTF-8" standalone="no"?>
<svg
   width="64"
   height="64"
   version="1.1"
   viewBox="0 0 16.933 16.933"
   id="svg7"
   sodipodi:docname="com.rafaelmardojai.Blanket.svg"
   inkscape:version="1.4 (e7c3feb100, 2024-10-09)"
   xmlns:inkscape="http://www.inkscape.org/namespaces/inkscape"
   xmlns:sodipodi="http://sodipodi.sourceforge.net/DTD/sodipodi-0.dtd"
   xmlns="http://www.w3.org/2000/svg"
   xmlns:svg="http://www.w3.org/2000/svg"
   xmlns:rdf="http://www.w3.org/1999/02/22-rdf-syntax-ns#"
   xmlns:cc="http://creativecommons.org/ns#"
   xmlns:dc="http://purl.org/dc/elements/1.1/">
  <sodipodi:namedview
     id="namedview7"
     pagecolor="#9c4444"
     bordercolor="#000000"
     borderopacity="0.25"
     inkscape:showpageshadow="2"
     inkscape:pageopacity="0.0"
     inkscape:pagecheckerboard="0"
     inkscape:deskcolor="#d1d1d1"
     inkscape:zoom="4.3531261"
     inkscape:cx="15.620958"
     inkscape:cy="31.012196"
     inkscape:window-width="1226"
     inkscape:window-height="669"
     inkscape:window-x="161"
     inkscape:window-y="151"
     inkscape:window-maximized="0"
     inkscape:current-layer="svg7"
     showgrid="false" />
  <defs
     id="defs2">
    <rect
       x="67.489848"
       y="35.60533"
       width="15.337563"
       height="22.51269"
       id="rect3808" />
    <filter
       style="color-interpolation-filters:sRGB;"
       inkscape:label="Blur"
       id="filter1283"
       x="-0.082344266"
       y="-0.082344266"
       width="1.1646885"
       height="1.1646885">
      <feGaussianBlur
         stdDeviation="0.5 0.5"
         result="blur"
         id="feGaussianBlur1281" />
    </filter>
    <filter
       style="color-interpolation-filters:sRGB;"
       inkscape:label="Blur"
       id="filter1694"
       x="-0.94955398"
       y="-0.2118907"
       width="2.899108"
       height="1.4237814">
      <feGaussianBlur
         stdDeviation="0.2 0.2"
         result="blur"
         id="feGaussianBlur1692" />
    </filter>
    <filter
       style="color-interpolation-filters:sRGB;"
       inkscape:label="Blur"
       id="filter3148"
       x="-0.94955398"
       y="-0.2118907"
       width="2.899108"
       height="1.4237814">
      <feGaussianBlur
         stdDeviation="0.2 0.2"
         result="blur"
         id="feGaussianBlur3146" />
    </filter>
    <clipPath
       clipPathUnits="userSpaceOnUse"
       id="clipPath44">
      <path
         id="path46"
         style="display:block;opacity:0.85;fill:#f2f2f2;stroke-width:4.39162"
         d="m 17.570312,8.4453125 a 6.5431988,7.4283052 9.9958727e-8 0 0 -6.535156,7.4394535 6.5431988,7.4283052 9.9958727e-8 0 0 6.552735,7.417968 6.5431988,7.4283052 9.9958727e-8 0 0 6.535156,-7.4375 6.5431988,7.4283052 9.9958727e-8 0 0 -6.552735,-7.4199215 z M 45.646484,41.177734 a 6.5431986,7.0703472 2.4665357e-6 0 0 -6.533203,7.080078 6.5431986,7.0703472 2.4665357e-6 0 0 6.550781,7.060547 6.5431986,7.0703472 2.4665357e-6 0 0 6.535157,-7.080078 6.5431986,7.0703472 2.4665357e-6 0 0 -6.552735,-7.060547 z" />
    </clipPath>
    <inkscape:path-effect
       effect="powerclip"
       id="path-effect48"
       is_visible="true"
       lpeversion="1"
       inverse="true"
       flatten="false"
       hide_clip="false"
       message="" />
  </defs>
  <metadata
     id="metadata2">
    <rdf:RDF>
      <cc:Work
         rdf:about="">
        <dc:format>image/svg+xml</dc:format>
        <dc:type
           rdf:resource="http://purl.org/dc/dcmitype/StillImage" />
      </cc:Work>
    </rdf:RDF>
  </metadata>
  <g
     id="g4"
     transform="matrix(0.02938054,0,0,0.02938054,1.680612,1.2844593)"
     style="fill:#f9f9f9;stroke:#ffffff;stroke-width:17.1099;stroke-dasharray:none;stroke-opacity:1">
    <path
       d="M 464.721,51.671 C 464.721,23.179 441.541,0 413.05,0 H 56.95 C 28.459,0 5.279,23.179 5.279,51.671 v 311.404 c 0,25.944 19.222,47.475 44.171,51.12 v 13.179 H 12.779 c -4.143,0 -7.5,3.358 -7.5,7.5 0,4.142 3.357,7.5 7.5,7.5 H 49.45 V 455 H 12.779 c -4.143,0 -7.5,3.358 -7.5,7.5 0,4.142 3.357,7.5 7.5,7.5 H 56.95 401.074 c 28.491,0 51.671,-23.18 51.671,-51.671 v -77.34 c 0,-0.03 -0.004,-0.058 -0.004,-0.088 7.474,-8.963 11.98,-20.484 11.98,-33.04 z M 401.074,455 H 64.45 v -40.255 h 320.06 c 13.27,0 24.064,-10.795 24.064,-24.064 0,-4.142 -3.357,-7.5 -7.5,-7.5 -4.143,0 -7.5,3.358 -7.5,7.5 0,4.998 -4.066,9.064 -9.064,9.064 H 56.95 c -20.221,0 -36.671,-16.45 -36.671,-36.67 V 51.671 C 20.279,31.45 36.729,15 56.95,15 h 356.1 c 20.221,0 36.671,16.45 36.671,36.671 v 256.19 c 0,20.22 -16.45,36.67 -36.671,36.67 H 73.515 c -13.27,0 -24.064,10.795 -24.064,24.064 0,4.142 3.357,7.5 7.5,7.5 4.143,0 7.5,-3.358 7.5,-7.5 0,-4.998 4.066,-9.064 9.064,-9.064 H 413.05 c 8.939,0 17.354,-2.284 24.695,-6.295 v 65.093 c 0,20.22 -16.45,36.671 -36.671,36.671 z"
       id="path1"
       style="fill:#f9f9f9;stroke:#ffffff;stroke-width:17.1099;stroke-dasharray:none;stroke-opacity:1" />
    <path
       d="m 403.394,108.5 c 4.411,0 8,-3.589 8,-8 0,-4.411 -3.589,-8 -8,-8 -4.411,0 -8,3.589 -8,8 0,4.411 3.588,8 8,8 z"
       id="path2"
       style="fill:#f9f9f9;stroke:#ffffff;stroke-width:17.1099;stroke-dasharray:none;stroke-opacity:1" />
    <path
       d="m 107.394,277.116 c 4.411,0 8,-3.589 8,-8 0,-4.411 -3.589,-8 -8,-8 -4.411,0 -8,3.589 -8,8 0,4.411 3.588,8 8,8 z"
       id="path3"
       style="fill:#f9f9f9;stroke:#ffffff;stroke-width:17.1099;stroke-dasharray:none;stroke-opacity:1" />
    <path
       d="m 82.394,251.116 c 4.411,0 8,-3.589 8,-8 0,-4.411 -3.589,-8 -8,-8 -4.411,0 -8,3.589 -8,8 0,4.411 3.588,8 8,8 z"
       id="path4"
       style="fill:#f9f9f9;stroke:#ffffff;stroke-width:17.1099;stroke-dasharray:none;stroke-opacity:1" />
  </g>
  <text
     xml:space="preserve"
     transform="scale(0.26457812)"
     id="text3806"
     style="font-size:6.66667px;white-space:pre;shape-inside:url(#rect3808);display:inline;fill:#999999;stroke-width:2" />
</svg>
