<?xml version="1.0" encoding="UTF-8" standalone="no"?>
<svg
   width="64"
   height="64"
   version="1.1"
   viewBox="0 0 16.933 16.933"
   id="svg7"
   sodipodi:docname="com.tracktion.Waveform.svg"
   inkscape:version="1.4 (e7c3feb100, 2024-10-09)"
   xmlns:inkscape="http://www.inkscape.org/namespaces/inkscape"
   xmlns:sodipodi="http://sodipodi.sourceforge.net/DTD/sodipodi-0.dtd"
   xmlns="http://www.w3.org/2000/svg"
   xmlns:svg="http://www.w3.org/2000/svg"
   xmlns:rdf="http://www.w3.org/1999/02/22-rdf-syntax-ns#"
   xmlns:cc="http://creativecommons.org/ns#"
   xmlns:dc="http://purl.org/dc/elements/1.1/">
  <sodipodi:namedview
     id="namedview7"
     pagecolor="#9c4444"
     bordercolor="#000000"
     borderopacity="0.25"
     inkscape:showpageshadow="2"
     inkscape:pageopacity="0.0"
     inkscape:pagecheckerboard="0"
     inkscape:deskcolor="#d1d1d1"
     inkscape:zoom="4.3531261"
     inkscape:cx="36.180895"
     inkscape:cy="29.748736"
     inkscape:window-width="1183"
     inkscape:window-height="940"
     inkscape:window-x="35"
     inkscape:window-y="32"
     inkscape:window-maximized="0"
     inkscape:current-layer="svg7"
     showgrid="false" />
  <defs
     id="defs2">
    <rect
       x="67.489848"
       y="35.60533"
       width="15.337563"
       height="22.51269"
       id="rect3808" />
    <filter
       style="color-interpolation-filters:sRGB;"
       inkscape:label="Blur"
       id="filter1283"
       x="-0.082344266"
       y="-0.082344266"
       width="1.1646885"
       height="1.1646885">
      <feGaussianBlur
         stdDeviation="0.5 0.5"
         result="blur"
         id="feGaussianBlur1281" />
    </filter>
    <filter
       style="color-interpolation-filters:sRGB;"
       inkscape:label="Blur"
       id="filter1694"
       x="-0.94955398"
       y="-0.2118907"
       width="2.899108"
       height="1.4237814">
      <feGaussianBlur
         stdDeviation="0.2 0.2"
         result="blur"
         id="feGaussianBlur1692" />
    </filter>
    <filter
       style="color-interpolation-filters:sRGB;"
       inkscape:label="Blur"
       id="filter3148"
       x="-0.94955398"
       y="-0.2118907"
       width="2.899108"
       height="1.4237814">
      <feGaussianBlur
         stdDeviation="0.2 0.2"
         result="blur"
         id="feGaussianBlur3146" />
    </filter>
    <clipPath
       clipPathUnits="userSpaceOnUse"
       id="clipPath44">
      <path
         id="path46"
         style="display:block;opacity:0.85;fill:#f2f2f2;stroke-width:4.39162"
         d="m 17.570312,8.4453125 a 6.5431988,7.4283052 9.9958727e-8 0 0 -6.535156,7.4394535 6.5431988,7.4283052 9.9958727e-8 0 0 6.552735,7.417968 6.5431988,7.4283052 9.9958727e-8 0 0 6.535156,-7.4375 6.5431988,7.4283052 9.9958727e-8 0 0 -6.552735,-7.4199215 z M 45.646484,41.177734 a 6.5431986,7.0703472 2.4665357e-6 0 0 -6.533203,7.080078 6.5431986,7.0703472 2.4665357e-6 0 0 6.550781,7.060547 6.5431986,7.0703472 2.4665357e-6 0 0 6.535157,-7.080078 6.5431986,7.0703472 2.4665357e-6 0 0 -6.552735,-7.060547 z" />
    </clipPath>
    <inkscape:path-effect
       effect="powerclip"
       id="path-effect48"
       is_visible="true"
       lpeversion="1"
       inverse="true"
       flatten="false"
       hide_clip="false"
       message="" />
    <clipPath
       clipPathUnits="userSpaceOnUse"
       id="clipPath345">
      <path
         id="path347"
         style="display:block;fill:#984ee5;stroke-width:1.07356"
         d="m 32.234375,8.234375 c -2.071427,0 -2.999823,0.082078 -4.527344,0.3984375 -1.262601,0.2615573 -3.305763,0.8482889 -3.58789,1.03125 -0.07153,0.046353 0.748318,0.9124865 3.966797,4.1816405 2.231977,2.267115 4.098646,4.121094 4.148437,4.121094 0.04983,0 1.916472,-1.853979 4.148437,-4.121094 3.218477,-3.269154 4.040283,-4.1352621 3.96875,-4.1816405 C 40.069438,9.4811014 38.024333,8.8943698 36.761719,8.6328125 35.234213,8.3164085 34.305805,8.234375 32.234375,8.234375 Z m 14.017578,4.621094 c -0.09727,-0.04015 -9.568359,9.550759 -9.568359,9.689453 0,0.100542 4.741395,4.945312 4.839844,4.945312 0.0336,0 0.480046,-0.426497 0.992187,-0.949218 0.512158,-0.522723 1.547656,-1.555662 2.298828,-2.294922 l 1.365235,-1.34375 0.248046,0.386718 c 0.610309,0.952702 1.395161,2.771873 1.765625,4.091797 0.455896,1.624311 0.605469,2.773152 0.605469,4.658203 0,1.605306 -0.04901,2.142215 -0.308594,3.40625 -0.280519,1.366043 -0.68426,2.592593 -1.255859,3.8125 -0.407879,0.870484 -0.973167,1.845704 -1.068359,1.845704 -0.04015,0 -3.19085,-3.165622 -7.001954,-7.035157 l -6.929687,-7.035156 -6.929687,7.035156 c -3.811088,3.869535 -6.961756,7.035157 -7.001954,7.035157 -0.09518,0 -0.658527,-0.97522 -1.066406,-1.845704 -0.7316,-1.561433 -1.231815,-3.284464 -1.484375,-5.113281 -0.106777,-0.77327 -0.106777,-3.439602 0,-4.21289 0.179289,-1.298215 0.488482,-2.563459 0.923828,-3.78125 0.281993,-0.788854 0.994777,-2.279984 1.367188,-2.861329 l 0.248047,-0.386718 1.304687,1.283203 c 0.718097,0.705668 1.751644,1.736689 2.296875,2.292969 0.545245,0.556282 1.019451,1.011718 1.052734,1.011718 0.09846,0 4.839844,-4.842813 4.839844,-4.943359 0,-0.05058 -2.135848,-2.261897 -4.748047,-4.914063 -4.59166,-4.66192 -4.755685,-4.821059 -4.886718,-4.738281 -0.266005,0.168061 -1.293949,1.041429 -1.90625,1.617188 -5.5284,5.198456 -8.2801152,12.929583 -7.3027348,20.521484 0.4987742,3.874139 1.9297378,7.57391 4.1660158,10.771485 0.796307,1.138624 1.388139,1.838073 2.558594,3.023437 1.030147,1.043254 2.433946,2.283533 2.589843,2.287109 0.03272,7.41e-4 3.171296,-3.15833 6.97461,-7.019531 3.803294,-3.861201 6.954445,-7.021484 7.003906,-7.021484 0.04953,0 3.175653,3.13324 6.945313,6.96289 3.769655,3.829665 6.902839,6.991482 6.96289,7.025391 0.270599,0.152782 3.174713,-2.59268 4.416016,-4.173828 2.133904,-2.718144 3.677243,-5.901776 4.486328,-9.263672 0.800661,-3.326974 0.885655,-6.970642 0.240234,-10.255859 -0.972934,-4.952282 -3.441948,-9.438145 -7.08789,-12.878907 -0.611455,-0.57704 -1.797581,-1.573773 -1.945313,-1.634765 z M 32.234375,46.140625 c -0.04968,0 -1.883319,1.830397 -4.076172,4.068359 l -3.988281,4.070313 0.349609,0.132812 c 1.646226,0.629203 4.318998,1.162562 6.400391,1.277344 1.255387,0.06915 1.30185,0.07022 2.486328,0.0039 1.30079,-0.07263 2.214142,-0.188395 3.458984,-0.435547 0.919694,-0.182602 2.424589,-0.596146 3.091797,-0.849609 l 0.341797,-0.1289 -3.986328,-4.070313 c -2.192839,-2.237962 -4.028528,-4.068359 -4.078125,-4.068359 z" />
    </clipPath>
    <inkscape:path-effect
       effect="powerclip"
       id="path-effect349"
       is_visible="true"
       lpeversion="1"
       inverse="true"
       flatten="false"
       hide_clip="false"
       message="" />
  </defs>
  <metadata
     id="metadata2">
    <rdf:RDF>
      <cc:Work
         rdf:about="">
        <dc:format>image/svg+xml</dc:format>
        <dc:type
           rdf:resource="http://purl.org/dc/dcmitype/StillImage" />
      </cc:Work>
    </rdf:RDF>
  </metadata>
  <path
     style="fill:#f9f9f9;stroke-width:0.0816569"
     d="M 7.8266033,15.678399 C 7.4706561,15.646624 6.7562362,15.491451 6.3437175,15.356319 4.7959406,14.849304 3.5075858,13.86742 2.5980843,12.501685 1.0060796,10.111082 0.96346032,7.0167371 2.4891052,4.5893472 4.4530968,1.4645213 8.4134601,0.33435574 11.686966,1.9645611 c 2.005115,0.998548 3.428145,2.8773106 3.883624,5.1273736 0.0824,0.4070586 0.09504,0.5890273 0.09504,1.367748 0,0.7752821 -0.01292,0.9615585 -0.09375,1.3609619 -0.561026,2.7691204 -2.569016,4.9430034 -5.213928,5.6446814 -0.7680935,0.203769 -1.7293032,0.284677 -2.5313545,0.213073 z m 1.7964452,-1.600315 c 0.4828875,-0.0992 0.8448095,-0.216345 0.8382215,-0.271333 -0.0077,-0.06403 -1.8861486,-1.937905 -1.942655,-1.937905 -0.051234,0 -1.897226,1.880814 -1.910142,1.946172 -0.014003,0.07081 0.6834161,0.255328 1.2843151,0.339786 0.402955,0.05664 1.267702,0.01824 1.7302604,-0.07672 z m 0.5755975,-2.688971 c 0.90969,0.915065 1.680725,1.663752 1.713409,1.663752 0.07125,0 0.574543,-0.460357 0.890824,-0.814819 0.632467,-0.708817 1.135148,-1.780778 1.312311,-2.798484 C 14.217106,8.8541269 14.209297,7.9386653 14.09752,7.3752169 13.891292,6.3345643 13.484122,5.4901737 12.792596,4.6689017 12.521531,4.3469781 11.992961,3.8664994 11.909881,3.8664994 c -0.06302,0 -2.3072461,2.2608969 -2.3072461,2.3243895 0,0.063103 1.0983291,1.186844 1.1600041,1.186844 0.02383,0 0.284928,-0.2410952 0.580208,-0.535767 l 0.536872,-0.5357663 0.112043,0.1911941 c 0.06162,0.1051574 0.164901,0.3273102 0.229501,0.4936742 0.209319,0.5390655 0.254476,0.8012077 0.2565,1.4890294 0.0017,0.5678386 -0.0097,0.6741778 -0.109915,1.0353195 -0.109345,0.3937269 -0.41485,1.0877522 -0.478814,1.0877522 -0.01767,0 -0.78031,-0.757217 -1.694613,-1.6827034 L 8.5320516,7.2377616 6.8728221,8.9224266 C 5.960246,9.8489924 5.1986477,10.606209 5.1803823,10.60513 5.1198519,10.601561 4.7922518,9.853594 4.6966974,9.5008043 4.6155457,9.20119 4.6028678,9.0589118 4.6039268,8.4596827 4.6049826,7.8733262 4.6190128,7.7158322 4.6944422,7.444929 4.7841287,7.122826 5.122666,6.3570253 5.1753708,6.3570253 c 0.015504,0 0.2652413,0.2296593 0.5549579,0.5103541 0.2897168,0.2806942 0.5521318,0.5103535 0.5831438,0.5103535 0.058028,0 1.166091,-1.130239 1.166091,-1.1894278 0,-0.018164 -0.5102912,-0.5505673 -1.1339806,-1.1830986 C 5.3372664,3.9825957 5.2010362,3.8585025 5.1162616,3.885409 5.0638241,3.9020534 4.8246035,4.111299 4.5846595,4.3504025 3.7355366,5.1965515 3.1756125,6.2575548 2.959436,7.4300477 2.8621221,7.9578568 2.8628027,9.0322823 2.960743,9.5008043 3.247179,10.870974 3.8759568,11.978221 4.850041,12.827765 L 5.1642693,13.101819 6.854465,11.413589 8.5446604,9.7253601 Z M 9.5323134,4.1197242 C 10.065012,3.5853312 10.500857,3.128521 10.500857,3.1045901 10.500857,3.0614734 9.972365,2.8999506 9.5005635,2.7988716 9.1341029,2.7203598 7.8665929,2.7334299 7.4795629,2.8197089 6.9239102,2.9435794 6.5770755,3.0593975 6.5897988,3.1168257 c 0.017214,0.077687 1.8664926,1.9745209 1.9250213,1.9745209 0.026925,0 0.4847943,-0.4372309 1.0174933,-0.9716224 z"
     id="path1" />
  <text
     xml:space="preserve"
     transform="scale(0.26457812)"
     id="text3806"
     style="font-size:6.66667px;white-space:pre;shape-inside:url(#rect3808);display:inline;fill:#999999;stroke-width:2" />
</svg>
