<?xml version="1.0" encoding="UTF-8" standalone="no"?>
<svg
   width="64"
   height="64"
   version="1.1"
   viewBox="0 0 16.933 16.933"
   id="svg7"
   sodipodi:docname="com.notepadqq.Notepadqq.svg"
   inkscape:version="1.4 (e7c3feb100, 2024-10-09)"
   xmlns:inkscape="http://www.inkscape.org/namespaces/inkscape"
   xmlns:sodipodi="http://sodipodi.sourceforge.net/DTD/sodipodi-0.dtd"
   xmlns="http://www.w3.org/2000/svg"
   xmlns:svg="http://www.w3.org/2000/svg"
   xmlns:rdf="http://www.w3.org/1999/02/22-rdf-syntax-ns#"
   xmlns:cc="http://creativecommons.org/ns#"
   xmlns:dc="http://purl.org/dc/elements/1.1/">
  <sodipodi:namedview
     id="namedview7"
     pagecolor="#9c4444"
     bordercolor="#000000"
     borderopacity="0.25"
     inkscape:showpageshadow="2"
     inkscape:pageopacity="0.0"
     inkscape:pagecheckerboard="0"
     inkscape:deskcolor="#d1d1d1"
     inkscape:zoom="6.15625"
     inkscape:cx="15.51269"
     inkscape:cy="29.725888"
     inkscape:window-width="1183"
     inkscape:window-height="941"
     inkscape:window-x="35"
     inkscape:window-y="32"
     inkscape:window-maximized="0"
     inkscape:current-layer="svg7"
     showgrid="false" />
  <defs
     id="defs2">
    <rect
       x="67.489848"
       y="35.60533"
       width="15.337563"
       height="22.51269"
       id="rect3808" />
    <filter
       style="color-interpolation-filters:sRGB;"
       inkscape:label="Blur"
       id="filter1283"
       x="-0.082344266"
       y="-0.082344266"
       width="1.1646885"
       height="1.1646885">
      <feGaussianBlur
         stdDeviation="0.5 0.5"
         result="blur"
         id="feGaussianBlur1281" />
    </filter>
    <filter
       style="color-interpolation-filters:sRGB;"
       inkscape:label="Blur"
       id="filter1694"
       x="-0.94955398"
       y="-0.2118907"
       width="2.899108"
       height="1.4237814">
      <feGaussianBlur
         stdDeviation="0.2 0.2"
         result="blur"
         id="feGaussianBlur1692" />
    </filter>
    <filter
       style="color-interpolation-filters:sRGB;"
       inkscape:label="Blur"
       id="filter3148"
       x="-0.94955398"
       y="-0.2118907"
       width="2.899108"
       height="1.4237814">
      <feGaussianBlur
         stdDeviation="0.2 0.2"
         result="blur"
         id="feGaussianBlur3146" />
    </filter>
    <clipPath
       clipPathUnits="userSpaceOnUse"
       id="clipPath44">
      <path
         id="path46"
         style="display:block;opacity:0.85;fill:#f2f2f2;stroke-width:4.39162"
         d="m 17.570312,8.4453125 a 6.5431988,7.4283052 9.9958727e-8 0 0 -6.535156,7.4394535 6.5431988,7.4283052 9.9958727e-8 0 0 6.552735,7.417968 6.5431988,7.4283052 9.9958727e-8 0 0 6.535156,-7.4375 6.5431988,7.4283052 9.9958727e-8 0 0 -6.552735,-7.4199215 z M 45.646484,41.177734 a 6.5431986,7.0703472 2.4665357e-6 0 0 -6.533203,7.080078 6.5431986,7.0703472 2.4665357e-6 0 0 6.550781,7.060547 6.5431986,7.0703472 2.4665357e-6 0 0 6.535157,-7.080078 6.5431986,7.0703472 2.4665357e-6 0 0 -6.552735,-7.060547 z" />
    </clipPath>
    <inkscape:path-effect
       effect="powerclip"
       id="path-effect48"
       is_visible="true"
       lpeversion="1"
       inverse="true"
       flatten="false"
       hide_clip="false"
       message="" />
    <clipPath
       clipPathUnits="userSpaceOnUse"
       id="clipPath11003">
      <path
         d="m 29.096463,29.518749 c -0.769242,0.797452 -0.746529,2.058727 0.05092,2.827967 l 1.439448,1.388522 c 0.797454,0.769241 2.058728,0.746528 2.827968,-0.05092 l 1.388523,-1.439446 1.439447,1.388522 0.694261,-0.719723 -5.757786,-5.554087 z m 4.859826,-5.038065 c -0.769241,0.797454 -0.746529,2.058728 0.05092,2.827969 l 1.439446,1.388521 c 0.797454,0.769241 2.05873,0.746528 2.82797,-0.05092 l 1.388521,-1.439447 1.439449,1.388523 0.69426,-0.719724 -5.757788,-5.554088 z M 22.848115,35.996259 27.166455,40.161823 27.860717,39.4421 24.2621,35.970795 25.650621,34.53135 c 0.38462,-0.398727 1.015257,-0.410084 1.413984,-0.02547 l 2.878894,2.777043 0.69426,-0.719723 -2.878893,-2.777044 c -0.719723,-0.69426 -2.133708,-0.668797 -2.827968,0.05092 z m 6.968071,-5.783251 1.388522,-1.439447 2.878894,2.777044 -1.388523,1.439447 c -0.34713,0.359863 -1.070675,0.356625 -1.413984,0.02547 l -1.439447,-1.388531 c -0.359861,-0.347129 -0.372592,-1.054121 -0.02547,-1.413984 z m 4.859826,-5.038062 1.388522,-1.439448 2.878893,2.777043 -1.388521,1.439447 c -0.347131,0.359861 -1.070675,0.356625 -1.413985,0.02547 l -1.439446,-1.388521 c -0.359862,-0.34713 -0.372592,-1.054122 -0.02546,-1.413983 z"
         fill="#ffffff"
         id="path11005"
         style="display:none;fill:#202833;fill-opacity:1;stroke-width:1" />
      <path
         id="lpe_path-effect11007"
         style="fill:#202833;fill-opacity:1;stroke-width:1"
         class="powerclip"
         d="M 8.094175,7.858363 H 56.829929 V 56.621039 H 8.094175 Z m 21.002288,21.660386 c -0.769242,0.797452 -0.746529,2.058727 0.05092,2.827967 l 1.439448,1.388522 c 0.797454,0.769241 2.058728,0.746528 2.827968,-0.05092 l 1.388523,-1.439446 1.439447,1.388522 0.694261,-0.719723 -5.757786,-5.554087 z m 4.859826,-5.038065 c -0.769241,0.797454 -0.746529,2.058728 0.05092,2.827969 l 1.439446,1.388521 c 0.797454,0.769241 2.05873,0.746528 2.82797,-0.05092 l 1.388521,-1.439447 1.439449,1.388523 0.69426,-0.719724 -5.757788,-5.554088 z M 22.848115,35.996259 27.166455,40.161823 27.860717,39.4421 24.2621,35.970795 25.650621,34.53135 c 0.38462,-0.398727 1.015257,-0.410084 1.413984,-0.02547 l 2.878894,2.777043 0.69426,-0.719723 -2.878893,-2.777044 c -0.719723,-0.69426 -2.133708,-0.668797 -2.827968,0.05092 z m 6.968071,-5.783251 -8e-6,-10e-7 c -0.347122,0.359863 -0.334391,1.066855 0.02547,1.413984 l 1.439447,1.388531 c 0.343309,0.331155 1.066854,0.334393 1.413984,-0.02547 l 1.388523,-1.439447 -2.878894,-2.777044 z m 4.859826,-5.038062 3e-6,8e-6 c -0.347132,0.359861 -0.334402,1.066853 0.02546,1.413983 l 1.439446,1.388521 c 0.34331,0.331155 1.066854,0.334391 1.413985,-0.02547 l 1.388521,-1.439447 -2.878893,-2.777043 z" />
    </clipPath>
    <inkscape:path-effect
       effect="powerclip"
       id="path-effect11007"
       is_visible="true"
       lpeversion="1"
       inverse="true"
       flatten="false"
       hide_clip="false"
       message="" />
  </defs>
  <metadata
     id="metadata2">
    <rdf:RDF>
      <cc:Work
         rdf:about="">
        <dc:format>image/svg+xml</dc:format>
        <dc:type
           rdf:resource="http://purl.org/dc/dcmitype/StillImage" />
      </cc:Work>
    </rdf:RDF>
  </metadata>
  <path
     id="path17"
     style="fill:#f9f9f9;fill-opacity:1;stroke-width:0.206377;stroke-opacity:0.3"
     d="m 44.290921,12.858379 c -0.260843,0.0014 -0.507997,0.0934 -0.794061,0.243183 -0.320435,0.167771 -6.844491,6.58841 -14.499094,14.26583 l -13.918435,13.95813 4.215982,4.220941 c 2.31902,2.321091 4.280188,4.194984 4.357418,4.166345 0.07722,-0.02882 6.354797,-6.319892 13.950695,-13.982944 14.370427,-14.497493 14.573213,-14.725775 14.107018,-15.91103 -0.106887,-0.27174 -1.573889,-1.903693 -3.258136,-3.625393 -2.471246,-2.526197 -3.378817,-3.339235 -4.161387,-3.335062 z M 13.094175,43.705228 v 3.957906 3.957905 h 3.737061 3.739537 l -0.786619,-0.875948 c -0.431937,-0.482404 -2.112691,-2.263079 -3.73706,-3.957906 z"
     clip-path="url(#clipPath11003)"
     inkscape:path-effect="#path-effect11007"
     inkscape:original-d="m 44.290921,12.858379 c -0.260843,0.0014 -0.507997,0.0934 -0.794061,0.243183 -0.320435,0.167771 -6.844491,6.58841 -14.499094,14.26583 l -13.918435,13.95813 4.215982,4.220941 c 2.31902,2.321091 4.280188,4.194984 4.357418,4.166345 0.07722,-0.02882 6.354797,-6.319892 13.950695,-13.982944 14.370427,-14.497493 14.573213,-14.725775 14.107018,-15.91103 -0.106887,-0.27174 -1.573889,-1.903693 -3.258136,-3.625393 -2.471246,-2.526197 -3.378817,-3.339235 -4.161387,-3.335062 z M 13.094175,43.705228 v 3.957906 3.957905 h 3.737061 3.739537 l -0.786619,-0.875948 c -0.431937,-0.482404 -2.112691,-2.263079 -3.73706,-3.957906 z"
     transform="matrix(0.36280249,0,0,0.36280249,-3.1722631,-3.1621143)" />
  <g
     fill="#474747"
     id="g9"
     transform="matrix(0.46959567,0,0,0.46959567,4.7471229,3.7470598)"
     style="fill:#999999;fill-opacity:1;stroke:none;stroke-width:0.58349;stroke-dasharray:none;stroke-opacity:0.3" />
  <text
     xml:space="preserve"
     transform="scale(0.26457812)"
     id="text3806"
     style="font-size:6.66667px;white-space:pre;shape-inside:url(#rect3808);display:inline;fill:#999999;stroke-width:2" />
</svg>
