<?xml version="1.0" encoding="UTF-8" standalone="no"?>
<svg
   width="64"
   height="64"
   version="1.1"
   viewBox="0 0 16.933 16.933"
   id="svg7"
   sodipodi:docname="com.slack.Slack.svg"
   inkscape:version="1.4 (e7c3feb100, 2024-10-09)"
   xmlns:inkscape="http://www.inkscape.org/namespaces/inkscape"
   xmlns:sodipodi="http://sodipodi.sourceforge.net/DTD/sodipodi-0.dtd"
   xmlns="http://www.w3.org/2000/svg"
   xmlns:svg="http://www.w3.org/2000/svg"
   xmlns:rdf="http://www.w3.org/1999/02/22-rdf-syntax-ns#"
   xmlns:cc="http://creativecommons.org/ns#"
   xmlns:dc="http://purl.org/dc/elements/1.1/">
  <sodipodi:namedview
     id="namedview7"
     pagecolor="#9c4444"
     bordercolor="#000000"
     borderopacity="0.25"
     inkscape:showpageshadow="2"
     inkscape:pageopacity="0.0"
     inkscape:pagecheckerboard="0"
     inkscape:deskcolor="#d1d1d1"
     inkscape:zoom="6.15625"
     inkscape:cx="40.527919"
     inkscape:cy="29.725888"
     inkscape:window-width="1183"
     inkscape:window-height="941"
     inkscape:window-x="35"
     inkscape:window-y="32"
     inkscape:window-maximized="0"
     inkscape:current-layer="svg7"
     showgrid="false" />
  <defs
     id="defs2">
    <rect
       x="67.489848"
       y="35.60533"
       width="15.337563"
       height="22.51269"
       id="rect3808" />
    <filter
       style="color-interpolation-filters:sRGB;"
       inkscape:label="Blur"
       id="filter1283"
       x="-0.082344266"
       y="-0.082344266"
       width="1.1646885"
       height="1.1646885">
      <feGaussianBlur
         stdDeviation="0.5 0.5"
         result="blur"
         id="feGaussianBlur1281" />
    </filter>
    <filter
       style="color-interpolation-filters:sRGB;"
       inkscape:label="Blur"
       id="filter1694"
       x="-0.94955398"
       y="-0.2118907"
       width="2.899108"
       height="1.4237814">
      <feGaussianBlur
         stdDeviation="0.2 0.2"
         result="blur"
         id="feGaussianBlur1692" />
    </filter>
    <filter
       style="color-interpolation-filters:sRGB;"
       inkscape:label="Blur"
       id="filter3148"
       x="-0.94955398"
       y="-0.2118907"
       width="2.899108"
       height="1.4237814">
      <feGaussianBlur
         stdDeviation="0.2 0.2"
         result="blur"
         id="feGaussianBlur3146" />
    </filter>
    <clipPath
       clipPathUnits="userSpaceOnUse"
       id="clipPath44">
      <path
         id="path46"
         style="display:block;opacity:0.85;fill:#f2f2f2;stroke-width:4.39162"
         d="m 17.570312,8.4453125 a 6.5431988,7.4283052 9.9958727e-8 0 0 -6.535156,7.4394535 6.5431988,7.4283052 9.9958727e-8 0 0 6.552735,7.417968 6.5431988,7.4283052 9.9958727e-8 0 0 6.535156,-7.4375 6.5431988,7.4283052 9.9958727e-8 0 0 -6.552735,-7.4199215 z M 45.646484,41.177734 a 6.5431986,7.0703472 2.4665357e-6 0 0 -6.533203,7.080078 6.5431986,7.0703472 2.4665357e-6 0 0 6.550781,7.060547 6.5431986,7.0703472 2.4665357e-6 0 0 6.535157,-7.080078 6.5431986,7.0703472 2.4665357e-6 0 0 -6.552735,-7.060547 z" />
    </clipPath>
    <inkscape:path-effect
       effect="powerclip"
       id="path-effect48"
       is_visible="true"
       lpeversion="1"
       inverse="true"
       flatten="false"
       hide_clip="false"
       message="" />
  </defs>
  <metadata
     id="metadata2">
    <rdf:RDF>
      <cc:Work
         rdf:about="">
        <dc:format>image/svg+xml</dc:format>
        <dc:type
           rdf:resource="http://purl.org/dc/dcmitype/StillImage" />
      </cc:Work>
    </rdf:RDF>
  </metadata>
  <g
     id="g2"
     transform="matrix(0.24043911,0,0,0.24043911,0.77057915,0.8298063)"
     style="fill:#f9f9f9;fill-opacity:1">
    <path
       style="fill:#f9f9f9;fill-opacity:1;stroke-width:1.44395"
       d="m 55.603348,18.384642 a 5.7408003,5.8110043 0 0 1 5.7408,5.811004 5.7408003,5.8110043 0 0 1 -5.7408,5.811004 h -5.740801 v -5.811004 a 5.7408003,5.8110043 0 0 1 5.740801,-5.811004 z M 39.816147,2.4043797 a 5.7408003,5.8110043 0 0 0 -5.7408,5.8110043 v 15.980262 a 5.7408003,5.8110043 0 0 0 5.7408,5.811004 5.7408003,5.8110043 0 0 0 5.7408,-5.811004 V 8.215384 a 5.7408003,5.8110043 0 0 0 -5.7408,-5.8110043 z"
       id="path10" />
    <path
       style="fill:#f9f9f9;fill-opacity:1;stroke-width:1.44395"
       d="m 39.816147,61.967173 a 5.7408003,5.8110043 0 0 0 5.7408,-5.811004 5.7408003,5.8110043 0 0 0 -5.7408,-5.811004 h -5.7408 v 5.811004 a 5.7408003,5.8110043 0 0 0 5.7408,5.811004 z M 61.344148,40.175908 a 5.7408003,5.8110043 0 0 0 -5.7408,-5.811005 H 39.816147 a 5.7408003,5.8110043 0 0 0 -5.7408,5.811005 5.7408003,5.8110043 0 0 0 5.7408,5.811004 h 15.787201 a 5.7408003,5.8110043 0 0 0 5.7408,-5.811004 z"
       id="path12" />
    <path
       style="fill:#f9f9f9;fill-opacity:1;stroke-width:1.44395"
       d="M 8.2417447,45.986912 A 5.7408003,5.8110043 0 0 1 2.5009446,40.175908 5.7408003,5.8110043 0 0 1 8.2417447,34.364903 h 5.7408003 v 5.811005 A 5.7408003,5.8110043 0 0 1 8.2417447,45.986912 Z M 24.028946,34.364903 a 5.7408003,5.8110043 0 0 0 -5.7408,5.811005 v 15.980261 a 5.7408003,5.8110043 0 0 0 5.7408,5.811004 5.7408003,5.8110043 0 0 0 5.7408,-5.811004 V 40.175908 a 5.7408003,5.8110043 0 0 0 -5.7408,-5.811005 z"
       id="path14" />
    <path
       style="fill:#f9f9f9;fill-opacity:1;stroke-width:1.44395"
       d="m 29.769746,24.195646 a 5.7408003,5.8110043 0 0 0 -5.7408,-5.811004 H 8.2417447 A 5.7408003,5.8110043 0 0 0 2.5009446,24.195646 5.7408003,5.8110043 0 0 0 8.2417447,30.00665 H 24.028946 a 5.7408003,5.8110043 0 0 0 5.7408,-5.811004 z m -5.7408,-21.7912663 a 5.7408003,5.8110043 0 0 0 -5.7408,5.8110043 5.7408003,5.8110043 0 0 0 5.7408,5.811004 h 5.7408 V 8.215384 a 5.7408003,5.8110043 0 0 0 -5.7408,-5.8110043 z"
       id="path16" />
  </g>
  <text
     xml:space="preserve"
     transform="scale(0.26457812)"
     id="text3806"
     style="fill:#999999;stroke-width:2;font-size:6.66666667px;white-space:pre;shape-inside:url(#rect3808)" />
</svg>
