<?xml version="1.0" encoding="UTF-8" standalone="no"?>
<svg
   width="64"
   height="64"
   version="1.1"
   viewBox="0 0 16.933 16.933"
   id="svg7"
   sodipodi:docname="de.haeckerfelix.Fragments.svg"
   inkscape:version="1.4 (e7c3feb100, 2024-10-09)"
   xmlns:inkscape="http://www.inkscape.org/namespaces/inkscape"
   xmlns:sodipodi="http://sodipodi.sourceforge.net/DTD/sodipodi-0.dtd"
   xmlns="http://www.w3.org/2000/svg"
   xmlns:svg="http://www.w3.org/2000/svg"
   xmlns:rdf="http://www.w3.org/1999/02/22-rdf-syntax-ns#"
   xmlns:cc="http://creativecommons.org/ns#"
   xmlns:dc="http://purl.org/dc/elements/1.1/">
  <sodipodi:namedview
     id="namedview7"
     pagecolor="#9c4444"
     bordercolor="#000000"
     borderopacity="0.25"
     inkscape:showpageshadow="2"
     inkscape:pageopacity="0.0"
     inkscape:pagecheckerboard="0"
     inkscape:deskcolor="#d1d1d1"
     inkscape:zoom="6.15625"
     inkscape:cx="15.837563"
     inkscape:cy="29.725888"
     inkscape:window-width="1183"
     inkscape:window-height="941"
     inkscape:window-x="35"
     inkscape:window-y="32"
     inkscape:window-maximized="0"
     inkscape:current-layer="svg7"
     showgrid="false" />
  <defs
     id="defs2">
    <rect
       x="67.489848"
       y="35.60533"
       width="15.337563"
       height="22.51269"
       id="rect3808" />
    <filter
       style="color-interpolation-filters:sRGB;"
       inkscape:label="Blur"
       id="filter1283"
       x="-0.082344266"
       y="-0.082344266"
       width="1.1646885"
       height="1.1646885">
      <feGaussianBlur
         stdDeviation="0.5 0.5"
         result="blur"
         id="feGaussianBlur1281" />
    </filter>
    <filter
       style="color-interpolation-filters:sRGB;"
       inkscape:label="Blur"
       id="filter1694"
       x="-0.94955398"
       y="-0.2118907"
       width="2.899108"
       height="1.4237814">
      <feGaussianBlur
         stdDeviation="0.2 0.2"
         result="blur"
         id="feGaussianBlur1692" />
    </filter>
    <filter
       style="color-interpolation-filters:sRGB;"
       inkscape:label="Blur"
       id="filter3148"
       x="-0.94955398"
       y="-0.2118907"
       width="2.899108"
       height="1.4237814">
      <feGaussianBlur
         stdDeviation="0.2 0.2"
         result="blur"
         id="feGaussianBlur3146" />
    </filter>
    <clipPath
       clipPathUnits="userSpaceOnUse"
       id="clipPath44">
      <path
         id="path46"
         style="display:block;opacity:0.85;fill:#f2f2f2;stroke-width:4.39162"
         d="m 17.570312,8.4453125 a 6.5431988,7.4283052 9.9958727e-8 0 0 -6.535156,7.4394535 6.5431988,7.4283052 9.9958727e-8 0 0 6.552735,7.417968 6.5431988,7.4283052 9.9958727e-8 0 0 6.535156,-7.4375 6.5431988,7.4283052 9.9958727e-8 0 0 -6.552735,-7.4199215 z M 45.646484,41.177734 a 6.5431986,7.0703472 2.4665357e-6 0 0 -6.533203,7.080078 6.5431986,7.0703472 2.4665357e-6 0 0 6.550781,7.060547 6.5431986,7.0703472 2.4665357e-6 0 0 6.535157,-7.080078 6.5431986,7.0703472 2.4665357e-6 0 0 -6.552735,-7.060547 z" />
    </clipPath>
    <inkscape:path-effect
       effect="powerclip"
       id="path-effect48"
       is_visible="true"
       lpeversion="1"
       inverse="true"
       flatten="false"
       hide_clip="false"
       message="" />
    <clipPath
       clipPathUnits="userSpaceOnUse"
       id="clipPath2617">
      <path
         id="path2619"
         style="display:block;fill:#813d9c;stroke-width:1.6"
         d="m 32.117188,5.8242188 -6.511719,6.5117192 6.513672,6.511718 6.509765,-6.509765 z m 0.002,13.0234372 -6.511719,6.511719 6.513672,6.509766 6.509765,-6.507813 z m 6.511718,6.513672 6.513672,6.509766 6.507813,-6.507813 -6.511719,-6.513672 z m 6.513672,6.509766 -6.511719,6.511718 6.513672,6.511719 6.507813,-6.509765 z m -6.511719,6.511718 -6.511718,-6.513671 -6.511719,6.511718 6.513672,6.511719 z m -6.509765,6.509766 -6.509766,6.509766 6.511719,6.511718 6.509766,-6.507812 z m -6.513672,-6.511719 -6.509766,-6.513671 -6.511718,6.511718 6.513671,6.511719 z m -6.509766,-6.513671 6.507813,-6.507813 -6.509766,-6.513672 -6.511718,6.509766 z" />
    </clipPath>
    <inkscape:path-effect
       effect="powerclip"
       id="path-effect2621"
       is_visible="true"
       lpeversion="1"
       inverse="true"
       flatten="false"
       hide_clip="false"
       message="" />
  </defs>
  <metadata
     id="metadata2">
    <rdf:RDF>
      <cc:Work
         rdf:about="">
        <dc:format>image/svg+xml</dc:format>
        <dc:type
           rdf:resource="http://purl.org/dc/dcmitype/StillImage" />
      </cc:Work>
    </rdf:RDF>
  </metadata>
  <path
     id="path1"
     style="fill:#f9f9f9;stroke:none;stroke-width:0.0812183;stroke-opacity:0.6"
     d="M 32.000001 4.9550782 C 30.708957 4.9550782 30.324028 5.0175886 29.644532 5.341797 C 28.453484 5.9100816 5.9100816 28.453484 5.341797 29.644532 C 5.0175883 30.324028 4.9550782 30.708957 4.9550782 32.000001 C 4.9550782 33.292728 5.0182872 33.675086 5.3437501 34.355469 C 5.6516045 34.999041 8.0618066 37.506116 16.957032 46.429688 C 23.131168 52.623502 28.476142 57.894266 28.833985 58.144532 C 29.191826 58.394797 29.813294 58.719473 30.214844 58.865235 C 31.275132 59.250122 33.304545 59.144124 34.361329 58.648439 C 35.539605 58.095767 58.087523 35.551536 58.658204 34.355469 C 58.98241 33.675973 59.044923 33.291045 59.044923 32.000001 C 59.044923 30.708957 58.982412 30.324028 58.658204 29.644532 C 58.089919 28.453484 35.546517 5.9100816 34.355469 5.341797 C 33.675973 5.0175883 33.291045 4.9550782 32.000001 4.9550782 z M 32.083985 8.1210939 L 35.085938 11.126953 L 38.087891 14.132813 L 35.167969 17.056641 L 32.246094 19.980469 L 35.167969 22.904297 L 38.087891 25.828125 L 41.015626 22.904297 L 43.941407 19.980469 L 46.94336 22.984375 L 49.945313 25.990235 L 47.025392 28.914063 L 44.10547 31.837891 L 46.986329 34.722657 C 48.571185 36.30935 49.867188 37.678096 49.867188 37.765626 C 49.867188 37.975774 44.153389 43.695313 43.94336 43.695313 C 43.853996 43.695313 42.481534 42.397666 40.894532 40.812501 L 38.009766 37.931641 L 35.126954 40.812501 L 32.246094 43.69336 L 35.128907 46.580079 C 36.714071 48.167081 38.009766 49.537471 38.009766 49.625001 C 38.009766 49.712529 36.713763 51.081276 35.128907 52.66797 C 33.544051 54.254663 32.173232 55.552735 32.082032 55.552735 C 31.990831 55.552735 30.600414 54.237042 28.994141 52.628907 L 26.074219 49.705079 L 29.03711 46.740235 L 32.000001 43.773438 L 29.076172 40.853516 L 26.152344 37.931641 L 23.267579 40.814454 C 21.680886 42.39931 20.310074 43.695313 20.220704 43.695313 C 20.131339 43.695313 18.742992 42.37962 17.136719 40.771485 L 14.216797 37.847657 L 17.179688 34.882813 L 20.140625 31.916016 L 17.177735 28.953126 L 14.214844 25.990235 L 17.259766 22.945313 L 20.302735 19.900391 L 23.269532 22.863282 L 26.236329 25.826172 L 29.117188 22.945313 L 31.998047 20.0625 L 29.035157 17.097657 L 26.074219 14.13086 L 29.078126 11.125 L 32.083985 8.1210939 z M 26.152344 26.072266 L 23.269532 28.955079 L 20.388672 31.835938 L 23.308594 34.761719 L 26.230469 37.685548 L 29.115235 34.802735 L 32.001954 31.921876 L 29.076172 28.996094 L 26.152344 26.072266 z M 38.009766 26.072266 L 35.128907 28.955079 L 32.246094 31.835938 L 35.166016 34.761719 L 38.087891 37.685548 L 40.972657 34.802735 L 43.859376 31.921876 L 40.935548 28.996094 L 38.009766 26.072266 z "
     transform="scale(0.26457812)" />
  <text
     xml:space="preserve"
     transform="scale(0.26457812)"
     id="text3806"
     style="fill:#999999;stroke-width:2;font-size:6.66666667px;white-space:pre;shape-inside:url(#rect3808)" />
</svg>
