<?xml version="1.0" encoding="UTF-8" standalone="no"?>
<svg
   width="64"
   height="64"
   version="1.1"
   viewBox="0 0 16.933 16.933"
   id="svg7"
   sodipodi:docname="elisa.svg"
   inkscape:version="1.4 (e7c3feb100, 2024-10-09)"
   xmlns:inkscape="http://www.inkscape.org/namespaces/inkscape"
   xmlns:sodipodi="http://sodipodi.sourceforge.net/DTD/sodipodi-0.dtd"
   xmlns="http://www.w3.org/2000/svg"
   xmlns:svg="http://www.w3.org/2000/svg"
   xmlns:rdf="http://www.w3.org/1999/02/22-rdf-syntax-ns#"
   xmlns:cc="http://creativecommons.org/ns#"
   xmlns:dc="http://purl.org/dc/elements/1.1/">
  <sodipodi:namedview
     id="namedview7"
     pagecolor="#9c4444"
     bordercolor="#000000"
     borderopacity="0.25"
     inkscape:showpageshadow="2"
     inkscape:pageopacity="0.0"
     inkscape:pagecheckerboard="0"
     inkscape:deskcolor="#d1d1d1"
     inkscape:zoom="6.15625"
     inkscape:cx="15.837563"
     inkscape:cy="29.725888"
     inkscape:window-width="1183"
     inkscape:window-height="941"
     inkscape:window-x="35"
     inkscape:window-y="32"
     inkscape:window-maximized="0"
     inkscape:current-layer="svg7"
     showgrid="false" />
  <defs
     id="defs2">
    <rect
       x="67.489848"
       y="35.60533"
       width="15.337563"
       height="22.51269"
       id="rect3808" />
    <filter
       style="color-interpolation-filters:sRGB;"
       inkscape:label="Blur"
       id="filter1283"
       x="-0.082344266"
       y="-0.082344266"
       width="1.1646885"
       height="1.1646885">
      <feGaussianBlur
         stdDeviation="0.5 0.5"
         result="blur"
         id="feGaussianBlur1281" />
    </filter>
    <filter
       style="color-interpolation-filters:sRGB;"
       inkscape:label="Blur"
       id="filter1694"
       x="-0.94955398"
       y="-0.2118907"
       width="2.899108"
       height="1.4237814">
      <feGaussianBlur
         stdDeviation="0.2 0.2"
         result="blur"
         id="feGaussianBlur1692" />
    </filter>
    <filter
       style="color-interpolation-filters:sRGB;"
       inkscape:label="Blur"
       id="filter3148"
       x="-0.94955398"
       y="-0.2118907"
       width="2.899108"
       height="1.4237814">
      <feGaussianBlur
         stdDeviation="0.2 0.2"
         result="blur"
         id="feGaussianBlur3146" />
    </filter>
    <clipPath
       clipPathUnits="userSpaceOnUse"
       id="clipPath44">
      <path
         id="path46"
         style="display:block;opacity:0.85;fill:#f2f2f2;stroke-width:4.39162"
         d="m 17.570312,8.4453125 a 6.5431988,7.4283052 9.9958727e-8 0 0 -6.535156,7.4394535 6.5431988,7.4283052 9.9958727e-8 0 0 6.552735,7.417968 6.5431988,7.4283052 9.9958727e-8 0 0 6.535156,-7.4375 6.5431988,7.4283052 9.9958727e-8 0 0 -6.552735,-7.4199215 z M 45.646484,41.177734 a 6.5431986,7.0703472 2.4665357e-6 0 0 -6.533203,7.080078 6.5431986,7.0703472 2.4665357e-6 0 0 6.550781,7.060547 6.5431986,7.0703472 2.4665357e-6 0 0 6.535157,-7.080078 6.5431986,7.0703472 2.4665357e-6 0 0 -6.552735,-7.060547 z" />
    </clipPath>
    <inkscape:path-effect
       effect="powerclip"
       id="path-effect48"
       is_visible="true"
       lpeversion="1"
       inverse="true"
       flatten="false"
       hide_clip="false"
       message="" />
  </defs>
  <metadata
     id="metadata2">
    <rdf:RDF>
      <cc:Work
         rdf:about="">
        <dc:format>image/svg+xml</dc:format>
        <dc:type
           rdf:resource="http://purl.org/dc/dcmitype/StillImage" />
      </cc:Work>
    </rdf:RDF>
  </metadata>
  <g
     id="g54"
     transform="matrix(1.539,0,0,1.539,-4.5634433,-4.7203114)"
     style="fill:#f9f9f9">
    <path
       id="path2"
       class="ColorScheme-Text"
       d="m 6.5016585,7.0706567 c -0.602857,0 -1.0915785,0.4887214 -1.0915785,1.0915785 0,0.6028569 0.4887215,1.0915785 1.0915785,1.0915785 H 10.43134 c 0.602857,0 1.091579,-0.4887215 1.091579,-1.0915785 0,-0.6028571 -0.488722,-1.0915785 -1.091579,-1.0915785 z M 5.8467114,8.1622352 c 0,-0.3617055 0.2932416,-0.6549471 0.6549471,-0.6549471 0.3617055,0 0.6549471,0.2932416 0.6549471,0.6549471 0,0.3617054 -0.2932416,0.6549471 -0.6549471,0.6549471 -0.3617055,0 -0.6549471,-0.2932417 -0.6549471,-0.6549471 z m 3.9296824,0 c 0,-0.3617055 0.2932422,-0.6549471 0.6549462,-0.6549471 0.361706,0 0.654947,0.2932416 0.654947,0.6549471 0,0.3617054 -0.293241,0.6549471 -0.654947,0.6549471 -0.361704,0 -0.6549462,-0.2932417 -0.6549462,-0.6549471 z"
       clip-rule="evenodd"
       fill="currentColor"
       fill-rule="evenodd"
       stroke-width="0.436631"
       style="color:#232629;fill:#f9f9f9" />
    <path
       style="fill:#f9f9f9;stroke-width:0.23812;stroke-linecap:round"
       d="m 4.894695,4.8880809 c -0.819343,0 -1.4882518,0.668909 -1.4882518,1.4882519 v 4.7624052 c 0,0.819342 0.6689088,1.488251 1.4882518,1.488251 h 7.143609 c 0.819343,0 1.488252,-0.668909 1.488252,-1.488251 V 6.3763328 c 0,-0.8193429 -0.668909,-1.4882519 -1.488252,-1.4882519 z m 0,0.5953007 h 7.143609 c 0.499843,0 0.892951,0.3931076 0.892951,0.8929512 v 4.7624052 c 0,0.499843 -0.393108,0.89295 -0.892951,0.89295 H 4.894695 c -0.4998434,0 -0.8929512,-0.393107 -0.8929512,-0.89295 V 6.3763328 c 0,-0.4998436 0.3931078,-0.8929512 0.8929512,-0.8929512 z"
       id="rect2" />
    <path
       style="fill:#f9f9f9;stroke-width:0.23812;stroke-linecap:round"
       d="m 4.894695,4.8880809 c -0.819343,0 -1.4882518,0.668909 -1.4882518,1.4882519 v 3.5718046 c 0,0.8193416 0.6689088,1.4882506 1.4882518,1.4882506 h 7.143609 c 0.819343,0 1.488252,-0.668909 1.488252,-1.4882506 V 6.3763328 c 0,-0.8193429 -0.668909,-1.4882519 -1.488252,-1.4882519 z m 0,0.5953007 h 7.143609 c 0.499843,0 0.892951,0.3931076 0.892951,0.8929512 v 3.5718046 c 0,0.4998426 -0.393108,0.8929496 -0.892951,0.8929496 H 4.894695 c -0.4998434,0 -0.8929512,-0.393107 -0.8929512,-0.8929496 V 6.3763328 c 0,-0.4998436 0.3931078,-0.8929512 0.8929512,-0.8929512 z"
       id="rect3" />
  </g>
  <text
     xml:space="preserve"
     transform="scale(0.26457812)"
     id="text3806"
     style="font-size:6.66667px;white-space:pre;shape-inside:url(#rect3808);display:inline;fill:#999999;stroke-width:2" />
</svg>
