<?xml version="1.0" encoding="UTF-8" standalone="no"?>
<svg
   width="64"
   height="64"
   version="1.1"
   viewBox="0 0 16.933 16.933"
   id="svg7"
   sodipodi:docname="foliate.svg"
   inkscape:version="1.4 (e7c3feb100, 2024-10-09)"
   xmlns:inkscape="http://www.inkscape.org/namespaces/inkscape"
   xmlns:sodipodi="http://sodipodi.sourceforge.net/DTD/sodipodi-0.dtd"
   xmlns="http://www.w3.org/2000/svg"
   xmlns:svg="http://www.w3.org/2000/svg"
   xmlns:rdf="http://www.w3.org/1999/02/22-rdf-syntax-ns#"
   xmlns:cc="http://creativecommons.org/ns#"
   xmlns:dc="http://purl.org/dc/elements/1.1/">
  <sodipodi:namedview
     id="namedview7"
     pagecolor="#9c4444"
     bordercolor="#000000"
     borderopacity="0.25"
     inkscape:showpageshadow="2"
     inkscape:pageopacity="0.0"
     inkscape:pagecheckerboard="0"
     inkscape:deskcolor="#d1d1d1"
     inkscape:zoom="6.15625"
     inkscape:cx="15.51269"
     inkscape:cy="29.725888"
     inkscape:window-width="1183"
     inkscape:window-height="941"
     inkscape:window-x="35"
     inkscape:window-y="32"
     inkscape:window-maximized="0"
     inkscape:current-layer="svg7"
     showgrid="false" />
  <defs
     id="defs2">
    <rect
       x="67.489848"
       y="35.60533"
       width="15.337563"
       height="22.51269"
       id="rect3808" />
    <filter
       style="color-interpolation-filters:sRGB;"
       inkscape:label="Blur"
       id="filter1283"
       x="-0.082344266"
       y="-0.082344266"
       width="1.1646885"
       height="1.1646885">
      <feGaussianBlur
         stdDeviation="0.5 0.5"
         result="blur"
         id="feGaussianBlur1281" />
    </filter>
    <filter
       style="color-interpolation-filters:sRGB;"
       inkscape:label="Blur"
       id="filter1694"
       x="-0.94955398"
       y="-0.2118907"
       width="2.899108"
       height="1.4237814">
      <feGaussianBlur
         stdDeviation="0.2 0.2"
         result="blur"
         id="feGaussianBlur1692" />
    </filter>
    <filter
       style="color-interpolation-filters:sRGB;"
       inkscape:label="Blur"
       id="filter3148"
       x="-0.94955398"
       y="-0.2118907"
       width="2.899108"
       height="1.4237814">
      <feGaussianBlur
         stdDeviation="0.2 0.2"
         result="blur"
         id="feGaussianBlur3146" />
    </filter>
    <clipPath
       clipPathUnits="userSpaceOnUse"
       id="clipPath44">
      <path
         id="path46"
         style="display:block;opacity:0.85;fill:#f2f2f2;stroke-width:4.39162"
         d="m 17.570312,8.4453125 a 6.5431988,7.4283052 9.9958727e-8 0 0 -6.535156,7.4394535 6.5431988,7.4283052 9.9958727e-8 0 0 6.552735,7.417968 6.5431988,7.4283052 9.9958727e-8 0 0 6.535156,-7.4375 6.5431988,7.4283052 9.9958727e-8 0 0 -6.552735,-7.4199215 z M 45.646484,41.177734 a 6.5431986,7.0703472 2.4665357e-6 0 0 -6.533203,7.080078 6.5431986,7.0703472 2.4665357e-6 0 0 6.550781,7.060547 6.5431986,7.0703472 2.4665357e-6 0 0 6.535157,-7.080078 6.5431986,7.0703472 2.4665357e-6 0 0 -6.552735,-7.060547 z" />
    </clipPath>
    <inkscape:path-effect
       effect="powerclip"
       id="path-effect48"
       is_visible="true"
       lpeversion="1"
       inverse="true"
       flatten="false"
       hide_clip="false"
       message="" />
  </defs>
  <metadata
     id="metadata2">
    <rdf:RDF>
      <cc:Work
         rdf:about="">
        <dc:format>image/svg+xml</dc:format>
        <dc:type
           rdf:resource="http://purl.org/dc/dcmitype/StillImage" />
      </cc:Work>
    </rdf:RDF>
  </metadata>
  <path
     style="fill:#f9f9f9;fill-opacity:1;stroke-width:0.0255271"
     d="M 4.1528255,15.809799 C 4.1827258,15.591622 4.315627,15.022823 4.4247413,14.645981 4.6956969,13.710221 5.1339846,12.843449 5.5746958,12.3718 5.6774313,12.261851 5.9156085,12.055439 6.10398,11.913102 6.6414966,11.506947 6.9539706,11.23918 7.4066194,10.796848 8.8000135,9.4351993 9.9512681,7.6834722 10.710121,5.7702912 c 0.168472,-0.4247304 0.383623,-1.0597549 0.365276,-1.0781028 -0.007,-0.00716 -0.02922,0.037098 -0.04904,0.098335 -0.127343,0.393732 -0.507561,1.20119 -0.8286,1.759685 C 9.098152,8.4631366 7.6574205,10.054652 5.5704801,11.661774 5.1199213,12.008745 4.8232707,12.328024 4.4507907,12.866883 4.3400722,13.027061 4.2453842,13.163262 4.2403735,13.169563 4.2015426,13.218374 3.9260926,12.72478 3.7649525,12.317639 3.3681314,11.315028 3.2017001,10.318463 3.2694931,9.3509086 3.4349643,6.989247 4.9259591,5.0484929 7.6869671,3.6008989 8.2038906,3.3298761 8.7410418,3.0899281 9.4519918,2.812451 10.13983,2.5439939 10.558464,2.3397139 10.978849,2.0673926 c 0.367271,-0.2379133 0.8741,-0.6185015 1.136661,-0.853534 0.10906,-0.097643 0.209938,-0.1775284 0.224141,-0.1775284 0.08313,0 0.719976,1.2468492 0.941482,1.8433 0.310114,0.8350329 0.526963,1.7257698 0.621013,2.5509069 0.107027,0.9389793 0.03925,2.1978984 -0.159334,2.9598907 -0.301948,1.1585604 -0.978034,2.3560162 -1.823897,3.2304132 -1.151637,1.190479 -2.5430607,1.838329 -4.2781341,1.99191 -0.3774242,0.03342 -1.3627697,0.02183 -1.7069733,-0.02008 L 5.7852143,13.574618 5.5926278,13.95473 c -0.2041523,0.402933 -0.3710707,0.884644 -0.4707411,1.358514 l -0.060574,0.287975 -0.3500883,0.122968 c -0.1925477,0.06764 -0.4011136,0.144894 -0.4634797,0.171703 l -0.113392,0.0487 z"
     id="path1" />
  <g
     fill="#474747"
     id="g9"
     transform="matrix(0.46959567,0,0,0.46959567,4.7471229,3.7470598)"
     style="fill:#999999;fill-opacity:1;stroke:none;stroke-width:0.58349;stroke-dasharray:none;stroke-opacity:0.3" />
  <text
     xml:space="preserve"
     transform="scale(0.26457812)"
     id="text3806"
     style="font-size:6.66667px;white-space:pre;shape-inside:url(#rect3808);display:inline;fill:#999999;stroke-width:2" />
</svg>
