<?xml version="1.0" encoding="UTF-8" standalone="no"?>
<svg
   width="64"
   height="64"
   version="1.1"
   viewBox="0 0 16.933 16.933"
   id="svg7"
   sodipodi:docname="freeoffice-presentations.svg"
   inkscape:version="1.4 (e7c3feb100, 2024-10-09)"
   xmlns:inkscape="http://www.inkscape.org/namespaces/inkscape"
   xmlns:sodipodi="http://sodipodi.sourceforge.net/DTD/sodipodi-0.dtd"
   xmlns="http://www.w3.org/2000/svg"
   xmlns:svg="http://www.w3.org/2000/svg"
   xmlns:rdf="http://www.w3.org/1999/02/22-rdf-syntax-ns#"
   xmlns:cc="http://creativecommons.org/ns#"
   xmlns:dc="http://purl.org/dc/elements/1.1/">
  <sodipodi:namedview
     id="namedview7"
     pagecolor="#9c4444"
     bordercolor="#000000"
     borderopacity="0.25"
     inkscape:showpageshadow="2"
     inkscape:pageopacity="0.0"
     inkscape:pagecheckerboard="0"
     inkscape:deskcolor="#d1d1d1"
     inkscape:zoom="6.15625"
     inkscape:cx="15.593909"
     inkscape:cy="29.563452"
     inkscape:window-width="1226"
     inkscape:window-height="669"
     inkscape:window-x="530"
     inkscape:window-y="304"
     inkscape:window-maximized="0"
     inkscape:current-layer="svg7"
     showgrid="false" />
  <defs
     id="defs2">
    <rect
       x="67.489848"
       y="35.60533"
       width="15.337563"
       height="22.51269"
       id="rect3808" />
    <filter
       style="color-interpolation-filters:sRGB;"
       inkscape:label="Blur"
       id="filter1283"
       x="-0.082344266"
       y="-0.082344266"
       width="1.1646885"
       height="1.1646885">
      <feGaussianBlur
         stdDeviation="0.5 0.5"
         result="blur"
         id="feGaussianBlur1281" />
    </filter>
    <filter
       style="color-interpolation-filters:sRGB;"
       inkscape:label="Blur"
       id="filter1694"
       x="-0.94955398"
       y="-0.2118907"
       width="2.899108"
       height="1.4237814">
      <feGaussianBlur
         stdDeviation="0.2 0.2"
         result="blur"
         id="feGaussianBlur1692" />
    </filter>
    <filter
       style="color-interpolation-filters:sRGB;"
       inkscape:label="Blur"
       id="filter3148"
       x="-0.94955398"
       y="-0.2118907"
       width="2.899108"
       height="1.4237814">
      <feGaussianBlur
         stdDeviation="0.2 0.2"
         result="blur"
         id="feGaussianBlur3146" />
    </filter>
    <clipPath
       clipPathUnits="userSpaceOnUse"
       id="clipPath44">
      <path
         id="path46"
         style="display:block;opacity:0.85;fill:#f2f2f2;stroke-width:4.39162"
         d="m 17.570312,8.4453125 a 6.5431988,7.4283052 9.9958727e-8 0 0 -6.535156,7.4394535 6.5431988,7.4283052 9.9958727e-8 0 0 6.552735,7.417968 6.5431988,7.4283052 9.9958727e-8 0 0 6.535156,-7.4375 6.5431988,7.4283052 9.9958727e-8 0 0 -6.552735,-7.4199215 z M 45.646484,41.177734 a 6.5431986,7.0703472 2.4665357e-6 0 0 -6.533203,7.080078 6.5431986,7.0703472 2.4665357e-6 0 0 6.550781,7.060547 6.5431986,7.0703472 2.4665357e-6 0 0 6.535157,-7.080078 6.5431986,7.0703472 2.4665357e-6 0 0 -6.552735,-7.060547 z" />
    </clipPath>
    <inkscape:path-effect
       effect="powerclip"
       id="path-effect48"
       is_visible="true"
       lpeversion="1"
       inverse="true"
       flatten="false"
       hide_clip="false"
       message="" />
  </defs>
  <metadata
     id="metadata2">
    <rdf:RDF>
      <cc:Work
         rdf:about="">
        <dc:format>image/svg+xml</dc:format>
        <dc:type
           rdf:resource="http://purl.org/dc/dcmitype/StillImage" />
      </cc:Work>
    </rdf:RDF>
  </metadata>
  <g
     id="g6"
     transform="matrix(0.24043909,0,0,0.24043909,0.77244867,0.77244847)"
     style="fill:#f9f9f9">
    <path
       style="opacity:1;fill:#f9f9f9"
       d="m 6,6 v 42 h 4 V 10 H 54 V 54 H 16 v 4 H 58 V 6 Z m 0,46 v 6 h 6 v -6 z"
       id="path2" />
    <g
       style="font-size:6.91563px;line-height:1.25;letter-spacing:0px;word-spacing:0px;fill:#f9f9f9"
       transform="matrix(1.3123761,0,0,1.4166666,0.50297248,-1.999999)"
       id="g5">
      <path
         style="fill:#f9f9f9"
         d="m 23.319502,31.585063 c 0.730291,0 1.327801,-0.05533 1.792532,-0.165975 0.48686,-0.13278 0.874135,-0.298755 1.161825,-0.497925 0.287691,-0.221301 0.486861,-0.475796 0.597511,-0.763486 0.11065,-0.28769 0.165975,-0.608575 0.165975,-0.962656 0,-0.75242 -0.35408,-1.37206 -1.062241,-1.858921 -0.70816,-0.50899 -2.23946,-1.051175 -3.965601,-1.626556 -0.752421,-0.26556 -1.504842,-0.564315 -2.257262,-0.896266 -0.752421,-0.35408 -1.427386,-0.785615 -2.024896,-1.294605 -0.597511,-0.531121 -1.084371,-1.161826 -1.460581,-1.892117 -0.376211,-0.752421 -0.564316,-1.659751 -0.564316,-2.721992 0,-1.062241 0.19917,-2.013831 0.597511,-2.854772 0.39834,-0.86307 0.962655,-1.59336 1.692946,-2.190871 0.73029,-0.597511 1.615491,-1.051176 2.655602,-1.360996 C 21.688617,12.165975 22.861508,12 24.167179,12 c 1.549101,0 3.202116,0.165975 4.330747,0.497925 1.128631,0.33195 2.058091,0.697095 2.788382,1.095436 l -1.493776,4.082988 c -0.641771,-0.331951 -1.360996,-0.619641 -2.157677,-0.863071 -0.77455,-0.26556 -2.029225,-0.39834 -3.135726,-0.39834 -1.239281,0 -2.135546,0.17704 -2.688796,0.53112 -0.531121,0.33195 -0.796681,0.852005 -0.796681,1.560166 0,0.420471 0.09959,0.774551 0.298755,1.062241 0.19917,0.28769 0.475795,0.55325 0.829876,0.79668 0.37621,0.221301 0.79668,0.431536 1.261411,0.630706 0.48686,0.17704 1.01798,0.365145 1.593361,0.564315 1.19502,0.442601 2.54928,0.885201 3.434481,1.327801 0.885201,0.420471 1.615491,0.918396 2.190871,1.493776 0.597511,0.575381 1.040111,1.250346 1.327801,2.024896 0.287691,0.774551 0.431536,1.715076 0.431536,2.821577 0,2.146612 -0.752421,3.817428 -2.257262,5.012449 -1.504841,1.172891 -3.773167,1.759336 -6.80498,1.759336 -1.017981,0 -1.936376,-0.06639 -2.755186,-0.19917 -0.818811,-0.11065 -1.549101,-0.254495 -2.190872,-0.431535 -0.619641,-0.177041 -1.161826,-0.365146 -1.626556,-0.564316 -0.4426,-0.19917 -0.81881,-0.387275 -1.128631,-0.564315 l 1.460581,-4.116183 c 0.686031,0.37621 1.526971,0.719225 2.522822,1.029046 1.017981,0.28769 2.257261,0.431535 3.717842,0.431535 z"
         id="path5" />
    </g>
  </g>
  <g
     fill="#474747"
     id="g9"
     transform="matrix(0.46959567,0,0,0.46959567,4.7471229,3.7470598)"
     style="fill:#999999;fill-opacity:1;stroke:none;stroke-width:0.58349;stroke-dasharray:none;stroke-opacity:0.3" />
  <text
     xml:space="preserve"
     transform="scale(0.26457812)"
     id="text3806"
     style="font-size:6.66667px;white-space:pre;shape-inside:url(#rect3808);display:inline;fill:#999999;stroke-width:2" />
</svg>
