<?xml version="1.0" encoding="UTF-8" standalone="no"?>
<svg
   width="64"
   height="64"
   version="1.1"
   viewBox="0 0 16.933 16.933"
   id="svg7"
   sodipodi:docname="jupyterlab-desktop.svg"
   inkscape:version="1.4 (e7c3feb100, 2024-10-09)"
   xmlns:inkscape="http://www.inkscape.org/namespaces/inkscape"
   xmlns:sodipodi="http://sodipodi.sourceforge.net/DTD/sodipodi-0.dtd"
   xmlns="http://www.w3.org/2000/svg"
   xmlns:svg="http://www.w3.org/2000/svg"
   xmlns:rdf="http://www.w3.org/1999/02/22-rdf-syntax-ns#"
   xmlns:cc="http://creativecommons.org/ns#"
   xmlns:dc="http://purl.org/dc/elements/1.1/">
  <sodipodi:namedview
     id="namedview7"
     pagecolor="#9c4444"
     bordercolor="#000000"
     borderopacity="0.25"
     inkscape:showpageshadow="2"
     inkscape:pageopacity="0.0"
     inkscape:pagecheckerboard="0"
     inkscape:deskcolor="#d1d1d1"
     inkscape:zoom="6.15625"
     inkscape:cx="15.837563"
     inkscape:cy="29.725888"
     inkscape:window-width="1183"
     inkscape:window-height="941"
     inkscape:window-x="35"
     inkscape:window-y="32"
     inkscape:window-maximized="0"
     inkscape:current-layer="svg7"
     showgrid="false" />
  <defs
     id="defs2">
    <rect
       x="67.489848"
       y="35.60533"
       width="15.337563"
       height="22.51269"
       id="rect3808" />
    <filter
       style="color-interpolation-filters:sRGB;"
       inkscape:label="Blur"
       id="filter1283"
       x="-0.082344266"
       y="-0.082344266"
       width="1.1646885"
       height="1.1646885">
      <feGaussianBlur
         stdDeviation="0.5 0.5"
         result="blur"
         id="feGaussianBlur1281" />
    </filter>
    <filter
       style="color-interpolation-filters:sRGB;"
       inkscape:label="Blur"
       id="filter1694"
       x="-0.94955398"
       y="-0.2118907"
       width="2.899108"
       height="1.4237814">
      <feGaussianBlur
         stdDeviation="0.2 0.2"
         result="blur"
         id="feGaussianBlur1692" />
    </filter>
    <filter
       style="color-interpolation-filters:sRGB;"
       inkscape:label="Blur"
       id="filter3148"
       x="-0.94955398"
       y="-0.2118907"
       width="2.899108"
       height="1.4237814">
      <feGaussianBlur
         stdDeviation="0.2 0.2"
         result="blur"
         id="feGaussianBlur3146" />
    </filter>
    <clipPath
       clipPathUnits="userSpaceOnUse"
       id="clipPath44">
      <path
         id="path46"
         style="display:block;opacity:0.85;fill:#f2f2f2;stroke-width:4.39162"
         d="m 17.570312,8.4453125 a 6.5431988,7.4283052 9.9958727e-8 0 0 -6.535156,7.4394535 6.5431988,7.4283052 9.9958727e-8 0 0 6.552735,7.417968 6.5431988,7.4283052 9.9958727e-8 0 0 6.535156,-7.4375 6.5431988,7.4283052 9.9958727e-8 0 0 -6.552735,-7.4199215 z M 45.646484,41.177734 a 6.5431986,7.0703472 2.4665357e-6 0 0 -6.533203,7.080078 6.5431986,7.0703472 2.4665357e-6 0 0 6.550781,7.060547 6.5431986,7.0703472 2.4665357e-6 0 0 6.535157,-7.080078 6.5431986,7.0703472 2.4665357e-6 0 0 -6.552735,-7.060547 z" />
    </clipPath>
    <inkscape:path-effect
       effect="powerclip"
       id="path-effect48"
       is_visible="true"
       lpeversion="1"
       inverse="true"
       flatten="false"
       hide_clip="false"
       message="" />
  </defs>
  <metadata
     id="metadata2">
    <rdf:RDF>
      <cc:Work
         rdf:about="">
        <dc:format>image/svg+xml</dc:format>
        <dc:type
           rdf:resource="http://purl.org/dc/dcmitype/StillImage" />
      </cc:Work>
    </rdf:RDF>
  </metadata>
  <g
     id="g1952"
     transform="matrix(0.36646717,0,0,0.36646717,-3.3113938,-3.5210857)"
     style="fill:#f9f9f9;fill-opacity:1">
    <path
       style="fill:#f9f9f9;fill-opacity:1"
       d="m 47.997154,14.869545 c 0.02585,0.592985 -0.124756,1.180216 -0.432884,1.687536 -0.307923,0.50722 -0.759531,0.911726 -1.297532,1.162358 -0.538001,0.250632 -1.13828,0.335994 -1.724822,0.245387 -0.586439,-0.09061 -1.132987,-0.353147 -1.570244,-0.754423 -0.437261,-0.401276 -0.745695,-0.923226 -0.886328,-1.499763 -0.140528,-0.576639 -0.106946,-1.181933 0.09657,-1.739501 0.203519,-0.557467 0.567818,-1.042084 1.046798,-1.392507 0.479082,-0.350321 1.051277,-0.550809 1.644226,-0.575932 0.794334,-0.0337 1.569536,0.249321 2.155363,0.786912 0.58583,0.537489 0.934356,1.285656 0.968851,2.079933 z"
       id="path1449" />
    <path
       style="fill:#f9f9f9;fill-opacity:1"
       d="M 31.996387,44 C 25.550961,44 19.921918,41.582358 17,38 c 1.088237,3.214498 3.116427,5.999877 5.803766,7.970613 C 25.491187,47.941346 28.704828,49 32,49 35.295173,49 38.508814,47.941346 41.196234,45.970613 43.883574,43.999877 45.911764,41.214498 47,38 c -2.929142,3.582358 -8.558103,6 -15.003613,6 z"
       id="path1451" />
    <path
       style="fill:#f9f9f9;fill-opacity:1"
       d="M 32.003531,22 C 38.449041,22 44.078084,24.417641 47,28 45.911764,24.785504 43.883575,22.000122 41.196234,20.029388 38.508814,18.058654 35.295173,17 32,17 28.704829,17 25.491188,18.058654 22.803766,20.029388 20.116427,22.000122 18.088238,24.785504 17,28 c 2.929144,-3.574955 8.558105,-6 15.003531,-6 z"
       id="path1453" />
    <path
       style="fill:#f9f9f9;fill-opacity:1"
       d="m 24.996634,50.346863 c 0.03033,0.691987 -0.145341,1.377439 -0.50488,1.96949 -0.359445,0.592146 -0.886461,1.064275 -1.514452,1.356611 -0.627897,0.292337 -1.328513,0.391806 -2.01302,0.285799 -0.684509,-0.106006 -1.322109,-0.412727 -1.832263,-0.881307 -0.510062,-0.468672 -0.8696,-1.078096 -1.033122,-1.751218 -0.16352,-0.673123 -0.123582,-1.379588 0.114635,-2.02992 0.238217,-0.650426 0.664068,-1.215579 1.223674,-1.623824 0.559513,-0.408244 1.227632,-0.641272 1.91977,-0.669572 0.925739,-0.03783 1.828683,0.292897 2.510931,0.919694 0.682248,0.626889 1.08813,1.498575 1.128727,2.424247 z"
       id="path1455" />
    <path
       style="fill:#f9f9f9;fill-opacity:1"
       d="m 19.086342,20.998132 c -0.3954,0.0171 -0.786947,-0.08349 -1.125115,-0.289108 -0.338167,-0.205531 -0.607819,-0.506825 -0.774657,-0.865596 -0.166928,-0.35886 -0.223611,-0.759191 -0.162892,-1.150246 0.06072,-0.391054 0.236084,-0.755281 0.503902,-1.046663 0.267821,-0.29138 0.616077,-0.49673 1.000654,-0.590038 0.384578,-0.0934 0.788231,-0.07057 1.159875,0.06557 0.371553,0.13614 0.694405,0.379505 0.927646,0.699259 0.23324,0.319667 0.366416,0.701444 0.382559,1.096865 0.02174,0.529197 -0.167386,1.045389 -0.525824,1.435352 -0.358437,0.389873 -0.856929,0.621776 -1.386148,0.644605 z"
       id="path1457" />
  </g>
  <g
     fill="#474747"
     id="g9"
     transform="matrix(0.46959567,0,0,0.46959567,4.7471229,3.7470598)"
     style="fill:#999999;fill-opacity:1;stroke:none;stroke-width:0.58349;stroke-dasharray:none;stroke-opacity:0.3" />
  <g
     aria-label="Science"
     id="text2284"
     style="font-size:1.76385px;text-align:center;text-anchor:middle;opacity:1;fill:#999999;stroke-width:0.529156" />
  <text
     xml:space="preserve"
     transform="scale(0.26457812)"
     id="text3806"
     style="font-size:6.66667px;white-space:pre;shape-inside:url(#rect3808);display:inline;fill:#999999;stroke-width:2" />
</svg>
