<?xml version="1.0" encoding="UTF-8" standalone="no"?>
<svg
   width="64"
   height="64"
   version="1.1"
   viewBox="0 0 16.933 16.933"
   id="svg7"
   sodipodi:docname="krita.svg"
   inkscape:version="1.4 (e7c3feb100, 2024-10-09)"
   xmlns:inkscape="http://www.inkscape.org/namespaces/inkscape"
   xmlns:sodipodi="http://sodipodi.sourceforge.net/DTD/sodipodi-0.dtd"
   xmlns="http://www.w3.org/2000/svg"
   xmlns:svg="http://www.w3.org/2000/svg"
   xmlns:rdf="http://www.w3.org/1999/02/22-rdf-syntax-ns#"
   xmlns:cc="http://creativecommons.org/ns#"
   xmlns:dc="http://purl.org/dc/elements/1.1/">
  <sodipodi:namedview
     id="namedview7"
     pagecolor="#9c4444"
     bordercolor="#000000"
     borderopacity="0.25"
     inkscape:showpageshadow="2"
     inkscape:pageopacity="0.0"
     inkscape:pagecheckerboard="0"
     inkscape:deskcolor="#d1d1d1"
     inkscape:zoom="4.3531261"
     inkscape:cx="57.085412"
     inkscape:cy="21.593677"
     inkscape:window-width="1183"
     inkscape:window-height="941"
     inkscape:window-x="35"
     inkscape:window-y="32"
     inkscape:window-maximized="0"
     inkscape:current-layer="svg7"
     showgrid="false" />
  <defs
     id="defs2">
    <filter
       style="color-interpolation-filters:sRGB;"
       inkscape:label="Blur"
       id="filter1283"
       x="-0.082344266"
       y="-0.082344266"
       width="1.1646885"
       height="1.1646885">
      <feGaussianBlur
         stdDeviation="0.5 0.5"
         result="blur"
         id="feGaussianBlur1281" />
    </filter>
    <filter
       style="color-interpolation-filters:sRGB;"
       inkscape:label="Blur"
       id="filter1694"
       x="-0.94955398"
       y="-0.2118907"
       width="2.899108"
       height="1.4237814">
      <feGaussianBlur
         stdDeviation="0.2 0.2"
         result="blur"
         id="feGaussianBlur1692" />
    </filter>
  </defs>
  <metadata
     id="metadata2">
    <rdf:RDF>
      <cc:Work
         rdf:about="">
        <dc:format>image/svg+xml</dc:format>
        <dc:type
           rdf:resource="http://purl.org/dc/dcmitype/StillImage" />
      </cc:Work>
    </rdf:RDF>
  </metadata>
  <path
     style="fill:#f9f9f9;fill-opacity:1;stroke-width:0.0332646"
     d="M 7.8030088,15.452047 C 6.3583641,15.305274 5.0517218,14.752416 3.9536971,13.823365 3.8500301,13.735642 3.6280121,13.522115 3.4603397,13.34885 1.9476266,11.785699 1.2733432,9.5997386 1.6265251,7.4038193 1.7652967,6.541009 2.0744284,5.7026216 2.5396018,4.927503 3.0342153,4.1033263 3.8650954,3.2505829 4.6954862,2.7148908 5.6455482,2.101997 6.7186963,1.7389104 7.8848769,1.6357995 c 0.3689658,-0.032623 1.1989494,-0.014231 1.5574422,0.034529 1.3271099,0.1804696 2.4896379,0.6435445 3.4818729,1.3869461 1.177428,0.8821546 1.996347,2.0830334 2.313773,3.3929669 0.122759,0.5066039 0.146661,0.7155093 0.147136,1.2862231 4.01e-4,0.4587113 -0.0057,0.5516925 -0.05117,0.7761684 -0.295331,1.4601116 -1.264116,2.586394 -2.612514,3.037225 -0.491887,0.164464 -0.658842,0.182552 -1.782224,0.193178 -0.9698973,0.0093 -0.9899358,0.01026 -1.1670679,0.06363 -0.4237421,0.12768 -0.7055207,0.441395 -0.762094,0.848449 -0.040459,0.291116 0.057948,0.58466 0.3100234,0.924785 0.169708,0.228988 0.1827895,0.269329 0.1944882,0.599796 0.00781,0.221086 0.00174,0.323085 -0.02583,0.432438 -0.090203,0.357842 -0.2990862,0.623966 -0.6040552,0.769582 l -0.1741787,0.08318 -0.3548195,0.0036 c -0.1951519,0.0021 -0.4438554,-0.0053 -0.5526754,-0.01634 z M 3.8973359,8.5230284 C 4.2435847,8.432843 4.5317583,8.1781269 4.6651913,7.8443244 4.7377397,7.6628497 4.7480049,7.3827766 4.6892151,7.1892195 4.4857716,6.5194261 3.7337446,6.2049433 3.1405555,6.5415984 2.8711134,6.6945151 2.6480905,7.013086 2.5954878,7.3201853 2.4732143,8.0340035 3.1992807,8.7048502 3.897339,8.5230284 Z m 9.0402631,0.011666 c 0.193857,-0.036176 0.391426,-0.1463456 0.553409,-0.3085891 0.341605,-0.3421508 0.419355,-0.78942 0.210641,-1.2117219 -0.272165,-0.5506888 -0.908391,-0.7638675 -1.45341,-0.4869904 -0.183673,0.093309 -0.384207,0.306771 -0.482367,0.5134667 -0.0722,0.1520114 -0.08318,0.1976515 -0.09105,0.3774287 -0.007,0.1630884 5.1e-4,0.2356469 0.03775,0.3582558 0.15998,0.5266958 0.694084,0.8572451 1.225031,0.7581536 z M 6.6163668,5.3060905 C 7.0084132,5.1910748 7.319356,4.8417949 7.3921062,4.4347059 7.4916334,3.8777541 7.0700365,3.3062921 6.4873356,3.208332 5.9797316,3.1229975 5.4417585,3.4723999 5.2925399,3.984327 c -0.073749,0.2530038 -0.028472,0.6005706 0.1070213,0.8215686 0.0701,0.1143211 0.2334755,0.285242 0.3480434,0.3640979 0.2321408,0.1597824 0.5945176,0.2165512 0.868755,0.136097 z m 3.9051672,-0.069315 c 0.240488,-0.1191648 0.407987,-0.2893307 0.522823,-0.5311447 0.07176,-0.1511083 0.08281,-0.1970246 0.09066,-0.3765971 0.0071,-0.1630866 -4.74e-4,-0.2356461 -0.03775,-0.3582546 C 10.943125,3.463278 10.415349,3.1228271 9.9156064,3.2085236 9.3338907,3.308277 8.9135567,3.8690559 9.0053383,4.4229393 c 0.050667,0.3057667 0.2658649,0.6232504 0.5256498,0.7754938 0.1866047,0.1093564 0.3315513,0.1436457 0.5791999,0.1370147 0.213104,-0.00572 0.233712,-0.010678 0.411346,-0.098672 z"
     id="path7" />
</svg>
