<?xml version="1.0" encoding="UTF-8" standalone="no"?>
<svg
   width="64"
   height="64"
   version="1.1"
   viewBox="0 0 16.933 16.933"
   id="svg7"
   sodipodi:docname="mixxx-icon.svg"
   inkscape:version="1.4 (e7c3feb100, 2024-10-09)"
   xmlns:inkscape="http://www.inkscape.org/namespaces/inkscape"
   xmlns:sodipodi="http://sodipodi.sourceforge.net/DTD/sodipodi-0.dtd"
   xmlns="http://www.w3.org/2000/svg"
   xmlns:svg="http://www.w3.org/2000/svg"
   xmlns:rdf="http://www.w3.org/1999/02/22-rdf-syntax-ns#"
   xmlns:cc="http://creativecommons.org/ns#"
   xmlns:dc="http://purl.org/dc/elements/1.1/">
  <sodipodi:namedview
     id="namedview7"
     pagecolor="#9c4444"
     bordercolor="#000000"
     borderopacity="0.25"
     inkscape:showpageshadow="2"
     inkscape:pageopacity="0.0"
     inkscape:pagecheckerboard="0"
     inkscape:deskcolor="#d1d1d1"
     inkscape:zoom="6.15625"
     inkscape:cx="31.269036"
     inkscape:cy="29.807107"
     inkscape:window-width="1183"
     inkscape:window-height="940"
     inkscape:window-x="35"
     inkscape:window-y="32"
     inkscape:window-maximized="0"
     inkscape:current-layer="svg7"
     showgrid="false" />
  <defs
     id="defs2">
    <rect
       x="67.489848"
       y="35.60533"
       width="15.337563"
       height="22.51269"
       id="rect3808" />
    <filter
       style="color-interpolation-filters:sRGB;"
       inkscape:label="Blur"
       id="filter1283"
       x="-0.082344266"
       y="-0.082344266"
       width="1.1646885"
       height="1.1646885">
      <feGaussianBlur
         stdDeviation="0.5 0.5"
         result="blur"
         id="feGaussianBlur1281" />
    </filter>
    <filter
       style="color-interpolation-filters:sRGB;"
       inkscape:label="Blur"
       id="filter1694"
       x="-0.94955398"
       y="-0.2118907"
       width="2.899108"
       height="1.4237814">
      <feGaussianBlur
         stdDeviation="0.2 0.2"
         result="blur"
         id="feGaussianBlur1692" />
    </filter>
    <filter
       style="color-interpolation-filters:sRGB;"
       inkscape:label="Blur"
       id="filter3148"
       x="-0.94955398"
       y="-0.2118907"
       width="2.899108"
       height="1.4237814">
      <feGaussianBlur
         stdDeviation="0.2 0.2"
         result="blur"
         id="feGaussianBlur3146" />
    </filter>
    <clipPath
       clipPathUnits="userSpaceOnUse"
       id="clipPath44">
      <path
         id="path46"
         style="display:block;opacity:0.85;fill:#f2f2f2;stroke-width:4.39162"
         d="m 17.570312,8.4453125 a 6.5431988,7.4283052 9.9958727e-8 0 0 -6.535156,7.4394535 6.5431988,7.4283052 9.9958727e-8 0 0 6.552735,7.417968 6.5431988,7.4283052 9.9958727e-8 0 0 6.535156,-7.4375 6.5431988,7.4283052 9.9958727e-8 0 0 -6.552735,-7.4199215 z M 45.646484,41.177734 a 6.5431986,7.0703472 2.4665357e-6 0 0 -6.533203,7.080078 6.5431986,7.0703472 2.4665357e-6 0 0 6.550781,7.060547 6.5431986,7.0703472 2.4665357e-6 0 0 6.535157,-7.080078 6.5431986,7.0703472 2.4665357e-6 0 0 -6.552735,-7.060547 z" />
    </clipPath>
    <inkscape:path-effect
       effect="powerclip"
       id="path-effect48"
       is_visible="true"
       lpeversion="1"
       inverse="true"
       flatten="false"
       hide_clip="false"
       message="" />
    <clipPath
       clipPathUnits="userSpaceOnUse"
       id="clipPath676">
      <path
         id="path678"
         d="m 189.32699,134.40316 c 0,-14.52214 11.86852,-26.39066 26.39065,-26.39066 h 80.56472 c 14.52214,0 26.39066,11.86852 26.39066,26.39066 v 91.67093 c 0,14.52214 -11.86852,26.35495 -26.39066,26.35495 h -80.56472 c -14.52213,0 -26.39065,-11.83281 -26.39065,-26.35495 z"
         style="color:#000000;font-style:normal;font-variant:normal;font-weight:normal;font-stretch:normal;font-size:medium;line-height:normal;font-family:Sans;-inkscape-font-specification:Sans;text-indent:0;text-align:start;text-decoration:none;text-decoration-line:none;letter-spacing:normal;word-spacing:normal;text-transform:none;writing-mode:lr-tb;direction:ltr;baseline-shift:baseline;text-anchor:start;display:block;overflow:visible;visibility:visible;fill:url(#linearGradient680);fill-opacity:1;fill-rule:nonzero;stroke:none;stroke-width:11.1102;marker:none;enable-background:accumulate"
         inkscape:connector-curvature="0" />
    </clipPath>
    <inkscape:path-effect
       effect="powerclip"
       id="path-effect682"
       is_visible="true"
       lpeversion="1"
       inverse="true"
       flatten="false"
       hide_clip="false"
       message="" />
  </defs>
  <metadata
     id="metadata2">
    <rdf:RDF>
      <cc:Work
         rdf:about="">
        <dc:format>image/svg+xml</dc:format>
        <dc:type
           rdf:resource="http://purl.org/dc/dcmitype/StillImage" />
      </cc:Work>
    </rdf:RDF>
  </metadata>
  <path
     id="path1"
     style="fill:#f9f9f9;stroke-width:0.0816569"
     d="m 8.4591754,1.4308484 c -2.6347963,8.455e-4 -2.8032767,0.00513 -2.9572809,0.076583 -0.212557,0.098621 -0.4013041,0.301279 -0.5184077,0.5557168 -0.092228,0.200384 -0.093877,0.2335561 -0.106039,1.8065724 L 4.8646851,5.4720722 H 3.4263 1.9869325 L 1.7964572,5.5918562 C 1.4536595,5.8092527 1.2750333,6.1960173 1.2780494,6.7131089 c 0.00293,0.4998015 0.2378418,0.9559333 0.577318,1.1202715 0.1749216,0.084687 0.2327232,0.088365 1.5984237,0.088365 h 1.4158028 v 1.2577278 c 0,1.0360538 0.011837,1.2979708 0.065784,1.4796228 0.120099,0.404417 0.393069,0.696591 0.7245926,0.775649 0.2168701,0.05172 5.3408625,0.04541 5.5846645,-0.0068 0.173229,-0.03715 0.252667,-0.08572 0.421206,-0.255273 0.335263,-0.337292 0.348552,-0.40916 0.348552,-1.9489382 V 7.9217836 h 1.430531 c 1.341675,0 1.440103,-0.00524 1.587622,-0.080511 C 15.40803,7.6497152 15.626477,7.2171407 15.6187,6.6768195 15.61148,6.178409 15.467783,5.8636067 15.129749,5.6056394 L 14.980504,5.4927281 13.507755,5.4721093 12.035006,5.4514905 12.014391,3.8187023 c -0.01981,-1.5850294 -0.0227,-1.6385855 -0.109965,-1.8017001 -0.1366,-0.2553397 -0.28181,-0.4090768 -0.475207,-0.5026984 -0.172266,-0.083388 -0.223578,-0.08436 -2.9700436,-0.083455 z m -0.0049,0.5704444 c 1.6619496,0 1.6704186,9.688e-4 1.8468276,0.094255 0.210531,0.1113324 0.421072,0.3984711 0.50859,0.6931746 0.09364,0.315326 0.09101,4.634057 -0.0029,4.9670924 -0.114182,0.4046934 -0.367677,0.6833778 -0.706928,0.7776121 -0.08737,0.024265 -0.7722828,0.040178 -1.6779524,0.039273 C 6.6664275,8.5709069 6.6706543,8.5718208 6.3737622,8.2516411 6.0401332,7.8918442 6.049496,7.9844373 6.0625209,5.2020684 l 0.01178,-2.4457462 0.09622,-0.1836027 C 6.2946629,2.3360109 6.4443502,2.1773628 6.6339459,2.0798394 6.7757296,2.0068984 6.8919347,2.0012934 8.4542641,2.0012934 Z m -0.010792,1.0211064 c -0.2185597,0 -0.3317985,0.089904 -0.3691691,0.2935682 -0.013642,0.074233 -0.018544,1.0105872 -0.01178,2.080504 0.011647,1.8461679 0.015542,1.9489024 0.089346,2.0304301 0.060321,0.066627 0.1266179,0.086401 0.2935685,0.086401 0.1839238,0 0.2271588,-0.016093 0.299459,-0.1080017 0.083062,-0.1055678 0.084438,-0.1455742 0.084438,-2.1453047 V 3.2226932 L 8.7291792,3.1225461 C 8.6521749,3.0455408 8.5860671,3.0223992 8.443466,3.0223992 Z m -6.432003,9.3902488 v 1.571915 1.571914 h 0.2444768 0.245458 v -1.571914 -1.571915 h -0.245458 z m 1.5925329,0 v 1.326456 1.327439 H 3.8484877 4.0939463 V 13.739104 12.412648 H 3.8484877 Z m 1.5925331,0 v 1.081981 1.08198 h 0.2444764 0.245458 v -1.08198 -1.081981 h -0.245458 z m 1.5915513,0 v 0.816886 0.815903 H 7.0541725 7.319267 V 13.229534 12.412648 H 7.0541725 Z m 1.5925331,0 v 1.571915 1.571914 H 8.6457233 8.9118 V 13.984563 12.412648 H 8.6457233 Z m 1.6327882,0 v 0.816886 0.815903 h 0.245458 0.244476 v -0.815903 -0.816886 h -0.244476 z m 1.592533,0 v 1.081981 1.08198 h 0.245459 0.244475 v -1.08198 -1.081981 h -0.244475 z m 1.184089,0 v 1.326456 1.327439 h 0.265096 0.266078 v -1.327439 -1.326456 h -0.266078 z m 1.592535,0 v 1.571915 1.571914 h 0.265093 0.265096 v -1.571914 -1.571915 h -0.265096 z" />
  <text
     xml:space="preserve"
     transform="scale(0.26457812)"
     id="text3806"
     style="font-size:6.66667px;white-space:pre;shape-inside:url(#rect3808);display:inline;fill:#999999;stroke-width:2" />
</svg>
