<?xml version="1.0" encoding="UTF-8" standalone="no"?>
<svg
   width="64"
   height="64"
   version="1.1"
   viewBox="0 0 16.933 16.933"
   id="svg7"
   sodipodi:docname="Musescore.svg"
   inkscape:version="1.4 (e7c3feb100, 2024-10-09)"
   xmlns:inkscape="http://www.inkscape.org/namespaces/inkscape"
   xmlns:sodipodi="http://sodipodi.sourceforge.net/DTD/sodipodi-0.dtd"
   xmlns="http://www.w3.org/2000/svg"
   xmlns:svg="http://www.w3.org/2000/svg"
   xmlns:rdf="http://www.w3.org/1999/02/22-rdf-syntax-ns#"
   xmlns:cc="http://creativecommons.org/ns#"
   xmlns:dc="http://purl.org/dc/elements/1.1/">
  <sodipodi:namedview
     id="namedview7"
     pagecolor="#9c4444"
     bordercolor="#000000"
     borderopacity="0.25"
     inkscape:showpageshadow="2"
     inkscape:pageopacity="0.0"
     inkscape:pagecheckerboard="0"
     inkscape:deskcolor="#d1d1d1"
     inkscape:zoom="6.15625"
     inkscape:cx="15.837563"
     inkscape:cy="29.725888"
     inkscape:window-width="1183"
     inkscape:window-height="941"
     inkscape:window-x="35"
     inkscape:window-y="32"
     inkscape:window-maximized="0"
     inkscape:current-layer="svg7"
     showgrid="false" />
  <defs
     id="defs2">
    <rect
       x="67.489848"
       y="35.60533"
       width="15.337563"
       height="22.51269"
       id="rect3808" />
    <filter
       style="color-interpolation-filters:sRGB;"
       inkscape:label="Blur"
       id="filter1283"
       x="-0.082344266"
       y="-0.082344266"
       width="1.1646885"
       height="1.1646885">
      <feGaussianBlur
         stdDeviation="0.5 0.5"
         result="blur"
         id="feGaussianBlur1281" />
    </filter>
    <filter
       style="color-interpolation-filters:sRGB;"
       inkscape:label="Blur"
       id="filter1694"
       x="-0.94955398"
       y="-0.2118907"
       width="2.899108"
       height="1.4237814">
      <feGaussianBlur
         stdDeviation="0.2 0.2"
         result="blur"
         id="feGaussianBlur1692" />
    </filter>
    <filter
       style="color-interpolation-filters:sRGB;"
       inkscape:label="Blur"
       id="filter3148"
       x="-0.94955398"
       y="-0.2118907"
       width="2.899108"
       height="1.4237814">
      <feGaussianBlur
         stdDeviation="0.2 0.2"
         result="blur"
         id="feGaussianBlur3146" />
    </filter>
    <clipPath
       clipPathUnits="userSpaceOnUse"
       id="clipPath44">
      <path
         id="path46"
         style="display:block;opacity:0.85;fill:#f2f2f2;stroke-width:4.39162"
         d="m 17.570312,8.4453125 a 6.5431988,7.4283052 9.9958727e-8 0 0 -6.535156,7.4394535 6.5431988,7.4283052 9.9958727e-8 0 0 6.552735,7.417968 6.5431988,7.4283052 9.9958727e-8 0 0 6.535156,-7.4375 6.5431988,7.4283052 9.9958727e-8 0 0 -6.552735,-7.4199215 z M 45.646484,41.177734 a 6.5431986,7.0703472 2.4665357e-6 0 0 -6.533203,7.080078 6.5431986,7.0703472 2.4665357e-6 0 0 6.550781,7.060547 6.5431986,7.0703472 2.4665357e-6 0 0 6.535157,-7.080078 6.5431986,7.0703472 2.4665357e-6 0 0 -6.552735,-7.060547 z" />
    </clipPath>
    <inkscape:path-effect
       effect="powerclip"
       id="path-effect48"
       is_visible="true"
       lpeversion="1"
       inverse="true"
       flatten="false"
       hide_clip="false"
       message="" />
    <clipPath
       clipPathUnits="userSpaceOnUse"
       id="clipPath676">
      <path
         id="path678"
         d="m 189.32699,134.40316 c 0,-14.52214 11.86852,-26.39066 26.39065,-26.39066 h 80.56472 c 14.52214,0 26.39066,11.86852 26.39066,26.39066 v 91.67093 c 0,14.52214 -11.86852,26.35495 -26.39066,26.35495 h -80.56472 c -14.52213,0 -26.39065,-11.83281 -26.39065,-26.35495 z"
         style="color:#000000;font-style:normal;font-variant:normal;font-weight:normal;font-stretch:normal;font-size:medium;line-height:normal;font-family:Sans;-inkscape-font-specification:Sans;text-indent:0;text-align:start;text-decoration:none;text-decoration-line:none;letter-spacing:normal;word-spacing:normal;text-transform:none;writing-mode:lr-tb;direction:ltr;baseline-shift:baseline;text-anchor:start;display:block;overflow:visible;visibility:visible;fill:url(#linearGradient680);fill-opacity:1;fill-rule:nonzero;stroke:none;stroke-width:11.1102;marker:none;enable-background:accumulate"
         inkscape:connector-curvature="0" />
    </clipPath>
    <inkscape:path-effect
       effect="powerclip"
       id="path-effect682"
       is_visible="true"
       lpeversion="1"
       inverse="true"
       flatten="false"
       hide_clip="false"
       message="" />
  </defs>
  <metadata
     id="metadata2">
    <rdf:RDF>
      <cc:Work
         rdf:about="">
        <dc:format>image/svg+xml</dc:format>
        <dc:type
           rdf:resource="http://purl.org/dc/dcmitype/StillImage" />
      </cc:Work>
    </rdf:RDF>
  </metadata>
  <path
     style="fill:#f9f9f9;fill-opacity:1;stroke-width:0.362868"
     d="m 12.734156,3.4955755 c -1.52233,0 -2.710812,0.9947482 -2.710812,2.3004386 1.44e-4,0.5595839 1.161778,0.5595839 1.161778,0 0,-0.7461064 0.401991,-1.280383 1.549034,-1.280383 1.147044,0 1.549034,0.5342766 1.549034,1.280383 0,0.5595839 1.161778,0.5595839 1.161778,0 0,-1.3056904 -1.188459,-2.3004386 -2.710812,-2.3004386 z m 0,1.7000934 c -0.427938,0 -0.774516,0.3032791 -0.774516,0.6780446 0,0.3747425 0.346578,0.6787089 0.774516,0.6787089 0.427939,0 0.774518,-0.3039664 0.774518,-0.6787089 0,-0.3747655 -0.346579,-0.6780446 -0.774518,-0.6780446 z M 8.4743085,6.8957615 c -0.8046604,0 -1.7531028,0.4266767 -2.1911887,0.9589591 C 5.8450564,7.3224379 5.0191209,6.9634995 4.2144622,6.9634995 c -1.3295665,0 -2.7108121,0.7168526 -2.7108121,2.6862801 v 3.2447864 c 0,0 5.85e-5,0.46155 0.5362626,0.46155 0.5362047,0 0.6255137,-0.46155 0.6255137,-0.46155 V 9.6497796 C 2.6649548,8.1530447 3.3927403,7.9158175 4.2144622,7.9158175 c 0.8217199,0 1.5490352,0.4574089 1.5490352,1.4703147 v 3.5084338 c 0,0 0.029554,0.46155 0.5657611,0.46155 0.5362047,0 0.5960154,-0.46155 0.5960154,-0.46155 V 9.3861322 c 0,-1.0129058 0.727315,-1.4703145 1.5490346,-1.4703145 0.5216792,0 1.5354215,0.060815 1.5354215,1.4703145 l 0.03101,1.1973698 c 0,2.213325 1.617456,2.772614 2.693415,2.772614 1.07596,0 2.677934,-0.652946 2.710811,-2.611237 V 7.6475214 c 0,-0.539045 -1.161778,-0.539045 -1.161778,0 v 3.0508706 c 0,1.485597 -1.011054,1.637667 -1.549033,1.637667 -0.537982,0 -1.547522,-0.05774 -1.547522,-1.798379 l -0.03102,-1.0871302 c 0,-1.6788172 -1.3142315,-2.5547883 -2.6813132,-2.5547883 z"
     id="path8" />
  <text
     xml:space="preserve"
     transform="scale(0.26457812)"
     id="text3806"
     style="font-size:6.66667px;white-space:pre;shape-inside:url(#rect3808);display:inline;fill:#999999;stroke-width:2" />
</svg>
