<?xml version="1.0" encoding="UTF-8" standalone="no"?>
<svg
   width="64"
   height="64"
   version="1.1"
   viewBox="0 0 16.933 16.933"
   id="svg7"
   sodipodi:docname="net.worldofpadman.WoP.svg"
   inkscape:version="1.4 (e7c3feb100, 2024-10-09)"
   xmlns:inkscape="http://www.inkscape.org/namespaces/inkscape"
   xmlns:sodipodi="http://sodipodi.sourceforge.net/DTD/sodipodi-0.dtd"
   xmlns="http://www.w3.org/2000/svg"
   xmlns:svg="http://www.w3.org/2000/svg"
   xmlns:rdf="http://www.w3.org/1999/02/22-rdf-syntax-ns#"
   xmlns:cc="http://creativecommons.org/ns#"
   xmlns:dc="http://purl.org/dc/elements/1.1/">
  <sodipodi:namedview
     id="namedview7"
     pagecolor="#9c4444"
     bordercolor="#000000"
     borderopacity="0.25"
     inkscape:showpageshadow="2"
     inkscape:pageopacity="0.0"
     inkscape:pagecheckerboard="0"
     inkscape:deskcolor="#d1d1d1"
     inkscape:zoom="6.15625"
     inkscape:cx="31.269036"
     inkscape:cy="27.370558"
     inkscape:window-width="1183"
     inkscape:window-height="940"
     inkscape:window-x="35"
     inkscape:window-y="32"
     inkscape:window-maximized="0"
     inkscape:current-layer="svg7"
     showgrid="false" />
  <defs
     id="defs2">
    <filter
       style="color-interpolation-filters:sRGB;"
       inkscape:label="Blur"
       id="filter1283"
       x="-0.082344266"
       y="-0.082344266"
       width="1.1646885"
       height="1.1646885">
      <feGaussianBlur
         stdDeviation="0.5 0.5"
         result="blur"
         id="feGaussianBlur1281" />
    </filter>
    <filter
       style="color-interpolation-filters:sRGB;"
       inkscape:label="Blur"
       id="filter1694"
       x="-0.94955398"
       y="-0.2118907"
       width="2.899108"
       height="1.4237814">
      <feGaussianBlur
         stdDeviation="0.2 0.2"
         result="blur"
         id="feGaussianBlur1692" />
    </filter>
    <clipPath
       clipPathUnits="userSpaceOnUse"
       id="clipath_lpe_path-effect13-7">
      <circle
         style="display:none;fill:#e6e6e6"
         cx="29.999001"
         cy="30"
         r="18"
         id="circle1" />
    </clipPath>
    <inkscape:path-effect
       effect="powerclip"
       id="path-effect13-7"
       is_visible="true"
       lpeversion="1"
       inverse="true"
       flatten="false"
       hide_clip="false"
       message="" />
    <clipPath
       clipPathUnits="userSpaceOnUse"
       id="clipPath16">
      <g
         id="g24"
         style="display:block">
        <path
           style="opacity:0.85;fill:#ffffff"
           d="m 14.451038,1029.43 -1.304681,-1.9316 -1.186255,-0.6724 c -0.663352,-0.3762 -1.174039,-0.7034 -1.158542,-0.743 0.01524,-0.038 0.653397,-1.0172 1.418124,-2.1746 0.764726,-1.1574 1.378917,-2.138 1.364866,-2.1792 -0.01406,-0.042 -0.05275,-0.076 -0.08598,-0.076 -0.03325,0 -0.479977,0.2604 -0.992745,0.5784 -1.210858,0.7512 -2.9427035,1.8074 -3.3212471,2.0258 -0.2640458,0.152 -0.3015498,0.16 -0.3305804,0.066 -0.01802,-0.058 -0.2175258,-1.0874 -0.4433704,-2.2884 l -0.4106272,-2.1834 0.468897,-2.609 c 0.257894,-1.4354 0.5090238,-2.832 0.5580676,-3.104 0.084698,-0.4698 0.166894,-0.6298 1.6395035,-3.1848 l 1.550334,-2.69 2.371445,-1.1888 c 1.304295,-0.6538 2.392833,-1.1898 2.418972,-1.1904 0.175594,0 -0.07083,0.371 -0.887136,1.3562 -0.514062,0.6204 -1.038335,1.2572 -1.165052,1.4156 -0.18114,0.226 -0.371913,0.6782 -0.892408,2.1148 l -0.662016,1.8274 0.263833,1.6358 0.263833,1.6358 0.438476,0.409 c 0.241159,0.2248 0.544231,0.4982 0.673488,0.607 l 0.235015,0.198 0.532928,-0.2438 0.532928,-0.2438 0.03858,-0.3324 c 0.03088,-0.266 0.11964,-1.7456 0.124716,-2.0784 0.0012,-0.08 2.978442,-3.3722 3.077665,-3.405 0.03045,-0.02 0.599129,0.5446 1.263719,1.232 l 1.208348,1.2502 0.22988,0.9326 c 0.12644,0.5126 0.257288,1.0364 0.290792,1.1638 0.05094,0.194 0.13802,0.2824 0.531976,0.5418 l 0.47106,0.3104 0.367356,-0.6126 0.367358,-0.6124 0.0198,-1.291 0.0198,-1.2906 -1.157528,-1.8872 c -0.954432,-1.5558 -1.20026,-1.9138 -1.401088,-2.0398 -0.13398,-0.082 -1.095858,-0.7092 -2.137548,-1.3894 -1.841852,-1.203 -1.895173,-1.2434 -1.937139,-1.4728 -0.02375,-0.13 -0.03321,-0.2446 -0.02103,-0.2552 0.03029,-0.028 5.749883,1.2418 5.890871,1.3058 0.06204,0.028 1.065208,0.69 2.229268,1.4712 l 2.116466,1.4196 0.259062,0.7756 c 0.1425,0.4264 0.6072,1.816 1.03271,3.0876 l 0.773666,2.3122 -0.04266,1.3672 c -0.02346,0.7522 -0.05784,1.7152 -0.07644,2.1402 l -0.0338,0.7732 -0.797778,2.3498 -0.797774,2.35 -1.13284,1.1538 -1.132844,1.1536 -0.718944,1.4616 c -0.39542,0.8038 -0.732238,1.4744 -0.748486,1.4904 -0.0164,0.02 -0.78263,-1.2372 -1.703066,-2.785 l -1.673516,-2.8134 -0.946258,-0.309 -0.946258,-0.3086 -0.957628,0.7014 -0.957631,0.7014 -0.07635,0.3336 c -0.321508,1.4038 -1.436653,5.868 -1.465689,5.8674 -0.01998,-4e-4 -0.623459,-0.87 -1.341034,-1.9324 z"
           id="path18" />
        <path
           style="opacity:0.85;fill:#ffffff"
           d="m 42.712226,1005.3628 c -0.39073,0 -0.712222,0.02 -0.712222,0.04 0,0.022 0.233048,0.7664 0.515112,1.6546 0.526198,1.6564 0.556778,1.7886 0.620236,2.6308 0.02032,0.2704 0.04914,0.623 0.0657,0.7854 0.0166,0.162 0.18952,2.1978 0.383708,4.522 l 0.352166,4.2234 -0.24967,4.1614 -0.249674,4.1616 -0.720106,1.8642 C 42.322786,1030.4316 42,1031.2872 42,1031.3108 v 0 c 0,0.022 0.650404,-0.11 1.442838,-0.2932 1.278186,-0.2984 1.484496,-0.3294 1.829174,-0.2824 0.21369,0.028 1.31507,0.184 2.44941,0.3442 2.373532,0.3364 2.1336,0.3114 2.081472,0.226 -0.0226,-0.036 -0.386212,-1.152 -0.806832,-2.4776 l -0.764784,-2.4102 -0.07622,-1.8212 c -0.0423,-1.0008 -0.06678,-1.8234 -0.0552,-1.8374 0.0118,-0.02 0.631846,0.06 1.379764,0.158 l 1.361368,0.18 1.78975,-1.2508 1.789752,-1.2536 0.788436,-1.6464 0.791064,-1.6462 -0.10514,-2.335 -0.10514,-2.335 -0.693826,-1.7834 -0.696448,-1.7834 -1.508544,-0.9362 -1.51117,-0.9334 -2.052564,-0.13 -2.055192,-0.128 -1.923784,-0.7882 -1.926414,-0.7882 z m 7.563734,8.5088 0.735874,0.6698 c 0.404308,0.369 0.870654,0.7956 1.035482,0.9494 l 0.299604,0.2798 -0.1866,1.189 c -0.10196,0.6538 -0.19856,1.2112 -0.215504,1.24 -0.017,0.028 -0.537078,0.3638 -1.156372,0.7478 -1.248602,0.7746 -1.118198,0.7408 -2.20237,0.5758 l -0.701708,-0.108 0.0052,-1.4392 c 0.0052,-1.2098 0.14724,-3.6212 0.228646,-3.8738 0.014,-0.044 0.307322,-0.092 0.72536,-0.118 0.385928,-0.024 0.865874,-0.06 1.067018,-0.082 z"
           id="path20" />
        <path
           style="opacity:0.85;fill:#ffffff"
           d="m 35.708826,1011.359 c -0.05144,6e-4 -0.692122,0.3742 -1.422784,0.8306 l -1.329116,0.8306 -0.883542,1.7586 -0.883544,1.7562 -0.19492,3.2174 -0.19492,3.2148 0.964556,2.684 0.96709,2.6842 1.303798,1.3178 1.306328,1.315 1.384812,0.194 c 0.761258,0.104 1.387868,0.198 1.392402,0.198 0.0044,0 0.368606,-0.166 0.810128,-0.3744 0.441522,-0.2094 0.97137,-0.459 1.177218,-0.5536 l 0.374682,-0.172 0.678482,-1.1306 0.68101,-1.1306 0.478482,-2.3278 0.481012,-2.3276 -0.05318,-2.1152 -0.05062,-2.1176 -0.683544,-2.1432 c -0.37585,-1.18 -0.706634,-2.1856 -0.734178,-2.2356 -0.02756,-0.05 -0.587404,-0.6472 -1.243038,-1.3278 l -1.189874,-1.2382 -1.52152,-0.4024 c -0.836712,-0.2216 -1.563718,-0.4032 -1.61519,-0.4026 z m 2.126582,9.7776 c 0.02594,-0.02 0.437252,0.333 0.916458,0.764 l 0.873418,0.7846 0.09368,0.4228 c 0.05196,0.2322 0.15906,0.7338 0.237976,1.1154 l 0.1443,0.6922 -0.278478,1.2126 -0.278484,1.21 -0.873418,0.4436 -0.873414,0.4432 -0.774686,-0.2588 -0.777216,-0.2614 -0.4481,-1.3512 -0.450634,-1.3482 0.43038,-1.3948 c 0.236404,-0.7664 0.430076,-1.422 0.430378,-1.4588 4.74e-4,-0.052 1.394238,-0.9206 1.62785,-1.0152 z"
           id="path22" />
      </g>
    </clipPath>
    <inkscape:path-effect
       effect="powerclip"
       id="path-effect26"
       is_visible="true"
       lpeversion="1"
       inverse="true"
       flatten="false"
       hide_clip="false"
       message="" />
  </defs>
  <metadata
     id="metadata2">
    <rdf:RDF>
      <cc:Work
         rdf:about="">
        <dc:format>image/svg+xml</dc:format>
        <dc:type
           rdf:resource="http://purl.org/dc/dcmitype/StillImage" />
      </cc:Work>
    </rdf:RDF>
  </metadata>
  <path
     id="path1"
     style="fill:#f9f9f9;stroke-width:0.0816569"
     d="M 7.6487268,2.4747861 6.4283083,2.7487177 5.2069083,3.0226484 4.2820218,3.4713466 3.357135,3.9200441 2.5265042,4.8979494 C 2.0697258,5.4360303 1.6726765,5.9093821 1.6438368,5.9494924 1.5811448,6.0366836 1.5517339,6.2126586 1.3924875,7.4497332 L 1.2697589,8.397202 1.6782015,9.4909638 2.086644,10.585708 l 1.0535065,0.846339 1.0525249,0.84634 0.7933209,0.280805 c 1.6286741,0.576375 1.4148181,0.529541 2.8041152,0.609718 l 1.231218,0.07167 0.705938,-0.110941 c 0.3881835,-0.06053 0.7771285,-0.110523 0.8640125,-0.111929 0.129561,-0.0021 0.379627,0.11875 1.392239,0.670591 0.679065,0.370075 1.278667,0.690354 1.332346,0.711828 0.05368,0.02147 0.146319,0.03982 0.205204,0.04123 l 0.107027,0.0029 -0.403533,-1.106524 c -0.221683,-0.608578 -0.402552,-1.111223 -0.402552,-1.116345 0,-0.0051 0.286686,-0.237534 0.637211,-0.516443 0.587913,-0.467798 0.679256,-0.558718 1.176235,-1.180163 0.296309,-0.370517 0.578145,-0.7289007 0.626409,-0.7962673 0.0654,-0.091276 0.125533,-0.3354149 0.23564,-0.9582689 C 15.578769,8.3104947 15.646067,7.8872886 15.64772,7.8296004 15.65228,7.6698845 15.271752,6.108375 15.200984,5.996518 15.166822,5.942501 14.843562,5.5497881 14.483265,5.1236686 13.835701,4.357904 13.822616,4.344589 13.314885,4.0152818 12.021978,3.1767225 12.157359,3.2424408 10.957503,2.8704645 L 9.8617778,2.5307506 8.755252,2.5032589 Z M 11.045868,4.848858 c 0.123903,0 0.334442,0.060935 0.643101,0.1855673 0.41828,0.1688929 0.503084,0.1888372 0.960232,0.2218941 l 0.501718,0.036328 0.355423,0.2179665 0.355424,0.217967 0.174762,0.4231701 c 0.169043,0.4112896 0.17423,0.4404442 0.200294,1.0142331 l 0.02651,0.5900817 -0.197348,0.4015696 -0.197349,0.4015699 -0.426115,0.2935679 -0.426116,0.2935678 -0.322041,-0.037308 -0.32204,-0.03731 v 0.3780056 c 0,0.3385287 0.02069,0.4442633 0.201274,1.0211064 0.110827,0.354062 0.196164,0.650177 0.188518,0.657829 -0.0076,0.0077 -0.274521,-0.02414 -0.593026,-0.07069 -0.536492,-0.07841 -0.599294,-0.08032 -0.85125,-0.02356 -0.149581,0.03369 -0.313735,0.0708 -0.36426,0.08247 -0.05053,0.01167 -0.09131,0.0068 -0.09131,-0.01178 0,-0.01854 0.07607,-0.225966 0.168876,-0.46048 L 11.19904,10.218505 11.26188,9.1767798 C 11.32379,8.1379018 11.32358,8.1329191 11.21671,6.9107099 11.12317,5.8408731 11.093377,5.6373215 10.98598,5.2985399 10.91835,5.0852123 10.862666,4.8971197 10.862269,4.8802792 c -3.96e-4,-0.016834 0.0823,-0.031418 0.183602,-0.031419 z M 5.0301783,4.869477 C 5.0437063,4.855949 5.3653242,4.912635 5.7439709,4.9951525 L 6.4322358,5.145372 6.9722435,5.4968682 7.5122517,5.8493457 7.763601,6.6014299 8.0149502,7.3525322 7.9923687,7.8876311 C 7.9711817,8.3851739 7.956598,8.4600474 7.7822561,8.972556 7.5981613,9.5137359 7.5897603,9.5275958 7.3129398,9.8090778 7.1059593,10.019543 6.98352,10.191712 6.8504965,10.459051 l -0.1806573,0.36426 -0.223858,-0.36426 C 6.3231925,10.258978 6.141198,9.9533543 6.0414662,9.7796226 5.8685721,9.478443 5.8500779,9.4602835 5.635969,9.3878713 L 5.4111296,9.3122703 5.1862897,9.4840911 4.9614498,9.6568942 4.7798098,10.397197 C 4.679808,10.804272 4.5876945,11.136238 4.5755896,11.135534 4.5634845,11.134837 4.4120391,10.925626 4.2388209,10.671127 3.9523974,10.2503 3.8980918,10.193565 3.6359758,10.037845 3.4500055,9.9273617 3.358172,9.8493078 3.3767719,9.8179143 3.3926261,9.7911541 3.5330991,9.5712848 3.6889943,9.3289616 3.8448893,9.0866379 3.9649205,8.8802947 3.956053,8.8714272 3.9471863,8.8625605 3.7130677,8.9945293 3.4356816,9.1640137 3.0921059,9.3739405 2.9216524,9.4567038 2.9015646,9.4241993 2.8853445,9.397955 2.8298683,9.1442104 2.7778535,8.8606272 L 2.6835976,8.3451646 2.8141815,7.6078081 2.9457472,6.8704517 3.3188436,6.212624 3.6909586,5.5547957 4.2761306,5.2631915 c 0.3216531,-0.1603752 0.5937799,-0.2916044 0.604809,-0.2916044 0.0605,0 -0.00897,0.113411 -0.2611674,0.4261155 -0.2308597,0.2862369 -0.3079364,0.4217407 -0.43397,0.7648477 l -0.1531666,0.418261 0.051055,0.4005878 c 0.050489,0.3961892 0.05248,0.4015631 0.2179664,0.5390261 0.1589863,0.1320633 0.1736296,0.136439 0.2817862,0.080511 C 4.6761822,7.5529782 4.69739,7.5137352 4.6992995,7.3898425 4.7046995,7.0409683 4.7488765,6.9491123 5.1038142,6.5474297 5.2939565,6.332245 5.4711078,6.1556782 5.4975298,6.1556782 c 0.026419,0 0.176073,0.14212 0.332841,0.3161507 0.245238,0.2722403 0.2925495,0.3508452 0.3387324,0.5576809 0.048355,0.2165691 0.1604284,0.3917515 0.2503674,0.3917515 0.018544,0 0.070376,-0.059567 0.114874,-0.1325478 0.062312,-0.1021953 0.081037,-0.2030429 0.079528,-0.4388793 L 6.6119114,6.5435016 6.3369981,6.1154223 C 6.0673718,5.6938066 6.0552256,5.6803874 5.5760776,5.3554838 5.1078085,5.0379575 4.9772964,4.9223585 5.0301783,4.869477 Z m 4.3937023,1.4413305 c 0.082023,0.00296 0.1794303,0.031086 0.3406959,0.074619 l 0.3829145,0.1030921 0.291605,0.3161499 c 0.285452,0.3086001 0.29652,0.3269831 0.457534,0.8306308 0.157833,0.4937011 0.16438,0.5406245 0.171821,1.1006346 0.01028,0.7744446 -0.12568,1.4453951 -0.378988,1.8664651 -0.152712,0.253849 -0.185126,0.283004 -0.45557,0.404515 -0.159959,0.07187 -0.3178107,0.128439 -0.3514966,0.125674 -0.033683,-0.0028 -0.1853539,-0.02663 -0.3367687,-0.05204 -0.2687888,-0.0451 -0.2834103,-0.05388 -0.598918,-0.368187 L 8.6236869,10.391305 8.3929558,9.7462406 8.1632071,9.1011763 8.210335,8.3127643 8.257463,7.5233709 8.481321,7.1021645 C 8.6771774,6.7338559 8.7322595,6.6636741 8.9162728,6.546447 9.1927876,6.3702898 9.2871752,6.3058745 9.4238806,6.3108075 Z M 12.85146,6.923471 12.622692,6.951944 c -0.12616,0.015618 -0.239142,0.037242 -0.250367,0.04811 -0.01121,0.010868 -0.02618,0.2920473 -0.03338,0.6254279 l -0.01273,0.6067725 0.114874,0.016682 c 0.237255,0.035614 0.276289,0.025737 0.543934,-0.1394201 l 0.273933,-0.1688758 0.04321,-0.2700045 0.04418,-0.2700039 -0.247422,-0.238585 z M 9.879451,8.6888064 C 9.867006,8.6879145 9.7750631,8.7390823 9.6752299,8.8027 9.5051837,8.911057 9.4879735,8.9392929 9.3993349,9.253361 L 9.3050799,9.589148 9.411117,9.9082433 c 0.09545,0.2866127 0.1198919,0.3235067 0.2376034,0.3613147 0.1938727,0.06227 0.2185416,0.05958 0.4329876,-0.04909 0.192437,-0.09752 0.197708,-0.104825 0.256259,-0.3770241 0.0507,-0.2356811 0.05145,-0.317623 0.0059,-0.5370623 C 10.296881,9.0801112 10.265803,9.0243977 10.096436,8.8684818 9.9898547,8.770365 9.8918979,8.6897112 9.879451,8.6888064 Z" />
</svg>
