<?xml version="1.0" encoding="UTF-8" standalone="no"?>
<svg
   width="64"
   height="64"
   version="1.1"
   viewBox="0 0 16.933 16.933"
   id="svg7"
   sodipodi:docname="NotepadNext.svg"
   inkscape:version="1.4 (e7c3feb100, 2024-10-09)"
   xmlns:inkscape="http://www.inkscape.org/namespaces/inkscape"
   xmlns:sodipodi="http://sodipodi.sourceforge.net/DTD/sodipodi-0.dtd"
   xmlns="http://www.w3.org/2000/svg"
   xmlns:svg="http://www.w3.org/2000/svg"
   xmlns:rdf="http://www.w3.org/1999/02/22-rdf-syntax-ns#"
   xmlns:cc="http://creativecommons.org/ns#"
   xmlns:dc="http://purl.org/dc/elements/1.1/">
  <sodipodi:namedview
     id="namedview7"
     pagecolor="#9c4444"
     bordercolor="#000000"
     borderopacity="0.25"
     inkscape:showpageshadow="2"
     inkscape:pageopacity="0.0"
     inkscape:pagecheckerboard="0"
     inkscape:deskcolor="#d1d1d1"
     inkscape:zoom="6.15625"
     inkscape:cx="15.51269"
     inkscape:cy="29.725888"
     inkscape:window-width="1183"
     inkscape:window-height="941"
     inkscape:window-x="35"
     inkscape:window-y="32"
     inkscape:window-maximized="0"
     inkscape:current-layer="svg7"
     showgrid="false" />
  <defs
     id="defs2">
    <rect
       x="67.489848"
       y="35.60533"
       width="15.337563"
       height="22.51269"
       id="rect3808" />
    <filter
       style="color-interpolation-filters:sRGB;"
       inkscape:label="Blur"
       id="filter1283"
       x="-0.082344266"
       y="-0.082344266"
       width="1.1646885"
       height="1.1646885">
      <feGaussianBlur
         stdDeviation="0.5 0.5"
         result="blur"
         id="feGaussianBlur1281" />
    </filter>
    <filter
       style="color-interpolation-filters:sRGB;"
       inkscape:label="Blur"
       id="filter1694"
       x="-0.94955398"
       y="-0.2118907"
       width="2.899108"
       height="1.4237814">
      <feGaussianBlur
         stdDeviation="0.2 0.2"
         result="blur"
         id="feGaussianBlur1692" />
    </filter>
    <filter
       style="color-interpolation-filters:sRGB;"
       inkscape:label="Blur"
       id="filter3148"
       x="-0.94955398"
       y="-0.2118907"
       width="2.899108"
       height="1.4237814">
      <feGaussianBlur
         stdDeviation="0.2 0.2"
         result="blur"
         id="feGaussianBlur3146" />
    </filter>
    <clipPath
       clipPathUnits="userSpaceOnUse"
       id="clipPath44">
      <path
         id="path46"
         style="display:block;opacity:0.85;fill:#f2f2f2;stroke-width:4.39162"
         d="m 17.570312,8.4453125 a 6.5431988,7.4283052 9.9958727e-8 0 0 -6.535156,7.4394535 6.5431988,7.4283052 9.9958727e-8 0 0 6.552735,7.417968 6.5431988,7.4283052 9.9958727e-8 0 0 6.535156,-7.4375 6.5431988,7.4283052 9.9958727e-8 0 0 -6.552735,-7.4199215 z M 45.646484,41.177734 a 6.5431986,7.0703472 2.4665357e-6 0 0 -6.533203,7.080078 6.5431986,7.0703472 2.4665357e-6 0 0 6.550781,7.060547 6.5431986,7.0703472 2.4665357e-6 0 0 6.535157,-7.080078 6.5431986,7.0703472 2.4665357e-6 0 0 -6.552735,-7.060547 z" />
    </clipPath>
    <inkscape:path-effect
       effect="powerclip"
       id="path-effect48"
       is_visible="true"
       lpeversion="1"
       inverse="true"
       flatten="false"
       hide_clip="false"
       message="" />
  </defs>
  <metadata
     id="metadata2">
    <rdf:RDF>
      <cc:Work
         rdf:about="">
        <dc:format>image/svg+xml</dc:format>
        <dc:type
           rdf:resource="http://purl.org/dc/dcmitype/StillImage" />
      </cc:Work>
    </rdf:RDF>
  </metadata>
  <g
     id="g1"
     transform="matrix(1.9,0,0,1.9,-6.7170842,-5.7637293)"
     style="fill:#f9f9f9">
    <path
       d="M 9.9673787,9.3935894 V 8.331042 c 0,-0.1593362 0.1294233,-0.2884534 0.2887603,-0.2884534 0.159336,0 0.288454,0.1291172 0.288454,0.2884534 v 1.0625474 h 1.062853 c 0.159335,0 0.288452,0.1294233 0.288452,0.2887603 0,0.159336 -0.129117,0.288454 -0.288452,0.288454 h -1.062853 v 1.0628533 c 0,0.159335 -0.129118,0.288452 -0.288454,0.288452 -0.159337,0 -0.2887603,-0.129117 -0.2887603,-0.288452 V 9.9708037 H 8.9048311 c -0.159336,0 -0.288453,-0.129118 -0.288453,-0.288454 0,-0.159337 0.129117,-0.2887603 0.288453,-0.2887603 z"
       fill="#dfdfdf"
       id="path5"
       style="fill:#f9f9f9;fill-opacity:1;stroke-width:0.305241" />
    <path
       d="M 4.2068586,3.6617059 V 4.1700112 H 5.4776222 V 3.6617059 Z m 1.7790688,0 V 4.1700112 H 8.019149 V 3.6617059 Z M 4.2068586,4.6783166 V 5.186622 H 5.731775 V 4.6783166 Z m 2.0332218,0 V 5.186622 H 7.5108436 V 4.6783166 Z m 1.7790686,0 V 5.186622 H 8.5274544 V 4.6783166 Z M 4.2068586,5.6949274 V 6.203233 H 4.9693167 V 5.6949274 Z m 1.2707636,0 V 6.203233 H 6.4942327 V 5.6949274 Z m 1.524916,0 V 6.203233 H 8.019149 V 5.6949274 Z M 4.2068586,6.7115382 V 7.2198435 H 5.4776222 V 6.7115382 Z m 1.7790688,0 V 7.2198435 H 8.019149 V 6.7115382 Z m 2.541527,0 V 7.2198435 H 9.7982167 V 6.7115382 Z M 4.2068586,7.7281489 V 8.2364543 H 5.4776222 V 7.7281489 Z m 1.7790688,0 v 0.5083054 h 0.762458 V 7.7281489 Z m 1.2707636,0 V 8.2364543 H 8.5274544 V 7.7281489 Z M 4.2068586,8.7447601 v 0.508306 h 1.0166108 v -0.508306 z m 1.5249164,0 v 0.508306 H 8.019149 V 8.7447601 Z M 4.2068586,9.7613704 V 10.269676 H 6.2400804 V 9.7613704 Z m 2.5415268,0 V 10.269676 H 7.7649963 V 9.7613704 Z M 4.2068586,10.777982 v 0.508305 h 1.2707636 v -0.508305 z m 1.7790688,0 v 0.508305 h 1.5249162 v -0.508305 z"
       fill="#707070"
       id="path3-5"
       style="fill:#f9f9f9;fill-opacity:1;stroke-width:0.254153" />
  </g>
  <g
     fill="#474747"
     id="g9"
     transform="matrix(0.46959567,0,0,0.46959567,4.7471229,3.7470598)"
     style="fill:#999999;fill-opacity:1;stroke:none;stroke-width:0.58349;stroke-dasharray:none;stroke-opacity:0.3" />
  <text
     xml:space="preserve"
     transform="scale(0.26457812)"
     id="text3806"
     style="font-size:6.66667px;white-space:pre;shape-inside:url(#rect3808);display:inline;fill:#999999;stroke-width:2" />
</svg>
