<?xml version="1.0" encoding="UTF-8" standalone="no"?>
<svg
   width="64"
   height="64"
   version="1.1"
   viewBox="0 0 16.933 16.933"
   id="svg7"
   sodipodi:docname="org.gnome.World.Secrets.svg"
   inkscape:version="1.4 (e7c3feb100, 2024-10-09)"
   xmlns:inkscape="http://www.inkscape.org/namespaces/inkscape"
   xmlns:sodipodi="http://sodipodi.sourceforge.net/DTD/sodipodi-0.dtd"
   xmlns="http://www.w3.org/2000/svg"
   xmlns:svg="http://www.w3.org/2000/svg"
   xmlns:rdf="http://www.w3.org/1999/02/22-rdf-syntax-ns#"
   xmlns:cc="http://creativecommons.org/ns#"
   xmlns:dc="http://purl.org/dc/elements/1.1/">
  <sodipodi:namedview
     id="namedview7"
     pagecolor="#9c4444"
     bordercolor="#000000"
     borderopacity="0.25"
     inkscape:showpageshadow="2"
     inkscape:pageopacity="0.0"
     inkscape:pagecheckerboard="0"
     inkscape:deskcolor="#d1d1d1"
     inkscape:zoom="6.15625"
     inkscape:cx="15.187817"
     inkscape:cy="30.13198"
     inkscape:window-width="1183"
     inkscape:window-height="940"
     inkscape:window-x="35"
     inkscape:window-y="32"
     inkscape:window-maximized="0"
     inkscape:current-layer="svg7"
     showgrid="false" />
  <defs
     id="defs2">
    <rect
       x="67.489848"
       y="35.60533"
       width="15.337563"
       height="22.51269"
       id="rect3808" />
    <filter
       style="color-interpolation-filters:sRGB;"
       inkscape:label="Blur"
       id="filter1283"
       x="-0.082344266"
       y="-0.082344266"
       width="1.1646885"
       height="1.1646885">
      <feGaussianBlur
         stdDeviation="0.5 0.5"
         result="blur"
         id="feGaussianBlur1281" />
    </filter>
    <filter
       style="color-interpolation-filters:sRGB;"
       inkscape:label="Blur"
       id="filter1694"
       x="-0.94955398"
       y="-0.2118907"
       width="2.899108"
       height="1.4237814">
      <feGaussianBlur
         stdDeviation="0.2 0.2"
         result="blur"
         id="feGaussianBlur1692" />
    </filter>
    <filter
       style="color-interpolation-filters:sRGB;"
       inkscape:label="Blur"
       id="filter3148"
       x="-0.94955398"
       y="-0.2118907"
       width="2.899108"
       height="1.4237814">
      <feGaussianBlur
         stdDeviation="0.2 0.2"
         result="blur"
         id="feGaussianBlur3146" />
    </filter>
    <clipPath
       clipPathUnits="userSpaceOnUse"
       id="clipPath44">
      <path
         id="path46"
         style="display:block;opacity:0.85;fill:#f2f2f2;stroke-width:4.39162"
         d="m 17.570312,8.4453125 a 6.5431988,7.4283052 9.9958727e-8 0 0 -6.535156,7.4394535 6.5431988,7.4283052 9.9958727e-8 0 0 6.552735,7.417968 6.5431988,7.4283052 9.9958727e-8 0 0 6.535156,-7.4375 6.5431988,7.4283052 9.9958727e-8 0 0 -6.552735,-7.4199215 z M 45.646484,41.177734 a 6.5431986,7.0703472 2.4665357e-6 0 0 -6.533203,7.080078 6.5431986,7.0703472 2.4665357e-6 0 0 6.550781,7.060547 6.5431986,7.0703472 2.4665357e-6 0 0 6.535157,-7.080078 6.5431986,7.0703472 2.4665357e-6 0 0 -6.552735,-7.060547 z" />
    </clipPath>
    <inkscape:path-effect
       effect="powerclip"
       id="path-effect48"
       is_visible="true"
       lpeversion="1"
       inverse="true"
       flatten="false"
       hide_clip="false"
       message="" />
  </defs>
  <metadata
     id="metadata2">
    <rdf:RDF>
      <cc:Work
         rdf:about="">
        <dc:format>image/svg+xml</dc:format>
        <dc:type
           rdf:resource="http://purl.org/dc/dcmitype/StillImage" />
      </cc:Work>
    </rdf:RDF>
  </metadata>
  <g
     id="Vault"
     transform="matrix(0.78925806,0,0,0.789258,-0.90722248,-0.69838586)"
     style="fill:#f9f9f9">
    <g
       id="g3"
       style="fill:#f9f9f9">
      <path
         d="m 15.935,6.06 h -7.87 a 2,2 0 0 0 -2,2 v 6 a 1.993,1.993 0 0 0 2,2 h 7.87 a 2,2 0 0 0 2,-2 v -6 a 2.006,2.006 0 0 0 -2,-2 z m 1,8 a 1,1 0 0 1 -1,1 h -7.87 a 0.99,0.99 0 0 1 -1,-1 v -6 a 1,1 0 0 1 1,-1 h 7.87 a 1,1 0 0 1 1,1 z"
         id="path1"
         style="fill:#f9f9f9" />
      <path
         d="M 18.435,3.06 H 5.565 a 2.507,2.507 0 0 0 -2.5,2.5 v 11 a 2.5,2.5 0 0 0 2.5,2.5 v 0.38 a 1.5,1.5 0 0 0 1.5,1.5 h 1.43 a 1.5,1.5 0 0 0 1.5,-1.5 v -0.38 h 4 v 0.38 a 1.5,1.5 0 0 0 1.5,1.5 h 1.44 a 1.5,1.5 0 0 0 1.5,-1.5 v -0.38 a 2.5,2.5 0 0 0 2.5,-2.5 v -11 a 2.507,2.507 0 0 0 -2.5,-2.5 z m -9.44,16.38 a 0.5,0.5 0 0 1 -0.5,0.5 h -1.43 a 0.5,0.5 0 0 1 -0.5,-0.5 v -0.38 h 2.43 z m 8.44,0 a 0.5,0.5 0 0 1 -0.5,0.5 H 15.5 A 0.508,0.508 0 0 1 15,19.44 v -0.38 h 2.44 z m 2.5,-2.88 a 1.5,1.5 0 0 1 -1.5,1.5 H 5.565 a 1.5,1.5 0 0 1 -1.5,-1.5 v -11 a 1.5,1.5 0 0 1 1.5,-1.5 h 12.87 a 1.5,1.5 0 0 1 1.5,1.5 z"
         id="path2"
         style="fill:#f9f9f9" />
      <path
         d="m 14.265,10.56 h -0.61 A 1.656,1.656 0 0 0 12.5,9.4 V 8.79 A 0.491,0.491 0 0 0 12,8.31 0.5,0.5 0 0 0 11.5,8.79 V 9.4 a 1.656,1.656 0 0 0 -1.16,1.16 H 9.73 a 0.5,0.5 0 0 0 -0.48,0.5 0.491,0.491 0 0 0 0.48,0.5 h 0.61 a 1.656,1.656 0 0 0 1.16,1.16 v 0.62 a 0.489,0.489 0 0 0 0.5,0.47 0.483,0.483 0 0 0 0.5,-0.47 v -0.62 a 1.622,1.622 0 0 0 1.16,-1.16 h 0.61 a 0.485,0.485 0 0 0 0.48,-0.5 0.491,0.491 0 0 0 -0.485,-0.5 z M 12,11.81 A 0.75,0.75 0 1 1 12.75,11.06 0.749,0.749 0 0 1 12,11.81 Z"
         id="path3"
         style="fill:#f9f9f9" />
    </g>
  </g>
  <g
     fill="#474747"
     id="g9"
     transform="matrix(0.46959567,0,0,0.46959567,4.7471229,3.7470598)"
     style="fill:#999999;fill-opacity:1;stroke:none;stroke-width:0.58349;stroke-dasharray:none;stroke-opacity:0.3" />
  <text
     xml:space="preserve"
     transform="scale(0.26457812)"
     id="text3806"
     style="font-size:6.66667px;white-space:pre;shape-inside:url(#rect3808);display:inline;fill:#999999;stroke-width:2" />
</svg>
