<?xml version="1.0" encoding="UTF-8" standalone="no"?>
<svg
   width="64"
   height="64"
   version="1.1"
   viewBox="0 0 16.933 16.933"
   id="svg7"
   sodipodi:docname="org.gnome.Weather.svg"
   inkscape:version="1.4 (e7c3feb100, 2024-10-09)"
   xmlns:inkscape="http://www.inkscape.org/namespaces/inkscape"
   xmlns:sodipodi="http://sodipodi.sourceforge.net/DTD/sodipodi-0.dtd"
   xmlns="http://www.w3.org/2000/svg"
   xmlns:svg="http://www.w3.org/2000/svg"
   xmlns:rdf="http://www.w3.org/1999/02/22-rdf-syntax-ns#"
   xmlns:cc="http://creativecommons.org/ns#"
   xmlns:dc="http://purl.org/dc/elements/1.1/">
  <sodipodi:namedview
     id="namedview7"
     pagecolor="#9c4444"
     bordercolor="#000000"
     borderopacity="0.25"
     inkscape:showpageshadow="2"
     inkscape:pageopacity="0.0"
     inkscape:pagecheckerboard="0"
     inkscape:deskcolor="#d1d1d1"
     inkscape:zoom="6.15625"
     inkscape:cx="15.837563"
     inkscape:cy="29.725888"
     inkscape:window-width="1183"
     inkscape:window-height="941"
     inkscape:window-x="35"
     inkscape:window-y="32"
     inkscape:window-maximized="0"
     inkscape:current-layer="svg7"
     showgrid="false" />
  <defs
     id="defs2">
    <rect
       x="67.489848"
       y="35.60533"
       width="15.337563"
       height="22.51269"
       id="rect3808" />
    <filter
       style="color-interpolation-filters:sRGB;"
       inkscape:label="Blur"
       id="filter1283"
       x="-0.082344266"
       y="-0.082344266"
       width="1.1646885"
       height="1.1646885">
      <feGaussianBlur
         stdDeviation="0.5 0.5"
         result="blur"
         id="feGaussianBlur1281" />
    </filter>
    <filter
       style="color-interpolation-filters:sRGB;"
       inkscape:label="Blur"
       id="filter1694"
       x="-0.94955398"
       y="-0.2118907"
       width="2.899108"
       height="1.4237814">
      <feGaussianBlur
         stdDeviation="0.2 0.2"
         result="blur"
         id="feGaussianBlur1692" />
    </filter>
    <filter
       style="color-interpolation-filters:sRGB;"
       inkscape:label="Blur"
       id="filter3148"
       x="-0.94955398"
       y="-0.2118907"
       width="2.899108"
       height="1.4237814">
      <feGaussianBlur
         stdDeviation="0.2 0.2"
         result="blur"
         id="feGaussianBlur3146" />
    </filter>
    <clipPath
       clipPathUnits="userSpaceOnUse"
       id="clipPath44">
      <path
         id="path46"
         style="display:block;opacity:0.85;fill:#f2f2f2;stroke-width:4.39162"
         d="m 17.570312,8.4453125 a 6.5431988,7.4283052 9.9958727e-8 0 0 -6.535156,7.4394535 6.5431988,7.4283052 9.9958727e-8 0 0 6.552735,7.417968 6.5431988,7.4283052 9.9958727e-8 0 0 6.535156,-7.4375 6.5431988,7.4283052 9.9958727e-8 0 0 -6.552735,-7.4199215 z M 45.646484,41.177734 a 6.5431986,7.0703472 2.4665357e-6 0 0 -6.533203,7.080078 6.5431986,7.0703472 2.4665357e-6 0 0 6.550781,7.060547 6.5431986,7.0703472 2.4665357e-6 0 0 6.535157,-7.080078 6.5431986,7.0703472 2.4665357e-6 0 0 -6.552735,-7.060547 z" />
    </clipPath>
    <inkscape:path-effect
       effect="powerclip"
       id="path-effect48"
       is_visible="true"
       lpeversion="1"
       inverse="true"
       flatten="false"
       hide_clip="false"
       message="" />
  </defs>
  <metadata
     id="metadata2">
    <rdf:RDF>
      <cc:Work
         rdf:about="">
        <dc:format>image/svg+xml</dc:format>
        <dc:type
           rdf:resource="http://purl.org/dc/dcmitype/StillImage" />
      </cc:Work>
    </rdf:RDF>
  </metadata>
  <path
     style="fill:#f9f9f9;fill-opacity:1;stroke:none;stroke-width:0.407185;stroke-dasharray:none;stroke-opacity:0.3"
     d="M 2.4600455,15.640032 C 1.6518095,15.358309 1.0584948,14.760045 0.85998201,14.026628 0.72172946,13.515843 0.81580226,12.798472 1.0836399,12.321074 c 0.5157132,-0.91921 1.7541902,-1.44789 2.7337143,-1.166966 l 0.2438124,0.06992 0.050029,-0.478645 C 4.238984,9.5227687 5.1387263,8.4461808 6.3536317,8.0621979 6.5906146,7.9872968 6.8003552,7.9127463 6.8197211,7.8965293 6.8390888,7.8803145 6.4921416,7.5030148 6.0487313,7.0580899 L 5.2425298,6.249136 6.0331055,5.4819948 6.8236809,4.7148544 V 3.629906 2.5449579 h 1.1231029 1.1231035 l 0.79648,-0.7513582 0.7964807,-0.7513584 0.371906,0.3142961 c 0.204549,0.172862 0.564598,0.5109732 0.800107,0.7513584 l 0.428203,0.4370621 h 1.119045 1.119041 V 3.6267868 4.708616 L 15.328799,5.4782558 16.156454,6.2478957 15.328799,7.027387 14.50115,7.806878 V 8.8579696 9.9090613 H 13.437678 12.37421 l -0.626538,0.5679757 -0.626534,0.567976 0.538109,0.04936 c 0.692146,0.06348 1.223671,0.331705 1.694021,0.854847 0.807189,0.897788 0.796235,2.096943 -0.0274,2.998113 -0.239586,0.262143 -0.546609,0.496481 -0.801283,0.611577 l -0.412866,0.186599 -4.6221496,0.01824 c -4.2887746,0.01691 -4.6515336,0.008 -5.0295386,-0.123747 z M 11.368026,9.4009514 C 12.446885,9.26599 13.52801,8.3093765 13.876382,7.1814724 14.460142,5.2914708 13.227564,3.4169038 11.177731,3.0772355 10.16127,2.9088026 9.1172463,3.2377019 8.342399,3.9704514 7.3469833,4.9117851 7.0471918,6.4050988 7.6247177,7.5453456 7.7831663,7.8581797 7.8507772,7.9117517 8.233828,8.0279684 c 0.7813177,0.2370503 1.5026728,0.7147582 1.774707,1.1752754 0.09274,0.1570065 0.20944,0.2365438 0.374702,0.2553919 0.243417,0.027763 0.353097,0.021337 0.984789,-0.057684 z"
     id="path53290" />
  <g
     fill="#474747"
     id="g9"
     transform="matrix(0.46959567,0,0,0.46959567,4.7471229,3.7470598)"
     style="fill:#999999;fill-opacity:1;stroke:none;stroke-width:0.58349;stroke-dasharray:none;stroke-opacity:0.3" />
  <text
     xml:space="preserve"
     transform="scale(0.26457812)"
     id="text3806"
     style="font-size:6.66667px;white-space:pre;shape-inside:url(#rect3808);display:inline;fill:#999999;stroke-width:2" />
</svg>
