<?xml version="1.0" encoding="UTF-8" standalone="no"?>
<svg
   width="64"
   height="64"
   version="1.1"
   viewBox="0 0 16.933 16.933"
   id="svg7"
   sodipodi:docname="org.gnome.Meld.svg"
   inkscape:version="1.4 (e7c3feb100, 2024-10-09)"
   xmlns:inkscape="http://www.inkscape.org/namespaces/inkscape"
   xmlns:sodipodi="http://sodipodi.sourceforge.net/DTD/sodipodi-0.dtd"
   xmlns="http://www.w3.org/2000/svg"
   xmlns:svg="http://www.w3.org/2000/svg"
   xmlns:rdf="http://www.w3.org/1999/02/22-rdf-syntax-ns#"
   xmlns:cc="http://creativecommons.org/ns#"
   xmlns:dc="http://purl.org/dc/elements/1.1/">
  <sodipodi:namedview
     id="namedview7"
     pagecolor="#9c4444"
     bordercolor="#000000"
     borderopacity="0.25"
     inkscape:showpageshadow="2"
     inkscape:pageopacity="0.0"
     inkscape:pagecheckerboard="0"
     inkscape:deskcolor="#d1d1d1"
     inkscape:zoom="6.15625"
     inkscape:cx="15.837563"
     inkscape:cy="29.725888"
     inkscape:window-width="1183"
     inkscape:window-height="941"
     inkscape:window-x="35"
     inkscape:window-y="32"
     inkscape:window-maximized="0"
     inkscape:current-layer="svg7"
     showgrid="false" />
  <defs
     id="defs2">
    <rect
       x="67.489848"
       y="35.60533"
       width="15.337563"
       height="22.51269"
       id="rect3808" />
    <filter
       style="color-interpolation-filters:sRGB;"
       inkscape:label="Blur"
       id="filter1283"
       x="-0.082344266"
       y="-0.082344266"
       width="1.1646885"
       height="1.1646885">
      <feGaussianBlur
         stdDeviation="0.5 0.5"
         result="blur"
         id="feGaussianBlur1281" />
    </filter>
    <filter
       style="color-interpolation-filters:sRGB;"
       inkscape:label="Blur"
       id="filter1694"
       x="-0.94955398"
       y="-0.2118907"
       width="2.899108"
       height="1.4237814">
      <feGaussianBlur
         stdDeviation="0.2 0.2"
         result="blur"
         id="feGaussianBlur1692" />
    </filter>
    <filter
       style="color-interpolation-filters:sRGB;"
       inkscape:label="Blur"
       id="filter3148"
       x="-0.94955398"
       y="-0.2118907"
       width="2.899108"
       height="1.4237814">
      <feGaussianBlur
         stdDeviation="0.2 0.2"
         result="blur"
         id="feGaussianBlur3146" />
    </filter>
    <clipPath
       clipPathUnits="userSpaceOnUse"
       id="clipPath44">
      <path
         id="path46"
         style="display:block;opacity:0.85;fill:#f2f2f2;stroke-width:4.39162"
         d="m 17.570312,8.4453125 a 6.5431988,7.4283052 9.9958727e-8 0 0 -6.535156,7.4394535 6.5431988,7.4283052 9.9958727e-8 0 0 6.552735,7.417968 6.5431988,7.4283052 9.9958727e-8 0 0 6.535156,-7.4375 6.5431988,7.4283052 9.9958727e-8 0 0 -6.552735,-7.4199215 z M 45.646484,41.177734 a 6.5431986,7.0703472 2.4665357e-6 0 0 -6.533203,7.080078 6.5431986,7.0703472 2.4665357e-6 0 0 6.550781,7.060547 6.5431986,7.0703472 2.4665357e-6 0 0 6.535157,-7.080078 6.5431986,7.0703472 2.4665357e-6 0 0 -6.552735,-7.060547 z" />
    </clipPath>
    <inkscape:path-effect
       effect="powerclip"
       id="path-effect48"
       is_visible="true"
       lpeversion="1"
       inverse="true"
       flatten="false"
       hide_clip="false"
       message="" />
  </defs>
  <metadata
     id="metadata2">
    <rdf:RDF>
      <cc:Work
         rdf:about="">
        <dc:format>image/svg+xml</dc:format>
        <dc:type
           rdf:resource="http://purl.org/dc/dcmitype/StillImage" />
      </cc:Work>
    </rdf:RDF>
  </metadata>
  <path
     id="path5"
     style="fill:#f9f9f9;fill-opacity:1;stroke:none;stroke-width:0.0410675;stroke-opacity:1"
     d="m 8.235621,1.2264204 -0.3903736,0.22031 C 5.6466504,2.6898749 4.4520617,4.2248509 4.1057791,6.2503851 4.0148563,6.7822275 3.994849,7.5327317 4.0639079,7.8370013 4.2623551,8.7113515 4.7445869,9.575463 5.3503361,10.14188 6.2642762,10.996474 7.6768859,11.268449 8.7000751,10.786705 9.0340162,10.629472 9.4120034,10.240206 9.5110986,9.9518465 9.6703766,9.4883588 9.567313,8.7712237 9.3004515,8.4882683 9.1911314,8.3723548 9.1412306,8.3507279 8.9899567,8.3510575 8.8851389,8.3512911 8.7185227,8.3939149 8.5905646,8.4534824 8.2996368,8.5889068 8.1425626,8.5896196 8.1087176,8.4547521 8.0752017,8.3212085 8.1917344,8.1357326 8.4810541,7.8621062 8.8073966,7.5534638 9.0169987,7.4678735 9.4466805,7.4678676 c 0.3056094,-4.5e-6 0.380143,0.015276 0.5958675,0.1230383 0.354006,0.1768482 0.782512,0.6192184 0.975287,1.0062104 0.230562,0.4628436 0.294441,0.756549 0.293746,1.3547118 -6.87e-4,0.5922459 -0.06031,0.8628819 -0.306628,1.3901429 -0.670994,1.436391 -2.3963154,2.55246 -4.1730016,2.699759 -1.1134276,0.0923 -2.7678545,-0.388268 -4.0177541,-1.167253 -0.1806957,-0.112613 -0.3349981,-0.197591 -0.3433482,-0.189392 -0.00836,0.0082 0.1050681,0.168188 0.2518746,0.355589 0.2920207,0.372766 0.9123971,0.998531 1.2516429,1.262591 1.0501769,0.817432 2.3806213,1.366294 3.6795595,1.517692 0.1617584,0.01881 0.5024178,0.03637 0.7569118,0.03929 l 0.4625219,0.0057 0.3787783,-0.21258 c 2.0417759,-1.144432 3.2381849,-2.639147 3.6518609,-4.564019 0.07182,-0.334159 0.08976,-0.559446 0.09148,-1.1170095 0.0021,-0.6611698 -0.004,-0.7162081 -0.114646,-1.0467931 C 12.59162,8.0620924 12.08776,7.2946091 11.506125,6.8314189 11.194901,6.5835742 10.604513,6.291886 10.206814,6.1898151 9.8272795,6.0924067 9.1494661,6.0901297 8.7979908,6.1853057 7.8345764,6.446189 7.3420294,7.0817726 7.4613161,7.9097774 7.5246596,8.3494655 7.6784971,8.6652723 7.868438,8.7446353 8.0407984,8.816651 8.1644048,8.7988005 8.5197045,8.6505853 8.7138539,8.569594 8.7820679,8.5577646 8.8585434,8.5926087 8.9992175,8.6567052 8.9776069,8.7848085 8.7844624,9.0351611 8.4608599,9.454611 8.0619304,9.6712383 7.6146313,9.6709666 7.293754,9.6707723 7.0917475,9.6155087 6.8480562,9.4609642 5.9746431,8.9070616 5.5355422,7.7162514 5.7748516,6.5518444 6.1043697,4.948507 7.6768192,3.5829992 9.6682786,3.171185 10.473458,3.0046823 11.528064,3.1138126 12.561292,3.4700847 c 0.502597,0.1733028 1.273442,0.5385637 1.667141,0.7904095 0.130739,0.08364 0.247369,0.1423575 0.259605,0.1301234 C 14.526359,4.3522921 14.068216,3.7877268 13.689897,3.4069539 12.33761,2.0459087 10.580321,1.2804766 8.7078058,1.2373715 Z M 7.2068647,1.3410835 c -0.00889,-0.00304 -0.029573,-7.62e-4 -0.059909,0.00517 C 4.3482886,1.8926728 2.0800197,4.0368435 1.3976446,6.7811982 1.2311818,7.4506773 1.183286,7.8600475 1.185065,8.597143 c 0.00236,0.973764 0.1713363,1.817031 0.5494857,2.744854 l 0.1732838,0.424514 0.3923063,0.295678 c 1.1842706,0.892091 2.4749955,1.433265 3.8199911,1.601426 0.5141686,0.06428 1.3271101,-0.05312 1.9711928,-0.284728 1.1731856,-0.42184 2.2233583,-1.344205 2.6308323,-2.311964 0.330477,-0.784887 0.320212,-1.5534898 -0.02963,-2.2649382 C 10.520583,8.452311 10.181901,8.0847619 9.8995415,7.9407134 9.6463336,7.8115358 9.3069151,7.7913153 9.0975366,7.8936882 l -0.1642664,0.080522 0.1236824,0.00452 C 9.5324411,7.9950342 9.876628,8.4821142 9.9594507,9.2554974 10.089899,10.473608 9.0613169,11.389666 7.5624548,11.389666 6.5537581,11.389666 5.7253235,11.03819 4.9908863,10.29907 4.3679052,9.6721072 3.9798376,8.987989 3.7534137,8.1172196 3.574979,7.4310074 3.631276,6.4293996 3.9022186,5.4644841 4.3401209,3.9049764 5.3469562,2.6037681 6.9214934,1.5626821 7.1555273,1.407939 7.2335401,1.3502343 7.2068647,1.3410835 Z M 10.555959,3.4681696 C 10.253163,3.4649776 9.9602822,3.4912983 9.6818066,3.5480476 8.2145837,3.8470485 6.9398161,4.7792901 6.3681416,5.9714546 5.9925281,6.7547575 5.9850773,7.6028953 6.346885,8.3381742 6.5167868,8.683458 6.8725451,9.0619733 7.1630621,9.2065293 7.3882385,9.3185761 7.7688205,9.3378478 7.9444529,9.2458251 L 8.0539651,9.1884926 7.8420296,9.1337365 C 7.4409418,9.0309421 7.2013239,8.6655132 7.0973552,7.9967585 7.0026768,7.3877598 7.1774137,6.8290116 7.5888654,6.4268903 7.8734825,6.1487273 8.2045727,5.9650039 8.6472539,5.839398 9.1377579,5.7002211 9.9011711,5.7097952 10.411664,5.861945 c 1.019489,0.303851 1.760189,0.8973399 2.349969,1.8829397 0.403089,0.6736104 0.627432,1.4323853 0.627432,2.1212865 0,2.2544728 -1.117848,4.2647998 -3.110746,5.5934228 -0.174887,0.116584 -0.3368668,0.229827 -0.3594524,0.251871 -0.026912,0.02624 -0.012597,0.03257 0.041228,0.01805 0.045174,-0.01216 0.2389684,-0.06131 0.4309554,-0.109497 1.32158,-0.331778 2.742146,-1.236902 3.651862,-2.326793 1.733345,-2.07665 2.216944,-4.6811021 1.337317,-7.1993617 C 15.147756,5.4283126 15.08062,5.3212531 14.739267,5.0670284 13.370637,4.0477249 11.868077,3.4820167 10.555959,3.4681696 Z" />
  <g
     fill="#474747"
     id="g9"
     transform="matrix(0.46959567,0,0,0.46959567,4.7471229,3.7470598)"
     style="fill:#999999;fill-opacity:1;stroke:none;stroke-width:0.58349;stroke-dasharray:none;stroke-opacity:0.3" />
  <text
     xml:space="preserve"
     transform="scale(0.26457812)"
     id="text3806"
     style="font-size:6.66667px;white-space:pre;shape-inside:url(#rect3808);display:inline;fill:#999999;stroke-width:2" />
</svg>
