<?xml version="1.0" encoding="UTF-8" standalone="no"?>
<svg
   width="64"
   height="64"
   version="1.1"
   viewBox="0 0 16.933 16.933"
   id="svg7"
   sodipodi:docname="org.audacityteam.Audacity.svg"
   inkscape:version="1.4 (e7c3feb100, 2024-10-09)"
   xmlns:inkscape="http://www.inkscape.org/namespaces/inkscape"
   xmlns:sodipodi="http://sodipodi.sourceforge.net/DTD/sodipodi-0.dtd"
   xmlns="http://www.w3.org/2000/svg"
   xmlns:svg="http://www.w3.org/2000/svg"
   xmlns:rdf="http://www.w3.org/1999/02/22-rdf-syntax-ns#"
   xmlns:cc="http://creativecommons.org/ns#"
   xmlns:dc="http://purl.org/dc/elements/1.1/">
  <sodipodi:namedview
     id="namedview7"
     pagecolor="#9c4444"
     bordercolor="#000000"
     borderopacity="0.25"
     inkscape:showpageshadow="2"
     inkscape:pageopacity="0.0"
     inkscape:pagecheckerboard="0"
     inkscape:deskcolor="#d1d1d1"
     inkscape:zoom="6.15625"
     inkscape:cx="15.837563"
     inkscape:cy="29.725888"
     inkscape:window-width="1183"
     inkscape:window-height="941"
     inkscape:window-x="35"
     inkscape:window-y="32"
     inkscape:window-maximized="0"
     inkscape:current-layer="svg7"
     showgrid="false" />
  <defs
     id="defs2">
    <rect
       x="67.489848"
       y="35.60533"
       width="15.337563"
       height="22.51269"
       id="rect3808" />
    <filter
       style="color-interpolation-filters:sRGB;"
       inkscape:label="Blur"
       id="filter1283"
       x="-0.082344266"
       y="-0.082344266"
       width="1.1646885"
       height="1.1646885">
      <feGaussianBlur
         stdDeviation="0.5 0.5"
         result="blur"
         id="feGaussianBlur1281" />
    </filter>
    <filter
       style="color-interpolation-filters:sRGB;"
       inkscape:label="Blur"
       id="filter1694"
       x="-0.94955398"
       y="-0.2118907"
       width="2.899108"
       height="1.4237814">
      <feGaussianBlur
         stdDeviation="0.2 0.2"
         result="blur"
         id="feGaussianBlur1692" />
    </filter>
    <filter
       style="color-interpolation-filters:sRGB;"
       inkscape:label="Blur"
       id="filter3148"
       x="-0.94955398"
       y="-0.2118907"
       width="2.899108"
       height="1.4237814">
      <feGaussianBlur
         stdDeviation="0.2 0.2"
         result="blur"
         id="feGaussianBlur3146" />
    </filter>
    <clipPath
       clipPathUnits="userSpaceOnUse"
       id="clipPath44">
      <path
         id="path46"
         style="display:block;opacity:0.85;fill:#f2f2f2;stroke-width:4.39162"
         d="m 17.570312,8.4453125 a 6.5431988,7.4283052 9.9958727e-8 0 0 -6.535156,7.4394535 6.5431988,7.4283052 9.9958727e-8 0 0 6.552735,7.417968 6.5431988,7.4283052 9.9958727e-8 0 0 6.535156,-7.4375 6.5431988,7.4283052 9.9958727e-8 0 0 -6.552735,-7.4199215 z M 45.646484,41.177734 a 6.5431986,7.0703472 2.4665357e-6 0 0 -6.533203,7.080078 6.5431986,7.0703472 2.4665357e-6 0 0 6.550781,7.060547 6.5431986,7.0703472 2.4665357e-6 0 0 6.535157,-7.080078 6.5431986,7.0703472 2.4665357e-6 0 0 -6.552735,-7.060547 z" />
    </clipPath>
    <inkscape:path-effect
       effect="powerclip"
       id="path-effect48"
       is_visible="true"
       lpeversion="1"
       inverse="true"
       flatten="false"
       hide_clip="false"
       message="" />
  </defs>
  <metadata
     id="metadata2">
    <rdf:RDF>
      <cc:Work
         rdf:about="">
        <dc:format>image/svg+xml</dc:format>
        <dc:type
           rdf:resource="http://purl.org/dc/dcmitype/StillImage" />
      </cc:Work>
    </rdf:RDF>
  </metadata>
  <g
     id="g1759"
     transform="matrix(0.30434006,0,0,0.30434006,-1.3071294,-1.2436394)"
     style="fill:#f9f9f9;fill-opacity:1;stroke:none;stroke-width:1.57081;stroke-dasharray:none;stroke-opacity:0.3">
    <path
       style="fill:#f9f9f9;fill-opacity:1;stroke:none;stroke-width:1.57081;stroke-dasharray:none;stroke-opacity:0.3"
       d="m 21.867542,23.839093 a 0.85488792,0.9179372 0 0 0 -0.843115,0.754715 l -3.076955,18.356905 a 0.85488792,0.9179372 0 1 0 1.681223,0.324473 l 1.846506,-11.01056 1.247146,20.086831 a 0.85488792,0.9179372 0 0 0 1.704593,0.0056 l 0.888194,-13.358986 0.826421,11.526847 a 0.85488792,0.9179372 0 0 0 1.702927,0.01254 l 1.0468,-12.371191 0.676161,5.076833 a 0.85488792,0.9179372 0 0 0 1.679552,0.06812 l 1.72964,-8.355611 v 13.663707 a 0.85488792,0.9179372 0 0 0 1.699587,0.139828 l 2.514322,-17.548414 2.632859,21.201867 a 0.85488792,0.9179372 0 0 0 1.697918,-0.03946 l 1.345644,-15.886608 1.609434,5.085793 a 0.85531408,0.91839456 0 1 0 1.619451,-0.591661 l -2.906663,-9.17668 a 0.85488792,0.9179372 0 0 0 -1.661189,0.211535 L 40.509583,44.04603 38.098771,24.635033 a 0.85488792,0.9179372 0 0 0 -1.692909,-0.01793 l -1.71962,12.000119 V 26.592633 a 0.85488792,0.9179372 0 0 0 -1.687901,-0.200776 l -2.402463,11.609308 -1.0468,-7.868014 a 0.85488792,0.9179372 0 0 0 -1.696248,0.04661 l -0.788022,9.303937 -0.928261,-12.962774 a 0.85488792,0.9179372 0 0 0 -1.704596,0.0057 L 23.605529,38.962101 22.719007,24.696057 a 0.85488792,0.9179372 0 0 0 -0.851465,-0.856931 z"
       id="path8-2" />
    <path
       style="fill:#f9f9f9;fill-opacity:1;stroke:none;stroke-width:1.57081;stroke-dasharray:none;stroke-opacity:0.3"
       d="m 32.121834,10.996429 c -4.959901,0 -9.909604,1.662791 -13.246291,4.454776 -3.33669,2.791987 -5.504461,6.787009 -5.504461,11.231057 v 1.606231 c -3.312926,1.802306 -5.1820467,6.528639 -5.1820467,12.070024 0,7.092856 3.7584837,12.849832 8.6014507,12.849832 V 26.682262 c 0,-3.327989 1.604398,-6.391229 4.359157,-8.696228 2.754415,-2.30536 6.645293,-3.327187 10.97386,-3.327187 4.328733,0 8.2191,1.022231 10.973861,3.327187 2.754759,2.30496 4.359156,5.368239 4.359156,8.696228 v 26.526087 c 4.843137,0 8.599781,-5.756976 8.599781,-12.849832 0,-5.541752 -1.783491,-10.26744 -5.096587,-12.070024 v -1.606231 c 0,-4.444048 -2.166101,-8.43907 -5.502791,-11.231057 -3.337028,-2.79217 -8.374034,-4.454776 -13.33342,-4.454776 z M 17.591863,27.508682 v 0.0018 25.697833 c 0.68381,0 1.36762,-0.408557 1.709603,-1.224389 V 28.32444 C 18.95956,27.916511 18.275751,27.508763 17.591863,27.508763 Z m 29.063281,0 c -0.683888,0 -1.367701,0.407747 -1.709605,0.815662 V 51.98396 c 0.341983,0.815833 1.025795,1.224389 1.709605,1.224389 V 27.510473 Z"
       id="path12" />
  </g>
  <text
     xml:space="preserve"
     transform="scale(0.26457812)"
     id="text3806"
     style="font-size:6.66667px;white-space:pre;shape-inside:url(#rect3808);display:inline;fill:#999999;stroke-width:2" />
</svg>
