<?xml version="1.0" encoding="UTF-8" standalone="no"?>
<svg
   width="64"
   height="64"
   version="1.1"
   viewBox="0 0 16.933 16.933"
   id="svg7"
   sodipodi:docname="org.gnome.Calendar.svg"
   inkscape:version="1.4 (e7c3feb100, 2024-10-09)"
   xmlns:inkscape="http://www.inkscape.org/namespaces/inkscape"
   xmlns:sodipodi="http://sodipodi.sourceforge.net/DTD/sodipodi-0.dtd"
   xmlns="http://www.w3.org/2000/svg"
   xmlns:svg="http://www.w3.org/2000/svg"
   xmlns:rdf="http://www.w3.org/1999/02/22-rdf-syntax-ns#"
   xmlns:cc="http://creativecommons.org/ns#"
   xmlns:dc="http://purl.org/dc/elements/1.1/">
  <sodipodi:namedview
     id="namedview7"
     pagecolor="#9c4444"
     bordercolor="#000000"
     borderopacity="0.25"
     inkscape:showpageshadow="2"
     inkscape:pageopacity="0.0"
     inkscape:pagecheckerboard="0"
     inkscape:deskcolor="#d1d1d1"
     inkscape:zoom="6.15625"
     inkscape:cx="15.837563"
     inkscape:cy="29.725888"
     inkscape:window-width="1183"
     inkscape:window-height="941"
     inkscape:window-x="35"
     inkscape:window-y="32"
     inkscape:window-maximized="0"
     inkscape:current-layer="svg7"
     showgrid="false" />
  <defs
     id="defs2">
    <rect
       x="67.489848"
       y="35.60533"
       width="15.337563"
       height="22.51269"
       id="rect3808" />
    <filter
       style="color-interpolation-filters:sRGB;"
       inkscape:label="Blur"
       id="filter1283"
       x="-0.082344266"
       y="-0.082344266"
       width="1.1646885"
       height="1.1646885">
      <feGaussianBlur
         stdDeviation="0.5 0.5"
         result="blur"
         id="feGaussianBlur1281" />
    </filter>
    <filter
       style="color-interpolation-filters:sRGB;"
       inkscape:label="Blur"
       id="filter1694"
       x="-0.94955398"
       y="-0.2118907"
       width="2.899108"
       height="1.4237814">
      <feGaussianBlur
         stdDeviation="0.2 0.2"
         result="blur"
         id="feGaussianBlur1692" />
    </filter>
    <filter
       style="color-interpolation-filters:sRGB;"
       inkscape:label="Blur"
       id="filter3148"
       x="-0.94955398"
       y="-0.2118907"
       width="2.899108"
       height="1.4237814">
      <feGaussianBlur
         stdDeviation="0.2 0.2"
         result="blur"
         id="feGaussianBlur3146" />
    </filter>
    <clipPath
       clipPathUnits="userSpaceOnUse"
       id="clipPath44">
      <path
         id="path46"
         style="display:block;opacity:0.85;fill:#f2f2f2;stroke-width:4.39162"
         d="m 17.570312,8.4453125 a 6.5431988,7.4283052 9.9958727e-8 0 0 -6.535156,7.4394535 6.5431988,7.4283052 9.9958727e-8 0 0 6.552735,7.417968 6.5431988,7.4283052 9.9958727e-8 0 0 6.535156,-7.4375 6.5431988,7.4283052 9.9958727e-8 0 0 -6.552735,-7.4199215 z M 45.646484,41.177734 a 6.5431986,7.0703472 2.4665357e-6 0 0 -6.533203,7.080078 6.5431986,7.0703472 2.4665357e-6 0 0 6.550781,7.060547 6.5431986,7.0703472 2.4665357e-6 0 0 6.535157,-7.080078 6.5431986,7.0703472 2.4665357e-6 0 0 -6.552735,-7.060547 z" />
    </clipPath>
    <inkscape:path-effect
       effect="powerclip"
       id="path-effect48"
       is_visible="true"
       lpeversion="1"
       inverse="true"
       flatten="false"
       hide_clip="false"
       message="" />
  </defs>
  <metadata
     id="metadata2">
    <rdf:RDF>
      <cc:Work
         rdf:about="">
        <dc:format>image/svg+xml</dc:format>
        <dc:type
           rdf:resource="http://purl.org/dc/dcmitype/StillImage" />
      </cc:Work>
    </rdf:RDF>
  </metadata>
  <path
     id="path51393"
     style="fill:#f9f9f9;fill-opacity:1;stroke:none;stroke-width:0.347179;stroke-dasharray:none;stroke-opacity:0.3"
     d="m 12.011045,4.4627253 c -1.578249,-0.00268 -2.5297497,0.8849986 -2.9135336,2.7174385 -0.1994435,0.9522881 -0.1971024,2.6428677 0.00493,3.3926952 0.2859017,1.061145 0.89485,1.742551 1.6975786,1.901061 0.653254,0.128988 1.452276,-0.121158 1.855931,-0.580903 0.507629,-0.578164 0.751427,-1.594796 0.612072,-2.5508814 -0.09422,-0.6465104 -0.30846,-1.0893935 -0.70479,-1.4547159 -0.337111,-0.3107364 -0.644567,-0.419222 -1.181494,-0.4176256 -0.496784,0.00147 -0.844798,0.1737225 -1.222521,0.605516 L 9.8449716,8.433861 V 8.1237186 c 0,-0.4648253 0.1756654,-1.2922643 0.3569094,-1.6811687 0.200391,-0.4299854 0.522481,-0.7589653 0.912377,-0.9328887 0.354834,-0.1582812 1.130013,-0.2237965 1.485895,-0.1255338 l 0.251062,0.068922 V 4.9985007 c 0,-0.5363691 0.0023,-0.534347 -0.84017,-0.5357754 z m -6.2570002,0.00655 c -0.055994,2.763e-4 -0.1134396,0.00205 -0.1723014,0.00493 C 5.0874303,4.4981439 4.9430705,4.5336669 4.6012665,4.7170699 4.3808392,4.8353461 4.0825245,5.0327336 3.9374962,5.1552078 L 3.673301,5.3775661 3.8940107,5.7213483 c 0.1213056,0.1890354 0.2404787,0.3437821 0.2650162,0.3437821 0.024536,0 0.1550088,-0.090873 0.2896304,-0.2018385 C 4.833568,5.5460151 5.2187007,5.3997167 5.6769195,5.3980782 6.4204889,5.3953882 6.7831574,5.8076867 6.7804686,6.6525961 6.7774505,7.6159069 6.6000348,7.9068399 4.3748137,10.607323 l -0.7417161,0.90089 v 0.451265 0.451264 H 5.8040944 7.9750913 V 11.909429 11.408936 H 6.3661248 c -0.9302917,0 -1.599689,-0.02581 -1.5868133,-0.06071 0.01224,-0.03319 0.413451,-0.517582 0.891044,-1.076475 C 7.446742,8.1929652 7.7502927,7.6080984 7.6953069,6.3728113 7.6723828,5.8577879 7.6389978,5.7098536 7.474597,5.4087442 7.1166031,4.7530642 6.5939329,4.4651448 5.7540448,4.4692929 Z M 0.84919982,6.4679812 C 0.74490962,6.4670991 0.63360068,6.5203054 0.52428884,6.6296158 l -0.164097,0.164097 v 1.6639389 c 0,1.5822133 0.00621,1.6721663 0.1378422,1.8395223 0.21306942,0.270873 0.53198806,0.227068 0.69905126,-0.096 0.142452,-0.2754716 0.142452,-3.1877854 0,-3.4632571 C 1.1051244,6.5600944 0.98328956,6.4691062 0.84919982,6.4679872 Z m 15.29625518,0 c -0.104274,-8.821e-4 -0.215594,0.052322 -0.324911,0.1616346 l -0.164088,0.164097 v 1.6639389 c 0,1.5822183 0.007,1.6721663 0.138654,1.8395223 0.213069,0.270875 0.531983,0.227068 0.699048,-0.096 0.142452,-0.2754727 0.142452,-3.1877838 0,-3.4632569 -0.09194,-0.177831 -0.214611,-0.2688203 -0.348705,-0.2699393 z M 11.227486,8.33622 c 0.485366,0 0.773713,0.1667682 0.982936,0.5677741 0.117756,0.2257213 0.139482,0.3864995 0.139482,1.0354484 0,0.7167475 -0.01224,0.7888755 -0.182966,1.0789345 -0.126918,0.215881 -0.270931,0.353218 -0.471775,0.450448 -0.329329,0.159426 -0.6571,0.175446 -0.948481,0.04594 C 10.008786,11.186814 9.6193528,9.7458156 10.06404,8.9893298 10.322521,8.549611 10.702768,8.3362255 11.227486,8.3362255 Z" />
  <g
     fill="#474747"
     id="g9"
     transform="matrix(0.46959567,0,0,0.46959567,4.7471229,3.7470598)"
     style="fill:#999999;fill-opacity:1;stroke:none;stroke-width:0.58349;stroke-dasharray:none;stroke-opacity:0.3" />
  <text
     xml:space="preserve"
     transform="scale(0.26457812)"
     id="text3806"
     style="font-size:6.66667px;white-space:pre;shape-inside:url(#rect3808);display:inline;fill:#999999;stroke-width:2" />
</svg>
