<?xml version="1.0" encoding="UTF-8" standalone="no"?>
<svg
   width="64"
   height="64"
   version="1.1"
   viewBox="0 0 16.933 16.933"
   id="svg7"
   sodipodi:docname="org.flameshot.Flameshot.svg"
   inkscape:version="1.4 (e7c3feb100, 2024-10-09)"
   xmlns:inkscape="http://www.inkscape.org/namespaces/inkscape"
   xmlns:sodipodi="http://sodipodi.sourceforge.net/DTD/sodipodi-0.dtd"
   xmlns="http://www.w3.org/2000/svg"
   xmlns:svg="http://www.w3.org/2000/svg"
   xmlns:rdf="http://www.w3.org/1999/02/22-rdf-syntax-ns#"
   xmlns:cc="http://creativecommons.org/ns#"
   xmlns:dc="http://purl.org/dc/elements/1.1/">
  <sodipodi:namedview
     id="namedview7"
     pagecolor="#9c4444"
     bordercolor="#000000"
     borderopacity="0.25"
     inkscape:showpageshadow="2"
     inkscape:pageopacity="0.0"
     inkscape:pagecheckerboard="0"
     inkscape:deskcolor="#d1d1d1"
     inkscape:zoom="4.3531261"
     inkscape:cx="16.195258"
     inkscape:cy="27.796116"
     inkscape:window-width="1183"
     inkscape:window-height="941"
     inkscape:window-x="35"
     inkscape:window-y="32"
     inkscape:window-maximized="0"
     inkscape:current-layer="svg7"
     showgrid="false" />
  <defs
     id="defs2">
    <filter
       style="color-interpolation-filters:sRGB;"
       inkscape:label="Blur"
       id="filter1283"
       x="-0.082344266"
       y="-0.082344266"
       width="1.1646885"
       height="1.1646885">
      <feGaussianBlur
         stdDeviation="0.5 0.5"
         result="blur"
         id="feGaussianBlur1281" />
    </filter>
    <filter
       style="color-interpolation-filters:sRGB;"
       inkscape:label="Blur"
       id="filter1694"
       x="-0.94955398"
       y="-0.2118907"
       width="2.899108"
       height="1.4237814">
      <feGaussianBlur
         stdDeviation="0.2 0.2"
         result="blur"
         id="feGaussianBlur1692" />
    </filter>
    <clipPath
       clipPathUnits="userSpaceOnUse"
       id="clipPath276">
      <circle
         cx="32"
         cy="21"
         r="11"
         style="display:none;fill:#ffffff"
         id="circle278" />
    </clipPath>
    <inkscape:path-effect
       effect="powerclip"
       id="path-effect280"
       is_visible="true"
       lpeversion="1"
       inverse="true"
       flatten="false"
       hide_clip="false"
       message="" />
    <clipPath
       clipPathUnits="userSpaceOnUse"
       id="clipPath854">
      <path
         style="display:block;fill:#ff812d;stroke-width:1.58832"
         d="M 16.422583,26.677299 C 38.790028,17.420545 36.741406,2.3199162 36.741406,2.3199162 c 0,0 12.349179,30.8061828 -6.163856,37.9881208 C 9.8965818,48.330999 11.458373,62.03536 11.458373,62.03536 c 0,0 -8.1724877,-29.921445 4.96421,-35.358061 z"
         id="path856"
         clip-path="url(#clipPath791)" />
    </clipPath>
    <inkscape:path-effect
       effect="powerclip"
       id="path-effect858"
       is_visible="true"
       lpeversion="1"
       inverse="true"
       flatten="false"
       hide_clip="false"
       message="" />
    <clipPath
       clipPathUnits="userSpaceOnUse"
       id="clipath_lpe_path-effect846">
      <path
         style="display:block;fill:#ffdf55;stroke-width:1.58832"
         d="M 4.2768115,34.537906 C 16.934974,18.372356 14.087849,7.0342933 14.087849,7.0342933 c 0,0 16.217779,19.6951427 5.182049,31.8936557 -12.3280457,13.627003 -7.706194,23.107411 -7.706194,23.107411 0,0 -14.5471376,-18.225493 -7.2868925,-27.497454 z"
         id="path848" />
    </clipPath>
    <inkscape:path-effect
       effect="powerclip"
       id="path-effect846"
       is_visible="true"
       lpeversion="1"
       inverse="true"
       flatten="false"
       hide_clip="false"
       message="" />
  </defs>
  <metadata
     id="metadata2">
    <rdf:RDF>
      <cc:Work
         rdf:about="">
        <dc:format>image/svg+xml</dc:format>
        <dc:type
           rdf:resource="http://purl.org/dc/dcmitype/StillImage" />
      </cc:Work>
    </rdf:RDF>
  </metadata>
  <path
     id="path1"
     style="fill:#f9f9f9;stroke-width:0.11486;stroke-opacity:0.6"
     d="M 36.615235 5.4492189 L 36.324219 7.3515626 C 35.949734 9.7978676 35.137349 12.052388 33.800782 14.357422 C 32.420672 16.737549 28.475019 20.733455 25.650391 22.611329 C 23.689042 23.915278 23.623721 23.987614 23.765625 24.673829 C 24.090662 26.24564 24.162335 29.153545 23.916016 30.730469 C 23.42982 33.843069 22.634538 35.302527 19.025391 39.697266 C 14.714655 44.946303 12.448833 50.917152 12.964844 55.66797 C 13.058554 56.530743 13.170464 57.200631 13.214844 57.156251 C 13.259219 57.111874 13.456286 56.305531 13.652344 55.365235 C 14.361651 51.963383 16.291883 48.729875 19.382813 45.765626 C 21.699787 43.543614 24.316909 41.776612 27.482422 40.294923 C 33.726326 37.37232 34.024995 37.199933 35.490235 35.712891 C 39.493407 31.650163 40.803643 24.708084 39.269532 15.677735 C 38.7714 12.745543 37.94287 9.3607581 37.152344 7.0312501 L 36.615235 5.4492189 z M 14.357422 7.6953126 L 14.302735 8.9589845 C 13.981159 16.484677 11.595814 22.878465 6.404297 30.13086 C 4.0877344 33.367028 3.7446801 34.044994 3.4003907 36.052735 C 3.067981 37.9912 3.3727287 40.59828 4.2597657 43.406251 C 5.0019119 45.755558 7.5455435 50.788397 9.4062502 53.591798 C 10.220316 54.818296 10.89803 55.822267 10.91211 55.822267 C 10.92619 55.822267 10.893084 54.600771 10.839844 53.107423 C 10.760479 50.881432 10.829508 50.048746 11.22461 48.486329 C 12.233902 44.495119 14.225569 40.873341 17.75 36.617188 C 20.968328 32.730689 21.824219 30.606315 21.824219 26.500001 C 21.824219 21.460914 19.838343 15.945736 15.882813 9.9921877 L 14.357422 7.6953126 z M 60.867189 15.964844 L 60.29297 17.056641 C 59.552514 18.463269 57.023766 21.14106 55.253907 22.392579 C 52.380898 24.424165 47.372297 26.708148 43.601563 27.707032 L 42.064454 28.115235 L 41.681641 29.851563 C 40.725916 34.184391 38.643408 37.410013 35.541016 39.363282 C 34.882055 39.778163 33.412505 40.510936 32.275391 40.992188 C 22.302388 45.213005 16.61286 51.231245 15.726563 58.496095 L 15.5625 59.841798 L 16.582032 58.462892 C 20.510626 53.157689 28.717385 49.478567 39.626954 48.13086 C 44.514807 47.527041 45.847928 47.08001 48.607423 45.125001 C 54.61324 40.870082 59.019896 30.651467 60.736329 17 L 60.867189 15.964844 z "
     transform="scale(0.26457812)" />
</svg>
