<?xml version="1.0" encoding="UTF-8" standalone="no"?>
<svg
   width="64"
   height="64"
   version="1.1"
   viewBox="0 0 16.933 16.933"
   id="svg7"
   sodipodi:docname="planify.svg"
   inkscape:version="1.4 (e7c3feb100, 2024-10-09)"
   xmlns:inkscape="http://www.inkscape.org/namespaces/inkscape"
   xmlns:sodipodi="http://sodipodi.sourceforge.net/DTD/sodipodi-0.dtd"
   xmlns="http://www.w3.org/2000/svg"
   xmlns:svg="http://www.w3.org/2000/svg"
   xmlns:rdf="http://www.w3.org/1999/02/22-rdf-syntax-ns#"
   xmlns:cc="http://creativecommons.org/ns#"
   xmlns:dc="http://purl.org/dc/elements/1.1/">
  <sodipodi:namedview
     id="namedview7"
     pagecolor="#9c4444"
     bordercolor="#000000"
     borderopacity="0.25"
     inkscape:showpageshadow="2"
     inkscape:pageopacity="0.0"
     inkscape:pagecheckerboard="0"
     inkscape:deskcolor="#d1d1d1"
     inkscape:zoom="6.15625"
     inkscape:cx="15.918782"
     inkscape:cy="33.461929"
     inkscape:window-width="1226"
     inkscape:window-height="669"
     inkscape:window-x="177"
     inkscape:window-y="267"
     inkscape:window-maximized="0"
     inkscape:current-layer="svg7"
     showgrid="false" />
  <defs
     id="defs2">
    <rect
       x="67.489848"
       y="35.60533"
       width="15.337563"
       height="22.51269"
       id="rect3808" />
    <filter
       style="color-interpolation-filters:sRGB;"
       inkscape:label="Blur"
       id="filter1283"
       x="-0.082344266"
       y="-0.082344266"
       width="1.1646885"
       height="1.1646885">
      <feGaussianBlur
         stdDeviation="0.5 0.5"
         result="blur"
         id="feGaussianBlur1281" />
    </filter>
    <filter
       style="color-interpolation-filters:sRGB;"
       inkscape:label="Blur"
       id="filter1694"
       x="-0.94955398"
       y="-0.2118907"
       width="2.899108"
       height="1.4237814">
      <feGaussianBlur
         stdDeviation="0.2 0.2"
         result="blur"
         id="feGaussianBlur1692" />
    </filter>
    <filter
       style="color-interpolation-filters:sRGB;"
       inkscape:label="Blur"
       id="filter3148"
       x="-0.94955398"
       y="-0.2118907"
       width="2.899108"
       height="1.4237814">
      <feGaussianBlur
         stdDeviation="0.2 0.2"
         result="blur"
         id="feGaussianBlur3146" />
    </filter>
    <clipPath
       clipPathUnits="userSpaceOnUse"
       id="clipPath44">
      <path
         id="path46"
         style="display:block;opacity:0.85;fill:#f2f2f2;stroke-width:4.39162"
         d="m 17.570312,8.4453125 a 6.5431988,7.4283052 9.9958727e-8 0 0 -6.535156,7.4394535 6.5431988,7.4283052 9.9958727e-8 0 0 6.552735,7.417968 6.5431988,7.4283052 9.9958727e-8 0 0 6.535156,-7.4375 6.5431988,7.4283052 9.9958727e-8 0 0 -6.552735,-7.4199215 z M 45.646484,41.177734 a 6.5431986,7.0703472 2.4665357e-6 0 0 -6.533203,7.080078 6.5431986,7.0703472 2.4665357e-6 0 0 6.550781,7.060547 6.5431986,7.0703472 2.4665357e-6 0 0 6.535157,-7.080078 6.5431986,7.0703472 2.4665357e-6 0 0 -6.552735,-7.060547 z" />
    </clipPath>
    <inkscape:path-effect
       effect="powerclip"
       id="path-effect48"
       is_visible="true"
       lpeversion="1"
       inverse="true"
       flatten="false"
       hide_clip="false"
       message="" />
  </defs>
  <metadata
     id="metadata2">
    <rdf:RDF>
      <cc:Work
         rdf:about="">
        <dc:format>image/svg+xml</dc:format>
        <dc:type
           rdf:resource="http://purl.org/dc/dcmitype/StillImage" />
      </cc:Work>
    </rdf:RDF>
  </metadata>
  <g
     id="g7227"
     transform="matrix(0.33477407,0,0,0.33477407,-1.4971069,-1.4510553)"
     style="fill:#f9f9f9;fill-opacity:1;stroke:none;stroke-width:1.39959;stroke-dasharray:none;stroke-opacity:0.3">
    <path
       style="color:#000000;fill:#f9f9f9;fill-opacity:1;stroke:none;stroke-width:1.39959;stroke-linecap:round;stroke-dasharray:none;stroke-opacity:0.3"
       d="m 19.720703,23.611328 a 2.32932,2.32932 0 0 0 -1.587891,0.8125 l -3.535156,4.160156 -1.75,-1.228515 a 2.32932,2.32932 0 0 0 -3.2441404,0.568359 2.32932,2.32932 0 0 0 0.5664064,3.244141 l 5.224609,3.669922 6.28711,-7.396485 a 2.32932,2.32932 0 0 0 -0.265625,-3.283203 2.32932,2.32932 0 0 0 -1.695313,-0.546875 z"
       id="path14" />
    <g
       id="path16"
       style="fill:#f9f9f9;fill-opacity:1;stroke:none;stroke-width:1.39959;stroke-dasharray:none;stroke-opacity:0.3">
      <path
         style="color:#000000;fill:#f9f9f9;fill-opacity:1;stroke:none;stroke-width:1.39959;stroke-linecap:round;stroke-dasharray:none;stroke-opacity:0.3"
         d="M 28.832479,16.13251 H 48.050681"
         id="path1" />
      <path
         style="color:#000000;fill:#f9f9f9;fill-opacity:1;stroke:none;stroke-width:1.39959;stroke-linecap:round;stroke-dasharray:none;stroke-opacity:0.3"
         d="m 28.832031,13.353516 a 2.7781949,2.7781949 0 0 0 -2.777344,2.779296 2.7781949,2.7781949 0 0 0 2.777344,2.777344 h 19.21875 a 2.7781949,2.7781949 0 0 0 2.777344,-2.777344 2.7781949,2.7781949 0 0 0 -2.777344,-2.779296 z"
         id="path2-9" />
    </g>
    <path
       style="color:#000000;fill:#f9f9f9;fill-opacity:1;stroke:none;stroke-width:1.39959;stroke-linecap:round;stroke-dasharray:none;stroke-opacity:0.3"
       d="m 19.720703,10.005859 a 2.32932,2.32932 0 0 0 -1.587891,0.8125 l -3.535156,4.158204 -1.75,-1.226563 A 2.32932,2.32932 0 0 0 9.6035156,14.316406 2.32932,2.32932 0 0 0 10.169922,17.5625 l 5.224609,3.667969 6.28711,-7.394531 a 2.32932,2.32932 0 0 0 -0.265625,-3.283204 2.32932,2.32932 0 0 0 -1.695313,-0.546875 z"
       id="path18" />
    <path
       style="color:#000000;fill:#f9f9f9;fill-opacity:1;stroke:none;stroke-width:1.39959;stroke-linecap:round;stroke-dasharray:none;stroke-opacity:0.3"
       d="m 19.720703,38.232422 a 2.32932,2.32932 0 0 0 -1.587891,0.8125 l -3.535156,4.160156 -1.75,-1.228516 a 2.32932,2.32932 0 0 0 -3.2441404,0.56836 2.32932,2.32932 0 0 0 0.5664064,3.24414 l 5.224609,3.669922 6.28711,-7.396484 a 2.32932,2.32932 0 0 0 -0.265625,-3.283203 2.32932,2.32932 0 0 0 -1.695313,-0.546875 z"
       id="path20" />
    <g
       id="path22"
       style="fill:#f9f9f9;fill-opacity:1;stroke:none;stroke-width:1.39959;stroke-dasharray:none;stroke-opacity:0.3">
      <path
         style="color:#000000;fill:#f9f9f9;fill-opacity:1;stroke:none;stroke-width:1.39959;stroke-linecap:round;stroke-dasharray:none;stroke-opacity:0.3"
         d="M 28.832479,29.220274 H 48.050681"
         id="path3-6" />
      <path
         style="color:#000000;fill:#f9f9f9;fill-opacity:1;stroke:none;stroke-width:1.39959;stroke-linecap:round;stroke-dasharray:none;stroke-opacity:0.3"
         d="m 28.832031,26.441406 a 2.7781949,2.7781949 0 0 0 -2.777344,2.779297 2.7781949,2.7781949 0 0 0 2.777344,2.777344 h 19.21875 a 2.7781949,2.7781949 0 0 0 2.777344,-2.777344 2.7781949,2.7781949 0 0 0 -2.777344,-2.779297 z"
         id="path4-7" />
    </g>
    <g
       id="path24"
       style="fill:#f9f9f9;fill-opacity:1;stroke:none;stroke-width:1.39959;stroke-dasharray:none;stroke-opacity:0.3">
      <path
         style="color:#000000;fill:#f9f9f9;fill-opacity:1;stroke:none;stroke-width:1.39959;stroke-linecap:round;stroke-dasharray:none;stroke-opacity:0.3"
         d="M 28.832479,42.308039 H 48.050681"
         id="path5" />
      <path
         style="color:#000000;fill:#f9f9f9;fill-opacity:1;stroke:none;stroke-width:1.39959;stroke-linecap:round;stroke-dasharray:none;stroke-opacity:0.3"
         d="m 28.832031,39.529297 a 2.7781949,2.7781949 0 0 0 -2.777344,2.779297 2.7781949,2.7781949 0 0 0 2.777344,2.777343 h 19.21875 a 2.7781949,2.7781949 0 0 0 2.777344,-2.777343 2.7781949,2.7781949 0 0 0 -2.777344,-2.779297 z"
         id="path6" />
    </g>
  </g>
  <g
     fill="#474747"
     id="g9"
     transform="matrix(0.46959567,0,0,0.46959567,4.7471229,3.7470598)"
     style="fill:#999999;fill-opacity:1;stroke:none;stroke-width:0.58349;stroke-dasharray:none;stroke-opacity:0.3" />
  <text
     xml:space="preserve"
     transform="scale(0.26457812)"
     id="text3806"
     style="font-size:6.66667px;white-space:pre;shape-inside:url(#rect3808);display:inline;fill:#999999;stroke-width:2" />
</svg>
