<?xml version="1.0" encoding="UTF-8" standalone="no"?>
<svg
   width="64"
   height="64"
   version="1.1"
   viewBox="0 0 16.933 16.933"
   id="svg7"
   sodipodi:docname="preferences-input-devices.svg"
   inkscape:version="1.4 (e7c3feb100, 2024-10-09)"
   xmlns:inkscape="http://www.inkscape.org/namespaces/inkscape"
   xmlns:sodipodi="http://sodipodi.sourceforge.net/DTD/sodipodi-0.dtd"
   xmlns="http://www.w3.org/2000/svg"
   xmlns:svg="http://www.w3.org/2000/svg"
   xmlns:rdf="http://www.w3.org/1999/02/22-rdf-syntax-ns#"
   xmlns:cc="http://creativecommons.org/ns#"
   xmlns:dc="http://purl.org/dc/elements/1.1/">
  <sodipodi:namedview
     id="namedview7"
     pagecolor="#9c4444"
     bordercolor="#000000"
     borderopacity="0.25"
     inkscape:showpageshadow="2"
     inkscape:pageopacity="0.0"
     inkscape:pagecheckerboard="0"
     inkscape:deskcolor="#d1d1d1"
     inkscape:zoom="6.15625"
     inkscape:cx="15.837563"
     inkscape:cy="29.725888"
     inkscape:window-width="1183"
     inkscape:window-height="941"
     inkscape:window-x="35"
     inkscape:window-y="32"
     inkscape:window-maximized="0"
     inkscape:current-layer="svg7"
     showgrid="false" />
  <defs
     id="defs2">
    <rect
       x="67.489848"
       y="35.60533"
       width="15.337563"
       height="22.51269"
       id="rect3808" />
    <filter
       style="color-interpolation-filters:sRGB;"
       inkscape:label="Blur"
       id="filter1283"
       x="-0.082344266"
       y="-0.082344266"
       width="1.1646885"
       height="1.1646885">
      <feGaussianBlur
         stdDeviation="0.5 0.5"
         result="blur"
         id="feGaussianBlur1281" />
    </filter>
    <filter
       style="color-interpolation-filters:sRGB;"
       inkscape:label="Blur"
       id="filter1694"
       x="-0.94955398"
       y="-0.2118907"
       width="2.899108"
       height="1.4237814">
      <feGaussianBlur
         stdDeviation="0.2 0.2"
         result="blur"
         id="feGaussianBlur1692" />
    </filter>
    <filter
       style="color-interpolation-filters:sRGB;"
       inkscape:label="Blur"
       id="filter3148"
       x="-0.94955398"
       y="-0.2118907"
       width="2.899108"
       height="1.4237814">
      <feGaussianBlur
         stdDeviation="0.2 0.2"
         result="blur"
         id="feGaussianBlur3146" />
    </filter>
  </defs>
  <metadata
     id="metadata2">
    <rdf:RDF>
      <cc:Work
         rdf:about="">
        <dc:format>image/svg+xml</dc:format>
        <dc:type
           rdf:resource="http://purl.org/dc/dcmitype/StillImage" />
      </cc:Work>
    </rdf:RDF>
  </metadata>
  <path
     id="path17"
     style="fill:#f9f9f9;fill-opacity:1;stroke-width:0.185578"
     d="m 8.142651,2.6110192 c -5.3016357,0 -5.5436931,0.00243 -5.7065924,0.057127 C 2.1036591,2.779781 1.92885,2.8864217 1.6926697,3.1213483 1.4253182,3.3872807 1.2852706,3.6365064 1.2147247,3.9718976 c -0.067315,0.3200282 -0.068324,8.0888594 -0.00109,8.4061534 0.1449054,0.683847 0.7220127,1.232652 1.4187338,1.349054 0.087662,0.01444 1.7963421,0.0284 3.7969963,0.0304 l 3.6376172,0.0036 -0.1324482,-0.255077 C 9.7195334,13.09157 9.5861912,12.626917 9.5350212,12.114043 l -0.02093,-0.208865 H 7.1336475 4.7530197 l -0.075866,-0.07587 -0.075866,-0.07587 v -0.831069 -0.831265 l 0.07969,-0.07496 0.079868,-0.074959 2.3791724,-0.00819 2.3789893,-0.00838 V 9.476707 9.028781 H 9.1183827 C 8.6873806,9.028781 8.5871256,9.0040658 8.532732,8.8846888 8.4843789,8.7785662 8.4858153,7.378096 8.5343326,7.286931 8.6052121,7.1538531 8.647337,7.1440434 9.1530963,7.1430193 l 0.4845,-9.274e-4 0.068408,-0.2088629 C 9.7435707,6.8184025 9.8212788,6.6215846 9.8786626,6.4958566 9.9360445,6.3701298 9.9829118,6.2630542 9.9829118,6.2578839 c 0,-0.00517 -0.300459,-0.013547 -0.6677039,-0.018734 L 8.6475211,6.2296879 8.5729271,6.1429054 C 8.4983891,6.0561873 8.4983245,6.0555301 8.4983245,5.2832516 V 4.5101989 l 0.075865,-0.075865 0.076049,-0.075867 h 0.8032471 0.8032454 l 0.06422,0.081508 c 0.05968,0.075869 0.06404,0.1214556 0.06404,0.6618812 v 0.5805545 l 0.203768,-0.2112272 c 0.11211,-0.1161185 0.313834,-0.2922236 0.448289,-0.3913437 0.243684,-0.1796431 0.244518,-0.1805437 0.244702,-0.3223901 3.25e-4,-0.1782922 0.05153,-0.3293677 0.125172,-0.3687832 0.03391,-0.018145 0.504589,-0.030202 1.174939,-0.030202 1.006786,0 1.149419,0.00623 1.430379,0.063496 0.314021,0.063994 0.785451,0.2284531 0.975358,0.3402199 0.05626,0.033109 0.108357,0.060219 0.115881,0.060219 0.03262,0 0.0087,-0.6525647 -0.03074,-0.8387223 C 14.942766,3.3704598 14.497299,2.8920736 13.849055,2.66941 13.684747,2.6129722 13.490119,2.6110091 8.142644,2.6110091 Z M 3.9643177,4.3585109 H 4.745003 l 0.075139,0.079688 c 0.074051,0.078757 0.075079,0.088415 0.084782,0.7699517 0.011172,0.7849623 -0.00883,0.9181641 -0.1486427,0.990457 -0.1233309,0.063775 -1.4912519,0.066726 -1.6054001,0.00342 C 3.0053261,6.1213611 2.9952238,6.0620469 2.9940534,5.2925412 2.9929248,4.5406808 3.0104694,4.424771 3.1334165,4.3775873 3.1609551,4.3670233 3.5348871,4.3584828 3.9643164,4.3584828 Z m 2.777248,0 c 0.7327438,0 0.7965538,0.00437 0.8641936,0.059128 l 0.072956,0.05913 v 0.8059747 c 0,0.797361 -7.258e-4,0.8068743 -0.07041,0.8765669 -0.069014,0.069073 -0.085067,0.07046 -0.8196198,0.07641 -0.4120811,0.00334 -0.7700878,-0.0019 -0.7956044,-0.011647 -0.025523,-0.00978 -0.077799,-0.04614 -0.1160767,-0.080961 -0.068715,-0.062516 -0.0695,-0.073346 -0.0695,-0.8567347 0,-0.7893246 2.912e-4,-0.7938314 0.071503,-0.8607374 0.069645,-0.06543 0.092973,-0.067137 0.8625572,-0.067137 z m 6.5171163,0.958983 c -0.706745,-4.837e-4 -1.323271,0.2732046 -1.856289,0.8238043 -0.4346,0.4489313 -0.700715,0.9657472 -0.852733,1.6567052 -0.05123,0.2328543 -0.0564,0.4310568 -0.0564,2.1432027 0,2.0988659 -7.26e-4,2.0895029 0.217412,2.6999229 0.363499,1.017027 1.224092,1.770331 2.196145,1.922513 0.233365,0.03654 0.681771,0.01444 0.939335,-0.04604 0.270264,-0.06363 0.677679,-0.259576 0.932237,-0.448288 0.640545,-0.474855 1.089931,-1.256798 1.220606,-2.123734 0.03614,-0.23974 0.04568,-0.65937 0.04531,-2.0043838 C 16.0439,8.9808291 16.030605,8.1458294 16.013195,8.0235992 15.887866,7.1421631 15.477802,6.384909 14.85571,5.8860421 14.377571,5.5026157 13.858681,5.3178937 13.258682,5.3174939 Z m -0.02546,1.7347549 c 0.02666,-0.00129 0.05362,-0.00101 0.0806,0.00105 0.07195,0.00557 0.144419,0.023537 0.213594,0.054946 0.283949,0.1289549 0.329334,0.3005237 0.316204,1.1956795 -0.0114,0.7719612 -0.03146,0.8520935 -0.249615,0.9964614 -0.0875,0.057908 -0.170677,0.083072 -0.296558,0.089695 -0.199627,0.010507 -0.292609,-0.02034 -0.41754,-0.1388178 -0.171057,-0.1622163 -0.175199,-0.1859663 -0.175199,-1.0301194 0,-0.7747871 5.25e-4,-0.7805979 0.07695,-0.9109508 0.09164,-0.1564023 0.265001,-0.2485901 0.451562,-0.2579863 z m -9.2814462,0.089878 c 0.769029,0 0.7698578,5.97e-5 0.8565525,0.074594 l 0.086782,0.074594 0.010374,0.6571523 c 0.012198,0.7627943 -0.00247,0.9050238 -0.1042492,1.0068309 -0.073384,0.073384 -0.074054,0.073503 -0.8463643,0.073503 -0.772461,0 -0.7729159,7.6e-6 -0.8596459,-0.074594 l -0.0868,-0.074778 V 8.0854626 7.2913129 l 0.086782,-0.074594 c 0.086708,-0.074585 0.087402,-0.074594 0.8565531,-0.074594 z m 2.0074777,0 h 0.7874078 0.7874186 l 0.080053,0.095152 0.080053,0.095152 v 0.7577618 0.7577622 l -0.090423,0.090421 -0.090423,0.090425 H 6.7362908 5.959244 L 5.883377,8.9529332 5.80751,8.8768838 V 8.0854626 7.2938599 l 0.075867,-0.075867 z" />
  <text
     xml:space="preserve"
     transform="scale(0.26457812)"
     id="text3806"
     style="fill:#999999;stroke-width:2;font-size:6.66666667px;white-space:pre;shape-inside:url(#rect3808)" />
</svg>
