<?xml version="1.0" encoding="UTF-8" standalone="no"?>
<svg
   width="64"
   height="64"
   version="1.1"
   viewBox="0 0 16.933 16.933"
   id="svg7"
   sodipodi:docname="preferences-desktop-emoticons.svg"
   inkscape:version="1.4 (e7c3feb100, 2024-10-09)"
   xmlns:inkscape="http://www.inkscape.org/namespaces/inkscape"
   xmlns:sodipodi="http://sodipodi.sourceforge.net/DTD/sodipodi-0.dtd"
   xmlns="http://www.w3.org/2000/svg"
   xmlns:svg="http://www.w3.org/2000/svg"
   xmlns:rdf="http://www.w3.org/1999/02/22-rdf-syntax-ns#"
   xmlns:cc="http://creativecommons.org/ns#"
   xmlns:dc="http://purl.org/dc/elements/1.1/">
  <sodipodi:namedview
     id="namedview7"
     pagecolor="#9c4444"
     bordercolor="#000000"
     borderopacity="0.25"
     inkscape:showpageshadow="2"
     inkscape:pageopacity="0.0"
     inkscape:pagecheckerboard="0"
     inkscape:deskcolor="#d1d1d1"
     inkscape:zoom="6.15625"
     inkscape:cx="15.756345"
     inkscape:cy="29.563452"
     inkscape:window-width="1226"
     inkscape:window-height="669"
     inkscape:window-x="40"
     inkscape:window-y="167"
     inkscape:window-maximized="0"
     inkscape:current-layer="svg7"
     showgrid="false" />
  <defs
     id="defs2">
    <rect
       x="67.489848"
       y="35.60533"
       width="15.337563"
       height="22.51269"
       id="rect3808" />
    <filter
       style="color-interpolation-filters:sRGB;"
       inkscape:label="Blur"
       id="filter1283"
       x="-0.082344266"
       y="-0.082344266"
       width="1.1646885"
       height="1.1646885">
      <feGaussianBlur
         stdDeviation="0.5 0.5"
         result="blur"
         id="feGaussianBlur1281" />
    </filter>
    <filter
       style="color-interpolation-filters:sRGB;"
       inkscape:label="Blur"
       id="filter1694"
       x="-0.94955398"
       y="-0.2118907"
       width="2.899108"
       height="1.4237814">
      <feGaussianBlur
         stdDeviation="0.2 0.2"
         result="blur"
         id="feGaussianBlur1692" />
    </filter>
    <filter
       style="color-interpolation-filters:sRGB;"
       inkscape:label="Blur"
       id="filter3148"
       x="-0.94955398"
       y="-0.2118907"
       width="2.899108"
       height="1.4237814">
      <feGaussianBlur
         stdDeviation="0.2 0.2"
         result="blur"
         id="feGaussianBlur3146" />
    </filter>
    <clipPath
       clipPathUnits="userSpaceOnUse"
       id="clipPath44">
      <path
         id="path46"
         style="display:block;opacity:0.85;fill:#f2f2f2;stroke-width:4.39162"
         d="m 17.570312,8.4453125 a 6.5431988,7.4283052 9.9958727e-8 0 0 -6.535156,7.4394535 6.5431988,7.4283052 9.9958727e-8 0 0 6.552735,7.417968 6.5431988,7.4283052 9.9958727e-8 0 0 6.535156,-7.4375 6.5431988,7.4283052 9.9958727e-8 0 0 -6.552735,-7.4199215 z M 45.646484,41.177734 a 6.5431986,7.0703472 2.4665357e-6 0 0 -6.533203,7.080078 6.5431986,7.0703472 2.4665357e-6 0 0 6.550781,7.060547 6.5431986,7.0703472 2.4665357e-6 0 0 6.535157,-7.080078 6.5431986,7.0703472 2.4665357e-6 0 0 -6.552735,-7.060547 z" />
    </clipPath>
    <inkscape:path-effect
       effect="powerclip"
       id="path-effect48"
       is_visible="true"
       lpeversion="1"
       inverse="true"
       flatten="false"
       hide_clip="false"
       message="" />
  </defs>
  <metadata
     id="metadata2">
    <rdf:RDF>
      <cc:Work
         rdf:about="">
        <dc:format>image/svg+xml</dc:format>
        <dc:type
           rdf:resource="http://purl.org/dc/dcmitype/StillImage" />
      </cc:Work>
    </rdf:RDF>
  </metadata>
  <path
     style="fill:#f9f9f9;stroke-width:0.0205289"
     d="M 7.8995479,15.332386 C 6.24229,15.177644 4.8042281,14.519541 3.6428453,13.384374 2.4999027,12.267236 1.8079448,10.841635 1.6142675,9.2050165 c -0.034789,-0.2939742 -0.034789,-1.18411 0,-1.4780841 C 1.8093033,6.0788297 2.5050312,4.6529171 3.6627406,3.5285306 4.752124,2.4705032 6.0670771,1.8392451 7.6224071,1.6276482 c 0.1973775,-0.026853 0.411217,-0.036632 0.8211577,-0.037546 0.5637372,-0.00126 0.7545392,0.013376 1.2214722,0.093761 2.168215,0.3732409 4.046939,1.7984957 5.008113,3.7992951 1.356934,2.8246337 0.627486,6.2334707 -1.764542,8.2459867 -1.055925,0.888394 -2.281795,1.415408 -3.6849431,1.584197 -0.2474172,0.02975 -1.0809288,0.04174 -1.324117,0.01906 z M 8.9567885,11.874249 C 9.31598,11.799032 9.6245984,11.668652 9.9408817,11.458503 10.274846,11.236606 10.655117,10.842916 10.8829,10.483244 c 0.08622,-0.136144 0.198634,-0.353819 0.198634,-0.384633 0,-0.01288 -0.07073,-0.02111 -0.181178,-0.02111 H 10.719177 L 10.6112,10.21059 c -0.15856,0.195429 -0.468018,0.480591 -0.6628021,0.610764 -0.4830319,0.322808 -0.9467012,0.467353 -1.499165,0.467353 -0.5263509,0 -0.9921243,-0.14835 -1.4713324,-0.468623 C 6.7854787,10.691483 6.4330145,10.365037 6.2989242,10.191231 L 6.2111803,10.077497 H 6.0186532 c -0.1058927,0 -0.1925288,0.0064 -0.1925288,0.01408 0,0.02563 0.2214122,0.404489 0.3116569,0.533276 0.4846349,0.69162 1.174872,1.141975 1.9465277,1.270042 0.2195889,0.03645 0.6482703,0.02629 0.8724798,-0.02065 z M 6.2358672,6.9661517 C 6.7696468,6.8447461 7.1000908,6.286092 6.9586392,5.7442224 6.827756,5.2428419 6.3105104,4.92338 5.8014735,5.029533 5.6392971,5.0633528 5.4518016,5.1596741 5.3293584,5.2720705 4.9127745,5.6544723 4.8998885,6.3019207 5.3009004,6.7018984 5.552636,6.9529849 5.8831034,7.0463861 6.2358672,6.9661517 Z m 4.9269468,0 C 11.696595,6.8447461 12.027039,6.286092 11.885588,5.7442224 11.754704,5.2428419 11.237458,4.92338 10.728421,5.029533 c -0.162177,0.03382 -0.349672,0.1301411 -0.472116,0.2425375 -0.4165829,0.3824018 -0.4294691,1.0298502 -0.02846,1.4298279 0.251736,0.2510865 0.582203,0.3444877 0.934967,0.2642533 z"
     id="path1" />
  <g
     fill="#474747"
     id="g9"
     transform="matrix(0.46959567,0,0,0.46959567,4.7471229,3.7470598)"
     style="fill:#999999;fill-opacity:1;stroke:none;stroke-width:0.58349;stroke-dasharray:none;stroke-opacity:0.3" />
  <text
     xml:space="preserve"
     transform="scale(0.26457812)"
     id="text3806"
     style="font-size:6.66667px;white-space:pre;shape-inside:url(#rect3808);display:inline;fill:#999999;stroke-width:2" />
</svg>
