<?xml version="1.0" encoding="UTF-8" standalone="no"?>
<svg
   width="64"
   height="64"
   version="1.1"
   viewBox="0 0 16.933 16.933"
   id="svg7"
   sodipodi:docname="preferences-vpn.svg"
   inkscape:version="1.4 (e7c3feb100, 2024-10-09)"
   xmlns:inkscape="http://www.inkscape.org/namespaces/inkscape"
   xmlns:sodipodi="http://sodipodi.sourceforge.net/DTD/sodipodi-0.dtd"
   xmlns="http://www.w3.org/2000/svg"
   xmlns:svg="http://www.w3.org/2000/svg"
   xmlns:rdf="http://www.w3.org/1999/02/22-rdf-syntax-ns#"
   xmlns:cc="http://creativecommons.org/ns#"
   xmlns:dc="http://purl.org/dc/elements/1.1/">
  <sodipodi:namedview
     id="namedview7"
     pagecolor="#9c4444"
     bordercolor="#000000"
     borderopacity="0.25"
     inkscape:showpageshadow="2"
     inkscape:pageopacity="0.0"
     inkscape:pagecheckerboard="0"
     inkscape:deskcolor="#d1d1d1"
     inkscape:zoom="6.15625"
     inkscape:cx="35.654822"
     inkscape:cy="29.725888"
     inkscape:window-width="1183"
     inkscape:window-height="941"
     inkscape:window-x="35"
     inkscape:window-y="32"
     inkscape:window-maximized="0"
     inkscape:current-layer="svg7"
     showgrid="false" />
  <defs
     id="defs2">
    <rect
       x="67.489848"
       y="35.60533"
       width="15.337563"
       height="22.51269"
       id="rect3808" />
    <filter
       style="color-interpolation-filters:sRGB;"
       inkscape:label="Blur"
       id="filter1283"
       x="-0.082344266"
       y="-0.082344266"
       width="1.1646885"
       height="1.1646885">
      <feGaussianBlur
         stdDeviation="0.5 0.5"
         result="blur"
         id="feGaussianBlur1281" />
    </filter>
    <filter
       style="color-interpolation-filters:sRGB;"
       inkscape:label="Blur"
       id="filter1694"
       x="-0.94955398"
       y="-0.2118907"
       width="2.899108"
       height="1.4237814">
      <feGaussianBlur
         stdDeviation="0.2 0.2"
         result="blur"
         id="feGaussianBlur1692" />
    </filter>
    <filter
       style="color-interpolation-filters:sRGB;"
       inkscape:label="Blur"
       id="filter3148"
       x="-0.94955398"
       y="-0.2118907"
       width="2.899108"
       height="1.4237814">
      <feGaussianBlur
         stdDeviation="0.2 0.2"
         result="blur"
         id="feGaussianBlur3146" />
    </filter>
    <clipPath
       id="clip0_2648_607">
      <rect
         width="16"
         height="16"
         fill="#ffffff"
         id="rect1"
         x="0"
         y="0" />
    </clipPath>
  </defs>
  <metadata
     id="metadata2">
    <rdf:RDF>
      <cc:Work
         rdf:about="">
        <dc:format>image/svg+xml</dc:format>
        <dc:type
           rdf:resource="http://purl.org/dc/dcmitype/StillImage" />
      </cc:Work>
    </rdf:RDF>
  </metadata>
  <g
     clip-path="url(#clip0_2648_607)"
     id="g3"
     transform="matrix(0.94101625,0,0,0.94101625,0.98767198,1.4705913)"
     style="fill:#f9f9f9;fill-opacity:1">
    <path
       d="M 4.5,2.996 C 3.30653,2.996 2.16193,3.47011 1.31802,4.31402 0.474106,5.15794 0,6.30253 0,7.496 0,8.68948 0.474106,9.83407 1.31802,10.678 2.16193,11.5219 3.30653,11.996 4.5,11.996 5.42944,11.9946 6.33566,11.7055 7.09415,11.1683 7.85264,10.6311 8.42619,9.87229 8.736,8.996 l 2.256,-0.004 v 1 c -3e-4,0.3978 0.1575,0.7795 0.4386,1.061 0.2812,0.2814 0.6626,0.4397 1.0604,0.44 0.3978,3e-4 0.7795,-0.1575 1.061,-0.4386 0.2814,-0.2811 0.4397,-0.6626 0.44,-1.0604 h 0.004 V 8.99 h 1 l 1,-2 v -1 L 8.736,5.996 C 8.42619,5.11971 7.85264,4.36086 7.09415,3.82368 6.33566,3.28651 5.42944,2.99737 4.5,2.996 Z m 0,3 c 0.39782,0 0.77936,0.15804 1.06066,0.43934 C 5.84196,6.71665 6,7.09818 6,7.496 6,7.89383 5.84196,8.27536 5.56066,8.55666 5.27936,8.83797 4.89782,8.996 4.5,8.996 4.10218,8.996 3.72064,8.83797 3.43934,8.55666 3.15804,8.27536 3,7.89383 3,7.496 3,7.09818 3.15804,6.71665 3.43934,6.43534 3.72064,6.15404 4.10218,5.996 4.5,5.996 Z"
       fill="#232323"
       id="path1"
       style="fill:#f9f9f9;fill-opacity:1" />
  </g>
  <text
     xml:space="preserve"
     transform="scale(0.26457812)"
     id="text3806"
     style="fill:#999999;stroke-width:2;font-size:6.66666667px;white-space:pre;shape-inside:url(#rect3808)" />
</svg>
