<?xml version="1.0" encoding="UTF-8" standalone="no"?>
<svg
   width="64"
   height="64"
   version="1.1"
   viewBox="0 0 16.933 16.933"
   id="svg7"
   sodipodi:docname="scummvm.svg"
   inkscape:version="1.4 (e7c3feb100, 2024-10-09)"
   xmlns:inkscape="http://www.inkscape.org/namespaces/inkscape"
   xmlns:sodipodi="http://sodipodi.sourceforge.net/DTD/sodipodi-0.dtd"
   xmlns="http://www.w3.org/2000/svg"
   xmlns:svg="http://www.w3.org/2000/svg"
   xmlns:rdf="http://www.w3.org/1999/02/22-rdf-syntax-ns#"
   xmlns:cc="http://creativecommons.org/ns#"
   xmlns:dc="http://purl.org/dc/elements/1.1/">
  <sodipodi:namedview
     id="namedview7"
     pagecolor="#9c4444"
     bordercolor="#000000"
     borderopacity="0.25"
     inkscape:showpageshadow="2"
     inkscape:pageopacity="0.0"
     inkscape:pagecheckerboard="0"
     inkscape:deskcolor="#d1d1d1"
     inkscape:zoom="6.15625"
     inkscape:cx="28.507614"
     inkscape:cy="27.370558"
     inkscape:window-width="1183"
     inkscape:window-height="940"
     inkscape:window-x="35"
     inkscape:window-y="32"
     inkscape:window-maximized="0"
     inkscape:current-layer="svg7"
     showgrid="false" />
  <defs
     id="defs2">
    <filter
       style="color-interpolation-filters:sRGB;"
       inkscape:label="Blur"
       id="filter1283"
       x="-0.082344266"
       y="-0.082344266"
       width="1.1646885"
       height="1.1646885">
      <feGaussianBlur
         stdDeviation="0.5 0.5"
         result="blur"
         id="feGaussianBlur1281" />
    </filter>
    <filter
       style="color-interpolation-filters:sRGB;"
       inkscape:label="Blur"
       id="filter1694"
       x="-0.94955398"
       y="-0.2118907"
       width="2.899108"
       height="1.4237814">
      <feGaussianBlur
         stdDeviation="0.2 0.2"
         result="blur"
         id="feGaussianBlur1692" />
    </filter>
    <clipPath
       clipPathUnits="userSpaceOnUse"
       id="clipPath9">
      <path
         style="display:block;opacity:0.85;fill:#ffffff;stroke-width:1.02768"
         d="m 47.458967,1023.3069 c 0.85688,1.8179 1.286598,4.0198 1.286598,6.5331 0,2.4237 -0.471043,4.5945 -1.412286,6.367 -0.94152,1.7735 -2.198842,3.2676 -3.705671,4.4122 -1.50626,1.1449 -3.245953,1.9605 -5.149374,2.5225 -1.904832,0.5606 -3.852868,0.8052 -5.777238,0.8052 -3.850431,0 -7.996222,-1.2967 -10.611304,-2.8214 -2.984685,-1.5261 -7.041712,-6.2092 -6.960672,-6.9347 0.105349,-0.9437 2.398251,-4.0793 3.788125,-6.1999 0.67691,-1.0328 0.945189,-1.5206 1.959266,-0.5557 1.267312,1.6672 3.027389,2.7385 4.649929,3.6343 1.422401,0.728 4.427349,1.775 6.001755,1.9875 1.317989,0.2094 3.286601,0.2094 3.429864,-2.016 0,-0.8517 -0.665023,-1.6274 -1.521901,-2.3915 -0.858009,-0.7623 -1.43195,-1.4142 -2.70807,-2.2454 -5.062162,-4.2564 -7.79732,-6.1773 -10.368074,-10.4259 -0.858006,-1.6832 -1.354021,-3.5518 -1.354021,-5.7516 0,-2.1546 0.309343,-4.2556 1.062619,-5.8717 2.446826,-4.82161 7.391989,-7.34282 11.820387,-7.40606 3.783597,0 6.559511,1.09784 9.049178,2.31298 3.362337,1.54068 5.501784,3.55878 7.329115,5.34908 0.71227,0.6978 0.09745,1.54 -0.273887,2.159 -0.933252,1.5561 -2.253588,3.4749 -2.665561,4.398 -0.327914,0.6711 -0.934034,0.9233 -1.436782,0.4557 0,0 -1.242737,-1.1321 -2.246817,-1.8289 -2.666217,-1.599 -5.433717,-3.9539 -8.253986,-4.2475 -0.753274,0 -1.510094,0.2379 -1.865076,0.6416 -0.356113,0.4043 -0.485072,1.2175 -0.466448,1.8457 0.03355,1.1324 0.328115,1.3432 1.320701,2.3637 0.856877,0.6962 1.532222,1.1971 3.266048,2.1905 1.296029,0.7422 2.886235,1.7855 4.372119,2.7054 1.485027,0.9204 2.977366,2.1036 4.275001,3.4048 1.29735,1.3031 2.307877,2.7902 3.166455,4.6077 z"
         id="path11" />
    </clipPath>
    <inkscape:path-effect
       effect="powerclip"
       id="path-effect13"
       is_visible="true"
       lpeversion="1"
       inverse="true"
       flatten="false"
       hide_clip="false"
       message="" />
  </defs>
  <metadata
     id="metadata2">
    <rdf:RDF>
      <cc:Work
         rdf:about="">
        <dc:format>image/svg+xml</dc:format>
        <dc:type
           rdf:resource="http://purl.org/dc/dcmitype/StillImage" />
      </cc:Work>
    </rdf:RDF>
  </metadata>
  <path
     id="path1"
     style="fill:#f9f9f9;stroke-width:0.0816569"
     d="M 8.4953941,1.3339823 C 8.1332581,1.3329318 7.784389,1.3623476 7.5410522,1.423329 6.832735,1.6008358 6.341165,1.8230149 5.8130263,2.2029042 5.2286878,2.6232184 4.6037149,3.3759307 4.3343863,3.9849309 3.7038289,5.4107334 3.8779943,7.5369864 4.7035553,8.5023443 4.8684565,8.6951679 4.8829243,8.7277597 4.8233389,8.7635116 4.5264161,8.9416549 4.3871001,9.107094 3.9013979,9.8513823 3.2258604,10.886574 3.1045476,11.112586 3.0521122,11.438024 c -0.1004264,0.623288 -0.029625,0.912285 0.3662237,1.493368 0.2861953,0.420118 1.236329,1.369689 1.6318064,1.630825 0.723858,0.477964 1.653999,0.851276 2.4791282,0.99656 0.6158132,0.108433 1.5640169,0.110656 2.1826145,0.0049 1.703429,-0.291248 2.984278,-1.205425 3.691691,-2.63527 0.461527,-0.932849 0.599275,-2.002085 0.400589,-3.1133921 C 13.640554,8.8999411 13.34887,8.2247659 12.851786,7.6108398 L 12.645602,7.3565453 12.822332,7.1012685 C 13.189745,6.5672277 13.67535,5.7157296 13.750163,5.4753532 13.889678,5.0270921 13.820622,4.4640894 13.561652,3.9378029 13.444396,3.6995123 13.346472,3.5790768 13.048153,3.3055027 11.990579,2.3356537 10.79175,1.6962082 9.528282,1.42922 9.2322977,1.3666743 8.8575295,1.3350324 8.4953941,1.3339823 Z M 8.619105,2.8283319 c 0.6458227,0.020484 1.3346386,0.2205925 2.093268,0.6008815 0.553999,0.2777112 1.045188,0.6266889 1.47864,1.051543 0.372066,0.3646881 0.372207,0.3500697 -0.07167,1.0672524 -0.177403,0.2866196 -0.352376,0.5793372 -0.388806,0.6509552 -0.06671,0.131157 -0.210368,0.2582222 -0.292587,0.2582222 -0.02441,0 -0.143913,-0.085196 -0.266076,-0.1894927 C 11.049706,6.1633945 10.766089,5.9553624 10.541534,5.8052491 9.510584,5.1160712 9.1051537,4.9270972 8.7123788,4.954982 8.3776661,4.978743 8.3036301,5.0631269 8.2823359,5.4400075 l -0.016682,0.2896402 0.2808044,0.2719679 c 0.1802891,0.1742642 0.4643866,0.3798375 0.7913574,0.5733905 0.9693273,0.5738025 1.6475753,1.047067 2.0088303,1.4010758 0.881877,0.8641869 1.273912,1.9637767 1.136964,3.1919381 -0.170297,1.527265 -1.249846,2.600394 -2.9180092,2.901316 C 8.8227,14.203343 8.1755923,14.180372 7.3888774,13.99079 6.3124246,13.731381 5.4431368,13.183809 4.7261376,12.31382 4.4046454,11.923731 4.3625076,11.823226 4.4414057,11.631446 c 0.084892,-0.206351 1.0096818,-1.581233 1.0672524,-1.586642 0.125609,-0.0118 0.1913612,0.03046 0.4801161,0.306331 0.5307451,0.507071 1.198334,0.857743 2.0373035,1.07118 0.4411958,0.112233 0.6937149,0.122873 0.8610671,0.03633 0.2739496,-0.141664 0.3303766,-0.465024 0.1286205,-0.73932 C 8.8947306,10.55477 8.7974177,10.469901 7.5606891,9.4449039 6.3123,8.4102424 5.7125032,7.7099217 5.4733124,7.0079943 5.3797254,6.7333531 5.3595064,6.5934093 5.3446919,6.1292538 5.3104083,5.0551481 5.5181938,4.4748335 6.1694316,3.8209647 6.3735885,3.6159828 6.6511509,3.3831395 6.7870045,3.3045209 7.3705876,2.9668016 7.9732824,2.807849 8.619105,2.8283319 Z" />
</svg>
