<?xml version="1.0" encoding="UTF-8" standalone="no"?>
<svg
   width="64"
   height="64"
   version="1.1"
   viewBox="0 0 16.933 16.933"
   id="svg7"
   sodipodi:docname="system-log-out.svg"
   inkscape:version="1.4 (e7c3feb100, 2024-10-09)"
   xmlns:inkscape="http://www.inkscape.org/namespaces/inkscape"
   xmlns:sodipodi="http://sodipodi.sourceforge.net/DTD/sodipodi-0.dtd"
   xmlns="http://www.w3.org/2000/svg"
   xmlns:svg="http://www.w3.org/2000/svg"
   xmlns:rdf="http://www.w3.org/1999/02/22-rdf-syntax-ns#"
   xmlns:cc="http://creativecommons.org/ns#"
   xmlns:dc="http://purl.org/dc/elements/1.1/">
  <sodipodi:namedview
     id="namedview7"
     pagecolor="#9c4444"
     bordercolor="#000000"
     borderopacity="0.25"
     inkscape:showpageshadow="2"
     inkscape:pageopacity="0.0"
     inkscape:pagecheckerboard="0"
     inkscape:deskcolor="#d1d1d1"
     inkscape:zoom="6.15625"
     inkscape:cx="15.593909"
     inkscape:cy="26.639594"
     inkscape:window-width="1226"
     inkscape:window-height="669"
     inkscape:window-x="427"
     inkscape:window-y="205"
     inkscape:window-maximized="0"
     inkscape:current-layer="svg7"
     showgrid="false" />
  <defs
     id="defs2" />
  <metadata
     id="metadata2">
    <rdf:RDF>
      <cc:Work
         rdf:about="">
        <dc:format>image/svg+xml</dc:format>
        <dc:type
           rdf:resource="http://purl.org/dc/dcmitype/StillImage" />
      </cc:Work>
    </rdf:RDF>
  </metadata>
  <path
     style="fill:#d7dde9;fill-opacity:1;stroke-width:0.830361"
     d="M 8.466386,2.9185614 C 6.62631,2.9185614 5.1449482,4.3999229 5.1449482,6.24 V 7.9007186 H 4.3145888 c -0.4600193,0 -0.8303595,0.3703405 -0.8303595,0.8303593 v 4.9821581 c 0,0.460023 0.3703402,0.830357 0.8303595,0.830357 h 8.3035962 c 0.46002,0 0.830359,-0.370334 0.830359,-0.830357 V 8.7310779 c 0,-0.4600188 -0.370339,-0.8303592 -0.830359,-0.8303592 H 11.787827 V 6.24 c 0,-1.8400771 -1.481362,-3.3214386 -3.321441,-3.3214386 z m 0,1.6607192 c 0.9200389,0 1.66072,0.7406805 1.66072,1.6607194 V 7.9007186 H 6.8056674 V 6.24 c 0,-0.9200389 0.7406808,-1.6607194 1.6607186,-1.6607194 z"
     id="path4-6" />
</svg>
