<?xml version="1.0" encoding="UTF-8" standalone="no"?>
<svg
   width="64"
   height="64"
   version="1.1"
   viewBox="0 0 16.933 16.933"
   id="svg7"
   sodipodi:docname="system-log-out.svg"
   inkscape:version="1.4 (e7c3feb100, 2024-10-09)"
   xmlns:inkscape="http://www.inkscape.org/namespaces/inkscape"
   xmlns:sodipodi="http://sodipodi.sourceforge.net/DTD/sodipodi-0.dtd"
   xmlns="http://www.w3.org/2000/svg"
   xmlns:svg="http://www.w3.org/2000/svg"
   xmlns:rdf="http://www.w3.org/1999/02/22-rdf-syntax-ns#"
   xmlns:cc="http://creativecommons.org/ns#"
   xmlns:dc="http://purl.org/dc/elements/1.1/">
  <sodipodi:namedview
     id="namedview7"
     pagecolor="#9c4444"
     bordercolor="#000000"
     borderopacity="0.25"
     inkscape:showpageshadow="2"
     inkscape:pageopacity="0.0"
     inkscape:pagecheckerboard="0"
     inkscape:deskcolor="#d1d1d1"
     inkscape:zoom="6.15625"
     inkscape:cx="15.593909"
     inkscape:cy="26.639594"
     inkscape:window-width="1226"
     inkscape:window-height="669"
     inkscape:window-x="427"
     inkscape:window-y="205"
     inkscape:window-maximized="0"
     inkscape:current-layer="svg7"
     showgrid="false" />
  <defs
     id="defs2" />
  <metadata
     id="metadata2">
    <rdf:RDF>
      <cc:Work
         rdf:about="">
        <dc:format>image/svg+xml</dc:format>
        <dc:type
           rdf:resource="http://purl.org/dc/dcmitype/StillImage" />
      </cc:Work>
    </rdf:RDF>
  </metadata>
  <path
     style="fill:#d7dde9;fill-opacity:1;stroke-width:0.830361"
     d="M 8.586572,2.3710952 A 0.8304425,0.82754391 0 0 0 7.7683753,3.2095636 v 4.9651281 a 0.8304425,0.82754391 0 1 0 1.6607191,0 V 3.2095636 A 0.8304425,0.82754391 0 0 0 8.586572,2.3710952 Z M 5.7995151,4.0326253 A 0.83049298,0.83120821 0 0 0 5.3567648,4.1793977 c -2.1152801,1.422633 -3.0590064,4.0688766 -2.3224117,6.5106993 0.7365958,2.441824 2.9851102,4.123036 5.533568,4.136388 2.5484559,0.01347 4.8152519,-1.644036 5.5773549,-4.078003 0.762103,-2.4339694 -0.15402,-5.0894917 -2.254297,-6.5342164 a 0.83049298,0.83120821 0 1 0 -0.94064,1.3687959 c 1.505125,1.0353368 2.156584,2.9240801 1.61044,4.6683405 -0.546142,1.744259 -2.157634,2.922314 -3.9839383,2.912741 C 6.7505345,13.154577 5.1523919,11.959934 4.6245238,10.210046 4.0966562,8.460157 4.766933,6.578239 6.2828102,5.5587351 A 0.83049298,0.83120821 0 0 0 5.7995151,4.0326253 Z"
     id="path4" />
</svg>
