<?xml version="1.0" encoding="UTF-8" standalone="no"?>
<svg
   width="64"
   height="64"
   version="1.1"
   viewBox="0 0 16.933 16.933"
   id="svg7"
   sodipodi:docname="ubuntu-cleaner.svg"
   inkscape:version="1.4 (e7c3feb100, 2024-10-09)"
   xmlns:inkscape="http://www.inkscape.org/namespaces/inkscape"
   xmlns:sodipodi="http://sodipodi.sourceforge.net/DTD/sodipodi-0.dtd"
   xmlns="http://www.w3.org/2000/svg"
   xmlns:svg="http://www.w3.org/2000/svg"
   xmlns:rdf="http://www.w3.org/1999/02/22-rdf-syntax-ns#"
   xmlns:cc="http://creativecommons.org/ns#"
   xmlns:dc="http://purl.org/dc/elements/1.1/">
  <sodipodi:namedview
     id="namedview7"
     pagecolor="#9c4444"
     bordercolor="#000000"
     borderopacity="0.25"
     inkscape:showpageshadow="2"
     inkscape:pageopacity="0.0"
     inkscape:pagecheckerboard="0"
     inkscape:deskcolor="#d1d1d1"
     inkscape:zoom="6.15625"
     inkscape:cx="15.593909"
     inkscape:cy="29.563452"
     inkscape:window-width="1226"
     inkscape:window-height="669"
     inkscape:window-x="35"
     inkscape:window-y="32"
     inkscape:window-maximized="0"
     inkscape:current-layer="svg7"
     showgrid="false" />
  <defs
     id="defs2">
    <rect
       x="67.489848"
       y="35.60533"
       width="15.337563"
       height="22.51269"
       id="rect3808" />
    <filter
       style="color-interpolation-filters:sRGB;"
       inkscape:label="Blur"
       id="filter1283"
       x="-0.082344266"
       y="-0.082344266"
       width="1.1646885"
       height="1.1646885">
      <feGaussianBlur
         stdDeviation="0.5 0.5"
         result="blur"
         id="feGaussianBlur1281" />
    </filter>
    <filter
       style="color-interpolation-filters:sRGB;"
       inkscape:label="Blur"
       id="filter1694"
       x="-0.94955398"
       y="-0.2118907"
       width="2.899108"
       height="1.4237814">
      <feGaussianBlur
         stdDeviation="0.2 0.2"
         result="blur"
         id="feGaussianBlur1692" />
    </filter>
    <filter
       style="color-interpolation-filters:sRGB;"
       inkscape:label="Blur"
       id="filter3148"
       x="-0.94955398"
       y="-0.2118907"
       width="2.899108"
       height="1.4237814">
      <feGaussianBlur
         stdDeviation="0.2 0.2"
         result="blur"
         id="feGaussianBlur3146" />
    </filter>
    <clipPath
       clipPathUnits="userSpaceOnUse"
       id="clipPath44">
      <path
         id="path46"
         style="display:block;opacity:0.85;fill:#f2f2f2;stroke-width:4.39162"
         d="m 17.570312,8.4453125 a 6.5431988,7.4283052 9.9958727e-8 0 0 -6.535156,7.4394535 6.5431988,7.4283052 9.9958727e-8 0 0 6.552735,7.417968 6.5431988,7.4283052 9.9958727e-8 0 0 6.535156,-7.4375 6.5431988,7.4283052 9.9958727e-8 0 0 -6.552735,-7.4199215 z M 45.646484,41.177734 a 6.5431986,7.0703472 2.4665357e-6 0 0 -6.533203,7.080078 6.5431986,7.0703472 2.4665357e-6 0 0 6.550781,7.060547 6.5431986,7.0703472 2.4665357e-6 0 0 6.535157,-7.080078 6.5431986,7.0703472 2.4665357e-6 0 0 -6.552735,-7.060547 z" />
    </clipPath>
    <inkscape:path-effect
       effect="powerclip"
       id="path-effect48"
       is_visible="true"
       lpeversion="1"
       inverse="true"
       flatten="false"
       hide_clip="false"
       message="" />
  </defs>
  <metadata
     id="metadata2">
    <rdf:RDF>
      <cc:Work
         rdf:about="">
        <dc:format>image/svg+xml</dc:format>
        <dc:type
           rdf:resource="http://purl.org/dc/dcmitype/StillImage" />
      </cc:Work>
    </rdf:RDF>
  </metadata>
  <g
     id="g10"
     transform="matrix(0.36646717,0,0,0.36646717,-0.27924652,-0.10655717)"
     style="fill:#f9f9f9">
    <path
       style="fill:#f9f9f9;fill-opacity:1"
       d="m 27.25,4.0097656 c 0,0 -6.398421,0.034677 -6.705078,0.044922 -0.733471,0.1087607 -1.556641,0.71875 -1.556641,0.71875 0.0185,0.00532 0.03771,-0.025593 0.05859,-0.021484 0.565118,-0.337587 1.450518,-0.4038517 2.003906,0.1542969 l 1.214844,2.1035156 2.083984,3.6093759 2.628907,4.552733 c -1.187433,0.677943 -3.464844,2 -3.464844,2 l 10.927734,2.927734 2.931641,-10.9218741 c 0,0 -3.469278,1.9898461 -3.466797,1.9941401 L 30.289062,4.9082031 C 29.883264,4.3361609 29.215336,4.1208191 28.640625,4.0253906 28.512291,4.0071086 27.906232,4.0003936 27.25,4.0097656 Z M 15.244141,18.751953 4.3183594,21.675781 c 0,0 3.4604106,2.008202 3.4628906,2.003907 l -3.6171875,6.263671 c -0.2925043,0.637452 -0.1441649,1.323713 0.060547,1.869141 0.048335,0.120282 0.345408,0.649262 0.6816406,1.212891 0,0 3.2284242,5.522753 3.390625,5.783203 0.4609251,0.580824 1.4003906,0.990234 1.4003906,0.990234 -0.00464,-0.01868 -0.039992,-0.01892 -0.046875,-0.03906 C 9.0754729,39.439151 8.5745733,38.703635 8.78125,37.945312 l 1.2148438,-2.103515 2.0839842,-3.609375 2.628906,-4.552734 c 1.180833,0.689375 3.462891,1.999999 3.462891,2 z M 31,28 l -8,8 7.994141,8 c 0,0 0.01082,-4 0.0059,-4 h 7.232422 c 0.698302,-0.06541 1.217892,-0.536328 1.58789,-0.986328 0.08,-0.102 0.390938,-0.624266 0.710938,-1.197266 0,0 3.168044,-5.55743 3.3125,-5.828125 C 44.116296,31.298696 44,30.28125 44,30.28125 43.98614,30.29461 44.0042,30.32577 43.9902,30.3418 44,31 43.613547,31.799829 42.853482,32.000003 H 40.423828 36.255859 31 c 0.0066,-1.367319 0,-4 0,-4 z"
       id="path6" />
    <path
       d="m 13.00433,14.53975 6.771334,3.924028 c 0.01892,-0.01323 0.61996,-1.024197 1.330171,-2.254075 0.710846,-1.22678 1.736479,-2.986332 2.269088,-3.905825 l 0.0035,-0.002 0.971155,-1.681911 -3.2985,-5.7131695 C 20.492605,4.3435561 19.600291,4.3160241 19.029351,4.7611267 18.669444,5.0497484 18.549621,5.18821 18.229369,5.7195176 17.776628,6.4693463 13.00866,14.53725 13,14.54225"
       style="fill:#f9f9f9"
       id="path7" />
    <path
       style="fill:#f9f9f9"
       d="m 38.361,20.115 -6.611,4.002 c 0.002,0.023 0.577,1.049 1.287,2.279 0.707,1.229 1.718,2.997 2.248,3.918 v 0.004 L 36.256,32 h 6.597 C 43.62,31.798 44.09,31.039 43.99,30.322 43.92,29.866 43.86,29.693 43.56,29.15 43.137,28.383 38.361,20.12 38.361,20.11"
       id="path8" />
    <path
       d="M 20.997835,39.9975 21,32 c 0,0 -6.111712,-0.0017 -8.919481,0 L 8.7820189,37.945186 C 8.573456,38.710428 8.9957693,39.49696 9.6667095,39.768857 10.096617,39.936236 10.27644,39.970774 10.896692,39.982466 11.772469,39.999638 20.993505,39.995 21.002165,40"
       style="fill:#f9f9f9"
       id="path9" />
  </g>
  <g
     fill="#474747"
     id="g9"
     transform="matrix(0.46959567,0,0,0.46959567,4.7471229,3.7470598)"
     style="fill:#999999;fill-opacity:1;stroke:none;stroke-width:0.58349;stroke-dasharray:none;stroke-opacity:0.3" />
  <text
     xml:space="preserve"
     transform="scale(0.26457812)"
     id="text3806"
     style="font-size:6.66667px;white-space:pre;shape-inside:url(#rect3808);display:inline;fill:#999999;stroke-width:2" />
</svg>
