<?xml version="1.0" encoding="UTF-8" standalone="no"?>
<svg
   width="64"
   height="64"
   version="1.1"
   viewBox="0 0 16.933 16.933"
   id="svg7"
   sodipodi:docname="vivaldi-stable.svg"
   inkscape:version="1.4 (e7c3feb100, 2024-10-09)"
   xmlns:inkscape="http://www.inkscape.org/namespaces/inkscape"
   xmlns:sodipodi="http://sodipodi.sourceforge.net/DTD/sodipodi-0.dtd"
   xmlns="http://www.w3.org/2000/svg"
   xmlns:svg="http://www.w3.org/2000/svg"
   xmlns:rdf="http://www.w3.org/1999/02/22-rdf-syntax-ns#"
   xmlns:cc="http://creativecommons.org/ns#"
   xmlns:dc="http://purl.org/dc/elements/1.1/">
  <sodipodi:namedview
     id="namedview7"
     pagecolor="#9c4444"
     bordercolor="#000000"
     borderopacity="0.25"
     inkscape:showpageshadow="2"
     inkscape:pageopacity="0.0"
     inkscape:pagecheckerboard="0"
     inkscape:deskcolor="#d1d1d1"
     inkscape:zoom="6.15625"
     inkscape:cx="15.837563"
     inkscape:cy="29.725888"
     inkscape:window-width="1183"
     inkscape:window-height="941"
     inkscape:window-x="35"
     inkscape:window-y="32"
     inkscape:window-maximized="0"
     inkscape:current-layer="svg7"
     showgrid="false" />
  <defs
     id="defs2">
    <rect
       x="67.489848"
       y="35.60533"
       width="15.337563"
       height="22.51269"
       id="rect3808" />
    <filter
       style="color-interpolation-filters:sRGB;"
       inkscape:label="Blur"
       id="filter1283"
       x="-0.082344266"
       y="-0.082344266"
       width="1.1646885"
       height="1.1646885">
      <feGaussianBlur
         stdDeviation="0.5 0.5"
         result="blur"
         id="feGaussianBlur1281" />
    </filter>
    <filter
       style="color-interpolation-filters:sRGB;"
       inkscape:label="Blur"
       id="filter1694"
       x="-0.94955398"
       y="-0.2118907"
       width="2.899108"
       height="1.4237814">
      <feGaussianBlur
         stdDeviation="0.2 0.2"
         result="blur"
         id="feGaussianBlur1692" />
    </filter>
    <filter
       style="color-interpolation-filters:sRGB;"
       inkscape:label="Blur"
       id="filter3148"
       x="-0.94955398"
       y="-0.2118907"
       width="2.899108"
       height="1.4237814">
      <feGaussianBlur
         stdDeviation="0.2 0.2"
         result="blur"
         id="feGaussianBlur3146" />
    </filter>
    <clipPath
       clipPathUnits="userSpaceOnUse"
       id="clipPath44">
      <path
         id="path46"
         style="display:block;opacity:0.85;fill:#f2f2f2;stroke-width:4.39162"
         d="m 17.570312,8.4453125 a 6.5431988,7.4283052 9.9958727e-8 0 0 -6.535156,7.4394535 6.5431988,7.4283052 9.9958727e-8 0 0 6.552735,7.417968 6.5431988,7.4283052 9.9958727e-8 0 0 6.535156,-7.4375 6.5431988,7.4283052 9.9958727e-8 0 0 -6.552735,-7.4199215 z M 45.646484,41.177734 a 6.5431986,7.0703472 2.4665357e-6 0 0 -6.533203,7.080078 6.5431986,7.0703472 2.4665357e-6 0 0 6.550781,7.060547 6.5431986,7.0703472 2.4665357e-6 0 0 6.535157,-7.080078 6.5431986,7.0703472 2.4665357e-6 0 0 -6.552735,-7.060547 z" />
    </clipPath>
    <inkscape:path-effect
       effect="powerclip"
       id="path-effect48"
       is_visible="true"
       lpeversion="1"
       inverse="true"
       flatten="false"
       hide_clip="false"
       message="" />
  </defs>
  <metadata
     id="metadata2">
    <rdf:RDF>
      <cc:Work
         rdf:about="">
        <dc:format>image/svg+xml</dc:format>
        <dc:type
           rdf:resource="http://purl.org/dc/dcmitype/StillImage" />
      </cc:Work>
    </rdf:RDF>
  </metadata>
  <path
     d="M 1.7618237,3.9789687 7.4170466,14.941377 c 0,0 0.3065677,0.587594 1.0771054,0.587594 0.7684767,0 1.0750449,-0.587594 1.0750449,-0.587594 0,0 3.9302451,-6.6048531 5.5346561,-10.1281453 0.161481,-0.3543532 0.335181,-0.7131876 0.40877,-1.0989568 A 1.7065477,1.8726263 0 0 0 15.526683,2.9069091 1.577826,1.7313774 0 0 0 15.10362,2.0367284 1.6821352,1.8458385 0 0 0 14.155286,1.5836976 1.9682759,2.1598256 0 0 0 13.061838,1.8259029 1.4306703,1.5699008 0 0 0 12.495699,2.4269634 1.7372707,1.9063393 0 0 0 12.317897,3.2612617 2.0724024,2.2740855 0 0 0 12.434386,4.0417285 c 0.05312,0.1592751 0.122607,0.3139701 0.177802,0.4709811 0.04294,0.134672 0.106286,0.2623792 0.118522,0.4036837 A 1.3080434,1.4353401 0 0 1 12.67344,5.5914386 C 12.305862,6.6186313 11.670225,7.6031085 10.830186,8.2064824 10.482728,8.4554128 10.037178,8.5182098 9.6243243,8.5384021 9.1501578,8.5608122 8.6024044,8.5201784 8.2202083,8.2894527 7.8359696,8.0606965 7.6561143,7.6614964 7.414946,7.3116261 6.3112838,5.703585 4.5065379,2.1824964 4.5065379,2.1824964 c 0,0 -0.7848351,-1.52281195 -2.1971222,-0.6010408 C 0.89917241,2.5054499 1.7596203,3.9810999 1.7596203,3.9810999 Z"
     fill="url(#linearGradient984)"
     fill-rule="evenodd"
     id="path20-7"
     style="fill:#f9f9f9;fill-opacity:1;stroke:none;stroke-width:0.463862;stroke-dasharray:none;stroke-opacity:0.3" />
  <text
     xml:space="preserve"
     transform="scale(0.26457812)"
     id="text3806"
     style="fill:#999999;stroke-width:2;font-size:6.66666667px;white-space:pre;shape-inside:url(#rect3808)" />
</svg>
