<?xml version="1.0" encoding="UTF-8" standalone="no"?>
<svg
   width="64"
   height="64"
   version="1.1"
   viewBox="0 0 16.933 16.933"
   id="svg7"
   sodipodi:docname="xreader.svg"
   inkscape:version="1.4 (e7c3feb100, 2024-10-09)"
   xmlns:inkscape="http://www.inkscape.org/namespaces/inkscape"
   xmlns:sodipodi="http://sodipodi.sourceforge.net/DTD/sodipodi-0.dtd"
   xmlns="http://www.w3.org/2000/svg"
   xmlns:svg="http://www.w3.org/2000/svg"
   xmlns:rdf="http://www.w3.org/1999/02/22-rdf-syntax-ns#"
   xmlns:cc="http://creativecommons.org/ns#"
   xmlns:dc="http://purl.org/dc/elements/1.1/">
  <sodipodi:namedview
     id="namedview7"
     pagecolor="#9c4444"
     bordercolor="#000000"
     borderopacity="0.25"
     inkscape:showpageshadow="2"
     inkscape:pageopacity="0.0"
     inkscape:pagecheckerboard="0"
     inkscape:deskcolor="#d1d1d1"
     inkscape:zoom="6.15625"
     inkscape:cx="30.944162"
     inkscape:cy="43.532995"
     inkscape:window-width="1183"
     inkscape:window-height="941"
     inkscape:window-x="35"
     inkscape:window-y="32"
     inkscape:window-maximized="0"
     inkscape:current-layer="svg7"
     showgrid="false" />
  <defs
     id="defs2">
    <rect
       x="67.489848"
       y="35.60533"
       width="15.337563"
       height="22.51269"
       id="rect3808" />
    <filter
       style="color-interpolation-filters:sRGB;"
       inkscape:label="Blur"
       id="filter1283"
       x="-0.082344266"
       y="-0.082344266"
       width="1.1646885"
       height="1.1646885">
      <feGaussianBlur
         stdDeviation="0.5 0.5"
         result="blur"
         id="feGaussianBlur1281" />
    </filter>
    <filter
       style="color-interpolation-filters:sRGB;"
       inkscape:label="Blur"
       id="filter1694"
       x="-0.94955398"
       y="-0.2118907"
       width="2.899108"
       height="1.4237814">
      <feGaussianBlur
         stdDeviation="0.2 0.2"
         result="blur"
         id="feGaussianBlur1692" />
    </filter>
    <filter
       style="color-interpolation-filters:sRGB;"
       inkscape:label="Blur"
       id="filter3148"
       x="-0.94955398"
       y="-0.2118907"
       width="2.899108"
       height="1.4237814">
      <feGaussianBlur
         stdDeviation="0.2 0.2"
         result="blur"
         id="feGaussianBlur3146" />
    </filter>
    <clipPath
       clipPathUnits="userSpaceOnUse"
       id="clipPath44">
      <path
         id="path46"
         style="display:block;opacity:0.85;fill:#f2f2f2;stroke-width:4.39162"
         d="m 17.570312,8.4453125 a 6.5431988,7.4283052 9.9958727e-8 0 0 -6.535156,7.4394535 6.5431988,7.4283052 9.9958727e-8 0 0 6.552735,7.417968 6.5431988,7.4283052 9.9958727e-8 0 0 6.535156,-7.4375 6.5431988,7.4283052 9.9958727e-8 0 0 -6.552735,-7.4199215 z M 45.646484,41.177734 a 6.5431986,7.0703472 2.4665357e-6 0 0 -6.533203,7.080078 6.5431986,7.0703472 2.4665357e-6 0 0 6.550781,7.060547 6.5431986,7.0703472 2.4665357e-6 0 0 6.535157,-7.080078 6.5431986,7.0703472 2.4665357e-6 0 0 -6.552735,-7.060547 z" />
    </clipPath>
    <inkscape:path-effect
       effect="powerclip"
       id="path-effect48"
       is_visible="true"
       lpeversion="1"
       inverse="true"
       flatten="false"
       hide_clip="false"
       message="" />
  </defs>
  <metadata
     id="metadata2">
    <rdf:RDF>
      <cc:Work
         rdf:about="">
        <dc:format>image/svg+xml</dc:format>
        <dc:type
           rdf:resource="http://purl.org/dc/dcmitype/StillImage" />
      </cc:Work>
    </rdf:RDF>
  </metadata>
  <path
     d="M 15.652737,10.221578 C 15.360297,9.9336375 14.712427,9.7813111 13.725841,9.7678133 13.057405,9.757533 12.253996,9.8192313 11.408169,9.9374934 11.029604,9.7196092 10.639468,9.4818002 10.333532,9.1951446 9.5095567,8.4258004 8.8218386,7.3582312 8.3931399,6.1839689 8.4207716,6.0740634 8.4445558,5.9776543 8.4670537,5.879317 c 0,0 0.4640487,-2.6364657 0.3412882,-3.5272848 C 8.7909759,2.2299135 8.7807045,2.1939218 8.7479181,2.0994412 L 8.7074291,1.9959615 C 8.581454,1.7048067 8.3340041,1.3962978 7.9457976,1.4130087 L 7.7182718,1.4027107 h -0.00642 c -0.4325551,0 -0.7854119,0.221098 -0.8779645,0.552102 -0.2815143,1.037361 0.00899,2.5895461 0.5353915,4.5993529 L 7.2342989,6.8819681 C 6.857659,7.8004262 6.3858974,8.7253103 5.9687676,9.5415727 l -0.05399,0.1060485 C 5.4764386,10.505664 5.0785919,11.233872 4.7186647,11.850248 l -0.3727819,0.196673 c -0.026993,0.01425 -0.6645795,0.352217 -0.8143343,0.442199 -1.2693856,0.758415 -2.1107148,1.618385 -2.2501864,2.301603 -0.044348,0.217242 -0.010925,0.496187 0.21467,0.625373 l 0.3599277,0.181241 c 0.1561819,0.07839 0.3207203,0.11761 0.4897569,0.11761 0.9036746,0 1.9532471,-1.126058 3.3993821,-3.649404 1.6691612,-0.543107 3.569705,-0.994944 5.2356502,-1.244324 1.269386,0.714714 2.830569,1.211542 3.815869,1.211542 0.174819,0 0.325861,-0.01729 0.448622,-0.04883 0.188955,-0.05012 0.348358,-0.158118 0.44541,-0.304008 0.190891,-0.287945 0.230097,-0.684506 0.17803,-1.090065 -0.01539,-0.120189 -0.111834,-0.269301 -0.215951,-0.370852 z M 2.1496927,15.031745 c 0.1645381,-0.450551 0.817548,-1.341369 1.7822806,-2.132565 0.060409,-0.04883 0.2101721,-0.188955 0.3470724,-0.318794 -1.009081,1.609388 -1.684586,2.250828 -2.129353,2.451359 z M 7.8648184,1.8719155 c 0.2905123,0 0.4556938,0.7320662 0.4691904,1.4191409 C 8.3481505,3.9774886 8.1874687,4.4595333 7.9882225,4.8162469 7.8230412,4.2885676 7.7433429,3.4562375 7.7433429,2.9118478 c 0,0 -0.012217,-1.0399323 0.1214755,-1.0399323 z M 6.1596646,11.249941 C 6.3621233,10.887445 6.5729376,10.505664 6.7882511,10.100103 7.3127161,9.1077335 7.644363,8.3319626 7.8905279,7.6937349 8.3815704,8.5864822 8.9928044,9.3455423 9.7113724,9.953562 c 0.089338,0.07584 0.1844615,0.152325 0.2840853,0.228168 -1.4609179,0.289227 -2.7238761,0.640798 -3.8357931,1.068211 z m 9.2122014,-0.08163 c -0.08869,0.05527 -0.34386,0.08805 -0.507756,0.08805 -0.528964,0 -1.1839,-0.241663 -2.10172,-0.635656 0.352861,-0.02636 0.67615,-0.03921 0.966021,-0.03921 0.530894,0 0.68772,0 1.207042,0.129831 0.519325,0.13304 0.525751,0.401704 0.436413,0.456979 z"
     fill="url(#c)"
     id="path9"
     style="fill:#f9f9f9;fill-opacity:1;stroke-width:0.642726" />
  <g
     fill="#474747"
     id="g9"
     transform="matrix(0.46959567,0,0,0.46959567,4.7471229,3.7470598)"
     style="fill:#999999;fill-opacity:1;stroke:none;stroke-width:0.58349;stroke-dasharray:none;stroke-opacity:0.3" />
  <text
     xml:space="preserve"
     transform="scale(0.26457812)"
     id="text3806"
     style="font-size:6.66667px;white-space:pre;shape-inside:url(#rect3808);display:inline;fill:#999999;stroke-width:2" />
</svg>
