<?xml version="1.0" encoding="UTF-8" standalone="no"?>
<svg
   width="64"
   height="64"
   version="1.1"
   viewBox="0 0 16.933 16.933"
   id="svg7"
   sodipodi:docname="zorin-os-upgrader.svg"
   inkscape:version="1.4 (e7c3feb100, 2024-10-09)"
   xmlns:inkscape="http://www.inkscape.org/namespaces/inkscape"
   xmlns:sodipodi="http://sodipodi.sourceforge.net/DTD/sodipodi-0.dtd"
   xmlns="http://www.w3.org/2000/svg"
   xmlns:svg="http://www.w3.org/2000/svg"
   xmlns:rdf="http://www.w3.org/1999/02/22-rdf-syntax-ns#"
   xmlns:cc="http://creativecommons.org/ns#"
   xmlns:dc="http://purl.org/dc/elements/1.1/">
  <sodipodi:namedview
     id="namedview7"
     pagecolor="#9c4444"
     bordercolor="#000000"
     borderopacity="0.25"
     inkscape:showpageshadow="2"
     inkscape:pageopacity="0.0"
     inkscape:pagecheckerboard="0"
     inkscape:deskcolor="#d1d1d1"
     inkscape:zoom="4.3531261"
     inkscape:cx="16.195258"
     inkscape:cy="17.228998"
     inkscape:window-width="1183"
     inkscape:window-height="941"
     inkscape:window-x="35"
     inkscape:window-y="32"
     inkscape:window-maximized="0"
     inkscape:current-layer="svg7"
     showgrid="false" />
  <defs
     id="defs2">
    <filter
       style="color-interpolation-filters:sRGB;"
       inkscape:label="Blur"
       id="filter1283"
       x="-0.082344266"
       y="-0.082344266"
       width="1.1646885"
       height="1.1646885">
      <feGaussianBlur
         stdDeviation="0.5 0.5"
         result="blur"
         id="feGaussianBlur1281" />
    </filter>
    <filter
       style="color-interpolation-filters:sRGB;"
       inkscape:label="Blur"
       id="filter1694"
       x="-0.94955398"
       y="-0.2118907"
       width="2.899108"
       height="1.4237814">
      <feGaussianBlur
         stdDeviation="0.2 0.2"
         result="blur"
         id="feGaussianBlur1692" />
    </filter>
    <filter
       style="color-interpolation-filters:sRGB;"
       inkscape:label="Blur"
       id="filter3335"
       x="-0.94955398"
       y="-0.2118907"
       width="2.899108"
       height="1.4237814">
      <feGaussianBlur
         stdDeviation="0.2 0.2"
         result="blur"
         id="feGaussianBlur3333" />
    </filter>
  </defs>
  <metadata
     id="metadata2">
    <rdf:RDF>
      <cc:Work
         rdf:about="">
        <dc:format>image/svg+xml</dc:format>
        <dc:type
           rdf:resource="http://purl.org/dc/dcmitype/StillImage" />
      </cc:Work>
    </rdf:RDF>
  </metadata>
  <path
     id="rect3"
     style="fill:#f9f9f9;fill-opacity:1;stroke:none;stroke-width:0.407185;stroke-dasharray:none;stroke-opacity:0.3"
     d="m 2.8048685,1.8703341 c -0.5176467,0 -0.9344594,0.4168127 -0.9344594,0.9344595 v 3.7378377 c 0,0.5176468 0.4168127,0.9344595 0.9344594,0.9344595 h 3.7378377 c 0.517647,0 0.9344595,-0.4168127 0.9344595,-0.9344595 V 2.8047936 c 0,-0.5176468 -0.4168125,-0.9344595 -0.9344595,-0.9344595 z m 7.5854245,0 c -0.5176465,0 -0.934459,0.4168127 -0.934459,0.9344595 v 3.7378377 c 0,0.5176468 0.4168125,0.9344595 0.934459,0.9344595 h 3.737838 c 0.517648,0 0.93446,-0.4168127 0.93446,-0.9344595 V 2.8047936 c 0,-0.5176468 -0.416812,-0.9344595 -0.93446,-0.9344595 z M 2.8048685,9.455759 c -0.5176467,0 -0.9344594,0.4168127 -0.9344594,0.934459 v 3.73784 c 0,0.517643 0.4168127,0.934458 0.9344594,0.934458 h 3.7378377 c 0.517647,0 0.9344595,-0.416815 0.9344595,-0.934458 v -3.73784 c 0,-0.5176461 -0.4168125,-0.9344586 -0.9344595,-0.9344586 z m 9.4543445,0 c -0.456801,0 -0.824712,0.4203539 -0.824712,0.942412 v 1.696341 H 9.8566575 A 0.40055304,0.371094 0 0 0 9.573536,12.72756 l 2.402555,2.226796 a 0.40055304,0.371094 0 0 0 0.566243,0 l 2.403348,-2.226796 a 0.40055304,0.371094 0 0 0 -0.283119,-0.633048 h -1.578639 v -1.696341 c 0,-0.5220579 -0.367913,-0.9424118 -0.824711,-0.942412 z" />
</svg>
