<?xml version="1.0" encoding="UTF-8" standalone="no"?>
<svg
   height="15.996"
   width="16"
   version="1.1"
   id="svg9"
   sodipodi:docname="applications-science-symbolic.svg"
   inkscape:version="1.2.2 (b0a8486541, 2022-12-01)"
   xmlns:inkscape="http://www.inkscape.org/namespaces/inkscape"
   xmlns:sodipodi="http://sodipodi.sourceforge.net/DTD/sodipodi-0.dtd"
   xmlns="http://www.w3.org/2000/svg"
   xmlns:svg="http://www.w3.org/2000/svg">
  <defs
     id="defs13" />
  <sodipodi:namedview
     id="namedview11"
     pagecolor="#ffffff"
     bordercolor="#666666"
     borderopacity="1.0"
     inkscape:showpageshadow="2"
     inkscape:pageopacity="0.0"
     inkscape:pagecheckerboard="0"
     inkscape:deskcolor="#d1d1d1"
     showgrid="false"
     inkscape:zoom="56.451612"
     inkscape:cx="4.7474287"
     inkscape:cy="8.0157144"
     inkscape:window-width="1920"
     inkscape:window-height="1056"
     inkscape:window-x="0"
     inkscape:window-y="0"
     inkscape:window-maximized="1"
     inkscape:current-layer="svg9" />
  <style
     type="text/css"
     id="current-color-scheme">
        .ColorScheme-Text {
        color:#31363b;
        }
        </style>
  <g
     fill="currentColor"
     id="g7"
     class="ColorScheme-Text">
    <path
       d="M5.498.996c-.5 0-.5.5-.5.5s0 .5.5.5h.5l.018 2.877a1 1 0 0 1-.159.539c-.132.208-.235.367-.416.678-.267.46-.598 1.048-.959 1.693a514.53 514.53 0 0 0-2.199 3.986c-.386.708-.383 1.677.203 2.407l.022.027c.422.563 1.12.74 1.818.74h7.348c.7 0 1.4-.176 1.822-.74l.022-.027c.584-.729.586-1.699.199-2.407l-.022-.039c-1.123-2.287-2.428-4.128-3.558-6.39a1 1 0 0 1-.106-.448l-.033-2.896h.5c.5 0 .5-.5.5-.5s0-.5-.5-.5zm1.518 1.047h2.015V5.15a1 1 0 0 0 .102.44c1.201 2.457 2.573 4.343 3.685 6.617a.807.807 0 0 0 .02.04c.24.44.254.884-.1 1.315l-.035.045c-.144.199-.489.336-1.03.336H4.326c-.54 0-.885-.137-1.03-.336a.912.912 0 0 0-.032-.045c-.354-.431-.342-.875-.102-1.314a513.045 513.045 0 0 1 2.193-3.977c.359-.641.688-1.227.952-1.681.263-.454.49-.813.517-.85a1 1 0 0 0 .192-.59z"
       font-family="sans-serif"
       font-weight="400"
       overflow="visible"
       style="line-height:normal;font-variant-ligatures:normal;font-variant-position:normal;font-variant-caps:normal;font-variant-numeric:normal;font-variant-alternates:normal;font-feature-settings:normal;text-indent:0;text-align:start;text-decoration-line:none;text-decoration-style:solid;text-decoration-color:#000;text-transform:none;text-orientation:mixed;shape-padding:0;isolation:auto;mix-blend-mode:normal"
       id="path3" />
    <path
       d="M6.217 8.997l-2.219 3.999h8L9.779 8.997z"
       opacity=".25"
       overflow="visible"
       style="marker:none"
       id="path5" />
  </g>
</svg>
