<?xml version="1.0" encoding="UTF-8" standalone="no"?>
<svg
   width="16"
   height="16"
   version="1.1"
   id="svg5"
   sodipodi:docname="cs-desklets-symbolic.svg"
   inkscape:version="1.2.2 (b0a8486541, 2022-12-01)"
   xmlns:inkscape="http://www.inkscape.org/namespaces/inkscape"
   xmlns:sodipodi="http://sodipodi.sourceforge.net/DTD/sodipodi-0.dtd"
   xmlns="http://www.w3.org/2000/svg"
   xmlns:svg="http://www.w3.org/2000/svg">
  <defs
     id="defs9" />
  <sodipodi:namedview
     id="namedview7"
     pagecolor="#ffffff"
     bordercolor="#666666"
     borderopacity="1.0"
     inkscape:showpageshadow="2"
     inkscape:pageopacity="0.0"
     inkscape:pagecheckerboard="0"
     inkscape:deskcolor="#d1d1d1"
     showgrid="false"
     inkscape:zoom="56.4375"
     inkscape:cx="4.7486157"
     inkscape:cy="8.0177187"
     inkscape:window-width="1920"
     inkscape:window-height="1056"
     inkscape:window-x="0"
     inkscape:window-y="0"
     inkscape:window-maximized="1"
     inkscape:current-layer="svg5" />
  <style
     type="text/css"
     id="current-color-scheme">
  .ColorScheme-Text {
  color:#31363b;
  }
 </style>
  <path
     d="m3 1c-1.108 0-2 0.892-2 2v10c0 1.108 0.892 2 2 2h6.5859 0.41406 1l4-4v-1-7c0-1.108-0.892-2-2-2h-10zm0 3h10c0.554 0 1 0.446 1 1v5h-2c-1.108 0-2 0.892-2 2v2h-7c-0.554 0-1-0.446-1-1v-8c0-0.554 0.446-1 1-1zm9 7h1.5859l-2.5859 2.5859v-1.5859c0-0.554 0.446-1 1-1z"
     fill="currentColor"
     id="path3"
     class="ColorScheme-Text" />
</svg>
