<?xml version="1.0" encoding="UTF-8" standalone="no"?>
<svg
   width="16"
   height="16"
   version="1.1"
   id="svg7"
   sodipodi:docname="emoji-nature-symbolic.svg"
   inkscape:version="1.2.2 (b0a8486541, 2022-12-01)"
   xmlns:inkscape="http://www.inkscape.org/namespaces/inkscape"
   xmlns:sodipodi="http://sodipodi.sourceforge.net/DTD/sodipodi-0.dtd"
   xmlns="http://www.w3.org/2000/svg"
   xmlns:svg="http://www.w3.org/2000/svg">
  <defs
     id="defs11" />
  <sodipodi:namedview
     id="namedview9"
     pagecolor="#ffffff"
     bordercolor="#666666"
     borderopacity="1.0"
     inkscape:showpageshadow="2"
     inkscape:pageopacity="0.0"
     inkscape:pagecheckerboard="0"
     inkscape:deskcolor="#d1d1d1"
     showgrid="false"
     inkscape:zoom="56.4375"
     inkscape:cx="4.7486157"
     inkscape:cy="8.0177187"
     inkscape:window-width="1920"
     inkscape:window-height="1056"
     inkscape:window-x="0"
     inkscape:window-y="0"
     inkscape:window-maximized="1"
     inkscape:current-layer="svg7" />
  <style
     type="text/css"
     id="current-color-scheme">
        .ColorScheme-Text {
        color:#31363b;
        }
        </style>
  <g
     id="g296"
     class="ColorScheme-Text">
    <path
       d="M11 1A10 10 0 0 0 1 11a10 10 0 0 0 .604 3.393A10 10 0 0 0 5 15a10 10 0 0 0 5.514-1.664A2 2 0 0 1 10 12a2 2 0 0 1 2-2 2 2 0 0 1 1.334.514A10 10 0 0 0 15 5a10 10 0 0 0-.604-3.393A10 10 0 0 0 11 1zm-.004.998H11c.868.004 1.718.207 2.549.457.249.83.45 1.679.453 2.545v.002c0 1.444-.369 2.88-1.035 4.162A3 3 0 0 0 12 9a3 3 0 0 0-3 3 3 3 0 0 0 .164.969 9.077 9.077 0 0 1-4.16 1.033c-.869-.003-1.72-.206-2.553-.457-.249-.83-.45-1.68-.453-2.547 0-2.356.97-4.697 2.637-6.363a9.111 9.111 0 0 1 6.361-2.637z"
       style="font-variation-settings:normal"
       fill="currentColor"
       id="path3" />
    <path
       d="M15.477.007a98.578 98.578 0 0 1-9.264 7.868l.7.7A100.934 100.934 0 0 0 15.995.78z"
       style="font-variation-settings:normal"
       fill="currentColor"
       id="path5" />
  </g>
</svg>
