<?xml version="1.0" encoding="UTF-8" standalone="no"?>
<svg
   width="16"
   height="16"
   version="1.1"
   viewBox="0 0 16 16"
   id="svg5"
   sodipodi:docname="xapp-prefs-plugins-symbolic.svg"
   inkscape:version="1.2.2 (b0a8486541, 2022-12-01)"
   xmlns:inkscape="http://www.inkscape.org/namespaces/inkscape"
   xmlns:sodipodi="http://sodipodi.sourceforge.net/DTD/sodipodi-0.dtd"
   xmlns="http://www.w3.org/2000/svg"
   xmlns:svg="http://www.w3.org/2000/svg">
  <defs
     id="defs9" />
  <sodipodi:namedview
     id="namedview7"
     pagecolor="#ffffff"
     bordercolor="#666666"
     borderopacity="1.0"
     inkscape:showpageshadow="2"
     inkscape:pageopacity="0.0"
     inkscape:pagecheckerboard="0"
     inkscape:deskcolor="#d1d1d1"
     showgrid="false"
     inkscape:zoom="56.4375"
     inkscape:cx="4.7486157"
     inkscape:cy="8.0177187"
     inkscape:window-width="1920"
     inkscape:window-height="1056"
     inkscape:window-x="0"
     inkscape:window-y="0"
     inkscape:window-maximized="1"
     inkscape:current-layer="svg5" />
  <style
     type="text/css"
     id="current-color-scheme">
  .ColorScheme-Text {
  color:#31363b;
  }
 </style>
  <path
     d="m7 0c-1.108 0-2 0.892-2 2v1h-2.1543c-1.0228 0-1.8457 0.82293-1.8457 1.8457v2.1543 1h2c0.554 0 1 0.446 1 1s-0.446 1-1 1h-2v1 2.1543c0 1.0228 0.82293 1.8457 1.8457 1.8457h2.1543 1v-2c0-0.554 0.446-1 1-1s1 0.446 1 1v2h1 2.1543c1.0228 0 1.8457-0.82293 1.8457-1.8457v-2.1543h1c1.108 0 2-0.892 2-2s-0.892-2-2-2h-1v-2.1543c0-1.0228-0.82293-1.8457-1.8457-1.8457h-2.1543v-1c0-1.108-0.892-2-2-2zm0 1c0.554 0 1 0.446 1 1v2h1 2c0.554 0 1 0.446 1 1v2 1h2c0.554 0 1 0.446 1 1s-0.446 1-1 1h-2v1 2c0 0.554-0.446 1-1 1h-2v-1c0-1.108-0.892-2-2-2s-2 0.892-2 2v1h-2c-0.554 0-1-0.446-1-1v-2h1c1.108 0 2-0.892 2-2s-0.892-2-2-2h-1v-2c0-0.554 0.446-1 1-1h2 1v-2c0-0.554 0.446-1 1-1z"
     fill="currentColor"
     id="path3"
     class="ColorScheme-Text" />
</svg>
