<?xml version="1.0" encoding="UTF-8" standalone="no"?>
<svg
   version="1.0"
   width="16pt"
   height="16pt"
   viewBox="0 0 16 16"
   preserveAspectRatio="xMidYMid"
   id="svg1"
   xmlns:xlink="http://www.w3.org/1999/xlink"
   xmlns="http://www.w3.org/2000/svg"
   xmlns:svg="http://www.w3.org/2000/svg"
   xmlns:rdf="http://www.w3.org/1999/02/22-rdf-syntax-ns#"
   xmlns:cc="http://creativecommons.org/ns#"
   xmlns:dc="http://purl.org/dc/elements/1.1/">
  <defs>
    <style id="current-color-scheme" type="text/css">
      .ColorScheme-Text { color: #0abdc6; } .ColorScheme-Highlight { color:#5294e2; }
    </style>
    <linearGradient id="arrongin" x1="0%" x2="0%" y1="0%" y2="100%">
      <stop offset="0%" style="stop-color:#dd9b44; stop-opacity:1"/>
      <stop offset="100%" style="stop-color:#ad6c16; stop-opacity:1"/>
    </linearGradient>
    <linearGradient id="aurora" x1="0%" x2="0%" y1="0%" y2="100%">
      <stop offset="0%" style="stop-color:#09D4DF; stop-opacity:1"/>
      <stop offset="100%" style="stop-color:#9269F4; stop-opacity:1"/>
    </linearGradient>
    <linearGradient id="cyberneon" x1="0%" x2="0%" y1="0%" y2="100%">
      <stop offset="0" style="stop-color:#0abdc6; stop-opacity:1"/>
      <stop offset="1" style="stop-color:#ea00d9; stop-opacity:1"/>
    </linearGradient>
    <linearGradient id="fitdance" x1="0%" x2="0%" y1="0%" y2="100%">
      <stop offset="0%" style="stop-color:#1AD6AB; stop-opacity:1"/>
      <stop offset="100%" style="stop-color:#329DB6; stop-opacity:1"/>
    </linearGradient>
    <linearGradient id="oomox" x1="0%" x2="0%" y1="0%" y2="100%">
      <stop offset="0%" style="stop-color:#0abdc6; stop-opacity:1"/>
      <stop offset="100%" style="stop-color:#b800ff; stop-opacity:1"/>
    </linearGradient>
    <linearGradient id="rainblue" x1="0%" x2="0%" y1="0%" y2="100%">
      <stop offset="0%" style="stop-color:#00F260; stop-opacity:1"/>
      <stop offset="100%" style="stop-color:#0575E6; stop-opacity:1"/>
    </linearGradient>
    <linearGradient id="sunrise" x1="0%" x2="0%" y1="0%" y2="100%">
      <stop offset="0%" style="stop-color: #FF8501; stop-opacity:1"/>
      <stop offset="100%" style="stop-color: #FFCB01; stop-opacity:1"/>
    </linearGradient>
    <linearGradient id="telinkrin" x1="0%" x2="0%" y1="0%" y2="100%">
      <stop offset="0%" style="stop-color: #b2ced6; stop-opacity:1"/>
      <stop offset="100%" style="stop-color: #6da5b7; stop-opacity:1"/>
    </linearGradient>
    <linearGradient id="60spsycho" x1="0%" x2="0%" y1="0%" y2="100%">
      <stop offset="0%" style="stop-color: #df5940; stop-opacity:1"/>
      <stop offset="25%" style="stop-color: #d8d15f; stop-opacity:1"/>
      <stop offset="50%" style="stop-color: #e9882a; stop-opacity:1"/>
      <stop offset="100%" style="stop-color: #279362; stop-opacity:1"/>
    </linearGradient>
    <linearGradient id="90ssummer" x1="0%" x2="0%" y1="0%" y2="100%">
      <stop offset="0%" style="stop-color: #f618c7; stop-opacity:1"/>
      <stop offset="20%" style="stop-color: #94ffab; stop-opacity:1"/>
      <stop offset="50%" style="stop-color: #fbfd54; stop-opacity:1"/>
      <stop offset="100%" style="stop-color: #0f83ae; stop-opacity:1"/>
    </linearGradient>
  </defs>
  <metadata
     id="metadata1">
    <rdf:RDF>
      <cc:Work
         rdf:about="">
        <dc:creator>
          <cc:Agent>
            <dc:title>dreifacherspass</dc:title>
          </cc:Agent>
        </dc:creator>
        <cc:license
           rdf:resource="http://creativecommons.org/licenses/by-sa/4.0/" />
      </cc:Work>
      <cc:License
         rdf:about="http://creativecommons.org/licenses/by-sa/4.0/">
        <cc:permits
           rdf:resource="http://creativecommons.org/ns#Reproduction" />
        <cc:permits
           rdf:resource="http://creativecommons.org/ns#Distribution" />
        <cc:requires
           rdf:resource="http://creativecommons.org/ns#Notice" />
        <cc:requires
           rdf:resource="http://creativecommons.org/ns#Attribution" />
        <cc:permits
           rdf:resource="http://creativecommons.org/ns#DerivativeWorks" />
        <cc:requires
           rdf:resource="http://creativecommons.org/ns#ShareAlike" />
      </cc:License>
    </rdf:RDF>
  </metadata>
  <path
     d="M 1.242,13.9225 8,13.922276 l 6.782,2.24e-4 9e-5,-11.8450001 H 8.0119403 1.241791 Z M 3.5820896,7.262 C 3.7468657,7.355134 3.8065672,7.560485 3.7158209,7.7324253 3.5486567,8.0548133 3.0280597,7.8924253 3.0638806,7.5294402 3.0901496,7.2763059 3.3576119,7.1354328 3.5820896,7.262 Z M 2.8298507,8.4989924 c 0.1002986,0.057313 0.1623881,0.1767165 0.16,0.3080597 C 2.9850746,9.1557089 2.5002985,9.2679477 2.3402985,8.9551118 2.2853731,8.8452611 2.280597,8.7688432 2.3259701,8.6613805 2.4143284,8.4536193 2.6292537,8.3843656 2.8298507,8.4989924 Z m 0.7116418,-0.035821 c 0.042985,0.016716 0.1074627,0.064478 0.1408956,0.1050747 0.243582,0.2889552 -0.095522,0.7068656 -0.4346269,0.5349253 -0.2555224,-0.1265671 -0.2555224,-0.4895522 0,-0.6208955 0.121791,-0.059702 0.1862687,-0.064478 0.2937313,-0.019104 z m 2.8226866,0.035821 c 0.1002985,0.057313 0.1623881,0.1767165 0.16,0.3080597 C 6.521791,9.0554103 6.2495522,9.2177984 6.0250746,9.1031715 5.8029851,8.9885447 5.7623881,8.7115298 5.9438806,8.5395895 6.0632836,8.4249626 6.2089552,8.4106342 6.3641791,8.4989924 Z m 0.7713433,-0.00239 C 7.4101493,8.6757089 7.3098507,9.0936193 6.9802985,9.1389924 6.7916418,9.162873 6.5910448,8.9885447 6.5910448,8.799888 c 0,-0.1432836 0.119403,-0.3056717 0.2531343,-0.3462687 0.083582,-0.023881 0.2173134,-0.00478 0.2913433,0.042985 z m 0.7665672,-0.00239 c 0.16,0.1217911 0.2053731,0.279403 0.1241791,0.4441791 -0.1647762,0.3391084 -0.6710448,0.2268696 -0.6710448,-0.1504438 0,-0.2698508 0.3367164,-0.4489553 0.5468657,-0.2937314 z m 2.4931344,0 c 0.150448,0.076418 0.207761,0.32 0.112239,0.477612 C 10.333134,9.2607835 9.9056716,9.162873 9.8698507,8.8261566 9.8555224,8.7115298 9.8937313,8.6183954 9.9892537,8.5300372 10.096716,8.4273506 10.242388,8.4154103 10.395224,8.4942163 Z m 0.768955,0.00478 c 0.100299,0.057313 0.162388,0.1767165 0.16,0.3080597 -0.0048,0.3247762 -0.439403,0.4561194 -0.630448,0.1910448 -0.06448,-0.093134 -0.08358,-0.2531343 -0.03582,-0.3438806 0.107463,-0.2053731 0.30806,-0.2674627 0.506269,-0.1552239 z m 0.764179,0 c 0.100299,0.057313 0.162388,0.1767165 0.16,0.3080597 -0.0048,0.3486568 -0.489552,0.4608956 -0.649552,0.1480597 -0.05492,-0.1098507 -0.0597,-0.1862686 -0.01433,-0.2937313 0.08836,-0.2077612 0.303283,-0.2770149 0.50388,-0.1623881 z M 12.64,8.4631715 c 0.04298,0.016716 0.107463,0.064478 0.140896,0.1050747 0.243582,0.2889552 -0.09552,0.7068656 -0.434627,0.5349253 -0.255523,-0.1265671 -0.255523,-0.4895522 0,-0.6208955 C 12.46806,8.4225745 12.532537,8.4177984 12.64,8.4631715 Z M 3.601194,9.2583954 c 0.1122388,0.083582 0.157612,0.1671642 0.157612,0.2889552 0,0.2005971 -0.1480597,0.3486568 -0.3510448,0.3486568 -0.2579105,0 -0.4298508,-0.2817911 -0.3032836,-0.5062687 C 3.2095522,9.20347 3.4459701,9.1413805 3.601194,9.2583954 Z m 2.0059702,0 c 0.2149254,0.16 0.2053731,0.4585075 -0.016716,0.5898508 C 5.3516418,9.9867536 5.0435821,9.7957089 5.0698507,9.5258581 5.0889552,9.3180969 5.2441791,9.1843656 5.4423881,9.20347 c 0.057313,0.00478 0.1313432,0.028657 0.1647761,0.054925 z m 3.0591045,0 c 0.1122388,0.08597 0.1576119,0.1695523 0.1552238,0.2961194 -0.00239,0.200597 -0.1456716,0.3414926 -0.3438806,0.3414926 -0.2650746,0 -0.4274626,-0.2579105 -0.3128358,-0.4967165 0.093134,-0.1910447 0.3391045,-0.2602985 0.5014926,-0.1408955 z m 1.6979103,-0.021492 c 0.24597,0.121791 0.257911,0.4919403 0.0191,0.6161194 -0.107463,0.057313 -0.267463,0.052537 -0.348657,-0.00716 C 9.9128358,9.7574999 9.8579104,9.6476492 9.8698507,9.5258581 9.8937313,9.2679477 10.139701,9.122276 10.364179,9.2369034 Z m 1.571343,0.021492 c 0.152836,0.1146269 0.198209,0.2937314 0.117015,0.4537314 C 11.894925,10.01541 11.443582,9.9270521 11.398209,9.5831715 11.36,9.3013805 11.711045,9.0888432 11.935522,9.2583954 Z m 1.528359,0 c 0.114626,0.08597 0.157612,0.1671642 0.157612,0.2937314 0,0.200597 -0.143284,0.3438806 -0.343881,0.3438806 -0.262687,0 -0.427463,-0.2579105 -0.312836,-0.4919403 0.09313,-0.1958209 0.336717,-0.2674627 0.499105,-0.1456717 z M 3.5725373,9.9963059 C 3.7373134,10.075112 3.8065672,10.304366 3.7158209,10.478694 3.5916418,10.7175 3.2214925,10.70556 3.0997015,10.459589 3.0447761,10.352127 3.0447761,10.251828 3.1020896,10.149142 3.1928358,9.9748133 3.3910448,9.9103357 3.5725373,9.9963059 Z m 2.0441791,0.023881 c 0.200597,0.148059 0.1862687,0.463283 -0.023881,0.587462 -0.1026865,0.0597 -0.2650746,0.05492 -0.3653731,-0.01194 -0.2149254,-0.143284 -0.2125373,-0.439403 0.00239,-0.585075 0.066866,-0.045373 0.1074627,-0.054925 0.2053732,-0.047761 0.069254,0.00716 0.1480597,0.031045 0.1814925,0.057314 z M 6.3426866,9.9963059 C 6.5743284,10.106157 6.5886567,10.464366 6.3689552,10.600485 6.1970149,10.707948 5.960597,10.638694 5.8698507,10.459589 5.7170149,10.158694 6.0346269,9.8506342 6.3426866,9.9963059 Z m 0.7641791,0 C 7.2716418,10.075112 7.3408955,10.304366 7.2501493,10.478694 7.1259701,10.7175 6.7558209,10.70556 6.6340299,10.459589 6.481194,10.158694 6.798806,9.8506342 7.1068657,9.9963059 Z m 0.7665671,0.00239 C 8.038209,10.075112 8.1050746,10.268545 8.0286567,10.445261 7.8710448,10.801082 7.3241791,10.662574 7.3623881,10.275709 7.3886567,10.027351 7.641791,9.8888432 7.8734328,9.9986939 Z m 0.7641791,0 C 8.8023881,10.075112 8.8692537,10.268545 8.7928358,10.445261 8.6352239,10.798694 8.0883582,10.660186 8.1265672,10.275709 8.1528358,10.027351 8.4059701,9.8888432 8.6376119,9.9986939 Z m 1.8268661,0.07403 c 0.08836,0.09552 0.102686,0.143283 0.09075,0.291343 -0.01911,0.23403 -0.324776,0.367761 -0.527761,0.231642 -0.2149257,-0.143284 -0.2125376,-0.439403 0.0024,-0.585075 0.06925,-0.047761 0.105074,-0.054925 0.212537,-0.045373 0.114627,0.00716 0.140896,0.021492 0.22209,0.1074631 z m 1.442388,-0.076418 c 0.231641,0.1098511 0.24597,0.4680601 0.02627,0.6041791 -0.171942,0.107461 -0.40836,0.03821 -0.499106,-0.140898 -0.152836,-0.300895 0.164776,-0.6089548 0.472836,-0.4632831 z m 1.530746,0.00239 c 0.164776,0.076418 0.231642,0.2698511 0.155224,0.4465671 -0.157612,0.355817 -0.704478,0.217309 -0.666269,-0.169556 0.02627,-0.248358 0.279403,-0.3868658 0.511045,-0.2770151 z M 3.601194,10.770037 c 0.1026866,0.06209 0.1814926,0.23403 0.16,0.341493 -0.042985,0.193433 -0.200597,0.317612 -0.3820895,0.298507 -0.3391045,-0.03821 -0.4370149,-0.465671 -0.1480597,-0.64 0.1002985,-0.06209 0.2674627,-0.06209 0.3701492,0 z m 2.0035821,0 C 5.7026866,10.829739 5.76,10.939589 5.76,11.075709 c 0,0.315224 -0.4250746,0.458507 -0.6208955,0.207761 -0.1146269,-0.143284 -0.088358,-0.360597 0.054925,-0.487164 0.071642,-0.06209 0.1050746,-0.07403 0.2101492,-0.07403 0.081194,0 0.1504478,0.01672 0.200597,0.04776 z m 4.7999999,0 c 0.100299,0.0597 0.150448,0.162388 0.150448,0.30806 0,0.253134 -0.269851,0.413134 -0.499105,0.293731 -0.1122384,-0.05493 -0.1719399,-0.145671 -0.1862683,-0.272239 -0.014328,-0.126567 0.028657,-0.222089 0.1361193,-0.315223 0.09552,-0.07881 0.281791,-0.08597 0.398806,-0.01433 z m 1.528358,0 c 0.152836,0.09075 0.21015,0.339105 0.109851,0.472836 -0.07164,0.09791 -0.195821,0.17194 -0.286567,0.17194 -0.226866,0 -0.396418,-0.198209 -0.355821,-0.41791 0.0191,-0.09075 0.114627,-0.219702 0.191045,-0.250746 0.09075,-0.03821 0.262686,-0.02627 0.341492,0.02388 z m 1.511642,-0.01194 c 0.162388,0.08358 0.226866,0.281791 0.145672,0.448955 -0.126567,0.260299 -0.475224,0.274627 -0.61612,0.02627 -0.06448,-0.112238 -0.06925,-0.207761 -0.01194,-0.32 0.08358,-0.169552 0.312836,-0.243582 0.482388,-0.155225 z M 2.839403,11.527052 c 0.1122388,0.08597 0.1504477,0.162388 0.1504477,0.293731 0,0.181493 -0.1170149,0.320001 -0.2961194,0.348657 C 2.5050746,12.20049 2.293,12.016604 2.293,11.820783 c 0,-0.265074 0.3386418,-0.446567 0.546403,-0.293731 z m 0.7641791,0 c 0.1122388,0.08597 0.1552239,0.167164 0.1552239,0.293731 0,0.351045 -0.4226866,0.475224 -0.6352239,0.188657 -0.119403,-0.157612 -0.052537,-0.403582 0.1313433,-0.499104 0.1170149,-0.0597 0.2531343,-0.05254 0.3486567,0.01672 z m 0.6877612,-0.03821 c 0.2531343,0.09552 0.3152239,0.415523 0.1146268,0.592239 -0.1528358,0.133731 -0.3510447,0.119403 -0.4871641,-0.03343 -0.1265672,-0.145672 -0.119403,-0.341492 0.016716,-0.472836 0.1098507,-0.105074 0.2292537,-0.133731 0.3558209,-0.08597 z m 2.082388,0.03821 c 0.1098508,0.08358 0.1504478,0.162388 0.1504478,0.291343 0,0.145672 -0.081194,0.274627 -0.2101492,0.327165 -0.1074627,0.04537 -0.1671642,0.04299 -0.2841792,-0.01433 -0.1146268,-0.05493 -0.202985,-0.191044 -0.202985,-0.310447 0,-0.265075 0.3391044,-0.446568 0.5468656,-0.293731 z m 0.7641791,0 c 0.1122389,0.08597 0.1552239,0.167164 0.1552239,0.293732 0,0.351044 -0.4226865,0.475223 -0.6352239,0.188656 -0.1194029,-0.157612 -0.052537,-0.403582 0.1313433,-0.499104 0.117015,-0.0597 0.2531344,-0.05254 0.3486567,0.01672 z m 0.6877612,-0.03821 c 0.2531344,0.09552 0.3152239,0.415523 0.1146269,0.592239 -0.1528358,0.133731 -0.3510448,0.119403 -0.4871642,-0.03343 -0.1265671,-0.145672 -0.119403,-0.341492 0.016716,-0.472836 0.1098508,-0.105074 0.2292538,-0.133731 0.3558209,-0.08597 z m 0.7641791,0 c 0.16,0.0597 0.2650747,0.236418 0.2340299,0.39403 -0.019105,0.107463 -0.1361194,0.238806 -0.241194,0.272239 -0.238806,0.07881 -0.4991045,-0.14806 -0.4537314,-0.39403 0.028657,-0.14806 0.1958209,-0.296119 0.3414926,-0.298508 0.028657,0 0.081194,0.01194 0.1194029,0.02627 z m 1.8125373,0.03343 c 0.202985,0.131343 0.202985,0.465672 0,0.597015 -0.219701,0.145672 -0.5397014,-0.03343 -0.5397014,-0.298507 0,-0.265075 0.3200004,-0.444179 0.5397014,-0.298508 z m 1.535522,0.0048 c 0.112239,0.08597 0.150448,0.162388 0.150448,0.293732 0,0.181492 -0.117015,0.32 -0.296119,0.348656 -0.188657,0.03105 -0.401194,-0.152836 -0.401194,-0.348656 0,-0.265075 0.339104,-0.446568 0.546865,-0.293732 z m 1.451941,-0.03821 c 0.253134,0.09552 0.315224,0.415523 0.114627,0.592239 -0.152836,0.133731 -0.351045,0.119403 -0.487165,-0.03343 -0.126567,-0.145672 -0.119403,-0.341493 0.01672,-0.472836 0.109851,-0.105075 0.229254,-0.133731 0.355821,-0.08597 z"
     id="path1"
     class="ColorScheme-Text"
     style="fill:url(#oomox);stroke-width:0.00238806" />
  <path
     id="path_background"
     class="ColorScheme-Text"
     style="opacity:0.5;fill:url(#oomox);stroke-width:1.12155;paint-order:markers fill stroke"
     d="M 0 5.9458008 L 0 13.921875 L 16.000488 13.921875 L 16.000488 5.9458008 L 0 5.9458008 z M 3.4101563 7.2143555 C 3.4672085 7.2149898 3.5268884 7.2310535 3.5830078 7.2626953 C 3.7477839 7.3558293 3.8070549 7.5609699 3.7163086 7.7329102 C 3.5491444 8.0552982 3.0286322 7.892282 3.0644531 7.5292969 C 3.0841549 7.3394462 3.2389996 7.2124525 3.4101563 7.2143555 z M 3.3999023 8.4331055 C 3.4446785 8.4301204 3.4882609 8.4411804 3.5419922 8.4638672 C 3.5849772 8.4805832 3.6491843 8.5272744 3.6826172 8.5678711 C 3.9261992 8.8568263 3.5866635 9.2759442 3.2475586 9.1040039 C 2.9920362 8.9774368 2.9920362 8.6142535 3.2475586 8.4829102 C 3.3084541 8.4530592 3.3551262 8.4360905 3.3999023 8.4331055 z M 12.499512 8.4331055 C 12.544288 8.4301204 12.586405 8.4411804 12.640137 8.4638672 C 12.683117 8.4805832 12.747329 8.5272744 12.780762 8.5678711 C 13.024344 8.8568263 12.686275 9.2759442 12.347168 9.1040039 C 12.091645 8.9774368 12.091645 8.6142535 12.347168 8.4829102 C 12.408063 8.4530592 12.454736 8.4360905 12.499512 8.4331055 z M 7.7285156 8.4375 C 7.789635 8.4383209 7.8502947 8.4558229 7.902832 8.4946289 C 8.062832 8.61642 8.1085378 8.7737005 8.0273438 8.9384766 C 7.8625676 9.277585 7.3549805 9.1649111 7.3549805 8.7875977 C 7.3549805 8.5852096 7.5451574 8.4350373 7.7285156 8.4375 z M 6.140625 8.4433594 C 6.2113713 8.4364937 6.2871341 8.4548443 6.3647461 8.4990234 C 6.4650446 8.5563364 6.5268022 8.6752974 6.5244141 8.8066406 C 6.5220241 9.0549988 6.2493799 9.2186308 6.0249023 9.1040039 C 5.8028128 8.9893771 5.7628434 8.7119794 5.9443359 8.5400391 C 6.0040374 8.4827256 6.0698787 8.4502251 6.140625 8.4433594 z M 6.9155273 8.4433594 C 6.9918706 8.4408957 7.0797315 8.4617348 7.1352539 8.4975586 C 7.4098808 8.6766651 7.3109975 9.0937871 6.9814453 9.1391602 C 6.7927886 9.1630412 6.5917969 8.989438 6.5917969 8.8007813 C 6.5917969 8.6574977 6.7114835 8.4942103 6.8452148 8.4536133 C 6.8661103 8.447643 6.8900796 8.4441806 6.9155273 8.4433594 z M 10.229004 8.4433594 C 10.282665 8.4473892 10.338683 8.4650767 10.395996 8.4946289 C 10.546444 8.5710469 10.602846 8.814556 10.507324 8.972168 C 10.332995 9.2611271 9.9059381 9.1624 9.8701172 8.8256836 C 9.8557892 8.7110568 9.8947124 8.6181434 9.9902344 8.5297852 C 10.057399 8.465606 10.139568 8.436643 10.229004 8.4433594 z M 2.605957 8.4448242 C 2.6777807 8.4384856 2.7548543 8.4560384 2.8300781 8.4990234 C 2.9303767 8.5563364 2.9921342 8.6752974 2.9897461 8.8066406 C 2.98497 9.1552974 2.5008203 9.2688906 2.3408203 8.9560547 C 2.2858949 8.846204 2.2807988 8.7690838 2.3261719 8.6616211 C 2.3813958 8.5317703 2.4862509 8.4553886 2.605957 8.4448242 z M 10.945313 8.4448242 C 11.015275 8.439521 11.090711 8.4569339 11.165039 8.4990234 C 11.265338 8.5563364 11.327095 8.6752974 11.324707 8.8066406 C 11.319907 9.1314168 10.885869 9.2636098 10.694824 8.9985352 C 10.630344 8.9054012 10.610443 8.7450432 10.658203 8.6542969 C 10.725368 8.5259387 10.828708 8.4536629 10.945313 8.4448242 z M 11.704102 8.4448242 C 11.775925 8.4384856 11.852999 8.4560384 11.928223 8.4990234 C 12.028522 8.5563364 12.091743 8.6752974 12.089355 8.8066406 C 12.084555 9.1552974 11.598965 9.2688906 11.438965 8.9560547 C 11.384045 8.846204 11.378946 8.7690838 11.424316 8.6616211 C 11.479541 8.5317703 11.584396 8.4553886 11.704102 8.4448242 z M 10.196777 9.1977539 C 10.251777 9.1961868 10.309115 9.2086478 10.365234 9.2373047 C 10.611204 9.3590957 10.623088 9.72836 10.384277 9.8525391 C 10.276814 9.9098521 10.116839 9.9063767 10.035645 9.8466797 C 9.913858 9.7583168 9.8581769 9.64767 9.8701172 9.5258789 C 9.8880276 9.3324461 10.031777 9.2024552 10.196777 9.1977539 z M 11.752441 9.1977539 C 11.816322 9.1972688 11.879428 9.2168893 11.935547 9.2592773 C 12.088383 9.3739042 12.133928 9.5519141 12.052734 9.7119141 C 11.895122 10.015197 11.443322 9.9268882 11.397949 9.5830078 C 11.369292 9.3716646 11.5608 9.1992091 11.752441 9.1977539 z M 3.4042969 9.1992188 C 3.4741336 9.1956227 3.5438418 9.2153968 3.6020508 9.2592773 C 3.7142896 9.3428593 3.7587891 9.4260606 3.7587891 9.5478516 C 3.7587891 9.7484487 3.6116765 9.8964844 3.4086914 9.8964844 C 3.1507809 9.8964844 2.9789016 9.614126 3.1054688 9.3896484 C 3.1711404 9.2732305 3.2879023 9.2052122 3.4042969 9.1992188 z M 13.259766 9.1992188 C 13.331282 9.1941395 13.403948 9.2136057 13.464844 9.2592773 C 13.57947 9.3452473 13.621582 9.4256789 13.621582 9.5522461 C 13.621582 9.7528431 13.477941 9.8964844 13.277344 9.8964844 C 13.014657 9.8964844 12.850705 9.6383267 12.965332 9.4042969 C 13.023538 9.2819088 13.140571 9.2076842 13.259766 9.1992188 z M 8.4609375 9.2006836 C 8.5328732 9.1959261 8.6051201 9.2145012 8.6660156 9.2592773 C 8.7782544 9.3452473 8.8236772 9.4286087 8.8212891 9.5551758 C 8.8188991 9.7557728 8.6767246 9.8964844 8.4785156 9.8964844 C 8.213441 9.8964844 8.0504123 9.6387083 8.1650391 9.3999023 C 8.2232478 9.2804994 8.3410447 9.2086127 8.4609375 9.2006836 z M 5.3701172 9.2036133 C 5.3933681 9.2013791 5.4185833 9.2012252 5.4433594 9.2036133 C 5.5006724 9.2083933 5.573989 9.2330089 5.6074219 9.2592773 C 5.8223473 9.4192773 5.8133977 9.7168012 5.5913086 9.8481445 C 5.3525022 9.9866522 5.0435556 9.79573 5.0698242 9.5258789 C 5.0865411 9.3440879 5.2073607 9.2192523 5.3701172 9.2036133 z M 3.4350586 9.9594727 C 3.480581 9.9627936 3.5273808 9.9746012 3.5727539 9.9960938 C 3.73753 10.074904 3.8070549 10.305164 3.7163086 10.479492 C 3.5921295 10.718298 3.2214004 10.706415 3.0996094 10.460449 C 3.0446844 10.352982 3.0452241 10.252588 3.1025391 10.149902 C 3.1705973 10.019156 3.2984915 9.9495099 3.4350586 9.9594727 z M 6.1713867 9.9594727 C 6.2266555 9.9579212 6.2850122 9.9687803 6.3427734 9.9960938 C 6.5744152 10.105945 6.5888417 10.464955 6.3691406 10.601074 C 6.1971999 10.708537 5.9603752 10.639555 5.8696289 10.460449 C 5.7454498 10.215972 5.9318887 9.9661954 6.1713867 9.9594727 z M 6.9360352 9.9594727 C 6.9913039 9.9579212 7.0496607 9.9687803 7.1074219 9.9960938 C 7.272198 10.074904 7.3417228 10.305164 7.2509766 10.479492 C 7.1267974 10.718298 6.7560683 10.706415 6.6342773 10.460449 C 6.5100982 10.215968 6.6965371 9.9661956 6.9360352 9.9594727 z M 11.736328 9.9594727 C 11.791597 9.9579212 11.849954 9.9687803 11.907715 9.9960938 C 12.139356 10.105945 12.153782 10.464955 11.934082 10.601074 C 11.76214 10.708535 11.525316 10.639557 11.43457 10.460449 C 11.310391 10.215972 11.49683 9.9661954 11.736328 9.9594727 z M 5.371582 9.9609375 C 5.3902014 9.9603402 5.4115575 9.9606123 5.4360352 9.9624023 C 5.5052892 9.9696023 5.584243 9.9947261 5.6176758 10.020996 C 5.8182728 10.169055 5.8029231 10.484219 5.5927734 10.608398 C 5.4900869 10.668098 5.3283258 10.66354 5.2280273 10.59668 C 5.0131019 10.453396 5.0160297 10.156414 5.230957 10.010742 C 5.2811065 9.9767147 5.3157239 9.9627295 5.371582 9.9609375 z M 7.7006836 9.9609375 C 7.7574 9.9595196 7.8156247 9.9715608 7.8735352 9.9990234 C 8.0383114 10.075443 8.1052265 10.269085 8.0288086 10.445801 C 7.8711967 10.801622 7.3240957 10.662744 7.3623047 10.275879 C 7.3820064 10.08961 7.5305344 9.9651913 7.7006836 9.9609375 z M 8.4638672 9.9609375 C 8.5205836 9.9595196 8.5802731 9.9715608 8.6381836 9.9990234 C 8.8029598 10.075443 8.8698749 10.269085 8.793457 10.445801 C 8.6358451 10.799234 8.0887441 10.660356 8.1269531 10.275879 C 8.1466549 10.08961 8.293718 9.9651913 8.4638672 9.9609375 z M 13.26416 9.9609375 C 13.320877 9.9595196 13.380566 9.9715608 13.438477 9.9990234 C 13.603253 10.075443 13.670168 10.269085 13.59375 10.445801 C 13.436138 10.801618 12.889037 10.662744 12.927246 10.275879 C 12.946949 10.08961 13.094011 9.9651913 13.26416 9.9609375 z M 10.17334 9.9624023 C 10.192892 9.9623283 10.215322 9.962942 10.242188 9.965332 C 10.356815 9.972532 10.38365 9.9862926 10.464844 10.072266 C 10.553204 10.167786 10.5676 10.21571 10.555664 10.36377 C 10.536554 10.5978 10.231305 10.732799 10.02832 10.59668 C 9.8133943 10.453396 9.8148473 10.156414 10.029785 10.010742 C 10.081723 9.9749222 10.114682 9.9626245 10.17334 9.9624023 z M 10.198242 10.721191 C 10.271377 10.718505 10.346278 10.735176 10.404785 10.770996 C 10.505084 10.830696 10.555664 10.932941 10.555664 11.078613 C 10.555664 11.331747 10.285406 11.490985 10.056152 11.371582 C 9.9439136 11.316652 9.8844456 11.225689 9.8701172 11.099121 C 9.8557892 10.972554 9.8988851 10.877314 10.006348 10.78418 C 10.054108 10.744775 10.125108 10.723878 10.198242 10.721191 z M 13.30957 10.721191 C 13.356212 10.724027 13.403413 10.735723 13.445801 10.757813 C 13.608189 10.841393 13.672014 11.040356 13.59082 11.20752 C 13.464253 11.467819 13.115017 11.482244 12.974121 11.233887 C 12.909641 11.121649 12.905092 11.025325 12.962402 10.913086 C 13.025087 10.785922 13.169645 10.712684 13.30957 10.721191 z M 5.4052734 10.722656 C 5.4864674 10.722656 5.5558078 10.739956 5.605957 10.770996 C 5.703867 10.830676 5.7597656 10.939564 5.7597656 11.075684 C 5.7597656 11.390908 5.3359576 11.534437 5.1401367 11.283691 C 5.0255098 11.140407 5.0510529 10.922465 5.1943359 10.795898 C 5.2659779 10.733808 5.3001988 10.722656 5.4052734 10.722656 z M 3.4160156 10.724121 C 3.4831798 10.724121 3.5507075 10.739951 3.6020508 10.770996 C 3.7047374 10.833086 3.7832113 11.004842 3.7617188 11.112305 C 3.7187338 11.305738 3.560887 11.428773 3.3793945 11.409668 C 3.04029 11.371458 2.9424901 10.945325 3.2314453 10.770996 C 3.2815946 10.739951 3.3488515 10.724121 3.4160156 10.724121 z M 11.76709 10.725586 C 11.831268 10.730063 11.894679 10.745921 11.934082 10.770996 C 12.086918 10.861746 12.144244 11.108945 12.043945 11.242676 C 11.972305 11.340586 11.847582 11.415527 11.756836 11.415527 C 11.52997 11.415527 11.360282 11.216283 11.400879 10.996582 C 11.419979 10.905832 11.516355 10.777138 11.592773 10.746094 C 11.638148 10.726989 11.702911 10.721108 11.76709 10.725586 z M 8.4711914 11.462402 C 8.4998484 11.462402 8.5516349 11.47444 8.5898438 11.48877 C 8.7498438 11.54847 8.8552635 11.725201 8.8242188 11.882813 C 8.8051138 11.990276 8.6875941 12.12184 8.5825195 12.155273 C 8.3437135 12.234083 8.0845097 12.0072 8.1298828 11.76123 C 8.1585398 11.61317 8.3255197 11.464791 8.4711914 11.462402 z M 4.152832 11.468262 C 4.1981539 11.46468 4.2445295 11.470859 4.2919922 11.48877 C 4.5451265 11.58429 4.6068471 11.905315 4.40625 12.082031 C 4.2534142 12.215744 4.0560413 12.201175 3.9199219 12.04834 C 3.7933547 11.902668 3.7999162 11.706539 3.9360352 11.575195 C 4.0046918 11.509524 4.0772956 11.474232 4.152832 11.468262 z M 7.6875 11.468262 C 7.7328218 11.46468 7.7791975 11.470859 7.8266602 11.48877 C 8.0797946 11.58429 8.141515 11.905315 7.940918 12.082031 C 7.7880822 12.215762 7.5892444 12.201173 7.453125 12.04834 C 7.3265579 11.902668 7.3345841 11.706539 7.4707031 11.575195 C 7.5393599 11.509524 7.6119636 11.474232 7.6875 11.468262 z M 13.250977 11.468262 C 13.296298 11.46468 13.342674 11.470859 13.390137 11.48877 C 13.643271 11.58429 13.704992 11.905315 13.504395 12.082031 C 13.351559 12.215762 13.154186 12.201173 13.018066 12.04834 C 12.891499 11.902668 12.898057 11.706538 13.03418 11.575195 C 13.102837 11.509523 13.17544 11.474232 13.250977 11.468262 z M 10.226074 11.469727 C 10.28697 11.469279 10.348395 11.486043 10.40332 11.522461 C 10.606305 11.653804 10.606305 11.988774 10.40332 12.120117 C 10.183619 12.265789 9.862793 12.086366 9.862793 11.821289 C 9.862793 11.622483 10.043388 11.47107 10.226074 11.469727 z M 2.6674805 11.471191 C 2.7284879 11.471527 2.7883917 11.488646 2.840332 11.526855 C 2.9525708 11.612825 2.9897461 11.689946 2.9897461 11.821289 C 2.9897461 12.002782 2.8729522 12.141266 2.6938477 12.169922 C 2.505191 12.200972 2.2924805 12.01711 2.2924805 11.821289 C 2.2924805 11.622484 2.4844581 11.470184 2.6674805 11.471191 z M 3.4379883 11.471191 C 3.4985853 11.474176 3.5557544 11.492225 3.6035156 11.526855 C 3.7157544 11.612825 3.7587891 11.694722 3.7587891 11.821289 C 3.7587891 12.172334 3.337049 12.296821 3.1245117 12.010254 C 3.0051087 11.852642 3.0710025 11.606264 3.2548828 11.510742 C 3.3133903 11.480892 3.3773913 11.468206 3.4379883 11.471191 z M 6.2006836 11.471191 C 6.2616911 11.471527 6.3215949 11.488646 6.3735352 11.526855 C 6.483386 11.610435 6.5244141 11.689404 6.5244141 11.818359 C 6.5244141 11.964031 6.4438966 12.093946 6.3149414 12.146484 C 6.2074787 12.191854 6.1477767 12.189156 6.0307617 12.131836 C 5.9161349 12.076906 5.8271484 11.940692 5.8271484 11.821289 C 5.8271484 11.622483 6.0176612 11.470184 6.2006836 11.471191 z M 6.9726563 11.471191 C 7.0332533 11.474176 7.0904224 11.492225 7.1381836 11.526855 C 7.2504225 11.612825 7.293457 11.694721 7.293457 11.821289 C 7.293457 12.172333 6.8702522 12.296821 6.6577148 12.010254 C 6.5383119 11.852642 6.6056705 11.606264 6.7895508 11.510742 C 6.8480583 11.480892 6.9120592 11.468206 6.9726563 11.471191 z M 11.765625 11.471191 C 11.826632 11.471527 11.886536 11.488646 11.938477 11.526855 C 12.050716 11.612825 12.089355 11.689945 12.089355 11.821289 C 12.089355 12.002781 11.971096 12.141266 11.791992 12.169922 C 11.603335 12.200972 11.39209 12.017109 11.39209 11.821289 C 11.39209 11.622483 11.582603 11.470184 11.765625 11.471191 z " />
</svg>
