/* XPM */
static char * maximize_prelight_xpm[] = {
"20 24 50 1",
" 	c #455D7C",
".	c #B2CCED",
"+	c #98B9E2",
"@	c #86ABD9",
"#	c #82A8D7",
"$	c #96B8E1",
"%	c #84A9D8",
"&	c #729BCD",
"*	c #48668A",
"=	c #7099CC",
"-	c #8BAFDC",
";	c #7EA4D4",
">	c #B0C9E9",
",	c #8DADD6",
"'	c #7FA5D5",
")	c #9EBDE5",
"!	c #AEC9E9",
"~	c #9EBCE1",
"{	c #81A7D6",
"]	c #ADC7E8",
"^	c #4E76A8",
"/	c #ABC5E7",
"(	c #E1EAF6",
"_	c #84A9D7",
":	c #A9C5E6",
"<	c #85AAD8",
"[	c #A8C3E5",
"}	c #A6C2E5",
"|	c #88ACDA",
"1	c #9DBBE0",
"2	c #89AEDB",
"3	c #9CB9DF",
"4	c #8BAFDB",
"5	c #99B8DE",
"6	c #8CB0DC",
"7	c #98B7DD",
"8	c #8EB1DD",
"9	c #96B5DC",
"0	c #8FB2DE",
"a	c #95B4DB",
"b	c #91B3DF",
"c	c #93B2D9",
"d	c #88ADDB",
"e	c #8DB1DD",
"f	c #83A5CF",
"g	c #90B1D9",
"h	c #7CA3D3",
"i	c #7BA2D2",
"j	c #94B6E1",
"k	c #79A1D1",
"                    ",
"....................",
"++@##############@++",
"$%&**************&%$",
"%=*-............-*=%",
";*@>>>>>>>>>>>>>>,*;",
"'*)!!!!!!!!!!!!!!~*'",
"{*)]]^^^^^^^^^^]]~*{",
"#*)//^((((((((^//~*#",
"_*)::^((((((((^::~*_",
"<*)[[^(^^^^^^(^[[~*<",
"@*)}}^(^}}}}^(^}}~*@",
"|*)11^(^1111^(^11~*|",
"2*)33^(^3333^(^33~*2",
"4*)55^(^^^^^^(^55~*4",
"6*)77^((((((((^77~*6",
"8*)99^^^^^^^^^^99~*8",
"0*)aaaaaaaaaaaaaa~*0",
"b*@cccccccccccccc,*b",
"de*fggggggggggggf*ed",
"h@-**************-@h",
"iiejjjjjjjjjjjjjjeii",
"kkkkkkkkkkkkkkkkkkkk",
"^^^^^^^^^^^^^^^^^^^^"};
