<?xml version="1.0" encoding="UTF-8" standalone="no"?>
<svg
   viewBox="0 0 16 16"
   version="1.1"
   id="svg1"
   sodipodi:docname="folder-crash-symbolic.svg"
   inkscape:version="1.4.2 (unknown)"
   xmlns:inkscape="http://www.inkscape.org/namespaces/inkscape"
   xmlns:sodipodi="http://sodipodi.sourceforge.net/DTD/sodipodi-0.dtd"
   xmlns="http://www.w3.org/2000/svg"
   xmlns:svg="http://www.w3.org/2000/svg">
  <sodipodi:namedview
     id="namedview1"
     pagecolor="#ffffff"
     bordercolor="#000000"
     borderopacity="0.25"
     inkscape:showpageshadow="2"
     inkscape:pageopacity="0.0"
     inkscape:pagecheckerboard="0"
     inkscape:deskcolor="#d1d1d1"
     inkscape:zoom="47.6875"
     inkscape:cx="8"
     inkscape:cy="8"
     inkscape:window-width="1920"
     inkscape:window-height="996"
     inkscape:window-x="0"
     inkscape:window-y="0"
     inkscape:window-maximized="1"
     inkscape:current-layer="svg1" />
  <defs
     id="defs3051">
    <style
       type="text/css"
       id="current-color-scheme">.ColorScheme-Text { color: #fcfcfc; } </style>
  </defs>
  <path
     style="fill:#c83771"
     class="ColorScheme-Text"
     d="M 1.8378906 2.0683594 L 1.8378906 14.068359 L 13.837891 14.068359 L 13.837891 2.0683594 L 1.8378906 2.0683594 z M 2.8378906 3.0683594 L 12.837891 3.0683594 L 12.837891 13.068359 L 2.8378906 13.068359 L 2.8378906 3.0683594 z M 3.8378906 5.0683594 L 3.8378906 7.0683594 L 5.8378906 7.0683594 L 5.8378906 5.0683594 L 3.8378906 5.0683594 z M 9.8378906 5.0683594 L 9.8378906 7.0683594 L 11.837891 7.0683594 L 11.837891 5.0683594 L 9.8378906 5.0683594 z M 5.8378906 9.0683594 L 5.8378906 10.068359 L 9.8378906 10.068359 L 9.8378906 9.0683594 L 5.8378906 9.0683594 z M 9.8378906 10.068359 L 9.8378906 11.068359 L 10.837891 11.068359 L 10.837891 10.068359 L 9.8378906 10.068359 z M 10.837891 11.068359 L 10.837891 12.068359 L 11.837891 12.068359 L 11.837891 11.068359 L 10.837891 11.068359 z M 5.8378906 10.068359 L 4.8378906 10.068359 L 4.8378906 11.068359 L 5.8378906 11.068359 L 5.8378906 10.068359 z M 4.8378906 11.068359 L 3.8378906 11.068359 L 3.8378906 12.068359 L 4.8378906 12.068359 L 4.8378906 11.068359 z "
     id="path1" />
</svg>
