<?xml version="1.0" encoding="UTF-8" standalone="no"?>
<svg
   width="64"
   height="64"
   version="1.1"
   viewBox="0 0 16.933 16.933"
   id="svg7"
   sodipodi:docname="Misc.svg"
   inkscape:version="1.4 (e7c3feb100, 2024-10-09)"
   xmlns:inkscape="http://www.inkscape.org/namespaces/inkscape"
   xmlns:sodipodi="http://sodipodi.sourceforge.net/DTD/sodipodi-0.dtd"
   xmlns:xlink="http://www.w3.org/1999/xlink"
   xmlns="http://www.w3.org/2000/svg"
   xmlns:svg="http://www.w3.org/2000/svg"
   xmlns:rdf="http://www.w3.org/1999/02/22-rdf-syntax-ns#"
   xmlns:cc="http://creativecommons.org/ns#"
   xmlns:dc="http://purl.org/dc/elements/1.1/">
  <sodipodi:namedview
     id="namedview7"
     pagecolor="#9c4444"
     bordercolor="#000000"
     borderopacity="0.25"
     inkscape:showpageshadow="2"
     inkscape:pageopacity="0.0"
     inkscape:pagecheckerboard="0"
     inkscape:deskcolor="#d1d1d1"
     inkscape:zoom="4.3531261"
     inkscape:cx="36.755195"
     inkscape:cy="25.958357"
     inkscape:window-width="1280"
     inkscape:window-height="669"
     inkscape:window-x="152"
     inkscape:window-y="140"
     inkscape:window-maximized="0"
     inkscape:current-layer="svg7"
     showgrid="false" />
  <defs
     id="defs2">
    <linearGradient
       id="linearGradient1"
       inkscape:collect="always">
      <stop
         style="stop-color:#d8dee9;stop-opacity:1;"
         offset="0"
         id="stop1" />
      <stop
         style="stop-color:#eceff4;stop-opacity:1;"
         offset="1"
         id="stop2" />
    </linearGradient>
    <linearGradient
       inkscape:collect="always"
       id="linearGradient1134">
      <stop
         style="stop-color:#2e3440;stop-opacity:1;"
         offset="0"
         id="stop1130" />
      <stop
         style="stop-color:#4c566a;stop-opacity:1;"
         offset="1"
         id="stop1132" />
    </linearGradient>
    <filter
       style="color-interpolation-filters:sRGB;"
       inkscape:label="Blur"
       id="filter3"
       x="-0.10843471"
       y="-0.10870992"
       width="1.2168694"
       height="1.2174198">
      <feGaussianBlur
         stdDeviation="0.5 0.5"
         result="blur"
         id="feGaussianBlur3" />
    </filter>
    <linearGradient
       inkscape:collect="always"
       xlink:href="#linearGradient1134"
       id="linearGradient4"
       x1="14.388208"
       y1="14.440324"
       x2="2.2869277"
       y2="2.3637428"
       gradientUnits="userSpaceOnUse" />
    <linearGradient
       inkscape:collect="always"
       xlink:href="#linearGradient1"
       id="linearGradient17"
       x1="12.098733"
       y1="11.928415"
       x2="5.0201969"
       y2="5.1819596"
       gradientUnits="userSpaceOnUse" />
  </defs>
  <metadata
     id="metadata2">
    <rdf:RDF>
      <cc:Work
         rdf:about="">
        <dc:format>image/svg+xml</dc:format>
        <dc:type
           rdf:resource="http://purl.org/dc/dcmitype/StillImage" />
      </cc:Work>
    </rdf:RDF>
  </metadata>
  <ellipse
     style="opacity:1;fill:none;stroke:#000000;stroke-width:0.582072;stroke-dasharray:none;stroke-opacity:1;filter:url(#filter3)"
     id="path1-5"
     cx="8.4450111"
     cy="8.423522"
     rx="6.8752708"
     ry="6.8578653" />
  <ellipse
     style="opacity:1;fill:#2b323e;stroke-width:0.58207188;stroke-opacity:1;stroke:#9267d7;stroke-dasharray:none;fill-opacity:1"
     id="path1"
     cx="8.4450111"
     cy="8.423522"
     rx="6.8752708"
     ry="6.8578653" />
  <ellipse
     style="fill:url(#linearGradient4);stroke:none;stroke-width:0.515624;stroke-dasharray:none;stroke-opacity:1"
     id="path1-2"
     cx="8.4450111"
     cy="8.423522"
     rx="6.0904069"
     ry="6.0749874" />
  <path
     style="fill:#000000;fill-opacity:1;stroke:none;stroke-width:0.259313;stroke-dasharray:none;stroke-opacity:0.3;opacity:0.3"
     d="m 6.8267131,5.5218633 c -0.2332498,0 -0.4593275,0.05304 -0.667798,0.1248641 l 1.1009665,1.0880129 c 0.2262489,0.2235823 0.2262489,0.5790348 0,0.8026301 L 6.8447631,7.9476037 c -0.2262505,0.2235827 -0.5859389,0.2235827 -0.812189,0 L 4.9316091,6.8595922 C 4.8589231,7.065601 4.8052679,7.2890223 4.8052679,7.5195306 c 0,1.1032781 0.9050323,1.9976553 2.0214452,1.9976553 0.2332512,0 0.4593291,-0.05304 0.6678005,-0.124852 l 2.9987284,2.9697341 c 0.96389,0.955168 2.172076,-0.276684 1.245351,-1.195024 L 8.7218183,8.1794695 C 8.7945033,7.9734604 8.8481572,7.750039 8.8481572,7.5195311 c 0,-1.1032784 -0.9050311,-1.9976678 -2.0214463,-1.9976678 z"
     id="path10-7" />
  <path
     style="fill:url(#linearGradient17);fill-opacity:1;stroke:none;stroke-width:0.259313;stroke-dasharray:none;stroke-opacity:0.3"
     d="m 6.8267131,4.9927071 c -0.2332498,0 -0.4593275,0.05304 -0.667798,0.1248641 l 1.1009665,1.0880129 c 0.2262489,0.2235823 0.2262489,0.5790348 0,0.8026301 L 6.8447631,7.4184475 c -0.2262505,0.2235827 -0.5859389,0.2235827 -0.812189,0 L 4.9316091,6.330436 c -0.072686,0.2060088 -0.1263412,0.4294301 -0.1263412,0.6599384 0,1.1032781 0.9050323,1.9976553 2.0214452,1.9976553 0.2332512,0 0.4593291,-0.05304 0.6678005,-0.124852 l 2.9987284,2.9697343 c 0.96389,0.955168 2.172076,-0.276684 1.245351,-1.195024 L 8.7218183,7.6503133 c 0.072685,-0.2060091 0.1263389,-0.4294305 0.1263389,-0.6599384 0,-1.1032784 -0.9050311,-1.9976678 -2.0214463,-1.9976678 z"
     id="path10" />
</svg>
