<?xml version="1.0" encoding="UTF-8" standalone="no"?>
<svg
   width="64"
   height="64"
   version="1.1"
   viewBox="0 0 16.933 16.933"
   id="svg7"
   sodipodi:docname="Education.svg"
   inkscape:version="1.4 (e7c3feb100, 2024-10-09)"
   xmlns:inkscape="http://www.inkscape.org/namespaces/inkscape"
   xmlns:sodipodi="http://sodipodi.sourceforge.net/DTD/sodipodi-0.dtd"
   xmlns:xlink="http://www.w3.org/1999/xlink"
   xmlns="http://www.w3.org/2000/svg"
   xmlns:svg="http://www.w3.org/2000/svg"
   xmlns:rdf="http://www.w3.org/1999/02/22-rdf-syntax-ns#"
   xmlns:cc="http://creativecommons.org/ns#"
   xmlns:dc="http://purl.org/dc/elements/1.1/">
  <sodipodi:namedview
     id="namedview7"
     pagecolor="#9c4444"
     bordercolor="#000000"
     borderopacity="0.25"
     inkscape:showpageshadow="2"
     inkscape:pageopacity="0.0"
     inkscape:pagecheckerboard="0"
     inkscape:deskcolor="#d1d1d1"
     inkscape:zoom="4.3531261"
     inkscape:cx="36.755195"
     inkscape:cy="25.958357"
     inkscape:window-width="1280"
     inkscape:window-height="669"
     inkscape:window-x="165"
     inkscape:window-y="129"
     inkscape:window-maximized="0"
     inkscape:current-layer="svg7"
     showgrid="false" />
  <defs
     id="defs2">
    <linearGradient
       id="linearGradient1"
       inkscape:collect="always">
      <stop
         style="stop-color:#d8dee9;stop-opacity:1;"
         offset="0"
         id="stop1" />
      <stop
         style="stop-color:#eceff4;stop-opacity:1;"
         offset="1"
         id="stop2" />
    </linearGradient>
    <linearGradient
       inkscape:collect="always"
       id="linearGradient1134">
      <stop
         style="stop-color:#2e3440;stop-opacity:1;"
         offset="0"
         id="stop1130" />
      <stop
         style="stop-color:#4c566a;stop-opacity:1;"
         offset="1"
         id="stop1132" />
    </linearGradient>
    <filter
       style="color-interpolation-filters:sRGB;"
       inkscape:label="Blur"
       id="filter3"
       x="-0.10843471"
       y="-0.10870992"
       width="1.2168694"
       height="1.2174198">
      <feGaussianBlur
         stdDeviation="0.5 0.5"
         result="blur"
         id="feGaussianBlur3" />
    </filter>
    <linearGradient
       inkscape:collect="always"
       xlink:href="#linearGradient1134"
       id="linearGradient4"
       x1="14.388208"
       y1="14.440324"
       x2="2.2869277"
       y2="2.3637428"
       gradientUnits="userSpaceOnUse" />
    <linearGradient
       inkscape:collect="always"
       xlink:href="#linearGradient1"
       id="linearGradient19"
       x1="12.082382"
       y1="10.751161"
       x2="4.1486273"
       y2="6.1927443"
       gradientUnits="userSpaceOnUse" />
  </defs>
  <metadata
     id="metadata2">
    <rdf:RDF>
      <cc:Work
         rdf:about="">
        <dc:format>image/svg+xml</dc:format>
        <dc:type
           rdf:resource="http://purl.org/dc/dcmitype/StillImage" />
      </cc:Work>
    </rdf:RDF>
  </metadata>
  <ellipse
     style="opacity:1;fill:none;stroke:#000000;stroke-width:0.582072;stroke-dasharray:none;stroke-opacity:1;filter:url(#filter3)"
     id="path1-5"
     cx="8.4450111"
     cy="8.423522"
     rx="6.8752708"
     ry="6.8578653" />
  <ellipse
     style="opacity:1;fill:#2b323e;stroke-width:0.58207188;stroke-opacity:1;stroke:#ace3ff;stroke-dasharray:none;fill-opacity:1"
     id="path1"
     cx="8.4450111"
     cy="8.423522"
     rx="6.8752708"
     ry="6.8578653" />
  <ellipse
     style="fill:url(#linearGradient4);stroke:none;stroke-width:0.515624;stroke-dasharray:none;stroke-opacity:1"
     id="path1-2"
     cx="8.4450111"
     cy="8.423522"
     rx="6.0904069"
     ry="6.0749874" />
  <path
     style="fill:#000000;stroke-width:0.00899392;opacity:0.3"
     d="M 8.0108574,11.589802 C 7.2190281,11.532821 6.4850388,11.307911 6.0583995,10.991532 5.9527919,10.913218 5.8762772,10.831043 5.8408836,10.75793 5.8168666,10.70832 5.8163396,10.68914 5.8163396,9.8643013 c 0,-0.6693201 0.0031,-0.8417778 0.014989,-0.8373498 0.00824,0.00306 0.50336,0.1680417 1.1002569,0.3666097 0.7087854,0.2357903 1.1222126,0.3674217 1.1917675,0.3794479 0.1360781,0.023528 0.33446,0.023528 0.4705387,0 0.069554,-0.012024 0.4829818,-0.1436576 1.191767,-0.3794479 0.5968953,-0.198568 1.0920113,-0.3635428 1.1002553,-0.3666097 0.0119,-0.00443 0.01498,0.1680298 0.01498,0.8373498 0,0.9709677 0.01025,0.8869267 -0.124932,1.0246437 -0.312621,0.318495 -1.0829467,0.596621 -1.8914964,0.682927 -0.2139392,0.02283 -0.6741895,0.03227 -0.8736137,0.01794 z M 11.80647,11.066501 c -0.232344,-0.155867 -0.357249,-0.366292 -0.336707,-0.567242 0.01144,-0.111927 0.08094,-0.310649 0.17305,-0.49483 l 0.07954,-0.159042 0.006,-0.5505755 0.006,-0.5505746 0.155541,-0.052018 c 0.08554,-0.02861 0.159749,-0.052018 0.16489,-0.052018 0.0052,0 0.0094,0.269084 0.0094,0.5979647 v 0.5979645 l 0.08323,0.1725159 c 0.04578,0.09488 0.10088,0.22378 0.12244,0.286438 0.03479,0.101115 0.03925,0.128776 0.03967,0.246044 4.15e-4,0.125135 -0.0016,0.136285 -0.03828,0.210881 -0.04632,0.09415 -0.158297,0.219886 -0.259513,0.291414 -0.121981,0.0862 -0.112682,0.08515 -0.205218,0.02308 z M 8.2566914,9.4479094 C 8.0885222,9.4303565 7.8911379,9.368701 6.1820921,8.7998872 5.1795689,8.4662221 4.3350391,8.1809725 4.3053592,8.1659996 4.1376329,8.081386 4.1399721,7.961892 4.3109914,7.8784482 4.3441699,7.8622617 5.1994731,7.6007667 6.2116654,7.2973541 8.0714755,6.7398609 8.1823459,6.7095032 8.3586237,6.7095032 c 0.1768556,0 0.2868752,0.030122 2.1474613,0.5879451 1.011916,0.3033828 1.866992,0.5648412 1.900172,0.5810194 0.171015,0.083386 0.173355,0.2029189 0.0056,0.2875319 -0.08891,0.044866 -3.6913437,1.2389726 -3.7954127,1.2580825 -0.1068038,0.019612 -0.2862673,0.031497 -0.3597572,0.023828 z"
     id="path1-53-2" />
  <path
     style="fill:url(#linearGradient19);stroke-width:0.00899392"
     d="M 8.0108574,11.060646 C 7.2190281,11.003665 6.4850388,10.778755 6.0583995,10.462376 5.9527919,10.384062 5.8762772,10.301887 5.8408836,10.228774 c -0.024017,-0.04961 -0.024544,-0.06879 -0.024544,-0.8936289 0,-0.6693201 0.0031,-0.8417778 0.014989,-0.8373498 0.00824,0.00306 0.50336,0.1680417 1.1002569,0.3666097 0.7087854,0.2357903 1.1222126,0.3674217 1.1917675,0.3794479 0.1360781,0.023528 0.33446,0.023528 0.4705387,0 C 8.6634457,9.2318289 9.0768735,9.1001953 9.7856587,8.864405 10.382554,8.665837 10.87767,8.5008622 10.885914,8.4977953 c 0.0119,-0.00443 0.01498,0.1680298 0.01498,0.8373498 0,0.9709679 0.01025,0.8869269 -0.124932,1.0246439 -0.312621,0.318495 -1.0829467,0.596621 -1.8914964,0.682927 -0.2139392,0.02283 -0.6741895,0.03227 -0.8736137,0.01794 z M 11.80647,10.537345 c -0.232344,-0.155867 -0.357249,-0.366292 -0.336707,-0.5672422 0.01144,-0.1119275 0.08094,-0.3106491 0.17305,-0.4948303 l 0.07954,-0.1590417 0.006,-0.5505755 0.006,-0.5505746 0.155541,-0.052018 c 0.08554,-0.02861 0.159749,-0.052018 0.16489,-0.052018 0.0052,0 0.0094,0.269084 0.0094,0.5979647 v 0.5979645 l 0.08323,0.1725154 c 0.04578,0.094883 0.10088,0.2237809 0.12244,0.286438 0.03479,0.1011156 0.03925,0.1287762 0.03967,0.2460447 4.15e-4,0.125135 -0.0016,0.136285 -0.03828,0.210881 -0.04632,0.09415 -0.158297,0.219886 -0.259513,0.291414 -0.121981,0.0862 -0.112682,0.08515 -0.205218,0.02308 z M 8.2566914,8.9187532 C 8.0885222,8.9012003 7.8911379,8.8395448 6.1820921,8.270731 5.1795689,7.9370659 4.3350391,7.6518163 4.3053592,7.6368434 4.1376329,7.5522298 4.1399721,7.4327358 4.3109914,7.349292 4.3441699,7.3331055 5.1994731,7.0716105 6.2116654,6.7681979 8.0714755,6.2107047 8.1823459,6.180347 8.3586237,6.180347 c 0.1768556,0 0.2868752,0.030122 2.1474613,0.5879451 1.011916,0.3033828 1.866992,0.5648412 1.900172,0.5810194 0.171015,0.083386 0.173355,0.2029189 0.0056,0.2875319 -0.08891,0.044866 -3.6913437,1.2389726 -3.7954127,1.2580825 -0.1068038,0.019612 -0.2862673,0.031497 -0.3597572,0.023828 z"
     id="path1-53" />
</svg>
