<svg xmlns="http://www.w3.org/2000/svg" width="16" height="16" version="1.1"><defs><linearGradient id="linear0" x1="0%" x2="100%" y1="0%" y2="100%"><stop offset="0%" style="stop-color:#e5ff00; stop-opacity:1"/><stop offset="50%" style="stop-color:#0073ff; stop-opacity:1"/><stop offset="100%" style="stop-color:#ff0000; stop-opacity:1"/></linearGradient></defs>
 <path fill="url(#linear0)"  d="M 8 0 C 5.28 0 3.004 2.276 3.004 4.996 C 3.004 6.715 3.351 7.741 3.429 7.994 L 4.003 7.994 C 5.211 7.994 6.27 8.788 6.948 10.144 C 7.529 11.307 7.989 15.997 7.973 15.996 C 8.027 16.005 8.12 15.997 8.138 15.996 Q 8.451 11.347 9.052 10.144 C 9.73 8.788 10.789 7.994 11.997 7.994 L 12.571 7.994 C 12.649 7.741 12.996 6.715 12.996 4.996 C 12.996 2.276 10.72 0 8 0 Z"/>
</svg>
