<svg xmlns="http://www.w3.org/2000/svg" width="16" height="16" version="1.1"><defs><linearGradient id="linear0" x1="0%" x2="0%" y1="0%" y2="100%"><stop offset="0%" style="stop-color:#00b54e; stop-opacity:1"/><stop offset="50%" style="stop-color:#0073ff; stop-opacity:1"/><stop offset="100%" style="stop-color:#ffd000; stop-opacity:1"/></linearGradient></defs>
 <path fill="url(#linear0)"  d="M 6.923 1 L 1 10.423 L 1 12.846 L 6.923 12.846 L 6.923 15 L 9.615 15 L 9.615 10.154 L 10.692 10.154 C 13.385 10.154 15 8 15 5.577 C 15 3.154 13.385 1 10.692 1 L 6.923 1 L 6.923 1 Z M 9.615 3.692 L 10.423 3.692 C 11.769 3.692 12.308 4.769 12.308 5.577 C 12.308 6.385 11.769 7.462 10.423 7.462 L 9.615 7.462 M 6.923 5.794 L 6.923 10.154 L 4.231 10.154"/>
</svg>
