<svg xmlns="http://www.w3.org/2000/svg" width="16" height="16" version="1.1"><defs><linearGradient id="linear0" x1="0%" x2="0%" y1="0%" y2="100%"><stop offset="0%" style="stop-color:#00b54e; stop-opacity:1"/><stop offset="50%" style="stop-color:#0073ff; stop-opacity:1"/><stop offset="100%" style="stop-color:#ffd000; stop-opacity:1"/></linearGradient></defs>
 <path fill="url(#linear0)"  fill-rule="evenodd" d="M 2 2 L 2 3 L 1 3 L 1 8 L 8 8 L 15 8 L 15 3 L 14 3 L 14 2 L 8 2 L 2 2 Z M 3.5 13 L 3.5 14 L 8 14 L 12.5 14 L 12.5 13 L 8 13 L 3.5 13 Z M 2 8 L 3 8 L 3 12.5 L 2 12.5 L 2 8 Z M 4 8 L 6 8 L 6 10 L 4 10 L 4 8 Z M 6.5 11 L 6.5 12 L 8.5 12 L 8.5 11 L 6.5 11 Z M 13 8 L 14 8 L 14 12.5 L 13 12.5 L 13 8 Z M 10 8 L 12 8 L 12 10 L 10 10 L 10 8 Z"/>
</svg>
