<svg xmlns="http://www.w3.org/2000/svg" width="16" height="16" version="1.1"><defs><linearGradient id="linear0" x1="0%" x2="100%" y1="0%" y2="100%"><stop offset="0%" style="stop-color:#ff0000; stop-opacity:1"/><stop offset="50%" style="stop-color:#ffd000; stop-opacity:1"/><stop offset="100%" style="stop-color:#ff00bb; stop-opacity:1"/></linearGradient></defs>
 <path fill="url(#linear0)"  fill-rule="evenodd" d="M 6.887 4.875 L 1.031 4.875 L 1.031 4.875 L 1.031 14.531 L 15.031 14.531 L 15.031 4.875 L 8.765 4.875 L 11.88 1.89 L 12.24 1.55 L 11.55 0.82 L 11.19 1.17 L 7.82 4.39 L 5.54 2.09 L 5.19 1.73 L 4.48 2.43 L 4.83 2.79 L 6.887 4.875 Z M 2.03 5.87 L 2.03 13.53 L 14.03 13.53 L 14.03 5.87 L 2.03 5.87 L 2.03 5.87 Z"/>
 <rect fill="url(#linear0)"  width="4.625" height="3.594" x="17.63" y="-.28" transform="matrix(1,0,0,1,0,0)"/>
</svg>
