<svg xmlns="http://www.w3.org/2000/svg" width="16" height="16" version="1.1"><defs><linearGradient id="linear0" x1="0%" x2="100%" y1="0%" y2="100%"><stop offset="0%" style="stop-color:#e5ff00; stop-opacity:1"/><stop offset="50%" style="stop-color:#0073ff; stop-opacity:1"/><stop offset="100%" style="stop-color:#ff0000; stop-opacity:1"/></linearGradient></defs>
 <rect fill="url(#linear0)"  width="4.625" height="3.594" x="17.63" y="-.28" transform="matrix(1,0,0,1,0,0)"/>
 <path fill="url(#linear0)"  fill-rule="evenodd" d="M 8.824 1.961 C 10.264 1.961 11.431 3.128 11.431 4.569 C 11.43 5.559 10.868 6.463 9.98 6.902 L 10.608 6.902 C 10.912 6.902 11.157 7.147 11.157 7.451 L 11.157 8.275 L 15 6.902 L 15 14.039 L 11.157 12.667 L 11.157 13.49 C 11.157 13.794 10.912 14.039 10.608 14.039 L 1.824 14.039 C 1.519 14.039 1.275 13.794 1.275 13.49 L 1.275 7.451 C 1.275 7.147 1.519 6.902 1.824 6.902 L 2.447 6.902 C 1.561 6.462 1.001 5.558 1 4.569 C 1 3.128 2.168 1.961 3.608 1.961 C 5.048 1.961 6.216 3.128 6.216 4.569 C 6.214 5.559 5.652 6.463 4.765 6.902 L 7.662 6.902 C 6.776 6.461 6.216 5.558 6.216 4.569 C 6.216 3.128 7.383 1.961 8.824 1.961 Z"/>
</svg>
