<svg xmlns="http://www.w3.org/2000/svg" width="16" height="16" version="1.1"><defs><linearGradient id="linear0" x1="0%" x2="0%" y1="0%" y2="100%"><stop offset="0%" style="stop-color:#00b54e; stop-opacity:1"/><stop offset="50%" style="stop-color:#0073ff; stop-opacity:1"/><stop offset="100%" style="stop-color:#ffd000; stop-opacity:1"/></linearGradient></defs>
 <path fill="url(#linear0)"  fill-rule="evenodd" d="M 0 0.889 L 4.197 0.889 L 4.197 5.085 L 0 5.085 L 0 0.889 L 0 0.889 L 0 0.889 L 0 0.889 Z M 5.928 0.915 L 10.125 0.915 L 10.125 5.111 L 5.928 5.111 L 5.928 0.915 L 5.928 0.915 L 5.928 0.915 L 5.928 0.915 Z M 11.803 0.915 L 16 0.915 L 16 5.111 L 11.803 5.111 L 11.803 0.915 L 11.803 0.915 L 11.803 0.915 Z M 0 5.889 L 4.197 5.889 L 4.197 10.085 L 0 10.085 L 0 5.889 L 0 5.889 L 0 5.889 L 0 5.889 Z M 5.928 5.915 L 10.125 5.915 L 10.125 10.111 L 5.928 10.111 L 5.928 5.915 L 5.928 5.915 L 5.928 5.915 L 5.928 5.915 Z M 11.803 5.915 L 16 5.915 L 16 10.111 L 11.803 10.111 L 11.803 5.915 L 11.803 5.915 L 11.803 5.915 Z M 0 10.889 L 4.197 10.889 L 4.197 15.085 L 0 15.085 L 0 10.889 L 0 10.889 L 0 10.889 Z M 5.928 10.915 L 10.125 10.915 L 10.125 15.111 L 5.928 15.111 L 5.928 10.915 L 5.928 10.915 L 5.928 10.915 Z M 11.803 10.915 L 16 10.915 L 16 15.111 L 11.803 15.111 L 11.803 10.915 L 11.803 10.915 Z"/>
</svg>
