<svg xmlns="http://www.w3.org/2000/svg" width="16" height="16" version="1.1"><defs><linearGradient id="linear0" x1="0%" x2="100%" y1="0%" y2="100%"><stop offset="0%" style="stop-color:#e5ff00; stop-opacity:1"/><stop offset="50%" style="stop-color:#0073ff; stop-opacity:1"/><stop offset="100%" style="stop-color:#ff0000; stop-opacity:1"/></linearGradient></defs>
 <path fill="url(#linear0)"  d="M2.5 2.035c-.822 0-1.5.678-1.5 1.5v9c0 .823.678 1.5 1.5 1.5h11c.822 0 1.5-.677 1.5-1.5v-9c0-.822-.678-1.5-1.5-1.5zm0 1H6V8l1-1 1 1 1-.75L10 8V3.035h3.5c.286 0 .5.215.5.5v9c0 .286-.214.5-.5.5h-11a.488.488 0 0 1-.5-.5v-9c0-.285.214-.5.5-.5zm4.5 0h2V6l-.906.68L7 5.586z"/>
</svg>
