<svg xmlns="http://www.w3.org/2000/svg" width="16" height="16" version="1.1"><defs><linearGradient id="linear0" x1="0%" x2="100%" y1="0%" y2="100%"><stop offset="0%" style="stop-color:#e5ff00; stop-opacity:1"/><stop offset="50%" style="stop-color:#0073ff; stop-opacity:1"/><stop offset="100%" style="stop-color:#ff0000; stop-opacity:1"/></linearGradient></defs>
 <rect fill="url(#linear0)"  width="4.625" height="3.594" x="17.19" y=".06" transform="matrix(1,0,0,1,0,0)"/>
 <path fill="url(#linear0)"  fill-rule="evenodd" d="M 7.3 5.2 L 7.3 10.209 L 5.025 7.957 L 4.041 8.941 L 8 12.9 L 11.959 8.941 L 10.975 7.957 L 8.7 10.209 L 8.7 5.2 L 7.3 5.2 Z M 7.3 3.1 L 8.7 3.1 L 8.7 4.5 L 7.3 4.5 L 7.3 3.1 Z M 7.3 1 L 8.7 1 L 8.7 2.4 L 7.3 2.4 L 7.3 1 Z M 1 9.4 L 1 13.6 C 1 14.365 1.635 15 2.4 15 L 13.6 15 C 14.365 15 15 14.365 15 13.6 L 15 9.4 L 13.6 9.4 L 13.6 13.6 L 2.4 13.6 L 2.4 9.4 L 1 9.4 Z"/>
</svg>
