<svg xmlns="http://www.w3.org/2000/svg" width="16" height="16" version="1.1"><defs><linearGradient id="linear0" x1="0%" x2="0%" y1="0%" y2="100%"><stop offset="0%" style="stop-color:#ffd000; stop-opacity:1"/><stop offset="50%" style="stop-color:#24dbdb; stop-opacity:1"/><stop offset="100%" style="stop-color:#0073ff; stop-opacity:1"/></linearGradient></defs>
 <rect fill="url(#linear0)"  width="4.625" height="3.594" x="17.19" y=".06" transform="matrix(1,0,0,1,0,0)"/>
 <path fill="url(#linear0)"  fill-opacity=".7" d="M 5.201 15 L 8.468 12.201 L 4.938 8.719 L 1.813 11.469"/>
 <path fill="url(#linear0)"  fill-opacity=".7" d="M 11.5 6.906 L 14.468 4.201 L 10.813 0.938 L 7.813 3.469"/>
 <path fill="url(#linear0)"  d="M 1.002 8.001 L 6.135 8.001 L 4.735 6.601 L 10.801 1.002 L 5.201 1.002 L 2.402 4.268 L 1.002 2.869"/>
 <path fill="url(#linear0)"  d="M 5.201 15 L 11.267 9.401 L 9.867 8.001 L 15 8.001 L 15 13.134 L 13.6 11.734 L 10.334 15"/>
</svg>
