<svg xmlns="http://www.w3.org/2000/svg" width="16" height="16" version="1.1"><defs><linearGradient id="linear0" x1="0%" x2="0%" y1="0%" y2="100%"><stop offset="0%" style="stop-color:#ffd000; stop-opacity:1"/><stop offset="50%" style="stop-color:#24dbdb; stop-opacity:1"/><stop offset="100%" style="stop-color:#0073ff; stop-opacity:1"/></linearGradient></defs>
 <path fill="url(#linear0)"  d="M8 2A6 6.00001 0 0 0 2.085938 7H3.102A5 5 0 0 1 8 3 5 5 0 0 1 12.572266 6H9V7H14V2H13V4.699A6 6.00001 0 0 0 8 2M2 9V14H3V11.301A6 6.00001 0 0 0 8 14 6 6.00001 0 0 0 13.914062 9H12.898A5 5 0 0 1 8 13 5 5 0 0 1 3.427734 10H7V9H2.09z"/>
</svg>
