<svg xmlns="http://www.w3.org/2000/svg" width="16" height="16" version="1.1"><defs><linearGradient id="linear0" x1="0%" x2="0%" y1="0%" y2="100%"><stop offset="0%" style="stop-color:#00b54e; stop-opacity:1"/><stop offset="50%" style="stop-color:#ffd000; stop-opacity:1"/><stop offset="100%" style="stop-color:#ff00bb; stop-opacity:1"/></linearGradient></defs>
 <path fill="url(#linear0)"  opacity="1.0" d="M 4 8 L 0 8 C 0 3.568 3.568 0 8 0 L 8 4 C 5.792 4 4 5.792 4 8 Z"/>
 <path fill="url(#linear0)"  opacity="0.6" d="m 12,8 h 4 C 16,3.568 12.432,0 8,0 v 4 c 0,0 0,0 0,0 2.208,0 4,1.792 4,4 z"/>
 <path fill="url(#linear0)"  opacity="0.6" d="M 4,8 H 0 c 0,4.432 3.568,8 8,8 V 12 C 5.792,12 4,10.208 4,8 4,8 4,8 4,8 Z"/>
 <path fill="url(#linear0)"  opacity="1.0" d="M 12 8 L 16 8 C 16 12.432 12.432 16 8 16 L 8 12 C 8 12 8 12 8 12 C 10.208 12 12 10.208 12 8 C 12 8 12 8 12 8 Z"/>
</svg>