<svg xmlns="http://www.w3.org/2000/svg" width="16" height="16" version="1.1"><defs><linearGradient id="linear0" x1="0%" x2="100%" y1="0%" y2="100%"><stop offset="0%" style="stop-color:#e5ff00; stop-opacity:1"/><stop offset="50%" style="stop-color:#0073ff; stop-opacity:1"/><stop offset="100%" style="stop-color:#ff0000; stop-opacity:1"/></linearGradient></defs>
 <path fill="url(#linear0)"  d="M 1.500001,16 1.754533,14.467981 8.664614,8.47395 4.384699,1.01491 4.554387,0 H 14.5 l -0.461928,2.82464 h -0.989849 c -1.1e-5,-0.14043 0.03456,-0.37663 0.103698,-0.70857 0.0754,-0.31278 0.113113,-0.54897 0.113126,-0.70857 -1.3e-5,-0.35744 -0.411663,-0.53617 -1.234954,-0.53617 H 6.892312 l 3.761422,6.68341 -7.937636,6.913241 h 7.343727 c 0.641035,0 1.071539,-0.130842 1.291516,-0.392579 0.22624,-0.280856 0.399071,-0.817076 0.518491,-1.608607 h 0.95214 L 12.256344,16 H 1.5"/>
</svg>
