<svg xmlns="http://www.w3.org/2000/svg" width="16" height="16" version="1.1"><defs><linearGradient id="linear0" x1="0%" x2="0%" y1="0%" y2="100%"><stop offset="0%" style="stop-color:#00b54e; stop-opacity:1"/><stop offset="50%" style="stop-color:#ffd000; stop-opacity:1"/><stop offset="100%" style="stop-color:#ff00bb; stop-opacity:1"/></linearGradient></defs>
 <path fill="url(#linear0)"  d="M 0.5 0.5 L 0.5 1 L 0.5 7 L 1.5 7 L 1.5 1.5 L 6.9824219 1.5 L 6.9824219 0.5 L 0.5 0.5 z M 8.9824219 0.5 L 8.9824219 1.5 L 14.5 1.5 L 14.5 7 L 15.5 7 L 15.5 0.5 L 8.9824219 0.5 z M 0.5 9 L 0.5 15.5 L 6.9824219 15.5 L 6.9824219 14.5 L 1.5 14.5 L 1.5 9 L 0.5 9 z M 14.5 9 L 14.5 14.5 L 8.9824219 14.5 L 8.9824219 15.5 L 15.5 15.5 L 15.5 9 L 14.5 9 z"/>
</svg>
