<svg xmlns="http://www.w3.org/2000/svg" width="16" height="16" version="1.1"><defs><linearGradient id="linear0" x1="0%" x2="0%" y1="0%" y2="100%"><stop offset="0%" style="stop-color:#ffd000; stop-opacity:1"/><stop offset="50%" style="stop-color:#24dbdb; stop-opacity:1"/><stop offset="100%" style="stop-color:#0073ff; stop-opacity:1"/></linearGradient></defs>
 <rect fill="url(#linear0)"  fill-opacity="0" width="16" height="16"/>
 <path fill="url(#linear0)"  fill-rule="evenodd" d="M 7.226 0.774 C 3.235 0.774 0 4.009 0 8 C 0 11.991 3.235 15.226 7.226 15.226 C 9.733 15.222 12.059 13.919 13.372 11.782 L 7.587 8.065 L 13.382 4.228 C 12.07 2.084 9.739 0.777 7.226 0.774 Z M 12.903 8 C 12.903 7.145 13.597 6.452 14.452 6.452 C 15.306 6.452 16 7.145 16 8 C 16 8.855 15.306 9.548 14.452 9.548 C 13.597 9.548 12.903 8.855 12.903 8 Z"/>
</svg>
