<svg xmlns="http://www.w3.org/2000/svg" width="16" height="16" version="1.1"><defs><linearGradient id="linear0" x1="0%" x2="0%" y1="0%" y2="100%"><stop offset="0%" style="stop-color:#00b54e; stop-opacity:1"/><stop offset="50%" style="stop-color:#ffd000; stop-opacity:1"/><stop offset="100%" style="stop-color:#ff00bb; stop-opacity:1"/></linearGradient></defs>
 <rect fill="url(#linear0)"  fill-opacity="0" width="16" height="16"/>
 <path fill="url(#linear0)"  fill-rule="evenodd" d="M 14.853 4.559 L 10.815 7.083 L 10.815 8.917 L 14.853 11.441 L 16 9.606 L 13.429 8 L 16 6.394 L 14.853 4.559 L 14.853 4.559 Z M 9.806 4.559 L 5.768 7.083 L 5.768 8.917 L 9.806 11.441 L 10.953 9.606 L 8.382 8 L 10.953 6.394 L 9.806 4.559 L 9.806 4.559 Z M 0 5.26 L 5.047 5.26 L 5.047 7.423 L 0 7.423 L 0 5.26 L 0 5.26 Z M 0 8.504 L 5.047 8.504 L 5.047 10.668 L 0 10.668 L 0 8.504 L 0 8.504 Z"/>
</svg>
