<svg xmlns="http://www.w3.org/2000/svg" width="16" height="16" version="1.1"><defs><linearGradient id="linear0" x1="0%" x2="0%" y1="0%" y2="100%"><stop offset="0%" style="stop-color:#00b54e; stop-opacity:1"/><stop offset="50%" style="stop-color:#0073ff; stop-opacity:1"/><stop offset="100%" style="stop-color:#ffd000; stop-opacity:1"/></linearGradient></defs>
 <path fill="url(#linear0)"  d="M 0,0 V 1 16 H 16 V 0 Z M 2,2 H 14 V 14 H 2 Z"/>
 <path fill="url(#linear0)"  opacity=".75" d="M 0,0 V 0.49999997 7.9999996 H 7.9999996 V 0 Z M 0.99999995,0.99999995 V 6.9999996 H 6.9999996 0.99999995 Z"/>
 <path fill="url(#linear0)"  opacity=".4" d="M 7.9999996,0 V 0.49999997 7.9999996 H 15.999999 V 0 Z m 1,0.99999995 V 6.9999996 H 14.999999 8.9999996 Z"/>
 <path fill="url(#linear0)"  opacity=".4" d="m 0,7.9999996 v 0.5 7.4999994 H 7.9999996 V 7.9999996 Z m 0.99999995,1 V 14.999999 H 6.9999996 0.99999995 Z"/>
 <path fill="url(#linear0)"  opacity=".75" d="m 7.9999996,7.9999996 v 0.5 7.4999994 H 15.999999 V 7.9999996 Z m 1,1 V 14.999999 H 14.999999 8.9999996 Z"/>
</svg>
