<svg xmlns="http://www.w3.org/2000/svg" width="16" height="16" version="1.1"><defs><linearGradient id="linear0" x1="0%" x2="0%" y1="0%" y2="100%"><stop offset="0%" style="stop-color:#00b54e; stop-opacity:1"/><stop offset="50%" style="stop-color:#ffd000; stop-opacity:1"/><stop offset="100%" style="stop-color:#ff00bb; stop-opacity:1"/></linearGradient></defs>
 <path fill="url(#linear0)"  fill-rule="evenodd" d="M 0.001 3.048 L 0.001 5.333 L 8.163 5.333 C 8.766 5.333 9.142 5.657 9.142 6.165 L 9.142 9.834 C 9.142 10.343 8.766 10.658 8.163 10.666 L 2.296 10.666 L 2.296 6.289 L 0 6.289 L 0 12.952 L 9.795 12.952 C 10.7 12.952 11.428 12.216 11.428 11.301 L 11.428 4.698 C 11.428 3.784 10.7 3.048 9.795 3.048 L 2.275 3.048 L 0.001 3.048 Z M 13.714 3.048 L 13.714 5.333 L 16 5.333 L 16 3.048 L 15.978 3.048 L 13.714 3.048 L 13.714 3.048 Z M 13.714 6.095 L 13.714 12.952 L 16 12.952 L 16 6.095 L 13.714 6.095 L 13.714 6.095 Z"/>
</svg>
