<svg xmlns="http://www.w3.org/2000/svg" width="16" height="16" version="1.1"><defs><linearGradient id="linear0" x1="0%" x2="100%" y1="0%" y2="100%"><stop offset="0%" style="stop-color:#e5ff00; stop-opacity:1"/><stop offset="50%" style="stop-color:#0073ff; stop-opacity:1"/><stop offset="100%" style="stop-color:#ff0000; stop-opacity:1"/></linearGradient></defs>
 <path fill="url(#linear0)"  d="M 8 0 C 8 0 7.2 0 7.2 0.8 C 7.2 1.6 6.4 1.6 6.4 1.6 C 6.4 1.6 5.6 1.601 5.6 0.8 L 5.6 12 L 10.4 12 L 10.4 0.8 C 10.4 1.6 9.6 1.6 9.6 1.6 C 9.6 1.6 8.8 1.6 8.8 0.8 C 8.8 0 8 0 8 0 Z"/>
 <path fill="url(#linear0)"  d="M 2.4 9.6 L 8 16 L 13.6 9.6 L 10.4 9.601 L 10.4 7.2 C 10.4 8 9.6 8 9.6 8 C 9.6 8 8.8 8 8.8 7.2 C 8.8 6.4 8 6.4 8 6.4 C 8 6.4 7.2 6.4 7.2 7.2 C 7.2 8 6.4 8 6.4 8 C 6.4 8 5.6 8 5.6 7.199 L 5.6 9.6 L 2.4 9.6 Z"/>
</svg>
