<svg xmlns="http://www.w3.org/2000/svg" width="16" height="16" version="1.1"><defs><linearGradient id="linear0" x1="0%" x2="0%" y1="0%" y2="100%"><stop offset="0%" style="stop-color:#00b54e; stop-opacity:1"/><stop offset="50%" style="stop-color:#ffd000; stop-opacity:1"/><stop offset="100%" style="stop-color:#ff00bb; stop-opacity:1"/></linearGradient></defs>
 <path fill="url(#linear0)"  d="M 0 1.455 L 0 14.545 L 0.727 14.545 L 0.727 1.455 L 0 1.455 Z M 15.273 1.455 L 15.273 14.545 L 16 14.545 L 16 1.455 L 15.273 1.455 Z M 1.455 2.909 L 1.455 13.091 L 2.182 13.091 L 2.182 2.909 L 1.455 2.909 Z M 2.909 2.909 L 2.909 13.091 L 13.091 13.091 L 13.091 2.909 L 2.909 2.909 Z M 13.818 2.909 L 13.818 13.091 L 14.545 13.091 L 14.545 2.909 L 13.818 2.909 Z M 3.636 3.636 L 12.364 3.636 L 12.364 12.364 L 3.636 12.364 L 3.636 3.636 Z"/>
</svg>
