<svg xmlns="http://www.w3.org/2000/svg" width="16" height="16" version="1.1"><defs><linearGradient id="linear0" x1="0%" x2="0%" y1="0%" y2="100%"><stop offset="0%" style="stop-color:#00b54e; stop-opacity:1"/><stop offset="50%" style="stop-color:#ffd000; stop-opacity:1"/><stop offset="100%" style="stop-color:#ff00bb; stop-opacity:1"/></linearGradient></defs>
 <path fill="url(#linear0)"  d="M 0,1.15e-5 V 16 l 1.06667,-1.1e-5 v -1.230773 l 1.06666,1.3e-5 V 14.769632 16 H 3.2 h 9.6 1.06667 v -1.230379 -4.05e-4 h 1.06666 v 1.230773 H 16 V 0 H 14.93333 V 1.2307719 H 13.86667 V 1.2303565 0 H 3.2 2.13333 v 1.2303565 4.269e-4 L 1.06667,1.2307719 V 0 Z m 3.2,1.2307604 h 9.6 V 7.3846082 H 3.2 Z m -2.13333,1.2307603 1.06666,1.16e-5 v 1.2307719 l -1.06666,-1.16e-5 z m 12.8,1.16e-5 h 1.06666 v 1.2307719 h -1.06666 z m -12.8,2.4615322 1.06666,1.15e-5 v 1.2307604 l -1.06666,-1.16e-5 z m 12.8,1.15e-5 h 1.06666 v 1.2307604 h -1.06666 z m -12.8,2.4615207 1.06666,1.16e-5 v 0.2051306 0.8201069 0.2055345 l -1.06666,-1.16e-5 z m 12.8,1.16e-5 h 1.06666 v 1.230772 H 13.86667 Z M 3.2,8.6153802 h 9.6 V 14.769216 H 3.2 Z m -2.13333,1.2307608 1.06666,1.1e-5 v 1.230771 l -1.06666,-1.1e-5 z m 12.8,1.1e-5 h 1.06666 v 1.230771 h -1.06666 z m -12.8,2.461533 1.06666,1.1e-5 v 1.23076 l -1.06666,-1.1e-5 z m 12.8,1.1e-5 h 1.06666 v 1.23076 h -1.06666 z"/>
</svg>
