<svg xmlns="http://www.w3.org/2000/svg" width="16" height="16" version="1.1"><defs><linearGradient id="linear0" x1="0%" x2="0%" y1="0%" y2="100%"><stop offset="0%" style="stop-color:#00b54e; stop-opacity:1"/><stop offset="50%" style="stop-color:#0073ff; stop-opacity:1"/><stop offset="100%" style="stop-color:#ffd000; stop-opacity:1"/></linearGradient></defs>
 <path fill="url(#linear0)"  d="M 11.52,3.52 A 4.48,4.48 0 0 0 7.0399999,8 4.48,4.48 0 0 0 11.52,12.48 4.48,4.48 0 0 0 16,8 4.48,4.48 0 0 0 11.52,3.52 Z M 3.1999996,4.8 A 3.2,3.2 0 0 0 -1.65e-7,8 3.2,3.2 0 0 0 3.1999996,11.2 3.2,3.2 0 0 0 6.3999999,8 3.2,3.2 0 0 0 3.1999996,4.8 Z M 11.52,4.8 A 3.2,3.2 0 0 1 14.72,8 3.2,3.2 0 0 1 11.52,11.2 3.2,3.2 0 0 1 8.3199999,8 3.2,3.2 0 0 1 11.52,4.8 Z M 3.1999996,6.08 A 1.92,1.92 0 0 1 5.1200004,8 1.92,1.92 0 0 1 3.1999996,9.92 1.92,1.92 0 0 1 1.2799999,8 1.92,1.92 0 0 1 3.1999996,6.08 Z"/>
</svg>
