<svg xmlns="http://www.w3.org/2000/svg" width="16" height="16" version="1.1"><defs><linearGradient id="linear0" x1="0%" x2="0%" y1="0%" y2="100%"><stop offset="0%" style="stop-color:#00b54e; stop-opacity:1"/><stop offset="50%" style="stop-color:#ffd000; stop-opacity:1"/><stop offset="100%" style="stop-color:#ff00bb; stop-opacity:1"/></linearGradient></defs>
 <path fill="url(#linear0)"  d="M 9.6522234,-2.3841917e-5 A 0.50881142,0.50881142 0 0 0 9.5245333,0.03227616 L 0.7138618,2.8940462 a 0.50881142,0.50881142 0 0 0 -0.34551766,0.48072 v 9.2538198 a 0.50881142,0.50881142 0 0 0 0.34551766,0.48821 l 8.8106715,2.86032 a 0.50881142,0.50881142 0 0 0 0.5633417,-0.18787 l 5.445641,-7.4886898 a 0.50881142,0.50881142 0 0 0 0,-0.6009 L 10.087875,0.21099616 A 0.50881142,0.50881142 0 0 0 9.6522238,5.5615808e-4 Z M 9.4869757,1.1116262 14.489454,7.9994262 9.4794642,14.894726 1.3823596,12.258276 V 3.7405362 Z"/>
</svg>
