<svg xmlns="http://www.w3.org/2000/svg" width="16" height="16" version="1.1"><defs><linearGradient id="linear0" x1="0%" x2="0%" y1="0%" y2="100%"><stop offset="0%" style="stop-color:#ffd000; stop-opacity:1"/><stop offset="50%" style="stop-color:#24dbdb; stop-opacity:1"/><stop offset="100%" style="stop-color:#0073ff; stop-opacity:1"/></linearGradient></defs>
 <path fill="url(#linear0)"  d="M 8 0 C 6.6001337 2.9605947e-16 5.4648438 1.1352899 5.4648438 2.5351562 C 5.4648438 3.9350225 8 6.3085938 8 6.3085938 C 8 6.3085938 10.535156 3.9350226 10.535156 2.5351562 C 10.535156 1.1352899 9.3998663 0 8 0 z M 2.5351562 5.4648438 C 1.1352899 5.4648438 0 6.6001337 0 8 C 0 9.3998663 1.1352899 10.535156 2.5351562 10.535156 C 3.9350226 10.535156 6.3085938 8 6.3085938 8 C 6.3085938 8 3.9350226 5.4648438 2.5351562 5.4648438 z M 13.464844 5.4648438 C 12.064977 5.4648438 9.6914062 8 9.6914062 8 C 9.6914062 8 12.064977 10.535156 13.464844 10.535156 C 14.86471 10.535156 16 9.3998663 16 8 C 16 6.6001337 14.86471 5.4648438 13.464844 5.4648438 z M 8 9.6914062 C 8 9.6914062 5.4648438 12.064977 5.4648438 13.464844 C 5.4648438 14.86471 6.6001337 16 8 16 C 9.3998663 16 10.535156 14.86471 10.535156 13.464844 C 10.535156 12.064977 8 9.6914062 8 9.6914062 z"/>
</svg>
