<svg xmlns="http://www.w3.org/2000/svg" width="16" height="16" version="1.1"><defs><linearGradient id="linear0" x1="0%" x2="100%" y1="0%" y2="100%"><stop offset="0%" style="stop-color:#ff0000; stop-opacity:1"/><stop offset="50%" style="stop-color:#ffd000; stop-opacity:1"/><stop offset="100%" style="stop-color:#ff00bb; stop-opacity:1"/></linearGradient></defs>
 <path fill="url(#linear0)"  d="m 7.5294114,3.7659632 a 3.7647054,3.7639292 0 1 0 -7.5294096546668,0 3.7647054,3.7639292 0 1 0 7.5294096546668,0 z"/>
 <path fill="url(#linear0)"  d="m 15.999999,3.7659632 a 3.7647057,3.7639296 0 1 1 -7.5294101,0 3.7647057,3.7639296 0 1 1 7.5294101,0 z"/>
 <path fill="url(#linear0)"  d="m 15.999998,12.234803 a 3.7647054,3.7639292 0 1 1 -7.5294101,0 3.7647054,3.7639292 0 1 1 7.5294101,0 z"/>
 <path fill="url(#linear0)"  d="m 7.5294111,12.234803 a 3.7647054,3.7639293 0 1 1 -7.52941085866667,0 3.7647054,3.7639293 0 1 1 7.52941085866667,0 z"/>
</svg>
