<svg xmlns="http://www.w3.org/2000/svg" width="16" height="16" version="1.1"><defs><linearGradient id="linear0" x1="0%" x2="100%" y1="0%" y2="100%"><stop offset="0%" style="stop-color:#e5ff00; stop-opacity:1"/><stop offset="50%" style="stop-color:#0073ff; stop-opacity:1"/><stop offset="100%" style="stop-color:#ff0000; stop-opacity:1"/></linearGradient></defs>
 <path fill="url(#linear0)"  fill-rule="evenodd" d="m8.00101 0c-2.11737 0-8.933195 12.3571-7.89394 14.4439 1.03926 2.0868 14.76003 2.0628 15.78793 0s-5.777-14.4439-7.89399-14.4439zm5.07429 12.428c-0.6607 1.3267-9.48072 1.3415-10.14925 0-0.66852-1.3413 3.71369-9.28513 5.07462-9.28513 1.36104 0 5.73553 7.95833 5.07463 9.28513zm-7.8942-1.5552c-0.3714-0.7451 2.06301-5.15852 2.81935-5.15852 0.75622 3.3e-4 3.18625 4.42152 2.81925 5.15852-0.3671 0.737-5.26706 0.7451-5.6386 0z" clip-rule="evenodd"/>
</svg>
