<svg xmlns="http://www.w3.org/2000/svg" width="16" height="16" version="1.1"><defs><linearGradient id="linear0" x1="0%" x2="0%" y1="0%" y2="100%"><stop offset="0%" style="stop-color:#00b54e; stop-opacity:1"/><stop offset="50%" style="stop-color:#ffd000; stop-opacity:1"/><stop offset="100%" style="stop-color:#ff00bb; stop-opacity:1"/></linearGradient></defs>
 <path fill="url(#linear0)"  d="M 3.5,2 C 2.672,2 2,2.672 2,3.5 2,4.156 2.414,4.70225 3,4.90625 V 11 H 2 v 3 H 5 V 11 H 4 V 4.90625 C 4.432,4.75625 4.75625,4.432 4.90625,4 H 11 v 1 h 3 V 2 H 11 V 3 H 4.90625 C 4.70225,2.414 4.156,2 3.5,2 Z m 0,1 C 3.776,3 4,3.224 4,3.5 4,3.776 3.776,4 3.5,4 3.224,4 3,3.776 3,3.5 3,3.224 3.224,3 3.5,3 Z M 12,3 h 1 v 1 h -1 z m -9,9 h 1 v 1 H 3 Z"/>
</svg>
