<svg xmlns="http://www.w3.org/2000/svg" width="16" height="16" version="1.1"><defs><linearGradient id="linear0" x1="0%" x2="0%" y1="0%" y2="100%"><stop offset="0%" style="stop-color:#00b54e; stop-opacity:1"/><stop offset="50%" style="stop-color:#0073ff; stop-opacity:1"/><stop offset="100%" style="stop-color:#ffd000; stop-opacity:1"/></linearGradient></defs>
 <rect fill="url(#linear0)"  width="4.625" height="3.594" x="17.09" y="-.09" transform="matrix(1,0,0,1,0,0)"/>
 <path fill="url(#linear0)"  d="M 11.486 0 L 11.024 0.483 L 0.482 11.024 L 0 11.486 L 4.514 16 L 4.976 15.518 L 15.518 4.996 L 16 4.514 L 11.486 0 Z M 11.486 1.889 L 14.111 4.514 L 4.514 14.111 L 1.889 11.486 L 3.192 10.184 L 4.871 11.864 L 5.816 10.92 L 4.136 9.24 L 5.207 8.169 L 6.152 9.113 L 7.097 8.169 L 6.152 7.224 L 7.223 6.153 L 8.903 7.833 L 9.848 6.888 L 8.168 5.208 L 9.239 4.137 L 10.184 5.082 L 11.129 4.137 L 10.184 3.192 L 11.486 1.889 Z"/>
</svg>
