<svg xmlns="http://www.w3.org/2000/svg" width="16" height="16" version="1.1"><defs><linearGradient id="linear0" x1="0%" x2="0%" y1="0%" y2="100%"><stop offset="0%" style="stop-color:#ffd000; stop-opacity:1"/><stop offset="50%" style="stop-color:#24dbdb; stop-opacity:1"/><stop offset="100%" style="stop-color:#0073ff; stop-opacity:1"/></linearGradient></defs>
 <path fill="url(#linear0)"  fill-rule="evenodd" d="M 10.465 0.533 C 15.308 0.533 16 1.224 16 6.063 L 16 9.937 C 16 14.776 15.308 15.467 10.465 15.467 L 5.535 15.467 C 0.692 15.467 0 14.776 0 9.937 L 0 6.063 C 0 1.224 0.692 0.533 5.535 0.533 L 10.465 0.533 Z M 2.302 3.171 L 5.863 3.171 L 8 6.733 L 10.137 3.171 L 13.698 3.171 L 13.698 13.143 L 10.849 13.143 L 10.849 6.733 L 8.712 11.006 L 7.288 11.006 L 5.151 6.733 L 5.151 13.143 L 2.302 13.143 L 2.302 3.171 Z"/>
</svg>
