<svg xmlns="http://www.w3.org/2000/svg" width="16" height="16" version="1.1"><defs><linearGradient id="linear0" x1="0%" x2="0%" y1="0%" y2="100%"><stop offset="0%" style="stop-color:#ffd000; stop-opacity:1"/><stop offset="50%" style="stop-color:#24dbdb; stop-opacity:1"/><stop offset="100%" style="stop-color:#0073ff; stop-opacity:1"/></linearGradient></defs>
 <path fill="url(#linear0)"  d="M 0 14.667 L 16 14.667 L 16 1.333 L 0 1.333 L 0 14.667 Z M 1.333 2.667 L 7.333 2.667 L 7.333 5.333 L 1.333 5.333 L 1.333 2.667 Z M 8.667 2.667 L 14.667 2.667 L 14.667 5.333 L 8.667 5.333 L 8.667 2.667 Z M 1.333 6.667 L 7.333 6.667 L 7.333 9.333 L 1.333 9.333 L 1.333 6.667 Z M 8.667 6.667 L 14.667 6.667 L 14.667 9.333 L 8.667 9.333 L 8.667 6.667 Z M 1.333 10.667 L 7.333 10.667 L 7.333 13.333 L 1.333 13.333 L 1.333 10.667 Z M 8.667 10.667 L 14.667 10.667 L 14.667 13.333 L 8.667 13.333 L 8.667 10.667 Z"/>
</svg>
