<svg xmlns="http://www.w3.org/2000/svg" width="16" height="16" version="1.1"><defs><linearGradient id="linear0" x1="0%" x2="100%" y1="0%" y2="100%"><stop offset="0%" style="stop-color:#e5ff00; stop-opacity:1"/><stop offset="50%" style="stop-color:#0073ff; stop-opacity:1"/><stop offset="100%" style="stop-color:#ff0000; stop-opacity:1"/></linearGradient></defs>
 <path fill="url(#linear0)"  d="m 3.003955,1.0000001 c 0,0 -0.99902,-0.003 -1,1 l -0.004,3.99609 h -2 l 9e-5,1 h 16 l -9e-5,-1 h -2 l 0.004,-3.99609 c 9.8e-4,-1.00336003 -1,-1 -1,-1 z m -0.004,0.99609 h 10 v 4 h -10 z m -0.99609,7 V 14 c 0,0 0,1 1,1 h 10 c 1,0 1,-1 1,-1 V 8.9960901 h -1.00391 V 13.99609 h -10 V 8.9960901 Z"/>
</svg>
