<svg xmlns="http://www.w3.org/2000/svg" width="16" height="16" version="1.1"><defs><linearGradient id="linear0" x1="0%" x2="100%" y1="0%" y2="100%"><stop offset="0%" style="stop-color:#e5ff00; stop-opacity:1"/><stop offset="50%" style="stop-color:#0073ff; stop-opacity:1"/><stop offset="100%" style="stop-color:#ff0000; stop-opacity:1"/></linearGradient></defs>
 <path fill="url(#linear0)"  d="M 0 3.333 L 0 12.667 C 0 13.587 0.746 14.333 1.667 14.333 L 14.333 14.333 C 15.254 14.333 16 13.587 16 12.667 L 16 3.333 C 16 2.413 15.254 1.667 14.333 1.667 L 1.667 1.667 C 0.746 1.667 0 2.413 0 3.333 Z M 15.333 8 C 15.333 8.553 14.887 9 14.333 9 C 13.78 9 13.333 8.553 13.333 8 C 13.333 7.447 13.78 7 14.333 7 C 14.887 7 15.333 7.447 15.333 8 Z M 12.667 3 L 12.667 13 L 2 13 L 2 3 L 12.667 3 Z"/>
</svg>
