<svg xmlns="http://www.w3.org/2000/svg" width="16" height="16" version="1.1"><defs><linearGradient id="linear0" x1="0%" x2="100%" y1="0%" y2="100%"><stop offset="0%" style="stop-color:#e5ff00; stop-opacity:1"/><stop offset="50%" style="stop-color:#0073ff; stop-opacity:1"/><stop offset="100%" style="stop-color:#ff0000; stop-opacity:1"/></linearGradient></defs>
 <path fill="url(#linear0)"  fill-rule="evenodd" d="M 1.905 0 L 1.143 3.048 L 1.143 14.476 L 4.19 14.476 L 4.19 16 L 5.714 16 L 7.238 14.476 L 9.524 14.476 L 14.857 9.143 L 14.857 0 L 1.905 0 Z M 3.429 0.762 L 14.095 0.762 L 14.095 8.762 L 12.19 10.667 L 8 10.667 L 5.714 12.952 L 5.714 10.667 L 3.429 10.667 L 3.429 0.762 Z M 6.476 3.048 L 6.476 7.619 L 8 7.619 L 8 3.048 L 6.476 3.048 Z M 10.286 3.048 L 10.286 7.619 L 11.81 7.619 L 11.81 3.048 L 10.286 3.048 Z"/>
</svg>
