<svg xmlns="http://www.w3.org/2000/svg" width="16" height="16" version="1.1"><defs><linearGradient id="linear0" x1="0%" x2="0%" y1="0%" y2="100%"><stop offset="0%" style="stop-color:#ffd000; stop-opacity:1"/><stop offset="50%" style="stop-color:#24dbdb; stop-opacity:1"/><stop offset="100%" style="stop-color:#0073ff; stop-opacity:1"/></linearGradient></defs>
 <path fill="url(#linear0)"  fill-rule="evenodd" d="M 9.455 2.909 L 9.455 14.465 L 8 16 L 6.545 14.465 L 6.545 2.909 L 6.545 2.909 L 2.364 2.909 L 5.438 0 L 10.562 0 L 13.636 2.909 L 9.455 2.909 Z M 6.469 10.742 L 4.44 12.822 L 2.545 10.978 L 2.545 4 L 5.455 4 L 5.455 9.749 L 6.469 10.742 L 6.469 10.742 L 6.469 10.742 Z M 10.545 4 L 13.455 4 L 13.455 10.978 L 11.56 12.822 L 9.531 10.742 L 10.545 9.749 L 10.545 4 L 10.545 4 Z"/>
</svg>
