<svg xmlns="http://www.w3.org/2000/svg" width="16" height="16" version="1.1"><defs><linearGradient id="linear0" x1="0%" x2="100%" y1="0%" y2="100%"><stop offset="0%" style="stop-color:#e5ff00; stop-opacity:1"/><stop offset="50%" style="stop-color:#0073ff; stop-opacity:1"/><stop offset="100%" style="stop-color:#ff0000; stop-opacity:1"/></linearGradient></defs>
 <path fill="url(#linear0)"  d="M 3.382 0 L 0.193 3.269 L 0.557 3.642 L 4.81 8 L 0.193 12.732 L 3.382 16 L 8 11.268 L 12.617 16 L 15.807 12.732 L 11.19 8 L 15.807 3.269 L 12.617 0 L 8 4.732 L 3.382 0 L 3.382 0 Z M 3.382 0.747 L 8 5.479 L 12.617 0.747 L 15.078 3.269 L 10.46 8 L 15.078 12.732 L 12.617 15.253 L 8 10.522 L 3.382 15.253 L 0.922 12.732 L 5.539 8 L 0.922 3.269 L 3.382 0.747 L 3.382 0.747 Z"/>
</svg>
