<?xml version="1.0" encoding="UTF-8" standalone="no"?>
<!-- Created with Inkscape (http://www.inkscape.org/) -->

<svg
   width="32"
   height="32"
   viewBox="0 0 32 32.000001"
   id="svg6548"
   version="1.1"
   inkscape:version="1.4.2 (unknown)"
   sodipodi:docname="org.kde.dolphin_su.svg"
   xmlns:inkscape="http://www.inkscape.org/namespaces/inkscape"
   xmlns:sodipodi="http://sodipodi.sourceforge.net/DTD/sodipodi-0.dtd"
   xmlns:xlink="http://www.w3.org/1999/xlink"
   xmlns="http://www.w3.org/2000/svg"
   xmlns:svg="http://www.w3.org/2000/svg"
   xmlns:rdf="http://www.w3.org/1999/02/22-rdf-syntax-ns#">
  <sodipodi:namedview
     id="namedview1"
     pagecolor="#ffffff"
     bordercolor="#000000"
     borderopacity="0.25"
     inkscape:showpageshadow="2"
     inkscape:pageopacity="0.0"
     inkscape:pagecheckerboard="0"
     inkscape:deskcolor="#d1d1d1"
     inkscape:zoom="24.15625"
     inkscape:cx="15.979301"
     inkscape:cy="16"
     inkscape:window-width="1920"
     inkscape:window-height="998"
     inkscape:window-x="0"
     inkscape:window-y="0"
     inkscape:window-maximized="1"
     inkscape:current-layer="layer1" />
  <defs
     id="defs6550">
    <linearGradient
       id="linearGradient4274"
       inkscape:collect="always">
      <stop
         id="stop4276"
         offset="0"
         style="stop-color:#ffffff;stop-opacity:1;" />
      <stop
         id="stop4278"
         offset="1"
         style="stop-color:#ffffff;stop-opacity:0.48760331" />
    </linearGradient>
    <linearGradient
       inkscape:collect="always"
       xlink:href="#linearGradient4393"
       id="linearGradient4399"
       x1="430.51038"
       y1="501.60815"
       x2="452.87308"
       y2="527.82001"
       gradientUnits="userSpaceOnUse"
       gradientTransform="matrix(0.46149782,0,0,0.46149782,-186.79539,798.63114)" />
    <linearGradient
       inkscape:collect="always"
       id="linearGradient4393">
      <stop
         style="stop-color:#000000;stop-opacity:1;"
         offset="0"
         id="stop4395" />
      <stop
         style="stop-color:#000000;stop-opacity:0;"
         offset="1"
         id="stop4397" />
    </linearGradient>
    <linearGradient
       inkscape:collect="always"
       xlink:href="#linearGradient4227"
       id="linearGradient4225"
       gradientUnits="userSpaceOnUse"
       x1="396.57144"
       y1="498.798"
       x2="426.57144"
       y2="511.798"
       gradientTransform="matrix(0.46149782,0,0,0.46149782,-176.18094,798.24664)" />
    <linearGradient
       id="linearGradient4227"
       inkscape:collect="always">
      <stop
         id="stop4229"
         offset="0"
         style="stop-color:#f5f5f5;stop-opacity:1" />
      <stop
         id="stop4231"
         offset="1"
         style="stop-color:#f9f9f9;stop-opacity:1" />
    </linearGradient>
    <linearGradient
       inkscape:collect="always"
       xlink:href="#linearGradient4274"
       id="linearGradient7243"
       gradientUnits="userSpaceOnUse"
       gradientTransform="matrix(0.46149782,0,0,0.46149782,-178.18094,3145.014)"
       x1="390.57144"
       y1="498.298"
       x2="442.57144"
       y2="498.298" />
    <linearGradient
       inkscape:collect="always"
       xlink:href="#linearGradient919"
       id="linearGradient5977"
       gradientUnits="userSpaceOnUse"
       gradientTransform="translate(-286.50988,627.16296)"
       x1="364.69067"
       y1="439.92767"
       x2="384.76724"
       y2="460.43103" />
    <linearGradient
       inkscape:collect="always"
       id="linearGradient919">
      <stop
         style="stop-color:#ffffff;stop-opacity:1;"
         offset="0"
         id="stop915" />
      <stop
         style="stop-color:#ffffff;stop-opacity:0;"
         offset="1"
         id="stop917" />
    </linearGradient>
    <linearGradient
       inkscape:collect="always"
       id="linearGradient39400">
      <stop
         style="stop-color:#000000;stop-opacity:1"
         offset="0"
         id="stop39396" />
      <stop
         style="stop-color:#147cdc;stop-opacity:0;"
         offset="1"
         id="stop39398" />
    </linearGradient>
    <style
       id="current-color-scheme"
       type="text/css">.ColorScheme-Accent { color: #3593e6; } </style>
    <linearGradient
       inkscape:collect="always"
       xlink:href="#linearGradient39400"
       id="linearGradient985"
       gradientUnits="userSpaceOnUse"
       gradientTransform="translate(-329.14903,544.40065)"
       x1="360.17596"
       y1="506.59558"
       x2="337.53586"
       y2="487.11237" />
    <linearGradient
       inkscape:collect="always"
       xlink:href="#linearGradient919"
       id="linearGradient1106"
       gradientUnits="userSpaceOnUse"
       gradientTransform="translate(-351.69068,591.43456)"
       x1="356.78506"
       y1="432.49536"
       x2="379.39532"
       y2="455.02283" />
  </defs>
  <namedview
     id="base"
     pagecolor="#ffffff"
     bordercolor="#666666"
     borderopacity="1.0"
     inkscape:pageopacity="0.0"
     inkscape:pageshadow="2"
     inkscape:zoom="4"
     inkscape:cx="-2.125"
     inkscape:cy="5"
     inkscape:document-units="px"
     inkscape:current-layer="layer1"
     showgrid="false"
     units="px"
     inkscape:snap-bbox="true"
     inkscape:bbox-nodes="true"
     inkscape:object-nodes="true"
     inkscape:snap-global="true"
     showborder="false"
     inkscape:pagecheckerboard="0"
     inkscape:window-width="1914"
     inkscape:window-height="1047"
     inkscape:window-x="3"
     inkscape:window-y="3"
     inkscape:window-maximized="1">
    <grid
       type="xygrid"
       id="grid7247" />
  </namedview>
  <metadata
     id="metadata6553">
    <RDF>
      <Work
         rdf:about="">
        <format>image/svg+xml</format>
        <type
           rdf:resource="http://purl.org/dc/dcmitype/StillImage" />
      </Work>
    </RDF>
  </metadata>
  <g
     inkscape:label="Livello 1"
     inkscape:groupmode="layer"
     id="layer1"
     transform="translate(0,-1020.3622)">
    <path
       inkscape:connector-curvature="0"
       style="fill:currentColor"
       id="rect4180"
       d="m 1,1037.3622 30,0 0,-13 -15.000009,-10e-5 L 14,1022.3622 l -13,0 z"
       sodipodi:nodetypes="ccccccc"
       class="ColorScheme-Accent" />
    <path
       inkscape:connector-curvature="0"
       style="opacity:1;fill:#c83771;fill-opacity:1"
       id="path12635"
       d="m 1,1037.3622 h 30 v -13 L 15.999991,1024.3621 14,1022.3622 H 1 Z"
       sodipodi:nodetypes="ccccccc" />
    <rect
       ry="0.66667789"
       rx="0.66666633"
       y="1027.3622"
       x="2"
       height="7.9999828"
       width="28"
       id="rect4223"
       style="color:#000000;clip-rule:nonzero;display:inline;overflow:visible;visibility:visible;opacity:1;isolation:auto;mix-blend-mode:normal;color-interpolation:sRGB;color-interpolation-filters:linearRGB;solid-color:#000000;solid-opacity:1;fill:url(#linearGradient4225);fill-opacity:1;fill-rule:nonzero;stroke:none;stroke-width:1;stroke-linecap:butt;stroke-linejoin:miter;stroke-miterlimit:4;stroke-dasharray:none;stroke-dashoffset:0;stroke-opacity:1;marker:none;color-rendering:auto;image-rendering:auto;shape-rendering:auto;text-rendering:auto;enable-background:accumulate" />
    <path
       inkscape:connector-curvature="0"
       style="fill:currentColor"
       d="m 13,1031.3622 -2,1 -10,0 0,1 0.022321,15.992 c -0.011161,0.5272 0.4820034,1.0291 0.9683341,1.0287 L 30,1050.3622 c 0.541364,-2e-4 1,-0.4631 1,-1 l 0,-18 z"
       id="rect4113"
       sodipodi:nodetypes="cccccscccc"
       class="ColorScheme-Accent" />
    <path
       style="opacity:0.099;fill:url(#linearGradient4399);fill-opacity:1;fill-rule:evenodd;stroke:none;stroke-width:1px;stroke-linecap:butt;stroke-linejoin:miter;stroke-opacity:1"
       d="m 1.000001,1033.3622 h 11 l 1,-2 h 18 v 18 h -14 z"
       id="path4383"
       inkscape:connector-curvature="0"
       sodipodi:nodetypes="ccccccc" />
    <path
       style="color:#000000;clip-rule:nonzero;display:inline;overflow:visible;visibility:visible;opacity:0.85;isolation:auto;mix-blend-mode:normal;color-interpolation:sRGB;color-interpolation-filters:linearRGB;solid-color:#000000;solid-opacity:1;fill:url(#linearGradient7243);fill-opacity:1;fill-rule:nonzero;stroke:none;stroke-width:1;stroke-linecap:butt;stroke-linejoin:miter;stroke-miterlimit:4;stroke-dasharray:none;stroke-dashoffset:0;stroke-opacity:1;marker:none;color-rendering:auto;image-rendering:auto;shape-rendering:auto;text-rendering:auto;enable-background:accumulate"
       d="M 2.6660156,1027.3622 C 2.2966825,1027.3622 2,1027.6589 2,1028.0282 l 0,1 c 0,-0.3693 0.2966825,-0.666 0.6660156,-0.666 l 26.6679684,0 c 0.369334,0 0.666016,0.2967 0.666016,0.666 l 0,-1 c 0,-0.3693 -0.296682,-0.666 -0.666016,-0.666 z"
       id="rect7300"
       inkscape:connector-curvature="0"
       sodipodi:nodetypes="sscsscsss" />
    <path
       style="color:#3593e6;opacity:0.1;fill:url(#linearGradient5977);fill-opacity:1"
       d="m 81.180798,1065.0906 -3,2 h -13 v 1 l -10e-7,18.9982 c 0,0.5398 0.488645,0.9906 0.983752,0.9907 l 38.016251,0.011 c 0.5107,0.016 1,-0.3955 1,-1 v -22 z"
       id="path1096"
       class="ColorScheme-Accent" />
    <path
       inkscape:connector-curvature="0"
       style="color:#3593e6;opacity:0.3;fill:url(#linearGradient985);fill-opacity:1"
       d="m 13.000001,1031.3622 -2,1 h -10 v 1 l 0.02232,15.992 c -0.01116,0.5272 0.482003,1.0291 0.968334,1.0287 L 30,1050.3619 c 0.541364,-2e-4 1,-0.4631 1,-1 v -18 z"
       id="path975"
       sodipodi:nodetypes="cccccscccc" />
    <path
       inkscape:connector-curvature="0"
       style="color:#3593e6;opacity:0.2;fill:url(#linearGradient1106);fill-opacity:1"
       d="m 13,1031.3622 -2,1 H 1 v 1 l 0.02232,15.992 c -0.01116,0.5272 0.482003,1.0291 0.968334,1.0287 l 28.009345,-0.021 c 0.54136,-2e-4 1,-0.4631 1,-1 v -18 z"
       id="path979"
       sodipodi:nodetypes="cccccscccc" />
    <g
       id="g896"
       transform="translate(0,-7.8413382e-4)">
      <path
         inkscape:connector-curvature="0"
         style="opacity:0.3;fill:#ffffff;fill-opacity:1;fill-rule:evenodd"
         id="path4224"
         d="m 1,1032.3622 v 1 h 11 l 1,-2 -2,1 z"
         sodipodi:nodetypes="cccccc" />
      <path
         inkscape:connector-curvature="0"
         style="opacity:0.3;fill:#ffffff;fill-opacity:1;fill-rule:evenodd"
         id="path4196"
         d="M 13.999992,1022.3621 15,1025.3622 h 2 14 v -1 H 17 l -1.000009,-10e-5 z"
         sodipodi:nodetypes="cccccccc" />
      <path
         style="color:#000000;clip-rule:nonzero;display:inline;overflow:visible;visibility:visible;opacity:0.3;isolation:auto;mix-blend-mode:normal;color-interpolation:sRGB;color-interpolation-filters:linearRGB;solid-color:#000000;solid-opacity:1;fill:#000000;fill-opacity:1;fill-rule:nonzero;stroke:none;stroke-width:1;stroke-linecap:butt;stroke-linejoin:miter;stroke-miterlimit:4;stroke-dasharray:none;stroke-dashoffset:0;stroke-opacity:1;marker:none;color-rendering:auto;image-rendering:auto;shape-rendering:auto;text-rendering:auto;enable-background:accumulate"
         d="m 1.0214844,28.992188 c -0.011161,0.527199 0.4824194,1.029796 0.96875,1.029296 L 30,30 c 0.541364,-2e-4 1,-1 1,-1 v -1 c 0,0.5369 -0.458636,0.9998 -1,1 L 1.9902344,29.02148 c -0.4863306,5e-4 -0.979911,-0.502097 -0.96875,-1.029296 -0.0295408,-16.581894 -0.0274724,-14.334591 0,1 z"
         id="path7318"
         inkscape:connector-curvature="0"
         sodipodi:nodetypes="cccsccccc"
         transform="translate(0,1020.3622)" />
    </g>
    <path
       id="path1"
       style="font-variation-settings:normal;display:inline;vector-effect:none;fill:#ffffff;fill-opacity:0.4;stroke-width:0.470476;stroke-linecap:butt;stroke-linejoin:miter;stroke-miterlimit:4;stroke-dasharray:none;stroke-dashoffset:0;stroke-opacity:1;-inkscape-stroke:none;stop-color:#000000"
       d="m 19.857477,1038.555 c -1.338862,0.013 -2.996801,0.3816 -5.012922,1.4558 -4.608297,2.4551 -5.8597226,6.8139 -9.2235977,10.3591 l 15.7538377,0.013 c 0.193515,-3.6297 1.996818,-4.7083 4.804249,-7.8789 0,0 1.777775,-1.5417 1.380991,-2.9936 -0.420084,-1.5367 -3.673215,0.3291 -4.036307,0.1027 -0.750906,-0.4729 -1.944862,-1.0624 -3.666251,-1.0514 z m 7.331572,1.3981 c -0.841788,1.0835 -1.886762,2.1315 -3.307323,3.4162 -1.385429,1.2531 -3.766077,3.0359 -3.876792,2.8479 -0.03022,-0.045 2.442166,-1.9057 3.636581,-2.9891 1.28771,-1.1672 2.411853,-2.1992 3.547534,-3.275 z m -10.200208,5.4359 c 0.360601,0 0.652927,0.3515 0.652927,0.7861 0,0.4348 -0.292326,0.787 -0.652927,0.787 -0.360609,0 -0.652931,-0.3522 -0.652931,-0.787 0,-0.4346 0.292322,-0.7861 0.652931,-0.7861 z"
       sodipodi:nodetypes="cscccsccccscscsssss" />
  </g>
</svg>
