<?xml version="1.0" encoding="UTF-8" standalone="no"?>
<svg
   viewBox="0 0 16 16.000004"
   version="1.1"
   id="svg1"
   sodipodi:docname="configure.svg"
   width="16"
   height="16.000004"
   inkscape:version="1.3.2 (091e20ef0f, 2023-11-25)"
   xmlns:inkscape="http://www.inkscape.org/namespaces/inkscape"
   xmlns:sodipodi="http://sodipodi.sourceforge.net/DTD/sodipodi-0.dtd"
   xmlns:xlink="http://www.w3.org/1999/xlink"
   xmlns="http://www.w3.org/2000/svg"
   xmlns:svg="http://www.w3.org/2000/svg">
  <sodipodi:namedview
     id="namedview1"
     pagecolor="#ffffff"
     bordercolor="#999999"
     borderopacity="1"
     inkscape:showpageshadow="2"
     inkscape:pageopacity="0"
     inkscape:pagecheckerboard="0"
     inkscape:deskcolor="#d1d1d1"
     inkscape:zoom="17.318182"
     inkscape:cx="8.3727033"
     inkscape:cy="16.39895"
     inkscape:window-width="1920"
     inkscape:window-height="996"
     inkscape:window-x="0"
     inkscape:window-y="0"
     inkscape:window-maximized="1"
     inkscape:current-layer="svg1" />
  <defs
     id="defs3051">
    <style
       type="text/css"
       id="current-color-scheme">
      .ColorScheme-Text {
        color:#d8d8d8;
      }
      </style>
    <linearGradient
       inkscape:collect="always"
       xlink:href="#linearGradient1169"
       id="linearGradient1267"
       x1="5.2125988"
       y1="11.219676"
       x2="11.120699"
       y2="4.3246942"
       gradientUnits="userSpaceOnUse" />
    <linearGradient
       inkscape:collect="always"
       id="linearGradient1169">
      <stop
         style="stop-color:#2ad4ff;stop-opacity:1"
         offset="0"
         id="stop1165" />
      <stop
         style="stop-color:#c373d9;stop-opacity:1;"
         offset="1"
         id="stop1167" />
    </linearGradient>
  </defs>
  <rect
     style="opacity:0.00100002;fill:#d3dae3;fill-opacity:1;stroke:none"
     id="rect4159"
     width="16"
     height="16.000004"
     x="0"
     y="3.0511472e-08" />
  <rect
     id="rect4165"
     style="fill:#d3dae3;fill-opacity:1;stroke:none;stroke-width:0.999997"
     rx="0.875"
     y="6.4999995"
     height="2.9999988"
     width="2.9999988"
     x="2"
     ry="0.875" />
  <rect
     id="rect4167"
     style="fill:#d3dae3;fill-opacity:1;stroke:none;stroke-width:0.999997"
     width="2.9999988"
     height="2.9999988"
     x="11.000004"
     y="6.4999995"
     rx="0.875"
     ry="0.875" />
  <rect
     id="rect4169"
     style="fill:#d3dae3;fill-opacity:1;stroke:none;stroke-width:0.999997"
     rx="0.875"
     x="6.4999995"
     height="2.9999988"
     width="2.9999988"
     y="2.0000002"
     ry="0.875" />
  <rect
     id="rect4171"
     style="fill:#d3dae3;fill-opacity:1;stroke:none;stroke-width:0.999997"
     width="2.9999988"
     height="2.9999988"
     x="6.4999995"
     y="11.000003"
     rx="0.875"
     ry="0.875" />
  <rect
     id="rect4173"
     style="fill:#d3dae3;fill-opacity:1;stroke:none;stroke-width:0.999997"
     transform="rotate(45.000001)"
     width="2.9999988"
     height="2.9999988"
     x="5.3139277"
     y="-1.4999988"
     rx="0.875"
     ry="0.875" />
  <rect
     id="rect4175"
     style="fill:#d3dae3;fill-opacity:1;stroke:none;stroke-width:0.999997"
     transform="rotate(45.000001)"
     rx="0.875"
     y="-1.4999988"
     x="14.313931"
     height="2.9999988"
     width="2.9999988"
     ry="0.875" />
  <rect
     id="rect4177"
     style="fill:#d3dae3;fill-opacity:1;stroke:none;stroke-width:0.999997"
     transform="rotate(45.000001)"
     width="2.9999988"
     height="2.9999988"
     x="9.8139362"
     y="-5.999999"
     rx="0.875"
     ry="0.875" />
  <rect
     id="rect4179"
     style="fill:#d3dae3;fill-opacity:1;stroke:none;stroke-width:0.999997"
     transform="rotate(45.000001)"
     rx="0.875"
     y="2.9999986"
     x="9.8139362"
     height="2.9999988"
     width="2.9999988"
     ry="0.875" />
  <path
     id="path4181"
     style="fill:#d3dae3;fill-opacity:1;stroke:none;stroke-width:0.999997"
     d="M 7.9999991,3.1249998 A 4.8749994,4.8749995 0 0 0 3.1249997,7.9999992 4.8749994,4.8749995 0 0 0 7.9999991,12.874999 4.8749994,4.8749995 0 0 0 12.874999,7.9999992 4.8749994,4.8749995 0 0 0 7.9999991,3.1249998 m 0,2.6249998 A 2.2499999,2.2499999 0 0 1 10.25,7.9999992 2.2499999,2.2499999 0 0 1 7.9999991,10.25 2.2499999,2.2499999 0 0 1 5.7499995,7.9999992 2.2499999,2.2499999 0 0 1 7.9999991,5.7499996"
     inkscape:connector-curvature="0" />
  <path
     id="path4242"
     d="M 7.9999991,4.571428 A 3.4285711,3.4285712 0 0 0 4.5714279,7.9999992 3.4285711,3.4285712 0 0 0 7.9999991,11.428571 3.4285711,3.4285712 0 0 0 11.428571,7.9999992 3.4285711,3.4285712 0 0 0 7.9999991,4.571428 Z m 0,1.7142856 A 1.7142857,1.7142857 0 0 1 9.7142846,7.9999992 1.7142857,1.7142857 0 0 1 7.9999991,9.7142852 1.7142857,1.7142857 0 0 1 6.2857135,7.9999992 1.7142857,1.7142857 0 0 1 7.9999991,6.2857136 Z"
     style="fill:url(#linearGradient1267);fill-opacity:1;stroke:none;stroke-width:0.999997" />
  <circle
     id="circle-transparent-6-9-3"
     cx="7.9999967"
     cy="7.9999967"
     r="1.7142856"
     class="ColorScheme-Text"
     style="color:#7b7c7e;fill:#d3dae3;fill-opacity:1;stroke-width:0.250001" />
</svg>
