<?xml version="1.0" encoding="UTF-8" standalone="no"?>
<svg
   viewBox="0 0 22 22"
   version="1.1"
   id="svg1"
   sodipodi:docname="system-suspend-hibernate.svg"
   width="22"
   height="22"
   inkscape:version="1.3.2 (091e20ef0f, 2023-11-25)"
   xmlns:inkscape="http://www.inkscape.org/namespaces/inkscape"
   xmlns:sodipodi="http://sodipodi.sourceforge.net/DTD/sodipodi-0.dtd"
   xmlns:xlink="http://www.w3.org/1999/xlink"
   xmlns="http://www.w3.org/2000/svg"
   xmlns:svg="http://www.w3.org/2000/svg">
  <defs
     id="defs1">
    <linearGradient
       inkscape:collect="always"
       xlink:href="#linearGradient2107"
       id="linearGradient2947"
       gradientUnits="userSpaceOnUse"
       gradientTransform="matrix(0.43219982,0,0,0.36977632,-99.577369,-185.8207)"
       x1="257.82172"
       y1="512.37195"
       x2="258.09778"
       y2="548.91052" />
    <linearGradient
       inkscape:collect="always"
       id="linearGradient2107">
      <stop
         style="stop-color:#ff964f;stop-opacity:1;"
         offset="0"
         id="stop2103" />
      <stop
         style="stop-color:#ffdd55;stop-opacity:1"
         offset="1"
         id="stop2105" />
    </linearGradient>
  </defs>
  <sodipodi:namedview
     id="namedview1"
     pagecolor="#ffffff"
     bordercolor="#999999"
     borderopacity="1"
     inkscape:showpageshadow="2"
     inkscape:pageopacity="0"
     inkscape:pagecheckerboard="0"
     inkscape:deskcolor="#d1d1d1"
     inkscape:zoom="6.1229019"
     inkscape:cx="27.274649"
     inkscape:cy="18.29198"
     inkscape:window-width="1920"
     inkscape:window-height="996"
     inkscape:window-x="0"
     inkscape:window-y="0"
     inkscape:window-maximized="1"
     inkscape:current-layer="svg1" />
  <style
     type="text/css"
     id="current-color-scheme">.ColorScheme-Text {color:#fcfcfc;}</style>
  <g
     id="22-22-system-suspend-hibernate">
    <path
       style="fill:none"
       d="M 0,0 V 22 H 22 V 0 Z"
       id="path49-1" />
    <path
       inkscape:connector-curvature="0"
       id="path9068-9-37-8-0-1-0"
       d="M 19.430508,2.7 2.312,2.7000048 V 17.491 H 19.6 Z"
       style="display:inline;overflow:visible;visibility:visible;opacity:0.6;fill:url(#linearGradient2947);fill-opacity:1;fill-rule:nonzero;stroke:none;stroke-width:0.55969;marker:none"
       sodipodi:nodetypes="cccccc" />
    <rect
       x="-15.000076"
       y="-15"
       width="3.199985"
       height="10"
       rx="1.5999925"
       ry="1.8181835"
       transform="scale(-1)"
       id="rect4-6-2-9"
       style="fill:#d3dae3;fill-opacity:1;stroke-width:0.426391" />
    <rect
       x="-10.200063"
       y="-15"
       width="3.199985"
       height="10"
       rx="1.5999925"
       ry="1.8181835"
       transform="scale(-1)"
       id="rect4-3-2-9-3"
       style="fill:#d3dae3;fill-opacity:1;stroke-width:0.426391" />
    <path
       d="M 16.80302,1 H 5.19673 C 4.08408,1.0012 3.01729,1.443811 2.23063,2.230645 1.44381,3.017323 1.00127,4.084063 1,5.196724 v 11.606709 -1.58e-4 c 10e-4,1.11263 0.44381,2.179402 1.23063,2.966079 C 3.01729,20.556188 4.08408,20.998708 5.19673,21 h 11.60669 -1.6e-4 c 1.11265,-0.0012 2.17944,-0.443812 2.9661,-1.230646 0.78682,-0.786677 1.22936,-1.853449 1.23063,-2.966079 V 5.196944 C 20.99799,4.084314 20.55618,3.017542 19.76936,2.230866 18.9827,1.444031 17.91591,1.001512 16.80326,1.00022 Z M 5.633,3 h 10.734 c 0.73925,9.16e-4 1.5363,0.0032 2.059,0.526 0.52269,0.522677 0.57308,0.901432 0.574,1.640677 V 17 H 3 V 5.166677 C 3.00092,4.427432 3.0513,4.048709 3.574,3.526 4.09667,3.003323 4.89376,3.000913 5.633,3 Z"
       id="path1193-3-7-93-1-6"
       style="color:#d3dae3;fill:#d3dae3;fill-opacity:1;stroke-width:0.0396825"
       sodipodi:nodetypes="ccccccccccccccccccccccccc"
       class="ColorScheme-Text" />
  </g>
</svg>
