<?xml version="1.0" encoding="UTF-8" standalone="no"?>
<svg
   viewBox="0 0 22 22"
   version="1.1"
   id="svg1"
   sodipodi:docname="system-reboot.svg"
   inkscape:version="1.3.2 (091e20ef0f, 2023-11-25)"
   width="22"
   height="22"
   xmlns:inkscape="http://www.inkscape.org/namespaces/inkscape"
   xmlns:sodipodi="http://sodipodi.sourceforge.net/DTD/sodipodi-0.dtd"
   xmlns:xlink="http://www.w3.org/1999/xlink"
   xmlns="http://www.w3.org/2000/svg"
   xmlns:svg="http://www.w3.org/2000/svg">
  <sodipodi:namedview
     id="namedview1"
     pagecolor="#ffffff"
     bordercolor="#000000"
     borderopacity="0.25"
     inkscape:showpageshadow="2"
     inkscape:pageopacity="0.0"
     inkscape:pagecheckerboard="0"
     inkscape:deskcolor="#d1d1d1"
     inkscape:zoom="6.1630785"
     inkscape:cx="40.077374"
     inkscape:cy="3.2451315"
     inkscape:window-width="1920"
     inkscape:window-height="996"
     inkscape:window-x="0"
     inkscape:window-y="0"
     inkscape:window-maximized="1"
     inkscape:current-layer="svg1" />
  <defs
     id="defs1">
    <style
       type="text/css"
       id="style1">.ColorScheme-Text {
        color:#d8dee9;
      }
      .ColorScheme-Highlight {
        color:#88c0d0;
      }</style>
    <linearGradient
       id="a-5"
       x1="16"
       x2="16"
       y1="1"
       y2="31"
       gradientUnits="userSpaceOnUse">
      <stop
         stop-color="#f4282c"
         offset="0"
         id="stop1009" />
      <stop
         stop-color="#fac136"
         offset="1"
         id="stop1011" />
    </linearGradient>
    <linearGradient
       inkscape:collect="always"
       xlink:href="#linearGradient52"
       id="linearGradient5"
       gradientUnits="userSpaceOnUse"
       gradientTransform="matrix(0.6875,0,0,0.6875,108.66985,103.7705)"
       x1="-199"
       y1="91"
       x2="-167"
       y2="91" />
    <linearGradient
       inkscape:collect="always"
       id="linearGradient52">
      <stop
         style="stop-color:#4e51ac;stop-opacity:1"
         offset="0"
         id="stop39" />
      <stop
         style="stop-color:#008080;stop-opacity:1"
         offset="1"
         id="stop40" />
    </linearGradient>
    <linearGradient
       inkscape:collect="always"
       xlink:href="#linearGradient767"
       id="linearGradient4263"
       gradientUnits="userSpaceOnUse"
       gradientTransform="matrix(0.43219982,0,0,0.36977632,-52.289369,-185.9162)"
       x1="147.17934"
       y1="511.67468"
       x2="146.24915"
       y2="548.60291" />
    <linearGradient
       inkscape:collect="always"
       id="linearGradient767">
      <stop
         style="stop-color:#00e55c;stop-opacity:1;"
         offset="0"
         id="stop763" />
      <stop
         style="stop-color:#df66ff;stop-opacity:1;"
         offset="1"
         id="stop765" />
    </linearGradient>
  </defs>
  <g
     id="22-22-system-reboot">
    <path
       style="fill:none"
       d="M 0,0 V 22 H 22 V 0 Z"
       id="path9" />
    <path
       inkscape:connector-curvature="0"
       id="path9068-9-37-8-0-1-0-1"
       d="M 19.718508,2.6044976 2.6,2.6045024 V 17.395498 h 17.288 z"
       style="display:inline;overflow:visible;visibility:visible;opacity:0.6;fill:url(#linearGradient4263);fill-opacity:1;fill-rule:nonzero;stroke:none;stroke-width:0.55969;marker:none"
       sodipodi:nodetypes="cccccc" />
    <path
       d="m 9.418819,15.525 h 3.161394 c 1.789936,0 3.419712,-1.719429 3.419712,-3.541589 v -1.369454 c 0,-0.464026 -0.614998,-0.848828 -1.084858,-0.848828 -0.458684,0 -1.08405,0.373401 -1.08405,0.848743 v 1.369539 c 0,0.882783 -0.552339,1.358957 -1.424958,1.358957 H 9.582322 c -0.87261,0 -1.424948,-0.476174 -1.424948,-1.358957 V 9.799078 c 0,-0.882784 0.554045,-1.221166 1.424948,-1.276032 h 2.380642 l -0.29199,0.212165 c -0.372652,0.270773 -0.324432,0.860148 0,1.199682 0.32444,0.328218 0.850234,0.328218 1.185862,0 l 1.957761,-1.980611 c 0.32443,-0.32821 0.32443,-0.860147 0,-1.199682 L 12.856836,4.773991 C 12.689022,4.604225 12.476451,4.525 12.263889,4.525 c -0.212541,0 -0.425113,0.07921 -0.592915,0.248991 -0.324432,0.328215 -0.324432,0.86015 0,1.199685 l 0.29199,0.294785 H 9.337058 c -1.789937,0 -3.337133,1.719777 -3.337133,3.541936 v 2.184331 c 0,1.810843 1.628938,3.530272 3.418894,3.530272 z"
       id="path2-5-3-0-8"
       sodipodi:nodetypes="sssssssssssscsccscsssccssss"
       style="fill:#d3dae3;fill-opacity:1;stroke-width:0.112525" />
    <path
       d="M 16.802945,1 H 5.196655 c -1.11265,0.0012 -2.17944,0.443811 -2.9661,1.230645 -0.78682,0.786678 -1.22936,1.853418 -1.23063,2.966079 v 11.606709 -1.58e-4 c 0.001,1.11263 0.44381,2.179402 1.23063,2.966079 0.78666,0.786834 1.85345,1.229354 2.9661,1.230646 h 11.60669 -1.6e-4 c 1.11265,-0.0012 2.17944,-0.443812 2.9661,-1.230646 0.78682,-0.786677 1.22936,-1.853449 1.23063,-2.966079 V 5.196944 c -0.002,-1.11263 -0.44381,-2.179402 -1.23063,-2.966078 -0.78666,-0.786835 -1.85345,-1.229354 -2.9661,-1.230646 z M 5.632925,3 h 10.734 c 0.73925,9.16e-4 1.5363,0.0032 2.059,0.526 0.52269,0.522677 0.57308,0.901432 0.574,1.640677 V 17 h -16 V 5.166677 C 3.000845,4.427432 3.051225,4.048709 3.573925,3.526 4.096595,3.003323 4.893685,3.000913 5.632925,3 Z"
       id="path1193-3-7-0-6-7"
       style="color:#d3dae3;fill:#d3dae3;fill-opacity:1;stroke-width:0.0396825"
       sodipodi:nodetypes="ccccccccccccccccccccccccc"
       class="ColorScheme-Text" />
  </g>
</svg>
