<?xml version="1.0" encoding="UTF-8" standalone="no"?>
<svg
   viewBox="0 0 22 22"
   version="1.1"
   id="svg1"
   sodipodi:docname="system-reboot-update.svg"
   width="22"
   height="22"
   inkscape:version="1.3.2 (091e20ef0f, 2023-11-25)"
   xmlns:inkscape="http://www.inkscape.org/namespaces/inkscape"
   xmlns:sodipodi="http://sodipodi.sourceforge.net/DTD/sodipodi-0.dtd"
   xmlns:xlink="http://www.w3.org/1999/xlink"
   xmlns="http://www.w3.org/2000/svg"
   xmlns:svg="http://www.w3.org/2000/svg">
  <sodipodi:namedview
     id="namedview1"
     pagecolor="#ffffff"
     bordercolor="#999999"
     borderopacity="1"
     inkscape:showpageshadow="2"
     inkscape:pageopacity="0"
     inkscape:pagecheckerboard="0"
     inkscape:deskcolor="#d1d1d1"
     inkscape:zoom="16.83798"
     inkscape:cx="12.115468"
     inkscape:cy="17.401137"
     inkscape:window-width="1920"
     inkscape:window-height="1002"
     inkscape:window-x="0"
     inkscape:window-y="0"
     inkscape:window-maximized="1"
     inkscape:current-layer="svg1" />
  <defs
     id="defs3051">
    <linearGradient
       inkscape:collect="always"
       id="linearGradient3">
      <stop
         style="stop-color:#00bf4d;stop-opacity:1;"
         offset="0"
         id="stop1" />
      <stop
         style="stop-color:#d229ff;stop-opacity:1;"
         offset="1"
         id="stop2" />
    </linearGradient>
    <style
       type="text/css"
       id="current-color-scheme">.ColorScheme-Text {color:#fcfcfc;}</style>
    <linearGradient
       inkscape:collect="always"
       xlink:href="#linearGradient767"
       id="linearGradient6327"
       gradientUnits="userSpaceOnUse"
       gradientTransform="matrix(0.50999989,0,0,0.43250149,-58.969977,-252.02757)"
       x1="128.0294"
       y1="588.88641"
       x2="128.04134"
       y2="621.6416" />
    <linearGradient
       inkscape:collect="always"
       id="linearGradient767">
      <stop
         style="stop-color:#00e55c;stop-opacity:1;"
         offset="0"
         id="stop763" />
      <stop
         style="stop-color:#df66ff;stop-opacity:1;"
         offset="1"
         id="stop765" />
    </linearGradient>
    <linearGradient
       inkscape:collect="always"
       xlink:href="#linearGradient3"
       id="linearGradient2"
       x1="18.484421"
       y1="14.999974"
       x2="18.638962"
       y2="20.135801"
       gradientUnits="userSpaceOnUse" />
  </defs>
  <path
     style="color:#000000;overflow:visible;opacity:0;fill:none;fill-opacity:1;stroke-width:1.06667"
     id="path940"
     overflow="visible"
     d="M 11,0 C 4.9303444,0 0,4.9303464 0,11 0,17.069654 4.9303444,22 11,22 17.06892,22 22,17.069654 22,11 22,4.93108 17.069656,0 11,0 Z"
     inkscape:connector-curvature="0" />
  <path
     inkscape:connector-curvature="0"
     id="path9068-9-37-8-0-1-6-3"
     d="m 19.333258,2.5833424 -16.8333295,4.1e-6 V 17.000002 H 19.49992 Z"
     style="display:inline;overflow:visible;visibility:visible;opacity:0.6;fill:url(#linearGradient6327);fill-opacity:1;fill-rule:nonzero;stroke:none;stroke-width:0.657519;marker:none"
     sodipodi:nodetypes="cccccc" />
  <path
     d="m 9.3003254,15.58333 h 3.3984816 c 1.924195,0 3.676191,-1.82364 3.676191,-3.756232 v -1.452449 c 0,-0.4921493 -0.661117,-0.9002723 -1.166221,-0.9002723 -0.493079,0 -1.165347,0.396029 -1.165347,0.9001833 v 1.452538 c 0,0.936283 -0.593772,1.441318 -1.531824,1.441318 H 9.4760864 c -0.938045,0 -1.5318164,-0.505035 -1.5318164,-1.441318 V 9.5103817 c 0,-0.936286 0.5955844,-1.2951741 1.5318163,-1.3533664 h 2.5591927 l -0.313887,0.2250234 c -0.40061,0.287185 -0.348764,0.912278 0,1.272392 0.348751,0.3481083 0.91399,0.3481083 1.274785,0 l 2.104587,-2.1006492 c 0.348762,-0.348103 0.348762,-0.9122775 0,-1.2723897 L 12.996177,4.1807467 C 12.815779,4.0006909 12.587281,3.9166651 12.358781,3.9166651 c -0.2285,0 -0.457,0.084021 -0.637389,0.2640816 -0.348764,0.3481066 -0.348764,0.9122798 0,1.2723921 l 0.313887,0.3126511 H 9.2124424 c -1.9242038,0 -3.5874408,1.8240043 -3.5874408,3.7565998 v 2.3167123 c 0,1.92059 1.7511115,3.744228 3.6753238,3.744228 z"
     id="path2-5-7"
     sodipodi:nodetypes="sssssssssssscsccscsssccssss"
     style="fill:#d3dae3;fill-opacity:1;stroke-width:0.14418" />
  <path
     d="M 16.802947,1 H 5.196652 C 4.0840024,1.0012486 3.0172197,1.4438107 2.2305533,2.2306445 1.443737,3.0173214 1.0012039,4.084061 0.99992895,5.1967222 v 11.6067038 -1.57e-4 c 8.3335e-4,1.112629 0.44380805,2.179396 1.23062435,2.96608 0.7866664,0.786831 1.8534491,1.229347 2.9660987,1.230642 h 11.606695 -1.67e-4 c 1.11266,-0.001 2.17944,-0.443811 2.966103,-1.230642 0.786821,-0.786684 1.229351,-1.853451 1.230628,-2.96608 V 5.1969422 C 20.998257,4.0843124 20.556104,3.0175414 19.769283,2.2308652 18.98262,1.4440307 17.91584,1.0015115 16.80318,1.0002199 Z M 5.3332602,2.666676 H 16.666588 c 0.739243,9.168e-4 1.336471,0.036541 1.859164,0.5593694 0.522697,0.5226775 0.806584,1.2013853 0.807506,1.9406293 V 16.833349 H 2.6665945 V 5.1666747 C 2.6674282,4.4274307 2.9514032,3.7487545 3.4740943,3.2260454 3.9967606,2.7033692 4.5940272,2.667589 5.3332602,2.666676 Z"
     id="path1193-3-3-3-5"
     style="color:#d3dae3;fill:#d3dae3;fill-opacity:1;stroke-width:0.047619"
     sodipodi:nodetypes="ccccccccccccccccccccccccc"
     class="ColorScheme-Text" />
  <ellipse
     style="fill:#d3dae3;fill-opacity:1;fill-rule:evenodd;stroke:none;stroke-width:0.0180001;stroke-opacity:1"
     id="path32-7"
     cx="17.666607"
     cy="17.666666"
     rx="3.3333516"
     ry="3.3333316" />
  <path
     d="m 18.444537,20.333335 c 0.107559,0 0.194425,-0.08842 0.194425,-0.197533 v -2.567898 h 1.16635 c 0.172458,0 0.259957,-0.212742 0.137459,-0.337191 l -2.138669,-2.173029 c -0.03629,-0.0369 -0.08577,-0.05771 -0.13746,-0.05771 -0.05174,0 -0.100859,0.02065 -0.137464,0.05788 l -2.138674,2.173032 c -0.121903,0.123656 -0.03627,0.33699 0.137462,0.33699 h 1.166745 v 2.567897 c 0,0.109268 0.08738,0.197531 0.194422,0.197531 z m -0.777896,-4.85669 z"
     id="path4-0"
     style="fill:url(#linearGradient2);fill-opacity:1;stroke-width:0.999983"
     sodipodi:nodetypes="sscsccsccscsssccccccc" />
</svg>
