<?xml version="1.0" encoding="UTF-8" standalone="no"?>
<svg
   viewBox="0 0 22 22"
   version="1.1"
   id="svg1"
   sodipodi:docname="system-log-out-rtl.svg"
   width="22"
   height="22"
   inkscape:version="1.3.2 (091e20ef0f, 2023-11-25)"
   xmlns:inkscape="http://www.inkscape.org/namespaces/inkscape"
   xmlns:sodipodi="http://sodipodi.sourceforge.net/DTD/sodipodi-0.dtd"
   xmlns:xlink="http://www.w3.org/1999/xlink"
   xmlns="http://www.w3.org/2000/svg"
   xmlns:svg="http://www.w3.org/2000/svg">
  <sodipodi:namedview
     id="namedview1"
     pagecolor="#ffffff"
     bordercolor="#999999"
     borderopacity="1"
     inkscape:showpageshadow="2"
     inkscape:pageopacity="0"
     inkscape:pagecheckerboard="0"
     inkscape:deskcolor="#d1d1d1"
     inkscape:zoom="12.245804"
     inkscape:cx="3.8380493"
     inkscape:cy="12.820718"
     inkscape:window-width="1920"
     inkscape:window-height="996"
     inkscape:window-x="0"
     inkscape:window-y="0"
     inkscape:window-maximized="1"
     inkscape:current-layer="svg1" />
  <defs
     id="defs3051">
    <style
       type="text/css"
       id="current-color-scheme">.ColorScheme-Text {color:#fcfcfc;}</style>
    <linearGradient
       inkscape:collect="always"
       xlink:href="#linearGradient1461"
       id="linearGradient5945"
       gradientUnits="userSpaceOnUse"
       gradientTransform="matrix(0.43219982,0,0,0.36977632,89.510631,-185.8167)"
       x1="-182.71065"
       y1="510.67731"
       x2="-183.27034"
       y2="554.21063" />
    <linearGradient
       inkscape:collect="always"
       id="linearGradient1461">
      <stop
         style="stop-color:#8d5fd3;stop-opacity:1"
         offset="0"
         id="stop1457" />
      <stop
         style="stop-color:#00ffff;stop-opacity:1"
         offset="1"
         id="stop1459" />
    </linearGradient>
  </defs>
  <g
     id="22-22-system-log-out">
    <path
       style="fill:none"
       d="M 0,0 V 22 H 22 V 0 Z"
       id="path29" />
    <path
       inkscape:connector-curvature="0"
       id="path9068-9-37-8-0-1-0-1-3-7-4"
       d="M 19.518508,2.704 2.4,2.7040048 V 17.495001 h 17.288 z"
       style="display:inline;overflow:visible;visibility:visible;opacity:0.6;fill:url(#linearGradient5945);fill-opacity:1;fill-rule:nonzero;stroke:none;stroke-width:0.55969;marker:none"
       sodipodi:nodetypes="cccccc" />
    <path
       d="m 10.192666,5.5703654 c 0.214899,-0.191242 0.508818,-0.223 0.759388,-0.08756 0.243608,0.127371 0.401231,0.40634 0.401231,0.717058 v 1.434131 h 4.363559 c 0.393991,0 0.716489,0.350549 0.716489,0.796746 v 3.1073576 c 0,0.438311 -0.322492,0.79675 -0.716489,0.79675 h -4.363559 v 1.434301 c 0,0.302826 -0.157623,0.581638 -0.401231,0.717066 -0.250717,0.135447 -0.544488,0.09562 -0.759388,-0.08756 L 5.8720432,10.614008 c -0.3562,-0.313579 -0.369191,-0.9259299 0,-1.2509349 z"
       id="path1862-6-2-7"
       style="fill:#d3dae3;fill-opacity:1;stroke-width:0.0407961"
       sodipodi:nodetypes="ccscsssscsccccc" />
    <path
       d="M 16.803022,1 H 5.196727 C 4.084076,1.0012 3.01729,1.443811 2.230628,2.230645 1.443807,3.017323 1.001271,4.084063 1,5.196724 v 11.606709 -1.58e-4 c 0.0012,1.11263 0.443807,2.179402 1.230628,2.966079 C 3.01729,20.556188 4.084076,20.998708 5.196727,21 h 11.606695 -1.61e-4 c 1.112652,-0.0012 2.179436,-0.443812 2.966098,-1.230646 0.786823,-0.786677 1.22936,-1.853449 1.230629,-2.966079 V 5.196944 C 20.998488,4.084314 20.556182,3.017542 19.769359,2.230866 18.982697,1.444031 17.915913,1.001512 16.80326,1.00022 Z M 5.633,3 h 10.734 c 0.739245,9.16e-4 1.536301,0.0032 2.059,0.526 0.522694,0.522677 0.573084,0.901432 0.574,1.640677 V 17 H 3 V 5.166677 C 3.000916,4.427432 3.05131,4.048709 3.574,3.526 4.096667,3.003323 4.893764,3.000913 5.633,3 Z"
       id="path1193-3-7-93-8"
       style="color:#d3dae3;fill:#d3dae3;fill-opacity:1;stroke-width:0.0396825"
       sodipodi:nodetypes="ccccccccccccccccccccccccc"
       class="ColorScheme-Text" />
  </g>
</svg>
