<?xml version="1.0" encoding="UTF-8" standalone="no"?>
<svg
   viewBox="0 0 22 22"
   version="1.1"
   id="svg1"
   sodipodi:docname="window-pin.svg"
   width="22"
   height="22"
   inkscape:version="1.3.2 (091e20ef0f, 2023-11-25)"
   xmlns:inkscape="http://www.inkscape.org/namespaces/inkscape"
   xmlns:sodipodi="http://sodipodi.sourceforge.net/DTD/sodipodi-0.dtd"
   xmlns:xlink="http://www.w3.org/1999/xlink"
   xmlns="http://www.w3.org/2000/svg"
   xmlns:svg="http://www.w3.org/2000/svg">
  <defs
     id="defs1">
    <linearGradient
       inkscape:collect="always"
       xlink:href="#linearGradient33227"
       id="linearGradient5058"
       x1="162.1324"
       y1="616.73682"
       x2="164.90538"
       y2="637.03711"
       gradientUnits="userSpaceOnUse"
       gradientTransform="matrix(0.50999966,0,0,0.43250136,-72.845084,-257.73506)" />
    <linearGradient
       inkscape:collect="always"
       id="linearGradient33227">
      <stop
         style="stop-color:#00ffcc;stop-opacity:1"
         offset="0"
         id="stop33223" />
      <stop
         style="stop-color:#00c8fa;stop-opacity:1;"
         offset="1"
         id="stop33225" />
    </linearGradient>
  </defs>
  <sodipodi:namedview
     id="namedview1"
     pagecolor="#ffffff"
     bordercolor="#999999"
     borderopacity="1"
     inkscape:showpageshadow="2"
     inkscape:pageopacity="0"
     inkscape:pagecheckerboard="0"
     inkscape:deskcolor="#d1d1d1"
     inkscape:zoom="16.882174"
     inkscape:cx="11.372943"
     inkscape:cy="10.6029"
     inkscape:window-width="1920"
     inkscape:window-height="994"
     inkscape:window-x="0"
     inkscape:window-y="0"
     inkscape:window-maximized="1"
     inkscape:current-layer="svg1" />
  <style
     type="text/css"
     id="current-color-scheme">
        .ColorScheme-Text {
            color:#fcfcfc;
        }
    </style>
  <rect
     id="rect16"
     y="0"
     x="0"
     height="22"
     width="22"
     style="fill:#cfd8dc;fill-opacity:0" />
  <path
     id="rect838"
     d="M 0,0 H 22 V 22 H 0 Z"
     fill="none" />
  <path
     inkscape:connector-curvature="0"
     id="path9068-9-37-8-0-1"
     d="M 13.433799,7.7571938 C 11.056714,9.7396432 7.1074747,8.3757344 3.9443131,10.035652 l 4.0979375,4.136316 4.4482494,3.456967 c 0.605822,-3.263486 0.957796,-9.7982846 0.943299,-9.8717412 z"
     style="display:inline;overflow:visible;visibility:visible;opacity:0.6;fill:url(#linearGradient5058);fill-opacity:1;fill-rule:nonzero;stroke:none;stroke-width:0.657517;marker:none"
     sodipodi:nodetypes="ccccc" />
  <path
     d="M 9.3190551,14.485102 C 8.9764984,14.143806 8.5126293,13.95219 8.0290939,13.95219 c -0.4836269,0 -0.9475252,0.191616 -1.2900518,0.532912 l -3.5735195,3.573482 c -0.1050184,0.102379 -0.1645778,0.242687 -0.1655144,0.389327 -8.005e-4,0.146646 0.057095,0.287657 0.1608187,0.391346 0.1037276,0.103689 0.2448073,0.161554 0.3915424,0.160735 0.1467225,-8.88e-4 0.2870995,-0.06047 0.38953,-0.165432 l 3.5753243,-3.573479 c 0.1363846,-0.135843 0.3211749,-0.212161 0.513699,-0.212161 0.1925238,0 0.3773198,0.07636 0.513578,0.212161 l 2.4167204,2.417123 c 0.31107,0.31383 0.753798,0.459666 1.190569,0.392156 0.436536,-0.0663 0.813373,-0.340724 1.0105,-0.735586 0.295674,-0.58551 0.49797,-1.213552 0.599469,-1.861552 0.09857,-0.641538 0.09857,-1.294224 0,-1.935738 -0.0764,-0.492661 -0.210864,-0.974626 -0.400809,-1.435701 L 15.765816,9.7048501 C 16.542051,9.8599568 17.345804,9.8017251 18.09151,9.5366038 18.53415,9.3776259 18.864586,9.0032099 18.967012,8.5443574 19.069446,8.0856279 18.929834,7.6063685 18.59676,7.2743273 L 14.723414,3.4029802 c -0.332092,-0.332731 -0.811597,-0.4724667 -1.270683,-0.3699717 -0.459088,0.1023802 -0.833701,0.4325501 -0.992636,0.87493 -0.265366,0.7454447 -0.32352,1.548749 -0.168453,2.324491 L 9.90193,8.6445087 C 9.444373,8.4560662 8.9661598,8.3222065 8.4772412,8.2455619 c -0.6417483,-0.09851 -1.2948933,-0.09851 -1.9366116,0 C 5.8922958,8.3470039 5.2638409,8.5491976 4.6779966,8.8448382 4.2817606,9.0404438 4.0067775,9.417785 3.9420321,9.8546988 3.8723762,10.289922 4.0150907,10.732208 4.3260574,11.044775 l 4.2184432,4.216306 v 0 l 0.7745545,-0.775979 v 0 L 5.100672,10.265422 C 5.038765,10.203622 5.009987,10.11596 5.02337,10.029544 5.036649,9.9431353 5.090444,9.8681051 5.1680957,9.8278313 6.14885,9.3333016 7.2608432,9.1605942 8.3455598,9.3343541 c 1.084717,0.1737678 2.0869782,0.6850919 2.8640542,1.4611639 0.77707,0.776193 1.289356,1.777482 1.464045,2.86152 0.174569,1.084041 0.0026,2.19558 -0.491503,3.17613 -0.04029,0.07762 -0.115358,0.131382 -0.201814,0.14465 -0.08645,0.01333 -0.17421,-0.01543 -0.236001,-0.07722 z"
     id="path64-36"
     sodipodi:nodetypes="cscccscccsccccccccccccccccccccccccccccccccccc"
     style="color:#d6dbf1;fill:#d3dae3;fill-opacity:1;stroke-width:0.0338151"
     class="ColorScheme-Text" />
</svg>
