/* XPM */
static char * close_prelight_xpm[] = {
"20 24 72 1",
" 	c #455D7C",
".	c #B2CCED",
"+	c #98B9E2",
"@	c #86ABD9",
"#	c #82A8D7",
"$	c #96B8E1",
"%	c #84A9D8",
"&	c #729BCD",
"*	c #48668A",
"=	c #7099CC",
"-	c #8BAFDC",
";	c #7EA4D4",
">	c #B0C9E9",
",	c #8DADD6",
"'	c #7FA5D5",
")	c #9EBDE5",
"!	c #AEC9E9",
"~	c #9EBCE1",
"{	c #81A7D6",
"]	c #ADC7E8",
"^	c #4E76A8",
"/	c #537AAB",
"(	c #8DABD2",
"_	c #7393BB",
":	c #C5D7EE",
"<	c #ABC5E7",
"[	c #C6D5E9",
"}	c #CEDBEB",
"|	c #5B80AF",
"1	c #8BAAD1",
"2	c #DDE7F4",
"3	c #84A9D7",
"4	c #A9C5E6",
"5	c #557BAC",
"6	c #E1EAF5",
"7	c #5B80AE",
"8	c #85AAD8",
"9	c #A8C3E5",
"0	c #89A9D0",
"a	c #D0DCEC",
"b	c #D0DDEC",
"c	c #A6C2E5",
"d	c #88A8D0",
"e	c #88ACDA",
"f	c #9DBBE0",
"g	c #82A3CD",
"h	c #89AEDB",
"i	c #9CB9DF",
"j	c #81A2CC",
"k	c #8BAFDB",
"l	c #99B8DE",
"m	c #8CB0DC",
"n	c #98B7DD",
"o	c #C3D3E8",
"p	c #7FA1CB",
"q	c #DCE7F4",
"r	c #8EB1DD",
"s	c #96B5DC",
"t	c #7DA0CA",
"u	c #B9CEE8",
"v	c #8FB2DE",
"w	c #95B4DB",
"x	c #91B3DF",
"y	c #93B2D9",
"z	c #88ADDB",
"A	c #8DB1DD",
"B	c #83A5CF",
"C	c #90B1D9",
"D	c #7CA3D3",
"E	c #7BA2D2",
"F	c #94B6E1",
"G	c #79A1D1",
"                    ",
"....................",
"++@##############@++",
"$%&**************&%$",
"%=*-............-*=%",
";*@>>>>>>>>>>>>>>,*;",
"'*)!!!!!!!!!!!!!!~*'",
"{*)]]]^/(]](/_:]]~*{",
"#*)<<^[}|11|}2_<<~*#",
"3*)445}6}|7}6}544~*3",
"8*)990|}6ab6}|099~*8",
"@*)cccd|a66b7dccc~*@",
"e*)fffg7b66a7gfff~*e",
"h*)iij7}6ba6}7jii~*h",
"k*)ll5}6}77}6}5ll~*k",
"m*)nn^o}7pp7}q_nn~*m",
"r*)sss^/tsst/_uss~*r",
"v*)wwwwwwwwwwwwww~*v",
"x*@yyyyyyyyyyyyyy,*x",
"zA*BCCCCCCCCCCCCB*Az",
"D@-**************-@D",
"EEAFFFFFFFFFFFFFFAEE",
"GGGGGGGGGGGGGGGGGGGG",
"^^^^^^^^^^^^^^^^^^^^"};
