<?xml version="1.0" encoding="UTF-8" standalone="no"?>
<svg
   width="62"
   height="62"
   version="1.1"
   id="svg29"
   sodipodi:docname="spectacle.svg"
   inkscape:version="1.4.2 (unknown)"
   xmlns:inkscape="http://www.inkscape.org/namespaces/inkscape"
   xmlns:sodipodi="http://sodipodi.sourceforge.net/DTD/sodipodi-0.dtd"
   xmlns:xlink="http://www.w3.org/1999/xlink"
   xmlns="http://www.w3.org/2000/svg"
   xmlns:svg="http://www.w3.org/2000/svg">
  <defs
     id="defs29">
    <linearGradient
       id="linearGradient29"
       inkscape:collect="always">
      <stop
         style="stop-color:#2d3d53;stop-opacity:1;"
         offset="0"
         id="stop29" />
      <stop
         style="stop-color:#354864;stop-opacity:1;"
         offset="1"
         id="stop30" />
    </linearGradient>
    <linearGradient
       inkscape:collect="always"
       xlink:href="#linearGradient29"
       id="linearGradient30"
       x1="30.782633"
       y1="60"
       x2="30.193521"
       y2="5"
       gradientUnits="userSpaceOnUse"
       gradientTransform="matrix(0.99999999,0,0,0.98245614,-0.99999992,-0.92982455)" />
    <linearGradient
       id="paint157_linear_890_11"
       x1="803"
       y1="805"
       x2="763"
       y2="765"
       gradientUnits="userSpaceOnUse"
       gradientTransform="translate(-758,-692)">
      <stop
         offset="0.31471401"
         stop-color="#2E2E41"
         id="stop1056"
         style="stop-color:#8a8aac;stop-opacity:1;" />
      <stop
         offset="0.71113902"
         stop-color="#566C80"
         id="stop1057"
         style="stop-color:#748ca2;stop-opacity:1;" />
    </linearGradient>
    <linearGradient
       id="paint158_linear_890_11"
       x1="792"
       y1="794"
       x2="774"
       y2="776"
       gradientUnits="userSpaceOnUse"
       gradientTransform="translate(-758,-692)">
      <stop
         offset="0.304478"
         stop-color="#2E2E41"
         id="stop1058" />
      <stop
         offset="1"
         stop-color="#566C80"
         id="stop1059" />
    </linearGradient>
    <linearGradient
       id="paint159_linear_890_11"
       x1="788"
       y1="790"
       x2="778"
       y2="780"
       gradientUnits="userSpaceOnUse"
       gradientTransform="translate(-758,-692)">
      <stop
         offset="0.39139399"
         stop-color="#5200FF"
         id="stop1060"
         style="stop-color:#854cff;stop-opacity:1;" />
      <stop
         offset="1"
         stop-color="#0085FF"
         id="stop1061"
         style="stop-color:#40a4ff;stop-opacity:1;" />
    </linearGradient>
    <linearGradient
       id="paint160_linear_890_11"
       x1="784"
       y1="798"
       x2="782"
       y2="796"
       gradientUnits="userSpaceOnUse"
       gradientTransform="matrix(3.999999,0,0,3.999999,-3006.7517,-3112.4802)">
      <stop
         stop-color="#FF7E07"
         id="stop1062" />
      <stop
         offset="1"
         stop-color="#FFE607"
         id="stop1063" />
    </linearGradient>
    <linearGradient
       inkscape:collect="always"
       xlink:href="#paint157_linear_890_11"
       id="linearGradient18"
       gradientUnits="userSpaceOnUse"
       gradientTransform="matrix(0.9163636,0,0,0.89623998,-35.894543,-51.746109)"
       x1="49.666664"
       y1="69.090393"
       x2="96.333336"
       y2="115.75706" />
    <linearGradient
       inkscape:collect="always"
       xlink:href="#linearGradient28"
       id="linearGradient29-7"
       x1="14.512115"
       y1="14.516084"
       x2="41.481537"
       y2="41.485508"
       gradientUnits="userSpaceOnUse"
       gradientTransform="matrix(0.9513804,0,0,0.9304878,4.3643679,5.0333326)" />
    <linearGradient
       id="linearGradient28"
       inkscape:collect="always">
      <stop
         style="stop-color:#eff2f6;stop-opacity:1;"
         offset="0"
         id="stop28" />
      <stop
         style="stop-color:#b7c6cd;stop-opacity:1;"
         offset="1"
         id="stop29-9" />
    </linearGradient>
    <filter
       id="filter1030-6-5-2"
       x="-0.061720629"
       y="-0.058451215"
       width="1.1234413"
       height="1.1169024"
       color-interpolation-filters="sRGB">
      <feGaussianBlur
         stdDeviation="0.24897588"
         id="feGaussianBlur327-6-6" />
    </filter>
    <linearGradient
       inkscape:collect="always"
       xlink:href="#linearGradient958"
       id="linearGradient19"
       gradientUnits="userSpaceOnUse"
       gradientTransform="matrix(1.0371203,0,0,1.0143448,319.91391,-22.015698)"
       x1="-272.20999"
       y1="44.527"
       x2="-275.5"
       y2="50.384998" />
    <linearGradient
       id="linearGradient958"
       x1="-272.20999"
       x2="-275.5"
       y1="44.527"
       y2="50.384998"
       gradientTransform="matrix(0.41204,0,0,0.41204,123.57,-13.539)"
       gradientUnits="userSpaceOnUse">
      <stop
         stop-color="#3650ae"
         offset="0"
         id="stop286-7" />
      <stop
         stop-color="#388fc9"
         offset="1"
         id="stop288-5" />
    </linearGradient>
    <filter
       id="filter1040-5-2-7"
       x="-0.066213406"
       y="-0.054852634"
       width="1.1324268"
       height="1.1097053"
       color-interpolation-filters="sRGB">
      <feGaussianBlur
         stdDeviation="0.2340379"
         id="feGaussianBlur335-7-9" />
    </filter>
    <linearGradient
       inkscape:collect="always"
       xlink:href="#linearGradient966"
       id="linearGradient20"
       gradientUnits="userSpaceOnUse"
       gradientTransform="matrix(1.0371203,0,0,1.0143448,319.91391,-22.015698)"
       x1="-272.85999"
       y1="54.907001"
       x2="-267.62"
       y2="49.026001" />
    <linearGradient
       id="linearGradient966"
       x1="-272.85999"
       x2="-267.62"
       y1="54.907001"
       y2="49.026001"
       gradientTransform="matrix(0.41204,0,0,0.41204,123.57,-13.539)"
       gradientUnits="userSpaceOnUse">
      <stop
         stop-color="#3491cb"
         offset="0"
         id="stop294" />
      <stop
         stop-color="#3850bb"
         offset="1"
         id="stop296" />
    </linearGradient>
    <filter
       id="filter1046-3-6-2"
       x="-0.047273067"
       y="-0.082104253"
       width="1.0945461"
       height="1.1642085"
       color-interpolation-filters="sRGB">
      <feGaussianBlur
         stdDeviation="0.22334751"
         id="feGaussianBlur343-0-3" />
    </filter>
    <linearGradient
       inkscape:collect="always"
       xlink:href="#linearGradient974"
       id="linearGradient21"
       gradientUnits="userSpaceOnUse"
       gradientTransform="matrix(1.0371203,0,0,1.0143448,319.91391,-22.015698)"
       x1="-277.66"
       y1="59.727001"
       x2="-270.88"
       y2="58.222" />
    <linearGradient
       id="linearGradient974"
       x1="-277.66"
       x2="-270.88"
       y1="59.727001"
       y2="58.222"
       gradientTransform="matrix(0.41204,0,0,0.41204,123.57,-13.539)"
       gradientUnits="userSpaceOnUse">
      <stop
         stop-color="#2fb1dc"
         offset="0"
         id="stop302" />
      <stop
         stop-color="#3491cb"
         offset="1"
         id="stop304" />
    </linearGradient>
    <filter
       id="filter1052-5-1-9"
       x="-0.061679681"
       y="-0.058409123"
       width="1.1233594"
       height="1.1168182"
       color-interpolation-filters="sRGB">
      <feGaussianBlur
         stdDeviation="0.24881069"
         id="feGaussianBlur351-8-2" />
    </filter>
    <linearGradient
       inkscape:collect="always"
       xlink:href="#linearGradient982"
       id="linearGradient22"
       gradientUnits="userSpaceOnUse"
       gradientTransform="matrix(1.0371203,0,0,1.0143448,319.91391,-22.015698)"
       x1="-282.60999"
       y1="54.153999"
       x2="-278.76001"
       y2="62.018002" />
    <linearGradient
       id="linearGradient982"
       x1="-282.60999"
       x2="-278.76001"
       y1="54.153999"
       y2="62.018002"
       gradientTransform="matrix(0.41204,0,0,0.41204,123.57,-13.539)"
       gradientUnits="userSpaceOnUse">
      <stop
         stop-color="#30add9"
         offset="0"
         id="stop310-3" />
      <stop
         stop-color="#329ed2"
         offset="1"
         id="stop312" />
    </linearGradient>
    <filter
       id="filter1058-6-0-9"
       x="-0.066213588"
       y="-0.054852655"
       width="1.1324272"
       height="1.1097053"
       color-interpolation-filters="sRGB">
      <feGaussianBlur
         stdDeviation="0.23403799"
         id="feGaussianBlur359-2-7" />
    </filter>
    <linearGradient
       inkscape:collect="always"
       xlink:href="#linearGradient990-5"
       id="linearGradient23"
       gradientUnits="userSpaceOnUse"
       gradientTransform="matrix(1.0371203,0,0,1.0143448,319.91391,-22.015698)"
       x1="-286.34"
       y1="57.278"
       x2="-282.53"
       y2="49.414001" />
    <linearGradient
       id="linearGradient990-5"
       x1="-286.34"
       x2="-282.53"
       y1="57.278"
       y2="49.414001"
       gradientTransform="matrix(0.41204,0,0,0.41204,123.57,-13.539)"
       gradientUnits="userSpaceOnUse">
      <stop
         stop-color="#329fd2"
         offset="0"
         id="stop318-6" />
      <stop
         stop-color="#2c80c1"
         offset="1"
         id="stop320-2" />
    </linearGradient>
    <filter
       id="filter1064-9-9-1"
       x="-0.04727349"
       y="-0.082104264"
       width="1.094547"
       height="1.1642085"
       color-interpolation-filters="sRGB">
      <feGaussianBlur
         stdDeviation="0.22334755"
         id="feGaussianBlur367-2-2" />
    </filter>
    <linearGradient
       inkscape:collect="always"
       xlink:href="#linearGradient998"
       id="linearGradient24"
       gradientUnits="userSpaceOnUse"
       gradientTransform="matrix(1.0371203,0,0,1.0143448,319.91391,-22.015698)"
       x1="-281.51001"
       y1="43.16"
       x2="-282.54999"
       y2="49.908001" />
    <linearGradient
       id="linearGradient998"
       x1="-281.51001"
       x2="-282.54999"
       y1="43.16"
       y2="49.908001"
       gradientTransform="matrix(0.41204,0,0,0.41204,123.57,-13.539)"
       gradientUnits="userSpaceOnUse">
      <stop
         stop-color="#3857ba"
         offset="0"
         id="stop326" />
      <stop
         stop-color="#367dc1"
         offset="1"
         id="stop328-9" />
    </linearGradient>
    <filter
       id="filter1103-1-7-1"
       x="-0.05988692"
       y="-0.060124935"
       width="1.1197738"
       height="1.1202499"
       color-interpolation-filters="sRGB">
      <feGaussianBlur
         stdDeviation="0.60007942"
         id="feGaussianBlur375-3-9" />
    </filter>
    <filter
       id="filter1299-2-9-4"
       x="-0.024000055"
       y="-0.024000055"
       width="1.0480001"
       height="1.0480001"
       color-interpolation-filters="sRGB">
      <feGaussianBlur
         stdDeviation="0.18834042"
         id="feGaussianBlur383-3-5" />
    </filter>
    <linearGradient
       inkscape:collect="always"
       xlink:href="#linearGradient958"
       id="linearGradient26"
       gradientUnits="userSpaceOnUse"
       gradientTransform="matrix(0.41204,0,0,0.41204,123.57,-13.539)"
       x1="-272.20999"
       y1="44.527"
       x2="-275.5"
       y2="50.384998" />
    <filter
       id="filter1229-7-7-6"
       x="-0.069095556"
       y="-0.10709949"
       width="1.1381911"
       height="1.214199"
       color-interpolation-filters="sRGB">
      <feGaussianBlur
         stdDeviation="0.1347133"
         id="feGaussianBlur391-8-1" />
    </filter>
    <linearGradient
       inkscape:collect="always"
       xlink:href="#linearGradient1227"
       id="linearGradient27"
       gradientUnits="userSpaceOnUse"
       gradientTransform="translate(237.02,-44.947)"
       x1="-228.53999"
       y1="49.422001"
       x2="-228.53999"
       y2="52.341999" />
    <linearGradient
       id="linearGradient1227"
       x1="-228.53999"
       x2="-228.53999"
       y1="49.422001"
       y2="52.341999"
       gradientTransform="translate(237.02,-44.947)"
       gradientUnits="userSpaceOnUse">
      <stop
         stop-color="#fff"
         offset="0"
         id="stop342" />
      <stop
         stop-color="#fff"
         stop-opacity="0"
         offset="1"
         id="stop344" />
    </linearGradient>
    <filter
       id="filter5"
       x="-0.069095559"
       y="-0.10709949"
       width="1.1381911"
       height="1.2141989"
       color-interpolation-filters="sRGB">
      <feGaussianBlur
         stdDeviation="0.1347133"
         id="feGaussianBlur5" />
    </filter>
    <filter
       id="filter1251-0-5-2"
       x="-0.20800194"
       y="-0.28363517"
       width="1.4160039"
       height="1.5672703"
       color-interpolation-filters="sRGB">
      <feGaussianBlur
         stdDeviation="0.069956252"
         id="feGaussianBlur394-0-0" />
    </filter>
    <linearGradient
       inkscape:collect="always"
       xlink:href="#linearGradient958"
       id="linearGradient1"
       gradientUnits="userSpaceOnUse"
       gradientTransform="matrix(1.0371203,0,0,1.0143448,319.91391,-22.015698)"
       x1="-272.20999"
       y1="44.527"
       x2="-275.5"
       y2="50.384998" />
    <linearGradient
       inkscape:collect="always"
       xlink:href="#paint160_linear_890_11"
       id="linearGradient2"
       gradientUnits="userSpaceOnUse"
       gradientTransform="matrix(3.7185762,0,0,3.6369152,-2867.8169,-2884.9853)"
       x1="784"
       y1="798"
       x2="782"
       y2="796" />
  </defs>
  <sodipodi:namedview
     id="namedview29"
     pagecolor="#ffffff"
     bordercolor="#000000"
     borderopacity="0.25"
     inkscape:showpageshadow="2"
     inkscape:pageopacity="0.0"
     inkscape:pagecheckerboard="0"
     inkscape:deskcolor="#d1d1d1"
     inkscape:zoom="7.0710678"
     inkscape:cx="25.102291"
     inkscape:cy="21.425336"
     inkscape:window-width="1920"
     inkscape:window-height="994"
     inkscape:window-x="0"
     inkscape:window-y="0"
     inkscape:window-maximized="1"
     inkscape:current-layer="svg29" />
  <g
     id="g3">
    <rect
       style="opacity:0.2;stroke-width:0.99119"
       width="56"
       height="55.017544"
       x="3"
       y="3.9824562"
       ry="13.754386"
       id="rect1" />
    <rect
       style="fill:url(#linearGradient30);stroke-width:0.99119"
       width="56"
       height="55.017544"
       x="3"
       y="3"
       ry="13.754386"
       id="rect2" />
    <path
       style="opacity:0.1;fill:#ffffff;stroke-width:0.99119"
       d="M 17,3 C 9.2439999,3 3,9.1344561 3,16.754386 v 0.982456 C 3,10.116912 9.2439999,3.9824562 17,3.9824562 h 27.999999 c 7.756,0 14,6.1344558 14,13.7543858 V 16.754386 C 58.999999,9.1344561 52.755999,3 44.999999,3 Z"
       id="path28" />
    <g
       id="g2"
       transform="matrix(0.98214288,0,0,1,0.55357131,0)">
      <path
         d="M 52.381817,31.087728 C 52.381817,42.637582 42.809174,52 30.999997,52 19.190818,52 9.6181818,42.637582 9.6181818,31.087728 c 0,-11.54984 9.5726362,-20.912263 21.3818152,-20.912263 11.809177,0 21.38182,9.362423 21.38182,20.912263 z"
         id="path155-6"
         style="fill:url(#linearGradient18);stroke-width:0.906246" />
      <ellipse
         cx="31"
         cy="31.08773"
         stroke-width="1.02567"
         id="circle409-3-5"
         style="fill:url(#linearGradient29-7)"
         rx="12.82909"
         ry="12.547359" />
      <ellipse
         cx="31"
         cy="31.08773"
         fill="#3871ba"
         stroke-width="1.02567"
         id="circle411-2-4"
         rx="10.602518"
         ry="10.369684" />
      <path
         transform="matrix(0.96619019,0,0,0.98669925,306.12055,-20.378626)"
         d="m -284.85,42.218 a 10.223,10.223 0 0 0 -2.0288,0.21445 l 0.2899,0.50177 5.489,9.5067 3.9025,-6.7591 a 10.223,10.223 0 0 0 -7.6526,-3.4638 z"
         filter="url(#filter1030)"
         opacity="0.1"
         id="path413-0-7"
         style="filter:url(#filter1030-6-5-2)" />
      <path
         d="m 30.971808,20.808885 a 10.602519,10.369684 0 0 0 -2.104119,0.217526 l 0.300661,0.508946 5.692533,9.642972 4.047146,-6.856257 a 10.602519,10.369684 0 0 0 -7.936724,-3.513428 z"
         fill="url(#linearGradient958)"
         stroke-width="1.02567"
         id="path415-6-6"
         style="fill:url(#linearGradient1)" />
      <path
         transform="matrix(0.98277746,0,0,0.96338635,310.97843,-19.716411)"
         d="m -277.19,45.682 -0.42269,0.73276 -5.489,9.5072 h 7.8588 a 10.223,10.223 0 0 0 0.62424,-3.4803 10.223,10.223 0 0 0 -2.5714,-6.7597 z"
         filter="url(#filter1040)"
         opacity="0.1"
         id="path417-1-5"
         style="filter:url(#filter1040-5-2-7)" />
      <path
         d="m 38.916838,24.322559 -0.438367,0.743281 -5.692534,9.64371 h 8.150673 a 10.602519,10.369684 0 0 0 0.647432,-3.530168 10.602519,10.369684 0 0 0 -2.666801,-6.856749 z"
         stroke-width="1.02567"
         id="path419-5-6"
         style="fill:url(#linearGradient20)" />
      <path
         transform="matrix(0.95141516,0,0,0.97530134,302.26949,-20.016746)"
         d="m -286.59,55.922 3.7692,6.5287 a 10.223,10.223 0 0 0 7.5699,-6.5287 h -0.36121 z"
         filter="url(#filter1046)"
         opacity="0.1"
         id="path421-5-9"
         style="filter:url(#filter1046-3-6-2)" />
      <path
         d="m 29.167091,34.709476 3.90896,6.622389 a 10.602519,10.369684 0 0 0 7.850893,-6.622389 h -0.374611 z"
         stroke-width="1.02567"
         id="path423-4-3"
         style="fill:url(#linearGradient21)" />
      <path
         transform="matrix(1.000296,0,0,0.96589737,315.98734,-19.499776)"
         d="m -288.6,52.441 -3.9025,6.7597 a 10.223,10.223 0 0 0 7.6521,3.4638 10.223,10.223 0 0 0 2.0293,-0.21445 l -0.2899,-0.50177 z"
         filter="url(#filter1052)"
         opacity="0.1"
         id="path425-7-7"
         style="filter:url(#filter1052-5-1-9)" />
      <path
         d="m 27.082732,31.17857 -4.047145,6.856749 a 10.602519,10.369684 0 0 0 7.936221,3.513427 10.602519,10.369684 0 0 0 2.104621,-0.217521 l -0.30066,-0.508945 z"
         stroke-width="1.02567"
         id="path427-6-4"
         style="fill:url(#linearGradient22)" />
      <path
         transform="matrix(0.978423,0,0,0.97018083,309.59405,-19.371765)"
         d="m -294.45,48.961 a 10.223,10.223 0 0 0 -0.62425,3.4798 10.223,10.223 0 0 0 2.5708,6.7602 l 0.42322,-0.73276 5.489,-9.5072 z"
         opacity="0.1"
         id="path429-5-5"
         style="filter:url(#filter1058-6-0-9)" />
      <path
         d="m 21.015664,27.648894 a 10.602519,10.369684 0 0 0 -0.647432,3.529676 10.602519,10.369684 0 0 0 2.666047,6.857241 l 0.438921,-0.74328 5.692532,-9.643711 z"
         stroke-width="1.02567"
         id="path431-6-2"
         style="fill:url(#linearGradient23)" />
      <path
         transform="matrix(0.97092226,0,0,0.96466645,307.37907,-19.423461)"
         d="m -286.88,42.433 a 10.223,10.223 0 0 0 -7.5694,6.5287 h 11.339 z"
         filter="url(#filter1064)"
         opacity="0.1"
         id="path433-9-5"
         style="filter:url(#filter1064-9-9-1)" />
      <path
         d="m 28.866305,21.026998 a 10.602519,10.369684 0 0 0 -7.85039,6.622389 h 11.759854 z"
         stroke-width="1.02567"
         id="path435-3-4"
         style="fill:url(#linearGradient24)" />
      <path
         transform="matrix(0.29336077,0,0,0.28027172,346.77071,-24.241132)"
         d="m -1076.8,161.32 a 35.996,37.586 0 0 0 -7.1445,0.78711 l 1.0215,1.8457 11.789,21.32 11.238,-19.465 a 35.996,37.586 0 0 0 -16.904,-4.4883 z"
         filter="url(#filter1103)"
         opacity="0.15"
         id="path437-7-7"
         style="filter:url(#filter1103-1-7-1)" />
      <path
         d="m 30.97508,20.810116 a 10.602519,10.369684 0 0 0 -2.104093,0.217531 l 0.30066,0.50897 5.020485,8.504653 3.867932,-6.552229 A 10.602519,10.369684 0 0 0 30.974853,20.81015 Z"
         stroke-width="0.271352"
         id="path439-4-4"
         style="fill:url(#linearGradient19)" />
      <circle
         transform="matrix(1.1028654,0,0,1.0786461,334.13518,-16.737678)"
         cx="-274.87"
         cy="44.339001"
         r="9.4169998"
         fill="none"
         opacity="0.25"
         stroke-dashoffset="0.42096"
         stroke-width="0.24372"
         id="circle441-5-4"
         style="filter:url(#filter1299-2-9-4)" />
      <ellipse
         transform="matrix(2.5008282,0,0,2.7150784,9.829973,9.0305063)"
         cx="8.4666004"
         cy="6.4478998"
         rx="2.3396001"
         ry="1.5094"
         fill="url(#linearGradient2117)"
         filter="url(#filter1229)"
         opacity="0.4"
         id="ellipse443-2-3"
         style="fill:url(#linearGradient26);filter:url(#filter1229-7-7-6)" />
      <ellipse
         transform="matrix(2.5008282,0,0,2.7150784,9.829973,9.0305063)"
         cx="8.4666004"
         cy="6.4478998"
         rx="2.3396001"
         ry="1.5094"
         opacity="0.4"
         id="ellipse445-5-0"
         style="fill:url(#linearGradient27);filter:url(#filter1229-7-7-6)" />
      <ellipse
         transform="matrix(2.5170379,0,0,2.4617631,9.6922154,10.244057)"
         cx="8.4666004"
         cy="5.6413002"
         rx="0.40358999"
         ry="0.29596999"
         fill="#ffffff"
         filter="url(#filter1251)"
         opacity="0.7"
         id="ellipse447-4-7"
         style="filter:url(#filter1251-0-5-2)" />
      <path
         d="m 47.547667,13.636916 c 0,2.007578 -1.665923,3.636916 -3.718577,3.636916 -2.052655,0 -3.718578,-1.629338 -3.718578,-3.636916 C 40.110512,11.629338 41.776435,10 43.82909,10 c 2.052654,0 3.718577,1.629338 3.718577,3.636916 z"
         id="path158-3"
         style="fill:url(#linearGradient2);stroke-width:3.67752" />
    </g>
  </g>
</svg>
