<?xml version="1.0" encoding="UTF-8" standalone="no"?>
<svg
   width="64"
   height="64"
   version="1.1"
   viewBox="0 0 16.933 16.933"
   id="svg7"
   sodipodi:docname="face-smile.svg"
   inkscape:version="1.4 (e7c3feb100, 2024-10-09)"
   xmlns:inkscape="http://www.inkscape.org/namespaces/inkscape"
   xmlns:sodipodi="http://sodipodi.sourceforge.net/DTD/sodipodi-0.dtd"
   xmlns:xlink="http://www.w3.org/1999/xlink"
   xmlns="http://www.w3.org/2000/svg"
   xmlns:svg="http://www.w3.org/2000/svg"
   xmlns:rdf="http://www.w3.org/1999/02/22-rdf-syntax-ns#"
   xmlns:cc="http://creativecommons.org/ns#"
   xmlns:dc="http://purl.org/dc/elements/1.1/">
  <sodipodi:namedview
     id="namedview7"
     pagecolor="#9c4444"
     bordercolor="#000000"
     borderopacity="0.25"
     inkscape:showpageshadow="2"
     inkscape:pageopacity="0.0"
     inkscape:pagecheckerboard="0"
     inkscape:deskcolor="#d1d1d1"
     inkscape:zoom="4.3531261"
     inkscape:cx="36.066035"
     inkscape:cy="25.958357"
     inkscape:window-width="1280"
     inkscape:window-height="669"
     inkscape:window-x="61"
     inkscape:window-y="142"
     inkscape:window-maximized="0"
     inkscape:current-layer="svg7"
     showgrid="false" />
  <defs
     id="defs2">
    <linearGradient
       id="linearGradient1"
       inkscape:collect="always">
      <stop
         style="stop-color:#d8dee9;stop-opacity:1;"
         offset="0"
         id="stop1" />
      <stop
         style="stop-color:#eceff4;stop-opacity:1;"
         offset="1"
         id="stop2" />
    </linearGradient>
    <linearGradient
       inkscape:collect="always"
       id="linearGradient1134">
      <stop
         style="stop-color:#2e3440;stop-opacity:1;"
         offset="0"
         id="stop1130" />
      <stop
         style="stop-color:#4c566a;stop-opacity:1;"
         offset="1"
         id="stop1132" />
    </linearGradient>
    <filter
       style="color-interpolation-filters:sRGB;"
       inkscape:label="Blur"
       id="filter3"
       x="-0.10843471"
       y="-0.10870992"
       width="1.2168694"
       height="1.2174198">
      <feGaussianBlur
         stdDeviation="0.5 0.5"
         result="blur"
         id="feGaussianBlur3" />
    </filter>
    <linearGradient
       inkscape:collect="always"
       xlink:href="#linearGradient1134"
       id="linearGradient4"
       x1="14.388208"
       y1="14.440324"
       x2="2.2869277"
       y2="2.3637428"
       gradientUnits="userSpaceOnUse" />
    <linearGradient
       inkscape:collect="always"
       xlink:href="#linearGradient1"
       id="linearGradient66"
       x1="12.20954"
       y1="11.951988"
       x2="4.8424535"
       y2="4.1277614"
       gradientUnits="userSpaceOnUse"
       gradientTransform="matrix(0.970299,0,0,0.970299,0.25154618,0.74239339)" />
  </defs>
  <metadata
     id="metadata2">
    <rdf:RDF>
      <cc:Work
         rdf:about="">
        <dc:format>image/svg+xml</dc:format>
        <dc:type
           rdf:resource="http://purl.org/dc/dcmitype/StillImage" />
      </cc:Work>
    </rdf:RDF>
  </metadata>
  <ellipse
     style="opacity:1;fill:none;stroke:#000000;stroke-width:0.582072;stroke-dasharray:none;stroke-opacity:1;filter:url(#filter3)"
     id="path1-5"
     cx="8.4450111"
     cy="8.423522"
     rx="6.8752708"
     ry="6.8578653" />
  <ellipse
     style="opacity:1;fill:#2b323e;stroke-width:0.58207188;stroke-opacity:1;stroke:#f5bde6;stroke-dasharray:none;fill-opacity:1"
     id="path1"
     cx="8.4450111"
     cy="8.423522"
     rx="6.8752708"
     ry="6.8578653" />
  <ellipse
     style="fill:url(#linearGradient4);stroke:none;stroke-width:0.515624;stroke-dasharray:none;stroke-opacity:1"
     id="path1-2"
     cx="8.4450111"
     cy="8.423522"
     rx="6.0904069"
     ry="6.0749874" />
  <path
     style="opacity:0.3;fill:#000000;stroke:none;stroke-width:0.106082;stroke-dasharray:none;stroke-opacity:0.6"
     d="M 8.1492324,13.011612 C 7.2182643,12.924686 6.41043,12.554995 5.7580209,11.917313 5.1159705,11.289756 4.7272617,10.488923 4.6184631,9.5695483 4.5989205,9.404408 4.5989205,8.9043722 4.6184631,8.7392316 4.728025,7.8134066 5.1188514,7.0123972 5.7691971,6.3807709 6.3811604,5.7864218 7.1198382,5.4318112 7.9935479,5.3129463 c 0.1108772,-0.015084 0.2310019,-0.020579 0.461287,-0.021091 0.3166805,-7.084e-4 0.423864,0.0075 0.6861646,0.052671 1.2179985,0.2096689 2.2733765,1.0103087 2.8133165,2.1342618 0.762262,1.5867438 0.352494,3.5016619 -0.991234,4.6321999 -0.593168,0.499057 -1.2818029,0.795108 -2.0700243,0.889926 -0.138987,0.01671 -0.607214,0.02345 -0.7438253,0.01067 z m 0.5939069,-1.942617 c 0.2017766,-0.04226 0.3751437,-0.115496 0.5528164,-0.233546 0.187605,-0.124652 0.4012227,-0.345808 0.5291803,-0.547854 0.048435,-0.07648 0.1115837,-0.198758 0.1115837,-0.216068 0,-0.0072 -0.03973,-0.01185 -0.1017775,-0.01185 H 9.7331647 l -0.060656,0.07476 c -0.089071,0.10978 -0.26291,0.269974 -0.3723306,0.343098 -0.2713443,0.181338 -0.5318113,0.262535 -0.8421592,0.262535 -0.2956785,0 -0.5573277,-0.08334 -0.8265238,-0.263249 -0.1080937,-0.07225 -0.3060908,-0.255624 -0.3814162,-0.353259 l -0.04929,-0.06389 h -0.108152 c -0.059486,0 -0.1081531,0.0036 -0.1081531,0.0079 0,0.0144 0.1243787,0.227223 0.1750738,0.299569 0.2722448,0.388519 0.6599869,0.641507 1.093466,0.713448 0.1233545,0.02047 0.3641672,0.01477 0.4901173,-0.0116 z M 7.2146562,8.3118614 C 7.5145079,8.2436618 7.7001357,7.9298366 7.6206749,7.6254402 7.5471511,7.3437887 7.2565872,7.1643303 6.9706347,7.223962 6.8795317,7.2429604 6.7742057,7.2970691 6.7054231,7.360208 6.4714062,7.5750229 6.4641674,7.9387284 6.6894368,8.1634167 6.8308497,8.3044649 7.0164903,8.3569334 7.2146562,8.3118614 Z m 2.7677227,0 C 10.282232,8.2436618 10.467859,7.9298366 10.388399,7.6254402 10.314874,7.3437887 10.024311,7.1643303 9.7383576,7.223962 9.6472546,7.2429604 9.5419286,7.2970691 9.4731456,7.360208 9.2391291,7.5750229 9.2318903,7.9387284 9.4571592,8.1634167 9.5985723,8.3044649 9.7842125,8.3569334 9.9823789,8.3118614 Z"
     id="path1-3-6" />
  <path
     style="fill:url(#linearGradient66);stroke:none;stroke-width:0.106082;stroke-dasharray:none;stroke-opacity:0.6"
     d="M 8.1492324,12.429541 C 7.2182643,12.342614 6.41043,11.972923 5.7580209,11.335241 5.1159705,10.707684 4.7272617,9.9068509 4.6184631,8.9874765 c -0.019543,-0.1651404 -0.019543,-0.6651762 0,-0.8303167 C 4.728025,7.2313347 5.1188514,6.4303254 5.7691971,5.798699 6.3811604,5.20435 7.1198382,4.8497394 7.9935479,4.7308745 c 0.1108772,-0.015084 0.2310019,-0.020579 0.461287,-0.021091 0.3166805,-7.084e-4 0.423864,0.0075 0.6861646,0.052671 1.2179985,0.2096689 2.2733765,1.0103087 2.8133165,2.1342618 0.762262,1.5867438 0.352494,3.5016627 -0.991234,4.6322007 -0.593168,0.499057 -1.2818029,0.795107 -2.0700243,0.889925 -0.138987,0.01671 -0.607214,0.02345 -0.7438253,0.01067 z M 8.7431393,10.486923 C 8.9449159,10.444663 9.118283,10.371428 9.2959557,10.253378 9.4835607,10.128726 9.6971784,9.9075698 9.825136,9.7055233 9.873571,9.6290433 9.9367197,9.5067649 9.9367197,9.4894551 c 0,-0.00725 -0.03973,-0.011855 -0.1017775,-0.011855 H 9.7331647 l -0.060656,0.074759 C 9.5834371,9.6621422 9.4095985,9.8223333 9.3001779,9.8954585 9.0288336,10.076795 8.7683666,10.157993 8.4580187,10.157993 8.1623402,10.157993 7.900691,10.074655 7.6314949,9.8947448 7.5234015,9.8225017 7.3254041,9.6391202 7.2500787,9.5414845 l -0.04929,-0.06389 h -0.108152 c -0.059486,0 -0.1081531,0.00356 -0.1081531,0.0079 0,0.014398 0.1243787,0.2272226 0.1750738,0.2995691 0.2722448,0.3885184 0.6599869,0.6415064 1.093466,0.7134474 0.1233545,0.02047 0.3641672,0.01477 0.4901173,-0.01161 z M 7.2146562,7.7297896 C 7.5145079,7.66159 7.7001357,7.3477648 7.6206749,7.0433684 7.5471511,6.7617169 7.2565872,6.5822585 6.9706347,6.6418902 6.8795317,6.6608886 6.7742057,6.7149973 6.7054231,6.7781362 6.4714062,6.9929511 6.4641674,7.3566565 6.6894368,7.5813448 6.8308497,7.7223931 7.0164903,7.7748616 7.2146562,7.7297896 Z m 2.7677227,0 C 10.282232,7.66159 10.467859,7.3477648 10.388399,7.0433684 10.314874,6.7617169 10.024311,6.5822585 9.7383576,6.6418902 9.6472546,6.6608886 9.5419286,6.7149973 9.4731456,6.7781362 9.2391291,6.9929511 9.2318903,7.3566565 9.4571592,7.5813448 9.5985723,7.7223931 9.7842125,7.7748616 9.9823789,7.7297896 Z"
     id="path1-3" />
</svg>
