<?xml version="1.0" encoding="UTF-8" standalone="no"?>
<svg
   width="64"
   height="64"
   version="1.1"
   viewBox="0 0 16.933 16.933"
   id="svg7"
   sodipodi:docname="Games.svg"
   inkscape:version="1.4 (e7c3feb100, 2024-10-09)"
   xmlns:inkscape="http://www.inkscape.org/namespaces/inkscape"
   xmlns:sodipodi="http://sodipodi.sourceforge.net/DTD/sodipodi-0.dtd"
   xmlns:xlink="http://www.w3.org/1999/xlink"
   xmlns="http://www.w3.org/2000/svg"
   xmlns:svg="http://www.w3.org/2000/svg"
   xmlns:rdf="http://www.w3.org/1999/02/22-rdf-syntax-ns#"
   xmlns:cc="http://creativecommons.org/ns#"
   xmlns:dc="http://purl.org/dc/elements/1.1/">
  <sodipodi:namedview
     id="namedview7"
     pagecolor="#9c4444"
     bordercolor="#000000"
     borderopacity="0.25"
     inkscape:showpageshadow="2"
     inkscape:pageopacity="0.0"
     inkscape:pagecheckerboard="0"
     inkscape:deskcolor="#d1d1d1"
     inkscape:zoom="4.3531261"
     inkscape:cx="36.984915"
     inkscape:cy="25.958357"
     inkscape:window-width="1280"
     inkscape:window-height="669"
     inkscape:window-x="423"
     inkscape:window-y="129"
     inkscape:window-maximized="0"
     inkscape:current-layer="svg7"
     showgrid="false" />
  <defs
     id="defs2">
    <linearGradient
       id="linearGradient1"
       inkscape:collect="always">
      <stop
         style="stop-color:#d8dee9;stop-opacity:1;"
         offset="0"
         id="stop1" />
      <stop
         style="stop-color:#eceff4;stop-opacity:1;"
         offset="1"
         id="stop2" />
    </linearGradient>
    <linearGradient
       inkscape:collect="always"
       id="linearGradient1134">
      <stop
         style="stop-color:#2e3440;stop-opacity:1;"
         offset="0"
         id="stop1130" />
      <stop
         style="stop-color:#4c566a;stop-opacity:1;"
         offset="1"
         id="stop1132" />
    </linearGradient>
    <filter
       style="color-interpolation-filters:sRGB;"
       inkscape:label="Blur"
       id="filter3"
       x="-0.10843471"
       y="-0.10870992"
       width="1.2168694"
       height="1.2174198">
      <feGaussianBlur
         stdDeviation="0.5 0.5"
         result="blur"
         id="feGaussianBlur3" />
    </filter>
    <linearGradient
       inkscape:collect="always"
       xlink:href="#linearGradient1134"
       id="linearGradient4"
       x1="14.388208"
       y1="14.440324"
       x2="2.2869277"
       y2="2.3637428"
       gradientUnits="userSpaceOnUse" />
    <filter
       style="color-interpolation-filters:sRGB"
       inkscape:label="Blur"
       id="filter3-8"
       x="-0.10843471"
       y="-0.10870992"
       width="1.2168694"
       height="1.2174198">
      <feGaussianBlur
         stdDeviation="0.5 0.5"
         result="blur"
         id="feGaussianBlur3-7" />
    </filter>
    <linearGradient
       inkscape:collect="always"
       xlink:href="#linearGradient1"
       id="linearGradient23"
       x1="11.961269"
       y1="11.219751"
       x2="4.9568825"
       y2="5.4457574"
       gradientUnits="userSpaceOnUse" />
  </defs>
  <metadata
     id="metadata2">
    <rdf:RDF>
      <cc:Work
         rdf:about="">
        <dc:format>image/svg+xml</dc:format>
        <dc:type
           rdf:resource="http://purl.org/dc/dcmitype/StillImage" />
      </cc:Work>
    </rdf:RDF>
  </metadata>
  <ellipse
     style="opacity:1;fill:none;stroke:#000000;stroke-width:0.582072;stroke-dasharray:none;stroke-opacity:1;filter:url(#filter3)"
     id="path1-5"
     cx="8.4450111"
     cy="8.423522"
     rx="6.8752708"
     ry="6.8578653" />
  <ellipse
     style="opacity:1;fill:#2b323e;stroke-width:0.58207188;stroke-opacity:1;stroke:#8aadf4;stroke-dasharray:none;fill-opacity:1"
     id="path1"
     cx="8.4450111"
     cy="8.423522"
     rx="6.8752708"
     ry="6.8578653" />
  <ellipse
     style="fill:url(#linearGradient4);stroke:none;stroke-width:0.515624;stroke-dasharray:none;stroke-opacity:1"
     id="path1-2"
     cx="8.4450111"
     cy="8.423522"
     rx="6.0904069"
     ry="6.0749874" />
  <path
     id="path1-3-3"
     style="fill:#000000;stroke:none;stroke-width:0.0867947;stroke-dasharray:none;stroke-dashoffset:2.2;stroke-opacity:0.6;opacity:0.3"
     d="M 10.449056,6.011039 C 10.331157,6.0109895 10.204956,6.058465 10.04701,6.1510089 9.671158,6.371228 9.1796129,6.4750867 8.5045902,6.4750867 7.8296329,6.4750867 7.3216901,6.3690182 6.9480754,6.1500695 6.6484856,5.9745061 6.4696269,5.9721793 6.2181977,6.1417055 5.5726939,6.5767089 5.0862046,7.9714083 4.9434888,9.7939256 c -0.085582,1.0928824 -0.00564,1.6690574 0.2771095,1.9933124 0.1363718,0.156333 0.471147,0.12983 0.7730903,-0.062 0.2559526,-0.16261 0.5609183,-0.521427 0.9252672,-1.088722 0.329241,-0.512632 0.727479,-0.6814705 1.6081792,-0.682914 0.8789478,-0.00138 1.2243651,0.164929 1.629783,0.788119 0.680197,1.045562 1.30891,1.409564 1.677691,0.971293 0.204303,-0.242795 0.241696,-0.47738 0.23202,-1.45412 C 12.048998,8.4845972 11.585201,6.8704816 10.916857,6.2544235 10.738857,6.0903483 10.600654,6.011193 10.449056,6.0111293 Z M 6.6305739,7.0565422 h 0.4076805 0.4076807 v 0.349441 0.3494416 H 7.7953765 8.1448169 V 8.192226 8.6290263 H 7.7953765 7.4459351 V 9.0075864 9.3861475 H 7.0767692 c -0.2028115,0 -0.3853935,-0.018179 -0.4067433,-0.039448 C 6.6486869,9.3253606 6.630578,9.1558811 6.630578,8.9690804 V 8.6290263 H 6.2811329 5.9316912 V 8.192226 7.7554248 h 0.3494417 0.349441 V 7.4059832 Z m 3.3234431,0 c 0.367783,0 0.525287,0.407494 0.260202,0.6725809 C 10.045633,7.8976875 9.8917775,7.9109376 9.7257543,7.7704599 9.4377823,7.526787 9.5880934,7.0565486 9.954017,7.0565486 Z M 9.2466825,7.803331 c 0.091835,6.37e-5 0.1843016,0.036668 0.2573829,0.1174115 0.1139215,0.1258832 0.126227,0.4140937 0.023488,0.5485853 C 9.3264908,8.7325447 8.843702,8.5632367 8.843702,8.2297924 c 0,-0.2530703 0.200944,-0.4266066 0.4029836,-0.4264686 z m 1.4437915,0.014183 c 0.10586,0.002 0.208618,0.03699 0.268655,0.1033235 0.113917,0.1258835 0.126223,0.4140921 0.02347,0.5485856 -0.213858,0.2799651 -0.683851,0.09258 -0.683851,-0.2724144 0,-0.1106324 0.04433,-0.2305476 0.106143,-0.2865035 0.07067,-0.063952 0.179726,-0.094926 0.285565,-0.092997 z M 9.9793799,8.5708762 c 0.3260571,0 0.4847081,0.3458533 0.2874421,0.627491 -0.06744,0.096271 -0.149677,0.1296283 -0.3193813,0.1296283 -0.1953809,0 -0.2407192,-0.025429 -0.319379,-0.1775455 C 9.4729662,8.8505232 9.6422407,8.5708668 9.9793799,8.5708668 Z" />
  <path
     id="path1-3"
     style="opacity:1;fill:url(#linearGradient23);stroke:none;stroke-width:0.0867947;stroke-dasharray:none;stroke-dashoffset:2.2;stroke-opacity:0.6"
     d="m 10.449056,5.4818828 c -0.117899,-4.95e-5 -0.2441,0.047426 -0.402046,0.1399699 C 9.671158,5.8420718 9.1796129,5.9459305 8.5045902,5.9459305 7.8296329,5.9459305 7.3216901,5.839862 6.9480754,5.6209133 6.6484856,5.4453499 6.4696269,5.4430231 6.2181977,5.6125493 5.5726939,6.0475527 5.0862046,7.4422521 4.9434888,9.2647694 c -0.085582,1.0928826 -0.00564,1.6690576 0.2771095,1.9933126 0.1363718,0.156333 0.471147,0.12983 0.7730903,-0.062 0.2559526,-0.16261 0.5609183,-0.521427 0.9252672,-1.088722 0.329241,-0.5126326 0.727479,-0.6814707 1.6081792,-0.6829142 0.8789478,-0.00138 1.2243651,0.1649288 1.629783,0.7881192 0.680197,1.045562 1.30891,1.409564 1.677691,0.971293 0.204303,-0.242795 0.241696,-0.47738 0.23202,-1.4541204 C 12.048998,7.955441 11.585201,6.3413254 10.916857,5.7252673 10.738857,5.5611921 10.600654,5.4820368 10.449056,5.4819731 Z M 6.6305739,6.527386 H 7.0382544 7.4459351 V 6.876827 7.2262686 H 7.7953765 8.1448169 V 7.6630698 8.0998701 H 7.7953765 7.4459351 V 8.4784302 8.8569913 H 7.0767692 c -0.2028115,0 -0.3853935,-0.018179 -0.4067433,-0.039448 C 6.6486869,8.7962044 6.630578,8.6267249 6.630578,8.4399242 V 8.0998701 H 6.2811329 5.9316912 V 7.6630698 7.2262686 h 0.3494417 0.349441 V 6.876827 Z m 3.3234431,0 c 0.367783,0 0.525287,0.407494 0.260202,0.6725809 C 10.045633,7.3685313 9.8917775,7.3817814 9.7257543,7.2413037 9.4377823,6.9976308 9.5880934,6.5273924 9.954017,6.5273924 Z M 9.2466825,7.2741748 c 0.091835,6.37e-5 0.1843016,0.036668 0.2573829,0.1174115 C 9.6179869,7.5174695 9.6302924,7.80568 9.5275536,7.9401716 9.3264908,8.2033885 8.843702,8.0340805 8.843702,7.7006362 c 0,-0.2530703 0.200944,-0.4266066 0.4029836,-0.4264686 z m 1.4437915,0.014183 c 0.10586,0.002 0.208618,0.03699 0.268655,0.1033235 0.113917,0.1258835 0.126223,0.4140921 0.02347,0.5485856 -0.213858,0.2799651 -0.683851,0.09258 -0.683851,-0.2724144 0,-0.1106324 0.04433,-0.2305476 0.106143,-0.2865035 0.07067,-0.063952 0.179726,-0.094926 0.285565,-0.092997 z M 9.9793799,8.04172 c 0.3260571,0 0.4847081,0.3458533 0.2874421,0.627491 -0.06744,0.096271 -0.149677,0.1296283 -0.3193813,0.1296283 -0.1953809,0 -0.2407192,-0.025429 -0.319379,-0.1775455 C 9.4729662,8.321367 9.6422407,8.0417106 9.9793799,8.0417106 Z" />
</svg>
