<?xml version="1.0" encoding="UTF-8" standalone="no"?>
<svg
   width="64"
   height="64"
   version="1.1"
   viewBox="0 0 16.933 16.933"
   id="svg7"
   sodipodi:docname="Settings Template.svg"
   inkscape:version="1.4 (e7c3feb100, 2024-10-09)"
   xmlns:inkscape="http://www.inkscape.org/namespaces/inkscape"
   xmlns:sodipodi="http://sodipodi.sourceforge.net/DTD/sodipodi-0.dtd"
   xmlns:xlink="http://www.w3.org/1999/xlink"
   xmlns="http://www.w3.org/2000/svg"
   xmlns:svg="http://www.w3.org/2000/svg"
   xmlns:rdf="http://www.w3.org/1999/02/22-rdf-syntax-ns#"
   xmlns:cc="http://creativecommons.org/ns#"
   xmlns:dc="http://purl.org/dc/elements/1.1/">
  <sodipodi:namedview
     id="namedview7"
     pagecolor="#9c4444"
     bordercolor="#000000"
     borderopacity="0.25"
     inkscape:showpageshadow="2"
     inkscape:pageopacity="0.0"
     inkscape:pagecheckerboard="0"
     inkscape:deskcolor="#d1d1d1"
     inkscape:zoom="6.15625"
     inkscape:cx="15.756345"
     inkscape:cy="29.563452"
     inkscape:window-width="1226"
     inkscape:window-height="669"
     inkscape:window-x="124"
     inkscape:window-y="132"
     inkscape:window-maximized="0"
     inkscape:current-layer="svg7"
     showgrid="false" />
  <defs
     id="defs2">
    <rect
       x="67.489848"
       y="35.60533"
       width="15.337563"
       height="22.51269"
       id="rect3808" />
    <linearGradient
       inkscape:collect="always"
       id="linearGradient1134">
      <stop
         style="stop-color:#161616;stop-opacity:1;"
         offset="0"
         id="stop1130" />
      <stop
         style="stop-color:#404040;stop-opacity:1;"
         offset="1"
         id="stop1132" />
    </linearGradient>
    <linearGradient
       inkscape:collect="always"
       id="linearGradient883">
      <stop
         style="stop-color:#808080;stop-opacity:1;"
         offset="0"
         id="stop879" />
      <stop
         style="stop-color:#3e3e3e;stop-opacity:1;"
         offset="0.5"
         id="stop1216" />
      <stop
         style="stop-color:#242424;stop-opacity:1;"
         offset="1"
         id="stop881" />
    </linearGradient>
    <linearGradient
       inkscape:collect="always"
       xlink:href="#linearGradient883"
       id="linearGradient885"
       x1="2.1085808"
       y1="2.0236168"
       x2="14.846128"
       y2="15.071845"
       gradientUnits="userSpaceOnUse" />
    <linearGradient
       inkscape:collect="always"
       xlink:href="#linearGradient1134"
       id="linearGradient1136"
       x1="14.971222"
       y1="14.703373"
       x2="2.0756054"
       y2="2.0069976"
       gradientUnits="userSpaceOnUse" />
    <filter
       style="color-interpolation-filters:sRGB;"
       inkscape:label="Blur"
       id="filter1283"
       x="-0.082344266"
       y="-0.082344266"
       width="1.1646885"
       height="1.1646885">
      <feGaussianBlur
         stdDeviation="0.5 0.5"
         result="blur"
         id="feGaussianBlur1281" />
    </filter>
  </defs>
  <metadata
     id="metadata2">
    <rdf:RDF>
      <cc:Work
         rdf:about="">
        <dc:format>image/svg+xml</dc:format>
        <dc:type
           rdf:resource="http://purl.org/dc/dcmitype/StillImage" />
      </cc:Work>
    </rdf:RDF>
  </metadata>
  <rect
     style="fill:#000000;stroke:none;stroke-width:0.539739;stroke-dasharray:none;filter:url(#filter1283)"
     id="rect246-1"
     width="14.572964"
     height="14.572964"
     x="1.1932471"
     y="1.2138842"
     rx="2.1589575"
     ry="2.1589575" />
  <rect
     style="opacity:1;fill:#000000;stroke:url(#linearGradient885);stroke-width:0.52915625;stroke-dasharray:none"
     id="rect246"
     width="14.287219"
     height="14.287219"
     x="1.3361193"
     y="1.3567564"
     rx="2.1166251"
     ry="2.1166251" />
  <rect
     style="fill:url(#linearGradient1136);fill-opacity:1;stroke:none;stroke-width:0.478315;stroke-dasharray:none"
     id="rect246-5"
     width="12.914515"
     height="12.914515"
     x="2.0224717"
     y="2.0431087"
     rx="1.5874687"
     ry="1.5874687" />
  <path
     fill="#f5f7fa"
     d="m 8.5271455,13.985753 c -3.0051901,0 -5.441377,-2.399751 -5.441377,-5.3599906 0,-2.9602434 2.4361869,-5.3599937 5.441377,-5.3599937 3.0051865,0 5.4413745,2.3997503 5.4413745,5.3599937 0,2.9602396 -2.436188,5.3599906 -5.4413745,5.3599906 z m 0,-9.5288776 c -2.3373702,0 -4.2321817,1.8664765 -4.2321817,4.168887 0,0.1644569 0.1353439,0.2977757 0.3022989,0.2977757 0.1669545,0 0.3022977,-0.1333158 0.3022977,-0.2977757 0,-1.9734963 1.6241252,-3.5733309 3.6275851,-3.5733309 0.1669543,0 0.3022984,-0.1333201 0.3022984,-0.2977757 0,-0.164459 -0.1353445,-0.2977804 -0.3022984,-0.2977804 z m 0,6.5511036 c 1.3356391,0 2.4183895,-1.0665567 2.4183895,-2.3822166 0,-1.3156633 -1.0827504,-2.3822214 -2.4183895,-2.3822214 -1.33564,0 -2.4183897,1.0665581 -2.4183897,2.3822214 0,1.3156599 1.0827497,2.3822166 2.4183897,2.3822166 z m 0,-0.595555 c -1.0017301,0 -1.8137925,-0.7999145 -1.8137925,-1.7866616 0,-0.9867488 0.8120624,-1.7866668 1.8137925,-1.7866668 1.0017291,0 1.8137915,0.799918 1.8137915,1.7866668 0,0.9867471 -0.8120624,1.7866616 -1.8137915,1.7866616 z m 0,-0.5955542 c 0.6678186,0 1.2091937,-0.5332759 1.2091937,-1.1911074 0,-0.6578339 -0.5413751,-1.1911113 -1.2091937,-1.1911113 -0.667821,0 -1.209194,0.5332774 -1.209194,1.1911113 0,0.6578315 0.541373,1.1911074 1.209194,1.1911074 z"
     id="path42"
     style="fill:#999999;fill-opacity:1;stroke:none;stroke-width:0.352154;stroke-dasharray:none;stroke-opacity:0.3" />
  <text
     xml:space="preserve"
     transform="scale(0.26457812)"
     id="text3806"
     style="font-size:6.66667px;white-space:pre;shape-inside:url(#rect3808);display:inline;fill:#999999;stroke-width:2" />
</svg>
