<?xml version="1.0" encoding="UTF-8" standalone="no"?>
<svg
   width="64"
   height="64"
   version="1.1"
   viewBox="0 0 16.933 16.933"
   id="svg7"
   sodipodi:docname="Settings Template.svg"
   inkscape:version="1.4 (e7c3feb100, 2024-10-09)"
   xmlns:inkscape="http://www.inkscape.org/namespaces/inkscape"
   xmlns:sodipodi="http://sodipodi.sourceforge.net/DTD/sodipodi-0.dtd"
   xmlns:xlink="http://www.w3.org/1999/xlink"
   xmlns="http://www.w3.org/2000/svg"
   xmlns:svg="http://www.w3.org/2000/svg"
   xmlns:rdf="http://www.w3.org/1999/02/22-rdf-syntax-ns#"
   xmlns:cc="http://creativecommons.org/ns#"
   xmlns:dc="http://purl.org/dc/elements/1.1/">
  <sodipodi:namedview
     id="namedview7"
     pagecolor="#9c4444"
     bordercolor="#000000"
     borderopacity="0.25"
     inkscape:showpageshadow="2"
     inkscape:pageopacity="0.0"
     inkscape:pagecheckerboard="0"
     inkscape:deskcolor="#d1d1d1"
     inkscape:zoom="6.15625"
     inkscape:cx="15.756345"
     inkscape:cy="29.563452"
     inkscape:window-width="1226"
     inkscape:window-height="669"
     inkscape:window-x="124"
     inkscape:window-y="132"
     inkscape:window-maximized="0"
     inkscape:current-layer="svg7"
     showgrid="false" />
  <defs
     id="defs2">
    <rect
       x="67.489848"
       y="35.60533"
       width="15.337563"
       height="22.51269"
       id="rect3808" />
    <linearGradient
       inkscape:collect="always"
       id="linearGradient1134">
      <stop
         style="stop-color:#161616;stop-opacity:1;"
         offset="0"
         id="stop1130" />
      <stop
         style="stop-color:#404040;stop-opacity:1;"
         offset="1"
         id="stop1132" />
    </linearGradient>
    <linearGradient
       inkscape:collect="always"
       id="linearGradient883">
      <stop
         style="stop-color:#808080;stop-opacity:1;"
         offset="0"
         id="stop879" />
      <stop
         style="stop-color:#3e3e3e;stop-opacity:1;"
         offset="0.5"
         id="stop1216" />
      <stop
         style="stop-color:#242424;stop-opacity:1;"
         offset="1"
         id="stop881" />
    </linearGradient>
    <linearGradient
       inkscape:collect="always"
       xlink:href="#linearGradient883"
       id="linearGradient885"
       x1="2.1085808"
       y1="2.0236168"
       x2="14.846128"
       y2="15.071845"
       gradientUnits="userSpaceOnUse" />
    <linearGradient
       inkscape:collect="always"
       xlink:href="#linearGradient1134"
       id="linearGradient1136"
       x1="14.971222"
       y1="14.703373"
       x2="2.0756054"
       y2="2.0069976"
       gradientUnits="userSpaceOnUse" />
    <filter
       style="color-interpolation-filters:sRGB;"
       inkscape:label="Blur"
       id="filter1283"
       x="-0.082344266"
       y="-0.082344266"
       width="1.1646885"
       height="1.1646885">
      <feGaussianBlur
         stdDeviation="0.5 0.5"
         result="blur"
         id="feGaussianBlur1281" />
    </filter>
  </defs>
  <metadata
     id="metadata2">
    <rdf:RDF>
      <cc:Work
         rdf:about="">
        <dc:format>image/svg+xml</dc:format>
        <dc:type
           rdf:resource="http://purl.org/dc/dcmitype/StillImage" />
      </cc:Work>
    </rdf:RDF>
  </metadata>
  <rect
     style="fill:#000000;stroke:none;stroke-width:0.539739;stroke-dasharray:none;filter:url(#filter1283)"
     id="rect246-1"
     width="14.572964"
     height="14.572964"
     x="1.1932471"
     y="1.2138842"
     rx="2.1589575"
     ry="2.1589575" />
  <rect
     style="opacity:1;fill:#000000;stroke:url(#linearGradient885);stroke-width:0.52915625;stroke-dasharray:none"
     id="rect246"
     width="14.287219"
     height="14.287219"
     x="1.3361193"
     y="1.3567564"
     rx="2.1166251"
     ry="2.1166251" />
  <rect
     style="fill:url(#linearGradient1136);fill-opacity:1;stroke:none;stroke-width:0.478315;stroke-dasharray:none"
     id="rect246-5"
     width="12.914515"
     height="12.914515"
     x="2.0224717"
     y="2.0431087"
     rx="1.5874687"
     ry="1.5874687" />
  <path
     d="m 6.4555715,4.4595611 c -0.2066023,0 -0.3729466,0.1663444 -0.3729466,0.3729467 v 0.7578275 c 0,0.2066027 0.1663443,0.3729467 0.3729466,0.3729467 h 4.0218575 c 0.206601,0 0.372946,-0.166344 0.372946,-0.3729467 V 4.8325078 c 0,-0.2066023 -0.166345,-0.3729467 -0.372946,-0.3729467 z m 0.3401274,0.4505195 c 0.00815,-0.0016 0.015249,0 0.023869,0 h 0.9129733 c 0.068954,0 0.12531,0.053374 0.12531,0.1223266 v 0.3550452 c 0,0.068954 -0.056356,0.12531 -0.12531,0.12531 H 6.8195675 c -0.068954,0 -0.12531,-0.056356 -0.12531,-0.12531 V 5.0324072 c 0,-0.060335 0.044461,-0.1111679 0.1014414,-0.1223266 z M 6.4555715,6.6286187 c -0.2066023,0 -0.3729466,0.1663443 -0.3729466,0.3729467 V 7.759393 c 0,0.2066025 0.1663443,0.3729465 0.3729466,0.3729465 h 4.0218575 c 0.206601,0 0.372946,-0.166344 0.372946,-0.3729465 V 7.0015654 c 0,-0.2066024 -0.166345,-0.3729467 -0.372946,-0.3729467 z m 0.3401274,0.4505195 c 0.00815,-0.0016 0.015249,0 0.023869,0 h 0.9129733 c 0.068954,0 0.12531,0.053374 0.12531,0.1223266 v 0.3550451 c 0,0.068954 -0.056356,0.1253101 -0.12531,0.1253101 H 6.8195675 c -0.068954,0 -0.12531,-0.056356 -0.12531,-0.1253101 V 7.2014648 c 0,-0.060334 0.044461,-0.1111678 0.1014414,-0.1223266 z M 4.7489679,7.5654607 2.8514153,8.4664997 4.7489679,9.3675386 V 8.8961342 h 0.7488768 c 0.1088483,0 0.1969158,-0.088067 0.1969158,-0.1969159 V 8.2337811 c 0,-0.1088483 -0.088067,-0.1969159 -0.1969158,-0.1969159 H 4.7489679 Z m 7.4350651,0 v 0.4714045 h -0.745895 c -0.108845,0 -0.196915,0.088067 -0.196915,0.1969159 v 0.4654372 c 0,0.1088483 0.08807,0.1969159 0.196915,0.1969159 h 0.745895 V 9.3675386 L 14.081584,8.4664997 Z M 6.4555715,8.8006599 c -0.2066023,0 -0.3729466,0.1663443 -0.3729466,0.3729465 V 9.931434 c 0,0.206603 0.1663443,0.372946 0.3729466,0.372946 h 4.0218575 c 0.206601,0 0.372946,-0.166343 0.372946,-0.372946 V 9.1736064 c 0,-0.2066022 -0.166345,-0.3729465 -0.372946,-0.3729465 z m 0.3401274,0.4505195 c 0.00815,-0.0016 0.015249,0 0.023869,0 h 0.9129733 c 0.068954,0 0.12531,0.053374 0.12531,0.1223265 v 0.355045 c 0,0.068956 -0.056356,0.1253099 -0.12531,0.1253099 H 6.8195675 c -0.068954,0 -0.12531,-0.056357 -0.12531,-0.1253099 v -0.355045 c 0,-0.060334 0.044461,-0.1111677 0.1014414,-0.1223265 z M 6.4555715,10.969718 c -0.2066023,0 -0.3729466,0.166343 -0.3729466,0.372945 v 0.757829 c 0,0.206602 0.1663443,0.372946 0.3729466,0.372946 h 4.0218575 c 0.206601,0 0.372946,-0.166344 0.372946,-0.372946 v -0.757829 c 0,-0.206602 -0.166345,-0.372945 -0.372946,-0.372945 z m 0.3401274,0.450521 c 0.00815,-0.0015 0.015249,0 0.023869,0 h 0.9129733 c 0.068954,0 0.12531,0.05336 0.12531,0.122324 v 0.355046 c 0,0.06896 -0.056356,0.12531 -0.12531,0.12531 H 6.8195675 c -0.068954,0 -0.12531,-0.05635 -0.12531,-0.12531 v -0.355046 c 0,-0.06034 0.044461,-0.111167 0.1014414,-0.122324 z"
     fill="url(#a)"
     id="path2"
     style="fill:#999999;fill-opacity:1;stroke-width:0.0954742" />
  <text
     xml:space="preserve"
     transform="scale(0.26457812)"
     id="text3806"
     style="font-size:6.66667px;white-space:pre;shape-inside:url(#rect3808);display:inline;fill:#999999;stroke-width:2" />
</svg>
