<?xml version="1.0" encoding="UTF-8" standalone="no"?>
<svg
   width="64"
   height="64"
   version="1.1"
   viewBox="0 0 16.933 16.933"
   id="svg7"
   sodipodi:docname="Settings Template.svg"
   inkscape:version="1.4 (e7c3feb100, 2024-10-09)"
   xmlns:inkscape="http://www.inkscape.org/namespaces/inkscape"
   xmlns:sodipodi="http://sodipodi.sourceforge.net/DTD/sodipodi-0.dtd"
   xmlns:xlink="http://www.w3.org/1999/xlink"
   xmlns="http://www.w3.org/2000/svg"
   xmlns:svg="http://www.w3.org/2000/svg"
   xmlns:rdf="http://www.w3.org/1999/02/22-rdf-syntax-ns#"
   xmlns:cc="http://creativecommons.org/ns#"
   xmlns:dc="http://purl.org/dc/elements/1.1/">
  <sodipodi:namedview
     id="namedview7"
     pagecolor="#9c4444"
     bordercolor="#000000"
     borderopacity="0.25"
     inkscape:showpageshadow="2"
     inkscape:pageopacity="0.0"
     inkscape:pagecheckerboard="0"
     inkscape:deskcolor="#d1d1d1"
     inkscape:zoom="6.15625"
     inkscape:cx="15.756345"
     inkscape:cy="29.563452"
     inkscape:window-width="1226"
     inkscape:window-height="669"
     inkscape:window-x="124"
     inkscape:window-y="132"
     inkscape:window-maximized="0"
     inkscape:current-layer="svg7"
     showgrid="false" />
  <defs
     id="defs2">
    <rect
       x="67.489848"
       y="35.60533"
       width="15.337563"
       height="22.51269"
       id="rect3808" />
    <linearGradient
       inkscape:collect="always"
       id="linearGradient1134">
      <stop
         style="stop-color:#161616;stop-opacity:1;"
         offset="0"
         id="stop1130" />
      <stop
         style="stop-color:#404040;stop-opacity:1;"
         offset="1"
         id="stop1132" />
    </linearGradient>
    <linearGradient
       inkscape:collect="always"
       id="linearGradient883">
      <stop
         style="stop-color:#808080;stop-opacity:1;"
         offset="0"
         id="stop879" />
      <stop
         style="stop-color:#3e3e3e;stop-opacity:1;"
         offset="0.5"
         id="stop1216" />
      <stop
         style="stop-color:#242424;stop-opacity:1;"
         offset="1"
         id="stop881" />
    </linearGradient>
    <linearGradient
       inkscape:collect="always"
       xlink:href="#linearGradient883"
       id="linearGradient885"
       x1="2.1085808"
       y1="2.0236168"
       x2="14.846128"
       y2="15.071845"
       gradientUnits="userSpaceOnUse" />
    <linearGradient
       inkscape:collect="always"
       xlink:href="#linearGradient1134"
       id="linearGradient1136"
       x1="14.971222"
       y1="14.703373"
       x2="2.0756054"
       y2="2.0069976"
       gradientUnits="userSpaceOnUse" />
    <filter
       style="color-interpolation-filters:sRGB;"
       inkscape:label="Blur"
       id="filter1283"
       x="-0.082344266"
       y="-0.082344266"
       width="1.1646885"
       height="1.1646885">
      <feGaussianBlur
         stdDeviation="0.5 0.5"
         result="blur"
         id="feGaussianBlur1281" />
    </filter>
  </defs>
  <metadata
     id="metadata2">
    <rdf:RDF>
      <cc:Work
         rdf:about="">
        <dc:format>image/svg+xml</dc:format>
        <dc:type
           rdf:resource="http://purl.org/dc/dcmitype/StillImage" />
      </cc:Work>
    </rdf:RDF>
  </metadata>
  <rect
     style="fill:#000000;stroke:none;stroke-width:0.539739;stroke-dasharray:none;filter:url(#filter1283)"
     id="rect246-1"
     width="14.572964"
     height="14.572964"
     x="1.1932471"
     y="1.2138842"
     rx="2.1589575"
     ry="2.1589575" />
  <rect
     style="opacity:1;fill:#000000;stroke:url(#linearGradient885);stroke-width:0.52915625;stroke-dasharray:none"
     id="rect246"
     width="14.287219"
     height="14.287219"
     x="1.3361193"
     y="1.3567564"
     rx="2.1166251"
     ry="2.1166251" />
  <rect
     style="fill:url(#linearGradient1136);fill-opacity:1;stroke:none;stroke-width:0.478315;stroke-dasharray:none"
     id="rect246-5"
     width="12.914515"
     height="12.914515"
     x="2.0224717"
     y="2.0431087"
     rx="1.5874687"
     ry="1.5874687" />
  <path
     d="m 8.5279242,3.317016 c -2.9226931,0 -5.2920051,2.3576591 -5.2920051,5.2659734 0,2.9083126 2.369312,5.2659726 5.2920051,5.2659726 2.9226898,0 5.2920048,-2.35766 5.2920048,-5.2659726 0,-2.9083143 -2.369315,-5.2659734 -5.2920048,-5.2659734 z M 8.1499236,4.7745625 c 0.050576,-0.00526 0.1143535,0.00301 0.1653867,0 0.006,0.024084 -0.036832,0.109736 -0.094494,0.2350892 -0.3673105,0.7984418 -0.388147,1.7335284 -0.04726,2.2333369 0.06169,0.090618 0.1181235,0.1768599 0.1181235,0.1880714 0,0.011205 -0.066519,0.023456 -0.141755,0.023456 -0.1765854,0 -0.3436944,-0.1070949 -0.6851257,-0.3761334 C 7.3131287,6.9588671 7.1159408,6.8584829 7.0395455,6.8432887 6.9195927,6.8194351 6.8876188,6.8298973 6.7324142,6.9843399 6.5880303,7.1279968 6.5434272,7.2054574 6.5434272,7.3369726 c 0,0.4987179 0.5950324,0.8951698 1.7010026,1.1284228 1.5019451,0.3167636 1.8721982,0.6011635 1.9136252,1.3870193 0.05201,0.9854733 -0.4752201,1.7285703 -1.6301273,2.3038623 -0.1378405,0.06868 -0.2256766,0.09535 -0.2835091,0.11754 -0.025714,-0.0023 -0.04529,0.0023 -0.070836,0 -0.00971,-0.03046 -0.023723,-0.101145 -0.023723,-0.235089 0,-0.523422 -0.2073323,-1.062184 -0.5197414,-1.36351 C 7.5462566,10.594334 7.3114426,10.422941 7.1103637,10.299079 6.9092887,10.175224 6.7066946,10.031344 6.6614854,9.9699574 6.5865651,9.8680894 6.5803355,9.8055078 6.6377663,9.617325 6.7426596,9.2736299 6.8675282,9.0822044 7.1102599,8.8650435 7.2375265,8.7511933 7.3655664,8.6557203 7.3937694,8.6534627 7.4220537,8.6512536 7.2311269,8.5941818 6.9448944,8.5359198 6.6586595,8.4775575 6.2399932,8.3552949 6.0234979,8.2773358 5.6276707,8.1348174 5.0932547,7.8356262 4.8894884,7.6190902 4.8809119,7.6099054 4.8734878,7.6037331 4.8657693,7.5956336 5.157685,6.4385786 5.9768878,5.4902523 7.0628901,5.0331737 7.2901085,4.9375348 7.524368,4.8719223 7.771641,4.8215925 7.8947935,4.7965479 8.022461,4.7874407 8.1496402,4.7745756 Z m 3.5437534,1.76316 c 0.08878,0.054614 0.424046,0.7763929 0.51975,1.1284225 0.123553,0.4545215 0.114611,1.2410775 0,1.6926353 -0.04364,0.17185 -0.09952,0.3326208 -0.118122,0.3526321 C 12.076735,9.7314334 12.009275,9.6162254 11.92992,9.476323 11.850577,9.3364452 11.597166,9.039211 11.386551,8.8180774 10.778622,8.1797441 10.683024,7.8464457 10.937677,7.3370226 c 0.12841,-0.2568975 0.68728,-0.8415028 0.756,-0.7993001 z"
     fill="#333333"
     id="path2-0"
     style="fill:#999999;fill-opacity:1;stroke:none;stroke-width:0.32014;stroke-dasharray:none;stroke-opacity:0.3" />
  <text
     xml:space="preserve"
     transform="scale(0.26457812)"
     id="text3806"
     style="font-size:6.66667px;white-space:pre;shape-inside:url(#rect3808);display:inline;fill:#999999;stroke-width:2" />
</svg>
