<?xml version="1.0" encoding="UTF-8" standalone="no"?>
<svg
   width="64"
   height="64"
   version="1.1"
   viewBox="0 0 16.933 16.933"
   id="svg7"
   sodipodi:docname="System Template.svg"
   inkscape:version="1.4 (e7c3feb100, 2024-10-09)"
   xmlns:inkscape="http://www.inkscape.org/namespaces/inkscape"
   xmlns:sodipodi="http://sodipodi.sourceforge.net/DTD/sodipodi-0.dtd"
   xmlns:xlink="http://www.w3.org/1999/xlink"
   xmlns="http://www.w3.org/2000/svg"
   xmlns:svg="http://www.w3.org/2000/svg"
   xmlns:rdf="http://www.w3.org/1999/02/22-rdf-syntax-ns#"
   xmlns:cc="http://creativecommons.org/ns#"
   xmlns:dc="http://purl.org/dc/elements/1.1/">
  <sodipodi:namedview
     id="namedview7"
     pagecolor="#9c4444"
     bordercolor="#000000"
     borderopacity="0.25"
     inkscape:showpageshadow="2"
     inkscape:pageopacity="0.0"
     inkscape:pagecheckerboard="0"
     inkscape:deskcolor="#d1d1d1"
     inkscape:zoom="6.15625"
     inkscape:cx="15.756345"
     inkscape:cy="27.126904"
     inkscape:window-width="1226"
     inkscape:window-height="669"
     inkscape:window-x="35"
     inkscape:window-y="32"
     inkscape:window-maximized="0"
     inkscape:current-layer="svg7"
     showgrid="false" />
  <defs
     id="defs2">
    <linearGradient
       inkscape:collect="always"
       id="linearGradient1134">
      <stop
         style="stop-color:#161616;stop-opacity:1;"
         offset="0"
         id="stop1130" />
      <stop
         style="stop-color:#404040;stop-opacity:1;"
         offset="1"
         id="stop1132" />
    </linearGradient>
    <linearGradient
       inkscape:collect="always"
       id="linearGradient883">
      <stop
         style="stop-color:#808080;stop-opacity:1;"
         offset="0"
         id="stop879" />
      <stop
         style="stop-color:#3e3e3e;stop-opacity:1;"
         offset="0.5"
         id="stop1216" />
      <stop
         style="stop-color:#242424;stop-opacity:1;"
         offset="1"
         id="stop881" />
    </linearGradient>
    <linearGradient
       inkscape:collect="always"
       xlink:href="#linearGradient883"
       id="linearGradient885"
       x1="2.1085808"
       y1="2.0236168"
       x2="14.846128"
       y2="15.071845"
       gradientUnits="userSpaceOnUse" />
    <linearGradient
       inkscape:collect="always"
       xlink:href="#linearGradient1134"
       id="linearGradient1136"
       x1="14.971222"
       y1="14.703373"
       x2="2.0756054"
       y2="2.0069976"
       gradientUnits="userSpaceOnUse" />
    <filter
       style="color-interpolation-filters:sRGB;"
       inkscape:label="Blur"
       id="filter1283"
       x="-0.082344266"
       y="-0.082344266"
       width="1.1646885"
       height="1.1646885">
      <feGaussianBlur
         stdDeviation="0.5 0.5"
         result="blur"
         id="feGaussianBlur1281" />
    </filter>
  </defs>
  <metadata
     id="metadata2">
    <rdf:RDF>
      <cc:Work
         rdf:about="">
        <dc:format>image/svg+xml</dc:format>
        <dc:type
           rdf:resource="http://purl.org/dc/dcmitype/StillImage" />
      </cc:Work>
    </rdf:RDF>
  </metadata>
  <rect
     style="fill:#000000;stroke:none;stroke-width:0.539739;stroke-dasharray:none;filter:url(#filter1283)"
     id="rect246-1"
     width="14.572964"
     height="14.572964"
     x="1.1932471"
     y="1.2138842"
     rx="2.1589575"
     ry="2.1589575" />
  <rect
     style="opacity:1;fill:#000000;stroke:url(#linearGradient885);stroke-width:0.52915625;stroke-dasharray:none"
     id="rect246"
     width="14.287219"
     height="14.287219"
     x="1.3361193"
     y="1.3567564"
     rx="2.1166251"
     ry="2.1166251" />
  <rect
     style="fill:url(#linearGradient1136);fill-opacity:1;stroke:none;stroke-width:0.478315;stroke-dasharray:none"
     id="rect246-5"
     width="12.914515"
     height="12.914515"
     x="2.0224717"
     y="2.0431087"
     rx="1.5874687"
     ry="1.5874687" />
  <g
     id="g11"
     transform="matrix(0.42610572,0,0,0.42610572,-161.25401,-216.86746)"
     style="fill:#999999">
    <g
       fill="#ffffff"
       stroke-width="1.0326"
       id="g9"
       style="fill:#999999;fill-opacity:1"
       transform="translate(0,36.363643)">
      <g
         id="g27"
         style="fill:#999999"
         transform="matrix(2.1435888,0,0,2.1435888,-455.76485,-641.35914)">
        <path
           d="m 399.94,570.83358 c -0.63257,-0.27783 -1.8175,-0.25861 -2.3666,-0.0249 -1.8013,0.7666 -4.0384,0.20952 -4.0108,-1.5199 0.0249,-1.5643 0.54807,-2.1544 2.2923,-3.2216 1.3474,-1.0899 1.8253,-1.4947 2.6967,-1.4522 1.223,0.0596 1.68,0.55952 2.598,1.4522 1.5353,0.98647 2.5472,1.4353 2.4725,3.0223 -0.0371,1.8939 -2.3676,2.1695 -3.682,1.7441 z"
           fill="#ffffff"
           opacity="0.69"
           stroke-width="0.70457"
           id="path6"
           style="opacity:1;fill:#999999;fill-opacity:1"
           transform="translate(3.4809042e-6,-36.36364)" />
        <path
           id="use6"
           d="m 393.7482,530.2703 c -0.50579,-0.0287 -0.93617,-0.43839 -0.96378,-1.0639 -0.0255,-0.57606 0.0523,-1.1673 0.63454,-1.6882 0.11271,-1.254 0.18173,-1.1982 0.5473,-2.3714 0.2246,1.2049 0.26418,1.4308 0.27741,2.3818 0.50354,0.36173 0.62303,0.81917 0.5552,1.522 -0.0579,0.59947 -0.42322,1.2176 -1.0507,1.2196 z"
           fill="#ffffff"
           opacity="0.69"
           stroke-width="0.62128"
           style="opacity:1;fill:#999999;fill-opacity:1" />
        <path
           id="use7"
           d="m 396.0565,528.40645 c -0.50579,-0.0287 -0.93617,-0.43839 -0.96378,-1.0639 -0.0255,-0.57606 0.0523,-1.1673 0.63454,-1.6882 0.11271,-1.254 0.18173,-1.1982 0.5473,-2.3714 0.2246,1.2049 0.26418,1.4308 0.27741,2.3818 0.50354,0.36173 0.62303,0.81917 0.5552,1.522 -0.0579,0.59947 -0.42322,1.2176 -1.0507,1.2196 z"
           fill="#ffffff"
           opacity="0.69"
           stroke-width="0.62128"
           style="opacity:1;fill:#999999;fill-opacity:1" />
        <path
           id="use8"
           d="m 401.07,528.70459 c 0.50579,-0.0287 0.93617,-0.43839 0.96378,-1.0639 0.0255,-0.57606 -0.0523,-1.1673 -0.63454,-1.6882 -0.11271,-1.254 -0.18173,-1.1982 -0.5473,-2.3714 -0.2246,1.2049 -0.26418,1.4308 -0.27741,2.3818 -0.50354,0.36173 -0.62303,0.81917 -0.5552,1.522 0.0579,0.59947 0.42322,1.2176 1.0507,1.2196 z"
           fill="#ffffff"
           opacity="0.69"
           stroke-width="0.62128"
           style="opacity:1;fill:#999999;fill-opacity:1" />
        <path
           id="use9"
           d="m 403.33,530.3261 c 0.50579,-0.0287 0.93617,-0.43839 0.96378,-1.0639 0.0255,-0.57606 -0.0523,-1.1673 -0.63454,-1.6882 -0.11271,-1.254 -0.18173,-1.1982 -0.5473,-2.3714 -0.2246,1.2049 -0.26418,1.4308 -0.27741,2.3818 -0.50354,0.36173 -0.62303,0.81917 -0.5552,1.522 0.0579,0.59947 0.42322,1.2176 1.0507,1.2196 z"
           fill="#ffffff"
           opacity="0.69"
           stroke-width="0.62128"
           style="opacity:1;fill:#999999;fill-opacity:1" />
      </g>
    </g>
  </g>
</svg>
