<?xml version="1.0" encoding="UTF-8" standalone="no"?>
<svg
   width="64"
   height="64"
   version="1.1"
   viewBox="0 0 16.933 16.933"
   id="svg7"
   sodipodi:docname="internet.svg"
   inkscape:version="1.4.2 (ebf0e940d0, 2025-05-08)"
   xmlns:inkscape="http://www.inkscape.org/namespaces/inkscape"
   xmlns:sodipodi="http://sodipodi.sourceforge.net/DTD/sodipodi-0.dtd"
   xmlns:xlink="http://www.w3.org/1999/xlink"
   xmlns="http://www.w3.org/2000/svg"
   xmlns:svg="http://www.w3.org/2000/svg"
   xmlns:rdf="http://www.w3.org/1999/02/22-rdf-syntax-ns#"
   xmlns:cc="http://creativecommons.org/ns#"
   xmlns:dc="http://purl.org/dc/elements/1.1/">
  <sodipodi:namedview
     id="namedview7"
     pagecolor="#9c4444"
     bordercolor="#000000"
     borderopacity="0.25"
     inkscape:showpageshadow="2"
     inkscape:pageopacity="0.0"
     inkscape:pagecheckerboard="0"
     inkscape:deskcolor="#d1d1d1"
     inkscape:zoom="4.3531261"
     inkscape:cx="36.755195"
     inkscape:cy="25.958357"
     inkscape:window-width="1280"
     inkscape:window-height="669"
     inkscape:window-x="322"
     inkscape:window-y="126"
     inkscape:window-maximized="0"
     inkscape:current-layer="svg7"
     showgrid="false" />
  <defs
     id="defs2">
    <linearGradient
       id="linearGradient1"
       inkscape:collect="always">
      <stop
         style="stop-color:#d8dee9;stop-opacity:1;"
         offset="0"
         id="stop1" />
      <stop
         style="stop-color:#eceff4;stop-opacity:1;"
         offset="1"
         id="stop2" />
    </linearGradient>
    <linearGradient
       inkscape:collect="always"
       id="linearGradient1134">
      <stop
         style="stop-color:#2e3440;stop-opacity:1;"
         offset="0"
         id="stop1130" />
      <stop
         style="stop-color:#4c566a;stop-opacity:1;"
         offset="1"
         id="stop1132" />
    </linearGradient>
    <filter
       style="color-interpolation-filters:sRGB;"
       inkscape:label="Blur"
       id="filter3"
       x="-0.10843471"
       y="-0.10870992"
       width="1.2168694"
       height="1.2174198">
      <feGaussianBlur
         stdDeviation="0.5 0.5"
         result="blur"
         id="feGaussianBlur3" />
    </filter>
    <linearGradient
       inkscape:collect="always"
       xlink:href="#linearGradient1134"
       id="linearGradient4"
       x1="14.388208"
       y1="14.440324"
       x2="2.2869277"
       y2="2.3637428"
       gradientUnits="userSpaceOnUse" />
    <linearGradient
       inkscape:collect="always"
       xlink:href="#linearGradient1"
       id="linearGradient9"
       x1="11.925907"
       y1="11.144649"
       x2="4.6112795"
       y2="5.9176645"
       gradientUnits="userSpaceOnUse" />
  </defs>
  <metadata
     id="metadata2">
    <rdf:RDF>
      <cc:Work
         rdf:about="">
        <dc:format>image/svg+xml</dc:format>
        <dc:type
           rdf:resource="http://purl.org/dc/dcmitype/StillImage" />
      </cc:Work>
    </rdf:RDF>
  </metadata>
  <ellipse
     style="opacity:1;fill:none;stroke:#000000;stroke-width:0.582072;stroke-dasharray:none;stroke-opacity:1;filter:url(#filter3)"
     id="path1-5"
     cx="8.4450111"
     cy="8.423522"
     rx="6.8752708"
     ry="6.8578653" />
  <ellipse
     style="opacity:1;fill:#2b323e;stroke-width:0.58207188;stroke-opacity:1;stroke:#8bd5ca;stroke-dasharray:none;fill-opacity:1"
     id="path1"
     cx="8.4450111"
     cy="8.423522"
     rx="6.8752708"
     ry="6.8578653" />
  <ellipse
     style="fill:url(#linearGradient4);stroke:none;stroke-width:0.515624;stroke-dasharray:none;stroke-opacity:1"
     id="path1-2"
     cx="8.4450111"
     cy="8.423522"
     rx="6.0904069"
     ry="6.0749874" />
  <path
     id="path5-7-6"
     style="fill:#000000;stroke:none;stroke-width:0.0107106;opacity:0.3"
     d="M 8.4813342,6.4590533 C 6.7714885,6.4590791 5.0613239,6.4644083 5.0216325,6.4750985 4.849423,6.5215079 4.7178209,6.64552 4.6591159,6.8165559 l -0.023065,0.066686 -0.00302,2.1796121 c -0.00195,1.41628 9.99e-4,2.211296 0.00803,2.269363 0.024608,0.203844 0.1606096,0.369309 0.3539926,0.431211 0.055874,0.01787 0.241628,0.01902 3.4822651,0.01956 3.3857034,5.63e-4 3.4244764,4.62e-4 3.4917924,-0.02056 0.08736,-0.02728 0.136945,-0.05803 0.209586,-0.129866 0.07949,-0.0786 0.128627,-0.182089 0.142902,-0.300341 0.0069,-0.05806 0.01,-0.853083 0.008,-2.2693642 l -0.003,-2.1796113 -0.02307,-0.066686 C 12.245344,6.6469669 12.111191,6.5206184 11.941036,6.4750982 11.901056,6.4644029 10.19118,6.4590271 8.4813342,6.4590533 Z m 0,0.5009045 c 0.00554,-1.92e-5 0.3275139,0.4046327 0.7155062,0.8990209 l 0.7054781,0.8990211 -0.3224039,0.00251 -0.3219025,0.003 V 9.6630376 10.562561 H 8.4813342 7.704656 V 9.6630376 8.7635152 L 7.3827534,8.7605065 7.0603494,8.7579907 7.7658278,7.8589695 C 8.1538137,7.3646106 8.475789,6.9599769 8.4813342,6.9599578 Z m 0,0.429705 c -0.00457,0 -0.204367,0.250066 -0.444246,0.5555579 l -0.4362233,0.5555576 0.1860219,0.00301 0.1855202,0.00302 V 9.4008072 10.294814 H 8.4813342 8.9902613 V 9.4008024 8.5067955 l 0.1855199,-0.00301 0.186022,-0.00301 L 8.9255799,7.9452207 C 8.6857012,7.6397304 8.4859087,7.3896628 8.4813342,7.3896628 Z" />
  <path
     id="path5-7"
     style="fill:url(#linearGradient9);stroke:none;stroke-width:0.0107106"
     d="M 8.4813342,5.9298971 C 6.7714885,5.9299229 5.0613239,5.9352521 5.0216325,5.9459423 4.849423,5.9923517 4.7178209,6.1163638 4.6591159,6.2873997 l -0.023065,0.066686 -0.00302,2.1796121 c -0.00195,1.41628 9.99e-4,2.2112962 0.00803,2.2693632 0.024608,0.203844 0.1606096,0.369309 0.3539926,0.431211 0.055874,0.01787 0.241628,0.01902 3.4822651,0.01956 3.3857034,5.63e-4 3.4244764,4.62e-4 3.4917924,-0.02056 0.08736,-0.02728 0.136945,-0.05803 0.209586,-0.129866 0.07949,-0.0786 0.128627,-0.182089 0.142902,-0.300341 0.0069,-0.05806 0.01,-0.8530837 0.008,-2.2693644 l -0.003,-2.1796113 -0.02307,-0.066686 C 12.245344,6.1178107 12.111191,5.9914622 11.941036,5.945942 11.901056,5.9352467 10.19118,5.9298709 8.4813342,5.9298971 Z m 0,0.5009045 c 0.00554,-1.92e-5 0.3275139,0.4046327 0.7155062,0.8990209 l 0.7054781,0.8990211 -0.3224039,0.00251 -0.3219025,0.003 V 9.1338814 10.033405 H 8.4813342 7.704656 V 9.1338814 8.234359 L 7.3827534,8.2313503 7.0603494,8.2288345 7.7658278,7.3298133 C 8.1538137,6.8354544 8.475789,6.4308207 8.4813342,6.4308016 Z m 0,0.429705 c -0.00457,0 -0.204367,0.250066 -0.444246,0.5555579 l -0.4362233,0.5555576 0.1860219,0.00301 0.1855202,0.00302 V 8.871651 9.7656575 H 8.4813342 8.9902613 V 8.8716462 7.9776393 l 0.1855199,-0.00301 0.186022,-0.00301 L 8.9255799,7.4160645 C 8.6857012,7.1105742 8.4859087,6.8605066 8.4813342,6.8605066 Z" />
</svg>
