<?xml version="1.0" encoding="UTF-8" standalone="no"?>
<svg
   width="64"
   height="64"
   version="1.1"
   viewBox="0 0 16.933 16.933"
   id="svg7"
   sodipodi:docname="preferences-desktop-theme-applications.svg"
   inkscape:version="1.4 (e7c3feb100, 2024-10-09)"
   xmlns:inkscape="http://www.inkscape.org/namespaces/inkscape"
   xmlns:sodipodi="http://sodipodi.sourceforge.net/DTD/sodipodi-0.dtd"
   xmlns:xlink="http://www.w3.org/1999/xlink"
   xmlns="http://www.w3.org/2000/svg"
   xmlns:svg="http://www.w3.org/2000/svg"
   xmlns:rdf="http://www.w3.org/1999/02/22-rdf-syntax-ns#"
   xmlns:cc="http://creativecommons.org/ns#"
   xmlns:dc="http://purl.org/dc/elements/1.1/">
  <sodipodi:namedview
     id="namedview7"
     pagecolor="#9c4444"
     bordercolor="#000000"
     borderopacity="0.25"
     inkscape:showpageshadow="2"
     inkscape:pageopacity="0.0"
     inkscape:pagecheckerboard="0"
     inkscape:deskcolor="#d1d1d1"
     inkscape:zoom="4.3531261"
     inkscape:cx="36.984915"
     inkscape:cy="25.958357"
     inkscape:window-width="1280"
     inkscape:window-height="669"
     inkscape:window-x="11"
     inkscape:window-y="118"
     inkscape:window-maximized="0"
     inkscape:current-layer="svg7"
     showgrid="false" />
  <defs
     id="defs2">
    <linearGradient
       id="linearGradient1"
       inkscape:collect="always">
      <stop
         style="stop-color:#d8dee9;stop-opacity:1;"
         offset="0"
         id="stop1" />
      <stop
         style="stop-color:#eceff4;stop-opacity:1;"
         offset="1"
         id="stop2" />
    </linearGradient>
    <linearGradient
       inkscape:collect="always"
       id="linearGradient1134">
      <stop
         style="stop-color:#2e3440;stop-opacity:1;"
         offset="0"
         id="stop1130" />
      <stop
         style="stop-color:#4c566a;stop-opacity:1;"
         offset="1"
         id="stop1132" />
    </linearGradient>
    <filter
       style="color-interpolation-filters:sRGB;"
       inkscape:label="Blur"
       id="filter3"
       x="-0.10843471"
       y="-0.10870992"
       width="1.2168694"
       height="1.2174198">
      <feGaussianBlur
         stdDeviation="0.5 0.5"
         result="blur"
         id="feGaussianBlur3" />
    </filter>
    <linearGradient
       inkscape:collect="always"
       xlink:href="#linearGradient1134"
       id="linearGradient4"
       x1="14.388208"
       y1="14.440324"
       x2="2.2869277"
       y2="2.3637428"
       gradientUnits="userSpaceOnUse" />
    <linearGradient
       inkscape:collect="always"
       xlink:href="#linearGradient1"
       id="linearGradient9"
       x1="11.613858"
       y1="11.713237"
       x2="5.3293648"
       y2="5.2706752"
       gradientUnits="userSpaceOnUse" />
  </defs>
  <metadata
     id="metadata2">
    <rdf:RDF>
      <cc:Work
         rdf:about="">
        <dc:format>image/svg+xml</dc:format>
        <dc:type
           rdf:resource="http://purl.org/dc/dcmitype/StillImage" />
      </cc:Work>
    </rdf:RDF>
  </metadata>
  <ellipse
     style="opacity:1;fill:none;stroke:#000000;stroke-width:0.582072;stroke-dasharray:none;stroke-opacity:1;filter:url(#filter3)"
     id="path1-5"
     cx="8.4450111"
     cy="8.423522"
     rx="6.8752708"
     ry="6.8578653" />
  <ellipse
     style="opacity:1;fill:#2b323e;stroke-width:0.58207188;stroke-opacity:1;stroke:#f5bde6;stroke-dasharray:none;fill-opacity:1"
     id="path1"
     cx="8.4450111"
     cy="8.423522"
     rx="6.8752708"
     ry="6.8578653" />
  <ellipse
     style="fill:url(#linearGradient4);stroke:none;stroke-width:0.515624;stroke-dasharray:none;stroke-opacity:1"
     id="path1-2"
     cx="8.4450111"
     cy="8.423522"
     rx="6.0904069"
     ry="6.0749874" />
  <path
     id="path8-3-5"
     style="fill:#000000;stroke-width:0.0281974;opacity:0.3"
     d="M 10.334289,5.7533329 C 10.154533,5.7563729 9.9741139,5.8022909 9.7969059,5.890984 9.7217949,5.928579 9.3904748,6.2363279 8.9096319,6.7148571 L 8.1423789,7.4783807 7.9633646,7.3068253 C 7.7692481,7.1204249 7.6403262,7.0645564 7.4846366,7.0996702 7.1931955,7.1654009 7.0470503,7.4604485 7.1798377,7.7153713 c 0.07671,0.1472658 2.5273412,2.5869607 2.6523291,2.6404617 0.1310706,0.0561 0.2163182,0.05363 0.3553152,-0.0095 0.150659,-0.06842 0.236991,-0.207308 0.236991,-0.381422 0,-0.1680405 -0.02687,-0.2185001 -0.221055,-0.4177003 L 10.045085,9.3848156 10.811321,8.6165455 C 11.641946,7.783571 11.688115,7.7220538 11.75657,7.3539515 11.799513,7.1230403 11.750933,6.8404185 11.629091,6.6107706 11.489328,6.3473478 11.126483,5.9957786 10.867262,5.8726754 10.693067,5.7899506 10.514043,5.7502794 10.334289,5.7533329 Z M 7.4670064,8.6697756 7.3313894,8.7921699 C 6.9067877,9.1749997 6.2374426,9.8624129 6.19119,9.9632224 6.1582173,10.035088 6.1393937,10.142424 6.1389774,10.259206 l -6.758e-4,0.183422 -0.4095633,0.428211 c -0.2252619,0.235598 -0.428415,0.4732 -0.4512653,0.527888 -0.1280248,0.306407 0.024231,0.677734 0.337347,0.823535 0.083809,0.03902 0.1959735,0.06663 0.271234,0.06679 0.2299803,4.86e-4 0.3698831,-0.09721 0.8126846,-0.568575 l 0.4027826,-0.428888 0.1881684,-0.0031 c 0.1337066,-0.0021 0.2205502,-0.02029 0.3007307,-0.06306 0.062034,-0.03309 0.3701888,-0.318457 0.6848657,-0.634348 L 8.8475883,10.01679 8.7265501,9.9099924 C 8.6600098,9.8513057 8.3493913,9.5483464 8.0362598,9.2366542 Z M 7.2218786,9.9557633 c 0.1287711,-0.00213 0.2463696,0.072397 0.3088678,0.2003737 0.097164,0.198963 0.072927,0.232826 -0.7652187,1.068662 -0.7390712,0.737036 -0.7589124,0.754421 -0.8679485,0.752673 -0.223571,-0.0037 -0.351248,-0.120691 -0.351248,-0.32209 0,-0.166178 0.054397,-0.231794 0.8354005,-1.005939 0.588555,-0.583385 0.6870821,-0.6696818 0.7845442,-0.6879157 0.01873,-0.00351 0.037207,-0.00546 0.055603,-0.00576 z" />
  <path
     id="path8-3"
     style="fill:url(#linearGradient9);stroke-width:0.0281974"
     d="m 10.334289,5.2241767 c -0.179756,0.00304 -0.3601751,0.048958 -0.5373831,0.1376511 -0.075111,0.037595 -0.4064311,0.3453439 -0.887274,0.8238731 L 8.1423789,6.9492245 7.9633646,6.7776691 C 7.7692481,6.5912687 7.6403262,6.5354002 7.4846366,6.570514 7.1931955,6.6362447 7.0470503,6.9312923 7.1798377,7.1862151 c 0.07671,0.1472658 2.5273412,2.5869608 2.6523291,2.6404621 0.1310706,0.056101 0.2163182,0.05363 0.3553152,-0.00949 0.150659,-0.068421 0.236991,-0.2073089 0.236991,-0.3814225 0,-0.1680405 -0.02687,-0.2185 -0.221055,-0.4177003 L 10.045085,8.8556594 10.811321,8.0873893 C 11.641946,7.2544148 11.688115,7.1928976 11.75657,6.8247953 11.799513,6.5938841 11.750933,6.3112623 11.629091,6.0816144 11.489328,5.8181916 11.126483,5.4666224 10.867262,5.3435192 10.693067,5.2607944 10.514043,5.2211232 10.334289,5.2241767 Z M 7.4670064,8.1406194 7.3313894,8.2630137 C 6.9067877,8.6458435 6.2374426,9.3332567 6.19119,9.4340662 6.1582173,9.5059318 6.1393937,9.613268 6.1389774,9.7300499 L 6.1383016,9.9134717 5.7287383,10.341683 c -0.2252619,0.235598 -0.428415,0.4732 -0.4512653,0.527888 -0.1280248,0.306407 0.024231,0.677734 0.337347,0.823535 0.083809,0.03902 0.1959735,0.06663 0.271234,0.06679 0.2299803,4.86e-4 0.3698831,-0.09721 0.8126846,-0.568575 l 0.4027826,-0.428888 0.1881684,-0.0031 c 0.1337066,-0.0021 0.2205502,-0.02029 0.3007307,-0.06306 0.062034,-0.03309 0.3701888,-0.318457 0.6848657,-0.634348 L 8.8475883,9.4876342 8.7265501,9.3808362 C 8.6600098,9.3221495 8.3493913,9.0191902 8.0362598,8.707498 Z M 7.2218786,9.4266071 c 0.1287711,-0.00213 0.2463696,0.072397 0.3088678,0.2003741 0.097164,0.1989621 0.072927,0.2328253 -0.7652187,1.0686618 -0.7390712,0.737036 -0.7589124,0.754421 -0.8679485,0.752673 -0.223571,-0.0037 -0.351248,-0.120691 -0.351248,-0.32209 0,-0.166178 0.054397,-0.231794 0.8354005,-1.005939 0.588555,-0.5833855 0.6870821,-0.669682 0.7845442,-0.6879159 0.01873,-0.00351 0.037207,-0.00546 0.055603,-0.00576 z" />
</svg>
