<?xml version="1.0" encoding="UTF-8" standalone="no"?>
<svg
   width="64"
   height="64"
   version="1.1"
   viewBox="0 0 16.933 16.933"
   id="svg7"
   sodipodi:docname="Settings Template.svg"
   inkscape:version="1.4 (e7c3feb100, 2024-10-09)"
   xmlns:inkscape="http://www.inkscape.org/namespaces/inkscape"
   xmlns:sodipodi="http://sodipodi.sourceforge.net/DTD/sodipodi-0.dtd"
   xmlns:xlink="http://www.w3.org/1999/xlink"
   xmlns="http://www.w3.org/2000/svg"
   xmlns:svg="http://www.w3.org/2000/svg"
   xmlns:rdf="http://www.w3.org/1999/02/22-rdf-syntax-ns#"
   xmlns:cc="http://creativecommons.org/ns#"
   xmlns:dc="http://purl.org/dc/elements/1.1/">
  <sodipodi:namedview
     id="namedview7"
     pagecolor="#9c4444"
     bordercolor="#000000"
     borderopacity="0.25"
     inkscape:showpageshadow="2"
     inkscape:pageopacity="0.0"
     inkscape:pagecheckerboard="0"
     inkscape:deskcolor="#d1d1d1"
     inkscape:zoom="6.15625"
     inkscape:cx="15.756345"
     inkscape:cy="29.563452"
     inkscape:window-width="1226"
     inkscape:window-height="669"
     inkscape:window-x="124"
     inkscape:window-y="132"
     inkscape:window-maximized="0"
     inkscape:current-layer="svg7"
     showgrid="false" />
  <defs
     id="defs2">
    <rect
       x="67.489848"
       y="35.60533"
       width="15.337563"
       height="22.51269"
       id="rect3808" />
    <linearGradient
       inkscape:collect="always"
       id="linearGradient1134">
      <stop
         style="stop-color:#161616;stop-opacity:1;"
         offset="0"
         id="stop1130" />
      <stop
         style="stop-color:#404040;stop-opacity:1;"
         offset="1"
         id="stop1132" />
    </linearGradient>
    <linearGradient
       inkscape:collect="always"
       id="linearGradient883">
      <stop
         style="stop-color:#808080;stop-opacity:1;"
         offset="0"
         id="stop879" />
      <stop
         style="stop-color:#3e3e3e;stop-opacity:1;"
         offset="0.5"
         id="stop1216" />
      <stop
         style="stop-color:#242424;stop-opacity:1;"
         offset="1"
         id="stop881" />
    </linearGradient>
    <linearGradient
       inkscape:collect="always"
       xlink:href="#linearGradient883"
       id="linearGradient885"
       x1="2.1085808"
       y1="2.0236168"
       x2="14.846128"
       y2="15.071845"
       gradientUnits="userSpaceOnUse" />
    <linearGradient
       inkscape:collect="always"
       xlink:href="#linearGradient1134"
       id="linearGradient1136"
       x1="14.971222"
       y1="14.703373"
       x2="2.0756054"
       y2="2.0069976"
       gradientUnits="userSpaceOnUse" />
    <filter
       style="color-interpolation-filters:sRGB;"
       inkscape:label="Blur"
       id="filter1283"
       x="-0.082344266"
       y="-0.082344266"
       width="1.1646885"
       height="1.1646885">
      <feGaussianBlur
         stdDeviation="0.5 0.5"
         result="blur"
         id="feGaussianBlur1281" />
    </filter>
  </defs>
  <metadata
     id="metadata2">
    <rdf:RDF>
      <cc:Work
         rdf:about="">
        <dc:format>image/svg+xml</dc:format>
        <dc:type
           rdf:resource="http://purl.org/dc/dcmitype/StillImage" />
      </cc:Work>
    </rdf:RDF>
  </metadata>
  <rect
     style="fill:#000000;stroke:none;stroke-width:0.539739;stroke-dasharray:none;filter:url(#filter1283)"
     id="rect246-1"
     width="14.572964"
     height="14.572964"
     x="1.1932471"
     y="1.2138842"
     rx="2.1589575"
     ry="2.1589575" />
  <rect
     style="opacity:1;fill:#000000;stroke:url(#linearGradient885);stroke-width:0.52915625;stroke-dasharray:none"
     id="rect246"
     width="14.287219"
     height="14.287219"
     x="1.3361193"
     y="1.3567564"
     rx="2.1166251"
     ry="2.1166251" />
  <rect
     style="fill:url(#linearGradient1136);fill-opacity:1;stroke:none;stroke-width:0.478315;stroke-dasharray:none"
     id="rect246-5"
     width="12.914515"
     height="12.914515"
     x="2.0224717"
     y="2.0431087"
     rx="1.5874687"
     ry="1.5874687" />
  <path
     id="path1"
     style="fill:#999999;stroke-width:0.0520025"
     d="m 8.5760004,4.1392482 c -1.9971857,0 -3.5780601,0.021254 -3.7297496,0.050021 C 4.2344853,4.305288 3.7284871,4.6942963 3.4556449,5.2584856 3.3264122,5.5257122 3.3051294,5.6313614 3.304329,6.0113136 3.3035411,6.3863182 3.325533,6.500683 3.4481416,6.7653923 c 0.2284512,0.4932197 0.6668651,0.8928259 1.1442486,1.04358 0.1727346,0.054549 0.9887056,0.066262 3.9886126,0.05815 L 12.35202,7.8571123 12.698421,7.686413 C 12.918986,7.5778172 13.12995,7.421092 13.279298,7.2549809 14.029087,6.4210349 13.862508,5.0928788 12.930397,4.4768949 12.419084,4.1389949 12.42256,4.1392478 8.5760004,4.1392482 Z m 2.9938056,0.6509087 c 0.365844,-7.914e-4 0.449809,0.017875 0.697802,0.1550676 0.335699,0.1857125 0.543677,0.4527153 0.629024,0.8084774 0.138575,0.577649 -0.153488,1.13694 -0.729068,1.3974839 C 11.859711,7.29054 11.290865,7.295465 10.99768,7.1618118 10.498658,6.9343303 10.232972,6.5372997 10.232972,6.0175631 c 0,-0.340689 0.09244,-0.5649445 0.341399,-0.8297366 0.281767,-0.2996865 0.524437,-0.3966488 0.995434,-0.3976732 z m -1.512535,4.713304 c -0.4757982,-4.417e-4 -1.028904,6.033e-4 -1.6632247,0.00312 -4.2173248,0.01678 -3.9463124,-0.01301 -4.4963337,0.4939651 -0.5735609,0.528672 -0.7496735,1.287271 -0.4670788,2.015253 0.2198712,0.566401 0.8245653,1.040234 1.4206188,1.112985 0.2434713,0.02972 5.0651209,0.02481 6.8742444,-0.0069 0.718502,-0.01258 0.732508,-0.01515 1.05421,-0.189458 0.988537,-0.535618 1.283348,-1.725933 0.654659,-2.644278 C 13.201583,9.948088 12.733929,9.6269051 12.358898,9.5490491 12.216651,9.5195251 11.484665,9.5047301 10.057271,9.5034046 Z M 5.4215012,10.081213 c 0.5418542,-0.01223 1.0907665,0.229681 1.3343312,0.732818 0.2972276,0.613991 0.013562,1.325232 -0.6465314,1.621333 -0.7595262,0.340703 -1.7025941,0.0358 -1.985865,-0.642156 -0.1030359,-0.246603 -0.1003013,-0.665634 0.00626,-0.919774 0.2152955,-0.5135 0.7499586,-0.779986 1.2918125,-0.792221 z" />
  <text
     xml:space="preserve"
     transform="scale(0.26457812)"
     id="text3806"
     style="font-size:6.66667px;white-space:pre;shape-inside:url(#rect3808);display:inline;fill:#999999;stroke-width:2" />
</svg>
