<?xml version="1.0" encoding="UTF-8" standalone="no"?>
<svg
   width="22"
   height="22"
   version="1.1"
   id="svg9"
   sodipodi:docname="steam_tray_mono.svg"
   inkscape:version="1.3.2 (091e20ef0f, 2023-11-25)"
   xmlns:inkscape="http://www.inkscape.org/namespaces/inkscape"
   xmlns:sodipodi="http://sodipodi.sourceforge.net/DTD/sodipodi-0.dtd"
   xmlns="http://www.w3.org/2000/svg"
   xmlns:svg="http://www.w3.org/2000/svg"
   xmlns:rdf="http://www.w3.org/1999/02/22-rdf-syntax-ns#"
   xmlns:cc="http://creativecommons.org/ns#"
   xmlns:dc="http://purl.org/dc/elements/1.1/">
  <path
     d="m 15.16653,1.4019038 c -3.022185,0 -5.4800451,2.5023882 -5.4800451,5.5775938 0,0.02465 -3.476e-4,0.049658 9.526e-4,0.072813 L 6.1671711,12.247794 c -0.054337,-0.003 -0.1087284,-0.0048 -0.1631412,-0.0057 -0.7898046,0.0011 -1.5617223,0.238986 -2.2189117,0.684019 L 3.405098,12.767005 1.3342205,11.899048 v 2.240848 c 0,3.278829 1.7788135,6.543583 4.954733,6.233896 0.4718401,-0.03352 0.934122,-0.151576 1.3654729,-0.348723 0.00409,-0.0023 0.00818,-0.0044 0.012258,-0.0066 1.4286535,-0.660913 2.3463086,-2.107972 2.3481156,-3.702764 -0.0011,-0.03514 -0.0027,-0.07028 -0.0047,-0.10538 l 5.032955,-3.653869 c 0.04089,0.0014 0.08267,0.0018 0.123537,0.0018 3.023392,0 5.481012,-2.503566 5.481012,-5.5785756 0,-3.0753038 -2.457185,-5.5766127 -5.481012,-5.5766127 v -9.801e-4 z m 0,1.8614378 c 2.013951,0 3.653234,1.6682749 3.653234,3.7162054 0,2.0494997 -1.639283,3.717139 -3.653234,3.717139 -2.012696,0 -3.650386,-1.6676393 -3.650386,-3.717139 0,-2.0478813 1.637735,-3.7162054 3.650386,-3.7162054 z m 0.0067,0.9177942 c -1.513555,0 -2.742292,1.2508508 -2.742292,2.7926722 0,1.5419197 1.228737,2.7916905 2.742292,2.7916905 1.51481,0 2.74321,-1.2497708 2.74321,-2.7916905 0,-1.5418214 -1.228448,-2.7926722 -2.74321,-2.7926722 z M 6.0043148,13.194265 c 0.3029239,9e-6 0.6041811,0.04553 0.8939953,0.135081 0.093774,0.02936 0.1866645,0.06342 0.27913,0.102509 0.285793,0.120794 0.5476668,0.281533 0.7798564,0.476138 0.3869779,0.324345 0.6915478,0.74278 0.887381,1.227256 0.074571,0.184458 0.1299372,0.373839 0.1688,0.565216 0.0029,0.01275 0.00572,0.02553 0.00849,0.03834 0.013236,0.06958 0.021645,0.139751 0.030177,0.209804 0.00504,0.03599 0.00943,0.07211 0.013201,0.108262 0.0075,0.08629 0.011858,0.172176 0.012258,0.258668 v 0.0011 c -6.033e-4,1.723755 -1.376501,3.120714 -3.073272,3.120253 -1.1252577,-0.0011 -2.1599177,-0.626983 -2.6970032,-1.631536 l 1.6304944,0.683085 c 1.060956,0.44453 2.2501985,0.02977 2.8413193,-0.924513 4.422e-4,-7.75e-4 0.00145,-0.0012 0.00185,-0.0019 0.00696,-0.01101 0.01112,-0.0243 0.01792,-0.03545 0.059455,-0.09988 0.1194307,-0.199339 0.1650293,-0.3104 0.00262,-0.0064 0.00312,-0.01285 0.00565,-0.01916 0.058918,-0.143656 0.1020459,-0.289867 0.1310765,-0.436859 1.843e-4,-9.7e-4 -1.821e-4,-0.0018 0,-0.0029 0.029867,-0.152121 0.04384,-0.304445 0.043376,-0.456023 -0.00143,-0.456543 -0.1361415,-0.901362 -0.3819228,-1.277044 -0.0022,-0.0034 -0.00532,-0.0062 -0.00755,-0.0096 -0.078785,-0.119185 -0.1683586,-0.231245 -0.2687476,-0.334455 -0.080906,-0.08367 -0.1736712,-0.15655 -0.2678171,-0.228006 -0.023783,-0.01805 -0.0433,-0.04028 -0.067894,-0.05749 -5.691e-4,-3.95e-4 -0.0013,-5.48e-4 -0.00185,-0.0011 C 7.0156227,14.301051 6.8724512,14.219121 6.717301,14.154115 L 4.9133325,13.399219 C 5.261766,13.264175 5.6314888,13.194704 6.0044173,13.194201 Z"
     color="#000000"
     fill="url(#b)"
     stroke-width="0.588502"
     id="path25"
     style="fill:#eceff4;fill-opacity:1;stroke-width:0.519551;stroke-dasharray:none"
     sodipodi:nodetypes="csccccccsccccccsscccssssssssssccccccccccsccccccccsccsccccccccc" />
  <metadata
     id="metadata13">
    <rdf:RDF>
      <cc:Work
         rdf:about="">
        <dc:format>image/svg+xml</dc:format>
        <dc:type
           rdf:resource="http://purl.org/dc/dcmitype/StillImage" />
        <dc:title />
      </cc:Work>
    </rdf:RDF>
  </metadata>
  <sodipodi:namedview
     pagecolor="#ffffff"
     bordercolor="#666666"
     borderopacity="1"
     objecttolerance="10"
     gridtolerance="10"
     guidetolerance="10"
     inkscape:pageopacity="0"
     inkscape:pageshadow="2"
     inkscape:window-width="1541"
     inkscape:window-height="738"
     id="namedview11"
     showgrid="false"
     inkscape:zoom="13.258252"
     inkscape:cx="11.087434"
     inkscape:cy="13.08619"
     inkscape:window-x="84"
     inkscape:window-y="47"
     inkscape:window-maximized="0"
     inkscape:current-layer="svg9"
     inkscape:document-rotation="0"
     inkscape:showpageshadow="2"
     inkscape:pagecheckerboard="0"
     inkscape:deskcolor="#d1d1d1" />
  <defs
     id="defs3">
    <style
       id="current-color-scheme"
       type="text/css">
   .ColorScheme-Text { color:#dfdfdf; } .ColorScheme-Highlight { color:#4285f4; } .ColorScheme-NeutralText { color:#ff9800; } .ColorScheme-PositiveText { color:#4caf50; } .ColorScheme-NegativeText { color:#f44336; }
  </style>
  </defs>
  <path
     style="fill:currentColor"
     class="ColorScheme-Text"
     d="M 13.349609,10.990234 A 3.9999998,3.9999998 0 0 0 13.363281,11.001953 L 13.353516,11 Z"
     id="path7" />
</svg>
